<svg id="グループ_164" data-name="グループ 164" xmlns="http://www.w3.org/2000/svg" width="1067.562" height="78.32" viewBox="0 0 533.781 39.16">
  <defs>
    <style>
      .cls-1 {
        fill-rule: evenodd;
      }
    </style>
  </defs>
  <path id="商品" class="cls-1" d="M744.275,1820.92a1.172,1.172,0,0,1,1.148-1.15h4.019a1.145,1.145,0,0,1,1.148,1.15v1.15a1.066,1.066,0,0,1-1.148,1.11h-4.019a1.088,1.088,0,0,1-1.148-1.11v-1.15Zm10.21-.82c0-.61.041-1.23,0.041-1.84,0-1.28-.9-1.48-1.968-1.48s-2.091.08-3.116,0.08h-3.978c-1.066,0-2.132-.08-3.157-0.08-1.066,0-1.927.25-1.927,1.48,0,0.61.041,1.23,0.041,1.84v4.96c0,0.66-.041,1.27-0.041,1.89,0,0.94.41,0.94,1.927,0.94,1.763,0,1.968,0,2.009-.9,0-.82.574-0.86,1.517-0.86h3.609c1.066,0,2.091.04,3.157,0.04,1.025,0,1.927-.21,1.927-1.44,0-.61-0.041-1.23-0.041-1.84v-2.79Zm3.936-9.92a8.917,8.917,0,0,0-1.763-.25c-0.492,0-.574.21-0.656,0.66-0.287,1.31-.451,1.47-1.6,1.47h-1.066c-0.861,0-1.148-.2-1.148-1.1v-1.36a0.97,0.97,0,0,1,1.148-1.14H758.3a0.662,0.662,0,0,1,.779.78v0.41a0.466,0.466,0,0,1-.492.53h-0.164Zm-5.576-8.78a17.829,17.829,0,0,1-1.23,2.71,1.538,1.538,0,0,1-1.64.9h-6.11a0.217,0.217,0,0,1-.205-0.2,0.386,0.386,0,0,1,.041-0.21v-0.12a11.171,11.171,0,0,0-1.066-2.71c-0.082-.2-0.164-0.32-0.205-0.45a0.64,0.64,0,0,1-.123-0.37,0.622,0.622,0,0,1,.7-0.61h9.1a0.744,0.744,0,0,1,.82.7A0.644,0.644,0,0,1,752.845,1801.4Zm6.232,22.06c0,1.23.123,2.3-1.107,2.3-0.738,0-1.968-.12-2.542-0.12-0.656,0-.738.45-0.738,1.02,0,3.32,1.476,3.16,2.583,3.16,4.3,0,5.822-.86,5.822-4.31,0-1.02-.082-2.05-0.082-3.03V1810.3c0-1.15.082-2.29,0.082-3.44,0-1.6-.738-1.93-2.214-1.93-1.148,0-2.337.08-3.526,0.08h-0.779a0.617,0.617,0,0,1-.7-0.57,0.945,0.945,0,0,1,.082-0.37l0.738-1.35a1.16,1.16,0,0,1,.82-0.54c0.328-.08.656-0.12,0.656-0.45,0-.49-0.861-0.74-1.8-1.02a0.246,0.246,0,0,1-.123-0.17,0.217,0.217,0,0,1,.2-0.2h3.239c1.6,0,3.239.12,4.838,0.12,0.984,0,.984-0.33.984-1.84,0-1.44.041-1.85-.943-1.85-1.64,0-3.239.08-4.879,0.08h-8.938a0.959,0.959,0,0,1-1.148-1.06,1.457,1.457,0,0,1,.451-1.44,0.742,0.742,0,0,0,.492-0.53c0-.33-0.492-0.41-0.779-0.45-0.7-.04-3.24-0.25-3.9-0.25-0.328,0-.779.04-0.779,0.49a0.887,0.887,0,0,0,.041.33,13.425,13.425,0,0,1,.123,1.81,0.957,0.957,0,0,1-1.107,1.1h-8.9c-1.64,0-3.239-.08-4.879-0.08-0.984,0-.943.41-0.943,1.85s0,1.84.984,1.84c1.6,0,3.2-.12,4.838-0.12h3.69a0.183,0.183,0,0,1,.123.12,0.087,0.087,0,0,1-.082.08,1.337,1.337,0,0,0-.861.82,17.6,17.6,0,0,0,1.025,2.05,5.34,5.34,0,0,1,.328.62,0.945,0.945,0,0,1,.082.37,0.7,0.7,0,0,1-.738.61h-1.517c-1.148,0-2.337-.08-3.485-0.08-1.435,0-2.173.37-2.173,1.93,0,1.15.041,2.33,0.041,3.48v13.04c0,1.72-.082,3.44-0.082,5.17,0,1.23.369,1.27,2.173,1.27,1.763,0,2.132,0,2.132-1.23,0-1.72-.082-3.49-0.082-5.21V1809.6a0.97,0.97,0,0,1,1.148-1.14H741.2a0.659,0.659,0,0,1,.779.65,1.143,1.143,0,0,1-.082.37,11.594,11.594,0,0,1-4.838,4.68,1.164,1.164,0,0,0-.779.73c0,0.78,1.763,2.14,2.5,2.14a2.265,2.265,0,0,0,1.025-.46,15.229,15.229,0,0,0,5.248-5.49,0.922,0.922,0,0,1,.7-0.61,0.544,0.544,0,0,0,.492-0.41c0-.37-1.722-1.03-2.091-1.19a0.2,0.2,0,0,1-.123-0.21,0.264,0.264,0,0,1,.246-0.2h2.912a0.97,0.97,0,0,1,1.148,1.14v0.99c0,0.74-.041,1.47-0.041,2.17,0,2.5,1.681,2.5,4.633,2.5h1.6c1.148,0,3.157.08,3.977-.86a0.377,0.377,0,0,1,.287-0.12,0.289,0.289,0,0,1,.287.33v8.85Zm24.23-23.49a1.088,1.088,0,0,1,1.148-1.11h8.16a1.088,1.088,0,0,1,1.148,1.11v4.47a1.152,1.152,0,0,1-1.148,1.15h-8.16a1.152,1.152,0,0,1-1.148-1.15v-4.47Zm8.98,9.22c0.328,0,1.271,0,1.435.37,0.246,0.58.287,0.62,2.255,0.62,1.517,0,2.091,0,2.091-1.03,0-.94-0.041-1.92-0.041-2.87v-6.6c0-.94.082-1.88,0.082-2.83,0-1.47-.861-1.72-2.132-1.72-1.066,0-2.091.04-3.157,0.04h-8.57c-1.066,0-2.132-.04-3.2-0.04-1.271,0-2.05.33-2.05,1.72,0,0.95.041,1.89,0.041,2.83v6.56c0,0.99-.041,1.93-0.041,2.91,0,1.03.574,1.03,2.132,1.03h0.533c0.615,0,1.476-.04,1.558-0.37,0.164-.53.533-0.62,1.558-0.62h7.5Zm2.993,14.6a1.172,1.172,0,0,1-1.148-1.15v-4.84a1.17,1.17,0,0,1,1.148-1.14h4.264a1.083,1.083,0,0,1,1.107,1.14v4.84a1.086,1.086,0,0,1-1.107,1.15H795.28Zm5.33,4.47c0,0.25-.041.45-0.041,0.7,0,0.98.574,0.94,2.214,0.94,1.722,0,2.214.04,2.214-.98,0-1.28-.082-2.55-0.082-3.82v-7.34c0-1.02.041-2.05,0.041-3.07,0-1.48-.615-1.89-2.009-1.89-0.984,0-1.968.08-2.952,0.08h-5.166c-0.984,0-2.009-.08-2.993-0.08-1.312,0-2.009.41-2.009,1.81,0,1.06.082,2.13,0.082,3.15v7.34c0,1.27-.082,2.54-0.082,3.86,0,0.94.41,0.98,2.214,0.98,1.681,0,2.173,0,2.173-.98v-0.66a0.81,0.81,0,0,1,.943-0.94h4.51A0.812,0.812,0,0,1,800.61,1828.26Zm-23.125-4.47a1.172,1.172,0,0,1-1.148-1.15v-4.84a1.17,1.17,0,0,1,1.148-1.14h3.977a1.17,1.17,0,0,1,1.148,1.14v4.84a1.172,1.172,0,0,1-1.148,1.15h-3.977Zm5.043,5.17c0,0.94.492,0.94,2.132,0.94,1.681,0,2.132,0,2.132-.94,0-1.32-.082-2.59-0.082-3.86v-7.34c0-1.02.041-2.09,0.041-3.15,0-1.44-.7-1.81-2.009-1.81-0.984,0-2.009.08-2.993,0.08h-4.715c-0.984,0-1.968-.08-2.993-0.08-1.312,0-2.009.41-2.009,1.85,0,1.02.082,2.09,0.082,3.11v7.34c0,1.27-.082,2.54-0.082,3.82,0,1.02.492,0.98,2.173,0.98,1.722,0,2.214.04,2.214-.94v-0.7a0.812,0.812,0,0,1,.943-0.9h4.223a0.8,0.8,0,0,1,.943.9v0.7Z" transform="translate(-438.938 -1791.72)"/>
  <path id="LINE_UP" data-name="LINE UP" class="cls-1" d="M813.333,1794.05v34.68h15.5v-4.99H818.637v-29.69h-5.3Zm20.488,0v34.68h5.3v-34.68h-5.3Zm18.927,34.68V1804.5l25.169,26.36v-36.81h-5.3v24.02l-25.169-26.36v37.02h5.3Zm52.624-34.68H886.236v34.68h19.136v-4.99H891.54v-10.92h13.416v-4.99H891.54v-8.79h13.832v-4.99Zm13.779,0v22.3a12.837,12.837,0,0,0,3.224,9,13.428,13.428,0,0,0,19.241,0,12.837,12.837,0,0,0,3.224-9v-22.3h-5.3v20.9a12.125,12.125,0,0,1-1.092,5.98,7.587,7.587,0,0,1-12.9,0,12.125,12.125,0,0,1-1.092-5.98v-20.9h-5.3Zm34.007,0v34.68h5.3v-14.09h2.392a12.528,12.528,0,0,0,8.476-2.71,9.7,9.7,0,0,0,3.38-7.59,10.029,10.029,0,0,0-4.316-8.42,13.5,13.5,0,0,0-7.592-1.87h-7.645Zm5.3,4.88h2.34c6.032,0,6.812,3.44,6.812,5.36,0,3.22-2.184,5.46-6.76,5.46h-2.392v-10.82Z" transform="translate(-438.938 -1791.72)"/>
  <path id="あなたにおすすめのサンカット_はどれ_" data-name="あなたにおすすめのサンカット®はどれ？" class="cls-1" d="M445.65,1811.28a0.172,0.172,0,0,1,.208.14,0.771,0.771,0,0,1-.1.26,3.784,3.784,0,0,1-.992,1.4,0.714,0.714,0,0,1-.16-0.64v-0.19a0.968,0.968,0,0,1,.16-0.78A2.317,2.317,0,0,1,445.65,1811.28Zm-2.753,1.1c0.16,0,.192.13,0.192,0.27s-0.016.31-.016,0.47c0,0.49.048,1.16,0.048,1.31a0.562,0.562,0,0,1-.192.49,4.2,4.2,0,0,1-1.921.9,0.413,0.413,0,0,1-.448-0.48C440.56,1814.04,442.561,1812.38,442.9,1812.38Zm1.073-6.98a0.244,0.244,0,0,0-.256.26c-0.08.57-.144,1.13-0.225,1.69a0.654,0.654,0,0,1-.16.44,0.674,0.674,0,0,1-.432.14c-0.544.05-1.088,0.06-1.632,0.06-0.289,0-.561-0.01-0.833-0.01-0.288,0-.384.05-0.384,0.85,0,0.75.1,0.75,0.8,0.75,0.593,0,1.185-.08,1.777-0.13,0.064,0,.288-0.03.352-0.03a0.249,0.249,0,0,1,.272.27,0.773,0.773,0,0,1-.464.9c-1.809.86-3.841,2.81-3.841,4.94a1.782,1.782,0,0,0,1.808,1.92,4.57,4.57,0,0,0,2.369-.86,0.411,0.411,0,0,1,.176-0.06,0.188,0.188,0,0,1,.176.16,0.3,0.3,0,0,0,.273.22,1.691,1.691,0,0,0,1.216-.85v-0.08c-0.016-.08-0.1-0.54-0.1-0.59a0.4,0.4,0,0,1,.16-0.32,14.592,14.592,0,0,0,2.145-3.06,0.531,0.531,0,0,1,.432-0.4,2.2,2.2,0,0,1,1.6,2.29c0,2.02-2.065,2.98-3.746,3.43-0.176.04-.352,0.06-0.352,0.24a1.681,1.681,0,0,0,.736,1.28c0.529,0,5.058-1.38,5.058-5.01,0-2.74-2.224-4.01-4.7-4.01-0.321,0-.721.05-1.041,0.08-0.048,0-.1.02-0.128,0.02a0.23,0.23,0,0,1-.256-0.21,0.612,0.612,0,0,1,.432-0.64c0.64-.09,1.633-0.29,2.257-0.43,0.4-.08.784-0.14,0.784-0.45,0-.06-0.128-1.28-0.512-1.28a0.811,0.811,0,0,0-.272.08,12.217,12.217,0,0,1-1.889.53,1.027,1.027,0,0,1-.24.05,0.231,0.231,0,0,1-.224-0.24c0-.07.08-0.4,0.1-0.5a0.725,0.725,0,0,1,.352-0.59,0.3,0.3,0,0,0,.16-0.21,0.808,0.808,0,0,0-.688-0.33C444.85,1805.66,444.082,1805.4,443.97,1805.4Zm17.056,10.36c0.8,0,.817.17,0.817,0.49a0.753,0.753,0,0,1-.833.87,0.993,0.993,0,0,1-1.056-.75C459.954,1815.85,460.642,1815.76,461.026,1815.76Zm0.785-5.65a0.321,0.321,0,0,0-.385.35c0,0.08.016,0.14,0.016,0.22,0.048,0.63.289,2.95,0.289,3.46a0.282,0.282,0,0,1-.337.27h-0.416c-1.264,0-2.657.51-2.657,1.99s1.521,2.17,2.817,2.17a1.955,1.955,0,0,0,2.225-1.56,0.351,0.351,0,0,1,.256-0.37,4.68,4.68,0,0,1,1.281.73,0.825,0.825,0,0,0,.416.23,1.745,1.745,0,0,0,.992-1.17c0-.38-1.888-1.27-2.257-1.41a1.041,1.041,0,0,0-.16-0.06,0.63,0.63,0,0,1-.5-0.4c-0.08-.34-0.16-2.64-0.16-3.11,0-.33.032-0.81,0.032-0.85a0.348,0.348,0,0,0-.32-0.33A6.145,6.145,0,0,0,461.811,1810.11Zm2.449-2.47a2.049,2.049,0,0,0-1.073,1.11,0.419,0.419,0,0,0,.208.25,9.036,9.036,0,0,1,2,2.07,0.536,0.536,0,0,0,.352.29,1.939,1.939,0,0,0,1.2-1.11A8.18,8.18,0,0,0,464.26,1807.64Zm-5.379-2.61c-0.144,0-.144.16-0.144,0.27a9.725,9.725,0,0,1-.512,2.69,0.542,0.542,0,0,1-.48.26,15.171,15.171,0,0,1-1.649.08H455.36a0.235,0.235,0,0,0-.288.26c0,0.16.08,0.73,0.112,0.92,0.064,0.37.128,0.52,0.4,0.52,0.368,0,1.6-.16,1.729-0.16a0.213,0.213,0,0,1,.224.2,6,6,0,0,1-.368.98,30.071,30.071,0,0,1-1.9,3.7,1.75,1.75,0,0,0-.288.58,2.011,2.011,0,0,0,1.424.8,0.328,0.328,0,0,0,.321-0.23,40.565,40.565,0,0,0,2.609-5.7c0.192-.53.176-0.64,0.752-0.73,1.472-.28,1.665-0.31,1.665-0.66a7.862,7.862,0,0,0-.08-0.85c-0.033-.19-0.049-0.48-0.241-0.48a0.9,0.9,0,0,0-.16.03,7.371,7.371,0,0,1-.912.24,0.18,0.18,0,0,1-.176-0.2,4.926,4.926,0,0,1,.176-0.72,2.748,2.748,0,0,1,.288-0.85,0.468,0.468,0,0,0,.256-0.29,0.323,0.323,0,0,0-.256-0.19C460.386,1805.42,459.057,1805.03,458.881,1805.03Zm17.249,10.33a2.326,2.326,0,0,0-.992,1.18,1.634,1.634,0,0,0,.784.91,6.7,6.7,0,0,0,3.426.72,16.279,16.279,0,0,0,2.5-.2,1,1,0,0,0,.176-0.8c0-.64,0-1.01-0.272-1.01a0.453,0.453,0,0,0-.16.03,7.238,7.238,0,0,1-2.273.32,3.849,3.849,0,0,1-2.9-.93A0.494,0.494,0,0,0,476.13,1815.36Zm1.2-3.67c0,0.27.08,0.35,0.4,0.35,0.208,0,.4-0.01.608-0.01a7.053,7.053,0,0,1,2.545.4,0.826,0.826,0,0,0,.336.08,0.282,0.282,0,0,0,.289-0.21,3.982,3.982,0,0,0,.3-1.12,0.3,0.3,0,0,0-.224-0.32,11.643,11.643,0,0,0-3.218-.45C477.619,1810.41,477.331,1810.31,477.331,1811.69Zm-2.1-6.82c-0.16,0-.16.16-0.176,0.4a14.653,14.653,0,0,1-.592,2.92c-0.144.24-.384,0.25-1.409,0.25-0.688,0-1.36-.06-1.5-0.06-0.193,0-.241.11-0.241,0.29a6.686,6.686,0,0,0,.128,1.16c0.1,0.31.353,0.29,0.673,0.29,0.5,0,1.2-.08,1.424-0.08a0.25,0.25,0,0,1,.288.24,2.592,2.592,0,0,1-.128.42,31.329,31.329,0,0,1-2.833,5.92,1.212,1.212,0,0,0-.272.53,2.078,2.078,0,0,0,1.361.86,0.823,0.823,0,0,0,.576-0.6,50.2,50.2,0,0,0,2.977-7.06,0.67,0.67,0,0,1,.656-0.63,25.5,25.5,0,0,0,2.625-.62,0.5,0.5,0,0,0,.305-0.58c0-.24,0-1.21-0.321-1.21a0.826,0.826,0,0,0-.336.08,12.091,12.091,0,0,1-1.856.59,0.239,0.239,0,0,1-.241-0.24c0-.08.337-1.25,0.385-1.43a0.724,0.724,0,0,1,.368-0.56,0.236,0.236,0,0,0,.144-0.16,0.864,0.864,0,0,0-.592-0.33A14.124,14.124,0,0,0,475.234,1804.87Zm16.528,9.4a2.38,2.38,0,0,0-.864,1.36c0,0.26,1.072,1.6,3.665,1.6a18.614,18.614,0,0,0,3.794-.48,0.618,0.618,0,0,0,.192-0.59c0-.82-0.032-1.2-0.288-1.2a1.206,1.206,0,0,0-.336.06,13.107,13.107,0,0,1-3.522.51,2.74,2.74,0,0,1-2.433-1.12A0.288,0.288,0,0,0,491.762,1814.27Zm0.368-6.93c-0.256,0-.336.24-0.336,1.01a0.772,0.772,0,0,0,.16.62,11.221,11.221,0,0,0,2.8.32,19.891,19.891,0,0,0,2.69-.22c0.3-.07.3-0.2,0.3-0.53a7.954,7.954,0,0,0-.064-0.87,0.356,0.356,0,0,0-.32-0.38,1.271,1.271,0,0,0-.289.05,9.346,9.346,0,0,1-4.529.08A2.274,2.274,0,0,0,492.13,1807.34Zm-3.841-1.25a0.34,0.34,0,0,0-.24.35,7.359,7.359,0,0,1-.208.8,19.137,19.137,0,0,0-.817,5.3,11,11,0,0,0,.977,4.91,1.094,1.094,0,0,0,.672.79,1.5,1.5,0,0,0,1.249-.79,1.486,1.486,0,0,0-.033-0.24c-0.016-.14-0.064-0.51-0.064-0.67a12.153,12.153,0,0,1,.641-2.32,0.864,0.864,0,0,0-.577-0.51,0.508,0.508,0,0,0-.336.38,1.264,1.264,0,0,1-.432.63c-0.368,0-.432-1.94-0.432-2.24a12.71,12.71,0,0,1,.9-4.55,1.045,1.045,0,0,1,.5-0.69c0.16-.09.224-0.11,0.224-0.21a0.381,0.381,0,0,0-.32-0.27C489.761,1806.67,488.417,1806.09,488.289,1806.09Zm24.756,2.75a4.73,4.73,0,0,0-1.2-.83,1.969,1.969,0,0,0-.96,1.04,0.534,0.534,0,0,0,.288.38,23,23,0,0,1,2.129,1.8,0.639,0.639,0,0,0,.352.19,1.733,1.733,0,0,0,1.008-1.09,4.961,4.961,0,0,0-1.232-1.18C513.3,1809.05,513.173,1808.94,513.045,1808.84Zm-7.523,6.34c0,0.06.016,0.15,0.016,0.23,0,0.03.032,0.68,0.032,0.7a0.108,0.108,0,0,1-.112.13,0.311,0.311,0,0,1-.192-0.1,3.883,3.883,0,0,0-.817-0.49,0.358,0.358,0,0,0-.352.32,0.492,0.492,0,0,0,.192.3,3.247,3.247,0,0,1,.977,1.25,0.755,0.755,0,0,0,.592.61,1.435,1.435,0,0,0,1.408-1.17c0-.16-0.112-1.6-0.144-1.94-0.016-.22-0.048-0.86-0.048-1.06a0.531,0.531,0,0,1,.256-0.49,6.223,6.223,0,0,1,2.818-.77,1.727,1.727,0,0,1,1.92,1.5c0,1.17-1.36,1.48-2.289,1.48a12.151,12.151,0,0,1-1.312-.15c-0.24,0-.288.21-0.288,0.42a3.084,3.084,0,0,0,.256,1.15,0.83,0.83,0,0,0,.672.18H509.3a6.38,6.38,0,0,0,3.218-.72,2.829,2.829,0,0,0,1.28-2.39c0-1.92-1.713-3.02-3.489-3.02a7.484,7.484,0,0,0-2.657.53,1.852,1.852,0,0,1-.4.14c-0.208,0-.24-0.35-0.24-0.62v-0.23c0-.74.032-0.85,0.625-0.96,1.216-.21,1.488-0.21,1.488-0.62,0-.28-0.048-1.32-0.416-1.32a0.936,0.936,0,0,0-.272.08,10.252,10.252,0,0,1-1.009.28,0.283,0.283,0,0,1-.272-0.28c0-.06.016-0.16,0.016-0.22,0.016-.14.032-0.27,0.048-0.37a1.054,1.054,0,0,1,.305-0.88,0.432,0.432,0,0,0,.16-0.25,0.32,0.32,0,0,0-.321-0.21c-0.32-.07-1.392-0.29-1.632-0.29a0.2,0.2,0,0,0-.208.24c0,0.06.032,0.43,0.032,0.75,0,0.45-.016.9-0.032,1.35a0.662,0.662,0,0,1-.128.48,0.872,0.872,0,0,1-.593.19c-0.5.06-1.056,0.09-1.552,0.11-0.3.02-.336,0.08-0.336,0.51,0,1.17.256,1.19,0.464,1.19a15.465,15.465,0,0,0,1.633-.26c0.032,0,.064-0.01.1-0.01a0.347,0.347,0,0,1,.352.36V1811c0,0.24-.016.48-0.016,0.72v0.55c0,0.49-.064.51-0.673,0.88-0.88.54-1.728,1.12-2.625,1.63a0.487,0.487,0,0,0-.368.34,2.516,2.516,0,0,0,.961,1.52,0.491,0.491,0,0,0,.24-0.13,20.322,20.322,0,0,1,2.369-1.78C505.506,1814.73,505.506,1814.89,505.522,1815.18Zm17.793-3.31c0.656,0,.8.91,0.8,1.41s-0.192,1.31-.832,1.31-0.753-.88-0.753-1.36S522.69,1811.87,523.315,1811.87Zm0.08-6.79a0.179,0.179,0,0,0-.208.19,0.363,0.363,0,0,0,.016.13,13.673,13.673,0,0,1,.16,1.99,0.461,0.461,0,0,1-.353.49c-0.144.03-3.9,0.24-4.337,0.26-0.785.03-.929,0-0.929,0.32a9.364,9.364,0,0,0,.128,1.15c0.048,0.21.064,0.43,0.32,0.43a0.988,0.988,0,0,0,.241-0.03c0.768-.16,2.833-0.38,3.665-0.46,0.192-.02.928-0.1,1.057-0.1,0.176,0,.288.08,0.288,0.67a0.2,0.2,0,0,1-.192.19c-1.617.15-2.257,1.56-2.257,3.03,0,1.17.512,2.67,1.9,2.67a1.223,1.223,0,0,0,.369-0.08,0.553,0.553,0,0,1,.128-0.01,0.117,0.117,0,0,1,.112.11,0.588,0.588,0,0,1-.08.24,5.15,5.15,0,0,1-1.153,1.55,1.222,1.222,0,0,0-.368.45c0,0.29,1.3.69,1.489,0.69,0.7,0,2.417-2.87,2.417-5.44a4.888,4.888,0,0,0-.5-2.24,1.384,1.384,0,0,1-.16-0.84v-0.56a0.521,0.521,0,0,1,.3-0.53c0.177-.04,1.665-0.06,1.953-0.06,0.9,0,2.1.08,2.321,0.08,0.16,0,.352.02,0.352-0.96,0-.72-0.112-0.82-0.368-0.82-0.688,0-2.4.1-3.185,0.13-0.176,0-.8.05-0.929,0.05a0.42,0.42,0,0,1-.464-0.46c0-.34,0-0.69.016-1.03a0.728,0.728,0,0,1,.256-0.67,0.256,0.256,0,0,0,.1-0.18,1.25,1.25,0,0,0-.864-0.22C524.259,1805.18,523.763,1805.08,523.4,1805.08Zm14.288,6.79c0.656,0,.8.91,0.8,1.41s-0.192,1.31-.832,1.31-0.753-.88-0.753-1.36S537.058,1811.87,537.683,1811.87Zm0.08-6.79a0.179,0.179,0,0,0-.208.19,0.363,0.363,0,0,0,.016.13,13.673,13.673,0,0,1,.16,1.99,0.461,0.461,0,0,1-.352.49c-0.145.03-3.906,0.24-4.338,0.26-0.785.03-.929,0-0.929,0.32a9.364,9.364,0,0,0,.128,1.15c0.048,0.21.064,0.43,0.321,0.43a0.986,0.986,0,0,0,.24-0.03c0.768-.16,2.833-0.38,3.665-0.46,0.192-.02.929-0.1,1.057-0.1,0.176,0,.288.08,0.288,0.67a0.2,0.2,0,0,1-.192.19c-1.617.15-2.257,1.56-2.257,3.03,0,1.17.512,2.67,1.9,2.67a1.216,1.216,0,0,0,.369-0.08,0.553,0.553,0,0,1,.128-0.01,0.117,0.117,0,0,1,.112.11,0.588,0.588,0,0,1-.08.24,5.134,5.134,0,0,1-1.153,1.55,1.222,1.222,0,0,0-.368.45c0,0.29,1.3.69,1.489,0.69,0.7,0,2.417-2.87,2.417-5.44a4.888,4.888,0,0,0-.5-2.24,1.384,1.384,0,0,1-.16-0.84v-0.56a0.52,0.52,0,0,1,.3-0.53c0.176-.04,1.664-0.06,1.952-0.06,0.9,0,2.1.08,2.321,0.08,0.16,0,.352.02,0.352-0.96,0-.72-0.112-0.82-0.368-0.82-0.688,0-2.4.1-3.185,0.13-0.176,0-.8.05-0.928,0.05a0.42,0.42,0,0,1-.465-0.46c0-.34,0-0.69.016-1.03a0.725,0.725,0,0,1,.257-0.67,0.256,0.256,0,0,0,.1-0.18,1.253,1.253,0,0,0-.865-0.22C538.627,1805.18,538.131,1805.08,537.763,1805.08Zm15.408,4.51a0.2,0.2,0,0,1,.224.23c0,0.45-.816,3.09-1.233,3.09a0.644,0.644,0,0,1-.368-0.51,13.333,13.333,0,0,1-.656-1.75C551.138,1810.12,552.787,1809.59,553.171,1809.59Zm-2.145,4.9a1.683,1.683,0,0,1-1.345.95c-0.544,0-.608-0.76-0.608-1.17,0-1.03.5-2.21,0.752-2.21a0.311,0.311,0,0,1,.225.22c0.288,0.68.592,1.32,0.912,1.97A0.62,0.62,0,0,1,551.026,1814.49Zm2.913-8.86c-0.192,0-.224.12-0.224,0.28,0,0.23.016,0.47,0.016,0.71,0,1.21-.032,1.31-0.576,1.39a6.913,6.913,0,0,0-2.129.7,0.52,0.52,0,0,1-.272.08,0.291,0.291,0,0,1-.288-0.25c-0.1-.37-0.224-0.98-0.288-1.36-0.032-.21-0.048-0.47-0.3-0.47a8.137,8.137,0,0,0-1.264.32,0.3,0.3,0,0,0-.256.26,1.019,1.019,0,0,0,.048.24c0.224,0.69.4,1.38,0.624,2.05a1.108,1.108,0,0,1,.1.38,0.479,0.479,0,0,1-.176.37,5.79,5.79,0,0,0-1.488,3.95c0,1.24.5,2.79,1.984,2.79a4.862,4.862,0,0,0,3.538-2.19,11.974,11.974,0,0,0,2.049-4.87,0.389,0.389,0,0,1,.352-0.38,3.02,3.02,0,0,1,2.545,2.93c0,2.16-1.9,3.52-3.762,4.13-0.256.08-.5,0.12-0.5,0.32a1.926,1.926,0,0,0,1.008,1.29,2.281,2.281,0,0,0,.8-0.27c2.289-1.09,4.129-2.74,4.129-5.44a4.481,4.481,0,0,0-3.681-4.45,0.515,0.515,0,0,1-.528-0.42c0-.03.016-0.11,0.016-0.14a2.14,2.14,0,0,1,.272-1.04,0.6,0.6,0,0,0,.112-0.27,0.353,0.353,0,0,0-.272-0.28A10.469,10.469,0,0,0,553.939,1805.63Zm14.7,2.81a0.254,0.254,0,0,1,.256.29,16.2,16.2,0,0,1-.513,3.12c-0.448,1.63-1.344,3.46-2.144,3.46-0.817,0-1.025-1.49-1.025-2.08a4.952,4.952,0,0,1,2.881-4.61A1.656,1.656,0,0,1,568.643,1808.44Zm1.536-1.87a6.6,6.6,0,0,0-6.643,6.72,5.067,5.067,0,0,0,.5,2.28,2.59,2.59,0,0,0,2.177,1.52,2.875,2.875,0,0,0,2.112-1.24c1.537-1.84,2.1-4.69,2.273-7.02,0.016-.28.016-0.63,0.384-0.63a2.7,2.7,0,0,1,.609.15,3.874,3.874,0,0,1,2.561,3.82c0,2.29-1.649,3.67-3.746,4.16-0.16.04-.4,0.07-0.4,0.23a1.907,1.907,0,0,0,1.073,1.34,6.288,6.288,0,0,0,1.744-.64,5.744,5.744,0,0,0,3.121-5.17,5.434,5.434,0,0,0-1.616-3.94A5.691,5.691,0,0,0,570.179,1806.57Zm11.1,2.72c-0.624,0-1.344-.03-1.808-0.03-0.384,0-.4.21-0.4,0.97,0,0.41.017,0.74,0.417,0.74,0.528,0,1.168-.05,1.792-0.05h0.5a0.43,0.43,0,0,1,.432.42v1.54c0,0.51-.032,1.02-0.032,1.53,0,0.42.192,0.4,0.752,0.4,0.96,0,1.04.07,1.04-.64,0-.45-0.032-0.88-0.032-1.33v-1.52a0.413,0.413,0,0,1,.417-0.4h2.785a0.436,0.436,0,0,1,.416.52c0,3.2-.56,4.53-3.6,5.79a0.351,0.351,0,0,0-.256.26,2.674,2.674,0,0,0,1.169,1.16,6.772,6.772,0,0,0,1.6-.81c2.5-1.65,2.77-3.59,2.818-6.37a0.448,0.448,0,0,1,.5-0.55h0.432c0.608,0,1.216.04,1.841,0.04,0.4,0,.448-0.15.448-0.95,0-.62-0.112-0.75-0.4-0.75-0.336,0-1.393.03-1.889,0.03h-0.432a0.428,0.428,0,0,1-.464-0.5v-0.09c0-.16-0.016-0.32-0.016-0.48v-0.61a5.069,5.069,0,0,1,.1-1.34,0.457,0.457,0,0,0,.176-0.26c0-.14-0.224-0.14-0.5-0.18-0.257-.01-1.153-0.11-1.377-0.11a0.2,0.2,0,0,0-.208.19c0,0.07.016,0.13,0.016,0.2,0.032,0.48.064,2.14,0.064,2.72a0.4,0.4,0,0,1-.4.46h-2.817a0.414,0.414,0,0,1-.417-0.42v-1.1c0-1.04-.016-1.17.193-1.42a0.315,0.315,0,0,0,.1-0.16,0.808,0.808,0,0,0-.737-0.23,11.037,11.037,0,0,0-1.184-.08,0.138,0.138,0,0,0-.16.16c0,0.02.064,0.87,0.064,1.76v1.09a0.46,0.46,0,0,1-.544.4h-0.385Zm24.516-.46a0.385,0.385,0,0,0-.272.17,21.968,21.968,0,0,1-9.812,6.97,0.545,0.545,0,0,0-.5.27,4.484,4.484,0,0,0,.48.96,2.192,2.192,0,0,0,.625.83,0.156,0.156,0,0,0,.16-0.1,0.947,0.947,0,0,1,.672-0.54,27.867,27.867,0,0,0,8.691-6.03,3.248,3.248,0,0,0,.849-1.11A2.428,2.428,0,0,0,605.8,1808.83Zm-9.459-2.56a2.064,2.064,0,0,0-1.009,1.26,0.4,0.4,0,0,0,.256.3,21.1,21.1,0,0,1,2.129,1.49,1.725,1.725,0,0,0,.64.43,1.942,1.942,0,0,0,1.057-1.23,2.79,2.79,0,0,0-.977-0.91A12.934,12.934,0,0,0,596.338,1806.27Zm15.376,2.28c-0.528,0-1.073-.01-1.6-0.01-0.352,0-.384.14-0.384,0.83,0,0.62.048,0.88,0.4,0.88,0.208,0,1.169-.06,1.6-0.06l2.257-.02a0.327,0.327,0,0,1,.336.34,8.375,8.375,0,0,1-.416,1.53,11.078,11.078,0,0,1-3.474,4.84,0.44,0.44,0,0,0-.224.29,2.158,2.158,0,0,0,1.217,1.04,5.573,5.573,0,0,0,1.472-1.25,13.335,13.335,0,0,0,3.138-6.23,0.55,0.55,0,0,1,.512-0.58l1.616-.01c0.721,0,.945-0.03.945,0.4a28.529,28.529,0,0,1-.48,3.82c-0.241,1.14-.577,1.57-1.521,1.57-0.384,0-.752-0.06-0.912-0.06a0.261,0.261,0,0,0-.289.29,3.463,3.463,0,0,0,.417,1.12,0.512,0.512,0,0,0,.56.32,5.941,5.941,0,0,0,.928-0.07,2.3,2.3,0,0,0,2.081-1.39,20.073,20.073,0,0,0,.9-4.54c0.032-.31.257-2.09,0.257-2.25a1.267,1.267,0,0,0-.913-0.92c-0.016,0-1.3.06-1.761,0.06l-1.536.02a0.361,0.361,0,0,1-.384-0.37c0-.16.1-1.12,0.128-1.35a0.719,0.719,0,0,1,.224-0.68,0.533,0.533,0,0,0,.176-0.28,0.236,0.236,0,0,0-.24-0.17c-0.16-.05-1.569-0.32-1.665-0.32-0.224,0-.208.21-0.208,0.37-0.016.38-.1,2.09-0.128,2.41a0.5,0.5,0,0,1-.48.42Zm20.579,0.85c-0.176,0-.192.18-0.208,0.32a9.356,9.356,0,0,1-1.313,3.64,7.811,7.811,0,0,1-4.962,3.37,0.287,0.287,0,0,0-.256.29,1.852,1.852,0,0,0,.9,1.11,3.063,3.063,0,0,0,.5-0.13,9.166,9.166,0,0,0,4.353-2.79,11.945,11.945,0,0,0,2.193-4.48,0.488,0.488,0,0,1,.208-0.33,0.37,0.37,0,0,0,.192-0.25,0.34,0.34,0,0,0-.288-0.28A10.944,10.944,0,0,0,632.293,1809.4Zm-2.833.58a1.8,1.8,0,0,0-.8-0.9,1.633,1.633,0,0,0-1.072.67,0.534,0.534,0,0,0,.144.32,18.05,18.05,0,0,1,1.12,1.89,0.443,0.443,0,0,0,.32.31,1.674,1.674,0,0,0,1.153-.74,6.15,6.15,0,0,0-.72-1.31Zm-4.05,0a1.589,1.589,0,0,0-1.073.69,0.6,0.6,0,0,0,.129.29,15.6,15.6,0,0,1,1.152,1.93,0.372,0.372,0,0,0,.3.27,1.7,1.7,0,0,0,1.153-.73,5.956,5.956,0,0,0-.689-1.27c-0.16-.25-0.528-0.83-0.7-1.04A0.352,0.352,0,0,0,625.41,1809.98Zm14.257,0.22a0.174,0.174,0,0,1-.144.07,0.141,0.141,0,0,1-.128-0.16v-2.4c0-.4-0.016-0.71-0.016-0.95a1.3,1.3,0,0,1,.176-0.85,0.423,0.423,0,0,0,.08-0.2c0-.23-0.656-0.29-1.376-0.39-0.112-.02-0.448-0.06-0.544-0.06a0.191,0.191,0,0,0-.208.24c0,0.06.016,0.21,0.016,0.29,0.016,0.4.048,0.83,0.048,1.24v9.13c0,0.72-.048,1.44-0.048,2.16,0,0.53.272,0.54,0.912,0.54,0.976,0,.992-0.09.992-0.83,0-.64-0.032-1.26-0.032-1.9v-4.37a0.216,0.216,0,0,1,.192-0.26,0.3,0.3,0,0,1,.16.06,24.616,24.616,0,0,1,2.321,1.88,0.6,0.6,0,0,0,.353.2,1.961,1.961,0,0,0,1.072-1.1,4,4,0,0,0-1.12-1.15,11.126,11.126,0,0,0-2.241-1.54A0.822,0.822,0,0,0,639.667,1810.2Zm6.647,6.47a3.711,3.711,0,1,0,3.717-3.82A3.591,3.591,0,0,0,646.314,1816.67Zm6.8-.05a3.1,3.1,0,1,1-3.086-3.19A2.981,2.981,0,0,1,653.117,1816.62Zm-4.232,2.22h0.147c0.265,0,.353-0.04.353-0.34,0-.19-0.015-0.64-0.015-0.94v-0.17a0.177,0.177,0,0,1,.22-0.19h0.074a0.373,0.373,0,0,1,.411.22l0.177,0.26c0.161,0.24.323,0.49,0.5,0.78a0.608,0.608,0,0,0,.676.38h0.162c0.206,0,.294-0.03.294-0.1a0.454,0.454,0,0,0-.118-0.25c-0.279-.41-0.47-0.69-0.72-1.04a0.664,0.664,0,0,1-.161-0.33,0.5,0.5,0,0,1,.264-0.31,1.472,1.472,0,0,0,.573-1.22,1.262,1.262,0,0,0-1.513-1.29h-1.22c-0.367,0-.441.07-0.441,0.44v2.82c0,0.3-.015.75-0.015,0.94C648.532,1818.8,648.621,1818.84,648.885,1818.84Zm1.073-2.35h-0.309c-0.235,0-.279-0.04-0.279-0.28v-0.79c0-.3.059-0.36,0.367-0.36h0.382a0.6,0.6,0,0,1,.735.64A0.753,0.753,0,0,1,649.958,1816.49Zm15.063-.92a0.838,0.838,0,0,1-1.009.88c-0.4,0-1.168-.18-1.168-0.69s0.784-.63,1.152-0.63C664.3,1815.13,665.021,1815.15,665.021,1815.57Zm-0.32-9.7a0.2,0.2,0,0,0-.225.22c0,0.05.016,0.11,0.016,0.16,0.064,0.4.192,1.95,0.192,2.29s-0.368.38-.752,0.38h-0.256c-0.832,0-2.257-.16-2.449-0.16-0.24,0-.256.19-0.256,0.4a3.233,3.233,0,0,0,.16,1.22,3.6,3.6,0,0,0,1.217.13h0.208c0.64,0,1.776-.07,1.9-0.07,0.4,0,.369.45,0.385,0.61,0.016,0.47.1,1.99,0.1,2.39a0.291,0.291,0,0,1-.321.33h-0.112a4.374,4.374,0,0,0-.624-0.05c-1.248,0-2.513.58-2.513,2.02,0,1.47,1.393,2.08,2.673,2.08a2.191,2.191,0,0,0,2.321-1.34,0.263,0.263,0,0,1,.24-0.26,4.691,4.691,0,0,1,1.185.88,0.742,0.742,0,0,0,.448.24,1.425,1.425,0,0,0,.928-1.1,0.865,0.865,0,0,0-.416-0.61,8.771,8.771,0,0,0-1.729-1.12,0.653,0.653,0,0,1-.544-0.63c-0.016-.41-0.128-2.86-0.128-3.18,0-.4.192-0.47,0.544-0.51,1.889-.26,2-0.37,2-0.68,0-.24-0.112-1.34-0.432-1.34a1.027,1.027,0,0,0-.24.05,10.892,10.892,0,0,1-1.6.4,0.353,0.353,0,0,1-.336-0.42v-0.45a2.208,2.208,0,0,1,.176-1.13,0.687,0.687,0,0,0,.176-0.32,0.163,0.163,0,0,0-.16-0.15A15.064,15.064,0,0,0,664.7,1805.87Zm-5.091.52a6.043,6.043,0,0,0-1.024-.41,0.261,0.261,0,0,0-.208.27c-0.176.7-.4,1.39-0.576,2.1a18.367,18.367,0,0,0-.561,4.48,11.56,11.56,0,0,0,.945,4.93,0.725,0.725,0,0,0,.512.53c0.08,0,1.217-.2,1.217-0.82,0-.26-0.032-0.51-0.032-0.77a15.952,15.952,0,0,1,.784-2.91,1,1,0,0,0-.688-0.51,1.216,1.216,0,0,0-.433.7,0.909,0.909,0,0,1-.352.58c-0.3,0-.352-1.52-0.352-1.78a14.816,14.816,0,0,1,.88-4.87,1.128,1.128,0,0,1,.657-0.81,0.174,0.174,0,0,0,.144-0.16,0.585,0.585,0,0,0-.416-0.32C660.011,1806.59,659.819,1806.49,659.61,1806.39Zm23.476-.11a1.359,1.359,0,0,0-.849.53,1.087,1.087,0,0,0,.224.38c0.24,0.36.5,0.79,0.705,1.16,0.144,0.24.176,0.33,0.3,0.33a1.242,1.242,0,0,0,.848-0.61,5.075,5.075,0,0,0-.608-1.05A2.165,2.165,0,0,0,683.086,1806.28Zm1.664-1.1a1.281,1.281,0,0,0-.848.56,0.35,0.35,0,0,0,.048.13,17.065,17.065,0,0,1,.96,1.5,0.282,0.282,0,0,0,.224.22,1.231,1.231,0,0,0,.849-0.62,5.464,5.464,0,0,0-.592-1.04A2.369,2.369,0,0,0,684.75,1805.18Zm-8.227.75c-0.56.08-1.056,0.11-1.056,0.34a1.544,1.544,0,0,0,.048.19,8.016,8.016,0,0,1,.3,1.04c0.176,0.7.592,2.35,0.816,2.96a0.669,0.669,0,0,1,.048.26,0.588,0.588,0,0,1-.384.49,4.262,4.262,0,0,0-2.385,3.49,2.779,2.779,0,0,0,1.457,2.48,6.478,6.478,0,0,0,3.329.67c0.832,0,3.537-.09,4.258-0.22,0.416-.08.448-0.24,0.448-0.67v-0.19a1.237,1.237,0,0,0-.24-1.03,0.44,0.44,0,0,0-.16.02c-0.24.05-1.377,0.22-1.665,0.25a20.93,20.93,0,0,1-2.5.16,6.48,6.48,0,0,1-2.145-.27,1.391,1.391,0,0,1-1.04-1.17c0-1.42,2.417-2.64,3.5-3.21a26.937,26.937,0,0,1,3.329-1.51,0.325,0.325,0,0,0,.3-0.24,3.444,3.444,0,0,0-1.041-1.63,1.1,1.1,0,0,0-.416.17,19.993,19.993,0,0,1-2.753,1.51,0.456,0.456,0,0,1-.368-0.48c-0.192-.96-0.4-1.91-0.5-2.88-0.032-.37,0-0.59-0.448-0.59A6.089,6.089,0,0,0,676.523,1805.93Zm15.76-.77c-0.176,0-.256.05-0.256,0.22,0,0.12.016,0.31,0.016,0.5,0,0.71-.064,1.67-0.064,2.1a1.038,1.038,0,0,1-.08.48c-0.192.38-2.225,0.73-2.705,0.8-0.192.03-.528,0.03-0.528,0.29a4.9,4.9,0,0,0,.336,1.09,0.562,0.562,0,0,0,.464.44,11.4,11.4,0,0,0,1.937-.65,1.035,1.035,0,0,1,.288-0.08,0.21,0.21,0,0,1,.208.24c0,0.13-.032.27-0.032,0.41a1.542,1.542,0,0,1-.192.76c-0.737,1.32-1.489,2.64-2.353,3.9a1.653,1.653,0,0,0-.32.58,2.288,2.288,0,0,0,1.2,1.05,0.267,0.267,0,0,0,.208-0.19c0.16-.3.656-1.17,0.833-1.45a1.114,1.114,0,0,1,.384-0.49,0.183,0.183,0,0,1,.144.21c0,0.72-.1,2.5-0.1,2.64,0,0.32.288,0.32,0.672,0.32,1.184,0,1.168-.16,1.168-0.27,0-.17-0.048-1.04-0.08-1.69-0.016-.28-0.048-0.76-0.048-0.85,0-.37-0.064-2.32,0-2.53a5.321,5.321,0,0,1,.9-1.03,17.226,17.226,0,0,1,1.744-1.55,2.381,2.381,0,0,1,1.249-.64c0.48,0,.48.56,0.48,0.91,0,1.44-.208,2.9-0.208,4.34,0,1.01.128,2.56,1.473,2.56a4.1,4.1,0,0,0,2.257-.93,2.031,2.031,0,0,0,.768-0.76,2.537,2.537,0,0,0-.736-1.46,0.451,0.451,0,0,0-.3.17,2.979,2.979,0,0,1-1.409,1.01c-0.368,0-.352-0.56-0.352-0.94,0-.67.048-1.39,0.08-2.08,0.048-.82.08-1.65,0.08-2.48a2.9,2.9,0,0,0-.288-1.52,1.713,1.713,0,0,0-1.377-.71,3.78,3.78,0,0,0-2.321,1.14,18.376,18.376,0,0,0-1.36,1.25,0.23,0.23,0,0,1-.128.08,0.135,0.135,0,0,1-.128-0.16,1.249,1.249,0,0,1,.032-0.26c0.048-.11.352-0.67,0.432-0.78a0.427,0.427,0,0,0,.1-0.18,1.158,1.158,0,0,0-.544-0.74,0.268,0.268,0,0,1-.257-0.27c0-.22.113-1.01,0.145-1.28a1.064,1.064,0,0,1,.288-0.88,0.342,0.342,0,0,0,.128-0.24,0.246,0.246,0,0,0-.176-0.18C693.788,1805.34,692.459,1805.16,692.283,1805.16Zm16.177,9.54c0.3,0,.353-0.08.353-0.46a2.894,2.894,0,0,1,1.3-2.28c1.088-.88,1.857-1.6,1.857-2.97,0-1.52-1.361-2.79-3.65-2.79a5.16,5.16,0,0,0-3.905,1.65,0.553,0.553,0,0,0-.192.34,0.534,0.534,0,0,0,.208.35l0.64,0.64a0.582,0.582,0,0,0,.336.22,0.512,0.512,0,0,0,.32-0.25,3.238,3.238,0,0,1,2.465-1.22c1.217,0,1.873.53,1.873,1.31a2.105,2.105,0,0,1-.944,1.48c-1.057.88-2.033,1.8-2.033,3.44,0,0.44.048,0.54,0.368,0.54h1.008Zm-0.368,1.14a1.193,1.193,0,0,0-1.232,1.28,1.045,1.045,0,0,0,1.1,1.05,1.163,1.163,0,0,0,1.233-1.23A1.068,1.068,0,0,0,708.092,1815.84Z" transform="translate(-438.938 -1791.72)"/>
</svg>
