<?xml version="1.0" encoding="utf-8"?>
<!-- Generator: Adobe Illustrator 25.2.1, SVG Export Plug-In . SVG Version: 6.00 Build 0)  -->
<svg version="1.1" id="グループ_164" xmlns="http://www.w3.org/2000/svg" xmlns:xlink="http://www.w3.org/1999/xlink" x="0px"
	 y="0px" viewBox="0 0 879.9 78.3" style="enable-background:new 0 0 879.9 78.3;" xml:space="preserve">
<style type="text/css">
	.st0{fill-rule:evenodd;clip-rule:evenodd;}
</style>
<path id="商品" class="st0" d="M423,58.4c0-1.3,1-2.3,2.3-2.3h8c1.3,0,2.3,1,2.3,2.3c0,0,0,0,0,0v2.3c0.1,1.2-0.9,2.2-2,2.2
	c-0.1,0-0.2,0-0.3,0h-8c-1.2,0.1-2.2-0.9-2.3-2.1c0-0.1,0-0.1,0-0.2V58.4z M443.4,56.8c0-1.2,0.1-2.5,0.1-3.7c0-2.6-1.8-3-3.9-3
	s-4.2,0.2-6.2,0.2h-8c-2.1,0-4.3-0.2-6.3-0.2c-2.1,0-3.9,0.5-3.9,3c0,1.2,0.1,2.5,0.1,3.7v9.9c0,1.3-0.1,2.5-0.1,3.8
	c0,1.9,0.8,1.9,3.9,1.9c3.5,0,3.9,0,4-1.8c0-1.6,1.1-1.7,3-1.7h7.2c2.1,0,4.2,0.1,6.3,0.1c2.1,0,3.9-0.4,3.9-2.9
	c0-1.2-0.1-2.5-0.1-3.7L443.4,56.8L443.4,56.8z M451.3,36.9c-1.2-0.3-2.3-0.5-3.5-0.5c-1,0-1.1,0.4-1.3,1.3
	c-0.6,2.6-0.9,2.9-3.2,2.9h-2.1c-1.7,0-2.3-0.4-2.3-2.2v-2.7c-0.2-1.1,0.5-2.1,1.5-2.3c0.3-0.1,0.5-0.1,0.8,0h9.9
	c0.7-0.1,1.4,0.3,1.6,1c0,0.2,0,0.3,0,0.5v0.8c0.1,0.5-0.3,1-0.8,1.1c-0.1,0-0.1,0-0.2,0L451.3,36.9L451.3,36.9z M440.2,19.4
	c-0.7,1.9-1.5,3.7-2.5,5.4c-0.6,1.3-1.9,2-3.3,1.8h-12.2c-0.2,0-0.4-0.2-0.4-0.4c0-0.1,0-0.3,0.1-0.4v-0.2c-0.5-1.9-1.2-3.7-2.1-5.4
	c-0.2-0.4-0.3-0.6-0.4-0.9c-0.2-0.2-0.2-0.5-0.2-0.7c0-0.7,0.6-1.2,1.3-1.2c0,0,0.1,0,0.1,0h18.2c0.8-0.1,1.5,0.5,1.6,1.3
	c0,0,0,0,0,0.1C440.3,18.9,440.3,19.1,440.2,19.4L440.2,19.4z M452.6,63.5c0,2.5,0.2,4.6-2.2,4.6c-1.5,0-3.9-0.2-5.1-0.2
	c-1.3,0-1.5,0.9-1.5,2c0,6.6,3,6.3,5.2,6.3c8.6,0,11.6-1.7,11.6-8.6c0-2-0.2-4.1-0.2-6.1V37.2c0-2.3,0.2-4.6,0.2-6.9
	c0-3.2-1.5-3.9-4.4-3.9c-2.3,0-4.7,0.2-7.1,0.2h-1.6c-0.7,0.1-1.3-0.4-1.4-1.1c0,0,0-0.1,0-0.1c0-0.3,0.1-0.5,0.2-0.7l1.5-2.7
	c0.4-0.6,1-1,1.6-1.1c0.7-0.2,1.3-0.2,1.3-0.9c0-1-1.7-1.5-3.6-2c-0.1-0.1-0.2-0.2-0.2-0.3c0-0.2,0.2-0.4,0.4-0.4h6.5
	c3.2,0,6.5,0.2,9.7,0.2c2,0,2-0.7,2-3.7c0-2.9,0.1-3.7-1.9-3.7c-3.3,0-6.5,0.2-9.8,0.2H436c-1,0.2-2.1-0.4-2.3-1.5
	c0-0.2-0.1-0.4,0-0.6c-0.3-1.1,0.1-2.2,0.9-2.9c0.5-0.2,0.9-0.6,1-1.1c0-0.7-1-0.8-1.6-0.9c-1.4-0.1-6.5-0.5-7.8-0.5
	c-0.7,0-1.6,0.1-1.6,1c0,0.2,0,0.4,0.1,0.7c0.2,1.2,0.2,2.4,0.2,3.6c0.2,1-0.5,2-1.6,2.2c-0.2,0-0.4,0-0.6,0H405
	c-3.3,0-6.5-0.2-9.8-0.2c-2,0-1.9,0.8-1.9,3.7s0,3.7,2,3.7c3.2,0,6.4-0.2,9.7-0.2h7.4c0.1,0,0.2,0.1,0.2,0.2c0,0.1-0.1,0.2-0.2,0.2
	c-0.8,0.2-1.4,0.9-1.7,1.6c0.6,1.4,1.3,2.8,2.1,4.1c0.2,0.4,0.5,0.8,0.7,1.2c0.1,0.2,0.2,0.5,0.2,0.7c-0.1,0.7-0.7,1.3-1.5,1.2h-3
	c-2.3,0-4.7-0.2-7-0.2c-2.9,0-4.3,0.7-4.3,3.9c0,2.3,0.1,4.7,0.1,7v26.1c0,3.4-0.2,6.9-0.2,10.3c0,2.5,0.7,2.5,4.3,2.5
	c3.5,0,4.3,0,4.3-2.5c0-3.4-0.2-7-0.2-10.4V35.8c-0.2-1.1,0.5-2.1,1.5-2.3c0.3-0.1,0.5-0.1,0.8,0h8.5c0.7-0.1,1.4,0.3,1.5,1.1
	c0,0.1,0,0.2,0,0.2c0,0.3-0.1,0.5-0.2,0.7c-2.2,4-5.6,7.3-9.7,9.4c-0.7,0.2-1.3,0.7-1.6,1.5c0,1.6,3.5,4.3,5,4.3
	c0.7-0.1,1.5-0.4,2.1-0.9c4.4-2.7,8-6.5,10.5-11c0.2-0.6,0.7-1.1,1.4-1.2c0.5,0,0.9-0.4,1-0.8c0-0.7-3.4-2.1-4.2-2.4
	c-0.2-0.1-0.3-0.2-0.2-0.4c0.1-0.2,0.3-0.4,0.5-0.4h5.8c1-0.2,2.1,0.5,2.3,1.5c0.1,0.3,0.1,0.5,0,0.8v2c0,1.5-0.1,2.9-0.1,4.3
	c0,5,3.4,5,9.3,5h3.2c2.3,0,6.3,0.2,8-1.7c0.1-0.2,0.4-0.2,0.6-0.2c0.3,0,0.6,0.3,0.6,0.6c0,0,0,0.1,0,0.1L452.6,63.5L452.6,63.5z
	 M501.1,16.5c0-1.2,0.9-2.2,2.1-2.2c0.1,0,0.1,0,0.2,0h16.3c1.2-0.1,2.2,0.9,2.3,2.1c0,0.1,0,0.1,0,0.2v8.9c0,1.3-1,2.3-2.3,2.3
	h-16.3c-1.3,0-2.3-1-2.3-2.3V16.5z M519,34.9c0.7,0,2.5,0,2.9,0.7c0.5,1.2,0.6,1.2,4.5,1.2c3,0,4.2,0,4.2-2.1c0-1.9-0.1-3.8-0.1-5.7
	V15.9c0-1.9,0.2-3.8,0.2-5.7c0-2.9-1.7-3.4-4.3-3.4c-2.1,0-4.2,0.1-6.3,0.1H503c-2.1,0-4.3-0.1-6.4-0.1c-2.5,0-4.1,0.7-4.1,3.4
	c0,1.9,0.1,3.8,0.1,5.7V29c0,2-0.1,3.9-0.1,5.8c0,2.1,1.1,2.1,4.3,2.1h1.1c1.2,0,3-0.1,3.1-0.7c0.3-1.1,1.1-1.2,3.1-1.2L519,34.9
	L519,34.9z M525,64.1c-1.3,0-2.3-1-2.3-2.3v-9.7c0-1.3,1-2.3,2.3-2.3h8.5c1.2,0,2.2,0.9,2.2,2.1c0,0.1,0,0.1,0,0.2v9.7
	c0.1,1.2-0.8,2.2-2,2.3c-0.1,0-0.1,0-0.2,0H525L525,64.1z M535.7,73.1c0,0.5-0.1,0.9-0.1,1.4c0,2,1.1,1.9,4.4,1.9
	c3.4,0,4.4,0.1,4.4-2c0-2.6-0.2-5.1-0.2-7.6V52.1c0-2,0.1-4.1,0.1-6.1c0-3-1.2-3.8-4-3.8c-2,0-3.9,0.2-5.9,0.2h-10.3
	c-2,0-4-0.2-6-0.2c-2.6,0-4,0.8-4,3.6c0,2.1,0.2,4.3,0.2,6.3v14.7c0,2.5-0.2,5.1-0.2,7.7c0,1.9,0.8,2,4.4,2c3.4,0,4.3,0,4.3-2v-1.3
	c-0.2-0.9,0.4-1.7,1.3-1.9c0.2,0,0.4,0,0.6,0h9c0.9-0.2,1.7,0.4,1.9,1.3C535.7,72.8,535.7,72.9,535.7,73.1z M489.4,64.1
	c-1.3,0-2.3-1-2.3-2.3v-9.7c0-1.3,1-2.3,2.3-2.3h8c1.3,0,2.3,1,2.3,2.3v9.7c0,1.3-1,2.3-2.3,2.3H489.4z M499.5,74.5
	c0,1.9,1,1.9,4.3,1.9c3.4,0,4.3,0,4.3-1.9c0-2.6-0.2-5.2-0.2-7.7V52.1c0-2,0.1-4.2,0.1-6.3c0-2.9-1.4-3.6-4-3.6c-2,0-4,0.2-6,0.2
	h-9.4c-2,0-3.9-0.2-6-0.2c-2.6,0-4,0.8-4,3.7c0,2,0.2,4.2,0.2,6.2v14.7c0,2.5-0.2,5.1-0.2,7.6c0,2,1,2,4.3,2c3.4,0,4.4,0.1,4.4-1.9
	v-1.4c-0.1-0.9,0.5-1.7,1.4-1.8c0.2,0,0.3,0,0.5,0h8.4c0.9-0.2,1.7,0.4,1.9,1.3c0,0.2,0,0.4,0,0.5L499.5,74.5L499.5,74.5z"/>
<path id="LINE_UP" class="st0" d="M561.1,4.7V74h31V64h-20.4V4.7L561.1,4.7L561.1,4.7z M602.1,4.7V74h10.6V4.7H602.1z M640,74V25.6
	l50.3,52.7V4.7h-10.6v48L629.4,0v74L640,74L640,74z M745.2,4.7h-38.3V74h38.3V64h-27.7V42.2h26.8v-10h-26.8V14.6h27.7L745.2,4.7
	L745.2,4.7z M772.8,4.7v44.6c-0.2,6.6,2.1,13.1,6.4,18c10.3,10.6,27.4,10.9,38,0.5c0.2-0.2,0.3-0.3,0.5-0.5c4.4-4.9,6.7-11.4,6.4-18
	V4.7h-10.6v41.8c0.3,4.1-0.5,8.2-2.2,12c-4.4,7.1-13.8,9.3-20.9,4.9c-2-1.2-3.7-2.9-4.9-4.9c-1.7-3.7-2.5-7.9-2.2-12V4.7H772.8
	L772.8,4.7z M840.8,4.7V74h10.6V45.8h4.8c6.1,0.3,12.2-1.6,17-5.4c4.4-3.8,6.9-9.4,6.8-15.2c0.1-6.7-3.1-13-8.6-16.8
	c-4.6-2.7-9.9-4-15.2-3.7L840.8,4.7L840.8,4.7z M851.4,14.4h4.7c12.1,0,13.6,6.9,13.6,10.7c0,6.4-4.4,10.9-13.5,10.9h-4.8V14.4z"/>
<path id="あなたにおすすめのサンカット_はどれ_" class="st0" d="M-174.2-30c0.2,0,0.4,0.1,0.4,0.3c0,0,0,0,0,0
	c0,0.2-0.1,0.4-0.2,0.5c-0.4,1.1-1.1,2-2,2.8c-0.3-0.3-0.4-0.8-0.3-1.3V-28c-0.1-0.5,0-1.1,0.3-1.6C-175.4-29.9-174.8-30-174.2-30z
	 M-179.7-27.8c0.3,0,0.4,0.3,0.4,0.5s0,0.6,0,0.9c0,1,0.1,2.3,0.1,2.6c0,0.4-0.1,0.7-0.4,1c-1.1,0.9-2.4,1.5-3.8,1.8
	c-0.5,0-0.9-0.3-0.9-0.7c0-0.1,0-0.1,0-0.2C-184.4-24.5-180.4-27.8-179.7-27.8L-179.7-27.8z M-177.6-41.7c-0.3,0-0.5,0.2-0.5,0.5
	c0,0,0,0,0,0.1c-0.2,1.1-0.3,2.3-0.5,3.4c0,0.3-0.1,0.6-0.3,0.9c-0.2,0.2-0.6,0.3-0.9,0.3c-1.1,0.1-2.2,0.1-3.3,0.1
	c-0.6,0-1.1,0-1.7,0c-0.6,0-0.8,0.1-0.8,1.7c0,1.5,0.2,1.5,1.6,1.5c1.2,0,2.4-0.2,3.6-0.3c0.1,0,0.6-0.1,0.7-0.1
	c0.3,0,0.5,0.2,0.5,0.4c0,0,0,0.1,0,0.1c0.2,0.7-0.2,1.5-0.9,1.8c-3.6,1.7-7.7,5.6-7.7,9.9c-0.2,2,1.3,3.7,3.3,3.8
	c0.1,0,0.2,0,0.3,0c1.7-0.1,3.4-0.7,4.7-1.7c0.1-0.1,0.2-0.1,0.4-0.1c0.2,0,0.3,0.1,0.4,0.3c0.1,0.2,0.3,0.4,0.5,0.4
	c1-0.2,1.9-0.8,2.4-1.7v-0.2c0-0.2-0.2-1.1-0.2-1.2c0-0.3,0.1-0.5,0.3-0.6c1.7-1.8,3.1-3.9,4.3-6.1c0.1-0.4,0.4-0.7,0.9-0.8
	c2,0.6,3.4,2.5,3.2,4.6c0,4-4.1,6-7.5,6.9c-0.4,0.1-0.7,0.1-0.7,0.5c0.1,1,0.6,2,1.5,2.6c1.1,0,10.1-2.8,10.1-10c0-5.5-4.4-8-9.4-8
	c-0.6,0-1.4,0.1-2.1,0.2c-0.1,0-0.2,0-0.3,0c-0.3,0-0.5-0.2-0.5-0.4c0,0,0,0,0,0c-0.1-0.6,0.3-1.1,0.9-1.3c1.3-0.2,3.3-0.6,4.5-0.9
	c0.8-0.2,1.6-0.3,1.6-0.9c0-0.1-0.3-2.6-1-2.6c-0.2,0-0.4,0.1-0.5,0.2c-1.2,0.5-2.5,0.8-3.8,1.1c-0.2,0.1-0.3,0.1-0.5,0.1
	c-0.3,0-0.5-0.2-0.4-0.5c0,0,0,0,0,0c0-0.1,0.2-0.8,0.2-1c0-0.5,0.3-0.9,0.7-1.2c0.2-0.1,0.3-0.2,0.3-0.4c-0.3-0.4-0.8-0.7-1.4-0.7
	C-175.8-41.2-177.4-41.7-177.6-41.7z M-143.5-21c1.6,0,1.6,0.3,1.6,1c0.1,0.8-0.4,1.6-1.2,1.7c-0.1,0-0.3,0-0.4,0
	c-1,0.1-1.9-0.5-2.1-1.5C-145.6-20.8-144.2-21-143.5-21z M-141.9-32.3c-0.3-0.1-0.7,0.1-0.8,0.5c0,0.1,0,0.1,0,0.2
	c0,0.2,0,0.3,0,0.4c0.1,1.3,0.6,5.9,0.6,6.9c0,0.3-0.3,0.6-0.6,0.6c0,0-0.1,0-0.1,0h-0.8c-2.5,0-5.3,1-5.3,4s3,4.3,5.6,4.3
	c2.1,0.3,4.1-1.1,4.5-3.1c0-0.3,0.2-0.6,0.5-0.7c0.9,0.3,1.8,0.8,2.6,1.5c0.2,0.2,0.5,0.4,0.8,0.5c1-0.4,1.7-1.3,2-2.3
	c0-0.8-3.8-2.5-4.5-2.8c-0.1,0-0.2-0.1-0.3-0.1c-0.5-0.1-0.8-0.4-1-0.8c-0.2-0.7-0.3-5.3-0.3-6.2c0-0.7,0.1-1.6,0.1-1.7
	c0-0.3-0.3-0.6-0.6-0.7C-140.4-32.2-141.1-32.3-141.9-32.3z M-137-37.3c-1,0.4-1.7,1.2-2.1,2.2c0.1,0.2,0.2,0.4,0.4,0.5
	c1.5,1.2,2.9,2.6,4,4.1c0.1,0.3,0.4,0.5,0.7,0.6c1.1-0.4,2-1.2,2.4-2.2C-133-34.2-134.8-36-137-37.3z M-147.8-42.5
	c-0.3,0-0.3,0.3-0.3,0.5c-0.1,1.8-0.4,3.6-1,5.4c-0.2,0.3-0.6,0.5-1,0.5c-1.1,0.1-2.2,0.2-3.3,0.2h-1.5c-0.3-0.1-0.5,0.1-0.6,0.3
	c0,0.1,0,0.1,0,0.2c0,0.3,0.2,1.5,0.2,1.8c0.1,0.7,0.3,1,0.8,1c0.7,0,3.2-0.3,3.5-0.3c0.2,0,0.4,0.2,0.4,0.4c-0.2,0.7-0.4,1.3-0.7,2
	c-1.1,2.6-2.4,5-3.8,7.4c-0.3,0.3-0.5,0.7-0.6,1.2c0.7,0.9,1.7,1.5,2.8,1.6c0.3,0,0.6-0.2,0.6-0.5c2-3.7,3.8-7.5,5.2-11.4
	c0.4-1.1,0.4-1.3,1.5-1.5c2.9-0.6,3.3-0.6,3.3-1.3c0-0.6-0.1-1.1-0.2-1.7c-0.1-0.4-0.1-1-0.5-1c-0.1,0-0.2,0-0.3,0.1
	c-0.6,0.2-1.2,0.4-1.8,0.5c-0.2,0-0.4-0.2-0.4-0.4c0,0,0,0,0,0c0.1-0.5,0.2-1,0.4-1.4c0.1-0.6,0.3-1.2,0.6-1.7
	c0.2-0.1,0.4-0.3,0.5-0.6c-0.1-0.2-0.3-0.4-0.5-0.4C-144.8-41.7-147.4-42.5-147.8-42.5z M-113.3-21.8c-0.9,0.5-1.6,1.4-2,2.4
	c0.3,0.8,0.8,1.4,1.6,1.8c2.1,1.1,4.5,1.6,6.9,1.4c1.7,0,3.3-0.1,5-0.4c0.3-0.5,0.5-1,0.4-1.6c0-1.3,0-2-0.5-2c-0.1,0-0.2,0-0.3,0.1
	c-1.5,0.5-3,0.7-4.5,0.6c-2.1,0.2-4.2-0.5-5.8-1.9C-112.8-21.6-113-21.8-113.3-21.8z M-110.9-29.2c0,0.5,0.2,0.7,0.8,0.7
	c0.4,0,0.8,0,1.2,0c1.7,0,3.5,0.2,5.1,0.8c0.2,0.1,0.4,0.2,0.7,0.2c0.3,0,0.5-0.2,0.6-0.4c0.3-0.7,0.5-1.5,0.6-2.2
	c0-0.3-0.2-0.6-0.4-0.6c-2.1-0.6-4.3-0.9-6.4-0.9C-110.3-31.7-110.9-31.9-110.9-29.2L-110.9-29.2z M-115.1-42.8
	c-0.3,0-0.3,0.3-0.4,0.8c-0.2,2-0.6,3.9-1.2,5.8c-0.3,0.5-0.8,0.5-2.8,0.5c-1.4,0-2.7-0.1-3-0.1c-0.4,0-0.5,0.2-0.5,0.6
	c0,0.8,0.1,1.6,0.3,2.3c0.2,0.6,0.7,0.6,1.3,0.6c1,0,2.4-0.2,2.8-0.2c0.3,0,0.5,0.1,0.6,0.4c0,0,0,0,0,0.1c-0.1,0.3-0.1,0.6-0.3,0.8
	c-1.5,4.1-3.4,8.1-5.7,11.8c-0.3,0.3-0.5,0.7-0.5,1.1c0.6,0.9,1.6,1.5,2.7,1.7c0.6-0.2,1-0.6,1.2-1.2c2.3-4.5,4.3-9.3,6-14.1
	c0-0.7,0.6-1.2,1.3-1.3c1.8-0.3,3.5-0.7,5.2-1.2c0.5-0.2,0.7-0.7,0.6-1.2c0-0.5,0-2.4-0.6-2.4c-0.2,0-0.5,0.1-0.7,0.2
	c-1.2,0.5-2.4,0.9-3.7,1.2c-0.3,0-0.5-0.2-0.5-0.5c0,0,0,0,0,0c0-0.2,0.7-2.5,0.8-2.9c0-0.5,0.3-0.9,0.7-1.1
	c0.1-0.1,0.2-0.2,0.3-0.3c-0.3-0.4-0.7-0.6-1.2-0.7C-113.2-42.3-114.1-42.6-115.1-42.8L-115.1-42.8z M-82-24
	c-0.9,0.7-1.5,1.6-1.7,2.7c0,0.5,2.1,3.2,7.3,3.2c2.6-0.1,5.1-0.4,7.6-1c0.3-0.3,0.5-0.7,0.4-1.2c0-1.6-0.1-2.4-0.6-2.4
	c-0.2,0-0.5,0-0.7,0.1c-2.3,0.7-4.7,1-7,1c-1.9,0.2-3.7-0.7-4.9-2.2C-81.7-23.9-81.8-24-82-24L-82-24z M-81.3-37.9
	c-0.5,0-0.7,0.5-0.7,2c-0.1,0.4,0,0.9,0.3,1.2c1.8,0.4,3.7,0.7,5.6,0.6c1.8,0,3.6-0.2,5.4-0.4c0.6-0.1,0.6-0.4,0.6-1.1
	c0-0.6-0.1-1.2-0.1-1.7c0-0.4-0.3-0.7-0.6-0.8c-0.2,0-0.4,0-0.6,0.1c-3,0.8-6.1,0.9-9.1,0.2C-80.7-37.8-81-37.8-81.3-37.9
	L-81.3-37.9z M-89-40.4c-0.3,0.1-0.5,0.4-0.5,0.7c-0.1,0.5-0.2,1.1-0.4,1.6c-1,3.4-1.6,7-1.6,10.6c-0.1,3.4,0.6,6.7,2,9.8
	c0.2,0.7,0.7,1.3,1.3,1.6c1.1-0.1,2-0.7,2.5-1.6c0-0.2,0-0.3-0.1-0.5c0-0.3-0.1-1-0.1-1.3c0.3-1.6,0.7-3.1,1.3-4.6
	c-0.2-0.5-0.6-0.9-1.2-1c-0.3,0.1-0.6,0.4-0.7,0.8c-0.2,0.5-0.5,0.9-0.9,1.3c-0.7,0-0.9-3.9-0.9-4.5c0-3.1,0.6-6.2,1.8-9.1
	c0.1-0.6,0.5-1.1,1-1.4c0.3-0.2,0.4-0.2,0.4-0.4c-0.1-0.3-0.3-0.5-0.6-0.5C-86-39.2-88.7-40.4-89-40.4L-89-40.4z M-39.4-34.9
	c-0.7-0.7-1.5-1.2-2.4-1.7c-0.9,0.4-1.6,1.2-1.9,2.1c0.1,0.3,0.3,0.6,0.6,0.8c1.5,1.1,2.9,2.3,4.3,3.6c0.2,0.2,0.4,0.3,0.7,0.4
	c1-0.4,1.7-1.2,2-2.2c-0.7-0.9-1.5-1.7-2.5-2.4C-38.9-34.4-39.2-34.7-39.4-34.9L-39.4-34.9z M-54.5-22.2c0,0.1,0,0.3,0,0.5
	c0,0.1,0.1,1.4,0.1,1.4c0,0.1-0.1,0.2-0.2,0.3c0,0,0,0-0.1,0c-0.1,0-0.3-0.1-0.4-0.2c-0.5-0.4-1.1-0.7-1.6-1c-0.4,0-0.7,0.3-0.7,0.6
	c0,0.2,0.2,0.5,0.4,0.6c0.8,0.7,1.5,1.5,2,2.5c0.1,0.6,0.6,1.1,1.2,1.2c1.4,0,2.6-1,2.8-2.3c0-0.3-0.2-3.2-0.3-3.9
	c0-0.4-0.1-1.7-0.1-2.1c0-0.4,0.2-0.8,0.5-1c1.7-1,3.7-1.5,5.6-1.5c1.9-0.2,3.6,1.1,3.8,3c0,2.3-2.7,3-4.6,3
	c-0.9-0.1-1.8-0.2-2.6-0.3c-0.5,0-0.6,0.4-0.6,0.8c0,0.8,0.2,1.6,0.5,2.3c0.4,0.3,0.9,0.4,1.3,0.4h0.4c2.2,0.1,4.5-0.4,6.4-1.4
	c1.6-1.1,2.6-2.9,2.6-4.8c0-3.8-3.4-6-7-6c-1.8,0-3.6,0.4-5.3,1.1c-0.3,0.1-0.5,0.2-0.8,0.3c-0.4,0-0.5-0.7-0.5-1.2v-0.5
	c0-1.5,0.1-1.7,1.2-1.9c2.4-0.4,3-0.4,3-1.2c0-0.6-0.1-2.6-0.8-2.6c-0.2,0-0.4,0.1-0.5,0.2c-0.7,0.2-1.3,0.4-2,0.6
	c-0.3,0-0.5-0.3-0.5-0.6c0-0.1,0-0.3,0-0.4c0-0.3,0.1-0.5,0.1-0.7c-0.1-0.6,0.1-1.3,0.6-1.8c0.2-0.1,0.3-0.3,0.3-0.5
	c-0.1-0.3-0.4-0.4-0.6-0.4c-0.6-0.1-2.8-0.6-3.3-0.6c-0.2,0-0.4,0.2-0.4,0.4c0,0,0,0.1,0,0.1c0,0.1,0.1,0.9,0.1,1.5
	c0,0.9,0,1.8-0.1,2.7c0,0.3,0,0.7-0.3,1c-0.3,0.3-0.8,0.4-1.2,0.4c-1,0.1-2.1,0.2-3.1,0.2c-0.6,0-0.7,0.2-0.7,1
	c0,2.3,0.5,2.4,0.9,2.4c1.1-0.1,2.2-0.3,3.3-0.5c0.1,0,0.1,0,0.2,0c0.4,0,0.7,0.3,0.7,0.7c0,0,0,0,0,0v0.3c0,0.5,0,1,0,1.4v1.1
	c0,1-0.1,1-1.3,1.8c-1.8,1.1-3.5,2.2-5.2,3.3c-0.4,0.1-0.6,0.3-0.7,0.7c0.2,1.2,0.9,2.3,1.9,3c0.2,0,0.3-0.1,0.5-0.3
	c1.5-1.3,3.1-2.5,4.7-3.6C-54.5-23.1-54.5-22.8-54.5-22.2L-54.5-22.2z M-18.9-28.8c1.3,0,1.6,1.8,1.6,2.8s-0.4,2.6-1.7,2.6
	s-1.5-1.8-1.5-2.7S-20.1-28.8-18.9-28.8L-18.9-28.8z M-18.7-42.4c-0.2,0-0.4,0.1-0.4,0.3c0,0,0,0.1,0,0.1c0,0.1,0,0.2,0,0.3
	c0.2,1.3,0.3,2.6,0.3,4c0,0.5-0.3,0.9-0.7,1c-0.3,0.1-7.8,0.5-8.7,0.5c-1.6,0.1-1.9,0-1.9,0.6c0,0.8,0.1,1.5,0.3,2.3
	c0.1,0.4,0.1,0.9,0.6,0.9c0.2,0,0.3,0,0.5-0.1c1.5-0.3,5.7-0.8,7.3-0.9c0.4,0,1.9-0.2,2.1-0.2c0.4,0,0.6,0.2,0.6,1.3
	c0,0.2-0.2,0.4-0.4,0.4c-3.2,0.3-4.5,3.1-4.5,6.1c0,2.3,1,5.3,3.8,5.3c0.3,0,0.5-0.1,0.7-0.2c0.1,0,0.2,0,0.3,0
	c0.1,0,0.2,0.1,0.2,0.2c0,0.2-0.1,0.3-0.2,0.5c-0.6,1.2-1.3,2.2-2.3,3.1c-0.3,0.2-0.6,0.5-0.7,0.9c0,0.6,2.6,1.4,3,1.4
	c1.4,0,4.8-5.7,4.8-10.9c0-1.6-0.3-3.1-1-4.5c-0.3-0.5-0.4-1.1-0.3-1.7v-1.1c0-0.4,0.2-0.9,0.6-1.1c0.4-0.1,3.3-0.1,3.9-0.1
	c1.8,0,4.2,0.2,4.6,0.2c0.3,0,0.7,0,0.7-1.9c0-1.4-0.2-1.6-0.7-1.6c-1.4,0-4.8,0.2-6.4,0.3c-0.4,0-1.6,0.1-1.9,0.1
	c-0.5,0.1-0.9-0.3-0.9-0.7c0-0.1,0-0.1,0-0.2c0-0.7,0-1.4,0-2.1c-0.1-0.5,0.1-1,0.5-1.3c0.1-0.1,0.2-0.2,0.2-0.4
	c-0.5-0.4-1.1-0.5-1.7-0.4C-17-42.2-18-42.4-18.7-42.4L-18.7-42.4z M9.8-28.8c1.3,0,1.6,1.8,1.6,2.8s-0.4,2.6-1.7,2.6
	s-1.5-1.8-1.5-2.7S8.6-28.8,9.8-28.8L9.8-28.8z M10-42.4c-0.2,0-0.4,0.1-0.4,0.3c0,0,0,0.1,0,0.1c0,0.1,0,0.2,0,0.3
	c0.2,1.3,0.3,2.6,0.3,4c0,0.5-0.3,0.9-0.7,1c-0.3,0.1-7.8,0.5-8.7,0.5c-1.6,0.1-1.9,0-1.9,0.6c0,0.8,0.1,1.5,0.3,2.3
	c0.1,0.4,0.1,0.9,0.6,0.9c0.2,0,0.3,0,0.5-0.1c1.5-0.3,5.7-0.8,7.3-0.9c0.4,0,1.9-0.2,2.1-0.2c0.4,0,0.6,0.2,0.6,1.3
	c0,0.2-0.2,0.4-0.4,0.4c-3.2,0.3-4.5,3.1-4.5,6.1c0,2.3,1,5.3,3.8,5.3c0.3,0,0.5-0.1,0.7-0.2c0.1,0,0.2,0,0.3,0
	c0.1,0,0.2,0.1,0.2,0.2c0,0.2-0.1,0.3-0.2,0.5c-0.6,1.2-1.3,2.2-2.3,3.1C7.4-16.7,7.2-16.4,7-16c0,0.6,2.6,1.4,3,1.4
	c1.4,0,4.8-5.7,4.8-10.9c0-1.6-0.3-3.1-1-4.5c-0.3-0.5-0.4-1.1-0.3-1.7v-1.1c0-0.4,0.2-0.9,0.6-1.1c0.4-0.1,3.3-0.1,3.9-0.1
	c1.8,0,4.2,0.2,4.6,0.2c0.3,0,0.7,0,0.7-1.9c0-1.4-0.2-1.6-0.7-1.6c-1.4,0-4.8,0.2-6.4,0.3c-0.4,0-1.6,0.1-1.9,0.1
	c-0.5,0.1-0.9-0.3-0.9-0.7c0-0.1,0-0.1,0-0.2c0-0.7,0-1.4,0-2.1c-0.1-0.5,0.1-1,0.5-1.3c0.1-0.1,0.2-0.2,0.2-0.4
	c-0.5-0.4-1.1-0.5-1.7-0.4C11.7-42.2,10.7-42.4,10-42.4L10-42.4z M40.8-33.4c0.2,0,0.4,0.1,0.4,0.3c0,0,0,0.1,0,0.1
	c0,0.9-1.6,6.2-2.5,6.2c-0.4-0.2-0.7-0.6-0.7-1c-0.5-1.1-1-2.3-1.3-3.5C36.7-32.3,40-33.4,40.8-33.4L40.8-33.4z M36.5-23.6
	c-0.5,1.1-1.5,1.8-2.7,1.9c-1.1,0-1.2-1.5-1.2-2.3c0-2.1,1-4.4,1.5-4.4c0.2,0.1,0.4,0.2,0.4,0.4c0.6,1.4,1.2,2.6,1.8,3.9
	C36.5-23.9,36.5-23.7,36.5-23.6L36.5-23.6z M42.3-41.3c-0.4,0-0.4,0.2-0.4,0.6c0,0.5,0,0.9,0,1.4c0,2.4-0.1,2.6-1.2,2.8
	c-1.5,0.2-2.9,0.7-4.3,1.4C36.4-35,36.2-35,36-35c-0.3,0-0.5-0.2-0.6-0.5c-0.2-0.7-0.4-2-0.6-2.7c-0.1-0.4-0.1-0.9-0.6-0.9
	c-0.9,0.1-1.7,0.4-2.5,0.6c-0.3,0-0.5,0.3-0.5,0.5c0,0.2,0,0.3,0.1,0.5c0.4,1.4,0.8,2.8,1.2,4.1c0.1,0.2,0.2,0.5,0.2,0.8
	c0,0.3-0.1,0.6-0.4,0.7c-2,2.2-3,5-3,7.9c0,2.5,1,5.6,4,5.6c2.9-0.3,5.5-1.9,7.1-4.4c2.1-2.9,3.5-6.2,4.1-9.7c0-0.4,0.3-0.7,0.7-0.8
	c2.9,0.5,5,2.9,5.1,5.9c0,4.3-3.8,7-7.5,8.3c-0.5,0.2-1,0.2-1,0.6c0.3,1.1,1,2.1,2,2.6c0.6-0.1,1.1-0.3,1.6-0.5
	c4.6-2.2,8.3-5.5,8.3-10.9c0-4.4-3.1-8.1-7.4-8.9c-0.5,0-1-0.3-1.1-0.8c0-0.1,0-0.2,0-0.3c0-0.7,0.2-1.4,0.5-2.1
	c0.1-0.2,0.2-0.3,0.2-0.5c-0.1-0.3-0.3-0.5-0.5-0.6C44.5-40.9,43.4-41.1,42.3-41.3L42.3-41.3z M71.7-35.7c0.3,0,0.5,0.2,0.5,0.5
	c0,0,0,0.1,0,0.1c-0.1,2.1-0.5,4.2-1,6.2c-0.9,3.3-2.7,6.9-4.3,6.9c-1.6,0-2.1-3-2.1-4.2c-0.1-3.9,2.2-7.6,5.8-9.2
	C71-35.5,71.4-35.6,71.7-35.7L71.7-35.7z M74.8-39.4c-7.3,0-13.2,5.8-13.3,13.1c0,0.1,0,0.2,0,0.3c0,1.6,0.3,3.1,1,4.6
	c0.8,1.7,2.5,2.9,4.4,3c1.7-0.2,3.3-1.1,4.2-2.5c3.1-3.7,4.2-9.4,4.5-14c0-0.6,0-1.3,0.8-1.3c0.4,0.1,0.8,0.2,1.2,0.3
	c3.2,1.1,5.3,4.2,5.1,7.6c0,4.6-3.3,7.3-7.5,8.3c-0.3,0.1-0.8,0.1-0.8,0.5c0.3,1.2,1,2.2,2.1,2.7c1.2-0.3,2.4-0.7,3.5-1.3
	c3.9-2,6.3-6,6.2-10.3c0-3-1.1-5.8-3.2-7.9C80.9-38.4,77.9-39.5,74.8-39.4L74.8-39.4z M97-34c-1.2,0-2.7-0.1-3.6-0.1
	c-0.8,0-0.8,0.4-0.8,1.9c0,0.8,0,1.5,0.8,1.5c1.1,0,2.3-0.1,3.6-0.1h1c0.5,0,0.9,0.4,0.9,0.8v3.1c0,1-0.1,2-0.1,3.1
	c0,0.8,0.4,0.8,1.5,0.8c1.9,0,2.1,0.1,2.1-1.3c0-0.9-0.1-1.8-0.1-2.7v-3c0-0.4,0.4-0.8,0.8-0.8h5.6c0.5,0,0.9,0.4,0.8,0.9
	c0,0,0,0.1,0,0.1c0,6.4-1.1,9.1-7.2,11.6c-0.3,0.1-0.5,0.3-0.5,0.5c0.5,1,1.3,1.8,2.3,2.3c1.1-0.4,2.2-0.9,3.2-1.6
	c5-3.3,5.5-7.2,5.6-12.7c-0.1-0.5,0.2-1,0.7-1.1c0.1,0,0.2,0,0.3,0h0.9c1.2,0,2.4,0.1,3.7,0.1c0.8,0,0.9-0.3,0.9-1.9
	c0-1.2-0.2-1.5-0.8-1.5c-0.7,0-2.8,0.1-3.8,0.1H114c-0.5,0-0.9-0.3-0.9-0.8c0-0.1,0-0.2,0-0.2v-0.2c0-0.3,0-0.6,0-1v-1.2
	c-0.1-0.9,0-1.8,0.2-2.7c0.2-0.1,0.3-0.3,0.4-0.5c0-0.3-0.4-0.3-1-0.4c-0.5,0-2.3-0.2-2.8-0.2c-0.2,0-0.4,0.2-0.4,0.4
	c0,0.1,0,0.3,0,0.4c0.1,1,0.1,4.3,0.1,5.4c0.1,0.4-0.2,0.8-0.7,0.9c0,0-0.1,0-0.1,0h-5.6c-0.5,0-0.8-0.4-0.8-0.8c0,0,0,0,0,0V-37
	c0-2.1,0-2.3,0.4-2.8c0.1-0.1,0.2-0.2,0.2-0.3c-0.4-0.4-0.9-0.6-1.5-0.5c-0.8-0.1-1.6-0.1-2.4-0.2c-0.2,0-0.3,0.1-0.3,0.2
	c0,0,0,0.1,0,0.1c0,0,0.1,1.7,0.1,3.5v2.2c-0.1,0.5-0.5,0.9-1,0.8c0,0,0,0-0.1,0H97L97-34z M146-34.9c-0.2,0-0.4,0.2-0.5,0.3
	c-5.1,6.4-11.9,11.2-19.6,13.9c-0.4,0-0.8,0.2-1,0.5c0.2,0.7,0.6,1.3,1,1.9c0.3,0.6,0.7,1.2,1.2,1.7c0.1,0,0.3-0.1,0.3-0.2
	c0.2-0.6,0.7-1,1.3-1.1c6.5-2.9,12.4-7,17.4-12.1c0.7-0.6,1.3-1.4,1.7-2.2C147.6-33.2,147-34.2,146-34.9L146-34.9z M127.1-40
	c-1,0.5-1.7,1.4-2,2.5c0.1,0.3,0.2,0.5,0.5,0.6c1.5,0.9,2.9,1.9,4.3,3c0.4,0.4,0.8,0.7,1.3,0.9c1-0.5,1.8-1.4,2.1-2.5
	c-0.5-0.8-1.2-1.4-2-1.8C130-38.4,128.6-39.3,127.1-40L127.1-40z M157.9-35.4c-1.1,0-2.1,0-3.2,0c-0.7,0-0.8,0.3-0.8,1.7
	c0,1.2,0.1,1.8,0.8,1.8c0.4,0,2.3-0.1,3.2-0.1l4.5,0c0.4,0,0.7,0.3,0.7,0.6c0,0,0,0,0,0c-0.2,1-0.5,2.1-0.8,3.1
	c-1.4,3.8-3.8,7.1-6.9,9.7c-0.2,0.1-0.4,0.3-0.4,0.6c0.5,1,1.4,1.7,2.4,2.1c1.1-0.7,2.1-1.5,2.9-2.5c3.2-3.5,5.3-7.8,6.3-12.5
	c0-0.6,0.4-1.1,1-1.2l3.2,0c1.4,0,1.9-0.1,1.9,0.8c-0.1,2.6-0.5,5.1-1,7.6c-0.5,2.3-1.2,3.1-3,3.1c-0.8,0-1.5-0.1-1.8-0.1
	c-0.3,0-0.5,0.2-0.6,0.5c0,0,0,0.1,0,0.1c0.1,0.8,0.4,1.5,0.8,2.2c0.2,0.5,0.6,0.7,1.1,0.6c0.6,0,1.2,0,1.9-0.1
	c1.8,0,3.4-1.1,4.2-2.8c0.9-2.9,1.6-6,1.8-9.1c0.1-0.6,0.5-4.2,0.5-4.5c-0.2-0.9-0.9-1.6-1.8-1.8c0,0-2.6,0.1-3.5,0.1l-3.1,0
	c-0.4,0-0.7-0.3-0.8-0.7c0,0,0,0,0-0.1c0-0.3,0.2-2.2,0.3-2.7c-0.1-0.5,0.1-1,0.4-1.4c0.2-0.1,0.3-0.3,0.4-0.6
	c-0.1-0.2-0.3-0.4-0.5-0.3c-0.3-0.1-3.1-0.6-3.3-0.6c-0.4,0-0.4,0.4-0.4,0.7c0,0.8-0.2,4.2-0.3,4.8c-0.1,0.5-0.5,0.8-1,0.8
	L157.9-35.4z M199-33.7c-0.4,0-0.4,0.4-0.4,0.6c-0.4,2.6-1.3,5.1-2.6,7.3c-2.3,3.5-5.9,5.9-9.9,6.7c-0.3,0-0.5,0.3-0.5,0.6
	c0.3,1,0.9,1.8,1.8,2.2c0.3-0.1,0.7-0.1,1-0.3c3.4-1,6.4-2.9,8.7-5.6c2.1-2.6,3.6-5.7,4.4-9c0-0.3,0.2-0.5,0.4-0.7
	c0.2-0.1,0.3-0.3,0.4-0.5c0-0.3-0.3-0.5-0.6-0.6C200.8-33.2,199.9-33.5,199-33.7L199-33.7z M193.4-32.6c-0.3-0.8-0.9-1.4-1.6-1.8
	c-0.9,0.1-1.6,0.6-2.1,1.3c0,0.2,0.1,0.5,0.3,0.6c0.8,1.2,1.6,2.5,2.2,3.8c0.1,0.3,0.3,0.5,0.6,0.6c0.9-0.1,1.8-0.7,2.3-1.5
	c-0.4-0.9-0.9-1.8-1.4-2.6L193.4-32.6z M185.3-32.6c-0.9,0.1-1.7,0.6-2.1,1.4c0,0.2,0.1,0.4,0.3,0.6c0.9,1.2,1.6,2.5,2.3,3.9
	c0.1,0.3,0.3,0.5,0.6,0.5c0.9-0.1,1.8-0.7,2.3-1.5c-0.4-0.9-0.8-1.8-1.4-2.5c-0.3-0.5-1.1-1.7-1.4-2.1
	C185.7-32.5,185.5-32.6,185.3-32.6L185.3-32.6z M213.8-32.1c-0.1,0.1-0.2,0.1-0.3,0.1c-0.2,0-0.3-0.1-0.3-0.3c0,0,0,0,0,0v-4.8
	c0-0.8,0-1.4,0-1.9c-0.1-0.6,0-1.2,0.4-1.7c0.1-0.1,0.1-0.3,0.2-0.4c0-0.5-1.3-0.6-2.8-0.8c-0.2,0-0.9-0.1-1.1-0.1
	c-0.2,0-0.4,0.1-0.4,0.3c0,0,0,0.1,0,0.1c0,0.1,0,0.4,0,0.6c0,0.8,0.1,1.7,0.1,2.5v18.3c0,1.4-0.1,2.9-0.1,4.3
	c0,1.1,0.5,1.1,1.8,1.1c2,0,2-0.2,2-1.7c0-1.3-0.1-2.5-0.1-3.8V-29c0-0.2,0.1-0.5,0.3-0.5c0,0,0,0,0.1,0c0.1,0,0.2,0,0.3,0.1
	c1.6,1.2,3.2,2.4,4.6,3.8c0.2,0.2,0.4,0.4,0.7,0.4c1-0.4,1.8-1.2,2.1-2.2c-0.6-0.9-1.3-1.7-2.2-2.3c-1.4-1.2-2.9-2.2-4.5-3.1
	C214.3-32.7,214-32.5,213.8-32.1L213.8-32.1z M227.1-19.2c0.1,4.1,3.5,7.3,7.6,7.2s7.3-3.5,7.2-7.6c-0.1-4-3.4-7.2-7.4-7.2
	c-4-0.1-7.3,3-7.4,6.9C227.1-19.7,227.1-19.4,227.1-19.2L227.1-19.2z M240.7-19.3c-0.1,3.4-3,6.1-6.4,6c-3.4-0.1-6.1-3-6-6.4
	c0.1-3.4,2.9-6,6.2-6c3.3-0.1,6.1,2.4,6.2,5.7C240.7-19.8,240.7-19.5,240.7-19.3L240.7-19.3z M232.2-14.9h0.3c0.5,0,0.7-0.1,0.7-0.7
	c0-0.4,0-1.3,0-1.9v-0.3c0-0.2,0.1-0.4,0.3-0.4c0,0,0.1,0,0.1,0h0.1c0.3-0.1,0.7,0.1,0.8,0.4l0.4,0.5c0.3,0.5,0.6,1,1,1.6
	c0.2,0.5,0.8,0.9,1.4,0.8h0.3c0.4,0,0.6-0.1,0.6-0.2c0-0.2-0.1-0.4-0.2-0.5c-0.6-0.8-0.9-1.4-1.4-2.1c-0.2-0.2-0.3-0.4-0.3-0.7
	c0.1-0.3,0.3-0.5,0.5-0.6c0.8-0.6,1.2-1.5,1.1-2.4c0.1-1.4-1-2.6-2.4-2.6c-0.2,0-0.4,0-0.6,0h-2.4c-0.7,0-0.9,0.1-0.9,0.9v5.6
	c0,0.6,0,1.5,0,1.9C231.5-14.9,231.7-14.9,232.2-14.9L232.2-14.9z M234.4-19.6h-0.6c-0.5,0-0.6-0.1-0.6-0.6v-1.6
	c0-0.6,0.1-0.7,0.7-0.7h0.8c0.6-0.2,1.3,0.2,1.4,0.9c0,0.1,0,0.3,0,0.4c0.1,0.8-0.6,1.5-1.4,1.6C234.6-19.5,234.5-19.5,234.4-19.6
	L234.4-19.6z M264.5-21.4c0.1,0.9-0.6,1.7-1.6,1.8c-0.2,0-0.3,0-0.5,0c-0.8,0-2.3-0.4-2.3-1.4s1.6-1.3,2.3-1.3
	C263.1-22.3,264.5-22.2,264.5-21.4L264.5-21.4z M263.8-40.8c-0.2,0-0.4,0.1-0.4,0.3c0,0,0,0.1,0,0.1c0,0.1,0,0.2,0,0.3
	c0.1,0.8,0.4,3.9,0.4,4.6s-0.7,0.8-1.5,0.8h-0.5c-1.7,0-4.5-0.3-4.9-0.3c-0.5,0-0.5,0.4-0.5,0.8c-0.1,0.8,0.1,1.7,0.3,2.4
	c0.8,0.2,1.6,0.3,2.4,0.3h0.4c1.3,0,3.6-0.1,3.8-0.1c0.8,0,0.7,0.9,0.8,1.2c0,0.9,0.2,4,0.2,4.8c0,0.3-0.2,0.6-0.5,0.7
	c0,0-0.1,0-0.1,0h-0.2c-0.4-0.1-0.8-0.1-1.2-0.1c-2.5,0-5,1.2-5,4c0,2.9,2.8,4.2,5.3,4.2c2,0.3,3.9-0.8,4.6-2.7
	c0-0.3,0.2-0.5,0.5-0.5c0.9,0.5,1.7,1.1,2.4,1.8c0.2,0.3,0.6,0.4,0.9,0.5c1-0.3,1.7-1.2,1.9-2.2c-0.1-0.5-0.4-1-0.8-1.2
	c-1.1-0.9-2.2-1.6-3.5-2.2c-0.6-0.1-1.1-0.6-1.1-1.3c0-0.8-0.3-5.7-0.3-6.4c0-0.8,0.4-0.9,1.1-1c3.8-0.5,4-0.7,4-1.4
	c0-0.5-0.2-2.7-0.9-2.7c-0.2,0-0.3,0-0.5,0.1c-1,0.3-2.1,0.6-3.2,0.8c-0.4,0-0.7-0.3-0.7-0.7c0,0,0-0.1,0-0.1V-37
	c-0.1-0.8,0-1.6,0.4-2.3c0.2-0.2,0.3-0.4,0.4-0.6c0-0.2-0.2-0.3-0.3-0.3C266.2-40.5,265.1-40.7,263.8-40.8L263.8-40.8z M253.7-39.8
	c-0.7-0.3-1.3-0.6-2-0.8c-0.3,0.1-0.4,0.3-0.4,0.5c-0.4,1.4-0.8,2.8-1.2,4.2c-0.7,2.9-1.1,5.9-1.1,9c-0.1,3.4,0.5,6.8,1.9,9.9
	c0.1,0.5,0.5,0.9,1,1.1c0.2,0,2.4-0.4,2.4-1.6c0-0.5-0.1-1-0.1-1.5c0.3-2,0.9-3.9,1.6-5.8c-0.3-0.5-0.8-0.9-1.4-1
	c-0.4,0.4-0.7,0.8-0.9,1.4c-0.1,0.5-0.3,0.9-0.7,1.2c-0.6,0-0.7-3-0.7-3.6c0-3.3,0.6-6.6,1.8-9.7c0.1-0.7,0.6-1.3,1.3-1.6
	c0.2,0,0.3-0.2,0.3-0.3c-0.2-0.3-0.5-0.6-0.8-0.6C254.5-39.4,254.1-39.6,253.7-39.8L253.7-39.8z M300.6-40c-0.7,0.1-1.3,0.5-1.7,1.1
	c0.1,0.3,0.2,0.5,0.4,0.8c0.5,0.7,1,1.6,1.4,2.3c0.3,0.5,0.4,0.7,0.6,0.7c0.7-0.1,1.3-0.6,1.7-1.2c-0.3-0.7-0.7-1.5-1.2-2.1
	C301.6-39.1,301.2-39.6,300.6-40L300.6-40z M303.9-42.2c-0.7,0.1-1.3,0.5-1.7,1.1c0,0.1,0,0.2,0.1,0.3c0.7,1,1.3,2,1.9,3
	c0,0.2,0.2,0.4,0.4,0.4c0.7-0.1,1.3-0.6,1.7-1.2c-0.3-0.7-0.7-1.4-1.2-2.1C304.9-41.3,304.5-41.8,303.9-42.2L303.9-42.2z
	 M287.5-40.7c-1.1,0.2-2.1,0.2-2.1,0.7c0,0.1,0.1,0.3,0.1,0.4c0.2,0.7,0.4,1.4,0.6,2.1c0.4,1.4,1.2,4.7,1.6,5.9
	c0.1,0.2,0.1,0.3,0.1,0.5c0,0.4-0.3,0.8-0.8,1c-2.7,1.3-4.5,4-4.8,7c0,2.1,1.1,4,2.9,5c2.1,1,4.4,1.5,6.7,1.3c1.7,0,7.1-0.2,8.5-0.4
	c0.8-0.2,0.9-0.5,0.9-1.3V-19c0.2-0.7,0-1.5-0.5-2.1c-0.1,0-0.2,0-0.3,0c-0.5,0.1-2.8,0.4-3.3,0.5c-1.7,0.2-3.3,0.3-5,0.3
	c-1.5,0.1-2.9-0.1-4.3-0.5c-1.1-0.3-1.9-1.2-2.1-2.3c0-2.8,4.8-5.3,7-6.4c2.1-1.2,4.4-2.2,6.7-3c0.3,0,0.5-0.2,0.6-0.5
	c-0.4-1.3-1.1-2.4-2.1-3.3c-0.3,0.1-0.6,0.2-0.8,0.3c-1.8,1.1-3.6,2.2-5.5,3c-0.5-0.1-0.8-0.5-0.7-1c-0.4-1.9-0.8-3.8-1-5.8
	c-0.1-0.7,0-1.2-0.9-1.2C288.5-40.8,288-40.8,287.5-40.7L287.5-40.7z M319-42.2c-0.4,0-0.5,0.1-0.5,0.4c0,0.2,0,0.6,0,1
	c0,1.4-0.1,3.3-0.1,4.2c0,0.3,0,0.7-0.2,1c-0.4,0.8-4.4,1.5-5.4,1.6c-0.4,0.1-1.1,0.1-1.1,0.6c0.1,0.8,0.4,1.5,0.7,2.2
	c0.1,0.5,0.5,0.8,0.9,0.9c1.3-0.3,2.6-0.8,3.9-1.3c0.2-0.1,0.4-0.1,0.6-0.2c0.2,0,0.4,0.2,0.4,0.4c0,0,0,0,0,0.1
	c0,0.3-0.1,0.5-0.1,0.8c0,0.5-0.1,1.1-0.4,1.5c-1.5,2.6-3,5.3-4.7,7.8c-0.3,0.3-0.5,0.7-0.6,1.2c0.5,1,1.4,1.7,2.4,2.1
	c0.2,0,0.4-0.2,0.4-0.4c0.3-0.6,1.3-2.3,1.7-2.9c0.2-0.4,0.4-0.7,0.8-1c0.2,0,0.3,0.2,0.3,0.4c0,1.4-0.2,5-0.2,5.3
	c0,0.6,0.6,0.6,1.3,0.6c2.4,0,2.3-0.3,2.3-0.5c0-0.3-0.1-2.1-0.2-3.4c0-0.6-0.1-1.5-0.1-1.7c0-0.7-0.1-4.6,0-5.1
	c0.5-0.8,1.1-1.5,1.8-2.1c1.1-1.1,2.3-2.1,3.5-3.1c0.7-0.7,1.6-1.1,2.5-1.3c1,0,1,1.1,1,1.8c0,2.9-0.4,5.8-0.4,8.7
	c0,2,0.3,5.1,2.9,5.1c1.7-0.1,3.2-0.8,4.5-1.9c0.6-0.4,1.2-0.9,1.5-1.5c-0.2-1.1-0.7-2.1-1.5-2.9c-0.2,0-0.5,0.2-0.6,0.3
	c-0.7,0.9-1.7,1.6-2.8,2c-0.7,0-0.7-1.1-0.7-1.9c0-1.3,0.1-2.8,0.2-4.2c0.1-1.6,0.2-3.3,0.2-5c0.1-1-0.1-2.1-0.6-3
	c-0.6-0.9-1.7-1.4-2.8-1.4c-1.8,0.2-3.4,1-4.6,2.3c-0.9,0.8-1.9,1.6-2.7,2.5c-0.1,0.1-0.2,0.1-0.3,0.2c-0.1,0-0.3-0.1-0.3-0.3
	c0,0,0,0,0,0c0-0.2,0-0.3,0.1-0.5c0.1-0.2,0.7-1.3,0.9-1.6c0.1-0.1,0.2-0.2,0.2-0.4c-0.1-0.6-0.5-1.2-1.1-1.5
	c-0.3,0-0.5-0.3-0.5-0.5c0-0.4,0.2-2,0.3-2.6c-0.1-0.6,0.1-1.3,0.6-1.8c0.1-0.1,0.2-0.3,0.3-0.5c0-0.2-0.2-0.3-0.4-0.4
	C322-41.9,319.4-42.2,319-42.2L319-42.2z M351.4-23.1c0.6,0,0.7-0.2,0.7-0.9c0.1-1.8,1.1-3.5,2.6-4.6c2.2-1.8,3.7-3.2,3.7-5.9
	c0-3-2.7-5.6-7.3-5.6c-3-0.1-5.8,1.1-7.8,3.3c-0.2,0.2-0.3,0.4-0.4,0.7c0,0.3,0.2,0.5,0.4,0.7l1.3,1.3c0.2,0.2,0.4,0.4,0.7,0.4
	c0.3-0.1,0.5-0.3,0.6-0.5c1.2-1.5,3-2.4,4.9-2.4c2.4,0,3.7,1.1,3.7,2.6c-0.2,1.2-0.9,2.3-1.9,3c-2.1,1.8-4.1,3.6-4.1,6.9
	c0,0.9,0.1,1.1,0.7,1.1H351.4L351.4-23.1z M350.6-20.9c-1.3,0-2.4,1-2.5,2.3c0,0.1,0,0.2,0,0.3c0,1.2,0.9,2.1,2.1,2.1
	c0,0,0.1,0,0.1,0c1.3,0.1,2.4-0.9,2.5-2.2c0-0.1,0-0.2,0-0.3c0-1.2-0.9-2.2-2.1-2.2C350.7-20.9,350.7-20.9,350.6-20.9L350.6-20.9z"
	/>
<g>
	<path d="M9,39.9c-0.5,2.7-1.2,5.6-2.2,7.8c0.5,0.3,1,0.7,1.8,1.2c2.1,1.2,4.9,1.4,8.4,1.4c3.4,0,8.8-0.3,12.1-0.8
		c-0.4,1-1,2.7-1,3.7c-2.5,0.2-7.8,0.4-11.3,0.4c-4,0-6.5-0.3-8.7-1.6c-1.3-0.7-2.3-1.7-2.9-1.7c-0.7,0-1.8,2-2.5,3.8l-2.4-3.4
		c1.2-1.4,2.4-2.5,3.5-3.1c0.6-1.4,1.1-3.3,1.5-5H1.4c0.7-1.8,1.5-4.2,2.2-6.5H0.9v-3.2H8c-0.6,2.1-1.4,4.5-2.1,6.6h1.2l0.5-0.1
		L9,39.9z M4.4,32c-0.4-1.4-1.4-3.5-2-5.2l3.1-1c0.7,1.6,1.6,3.6,2.1,4.9L4.4,32z M13.1,30.7H9V28h7.6c-0.3-0.5-0.6-1-0.9-1.4l2.8-1
		c0.6,0.7,1.2,1.6,1.6,2.5h8.1v2.8h-3.6c-0.4,0.8-0.8,1.5-1.1,2.1h4v12.7c0,1.5-0.2,2.3-1.2,2.8c-0.9,0.5-2.2,0.5-4,0.5
		c-0.1-0.7-0.4-1.6-0.8-2.4H17v0.9h-2.4v-6.5h2.7v-1.7h-3.5v-2.2h3.5v-1.6H13v13.1H9.8V32.8h3.5c-0.2-0.7-0.5-1.4-0.8-2L13.1,30.7z
		 M20.4,32.8c0.3-0.7,0.5-1.4,0.8-2.1h-5.3c0.4,0.7,0.6,1.5,0.7,2.1H20.4z M20.2,42.9H17v1.6h3.2V42.9z M24.3,35.5h-4.5v1.6h3.6v2.2
		h-3.6v1.7h2.8V46c0.5,0,1,0,1.2,0c0.4,0,0.4-0.1,0.4-0.5V35.5z"/>
	<path d="M48.1,27.4c-0.3,0.5-0.7,0.9-1,1.3c3.8,3.6,7.8,5.6,11.9,7.1c-0.9,0.8-2,2.2-2.5,3.3c-1.4-0.7-2.9-1.4-4.3-2.2v2h-15v-1.5
		c-1.3,0.8-2.7,1.6-4,2.2c-0.6-1-1.6-2.4-2.6-3.3c5.5-2.2,11.2-5.8,14.3-10.5L48.1,27.4z M35.2,41.4h19.3v12.4h-3.8v-1.2H38.9v1.3
		h-3.7V41.4z M38.9,44.5v4.7h11.9v-4.7H38.9z M50.1,35.5c-1.7-1.2-3.5-2.5-5.2-4.3c-1.5,1.6-3.2,3-5,4.3H50.1z"/>
	<path d="M70.2,27.1c-0.8,2.1-1.7,4.2-2.9,6.1v20.6h-3.4V38.5c-0.7,0.9-1.4,1.7-2,2.4c-0.3-0.9-1.3-2.8-1.9-3.7
		c2.7-2.7,5.3-7,6.8-11.2L70.2,27.1z M80.8,34.6v15.4c0,1.7-0.3,2.7-1.4,3.3c-1.1,0.6-2.5,0.7-4.4,0.7c-0.1-1-0.7-2.6-1.2-3.6
		c1.3,0,2.5,0,2.9,0c0.4,0,0.5-0.1,0.5-0.5V34.6h-3.5c-0.8,1.7-1.8,3.3-2.8,4.6c-0.6-0.6-2.1-1.8-2.9-2.3c2.3-2.5,4.1-6.7,5.1-10.8
		l3.5,0.8c-0.4,1.5-0.9,3-1.4,4.5h10.3l0.6-0.1l2.5,0.5c-0.4,2.4-0.9,5.2-1.3,7l-3-0.5c0.2-0.9,0.3-2.2,0.5-3.5H80.8z M75.8,40
		c-0.9,3.8-2.4,7.6-4.1,10c-0.7-0.6-2.2-1.5-3.1-1.9c1.7-2.1,3-5.5,3.7-8.8L75.8,40z M85.1,38.9c1.6,3.1,2.9,7.1,3.3,9.8l-3.4,1.2
		c-0.3-2.7-1.6-6.8-3-9.9L85.1,38.9z"/>
	<path d="M117.9,30.5c0,0,0,1.2,0,1.6c-0.4,13.4-0.7,18.2-2,19.8c-0.8,1.1-1.7,1.4-2.9,1.7c-1.1,0.1-2.9,0.1-4.7,0.1
		c-0.1-1-0.5-2.5-1.2-3.5c1.9,0.2,3.7,0.2,4.5,0.2c0.6,0,0.9-0.1,1.3-0.5c0.9-1,1.3-5.5,1.6-16h-6.4c-0.8,1.8-1.7,3.4-2.6,4.7
		c-0.5-0.4-1.5-1.1-2.3-1.7v14h-8V53h-3.2V30.7h3.4c0.4-1.5,0.8-3.4,0.9-4.8l3.9,0.5c-0.5,1.5-1,3-1.6,4.3h4.6v4.9
		c1.7-2.5,3.2-6.1,4-9.7l3.4,0.8c-0.3,1.3-0.7,2.5-1.2,3.8H117.9z M99.9,33.8h-4.8v4.9h4.8V33.8z M99.9,47.7v-5.9h-4.8v5.9H99.9z
		 M109.9,46c-0.8-1.8-2.7-4.7-4.2-6.9l2.8-1.6c1.5,2.1,3.5,4.9,4.4,6.7L109.9,46z"/>
	<path d="M125.2,44.6c0.1,1,0.4,1.7,0.8,2.2c0.7,0.9,2,1.3,3.8,1.3c1.1,0,2-0.1,2.6-0.4c1.3-0.4,1.9-1.3,1.9-2.5
		c0-0.7-0.3-1.3-0.9-1.7c-0.6-0.4-1.6-0.7-3-1l-2.3-0.5c-2.3-0.5-3.9-1.1-4.7-1.7c-1.5-1-2.2-2.6-2.2-4.7c0-1.9,0.7-3.5,2.1-4.8
		s3.5-1.9,6.3-1.9c2.3,0,4.3,0.6,5.9,1.8s2.5,3,2.6,5.3h-4.3c-0.1-1.3-0.7-2.2-1.7-2.8c-0.7-0.4-1.6-0.5-2.7-0.5
		c-1.2,0-2.1,0.2-2.9,0.7c-0.7,0.5-1.1,1.1-1.1,2c0,0.8,0.4,1.3,1.1,1.7c0.5,0.3,1.4,0.6,2.9,0.9l3.8,0.9c1.7,0.4,2.9,0.9,3.7,1.6
		c1.3,1,1.9,2.5,1.9,4.4c0,2-0.8,3.6-2.3,4.9s-3.7,2-6.5,2c-2.8,0-5.1-0.6-6.7-1.9s-2.4-3-2.4-5.3H125.2z"/>
	<path d="M141.9,29.7h4.6V43c0,1.5,0.2,2.6,0.5,3.2c0.5,1.2,1.7,1.8,3.6,1.8c1.8,0,3-0.6,3.5-1.8c0.4-0.7,0.5-1.8,0.5-3.2V29.7h4.6
		V43c0,2.3-0.4,4.1-1.1,5.4c-1.3,2.3-3.9,3.5-7.6,3.5s-6.3-1.2-7.6-3.5c-0.7-1.3-1.1-3.1-1.1-5.4V29.7z"/>
	<path d="M163.5,29.7h4.7l8.6,15.1V29.7h4.2v21.6h-4.5L167.7,36v15.3h-4.2V29.7z"/>
	<path d="M187.3,32c1.7-1.8,4-2.7,6.6-2.7c3.6,0,6.2,1.2,7.9,3.6c0.9,1.3,1.4,2.7,1.5,4h-4.5c-0.3-1-0.7-1.8-1.1-2.3
		c-0.8-0.9-2-1.4-3.6-1.4c-1.6,0-2.9,0.7-3.8,2c-0.9,1.3-1.4,3.2-1.4,5.6s0.5,4.2,1.5,5.4s2.2,1.8,3.7,1.8c1.5,0,2.7-0.5,3.5-1.6
		c0.4-0.6,0.8-1.4,1.1-2.5h4.5c-0.4,2.4-1.4,4.3-3,5.7c-1.6,1.5-3.6,2.2-6.1,2.2c-3.1,0-5.5-1-7.2-3c-1.8-2-2.6-4.7-2.6-8.2
		C184.3,36.9,185.3,34,187.3,32z"/>
	<path d="M206.9,29.7h4.6V43c0,1.5,0.2,2.6,0.5,3.2c0.5,1.2,1.7,1.8,3.6,1.8c1.8,0,3-0.6,3.5-1.8c0.4-0.7,0.5-1.8,0.5-3.2V29.7h4.6
		V43c0,2.3-0.4,4.1-1.1,5.4c-1.3,2.3-3.9,3.5-7.6,3.5s-6.3-1.2-7.6-3.5c-0.7-1.3-1.1-3.1-1.1-5.4V29.7z"/>
	<path d="M244.3,29.7v3.8h-6.5v17.8h-4.5V33.5h-6.5v-3.8H244.3z"/>
	<path d="M261.7,50c0.8,0.1,1.6,0.1,2.4,0.1c1.7,0,7.4,0,9.6-0.1c-0.5,0.8-1,2.4-1.2,3.4H264c-5.5,0-9.2-0.8-11.7-4.3
		c-1.1,2-2.5,3.6-4.2,4.8c-0.5-0.7-1.9-2-2.7-2.5c3.1-1.9,4.9-5.1,5.6-9.1l3.6,0.5c-0.2,1-0.4,1.9-0.7,2.7c0.9,2,2.4,3.1,4.3,3.7
		v-7.6h-11.7v-3.1h26.5v3.1h-11.1V44h9.2v3.1h-9.2V50z M270,37.3h-20.8V26.9H270V37.3z M266.4,29.4h-13.7v1.5h13.7V29.4z
		 M266.4,33.3h-13.7v1.6h13.7V33.3z"/>
	<path d="M279.2,46.1v2.8h-2.6V28.5h7v17.5H279.2z M279.2,31.8v11h1.7v-11H279.2z M293.7,27.2c0,0,0,1.2,0,1.5
		c-0.1,16.5-0.1,22.1-0.9,23.5c-0.5,1-1.1,1.3-1.9,1.5c-0.8,0.2-1.7,0.2-2.8,0.1c0-0.9-0.3-2.2-0.8-3.1c0.8,0.1,1.5,0.1,1.9,0.1
		c0.4,0,0.6-0.1,0.8-0.6c0.3-0.5,0.4-2.2,0.5-5.8h-2.1c-0.6,3.5-1.8,7-4.2,9.7c-0.4-0.6-1.5-1.7-2.1-2.1c1.9-2.2,2.9-4.9,3.5-7.6
		h-1.4v-3h1.8c0.1-1.4,0.1-2.8,0.1-4.1h-1.9v-3h1.9v-4h-1.9v-3H293.7z M290.7,41.3c0-1.2,0-2.6,0-4.1h-1.6c0,1.3-0.1,2.6-0.2,4.1
		H290.7z M289.2,34.2h1.6l0-4h-1.6V34.2z M303.4,28.4c-0.7,3-1.6,7-2.3,9.6c1.5,2.6,1.8,4.9,1.8,7c0,2.1-0.4,3.4-1.2,4.1
		c-0.4,0.3-0.9,0.5-1.5,0.6c-0.4,0.1-1,0.1-1.5,0.1c0-0.9-0.2-2.1-0.6-3h0.9c0.2,0,0.5-0.1,0.7-0.3c0.3-0.3,0.4-1,0.4-2.1
		c0-1.7-0.2-3.8-1.6-6.2c0.5-2.3,1.1-5.7,1.5-8.1h-2.2v23.8h-2.9V27.2h5.9l0.4-0.1L303.4,28.4z"/>
	<path d="M333.4,37.7v3.9h-27.6v-3.9H333.4z"/>
	<path d="M344.4,27c-0.7,1.9-1.4,3.8-2.3,5.7v21.3h-3.4V38.6c-0.7,0.9-1.3,1.8-2,2.6c-0.3-0.9-1.1-3-1.7-3.9c2.5-2.7,4.8-7,6.1-11.3
		L344.4,27z M362.8,27.4v26.2h-3.4v-1.5h-11.3v1.7h-3.2V27.4H362.8z M359.4,49V30.5h-11.3V49H359.4z M355,36.8v2.6h2.9v8h-8.3v-8
		h2.7v-2.6h-3.4v-2.6h3.4v-3.1h2.8v3.1h3.6v2.6H355z M355.3,41.8h-3.1V45h3.1V41.8z"/>
	<path d="M378.4,34.9c0-1.8-1.4-2.8-3.8-2.8c-1.9,0-3.4,0.8-4.8,2.4l-2.5-2.3c1.9-2.2,4.5-3.7,7.7-3.7c4.3,0,7.5,2,7.5,6
		c0,4.4-6.5,4.9-6.1,9.1h-3.9C372,38.9,378.4,37.8,378.4,34.9z M374.6,45.7c1.8,0,3.1,1.2,3.1,2.9s-1.3,3-3.1,3
		c-1.8,0-3.1-1.2-3.1-3S372.8,45.7,374.6,45.7z"/>
</g>
</svg>
