<svg xmlns="http://www.w3.org/2000/svg" width="139" height="30" viewBox="0 0 139 30">
  <defs>
    <style>
      .cls-1 {
        fill-rule: evenodd;
      }
    </style>
  </defs>
  <path id="title-profile.svg" class="cls-1" d="M632.722,7254.2v28H637v-11.38h1.931a10.1,10.1,0,0,0,6.843-2.18,7.835,7.835,0,0,0,2.728-6.13,8.1,8.1,0,0,0-3.484-6.8,10.968,10.968,0,0,0-6.129-1.51h-6.17Zm4.281,3.94h1.889c4.87,0,5.5,2.77,5.5,4.33,0,2.6-1.763,4.41-5.457,4.41H637v-8.74Zm15.878-3.94v28h4.282v-11.46h0.756l8.017,11.46H671.1l-8.732-11.97a7.671,7.671,0,0,0,6.213-7.8,7.8,7.8,0,0,0-3.316-6.59c-1.8-1.22-3.988-1.64-7.388-1.64h-5Zm4.282,3.94h1.469c2.1,0,5.835.38,5.835,4.33,0,4.45-4.785,4.57-5.961,4.57h-1.343v-8.9Zm31.369-4.45a14.525,14.525,0,1,0,14.567,14.53A14.206,14.206,0,0,0,688.532,7253.69Zm0,25.11c-6,0-10.285-4.37-10.285-10.58s4.282-10.58,10.285-10.58,10.285,4.37,10.285,10.58S694.535,7278.8,688.532,7278.8Zm33.977-24.6h-14.02v28h4.281v-12.85h9.4v-4.03h-9.4v-7.09h9.739v-4.03Zm4.879,0v28h4.282v-28h-4.282Zm11,0v28H750.9v-4.03h-8.227V7254.2h-4.282Zm32,0H754.94v28h15.448v-4.03H759.222v-8.82h10.83v-4.03h-10.83v-7.09h11.166v-4.03Z" transform="translate(-632 -7253)"/>
</svg>
