<?xml version="1.0" encoding="utf-8"?>
<!-- Generator: Adobe Illustrator 26.2.1, SVG Export Plug-In . SVG Version: 6.00 Build 0)  -->
<svg version="1.1" id="Layer_1" xmlns="http://www.w3.org/2000/svg" xmlns:xlink="http://www.w3.org/1999/xlink" x="0px" y="0px"
	 viewBox="0 0 148 31.4" style="enable-background:new 0 0 148 31.4;" xml:space="preserve">
<style type="text/css">
	.st0{fill-rule:evenodd;clip-rule:evenodd;fill:#26D07C;}
</style>
<path class="st0" d="M138.4,20.7l2.7,0.8c2.1,0.7,3.3,3.1,2.7,5.4l-0.3,1.3c-0.6,2.3-2.8,3.7-4.9,3l-2.7-0.8
	c-2.1-0.7-3.3-3.1-2.7-5.4l0.3-1.3C134.1,21.4,136.3,20,138.4,20.7L138.4,20.7z M137.7,17.5l2-13.9h8.3l-5.4,15.1L137.7,17.5z
	 M12.7,17.3c-0.2,2.5-1.3,5.9-4.2,5.9c-2.9,0-3.6-3.3-3.4-5.9c0.2-2.5,1.6-5.8,4.4-5.8C12.4,11.5,12.9,14.9,12.7,17.3z M6.5,0H2.1
	L0,26.5h4.3l0.2-2.2h0.1c1.1,1.9,3.1,2.6,5,2.6c5.2,0,7.4-4.6,7.8-9.6c0.4-5-1.1-9.5-6.3-9.5c-2.3,0-3.9,1-5.3,2.8H5.7L6.5,0z
	 M31.8,16.6c0.1-2.1-0.8-3.9-3.4-3.9c-2.6,0-4,1.7-4.5,3.9H31.8z M34,25.6c-1.8,0.9-3.7,1.3-6.2,1.3c-5.9,0-9-3.1-8.5-8.6
	c0.4-4.8,3.5-8.7,9.1-8.7c6.6,0,8,4.2,7.5,10H23.6c0,2.7,1.8,4.2,4.7,4.2c2.2,0,4.2-0.8,6-1.7L34,25.6L34,25.6z M48.1,22.3
	c-0.8,0.9-2,1.5-3.5,1.5c-1.7,0-2.9-0.6-2.8-2c0.2-2.5,3.4-2.9,5.5-2.9h2C49.3,20.2,48.9,21.4,48.1,22.3L48.1,22.3z M46.8,9.6
	c-2,0-4.5,0.5-6.4,1.3l-0.2,3.7c1.7-1.1,3.8-1.8,5.8-1.8c2.8,0,4,0.9,3.7,3.6H47c-2,0-4.3,0.2-6.2,1c-1.9,0.8-3.3,2.2-3.6,4.7
	c-0.3,3.1,2.7,4.9,5.9,4.9c2.2,0,4.6-1,5.9-2.9h0.1c0,0.1,0,0.3,0,0.5c0,0.6-0.1,1.4,0,2h4.2c0-1.2,0.1-2.5,0.1-3.7
	c0.1-1.2,0.2-2.5,0.3-4.1l0.2-2.1C54.4,11.7,52.3,9.6,46.8,9.6z M58.7,10h4.2l-0.2,2.3h0.1c1.6-1.9,3.5-2.7,5.9-2.7
	c4.1,0,5.6,2.8,5.2,6.6l-0.9,10.7h-4.5l0.8-9c0.2-2.1,0.4-4.9-2.5-4.9c-3.2,0-4.2,3.4-4.4,5.6l-0.7,8.3h-4.5L58.7,10L58.7,10z
	 M77.1,12.2h3.3l-1.2,14.7h4.4l1.2-14.7h3.9l0.3-3.5h-3.9l0.2-2.3c0.1-1.4,0.7-2.8,2.2-2.8c0.9,0,1.4,0.3,1.8,0.6l0.1,0L90,0.4
	c-1-0.3-2.1-0.4-3.2-0.4c-3.5,0-5.6,2.5-5.9,6.2l-0.2,2.5h-3.3C77.4,8.7,77.1,12.2,77.1,12.2z M107.1,26.5h-4.2l0.2-2.3H103
	c-1.5,1.6-3.5,2.7-5.9,2.7c-4.1,0-5.6-2.8-5.2-6.6l0.9-10.7h4.5l-0.8,9c-0.2,2.1-0.4,4.9,2.5,4.9c3.2,0,4.2-3.4,4.4-5.6l0.7-8.3h4.5
	L107.1,26.5L107.1,26.5z M117.5,10h-4.2l-1.5,16.9h4.5l0.7-8.3c0.2-2.2,1.2-5.6,4.4-5.6c2.9,0,2.6,2.8,2.5,4.9l-0.8,9h4.5l0.9-10.7
	c0.3-3.8-1.2-6.6-5.2-6.6c-2.3,0-4.3,0.8-5.9,2.7h-0.1L117.5,10L117.5,10z"/>
</svg>
