<?xml version="1.0" encoding="utf-8"?>
<!-- Generator: Adobe Illustrator 25.2.1, SVG Export Plug-In . SVG Version: 6.00 Build 0)  -->
<svg version="1.1" id="img-lineup_sp.svg" xmlns="http://www.w3.org/2000/svg" xmlns:xlink="http://www.w3.org/1999/xlink" x="0px"
	 y="0px" viewBox="0 0 408.4 106.8" style="enable-background:new 0 0 408.4 106.8;" xml:space="preserve">
<style type="text/css">
	.st0{fill-rule:evenodd;clip-rule:evenodd;}
</style>
<path id="商品" class="st0" d="M25.4,86.7c0-1.1,0.9-1.9,2-2h6.9c1.1,0,2,0.9,2,2c0,0,0,0,0,0v2c0,1-0.7,1.9-1.7,1.9
	c-0.1,0-0.1,0-0.2,0h-6.9c-1,0.1-1.9-0.7-2-1.7c0,0,0-0.1,0-0.1L25.4,86.7L25.4,86.7z M42.9,85.3c0-1,0.1-2.1,0.1-3.1
	c0-2.2-1.5-2.5-3.4-2.5s-3.6,0.1-5.3,0.1h-6.8c-1.8,0-3.6-0.1-5.4-0.1c-1.8,0-3.3,0.4-3.3,2.5c0,1,0.1,2.1,0.1,3.1v8.5
	c0,1.1-0.1,2.2-0.1,3.2c0,1.6,0.7,1.6,3.3,1.6c3,0,3.4,0,3.4-1.5c0-1.4,1-1.5,2.6-1.5h6.2c1.8,0,3.6,0.1,5.4,0.1
	c1.8,0,3.3-0.4,3.3-2.5c0-1-0.1-2.1-0.1-3.1L42.9,85.3L42.9,85.3z M49.6,68.4c-1-0.2-2-0.4-3-0.4c-0.8,0-1,0.4-1.1,1.1
	c-0.5,2.2-0.8,2.5-2.7,2.5h-1.8c-1.5,0-2-0.4-2-1.9v-2.3c-0.2-0.9,0.4-1.8,1.3-2c0.2,0,0.4,0,0.7,0h8.5c0.6-0.1,1.2,0.3,1.3,0.9
	c0,0.1,0,0.3,0,0.4v0.7c0.1,0.4-0.2,0.8-0.7,0.9c-0.1,0-0.1,0-0.2,0L49.6,68.4L49.6,68.4z M40.1,53.4C39.5,55,38.8,56.5,38,58
	c-0.5,1.1-1.6,1.7-2.8,1.5H24.7c-0.2,0-0.3-0.2-0.4-0.4c0-0.1,0-0.2,0.1-0.4v-0.2c0-1-1.2-3.2-1.8-4.6c-0.1-0.4-0.3-0.6-0.4-0.8
	c-0.1-0.2-0.2-0.4-0.2-0.6c0-0.6,0.5-1.1,1.1-1.1c0,0,0.1,0,0.1,0h15.5c0.7-0.1,1.3,0.4,1.4,1.1c0,0,0,0,0,0
	C40.2,52.9,40.2,53.2,40.1,53.4L40.1,53.4z M50.7,91c0,2.1,0.2,3.9-1.9,3.9c-1.3,0-3.4-0.2-4.3-0.2c-1.1,0-1.3,0.8-1.3,1.8
	c0,5.7,2.5,5.4,4.4,5.4c7.4,0,9.9-1.5,9.9-7.4c0-1.8-0.1-3.5-0.1-5.2V68.6c0-2,0.1-3.9,0.1-5.9c0-2.7-1.3-3.3-3.8-3.3
	c-2,0-4,0.1-6,0.1h-1.3c-0.6,0.1-1.1-0.3-1.2-0.9c0,0,0,0,0-0.1c0-0.2,0.1-0.4,0.1-0.6l1.3-2.3c0.3-0.5,0.8-0.8,1.4-0.9
	c0.6-0.1,1.1-0.2,1.1-0.8c0-0.8-1.5-1.3-3.1-1.8c-0.1-0.1-0.2-0.2-0.2-0.3c0-0.2,0.2-0.3,0.4-0.4h5.5c2.7,0,5.5,0.2,8.3,0.2
	c1.7,0,1.7-0.6,1.7-3.1c0-2.5,0.1-3.1-1.6-3.1c-2.8,0-5.5,0.1-8.3,0.1H36.5c-0.9,0.2-1.8-0.4-1.9-1.3c0-0.2,0-0.4,0-0.5
	c0-1.2,0-2,0.8-2.5c0.4-0.1,0.7-0.5,0.8-0.9c0-0.6-0.8-0.7-1.3-0.8c-1.2-0.1-5.5-0.4-6.6-0.4c-0.6,0-1.3,0.1-1.3,0.8
	c0,0.2,0,0.4,0.1,0.6c0.1,1,0.2,2,0.2,3.1c-0.1,1.3-0.6,1.9-1.9,1.9H10c-2.8,0-5.5-0.1-8.3-0.1c-1.7,0-1.6,0.7-1.6,3.1
	s0,3.1,1.7,3.1c2.7,0,5.5-0.2,8.3-0.2h6.3c0.1,0,0.2,0.1,0.2,0.2c0,0.1-0.1,0.1-0.1,0.1c-0.5,0.3-1.5,0.7-1.5,1.4
	c0.5,1.2,1.1,2.4,1.8,3.5c0.2,0.3,0.4,0.7,0.6,1c0.1,0.2,0.1,0.4,0.1,0.6c-0.1,0.6-0.6,1.1-1.3,1h-2.6c-2,0-4-0.1-6-0.1
	c-2.4,0-3.7,0.6-3.7,3.3c0,2,0.1,4,0.1,6v22.3c0,2.9-0.1,5.9-0.1,8.8c0,2.1,0.6,2.2,3.7,2.2c3,0,3.6,0,3.6-2.1c0-2.9-0.1-6-0.1-8.9
	V67.4c-0.2-0.9,0.4-1.8,1.3-2c0.2,0,0.4,0,0.7,0h7.2c0.8,0.1,1.3,0.3,1.3,1.1c0,0.2-0.1,0.4-0.1,0.6c-1.7,3.5-5,6.1-8.3,8
	c-0.6,0.4-1.3,0.7-1.3,1.3c0,1.3,3,3.6,4.3,3.6c0.6-0.1,1.2-0.4,1.8-0.8c3.7-2.3,6.8-5.5,9-9.4c0.2-0.5,0.6-0.9,1.2-1
	c0.4,0,0.8-0.3,0.8-0.7c0-0.6-2.9-1.8-3.6-2c-0.1-0.1-0.2-0.2-0.2-0.4c0-0.2,0.2-0.3,0.4-0.4h5c0.9-0.2,1.8,0.4,2,1.3
	c0,0.2,0,0.4,0,0.7V69c0,1.3-0.1,2.5-0.1,3.7c0,4.3,2.9,4.3,7.9,4.3h2.7c2,0,5.4,0.1,6.8-1.5c0.1-0.1,0.3-0.2,0.5-0.2
	c0.3,0,0.5,0.2,0.5,0.5c0,0,0,0,0,0.1V91L50.7,91z M89.3,50.9c0-1,0.8-1.9,1.8-1.9c0,0,0.1,0,0.1,0h13.9c1-0.1,1.9,0.7,2,1.7
	c0,0,0,0.1,0,0.1v7.6c0,1.1-0.9,2-2,2c0,0,0,0,0,0H91.2c-1.1,0-2-0.9-2-2c0,0,0,0,0,0V50.9z M104.6,66.7c0.6,0,2.2,0,2.4,0.6
	c0.4,1,0.5,1,3.9,1c2.6,0,3.6,0,3.6-1.8c0-1.6-0.1-3.3-0.1-4.9V50.4c0-1.6,0.1-3.2,0.1-4.8c0-2.5-1.5-2.9-3.6-2.9
	c-1.8,0-3.6,0.1-5.4,0.1H90.9c-1.8,0-3.6-0.1-5.5-0.1c-2.2,0-3.5,0.6-3.5,2.9c0,1.6,0.1,3.2,0.1,4.8v11.2c0,1.7-0.1,3.3-0.1,5
	c0,1.8,1,1.8,3.6,1.8h0.9c1.1,0,2.5-0.1,2.7-0.6c0.3-0.9,0.9-1,2.7-1L104.6,66.7L104.6,66.7z M109.7,91.6c-1.1,0-1.9-0.9-2-2v-8.3
	c0-1.1,0.9-1.9,2-2h7.3c1,0,1.9,0.8,1.9,1.8c0,0,0,0.1,0,0.1v8.3c0.1,1-0.7,1.9-1.7,2c0,0-0.1,0-0.1,0H109.7z M118.8,99.2
	c0,0.4-0.1,0.8-0.1,1.2c0,1.7,1,1.6,3.8,1.6c2.9,0,3.8,0.1,3.8-1.7c0-2.2-0.1-4.3-0.1-6.5V81.3c0-1.8,0.1-3.5,0.1-5.2
	c0-2.5-1.1-3.2-3.4-3.2c-1.7,0-3.4,0.1-5,0.1h-8.8c-1.7,0-3.4-0.1-5.1-0.1c-2.2,0-3.4,0.7-3.4,3.1c0,1.8,0.1,3.6,0.1,5.4v12.5
	c0,2.2-0.1,4.3-0.1,6.6c0,1.6,0.7,1.7,3.8,1.7c2.9,0,3.7,0,3.7-1.7v-1.1c-0.1-0.8,0.4-1.5,1.1-1.6c0.2,0,0.3,0,0.5,0h7.7
	c0.8-0.1,1.5,0.4,1.6,1.1C118.8,99,118.8,99.1,118.8,99.2L118.8,99.2z M79.3,91.6c-1.1,0-1.9-0.9-2-2v-8.3c0-1.1,0.9-1.9,2-2h6.8
	c1.1,0,1.9,0.9,2,2v8.3c0,1.1-0.9,1.9-2,2H79.3z M87.9,100.4c0,1.6,0.8,1.6,3.6,1.6c2.9,0,3.6,0,3.6-1.6c0-2.2-0.1-4.4-0.1-6.6V81.3
	c0-1.8,0.1-3.6,0.1-5.4c0-2.5-1.2-3.1-3.4-3.1c-1.7,0-3.4,0.1-5.1,0.1h-8.1c-1.7,0-3.4-0.1-5.1-0.1c-2.2,0-3.4,0.7-3.4,3.1
	c0,1.8,0.1,3.6,0.1,5.3v12.5c0,2.2-0.1,4.3-0.1,6.5c0,1.8,0.8,1.7,3.7,1.7c2.9,0,3.8,0.1,3.8-1.6v-1.2c-0.1-0.8,0.5-1.5,1.2-1.5
	c0.1,0,0.3,0,0.4,0h7.2c0.7-0.1,1.5,0.3,1.6,1.1c0,0.2,0,0.3,0,0.5L87.9,100.4L87.9,100.4z"/>
<path id="LINE_UP" class="st0" d="M148.6,43.8v59.4h26.5v-8.5h-17.4V43.8H148.6z M180.1,43.8v59.4h9.1V43.8H180.1z M208.9,103.1
	V61.6l43.1,45.1v-63h-9.1v41.1l-43.1-45.1v63.4L208.9,103.1L208.9,103.1z M295.4,43.8h-32.8v59.4h32.8v-8.5h-23.7V75.9h23v-8.5h-23
	v-15h23.7V43.8z M313.7,43.8v38.2c0,4.7,1,10.4,5.5,15.4c8.9,9.1,23.4,9.3,32.5,0.4c0.1-0.1,0.3-0.3,0.4-0.4
	c4.5-5,5.5-10.7,5.5-15.4V43.8h-9.1v35.8c0,3.2-0.1,7.1-1.9,10.2c-3.8,6.1-11.8,8-17.9,4.2c-1.7-1.1-3.1-2.5-4.2-4.2
	c-1.8-3.1-1.9-7-1.9-10.2V43.8H313.7L313.7,43.8z M368.3,43.8v59.4h9.1V79h4.1c4.4,0,9.8-0.6,14.5-4.6c3.8-3.2,5.9-8,5.8-13
	c0.1-5.7-2.7-11.1-7.4-14.4c-4.3-2.9-9.3-3.2-13-3.2L368.3,43.8L368.3,43.8z M377.4,52.1h4c10.3,0,11.7,5.9,11.7,9.2
	c0,5.5-3.7,9.4-11.6,9.4h-4.1L377.4,52.1L377.4,52.1z"/>
<g>
	<path d="M10.4,17.7c-0.5,2.8-1.3,5.8-2.3,8.1c0.5,0.3,1.1,0.7,1.8,1.2c2.2,1.3,5.1,1.5,8.7,1.5c3.6,0,9.2-0.3,12.6-0.8
		c-0.4,1-1.1,2.8-1.1,3.8c-2.6,0.2-8.1,0.4-11.7,0.4c-4.2,0-6.8-0.3-9-1.7c-1.3-0.7-2.4-1.7-3.1-1.7c-0.7,0-1.8,2.1-2.6,3.9
		l-2.5-3.5c1.2-1.5,2.5-2.6,3.6-3.2c0.7-1.5,1.2-3.4,1.6-5.2H2.5c0.7-1.8,1.6-4.3,2.3-6.8H1.9v-3.3h7.4c-0.7,2.2-1.5,4.7-2.2,6.9
		h1.2l0.5-0.1L10.4,17.7z M5.6,9.5C5.1,8.1,4.2,5.8,3.5,4.1L6.7,3c0.7,1.7,1.6,3.8,2.2,5.2L5.6,9.5z M14.6,8.1h-4.2V5.2h7.9
		c-0.3-0.5-0.6-1-0.9-1.5l2.9-1.1C21,3.4,21.6,4.4,22,5.2h8.4v2.9h-3.7c-0.4,0.8-0.8,1.5-1.1,2.2h4.2v13.3c0,1.5-0.2,2.4-1.3,2.9
		c-1,0.5-2.3,0.5-4.2,0.5c-0.1-0.7-0.4-1.7-0.8-2.5h-4.9v1h-2.5v-6.7H19V17h-3.7v-2.2H19v-1.6h-4.4v13.7h-3.3V10.3h3.7
		c-0.2-0.7-0.5-1.5-0.8-2.1L14.6,8.1z M22.2,10.3c0.3-0.7,0.6-1.5,0.8-2.2h-5.6c0.4,0.7,0.7,1.6,0.8,2.2H22.2z M22,20.8h-3.4v1.6H22
		V20.8z M26.3,13.1h-4.7v1.6h3.7V17h-3.7v1.7h2.9V24c0.6,0,1,0,1.2,0c0.4,0,0.5-0.1,0.5-0.5V13.1z"/>
	<path d="M51.1,4.7c-0.3,0.5-0.7,0.9-1,1.4c4,3.7,8.1,5.8,12.4,7.4c-1,0.9-2.1,2.2-2.6,3.4c-1.5-0.7-3-1.5-4.5-2.3v2H39.7V15
		c-1.4,0.8-2.8,1.6-4.2,2.3c-0.6-1.1-1.7-2.5-2.7-3.4c5.7-2.3,11.6-6.1,14.9-10.9L51.1,4.7z M37.7,19.2h20.1v12.9h-4v-1.2H41.5v1.4
		h-3.8V19.2z M41.5,22.5v4.9h12.4v-4.9H41.5z M53.2,13.1c-1.8-1.2-3.6-2.7-5.4-4.5c-1.6,1.7-3.3,3.1-5.2,4.5H53.2z"/>
	<path d="M74.1,4.3c-0.8,2.2-1.8,4.3-3,6.4v21.5h-3.6v-16c-0.7,0.9-1.4,1.8-2.1,2.5c-0.3-0.9-1.4-3-2-3.9c2.8-2.8,5.5-7.2,7.1-11.7
		L74.1,4.3z M85.1,12.1v16c0,1.8-0.3,2.8-1.4,3.4c-1.1,0.6-2.6,0.7-4.6,0.7c-0.2-1.1-0.7-2.7-1.3-3.7c1.3,0,2.6,0,3.1,0
		c0.4,0,0.6-0.1,0.6-0.5V12.1h-3.6c-0.9,1.8-1.9,3.5-2.9,4.8c-0.7-0.7-2.2-1.9-3-2.4c2.4-2.7,4.2-7,5.3-11.2L80.8,4
		c-0.4,1.6-0.9,3.1-1.5,4.7h10.7l0.6-0.1l2.6,0.5c-0.4,2.5-0.9,5.4-1.3,7.2l-3.2-0.5c0.2-1,0.3-2.3,0.5-3.7H85.1z M79.9,17.7
		c-0.9,4-2.5,7.9-4.2,10.4c-0.7-0.6-2.3-1.5-3.2-2c1.8-2.2,3.1-5.7,3.8-9.2L79.9,17.7z M89.6,16.7c1.6,3.2,3,7.4,3.4,10.2l-3.6,1.2
		c-0.3-2.8-1.7-7.1-3.2-10.3L89.6,16.7z"/>
	<path d="M123.7,7.9c0,0,0,1.2,0,1.7c-0.4,14-0.7,18.9-2,20.6c-0.9,1.2-1.7,1.5-3,1.7c-1.2,0.2-3.1,0.1-4.9,0.1
		c-0.1-1-0.6-2.6-1.2-3.6c2,0.2,3.8,0.2,4.7,0.2c0.6,0,1-0.1,1.4-0.5c0.9-1,1.3-5.7,1.7-16.7h-6.7c-0.8,1.9-1.8,3.6-2.7,4.9
		c-0.5-0.5-1.6-1.2-2.4-1.7V29h-8.3v2.3h-3.4V8.1h3.5c0.4-1.6,0.8-3.6,0.9-5l4.1,0.6c-0.5,1.6-1.1,3.1-1.6,4.5h4.8v5.1
		c1.8-2.6,3.3-6.4,4.2-10.1l3.5,0.8c-0.3,1.3-0.7,2.7-1.2,4H123.7z M105,11.4h-5v5.1h5V11.4z M105,25.8v-6.1h-5v6.1H105z
		 M115.4,24.1c-0.9-1.9-2.8-4.9-4.3-7.2l2.9-1.7c1.6,2.2,3.6,5.1,4.6,6.9L115.4,24.1z"/>
	<path d="M131.3,22.6c0.1,1,0.4,1.8,0.9,2.3c0.8,0.9,2.1,1.4,4,1.4c1.1,0,2-0.1,2.8-0.4c1.3-0.5,2-1.3,2-2.6c0-0.7-0.3-1.3-1-1.7
		c-0.7-0.4-1.7-0.7-3.1-1.1l-2.4-0.5c-2.4-0.5-4-1.1-4.9-1.7c-1.5-1-2.3-2.7-2.3-4.9c0-2,0.7-3.7,2.2-5c1.5-1.3,3.7-2,6.5-2
		c2.4,0,4.4,0.6,6.1,1.9c1.7,1.3,2.6,3.1,2.7,5.5h-4.5c-0.1-1.4-0.7-2.3-1.8-2.9c-0.8-0.4-1.7-0.6-2.8-0.6c-1.2,0-2.2,0.2-3,0.7
		c-0.7,0.5-1.1,1.2-1.1,2c0,0.8,0.4,1.4,1.1,1.8c0.5,0.3,1.5,0.6,3,0.9l3.9,0.9c1.7,0.4,3,1,3.9,1.6c1.3,1.1,2,2.6,2,4.6
		c0,2.1-0.8,3.8-2.4,5.1c-1.6,1.4-3.8,2-6.7,2c-3,0-5.3-0.7-7-2c-1.7-1.3-2.5-3.2-2.5-5.5H131.3z"/>
	<path d="M148.7,7.1h4.8v13.8c0,1.5,0.2,2.7,0.5,3.4c0.6,1.3,1.8,1.9,3.7,1.9c1.9,0,3.1-0.6,3.7-1.9c0.4-0.7,0.5-1.8,0.5-3.4V7.1
		h4.8v13.8c0,2.4-0.4,4.2-1.1,5.6c-1.4,2.4-4,3.7-7.9,3.7s-6.5-1.2-7.9-3.7c-0.7-1.3-1.1-3.2-1.1-5.6V7.1z"/>
	<path d="M171.2,7.1h4.9l8.9,15.7V7.1h4.4v22.5h-4.7l-9.1-15.9v15.9h-4.4V7.1z"/>
	<path d="M196,9.4c1.8-1.9,4.1-2.8,6.9-2.8c3.7,0,6.5,1.2,8.2,3.7c1,1.4,1.5,2.8,1.5,4.2h-4.7c-0.3-1.1-0.7-1.9-1.2-2.4
		c-0.8-1-2.1-1.5-3.7-1.5c-1.7,0-3,0.7-4,2.1c-1,1.4-1.4,3.3-1.4,5.8s0.5,4.4,1.5,5.7c1,1.3,2.3,1.9,3.9,1.9c1.6,0,2.8-0.5,3.7-1.6
		c0.5-0.6,0.9-1.4,1.2-2.6h4.7c-0.4,2.4-1.4,4.4-3.1,6c-1.7,1.5-3.8,2.3-6.4,2.3c-3.2,0-5.7-1-7.5-3.1c-1.8-2.1-2.7-4.9-2.7-8.6
		C192.9,14.6,193.9,11.5,196,9.4z"/>
	<path d="M216.4,7.1h4.8v13.8c0,1.5,0.2,2.7,0.5,3.4c0.6,1.3,1.8,1.9,3.7,1.9c1.9,0,3.1-0.6,3.7-1.9c0.4-0.7,0.5-1.8,0.5-3.4V7.1
		h4.8v13.8c0,2.4-0.4,4.2-1.1,5.6c-1.4,2.4-4,3.7-7.9,3.7s-6.5-1.2-7.9-3.7c-0.7-1.3-1.1-3.2-1.1-5.6V7.1z"/>
	<path d="M255.3,7.1v4h-6.7v18.5h-4.7V11h-6.8v-4H255.3z"/>
	<path d="M273.5,28.2c0.8,0.1,1.7,0.1,2.5,0.1c1.7,0,7.7,0,10-0.1c-0.5,0.8-1.1,2.5-1.2,3.6h-8.9c-5.7,0-9.6-0.8-12.2-4.4
		c-1.1,2.1-2.6,3.7-4.4,5c-0.5-0.7-2-2.1-2.8-2.6c3.2-2,5.1-5.3,5.8-9.5l3.7,0.6c-0.2,1-0.5,1.9-0.7,2.8c1,2.1,2.5,3.3,4.5,3.9v-7.9
		h-12.2v-3.3h27.5v3.3h-11.6V22h9.6v3.2h-9.6V28.2z M282.1,15h-21.7V4.2h21.7V15z M278.3,6.7H264v1.6h14.3V6.7z M278.3,10.8H264v1.6
		h14.3V10.8z"/>
	<path d="M291.7,24.1V27h-2.7V5.8h7.3v18.3H291.7z M291.7,9.2v11.5h1.7V9.2H291.7z M306.7,4.5c0,0,0,1.2,0,1.6
		c-0.1,17.2-0.1,23-0.9,24.4c-0.6,1-1.1,1.3-1.9,1.5c-0.8,0.2-1.7,0.2-2.9,0.2c0-1-0.3-2.3-0.8-3.2c0.8,0.1,1.5,0.1,2,0.1
		c0.4,0,0.6-0.1,0.9-0.7c0.3-0.5,0.4-2.2,0.5-6.1h-2.2c-0.7,3.6-1.9,7.3-4.4,10.1c-0.4-0.6-1.6-1.8-2.2-2.2c2-2.3,3-5.1,3.6-7.9H297
		v-3.1h1.8c0.1-1.5,0.2-2.9,0.2-4.3h-2v-3.1h2V7.6h-2V4.5H306.7z M303.6,19.1c0-1.3,0-2.7,0-4.3H302c0,1.3-0.1,2.7-0.2,4.3H303.6z
		 M302,11.7h1.7l0-4.1H302V11.7z M316.9,5.7c-0.7,3.1-1.7,7.3-2.4,10c1.6,2.7,1.9,5.2,1.9,7.3c0,2.2-0.4,3.6-1.3,4.3
		c-0.4,0.3-0.9,0.6-1.6,0.7c-0.4,0.1-1,0.1-1.6,0.1c0-0.9-0.2-2.2-0.7-3.1h1c0.2,0,0.5-0.1,0.7-0.3c0.3-0.3,0.4-1.1,0.4-2.2
		c0-1.7-0.2-4-1.7-6.5c0.5-2.4,1.2-6,1.6-8.4H311v24.8h-3V4.5h6.2l0.4-0.1L316.9,5.7z"/>
	<path d="M348.1,15.4v4h-28.7v-4H348.1z"/>
	<path d="M359.5,4.2c-0.7,2-1.5,4-2.4,5.9v22.1h-3.5v-16c-0.7,1-1.4,1.9-2.1,2.7c-0.3-0.9-1.2-3.1-1.7-4c2.6-2.8,5-7.3,6.4-11.8
		L359.5,4.2z M378.6,4.7v27.3h-3.5v-1.5h-11.7v1.8H360V4.7H378.6z M375.1,27.2V7.9h-11.7v19.3H375.1z M370.6,14.4v2.7h3v8.4h-8.6
		v-8.4h2.8v-2.7h-3.6v-2.7h3.6V8.6h2.9v3.2h3.8v2.7H370.6z M370.8,19.7h-3.2V23h3.2V19.7z"/>
	<path d="M394.8,12.5c0-1.9-1.5-2.9-3.9-2.9c-1.9,0-3.6,0.8-5,2.5l-2.6-2.4c2-2.3,4.7-3.8,8.1-3.8c4.5,0,7.8,2.1,7.8,6.2
		c0,4.6-6.8,5.1-6.3,9.5h-4C388.2,16.6,394.8,15.5,394.8,12.5z M390.9,23.7c1.9,0,3.2,1.2,3.2,3.1s-1.4,3.1-3.2,3.1
		c-1.9,0-3.2-1.3-3.2-3.1S389,23.7,390.9,23.7z"/>
</g>
</svg>
