<?xml version="1.0" encoding="utf-8"?>
<!-- Generator: Adobe Illustrator 25.2.1, SVG Export Plug-In . SVG Version: 6.00 Build 0)  -->
<svg version="1.1" id="img-lineup.svg" xmlns="http://www.w3.org/2000/svg" xmlns:xlink="http://www.w3.org/1999/xlink" x="0px"
	 y="0px" viewBox="0 0 533.8 39.2" style="enable-background:new 0 0 533.8 39.2;" xml:space="preserve">
<style type="text/css">
	.st0{fill-rule:evenodd;clip-rule:evenodd;}
	.st1{enable-background:new    ;}
</style>
<path id="商品" class="st0" d="M305.3,29.2c0-0.6,0.5-1.1,1.1-1.1h4c0.6,0,1.1,0.5,1.1,1.1l0,0v1.1c0,0.6-0.4,1.1-1,1.1h-0.1h-4
	c-0.6,0-1.1-0.4-1.1-1v-0.1V29.2z M315.5,28.4c0-0.6,0-1.2,0-1.8c0-1.3-0.9-1.5-2-1.5s-2.1,0.1-3.1,0.1h-4c-1.1,0-2.1-0.1-3.2-0.1
	s-1.9,0.2-1.9,1.5c0,0.6,0,1.2,0,1.8v5c0,0.7,0,1.3,0,1.9c0,0.9,0.4,0.9,1.9,0.9c1.8,0,2,0,2-0.9c0-0.8,0.6-0.9,1.5-0.9h3.6
	c1.1,0,2.1,0,3.2,0c1,0,1.9-0.2,1.9-1.4c0-0.6,0-1.2,0-1.8L315.5,28.4L315.5,28.4z M319.5,18.5c-0.6-0.1-1.2-0.2-1.8-0.2
	c-0.5,0-0.6,0.2-0.7,0.7c-0.3,1.3-0.5,1.5-1.6,1.5h-1.1c-0.9,0-1.1-0.2-1.1-1.1V18c-0.1-0.5,0.2-1,0.8-1.1c0.1,0,0.3,0,0.4,0h5
	c0.4-0.1,0.7,0.2,0.8,0.5c0,0.1,0,0.2,0,0.3v0.4c0,0.3-0.1,0.5-0.4,0.5h-0.1L319.5,18.5L319.5,18.5z M313.9,9.7
	c-0.3,0.9-0.7,1.8-1.2,2.7c-0.3,0.6-1,1-1.6,0.9H305c-0.1,0-0.2-0.1-0.2-0.2c0-0.1,0-0.1,0-0.2v-0.1c-0.2-0.9-0.6-1.9-1.1-2.7
	c-0.1-0.2-0.2-0.3-0.2-0.4c-0.1-0.1-0.1-0.2-0.1-0.4c0-0.3,0.3-0.6,0.6-0.6c0,0,0,0,0.1,0h9.1c0.4,0,0.8,0.3,0.8,0.7l0,0
	C314,9.4,314,9.6,313.9,9.7L313.9,9.7z M320.1,31.7c0,1.2,0.1,2.3-1.1,2.3c-0.7,0-2-0.1-2.5-0.1c-0.7,0-0.7,0.4-0.7,1
	c0,3.3,1.5,3.2,2.6,3.2c4.3,0,5.8-0.9,5.8-4.3c0-1-0.1-2.1-0.1-3V18.6c0-1.1,0.1-2.3,0.1-3.4c0-1.6-0.7-1.9-2.2-1.9
	c-1.1,0-2.3,0.1-3.5,0.1h-0.8c-0.3,0-0.6-0.2-0.7-0.5l0,0c0-0.1,0-0.3,0.1-0.4l0.7-1.4c0.2-0.3,0.5-0.5,0.8-0.5
	c0.3-0.1,0.7-0.1,0.7-0.4c0-0.5-0.9-0.7-1.8-1c-0.1,0-0.1-0.1-0.1-0.2c0-0.1,0.1-0.2,0.2-0.2h3.2c1.6,0,3.2,0.1,4.8,0.1
	c1,0,1-0.3,1-1.8c0-1.4,0-1.9-0.9-1.9c-1.6,0-3.2,0.1-4.9,0.1h-8.9c-0.5,0.1-1-0.2-1.1-0.7c0-0.1,0-0.2,0-0.3
	c-0.1-0.5,0-1.1,0.5-1.4c0.2-0.1,0.4-0.3,0.5-0.5c0-0.3-0.5-0.4-0.8-0.4c-0.7,0-3.2-0.2-3.9-0.2c-0.3,0-0.8,0-0.8,0.5
	c0,0.1,0,0.2,0,0.3c0.1,0.6,0.1,1.2,0.1,1.8c0.1,0.5-0.3,1-0.8,1.1c-0.1,0-0.2,0-0.3,0h-8.9c-1.6,0-3.2-0.1-4.9-0.1
	c-1,0-0.9,0.4-0.9,1.9s0,1.8,1,1.8c1.6,0,3.2-0.1,4.8-0.1h3.7c0.1,0,0.1,0.1,0.1,0.1s0,0.1-0.1,0.1c-0.4,0.1-0.7,0.4-0.9,0.8
	c0.3,0.7,0.6,1.4,1,2.1c0.1,0.2,0.2,0.4,0.3,0.6c0.1,0.1,0.1,0.2,0.1,0.4c0,0.4-0.4,0.6-0.7,0.6h-1.5c-1.1,0-2.3-0.1-3.5-0.1
	c-1.4,0-2.2,0.4-2.2,1.9c0,1.1,0,2.3,0,3.5v13c0,1.7-0.1,3.4-0.1,5.2c0,1.2,0.4,1.3,2.2,1.3c1.8,0,2.1,0,2.1-1.2
	c0-1.7-0.1-3.5-0.1-5.2V17.9c-0.1-0.5,0.2-1,0.8-1.1c0.1,0,0.3,0,0.4,0h4.2c0.4-0.1,0.7,0.2,0.8,0.5v0.1c0,0.1,0,0.3-0.1,0.4
	c-1.1,2-2.8,3.6-4.8,4.7c-0.4,0.1-0.7,0.4-0.8,0.7c0,0.8,1.8,2.1,2.5,2.1c0.4-0.1,0.7-0.2,1-0.5c2.2-1.4,4-3.2,5.2-5.5
	c0.1-0.3,0.4-0.5,0.7-0.6c0.2,0,0.4-0.2,0.5-0.4c0-0.4-1.7-1-2.1-1.2c-0.1,0-0.1-0.1-0.1-0.2s0.1-0.2,0.2-0.2h2.9
	c0.5-0.1,1,0.2,1.1,0.8c0,0.1,0,0.3,0,0.4v1c0,0.7,0,1.5,0,2.2c0,2.5,1.7,2.5,4.6,2.5h1.6c1.1,0,3.2,0.1,4-0.9
	c0.1-0.1,0.2-0.1,0.3-0.1c0.2,0,0.3,0.1,0.3,0.3l0,0L320.1,31.7L320.1,31.7z M344.4,8.2c0-0.6,0.5-1.1,1.1-1.1h0.1h8.2
	c0.6,0,1.1,0.4,1.1,1v0.1v4.5c0,0.6-0.5,1.1-1.1,1.1h-8.2c-0.6,0-1.1-0.5-1.1-1.1V8.2H344.4z M353.3,17.5c0.3,0,1.3,0,1.4,0.4
	c0.2,0.6,0.3,0.6,2.3,0.6c1.5,0,2.1,0,2.1-1c0-0.9,0-1.9,0-2.9V8c0-0.9,0.1-1.9,0.1-2.8c0-1.5-0.9-1.7-2.1-1.7c-1.1,0-2.1,0-3.2,0
	h-8.6c-1.1,0-2.1,0-3.2,0c-1.3,0-2,0.3-2,1.7c0,0.9,0,1.9,0,2.8v6.6c0,1,0,1.9,0,2.9s0.6,1,2.1,1h0.5c0.6,0,1.5,0,1.6-0.4
	c0.2-0.5,0.5-0.6,1.6-0.6H353.3L353.3,17.5z M356.3,32.1c-0.6,0-1.1-0.5-1.1-1.1v-4.8c0-0.6,0.5-1.1,1.1-1.1h4.3
	c0.6,0,1.1,0.5,1.1,1.1v0.1v4.8c0,0.6-0.4,1.1-1,1.1h-0.1L356.3,32.1L356.3,32.1z M361.7,36.5c0,0.2,0,0.4,0,0.7
	c0,1,0.6,0.9,2.2,0.9c1.7,0,2.2,0,2.2-1c0-1.3-0.1-2.6-0.1-3.8V26c0-1,0-2.1,0-3.1c0-1.5-0.6-1.9-2-1.9c-1,0-2,0.1-3,0.1h-5.2
	c-1,0-2-0.1-3-0.1c-1.3,0-2,0.4-2,1.8c0,1.1,0.1,2.1,0.1,3.1v7.3c0,1.3-0.1,2.5-0.1,3.9c0,0.9,0.4,1,2.2,1c1.7,0,2.2,0,2.2-1v-0.7
	c-0.1-0.4,0.2-0.9,0.7-0.9c0.1,0,0.2,0,0.3,0h4.5c0.4-0.1,0.9,0.2,0.9,0.7C361.7,36.4,361.7,36.5,361.7,36.5z M338.5,32.1
	c-0.6,0-1.1-0.5-1.1-1.1v-4.8c0-0.6,0.5-1.1,1.1-1.1h4c0.6,0,1.1,0.5,1.1,1.1V31c0,0.6-0.5,1.1-1.1,1.1
	C342.5,32.1,338.5,32.1,338.5,32.1z M343.6,37.2c0,0.9,0.5,0.9,2.1,0.9c1.7,0,2.1,0,2.1-0.9c0-1.3-0.1-2.6-0.1-3.9V26
	c0-1,0-2.1,0-3.1c0-1.4-0.7-1.8-2-1.8c-1,0-2,0.1-3,0.1H338c-1,0-2-0.1-3-0.1c-1.3,0-2,0.4-2,1.9c0,1,0.1,2.1,0.1,3.1v7.3
	c0,1.3-0.1,2.5-0.1,3.8c0,1,0.5,1,2.2,1s2.2,0,2.2-0.9v-0.7c-0.1-0.4,0.3-0.9,0.7-0.9c0.1,0,0.2,0,0.2,0h4.2
	c0.4-0.1,0.9,0.2,0.9,0.6c0,0.1,0,0.2,0,0.3L343.6,37.2L343.6,37.2z"/>
<path id="LINE_UP" class="st0" d="M374.4,2.3V37h15.5v-5h-10.2V2.3H374.4L374.4,2.3z M394.9,2.3V37h5.3V2.3H394.9z M413.8,37V12.8
	L439,39.1V2.3h-5.3v24L408.5,0v37H413.8z M466.4,2.3h-19.1V37h19.1v-5h-13.8V21.1H466v-5h-13.4V7.3h13.8V2.3L466.4,2.3z M480.2,2.3
	v22.3c-0.1,3.3,1,6.5,3.2,9c5.2,5.3,13.7,5.4,19,0.3c0.1-0.1,0.2-0.2,0.3-0.3c2.2-2.5,3.3-5.7,3.2-9V2.3h-5.3v20.9
	c0.1,2.1-0.2,4.1-1.1,6c-2.2,3.6-6.9,4.7-10.4,2.5c-1-0.6-1.8-1.5-2.5-2.5c-0.9-1.9-1.2-3.9-1.1-6V2.3H480.2L480.2,2.3z M514.2,2.3
	V37h5.3V22.9h2.4c3.1,0.2,6.1-0.8,8.5-2.7c2.2-1.9,3.4-4.7,3.4-7.6c0.1-3.4-1.6-6.5-4.3-8.4c-2.3-1.4-4.9-2-7.6-1.9L514.2,2.3
	L514.2,2.3z M519.5,7.2h2.3c6,0,6.8,3.4,6.8,5.4c0,3.2-2.2,5.5-6.8,5.5h-2.4V7.2H519.5z"/>
<g class="st1">
	<path d="M5.3,21c-0.3,1.5-0.7,3.2-1.3,4.4c0.3,0.2,0.6,0.4,1,0.7c1.2,0.7,2.8,0.8,4.8,0.8c2,0,5-0.2,6.9-0.4
		c-0.2,0.5-0.6,1.5-0.6,2.1c-1.4,0.1-4.4,0.2-6.4,0.2c-2.3,0-3.7-0.2-4.9-0.9c-0.7-0.4-1.3-1-1.7-1c-0.4,0-1,1.2-1.4,2.1l-1.3-1.9
		c0.7-0.8,1.3-1.4,2-1.7c0.4-0.8,0.6-1.9,0.9-2.8H1c0.4-1,0.9-2.4,1.3-3.7H0.7V17h4c-0.4,1.2-0.8,2.6-1.2,3.7h0.7l0.3-0.1L5.3,21z
		 M2.7,16.5c-0.2-0.8-0.8-2-1.1-2.9L3.3,13c0.4,0.9,0.9,2.1,1.2,2.8L2.7,16.5z M7.6,15.8H5.3v-1.6h4.3c-0.2-0.3-0.3-0.6-0.5-0.8
		l1.6-0.6c0.3,0.4,0.7,0.9,0.9,1.4h4.6v1.6h-2c-0.2,0.4-0.4,0.8-0.6,1.2h2.3v7.2c0,0.8-0.1,1.3-0.7,1.6c-0.5,0.3-1.3,0.3-2.3,0.3
		c-0.1-0.4-0.2-0.9-0.4-1.3H9.8v0.5H8.5v-3.7H10v-1H8v-1.2h2v-0.9H7.6V26H5.8v-9h2c-0.1-0.4-0.3-0.8-0.4-1.1L7.6,15.8z M11.8,17
		c0.2-0.4,0.3-0.8,0.4-1.2h-3c0.2,0.4,0.4,0.9,0.4,1.2H11.8z M11.7,22.7H9.8v0.9h1.8V22.7z M14,18.5h-2.5v0.9h2v1.2h-2v1h1.6v2.9
		c0.3,0,0.6,0,0.7,0c0.2,0,0.3-0.1,0.3-0.3V18.5z"/>
	<path d="M30.5,13.9c-0.2,0.3-0.4,0.5-0.6,0.7c2.2,2,4.4,3.2,6.7,4c-0.5,0.5-1.1,1.2-1.4,1.9c-0.8-0.4-1.6-0.8-2.4-1.3v1.1h-8.5
		v-0.8c-0.7,0.5-1.5,0.9-2.3,1.2c-0.3-0.6-0.9-1.3-1.5-1.9c3.1-1.2,6.3-3.3,8.1-5.9L30.5,13.9z M23.2,21.8h11v7H32v-0.7h-6.7v0.7
		h-2.1V21.8z M25.3,23.6v2.7H32v-2.7H25.3z M31.7,18.5c-1-0.7-2-1.4-3-2.4c-0.9,0.9-1.8,1.7-2.8,2.4H31.7z"/>
	<path d="M46.1,13.7c-0.4,1.2-1,2.4-1.6,3.5v11.7h-1.9v-8.7c-0.4,0.5-0.8,1-1.1,1.4c-0.2-0.5-0.7-1.6-1.1-2.1c1.5-1.5,3-3.9,3.9-6.4
		L46.1,13.7z M52.1,18v8.7c0,1-0.2,1.5-0.8,1.9c-0.6,0.3-1.4,0.4-2.5,0.4c-0.1-0.6-0.4-1.5-0.7-2c0.7,0,1.4,0,1.7,0
		c0.2,0,0.3-0.1,0.3-0.3V18h-2c-0.5,1-1,1.9-1.6,2.6c-0.4-0.4-1.2-1-1.6-1.3c1.3-1.4,2.3-3.8,2.9-6.1l2,0.4
		c-0.2,0.9-0.5,1.7-0.8,2.5h5.8l0.3-0.1l1.4,0.3c-0.2,1.4-0.5,3-0.7,3.9L54.1,20c0.1-0.5,0.2-1.2,0.3-2H52.1z M49.3,21
		c-0.5,2.2-1.4,4.3-2.3,5.7c-0.4-0.3-1.2-0.8-1.7-1.1c1-1.2,1.7-3.1,2.1-5L49.3,21z M54.5,20.5c0.9,1.8,1.6,4,1.9,5.5l-1.9,0.7
		c-0.2-1.5-0.9-3.8-1.7-5.6L54.5,20.5z"/>
	<path d="M76.2,15.7c0,0,0,0.7,0,0.9c-0.2,7.6-0.4,10.3-1.1,11.2c-0.5,0.6-1,0.8-1.6,0.9c-0.6,0.1-1.7,0.1-2.7,0
		c0-0.6-0.3-1.4-0.7-2c1.1,0.1,2.1,0.1,2.5,0.1c0.3,0,0.5-0.1,0.7-0.3c0.5-0.5,0.7-3.1,0.9-9.1h-3.6c-0.4,1-1,2-1.5,2.7
		c-0.3-0.3-0.9-0.6-1.3-1v7.9h-4.5v1.2h-1.8V15.8h1.9c0.2-0.8,0.4-1.9,0.5-2.7l2.2,0.3c-0.3,0.9-0.6,1.7-0.9,2.4h2.6v2.8
		c1-1.4,1.8-3.5,2.3-5.5l1.9,0.4c-0.2,0.7-0.4,1.4-0.7,2.2H76.2z M66,17.6h-2.7v2.8H66V17.6z M66,25.4v-3.3h-2.7v3.3H66z M71.7,24.5
		c-0.5-1-1.5-2.7-2.4-3.9l1.6-0.9c0.9,1.2,2,2.8,2.5,3.8L71.7,24.5z"/>
	<path d="M81,25.9l1.4-1.7c0.9,0.8,2.1,1.4,3.2,1.4c1.3,0,2-0.6,2-1.4c0-0.9-0.8-1.2-1.9-1.7L84,21.7c-1.3-0.5-2.5-1.5-2.5-3.4
		c0-2.1,1.8-3.6,4.4-3.6c1.5,0,2.9,0.6,3.9,1.6l-1.3,1.6c-0.8-0.7-1.6-1-2.7-1c-1.1,0-1.8,0.5-1.8,1.3c0,0.9,0.9,1.2,2,1.6l1.6,0.7
		c1.5,0.6,2.5,1.6,2.5,3.4c0,2.1-1.7,3.8-4.6,3.8C83.9,27.7,82.2,27,81,25.9z"/>
	<path d="M95.4,21.8v-6.9h2.5V22c0,2.6,0.9,3.5,2.4,3.5c1.5,0,2.4-0.9,2.4-3.5v-7.1h2.4v6.9c0,4.2-1.8,5.9-4.9,5.9
		C97.2,27.7,95.4,26,95.4,21.8z"/>
	<path d="M111.2,14.9h2.6l3.7,6.7l1.3,2.7h0.1c-0.1-1.3-0.3-3-0.3-4.4v-5h2.4v12.6h-2.5l-3.6-6.7l-1.3-2.7h-0.1
		c0.1,1.4,0.3,2.9,0.3,4.4v5h-2.4V14.9z"/>
	<path d="M126.4,21.2c0-4.1,2.7-6.6,5.8-6.6c1.6,0,2.9,0.8,3.7,1.6l-1.3,1.6c-0.6-0.6-1.4-1.1-2.3-1.1c-1.9,0-3.3,1.6-3.3,4.3
		c0,2.7,1.3,4.4,3.3,4.4c1.1,0,1.9-0.5,2.6-1.2l1.3,1.6c-1,1.2-2.4,1.9-4,1.9C129,27.7,126.4,25.4,126.4,21.2z"/>
	<path d="M140.9,21.8v-6.9h2.5V22c0,2.6,0.9,3.5,2.4,3.5c1.5,0,2.4-0.9,2.4-3.5v-7.1h2.4v6.9c0,4.2-1.8,5.9-4.9,5.9
		C142.7,27.7,140.9,26,140.9,21.8z"/>
	<path d="M159.2,17h-3.5v-2.1h9.6V17h-3.6v10.5h-2.5V17z"/>
	<path d="M178.5,26.7c0.4,0,0.9,0.1,1.4,0.1c1,0,4.2,0,5.4-0.1c-0.3,0.5-0.6,1.3-0.7,1.9h-4.8c-3.1,0-5.2-0.4-6.6-2.4
		c-0.6,1.1-1.4,2-2.4,2.7c-0.3-0.4-1.1-1.1-1.5-1.4c1.7-1.1,2.8-2.9,3.2-5.2l2,0.3c-0.1,0.5-0.3,1.1-0.4,1.5
		c0.5,1.2,1.4,1.8,2.4,2.1v-4.3h-6.6v-1.8h15v1.8h-6.3v1.3h5.2v1.8h-5.2V26.7z M183.2,19.5h-11.8v-5.9h11.8V19.5z M181.2,15h-7.8
		v0.9h7.8V15z M181.2,17.2h-7.8v0.9h7.8V17.2z"/>
	<path d="M191.5,24.5v1.6H190V14.6h4v9.9H191.5z M191.5,16.4v6.3h1v-6.3H191.5z M199.7,13.8c0,0,0,0.7,0,0.9
		c-0.1,9.4-0.1,12.5-0.5,13.3c-0.3,0.5-0.6,0.7-1.1,0.8c-0.4,0.1-1,0.1-1.6,0.1c0-0.5-0.2-1.3-0.4-1.8c0.4,0,0.8,0,1.1,0
		c0.2,0,0.3-0.1,0.5-0.4c0.2-0.3,0.2-1.2,0.3-3.3h-1.2c-0.4,2-1,4-2.4,5.5c-0.2-0.3-0.9-1-1.2-1.2c1.1-1.2,1.6-2.8,2-4.3h-0.8v-1.7
		h1c0.1-0.8,0.1-1.6,0.1-2.3h-1.1v-1.7h1.1v-2.2h-1.1v-1.7H199.7z M198,21.8c0-0.7,0-1.5,0-2.3h-0.9c0,0.7,0,1.5-0.1,2.3H198z
		 M197.1,17.8h0.9l0-2.2h-0.9V17.8z M205.2,14.5c-0.4,1.7-0.9,4-1.3,5.4c0.9,1.5,1,2.8,1,4c0,1.2-0.2,1.9-0.7,2.3
		c-0.2,0.2-0.5,0.3-0.9,0.4c-0.2,0-0.5,0.1-0.9,0.1c0-0.5-0.1-1.2-0.4-1.7h0.5c0.1,0,0.3-0.1,0.4-0.2c0.2-0.2,0.2-0.6,0.2-1.2
		c0-1-0.1-2.2-0.9-3.5c0.3-1.3,0.6-3.2,0.9-4.6H202V29h-1.6V13.8h3.4l0.2-0.1L205.2,14.5z"/>
	<path d="M225.3,19.7v2.2h-15.6v-2.2H225.3z"/>
	<path d="M234.6,13.7c-0.4,1.1-0.8,2.2-1.3,3.2V29h-1.9v-8.7c-0.4,0.5-0.7,1-1.1,1.5c-0.2-0.5-0.6-1.7-1-2.2c1.4-1.5,2.7-4,3.5-6.4
		L234.6,13.7z M245,13.9v14.8H243v-0.8h-6.4v1h-1.8v-15H245z M243,26.2V15.7h-6.4v10.5H243z M240.6,19.2v1.5h1.6v4.6h-4.7v-4.6h1.5
		v-1.5h-2v-1.5h2V16h1.6v1.7h2.1v1.5H240.6z M240.7,22.1H239v1.8h1.7V22.1z"/>
	<path d="M251.9,24.7V26h-1.8V14.5h5v10.1H251.9z M251.9,16.5v6.2h1.4v-6.2H251.9z M258.1,19v0.6c0,2.8-0.3,6.7-2.3,9.1
		c-0.3-0.3-1.2-0.8-1.6-1.1c1.9-2.2,2.1-5.5,2.1-8.1v-5.9h8.7V19H258.1z M258.1,15.6v1.5h4.9v-1.5H258.1z M263.2,26.8
		c0.5,0,0.6-0.3,0.7-2.1c0.4,0.3,1.2,0.6,1.7,0.8c-0.2,2.4-0.7,3.1-2.3,3.1h-2.2c-1.8,0-2.3-0.6-2.3-2.5v-6.4h1.9v2h4.5v1.6h-4.5V26
		c0,0.6,0.1,0.7,0.7,0.7H263.2z"/>
	<path d="M276.9,18.2c0-1-0.8-1.6-2.1-1.6c-1.1,0-1.9,0.5-2.7,1.3l-1.4-1.3c1.1-1.3,2.6-2.1,4.4-2.1c2.5,0,4.3,1.1,4.3,3.4
		c0,2.5-3.7,2.8-3.5,5.2h-2.2C273.3,20.4,276.9,19.8,276.9,18.2z M274.8,24.3c1,0,1.8,0.7,1.8,1.7c0,1-0.7,1.7-1.8,1.7
		s-1.8-0.7-1.8-1.7C273,24.9,273.8,24.3,274.8,24.3z"/>
</g>
<text transform="matrix(1 0 0 1 4.882812e-04 -32.1658)" style="font-family:'NotoSansTC-Bold-90ms-RKSJ-H'; font-size:17px; letter-spacing:3;">適合你的SUNCUT是哪一個呢？</text>
</svg>
