<svg id="lead-product.svg" xmlns="http://www.w3.org/2000/svg" width="374.464" height="49.625" viewBox="0 0 374.464 49.625">
  <defs>
    <style>
      .cls-1 {
        fill: #1147b4;
      }

      .cls-1, .cls-2 {
        fill-rule: evenodd;
      }
    </style>
  </defs>
  <path id="炎天下でも活動する方に_新開発_高密着のタフネスガード技術の最強_1_" data-name="炎天下でも活動する方に 新開発！高密着のタフネスガード技術の最強※1ＵＶ" class="cls-1" d="M779.691,169.3v7.333c0,1.959-.042,2.771-0.042,2.876,0,0.229.021,0.25,0.23,0.25h1.712c0.188,0,.209-0.021.209-0.25,0-.105-0.042-0.917-0.042-2.876V169.3c1.441,0.021,2,.042,2.11.042,0.208,0,.229-0.021.229-0.23V167.59c0-.208-0.021-0.229-0.229-0.229-0.126,0-.815.042-2.841,0.042h-3.571v-2.542a22.9,22.9,0,0,0,4.866-1.708,2.331,2.331,0,0,1,.815-0.251,0.3,0.3,0,0,0,.313-0.249,0.668,0.668,0,0,0-.146-0.4,8.359,8.359,0,0,0-1.358-1.479,5.748,5.748,0,0,1-1.107.77,14.94,14.94,0,0,1-3.613,1.438,10.35,10.35,0,0,0-1.921-.5c0.1,1.229.125,2.333,0.125,3.563v2.271a26.9,26.9,0,0,1-.418,6,9.592,9.592,0,0,1-2.151,4.229,4.793,4.793,0,0,1,1.358.833,1.016,1.016,0,0,0,.459.292,0.726,0.726,0,0,0,.439-0.4,11.319,11.319,0,0,0,1.8-3.958,27.068,27.068,0,0,0,.543-6.021h2.235Zm-10.8.1c0.021,0.312.021,0.667,0.021,1.146v0.375h-1.086c-1.8,0-2.4-.042-2.527-0.042-0.209,0-.23.021-0.23,0.229v1.48c0,0.208.021,0.229,0.23,0.229,0.125,0,.731-0.042,2.527-0.042h0.522a12.794,12.794,0,0,1-3.7,3.709,5.878,5.878,0,0,1,.814,1.4,0.483,0.483,0,0,0,.334.416,0.889,0.889,0,0,0,.439-0.292,16.47,16.47,0,0,0,2.715-3.375c-0.021,2.6-.084,4.125-0.084,4.813,0,0.208.021,0.229,0.23,0.229h1.65c0.23,0,.251-0.021.251-0.229,0-.729-0.084-2.375-0.105-5.271a10.286,10.286,0,0,0,1.859,2.167,0.826,0.826,0,0,0,.438.291,0.406,0.406,0,0,0,.251-0.333,5.991,5.991,0,0,1,.731-1.333,9.777,9.777,0,0,1-2.673-2.188h0.146c1.775,0,2.381.042,2.506,0.042,0.209,0,.23-0.021.23-0.229v-1.48c0-.208-0.021-0.229-0.23-0.229-0.125,0-.731.042-2.506,0.042h-0.71v-0.375a5.932,5.932,0,0,1,.042-1.146h0.96c1.817,0,2.444.041,2.569,0.041,0.209,0,.23-0.02.23-0.229v-1.5c0-.208-0.021-0.229-0.23-0.229s-0.814.042-2.255,0.042c0.25-.479.417-0.854,0.647-1.375a1.125,1.125,0,0,1,.313-0.479,0.368,0.368,0,0,0,.167-0.313,0.267,0.267,0,0,0-.25-0.291c-0.606-.147-1.128-0.313-1.817-0.438a3.253,3.253,0,0,1-.146.916,13.093,13.093,0,0,1-.794,1.98h-2.694c-1.838,0-2.444-.042-2.569-0.042-0.188,0-.209.021-0.209,0.229v1.5c0,0.209.021,0.229,0.209,0.229,0.125,0,.731-0.041,2.569-0.041h1.211Zm2.82-5c1.733,0,2.318.041,2.443,0.041,0.23,0,.251-0.02.251-0.229v-1.437c0-.209-0.021-0.23-0.251-0.23-0.125,0-.71.042-2.443,0.042H771v-0.541a1.431,1.431,0,0,1,.1-0.751,0.8,0.8,0,0,0,.125-0.354c0-.1-0.125-0.166-0.334-0.187-0.752-.063-1.42-0.084-2.172-0.105a5.89,5.89,0,0,1,.125,1.376v0.562h-0.814c-1.733,0-2.339-.042-2.464-0.042-0.209,0-.23.021-0.23,0.23v1.437c0,0.209.021,0.229,0.23,0.229,0.125,0,.731-0.041,2.464-0.041h3.676Zm-2.8,2.646c0.23-.063.272-0.125,0.209-0.334a9.131,9.131,0,0,0-.773-1.875c-0.083-.166-0.125-0.208-0.376-0.146l-1.065.313c-0.292.063-.313,0.125-0.188,0.354a8.52,8.52,0,0,1,.585,1.833c0.063,0.23.146,0.25,0.418,0.167Zm37.158-2.792c0-1.833.042-2.709,0.042-2.854,0-.209-0.021-0.23-0.23-0.23-0.125,0-.689.042-2.318,0.042H800.5c-1.629,0-2.172-.042-2.3-0.042-0.23,0-.251.021-0.251,0.23,0,0.145.042,0.625,0.042,1.833v2.792c0,1.229-.042,1.687-0.042,1.812,0,0.209.021,0.23,0.251,0.23,0.125,0,.668-0.042,2.3-0.042h3.425v8.584c0,0.625-.167.812-0.856,0.812a10.453,10.453,0,0,1-1.525-.1,5.239,5.239,0,0,1,.481,1.521c0.1,0.646.125,0.646,0.772,0.646,1.671,0,2.277-.146,2.757-0.563a2.2,2.2,0,0,0,.606-1.917c0-1.021-.084-2.354-0.084-3.812v-8.938Zm-2.151,2.291h-3.884V165.34h3.884v1.208Zm0-3.791v1.187h-3.884v-1.187h3.884Zm-12.635-1.542c-1.546,0-2.339-.042-2.485-0.042-0.209,0-.23.021-0.23,0.23,0,0.145.042,1.625,0.042,4.541v9.042c0,2.917-.042,4.355-0.042,4.5,0,0.208.021,0.229,0.23,0.229h1.775c0.209,0,.229-0.021.229-0.229,0-.146-0.041-1.584-0.041-4.5v-6.958h3.425c1.378,0,1.984.042,2.109,0.042,0.188,0,.209-0.021.209-0.23,0-.125-0.042-0.708-0.042-1.979V163.4c0-1.271.042-1.855,0.042-2,0-.209-0.021-0.23-0.209-0.23-0.125,0-.731.042-2.109,0.042h-2.9Zm3.133,5.333h-3.655V165.34h3.655v1.208Zm0-3.791v1.187h-3.655v-1.187h3.655Zm3.926,11.875v1.938c0,1.437-.042,2.125-0.042,2.25,0,0.229.021,0.25,0.23,0.25h1.545c0.209,0,.23-0.021.23-0.25,0-.125-0.042-0.813-0.042-2.25v-1.938c1.65,0,2.277.042,2.381,0.042,0.209,0,.23-0.021.23-0.25v-1.25c0-.208-0.021-0.229-0.23-0.229-0.1,0-.731.041-2.381,0.041v-1.9c1.3,0.021,1.817.042,1.922,0.042,0.209,0,.229-0.021.229-0.229v-1.271c0-.208-0.02-0.229-0.229-0.229-0.126,0-.752.041-2.611,0.041h-4.469c-1.859,0-2.486-.041-2.611-0.041-0.23,0-.25.021-0.25,0.229V170.9c0,0.208.02,0.229,0.25,0.229,0.105,0,.585-0.021,1.838-0.042,0,0.73-.021,1.375-0.042,1.9-1.671,0-2.276-.041-2.381-0.041-0.208,0-.229.021-0.229,0.229v1.25c0,0.229.021,0.25,0.229,0.25,0.105,0,.69-0.021,2.277-0.042l-0.042.375a4.86,4.86,0,0,1-2.235,3.063,5.554,5.554,0,0,1,1.233.875,0.457,0.457,0,0,0,.877.083,6.792,6.792,0,0,0,1.984-3.5c0.062-.271.1-0.562,0.146-0.9h2.193Zm-2.068-1.646c0.021-.541.042-1.187,0.042-1.9h2.026v1.9h-2.068Zm27.134,0.771h2.109c2,0,2.673.042,2.82,0.042,0.209,0,.229-0.021.229-0.229v-1.5c0-.209-0.02-0.23-0.229-0.23-0.147,0-.815.042-2.82,0.042h-2.109v-2.229c0.961,0.021,1.357.042,1.462,0.042,0.209,0,.229-0.021.229-0.23v-0.979a22.006,22.006,0,0,0,3.217,1.667,1.281,1.281,0,0,0,.48.146c0.167,0,.23-0.146.4-0.542a5.828,5.828,0,0,1,.752-1.313,20.045,20.045,0,0,1-3.4-1.416c0.605-.521,1.148-1.021,1.608-1.48a1.916,1.916,0,0,1,.731-0.562,0.348,0.348,0,0,0,.271-0.292,0.426,0.426,0,0,0-.25-0.354c-0.481-.312-1.024-0.625-1.629-0.958a5.127,5.127,0,0,1-.585.9,17.765,17.765,0,0,1-1.775,1.729c-0.4-.292-0.773-0.625-1.149-0.958a18.773,18.773,0,0,0,1.441-1.375,2.056,2.056,0,0,1,.71-0.563,0.362,0.362,0,0,0,.272-0.312,0.392,0.392,0,0,0-.23-0.334,15.5,15.5,0,0,0-1.608-.958,5.3,5.3,0,0,1-.585.875,10.388,10.388,0,0,1-1.253,1.333,5.04,5.04,0,0,1-.293-0.417,6.433,6.433,0,0,1-.96-1.791,0.308,0.308,0,0,0-.355-0.25c-0.147,0-.731.041-1.9,0.041h-2.882c-1.566,0-2.068-.041-2.193-0.041-0.23,0-.25.02-0.25,0.229v1.437c0,0.209.02,0.23,0.25,0.23,0.125,0,.627-0.042,2.193-0.042h2.339a12.449,12.449,0,0,1-2.339,2.479,27.424,27.424,0,0,0-2.276-2.1c-0.188-.146-0.23-0.1-0.418.042l-1.044.833a0.389,0.389,0,0,0-.167.187,0.34,0.34,0,0,0,.167.209,17.278,17.278,0,0,1,2.109,2.021,23.073,23.073,0,0,1-3.864,1.917,4.579,4.579,0,0,1,.857,1.145,0.709,0.709,0,0,0,.438.542,1.422,1.422,0,0,0,.481-0.167,27.7,27.7,0,0,0,2.8-1.541v0.791c0,0.209.021,0.23,0.251,0.23,0.083,0,.459-0.021,1.357-0.042v0.708c0,0.563-.021,1.063-0.042,1.521H814.89c-1.984,0-2.673-.042-2.8-0.042-0.229,0-.25.021-0.25,0.23v1.5c0,0.208.021,0.229,0.25,0.229,0.126,0,.815-0.042,2.8-0.042h1.566c-0.605,2.146-2.109,3.126-5.367,3.98a4.775,4.775,0,0,1,1.065,1.354,0.71,0.71,0,0,0,.459.521,1.794,1.794,0,0,0,.46-0.146c3.446-1.25,5.054-2.813,5.639-5.709h2.569V177.2c0,1.042.125,1.4,0.647,1.75,0.543,0.375,1.525.458,3.237,0.458a5.77,5.77,0,0,0,3.008-.52c0.626-.4.9-1.021,1.106-2.5,0.084-.541.042-0.562-0.522-0.708a4.554,4.554,0,0,1-1.42-.583c-0.083,1.354-.25,1.833-0.522,2.083a2.529,2.529,0,0,1-1.65.334,2.855,2.855,0,0,1-1.524-.209,0.824,0.824,0,0,1-.23-0.729v-2.813Zm-7-5.938a15.537,15.537,0,0,0,3.927-4.187,14.2,14.2,0,0,0,3.78,4.187h-7.707Zm2.527,4.063c0.021-.479.042-0.979,0.042-1.521v-0.708h2.3v2.229h-2.34Zm19.813-9.292H835.5l0.585,12.4h2.11Zm-3.132,14.417v2.813h2.965v-2.813h-2.965Z" transform="translate(-764.656 -131.75)"/>
  <path id="炎天下でも活動する方に_新開発_高密着のタフネスガード技術の最強_1_2" data-name="炎天下でも活動する方に 新開発！高密着のタフネスガード技術の最強※1ＵＶ" class="cls-2" d="M772.705,139.834a4.325,4.325,0,0,1,.128-0.719,0.908,0.908,0,0,0,.112-0.352c0-.112-0.064-0.159-0.272-0.207-0.529-.08-1.057-0.128-1.634-0.176a7.053,7.053,0,0,1-.016,1.422,5.121,5.121,0,0,1-1.41,3.036,8.273,8.273,0,0,1-4.933,1.917,3.68,3.68,0,0,1,.609,1.1c0.128,0.335.16,0.431,0.336,0.431a1.68,1.68,0,0,0,.337-0.048,9.319,9.319,0,0,0,4.709-2.205,5.493,5.493,0,0,0,1.313-2.029,6.292,6.292,0,0,0,2.146,2.589,9.722,9.722,0,0,0,3.892,1.613,2.441,2.441,0,0,0,.353.064c0.16,0,.208-0.112.32-0.447a6.49,6.49,0,0,1,.593-1.214,10.278,10.278,0,0,1-4.421-1.439,5.3,5.3,0,0,1-2.194-3.179Zm6.262-1.6a10.443,10.443,0,0,1-4.116-1.55,5.592,5.592,0,0,1-2.178-3.195,5.7,5.7,0,0,1,.176-1.007,0.73,0.73,0,0,0,.128-0.336,0.255,0.255,0,0,0-.272-0.207,14.244,14.244,0,0,0-1.682-.176,11.6,11.6,0,0,1,.016,1.486,4.511,4.511,0,0,1-1.313,3.116,8.685,8.685,0,0,1-4.773,2,2.9,2.9,0,0,1,.64,1.071c0.176,0.463.176,0.463,0.673,0.367a10.435,10.435,0,0,0,4.517-2.285,5.214,5.214,0,0,0,1.281-1.981,6.392,6.392,0,0,0,2.05,2.54,10.251,10.251,0,0,0,3.588,1.662c0.481,0.112.513,0.112,0.673-.351A4.557,4.557,0,0,1,778.967,138.236ZM774,135.248a5.2,5.2,0,0,1,1.025.528,0.78,0.78,0,0,0,.4.207,0.693,0.693,0,0,0,.4-0.255,13.176,13.176,0,0,0,1.49-1.5,1.533,1.533,0,0,1,.336-0.368,0.277,0.277,0,0,0,.176-0.239c0-.08-0.048-0.128-0.288-0.24a10,10,0,0,0-1.394-.5,3.208,3.208,0,0,1-.368.655A7.56,7.56,0,0,1,774,135.248Zm-5.894,4.57c-0.176-.064-0.208-0.064-0.272.08a6.855,6.855,0,0,1-1.538,2.285c-0.1.1-.08,0.16,0.112,0.272L767.355,143c0.176,0.079.256,0.128,0.369,0a9.442,9.442,0,0,0,1.569-2.541c0.08-.16.08-0.208-0.112-0.271Zm0.064-6.727c-0.224-.08-0.24-0.064-0.3.1a7.736,7.736,0,0,1-1.57,2.3c-0.112.112-.112,0.176,0.1,0.288l0.945,0.511c0.192,0.1.24,0.1,0.352-.032a9.578,9.578,0,0,0,1.634-2.556c0.064-.16.032-0.193-0.144-0.256Zm5.686,8.788a4.851,4.851,0,0,1,1.041.511,1.126,1.126,0,0,0,.385.208,0.725,0.725,0,0,0,.384-0.272,15.506,15.506,0,0,0,1.249-1.293,1.6,1.6,0,0,1,.321-0.336,0.262,0.262,0,0,0,.16-0.24c0-.08-0.048-0.144-0.305-0.24a10.292,10.292,0,0,0-1.393-.463,4.6,4.6,0,0,1-.369.655A6.039,6.039,0,0,1,773.858,141.879Zm14.3-2.908a6.548,6.548,0,0,1-.256.847c-0.721,2.077-2.8,3.8-5.75,4.761a3.76,3.76,0,0,1,.9,1.055,0.544,0.544,0,0,0,.352.4,1.12,1.12,0,0,0,.369-0.129c2.9-1.213,4.821-3.051,5.638-5.368,0.048-.112.08-0.24,0.128-0.368a10.81,10.81,0,0,0,5.942,5.673,1.462,1.462,0,0,0,.368.112c0.128,0,.193-0.1.321-0.384a4.628,4.628,0,0,1,.833-1.2,10.273,10.273,0,0,1-6.423-5.4h2.883c1.537,0,2.05.032,2.146,0.032,0.176,0,.192-0.016.192-0.176v-1.31c0-.16-0.016-0.176-0.192-0.176-0.1,0-.609.033-2.146,0.033h-3.284a25.1,25.1,0,0,0,.193-2.8h3.844c1.457,0,1.97.032,2.066,0.032,0.16,0,.176-0.016.176-0.192v-1.278c0-.175-0.016-0.191-0.176-0.191-0.1,0-.609.031-2.066,0.031h-9.242c-1.458,0-1.97-.031-2.066-0.031-0.16,0-.176.016-0.176,0.191v1.278c0,0.176.016,0.192,0.176,0.192,0.1,0,.608-0.032,2.066-0.032h3.62c-0.016,1.007-.048,1.95-0.144,2.8H785.7c-1.554,0-2.067-.033-2.163-0.033-0.16,0-.176.016-0.176,0.176v1.31c0,0.16.016,0.176,0.176,0.176,0.1,0,.609-0.032,2.163-0.032h2.45Zm17.867-4.554v9.491c0,1.422-.032,2.062-0.032,2.173,0,0.16.016,0.176,0.193,0.176h1.473c0.176,0,.192-0.016.192-0.176,0-.1-0.032-0.751-0.032-2.173V138.3a29.559,29.559,0,0,1,3.956,2.333c0.145,0.1.193,0.08,0.321-.112l0.753-1.07a0.5,0.5,0,0,0,.08-0.176,0.2,0.2,0,0,0-.129-0.16,27.405,27.405,0,0,0-4.981-2.572v-2.126h4.293c1.441,0,1.922.033,2.018,0.033,0.16,0,.176-0.017.176-0.176v-1.343c0-.159-0.016-0.175-0.176-0.175-0.1,0-.577.032-2.018,0.032h-9.755c-1.425,0-1.922-.032-2.018-0.032-0.16,0-.176.016-0.176,0.175v1.343c0,0.159.016,0.176,0.176,0.176,0.1,0,.593-0.033,2.018-0.033h3.668Zm19.292,1.119c-1.938,1.262-3.075,2.8-3.075,5.065,0,3.323,3.091,4.937,5.91,4.937,0.192,0,.257-0.095.3-0.335a5.683,5.683,0,0,0,.176-1.375c0-.175-0.1-0.239-0.353-0.239-2.787-.176-4.26-1.294-4.26-3.356,0-1.917,1.361-3.786,4.084-4.713a7.153,7.153,0,0,1,1.954-.352c0.208,0,.3-0.047.3-0.239a9.093,9.093,0,0,0-.177-1.406c-0.016-.112-0.1-0.208-0.336-0.176-4.132.543-7.656,1.07-9.626,1.358a22.112,22.112,0,0,1-2.547.272,11.085,11.085,0,0,0,.593,1.725,0.374,0.374,0,0,0,.3.24,0.934,0.934,0,0,0,.352-0.128c0.241-.08.4-0.112,1.01-0.256,1.713-.351,3.427-0.686,5.381-1.054v0.032Zm2.323,2.285a7.926,7.926,0,0,1,1.617,1.853,0.168,0.168,0,0,0,.273.048l0.672-.5a0.16,0.16,0,0,0,.048-0.256,7.374,7.374,0,0,0-1.521-1.71,0.164,0.164,0,0,0-.24-0.031Zm1.473-1.055a7.529,7.529,0,0,1,1.6,1.838,0.164,0.164,0,0,0,.272.047l0.641-.5a0.184,0.184,0,0,0,.048-0.287,6.647,6.647,0,0,0-1.522-1.646,0.163,0.163,0,0,0-.24-0.032Zm10.114,4.171c0.817,0.016,1.649.016,2.45-.048,0.16,0,.209-0.065.225-0.256a10.764,10.764,0,0,0,.08-1.2c0-.144-0.048-0.208-0.257-0.176-0.768.048-1.425,0.064-2.274,0.048,0.1-.64.256-1.726,0.352-2.285a15.819,15.819,0,0,0,2.131-.08c0.192-.016.256-0.064,0.256-0.24a7.445,7.445,0,0,0,.032-1.2,0.161,0.161,0,0,0-.16-0.192,9.142,9.142,0,0,1-1.97.1c0.08-.591.176-1.134,0.256-1.5a1.569,1.569,0,0,1,.288-0.687,0.468,0.468,0,0,0,.128-0.3,0.449,0.449,0,0,0-.352-0.367,9.529,9.529,0,0,0-1.922-.447,7.5,7.5,0,0,1,.016,1.342c-0.032.479-.08,0.911-0.208,1.837a13.027,13.027,0,0,1-2.9-.607c0,0.575.032,1.1,0.048,1.486a0.262,0.262,0,0,0,.256.272,11.294,11.294,0,0,0,2.306.447c-0.064.655-.192,1.694-0.272,2.285a10.063,10.063,0,0,1-2.6-.623,9.222,9.222,0,0,0,.032,1.486,0.274,0.274,0,0,0,.177.3,12.612,12.612,0,0,0,2.178.48c-0.064.719-.112,1.166-0.112,1.5,0,2.332,1.2,3.611,4.036,3.611,2.755,0,4.613-1.47,4.613-3.739a4.16,4.16,0,0,0-1.362-3,0.366,0.366,0,0,0-.336-0.064,5.116,5.116,0,0,1-1.634.1c1.218,1.278,1.442,2.013,1.442,2.908,0,1.438-1.041,2.157-2.915,2.157-1.49,0-2.13-.575-2.13-2.045A9.822,9.822,0,0,1,839.222,140.937Zm18.842-2.781v2.061h-0.977c-1.458,0-1.986-.031-2.082-0.031-0.176,0-.192.016-0.192,0.175,0,0.112.032,0.559,0.032,1.822v1.262c0,2.221-.032,2.636-0.032,2.748,0,0.144.016,0.16,0.192,0.16h1.313c0.16,0,.176-0.016.176-0.16V145.57h5v0.544c0,0.143.016,0.159,0.176,0.159h1.361c0.16,0,.177-0.016.177-0.159,0-.1-0.033-0.512-0.033-2.717v-1.438c0-1.055.033-1.5,0.033-1.6,0-.159-0.017-0.175-0.177-0.175-0.112,0-.608.031-2.082,0.031h-1.153v-2.061h2.1c1.57,0,2.114.032,2.21,0.032,0.145,0,.161-0.016.161-0.176V136.75c0-.144-0.016-0.16-0.161-0.16-0.1,0-.64.033-2.21,0.033h-2.1v-2.4a22.164,22.164,0,0,0,2.611-.656,3.22,3.22,0,0,1,.865-0.175,0.214,0.214,0,0,0,.224-0.208,0.449,0.449,0,0,0-.144-0.319,9.257,9.257,0,0,0-1.057-1.023,4.857,4.857,0,0,1-1.042.447,33.719,33.719,0,0,1-7.063,1.135,3.913,3.913,0,0,1,.448,1.054c0.129,0.432.145,0.448,0.657,0.4,0.929-.1,1.858-0.208,2.771-0.352v2.094H856.19c-1.586,0-2.13-.033-2.226-0.033-0.16,0-.176.016-0.176,0.16v1.262c0,0.16.016,0.176,0.176,0.176,0.1,0,.64-0.032,2.226-0.032h1.874Zm-1.57,3.5h5v2.477h-5v-2.477Zm-6.615,3.532a9.063,9.063,0,0,0,1.234.878,0.661,0.661,0,0,0,.288.112,0.222,0.222,0,0,0,.208-0.207,2.6,2.6,0,0,1,.273-0.607c0.528-1.055,1.073-2.286,1.553-3.516a1.326,1.326,0,0,0,.112-0.383,0.606,0.606,0,0,0-.352-0.4,7.086,7.086,0,0,1-.865-0.815,38.643,38.643,0,0,1-1.6,3.675A7.5,7.5,0,0,1,849.879,145.187Zm0.593-12.288a0.349,0.349,0,0,0-.112.192,0.176,0.176,0,0,0,.112.112,12.956,12.956,0,0,1,2.258,1.805,0.259,0.259,0,0,0,.145.08,0.225,0.225,0,0,0,.144-0.127l0.721-1.007a0.41,0.41,0,0,0,.1-0.192,0.19,0.19,0,0,0-.1-0.143,12.275,12.275,0,0,0-2.227-1.646c-0.128-.08-0.176-0.08-0.3.064Zm-0.577,4.059a0.352,0.352,0,0,0-.1.192,0.173,0.173,0,0,0,.112.111A12.39,12.39,0,0,1,852.17,139a0.269,0.269,0,0,0,.144.1,0.164,0.164,0,0,0,.128-0.112l0.721-1.022a0.41,0.41,0,0,0,.1-0.192,0.25,0.25,0,0,0-.1-0.128,11.982,11.982,0,0,0-2.275-1.63c-0.144-.08-0.192-0.08-0.32.08Zm22.368,6.072h0.593c1.377,0,1.858.031,1.954,0.031,0.16,0,.176-0.015.176-0.159v-0.959c0-.16-0.016-0.176-0.176-0.176-0.1,0-.577.032-1.954,0.032h-0.593v-0.687h0.689c1.345,0,1.81.032,1.922,0.032,0.16,0,.176-0.016.176-0.176,0-.095-0.032-0.479-0.032-1.326v-1.709c0-.863.032-1.231,0.032-1.31,0-.16-0.016-0.176-0.176-0.176-0.112,0-.577.032-1.922,0.032h-0.689v-0.7h0.929c1.426,0,1.954.032,2.05,0.032,0.145,0,.129-0.016.129-0.176v-0.943c0-.16-0.017-0.176-0.161-0.176-0.1,0-.592.032-2.018,0.032h-0.929V133.65c0.657-.08,1.3-0.191,1.938-0.319a4.72,4.72,0,0,1,.721-0.112c0.208,0,.336-0.064.336-0.16a0.39,0.39,0,0,0-.128-0.287,6.883,6.883,0,0,0-.913-0.879,5.805,5.805,0,0,1-.881.271,30.737,30.737,0,0,1-5.67.608,3.171,3.171,0,0,1,.5.863c0.128,0.367.144,0.383,0.593,0.351,0.688-.032,1.377-0.1,2.066-0.16v0.719h-1.186c-1.441,0-1.938-.032-2.034-0.032-0.16,0-.176.016-0.176,0.176v0.943c0,0.16.016,0.176,0.176,0.176,0.1,0,.593-0.032,2.034-0.032h1.186v0.7h-0.641c-1.361,0-1.826-.032-1.922-0.032-0.176,0-.192.016-0.192,0.176,0,0.079.032,0.447,0.032,1.31v1.709c0,0.847-.032,1.215-0.032,1.326,0,0.16.016,0.176,0.192,0.176,0.1,0,.561-0.032,1.922-0.032h0.641V141.8h-0.945c-1.394,0-1.858-.032-1.954-0.032-0.16,0-.177.016-0.177,0.176V142.9c0,0.144.017,0.159,0.177,0.159,0.1,0,.56-0.031,1.954-0.031h0.945v0.926c-0.641.064-1.25,0.1-1.81,0.128a14.638,14.638,0,0,1-1.682.016c0.08,0.479.176,0.991,0.272,1.406a0.294,0.294,0,0,0,.225.272,0.62,0.62,0,0,0,.272-0.1,2.573,2.573,0,0,1,.592-0.112c1.81-.192,3.893-0.5,5.59-0.831a1.249,1.249,0,0,0,.305-0.064c-0.16.176-.337,0.336-0.513,0.5a2.945,2.945,0,0,1,1.025.767,0.585,0.585,0,0,0,.305.223,0.644,0.644,0,0,0,.336-0.239,10.159,10.159,0,0,0,2.37-4.554,28.005,28.005,0,0,0,.593-4.586h1.346a45.459,45.459,0,0,1-.4,6.759c-0.112.751-.384,1.007-0.865,1.007a8.6,8.6,0,0,1-1.329-.128,3.636,3.636,0,0,1,.32,1.07c0.048,0.528.048,0.528,0.416,0.559,0.273,0.016.545,0.032,0.881,0.032a1.824,1.824,0,0,0,2.035-1.757,48.852,48.852,0,0,0,.464-7.318c0-.512,0-0.975.032-1.518,0-.16-0.032-0.192-0.192-0.192-0.1,0-.513.032-1.746,0.032H878.75c0.016-.4.016-0.8,0.016-1.23a6.876,6.876,0,0,1,.1-1.63,1.222,1.222,0,0,0,.1-0.384,0.21,0.21,0,0,0-.24-0.175c-0.561-.064-1.025-0.1-1.6-0.112a15.629,15.629,0,0,1,.113,2.253c0,0.447-.016.863-0.016,1.278-0.994,0-1.362-.032-1.442-0.032-0.176,0-.192.016-0.192,0.176v1.166c0,0.16.016,0.176,0.192,0.176,0.08,0,.432-0.016,1.377-0.032a21.912,21.912,0,0,1-.528,4.075,9.025,9.025,0,0,1-1.826,3.579l0.048-.288a6.6,6.6,0,0,1,.144-0.735c-0.945.16-1.858,0.288-2.723,0.384V143.03Zm1.394-2.94h-1.394v-0.847h1.394v0.847Zm0-2.6v0.831h-1.394v-0.831h1.394Zm-4.165,2.6v-0.847h1.33v0.847h-1.33Zm0-1.774v-0.831h1.33v0.831h-1.33Zm22.641-3.691c-1.922.112-3.989,0.24-4.966,0.32a10.651,10.651,0,0,1-1.954.063,11.169,11.169,0,0,0,.4,1.615,0.249,0.249,0,0,0,.272.223c0.144,0,.4-0.144.753-0.192,1.265-.175,3.523-0.367,5.542-0.479,0,0.527.016,1.07,0.016,1.63a1.967,1.967,0,0,0-1.218-.32,2.331,2.331,0,0,0-2.418,2.4,2.215,2.215,0,0,0,2.226,2.444,1.852,1.852,0,0,0,1.506-.638,5.345,5.345,0,0,1-3.284,3.515,3.554,3.554,0,0,1,1.218.639,0.9,0.9,0,0,0,.48.239,1.528,1.528,0,0,0,.625-0.3,5.963,5.963,0,0,0,2.851-5.161,4.976,4.976,0,0,0-.24-1.582c-0.016-.975-0.016-2-0.016-2.972,1.665-.016,3.219-0.016,4.885.032,0.192,0.016.272-.032,0.272-0.208,0.016-.4.016-0.815,0-1.214-0.016-.208-0.048-0.24-0.24-0.24-1.538,0-3.188.017-4.917,0.08,0.016-.607.016-0.814,0.032-1.022a1.673,1.673,0,0,1,.128-0.464,0.669,0.669,0,0,0,.144-0.367,0.446,0.446,0,0,0-.449-0.3,16.086,16.086,0,0,0-1.874-.223,5.062,5.062,0,0,1,.193,1.166C892.117,133.73,892.117,134.13,892.133,134.625Zm-1.025,4.106a0.959,0.959,0,0,1,1.057,1.023,1.029,1.029,0,0,1-1.09,1.1,0.993,0.993,0,0,1-1.025-1.087A1.019,1.019,0,0,1,891.108,138.731Zm15.782-.383c1.217-1.166,2.29-2.285,3.46-3.419a2.582,2.582,0,0,1,.7-0.512,0.422,0.422,0,0,0,.273-0.383,0.555,0.555,0,0,0-.176-0.384,6.071,6.071,0,0,0-1.074-1.022,0.57,0.57,0,0,0-.368-0.128,0.827,0.827,0,0,0-.3.128,4.259,4.259,0,0,1-.881.24c-1.25.239-2.659,0.447-3.636,0.543a7.732,7.732,0,0,1-1.49-.032,7.693,7.693,0,0,0,.561,1.726,0.364,0.364,0,0,0,.352.271,1.189,1.189,0,0,0,.321-0.08,4.909,4.909,0,0,1,.672-0.191c0.993-.208,2.131-0.432,3.092-0.608-0.737.911-1.49,1.71-2.483,2.733a38.767,38.767,0,0,1-3.8,3.531,0.255,0.255,0,0,0-.08.367,7.147,7.147,0,0,0,.945,1.039,0.393,0.393,0,0,0,.24.144,0.453,0.453,0,0,0,.272-0.176c0.481-.48.929-0.943,1.394-1.358a6.526,6.526,0,0,1,4.1-1.694A2.336,2.336,0,0,1,911.5,141.5a2.407,2.407,0,0,1-1.634,2.428,2.912,2.912,0,0,0-3.011-2.332,2.123,2.123,0,0,0-2.258,1.949c0,1.486,1.217,2.349,3.235,2.349,3.428,0,5.59-1.71,5.59-4.378a3.713,3.713,0,0,0-3.972-3.835,4.833,4.833,0,0,0-2.547.719Zm1.393,5.976a3.5,3.5,0,0,1-.736.064c-0.961,0-1.394-.336-1.394-0.831a0.678,0.678,0,0,1,.769-0.607A1.478,1.478,0,0,1,908.283,144.324ZM921.968,136c-0.032,4.858-1.233,7.062-4.917,8.868a3.488,3.488,0,0,1,.961.975,0.523,0.523,0,0,0,.321.351,1.146,1.146,0,0,0,.384-0.175,8.937,8.937,0,0,0,4.693-6.44h4.357a19.461,19.461,0,0,1-.5,4.059,0.893,0.893,0,0,1-.945.8,15.6,15.6,0,0,1-1.97-.144,3.531,3.531,0,0,1,.352,1.23c0.064,0.512.064,0.543,0.513,0.576,0.528,0.031.977,0.031,1.265,0.031,1.6,0,2.227-.463,2.579-1.981a29.321,29.321,0,0,0,.528-4.746c0.016-.4.032-0.83,0.065-1.246,0-.176-0.033-0.223-0.193-0.223-0.1,0-.544.032-1.89,0.032H923.65c0.064-.608.112-1.263,0.128-1.966h5.542c1.442,0,1.922.032,2.018,0.032,0.144,0,.16-0.016.16-0.192v-1.294c0-.175-0.016-0.191-0.16-0.191-0.1,0-.576.032-2.018,0.032h-4.212V133.3a2.28,2.28,0,0,1,.1-0.927,0.98,0.98,0,0,0,.1-0.335,0.228,0.228,0,0,0-.256-0.176c-0.545-.048-1.17-0.08-1.746-0.08a7.953,7.953,0,0,1,.112,1.566v1.039h-3.924c-1.426,0-1.906-.032-2.018-0.032-0.161,0-.177.016-0.177,0.191v1.294c0,0.176.016,0.192,0.177,0.192,0.112,0,.592-0.032,2.018-0.032h2.482Zm14.632-3.084a12.874,12.874,0,0,1-.288,2.381,30.376,30.376,0,0,0-.545,5.241,14.935,14.935,0,0,0,.737,4.762,0.193,0.193,0,0,0,.208.175,8.061,8.061,0,0,0,1.313-.255,0.21,0.21,0,0,0,.209-0.208c0-.128-0.032-0.256-0.032-0.448a1.813,1.813,0,0,1,.048-0.495,15.51,15.51,0,0,1,.913-2.413,0.439,0.439,0,0,0,.08-0.255,0.637,0.637,0,0,0-.112-0.24,4.1,4.1,0,0,1-.561-1.007c-0.465,1.119-.753,1.646-1.089,2.381a15.376,15.376,0,0,1-.1-1.869,25.858,25.858,0,0,1,.672-5.161,3.786,3.786,0,0,1,.385-1.134,0.9,0.9,0,0,0,.24-0.48,0.488,0.488,0,0,0-.368-0.384A7.145,7.145,0,0,0,936.6,132.915Zm3.684,8.245a3.515,3.515,0,0,0,.56,2.077c0.689,0.943,1.794,1.326,4.165,1.326a21.511,21.511,0,0,0,2.611-.175c0.272-.032.272-0.048,0.272-0.24a11.834,11.834,0,0,0-.1-1.374c-0.032-.208-0.064-0.224-0.224-0.208a23.009,23.009,0,0,1-3.06.208c-1.746,0-2.514-.4-2.611-1.5,0-.176-0.032-0.256-0.16-0.239Zm0.512-4.537a19.607,19.607,0,0,1,3.636-.368c0.817,0,1.65.032,2.611,0.1,0.144,0.016.192-.048,0.208-0.192,0.032-.447.032-0.879,0.032-1.358,0-.16-0.032-0.192-0.368-0.208-0.673-.064-1.41-0.1-2.371-0.1a25.587,25.587,0,0,0-3.475.288,0.234,0.234,0,0,0-.225.272C940.812,135.328,940.812,135.728,940.8,136.623Zm-81.89,38.729c0-1.167.032-1.726,0.032-1.822,0-.16-0.016-0.175-0.176-0.175-0.112,0-.641.032-2.162,0.032h-8.3c-1.522,0-2.05-.032-2.162-0.032-0.161,0-.177.015-0.177,0.175,0,0.1.032,0.576,0.032,1.694v3.1c0,1.23-.032,1.709-0.032,1.8,0,0.16.016,0.176,0.177,0.176h1.377c0.16,0,.176-0.016.176-0.176,0-.08-0.032-0.623-0.032-1.8v-3.579h9.578v3.5a0.365,0.365,0,0,1-.4.447,8.934,8.934,0,0,1-1.025-.064,3.717,3.717,0,0,1,.336,1.055c0.08,0.463.1,0.5,0.593,0.5,1.153,0,1.521-.08,1.81-0.335a1.471,1.471,0,0,0,.384-1.151c0-.5-0.032-1.166-0.032-2.029v-1.31Zm-8.377-6.1c-1.457,0-1.97-.032-2.066-0.032-0.16,0-.176.016-0.176,0.176,0,0.112.032,0.352,0.032,1.039v0.974c0,0.655-.032.911-0.032,1.007,0,0.16.016,0.176,0.176,0.176,0.1,0,.609-0.032,2.066-0.032h3.86c1.458,0,1.97.032,2.067,0.032,0.16,0,.176-0.016.176-0.176,0-.1-0.032-0.352-0.032-1.007v-0.974c0-.687.032-0.927,0.032-1.039,0-.16-0.016-0.176-0.176-0.176-0.1,0-.609.032-2.067,0.032h-3.86Zm4.5,2.189h-5.157v-1.054h5.157v1.054Zm2.258-2.972c1.442,0,1.939.032,2.035,0.032,0.16,0,.176-0.016.176-0.175V167.2c0-.16-0.016-0.176-0.176-0.176-0.1,0-.593.032-2.035,0.032h-4.1v-0.048a3.178,3.178,0,0,1,.064-0.767,0.956,0.956,0,0,0,.112-0.319,0.234,0.234,0,0,0-.256-0.16c-0.545-.048-1.1-0.08-1.7-0.08a5.47,5.47,0,0,1,.112,1.326v0.048H847.63c-1.441,0-1.938-.032-2.034-0.032-0.16,0-.176.016-0.176,0.176v1.119c0,0.159.016,0.175,0.176,0.175,0.1,0,.593-0.032,2.034-0.032h9.658Zm-6.7,10.77c0.161,0,.177-0.016.177-0.176v-0.432h3.251v0.336c0,0.16.016,0.176,0.192,0.176H855.4c0.161,0,.177-0.016.177-0.176,0-.1-0.032-0.352-0.032-1.79v-0.7c0-.463.032-0.751,0.032-0.847,0-.159-0.016-0.175-0.177-0.175-0.112,0-.528.032-1.729,0.032h-2.5c-1.217,0-1.634-.032-1.73-0.032-0.16,0-.176.016-0.176,0.175,0,0.1.032,0.4,0.032,1.007v0.591c0,1.47-.032,1.726-0.032,1.838,0,0.16.016,0.176,0.176,0.176h1.153Zm0.177-2.685h3.251v1.023H850.77V176.55Zm17.851-5.656a1.68,1.68,0,0,1,.1-0.687,0.433,0.433,0,0,0,.08-0.256c0-.08-0.08-0.144-0.289-0.175a14.855,14.855,0,0,0-1.489-.112,9.211,9.211,0,0,1,.08,1.326v2.125a24.409,24.409,0,0,1-4.437,1.5,3.646,3.646,0,0,1,.561.99c0.16,0.416.16,0.432,0.576,0.3a28.9,28.9,0,0,0,3.909-1.534,6.51,6.51,0,0,0,2.867.32,5.794,5.794,0,0,0,2.9-.432,1.853,1.853,0,0,0,.785-1.533c0.064-.432.064-0.432-0.353-0.544a4.677,4.677,0,0,1-1.089-.4,1.523,1.523,0,0,1-.448,1.326,3.315,3.315,0,0,1-1.6.288,10.371,10.371,0,0,1-1.233-.016,21.2,21.2,0,0,0,3.828-2.972,1.834,1.834,0,0,1,.544-0.448,0.289,0.289,0,0,0,.256-0.239,0.437,0.437,0,0,0-.192-0.32,11.546,11.546,0,0,0-1.2-.767,6.246,6.246,0,0,1-.833,1.1,15.572,15.572,0,0,1-3.315,2.572v-1.422Zm2.162-3.915v-0.127a1.576,1.576,0,0,1,.08-0.656,0.739,0.739,0,0,0,.1-0.3,0.234,0.234,0,0,0-.256-0.16c-0.545-.048-1.137-0.08-1.7-0.08a5.712,5.712,0,0,1,.1,1.183v0.143h-3.508c-1.473,0-2-.032-2.1-0.032-0.176,0-.192.016-0.192,0.176,0,0.1.032,0.352,0.032,0.879v0.543c0,1.262-.032,1.5-0.032,1.6,0,0.176.016,0.192,0.192,0.192h1.266c0.176,0,.192-0.016.192-0.192v-1.789h4.388l-0.656.463c-0.193.128-.209,0.16-0.08,0.256a8.518,8.518,0,0,1,1.409,1.549,0.246,0.246,0,0,0,.144.128,0.5,0.5,0,0,0,.192-0.112l0.8-.623c0.144-.112.176-0.144,0.064-0.287a12.3,12.3,0,0,0-1.361-1.374h5.4v1.789c0,0.176.016,0.192,0.16,0.192h1.313c0.16,0,.176-0.016.176-0.192,0-.1-0.032-0.336-0.032-1.6V167.89c0-.415.032-0.671,0.032-0.767,0-.16-0.016-0.176-0.176-0.176-0.1,0-.625.032-2.1,0.032h-3.844Zm3.267,11.153h-3.187v-1.566a3.064,3.064,0,0,1,.08-0.959,0.809,0.809,0,0,0,.112-0.287,0.228,0.228,0,0,0-.256-0.176c-0.545-.048-1.073-0.08-1.682-0.1a6.507,6.507,0,0,1,.112,1.518v1.566h-3.075v-0.9a2,2,0,0,1,.064-0.671,1.224,1.224,0,0,0,.1-0.319c0-.1-0.064-0.16-0.224-0.176-0.529-.064-1.041-0.112-1.634-0.128a9.849,9.849,0,0,1,.08,1.39v1.63c0,0.751-.032,1.054-0.032,1.15,0,0.16.016,0.176,0.176,0.176h1.3c0.16,0,.176-0.016.176-0.176v-0.575h7.9v0.575c0,0.16.016,0.176,0.177,0.176h1.281c0.176,0,.192-0.016.192-0.176,0-.08-0.032-0.447-0.032-1.278v-1.694a2.066,2.066,0,0,1,.08-0.734,0.767,0.767,0,0,0,.08-0.272,0.214,0.214,0,0,0-.224-0.192,16.125,16.125,0,0,0-1.65-.128,7.588,7.588,0,0,1,.1,1.343v0.974Zm-9.4-4.538a0.351,0.351,0,0,0,.193.1,0.193,0.193,0,0,0,.144-0.1,9.3,9.3,0,0,0,1.666-2.684c0.064-.16.032-0.208-0.145-0.288l-0.977-.447c-0.208-.1-0.24-0.1-0.3.064a7.113,7.113,0,0,1-1.586,2.413c-0.112.111-.1,0.159,0.1,0.3Zm9.146-2.78c-0.176.112-.208,0.16-0.08,0.288a13,13,0,0,1,1.874,2.508,0.171,0.171,0,0,0,.128.1,0.41,0.41,0,0,0,.192-0.1l0.913-.719c0.144-.128.16-0.192,0.08-0.335a17.4,17.4,0,0,0-1.97-2.317c-0.128-.112-0.128-0.1-0.3.016Zm10.051,1.614a10.707,10.707,0,0,1-3.652,5.544,3.733,3.733,0,0,1,.849.815,0.622,0.622,0,0,0,.32.3,0.846,0.846,0,0,0,.385-0.256,11.7,11.7,0,0,0,2.594-3.467v1.677c0,2.509-.032,3.068-0.032,3.148,0,0.16.016,0.176,0.177,0.176H885.7c0.16,0,.176-0.016.176-0.176v-0.447h5.558v0.4c0,0.176.016,0.192,0.16,0.192h1.281c0.177,0,.177-0.016.177-0.192,0-.079-0.016-0.543-0.016-3v-1.629c0-1.55.016-2.029,0.016-2.125,0-.176,0-0.192-0.177-0.192-0.1,0-.832.032-2.274,0.032h-5.4c0.08-.256.16-0.528,0.224-0.8h7.208c1.41,0,1.906.032,2,.032,0.144,0,.16-0.016.16-0.176v-0.943c0-.159-0.016-0.175-0.16-0.175-0.1,0-.592.031-2,0.031H888.41v-0.83h2.418c1.57,0,2.115.032,2.211,0.032,0.144,0,.16-0.016.16-0.176V169.36c0-.16-0.016-0.176-0.16-0.176-0.1,0-.641.032-2.211,0.032H888.41v-0.783h3.251c1.522,0,2.05.032,2.146,0.032,0.177,0,.193-0.016.193-0.176v-0.926c0-.16-0.016-0.176-0.193-0.176-0.1,0-.624.032-2.146,0.032h-1.217c0.112-.176.224-0.336,0.32-0.511a1.021,1.021,0,0,1,.288-0.336,0.276,0.276,0,0,0,.177-0.224c0-.111-0.08-0.143-0.225-0.191a13.225,13.225,0,0,0-1.473-.352,3.568,3.568,0,0,1-.256.735c-0.177.336-.3,0.623-0.465,0.879h-2.322a8.548,8.548,0,0,0-1.025-1.454c-0.113-.144-0.145-0.112-0.321-0.064l-1.009.288c-0.224.063-.208,0.1-0.1,0.239a8.086,8.086,0,0,1,.689.991h-0.961c-1.538,0-2.05-.032-2.147-0.032-0.16,0-.176.016-0.176,0.176v0.926c0,0.16.016,0.176,0.176,0.176,0.1,0,.609-0.032,2.147-0.032h3.011v0.783H884.5c-1.57,0-2.115-.032-2.211-0.032-0.16,0-.176.016-0.176,0.176v0.863c0,0.16.016,0.176,0.176,0.176,0.1,0,.641-0.032,2.211-0.032h2.274v0.83h-4.052c-1.426,0-1.906-.031-2-0.031-0.161,0-.177.016-0.177,0.175v0.943c0,0.16.016,0.176,0.177,0.176,0.1,0,.576-0.032,2-0.032h1.121Zm7.592,2v0.7h-5.558v-0.7h5.558Zm-5.558,2.4v-0.7h5.558v0.7h-5.558Zm0,1.709v-0.7h5.558v0.7h-5.558Zm19.941-9c0.272-.415.368-0.575,0.5-0.8a1.323,1.323,0,0,1,.337-0.335,0.432,0.432,0,0,0,.192-0.32,0.279,0.279,0,0,0-.176-0.255,10.051,10.051,0,0,0-1.874-.783A5.917,5.917,0,0,1,903.93,169a17.832,17.832,0,0,1-4.533,5.017,6.674,6.674,0,0,1,1.345.735,0.369,0.369,0,0,0,.257.112,0.574,0.574,0,0,0,.32-0.144,19.333,19.333,0,0,0,3.428-3.595l3.972-.08a15.405,15.405,0,0,1-1.874,3.164,16.072,16.072,0,0,0-2.066-1.278,0.421,0.421,0,0,0-.16-0.064,0.3,0.3,0,0,0-.209.112c-0.368.335-.7,0.751-1.057,1.134a13.357,13.357,0,0,1,2.307,1.5,19.421,19.421,0,0,1-5.895,4.33,4.551,4.551,0,0,1,1.522.815,0.48,0.48,0,0,0,.3.144,0.878,0.878,0,0,0,.4-0.144,19.515,19.515,0,0,0,5.109-4,17.9,17.9,0,0,1,1.554,1.55,0.278,0.278,0,0,0,.176.1,0.332,0.332,0,0,0,.192-0.08,9.927,9.927,0,0,0,.993-1.006,0.31,0.31,0,0,0,.1-0.208,0.316,0.316,0,0,0-.1-0.224,14.248,14.248,0,0,0-1.73-1.614,24.932,24.932,0,0,0,2.355-3.866,2.007,2.007,0,0,1,.48-0.608,0.408,0.408,0,0,0,.177-0.3,0.389,0.389,0,0,0-.129-0.288,5.153,5.153,0,0,0-1.089-.974,0.551,0.551,0,0,0-.288-0.128,0.468,0.468,0,0,0-.272.112,1.573,1.573,0,0,1-.881.239Zm18.713,1.262a13.431,13.431,0,0,1-2.706,4.554,15.478,15.478,0,0,1-5.238,4,4.767,4.767,0,0,1,1.49.879,0.564,0.564,0,0,0,.4.175,0.78,0.78,0,0,0,.432-0.143,17.942,17.942,0,0,0,4.549-3.8,18.808,18.808,0,0,0,3.108-5.193,1.919,1.919,0,0,1,.368-0.623,0.546,0.546,0,0,0,.224-0.4,0.4,0.4,0,0,0-.112-0.271,4.925,4.925,0,0,0-1.169-1.055,0.782,0.782,0,0,0-.305-0.08,0.452,0.452,0,0,0-.24.064,1.532,1.532,0,0,1-.881.16h-5.718a28.061,28.061,0,0,1-3.075-.112c0.032,0.463.1,1.294,0.144,1.614,0.032,0.224.1,0.335,0.3,0.319,0.689-.031,1.6-0.08,2.643-0.08h5.782Zm14.6,3.788c0.865-.736,1.714-1.535,2.531-2.366a1.72,1.72,0,0,1,.512-0.367,0.315,0.315,0,0,0,.241-0.288,0.512,0.512,0,0,0-.1-0.271,6.252,6.252,0,0,0-.8-0.943,0.363,0.363,0,0,0-.273-0.128,0.537,0.537,0,0,0-.24.064,2.591,2.591,0,0,1-1.137.176l-4.645.048a15.625,15.625,0,0,1-2.227-.128,14.166,14.166,0,0,0,.177,1.566c0.032,0.208.1,0.3,0.272,0.3,0.657-.048,1.249-0.08,2.114-0.112l3.7-.08a22.262,22.262,0,0,1-3.107,2.588A30.334,30.334,0,0,1,931,177.518a3.752,3.752,0,0,1,1.282.975,0.436,0.436,0,0,0,.32.176,0.649,0.649,0,0,0,.272-0.08,27.756,27.756,0,0,0,4.4-2.668v2.061c0,1.326-.08,2.4-0.08,2.844,0,0.16.112,0.223,0.3,0.223a9.6,9.6,0,0,0,1.378,0c0.192,0,.3-0.063.3-0.207,0-.4-0.048-1.454-0.048-2.876v-3.387Zm-3.364-6.248a16.49,16.49,0,0,1,3.572,1.582,0.3,0.3,0,0,0,.176.064,0.246,0.246,0,0,0,.209-0.16,13.458,13.458,0,0,0,.656-1.183,0.254,0.254,0,0,0,.064-0.159,0.262,0.262,0,0,0-.176-0.176,21.753,21.753,0,0,0-3.395-1.39,0.26,0.26,0,0,0-.337.143C936.377,167.292,936.089,167.82,935.768,168.331Zm4.181,7.174a17.778,17.778,0,0,1,3.6,2.205,0.481,0.481,0,0,0,.224.112,0.274,0.274,0,0,0,.192-0.128,9.066,9.066,0,0,0,.785-1.151,0.376,0.376,0,0,0,.064-0.191,0.235,0.235,0,0,0-.144-0.192,17.039,17.039,0,0,0-3.492-1.949c-0.16-.064-0.208-0.08-0.32.064C940.654,174.515,940.3,174.994,939.949,175.505Zm12.484-6.519c-1.041,0-1.842,0-2.707-.064a9.3,9.3,0,0,0,.145,1.662c0.032,0.176.08,0.287,0.208,0.271,0.865-.064,1.7-0.095,2.531-0.095l4.132-.016a19.974,19.974,0,0,1-8.649,8.085,4.383,4.383,0,0,1,1.345,1.038,0.358,0.358,0,0,0,.272.144,1.011,1.011,0,0,0,.369-0.128,23.028,23.028,0,0,0,5.382-4.218,29.2,29.2,0,0,1,4.164,3.962,0.329,0.329,0,0,0,.224.128,0.279,0.279,0,0,0,.192-0.095,8.576,8.576,0,0,0,1.073-1.087,0.392,0.392,0,0,0,.113-0.24,0.361,0.361,0,0,0-.129-0.224,37.581,37.581,0,0,0-4.436-3.866,25.292,25.292,0,0,0,2.05-2.988,2.9,2.9,0,0,1,.593-0.7,0.442,0.442,0,0,0,.208-0.32,0.427,0.427,0,0,0-.08-0.207,5.862,5.862,0,0,0-1.041-1.119,0.535,0.535,0,0,0-.273-0.128,0.267,0.267,0,0,0-.176.064,2.352,2.352,0,0,1-1.105.144h-4.4Zm15.8,1.917c-0.929,0-1.65,0-2.659-.063,0.032,0.591.064,1.166,0.128,1.549,0.016,0.192.08,0.288,0.241,0.272,0.752-.048,1.521-0.08,2.306-0.08h1.442a9.29,9.29,0,0,1-1.154,3.451,8.9,8.9,0,0,1-3.764,3.26,4.074,4.074,0,0,1,1.346.927,0.409,0.409,0,0,0,.3.159,0.733,0.733,0,0,0,.369-0.127,10.315,10.315,0,0,0,3.395-3.292,11.873,11.873,0,0,0,1.426-4.426h3.235a22.361,22.361,0,0,1-.48,4.794,1.282,1.282,0,0,1-.833,1.118,6.549,6.549,0,0,1-2.179.144,3.335,3.335,0,0,1,.929,1.454,0.389,0.389,0,0,0,.385.319,6.833,6.833,0,0,0,1.617-.175,2.548,2.548,0,0,0,1.89-2.157,27.12,27.12,0,0,0,.593-5.257c0.032-.847.064-1.486,0.064-1.694,0-.176-0.08-0.224-0.336-0.224-0.737,0-1.49.032-2.227,0.032h-2.434c0.08-.782.1-1.166,0.144-1.677a1.483,1.483,0,0,1,.208-0.751,0.718,0.718,0,0,0,.08-0.3A0.329,0.329,0,0,0,972,167.82a12.541,12.541,0,0,0-2.082-.336,6.134,6.134,0,0,1,.112,1.262c-0.016.863-.048,1.374-0.112,2.157h-1.682Zm6.839-2.332a7.907,7.907,0,0,1,1.618,1.853,0.167,0.167,0,0,0,.272.048l0.673-.5a0.161,0.161,0,0,0,.048-0.256,7.327,7.327,0,0,0-1.522-1.709,0.165,0.165,0,0,0-.24-0.033Zm1.474-1.055a7.569,7.569,0,0,1,1.6,1.838,0.164,0.164,0,0,0,.272.047l0.641-.5a0.185,0.185,0,0,0,.048-0.288,6.68,6.68,0,0,0-1.522-1.645,0.163,0.163,0,0,0-.24-0.032Zm13.958,7.638c1.185,0,2.37.016,3.571,0.032,0.225,0.015.289-.048,0.289-0.24a11.762,11.762,0,0,0,0-1.5c0-.192-0.048-0.24-0.289-0.224-1.233.016-2.466,0.048-3.683,0.048h-5.158a20.732,20.732,0,0,1-3.46-.191,17.547,17.547,0,0,0,.241,1.933,0.351,0.351,0,0,0,.368.335,12.889,12.889,0,0,1,2.355-.191H990.5Zm11.746-5.561a4.229,4.229,0,0,1,.11-1.5,0.846,0.846,0,0,0,.13-0.367,0.3,0.3,0,0,0-.31-0.272,11.7,11.7,0,0,0-2-.256,12.351,12.351,0,0,1,.16,2.365v7.862c0,1.022-.01,1.965-0.06,3.147,0,0.192.08,0.24,0.3,0.24a10.663,10.663,0,0,0,1.43,0c0.22,0,.3-0.048.29-0.24-0.03-1.15-.07-2.093-0.07-3.132v-3.531a17.916,17.916,0,0,1,4.22,2.045,0.225,0.225,0,0,0,.17.08,0.267,0.267,0,0,0,.21-0.175,10.008,10.008,0,0,0,.69-1.391,0.294,0.294,0,0,0-.18-0.415,22.542,22.542,0,0,0-5.09-2.173v-2.285Zm2.88-1.054a7.8,7.8,0,0,1,1.62,1.853,0.165,0.165,0,0,0,.27.048l0.67-.5a0.155,0.155,0,0,0,.05-0.256,7.326,7.326,0,0,0-1.52-1.71,0.164,0.164,0,0,0-.24-0.032Zm1.48-1.055a7.852,7.852,0,0,1,1.6,1.838,0.162,0.162,0,0,0,.27.047l0.64-.5a0.186,0.186,0,0,0,.05-0.287,6.657,6.657,0,0,0-1.52-1.646,0.164,0.164,0,0,0-.24-0.032Zm14.43,3.036v2.029H1020c-1.46,0-1.95-.032-2.05-0.032-0.16,0-.17.016-0.17,0.176v1.118c0,0.176.01,0.192,0.17,0.192,0.05,0,.26-0.016.71-0.016a10.932,10.932,0,0,0,2.06,3.883,12.231,12.231,0,0,1-4.35,1.981,4.765,4.765,0,0,1,.72,1.039c0.13,0.287.16,0.4,0.3,0.4a1.265,1.265,0,0,0,.37-0.1,13.5,13.5,0,0,0,4.13-2.157,12.666,12.666,0,0,0,3.7,2.093,1.221,1.221,0,0,0,.39.1c0.14,0,.17-0.112.3-0.415a6.235,6.235,0,0,1,.66-1.183,10.576,10.576,0,0,1-3.78-1.741,12.514,12.514,0,0,0,2.27-3.547,1.7,1.7,0,0,1,.37-0.64,0.366,0.366,0,0,0,.14-0.287,1,1,0,0,0-.44-0.591,0.977,0.977,0,0,0-.6-0.4,0.575,0.575,0,0,0-.22.064,0.585,0.585,0,0,1-.32.064h-1.68V170.52h1.65c1.52,0,2.05.032,2.14,0.032,0.18,0,.18-0.016.18-0.176v-1.2c0-.176,0-0.192-0.18-0.192-0.09,0-.62.032-2.14,0.032h-1.65V168.65a5.114,5.114,0,0,1,.09-1.23,1.217,1.217,0,0,0,.12-0.4,0.226,0.226,0,0,0-.25-0.176c-0.54-.064-1.12-0.1-1.71-0.112a10.462,10.462,0,0,1,.11,1.95v0.335h-1.18c-1.52,0-2.05-.032-2.16-0.032-0.16,0-.18.016-0.18,0.192v1.2c0,0.16.02,0.176,0.18,0.176,0.11,0,.64-0.032,2.16-0.032h1.18Zm2.74,3.451a8.64,8.64,0,0,1-1.82,2.828,8.321,8.321,0,0,1-1.69-2.828h3.51Zm-8.02,1.326,1.04-.431c0.45-.192.46-0.16,0.45-0.687a10.473,10.473,0,0,1,.06-1.055,13.289,13.289,0,0,1-1.55.64v-2.493c0.85,0.016,1.15.032,1.25,0.032,0.14,0,.16-0.016.16-0.176v-1.2c0-.176-0.02-0.192-0.16-0.192-0.1,0-.4.032-1.25,0.032v-0.8a5.212,5.212,0,0,1,.09-1.614,0.79,0.79,0,0,0,.1-0.335,0.239,0.239,0,0,0-.26-0.16c-0.53-.064-1.07-0.1-1.68-0.112a13.227,13.227,0,0,1,.13,2.253v0.767h-0.27c-1.09,0-1.43-.032-1.51-0.032-0.17,0-.19.016-0.19,0.192v1.2c0,0.16.02,0.176,0.19,0.176,0.08,0,.42-0.032,1.51-0.032h0.27v3l-0.56.16a8.534,8.534,0,0,1-1.51.287,15.59,15.59,0,0,0,.29,1.55,0.193,0.193,0,0,0,.19.192,0.651,0.651,0,0,0,.28-0.1,1.77,1.77,0,0,1,.51-0.24l0.8-.24v3.084c0,0.432-.14.608-0.5,0.608a8.056,8.056,0,0,1-1.21-.064,4.251,4.251,0,0,1,.43,1.23c0.11,0.479.11,0.479,0.61,0.479a2.776,2.776,0,0,0,1.79-.319,1.641,1.641,0,0,0,.51-1.534c0-.8-0.01-2.109-0.01-3.244V175.3Zm20.38-5.208h-0.24c-1.23,0-1.62-.033-1.71-0.033-0.16,0-.18.017-0.18,0.176v0.991a0.54,0.54,0,0,0-.21-0.224,11.257,11.257,0,0,0-1.18-.767,7.983,7.983,0,0,1-.39.847,11.486,11.486,0,0,1-2.77,3.324,4.13,4.13,0,0,1,.46,1.2c0.05,0.208.1,0.3,0.18,0.3a0.544,0.544,0,0,0,.29-0.16,10.561,10.561,0,0,0,.78-0.735c-0.01.607-.03,1.294-0.03,1.805v2.349c0,1.278-.03,1.869-0.03,1.965,0,0.16.02,0.176,0.18,0.176h1.28c0.16,0,.17-0.016.17-0.176,0-.08-0.03-0.687-0.03-1.965V173.2c0.26-.367.5-0.735,0.71-1.1a1.422,1.422,0,0,1,.43-0.544,0.434,0.434,0,0,0,.16-0.127c0,0.16.02,0.175,0.18,0.175,0.09,0,.48-0.031,1.71-0.031h0.24v6.678c0,1.822-.03,2.749-0.03,2.844,0,0.16.01,0.176,0.16,0.176h1.31c0.16,0,.16-0.016.16-0.176,0-.095-0.02-1.022-0.02-2.844v-6.678h0.25c1.23,0,1.6.031,1.69,0.031a0.421,0.421,0,0,0,.16-0.015V172.6c0,0.176.02,0.192,0.2,0.192,0.09,0,.38-0.032,1.36-0.032h0.11v6.2c0,0.5-.11.624-0.58,0.624a10.776,10.776,0,0,1-1.34-.1,4.287,4.287,0,0,1,.32,1.134c0.08,0.511.08,0.511,0.57,0.511a3.557,3.557,0,0,0,2.1-.319,1.8,1.8,0,0,0,.53-1.566c0-.655-0.03-1.438-0.03-3.132v-3.355c0.85,0,1.1.032,1.2,0.032,0.16,0,.18-0.016.18-0.192v-1.2c0-.16-0.02-0.176-0.18-0.176-0.1,0-.37.032-1.36,0.032h-1.52c-0.98,0-1.27-.032-1.36-0.032a0.167,0.167,0,0,0-.16.032v-1.023c0-.159-0.02-0.176-0.2-0.176-0.09,0-.46.033-1.69,0.033h-0.25v-1.167a5.038,5.038,0,0,1,.09-1.486,1.052,1.052,0,0,0,.09-0.335,0.23,0.23,0,0,0-.24-0.176c-0.51-.064-1.04-0.08-1.65-0.1a10.9,10.9,0,0,1,.13,2.093v1.167Zm-3.04,8.4a4.16,4.16,0,0,1,1.02.3,1.332,1.332,0,0,0,.32.113c0.11,0,.16-0.1.23-0.3a18.212,18.212,0,0,0,.83-4.17,1.188,1.188,0,0,1,.14-0.607,0.375,0.375,0,0,0,.11-0.24,0.263,0.263,0,0,0-.27-0.24c-0.45-.08-0.91-0.144-1.41-0.192a6.98,6.98,0,0,1-.01,1.215A15.8,15.8,0,0,1,1033.1,178.493Zm-0.55-11.824a3.31,3.31,0,0,1-.43.735,9.858,9.858,0,0,1-2.61,2.413,3.1,3.1,0,0,1,.62,1.1,0.414,0.414,0,0,0,.24.367,0.84,0.84,0,0,0,.37-0.192,14.838,14.838,0,0,0,2.71-2.7,1.358,1.358,0,0,1,.48-0.463,0.232,0.232,0,0,0,.16-0.208,0.391,0.391,0,0,0-.23-0.3A8.327,8.327,0,0,0,1032.55,166.669Zm5.77,6.663c-0.19.064-.23,0.112-0.18,0.272a23.85,23.85,0,0,1,.82,4.362c0.01,0.159.06,0.159,0.29,0.079l0.91-.319c0.19-.064.21-0.112,0.19-0.272a21.592,21.592,0,0,0-.91-4.266c-0.07-.16-0.1-0.175-0.26-0.111Zm3.38-5.576c-0.9,0-1.16-.032-1.25-0.032-0.16,0-.18.016-0.18,0.175v1.215c0,0.16.02,0.176,0.18,0.176,0.09,0,.35-0.032,1.25-0.032h1.07c0.9,0,1.15.032,1.25,0.032,0.14,0,.16-0.016.16-0.176V167.9c0-.159-0.02-0.175-0.16-0.175-0.1,0-.35.032-1.25,0.032h-1.07Zm-3.62-.048c-0.18.112-.18,0.175-0.08,0.287a9.029,9.029,0,0,1,.94,1.518,0.2,0.2,0,0,0,.13.128,0.375,0.375,0,0,0,.19-0.1l0.66-.447c0.16-.1.19-0.16,0.11-0.3a10.913,10.913,0,0,0-.98-1.47c-0.09-.112-0.14-0.112-0.3-0.016Zm17.56,2.588a3.633,3.633,0,0,1,3.59,3.707c0,3.02-2.13,4.138-4.84,4.777a3.32,3.32,0,0,1,1.12,1.007,0.51,0.51,0,0,0,.69.288c3.25-.975,4.93-2.844,4.93-5.816,0-3.18-2.25-5.545-6.1-5.545a7,7,0,0,0-5.2,2.046,5.851,5.851,0,0,0-1.81,4.154c0,2.6,1.42,4.106,2.83,4.106a3.031,3.031,0,0,0,2.72-1.837,20.021,20.021,0,0,0,2.01-6.887h0.06Zm-1.92.1a18.283,18.283,0,0,1-1.7,5.72,1.4,1.4,0,0,1-1.2.975c-0.5,0-1.09-.815-1.09-2.285a4.59,4.59,0,0,1,1.25-2.956A4.833,4.833,0,0,1,1053.72,170.392Zm17.88,10.993c0.16,0,.18-0.016.18-0.176,0-.1-0.04-0.687-0.04-1.917v-5.353h5.43c1.4,0,1.86.032,1.96,0.032,0.14,0,.16-0.016.16-0.176v-1.006c0-.16-0.02-0.176-0.16-0.176-0.1,0-.56.032-1.96,0.032h-10.28c-1.39,0-1.86-.032-1.95-0.032-0.16,0-.18.016-0.18,0.176V173.8c0,0.16.02,0.176,0.18,0.176,0.08,0,.49-0.016,1.58-0.032v5.017a1.668,1.668,0,0,1-.28.032,14.609,14.609,0,0,1-1.51.112,12.365,12.365,0,0,0,.32,1.278,0.3,0.3,0,0,0,.22.256,0.589,0.589,0,0,0,.26-0.1,1.862,1.862,0,0,1,.58-0.16c1.29-.191,2.88-0.479,4.16-0.751-0.01.991-.03,1.486-0.03,1.582,0,0.16.02,0.176,0.18,0.176h1.18Zm-1.33-2.972c-0.72.128-1.5,0.24-2.26,0.352v-1.1h2.26v0.751Zm-2.26-3.627v-0.847h2.26v0.847h-2.26Zm0,1.853v-0.83h2.26v0.83h-2.26Zm1.09-9.315c-1.58,0-2.13-.032-2.24-0.032-0.16,0-.18.016-0.18,0.192,0,0.1.04,0.448,0.04,1.31v1.678c0,0.863-.04,1.214-0.04,1.31,0,0.176.02,0.192,0.18,0.192,0.11,0,.66-0.032,2.24-0.032h5.83c1.59,0,2.15.032,2.24,0.032,0.16,0,.18-0.016.18-0.192,0-.1-0.03-0.447-0.03-1.31v-1.678c0-.862.03-1.214,0.03-1.31,0-.176-0.02-0.192-0.18-0.192-0.09,0-.65.032-2.24,0.032h-5.83Zm6.63,3.5h-7.43v-0.688h7.43v0.688Zm-7.43-2.317h7.43v0.671h-7.43v-0.671Zm5.82,6.375c-1.27,0-1.67-.032-1.77-0.032-0.16,0-.17.016-0.17,0.176v0.926c0,0.176.01,0.192,0.17,0.192,0.05,0,.16,0,0.42-0.016a8.929,8.929,0,0,0,1.57,2.557,8.763,8.763,0,0,1-2.58,1.2,2.883,2.883,0,0,1,.59.911,0.469,0.469,0,0,0,.29.368,1.2,1.2,0,0,0,.32-0.113,10.494,10.494,0,0,0,2.42-1.406,9.027,9.027,0,0,0,2.74,1.375c0.42,0.127.45,0.127,0.61-.3a4.788,4.788,0,0,1,.56-1.023,8.764,8.764,0,0,1-2.84-1.086,8.254,8.254,0,0,0,1.3-1.933,1.731,1.731,0,0,1,.43-0.671,0.306,0.306,0,0,0,.16-0.288,1.944,1.944,0,0,0-.99-0.959,0.671,0.671,0,0,0-.24.064,0.833,0.833,0,0,1-.29.064h-2.7Zm2.38,1.23a6.258,6.258,0,0,1-1.1,1.662,5.574,5.574,0,0,1-1.17-1.662h2.27Zm18.11,2.445-1.73.239v-1.773h1.09c1.44,0,1.95.032,2.05,0.032,0.16,0,.17-0.016.17-0.176,0-.1-0.03-0.447-0.03-1.278v-1.694c0-.83.03-1.182,0.03-1.278,0-.16-0.01-0.176-0.17-0.176-0.1,0-.61.032-2.05,0.032h-1.09V171c0.78-.064,1.52-0.144,2.18-0.223,0.17,0.287.33,0.575,0.49,0.862a0.184,0.184,0,0,0,.15.144,0.536,0.536,0,0,0,.19-0.1l0.96-.575c0.19-.128.18-0.176,0.1-0.32a23.373,23.373,0,0,0-2.55-3.067c-0.11-.112-0.16-0.112-0.32-0.016l-0.8.463c-0.18.1-.19,0.144-0.08,0.256a13.854,13.854,0,0,1,.98,1.134c-1,.08-2.18.176-3.37,0.224,0.36-.607.72-1.31,0.98-1.838a1.434,1.434,0,0,1,.3-0.447,0.37,0.37,0,0,0,.16-0.288,0.279,0.279,0,0,0-.24-0.239,11.072,11.072,0,0,0-1.55-.288,4.332,4.332,0,0,1-.3,1.087,14.68,14.68,0,0,1-1,2.061c-0.4,0-.85.016-1.26-0.016,0.05,0.463.13,0.99,0.21,1.422a0.245,0.245,0,0,0,.22.256,0.468,0.468,0,0,0,.26-0.08,1.47,1.47,0,0,1,.59-0.128c0.69-.032,1.43-0.08,2.19-0.144v1.342h-0.93c-1.42,0-1.93-.032-2.05-0.032-0.16,0-.17.016-0.17,0.176,0,0.112.03,0.448,0.03,1.278V175.6c0,0.831-.03,1.166-0.03,1.278,0,0.16.01,0.176,0.17,0.176,0.12,0,.63-0.032,2.05-0.032h0.93v1.965c-0.73.1-1.44,0.16-2.01,0.192a14.644,14.644,0,0,1-1.86.032,15.443,15.443,0,0,0,.33,1.566,0.293,0.293,0,0,0,.28.255,0.682,0.682,0,0,0,.28-0.08,2.5,2.5,0,0,1,.68-0.175c1.95-.24,4.18-0.559,6.24-0.943,0.18,0.367.32,0.735,0.47,1.1,0.06,0.159.13,0.175,0.32,0.111l0.91-.415c0.18-.08.19-0.128,0.15-0.272a14.534,14.534,0,0,0-1.72-3c-0.08-.144-0.11-0.176-0.29-0.1l-0.81.351c-0.2.08-.23,0.128-0.15,0.256Zm0.05-2.86h-1.78v-1.886h1.78V175.7Zm-4.92,0v-1.886h1.63V175.7h-1.63Zm-5.29-1.582c0.08-.575.16-1.2,0.23-1.869h1.41c0.74,0,1.01.031,1.1,0.031,0.18,0,.2-0.015.2-0.175,0-.1-0.04-0.527-0.04-1.438v-1.646c0-.927.04-1.342,0.04-1.438,0-.176-0.02-0.192-0.2-0.192-0.09,0-.36.032-1.1,0.032h-1.76c-1,0-1.28-.032-1.38-0.032-0.18,0-.19.016-0.19,0.192v1.15c0,0.16.01,0.176,0.19,0.176,0.1,0,.38-0.032,1.38-0.032h1.53v2.013h-1.41c-0.59,0-.96-0.032-1.05-0.032a0.171,0.171,0,0,0-.21.208,6.169,6.169,0,0,1-.05,1.135,28.526,28.526,0,0,1-.58,3.69c-0.04.224-.04,0.24,0.69,0.336,0.84,0.1.84,0.1,0.88-.1l0.12-.591h1.53c-0.14,2.477-.4,3.515-0.62,3.8a0.9,0.9,0,0,1-.72.24,9.158,9.158,0,0,1-1.41-.144,4.836,4.836,0,0,1,.37,1.182c0.09,0.5.09,0.5,0.43,0.527,0.29,0.017.56,0.017,0.77,0.017,1.18,0,1.74-.336,2.03-1.055a15.548,15.548,0,0,0,.69-4.7c0.02-.351.03-0.8,0.07-1.118,0.01-.16-0.04-0.208-0.2-0.208-0.09,0-.28.032-1.02,0.032h-1.72Zm18.9-3.144,2.81-2.805-0.23-.225-2.81,2.8-2.81-2.8-0.23.225,2.81,2.805-2.82,2.827,0.22,0.226,2.83-2.827,2.84,2.827,0.23-.226Zm-0.23-2.624a0.6,0.6,0,0,0-.6.6,0.6,0.6,0,0,0,1.2,0A0.6,0.6,0,0,0,1103.12,168.347Zm-2.04,2.022a0.594,0.594,0,0,0-.59.6,0.588,0.588,0,0,0,.59.594,0.6,0.6,0,0,0,.61-0.594A0.605,0.605,0,0,0,1101.08,170.369Zm4.07,0a0.6,0.6,0,0,0-.6.6,0.6,0.6,0,0,0,1.2,0A0.6,0.6,0,0,0,1105.15,170.369Zm-2.03,2.038a0.6,0.6,0,0,0-.6.6,0.6,0.6,0,0,0,1.2,0A0.6,0.6,0,0,0,1103.12,172.407Zm7.17-4.338h-0.77a4.208,4.208,0,0,1-1.34.676l0.15,0.79a4.261,4.261,0,0,0,1.07-.511v4.09h-1.13v0.729h3.1v-0.729h-1.08v-5.045Zm13.86-.345h-2.02v8.085c0,2.029-.99,2.892-2.62,2.892-1.65,0-2.63-.863-2.63-2.892v-8.085h-2.16v8.117c0,3.019,1.86,4.5,4.74,4.5s4.69-1.533,4.69-4.5v-8.117Zm14.97,0h-2.13l-1.64,5.9c-0.45,1.6-.8,3.036-1.15,4.521h-0.23c-0.38-1.518-.7-2.971-1.16-4.585l-1.62-5.832h-2.32l3.76,12.4h2.69Z" transform="translate(-764.656 -131.75)"/>
</svg>
