<?xml version="1.0" encoding="utf-8"?>
<!-- Generator: Adobe Illustrator 26.0.3, SVG Export Plug-In . SVG Version: 6.00 Build 0)  -->
<svg version="1.1" id="head-block-02_sp.svg" xmlns="http://www.w3.org/2000/svg" xmlns:xlink="http://www.w3.org/1999/xlink"
	 x="0px" y="0px" viewBox="0 0 562 113.3" style="enable-background:new 0 0 562 113.3;" xml:space="preserve">
<style type="text/css">
	.st0{fill:none;}
	.st1{opacity:0.2;fill:#1E9FE0;enable-background:new    ;}
	.st2{fill:#1147B4;}
</style>
<rect class="st0" width="562" height="113.3"/>
<g>
	
		<rect id="長方形_978_00000170256793883245297300000005206695029923141037_" x="164.6" y="40.7" class="st1" width="247.2" height="12.4"/>
	<path d="M153,18.3c-0.3,0.3-0.5,0.5-0.8,0.8c3.5,2.8,9.3,5.4,14.5,6.7c-0.9,0.9-2.3,2.6-2.9,3.7c-2.8-0.9-5.8-2.3-8.6-3.9v2.1
		h-12.5V26c-2.4,1.4-5,2.5-7.5,3.5c-0.6-1.1-1.8-2.7-3-3.7c6.1-2,13-5.4,16.8-9.7L153,18.3z M160.9,30.3c-1.2,2.3-2.6,4.6-4,6.8h4.5
		v13.1H157V49h-14.4v1.2h-4.2V37.1h13.4c0.8-1.3,1.7-2.7,2.5-4.1h-16.9v-3.7h19.3l0.8-0.2L160.9,30.3z M157,40.7h-14.4v4.5H157V40.7
		z M153.2,24.2c-1.3-0.9-2.4-1.8-3.5-2.7c-1.2,0.9-2.4,1.9-3.7,2.7H153.2z"/>
	<path class="st2" d="M169.2,44l4.2-5.8c2.6,2.5,5.8,4.7,10.1,4.7c4.8,0,8.1-2.8,8.1-7.8s-3.1-7.8-7.8-7.8c-2.7,0-4.2,0.7-6.9,2.4
		l-4.2-2.7l1.2-22.3h24.6v7.6H182l-0.9,9.7c1.9-0.8,3.4-1.2,5.5-1.2c7.7,0,14.2,4.3,14.2,13.9c0,9.9-7.6,15.6-16.1,15.6
		C177.4,50.3,172.6,47.4,169.2,44z"/>
	<path class="st2" d="M206.8,26.8c0-15.1,6.1-23,15.6-23s15.5,7.9,15.5,23c0,15.2-6.1,23.5-15.5,23.5S206.8,42,206.8,26.8z
		 M229.3,26.8c0-12.4-2.9-15.9-6.9-15.9s-7,3.5-7,15.9c0,12.5,3,16.3,7,16.3C226.4,43.1,229.3,39.3,229.3,26.8z"/>
	<path class="st2" d="M241.8,28.2c0-5.3,2.7-8.4,6.5-8.4s6.5,3.1,6.5,8.4c0,5.4-2.7,8.5-6.5,8.5S241.8,33.5,241.8,28.2z M251.1,28.2
		c0-3.9-1.2-5.4-2.8-5.4c-1.5,0-2.7,1.5-2.7,5.4s1.2,5.5,2.7,5.5C249.9,33.7,251.1,32.1,251.1,28.2z M263.7,19.8h3.1l-14.5,27.7
		h-3.1L263.7,19.8z M261.2,38.9c0-5.4,2.7-8.4,6.5-8.4s6.5,3.1,6.5,8.4s-2.7,8.5-6.5,8.5C263.9,47.4,261.2,44.3,261.2,38.9z
		 M270.5,38.9c0-3.9-1.2-5.4-2.8-5.4c-1.5,0-2.7,1.5-2.7,5.4s1.2,5.5,2.7,5.5S270.5,42.9,270.5,38.9z"/>
	<path class="st2" d="M277.5,25.2l1.4-2.4l-2.5-1.1l0.5-1.6l2.7,0.6l0.3-2.7h1.7l0.3,2.8l2.7-0.6l0.5,1.6l-2.5,1.1l1.4,2.4l-1.3,1
		l-1.8-2.1l-1.8,2.1L277.5,25.2z"/>
	<path class="st2" d="M286.9,33.2c4.1-3.9,6.7-6.5,6.7-8.8c0-1.5-0.8-2.5-2.3-2.5c-1.1,0-2.1,0.8-2.9,1.6l-1.7-1.7
		c1.4-1.5,2.8-2.4,4.9-2.4c2.9,0,4.9,1.9,4.9,4.7c0,2.6-2.4,5.4-5.2,8.3c0.8-0.1,1.8-0.2,2.5-0.2h3.4v2.6h-10.4v-1.6H286.9z"/>
	<path class="st2" d="M319.9,41.2c4.3,1.5,10,3.7,13,5.3l-2,3.7c-3.2-1.8-9.8-4.6-14.4-6.3l1.6-2.7h-1.3c-1.7,4.4-5.6,7.3-15.2,8.9
		c-0.3-1.2-1.3-3-2.1-3.9c7.2-1,10.6-2.6,12.3-5h-10.7v-3.6h12.1c0.1-0.6,0.2-1.2,0.3-1.9h-13.3V32H314v-2h-10.7v-3.6H314v-1.8
		h-12.7v-3.8h6.8c-0.5-1.1-1.3-2.2-2-3.2l3.8-1.5c1.1,1.3,2.2,3,2.7,4.2l-1,0.5h7.9c0.9-1.4,2-3.3,2.6-4.7l4.6,1.2
		c-0.8,1.3-1.6,2.4-2.4,3.5h6.9v3.8h-12.7v1.8h11V30h-11v2h14.3v3.7H318c-0.1,0.6-0.2,1.3-0.3,1.9h14v3.6H319.9z"/>
	<path class="st2" d="M355.3,28.8c-0.2,0.3-0.4,0.6-0.6,0.9c4,4.2,8.9,6.7,14.5,8.8c-1,0.9-2.1,2.3-2.7,3.6
		c-1.3-0.6-2.5-1.2-3.7-1.8v9.8h-4.4v-1h-12.3v1H342v-9.4c-1.3,0.6-2.5,1.2-3.9,1.8c-0.6-1-1.7-2.6-2.7-3.5
		c6.7-2.3,12.9-6.3,16.1-11.8L355.3,28.8z M341.2,27.1H337v-7.7h13.3c-0.3-0.8-0.7-1.6-1-2.3l4.5-1c0.5,1,1.1,2.2,1.5,3.3h12.5v7.7
		h-4.4v-3.9h-22.1L341.2,27.1L341.2,27.1z M349.9,25.3c-2.3,3.2-5.9,6.3-9.3,8.1c-0.6-0.8-2.1-2.5-2.9-3.3c3.1-1.4,6.3-3.7,8.1-6.2
		L349.9,25.3z M358.5,45.3v-3.8h-12.3v3.8H358.5z M358.5,37.7c-2.1-1.4-4.1-3.1-6.1-5.1c-1.7,1.9-3.5,3.6-5.6,5.1H358.5z M357.5,24
		c3.1,1.8,7.1,4.5,9,6.5l-3.1,2.7c-1.8-1.9-5.7-4.9-8.8-6.8L357.5,24z"/>
	<path class="st2" d="M377.3,33.5c-1.2-1.2-3.8-3-5.8-4.3l2.5-2.9c1.9,1,4.6,2.7,5.9,3.9L377.3,33.5z M371.7,47.3
		c1.4-2.7,3.3-7.2,4.8-11.3l3.3,2.3c-1.3,3.8-2.8,7.9-4.4,11.4L371.7,47.3z M404.4,28.1c-1,5.8-3,10.4-5.6,14.2
		c2,1.9,4.3,3.4,6.8,4.4c-0.9,0.8-2.2,2.4-2.8,3.4c-2.4-1.2-4.6-2.9-6.5-4.9c-1.9,2-4.1,3.6-6.6,4.9c-0.5-0.9-1.5-2.4-2.4-3.2V50
		h-3.8V35.7c-0.6,0.7-1.2,1.4-1.8,2.1c-0.6-0.8-1.9-2.1-2.8-2.7c2.8-2.8,5.4-7.4,6.5-11h-4.3v-2.2l-2.4,2.6c-1-1.3-3.5-3.3-5.4-4.6
		l2.6-2.8c1.7,1,3.9,2.6,5.2,3.8V20h9.9c-0.4-0.9-0.8-1.8-1.2-2.7l3.9-1.1c0.6,1.2,1.3,2.6,1.8,3.7h9.5v4h-11.6l3.5,0.9
		c-0.3,0.8-0.6,1.5-0.9,2.4h5.2l0.7-0.1L404.4,28.1z M389.5,25c-0.6,1.5-1.4,3.2-2.2,4.8V35c2.6-3,4.6-7.4,5.7-11h-6.8L389.5,25z
		 M387.2,46.9c2.4-1,4.6-2.7,6.5-4.7c-1.2-1.7-2.3-3.4-3.2-5.3c-0.5,0.6-1,1.3-1.6,1.8c-0.4-0.5-1.1-1.2-1.7-1.8L387.2,46.9
		L387.2,46.9z M392.7,33.7c0.9,2,2,3.9,3.4,5.6c0.5-0.8,1-1.7,1.4-2.5c-1.2-1-3.1-2.4-4.6-3.4L392.7,33.7z M394.4,30.6l-0.1,0.3
		c1.6,0.9,3.4,2.1,4.5,3.1c0.4-1.1,0.8-2.2,1.1-3.4H394.4z"/>
	<path d="M420.2,38.3c2.8-0.9,4.4-2.4,4.6-4.4c-0.1,0-0.3,0-0.4,0c-1.8,0-3.4-1.2-3.4-3.2s1.6-3.2,3.5-3.2c2.6,0,3.9,1.9,3.9,4.9
		c0,4.1-2.6,7.4-7.1,8.7L420.2,38.3z"/>
</g>
<g>
	
		<rect id="長方形_978-2_00000086674564504198646750000003282652375441200040_" x="146.2" y="100.9" class="st1" width="260.3" height="12.4"/>
	<g>
		<path d="M91.2,95.8c-1.1,0.4-2.3,0.7-3.5,1v8.5c0,2-0.3,3-1.4,3.7c-1,0.7-2.6,0.9-4.9,0.8c-0.1-1-0.6-2.8-1.1-3.9c1.3,0,2.6,0,3,0
			s0.6-0.1,0.6-0.6V98l-3.4,1l-0.9-4.1c1.3-0.3,2.7-0.6,4.4-1v-6.4h-3.8v-4H84v-6.8h3.9v6.8H91v4h-3.3v5.3c1-0.3,2-0.5,2.9-0.8
			L91.2,95.8z M106.4,92.4c0.8,7.2,2,12.3,3.2,12.4c0.5,0,0.8-1.5,1-4.4c0.6,0.8,2.2,1.9,2.8,2.2c-0.8,5.7-2.4,7-3.9,7
			c-3.9,0-6-6.9-7.1-17.1H97v8.9l4.4-1.5c0,1,0.2,2.5,0.3,3.3c-7,2.6-8.2,3.2-8.9,3.8c-0.2-0.9-0.9-2.6-1.5-3.4
			c0.8-0.3,1.7-1,1.7-2.5V80.4h0.1v-0.1c5.7-0.8,11.9-2.2,15.7-3.7l3.2,3.2c-1.8,0.7-4,1.3-6.2,1.8c0.1,2.4,0.2,4.7,0.4,6.8h6.8v4
			C113,92.4,106.4,92.4,106.4,92.4z M95.9,105.9h8.9v3.5h-8.9V105.9z M102.2,88.5c-0.1-1.9-0.3-3.9-0.3-6c-1.6,0.3-3.3,0.6-4.9,0.9
			v5.2L102.2,88.5L102.2,88.5z"/>
		<path d="M128.7,95.8c-1.4,0.4-2.8,0.8-4.2,1.1v8.5c0,2.1-0.4,3.1-1.6,3.7c-1.2,0.7-3,0.8-5.5,0.8c-0.1-1.1-0.7-2.8-1.2-3.9
			c1.4,0,2.9,0,3.4,0s0.7-0.2,0.7-0.7v-7.4l-4.2,1.1l-0.8-4.2c1.4-0.3,3.2-0.6,5-1.1v-6.4H116v-4h4.4v-6.8h4.2v6.8h3.8v4h-3.8v5.4
			l3.7-0.9L128.7,95.8z M145.8,106.3c0.2,0,0.4,0,0.5-0.2c0.1-0.1,0.2-0.4,0.2-1.2c0-0.6,0.1-2.2,0.1-4.2c0.8,0.7,2.1,1.4,3.1,1.7
			c0,1.9-0.2,4.2-0.4,5.1c-0.3,0.9-0.6,1.5-1.2,1.9c-0.6,0.4-1.4,0.6-2.2,0.6H144c-0.9,0-1.9-0.3-2.5-0.9c-0.6-0.7-0.9-1.5-0.9-4.2
			V93.4h-4.9V96c0,4.8-1.2,11-7.1,14.6c-0.5-0.9-2.1-2.6-2.9-3.3c5.2-3.1,5.7-7.7,5.7-11.4v-6.4h13.4v15.3c0,0.8,0,1.2,0.1,1.4
			c0.1,0.1,0.2,0.2,0.4,0.2L145.8,106.3L145.8,106.3z M149.4,86.5h-20.5v-4.1h7.5c-0.4-1.4-1.2-3.6-1.9-5.1l4.1-1.1
			c0.8,1.6,1.7,3.8,2.2,5.2l-3.3,1h12v4.1H149.4z"/>
		<path class="st2" d="M181.8,82.4c3.4,10.5,9.9,19.3,19.6,23.5c-1.6,1.3-3.7,4-4.6,5.8c-9.6-4.7-15.6-13.1-19.6-23.9
			c-1.2,4-2.8,7.8-5.3,11.3l1.5-1c3.1,2.8,7.3,6.7,9.1,9.4l-5.5,4c-1.5-2.4-4.9-6-7.8-8.9c-3.2,3.5-7.3,6.6-12.6,9.1
			c-1-1.6-2.9-3.9-4.6-5.3c12.8-5.5,17.8-14.6,19.8-24h-18.2V76h19.1c0.4-4.5,0.4-9,0.4-12.9h6.8c-0.1,4-0.1,8.4-0.5,12.9H200v6.4
			H181.8z"/>
		<path class="st2" d="M233.2,89.6c-0.4,0.8-0.8,1.7-1.3,2.5h19.8l-0.2,2.1c-0.5,10-1.2,14.1-2.5,15.6c-0.9,1.2-1.9,1.6-3.2,1.8
			c-1.1,0.2-3,0.2-5,0.2c-0.1-1.6-0.6-3.8-1.4-5.1c1.5,0.2,2.7,0.2,3.3,0.2s1-0.1,1.5-0.6c0.6-0.7,1.1-3.2,1.5-9.3h-1.3
			c-2.4,6-6.1,11.3-10.3,14.7c-0.8-0.9-2.8-2.6-3.8-3.4c3.7-2.7,6.7-6.7,8.7-11.3h-2.6c-3,5.6-7.8,10.5-12.7,13.7
			c-0.7-0.9-2.4-3-3.4-3.9c4.2-2.3,8-5.8,10.5-9.8h-2.5c-1.8,2.1-3.8,3.9-5.8,5.3c-0.7-0.8-2.1-2.3-3.2-3.3
			c-0.8,0.5-1.7,0.7-2.8,0.9c-0.9,0.1-2.1,0.2-3.3,0.1c-0.1-1.5-0.5-3.8-1.4-5.3c0.9,0.1,1.6,0.1,2.3,0.1c0.6-0.1,1-0.2,1.5-0.5
			c0.6-0.4,0.8-1.5,0.8-2.9c0-2.4-0.7-5.6-3.6-9.1c1-3.3,2.1-7.8,3-11.4h-4.1v40.9h-5.4V65.2h11.3l0.9-0.3l4.1,2.3
			c-1.4,4.4-3.1,10.1-4.5,14.2c3.1,4,3.8,7.5,3.8,10.5c0,2-0.3,3.5-0.8,4.7c2.5-2,4.7-4.4,6.3-7.1H222v-4.9h31v4.9h-19.8V89.6z
			 M249.4,82.7h-23.3V64.9h23.3V82.7z M243.4,69.2h-11.8v2.5h11.8V69.2z M243.4,75.8h-11.8v2.6h11.8V75.8z"/>
		<path class="st2" d="M297.2,105.7c1.7,0,2-1.1,2.2-8.2c1.4,1,4.1,2.1,5.7,2.5c-0.6,9.1-2.2,11.6-7.4,11.6h-6.2
			c-5.9,0-7.4-2-7.4-7.9V87.8h-7.4c-0.9,11-3.3,19.3-16.9,23.9c-0.7-1.7-2.3-4.2-3.8-5.4c11.9-3.5,13.4-10,14.1-18.5h-12.7V82h20V63
			h6.3v19h20.5v5.8h-13.8v15.7c0,1.8,0.3,2.1,2,2.1L297.2,105.7L297.2,105.7z M266.6,80.2c-0.8-3.4-3.1-8.8-5.4-12.9l5.6-2.1
			c2.3,3.9,5,9.1,5.8,12.6L266.6,80.2z M301.4,67c-2.3,4.6-5,9.6-7.2,12.8l-5.4-2c2.2-3.5,4.7-8.9,6-13L301.4,67z"/>
		<path class="st2" d="M325.2,65c-1.4,3.6-3.1,7.3-5,10.7v35.8h-5.9V84.9c-1.1,1.5-2.3,2.9-3.5,4.2c-0.6-1.5-2.2-5-3.3-6.4
			c4.7-4.7,9.2-12.1,11.8-19.6L325.2,65z M335.7,93.7c-0.5,0.7-0.9,1.4-1.5,2h22.2c0,0-0.1,1.4-0.2,2.1c-0.8,7.5-1.8,10.8-3.1,12.2
			c-0.9,1-1.9,1.4-3.3,1.6c-1,0.1-3,0.2-4.9,0.1c-0.1-1.4-0.5-3.2-1.3-4.4c-1.6,1.9-3.3,3.5-5.1,4.8c-0.9-0.8-2.9-2.5-4.1-3.1
			c3.3-2.2,6.3-5.4,8.3-8.9h-3.3c-2.9,4.5-7.3,8.6-11.4,11.2c-0.8-0.9-2.7-2.6-3.8-3.3c3.5-2,6.9-4.7,9.3-7.9h-3.4
			c-1.7,1.6-3.5,3-5.3,4.2c-0.8-0.9-2.7-2.9-3.7-3.7c3.1-1.6,6.2-4.1,8.5-6.7h-7.3v-4.5h35.2v4.5h-21.8V93.7z M328.7,77
			c-0.7,1-1.5,1.9-2.2,2.7c-1-1-3.2-2.9-4.5-3.7c3.3-3.2,6.4-8.2,8.2-13l5.5,1.5c-0.4,0.9-0.7,1.8-1.1,2.7h22.1v4.5h-24.3
			c-0.4,0.7-0.8,1.4-1.2,2h21.7v13.9h-24.1V77H328.7z M334.3,79h12.6v-2h-12.6V79z M334.3,84.1h12.6v-2h-12.6V84.1z M348.2,100
			c-1.3,2.6-2.8,5-4.6,7c1.6,0.2,2.9,0.2,3.5,0.2c0.7,0,1.1-0.1,1.5-0.5c0.7-0.7,1.4-2.6,1.9-6.7H348.2z"/>
		<path class="st2" d="M408.5,89.5v5H362v-5h20.2v-2.2H367v-4.5h15.3V81c-5.2,0.2-10.4,0.3-15.2,0.2c-0.1-0.9-0.3-2.1-0.7-3.1h-3.2
			V67.3h19.5c-0.6-1.1-1.1-2.3-1.7-3.3l5.9-1.7c0.9,1.5,2,3.4,2.8,5h17.5V78h-3.7l0.6,0.7c-4.5,0.9-10.2,1.5-16.1,1.9v2.1h15.8v4.5
			H388v2.2h20.5V89.5z M369.2,96.5h32.5v15.1h-6.3v-1.4h-20.3v1.5h-5.9L369.2,96.5L369.2,96.5z M369.2,77c4.2-0.1,8.7-0.2,13-0.4
			v-3.2h5.8v2.8c4.8-0.3,9.3-0.8,12.6-1.4l0.3,0.3v-2.3h-31.6L369.2,77L369.2,77z M375.1,101.3v4h20.3v-4H375.1z"/>
		<path d="M412.8,78h17.1v3.6h-4.5v3.5h4.3v24.6h-3.5v-1.8h-9.7v2.3h-3.3V85.1h4v-3.5h-4.5L412.8,78z M426.3,104.5v-8.2h-0.1h-1.4
			c-1.9,0-2.4-0.6-2.4-3v-4.7h-1.7v2.6c0,2.1-0.4,4.7-2.4,6.5c-0.4-0.4-1.3-1.2-1.8-1.5v8.3C416.5,104.5,426.3,104.5,426.3,104.5z
			 M416.5,88.6V96c1.6-1.4,1.8-3.3,1.8-4.8v-2.6H416.5z M417.6,99h7.6v3.2h-7.6V99z M422.1,81.6h-1.5v3.5h1.5V81.6z M426.3,88.6
			h-1.5v4.6c0,0.6,0.1,0.6,0.4,0.6h0.7c0.3,0,0.4,0,0.5-0.1v-5.1H426.3z M440.6,105.8c1.3,0,1.5-0.9,1.7-5.7
			c0.9,0.7,2.7,1.4,3.8,1.7c-0.4,6.1-1.5,7.9-5.1,7.9h-4.8c-3.9,0-5.1-1.3-5.1-5.6V89.6h9.5v-7.3H431v-4.1h13.7v15.4h-9.4V104
			c0,1.4,0.2,1.7,1.5,1.7h3.8V105.8z"/>
		<path d="M463,86.6c-0.1,1.4-0.2,2.9-0.4,4.4H478c0,0,0,1.3-0.1,1.9c-0.6,9.8-1.4,13.8-2.9,15.3c-1.1,1.2-2.2,1.5-3.9,1.7
			c-1.4,0.1-3.8,0.1-6.2,0c-0.1-1.3-0.7-3.1-1.5-4.2c2.4,0.2,5,0.3,6,0.3c0.8,0,1.3-0.1,1.8-0.5c0.9-0.8,1.6-3.9,2.1-10.3H462
			c-1.2,6-3.9,11.6-10.4,15.3c-0.6-1.2-2-2.6-3.1-3.5c8.6-4.6,9.3-12.7,9.7-20.3h-9.1v-4.2h15.2c-0.6-1.4-1.4-3.2-2.2-4.6l4.2-1.6
			c1,1.6,2.1,3.8,2.6,5.2l-2.5,1.1h14.8v4.2H463V86.6z"/>
	</g>
</g>
</svg>
