<svg id="head-block-01.svg" xmlns="http://www.w3.org/2000/svg" width="217" height="123.78" viewBox="0 0 217 123.78">
  <defs>
    <style>
      .cls-1, .cls-2 {
        fill: #1e9fe0;
        opacity: 0.2;
      }

      .cls-2, .cls-3, .cls-4 {
        fill-rule: evenodd;
      }

      .cls-3 {
        fill: #1147b4;
      }
    </style>
  </defs>
  <rect id="長方形_978" data-name="長方形 978" class="cls-1" y="27.78" width="217" height="10"/>
  <path id="長方形_978-2" data-name="長方形 978" class="cls-2" d="M315.3,1273H505l0.437,10H315.3v-10Z" transform="translate(-302 -1159.22)"/>
  <path id="低刺激設計_" data-name="低刺激設計 " class="cls-3" d="M344.913,1261.15c2.979-.14,4.053-0.1,4.4-0.14,0.381-.03.416-0.07,0.381-0.42l-0.1-2.43c0-.39-0.035-0.46-0.416-0.42s-1.351.14-4.331,0.31l-2.321.14c-0.242-1.84-.45-3.9-0.589-6.23,1.421-.38,2.772-0.8,4.158-1.29a6.649,6.649,0,0,1,1.489-.31,0.485,0.485,0,0,0,.555-0.42,0.842,0.842,0,0,0-.277-0.62,13.613,13.613,0,0,0-2.391-2.51,11.218,11.218,0,0,1-1.975,1.08,49.914,49.914,0,0,1-10.809,2.71,14.342,14.342,0,0,0-2.772-.69,34.55,34.55,0,0,1,.208,5.01v14.34a26.286,26.286,0,0,1-3.014.45,26.24,26.24,0,0,0,.8,3.24,0.54,0.54,0,0,0,.451.45,0.721,0.721,0,0,0,.52-0.17,2.811,2.811,0,0,1,1.178-.53c2.563-.59,5.647-1.42,8.419-2.33,1-.35,1-0.41.97-1.46a12.326,12.326,0,0,1,.1-2.12c-2.183.73-4.123,1.29-5.925,1.7v-6.82l6.029-.28a44.313,44.313,0,0,0,1.455,5.99c1.593,4.87,3.36,7.34,5.89,7.34,1.628,0,3.014-1.11,3.707-4.52,0.208-1.08.208-1.11-.763-1.67a6.349,6.349,0,0,1-1.732-1.39c-0.312,2.47-.658,3.48-1.386,3.48-0.623,0-1.316-1.01-2.494-4.35a37.23,37.23,0,0,1-1.317-5.02Zm-11.3-7.48c1.732-.28,3.361-0.56,4.954-0.91,0.174,1.95.347,3.83,0.589,5.57l-5.543.28v-4.94Zm-11.329,19.35c0,3.41-.069,5.08-0.069,5.29,0,0.35.034,0.38,0.346,0.38h2.91c0.347,0,.381-0.03.381-0.38,0-.18-0.069-1.88-0.069-5.29v-18.1c0.693-1.5,1.351-3.03,1.94-4.66a3.313,3.313,0,0,1,.693-1.43,0.7,0.7,0,0,0,.381-0.59,0.593,0.593,0,0,0-.554-0.53,26.928,26.928,0,0,0-3.291-1.04,11.788,11.788,0,0,1-.555,2.44,30.83,30.83,0,0,1-6.2,11.13,9.83,9.83,0,0,1,1.108,3.03c0.139,0.46.243,0.63,0.381,0.63a1.061,1.061,0,0,0,.589-0.45c0.728-.87,1.421-1.74,2.079-2.68-0.035,1.53-.069,3.06-0.069,4.31v7.94Zm18.189,4.63c3.014,0,4.019.07,4.227,0.07,0.381,0,.416-0.04.416-0.42v-2.58c0-.34-0.035-0.38-0.416-0.38-0.208,0-1.213.07-4.227,0.07h-6.652c-3.014,0-4.054-.07-4.262-0.07-0.311,0-.346.04-0.346,0.38v2.58c0,0.38.035,0.42,0.346,0.42,0.208,0,1.248-.07,4.262-0.07h6.652Zm24.219-23.71v2.68h-1.906c-3.083,0-4.157-.06-4.4-0.06-0.346,0-.381.03-0.381,0.38,0,0.24.069,0.97,0.069,2.85v3.8c0,1.81-.069,2.54-0.069,2.75,0,0.34.035,0.38,0.381,0.38h2.668c0.381,0,.416-0.04.416-0.38,0-.21-0.07-0.91-0.07-2.55v-4.21H364.7v4.39a21.669,21.669,0,0,1-8.7,9.12,8.384,8.384,0,0,1,1.628,2.23,1.017,1.017,0,0,0,.624.73,1.374,1.374,0,0,0,.762-0.46,25.316,25.316,0,0,0,5.751-6.33c-0.069,4.28-.208,8.32-0.208,9.12,0,0.35.035,0.38,0.381,0.38h2.807c0.346,0,.381-0.03.381-0.38,0-.8-0.174-5.33-0.243-9.85a21.988,21.988,0,0,0,5.128,5.74,1.4,1.4,0,0,0,.762.45,0.993,0.993,0,0,0,.554-0.76,9.808,9.808,0,0,1,1.559-2.44c-3.568-2.09-5.889-3.93-7.9-7.24v-4.7h3.534v3.17c0,0.59-.139.73-0.693,0.73a10.319,10.319,0,0,1-1.49-.1,5.841,5.841,0,0,1,.763,1.98c0.207,1.05.207,1.08,1.316,1.08a3.79,3.79,0,0,0,2.564-.59,2.817,2.817,0,0,0,.831-2.33c0-.87-0.069-1.57-0.069-3v-1.39c0-1.36.069-1.95,0.069-2.19,0-.35-0.034-0.38-0.381-0.38-0.242,0-1.282.06-4.4,0.06h-2.044v-2.68h2.425c3.257,0,4.366.07,4.574,0.07,0.346,0,.381-0.03.381-0.38v-2.5c0-.35-0.035-0.39-0.381-0.39-0.208,0-1.317.07-4.574,0.07h-2.425a7.359,7.359,0,0,1,.208-2.57,1.848,1.848,0,0,0,.208-0.77,0.516,0.516,0,0,0-.554-0.35c-1.213-.14-2.149-0.21-3.43-0.24a30.929,30.929,0,0,1,.277,3.93h-3.014c-3.223,0-4.331-.07-4.574-0.07-0.346,0-.381.04-0.381,0.39v2.5c0,0.35.035,0.38,0.381,0.38,0.243,0,1.351-.07,4.574-0.07H364.7Zm22.139-1.67c0-2.36,0-3.09.208-3.51a2.454,2.454,0,0,0,.173-0.77,0.485,0.485,0,0,0-.52-0.38c-1.213-.14-2.391-0.21-3.672-0.24a29.647,29.647,0,0,1,.277,4.97v20.89a1.148,1.148,0,0,1-1.386,1.39,36.04,36.04,0,0,1-3.742-.17,7.661,7.661,0,0,1,1.109,2.64c0.242,1.08.242,1.11,1.282,1.11,3.118,0,4.123-.24,5.093-0.87,1-.69,1.247-1.7,1.247-3.41,0-1.74-.069-4.49-0.069-6.92v-14.73Zm-9.978,12.36c0,2.96-.07,4.39-0.07,4.59,0,0.39.035,0.42,0.381,0.42h2.841c0.312,0,.347-0.03.347-0.42,0-.2-0.069-1.63-0.069-4.59v-9.61a17.991,17.991,0,0,1,.138-3.72,3.076,3.076,0,0,0,.208-0.77,0.411,0.411,0,0,0-.45-0.38c-1.213-.14-2.287-0.21-3.534-0.24a37.4,37.4,0,0,1,.208,5.15v9.57Zm32.007,5.74a21.664,21.664,0,0,1-.45,3.87,0.988,0.988,0,0,1-1.144.9,20.138,20.138,0,0,1-2.252-.17,6.8,6.8,0,0,1,.8,2.05c0.243,1.08.277,1.08,0.9,1.11,0.45,0.04.866,0.04,1.178,0.04,1.8,0,3.014-.73,3.43-2.05l0.139-.53a10.432,10.432,0,0,1,1.593,2.16,1.1,1.1,0,0,0,.624.7,1.515,1.515,0,0,0,.727-0.49,28.556,28.556,0,0,0,4.678-5.5,30.281,30.281,0,0,0,4.608,5.22,1.282,1.282,0,0,0,.727.45c0.208,0,.347-0.2.52-0.69a9.743,9.743,0,0,1,1.247-2.82,21.527,21.527,0,0,1-5.4-5.36,34.239,34.239,0,0,0,2.668-12.84c1.143,0,1.594.03,1.732,0.03,0.382,0,.416-0.03.416-0.38v-2.54c0-.35-0.034-0.39-0.416-0.39-0.173,0-.97.07-3.568,0.07h-3.742c0.347-1.04.624-2.08,0.9-3.09a5.178,5.178,0,0,1,.554-1.54,1.3,1.3,0,0,0,.381-0.76,0.7,0.7,0,0,0-.623-0.49c-0.728-.17-2.114-0.45-3.153-0.62a15.369,15.369,0,0,1-.381,2.92,31.594,31.594,0,0,1-3.534,9.47v-5.47c0-1.95.069-2.78,0.069-2.99,0-.31-0.034-0.35-0.381-0.35-0.242,0-.935.07-3.291,0.07h-0.9a9.25,9.25,0,0,0,.623-1.46,1.836,1.836,0,0,1,.451-0.77,0.542,0.542,0,0,0,.242-0.42,0.443,0.443,0,0,0-.415-0.41,29.015,29.015,0,0,0-3.153-.42,6.269,6.269,0,0,1-.312,1.67c-0.242.7-.381,1.18-0.658,1.81-1.767,0-2.425-.07-2.6-0.07-0.381,0-.415.04-0.415,0.35,0,0.24.069,1.04,0.069,2.99v3.9c0,1.98-.069,2.78-0.069,2.99,0,0.35.034,0.39,0.415,0.39,0.208,0,.97-0.04,3.257-0.04h0.1v2.05h-0.97c-2.772,0-3.638-.06-3.846-0.06-0.346,0-.381.03-0.381,0.38v2.19c0,0.38.035,0.42,0.381,0.42,0.173,0,.97-0.04,3.118-0.07-0.208,5.01-1.836,7.8-5.162,10.23a8.18,8.18,0,0,1,1.836,1.6,1.506,1.506,0,0,0,.728.66,1.757,1.757,0,0,0,.727-0.55,14.411,14.411,0,0,0,4.331-7.35h3.049Zm0.312-4.59c2.737,0,3.638.07,3.846,0.07,0.346,0,.381-0.04.381-0.42v-2.19c0-.35-0.035-0.38-0.381-0.38-0.208,0-1.109.06-3.846,0.06h-0.97v-2.05h0.208c1.9,0,2.667.04,3.049,0.04a5.813,5.813,0,0,1,1.177,1.25,0.812,0.812,0,0,0,.52.45,0.839,0.839,0,0,0,.555-0.49l0.762-1.21a31.72,31.72,0,0,0,2.737,8.38,19.211,19.211,0,0,1-5.751,6.16,37.854,37.854,0,0,0,.623-5.7l0.1-1.78c0-.35-0.069-0.42-0.416-0.42-0.208,0-.762.07-2.286,0.07h-3.222c0.069-.59.1-1.18,0.138-1.84h2.772Zm11.121-9.4a32.682,32.682,0,0,1-1.42,9.29,35.274,35.274,0,0,1-2.218-9.18l0.035-.11h3.6Zm-11.19,2.16h-4.851v-1.81h4.851v1.81Zm0-5.88v1.77h-4.851v-1.77h4.851Zm-15.8,23.49a16.94,16.94,0,0,0,2.494,1.78,1.42,1.42,0,0,0,.589.2,0.449,0.449,0,0,0,.382-0.52,4.283,4.283,0,0,1,.45-1.35,66.084,66.084,0,0,0,2.564-7.63c0.277-1.01.277-1.01-.693-1.7a11.2,11.2,0,0,1-1.7-1.53,53.838,53.838,0,0,1-2.633,8A14.624,14.624,0,0,1,393.309,1276.15Zm0-18.17a0.8,0.8,0,0,0-.208.42,0.371,0.371,0,0,0,.243.28,23.8,23.8,0,0,1,4.365,3.65c0.277,0.25.381,0.21,0.658-.17l1.421-2.05a0.974,0.974,0,0,0,.208-0.46,0.457,0.457,0,0,0-.208-0.28,21.12,21.12,0,0,0-4.4-3.34,0.422,0.422,0,0,0-.693.11Zm1.039-8.52c-0.277.38-.277,0.45,0,0.66a20.558,20.558,0,0,1,4.158,3.65c0.277,0.28.346,0.24,0.623-.1l1.594-1.99a0.877,0.877,0,0,0,.208-0.42,0.493,0.493,0,0,0-.208-0.31,27.623,27.623,0,0,0-4.227-3.44c-0.277-.21-0.381-0.18-0.658.17Zm54.84,11.97c-3.015,0-4.019-.07-4.227-0.07-0.347,0-.381.03-0.381,0.35v2.43c0,0.39.034,0.42,0.381,0.42,0.1,0,.554-0.03,1.559-0.03a21.683,21.683,0,0,0,4.088,7.24,23.644,23.644,0,0,1-7.726,3.89v-5.39c0-1.64.069-2.47,0.069-2.68,0-.35-0.034-0.38-0.381-0.38-0.242,0-.935.07-3.187,0.07H436.3c-2.217,0-2.945-.07-3.153-0.07-0.381,0-.415.03-0.415,0.38,0,0.24.069,1.08,0.069,3.27v2.23c0,4.21-.069,5.01-0.069,5.25,0,0.35.034,0.39,0.415,0.39h2.46c0.347,0,.381-0.04.381-0.39v-1.81h3.742v1.15c0,0.35.035,0.38,0.381,0.38h2.46c0.347,0,.381-0.03.381-0.38,0-.14-0.034-0.59-0.069-1.98a6.742,6.742,0,0,1,1.628,2.05c0.312,0.63.451,0.87,0.728,0.87a2.155,2.155,0,0,0,.8-0.24,26.289,26.289,0,0,0,7.068-4.21,25.709,25.709,0,0,0,7.033,4.03,3.112,3.112,0,0,0,.8.25c0.277,0,.381-0.28.693-0.94a11.571,11.571,0,0,1,1.489-2.44,22.894,22.894,0,0,1-7.518-3.34,25.306,25.306,0,0,0,4.123-6.47,2.324,2.324,0,0,1,.832-1.08,0.65,0.65,0,0,0,.381-0.63,3.253,3.253,0,0,0-1.074-1.46,2.907,2.907,0,0,0-1.317-.98,1.151,1.151,0,0,0-.52.18,1.836,1.836,0,0,1-.762.14h-8.072Zm7.137,3.06a17.235,17.235,0,0,1-3.257,5.05,16.617,16.617,0,0,1-3.153-5.05h6.41Zm-16.6,5.67v3.48h-3.742v-3.48h3.742Zm14.482-18.96v5.11a2.556,2.556,0,0,0,.936,2.4,5.948,5.948,0,0,0,2.945.49c1.836,0,2.945-.24,3.534-0.8,0.8-.66,1.143-1.64,1.247-3.72,0.034-.91.069-0.98-0.8-1.26a9.918,9.918,0,0,1-2.044-.94,9.194,9.194,0,0,1-.347,3.14,0.985,0.985,0,0,1-.935.48,1.253,1.253,0,0,1-.97-0.21,1.741,1.741,0,0,1-.243-1.18v-3.62c0-1.77.07-2.61,0.07-2.82,0-.35-0.035-0.38-0.381-0.38-0.208,0-.9.07-3.119,0.07h-3.464c-2.218,0-2.841-.07-3.049-0.07-0.381,0-.416.03-0.416,0.38,0,0.21.069,1.01,0.069,2.58,0,3.93-1.281,5.98-3.6,7.58a7.116,7.116,0,0,1,1.906,1.54,1.456,1.456,0,0,0,.831.66,1.472,1.472,0,0,0,.832-0.56c2.079-1.98,3.326-4.49,3.395-8.87h3.6Zm-18.778,1.7c-2.633,0-3.5-.07-3.672-0.07-0.347,0-.382.04-0.382,0.38v2.48c0,0.38.035,0.41,0.382,0.41,0.173,0,1.039-.07,3.672-0.07h4.5c2.633,0,3.5.07,3.707,0.07,0.347,0,.381-0.03.381-0.41v-2.48c0-.34-0.034-0.38-0.381-0.38-0.208,0-1.074.07-3.707,0.07h-4.5Zm0.936-4.77c-2.252,0-2.945-.07-3.153-0.07-0.347,0-.381.04-0.381,0.39v2.33c0,0.35.034,0.38,0.381,0.38,0.208,0,.9-0.07,3.153-0.07h3.152c2.252,0,2.911.07,3.118,0.07,0.382,0,.416-0.03.416-0.38v-2.33c0-.35-0.034-0.39-0.416-0.39-0.207,0-.866.07-3.118,0.07h-3.152Zm0.138,9.75c-2.113,0-2.737-.07-2.945-0.07-0.346,0-.381.03-0.381,0.35v2.26c0,0.35.035,0.38,0.381,0.38,0.208,0,.832-0.07,2.945-0.07h2.737c2.114,0,2.737.07,2.91,0.07,0.382,0,.416-0.03.416-0.38v-2.26c0-.32-0.034-0.35-0.416-0.35-0.173,0-.8.07-2.91,0.07h-2.737Zm0,4.66c-2.113,0-2.737-.07-2.945-0.07-0.346,0-.381.04-0.381,0.39v2.22c0,0.35.035,0.39,0.381,0.39,0.208,0,.832-0.07,2.945-0.07h2.737c2.114,0,2.737.07,2.91,0.07,0.382,0,.416-0.04.416-0.39v-2.22c0-.35-0.034-0.39-0.416-0.39-0.173,0-.8.07-2.91,0.07h-2.737Zm52.8-4.38h-1.94c-3.153,0-4.227-.07-4.435-0.07-0.381,0-.415.03-0.415,0.41v2.82c0,0.35.034,0.39,0.415,0.39,0.208,0,1.282-.07,4.435-0.07h1.94v10.54c0,3.9-.069,5.88-0.069,6.06,0,0.38.035,0.42,0.346,0.42H492.7c0.311,0,.346-0.04.346-0.42,0-.18-0.069-2.16-0.069-6.09v-10.51h2.217c3.153,0,4.227.07,4.4,0.07,0.381,0,.416-0.04.416-0.39v-2.82c0-.38-0.035-0.41-0.416-0.41-0.173,0-1.247.07-4.4,0.07h-2.217v-6.23c0-2.58.069-3.45,0.242-3.87a2.906,2.906,0,0,0,.174-0.69,0.528,0.528,0,0,0-.555-0.39c-1.143-.14-2.494-0.2-3.811-0.24a32.546,32.546,0,0,1,.277,5.26v6.16Zm-7.934,12.04c0-1.64.07-2.47,0.07-2.68,0-.35-0.035-0.38-0.381-0.38-0.243,0-.971.07-3.188,0.07h-4.261c-2.218,0-2.945-.07-3.153-0.07-0.381,0-.416.03-0.416,0.38,0,0.24.069,1.08,0.069,3.27v2.3c0,4.21-.069,5.01-0.069,5.22,0,0.35.035,0.38,0.416,0.38h2.7c0.347,0,.381-0.03.381-0.38v-1.74h4.4v1.11c0,0.35.035,0.38,0.381,0.38h2.738c0.346,0,.381-0.03.381-0.38,0-.21-0.07-0.97-0.07-5.01v-2.47Zm-3.43-.04v3.45h-4.4v-3.45h4.4Zm-5.578-17.33c-2.633,0-3.5-.07-3.672-0.07-0.347,0-.381.04-0.381,0.38v2.48c0,0.38.034,0.41,0.381,0.41,0.173,0,1.039-.07,3.672-0.07h6.375c2.633,0,3.5.07,3.707,0.07,0.312,0,.347-0.03.347-0.41v-2.48c0-.34-0.035-0.38-0.347-0.38-0.208,0-1.074.07-3.707,0.07H472.36Zm1.352-4.7c-2.252,0-2.945-.07-3.153-0.07-0.347,0-.381.04-0.381,0.39v2.29c0,0.35.034,0.39,0.381,0.39,0.208,0,.9-0.07,3.153-0.07h4.33c2.218,0,2.911.07,3.118,0.07,0.382,0,.416-0.04.416-0.39v-2.29c0-.35-0.034-0.39-0.416-0.39-0.207,0-.9.07-3.118,0.07h-4.33Zm0.1,9.64c-2.113,0-2.737-.07-2.944-0.07-0.347,0-.382.04-0.382,0.39v2.26c0,0.35.035,0.38,0.382,0.38,0.207,0,.831-0.07,2.944-0.07h3.846c2.079,0,2.7.07,2.91,0.07,0.382,0,.416-0.03.416-0.38v-2.26c0-.35-0.034-0.39-0.416-0.39-0.207,0-.831.07-2.91,0.07h-3.846Zm0,4.7c-2.113,0-2.737-.07-2.944-0.07-0.347,0-.382.04-0.382,0.39v2.22c0,0.35.035,0.39,0.382,0.39,0.207,0,.831-0.07,2.944-0.07h3.846c2.079,0,2.7.07,2.91,0.07,0.382,0,.416-0.04.416-0.39v-2.22c0-.35-0.034-0.39-0.416-0.39-0.207,0-.831.07-2.91,0.07h-3.846Z" transform="translate(-302 -1159.22)"/>
  <path id="のことを考えた" class="cls-4" d="M342.566,1217.49a5.673,5.673,0,0,1,5.576,5.81c0,4.72-3.311,6.47-7.518,7.47a5.294,5.294,0,0,1,1.743,1.58,0.79,0.79,0,0,0,1.07.45c5.054-1.53,7.668-4.45,7.668-9.1,0-4.98-3.511-8.68-9.485-8.68a10.87,10.87,0,0,0-8.091,3.2,9.231,9.231,0,0,0-2.813,6.5c0,4.08,2.216,6.43,4.406,6.43,1.867,0,3.162-1,4.232-2.88a31.312,31.312,0,0,0,3.112-10.78h0.1Zm-2.988.15a28.726,28.726,0,0,1-2.638,8.96c-0.672,1.2-1.22,1.52-1.867,1.52-0.772,0-1.693-1.27-1.693-3.57a7.227,7.227,0,0,1,1.942-4.63A7.522,7.522,0,0,1,339.578,1217.64Zm18.066,6.51a6.6,6.6,0,0,0-1.32,3.57c0,3.25,2.863,5.06,8.44,5.06a36.938,36.938,0,0,0,7.418-.61c0.3-.05.448-0.15,0.423-0.37a20.785,20.785,0,0,0-.4-2.45c-0.05-.23-0.174-0.3-0.523-0.23a31.525,31.525,0,0,1-6.746.73c-4.282,0-5.9-.78-5.9-2.35a4.106,4.106,0,0,1,.647-1.9,0.27,0.27,0,0,0-.124-0.45C358.913,1224.8,358.291,1224.47,357.644,1224.15Zm0.547-9.46c-0.049.9-.1,1.63-0.1,2.23a0.371,0.371,0,0,0,.323.45,30.876,30.876,0,0,0,4.357.42,18.243,18.243,0,0,0,2.041-.07c-0.871.53-1.966,1.23-3.261,2.08a5.815,5.815,0,0,1,1.743.8,1.04,1.04,0,0,0,.523.15,1.065,1.065,0,0,0,.622-0.23,14.605,14.605,0,0,1,6.1-2.48,0.422,0.422,0,0,0,.423-0.52,16.812,16.812,0,0,0-.124-2.13,0.282,0.282,0,0,0-.374-0.27c-1.593.1-3.46,0.22-5.277,0.22A31.28,31.28,0,0,1,358.191,1214.69Zm22.747-1.7a11.3,11.3,0,0,1,.647,2.9,38.252,38.252,0,0,0,1.294,6.11c-2.912,1.85-4.73,3.67-4.73,6.45,0,3.25,2.49,4.8,7.195,4.8a53.056,53.056,0,0,0,7.418-.37,0.394,0.394,0,0,0,.449-0.43,22.6,22.6,0,0,0-.249-2.33,0.312,0.312,0,0,0-.449-0.3,43.214,43.214,0,0,1-7.592.58c-2.863,0-3.959-.63-3.959-2.1,0-1.18.772-2.35,2.938-3.78a34.582,34.582,0,0,1,5.85-2.92,11.3,11.3,0,0,1,2.39-.75,0.5,0.5,0,0,0,.5-0.5,1.022,1.022,0,0,0-.174-0.53,13.02,13.02,0,0,0-1.818-2.35,6.063,6.063,0,0,1-1.717,1.35c-1.394.75-2.291,1.23-3.535,1.9a35.2,35.2,0,0,1-.8-4.3c-0.05-.58-0.124-1.18-0.124-1.68,0-.35.174-0.7,0.174-1.05a0.461,0.461,0,0,0-.448-0.4A14.643,14.643,0,0,0,380.938,1212.99Zm29.044,12.21c2.116-.88,3.734-1.43,5.352-2a7.948,7.948,0,0,1,1.519-.38,0.361,0.361,0,0,0,.373-0.35,1.006,1.006,0,0,0-.2-0.55,15.714,15.714,0,0,0-1.742-2.2,7.5,7.5,0,0,1-1.892,1.35c-1.27.65-2.689,1.3-3.66,1.75a2.753,2.753,0,0,0-3.037-2.7,4.9,4.9,0,0,0-2.489.78l-0.025-.05a26.042,26.042,0,0,0,1.867-2.78c1.817-.2,3.958-0.48,5.825-0.75,0.349-.05.448-0.15,0.423-0.4a8.389,8.389,0,0,0-.249-1.8c-0.05-.23-0.124-0.3-0.4-0.25a38.8,38.8,0,0,1-4.531.77c0.3-.67.423-1,0.573-1.35a2.008,2.008,0,0,1,.423-0.6,0.483,0.483,0,0,0,.174-0.37,0.454,0.454,0,0,0-.3-0.43,16.075,16.075,0,0,0-2.838-.7,6.136,6.136,0,0,1-.174,1.53,20.038,20.038,0,0,1-.747,2.15,54.665,54.665,0,0,1-5.725.02c0.074,0.75.174,1.68,0.249,2.08,0.049,0.28.124,0.4,0.348,0.4,1.469,0,2.813-.02,3.983-0.07a25.615,25.615,0,0,1-5.2,6.2,0.342,0.342,0,0,0-.174.27,0.417,0.417,0,0,0,.1.23,12.1,12.1,0,0,0,1.419,1.65,0.481,0.481,0,0,0,.273.17,0.432,0.432,0,0,0,.3-0.22,33.631,33.631,0,0,1,2.49-2.73,6,6,0,0,1,3.435-1.8c1.12-.05,1.419.45,1.494,1.73-3.759,1.95-5.253,3.7-5.253,6.1,0,2.9,2.166,4.13,6.249,4.13a43.315,43.315,0,0,0,6.173-.33c0.2,0,.3-0.17.274-0.47a11.344,11.344,0,0,0-.224-2.06,0.262,0.262,0,0,0-.348-0.27,43.082,43.082,0,0,1-6.2.5c-2.614,0-3.46-.68-3.46-1.73,0-1.2.8-2.17,3.012-3.32-0.025.9-.025,2.15-0.025,3.05a0.327,0.327,0,0,0,.324.4,13.234,13.234,0,0,0,1.767-.13,0.436,0.436,0,0,0,.473-0.45v-4.02Zm20.5-4.08a42.55,42.55,0,0,1-10.58,4.5,7.56,7.56,0,0,1,1.1,1.53,0.825,0.825,0,0,0,.523.62,1.594,1.594,0,0,0,.572-0.2c1.843-.7,3.585-1.45,5.253-2.25a29.478,29.478,0,0,1-2.116,4.48c-0.124.22-.1,0.3,0.224,0.37l1.992,0.35c0.3,0.05.348,0.03,0.448-.2,0.249-.47.473-1,0.722-1.55h7.891a7.649,7.649,0,0,1-.6,2.9,1.29,1.29,0,0,1-1.345.48,27.709,27.709,0,0,1-2.912-.25,5.557,5.557,0,0,1,.772,1.83c0.174,0.77.149,0.8,0.946,0.82a16.584,16.584,0,0,0,1.916.08,3.137,3.137,0,0,0,2.764-1.13,11.717,11.717,0,0,0,1.095-4.45c0.075-.65.124-1.48,0.174-2.15,0.025-.25-0.074-0.33-0.323-0.33-0.15,0-.822.05-2.913,0.05h-6.622c0.1-.25.2-0.5,0.274-0.75a64.369,64.369,0,0,0,8.315-1.25,6.968,6.968,0,0,1,1.394-.15,0.349,0.349,0,0,0,.423-0.3,0.625,0.625,0,0,0-.274-0.47,12.525,12.525,0,0,0-1.792-1.43,14.89,14.89,0,0,1-2.49.75,39.121,39.121,0,0,1-4.9.8,0.355,0.355,0,0,0,.05-0.15,34.563,34.563,0,0,0,3.834-2.55h4.954c2.19,0,2.962.05,3.111,0.05,0.224,0,.249-0.02.249-0.27v-1.78c0-.25-0.025-0.27-0.249-0.27-0.149,0-.921.05-3.111,0.05h-2.415a36.174,36.174,0,0,0,2.788-2.93,2.734,2.734,0,0,1,1.046-.93,0.387,0.387,0,0,0,.273-0.32,0.621,0.621,0,0,0-.323-0.48,16.411,16.411,0,0,0-2.191-1.25,7.779,7.779,0,0,1-1.12,1.85c-0.5.63-1,1.2-1.494,1.75v-1.65c0-.25-0.025-0.27-0.274-0.27-0.149,0-.9.05-3.161,0.05h-0.8v-0.13a5.189,5.189,0,0,1,.149-1.7,1.536,1.536,0,0,0,.15-0.52,0.355,0.355,0,0,0-.4-0.25c-0.872-.1-1.643-0.15-2.589-0.18a13.836,13.836,0,0,1,.174,2.6v0.18h-2.29c-2.266,0-3.038-.05-3.187-0.05-0.249,0-.274.02-0.274,0.27v1.78c0,0.25.025,0.27,0.274,0.27,0.149,0,.921-0.05,3.187-0.05h2.29v1.96H423.74c-2.19,0-2.937-.05-3.087-0.05-0.248,0-.273.02-0.273,0.27v1.78c0,0.25.025,0.27,0.273,0.27,0.15,0,.9-0.05,3.087-0.05h6.747Zm1.095-2.22v-1.96h0.8c1.966,0,2.763.05,3.037,0.05a23.921,23.921,0,0,1-2.041,1.91h-1.793Zm20.679-6.71a22.163,22.163,0,0,0-.846,2.33,0.334,0.334,0,0,0,.224.45,38.64,38.64,0,0,0,6.945,2.1,0.361,0.361,0,0,0,.423-0.28,15.3,15.3,0,0,0,.673-2.05c0.074-.35-0.025-0.5-0.274-0.55A44.166,44.166,0,0,1,452.261,1212.19Zm-5,7.78a17.554,17.554,0,0,0,1,2.8,0.52,0.52,0,0,0,.423.43,1.114,1.114,0,0,0,.523-0.15,8.957,8.957,0,0,1,1.344-.45c1.643-.43,3.311-0.83,5.178-1.33-2.663,2.88-3.958,4.33-4.929,5.33-1.593,1.62-3.112,3.17-4.7,4.8a0.6,0.6,0,0,0-.2.4,0.423,0.423,0,0,0,.125.25,13.637,13.637,0,0,0,1.742,1.53,0.5,0.5,0,0,0,.274.1,0.441,0.441,0,0,0,.349-0.18c0.846-1.05,2.663-3.25,3.783-4.4a3.54,3.54,0,0,1,2.341-1.25c0.871,0,1.17.7,1.568,2.4,0.523,2.48,1.718,3.45,5.377,3.45a21.679,21.679,0,0,0,3.66-.32c0.323-.05.448-0.15,0.448-0.4a13.174,13.174,0,0,0-.175-2.21,0.361,0.361,0,0,0-.448-0.37,16.964,16.964,0,0,1-3.858.45c-1.843,0-2.241-.4-2.739-2.45-0.423-1.78-1.543-2.53-2.713-2.53a3.094,3.094,0,0,0-.9.13c1.668-1.8,2.688-2.85,4.53-4.6a3.844,3.844,0,0,1,.8-0.58,0.672,0.672,0,0,0,.448-0.57,0.958,0.958,0,0,0-.274-0.58,5.832,5.832,0,0,0-1.468-1.32,0.709,0.709,0,0,0-.424-0.18,0.916,0.916,0,0,0-.547.18,3.781,3.781,0,0,1-1,.4c-1.021.22-2.415,0.5-4.332,0.8A28.006,28.006,0,0,1,447.257,1219.97Zm29.841-2.78c0.174-.62.348-1.47,0.6-2.37a4.8,4.8,0,0,1,.523-1,0.607,0.607,0,0,0,.125-0.4,0.412,0.412,0,0,0-.274-0.4,14.18,14.18,0,0,0-3.137-.7,17.371,17.371,0,0,1-.149,2.3c-0.175,1.02-.374,2.12-0.623,3.12a32.505,32.505,0,0,1-4.033.25,12.254,12.254,0,0,1-1.842-.07c0.125,0.9.249,1.75,0.349,2.28,0.05,0.32.149,0.4,0.523,0.4,1.17,0,2.912-.13,4.356-0.28a93.563,93.563,0,0,1-4.307,11.85,0.416,0.416,0,0,0,.2.51c0.522,0.3,1.742.82,1.991,0.92,0.274,0.08.423,0.1,0.548-.25,1.593-4.15,2.863-7.98,4.555-13.53a38.44,38.44,0,0,0,4.332-.95c0.324-.07.4-0.15,0.373-0.47-0.024-.53-0.1-1.26-0.174-1.81a0.27,0.27,0,0,0-.4-0.25C479.413,1216.69,478.069,1217.02,477.1,1217.19Zm0.448,11.48a4.906,4.906,0,0,0,1.12,3.43c1.12,1.18,2.813,1.63,6.074,1.63a28.35,28.35,0,0,0,3.386-.28c0.4-.02.423-0.1,0.4-0.4a15.631,15.631,0,0,0-.2-2.18,0.213,0.213,0,0,0-.3-0.22,38.292,38.292,0,0,1-4.183.35c-2.39,0-3.609-.53-3.809-2.35a0.322,0.322,0,0,0-.373-0.35A12.5,12.5,0,0,0,477.546,1228.67Zm1.942-4.72a27.023,27.023,0,0,1,5-.58,17.006,17.006,0,0,1,3.086.3c0.349,0.08.473-.02,0.473-0.45a17.916,17.916,0,0,0-.024-2c0-.3-0.075-0.32-0.424-0.37a18.042,18.042,0,0,0-2.912-.25,26.308,26.308,0,0,0-4.855.57c-0.373.08-.448,0.15-0.448,0.5C479.388,1222.17,479.438,1223.07,479.488,1223.95Z" transform="translate(-302 -1159.22)"/>
  <path id="デリケートな肌" class="cls-3" d="M327.327,1162.38a17.094,17.094,0,0,1,3.136,4.38,0.362,0.362,0,0,0,.558.17l1.568-.94a0.373,0.373,0,0,0,.174-0.56,16.271,16.271,0,0,0-2.962-4.06,0.355,0.355,0,0,0-.488-0.11Zm3.415-1.99a16.721,16.721,0,0,1,3.1,4.34,0.371,0.371,0,0,0,.592.17l1.464-.94a0.425,0.425,0,0,0,.174-0.63,15.392,15.392,0,0,0-2.962-3.92c-0.174-.18-0.279-0.25-0.488-0.11Zm-10,6.96c1.916,0,3.972.04,5.854,0.11,0.384,0,.453-0.18.453-0.67a15.508,15.508,0,0,0,0-2.55c0-.46-0.069-0.67-0.418-0.67-1.742.11-3.938,0.14-5.889,0.14h-6.413c-1.568,0-3.345-.03-5.785-0.17,0.105,1.26.14,2.52,0.244,3.36a0.5,0.5,0,0,0,.593.59c1.951-.07,3.345-0.14,4.948-0.14h6.413Zm5.157,8.13c2.4,0,4.809.07,6.622,0.14a0.489,0.489,0,0,0,.522-0.6c0.035-.45.035-2.24,0-2.7,0-.49-0.035-0.7-0.383-0.7-2.056.14-4.077,0.21-6.8,0.21H310.216c-2.021,0-3.973,0-5.924-.17a21.059,21.059,0,0,0,.279,3.36c0.035,0.46.139,0.7,0.453,0.67,1.777-.11,3.485-0.21,5.227-0.21h6.621c-0.139,3.32-.488,5.21-1.777,7.52-1.464,2.66-3.52,4.38-6.935,6.23a9.233,9.233,0,0,1,3.1,1.86,1.046,1.046,0,0,0,.732.35,2.166,2.166,0,0,0,1.045-.42,17.618,17.618,0,0,0,6.133-6.62c1.36-2.66,1.847-5,2.056-8.92h4.67Zm15.369-.91c0,1.5-.105,3.53-0.105,4.76-0.035.42,0.174,0.59,0.662,0.59h2.788a0.612,0.612,0,0,0,.767-0.7c-0.035-1.22-.105-2.59-0.105-4.41v-7.07a8.107,8.107,0,0,1,.384-3.33,1.46,1.46,0,0,0,.139-0.52,0.619,0.619,0,0,0-.593-0.56,26.146,26.146,0,0,0-4.321-.74,24.1,24.1,0,0,1,.384,5.11v6.87Zm16.413-6.83c0-2.17,0-3.08.314-3.82a1.083,1.083,0,0,0,.139-0.56,0.579,0.579,0,0,0-.487-0.59,21.4,21.4,0,0,0-4.531-.77,25.7,25.7,0,0,1,.384,5.7v6.62c0,4.45-.732,7.35-2.335,9.35-1.847,2.31-4.775,3.95-8.5,5.11a11.321,11.321,0,0,1,2.963,2.13,1.11,1.11,0,0,0,.836.42,2.3,2.3,0,0,0,.732-0.17,18,18,0,0,0,7.667-5.5c2.056-2.76,2.822-6.23,2.822-11.41v-6.51Zm28.433,5.07c2.126,0,4.948.07,6.377,0.14a0.465,0.465,0,0,0,.488-0.56c0.035-.94.035-1.89,0-2.83,0-.46-0.139-0.63-0.558-0.63-2.195.03-4.53,0.17-6.691,0.17H374.543c0.453-.87,1.08-2.13,1.6-3.36a3.461,3.461,0,0,1,1.045-1.43,0.8,0.8,0,0,0,.384-0.67,0.623,0.623,0,0,0-.418-0.59,25.013,25.013,0,0,0-4.182-1.61,14.784,14.784,0,0,1-1.394,4.83,36.928,36.928,0,0,1-8.225,11.41,10.417,10.417,0,0,1,3.241,1.26,0.806,0.806,0,0,0,.488.18,0.882,0.882,0,0,0,.593-0.28,33.439,33.439,0,0,0,4.844-6.03H379.7a19.654,19.654,0,0,1-2.405,9.18c-1.638,2.97-3.833,5.11-7.876,7.52a13.107,13.107,0,0,1,3.59,1.54,0.856,0.856,0,0,0,.592.25,1.227,1.227,0,0,0,.732-0.28,20.429,20.429,0,0,0,6.9-7.49c1.742-3.19,2.509-6.06,2.823-10.72h2.056Zm28.514,5.99c2.256,0,4.511.04,6.8,0.07,0.426,0.04.548-.1,0.548-0.52a29.6,29.6,0,0,0,0-3.29c0-.42-0.091-0.53-0.548-0.49-2.348.03-4.695,0.1-7.012,0.1H404.6a34.176,34.176,0,0,1-6.584-.42c0.122,1.79.3,3.43,0.457,4.24a0.708,0.708,0,0,0,.7.73,21.337,21.337,0,0,1,4.481-.42h10.975Zm18.735-12.18c0-1.96,0-2.84.244-3.29a1.889,1.889,0,0,0,.279-0.81,0.64,0.64,0,0,0-.662-0.59,25.138,25.138,0,0,0-4.357-.56,26.772,26.772,0,0,1,.349,5.18v17.22c0,2.24-.035,4.31-0.139,6.9,0,0.42.174,0.52,0.662,0.52a22.922,22.922,0,0,0,3.1,0c0.488,0,.662-0.1.627-0.52-0.069-2.52-.139-4.59-0.139-6.86v-7.74a38.9,38.9,0,0,1,9.165,4.48,0.544,0.544,0,0,0,.384.18,0.588,0.588,0,0,0,.453-0.39,20.518,20.518,0,0,0,1.5-3.04,0.647,0.647,0,0,0-.383-0.91,48.828,48.828,0,0,0-11.082-4.77v-5Zm33.17,15.19a18.542,18.542,0,0,0-2.753-.21c-3.938,0-6.447,2.07-6.447,5.11,0,3.01,2.579,4.97,6.412,4.97,3.973,0,6.482-1.61,6.482-5.11a25.938,25.938,0,0,1,4.252,2.94,0.542,0.542,0,0,0,.348.21,0.4,0.4,0,0,0,.314-0.24,21.712,21.712,0,0,0,1.6-2.84,0.461,0.461,0,0,0-.209-0.73,27.494,27.494,0,0,0-6.273-3.26,45.809,45.809,0,0,1-.383-5.95,3.642,3.642,0,0,1,.139-1.43,4.43,4.43,0,0,0,.209-0.74,0.54,0.54,0,0,0-.488-0.56,19.088,19.088,0,0,0-3.8-.67,12.454,12.454,0,0,1,.278,2.49C466.253,1177.44,466.323,1179.57,466.532,1181.81Zm0.07,3.33a4,4,0,0,1,.035.7c0,1.47-1.15,2.48-3.032,2.48-1.987,0-2.962-.56-2.962-1.68,0-1.33,1.359-2.03,3.1-2.03A8.851,8.851,0,0,1,466.6,1185.14Zm-5.681-17.96c0.314-1.05.593-2.14,0.837-2.98a3.819,3.819,0,0,1,.557-1.29,0.874,0.874,0,0,0,.314-0.67,0.6,0.6,0,0,0-.558-0.52,31.141,31.141,0,0,0-4.077-.74,13.655,13.655,0,0,1-.209,2.84c-0.244,1.26-.488,2.45-0.906,3.92-1.6.14-2.649,0.17-4.008,0.17-1.01,0-1.812-.03-3.241-0.14a18.488,18.488,0,0,0,.349,2.98c0.069,0.45.139,0.56,0.488,0.56,0.871,0.03,1.15.03,1.916,0.03,1.081,0,2.161,0,3.485-.07a70.384,70.384,0,0,1-6.029,12.22,0.693,0.693,0,0,0-.174.42,0.5,0.5,0,0,0,.244.39,16.541,16.541,0,0,0,2.405,1.78,0.922,0.922,0,0,0,.418.18,0.516,0.516,0,0,0,.383-0.35,96.842,96.842,0,0,0,6.8-15.02c2.16-.32,3.868-0.56,5.75-0.95a0.366,0.366,0,0,0,.418-0.42,18.851,18.851,0,0,0-.314-2.83c-0.069-.39-0.209-0.39-0.522-0.28A38.415,38.415,0,0,1,460.921,1167.18Zm7.737,3.32a30.292,30.292,0,0,1,7.214,3.82,0.459,0.459,0,0,0,.313.14,0.4,0.4,0,0,0,.314-0.24,21.723,21.723,0,0,0,1.463-2.6,0.807,0.807,0,0,0,.14-0.42,0.515,0.515,0,0,0-.314-0.38,27.133,27.133,0,0,0-6.83-3.29,0.484,0.484,0,0,0-.732.24C469.773,1168.4,469.25,1169.45,468.658,1170.5Zm33.729-5.28h4.077v23.38c0,1.37.314,2.17,0.941,2.56a6.1,6.1,0,0,0,2.962.49c1.882,0,2.753-.28,3.415-1.02,0.593-.7.941-1.82,1.08-5.84,0.035-.91.105-1.02-0.766-1.26a6.821,6.821,0,0,1-2.056-.91c-0.035,3.57-.175,5.04-0.453,5.28a0.854,0.854,0,0,1-.767.25,0.819,0.819,0,0,1-.662-0.21,1.57,1.57,0,0,1-.14-1.02v-18.69c0-3.89.07-5.85,0.07-6.09,0-.35-0.035-0.39-0.383-0.39-0.244,0-1.011.07-3.415,0.07h-3.8c-2.37,0-3.067-.07-3.311-0.07-0.348,0-.383.04-0.383,0.39,0,0.17.035,1.47,0.035,3.95,0,3.68.035,5.81-.07,8.09-0.313,7.42-1.115,11.55-3.31,14.46a2.777,2.777,0,0,0,.034-0.53c0-1.43-.034-3.22-0.034-4.83v-15.54c0-3.68.069-5.6,0.069-5.81,0-.35-0.035-0.39-0.383-0.39-0.244,0-.941.07-3.1,0.07h-3.415c-2.195,0-2.892-.07-3.1-0.07-0.384,0-.419.04-0.419,0.39,0,0.24.07,2.13,0.07,5.81v5.74c0,9.45-.767,13.02-2.857,16.38a7.193,7.193,0,0,1,2.021,1.75,1.277,1.277,0,0,0,.662.6,1.025,1.025,0,0,0,.592-0.7,25.3,25.3,0,0,0,2.614-10.22h3.938v5.77a1.018,1.018,0,0,1-1.115,1.26,15.643,15.643,0,0,1-2.2-.14,8.321,8.321,0,0,1,.837,2.49c0.209,1.12.209,1.12,1.289,1.08,2.021-.07,2.788-0.38,3.415-0.94a2.792,2.792,0,0,0,.7-0.95,11.1,11.1,0,0,1,1.812,1.47,1.624,1.624,0,0,0,.732.6,1.121,1.121,0,0,0,.628-0.63,19.68,19.68,0,0,0,3.275-8.3c0.662-3.29.872-7.77,0.872-14.53v-3.25Zm-13.975,12.85c0.035-1.37.07-2.87,0.07-4.56v-0.56h3.659v5.12h-3.729Zm3.729-13.13v4.79h-3.659v-4.79h3.659Z" transform="translate(-302 -1159.22)"/>
</svg>
