<svg id="head-block-01_sp.svg" xmlns="http://www.w3.org/2000/svg" width="200" height="117.59" viewBox="0 0 200 117.59">
  <defs>
    <style>
      .cls-1 {
        fill: #d2ecf9;
      }

      .cls-2 {
        fill: #1147b4;
        fill-rule: evenodd;
      }

      .cls-3 {
        font-size: 10.275px;
        text-anchor: middle;
        font-family: YuGothic;
        font-weight: 700;
        text-transform: uppercase;
      }
    </style>
  </defs>
  <rect id="長方形_1367" data-name="長方形 1367" class="cls-1" y="24.59" width="200" height="10"/>
  <rect id="長方形_1367-2" data-name="長方形 1367" class="cls-1" x="3" y="107.59" width="191" height="10"/>
  <path id="デリケートな肌" class="cls-2" d="M94.335,2258.15a14.933,14.933,0,0,1,2.728,3.8,0.313,0.313,0,0,0,.485.16l1.364-.83a0.318,0.318,0,0,0,.152-0.48,14.286,14.286,0,0,0-2.577-3.53,0.3,0.3,0,0,0-.424-0.09Zm2.971-1.73a14.468,14.468,0,0,1,2.7,3.77,0.329,0.329,0,0,0,.516.15l1.273-.82a0.372,0.372,0,0,0,.152-0.55,13.682,13.682,0,0,0-2.577-3.41c-0.152-.15-0.243-0.21-0.424-0.09Zm-8.7,6.05c1.667,0,3.456.03,5.093,0.09,0.334,0,.394-0.15.394-0.57a13.7,13.7,0,0,0,0-2.23c0-.39-0.061-0.58-0.364-0.58-1.516.1-3.425,0.13-5.123,0.13H83.028c-1.364,0-2.91-.03-5.032-0.16,0.091,1.1.121,2.2,0.212,2.93a0.438,0.438,0,0,0,.515.51c1.7-.06,2.91-0.12,4.3-0.12h5.578Zm4.486,7.06c2.092,0,4.183.06,5.76,0.13a0.428,0.428,0,0,0,.455-0.52c0.03-.4.03-1.95,0-2.35,0-.42-0.03-0.6-0.333-0.6-1.789.12-3.547,0.18-5.911,0.18H79.451c-1.758,0-3.456,0-5.153-.15a18.366,18.366,0,0,0,.243,2.92c0.03,0.39.121,0.61,0.394,0.58,1.546-.1,3.031-0.19,4.547-0.19h5.76a13,13,0,0,1-1.546,6.55c-1.273,2.31-3.062,3.8-6.032,5.41a8.014,8.014,0,0,1,2.7,1.62,0.9,0.9,0,0,0,.637.3,1.857,1.857,0,0,0,.909-0.36,15.311,15.311,0,0,0,5.335-5.76,17.422,17.422,0,0,0,1.788-7.76h4.062Zm14.227-.79c0,1.31-.091,3.08-0.091,4.14-0.03.37,0.151,0.52,0.576,0.52h2.425a0.533,0.533,0,0,0,.667-0.61c-0.03-1.07-.091-2.25-0.091-3.83v-6.15a6.993,6.993,0,0,1,.333-2.89,1.347,1.347,0,0,0,.122-0.46,0.549,0.549,0,0,0-.516-0.49,22.554,22.554,0,0,0-3.759-.64,20.967,20.967,0,0,1,.334,4.45v5.96Zm14.278-5.93a9.241,9.241,0,0,1,.272-3.32,0.978,0.978,0,0,0,.122-0.49,0.523,0.523,0,0,0-.425-0.52,19.135,19.135,0,0,0-3.94-.66,22.415,22.415,0,0,1,.333,4.96v5.75c0,3.86-.637,6.39-2.031,8.13-1.607,2-4.153,3.43-7.4,4.44a9.91,9.91,0,0,1,2.577,1.86,0.988,0.988,0,0,0,.728.36,1.932,1.932,0,0,0,.636-0.15,15.6,15.6,0,0,0,6.669-4.78c1.789-2.4,2.456-5.42,2.456-9.92v-5.66Zm26.6,4.41c1.849,0,4.3.06,5.547,0.12a0.4,0.4,0,0,0,.424-0.49q0.046-1.23,0-2.46c0-.4-0.121-0.55-0.485-0.55-1.909.03-3.94,0.15-5.82,0.15h-9.731c0.394-.76.94-1.85,1.395-2.92a3.1,3.1,0,0,1,.909-1.25,0.679,0.679,0,0,0,.334-0.57,0.543,0.543,0,0,0-.364-0.52,21.429,21.429,0,0,0-3.638-1.4,12.852,12.852,0,0,1-1.212,4.2,32.208,32.208,0,0,1-7.154,9.92,8.945,8.945,0,0,1,2.819,1.1,0.729,0.729,0,0,0,.424.15,0.753,0.753,0,0,0,.516-0.24,29.334,29.334,0,0,0,4.213-5.24h6.245a17,17,0,0,1-2.092,7.97c-1.425,2.59-3.334,4.45-6.851,6.55a11.241,11.241,0,0,1,3.123,1.34,0.763,0.763,0,0,0,.515.21,1.051,1.051,0,0,0,.637-0.24,17.727,17.727,0,0,0,6-6.52,20.417,20.417,0,0,0,2.455-9.31h1.789Zm26.9,5.2c2.244,0,4.487.04,6.76,0.07,0.425,0.03.546-.1,0.546-0.46a22.372,22.372,0,0,0,0-2.86c0-.37-0.091-0.46-0.546-0.43-2.334.03-4.668,0.09-6.972,0.09h-9.761a39.338,39.338,0,0,1-6.547-.36,33.277,33.277,0,0,0,.454,3.68,0.666,0.666,0,0,0,.7.64,23.874,23.874,0,0,1,4.457-.37H175.09Zm19.774-10.59a7.987,7.987,0,0,1,.212-2.86,1.6,1.6,0,0,0,.243-0.7,0.572,0.572,0,0,0-.576-0.52,22.6,22.6,0,0,0-3.789-.48,23.248,23.248,0,0,1,.3,4.5v14.98c0,1.94-.031,3.74-0.121,5.99,0,0.37.151,0.46,0.575,0.46a20.243,20.243,0,0,0,2.7,0c0.425,0,.576-0.09.546-0.46-0.061-2.19-.121-3.98-0.121-5.96v-6.73a33.354,33.354,0,0,1,7.972,3.9,0.469,0.469,0,0,0,.334.15,0.507,0.507,0,0,0,.394-0.34,18.047,18.047,0,0,0,1.3-2.64,0.573,0.573,0,0,0-.333-0.8,42.623,42.623,0,0,0-9.64-4.13v-4.36Zm29.263,13.21a15.785,15.785,0,0,0-2.4-.18c-3.426,0-5.608,1.8-5.608,4.44,0,2.62,2.243,4.33,5.577,4.33,3.456,0,5.639-1.4,5.639-4.45a22.339,22.339,0,0,1,3.7,2.56,0.473,0.473,0,0,0,.3.18,0.343,0.343,0,0,0,.273-0.21,18.306,18.306,0,0,0,1.394-2.47c0.152-.3.122-0.42-0.181-0.64a24.369,24.369,0,0,0-5.457-2.83,40,40,0,0,1-.333-5.17,3.183,3.183,0,0,1,.121-1.25,3.742,3.742,0,0,0,.182-0.64,0.479,0.479,0,0,0-.425-0.49,16.522,16.522,0,0,0-3.3-.57,10.76,10.76,0,0,1,.243,2.16C223.884,2271.24,223.945,2273.09,224.127,2275.04Zm0.06,2.89a3.641,3.641,0,0,1,.03.61c0,1.28-1,2.16-2.637,2.16-1.728,0-2.576-.48-2.576-1.46,0-1.15,1.182-1.76,2.7-1.76A7.8,7.8,0,0,1,224.187,2277.93Zm-4.941-15.61c0.273-.91.515-1.86,0.728-2.59a3.241,3.241,0,0,1,.485-1.12,0.773,0.773,0,0,0,.272-0.58,0.522,0.522,0,0,0-.485-0.46,30.057,30.057,0,0,0-3.546-.64,11.853,11.853,0,0,1-.182,2.47c-0.212,1.09-.425,2.13-0.788,3.41-1.395.12-2.3,0.15-3.486,0.15-0.88,0-1.577-.03-2.82-0.12a15.786,15.786,0,0,0,.3,2.58c0.06,0.4.121,0.49,0.424,0.49,0.758,0.03,1,.03,1.667.03,0.94,0,1.88,0,3.032-.06a61.46,61.46,0,0,1-5.245,10.62,0.613,0.613,0,0,0-.151.37,0.416,0.416,0,0,0,.212.33,14.428,14.428,0,0,0,2.092,1.56,0.84,0.84,0,0,0,.363.15,0.436,0.436,0,0,0,.334-0.31,84.233,84.233,0,0,0,5.911-13.05c1.879-.28,3.365-0.49,5-0.83a0.32,0.32,0,0,0,.363-0.36,16.681,16.681,0,0,0-.272-2.47c-0.061-.33-0.182-0.33-0.455-0.24A32.935,32.935,0,0,1,219.246,2262.32Zm6.73,2.89a26.052,26.052,0,0,1,6.275,3.32,0.424,0.424,0,0,0,.272.12,0.343,0.343,0,0,0,.273-0.21,19.218,19.218,0,0,0,1.273-2.25,0.771,0.771,0,0,0,.122-0.37,0.446,0.446,0,0,0-.273-0.33,23.627,23.627,0,0,0-5.942-2.87,0.422,0.422,0,0,0-.636.22C226.946,2263.39,226.491,2264.3,225.976,2265.21Zm29.02-4.59h3.547v20.33a2.4,2.4,0,0,0,.819,2.22,5.351,5.351,0,0,0,2.576.43c1.637,0,2.4-.25,2.971-0.89,0.515-.61.818-1.58,0.94-5.08,0.03-.79.091-0.88-0.667-1.1a5.766,5.766,0,0,1-1.789-.79c-0.03,3.11-.151,4.39-0.394,4.6a0.757,0.757,0,0,1-.667.21,0.706,0.706,0,0,1-.576-0.18,1.358,1.358,0,0,1-.121-0.88v-16.26c0-3.38.061-5.08,0.061-5.29,0-.31-0.031-0.34-0.334-0.34-0.212,0-.879.06-2.971,0.06h-3.3c-2.061,0-2.667-.06-2.88-0.06-0.3,0-.333.03-0.333,0.34,0,0.15.03,1.28,0.03,3.44,0,3.19.031,5.05-.06,7.03-0.273,6.45-.97,10.04-2.88,12.57a2.372,2.372,0,0,0,.03-0.46c0-1.25-.03-2.8-0.03-4.2v-13.51c0-3.2.061-4.87,0.061-5.06,0-.3-0.031-0.33-0.334-0.33-0.212,0-.818.06-2.7,0.06h-2.971c-1.909,0-2.516-.06-2.7-0.06-0.334,0-.364.03-0.364,0.33,0,0.22.06,1.86,0.06,5.06v4.99c0,8.22-.667,11.32-2.485,14.24a6.435,6.435,0,0,1,1.758,1.52,1.1,1.1,0,0,0,.576.52,0.872,0.872,0,0,0,.515-0.61,21.942,21.942,0,0,0,2.274-8.88h3.425v5.02a0.883,0.883,0,0,1-.97,1.09,14.519,14.519,0,0,1-1.91-.12,7.251,7.251,0,0,1,.728,2.16c0.182,0.98.182,0.98,1.121,0.95,1.759-.06,2.426-0.34,2.971-0.83a2.317,2.317,0,0,0,.606-0.82,9.848,9.848,0,0,1,1.577,1.28,1.393,1.393,0,0,0,.636.52,0.961,0.961,0,0,0,.546-0.55,17.072,17.072,0,0,0,2.85-7.21c0.575-2.86.757-6.76,0.757-12.63v-2.83Zm-12.155,11.17c0.03-1.19.06-2.5,0.06-3.96v-0.49h3.183v4.45h-3.243Zm3.243-11.42v4.17H242.9v-4.17h3.183Z" transform="translate(-72 -2255.41)"/>
  <path id="低刺激設計_" data-name="低刺激設計 " class="cls-2" d="M105.042,2347.99c3-.14,4.078-0.1,4.427-0.14,0.383-.03.418-0.07,0.383-0.42l-0.1-2.45c0-.38-0.035-0.45-0.418-0.42s-1.36.14-4.358,0.32l-2.335.14c-0.244-1.86-.453-3.92-0.593-6.27,1.43-.38,2.789-0.8,4.183-1.29a6.8,6.8,0,0,1,1.5-.32,0.487,0.487,0,0,0,.558-0.42,0.879,0.879,0,0,0-.279-0.63,14.037,14.037,0,0,0-2.405-2.52,11.308,11.308,0,0,1-1.987,1.09,50.37,50.37,0,0,1-10.875,2.73,13.808,13.808,0,0,0-2.789-.7,34.726,34.726,0,0,1,.209,5.04v14.42a26.583,26.583,0,0,1-3.033.45,25.8,25.8,0,0,0,.8,3.25,0.555,0.555,0,0,0,.453.46,0.736,0.736,0,0,0,.523-0.18,2.994,2.994,0,0,1,1.185-.52c2.579-.6,5.682-1.44,8.47-2.35,1.011-.35,1.011-0.42.976-1.46a12.611,12.611,0,0,1,.1-2.14c-2.2.74-4.148,1.3-5.961,1.72v-6.86l6.065-.28a44.755,44.755,0,0,0,1.464,6.02c1.6,4.89,3.381,7.38,5.926,7.38,1.638,0,3.032-1.12,3.729-4.55,0.209-1.08.209-1.12-.767-1.68a6.216,6.216,0,0,1-1.742-1.4c-0.314,2.49-.663,3.5-1.395,3.5-0.627,0-1.324-1.01-2.509-4.37a36.953,36.953,0,0,1-1.325-5.04Zm-11.363-7.52c1.743-.28,3.381-0.56,4.985-0.91,0.174,1.96.349,3.85,0.593,5.6l-5.577.28v-4.97Zm-11.4,19.45c0,3.43-.07,5.11-0.07,5.32,0,0.35.035,0.39,0.349,0.39h2.928c0.349,0,.383-0.04.383-0.39,0-.17-0.07-1.89-0.07-5.32v-18.19c0.7-1.51,1.359-3.05,1.952-4.69a3.447,3.447,0,0,1,.7-1.44,0.7,0.7,0,0,0,.383-0.59c0-.28-0.174-0.39-0.558-0.53a27.189,27.189,0,0,0-3.311-1.05,11.8,11.8,0,0,1-.558,2.45,30.984,30.984,0,0,1-6.239,11.2,9.828,9.828,0,0,1,1.115,3.05,0.715,0.715,0,0,0,.383.63,1.054,1.054,0,0,0,.593-0.46c0.732-.87,1.429-1.75,2.091-2.69-0.035,1.54-.07,3.08-0.07,4.34v7.97Zm18.3,4.66c3.033,0,4.044.07,4.253,0.07,0.383,0,.418-0.04.418-0.42v-2.59c0-.35-0.035-0.39-0.418-0.39-0.209,0-1.22.07-4.253,0.07H93.888c-3.033,0-4.078-.07-4.287-0.07-0.314,0-.349.04-0.349,0.39v2.59c0,0.38.035,0.42,0.349,0.42,0.209,0,1.255-.07,4.287-0.07h6.692Zm24.374-23.83v2.69h-1.917c-3.1,0-4.183-.07-4.427-0.07-0.349,0-.384.04-0.384,0.39,0,0.24.07,0.98,0.07,2.87v3.81c0,1.82-.07,2.56-0.07,2.77,0,0.35.035,0.38,0.384,0.38h2.684c0.383,0,.418-0.03.418-0.38,0-.21-0.07-0.91-0.07-2.56v-4.23h3.312v4.41a21.748,21.748,0,0,1-8.749,9.16,8.609,8.609,0,0,1,1.638,2.24,1.021,1.021,0,0,0,.627.74,1.379,1.379,0,0,0,.767-0.46,25.641,25.641,0,0,0,5.787-6.36c-0.07,4.3-.21,8.36-0.21,9.16,0,0.35.035,0.39,0.384,0.39h2.823c0.349,0,.384-0.04.384-0.39,0-.8-0.175-5.35-0.244-9.9a22.11,22.11,0,0,0,5.159,5.77,1.38,1.38,0,0,0,.766.46,1.02,1.02,0,0,0,.558-0.77,9.641,9.641,0,0,1,1.569-2.45c-3.591-2.1-5.926-3.95-7.948-7.28v-4.72h3.556v3.18c0,0.6-.14.74-0.7,0.74a10.405,10.405,0,0,1-1.5-.11,6.039,6.039,0,0,1,.767,2c0.209,1.05.209,1.08,1.324,1.08a3.832,3.832,0,0,0,2.58-.59,2.849,2.849,0,0,0,.836-2.35c0-.87-0.07-1.57-0.07-3.01v-1.4c0-1.36.07-1.96,0.07-2.2,0-.35-0.035-0.39-0.383-0.39-0.244,0-1.29.07-4.427,0.07h-2.057v-2.69h2.44c3.277,0,4.392.07,4.6,0.07,0.349,0,.384-0.04.384-0.39v-2.52c0-.35-0.035-0.38-0.384-0.38-0.209,0-1.324.07-4.6,0.07h-2.44a7.468,7.468,0,0,1,.209-2.59,1.834,1.834,0,0,0,.21-0.77,0.5,0.5,0,0,0-.558-0.35c-1.22-.14-2.161-0.21-3.451-0.25a31.082,31.082,0,0,1,.279,3.96h-3.033c-3.241,0-4.357-.07-4.6-0.07-0.348,0-.383.03-0.383,0.38v2.52c0,0.35.035,0.39,0.383,0.39,0.244,0,1.36-.07,4.6-0.07h3.033Zm22.274-1.68c0-2.38,0-3.12.209-3.54a2.453,2.453,0,0,0,.174-0.77,0.48,0.48,0,0,0-.523-0.38c-1.22-.14-2.405-0.21-3.695-0.25a29.917,29.917,0,0,1,.279,5.01v20.99a1.155,1.155,0,0,1-1.394,1.4,33.891,33.891,0,0,1-3.765-.17,7.654,7.654,0,0,1,1.116,2.66c0.244,1.08.244,1.12,1.289,1.12,3.138,0,4.148-.25,5.124-0.88,1.011-.7,1.255-1.71,1.255-3.43,0-1.75-.069-4.51-0.069-6.96v-14.8Zm-10.039,12.42c0,2.98-.07,4.41-0.07,4.62,0,0.39.035,0.42,0.383,0.42h2.859c0.313,0,.348-0.03.348-0.42,0-.21-0.069-1.64-0.069-4.62v-9.66a18.061,18.061,0,0,1,.139-3.74,3.278,3.278,0,0,0,.209-0.77,0.413,0.413,0,0,0-.453-0.39c-1.22-.14-2.3-0.21-3.555-0.24a37.684,37.684,0,0,1,.209,5.18v9.62Zm32.209,5.77a21.7,21.7,0,0,1-.453,3.89,1,1,0,0,1-1.15.91,18.422,18.422,0,0,1-2.266-.18,6.93,6.93,0,0,1,.8,2.07c0.244,1.08.279,1.08,0.906,1.12,0.453,0.03.871,0.03,1.185,0.03,1.813,0,3.033-.73,3.451-2.06l0.14-.53a10.3,10.3,0,0,1,1.6,2.17,1.1,1.1,0,0,0,.627.7,1.447,1.447,0,0,0,.732-0.49,28.7,28.7,0,0,0,4.706-5.53,30.555,30.555,0,0,0,4.636,5.25,1.333,1.333,0,0,0,.732.46,0.784,0.784,0,0,0,.523-0.7,9.855,9.855,0,0,1,1.255-2.84,21.634,21.634,0,0,1-5.438-5.38,34.4,34.4,0,0,0,2.684-12.92c1.15,0,1.6.04,1.743,0.04,0.383,0,.418-0.04.418-0.39v-2.55c0-.35-0.035-0.39-0.418-0.39-0.174,0-.976.07-3.59,0.07h-3.765c0.349-1.05.628-2.1,0.906-3.11a5.049,5.049,0,0,1,.558-1.54,1.354,1.354,0,0,0,.384-0.77,0.689,0.689,0,0,0-.628-0.49c-0.732-.18-2.126-0.46-3.172-0.63a15.393,15.393,0,0,1-.383,2.94,31.671,31.671,0,0,1-3.556,9.52v-5.5c0-1.96.07-2.8,0.07-3.01,0-.31-0.035-0.35-0.383-0.35-0.244,0-.942.07-3.312,0.07h-0.906a8.9,8.9,0,0,0,.627-1.47,1.838,1.838,0,0,1,.453-0.77,0.54,0.54,0,0,0,.244-0.42,0.446,0.446,0,0,0-.418-0.42c-0.906-.17-1.987-0.31-3.172-0.42a6.191,6.191,0,0,1-.314,1.68c-0.244.7-.383,1.19-0.662,1.82-1.778,0-2.44-.07-2.614-0.07-0.384,0-.419.04-0.419,0.35,0,0.25.07,1.05,0.07,3.01v3.92c0,2-.07,2.8-0.07,3.01,0,0.35.035,0.39,0.419,0.39,0.209,0,.976-0.04,3.276-0.04h0.1v2.07h-0.976c-2.789,0-3.66-.07-3.869-0.07-0.349,0-.384.03-0.384,0.38v2.21c0,0.38.035,0.42,0.384,0.42,0.174,0,.976-0.04,3.137-0.07-0.209,5.03-1.848,7.83-5.194,10.28a8.575,8.575,0,0,1,1.848,1.61,1.5,1.5,0,0,0,.732.67,1.737,1.737,0,0,0,.732-0.56,14.514,14.514,0,0,0,4.357-7.39H169.4Zm0.314-4.61c2.754,0,3.66.07,3.869,0.07,0.349,0,.384-0.04.384-0.42v-2.21c0-.35-0.035-0.38-0.384-0.38-0.209,0-1.115.07-3.869,0.07h-0.976v-2.07h0.209c1.917,0,2.684.04,3.068,0.04a5.7,5.7,0,0,1,1.185,1.26,0.813,0.813,0,0,0,.523.45,0.842,0.842,0,0,0,.557-0.49l0.767-1.22a31.832,31.832,0,0,0,2.754,8.43,19.446,19.446,0,0,1-5.786,6.19,38.244,38.244,0,0,0,.627-5.73l0.105-1.79c0-.35-0.07-0.42-0.419-0.42-0.209,0-.767.07-2.3,0.07h-3.242c0.07-.59.1-1.19,0.139-1.85h2.789Zm11.189-9.45a32.854,32.854,0,0,1-1.429,9.34,35.475,35.475,0,0,1-2.231-9.24l0.035-.1H180.9Zm-11.259,2.17h-4.88v-1.82h4.88v1.82Zm0-5.92v1.79h-4.88v-1.79h4.88Zm-15.895,23.62a17.191,17.191,0,0,0,2.51,1.79,1.335,1.335,0,0,0,.593.21,0.459,0.459,0,0,0,.383-0.53,4.4,4.4,0,0,1,.453-1.36,66.208,66.208,0,0,0,2.58-7.66c0.278-1.02.278-1.02-.7-1.72a10.36,10.36,0,0,1-1.708-1.54,54.283,54.283,0,0,1-2.649,8.05A14.68,14.68,0,0,1,153.747,2363.07Zm0-18.26a0.745,0.745,0,0,0-.209.42,0.373,0.373,0,0,0,.244.28,23.978,23.978,0,0,1,4.392,3.67c0.279,0.25.384,0.21,0.662-.17l1.43-2.07a0.987,0.987,0,0,0,.209-0.45,0.432,0.432,0,0,0-.209-0.28,21.007,21.007,0,0,0-4.427-3.36,0.424,0.424,0,0,0-.7.1Zm1.046-8.58c-0.279.39-.279,0.46,0,0.67a20.461,20.461,0,0,1,4.183,3.67c0.279,0.28.348,0.25,0.627-.1l1.6-2a0.881,0.881,0,0,0,.209-0.42,0.5,0.5,0,0,0-.209-0.31,28.031,28.031,0,0,0-4.253-3.47c-0.279-.21-0.383-0.17-0.662.18Zm55.18,12.04c-3.032,0-4.043-.07-4.252-0.07-0.349,0-.384.04-0.384,0.35V2351c0,0.39.035,0.42,0.384,0.42,0.1,0,.558-0.03,1.568-0.03a21.6,21.6,0,0,0,4.114,7.27,23.883,23.883,0,0,1-7.774,3.92v-5.42c0-1.64.07-2.48,0.07-2.69,0-.35-0.035-0.39-0.383-0.39-0.244,0-.941.07-3.207,0.07h-3.1c-2.231,0-2.963-.07-3.172-0.07-0.384,0-.419.04-0.419,0.39,0,0.24.07,1.08,0.07,3.28v2.24c0,4.24-.07,5.04-0.07,5.29,0,0.35.035,0.38,0.419,0.38h2.474c0.349,0,.384-0.03.384-0.38v-1.82h3.764v1.15c0,0.35.035,0.39,0.384,0.39h2.475c0.348,0,.383-0.04.383-0.39,0-.14-0.035-0.59-0.07-1.99a6.683,6.683,0,0,1,1.639,2.06c0.313,0.63.453,0.88,0.732,0.88a2.055,2.055,0,0,0,.8-0.25,26.262,26.262,0,0,0,7.111-4.23,25.991,25.991,0,0,0,7.076,4.06,3.028,3.028,0,0,0,.8.24c0.279,0,.383-0.28.7-0.94a11.388,11.388,0,0,1,1.5-2.45,23.116,23.116,0,0,1-7.564-3.36,25.309,25.309,0,0,0,4.148-6.51,2.39,2.39,0,0,1,.837-1.08,0.651,0.651,0,0,0,.383-0.63,3.246,3.246,0,0,0-1.081-1.47,2.839,2.839,0,0,0-1.324-.98,1.155,1.155,0,0,0-.523.17,1.857,1.857,0,0,1-.767.14h-8.122Zm7.181,3.08a17.339,17.339,0,0,1-3.277,5.08,16.775,16.775,0,0,1-3.172-5.08h6.449Zm-16.7,5.7v3.5h-3.764v-3.5h3.764Zm14.571-19.07v5.15a2.568,2.568,0,0,0,.941,2.41,6.02,6.02,0,0,0,2.963.49c1.847,0,2.963-.24,3.555-0.8,0.8-.67,1.15-1.65,1.255-3.75,0.035-.91.07-0.98-0.8-1.26a9.994,9.994,0,0,1-2.056-.94,9.2,9.2,0,0,1-.349,3.15,1,1,0,0,1-.941.49,1.31,1.31,0,0,1-.976-0.21,1.782,1.782,0,0,1-.244-1.19v-3.64c0-1.79.07-2.63,0.07-2.84,0-.35-0.035-0.38-0.384-0.38-0.209,0-.906.07-3.137,0.07h-3.486c-2.23,0-2.858-.07-3.067-0.07-0.383,0-.418.03-0.418,0.38,0,0.21.069,1.02,0.069,2.59,0,3.96-1.289,6.02-3.625,7.63a7.326,7.326,0,0,1,1.917,1.54,1.455,1.455,0,0,0,.837.67,1.485,1.485,0,0,0,.837-0.56c2.091-2,3.346-4.52,3.416-8.93h3.625Zm-18.893,1.72c-2.649,0-3.52-.07-3.695-0.07-0.348,0-.383.03-0.383,0.38v2.49c0,0.38.035,0.42,0.383,0.42,0.175,0,1.046-.07,3.695-0.07h4.532c2.649,0,3.52.07,3.729,0.07,0.349,0,.384-0.04.384-0.42v-2.49c0-.35-0.035-0.38-0.384-0.38-0.209,0-1.08.07-3.729,0.07h-4.532Zm0.941-4.8c-2.265,0-2.963-.07-3.172-0.07-0.348,0-.383.04-0.383,0.39v2.34c0,0.35.035,0.39,0.383,0.39,0.209,0,.907-0.07,3.172-0.07h3.172c2.266,0,2.928.07,3.137,0.07,0.384,0,.419-0.04.419-0.39v-2.34c0-.35-0.035-0.39-0.419-0.39-0.209,0-.871.07-3.137,0.07h-3.172Zm0.14,9.8c-2.127,0-2.754-.07-2.963-0.07-0.349,0-.384.04-0.384,0.35v2.28c0,0.35.035,0.38,0.384,0.38,0.209,0,.836-0.07,2.963-0.07h2.753c2.127,0,2.754.07,2.928,0.07,0.384,0,.419-0.03.419-0.38v-2.28c0-.31-0.035-0.35-0.419-0.35-0.174,0-.8.07-2.928,0.07h-2.753Zm0,4.69c-2.127,0-2.754-.07-2.963-0.07-0.349,0-.384.04-0.384,0.39v2.24c0,0.35.035,0.38,0.384,0.38,0.209,0,.836-0.07,2.963-0.07h2.753c2.127,0,2.754.07,2.928,0.07,0.384,0,.419-0.03.419-0.38v-2.24c0-.35-0.035-0.39-0.419-0.39-0.174,0-.8.07-2.928,0.07h-2.753Zm53.123-4.41h-1.952c-3.172,0-4.252-.07-4.461-0.07-0.384,0-.419.04-0.419,0.42v2.84c0,0.35.035,0.38,0.419,0.38,0.209,0,1.289-.07,4.461-0.07h1.952v10.6c0,3.92-.069,5.92-0.069,6.09,0,0.39.035,0.42,0.348,0.42h3.137c0.314,0,.349-0.03.349-0.42,0-.17-0.07-2.17-0.07-6.12v-10.57h2.231c3.172,0,4.253.07,4.427,0.07,0.384,0,.418-0.03.418-0.38v-2.84c0-.38-0.034-0.42-0.418-0.42-0.174,0-1.255.07-4.427,0.07h-2.231v-6.26c0-2.59.07-3.47,0.244-3.89a2.867,2.867,0,0,0,.175-0.7,0.526,0.526,0,0,0-.558-0.38c-1.15-.14-2.51-0.21-3.834-0.25a32.815,32.815,0,0,1,.278,5.29v6.19Zm-7.982,12.11c0-1.64.07-2.48,0.07-2.69,0-.35-0.035-0.39-0.384-0.39-0.244,0-.976.07-3.206,0.07h-4.288c-2.231,0-2.963-.07-3.172-0.07-0.383,0-.418.04-0.418,0.39,0,0.24.07,1.08,0.07,3.28v2.31c0,4.24-.07,5.04-0.07,5.25,0,0.35.035,0.39,0.418,0.39H234.1c0.349,0,.383-0.04.383-0.39v-1.75h4.427v1.12c0,0.35.035,0.39,0.384,0.39h2.753c0.349,0,.384-0.04.384-0.39,0-.21-0.07-0.98-0.07-5.04v-2.48Zm-3.451-.04v3.47h-4.427v-3.47h4.427Zm-5.612-17.42c-2.649,0-3.52-.07-3.7-0.07-0.348,0-.383.03-0.383,0.38v2.49c0,0.38.035,0.42,0.383,0.42,0.175,0,1.046-.07,3.7-0.07h6.414c2.649,0,3.521.07,3.73,0.07,0.313,0,.348-0.04.348-0.42v-2.49c0-.35-0.035-0.38-0.348-0.38-0.209,0-1.081.07-3.73,0.07h-6.414Zm1.36-4.73c-2.266,0-2.963-.07-3.172-0.07-0.349,0-.384.04-0.384,0.39v2.31c0,0.35.035,0.38,0.384,0.38,0.209,0,.906-0.07,3.172-0.07h4.357c2.231,0,2.928.07,3.137,0.07,0.383,0,.418-0.03.418-0.38v-2.31c0-.35-0.035-0.39-0.418-0.39-0.209,0-.906.07-3.137,0.07h-4.357Zm0.1,9.7c-2.126,0-2.753-.07-2.963-0.07-0.348,0-.383.03-0.383,0.38v2.28c0,0.35.035,0.38,0.383,0.38,0.21,0,.837-0.07,2.963-0.07h3.869c2.092,0,2.719.07,2.928,0.07,0.384,0,.419-0.03.419-0.38v-2.28c0-.35-0.035-0.38-0.419-0.38-0.209,0-.836.07-2.928,0.07h-3.869Zm0,4.72c-2.126,0-2.753-.07-2.963-0.07-0.348,0-.383.04-0.383,0.39v2.24c0,0.35.035,0.38,0.383,0.38,0.21,0,.837-0.07,2.963-0.07h3.869c2.092,0,2.719.07,2.928,0.07,0.384,0,.419-0.03.419-0.38v-2.24c0-.35-0.035-0.39-0.419-0.39-0.209,0-.836.07-2.928,0.07h-3.869Z" transform="translate(-72 -2255.41)"/>
  <g id="グループ_123" data-name="グループ 123">
    <text id="のことを考えた" class="cls-3" transform="translate(101.272 66.493) scale(2.326 2.336)">のことを考えた</text>
  </g>
</svg>
