<svg id="head-about.svg" xmlns="http://www.w3.org/2000/svg" width="663.252" height="42.5" viewBox="0 0 663.252 42.5">
  <defs>
    <style>
      .cls-1 {
        fill: #fff;
        fill-rule: evenodd;
      }
    </style>
  </defs>
  <path id="紫外線吸収剤フリーの最強_UV" data-name="紫外線吸収剤フリーの最強 UV" class="cls-1" d="M385.816,927.563a43.612,43.612,0,0,1-4.5,5.834,15.658,15.658,0,0,0-6.156-1.47l-0.413.46c2.526,1.332,5.7,3.812,6.89,5.972,2.481,0.964,3.721-1.93.919-4.135a40.013,40.013,0,0,0,6.34-4c1.056,0.138,1.424-.091,1.653-0.551Zm-15.941,4.548a1.732,1.732,0,0,0,1.149-1.057c8.544-2.021,14.7-3.721,19.11-5.007L390,925.312c-2.572.322-5.1,0.689-7.488,0.965v-5.559h6.707a1.069,1.069,0,0,0,1.2-.735c-1.424-1.47-3.721-3.491-3.721-3.491l-2.114,2.894h-2.067v-5.651c1.149-.183,1.608-0.6,1.7-1.286l-5.1-.459v14.746l-3.629.414v-9.51c1.01-.183,1.378-0.551,1.47-1.148l-4.64-.414v11.439c-1.792.23-3.262,0.368-4.364,0.459ZM369.6,953.84a42.174,42.174,0,0,0,13.46-6.386c1.011,0.276,1.379.138,1.7-.321l-4.272-2.756a41.849,41.849,0,0,1-11.347,8.866Zm24.164-8.407c3.308,1.792,7.81,5.053,9.693,7.81,4.273,1.562,4.962-6.707-9.325-8.269Zm2.435-9.1a36.223,36.223,0,0,1,4.778,3.446c-5.605.138-10.934,0.229-15.711,0.321a59.629,59.629,0,0,0,11.668-6.891c1.1,0.092,1.47-.137,1.7-0.6l-4.5-1.975a64.474,64.474,0,0,1-11.485,9.509c-5.88.092-10.658,0.138-13.644,0.092l1.792,4.272a2.066,2.066,0,0,0,1.286-.918c5.605-.46,10.566-0.827,15.022-1.241v11.99h0.643c1.884,0,3.032-.689,3.032-0.919V942.034c4.364-.368,8.131-0.781,11.439-1.149a16.707,16.707,0,0,1,3.078,3.721c4.18,1.884,5.375-6.385-8.729-8.728ZM407.912,921.5h-0.551a23.409,23.409,0,0,1-1.424,4.548,1.094,1.094,0,0,1-.965.459c-0.6.046-2.067,0.046-3.951,0.046h-4.272c-1.562,0-1.745-.183-1.745-0.872v-4.227a51.1,51.1,0,0,0,10.29-3.353c1.148,0.367,1.929.367,2.343-.092l-4.043-3.124a43.85,43.85,0,0,1-8.59,5.237V913.6a1.4,1.4,0,0,0,1.332-1.1l-4.824-.5v14.471c0,2.572.781,3.307,4.548,3.307h4.732c7.074,0,8.636-.6,8.636-2.205,0-.643-0.275-1.057-1.378-1.424Zm31.122-3.859-2.113,2.3H430.4c0.643-1.7,1.194-3.445,1.7-5.283a1.618,1.618,0,0,0,1.7-1.056l-5.512-1.378c-1.7,10.014-5.651,19.064-10.291,24.852l0.643,0.46a34.746,34.746,0,0,0,7.259-8.315c1.791,1.883,3.583,4.272,4.134,6.339,3.492,2.435,6.2-4.226-3.445-7.534a46.626,46.626,0,0,0,3.307-6.8h7.259c-1.976,13.139-7.259,25.221-18.927,32.433l0.5,0.6c14.884-6.8,19.984-19.2,22.372-32.386a2.3,2.3,0,0,0,1.838-.689Zm11.852-3.124a1.576,1.576,0,0,0,1.608-1.286l-5.375-.6v17.549a27.536,27.536,0,0,1-4.593-7.075l-0.69.322a34.543,34.543,0,0,0,5.283,10.657V954.3h0.735c1.425,0,3.032-.827,3.032-1.24v-14.93a26.6,26.6,0,0,0,7.672,4.732,4.272,4.272,0,0,1,3.124-3.308l0.092-.5a30.129,30.129,0,0,1-10.888-5.329v-19.2Zm24.829-2.572c-0.873,3.032-1.93,6.385-2.894,8.866a14.788,14.788,0,0,0-3.538-1.286l-0.459.367a14.28,14.28,0,0,1,3.9,6.2c2.526,1.792,4.731-1.838,1.148-4.594a57.086,57.086,0,0,0,5.237-6.845,1.628,1.628,0,0,0,1.746-.873Zm-6.11,38.726a29.6,29.6,0,0,0,4.823-10.428,1.542,1.542,0,0,0,1.608-1.011l-4.594-1.01A51.234,51.234,0,0,1,468.87,950.3Zm12.863-17.916a10.651,10.651,0,0,1,.5,2.573c2.94,2.756,6.294-3.538-2.389-7.994l-0.551.276a25.481,25.481,0,0,1,2.021,4.043c-2.526.137-4.961,0.229-7.12,0.321a103.178,103.178,0,0,0,9.05-11.76,1.781,1.781,0,0,0,1.883-.643l-4.823-2.205c-1.93,4.272-4.916,10.2-7.534,14.654-1.93.046-3.492,0.092-4.548,0.092l1.424,3.9a1.631,1.631,0,0,0,1.194-.965c1.7-.322,3.216-0.643,4.64-0.919v20.213h0.6c1.7,0,2.848-.827,2.848-1.1V933.4Zm-1.654,5.283a20.2,20.2,0,0,1,2.113,7.947c2.71,2.757,6.2-3.215-1.516-8.177Zm10.658-7.718v-5.1h13.276v5.1H491.472Zm13.276-11.484v5.053H491.472v-5.053h13.276Zm2.756,14.654a54.467,54.467,0,0,1-4.318,6.523,25.759,25.759,0,0,1-3.216-8.314h4.778v1.653h0.6a4.227,4.227,0,0,0,2.986-.964V919.064a2.4,2.4,0,0,0,1.746-.827l-3.767-2.8-1.7,2.022h-8.131c1.011-1.1,2.205-2.435,3.032-3.446a1.569,1.569,0,0,0,1.746-1.056l-5.605-1.011c-0.23,1.562-.643,3.859-0.965,5.513h-2.71l-4-1.562v17.916h0.552c1.791,0,2.94-.689,2.94-0.965V931.7H496.2v6.385l-3.261-2.8-1.884,1.929h-5.926l0.414,1.332h5.65a22.11,22.11,0,0,1-7.855,12.725l0.413,0.689a21.59,21.59,0,0,0,10.887-13.138,2.913,2.913,0,0,0,1.562-.413v10.933c0,0.6-.229.827-0.964,0.827-0.827,0-4.87-.322-4.87-0.322v0.689a6.211,6.211,0,0,1,3.491,1.287,3.653,3.653,0,0,1,.827,2.48c4.273-.459,4.87-2.3,4.87-4.869V932.846c1.562,9.969,4.732,14.93,9.739,18.973a4.284,4.284,0,0,1,2.94-3.308l0.046-.459a21.761,21.761,0,0,1-8.591-7.167,62.68,62.68,0,0,0,6.294-4.134,1.356,1.356,0,0,0,1.7-.322Zm22.624-15.343v19.661h-5.559V918.146h5.559Zm0,20.948v4.134h0.551a4.216,4.216,0,0,0,2.848-1.24v-23.2a3.777,3.777,0,0,0,1.929-.919l-3.95-3.078-1.838,2.021H524.8l-3.538-1.562V946.03h0.506c1.562,0,2.8-.827,2.8-1.24v-5.7h5.559Zm20.121-22.648c-0.689,3.9-1.838,9.693-2.94,14.1a5.709,5.709,0,0,0,3.721-.184c0.183-.689.367-1.47,0.551-2.251h4.686a36.509,36.509,0,0,1-6.11,13.644c-3.446-4.134-6.018-9.831-7.3-18.146,0.137-2.343.183-4.731,0.229-7.166h7.167Zm8.085,8.177-2.251,2.159h-4.227c0.781-3.491,1.516-7.35,1.976-9.693a3.48,3.48,0,0,0,2.021-.781l-4.134-3.216-1.7,2.022h-15.8l0.414,1.332h4.823c-0.046,14.1-.23,27.012-12.633,36.889l0.689,0.781c11.347-7.121,14.287-16.538,15.16-27.334,1.1,7.58,2.986,13.047,5.6,17.227A36.082,36.082,0,0,1,533.3,953.7l0.368,0.735a38.791,38.791,0,0,0,16.17-8.177,30.832,30.832,0,0,0,9.877,8.085,4.55,4.55,0,0,1,3.216-3.537l0.092-.459a32.588,32.588,0,0,1-10.8-6.432c3.859-4.226,6.294-9.371,7.993-15.16a2.457,2.457,0,0,0,1.838-.643Zm23.45-12.449V940.2c-1.929.5-3.767,1.011-5.467,1.424v-23.2c1.057-.184,1.424-0.551,1.516-1.148l-4.915-.506v25.726c-1.241.322-2.251,0.551-2.986,0.689l1.975,4.227a1.817,1.817,0,0,0,1.011-1.149c3.583-1.792,6.523-3.353,8.866-4.64v12.633h0.643c1.378,0,2.894-.964,2.894-1.516V914.011c1.149-.184,1.516-0.643,1.608-1.24Zm24.347,6.293a64.368,64.368,0,0,1-6.661,20.443,49.339,49.339,0,0,1-7.4-20.443h14.057Zm1.838-3.629-2.159,2.3H587.389l0.413,1.332h3.124c1.056,9.234,3.307,17.043,6.845,23.291a41.13,41.13,0,0,1-11.715,12.036l0.552,0.6a40.023,40.023,0,0,0,12.771-9.968,34.487,34.487,0,0,0,10.06,9.922,3.955,3.955,0,0,1,3.4-2.8l0.137-.5a36.567,36.567,0,0,1-11.484-9.372c4.639-6.707,7.028-14.562,8.5-22.51,1.1-.092,1.562-0.275,1.838-0.735Zm20.74,27.471a23.239,23.239,0,0,0,.138-2.526v-3.078h10.887v5.6H628.709Zm11.025-6.936H628.847v-2.435a1.461,1.461,0,0,0,1.562-1.195l-4.962-.5v8.5c0,4.869-.735,10.244-4.915,14.057l0.551,0.551a14.187,14.187,0,0,0,7.442-10.749h11.209v10.657h0.643c1.378,0,2.894-.735,2.894-1.1V933.03a1.563,1.563,0,0,0,1.654-1.241l-5.191-.551v4.135Zm-1.47-16.768a17.08,17.08,0,0,1-4.088,5.375,15.687,15.687,0,0,1-6.524-5.375h10.612Zm4-1.332h-6.845v-3.538c1.148-.183,1.562-0.6,1.654-1.24l-5.145-.5v5.283H620.807l0.368,1.332H626.5a19.151,19.151,0,0,0,5.512,7.12,38.016,38.016,0,0,1-11.9,5.375l0.276,0.689a43.1,43.1,0,0,0,13.736-4.639,34.821,34.821,0,0,0,11.255,3.812,3.968,3.968,0,0,1,2.848-3.261v-0.5a48.908,48.908,0,0,1-11.117-2.022,20.26,20.26,0,0,0,5.6-6.569h4.686a1.124,1.124,0,0,0,1.24-.735c-1.608-1.47-4.18-3.491-4.18-3.491Zm10.52,0.413a1.57,1.57,0,0,0,1.562-1.24l-4.916-.46v28.942h0.643c1.241,0,2.711-.735,2.711-1.2V917.686Zm4.869-4.869V949.2a0.807,0.807,0,0,1-1.01.919c-0.919,0-5.329-.322-5.329-0.322v0.689a6.825,6.825,0,0,1,3.675,1.287,3.983,3.983,0,0,1,1.01,2.572c4.548-.413,5.1-2.067,5.1-4.869V914.608a1.6,1.6,0,0,0,1.653-1.24Zm17.014,6.569-0.826.322a12.466,12.466,0,0,0,.413,2.756c0.459,1.332,2.71,3.767,4.272,3.767,0.965,0,2.022-.965,3.216-1.241a156.348,156.348,0,0,1,17.135-2.572c0.414,0,.689.138,0.5,0.735-2.664,10.566-11.3,20.856-24.3,27.471l0.643,1.011c13.965-5.053,22.234-13.69,27.242-25.083,0.689-1.47,2.3-2.3,2.3-3.445,0-1.424-3.584-4.272-5.191-4.272-0.919,0-1.516.827-2.895,1.1-2.251.506-16.032,1.976-18.926,1.976C676.594,921.913,675.537,920.534,674.664,919.386ZM736,932.3c0.137-2.8.367-7.81,0.459-10.52,0.092-1.47.919-1.746,0.919-2.8,0-1.1-3.308-3.032-5.145-3.032a8.6,8.6,0,0,0-3.446,1.194l0.046,0.873a9.743,9.743,0,0,1,2.757.735,1.921,1.921,0,0,1,.964,1.929,97.7,97.7,0,0,1-.092,11.531c-0.6,9.325-5.007,15.435-13.873,20.213l0.551,0.919C729.8,949.614,735.445,943.044,736,932.3Zm-19.754-11.9c0.735,0.367.827,0.735,0.919,1.791,0.23,1.746.275,6.34,0.275,8.5-0.045,3.583-.5,5.283-0.5,6.477,0,1.976.965,3.675,2.159,3.675,1.011,0,1.746-.689,1.746-2.618,0-2.251-.092-11.76.046-13.782,0.138-1.745.827-2.251,0.827-3.216,0-1.286-3.216-3.123-5.008-3.123a8.937,8.937,0,0,0-2.94.643v0.873A13.115,13.115,0,0,1,716.243,920.4ZM748.1,930.962a8.72,8.72,0,0,0,.313,2.849c0.586,1.745,2.58,4.226,3.792,4.226,1.25,0,1.719-.781,4.143-1.1,2.932-.414,13.29-1.1,15.87-1.1,2.5,0,3.869.092,5.277,0.092s1.993-.551,1.993-1.47c0-1.47-1.837-2.435-3.6-2.435-0.977,0-2.267.276-4.886,0.5-1.954.184-15.127,1.2-18.8,1.2-1.759,0-2.424-1.378-3.323-3.032ZM807,924.623a21.617,21.617,0,0,1-1.745,7.442c-1.792,4-5.972,10.979-8.867,10.979-1.883,0-3.767-3.353-3.767-7.534a14.689,14.689,0,0,1,4.548-10.382,17.266,17.266,0,0,1,8.5-4.64A7.508,7.508,0,0,1,807,924.623Zm-0.689,26.369c15.114-.873,20.305-8.591,20.305-16.492,0-9.555-7.35-16.079-17.135-16.079a20.022,20.022,0,0,0-13.552,4.916,17.848,17.848,0,0,0-6.34,13.092c0,5.788,3.262,10.888,6.524,10.888,4.961,0,10.244-8.775,12.174-14.379a23.246,23.246,0,0,0,1.47-7.626,8.642,8.642,0,0,0-2.3-5.145c0.6-.046,1.148-0.092,1.7-0.092,7.58,0,13.46,5.283,13.46,13.506,0,8.269-5.145,14.195-16.492,16.4Zm61.072-35.006v3.676H847.122v-3.676h20.259ZM847.122,924.9v-3.9h20.259v3.9H847.122Zm0,1.286h20.259v1.837h0.6c1.149,0,3.032-.689,3.078-1.01V916.63a3.43,3.43,0,0,0,1.93-.919l-4.181-3.17-1.883,2.113H847.4l-3.9-1.654v15.666h0.551c1.516,0,3.078-.827,3.078-1.2v-1.286Zm5.559,9h-7.213v-4.043h7.213v4.043Zm-7.213,6.845h7.213V945.8c-2.527.367-4.962,0.735-7.213,1.1v-4.869Zm0-5.513h7.213v4.18h-7.213v-4.18Zm31.744-5.375a1.1,1.1,0,0,0,1.194-.735C876.8,928.9,874,926.69,874,926.69l-2.389,3.17h-35.6l0.413,1.286h5.467v16.263c-2.481.321-4.548,0.6-5.88,0.735l2.067,4.272a1.668,1.668,0,0,0,1.1-1.057c5.788-1.837,10.2-3.353,13.506-4.5v7.534h0.6c1.791,0,2.94-.781,2.94-1.01V931.146h20.994Zm-7.121,5.237a29.666,29.666,0,0,1-3.491,7.672,18.789,18.789,0,0,1-5.329-7.672h8.82Zm2.16-3.491-2.3,2.159H857.229l0.413,1.332h2.664a26.35,26.35,0,0,0,4.686,9.877,27.056,27.056,0,0,1-7.947,6.707l0.413,0.643a30.415,30.415,0,0,0,9.28-5.466,25.7,25.7,0,0,0,8.82,5.374,4.265,4.265,0,0,1,3.17-3.215l0.092-.46a30.492,30.492,0,0,1-9.831-4,27.662,27.662,0,0,0,5.329-9c1.01-.092,1.47-0.184,1.791-0.644Zm46.1-16.079a21.411,21.411,0,0,1,3.951,3.951c-4.318.138-8.5,0.23-11.99,0.276a50.158,50.158,0,0,0,4.916-6.661,1.5,1.5,0,0,0,1.7-.919l-5.65-1.424a73.42,73.42,0,0,1-2.619,9.05c-2.572.046-4.731,0.046-6.2,0.046l1.653,4.272a1.506,1.506,0,0,0,1.241-.873c7.672-1.1,13.414-1.975,17.686-2.756a11.625,11.625,0,0,1,1.7,3.721c3.813,2.526,6.156-5.972-5.926-9.05Zm-19.523,15.114-1.976,2.022h-5.7c0.321-2.895.6-6.11,0.735-8.315h5.1v2.159h0.551a5.015,5.015,0,0,0,2.894-1.011V916.63a3.605,3.605,0,0,0,1.93-.873l-4-3.078-1.837,2.021h-9.556l0.368,1.332h9.647v8.315h-4.364l-3.767-1.424c-0.276,3.629-.965,10.336-1.608,15.068,1.792,0.276,2.618.184,3.491-.321,0.092-.735.184-1.562,0.276-2.435h6.294c-0.46,8.315-1.379,13.414-2.665,14.562a2.228,2.228,0,0,1-1.654.46c-0.964,0-3.9-.276-5.7-0.414v0.735a11.575,11.575,0,0,1,3.951,1.287,3.175,3.175,0,0,1,.735,2.434,7.463,7.463,0,0,0,4.961-1.562c2.067-1.791,3.262-7.35,3.767-17.043a2.752,2.752,0,0,0,1.838-.689Zm8.544,6.523v-7.579h5.7v7.579h-5.7Zm15.114-7.579v7.579h-6.018v-7.579h6.018ZM920.094,943a43.487,43.487,0,0,1,3.262,4.916l-6.891.551v-8.682h6.018v2.251h0.551c1.057,0,2.757-.735,2.8-1.057v-9.6a3.84,3.84,0,0,0,1.746-.827l-3.813-2.848-1.7,1.883h-5.6v-3.721c0.965-.138,1.286-0.459,1.378-1.056l-4.777-.506v5.283H907.6l-3.492-1.562v14.839h0.46c1.378,0,2.8-.735,2.8-1.057v-2.021h5.7V948.7c-5.237.413-9.556,0.689-12.128,0.735l2.113,4.41a1.7,1.7,0,0,0,1.194-1.011c8.5-1.562,14.838-2.8,19.616-3.859a16.635,16.635,0,0,1,1.654,4.548c3.675,2.986,6.661-5.053-4.916-10.841Zm68.4-27.591h-13.3v1.929l5.839,0.762,0.051,18.126c0,9.952-3.249,13.608-9.748,13.608-5.738,0-9.394-3.1-9.394-12.643v-4.57c0-4.976,0-9.85.1-14.674l5.636-.609v-1.929H952.137v1.929l4.671,0.508c0.051,4.874.051,9.85,0.051,14.775v5.839c0,10.612,5.483,14.979,13.557,14.979,7.667,0,13.049-4.469,13.049-15.893L983.515,918l4.976-.66v-1.929Zm42.7,0h-12.74v2.132l5.13,0.508-9.04,27.926L1004.79,918l5.43-.457v-2.132H995.142v1.929l4.214,0.457,12.994,35.187h2.34l11.68-35.035,4.82-.66v-1.878Z" transform="translate(-367.938 -911.938)"/>
  <path id="_1" data-name="※1" class="cls-1" d="M937.029,915.891a0.595,0.595,0,1,0,.59.594A0.591,0.591,0,0,0,937.029,915.891Zm-2.153,2.169a0.594,0.594,0,1,0,.6.594A0.6,0.6,0,0,0,934.876,918.06Zm4.313,0a0.594,0.594,0,1,0,0,1.188A0.594,0.594,0,0,0,939.189,918.06Zm-2.16,2.168a0.6,0.6,0,0,0-.59.6,0.59,0.59,0,0,0,1.18,0A0.6,0.6,0,0,0,937.029,920.228Zm0.239-1.574,2.974-3L940,915.417l-2.974,3-2.974-3-0.239.241,2.974,3-2.99,3.02,0.239,0.241,2.99-3.02,3.006,3.02,0.239-.241Zm6.362-2.972h-0.542a5.41,5.41,0,0,1-1.355.691l0.111,0.586a5.438,5.438,0,0,0,1.149-.578v4.642h-1.157v0.539h2.879v-0.539H943.63v-5.341Z" transform="translate(-367.938 -911.938)"/>
</svg>
