<svg id="head-about_sp.svg" xmlns="http://www.w3.org/2000/svg" width="437.593" height="112.15" viewBox="0 0 437.593 112.15">
  <defs>
    <style>
      .cls-1 {
        fill: #fff;
        fill-rule: evenodd;
      }
    </style>
  </defs>
  <path id="紫外線吸収剤フリー_の最強_UV" data-name="紫外線吸収剤フリー の最強 UV" class="cls-1" d="M119.779,1958.44a45.585,45.585,0,0,1-4.683,6.07,16.347,16.347,0,0,0-6.4-1.53l-0.43.48c2.628,1.38,5.926,3.97,7.168,6.21,2.581,1.01,3.871-2.01.956-4.3a40.99,40.99,0,0,0,6.595-4.16c1.1,0.15,1.482-.09,1.721-0.57Zm-16.583,4.73a1.8,1.8,0,0,0,1.2-1.1c8.889-2.1,15.293-3.87,19.881-5.21l-0.144-.76c-2.676.33-5.305,0.72-7.79,1v-5.78h6.978a1.113,1.113,0,0,0,1.242-.76c-1.481-1.53-3.871-3.64-3.871-3.64l-2.2,3.01h-2.151v-5.87c1.2-.2,1.673-0.63,1.769-1.34l-5.3-.48v15.34l-3.776.43v-9.89c1.052-.19,1.434-0.58,1.53-1.2l-4.827-.43v11.9c-1.864.24-3.393,0.39-4.54,0.48Zm-0.287,22.61a43.977,43.977,0,0,0,14-6.65c1.051,0.29,1.434.15,1.768-.33l-4.444-2.87a43.57,43.57,0,0,1-11.805,9.23Zm25.138-8.75c3.441,1.87,8.124,5.26,10.084,8.13,4.444,1.62,5.161-6.98-9.7-8.61Zm2.533-9.46a38.439,38.439,0,0,1,4.97,3.58c-5.83.15-11.374,0.24-16.344,0.34a62.006,62.006,0,0,0,12.139-7.17c1.147,0.09,1.529-.14,1.768-0.62l-4.684-2.06a66.962,66.962,0,0,1-11.947,9.9c-6.117.09-11.088,0.14-14.194,0.09l1.864,4.45a2.163,2.163,0,0,0,1.338-.96c5.83-.48,10.992-0.86,15.627-1.29v12.47h0.669c1.96,0,3.155-.71,3.155-0.95v-11.86c4.54-.38,8.459-0.81,11.9-1.19a17.371,17.371,0,0,1,3.2,3.87c4.349,1.96,5.592-6.64-9.08-9.08Zm12.186-15.44h-0.573a24.261,24.261,0,0,1-1.482,4.73,1.133,1.133,0,0,1-1,.48c-0.621.05-2.151,0.05-4.11,0.05h-4.445c-1.624,0-1.816-.19-1.816-0.91v-4.4a53.258,53.258,0,0,0,10.705-3.48c1.195,0.38,2.008.38,2.438-.1l-4.206-3.25a45.6,45.6,0,0,1-8.937,5.45v-6.79a1.446,1.446,0,0,0,1.386-1.14l-5.018-.53v15.05c0,2.68.813,3.44,4.732,3.44h4.922c7.36,0,8.985-.62,8.985-2.29,0-.67-0.287-1.1-1.434-1.48Zm31.577-4.01-2.2,2.39h-6.786c0.669-1.77,1.242-3.59,1.768-5.5a1.687,1.687,0,0,0,1.768-1.1l-5.735-1.43c-1.768,10.42-5.878,19.83-10.7,25.85l0.669,0.48a36.077,36.077,0,0,0,7.551-8.65c1.864,1.96,3.728,4.45,4.3,6.6,3.632,2.53,6.452-4.4-3.584-7.84a48.726,48.726,0,0,0,3.441-7.07h7.551c-2.055,13.66-7.551,26.23-19.69,33.74l0.526,0.62c15.484-7.08,20.789-19.98,23.274-33.7a2.358,2.358,0,0,0,1.911-.71Zm12.33-3.25a1.64,1.64,0,0,0,1.673-1.34l-5.592-.62v18.25a28.568,28.568,0,0,1-4.779-7.35l-0.717.33a36,36,0,0,0,5.5,11.09v21.02h0.765c1.481,0,3.154-.86,3.154-1.29v-15.53a27.713,27.713,0,0,0,7.981,4.93,4.453,4.453,0,0,1,3.25-3.45l0.095-.52a31.161,31.161,0,0,1-11.326-5.55v-19.97Zm25.989-2.68c-0.908,3.16-2.007,6.65-3.01,9.23a15.1,15.1,0,0,0-3.68-1.34l-0.478.38a14.837,14.837,0,0,1,4.062,6.45c2.629,1.87,4.922-1.91,1.195-4.78a58.67,58.67,0,0,0,5.448-7.12,1.686,1.686,0,0,0,1.816-.91Zm-6.356,40.29a30.836,30.836,0,0,0,5.018-10.85,1.609,1.609,0,0,0,1.673-1.05l-4.779-1.05a53.4,53.4,0,0,1-2.676,12.57Zm13.382-18.64a11.087,11.087,0,0,1,.525,2.68c3.059,2.86,6.548-3.68-2.485-8.32l-0.573.29a26.187,26.187,0,0,1,2.1,4.2c-2.628.15-5.161,0.24-7.407,0.34a106.782,106.782,0,0,0,9.415-12.24,1.854,1.854,0,0,0,1.959-.66l-5.018-2.3c-2.007,4.45-5.113,10.61-7.838,15.25-2.007.04-3.632,0.09-4.731,0.09l1.482,4.06a1.679,1.679,0,0,0,1.242-1c1.769-.33,3.346-0.67,4.827-0.96v21.03h0.621c1.769,0,2.963-.86,2.963-1.14v-20.65Zm-1.721,5.5a21.032,21.032,0,0,1,2.2,8.26c2.819,2.87,6.451-3.34-1.578-8.5Zm11.088-8.03V1956h13.811v5.31H229.055Zm13.811-11.95v5.26H229.055v-5.26h13.811Zm2.867,15.25a56.953,56.953,0,0,1-4.492,6.78,26.707,26.707,0,0,1-3.345-8.65h4.97v1.72h0.621a4.408,4.408,0,0,0,3.107-1V1949.6a2.486,2.486,0,0,0,1.816-.86l-3.919-2.92-1.768,2.11h-8.459c1.051-1.15,2.294-2.54,3.154-3.59a1.63,1.63,0,0,0,1.816-1.1l-5.831-1.05c-0.239,1.63-.669,4.02-1,5.74h-2.82l-4.158-1.63v18.64H226c1.864,0,3.059-.72,3.059-1v-1.2h4.922v6.64l-3.393-2.91-1.96,2.01h-6.165l0.431,1.38h5.878a23.007,23.007,0,0,1-8.172,13.24l0.43,0.72a22.493,22.493,0,0,0,11.326-13.67,3.038,3.038,0,0,0,1.625-.43v11.37c0,0.62-.239.86-1,0.86-0.86,0-5.065-.33-5.065-0.33v0.72a6.457,6.457,0,0,1,3.632,1.33,3.836,3.836,0,0,1,.86,2.58c4.444-.47,5.066-2.38,5.066-5.06v-17.25c1.624,10.37,4.922,15.53,10.131,19.73,0.526-1.81,1.577-3.1,3.059-3.44l0.048-.47a22.729,22.729,0,0,1-8.937-7.46,63.965,63.965,0,0,0,6.547-4.3,1.405,1.405,0,0,0,1.768-.34Zm23.7-15.97v20.46h-5.783v-20.46h5.783Zm0,21.8v4.3H270c1.243,0,2.916-.96,2.963-1.29v-24.14a3.934,3.934,0,0,0,2.007-.95l-4.109-3.2-1.912,2.1h-5.066l-3.68-1.63v32.02h0.526c1.625,0,2.915-.86,2.915-1.29v-5.92h5.783Zm20.932-23.56c-0.717,4.06-1.912,10.08-3.059,14.67a6.03,6.03,0,0,0,3.871-.19c0.192-.72.383-1.53,0.574-2.35h4.875a37.958,37.958,0,0,1-6.357,14.2c-3.584-4.3-6.26-10.23-7.6-18.88,0.143-2.44.191-4.92,0.239-7.45h7.455Zm8.411,8.5-2.342,2.25h-4.4c0.812-3.63,1.577-7.65,2.055-10.09a3.617,3.617,0,0,0,2.1-.81l-4.3-3.34-1.768,2.1h-16.44l0.43,1.39h5.018c-0.048,14.67-.239,28.1-13.142,38.37l0.717,0.81c11.8-7.4,14.863-17.2,15.771-28.43,1.147,7.88,3.106,13.57,5.83,17.92a37.576,37.576,0,0,1-15.58,10.08l0.383,0.77c7.216-1.91,12.664-4.83,16.822-8.51a31.913,31.913,0,0,0,10.275,8.41,4.746,4.746,0,0,1,3.345-3.68l0.1-.48a33.791,33.791,0,0,1-11.231-6.69c4.014-4.39,6.547-9.74,8.315-15.77a2.538,2.538,0,0,0,1.912-.67Zm24.556-12.95v29.15c-2.007.53-3.919,1.05-5.687,1.48v-24.13c1.1-.19,1.481-0.57,1.577-1.19l-5.114-.53v26.76c-1.29.34-2.341,0.58-3.106,0.72l2.055,4.4a1.879,1.879,0,0,0,1.051-1.2c3.728-1.86,6.786-3.49,9.224-4.83v13.15H324c1.434,0,3.011-1.01,3.011-1.58v-40.29c1.194-.19,1.577-0.67,1.672-1.29Zm25.329,6.55a67.1,67.1,0,0,1-6.93,21.27,51.346,51.346,0,0,1-7.694-21.27h14.624Zm1.911-3.78-2.246,2.39H329.158l0.43,1.39h3.25c1.1,9.6,3.441,17.73,7.121,24.23a42.8,42.8,0,0,1-12.187,12.52l0.574,0.62a41.683,41.683,0,0,0,13.285-10.37A35.753,35.753,0,0,0,352.1,1986.3a4.115,4.115,0,0,1,3.536-2.91l0.143-.53a38.12,38.12,0,0,1-11.947-9.75c4.827-6.97,7.312-15.15,8.841-23.41,1.147-.1,1.625-0.29,1.912-0.77Zm21.736,28.58a24.143,24.143,0,0,0,.144-2.63v-3.2h11.326v5.83H372.3Zm11.47-7.21H372.448v-2.54a1.515,1.515,0,0,0,1.625-1.24l-5.162-.53v8.85c0,5.06-.764,10.65-5.113,14.62l0.573,0.57a14.746,14.746,0,0,0,7.742-11.18h11.661v11.09h0.669c1.434,0,3.011-.77,3.011-1.15v-20.93c1.195-.15,1.577-0.62,1.72-1.29l-5.4-.58v4.31Zm-1.529-17.45a17.73,17.73,0,0,1-4.254,5.59,16.243,16.243,0,0,1-6.786-5.59h11.04Zm4.158-1.38h-7.121v-3.68c1.195-.2,1.625-0.63,1.72-1.29l-5.352-.53v5.5H364.084l0.383,1.38h5.543a19.909,19.909,0,0,0,5.735,7.41,39.69,39.69,0,0,1-12.377,5.59l0.286,0.72a44.92,44.92,0,0,0,14.29-4.83,36.327,36.327,0,0,0,11.708,3.97,4.137,4.137,0,0,1,2.963-3.4v-0.52a51.154,51.154,0,0,1-11.565-2.1,21.121,21.121,0,0,0,5.83-6.84h4.875a1.172,1.172,0,0,0,1.29-.76c-1.672-1.53-4.349-3.63-4.349-3.63Zm10.944,0.43a1.648,1.648,0,0,0,1.624-1.29l-5.113-.48v30.11h0.669c1.29,0,2.82-.77,2.82-1.25v-27.09Zm5.065-5.07v37.85a0.841,0.841,0,0,1-1.051.96c-0.956,0-5.544-.34-5.544-0.34v0.72a7.073,7.073,0,0,1,3.823,1.34,4.143,4.143,0,0,1,1.052,2.67c4.731-.43,5.305-2.15,5.305-5.06v-36.28a1.661,1.661,0,0,0,1.72-1.29Zm17.848,6.83-0.86.34a13.106,13.106,0,0,0,.43,2.87c0.478,1.38,2.82,3.92,4.445,3.92,1,0,2.1-1.01,3.345-1.3a164.219,164.219,0,0,1,17.826-2.67c0.43,0,.717.14,0.525,0.76-2.771,10.99-11.756,21.7-25.281,28.58l0.669,1.05c14.529-5.25,23.131-14.24,28.34-26.09,0.717-1.53,2.39-2.39,2.39-3.58,0-1.49-3.728-4.45-5.4-4.45-0.956,0-1.577.86-3.011,1.15-2.341.52-16.678,2.05-19.689,2.05C422.267,1952.56,421.168,1951.13,420.26,1949.93Zm65.843,13.43c0.144-2.91.383-8.12,0.478-10.94,0.1-1.53.956-1.82,0.956-2.92,0-1.14-3.441-3.15-5.352-3.15a8.963,8.963,0,0,0-3.585,1.24l0.048,0.91a9.9,9.9,0,0,1,2.868.77,1.981,1.981,0,0,1,1,2,101.806,101.806,0,0,1-.1,12c-0.622,9.7-5.21,16.06-14.433,21.03l0.573,0.95C479.652,1981.38,485.53,1974.55,486.1,1963.36Zm-20.549-12.37c0.764,0.38.86,0.76,0.955,1.86,0.239,1.82.287,6.59,0.287,8.84-0.048,3.73-.526,5.5-0.526,6.74,0,2.05,1,3.82,2.247,3.82,1.051,0,1.816-.71,1.816-2.72,0-2.34-.1-12.24.047-14.34,0.144-1.81.861-2.34,0.861-3.34,0-1.34-3.346-3.25-5.21-3.25a9.115,9.115,0,0,0-3.058.67v0.9A13.39,13.39,0,0,1,465.554,1950.99Zm34.841,10.99a7.8,7.8,0,0,0,.382,2.96c0.717,1.82,3.154,4.4,4.636,4.4,1.529,0,2.1-.82,5.065-1.15,3.585-.43,16.249-1.15,19.4-1.15,3.059,0,4.732.1,6.452,0.1s2.437-.57,2.437-1.53c0-1.53-2.246-2.53-4.4-2.53-1.2,0-2.772.28-5.974,0.52-2.39.19-18.5,1.24-22.987,1.24-2.151,0-2.963-1.43-4.062-3.15Zm-280.8,61.4a22.405,22.405,0,0,1-1.816,7.74c-1.864,4.16-6.213,11.43-9.224,11.43-1.959,0-3.919-3.49-3.919-7.84a15.277,15.277,0,0,1,4.732-10.8,17.96,17.96,0,0,1,8.841-4.83A7.814,7.814,0,0,1,219.59,2023.38Zm-0.717,27.43c15.723-.9,21.123-8.93,21.123-17.15,0-9.94-7.646-16.73-17.826-16.73a20.833,20.833,0,0,0-14.1,5.11,18.576,18.576,0,0,0-6.595,13.62c0,6.03,3.393,11.33,6.786,11.33,5.162,0,10.658-9.13,12.665-14.96a24.157,24.157,0,0,0,1.529-7.93,8.983,8.983,0,0,0-2.389-5.35c0.621-.05,1.194-0.1,1.768-0.1,7.885,0,14,5.5,14,14.05,0,8.6-5.352,14.77-17.156,17.06Zm64.649-36.41v3.82H262.446v-3.82h21.076Zm-21.076,9.27v-4.06h21.076v4.06H262.446Zm0,1.34h21.076v1.91h0.621c1.2,0,3.154-.72,3.2-1.05v-10.8a3.563,3.563,0,0,0,2.007-.96l-4.349-3.3-1.959,2.2H262.733l-4.062-1.72v16.3h0.573c1.578,0,3.2-.86,3.2-1.24v-1.34Zm5.783,9.36h-7.5v-4.2h7.5v4.2Zm-7.5,7.12h7.5v3.92c-2.628.39-5.161,0.77-7.5,1.15v-5.07Zm0-5.73h7.5v4.35h-7.5v-4.35Zm33.023-5.59a1.144,1.144,0,0,0,1.243-.77c-1.673-1.57-4.588-3.87-4.588-3.87l-2.485,3.3H250.881l0.43,1.34H257v16.92c-2.58.33-4.731,0.62-6.117,0.76l2.151,4.45a1.755,1.755,0,0,0,1.147-1.1c6.021-1.92,10.609-3.49,14.05-4.69v7.84h0.621c1.864,0,3.059-.81,3.059-1.05v-23.13h21.84Zm-7.407,5.45a30.951,30.951,0,0,1-3.632,7.98,19.576,19.576,0,0,1-5.544-7.98h9.176Zm2.246-3.64-2.39,2.25H272.96l0.43,1.39h2.772a27.385,27.385,0,0,0,4.875,10.27,28.034,28.034,0,0,1-8.268,6.98l0.43,0.67a31.5,31.5,0,0,0,9.654-5.69,26.618,26.618,0,0,0,9.176,5.59,4.432,4.432,0,0,1,3.3-3.34l0.1-.48a31.788,31.788,0,0,1-10.227-4.16,28.67,28.67,0,0,0,5.543-9.37c1.052-.09,1.53-0.19,1.864-0.66Zm48.116-16.72a22.235,22.235,0,0,1,4.11,4.11c-4.492.14-8.841,0.24-12.473,0.28a52.132,52.132,0,0,0,5.113-6.92,1.571,1.571,0,0,0,1.769-.96l-5.879-1.48a76,76,0,0,1-2.724,9.41c-2.676.05-4.922,0.05-6.451,0.05l1.72,4.44a1.546,1.546,0,0,0,1.29-.9c7.981-1.15,13.955-2.06,18.4-2.87a12.123,12.123,0,0,1,1.768,3.87c3.967,2.63,6.4-6.21-6.165-9.41Zm-20.311,15.72-2.055,2.1h-5.926c0.335-3.01.621-6.35,0.765-8.65h5.305v2.25h0.573c1.147,0,2.963-.76,3.011-1.05v-10.56a3.747,3.747,0,0,0,2.007-.91l-4.158-3.2-1.911,2.1h-9.941l0.383,1.39h10.036v8.65h-4.541l-3.918-1.49c-0.287,3.78-1,10.76-1.673,15.68,1.864,0.29,2.724.19,3.632-.34,0.1-.76.191-1.62,0.287-2.53h6.547c-0.478,8.65-1.434,13.96-2.772,15.15a2.33,2.33,0,0,1-1.72.48c-1,0-4.062-.29-5.926-0.43v0.76a12.3,12.3,0,0,1,4.11,1.34,3.307,3.307,0,0,1,.764,2.53,7.763,7.763,0,0,0,5.162-1.62c2.15-1.86,3.393-7.65,3.919-17.73a2.845,2.845,0,0,0,1.911-.72Zm8.889,6.79v-7.89h5.926v7.89h-5.926Zm15.723-7.89v7.89h-6.26v-7.89h6.26Zm-2.485,12.62a45.117,45.117,0,0,1,3.393,5.11l-7.168.58v-9.04h6.26v2.34h0.574c1.1,0,2.867-.76,2.915-1.09v-9.99a4.054,4.054,0,0,0,1.816-.86l-3.967-2.97-1.768,1.96h-5.83v-3.87c1-.14,1.338-0.48,1.433-1.1l-4.97-.52v5.49h-5.687l-3.632-1.62v15.44h0.478c1.434,0,2.915-.77,2.915-1.1v-2.11h5.926v9.27c-5.448.43-9.94,0.72-12.616,0.77l2.2,4.59a1.778,1.778,0,0,0,1.242-1.05c8.842-1.63,15.437-2.92,20.407-4.02a17.378,17.378,0,0,1,1.72,4.73c3.824,3.11,6.93-5.25-5.113-11.28Zm64.657-27.1H390.656v1.82l5.5,0.71L396.2,2035c0,9.36-3.059,12.8-9.176,12.8-5.4,0-8.841-2.91-8.841-11.9v-4.3c0-4.68,0-9.27.1-13.81l5.3-.57v-1.82H368.959v1.82l4.4,0.48c0.048,4.58.048,9.27,0.048,13.9v5.5c0,9.99,5.161,14.1,12.76,14.1,7.216,0,12.282-4.21,12.282-14.96l0.048-18.4,4.683-.62v-1.82Zm40.52,0h-12v2.01l4.827,0.48-8.507,26.28-9.175-26.33,5.113-.43v-2.01H409.765v1.82l3.967,0.43,12.234,33.12h2.2l10.991-32.98,4.541-.62v-1.77Z" transform="translate(-101.188 -1942.19)"/>
  <path id="_1" data-name="※1" class="cls-1" d="M354.154,2013.53a0.67,0.67,0,1,0,.668.67A0.668,0.668,0,0,0,354.154,2013.53Zm-2.436,2.45a0.675,0.675,0,1,0,.676.67A0.676,0.676,0,0,0,351.718,2015.98Zm4.881,0a0.675,0.675,0,1,0,0,1.35A0.675,0.675,0,0,0,356.6,2015.98Zm-2.445,2.45a0.679,0.679,0,0,0-.668.69,0.668,0.668,0,0,0,1.336,0A0.679,0.679,0,0,0,354.154,2018.43Zm0.271-1.78,3.365-3.39-0.271-.27-3.365,3.39-3.366-3.39-0.27.27,3.365,3.39-3.384,3.42,0.271,0.27,3.384-3.41,3.4,3.41,0.27-.27Zm7.2-3.36h-0.614a5.986,5.986,0,0,1-1.533.78l0.126,0.67a6.483,6.483,0,0,0,1.3-.66v5.25H359.6v0.61h3.257v-0.61h-1.227v-6.04Z" transform="translate(-101.188 -1942.19)"/>
</svg>
