<svg xmlns="http://www.w3.org/2000/svg" viewBox="0 0 504.39 91.85"><defs><style>.cls-1{fill:#1877f2;}.cls-2{fill:#fff;}.cls-3{fill:none;stroke:#fff;stroke-linecap:round;stroke-linejoin:round;stroke-width:2px;}</style></defs><g id="Layer_2" data-name="Layer 2"><g id="Layer_1-2" data-name="Layer 1"><rect class="cls-1" width="504.39" height="91.85" rx="10"/><path class="cls-2" d="M74.21,46.08A25.55,25.55,0,1,0,44.66,71.32V53.46H38.18V46.08h6.48V40.45c0-6.4,3.82-9.94,9.65-9.94A39.15,39.15,0,0,1,60,31V37.3H56.81c-3.17,0-4.16,2-4.16,4v4.79h7.08L58.6,53.46h-6V71.32A25.57,25.57,0,0,0,74.21,46.08Z"/><path class="cls-2" d="M95.45,39.68V26.08h1.8v6.74L104,26.08h2.44l-5.7,5.51,6,8.09h-2.37L99.47,32.8,97.25,35v4.71Z"/><path class="cls-2" d="M107.65,33.06a7.38,7.38,0,0,1,1.82-5.31,6.19,6.19,0,0,1,4.69-1.91,6.52,6.52,0,0,1,3.4.9,5.88,5.88,0,0,1,2.3,2.51,8.12,8.12,0,0,1,.79,3.65,8,8,0,0,1-.83,3.7,5.72,5.72,0,0,1-2.37,2.47,6.75,6.75,0,0,1-3.3.84,6.42,6.42,0,0,1-3.43-.93,5.9,5.9,0,0,1-2.29-2.53A7.66,7.66,0,0,1,107.65,33.06Zm1.85,0A5.44,5.44,0,0,0,110.83,37a4.61,4.61,0,0,0,6.66,0,5.79,5.79,0,0,0,1.31-4,7,7,0,0,0-.56-2.9,4.3,4.3,0,0,0-1.64-1.92,4.41,4.41,0,0,0-2.43-.68,4.63,4.63,0,0,0-3.29,1.31Q109.5,30,109.5,33.08Z"/><path class="cls-2" d="M122.36,35.31l1.7-.15a3.83,3.83,0,0,0,.56,1.68,3.08,3.08,0,0,0,1.37,1,5.16,5.16,0,0,0,2.09.41A4.93,4.93,0,0,0,129.9,38a2.5,2.5,0,0,0,1.17-.84,1.9,1.9,0,0,0,.38-1.16,1.76,1.76,0,0,0-.37-1.12,2.67,2.67,0,0,0-1.22-.8,21.67,21.67,0,0,0-2.42-.67,12.16,12.16,0,0,1-2.63-.85,3.7,3.7,0,0,1-1.45-1.26,3.11,3.11,0,0,1-.48-1.69,3.47,3.47,0,0,1,.59-1.93,3.58,3.58,0,0,1,1.7-1.36,6.47,6.47,0,0,1,2.5-.46,6.91,6.91,0,0,1,2.67.48,3.86,3.86,0,0,1,1.77,1.44,4,4,0,0,1,.67,2.14l-1.73.13a2.76,2.76,0,0,0-.94-1.95,3.64,3.64,0,0,0-2.37-.66,3.8,3.8,0,0,0-2.38.6,1.81,1.81,0,0,0-.74,1.44,1.52,1.52,0,0,0,.53,1.21,7,7,0,0,0,2.71,1,17.79,17.79,0,0,1,3,.87,4,4,0,0,1,1.75,1.38,3.38,3.38,0,0,1,.57,1.94,3.72,3.72,0,0,1-.62,2,4.16,4.16,0,0,1-1.79,1.5,6.32,6.32,0,0,1-2.62.53,7.78,7.78,0,0,1-3.09-.54,4.23,4.23,0,0,1-2-1.62A4.65,4.65,0,0,1,122.36,35.31Z"/><path class="cls-2" d="M135.68,39.68V26.08h9.84v1.6h-8v4.17H145v1.6h-7.53v4.62h8.35v1.61Z"/><path class="cls-2" d="M163.3,34.91l1.8.46a6,6,0,0,1-2,3.38,5.65,5.65,0,0,1-3.6,1.16,6.55,6.55,0,0,1-3.58-.89,5.68,5.68,0,0,1-2.09-2.6,9.2,9.2,0,0,1-.72-3.64,8,8,0,0,1,.81-3.71,5.58,5.58,0,0,1,2.31-2.4,6.73,6.73,0,0,1,3.3-.82,5.53,5.53,0,0,1,3.43,1,5.33,5.33,0,0,1,1.94,2.92l-1.77.42a4.29,4.29,0,0,0-1.37-2.17,3.68,3.68,0,0,0-2.27-.67,4.41,4.41,0,0,0-2.62.75,4,4,0,0,0-1.48,2,8.21,8.21,0,0,0-.43,2.61,8.29,8.29,0,0,0,.51,3A3.8,3.8,0,0,0,157,37.73a4.37,4.37,0,0,0,2.31.64,3.87,3.87,0,0,0,2.56-.87A4.4,4.4,0,0,0,163.3,34.91Z"/><path class="cls-2" d="M166.77,33.06a7.42,7.42,0,0,1,1.82-5.31,6.21,6.21,0,0,1,4.7-1.91,6.51,6.51,0,0,1,3.39.9A5.85,5.85,0,0,1,179,29.25a8.12,8.12,0,0,1,.79,3.65,8,8,0,0,1-.84,3.7,5.64,5.64,0,0,1-2.36,2.47,6.75,6.75,0,0,1-3.3.84,6.45,6.45,0,0,1-3.44-.93,5.9,5.9,0,0,1-2.29-2.53A7.66,7.66,0,0,1,166.77,33.06Zm1.86,0A5.48,5.48,0,0,0,170,37a4.36,4.36,0,0,0,3.32,1.41,4.31,4.31,0,0,0,3.34-1.43,5.74,5.74,0,0,0,1.31-4,6.89,6.89,0,0,0-.56-2.9,4.24,4.24,0,0,0-1.64-1.92,4.41,4.41,0,0,0-2.43-.68A4.59,4.59,0,0,0,170,28.7Q168.63,30,168.63,33.08Z"/><path class="cls-2" d="M181.49,35.31l1.69-.15a3.71,3.71,0,0,0,.57,1.68,3.1,3.1,0,0,0,1.36,1,5.2,5.2,0,0,0,2.09.41A4.89,4.89,0,0,0,189,38a2.45,2.45,0,0,0,1.17-.84,1.91,1.91,0,0,0,.39-1.16,1.82,1.82,0,0,0-.37-1.12,2.71,2.71,0,0,0-1.23-.8,21,21,0,0,0-2.42-.67,12,12,0,0,1-2.62-.85,3.73,3.73,0,0,1-1.46-1.26A3.19,3.19,0,0,1,182,29.6a3.46,3.46,0,0,1,.58-1.93,3.61,3.61,0,0,1,1.71-1.36,6.46,6.46,0,0,1,2.49-.46,6.91,6.91,0,0,1,2.67.48,3.94,3.94,0,0,1,1.78,1.44,4.12,4.12,0,0,1,.66,2.14l-1.72.13a2.8,2.8,0,0,0-.94-1.95,3.68,3.68,0,0,0-2.37-.66,3.8,3.8,0,0,0-2.38.6,1.79,1.79,0,0,0-.75,1.44,1.55,1.55,0,0,0,.53,1.21,7.09,7.09,0,0,0,2.71,1,17.21,17.21,0,0,1,3,.87,4.06,4.06,0,0,1,1.76,1.38,3.45,3.45,0,0,1,.56,1.94,3.64,3.64,0,0,1-.62,2,4.13,4.13,0,0,1-1.78,1.5,6.33,6.33,0,0,1-2.63.53,7.78,7.78,0,0,1-3.09-.54,4.34,4.34,0,0,1-2-1.62A4.55,4.55,0,0,1,181.49,35.31Z"/><path class="cls-2" d="M194.72,39.68V26.08h2.7l3.22,9.63c.3.9.52,1.57.65,2,.16-.49.4-1.22.73-2.18l3.25-9.46h2.42v13.6H206V28.3l-4,11.38h-1.63L196.45,28.1V39.68Z"/><path class="cls-2" d="M210.64,39.68V26.08h9.83v1.6h-8v4.17H220v1.6h-7.52v4.62h8.35v1.61Z"/><path class="cls-2" d="M223.27,39.68V26.08h5.13a12.09,12.09,0,0,1,2.07.13,4.09,4.09,0,0,1,1.68.63,3.42,3.42,0,0,1,1.09,1.32,4.08,4.08,0,0,1,.41,1.85,4.16,4.16,0,0,1-1.1,2.94q-1.11,1.2-4,1.2h-3.49v5.53Zm1.8-7.14h3.52a3.72,3.72,0,0,0,2.47-.64,2.34,2.34,0,0,0,.74-1.83,2.49,2.49,0,0,0-.43-1.46,2,2,0,0,0-1.14-.81,7.69,7.69,0,0,0-1.68-.12h-3.48Z"/><path class="cls-2" d="M235.4,33.06a7.38,7.38,0,0,1,1.82-5.31,6.19,6.19,0,0,1,4.69-1.91,6.52,6.52,0,0,1,3.4.9,5.88,5.88,0,0,1,2.3,2.51,8.13,8.13,0,0,1,.8,3.65,8,8,0,0,1-.84,3.7,5.72,5.72,0,0,1-2.37,2.47,6.75,6.75,0,0,1-3.3.84,6.42,6.42,0,0,1-3.43-.93,5.9,5.9,0,0,1-2.29-2.53A7.66,7.66,0,0,1,235.4,33.06Zm1.85,0A5.48,5.48,0,0,0,238.57,37a4.38,4.38,0,0,0,3.32,1.41,4.33,4.33,0,0,0,3.35-1.43,5.79,5.79,0,0,0,1.31-4A7,7,0,0,0,246,30a4.26,4.26,0,0,0-1.65-1.92,4.38,4.38,0,0,0-2.42-.68,4.62,4.62,0,0,0-3.29,1.31Q237.25,30,237.25,33.08Z"/><path class="cls-2" d="M250.75,39.68V26.08h6a7.91,7.91,0,0,1,2.77.37,3,3,0,0,1,1.51,1.29,3.83,3.83,0,0,1,.56,2.05,3.44,3.44,0,0,1-.93,2.44,4.77,4.77,0,0,1-2.9,1.26,4.81,4.81,0,0,1,1.09.68A9.29,9.29,0,0,1,260.37,36l2.37,3.7h-2.27l-1.8-2.83a20.45,20.45,0,0,0-1.3-1.87,3.68,3.68,0,0,0-.91-.91,2.6,2.6,0,0,0-.82-.37,5.82,5.82,0,0,0-1-.06h-2.09v6Zm1.8-7.6h3.87a5.82,5.82,0,0,0,1.93-.25,2.1,2.1,0,0,0,1.06-.82,2.2,2.2,0,0,0,.36-1.22,2,2,0,0,0-.7-1.59,3.31,3.31,0,0,0-2.21-.62h-4.31Z"/><path class="cls-2" d="M267.56,39.68v-12h-4.48v-1.6h10.78v1.6h-4.5v12Z"/><path class="cls-2" d="M94.36,57.94A10.49,10.49,0,0,1,97,50.4a8.79,8.79,0,0,1,6.67-2.72A9.26,9.26,0,0,1,108.44,49a8.33,8.33,0,0,1,3.28,3.57,11.57,11.57,0,0,1,1.13,5.18A11.38,11.38,0,0,1,111.66,63a8.12,8.12,0,0,1-3.36,3.52,9.68,9.68,0,0,1-4.7,1.19,9.09,9.09,0,0,1-4.87-1.32,8.47,8.47,0,0,1-3.26-3.6A10.88,10.88,0,0,1,94.36,57.94ZM97,58a7.7,7.7,0,0,0,1.88,5.5,6.55,6.55,0,0,0,9.46,0,8.17,8.17,0,0,0,1.87-5.76,9.93,9.93,0,0,0-.8-4.12,6.18,6.18,0,0,0-2.33-2.73,6.41,6.41,0,0,0-3.45-1A6.54,6.54,0,0,0,99,51.75Q97,53.61,97,58Z"/><path class="cls-2" d="M116.27,67.35V48h13v2.29H118.83v6h9.07v2.28h-9.07v8.78Z"/><path class="cls-2" d="M132.77,67.35V48h13v2.29H135.32v6h9.07v2.28h-9.07v8.78Z"/><path class="cls-2" d="M149.56,67.35V48h2.56V67.35Z"/><path class="cls-2" d="M170.42,60.58l2.56.64a8.69,8.69,0,0,1-2.9,4.81A8,8,0,0,1,165,67.68a9.17,9.17,0,0,1-5.08-1.27,8,8,0,0,1-3-3.69,13.12,13.12,0,0,1-1-5.18A11.36,11.36,0,0,1,157,52.28a7.94,7.94,0,0,1,3.29-3.42A9.55,9.55,0,0,1,165,47.7a7.94,7.94,0,0,1,4.88,1.47,7.7,7.7,0,0,1,2.76,4.15l-2.52.6a6,6,0,0,0-1.95-3.07,5.18,5.18,0,0,0-3.22-1A6.22,6.22,0,0,0,161.24,51a5.67,5.67,0,0,0-2.11,2.87,12.5,12.5,0,0,0,.12,8,5.27,5.27,0,0,0,2.23,2.75,6.22,6.22,0,0,0,3.28.91,5.48,5.48,0,0,0,3.64-1.24A6.33,6.33,0,0,0,170.42,60.58Z"/><path class="cls-2" d="M176.56,67.35V48h2.56V67.35Z"/><path class="cls-2" d="M181.51,67.35,188.93,48h2.75l7.91,19.33h-2.91l-2.25-5.85h-8.09l-2.12,5.85Zm5.57-7.94h6.55l-2-5.35c-.62-1.62-1.08-3-1.37-4a25.3,25.3,0,0,1-1.05,3.7Z"/><path class="cls-2" d="M201.53,67.35V48h2.56v17h9.52v2.28Z"/><path class="cls-2" d="M223.28,67.35V48h13v2.29H225.84v6h9.07v2.28h-9.07v8.78Z"/><path class="cls-2" d="M236,67.35,243.46,48h2.75l7.91,19.33h-2.91L249,61.5h-8.08l-2.12,5.85Zm5.58-7.94h6.55l-2-5.35c-.61-1.62-1.07-3-1.37-4a24.07,24.07,0,0,1-1,3.7Z"/><path class="cls-2" d="M270,60.58l2.56.64A8.63,8.63,0,0,1,269.62,66a8,8,0,0,1-5.11,1.65,9.15,9.15,0,0,1-5.08-1.27,7.92,7.92,0,0,1-3-3.69,13.12,13.12,0,0,1-1-5.18,11.36,11.36,0,0,1,1.15-5.26,7.92,7.92,0,0,1,3.28-3.42,9.56,9.56,0,0,1,4.69-1.16,8,8,0,0,1,4.88,1.47,7.69,7.69,0,0,1,2.75,4.15l-2.52.6a5.85,5.85,0,0,0-2-3.07,5.13,5.13,0,0,0-3.21-1A6.28,6.28,0,0,0,260.77,51a5.59,5.59,0,0,0-2.1,2.87,11.41,11.41,0,0,0-.61,3.71,11.74,11.74,0,0,0,.72,4.3A5.28,5.28,0,0,0,261,64.58a6.22,6.22,0,0,0,3.28.91,5.5,5.5,0,0,0,3.64-1.24A6.32,6.32,0,0,0,270,60.58Z"/><path class="cls-2" d="M275.72,67.35V48h14v2.29H278.27v5.91H289v2.27H278.27v6.58h11.87v2.28Z"/><path class="cls-2" d="M293.57,67.35V48h7.25a9,9,0,0,1,3.55.59,4.57,4.57,0,0,1,2.1,1.81,4.78,4.78,0,0,1,.75,2.55,4.37,4.37,0,0,1-.67,2.33,4.8,4.8,0,0,1-2,1.77,5.08,5.08,0,0,1,2.7,1.75,4.69,4.69,0,0,1,.94,2.93,5.65,5.65,0,0,1-.57,2.52,5,5,0,0,1-1.42,1.8,5.85,5.85,0,0,1-2.12,1,13,13,0,0,1-3.11.32Zm2.55-11.2h4.18a9.2,9.2,0,0,0,2.44-.23,2.68,2.68,0,0,0,1.47-1,2.78,2.78,0,0,0,.5-1.69,3.09,3.09,0,0,0-.47-1.69,2.28,2.28,0,0,0-1.31-1,11.11,11.11,0,0,0-2.94-.27h-3.87Zm0,8.92h4.82a11.46,11.46,0,0,0,1.74-.09,4.17,4.17,0,0,0,1.47-.53,2.83,2.83,0,0,0,1-1.07,3.44,3.44,0,0,0,.38-1.63,3.21,3.21,0,0,0-.55-1.88,2.89,2.89,0,0,0-1.54-1.12,9.38,9.38,0,0,0-2.83-.32h-4.47Z"/><path class="cls-2" d="M310.9,57.94a10.49,10.49,0,0,1,2.59-7.54,8.79,8.79,0,0,1,6.67-2.72A9.26,9.26,0,0,1,325,49a8.27,8.27,0,0,1,3.28,3.57,11.57,11.57,0,0,1,1.13,5.18A11.38,11.38,0,0,1,328.2,63a8.12,8.12,0,0,1-3.36,3.52,9.68,9.68,0,0,1-4.7,1.19,9.12,9.12,0,0,1-4.87-1.32,8.47,8.47,0,0,1-3.26-3.6A10.88,10.88,0,0,1,310.9,57.94Zm2.64,0a7.74,7.74,0,0,0,1.88,5.5,6.55,6.55,0,0,0,9.46,0,8.17,8.17,0,0,0,1.87-5.76,9.93,9.93,0,0,0-.8-4.12,6.18,6.18,0,0,0-2.33-2.73,6.39,6.39,0,0,0-3.45-1,6.54,6.54,0,0,0-4.67,1.87Q313.53,53.61,313.54,58Z"/><path class="cls-2" d="M331.9,57.94a10.49,10.49,0,0,1,2.59-7.54,8.79,8.79,0,0,1,6.67-2.72A9.26,9.26,0,0,1,346,49a8.27,8.27,0,0,1,3.28,3.57,11.57,11.57,0,0,1,1.13,5.18A11.38,11.38,0,0,1,349.2,63a8.12,8.12,0,0,1-3.36,3.52,9.67,9.67,0,0,1-4.69,1.19,9.13,9.13,0,0,1-4.88-1.32,8.47,8.47,0,0,1-3.26-3.6A10.88,10.88,0,0,1,331.9,57.94Zm2.64,0a7.74,7.74,0,0,0,1.88,5.5,6.55,6.55,0,0,0,9.46,0,8.17,8.17,0,0,0,1.87-5.76,9.93,9.93,0,0,0-.8-4.12,6.18,6.18,0,0,0-2.33-2.73,6.36,6.36,0,0,0-3.45-1,6.54,6.54,0,0,0-4.67,1.87Q334.54,53.61,334.54,58Z"/><path class="cls-2" d="M353.58,67.35V48h2.55v9.59l9.6-9.59h3.47l-8.11,7.84,8.47,11.49h-3.38l-6.88-9.78-3.17,3.08v6.7Z"/><polyline class="cls-3" points="470.98 39.06 477.6 45.68 471.5 52.78"/></g></g></svg>