<?xml version="1.0" encoding="utf-8"?>
<!-- Generator: Adobe Illustrator 26.3.1, SVG Export Plug-In . SVG Version: 6.00 Build 0)  -->
<svg version="1.1" id="Layer_1" xmlns="http://www.w3.org/2000/svg" xmlns:xlink="http://www.w3.org/1999/xlink" x="0px" y="0px"
	 viewBox="0 0 6400 100" style="enable-background:new 0 0 6400 100;" xml:space="preserve">
<style type="text/css">
	.st0{fill-rule:evenodd;clip-rule:evenodd;fill:#F0EEE9;}
</style>
<path class="st0" d="M6400,38.9c0-14.7,0-38.9,0-38.9H4800H3200H1600H0v38.9c289,0,389,61.1,789,61.1c401.1,0.1,500-61.1,811-61.1
	c289,0,389,61.1,789,61.1c401.1,0.1,500-61.1,811-61.1c289,0,389,61.1,789,61.1c401.1,0.1,500-61.1,811-61.1
	c289,0,389,61.1,789,61.1C5990.1,100.1,6089,38.9,6400,38.9z"/>
</svg>
