<svg width="168" height="168" viewBox="0 0 168 168" fill="none" xmlns="http://www.w3.org/2000/svg">
<path d="M84 168C130.392 168 168 130.392 168 84C168 37.6081 130.392 0 84 0C37.6081 0 0 37.6081 0 84C0 130.392 37.6081 168 84 168Z" fill="white"/>
<path d="M113.791 99.2512L100.239 79.5353L82.3406 109.484C81.827 110.354 80.9182 110.907 79.9304 110.986C79.8514 110.986 79.7724 110.986 79.6934 110.986C78.7846 110.986 77.9154 110.591 77.3227 109.88L63.573 93.3641L59.3058 99.2907C58.7131 100.081 57.8044 100.595 56.7771 100.595H42.8298C53.6557 114.858 67.0104 123.313 75.5447 127.62C80.9182 130.307 87.1609 130.307 92.5344 127.62C101.069 123.353 114.423 114.858 125.249 100.595H116.399C115.372 100.595 114.423 100.081 113.831 99.2512H113.791Z" fill="#87B794"/>
<path d="M60.8467 86.4892C61.3999 85.699 62.3086 85.2248 63.2569 85.2248C64.2052 85.1458 65.1139 85.5804 65.7461 86.3311L79.2588 102.57L97.3942 72.2258C97.9474 71.317 98.8957 70.7639 99.9624 70.7244C101.148 70.6453 102.017 71.1985 102.61 72.0677L117.979 94.4309H129.359C135.246 83.4468 136.036 67.2079 127.383 58.476C106.126 37.1402 84.0396 63.7705 84.0396 63.7705C84.0396 63.7705 61.953 37.1402 40.6962 58.476C32.0038 67.1684 32.7941 83.4073 38.7207 94.4309H55.2362L60.9258 86.5287L60.8467 86.4892Z" fill="#87B794"/>
</svg>
