<svg width="168" height="168" viewBox="0 0 168 168" fill="none" xmlns="http://www.w3.org/2000/svg">
<path d="M84 168C130.392 168 168 130.392 168 84C168 37.6081 130.392 0 84 0C37.6081 0 0 37.6081 0 84C0 130.392 37.6081 168 84 168Z" fill="white"/>
<path d="M97.5521 70.3293C103.269 70.3293 107.904 63.2888 107.904 54.604C107.904 45.9191 103.269 38.8787 97.5521 38.8787C91.8349 38.8787 87.2003 45.9191 87.2003 54.604C87.2003 63.2888 91.8349 70.3293 97.5521 70.3293Z" fill="#9C95C1"/>
<path d="M132.194 70.1542C133.847 61.6281 130.915 53.8882 125.645 52.8667C120.375 51.8452 114.763 57.9289 113.11 66.455C111.458 74.9812 114.39 82.7211 119.66 83.7426C124.93 84.7641 130.542 78.6804 132.194 70.1542Z" fill="#9C95C1"/>
<path d="M70.4477 70.3293C76.1648 70.3293 80.7995 63.2888 80.7995 54.604C80.7995 45.9191 76.1648 38.8787 70.4477 38.8787C64.7305 38.8787 60.0958 45.9191 60.0958 54.604C60.0958 63.2888 64.7305 70.3293 70.4477 70.3293Z" fill="#9C95C1"/>
<path d="M48.3138 83.7576C53.5838 82.7361 56.5161 74.9962 54.8634 66.47C53.2107 57.9439 47.5989 51.8602 42.3289 52.8817C37.059 53.9032 34.1266 61.6431 35.7793 70.1693C37.432 78.6954 43.0439 84.7791 48.3138 83.7576Z" fill="#9C95C1"/>
<path d="M55.2756 122.721C69.6575 137.142 84.5926 119.165 84.5926 119.165C84.5926 119.165 99.5277 137.142 113.91 122.721C120.31 116.28 119.086 103.795 114.068 96.4459C107.983 87.556 100.318 81.7479 94.3123 78.1524C88.3066 74.5569 80.8391 74.5569 74.8335 78.1524C68.8278 81.7084 61.1627 87.556 55.078 96.4459C50.0602 103.755 48.8353 116.28 55.2361 122.721H55.2756Z" fill="#9C95C1"/>
</svg>
