<svg width="112" height="30" viewBox="0 0 112 30" fill="none" xmlns="http://www.w3.org/2000/svg">
<path d="M38.0399 22.501C38.1947 22.501 38.3284 22.5581 38.4435 22.6738C38.5573 22.7882 38.6156 22.9238 38.6156 23.0793V27.0615C38.6156 28.1225 38.3959 28.8764 37.9552 29.3258C37.5144 29.7752 36.7931 29.9999 35.7925 29.9999C35.1678 29.9999 34.6093 29.9361 34.1183 29.8071C33.9568 29.7659 33.8258 29.6768 33.7252 29.5385C33.6246 29.4002 33.5743 29.2433 33.5743 29.0678V28.4802C33.5743 28.3525 33.6299 28.2488 33.7411 28.1717C33.8523 28.0946 33.9714 28.0786 34.0998 28.1265C34.5709 28.2953 35.017 28.3791 35.4405 28.3791C35.8243 28.3791 36.1049 28.2648 36.2822 28.0347C36.4609 27.8047 36.5496 27.4138 36.5496 26.8594V23.0807C36.5496 22.9251 36.6065 22.7908 36.7216 22.6752C36.8368 22.5595 36.9705 22.5023 37.1253 22.5023H38.0425L38.0399 22.501Z" fill="white"/>
<path d="M41.972 22.501C42.1268 22.501 42.2605 22.5581 42.3757 22.6738C42.4895 22.7882 42.5477 22.9238 42.5477 23.0793V29.3205C42.5477 29.476 42.4908 29.6103 42.3757 29.726C42.2605 29.8417 42.1268 29.8988 41.972 29.8988H40.9026C40.7477 29.8988 40.6141 29.8417 40.4989 29.726C40.3851 29.6116 40.3282 29.476 40.3282 29.3205V23.0793C40.3282 22.9238 40.3851 22.7895 40.4989 22.6738C40.6127 22.5595 40.7477 22.501 40.9026 22.501H41.972Z" fill="white"/>
<path d="M49.5345 22.501C49.6894 22.501 49.823 22.5581 49.9382 22.6738C50.052 22.7882 50.1089 22.9238 50.1089 23.0793V29.3205C50.1089 29.476 50.052 29.6103 49.9382 29.726C49.8244 29.8417 49.6894 29.8988 49.5345 29.8988H48.7682C48.3844 29.8988 48.1091 29.726 47.941 29.3816L46.1966 25.8555C46.1966 25.8489 46.1927 25.8449 46.186 25.8449C46.1794 25.8449 46.1754 25.8489 46.1754 25.8555V29.3205C46.1754 29.476 46.1185 29.6103 46.0034 29.726C45.8896 29.8403 45.7546 29.8988 45.5997 29.8988H44.8334C44.6786 29.8988 44.5449 29.8417 44.4297 29.726C44.3159 29.6116 44.2577 29.476 44.2577 29.3205V23.0793C44.2577 22.9238 44.3146 22.7895 44.4297 22.6738C44.5436 22.5595 44.6786 22.501 44.8334 22.501H45.5997C45.9835 22.501 46.2588 22.6738 46.4269 23.0182L48.1713 26.5443C48.1713 26.5509 48.1753 26.5549 48.1819 26.5549C48.1885 26.5549 48.1925 26.5509 48.1925 26.5443V23.0793C48.1925 22.9238 48.2494 22.7895 48.3645 22.6738C48.4797 22.5581 48.6133 22.501 48.7682 22.501H49.5345Z" fill="white"/>
<path d="M58.5079 22.501C58.6627 22.501 58.7964 22.5581 58.9116 22.6738C59.0254 22.7882 59.0836 22.9238 59.0836 23.0793V29.3205C59.0836 29.476 59.0267 29.6103 58.9116 29.726C58.7977 29.8403 58.6627 29.8988 58.5079 29.8988H57.772C57.6172 29.8988 57.4835 29.8417 57.3684 29.726C57.2545 29.6116 57.1963 29.476 57.1963 29.3205V25.8555C57.1963 25.8489 57.1923 25.8449 57.1857 25.8449C57.1791 25.8449 57.1751 25.8489 57.1751 25.8555L56.4393 27.8419C56.3784 28.0042 56.2778 28.1345 56.1362 28.2315C55.9946 28.3299 55.8371 28.3791 55.6624 28.3791H55.1978C55.0231 28.3791 54.8656 28.3299 54.724 28.2315C54.5824 28.1331 54.4818 28.0042 54.4209 27.8419L53.685 25.8555C53.685 25.8489 53.6811 25.8449 53.6744 25.8449C53.6678 25.8449 53.6639 25.8489 53.6639 25.8555V29.3205C53.6639 29.476 53.6069 29.6103 53.4931 29.726C53.3793 29.8403 53.2443 29.8988 53.0895 29.8988H52.3933C52.2384 29.8988 52.1048 29.8417 51.9896 29.726C51.8758 29.6116 51.8176 29.476 51.8176 29.3205V23.0793C51.8176 22.9238 51.8745 22.7895 51.9896 22.6738C52.1034 22.5595 52.2384 22.501 52.3933 22.501H53.2906C53.4653 22.501 53.6242 22.5502 53.7644 22.6486C53.9061 22.747 54.0027 22.8759 54.0569 23.0381L55.4188 26.8474C55.4188 26.8541 55.4228 26.8581 55.4294 26.8581C55.436 26.8581 55.44 26.8541 55.44 26.8474L56.8019 23.0381C56.8562 22.8759 56.9528 22.7456 57.0944 22.6486C57.236 22.5502 57.3935 22.501 57.5682 22.501H58.5066H58.5079Z" fill="white"/>
<path d="M66.0704 22.501C66.2253 22.501 66.3589 22.5581 66.4741 22.6738C66.5879 22.7882 66.6448 22.9238 66.6448 23.0793V27.1625C66.6448 28.1079 66.396 28.8179 65.8984 29.2899C65.4007 29.7632 64.6741 29.9985 63.7199 29.9985C62.7656 29.9985 62.039 29.7619 61.5414 29.2899C61.0437 28.8165 60.7949 28.1079 60.7949 27.1625V23.0793C60.7949 22.9238 60.8518 22.7895 60.967 22.6738C61.0821 22.5581 61.2158 22.501 61.3706 22.501H62.2587C62.4136 22.501 62.5472 22.5581 62.6624 22.6738C62.7762 22.7882 62.8331 22.9238 62.8331 23.0793V27.3141C62.8331 27.7063 62.9033 27.9816 63.0449 28.1398C63.1865 28.298 63.4181 28.3778 63.741 28.3778C64.064 28.3778 64.2956 28.298 64.4372 28.1398C64.5788 27.9816 64.649 27.7063 64.649 27.3141V23.0793C64.649 22.9238 64.7059 22.7895 64.8197 22.6738C64.9335 22.5595 65.0685 22.501 65.2234 22.501H66.0704Z" fill="white"/>
<path d="M76.4666 22.501C76.6214 22.501 76.7551 22.5581 76.8702 22.6738C76.9841 22.7882 77.041 22.9238 77.041 23.0793V29.3205C77.041 29.476 76.9841 29.6103 76.8702 29.726C76.7564 29.8417 76.6214 29.8988 76.4666 29.8988H75.5997C75.4448 29.8988 75.3111 29.8417 75.196 29.726C75.0822 29.6116 75.0239 29.476 75.0239 29.3205V26.9498C75.0239 26.8886 74.9975 26.8581 74.9432 26.8581H73.2994C73.2385 26.8581 73.2081 26.8886 73.2081 26.9498V29.3205C73.2081 29.476 73.1512 29.6103 73.036 29.726C72.9222 29.8403 72.7872 29.8988 72.6324 29.8988H71.7655C71.6106 29.8988 71.4769 29.8417 71.3618 29.726C71.248 29.6116 71.1897 29.476 71.1897 29.3205V23.0793C71.1897 22.9238 71.2467 22.7895 71.3618 22.6738C71.4756 22.5595 71.6106 22.501 71.7655 22.501H72.6324C72.7872 22.501 72.9209 22.5581 73.036 22.6738C73.1499 22.7882 73.2081 22.9238 73.2081 23.0793V25.2479C73.2081 25.3091 73.2385 25.3397 73.2994 25.3397H74.9432C74.9975 25.3397 75.0239 25.3091 75.0239 25.2479V23.0793C75.0239 22.9238 75.0809 22.7895 75.196 22.6738C75.3111 22.5581 75.4448 22.501 75.5997 22.501H76.4666Z" fill="white"/>
<path d="M83.0206 22.501C83.1754 22.501 83.3091 22.5581 83.4242 22.6738C83.5381 22.7882 83.595 22.9238 83.595 23.0793V23.546C83.595 23.7016 83.5381 23.8359 83.4242 23.9516C83.3104 24.0672 83.1754 24.1244 83.0206 24.1244H80.8619C80.8011 24.1244 80.7706 24.151 80.7706 24.2055V25.2492C80.7706 25.3104 80.8011 25.341 80.8619 25.341H82.8181C82.9729 25.341 83.1066 25.3982 83.2217 25.5125C83.3356 25.6268 83.3938 25.7625 83.3938 25.918V26.2823C83.3938 26.4379 83.3369 26.5722 83.2217 26.6879C83.1066 26.8035 82.9729 26.8594 82.8181 26.8594H80.8619C80.8011 26.8594 80.7706 26.886 80.7706 26.9405V28.1863C80.7706 28.2475 80.8011 28.2781 80.8619 28.2781H83.0206C83.1754 28.2781 83.3091 28.3352 83.4242 28.4509C83.5381 28.5652 83.595 28.7009 83.595 28.8564V29.3218C83.595 29.4773 83.5381 29.6116 83.4242 29.7273C83.3104 29.843 83.1754 29.9002 83.0206 29.9002H79.3293C79.1745 29.9002 79.0408 29.843 78.9256 29.7273C78.8118 29.613 78.7536 29.4773 78.7536 29.3218V23.0807C78.7536 22.9251 78.8105 22.7908 78.9256 22.6752C79.0395 22.5608 79.1745 22.5023 79.3293 22.5023H83.0206V22.501Z" fill="white"/>
<path d="M89.609 23.0494L91.5863 29.3517C91.6274 29.4873 91.6049 29.6123 91.5202 29.7266C91.4355 29.8409 91.323 29.8995 91.1827 29.8995H90.194C90.0259 29.8995 89.8764 29.8476 89.7453 29.7426C89.6143 29.6375 89.5322 29.5046 89.4978 29.3424L89.3258 28.5619C89.3125 28.5074 89.2781 28.4808 89.2252 28.4808H87.5007C87.4332 28.4808 87.3961 28.5074 87.3895 28.5619L87.2174 29.3424C87.1843 29.5046 87.101 29.6375 86.9699 29.7426C86.8389 29.8476 86.6893 29.8995 86.5213 29.8995H85.5736C85.432 29.8995 85.3195 29.8423 85.2361 29.7266C85.1514 29.6123 85.1303 29.4873 85.17 29.3517L87.1473 23.0494C87.1936 22.8872 87.2863 22.7556 87.4252 22.6545C87.5629 22.5535 87.719 22.5029 87.8937 22.5029H88.8625C89.0306 22.5029 89.1842 22.5535 89.3218 22.6545C89.4595 22.7556 89.5547 22.8872 89.609 23.0494ZM87.8342 26.9597H88.8824C88.9023 26.9597 88.9208 26.9517 88.938 26.9345C88.9552 26.9172 88.9592 26.8986 88.9525 26.8786L88.3676 24.4973C88.3676 24.4973 88.3636 24.4867 88.357 24.4867C88.3503 24.4867 88.3464 24.4907 88.3464 24.4973L87.7614 26.8786C87.7548 26.8986 87.7601 26.9172 87.7759 26.9345C87.7932 26.9517 87.8117 26.9597 87.8315 26.9597H87.8342Z" fill="white"/>
<path d="M97.6533 28.2262C97.8081 28.2262 97.9418 28.2834 98.057 28.3977C98.1708 28.5121 98.229 28.6477 98.229 28.8032V29.3205C98.229 29.476 98.1721 29.6103 98.057 29.726C97.9431 29.8403 97.8081 29.8988 97.6533 29.8988H93.7608C93.606 29.8988 93.4723 29.8417 93.3572 29.726C93.2434 29.6116 93.1851 29.476 93.1851 29.3205V23.0793C93.1851 22.9238 93.242 22.7895 93.3572 22.6738C93.471 22.5595 93.606 22.501 93.7608 22.501H94.678C94.8329 22.501 94.9666 22.5581 95.0817 22.6738C95.1955 22.7882 95.2524 22.9238 95.2524 23.0793V28.1345C95.2524 28.1956 95.2829 28.2262 95.3438 28.2262H97.6533Z" fill="white"/>
<path d="M103.192 22.501C103.347 22.501 103.481 22.5581 103.596 22.6738C103.71 22.7882 103.767 22.9238 103.767 23.0793V23.5966C103.767 23.7521 103.71 23.8864 103.596 24.0021C103.482 24.1164 103.347 24.1749 103.192 24.1749H101.961C101.9 24.1749 101.87 24.2055 101.87 24.2667V29.3218C101.87 29.4773 101.814 29.6116 101.703 29.7273C101.592 29.8417 101.46 29.9002 101.305 29.9002H100.377C100.222 29.9002 100.09 29.843 99.9787 29.7273C99.8675 29.613 99.8119 29.4773 99.8119 29.3218V24.2667C99.8119 24.2055 99.7815 24.1749 99.7206 24.1749H98.4897C98.3349 24.1749 98.2012 24.1178 98.0861 24.0021C97.9722 23.8877 97.914 23.7521 97.914 23.5966V23.0793C97.914 22.9238 97.9709 22.7895 98.0861 22.6738C98.1999 22.5595 98.3349 22.501 98.4897 22.501H103.19H103.192Z" fill="white"/>
<path d="M110.317 22.501C110.471 22.501 110.605 22.5581 110.72 22.6738C110.834 22.7882 110.891 22.9238 110.891 23.0793V29.3205C110.891 29.476 110.834 29.6103 110.72 29.726C110.606 29.8417 110.471 29.8988 110.317 29.8988H109.45C109.295 29.8988 109.161 29.8417 109.046 29.726C108.932 29.6116 108.874 29.476 108.874 29.3205V26.9498C108.874 26.8886 108.848 26.8581 108.793 26.8581H107.149C107.089 26.8581 107.058 26.8886 107.058 26.9498V29.3205C107.058 29.476 107.001 29.6103 106.886 29.726C106.772 29.8403 106.637 29.8988 106.482 29.8988H105.616C105.461 29.8988 105.327 29.8417 105.212 29.726C105.098 29.6116 105.04 29.476 105.04 29.3205V23.0793C105.04 22.9238 105.097 22.7895 105.212 22.6738C105.326 22.5595 105.461 22.501 105.616 22.501H106.482C106.637 22.501 106.771 22.5581 106.886 22.6738C107 22.7882 107.058 22.9238 107.058 23.0793V25.2479C107.058 25.3091 107.089 25.3397 107.149 25.3397H108.793C108.848 25.3397 108.874 25.3091 108.874 25.2479V23.0793C108.874 22.9238 108.931 22.7895 109.046 22.6738C109.161 22.5581 109.295 22.501 109.45 22.501H110.317Z" fill="white"/>
<path d="M46.3952 12.9541C46.4733 12.7839 46.6003 12.6589 46.7764 12.5805C46.9524 12.502 47.1324 12.4954 47.315 12.5605L48.2944 12.9341C48.4506 12.9873 48.5591 13.0977 48.6174 13.2679C48.6756 13.438 48.6531 13.5963 48.5485 13.7399C48.4572 13.8848 48.346 14.0483 48.2163 14.2318C47.9027 14.7171 47.6287 15.1306 47.3944 15.471C47.1721 15.7861 46.9643 16.0613 46.7684 16.2967C46.7287 16.3365 46.7419 16.3552 46.8081 16.3552H50.5272C50.7231 16.3552 50.8898 16.4243 51.0261 16.5613C51.1625 16.6982 51.2313 16.8657 51.2313 17.0625V17.6914C51.2313 17.8882 51.1625 18.0557 51.0261 18.1927C50.8885 18.3309 50.7231 18.3987 50.5272 18.3987H34.9839C34.788 18.3987 34.6213 18.3296 34.4849 18.1927C34.3473 18.0544 34.2798 17.8882 34.2798 17.6914V17.0625C34.2798 16.8657 34.3486 16.6982 34.4849 16.5613C34.6213 16.4243 34.788 16.3552 34.9839 16.3552H38.1166C38.1683 16.3552 38.1881 16.3286 38.1749 16.2767C37.8744 15.3859 37.4575 14.5203 36.9215 13.6814C36.817 13.5378 36.7905 13.3769 36.8434 13.2C36.895 13.0232 37.0062 12.9022 37.1756 12.8357L38.2715 12.3637C38.2847 12.3504 38.2847 12.3371 38.2715 12.3238H35.9805C35.7846 12.3238 35.6179 12.2547 35.4815 12.1178C35.3439 11.9795 35.2764 11.8199 35.2764 11.6364V10.9876C35.2764 10.7908 35.3452 10.6233 35.4815 10.4863C35.6179 10.3494 35.7846 10.2803 35.9805 10.2803H41.2864C41.3381 10.2803 41.3645 10.2537 41.3645 10.2018V8.37229C41.3645 8.30714 41.3381 8.2739 41.2864 8.2739H38.3893C38.1934 8.2739 38.0266 8.20477 37.8903 8.06782C37.7527 7.92954 37.6852 7.76999 37.6852 7.58651V7.38973C37.6852 7.32458 37.6587 7.31128 37.6071 7.34984C36.9281 7.84844 36.1578 8.34038 35.2976 8.82436C35.1282 8.9161 34.9521 8.93604 34.7695 8.88286C34.5868 8.831 34.4426 8.71932 34.3393 8.54913C34.1567 8.2739 33.941 8.00533 33.6935 7.7434C33.6154 7.63836 33.5757 7.52003 33.5757 7.38973V7.29134C33.6022 7.12115 33.6935 6.99617 33.8497 6.91772C35.2592 6.15719 36.6158 5.19457 37.9221 4.02719C39.1754 2.89969 40.1734 1.79879 40.9172 0.723151C41.1911 0.329592 41.5498 0.132812 41.9932 0.132812H43.0891C43.5324 0.132812 43.8977 0.322944 44.1849 0.703207C45.1762 1.98892 46.3317 3.15497 47.6499 4.20402C48.9681 5.25307 50.3128 6.09204 51.6826 6.72094C51.8388 6.78609 51.9367 6.90443 51.9764 7.07461C51.9897 7.1145 51.9963 7.15306 51.9963 7.19295C51.9963 7.31128 51.9499 7.41632 51.8586 7.50806C51.623 7.80988 51.3822 8.1569 51.1347 8.55046C51.0301 8.72065 50.8832 8.82967 50.6939 8.87488C50.5047 8.92142 50.3247 8.89748 50.1553 8.80574C49.3334 8.33374 48.5432 7.82849 47.7862 7.29134C47.7332 7.25145 47.7081 7.2581 47.7081 7.31128V7.58651C47.7081 7.76999 47.6393 7.93087 47.503 8.06782C47.3653 8.2061 47.1999 8.2739 47.004 8.2739H43.9507C43.8977 8.2739 43.8726 8.30714 43.8726 8.37229V10.1819C43.8726 10.247 43.899 10.2803 43.9507 10.2803H49.3532C49.5491 10.2803 49.7159 10.3494 49.8522 10.4863C49.9898 10.6246 50.0573 10.7842 50.0573 10.9677V11.6364C50.0573 11.8199 49.9885 11.9808 49.8522 12.1178C49.7145 12.256 49.5491 12.3238 49.3532 12.3238H43.9507C43.8977 12.3238 43.8726 12.3571 43.8726 12.4222V16.2767C43.8726 16.3299 43.899 16.3552 43.9507 16.3552H45.9862C45.9995 16.3419 45.9995 16.3286 45.9862 16.3153L45.3986 16.0786C45.2292 16.0002 45.118 15.8752 45.0664 15.705C45.0134 15.5348 45.0399 15.3779 45.1445 15.233C45.6011 14.5243 46.0193 13.7651 46.3978 12.9514L46.3952 12.9541ZM41.3645 12.4236C41.3645 12.3584 41.3381 12.3252 41.2864 12.3252H38.5455C38.4925 12.3252 38.4872 12.3518 38.5256 12.4036C39.2178 13.3343 39.7326 14.1999 40.0728 14.999C40.1376 15.1692 40.131 15.346 40.0529 15.5295C39.9748 15.713 39.8438 15.8446 39.6612 15.923L38.7413 16.3166C38.7281 16.3299 38.7281 16.3432 38.7413 16.3565H41.2864C41.3381 16.3565 41.3645 16.3299 41.3645 16.278V12.4236ZM39.1715 6.1306V6.17049C39.1715 6.18379 39.1847 6.19043 39.2112 6.19043H46.2589C46.2721 6.19043 46.2787 6.18379 46.2787 6.17049C46.2787 6.15719 46.2721 6.1439 46.2589 6.1306C44.7964 4.93796 43.6158 3.73867 42.7158 2.5314C42.6761 2.47954 42.6377 2.47954 42.598 2.5314C41.6716 3.80382 40.5294 5.00311 39.1715 6.1306Z" fill="white"/>
<path d="M71.7536 8.53163C71.7536 8.72575 71.6888 8.89062 71.5604 9.02624C71.432 9.16186 71.2705 9.22967 71.0773 9.22967H70.6525C70.6008 9.22967 70.5757 9.25626 70.5757 9.30678C70.5108 11.1164 70.4473 12.5005 70.3825 13.4564C70.3825 13.5083 70.4076 13.5336 70.4592 13.5336H70.7292C70.9224 13.5336 71.0866 13.6014 71.2216 13.737C71.3566 13.8726 71.4241 14.0308 71.4241 14.2116V14.9682C71.4241 15.1623 71.3566 15.3272 71.2216 15.4628C71.0866 15.5984 70.9224 15.6662 70.7292 15.6662H70.2461C70.1813 15.6662 70.1495 15.6928 70.1495 15.7433C70.0344 16.5065 69.8795 17.049 69.6863 17.3721C69.4798 17.7337 69.2588 17.993 69.0206 18.1472C68.7823 18.3028 68.4832 18.4185 68.1232 18.4956C67.7884 18.5727 67.3318 18.6126 66.7521 18.6126C66.6237 18.6126 66.4887 18.6059 66.3471 18.5927C66.1671 18.5927 66.003 18.5248 65.8547 18.3892C65.7065 18.2536 65.6072 18.0887 65.5556 17.8946C65.504 17.6486 65.4325 17.4027 65.3439 17.158C65.2922 17.0158 65.3121 16.8828 65.4021 16.7605C65.4921 16.6382 65.6139 16.5757 65.7687 16.5757C66.2055 16.6142 66.6184 16.6342 67.0035 16.6342C67.1584 16.6342 67.2868 16.6023 67.39 16.5371C67.5951 16.4081 67.75 16.1555 67.8532 15.7806C67.8532 15.7553 67.8599 15.7354 67.8731 15.7221C67.8863 15.6835 67.8665 15.6636 67.8149 15.6636H62.8729C62.808 15.6636 62.7763 15.6902 62.7763 15.7407V15.8377C62.7498 16.0319 62.6664 16.1901 62.5248 16.3124C62.3832 16.4361 62.2164 16.4906 62.0232 16.4773L61.1351 16.4188C60.9551 16.4055 60.8042 16.3284 60.6811 16.1861C60.5581 16.0438 60.5104 15.8763 60.5369 15.6822L60.5567 15.4881C60.5567 15.4748 60.5528 15.4655 60.5475 15.4588C60.5408 15.4522 60.5316 15.4561 60.5183 15.4681L59.6885 16.573C59.5853 16.702 59.4503 16.7671 59.2835 16.7671C59.1168 16.7671 58.9804 16.6967 58.8785 16.5544C58.5821 16.1661 58.2287 15.734 57.8171 15.2554C57.7787 15.2168 57.7456 15.2235 57.7205 15.2753C57.0256 16.4653 56.1693 17.4465 55.1529 18.223C54.998 18.3267 54.8312 18.3586 54.6512 18.3201C54.4712 18.2815 54.3296 18.1845 54.2264 18.0289C54.0583 17.7577 53.8849 17.505 53.7049 17.2724C53.5885 17.1434 53.5435 16.9905 53.5699 16.8163C53.5951 16.6421 53.6798 16.5025 53.8214 16.3988C54.7479 15.7393 55.5128 14.8086 56.119 13.6067C56.1442 13.5548 56.1389 13.5096 56.0992 13.4711C55.9192 13.2902 55.6492 13.0323 55.2878 12.6959C55.2495 12.6574 55.223 12.664 55.2111 12.7159C55.1846 12.8448 55.1078 12.9392 54.9795 12.9964C54.8511 13.0549 54.728 13.0443 54.6129 12.9672L53.918 12.5018C53.738 12.3848 53.6096 12.2306 53.5316 12.0364C53.4548 11.8423 53.4416 11.6482 53.4932 11.4541C53.8532 9.74821 54.188 7.98916 54.4964 6.17958C54.4964 6.12773 54.4699 6.10247 54.4196 6.10247H53.918C53.738 6.10247 53.5805 6.03466 53.4455 5.89904C53.3105 5.76342 53.243 5.59855 53.243 5.40443V4.68645C53.243 4.49233 53.3105 4.32746 53.4455 4.19185C53.5805 4.05623 53.738 3.98842 53.918 3.98842H54.7677C54.8326 3.98842 54.8643 3.96316 54.8643 3.9113C55.0059 3.0577 55.1608 2.00467 55.3276 0.750862C55.3527 0.556741 55.4374 0.402509 55.579 0.285505C55.7206 0.16983 55.8755 0.111328 56.0422 0.111328H56.1005L56.8721 0.16983C57.0521 0.183126 57.2003 0.264231 57.3155 0.411816C57.4306 0.56073 57.4756 0.7256 57.4505 0.906424C57.3856 1.28137 57.2188 2.28388 56.9488 3.91263C56.9356 3.96448 56.9621 3.98975 57.0256 3.98975H58.1638C58.9103 3.98975 59.3537 3.9964 59.4953 4.00969C59.6753 4.03628 59.8262 4.11606 59.9492 4.25168C60.071 4.3873 60.1332 4.55216 60.1332 4.74628C59.9532 8.13276 59.5032 10.8611 58.7819 12.9299C58.7687 12.9818 58.7819 13.0336 58.8203 13.0855C59.5403 13.8101 60.12 14.4629 60.5581 15.044C60.5713 15.0573 60.5832 15.0639 60.5964 15.0639C60.6097 15.0639 60.6163 15.0506 60.6163 15.0254C60.8347 13.1772 61.0147 11.2706 61.1563 9.30546C61.1563 9.2536 61.1298 9.22834 61.0795 9.22834H60.8479C60.6547 9.22834 60.4906 9.16053 60.3556 9.02491C60.2206 8.88929 60.1531 8.72442 60.1531 8.5303V7.81232C60.1531 7.6182 60.2206 7.45333 60.3556 7.31772C60.4906 7.1821 60.6547 7.11429 60.8479 7.11429H61.2145C61.2794 7.11429 61.3111 7.08903 61.3111 7.03717C61.4263 5.2143 61.5163 3.37282 61.5811 1.51006C61.5811 1.31594 61.6513 1.15506 61.7929 1.02476C61.9345 0.895787 62.0946 0.830637 62.276 0.830637H70.0741C70.2541 0.830637 70.4116 0.895787 70.5466 1.02476C70.6816 1.15373 70.7424 1.31594 70.7305 1.51006V1.99536C70.6789 4.8008 70.6472 6.4814 70.6339 7.03717C70.6339 7.08903 70.6591 7.11429 70.7107 7.11429H71.0773C71.2705 7.11429 71.4307 7.1821 71.5604 7.31772C71.6888 7.45333 71.7536 7.6182 71.7536 7.81232V8.5303V8.53163ZM57.9335 6.1849C57.9468 6.13305 57.9203 6.10779 57.8568 6.10779H56.6405C56.5889 6.10779 56.5571 6.13438 56.5439 6.1849C56.3122 7.47727 56.0542 8.81617 55.7723 10.1989C55.759 10.2508 55.7723 10.296 55.8106 10.3346C55.9006 10.3997 56.2805 10.7228 56.9488 11.3038C56.9872 11.3424 57.019 11.3357 57.0455 11.2839C57.4571 9.87452 57.7535 8.1753 57.9335 6.18357V6.1849ZM62.9907 13.4564C62.9907 13.5083 63.0158 13.5336 63.0674 13.5336H68.0862C68.151 13.5336 68.1828 13.5016 68.1828 13.4365C68.2728 12.2598 68.3429 10.8837 68.3945 9.30678C68.3945 9.25493 68.3681 9.22967 68.3178 9.22967H63.3957C63.3308 9.22967 63.299 9.25626 63.299 9.30678C63.1839 11.1297 63.0807 12.5124 62.9907 13.4564ZM68.5309 2.98458C68.5309 2.91943 68.5044 2.88752 68.4541 2.88752H63.7636C63.712 2.88752 63.6802 2.91943 63.667 2.98458C63.6154 4.34209 63.5439 5.69295 63.4552 7.03717C63.442 7.08903 63.4685 7.11429 63.532 7.11429H68.3773C68.429 7.11429 68.4541 7.08903 68.4541 7.03717C68.4925 5.18904 68.519 3.83817 68.5309 2.98458ZM67.1994 11.6907C67.3159 11.8463 67.3543 12.0178 67.3159 12.2053C67.2775 12.3928 67.1743 12.5443 67.0075 12.6613L66.5443 12.9711C66.4027 13.0748 66.2412 13.1068 66.0612 13.0682C65.8812 13.0296 65.7396 12.9326 65.6364 12.777C65.2764 12.2345 64.8184 11.6455 64.2652 11.0127C64.1501 10.8837 64.1011 10.7281 64.1209 10.5473C64.1408 10.3665 64.2202 10.2309 64.3618 10.1404L64.7086 9.9277C64.8753 9.8107 65.0593 9.76284 65.2592 9.78278C65.459 9.80272 65.6284 9.8825 65.77 10.0248C66.3497 10.6071 66.8249 11.1629 67.1981 11.6921L67.1994 11.6907ZM64.555 4.7875C64.4386 4.65853 64.3909 4.50297 64.4108 4.32214C64.4306 4.14132 64.5167 4.0057 64.6715 3.91529L64.9799 3.72117C65.1467 3.60417 65.3333 3.5563 65.5397 3.57624C65.7449 3.59619 65.9196 3.67596 66.0612 3.81823C66.5628 4.32214 66.981 4.81409 67.3159 5.29142C67.4191 5.46028 67.4509 5.63711 67.4125 5.82458C67.3741 6.01206 67.2709 6.16363 67.1041 6.28063L66.6793 6.55187C66.5244 6.65558 66.3603 6.68483 66.1869 6.63962C66.0136 6.59442 65.8746 6.4947 65.7714 6.33914C65.4497 5.86048 65.0447 5.34327 64.555 4.7875Z" fill="white"/>
<path d="M80.6264 6.99652C81.1928 6.99652 81.6045 7.02311 81.8612 7.07364C82.0412 7.10023 82.1855 7.18399 82.2953 7.32626C82.4052 7.46852 82.4528 7.63073 82.4396 7.81156C82.2212 10.4481 81.7699 12.634 81.0883 14.3651C81.0618 14.417 81.075 14.4622 81.1267 14.5007C81.5383 14.9275 82.024 15.2639 82.5838 15.5086C83.1437 15.7545 83.7128 15.9261 84.2925 16.0218C84.8722 16.1188 85.5472 16.1667 86.3188 16.1667C88.5833 16.1667 90.2046 16.1601 91.1827 16.1468C91.3375 16.1468 91.4527 16.2119 91.5308 16.3409C91.5824 16.418 91.6075 16.4965 91.6075 16.5736C91.6075 16.6254 91.5943 16.6839 91.5691 16.7477C91.4659 17.0057 91.3693 17.2836 91.2793 17.5814C91.2277 17.7755 91.1244 17.9364 90.9709 18.0667C90.8161 18.1957 90.6427 18.2608 90.4495 18.2608H86.2023C84.8378 18.2608 83.6638 18.1252 82.6791 17.854C81.6945 17.5827 80.8421 17.1174 80.1221 16.4579C80.0837 16.4193 80.0507 16.4193 80.0255 16.4579C79.639 17.0522 79.1957 17.5827 78.6941 18.0481C78.5657 18.1638 78.4148 18.2063 78.2401 18.1744C78.0667 18.1425 77.9277 18.0481 77.8245 17.8939C77.5929 17.5442 77.3613 17.2344 77.1297 16.9631H77.082C77.0622 16.9631 77.0529 16.9764 77.0529 17.0017V17.8167C77.0529 17.9976 76.9881 18.1558 76.8597 18.2914C76.7313 18.427 76.5698 18.4948 76.3766 18.4948H75.7016C75.5084 18.4948 75.3443 18.427 75.2093 18.2914C75.0743 18.1558 75.0068 17.9976 75.0068 17.8167V8.27559C75.0068 8.26229 75.0002 8.25564 74.9869 8.25564H74.9485C74.7169 8.61729 74.4919 8.95368 74.2735 9.26347C74.1835 9.37915 74.0644 9.42169 73.9162 9.38978C73.768 9.35787 73.6753 9.27677 73.6356 9.1478C73.4689 8.68244 73.2941 8.24899 73.1142 7.84879C73.0374 7.68126 72.999 7.5124 72.999 7.34487C72.999 7.12549 73.0758 6.91142 73.2306 6.70534C74.4403 5.06329 75.4118 3.06625 76.145 0.712868C76.2098 0.532043 76.325 0.396425 76.4917 0.306012C76.595 0.240862 76.6969 0.208952 76.8001 0.208952C76.865 0.208952 76.9351 0.222248 77.0119 0.24751L77.7835 0.480189C77.9635 0.532043 78.0985 0.642399 78.1885 0.809928C78.2785 0.978786 78.2917 1.15296 78.2269 1.33379L78.1686 1.48935C78.1554 1.5545 78.1752 1.58641 78.2269 1.58641H80.3498C80.3749 1.58641 80.3948 1.57976 80.408 1.56647C80.6131 1.51461 80.813 1.51461 81.0062 1.56647L81.5078 1.70208C81.6878 1.75394 81.8202 1.86031 81.9036 2.02252C81.9869 2.18473 82.0028 2.3496 81.9512 2.51712C81.4496 3.84938 80.8633 5.31591 80.1949 6.9194C80.1684 6.97126 80.1883 6.99652 80.2532 6.99652H80.6198H80.6264ZM77.0939 4.26288C77.0675 4.31473 77.0556 4.36659 77.0556 4.41844V16.4978C77.0556 16.5629 77.0807 16.5749 77.1323 16.5363C77.712 16.0843 78.2202 15.4634 78.657 14.6749C78.6822 14.6231 78.6822 14.5712 78.657 14.5193C78.1554 13.5634 77.7425 12.4319 77.4222 11.1262C77.3706 10.9321 77.3931 10.7553 77.4897 10.5931C77.5863 10.4322 77.7305 10.3192 77.9238 10.254L78.387 10.137C78.567 10.0852 78.7351 10.1051 78.8886 10.1955C79.0435 10.2859 79.1454 10.4215 79.197 10.6024C79.3254 11.1581 79.4802 11.6687 79.6602 12.1341C79.6602 12.1474 79.6695 12.154 79.6893 12.154C79.7092 12.154 79.7185 12.1474 79.7185 12.1341C79.9885 11.1781 80.2068 10.0652 80.3749 8.79812C80.3882 8.73297 80.3617 8.70106 80.2981 8.70106H79.5265C79.4617 8.70106 79.4233 8.72765 79.4114 8.77817L79.3532 8.89518C79.2764 9.076 79.1467 9.21162 78.9667 9.30203C78.7867 9.39244 78.6001 9.41239 78.4069 9.36053L77.8272 9.24486C77.6591 9.193 77.5347 9.0893 77.4513 8.93506C77.3679 8.7795 77.3639 8.61862 77.442 8.44976C78.0985 6.93669 78.7669 5.30794 79.4498 3.56351C79.463 3.51166 79.4432 3.4864 79.3915 3.4864H78.5802C78.387 3.4864 78.2255 3.41859 78.0972 3.28297C77.9688 3.14735 77.9039 2.98248 77.9039 2.78836V2.38151C77.9039 2.36821 77.8973 2.36156 77.8841 2.36156C77.8708 2.36156 77.8642 2.36821 77.8642 2.38151C77.6326 2.97583 77.3745 3.6034 77.0926 4.26288H77.0939ZM85.2004 4.18576C85.252 4.18576 85.2772 4.15385 85.2772 4.0887V3.39067C85.2772 3.33881 85.2507 3.31355 85.2004 3.31355H83.5024C83.3091 3.31355 83.145 3.24574 83.01 3.11012C82.875 2.9745 82.8075 2.80963 82.8075 2.61551V2.28577C82.8075 2.09165 82.875 1.93077 83.01 1.80047C83.145 1.6715 83.3091 1.60635 83.5024 1.60635H85.2004C85.252 1.60635 85.2772 1.57444 85.2772 1.50929V0.809928C85.2772 0.629103 85.3447 0.470882 85.4797 0.335263C85.6147 0.199645 85.7788 0.131836 85.972 0.131836H86.7251C86.9051 0.131836 87.0626 0.199645 87.1976 0.335263C87.3326 0.470882 87.4001 0.629103 87.4001 0.809928V1.50796C87.4001 1.57311 87.4319 1.60502 87.4967 1.60502H90.0643C90.2443 1.60502 90.4018 1.67017 90.5368 1.79914C90.6718 1.92811 90.7393 2.09032 90.7393 2.28445V4.08737C90.7393 4.15252 90.7711 4.18443 90.8359 4.18443H91.0292C91.2092 4.18443 91.3666 4.25224 91.5016 4.38786C91.6366 4.52348 91.7041 4.6817 91.7041 4.86252V5.21088C91.7041 5.405 91.6366 5.56987 91.5016 5.70548C91.3666 5.8411 91.2092 5.90891 91.0292 5.90891H90.8359C90.7711 5.90891 90.7393 5.9355 90.7393 5.98603V7.8674C90.7393 8.04823 90.6718 8.20645 90.5368 8.34207C90.4018 8.47768 90.2443 8.54549 90.0643 8.54549H87.4967C87.4319 8.54549 87.4001 8.5774 87.4001 8.64255V9.39909C87.4001 9.45094 87.4319 9.47621 87.4967 9.47621H90.1795C90.3595 9.47621 90.517 9.54402 90.652 9.67964C90.787 9.81525 90.8545 9.98012 90.8545 10.1742V10.504C90.8545 10.6848 90.787 10.843 90.652 10.9786C90.517 11.1143 90.3595 11.1821 90.1795 11.1821H87.4967C87.4319 11.1821 87.4001 11.214 87.4001 11.2791V12.0742C87.4001 12.1261 87.4319 12.1513 87.4967 12.1513H90.6427C90.8359 12.1513 91 12.2192 91.135 12.3548C91.27 12.4904 91.3375 12.6553 91.3375 12.8494V13.1791C91.3375 13.3732 91.27 13.5355 91.135 13.6644C91 13.7934 90.8359 13.8585 90.6427 13.8585H87.4967C87.4319 13.8585 87.4001 13.8905 87.4001 13.9556V14.9834C87.4001 15.1775 87.3326 15.3424 87.1976 15.478C87.0626 15.6136 86.9051 15.6814 86.7251 15.6814H85.972C85.7788 15.6814 85.6147 15.6136 85.4797 15.478C85.3447 15.3424 85.2772 15.1775 85.2772 14.9834V13.9556C85.2772 13.8905 85.2507 13.8585 85.2004 13.8585H82.7678C82.5746 13.8585 82.4131 13.7934 82.2847 13.6644C82.1564 13.5355 82.0915 13.3732 82.0915 13.1791V12.8494C82.0915 12.6553 82.1564 12.4904 82.2847 12.3548C82.4131 12.2192 82.5746 12.1513 82.7678 12.1513H85.2004C85.252 12.1513 85.2772 12.1261 85.2772 12.0742V11.2791C85.2772 11.214 85.2507 11.1821 85.2004 11.1821H83.2708C83.0775 11.1821 82.9134 11.1143 82.7784 10.9786C82.6434 10.843 82.5759 10.6848 82.5759 10.504V10.1742C82.5759 9.98012 82.6434 9.81525 82.7784 9.67964C82.9134 9.54402 83.0775 9.47621 83.2708 9.47621H85.2004C85.252 9.47621 85.2772 9.45094 85.2772 9.39909V8.64255C85.2772 8.5774 85.2507 8.54549 85.2004 8.54549H83.5024C83.3091 8.54549 83.145 8.47768 83.01 8.34207C82.875 8.20645 82.8075 8.04823 82.8075 7.8674V7.51905C82.8075 7.33822 82.875 7.18 83.01 7.04438C83.145 6.90877 83.3091 6.84096 83.5024 6.84096H85.2004C85.252 6.84096 85.2772 6.80905 85.2772 6.7439V5.98736C85.2772 5.9355 85.2507 5.91024 85.2004 5.91024H82.208C82.028 5.91024 81.8705 5.84243 81.7355 5.70681C81.6005 5.5712 81.533 5.40633 81.533 5.21221V4.86385C81.533 4.68303 81.6005 4.52481 81.7355 4.38919C81.8705 4.25357 82.028 4.18576 82.208 4.18576H85.2004ZM88.7712 3.39067C88.7712 3.33881 88.7395 3.31355 88.6746 3.31355H87.4967C87.4319 3.31355 87.4001 3.34014 87.4001 3.39067V4.0887C87.4001 4.15385 87.4319 4.18576 87.4967 4.18576H88.6746C88.7395 4.18576 88.7712 4.15385 88.7712 4.0887V3.39067ZM88.6746 6.84229C88.7395 6.84229 88.7712 6.81038 88.7712 6.74523V5.98869C88.7712 5.93683 88.7395 5.91157 88.6746 5.91157H87.4967C87.4319 5.91157 87.4001 5.93816 87.4001 5.98869V6.74523C87.4001 6.81038 87.4319 6.84229 87.4967 6.84229H88.6746Z" fill="white"/>
<path d="M109.554 10.6859C109.554 10.8801 109.487 11.0423 109.352 11.1712C109.217 11.3002 109.059 11.3654 108.879 11.3654H105.25C105.199 11.3654 105.185 11.3973 105.212 11.4624C105.482 12.0833 105.823 12.671 106.235 13.2268C106.273 13.2786 106.318 13.2853 106.37 13.2467C106.988 12.8718 107.631 12.4197 108.3 11.8892C108.454 11.7602 108.63 11.6951 108.83 11.6951C109.03 11.6951 109.206 11.7602 109.361 11.8892L110.018 12.4131C110.146 12.5168 110.204 12.6524 110.191 12.8199C110.178 12.9875 110.101 13.1178 109.959 13.2082C109.148 13.7254 108.376 14.1774 107.643 14.5657C107.592 14.5923 107.585 14.6242 107.623 14.6627C108.421 15.3222 109.328 15.8328 110.344 16.1944C110.486 16.2463 110.579 16.346 110.624 16.4949C110.669 16.6438 110.64 16.7821 110.536 16.9124C110.318 17.1703 110.112 17.4429 109.918 17.7274C109.815 17.895 109.671 18.008 109.484 18.0665C109.298 18.125 109.114 18.121 108.934 18.0572C107.171 17.2687 105.736 16.0335 104.63 14.3529C104.63 14.3396 104.623 14.333 104.61 14.333C104.596 14.333 104.59 14.3396 104.59 14.3529V16.1958C104.59 16.7781 104.513 17.2169 104.358 17.5147C104.203 17.8125 103.933 18.0452 103.547 18.2127C103.019 18.4321 102.08 18.5425 100.729 18.5425C100.536 18.5425 100.363 18.4813 100.208 18.3577C100.053 18.234 99.9443 18.0771 99.8795 17.883C99.7762 17.5732 99.6478 17.2435 99.493 16.8938C99.4665 16.8419 99.4281 16.8286 99.3765 16.8552C98.8101 17.1132 98.327 17.3339 97.9286 17.5147C97.7486 17.5918 97.5646 17.6025 97.378 17.544C97.1914 17.4855 97.0472 17.3658 96.9439 17.185L96.5575 16.5069C96.4675 16.3513 96.4542 16.1904 96.5191 16.0216C96.5839 15.8541 96.6991 15.7437 96.8658 15.6918C97.7539 15.394 99.0337 14.9233 100.707 14.2758C100.873 14.2107 101.038 14.2213 101.199 14.3051C101.359 14.3888 101.466 14.5218 101.518 14.7026L101.595 15.051C101.646 15.2451 101.63 15.4352 101.546 15.6227C101.462 15.8102 101.33 15.9431 101.15 16.0203C101.124 16.0335 100.75 16.2077 100.03 16.5441C100.03 16.5707 100.037 16.5827 100.05 16.5827C100.539 16.6093 100.95 16.6212 101.285 16.6212C101.517 16.6212 101.71 16.6146 101.865 16.6013C102.045 16.6013 102.166 16.5694 102.231 16.5042C102.296 16.4391 102.328 16.33 102.328 16.1745V11.4624C102.328 11.3973 102.301 11.3654 102.251 11.3654H98.507C98.4937 11.3654 98.4871 11.372 98.4871 11.3853C98.4871 11.3986 98.4937 11.4052 98.507 11.4052C99.3302 11.832 100.038 12.2522 100.63 12.6657C100.772 12.7694 100.848 12.9143 100.862 13.1018C100.875 13.2893 100.817 13.4475 100.688 13.5765L100.302 13.9833C100.173 14.1123 100.012 14.1841 99.8186 14.1961C99.6254 14.2093 99.452 14.1575 99.2971 14.0405C98.8074 13.6655 98.2542 13.2906 97.6374 12.9157C97.4826 12.8252 97.3966 12.6923 97.3767 12.5181C97.3569 12.3439 97.4058 12.1977 97.521 12.082L98.2158 11.4039V11.3654C98.139 11.3654 98.0768 11.3427 98.0318 11.2975C97.9868 11.2523 97.9643 11.1978 97.9643 11.1327V10.4931C97.9643 10.299 98.0318 10.1381 98.1668 10.0078C98.3018 9.87887 98.4593 9.81372 98.6393 9.81372H102.249C102.3 9.81372 102.325 9.78181 102.325 9.71666V8.92156C102.325 8.85641 102.299 8.8245 102.249 8.8245H97.7314C97.5514 8.8245 97.3939 8.75935 97.2589 8.63038C97.1239 8.50141 97.0564 8.3392 97.0564 8.14508V7.87384C97.0564 7.67972 97.1239 7.51485 97.2589 7.37923C97.3939 7.24362 97.5514 7.17581 97.7314 7.17581H102.249C102.3 7.17581 102.325 7.15055 102.325 7.09869V6.3621C102.325 6.29695 102.299 6.26504 102.249 6.26504H98.8709C98.6777 6.26504 98.5136 6.19723 98.3786 6.06161C98.2436 5.92599 98.1761 5.76777 98.1761 5.58694V5.39282C98.1761 5.1987 98.2436 5.03383 98.3786 4.89822C98.5136 4.7626 98.6777 4.69479 98.8709 4.69479H102.249C102.3 4.69479 102.325 4.66953 102.325 4.61767V3.82258C102.325 3.75743 102.299 3.72552 102.249 3.72552H96.7666C96.7017 3.72552 96.67 3.75743 96.67 3.82258V7.42976C96.67 12.0581 96.0903 15.5802 94.9322 17.9974C94.8673 18.1529 94.7456 18.246 94.5656 18.2779C94.3856 18.3098 94.2241 18.2752 94.0825 18.1715C93.8376 17.9907 93.5809 17.8152 93.3109 17.6477C93.1428 17.544 93.0343 17.4017 92.9827 17.2209C92.9562 17.1557 92.9443 17.0853 92.9443 17.0081C92.9443 16.9044 92.9694 16.8007 93.021 16.6983C93.3294 16.0389 93.5875 15.3089 93.7926 14.5072C93.9978 13.7054 94.1434 12.8651 94.2268 11.9863C94.3101 11.1074 94.3684 10.3376 94.4001 9.6781C94.4319 9.01862 94.4491 8.26873 94.4491 7.42843V2.34806C94.4491 2.16723 94.514 2.00901 94.6423 1.87339C94.7707 1.73778 94.9322 1.66997 95.1254 1.66997H101.417C101.469 1.66997 101.494 1.63806 101.494 1.57291V0.679421C101.494 0.485301 101.562 0.32442 101.697 0.19412C101.832 0.06515 101.996 0 102.189 0H103.27C103.45 0 103.608 0.06515 103.743 0.19412C103.878 0.323091 103.945 0.485301 103.945 0.679421V1.57158C103.945 1.63673 103.977 1.66864 104.042 1.66864H110.392C110.585 1.66864 110.749 1.73645 110.884 1.87207C111.019 2.00768 111.087 2.1659 111.087 2.34673V3.04477C111.087 3.22559 111.019 3.38381 110.884 3.51943C110.749 3.65505 110.585 3.72286 110.392 3.72286H104.659C104.607 3.72286 104.582 3.75477 104.582 3.81992V4.61501C104.582 4.66687 104.607 4.69213 104.659 4.69213H108.866C109.046 4.69213 109.204 4.75994 109.339 4.89556C109.474 5.03118 109.541 5.19604 109.541 5.39016V7.09603C109.541 7.14789 109.573 7.17315 109.638 7.17315H110.622C110.802 7.17315 110.96 7.24096 111.095 7.37658C111.23 7.51219 111.297 7.67706 111.297 7.87118V8.14242C111.297 8.33654 111.23 8.49875 111.095 8.62772C110.96 8.75669 110.802 8.82184 110.622 8.82184H109.638C109.573 8.82184 109.541 8.85375 109.541 8.9189V10.6833L109.554 10.6859ZM104.671 6.26504C104.619 6.26504 104.594 6.29695 104.594 6.3621V7.09869C104.594 7.15055 104.619 7.17581 104.671 7.17581H107.238C107.29 7.17581 107.315 7.15055 107.315 7.09869V6.3621C107.315 6.29695 107.288 6.26504 107.238 6.26504H104.671ZM104.671 8.8245C104.619 8.8245 104.594 8.85641 104.594 8.92156V9.71666C104.594 9.78181 104.619 9.81372 104.671 9.81372H107.238C107.29 9.81372 107.315 9.78181 107.315 9.71666V8.92156C107.315 8.85641 107.288 8.8245 107.238 8.8245H104.671Z" fill="white"/>
<path d="M9.13976 29.9993H5.06203C3.47382 29.9993 1.94781 29.2827 0.996212 28.0063C0.0446095 26.7298 -0.218769 25.2248 0.178284 23.7383L1.12592 20.1829C1.39194 19.1871 2.40972 18.5967 3.40103 18.864C4.39233 19.1312 4.96409 20.2122 4.69939 21.2067L3.76631 24.7035C3.62867 25.2181 3.84043 25.5997 3.9794 25.7805C4.11837 25.9613 4.42939 26.2658 4.96012 26.2658H7.99889C8.12463 26.2658 8.23315 26.1807 8.26624 26.0597L13.0613 8.06371C13.326 7.06785 14.3451 6.47751 15.3364 6.74343C16.3277 7.00934 16.9154 8.03313 16.6507 9.02899L11.5949 28.0049C11.3778 28.8213 10.589 29.9993 9.14108 29.9993H9.13976Z" fill="white"/>
<path d="M15.2292 29.9975C15.0704 29.9975 14.9089 29.9776 14.7488 29.9337C13.7574 29.6678 13.1698 28.644 13.4345 27.6495L15.9161 18.3118C16.1808 17.3159 17.1986 16.7256 18.1899 16.9915C19.1812 17.2574 19.7688 18.2812 19.5041 19.2757L17.0225 28.6134C16.8002 29.4471 16.0498 29.9975 15.2292 29.9975Z" fill="white"/>
<path d="M20.8051 29.9975C20.6463 29.9975 20.4848 29.9776 20.3247 29.9337C19.3334 29.6678 18.7457 28.644 19.0104 27.6495L21.492 18.3118C21.7567 17.3159 22.7745 16.7256 23.7658 16.9915C24.7571 17.2574 25.3447 18.2812 25.08 19.2757L22.5985 28.6134C22.3761 29.4471 21.6257 29.9975 20.8051 29.9975Z" fill="white"/>
<path d="M26.3824 29.9979C26.2236 29.9979 26.0621 29.978 25.902 29.9341C24.9106 29.6682 24.323 28.6444 24.5877 27.6498L26.078 22.0549C26.3427 21.0591 27.3605 20.4687 28.3518 20.7346C29.3431 21.0006 29.9307 22.0243 29.666 23.0189L28.1757 28.6138C27.9534 29.4475 27.203 29.9979 26.3824 29.9979Z" fill="white"/>
<path d="M13.195 16.6366C13.0362 16.6366 12.8747 16.6153 12.7145 16.5728C10.3071 15.9239 8.33109 14.2447 7.29478 11.9644C6.49538 10.204 6.32994 8.20432 6.82891 6.33226C8.01609 1.87946 12.5888 -0.77308 17.0226 0.420893C21.455 1.61354 24.0954 6.20861 22.9082 10.6614C22.5112 12.1492 21.717 13.4934 20.6119 14.5505C19.8708 15.2591 18.6981 15.2299 17.9927 14.4853C17.2873 13.7407 17.3164 12.5627 18.0575 11.8541C18.669 11.269 19.1097 10.5231 19.3294 9.69746C19.9885 7.22707 18.5234 4.67825 16.0643 4.01611C13.6053 3.35397 11.0681 4.82583 10.409 7.29621C10.1284 8.34925 10.2171 9.43021 10.6671 10.4194C11.2428 11.6852 12.3387 12.6172 13.6741 12.9776C14.6627 13.2435 15.2491 14.2646 14.9844 15.2578C14.762 16.0888 14.0142 16.6379 13.1963 16.6379L13.195 16.6366Z" fill="white"/>
</svg>
