<?xml version="1.0" encoding="utf-8"?>
<!-- Generator: Adobe Illustrator 26.3.1, SVG Export Plug-In . SVG Version: 6.00 Build 0)  -->
<svg version="1.1" id="Layer_1" xmlns="http://www.w3.org/2000/svg" xmlns:xlink="http://www.w3.org/1999/xlink" x="0px" y="0px"
	 viewBox="0 0 128.9 30" style="enable-background:new 0 0 128.9 30;" xml:space="preserve">
<style type="text/css">
	.st0{fill:#FFFFFF;}
</style>
<path class="st0" d="M36.3,5.7c0-0.8,0.2-1.3,0.6-1.7c0.3-0.4,0.9-0.6,1.7-0.6H42c0.8,0,1.5,0.1,2.1,0.2c0.6,0.2,1.2,0.4,1.7,0.7
	c0.5,0.3,0.9,0.7,1.1,1.3s0.4,1.2,0.4,2s-0.2,1.4-0.4,2c-0.2,0.6-0.6,0.9-1.1,1.3c-0.5,0.3-1,0.6-1.7,0.7c-0.6,0.2-1.3,0.2-2.1,0.2
	h-1.9v1.9c0,0.6-0.2,1.1-0.5,1.5c-0.3,0.3-0.8,0.6-1.3,0.6c-0.6,0-1-0.2-1.3-0.6c-0.3-0.3-0.5-0.9-0.5-1.5v-8H36.3z M42.1,8.8
	c0.3,0,0.6-0.1,0.9-0.3s0.4-0.5,0.4-0.9c0-0.4-0.2-0.7-0.4-0.9c-0.2-0.2-0.6-0.3-1.1-0.3H40v2.5H42.1z"/>
<path class="st0" d="M49.2,5.7c0-0.8,0.2-1.3,0.6-1.7c0.3-0.4,0.9-0.6,1.7-0.6h6.1c0.6,0,0.9,0.2,1.3,0.4c0.2,0.2,0.4,0.6,0.4,1
	c0,0.5-0.2,0.8-0.4,1c-0.3,0.2-0.7,0.4-1.3,0.4H53v1.7h3.6c0.6,0,0.9,0.2,1.3,0.4c0.2,0.2,0.4,0.6,0.4,1c0,0.4-0.2,0.8-0.4,1
	c-0.3,0.2-0.7,0.4-1.3,0.4H53v1.9h4.6c0.6,0,0.9,0.2,1.3,0.4c0.2,0.2,0.4,0.6,0.4,1s-0.2,0.8-0.4,1c-0.3,0.2-0.7,0.4-1.3,0.4h-6.3
	c-0.7,0-1.3-0.2-1.7-0.6c-0.3-0.4-0.6-0.9-0.6-1.7L49.2,5.7L49.2,5.7z"/>
<path class="st0" d="M61.6,6.6c-0.6,0-0.9-0.2-1.2-0.4C60.2,5.9,60,5.5,60,5.1c0-0.5,0.2-0.9,0.4-1.1c0.2-0.2,0.7-0.4,1.3-0.4h8.2
	c0.6,0,1,0.2,1.3,0.4c0.2,0.2,0.4,0.6,0.4,1.1c0,0.5-0.2,0.9-0.4,1.1c-0.2,0.3-0.6,0.4-1.2,0.4h-2.3v7c0,0.6-0.2,1.2-0.6,1.5
	c-0.3,0.4-0.8,0.6-1.4,0.6c-0.6,0-1-0.2-1.4-0.6c-0.3-0.4-0.6-0.9-0.6-1.5v-7H61.6L61.6,6.6z"/>
<path class="st0" d="M73.1,5.1c0-0.6,0.2-0.9,0.4-1.3c0.2-0.2,0.6-0.4,1.2-0.4h4.2c0.6,0,1.1,0.1,1.7,0.2c0.5,0.2,0.9,0.4,1.3,0.7
	c0.4,0.3,0.6,0.7,0.9,1.2c0.2,0.5,0.3,1,0.3,1.7c0,1.1-0.4,2.1-1.1,2.8s-1.7,1-3.1,1h-3v3.2c0,0.4-0.2,0.7-0.4,1
	c-0.2,0.2-0.6,0.4-1,0.4c-0.4,0-0.7-0.2-1-0.4c-0.2-0.2-0.4-0.6-0.4-1L73.1,5.1L73.1,5.1z M75.8,8.9h2.5c0.6,0,1-0.2,1.3-0.5
	c0.4-0.3,0.6-0.7,0.6-1.3s-0.2-1-0.6-1.3c-0.4-0.2-0.9-0.4-1.6-0.4h-2.3L75.8,8.9L75.8,8.9z"/>
<path class="st0" d="M84.9,4.6c0-0.4,0.2-0.7,0.4-1c0.2-0.2,0.6-0.4,1-0.4c0.4,0,0.8,0.2,1,0.4c0.2,0.2,0.4,0.6,0.4,1v6.6
	c0,0.8,0.2,1.4,0.6,1.8c0.4,0.4,1,0.6,1.8,0.6s1.4-0.2,1.8-0.6c0.4-0.4,0.6-0.9,0.6-1.8V4.6c0-0.4,0.2-0.7,0.4-1
	c0.2-0.2,0.6-0.4,1-0.4c0.4,0,0.8,0.2,1,0.4c0.2,0.2,0.4,0.6,0.4,1v6.3c0,1.6-0.5,2.8-1.3,3.6c-0.9,0.8-2.2,1.2-3.8,1.2
	c-1.7,0-2.9-0.4-3.8-1.2c-0.9-0.8-1.3-2-1.3-3.6V4.6H84.9z"/>
<path class="st0" d="M97.8,4.6c0-0.4,0.2-0.7,0.4-1c0.2-0.2,0.6-0.4,1-0.4c0.4,0,0.8,0.2,1,0.4c0.2,0.2,0.4,0.6,0.4,1v8.5h4.6
	c0.4,0,0.7,0.1,1,0.3c0.2,0.2,0.4,0.5,0.4,0.9c0,0.4-0.2,0.6-0.4,0.9c-0.2,0.2-0.6,0.3-1,0.3h-5.7c-0.6,0-0.9-0.2-1.2-0.4
	c-0.2-0.2-0.4-0.6-0.4-1.3L97.8,4.6L97.8,4.6z"/>
<path class="st0" d="M114.2,8.5c0.6,0.2,1.1,0.3,1.5,0.6c0.4,0.2,0.7,0.6,0.9,0.8c0.2,0.3,0.4,0.6,0.5,0.9c0.1,0.3,0.2,0.7,0.2,1.1
	c0,1.1-0.4,2.1-1.3,2.7c-0.9,0.7-2.1,1-3.6,1c-0.8,0-1.6-0.1-2.2-0.2c-0.6-0.2-1.2-0.4-1.6-0.7c-0.4-0.3-0.7-0.6-0.9-0.9
	c-0.2-0.3-0.3-0.7-0.3-1s0.1-0.6,0.3-0.8c0.2-0.2,0.5-0.3,0.8-0.3c0.3,0,0.5,0.1,0.7,0.2c0.2,0.2,0.4,0.3,0.6,0.6
	c0.2,0.2,0.3,0.4,0.4,0.6c0.2,0.2,0.3,0.2,0.5,0.4c0.2,0.2,0.4,0.2,0.7,0.3c0.2,0.1,0.6,0.1,0.9,0.1c0.7,0,1.2-0.2,1.6-0.5
	c0.4-0.3,0.6-0.7,0.6-1.1c0-0.3-0.1-0.6-0.2-0.7c-0.2-0.2-0.5-0.4-0.9-0.5l-3.1-0.8c-0.6-0.2-1.1-0.3-1.5-0.6
	c-0.4-0.2-0.7-0.5-0.9-0.8c-0.2-0.3-0.3-0.6-0.4-0.9c-0.1-0.3-0.1-0.6-0.1-1c0-0.6,0.2-1.2,0.4-1.7c0.2-0.5,0.6-0.9,1.1-1.1
	c0.5-0.2,0.9-0.5,1.5-0.6c0.6-0.2,1.2-0.2,1.7-0.2c0.6,0,1,0.1,1.6,0.2c0.6,0.2,1,0.3,1.5,0.6c0.5,0.2,0.8,0.6,1.1,0.9
	c0.2,0.3,0.4,0.7,0.4,1.1c0,0.3-0.2,0.6-0.4,0.8s-0.6,0.3-0.9,0.3c-0.2,0-0.4-0.1-0.6-0.2c-0.2-0.1-0.3-0.2-0.6-0.5
	c-0.3-0.3-0.6-0.6-1-0.8c-0.3-0.2-0.9-0.3-1.5-0.3c-0.6,0-1.1,0.2-1.4,0.4c-0.3,0.2-0.6,0.6-0.6,1c0,0.4,0.2,0.6,0.5,0.8
	c0.3,0.2,0.8,0.3,1.3,0.5L114.2,8.5L114.2,8.5z"/>
<path class="st0" d="M119.4,5.1c0-0.6,0.2-0.9,0.4-1.3c0.2-0.2,0.6-0.4,1.2-0.4h6.4c0.5,0,0.8,0.1,1,0.2c0.2,0.2,0.4,0.5,0.4,0.9
	c0,0.4-0.2,0.7-0.4,0.9c-0.2,0.2-0.6,0.2-1,0.2h-5.3v2.6h4.6c0.4,0,0.7,0.1,0.9,0.2c0.2,0.2,0.3,0.4,0.3,0.8c0,0.4-0.1,0.6-0.3,0.8
	c-0.2,0.2-0.6,0.2-0.9,0.2h-4.6v2.9h5.4c0.5,0,0.8,0.1,1,0.2c0.2,0.2,0.4,0.5,0.4,0.9c0,0.4-0.1,0.7-0.4,0.9c-0.2,0.2-0.6,0.2-1,0.2
	h-6.6c-0.6,0-0.9-0.2-1.2-0.4c-0.2-0.2-0.4-0.6-0.4-1.3L119.4,5.1L119.4,5.1z"/>
<path class="st0" d="M36.3,20c0-0.2,0.1-0.2,0.2-0.3c0.1-0.1,0.2-0.2,0.3-0.2h6.1c0.2,0,0.2,0.1,0.3,0.2c0.1,0.1,0.2,0.2,0.2,0.3
	v6.4c0,0.2-0.1,0.2-0.2,0.3c-0.1,0.1-0.2,0.2-0.3,0.2h-0.5c-0.1,0-0.2,0-0.2-0.1c-0.1-0.1-0.1-0.1-0.1-0.2l0,0h-4.6l0,0
	c0,0.1,0,0.2-0.1,0.2c-0.1,0.1-0.1,0.1-0.2,0.1h-0.4c-0.2,0-0.2-0.1-0.3-0.2c-0.1-0.1-0.2-0.2-0.2-0.3V20H36.3z M37.4,25.4
	C37.4,25.4,37.4,25.5,37.4,25.4l4.6,0.1c0.1,0,0.1,0,0.1-0.1v-4.7c0,0,0-0.1-0.1-0.1h-4.5c-0.1,0-0.1,0-0.1,0.1V25.4z M41.8,22.2
	c0,0.2-0.1,0.2-0.2,0.3c-0.1,0.1-0.2,0.2-0.3,0.2h-0.9l0,0l0,0c0.2,0.7,0.6,1.2,1.1,1.4c0.1,0.1,0.2,0.2,0.2,0.2v0.1
	c0,0.1,0,0.2-0.1,0.2c-0.1,0.1-0.1,0.2-0.2,0.2c-0.1,0.1-0.2,0.2-0.3,0.2c-0.1,0-0.1,0-0.2,0s-0.2,0-0.2-0.1c-0.4-0.3-0.8-0.7-1-1.2
	l0,0l0,0c-0.2,0.5-0.6,0.9-1.2,1.2c-0.1,0-0.2,0.1-0.2,0.1s-0.1,0-0.2,0c-0.2-0.1-0.2-0.1-0.3-0.2c0-0.1-0.1-0.1-0.1-0.2
	c-0.1-0.1-0.1-0.2-0.1-0.2v-0.1c0-0.1,0.1-0.2,0.2-0.2c0.3-0.2,0.6-0.4,0.7-0.6c0.2-0.2,0.3-0.6,0.4-0.9c0,0,0-0.1-0.1-0.1H38
	c-0.2,0-0.2-0.1-0.3-0.2c-0.1-0.1-0.2-0.2-0.2-0.3v0c0-0.2,0.1-0.2,0.2-0.3c0.1-0.1,0.2-0.2,0.3-0.2h0.9c0,0,0.1,0,0.1-0.1
	c0-0.2,0-0.2,0-0.4s0.1-0.2,0.2-0.3c0.1-0.1,0.2-0.2,0.3-0.2h0.2c0.2,0,0.2,0.1,0.3,0.2c0.1,0.1,0.2,0.2,0.2,0.3c0,0.1,0,0.2,0,0.4
	c0,0.1,0,0.1,0.1,0.1h1.1c0.2,0,0.2,0.1,0.3,0.2C41.8,21.9,41.9,22.1,41.8,22.2L41.8,22.2L41.8,22.2z"/>
<path class="st0" d="M53.2,23.5C53.2,23.6,53.2,23.6,53.2,23.5l0.4,0.1c0.2,0,0.2,0.1,0.3,0.2c0.1,0.1,0.1,0.2,0.1,0.3
	c0,0.5-0.1,1-0.2,1.7c-0.1,0.4-0.2,0.6-0.3,0.8c-0.2,0.2-0.4,0.3-0.6,0.3c-0.1,0-0.3,0-0.5,0l0,0c-0.2,0-0.2-0.1-0.3-0.2
	c-0.1-0.1-0.2-0.2-0.2-0.3c-0.1-0.2-0.1-0.3-0.2-0.5l0,0h-0.1l-0.1-0.1c-0.1-0.2-0.1-0.4-0.2-0.6c0-0.1,0-0.1,0-0.2
	c0-0.1,0-0.1,0-0.2c0.1-0.1,0.1-0.2,0.2-0.2c0.1,0,0.1,0,0.2,0s0.2,0,0.2,0c0.1,0.1,0.2,0.1,0.2,0.2c0.1,0.1,0.1,0.2,0.1,0.2
	s0,0.1,0,0.2c0,0.1,0,0.2-0.1,0.2c-0.1,0.1-0.2,0.2-0.2,0.2l0,0l0,0l0,0c0.1,0,0.2,0,0.4,0c0.1,0,0.2,0,0.2-0.1
	c0.1-0.1,0.2-0.5,0.2-1.1c0-0.1,0-0.1-0.1-0.1h-4.7h-0.1c-0.1,0-0.1,0.1-0.2,0.1l0,0l0,0l0.3,0.1c0.2,0.1,0.2,0.2,0.3,0.2
	c0,0.1,0.1,0.2,0.1,0.2c0,0.1,0,0.1,0,0.2c-0.2,0.4-0.3,0.8-0.5,1c-0.1,0.1-0.2,0.2-0.3,0.2h-0.1c-0.1,0-0.2,0-0.3-0.1l-0.2-0.1
	c-0.1-0.1-0.2-0.2-0.2-0.2c0,0,0,0,0-0.1s0-0.2,0.1-0.2c0.2-0.3,0.4-0.6,0.5-1l0,0l0,0c-0.1,0-0.1,0-0.2,0H47
	c-0.1,0-0.2-0.1-0.2-0.2c-0.1-0.1-0.2-0.2-0.2-0.3c-0.1-0.1-0.1-0.2-0.1-0.2V24c0-0.1,0.1-0.2,0.2-0.2c0.9-0.5,1.8-1.3,2.5-2.2l0,0
	l0,0h-1.9c-0.2,0-0.2-0.1-0.3-0.2c-0.1-0.1-0.2-0.2-0.2-0.3V21c0-0.2,0.1-0.2,0.2-0.3c0.1-0.1,0.2-0.2,0.3-0.2H48l0,0l0,0
	c-0.1-0.2-0.2-0.3-0.2-0.5c0-0.1,0-0.2,0-0.2c0-0.1,0-0.1,0-0.2c0.1-0.1,0.2-0.2,0.2-0.2l0.2-0.1c0.1,0,0.2,0,0.2,0s0.1,0,0.2,0
	c0.2,0.1,0.2,0.2,0.3,0.2c0.1,0.2,0.2,0.3,0.2,0.4c0,0.1,0,0.1,0,0.2c0,0.1,0,0.1,0,0.2c-0.1,0.1-0.1,0.2-0.2,0.2l0,0h0.9
	c0.1,0,0.1,0,0.1-0.1c0.2-0.2,0.2-0.6,0.4-0.9c0.1-0.2,0.2-0.2,0.2-0.2s0.2-0.1,0.2-0.1s0.1,0,0.2,0l0.3,0.1c0.2,0,0.2,0.1,0.2,0.2
	c0.1,0.1,0.1,0.2,0.1,0.2c0,0.1,0,0.1,0,0.2c-0.1,0.2-0.2,0.4-0.2,0.6l0,0l0,0h1c0.2,0,0.2,0.1,0.3,0.2c0.1,0.1,0.1,0.2,0.1,0.2V21
	c-0.1,0.4-0.2,0.7-0.2,1c0,0,0,0.1,0.1,0.1H53c0.2,0,0.2,0.1,0.3,0.2c0.1,0.1,0.1,0.2,0.1,0.2v0.1C53.4,22.9,53.3,23.2,53.2,23.5
	L53.2,23.5z M48.7,25.6L48.7,25.6c0-0.2,0-0.2,0.1-0.3c0.1-0.1,0.2-0.2,0.3-0.2l0,0h0.1c0.1,0,0.2,0,0.3,0.1
	c0.1,0.1,0.2,0.2,0.2,0.3c0,0.2,0.1,0.4,0.1,0.6v0.1c0,0.1,0,0.2-0.1,0.3c-0.1,0.1-0.2,0.2-0.3,0.2h-0.1h-0.1c-0.1,0-0.2,0-0.2-0.1
	s-0.2-0.2-0.2-0.3C48.8,26,48.8,25.8,48.7,25.6L48.7,25.6z M52.2,23.2C52.2,23.1,52.2,23.1,52.2,23.2l-2.5-0.1c-0.1,0-0.1,0-0.1,0.1
	c-0.2,0.2-0.2,0.2-0.4,0.4l0,0l0,0h2.8c0,0,0.1,0,0.1-0.1C52.2,23.4,52.2,23.3,52.2,23.2L52.2,23.2z M50,25.5c0-0.1,0-0.1,0-0.2
	s0-0.2,0.1-0.2c0.1-0.1,0.2-0.2,0.2-0.2c0.1,0,0.1,0,0.2,0s0.2,0,0.2,0.1c0.1,0.1,0.2,0.2,0.2,0.3c0.1,0.2,0.1,0.3,0.1,0.4
	s0,0.1,0,0.1c0,0.1,0,0.2-0.1,0.2c-0.1,0.1-0.2,0.2-0.3,0.2l0,0h-0.1c-0.1,0-0.2,0-0.2-0.1c-0.1-0.1-0.2-0.2-0.2-0.3
	C50.1,25.8,50,25.6,50,25.5L50,25.5z M51.6,21.7C51.6,21.6,51.6,21.6,51.6,21.7l-0.8-0.1c-0.1,0-0.1,0-0.1,0.1
	c-0.1,0.2-0.2,0.3-0.2,0.4l0,0l0,0h0.9c0,0,0.1,0,0.1-0.1C51.5,22,51.5,21.8,51.6,21.7z"/>
<path class="st0" d="M62.3,24c0.3,0,0.6,0.1,0.8,0.2c0.1,0.1,0.2,0.2,0.2,0.2v0.1c0,0.1,0,0.2-0.1,0.2c-0.2,0.3-0.5,0.6-0.9,0.8l0,0
	l0,0c0.6,0.1,1.3,0.2,2,0.2c0.1,0,0.2,0.1,0.2,0.2V26c0,0.1,0,0.1-0.1,0.2c-0.1,0.1-0.1,0.2-0.2,0.2c-0.1,0.2-0.2,0.2-0.3,0.3
	c-0.1,0.1-0.2,0.1-0.3,0.1h-0.1c-1-0.1-1.8-0.3-2.6-0.6h-0.1c-0.7,0.2-1.6,0.5-2.5,0.6h-0.1c-0.1,0-0.2,0-0.3-0.1
	c-0.2-0.1-0.2-0.2-0.3-0.3c0-0.1-0.1-0.2-0.1-0.2c0-0.1-0.1-0.1-0.1-0.2V26c0.1-0.1,0.1-0.2,0.2-0.2c0.7-0.1,1.3-0.2,1.9-0.3l0,0
	l0,0c-0.2-0.1-0.3-0.2-0.5-0.4h-0.1c-0.2,0.1-0.3,0.2-0.5,0.2c-0.1,0-0.2,0.1-0.2,0.1c-0.1,0-0.1,0-0.2,0c-0.2,0-0.2-0.1-0.3-0.2
	c-0.1,0-0.1-0.1-0.1-0.1c-0.1-0.1-0.1-0.2-0.1-0.2v-0.1c0-0.1,0.1-0.2,0.2-0.2c0.8-0.2,1.4-0.6,1.9-1v-0.1c-0.2-0.1-0.4-0.3-0.4-0.6
	l0,0l0,0c-0.2,0.3-0.4,0.6-0.6,0.7c-0.1,0.1-0.2,0.2-0.3,0.2l0,0c-0.2,0-0.2-0.1-0.4-0.2L58,23.6c-0.1-0.1-0.1-0.2-0.1-0.2
	c0-0.2,0.1-0.2,0.2-0.3c0.2-0.2,0.2-0.2,0.4-0.4l0,0l0,0H58c-0.2,0-0.2-0.1-0.3-0.2c-0.1-0.1-0.2-0.2-0.2-0.3v-0.6
	c0-0.2,0.1-0.2,0.2-0.3c0.1-0.1,0.2-0.2,0.3-0.2h0.8l0,0l0,0c-0.1-0.2-0.2-0.3-0.3-0.5l-0.1-0.1h-0.1c-0.1,0-0.2,0-0.3-0.1
	c-0.1-0.1-0.2-0.2-0.2-0.3V20c0-0.1,0-0.2,0.1-0.2c0.1-0.1,0.2-0.2,0.2-0.2c2-0.1,3.6-0.2,4.7-0.4c0.1,0,0.1,0,0.2,0
	c0.2,0,0.5,0.1,0.6,0.2l0.1,0.1c0.1,0.1,0.1,0.1,0.1,0.2v0.1c0,0.1-0.1,0.2-0.2,0.2c-0.2,0-0.3,0.1-0.5,0.1l0,0l0,0l0.2,0.1
	c0.1,0,0.2,0.1,0.2,0.2v0.1c0,0.1,0,0.2-0.1,0.2c-0.1,0.1-0.2,0.2-0.2,0.3l0,0l0,0H64c0.2,0,0.2,0.1,0.3,0.2
	c0.1,0.1,0.2,0.2,0.2,0.3v0.7c0,0.2-0.1,0.2-0.2,0.3c-0.1,0.1-0.2,0.2-0.3,0.2h-0.2l0,0l0,0c0.1,0.1,0.1,0.1,0.2,0.2
	C64,22.9,64,23,64,23v0.1c0,0.2-0.1,0.2-0.2,0.3l-0.1,0.1c-0.1,0.2-0.2,0.2-0.2,0.2h-0.1c-0.2,0-0.2-0.1-0.3-0.2
	c-0.2-0.2-0.3-0.3-0.5-0.5l0,0l0,0c-0.1,0.2-0.2,0.4-0.3,0.5c-0.2,0.1-0.4,0.2-0.6,0.2h-0.4c0,0-0.1,0-0.1,0.1
	c-0.1,0.1-0.1,0.2-0.2,0.2l0,0l0,0L62.3,24L62.3,24z M59.5,22.6c0-0.1,0-0.2,0.1-0.2c0.1-0.1,0.1-0.1,0.2-0.1h0.7l0,0l0,0h-0.1
	c-0.1,0-0.1-0.1-0.1-0.1c0-0.1,0-0.1,0-0.2l0,0l0,0h-1.6c0,0-0.1,0-0.1,0.1v0.5l0,0l0,0c0.1-0.1,0.1-0.1,0.2-0.2c0.1,0,0.2,0,0.2,0
	L59.5,22.6L59.5,22.6L59.5,22.6z M59.8,21.1C59.8,21.1,59.8,21.1,59.8,21.1h0.8l0,0l0,0c-0.1-0.2-0.2-0.4-0.2-0.6l-0.1-0.1
	c-0.2,0-0.3,0-0.6,0l0,0l0,0c0.1,0.1,0.2,0.2,0.2,0.3c0,0.1,0,0.1,0,0.2C59.8,21.1,59.8,21.1,59.8,21.1L59.8,21.1z M61.7,24.9
	C61.7,24.8,61.7,24.8,61.7,24.9C61.7,24.8,61.7,24.8,61.7,24.9h-1.4l0,0l0,0c0.2,0.2,0.5,0.2,0.7,0.4h0.1
	C61.3,25.1,61.6,24.9,61.7,24.9L61.7,24.9z M63.4,22.3C63.4,22.4,63.4,22.4,63.4,22.3C63.4,22.4,63.4,22.3,63.4,22.3l0.1-0.3
	c0,0,0-0.1-0.1-0.1h-1.7l0,0l0,0c0.1,0.1,0.1,0.1,0.2,0.2c0,0.1,0,0.2-0.1,0.2l-0.1,0.1c-0.1,0.1-0.2,0.2-0.3,0.2l0,0
	c-0.1,0-0.2,0-0.3-0.1c-0.1-0.1-0.2-0.2-0.4-0.2l0,0l0,0v0.3c0,0.1,0,0.2,0.1,0.2c0,0,0.1,0,0.2,0h0.6c0.1,0,0.2,0,0.2-0.1
	c0.1-0.1,0.2-0.2,0.2-0.2h0.1c0.2,0.1,0.2,0.1,0.4,0.2l0,0l0,0c-0.1-0.1-0.1-0.2-0.1-0.2s0-0.2,0.1-0.2l0.2-0.1
	c0.1-0.1,0.2-0.1,0.4-0.1l0,0C63.2,22.2,63.2,22.2,63.4,22.3L63.4,22.3z M61.3,21.1L61.3,21.1h0.8c0,0,0.1,0,0.1-0.1
	c0.2-0.2,0.3-0.5,0.4-0.8l0,0l0,0c-0.3,0.1-0.7,0.1-1.1,0.1l0,0l0,0c0,0.1,0.1,0.2,0.1,0.2c0,0.1,0,0.1,0,0.2c0,0.1,0,0.1,0,0.2
	C61.5,21,61.4,21.1,61.3,21.1L61.3,21.1z"/>
<path class="st0" d="M71.6,23.6c0,0.2-0.1,0.2-0.2,0.3c-0.1,0.1-0.2,0.2-0.3,0.2h-1.7c-0.1,0-0.1,0-0.1,0.1c-0.1,1-0.2,1.8-0.5,2.5
	c-0.1,0.1-0.2,0.2-0.2,0.2h-0.1c-0.1,0-0.2,0-0.2-0.1c-0.1-0.1-0.2-0.1-0.2-0.2c-0.1-0.1-0.2-0.2-0.2-0.3c0-0.1,0-0.1,0-0.2
	c0-0.1,0-0.2,0-0.2c0.2-0.6,0.3-1.5,0.3-2.7v-1.5c0-0.2,0.1-0.2,0.2-0.3c0.1-0.1,0.2-0.2,0.3-0.2h2.4c0.2,0,0.2,0.1,0.3,0.2
	c0.1,0.1,0.2,0.2,0.2,0.3V23.6L71.6,23.6z M71.2,19.6c0.2,0,0.2,0.1,0.3,0.2c0.1,0.1,0.2,0.2,0.2,0.3v0.2c0,0.2-0.1,0.2-0.2,0.3
	c-0.1,0.1-0.2,0.2-0.3,0.2h-2.7c-0.2,0-0.2-0.1-0.3-0.2c-0.1-0.1-0.2-0.2-0.2-0.3v-0.2c0-0.2,0.1-0.2,0.2-0.3
	c0.1-0.1,0.2-0.2,0.3-0.2H71.2z M70.4,22.2C70.4,22.2,70.4,22.2,70.4,22.2l-0.9-0.1c-0.1,0-0.1,0-0.1,0.1V23c0,0.1,0,0.1,0.1,0.1
	h0.9c0,0,0.1,0,0.1-0.1C70.4,23,70.4,22.2,70.4,22.2z M73.1,21.1L73.1,21.1l-0.1,0.9c0,0.1,0,0.1,0.1,0.1H75c0.2,0,0.2,0.1,0.3,0.2
	c0.1,0.1,0.2,0.2,0.2,0.3v0.2c0,0.2-0.1,0.2-0.2,0.3c-0.1,0.1-0.2,0.2-0.3,0.2H75c0,0-0.1,0-0.1,0.1v3.3c0,0.2-0.1,0.2-0.2,0.3
	c-0.1,0.1-0.2,0.2-0.3,0.2h-0.2c-0.2,0-0.2-0.1-0.3-0.2c-0.1-0.1-0.2-0.2-0.2-0.3v-3.3c0,0,0-0.1-0.1-0.1h-0.6c-0.1,0-0.1,0-0.1,0.1
	c-0.1,1.4-0.5,2.6-1.2,3.4c-0.1,0.1-0.2,0.2-0.2,0.2l0,0c-0.2,0-0.2-0.1-0.3-0.2c-0.1-0.1-0.2-0.1-0.2-0.2c-0.1-0.1-0.2-0.2-0.2-0.3
	v-0.1c0-0.1,0-0.2,0.1-0.2c0.2-0.2,0.4-0.6,0.5-0.9c0.2-0.3,0.2-0.6,0.3-0.9s0.1-0.6,0.1-0.9c0-0.2,0-0.6,0-0.9v-1.8
	c0-0.1,0.1-0.2,0.2-0.3c0.1-0.1,0.2-0.1,0.2-0.1h0.1l0.2,0.1h0.1c0.5-0.2,0.9-0.3,1.3-0.6c0.1-0.1,0.2-0.1,0.3-0.1h0.1
	c0.2,0,0.2,0.1,0.4,0.2l0.3,0.2c0.1,0.1,0.1,0.2,0.1,0.2v0.1c0,0.1-0.1,0.2-0.2,0.2C74.6,20.6,73.9,20.8,73.1,21.1L73.1,21.1z"/>
<path class="st0" d="M81.4,23.7c0.1,0,0.1,0,0.2,0s0.1,0,0.2,0.1c0.1,0.1,0.2,0.2,0.2,0.2l0.1,0.2c0,0.1,0,0.1,0,0.2
	c0,0.1,0,0.2-0.1,0.2c-0.1,0.2-0.2,0.2-0.3,0.2c-0.6,0.3-1.4,0.6-2.3,0.9c-0.1,0-0.1,0-0.2,0s-0.1,0-0.2,0c-0.1-0.1-0.2-0.2-0.2-0.2
	l-0.2-0.4c0-0.1,0-0.1,0-0.2c0-0.1,0-0.2,0.1-0.2c0.1-0.1,0.2-0.2,0.2-0.2c0.2-0.1,0.4-0.2,0.6-0.2c0,0,0.1,0,0.1-0.1l-0.2-4
	c0-0.2,0-0.2,0.2-0.3c0.1-0.1,0.2-0.2,0.3-0.2h0.3l0,0c0.2,0,0.2,0.1,0.3,0.2c0.1,0.1,0.2,0.2,0.2,0.3l0.2,3.6l0,0l0,0
	C81,23.8,81.1,23.7,81.4,23.7L81.4,23.7z M86,25.6c0.1,0.1,0.1,0.2,0.1,0.3V26c0,0.2-0.1,0.2-0.2,0.3l-0.3,0.3
	c-0.1,0.1-0.2,0.1-0.2,0.1h-0.1c-0.1,0-0.2-0.1-0.2-0.2c-0.2-0.4-0.6-0.8-1.1-1.4h-0.1c-0.5,0.6-1.1,1.2-1.8,1.6
	c-0.1,0.1-0.2,0.1-0.2,0.1s-0.1,0-0.2,0c-0.2,0-0.2-0.1-0.3-0.2s-0.2-0.2-0.3-0.4C81,26,81,26,81,25.9v-0.1c0-0.1,0.1-0.2,0.2-0.2
	c0.5-0.2,0.9-0.6,1.3-0.9c0.4-0.3,0.6-0.7,0.9-1.2c0.2-0.5,0.4-0.9,0.6-1.5c0.2-0.6,0.2-1.2,0.3-1.9c0-0.2,0.1-0.2,0.2-0.3
	c0.1-0.1,0.2-0.1,0.3-0.1h0.1h0.4c0.2,0,0.2,0.1,0.3,0.2c0.1,0.1,0.1,0.2,0.1,0.3c0,0,0,0,0,0.1c-0.2,1.4-0.5,2.6-0.9,3.6v0.1
	C85.3,24.7,85.8,25.2,86,25.6L86,25.6z M83.3,21.7c0,0.1,0.1,0.2,0.1,0.2c0,0.1,0,0.1,0,0.2c-0.1,0.2-0.2,0.2-0.2,0.2l-0.3,0.2
	c-0.1,0-0.2,0.1-0.2,0.1c-0.1,0-0.1,0-0.2,0c-0.1-0.1-0.2-0.1-0.2-0.2c-0.2-0.4-0.5-0.8-0.7-1.3c-0.1-0.1-0.1-0.2-0.1-0.2v-0.1
	c0-0.1,0.1-0.2,0.2-0.2l0.2-0.1c0.1-0.1,0.2-0.1,0.2-0.1c0.1,0,0.1,0,0.2,0c0.2,0,0.2,0.1,0.3,0.2C82.8,20.9,83,21.3,83.3,21.7
	L83.3,21.7z"/>
<path class="st0" d="M90.5,19.6c0.1-0.2,0.1-0.2,0.2-0.2c0.1,0,0.2-0.1,0.2-0.1c0.1,0,0.1,0,0.2,0l0.2,0.1c0.2,0,0.2,0.1,0.3,0.2
	c0,0.1,0.1,0.2,0.1,0.2s0,0.1,0,0.2c-0.2,0.4-0.3,0.8-0.5,1.2v0.1v5.1c0,0.2-0.1,0.2-0.2,0.3c-0.1,0.1-0.2,0.2-0.3,0.2h-0.3
	c-0.2,0-0.2-0.1-0.3-0.2c-0.1-0.1-0.2-0.2-0.2-0.3v-3.2l0,0l0,0l0,0c-0.1,0.1-0.1,0.1-0.2,0.1c0,0,0,0-0.1,0c-0.1,0-0.2-0.1-0.2-0.2
	c-0.1-0.2-0.2-0.3-0.2-0.5c-0.1-0.1-0.1-0.2-0.1-0.3v-0.1c0-0.2,0.1-0.2,0.2-0.4C89.8,21.3,90.2,20.5,90.5,19.6L90.5,19.6z
	 M96.9,21.3c0,0.1,0,0.2-0.1,0.2s-0.2,0.1-0.2,0.1h-0.1c-0.2,1.3-0.3,2.3-0.6,3v0.1c0.2,0.3,0.4,0.6,0.6,0.8
	c0.1,0.1,0.2,0.2,0.2,0.3v0.1c0,0.1,0,0.2-0.1,0.2c-0.1,0.1-0.1,0.1-0.2,0.2c-0.1,0.1-0.2,0.2-0.3,0.2H96c-0.1,0-0.2,0-0.2-0.1
	c-0.2-0.2-0.4-0.5-0.6-0.7l0,0l0,0c-0.2,0.2-0.4,0.5-0.7,0.7c-0.1,0.1-0.2,0.1-0.2,0.1h-0.1c-0.2,0-0.2-0.1-0.3-0.2
	c-0.1-0.2-0.2-0.2-0.3-0.3c0,0,0,0,0-0.1v-0.1l0,0h-1.1c-0.1,0-0.1,0-0.1,0.1v0.2c0,0.2-0.1,0.2-0.2,0.3c-0.1,0.1-0.2,0.2-0.3,0.2
	h-0.1c-0.2,0-0.2-0.1-0.3-0.2c-0.1-0.1-0.2-0.2-0.2-0.3v-2.8c0-0.2,0.1-0.2,0.2-0.3c0.1-0.1,0.2-0.2,0.3-0.2h0.2c0,0,0.1,0,0.1-0.1
	v-1.1c0,0,0-0.1-0.1-0.1h-0.3c-0.2,0-0.2-0.1-0.3-0.2s-0.2-0.2-0.2-0.3v-0.1c0-0.2,0.1-0.2,0.2-0.3c0.1-0.1,0.2-0.2,0.3-0.2h0.3
	c0,0,0.1,0,0.1-0.1v-0.8c0-0.2,0.1-0.2,0.2-0.3c0.1-0.1,0.2-0.2,0.3-0.2h0.2c0.2,0,0.2,0.1,0.3,0.2c0.1,0.1,0.2,0.2,0.2,0.3v0.8
	c0,0.1,0,0.1,0.1,0.1h0.2c0.2,0,0.2,0.1,0.3,0.2C94,20.8,94,21,94,21.1v0.1c0,0.2-0.1,0.2-0.2,0.3s-0.2,0.2-0.3,0.2h-0.2
	c0,0-0.1,0-0.1,0.1v1.1c0,0,0,0.1,0.1,0.1h0.4l0,0c-0.1-0.1-0.1-0.2-0.1-0.2s0-0.2,0.1-0.2c0.4-0.6,0.6-1.5,0.8-2.7
	c0-0.2,0.1-0.2,0.2-0.3c0.1-0.1,0.2-0.1,0.2-0.1H95h0.1c0.2,0,0.2,0.1,0.3,0.2c0.1,0.1,0.1,0.2,0.1,0.2v0.1
	c-0.1,0.2-0.1,0.5-0.2,0.7c0,0.1,0,0.1,0.1,0.1h1c0.2,0,0.2,0.1,0.3,0.2c0.1,0.1,0.2,0.2,0.2,0.3L96.9,21.3L96.9,21.3z M92.8,25
	C92.9,25,92.9,25,92.8,25l0.1-1.1c0-0.1,0-0.1-0.1-0.1h-0.5c-0.1,0-0.1,0-0.1,0.1v1c0,0.1,0,0.1,0.1,0.1H92.8z M94,23.4L94,23.4v2.4
	l0,0l0,0c0.3-0.2,0.6-0.6,0.7-0.9v-0.1c-0.2-0.4-0.2-0.9-0.4-1.3l0,0l0,0l0,0c-0.1,0.1-0.1,0.1-0.2,0.1C94,23.4,94,23.4,94,23.4
	L94,23.4z M95.5,21.7C95.5,21.7,95.5,21.7,95.5,21.7l-0.4-0.1c-0.1,0-0.1,0-0.1,0.1c0,0.1-0.1,0.2-0.1,0.2v0.1
	c0.1,0.5,0.2,0.9,0.2,1.3l0,0l0,0C95.4,22.9,95.5,22.3,95.5,21.7L95.5,21.7z"/>
<path class="st0" d="M102.6,25.3C102.6,25.3,102.6,25.3,102.6,25.3l1-0.1h0.1c0.1,0,0.2,0,0.2,0.1c0.1,0.1,0.2,0.2,0.2,0.3v0.2
	c0,0.2,0,0.2-0.1,0.3c-0.1,0.1-0.2,0.2-0.3,0.2c-0.6,0.1-1.7,0.2-3.2,0.4h-0.1c-0.1,0-0.2,0-0.3-0.1s-0.2-0.2-0.2-0.3V26v-0.1
	c0-0.1,0-0.2,0.1-0.2c0.1-0.1,0.2-0.2,0.3-0.2c0,0,0.4,0,1-0.1c0,0,0.1,0,0.1-0.1v-0.7c0-0.1,0-0.1-0.1-0.1h-0.7
	c-0.2,0-0.2-0.1-0.3-0.2c-0.1-0.1-0.2-0.2-0.2-0.3V24c0-0.2,0.1-0.2,0.2-0.3c0.1-0.1,0.2-0.2,0.3-0.2h0.7c0,0,0.1,0,0.1-0.1v-0.2
	c0-0.2,0.1-0.2,0.2-0.3c0.1-0.1,0.2-0.2,0.3-0.2h0.2c0.2,0,0.2,0.1,0.3,0.2c0.1,0.1,0.2,0.2,0.2,0.3v0.2c0,0,0,0.1,0.1,0.1h0.7
	c0.2,0,0.2,0.1,0.3,0.2c0.1,0.1,0.2,0.2,0.2,0.3v0.1c0,0.2-0.1,0.2-0.2,0.3c-0.1,0.1-0.2,0.2-0.3,0.2h-0.7c0,0-0.1,0-0.1,0.1
	L102.6,25.3L102.6,25.3z M105.4,24.4c0,0.2-0.1,0.2-0.2,0.3c-0.1,0.1-0.2,0.2-0.3,0.2h-0.2c-0.2,0-0.2-0.1-0.3-0.2
	c-0.1-0.1-0.2-0.2-0.2-0.3v-1.7l0,0c0,0,0,0-0.1,0l-0.6,0.3c-0.1,0-0.1,0-0.2,0h-0.1c-0.1,0-0.2-0.1-0.2-0.2c0,0,0,0-0.1,0
	c-0.7,0-1.6,0.1-2.8,0.1l0,0c-0.2,0-0.2-0.1-0.3-0.2c-0.1-0.1-0.2-0.2-0.2-0.3v-0.2c0-0.2,0-0.2,0.2-0.3c0.1-0.1,0.2-0.2,0.3-0.2
	h0.2c0.1,0,0.1,0,0.1-0.1c0.1-0.3,0.2-0.6,0.2-0.9c0,0,0-0.1-0.1-0.1h-0.4c-0.2,0-0.2-0.1-0.3-0.2c-0.1-0.1-0.2-0.2-0.2-0.3v-0.1
	c0-0.2,0.1-0.2,0.2-0.3c0.1-0.1,0.2-0.2,0.3-0.2h3.2c0.2,0,0.2,0.1,0.3,0.2c0.1,0.1,0.2,0.2,0.2,0.3v0.1c0,0.2-0.1,0.2-0.2,0.3
	c-0.1,0.1-0.2,0.2-0.3,0.2h-0.3l0,0l0,0c0.5,0.6,0.9,1.2,1,1.7l0,0l0,0v-1.8c0-0.2,0.1-0.2,0.2-0.3c0.1-0.1,0.2-0.2,0.3-0.2h0.2
	c0.2,0,0.2,0.1,0.3,0.2c0.1,0.1,0.2,0.2,0.2,0.3V24.4L105.4,24.4z M101.8,21.7L101.8,21.7L101.8,21.7h0.9l0,0l0,0c0,0,0-0.1-0.1-0.1
	c-0.1-0.1-0.1-0.2-0.1-0.2v-0.1c0-0.2,0.1-0.2,0.2-0.2l0.4-0.2l0,0l0,0h-0.9c-0.1,0-0.1,0-0.1,0.1C102,21.1,101.9,21.5,101.8,21.7
	L101.8,21.7z M106.1,19.9c0-0.2,0.1-0.2,0.2-0.3c0.1-0.1,0.2-0.2,0.3-0.2h0.2c0.2,0,0.2,0.1,0.3,0.2c0.1,0.1,0.2,0.2,0.2,0.3v5.6
	c0,0.3,0,0.6-0.1,0.7c-0.1,0.2-0.2,0.3-0.4,0.4c-0.2,0.2-0.6,0.2-1.1,0.2l0,0c-0.2,0-0.2,0-0.3-0.1c-0.1-0.1-0.2-0.2-0.2-0.3
	c0-0.1-0.1-0.2-0.1-0.3v-0.1c0-0.1,0-0.1,0.1-0.2c0.1-0.1,0.2-0.2,0.2-0.2l0,0c0.2,0,0.4,0,0.6,0c0.1,0,0.2,0,0.2-0.1
	c0,0,0.1-0.1,0.1-0.2L106.1,19.9L106.1,19.9z"/>
<path class="st0" d="M116.7,23.4c0.3,0,0.6,0,0.7,0.1c0.1,0,0.2,0.1,0.2,0.2c0,0.1,0.1,0.1,0.1,0.2v0.1c-0.2,0.6-0.5,1-0.8,1.5v0.1
	c0.2,0.2,0.6,0.2,0.8,0.3c0.1,0,0.2,0.1,0.2,0.2v0.1c0,0.1,0,0.2-0.1,0.2c-0.1,0.1-0.1,0.1-0.2,0.2c-0.1,0.1-0.2,0.2-0.3,0.2
	c-0.1,0-0.2,0-0.2,0c-0.1,0-0.2,0-0.2,0c-0.3-0.2-0.6-0.3-0.9-0.5H116c-0.2,0.2-0.5,0.3-0.8,0.5c-0.1,0-0.2,0.1-0.2,0.1
	s-0.1,0-0.2,0c-0.2-0.1-0.2-0.2-0.3-0.2c-0.1-0.1-0.2-0.2-0.2-0.3l0,0l0,0v0.2c0,0.2-0.1,0.2-0.2,0.3c-0.1,0.1-0.2,0.2-0.3,0.2h-0.2
	c-0.2,0-0.2-0.1-0.3-0.2c-0.1-0.1-0.2-0.2-0.2-0.3v-0.1c0,0,0-0.1-0.1-0.1c-0.9,0.1-1.6,0.1-2,0.2c0,0,0,0-0.1,0s-0.2,0-0.3-0.1
	c-0.1-0.1-0.2-0.2-0.2-0.3V26c0-0.2,0-0.2,0.1-0.3c0.1-0.1,0.2-0.2,0.3-0.2c0.1,0,0.1,0,0.2,0c0,0,0.1,0,0.1-0.1v-2.2
	c0-0.1,0-0.1-0.1-0.1H111c-0.2,0-0.2-0.1-0.3-0.2c-0.1-0.1-0.2-0.2-0.2-0.3c0-0.2,0.1-0.2,0.2-0.3c0.1-0.1,0.2-0.2,0.3-0.2h6.3
	c0.2,0,0.2,0.1,0.3,0.2c0.1,0.1,0.2,0.2,0.2,0.3c0,0.2-0.1,0.2-0.2,0.3c-0.1,0.1-0.2,0.2-0.3,0.2h-3.2c0,0-0.1,0-0.1,0.1v2.7l0,0
	c0,0,0,0,0.1,0c0.3-0.1,0.6-0.2,0.9-0.5v-0.1c-0.2-0.2-0.2-0.4-0.4-0.6c0-0.1-0.1-0.1-0.1-0.2c0-0.1,0-0.1,0-0.2
	c0.1-0.1,0.2-0.2,0.2-0.2h0.1l0,0l0,0h0.1c-0.2,0-0.2-0.1-0.3-0.2c-0.1-0.1-0.2-0.2-0.2-0.3c0-0.2,0.1-0.2,0.2-0.3
	c0.1-0.1,0.2-0.2,0.3-0.2h1.7V23.4z M116.6,19.5c0.2,0,0.2,0.1,0.3,0.2c0.1,0.1,0.2,0.2,0.2,0.3v1.7c0,0.2-0.1,0.2-0.2,0.3
	c-0.1,0.1-0.2,0.2-0.3,0.2h-4.4c-0.2,0-0.2-0.1-0.3-0.2c-0.1-0.1-0.2-0.2-0.2-0.3v-1.7c0-0.2,0.1-0.2,0.2-0.3
	c0.1-0.1,0.2-0.2,0.3-0.2H116.6z M113.2,23.2L113.2,23.2l-0.8-0.1c-0.1,0-0.1,0-0.1,0.1v0.1c0,0.1,0,0.1,0.1,0.1h0.7
	C113.2,23.4,113.2,23.4,113.2,23.2L113.2,23.2z M112.5,24.1C112.4,24.1,112.4,24.1,112.5,24.1l-0.1,0.2c0,0.1,0,0.1,0.1,0.1h0.7
	c0.1,0,0.1,0,0.1-0.1v-0.1c0-0.1,0-0.1-0.1-0.1H112.5z M112.4,25.3C112.4,25.4,112.4,25.4,112.4,25.3h0.8c0.1,0,0.1,0,0.1-0.1v-0.1
	c0-0.1,0-0.1-0.1-0.1h-0.7c-0.1,0-0.1,0-0.1,0.1V25.3z M115.8,20.4C115.9,20.4,115.9,20.4,115.8,20.4l0.1-0.2c0-0.1,0-0.1-0.1-0.1
	h-3c-0.1,0-0.1,0-0.1,0.1v0.1c0,0,0,0.1,0.1,0.1H115.8z M115.8,21.3C115.9,21.3,115.9,21.3,115.8,21.3l0.1-0.2c0-0.1,0-0.1-0.1-0.1
	h-3c-0.1,0-0.1,0-0.1,0.1v0.1c0,0.1,0,0.1,0.1,0.1H115.8z M116.4,24.3C116.4,24.3,116.4,24.2,116.4,24.3
	C116.4,24.2,116.4,24.2,116.4,24.3l-0.7-0.1l0,0l0,0c0.1,0.2,0.2,0.3,0.3,0.5h0.1C116.2,24.6,116.3,24.5,116.4,24.3L116.4,24.3z"/>
<path class="st0" d="M123.5,20.8c0.3,0,0.6,0,0.7,0c0.1,0,0.2,0.1,0.2,0.2c0.1,0.1,0.1,0.2,0.1,0.2c0,1.1-0.2,2.1-0.6,3.2v0.1
	c0.2,0.2,0.4,0.3,0.5,0.5c0.1,0.1,0.2,0.2,0.2,0.4c0,0.2,0,0.2-0.1,0.3l-0.2,0.2c-0.1,0.1-0.2,0.2-0.2,0.2l0,0
	c-0.1,0-0.2-0.1-0.3-0.2c-0.1-0.1-0.2-0.2-0.3-0.3h-0.1c-0.3,0.4-0.6,0.8-1,1.1c-0.1,0.1-0.2,0.1-0.2,0.1h-0.1
	c-0.2,0-0.2-0.1-0.3-0.2c-0.1-0.1-0.1-0.2-0.2-0.2c-0.1-0.1-0.1-0.2-0.1-0.2v-0.1c0-0.1,0.1-0.2,0.2-0.3c0.3-0.2,0.6-0.6,0.8-0.9
	v-0.1l-0.2-0.2l0,0c0,0.1,0,0.1-0.1,0.1c-0.1,0-0.1,0-0.1,0l-0.4-0.2c-0.2-0.1-0.2-0.2-0.2-0.3c0-0.1-0.1-0.2-0.1-0.2
	c0-0.1,0-0.1,0-0.2c0.2-0.5,0.2-1.1,0.4-1.9c0-0.1,0-0.1-0.1-0.1l0,0c-0.2,0-0.2-0.1-0.3-0.2c-0.1-0.1-0.2-0.2-0.2-0.3v-0.2
	c0-0.2,0.1-0.2,0.2-0.3c0.1-0.1,0.2-0.2,0.3-0.2h0.2c0,0,0.1,0,0.1-0.1c0.1-0.3,0.1-0.6,0.2-1c0-0.2,0.1-0.2,0.2-0.3
	c0.1-0.1,0.2-0.1,0.3-0.1c0,0,0,0,0.1,0h0.2c0.2,0,0.2,0.1,0.3,0.2c0.1,0.1,0.1,0.2,0.1,0.2v0.1c-0.1,0.3-0.1,0.6-0.2,0.9
	c0,0,0,0.1,0.1,0.1h0.2V20.8z M123.3,21.9C123.3,21.9,123.3,21.8,123.3,21.9l-0.4-0.1c0,0-0.1,0-0.1,0.1c-0.1,0.3-0.2,0.9-0.3,1.5
	c0,0,0,0.1,0.1,0.1c0.1,0.1,0.2,0.2,0.3,0.2h0.1C123.2,23.2,123.2,22.6,123.3,21.9L123.3,21.9z M128.4,22.4c0.2,0,0.2,0.1,0.3,0.2
	c0.1,0.1,0.2,0.2,0.2,0.3V23c0,0.2-0.1,0.2-0.2,0.3c-0.1,0.1-0.2,0.2-0.3,0.2h-1.2c-0.1,0-0.1,0-0.1,0.1v2.1c0,0.3,0,0.5-0.1,0.6
	s-0.2,0.3-0.3,0.4c-0.2,0.1-0.6,0.2-0.9,0.2l0,0c-0.2,0-0.2,0-0.3-0.1c-0.1-0.1-0.2-0.2-0.2-0.3c0-0.1-0.1-0.2-0.1-0.2
	c0-0.1,0-0.1,0-0.1c0-0.1,0-0.1,0.1-0.2c0.1-0.1,0.2-0.2,0.2-0.2h0.5c0.1,0,0.1,0,0.2,0v-0.1v-2.1c0-0.1,0-0.1-0.1-0.1h-1.1
	c-0.2,0-0.2-0.1-0.3-0.2c-0.1-0.1-0.2-0.2-0.2-0.3V23c0-0.2,0.1-0.2,0.2-0.3c0.1-0.1,0.2-0.2,0.3-0.2h1.1c0.1,0,0.1,0,0.1-0.1V22
	c0-0.1,0-0.2,0.1-0.2c0.1-0.1,0.2-0.1,0.2-0.1h0.1c0.2-0.2,0.3-0.5,0.6-0.8l0,0l0,0h-1.7c-0.2,0-0.2-0.1-0.3-0.2
	c-0.1-0.1-0.2-0.2-0.2-0.3v-0.2c0-0.2,0.1-0.2,0.2-0.3c0.1-0.1,0.2-0.2,0.3-0.2h2.5c0,0,0,0,0.1,0s0.1,0,0.2,0c0.1,0,0.2,0,0.2,0.1
	l0.2,0.2c0.1,0.1,0.2,0.2,0.2,0.3v0.1c0,0.1,0,0.2-0.1,0.2c-0.4,0.6-0.8,1.1-1.2,1.5v0.1v0.2c0,0.1,0,0.1,0.1,0.1L128.4,22.4
	L128.4,22.4z"/>
<path class="st0" d="M12,26.7l0.6,3.2C13.5,30,14.2,30,15,30c0.8,0,1.6-0.1,2.4-0.2l0.6-3c-0.9-0.1-1.9-0.2-3-0.5
	C13.9,26.6,12.9,26.7,12,26.7L12,26.7z"/>
<path class="st0" d="M8.2,26.4C7.2,26.1,6.5,25.6,6,25c-0.5-0.6-0.6-1.4-0.5-2.1s0.6-1.2,1.2-1.5c0.6-0.3,1.4-0.4,2.3-0.2
	c0.8,0.2,1.6,0.3,2.5,0.3c-2.9-1.3-4-2.8-4-2.9l0,0c0,0,0,0,0-0.1l0,0c0,0,0,0,0-0.1l0,0c0,0,0,0,0-0.1l0,0l0,0c0,0,0,0,0-0.1l0,0
	v-0.1l0,0c0,0,0,0,0-0.1l0,0l0,0c0,0,0,0,0-0.1l0,0l0,0l0,0l0,0l0,0l0,0l0,0l0,0l0,0l0,0l0,0l0,0l0,0l0,0l0,0l0,0l0,0l0,0l0,0
	c0,0,0,0,0.1,0l0,0c0,0,0,0,0.1,0l0,0l0,0l0,0l0,0h0.1h0.1l0,0h0.1h2.7c1.1,0,2.1-0.9,2.1-2.1v-1.7c0-0.3-0.2-0.6-0.6-0.6
	c-0.3,0-0.6-0.2-0.6-0.4c0,0-1-2.1-2.1-3.2c-1-0.9-3.6-1.2-4.7,0l-4,4c-0.6,0.6-0.6,1.7,0,2.5C0.6,16.9,0.8,17,1,17.1
	c0.7,0.3,1.6,0,2.1-0.7l2.3-3.7c0.2-0.3,0.6-0.5,1-0.2C7,11.9,7,12.3,6.8,12.7l-2.3,3.7c-0.8,1.3-2.5,1.8-3.8,1.3
	c-0.2-0.1-0.3-0.2-0.4-0.2c0.9,5.9,5.3,10.5,10.9,12l-0.6-2.8C9.3,26.7,8.5,26.4,8.2,26.4L8.2,26.4z M9.1,11.4
	c0.6,0,1.1,0.5,1.1,1.1c0,0.6-0.5,1.1-1.1,1.1c-0.6,0-1-0.6-1-1.1C8.1,11.9,8.5,11.4,9.1,11.4z"/>
<path class="st0" d="M15.1,8.5L18,5.5c0.5-0.5,0.5-1.3,0-1.8c-0.5-0.5-1.3-0.5-1.8,0l-0.6,0.6c-0.3,0.3-0.7,0.3-1,0l-0.6-0.6
	c-0.2-0.2-0.6-0.4-0.9-0.4c-0.3,0-0.6,0.2-0.9,0.4c-0.5,0.5-0.5,1.3,0,1.8L15.1,8.5L15.1,8.5z"/>
<path class="st0" d="M10.4,8.5c1,1,1.9,2.6,2.3,3.3c0.9,0.2,1.5,1,1.5,2v1.7c0,1.9-1.6,3.5-3.5,3.5H9.8c0.1,0.1,0.2,0.1,0.2,0.2
	c0.9,0.6,2.5,1.5,5,2.1c0.8-0.2,1.7-0.4,2.5-0.7c1.2-0.5,2.1-1,2.8-1.6H20c-2.1,0-3.9-1.7-3.9-3.9v-1.4c0-0.9,0.6-1.6,1.4-1.8
	l1.2-2.2c0.4-0.7,1.1-1.1,1.9-1.1h0.9l1.6-2.2c0.2-0.2,0.3-0.2,0.6-0.2l0,0c0.2,0,0.4,0.1,0.6,0.2c0,0,1.8,2.1,3.9,3.9
	c0.6,0.6,1.2,1.2,1.7,1.8C28.4,5.1,22.3,0,15.1,0C7.8,0,1.9,5.1,0.4,11.8l3.2-3.2C5.4,6.8,8.9,7,10.4,8.5L10.4,8.5z M11.1,2.6
	c0.6-0.6,1.2-0.8,2-0.8c0.7,0,1.4,0.3,2,0.8l0.1,0.1l0.1-0.1c0.6-0.6,1.2-0.8,2-0.8c0.7,0,1.4,0.3,2,0.8c1.1,1.1,1.1,2.8,0,3.9
	L15.7,10c-0.2,0.2-0.3,0.2-0.5,0.2s-0.4-0.1-0.5-0.2l-3.5-3.5C10.1,5.5,10.1,3.7,11.1,2.6L11.1,2.6z"/>
<path class="st0" d="M22.6,24.9c0.6-0.2,0.9-0.6,0.9-0.9c0-0.2-0.1-0.3-0.2-0.4c-0.2-0.2-0.6-0.2-1,0.1c-0.2,0.2-1.7,1-3.6,1.7
	C20.3,25.6,21.7,25.3,22.6,24.9L22.6,24.9z"/>
<path class="st0" d="M27.2,11.3c-1.5-1.3-2.8-2.6-3.5-3.4l-1.3,1.5c-0.2,0.3-0.7,0.6-1.1,0.6h-0.9c-0.2,0-0.5,0.2-0.6,0.4l-1.3,2.5
	c-0.2,0.2-0.4,0.4-0.6,0.4c-0.2,0-0.4,0.2-0.4,0.4V15c0,1.3,1.1,2.5,2.5,2.5h2.2c0.4,0,0.7,0.3,0.7,0.7l0,0l0,0l0,0l0,0l0,0l0,0l0,0
	l0,0l0,0l0,0l0,0l0,0l0,0l0,0l0,0l0,0l0,0c-0.2,0.2-1.7,2.1-4.7,3.2c-0.9,0.3-1.7,0.6-2.7,0.8c-0.1,0.1-0.2,0.1-0.3,0.1l0,0
	c-2.1,0.4-4.3,0.4-6.3-0.1c-0.9-0.2-1.7,0-1.7,0.6c-0.2,0.6,0.4,1.4,1.6,1.7c1.3,0.3,3.5,0.5,6.4,0c0,0,0,0,0.1,0
	c0.2-0.1,0.6-0.1,0.8-0.2c3-0.6,5.8-2.4,5.9-2.4c0,0,0,0,0.1,0c0.9-0.5,1.9-0.5,2.5,0c0.6,0.4,0.9,1,0.8,1.7
	c-0.1,0.9-0.8,1.7-1.8,2.1c-0.9,0.4-2.2,0.6-3.6,0.6c0,0,0,0-0.1,0l-0.6,2.6c5.9-1.6,10.4-6.6,11-12.9C30,16.3,29.8,13.5,27.2,11.3
	L27.2,11.3z M21.1,13.5c-0.6,0-1.1-0.5-1.1-1.1c0-0.6,0.5-1.1,1.1-1.1c0.6,0,1.1,0.5,1.1,1.1C22.1,13.1,21.6,13.5,21.1,13.5z"/>
</svg>
