<?xml version="1.0" encoding="utf-8"?>
<!-- Generator: Adobe Illustrator 26.3.1, SVG Export Plug-In . SVG Version: 6.00 Build 0)  -->
<svg version="1.1" id="Layer_1" xmlns="http://www.w3.org/2000/svg" xmlns:xlink="http://www.w3.org/1999/xlink" x="0px" y="0px"
	 viewBox="0 0 128.9 30" style="enable-background:new 0 0 128.9 30;" xml:space="preserve">
<style type="text/css">
	.st0{fill:#FFFFFF;}
</style>
<g>
	<g>
		<g>
			<path class="st0" d="M35.6,5.7c0-0.8,0.2-1.4,0.5-1.7c0.4-0.4,0.9-0.5,1.6-0.5h3.5c0.8,0,1.5,0.1,2.1,0.2C44,3.8,44.5,4,45,4.3
				c0.5,0.3,0.8,0.7,1.1,1.3c0.3,0.5,0.4,1.2,0.4,2c0,0.8-0.1,1.4-0.4,2c-0.3,0.5-0.6,1-1.1,1.3c-0.5,0.3-1,0.5-1.6,0.7
				c-0.6,0.1-1.3,0.2-2.1,0.2h-1.9v1.9c0,0.6-0.2,1.1-0.5,1.5c-0.3,0.3-0.8,0.5-1.4,0.5c-0.6,0-1.1-0.2-1.4-0.5
				c-0.3-0.3-0.5-0.8-0.5-1.5V5.7z M41.5,8.8c0.3,0,0.6-0.1,0.9-0.3c0.3-0.2,0.4-0.5,0.4-0.9c0-0.4-0.1-0.7-0.4-0.9
				c-0.3-0.2-0.6-0.3-1.1-0.3h-1.9v2.5H41.5z"/>
			<path class="st0" d="M48.5,5.7c0-0.8,0.2-1.4,0.5-1.7c0.4-0.4,0.9-0.5,1.6-0.5h6.1c0.6,0,1,0.1,1.2,0.4c0.3,0.2,0.4,0.6,0.4,1
				c0,0.4-0.1,0.8-0.4,1c-0.3,0.2-0.7,0.4-1.2,0.4h-4.4v1.7h3.6c0.6,0,1,0.1,1.2,0.4c0.3,0.2,0.4,0.6,0.4,1c0,0.4-0.1,0.8-0.4,1
				c-0.3,0.2-0.7,0.4-1.2,0.4h-3.6v1.9H57c0.6,0,1,0.1,1.2,0.4c0.3,0.2,0.4,0.6,0.4,1c0,0.4-0.1,0.8-0.4,1c-0.3,0.2-0.7,0.4-1.2,0.4
				h-6.3c-0.7,0-1.3-0.2-1.6-0.5c-0.4-0.4-0.5-0.9-0.5-1.7V5.7z"/>
			<path class="st0" d="M61,6.5c-0.5,0-0.9-0.1-1.2-0.4c-0.3-0.3-0.4-0.7-0.4-1.1c0-0.5,0.1-0.9,0.4-1.1c0.3-0.3,0.7-0.4,1.3-0.4
				h8.2c0.6,0,1,0.1,1.3,0.4c0.3,0.3,0.4,0.7,0.4,1.1c0,0.5-0.1,0.9-0.4,1.1c-0.3,0.3-0.7,0.4-1.2,0.4h-2.3v7c0,0.6-0.2,1.1-0.5,1.5
				c-0.3,0.4-0.8,0.5-1.4,0.5c-0.6,0-1.1-0.2-1.4-0.5c-0.3-0.4-0.5-0.9-0.5-1.5v-7H61z"/>
			<path class="st0" d="M72.4,5c0-0.6,0.1-1,0.4-1.2c0.3-0.2,0.7-0.4,1.2-0.4h4.2c0.6,0,1.1,0.1,1.6,0.2c0.5,0.1,0.9,0.4,1.3,0.7
				c0.4,0.3,0.7,0.7,0.9,1.2c0.2,0.5,0.3,1,0.3,1.7c0,1.1-0.4,2-1.1,2.7c-0.7,0.7-1.8,1.1-3,1.1h-3v3.2c0,0.4-0.1,0.7-0.4,1
				c-0.2,0.2-0.6,0.4-1,0.4c-0.4,0-0.7-0.1-1-0.4c-0.2-0.2-0.4-0.6-0.4-1V5z M75.1,8.9h2.5c0.6,0,1-0.2,1.4-0.5
				c0.4-0.3,0.5-0.7,0.5-1.2c0-0.6-0.2-1-0.6-1.3c-0.4-0.3-0.9-0.4-1.6-0.4h-2.3V8.9z"/>
			<path class="st0" d="M84.1,4.6c0-0.4,0.1-0.7,0.4-1c0.2-0.2,0.6-0.4,1-0.4c0.4,0,0.8,0.1,1,0.4c0.2,0.2,0.4,0.6,0.4,1v6.5
				c0,0.8,0.2,1.4,0.6,1.8c0.4,0.4,1,0.6,1.8,0.6c0.8,0,1.4-0.2,1.8-0.6c0.4-0.4,0.6-1,0.6-1.8V4.6c0-0.4,0.1-0.7,0.4-1
				c0.2-0.2,0.6-0.4,1-0.4c0.4,0,0.8,0.1,1,0.4c0.2,0.2,0.4,0.6,0.4,1v6.3c0,1.6-0.5,2.8-1.4,3.6c-0.9,0.8-2.2,1.2-3.8,1.2
				c-1.6,0-2.9-0.4-3.8-1.2c-0.9-0.8-1.4-2-1.4-3.6V4.6z"/>
			<path class="st0" d="M97,4.6c0-0.4,0.1-0.7,0.4-1c0.2-0.2,0.6-0.4,1-0.4c0.4,0,0.8,0.1,1,0.4c0.2,0.2,0.4,0.6,0.4,1v8.5h4.6
				c0.4,0,0.7,0.1,1,0.3c0.3,0.2,0.4,0.5,0.4,0.8c0,0.4-0.1,0.6-0.4,0.8c-0.3,0.2-0.6,0.3-1,0.3h-5.7c-0.5,0-0.9-0.1-1.2-0.4
				c-0.3-0.2-0.4-0.7-0.4-1.2V4.6z"/>
			<path class="st0" d="M113.4,8.5c0.6,0.1,1.1,0.3,1.5,0.6c0.4,0.2,0.7,0.5,1,0.8c0.2,0.3,0.4,0.6,0.5,1c0.1,0.3,0.1,0.7,0.1,1.1
				c0,1.1-0.4,2-1.3,2.7c-0.8,0.7-2.1,1-3.7,1c-0.8,0-1.5-0.1-2.2-0.3c-0.6-0.2-1.2-0.4-1.6-0.7c-0.4-0.3-0.7-0.6-0.9-1
				c-0.2-0.3-0.3-0.7-0.3-1c0-0.3,0.1-0.6,0.3-0.8c0.2-0.2,0.5-0.3,0.8-0.3c0.3,0,0.5,0.1,0.7,0.2c0.2,0.1,0.4,0.3,0.6,0.6
				c0.2,0.2,0.3,0.4,0.4,0.5c0.1,0.1,0.3,0.3,0.5,0.4c0.2,0.1,0.4,0.2,0.7,0.3c0.3,0.1,0.6,0.1,1,0.1c0.7,0,1.2-0.2,1.6-0.5
				c0.4-0.3,0.6-0.7,0.6-1.1c0-0.3-0.1-0.5-0.3-0.7c-0.2-0.2-0.5-0.4-0.9-0.5l-3.1-0.8c-0.6-0.2-1.1-0.3-1.5-0.6
				c-0.4-0.2-0.7-0.5-0.9-0.8c-0.2-0.3-0.4-0.6-0.4-0.9c-0.1-0.3-0.1-0.6-0.1-1c0-0.6,0.1-1.2,0.4-1.7c0.3-0.5,0.6-0.8,1.1-1.1
				c0.5-0.3,1-0.5,1.5-0.6c0.6-0.1,1.1-0.2,1.7-0.2c0.5,0,1.1,0.1,1.6,0.2c0.6,0.1,1.1,0.3,1.5,0.6c0.5,0.3,0.8,0.6,1.1,0.9
				c0.3,0.3,0.4,0.7,0.4,1.1c0,0.3-0.1,0.6-0.4,0.8c-0.2,0.2-0.5,0.3-0.9,0.3c-0.2,0-0.4-0.1-0.6-0.2c-0.1-0.1-0.3-0.3-0.5-0.5
				c-0.3-0.4-0.7-0.6-1-0.8c-0.3-0.2-0.8-0.3-1.5-0.3c-0.6,0-1.1,0.1-1.4,0.4c-0.3,0.3-0.5,0.6-0.5,1c0,0.4,0.2,0.6,0.5,0.8
				c0.3,0.2,0.8,0.3,1.4,0.5L113.4,8.5z"/>
			<path class="st0" d="M118.6,5c0-0.6,0.1-1,0.4-1.2c0.3-0.2,0.7-0.4,1.2-0.4h6.4c0.4,0,0.8,0.1,1,0.2c0.2,0.2,0.4,0.4,0.4,0.9
				c0,0.4-0.1,0.7-0.4,0.8c-0.2,0.2-0.6,0.2-1,0.2h-5.3v2.6h4.6c0.4,0,0.7,0.1,0.9,0.2c0.2,0.1,0.3,0.4,0.3,0.8
				c0,0.4-0.1,0.7-0.3,0.8c-0.2,0.2-0.5,0.2-0.9,0.2h-4.6v2.9h5.4c0.4,0,0.8,0.1,1,0.2c0.2,0.2,0.4,0.4,0.4,0.9
				c0,0.4-0.1,0.7-0.4,0.8c-0.2,0.2-0.6,0.2-1,0.2h-6.5c-0.5,0-0.9-0.1-1.2-0.4c-0.3-0.2-0.4-0.7-0.4-1.2V5z"/>
		</g>
		<g>
			<path class="st0" d="M35.6,20c0-0.1,0-0.2,0.1-0.3c0.1-0.1,0.2-0.1,0.3-0.1h6.1c0.1,0,0.2,0,0.3,0.1c0.1,0.1,0.1,0.2,0.1,0.3v6.4
				c0,0.1,0,0.2-0.1,0.3c-0.1,0.1-0.2,0.1-0.3,0.1h-0.5c-0.1,0-0.1,0-0.2-0.1c-0.1-0.1-0.1-0.1-0.1-0.2c0,0,0,0,0,0h-4.6
				c0,0,0,0,0,0c0,0.1,0,0.1-0.1,0.2c-0.1,0.1-0.1,0.1-0.2,0.1h-0.4c-0.1,0-0.2,0-0.3-0.1c-0.1-0.1-0.1-0.2-0.1-0.3V20z M36.8,25.3
				C36.8,25.4,36.8,25.4,36.8,25.3l4.6,0.1c0,0,0.1,0,0.1-0.1v-4.7c0,0,0-0.1-0.1-0.1h-4.5c0,0-0.1,0-0.1,0.1V25.3z M41.2,22.2
				c0,0.1,0,0.2-0.1,0.3c-0.1,0.1-0.2,0.1-0.3,0.1h-1c0,0,0,0,0,0c0,0,0,0,0,0c0.2,0.7,0.6,1.2,1.1,1.4c0.1,0.1,0.2,0.1,0.2,0.2
				c0,0,0,0.1,0,0.1c0,0.1,0,0.1-0.1,0.2c-0.1,0.1-0.1,0.1-0.1,0.2c-0.1,0.1-0.2,0.2-0.3,0.2c0,0-0.1,0-0.1,0c-0.1,0-0.1,0-0.2-0.1
				c-0.4-0.3-0.8-0.7-1-1.2c0,0,0,0,0,0c0,0,0,0,0,0c-0.3,0.5-0.7,0.9-1.2,1.2c-0.1,0-0.1,0.1-0.2,0.1c0,0-0.1,0-0.1,0
				c-0.1,0-0.2-0.1-0.3-0.2c0-0.1-0.1-0.1-0.1-0.1c-0.1-0.1-0.1-0.1-0.1-0.2c0,0,0-0.1,0-0.1c0-0.1,0.1-0.2,0.2-0.2
				c0.3-0.2,0.6-0.4,0.7-0.6c0.2-0.2,0.3-0.5,0.4-0.9c0,0,0-0.1,0-0.1h-0.8c-0.1,0-0.2,0-0.3-0.1c-0.1-0.1-0.1-0.2-0.1-0.3v-0.1
				c0-0.1,0-0.2,0.1-0.3c0.1-0.1,0.2-0.1,0.3-0.1h1c0,0,0.1,0,0.1-0.1c0-0.1,0-0.3,0-0.4c0-0.1,0-0.2,0.1-0.3
				c0.1-0.1,0.2-0.1,0.3-0.1h0.2c0.1,0,0.2,0,0.3,0.1c0.1,0.1,0.1,0.2,0.1,0.3c0,0.1,0,0.2,0,0.4c0,0,0,0.1,0.1,0.1h1.1
				c0.1,0,0.2,0,0.3,0.1c0.1,0.1,0.1,0.2,0.1,0.3V22.2z"/>
			<path class="st0" d="M52.5,23.5C52.5,23.5,52.5,23.5,52.5,23.5l0.4,0.1c0.1,0,0.2,0,0.3,0.1c0.1,0.1,0.1,0.2,0.1,0.3
				c0,0.5-0.1,1-0.2,1.7c-0.1,0.4-0.2,0.6-0.3,0.8c-0.2,0.2-0.4,0.3-0.7,0.3c-0.1,0-0.3,0-0.5,0h0c-0.1,0-0.2,0-0.3-0.1
				c-0.1-0.1-0.2-0.2-0.2-0.3c0-0.2-0.1-0.3-0.2-0.5c0,0,0,0,0,0c0,0-0.1,0-0.1,0c0,0-0.1,0-0.1-0.1c0-0.2-0.1-0.4-0.2-0.6
				c0-0.1,0-0.1,0-0.2c0,0,0-0.1,0-0.2c0-0.1,0.1-0.2,0.2-0.2c0.1,0,0.1,0,0.2,0c0.1,0,0.1,0,0.2,0c0.1,0,0.2,0.1,0.3,0.2
				c0,0.1,0.1,0.2,0.1,0.3c0,0.1,0,0.1,0,0.2c0,0.1,0,0.1,0,0.2c-0.1,0.1-0.1,0.2-0.3,0.2l0,0c0,0,0,0,0,0c0,0,0,0,0,0
				c0.1,0,0.3,0,0.4,0c0.1,0,0.2,0,0.3-0.1c0.1-0.1,0.2-0.5,0.3-1.1c0,0,0-0.1,0-0.1h-4.7c0,0-0.1,0-0.1,0c-0.1,0-0.1,0.1-0.2,0.1
				c0,0,0,0,0,0c0,0,0,0,0,0l0.3,0.1c0.1,0,0.2,0.1,0.3,0.2c0,0.1,0.1,0.1,0.1,0.2c0,0,0,0.1,0,0.1c-0.1,0.4-0.3,0.8-0.5,1.1
				c-0.1,0.1-0.2,0.2-0.3,0.2c0,0-0.1,0-0.1,0c-0.1,0-0.2,0-0.3-0.1l-0.1-0.1c-0.1-0.1-0.2-0.2-0.2-0.3c0,0,0,0,0,0
				c0-0.1,0-0.2,0.1-0.3c0.2-0.3,0.4-0.6,0.5-1c0,0,0,0,0,0c0,0,0,0,0,0c-0.1,0-0.1,0-0.2,0c0,0-0.1,0-0.1,0c-0.1,0-0.2-0.1-0.2-0.2
				c-0.1-0.1-0.1-0.2-0.2-0.3c0-0.1-0.1-0.1-0.1-0.2c0,0,0-0.1,0-0.1c0-0.1,0.1-0.2,0.2-0.3c1-0.5,1.8-1.2,2.5-2.2c0,0,0,0,0,0
				c0,0,0,0,0,0h-1.9c-0.1,0-0.2,0-0.3-0.1c-0.1-0.1-0.1-0.2-0.1-0.3V21c0-0.1,0-0.2,0.1-0.3c0.1-0.1,0.2-0.1,0.3-0.1h0.7
				c0,0,0,0,0,0c0,0,0,0,0,0c-0.1-0.2-0.1-0.3-0.2-0.5c0-0.1,0-0.1,0-0.2c0,0,0-0.1,0-0.1c0-0.1,0.1-0.2,0.2-0.2l0.1-0.1
				c0.1,0,0.1,0,0.2,0c0.1,0,0.1,0,0.2,0c0.1,0,0.2,0.1,0.3,0.2c0.1,0.2,0.1,0.3,0.2,0.4c0,0.1,0,0.1,0,0.1s0,0.1,0,0.1
				c0,0.1-0.1,0.2-0.2,0.2c0,0,0,0,0,0h0.9c0,0,0.1,0,0.1-0.1c0.1-0.3,0.3-0.6,0.4-0.9c0-0.1,0.1-0.2,0.2-0.3c0.1,0,0.1-0.1,0.2-0.1
				c0,0,0.1,0,0.1,0l0.3,0.1c0.1,0,0.2,0.1,0.3,0.2c0,0.1,0,0.1,0,0.2c0,0,0,0.1,0,0.1c-0.1,0.2-0.2,0.4-0.2,0.6c0,0,0,0,0,0
				c0,0,0,0,0,0h1c0.1,0,0.2,0,0.3,0.1c0.1,0.1,0.1,0.2,0.1,0.2c0,0,0,0.1,0,0.1c-0.1,0.4-0.2,0.7-0.2,1c0,0,0,0.1,0,0.1h0.4
				c0.1,0,0.2,0,0.3,0.1c0.1,0.1,0.1,0.1,0.1,0.2c0,0,0,0.1,0,0.1C52.7,22.8,52.6,23.2,52.5,23.5z M48.1,25.5
				C48.1,25.5,48.1,25.5,48.1,25.5c0-0.2,0-0.3,0.1-0.3c0.1-0.1,0.2-0.2,0.3-0.2h0c0,0,0,0,0.1,0c0.1,0,0.2,0,0.3,0.1
				c0.1,0.1,0.2,0.2,0.2,0.3c0,0.2,0.1,0.4,0.1,0.6c0,0,0,0,0,0c0,0.1,0,0.2-0.1,0.3c-0.1,0.1-0.2,0.2-0.3,0.2l-0.1,0c0,0,0,0-0.1,0
				c-0.1,0-0.2,0-0.3-0.1c-0.1-0.1-0.1-0.2-0.1-0.3C48.1,25.9,48.1,25.7,48.1,25.5z M51.6,23.1C51.6,23.1,51.6,23,51.6,23.1L49.1,23
				c0,0-0.1,0-0.1,0c-0.1,0.1-0.3,0.3-0.4,0.4c0,0,0,0,0,0c0,0,0,0,0,0h2.7c0,0,0.1,0,0.1-0.1C51.5,23.4,51.5,23.2,51.6,23.1z
				 M49.4,25.4c0,0,0-0.1,0-0.1c0-0.1,0-0.1,0.1-0.2c0.1-0.1,0.1-0.2,0.3-0.2c0,0,0.1,0,0.1,0c0.1,0,0.2,0,0.2,0.1
				c0.1,0.1,0.2,0.2,0.2,0.3c0,0.1,0.1,0.3,0.1,0.4c0,0,0,0.1,0,0.1c0,0.1,0,0.2-0.1,0.2c-0.1,0.1-0.2,0.2-0.3,0.2l0,0
				c0,0-0.1,0-0.1,0c-0.1,0-0.2,0-0.2-0.1c-0.1-0.1-0.2-0.2-0.2-0.3C49.4,25.8,49.4,25.6,49.4,25.4z M51,21.6
				C51,21.6,50.9,21.6,51,21.6l-0.7-0.1c0,0-0.1,0-0.1,0c-0.1,0.2-0.2,0.3-0.2,0.4c0,0,0,0,0,0c0,0,0,0,0,0h0.9c0,0,0.1,0,0.1-0.1
				C50.9,21.9,50.9,21.8,51,21.6z"/>
			<path class="st0" d="M61.6,23.9c0.3,0,0.6,0.1,0.8,0.2c0.1,0.1,0.2,0.2,0.2,0.3c0,0,0,0.1,0,0.1c0,0.1,0,0.2-0.1,0.2
				c-0.2,0.3-0.5,0.6-0.8,0.8c0,0,0,0,0,0c0,0,0,0,0,0c0.6,0.1,1.2,0.2,2,0.2c0.1,0,0.2,0.1,0.2,0.1c0,0,0,0.1,0,0.1
				c0,0,0,0.1,0,0.1c-0.1,0.1-0.1,0.2-0.2,0.3c-0.1,0.1-0.2,0.2-0.3,0.3c-0.1,0.1-0.2,0.1-0.3,0.1c0,0,0,0-0.1,0
				c-1-0.1-1.9-0.3-2.6-0.6c0,0-0.1,0-0.1,0c-0.7,0.3-1.6,0.5-2.5,0.6c0,0-0.1,0-0.1,0c-0.1,0-0.2,0-0.3-0.1
				c-0.1-0.1-0.2-0.2-0.3-0.3c0-0.1-0.1-0.1-0.1-0.2c0,0,0-0.1,0-0.1c0,0,0-0.1,0-0.1c0-0.1,0.1-0.1,0.2-0.1
				c0.7-0.1,1.4-0.2,1.9-0.3c0,0,0,0,0,0c0,0,0,0,0,0c-0.2-0.1-0.3-0.2-0.4-0.4c0,0-0.1,0-0.1,0c-0.1,0.1-0.3,0.1-0.4,0.2
				c-0.1,0-0.2,0.1-0.3,0.1c0,0-0.1,0-0.1,0c-0.1,0-0.2-0.1-0.3-0.2c0,0-0.1-0.1-0.1-0.1c-0.1-0.1-0.1-0.1-0.1-0.2c0,0,0,0,0-0.1
				c0-0.1,0.1-0.2,0.2-0.2c0.8-0.3,1.4-0.6,1.9-1c0,0,0,0,0-0.1c-0.2-0.1-0.4-0.3-0.4-0.6c0,0,0,0,0,0c0,0,0,0,0,0
				c-0.2,0.3-0.4,0.5-0.6,0.7c-0.1,0.1-0.2,0.1-0.3,0.1c0,0,0,0,0,0c-0.1,0-0.3,0-0.4-0.1l-0.1-0.1c-0.1-0.1-0.1-0.2-0.1-0.3
				c0-0.1,0-0.2,0.1-0.3c0.1-0.1,0.3-0.3,0.4-0.4c0,0,0,0,0,0c0,0,0,0,0,0h-0.5c-0.1,0-0.2,0-0.3-0.1c-0.1-0.1-0.1-0.2-0.1-0.3v-0.6
				c0-0.1,0-0.2,0.1-0.3c0.1-0.1,0.2-0.1,0.3-0.1h0.8c0,0,0,0,0,0c0,0,0,0,0,0c-0.1-0.2-0.2-0.4-0.3-0.5c0,0-0.1,0-0.1,0h-0.1h0
				c-0.1,0-0.2,0-0.3-0.1c-0.1-0.1-0.2-0.2-0.2-0.3c0,0,0-0.1,0-0.1c0-0.1,0-0.1,0.1-0.2c0.1-0.1,0.1-0.1,0.3-0.1
				c2,0,3.6-0.2,4.8-0.4c0.1,0,0.1,0,0.2,0c0.2,0,0.4,0.1,0.6,0.3l0.1,0.1c0.1,0.1,0.1,0.1,0.1,0.2c0,0,0,0,0,0.1
				c0,0.1-0.1,0.1-0.2,0.2c-0.1,0-0.3,0.1-0.4,0.1c0,0,0,0,0,0c0,0,0,0,0,0l0.2,0.1c0.1,0,0.2,0.1,0.2,0.2c0,0,0,0.1,0,0.1
				c0,0.1,0,0.1-0.1,0.2c-0.1,0.1-0.2,0.2-0.2,0.3c0,0,0,0,0,0c0,0,0,0,0,0h0.7c0.1,0,0.2,0,0.3,0.1c0.1,0.1,0.1,0.2,0.1,0.3v0.7
				c0,0.1,0,0.2-0.1,0.3c-0.1,0.1-0.2,0.1-0.3,0.1h-0.2c0,0,0,0,0,0c0,0,0,0,0,0c0,0,0.1,0.1,0.1,0.1c0.1,0.1,0.1,0.2,0.1,0.3
				c0,0,0,0,0,0.1c0,0.1-0.1,0.2-0.2,0.3l-0.1,0.1c-0.1,0.1-0.2,0.1-0.3,0.1c0,0-0.1,0-0.1,0c-0.1,0-0.2-0.1-0.3-0.2
				c-0.1-0.2-0.3-0.3-0.4-0.5c0,0,0,0,0,0c0,0,0,0,0,0c-0.1,0.2-0.2,0.4-0.3,0.5c-0.1,0.1-0.4,0.1-0.7,0.1h-0.4c0,0-0.1,0-0.1,0
				c0,0.1-0.1,0.1-0.2,0.2c0,0,0,0,0,0c0,0,0,0,0,0H61.6z M58.9,22.5c0-0.1,0-0.1,0.1-0.2c0,0,0.1-0.1,0.2-0.1h0.7c0,0,0,0,0,0
				c0,0,0,0,0,0c0,0,0,0-0.1,0c0,0-0.1,0-0.1-0.1c0,0,0-0.1,0-0.1c0,0,0,0,0,0c0,0,0,0,0,0h-1.7c0,0-0.1,0-0.1,0.1v0.5c0,0,0,0,0,0
				c0,0,0,0,0,0c0-0.1,0.1-0.1,0.2-0.1c0.1,0,0.2,0,0.2,0L58.9,22.5C58.9,22.5,58.9,22.5,58.9,22.5z M59.1,21
				C59.1,21,59.1,21,59.1,21l0.8,0c0,0,0,0,0,0c0,0,0,0,0,0c-0.1-0.2-0.2-0.4-0.3-0.6c0,0,0-0.1-0.1,0c-0.1,0-0.3,0-0.5,0
				c0,0,0,0,0,0c0,0,0,0,0,0c0.1,0.1,0.1,0.2,0.2,0.3c0,0.1,0,0.1,0,0.2C59.2,21,59.2,21,59.1,21z M61.1,24.8
				C61.1,24.7,61.1,24.7,61.1,24.8C61.1,24.7,61.1,24.7,61.1,24.8l-1.4,0c0,0,0,0,0,0c0,0,0,0,0,0c0.2,0.1,0.4,0.3,0.7,0.4
				c0,0,0.1,0,0.1,0C60.7,25,60.9,24.9,61.1,24.8z M62.7,22.3C62.7,22.3,62.7,22.3,62.7,22.3C62.7,22.3,62.7,22.3,62.7,22.3l0-0.3
				c0,0,0-0.1-0.1-0.1H61c0,0,0,0,0,0c0,0,0,0,0,0c0.1,0,0.1,0.1,0.1,0.2c0,0.1,0,0.2-0.1,0.2L61,22.5c-0.1,0.1-0.2,0.1-0.3,0.1
				c0,0,0,0,0,0c-0.1,0-0.2,0-0.3-0.1c-0.1-0.1-0.2-0.1-0.4-0.2c0,0,0,0,0,0c0,0,0,0,0,0v0.3c0,0.1,0,0.2,0.1,0.2c0,0,0.1,0,0.2,0
				h0.7c0.1,0,0.2,0,0.2-0.1c0.1-0.1,0.1-0.1,0.2-0.1c0,0,0,0,0.1,0c0.1,0.1,0.3,0.1,0.4,0.1c0,0,0,0,0,0c0,0,0,0,0,0
				c-0.1-0.1-0.1-0.1-0.1-0.2c0-0.1,0-0.2,0.1-0.2l0.1-0.1c0.1-0.1,0.2-0.1,0.4-0.1h0C62.5,22.2,62.6,22.2,62.7,22.3z M60.7,21
				C60.7,21,60.7,21,60.7,21l0.8,0c0,0,0.1,0,0.1,0c0.1-0.2,0.3-0.5,0.4-0.8c0,0,0,0,0,0c0,0,0,0,0,0c-0.3,0-0.7,0.1-1.1,0.1
				c0,0,0,0,0,0c0,0,0,0,0,0c0,0.1,0.1,0.1,0.1,0.2c0,0,0,0.1,0,0.1s0,0.1,0,0.1C60.9,20.9,60.8,21,60.7,21z"/>
			<path class="st0" d="M70.9,23.5c0,0.1,0,0.2-0.1,0.3c-0.1,0.1-0.2,0.1-0.3,0.1h-1.6c0,0-0.1,0-0.1,0.1c-0.1,1-0.2,1.8-0.5,2.4
				c0,0.1-0.1,0.2-0.3,0.2c0,0-0.1,0-0.1,0c-0.1,0-0.2,0-0.2-0.1c-0.1,0-0.1-0.1-0.2-0.1c-0.1-0.1-0.2-0.2-0.2-0.3
				c0-0.1,0-0.1,0-0.2c0-0.1,0-0.1,0-0.2c0.2-0.6,0.4-1.5,0.4-2.7v-1.5c0-0.1,0-0.2,0.1-0.3c0.1-0.1,0.2-0.1,0.3-0.1h2.3
				c0.1,0,0.2,0,0.3,0.1c0.1,0.1,0.1,0.2,0.1,0.3V23.5z M70.6,19.5c0.1,0,0.2,0,0.3,0.1C71,19.8,71,19.9,71,20v0.1
				c0,0.1,0,0.2-0.1,0.3c-0.1,0.1-0.2,0.1-0.3,0.1h-2.7c-0.1,0-0.2,0-0.3-0.1c-0.1-0.1-0.1-0.2-0.1-0.3V20c0-0.1,0-0.2,0.1-0.3
				c0.1-0.1,0.2-0.1,0.3-0.1H70.6z M69.8,22.2C69.8,22.1,69.7,22.1,69.8,22.2l-1-0.1c0,0-0.1,0-0.1,0.1v0.7c0,0,0,0.1,0.1,0.1h0.9
				c0,0,0.1,0,0.1-0.1V22.2z M72.5,21C72.4,21,72.4,21,72.5,21l-0.1,0.9c0,0,0,0.1,0.1,0.1h1.9c0.1,0,0.2,0,0.3,0.1
				c0.1,0.1,0.1,0.2,0.1,0.3v0.2c0,0.1,0,0.2-0.1,0.3C74.6,23,74.5,23,74.4,23h-0.1c0,0-0.1,0-0.1,0.1v3.3c0,0.1,0,0.2-0.1,0.3
				c-0.1,0.1-0.2,0.1-0.3,0.1h-0.2c-0.1,0-0.2,0-0.3-0.1c-0.1-0.1-0.1-0.2-0.1-0.3v-3.3c0,0,0-0.1-0.1-0.1h-0.6c0,0-0.1,0-0.1,0.1
				c-0.1,1.4-0.5,2.6-1.2,3.4c-0.1,0.1-0.2,0.1-0.3,0.1c0,0,0,0,0,0c-0.1,0-0.2-0.1-0.3-0.1c-0.1-0.1-0.1-0.1-0.2-0.2
				c-0.1-0.1-0.1-0.2-0.2-0.3c0,0,0,0,0-0.1c0-0.1,0-0.2,0.1-0.3c0.2-0.3,0.4-0.5,0.5-0.8c0.1-0.3,0.2-0.6,0.3-1
				c0.1-0.3,0.1-0.6,0.1-0.9c0-0.3,0-0.6,0-0.9v-1.8c0-0.1,0-0.2,0.1-0.3c0.1-0.1,0.1-0.1,0.2-0.1c0,0,0.1,0,0.1,0L72,20
				c0,0,0.1,0,0.1,0c0.5-0.2,1-0.3,1.4-0.5c0.1-0.1,0.2-0.1,0.3-0.1c0,0,0,0,0.1,0c0.1,0,0.3,0.1,0.4,0.1l0.3,0.3
				c0.1,0.1,0.1,0.1,0.1,0.2c0,0,0,0,0,0c0,0.1-0.1,0.2-0.2,0.2C73.9,20.6,73.2,20.8,72.5,21z"/>
			<path class="st0" d="M80.6,23.6c0,0,0.1,0,0.1,0c0.1,0,0.1,0,0.2,0c0.1,0.1,0.2,0.1,0.2,0.3l0.1,0.2c0,0,0,0.1,0,0.1
				c0,0.1,0,0.2-0.1,0.2c-0.1,0.1-0.1,0.2-0.3,0.3c-0.6,0.3-1.4,0.6-2.3,1c-0.1,0-0.1,0-0.2,0c-0.1,0-0.1,0-0.2,0
				c-0.1-0.1-0.2-0.1-0.2-0.3l-0.1-0.4c0,0,0-0.1,0-0.1c0-0.1,0-0.1,0-0.2c0.1-0.1,0.1-0.2,0.3-0.2c0.2-0.1,0.4-0.1,0.6-0.2
				c0,0,0.1,0,0-0.1l-0.2-4.1c0-0.1,0-0.2,0.1-0.3c0.1-0.1,0.2-0.1,0.3-0.1l0.3,0c0,0,0,0,0,0c0.1,0,0.2,0,0.3,0.1
				c0.1,0.1,0.1,0.2,0.1,0.3l0.1,3.6c0,0,0,0,0,0c0,0,0,0,0,0C80.3,23.7,80.4,23.7,80.6,23.6z M85.3,25.5c0.1,0.1,0.1,0.2,0.1,0.3
				c0,0,0,0,0,0.1c0,0.1-0.1,0.2-0.2,0.3l-0.3,0.3c-0.1,0.1-0.2,0.1-0.3,0.1c0,0,0,0-0.1,0c-0.1,0-0.2-0.1-0.3-0.2
				c-0.2-0.4-0.6-0.8-1.1-1.4c0,0-0.1,0-0.1,0c-0.5,0.6-1.1,1.2-1.8,1.6c-0.1,0-0.2,0.1-0.2,0.1c0,0-0.1,0-0.1,0
				c-0.1,0-0.2-0.1-0.3-0.2c-0.1-0.1-0.2-0.2-0.3-0.4c-0.1-0.1-0.1-0.1-0.1-0.2c0,0,0,0,0-0.1c0-0.1,0.1-0.2,0.2-0.2
				c0.5-0.2,0.9-0.5,1.3-0.9c0.4-0.3,0.7-0.7,0.9-1.2c0.2-0.5,0.4-1,0.6-1.5c0.1-0.5,0.2-1.2,0.3-1.9c0-0.1,0.1-0.2,0.2-0.3
				c0.1-0.1,0.2-0.1,0.3-0.1c0,0,0,0,0,0l0.4,0c0.1,0,0.2,0.1,0.3,0.2c0.1,0.1,0.1,0.2,0.1,0.3c0,0,0,0,0,0.1
				c-0.2,1.4-0.5,2.6-0.9,3.6c0,0,0,0.1,0,0.1C84.6,24.6,85.1,25.1,85.3,25.5z M82.5,21.6c0,0.1,0.1,0.1,0.1,0.2c0,0,0,0.1,0,0.1
				c0,0.1-0.1,0.2-0.2,0.3L82,22.5c-0.1,0-0.1,0-0.2,0c0,0-0.1,0-0.1,0c-0.1,0-0.2-0.1-0.3-0.2c-0.2-0.4-0.4-0.8-0.7-1.2
				c0-0.1-0.1-0.1-0.1-0.2c0,0,0-0.1,0-0.1c0-0.1,0.1-0.2,0.2-0.3l0.3-0.1c0.1,0,0.2-0.1,0.3-0.1c0,0,0.1,0,0.1,0
				c0.1,0,0.2,0.1,0.3,0.2C82.1,20.8,82.3,21.2,82.5,21.6z"/>
			<path class="st0" d="M89.7,19.6c0-0.1,0.1-0.2,0.2-0.3c0.1,0,0.1-0.1,0.2-0.1c0,0,0.1,0,0.1,0l0.2,0.1c0.1,0,0.2,0.1,0.3,0.2
				c0,0.1,0,0.1,0,0.2c0,0.1,0,0.1,0,0.1c-0.1,0.4-0.3,0.8-0.5,1.2c0,0,0,0.1,0,0.1v5.2c0,0.1,0,0.2-0.1,0.3
				c-0.1,0.1-0.2,0.1-0.3,0.1h-0.1c-0.1,0-0.2,0-0.3-0.1c-0.1-0.1-0.1-0.2-0.1-0.3v-3.2c0,0,0,0,0,0c0,0,0,0,0,0c0,0,0,0,0,0
				c0,0.1-0.1,0.1-0.2,0.1c0,0,0,0,0,0c-0.1,0-0.2-0.1-0.2-0.2c-0.1-0.2-0.1-0.3-0.2-0.4c0-0.1-0.1-0.2-0.1-0.3c0,0,0-0.1,0-0.1
				c0-0.1,0.1-0.3,0.1-0.4C89.1,21.2,89.4,20.5,89.7,19.6z M96.1,21.3c0,0.1,0,0.2-0.1,0.2c-0.1,0.1-0.1,0.1-0.2,0.1c0,0,0,0,0,0
				c-0.1,1.3-0.3,2.3-0.6,3c0,0,0,0.1,0,0.1c0.2,0.3,0.4,0.6,0.6,0.8c0.1,0.1,0.1,0.2,0.2,0.3c0,0,0,0,0,0.1c0,0.1,0,0.2-0.1,0.3
				c0,0.1-0.1,0.1-0.1,0.2c-0.1,0.1-0.2,0.2-0.3,0.2c0,0,0,0-0.1,0c-0.1,0-0.2,0-0.2-0.1c-0.2-0.2-0.4-0.4-0.6-0.7c0,0,0,0,0,0
				c0,0,0,0,0,0c-0.2,0.3-0.4,0.5-0.7,0.7c-0.1,0.1-0.2,0.1-0.3,0.1c0,0,0,0-0.1,0c-0.1,0-0.2-0.1-0.3-0.2c-0.1-0.1-0.2-0.3-0.3-0.3
				c0,0,0,0,0-0.1c0,0,0,0,0-0.1v0h-1.1c0,0-0.1,0-0.1,0.1v0.1c0,0.1,0,0.2-0.1,0.3c-0.1,0.1-0.2,0.1-0.3,0.1h-0.1
				c-0.1,0-0.2,0-0.3-0.1c-0.1-0.1-0.1-0.2-0.1-0.3v-2.8c0-0.1,0-0.2,0.1-0.3c0.1-0.1,0.2-0.1,0.3-0.1h0.2c0,0,0.1,0,0.1-0.1v-1.1
				c0,0,0-0.1-0.1-0.1H91c-0.1,0-0.2,0-0.3-0.1c-0.1-0.1-0.1-0.2-0.1-0.3V21c0-0.1,0-0.2,0.1-0.3c0.1-0.1,0.2-0.1,0.3-0.1h0.3
				c0,0,0.1,0,0.1-0.1v-0.8c0-0.1,0-0.2,0.1-0.3c0.1-0.1,0.2-0.1,0.3-0.1H92c0.1,0,0.2,0,0.3,0.1c0.1,0.1,0.1,0.2,0.1,0.3v0.8
				c0,0,0,0.1,0.1,0.1h0.2c0.1,0,0.2,0,0.3,0.1c0.1,0.1,0.1,0.2,0.1,0.3v0.1c0,0.1,0,0.2-0.1,0.3c-0.1,0.1-0.2,0.1-0.3,0.1h-0.2
				c0,0-0.1,0-0.1,0.1v1.1c0,0,0,0.1,0.1,0.1h0.4c0,0,0,0,0,0c-0.1-0.1-0.1-0.2-0.1-0.3c0-0.1,0-0.2,0.1-0.2
				c0.4-0.6,0.6-1.5,0.8-2.7c0-0.1,0.1-0.2,0.2-0.3c0.1-0.1,0.2-0.1,0.3-0.1c0,0,0.1,0,0.1,0l0.1,0c0.1,0,0.2,0.1,0.3,0.2
				c0.1,0.1,0.1,0.2,0.1,0.3c0,0,0,0.1,0,0.1c0,0.2-0.1,0.5-0.1,0.7c0,0,0,0.1,0,0.1h1c0.1,0,0.2,0,0.3,0.1c0.1,0.1,0.1,0.2,0.1,0.3
				V21.3z M92.1,25C92.2,25,92.2,24.9,92.1,25l0.1-1.1c0,0,0-0.1-0.1-0.1h-0.4c0,0-0.1,0-0.1,0.1v1c0,0,0,0.1,0.1,0.1H92.1z
				 M93.2,23.3C93.2,23.3,93.2,23.3,93.2,23.3l0,2.4c0,0,0,0,0,0c0,0,0,0,0,0c0.3-0.2,0.5-0.5,0.7-0.9c0,0,0-0.1,0-0.1
				c-0.2-0.4-0.3-0.9-0.4-1.3c0,0,0,0,0,0c0,0,0,0,0,0v0c0,0.1-0.1,0.1-0.2,0.1C93.3,23.4,93.3,23.3,93.2,23.3z M94.8,21.7
				C94.8,21.6,94.8,21.6,94.8,21.7l-0.4-0.1c0,0-0.1,0-0.1,0.1c0,0.1,0,0.1-0.1,0.2c0,0,0,0.1,0,0.1c0.1,0.5,0.1,0.9,0.3,1.3
				c0,0,0,0,0,0c0,0,0,0,0,0C94.6,22.8,94.7,22.3,94.8,21.7z"/>
			<path class="st0" d="M101.8,25.2C101.8,25.2,101.9,25.2,101.8,25.2l1-0.1c0,0,0,0,0.1,0c0.1,0,0.2,0,0.3,0.1
				c0.1,0.1,0.1,0.2,0.1,0.3v0.2c0,0.1,0,0.2-0.1,0.4c-0.1,0.1-0.2,0.2-0.3,0.2c-0.6,0.1-1.7,0.2-3.1,0.4c0,0,0,0-0.1,0
				c-0.1,0-0.2,0-0.3-0.1c-0.1-0.1-0.2-0.2-0.2-0.3l0-0.2c0,0,0,0,0-0.1c0-0.1,0-0.2,0.1-0.3c0.1-0.1,0.2-0.1,0.3-0.2
				c0,0,0.4,0,1-0.1c0,0,0.1,0,0.1-0.1v-0.7c0,0,0-0.1-0.1-0.1h-0.7c-0.1,0-0.2,0-0.3-0.1c-0.1-0.1-0.1-0.2-0.1-0.3V24
				c0-0.1,0-0.2,0.1-0.3c0.1-0.1,0.2-0.1,0.3-0.1h0.7c0,0,0.1,0,0.1-0.1v-0.2c0-0.1,0-0.2,0.1-0.3c0.1-0.1,0.2-0.1,0.3-0.1h0.2
				c0.1,0,0.2,0,0.3,0.1c0.1,0.1,0.1,0.2,0.1,0.3v0.2c0,0,0,0.1,0.1,0.1h0.7c0.1,0,0.2,0,0.3,0.1c0.1,0.1,0.1,0.2,0.1,0.3v0.1
				c0,0.1,0,0.2-0.1,0.3c-0.1,0.1-0.2,0.1-0.3,0.1h-0.7c0,0-0.1,0-0.1,0.1V25.2z M104.7,24.3c0,0.1,0,0.2-0.1,0.3
				c-0.1,0.1-0.2,0.1-0.3,0.1H104c-0.1,0-0.2,0-0.3-0.1c-0.1-0.1-0.1-0.2-0.1-0.3v-1.8c0,0,0,0,0,0c0,0,0,0,0,0l-0.6,0.3
				c0,0-0.1,0-0.1,0c0,0-0.1,0-0.1,0c-0.1,0-0.1-0.1-0.2-0.2c0,0,0,0-0.1,0c-0.7,0-1.6,0.1-2.8,0.1c0,0,0,0,0,0
				c-0.1,0-0.2,0-0.3-0.1c-0.1-0.1-0.1-0.2-0.2-0.3l0-0.1c0-0.1,0-0.2,0.1-0.3c0.1-0.1,0.2-0.1,0.3-0.1h0.1c0,0,0.1,0,0.1-0.1
				c0.1-0.3,0.2-0.6,0.2-0.9c0,0,0-0.1,0-0.1h-0.4c-0.1,0-0.2,0-0.3-0.1c-0.1-0.1-0.1-0.2-0.1-0.3v-0.1c0-0.1,0-0.2,0.1-0.3
				c0.1-0.1,0.2-0.1,0.3-0.1h3.2c0.1,0,0.2,0,0.3,0.1c0.1,0.1,0.1,0.2,0.1,0.3v0.1c0,0.1,0,0.2-0.1,0.3c-0.1,0.1-0.2,0.1-0.3,0.1
				h-0.3c0,0,0,0,0,0c0,0,0,0,0,0c0.5,0.6,0.8,1.2,1,1.7c0,0,0,0,0,0c0,0,0,0,0,0v-1.8c0-0.1,0-0.2,0.1-0.3c0.1-0.1,0.2-0.1,0.3-0.1
				h0.2c0.1,0,0.2,0,0.3,0.1c0.1,0.1,0.1,0.2,0.1,0.3V24.3z M101,21.6C101,21.6,101,21.6,101,21.6C101.1,21.7,101.1,21.7,101,21.6
				l0.9,0c0,0,0,0,0,0c0,0,0,0,0,0c0,0,0,0,0-0.1c0-0.1-0.1-0.1-0.1-0.2c0,0,0-0.1,0-0.1c0-0.1,0.1-0.2,0.2-0.3l0.4-0.2c0,0,0,0,0,0
				c0,0,0,0,0,0h-0.9c0,0-0.1,0-0.1,0.1C101.3,21.1,101.2,21.4,101,21.6z M105.4,19.9c0-0.1,0-0.2,0.1-0.3c0.1-0.1,0.2-0.1,0.3-0.1
				h0.2c0.1,0,0.2,0,0.3,0.1c0.1,0.1,0.1,0.2,0.1,0.3v5.6c0,0.3,0,0.6-0.1,0.7c-0.1,0.2-0.2,0.3-0.4,0.4c-0.2,0.1-0.6,0.2-1.1,0.2
				c0,0,0,0,0,0c-0.1,0-0.2,0-0.3-0.1c-0.1-0.1-0.2-0.2-0.2-0.3c0-0.1-0.1-0.2-0.1-0.3c0,0,0-0.1,0-0.1c0-0.1,0-0.1,0.1-0.2
				c0.1-0.1,0.1-0.1,0.2-0.1h0c0.2,0,0.4,0,0.6,0c0.1,0,0.1,0,0.2,0c0,0,0-0.1,0-0.1V19.9z"/>
			<path class="st0" d="M115.9,23.3c0.3,0,0.6,0,0.7,0.1c0.1,0,0.2,0.1,0.2,0.2c0,0.1,0,0.1,0,0.2c0,0,0,0.1,0,0.1
				c-0.2,0.6-0.4,1.1-0.8,1.5c0,0,0,0.1,0,0.1c0.2,0.1,0.5,0.3,0.8,0.4c0.1,0,0.2,0.1,0.2,0.2c0,0,0,0.1,0,0.1c0,0.1,0,0.1-0.1,0.2
				c0,0.1-0.1,0.1-0.1,0.2c-0.1,0.1-0.2,0.2-0.3,0.2c-0.1,0-0.1,0-0.2,0c-0.1,0-0.1,0-0.2,0c-0.3-0.1-0.6-0.3-0.9-0.5
				c0,0-0.1,0-0.1,0c-0.2,0.2-0.5,0.3-0.8,0.5c-0.1,0-0.1,0-0.2,0c-0.1,0-0.1,0-0.2,0c-0.1,0-0.2-0.1-0.3-0.2
				c-0.1-0.1-0.1-0.2-0.2-0.3c0,0,0,0,0,0c0,0,0,0,0,0v0.2c0,0.1,0,0.2-0.1,0.3c-0.1,0.1-0.2,0.1-0.3,0.1h-0.2c-0.1,0-0.2,0-0.3-0.1
				c-0.1-0.1-0.1-0.2-0.1-0.3v-0.1c0,0,0-0.1-0.1-0.1c-0.9,0.1-1.6,0.1-2,0.1c0,0,0,0,0,0c-0.1,0-0.2,0-0.3-0.1
				c-0.1-0.1-0.1-0.2-0.2-0.3l0-0.1c0-0.1,0-0.2,0.1-0.3s0.2-0.1,0.3-0.1c0.1,0,0.1,0,0.1,0c0,0,0.1,0,0.1-0.1v-2.2
				c0,0,0-0.1-0.1-0.1h-0.1c-0.1,0-0.2,0-0.3-0.1c-0.1-0.1-0.1-0.2-0.1-0.3c0-0.1,0-0.2,0.1-0.3c0.1-0.1,0.2-0.1,0.3-0.1h6.3
				c0.1,0,0.2,0,0.3,0.1c0.1,0.1,0.1,0.2,0.1,0.3c0,0.1,0,0.2-0.1,0.3c-0.1,0.1-0.2,0.1-0.3,0.1h-3.1c0,0-0.1,0-0.1,0.1v2.7
				c0,0,0,0,0,0c0,0,0,0,0,0c0.3-0.1,0.6-0.3,0.8-0.4c0,0,0,0,0-0.1c-0.1-0.2-0.3-0.4-0.4-0.6c0-0.1,0-0.1,0-0.2c0,0,0-0.1,0-0.1
				c0-0.1,0.1-0.2,0.3-0.2l0.1,0c0,0,0,0,0,0c0,0,0,0,0,0h-0.3c-0.1,0-0.2,0-0.3-0.1c-0.1-0.1-0.1-0.2-0.1-0.3c0-0.1,0-0.2,0.1-0.3
				c0.1-0.1,0.2-0.1,0.3-0.1H115.9z M115.8,19.4c0.1,0,0.2,0,0.3,0.1c0.1,0.1,0.1,0.2,0.1,0.3v1.6c0,0.1,0,0.2-0.1,0.3
				c-0.1,0.1-0.2,0.1-0.3,0.1h-4.5c-0.1,0-0.2,0-0.3-0.1c-0.1-0.1-0.1-0.2-0.1-0.3v-1.6c0-0.1,0-0.2,0.1-0.3
				c0.1-0.1,0.2-0.1,0.3-0.1H115.8z M112.4,23.2C112.4,23.1,112.4,23.1,112.4,23.2l-0.8-0.1c0,0-0.1,0-0.1,0.1v0.1
				c0,0,0,0.1,0.1,0.1h0.7C112.4,23.3,112.4,23.3,112.4,23.2L112.4,23.2z M111.7,24.1C111.6,24.1,111.6,24.1,111.7,24.1l-0.1,0.2
				c0,0,0,0.1,0.1,0.1h0.7c0,0,0.1,0,0.1-0.1v-0.1c0,0,0-0.1-0.1-0.1H111.7z M111.6,25.3C111.6,25.3,111.6,25.4,111.6,25.3l0.8,0
				c0,0,0.1,0,0.1-0.1v-0.1c0,0,0-0.1-0.1-0.1h-0.7c0,0-0.1,0-0.1,0.1V25.3z M115,20.4C115.1,20.4,115.1,20.3,115,20.4l0.1-0.1
				c0,0,0-0.1-0.1-0.1h-3c0,0-0.1,0-0.1,0.1v0.1c0,0,0,0.1,0.1,0.1H115z M115,21.2C115.1,21.2,115.1,21.2,115,21.2l0.1-0.1
				c0,0,0-0.1-0.1-0.1h-3c0,0-0.1,0-0.1,0.1v0.1c0,0,0,0.1,0.1,0.1H115z M115.6,24.2C115.6,24.2,115.6,24.2,115.6,24.2
				C115.6,24.2,115.5,24.2,115.6,24.2l-0.7-0.1c0,0,0,0,0,0c0,0,0,0,0,0c0.1,0.1,0.2,0.3,0.3,0.5c0,0,0.1,0,0.1,0
				C115.4,24.5,115.5,24.4,115.6,24.2z"/>
			<path class="st0" d="M122.7,20.7c0.3,0,0.6,0,0.7,0c0.1,0,0.2,0.1,0.2,0.1c0.1,0.1,0.1,0.2,0.1,0.2c0,1.1-0.2,2.1-0.6,3.2
				c0,0,0,0.1,0,0.1c0.2,0.2,0.4,0.3,0.5,0.4c0.1,0.1,0.1,0.2,0.1,0.4c0,0.1,0,0.2-0.1,0.4l-0.1,0.2c-0.1,0.1-0.2,0.1-0.3,0.1h0
				c-0.1,0-0.2,0-0.3-0.1c-0.1-0.1-0.2-0.2-0.3-0.3c0,0,0,0-0.1,0c-0.3,0.4-0.6,0.8-1,1.1c-0.1,0.1-0.2,0.1-0.2,0.1c0,0-0.1,0-0.1,0
				c-0.1,0-0.2-0.1-0.3-0.2c0-0.1-0.1-0.1-0.1-0.2c-0.1-0.1-0.1-0.2-0.1-0.3c0,0,0,0,0-0.1c0-0.1,0.1-0.2,0.2-0.3
				c0.3-0.2,0.6-0.5,0.8-0.9c0,0,0-0.1,0-0.1l-0.2-0.1c0,0,0,0,0,0c0,0,0,0.1-0.1,0.1c0,0-0.1,0-0.1,0l-0.4-0.2
				c-0.1-0.1-0.2-0.2-0.3-0.3c0-0.1-0.1-0.2-0.1-0.2c0,0,0-0.1,0-0.1c0.1-0.5,0.3-1.1,0.4-1.9c0,0,0-0.1,0-0.1h0
				c-0.1,0-0.2,0-0.3-0.1c-0.1-0.1-0.1-0.2-0.1-0.3v-0.1c0-0.1,0-0.2,0.1-0.3c0.1-0.1,0.2-0.1,0.3-0.1h0.2c0,0,0.1,0,0.1-0.1
				c0.1-0.3,0.1-0.7,0.2-1.1c0-0.1,0.1-0.2,0.2-0.3c0.1-0.1,0.2-0.1,0.3-0.1c0,0,0,0,0.1,0l0.2,0c0.1,0,0.2,0.1,0.3,0.2
				c0.1,0.1,0.1,0.2,0.1,0.3c0,0,0,0.1,0,0.1c-0.1,0.3-0.1,0.6-0.2,0.9c0,0,0,0.1,0,0.1H122.7z M122.5,21.9
				C122.5,21.8,122.5,21.8,122.5,21.9l-0.4-0.1c0,0-0.1,0-0.1,0.1c-0.1,0.3-0.2,0.8-0.3,1.5c0,0,0,0.1,0,0.1
				c0.1,0.1,0.2,0.1,0.3,0.2c0,0,0.1,0,0.1,0C122.3,23.2,122.5,22.6,122.5,21.9z M127.6,22.4c0.1,0,0.2,0,0.3,0.1
				c0.1,0.1,0.1,0.2,0.1,0.3V23c0,0.1,0,0.2-0.1,0.3c-0.1,0.1-0.2,0.1-0.3,0.1h-1.2c0,0-0.1,0-0.1,0.1v2.1c0,0.3,0,0.5-0.1,0.7
				c-0.1,0.2-0.2,0.3-0.4,0.4c-0.2,0.1-0.5,0.2-0.9,0.2c0,0,0,0,0,0c-0.1,0-0.2,0-0.3-0.1c-0.1-0.1-0.2-0.2-0.2-0.3
				c0-0.1-0.1-0.2-0.1-0.3c0,0,0-0.1,0-0.1c0-0.1,0-0.1,0-0.2c0.1-0.1,0.1-0.1,0.2-0.1h0c0.1,0,0.2,0,0.3,0c0.1,0,0.1,0,0.2,0
				c0.1,0,0.1,0,0.1,0c0,0,0-0.1,0-0.1v-2.1c0,0,0-0.1-0.1-0.1H124c-0.1,0-0.2,0-0.3-0.1c-0.1-0.1-0.1-0.2-0.1-0.3v-0.2
				c0-0.1,0-0.2,0.1-0.3c0.1-0.1,0.2-0.1,0.3-0.1h1.1c0,0,0.1,0,0.1-0.1v-0.5c0-0.1,0-0.2,0.1-0.2c0.1-0.1,0.1-0.1,0.2-0.1
				c0,0,0,0,0.1,0c0.2-0.2,0.4-0.5,0.5-0.8c0,0,0,0,0,0c0,0,0,0,0,0h-1.7c-0.1,0-0.2,0-0.3-0.1c-0.1-0.1-0.1-0.2-0.1-0.3V20
				c0-0.1,0-0.2,0.1-0.3c0.1-0.1,0.2-0.1,0.3-0.1h2.5c0,0,0,0,0.1,0c0,0,0.1,0,0.1,0c0.1,0,0.2,0,0.3,0.1l0.2,0.2
				c0.1,0.1,0.2,0.2,0.2,0.3c0,0,0,0.1,0,0.1c0,0.1,0,0.2-0.1,0.3c-0.4,0.6-0.8,1.1-1.2,1.5c0,0,0,0.1,0,0.1v0.2c0,0,0,0.1,0.1,0.1
				H127.6z"/>
		</g>
	</g>
	<path class="st0" d="M11.9,26.6l0.6,3.2c0.8,0.1,1.6,0.2,2.4,0.2c0.8,0,1.6-0.1,2.4-0.2l0.6-3c-0.9-0.1-1.9-0.2-3-0.4
		C13.7,26.5,12.7,26.6,11.9,26.6z"/>
	<path class="st0" d="M8,26.3c-0.9-0.2-1.7-0.7-2.2-1.4c-0.5-0.6-0.6-1.4-0.5-2.1c0.2-0.6,0.6-1.2,1.2-1.5C7.2,21.1,8,21,8.8,21.2
		c0.8,0.2,1.6,0.3,2.4,0.3c-2.9-1.3-4-2.8-4-2.9c0,0,0,0,0,0c0,0,0,0,0,0c0,0,0,0,0,0c0,0,0,0,0-0.1c0,0,0,0,0,0c0,0,0,0,0,0
		c0,0,0,0,0,0c0,0,0,0,0,0c0,0,0,0,0-0.1c0,0,0,0,0,0c0,0,0,0,0-0.1c0,0,0,0,0,0c0,0,0,0,0-0.1c0,0,0,0,0,0c0,0,0,0,0,0c0,0,0,0,0,0
		c0,0,0,0,0,0c0,0,0,0,0,0c0,0,0,0,0,0c0,0,0,0,0,0c0,0,0,0,0,0c0,0,0,0,0,0c0,0,0,0,0,0c0,0,0,0,0,0c0,0,0,0,0,0c0,0,0,0,0,0
		c0,0,0,0,0,0c0,0,0,0,0,0c0,0,0,0,0,0c0,0,0,0,0,0c0,0,0,0,0,0c0,0,0,0,0,0c0,0,0,0,0,0c0,0,0,0,0,0c0,0,0,0,0,0c0,0,0,0,0,0
		c0,0,0,0,0,0c0,0,0,0,0,0c0,0,0,0,0,0c0,0,0,0,0,0c0,0,0,0,0,0c0,0,0,0,0,0c0,0,0,0,0.1,0c0,0,0,0,0,0c0,0,0,0,0.1,0c0,0,0,0,0,0
		c0,0,0,0,0.1,0c0,0,0,0,0,0h2.7c1.1,0,2-0.9,2-2v-1.7c0-0.3-0.2-0.6-0.6-0.6c-0.3,0-0.5-0.2-0.7-0.4c0,0-1-2.1-2.1-3.2
		c-1-1-3.6-1.2-4.7,0l-4,4c-0.7,0.7-0.7,1.7,0,2.4c0.2,0.2,0.4,0.3,0.6,0.4c0.7,0.3,1.6,0,2-0.7l2.3-3.7c0.2-0.3,0.7-0.4,1-0.2
		c0.3,0.2,0.4,0.7,0.2,1l-2.3,3.7c-0.8,1.3-2.4,1.8-3.8,1.3c-0.1-0.1-0.3-0.1-0.4-0.2c1,5.8,5.3,10.5,10.9,12l-0.6-2.9
		C9.2,26.6,8.4,26.4,8,26.3z M9,11.4c0.6,0,1.1,0.5,1.1,1.1c0,0.6-0.5,1.1-1.1,1.1s-1.1-0.5-1.1-1.1C7.9,11.9,8.4,11.4,9,11.4z"/>
	<path class="st0" d="M14.9,8.4l2.9-2.9c0.5-0.5,0.5-1.3,0-1.8c-0.5-0.5-1.3-0.5-1.8,0l-0.6,0.6c-0.3,0.3-0.7,0.3-1,0l-0.6-0.6
		c-0.3-0.3-0.6-0.4-0.9-0.4c-0.3,0-0.7,0.1-0.9,0.4c-0.5,0.5-0.5,1.3,0,1.8L14.9,8.4z"/>
	<path class="st0" d="M10.2,8.5c1,1,1.9,2.6,2.3,3.3c0.9,0.2,1.5,1,1.5,1.9v1.7c0,1.9-1.6,3.5-3.5,3.5H9.6C9.7,19,9.8,19,9.8,19.1
		c0.9,0.6,2.5,1.5,5,2.1c0.8-0.2,1.6-0.4,2.5-0.7c1.2-0.5,2.1-1.1,2.8-1.6h-0.3c-2.1,0-3.9-1.7-3.9-3.9v-1.4c0-0.9,0.6-1.6,1.4-1.8
		l1.1-2.2c0.4-0.7,1.1-1.1,1.9-1.1h0.8l1.8-2.2C23.1,6.1,23.3,6,23.5,6c0,0,0,0,0,0c0.2,0,0.4,0.1,0.6,0.3c0,0,1.8,2.1,3.9,3.9
		c0.7,0.6,1.2,1.2,1.6,1.8C28.2,5.1,22.1,0,14.9,0C7.7,0,1.7,5,0.2,11.8l3.2-3.2C5.2,6.8,8.7,7.1,10.2,8.5z M10.9,2.6
		c0.5-0.5,1.2-0.8,1.9-0.8c0.7,0,1.4,0.3,1.9,0.8l0.1,0.1L15,2.6c0.5-0.5,1.2-0.8,1.9-0.8c0.7,0,1.4,0.3,1.9,0.8
		c1.1,1.1,1.1,2.8,0,3.9L15.4,10c-0.1,0.1-0.3,0.2-0.5,0.2s-0.4-0.1-0.5-0.2l-3.4-3.4C9.9,5.4,9.9,3.7,10.9,2.6z"/>
	<path class="st0" d="M22.4,24.9c0.6-0.2,0.9-0.6,1-0.9c0-0.2-0.1-0.3-0.2-0.4c-0.2-0.2-0.6-0.1-1.1,0.1c-0.2,0.1-1.7,1-3.6,1.8
		C20.2,25.5,21.5,25.3,22.4,24.9z"/>
	<path class="st0" d="M27,11.3c-1.5-1.3-2.8-2.6-3.5-3.4l-1.2,1.5c-0.3,0.3-0.7,0.5-1.1,0.5h-0.9c-0.3,0-0.5,0.1-0.6,0.4l-1.3,2.5
		c-0.1,0.2-0.4,0.4-0.6,0.4c-0.2,0-0.4,0.2-0.4,0.4V15c0,1.3,1.1,2.4,2.4,2.4H22c0.4,0,0.7,0.3,0.7,0.7c0,0,0,0,0,0c0,0,0,0,0,0
		c0,0,0,0,0,0c0,0,0,0,0,0c0,0,0,0,0,0c0,0,0,0,0,0c0,0,0,0,0,0c0,0,0,0,0,0c0,0,0,0,0,0c0,0,0,0,0,0c0,0,0,0,0,0c0,0,0,0,0,0
		c0,0,0,0,0,0c0,0,0,0,0,0c0,0,0,0,0,0c0,0,0,0,0,0c0,0,0,0,0,0c0,0,0,0,0,0c-0.1,0.2-1.7,2-4.7,3.2c-0.9,0.3-1.8,0.6-2.6,0.8
		c-0.1,0-0.2,0.1-0.3,0.1c0,0,0,0,0,0c-2.1,0.4-4.2,0.4-6.3-0.1c-0.9-0.2-1.6,0-1.8,0.6c-0.1,0.6,0.4,1.4,1.6,1.7
		c1.2,0.3,3.5,0.5,6.4,0c0,0,0,0,0,0c0.3,0,0.5-0.1,0.8-0.2c3-0.6,5.8-2.3,5.8-2.4c0,0,0,0,0.1,0c0.9-0.5,1.9-0.5,2.6,0
		c0.6,0.4,0.9,1,0.8,1.7c-0.1,0.9-0.8,1.7-1.8,2.1c-1,0.4-2.2,0.6-3.6,0.6c0,0,0,0,0,0l-0.5,2.6c5.9-1.6,10.3-6.7,11-12.9
		C29.8,16.2,29.6,13.5,27,11.3z M20.8,13.5c-0.6,0-1.1-0.5-1.1-1.1c0-0.6,0.5-1.1,1.1-1.1c0.6,0,1.1,0.5,1.1,1.1
		C21.9,13.1,21.4,13.5,20.8,13.5z"/>
</g>
</svg>
