<?xml version="1.0" encoding="utf-8"?>
<!-- Generator: Adobe Illustrator 26.3.1, SVG Export Plug-In . SVG Version: 6.00 Build 0)  -->
<svg version="1.1" id="Layer_1" xmlns="http://www.w3.org/2000/svg" xmlns:xlink="http://www.w3.org/1999/xlink" x="0px" y="0px"
	 viewBox="0 0 6400 100" style="enable-background:new 0 0 6400 100;" xml:space="preserve">
<style type="text/css">
	.st0{fill-rule:evenodd;clip-rule:evenodd;fill:#F0EEE9;}
</style>
<path class="st0" d="M5589,0c-400,0-500,61.1-789,61.1c-311,0-409.9-61.2-811-61.1c-400,0-500,61.1-789,61.1
	c-311,0-409.9-61.2-811-61.1c-400,0-500,61.1-789,61.1c-311,0-409.9-61.2-811-61.1C389,0,289,61.1,0,61.1V100h1600h1600h1600h1600
	c0,0,0-24.2,0-38.9C6089,61.1,5990.1-0.1,5589,0z"/>
</svg>
