<?xml version="1.0" encoding="utf-8"?>
<!-- Generator: Adobe Illustrator 26.0.3, SVG Export Plug-In . SVG Version: 6.00 Build 0)  -->
<svg version="1.1" id="text-feature-03-01_sp.svg" xmlns="http://www.w3.org/2000/svg" xmlns:xlink="http://www.w3.org/1999/xlink"
	 x="0px" y="0px" viewBox="0 0 273.8 62.6" style="enable-background:new 0 0 273.8 62.6;" xml:space="preserve">
<style type="text/css">
	.st0{fill:none;stroke:#1147B4;stroke-width:2.9179;stroke-linecap:round;stroke-dasharray:1.458964e-03,5.8359;}
	.st1{fill:#1147B4;}
</style>
<path id="シェイプ_1024_00000102512591405102509790000005584640027402619576_" class="st0" d="M1.5,61.1h270.9"/>
<g>
	<path class="st1" d="M22.3,20.1c-0.3,0.3-0.4,0.6-0.7,0.7c3.4,2.8,9,5.3,14.2,6.6c-0.9,0.9-2.2,2.5-2.8,3.6
		c-2.8-0.9-5.7-2.2-8.3-3.8v2H12.4v-1.6c-2.3,1.3-4.8,2.5-7.3,3.4c-0.6-1-1.8-2.6-2.9-3.6c6-1.9,12.7-5.3,16.3-9.3L22.3,20.1z
		 M29.9,31.8c-1.2,2.2-2.5,4.5-3.8,6.6h4.4v12.7h-4.2v-1.2h-14v1.2H8.2V38.4h13.1c0.9-1.3,1.6-2.6,2.5-3.9H7.1v-3.6H26l0.7-0.1
		L29.9,31.8z M26.1,42H12.3v4.4h14V42H26.1z M22.5,26c-1.3-0.9-2.3-1.8-3.5-2.6c-1.2,0.9-2.3,1.8-3.6,2.6H22.5z"/>
	<path class="st1" d="M57.5,42.5c4.2,1.5,9.8,3.6,12.7,5.1l-2,3.5c-3.1-1.8-9.5-4.4-14-6.1l1.6-2.6h-1.3c-1.8,4.4-5.4,7-14.7,8.6
		c-0.3-1.2-1.3-2.9-2-3.8c7-0.9,10.4-2.5,12-4.8H39.1v-3.5h11.8c0.1-0.6,0.1-1.2,0.3-1.8H38.4v-3.6h13.4v-1.9H41.4V28h10.4v-1.8
		H39.4v-3.6h6.7c-0.6-1-1.3-2.2-1.9-3.1l3.6-1.5c1,1.2,2.2,2.9,2.6,4.1l-1,0.4h7.7c0.9-1.3,1.9-3.2,2.5-4.5l4.5,1.2
		c-0.7,1.2-1.6,2.3-2.3,3.4h6.7v3.6H56.2V28h10.7v3.5H56.2v1.9H70v3.6H55.6c0,0.6-0.1,1.2-0.3,1.8H69v3.5H57.5V42.5z"/>
	<path class="st1" d="M91.9,30.3c-0.1,0.3-0.3,0.6-0.6,0.9c3.9,4.1,8.6,6.6,14,8.5c-0.9,0.9-2,2.2-2.6,3.5c-1.3-0.6-2.5-1.2-3.5-1.8
		v9.6H95v-0.9H83v0.9h-4.1v-9.2c-1.2,0.6-2.5,1.2-3.8,1.8c-0.6-1-1.6-2.5-2.6-3.4c6.4-2.2,12.5-6.1,15.8-11.4L91.9,30.3z M78.2,28.6
		h-4.1V21H87c-0.3-0.7-0.7-1.6-1-2.2l4.4-0.9c0.6,1,1,2.2,1.5,3.2h12.1v7.6h-4.2v-3.8H78.2V28.6z M86.5,26.8c-2.2,3.2-5.8,6.1-9,7.9
		c-0.6-0.9-2-2.5-2.8-3.2c3.1-1.3,6.1-3.6,7.9-6L86.5,26.8z M95,46.4v-3.6H83v3.6H95z M95,39c-2-1.5-4.1-2.9-5.8-5
		c-1.6,1.9-3.5,3.5-5.4,5H95z M94,25.7c2.9,1.8,6.9,4.4,8.8,6.3l-3.1,2.6c-1.8-1.9-5.5-4.8-8.6-6.7L94,25.7z"/>
	<path class="st1" d="M113.2,35c-1.2-1.2-3.6-2.9-5.5-4.1l2.5-2.8c1.9,1,4.4,2.6,5.7,3.8L113.2,35z M107.8,48.4
		c1.5-2.6,3.2-7,4.7-11.1l3.2,2.3c-1.2,3.6-2.8,7.7-4.2,11.1L107.8,48.4z M139.6,29.6c-1,5.5-2.9,10.2-5.4,13.7
		c1.9,1.8,4.2,3.4,6.6,4.4c-0.9,0.7-2.2,2.3-2.8,3.4c-2.3-1.2-4.4-2.8-6.3-4.7c-1.9,1.9-4.1,3.5-6.4,4.8c-0.6-0.9-1.5-2.3-2.3-3.1
		v2.9h-3.6v-14c-0.6,0.7-1.2,1.5-1.8,2c-0.6-0.9-1.9-2-2.6-2.6c2.8-2.8,5.3-7.1,6.3-10.7H117v-2.2l-2.3,2.5c-1-1.3-3.5-3.2-5.3-4.4
		l2.6-2.6c1.6,1,3.8,2.5,5.1,3.6v-0.9h9.6c-0.3-0.9-0.7-1.8-1.2-2.6l3.8-1c0.6,1.2,1.3,2.5,1.8,3.6h9.2v3.9H129l3.4,0.9
		c-0.3,0.7-0.6,1.5-0.9,2.3h5.1l0.7-0.1L139.6,29.6z M125,26.7c-0.6,1.5-1.3,3.1-2.2,4.7v5.1c2.5-2.9,4.5-7.1,5.5-10.7h-6.6
		L125,26.7z M123,48c2.3-1,4.5-2.6,6.3-4.5c-1.2-1.6-2.2-3.4-3.1-5.3c-0.4,0.6-1,1.2-1.6,1.8c-0.4-0.4-1-1.2-1.8-1.8V48H123z
		 M128.2,35.2c0.9,1.9,1.9,3.8,3.4,5.4c0.4-0.7,0.9-1.6,1.5-2.5c-1.2-1-2.9-2.3-4.5-3.4L128.2,35.2z M130,32.1l-0.1,0.3
		c1.6,0.9,3.4,2,4.4,2.9c0.4-1,0.7-2.2,1-3.4H130V32.1z"/>
</g>
<g>
	<path class="st1" d="M143.6,43.6l4.5-6.3c2.8,2.8,6.3,5.1,10.9,5.1c5.1,0,8.8-3.1,8.8-8.5s-3.4-8.5-8.5-8.5c-2.9,0-4.5,0.7-7.4,2.6
		l-4.5-2.9l1.5-24.4h26.6v8.3h-18.1l-0.9,10.5c2-0.9,3.6-1.3,6-1.3c8.3,0,15.3,4.7,15.3,15c0,10.7-8.2,16.9-17.4,16.9
		C152.5,50.3,147.2,47.3,143.6,43.6z"/>
	<path class="st1" d="M184.3,24.9C184.3,8.6,191,0,201.2,0C211.4,0,218,8.6,218,24.9c0,16.5-6.6,25.4-16.8,25.4
		C191,50.3,184.3,41.4,184.3,24.9z M208.6,24.9c0-13.4-3.2-17.2-7.4-17.2c-4.2,0-7.6,3.8-7.6,17.2c0,13.6,3.2,17.7,7.6,17.7
		S208.6,38.5,208.6,24.9z"/>
	<path class="st1" d="M222.1,31.2c0-5.3,2.6-8.2,6.3-8.2c3.6,0,6.3,2.9,6.3,8.2s-2.6,8.3-6.3,8.3C224.7,39.4,222.1,36.3,222.1,31.2z
		 M231.1,31.2c0-3.8-1.2-5.3-2.6-5.3s-2.6,1.5-2.6,5.3c0,3.8,1.2,5.4,2.6,5.4C229.9,36.5,231.1,35,231.1,31.2z M243.4,23.1h3.1
		l-14,26.8h-3.1L243.4,23.1z M240.9,41.6c0-5.3,2.6-8.2,6.3-8.2c3.6,0,6.3,2.9,6.3,8.2s-2.6,8.3-6.3,8.3
		C243.5,49.9,240.9,46.8,240.9,41.6z M249.9,41.6c0-3.8-1.2-5.3-2.6-5.3s-2.6,1.5-2.6,5.3c0,3.8,1.2,5.3,2.6,5.3
		C248.8,47,249.9,45.4,249.9,41.6z"/>
	<path class="st1" d="M256.3,27.4l1.2-1.9l-2-0.9l0.4-1.3l2.2,0.4l0.3-2.2h1.3l0.1,2.2l2.2-0.4l0.4,1.3l-2,0.9l1.2,1.9l-1,0.7
		l-1.5-1.8l-1.5,1.8L256.3,27.4z"/>
	<path class="st1" d="M264.1,33.8c3.2-3.1,5.4-5.3,5.4-7.1c0-1.3-0.7-2-1.9-2c-0.9,0-1.6,0.6-2.3,1.3l-1.3-1.3
		c1.2-1.3,2.3-1.9,3.9-1.9c2.3,0,3.9,1.5,3.9,3.8c0,2.2-2,4.4-4.2,6.7c0.6,0,1.5-0.1,2-0.1h2.8v2h-8.3V33.8z"/>
</g>
</svg>
