<svg xmlns="http://www.w3.org/2000/svg" viewBox="0 0 118 118">
  <defs>
    <style>
      .\38 0303c99-a2bd-4fc5-8144-eb08ab9e209e {
        fill: #910000;
      }

      .\38 0303c99-a2bd-4fc5-8144-eb08ab9e209e, .\39 8a7b313-4257-4ce2-baff-92e4957a855c {
        fill-rule: evenodd;
      }

      .\31 a298bbc-12a9-48bd-a0fd-4989fad9397e, .\39 8a7b313-4257-4ce2-baff-92e4957a855c {
        fill: #fff;
      }

      .\36 233b41f-8d94-4aca-afa3-7884390c81b8 {
        fill: #231815;
      }
    </style>
  </defs>
  <title>barista-logo</title>
  <g id="d77cb8ca-5287-4f2a-a315-7e2f8b72b713" data-name="圖層 2">
    <g id="3cb21d43-c657-4f45-af95-eded25046540" data-name="分離模式">
      <g>
        <path class="80303c99-a2bd-4fc5-8144-eb08ab9e209e" d="M59,0A59,59,0,1,1,0,59,59.11,59.11,0,0,1,59,0Z"/>
        <path class="98a7b313-4257-4ce2-baff-92e4957a855c" d="M59,1.74A57.25,57.25,0,1,1,1.75,59,57.37,57.37,0,0,1,59,1.74Z"/>
        <path class="80303c99-a2bd-4fc5-8144-eb08ab9e209e" d="M59,4.31A54.69,54.69,0,1,1,4.31,59,54.79,54.79,0,0,1,59,4.31Z"/>
        <g>
          <path class="98a7b313-4257-4ce2-baff-92e4957a855c" d="M59,26.22A32.77,32.77,0,1,1,26.22,59,32.84,32.84,0,0,1,59,26.22Z"/>
          <path class="1a298bbc-12a9-48bd-a0fd-4989fad9397e" d="M59,26.22v1a31.85,31.85,0,1,1-22.47,9.33A31.71,31.71,0,0,1,59,27.2v-2A33.75,33.75,0,1,0,92.76,59,33.81,33.81,0,0,0,59,25.24Z"/>
        </g>
        <path class="98a7b313-4257-4ce2-baff-92e4957a855c" d="M15.27,55.32c5.92,0,10.74,2.48,10.74,5.51s-4.83,5.52-10.74,5.52S4.52,63.87,4.52,60.83s4.82-5.51,10.75-5.51Z"/>
        <path class="98a7b313-4257-4ce2-baff-92e4957a855c" d="M15.27,56c5.42,0,9.86,2.17,9.86,4.84s-4.43,4.86-9.86,4.86S5.41,63.5,5.41,60.83,9.84,56,15.27,56Z"/>
        <path class="80303c99-a2bd-4fc5-8144-eb08ab9e209e" d="M7.79,60.44C4.41,60.85,6.64,63,6.64,63a8.76,8.76,0,0,0,3.74,1.82c3.39.58,4.94-.69,5.27-.92,1-.71,0-1.87,0-1.87a4.29,4.29,0,0,0-3.25-1.14,11.64,11.64,0,0,1-3-.24c-.81-.17-.08-.66-.08-.66a16.67,16.67,0,0,1,9.43-.61c2.87.77,3.57,1.12,4.63,1.9s.36,1.8-.06,2.28a14.59,14.59,0,0,1-8.11,2.11c-5.41,0-9.83-2.18-9.83-4.86S9.81,56,15.23,56s9.85,2.18,9.85,4.86a2.74,2.74,0,0,1-.64,1.71A1.55,1.55,0,0,0,24,60.88c-2-1.78-7-2.41-7-2.41-7-.6-9.48,1.78-9.15,2Z"/>
        <path class="80303c99-a2bd-4fc5-8144-eb08ab9e209e" d="M7.79,60.57c-2.39.58-.81,2-.17,2.42a8.83,8.83,0,0,0,4.91,1.19c2.13-.19,2.59-.92,2.59-.92a.88.88,0,0,0-.07-1,2.93,2.93,0,0,0-1.95-.8c-1.27,0-2.59,0-2.59,0-2.58-.18-2.71-.85-2.71-.85Z"/>
        <path class="98a7b313-4257-4ce2-baff-92e4957a855c" d="M102.71,55.32c5.92,0,10.75,2.48,10.75,5.51s-4.83,5.52-10.75,5.52S92,63.87,92,60.83s4.83-5.51,10.75-5.51Z"/>
        <path class="98a7b313-4257-4ce2-baff-92e4957a855c" d="M102.71,56c5.44,0,9.86,2.17,9.86,4.84s-4.42,4.86-9.86,4.86-9.85-2.18-9.85-4.86S97.28,56,102.71,56Z"/>
        <path class="80303c99-a2bd-4fc5-8144-eb08ab9e209e" d="M95.23,60.44c-3.36.41-1.15,2.61-1.15,2.61a8.83,8.83,0,0,0,3.74,1.82c3.39.58,4.95-.69,5.28-.92,1-.71,0-1.87,0-1.87a4.31,4.31,0,0,0-3.26-1.14,11.59,11.59,0,0,1-3-.24c-.81-.17-.08-.66-.08-.66a16.67,16.67,0,0,1,9.42-.61c2.88.77,3.58,1.12,4.62,1.9s.38,1.8,0,2.28a14.62,14.62,0,0,1-8.11,2.11c-5.42,0-9.84-2.18-9.84-4.86S97.26,56,102.68,56s9.84,2.18,9.84,4.86a2.8,2.8,0,0,1-.63,1.71,1.56,1.56,0,0,0-.47-1.68c-2-1.78-7-2.41-7-2.41-7-.6-9.47,1.78-9.15,2Z"/>
        <path class="80303c99-a2bd-4fc5-8144-eb08ab9e209e" d="M95.23,60.57c-2.39.58-.8,2-.18,2.42A8.85,8.85,0,0,0,100,64.18c2.15-.19,2.6-.92,2.6-.92a.87.87,0,0,0-.07-1,3,3,0,0,0-1.95-.8c-1.27,0-2.6,0-2.6,0-2.57-.18-2.71-.85-2.71-.85Z"/>
        <path class="98a7b313-4257-4ce2-baff-92e4957a855c" d="M8.35,48.54l3-8.87a5.17,5.17,0,0,1,2.27-3,3.73,3.73,0,0,1,3.13-.25,3.67,3.67,0,0,1,2,1.64,4,4,0,0,1,.46,2,4.57,4.57,0,0,1,2.19-2,4,4,0,0,1,2.71.06,4.51,4.51,0,0,1,2,1.29,4.29,4.29,0,0,1,1,2,5,5,0,0,1-.11,2c-.23,1.12-.4,1.85-.52,2.2l-2.82,8.18L8.35,48.54ZM16,45.83l.69-2.06a2.46,2.46,0,0,0,.16-1.68,1.49,1.49,0,0,0-1-.81,1.38,1.38,0,0,0-1.2.07,2.49,2.49,0,0,0-.9,1.39l-.72,2.09,2.91,1Zm6,2.08.84-2.42A2.85,2.85,0,0,0,23,43.61a1.57,1.57,0,0,0-1-.9,1.42,1.42,0,0,0-1.27.12,2.86,2.86,0,0,0-1,1.6l-.83,2.4L22,47.91Zm13-18L30.9,33.76l1.24,2.5-3.75,3.48-6.61-16,4-3.73,15.52,7.7-3.84,3.58-2.4-1.41ZM31.9,28l-5.29-3,2.67,5.47L31.9,28ZM42,27.31,37.82,11.64l8.06-2.16a11.94,11.94,0,0,1,3.54-.53,3.79,3.79,0,0,1,2.3.91,4.44,4.44,0,0,1,1.4,2.34A4.36,4.36,0,0,1,52,16.54a6,6,0,0,1-1.54,1.07,5,5,0,0,1,1.42.25,4.89,4.89,0,0,1,1,.6,6.38,6.38,0,0,1,.95.8l3.55,3.91L52,24.65l-3.87-4.1a4,4,0,0,0-1.2-1,2,2,0,0,0-1.29,0l-.43.11L46.87,26,42,27.31Zm2.36-10.62,2-.55a6.67,6.67,0,0,0,1.22-.56,1.3,1.3,0,0,0,.67-.7,1.46,1.46,0,0,0,.05-1,1.49,1.49,0,0,0-.79-1,3.09,3.09,0,0,0-1.91.08l-2.13.58.86,3.18Zm15-9.06,5,.35L63.26,24.16l-5-.35L59.38,7.63ZM67,18.73l4.56,1.42a3.69,3.69,0,0,0,0,1.89,2.65,2.65,0,0,0,1.72,1.71,2.43,2.43,0,0,0,1.73.13,1.45,1.45,0,0,0,.85-2.14,6.82,6.82,0,0,0-2.07-1.79A10.86,10.86,0,0,1,70,16.41,3.94,3.94,0,0,1,69.83,13,4.13,4.13,0,0,1,71.35,11,4.78,4.78,0,0,1,74,10.19,10.2,10.2,0,0,1,78,11a8.11,8.11,0,0,1,4,2.79,5,5,0,0,1,.49,4.12L78,16.49a2.53,2.53,0,0,0-.16-1.78,2.65,2.65,0,0,0-1.38-1.05,2,2,0,0,0-1.36-.13,1.2,1.2,0,0,0-.74.69.92.92,0,0,0,.09.78,4.12,4.12,0,0,0,1.36,1.16,20.71,20.71,0,0,1,3.88,3,4.87,4.87,0,0,1,1.28,2.43,4.5,4.5,0,0,1-.25,2.47,5.17,5.17,0,0,1-1.84,2.38,5.35,5.35,0,0,1-3,1A9.73,9.73,0,0,1,72,26.7c-2.57-1-4.17-2.17-4.77-3.54A6.17,6.17,0,0,1,67,18.73Zm23.94-.51,10.58,11L98.6,32l-3.55-3.67-8.79,8.48-3.47-3.61,8.78-8.48L88,21l2.89-2.79Zm4.54,30.66-2-5.36-2.79.17L89,38.88l17.32.17,1.88,5.13L95,55.47l-1.78-4.93,2.24-1.66Zm2.94-2.18L103.26,43l-6.09.32,1.23,3.36Z"/>
        <path class="98a7b313-4257-4ce2-baff-92e4957a855c" d="M19.7,81.82l.67,4.64a8.24,8.24,0,0,1-3.47,0,6,6,0,0,1-2.75-1.38,8.93,8.93,0,0,1-2.14-3,10.62,10.62,0,0,1-1.15-4.33,7,7,0,0,1,1.25-3.86,9.41,9.41,0,0,1,4.07-3.27,8.63,8.63,0,0,1,6.67-.69,8.31,8.31,0,0,1,4.62,4.67,8.4,8.4,0,0,1,.94,5A7.4,7.4,0,0,1,26,83.66L23.17,80a4,4,0,0,0,.8-.93,3,3,0,0,0,.37-1.33,3,3,0,0,0-.3-1.4,3,3,0,0,0-2.4-1.83,5.91,5.91,0,0,0-3.26.75,6.24,6.24,0,0,0-3.07,2.36,3.28,3.28,0,0,0,1.76,4.23,5.12,5.12,0,0,0,2.63,0ZM25.61,89a8.56,8.56,0,0,1,5.48-3.88,8.51,8.51,0,0,1,6.47,1.76,8.74,8.74,0,0,1,3.95,5.48,8.39,8.39,0,0,1-1.73,6.39,10.28,10.28,0,0,1-3.55,3.36,7.09,7.09,0,0,1-4,.75,9.39,9.39,0,0,1-4.37-1.8,10.69,10.69,0,0,1-3.3-3.4,7.17,7.17,0,0,1-.83-4A9.37,9.37,0,0,1,25.61,89Zm4.19,3a5.52,5.52,0,0,0-1.3,3.49,3.51,3.51,0,0,0,4.15,2.94,6.15,6.15,0,0,0,3-2.63,5.14,5.14,0,0,0,1.18-3.35A3.22,3.22,0,0,0,35.32,90a3.08,3.08,0,0,0-2.67-.54,5.64,5.64,0,0,0-2.85,2.44ZM46.71,93l12.48,2.2-.62,3.52-7.4-1.31-.51,2.86L57,101.4l-.58,3.29-6.33-1.11-1.18,6.68-5.06-.9L46.71,93Zm15.6,1.58,12.35-2.85.81,3.47-7.33,1.7.65,2.82L75,98.28l.76,3.27L69.54,103l1.53,6.61-5,1.15L62.31,94.59Zm14-3.56,10.37-9L89,84.69l-6.49,5.64,1.74,2,6-5.23,2.22,2.55-6,5.24,2.15,2.47,6.68-5.81,2.47,2.84-10.57,9.17L76.29,91ZM88.6,79.66l5.8-12.44,3.22,1.49L94,76.5l2.4,1.11,3.36-7.22,3.06,1.42L99.45,79l3,1.38,3.75-8,3.4,1.58-5.91,12.69-15-7Z"/>
        <path class="6233b41f-8d94-4aca-afa3-7884390c81b8" d="M27.67,59A31.33,31.33,0,0,1,59,27.66h0A31.33,31.33,0,0,1,90.33,59h0A31.33,31.33,0,0,1,59,90.33h0A31.33,31.33,0,0,1,27.67,59Z"/>
        <path class="1a298bbc-12a9-48bd-a0fd-4989fad9397e" d="M36.84,66.75,40.5,77.5h6.19l3.94-10.74ZM51.31,64.9l4-10.78H36.84L40.5,64.9Zm4.62-12.6,3.94-10.74h-23L40.5,52.3Zm5.59-10.74L48.34,77.5h9.78L71.3,41.56ZM84.4,56.66s-2.86-9.43-3.55-12c-.79-3-4.73-3.06-4.73-3.06H72.94L59.77,77.49H77.58c3.72,0,3.37-3.68,3.37-3.68s-.64-10.29-.64-11.23a2.47,2.47,0,0,1,1.87-2.66C85.51,59.17,84.4,56.66,84.4,56.66Zm-7.76,10.1h-8l.67-1.82h7.32a.91.91,0,0,1,0,1.82Zm0-12.63H73.28L74,52.3h2.69a.91.91,0,0,1,0,1.82Z"/>
      </g>
    </g>
  </g>
</svg>
