<?xml version="1.0" encoding="utf-8"?>
<!-- Generator: Adobe Illustrator 21.1.0, SVG Export Plug-In . SVG Version: 6.00 Build 0)  -->
<svg version="1.1" id="圖層_1" xmlns="http://www.w3.org/2000/svg" xmlns:xlink="http://www.w3.org/1999/xlink" x="0px" y="0px"
	 viewBox="0 0 200 181.2" style="enable-background:new 0 0 200 181.2;" xml:space="preserve">
<style type="text/css">
	.st0{fill:#7A212E;}
</style>
<path class="st0" d="M188.2,0h-76.4C105.3,0,100,5.3,100,11.8v157.6c0,6.5,5.3,11.8,11.8,11.8h76.4c6.5,0,11.8-5.3,11.8-11.8V11.8
	C200,5.3,194.7,0,188.2,0z M135.2,6.2h29.7c1.1,0,2.1,0.9,2.1,2.1s-0.9,2.1-2.1,2.1h-29.7c-1.1,0-2.1-0.9-2.1-2.1S134,6.2,135.2,6.2
	z M150,175.6c-4.6,0-8.3-3.7-8.3-8.3s3.7-8.3,8.3-8.3c4.6,0,8.3,3.7,8.3,8.3S154.6,175.6,150,175.6z M190.6,153.5h-81.2V16.7h81.2
	V153.5z"/>
<path class="st0" d="M16.7,171.9V90.6h74v-9.4H11.8C5.3,81.2,0,86.5,0,93.1v76.4c0,6.5,5.3,11.8,11.8,11.8h78.8v-9.4L16.7,171.9
	L16.7,171.9z M10.4,146.1c0,1.1-0.9,2.1-2.1,2.1s-2.1-0.9-2.1-2.1v-29.7c0-1.2,0.9-2.1,2.1-2.1s2.1,0.9,2.1,2.1V146.1z"/>
<path class="st0" d="M90.6,30.7L80.1,20.2V26H52.5C38,26,26.2,37.8,26.2,52.3v19.5h9.4V52.3c0-9.4,7.6-16.9,16.9-16.9h27.6v5.9
	L90.6,30.7z"/>
</svg>
