<?xml version="1.0" encoding="utf-8"?>
<!-- Generator: Adobe Illustrator 26.0.3, SVG Export Plug-In . SVG Version: 6.00 Build 0)  -->
<svg version="1.1" id="text-feature-01.svg" xmlns="http://www.w3.org/2000/svg" xmlns:xlink="http://www.w3.org/1999/xlink"
	 x="0px" y="0px" viewBox="0 0 180.8 61.4" style="enable-background:new 0 0 180.8 61.4;" xml:space="preserve">
<style type="text/css">
	.st0{fill:none;stroke:#1147B4;stroke-width:2;stroke-linecap:round;stroke-dasharray:1.000000e-03,4;}
	.st1{fill:#1147B4;}
	.st2{fill:#111111;}
</style>
<path id="シェイプ_1024" class="st0" d="M41.6,28.8H139"/>
<g>
	<path class="st1" d="M62.7,14.5c-0.7,2.3-1.7,4.1-3.1,5.7c1.2,0.8,2.6,1.3,4.1,1.7c-0.6,0.5-1.3,1.6-1.7,2.2
		c-1.7-0.5-3.1-1.2-4.4-2.2c-1.2,0.9-2.6,1.6-4,2.1c-0.3-0.6-0.8-1.4-1.3-1.9v2h-2.7v-2c-2.7,0.3-5.5,0.6-7.6,0.8l-0.3-2.4
		c0.6,0,1.4-0.1,2.1-0.1v-7.3H42v-2.2h21.3v2.2h-11v8.7c1.2-0.4,2.4-1,3.4-1.7c-0.9-1-1.6-2.2-2.2-3.6l1.6-0.4h-2.3V14h7.7l0.5-0.1
		L62.7,14.5z M47.1,10.3h-2.7V2.6H61v7.7h-2.9V4.6h-11V10.3z M46.4,13.1V14h3.1v-0.9H46.4z M46.4,17h3.1v-1h-3.1V17z M46.4,20.2
		c1-0.1,2.1-0.2,3.1-0.3v-1h-3.1V20.2z M57.3,7.2h-9.5V5.5h9.5V7.2z M47.8,8.1h9.4v1.8h-9.4C47.8,9.9,47.8,8.1,47.8,8.1z M55.8,16.1
		c0.4,0.9,1,1.7,1.7,2.4c0.7-0.7,1.2-1.5,1.7-2.4H55.8z"/>
	<path class="st1" d="M86.9,4.1v2.4h-21V4.1h9.2c-0.2-0.6-0.4-1.2-0.6-1.7l2.9-0.7c0.3,0.7,0.6,1.6,0.9,2.4H86.9z M86.4,21.6
		c0,1.2-0.3,1.7-1.2,2.1C84.3,24,83.1,24,81.4,24c-0.1-0.6-0.5-1.4-0.8-2h-6.8v1h-2.6v-6.3h10.4V22h-0.3c0.8,0,1.7,0,1.9,0
		c0.3,0,0.5-0.1,0.5-0.4v-5.8H69.3v8.4h-2.7V13.5h19.8C86.4,13.5,86.4,21.6,86.4,21.6z M84.1,12.5h-15V7.4h15V12.5z M81.1,9.3h-9.2
		v1.3h9.2V9.3z M79,18.6h-5.2V20H79V18.6z"/>
	<path class="st1" d="M96.4,2.8c-0.5,1.4-1.1,2.9-1.8,4.3v17h-2.8V11.8c-0.5,0.8-1.1,1.5-1.6,2.1c-0.2-0.7-1-2.3-1.5-3
		c2-2.2,4-5.6,5.1-9L96.4,2.8z M104.6,16.3v5.1c0,1.2-0.2,1.9-1.1,2.3c-0.8,0.4-2,0.4-3.5,0.4c-0.1-0.8-0.5-1.8-0.8-2.5
		c0.8,0,1.9,0,2.2,0c0.3,0,0.4-0.1,0.4-0.3v-4.7c-1.8,0.1-2.9,0.3-3.6,0.4l2.5,0.7c-0.9,1.8-2.2,3.9-3.5,5.2
		c-0.6-0.5-1.5-1.1-2.1-1.4c1.1-1.2,2.3-3.1,3-4.5c-0.7,0.1-1,0.1-1.3,0.3c-0.1-0.4-0.5-1.6-0.8-2.2c0.8-0.1,1.6-0.6,2.9-1.4
		c0.5-0.3,1.6-1,2.8-1.9c-3.4,0.2-4.1,0.3-4.6,0.5c-0.1-0.5-0.5-1.6-0.7-2.3c0.5-0.1,1-0.4,1.7-0.8c0.6-0.4,2.3-1.6,3.8-3.1
		c-1.5,0.4-3.1,0.7-4.5,1c-0.1-0.6-0.5-1.6-0.8-2.2c3.8-0.8,8-2,10.6-3.2l1.9,2.2c-1.6,0.7-3.6,1.3-5.6,1.8l1.5,0.7
		c-1.2,1.2-2.5,2.2-3.9,3.2l3.6-0.1c1-0.9,2-1.8,3-2.7l1.9,1.6c-2.4,2.3-5.1,4.3-7.7,6l5.4-0.4c-0.5-0.6-1-1.1-1.4-1.6l2.1-1.3
		c1.3,1.4,3,3.3,3.7,4.5l-2.3,1.5c-0.1-0.3-0.3-0.6-0.6-1L104.6,16.3z M108,16.6c1.2,1.4,2.6,3.3,3.1,4.5l-2.5,1.3
		c-0.5-1.3-1.8-3.3-3-4.7L108,16.6z"/>
	<path class="st1" d="M133.7,8.8c-0.4,3.5-1.1,6.4-2.2,8.8c1,1.9,2.4,3.4,4.1,4.3c-0.6,0.5-1.4,1.5-1.8,2.2c-1.5-1-2.8-2.4-3.8-4.1
		c-1.3,1.8-3,3.1-5.2,4.2c-0.1-0.3-0.5-0.9-0.8-1.4l-0.7,0.6c-0.8-0.5-1.7-0.9-2.9-1.4c-1.5,0.8-3.6,1.6-6.6,2.1
		c-0.2-0.5-0.7-1.4-1.1-1.8c2.1-0.3,3.7-0.7,5-1.2c-1.1-0.4-2.2-0.7-3.3-1c0.4-0.5,0.9-1.1,1.3-1.8h-2.5v-1.9h3.7
		c0.2-0.4,0.4-0.7,0.6-1.1h-3.3v-4.2h4.2v-0.7h-3.8V7.8H113v-2h1.6V3.3h3.8V1.9h2.1v1.4h4.1v2.5h1.2v2h-1.2v2.6h-4.1v0.7h4.4v1
		c1.3-2.6,2.3-6.5,2.9-10.2l2.3,0.4c-0.2,1.3-0.5,2.7-0.8,4h5.8v2.5C135.1,8.8,133.7,8.8,133.7,8.8z M116.6,13.7h1.9v-1h-1.9V13.7z
		 M116.8,5.1v0.8h1.7V5.1H116.8z M118.5,8.6v-1h-1.7v1H118.5z M118.4,18.3c-0.2,0.3-0.4,0.5-0.5,0.8c0.8,0.2,1.5,0.4,2.3,0.7
		c0.6-0.5,1-1,1.2-1.5H118.4z M123.7,18.3c-0.2,0.8-0.6,1.6-1.3,2.4c0.8,0.3,1.5,0.6,2.2,1c1.9-1,3.2-2.4,4.2-4.1
		c-0.6-1.5-1-3.1-1.4-4.9c-0.3,0.7-0.6,1.4-1,2c-0.3-0.3-0.9-1-1.4-1.4v2.1h-5c-0.2,0.4-0.4,0.7-0.5,1.1h2.1v-0.7h2.2v0.7h2v1.9
		h-2.1L123.7,18.3L123.7,18.3z M120.7,5.1v0.8h1.9V5.1H120.7z M122.5,8.6v-1h-1.9v1H122.5z M120.7,12.7v1h2v-1H120.7z M128.8,8.8
		c0.3,2.1,0.8,4,1.4,5.7c0.5-1.7,0.9-3.6,1.1-5.7H128.8z"/>
	<path class="st1" d="M137.2,6.5L138,5l-1.7-0.7l0.3-1l1.7,0.3l0.2-1.8h1l0.2,1.8l1.7-0.3l0.3,1L140.1,5l1,1.5l-0.7,0.7l-1.2-1.3
		L138,7.2L137.2,6.5z"/>
</g>
<g>
	<path class="st2" d="M38.8,46.7c1.3,1.1,2.9,2.6,3.8,3.7l-1.9,0.8c-0.3-0.4-0.7-0.9-1.2-1.4l-3.9,0.3v2.2c0,1-0.2,1.4-1,1.7
		s-1.7,0.3-2.9,0.3c-0.2-0.6-0.5-1.4-0.8-1.8c0.8,0,1.9,0,2.1,0c0.3,0,0.4-0.1,0.4-0.3v-2c-4.2,0.3-5,0.5-5.6,0.7
		c-0.1-0.4-0.4-1.3-0.5-1.8c0.7-0.1,1.4-0.3,2.5-0.7c0.5-0.2,1.5-0.6,2.7-1.1c-2.9,0.2-3.6,0.4-3.9,0.5c-0.1-0.5-0.4-1.3-0.5-1.7
		c0.5-0.1,0.9-0.2,1.5-0.5c0.5-0.2,2.2-0.9,3.6-1.8c-2.5,0.4-5.1,0.8-6.9,1L26,43l1.1-0.1v-4H29v3.8l1.1-0.2v-5h2v1.6h2.2v1.7h-2.2
		v1.4l2.3-0.2v1.7L34,43.8l1.1,1c-0.7,0.4-1.4,0.8-2.2,1.1l2.9-0.2c0.5-0.3,1.1-0.7,1.6-1l1.3,1.5c-1.7,1-3.5,1.9-5.3,2.6l4.6-0.3
		c-0.3-0.3-0.6-0.6-1-0.9L38.8,46.7z M31.9,51.4c-1.1,1-2.8,2-4.2,2.6c-0.4-0.4-1.1-1-1.6-1.3c1.4-0.5,2.9-1.3,3.9-2L31.9,51.4z
		 M37.7,44.4c-2.2,0-2.7-0.5-2.7-2.4v-4.5h2.1V39H42v1.8h-4.9V42c0,0.6,0.2,0.6,0.8,0.6H40c0.6,0,0.7-0.2,0.8-1.3
		c0.5,0.3,1.3,0.6,1.8,0.7c-0.2,1.9-0.8,2.3-2.4,2.3C40.1,44.4,37.7,44.4,37.7,44.4z M38.1,50.5c1.4,0.7,3.1,1.7,4.2,2.3l-1.7,1.1
		c-1-0.7-2.7-1.7-4.1-2.4L38.1,50.5z"/>
	<path class="st2" d="M51.7,40l1.5,0.5c-0.8,7.3-3.4,11.7-7.4,13.8c-0.4-0.5-1.3-1.4-1.8-1.8c2-1,3.7-2.4,4.8-4.6
		c-0.6-0.8-1.5-1.7-2.3-2.6c-0.3,0.5-0.6,1-0.9,1.4c-0.4-0.4-1.3-1.1-1.8-1.4c1.6-1.8,2.6-4.8,3.2-7.9l2.2,0.4
		c-0.2,0.8-0.4,1.5-0.5,2.3h2.6L51.7,40z M47.9,42.1c-0.2,0.5-0.3,0.9-0.5,1.4c0.8,0.7,1.6,1.5,2.3,2.3c0.4-1.1,0.7-2.3,0.9-3.6
		h-2.7V42.1z M59.1,48.5c-0.6-0.9-1.8-2.2-2.9-3.4v9.2H54V37.5h2.3v6l0.8-0.6c1.2,1.2,3.1,3,3.9,4.1L59.1,48.5z"/>
	<path class="st2" d="M67,48.7c0-0.2-0.1-0.5-0.2-0.8c-3.2,0.5-3.9,0.7-4.2,0.8c-0.1-0.4-0.5-1.4-0.7-2c0.5-0.2,0.9-0.5,1.4-1.2
		c0.2-0.2,0.6-0.8,1.1-1.4c-1.3,0.2-1.7,0.3-2,0.4c-0.1-0.4-0.5-1.4-0.7-1.9c0.4-0.1,0.7-0.5,1-1c0.4-0.5,1.4-2.5,2-4.4l2,0.8
		c-0.6,1.4-1.4,3-2.3,4.2l1.2-0.1c0.5-0.8,0.9-1.6,1.3-2.4l1.8,1.1c-0.7,1.3-1.5,2.5-2.4,3.7l1.4-0.4c0.4,1.2,0.8,2.8,1,3.8L67,48.7
		z M64.3,49.5c-0.2,1.7-0.5,3.4-0.8,4.6c-0.4-0.2-1.1-0.5-1.6-0.5c0.5-1.1,0.7-2.7,0.8-4.3L64.3,49.5z M66.1,49.3
		c0.2,1.2,0.4,2.7,0.4,3.9l-1.6,0.3c0-1.1-0.2-2.6-0.3-3.9L66.1,49.3z M66.5,46.3c-0.1-0.5-0.2-0.8-0.3-1.2c-0.4,0.5-0.8,1-1.2,1.4
		L66.5,46.3z M67.8,48.8c0.3,0.8,0.6,1.8,0.8,2.5l-1.4,0.5c-0.1-0.7-0.4-1.7-0.7-2.5L67.8,48.8z M72.8,47.4c-0.6,2.8-2,4.8-3.8,6
		c-0.2-0.5-0.8-1.1-1.2-1.5c1.1-0.6,2-1.8,2.6-3.2h-1.6V47h2.4l0.3-0.1L72.8,47.4z M78.7,47.6c-0.8,0.6-1.7,1.4-2.3,1.9
		c0.7,1.1,1.6,2,2.6,2.5c-0.5,0.4-1.1,1.2-1.4,1.7c-1.1-0.8-1.9-1.7-2.6-3v1.5c0,1-0.2,1.5-0.8,1.8s-1.4,0.4-2.6,0.4
		c-0.1-0.6-0.3-1.4-0.6-2c0.7,0,1.4,0,1.6,0s0.3-0.1,0.3-0.2V46h-3.5v-6.6H72c0.2-0.7,0.5-1.4,0.6-1.9L75,38c-0.3,0.5-0.5,1-0.8,1.5
		h3.9v6.6h-3.2v0.6c0.2,0.5,0.4,1,0.5,1.4c0.6-0.5,1.2-1.2,1.6-1.7L78.7,47.6z M71.4,41.9H76V41h-4.6V41.9z M71.4,44.3H76v-1h-4.6
		V44.3z"/>
	<path class="st2" d="M86.8,39c-0.5,1.6-1.1,3.6-1.7,5c1.1,1.4,1.4,2.6,1.4,3.7c0,1.2-0.2,2-0.8,2.3c-0.3,0.2-0.6,0.4-1.1,0.4
		c-0.4,0.1-0.8,0.1-1.2,0.1c0-0.5-0.2-1.4-0.5-2c0.3,0,0.6,0,0.8,0c0.2,0,0.4,0,0.5-0.2c0.2-0.2,0.3-0.5,0.3-1.1
		c0-0.8-0.2-2-1.3-3.2c0.4-1.1,0.8-2.8,1.1-4.1h-1.6V54h-2V38.3H85l0.3-0.1L86.8,39z M90.8,42.4c0,0.8-0.1,1.4-0.1,2.1h4.9
		c0,0,0,0.6,0,0.9c-0.2,5.2-0.4,7.3-0.9,8c-0.4,0.5-0.8,0.8-1.4,0.8c-0.5,0.1-1.4,0.1-2.3,0.1c0-0.6-0.3-1.5-0.7-2.1
		c0.8,0.1,1.5,0.1,1.9,0.1c0.3,0,0.5-0.1,0.6-0.3c0.3-0.4,0.5-1.8,0.6-5.5h-2.9c-0.5,3.4-1.6,6-4.7,7.9c-0.3-0.5-0.9-1.3-1.4-1.7
		c3.9-2,4.2-5.6,4.2-10.3h-2.3v-2h4.4c-0.2-0.7-0.5-1.7-0.8-2.5l2-0.5c0.3,0.8,0.7,1.9,0.8,2.6l-1.5,0.5h5.3v1.9H90.8z"/>
	<path class="st2" d="M102.6,38.4c-1.1,1.2-2.7,2.5-4,3.2c-0.2-0.4-0.5-1.1-0.8-1.4c1.1-0.6,2.5-1.7,3.2-2.5L102.6,38.4z M99.8,44.4
		c-0.5,0.3-0.8,0.5-1.3,0.8c-0.1-0.5-0.5-1.3-0.7-1.7c1.1-0.6,2.6-1.7,3.3-2.5l1.5,0.7v-1h2.6v-1h-1c-0.2,0.2-0.3,0.4-0.4,0.6
		c-0.3-0.2-1-0.5-1.4-0.6c0.5-0.6,0.9-1.4,1.1-2.2l1.5,0.4c-0.1,0.2-0.1,0.3-0.2,0.5h3.9v1.4h-2v1h2.3V42h-2.3v0.8h2v1.1h-2v0.8
		l2.2-0.2c0,0.5-0.1,1.1,0,1.4c-5.1,0.4-5.8,0.5-6.3,0.7c-0.1-0.4-0.3-1-0.5-1.4c0.3-0.1,0.6-0.3,0.6-0.9v-1.9h1.4v2.3l0.9-0.1v-2.9
		h-2.6v-0.1c-0.4,0.4-0.8,0.8-1.1,1.1v3.5h-1.7L99.8,44.4L99.8,44.4z M114.8,50.7h-4.5c1.4,0.6,3.3,1.4,4.3,2l-1.1,1.5
		c-1-0.7-3.1-1.7-4.7-2.4l1-1.2h-2.2v3.6h-2.2v-3.5h-3.2l1.4,0.5c-1,1.1-2.6,2.3-4,3c-0.3-0.4-0.9-1.2-1.3-1.7
		c1.1-0.5,2.4-1.1,3.2-2H98V49h16.6v1.6h0.2V50.7z M100.4,47h12v1.4h-12V47z M111.3,46.5h-1.7v-8.3h4.6v5.7c0,0.7-0.1,1.1-0.5,1.3
		c-0.4,0.3-1,0.3-1.7,0.3c-0.1-0.5-0.3-1.1-0.5-1.4c0.4,0,0.8,0,0.9,0s0.2-0.1,0.2-0.2v-4.1h-1.4L111.3,46.5L111.3,46.5z"/>
	<path class="st2" d="M131.8,42.6c-0.4,2.7-1.1,5.1-2.1,7c0.9,1.3,2,2.3,3.2,3.1c-0.5,0.4-1.1,1.2-1.5,1.7c-1.2-0.8-2.2-1.7-3-2.9
		c-1.1,1.2-2.3,2.3-3.9,3c-0.3-0.4-1.1-1.2-1.5-1.6c1.8-0.8,3.2-1.9,4.2-3.3c-0.5-1-0.9-2-1.3-3.2c-0.2,0.4-0.5,0.8-0.8,1.1
		c-0.2-0.4-0.8-1.2-1.2-1.7l-0.8,0.5c-0.1-0.2-0.2-0.5-0.3-0.8c-0.3,1-0.6,2-1,2.8c0.9,1.1,1.7,2.1,2.3,2.9l-1.7,1.4
		c-0.4-0.7-0.9-1.5-1.6-2.3c-0.9,1.5-2.1,2.8-3.6,3.8c-0.3-0.4-1-1.2-1.4-1.6c1.6-0.9,2.7-2.2,3.6-3.9c-0.6-0.7-1.2-1.4-1.8-2
		c-0.2,0.2-0.4,0.5-0.5,0.7c-0.3-0.4-1.1-1.1-1.4-1.4c0.9-1.1,1.8-2.6,2.3-4l1.8,0.6c-0.5,1.3-1.4,2.7-2,3.9l1.4-1
		c0.4,0.4,0.8,0.8,1.2,1.2c0.2-0.6,0.4-1.2,0.5-1.9l1.7,0.3c-0.5-0.8-1-1.7-1.6-2.4l1.3-0.8h-6.2v-2h3.6c-0.2-0.6-0.6-1.3-0.9-1.9
		l1.8-0.7c0.5,0.7,0.9,1.5,1.1,2.1l-1.1,0.5h4.2v2h-2c0.7,0.8,1.4,1.9,1.9,2.8c1.1-1.9,1.7-4.5,2.1-7.2l2,0.3
		c-0.2,1-0.3,1.9-0.5,2.8h4.5v2C132.6,42.6,131.8,42.6,131.8,42.6z M127.6,42.6c-0.2,0.4-0.2,0.8-0.4,1.1c0.3,1.3,0.8,2.6,1.3,3.7
		c0.6-1.4,1-2.9,1.2-4.8H127.6z"/>
	<path class="st2" d="M145.2,48.9c1.6,1.3,3.8,2.4,5.8,3c-0.5,0.5-1.1,1.3-1.4,1.8c-2.1-0.8-4.3-2.2-6-3.9v4.5h-2.3V50
		c-1.7,1.7-3.9,3.1-6,3.9c-0.3-0.5-1-1.4-1.4-1.8c2.1-0.6,4.4-1.8,5.9-3.2h-5.4v-2h6.9v-1.1h-5.1v-7.6h12.6v7.6h-5.2v1.1h6.9v2
		H145.2z M138.4,41.2h2.9v-1.1h-2.9V41.2z M141.4,44.1V43h-2.9v1.1H141.4z M146.4,40.1h-2.9v1.1h2.9V40.1z M146.4,42.9h-2.9V44h2.9
		V42.9z"/>
</g>
</svg>
