<?xml version="1.0" encoding="utf-8"?>
<!-- Generator: Adobe Illustrator 26.0.3, SVG Export Plug-In . SVG Version: 6.00 Build 0)  -->
<svg version="1.1" id="text-feature-03-02_sp.svg" xmlns="http://www.w3.org/2000/svg" xmlns:xlink="http://www.w3.org/1999/xlink"
	 x="0px" y="0px" viewBox="0 0 380.3 42" style="enable-background:new 0 0 380.3 42;" xml:space="preserve">
<style type="text/css">
	.st0{fill:none;stroke:#1147B4;stroke-width:2.8542;stroke-linecap:round;stroke-dasharray:1.427103e-03,5.7084;}
	.st1{fill:#1147B4;}
</style>
<path id="シェイプ_1024_00000147923088979511539060000010929865448062695598_" class="st0" d="M1.4,40.5h377.5"/>
<g>
	<path class="st1" d="M8,16.1c-1.1-1.1-3.6-2.6-5.6-3.4l2.3-3c2,0.7,4.4,2,5.7,3.1L8,16.1z M11.3,21.1C10,24.7,8.4,28.7,6.9,32
		l-3.7-2.3c1.4-2.6,3.3-6.9,4.7-10.8L11.3,21.1z M9.6,7C8.4,6,6,4.3,4,3.4l2.3-3c1.9,0.9,4.4,2.3,5.6,3.3L9.6,7z M28.7,12.7
		c1.7,1.9,3.9,3.6,6.4,4.4c-0.9,0.7-2,2.1-2.6,3.1c-0.4-0.1-0.9-0.4-1.4-0.7c1.6,2.4,3.1,5.4,3.9,7.6l-3.4,1.7
		c-0.7-2.3-2.4-6-4.3-8.6L30,19c-2.3-1.6-4.3-3.7-5.7-6.3h-3.1c-1.6,2.7-3.4,5.1-6.1,7l3,1.1c-0.9,2.9-2.1,5.9-4.3,7.8l-3-2.1
		c1.9-1.7,3.3-4.3,4.1-6.9c-0.7,0.4-1.4,0.9-2.3,1.3c-0.6-0.9-1.7-2.4-2.6-3.1c2.7-1.3,4.9-3.1,6.4-5.3h-5V8.8h7.1
		c0.4-1,0.7-2,1-3.1H13V2h20.1v3.7h-9.3c-0.3,1-0.6,2.1-1,3.1h11.4v3.7h-5.6V12.7z M26,20.1c1,2.3,2,5.1,2.4,7l-3.1,1.3
		C25,26.5,24,23.5,23,21.3v7c0,1.7-0.3,2.7-1.4,3.4c-1.1,0.6-2.7,0.7-4.9,0.7c-0.1-1.1-0.6-2.6-1-3.7c1.3,0,2.6,0,3,0
		c0.4,0,0.6-0.1,0.6-0.4V16.1H23v5.1L26,20.1z"/>
	<path class="st1" d="M52.9,6.4c0,0,0,1.3,0,1.9c-0.3,14.6-0.6,19.8-1.6,21.4c-0.9,1.1-1.6,1.6-2.6,1.7c-1,0.1-2.6,0.1-4.1,0.1
		c0-1.1-0.4-2.9-1.1-4.1c1.4,0.1,2.6,0.1,3.3,0.1c0.6,0,0.9-0.1,1.1-0.6c0.7-0.9,0.9-5.1,1.1-16.6h-3.4c-0.3,9.1-1.6,16.8-6,21.8
		c-0.6-1-2-2.4-3-3c3.9-4.3,4.7-10.8,5-18.8h-4v-4h4c0-1.9,0-3.7,0-5.7h4c0,1.9,0,3.9,0,5.7H52.9z M67.2,4.1v27.1h-4.1v-2.1h-4.4
		v2.4h-4V4.1H67.2z M63.1,25.3V8.1h-4.4v17.1H63.1z"/>
	<path class="st1" d="M86.6,0.1v3.7h-7.3V22h-4.1V0.1H86.6z"/>
	<path class="st1" d="M107.6,23.8c4.1,1.4,9.6,3.6,12.4,5l-1.9,3.4c-3-1.7-9.3-4.3-13.7-6l1.6-2.6h-1.3c-1.7,4.3-5.3,6.9-14.4,8.4
		c-0.3-1.1-1.3-2.9-2-3.7c6.9-0.9,10.1-2.4,11.7-4.7H89.8v-3.4h11.6c0.1-0.6,0.1-1.1,0.3-1.7H89.1V15h13.1v-1.7H92V9.8h10.1V8H89.9
		V4.4h6.6c-0.6-1-1.3-2.1-1.9-3L98.2,0c1,1.1,2.1,2.9,2.6,4l-1,0.4h7.6c0.9-1.3,1.9-3.1,2.4-4.4l4.4,1.1c-0.7,1.1-1.6,2.3-2.3,3.3
		h6.6V8h-12.1v1.7h10.4v3.4h-10.4V15h13.6v3.6h-14.1c0,0.6-0.1,1.1-0.3,1.7h13.4v3.4h-11.3V23.8z"/>
	<path class="st1" d="M150.8,28c0.1,0,0.3,0,0.4-0.1c0.1-0.1,0.1-0.4,0.1-1.1c0-0.7,0.1-2.4,0.1-4.4c0.9,0.7,2.1,1.4,3.1,1.7
		c0,1.9-0.1,4.1-0.4,5.1c-0.1,1-0.6,1.7-1.1,2.1c-0.4,0.4-1.3,0.6-2,0.6h-2c-0.9,0-1.7-0.3-2.4-0.9c-0.7-0.7-0.9-1.4-0.9-4.4V5.4
		h-3.7v10.1c0,5.3-0.4,12.7-3.7,17.1c-0.7-0.7-2.4-1.9-3.4-2.4c-0.1,0.4-0.6,0.7-1,1c-1,0.7-2.6,0.7-4.7,0.7c-0.1-1-0.6-2.9-1.1-3.9
		c1.3,0,2.6,0,2.9,0c0.4,0,0.6-0.1,0.6-0.6v-7.8c-0.9,0.9-1.7,1.7-2.6,2.6l-0.9-2.3c-0.3,4.3-1,9-2.6,12.3c-0.7-0.6-2.4-1.6-3.4-1.9
		c2.1-4.7,2.3-11.6,2.3-16.6V1.4h11.1v26.1c0,0.9,0,1.7-0.3,2.3c2.6-4,2.9-9.7,2.9-14.3V1.4H150v24.8c0,0.9,0,1.3,0.1,1.4
		c0,0.1,0.1,0.1,0.3,0.1h0.4V28z M128.3,13.8c0,1.4,0,2.9-0.1,4.4c1-0.7,2.3-1.6,3.6-2.6v-2.4l-1.1,1c-0.6-0.7-1.4-1.7-2.3-2.7V13.8
		z M128.3,5.3v4l1-0.9c0.9,0.7,1.7,1.6,2.4,2.4V5.3H128.3z"/>
	<path class="st1" d="M165.7,23.3h5.3v3.6h-5.3v5.4h-3.6v-5.4h-5.6v-3.6h5.6v-2h-4.4V8.8h4.4V7.1h-5V3.6h5V0.3h3.6v3.3h4.9v3.6h-4.9
		v1.7h4.6v12.4h-4.6V23.3z M160.7,13.7h2v-2h-2V13.7z M160.7,18.4h2v-2h-2V18.4z M167.4,11.7h-2.1v2h2.1V11.7z M167.4,16.4h-2.1v2
		h2.1V16.4z M181.4,8.1v2.1h6.4v18.1c0,1.6-0.1,2.6-1.1,3.3c-0.9,0.6-2.1,0.7-3.7,0.7c-0.1-1-0.4-2.6-0.9-3.6c0.7,0,1.4,0,1.7,0
		s0.3-0.1,0.3-0.4V25h-2.6v7.3H178V25h-2.6v7.4h-3.6V10.1h6.1v-2h-6.7V4.6h6.7V0.3h3.6v4.3h3.7c-0.9-0.9-2-1.9-3-2.6l2.3-1.9
		c1.3,0.9,3,2.1,3.7,3.1l-1.6,1.3h1.9v3.6C188.5,8.1,181.4,8.1,181.4,8.1z M175.2,13.7v2.1h2.6v-2.1H175.2z M177.8,21.4v-2.3h-2.6
		v2.3H177.8z M181.4,13.7v2.1h2.6v-2.1H181.4z M184,21.4v-2.3h-2.6v2.3H184z"/>
	<path class="st1" d="M221.8,9.4c-0.3,14-0.6,19.1-1.7,20.7c-0.9,1.1-1.6,1.6-2.9,1.7c-1.1,0.1-2.9,0.1-4.7,0.1
		c0-1.1-0.4-2.9-1.1-3.9c1.7,0.1,3.3,0.1,4,0.1c0.6,0,0.9-0.1,1.1-0.6c0.9-0.9,1.1-5.1,1.3-16.1h-3.6c-0.6,9-2.4,16.3-9,20.8
		c-0.6-1-1.9-2.4-2.9-3.1c1.7-1.1,3-2.4,4-3.9c-5.3,1.3-10.8,2.6-15,3.6l-0.7-4.1c0.7-0.1,1.6-0.3,2.4-0.4V1.7h11.8v20.1l1.4-0.3
		l0.4,3.3c2.3-3.6,3.1-8,3.4-13.3h-4.3V7.7h4.4c0-2.3,0-4.7,0-7.4h4c0,2.6,0,5,0,7.4h7.4V9.4z M196.7,5.3v3.4h4.6V5.3H196.7z
		 M201.2,12.4h-4.6V16h4.6V12.4z M196.7,23.5c1.4-0.3,3-0.6,4.6-0.9v-3.3h-4.6V23.5z"/>
	<path class="st1" d="M235,1.6c-0.7,2.1-1.6,4.3-2.6,6.4v24.3h-3.9V15.1c-0.7,1-1.4,2-2.1,2.9c-0.3-1-1.3-3.3-2-4.4
		c2.7-3.3,5.3-8.3,6.9-13.3L235,1.6z M254.2,7c-1,2-2.3,3.6-3.9,5c2.1,1,4.6,1.9,7.4,2.3c-0.7,0.7-1.7,2.3-2.1,3.3
		c-3.1-0.7-5.9-1.9-8.1-3.3c-2.3,1.6-5,2.7-7.8,3.6c-0.3-0.6-1.1-1.7-1.7-2.4v11.1h-3.6v-22h3.6v3.6c2.3-2.1,4.1-5,5.1-8l3.7,0.9
		c-0.3,0.9-0.7,1.7-1.1,2.6h11.1v3.3h-2.6V7z M237.9,14.6c2.4-0.6,4.6-1.4,6.6-2.6c-1-0.9-1.9-1.7-2.6-2.6c-0.6,0.7-1.3,1.4-2,2
		c-0.4-0.4-1.3-1.1-2-1.7L237.9,14.6L237.9,14.6z M257,24.4c-3.6,4.1-9.6,6.4-16.6,7.7c-0.4-1-1.3-2.3-2-3.3
		c6.3-0.9,12.3-2.7,15.1-6L257,24.4z M250.7,17.3c-2.1,2.1-5.6,3.7-8.7,4.9c-0.4-0.7-1.4-1.7-2.1-2.3c2.9-0.7,6.1-2.1,7.8-3.7
		L250.7,17.3z M254,20.3c-2.7,3-7.3,5-12,6.1c-0.4-0.7-1.3-1.9-2-2.6c4.3-0.9,8.7-2.6,11-4.9L254,20.3z M243.9,7
		c0.9,1.1,2,2.1,3.3,3.1c1.1-0.9,2-2,2.7-3.1C249.9,7,243.9,7,243.9,7z"/>
	<path class="st1" d="M272.1,9.1h-12.7V6h5.7c-0.6-1.3-1.4-3-2.1-4.3l3-1.4c0.9,1.4,2,3.3,2.6,4.6l-2.3,1.3h5.9L272.1,9.1L272.1,9.1
		z M290.1,22.8c-1.1,2-2.7,3.7-4.7,5.1c1.9,0.6,4.1,0.9,6.3,1.1c-0.9,0.9-1.7,2.3-2.3,3.3c-3-0.4-5.7-1.1-8-2.3
		c-2.6,1.1-5.6,1.9-8.7,2.3c-0.3-0.9-1-2.3-1.7-3.1v1.3h-7V32h-3.3V20H271v9.1c2.4-0.3,4.9-0.7,6.9-1.4c-1-0.9-1.9-1.7-2.7-2.9
		l1.3-0.4h-3.7v-2.7H287l0.6-0.1L290.1,22.8z M277,5h-4.7V2h4.7V0.3h3.6v6.3h-3l0.9,0.3c-0.1,0.6-0.4,1-0.7,1.6h3
		c-0.1-0.6-0.3-1.1-0.6-1.6l2.9-0.7V0.3h3.6V2h4.6v3h-4.6v1.7H284c0.3,0.6,0.4,1.1,0.6,1.7h5.6v2.4h-5.9V12h5v2h-5v1.1h5v2h-5v1.3
		h6.6v2.4h-13.6v0.6h-3.4v-7.1c-0.4,0.4-0.9,0.9-1.1,1.3c-0.3-0.7-1.3-2.1-1.9-2.9v1h-10.1v-3h10.1v1.7c1.7-1.7,3.3-4.1,4.1-6.6
		l1.9,0.6V5H277z M260.9,15.3H271v3.1h-10.1V15.3z M267.7,23.3h-3.6v3.9h3.6V23.3z M281.1,10.8h-3.6V12h3.6V10.8z M281.1,14h-3.6
		v1.1h3.6V14z M281.1,17.1h-3.6v1.3h3.6V17.1z M279.1,24.5c0.7,0.7,1.6,1.3,2.6,1.9c1-0.6,2-1.1,2.9-1.9H279.1z"/>
	<path class="st1" d="M302.1,16.7c0-8.4,5.4-13.3,11.8-13.3c3.3,0,5.9,1.6,7.4,3.3l-2.6,3.3c-1.3-1.3-2.7-2.1-4.7-2.1
		c-3.9,0-6.7,3.3-6.7,8.7c0,5.6,2.6,8.8,6.6,8.8c2.1,0,3.9-1,5.3-2.6L322,26c-2.1,2.4-4.9,3.7-8.1,3.7
		C307.4,29.8,302.1,25.1,302.1,16.7z"/>
	<path class="st1" d="M326,3.9h8.3c5.6,0,10,2,10,8c0,5.9-4.3,8.4-9.8,8.4h-3.3v9H326V3.9z M334.1,16.3c3.4,0,5.1-1.4,5.1-4.4
		s-1.9-4-5.3-4h-2.9v8.3h3V16.3z"/>
	<path class="st1" d="M352.2,16.3L345.5,4h5.6l2.6,5.3c0.6,1.1,1.1,2.4,1.9,4h0.1c0.6-1.6,1.1-2.9,1.7-4l2.4-5.3h5.3l-6.7,12.6
		l7.1,12.8h-5.6l-2.9-5.6c-0.7-1.3-1.3-2.6-2-4.1h-0.1c-0.6,1.6-1.3,2.9-1.9,4.1l-2.7,5.6h-5.4L352.2,16.3z"/>
	<path class="st1" d="M366.5,32.4v-3.7h7.3V10.6h4.1v21.8H366.5z"/>
</g>
</svg>
