<?xml version="1.0" encoding="utf-8"?>
<!-- Generator: Adobe Illustrator 26.0.3, SVG Export Plug-In . SVG Version: 6.00 Build 0)  -->
<svg version="1.1" id="text-feature-01_sp.svg" xmlns="http://www.w3.org/2000/svg" xmlns:xlink="http://www.w3.org/1999/xlink"
	 x="0px" y="0px" viewBox="0 0 383.1 75.8" style="enable-background:new 0 0 383.1 75.8;" xml:space="preserve">
<style type="text/css">
	.st0{fill:none;stroke:#1147B4;stroke-width:3;stroke-linecap:round;stroke-dasharray:1.000000e-03,6;}
	.st1{fill:#1147B4;}
	.st2{fill:#111111;}
</style>
<path id="シェイプ_1024" class="st0" d="M110.4,42.9H246"/>
<g>
	<path class="st1" d="M141.7,18.2c-1,3.2-2.4,5.7-4.3,8c1.7,1.1,3.6,1.8,5.7,2.4c-0.8,0.7-1.8,2.2-2.4,3.1c-2.4-0.7-4.3-1.7-6.2-3.1
		c-1.7,1.3-3.6,2.2-5.6,2.9c-0.4-0.8-1.1-2-1.8-2.7v2.8h-3.8v-2.8c-3.7,0.5-7.6,0.9-10.6,1.2l-0.4-3.4c0.8,0,2-0.1,2.9-0.1V16.2
		h-2.5v-3.1h29.8v3.1h-15.4v12.2c1.7-0.6,3.4-1.4,4.8-2.4c-1.3-1.4-2.2-3.1-3.1-5l2.2-0.6h-3.2v-2.9h10.8l0.7-0.1L141.7,18.2z
		 M119.9,12.3h-3.8V1.5h23.2v10.8h-4.1v-8h-15.3V12.3z M118.9,16.2v1.3h4.3v-1.3H118.9z M118.9,21.7h4.3v-1.4h-4.3V21.7z
		 M118.9,26.2c1.4-0.1,2.9-0.3,4.3-0.4v-1.4h-4.3V26.2z M134.1,8h-13.3V5.6h13.3V8z M120.8,9.2H134v2.5h-13.2
		C120.8,11.8,120.8,9.2,120.8,9.2z M132,20.4c0.6,1.3,1.4,2.4,2.4,3.4c1-1,1.7-2.1,2.4-3.4H132z"/>
	<path class="st1" d="M175.6,3.6V7h-29.4V3.6h12.9c-0.3-0.8-0.6-1.6-0.9-2.3l4.1-1c0.4,1,0.8,2.2,1.3,3.4h12V3.6z M174.9,28.1
		c0,1.7-0.4,2.4-1.7,2.9c-1.3,0.4-2.9,0.4-5.3,0.4c-0.1-0.8-0.7-2-1.1-2.8h-9.5V30h-3.6v-8.8h14.6v7.4h-0.4c1.1,0,2.4,0,2.7,0
		c0.4,0,0.7-0.1,0.7-0.6v-8h-20.4v11.8h-3.8v-15h27.7C174.9,16.8,174.9,28.1,174.9,28.1z M171.7,15.4h-21V8.3h21V15.4z M167.5,10.9
		h-12.9v1.8h12.9C167.5,12.7,167.5,10.9,167.5,10.9z M164.5,23.9h-7.3v2h7.3V23.9z"/>
	<path class="st1" d="M188.9,1.8c-0.7,2-1.5,4.1-2.5,6v23.8h-3.9V14.4c-0.7,1.1-1.5,2.1-2.2,2.9c-0.3-1-1.4-3.2-2.1-4.2
		c2.8-3.1,5.6-7.8,7.1-12.6L188.9,1.8z M200.4,20.7v7.1c0,1.7-0.3,2.7-1.5,3.2c-1.1,0.6-2.8,0.6-4.9,0.6c-0.1-1.1-0.7-2.5-1.1-3.5
		c1.1,0,2.7,0,3.1,0c0.4,0,0.6-0.1,0.6-0.4v-6.6c-2.5,0.1-4.1,0.4-5,0.6l3.5,1c-1.3,2.5-3.1,5.5-4.9,7.3c-0.8-0.7-2.1-1.5-2.9-2
		c1.5-1.7,3.2-4.3,4.2-6.3c-1,0.1-1.4,0.1-1.8,0.4c-0.1-0.6-0.7-2.2-1.1-3.1c1.1-0.1,2.2-0.8,4.1-2c0.7-0.4,2.2-1.4,3.9-2.7
		c-4.8,0.3-5.7,0.4-6.4,0.7c-0.1-0.7-0.7-2.2-1-3.2c0.7-0.1,1.4-0.6,2.4-1.1c0.8-0.6,3.2-2.2,5.3-4.3c-2.1,0.6-4.3,1-6.3,1.4
		c-0.1-0.8-0.7-2.2-1.1-3.1c5-1.1,10.9-2.7,14.5-4.4l2.7,3.1c-2.2,1-5,1.8-7.8,2.5l2.1,1c-1.7,1.7-3.5,3.1-5.5,4.5l5-0.1
		c1.4-1.3,2.8-2.5,4.2-3.8l2.7,2.2c-3.4,3.2-7.1,6-10.8,8.4l7.6-0.6c-0.7-0.8-1.4-1.5-2-2.2l2.9-1.8c1.8,2,4.2,4.6,5.2,6.3l-3.2,2.1
		c-0.1-0.4-0.4-0.8-0.8-1.4L200.4,20.7z M205.1,21.1c1.7,2,3.6,4.6,4.3,6.3l-3.5,1.8c-0.7-1.8-2.5-4.6-4.2-6.6L205.1,21.1z"/>
	<path class="st1" d="M241.1,10.2c-0.6,4.9-1.5,9-3.1,12.3c1.4,2.7,3.4,4.8,5.7,6c-0.8,0.7-2,2.1-2.5,3.1c-2.1-1.4-3.9-3.4-5.3-5.7
		c-1.8,2.5-4.2,4.3-7.3,5.9c-0.1-0.4-0.7-1.3-1.1-2l-1,0.8c-1.1-0.7-2.4-1.3-4.1-2c-2.1,1.1-5,2.2-9.2,2.9c-0.3-0.7-1-2-1.5-2.5
		c2.9-0.4,5.2-1,7-1.7c-1.5-0.6-3.1-1-4.6-1.4c0.6-0.7,1.3-1.5,1.8-2.5h-3.5v-2.7h5.2c0.3-0.6,0.6-1,0.8-1.5h-4.6v-5.9h5.9v-1h-5.3
		V8.8h-2.2V6h2.2V2.5h5.3v-2h2.9v2h5.7V6h1.7v2.8h-1.7v3.6h-5.7v1h6.2v1.4c1.8-3.6,3.2-9.1,4.1-14.3l3.2,0.6
		c-0.3,1.8-0.7,3.8-1.1,5.6h8.1v3.5C243.1,10.2,241.1,10.2,241.1,10.2z M217.2,17.1h2.7v-1.4h-2.7V17.1z M217.4,5v1.1h2.4V5H217.4z
		 M219.8,9.9V8.5h-2.4v1.4H219.8z M219.7,23.5c-0.3,0.4-0.6,0.7-0.7,1.1c1.1,0.3,2.1,0.6,3.2,1c0.8-0.7,1.4-1.4,1.7-2.1H219.7z
		 M227.1,23.5c-0.3,1.1-0.8,2.2-1.8,3.4c1.1,0.4,2.1,0.8,3.1,1.4c2.7-1.4,4.5-3.4,5.9-5.7c-0.8-2.1-1.4-4.3-2-6.9
		c-0.4,1-0.8,2-1.4,2.8c-0.4-0.4-1.3-1.4-2-2v2.9h-7c-0.3,0.6-0.6,1-0.7,1.5h2.9v-1h3.1v1h2.8v2.7L227.1,23.5L227.1,23.5z M222.9,5
		v1.1h2.7V5H222.9z M225.4,9.9V8.5h-2.6v1.4H225.4z M222.9,15.7v1.4h2.8v-1.4C225.7,15.7,222.9,15.7,222.9,15.7z M234.2,10.2
		c0.4,2.9,1.1,5.6,2,8c0.7-2.4,1.3-5,1.5-8C237.7,10.2,234.2,10.2,234.2,10.2z"/>
	<path class="st1" d="M246.1,7.3l1.2-2.3l-2.5-1.1l0.5-1.4l2.5,0.5l0.2-2.6h1.4l0.2,2.6l2.5-0.5l0.5,1.4L250.2,5l1.4,2.3l-1.1,1.1
		l-1.8-1.9L247,8.3L246.1,7.3z"/>
</g>
<g>
	<path class="st2" d="M115.4,65.9c1.7,1.4,3.9,3.4,4.9,4.9l-2.5,1.1c-0.4-0.5-0.9-1.2-1.6-1.9l-5.2,0.4v2.9c0,1.3-0.3,1.9-1.3,2.3
		c-1,0.4-2.2,0.4-3.9,0.4c-0.2-0.8-0.6-1.8-1-2.4c1.1,0,2.5,0,2.8,0c0.4,0,0.5-0.1,0.5-0.4v-2.5c-5.5,0.4-6.5,0.6-7.3,0.9
		c-0.1-0.5-0.5-1.7-0.7-2.4c0.9-0.1,1.8-0.4,3.3-0.9c0.7-0.2,2-0.8,3.5-1.5c-3.9,0.3-4.7,0.5-5.2,0.7c-0.1-0.6-0.5-1.7-0.7-2.3
		c0.6-0.1,1.2-0.3,2-0.6c0.7-0.3,2.9-1.2,4.7-2.4c-3.3,0.5-6.6,1-9,1.3L98.6,61l1.5-0.1v-5.3h2.5v4.9l1.5-0.2v-6.5h2.7v2h2.9v2.3
		h-2.9V60l3-0.3v2.2l-0.6,0.1l1.5,1.3c-0.9,0.5-1.9,1-2.9,1.4l3.7-0.3c0.7-0.4,1.5-0.9,2-1.3l1.7,2c-2.2,1.3-4.5,2.5-6.9,3.4l6-0.4
		c-0.4-0.4-0.8-0.8-1.3-1.2L115.4,65.9z M106.4,72c-1.5,1.3-3.7,2.5-5.4,3.4c-0.5-0.5-1.5-1.3-2-1.7c1.8-0.7,3.9-1.7,5-2.7L106.4,72
		z M113.9,62.9c-2.9,0-3.5-0.7-3.5-3.2v-5.9h2.8v2h6.4v2.4h-6.4v1.6c0,0.8,0.2,0.8,1.1,0.8h2.8c0.8,0,0.9-0.3,1-1.7
		c0.6,0.4,1.7,0.8,2.4,0.9c-0.3,2.5-1.1,3-3.2,3C117.2,62.9,113.9,62.9,113.9,62.9z M114.5,70.8c1.8,0.9,4,2.2,5.4,3l-2.3,1.5
		c-1.3-0.9-3.5-2.3-5.4-3.2L114.5,70.8z"/>
	<path class="st2" d="M132.3,57.1l2,0.6c-1.1,9.5-4.5,15.3-9.7,18.1c-0.5-0.7-1.7-1.9-2.4-2.4c2.7-1.3,4.9-3.2,6.4-6
		c-0.8-1-2-2.2-3-3.4c-0.4,0.7-0.8,1.3-1.2,1.8c-0.5-0.5-1.7-1.4-2.4-1.8c2-2.4,3.5-6.2,4.2-10.3l2.9,0.5c-0.2,1-0.5,2-0.7,3h3.5
		H132.3z M127.4,59.9c-0.2,0.6-0.4,1.2-0.7,1.8c1,0.9,2,2,3,3c0.5-1.4,0.9-3,1.2-4.7H127.4z M142,68.2c-0.8-1.2-2.4-2.9-3.7-4.5
		v12.1h-3v-22h3v7.8l1-0.8c1.6,1.6,4,4,5.2,5.4L142,68.2z"/>
	<path class="st2" d="M152.3,68.4c0-0.3-0.1-0.7-0.2-1c-4.2,0.6-5,0.9-5.5,1.1c-0.1-0.5-0.6-1.8-0.9-2.5c0.6-0.2,1.2-0.7,1.9-1.6
		c0.3-0.3,0.8-1,1.4-1.9c-1.7,0.2-2.3,0.4-2.5,0.5c-0.1-0.5-0.6-1.8-0.9-2.5c0.5-0.1,0.9-0.6,1.3-1.3c0.5-0.7,1.9-3.3,2.5-5.7l2.5,1
		c-0.8,1.9-1.9,4-3,5.5l1.6-0.1c0.6-1,1.2-2,1.7-3.2l2.4,1.5c-0.9,1.7-2,3.3-3.2,4.9l1.8-0.5c0.5,1.6,1.1,3.7,1.3,4.9L152.3,68.4z
		 M148.8,69.6c-0.2,2.2-0.6,4.5-1.1,6c-0.5-0.2-1.5-0.6-2-0.7c0.6-1.4,0.9-3.5,1-5.7L148.8,69.6z M151.1,69.3c0.3,1.6,0.5,3.5,0.5,5
		l-2,0.4c0-1.4-0.2-3.5-0.4-5L151.1,69.3z M151.7,65.3c-0.1-0.6-0.3-1.1-0.4-1.6c-0.5,0.6-1,1.3-1.6,1.9L151.7,65.3z M153.4,68.6
		c0.4,1,0.8,2.4,1,3.3l-1.9,0.6c-0.1-0.9-0.5-2.3-0.9-3.3L153.4,68.6z M159.9,66.8c-0.8,3.7-2.5,6.4-4.9,7.9c-0.3-0.6-1.1-1.5-1.6-2
		c1.5-0.8,2.7-2.4,3.5-4.2h-2.1v-2.3h3.2l0.4-0.1L159.9,66.8z M167.6,67c-1.1,0.8-2.2,1.8-3,2.5c0.9,1.4,2,2.5,3.5,3.3
		c-0.6,0.5-1.5,1.6-1.9,2.3c-1.4-1-2.5-2.3-3.4-4v2c0,1.3-0.2,2-1,2.4c-0.8,0.4-1.9,0.5-3.4,0.5c-0.1-0.8-0.4-1.9-0.8-2.5
		c0.9,0,1.9,0,2,0c0.3,0,0.4-0.1,0.4-0.3v-8.1h-4.5v-8.6h3.4c0.3-0.9,0.6-1.8,0.8-2.5l3.2,0.6c-0.4,0.7-0.7,1.3-1.1,2h5V65h-4.2v0.8
		c0.2,0.7,0.5,1.3,0.7,1.9c0.8-0.7,1.6-1.6,2-2.3L167.6,67z M158.2,59.5h6v-1.1h-6V59.5z M158.2,62.7h6v-1.3h-6V62.7z"/>
	<path class="st2" d="M178.2,55.8c-0.6,2-1.5,4.7-2.2,6.5c1.5,1.9,1.8,3.5,1.8,4.9c0,1.6-0.3,2.5-1.1,3c-0.4,0.3-0.8,0.5-1.4,0.5
		c-0.5,0.1-1,0.1-1.6,0.1c0-0.7-0.2-1.8-0.6-2.5c0.4,0,0.8,0,1,0c0.3,0,0.5,0,0.7-0.2c0.3-0.2,0.4-0.7,0.4-1.4
		c0-1.1-0.3-2.5-1.7-4.2c0.5-1.5,1-3.7,1.4-5.4h-2v18.5h-2.7V54.8h5.7l0.4-0.1L178.2,55.8z M183.5,60.2c0,1-0.1,1.9-0.1,2.8h6.4
		c0,0,0,0.8,0,1.2c-0.2,6.9-0.5,9.6-1.2,10.5c-0.5,0.7-1.1,1-1.9,1.1c-0.7,0.1-1.9,0.1-3,0.1c0-0.8-0.4-2-0.9-2.8
		c1.1,0.1,2,0.1,2.5,0.1c0.4,0,0.6-0.1,0.8-0.4c0.4-0.5,0.7-2.4,0.8-7.2H183c-0.6,4.5-2,7.9-6.1,10.3c-0.4-0.7-1.2-1.7-1.8-2.2
		c5-2.7,5.4-7.3,5.5-13.4h-3v-2.5h5.7c-0.2-0.9-0.6-2.3-1-3.3l2.5-0.6c0.4,1,0.9,2.5,1.1,3.4l-2,0.6h6.9v2.5H183.5z"/>
	<path class="st2" d="M198.9,55c-1.4,1.6-3.5,3.3-5.2,4.2c-0.2-0.5-0.7-1.5-1-1.9c1.5-0.8,3.3-2.2,4.2-3.3L198.9,55z M195.3,62.9
		c-0.6,0.4-1.1,0.7-1.7,1c-0.1-0.6-0.6-1.7-0.9-2.3c1.5-0.8,3.5-2.2,4.4-3.3l2,0.9v-1.3h3.4v-1.3h-1.3c-0.2,0.3-0.4,0.5-0.5,0.8
		c-0.4-0.3-1.3-0.6-1.9-0.8c0.7-0.8,1.2-1.9,1.5-2.9l2,0.5c-0.1,0.2-0.1,0.4-0.2,0.6h5v1.8h-2.5v1.3h3v1.8h-3v1h2.7V62h-2.7v1.1
		l2.9-0.2c0,0.6-0.1,1.4,0,1.8c-6.6,0.5-7.6,0.7-8.2,0.9c-0.1-0.5-0.4-1.3-0.7-1.8c0.4-0.1,0.8-0.4,0.8-1.2v-2.3h1.9v3l1.2-0.1v-3.7
		h-3.4v-0.1c-0.5,0.5-1,1-1.5,1.5v4.5h-2.3L195.3,62.9C195.2,62.9,195.3,62.9,195.3,62.9z M214.9,71.1H209c1.9,0.8,4.4,1.9,5.7,2.7
		l-1.5,2c-1.3-0.9-4-2.3-6.1-3.2l1.3-1.6h-2.9v4.7h-2.9v-4.5h-4.2l1.9,0.7c-1.3,1.5-3.5,3-5.2,4c-0.4-0.5-1.2-1.6-1.7-2.2
		c1.5-0.6,3.2-1.5,4.2-2.5h-4.7v-2h21.8v2L214.9,71.1L214.9,71.1z M196,66.3h15.8v1.9H196V66.3z M210.4,65.6h-2.2V54.7h6v7.4
		c0,0.9-0.1,1.4-0.7,1.7c-0.5,0.4-1.3,0.4-2.2,0.4c-0.1-0.6-0.4-1.4-0.6-1.9c0.5,0,1,0,1.2,0c0.2,0,0.2-0.1,0.2-0.3v-5.4h-1.8V65.6z
		"/>
	<path class="st2" d="M237.2,60.5c-0.5,3.5-1.4,6.6-2.8,9.1c1.2,1.7,2.5,3,4.2,4c-0.6,0.5-1.5,1.6-2,2.3c-1.6-1-2.9-2.3-4-3.9
		c-1.4,1.6-3,3-5,4c-0.4-0.5-1.4-1.6-2-2c2.4-1,4.2-2.5,5.5-4.4c-0.7-1.3-1.2-2.7-1.7-4.2c-0.3,0.5-0.6,1-1,1.5
		c-0.3-0.5-1.1-1.6-1.6-2.2l-1.1,0.6c-0.1-0.3-0.2-0.6-0.4-1c-0.4,1.3-0.8,2.5-1.3,3.7c1.2,1.4,2.3,2.8,3,3.9l-2.3,1.8
		c-0.5-0.9-1.2-2-2-3c-1.2,2-2.8,3.7-4.7,4.9c-0.4-0.5-1.3-1.6-1.9-2c2-1.2,3.5-2.9,4.7-5c-0.8-0.9-1.6-1.8-2.4-2.5
		c-0.2,0.3-0.5,0.6-0.7,0.9c-0.4-0.5-1.4-1.4-1.9-1.8c1.2-1.4,2.4-3.4,3-5.2l2.4,0.8c-0.7,1.7-1.8,3.5-2.7,5l1.8-1.3
		c0.5,0.5,1.1,1.1,1.6,1.6c0.3-0.8,0.5-1.6,0.7-2.5l2.3,0.4c-0.6-1.1-1.3-2.2-2-3.2l1.7-1h-8.1V57h4.7c-0.3-0.8-0.8-1.7-1.2-2.5
		l2.4-0.9c0.6,0.9,1.2,2,1.5,2.8l-1.5,0.6h5.4v2.5h-2.7c0.9,1.1,1.9,2.5,2.5,3.7c1.4-2.5,2.3-5.9,2.8-9.4l2.5,0.4
		c-0.2,1.3-0.4,2.5-0.7,3.7h5.9v2.5C238.3,60.5,237.2,60.5,237.2,60.5z M231.7,60.5c-0.2,0.5-0.3,1-0.5,1.5c0.4,1.7,1,3.4,1.7,4.9
		c0.8-1.8,1.3-3.9,1.6-6.4C234.5,60.5,231.7,60.5,231.7,60.5z"/>
	<path class="st2" d="M254.7,68.7c2,1.7,4.9,3.2,7.6,4c-0.6,0.6-1.5,1.7-1.9,2.4c-2.8-1-5.7-2.9-7.8-5v5.9h-3v-5.7
		c-2.2,2.2-5,4-7.8,5c-0.4-0.7-1.3-1.8-1.9-2.4c2.8-0.8,5.7-2.4,7.7-4.2h-7v-2.5h9v-1.4h-6.7v-9.9h16.5v9.9h-6.9v1.4h9v2.5H254.7z
		 M245.9,58.7h3.7v-1.5h-3.7V58.7z M249.7,62.4V61H246v1.5H249.7z M256.4,57.2h-3.7v1.5h3.7V57.2z M256.4,60.9h-3.7v1.5h3.7V60.9z"
		/>
</g>
</svg>
