<svg xmlns="http://www.w3.org/2000/svg" width="172.656" height="43.62" viewBox="0 0 172.656 43.62">
  <defs>
    <style>
      .cls-1 {
        fill-rule: evenodd;
      }
    </style>
  </defs>
  <path id="head-series.svg" class="cls-1" d="M634.729,1610.46a14.33,14.33,0,0,0-3.215-4.23,12.426,12.426,0,0,0-8.447-2.83c-7.879,0-12.291,5.42-12.291,11.09,0,6.3,5.105,9.2,8.572,10.65l4.034,1.71c2.774,1.13,6.052,2.9,6.052,7.18a6.751,6.751,0,0,1-6.934,7.06,6.641,6.641,0,0,1-5.484-2.52,9.074,9.074,0,0,1-1.765-5.36l-6.366,1.39a13.59,13.59,0,0,0,3.53,8.19,12.288,12.288,0,0,0,9.9,4.23c7.879,0,13.552-5.49,13.552-13.49,0-4.79-2.143-9.21-9.9-12.36l-4.223-1.7c-4.1-1.64-4.539-3.84-4.539-5.1,0-2.72,2.017-5.05,5.925-5.05a6.535,6.535,0,0,1,6.43,4.16Zm32.381-6.31h-23.2v42.05h23.2v-6.05H650.343v-13.24h16.263v-6.05H650.343v-10.65H667.11v-6.06Zm8.3,0v42.05h6.43v-17.21h1.134l12.04,17.21h7.753l-13.111-17.97a11.527,11.527,0,0,0,9.329-11.72,11.734,11.734,0,0,0-4.98-9.9c-2.71-1.83-5.988-2.46-11.094-2.46h-7.5Zm6.43,5.93h2.206c3.152,0,8.762.57,8.762,6.49,0,6.68-7.186,6.87-8.951,6.87h-2.017v-13.36Zm27.212-5.93v42.05h6.43v-42.05h-6.43Zm39.7,0h-23.2v42.05h23.2v-6.05H731.99v-13.24h16.263v-6.05H731.99v-10.65h16.767v-6.06Zm31.626,6.31a14.3,14.3,0,0,0-3.215-4.23,12.422,12.422,0,0,0-8.446-2.83c-7.879,0-12.292,5.42-12.292,11.09,0,6.3,5.106,9.2,8.573,10.65l4.034,1.71c2.774,1.13,6.051,2.9,6.051,7.18a6.751,6.751,0,0,1-6.933,7.06,6.639,6.639,0,0,1-5.484-2.52,9.074,9.074,0,0,1-1.765-5.36l-6.367,1.39a13.6,13.6,0,0,0,3.53,8.19,12.289,12.289,0,0,0,9.9,4.23c7.88,0,13.553-5.49,13.553-13.49,0-4.79-2.143-9.21-9.9-12.36l-4.223-1.7c-4.1-1.64-4.538-3.84-4.538-5.1,0-2.72,2.017-5.05,5.925-5.05a6.535,6.535,0,0,1,6.429,4.16Z" transform="translate(-608.875 -1603.41)"/>
</svg>
