<svg xmlns="http://www.w3.org/2000/svg" width="295.876" height="91.41" viewBox="0 0 295.876 91.41">
  <defs>
    <style>
      .cls-1 {
        fill: #0a45a7;
        fill-rule: evenodd;
      }
    </style>
  </defs>
  <path id="title-toneup.svg" class="cls-1" d="M784.084,3012.85v-6.05H760.856v6.05h8.1v29.98h7.022v-29.98h8.1Zm21.437-6.86c-11.344,0-19.231,7.88-19.231,18.85s7.887,18.8,19.231,18.8,19.231-7.83,19.231-18.8S816.865,3005.99,805.521,3005.99Zm0,31.27c-7.022,0-11.992-5.13-11.992-12.42s4.97-12.48,11.992-12.48,11.992,5.19,11.992,12.48S812.544,3037.26,805.521,3037.26Zm33.8,5.57v-24.09l21.932,24.09h4.861V3006.8h-7.022v24.04L837.16,3006.8H832.3v36.03h7.023Zm56.056-36.03H875.39v36.03h19.987v-6.05H882.413v-9.83h12.424v-6.05H882.413v-8.05h12.964v-6.05Zm16.138,0v22.04c0,3.4.54,6.86,2.7,9.61,2.593,3.41,7.13,5.19,11.776,5.19s9.183-1.78,11.776-5.19c2.161-2.75,2.7-6.21,2.7-9.61V3006.8h-7.022v22.63a7.838,7.838,0,0,1-1.729,5.35,7.85,7.85,0,0,1-11.452,0,7.838,7.838,0,0,1-1.729-5.35V3006.8h-7.022Zm37.151,0v36.03h7.023v-13.34h4.537c4.16,0,7.131-1.19,9.13-3.19,2.755-2.76,2.971-6.65,2.971-8.05a11.5,11.5,0,0,0-3.674-8.7c-2.647-2.32-5.456-2.75-9.507-2.75h-10.48Zm7.023,6.05h2.431a8.5,8.5,0,0,1,4.969,1.13,4.974,4.974,0,0,1,2,4.11,5.384,5.384,0,0,1-1.945,4.21,7.157,7.157,0,0,1-4.591,1.14h-2.863v-10.59Zm30.074-6.05v22.04c0,3.4.541,6.86,2.7,9.61,2.593,3.41,7.131,5.19,11.776,5.19s9.18-1.78,11.78-5.19c2.16-2.75,2.7-6.21,2.7-9.61V3006.8h-7.02v22.63a7.838,7.838,0,0,1-1.73,5.35,7.855,7.855,0,0,1-11.456,0,7.839,7.839,0,0,1-1.728-5.35V3006.8h-7.023Zm36.4,0,15.12,36.03h4.22l15.23-36.03h-7.67l-9.62,24.2-9.61-24.2h-7.67Zm-239.3,60.22a9.174,9.174,0,0,0-8.312-4.87,8.308,8.308,0,0,0-8.773,8.51,7.343,7.343,0,0,0,1.077,3.9c1.181,1.95,2.874,2.87,6.26,4.52,2.822,1.38,4.822,2.41,5.8,2.97,2.617,1.59,3.335,3.54,3.335,5.39a7.959,7.959,0,0,1-8.26,7.9,8.222,8.222,0,0,1-6.413-2.92,11.859,11.859,0,0,1-1.847-3.29l-1.95.93a11.26,11.26,0,0,0,2.206,3.74,9.769,9.769,0,0,0,7.953,3.59c5.848,0,10.671-4.26,10.671-10a7.526,7.526,0,0,0-3.643-6.62,48.138,48.138,0,0,0-6.823-3.59c-3.438-1.69-6-2.93-6-6.62a6.08,6.08,0,0,1,6.362-6.36,7.309,7.309,0,0,1,6.721,4.21Zm26.368-4.41H792.809v34.22h16.418v-2.05H795.066v-15.65h13.853v-2.05H795.066v-12.42h14.161v-2.05Zm26.162,34.22-11.184-16.16a13,13,0,0,0,4.207-.67c4.258-1.44,5.746-4.93,5.746-8.31a8.529,8.529,0,0,0-3.54-7.34c-2.258-1.54-4.618-1.74-7.234-1.74h-4.925v34.22h2.257v-16.16h1.026l11.082,16.16h2.565Zm-14.673-32.17h2.822a12.215,12.215,0,0,1,5.233,1.03c1.334,0.71,3.027,2.51,3.027,5.95,0,4.41-2.925,6.97-7.8,6.97h-3.283v-13.95Zm22.88-2.05v34.22h2.257v-34.22H843.6Zm28.934,0H856.112v34.22H872.53v-2.05H858.37v-15.65h13.852v-2.05H858.37v-12.42h14.16v-2.05Zm25.24,4.41a9.173,9.173,0,0,0-8.312-4.87,8.308,8.308,0,0,0-8.773,8.51,7.335,7.335,0,0,0,1.078,3.9c1.18,1.95,2.873,2.87,6.259,4.52,2.822,1.38,4.823,2.41,5.8,2.97,2.617,1.59,3.335,3.54,3.335,5.39a7.959,7.959,0,0,1-8.26,7.9,8.222,8.222,0,0,1-6.413-2.92,11.859,11.859,0,0,1-1.847-3.29l-1.95.93a11.278,11.278,0,0,0,2.206,3.74,9.771,9.771,0,0,0,7.953,3.59c5.849,0,10.671-4.26,10.671-10a7.528,7.528,0,0,0-3.642-6.62,48.218,48.218,0,0,0-6.824-3.59c-3.437-1.69-6-2.93-6-6.62a6.08,6.08,0,0,1,6.362-6.36,7.307,7.307,0,0,1,6.721,4.21Z" transform="translate(-760.844 -3006)"/>
</svg>
