<?xml version="1.0" encoding="utf-8"?>
<!-- Generator: Adobe Illustrator 26.0.3, SVG Export Plug-In . SVG Version: 6.00 Build 0)  -->
<svg version="1.1" id="head-block-01_sp.svg" xmlns="http://www.w3.org/2000/svg" xmlns:xlink="http://www.w3.org/1999/xlink"
	 x="0px" y="0px" viewBox="0 0 234.2 87.4" style="enable-background:new 0 0 234.2 87.4;" xml:space="preserve">
<style type="text/css">
	.st0{opacity:0.2;fill:#1E9FE0;enable-background:new    ;}
	.st1{opacity:0.2;fill-rule:evenodd;clip-rule:evenodd;fill:#1E9FE0;enable-background:new    ;}
	.st2{fill:#1147B4;}
</style>
<rect id="長方形_978" y="25" class="st0" width="234.2" height="10"/>
<path id="長方形_978-2" class="st1" d="M33.8,77.4h163.7v10H33.8V77.4z"/>
<g>
	<path class="st2" d="M33.2,14.6H27v16.6h-4V14.6h-6v3h-4.7v7.7c1.6-0.3,3.3-0.5,4.9-0.8l0.2,3.1c-4.7,1-9.7,1.9-13.5,2.7l-0.8-3.5
		c1.6-0.2,3.5-0.5,5.7-0.9v-8.2H3.6v-3.3h5.2V12H6.2v-1.5c-0.6,0.5-1.2,1-1.7,1.4c-0.2-0.9-1-3-1.5-4c2.6-1.8,5.4-4.7,7-7.7l3.1,1.3
		c-0.2,0.4-0.4,0.8-0.7,1.2c2.3,1.2,4.5,2.7,5.9,3.9l-2.1,3C16,9.4,15.8,9.2,15.5,9v2.9h-3.3v2.4h4.6v-3.6H23v-10h4v10.1h6.1v3.8
		C33.1,14.6,33.2,14.6,33.2,14.6z M7,18.9c0.6,1.7,1.1,4.1,1.3,5.6l-2.7,0.8c-0.1-1.6-0.6-3.9-1.2-5.7L7,18.9z M15.2,8.7
		c-1.3-1-2.9-2.2-4.6-3.2C9.8,6.6,8.9,7.7,8,8.7H15.2z M12.6,24.1c0.4-1.5,1-3.9,1.2-5.5l2.9,0.8c-0.7,1.9-1.3,4.1-1.8,5.5
		L12.6,24.1z"/>
	<path class="st2" d="M45.9,25.4c2.1-0.2,4.2-0.5,6.3-0.7l0.1,3.4c-5.7,0.7-11.8,1.4-16.2,1.8l-0.5-3.6c1.8-0.2,4.2-0.4,6.6-0.6
		v-2.5h-5V20h5v-2.2h-5.6v-3.2h3.6c-0.5-1-1.4-2.2-2.1-3.1l1.7-0.9h-4.1V7.4h4.5V5.9l-1.7,1.2c-0.5-1.1-1.7-2.8-2.7-4l2.4-1.6
		c0.7,0.7,1.4,1.6,2,2.4V0.4h3.1v7h1.5v-7h3.1v3.8c0.7-0.9,1.4-1.8,1.8-2.6l3.1,1.7C51.4,4.8,50,6.2,49,7.2l-1.1-0.7v1h4.3v3.2h-4.3
		l2.2,0.8c-0.6,1.1-1.2,2.2-1.8,3.3h2.9V18h-5.4v2.2h5v3.2h-5L45.9,25.4L45.9,25.4z M41.3,10.7c0.8,1,1.6,2.1,1.9,2.9l-1.9,1.1h3.5
		c0.6-1.2,1.4-2.8,1.8-4.1h-5.3V10.7z M65.7,12.4h-2.5v14.4c0,2-0.4,3-1.6,3.6c-1.2,0.7-2.9,0.8-5.5,0.8c-0.2-1-0.8-2.7-1.3-3.7
		c1.7,0.1,3.3,0.1,3.9,0.1c0.6,0,0.8-0.2,0.8-0.7V12.4h-7.1V8.7h7.1V0.5h3.8v8.3h2.5v3.6C65.8,12.4,65.7,12.4,65.7,12.4z M55,22.8
		c-0.2-1.9-1.2-5-2.4-7.5l3.2-1.1c1.2,2.3,2.3,5.3,2.6,7.3L55,22.8z"/>
	<path class="st2" d="M97.4,10c-0.7,5-1.8,9.3-3.5,12.8c1.4,2.2,3.2,4.1,5.3,5.3c-0.9,0.7-2,2.2-2.6,3.2c-1.9-1.3-3.6-3-4.9-5
		c-1.5,1.8-3.2,3.5-5.3,4.8c-0.5-0.7-1.8-2.2-2.6-2.9c2.5-1.4,4.5-3.2,5.9-5.4c-1.1-2.2-1.9-4.8-2.5-7.6c-0.3,0.5-0.6,1-0.9,1.5
		c-0.5-0.7-1.8-1.9-2.6-2.5l-0.1,1.9h2.1v3.2h-2.2c-0.1,1.5-0.2,2.7-0.2,3.8h2.2v3.1H83c-0.2,1.7-0.5,2.7-0.9,3.2
		c-0.6,1-1.3,1.3-2.2,1.5c-0.9,0.2-2.1,0.2-3.5,0.1c-0.1-1-0.4-2.4-0.9-3.3c1.1,0.1,2,0.1,2.6,0.1c0.5,0,0.7-0.1,1-0.6
		c0.1-0.2,0.3-0.5,0.4-1.1h-9.8c0.3-1.9,0.6-4.4,0.9-6.9h-2V16h2.3c0.1-1.2,0.2-2.4,0.3-3.5v0.1c-0.7-0.6-2.2-1.7-3.1-2.2
		c2-2.4,3.4-6.2,4.2-10l3.3,0.8c-0.2,0.9-0.4,1.7-0.6,2.6h10.4v3.4H73.8c-0.3,0.8-0.7,1.6-1,2.3h10.9v1.6l-0.1,2.8
		c2.2-3.2,3.7-8.3,4.4-13.4l3.7,0.6c-0.3,1.8-0.7,3.7-1.2,5.5h8.4v3.5h-1.5C97.4,10.1,97.4,10,97.4,10z M73.9,19.3
		c-0.1,1.3-0.3,2.6-0.4,3.8h3c-0.5-0.9-1.3-2-2.1-2.9l1.6-0.9H73.9z M74.4,12.6c-0.1,1.2-0.2,2.3-0.3,3.5h2.6
		c-0.4-0.9-1.1-1.9-1.8-2.7l1.6-0.8C76.5,12.6,74.4,12.6,74.4,12.6z M79.7,23.1c0.1-1,0.2-2.2,0.2-3.8h-3c0.9,1,1.7,2.1,2.2,3
		L77.9,23L79.7,23.1L79.7,23.1z M80,16.1c0-1.1,0.1-2.2,0.1-3.5h-2.8c0.8,0.9,1.6,2.1,1.9,3l-1.1,0.6H80V16.1z M89.5,10
		c0.5,3.1,1.3,6,2.3,8.6c0.9-2.5,1.5-5.4,1.9-8.6C93.7,10,89.5,10,89.5,10z"/>
	<path class="st2" d="M130.9,9.3c-1.3,2.9-2.9,5.6-4.9,8c0.9,5.9,2.1,10.1,2.9,10.1c0.4,0,0.7-1.9,0.8-5.8c0.8,0.8,1.9,1.7,2.9,2.1
		c-0.5,5.9-1.6,7.4-4.2,7.4c-2.5,0-4.4-4.5-5.5-10.7c-0.6,0.5-1.2,0.9-1.7,1.4c1.1,2.2,2.2,5.1,2.8,6.9l-2.7,1.2
		c-0.3-1-0.8-2.4-1.3-3.8c-0.3,3.8-1.1,4.8-3.2,4.8H114c-2.7,0-3.4-0.9-3.4-3.5v-5.8h2.9l-0.5-0.8l0.9-0.4h-4.7v-7.6h10.7v5.8
		c0.9-0.6,1.7-1.3,2.4-2.1c-0.4-3-0.7-6.2-0.9-9.3h-13.8v3.1c0,5.8-0.5,15.2-3.5,21.3c-0.7-0.6-2.3-1.7-3.1-2.1
		c2.7-5.7,3-13.9,3-19.2V3.7h17.3c-0.1-1.1-0.1-2.2-0.1-3.3h3.7c0,1.1,0,2.2,0,3.3h2.7c-0.7-0.7-1.7-1.5-2.4-2.1l2.3-1.6
		c1.1,0.8,2.5,1.9,3.2,2.6l-1.5,1.1h2.5v3.2H125c0.1,1.9,0.3,3.7,0.5,5.5c0.9-1.3,1.6-2.7,2.1-4.1L130.9,9.3z M106,28.9
		c0.9-1.8,1.5-4.7,1.8-7l2.5,0.8c-0.3,2.4-0.9,5.5-1.8,7.5L106,28.9z M120.2,11h-11.6V8.4h11.6V11z M112.3,17.6h4.5v-2.5h-4.5V17.6z
		 M116.3,28.1c0.7,0,0.8-0.5,0.9-3.5c0.6,0.5,1.8,0.9,2.6,1.1c-0.4-1.2-0.9-2.3-1.3-3.3l2.4-1c-0.3-0.4-0.8-0.9-1.3-1.4h-4.1
		c0.9,1.4,1.8,3.1,2.3,4.1l-2.5,1.3c-0.4-1-1.1-2.3-1.8-3.7v5.5c0,0.8,0.1,0.9,0.8,0.9H116.3z"/>
	<path class="st2" d="M161.7,27c0.2,0,0.3,0,0.4-0.2c0.1-0.1,0.2-0.4,0.2-1.2c0.1-0.7,0.1-2.3,0.1-4.2c0.8,0.7,2,1.4,3.1,1.7
		c0,1.7-0.2,4-0.4,4.9c-0.2,0.9-0.6,1.6-1.1,2c-0.5,0.4-1.3,0.6-2,0.6h-1.9c-0.8,0-1.7-0.3-2.3-0.9c-0.6-0.7-0.9-1.4-0.9-4.3V5.3
		h-3.6V15c0,5.1-0.4,12.2-3.6,16.4c-0.7-0.7-2.3-1.8-3.2-2.3c-0.2,0.4-0.5,0.7-1,1c-1,0.6-2.4,0.7-4.6,0.7c-0.1-1-0.6-2.7-1.1-3.7
		c1.2,0.1,2.4,0.1,2.8,0.1c0.4,0,0.6-0.2,0.6-0.6V19c-0.8,0.8-1.7,1.6-2.4,2.4l-1.1-2c-0.3,4.2-1,8.6-2.4,11.9
		c-0.7-0.6-2.3-1.5-3.2-1.8c2-4.5,2.2-11.1,2.2-16V1.6H147v25.1c0,0.9-0.1,1.6-0.3,2.1c2.5-3.8,2.7-9.3,2.7-13.8V1.6h11.4v23.9
		c0,0.8,0,1.3,0.1,1.4c0.1,0.1,0.2,0.2,0.3,0.2L161.7,27L161.7,27z M139.9,13.5c0,1.3,0,2.8-0.1,4.3c1-0.7,2.2-1.5,3.4-2.4v-2.3
		l-1.1,0.9c-0.5-0.7-1.4-1.7-2.2-2.6L139.9,13.5L139.9,13.5z M139.9,5.2V9l1-0.8c0.8,0.7,1.6,1.5,2.3,2.3V5.2H139.9z"/>
	<path class="st2" d="M192.1,11.1c1.3,0,3.7-0.1,4.5-0.3c0.1,1,0.2,1.6,0.3,2.3c-0.9,0.2-2.7,0.3-4.3,0.3h-7.9c-3.1,0-4-1-4.1-2.8
		l-5.5,0.2V9.1l5.5-0.2V7.8H174v5.9c0,5-0.5,12.5-3.3,17.3c-0.7-0.6-2.4-1.6-3.4-2c2.6-4.4,2.9-10.8,2.9-15.3V5.3h10.4v-5h4v1.5H195
		v2.4h-10.4v1h9.5l0.6-0.2l2.9,0.8c-0.6,1.7-1.4,3.6-2.1,4.8l-3.3-1.1c0.2-0.5,0.4-1.1,0.7-1.7H184v0.9l7.3-0.2v1.7l-7.3,0.2
		c0.1,0.4,0.5,0.6,1.4,0.7H192.1z M194,28.2c0,1.5-0.3,2-1.3,2.5c-1,0.4-2.4,0.4-4.2,0.4c-0.2-0.8-0.6-1.7-1-2.4
		c0.9,0.1,1.9,0.1,2.2,0c0.3,0,0.5-0.1,0.5-0.4v-0.8c-3.1,0.5-6.2,1.1-8.8,1.5l-0.8-2.5c1.8-0.1,4.3-0.4,6.9-0.6
		c-1.8-0.6-4.4-1.2-6.4-1.5l0.8-1.5c2.3,0.3,5.5,0.9,7.2,1.5l-0.6,1.4l1.7-0.2v-2.7h-9.7v1.8c0,2.4-0.4,5.1-2.6,6.9
		c-0.6-0.7-2.3-1.9-3.1-2.4c1.8-1.4,2-3,2-4.6v-3.4H194V28.2z M175.1,14.1h20.6v6.3h-20.6V14.1z M178.7,16.5h4.8v-1h-4.8V16.5z
		 M178.7,18.9h4.8V18h-4.8V18.9z M191.9,15.6H187v1h4.9V15.6z M191.9,18H187v0.9h4.9V18z"/>
	<path class="st2" d="M230.3,5.5c0,0,0,1.3,0,1.8c-0.4,14.8-0.8,20-2.1,21.8c-0.9,1.2-1.8,1.6-3.2,1.8c-1.3,0.2-3.2,0.1-5.2,0.1
		c-0.1-1.1-0.6-2.7-1.3-3.8c2.1,0.2,4.1,0.2,4.9,0.2c0.7,0,1-0.1,1.5-0.6c1-1.1,1.4-6,1.7-17.7h-7.1c-0.9,2-1.9,3.8-2.9,5.2
		c-0.5-0.5-1.7-1.3-2.5-1.8v15.4h-8.8v2.3h-3.6V5.7h3.7c0.4-1.6,0.8-3.8,1-5.3l4.3,0.6c-0.6,1.7-1.2,3.3-1.7,4.7h5.1V11
		c1.9-2.8,3.5-6.8,4.5-10.6l3.8,0.9c-0.4,1.4-0.8,2.8-1.3,4.2C221.1,5.5,230.3,5.5,230.3,5.5z M210.6,9.2h-5.2v5.3h5.2V9.2z
		 M210.6,24.4v-6.5h-5.2v6.5H210.6z M221.5,22.6c-0.9-2-3-5.2-4.6-7.6l3.1-1.8c1.7,2.3,3.8,5.4,4.9,7.3L221.5,22.6z"/>
	<path class="st2" d="M45.9,53.7C45,56,44,58.3,42.8,60.6v22.6H39V66.4c-0.7,0.9-1.5,1.8-2.2,2.6c-0.4-1-1.4-3.1-2.1-4.1
		c3-3,5.9-7.7,7.5-12.3L45.9,53.7z M60.2,68.3c0.7,6,1.8,10.2,2.8,10.2c0.5,0,0.8-1.5,1-4.1c0.6,0.7,2,1.7,2.6,2
		c-0.8,5.2-2.2,6.5-3.6,6.5c-3.4,0-5.3-5.8-6.3-14.6h-6.5v6.9l5.3-1.3c-0.1,1-0.1,2.5,0.1,3.3c-7.2,1.9-8.4,2.4-9.2,2.9
		c-0.2-0.9-0.8-2.4-1.4-3.1c0.7-0.3,1.6-1,1.6-2.3V55.8C52,55,58.2,53.7,62,52.2l2.9,2.9c-1.7,0.6-3.6,1.2-5.6,1.6
		c0.1,2.8,0.2,5.4,0.4,7.9h5.9v3.6L60.2,68.3L60.2,68.3z M49.6,79.3h8.8v3.2h-8.8V79.3z M56.3,64.6c-0.2-2.2-0.3-4.6-0.4-7.1
		c-1.9,0.4-3.8,0.7-5.7,1v6.1H56.3z"/>
	<path class="st2" d="M79.2,56h6.6v3.5h-6.6v2.4h6.3v6.3c0,1.4-0.2,2.2-1.1,2.7s-2,0.6-3.6,0.6c-0.1-0.9-0.5-2.2-0.9-3
		c0.8,0,1.6,0,1.8,0c0.3,0,0.4-0.1,0.4-0.4v-2.9h-2.9v6.4c1.8,1,5.6,3.3,6.6,4l-2,3.4c-1.1-1-2.9-2.4-4.6-3.7v7.8h-3.6v-8
		c-1.7,2.6-3.7,5-5.7,6.5c-0.4-1.1-1.2-2.7-1.8-3.6c3-2,6-5.5,7.6-8.7v-4.1H73v6h-3.4v-9.3h6v-2.4h-6.8V56h6.8v-3.3h3.6V56z
		 M90.9,74.5h-3.7V55.9h3.7V74.5z M98,53.1v25.5c0,2.2-0.4,3.3-1.7,3.9c-1.3,0.6-3.3,0.7-6.1,0.7c-0.2-1.1-0.7-2.9-1.3-4
		c1.9,0.1,3.8,0.1,4.5,0.1c0.6,0,0.8-0.2,0.8-0.7V53.1H98z"/>
	<path class="st2" d="M105.6,67.8c-1-1-3-2.6-4.5-3.7l2.2-2.3c1.5,1,3.6,2.4,4.6,3.5L105.6,67.8z M108.5,72.6
		c-1.1,3.4-2.5,7.2-3.8,10.2l-3.1-1.8c1.3-2.5,2.9-6.6,4.2-10.2L108.5,72.6z M106.6,59.2c-1-1.2-3-3-4.6-4.3l2.3-2.1
		c1.6,1.1,3.7,2.8,4.7,4L106.6,59.2z M130.8,61.9c-0.5,5.1-1.3,9.4-2.7,13c1.1,2,2.5,3.8,4.3,5.1c-0.7,0.7-1.9,2.1-2.4,3.1
		c-1.5-1.3-2.7-2.8-3.6-4.5c-1.1,1.8-2.4,3.3-4.1,4.7c-0.5-0.6-1.7-1.8-2.5-2.3c2.1-1.6,3.7-3.5,4.9-6c-1-2.4-1.6-5.1-2.1-7.7
		c-0.3,0.6-0.6,1.1-0.9,1.6c-0.3-0.5-1.1-1.4-1.8-2.1h-4.3c0.4,0.6,0.7,1.4,1,2h4.3V72h-6.5v0.9v0.6h5.7c0,0,0,0.8-0.1,1.2
		c-0.2,4.4-0.4,6.3-1,7.1c-0.5,0.7-1.1,0.9-1.9,1c-0.7,0.1-1.8,0.1-3,0.1c-0.1-1-0.4-2.3-0.9-3.1c0.9,0.1,1.7,0.1,2.1,0.1
		c0.3,0,0.6,0,0.8-0.3c0.2-0.3,0.4-1.2,0.5-3.1H114c-0.6,2.3-1.8,4.8-4.5,6.7c-0.6-0.7-1.8-1.7-2.6-2.2c3.8-2.7,4.3-6.1,4.3-8.3
		v-0.8h-2.7v-3.2h4.4c-0.2-0.5-0.5-1-0.7-1.5l2.7-0.6h-5.4V55.5h3.1c0.3-1.1,0.5-2.2,0.6-3.1l4.1,0.4c-0.3,1-0.7,1.9-1,2.7h4V64
		c1.4-3.2,2.3-7.4,2.9-11.7l3.4,0.6c-0.2,1.8-0.6,3.6-1,5.4h6.5v3.5L130.8,61.9L130.8,61.9z M116.9,58.3h-4.5v1.6h4.5V58.3z
		 M116.9,62.4h-4.5V64h4.5V62.4z M124.4,62.5c0.4,2.6,0.9,5.4,1.8,8.1c0.7-2.6,1.2-5.5,1.4-8.7h-3L124.4,62.5z"/>
	<path class="st2" d="M134.7,53.7h15.7V57h-4.1v3.2h3.9v22.5H147V81h-8.9v2.1h-3V60.2h3.7V57h-4.2L134.7,53.7z M147.1,78v-7.5H147
		h-1.3c-1.7,0-2.2-0.6-2.2-2.8v-4.3H142v2.4c0,1.9-0.4,4.3-2.2,5.9c-0.3-0.4-1.2-1.1-1.7-1.4v7.6h9V78z M138.2,63.4v6.8
		c1.5-1.3,1.7-3,1.7-4.4v-2.4H138.2z M139.2,72.9h7v3h-7V72.9z M143.3,56.9h-1.4v3.3h1.4V56.9z M147.1,63.4h-1.4v4.3
		c0,0.5,0.1,0.6,0.3,0.6h0.7c0.3,0,0.4,0,0.4-0.1V63.4z M160.2,79.2c1.2,0,1.4-0.8,1.6-5.2c0.8,0.6,2.5,1.3,3.5,1.6
		c-0.4,5.6-1.4,7.3-4.7,7.3h-4.4c-3.6,0-4.7-1.2-4.7-5.1V64.3h8.7v-6.7h-8.8v-3.7H164V68h-8.6v9.6c0,1.3,0.2,1.6,1.4,1.6
		C156.8,79.2,160.2,79.2,160.2,79.2z"/>
	<path class="st2" d="M180.8,61.5c-0.1,1.3-0.2,2.6-0.3,4h14.2c0,0,0,1.2-0.1,1.7c-0.6,8.9-1.3,12.6-2.6,14c-1,1.1-2,1.4-3.5,1.6
		c-1.3,0.1-3.5,0.1-5.7,0c-0.1-1.2-0.6-2.8-1.4-3.9c2.2,0.2,4.6,0.2,5.5,0.2c0.7,0,1.2-0.1,1.6-0.4c0.9-0.8,1.5-3.6,1.9-9.5H180
		c-1.1,5.5-3.6,10.7-9.5,14.1c-0.6-1.1-1.8-2.4-2.9-3.2c7.9-4.2,8.5-11.7,8.9-18.6h-8.3v-3.8H182c-0.5-1.3-1.3-2.9-2-4.3l3.9-1.5
		c0.9,1.5,1.9,3.5,2.4,4.7l-2.3,1h13.5v3.8h-16.7L180.8,61.5L180.8,61.5z"/>
</g>
</svg>
