<?xml version="1.0" encoding="utf-8"?>
<!-- Generator: Adobe Illustrator 25.0.1, SVG Export Plug-In . SVG Version: 6.00 Build 0)  -->
<svg version="1.1" id="レイヤー_1" xmlns="http://www.w3.org/2000/svg" xmlns:xlink="http://www.w3.org/1999/xlink" x="0px"
	 y="0px" viewBox="0 0 225.2 27.9" style="enable-background:new 0 0 225.2 27.9;" xml:space="preserve">
<style type="text/css">
	.st0{fill-rule:evenodd;clip-rule:evenodd;}
</style>
<path id="OTHER_LABO" class="st0" d="M14.2,0C5.8,0,0,5.9,0,14s5.8,13.9,14.2,13.9S28.5,22.1,28.5,14S22.7,0,14.2,0z M14.2,23.2
	c-5.2,0-8.9-3.8-8.9-9.2S9,4.7,14.2,4.7s8.9,3.8,8.9,9.2S19.5,23.2,14.2,23.2z M47.3,5.1V0.6H30.1v4.5h6v22.2h5.2V5.1H47.3L47.3,5.1
	z M55.8,0.6h-5.2v26.7h5.2V15.4h11.3v11.9h5.2V0.6h-5.2v10.3H55.8V0.6z M92.4,0.6H77.6v26.7h14.8v-4.5h-9.6v-7.3H92v-4.5h-9.2v-6
	h9.6V0.6z M98.2,0.6v26.7h5.2V16.6h0.6l7.1,10.7h6.5l-8.3-11.2c1-0.2,2-0.6,2.9-1.2c2-1.4,3.2-3.8,3.1-6.3c0.1-2.3-0.9-4.5-2.6-6
	c-1.2-1-3.1-2-6.8-2H98.2L98.2,0.6z M103.4,4.9h1.6c1,0,5,0,5,4c0,3.9-4.1,4-5.1,4h-1.5V4.9z M132.1,0.6v26.7h13.4v-4.5h-8.2V0.6
	H132.1L132.1,0.6z M168.9,27.3h5.6L163.4,0.6h-4.1l-11.5,26.7h5.6l2.4-5.6h10.8L168.9,27.3z M157.4,17.5l3.8-9.6l3.8,9.6H157.4z
	 M176.8,0.6v26.7h9c2.4,0.2,4.9-0.6,6.8-2.2c1.5-1.4,2.3-3.4,2.3-5.4c0.1-1.9-0.6-3.7-1.9-5c-1-0.9-2.2-1.5-3.5-1.7
	c1.9-1,3.1-3.1,3-5.2c0.1-2.1-0.9-4.2-2.5-5.5c-2.2-1.7-5-1.7-6.5-1.7L176.8,0.6L176.8,0.6z M182,4.9h1.5c2.1,0,4,0.9,4,3.4
	c0,3.4-3.2,3.5-4,3.5H182L182,4.9L182,4.9z M182,15.7h1.9c1.2-0.1,2.4,0.1,3.6,0.5c1.2,0.5,2,1.7,2,3c0.1,1.2-0.6,2.4-1.6,3.1
	c-1.1,0.5-2.3,0.8-3.6,0.7H182L182,15.7L182,15.7z M211,0c-8.4,0-14.2,5.9-14.2,14s5.8,13.9,14.2,13.9s14.2-5.8,14.2-13.9
	S219.4,0,211,0L211,0z M211,23.2c-5.2,0-8.9-3.8-8.9-9.2s3.7-9.2,8.9-9.2s8.9,3.8,8.9,9.2S216.2,23.2,211,23.2L211,23.2z"/>
</svg>
