<?xml version="1.0" encoding="utf-8"?>
<!-- Generator: Adobe Illustrator 26.0.3, SVG Export Plug-In . SVG Version: 6.00 Build 0)  -->
<svg version="1.1" id="head-block-02.svg" xmlns="http://www.w3.org/2000/svg" xmlns:xlink="http://www.w3.org/1999/xlink" x="0px"
	 y="0px" viewBox="0 0 758.3 43.2" style="enable-background:new 0 0 758.3 43.2;" xml:space="preserve">
<style type="text/css">
	.st0{fill:none;}
	.st1{opacity:0.2;fill:#1E9FE0;enable-background:new    ;}
	.st2{fill:#1147B4;}
</style>
<rect y="1.5" class="st0" width="758.3" height="41.2"/>
<rect id="長方形_978_00000000188549739662875240000003957410996750871727_" x="118" y="32.6" class="st1" width="199.1" height="10"/>
<rect id="長方形_978-2_00000069377518067985592250000001320159133225328055_" x="396.3" y="32.6" class="st1" width="209.6" height="10"/>
<g>
	<path d="M108.7,14.6c-0.2,0.2-0.4,0.4-0.6,0.6c2.8,2.3,7.5,4.4,11.7,5.4c-0.8,0.7-1.8,2.1-2.3,3c-2.3-0.7-4.7-1.8-6.9-3.2v1.7
		h-10.1v-1.4c-2,1.1-4,2-6,2.8c-0.5-0.9-1.5-2.2-2.4-3c4.9-1.6,10.5-4.4,13.5-7.8L108.7,14.6z M115,24.2c-0.9,1.8-2.1,3.7-3.2,5.5
		h3.6v10.5h-3.5v-1h-11.6v1h-3.4V29.7h10.8c0.7-1,1.4-2.2,2-3.3H96.2v-3h15.5l0.6-0.1L115,24.2z M111.9,32.6h-11.6v3.6h11.6V32.6z
		 M108.8,19.4c-1-0.7-2-1.5-2.8-2.2c-1,0.8-1.9,1.5-3,2.2H108.8z"/>
	<path class="st2" d="M180.2,22.5c0-4.3,2.1-6.8,5.2-6.8s5.3,2.5,5.3,6.8s-2.2,6.8-5.3,6.8S180.2,26.8,180.2,22.5z M187.7,22.5
		c0-3.2-1-4.4-2.2-4.4s-2.2,1.2-2.2,4.4s1,4.4,2.2,4.4C186.7,27,187.7,25.7,187.7,22.5z M197.8,15.8h2.5l-11.7,22.3h-2.5L197.8,15.8
		z M195.8,31.2c0-4.3,2.2-6.8,5.2-6.8s5.2,2.5,5.2,6.8S204,38,201,38S195.8,35.5,195.8,31.2z M203.3,31.2c0-3.2-1-4.4-2.2-4.4
		s-2.2,1.2-2.2,4.4s1,4.4,2.2,4.4S203.3,34.4,203.3,31.2z"/>
	<path class="st2" d="M209,20.1l1.1-1.9l-2-0.9l0.4-1.3l2.2,0.5l0.2-2.2h1.3l0.2,2.2l2.2-0.5l0.4,1.3l-2,0.9l1.1,1.9l-1.1,0.8
		l-1.5-1.7l-1.5,1.7L209,20.1z"/>
	<path class="st2" d="M243.1,33c3.5,1.2,8.1,3,10.5,4.3l-1.6,3c-2.6-1.5-7.9-3.7-11.6-5l1.3-2.2h-1c-1.4,3.6-4.5,5.9-12.2,7.1
		c-0.2-0.9-1-2.4-1.7-3.1c5.8-0.8,8.6-2.1,9.9-4h-8.6v-2.9h9.8c0.1-0.5,0.2-1,0.2-1.5h-10.7v-3h11.1v-1.5h-8.6v-2.9h8.6v-1.5h-10.2
		v-3h5.5c-0.4-0.9-1-1.8-1.6-2.6l3.1-1.2c0.9,1,1.8,2.4,2.2,3.4l-0.8,0.4h6.4c0.7-1.1,1.6-2.6,2.1-3.8l3.7,1c-0.6,1-1.3,2-1.9,2.8
		h5.6v3H242v1.5h8.9v2.9H242v1.5h11.5v3h-11.9c-0.1,0.5-0.1,1-0.2,1.5h11.3v2.9L243.1,33L243.1,33z"/>
	<path class="st2" d="M271.6,23c-0.1,0.2-0.3,0.5-0.5,0.7c3.2,3.4,7.2,5.4,11.7,7c-0.8,0.7-1.7,1.9-2.1,2.9c-1-0.5-2-0.9-3-1.4v7.9
		h-3.5v-0.8h-9.9v0.8h-3.4v-7.6c-1,0.5-2,1-3.1,1.4c-0.5-0.8-1.3-2.1-2.1-2.8c5.4-1.8,10.4-5.1,13-9.5L271.6,23z M260.3,21.6h-3.4
		v-6.2h10.7c-0.3-0.6-0.6-1.3-0.8-1.9l3.7-0.8c0.4,0.8,0.9,1.8,1.2,2.6h10v6.2h-3.5v-3h-17.8v3.1H260.3z M267.2,20.2
		c-1.9,2.6-4.8,5.1-7.5,6.6c-0.5-0.7-1.7-2-2.3-2.7c2.5-1.1,5.1-3,6.5-5L267.2,20.2z M274.2,36.3v-3.1h-9.9v3.1H274.2z M274.2,30.2
		c-1.7-1.2-3.3-2.5-4.9-4.1c-1.3,1.5-2.8,2.9-4.5,4.1H274.2z M273.4,19.2c2.5,1.4,5.7,3.7,7.3,5.3l-2.5,2.2
		c-1.5-1.6-4.6-3.9-7.1-5.5L273.4,19.2z"/>
	<path class="st2" d="M289.3,26.8c-1-1-3.1-2.4-4.6-3.4l2-2.3c1.5,0.8,3.7,2.1,4.7,3.1L289.3,26.8z M284.8,38
		c1.2-2.2,2.7-5.8,3.9-9.1l2.7,1.9c-1,3-2.3,6.4-3.5,9.2L284.8,38z M311.2,22.5c-0.8,4.6-2.4,8.4-4.5,11.4c1.6,1.5,3.5,2.8,5.5,3.6
		c-0.8,0.6-1.8,1.9-2.3,2.8c-1.9-1-3.7-2.3-5.3-3.9c-1.6,1.6-3.3,2.9-5.3,4c-0.4-0.8-1.2-1.9-1.9-2.6v2.5h-3V28.6
		c-0.5,0.6-1,1.2-1.5,1.7c-0.5-0.7-1.6-1.7-2.2-2.2c2.3-2.3,4.3-5.9,5.3-8.8h-3.5v-1.8l-1.9,2.1c-0.8-1-2.8-2.6-4.4-3.7l2.1-2.2
		c1.4,0.8,3.1,2.1,4.2,3V16h8c-0.3-0.8-0.6-1.5-0.9-2.1l3.1-0.9c0.5,0.9,1.1,2.1,1.4,3h7.6v3.2h-9.4l2.8,0.7
		c-0.2,0.6-0.5,1.2-0.7,1.9h4.2l0.6-0.1L311.2,22.5z M299.1,20c-0.5,1.2-1.1,2.6-1.8,3.8v4.3c2.1-2.4,3.7-6,4.6-8.8h-5.5L299.1,20z
		 M297.3,37.6c1.9-0.8,3.7-2.1,5.2-3.8c-1-1.3-1.8-2.8-2.6-4.3c-0.4,0.5-0.8,1-1.3,1.5c-0.3-0.4-0.9-1-1.4-1.5L297.3,37.6
		L297.3,37.6z M301.8,27c0.7,1.6,1.6,3.1,2.7,4.5c0.4-0.6,0.8-1.3,1.2-2c-1-0.8-2.5-1.9-3.7-2.7L301.8,27z M303.1,24.5l-0.1,0.3
		c1.3,0.8,2.7,1.7,3.7,2.5c0.3-0.9,0.6-1.8,0.9-2.7L303.1,24.5L303.1,24.5z"/>
	<path d="M323.9,30.6c2.3-0.7,3.6-2,3.7-3.5c-0.1,0-0.2,0-0.3,0c-1.5,0-2.8-0.9-2.8-2.6c0-1.6,1.3-2.6,2.8-2.6c2.1,0,3.1,1.5,3.1,4
		c0,3.3-2.1,6-5.7,7L323.9,30.6z"/>
	<path d="M352,28.5c-0.9,0.3-1.9,0.6-2.8,0.8v6.8c0,1.6-0.3,2.4-1.2,3c-0.8,0.6-2.1,0.7-4,0.7c-0.1-0.8-0.5-2.3-0.9-3.2
		c1.1,0,2.1,0,2.4,0s0.5-0.1,0.5-0.5v-5.9l-2.8,0.8l-0.8-3.3c1-0.2,2.2-0.5,3.5-0.8v-5.1h-3v-3.2h3v-5.5h3.1v5.5h2.6v3.2H349v4.3
		c0.8-0.2,1.6-0.4,2.3-0.7L352,28.5z M364.3,25.8c0.6,5.8,1.6,9.9,2.6,9.9c0.4,0,0.7-1.2,0.8-3.6c0.5,0.7,1.8,1.5,2.3,1.8
		c-0.7,4.6-2,5.7-3.1,5.7c-3.2,0-4.8-5.5-5.7-13.8h-4.5V33l3.5-1.2c0,0.8,0.1,2,0.3,2.7c-5.6,2.1-6.6,2.6-7.2,3
		c-0.2-0.8-0.7-2.1-1.2-2.8c0.6-0.3,1.4-0.8,1.4-2V16.1h0.1V16c4.6-0.7,9.6-1.8,12.6-3l2.6,2.6c-1.5,0.6-3.2,1-5,1.4
		c0.1,1.9,0.1,3.8,0.3,5.5h5.5v3.2L364.3,25.8L364.3,25.8z M355.8,36.7h7.2v2.8h-7.2V36.7z M360.9,22.6c-0.1-1.5-0.2-3.2-0.3-4.8
		c-1.3,0.3-2.7,0.5-4,0.7v4.1H360.9z"/>
	<path d="M382.2,28.5c-1.1,0.3-2.2,0.6-3.4,0.9v6.9c0,1.7-0.3,2.5-1.3,3c-1,0.6-2.4,0.6-4.4,0.6c-0.1-0.9-0.6-2.3-1-3.1
		c1.1,0,2.3,0,2.7,0c0.4,0,0.6-0.1,0.6-0.6v-6l-3.4,0.9l-0.7-3.4c1.2-0.2,2.6-0.5,4.1-0.9v-5.2H372v-3.2h3.5v-5.5h3.4v5.5h3.1v3.2
		h-3.1V26l3-0.8L382.2,28.5z M396,36.9c0.1,0,0.3,0,0.4-0.1s0.1-0.3,0.2-0.9c0-0.5,0.1-1.8,0.1-3.4c0.6,0.6,1.7,1.1,2.5,1.4
		c0,1.5-0.1,3.4-0.3,4.1c-0.2,0.7-0.5,1.2-1,1.5s-1.2,0.5-1.8,0.5h-1.6c-0.7,0-1.5-0.2-2-0.8s-0.8-1.2-0.8-3.4v-9.3h-4v2.1
		c0,3.8-1,8.8-5.7,11.8c-0.4-0.7-1.7-2.1-2.3-2.6c4.1-2.5,4.6-6.2,4.6-9.2v-5.2h10.8v12.3c0,0.6,0,1,0.1,1.1s0.2,0.1,0.3,0.1
		C395.5,36.9,396,36.9,396,36.9z M398.9,21h-16.5v-3.3h6.1c-0.3-1.2-1-2.9-1.5-4.1l3.3-0.9c0.7,1.3,1.4,3,1.7,4.2l-2.7,0.8h9.6V21z"
		/>
	<path class="st2" d="M425,17.7c2.8,8.5,7.9,15.5,15.8,18.9c-1.3,1-3,3.2-3.7,4.7c-7.7-3.8-12.6-10.5-15.8-19.2
		c-1,3.2-2.3,6.3-4.2,9.1l1.2-0.8c2.5,2.2,5.9,5.4,7.4,7.6l-4.5,3.2c-1.2-1.9-3.9-4.8-6.3-7.2c-2.6,2.8-5.9,5.3-10.2,7.3
		c-0.8-1.3-2.3-3.2-3.7-4.2c10.3-4.5,14.4-11.8,15.9-19.4h-14.7v-5.2h15.4c0.3-3.7,0.3-7.2,0.3-10.4h5.5c0,3.2-0.1,6.8-0.4,10.4
		h16.7v5.2C439.7,17.7,425,17.7,425,17.7z"/>
	<path class="st2" d="M466.4,23.5c-0.3,0.7-0.7,1.3-1,2h16l-0.1,1.7c-0.4,8.1-1,11.4-2,12.6c-0.8,1-1.6,1.3-2.6,1.5
		c-0.9,0.1-2.4,0.2-4,0.1c0-1.3-0.5-3-1.1-4.1c1.2,0.1,2.1,0.2,2.7,0.2s0.8-0.1,1.2-0.5c0.5-0.6,0.9-2.6,1.2-7.5h-1
		c-1.9,4.8-4.9,9.1-8.3,11.8c-0.7-0.8-2.2-2.1-3.1-2.8c2.9-2.1,5.4-5.4,7-9.1h-2.1c-2.4,4.5-6.3,8.5-10.2,11
		c-0.6-0.8-1.9-2.4-2.7-3.1c3.4-1.8,6.4-4.7,8.5-7.9h-2c-1.4,1.7-3,3.1-4.7,4.2c-0.5-0.7-1.7-1.8-2.6-2.6c-0.6,0.4-1.3,0.6-2.2,0.8
		c-0.7,0.1-1.7,0.1-2.7,0.1c0-1.2-0.4-3.1-1.1-4.2c0.8,0,1.3,0,1.8,0s0.8-0.1,1.2-0.4c0.5-0.3,0.6-1.2,0.6-2.4
		c0-1.9-0.5-4.5-2.9-7.4c0.8-2.6,1.7-6.3,2.4-9.2h-3.3v33H445V3.9h9.1l0.7-0.2l3.2,1.8c-1.1,3.6-2.5,8.1-3.7,11.4
		c2.5,3.2,3.1,6,3.1,8.4c0,1.6-0.2,2.9-0.6,3.8c2-1.6,3.8-3.5,5-5.8h-4.4v-3.9h25v4.1H466.4z M479.4,17.9h-18.8V3.6h18.8V17.9z
		 M474.6,7.1h-9.5v2h9.5V7.1z M474.6,12.4h-9.5v2.1h9.5V12.4z"/>
	<path class="st2" d="M518,36.5c1.3,0,1.6-0.9,1.8-6.6c1.1,0.8,3.3,1.7,4.6,2c-0.5,7.4-1.8,9.3-5.9,9.3h-5c-4.7,0-5.9-1.6-5.9-6.4
		V22.1h-6c-0.7,8.8-2.6,15.5-13.7,19.2c-0.5-1.3-1.9-3.4-3-4.4c9.6-2.9,10.8-8,11.3-14.9H486v-4.7h16.1V2.1h5v15.3h16.6v4.7h-11.1
		v12.6c0,1.5,0.2,1.7,1.6,1.7L518,36.5L518,36.5z M493.3,15.9c-0.6-2.7-2.5-7.1-4.3-10.4l4.5-1.7c1.9,3.2,4,7.3,4.7,10.2L493.3,15.9
		z M521.3,5.3c-1.9,3.7-4,7.8-5.8,10.3l-4.4-1.6c1.8-2.8,3.9-7.2,4.9-10.5L521.3,5.3z"/>
	<path class="st2" d="M540.5,3.7c-1.1,2.9-2.5,5.8-4,8.7v28.9h-4.7V19.7c-0.9,1.2-1.9,2.4-2.9,3.4c-0.5-1.2-1.8-4-2.6-5.2
		c3.8-3.8,7.4-9.7,9.5-15.8L540.5,3.7z M548.9,26.8c-0.4,0.5-0.8,1.1-1.2,1.6h17.9c0,0-0.1,1.1-0.2,1.7c-0.7,6-1.4,8.7-2.5,9.8
		c-0.8,0.8-1.6,1.1-2.6,1.3c-0.8,0.1-2.4,0.1-3.9,0c-0.1-1.1-0.4-2.6-1-3.6c-1.3,1.5-2.7,2.9-4.1,3.9c-0.8-0.7-2.4-2-3.3-2.5
		c2.7-1.8,5-4.3,6.7-7.2H552c-2.4,3.6-5.9,6.9-9.2,9c-0.7-0.7-2.2-2.1-3.1-2.7c2.8-1.6,5.5-3.8,7.5-6.3h-2.7
		c-1.4,1.3-2.9,2.4-4.3,3.4c-0.6-0.8-2.1-2.3-3-3c2.5-1.3,5-3.3,6.8-5.4h-5.8v-3.7h28.3v3.7C566.5,26.8,548.9,26.8,548.9,26.8z
		 M543.3,13.4c-0.6,0.8-1.2,1.5-1.8,2.1c-0.8-0.8-2.6-2.3-3.7-3c2.6-2.6,5.1-6.6,6.6-10.5l4.4,1.2c-0.3,0.7-0.6,1.5-0.9,2.2h17.8V9
		h-19.6c-0.3,0.5-0.6,1.1-1,1.6h17.5v11.2h-19.4v-8.4H543.3z M547.8,15H558v-1.6h-10.1L547.8,15L547.8,15z M547.8,19.1H558v-1.6
		h-10.1L547.8,19.1L547.8,19.1z M559.1,31.9c-1,2.1-2.3,4-3.7,5.7c1.3,0.1,2.3,0.1,2.8,0.1s0.9,0,1.2-0.4c0.6-0.5,1.1-2.1,1.6-5.4
		C561,31.9,559.1,31.9,559.1,31.9z"/>
	<path class="st2" d="M607.6,23.4v4h-37.4v-4h16.3v-1.8h-12.3v-3.7h12.3v-1.4c-4.2,0.2-8.4,0.2-12.2,0.2c0-0.7-0.3-1.7-0.5-2.5h-2.6
		V5.6h15.7c-0.5-0.9-0.9-1.9-1.4-2.6l4.8-1.4c0.8,1.2,1.6,2.7,2.3,4h14.1v8.6h-3l0.5,0.5c-3.7,0.7-8.2,1.2-13,1.6V18h12.7v3.7h-12.7
		v1.8h16.4L607.6,23.4L607.6,23.4z M575.9,29.1h26.2v12.2h-5v-1.1h-16.4v1.2h-4.8V29.1z M576,13.4c3.4,0,7-0.1,10.5-0.3v-2.6h4.7
		v2.3c3.9-0.3,7.5-0.6,10.1-1.1l0.2,0.2V10H576V13.4z M580.7,33v3.2h16.4V33H580.7z"/>
	<path d="M611,14.2h13.8v2.9h-3.6v2.8h3.5v19.8h-2.8v-1.5h-7.8v1.9h-2.6V19.9h3.2v-2.8H611V14.2z M621.9,35.5v-6.6h-0.1h-1.2
		c-1.5,0-1.9-0.5-1.9-2.4v-3.8h-1.3v2.1c0,1.7-0.3,3.8-1.9,5.2c-0.3-0.3-1-1-1.5-1.2v6.7H621.9z M614.1,22.7v6
		c1.3-1.2,1.5-2.6,1.5-3.9v-2.1H614.1z M614.9,31.1h6.1v2.6h-6.1V31.1z M618.6,17h-1.2v2.8h1.2V17z M621.9,22.7h-1.2v3.8
		c0,0.5,0.1,0.5,0.3,0.5h0.6c0.2,0,0.3,0,0.4-0.1L621.9,22.7L621.9,22.7z M633.4,36.6c1,0,1.2-0.7,1.4-4.6c0.7,0.6,2.2,1.1,3.1,1.4
		c-0.3,4.9-1.2,6.4-4.1,6.4H630c-3.1,0-4.1-1-4.1-4.5V23.5h7.6v-5.9h-7.7v-3.3h11.1v12.4h-7.5v8.4c0,1.2,0.1,1.4,1.2,1.4L633.4,36.6
		L633.4,36.6z"/>
	<path d="M651.5,21.1c-0.1,1.2-0.1,2.3-0.3,3.5h12.4c0,0,0,1-0.1,1.5c-0.5,7.9-1.1,11.1-2.3,12.3c-0.9,1-1.8,1.2-3.1,1.4
		c-1.1,0.1-3,0.1-5,0c-0.1-1-0.6-2.5-1.2-3.4c2,0.2,4,0.2,4.9,0.2c0.6,0,1-0.1,1.4-0.4c0.8-0.7,1.3-3.1,1.7-8.3h-9.1
		c-1,4.8-3.1,9.4-8.4,12.4c-0.5-0.9-1.6-2.1-2.5-2.8c7-3.7,7.5-10.2,7.8-16.4h-7.3v-3.4h12.2c-0.5-1.1-1.2-2.6-1.7-3.7l3.4-1.3
		c0.8,1.3,1.7,3,2.1,4.1l-2,0.9h11.9v3.4C666.3,21.1,651.5,21.1,651.5,21.1z"/>
	<g>
		<path class="st2" d="M122.6,23c0-13.4,6.7-19.3,14-19.3c4.4,0,7.6,1.9,9.8,4.1l-3.8,4.3c-1.3-1.4-3.5-2.6-5.6-2.6
			c-4.2,0-7.6,3.1-7.9,12.2c2-2.5,5.1-4,7.4-4c6.1,0,10.4,3.5,10.4,10.8c0,7.2-5.2,11.7-11.4,11.7C128.8,40.3,122.6,35,122.6,23z
			 M129.4,26.7c0.7,6,3.1,8.2,6.1,8.2c2.7,0,4.9-2.1,4.9-6.3c0-4-2.1-5.8-5.2-5.8C133.4,22.8,131.2,23.8,129.4,26.7z"/>
		<path class="st2" d="M165.5,30.9H150V26l13.5-21.5h8.6v21h4.3V31h-4.3v8.7h-6.7L165.5,30.9L165.5,30.9z M165.5,25.4v-7
			c0-2.1,0.1-5.4,0.2-7.5h-0.2c-0.9,1.9-1.9,3.7-2.9,5.7l-5.6,8.9L165.5,25.4L165.5,25.4z"/>
	</g>
</g>
<g>
	<path class="st2" d="M216.5,25.8h2.8v-8h-2.4v-1.6c1.3-0.2,2.2-0.6,3.1-1.1h1.9v10.7h2.5v2.1h-7.9V25.8z"/>
</g>
</svg>
