<?xml version="1.0" encoding="utf-8"?>
<!-- Generator: Adobe Illustrator 26.0.3, SVG Export Plug-In . SVG Version: 6.00 Build 0)  -->
<svg version="1.1" id="lead-block-04_sp.svg" xmlns="http://www.w3.org/2000/svg" xmlns:xlink="http://www.w3.org/1999/xlink"
	 x="0px" y="0px" viewBox="0 0 360.5 88.6" style="enable-background:new 0 0 360.5 88.6;" xml:space="preserve">
<style type="text/css">
	.st0{fill:none;}
	.st1{fill:none;stroke:#1147B4;stroke-width:3;stroke-linecap:round;stroke-dasharray:1.000000e-03,6;}
	.st2{fill:#1147B4;}
</style>
<rect class="st0" width="360.5" height="88.6"/>
<path id="シェイプ_984" class="st1" d="M48.2,34.1h264"/>
<path id="シェイプ_984-2" class="st1" d="M112.7,84.1h136.9"/>
<g>
	<path class="st2" d="M55.7,14.8c0,0,0,0.8-0.1,1.2c-0.3,5.8-0.7,8.3-1.5,9.2c-0.6,0.7-1.2,1-2.1,1.1c-0.8,0.1-2,0.1-3.3,0.1
		c-0.1-0.9-0.4-2.1-0.9-2.9c1.1,0.1,2.2,0.1,2.7,0.1c0.4,0,0.6-0.1,0.9-0.3c0.4-0.5,0.7-2,1-5.5h-6.3c0.5-2.3,0.9-6,1.1-8.9h5.2V5.6
		h-5.7V2.7h8.7v9h-5.6c-0.1,1.1-0.2,2.1-0.3,3.1C49.5,14.8,55.7,14.8,55.7,14.8z M68.8,26.7c-0.1-0.5-0.3-1-0.5-1.6
		c-4.4,0.4-8.9,0.7-12.3,0.9l-0.4-3.1c1.7-0.1,3.8-0.2,6.1-0.3v-3h-5.1v-7.7h5.1V9.7h3v2.2H70v7.7h-1.4c1.2,1.9,2.6,4.3,3,6
		L68.8,26.7z M68.8,10.7c-0.2-0.5-0.5-1.1-0.9-1.7c-8.7,0.8-9.9,0.9-10.8,1.2c-0.2-0.6-0.7-2-1.1-2.7c0.5-0.1,1-0.5,1.5-1.1
		s2.1-2.8,2.9-5l3.3,0.8c-0.9,1.7-2.2,3.4-3.5,4.9L66,6.7c-0.5-0.7-1-1.4-1.5-1.9l2.3-1.3c1.7,1.7,3.6,4,4.5,5.8L68.8,10.7z
		 M61.7,16.9v-2.5h-2.3v2.5H61.7z M64.8,14.4v2.5h2.4v-2.5H64.8z M67,22.2c-0.3-0.6-0.7-1.2-1-1.7l2.5-1h-3.7v2.9L67,22.2z"/>
	<path class="st2" d="M96.9,6.9c0,0,0,1.1-0.1,1.5c-0.5,10.7-1.1,14.8-2.3,16.2c-0.8,1.1-1.6,1.3-2.8,1.5c-1,0.1-2.7,0.1-4.3,0.1
		c-0.1-1-0.5-2.4-1.1-3.3c1.7,0.1,3.3,0.1,4,0.1c0.6,0,0.9-0.1,1.3-0.4c0.8-0.8,1.3-4.4,1.8-12.4h-7.6c-0.4,5.6-2.3,12.1-9.9,16.4
		c-0.5-0.8-1.7-2-2.5-2.6c6.7-3.6,8.5-9.1,9-13.8h-8.1V6.9h8.3V1.4H86V7L96.9,6.9L96.9,6.9z"/>
	<path class="st2" d="M109.9,15.7c-1,0.3-2.1,0.6-3.1,0.8v6.4c0,1.6-0.3,2.3-1.2,2.8c-0.9,0.5-2.2,0.6-4.1,0.6
		c-0.1-0.8-0.5-2.1-0.9-2.9c1.1,0,2.2,0,2.5,0c0.4,0,0.5-0.1,0.5-0.5v-5.6l-3.2,0.8L99.8,15c1.1-0.2,2.4-0.5,3.8-0.8V9.4h-3.3v-3
		h3.3V1.3h3.1v5.1h2.9v3h-2.9v4l2.8-0.7L109.9,15.7z M122.7,23.5c0.1,0,0.3,0,0.4-0.1s0.1-0.3,0.2-0.9c0-0.5,0.1-1.7,0.1-3.2
		c0.6,0.5,1.5,1,2.3,1.3c0,1.4-0.1,3.1-0.3,3.8c-0.2,0.7-0.5,1.1-0.9,1.4s-1.1,0.4-1.6,0.4h-1.5c-0.6,0-1.4-0.2-1.9-0.7
		s-0.7-1.1-0.7-3.2v-8.6h-3.7v1.9c0,3.6-0.9,8.2-5.3,11c-0.4-0.7-1.6-2-2.2-2.5c3.9-2.3,4.3-5.8,4.3-8.6v-4.8H122v11.5
		c0,0.6,0,0.9,0.1,1s0.2,0.1,0.3,0.1h0.3V23.5z M125.5,8.7h-15.4v-3h5.6c-0.3-1.1-0.9-2.7-1.4-3.8l3.1-0.8c0.6,1.2,1.3,2.8,1.6,3.9
		l-2.5,0.8h9C125.5,5.8,125.5,8.7,125.5,8.7z"/>
	<path class="st2" d="M132.3,14.3c-1.1-0.8-3.4-2.1-5-2.9L129,9c1.5,0.7,3.9,1.9,5,2.6L132.3,14.3z M128.2,24.1
		c1.5-2.1,3.5-5.4,5.1-8.5l2.4,2.2c-1.4,2.8-3.1,5.9-4.8,8.5L128.2,24.1z M133.7,7.2c-1.1-0.9-3.4-2.4-5-3.4l1.9-2.2
		c1.6,0.9,3.9,2.2,5.1,3.1L133.7,7.2z M152.3,15.1h-7.1v11.4h-3.5V15.1h-6.6v-3.2h6.6v-6h-5.4V2.7h14.8v3.2h-6v6h7.1L152.3,15.1
		L152.3,15.1z"/>
	<path class="st2" d="M170.2,13.9c0,1.9-1.6,3.5-3.5,3.5s-3.5-1.6-3.5-3.5s1.6-3.5,3.5-3.5S170.2,12,170.2,13.9z"/>
	<path class="st2" d="M191.4,8.6c-1.2,7.3-4.1,12.7-7.9,15.6c-0.5-0.8-1.8-2-2.6-2.5c3.1-2.1,5.4-5.8,6.6-10.5h-5.6V7.9h6.8l0.6-0.1
		L191.4,8.6z M204.8,8.1c-2,2-4.3,4.2-6.3,5.8c2.1,3.1,4.8,5.6,8.2,7.1c-0.8,0.7-1.9,2.1-2.4,3c-3.8-2-6.7-5.3-8.8-9.3v7.7
		c0,1.9-0.4,2.8-1.4,3.4c-1.1,0.6-2.7,0.7-4.9,0.7c-0.1-1-0.7-2.6-1.2-3.6c1.5,0.1,2.9,0.1,3.4,0.1s0.6-0.2,0.6-0.6V1.3h3.4v6.6
		c0.4,1.2,0.9,2.3,1.5,3.5c1.7-1.6,3.6-3.7,4.8-5.3L204.8,8.1z"/>
	<path class="st2" d="M224.2,13.9c0,1.9-1.6,3.5-3.5,3.5s-3.5-1.6-3.5-3.5s1.6-3.5,3.5-3.5S224.2,12,224.2,13.9z"/>
	<path class="st2" d="M240,11.9c0,4.3-0.4,10.7-2.7,14.8c-0.5-0.6-1.8-1.6-2.4-1.9c2-3.6,2.2-8.9,2.2-12.8V3.3h10.1
		c-0.2-0.5-0.4-1.1-0.6-1.5l3.2-0.8c0.3,0.7,0.7,1.5,0.9,2.3h9.3v2.6h-20V11.9z M260.1,22.7h-8.4v1.1c0,1.5-0.4,2.1-1.5,2.4
		c-1.1,0.4-2.8,0.4-5,0.4c-0.2-0.7-0.6-1.7-1-2.4c1.4,0.1,3.3,0.1,3.8,0.1s0.6-0.1,0.6-0.5v-0.9H240v-2.1h8.6v-1.1h-7.2v-2h7.2v-1
		c-2.1,0.1-4.3,0.2-6.3,0.2c-0.1-0.5-0.3-1.4-0.5-1.9c5.1-0.1,11.1-0.4,14.5-1l1.8,1.7c-1.8,0.3-4,0.6-6.3,0.8v1.2h7.3v2h-7.3v1.1
		h8.4v1.9H260.1z M243,11.1c0,1.2-0.2,2.6-1.4,3.5c-0.3-0.4-1.1-1-1.6-1.3c1-0.5,1.2-1.6,1.2-2.3v-1h1.8V11.1z M243.8,14.2V9.5h-3
		V7.3h3v-1h2.4v1h2.9v2.2h-2.9v4.8h-2.4V14.2z M248.3,13.7c-1.2,0-1.5-0.6-1.5-1.8v-1.8h1.7V12c0,0.4,0,0.5,0.2,0.5s0.7,0,0.9-0.1
		c0,0.4,0,0.8,0.1,1.3c-0.2,0.1-0.6,0.1-1,0.1L248.3,13.7L248.3,13.7z M252.2,11c0,1.1-0.2,2.4-0.9,3.3c-0.3-0.4-1.1-1-1.5-1.2
		c0.6-0.5,0.8-1.5,0.8-2.2v-1h1.7V11H252.2z M253,13.6V9.5h-3.2V7.3h3.2v-1h2.4v1h3.8v2.2h-3.8v4.1H253z M257.7,13.9
		c-1.4,0-1.6-0.6-1.6-1.9v-2h1.8v2c0,0.4,0.1,0.6,0.4,0.6h0.4c0.2,0,0.8,0,1.1-0.1l0.1,1.3c-0.2,0.1-0.7,0.1-1.1,0.1
		C258.8,13.9,257.7,13.9,257.7,13.9z"/>
	<path class="st2" d="M267.6,16.3v7.1c0,1.3-0.2,2-1,2.5c-0.7,0.5-1.7,0.6-3.2,0.6c-0.1-0.7-0.4-1.9-0.7-2.7c0.7,0,1.5,0,1.7,0
		s0.4-0.1,0.4-0.4v-6l-2,0.8l-0.8-3.1c0.8-0.2,1.7-0.6,2.8-0.9V9.4h-2.5v-3h2.5V1.3h2.8v5.1h2.1v3h-2.1v3.8l1.5-0.6l0.5,2.8
		L267.6,16.3z M275.8,21c-1.1,1.8-2.7,3.7-4.2,4.9c-0.6-0.5-1.7-1.2-2.4-1.6c1.5-1,3-2.6,3.8-4.1L275.8,21z M286.4,8.2
		c-0.6,1.7-1.6,3.5-2.7,4.9c1.1,1.3,2.5,2.5,3.9,3.2c-0.6,0.5-1.3,1.4-1.7,2.1c-0.4-0.2-0.7-0.4-1-0.6v2h-4.8v6.8h-2.9v-6.8H272
		v-2.1c-0.3,0.2-0.6,0.4-0.9,0.5c-0.4-0.6-1-1.5-1.6-1.9c1.7-0.8,3.4-2.2,4.7-3.9c-0.5-0.5-1.1-1.1-1.8-1.6c-0.5,0.4-1,0.7-1.5,1
		c-0.3-0.6-1.1-1.4-1.6-1.7c1.3-0.6,2.3-1.4,3-2.2h-2V3.5h6.6c-0.2-0.6-0.4-1.2-0.6-1.6l2.9-0.6c0.4,0.7,0.7,1.5,0.9,2.3h6.3v3.9
		H285L286.4,8.2z M273.3,13.4c-1.1,0.3-2,0.6-3.1,0.9l-0.5-1.9c1-0.2,2-0.4,3.4-0.7L273.3,13.4z M284.3,17.2
		c-0.9-0.7-1.7-1.6-2.5-2.6v1.3h-6.5v-1.2c-0.9,0.9-1.8,1.8-2.8,2.5H284.3z M273.2,6.8c0.1-0.2,0.2-0.4,0.3-0.6l2.3,0.4
		c-0.2,0.3-0.3,0.6-0.5,1h1.8l0.4-0.1l1.6,0.8c-0.6,2-1.6,3.8-2.8,5.3h4.8c-0.9-1.3-1.6-2.9-2.1-4.5l1.2-0.4V7.3h3.3V5.9h-10.4v0.9
		H273.2z M273.8,9.7c0.5,0.4,1.1,0.8,1.5,1.2c0.3-0.5,0.6-1,0.9-1.5h-2.1L273.8,9.7z M283.3,20c1.3,1.2,3.1,2.9,3.9,4l-2.3,1.6
		c-0.7-1.2-2.4-2.9-3.7-4.2L283.3,20z M281.5,9.2c0.2,0.6,0.6,1.3,0.9,1.9c0.3-0.6,0.6-1.2,0.9-1.9H281.5z"/>
	<path class="st2" d="M313.7,5.5c0,0,0,1.1,0,1.5c-0.4,12.1-0.6,16.4-1.8,17.8c-0.8,1-1.5,1.3-2.6,1.5c-1,0.1-2.6,0.1-4.2,0.1
		c-0.1-0.9-0.5-2.2-1.1-3.1c1.7,0.2,3.3,0.2,4,0.2c0.5,0,0.8-0.1,1.2-0.5c0.8-0.9,1.1-4.9,1.4-14.4h-5.8c-0.7,1.6-1.5,3.1-2.4,4.3
		c-0.4-0.4-1.3-1-2.1-1.5V24h-7.2v2h-2.9V5.7h3c0.4-1.3,0.7-3.1,0.8-4.3l3.5,0.5c-0.5,1.3-0.9,2.7-1.4,3.9h4.2V10
		c1.6-2.3,2.9-5.5,3.6-8.7L307,2c-0.3,1.2-0.6,2.3-1.1,3.4L313.7,5.5L313.7,5.5z M297.5,8.5h-4.3v4.4h4.3V8.5z M297.5,20.9v-5.3
		h-4.3v5.3H297.5z M306.5,19.5c-0.8-1.6-2.4-4.3-3.8-6.2l2.5-1.4c1.3,1.9,3.1,4.4,4,6L306.5,19.5z"/>
</g>
<g>
	<path class="st2" d="M120.4,66.8c-0.2-0.7-0.6-1.7-1.1-2.6v12.3h-2.8v-9.3c-0.6,1.7-1.2,3.2-1.8,4.3c-0.3-0.9-1-2.3-1.5-3.2
		c1.3-1.9,2.6-5.5,3.3-8.5v-0.9H114v-2.8h2.5v-4.9h2.8v4.9h2.6v2.8h-2.6v1.3c0.6,0.9,2.1,3.2,2.6,4.1V59h5.4v9.5H124v1.1h-2v-4.8
		L120.4,66.8z M120.5,72.9h18.3v2.8h-18.3V72.9z M125.3,58.7c0.5-1.2,1-2.7,1.5-4.2h-5v-2.8H138v2.8h-8.4c-0.2,0.6-0.4,1.3-0.6,1.9
		h2.8c0,0,0,0.9,0,1.2l-0.1,4.5l1.8-1.4c0.5,0.6,1,1.2,1.5,1.9c0.3-0.9,0.5-1.8,0.6-2.8h-3.3v-2.3h4.1l0.5-0.1l1.6,0.5
		c-0.3,2.8-0.9,5.3-1.7,7.3c0.8,1.3,1.5,2.5,1.9,3.6l-2,1.6c-0.3-0.7-0.7-1.6-1.2-2.5c-0.8,1.4-1.8,2.5-2.8,3.3
		c-0.3-0.4-0.9-1.1-1.4-1.6c-0.1,0.7-0.2,1.2-0.4,1.4c-0.5,0.7-1,1-1.8,1.1c-0.7,0.1-1.7,0.1-2.8,0.1c0-0.7-0.3-1.8-0.7-2.5
		c0.8,0.1,1.6,0.1,2,0.1c0.4,0,0.5-0.1,0.8-0.4c0.4-0.6,0.5-3.2,0.5-10.7H125.3z M124,61.3v5h1.3v-5C125.3,61.3,124,61.3,124,61.3z
		 M131.8,62.2c-0.1,3.1-0.1,5.2-0.2,6.5c1-0.9,1.8-2,2.5-3.4C133.3,64.2,132.5,63.1,131.8,62.2z"/>
	<path class="st2" d="M164.3,58.9c-0.6,4.1-1.6,7.6-3.1,10.4c1.3,1.9,3,3.5,4.9,4.6c-0.7,0.6-1.7,1.8-2.2,2.6
		c-1.8-1.2-3.3-2.6-4.5-4.5c-1.5,1.9-3.4,3.3-5.8,4.6c-0.4-0.6-1.6-1.8-2.2-2.4c2.8-1.2,4.8-2.8,6.3-5c-0.8-1.5-1.4-3.1-2-4.8
		c-0.4,0.6-0.7,1.2-1.1,1.7c-0.3-0.6-1.2-1.8-1.9-2.5l-1.2,0.7c-0.1-0.4-0.3-0.7-0.5-1.2c-0.4,1.5-0.9,2.9-1.5,4.2
		c1.4,1.6,2.6,3.2,3.3,4.5l-2.6,2c-0.5-1-1.3-2.2-2.3-3.5c-1.4,2.3-3.2,4.2-5.3,5.6c-0.4-0.6-1.5-1.8-2.1-2.3
		c2.3-1.3,4.1-3.3,5.5-5.7c-0.9-1-1.8-2.1-2.7-3c-0.3,0.4-0.5,0.7-0.8,1.1c-0.5-0.5-1.5-1.5-2.2-2c1.3-1.5,2.7-3.9,3.6-6l2.7,0.9
		c-0.8,1.9-2,4.1-3.1,5.8l2-1.5c0.6,0.6,1.2,1.2,1.8,1.9c0.3-0.9,0.6-1.8,0.8-2.8l2.6,0.5c-0.6-1.2-1.5-2.5-2.3-3.6l2-1.1h-9.3v-2.9
		h5.3c-0.3-0.9-0.9-2-1.4-2.8l2.7-1c0.7,1,1.4,2.3,1.7,3.1l-1.7,0.7h6.2v2.9h-3.1c1.1,1.3,2.1,2.9,2.8,4.2c1.6-2.8,2.6-6.7,3.2-10.8
		l2.9,0.5c-0.2,1.4-0.5,2.9-0.8,4.2h6.7v3h-1.3V58.9z M158.1,58.9c-0.2,0.6-0.4,1.2-0.6,1.7c0.5,1.9,1.1,3.8,1.9,5.5
		c0.9-2.1,1.5-4.5,1.8-7.2C161.2,58.9,158.1,58.9,158.1,58.9z"/>
	<path class="st2" d="M177.8,53.5c-0.7,2.4-1.7,5.4-2.5,7.5c1.7,2.1,2.1,4,2.1,5.6c0,1.8-0.4,2.9-1.3,3.5c-0.4,0.3-0.9,0.5-1.6,0.6
		c-0.5,0.1-1.2,0.1-1.8,0.1c0-0.8-0.3-2.1-0.7-2.9c0.5,0.1,0.9,0.1,1.2,0c0.3,0,0.6-0.1,0.8-0.2c0.3-0.2,0.5-0.8,0.5-1.6
		c0-1.2-0.4-3-1.9-4.8c0.6-1.7,1.2-4.2,1.6-6.1h-2.4v21.2h-3v-24h6.4l0.5-0.1L177.8,53.5z M183.9,58.5c-0.1,1.1-0.1,2.2-0.2,3.2h7.4
		c0,0,0,0.9,0,1.3c-0.3,7.9-0.5,11-1.3,12c-0.6,0.8-1.2,1.1-2.1,1.2c-0.8,0.1-2.1,0.1-3.5,0.1c-0.1-0.9-0.4-2.3-1-3.2
		c1.2,0.1,2.3,0.2,2.8,0.2c0.4,0,0.7-0.1,0.9-0.4c0.5-0.5,0.8-2.8,0.9-8.3h-4.4c-0.7,5.1-2.3,9.1-7.1,11.7c-0.4-0.8-1.3-1.9-2.1-2.5
		c5.8-3.1,6.2-8.4,6.4-15.4h-3.5v-3h6.6c-0.2-1-0.7-2.6-1.1-3.8l2.9-0.7c0.5,1.2,1.1,2.8,1.3,3.8l-2.2,0.6h7.9v3h-8.6V58.5z"/>
	<path class="st2" d="M204.9,58.5c-1.2,7.3-4.1,12.7-7.9,15.6c-0.5-0.8-1.8-2-2.6-2.5c3.1-2.1,5.4-5.8,6.6-10.5h-5.6v-3.2h6.8
		l0.6-0.1L204.9,58.5z M218.3,58c-2,2-4.3,4.2-6.3,5.8c2.1,3.1,4.8,5.6,8.2,7.1c-0.8,0.7-1.9,2.1-2.4,3c-3.8-2-6.7-5.3-8.8-9.3v7.7
		c0,1.9-0.4,2.8-1.4,3.4c-1.1,0.6-2.7,0.7-4.9,0.7c-0.1-1-0.7-2.6-1.2-3.6c1.5,0.1,2.9,0.1,3.4,0.1s0.6-0.2,0.6-0.6V51.2h3.4v6.6
		c0.4,1.2,0.9,2.3,1.5,3.5c1.7-1.6,3.6-3.7,4.8-5.3L218.3,58z"/>
	<path class="st2" d="M246.4,72.6v3H222v-3h10.6v-2.2h-7.8v-2.9h7.8v-1.7h-2v-5.2h-2.5c-0.4,2.2-1.6,4.4-4.2,5.9
		c-0.4-0.6-1.5-1.8-2.1-2.2c2-1,2.9-2.3,3.3-3.7h-2.7v-2.8h3.1V55h-2.1v-2.8h12.3V55h-1.9v2.8h2.5v2.8h-2.5v4.7h2.3v2.2h7.8v2.9
		h-7.8v2.2C236.1,72.6,246.4,72.6,246.4,72.6z M230.6,57.8V55h-2.3v2.8H230.6z M240.2,61.9h-2.9v-9.1h2.9V61.9z M245.2,63
		c0,1.5-0.3,2.2-1.3,2.7c-1,0.4-2.3,0.5-4.2,0.5c-0.1-0.8-0.6-2.1-0.9-2.8c1.2,0.1,2.5,0.1,2.9,0c0.4,0,0.5-0.1,0.5-0.5V51.5h3V63z"
		/>
</g>
</svg>
