<svg id="name-mousse_sp.svg" xmlns="http://www.w3.org/2000/svg" width="286.437" height="102.09" viewBox="0 0 286.437 102.09">
  <defs>
    <style>
      .cls-1, .cls-2 {
        fill: #aa7cb7;
        fill-rule: evenodd;
      }

      .cls-1 {
        opacity: 0.7;
      }
    </style>
  </defs>
  <path id="ALL_IN_ONE_UV_MOUSSE_" data-name="ALL IN ONE UV MOUSSE " class="cls-1" d="M285.388,4880.9h2.2l-6.326-14.13-6.646,14.13h2.2l1.461-3.22h5.706Zm-6.266-5.14,2.062-4.53,1.982,4.53h-4.044Zm12.137-8.21v13.35h5.966v-1.92H293.3v-11.43h-2.042Zm9.88,0v13.35h5.966v-1.92h-3.924v-11.43h-2.042Zm16.539,0v13.35h2.042v-13.35h-2.042Zm9.282,13.35v-9.33l9.69,10.15v-14.17h-2.042v9.25l-9.69-10.15v14.25h2.042Zm27.844-13.59a6.925,6.925,0,1,0,6.946,6.92A6.77,6.77,0,0,0,354.8,4867.31Zm0,11.97a5.047,5.047,0,1,1,4.9-5.05A4.779,4.779,0,0,1,354.8,4879.28Zm13.535,1.62v-9.33l9.69,10.15v-14.17h-2.042v9.25l-9.69-10.15v14.25h2.042Zm22.245-13.35h-7.367v13.35h7.367v-1.92h-5.325v-4.21h5.165v-1.92h-5.165v-3.38h5.325v-1.92Zm11.292,0v8.59a4.935,4.935,0,0,0,1.242,3.46,5.176,5.176,0,0,0,7.407,0,4.934,4.934,0,0,0,1.241-3.46v-8.59h-2.042v8.05a4.662,4.662,0,0,1-.42,2.3,2.923,2.923,0,0,1-4.965,0,4.652,4.652,0,0,1-.421-2.3v-8.05h-2.042Zm13.559,0,5.926,14.21,5.925-14.21h-2.2l-3.723,9.31-3.724-9.31h-2.2ZM439.3,4880.9l1.4-8.07,3.843,8.69,3.884-8.67,1.362,8.05h2.082l-2.523-14.35-4.684,10.37-4.645-10.37-2.8,14.35H439.3Zm23.665-13.59a6.925,6.925,0,1,0,6.946,6.92A6.77,6.77,0,0,0,462.962,4867.31Zm0,11.97a5.047,5.047,0,1,1,4.9-5.05A4.779,4.779,0,0,1,462.962,4879.28Zm11.493-11.73v8.59a4.934,4.934,0,0,0,1.241,3.46,5.177,5.177,0,0,0,7.408,0,4.934,4.934,0,0,0,1.241-3.46v-8.59H482.3v8.05a4.652,4.652,0,0,1-.421,2.3,2.922,2.922,0,0,1-4.964,0,4.652,4.652,0,0,1-.421-2.3v-8.05h-2.042Zm22.487,2a4.529,4.529,0,0,0-1.021-1.34,3.938,3.938,0,0,0-2.682-.9,3.6,3.6,0,0,0-3.9,3.52,3.763,3.763,0,0,0,2.722,3.38l1.282,0.54a2.5,2.5,0,0,1,1.922,2.29,2.144,2.144,0,0,1-2.2,2.24,2.107,2.107,0,0,1-1.741-.8,2.875,2.875,0,0,1-.561-1.7l-2.022.44a4.314,4.314,0,0,0,1.121,2.6,3.909,3.909,0,0,0,3.143,1.34,4.113,4.113,0,0,0,4.305-4.28c0-1.53-.681-2.93-3.144-3.93l-1.341-.54c-1.3-.52-1.441-1.22-1.441-1.62a1.654,1.654,0,0,1,1.882-1.6,2.069,2.069,0,0,1,2.042,1.32Zm12.32,0a4.546,4.546,0,0,0-1.021-1.34,3.939,3.939,0,0,0-2.683-.9,3.6,3.6,0,0,0-3.9,3.52,3.764,3.764,0,0,0,2.723,3.38l1.281,0.54a2.5,2.5,0,0,1,1.922,2.29,2.144,2.144,0,0,1-2.2,2.24,2.109,2.109,0,0,1-1.742-.8,2.881,2.881,0,0,1-.56-1.7l-2.022.44a4.314,4.314,0,0,0,1.121,2.6,3.909,3.909,0,0,0,3.143,1.34,4.113,4.113,0,0,0,4.3-4.28c0-1.53-.68-2.93-3.143-3.93l-1.341-.54c-1.3-.52-1.442-1.22-1.442-1.62a1.655,1.655,0,0,1,1.882-1.6,2.066,2.066,0,0,1,2.042,1.32Zm12.28-2h-7.368v13.35h7.368v-1.92h-5.326v-4.21h5.166v-1.92h-5.166v-3.38h5.326v-1.92Z" transform="translate(-274.625 -4866.53)"/>
  <path id="オールインワンUV_ムース_" data-name="オールインワンUV  ムース " class="cls-2" d="M290.153,4898.55a6.857,6.857,0,0,1,2.469.64,1.343,1.343,0,0,1,.873,1.41c0.076,1.29.114,3.49,0.114,5.13-4.063.45-9.569,1.17-12.227,1.17-1.215.04-2.05-.72-3-2.01l-0.607.27a6.092,6.092,0,0,0,.3,2.27c0.417,1.03,2.316,3.08,3.531,3.08,1.1,0,2.126-.65,3.873-1.03,1.671-.34,3.835-0.75,6.3-1.1-3.113,5.7-9.606,12.08-16.441,16.29l0.493,0.72a42.8,42.8,0,0,0,17.847-13.21c0.038,4.41.076,9-.038,10.37a0.685,0.685,0,0,1-.836.68c-1.177-.08-3.037-0.46-4.746-0.76l-0.228.65a18.31,18.31,0,0,1,4.1,2.46c1.025,0.92,1.063,2.36,2.316,2.36,1.329,0,2.848-1.98,2.848-4.03,0-1.33-.228-2.54-0.3-4.48-0.113-2.84-.189-8.27-0.151-11.54a71.9,71.9,0,0,1,9.037.04,1.207,1.207,0,0,0,1.291-1.26c0-1.13-2.544-2.58-4.1-2.58a26.831,26.831,0,0,1-6.189,1.33,30.668,30.668,0,0,1,.3-3.8c0.19-1.32.8-1.48,0.8-2.35,0-.76-2.355-2.28-4.367-2.28a8.071,8.071,0,0,0-3.266.91v0.65Zm19.809,11.58a5.913,5.913,0,0,0,.19,2.58c0.646,1.6,2.734,3.8,4.063,3.8,1.291,0,1.785-.72,4.291-0.99,2.886-.34,12.3-0.91,14.96-0.91,2.544,0,3.873.11,5.316,0.11s2.165-.49,2.165-1.4c0-1.37-1.9-2.35-3.8-2.35-0.95,0-2.393.3-4.937,0.49-2.088.15-14.315,0.95-18.074,0.95-1.861,0-2.506-1.1-3.493-2.51Zm47.91-8.58c1.861,0.3,2.886.83,2.924,1.86,0.228,3.64.038,13.59-.114,15.57-0.152,1.48-.607,1.9-0.607,2.66,0,0.94,1.936,3.34,3.113,3.34,0.949,0,1.557-1.18,2.43-1.75,4.9-3.08,10.328-7.75,13.556-12.76l-0.683-.53a47.988,47.988,0,0,1-13.974,9.64c-0.456.19-.721,0.04-0.721-0.49-0.038-2.77.228-11.77,0.493-13.78,0.152-1.33,1.026-1.45,1.026-2.36,0-1.1-2.848-2.81-4.671-2.81a5.861,5.861,0,0,0-2.81.73Zm-5.126,6.42c0,5.08-3.759,13.1-9.645,18.11l0.57,0.68a24.671,24.671,0,0,0,12.644-16.71c0.19-.95.988-1.48,0.988-2.39,0-1.37-3.114-3.04-4.709-3.11a7.083,7.083,0,0,0-2.62.49v0.72C351.113,4906.14,352.746,4906.75,352.746,4907.97Zm44.035-10.14c1.367,0.68,2.24,1.33,2.24,2.01A5.009,5.009,0,0,1,398,4902c-2.734,4.11-10.063,11.7-18.8,16.64l0.456,0.79a51.141,51.141,0,0,0,14.808-8.81,3.263,3.263,0,0,1,.38,1.56,85.9,85.9,0,0,1-.418,10.1c-0.152,1.25-.417,2.05-0.417,2.77,0,1.64.8,3.53,2.468,3.53,1.139,0,1.709-.79,1.709-2.31,0-2.09-.266-7.71-0.076-12.99,0.076-1.02.379-1.63,0.379-2.24,0-.64-0.911-1.37-2.088-2.16,2.316-2.21,4.215-4.26,5.582-5.66,1.063-1.1,1.86-1.06,1.86-2.05,0-1.18-2.012-3.11-3.835-3.68a7.962,7.962,0,0,0-3-.31Zm15.021,3.3a25.4,25.4,0,0,1,6.455,6.23c0.987,1.29,1.633,1.86,2.62,1.86a1.955,1.955,0,0,0,1.974-2.05c0-3.53-5.809-5.89-10.632-6.76Zm3.987,20.81c-1.329,0-2.62-1.33-3.608-2.39l-0.569.34a8.211,8.211,0,0,0,.8,3.04c0.8,1.36,3.266,3.41,5.164,3.41,0.988,0,1.443-1.1,2.468-1.74,8.582-5.36,15.569-11.77,19.973-20.01l-0.759-.5C433.825,4911.72,419.358,4921.94,415.789,4921.94Zm27.593-21.91a8.872,8.872,0,0,1,2.7,4.21,28.868,28.868,0,0,1,.569,5.28c0.076,1.29-.114,2.24-0.114,3.15,0,1.18.8,3.46,2.279,3.46,1.4,0,1.594-.99,1.557-2.16-0.038-1.87-.456-7.37-0.646-9.65a3.5,3.5,0,0,0,1.937.8c0.949,0,3.189-.57,5.733-0.88s6.417-.68,8.05-0.68c0.456,0,.532.11,0.456,0.61-1.709,9.11-7.784,17.88-16.822,23.39l0.57,0.83c10.214-4.36,16.631-11.65,20.087-22.17,0.3-.87,1.746-1.48,1.746-2.32,0-1.06-2.885-3.64-4.29-3.64-0.722,0-1.709.95-2.468,1.02-2.886.34-11.582,1.14-15.265,1.29a1.157,1.157,0,0,0-.266-0.34,13.543,13.543,0,0,0-5.354-2.73Zm33.933,1.1a25.4,25.4,0,0,1,6.455,6.23c0.987,1.29,1.632,1.86,2.62,1.86a1.955,1.955,0,0,0,1.974-2.05c0-3.53-5.809-5.89-10.632-6.76Zm3.987,20.81c-1.329,0-2.62-1.33-3.608-2.39l-0.569.34a8.192,8.192,0,0,0,.8,3.04c0.8,1.36,3.266,3.41,5.164,3.41,0.987,0,1.443-1.1,2.468-1.74,8.582-5.36,15.568-11.77,19.973-20.01l-0.759-.5C499.338,4911.72,484.871,4921.94,481.3,4921.94Zm52.844-23.13H524.122v1.37l4.366,0.57,0.076,13.9c0.038,7.29-2.43,10.06-7.214,10.06-4.367,0-6.949-2.39-6.949-9.53v-3.46c0-3.75,0-7.44.076-11.08l4.063-.46v-1.37H506.465v1.37l3.418,0.38c0.113,3.72.113,7.48,0.113,11.16v4.33c0,8.21,4.177,11.43,10.367,11.43,6.037,0,9.91-3.57,9.948-12.11l0.076-14.66,3.759-.53v-1.37Zm26.905,0h-9.493v1.49l3.949,0.45-6.645,20.89-7.214-20.96,4.063-.38v-1.49H533.864v1.37l3.037,0.34,9.683,26.51h2.164l8.848-26.39,3.455-.53v-1.3Zm-268.165,55.86a24.263,24.263,0,0,1,4.823,6.54c-3.873.56-10.556,1.36-15.151,1.82,2.81-4.63,6.417-11.47,8.24-14.96,0.57-1.07,1.709-1.56,1.709-2.36,0-1.06-2.127-3.03-4.063-3.68a11.381,11.381,0,0,0-2.658-.38l-0.228.61c1.253,1.02,1.861,1.82,1.861,2.73,0,2.05-4.709,12.99-7.519,18.27-1.063.11-1.822,0.15-2.164,0.15a4.573,4.573,0,0,1-2.43-1.14l-0.494.23a6.1,6.1,0,0,0-.038,1.67c0.19,1.44,2.2,3.83,3.645,3.83,0.722,0,1.709-1.1,2.507-1.29,3.075-.8,12.15-2.35,17.58-3.64,1.367,3.56,1.253,5.27,2.962,5.27a2.2,2.2,0,0,0,2.126-2.46c0-4.6-5.088-9.42-10.138-11.81Zm13.733-2.54a5.913,5.913,0,0,0,.19,2.58c0.645,1.6,2.734,3.8,4.063,3.8,1.291,0,1.784-.72,4.29-0.99,2.886-.34,12.3-0.91,14.961-0.91,2.544,0,3.873.11,5.316,0.11s2.164-.49,2.164-1.4c0-1.37-1.9-2.35-3.8-2.35-0.949,0-2.392.3-4.936,0.49-2.088.15-14.315,0.95-18.074,0.95-1.861,0-2.506-1.1-3.494-2.51Zm38.3-8.89a8.111,8.111,0,0,0,.38,2.59c0.455,1.21,2.126,3.19,3.569,3.19,1.025,0,1.329-.84,2.544-1.22,1.974-.57,7.025-1.94,9.037-2.2,0.418-.04.646,0.07,0.456,0.61-3.266,7.59-12.455,16.97-21.416,21.6l0.494,0.8a43.374,43.374,0,0,0,17.58-11.47c3.494,2.2,5.392,4.75,7.443,7.6,1.594,2.08,2.392,3.26,3.683,3.26a1.894,1.894,0,0,0,1.9-1.97c0-3.8-5.885-7.67-12.075-9.91a68.153,68.153,0,0,0,6-8.2c0.456-.69,1.974-1.18,1.974-2.09,0-1.07-3.037-3.61-4.442-3.61-0.684,0-1.253.95-2.127,1.18a79.412,79.412,0,0,1-11.353,1.78c-1.291,0-2.164-1.21-2.924-2.24Z" transform="translate(-274.625 -4866.53)"/>
</svg>
