<svg id="name-tm.svg" xmlns="http://www.w3.org/2000/svg" width="179.906" height="98.47" viewBox="0 0 179.906 98.47">
  <defs>
    <style>
      .cls-1 {
        fill: #956f17;
        opacity: 0.7;
      }

      .cls-1, .cls-2 {
        fill-rule: evenodd;
      }

      .cls-2 {
        fill: #8c6c14;
      }
    </style>
  </defs>
  <path id="Toughness_UV_milk" data-name="Toughness UV milk" class="cls-1" d="M818.01,2753.01v-1.44h-6.129v1.44h2.3v8.58h1.532v-8.58h2.3Zm7.575-1.62a5.2,5.2,0,1,0,5.212,5.2A5.081,5.081,0,0,0,825.585,2751.39Zm0,8.98a3.786,3.786,0,1,1,3.68-3.78A3.583,3.583,0,0,1,825.585,2760.37Zm8.617-8.8v6.44a3.7,3.7,0,0,0,.932,2.6,3.862,3.862,0,0,0,5.558,0,3.7,3.7,0,0,0,.931-2.6v-6.44h-1.532v6.04a3.526,3.526,0,0,1-.315,1.73,2.2,2.2,0,0,1-3.726,0,3.526,3.526,0,0,1-.315-1.73v-6.04H834.2Zm16.493,6.22h2.494a2.692,2.692,0,0,1-.842,1.7,3.008,3.008,0,0,1-2.238.88,3.271,3.271,0,0,1-2.509-1,4.163,4.163,0,0,1,.03-5.53,3.6,3.6,0,0,1,2.644-1.04,3.386,3.386,0,0,1,1.773.44,4.085,4.085,0,0,1,1.232,1.14l1.217-.86a4.606,4.606,0,0,0-1.623-1.5,5.332,5.332,0,0,0-6.354,8.4,4.39,4.39,0,0,0,3.41,1.37,4.715,4.715,0,0,0,3.41-1.28,5.491,5.491,0,0,0,1.487-4.06v-0.07H850.7v1.41Zm9.069-6.22h-1.532v10.02h1.532v-4.61h4.3v4.61h1.532v-10.02h-1.532v3.97h-4.3v-3.97Zm11.25,10.02v-7l7.271,7.62v-10.64h-1.532v6.94l-7.271-7.62v10.7h1.532Zm16.686-10.02h-5.528v10.02H887.7v-1.44h-4v-3.16h3.876v-1.44H883.7v-2.54h4v-1.44Zm9.03,1.5a3.383,3.383,0,0,0-.766-1,2.957,2.957,0,0,0-2.013-.68,2.7,2.7,0,0,0-2.93,2.64,2.813,2.813,0,0,0,2.043,2.54l0.962,0.41a1.869,1.869,0,0,1,1.442,1.71,1.606,1.606,0,0,1-1.652,1.68,1.581,1.581,0,0,1-1.307-.6,2.139,2.139,0,0,1-.421-1.27l-1.517.33a3.235,3.235,0,0,0,.841,1.95,2.936,2.936,0,0,0,2.358,1.01,3.091,3.091,0,0,0,3.23-3.22c0-1.14-.51-2.19-2.358-2.94l-1.007-.41a1.331,1.331,0,0,1-1.081-1.22,1.243,1.243,0,0,1,1.412-1.2,1.624,1.624,0,0,1,1.081.36,1.654,1.654,0,0,1,.451.63Zm9.24,0a3.4,3.4,0,0,0-.766-1,2.957,2.957,0,0,0-2.013-.68,2.7,2.7,0,0,0-2.93,2.64,2.813,2.813,0,0,0,2.043,2.54l0.962,0.41a1.869,1.869,0,0,1,1.442,1.71,1.606,1.606,0,0,1-1.653,1.68,1.583,1.583,0,0,1-1.307-.6,2.145,2.145,0,0,1-.42-1.27l-1.517.33a3.235,3.235,0,0,0,.841,1.95,2.936,2.936,0,0,0,2.358,1.01,3.091,3.091,0,0,0,3.23-3.22c0-1.14-.511-2.19-2.358-2.94l-1.007-.41a1.331,1.331,0,0,1-1.081-1.22,1.243,1.243,0,0,1,1.412-1.2,1.624,1.624,0,0,1,1.081.36,1.654,1.654,0,0,1,.451.63Zm8.676-1.5v6.44a3.7,3.7,0,0,0,.931,2.6,3.864,3.864,0,0,0,5.559,0,3.7,3.7,0,0,0,.931-2.6v-6.44h-1.532v6.04a3.515,3.515,0,0,1-.316,1.73,2.2,2.2,0,0,1-3.725,0,3.515,3.515,0,0,1-.316-1.73v-6.04h-1.532Zm10.168,0,4.447,10.67,4.446-10.67h-1.652l-2.794,6.99-2.794-6.99h-1.653Zm17.9,10.02,1.052-6.05,2.884,6.52,2.915-6.51,1.021,6.04h1.562l-1.892-10.77-3.516,7.78-3.485-7.78-2.1,10.77h1.562Zm13.018-10.02v10.02h1.533v-10.02H955.73Zm5.43,0v10.02h4.477v-1.44h-2.945v-8.58H961.16Zm8.942,0H968.57v10.02H970.1v-4.15l0.3-.3,3.575,4.45h2.043l-4.552-5.48,4.522-4.54h-2.013l-3.876,4v-4Z" transform="translate(-811.875 -2750.81)"/>
  <path id="タフネスUV_ミルク" data-name="タフネスUV ミルク" class="cls-2" d="M833.514,2788.67a31.183,31.183,0,0,1-4.247,7.45,45.175,45.175,0,0,0-7.746-3.27,42.66,42.66,0,0,0,3.533-4.04,2.636,2.636,0,0,0,1.257.61,7.729,7.729,0,0,0,1.9-.44,30.99,30.99,0,0,1,4.927-.88C833.514,2788.06,833.718,2788.23,833.514,2788.67Zm-11.755-6.35c1.155,0.58,1.97,1.22,1.97,1.87,0,2.11-5.5,9.89-10.7,14l0.475,0.64a29.716,29.716,0,0,0,7.305-5.3,23.926,23.926,0,0,1,6.9,4.52,47.312,47.312,0,0,1-14.406,11.52l0.442,0.71a39.676,39.676,0,0,0,15.867-10.16c2.209,2.59,2.718,3.88,3.975,3.84a1.57,1.57,0,0,0,1.563-1.76c-0.068-1.53-1.529-3.09-3.431-4.49a51,51,0,0,0,5.028-7.54c0.442-.85,1.767-1.19,1.767-1.94,0-1.19-2.752-2.99-3.669-2.99-0.68,0-1.088.75-2,.99a43.448,43.448,0,0,1-6.558.88c0.306-.47.612-0.95,0.918-1.43,0.543-.88,1.019-1.12,1.019-1.76,0-.78-2.208-2.04-4.111-2.21a7.787,7.787,0,0,0-2.209.07Zm25.2,2.75-0.543.21a8.18,8.18,0,0,0,.238,2.17c0.339,1.09,2.106,3.06,3.4,3.06,0.714,0,1.563-.71,2.379-0.95a102.787,102.787,0,0,1,12.3-1.97c0.306,0,.476.1,0.374,0.47-1.869,7.68-8.392,15.63-17.872,20.52l0.442,0.72c10.6-3.67,16.75-10.06,20.624-18.42,0.509-1.08,1.835-1.73,1.835-2.72,0-1.08-2.99-3.56-4.316-3.56-0.815,0-1.223.64-2.412,0.91-1.733.38-11.246,1.36-13.624,1.36C848.52,2786.87,847.739,2785.96,846.957,2785.07Zm37.567-3.97a16.036,16.036,0,0,1,4.077,3.46c0.849,1.26,1.189,1.97,2.208,1.97a1.706,1.706,0,0,0,1.733-1.69c0-2.55-3.975-3.84-7.679-4.25Zm-6.048,7.06a6.23,6.23,0,0,0,.272,2.42c0.475,1.19,2.106,2.55,3.125,2.55,0.918,0,1.19-.85,2.277-1.19,1.767-.51,6.659-1.77,7.78-1.87,0.442-.04.476,0.1,0.238,0.51-2.616,4.58-11.008,11.11-17.973,14.71l0.407,0.75a46.357,46.357,0,0,0,13.727-7.55,8.509,8.509,0,0,1,.034.96,50.844,50.844,0,0,1-.374,5.91,14.185,14.185,0,0,0-.34,2.24c0,1.05.748,2.89,1.9,2.89,1.359,0,1.563-1.09,1.563-2.01,0-.74-0.17-2.17-0.17-3.36,0-4.86.2-6.12,0.2-6.97a1.968,1.968,0,0,0-.815-1.32,41.7,41.7,0,0,0,5.3-5.47c0.442-.54,2-0.85,2-1.67,0-.88-2.481-2.61-3.568-2.61-0.612,0-.781.68-1.971,0.98a86.524,86.524,0,0,1-10.7,1.7c-1.02,0-1.733-.88-2.413-1.77Zm14.372,8.87a15.776,15.776,0,0,1,6.048,5.47c0.815,1.19,1.257,1.46,2,1.46a1.529,1.529,0,0,0,1.563-1.52c0-3.23-4.213-5.44-9.309-5.98Zm17.894-11.48a7.208,7.208,0,0,0,.34,2.31c0.407,1.09,1.9,2.85,3.193,2.85,0.918,0,1.19-.74,2.277-1.08a82.552,82.552,0,0,1,8.086-1.97c0.374-.04.578,0.06,0.408,0.54-2.922,6.79-11.144,15.19-19.163,19.33l0.442,0.72a38.831,38.831,0,0,0,15.731-10.27,22.937,22.937,0,0,1,6.659,6.8c1.428,1.87,2.141,2.92,3.3,2.92a1.694,1.694,0,0,0,1.7-1.77c0-3.39-5.266-6.86-10.805-8.86a60.74,60.74,0,0,0,5.369-7.34c0.408-.61,1.767-1.06,1.767-1.87,0-.95-2.719-3.23-3.976-3.23-0.611,0-1.121.85-1.9,1.05a69.476,69.476,0,0,1-10.159,1.6c-1.156,0-1.937-1.09-2.617-2Zm54.251-2.18h-8.97v1.23l3.907,0.51L960,2797.54c0.034,6.53-2.175,9.01-6.456,9.01-3.907,0-6.217-2.14-6.217-8.53v-3.09c0-3.37,0-6.66.068-9.92l3.635-.41v-1.23h-10.8v1.23l3.057,0.34c0.1,3.33.1,6.69,0.1,9.99v3.87c0,7.34,3.738,10.23,9.276,10.23,5.4,0,8.868-3.2,8.9-10.84l0.068-13.12,3.364-.47v-1.23Zm26.792,0h-8.494v1.33l3.534,0.41-5.946,18.68-6.456-18.75,3.636-.34v-1.33h-10.6v1.23l2.718,0.3,8.664,23.72h1.937l7.916-23.61,3.092-.48v-1.16ZM827.7,2824.48c-2.481-1.15-6.8-1.7-10.737-1.87l-0.136.65a27.875,27.875,0,0,1,9.547,4.45c1.19,0.92,1.631,1.39,2.617,1.39a1.47,1.47,0,0,0,1.393-1.46C830.387,2826.42,829.741,2825.43,827.7,2824.48Zm-12.334,7.03a39.4,39.4,0,0,1,8.494,4.12c1.155,0.78,1.733,1.18,2.48,1.18a1.413,1.413,0,0,0,1.461-1.49c0-1.29-1.019-2.11-2.48-2.75a27.028,27.028,0,0,0-9.785-1.7Zm-1.121,9.45a35.265,35.265,0,0,1,11.654,5.5c1.291,1.02,2.276,1.84,3.228,1.84a1.5,1.5,0,0,0,1.732-1.63c0-.95-0.883-2.04-2.344-2.92-2.99-1.81-8.8-3.23-14.1-3.47Zm37.566-16.14c1.665,0.27,2.582.75,2.616,1.67,0.2,3.26.034,12.16-.1,13.93-0.136,1.32-.543,1.69-0.543,2.37,0,0.85,1.732,2.99,2.786,2.99,0.849,0,1.393-1.05,2.174-1.56,4.383-2.75,9.242-6.93,12.13-11.41l-0.612-.48a43.148,43.148,0,0,1-12.5,8.63c-0.408.17-.646,0.03-0.646-0.44-0.034-2.48.2-10.54,0.442-12.34,0.136-1.18.917-1.29,0.917-2.1,0-.99-2.548-2.52-4.179-2.52a5.273,5.273,0,0,0-2.514.65Zm-4.587,5.74c0,4.56-3.364,11.72-8.63,16.21l0.51,0.61a22.075,22.075,0,0,0,11.314-14.95c0.17-.85.883-1.32,0.883-2.14,0-1.22-2.786-2.72-4.213-2.79a6.3,6.3,0,0,0-2.344.45v0.64C845.766,2828.93,847.227,2829.48,847.227,2830.56Zm40.354-3.87c0.441-.61.849-1.26,1.223-1.87,0.544-.88.985-1.12,0.985-1.77,0-.78-2.242-2.03-4.111-2.2a7.652,7.652,0,0,0-2.242.06l-0.136.55c1.155,0.54,2,1.22,2,1.87,0,2.07-4.722,8.9-10.125,13.11l0.476,0.65a31.35,31.35,0,0,0,10.771-8.84,2.916,2.916,0,0,0,1.528.82,7.729,7.729,0,0,0,1.9-.44,30.156,30.156,0,0,1,4.689-.85c0.34,0,.51.17,0.34,0.61-2.752,6.93-10.7,15.59-19.367,20.18l0.442,0.71c10.465-3.94,17.43-10.87,22.288-19.43,0.544-.95,1.767-1.26,1.767-2.11,0-1.15-2.888-2.82-3.8-2.82-0.68,0-1.121.75-2.039,0.99a40.828,40.828,0,0,1-6.319.78h-0.272Z" transform="translate(-811.875 -2750.81)"/>
</svg>
