<svg id="name-ts.svg" xmlns="http://www.w3.org/2000/svg" width="227.656" height="96.56" viewBox="0 0 227.656 96.56">
  <defs>
    <style>
      .cls-1 {
        fill: #948ab5;
        opacity: 0.8;
      }

      .cls-1, .cls-2 {
        fill-rule: evenodd;
      }

      .cls-2 {
        fill: #716692;
      }
    </style>
  </defs>
  <path id="Tone_up_UV_stick" data-name="Tone up UV stick" class="cls-1" d="M817.01,3803.01v-1.44h-6.129v1.44h2.3v8.58h1.532v-8.58h2.3Zm7.575-1.62a5.2,5.2,0,1,0,5.212,5.2A5.081,5.081,0,0,0,824.585,3801.39Zm0,8.98a3.786,3.786,0,1,1,3.68-3.78A3.583,3.583,0,0,1,824.585,3810.37Zm10.15,1.22v-7l7.271,7.62v-10.64h-1.533v6.94l-7.271-7.62v10.7h1.533Zm16.685-10.02h-5.528v10.02h5.528v-1.44h-4v-3.16H851.3v-1.44h-3.876v-2.54h4v-1.44Zm8.467,0v6.44a3.7,3.7,0,0,0,.931,2.6,3.864,3.864,0,0,0,5.559,0,3.7,3.7,0,0,0,.931-2.6v-6.44h-1.532v6.04a3.515,3.515,0,0,1-.316,1.73,2.2,2.2,0,0,1-3.725,0,3.515,3.515,0,0,1-.316-1.73v-6.04h-1.532Zm11.31,0v10.02h1.532v-4.07h0.691a3.648,3.648,0,0,0,2.449-.78,2.818,2.818,0,0,0,.976-2.2,2.905,2.905,0,0,0-1.247-2.43,3.919,3.919,0,0,0-2.193-.54H871.2Zm1.532,1.41h0.676c1.743,0,1.968.99,1.968,1.55,0,0.93-.631,1.58-1.953,1.58h-0.691v-3.13Zm12.162-1.41v6.44a3.7,3.7,0,0,0,.932,2.6,3.862,3.862,0,0,0,5.558,0,3.7,3.7,0,0,0,.931-2.6v-6.44H890.78v6.04a3.526,3.526,0,0,1-.315,1.73,2.2,2.2,0,0,1-3.726,0,3.526,3.526,0,0,1-.315-1.73v-6.04h-1.533Zm10.169,0,4.446,10.67,4.447-10.67H902.3l-2.794,6.99-2.794-6.99H895.06Zm22.194,1.5a3.383,3.383,0,0,0-.766-1,2.955,2.955,0,0,0-2.013-.68,2.7,2.7,0,0,0-2.929,2.64,2.812,2.812,0,0,0,2.043,2.54l0.961,0.41a1.869,1.869,0,0,1,1.442,1.71,1.606,1.606,0,0,1-1.652,1.68,1.581,1.581,0,0,1-1.307-.6,2.139,2.139,0,0,1-.421-1.27l-1.517.33a3.235,3.235,0,0,0,.841,1.95,2.937,2.937,0,0,0,2.359,1.01,3.091,3.091,0,0,0,3.229-3.22c0-1.14-.51-2.19-2.358-2.94l-1.007-.41a1.331,1.331,0,0,1-1.081-1.22,1.244,1.244,0,0,1,1.412-1.2,1.626,1.626,0,0,1,1.082.36,1.662,1.662,0,0,1,.45.63Zm8.759-.06v-1.44h-6.129v1.44h2.3v8.58h1.533v-8.58h2.3Zm2.842-1.44v10.02h1.533v-10.02h-1.533Zm12.851,0.54a4.725,4.725,0,0,0-2.674-.72,4.95,4.95,0,0,0-3.62,1.31,5.227,5.227,0,0,0-1.607,3.92,4.894,4.894,0,0,0,1.607,3.78,5,5,0,0,0,3.545,1.39,5.5,5.5,0,0,0,2.749-.76v-1.81a3.974,3.974,0,0,1-2.7,1.15,3.787,3.787,0,0,1-.015-7.57,3.932,3.932,0,0,1,2.719,1.11v-1.8Zm4.912-.54h-1.533v10.02h1.533v-4.15l0.3-.3,3.575,4.45h2.043l-4.551-5.48,4.521-4.54h-2.013l-3.875,4v-4Z" transform="translate(-809.844 -3800.91)"/>
  <path id="トーンアップUV_スティック" data-name="トーンアップUV スティック" class="cls-2" d="M813.247,3831.36c1.565,0.24,2.484.55,2.654,1.67a82.888,82.888,0,0,1,.306,8.4c0,2.28-.034,7.29-0.306,9.8-0.136,1.43-.442,2.15-0.442,2.96,0,1.94.816,3.81,2.279,3.81,1.089,0,1.464-.57,1.464-1.97,0-.51-0.069-1.6-0.1-3.27-0.068-3.23-.1-8.16-0.034-11.16a21.428,21.428,0,0,1,4.764,2.73c2.382,2.04,2.654,3.6,4.355,3.6a1.58,1.58,0,0,0,1.6-1.7c0-1.46-.919-2.41-2.246-3.2a24.936,24.936,0,0,0-8.473-2.69c0.068-1.97.137-4.08,0.307-5.51,0.17-1.19.85-1.46,0.85-2.31,0-.99-2.722-2.49-4.321-2.49a8.582,8.582,0,0,0-2.688.72Zm24.293,10.14a6.258,6.258,0,0,0,.144,2.32c0.492,1.42,2.081,3.4,3.092,3.4,0.983,0,1.359-.65,3.266-0.89,2.2-.3,9.363-0.81,11.385-0.81,1.937,0,2.948.1,4.046,0.1s1.647-.44,1.647-1.26c0-1.23-1.445-2.11-2.889-2.11-0.723,0-1.821.27-3.757,0.44-1.589.14-10.894,0.85-13.755,0.85-1.416,0-1.908-.98-2.659-2.24Zm31.508-8.06a22.682,22.682,0,0,1,5.785,5.58c0.884,1.15,1.463,1.66,2.347,1.66a1.747,1.747,0,0,0,1.77-1.83c0-3.17-5.206-5.28-9.528-6.06Zm3.573,18.64c-1.191,0-2.348-1.19-3.233-2.14l-0.51.31a7.334,7.334,0,0,0,.715,2.72c0.714,1.22,2.926,3.06,4.627,3.06,0.885,0,1.293-.99,2.212-1.56,7.69-4.8,13.95-10.55,17.9-17.94l-0.68-.44C888.783,3842.93,875.819,3852.08,872.621,3852.08Zm27.333-19.49a5.644,5.644,0,0,0,.34,2.34c0.51,1.26,2.28,2.86,3.368,2.86,0.953,0,1.225-.78,2.552-1.12a141.737,141.737,0,0,1,14.087-2.31c0.681,0,.851.13,0.476,0.81a24.333,24.333,0,0,1-5.342,5.21,8.257,8.257,0,0,0-3.3-.92,10.686,10.686,0,0,0-2.28.1l-0.1.61c1.429,0.58,2.654,1.16,2.654,2.22,0,2.28-4.389,10.71-11.024,15.04l0.51,0.64c7.656-3.6,11.807-8.98,14.461-15.89a1.388,1.388,0,0,0,.1-0.71c2.926-1.53,5.717-3.27,7.214-4.22,0.782-.51,2.45-0.65,2.45-1.67,0-1.22-2.961-3.91-4.118-3.91-0.714,0-1.156.58-2.177,0.71-2.212.34-14.189,1.67-16.911,1.67-1.055,0-1.5-.61-2.348-1.67Zm35.606,9.63c0.851,1.83.749,3.3,2.076,3.3a1.454,1.454,0,0,0,1.531-1.5,4.454,4.454,0,0,0-2.314-3.71,11.347,11.347,0,0,0-2.722-1.46l-0.34.37A12.765,12.765,0,0,1,935.56,3842.22Zm11.3,1.56c0.374-.78,1.122-1.26,1.122-1.9,0-1.13-1.973-2.93-3.538-3.03a9.8,9.8,0,0,0-1.77.13l-0.1.45c1.123,0.54,1.736,1.05,1.736,1.63,0,3.13-5.955,12.25-14.563,16.6l0.34,0.55A27.532,27.532,0,0,0,946.857,3843.78Zm-17.184.41c0.885,1.87.953,3.4,2.246,3.4a1.418,1.418,0,0,0,1.5-1.53c0-1.43-.986-2.82-2.688-3.91a10.61,10.61,0,0,0-2.518-1.43l-0.374.37A14.449,14.449,0,0,1,929.673,3844.19Zm48.943-8.88a3.69,3.69,0,1,0-3.709-3.71A3.665,3.665,0,0,0,978.616,3835.31Zm0-6.09a2.4,2.4,0,1,1-2.416,2.38A2.393,2.393,0,0,1,978.616,3829.22Zm-24.7,4.59-0.578.24a8.1,8.1,0,0,0,.272,2.18c0.34,1.09,2.076,3.06,3.4,3.06,0.714,0,1.531-.65,2.382-0.85a108.927,108.927,0,0,1,12.283-1.97c0.306,0,.476.1,0.374,0.47-1.871,7.69-8.4,15.59-17.9,20.45l0.442,0.72c10.616-3.68,16.809-10.08,20.654-18.45,0.51-1.12,1.667-1.46,1.667-2.45,0-1.08-3.13-3.74-4.457-3.74-0.783,0-.919.55-2.076,0.78-1.735.38-11.3,1.4-13.678,1.4C955.479,3835.65,954.662,3834.73,953.913,3833.81Zm56.8-2.45h-8.98v1.23l3.91,0.51,0.07,12.45c0.03,6.53-2.18,9.02-6.468,9.02-3.913,0-6.227-2.15-6.227-8.54v-3.1c0-3.37,0-6.67.068-9.93l3.641-.41v-1.23H985.9v1.23l3.062,0.34c0.1,3.33.1,6.7,0.1,10v3.88c0,7.35,3.743,10.24,9.289,10.24,5.413,0,8.883-3.2,8.913-10.85l0.07-13.14,3.37-.47v-1.23Zm26.79,0h-8.51v1.33l3.54,0.41-5.95,18.71-6.47-18.78,3.64-.34v-1.33h-10.61v1.23l2.72,0.3,8.68,23.75h1.94l7.92-23.64,3.1-.48v-1.16Zm-222.793,41.18a7.208,7.208,0,0,0,.34,2.31c0.408,1.09,1.906,2.86,3.2,2.86,0.918,0,1.19-.75,2.279-1.09,1.77-.51,6.3-1.73,8.1-1.97,0.375-.03.579,0.07,0.409,0.54-2.926,6.81-11.161,15.21-19.191,19.36l0.442,0.72a38.892,38.892,0,0,0,15.754-10.28,23.115,23.115,0,0,1,6.67,6.81c1.429,1.87,2.143,2.92,3.3,2.92a1.692,1.692,0,0,0,1.7-1.76c0-3.41-5.274-6.88-10.82-8.89a60.014,60.014,0,0,0,5.376-7.35c0.409-.61,1.77-1.05,1.77-1.87,0-.95-2.722-3.23-3.981-3.23-0.613,0-1.123.85-1.906,1.06a71.045,71.045,0,0,1-10.174,1.59c-1.157,0-1.939-1.08-2.62-2Zm34.1-1.7c1.157,2.14,2.211,3.26,4.151,3.26a65.784,65.784,0,0,0,10.786-1.42c1.089-.21,1.463-0.62,1.463-1.23,0-1.09-1.327-1.73-3.232-1.73-0.579,0-1.055.47-2.892,0.95a28.692,28.692,0,0,1-6.329.92,5.953,5.953,0,0,1-3.539-1.13Zm-5,7.11a5.161,5.161,0,0,0,.2,2.01c0.374,1.09,2.008,2.58,3.028,2.55a12.329,12.329,0,0,0,3.063-.85,58.294,58.294,0,0,1,6.363-1.19,2.118,2.118,0,0,1,.408,1.26c0,2.31-2.314,9.9-10.072,15.1l0.579,0.65a22.971,22.971,0,0,0,12.249-12.9c0.578-1.39,1.463-1.66,1.463-2.45,0-.64-0.817-1.32-1.905-1.97,2.654-.24,5.069-0.34,6.6-0.34,1.837,0,3.368.31,4.049,0.31a1.024,1.024,0,0,0,1.225-1.19c0-1.19-2.144-2.15-3.947-2.15a27.257,27.257,0,0,1-3.4.65c-5.308.51-14.733,1.94-17.047,1.94-0.953,0-1.6-.75-2.382-1.63Zm37.718-1.74a2.3,2.3,0,0,1,1.463,1.4c0,1.77-6.805,9.22-13.44,13.03l0.34,0.51a34.692,34.692,0,0,0,10.242-5.85,2.643,2.643,0,0,1,.17.95,51.893,51.893,0,0,1-.306,6.67c-0.068.85-.272,1.43-0.272,1.91,0,1.26.612,2.58,1.9,2.58,0.919,0,1.361-.68,1.361-1.73,0-1.36-.2-5.07-0.068-8.61,0.034-.72.272-1.19,0.272-1.6,0-.48-0.646-0.99-1.463-1.57,1.531-1.46,2.824-2.82,3.743-3.77,0.715-.72,1.293-0.72,1.293-1.47,0-.88-1.531-2.31-2.892-2.72a6.315,6.315,0,0,0-2.212-.17Zm20.228,5.01c0.85,1.83.748,3.3,2.075,3.3a1.454,1.454,0,0,0,1.531-1.5,4.453,4.453,0,0,0-2.313-3.71,11.354,11.354,0,0,0-2.723-1.46l-0.34.37A12.767,12.767,0,0,1,901.755,3881.22Zm11.3,1.56c0.375-.78,1.123-1.26,1.123-1.9,0-1.13-1.973-2.93-3.539-3.03a9.787,9.787,0,0,0-1.769.13l-0.1.45c1.123,0.54,1.735,1.05,1.735,1.63,0,3.13-5.954,12.25-14.563,16.6l0.34,0.55A27.53,27.53,0,0,0,913.051,3882.78Zm-17.183.41c0.885,1.87.953,3.4,2.246,3.4a1.418,1.418,0,0,0,1.5-1.53c0-1.43-.987-2.82-2.688-3.91a10.63,10.63,0,0,0-2.518-1.43l-0.374.37A14.49,14.49,0,0,1,895.868,3883.19Zm36.182-8.51c0.443-.61.851-1.26,1.225-1.87,0.545-.88.987-1.12,0.987-1.77,0-.78-2.246-2.04-4.117-2.21a8,8,0,0,0-2.246.07l-0.136.54c1.157,0.55,2.008,1.23,2.008,1.87,0,2.08-4.73,8.92-10.14,13.14l0.476,0.65a31.3,31.3,0,0,0,10.787-8.85,2.963,2.963,0,0,0,1.531.81,7.321,7.321,0,0,0,1.905-.44,31.487,31.487,0,0,1,4.7-.85c0.34,0,.51.17,0.34,0.61-2.756,6.95-10.718,15.62-19.395,20.22l0.443,0.71c10.48-3.95,17.455-10.89,22.321-19.46,0.544-.96,1.769-1.26,1.769-2.11,0-1.16-2.892-2.83-3.811-2.83-0.681,0-1.123.75-2.042,0.99a40.937,40.937,0,0,1-6.328.78H932.05Z" transform="translate(-809.844 -3800.91)"/>
</svg>
