<?xml version="1.0" encoding="utf-8"?>
<!-- Generator: Adobe Illustrator 26.0.3, SVG Export Plug-In . SVG Version: 6.00 Build 0)  -->
<svg version="1.1" id="name-we_sp.svg" xmlns="http://www.w3.org/2000/svg" xmlns:xlink="http://www.w3.org/1999/xlink" x="0px"
	 y="0px" viewBox="0 0 297.2 106.3" style="enable-background:new 0 0 297.2 106.3;" xml:space="preserve">
<style type="text/css">
	.st0{opacity:0.8;fill-rule:evenodd;clip-rule:evenodd;fill:#8598A2;enable-background:new    ;}
	.st1{fill:#5B6C73;}
</style>
<path id="Whitening_UV_essence" class="st0" d="M0,0.9l5.7,14.2l3.5-9.5l3.5,9.5l6-14.2h-2.2l-3.6,8.9L9.3,0.2L5.7,9.8L2.2,0.9H0
	L0,0.9z M24.4,0.9h-2v13.4h2V8.1h5.7v6.1h2V0.9h-2v5.3h-5.7V0.9z M37.3,0.9v13.4h2V0.9H37.3z M51.3,2.8V0.9h-8.2v1.9h3.1v11.4h2V2.8
	H51.3L51.3,2.8z M62.5,0.9h-7.4v13.4h7.4v-1.9h-5.3V8.1h5.2V6.2h-5.2V2.8h5.3L62.5,0.9L62.5,0.9z M69.2,14.2V4.9l9.7,10.1V0.9h-2
	v9.2L67.1,0v14.2H69.2z M84,0.9v13.4h2V0.9H84L84,0.9z M93.3,14.2V4.9l9.7,10.1V0.9h-2v9.2L91.3,0v14.2H93.3z M115.1,9.2h3.3
	c-0.1,0.9-0.5,1.7-1.1,2.3c-0.8,0.8-1.9,1.2-3,1.2c-1.3,0.1-2.5-0.4-3.3-1.3c-1.9-2.1-1.8-5.3,0-7.4c0.9-0.9,2.2-1.4,3.5-1.4
	c0.8,0,1.6,0.2,2.4,0.6c0.6,0.4,1.2,0.9,1.6,1.5l1.6-1.1c-0.5-0.8-1.3-1.5-2.2-2c-1.1-0.6-2.3-0.9-3.5-0.8c-3.9,0.1-7,3.3-7,7.2
	c0,1.8,0.7,3.5,2,4.8c1.2,1.2,2.8,1.9,4.5,1.8c1.7,0.1,3.3-0.5,4.5-1.7c1.4-1.5,2.1-3.4,2-5.4V7.3h-5.5L115.1,9.2L115.1,9.2z
	 M131.8,0.9v8.6c0,1.3,0.4,2.5,1.2,3.5c2,2,5.3,2.1,7.3,0.1c0,0,0.1-0.1,0.1-0.1c0.8-1,1.3-2.2,1.2-3.5V0.9h-2v8
	c0.1,0.8-0.1,1.6-0.4,2.3c-0.9,1.4-2.7,1.8-4,0.9c-0.4-0.2-0.7-0.6-0.9-0.9c-0.3-0.7-0.5-1.5-0.4-2.3v-8H131.8z M145.4,0.9l5.9,14.2
	l5.9-14.2H155l-3.7,9.3l-3.7-9.3H145.4L145.4,0.9z M174.9,0.9h-7.4v13.4h7.4v-1.9h-5.3V8.1h5.2V6.2h-5.2V2.8h5.3V0.9L174.9,0.9z
	 M187,2.9c-0.3-0.5-0.6-1-1-1.3c-0.8-0.6-1.7-0.9-2.7-0.9c-2-0.2-3.7,1.3-3.9,3.3c0,0.1,0,0.2,0,0.2c0.1,1.6,1.2,2.9,2.7,3.4
	l1.3,0.5c1.1,0.3,1.9,1.2,1.9,2.3c0.1,1.2-0.9,2.2-2,2.2c-0.1,0-0.1,0-0.2,0c-0.7,0-1.3-0.3-1.7-0.8c-0.4-0.5-0.6-1.1-0.6-1.7
	l-2,0.4c0.1,1,0.5,1.9,1.1,2.6c0.8,0.9,1.9,1.4,3.1,1.3c2.3,0.1,4.2-1.6,4.3-3.9c0-0.1,0-0.2,0-0.4c0-1.5-0.7-2.9-3.1-3.9l-1.3-0.5
	c-1.3-0.5-1.4-1.2-1.4-1.6c0-0.9,0.8-1.6,1.7-1.6c0.1,0,0.1,0,0.2,0c0.9,0,1.7,0.5,2,1.3L187,2.9z M199.3,2.9c-0.3-0.5-0.6-1-1-1.3
	c-0.8-0.6-1.7-0.9-2.7-0.9c-2-0.2-3.7,1.3-3.9,3.3c0,0.1,0,0.2,0,0.2c0.1,1.6,1.2,2.9,2.7,3.4l1.3,0.5c1.1,0.3,1.9,1.2,1.9,2.3
	c0.1,1.2-0.9,2.2-2,2.2c-0.1,0-0.1,0-0.2,0c-0.7,0-1.3-0.3-1.7-0.8c-0.4-0.5-0.6-1.1-0.6-1.7l-2,0.4c0.1,1,0.5,1.9,1.1,2.6
	c0.8,0.9,1.9,1.4,3.1,1.3c2.3,0.1,4.2-1.6,4.3-3.9c0-0.1,0-0.2,0-0.4c0-1.5-0.7-2.9-3.1-3.9l-1.3-0.5c-1.3-0.5-1.4-1.2-1.4-1.6
	c0-0.9,0.8-1.6,1.7-1.6c0.1,0,0.1,0,0.2,0c0.9,0,1.7,0.5,2,1.3L199.3,2.9z M211.6,0.9h-7.4v13.4h7.4v-1.9h-5.3V8.1h5.2V6.2h-5.2V2.8
	h5.3V0.9L211.6,0.9z M218.2,14.2V4.9l9.7,10.1V0.9h-2v9.2L216.2,0v14.2H218.2z M243,1.6c-1.1-0.7-2.3-1-3.6-1
	c-1.8-0.1-3.5,0.5-4.8,1.7c-1.4,1.4-2.2,3.3-2.1,5.2c-0.1,1.9,0.7,3.8,2.1,5c1.3,1.2,3,1.9,4.7,1.8c1.3,0,2.6-0.3,3.7-1v-2.4
	c-1,1-2.2,1.5-3.6,1.5c-2.7,0-4.9-2.1-4.9-4.8c0-0.1,0-0.2,0-0.3c-0.2-2.6,1.8-4.9,4.4-5.1c0.1,0,0.3,0,0.4,0c1.4,0,2.7,0.5,3.6,1.5
	L243,1.6L243,1.6z M254.9,0.9h-7.4v13.4h7.4v-1.9h-5.3V8.1h5.2V6.2h-5.2V2.8h5.3L254.9,0.9L254.9,0.9z"/>
<path class="st1" d="M9.9,43.6c4.7,2.1,6.4,3.9,6.4,7.4c0,4.1-3.3,6.8-8.7,6.8c-2.6,0-5.4-0.7-7.1-1.9l0.2-5.3h1.8l1.2,5.2
	c1.1,0.4,2.1,0.6,3.4,0.6c3.3,0,5.3-1.6,5.3-4.1c0-2.2-1.1-3.3-3.8-4.5l-1.4-0.6c-4-1.8-6.2-3.8-6.2-7.5c0-4.1,3.4-6.5,8.2-6.5
	c2.5,0,4.5,0.6,6.1,1.8L15.1,40h-1.8l-1.3-5c-0.7-0.3-1.4-0.4-2.4-0.4c-2.8,0-4.7,1.4-4.7,3.9c0,2.2,1.3,3.5,3.6,4.5L9.9,43.6z"/>
<path class="st1" d="M41.6,34.9l-3.2,0.4l-0.1,12.2c0,7.2-3.2,10.3-8.5,10.3c-5.3,0-9-2.6-9-9.7v-3.5c0-3.1,0-6.2-0.1-9.4L17.9,35
	v-1.1h10.6V35l-3.3,0.2c-0.1,3.1-0.1,6.2-0.1,9.4v2.9c0,5.8,2.1,8,5.8,8c3.8,0,6-2.3,5.9-8.2l-0.1-11.8l-3.5-0.6v-1.1h8.4v1.1H41.6z
	"/>
<path class="st1" d="M67,34.9L64,35.3l-0.1,22.1h-2.2L47.8,37.7l0.1,18l4,0.4v1.1h-8.5v-1.1l2.9-0.3v-20l-0.5-0.6l-2.4-0.3v-1.1H50
	l12.4,17.3l-0.1-15.6l-4-0.5v-1.1h8.5L67,34.9L67,34.9L67,34.9z"/>
<path class="st1" d="M88.4,56.1c-2.1,1.1-4.2,1.9-7.1,1.9c-7,0-12.2-4.5-12.2-12.3c0-8,5.6-12.3,12.3-12.3c2.5,0,4.6,0.5,6.6,1.8
	l-0.1,5.4H86L84.7,35c-0.8-0.3-1.9-0.5-2.8-0.5c-4.7,0-8.2,3.6-8.2,11.1s3.5,11.1,8.2,11.1c1.1,0,2.1-0.2,3.1-0.6l1.4-5.4h1.9
	L88.4,56.1z"/>
<path class="st1" d="M114.2,34.9l-3.2,0.4l-0.2,12.2c0,7.2-3.2,10.3-8.5,10.3c-5.3,0-9-2.6-9-9.7v-3.5c0-3.1,0-6.2-0.1-9.4L90.4,35
	v-1.1H101V35l-3.3,0.2c-0.1,3.1-0.1,6.2-0.1,9.4v2.9c0,5.8,2.1,8,5.8,8c3.8,0,6-2.3,5.9-8.2l-0.1-11.8l-3.7-0.4V34h8.4v0.8
	C114,34.9,114.2,34.9,114.2,34.9z"/>
<path class="st1" d="M128.1,35.1c-0.1,3.2-0.1,6.4-0.1,9.6v1.6c0,3.2,0,6.3,0.1,9.6l3.4,0.3v1.1h-11.4v-1.1l3.4-0.3
	c0-3.2,0-6.3,0-9.6v-1.6c0-3.2,0-6.4,0-9.6h-5l-1.3,5.3h-1.8l0.2-6.5h20.1l0.2,6.5h-1.7l-1.3-5.3H128.1z"/>
<path class="st1" d="M169.6,34.9l-3.2,0.4l-0.1,12.2c0,7.2-3.2,10.3-8.5,10.3c-5.3,0-9-2.6-9-9.7v-3.5c0-3.1,0-6.2-0.1-9.4l-2.8-0.3
	v-1.1h10.6V35l-3.3,0.2c-0.1,3.1-0.1,6.2-0.1,9.4v2.9c0,5.8,2.1,8,5.7,8c3.8,0,6-2.3,5.9-8.2l-0.1-11.8l-3.7-0.4V34h8.4v0.8
	C169.4,34.9,169.6,34.9,169.6,34.9z"/>
<path class="st1" d="M193.5,34.8l-2.8,0.4l-7.5,22.1h-2.3l-8-22.3l-2.4-0.2v-1.1h10.5v1.1l-3.3,0.3l5.9,17.5l5.5-17.4l-3.3-0.4v-1.1
	h7.9v1.1C193.7,34.8,193.5,34.8,193.5,34.8z"/>
<path class="st1" d="M211.8,53.9c-0.1,0.2-1.4,0.8-2.4,0.8H209v-2.6h-2.2v3.3c0,0.2-0.8,0.9-2.4,0.9h-0.5v-24l3.3,1.3h1.4l1.4-1.7
	l3.1,2.4c-0.2,0.2-0.6,0.5-1.3,0.6v18.7h0.2V53.9z M206.6,34.7v7.8h2.2v-7.8H206.6z M209,51.3v-8h-2.2v8H209z M226,43.1v2.1h1.7
	l1.4-1.4L232,46c-0.1,0.2-0.5,0.4-1.1,0.5v2.9c0,0.2-1.4,0.8-2.5,0.8h-0.5v-0.8h-11.8c-0.3,3.5-1.2,7.8-4.6,10.7l-0.3-0.3
	c2-4.1,2.1-9.3,2.1-13.5v-5.6l0.2,0.1v-7l2.6,1.1h2.7l1.2-1.2l2.4,1.9c-0.1,0.2-0.4,0.3-0.8,0.4v3.5c0.6,0.1,1.1,0.2,1.6,0.4V34
	l2.6,1.1h2.5l1.2-1.2l2.5,1.9c-0.1,0.2-0.4,0.3-0.9,0.4v3.6c0,0.1-0.6,0.5-1.2,0.6c0.6,0.5,1.8,1.4,2.5,2.1
	c-0.1,0.3-0.3,0.5-0.8,0.5h-5.4l0,0C226.2,43.1,226,43.1,226,43.1z M212.7,33.5l-0.2-0.8h5.8l1.4-1.9c0,0,1.7,1.3,2.6,2.3
	c-0.1,0.3-0.3,0.5-0.7,0.5h-8.8L212.7,33.5L212.7,33.5z M213.5,41l3.2,1.2h5c-0.1-0.6-0.4-1.3-0.8-1.9c-0.4,0.2-0.9,0.3-1.6,0.3H219
	v-4.8h-3.1V40c0,0.2-1.1,0.7-2.1,0.7h-0.3V41z M221.4,51.6c0,0,1.2,1.1,2,2c-0.1,0.3-0.3,0.5-0.7,0.5h-3.1v2.1
	c1.1-0.2,2.3-0.3,3.5-0.6l0.1,0.4c-0.8,0.6-2.8,1.9-5.1,3.1c-0.2,0.4-0.5,0.6-0.8,0.8l-1.8-3.2c0.8-0.5,1.1-0.7,1.1-1.3v-5.6
	l3.8,0.3c-0.1,0.3-0.3,0.6-0.8,0.6v2.2h0.7L221.4,51.6z M216.2,36.7c4.2,0.8,2.4,4.1,0.7,2.7c0-0.8-0.5-2-1.2-2.5L216.2,36.7z
	 M216.2,46.4c0,0.6,0,1.3,0,2.1h2.1v-2.5h-2v0.4H216.2z M216.2,45.2h2v-2.1h-2V45.2z M223.2,43.1h-2.1v2.1h2.1V43.1z M221.1,48.6
	h2.1V46h-2.1V48.6z M222.8,33.5l-0.2-0.8h5.3l1.6-2c0,0,1.8,1.3,2.8,2.4c-0.1,0.3-0.4,0.5-0.8,0.5L222.8,33.5L222.8,33.5z M231,56.4
	c0.7,0.3,0.8,0.6,0.8,1.2c0,1.2-1.1,1.7-4.1,1.7h-1.8c-2.3,0-2.5-0.6-2.5-2.4v-6.8l3.8,0.3c-0.1,0.4-0.3,0.6-0.8,0.7v2.2h1.1
	l1.3-1.9c0,0,1.6,1.3,2.3,2.3c-0.1,0.3-0.3,0.5-0.8,0.5h-3.8v2.1c0,0.3,0.1,0.4,0.5,0.4h1.1h1.1c0.2,0,0.4-0.1,0.5-0.2
	c0.2-0.3,0.5-1.1,0.8-2.1h0.3L231,56.4z M225.5,35.9v0.8h0.1c4.2,0.8,2.4,4,0.7,2.7c0-0.6-0.3-1.7-0.8-2.2v2.6
	c0,0.2-0.8,0.6-1.9,0.7c0.3,0.5,0.2,1.1-0.1,1.6h4l1.2-1.6h-0.4v-4.7H225.5L225.5,35.9L225.5,35.9z M226,46v2.5h1.9V46H226z"/>
<path class="st1" d="M260.2,30.1c0,0,2.5,1.9,4,3.3c-0.1,0.3-0.4,0.5-0.8,0.5h-3.9v21.4c0,2.5-0.7,4.3-5.7,4.7
	c-0.1-1.2-0.3-2.2-1.1-2.7c-0.7-0.5-1.8-0.9-4-1.3v-0.4c0,0,5.2,0.3,6.1,0.3c0.6,0,0.8-0.2,0.8-0.7V34h-21.1l-0.2-0.8h23.6
	L260.2,30.1z M250.6,51.4c0,0.2-1.9,0.8-3.1,0.8h-0.6v-2.6h-5.5v2.7c0,0.3-1.6,1.1-3.1,1.1h-0.5V37.7l3.7,1.6h5.1l1.7-1.9l3.5,2.6
	c-0.2,0.2-0.6,0.5-1.3,0.6L250.6,51.4L250.6,51.4z M247,48.8v-8.5h-5.5v8.5H247z"/>
<path class="st1" d="M271.7,40.9c-1.6,1.7-3.4,3.2-5.5,4.3l-0.3-0.4c2.3-2.3,3.9-5.5,5-8.6h-4.2l-0.2-0.8h5.5v-5.1l4.6,0.4
	c-0.1,0.4-0.3,0.7-1.2,0.8v3.7h0.6l1.7-2.3c0,0,2,1.7,3.2,2.7c-0.1,0.3-0.4,0.5-0.8,0.5h-4.7v1.4c7.6,1.2,4.7,6.4,2,4.3
	c-0.1-1.3-1.1-2.8-2-3.8v7.7c0,0.3-1.6,0.8-2.7,0.8H272v-5.7C272,40.9,271.7,40.9,271.7,40.9z M292.5,35.1c0,0,2.1,1.7,3.3,2.7
	c-0.1,0.3-0.3,0.5-0.8,0.5H291v7.2c0,0.1-1.1,0.7-2.8,0.7h-0.6v-7.9h-3.2c-0.1,2.3-0.8,5.1-4.1,7.1l4.5,0.6
	c-0.1,0.5-0.5,0.7-1.3,0.8c-0.6,0.4-1.8,1.1-2.5,1.7h6.1l1.8-1.9l3.6,2.7c-0.2,0.2-0.6,0.5-1.2,0.6v9c0,0.2-1.9,0.8-3.1,0.8h-0.6
	v-1.8h-12.3v0.8c0,0.3-1.7,1.1-3.2,1.1h-0.5V47.1l3.9,1.6h3.7c0.1-0.7,0.2-1.8,0.3-2.6c-0.5,0.3-1.1,0.5-1.8,0.7l-0.2-0.3
	c3.3-2.6,3.7-6,3.7-9v-5l3.7,1.1c2.4-0.9,5-2.2,6.3-3.1l3.4,3.3c-0.3,0.3-1.1,0.3-2,0c-2.1,0.3-5.3,0.7-8.1,0.8v2.9h6.3L292.5,35.1z
	 M274.9,49.4v3.4h12.3v-3.4H274.9z M287.2,57.2v-3.5h-12.3v3.5H287.2z"/>
<g>
	<path class="st1" d="M7,82.6c5.4,2.8,2.9,6.8,0.9,4.9c0.1-1.2-0.3-2.9-0.9-4v15.4c0,0.3-1.3,1.1-2.5,1.1H4V88.4
		C3.2,90.2,2,91.6,0.7,93l-0.4-0.3c1.7-3.4,2.8-8,3.3-12.3H0.8l-0.2-0.8h3.5v-7.4l4.2,0.4c-0.1,0.4-0.3,0.7-1.1,0.8v6l1.3-2
		c0,0,1.6,1.5,2.5,2.6c-0.1,0.3-0.3,0.5-0.7,0.5H7.1v2H7z M25.3,95.8c0,0,2,1.5,3.3,2.7c-0.1,0.3-0.4,0.5-0.8,0.5H8.9l-0.2-0.8h14.9
		L25.3,95.8z M10.2,75.6L10,74.7h13.3l1.6-2.2c0,0,1.9,1.5,3.1,2.7c-0.1,0.3-0.3,0.5-0.8,0.5h-9.5c-0.4,1.2-1.1,2.8-1.6,4h1.5
		l1.5-1.7l2.9,2.5c-0.2,0.2-0.6,0.4-1.2,0.5c-0.2,10.5-0.5,14-1.9,15.4c-0.9,0.9-2,1.2-3.4,1.2c0-1-0.1-1.7-0.4-2.1s-1-0.8-1.9-1
		v-0.4c0.8,0.1,2,0.1,2.6,0.1c0.4,0,0.6-0.1,0.9-0.3c0.8-0.8,1-4.7,1.2-13.5h-1.9l-1.2,1.3l-3-1.9c0.3-0.2,0.8-0.5,1.2-0.7
		c0.5-1.1,1-2.6,1.4-3.5h-4.1V75.6z M14,92.3v-1.1h-1.3v1.5c0,0.2-1,0.7-1.9,0.7h-0.3V82.1l2.3,1h1l1-1l2.2,1.7
		c-0.1,0.1-0.5,0.3-0.8,0.4v7.6c0,0.2-1.1,0.7-1.9,0.7H14V92.3z M14,90.4v-6.4h-1.3v6.4H14z M28.2,81.8c-0.2,0.3-0.4,0.3-1,0.4
		c-0.2,1.9-0.6,3.8-1.3,5.6c3.6,4.3,1.7,8.1-0.6,6.1c-0.1-1-0.4-2-0.8-3.1c-1,1.7-2.3,3.2-4.1,4.5L20.1,95c1.5-1.8,2.6-4.1,3.2-6.5
		c-0.8-1.5-1.6-3-2.5-4.2l0.3-0.2c1,0.6,1.9,1.2,2.7,1.8c0.2-1.3,0.4-2.7,0.5-4h-3l-0.5-0.8H24l1.4-1.5L28.2,81.8z"/>
	<path class="st1" d="M36.5,84c0,5.1-0.3,11.7-6,16l-0.3-0.2C32.9,95.2,33,89.3,33,84v-9.1l4.1,1.4h7.8c-0.1-0.1-0.2-0.1-0.3-0.2
		c-0.3-1.4-1.5-3.1-2.5-3.9l0.2-0.2c6.1-0.1,6.1,3.4,4.4,4.3H53l1.8-2.5c0,0,2,1.7,3.3,2.9c-0.1,0.3-0.4,0.5-0.8,0.5H36.5V84z
		 M54.7,90.3c-0.2,0.3-0.5,0.4-1.3,0.4c-1.1,1.7-2.7,3.3-4.3,4.5c2.8,0.8,5.9,1.1,9.2,1.2v0.3c-1.5,0.4-2.3,1.6-2.7,3.3
		c-3.8-0.6-6.9-1.5-9.5-3.2c-3.4,1.7-7.6,2.8-12.5,3.2l-0.1-0.4c4.2-0.9,7.9-2.2,10.7-4.2c-1.6-1.4-3-3.2-3.9-5.5h-2L38.1,89h11.6
		l2-1.8L54.7,90.3z M48.3,87.7v-0.9h-4.7v0.7c0,0.2-1.5,0.8-2.8,0.8h-0.6v-6.1H37l-0.2-0.8h3.5v-3.3l4.3,0.4c-0.1,0.4-0.3,0.6-1,0.8
		v2.1h4.7v-3.3l4.3,0.4c-0.1,0.4-0.3,0.6-1,0.8v2.1h1.3l1.5-2.3c0,0,1.7,1.6,2.8,2.8c-0.1,0.3-0.4,0.5-0.8,0.5h-4.9v4.8
		c0,0.2-1.4,0.8-2.8,0.8h-0.3V87.7z M40.9,90.1c1.2,1.8,3.1,3.2,5.1,4.1c1.4-1.2,2.7-2.6,3.5-4.1H40.9z M48.3,85.9v-3.8h-4.7v3.8
		H48.3z"/>
	<path class="st1" d="M72,75.8c-0.2,0.3-0.6,0.4-1.3,0.4c-1,1.8-2.9,4.9-4.4,6.8c3.4,2,4.7,4.9,4.7,7.4c0,3-1.2,4.6-4.6,4.7
		c0-0.9-0.1-2.1-0.4-2.6c-0.2-0.3-0.7-0.6-1.4-0.7v-0.4h1.9c0.3,0,0.4,0,0.6-0.2c0.4-0.2,0.6-0.8,0.6-1.7c0-2-0.6-4.3-2.3-6.3
		c0.5-1.9,1.2-5.5,1.7-7.9h-3V99c0,0.2-1,1-2.7,1h-0.6V73l3.7,1.4h2.2l1.7-1.7L72,75.8z M84.7,75.7c0,0,2.1,1.7,3.3,2.9
		c-0.1,0.3-0.4,0.5-0.8,0.5H78c-0.1,1.5-0.1,3-0.3,4.4h4.2l1.8-1.8l3.2,2.7c-0.2,0.3-0.6,0.4-1.2,0.6c-0.3,8.4-1,12.5-2.7,13.8
		c-1,0.9-2.2,1.2-4,1.2c0-1-0.1-1.8-0.5-2.3c-0.5-0.5-1.5-1-2.8-1.2v-0.4c1.2,0.1,3.2,0.2,3.8,0.2c0.5,0,0.8-0.1,1-0.3
		c0.9-0.8,1.5-4.9,1.7-11.6h-4.7c-0.9,6.7-3.3,12.4-10.3,15.7l-0.2-0.1c6.1-5.4,7.1-12.7,7.1-20.7h-4.4l-0.2-0.8h8.3
		c-0.4-0.1-0.8-0.3-1.2-0.7c0.1-1.7-0.7-3.7-1.7-4.9l0.2-0.1c6.4,1.3,5.6,5.3,3.5,5.8h4.2L84.7,75.7z"/>
	<path class="st1" d="M92.8,82c-0.9,0.6-1.9,1.3-3,1.8l-0.3-0.3c1.9-1.9,3.9-5,4.9-7.1c-1.3,0.8-2.9,1.5-4.4,2.1l-0.3-0.3
		c1.9-1.6,4-4.2,4.9-5.9l3.4,2.1c-0.2,0.3-0.4,0.4-1.1,0.3c-0.6,0.5-1.3,1-2.1,1.5l3.3,1.8c-0.2,0.3-0.4,0.4-1.1,0.3
		c-0.5,0.6-1.1,1.2-1.7,1.8l1.4,0.5c-0.1,0.3-0.4,0.4-0.9,0.5v6.6c-0.1,0.2-1.3,0.6-2.3,0.6h-0.5C92.8,88.5,92.8,82,92.8,82z
		 M90.1,99c2.6-1.5,5.3-3.9,6.5-5.8l3.7,2.3c-0.2,0.3-0.5,0.4-1.1,0.3c-2,1.4-5.4,2.9-8.8,3.6L90.1,99z M113.6,89.9
		c0,0,2,1.5,3.3,2.6c-0.1,0.3-0.4,0.5-0.8,0.5h-10.8v6.4c0,0.1-1,0.6-2.9,0.6h-0.6v-7.1H90.6L90.4,92h21.4L113.6,89.9z M117.1,75.2
		c-0.2,0.2-0.6,0.5-1.2,0.6v6.9c0,1.8-0.3,2.9-3.1,3.1c-0.1-0.7-0.1-1.3-0.3-1.7c-0.2-0.3-0.6-0.6-1.3-0.8v-0.4c0,0,1.2,0.1,1.6,0.1
		c0.3,0,0.4-0.1,0.4-0.5v-7.1H111v11.8l0.2-0.2c0,0,1.9,1.4,3.1,2.5c-0.1,0.3-0.4,0.5-0.8,0.5H93.7L93.5,89h15.9l1.1-1.3
		c-0.4,0.2-1,0.4-1.8,0.4h-0.4V73.2l3.1,1.2h1.5l1.2-1.5L117.1,75.2z M106,76.8c0,0,1.4,1.2,2.3,2.1c-0.1,0.3-0.3,0.5-0.8,0.5h-3.5
		v2.2h0.8l1.1-1.5c0,0,1.2,1.1,1.9,1.9c-0.1,0.3-0.3,0.5-0.7,0.5h-3.2v2.2c1.2-0.2,2.6-0.3,3.9-0.6l0.1,0.5c-1.9,0.6-5.3,1.8-9.1,3
		c-0.2,0.2-0.4,0.4-0.6,0.4l-1.1-2.5c0.5-0.3,0.6-0.5,0.6-0.9v-4.3l3.1,0.3c0,0.3-0.3,0.6-0.8,0.6v3.9l1.3-0.2v-5.6h-4l-0.2-0.8h4.2
		v-2.5H100c-0.7,0.7-1.4,1.3-2.1,1.8l-0.4-0.2c0.6-1.3,1.2-3.5,1.6-5.4l3.6,1.1c-0.1,0.3-0.5,0.6-1.1,0.6c-0.3,0.4-0.6,0.8-0.8,1.2
		h3.2l1.3-1.8c0,0,1.5,1.2,2.5,2.2c-0.1,0.3-0.4,0.5-0.8,0.5h-2.8v2.5h0.6L106,76.8z M106.7,93.8c10.3-0.1,10,6.2,6.5,5.4
		c-1.4-1.7-4.5-4-6.7-5.1L106.7,93.8z"/>
	<path class="st1" d="M142.9,88.1c0,0,2.2,1.6,3.6,2.9c-0.1,0.3-0.4,0.5-0.8,0.5h-11.5c-1,4.1-3.7,6.9-14.4,8.8l-0.2-0.5
		c7.5-2.2,9.9-4.8,10.7-8.3h-9.5l-0.2-0.8h9.9c0.2-1,0.2-2.1,0.3-3.5l4.9,0.3c-0.1,0.4-0.3,0.7-1,0.8c-0.1,0.8-0.2,1.5-0.3,2.2h6.7
		L142.9,88.1z M130.9,85.9v-3.6h-8.2l-0.2-0.8h8.4v-3.4h-9.7l-0.3-0.8h7.5c-0.3-0.1-0.6-0.2-1-0.5c-0.1-1.5-1-3.2-1.9-4.2l0.2-0.2
		c6.2,0.5,5.7,4.3,3.7,4.9h5.5c0.6-1.5,1.2-3.5,1.6-5l4.7,1c-0.1,0.4-0.4,0.6-1.1,0.6c-1,1-2.7,2.3-4.2,3.4h4.6l1.9-2.3
		c0,0,2.1,1.6,3.5,2.8c-0.1,0.3-0.4,0.5-0.8,0.5h-10.2v3.4h4.1l1.7-2.1c0,0,2,1.5,3.3,2.6c-0.1,0.3-0.4,0.5-0.8,0.5h-8.3v3.6h6.3
		l1.9-2.5c0,0,2.1,1.6,3.5,2.9c-0.1,0.3-0.4,0.5-0.8,0.5H120l-0.2-0.8h11.1V85.9z M135,92.3c13.2,1.1,12.5,8.8,8.5,7.5
		c-1.8-2.6-5.7-5.5-8.7-7.1L135,92.3z"/>
	<path class="st1" d="M174.8,79.3c-0.2,0.3-0.7,0.6-1.4,0.7v18.5c0,0.3-1.7,1.2-3.2,1.2h-0.6v-2.7h-14.3v1.4c0,0.4-1.5,1.3-3.1,1.3
		h-0.6v-23l4,1.6h3.3c0.4-1.8,0.9-4.5,1.1-6.3l5.2,1.2c-0.1,0.4-0.4,0.6-1.1,0.6c-1.1,1.2-2.7,3.1-4.3,4.5h9.5l1.8-2L174.8,79.3z
		 M155.4,79.2v8h14.3v-8H155.4z M169.7,96.3v-8.2h-14.3v8.2H169.7z"/>
	<path class="st1" d="M190.5,75.8c-0.2,0.3-0.6,0.4-1.3,0.4c-1,1.8-2.9,4.9-4.4,6.8c3.4,2,4.7,4.9,4.7,7.4c0,3-1.2,4.6-4.6,4.7
		c0-0.9-0.1-2.1-0.4-2.6c-0.2-0.3-0.7-0.6-1.4-0.7v-0.4h1.9c0.3,0,0.4,0,0.6-0.2c0.4-0.2,0.6-0.8,0.6-1.7c0-2-0.6-4.3-2.3-6.3
		c0.5-1.9,1.2-5.5,1.7-7.9h-3V99c0,0.2-1,1-2.7,1h-0.6V73l3.7,1.4h2.2l1.7-1.7L190.5,75.8z M203.1,75.7c0,0,2.1,1.7,3.3,2.9
		c-0.1,0.3-0.4,0.5-0.8,0.5h-9.1c-0.1,1.5-0.1,3-0.3,4.4h4.2l1.8-1.8l3.2,2.7c-0.2,0.3-0.6,0.4-1.2,0.6c-0.3,8.4-1,12.5-2.7,13.8
		c-1,0.9-2.2,1.2-4,1.2c0-1-0.1-1.8-0.5-2.3c-0.5-0.5-1.5-1-2.8-1.2v-0.4c1.2,0.1,3.2,0.2,3.8,0.2c0.5,0,0.8-0.1,1-0.3
		c0.9-0.8,1.5-4.9,1.7-11.6h-4.7c-0.9,6.7-3.3,12.4-10.3,15.7l-0.2-0.3c6.1-5.4,7.1-12.7,7.1-20.7h-4.4l-0.2-0.8h8.3
		c-0.4-0.1-0.8-0.3-1.2-0.7c0.1-1.7-0.7-3.7-1.7-4.9l0.2-0.1c6.4,1.3,5.6,5.3,3.5,5.8h4.2L203.1,75.7z"/>
	<path class="st1" d="M216.5,94.3c-0.1,0.2-1.3,0.8-2.2,0.8h-0.4v-2.5h-2v3.1c0,0.2-0.8,0.9-2.2,0.9H209V74.2l3.1,1.2h1.3l1.3-1.5
		l2.9,2.2c-0.2,0.2-0.6,0.5-1.2,0.6v17.6H216.5z M211.7,76.3v7.3h2v-7.3H211.7z M213.7,91.8v-7.5h-2v7.5H213.7z M229.8,84.1v1.9h1.5
		l1.3-1.3l2.8,2c-0.1,0.2-0.5,0.4-1,0.5v2.9c0,0.2-1.3,0.8-2.3,0.8h-0.5v-0.8h-11c-0.3,3.3-1.1,7.3-4.3,10l-0.3-0.3
		c1.8-3.9,1.9-8.7,1.9-12.6v-5.2l0.2,0.1v-6.5l2.5,1h2.6l1.1-1.1l2.2,1.7c-0.1,0.2-0.4,0.3-0.8,0.4V81c0.6,0.1,1,0.2,1.4,0.4v-5.7
		l2.5,1h2.3l1.1-1.1l2.3,1.7c-0.1,0.2-0.4,0.3-0.9,0.4v3.4c0,0.1-0.6,0.5-1.1,0.6c0.6,0.5,1.6,1.3,2.3,1.9c-0.1,0.3-0.3,0.5-0.8,0.5
		C234.8,84.1,229.8,84.1,229.8,84.1z M217.3,75.3l-0.2-0.8h5.4l1.3-1.7c0,0,1.5,1.2,2.5,2.1c-0.1,0.3-0.3,0.5-0.7,0.5h-8.3V75.3z
		 M218.1,82.2l3,1.1h4.6c-0.1-0.6-0.4-1.2-0.8-1.7c-0.4,0.2-0.9,0.3-1.4,0.3H223v-4.5h-2.8v4c0,0.2-1,0.7-1.9,0.7h-0.2V82.2z
		 M225.5,92.1c0,0,1.1,1,1.8,1.8c-0.1,0.3-0.3,0.5-0.7,0.5h-2.9v1.9c1-0.2,2.1-0.3,3.3-0.6l0.1,0.4c-0.8,0.6-2.7,1.7-4.7,2.9
		c-0.2,0.4-0.5,0.6-0.8,0.8l-1.6-3c0.8-0.5,1-0.7,1-1.2v-5.2l3.6,0.3c-0.1,0.3-0.3,0.6-0.8,0.6v2.1h0.7L225.5,92.1z M220.7,78.2
		c4,0.8,2.2,3.9,0.7,2.6c0-0.8-0.5-1.8-1.1-2.3L220.7,78.2z M220.6,87.3c0,0.6,0,1.2,0,1.9h1.9v-2.3h-1.8v0.4H220.6z M220.6,86.1
		h1.8v-1.9h-1.8V86.1z M227,84.1h-1.9v1.9h1.9V84.1z M225.2,89.2h1.9v-2.3h-1.9V89.2z M226.7,75.3l-0.2-0.8h4.9l1.4-1.8
		c0,0,1.6,1.2,2.7,2.2c-0.1,0.3-0.4,0.5-0.8,0.5h-8V75.3z M234.5,96.6c0.7,0.3,0.8,0.6,0.8,1.1c0,1.1-1,1.5-3.9,1.5h-1.6
		c-2.1,0-2.3-0.6-2.3-2.2v-6.4l3.6,0.3c-0.1,0.4-0.3,0.6-0.8,0.7v2h1l1.2-1.7c0,0,1.4,1.2,2.1,2.1c-0.1,0.3-0.3,0.5-0.8,0.5h-3.6
		v1.9c0,0.3,0.1,0.4,0.5,0.4h1h1c0.2,0,0.4-0.1,0.5-0.2c0.2-0.3,0.5-1,0.8-1.9h0.3L234.5,96.6z M229.4,77.5v0.8h0.1
		c4,0.8,2.2,3.8,0.7,2.6c0-0.6-0.3-1.5-0.8-2v2.5c0,0.2-0.8,0.6-1.7,0.7c0.3,0.5,0.2,1-0.1,1.4h3.8l1.1-1.4H232v-4.4h-2.7V77.5z
		 M229.8,87v2.3h1.7V87H229.8z"/>
	<path class="st1" d="M262.3,80.7c0,0,1.9,1.5,3.1,2.6c-0.1,0.3-0.3,0.5-0.8,0.5h-15.2v-0.1c-0.1,0.3-0.4,0.4-0.8,0.4h-3.9v15
		c0,0.3-1.2,0.9-2.3,0.9h-0.6V87.7c-1.2,2.6-2.7,5.4-4.1,7.5l-0.4-0.1c0.6-2.7,1.6-6.7,2.2-10.1l2.2,0.8V84h-4.1l-0.2-0.8h4.3V72.3
		l4.1,0.4c-0.1,0.4-0.3,0.7-1.1,0.8v9.8h0.5l1.5-1.9c0,0,1.6,1.3,2.7,2.3l-0.2-0.7h5.5v-2.8h-3.8l-0.2-0.8h4v-2.6h-4.8l-0.1-0.3
		c-0.2,0.1-0.5,0.2-0.8,0.2c-1,1.7-2.3,4-3.5,5.4L245,82c0.4-1.7,1-4.7,1.5-7l3.3,1.1h5v-3.6l4.3,0.4c-0.1,0.4-0.3,0.6-0.9,0.8v2.1
		h1.8l1.7-2.1c0,0,1.9,1.5,3.1,2.6c-0.1,0.3-0.3,0.5-0.8,0.5h-5.9v2.6h1.2l1.5-1.9c0,0,1.8,1.3,2.9,2.3c-0.1,0.3-0.4,0.5-0.8,0.5
		h-4.8V83h2.7L262.3,80.7z M238.1,74.9c5.8,4.2,3.2,9,0.9,6.6c0.1-2.1-0.6-4.7-1.2-6.5L238.1,74.9z M245.4,85.7
		c6.2,4.2,3.5,9.4,1.1,6.9c0-2.2-0.8-4.9-1.5-6.8L245.4,85.7z M260.9,84.2l3.3,2.5c-0.2,0.2-0.6,0.5-1.2,0.6v8.9
		c0,2.1-0.4,3.4-3.9,3.7c-0.1-1-0.2-1.7-0.6-2.1c-0.3-0.5-0.9-0.8-2.1-1v-0.4c0,0,2.3,0.1,2.9,0.1c0.4,0,0.6-0.2,0.6-0.6v-2.2h-6.3
		c-0.3,2.5-1.4,5-5.2,6.7l-0.3-0.3c2.2-2.2,2.5-5.3,2.5-8.4v-6.9l3.7,1.3h5.4L260.9,84.2z M259.8,92.6v-2.6h-6.2v1.4
		c0,0.4,0,0.7,0,1.1H259.8z M253.7,86.7v2.6h6.2v-2.6H253.7z"/>
	<path class="st1" d="M272.5,76.6h-5.1l-0.2-0.8h5.3l-0.4-3.3l4.4,0.3c0,0.3-0.2,0.6-0.8,0.8l0.3,2.1h0.9l1.6-2.2
		c0,0,1.8,1.5,2.9,2.7c-0.1,0.3-0.4,0.5-0.8,0.5H276l0.3,1.9c-0.5,0.6-1.7,0.9-3.4,0.9L272.5,76.6z M291.4,88.3c0,0,1.8,1.4,3,2.3
		c-0.1,0.3-0.4,0.5-0.8,0.5h-11v3.3h5.4l1.8-2.2c0,0,2.1,1.5,3.4,2.7c-0.1,0.3-0.4,0.5-0.8,0.5h-9.8v3.9c0,0.2-1,0.9-2.9,0.9h-0.6
		v-4.9h-9.6l-0.2-0.8h9.9v-3.3h-10.9l-0.3-0.8h11.1v-4.3c-0.1,0-0.2,0.1-0.4,0.1h-3.9V89c0,0.2-1.1,0.7-2.1,0.7h-0.3v-3.7H268
		l-0.2-0.8h4.7v-3.4l3.5,0.3c-0.1,0.3-0.2,0.6-0.9,0.7v2.3h0.7l1.4-1.9c0,0,1.2,1,2.1,1.8V81h-10.1l-0.2-0.8h20l1.7-2
		c0,0,1.9,1.3,3.1,2.3c-0.1,0.3-0.4,0.5-0.8,0.5h-10.4v9.4h7.1L291.4,88.3z M292.2,73.5c0,0,1.7,1.5,2.9,2.7
		c-0.1,0.3-0.4,0.5-0.8,0.5h-6.1l-0.3,2.2c-0.6,0.5-1.9,0.7-3.4,0.4l0.4-2.7H282l-0.2-0.8h3.2l0.5-3.3l4.3,0.7
		c-0.1,0.4-0.3,0.7-1.1,0.8l-0.3,1.7h2.2L292.2,73.5z M292.1,83.2c0,0,1.6,1.4,2.7,2.3c-0.1,0.3-0.3,0.5-0.7,0.5h-5.3v2.6
		c0,0.2-1.1,0.6-2.1,0.6H286v-3.2h-2.7l-0.2-0.8h2.9v-3.4l3.5,0.3c-0.1,0.3-0.2,0.6-0.9,0.7v2.3h1.9L292.1,83.2z"/>
</g>
</svg>
