<svg id="name-mbm_sp.svg" xmlns="http://www.w3.org/2000/svg" width="294.063" height="107.47" viewBox="0 0 294.063 107.47">
  <defs>
    <style>
      .cls-1, .cls-2 {
        fill: #0d74a0;
        fill-rule: evenodd;
      }

      .cls-1 {
        opacity: 0.7;
      }

      .cls-3 {
        fill: none;
        stroke: #70a1be;
        stroke-width: 2px;
      }
    </style>
  </defs>
  <path id="Multi_block_UV_milk" data-name="Multi block UV milk" class="cls-1" d="M277.821,4880.9l1.4-8.07,3.844,8.69,3.884-8.67,1.361,8.05h2.082l-2.522-14.35-4.685,10.37-4.645-10.37-2.8,14.35h2.082Zm17.358-13.35v8.59a4.934,4.934,0,0,0,1.241,3.46,5.176,5.176,0,0,0,7.407,0,4.935,4.935,0,0,0,1.242-3.46v-8.59h-2.042v8.05a4.652,4.652,0,0,1-.421,2.3,2.923,2.923,0,0,1-4.965,0,4.662,4.662,0,0,1-.42-2.3v-8.05h-2.042Zm15.08,0v13.35h5.965v-1.92H312.3v-11.43h-2.042Zm16.646,1.92v-1.92h-8.168v1.92H321.8v11.43h2.042v-11.43H326.9Zm3.793-1.92v13.35h2.042v-13.35H330.7Zm13.9,0v13.35h3.343a5.179,5.179,0,0,0,3.744-1.3,3.255,3.255,0,0,0,.881-2.4,3.5,3.5,0,0,0-.881-2.51,3.672,3.672,0,0,0-1.722-.96,2.212,2.212,0,0,0,1-.92,2.909,2.909,0,0,0,.4-1.58,3.42,3.42,0,0,0-1.061-2.64c-0.88-.82-1.962-1.04-3.683-1.04H344.6Zm2.042,1.92h0.7a2.191,2.191,0,0,1,1.622.5,1.649,1.649,0,0,1,.481,1.28,2.025,2.025,0,0,1-.521,1.52,2.348,2.348,0,0,1-1.662.52h-0.62v-3.82Zm0,5.5h1.281a2.894,2.894,0,0,1,2.1.61,2,2,0,0,1,.541,1.4,1.914,1.914,0,0,1-.661,1.48,3.524,3.524,0,0,1-2.022.52H346.64v-4.01Zm10.477-7.42v13.35h5.966v-1.92h-3.924v-11.43h-2.042Zm16.186-.24a6.925,6.925,0,1,0,6.947,6.92A6.77,6.77,0,0,0,373.3,4867.31Zm0,11.97a5.047,5.047,0,1,1,4.905-5.05A4.779,4.779,0,0,1,373.3,4879.28Zm21.384-11.01a6.352,6.352,0,0,0-3.564-.96,6.618,6.618,0,0,0-4.825,1.74,6.977,6.977,0,0,0-2.142,5.22,6.546,6.546,0,0,0,2.142,5.05,6.7,6.7,0,0,0,4.725,1.84,7.3,7.3,0,0,0,3.664-1v-2.42a5.3,5.3,0,0,1-3.6,1.54,4.821,4.821,0,0,1-4.885-5.01,4.767,4.767,0,0,1,4.865-5.08,5.21,5.21,0,0,1,3.624,1.48v-2.4Zm6.552-.72H399.2v13.35h2.042v-5.53l0.4-.4,4.765,5.93h2.723l-6.066-7.31,6.026-6.04H406.4l-5.165,5.32v-5.32Zm18.337,0v8.59a4.935,4.935,0,0,0,1.242,3.46,5.176,5.176,0,0,0,7.407,0,4.934,4.934,0,0,0,1.241-3.46v-8.59h-2.042v8.05a4.662,4.662,0,0,1-.42,2.3,2.923,2.923,0,0,1-4.965,0,4.652,4.652,0,0,1-.421-2.3v-8.05h-2.042Zm13.559,0,5.926,14.21,5.925-14.21h-2.2l-3.723,9.31-3.724-9.31h-2.2ZM457,4880.9l1.4-8.07,3.843,8.69,3.884-8.67,1.362,8.05h2.082l-2.523-14.35-4.684,10.37-4.645-10.37-2.8,14.35H457Zm17.358-13.35v13.35H476.4v-13.35h-2.042Zm7.24,0v13.35h5.966v-1.92h-3.924v-11.43H481.6Zm11.922,0h-2.042v13.35h2.042v-5.53l0.4-.4,4.765,5.93h2.723l-6.066-7.31,6.026-6.04h-2.683l-5.165,5.32v-5.32Z" transform="translate(-274.625 -4866.53)"/>
  <path id="マルチブロックUV_ミルク" data-name="マルチブロックUV ミルク" class="cls-2" d="M274.624,4903.94a7.511,7.511,0,0,0,.493,2.66c0.57,1.37,2.582,3.3,3.911,3.3,0.949,0,1.823-.99,2.772-1.21a167.561,167.561,0,0,1,18.074-2.74c0.532-.03.722,0.27,0.418,0.8a45.047,45.047,0,0,1-8.619,9.42,28.592,28.592,0,0,0-7.974-3.99l-0.418.65a32.122,32.122,0,0,1,5.847,5.58c3.8,4.36,3.722,6.98,5.468,6.98a1.881,1.881,0,0,0,1.975-2.01c0-2.2-1.405-4.29-3.494-6.11a123.9,123.9,0,0,0,10.481-8.13c1.4-1.14,3-.72,3-2.05,0-1.48-3.455-4.4-4.974-4.4-0.835,0-1.405.91-2.354,1.02-3.418.42-17.087,1.98-21.036,1.98-1.291,0-2.013-.99-2.962-2.02Zm48.478-2.39c1.861,0.3,2.886.83,2.924,1.86,0.228,3.64.038,13.59-.114,15.57-0.152,1.48-.608,1.9-0.608,2.66,0,0.94,1.937,3.34,3.114,3.34,0.949,0,1.557-1.18,2.43-1.75,4.9-3.08,10.328-7.75,13.556-12.76l-0.684-.53a48,48,0,0,1-13.973,9.64c-0.456.19-.722,0.04-0.722-0.49-0.038-2.77.228-11.77,0.494-13.78,0.152-1.33,1.025-1.45,1.025-2.36,0-1.1-2.848-2.81-4.67-2.81a5.861,5.861,0,0,0-2.81.73Zm-5.126,6.42c0,5.08-3.759,13.1-9.645,18.11l0.57,0.68a24.671,24.671,0,0,0,12.644-16.71c0.19-.95.987-1.48,0.987-2.39,0-1.37-3.113-3.04-4.708-3.11a7.079,7.079,0,0,0-2.62.49v0.72C316.343,4906.14,317.976,4906.75,317.976,4907.97Zm50.226,1.02c0.038-1.94.608-2.2,0.608-3.07,0-.54-1.063-1.52-2.43-2.21a49.747,49.747,0,0,0,5.658-1.82c0.987-.34,2.43-0.23,2.43-1.06,0-.8-1.026-1.94-1.861-2.55a8.4,8.4,0,0,0-3.873-1.52l-0.456.5c1.4,1.14,1.443,1.67.76,2.2-1.785,1.29-9.873,3.87-16.214,5.24l0.19,0.87a94.737,94.737,0,0,0,10.214-1.17c1.139,0.98,1.329,2.39,1.367,4.55v0.95c-3.113.38-9.265,1.1-11.847,1.1-1.025,0-1.709-.68-2.734-1.9l-0.569.19a7.826,7.826,0,0,0,.379,2.28c0.494,1.1,2.2,2.89,3.342,2.89a10.9,10.9,0,0,0,2.962-.8,72.593,72.593,0,0,1,8.353-1.48c-0.607,7.1-3.607,11.89-10.632,16.21l0.456,0.69c8.771-3.34,13.062-9.04,13.784-17.24,2.392-.19,5.164-0.31,7.024-0.31,2.013,0,3.759.38,4.557,0.38a1.2,1.2,0,0,0,1.367-1.36c0-1.33-2.317-2.36-4.291-2.36-0.608,0-1.063.38-3.455,0.72-1.14.16-3,.35-5.089,0.57v-0.49Zm45.4-5.35a1.146,1.146,0,0,0,1.177-1.22,2.856,2.856,0,0,0-1.177-2.2,12.369,12.369,0,0,0-4.784-2.39l-0.418.53a19.393,19.393,0,0,1,3.456,3.68C412.542,4902.95,413,4903.64,413.605,4903.64Zm3.418-2.81a1.03,1.03,0,0,0,1.1-1.14,2.864,2.864,0,0,0-1.405-2.36,13.873,13.873,0,0,0-4.671-2.01l-0.417.57a17.918,17.918,0,0,1,3.493,3.3C415.922,4900.14,416.3,4900.83,417.023,4900.83Zm-30.757.72-0.645.26a8.944,8.944,0,0,0,.3,2.43c0.38,1.22,2.317,3.42,3.8,3.42,0.8,0,1.709-.72,2.658-0.95,2.165-.53,11.544-2.2,13.708-2.2,0.342,0,.532.11,0.418,0.53-2.089,8.58-9.379,17.39-19.973,22.82l0.493,0.8c11.847-4.1,18.758-11.24,23.049-20.58,0.57-1.25,1.861-1.63,1.861-2.73,0-1.22-3.494-4.18-4.975-4.18-0.873,0-1.025.61-2.316,0.87-1.936.42-12.606,1.56-15.264,1.56C388.013,4903.6,387.1,4902.57,386.266,4901.55Zm39.744,18.15c-0.114-3.42-.3-10.29-0.418-13.06a4.182,4.182,0,0,0,1.747.6c0.721,0,1.9-.38,3.113-0.53,2.051-.26,7.215-0.68,9.379-0.68a0.465,0.465,0,0,1,.532.53,109.4,109.4,0,0,1-1.557,12.19C435.2,4918.94,429.693,4919.39,426.01,4919.7Zm-6.721-16.37a5.72,5.72,0,0,1,2.24,3.31,75.96,75.96,0,0,1,1.1,11.24c0.038,1.48-.114,3.3-0.114,4.21,0,1.63.987,3.04,2.051,3.04,1.139,0,1.519-.76,1.519-1.82v-1.11c4.29-.26,9.037-0.53,11.96-0.53,1.975,0,3.987.27,5.089,0.27a1.329,1.329,0,0,0,1.48-1.44c0-.95-1.139-1.64-2.43-1.83,0.76-3.6,1.557-7.7,2.013-9.64,0.266-1.22,1.633-1.6,1.633-2.62,0-1.29-3.418-4.03-4.633-4.03-0.911,0-1.177,1.11-2.7,1.29-1.557.19-9.379,0.95-13.176,1.22a0.551,0.551,0,0,0-.228-0.27,8.183,8.183,0,0,0-5.43-1.86Zm41.3,7.6c0.949,2.05.835,3.68,2.316,3.68a1.622,1.622,0,0,0,1.708-1.67,4.977,4.977,0,0,0-2.582-4.14,12.808,12.808,0,0,0-3.037-1.63l-0.38.42A14.23,14.23,0,0,1,460.588,4910.93Zm12.606,1.74c0.418-.87,1.253-1.4,1.253-2.12,0-1.26-2.2-3.27-3.949-3.38a10.2,10.2,0,0,0-1.975.15l-0.113.49c1.253,0.61,1.936,1.18,1.936,1.83,0,3.49-6.645,13.67-16.252,18.53l0.38,0.6A30.712,30.712,0,0,0,473.194,4912.67Zm-19.175.46c0.987,2.09,1.063,3.8,2.506,3.8a1.583,1.583,0,0,0,1.67-1.71c0-1.6-1.1-3.15-3-4.37a11.806,11.806,0,0,0-2.81-1.59l-0.418.41A16.283,16.283,0,0,1,454.019,4913.13Zm38.145-9.49c0.494-.69.949-1.41,1.367-2.09,0.608-.99,1.1-1.25,1.1-1.98,0-.87-2.506-2.27-4.594-2.46a8.706,8.706,0,0,0-2.506.07l-0.152.61c1.291,0.61,2.24,1.37,2.24,2.09,0,2.31-5.278,9.95-11.315,14.65l0.531,0.73a34.868,34.868,0,0,0,12.037-9.88,3.217,3.217,0,0,0,1.709.91,8.348,8.348,0,0,0,2.126-.49,34.5,34.5,0,0,1,5.24-.95c0.38,0,.57.19,0.38,0.69-3.076,7.74-11.961,17.42-21.644,22.55l0.494,0.8c11.695-4.41,19.479-12.15,24.909-21.72,0.608-1.06,1.975-1.41,1.975-2.36,0-1.29-3.228-3.15-4.253-3.15-0.76,0-1.253.84-2.278,1.1a44.611,44.611,0,0,1-7.063.88h-0.3Zm47.34-4.83H529.48v1.37l4.366,0.57,0.076,13.9c0.038,7.29-2.43,10.06-7.214,10.06-4.367,0-6.949-2.39-6.949-9.53v-3.46c0-3.75,0-7.44.076-11.08l4.063-.46v-1.37H511.823v1.37l3.417,0.38c0.114,3.72.114,7.48,0.114,11.16v4.33c0,8.21,4.177,11.43,10.366,11.43,6.038,0,9.911-3.57,9.949-12.11l0.076-14.66,3.759-.53v-1.37Zm29.185,0H559.2v1.49l3.949,0.45-6.645,20.89-7.214-20.96,4.063-.38v-1.49H541.5v1.37l3.037,0.34,9.683,26.51h2.164l8.848-26.39,3.455-.53v-1.3Zm-276.678,44.36c-2.772-1.29-7.594-1.9-12-2.09l-0.152.72c4.937,1.48,7.595,2.74,10.67,4.98,1.329,1.02,1.823,1.55,2.924,1.55a1.646,1.646,0,0,0,1.557-1.63C295.011,4945.33,294.289,4944.23,292.011,4943.17Zm-13.783,7.86a44.326,44.326,0,0,1,9.492,4.59c1.291,0.88,1.937,1.33,2.772,1.33a1.584,1.584,0,0,0,1.633-1.67c0-1.44-1.139-2.35-2.772-3.07a30.3,30.3,0,0,0-10.935-1.9Zm-1.253,10.55A39.3,39.3,0,0,1,290,4967.74c1.443,1.14,2.544,2.05,3.607,2.05a1.679,1.679,0,0,0,1.937-1.83c0-1.06-.988-2.27-2.621-3.26-3.341-2.01-9.834-3.61-15.758-3.87Zm41.225-18.03c1.86,0.3,2.886.83,2.924,1.86,0.227,3.64.038,13.59-.114,15.57-0.152,1.48-.608,1.9-0.608,2.66,0,0.94,1.937,3.34,3.114,3.34,0.949,0,1.557-1.18,2.43-1.75,4.9-3.08,10.328-7.75,13.556-12.76l-0.684-.53a48,48,0,0,1-13.973,9.64c-0.456.19-.722,0.04-0.722-0.49-0.038-2.77.228-11.77,0.494-13.78,0.152-1.33,1.025-1.45,1.025-2.36,0-1.1-2.848-2.81-4.67-2.81a5.858,5.858,0,0,0-2.81.73Zm-5.126,6.42c0,5.08-3.759,13.1-9.645,18.11l0.57,0.68a24.671,24.671,0,0,0,12.644-16.71c0.19-.95.987-1.48,0.987-2.39,0-1.37-3.113-3.04-4.708-3.11a7.079,7.079,0,0,0-2.62.49v0.72C311.441,4948.14,313.074,4948.75,313.074,4949.97Zm44.34-4.33c0.494-.69.949-1.41,1.367-2.09,0.608-.99,1.1-1.25,1.1-1.98,0-.87-2.506-2.27-4.594-2.46a8.706,8.706,0,0,0-2.506.07l-0.152.61c1.291,0.61,2.24,1.37,2.24,2.09,0,2.31-5.278,9.95-11.315,14.65l0.531,0.73a34.868,34.868,0,0,0,12.037-9.88,3.217,3.217,0,0,0,1.709.91,8.348,8.348,0,0,0,2.126-.49,34.5,34.5,0,0,1,5.24-.95c0.38,0,.57.19,0.38,0.69-3.076,7.74-11.961,17.42-21.644,22.55l0.494,0.8c11.695-4.41,19.479-12.15,24.909-21.72,0.608-1.06,1.975-1.41,1.975-2.36,0-1.29-3.228-3.15-4.253-3.15-0.76,0-1.253.84-2.278,1.1a44.611,44.611,0,0,1-7.063.88h-0.3Z" transform="translate(-274.625 -4866.53)"/>
  <g id="薬用">
    <path id="薬用-2" data-name="薬用" class="cls-2" d="M400.924,4961.64a15.1,15.1,0,0,1-5.952,2.46,5.312,5.312,0,0,1,.735,1.09c0.282,0.51.3,0.53,0.866,0.38a14.085,14.085,0,0,0,6.027-3.31c-0.019,2.11-.094,3.08-0.094,3.4,0,0.19.019,0.21,0.207,0.21h1.62c0.188,0,.207-0.02.207-0.21,0-.32-0.076-1.38-0.094-3.51a15.519,15.519,0,0,0,6.346,3.38c0.584,0.15.6,0.15,0.867-.38a6.167,6.167,0,0,1,.753-1.22,16.513,16.513,0,0,1-6.29-2.29h3.088c1.714,0,2.3.03,2.411,0.03,0.188,0,.207-0.02.207-0.21v-1.23c0-.19-0.019-0.21-0.207-0.21-0.113,0-.7.04-2.411,0.04h-4.727V4959h0.151c1.262,0,1.695.03,1.808,0.03,0.188,0,.207-0.01.207-0.22,0-.12-0.038-0.57-0.038-1.62v-2.26c0-1.04.038-1.52,0.038-1.63,0-.19-0.019-0.21-0.207-0.21-0.113,0-.546.04-1.808,0.04h-0.7a1.938,1.938,0,0,0,.094-0.21,1.518,1.518,0,0,1,.283-0.44,0.348,0.348,0,0,0,.15-0.26c0-.12-0.113-0.17-0.32-0.21-0.471-.1-1-0.17-1.619-0.25a3.115,3.115,0,0,1-.189.86,5.352,5.352,0,0,1-.207.51c-1,0-1.356-.04-1.469-0.04-0.188,0-.207.02-0.207,0.21,0,0.13.038,0.59,0.038,1.63v2.26c0,1.05-.038,1.5-0.038,1.62,0,0.21.019,0.22,0.207,0.22,0.132,0,.527-0.03,1.865-0.03h0.037v1.06H398.1c-1.714,0-2.3-.04-2.411-0.04-0.188,0-.207.02-0.207,0.21v1.23c0,0.19.019,0.21,0.207,0.21,0.113,0,.7-0.03,2.411-0.03h2.825Zm4.087-3.94h-2.92v-1.02h2.92v1.02Zm0-3.3v0.99h-2.92v-0.99h2.92Zm-6.95-4.58c-1.808,0-2.448-.03-2.561-0.03-0.189,0-.207.02-0.207,0.2v1.24c0,0.19.018,0.21,0.207,0.21,0.113,0,.753-0.04,2.561-0.04h1.959c-0.019.51-.038,0.76-0.038,0.85,0,0.19.019,0.21,0.207,0.21h1.432c0.188,0,.207-0.02.207-0.21,0-.07-0.038-0.34-0.038-0.85h3.522c-0.019.51-.038,0.78-0.038,0.85,0,0.21.019,0.23,0.207,0.23h1.432c0.188,0,.207-0.02.207-0.23,0-.07-0.038-0.34-0.038-0.85h2.11c1.9,0,2.58.04,2.693,0.04,0.188,0,.207-0.02.207-0.21v-1.24c0-.18-0.019-0.2-0.207-0.2-0.113,0-.791.03-2.693,0.03h-2.11a1.734,1.734,0,0,1,.094-0.74,0.816,0.816,0,0,0,.1-0.28c0-.1-0.1-0.15-0.245-0.17-0.509-.06-1.187-0.1-1.827-0.12a9.882,9.882,0,0,1,.113,1.31H401.79a1.856,1.856,0,0,1,.094-0.76,0.547,0.547,0,0,0,.094-0.26c0-.1-0.075-0.15-0.244-0.17-0.509-.06-1.243-0.1-1.827-0.12a11.512,11.512,0,0,1,.113,1.31h-1.959Zm9.191,6.97a0.348,0.348,0,0,0-.094.21,0.179,0.179,0,0,0,.131.15,24.421,24.421,0,0,1,3.24,2.11c0.169,0.14.207,0.12,0.358-.13l0.7-1.06a0.543,0.543,0,0,0,.095-0.21,0.2,0.2,0,0,0-.132-0.16,20.674,20.674,0,0,0-3.108-1.89,4.124,4.124,0,0,0,.358-0.21,20.887,20.887,0,0,0,1.94-1.35,1.963,1.963,0,0,1,.508-0.36,0.283,0.283,0,0,0,.226-0.25,0.417,0.417,0,0,0-.169-0.32,15.588,15.588,0,0,0-1.281-1.05,4.816,4.816,0,0,1-.546.63,9.7,9.7,0,0,1-2.3,1.61,5.579,5.579,0,0,1,.791.9,2.1,2.1,0,0,0,.189.28c-0.094-.02-0.132.04-0.226,0.17Zm-7.684-1.27a17.094,17.094,0,0,1-3.127,1.69,6.381,6.381,0,0,1-1.092.36c0.226,0.59.452,1.16,0.659,1.62a0.326,0.326,0,0,0,.264.22,0.365,0.365,0,0,0,.282-0.17,1.626,1.626,0,0,1,.528-0.36c0.828-.42,1.6-0.8,2.392-1.29,0.489-.3.489-0.3,0.339-0.89A11.466,11.466,0,0,1,399.568,4955.52Zm-3.692-2.09a0.392,0.392,0,0,0-.113.21,0.187,0.187,0,0,0,.113.15,14.4,14.4,0,0,1,2.26,1.79c0.151,0.13.189,0.13,0.377-.1l0.791-.97a0.326,0.326,0,0,0,.113-0.19,0.279,0.279,0,0,0-.113-0.19,17.218,17.218,0,0,0-2.3-1.67c-0.169-.09-0.244-0.11-0.376.04Zm35.983-.81c0-1.98.038-3,.038-3.12,0-.21-0.019-0.23-0.208-0.23-0.131,0-.772.04-2.6,0.04h-8.851c-1.808,0-2.467-.04-2.58-0.04-0.208,0-.226.02-0.226,0.23,0,0.12.037,1.14,0.037,3.12v3.11c0,4.58-.565,6.84-1.94,8.62a4.906,4.906,0,0,1,1.338.97,0.763,0.763,0,0,0,.395.3,0.584,0.584,0,0,0,.339-0.38,11.979,11.979,0,0,0,1.639-5.26h4.294v2.26c0,1.85-.038,2.68-0.038,2.81,0,0.19.019,0.21,0.207,0.21h1.62c0.188,0,.207-0.02.207-0.21,0-.11-0.038-0.96-0.038-2.81v-2.26h4.426v3.16a0.523,0.523,0,0,1-.6.62c-0.621,0-.979-0.02-1.751-0.07a4.884,4.884,0,0,1,.527,1.44c0.132,0.57.113,0.55,0.7,0.55,1.563,0,2.128-.17,2.486-0.49a1.831,1.831,0,0,0,.622-1.54c0-.78-0.038-1.75-0.038-2.62v-8.41Zm-6.366,5.6v-2.68h4.426v2.68h-4.426Zm4.426-7.09v2.64h-4.426v-2.64h4.426Zm-10.547,7.09c0.038-.74.057-1.56,0.057-2.47v-0.21h4.106v2.68h-4.163Zm0.057-4.45v-2.64h4.106v2.64h-4.106Z" transform="translate(-274.625 -4866.53)"/>
    <rect id="長方形_571" data-name="長方形 571" class="cls-3" x="110.375" y="74.47" width="58" height="32" rx="4" ry="4"/>
  </g>
</svg>
