<?xml version="1.0" encoding="utf-8"?>
<!-- Generator: Adobe Illustrator 26.0.3, SVG Export Plug-In . SVG Version: 6.00 Build 0)  -->
<svg version="1.1" id="name-mousse_sp.svg" xmlns="http://www.w3.org/2000/svg" xmlns:xlink="http://www.w3.org/1999/xlink" x="0px"
	 y="0px" viewBox="0 0 286.4 102.1" style="enable-background:new 0 0 286.4 102.1;" xml:space="preserve">
<style type="text/css">
	.st0{opacity:0.7;fill-rule:evenodd;clip-rule:evenodd;fill:#AA7CB7;enable-background:new    ;}
	.st1{fill:#AA7CB7;}
</style>
<path id="ALL_IN_ONE_UV_MOUSSE_" class="st0" d="M10.8,14.4H13L6.6,0.2L0,14.4h2.2l1.5-3.2h5.7L10.8,14.4z M4.5,9.2l2.1-4.5l2,4.5
	H4.5z M16.6,1v13.4h6v-1.9h-3.9V1H16.6L16.6,1z M26.5,1v13.4h6v-1.9h-3.9V1H26.5z M43.1,1v13.4h2V1H43.1z M52.3,14.4V5L62,15.2V1h-2
	v9.2L50.3,0.1v14.2H52.3z M80.2,0.8c-3.8,0-6.9,3.1-6.9,6.9c0,3.8,3.1,6.9,6.9,6.9c3.8,0,6.9-3.1,6.9-6.9c0.1-3.7-2.9-6.8-6.6-6.9
	C80.4,0.8,80.3,0.8,80.2,0.8L80.2,0.8z M80.2,12.8c-2.8,0.1-5.1-2.1-5.2-4.9s2.1-5.1,4.9-5.2c2.8-0.1,5.1,2.1,5.2,4.9
	c0,0,0,0.1,0,0.1c0.2,2.6-1.9,4.9-4.5,5C80.4,12.8,80.3,12.8,80.2,12.8L80.2,12.8z M93.7,14.4V5l9.7,10.1V1h-2v9.2L91.7,0.1v14.2
	H93.7z M116,1h-7.4v13.4h7.4v-1.9h-5.3V8.2h5.2V6.3h-5.2V2.9h5.3V1L116,1z M127.3,1v8.6c0,1.3,0.4,2.5,1.2,3.5c2,2,5.3,2.1,7.3,0.1
	c0,0,0.1-0.1,0.1-0.1c0.8-1,1.3-2.2,1.2-3.5V1h-2v8c0.1,0.8-0.1,1.6-0.4,2.3c-0.9,1.4-2.7,1.8-4,0.9c-0.4-0.2-0.7-0.6-0.9-0.9
	c-0.3-0.7-0.5-1.5-0.4-2.3V1H127.3L127.3,1z M140.8,1l5.9,14.2L152.7,1h-2.2l-3.7,9.3L143,1H140.8L140.8,1z M164.7,14.4l1.4-8.1
	l3.8,8.7l3.9-8.7l1.4,8h2.1L174.7,0L170,10.4L165.4,0l-2.8,14.4H164.7z M188.3,0.8c-3.8,0-6.9,3.1-6.9,6.9c0,3.8,3.1,6.9,6.9,6.9
	c3.8,0,6.9-3.1,6.9-6.9c0.1-3.7-2.9-6.8-6.6-6.9C188.6,0.8,188.4,0.8,188.3,0.8L188.3,0.8z M188.3,12.8c-2.8,0.1-5.1-2.1-5.2-4.9
	s2.1-5.1,4.9-5.2c2.8-0.1,5.1,2.1,5.2,4.9c0,0,0,0.1,0,0.1c0.2,2.6-1.9,4.9-4.5,5C188.6,12.8,188.5,12.8,188.3,12.8L188.3,12.8z
	 M199.8,1v8.6c0,1.3,0.4,2.5,1.2,3.5c2,2,5.3,2.1,7.3,0.1c0,0,0.1-0.1,0.1-0.1c0.8-1,1.3-2.2,1.2-3.5V1h-2v8
	c0.1,0.8-0.1,1.6-0.4,2.3c-0.9,1.4-2.7,1.8-4,0.9c-0.4-0.2-0.7-0.6-0.9-0.9c-0.3-0.7-0.5-1.5-0.4-2.3V1H199.8L199.8,1z M222.3,3
	c-0.3-0.5-0.6-1-1-1.3c-0.8-0.6-1.7-0.9-2.7-0.9c-2-0.2-3.7,1.3-3.9,3.3c0,0.1,0,0.2,0,0.2c0.1,1.6,1.2,2.9,2.7,3.4l1.3,0.5
	c1.1,0.3,1.9,1.2,1.9,2.3c0.1,1.2-0.9,2.2-2,2.2c-0.1,0-0.1,0-0.2,0c-0.7,0-1.3-0.3-1.7-0.8c-0.4-0.5-0.6-1.1-0.6-1.7l-2,0.4
	c0.1,1,0.5,1.9,1.1,2.6c0.8,0.9,1.9,1.4,3.1,1.3c2.3,0.1,4.2-1.6,4.3-3.9c0-0.1,0-0.2,0-0.4c0-1.5-0.7-2.9-3.1-3.9l-1.3-0.5
	c-1.3-0.5-1.4-1.2-1.4-1.6c0-0.9,0.8-1.6,1.7-1.6c0.1,0,0.1,0,0.2,0c0.9,0,1.7,0.5,2,1.3L222.3,3z M234.6,3c-0.3-0.5-0.6-1-1-1.3
	c-0.8-0.6-1.7-0.9-2.7-0.9c-2-0.2-3.7,1.3-3.9,3.3c0,0.1,0,0.2,0,0.2c0.1,1.6,1.2,2.9,2.7,3.4l1.3,0.5c1.1,0.3,1.9,1.2,1.9,2.3
	c0.1,1.2-0.9,2.2-2,2.2c-0.1,0-0.1,0-0.2,0c-0.7,0-1.3-0.3-1.7-0.8c-0.4-0.5-0.6-1.1-0.6-1.7l-2,0.4c0.1,1,0.5,1.9,1.1,2.6
	c0.8,0.9,1.9,1.4,3.1,1.3c2.3,0.1,4.2-1.6,4.3-3.9c0-0.1,0-0.2,0-0.4c0-1.5-0.7-2.9-3.1-3.9l-1.3-0.5c-1.3-0.5-1.4-1.2-1.4-1.6
	c0-0.9,0.8-1.6,1.7-1.6c0.1,0,0.1,0,0.2,0c0.9,0,1.7,0.5,2,1.3L234.6,3z M246.9,1h-7.4v13.4h7.4v-1.9h-5.3V8.2h5.2V6.3h-5.2V2.9h5.3
	V1L246.9,1z"/>
<path class="st1" d="M9.5,46.7c4.5,2,6.1,3.7,6.1,7c0,3.9-3.1,6.5-8.3,6.5c-2.5,0-5.1-0.7-6.7-1.8l0.2-5h1.7l1.1,4.9
	c1,0.4,2,0.6,3.2,0.6c3.1,0,5-1.5,5-3.9c0-2.1-1-3.1-3.6-4.3l-1.3-0.6C3.1,48.4,1,46.5,1,43c0-3.9,3.2-6.2,7.8-6.2
	c2.4,0,4.3,0.6,5.8,1.7l-0.2,4.8h-1.7l-1.2-4.7c-0.7-0.3-1.3-0.4-2.3-0.4c-2.7,0-4.5,1.3-4.5,3.7c0,2.1,1.2,3.3,3.4,4.3L9.5,46.7z"
	/>
<path class="st1" d="M39.6,38.4l-3,0.4l-0.1,11.6c0,6.8-3,9.8-8.1,9.8c-5,0-8.5-2.5-8.5-9.2v-3.3c0-2.9,0-5.9-0.1-8.9l-2.7-0.3v-1
	h10.1v1l-3.1,0.2C24,41.6,24,44.6,24,47.6v2.8c0,5.5,2,7.6,5.5,7.6c3.6,0,5.7-2.2,5.6-7.8L35,39l-3.3-0.6v-1h8v1H39.6z"/>
<path class="st1" d="M63.7,38.4l-2.8,0.4l-0.1,21h-2.1L45.5,41.1l0.1,17.1l3.8,0.4v1h-8.1v-1l2.8-0.3v-19l-0.5-0.6l-2.3-0.3v-1h6.3
	l11.8,16.4L59.3,39l-3.8-0.5v-1h8.1L63.7,38.4L63.7,38.4L63.7,38.4z"/>
<path class="st1" d="M84,58.5c-2,1-4,1.8-6.7,1.8c-6.6,0-11.6-4.3-11.6-11.7c0-7.6,5.3-11.7,11.7-11.7c2.4,0,4.4,0.5,6.3,1.7
	l-0.1,5.1h-1.8l-1.3-5.2c-0.8-0.3-1.8-0.5-2.7-0.5c-4.5,0-7.8,3.4-7.8,10.5S73.3,59,77.8,59c1,0,2-0.2,2.9-0.6l1.3-5.1h1.8L84,58.5z
	"/>
<path class="st1" d="M108.5,38.4l-3,0.4l-0.2,11.6c0,6.8-3,9.8-8.1,9.8c-5,0-8.5-2.5-8.5-9.2v-3.3c0-2.9,0-5.9-0.1-8.9l-2.7-0.3v-1
	H96v1l-3.1,0.2c-0.1,2.9-0.1,5.9-0.1,8.9v2.8c0,5.5,2,7.6,5.5,7.6c3.6,0,5.7-2.2,5.6-7.8L103.8,39l-3.5-0.4v-1h8v0.8
	C108.3,38.4,108.5,38.4,108.5,38.4z"/>
<path class="st1" d="M121.7,38.6c-0.1,3-0.1,6.1-0.1,9.1v1.5c0,3,0,6,0.1,9.1l3.2,0.3v1h-10.8v-1l3.2-0.3c0-3,0-6,0-9.1v-1.5
	c0-3,0-6.1,0-9.1h-4.7l-1.2,5h-1.7l0.2-6.2H129l0.2,6.2h-1.6l-1.2-5H121.7z"/>
<path class="st1" d="M161.1,38.4l-3,0.4L158,50.4c0,6.8-3,9.8-8.1,9.8c-5,0-8.5-2.5-8.5-9.2v-3.3c0-2.9,0-5.9-0.1-8.9l-2.7-0.3v-1
	h10.1v1l-3.1,0.2c-0.1,2.9-0.1,5.9-0.1,8.9v2.8c0,5.5,2,7.6,5.4,7.6c3.6,0,5.7-2.2,5.6-7.8L156.4,39l-3.5-0.4v-1h8v0.8
	C160.9,38.4,161.1,38.4,161.1,38.4z"/>
<path class="st1" d="M183.8,38.3l-2.7,0.4l-7.1,21h-2.2l-7.6-21.2l-2.3-0.2v-1h10v1l-3.1,0.3l5.6,16.6l5.2-16.5l-3.1-0.4v-1h7.5v1
	H183.8z"/>
<path class="st1" d="M201.2,56.5c-0.1,0.2-1.3,0.8-2.3,0.8h-0.4v-2.5h-2.1v3.1c0,0.2-0.8,0.9-2.3,0.9h-0.5V36l3.1,1.2h1.3l1.3-1.6
	l2.9,2.3c-0.2,0.2-0.6,0.5-1.2,0.6v17.8h0.2V56.5z M196.3,38.2v7.4h2.1v-7.4H196.3z M198.5,54v-7.6h-2.1V54H198.5z M214.7,46.2v2
	h1.6l1.3-1.3l2.8,2.1c-0.1,0.2-0.5,0.4-1,0.5v2.8c0,0.2-1.3,0.8-2.4,0.8h-0.5v-0.8h-11.2c-0.3,3.3-1.1,7.4-4.4,10.2l-0.3-0.3
	c1.9-3.9,2-8.8,2-12.8v-5.3l0.2,0.1v-6.6l2.5,1h2.6l1.1-1.1l2.3,1.8c-0.1,0.2-0.4,0.3-0.8,0.4V43c0.6,0.1,1,0.2,1.5,0.4v-5.8l2.5,1
	h2.4l1.1-1.1l2.4,1.8c-0.1,0.2-0.4,0.3-0.9,0.4v3.4c0,0.1-0.6,0.5-1.1,0.6c0.6,0.5,1.7,1.3,2.4,2c-0.1,0.3-0.3,0.5-0.8,0.5h-5.1l0,0
	C214.9,46.2,214.7,46.2,214.7,46.2z M202,37.1l-0.2-0.8h5.5l1.3-1.8c0,0,1.6,1.2,2.5,2.2c-0.1,0.3-0.3,0.5-0.7,0.5H202L202,37.1
	L202,37.1z M202.8,44.2l3,1.1h4.7c-0.1-0.6-0.4-1.2-0.8-1.8c-0.4,0.2-0.9,0.3-1.5,0.3H208v-4.6h-2.9v4.1c0,0.2-1,0.7-2,0.7h-0.3
	V44.2z M210.3,54.3c0,0,1.1,1,1.9,1.9c-0.1,0.3-0.3,0.5-0.7,0.5h-2.9v2c1-0.2,2.2-0.3,3.3-0.6l0.1,0.4c-0.8,0.6-2.7,1.8-4.8,2.9
	c-0.2,0.4-0.5,0.6-0.8,0.8l-1.7-3c0.8-0.5,1-0.7,1-1.2v-5.3l3.6,0.3c-0.1,0.3-0.3,0.6-0.8,0.6v2.1h0.7L210.3,54.3z M205.4,40.1
	c4,0.8,2.3,3.9,0.7,2.6c0-0.8-0.5-1.9-1.1-2.4L205.4,40.1z M205.4,49.3c0,0.6,0,1.2,0,2h2v-2.4h-1.9v0.4H205.4z M205.4,48.2h1.9v-2
	h-1.9V48.2z M212,46.2h-2v2h2V46.2z M210,51.4h2V49h-2V51.4z M211.6,37.1l-0.2-0.8h5l1.5-1.9c0,0,1.7,1.2,2.7,2.3
	c-0.1,0.3-0.4,0.5-0.8,0.5L211.6,37.1L211.6,37.1z M219.4,58.8c0.7,0.3,0.8,0.6,0.8,1.1c0,1.1-1,1.6-3.9,1.6h-1.7
	c-2.2,0-2.4-0.6-2.4-2.3v-6.5l3.6,0.3c-0.1,0.4-0.3,0.6-0.8,0.7v2.1h1l1.2-1.8c0,0,1.5,1.2,2.2,2.2c-0.1,0.3-0.3,0.5-0.8,0.5H215v2
	c0,0.3,0.1,0.4,0.5,0.4h1h1c0.2,0,0.4-0.1,0.5-0.2c0.2-0.3,0.5-1,0.8-2h0.3L219.4,58.8z M214.2,39.4v0.8h0.1c4,0.8,2.3,3.8,0.7,2.6
	c0-0.6-0.3-1.6-0.8-2.1v2.5c0,0.2-0.8,0.6-1.8,0.7c0.3,0.5,0.2,1-0.1,1.5h3.8l1.1-1.5h-0.4v-4.5H214.2L214.2,39.4L214.2,39.4z
	 M214.7,49v2.4h1.8V49H214.7z"/>
<path class="st1" d="M247.1,33.9c0,0,2.4,1.8,3.8,3.1c-0.1,0.3-0.4,0.5-0.8,0.5h-3.7v20.3c0,2.4-0.7,4.1-5.4,4.5
	c-0.1-1.1-0.3-2.1-1-2.6s-1.7-0.9-3.8-1.2v-0.4c0,0,4.9,0.3,5.8,0.3c0.6,0,0.8-0.2,0.8-0.7V37.6h-20l-0.2-0.8H245L247.1,33.9z
	 M238,54.1c0,0.2-1.8,0.8-2.9,0.8h-0.6v-2.5h-5.2V55c0,0.3-1.5,1-2.9,1h-0.5V41.1l3.5,1.5h4.8l1.6-1.8l3.3,2.5
	c-0.2,0.2-0.6,0.5-1.2,0.6L238,54.1L238,54.1z M234.6,51.6v-8.1h-5.2v8.1H234.6z"/>
<path class="st1" d="M258.1,44.1c-1.5,1.6-3.2,3-5.2,4.1l-0.3-0.4c2.2-2.2,3.7-5.2,4.7-8.2h-4l-0.2-0.8h5.2V34l4.4,0.4
	c-0.1,0.4-0.3,0.7-1.1,0.8v3.5h0.6l1.6-2.2c0,0,1.9,1.6,3,2.6c-0.1,0.3-0.4,0.5-0.8,0.5h-4.5v1.3c7.2,1.1,4.5,6.1,1.9,4.1
	c-0.1-1.2-1-2.7-1.9-3.6v7.3c0,0.3-1.5,0.8-2.6,0.8h-0.6v-5.4C258.3,44.1,258.1,44.1,258.1,44.1z M277.8,38.6c0,0,2,1.6,3.1,2.6
	c-0.1,0.3-0.3,0.5-0.8,0.5h-3.7v6.8c0,0.1-1,0.7-2.7,0.7h-0.6v-7.5h-3c-0.1,2.2-0.8,4.8-3.9,6.7l4.3,0.6c-0.1,0.5-0.5,0.7-1.2,0.8
	c-0.6,0.4-1.7,1-2.4,1.6h5.8l1.7-1.8l3.4,2.6c-0.2,0.2-0.6,0.5-1.1,0.6v8.5c0,0.2-1.8,0.8-2.9,0.8h-0.6v-1.7h-11.7v0.8
	c0,0.3-1.6,1-3,1H258V50l3.7,1.5h3.5c0.1-0.7,0.2-1.7,0.3-2.5c-0.5,0.3-1,0.5-1.7,0.7l-0.2-0.3c3.1-2.5,3.5-5.7,3.5-8.5v-4.7l3.5,1
	c2.3-0.9,4.7-2.1,6-2.9l3.2,3.1c-0.3,0.3-1,0.3-1.9,0c-2,0.3-5,0.7-7.7,0.8V41h6L277.8,38.6z M261.1,52.2v3.2h11.7v-3.2H261.1z
	 M272.8,59.6v-3.3h-11.7v3.3H272.8z"/>
<path class="st1" d="M5,83.7c4.4,2.2,2.3,5.6,0.7,4c0.1-1-0.2-2.3-0.7-3.2v12.4c0,0.2-1,0.9-2,0.9H2.6v-9.4C1.9,89.8,1,91-0.1,92.2
	l-0.3-0.2c1.4-2.7,2.2-6.5,2.6-9.9H0l-0.2-0.6h2.8v-6l3.4,0.3c-0.1,0.3-0.2,0.6-0.9,0.6v4.8l1-1.7c0,0,1.4,1.3,2,2.1
	C8.1,81.8,7.9,82,7.6,82H5V83.7z M19.8,94.4c0,0,1.7,1.3,2.6,2.2c-0.1,0.2-0.3,0.4-0.6,0.4H6.5l-0.2-0.6h12L19.8,94.4z M7.7,78
	l-0.2-0.6h10.8l1.3-1.9c0,0,1.6,1.3,2.5,2.2c-0.1,0.2-0.2,0.4-0.6,0.4h-7.8c-0.3,1-0.9,2.2-1.4,3.2h1.3l1.4-1.4l2.3,2
	c-0.2,0.2-0.5,0.3-1,0.4c-0.2,8.5-0.4,11.3-1.6,12.5c-0.7,0.7-1.7,1-2.7,1c0-0.8-0.1-1.4-0.3-1.8s-0.8-0.6-1.6-0.8v-0.3
	c0.6,0.2,1.6,0.2,2.1,0.2c0.3,0,0.5-0.1,0.7-0.2c0.6-0.6,0.8-3.8,1-10.9h-1.6l-1,1l-2.4-1.6c0.2-0.2,0.6-0.4,1-0.6
	c0.4-0.9,0.8-2.1,1.2-2.8L7.7,78L7.7,78z M10.6,91.6v-1h-1v1.3c0,0.2-0.8,0.6-1.6,0.6H7.8v-9.2L9.7,84h0.8l0.8-0.8l1.8,1.4
	c-0.1,0.1-0.4,0.2-0.6,0.3v6.1c0,0.2-0.9,0.6-1.6,0.6L10.6,91.6L10.6,91.6z M10.6,89.9v-5.2h-1v5.2H10.6z M22.2,83
	c-0.2,0.2-0.3,0.2-0.8,0.3c-0.2,1.6-0.5,3-1,4.5c2.9,3.5,1.4,6.5-0.5,4.9c-0.1-0.8-0.3-1.7-0.6-2.5c-0.8,1.4-1.9,2.6-3.3,3.7
	l-0.4-0.2c1.3-1.5,2.1-3.3,2.6-5.3c-0.6-1.3-1.4-2.4-2-3.4l0.3-0.2c0.8,0.5,1.6,1,2.2,1.5c0.2-1,0.3-2.2,0.4-3.2h-2.4l-0.4-0.6h2.6
	l1.2-1.3L22.2,83z"/>
<path class="st1" d="M28.9,84.9c0,4.1-0.2,9.5-4.9,13l-0.3-0.2c2.2-3.8,2.3-8.5,2.3-12.8v-7.3l3.3,1.2h6.3c-0.1-0.1-0.2-0.1-0.2-0.2
	c-0.2-1.2-1.3-2.5-2-3.1l0.2-0.2c4.9-0.1,4.9,2.7,3.6,3.5h5.1l1.5-2c0,0,1.7,1.4,2.6,2.3c-0.1,0.2-0.3,0.4-0.6,0.4H28.9V84.9z
	 M43.6,89.8c-0.2,0.2-0.4,0.3-1,0.3c-0.9,1.4-2.2,2.6-3.5,3.7c2.2,0.6,4.8,0.9,7.4,1V95c-1.3,0.3-1.9,1.4-2.2,2.6
	c-3-0.5-5.7-1.3-7.7-2.6c-2.7,1.4-6.1,2.2-10.1,2.6l-0.1-0.3c3.4-0.7,6.4-1.8,8.7-3.4c-1.4-1.2-2.4-2.6-3.1-4.5h-1.7l-0.2-0.6h9.4
	l1.7-1.5L43.6,89.8z M38.4,87.8v-0.7h-3.8v0.6c0,0.2-1.3,0.6-2.2,0.6h-0.5v-4.9h-2.6l-0.2-0.6h2.8V80l3.5,0.3
	c-0.1,0.3-0.2,0.5-0.8,0.6v1.8h3.8v-2.6l3.5,0.3c-0.1,0.3-0.2,0.5-0.8,0.6v1.8h1l1.3-1.9c0,0,1.4,1.4,2.2,2.2
	c-0.1,0.2-0.3,0.4-0.6,0.4h-4v3.9c0,0.2-1.2,0.6-2.2,0.6h-0.3L38.4,87.8L38.4,87.8z M32.5,89.7c1,1.5,2.5,2.6,4.1,3.3
	c1.2-1,2.2-2.1,2.8-3.3H32.5z M38.4,86.3v-3h-3.8v3H38.4z"/>
<path class="st1" d="M57.7,78.1c-0.2,0.2-0.5,0.3-1,0.3c-0.8,1.5-2.3,4-3.6,5.6c2.7,1.7,3.8,4,3.8,6c0,2.4-1,3.7-3.7,3.8
	c0-0.7-0.1-1.8-0.3-2.1c-0.2-0.2-0.6-0.5-1.2-0.6v-0.3h1.7c0.2,0,0.3,0,0.5-0.2c0.3-0.2,0.5-0.6,0.5-1.4c0-1.7-0.5-3.5-1.9-5.1
	c0.4-1.6,1-4.5,1.4-6.4h-2.4v19.3c0,0.2-0.8,0.8-2.2,0.8h-0.5V76l2.9,1.2h1.8l1.4-1.4L57.7,78.1z M67.9,78.1c0,0,1.8,1.4,2.6,2.3
	c-0.1,0.2-0.3,0.4-0.6,0.4h-7.3c-0.1,1.3-0.1,2.4-0.2,3.6h3.4l1.5-1.5l2.5,2.2c-0.2,0.2-0.5,0.3-1,0.5c-0.2,6.8-0.8,10.1-2.2,11.2
	c-0.8,0.7-1.8,1-3.2,1c0-0.8-0.1-1.5-0.4-1.9c-0.4-0.4-1.3-0.8-2.2-1v-0.3c1,0.1,2.6,0.2,3,0.2c0.4,0,0.6-0.1,0.8-0.2
	c0.7-0.6,1.3-4,1.4-9.4h-3.8c-0.7,5.4-2.6,10-8.4,12.8l-0.2-0.2c4.9-4.4,5.8-10.3,5.8-16.8H56L55.8,80h6.6c-0.3-0.1-0.6-0.2-1-0.6
	c0.1-1.4-0.6-2.9-1.4-4l0.2-0.1c5.2,1,4.5,4.3,2.8,4.7h3.4L67.9,78.1z"/>
<path class="st1" d="M74.5,83.2c-0.7,0.5-1.6,1-2.4,1.5l-0.2-0.2c1.6-1.6,3.1-4.1,4-5.8c-1,0.6-2.3,1.3-3.6,1.8L72,80.2
	c1.6-1.4,3.2-3.4,4-4.8l2.7,1.8c-0.2,0.2-0.3,0.3-0.9,0.2c-0.5,0.4-1,0.8-1.8,1.3l2.6,1.5c-0.2,0.2-0.3,0.3-0.9,0.2
	c-0.4,0.5-0.9,1-1.4,1.5l1.2,0.4c-0.1,0.2-0.3,0.3-0.7,0.4v5.3c-0.1,0.2-1,0.5-1.9,0.5h-0.4L74.5,83.2L74.5,83.2z M72.3,97
	c2.1-1.3,4.3-3.1,5.3-4.7l2.9,1.9c-0.2,0.2-0.4,0.3-0.9,0.2c-1.7,1.2-4.4,2.3-7.1,2.9L72.3,97z M91.2,89.5c0,0,1.7,1.3,2.6,2.1
	c-0.1,0.2-0.3,0.4-0.6,0.4h-8.8v5.3c0,0.1-0.8,0.5-2.3,0.5h-0.5v-5.8h-9l-0.2-0.6h17.4L91.2,89.5z M94.3,77.7
	c-0.2,0.2-0.5,0.4-1,0.5v5.7c0,1.5-0.2,2.3-2.5,2.5c-0.1-0.6-0.1-1-0.2-1.4c-0.2-0.2-0.5-0.5-1-0.6v-0.3c0,0,1,0.1,1.4,0.1
	c0.2,0,0.3-0.1,0.3-0.4v-5.8h-1.8v9.6l0.2-0.2c0,0,1.6,1.2,2.5,2c-0.1,0.2-0.3,0.4-0.6,0.4H75.2L75,88.9H88l0.9-1.2
	C88.5,87.9,88,88,87.3,88H87v-12l2.5,1h1.3l1-1.3L94.3,77.7z M85.2,78.9c0,0,1.2,1,1.9,1.8c-0.1,0.2-0.2,0.4-0.6,0.4h-2.8v1.8h0.6
	l0.9-1.3c0,0,1,0.9,1.6,1.6c-0.1,0.2-0.2,0.4-0.6,0.4h-2.6v1.8c1-0.2,2.1-0.2,3.1-0.5l0.1,0.4c-1.6,0.5-4.4,1.5-7.3,2.4
	C79.3,87.9,79.2,88,79,88l-0.9-2c0.4-0.2,0.5-0.4,0.5-0.7v-3.5l2.5,0.2c0,0.2-0.2,0.5-0.6,0.5v3.1l1-0.2v-4.5h-3.2l-0.2-0.6h3.4v-2
	h-1.2c-0.6,0.6-1.2,1-1.8,1.5l-0.3-0.2c0.5-1,1-2.8,1.4-4.4l2.9,0.9c-0.1,0.2-0.4,0.5-0.9,0.5c-0.2,0.3-0.5,0.6-0.6,1h2.6l1-1.5
	c0,0,1.3,1,2,1.8c-0.1,0.2-0.3,0.4-0.6,0.4h-2.2v1.9h0.5L85.2,78.9z M85.7,92.8c8.4-0.1,8.1,5,5.3,4.4c-1.2-1.4-3.7-3.2-5.4-4.1
	L85.7,92.8z"/>
<path class="st1" d="M110.3,76.9c-0.2,0.3-1,0.5-2,0.6c1.8,2.2,6.1,4.5,10.4,5.6v0.2c-1.3,0.3-2.2,1.5-2.6,2.6
	c-3.5-1.9-6.9-5-8.5-8.4c-2.4,4.1-6.9,7.3-11.9,9.3l-0.2-0.2c3.7-2.3,7-5.9,8.5-9.2h-4l-0.2-0.6h6.9l0.9-1.4L110.3,76.9z M115,94.3
	c0,0,1.8,1.4,2.8,2.3c-0.1,0.2-0.3,0.4-0.6,0.4H96.9l-0.2-0.6h8.8v-5.1h-6.2l-0.2-0.6h6.4v-4.5h-5.3l-0.2-0.6h10.1l1.4-1.8
	c0,0,1.6,1.3,2.6,2.1c-0.1,0.2-0.3,0.4-0.6,0.4h-4.9v4.5h3.2l1.5-1.9c0,0,1.7,1.4,2.6,2.2c-0.1,0.2-0.3,0.4-0.6,0.4h-6.8v5.1h4.9
	L115,94.3z"/>
<path class="st1" d="M126.4,82.4c-0.1,0.2-0.4,0.5-1,0.4c-1.5,2.4-3.4,4.1-5.6,5l-0.2-0.2c1.4-1.5,2.8-4,3.6-6.5L126.4,82.4z
	 M130.4,86.3c-0.1,0.2-0.4,0.5-1,0.5c-0.2,0.9-0.6,2.1-1.3,3.4c3.8,3.3,2.3,6.6-0.1,5.1c-0.3-0.9-0.8-1.8-1.5-2.8
	c-1.4,1.8-3.4,3.6-6.6,5.2l-0.2-0.4c2.7-2.2,4.5-4.5,5.6-6.6c-1-1.4-2.2-2.5-3.2-3.5l0.2-0.2c1.5,0.5,2.8,1,3.8,1.8
	c0.5-1.4,0.7-2.6,0.8-3.7L130.4,86.3z M119.9,80.6l-0.2-0.6h9.2l1.5-1.9c0,0,1.7,1.4,2.6,2.2c-0.1,0.2-0.3,0.4-0.6,0.4L119.9,80.6
	L119.9,80.6z M123,75.5c6.9,0.4,4.9,5.8,2.2,4.1c-0.2-1.4-1.4-2.9-2.3-4L123,75.5z M126.5,81.2c7,0.6,5.4,5.8,2.9,4.3
	c-0.5-1.5-1.8-3.1-3-4.1L126.5,81.2z M140.7,81.5c-0.4,3.7-1.4,6.9-3.1,9.7c1.4,1.8,2.9,3.1,5,4.1l-0.1,0.2c-1.3,0.2-2.1,1-2.4,2.2
	c-1.8-1.3-2.9-2.9-4-4.8c-1.8,2.1-4.1,3.7-7.4,4.9l-0.2-0.2c3.1-1.9,5.3-4.2,6.6-6.9c-0.6-1.9-1-4.1-1.4-6.4
	c-0.7,1.5-1.7,2.8-2.6,3.9l-0.3-0.2c1.4-3.4,2.4-8.2,2.7-12.8l3.8,0.8c-0.1,0.3-0.3,0.6-0.9,0.6c-0.3,1.4-0.6,2.8-1.2,4.1h3.1
	l1.4-1.9c0,0,1.7,1.4,2.6,2.2c-0.1,0.2-0.3,0.4-0.6,0.4L140.7,81.5L140.7,81.5z M135.2,81.5c-0.2,0.7-0.6,1.4-0.8,2.1
	c0.4,2,1,3.8,1.8,5.3c0.9-2.3,1.4-4.8,1.6-7.4C137.8,81.5,135.2,81.5,135.2,81.5z"/>
<path class="st1" d="M150.5,77c-0.1,0.2-0.3,0.4-0.9,0.2c-1.4,1.5-3.6,3.5-5.8,4.8l-0.2-0.2c1.6-1.8,3.2-4.7,4-6.5L150.5,77z
	 M149.7,85.5c-0.1,0.2-0.2,0.4-0.7,0.5v11c0,0.2-1,0.9-2.2,0.9h-0.5V86.6c-0.7,0.8-1.6,1.6-2.3,2.2l-0.2-0.2
	c1.7-2.5,3.3-6.2,4.1-8.5l2.6,1.4v-3.9l2.9,0.4c-0.1,0.2-0.3,0.5-0.9,0.6v4.2h1v-7.2l2.6,0.2c-0.1,0.2-0.2,0.5-0.7,0.6v6.2h1v-4.9
	l2.6,0.2c0,0.2-0.2,0.5-0.6,0.6v4.9c0,0.2-0.9,0.6-1.6,0.6h-0.2c0.2,0.2,1.3,1,1.8,1.7c-0.1,0.2-0.2,0.4-0.6,0.4h-7.5l-0.2-0.6h5.7
	l1-1.4h-0.1v-0.6h-4l-0.6,0.6l-2-1c0.1-0.2,0.2-0.3,0.5-0.5V82c-0.1,0-0.2,0-0.3,0c-0.6,0.8-1.3,1.8-2.1,2.7L149.7,85.5z
	 M150.9,87.5l2.9,0.2c0,0.2-0.2,0.5-0.8,0.6v1.5c-0.1,2.3-0.6,5.9-3.7,7.9l-0.2-0.2c1.6-2.2,1.8-5.3,1.8-7.7L150.9,87.5L150.9,87.5z
	 M159.2,92c-0.6,0.6-1.8,1.9-3.2,3.2c-0.2,0.3-0.4,0.6-0.6,0.7l-1.4-2.3c0.6-0.4,0.7-0.6,0.7-1v-5.1l3.1,0.3c-0.1,0.4-0.3,0.6-1,0.7
	v4.1c0.6-0.2,1.4-0.6,2.2-0.9L159.2,92z M164.8,81.5c-0.2,3.8-0.9,7.1-2.4,9.9c1,1.7,2.3,3,4.1,4.1l-0.1,0.2c-1.2,0.2-1.9,1-2.2,2.2
	c-1.4-1.2-2.3-2.7-2.9-4.5c-1.4,1.8-3.3,3.4-6.1,4.6l-0.2-0.2c2.7-1.8,4.5-4,5.7-6.5c-0.5-1.8-0.7-3.8-0.9-6
	c-0.4,0.8-0.8,1.6-1.4,2.2l-0.4-0.2c1-3.1,1.8-7.6,2.1-11.7l3.2,0.6c-0.1,0.2-0.3,0.6-0.9,0.6c-0.2,1.5-0.6,2.9-1,4.3h1.3l1.4-1.7
	c0,0,1.5,1,2.4,1.9c-0.1,0.2-0.3,0.4-0.6,0.4h-0.7v-0.1C165.1,81.5,164.8,81.5,164.8,81.5z M161.1,81.5c-0.3,1-0.6,1.9-1,2.8
	c0.2,1.8,0.6,3.4,1.3,4.9c0.7-2.3,1-4.9,1.2-7.7H161.1z"/>
<path class="st1" d="M168.7,95.5c2.2-2.4,4.2-6.5,4.9-9l3.8,1.4c-0.1,0.3-0.3,0.5-1,0.5c-1.4,2.6-4.1,5.7-7.3,7.3L168.7,95.5z
	 M185.9,82.6c0,0,1.9,1.4,3,2.4c-0.1,0.2-0.3,0.4-0.6,0.4h-7.7v11.5c0,0.2-1.4,0.9-2.5,0.9h-0.6V85.4h-8.5l-0.2-0.6h8.6v-9.4l4,0.3
	c-0.1,0.3-0.2,0.6-0.9,0.6v8.3h3.7L185.9,82.6z M170.6,76.8c8.1,2.6,5.7,8.5,2.9,6.3c-0.5-2.1-1.9-4.5-3.1-6.1L170.6,76.8z
	 M181.5,87.1c9.1,3.7,6.9,10.2,3.9,7.9c-0.6-2.6-2.5-5.6-4.1-7.7L181.5,87.1z M188.1,78.1c-0.2,0.2-0.5,0.5-1,0.4
	c-1.6,2.1-3.4,3.8-5.3,4.9l-0.2-0.2c0.9-1.6,2-4.3,2.7-6.7L188.1,78.1z"/>
<path class="st1" d="M201.6,78.1c-0.2,0.2-0.5,0.3-1,0.3c-0.8,1.5-2.3,4-3.6,5.6c2.7,1.7,3.8,4,3.8,6c0,2.4-1,3.7-3.7,3.8
	c0-0.7-0.1-1.8-0.3-2.1c-0.2-0.2-0.6-0.5-1.2-0.6v-0.3h1.6c0.2,0,0.3,0,0.5-0.2c0.3-0.2,0.5-0.6,0.5-1.4c0-1.7-0.5-3.5-1.9-5.1
	c0.4-1.6,1-4.5,1.4-6.4h-2.4v19.3c0,0.2-0.8,0.8-2.2,0.8h-0.5V76l2.9,1.2h1.8l1.4-1.4L201.6,78.1z M211.9,78.1c0,0,1.8,1.4,2.6,2.3
	c-0.1,0.2-0.3,0.4-0.6,0.4h-7.3c-0.1,1.3-0.1,2.4-0.2,3.6h3.4l1.5-1.5l2.6,2.2c-0.2,0.2-0.5,0.3-1,0.5c-0.2,6.8-0.8,10.1-2.2,11.2
	c-0.8,0.7-1.8,1-3.2,1c0-0.8-0.1-1.5-0.4-1.9c-0.4-0.4-1.3-0.8-2.2-1v-0.3c1,0.1,2.6,0.2,3,0.2c0.4,0,0.6-0.1,0.8-0.2
	c0.7-0.6,1.3-4,1.4-9.4h-4c-0.7,5.4-2.6,10-8.4,12.8l-0.2-0.2c4.9-4.4,5.8-10.3,5.8-16.8h-3.6l-0.2-0.6h6.7c-0.3-0.1-0.6-0.2-1-0.6
	c0.1-1.4-0.6-2.9-1.4-4l0.2-0.1c5.2,1,4.5,4.3,2.8,4.7h3.4L211.9,78.1z"/>
<path class="st1" d="M222.6,93.1c-0.1,0.2-1,0.6-1.8,0.6h-0.3v-2h-1.7v2.5c0,0.2-0.6,0.7-1.8,0.7h-0.4V76.9l2.5,1h1l1-1.3l2.3,1.8
	c-0.2,0.2-0.5,0.4-1,0.5V93L222.6,93.1L222.6,93.1z M218.8,78.6v5.9h1.7v-5.9H218.8z M220.5,91.1v-6.1h-1.7v6.1H220.5z M233.4,85
	v1.6h1.3l1-1l2.2,1.7c-0.1,0.2-0.4,0.3-0.8,0.4v2.2c0,0.2-1,0.6-1.9,0.6h-0.4v-0.6h-8.9c-0.2,2.6-0.9,5.9-3.5,8.1l-0.2-0.2
	c1.5-3.1,1.6-7,1.6-10.2v-4.2l0.2,0.1v-5.3l2,0.8h2.1l0.9-0.9l1.8,1.4c-0.1,0.2-0.3,0.2-0.6,0.3v2.6c0.5,0.1,0.8,0.2,1.2,0.3v-4.6
	l2,0.8h1.9L236,78l1.9,1.4c-0.1,0.2-0.3,0.2-0.7,0.3v2.7c0,0.1-0.5,0.4-0.9,0.5c0.5,0.4,1.4,1,1.9,1.6c-0.1,0.2-0.2,0.4-0.6,0.4
	h-4.1l0,0H233.4z M223.3,77.7l-0.2-0.6h4.4l1-1.4c0,0,1.3,1,2,1.8c-0.1,0.2-0.2,0.4-0.6,0.4L223.3,77.7L223.3,77.7L223.3,77.7z
	 M224,83.4l2.4,0.9h3.7c-0.1-0.5-0.3-1-0.6-1.4c-0.3,0.2-0.7,0.2-1.2,0.2H228v-3.6h-2.3v3.3C225.6,82.9,224.8,83.3,224,83.4
	L224,83.4L224,83.4L224,83.4z M229.9,91.4c0,0,0.9,0.8,1.5,1.5c-0.1,0.2-0.2,0.4-0.6,0.4h-2.4V95c0.8-0.2,1.8-0.2,2.6-0.5l0.1,0.3
	c-0.6,0.5-2.2,1.4-3.8,2.3c-0.2,0.3-0.4,0.5-0.6,0.6l-1.4-2.4c0.6-0.4,0.8-0.6,0.8-1v-4.2l2.9,0.2c-0.1,0.2-0.2,0.5-0.6,0.5v1.8h0.6
	L229.9,91.4z M226,80c3.2,0.6,1.8,3.1,0.6,2.1c0-0.6-0.4-1.5-0.9-1.9L226,80z M226,87.5c0,0.5,0,1,0,1.6h1.6v-1.9H226L226,87.5
	L226,87.5z M226,86.5h1.5v-1.6H226V86.5z M231.2,85h-1.6v1.6h1.6V85z M229.6,89.1h1.6v-1.9h-1.6V89.1z M231,77.7l-0.2-0.6h4l1.2-1.5
	c0,0,1.4,1,2.2,1.8c-0.1,0.2-0.3,0.4-0.6,0.4L231,77.7L231,77.7L231,77.7z M237.2,95c0.6,0.2,0.6,0.5,0.6,0.9c0,0.9-0.8,1.3-3.1,1.3
	h-1.4c-1.8,0-1.9-0.5-1.9-1.8v-5.2l2.9,0.2c-0.1,0.3-0.2,0.5-0.6,0.6v1.7h0.8l1-1.4c0,0,1.2,1,1.8,1.8c-0.1,0.2-0.2,0.4-0.6,0.4
	h-2.9V95c0,0.2,0.1,0.3,0.4,0.3h0.8h0.8c0.2,0,0.3-0.1,0.4-0.2c0.2-0.2,0.4-0.8,0.6-1.6h0.2L237.2,95z M233.1,79.6v0.7h0.1
	c3.2,0.6,1.8,3,0.6,2.1c0-0.5-0.2-1.3-0.6-1.7v2c0,0.2-0.6,0.5-1.4,0.6c0.2,0.4,0.2,0.8-0.1,1.2h3l0.9-1.2h-0.2v-3.6L233.1,79.6
	L233.1,79.6L233.1,79.6z M233.4,87.2v1.9h1.4v-1.9H233.4z"/>
<path class="st1" d="M255.1,88.8c1.8,1.2,4.7,1.9,7,2.2v0.2c-0.9,0.2-1.5,1-1.8,2.3c-2.5-1-4.7-2.6-6.1-4.8h-5
	c-0.8,0.7-1.8,1.5-2.7,2.2h0.2c0.8,2.6-0.2,4.5-1.4,5c-0.8,0.4-1.8,0.2-2.1-0.6c-0.2-0.8,0.2-1.4,0.9-1.8c1-0.3,2.1-1.4,2.2-2.6
	c-1.8,1.2-3.9,2.1-6.4,2.6l-0.2-0.2c2.6-1.3,4.8-2.9,6.4-4.6h-5.7l-0.2-0.6h6.5c0.5-0.6,1-1.4,1.4-2h-1.7v0.4c0,0.2-1.3,0.8-2.3,0.8
	h-0.4v-8l1,0.4l-0.2-1.7h-4.3l-0.2-0.6h4.3l-0.2-2.2l3.6,0.2c0,0.2-0.2,0.6-0.6,0.6l0.2,1.2h0.6l1.3-1.8c0,0,1.4,1.3,2.2,2
	c-0.1,0.2-0.2,0.4-0.6,0.4h-3.4l0.2,1c-0.3,0.5-1.4,0.7-2.5,0.7l1.6,0.6h8.6l0.8-0.8c-0.6,0.1-1.3,0.2-2,0l0.2-1.5h-2.3l-0.2-0.6
	h2.6l0.3-2.2l3.5,0.6c-0.1,0.2-0.2,0.6-0.9,0.6l-0.2,1h1.4l1.3-1.8c0,0,1.4,1.3,2.2,2c-0.1,0.2-0.3,0.4-0.6,0.4h-4.4l-0.2,1.2h-0.1
	l2.3,1.8c-0.2,0.2-0.4,0.4-0.8,0.5v4.6c0,0.2-1.4,0.8-2.3,0.8h-0.5v-0.8h-5.9l2.4,0.6c-0.1,0.2-0.4,0.4-1.2,0.4
	c-0.2,0.3-0.6,0.6-0.8,1h7.9l1.4-1.7c0,0,1.6,1.2,2.6,1.9c-0.1,0.2-0.3,0.4-0.6,0.4h-5.8v0.3H255.1z M246.4,81.1v1.8h8.9v-1.8H246.4
	z M246.4,85.4h8.9v-1.8h-8.9V85.4z M252.4,89.4c-0.1,0.3-0.2,0.5-0.7,0.6v5.2c0,1.8-0.4,2.8-3.2,3c-0.1-0.7-0.2-1.4-0.4-1.8
	c-0.2-0.4-0.6-0.6-1.6-0.8v-0.3c0,0,1.8,0.1,2.2,0.1c0.2,0,0.4-0.1,0.4-0.3V89L252.4,89.4z M252.3,91.2c5,2.4,2.5,6.1,0.6,4.2
	c0.1-1.4-0.4-2.9-0.9-4.1L252.3,91.2z M254.5,91c6.9,1.8,4.9,6.7,2.4,4.9c-0.4-1.6-1.7-3.5-2.6-4.7L254.5,91z"/>
<path class="st1" d="M263.9,87.8c0,0,0.6-0.1,0.9-0.3c1.2-0.7,2.6-2.3,4-4c-0.9,0.3-2,0.7-3.2,1.2c-0.2,0.2-0.4,0.5-0.6,0.6
	l-1.3-2.9c0,0,0.6-0.1,0.8-0.2c1.4-1.2,3.3-4.7,4-6.6l3.3,1.8c-0.1,0.2-0.4,0.4-0.8,0.3c-1.2,1.5-3.2,3.5-5.1,4.8c1,0,2.5,0,4-0.1
	c0.8-1.3,1.6-2.4,2-3.3l3.1,2.2c-0.2,0.2-0.5,0.3-1,0.2c-1.6,1.9-4.7,4.5-7.5,6.4c1.4-0.1,3.1-0.2,4.9-0.3c-0.2-0.8-0.5-1.7-0.8-2.3
	l0.2-0.1c5.3,2.3,2.8,6.3,0.9,4.4c0-0.4-0.1-0.8-0.2-1.3c-1.4,0.6-3.5,1.4-5.7,2.2c-0.2,0.2-0.4,0.5-0.6,0.6L263.9,87.8z M266.3,91
	c1,2.6,0.7,4.5,0,5.4c-0.6,0.6-1.9,0.6-2.3-0.2c-0.3-0.8,0-1.6,0.6-2c0.6-0.6,1.4-2,1.3-3.2C265.8,91,266.3,91,266.3,91z
	 M268.3,90.4c4.1,3.1,1.4,6.8-0.2,4.6c0.3-1.5,0.2-3.3-0.1-4.5L268.3,90.4z M271,89.8c4.9,2.1,2.3,5.8,0.5,3.9
	c0.2-1.3-0.2-2.7-0.7-3.8L271,89.8z M278.5,91.1c-0.2,0.2-0.3,0.3-0.9,0.3c-1,1.8-2.9,4-4.9,5.3l-0.2-0.2c1.4-2,2.5-5,2.9-7
	L278.5,91.1z M282,83.9c5.9,2.5,3.2,6.8,1,4.7c0-0.6-0.1-1.2-0.2-1.8c-0.5,0.2-1,0.3-1.7,0.6v7.2c0,1.8-0.4,2.9-3.2,3.2
	c-0.1-0.8-0.2-1.5-0.4-1.8c-0.2-0.4-0.7-0.6-1.8-0.8v-0.3c0,0,1.9,0.1,2.4,0.1c0.3,0,0.5-0.2,0.5-0.4v-6.2c-0.9,0.2-1.9,0.6-2.9,0.8
	c-0.2,0.2-0.5,0.5-0.7,0.6l-1-3c0,0,0.6-0.1,1-0.2c1.4-0.7,2.9-2.2,4.4-3.8c-1,0.4-2.2,0.8-3.5,1.4c-0.2,0.3-0.4,0.5-0.6,0.6
	l-1.3-2.9c0,0,0.5-0.1,0.7-0.2c1.5-1.2,3.7-4.5,4.3-6.4l3.3,1.8c-0.1,0.2-0.3,0.3-0.8,0.3c-1.3,1.5-3.6,3.4-5.6,4.7
	c1.2-0.1,2.6-0.1,4.1-0.2c1-1.3,1.9-2.4,2.3-3.3l2.9,2.2c-0.2,0.2-0.5,0.3-1,0.2c-1.7,1.8-4.9,4.3-8,6c1.7-0.1,3.9-0.2,6.2-0.4
	c-0.2-0.8-0.6-1.6-0.9-2.2L282,83.9z M282,89.9c6.8,2.7,4.4,7.9,1.9,5.7c-0.2-1.9-1.3-4.1-2.2-5.6L282,89.9z"/>
</svg>
