<svg id="name-mousse.svg" xmlns="http://www.w3.org/2000/svg" width="267.09" height="96.47" viewBox="0 0 267.09 96.47">
  <defs>
    <style>
      .cls-1, .cls-2 {
        fill: #aa7cb7;
        fill-rule: evenodd;
      }

      .cls-1 {
        opacity: 0.7;
      }
    </style>
  </defs>
  <path id="ALL_IN_ONE_UV_MOUSSE_" data-name="ALL IN ONE UV MOUSSE " class="cls-1" d="M816.873,2406.59h1.653l-4.748-10.61-4.987,10.61h1.652l1.1-2.42h4.281Zm-4.7-3.86,1.547-3.4,1.488,3.4h-3.035Zm9.1-6.16v10.02h4.477v-1.44h-2.944v-8.58h-1.533Zm7.41,0v10.02h4.477v-1.44h-2.944v-8.58h-1.533Zm12.4,0v10.02h1.532v-10.02h-1.532Zm6.962,10.02v-7l7.271,7.62v-10.64h-1.532v6.94l-7.271-7.62v10.7h1.532Zm20.885-10.2a5.2,5.2,0,1,0,5.212,5.2A5.081,5.081,0,0,0,868.934,2396.39Zm0,8.98a3.786,3.786,0,1,1,3.68-3.78A3.583,3.583,0,0,1,868.934,2405.37Zm10.15,1.22v-7l7.27,7.62v-10.64h-1.532v6.94l-7.271-7.62v10.7h1.533Zm16.685-10.02h-5.528v10.02h5.528v-1.44h-4v-3.16h3.876v-1.44h-3.876v-2.54h4v-1.44Zm8.467,0v6.44a3.7,3.7,0,0,0,.931,2.6,3.862,3.862,0,0,0,5.558,0,3.7,3.7,0,0,0,.932-2.6v-6.44h-1.532v6.04a3.515,3.515,0,0,1-.316,1.73,2.2,2.2,0,0,1-3.725,0,3.515,3.515,0,0,1-.316-1.73v-6.04h-1.532Zm10.168,0,4.447,10.67,4.446-10.67h-1.652l-2.794,6.99-2.795-6.99H914.4Zm17.9,10.02,1.052-6.05,2.884,6.52,2.914-6.51,1.022,6.04h1.562l-1.893-10.77-3.515,7.78-3.485-7.78-2.1,10.77H932.3Zm17.75-10.2a5.2,5.2,0,1,0,5.213,5.2A5.082,5.082,0,0,0,950.052,2396.39Zm0,8.98a3.786,3.786,0,1,1,3.681-3.78A3.583,3.583,0,0,1,950.052,2405.37Zm8.618-8.8v6.44a3.7,3.7,0,0,0,.931,2.6,3.864,3.864,0,0,0,5.559,0,3.7,3.7,0,0,0,.931-2.6v-6.44h-1.532v6.04a3.515,3.515,0,0,1-.316,1.73,2.2,2.2,0,0,1-3.725,0,3.515,3.515,0,0,1-.316-1.73v-6.04H958.67Zm16.868,1.5a3.383,3.383,0,0,0-.766-1,2.957,2.957,0,0,0-2.013-.68,2.7,2.7,0,0,0-2.93,2.64,2.813,2.813,0,0,0,2.044,2.54l0.961,0.41a1.869,1.869,0,0,1,1.442,1.71,1.606,1.606,0,0,1-1.652,1.68,1.581,1.581,0,0,1-1.307-.6,2.139,2.139,0,0,1-.421-1.27l-1.517.33a3.235,3.235,0,0,0,.841,1.95,2.937,2.937,0,0,0,2.359,1.01,3.091,3.091,0,0,0,3.229-3.22c0-1.14-.51-2.19-2.358-2.94l-1.007-.41a1.331,1.331,0,0,1-1.081-1.22,1.243,1.243,0,0,1,1.412-1.2,1.626,1.626,0,0,1,1.082.36,1.662,1.662,0,0,1,.45.63Zm9.24,0a3.383,3.383,0,0,0-.766-1,2.957,2.957,0,0,0-2.013-.68,2.7,2.7,0,0,0-2.93,2.64,2.813,2.813,0,0,0,2.043,2.54l0.962,0.41a1.869,1.869,0,0,1,1.442,1.71,1.606,1.606,0,0,1-1.652,1.68,1.581,1.581,0,0,1-1.307-.6,2.139,2.139,0,0,1-.421-1.27l-1.517.33a3.235,3.235,0,0,0,.841,1.95,2.936,2.936,0,0,0,2.358,1.01,3.091,3.091,0,0,0,3.23-3.22c0-1.14-.51-2.19-2.358-2.94l-1.007-.41A1.331,1.331,0,0,1,980.6,2399a1.243,1.243,0,0,1,1.412-1.2,1.624,1.624,0,0,1,1.081.36,1.654,1.654,0,0,1,.451.63Zm9.21-1.5h-5.529v10.02h5.529v-1.44h-4v-3.16h3.876v-1.44h-3.876v-2.54h4v-1.44Z" transform="translate(-808.25 -2395.81)"/>
  <path id="オールインワンUV_ムース_" data-name="オールインワンUV ムース " class="cls-2" d="M822.063,2428.12a6.336,6.336,0,0,1,2.212.58,1.2,1.2,0,0,1,.782,1.26c0.069,1.16.1,3.13,0.1,4.59-3.641.41-8.575,1.06-10.957,1.06-1.089.03-1.837-.65-2.688-1.8l-0.544.23a5.554,5.554,0,0,0,.272,2.05c0.374,0.91,2.076,2.75,3.164,2.75,0.987,0,1.906-.58,3.471-0.92,1.5-.3,3.437-0.68,5.648-0.98-2.79,5.1-8.608,10.82-14.733,14.59l0.442,0.65a38.441,38.441,0,0,0,15.993-11.84c0.034,3.95.068,8.06-.034,9.29a0.617,0.617,0,0,1-.749.61c-1.055-.07-2.722-0.41-4.253-0.68l-0.2.58a16.41,16.41,0,0,1,3.674,2.21c0.919,0.82.953,2.11,2.076,2.11,1.191,0,2.552-1.77,2.552-3.61,0-1.19-.2-2.28-0.272-4.01-0.1-2.55-.17-7.42-0.136-10.35a65.087,65.087,0,0,1,8.1.04,1.082,1.082,0,0,0,1.157-1.12c0-1.03-2.28-2.32-3.675-2.32a24.649,24.649,0,0,1-5.546,1.19,27.5,27.5,0,0,1,.272-3.4c0.17-1.19.714-1.33,0.714-2.11,0-.68-2.109-2.04-3.913-2.04a7.085,7.085,0,0,0-2.926.82v0.57Zm19.064,10.38a5.349,5.349,0,0,0,.17,2.32c0.579,1.42,2.45,3.4,3.641,3.4,1.157,0,1.6-.65,3.845-0.89,2.586-.3,11.024-0.81,13.406-0.81,2.28,0,3.471.1,4.764,0.1s1.939-.44,1.939-1.26c0-1.23-1.7-2.11-3.4-2.11-0.851,0-2.144.27-4.424,0.44-1.871.14-12.827,0.85-16.2,0.85-1.667,0-2.246-.98-3.13-2.24Zm44.244-7.69c1.667,0.27,2.586.75,2.62,1.67,0.2,3.27.034,12.18-.1,13.95-0.136,1.33-.545,1.7-0.545,2.38,0,0.85,1.736,3,2.791,3,0.85,0,1.395-1.06,2.177-1.57,4.39-2.76,9.255-6.94,12.148-11.43l-0.613-.48a43.059,43.059,0,0,1-12.522,8.64c-0.408.17-.646,0.04-0.646-0.44-0.034-2.48.2-10.55,0.442-12.35,0.136-1.19.919-1.29,0.919-2.11,0-.99-2.552-2.52-4.185-2.52a5.287,5.287,0,0,0-2.518.65Zm-4.594,5.75c0,4.56-3.368,11.74-8.642,16.23l0.51,0.61a22.091,22.091,0,0,0,11.331-14.97c0.17-.85.885-1.32,0.885-2.14,0-1.23-2.791-2.72-4.22-2.79a6.317,6.317,0,0,0-2.347.44v0.65C879.314,2434.93,880.777,2435.47,880.777,2436.56Zm40.774-9.08c1.225,0.61,2.008,1.19,2.008,1.8a4.564,4.564,0,0,1-.919,1.94c-2.45,3.67-9.017,10.48-16.843,14.9l0.408,0.72a45.845,45.845,0,0,0,13.271-7.9,2.937,2.937,0,0,1,.34,1.4,77.164,77.164,0,0,1-.374,9.05c-0.137,1.12-.375,1.84-0.375,2.48,0,1.47.715,3.17,2.212,3.17,1.021,0,1.531-.72,1.531-2.08,0-1.87-.238-6.9-0.068-11.63,0.068-.92.34-1.47,0.34-2.01,0-.58-0.816-1.23-1.871-1.94,2.075-1.97,3.777-3.81,5-5.07,0.952-.99,1.667-0.95,1.667-1.84,0-1.05-1.8-2.79-3.437-3.3a7.115,7.115,0,0,0-2.688-.27Zm14.78,2.96a22.682,22.682,0,0,1,5.785,5.58c0.884,1.15,1.463,1.66,2.347,1.66a1.747,1.747,0,0,0,1.77-1.83c0-3.17-5.206-5.28-9.527-6.06Zm3.573,18.64c-1.191,0-2.348-1.19-3.233-2.14l-0.51.31a7.334,7.334,0,0,0,.715,2.72c0.714,1.22,2.926,3.06,4.627,3.06,0.885,0,1.293-.99,2.212-1.56,7.69-4.8,13.951-10.55,17.9-17.94l-0.681-.44C956.066,2439.93,943.1,2449.08,939.9,2449.08Zm26.041-19.63a7.909,7.909,0,0,1,2.415,3.78,25.573,25.573,0,0,1,.511,4.73c0.068,1.15-.1,2-0.1,2.82,0,1.06.714,3.1,2.041,3.1,1.259,0,1.429-.89,1.4-1.94-0.034-1.67-.408-6.6-0.578-8.64a3.118,3.118,0,0,0,1.735.71c0.851,0,2.858-.51,5.138-0.78s5.751-.61,7.214-0.61c0.408,0,.476.1,0.408,0.54-1.531,8.17-6.975,16.03-15.074,20.96l0.511,0.75c9.153-3.91,14.9-10.45,18-19.87,0.272-.79,1.565-1.33,1.565-2.08,0-.95-2.586-3.27-3.845-3.27-0.647,0-1.531.86-2.212,0.92-2.586.31-10.378,1.02-13.678,1.16a1.064,1.064,0,0,0-.238-0.31,12.271,12.271,0,0,0-4.8-2.45Zm31.723,0.99a22.579,22.579,0,0,1,5.782,5.58c0.89,1.15,1.47,1.66,2.35,1.66a1.75,1.75,0,0,0,1.77-1.83c0-3.17-5.21-5.28-9.528-6.06Zm3.572,18.64c-1.19,0-2.347-1.19-3.232-2.14l-0.51.31a7.352,7.352,0,0,0,.714,2.72c0.715,1.22,2.928,3.06,4.628,3.06,0.88,0,1.29-.99,2.21-1.56,7.69-4.8,13.95-10.55,17.9-17.94l-0.68-.44C1017.4,2439.93,1004.44,2449.08,1001.24,2449.08Zm48.67-20.72h-8.99v1.23l3.92,0.51,0.07,12.45c0.03,6.53-2.18,9.02-6.47,9.02-3.91,0-6.23-2.15-6.23-8.54v-3.1c0-3.37,0-6.67.07-9.93l3.64-.41v-1.23H1025.1v1.23l3.06,0.34c0.11,3.33.11,6.7,0.11,10v3.88c0,7.35,3.74,10.24,9.29,10.24,5.41,0,8.88-3.2,8.91-10.85l0.07-13.14,3.37-.47v-1.23Zm25.43,0h-8.51v1.33l3.54,0.41-5.95,18.71-6.47-18.78,3.64-.34v-1.33h-10.61v1.23l2.72,0.3,8.67,23.75h1.94l7.93-23.64,3.1-.48v-1.16Zm-250.825,51.42a21.779,21.779,0,0,1,4.321,5.85c-3.47.51-9.459,1.23-13.576,1.64,2.518-4.15,5.75-10.28,7.384-13.41,0.51-.95,1.531-1.39,1.531-2.11,0-.95-1.906-2.72-3.641-3.3a9.994,9.994,0,0,0-2.382-.34l-0.2.54c1.123,0.92,1.667,1.64,1.667,2.45,0,1.84-4.219,11.64-6.737,16.37-0.953.1-1.633,0.14-1.939,0.14a4.136,4.136,0,0,1-2.178-1.02l-0.442.2a5.516,5.516,0,0,0-.034,1.5c0.17,1.29,1.973,3.43,3.266,3.43,0.647,0,1.531-.98,2.246-1.15,2.756-.72,10.888-2.11,15.754-3.27,1.225,3.2,1.123,4.73,2.654,4.73a1.97,1.97,0,0,0,1.9-2.21c0-4.12-4.559-8.44-9.085-10.58Zm13.621-2.28a5.349,5.349,0,0,0,.17,2.32c0.578,1.42,2.45,3.4,3.641,3.4,1.157,0,1.6-.65,3.845-0.89,2.586-.3,11.024-0.81,13.406-0.81,2.28,0,3.471.1,4.764,0.1s1.939-.44,1.939-1.26c0-1.23-1.7-2.11-3.4-2.11-0.85,0-2.143.27-4.423,0.44-1.871.14-12.828,0.85-16.2,0.85-1.668,0-2.246-.98-3.131-2.24Zm35.636-7.96a7.208,7.208,0,0,0,.34,2.31c0.409,1.09,1.906,2.86,3.2,2.86,0.919,0,1.191-.75,2.28-1.09,1.769-.51,6.294-1.73,8.1-1.97,0.374-.03.578,0.07,0.408,0.54-2.926,6.81-11.16,15.21-19.191,19.36l0.443,0.72a38.906,38.906,0,0,0,15.754-10.28,23.123,23.123,0,0,1,6.669,6.81c1.429,1.87,2.144,2.92,3.3,2.92a1.693,1.693,0,0,0,1.7-1.76c0-3.41-5.274-6.88-10.821-8.89a60.037,60.037,0,0,0,5.377-7.35c0.408-.61,1.769-1.05,1.769-1.87,0-.95-2.722-3.23-3.981-3.23-0.613,0-1.123.85-1.906,1.06a71.053,71.053,0,0,1-10.173,1.59c-1.157,0-1.94-1.08-2.62-2Z" transform="translate(-808.25 -2395.81)"/>
</svg>
