<?xml version="1.0" encoding="utf-8"?>
<!-- Generator: Adobe Illustrator 26.0.3, SVG Export Plug-In . SVG Version: 6.00 Build 0)  -->
<svg version="1.1" id="name-ncm.svg" xmlns="http://www.w3.org/2000/svg" xmlns:xlink="http://www.w3.org/1999/xlink" x="0px"
	 y="0px" viewBox="0 0 302.4 98.5" style="enable-background:new 0 0 302.4 98.5;" xml:space="preserve">
<style type="text/css">
	.st0{opacity:0.7;fill-rule:evenodd;clip-rule:evenodd;fill:#0D74A0;enable-background:new    ;}
	.st1{fill:#2B7BA6;}
</style>
<path id="Non_chemical_UV_milk" class="st0" d="M4.3,10.8v-7l7.3,7.6V0.8H10v6.9L2.7,0.1v10.7H4.3L4.3,10.8z M20.2,0.6
	c-2.9,0-5.2,2.3-5.2,5.2s2.3,5.2,5.2,5.2s5.2-2.3,5.2-5.2c0.1-2.8-2.2-5.1-5-5.2C20.3,0.6,20.3,0.6,20.2,0.6L20.2,0.6z M20.2,9.6
	c-2.1,0.1-3.8-1.6-3.9-3.7S17.9,2,20,2s3.8,1.6,3.9,3.7v0.1c0.1,2-1.4,3.7-3.4,3.8C20.4,9.6,20.3,9.6,20.2,9.6z M30.3,10.8v-7
	l7.3,7.6V0.8h-1.5v6.9l-7.3-7.6v10.7H30.3L30.3,10.8z M53.9,1.3c-0.8-0.5-1.7-0.8-2.7-0.7c-1.3-0.1-2.6,0.4-3.6,1.3
	c-1.1,1-1.6,2.4-1.6,3.9c0,1.4,0.5,2.8,1.6,3.8c1,0.9,2.2,1.4,3.5,1.4c1,0,1.9-0.3,2.7-0.8V8.4c-0.7,0.7-1.7,1.1-2.7,1.1
	c-2.1-0.1-3.7-1.8-3.7-3.9c0.1-2,1.7-3.6,3.7-3.7c1,0,2,0.4,2.7,1.1L53.9,1.3L53.9,1.3z M58.8,0.8h-1.5v10h1.5V6.2h4.3v4.6h1.5v-10
	h-1.5v4h-4.3V0.8z M74,0.8h-5.5v10H74V9.3h-4V6.2h3.9V4.7H70V2.2h4V0.8L74,0.8z M78.8,10.8l1.1-6.1l2.9,6.5l2.9-6.5l1,6h1.6L86.3,0
	l-3.5,7.8L79.3,0l-2.1,10.8H78.8L78.8,10.8z M91.8,0.8v10h1.5v-10C93.3,0.8,91.8,0.8,91.8,0.8z M104.6,1.3c-0.8-0.5-1.7-0.8-2.7-0.7
	c-1.3-0.1-2.6,0.4-3.6,1.3c-1.1,1-1.6,2.4-1.6,3.9c0,1.4,0.5,2.8,1.6,3.8c1,0.9,2.2,1.4,3.5,1.4c1,0,1.9-0.3,2.7-0.8V8.4
	c-0.7,0.7-1.7,1.1-2.7,1.1c-2.1-0.1-3.7-1.8-3.7-3.9c0.1-2,1.7-3.6,3.7-3.7c1,0,2,0.4,2.7,1.1L104.6,1.3L104.6,1.3z M115,10.8h1.7
	L112,0.2l-5,10.6h1.7l1.1-2.4h4.3L115,10.8z M110.3,6.9l1.5-3.4l1.5,3.4H110.3z M119.4,0.8v10h4.5V9.3H121V0.8H119.4z M131.8,0.8
	v6.4c0,1,0.3,1.9,0.9,2.6c1.5,1.5,3.9,1.6,5.5,0.1l0.1-0.1c0.6-0.7,1-1.6,0.9-2.6V0.8h-1.5v6c0,0.6-0.1,1.2-0.3,1.7
	c-0.6,1-2,1.3-3,0.7c-0.3-0.2-0.5-0.4-0.7-0.7c-0.2-0.5-0.4-1.1-0.3-1.7v-6C133.4,0.8,131.8,0.8,131.8,0.8z M141.9,0.8l4.4,10.7
	l4.4-10.7h-1.6l-2.8,7l-2.8-7L141.9,0.8L141.9,0.8z M159.8,10.8l1.1-6.1l2.9,6.5l2.9-6.5l1,6h1.6L167.4,0l-3.5,7.8L160.4,0
	l-2.1,10.8H159.8L159.8,10.8z M172.9,0.8v10h1.5v-10C174.4,0.8,172.9,0.8,172.9,0.8z M178.3,0.8v10h4.5V9.3h-2.9V0.8H178.3
	L178.3,0.8z M187.2,0.8h-1.5v10h1.5V6.6l0.3-0.3l3.6,4.4h2l-4.6-5.5l4.5-4.5h-2l-3.9,4L187.2,0.8L187.2,0.8z"/>
<path class="st1" d="M9.9,44.1c4.5,2,6.1,3.7,6.1,7c0,3.9-3.1,6.5-8.3,6.5c-2.5,0-5.1-0.7-6.7-1.8l0.2-5h1.7L4,55.7
	c1,0.4,2,0.6,3.2,0.6c3.1,0,5-1.5,5-3.9c0-2.1-1-3.1-3.6-4.3l-1.3-0.6c-3.8-1.7-5.9-3.6-5.9-7.1c0-3.9,3.2-6.2,7.8-6.2
	c2.4,0,4.3,0.6,5.8,1.7l-0.2,4.8h-1.7L11.9,36c-0.7-0.3-1.3-0.4-2.3-0.4c-2.7,0-4.5,1.3-4.5,3.7c0,2.1,1.2,3.3,3.4,4.3L9.9,44.1z"/>
<path class="st1" d="M40,35.8l-3,0.4l-0.1,11.6c0,6.8-3,9.8-8.1,9.8c-5,0-8.5-2.5-8.5-9.2v-3.3c0-2.9,0-5.9-0.1-8.9l-2.7-0.3v-1
	h10.1v1l-3.1,0.2C24.4,39,24.4,42,24.4,45v2.8c0,5.5,2,7.6,5.5,7.6c3.6,0,5.7-2.2,5.6-7.8l-0.1-11.2l-3.3-0.6v-1h8v1H40z"/>
<path class="st1" d="M64.1,35.8l-2.8,0.4l-0.1,21h-2.1L45.9,38.5L46,55.6l3.8,0.4v1h-8.1v-1l2.8-0.3v-19L44,36.1l-2.3-0.3v-1H48
	l11.8,16.4l-0.1-14.8l-3.8-0.5v-1H64L64.1,35.8L64.1,35.8L64.1,35.8z"/>
<path class="st1" d="M84.4,55.9c-2,1-4,1.8-6.7,1.8c-6.6,0-11.6-4.3-11.6-11.7c0-7.6,5.3-11.7,11.7-11.7c2.4,0,4.4,0.5,6.3,1.7
	L84,41.1h-1.8l-1.3-5.2c-0.8-0.3-1.8-0.5-2.7-0.5c-4.5,0-7.8,3.4-7.8,10.5s3.3,10.5,7.8,10.5c1,0,2-0.2,2.9-0.6l1.3-5.1h1.8
	L84.4,55.9z"/>
<path class="st1" d="M108.9,35.8l-3,0.4l-0.2,11.6c0,6.8-3,9.8-8.1,9.8c-5,0-8.5-2.5-8.5-9.2v-3.3c0-2.9,0-5.9-0.1-8.9l-2.7-0.3v-1
	h10.1v1l-3.1,0.2C93.2,39,93.2,42,93.2,45v2.8c0,5.5,2,7.6,5.5,7.6c3.6,0,5.7-2.2,5.6-7.8l-0.1-11.2l-3.5-0.4v-1h8v0.8
	C108.7,35.8,108.9,35.8,108.9,35.8z"/>
<path class="st1" d="M122.1,36c-0.1,3-0.1,6.1-0.1,9.1v1.5c0,3,0,6,0.1,9.1l3.2,0.3v1h-10.8v-1l3.2-0.3c0-3,0-6,0-9.1v-1.5
	c0-3,0-6.1,0-9.1H113l-1.2,5h-1.7l0.2-6.2h19.1l0.2,6.2H128l-1.2-5H122.1z"/>
<path class="st1" d="M161.5,35.8l-3,0.4l-0.1,11.6c0,6.8-3,9.8-8.1,9.8c-5,0-8.5-2.5-8.5-9.2v-3.3c0-2.9,0-5.9-0.1-8.9l-2.7-0.3v-1
	h10.1v1l-3.1,0.2c-0.1,2.9-0.1,5.9-0.1,8.9v2.8c0,5.5,2,7.6,5.4,7.6c3.6,0,5.7-2.2,5.6-7.8l-0.1-11.2l-3.5-0.4v-1h8v0.8
	C161.3,35.8,161.5,35.8,161.5,35.8z"/>
<path class="st1" d="M184.2,35.7l-2.7,0.4l-7.1,21h-2.2l-7.6-21.2l-2.3-0.2v-1h10v1l-3.1,0.3l5.6,16.6l5.2-16.5l-3.1-0.4v-1h7.5v1
	C184.4,35.7,184.2,35.7,184.2,35.7z"/>
<path class="st1" d="M201.6,53.9c-0.1,0.2-1.3,0.8-2.3,0.8h-0.4v-2.5h-2.1v3.1c0,0.2-0.8,0.9-2.3,0.9H194V33.4l3.1,1.2h1.3l1.3-1.6
	l2.9,2.3c-0.2,0.2-0.6,0.5-1.2,0.6v17.8h0.2V53.9z M196.7,35.6V43h2.1v-7.4H196.7z M198.9,51.4v-7.6h-2.1v7.6H198.9z M215.1,43.6v2
	h1.6l1.3-1.3l2.8,2.1c-0.1,0.2-0.5,0.4-1,0.5v2.8c0,0.2-1.3,0.8-2.4,0.8h-0.5v-0.8h-11.2c-0.3,3.3-1.1,7.4-4.4,10.2l-0.3-0.3
	c1.9-3.9,2-8.8,2-12.8v-5.3l0.2,0.1V35l2.5,1h2.6l1.1-1.1l2.3,1.8c-0.1,0.2-0.4,0.3-0.8,0.4v3.3c0.6,0.1,1,0.2,1.5,0.4V35l2.5,1h2.4
	l1.1-1.1l2.4,1.8c-0.1,0.2-0.4,0.3-0.9,0.4v3.4c0,0.1-0.6,0.5-1.1,0.6c0.6,0.5,1.7,1.3,2.4,2c-0.1,0.3-0.3,0.5-0.8,0.5h-5.1l0,0
	C215.3,43.6,215.1,43.6,215.1,43.6z M202.4,34.5l-0.2-0.8h5.5l1.3-1.8c0,0,1.6,1.2,2.5,2.2c-0.1,0.3-0.3,0.5-0.7,0.5h-8.4
	L202.4,34.5L202.4,34.5z M203.2,41.6l3,1.1h4.7c-0.1-0.6-0.4-1.2-0.8-1.8c-0.4,0.2-0.9,0.3-1.5,0.3h-0.2v-4.6h-2.9v4.1
	c0,0.2-1,0.7-2,0.7h-0.3V41.6z M210.7,51.7c0,0,1.1,1,1.9,1.9c-0.1,0.3-0.3,0.5-0.7,0.5H209v2c1-0.2,2.2-0.3,3.3-0.6l0.1,0.4
	c-0.8,0.6-2.7,1.8-4.8,2.9c-0.2,0.4-0.5,0.6-0.8,0.8l-1.7-3c0.8-0.5,1-0.7,1-1.2v-5.3l3.6,0.3c-0.1,0.3-0.3,0.6-0.8,0.6v2.1h0.7
	L210.7,51.7z M205.8,37.5c4,0.8,2.3,3.9,0.7,2.6c0-0.8-0.5-1.9-1.1-2.4L205.8,37.5z M205.8,46.7c0,0.6,0,1.2,0,2h2v-2.4h-1.9v0.4
	H205.8z M205.8,45.6h1.9v-2h-1.9V45.6z M212.4,43.6h-2v2h2V43.6z M210.4,48.8h2v-2.4h-2V48.8z M212,34.5l-0.2-0.8h5l1.5-1.9
	c0,0,1.7,1.2,2.7,2.3c-0.1,0.3-0.4,0.5-0.8,0.5L212,34.5L212,34.5z M219.8,56.2c0.7,0.3,0.8,0.6,0.8,1.1c0,1.1-1,1.6-3.9,1.6H215
	c-2.2,0-2.4-0.6-2.4-2.3v-6.5l3.6,0.3c-0.1,0.4-0.3,0.6-0.8,0.7v2.1h1l1.2-1.8c0,0,1.5,1.2,2.2,2.2c-0.1,0.3-0.3,0.5-0.8,0.5h-3.6v2
	c0,0.3,0.1,0.4,0.5,0.4h1h1c0.2,0,0.4-0.1,0.5-0.2c0.2-0.3,0.5-1,0.8-2h0.3L219.8,56.2z M214.6,36.8v0.8h0.1c4,0.8,2.3,3.8,0.7,2.6
	c0-0.6-0.3-1.6-0.8-2.1v2.5c0,0.2-0.8,0.6-1.8,0.7c0.3,0.5,0.2,1-0.1,1.5h3.8l1.1-1.5h-0.4v-4.5H214.6L214.6,36.8L214.6,36.8z
	 M215.1,46.4v2.4h1.8v-2.4H215.1z"/>
<path class="st1" d="M247.5,31.3c0,0,2.4,1.8,3.8,3.1c-0.1,0.3-0.4,0.5-0.8,0.5h-3.7v20.3c0,2.4-0.7,4.1-5.4,4.5
	c-0.1-1.1-0.3-2.1-1-2.6s-1.7-0.9-3.8-1.2v-0.4c0,0,4.9,0.3,5.8,0.3c0.6,0,0.8-0.2,0.8-0.7V35h-20l-0.2-0.8h22.4L247.5,31.3z
	 M238.4,51.5c0,0.2-1.8,0.8-2.9,0.8h-0.6v-2.5h-5.2v2.6c0,0.3-1.5,1-2.9,1h-0.5V38.5l3.5,1.5h4.8l1.6-1.8l3.3,2.5
	c-0.2,0.2-0.6,0.5-1.2,0.6L238.4,51.5L238.4,51.5z M235,49v-8.1h-5.2V49H235z"/>
<path class="st1" d="M258.5,41.5c-1.5,1.6-3.2,3-5.2,4.1l-0.3-0.4c2.2-2.2,3.7-5.2,4.7-8.2h-4l-0.2-0.8h5.2v-4.8l4.4,0.4
	c-0.1,0.4-0.3,0.7-1.1,0.8v3.5h0.6l1.6-2.2c0,0,1.9,1.6,3,2.6c-0.1,0.3-0.4,0.5-0.8,0.5h-4.5v1.3c7.2,1.1,4.5,6.1,1.9,4.1
	c-0.1-1.2-1-2.7-1.9-3.6v7.3c0,0.3-1.5,0.8-2.6,0.8h-0.6v-5.4C258.7,41.5,258.5,41.5,258.5,41.5z M278.2,36c0,0,2,1.6,3.1,2.6
	c-0.1,0.3-0.3,0.5-0.8,0.5h-3.7v6.8c0,0.1-1,0.7-2.7,0.7h-0.6v-7.5h-3c-0.1,2.2-0.8,4.8-3.9,6.7l4.3,0.6c-0.1,0.5-0.5,0.7-1.2,0.8
	c-0.6,0.4-1.7,1-2.4,1.6h5.8l1.7-1.8l3.4,2.6c-0.2,0.2-0.6,0.5-1.1,0.6v8.5c0,0.2-1.8,0.8-2.9,0.8h-0.6v-1.7h-11.7v0.8
	c0,0.3-1.6,1-3,1h-0.5V47.4l3.7,1.5h3.5c0.1-0.7,0.2-1.7,0.3-2.5c-0.5,0.3-1,0.5-1.7,0.7l-0.2-0.3c3.1-2.5,3.5-5.7,3.5-8.5v-4.7
	l3.5,1c2.3-0.9,4.7-2.1,6-2.9l3.2,3.1c-0.3,0.3-1,0.3-1.9,0c-2,0.3-5,0.7-7.7,0.8v2.8h6L278.2,36z M261.5,49.6v3.2h11.7v-3.2H261.5z
	 M273.2,57v-3.3h-11.7V57H273.2z"/>
<g>
	<path class="st1" d="M7.5,80.4c5.5,2.8,2.9,7,0.9,5C8.4,84,8,82.5,7.5,81.2v15.6C7.5,97.2,6.1,98,5,98H4.4V86.2
		c-0.9,1.7-2,3.2-3.3,4.7l-0.4-0.4c1.7-3.4,2.8-8,3.3-12.4H1.1l-0.2-0.9h3.5v-7.5l4.2,0.4c-0.1,0.4-0.3,0.7-1.1,0.8v6.1l1.4-2.1
		c0,0,1.6,1.5,2.5,2.5c-0.1,0.3-0.3,0.5-0.8,0.5H7.5V80.4z M25.9,93.7c0,0,2.1,1.6,3.4,2.6c-0.1,0.3-0.4,0.5-0.9,0.5H9.3L9,96h15.1
		L25.9,93.7z M10.6,73.2l-0.2-0.8h13.5l1.7-2.3c0,0,1.9,1.6,3.1,2.6c-0.1,0.3-0.4,0.5-0.8,0.5h-9.7c-0.4,1.2-1.1,2.8-1.6,4h1.5
		l1.6-1.7l2.9,2.5c-0.2,0.2-0.6,0.4-1.2,0.5c-0.2,10.6-0.5,14.2-1.9,15.6c-0.9,0.9-2,1.3-3.4,1.3c0-1-0.1-1.7-0.4-2.1
		c-0.4-0.5-1.1-0.8-2-1l0-0.5c0.8,0.1,2,0.2,2.6,0.2c0.4,0,0.7-0.1,0.9-0.3c0.8-0.8,1.1-4.7,1.2-13.6h-2l-1.3,1.4l-3-2
		c0.3-0.2,0.8-0.5,1.3-0.7c0.5-1.1,1.1-2.5,1.4-3.5H10.6z M14.4,90.2V89H13v1.5c0,0.2-1,0.7-1.9,0.7h-0.3V79.8l2.3,1h1l1.1-1.1
		l2.3,1.7c-0.1,0.2-0.5,0.3-0.8,0.4v7.6c0,0.2-1.2,0.7-1.9,0.7H14.4z M14.4,88.2v-6.5H13v6.5H14.4z M28.9,79.5
		c-0.2,0.3-0.4,0.4-1.1,0.5c-0.2,1.9-0.7,3.8-1.4,5.7c3.7,4.4,1.8,8.1-0.6,6.2c-0.2-1-0.5-2-0.9-3.1c-1,1.7-2.3,3.2-4.1,4.5
		l-0.3-0.4c1.6-1.9,2.6-4.2,3.2-6.7c-0.8-1.5-1.7-3-2.5-4.2l0.4-0.2c1,0.6,1.9,1.2,2.7,1.8c0.2-1.3,0.4-2.7,0.5-4h-3l-0.5-0.9h3.2
		l1.5-1.6L28.9,79.5z"/>
	<path class="st1" d="M37.3,81.8c0,5.2-0.3,11.9-6.1,16.3l-0.3-0.2c2.8-4.7,2.9-10.6,2.9-16v-9.2l4.1,1.4h7.8
		c-0.1-0.1-0.2-0.1-0.4-0.2c-0.4-1.4-1.5-3.1-2.5-4l0.2-0.2c6.2-0.1,6.2,3.4,4.4,4.3h6.4l1.9-2.5c0,0,2.1,1.7,3.3,2.9
		c-0.1,0.3-0.4,0.5-0.8,0.5h-21V81.8z M55.7,88.1c-0.2,0.3-0.5,0.4-1.3,0.5c-1.2,1.8-2.6,3.3-4.4,4.5c2.8,0.8,6,1.1,9.3,1.3v0.4
		c-1.5,0.5-2.4,1.6-2.7,3.4c-3.8-0.6-7-1.6-9.6-3.2c-3.4,1.7-7.7,2.8-12.6,3.2l-0.1-0.4c4.2-0.9,7.9-2.3,10.9-4.2
		c-1.6-1.4-3-3.2-4-5.6H39L38.8,87h11.8l2.1-1.8L55.7,88.1z M49.2,85.5v-1h-4.7v0.8c0,0.2-1.5,0.8-2.8,0.8h-0.6v-6.2h-3.3l-0.2-0.8
		h3.5v-3.3l4.3,0.4c-0.1,0.4-0.3,0.7-1,0.8v2.1h4.7v-3.3l4.4,0.4c-0.1,0.4-0.3,0.7-1,0.8v2.1h1.4l1.6-2.4c0,0,1.8,1.7,2.8,2.8
		c-0.1,0.3-0.4,0.5-0.8,0.5h-4.9v4.9c0,0.2-1.5,0.8-2.8,0.8H49.2z M41.8,87.8C43,89.7,44.8,91,47,92c1.5-1.2,2.7-2.6,3.5-4.1H41.8z
		 M49.2,83.6v-3.8h-4.7v3.8H49.2z"/>
	<path class="st1" d="M73.2,73.4c-0.2,0.3-0.6,0.4-1.4,0.4c-1,1.8-2.9,5-4.4,6.9c3.4,2.1,4.8,5,4.8,7.4c0,3-1.2,4.7-4.6,4.7
		c0-0.9-0.1-2.2-0.4-2.6c-0.2-0.3-0.7-0.6-1.4-0.8v-0.4h2c0.3,0,0.5,0,0.7-0.2c0.4-0.2,0.7-0.8,0.7-1.7c0-2.1-0.7-4.4-2.4-6.4
		c0.5-1.9,1.3-5.5,1.7-7.9h-3V97c0,0.2-1,1-2.7,1h-0.6V70.6l3.7,1.4h2.3l1.8-1.7L73.2,73.4z M86.1,73.3c0,0,2.1,1.7,3.3,2.9
		c-0.1,0.3-0.4,0.5-0.8,0.5h-9.2c-0.1,1.5-0.2,3-0.3,4.5h4.3l1.9-1.8l3.2,2.7c-0.2,0.3-0.6,0.4-1.3,0.6c-0.3,8.5-1,12.6-2.7,14
		c-1,0.9-2.3,1.3-4.1,1.3c0-1-0.1-1.9-0.5-2.3c-0.5-0.5-1.6-1-2.8-1.3v-0.4c1.2,0.1,3.2,0.2,3.8,0.2c0.5,0,0.8-0.1,1.1-0.3
		c1-0.8,1.5-4.9,1.8-11.8H79c-0.9,6.8-3.3,12.5-10.5,16l-0.2-0.3c6.2-5.5,7.3-12.8,7.3-21h-4.5l-0.2-0.9h8.3
		c-0.4-0.1-0.8-0.3-1.3-0.7c0.1-1.7-0.7-3.7-1.7-5l0.2-0.1c6.5,1.3,5.7,5.4,3.5,5.8h4.2L86.1,73.3z"/>
	<path class="st1" d="M94.3,79.7c-1,0.7-2,1.3-3,1.8L91,81.2c2-2,4-5,5-7.2c-1.4,0.8-2.9,1.6-4.4,2.2l-0.3-0.4c1.9-1.6,4-4.3,5-6
		l3.4,2.2c-0.2,0.3-0.5,0.4-1.1,0.3c-0.6,0.5-1.3,1-2.2,1.6l3.4,1.9c-0.2,0.3-0.5,0.5-1.1,0.3c-0.5,0.6-1.1,1.2-1.8,1.8l1.5,0.5
		c-0.1,0.3-0.4,0.5-0.9,0.5v6.7c-0.1,0.2-1.3,0.6-2.4,0.6h-0.5V79.7z M91.6,97c2.6-1.5,5.3-4,6.6-5.9l3.7,2.3
		c-0.2,0.3-0.5,0.4-1.1,0.3c-2.1,1.5-5.5,2.9-8.9,3.6L91.6,97z M115.3,87.6c0,0,2.1,1.5,3.3,2.6c-0.1,0.3-0.4,0.5-0.8,0.5h-11v6.6
		c0,0.1-1.1,0.7-2.8,0.7h-0.6v-7.2H92l-0.2-0.9h21.7L115.3,87.6z M118.9,72.8c-0.2,0.2-0.7,0.5-1.3,0.6v7c0,1.8-0.4,2.8-3.1,3.1
		c-0.1-0.8-0.1-1.4-0.4-1.7c-0.2-0.4-0.6-0.7-1.4-0.8v-0.5c0,0,1.2,0.1,1.6,0.1c0.4,0,0.5-0.2,0.5-0.5v-7.3h-2.2v12l0.2-0.2
		c0,0,1.9,1.4,3.2,2.5c-0.1,0.3-0.4,0.5-0.8,0.5h-20L95,86.8h16.2l1.1-1.4c-0.4,0.2-1,0.5-1.9,0.5H110v-15l3.1,1.2h1.5l1.3-1.5
		L118.9,72.8z M107.7,74.4c0,0,1.5,1.3,2.3,2.2c-0.1,0.3-0.4,0.5-0.8,0.5h-3.5v2.2h0.8l1.1-1.6c0,0,1.2,1.1,2,1.9
		c-0.1,0.3-0.4,0.5-0.8,0.5h-3.2v2.3c1.3-0.2,2.6-0.4,4-0.6l0.1,0.5c-2,0.7-5.4,1.9-9.2,3c-0.2,0.2-0.4,0.4-0.6,0.4l-1.2-2.5
		c0.5-0.3,0.6-0.5,0.6-0.9V78l3.1,0.3c0,0.3-0.3,0.6-0.8,0.7v3.9l1.3-0.2V77h-4l-0.2-0.8h4.2v-2.5h-1.4c-0.7,0.8-1.4,1.4-2.2,1.9
		L99,75.3c0.7-1.4,1.3-3.5,1.6-5.5l3.6,1.1c-0.1,0.4-0.5,0.6-1.1,0.6c-0.3,0.5-0.6,0.9-0.9,1.3h3.2l1.4-1.9c0,0,1.5,1.3,2.5,2.2
		c-0.1,0.3-0.4,0.5-0.8,0.5h-2.8v2.5h0.6L107.7,74.4z M108.4,91.7c10.5-0.1,10.1,6.4,6.6,5.5c-1.5-1.8-4.6-4-6.8-5.2L108.4,91.7z"/>
	<path class="st1" d="M121,76.8c7.6,1.1,4.8,6.7,1.9,4.5c-0.2-1.5-1.2-3.3-2.2-4.3L121,76.8z M129.8,75.1
		c-1.2,3.7-3.3,10.5-3.7,12.1c-0.3,1-0.4,2.1-0.4,2.8c0.1,1.6,1.2,2.8,1.1,5.5c-0.1,1.5-1,2.5-2.4,2.5c-0.6,0-1.3-0.5-1.5-1.6
		c0.5-3.2,0.4-6-0.3-6.5c-0.5-0.3-0.9-0.4-1.6-0.5v-0.6h1.4c0.4,0,0.5,0,0.9-0.6c0.6-1.1,0.6-1.1,6.1-13.3L129.8,75.1z M123.1,70.1
		c7.9,1.2,5.2,6.9,2.2,4.8c-0.3-1.6-1.5-3.5-2.4-4.6L123.1,70.1z M147.5,94.2c0,0,1.4,1.6,2.2,2.6c-0.1,0.3-0.3,0.5-0.8,0.5h-21.8
		l-0.2-0.9h2.8V84.5l3.4,1.3h9.9l1.4-1.8l3.5,2.4c-0.2,0.3-0.6,0.5-1.4,0.6v8.9L147.5,94.2z M133.9,83.6c0,0.2-1,0.8-2.7,0.8h-0.6
		V70.6l3.5,1.4h8.1l1.6-1.9l3.1,2.4c-0.2,0.3-0.5,0.5-1.1,0.6v10.1c0,0.1-1.1,0.8-2.8,0.8h-0.6v-1.6h-8.5V83.6z M132.8,96.4h1.7
		v-9.7h-1.7V96.4z M133.9,72.9v8.6h8.5v-8.6H133.9z M140.5,74.2c-0.1,0.3-0.3,0.5-1,0.5c-0.2,0.7-0.6,1.4-0.9,2
		c5,1.1,3.5,4.7,1.4,3.5c-0.3-0.9-1.1-2-1.8-2.8c-0.9,1.3-2.2,2.5-3.9,3.2l-0.2-0.5c1.9-1.7,2.8-4.5,3-7L140.5,74.2z M138.9,86.7
		h-1.7v9.7h1.7V86.7z M141.5,86.7v9.7h1.8v-9.7H141.5z"/>
	<path class="st1" d="M162.6,77.3c0,0,2,1.7,3.1,2.8c-0.1,0.3-0.4,0.5-0.8,0.5h-4.9v2.1c7.6,2.2,4.7,7.5,2,5.3
		c-0.2-1.5-1.1-3.2-2-4.6V97c0,0.2-1.1,1-2.8,1h-0.6V86.9c-1.5,2.4-3.4,4.5-5.6,6.3l-0.4-0.4c2.5-3.3,4.2-7.9,5.1-12.2h-4.4
		l-0.2-0.8h5.5v-5.3c-1.8,0.2-3.7,0.4-5.5,0.5l-0.1-0.4c3.7-1.1,8.3-3.2,10.6-4.7l3.7,3.4c-0.4,0.3-1,0.3-2,0
		c-1,0.2-2.2,0.5-3.4,0.7v5.8h0.8L162.6,77.3z M178.5,75.6c-0.2,0.3-0.6,0.5-1.2,0.7v18.4c-0.1,0.2-1.7,1-3,1h-0.6v-3.2h-4.3v2.4
		c0,0.4-1.4,1.2-2.9,1.2h-0.6V73.3l3.6,1.5h3.8l1.7-1.9L178.5,75.6z M173.7,91.5V75.6h-4.3v15.9H173.7z"/>
	<path class="st1" d="M193.2,73.4c-0.2,0.3-0.6,0.4-1.3,0.4c-1.1,1.8-2.9,5-4.4,6.9c3.4,2.1,4.8,5,4.8,7.4c0,3-1.2,4.7-4.6,4.7
		c0-0.9-0.2-2.2-0.4-2.6c-0.2-0.3-0.7-0.6-1.4-0.8v-0.4h2c0.3,0,0.5,0,0.7-0.2c0.4-0.2,0.7-0.8,0.7-1.7c0-2.1-0.7-4.4-2.4-6.4
		c0.5-1.9,1.3-5.5,1.7-7.9h-3V97c0,0.2-1,1-2.7,1h-0.6V70.6l3.7,1.4h2.3l1.8-1.7L193.2,73.4z M206.1,73.3c0,0,2.1,1.7,3.3,2.9
		c-0.1,0.3-0.4,0.5-0.8,0.5h-9.2c-0.1,1.5-0.1,3-0.3,4.5h4.3l1.9-1.8l3.2,2.7c-0.2,0.3-0.6,0.4-1.3,0.6c-0.3,8.5-1,12.6-2.7,14
		c-1,0.9-2.3,1.3-4.1,1.3c0-1-0.1-1.9-0.5-2.3c-0.5-0.5-1.6-1-2.8-1.3v-0.4c1.2,0.1,3.2,0.2,3.8,0.2c0.5,0,0.8-0.1,1.1-0.3
		c1-0.8,1.5-4.9,1.8-11.8H199c-0.9,6.8-3.3,12.5-10.5,16l-0.2-0.3c6.2-5.5,7.3-12.8,7.3-21h-4.5l-0.2-0.9h8.3
		c-0.4-0.1-0.8-0.3-1.3-0.7c0.1-1.7-0.7-3.7-1.7-5l0.2-0.1c6.5,1.3,5.7,5.4,3.5,5.8h4.2L206.1,73.3z"/>
	<path class="st1" d="M219.6,92.2c-0.1,0.2-1.3,0.9-2.3,0.9h-0.4v-2.5h-2.1v3.1c0,0.2-0.9,0.9-2.2,0.9H212V71.8l3.1,1.3h1.4l1.4-1.6
		l2.9,2.3c-0.2,0.2-0.7,0.5-1.3,0.6V92.2z M214.8,73.9v7.3h2.1v-7.3H214.8z M216.9,89.7v-7.6h-2.1v7.6H216.9z M233,81.9v2h1.5
		l1.3-1.4l2.8,2.1c-0.2,0.2-0.5,0.4-1,0.5v2.8c0,0.2-1.4,0.8-2.3,0.8h-0.5v-0.8h-11.1c-0.3,3.3-1.2,7.3-4.4,10.2l-0.3-0.3
		c1.9-4,1.9-8.8,1.9-12.8l0-5.2l0.2,0.1v-6.6l2.5,1h2.5l1.1-1.1l2.3,1.8c-0.1,0.2-0.4,0.4-0.8,0.5v3.3c0.6,0.1,1.1,0.2,1.4,0.4v-5.8
		l2.5,1h2.4l1.2-1.2l2.4,1.8c-0.1,0.2-0.5,0.4-0.9,0.5v3.4c0,0.2-0.6,0.5-1.1,0.7c0.6,0.5,1.7,1.3,2.4,2c-0.1,0.3-0.4,0.5-0.8,0.5
		H233z M220.5,72.9l-0.2-0.8h5.5l1.4-1.8c0,0,1.6,1.3,2.5,2.2c-0.1,0.3-0.4,0.5-0.7,0.5H220.5z M221.3,79.9l3,1.1h4.7
		c-0.1-0.6-0.4-1.2-0.8-1.7c-0.4,0.2-1,0.4-1.4,0.4h-0.4v-4.5h-2.9v4c0,0.2-1,0.7-2,0.7H221.3z M228.7,90c0,0,1.2,1.1,1.9,1.9
		c-0.1,0.3-0.4,0.5-0.8,0.5H227v2c1-0.2,2.2-0.4,3.3-0.6l0.1,0.4c-0.9,0.6-2.7,1.8-4.7,2.9c-0.2,0.4-0.5,0.7-0.8,0.8l-1.6-3
		c0.8-0.5,1-0.7,1-1.2v-5.3l3.6,0.4c-0.1,0.3-0.3,0.6-0.8,0.7v2.1h0.7L228.7,90z M223.9,75.9c4,0.9,2.3,3.9,0.8,2.6
		c0-0.8-0.5-1.8-1.1-2.4L223.9,75.9z M223.8,85.1c0,0.6,0,1.3,0,2h1.9v-2.3h-1.9V85.1z M223.8,83.9h1.9v-2h-1.9V83.9z M230.3,81.9
		h-1.9v2h1.9V81.9z M228.4,87.1h1.9v-2.3h-1.9V87.1z M230,72.9l-0.2-0.8h5l1.4-1.9c0,0,1.7,1.3,2.7,2.2c-0.1,0.3-0.4,0.5-0.8,0.5
		H230z M237.8,94.5c0.7,0.3,0.9,0.6,0.9,1.1c0,1.1-1,1.6-4,1.6h-1.7c-2.1,0-2.4-0.6-2.4-2.3v-6.5l3.7,0.3c-0.1,0.4-0.3,0.6-0.9,0.7
		v2h1l1.2-1.8c0,0,1.4,1.3,2.2,2.1c-0.1,0.3-0.4,0.5-0.8,0.5h-3.7v2c0,0.3,0.1,0.4,0.5,0.4h1h1c0.2,0,0.4-0.1,0.5-0.2
		c0.2-0.3,0.5-1.1,0.8-2h0.3L237.8,94.5z M232.6,75.2l0,0.8l0.1,0c4,0.9,2.3,3.9,0.8,2.6c0-0.7-0.4-1.5-0.8-2.1V79
		c0,0.2-0.9,0.6-1.7,0.7c0.3,0.5,0.2,1-0.1,1.4h3.8l1.2-1.5h-0.4v-4.4H232.6z M233,84.7v2.3h1.8v-2.3H233z"/>
	<path class="st1" d="M256.7,73.1c-0.4,0.3-1,0.3-1.9,0c-3.5,0.7-9.1,1.2-13.8,1.1l-0.1-0.4c4.3-0.8,9.6-2.6,12.3-4L256.7,73.1z
		 M257.3,81.8c-0.2,0.2-0.6,0.3-1.2,0.4c-1.3,0.8-2.9,1.6-4.5,2.4l0.2,0c-0.1,0.5-0.4,0.7-1,0.8v1.3c2-0.3,4-0.5,6.1-0.8l0.1,0.5
		c-1.6,0.6-3.6,1.4-6.2,2.2v5.7c0,2.3-0.5,3.6-4.4,3.9c-0.1-1-0.2-1.7-0.7-2.2c-0.5-0.5-1-0.8-2.5-1.1v-0.4c0,0,2.9,0.2,3.5,0.2
		c0.4,0,0.6-0.1,0.6-0.5v-4.4c-1.3,0.4-2.6,0.8-4.1,1.3c-0.2,0.4-0.5,0.6-0.9,0.7l-1.6-3.8c1.4-0.1,3.7-0.4,6.5-0.8v-2.9l2.6,0.2
		c0.8-0.8,1.7-1.8,2.3-2.7H242l-0.3-0.8h8.2l-0.1,0c1-1.6,2.2-4.3,3.1-6.7l4.1,1.9c-0.2,0.4-0.6,0.6-1.2,0.5
		c-1.6,1.7-3.5,3.3-5.2,4.4h2.1l1.7-1.7L257.3,81.8z M241.9,75.2c6.3,1.8,3.5,6.5,1.2,4.4c-0.1-1.5-0.8-3.2-1.5-4.3L241.9,75.2z
		 M246.2,74.5c6.2,2.1,3.2,6.7,1,4.5c0-1.5-0.6-3.2-1.3-4.4L246.2,74.5z M268,93.5c0.9,0.5,1.2,0.9,1.2,1.6c0,1.6-1.3,2.3-5.4,2.3
		h-2.2c-2.8,0-3.5-0.8-3.5-3.3V70.6l4.8,0.5c-0.1,0.4-0.3,0.7-1.1,0.9v20.9c0,0.6,0.2,0.8,0.9,0.8h1.5h1.3c0.3,0,0.5-0.1,0.7-0.5
		c0.3-0.6,0.9-2.8,1.4-4.9h0.3L268,93.5z"/>
</g>
</svg>
