<svg id="name-we_sp.svg" xmlns="http://www.w3.org/2000/svg" width="297.219" height="106.34" viewBox="0 0 297.219 106.34">
  <defs>
    <style>
      .cls-1 {
        fill: #8598a2;
        opacity: 0.8;
      }

      .cls-1, .cls-2 {
        fill-rule: evenodd;
      }

      .cls-2 {
        fill: #5b6c73;
      }

      .cls-3 {
        fill: none;
        stroke: #9eadb4;
        stroke-width: 2px;
      }
    </style>
  </defs>
  <path id="Whitening_UV_essence" data-name="Whitening UV essence" class="cls-1" d="M274.618,7611.55l5.685,14.21,3.524-9.47,3.483,9.47,5.966-14.21h-2.2l-3.644,8.93-3.483-9.57-3.6,9.57-3.523-8.93h-2.2Zm24.363,0h-2.042v13.35h2.042v-6.15h5.725v6.15h2.042v-13.35h-2.042v5.28h-5.725v-5.28Zm12.958,0v13.35h2.042v-13.35h-2.042Zm14.006,1.92v-1.92h-8.168v1.92h3.063v11.43h2.042v-11.43h3.063Zm11.161-1.92h-7.368v13.35h7.368v-1.92H331.78v-4.21h5.165v-1.92H331.78v-3.38h5.326v-1.92Zm6.674,13.35v-9.33l9.69,10.15v-14.17h-2.042v9.25l-9.69-10.15v14.25h2.042Zm14.878-13.35v13.35H360.7v-13.35h-2.042Zm9.282,13.35v-9.33l9.689,10.15v-14.17h-2.042v9.25l-9.689-10.15v14.25h2.042Zm21.784-5.06h3.324a3.58,3.58,0,0,1-1.122,2.26,4.012,4.012,0,0,1-2.983,1.18,4.339,4.339,0,0,1-3.343-1.34,5.547,5.547,0,0,1,.04-7.37,4.822,4.822,0,0,1,3.524-1.38,4.5,4.5,0,0,1,2.362.58,5.444,5.444,0,0,1,1.642,1.52l1.621-1.14a6.064,6.064,0,0,0-2.162-2,7.228,7.228,0,0,0-3.483-.84,7.107,7.107,0,0,0-4.985,12.03,5.82,5.82,0,0,0,4.544,1.82,6.248,6.248,0,0,0,4.545-1.7,7.288,7.288,0,0,0,1.982-5.41v-0.1h-5.506v1.89Zm16.713-8.29v8.59a4.934,4.934,0,0,0,1.241,3.46,5.176,5.176,0,0,0,7.407,0,4.934,4.934,0,0,0,1.241-3.46v-8.59h-2.042v8.05a4.662,4.662,0,0,1-.42,2.3,2.923,2.923,0,0,1-4.965,0,4.662,4.662,0,0,1-.42-2.3v-8.05h-2.042Zm13.558,0,5.926,14.21,5.926-14.21h-2.2l-3.724,9.31-3.724-9.31H420Zm29.548,0h-7.367v13.35h7.367v-1.92h-5.325v-4.21h5.165v-1.92h-5.165v-3.38h5.325v-1.92Zm12.04,2a4.529,4.529,0,0,0-1.021-1.34,3.938,3.938,0,0,0-2.682-.9,3.6,3.6,0,0,0-3.9,3.52,3.763,3.763,0,0,0,2.722,3.38l1.282,0.54a2.5,2.5,0,0,1,1.922,2.29,2.144,2.144,0,0,1-2.2,2.24,2.107,2.107,0,0,1-1.741-.8,2.875,2.875,0,0,1-.561-1.7l-2.022.44a4.314,4.314,0,0,0,1.121,2.6,3.909,3.909,0,0,0,3.143,1.34,4.113,4.113,0,0,0,4.305-4.28c0-1.53-.681-2.93-3.144-3.93l-1.341-.54c-1.3-.52-1.441-1.22-1.441-1.62a1.654,1.654,0,0,1,1.882-1.6,2.069,2.069,0,0,1,2.042,1.32Zm12.32,0a4.546,4.546,0,0,0-1.021-1.34,3.939,3.939,0,0,0-2.683-.9,3.6,3.6,0,0,0-3.9,3.52,3.764,3.764,0,0,0,2.723,3.38l1.281,0.54a2.5,2.5,0,0,1,1.922,2.29,2.144,2.144,0,0,1-2.2,2.24,2.109,2.109,0,0,1-1.742-.8,2.881,2.881,0,0,1-.56-1.7l-2.022.44a4.314,4.314,0,0,0,1.121,2.6,3.909,3.909,0,0,0,3.143,1.34,4.113,4.113,0,0,0,4.3-4.28c0-1.53-.68-2.93-3.143-3.93l-1.341-.54c-1.3-.52-1.442-1.22-1.442-1.62a1.655,1.655,0,0,1,1.882-1.6,2.066,2.066,0,0,1,2.042,1.32Zm12.28-2h-7.368v13.35h7.368v-1.92h-5.326v-4.21h5.166v-1.92h-5.166v-3.38h5.326v-1.92Zm6.674,13.35v-9.33l9.69,10.15v-14.17h-2.042v9.25l-9.69-10.15v14.25h2.042Zm24.768-12.63a6.35,6.35,0,0,0-3.564-.96,6.616,6.616,0,0,0-4.824,1.74,6.974,6.974,0,0,0-2.143,5.22,6.543,6.543,0,0,0,2.143,5.05,6.69,6.69,0,0,0,4.724,1.84,7.292,7.292,0,0,0,3.664-1v-2.42a5.3,5.3,0,0,1-3.6,1.54,4.822,4.822,0,0,1-4.885-5.01,4.767,4.767,0,0,1,4.865-5.08,5.21,5.21,0,0,1,3.624,1.48v-2.4Zm11.877-.72h-7.367v13.35H529.5v-1.92h-5.325v-4.21h5.165v-1.92h-5.165v-3.38H529.5v-1.92Z" transform="translate(-274.625 -7610.66)"/>
  <path id="ホワイトニングUV_エッセンス" data-name="ホワイトニングUV  エッセンス" class="cls-2" d="M283.4,7657.4a11.648,11.648,0,0,1-4.139,5.69c-1.595,1.29-2.468,1.56-2.468,2.92a1.7,1.7,0,0,0,1.784,1.79c3.19,0,5.582-5.89,5.7-10.25Zm3.645-13.79c1.747,0.34,2.658.61,2.924,1.63a43.972,43.972,0,0,1,.3,5.4c-3.037.34-8.847,1.02-10.594,1.02-0.987,0-1.67-.72-2.506-1.82l-0.607.27a6.873,6.873,0,0,0,.342,2.39c0.645,1.44,2.2,2.77,3.227,2.77,0.987,0,1.557-.76,3.038-1.1,1.86-.42,4.746-0.88,7.138-1.18,0.038,1.14.038,2.2,0.038,2.92,0.038,3.23.038,9.04-.114,10.94a0.532,0.532,0,0,1-.721.53c-0.987-.15-2.43-0.53-3.835-0.91l-0.342.68a10.7,10.7,0,0,1,3,2.66c0.873,1.37.873,2.09,2.24,2.09,1.709,0,2.924-2.09,2.924-3.95,0-1.29-.266-8.54-0.266-12v-3.26c2.506-.27,5.164-0.5,6.645-0.5,1.975,0,3.19.19,4.481,0.19,1.025,0,1.557-.38,1.557-1.29,0-1.4-2.393-2.39-3.987-2.39-0.912,0-1.216.57-8.62,1.56,0.038-1.41.114-2.7,0.228-3.57,0.114-1.07.835-1.26,0.835-2.05,0-1.07-2.354-2.43-4.139-2.47a9.828,9.828,0,0,0-3.227.72Zm10.366,14.01a18.441,18.441,0,0,1,5.2,6.69c0.646,1.25,1.177,2.62,2.506,2.62,1.215,0,1.861-.95,1.709-2.28-0.418-3.53-4.671-6.38-9-7.63Zm17.267-13.59a8.872,8.872,0,0,1,2.7,4.21,28.868,28.868,0,0,1,.569,5.28c0.076,1.29-.114,2.24-0.114,3.15,0,1.18.8,3.46,2.279,3.46,1.4,0,1.594-.99,1.556-2.16-0.037-1.87-.455-7.37-0.645-9.65a3.5,3.5,0,0,0,1.936.8c0.95,0,3.19-.57,5.734-0.88s6.417-.68,8.05-0.68c0.456,0,.532.11,0.456,0.61-1.709,9.11-7.784,17.88-16.822,23.39l0.57,0.83c10.214-4.36,16.631-11.65,20.087-22.17,0.3-.87,1.746-1.48,1.746-2.32,0-1.06-2.885-3.64-4.29-3.64-0.722,0-1.709.95-2.468,1.02-2.886.34-11.582,1.14-15.265,1.29a1.157,1.157,0,0,0-.266-0.34,13.543,13.543,0,0,0-5.354-2.73Zm49.768-2.2c1.367,0.68,2.24,1.33,2.24,2.01a5,5,0,0,1-1.025,2.16c-2.734,4.11-10.062,11.7-18.8,16.64l0.456,0.79a51.135,51.135,0,0,0,14.809-8.81,3.263,3.263,0,0,1,.379,1.56,86.082,86.082,0,0,1-.417,10.1c-0.152,1.25-.418,2.05-0.418,2.77,0,1.64.8,3.53,2.468,3.53,1.139,0,1.709-.79,1.709-2.31,0-2.09-.266-7.71-0.076-12.99,0.076-1.02.38-1.63,0.38-2.24,0-.64-0.912-1.37-2.089-2.16,2.317-2.21,4.215-4.26,5.582-5.66,1.063-1.1,1.861-1.06,1.861-2.05,0-1.18-2.013-3.11-3.835-3.68a7.966,7.966,0,0,0-3-.31Zm14.524,0.98c1.746,0.27,2.772.61,2.961,1.87a92.249,92.249,0,0,1,.342,9.37c0,2.55-.038,8.13-0.342,10.94-0.152,1.59-.493,2.39-0.493,3.3,0,2.17.911,4.26,2.544,4.26,1.215,0,1.633-.65,1.633-2.21,0-.57-0.076-1.78-0.114-3.64-0.076-3.61-.114-9.11-0.038-12.46a24.256,24.256,0,0,1,5.316,3.04c2.658,2.28,2.961,4.03,4.86,4.03a1.769,1.769,0,0,0,1.785-1.9c0-1.63-1.026-2.7-2.506-3.57a27.462,27.462,0,0,0-9.455-3c0.076-2.2.152-4.56,0.341-6.15,0.19-1.33.95-1.64,0.95-2.58,0-1.11-3.038-2.78-4.823-2.78a9.547,9.547,0,0,0-3,.8Zm51.97,6.69c0-1.26-2.658-2.2-4.443-2.2-0.683,0-1.291.75-3.759,1.25a52.789,52.789,0,0,1-8.012.95c-1.4,0-2.544-.69-3.949-1.94l-0.531.34a10.881,10.881,0,0,0,1.025,2.55c0.684,1.02,2.013,2.2,3.076,2.2,1.632,0,9.568-1.06,15.036-1.6A1.546,1.546,0,0,0,430.935,7649.5Zm-25.82,14.31c0.455,1.03,2.468,3.23,3.835,3.23,0.987,0,2.05-.61,3.721-1.03a63.117,63.117,0,0,1,13.556-1.55c5.088,0,8.126,1.18,9.379,1.18a1.409,1.409,0,0,0,1.518-1.49c0-1.44-3.455-3.45-5.24-3.45a23.967,23.967,0,0,1-3,.61c-6.266.34-18.113,1.71-20.239,1.71a4.519,4.519,0,0,1-3.341-1.83l-0.646.27A5.327,5.327,0,0,0,405.115,7663.81Zm40.62-18.68a25.393,25.393,0,0,1,6.456,6.23c0.987,1.29,1.632,1.86,2.62,1.86a1.955,1.955,0,0,0,1.974-2.05c0-3.53-5.81-5.89-10.632-6.76Zm3.987,20.81c-1.329,0-2.62-1.33-3.607-2.39l-0.569.34a8.192,8.192,0,0,0,.8,3.04c0.8,1.36,3.265,3.41,5.164,3.41,0.987,0,1.443-1.1,2.468-1.74,8.582-5.36,15.568-11.77,19.973-20.01l-0.759-.5C467.759,7655.72,453.292,7665.94,449.722,7665.94Zm42.822-17.85c0.494-.68.95-1.4,1.367-2.09,0.608-.98,1.1-1.25,1.1-1.97,0-.87-2.506-2.28-4.594-2.47a8.661,8.661,0,0,0-2.506.08l-0.152.61c1.291,0.6,2.24,1.36,2.24,2.08,0,2.32-5.278,9.95-11.315,14.66l0.531,0.72a34.952,34.952,0,0,0,12.037-9.87,3.29,3.29,0,0,0,1.709.91,8.786,8.786,0,0,0,2.126-.49,34.525,34.525,0,0,1,5.24-.95c0.38,0,.57.19,0.38,0.68-3.075,7.75-11.961,17.43-21.643,22.56l0.493,0.79c11.695-4.4,19.479-12.15,24.909-21.72,0.608-1.06,1.975-1.4,1.975-2.35,0-1.29-3.228-3.15-4.253-3.15-0.759,0-1.253.83-2.278,1.1a45.869,45.869,0,0,1-7.063.87h-0.3Zm9.8-5.84a16.225,16.225,0,0,1,3.455,3.64c0.722,0.95,1.177,1.6,1.747,1.6a1.161,1.161,0,0,0,1.215-1.22,2.981,2.981,0,0,0-1.215-2.2,12.653,12.653,0,0,0-4.784-2.39Zm3.3-2.44a16.781,16.781,0,0,1,3.494,3.31c0.8,0.95,1.177,1.67,1.9,1.67a1.042,1.042,0,0,0,1.1-1.18,2.86,2.86,0,0,0-1.4-2.35,15.033,15.033,0,0,0-4.671-2.01Zm36.254,3H531.874v1.37l4.366,0.57,0.076,13.9c0.038,7.29-2.43,10.06-7.214,10.06-4.367,0-6.949-2.39-6.949-9.53v-3.46c0-3.75,0-7.44.076-11.08l4.063-.46v-1.37H514.217v1.37l3.418,0.38c0.113,3.72.113,7.48,0.113,11.16v4.33c0,8.21,4.177,11.43,10.367,11.43,6.037,0,9.91-3.57,9.948-12.11l0.076-14.66,3.759-.53v-1.37Zm29.945,0H562.35v1.49l3.949,0.45-6.645,20.89-7.214-20.96,4.063-.38v-1.49H544.656v1.37l3.037,0.34,9.683,26.51h2.164l8.848-26.39,3.455-.53v-1.3ZM279.256,7689.6a8.6,8.6,0,0,0,1.481,2.73,3.818,3.818,0,0,0,2.7,1.75c1.063,0,2.848-.38,5.392-0.76a5.985,5.985,0,0,1,.949,3.61c0,1.9-.076,5.47-0.228,8.05-4.708.45-9.113,0.87-10.594,0.87a4.624,4.624,0,0,1-3.417-1.82l-0.608.23a6.6,6.6,0,0,0,.456,2.35c0.494,1.06,2.506,3.08,3.835,3.08,0.987,0,2.051-.65,3.721-1.11a67.183,67.183,0,0,1,14.543-1.51c4.671,0.11,7.9,1.21,9.189,1.21a1.4,1.4,0,0,0,1.481-1.48c0-1.44-3.417-3.27-5.24-3.27a19.451,19.451,0,0,1-3,.61c-1.974.12-4.518,0.31-7.176,0.57,0.152-2.58.418-5.47,0.683-7.1a25.6,25.6,0,0,0,.722-2.54c0-.8-1.025-1.52-2.316-2.09,3.949-.46,7.86-0.8,9.3-0.95a1.518,1.518,0,0,0,1.671-1.56c0-1.06-2.734-2.2-4.556-2.2-0.95,0-.76,1.06-6.114,1.9a60.045,60.045,0,0,1-8.353.83,6.388,6.388,0,0,1-3.987-1.78Zm42.44,7.33c0.949,2.05.835,3.68,2.316,3.68a1.622,1.622,0,0,0,1.709-1.67,4.979,4.979,0,0,0-2.582-4.14,12.834,12.834,0,0,0-3.038-1.63l-0.38.42A14.23,14.23,0,0,1,321.7,7696.93Zm12.606,1.74c0.418-.87,1.253-1.4,1.253-2.12,0-1.26-2.2-3.27-3.949-3.38a10.191,10.191,0,0,0-1.974.15l-0.114.49c1.253,0.61,1.936,1.18,1.936,1.83,0,3.49-6.645,13.67-16.251,18.53l0.379,0.6A30.712,30.712,0,0,0,334.3,7698.67Zm-19.175.46c0.987,2.09,1.063,3.8,2.506,3.8a1.584,1.584,0,0,0,1.671-1.71c0-1.6-1.1-3.15-3-4.37a11.806,11.806,0,0,0-2.81-1.59l-0.418.41A16.283,16.283,0,0,1,315.127,7699.13Zm46.2,3.23a53.21,53.21,0,0,0,8.164-6.23c0.759-.72,2.278-1.06,2.278-1.97,0-1.14-3.152-3.69-4.481-3.69-0.721,0-1.139.76-2.316,1.1-1.974.57-6.341,1.83-9.531,2.74,0.152-2.17.3-3.99,0.456-4.98,0.228-1.33,1.025-1.78,1.025-2.81,0-1.06-2.7-2.69-4.518-2.69a10.478,10.478,0,0,0-3.342.79l0.038,0.65c1.9,0.46,3,.8,3.114,1.71,0.114,1.44.076,5.16,0.038,8.24-2.7.8-7.291,2.13-8.62,2.13-1.177,0-1.86-.88-2.658-1.87l-0.531.19a4.834,4.834,0,0,0,.228,2.47c0.531,1.22,2.885,3.04,4.025,3.04,1.215,0,1.518-.68,3-1.4,1.253-.57,2.962-1.22,4.481-1.79-0.038,2.58-.114,6.08-0.076,8.35,0.076,5.32,2.392,5.93,8.923,5.93a42.492,42.492,0,0,0,7.784-.8c1.026-.23,1.861-0.61,1.861-1.59,0-1.33-1.9-1.87-3.3-1.87a33.144,33.144,0,0,1-7.822.95c-3.987,0-4.48-.3-4.518-3.49-0.038-2.24.076-5.54,0.266-8.58a90.887,90.887,0,0,1,10.4-3.27c0.531-.11.759,0.19,0.493,0.65a38.89,38.89,0,0,1-5.43,7.48Zm18.29-15.23a25.37,25.37,0,0,1,6.455,6.23c0.988,1.29,1.633,1.86,2.62,1.86a1.955,1.955,0,0,0,1.975-2.05c0-3.53-5.81-5.89-10.632-6.76Zm3.987,20.81c-1.329,0-2.62-1.33-3.607-2.39l-0.57.34a8.193,8.193,0,0,0,.8,3.04c0.8,1.36,3.265,3.41,5.164,3.41,0.987,0,1.443-1.1,2.468-1.74,8.582-5.36,15.568-11.77,19.973-20.01l-0.76-.5C401.639,7697.72,387.172,7707.94,383.6,7707.94Zm31.354-20.7a8.114,8.114,0,0,0,.379,2.59c0.456,1.21,2.127,3.19,3.57,3.19,1.025,0,1.329-.84,2.544-1.22a92.948,92.948,0,0,1,9.037-2.2c0.417-.04.645,0.07,0.455,0.61-3.265,7.59-12.454,16.97-21.415,21.6l0.493,0.8a43.371,43.371,0,0,0,17.581-11.47c3.493,2.2,5.392,4.75,7.442,7.6,1.6,2.08,2.393,3.26,3.684,3.26a1.894,1.894,0,0,0,1.9-1.97c0-3.8-5.885-7.67-12.075-9.91a68.263,68.263,0,0,0,6-8.2c0.455-.69,1.974-1.18,1.974-2.09,0-1.07-3.037-3.61-4.442-3.61-0.684,0-1.253.95-2.127,1.18a79.412,79.412,0,0,1-11.353,1.78c-1.291,0-2.165-1.21-2.924-2.24Z" transform="translate(-274.625 -7610.66)"/>
  <g id="薬用">
    <path id="薬用-2" data-name="薬用" class="cls-2" d="M469.924,7704.64a15.1,15.1,0,0,1-5.952,2.46,5.312,5.312,0,0,1,.735,1.09c0.282,0.51.3,0.53,0.866,0.38a14.085,14.085,0,0,0,6.027-3.31c-0.019,2.11-.094,3.08-0.094,3.4,0,0.19.019,0.21,0.207,0.21h1.62c0.188,0,.207-0.02.207-0.21,0-.32-0.076-1.38-0.094-3.51a15.519,15.519,0,0,0,6.346,3.38c0.584,0.15.6,0.15,0.867-.38a6.167,6.167,0,0,1,.753-1.22,16.513,16.513,0,0,1-6.29-2.29h3.088c1.714,0,2.3.03,2.411,0.03,0.188,0,.207-0.02.207-0.21v-1.23c0-.19-0.019-0.21-0.207-0.21-0.113,0-.7.04-2.411,0.04h-4.727V7702h0.151c1.262,0,1.695.03,1.808,0.03,0.188,0,.207-0.01.207-0.22,0-.12-0.038-0.57-0.038-1.62v-2.26c0-1.04.038-1.52,0.038-1.63,0-.19-0.019-0.21-0.207-0.21-0.113,0-.546.04-1.808,0.04h-0.7a1.938,1.938,0,0,0,.094-0.21,1.518,1.518,0,0,1,.283-0.44,0.348,0.348,0,0,0,.15-0.26c0-.12-0.113-0.17-0.32-0.21-0.471-.1-1-0.17-1.619-0.25a3.115,3.115,0,0,1-.189.86,5.352,5.352,0,0,1-.207.51c-1,0-1.356-.04-1.469-0.04-0.188,0-.207.02-0.207,0.21,0,0.13.038,0.59,0.038,1.63v2.26c0,1.05-.038,1.5-0.038,1.62,0,0.21.019,0.22,0.207,0.22,0.132,0,.527-0.03,1.865-0.03h0.037v1.06H467.1c-1.714,0-2.3-.04-2.411-0.04-0.188,0-.207.02-0.207,0.21v1.23c0,0.19.019,0.21,0.207,0.21,0.113,0,.7-0.03,2.411-0.03h2.825Zm4.087-3.94h-2.92v-1.02h2.92v1.02Zm0-3.3v0.99h-2.92v-0.99h2.92Zm-6.95-4.58c-1.808,0-2.448-.03-2.561-0.03-0.189,0-.207.02-0.207,0.2v1.24c0,0.19.018,0.21,0.207,0.21,0.113,0,.753-0.04,2.561-0.04h1.959c-0.019.51-.038,0.76-0.038,0.85,0,0.19.019,0.21,0.207,0.21h1.432c0.188,0,.207-0.02.207-0.21,0-.07-0.038-0.34-0.038-0.85h3.522c-0.019.51-.038,0.78-0.038,0.85,0,0.21.019,0.23,0.207,0.23h1.432c0.188,0,.207-0.02.207-0.23,0-.07-0.038-0.34-0.038-0.85h2.11c1.9,0,2.58.04,2.693,0.04,0.188,0,.207-0.02.207-0.21v-1.24c0-.18-0.019-0.2-0.207-0.2-0.113,0-.791.03-2.693,0.03h-2.11a1.734,1.734,0,0,1,.094-0.74,0.816,0.816,0,0,0,.1-0.28c0-.1-0.1-0.15-0.245-0.17-0.509-.06-1.187-0.1-1.827-0.12a9.882,9.882,0,0,1,.113,1.31H470.79a1.856,1.856,0,0,1,.094-0.76,0.547,0.547,0,0,0,.094-0.26c0-.1-0.075-0.15-0.244-0.17-0.509-.06-1.243-0.1-1.827-0.12a11.512,11.512,0,0,1,.113,1.31h-1.959Zm9.191,6.97a0.348,0.348,0,0,0-.094.21,0.179,0.179,0,0,0,.131.15,24.421,24.421,0,0,1,3.24,2.11c0.169,0.14.207,0.12,0.358-.13l0.7-1.06a0.543,0.543,0,0,0,.095-0.21,0.2,0.2,0,0,0-.132-0.16,20.674,20.674,0,0,0-3.108-1.89,4.124,4.124,0,0,0,.358-0.21,20.887,20.887,0,0,0,1.94-1.35,1.963,1.963,0,0,1,.508-0.36,0.283,0.283,0,0,0,.226-0.25,0.417,0.417,0,0,0-.169-0.32,15.588,15.588,0,0,0-1.281-1.05,4.816,4.816,0,0,1-.546.63,9.7,9.7,0,0,1-2.3,1.61,5.579,5.579,0,0,1,.791.9,2.1,2.1,0,0,0,.189.28c-0.094-.02-0.132.04-0.226,0.17Zm-7.684-1.27a17.094,17.094,0,0,1-3.127,1.69,6.381,6.381,0,0,1-1.092.36c0.226,0.59.452,1.16,0.659,1.62a0.326,0.326,0,0,0,.264.22,0.365,0.365,0,0,0,.282-0.17,1.626,1.626,0,0,1,.528-0.36c0.828-.42,1.6-0.8,2.392-1.29,0.489-.3.489-0.3,0.339-0.89A11.466,11.466,0,0,1,468.568,7698.52Zm-3.692-2.09a0.392,0.392,0,0,0-.113.21,0.187,0.187,0,0,0,.113.15,14.4,14.4,0,0,1,2.26,1.79c0.151,0.13.189,0.13,0.377-.1l0.791-.97a0.326,0.326,0,0,0,.113-0.19,0.279,0.279,0,0,0-.113-0.19,17.218,17.218,0,0,0-2.3-1.67c-0.169-.09-0.244-0.11-0.376.04Zm35.983-.81c0-1.98.038-3,.038-3.12,0-.21-0.019-0.23-0.208-0.23-0.131,0-.772.04-2.6,0.04h-8.851c-1.808,0-2.467-.04-2.58-0.04-0.208,0-.226.02-0.226,0.23,0,0.12.037,1.14,0.037,3.12v3.11c0,4.58-.565,6.84-1.94,8.62a4.906,4.906,0,0,1,1.338.97,0.763,0.763,0,0,0,.395.3,0.584,0.584,0,0,0,.339-0.38,11.979,11.979,0,0,0,1.639-5.26h4.294v2.26c0,1.85-.038,2.68-0.038,2.81,0,0.19.019,0.21,0.207,0.21h1.62c0.188,0,.207-0.02.207-0.21,0-.11-0.038-0.96-0.038-2.81v-2.26h4.426v3.16a0.523,0.523,0,0,1-.6.62c-0.621,0-.979-0.02-1.751-0.07a4.884,4.884,0,0,1,.527,1.44c0.132,0.57.113,0.55,0.7,0.55,1.563,0,2.128-.17,2.486-0.49a1.831,1.831,0,0,0,.622-1.54c0-.78-0.038-1.75-0.038-2.62v-8.41Zm-6.366,5.6v-2.68h4.426v2.68h-4.426Zm4.426-7.09v2.64h-4.426v-2.64h4.426Zm-10.547,7.09c0.038-.74.057-1.56,0.057-2.47v-0.21h4.106v2.68h-4.163Zm0.057-4.45v-2.64h4.106v2.64h-4.106Z" transform="translate(-274.625 -7610.66)"/>
    <rect id="長方形_571" data-name="長方形 571" class="cls-3" x="179.375" y="73.34" width="58" height="32" rx="4" ry="4"/>
  </g>
</svg>
