<svg id="name-ncm_sp.svg" xmlns="http://www.w3.org/2000/svg" width="259.063" height="104.35" viewBox="0 0 259.063 104.35">
  <defs>
    <style>
      .cls-1 {
        fill: #0d74a0;
        opacity: 0.7;
      }

      .cls-1, .cls-2 {
        fill-rule: evenodd;
      }

      .cls-2 {
        fill: #2b7ba6;
      }
    </style>
  </defs>
  <path id="Non_chemical_UV_milk" data-name="Non chemical UV milk" class="cls-1" d="M278.181,6710.9v-9.33l9.69,10.15v-14.17h-2.042v9.25l-9.69-10.15v14.25h2.042Zm21.184-13.59a6.925,6.925,0,1,0,6.947,6.92A6.77,6.77,0,0,0,299.365,6697.31Zm0,11.97a5.047,5.047,0,1,1,4.9-5.05A4.779,4.779,0,0,1,299.365,6709.28Zm13.536,1.62v-9.33l9.689,10.15v-14.17h-2.042v9.25l-9.689-10.15v14.25H312.9Zm31.427-12.63a6.352,6.352,0,0,0-3.564-.96,6.618,6.618,0,0,0-4.825,1.74,6.977,6.977,0,0,0-2.142,5.22,6.546,6.546,0,0,0,2.142,5.05,6.7,6.7,0,0,0,4.725,1.84,7.3,7.3,0,0,0,3.664-1v-2.42a5.3,5.3,0,0,1-3.6,1.54,4.821,4.821,0,0,1-4.885-5.01,4.767,4.767,0,0,1,4.865-5.08,5.21,5.21,0,0,1,3.624,1.48v-2.4Zm6.552-.72h-2.042v13.35h2.042v-6.15h5.725v6.15h2.042v-13.35h-2.042v5.28H350.88v-5.28Zm20.325,0h-7.367v13.35h7.367v-1.92H365.88v-4.21h5.165v-1.92H365.88v-3.38h5.325v-1.92Zm6.314,13.35,1.4-8.07,3.843,8.69,3.884-8.67,1.362,8.05h2.082l-2.523-14.35-4.684,10.37-4.645-10.37-2.8,14.35h2.082Zm17.358-13.35v13.35h2.042v-13.35h-2.042Zm17.13,0.72a6.35,6.35,0,0,0-3.564-.96,6.616,6.616,0,0,0-4.824,1.74,6.974,6.974,0,0,0-2.143,5.22,6.543,6.543,0,0,0,2.143,5.05,6.69,6.69,0,0,0,4.724,1.84,7.292,7.292,0,0,0,3.664-1v-2.42a5.3,5.3,0,0,1-3.6,1.54,4.821,4.821,0,0,1-4.885-5.01,4.767,4.767,0,0,1,4.865-5.08,5.21,5.21,0,0,1,3.624,1.48v-2.4Zm13.759,12.63h2.2l-6.326-14.13L415,6710.9h2.2l1.461-3.22h5.706Zm-6.266-5.14,2.062-4.53,1.982,4.53H419.5Zm12.137-8.21v13.35H437.6v-1.92h-3.924v-11.43h-2.042Zm16.539,0v8.59a4.934,4.934,0,0,0,1.241,3.46,5.177,5.177,0,0,0,7.408,0,4.934,4.934,0,0,0,1.241-3.46v-8.59h-2.042v8.05a4.662,4.662,0,0,1-.42,2.3,2.923,2.923,0,0,1-4.965,0,4.652,4.652,0,0,1-.421-2.3v-8.05h-2.042Zm13.558,0,5.926,14.21,5.926-14.21h-2.2l-3.724,9.31-3.723-9.31h-2.2ZM485.6,6710.9l1.4-8.07,3.844,8.69,3.884-8.67,1.361,8.05h2.083l-2.523-14.35-4.685,10.37-4.644-10.37-2.8,14.35H485.6Zm17.358-13.35v13.35H505v-13.35h-2.042Zm7.24,0v13.35h5.966v-1.92h-3.924v-11.43H510.2Zm11.922,0h-2.042v13.35h2.042v-5.53l0.4-.4,4.765,5.93h2.723l-6.066-7.31,6.026-6.04h-2.683l-5.165,5.32v-5.32Z" transform="translate(-273.562 -6696.53)"/>
  <path id="ノンケミカルUV_ミルク" data-name="ノンケミカルUV ミルク" class="cls-2" d="M292.885,6732.84a7.728,7.728,0,0,1-.684,2.66c-2.582,6.07-9.3,15.49-18.643,21.75l0.531,0.8a45.385,45.385,0,0,0,22.327-21.79c0.684-1.37,1.937-1.52,1.937-2.66,0-1.29-2.317-3.34-4.291-3.95a8.675,8.675,0,0,0-3.569-.3l-0.19.68C292.353,6731.13,292.885,6731.74,292.885,6732.84Zm14.682-1.71a25.4,25.4,0,0,1,6.455,6.23c0.987,1.29,1.632,1.86,2.62,1.86a1.955,1.955,0,0,0,1.974-2.05c0-3.53-5.809-5.89-10.632-6.76Zm3.987,20.81c-1.329,0-2.62-1.33-3.608-2.39l-0.569.34a8.192,8.192,0,0,0,.8,3.04c0.8,1.36,3.266,3.41,5.164,3.41,0.987,0,1.443-1.1,2.468-1.74,8.582-5.36,15.569-11.77,19.973-20.01l-0.759-.5C329.59,6741.72,315.123,6751.94,311.554,6751.94ZM347.2,6727.3c1.215,1.13,1.709,1.78,1.709,2.65,0,2.97-4.861,10.83-10.328,15.57l0.607,0.65a34.341,34.341,0,0,0,9.3-8.09,3.933,3.933,0,0,0,2.126,1.25,18.8,18.8,0,0,0,2.507-.42l1.708-.26a2.428,2.428,0,0,1,.912,1.94c0,3.72-5.013,12.22-12.607,17.16l0.532,0.68c7.746-3.61,12.644-8.96,15.454-15.45,0.342-.88,1.177-1.26,1.177-2.09,0-.72-1.215-1.79-2.962-2.58,1.9-.23,3.835-0.46,5.051-0.53,1.822-.12,4.062-0.04,5.391-0.04s1.633-.61,1.633-1.33c0-1.33-2.278-2.32-3.835-2.32-0.721,0-1.177.69-2.924,0.99-2.05.34-9.758,1.52-11.733,1.52a7.728,7.728,0,0,1-1.215-.15,44.865,44.865,0,0,0,2.506-3.91c0.57-.92,1.405-1.18,1.405-1.94,0-.95-1.557-2.28-2.772-2.92a10.543,10.543,0,0,0-3.3-.92ZM391,6731.17c-2.772-1.29-7.6-1.9-12-2.09l-0.152.72c4.936,1.48,7.594,2.74,10.67,4.98,1.329,1.02,1.822,1.55,2.923,1.55A1.646,1.646,0,0,0,394,6734.7C394,6733.33,393.282,6732.23,391,6731.17Zm-13.784,7.86a44.366,44.366,0,0,1,9.493,4.59c1.291,0.88,1.936,1.33,2.772,1.33a1.583,1.583,0,0,0,1.632-1.67c0-1.44-1.139-2.35-2.771-3.07a30.314,30.314,0,0,0-10.936-1.9Zm-1.253,10.55a39.3,39.3,0,0,1,13.024,6.16c1.443,1.14,2.544,2.05,3.607,2.05a1.679,1.679,0,0,0,1.937-1.83c0-1.06-.987-2.27-2.62-3.26-3.342-2.01-9.835-3.61-15.758-3.87Zm45.1-13.55c0.342-1.41.608-2.66,0.8-3.49,0.38-1.52,1.367-1.52,1.367-2.59,0-1.1-3.037-2.84-4.9-2.88a10.454,10.454,0,0,0-3,.8l0.038,0.68a9.912,9.912,0,0,1,2.317.83,1.144,1.144,0,0,1,.645,1.37,34.54,34.54,0,0,1-.949,5.73c-4.025.46-7.86,0.88-8.923,0.88-1.216,0-1.861-1.14-2.545-2.24l-0.645.15a5.338,5.338,0,0,0,.152,2.7c0.418,1.13,2.126,3.15,3.265,3.15,0.836,0,1.367-.57,2.506-0.88,1.064-.3,3.494-0.79,5.468-1.14a35.031,35.031,0,0,1-13.479,18.91l0.569,0.69c11.809-5.55,15.265-15.42,16.632-20.2a58.493,58.493,0,0,1,6.872-.72,0.389,0.389,0,0,1,.418.45c0,2.43-1.443,10.86-3.683,13.78a1.562,1.562,0,0,1-1.9.54,33.174,33.174,0,0,1-4.708-1.6l-0.342.65c2.278,1.9,3.3,2.66,3.645,4.02,0.3,1.07.646,1.48,1.595,1.48,1.823,0,3.911-1.59,4.9-3.6,2.165-4.18,3.228-9.57,3.835-13.75,0.19-1.29,1.367-1.25,1.367-2.16,0-1.07-2.809-3.35-3.835-3.35-0.759,0-1.177,1.03-2.24,1.14Zm28.695-4.48c1.86,0.3,2.886.83,2.924,1.86,0.227,3.64.037,13.59-.114,15.57-0.152,1.48-.608,1.9-0.608,2.66,0,0.94,1.937,3.34,3.114,3.34,0.949,0,1.557-1.18,2.43-1.75,4.9-3.08,10.328-7.75,13.556-12.76l-0.684-.53a48,48,0,0,1-13.973,9.64c-0.456.19-.722,0.04-0.722-0.49-0.038-2.77.228-11.77,0.494-13.78,0.152-1.33,1.025-1.45,1.025-2.36,0-1.1-2.848-2.81-4.67-2.81a5.858,5.858,0,0,0-2.81.73Zm-5.126,6.42c0,5.08-3.76,13.1-9.645,18.11l0.57,0.68a24.671,24.671,0,0,0,12.644-16.71c0.19-.95.987-1.48,0.987-2.39,0-1.37-3.113-3.04-4.708-3.11a7.075,7.075,0,0,0-2.62.49v0.72C443,6736.14,444.633,6736.75,444.633,6737.97Zm58.049-9.16H492.658v1.37l4.367,0.57,0.075,13.9c0.038,7.29-2.43,10.06-7.214,10.06-4.367,0-6.949-2.39-6.949-9.53v-3.46c0-3.75,0-7.44.076-11.08l4.063-.46v-1.37H475v1.37l3.418,0.38c0.114,3.72.114,7.48,0.114,11.16v4.33c0,8.21,4.176,11.43,10.366,11.43,6.037,0,9.91-3.57,9.948-12.11l0.076-14.66,3.759-.53v-1.37Zm29.945,0h-9.493v1.49l3.949,0.45-6.645,20.89-7.214-20.96,4.063-.38v-1.49H505.44v1.37l3.038,0.34,9.682,26.51h2.165l8.847-26.39,3.455-.53v-1.3Zm-240.616,44.36c-2.772-1.29-7.594-1.9-12-2.09l-0.152.72c4.937,1.48,7.595,2.74,10.67,4.98,1.329,1.02,1.823,1.55,2.924,1.55a1.646,1.646,0,0,0,1.557-1.63C295.011,6775.33,294.289,6774.23,292.011,6773.17Zm-13.783,7.86a44.326,44.326,0,0,1,9.492,4.59c1.291,0.88,1.937,1.33,2.772,1.33a1.584,1.584,0,0,0,1.633-1.67c0-1.44-1.139-2.35-2.772-3.07a30.3,30.3,0,0,0-10.935-1.9Zm-1.253,10.55A39.3,39.3,0,0,1,290,6797.74c1.443,1.14,2.544,2.05,3.607,2.05a1.679,1.679,0,0,0,1.937-1.83c0-1.06-.988-2.27-2.621-3.26-3.341-2.01-9.834-3.61-15.758-3.87Zm40.465-18.03c1.86,0.3,2.886.83,2.924,1.86,0.227,3.64.038,13.59-.114,15.57-0.152,1.48-.608,1.9-0.608,2.66,0,0.94,1.937,3.34,3.114,3.34,0.949,0,1.557-1.18,2.43-1.75,4.9-3.08,10.328-7.75,13.556-12.76l-0.684-.53a48,48,0,0,1-13.973,9.64c-0.456.19-.722,0.04-0.722-0.49-0.038-2.77.228-11.77,0.494-13.78,0.152-1.33,1.025-1.45,1.025-2.36,0-1.1-2.848-2.81-4.67-2.81a5.858,5.858,0,0,0-2.81.73Zm-5.126,6.42c0,5.08-3.759,13.1-9.645,18.11l0.57,0.68a24.671,24.671,0,0,0,12.644-16.71c0.19-.95.987-1.48,0.987-2.39,0-1.37-3.113-3.04-4.708-3.11a7.079,7.079,0,0,0-2.62.49v0.72C310.681,6778.14,312.314,6778.75,312.314,6779.97Zm45.1-4.33c0.494-.69.949-1.41,1.367-2.09,0.608-.99,1.1-1.25,1.1-1.98,0-.87-2.506-2.27-4.594-2.46a8.706,8.706,0,0,0-2.506.07l-0.152.61c1.291,0.61,2.24,1.37,2.24,2.09,0,2.31-5.278,9.95-11.315,14.65l0.531,0.73a34.868,34.868,0,0,0,12.037-9.88,3.217,3.217,0,0,0,1.709.91,8.348,8.348,0,0,0,2.126-.49,34.5,34.5,0,0,1,5.24-.95c0.38,0,.57.19,0.38,0.69-3.076,7.74-11.961,17.42-21.644,22.55l0.494,0.8c11.695-4.41,19.479-12.15,24.909-21.72,0.608-1.06,1.975-1.41,1.975-2.36,0-1.29-3.228-3.15-4.253-3.15-0.76,0-1.253.84-2.278,1.1a44.611,44.611,0,0,1-7.063.88h-0.3Z" transform="translate(-273.562 -6696.53)"/>
</svg>
