<svg id="name-we.svg" xmlns="http://www.w3.org/2000/svg" width="261.599" height="98.59" viewBox="0 0 261.599 98.59">
  <defs>
    <style>
      .cls-1 {
        fill: #8598a2;
        opacity: 0.8;
      }

      .cls-1, .cls-2 {
        fill-rule: evenodd;
      }

      .cls-2 {
        fill: #5b6c73;
      }

      .cls-3 {
        fill: none;
        stroke: #9fb8c4;
        stroke-width: 1px;
      }
    </style>
  </defs>
  <path id="Whitening_UV_essence" data-name="Whitening UV essence" class="cls-1" d="M810.791,3460.57l4.266,10.67,2.644-7.11,2.614,7.11,4.477-10.67h-1.653l-2.734,6.7-2.614-7.18-2.7,7.18-2.644-6.7h-1.652Zm18.274,0h-1.533v10.02h1.533v-4.61h4.3v4.61h1.532v-10.02h-1.532v3.97h-4.3v-3.97Zm9.717,0v10.02h1.533v-10.02h-1.533Zm10.508,1.44v-1.44h-6.129v1.44h2.3v8.58h1.532v-8.58h2.3Zm8.37-1.44h-5.528v10.02h5.528v-1.44h-4v-3.16h3.876v-1.44h-3.876v-2.54h4v-1.44Zm5,10.02v-7l7.271,7.62v-10.64H868.4v6.94l-7.271-7.62v10.7h1.532Zm11.158-10.02v10.02h1.532v-10.02h-1.532Zm6.962,10.02v-7l7.271,7.62v-10.64h-1.533v6.94l-7.27-7.62v10.7h1.532Zm16.34-3.8h2.494a2.7,2.7,0,0,1-.841,1.7,3.009,3.009,0,0,1-2.239.88,3.272,3.272,0,0,1-2.509-1,4.161,4.161,0,0,1,.031-5.53,3.6,3.6,0,0,1,2.643-1.04,3.386,3.386,0,0,1,1.773.44,4.073,4.073,0,0,1,1.232,1.14l1.217-.86a4.6,4.6,0,0,0-1.623-1.5,5.332,5.332,0,0,0-6.354,8.4,4.39,4.39,0,0,0,3.41,1.37,4.714,4.714,0,0,0,3.41-1.28,5.487,5.487,0,0,0,1.487-4.06v-0.07h-4.131v1.41Zm12.532-6.22v6.44a3.7,3.7,0,0,0,.931,2.6,3.864,3.864,0,0,0,5.559,0,3.7,3.7,0,0,0,.931-2.6v-6.44h-1.532v6.04a3.515,3.515,0,0,1-.316,1.73,2.2,2.2,0,0,1-3.725,0,3.515,3.515,0,0,1-.316-1.73v-6.04h-1.532Zm10.168,0,4.447,10.67,4.446-10.67h-1.652l-2.794,6.99-2.795-6.99h-1.652Zm22.165,0H936.46v10.02h5.529v-1.44h-4v-3.16h3.875v-1.44h-3.875v-2.54h4v-1.44Zm9.03,1.5a3.385,3.385,0,0,0-.767-1,2.953,2.953,0,0,0-2.013-.68,2.7,2.7,0,0,0-2.929,2.64,2.813,2.813,0,0,0,2.043,2.54l0.961,0.41a1.87,1.87,0,0,1,1.443,1.71,1.606,1.606,0,0,1-1.653,1.68,1.583,1.583,0,0,1-1.307-.6,2.145,2.145,0,0,1-.42-1.27l-1.518.33a3.236,3.236,0,0,0,.842,1.95,2.933,2.933,0,0,0,2.358,1.01,3.091,3.091,0,0,0,3.23-3.22c0-1.14-.511-2.19-2.359-2.94l-1.006-.41a1.331,1.331,0,0,1-1.082-1.22,1.244,1.244,0,0,1,1.412-1.2,1.625,1.625,0,0,1,1.082.36,1.665,1.665,0,0,1,.451.63Zm9.239,0a3.367,3.367,0,0,0-.766-1,2.953,2.953,0,0,0-2.013-.68,2.7,2.7,0,0,0-2.929,2.64,2.813,2.813,0,0,0,2.043,2.54l0.961,0.41a1.869,1.869,0,0,1,1.442,1.71,1.606,1.606,0,0,1-1.652,1.68,1.581,1.581,0,0,1-1.307-.6,2.145,2.145,0,0,1-.421-1.27l-1.517.33a3.241,3.241,0,0,0,.841,1.95,2.937,2.937,0,0,0,2.359,1.01,3.091,3.091,0,0,0,3.23-3.22c0-1.14-.511-2.19-2.359-2.94l-1.006-.41a1.331,1.331,0,0,1-1.082-1.22,1.244,1.244,0,0,1,1.412-1.2,1.626,1.626,0,0,1,1.082.36,1.676,1.676,0,0,1,.451.63Zm9.21-1.5H963.94v10.02h5.528v-1.44h-4v-3.16h3.876v-1.44h-3.876v-2.54h4v-1.44Zm5,10.02v-7l7.271,7.62v-10.64h-1.532v6.94l-7.271-7.62v10.7h1.532Zm18.579-9.48a4.729,4.729,0,0,0-2.674-.72,4.952,4.952,0,0,0-3.621,1.31,5.227,5.227,0,0,0-1.607,3.92,4.9,4.9,0,0,0,1.607,3.78,5,5,0,0,0,3.546,1.39,5.5,5.5,0,0,0,2.749-.76v-1.81a3.979,3.979,0,0,1-2.7,1.15,3.787,3.787,0,0,1-.015-7.57,3.934,3.934,0,0,1,2.719,1.11v-1.8Zm8.909-.54h-5.53v10.02h5.53v-1.44h-4v-3.16h3.878v-1.44h-3.878v-2.54h4v-1.44Z" transform="translate(-810.781 -3459.91)"/>
  <path id="ホワイトニングUV_エッセンス" data-name="ホワイトニングUV エッセンス" class="cls-2" d="M819.007,3504.43a10.463,10.463,0,0,1-3.709,5.1c-1.429,1.16-2.212,1.4-2.212,2.62a1.518,1.518,0,0,0,1.6,1.6c2.858,0,5-5.27,5.1-9.19Zm3.266-12.35c1.565,0.3,2.382.54,2.62,1.46a39.252,39.252,0,0,1,.272,4.83c-2.722.31-7.928,0.92-9.493,0.92-0.885,0-1.5-.65-2.246-1.63l-0.544.23a6.2,6.2,0,0,0,.306,2.15c0.579,1.29,1.974,2.48,2.892,2.48,0.885,0,1.395-.68,2.722-0.98,1.668-.38,4.254-0.79,6.4-1.06,0.034,1.02.034,1.97,0.034,2.62,0.034,2.89.034,8.1-.1,9.8a0.481,0.481,0,0,1-.646.48c-0.885-.14-2.178-0.48-3.437-0.82l-0.306.61a9.671,9.671,0,0,1,2.688,2.38c0.783,1.23.783,1.88,2.007,1.88,1.532,0,2.62-1.88,2.62-3.54,0-1.16-.238-7.66-0.238-10.76v-2.92c2.246-.24,4.628-0.44,5.955-0.44,1.769,0,2.858.17,4.015,0.17,0.919,0,1.395-.34,1.395-1.16,0-1.26-2.144-2.14-3.573-2.14-0.816,0-1.089.51-7.724,1.39,0.034-1.26.1-2.41,0.2-3.2,0.1-.95.749-1.12,0.749-1.83,0-.96-2.11-2.18-3.709-2.22a8.685,8.685,0,0,0-2.892.65Zm9.289,12.55a16.566,16.566,0,0,1,4.662,5.99c0.578,1.12,1.055,2.35,2.245,2.35a1.6,1.6,0,0,0,1.532-2.04c-0.375-3.17-4.186-5.72-8.065-6.84Zm14.742-12.18a7.912,7.912,0,0,1,2.416,3.78,25.655,25.655,0,0,1,.51,4.73c0.068,1.15-.1,2-0.1,2.82,0,1.06.715,3.1,2.042,3.1,1.259,0,1.429-.89,1.4-1.94-0.034-1.67-.408-6.6-0.579-8.64a3.12,3.12,0,0,0,1.736.71c0.85,0,2.858-.51,5.138-0.78s5.75-.61,7.213-0.61c0.409,0,.477.1,0.409,0.54-1.532,8.17-6.976,16.03-15.074,20.96l0.51,0.75c9.153-3.91,14.9-10.45,18-19.87,0.272-.79,1.565-1.33,1.565-2.08,0-.95-2.586-3.27-3.845-3.27-0.646,0-1.531.86-2.211,0.92-2.586.31-10.378,1.02-13.679,1.16a1.064,1.064,0,0,0-.238-0.31,12.264,12.264,0,0,0-4.8-2.45Zm42.512-1.97c1.225,0.61,2.007,1.19,2.007,1.8a4.558,4.558,0,0,1-.918,1.94c-2.45,3.67-9.017,10.48-16.843,14.9l0.408,0.72a45.837,45.837,0,0,0,13.27-7.9,2.937,2.937,0,0,1,.34,1.4,77.164,77.164,0,0,1-.374,9.05c-0.136,1.12-.374,1.84-0.374,2.48,0,1.47.714,3.17,2.212,3.17,1.02,0,1.531-.72,1.531-2.08,0-1.87-.238-6.9-0.068-11.63,0.068-.92.34-1.47,0.34-2.01,0-.58-0.817-1.23-1.872-1.94,2.076-1.97,3.777-3.81,5-5.07,0.953-.99,1.668-0.95,1.668-1.84,0-1.05-1.8-2.79-3.437-3.3a7.117,7.117,0,0,0-2.688-.27Zm14.341,0.88c1.565,0.24,2.484.55,2.654,1.67a82.888,82.888,0,0,1,.306,8.4c0,2.28-.034,7.29-0.306,9.8-0.136,1.43-.442,2.15-0.442,2.96,0,1.94.816,3.81,2.279,3.81,1.089,0,1.464-.57,1.464-1.97,0-.51-0.068-1.6-0.1-3.27-0.068-3.23-.1-8.16-0.034-11.16a21.428,21.428,0,0,1,4.764,2.73c2.382,2.04,2.654,3.6,4.355,3.6a1.58,1.58,0,0,0,1.6-1.7c0-1.46-.919-2.41-2.246-3.2a24.936,24.936,0,0,0-8.473-2.69c0.069-1.97.137-4.08,0.307-5.51,0.17-1.19.85-1.46,0.85-2.31,0-.99-2.722-2.49-4.321-2.49a8.582,8.582,0,0,0-2.688.72ZM949,3497.35c0-1.12-2.382-1.97-3.981-1.97-0.612,0-1.157.68-3.369,1.12a46.452,46.452,0,0,1-7.179.85,5.287,5.287,0,0,1-3.539-1.73l-0.476.3a9.585,9.585,0,0,0,.919,2.28c0.612,0.92,1.8,1.97,2.756,1.97,1.463,0,8.574-.95,13.474-1.42A1.4,1.4,0,0,0,949,3497.35Zm-23.138,12.83c0.409,0.92,2.212,2.89,3.437,2.89a19.222,19.222,0,0,0,3.335-.92,56.071,56.071,0,0,1,12.147-1.39c4.559,0,7.281,1.05,8.4,1.05a1.258,1.258,0,0,0,1.361-1.33c0-1.29-3.1-3.09-4.7-3.09a19.6,19.6,0,0,1-2.688.54c-5.615.31-16.231,1.53-18.136,1.53a4.047,4.047,0,0,1-2.994-1.63l-0.579.24A4.827,4.827,0,0,0,925.863,3510.18Zm34.343-16.74a22.665,22.665,0,0,1,5.785,5.58c0.885,1.15,1.463,1.66,2.348,1.66a1.747,1.747,0,0,0,1.769-1.83c0-3.17-5.206-5.28-9.527-6.06Zm3.573,18.64c-1.191,0-2.348-1.19-3.232-2.14l-0.511.31a7.353,7.353,0,0,0,.715,2.72c0.714,1.22,2.926,3.06,4.627,3.06,0.885,0,1.293-.99,2.212-1.56,7.69-4.8,13.951-10.55,17.9-17.94l-0.681-.44C979.942,3502.93,966.978,3512.08,963.779,3512.08Zm36.961-15.99c0.45-.61.85-1.26,1.23-1.87,0.54-.88.99-1.12,0.99-1.77,0-.78-2.25-2.04-4.122-2.21a7.636,7.636,0,0,0-2.246.07l-0.136.54c1.157,0.55,2.008,1.23,2.008,1.87,0,2.08-4.73,8.92-10.14,13.14l0.476,0.64a31.265,31.265,0,0,0,10.787-8.84,2.982,2.982,0,0,0,1.533.81,7.235,7.235,0,0,0,1.9-.44,30.381,30.381,0,0,1,4.7-.85c0.34,0,.51.17,0.34,0.61-2.76,6.94-10.719,15.62-19.4,20.21l0.443,0.72c10.48-3.95,17.453-10.89,22.323-19.46,0.54-.96,1.77-1.26,1.77-2.11,0-1.16-2.9-2.83-3.81-2.83-0.68,0-1.13.75-2.05,0.99a40.842,40.842,0,0,1-6.32.78h-0.28Zm8.78-5.24a14.679,14.679,0,0,1,3.1,3.27c0.65,0.85,1.05,1.43,1.56,1.43a1.039,1.039,0,0,0,1.09-1.09,2.66,2.66,0,0,0-1.09-1.98,11.538,11.538,0,0,0-4.28-2.14Zm2.96-2.18a14.949,14.949,0,0,1,3.13,2.96c0.72,0.85,1.06,1.5,1.7,1.5a0.928,0.928,0,0,0,.99-1.05,2.559,2.559,0,0,0-1.26-2.11,13.521,13.521,0,0,0-4.18-1.81Zm33.8,2.69h-8.99v1.23l3.92,0.51,0.07,12.45c0.03,6.53-2.18,9.02-6.47,9.02-3.91,0-6.23-2.15-6.23-8.54v-3.1c0-3.37,0-6.67.07-9.93l3.64-.41v-1.23h-10.82v1.23l3.06,0.34c0.11,3.33.11,6.7,0.11,10v3.88c0,7.35,3.74,10.24,9.29,10.24,5.41,0,8.88-3.2,8.91-10.85l0.07-13.14,3.37-.47v-1.23Zm26.11,0h-8.51v1.33l3.54,0.41-5.95,18.71-6.47-18.78,3.64-.34v-1.33h-10.61v1.23l2.72,0.3,8.67,23.75h1.94l7.93-23.64,3.1-.48v-1.16ZM815.3,3534.65a7.8,7.8,0,0,0,1.327,2.45,3.414,3.414,0,0,0,2.416,1.56c0.953,0,2.552-.34,4.832-0.68a5.385,5.385,0,0,1,.85,3.24c0,1.7-.068,4.9-0.2,7.21-4.219.41-8.166,0.78-9.493,0.78a4.122,4.122,0,0,1-3.062-1.63l-0.545.2a5.877,5.877,0,0,0,.408,2.11c0.443,0.96,2.246,2.76,3.437,2.76,0.885,0,1.837-.58,3.335-0.99a61.014,61.014,0,0,1,13.032-1.36c4.185,0.1,7.077,1.09,8.234,1.09a1.248,1.248,0,0,0,1.327-1.33c0-1.29-3.062-2.92-4.7-2.92a18.655,18.655,0,0,1-2.688.54c-1.769.1-4.049,0.27-6.431,0.51,0.136-2.31.375-4.9,0.613-6.36a22.648,22.648,0,0,0,.646-2.28c0-.72-0.918-1.36-2.075-1.87,3.538-.41,7.043-0.72,8.336-0.85a1.365,1.365,0,0,0,1.5-1.4c0-.95-2.45-1.97-4.083-1.97-0.851,0-.68.95-5.478,1.7a53.217,53.217,0,0,1-7.486.75,5.7,5.7,0,0,1-3.573-1.6Zm39.311,6.57c0.851,1.83.749,3.3,2.076,3.3a1.454,1.454,0,0,0,1.531-1.5,4.452,4.452,0,0,0-2.314-3.71,11.328,11.328,0,0,0-2.722-1.46l-0.34.37A12.731,12.731,0,0,1,854.609,3541.22Zm11.3,1.56c0.374-.78,1.123-1.26,1.123-1.9,0-1.13-1.974-2.93-3.539-3.03a9.787,9.787,0,0,0-1.769.13l-0.1.45c1.123,0.54,1.735,1.05,1.735,1.63,0,3.13-5.954,12.25-14.563,16.6l0.34,0.55A27.53,27.53,0,0,0,865.906,3542.78Zm-17.183.41c0.885,1.87.953,3.4,2.246,3.4a1.419,1.419,0,0,0,1.5-1.53c0-1.43-.987-2.82-2.688-3.91a10.63,10.63,0,0,0-2.518-1.43l-0.374.37A14.49,14.49,0,0,1,848.723,3543.19Zm42.714,2.89a47.286,47.286,0,0,0,7.315-5.58c0.681-.64,2.042-0.95,2.042-1.77,0-1.02-2.824-3.3-4.015-3.3-0.647,0-1.021.68-2.076,0.99-1.769.51-5.682,1.63-8.54,2.45,0.136-1.94.272-3.57,0.408-4.46,0.2-1.19.919-1.6,0.919-2.52,0-.95-2.416-2.41-4.049-2.41a9.38,9.38,0,0,0-3,.71l0.034,0.58c1.7,0.41,2.688.71,2.791,1.53,0.1,1.29.068,4.63,0.034,7.38-2.416.72-6.533,1.91-7.724,1.91-1.055,0-1.668-.78-2.382-1.67l-0.476.17a4.3,4.3,0,0,0,.2,2.21c0.476,1.09,2.586,2.73,3.606,2.73,1.089,0,1.361-.62,2.688-1.26,1.123-.51,2.655-1.09,4.016-1.6-0.034,2.31-.1,5.44-0.069,7.48,0.069,4.77,2.144,5.31,8,5.31a38.685,38.685,0,0,0,6.975-.71c0.919-.21,1.667-0.55,1.667-1.43,0-1.19-1.7-1.67-2.96-1.67a29.75,29.75,0,0,1-7.009.85c-3.573,0-4.015-.27-4.05-3.13-0.034-2.01.069-4.97,0.239-7.69a81.027,81.027,0,0,1,9.323-2.92c0.476-.11.68,0.17,0.442,0.57a34.887,34.887,0,0,1-4.866,6.71Zm17.7-13.64a22.665,22.665,0,0,1,5.785,5.58c0.884,1.15,1.463,1.66,2.348,1.66a1.747,1.747,0,0,0,1.769-1.83c0-3.17-5.206-5.28-9.527-6.06Zm3.573,18.64c-1.191,0-2.348-1.19-3.232-2.14l-0.511.31a7.334,7.334,0,0,0,.715,2.72c0.714,1.22,2.926,3.06,4.627,3.06,0.885,0,1.293-.99,2.212-1.56,7.69-4.8,13.951-10.55,17.9-17.94l-0.681-.44C928.874,3541.93,915.911,3551.08,912.712,3551.08Zm26.689-18.54a7.208,7.208,0,0,0,.34,2.31c0.409,1.09,1.906,2.86,3.2,2.86,0.918,0,1.191-.75,2.279-1.09,1.77-.51,6.295-1.73,8.1-1.97,0.374-.03.578,0.07,0.408,0.54-2.926,6.81-11.161,15.21-19.191,19.36l0.443,0.72a38.906,38.906,0,0,0,15.754-10.28,23.123,23.123,0,0,1,6.669,6.81c1.429,1.87,2.143,2.92,3.3,2.92a1.693,1.693,0,0,0,1.7-1.76c0-3.41-5.274-6.88-10.821-8.89a59.907,59.907,0,0,0,5.376-7.35c0.409-.61,1.77-1.05,1.77-1.87,0-.95-2.722-3.23-3.981-3.23-0.613,0-1.123.85-1.906,1.06a71.053,71.053,0,0,1-10.173,1.59c-1.157,0-1.94-1.08-2.62-2Z" transform="translate(-810.781 -3459.91)"/>
  <g id="薬用">
    <path id="薬用-2" data-name="薬用" class="cls-2" d="M985.141,3547.85a11.86,11.86,0,0,1-4.707,1.95,4.146,4.146,0,0,1,.581.86c0.223,0.4.238,0.42,0.685,0.3a11.152,11.152,0,0,0,4.766-2.61c-0.015,1.66-.074,2.43-0.074,2.68,0,0.15.015,0.17,0.164,0.17h1.281c0.149,0,.164-0.02.164-0.17,0-.25-0.06-1.09-0.075-2.78a12.232,12.232,0,0,0,5.02,2.68c0.462,0.12.476,0.12,0.685-.3a4.8,4.8,0,0,1,.6-0.96,12.931,12.931,0,0,1-4.975-1.82H991.7c1.355,0,1.817.03,1.906,0.03,0.149,0,.164-0.02.164-0.17v-0.97c0-.15-0.015-0.17-0.164-0.17-0.089,0-.551.03-1.906,0.03h-3.739v-0.84h0.119c1,0,1.341.03,1.43,0.03,0.149,0,.164-0.01.164-0.18,0-.09-0.03-0.45-0.03-1.28v-1.78c0-.83.03-1.2,0.03-1.29,0-.15-0.015-0.17-0.164-0.17-0.089,0-.432.03-1.43,0.03h-0.551a1.109,1.109,0,0,0,.074-0.16,1.174,1.174,0,0,1,.224-0.35,0.291,0.291,0,0,0,.119-0.21c0-.09-0.089-0.14-0.253-0.17-0.373-.07-0.79-0.13-1.281-0.19a2.5,2.5,0,0,1-.149.68c-0.06.16-.105,0.28-0.164,0.4-0.79,0-1.073-.03-1.162-0.03-0.149,0-.164.02-0.164,0.17,0,0.1.03,0.46,0.03,1.29v1.78c0,0.83-.03,1.19-0.03,1.28,0,0.17.015,0.18,0.164,0.18,0.1,0,.417-0.03,1.475-0.03h0.03v0.84h-3.531c-1.355,0-1.817-.03-1.906-0.03-0.149,0-.164.02-0.164,0.17v0.97c0,0.15.015,0.17,0.164,0.17,0.089,0,.551-0.03,1.906-0.03h2.235Zm3.232-3.11h-2.309v-0.81h2.309v0.81Zm0-2.61v0.78h-2.309v-0.78h2.309Zm-5.5-3.62c-1.429,0-1.936-.03-2.025-0.03-0.149,0-.164.01-0.164,0.16v0.98c0,0.15.015,0.16,0.164,0.16,0.089,0,.6-0.03,2.025-0.03h1.55c-0.015.41-.03,0.6-0.03,0.68,0,0.15.015,0.17,0.164,0.17h1.132c0.149,0,.164-0.02.164-0.17,0-.06-0.03-0.27-0.03-0.68h2.785c-0.015.41-.03,0.62-0.03,0.68,0,0.17.015,0.18,0.164,0.18h1.132c0.149,0,.164-0.01.164-0.18,0-.06-0.03-0.27-0.03-0.68h1.669c1.5,0,2.04.03,2.13,0.03,0.149,0,.164-0.01.164-0.16v-0.98c0-.15-0.015-0.16-0.164-0.16-0.09,0-.626.03-2.13,0.03h-1.669a1.353,1.353,0,0,1,.075-0.59,0.636,0.636,0,0,0,.074-0.22c0-.08-0.074-0.12-0.193-0.14-0.4-.04-0.939-0.07-1.445-0.09a7.833,7.833,0,0,1,.089,1.04h-2.785a1.437,1.437,0,0,1,.074-0.6,0.466,0.466,0,0,0,.075-0.21c0-.08-0.06-0.12-0.194-0.14-0.4-.04-0.983-0.07-1.445-0.09a8.972,8.972,0,0,1,.09,1.04h-1.55Zm7.269,5.51a0.249,0.249,0,0,0-.074.16,0.142,0.142,0,0,0,.1.12,19.453,19.453,0,0,1,2.562,1.67c0.134,0.11.164,0.09,0.283-.1l0.551-.84a0.388,0.388,0,0,0,.075-0.17,0.169,0.169,0,0,0-.1-0.12,16.259,16.259,0,0,0-2.458-1.5,2.705,2.705,0,0,0,.283-0.17,15.4,15.4,0,0,0,1.534-1.06,1.732,1.732,0,0,1,.4-0.29,0.208,0.208,0,0,0,.179-0.19,0.349,0.349,0,0,0-.134-0.26,13,13,0,0,0-1.013-.83,3.076,3.076,0,0,1-.432.5,7.772,7.772,0,0,1-1.817,1.28,4.258,4.258,0,0,1,.626.7,1.7,1.7,0,0,0,.148.23c-0.074-.02-0.1.03-0.178,0.13Zm-6.077-1.01a13.63,13.63,0,0,1-2.473,1.34,5.867,5.867,0,0,1-.863.29c0.178,0.46.357,0.91,0.521,1.27a0.262,0.262,0,0,0,.208.18,0.3,0.3,0,0,0,.224-0.13,1.207,1.207,0,0,1,.417-0.29c0.655-.33,1.266-0.63,1.892-1.02,0.387-.24.387-0.24,0.268-0.71A9,9,0,0,1,984.068,3543.01Zm-2.919-1.65a0.31,0.31,0,0,0-.09.17,0.179,0.179,0,0,0,.09.12,10.771,10.771,0,0,1,1.787,1.41c0.119,0.1.149,0.1,0.3-.08l0.626-.76a0.277,0.277,0,0,0,.089-0.15,0.206,0.206,0,0,0-.089-0.15,12.361,12.361,0,0,0-1.818-1.32c-0.134-.08-0.193-0.1-0.3.03Zm28.431-.64c0-1.57.03-2.38,0.03-2.47,0-.16-0.02-0.18-0.17-0.18-0.1,0-.61.03-2.05,0.03h-7c-1.433,0-1.954-.03-2.043-0.03-0.164,0-.179.02-0.179,0.18,0,0.09.03,0.9,0.03,2.47v2.46c0,3.62-.447,5.41-1.535,6.82a3.883,3.883,0,0,1,1.058.76,0.591,0.591,0,0,0,.313.24,0.471,0.471,0,0,0,.268-0.3,9.465,9.465,0,0,0,1.3-4.16h3.392v1.79c0,1.46-.03,2.12-0.03,2.22,0,0.15.02,0.17,0.17,0.17h1.28c0.15,0,.16-0.02.16-0.17,0-.09-0.03-0.76-0.03-2.22v-1.79h3.5v2.5a0.41,0.41,0,0,1-.47.49c-0.49,0-.78-0.01-1.39-0.06a4.065,4.065,0,0,1,.42,1.14c0.1,0.45.09,0.44,0.55,0.44a2.887,2.887,0,0,0,1.97-.39,1.456,1.456,0,0,0,.49-1.22c0-.61-0.03-1.38-0.03-2.07v-6.65Zm-5.04,4.43v-2.12h3.5v2.12h-3.5Zm3.5-5.61v2.09h-3.5v-2.09h3.5Zm-8.338,5.61c0.03-.59.045-1.24,0.045-1.96v-0.16h3.243v2.12H999.7Zm0.045-3.52v-2.09h3.243v2.09h-3.243Z" transform="translate(-810.781 -3459.91)"/>
    <rect id="長方形_571" data-name="長方形 571" class="cls-3" x="161.219" y="71.09" width="47" height="27" rx="4" ry="4"/>
  </g>
</svg>
