<svg id="name-tm_sp.svg" xmlns="http://www.w3.org/2000/svg" width="218.844" height="104.35" viewBox="0 0 218.844 104.35">
  <defs>
    <style>
      .cls-1 {
        fill: #956f17;
        opacity: 0.7;
      }

      .cls-1, .cls-2 {
        fill-rule: evenodd;
      }

      .cls-2 {
        fill: #8c6c14;
      }
    </style>
  </defs>
  <path id="Toughness_UV_milk" data-name="Toughness UV milk" class="cls-1" d="M282.906,5784.47v-1.92h-8.168v1.92H277.8v11.43h2.042v-11.43h3.063Zm10.1-2.16a6.925,6.925,0,1,0,6.947,6.92A6.77,6.77,0,0,0,293.005,5782.31Zm0,11.97a5.047,5.047,0,1,1,4.905-5.05A4.779,4.779,0,0,1,293.005,5794.28Zm11.494-11.73v8.59a4.934,4.934,0,0,0,1.241,3.46,5.176,5.176,0,0,0,7.407,0,4.934,4.934,0,0,0,1.241-3.46v-8.59h-2.042v8.05a4.662,4.662,0,0,1-.42,2.3,2.923,2.923,0,0,1-4.965,0,4.662,4.662,0,0,1-.42-2.3v-8.05H304.5Zm21.986,8.29h3.324a3.575,3.575,0,0,1-1.122,2.26,4.011,4.011,0,0,1-2.982,1.18,4.339,4.339,0,0,1-3.344-1.34,5.547,5.547,0,0,1,.04-7.37,4.822,4.822,0,0,1,3.524-1.38,4.5,4.5,0,0,1,2.362.58,5.444,5.444,0,0,1,1.642,1.52l1.621-1.14a6.064,6.064,0,0,0-2.162-2,7.228,7.228,0,0,0-3.483-.84,7.107,7.107,0,0,0-4.985,12.03,5.82,5.82,0,0,0,4.544,1.82,6.248,6.248,0,0,0,4.545-1.7,7.288,7.288,0,0,0,1.982-5.41v-0.1h-5.506v1.89Zm12.095-8.29h-2.042v13.35h2.042v-6.15h5.726v6.15h2.042v-13.35h-2.042v5.28H338.58v-5.28Zm15,13.35v-9.33l9.69,10.15v-14.17h-2.042v9.25l-9.69-10.15v14.25h2.042Zm22.245-13.35h-7.367v13.35h7.367v-1.92H370.5v-4.21h5.165v-1.92H370.5v-3.38h5.325v-1.92Zm12.04,2a4.546,4.546,0,0,0-1.021-1.34,3.939,3.939,0,0,0-2.683-.9,3.6,3.6,0,0,0-3.9,3.52,3.764,3.764,0,0,0,2.723,3.38l1.281,0.54a2.5,2.5,0,0,1,1.922,2.29,2.144,2.144,0,0,1-2.2,2.24,2.109,2.109,0,0,1-1.742-.8,2.881,2.881,0,0,1-.56-1.7l-2.022.44a4.314,4.314,0,0,0,1.121,2.6,3.908,3.908,0,0,0,3.143,1.34,4.113,4.113,0,0,0,4.3-4.28c0-1.53-.68-2.93-3.143-3.93l-1.341-.54c-1.3-.52-1.442-1.22-1.442-1.62a1.655,1.655,0,0,1,1.882-1.6,2.066,2.066,0,0,1,2.042,1.32Zm12.32,0a4.563,4.563,0,0,0-1.021-1.34,3.943,3.943,0,0,0-2.683-.9,3.6,3.6,0,0,0-3.9,3.52,3.764,3.764,0,0,0,2.723,3.38l1.281,0.54a2.5,2.5,0,0,1,1.922,2.29,2.144,2.144,0,0,1-2.2,2.24,2.109,2.109,0,0,1-1.742-.8,2.881,2.881,0,0,1-.56-1.7l-2.022.44a4.314,4.314,0,0,0,1.121,2.6,3.906,3.906,0,0,0,3.143,1.34,4.113,4.113,0,0,0,4.3-4.28c0-1.53-.681-2.93-3.143-3.93l-1.341-.54c-1.3-.52-1.442-1.22-1.442-1.62a1.655,1.655,0,0,1,1.882-1.6,2.066,2.066,0,0,1,2.042,1.32Zm11.572-2v8.59A4.934,4.934,0,0,0,413,5794.6a5.176,5.176,0,0,0,7.407,0,4.935,4.935,0,0,0,1.242-3.46v-8.59h-2.042v8.05a4.652,4.652,0,0,1-.421,2.3,2.923,2.923,0,0,1-4.965,0,4.662,4.662,0,0,1-.42-2.3v-8.05h-2.042Zm13.558,0,5.926,14.21,5.926-14.21h-2.2l-3.724,9.31-3.724-9.31h-2.2Zm23.863,13.35,1.4-8.07,3.844,8.69,3.884-8.67,1.361,8.05h2.082l-2.522-14.35-4.685,10.37-4.645-10.37-2.8,14.35h2.082Zm17.358-13.35v13.35h2.042v-13.35h-2.042Zm7.24,0v13.35h5.965v-1.92h-3.923v-11.43h-2.042Zm11.921,0h-2.042v13.35H485.7v-5.53l0.4-.4,4.765,5.93h2.722l-6.066-7.31,6.026-6.04h-2.682l-5.166,5.32v-5.32Z" transform="translate(-274.75 -5781.53)"/>
  <path id="タフネスUV_ミルク" data-name="タフネスUV ミルク" class="cls-2" d="M298.507,5819.74a34.742,34.742,0,0,1-4.747,8.31,50.415,50.415,0,0,0-8.657-3.64,47.51,47.51,0,0,0,3.949-4.52,2.932,2.932,0,0,0,1.4.68,8.348,8.348,0,0,0,2.126-.49,36.2,36.2,0,0,1,5.506-.99C298.507,5819.05,298.734,5819.24,298.507,5819.74Zm-13.138-7.1c1.291,0.64,2.2,1.36,2.2,2.09,0,2.35-6.151,11.05-11.961,15.64l0.532,0.72a33.548,33.548,0,0,0,8.163-5.92,26.488,26.488,0,0,1,7.709,5.05,52.91,52.91,0,0,1-16.1,12.87l0.493,0.8a44.4,44.4,0,0,0,17.733-11.36c2.468,2.89,3.038,4.33,4.443,4.3a1.765,1.765,0,0,0,1.746-1.98c-0.076-1.71-1.708-3.45-3.835-5.01a56.854,56.854,0,0,0,5.62-8.43c0.494-.95,1.974-1.33,1.974-2.17,0-1.32-3.075-3.34-4.1-3.34-0.76,0-1.216.84-2.241,1.1a47.463,47.463,0,0,1-7.328.99l1.025-1.59c0.608-.99,1.139-1.26,1.139-1.98,0-.87-2.468-2.28-4.594-2.47a8.817,8.817,0,0,0-2.468.08Zm27.4,3.07-0.608.23a9.115,9.115,0,0,0,.266,2.43c0.38,1.22,2.354,3.42,3.8,3.42,0.8,0,1.747-.8,2.658-1.06a114.881,114.881,0,0,1,13.746-2.21c0.341,0,.531.12,0.417,0.53-2.088,8.59-9.379,17.47-19.973,22.94l0.494,0.8c11.847-4.1,18.72-11.24,23.049-20.58,0.569-1.22,2.05-1.94,2.05-3.04,0-1.22-3.342-3.99-4.822-3.99-0.912,0-1.367.72-2.7,1.03-1.937.41-12.569,1.52-15.227,1.52C314.519,5817.73,313.646,5816.7,312.773,5815.71Zm39.7-4.44a17.971,17.971,0,0,1,4.556,3.87c0.95,1.41,1.329,2.21,2.468,2.21a1.918,1.918,0,0,0,1.937-1.9c0-2.85-4.443-4.29-8.582-4.75Zm-6.759,7.9a6.905,6.905,0,0,0,.3,2.69c0.531,1.33,2.354,2.85,3.493,2.85,1.025,0,1.329-.95,2.544-1.33,1.975-.57,7.442-1.97,8.695-2.09,0.494-.03.532,0.12,0.266,0.57-2.924,5.13-12.3,12.42-20.086,16.45l0.455,0.83a51.758,51.758,0,0,0,15.341-8.43,9.589,9.589,0,0,1,.037,1.06,56.748,56.748,0,0,1-.417,6.61,16.121,16.121,0,0,0-.38,2.51c0,1.18.835,3.23,2.126,3.23,1.519,0,1.747-1.22,1.747-2.24,0-.84-0.19-2.43-0.19-3.76,0-5.43.228-6.84,0.228-7.79a2.216,2.216,0,0,0-.911-1.48,46.624,46.624,0,0,0,5.923-6.11c0.494-.61,2.241-0.95,2.241-1.86,0-.99-2.772-2.93-3.987-2.93-0.684,0-.874.76-2.2,1.1a96.013,96.013,0,0,1-11.961,1.9c-1.139,0-1.936-.98-2.7-1.97Zm16.062,9.91a17.575,17.575,0,0,1,6.759,6.11c0.911,1.33,1.4,1.64,2.24,1.64a1.711,1.711,0,0,0,1.747-1.71c0-3.61-4.709-6.08-10.4-6.69Zm18.48-12.84a8.111,8.111,0,0,0,.38,2.59c0.455,1.21,2.126,3.19,3.569,3.19,1.025,0,1.329-.84,2.544-1.22,1.974-.57,7.025-1.94,9.037-2.2,0.418-.04.646,0.07,0.456,0.61-3.266,7.59-12.455,16.97-21.416,21.6l0.494,0.8a43.374,43.374,0,0,0,17.58-11.47c3.494,2.2,5.392,4.75,7.443,7.6,1.594,2.08,2.392,3.26,3.683,3.26a1.894,1.894,0,0,0,1.9-1.97c0-3.8-5.885-7.67-12.074-9.91a68.239,68.239,0,0,0,6-8.2c0.456-.69,1.974-1.18,1.974-2.09,0-1.07-3.037-3.61-4.442-3.61-0.684,0-1.253.95-2.127,1.18a79.412,79.412,0,0,1-11.353,1.78c-1.291,0-2.164-1.21-2.924-2.24Zm59.112-2.43H429.348v1.37l4.367,0.57,0.076,13.9c0.038,7.29-2.43,10.06-7.215,10.06-4.366,0-6.948-2.39-6.948-9.53v-3.46c0-3.75,0-7.44.075-11.08l4.063-.46v-1.37H411.692v1.37l3.417,0.38c0.114,3.72.114,7.48,0.114,11.16v4.33c0,8.21,4.177,11.43,10.366,11.43,6.037,0,9.91-3.57,9.948-12.11l0.076-14.66,3.76-.53v-1.37Zm29.945,0h-9.493v1.49l3.949,0.45-6.645,20.89-7.215-20.96,4.063-.38v-1.49H442.13v1.37l3.038,0.34,9.682,26.51h2.165l8.847-26.39,3.456-.53v-1.3Zm-177.307,44.36c-2.772-1.29-7.594-1.9-12-2.09l-0.152.72c4.937,1.48,7.595,2.74,10.67,4.98,1.329,1.02,1.823,1.55,2.924,1.55a1.646,1.646,0,0,0,1.557-1.63C295.011,5860.33,294.289,5859.23,292.011,5858.17Zm-13.783,7.86a44.326,44.326,0,0,1,9.492,4.59c1.291,0.88,1.937,1.33,2.772,1.33a1.584,1.584,0,0,0,1.633-1.67c0-1.44-1.139-2.35-2.772-3.07a30.3,30.3,0,0,0-10.935-1.9Zm-1.253,10.55A39.3,39.3,0,0,1,290,5882.74c1.443,1.14,2.544,2.05,3.607,2.05a1.679,1.679,0,0,0,1.937-1.83c0-1.06-.988-2.27-2.621-3.26-3.341-2.01-9.834-3.61-15.758-3.87Zm40.465-18.03c1.86,0.3,2.886.83,2.924,1.86,0.227,3.64.038,13.59-.114,15.57-0.152,1.48-.608,1.9-0.608,2.66,0,0.94,1.937,3.34,3.114,3.34,0.949,0,1.557-1.18,2.43-1.75,4.9-3.08,10.328-7.75,13.556-12.76l-0.684-.53a48,48,0,0,1-13.973,9.64c-0.456.19-.722,0.04-0.722-0.49-0.038-2.77.228-11.77,0.494-13.78,0.152-1.33,1.025-1.45,1.025-2.36,0-1.1-2.848-2.81-4.67-2.81a5.858,5.858,0,0,0-2.81.73Zm-5.126,6.42c0,5.08-3.759,13.1-9.645,18.11l0.57,0.68a24.671,24.671,0,0,0,12.644-16.71c0.19-.95.987-1.48,0.987-2.39,0-1.37-3.113-3.04-4.708-3.11a7.079,7.079,0,0,0-2.62.49v0.72C310.681,5863.14,312.314,5863.75,312.314,5864.97Zm45.1-4.33c0.494-.69.949-1.41,1.367-2.09,0.608-.99,1.1-1.25,1.1-1.98,0-.87-2.506-2.27-4.594-2.46a8.706,8.706,0,0,0-2.506.07l-0.152.61c1.291,0.61,2.24,1.37,2.24,2.09,0,2.31-5.278,9.95-11.315,14.65l0.531,0.73a34.868,34.868,0,0,0,12.037-9.88,3.217,3.217,0,0,0,1.709.91,8.348,8.348,0,0,0,2.126-.49,34.5,34.5,0,0,1,5.24-.95c0.38,0,.57.19,0.38,0.69-3.076,7.74-11.961,17.42-21.644,22.55l0.494,0.8c11.695-4.41,19.479-12.15,24.909-21.72,0.608-1.06,1.975-1.41,1.975-2.36,0-1.29-3.228-3.15-4.253-3.15-0.76,0-1.253.84-2.278,1.1a44.611,44.611,0,0,1-7.063.88h-0.3Z" transform="translate(-274.75 -5781.53)"/>
</svg>
