<?xml version="1.0" encoding="utf-8"?>
<!-- Generator: Adobe Illustrator 26.0.3, SVG Export Plug-In . SVG Version: 6.00 Build 0)  -->
<svg version="1.1" id="name-mousse.svg" xmlns="http://www.w3.org/2000/svg" xmlns:xlink="http://www.w3.org/1999/xlink" x="0px"
	 y="0px" viewBox="0 0 360 102.4" style="enable-background:new 0 0 360 102.4;" xml:space="preserve">
<style type="text/css">
	.st0{opacity:0.7;fill-rule:evenodd;clip-rule:evenodd;fill:#AA7CB7;enable-background:new    ;}
	.st1{fill:#AA7CB7;}
</style>
<path id="ALL_IN_ONE_UV_MOUSSE__00000104671542402126107830000012998091692553793409_" class="st0" d="M10.8,14.4H13L6.6,0.2L0,14.4
	h2.2l1.5-3.2h5.7L10.8,14.4z M4.5,9.2l2.1-4.5l2,4.5H4.5z M16.6,1v13.4h6v-1.9h-3.9V1H16.6L16.6,1z M26.5,1v13.4h6v-1.9h-3.9V1H26.5
	z M43.1,1v13.4h2V1H43.1z M52.3,14.4V5L62,15.2V1h-2v9.2L50.3,0.1v14.2L52.3,14.4L52.3,14.4z M80.2,0.8c-3.8,0-6.9,3.1-6.9,6.9
	s3.1,6.9,6.9,6.9s6.9-3.1,6.9-6.9c0.1-3.7-2.9-6.8-6.6-6.9C80.4,0.8,80.3,0.8,80.2,0.8L80.2,0.8z M80.2,12.7
	c-2.8,0.1-5.1-2.1-5.2-4.9s2.1-5.1,4.9-5.2s5.1,2.1,5.2,4.9v0.1c0.2,2.6-1.9,4.9-4.5,5C80.5,12.7,80.3,12.7,80.2,12.7L80.2,12.7z
	 M93.7,14.4V5l9.7,10.1V1h-2v9.2L91.7,0.1v14.2L93.7,14.4L93.7,14.4z M116,1h-7.4v13.4h7.4v-1.9h-5.3V8.2h5.2V6.3h-5.2V2.9h5.3V1
	L116,1z M127.3,1v8.6c0,1.3,0.4,2.5,1.2,3.5c2,2,5.3,2.1,7.3,0.1l0.1-0.1c0.8-1,1.3-2.2,1.2-3.5V1h-2v8c0.1,0.8-0.1,1.6-0.4,2.3
	c-0.9,1.4-2.7,1.8-4,0.9c-0.4-0.2-0.7-0.6-0.9-0.9c-0.3-0.7-0.5-1.5-0.4-2.3V1H127.3L127.3,1z M140.8,1l5.9,14.2l6-14.2h-2.2
	l-3.7,9.3L143,1H140.8L140.8,1z M164.7,14.4l1.4-8.1l3.8,8.7l3.9-8.7l1.4,8h2.1L174.7,0L170,10.4L165.4,0l-2.8,14.4H164.7z
	 M188.3,0.8c-3.8,0-6.9,3.1-6.9,6.9s3.1,6.9,6.9,6.9c3.8,0,6.9-3.1,6.9-6.9c0.1-3.7-2.9-6.8-6.6-6.9C188.6,0.8,188.5,0.8,188.3,0.8
	L188.3,0.8z M188.3,12.7c-2.8,0.1-5.1-2.1-5.2-4.9s2.1-5.1,4.9-5.2c2.8-0.1,5.1,2.1,5.2,4.9v0.1c0.2,2.6-1.9,4.9-4.5,5
	C188.6,12.7,188.5,12.7,188.3,12.7L188.3,12.7z M199.8,1v8.6c0,1.3,0.4,2.5,1.2,3.5c2,2,5.3,2.1,7.3,0.1l0.1-0.1
	c0.8-1,1.3-2.2,1.2-3.5V1h-2v8c0.1,0.8-0.1,1.6-0.4,2.3c-0.9,1.4-2.7,1.8-4,0.9c-0.4-0.2-0.7-0.6-0.9-0.9c-0.3-0.7-0.5-1.5-0.4-2.3
	V1H199.8L199.8,1z M222.3,3c-0.3-0.5-0.6-1-1-1.3c-0.8-0.6-1.7-0.9-2.7-0.9c-2-0.2-3.7,1.3-3.9,3.3c0,0.1,0,0.2,0,0.2
	c0.1,1.6,1.2,2.9,2.7,3.4l1.3,0.5c1.1,0.3,1.9,1.2,1.9,2.3c0.1,1.2-0.9,2.2-2,2.2c-0.1,0-0.1,0-0.2,0c-0.7,0-1.3-0.3-1.7-0.8
	s-0.6-1.1-0.6-1.7l-2,0.4c0.1,1,0.5,1.9,1.1,2.6c0.8,0.9,1.9,1.4,3.1,1.3c2.3,0.1,4.2-1.6,4.3-3.9c0-0.1,0-0.2,0-0.4
	c0-1.5-0.7-2.9-3.1-3.9l-1.3-0.5c-1.3-0.5-1.4-1.2-1.4-1.6c0-0.9,0.8-1.6,1.7-1.6c0.1,0,0.1,0,0.2,0c0.9,0,1.7,0.5,2,1.3L222.3,3z
	 M234.6,3c-0.3-0.5-0.6-1-1-1.3c-0.8-0.6-1.7-0.9-2.7-0.9c-2-0.2-3.7,1.3-3.9,3.3c0,0.1,0,0.2,0,0.2c0.1,1.6,1.2,2.9,2.7,3.4
	l1.3,0.5c1.1,0.3,1.9,1.2,1.9,2.3c0.1,1.2-0.9,2.2-2,2.2c-0.1,0-0.1,0-0.2,0c-0.7,0-1.3-0.3-1.7-0.8s-0.6-1.1-0.6-1.7l-2,0.4
	c0.1,1,0.5,1.9,1.1,2.6c0.8,0.9,1.9,1.4,3.1,1.3c2.3,0.1,4.2-1.6,4.3-3.9c0-0.1,0-0.2,0-0.4c0-1.5-0.7-2.9-3.1-3.9l-1.3-0.5
	c-1.3-0.5-1.4-1.2-1.4-1.6c0-0.9,0.8-1.6,1.7-1.6c0.1,0,0.1,0,0.2,0c0.9,0,1.7,0.5,2,1.3L234.6,3z M246.9,1h-7.4v13.4h7.4v-1.9h-5.3
	V8.2h5.2V6.3h-5.2V2.9h5.3V1L246.9,1z"/>
<g>
	<path class="st1" d="M9.9,48c4.5,2,6.1,3.7,6.1,7c0,3.9-3.1,6.5-8.3,6.5c-2.5,0-5.1-0.7-6.7-1.8l0.2-5h1.7L4,59.6
		c1,0.4,2,0.6,3.2,0.6c3.1,0,5-1.5,5-3.9c0-2.1-1-3.1-3.6-4.3l-1.3-0.6c-3.8-1.7-5.9-3.6-5.9-7.1c0-3.9,3.2-6.2,7.8-6.2
		c2.4,0,4.3,0.6,5.8,1.7l-0.2,4.8h-1.7l-1.2-4.7c-0.7-0.3-1.3-0.4-2.3-0.4c-2.7,0-4.5,1.3-4.5,3.7c0,2.1,1.2,3.3,3.4,4.3L9.9,48z"/>
	<path class="st1" d="M40,39.7l-3,0.4l-0.1,11.6c0,6.8-3,9.8-8.1,9.8c-5,0-8.5-2.5-8.5-9.2V49c0-2.9,0-5.9-0.1-8.9l-2.7-0.3v-1h10.1
		v1L24.5,40c-0.1,2.9-0.1,5.9-0.1,8.9v2.8c0,5.5,2,7.6,5.5,7.6c3.6,0,5.7-2.2,5.6-7.8l-0.1-11.2l-3.3-0.6v-1h8v1H40z"/>
	<path class="st1" d="M64.1,39.7l-2.8,0.4l-0.1,21h-2.1L45.9,42.4L46,59.5l3.8,0.4v1h-8.1v-1l2.8-0.3v-19L44,40l-2.3-0.3v-1H48
		l11.8,16.4l-0.1-14.8l-3.8-0.5v-1H64L64.1,39.7L64.1,39.7L64.1,39.7z"/>
	<path class="st1" d="M84.4,59.8c-2,1-4,1.8-6.7,1.8c-6.6,0-11.6-4.3-11.6-11.7c0-7.6,5.3-11.7,11.7-11.7c2.4,0,4.4,0.5,6.3,1.7
		L84,45h-1.8l-1.3-5.2c-0.8-0.3-1.8-0.5-2.7-0.5c-4.5,0-7.8,3.4-7.8,10.5s3.3,10.5,7.8,10.5c1,0,2-0.2,2.9-0.6l1.3-5.1h1.8
		L84.4,59.8z"/>
	<path class="st1" d="M108.9,39.7l-3,0.4l-0.2,11.6c0,6.8-3,9.8-8.1,9.8c-5,0-8.5-2.5-8.5-9.2V49c0-2.9,0-5.9-0.1-8.9l-2.7-0.3v-1
		h10.1v1L93.3,40c-0.1,2.9-0.1,5.9-0.1,8.9v2.8c0,5.5,2,7.6,5.5,7.6c3.6,0,5.7-2.2,5.6-7.8l-0.1-11.2l-3.5-0.4v-1h8v0.8
		C108.7,39.7,108.9,39.7,108.9,39.7z"/>
	<path class="st1" d="M122.1,39.9c-0.1,3-0.1,6.1-0.1,9.1v1.5c0,3,0,6,0.1,9.1l3.2,0.3v1h-10.8v-1l3.2-0.3c0-3,0-6,0-9.1V49
		c0-3,0-6.1,0-9.1H113l-1.2,5h-1.7l0.2-6.2h19.1l0.2,6.2H128l-1.2-5H122.1z"/>
	<path class="st1" d="M161.5,39.7l-3,0.4l-0.1,11.6c0,6.8-3,9.8-8.1,9.8c-5,0-8.5-2.5-8.5-9.2V49c0-2.9,0-5.9-0.1-8.9l-2.7-0.3v-1
		h10.1v1L146,40c-0.1,2.9-0.1,5.9-0.1,8.9v2.8c0,5.5,2,7.6,5.4,7.6c3.6,0,5.7-2.2,5.6-7.8l-0.1-11.2l-3.5-0.4v-1h8v0.8
		C161.3,39.7,161.5,39.7,161.5,39.7z"/>
	<path class="st1" d="M184.2,39.6l-2.7,0.4l-7.1,21h-2.2l-7.6-21.2l-2.3-0.2v-1h10v1l-3.1,0.3l5.6,16.6L180,40l-3.1-0.4v-1h7.5v1
		H184.2z"/>
	<path class="st1" d="M201.6,57.8c-0.1,0.2-1.3,0.8-2.3,0.8h-0.4v-2.5h-2.1v3.1c0,0.2-0.8,0.9-2.3,0.9H194V37.3l3.1,1.2h1.3l1.3-1.6
		l2.9,2.3c-0.2,0.2-0.6,0.5-1.2,0.6v17.8h0.2V57.8z M196.7,39.5v7.4h2.1v-7.4H196.7z M198.9,55.3v-7.6h-2.1v7.6H198.9z M215.1,47.5
		v2h1.6l1.3-1.3l2.8,2.1c-0.1,0.2-0.5,0.4-1,0.5v2.8c0,0.2-1.3,0.8-2.4,0.8h-0.5v-0.8h-11.2c-0.3,3.3-1.1,7.4-4.4,10.2l-0.3-0.3
		c1.9-3.9,2-8.8,2-12.8v-5.3l0.2,0.1v-6.6l2.5,1h2.6l1.1-1.1l2.3,1.8c-0.1,0.2-0.4,0.3-0.8,0.4v3.3c0.6,0.1,1,0.2,1.5,0.4v-5.8
		l2.5,1h2.4l1.1-1.1l2.4,1.8c-0.1,0.2-0.4,0.3-0.9,0.4v3.4c0,0.1-0.6,0.5-1.1,0.6c0.6,0.5,1.7,1.3,2.4,2c-0.1,0.3-0.3,0.5-0.8,0.5
		h-5.1l0,0C215.3,47.5,215.1,47.5,215.1,47.5z M202.4,38.4l-0.2-0.8h5.5l1.3-1.8c0,0,1.6,1.2,2.5,2.2c-0.1,0.3-0.3,0.5-0.7,0.5h-8.4
		L202.4,38.4L202.4,38.4z M203.2,45.5l3,1.1h4.7c-0.1-0.6-0.4-1.2-0.8-1.8c-0.4,0.2-0.9,0.3-1.5,0.3h-0.2v-4.6h-2.9v4.1
		c0,0.2-1,0.7-2,0.7h-0.3V45.5z M210.7,55.6c0,0,1.1,1,1.9,1.9c-0.1,0.3-0.3,0.5-0.7,0.5H209v2c1-0.2,2.2-0.3,3.3-0.6l0.1,0.4
		c-0.8,0.6-2.7,1.8-4.8,2.9c-0.2,0.4-0.5,0.6-0.8,0.8l-1.7-3c0.8-0.5,1-0.7,1-1.2V54l3.6,0.3c-0.1,0.3-0.3,0.6-0.8,0.6V57h0.7
		L210.7,55.6z M205.8,41.4c4,0.8,2.3,3.9,0.7,2.6c0-0.8-0.5-1.9-1.1-2.4L205.8,41.4z M205.8,50.6c0,0.6,0,1.2,0,2h2v-2.4h-1.9v0.4
		H205.8z M205.8,49.5h1.9v-2h-1.9V49.5z M212.4,47.5h-2v2h2V47.5z M210.4,52.7h2v-2.4h-2V52.7z M212,38.4l-0.2-0.8h5l1.5-1.9
		c0,0,1.7,1.2,2.7,2.3c-0.1,0.3-0.4,0.5-0.8,0.5L212,38.4L212,38.4z M219.8,60.1c0.7,0.3,0.8,0.6,0.8,1.1c0,1.1-1,1.6-3.9,1.6H215
		c-2.2,0-2.4-0.6-2.4-2.3V54l3.6,0.3c-0.1,0.4-0.3,0.6-0.8,0.7v2.1h1l1.2-1.8c0,0,1.5,1.2,2.2,2.2c-0.1,0.3-0.3,0.5-0.8,0.5h-3.6v2
		c0,0.3,0.1,0.4,0.5,0.4h1h1c0.2,0,0.4-0.1,0.5-0.2c0.2-0.3,0.5-1,0.8-2h0.3L219.8,60.1z M214.6,40.7v0.8h0.1c4,0.8,2.3,3.8,0.7,2.6
		c0-0.6-0.3-1.6-0.8-2.1v2.5c0,0.2-0.8,0.6-1.8,0.7c0.3,0.5,0.2,1-0.1,1.5h3.8l1.1-1.5h-0.4v-4.5H214.6L214.6,40.7L214.6,40.7z
		 M215.1,50.3v2.4h1.8v-2.4H215.1z"/>
	<path class="st1" d="M247.5,35.2c0,0,2.4,1.8,3.8,3.1c-0.1,0.3-0.4,0.5-0.8,0.5h-3.7v20.3c0,2.4-0.7,4.1-5.4,4.5
		c-0.1-1.1-0.3-2.1-1-2.6s-1.7-0.9-3.8-1.2v-0.4c0,0,4.9,0.3,5.8,0.3c0.6,0,0.8-0.2,0.8-0.7V38.9h-20l-0.2-0.8h22.4L247.5,35.2z
		 M238.4,55.4c0,0.2-1.8,0.8-2.9,0.8h-0.6v-2.5h-5.2v2.6c0,0.3-1.5,1-2.9,1h-0.5V42.4l3.5,1.5h4.8l1.6-1.8l3.3,2.5
		c-0.2,0.2-0.6,0.5-1.2,0.6L238.4,55.4L238.4,55.4z M235,52.9v-8.1h-5.2v8.1H235z"/>
	<path class="st1" d="M258.5,45.4c-1.5,1.6-3.2,3-5.2,4.1l-0.3-0.4c2.2-2.2,3.7-5.2,4.7-8.2h-4l-0.2-0.8h5.2v-4.8l4.4,0.4
		c-0.1,0.4-0.3,0.7-1.1,0.8V40h0.6l1.6-2.2c0,0,1.9,1.6,3,2.6c-0.1,0.3-0.4,0.5-0.8,0.5h-4.5v1.3c7.2,1.1,4.5,6.1,1.9,4.1
		c-0.1-1.2-1-2.7-1.9-3.6V50c0,0.3-1.5,0.8-2.6,0.8h-0.6v-5.4C258.7,45.4,258.5,45.4,258.5,45.4z M278.2,39.9c0,0,2,1.6,3.1,2.6
		c-0.1,0.3-0.3,0.5-0.8,0.5h-3.7v6.8c0,0.1-1,0.7-2.7,0.7h-0.6V43h-3c-0.1,2.2-0.8,4.8-3.9,6.7l4.3,0.6c-0.1,0.5-0.5,0.7-1.2,0.8
		c-0.6,0.4-1.7,1-2.4,1.6h5.8l1.7-1.8l3.4,2.6c-0.2,0.2-0.6,0.5-1.1,0.6v8.5c0,0.2-1.8,0.8-2.9,0.8h-0.6v-1.7h-11.7v0.8
		c0,0.3-1.6,1-3,1h-0.5V51.3l3.7,1.5h3.5c0.1-0.7,0.2-1.7,0.3-2.5c-0.5,0.3-1,0.5-1.7,0.7l-0.2-0.3c3.1-2.5,3.5-5.7,3.5-8.5v-4.7
		l3.5,1c2.3-0.9,4.7-2.1,6-2.9l3.2,3.1c-0.3,0.3-1,0.3-1.9,0c-2,0.3-5,0.7-7.7,0.8v2.8h6L278.2,39.9z M261.5,53.5v3.2h11.7v-3.2
		H261.5z M273.2,60.9v-3.3h-11.7v3.3H273.2z"/>
	<path class="st1" d="M6.8,84.3c5.5,2.8,2.9,7,0.9,5c0.1-1.2-0.3-2.9-0.9-4v15.6c0,0.3-1.3,1.1-2.5,1.1H3.7V90.2
		c-0.9,1.8-2,3.2-3.3,4.7L0,94.6c1.8-3.4,2.8-8.1,3.3-12.4H0.5l-0.2-0.8h3.5v-7.5l4.3,0.4C8,74.7,7.8,75,7,75.1v6L8.2,79
		c0,0,1.7,1.6,2.5,2.6c-0.1,0.3-0.3,0.5-0.7,0.5H6.8V84.3z M25.3,97.7c0,0,2.1,1.6,3.3,2.7c-0.1,0.3-0.4,0.5-0.8,0.5H8.6l-0.2-0.8
		h15.1L25.3,97.7z M10.1,77.2l-0.2-0.8h13.5L25,74c0,0,2,1.6,3.1,2.7c-0.1,0.3-0.3,0.5-0.8,0.5h-9.8c-0.4,1.2-1.1,2.8-1.7,4h1.6
		l1.7-1.7L22,82c-0.2,0.2-0.6,0.4-1.2,0.5c-0.2,10.7-0.5,14.2-2,15.7c-0.9,0.9-2.1,1.2-3.4,1.2c0-1-0.1-1.8-0.4-2.2s-1-0.8-2-1v-0.4
		c0.8,0.2,2,0.2,2.6,0.2c0.4,0,0.6-0.1,0.9-0.3c0.8-0.8,1-4.8,1.2-13.7h-2l-1.2,1.3l-3-2c0.3-0.2,0.8-0.5,1.2-0.7
		c0.5-1.1,1-2.6,1.5-3.5L10.1,77.2L10.1,77.2z M13.8,94.2V93h-1.3v1.6c0,0.2-1,0.7-2,0.7h-0.3V83.7l2.4,1h1l1-1l2.3,1.8
		c-0.1,0.1-0.5,0.3-0.8,0.4v7.7c0,0.2-1.1,0.7-2,0.7L13.8,94.2L13.8,94.2z M13.8,92.1v-6.5h-1.3v6.5H13.8z M28.3,83.4
		c-0.2,0.3-0.4,0.3-1,0.4c-0.2,2-0.6,3.8-1.3,5.7c3.6,4.4,1.8,8.2-0.6,6.2c-0.1-1-0.4-2.1-0.8-3.1c-1,1.8-2.4,3.2-4.1,4.6L20,96.9
		c1.6-1.9,2.6-4.1,3.2-6.6c-0.8-1.6-1.7-3-2.5-4.3l0.4-0.2c1,0.6,2,1.2,2.7,1.9c0.2-1.3,0.4-2.7,0.5-4h-3l-0.5-0.8H24l1.5-1.6
		L28.3,83.4z"/>
	<path class="st1" d="M36.7,85.8c0,5.2-0.3,11.9-6.1,16.3l-0.4-0.2c2.8-4.8,2.9-10.7,2.9-16.1v-9.2l4.1,1.5h7.9
		C45,78,44.9,78,44.8,77.9c-0.3-1.5-1.6-3.1-2.5-3.9l0.2-0.2c6.2-0.1,6.2,3.4,4.5,4.4h6.4l1.9-2.5c0,0,2.1,1.8,3.3,2.9
		c-0.1,0.3-0.4,0.5-0.8,0.5H36.7V85.8z M55.2,92c-0.2,0.3-0.5,0.4-1.3,0.4c-1.1,1.8-2.7,3.3-4.4,4.6c2.8,0.8,6,1.1,9.3,1.2v0.3
		c-1.6,0.4-2.4,1.7-2.7,3.3c-3.8-0.6-7.1-1.6-9.6-3.2c-3.4,1.8-7.7,2.8-12.7,3.2l-0.1-0.4c4.3-0.9,8-2.3,10.9-4.3
		c-1.7-1.5-3-3.2-3.9-5.6h-2.1l-0.3-0.8h11.8l2.1-1.9L55.2,92z M48.7,89.4v-0.9h-4.8v0.7c0,0.2-1.6,0.8-2.8,0.8h-0.6v-6.2h-3.2
		L37,83h3.5v-3.3l4.4,0.4c-0.1,0.4-0.3,0.6-1,0.8v2.2h4.8v-3.3l4.4,0.4c-0.1,0.4-0.3,0.6-1,0.8v2.2h1.3l1.6-2.4c0,0,1.8,1.7,2.8,2.8
		c-0.1,0.3-0.4,0.5-0.8,0.5h-5V89c0,0.2-1.5,0.8-2.8,0.8h-0.4L48.7,89.4L48.7,89.4z M41.2,91.8c1.2,1.9,3.1,3.2,5.2,4.1
		c1.5-1.2,2.7-2.6,3.5-4.1H41.2z M48.7,87.5v-3.8h-4.8v3.8H48.7z"/>
	<path class="st1" d="M72.8,77.3c-0.2,0.3-0.6,0.4-1.3,0.4c-1,1.9-2.9,5-4.5,7c3.4,2.1,4.8,5,4.8,7.5c0,3-1.2,4.7-4.7,4.8
		c0-0.9-0.1-2.2-0.4-2.6c-0.2-0.3-0.7-0.6-1.5-0.7v-0.4h2.1c0.3,0,0.4,0,0.6-0.2c0.4-0.2,0.6-0.8,0.6-1.8c0-2.1-0.6-4.4-2.4-6.4
		c0.5-2,1.2-5.6,1.8-8h-3v24.2c0,0.2-1,1-2.7,1h-0.6V74.6l3.7,1.5h2.3l1.8-1.8L72.8,77.3z M85.7,77.3c0,0,2.2,1.8,3.3,2.9
		c-0.1,0.3-0.4,0.5-0.8,0.5H79c-0.1,1.6-0.1,3-0.3,4.5H83l1.9-1.9L88,86c-0.2,0.3-0.6,0.4-1.2,0.6c-0.3,8.5-1,12.7-2.7,14
		c-1,0.9-2.3,1.2-4,1.2c0-1-0.1-1.9-0.5-2.4c-0.5-0.5-1.6-1-2.8-1.2v-0.4C78,97.9,80,98,80.6,98c0.5,0,0.8-0.1,1-0.3
		c0.9-0.8,1.6-5,1.8-11.8h-4.8c-0.9,6.8-3.3,12.6-10.5,16l-0.2-0.3c6.2-5.5,7.3-12.9,7.3-21.1h-4.5l-0.2-0.8h8.3
		c-0.4-0.1-0.8-0.3-1.2-0.7c0.1-1.8-0.7-3.7-1.8-5l0.2-0.1c6.5,1.3,5.7,5.4,3.5,5.9h4.3L85.7,77.3z"/>
	<path class="st1" d="M93.9,83.7c-0.9,0.6-2,1.3-3,1.9l-0.3-0.3c2-2,3.9-5.1,5-7.3c-1.3,0.8-2.9,1.6-4.5,2.2l-0.3-0.3
		c2-1.7,4-4.3,5-6l3.4,2.2c-0.2,0.3-0.4,0.4-1.1,0.3c-0.6,0.5-1.3,1-2.2,1.6l3.3,1.9c-0.2,0.3-0.4,0.4-1.1,0.3
		c-0.5,0.6-1.1,1.2-1.8,1.9l1.5,0.5c-0.1,0.3-0.4,0.4-0.9,0.5v6.7c-0.1,0.2-1.3,0.6-2.4,0.6H94L93.9,83.7L93.9,83.7z M91.2,101
		c2.6-1.6,5.4-3.9,6.6-5.9l3.7,2.4c-0.2,0.3-0.5,0.4-1.1,0.3c-2.1,1.5-5.5,2.9-8.9,3.6L91.2,101z M114.9,91.6c0,0,2.1,1.6,3.3,2.6
		c-0.1,0.3-0.4,0.5-0.8,0.5h-11v6.6c0,0.1-1,0.6-2.9,0.6h-0.6v-7.3H91.6l-0.2-0.8h21.8L114.9,91.6z M118.7,76.7
		c-0.2,0.2-0.6,0.5-1.2,0.6v7.1c0,1.9-0.3,2.9-3.1,3.1c-0.1-0.7-0.1-1.3-0.3-1.8c-0.2-0.3-0.6-0.6-1.3-0.8v-0.4c0,0,1.2,0.1,1.7,0.1
		c0.3,0,0.4-0.1,0.4-0.5v-7.3h-2.2v12l0.2-0.2c0,0,2,1.5,3.1,2.5c-0.1,0.3-0.4,0.5-0.8,0.5H94.8l-0.2-0.8h16.2l1.1-1.5
		c-0.4,0.2-1,0.4-1.9,0.4h-0.4v-15l3.1,1.2h1.6l1.2-1.6L118.7,76.7z M107.3,78.3c0,0,1.5,1.2,2.4,2.2c-0.1,0.3-0.3,0.5-0.8,0.5h-3.5
		v2.2h0.8l1.1-1.6c0,0,1.2,1.1,2,2c-0.1,0.3-0.3,0.5-0.7,0.5h-3.2v2.3c1.2-0.2,2.6-0.3,3.9-0.6l0.1,0.5c-2,0.6-5.5,1.9-9.2,3
		c-0.2,0.2-0.4,0.4-0.6,0.4l-1.1-2.5c0.5-0.3,0.6-0.5,0.6-0.9v-4.4l3.1,0.3c0,0.3-0.3,0.6-0.8,0.6v3.9l1.3-0.2v-5.7h-4L98.5,80h4.3
		v-2.5h-1.5c-0.7,0.7-1.5,1.3-2.2,1.9l-0.4-0.2c0.6-1.3,1.2-3.5,1.7-5.5l3.6,1.1c-0.1,0.3-0.5,0.6-1.1,0.6c-0.3,0.4-0.6,0.8-0.8,1.2
		h3.2l1.3-1.9c0,0,1.6,1.2,2.5,2.3c-0.1,0.3-0.4,0.5-0.8,0.5h-2.8v2.4h0.6L107.3,78.3z M108,95.7c10.5-0.1,10.2,6.3,6.6,5.5
		c-1.5-1.8-4.6-4-6.8-5.2L108,95.7z"/>
	<path class="st1" d="M138.8,75.8c-0.3,0.4-1.2,0.6-2.5,0.7c2.2,2.8,7.7,5.7,13.1,7v0.3c-1.6,0.4-2.8,1.9-3.2,3.3
		c-4.4-2.4-8.6-6.3-10.6-10.5c-3,5.1-8.7,9.2-14.9,11.7l-0.2-0.3c4.6-2.9,8.8-7.4,10.6-11.5h-5l-0.3-0.8h8.7l1.1-1.8L138.8,75.8z
		 M144.7,97.6c0,0,2.2,1.7,3.5,2.9c-0.1,0.3-0.4,0.5-0.8,0.5H122l-0.2-0.8h11v-6.4H125l-0.2-0.8h8v-5.7h-6.6l-0.2-0.8h12.7l1.8-2.2
		c0,0,2,1.6,3.3,2.6c-0.1,0.3-0.4,0.5-0.8,0.5h-6.2V93h4l1.9-2.4c0,0,2.1,1.7,3.3,2.7c-0.1,0.3-0.4,0.5-0.8,0.5h-8.5v6.4h6.2
		L144.7,97.6z"/>
	<path class="st1" d="M159,82.6c-0.1,0.3-0.5,0.6-1.2,0.5c-1.9,3-4.3,5.1-7,6.3l-0.3-0.3c1.8-1.9,3.5-5,4.5-8.2L159,82.6z M164,87.5
		c-0.1,0.3-0.5,0.6-1.2,0.6c-0.3,1.1-0.7,2.6-1.6,4.3c4.8,4.1,2.9,8.3-0.1,6.4c-0.4-1.1-1-2.3-1.9-3.5c-1.8,2.2-4.3,4.5-8.3,6.5
		l-0.3-0.5c3.4-2.8,5.6-5.7,7-8.3c-1.3-1.7-2.8-3.1-4-4.4l0.3-0.2c1.9,0.6,3.5,1.3,4.8,2.2c0.6-1.8,0.9-3.3,1-4.6L164,87.5z
		 M150.9,80.4l-0.2-0.8h11.5l1.9-2.4c0,0,2.1,1.7,3.3,2.8c-0.1,0.3-0.4,0.5-0.8,0.5L150.9,80.4L150.9,80.4z M154.8,74
		c8.7,0.5,6.1,7.3,2.7,5.1c-0.3-1.8-1.7-3.7-2.9-5L154.8,74z M159.2,81.2c8.8,0.7,6.8,7.3,3.6,5.4c-0.6-1.9-2.3-3.9-3.8-5.2
		L159.2,81.2z M177,81.5c-0.5,4.6-1.7,8.7-3.9,12.2c1.7,2.2,3.6,3.9,6.3,5.2l-0.1,0.3c-1.6,0.3-2.6,1.2-3,2.7c-2.2-1.6-3.7-3.6-5-6
		c-2.2,2.6-5.2,4.6-9.3,6.1l-0.2-0.3c3.9-2.4,6.6-5.3,8.3-8.6c-0.8-2.4-1.3-5.1-1.8-8c-0.9,1.9-2.1,3.5-3.3,4.9l-0.4-0.2
		c1.7-4.3,3-10.3,3.4-16.1l4.8,1c-0.1,0.4-0.4,0.7-1.1,0.7c-0.4,1.8-0.8,3.5-1.5,5.2h3.9l1.8-2.4c0,0,2.1,1.7,3.3,2.8
		c-0.1,0.3-0.4,0.5-0.8,0.5L177,81.5L177,81.5z M170,81.5c-0.3,0.9-0.7,1.8-1,2.6c0.5,2.5,1.2,4.8,2.3,6.7c1.1-2.9,1.8-6,2-9.3
		C173.3,81.5,170,81.5,170,81.5z"/>
	<path class="st1" d="M189.3,75.9c-0.1,0.3-0.4,0.5-1.1,0.3c-1.7,1.9-4.5,4.4-7.3,6l-0.3-0.3c2-2.3,4-5.9,5-8.2L189.3,75.9z
		 M188.2,86.5c-0.1,0.3-0.3,0.5-0.9,0.6v13.8c0,0.3-1.2,1.1-2.7,1.1H184V87.9c-0.9,1-2,2-2.9,2.8l-0.3-0.3c2.1-3.1,4.1-7.8,5.1-10.7
		l3.2,1.7v-4.9l3.6,0.5c-0.1,0.3-0.4,0.6-1.1,0.7V83h1.3v-9l3.3,0.3c-0.1,0.3-0.2,0.6-0.9,0.7v7.8h1.3v-6.2l3.3,0.3
		c0,0.3-0.3,0.6-0.8,0.7v6.2c0,0.2-1.1,0.7-2,0.7h-0.3c0.3,0.3,1.6,1.2,2.2,2.1c-0.1,0.3-0.3,0.5-0.8,0.5h-9.4l-0.2-0.8h7.1l1.2-1.8
		h-0.1v-0.7h-5l-0.7,0.8l-2.5-1.2c0.1-0.2,0.3-0.4,0.6-0.6v-0.6c-0.1,0-0.2,0-0.4,0c-0.7,1-1.6,2.2-2.6,3.4L188.2,86.5z M189.7,89
		l3.7,0.3c0,0.3-0.3,0.6-1,0.7v1.9c-0.1,2.9-0.7,7.4-4.6,9.9l-0.3-0.3c2-2.7,2.2-6.7,2.2-9.6L189.7,89L189.7,89z M200.1,94.7
		c-0.7,0.7-2.3,2.4-4,4c-0.2,0.4-0.5,0.7-0.8,0.9l-1.7-2.9c0.8-0.5,0.9-0.7,0.9-1.2v-6.4l3.9,0.4c-0.1,0.5-0.4,0.8-1.2,0.9v5.2
		c0.8-0.3,1.8-0.7,2.7-1.1L200.1,94.7z M207.2,81.5c-0.3,4.8-1.1,8.9-3,12.4c1.2,2.1,2.9,3.8,5.1,5.1l-0.1,0.3
		c-1.5,0.3-2.4,1.2-2.8,2.7c-1.7-1.5-2.9-3.4-3.7-5.7c-1.8,2.3-4.1,4.3-7.6,5.8l-0.3-0.3c3.4-2.3,5.6-5,7.1-8.1
		c-0.6-2.3-0.9-4.8-1.1-7.5c-0.5,1-1,2-1.7,2.8l-0.5-0.3c1.3-3.9,2.3-9.5,2.6-14.7l4,0.7c-0.1,0.3-0.4,0.7-1.1,0.7
		c-0.3,1.9-0.8,3.6-1.2,5.4h1.6l1.7-2.1c0,0,1.9,1.3,3,2.4c-0.1,0.3-0.4,0.5-0.8,0.5h-0.9v-0.1C207.5,81.5,207.2,81.5,207.2,81.5z
		 M202.5,81.5c-0.4,1.2-0.8,2.4-1.3,3.5c0.3,2.2,0.8,4.3,1.6,6.1c0.9-2.9,1.3-6.1,1.5-9.6H202.5z"/>
	<path class="st1" d="M212.1,99.1c2.8-3,5.3-8.1,6.1-11.3l4.8,1.8c-0.1,0.4-0.4,0.6-1.3,0.6c-1.8,3.3-5.2,7.1-9.2,9.1L212.1,99.1z
		 M233.7,82.9c0,0,2.4,1.8,3.8,3c-0.1,0.3-0.4,0.5-0.8,0.5H227v14.4c0,0.3-1.7,1.1-3.1,1.1h-0.7V86.4h-10.6l-0.2-0.8h10.8V73.8
		l5,0.4c-0.1,0.4-0.3,0.7-1.1,0.8v10.4h4.7L233.7,82.9z M214.5,75.6c10.1,3.3,7.2,10.6,3.6,7.9c-0.6-2.6-2.4-5.6-3.9-7.7L214.5,75.6
		z M228.1,88.6c11.4,4.7,8.7,12.8,4.9,9.9c-0.8-3.2-3.1-7-5.2-9.6L228.1,88.6z M236.4,77.3c-0.2,0.3-0.6,0.6-1.2,0.5
		c-2,2.6-4.3,4.8-6.6,6.2l-0.3-0.2c1.1-2,2.5-5.4,3.4-8.4L236.4,77.3z"/>
	<path class="st1" d="M253.3,77.3c-0.2,0.3-0.6,0.4-1.3,0.4c-1,1.9-2.9,5-4.5,7c3.4,2.1,4.8,5,4.8,7.5c0,3-1.2,4.7-4.7,4.8
		c0-0.9-0.1-2.2-0.4-2.6c-0.2-0.3-0.7-0.6-1.5-0.7v-0.4h2c0.3,0,0.4,0,0.6-0.2c0.4-0.2,0.6-0.8,0.6-1.8c0-2.1-0.6-4.4-2.4-6.4
		c0.5-2,1.2-5.6,1.8-8h-3v24.2c0,0.2-1,1-2.7,1H242V74.6l3.7,1.5h2.3l1.8-1.8L253.3,77.3z M266.2,77.3c0,0,2.2,1.8,3.3,2.9
		c-0.1,0.3-0.4,0.5-0.8,0.5h-9.2c-0.1,1.6-0.1,3-0.3,4.5h4.3l1.9-1.9l3.2,2.7c-0.2,0.3-0.6,0.4-1.2,0.6c-0.3,8.5-1,12.7-2.7,14
		c-1,0.9-2.3,1.2-4,1.2c0-1-0.1-1.9-0.5-2.4c-0.5-0.5-1.6-1-2.8-1.2v-0.4c1.2,0.1,3.2,0.2,3.8,0.2c0.5,0,0.8-0.1,1-0.3
		c0.9-0.8,1.6-5,1.8-11.8h-5c-0.9,6.8-3.3,12.6-10.5,16l-0.2-0.3c6.2-5.5,7.3-12.9,7.3-21.1h-4.5l-0.2-0.8h8.4
		c-0.4-0.1-0.8-0.3-1.2-0.7c0.1-1.8-0.7-3.7-1.8-5l0.2-0.1c6.5,1.3,5.7,5.4,3.5,5.9h4.3L266.2,77.3z"/>
	<path class="st1" d="M279.7,96.1c-0.1,0.2-1.3,0.8-2.3,0.8H277v-2.5h-2.1v3.1c0,0.2-0.8,0.9-2.3,0.9h-0.5V75.7l3.1,1.2h1.3l1.3-1.6
		l2.9,2.3c-0.2,0.2-0.6,0.5-1.2,0.6V96L279.7,96.1L279.7,96.1z M274.9,77.9v7.4h2.1v-7.4H274.9z M277,93.6V86h-2.1v7.6H277z
		 M293.2,85.9v2h1.6l1.3-1.3l2.8,2.1c-0.1,0.2-0.5,0.4-1,0.5V92c0,0.2-1.3,0.8-2.4,0.8H295V92h-11.2c-0.3,3.3-1.1,7.4-4.4,10.2
		l-0.3-0.3c1.9-3.9,2-8.8,2-12.8v-5.3l0.2,0.1v-6.6l2.5,1h2.6l1.1-1.1l2.3,1.8c-0.1,0.2-0.4,0.3-0.8,0.4v3.3c0.6,0.1,1,0.2,1.5,0.4
		v-5.8l2.5,1h2.4l1.1-1.1l2.4,1.8c-0.1,0.2-0.4,0.3-0.9,0.4v3.4c0,0.1-0.6,0.5-1.1,0.6c0.6,0.5,1.7,1.3,2.4,2
		c-0.1,0.3-0.3,0.5-0.8,0.5h-5.1l0,0H293.2z M280.6,76.7l-0.2-0.8h5.5l1.3-1.8c0,0,1.6,1.2,2.5,2.2c-0.1,0.3-0.3,0.5-0.7,0.5
		L280.6,76.7L280.6,76.7L280.6,76.7z M281.4,83.9l3,1.1h4.7c-0.1-0.6-0.4-1.2-0.8-1.8c-0.4,0.2-0.9,0.3-1.5,0.3h-0.4V79h-2.9v4.1
		c0,0.2-1,0.7-2,0.7h-0.1L281.4,83.9L281.4,83.9z M288.8,94c0,0,1.1,1,1.9,1.9c-0.1,0.3-0.3,0.5-0.7,0.5h-3v2c1-0.2,2.2-0.3,3.3-0.6
		l0.1,0.4c-0.8,0.6-2.7,1.8-4.8,2.9c-0.2,0.4-0.5,0.6-0.8,0.8l-1.7-3c0.8-0.5,1-0.7,1-1.2v-5.3l3.6,0.3c-0.1,0.3-0.3,0.6-0.8,0.6
		v2.2h0.7L288.8,94z M284,79.7c4,0.8,2.3,3.9,0.7,2.6c0-0.8-0.5-1.9-1.1-2.4L284,79.7z M283.9,89c0,0.6,0,1.2,0,2h2v-2.4H284V89
		H283.9z M283.9,87.8h1.9v-2h-1.9V87.8z M290.5,85.9h-2v2h2V85.9z M288.5,91.1h2v-2.4h-2V91.1z M290.2,76.7l-0.2-0.8h5l1.5-1.9
		c0,0,1.7,1.2,2.7,2.3c-0.1,0.3-0.4,0.5-0.8,0.5h-8.1v-0.1H290.2z M298,98.5c0.7,0.3,0.8,0.6,0.8,1.1c0,1.1-1,1.6-3.9,1.6h-1.7
		c-2.2,0-2.4-0.6-2.4-2.3v-6.5l3.6,0.3c-0.1,0.4-0.3,0.6-0.8,0.7v2.1h1l1.2-1.8c0,0,1.5,1.2,2.2,2.2c-0.1,0.3-0.3,0.5-0.8,0.5h-3.6
		v2c0,0.3,0.1,0.4,0.5,0.4h1h1c0.2,0,0.4-0.1,0.5-0.2c0.2-0.3,0.5-1,0.8-2h0.3L298,98.5z M292.8,79.1V80h0.1c4,0.8,2.3,3.8,0.7,2.6
		c0-0.6-0.3-1.6-0.8-2.1V83c0,0.2-0.8,0.6-1.8,0.7c0.3,0.5,0.2,1-0.1,1.5h3.8l1.1-1.5h-0.3v-4.5L292.8,79.1L292.8,79.1L292.8,79.1z
		 M293.2,88.7v2.4h1.8v-2.4H293.2z"/>
	<path class="st1" d="M320.4,90.7c2.2,1.5,5.9,2.4,8.8,2.8v0.3c-1.1,0.3-1.9,1.3-2.2,2.9c-3.1-1.3-5.9-3.3-7.6-6h-6.3
		c-1,0.9-2.2,1.9-3.4,2.7h0.2c1,3.3-0.2,5.6-1.8,6.3c-1,0.5-2.3,0.2-2.6-0.8c-0.3-1,0.3-1.8,1.1-2.2c1.2-0.4,2.6-1.8,2.8-3.3
		c-2.3,1.5-4.9,2.6-8,3.3l-0.2-0.3c3.3-1.6,6-3.6,8-5.8H302l-0.3-0.8h8.1c0.6-0.8,1.2-1.7,1.7-2.5h-2.1v0.5c0,0.3-1.6,1-2.9,1H306
		v-10l1.3,0.5l-0.3-2.1h-5.4l-0.2-0.8h5.4l-0.3-2.7L311,74c0,0.3-0.3,0.7-0.8,0.8l0.2,1.5h0.7l1.6-2.2c0,0,1.8,1.6,2.8,2.5
		c-0.1,0.3-0.3,0.5-0.8,0.5h-4.3l0.2,1.2c-0.4,0.6-1.7,0.9-3.1,0.9l2,0.7h10.8l1-1c-0.7,0.1-1.6,0.2-2.5,0l0.3-1.9h-2.9l-0.2-0.8
		h3.3l0.4-2.7l4.4,0.7c-0.1,0.3-0.3,0.7-1.1,0.8l-0.2,1.2h1.8l1.6-2.2c0,0,1.8,1.6,2.8,2.5c-0.1,0.3-0.4,0.5-0.8,0.5h-5.5l-0.3,1.5
		h-0.1l2.9,2.2c-0.2,0.2-0.5,0.5-1,0.6v5.8c0,0.2-1.8,1-2.9,1h-0.6v-1h-7.4l3,0.7c-0.1,0.3-0.5,0.5-1.5,0.5c-0.3,0.4-0.7,0.8-1,1.2
		h9.9l1.8-2.1c0,0,2,1.5,3.2,2.4c-0.1,0.3-0.4,0.5-0.8,0.5h-7.3v0.4H320.4z M309.5,81v2.3h11.2V81H309.5z M309.5,86.4h11.2v-2.3
		h-11.2V86.4z M317.1,91.4c-0.1,0.4-0.3,0.6-0.9,0.7v6.5c0,2.3-0.5,3.5-4,3.8c-0.1-0.9-0.2-1.8-0.5-2.2c-0.3-0.5-0.8-0.8-2-1v-0.4
		c0,0,2.2,0.1,2.7,0.1c0.3,0,0.5-0.1,0.5-0.4v-7.6L317.1,91.4z M316.9,93.7c6.3,3,3.1,7.7,0.8,5.3c0.1-1.8-0.5-3.7-1.1-5.2
		L316.9,93.7z M319.7,93.5c8.6,2.3,6.1,8.4,3,6.1c-0.5-2-2.1-4.4-3.3-5.9L319.7,93.5z"/>
	<path class="st1" d="M331.5,89.4c0,0,0.8-0.1,1.1-0.4c1.5-0.9,3.3-2.9,5-5c-1.1,0.4-2.5,0.9-4,1.5c-0.2,0.3-0.5,0.6-0.8,0.7
		l-1.6-3.7c0,0,0.7-0.1,1-0.3c1.8-1.5,4.1-5.9,5-8.3l4.1,2.3c-0.1,0.3-0.5,0.5-1,0.4c-1.5,1.9-4,4.4-6.4,6c1.3,0,3.1,0,5-0.1
		c1-1.6,2-3,2.5-4.1l3.9,2.7c-0.2,0.3-0.6,0.4-1.2,0.3c-2,2.4-5.9,5.7-9.4,8c1.8-0.1,3.9-0.2,6.2-0.4c-0.3-1-0.6-2.1-1-2.9l0.3-0.1
		c6.6,2.9,3.5,7.9,1.1,5.5c0-0.5-0.1-1-0.2-1.6c-1.8,0.7-4.4,1.8-7.2,2.7c-0.2,0.3-0.5,0.6-0.8,0.7L331.5,89.4z M334.5,93.5
		c1.2,3.2,0.9,5.7,0,6.8c-0.7,0.8-2.4,0.8-2.9-0.3c-0.4-1,0-2,0.8-2.5c0.7-0.7,1.8-2.5,1.6-4C333.9,93.5,334.5,93.5,334.5,93.5z
		 M337,92.7c5.2,3.9,1.8,8.5-0.3,5.8c0.4-1.9,0.3-4.1-0.1-5.7L337,92.7z M340.4,92c6.2,2.6,2.9,7.3,0.6,4.9c0.2-1.6-0.3-3.4-0.9-4.8
		L340.4,92z M349.8,93.6c-0.2,0.3-0.4,0.4-1.1,0.4c-1.3,2.2-3.6,5-6.2,6.7l-0.3-0.3c1.8-2.5,3.1-6.3,3.7-8.8L349.8,93.6z
		 M354.2,84.5c7.4,3.1,4,8.5,1.3,5.9c0-0.7-0.1-1.5-0.3-2.2c-0.6,0.2-1.3,0.4-2.1,0.7v9c0,2.2-0.5,3.7-4,4c-0.1-1-0.2-1.9-0.5-2.3
		c-0.3-0.5-0.9-0.8-2.2-1v-0.4c0,0,2.4,0.1,3,0.1c0.4,0,0.6-0.2,0.6-0.5V90c-1.1,0.3-2.4,0.7-3.7,1c-0.2,0.3-0.6,0.6-0.9,0.7
		l-1.2-3.8c0,0,0.8-0.1,1.2-0.3c1.7-0.9,3.6-2.8,5.5-4.8c-1.2,0.5-2.7,1-4.4,1.7c-0.2,0.4-0.5,0.6-0.8,0.8l-1.6-3.6
		c0,0,0.6-0.1,0.9-0.3c1.9-1.5,4.6-5.7,5.4-8l4.1,2.2c-0.1,0.3-0.4,0.4-1,0.4c-1.6,1.9-4.5,4.3-7,5.9c1.5-0.1,3.3-0.1,5.2-0.2
		c1.2-1.6,2.4-3,2.9-4.1l3.6,2.8c-0.2,0.2-0.6,0.4-1.2,0.2c-2.1,2.2-6.2,5.4-10,7.5c2.1-0.1,4.9-0.3,7.8-0.5c-0.3-1-0.7-2-1.1-2.8
		L354.2,84.5z M354.2,92.1c8.5,3.4,5.5,9.9,2.4,7.2c-0.2-2.4-1.6-5.1-2.7-7L354.2,92.1z"/>
</g>
</svg>
