<svg id="name-ts_sp.svg" xmlns="http://www.w3.org/2000/svg" width="247.157" height="104.4" viewBox="0 0 247.157 104.4">
  <defs>
    <style>
      .cls-1 {
        fill: #948ab5;
        opacity: 0.8;
      }

      .cls-1, .cls-2 {
        fill-rule: evenodd;
      }

      .cls-2 {
        fill: #716692;
      }
    </style>
  </defs>
  <path id="Tone_up_UV_stick" data-name="Tone up UV stick" class="cls-1" d="M282.906,8528.47v-1.92h-8.168v1.92H277.8v11.43h2.042v-11.43h3.063Zm10.1-2.16a6.925,6.925,0,1,0,6.947,6.92A6.77,6.77,0,0,0,293.005,8526.31Zm0,11.97a5.047,5.047,0,1,1,4.905-5.05A4.779,4.779,0,0,1,293.005,8538.28Zm13.536,1.62v-9.33l9.689,10.15v-14.17h-2.042v9.25l-9.689-10.15v14.25h2.042Zm22.245-13.35h-7.368v13.35h7.368v-1.92H323.46v-4.21h5.166v-1.92H323.46v-3.38h5.326v-1.92Zm11.292,0v8.59a4.934,4.934,0,0,0,1.241,3.46,5.177,5.177,0,0,0,7.408,0,4.934,4.934,0,0,0,1.241-3.46v-8.59h-2.042v8.05a4.652,4.652,0,0,1-.421,2.3,2.923,2.923,0,0,1-4.965,0,4.662,4.662,0,0,1-.42-2.3v-8.05h-2.042Zm15.08,0v13.35H357.2v-5.42h0.921a4.836,4.836,0,0,0,3.263-1.05,3.734,3.734,0,0,0,1.3-2.92,3.859,3.859,0,0,0-1.661-3.24,5.224,5.224,0,0,0-2.923-.72h-2.943Zm2.042,1.88h0.9c2.322,0,2.622,1.32,2.622,2.06,0,1.24-.841,2.1-2.6,2.1H357.2v-4.16Zm16.217-1.88v8.59a4.935,4.935,0,0,0,1.242,3.46,5.176,5.176,0,0,0,7.407,0,4.934,4.934,0,0,0,1.241-3.46v-8.59h-2.042v8.05a4.662,4.662,0,0,1-.42,2.3,2.923,2.923,0,0,1-4.965,0,4.652,4.652,0,0,1-.421-2.3v-8.05h-2.042Zm13.559,0,5.925,14.21,5.926-14.21h-2.2l-3.724,9.31-3.723-9.31h-2.2Zm29.588,2a4.546,4.546,0,0,0-1.021-1.34,3.941,3.941,0,0,0-2.683-.9,3.6,3.6,0,0,0-3.9,3.52,3.764,3.764,0,0,0,2.723,3.38l1.281,0.54a2.5,2.5,0,0,1,1.922,2.29,2.144,2.144,0,0,1-2.2,2.24,2.109,2.109,0,0,1-1.742-.8,2.881,2.881,0,0,1-.56-1.7l-2.022.44a4.314,4.314,0,0,0,1.121,2.6,3.906,3.906,0,0,0,3.143,1.34,4.113,4.113,0,0,0,4.3-4.28c0-1.53-.681-2.93-3.143-3.93l-1.341-.54c-1.3-.52-1.442-1.22-1.442-1.62a1.655,1.655,0,0,1,1.882-1.6,2.066,2.066,0,0,1,2.042,1.32Zm11.679-.08v-1.92h-8.168v1.92h3.063v11.43h2.042v-11.43h3.063Zm3.793-1.92v13.35h2.042v-13.35h-2.042Zm17.13,0.72a6.352,6.352,0,0,0-3.564-.96,6.618,6.618,0,0,0-4.825,1.74,6.977,6.977,0,0,0-2.142,5.22,6.546,6.546,0,0,0,2.142,5.05,6.7,6.7,0,0,0,4.725,1.84,7.3,7.3,0,0,0,3.664-1v-2.42a5.3,5.3,0,0,1-3.6,1.54,4.821,4.821,0,0,1-4.885-5.01,4.767,4.767,0,0,1,4.865-5.08,5.21,5.21,0,0,1,3.624,1.48v-2.4Zm6.552-.72h-2.042v13.35h2.042v-5.53l0.4-.4,4.765,5.93h2.723l-6.066-7.31,6.026-6.04h-2.683l-5.165,5.32v-5.32Z" transform="translate(-274.281 -8525.66)"/>
  <path id="トーンアップUV_スティック" data-name="トーンアップUV  スティック" class="cls-2" d="M278.074,8557.81c1.747,0.27,2.772.61,2.962,1.87a92.249,92.249,0,0,1,.342,9.37c0,2.55-.038,8.13-0.342,10.94-0.152,1.59-.494,2.39-0.494,3.3,0,2.17.912,4.26,2.545,4.26,1.215,0,1.632-.65,1.632-2.21,0-.57-0.076-1.78-0.114-3.64-0.076-3.61-.114-9.11-0.038-12.46a24.232,24.232,0,0,1,5.316,3.04c2.658,2.28,2.962,4.03,4.861,4.03a1.768,1.768,0,0,0,1.784-1.9c0-1.63-1.025-2.7-2.506-3.57a27.448,27.448,0,0,0-9.455-3c0.076-2.2.152-4.56,0.342-6.15,0.19-1.33.949-1.64,0.949-2.58,0-1.11-3.037-2.78-4.822-2.78a9.559,9.559,0,0,0-3,.8Zm26.413,11.32a6.9,6.9,0,0,0,.162,2.58c0.55,1.6,2.328,3.8,3.46,3.8,1.1,0,1.52-.72,3.655-0.99,2.458-.34,10.479-0.91,12.742-0.91,2.167,0,3.3.11,4.528,0.11s1.844-.49,1.844-1.4c0-1.37-1.617-2.35-3.234-2.35-0.809,0-2.038.3-4.2,0.49-1.779.15-12.193,0.95-15.394,0.95-1.585,0-2.135-1.1-2.976-2.51Zm33.263-9a25.4,25.4,0,0,1,6.455,6.23c0.987,1.29,1.632,1.86,2.62,1.86a1.955,1.955,0,0,0,1.974-2.05c0-3.53-5.809-5.89-10.632-6.76Zm3.986,20.81c-1.329,0-2.62-1.33-3.607-2.39l-0.569.34a8.192,8.192,0,0,0,.8,3.04c0.8,1.36,3.266,3.41,5.164,3.41,0.987,0,1.443-1.1,2.468-1.74,8.582-5.36,15.568-11.77,19.973-20.01l-0.759-.5C359.773,8570.72,345.306,8580.94,341.736,8580.94Zm28.278-21.76a6.343,6.343,0,0,0,.38,2.62c0.569,1.41,2.544,3.19,3.759,3.19,1.063,0,1.367-.87,2.848-1.25,3.987-.91,14.049-2.58,15.72-2.58,0.759,0,.949.15,0.531,0.91a27.18,27.18,0,0,1-5.961,5.81,9.321,9.321,0,0,0-3.683-1.03,11.958,11.958,0,0,0-2.545.12l-0.113.68c1.594,0.64,2.961,1.29,2.961,2.47,0,2.54-4.9,11.96-12.3,16.78l0.569,0.72c8.544-4.02,13.176-10.02,16.138-17.73a1.564,1.564,0,0,0,.114-0.8c3.265-1.71,6.379-3.64,8.05-4.71,0.873-.57,2.734-0.72,2.734-1.86,0-1.36-3.3-4.36-4.595-4.36-0.8,0-1.291.64-2.43,0.79-2.468.38-15.834,1.86-18.872,1.86-1.177,0-1.67-.68-2.62-1.86Zm39.778,10.75c0.949,2.05.835,3.68,2.316,3.68a1.622,1.622,0,0,0,1.709-1.67,4.977,4.977,0,0,0-2.582-4.14,12.815,12.815,0,0,0-3.038-1.63l-0.379.42A14.262,14.262,0,0,1,409.792,8569.93Zm12.606,1.74c0.418-.87,1.253-1.4,1.253-2.12,0-1.26-2.2-3.27-3.949-3.38a10.2,10.2,0,0,0-1.974.15l-0.114.49c1.253,0.61,1.937,1.18,1.937,1.83,0,3.49-6.645,13.67-16.252,18.53l0.38,0.6A30.71,30.71,0,0,0,422.4,8571.67Zm-19.175.46c0.987,2.09,1.063,3.8,2.506,3.8a1.584,1.584,0,0,0,1.671-1.71c0-1.6-1.1-3.15-3-4.37a11.786,11.786,0,0,0-2.81-1.59l-0.417.41A16.283,16.283,0,0,1,403.223,8572.13Zm53.9-9.91a4.12,4.12,0,1,0-4.138-4.14A4.091,4.091,0,0,0,457.127,8562.22Zm0-6.8a2.68,2.68,0,1,1-2.7,2.66A2.676,2.676,0,0,1,457.127,8555.42Zm-27.567,5.13-0.645.26a8.941,8.941,0,0,0,.3,2.43c0.379,1.22,2.316,3.42,3.8,3.42,0.8,0,1.708-.72,2.658-0.95,2.164-.53,11.543-2.2,13.707-2.2,0.342,0,.532.11,0.418,0.53-2.088,8.58-9.379,17.39-19.973,22.82l0.494,0.8c11.847-4.1,18.758-11.24,23.048-20.58,0.57-1.25,1.861-1.63,1.861-2.73,0-1.22-3.493-4.18-4.974-4.18-0.874,0-1.026.61-2.317,0.87-1.936.42-12.606,1.56-15.264,1.56C431.307,8562.6,430.4,8561.57,429.56,8560.55Zm61.922-2.74H481.458v1.37l4.367,0.57,0.076,13.9c0.038,7.29-2.43,10.06-7.215,10.06-4.367,0-6.949-2.39-6.949-9.53v-3.46c0-3.75,0-7.44.076-11.08l4.063-.46v-1.37H463.8v1.37l3.418,0.38c0.114,3.72.114,7.48,0.114,11.16v4.33c0,8.21,4.177,11.43,10.366,11.43,6.037,0,9.91-3.57,9.948-12.11l0.076-14.66,3.759-.53v-1.37Zm29.945,0h-9.492v1.49l3.949,0.45-6.645,20.89-7.215-20.96,4.063-.38v-1.49H494.24v1.37l3.038,0.34,9.682,26.51h2.165l8.847-26.39,3.455-.53v-1.3Zm-241.716,44.43a8.111,8.111,0,0,0,.38,2.59c0.456,1.21,2.126,3.19,3.569,3.19,1.026,0,1.329-.84,2.544-1.22,1.975-.57,7.025-1.94,9.037-2.2,0.418-.04.646,0.07,0.456,0.61-3.265,7.59-12.454,16.97-21.416,21.6l0.494,0.8a43.378,43.378,0,0,0,17.581-11.47c3.493,2.2,5.392,4.75,7.442,7.6,1.595,2.08,2.392,3.26,3.683,3.26a1.9,1.9,0,0,0,1.9-1.97c0-3.8-5.886-7.67-12.075-9.91a68.239,68.239,0,0,0,6-8.2c0.456-.69,1.975-1.18,1.975-2.09,0-1.07-3.038-3.61-4.443-3.61-0.683,0-1.253.95-2.126,1.18a79.434,79.434,0,0,1-11.353,1.78c-1.292,0-2.165-1.21-2.924-2.24Zm38.113-1.89c1.291,2.39,2.468,3.64,4.633,3.64a73,73,0,0,0,12.037-1.59c1.215-.23,1.632-0.69,1.632-1.37,0-1.22-1.48-1.94-3.607-1.94-0.645,0-1.177.53-3.227,1.07a32.215,32.215,0,0,1-7.063,1.02,6.646,6.646,0,0,1-3.949-1.25Zm-5.581,7.93a5.735,5.735,0,0,0,.227,2.24c0.418,1.22,2.241,2.89,3.38,2.85a13.739,13.739,0,0,0,3.417-.95,66.631,66.631,0,0,1,7.1-1.33,2.385,2.385,0,0,1,.456,1.41c0,2.58-2.583,11.05-11.24,16.86l0.646,0.72c8.809-4.22,12-10.22,13.669-14.39,0.646-1.56,1.633-1.86,1.633-2.74,0-.72-0.911-1.48-2.126-2.2,2.961-.27,5.657-0.38,7.366-0.38,2.05,0,3.759.34,4.519,0.34a1.141,1.141,0,0,0,1.366-1.33c0-1.33-2.392-2.39-4.4-2.39a29.348,29.348,0,0,1-3.8.72c-5.924.57-16.442,2.17-19.024,2.17-1.063,0-1.784-.84-2.658-1.83Zm42.131-1.93c0.759,0.34,1.632.98,1.632,1.55,0,1.98-7.594,10.29-15,14.55l0.38,0.56a38.408,38.408,0,0,0,11.429-6.53,3.008,3.008,0,0,1,.19,1.07,57.778,57.778,0,0,1-.342,7.44c-0.076.95-.3,1.59-0.3,2.13,0,1.4.684,2.88,2.127,2.88,1.025,0,1.518-.76,1.518-1.93,0-1.52-.227-5.66-0.075-9.61,0.037-.8.3-1.33,0.3-1.79,0-.53-0.721-1.1-1.632-1.74,1.708-1.64,3.151-3.15,4.176-4.22,0.8-.8,1.443-0.8,1.443-1.63,0-.99-1.708-2.58-3.227-3.04a7.078,7.078,0,0,0-2.468-.19Zm22.614,5.58c0.949,2.05.835,3.68,2.316,3.68a1.622,1.622,0,0,0,1.709-1.67,4.978,4.978,0,0,0-2.583-4.14,12.808,12.808,0,0,0-3.037-1.63l-0.38.42A14.23,14.23,0,0,1,376.988,8611.93Zm12.606,1.74c0.418-.87,1.253-1.4,1.253-2.12,0-1.26-2.2-3.27-3.949-3.38a10.191,10.191,0,0,0-1.974.15l-0.114.49c1.253,0.61,1.936,1.18,1.936,1.83,0,3.49-6.645,13.67-16.251,18.53l0.379,0.6A30.712,30.712,0,0,0,389.594,8613.67Zm-19.175.46c0.987,2.09,1.063,3.8,2.506,3.8a1.583,1.583,0,0,0,1.67-1.71c0-1.6-1.1-3.15-3-4.37a11.806,11.806,0,0,0-2.81-1.59l-0.418.41A16.283,16.283,0,0,1,370.419,8614.13Zm40.425-9.49c0.494-.69.949-1.41,1.367-2.09,0.608-.99,1.1-1.25,1.1-1.98,0-.87-2.506-2.27-4.594-2.46a8.706,8.706,0,0,0-2.506.07l-0.152.61c1.291,0.61,2.24,1.37,2.24,2.09,0,2.31-5.278,9.95-11.315,14.65l0.531,0.73a34.868,34.868,0,0,0,12.037-9.88,3.217,3.217,0,0,0,1.709.91,8.348,8.348,0,0,0,2.126-.49,34.5,34.5,0,0,1,5.24-.95c0.38,0,.57.19,0.38,0.69-3.076,7.74-11.961,17.42-21.644,22.55l0.494,0.8c11.695-4.41,19.479-12.15,24.909-21.72,0.608-1.06,1.975-1.41,1.975-2.36,0-1.29-3.228-3.15-4.253-3.15-0.76,0-1.253.84-2.278,1.1a44.611,44.611,0,0,1-7.063.88h-0.3Z" transform="translate(-274.281 -8525.66)"/>
</svg>
