<svg id="tag-we.svg" xmlns="http://www.w3.org/2000/svg" width="174" height="30" viewBox="0 0 174 30">
  <defs>
    <style>
      .cls-1 {
        fill: #fff;
      }

      .cls-2 {
        fill: #4d7183;
        fill-rule: evenodd;
      }
    </style>
  </defs>
  <rect id="長方形_688" data-name="長方形 688" class="cls-1" width="174" height="30" rx="3" ry="3"/>
  <g id="グループ_131" data-name="グループ 131">
    <path id="うるおいエッセンス" class="cls-2" d="M342.379,3620.94a7.98,7.98,0,0,0-.5,1.59,0.249,0.249,0,0,0,.118.34,22.286,22.286,0,0,0,4.883,1.31c0.135,0.02.186-.07,0.236-0.24a14.1,14.1,0,0,0,.371-1.49,0.247,0.247,0,0,0-.219-0.31A20.671,20.671,0,0,1,342.379,3620.94Zm-3.267,5.6a11.313,11.313,0,0,0,.859,1.78,0.652,0.652,0,0,0,.471.38,0.624,0.624,0,0,0,.371-0.17,7.237,7.237,0,0,1,1.431-.82,5.667,5.667,0,0,1,2.644-.73c0.977,0,1.566.73,1.566,2.14a5.017,5.017,0,0,1-.926,3.01,9.147,9.147,0,0,1-3.705,2.83,4.247,4.247,0,0,1,1.4.9,0.521,0.521,0,0,0,.4.22,0.747,0.747,0,0,0,.286-0.08,9.461,9.461,0,0,0,3.251-2.7,6.719,6.719,0,0,0,1.364-4.06c0-2.5-1.3-4.04-3.554-4.04a11.874,11.874,0,0,0-3.856.85A8.736,8.736,0,0,1,339.112,3626.54Zm19.013,1.29c1.28-1.24,2.408-2.43,3.638-3.63a2.811,2.811,0,0,1,.741-0.55,0.434,0.434,0,0,0,.286-0.4,0.587,0.587,0,0,0-.185-0.41,6.3,6.3,0,0,0-1.129-1.09,0.622,0.622,0,0,0-.387-0.13,0.866,0.866,0,0,0-.32.13,4.36,4.36,0,0,1-.926.26c-1.314.25-2.8,0.47-3.823,0.57a7.456,7.456,0,0,1-1.566-.03,8.046,8.046,0,0,0,.589,1.83,0.378,0.378,0,0,0,.371.29,1.368,1.368,0,0,0,.336-0.08c0.27-.1.489-0.15,0.708-0.21,1.044-.22,2.24-0.45,3.25-0.64-0.775.97-1.566,1.82-2.61,2.9a40.384,40.384,0,0,1-3.992,3.76,0.271,0.271,0,0,0-.084.39,8.234,8.234,0,0,0,.994,1.1,0.415,0.415,0,0,0,.252.15,0.5,0.5,0,0,0,.287-0.18c0.5-.51.976-1.01,1.465-1.45a6.834,6.834,0,0,1,4.311-1.8,2.47,2.47,0,0,1,2.644,2.57,2.562,2.562,0,0,1-1.718,2.58,3.07,3.07,0,0,0-3.166-2.48,2.239,2.239,0,0,0-2.374,2.07c0,1.58,1.28,2.5,3.4,2.5,3.6,0,5.877-1.82,5.877-4.66a3.923,3.923,0,0,0-4.177-4.07,5.059,5.059,0,0,0-2.677.76Zm1.465,6.35a3.714,3.714,0,0,1-.775.07c-1.01,0-1.465-.36-1.465-0.88a0.716,0.716,0,0,1,.809-0.65A1.566,1.566,0,0,1,359.59,3634.18Zm13.357-4.51c-1.23.71-2.021,1.17-2.745,1.57a6,6,0,0,1-1.55.6c0.253,0.56.59,1.27,0.775,1.58a0.47,0.47,0,0,0,.371.27,0.4,0.4,0,0,0,.286-0.12,2.709,2.709,0,0,1,.539-0.37,10.344,10.344,0,0,1,2.391,2.17,0.479,0.479,0,0,0,.4.34,7.232,7.232,0,0,0,1.247-.2c0.286-.07.252-0.33,0.252-0.56,0-.39-0.084-1.46-0.135-2.21-0.033-.75-0.05-1.33-0.067-2.04a8.26,8.26,0,0,1,3.857-1.15,1.618,1.618,0,0,1,1.852,1.71,1.676,1.676,0,0,1-1.819,1.75,6.048,6.048,0,0,1-2.105-.31,3,3,0,0,1,.5,1.45,0.458,0.458,0,0,0,.371.51,6.821,6.821,0,0,0,1.381.15c2.273,0,3.654-1.27,3.654-3.45a3.341,3.341,0,0,0-3.587-3.39,10.473,10.473,0,0,0-4.143.93c0.017-.81.017-1.65,0.034-2.46a16.177,16.177,0,0,0,2.408-.65,0.233,0.233,0,0,0,.219-0.27,8.439,8.439,0,0,0-.1-1.32,0.187,0.187,0,0,0-.286-0.16,15.26,15.26,0,0,1-2.156.63c0.017-.54.034-0.97,0.084-1.41a2.083,2.083,0,0,1,.236-0.66,0.589,0.589,0,0,0,.1-0.27,0.375,0.375,0,0,0-.337-0.32,9.1,9.1,0,0,0-2-.31,6.373,6.373,0,0,1,.118,1.38c0,0.73-.017,1.37-0.017,1.93-0.707.07-1.431,0.14-2.138,0.14a8.293,8.293,0,0,1-1.314-.09c0.067,0.6.135,1.16,0.185,1.48a0.338,0.338,0,0,0,.4.36c1.128,0,1.987-.07,2.829-0.14v2.91Zm0.084,1.78c0.034,0.56.067,1.34,0.1,1.78,0.017,0.15-.034.17-0.168,0.14a15.725,15.725,0,0,1-1.583-.77C371.987,3632.16,372.559,3631.77,373.031,3631.45Zm5.625-6.44a7.792,7.792,0,0,1,3.418,2.09,0.267,0.267,0,0,0,.337,0c0.253-.34.691-0.86,0.91-1.2a0.473,0.473,0,0,0,.067-0.17,0.234,0.234,0,0,0-.1-0.17,8.017,8.017,0,0,0-3.57-2.08c-0.118-.03-0.169.02-0.287,0.21A10.017,10.017,0,0,0,378.656,3625.01Zm8.609-1.81a9.172,9.172,0,0,1,.2,2.22,31.061,31.061,0,0,0,.4,4.94c0.455,2.87,1.836,4.43,3.149,4.43,1.179,0,2.223-.91,2.863-2.65a0.512,0.512,0,0,0-.118-0.62,6.864,6.864,0,0,1-1.078-1.31c-0.656,1.76-1.077,2.36-1.616,2.36-0.708,0-1.145-1.16-1.381-2.5a21.456,21.456,0,0,1-.3-3.87,7.651,7.651,0,0,1,.151-1.66,1.572,1.572,0,0,0,.135-0.48,0.38,0.38,0,0,0-.269-0.3A7.039,7.039,0,0,0,387.265,3623.2Zm8.622,2.41a11.431,11.431,0,0,1,3.149,5.92c0.034,0.21.152,0.26,0.354,0.19a5.543,5.543,0,0,0,1.314-.68,0.293,0.293,0,0,0,.185-0.37,11.22,11.22,0,0,0-3.3-5.81,0.248,0.248,0,0,0-.185-0.1,0.412,0.412,0,0,0-.185.07A13.837,13.837,0,0,0,395.887,3625.61Zm16.086,0.17h1.313c0.943,0,1.769.01,2.9,0.06,0.185,0,.219-0.1.236-0.32,0.017-.42.017-0.9,0-1.32,0-.19-0.051-0.29-0.219-0.27-0.994.05-1.92,0.05-2.947,0.05h-4.766c-1.4,0-2.072.01-2.914-.07a9.513,9.513,0,0,0,.135,1.58c0.051,0.25.084,0.37,0.286,0.35,0.691-.03,1.4-0.06,2.611-0.06h1.313v5.8h-2.29c-1.078,0-2.358-.01-3.57-0.08a10.165,10.165,0,0,0,.117,1.6c0.051,0.28.085,0.35,0.354,0.33,1.314-.01,2.408-0.06,3.1-0.06h6.77c1.095,0,2.593.03,3.4,0.06,0.2,0,.252-0.08.252-0.3,0.017-.44.017-0.92,0-1.36a0.223,0.223,0,0,0-.269-0.27c-1.145.03-2.274,0.07-3.4,0.07h-2.408v-5.79Zm9.212,1.22a10.044,10.044,0,0,1,1.584,2.73c0.084,0.24.185,0.33,0.421,0.24a6.563,6.563,0,0,0,1.077-.53,0.286,0.286,0,0,0,.2-0.23,1.15,1.15,0,0,0-.067-0.26,9.146,9.146,0,0,0-1.448-2.51,0.3,0.3,0,0,0-.438-0.12C422.162,3626.49,421.758,3626.68,421.185,3627Zm3.385-.87a11.63,11.63,0,0,1,1.415,2.72c0.084,0.24.152,0.32,0.337,0.25a6.734,6.734,0,0,0,1.162-.52,0.3,0.3,0,0,0,.168-0.46,9.859,9.859,0,0,0-1.3-2.48,0.3,0.3,0,0,0-.438-0.14C425.631,3625.62,425.244,3625.81,424.57,3626.13Zm5.305-.4a6.219,6.219,0,0,1-.387,1.8,17.782,17.782,0,0,1-2.274,4.09,14.715,14.715,0,0,1-4.041,3.53,3.826,3.826,0,0,1,1.431.71,0.365,0.365,0,0,0,.27.12,0.731,0.731,0,0,0,.4-0.18,13.813,13.813,0,0,0,3.469-3.28,20.833,20.833,0,0,0,2.543-4.52,2.371,2.371,0,0,1,.5-0.86,0.324,0.324,0,0,0-.034-0.6A7.883,7.883,0,0,0,429.875,3625.73Zm10.039,0.91-1.432.36a24.373,24.373,0,0,1-3.166.59,13.441,13.441,0,0,0,.674,1.74,0.339,0.339,0,0,0,.269.27,0.854,0.854,0,0,0,.2-0.07,17.942,17.942,0,0,1,2.375-.73l1.078-.29v3.43c0,2.29.993,2.99,4.21,2.99a34.851,34.851,0,0,0,4.025-.2c0.253-.02.354-0.09,0.354-0.26a8.268,8.268,0,0,0-.152-1.43c-0.034-.25-0.05-0.37-0.286-0.34a24.359,24.359,0,0,1-4.076.38c-1.818,0-2.122-.29-2.122-1.19v-3.85l4.632-1.19a14.1,14.1,0,0,1-2.745,3.39,5.839,5.839,0,0,1,1.4.65,0.573,0.573,0,0,0,.32.12,0.684,0.684,0,0,0,.438-0.26,17.931,17.931,0,0,0,2.678-3.67,2.291,2.291,0,0,1,.522-0.66,0.458,0.458,0,0,0,.219-0.34,0.431,0.431,0,0,0-.152-0.3,6.518,6.518,0,0,0-1.246-1.11,0.35,0.35,0,0,0-.236-0.1,0.382,0.382,0,0,0-.235.1,2.337,2.337,0,0,1-1.2.5l-4.4,1.03v-1.75a3.074,3.074,0,0,1,.219-1.51,0.522,0.522,0,0,0,.1-0.27,0.332,0.332,0,0,0-.32-0.31,12.425,12.425,0,0,0-2.172-.34,13.983,13.983,0,0,1,.219,2.99v1.63Zm12.884-2.22a17.707,17.707,0,0,1,3.436,2.77,0.359,0.359,0,0,0,.219.13,0.332,0.332,0,0,0,.2-0.13c0.236-.26.791-0.94,1.044-1.28a0.351,0.351,0,0,0,.1-0.22,0.406,0.406,0,0,0-.152-0.24,17.917,17.917,0,0,0-3.216-2.41,0.443,0.443,0,0,0-.219-0.08,0.324,0.324,0,0,0-.236.13C453.657,3623.43,453.169,3623.96,452.8,3624.42Zm0.371,8.47a12.175,12.175,0,0,0,1.347,1.89,0.417,0.417,0,0,0,.286.18,0.436,0.436,0,0,0,.3-0.17,6.02,6.02,0,0,1,1.128-.78,35.362,35.362,0,0,0,5.086-3.33,26.7,26.7,0,0,0,3.873-3.6,0.82,0.82,0,0,0,.27-0.51,0.831,0.831,0,0,0-.085-0.32,7.66,7.66,0,0,1-.471-1.98,25.373,25.373,0,0,1-4.615,4.61,24.706,24.706,0,0,1-4.85,3.16A10.118,10.118,0,0,1,453.169,3632.89Zm19.486-9.69c-1.094,0-1.936,0-2.846-.07a9.893,9.893,0,0,0,.152,1.76c0.034,0.19.084,0.31,0.219,0.29,0.909-.07,1.785-0.1,2.661-0.1l4.345-.02a20.906,20.906,0,0,1-3.166,4.27,20.686,20.686,0,0,1-5.928,4.33,4.5,4.5,0,0,1,1.414,1.1,0.377,0.377,0,0,0,.286.15,1.209,1.209,0,0,0,.388-0.13,24.26,24.26,0,0,0,5.658-4.49,31.234,31.234,0,0,1,4.379,4.21,0.334,0.334,0,0,0,.236.14,0.281,0.281,0,0,0,.2-0.1,9.364,9.364,0,0,0,1.128-1.16,0.3,0.3,0,0,0-.017-0.49,39.982,39.982,0,0,0-4.665-4.11,26.038,26.038,0,0,0,2.156-3.17,3.092,3.092,0,0,1,.623-0.75,0.474,0.474,0,0,0,.219-0.34,0.433,0.433,0,0,0-.084-0.22,6.336,6.336,0,0,0-1.095-1.19,0.547,0.547,0,0,0-.286-0.14,0.286,0.286,0,0,0-.185.07,2.383,2.383,0,0,1-1.162.16h-4.632Z" transform="translate(-324 -3614)"/>
  </g>
</svg>
