<svg id="tag-mbm.svg" xmlns="http://www.w3.org/2000/svg" width="217" height="30" viewBox="0 0 217 30">
  <defs>
    <style>
      .cls-1 {
        fill: #fff;
      }

      .cls-2 {
        fill: #0083cc;
        fill-rule: evenodd;
      }
    </style>
  </defs>
  <rect id="長方形_688" data-name="長方形 688" class="cls-1" width="217" height="30" rx="3" ry="3"/>
  <g id="グループ_131" data-name="グループ 131">
    <path id="超軽量" class="cls-2" d="M323.21,2576.41c0.992,0,1.314.03,1.379,0.03,0.142,0,.154-0.02.154-0.15v-0.93c0-.15-0.012-0.16-0.154-0.16-0.065,0-.387.03-1.379,0.03h-0.129v-0.13a3.712,3.712,0,0,1,.078-1.11,0.609,0.609,0,0,0,.064-0.23c0-.08-0.077-0.12-0.206-0.13a12.785,12.785,0,0,0-1.289-.09,9.279,9.279,0,0,1,.091,1.58v0.11h-0.477c-0.992,0-1.327-.03-1.4-0.03-0.129,0-.141.01-0.141,0.16v0.93c0,0.13.012,0.15,0.141,0.15,0.078,0,.413-0.03,1.4-0.03h0.477v1.3h-0.812c-1.057,0-1.418-.03-1.508-0.03-0.116,0-.129.02-0.129,0.16v0.95c0,0.13.013,0.14,0.129,0.14,0.09,0,.451-0.03,1.508-0.03h0.953v3.68a3.884,3.884,0,0,1-.85-1.09c0.038-.33.051-0.65,0.064-0.96a1.714,1.714,0,0,1,.09-0.52,0.4,0.4,0,0,0,.052-0.18c0-.09-0.052-0.12-0.206-0.16a9.184,9.184,0,0,0-1.083-.21c0.026,0.29.026,0.55,0.026,0.76a9.018,9.018,0,0,1-.979,4.22,2.044,2.044,0,0,1,.747.62,0.445,0.445,0,0,0,.245.18,0.31,0.31,0,0,0,.193-0.26,9.592,9.592,0,0,0,.658-2.1,4.671,4.671,0,0,0,1.688,1.53,7.247,7.247,0,0,0,3.839.76c1.431,0,2.68-.04,4-0.15,0.412-.02.412-0.02,0.489-0.44a3.829,3.829,0,0,1,.361-1.01,38.537,38.537,0,0,1-4.883.3,8.057,8.057,0,0,1-3.235-.48v-1.93h0.555c0.579,0,.811.03,0.876,0.03,0.129,0,.141-0.01.141-0.13v-0.96c0-.13-0.012-0.14-0.141-0.14-0.065,0-.3.02-0.876,0.02h-0.555v-1.38h0.091c1.069,0,1.417.03,1.494,0.03,0.129,0,.142-0.01.142-0.14v-0.77a3.032,3.032,0,0,1,.464.56,0.429,0.429,0,0,0,.271.29,0.826,0.826,0,0,0,.3-0.11,3.808,3.808,0,0,0,2-3.42h1.392a6.677,6.677,0,0,1-.206,1.88,0.491,0.491,0,0,1-.529.24,4.6,4.6,0,0,1-.966-0.09,3.361,3.361,0,0,1,.245.86c0.064,0.43.064,0.43,0.476,0.43a5.372,5.372,0,0,0,1.1-.08,1.189,1.189,0,0,0,.8-0.66,8.116,8.116,0,0,0,.347-2.84,6.821,6.821,0,0,1,.039-0.72c0-.13-0.026-0.16-0.167-0.16-0.078,0-.439.03-1.508,0.03h-2.19c-1.07,0-1.431-.03-1.508-0.03-0.129,0-.142.01-0.142,0.14v0.89c0,0.13.013,0.14,0.142,0.14,0.077,0,.425-0.03,1.4-0.03a2.59,2.59,0,0,1-1.752,2.49c0-.13-0.026-0.15-0.142-0.15-0.077,0-.425.03-1.494,0.03h-0.181v-1.3h0.129Zm3.711,2.75c-1,0-1.327-.02-1.4-0.02-0.129,0-.142.01-0.142,0.14,0,0.09.026,0.39,0.026,1.12v1.54c0,0.73-.026,1.03-0.026,1.12,0,0.13.013,0.14,0.142,0.14,0.077,0,.4-0.02,1.4-0.02h1.843c0.992,0,1.327.02,1.417,0.02,0.129,0,.142-0.01.142-0.14,0-.08-0.026-0.39-0.026-1.12v-1.54c0-.73.026-1.04,0.026-1.12,0-.13-0.013-0.14-0.142-0.14-0.09,0-.425.02-1.417,0.02h-1.843Zm2.178,2.9h-2.513v-1.79H329.1v1.79Zm11.089-7.81c-1.095,0-1.469-.02-1.546-0.02-0.142,0-.155.01-0.155,0.14v0.91c0,0.13.013,0.14,0.155,0.14,0.025,0,.116,0,0.3-0.01a8.35,8.35,0,0,0,1.533,2.26,10.176,10.176,0,0,1-2.461,1.26v-0.84c0-.78.026-1.13,0.026-1.21,0-.13-0.013-0.15-0.142-0.15-0.09,0-.438.03-1.417,0.03h-0.232v-0.83h0.309c1.083,0,1.469.02,1.546,0.02,0.116,0,.129-0.01.129-0.14v-0.84c0-.12-0.013-0.13-0.129-0.13-0.077,0-.463.02-1.546,0.02h-0.309v-0.04a2.143,2.143,0,0,1,.09-0.84,0.594,0.594,0,0,0,.065-0.23c0-.07-0.065-0.11-0.207-0.13a8.711,8.711,0,0,0-1.224-.09,7.861,7.861,0,0,1,.09,1.33h-0.554c-1.082,0-1.443-.02-1.52-0.02-0.129,0-.142.01-0.142,0.13v0.84c0,0.13.013,0.14,0.142,0.14,0.077,0,.438-0.02,1.52-0.02h0.554v0.83h-0.244c-0.98,0-1.327-.03-1.4-0.03-0.129,0-.142.02-0.142,0.15,0,0.08.026,0.43,0.026,1.21v2.01c0,0.79-.026,1.13-0.026,1.22,0,0.12.013,0.13,0.142,0.13,0.078,0,.425-0.03,1.4-0.03h0.232v0.85H334.48c-1.121,0-1.5-.03-1.572-0.03-0.129,0-.142.02-0.142,0.15v0.83c0,0.13.013,0.14,0.142,0.14,0.077,0,.451-0.03,1.572-0.03h0.567c-0.013,1.23-.026,1.89-0.026,1.95,0,0.13.013,0.15,0.142,0.15h0.953c0.129,0,.142-0.02.142-0.15,0-.05-0.026-0.72-0.026-1.95h0.322c1.121,0,1.521.03,1.6,0.03,0.116,0,.129-0.01.129-0.14v-0.83c0-.13-0.013-0.15-0.129-0.15-0.077,0-.477.03-1.6,0.03h-0.322v-0.85h0.245c0.979,0,1.327.03,1.417,0.03,0.129,0,.142-0.01.142-0.13,0-.08-0.026-0.43-0.026-1.22v-1.14a4.243,4.243,0,0,1,.413.7c0.1,0.24.141,0.35,0.244,0.35a0.862,0.862,0,0,0,.31-0.11,12.158,12.158,0,0,0,2.409-1.4,10.118,10.118,0,0,0,2.487,1.38,1.215,1.215,0,0,0,.3.09c0.116,0,.142-0.1.245-0.35a3.067,3.067,0,0,1,.438-0.81,10.737,10.737,0,0,1-2.525-1.14,10.213,10.213,0,0,0,1.378-1.79,1.823,1.823,0,0,1,.413-0.56,0.31,0.31,0,0,0,.154-0.26,0.846,0.846,0,0,0-.386-0.55,0.784,0.784,0,0,0-.528-0.37,0.321,0.321,0,0,0-.168.05,0.661,0.661,0,0,1-.322.06h-2.68Zm2.358,1.15a7.455,7.455,0,0,1-1.173,1.52,6.594,6.594,0,0,1-1.159-1.52h2.332Zm-5.592,5.09h-0.761v-0.98h0.761v0.98Zm-2.6,0v-0.98h0.76v0.98h-0.76Zm0-1.86v-0.93h0.76v0.93h-0.76Zm2.6-.93v0.93h-0.761v-0.93h0.761Zm4.935,3.23v-0.08a2.769,2.769,0,0,1,.077-0.98,0.744,0.744,0,0,0,.051-0.28c0-.08-0.064-0.13-0.193-0.14-0.438-.04-0.837-0.08-1.3-0.09a8.929,8.929,0,0,1,.09,1.51v0.06h-0.387c-1.082,0-1.443-.02-1.52-0.02-0.129,0-.142.01-0.142,0.14v0.92c0,0.13.013,0.14,0.142,0.14,0.077,0,.438-0.02,1.52-0.02h0.387v1.75h-0.876c-1.2,0-1.585-.02-1.662-0.02-0.129,0-.142.01-0.142,0.14v0.92c0,0.14.013,0.16,0.142,0.16,0.077,0,.463-0.03,1.662-0.03h3.118c1.2,0,1.6.03,1.675,0.03,0.116,0,.129-0.02.129-0.16v-0.92c0-.13-0.013-0.14-0.129-0.14-0.077,0-.477.02-1.675,0.02h-0.966v-1.75h0.592c1.083,0,1.443.02,1.534,0.02,0.129,0,.141-0.01.141-0.14v-0.92c0-.13-0.012-0.14-0.141-0.14-0.091,0-.451.02-1.534,0.02h-0.592Zm14.387,4.2c1.134,0,1.521.02,1.6,0.02,0.129,0,.142-0.01.142-0.14v-0.75c0-.13-0.013-0.15-0.142-0.15-0.077,0-.464.03-1.6,0.03h-3.53v-0.51h2.422c1.237,0,1.662.03,1.74,0.03,0.142,0,.154-0.01.154-0.16v-0.61c0-.13-0.012-0.14-0.154-0.14-0.078,0-.5.03-1.74,0.03h-2.422v-0.5h1.662c1.25,0,1.7.03,1.791,0.03,0.129,0,.142-0.01.142-0.14,0-.08-0.026-0.33-0.026-0.94v-1.14c0-.63.026-0.87,0.026-0.95,0-.13-0.013-0.14-0.142-0.14-0.09,0-.541.02-1.791,0.02h-4.42c-1.249,0-1.7-.02-1.791-0.02-0.128,0-.141.01-0.141,0.14,0,0.09.025,0.32,0.025,0.96v1.13c0,0.61-.025.84-0.025,0.94,0,0.13.013,0.14,0.141,0.14,0.091,0,.542-0.03,1.791-0.03h1.521v0.5h-2.216c-1.25,0-1.675-.03-1.753-0.03-0.129,0-.141.01-0.141,0.14v0.61c0,0.15.012,0.16,0.141,0.16,0.078,0,.5-0.03,1.753-0.03h2.216v0.51h-3.337c-1.134,0-1.521-.03-1.6-0.03-0.116,0-.129.02-0.129,0.15v0.75c0,0.13.013,0.14,0.129,0.14,0.077,0,.464-0.02,1.6-0.02h8.1Zm-1.185-3.59h-2.345v-0.56h2.345v0.56Zm0-1.77v0.56h-2.345v-0.56h2.345Zm-5.8,1.77v-0.56h2.216v0.56h-2.216Zm0-1.21v-0.56h2.216v0.56h-2.216Zm0.541-6.48c-1.263,0-1.714-.03-1.791-0.03-0.142,0-.155.02-0.155,0.15,0,0.09.026,0.32,0.026,0.96v1.12c0,0.61-.026.85-0.026,0.94,0,0.13.013,0.13,0.155,0.13,0.077,0,.528-0.02,1.791-0.02h4.742c1.262,0,1.713.02,1.791,0.02,0.128,0,.141-0.01.141-0.14,0-.08-0.025-0.34-0.025-0.95v-1.1c0-.64.025-0.88,0.025-0.96,0-.13-0.013-0.15-0.141-0.15-0.078,0-.529.03-1.791,0.03h-4.742Zm5.412,2.48h-6.108v-0.52h6.108v0.52Zm0-1.7v0.52h-6.108v-0.52h6.108Zm0.992,3.9c1.134,0,1.533.02,1.61,0.02,0.129,0,.129-0.01.129-0.14v-0.73c0-.13,0-0.13-0.129-0.13-0.077,0-.476.02-1.61,0.02H348.21c-1.134,0-1.533-.02-1.61-0.02-0.116,0-.129,0-0.129.13v0.73c0,0.13.013,0.14,0.129,0.14,0.077,0,.476-0.02,1.61-0.02h8.028Z" transform="translate(-303 -2564)"/>
    <path id="速乾さらさらミルク" class="cls-2" d="M375.431,2580.09c1.549,0,2.088.03,2.206,0.03,0.168,0,.185-0.02.185-0.19,0-.1-0.033-0.42-0.033-1.25v-1.34c0-.8.033-1.12,0.033-1.23,0-.17-0.017-0.18-0.185-0.18-0.118,0-.657.03-2.206,0.03h-1.448v-1.07h2.29c1.65,0,2.223.04,2.324,0.04,0.168,0,.185-0.02.185-0.21v-1.17c0-.15-0.017-0.17-0.185-0.17-0.1,0-.674.03-2.324,0.03h-2.29v-0.06a2.953,2.953,0,0,1,.1-1.01,0.564,0.564,0,0,0,.1-0.27,0.245,0.245,0,0,0-.27-0.18c-0.572-.05-1.044-0.07-1.65-0.09a7.14,7.14,0,0,1,.118,1.53v0.08H370.5c-1.65,0-2.223-.03-2.324-0.03-0.168,0-.185.02-0.185,0.17v1.17c0,0.19.017,0.21,0.185,0.21,0.1,0,.674-0.04,2.324-0.04h1.887v1.07h-1.23c-1.566,0-2.122-.03-2.223-0.03-0.168,0-.185.01-0.185,0.18,0,0.11.034,0.43,0.034,1.23v1.34c0,0.83-.034,1.14-0.034,1.25,0,0.17.017,0.19,0.185,0.19,0.1,0,.657-0.03,2.223-0.03h0.371a8.757,8.757,0,0,1-3.773,2.75,3.75,3.75,0,0,1,.775.92,0.584,0.584,0,0,0,.337.4,1.153,1.153,0,0,0,.4-0.2,9.46,9.46,0,0,0,3.166-2.97c-0.017,1.71-.067,3.14-0.067,3.56,0,0.17.017,0.19,0.185,0.19h1.28c0.168,0,.185-0.02.185-0.19,0-.45-0.084-2-0.1-3.73a8.88,8.88,0,0,0,3.84,3.21,1.065,1.065,0,0,0,.421.15c0.118,0,.168-0.12.269-0.42a4.369,4.369,0,0,1,.64-1.19,9,9,0,0,1-4.244-2.48h0.59Zm0.775-1.24h-2.223v-1.61h2.223v1.61Zm-5.878,0v-1.61h2.055v1.61h-2.055Zm-2.846,1.14c0-1.06.034-1.55,0.034-1.65,0-.17-0.017-0.19-0.186-0.19-0.084,0-.353.04-1.246,0.04h-0.993c-0.876,0-1.112-.04-1.2-0.04-0.185,0-.2.02-0.2,0.19v1.29c0,0.19.017,0.2,0.2,0.2,0.084,0,.32-0.03,1.2-0.03h0.757v3.79a8.468,8.468,0,0,1-1.33,1.07,5.72,5.72,0,0,1-.994.54,15.927,15.927,0,0,0,.691,1.56,0.3,0.3,0,0,0,.236.21,0.238,0.238,0,0,0,.219-0.12,2.118,2.118,0,0,1,.4-0.36,19.73,19.73,0,0,0,1.6-1.44,3.511,3.511,0,0,0,1.751,1.49,11.648,11.648,0,0,0,3.941.44c1.751,0,3.755-.03,5.894-0.15,0.539-.03.539-0.03,0.623-0.58a2.88,2.88,0,0,1,.421-1.25c-2.526.25-5.035,0.35-7.208,0.35a10.609,10.609,0,0,1-3.115-.3,2.642,2.642,0,0,1-1.5-1.38v-3.68Zm-3.284-6.97c-0.168.12-.2,0.17-0.084,0.29a13.272,13.272,0,0,1,2.071,2.65,0.206,0.206,0,0,0,.152.12,0.3,0.3,0,0,0,.2-0.12l0.943-.8c0.168-.13.168-0.18,0.084-0.32a12.746,12.746,0,0,0-2.1-2.48,0.166,0.166,0,0,0-.151-0.08,0.3,0.3,0,0,0-.2.08Zm20.146,10.38c-1.415,0-1.9-.03-1.988-0.03-0.168,0-.185.01-0.185,0.18v1.09c0,0.19.017,0.2,0.185,0.2,0.085,0,.573-0.03,1.988-0.03h0.875c0,1.54-.033,2.27-0.033,2.39,0,0.17.016,0.19,0.2,0.19h1.263c0.168,0,.185-0.02.185-0.19,0-.08-0.034-0.83-0.034-2.36v-0.03h0.539c1.415,0,1.886.03,1.987,0.03,0.169,0,.186-0.01.186-0.2v-1.09c0-.17-0.017-0.18-0.186-0.18-0.1,0-.572.03-1.987,0.03H386.8v-1.24h0.3c1.247,0,1.668.03,1.786,0.03,0.151,0,.168-0.01.168-0.17,0-.12-0.017-0.56-0.017-1.59v-3.08a6.442,6.442,0,0,1,.707.51,0.931,0.931,0,0,0,.4.28,0.75,0.75,0,0,0,.336-0.29v1.05c0,0.19.017,0.2,0.186,0.2,0.084,0,.37-0.03,1.364-0.03h1.8c-0.59.64-1.2,1.32-2.089,2.43-1.263,1.54-1.734,2.46-1.734,3.61a1.81,1.81,0,0,0,.741,1.48,4.84,4.84,0,0,0,2.661.43c2,0,2.8-.22,3.3-0.7a3.21,3.21,0,0,0,.825-2.29c0.033-.53.033-0.53-0.472-0.66a5.012,5.012,0,0,1-1.094-.45c-0.068,1.33-.186,1.79-0.455,2.08a2.536,2.536,0,0,1-1.785.39,3.018,3.018,0,0,1-1.566-.21,0.535,0.535,0,0,1-.287-0.54c0-.6.438-1.22,1.785-2.85,0.809-1.02,1.617-1.86,2.173-2.45a1.869,1.869,0,0,1,.572-0.44,0.336,0.336,0,0,0,.236-0.29,1.239,1.239,0,0,0-.522-0.73,0.931,0.931,0,0,0-.657-0.44,0.581,0.581,0,0,0-.252.07,1.059,1.059,0,0,1-.354.03H392.04c-0.842,0-1.179-.02-1.314-0.03a11.649,11.649,0,0,0,1.027-1.68h3.015c1.92,0,2.509.03,2.61,0.03,0.152,0,.169-0.02.169-0.19v-1.24c0-.18-0.017-0.2-0.169-0.2-0.1,0-.69.03-2.61,0.03h-2.324l0.3-.91a2.092,2.092,0,0,1,.337-0.77,0.441,0.441,0,0,0,.135-0.3,0.335,0.335,0,0,0-.3-0.24,13.846,13.846,0,0,0-1.533-.31,9.762,9.762,0,0,1-.269,1.33,11.5,11.5,0,0,1-2.072,3.92c0-.31.017-0.49,0.017-0.56,0-.17-0.017-0.19-0.168-0.19-0.118,0-.539.04-1.786,0.04h-0.3v-1.23h0.64c1.432,0,1.886.04,1.987,0.04,0.186,0,.2-0.02.2-0.19v-1.09c0-.16-0.017-0.18-0.2-0.18-0.1,0-.555.03-1.987,0.03H386.8v-0.3a2.4,2.4,0,0,1,.1-0.97,0.8,0.8,0,0,0,.085-0.29c0-.1-0.085-0.15-0.253-0.19-0.488-.06-0.994-0.1-1.634-0.12a13.65,13.65,0,0,1,.118,1.87H384.5c-1.415,0-1.886-.03-1.987-0.03-0.169,0-.185.02-0.185,0.18v1.09c0,0.17.016,0.19,0.185,0.19,0.1,0,.572-0.04,1.987-0.04h0.724v1.23H384.9c-1.246,0-1.65-.04-1.768-0.04-0.168,0-.185.02-0.185,0.19,0,0.12.033,0.56,0.033,1.56v2.45c0,1.03-.033,1.47-0.033,1.59,0,0.16.017,0.17,0.185,0.17,0.118,0,.539-0.03,1.785-0.03h0.3v1.24h-0.875Zm3.2-2.53h-3.082v-1.05h3.082v1.05Zm-3.082-3.31h3.082v1.03h-3.082v-1.03Zm21.778-1.9a26.006,26.006,0,0,1-2.661.32c-0.555.03-1.246,0.05-2.1,0.02a13.076,13.076,0,0,0,.388,1.52c0.05,0.21.118,0.31,0.269,0.31,0.421,0,1.2-.05,1.65-0.09,1.213-.1,2.19-0.23,3.251-0.42a11.078,11.078,0,0,0,2.172,3.01,8.4,8.4,0,0,0-3-.46c-2.779,0-4.43,1.36-4.43,3.29,0,2.24,2.139,3.52,6.114,3.52a15.047,15.047,0,0,0,1.869-.12,0.309,0.309,0,0,0,.32-0.24,10.454,10.454,0,0,0,.354-1.82,15.783,15.783,0,0,1-2.695.24c-2.644,0-4.176-.53-4.176-1.8,0-1.07,1.061-1.6,2.812-1.6a7.62,7.62,0,0,1,3.57.87,5.946,5.946,0,0,1,.691.44,0.457,0.457,0,0,0,.269.14,0.438,0.438,0,0,0,.337-0.26,6.657,6.657,0,0,0,.657-1.1,0.561,0.561,0,0,0,.1-0.29,0.327,0.327,0,0,0-.169-0.22c-0.151-.12-0.3-0.24-0.437-0.37a19.481,19.481,0,0,1-2.577-3.59,27.22,27.22,0,0,0,3.351-.98,0.2,0.2,0,0,0,.135-0.29,7.418,7.418,0,0,0-.421-1.31c-0.1-.18-0.152-0.2-0.32-0.12a26.042,26.042,0,0,1-3.52,1.06c-0.219-.46-0.37-0.87-0.572-1.38a7.174,7.174,0,0,1-.27-0.85,2.176,2.176,0,0,1-.017-0.47c0-.24-0.134-0.36-0.572-0.36a13.469,13.469,0,0,0-2,.27,5.564,5.564,0,0,1,.842,1.38C405.717,2574.55,405.953,2575.04,406.239,2575.66Zm12.429-2.16a13.11,13.11,0,0,1,3.4,2.21,0.309,0.309,0,0,0,.2.12,0.333,0.333,0,0,0,.185-0.14,10.884,10.884,0,0,0,.859-1.19,0.438,0.438,0,0,0,.084-0.2,0.24,0.24,0,0,0-.118-0.19,11.033,11.033,0,0,0-3.3-2.02,0.287,0.287,0,0,0-.32.08A9.957,9.957,0,0,0,418.668,2573.5Zm-1.179,2.36a10.716,10.716,0,0,1-.151,1.53c-0.2,1.51-.421,3.51-0.523,5.48a0.286,0.286,0,0,0,.236.34c0.354,0.17.758,0.32,1.145,0.46,0.219,0.05.287,0.05,0.388-.12a4.459,4.459,0,0,1,.724-0.93,7.443,7.443,0,0,1,4.85-2.58,1.74,1.74,0,0,1,2.021,1.75,2.776,2.776,0,0,1-1.987,2.56,13.894,13.894,0,0,1-4.631.95,4.426,4.426,0,0,1,1.145,1.44,0.527,0.527,0,0,0,.673.23,14.532,14.532,0,0,0,4.312-1.18,4.157,4.157,0,0,0,2.543-3.8c0-2.19-1.466-3.63-3.924-3.63a8.175,8.175,0,0,0-5.625,2.68,28.3,28.3,0,0,1,.4-3.09,3.187,3.187,0,0,1,.337-0.9,0.531,0.531,0,0,0,.084-0.26,0.372,0.372,0,0,0-.269-0.32A9.75,9.75,0,0,0,417.489,2575.86Zm19.772-.2a26.024,26.024,0,0,1-2.66.32c-0.556.03-1.247,0.05-2.106,0.02a13.076,13.076,0,0,0,.388,1.52c0.05,0.21.118,0.31,0.269,0.31,0.421,0,1.2-.05,1.651-0.09,1.212-.1,2.189-0.23,3.25-0.42a11.1,11.1,0,0,0,2.172,3.01,8.4,8.4,0,0,0-3-.46c-2.779,0-4.429,1.36-4.429,3.29,0,2.24,2.138,3.52,6.113,3.52a15.047,15.047,0,0,0,1.869-.12,0.308,0.308,0,0,0,.32-0.24,10.454,10.454,0,0,0,.354-1.82,15.783,15.783,0,0,1-2.695.24c-2.644,0-4.176-.53-4.176-1.8,0-1.07,1.061-1.6,2.812-1.6a7.62,7.62,0,0,1,3.57.87,5.946,5.946,0,0,1,.691.44,0.46,0.46,0,0,0,.269.14,0.438,0.438,0,0,0,.337-0.26,6.657,6.657,0,0,0,.657-1.1,0.561,0.561,0,0,0,.1-0.29,0.325,0.325,0,0,0-.168-0.22,5.694,5.694,0,0,1-.438-0.37,19.575,19.575,0,0,1-2.577-3.59,27.22,27.22,0,0,0,3.351-.98,0.2,0.2,0,0,0,.135-0.29,7.418,7.418,0,0,0-.421-1.31c-0.1-.18-0.152-0.2-0.32-0.12a26.042,26.042,0,0,1-3.52,1.06c-0.219-.46-0.37-0.87-0.572-1.38a7.174,7.174,0,0,1-.27-0.85,2.242,2.242,0,0,1-.017-0.47c0-.24-0.134-0.36-0.572-0.36a13.469,13.469,0,0,0-2,.27,5.564,5.564,0,0,1,.842,1.38C436.739,2574.55,436.975,2575.04,437.261,2575.66Zm12.092-2.16a13.11,13.11,0,0,1,3.4,2.21,0.306,0.306,0,0,0,.2.12,0.333,0.333,0,0,0,.185-0.14,10.884,10.884,0,0,0,.859-1.19,0.45,0.45,0,0,0,.084-0.2,0.242,0.242,0,0,0-.118-0.19,11.033,11.033,0,0,0-3.3-2.02,0.287,0.287,0,0,0-.32.08A9.957,9.957,0,0,0,449.353,2573.5Zm-1.179,2.36a10.569,10.569,0,0,1-.152,1.53c-0.2,1.51-.421,3.51-0.522,5.48a0.286,0.286,0,0,0,.236.34c0.354,0.17.758,0.32,1.145,0.46,0.219,0.05.287,0.05,0.388-.12a4.459,4.459,0,0,1,.724-0.93,7.443,7.443,0,0,1,4.85-2.58,1.74,1.74,0,0,1,2.021,1.75,2.776,2.776,0,0,1-1.987,2.56,13.9,13.9,0,0,1-4.632.95,4.416,4.416,0,0,1,1.146,1.44,0.527,0.527,0,0,0,.673.23,14.532,14.532,0,0,0,4.312-1.18,4.156,4.156,0,0,0,2.542-3.8c0-2.19-1.465-3.63-3.923-3.63a8.175,8.175,0,0,0-5.625,2.68,28.3,28.3,0,0,1,.4-3.09,3.187,3.187,0,0,1,.337-0.9,0.531,0.531,0,0,0,.084-0.26,0.372,0.372,0,0,0-.269-0.32A9.75,9.75,0,0,0,448.174,2575.86Zm16.521-1.48a27.38,27.38,0,0,1,6.366,1.96,0.257,0.257,0,0,0,.4-0.12,14.479,14.479,0,0,0,.59-1.48c0.1-.22.067-0.31-0.2-0.43a31.368,31.368,0,0,0-6-1.78,0.317,0.317,0,0,0-.454.22C465.268,2573.02,464.9,2573.89,464.7,2574.38Zm-1.128,4.42a24.711,24.711,0,0,1,5.507,1.81,0.343,0.343,0,0,0,.219.07,0.323,0.323,0,0,0,.236-0.22,10.3,10.3,0,0,0,.555-1.31,0.325,0.325,0,0,0-.219-0.49,26.212,26.212,0,0,0-5.136-1.65,0.31,0.31,0,0,0-.438.17A17.415,17.415,0,0,0,463.567,2578.8Zm-0.269,5.04a30.577,30.577,0,0,1,8.319,2.82,0.494,0.494,0,0,0,.236.08,0.3,0.3,0,0,0,.252-0.2,13.016,13.016,0,0,0,.674-1.39,0.3,0.3,0,0,0-.169-0.46,28.665,28.665,0,0,0-8.066-2.65,0.376,0.376,0,0,0-.472.2A16.985,16.985,0,0,0,463.3,2583.84Zm22.146-7.1a4.721,4.721,0,0,1,.151-1.88,1.065,1.065,0,0,0,.135-0.43,0.32,0.32,0,0,0-.3-0.29,15.656,15.656,0,0,0-2.105-.35,13.685,13.685,0,0,1,.168,2.95v5.32a2.929,2.929,0,0,1-.1,1.29,0.522,0.522,0,0,0-.067.25,0.679,0.679,0,0,0,.152.36,4.991,4.991,0,0,0,1.01,1.04,0.75,0.75,0,0,0,.354.13,0.551,0.551,0,0,0,.336-0.13,4.689,4.689,0,0,1,.489-0.36,28.422,28.422,0,0,0,3-2.04,21.7,21.7,0,0,0,2.492-2.22,0.659,0.659,0,0,0,.253-0.43,0.913,0.913,0,0,0-.1-0.29,4.925,4.925,0,0,1-.523-1.71,18.419,18.419,0,0,1-5.338,4.46v-5.67Zm-5.878-1.88a4.574,4.574,0,0,1,.169,1.42,11.189,11.189,0,0,1-.707,4.81,8.417,8.417,0,0,1-2.8,3.38,5.873,5.873,0,0,1,1.431.71,0.546,0.546,0,0,0,.32.14,0.8,0.8,0,0,0,.438-0.22,8.785,8.785,0,0,0,2.392-3.2,12.756,12.756,0,0,0,.909-4.99,2.438,2.438,0,0,1,.2-1.15,0.342,0.342,0,0,0-.219-0.53A14.5,14.5,0,0,0,479.566,2574.86Zm20.783,0.29c0.2-.31.371-0.56,0.556-0.85a1.821,1.821,0,0,1,.421-0.46,0.348,0.348,0,0,0,.185-0.29,0.366,0.366,0,0,0-.168-0.29,8.321,8.321,0,0,0-1.97-.9,7.23,7.23,0,0,1-.994,2.29,20,20,0,0,1-4.53,5.05,4.5,4.5,0,0,1,1.617.73,0.387,0.387,0,0,0,.252.1,0.523,0.523,0,0,0,.354-0.19,23.4,23.4,0,0,0,3.183-3.48l4.075-.12a17.346,17.346,0,0,1-3.115,4.83,19.6,19.6,0,0,1-5.608,4.33,4.3,4.3,0,0,1,1.6.78,0.572,0.572,0,0,0,.387.18,0.43,0.43,0,0,0,.269-0.08,21.493,21.493,0,0,0,5.12-4.23,23.429,23.429,0,0,0,3.334-5.25,2.126,2.126,0,0,1,.556-0.73,0.485,0.485,0,0,0,.2-0.35,0.537,0.537,0,0,0-.219-0.39,7.208,7.208,0,0,0-1.145-.92,0.466,0.466,0,0,0-.269-0.1,0.336,0.336,0,0,0-.219.06,1.56,1.56,0,0,1-.842.21Z" transform="translate(-303 -2564)"/>
  </g>
</svg>
