<svg id="tag-tm.svg" xmlns="http://www.w3.org/2000/svg" width="133" height="30" viewBox="0 0 133 30">
  <defs>
    <style>
      .cls-1 {
        fill: #fff;
      }

      .cls-2 {
        fill: #96711c;
        fill-rule: evenodd;
      }
    </style>
  </defs>
  <rect id="長方形_688" data-name="長方形 688" class="cls-1" width="133" height="30" rx="3" ry="3"/>
  <g id="グループ_131" data-name="グループ 131">
    <path id="さらさらミルク" class="cls-2" d="M363.148,2925.66a26.071,26.071,0,0,1-2.661.32c-0.556.03-1.246,0.05-2.105,0.02a13.291,13.291,0,0,0,.387,1.52c0.051,0.21.118,0.31,0.27,0.31,0.421,0,1.195-.05,1.65-0.09,1.213-.1,2.189-0.23,3.25-0.42a11.1,11.1,0,0,0,2.173,3.01,8.407,8.407,0,0,0-3-.46c-2.778,0-4.429,1.36-4.429,3.29,0,2.24,2.139,3.52,6.113,3.52a15.052,15.052,0,0,0,1.87-.12,0.309,0.309,0,0,0,.32-0.24,10.374,10.374,0,0,0,.353-1.82,15.763,15.763,0,0,1-2.694.24c-2.644,0-4.177-.53-4.177-1.8,0-1.07,1.061-1.6,2.813-1.6a7.623,7.623,0,0,1,3.57.87,5.923,5.923,0,0,1,.69.44,0.462,0.462,0,0,0,.27.14,0.438,0.438,0,0,0,.337-0.26,6.582,6.582,0,0,0,.656-1.1,0.552,0.552,0,0,0,.1-0.29,0.325,0.325,0,0,0-.168-0.22c-0.151-.12-0.3-0.24-0.438-0.37a19.521,19.521,0,0,1-2.576-3.59,27.22,27.22,0,0,0,3.351-.98,0.2,0.2,0,0,0,.135-0.29,7.418,7.418,0,0,0-.421-1.31c-0.1-.18-0.152-0.2-0.32-0.12a26.087,26.087,0,0,1-3.52,1.06c-0.219-.46-0.371-0.87-0.573-1.38a7.122,7.122,0,0,1-.269-0.85,2.176,2.176,0,0,1-.017-0.47c0-.24-0.135-0.36-0.573-0.36a13.5,13.5,0,0,0-2,.27,5.534,5.534,0,0,1,.842,1.38C362.626,2924.55,362.862,2925.04,363.148,2925.66Zm12.429-2.16a13.1,13.1,0,0,1,3.4,2.21,0.31,0.31,0,0,0,.2.12,0.336,0.336,0,0,0,.185-0.14,10.884,10.884,0,0,0,.859-1.19,0.45,0.45,0,0,0,.084-0.2,0.242,0.242,0,0,0-.118-0.19,11.037,11.037,0,0,0-3.3-2.02,0.288,0.288,0,0,0-.32.08A10.056,10.056,0,0,0,375.577,2923.5Zm-1.179,2.36a10.569,10.569,0,0,1-.152,1.53c-0.2,1.51-.421,3.51-0.522,5.48a0.286,0.286,0,0,0,.236.34c0.354,0.17.758,0.32,1.145,0.46,0.219,0.05.286,0.05,0.387-.12a4.464,4.464,0,0,1,.725-0.93,7.443,7.443,0,0,1,4.85-2.58,1.74,1.74,0,0,1,2.021,1.75,2.776,2.776,0,0,1-1.988,2.56,13.889,13.889,0,0,1-4.631.95,4.426,4.426,0,0,1,1.145,1.44,0.529,0.529,0,0,0,.674.23,14.525,14.525,0,0,0,4.311-1.18,4.155,4.155,0,0,0,2.543-3.8c0-2.19-1.465-3.63-3.924-3.63a8.178,8.178,0,0,0-5.625,2.68,28.3,28.3,0,0,1,.4-3.09,3.216,3.216,0,0,1,.336-0.9,0.523,0.523,0,0,0,.085-0.26,0.374,0.374,0,0,0-.27-0.32A9.708,9.708,0,0,0,374.4,2925.86Zm19.772-.2a26.006,26.006,0,0,1-2.661.32c-0.555.03-1.246,0.05-2.105,0.02a13.076,13.076,0,0,0,.388,1.52c0.05,0.21.117,0.31,0.269,0.31,0.421,0,1.2-.05,1.65-0.09,1.213-.1,2.19-0.23,3.251-0.42a11.078,11.078,0,0,0,2.172,3.01,8.4,8.4,0,0,0-3-.46c-2.778,0-4.429,1.36-4.429,3.29,0,2.24,2.139,3.52,6.114,3.52a15.047,15.047,0,0,0,1.869-.12,0.309,0.309,0,0,0,.32-0.24,10.374,10.374,0,0,0,.353-1.82,15.763,15.763,0,0,1-2.694.24c-2.644,0-4.177-.53-4.177-1.8,0-1.07,1.061-1.6,2.813-1.6a7.623,7.623,0,0,1,3.57.87,5.946,5.946,0,0,1,.691.44,0.457,0.457,0,0,0,.269.14,0.438,0.438,0,0,0,.337-0.26,6.657,6.657,0,0,0,.657-1.1,0.561,0.561,0,0,0,.1-0.29,0.327,0.327,0,0,0-.169-0.22c-0.151-.12-0.3-0.24-0.438-0.37a19.521,19.521,0,0,1-2.576-3.59,27.22,27.22,0,0,0,3.351-.98,0.2,0.2,0,0,0,.135-0.29,7.418,7.418,0,0,0-.421-1.31c-0.1-.18-0.152-0.2-0.32-0.12a26.042,26.042,0,0,1-3.52,1.06c-0.219-.46-0.37-0.87-0.573-1.38a7.317,7.317,0,0,1-.269-0.85,2.176,2.176,0,0,1-.017-0.47c0-.24-0.135-0.36-0.572-0.36a13.469,13.469,0,0,0-2,.27,5.6,5.6,0,0,1,.842,1.38C393.648,2924.55,393.884,2925.04,394.17,2925.66Zm12.092-2.16a13.1,13.1,0,0,1,3.4,2.21,0.31,0.31,0,0,0,.2.12,0.336,0.336,0,0,0,.185-0.14,10.884,10.884,0,0,0,.859-1.19,0.45,0.45,0,0,0,.084-0.2,0.242,0.242,0,0,0-.118-0.19,11.037,11.037,0,0,0-3.3-2.02,0.287,0.287,0,0,0-.32.08A10.056,10.056,0,0,0,406.262,2923.5Zm-1.179,2.36a10.569,10.569,0,0,1-.152,1.53c-0.2,1.51-.421,3.51-0.522,5.48a0.286,0.286,0,0,0,.236.34c0.354,0.17.758,0.32,1.145,0.46,0.219,0.05.286,0.05,0.387-.12a4.464,4.464,0,0,1,.725-0.93,7.443,7.443,0,0,1,4.85-2.58,1.74,1.74,0,0,1,2.021,1.75,2.776,2.776,0,0,1-1.988,2.56,13.889,13.889,0,0,1-4.631.95,4.426,4.426,0,0,1,1.145,1.44,0.529,0.529,0,0,0,.674.23,14.525,14.525,0,0,0,4.311-1.18,4.155,4.155,0,0,0,2.543-3.8c0-2.19-1.465-3.63-3.924-3.63a8.178,8.178,0,0,0-5.625,2.68,28.3,28.3,0,0,1,.4-3.09,3.216,3.216,0,0,1,.336-0.9,0.523,0.523,0,0,0,.085-0.26,0.374,0.374,0,0,0-.27-0.32A9.708,9.708,0,0,0,405.083,2925.86Zm16.521-1.48a27.4,27.4,0,0,1,6.366,1.96,0.257,0.257,0,0,0,.4-0.12,14.474,14.474,0,0,0,.589-1.48c0.1-.22.068-0.31-0.2-0.43a31.337,31.337,0,0,0-6-1.78,0.318,0.318,0,0,0-.455.22C422.177,2923.02,421.806,2923.89,421.6,2924.38Zm-1.128,4.42a24.711,24.711,0,0,1,5.507,1.81,0.343,0.343,0,0,0,.219.07,0.32,0.32,0,0,0,.235-0.22,10.163,10.163,0,0,0,.556-1.31,0.326,0.326,0,0,0-.219-0.49,26.212,26.212,0,0,0-5.136-1.65,0.31,0.31,0,0,0-.438.17A17.15,17.15,0,0,0,420.476,2928.8Zm-0.27,5.04a30.584,30.584,0,0,1,8.32,2.82,0.494,0.494,0,0,0,.235.08,0.3,0.3,0,0,0,.253-0.2,13.016,13.016,0,0,0,.674-1.39,0.3,0.3,0,0,0-.169-0.46,28.671,28.671,0,0,0-8.067-2.65,0.375,0.375,0,0,0-.471.2A17.225,17.225,0,0,0,420.206,2933.84Zm22.147-7.1a4.721,4.721,0,0,1,.151-1.88,1.081,1.081,0,0,0,.135-0.43,0.32,0.32,0,0,0-.3-0.29,15.684,15.684,0,0,0-2.105-.35,13.685,13.685,0,0,1,.168,2.95v5.32a2.929,2.929,0,0,1-.1,1.29,0.522,0.522,0,0,0-.067.25,0.685,0.685,0,0,0,.151.36,5.021,5.021,0,0,0,1.011,1.04,0.743,0.743,0,0,0,.353.13,0.553,0.553,0,0,0,.337-0.13,4.579,4.579,0,0,1,.489-0.36,28.4,28.4,0,0,0,3-2.04,21.619,21.619,0,0,0,2.493-2.22,0.657,0.657,0,0,0,.252-0.43,0.889,0.889,0,0,0-.1-0.29,4.944,4.944,0,0,1-.522-1.71,18.419,18.419,0,0,1-5.338,4.46v-5.67Zm-5.878-1.88a4.574,4.574,0,0,1,.169,1.42,11.169,11.169,0,0,1-.708,4.81,8.414,8.414,0,0,1-2.795,3.38,5.873,5.873,0,0,1,1.431.71,0.546,0.546,0,0,0,.32.14,0.8,0.8,0,0,0,.438-0.22,8.77,8.77,0,0,0,2.391-3.2,12.736,12.736,0,0,0,.91-4.99,2.438,2.438,0,0,1,.2-1.15,0.342,0.342,0,0,0-.219-0.53A14.5,14.5,0,0,0,436.475,2924.86Zm20.783,0.29c0.2-.31.371-0.56,0.556-0.85a1.821,1.821,0,0,1,.421-0.46,0.348,0.348,0,0,0,.185-0.29,0.366,0.366,0,0,0-.168-0.29,8.353,8.353,0,0,0-1.971-.9,7.2,7.2,0,0,1-.993,2.29,20,20,0,0,1-4.53,5.05,4.5,4.5,0,0,1,1.616.73,0.391,0.391,0,0,0,.253.1,0.523,0.523,0,0,0,.354-0.19,23.346,23.346,0,0,0,3.182-3.48l4.076-.12a17.325,17.325,0,0,1-3.116,4.83,19.572,19.572,0,0,1-5.608,4.33,4.3,4.3,0,0,1,1.6.78,0.577,0.577,0,0,0,.388.18,0.43,0.43,0,0,0,.269-0.08,21.532,21.532,0,0,0,5.12-4.23,23.429,23.429,0,0,0,3.334-5.25,2.126,2.126,0,0,1,.556-0.73,0.485,0.485,0,0,0,.2-0.35,0.537,0.537,0,0,0-.219-0.39,7.253,7.253,0,0,0-1.145-.92,0.467,0.467,0,0,0-.27-0.1,0.333,0.333,0,0,0-.218.06,1.567,1.567,0,0,1-.843.21Z" transform="translate(-345 -2914)"/>
  </g>
</svg>
