<svg id="tag-ncm.svg" xmlns="http://www.w3.org/2000/svg" width="139" height="30" viewBox="0 0 139 30">
  <defs>
    <style>
      .cls-1 {
        fill: #fff;
      }

      .cls-2 {
        fill: #0092c4;
        fill-rule: evenodd;
      }
    </style>
  </defs>
  <rect id="長方形_688" data-name="長方形 688" class="cls-1" width="139" height="30" rx="3" ry="3"/>
  <g id="グループ_131" data-name="グループ 131">
    <path id="うるおいミルク" class="cls-2" d="M360.379,3270.94a7.98,7.98,0,0,0-.5,1.59,0.249,0.249,0,0,0,.118.34,22.286,22.286,0,0,0,4.883,1.31c0.135,0.02.186-.07,0.236-0.24a14.1,14.1,0,0,0,.371-1.49,0.247,0.247,0,0,0-.219-0.31A20.671,20.671,0,0,1,360.379,3270.94Zm-3.267,5.6a11.313,11.313,0,0,0,.859,1.78,0.652,0.652,0,0,0,.471.38,0.624,0.624,0,0,0,.371-0.17,7.237,7.237,0,0,1,1.431-.82,5.667,5.667,0,0,1,2.644-.73c0.977,0,1.566.73,1.566,2.14a5.017,5.017,0,0,1-.926,3.01,9.147,9.147,0,0,1-3.705,2.83,4.247,4.247,0,0,1,1.4.9,0.521,0.521,0,0,0,.4.22,0.747,0.747,0,0,0,.286-0.08,9.461,9.461,0,0,0,3.251-2.7,6.719,6.719,0,0,0,1.364-4.06c0-2.5-1.3-4.04-3.554-4.04a11.874,11.874,0,0,0-3.856.85A8.736,8.736,0,0,1,357.112,3276.54Zm19.013,1.29c1.28-1.24,2.408-2.43,3.638-3.63a2.811,2.811,0,0,1,.741-0.55,0.434,0.434,0,0,0,.286-0.4,0.587,0.587,0,0,0-.185-0.41,6.3,6.3,0,0,0-1.129-1.09,0.622,0.622,0,0,0-.387-0.13,0.866,0.866,0,0,0-.32.13,4.36,4.36,0,0,1-.926.26c-1.314.25-2.8,0.47-3.823,0.57a7.456,7.456,0,0,1-1.566-.03,8.046,8.046,0,0,0,.589,1.83,0.378,0.378,0,0,0,.371.29,1.368,1.368,0,0,0,.336-0.08c0.27-.1.489-0.15,0.708-0.21,1.044-.22,2.24-0.45,3.25-0.64-0.775.97-1.566,1.82-2.61,2.9a40.384,40.384,0,0,1-3.992,3.76,0.271,0.271,0,0,0-.084.39,8.234,8.234,0,0,0,.994,1.1,0.415,0.415,0,0,0,.252.15,0.5,0.5,0,0,0,.287-0.18c0.5-.51.976-1.01,1.465-1.45a6.834,6.834,0,0,1,4.311-1.8,2.47,2.47,0,0,1,2.644,2.57,2.562,2.562,0,0,1-1.718,2.58,3.07,3.07,0,0,0-3.166-2.48,2.239,2.239,0,0,0-2.374,2.07c0,1.58,1.28,2.5,3.4,2.5,3.6,0,5.877-1.82,5.877-4.66a3.923,3.923,0,0,0-4.177-4.07,5.059,5.059,0,0,0-2.677.76Zm1.465,6.35a3.714,3.714,0,0,1-.775.07c-1.01,0-1.465-.36-1.465-0.88a0.716,0.716,0,0,1,.809-0.65A1.566,1.566,0,0,1,377.59,3284.18Zm13.694-4.51c-1.229.71-2.021,1.17-2.745,1.57a6,6,0,0,1-1.549.6c0.252,0.56.589,1.27,0.774,1.58a0.47,0.47,0,0,0,.371.27,0.4,0.4,0,0,0,.286-0.12,2.768,2.768,0,0,1,.539-0.37,10.323,10.323,0,0,1,2.391,2.17,0.479,0.479,0,0,0,.4.34,7.232,7.232,0,0,0,1.247-.2c0.286-.07.252-0.33,0.252-0.56,0-.39-0.084-1.46-0.134-2.21-0.034-.75-0.051-1.33-0.068-2.04a8.26,8.26,0,0,1,3.857-1.15,1.618,1.618,0,0,1,1.852,1.71,1.675,1.675,0,0,1-1.819,1.75,6.048,6.048,0,0,1-2.105-.31,3.01,3.01,0,0,1,.506,1.45,0.458,0.458,0,0,0,.37.51,6.829,6.829,0,0,0,1.381.15c2.274,0,3.654-1.27,3.654-3.45a3.341,3.341,0,0,0-3.587-3.39,10.472,10.472,0,0,0-4.142.93c0.016-.81.016-1.65,0.033-2.46a16.145,16.145,0,0,0,2.408-.65,0.233,0.233,0,0,0,.219-0.27,8.439,8.439,0,0,0-.1-1.32,0.187,0.187,0,0,0-.286-0.16,15.26,15.26,0,0,1-2.156.63c0.017-.54.034-0.97,0.085-1.41a2.08,2.08,0,0,1,.235-0.66,0.589,0.589,0,0,0,.1-0.27,0.374,0.374,0,0,0-.336-0.32,9.112,9.112,0,0,0-2-.31,6.372,6.372,0,0,1,.117,1.38c0,0.73-.016,1.37-0.016,1.93-0.708.07-1.432,0.14-2.139,0.14a8.293,8.293,0,0,1-1.314-.09c0.068,0.6.135,1.16,0.186,1.48a0.337,0.337,0,0,0,.4.36c1.128,0,1.987-.07,2.829-0.14v2.91Zm0.084,1.78c0.034,0.56.068,1.34,0.1,1.78,0.017,0.15-.033.17-0.168,0.14a15.725,15.725,0,0,1-1.583-.77C390.324,3282.16,390.9,3281.77,391.368,3281.45Zm5.625-6.44a7.8,7.8,0,0,1,3.419,2.09,0.265,0.265,0,0,0,.336,0c0.253-.34.691-0.86,0.91-1.2a0.455,0.455,0,0,0,.067-0.17,0.23,0.23,0,0,0-.1-0.17,8.017,8.017,0,0,0-3.57-2.08c-0.118-.03-0.168.02-0.286,0.21A9.914,9.914,0,0,0,396.993,3275.01Zm8.609-1.81a9.172,9.172,0,0,1,.2,2.22,31.061,31.061,0,0,0,.4,4.94c0.455,2.87,1.836,4.43,3.149,4.43,1.179,0,2.223-.91,2.863-2.65a0.509,0.509,0,0,0-.118-0.62,6.864,6.864,0,0,1-1.077-1.31c-0.657,1.76-1.078,2.36-1.617,2.36-0.707,0-1.145-1.16-1.381-2.5a21.548,21.548,0,0,1-.3-3.87,7.651,7.651,0,0,1,.151-1.66,1.543,1.543,0,0,0,.135-0.48,0.38,0.38,0,0,0-.269-0.3A7.039,7.039,0,0,0,405.6,3273.2Zm8.622,2.41a11.44,11.44,0,0,1,3.15,5.92c0.033,0.21.151,0.26,0.353,0.19a5.543,5.543,0,0,0,1.314-.68,0.291,0.291,0,0,0,.185-0.37,11.22,11.22,0,0,0-3.3-5.81,0.248,0.248,0,0,0-.185-0.1,0.416,0.416,0,0,0-.185.07A13.837,13.837,0,0,0,414.224,3275.61Zm10.224-2.23a27.387,27.387,0,0,1,6.365,1.96,0.258,0.258,0,0,0,.405-0.12,14.707,14.707,0,0,0,.589-1.48c0.1-.22.067-0.31-0.2-0.43a31.337,31.337,0,0,0-6-1.78,0.318,0.318,0,0,0-.455.22C425.02,3272.02,424.65,3272.89,424.448,3273.38Zm-1.129,4.42a24.711,24.711,0,0,1,5.507,1.81,0.345,0.345,0,0,0,.219.07,0.321,0.321,0,0,0,.236-0.22,10.305,10.305,0,0,0,.556-1.31,0.326,0.326,0,0,0-.219-0.49,26.244,26.244,0,0,0-5.137-1.65,0.31,0.31,0,0,0-.438.17A17.689,17.689,0,0,0,423.319,3277.8Zm-0.269,5.04a30.577,30.577,0,0,1,8.319,2.82,0.5,0.5,0,0,0,.236.08,0.3,0.3,0,0,0,.253-0.2,13.209,13.209,0,0,0,.673-1.39,0.3,0.3,0,0,0-.168-0.46,28.682,28.682,0,0,0-8.067-2.65,0.375,0.375,0,0,0-.471.2A17.225,17.225,0,0,0,423.05,3282.84Zm21.809-7.1a4.692,4.692,0,0,1,.152-1.88,1.076,1.076,0,0,0,.134-0.43,0.32,0.32,0,0,0-.3-0.29,15.656,15.656,0,0,0-2.1-.35,13.605,13.605,0,0,1,.169,2.95v5.32a2.921,2.921,0,0,1-.1,1.29,0.522,0.522,0,0,0-.067.25,0.688,0.688,0,0,0,.152.36,5.016,5.016,0,0,0,1.01,1.04,0.75,0.75,0,0,0,.354.13,0.553,0.553,0,0,0,.337-0.13,4.537,4.537,0,0,1,.488-0.36,28.422,28.422,0,0,0,3-2.04,21.7,21.7,0,0,0,2.492-2.22,0.659,0.659,0,0,0,.253-0.43,0.913,0.913,0,0,0-.1-0.29,4.9,4.9,0,0,1-.522-1.71,18.438,18.438,0,0,1-5.339,4.46v-5.67Zm-5.877-1.88a4.606,4.606,0,0,1,.168,1.42,11.189,11.189,0,0,1-.707,4.81,8.417,8.417,0,0,1-2.8,3.38,5.881,5.881,0,0,1,1.432.71,0.546,0.546,0,0,0,.32.14,0.8,0.8,0,0,0,.437-0.22,8.785,8.785,0,0,0,2.392-3.2,12.72,12.72,0,0,0,.909-4.99,2.438,2.438,0,0,1,.2-1.15,0.342,0.342,0,0,0-.219-0.53A14.48,14.48,0,0,0,438.982,3273.86Zm20.783,0.29c0.2-.31.37-0.56,0.555-0.85a1.821,1.821,0,0,1,.421-0.46,0.349,0.349,0,0,0,.186-0.29,0.367,0.367,0,0,0-.169-0.29,8.321,8.321,0,0,0-1.97-.9,7.208,7.208,0,0,1-.994,2.29,20,20,0,0,1-4.53,5.05,4.493,4.493,0,0,1,1.617.73,0.387,0.387,0,0,0,.252.1,0.523,0.523,0,0,0,.354-0.19,23.4,23.4,0,0,0,3.183-3.48l4.075-.12a17.346,17.346,0,0,1-3.115,4.83,19.6,19.6,0,0,1-5.608,4.33,4.3,4.3,0,0,1,1.6.78,0.572,0.572,0,0,0,.387.18,0.434,0.434,0,0,0,.27-0.08,21.509,21.509,0,0,0,5.119-4.23,23.463,23.463,0,0,0,3.335-5.25,2.124,2.124,0,0,1,.555-0.73,0.485,0.485,0,0,0,.2-0.35,0.539,0.539,0,0,0-.218-0.39,7.262,7.262,0,0,0-1.146-.92,0.466,0.466,0,0,0-.269-0.1,0.336,0.336,0,0,0-.219.06,1.56,1.56,0,0,1-.842.21Z" transform="translate(-342 -3264)"/>
  </g>
</svg>
