<svg id="tag-mousse.svg" xmlns="http://www.w3.org/2000/svg" width="217" height="30" viewBox="0 0 217 30">
  <defs>
    <style>
      .cls-1 {
        fill: #fff;
      }

      .cls-2 {
        fill: #aa7cb7;
        fill-rule: evenodd;
      }
    </style>
  </defs>
  <rect id="長方形_688" data-name="長方形 688" class="cls-1" width="217" height="30" rx="3" ry="3"/>
  <g id="グループ_131" data-name="グループ 131">
    <path id="トーンアップ_ラベンダー" data-name="トーンアップ/ラベンダー" class="cls-2" d="M321.305,2583.84a4.552,4.552,0,0,1,.117-1.6,0.845,0.845,0,0,0,.135-0.39,0.31,0.31,0,0,0-.32-0.28,11.745,11.745,0,0,0-2.105-.28,13.1,13.1,0,0,1,.168,2.52v8.35c0,1.09-.016,2.09-0.067,3.35,0,0.2.084,0.25,0.32,0.25a9.378,9.378,0,0,0,1.5,0c0.236,0,.32-0.05.3-0.25-0.034-1.23-.067-2.23-0.067-3.33v-3.75a18.476,18.476,0,0,1,4.429,2.17,0.241,0.241,0,0,0,.185.08,0.272,0.272,0,0,0,.219-0.18,10.03,10.03,0,0,0,.724-1.48,0.313,0.313,0,0,0-.185-0.44,23.505,23.505,0,0,0-5.355-2.31v-2.43Zm18.728,5.91c1.246,0,2.492.02,3.755,0.03,0.236,0.02.3-.05,0.3-0.25a12.562,12.562,0,0,0,0-1.6c0-.2-0.05-0.25-0.3-0.23-1.3.01-2.593,0.05-3.873,0.05h-5.423a21.345,21.345,0,0,1-3.638-.21,18.749,18.749,0,0,0,.253,2.06,0.368,0.368,0,0,0,.387.35,13.622,13.622,0,0,1,2.476-.2h6.063Zm8.018-5.33a17.7,17.7,0,0,1,3.435,2.77,0.362,0.362,0,0,0,.219.13,0.33,0.33,0,0,0,.2-0.13c0.236-.26.792-0.94,1.044-1.28a0.345,0.345,0,0,0,.1-0.22,0.408,0.408,0,0,0-.151-0.24,17.957,17.957,0,0,0-3.217-2.41,0.44,0.44,0,0,0-.219-0.08,0.321,0.321,0,0,0-.235.13C348.91,2583.43,348.421,2583.96,348.051,2584.42Zm0.37,8.47a12.175,12.175,0,0,0,1.347,1.89,0.421,0.421,0,0,0,.287.18,0.432,0.432,0,0,0,.3-0.17,6.02,6.02,0,0,1,1.128-.78,35.306,35.306,0,0,0,5.086-3.33,26.71,26.71,0,0,0,3.874-3.6,0.817,0.817,0,0,0,.269-0.51,0.847,0.847,0,0,0-.084-0.32,7.656,7.656,0,0,1-.472-1.98,25.366,25.366,0,0,1-4.614,4.61,24.765,24.765,0,0,1-4.85,3.16A10.143,10.143,0,0,1,348.421,2592.89Zm26.729-8.3a12.091,12.091,0,0,1-3.015,2.97,3.873,3.873,0,0,1,1.4.7,0.666,0.666,0,0,0,.4.17,0.5,0.5,0,0,0,.354-0.16,14.5,14.5,0,0,0,2.964-3.27,2.144,2.144,0,0,1,.454-0.5,0.439,0.439,0,0,0,.236-0.35,0.479,0.479,0,0,0-.135-0.31,8.42,8.42,0,0,0-1.01-1.07,0.6,0.6,0,0,0-.387-0.24,1.391,1.391,0,0,0-.32.12,3.486,3.486,0,0,1-1.162.1h-7.225c-1.347,0-2.273-.03-3.419-0.11a16.785,16.785,0,0,0,.3,1.83,0.261,0.261,0,0,0,.3.25c0.993-.06,2.021-0.13,2.98-0.13h7.276Zm-9.852,9.86a4.708,4.708,0,0,1,1.532.87,0.479,0.479,0,0,0,.337.15,0.858,0.858,0,0,0,.472-0.17,8.777,8.777,0,0,0,3.065-3.38,10.444,10.444,0,0,0,.993-4.67,1.571,1.571,0,0,1,.152-0.69,0.721,0.721,0,0,0,.084-0.31,0.307,0.307,0,0,0-.286-0.32,17.416,17.416,0,0,0-2.173-.32,6.086,6.086,0,0,1,.169,1.59,7.93,7.93,0,0,1-.825,4.01A7.439,7.439,0,0,1,365.3,2594.45Zm16-7.45a10.066,10.066,0,0,1,1.583,2.73c0.084,0.24.185,0.33,0.421,0.24a6.563,6.563,0,0,0,1.077-.53,0.288,0.288,0,0,0,.2-0.23,1.163,1.163,0,0,0-.068-0.26,9.146,9.146,0,0,0-1.448-2.51,0.3,0.3,0,0,0-.438-0.12C382.274,2586.49,381.87,2586.68,381.3,2587Zm3.385-.87a11.627,11.627,0,0,1,1.414,2.72c0.084,0.24.152,0.32,0.337,0.25a6.7,6.7,0,0,0,1.162-.52,0.3,0.3,0,0,0,.168-0.46,9.859,9.859,0,0,0-1.3-2.48,0.3,0.3,0,0,0-.438-0.14C385.744,2585.62,385.356,2585.81,384.683,2586.13Zm5.3-.4a6.219,6.219,0,0,1-.387,1.8,17.815,17.815,0,0,1-2.273,4.09,14.736,14.736,0,0,1-4.042,3.53,3.826,3.826,0,0,1,1.431.71,0.366,0.366,0,0,0,.27.12,0.731,0.731,0,0,0,.4-0.18,13.813,13.813,0,0,0,3.469-3.28A20.833,20.833,0,0,0,391.4,2588a2.371,2.371,0,0,1,.5-0.86,0.324,0.324,0,0,0-.033-0.6A7.893,7.893,0,0,0,389.987,2585.73Zm15.984-.39a14.327,14.327,0,0,1-2.846,4.83,16.3,16.3,0,0,1-5.507,4.25,4.969,4.969,0,0,1,1.566.93,0.577,0.577,0,0,0,.421.19,0.822,0.822,0,0,0,.455-0.15,19.056,19.056,0,0,0,4.783-4.04,20.146,20.146,0,0,0,3.267-5.52,2,2,0,0,1,.387-0.66,0.486,0.486,0,0,0,.169-0.33,0.584,0.584,0,0,0-.135-0.34,6.591,6.591,0,0,0-1.145-1.17,0.418,0.418,0,0,0-.287-0.12,0.6,0.6,0,0,0-.286.1,1.566,1.566,0,0,1-.926.17h-6.012a31.167,31.167,0,0,1-3.234-.11c0.034,0.49.1,1.37,0.152,1.71,0.033,0.24.1,0.36,0.32,0.34,0.724-.03,1.684-0.08,2.778-0.08h6.08Zm3.739-5.08a1.779,1.779,0,0,0-1.819,1.81A1.819,1.819,0,1,0,409.71,2580.26Zm0,0.81a1.005,1.005,0,1,1-.994,1A0.971,0.971,0,0,1,409.71,2581.07Zm12.264-.59h-1.061l-6.854,16.15h1.061Zm10.62,3.41c1.027,0,1.819.04,2.374,0.04,0.253,0.01.3-.06,0.3-0.34a8.684,8.684,0,0,0,0-1.33c0-.19-0.05-0.27-0.2-0.27-0.656.03-1.549,0.08-2.644,0.08h-3.031a23.544,23.544,0,0,1-2.762-.11,15.2,15.2,0,0,0,.084,1.63c0.017,0.27.068,0.37,0.236,0.37,0.707-.05,1.549-0.07,2.307-0.07h3.335Zm1.28,3.64a13.209,13.209,0,0,1-7.074,7.08,4.86,4.86,0,0,1,1.567.88,0.522,0.522,0,0,0,.37.2,0.782,0.782,0,0,0,.337-0.12,14.748,14.748,0,0,0,6.871-7.5,1.943,1.943,0,0,1,.573-0.8,0.408,0.408,0,0,0,.185-0.32,0.51,0.51,0,0,0-.169-0.36,10.219,10.219,0,0,0-1.128-1.05,0.42,0.42,0,0,0-.252-0.12,0.344,0.344,0,0,0-.219.1,1.88,1.88,0,0,1-.893.19h-5.776a30.029,30.029,0,0,1-3.1-.14,12.943,12.943,0,0,0,.185,1.72c0.034,0.22.1,0.32,0.253,0.32,0.842-.05,1.684-0.07,2.526-0.07Zm6.84,2.15a20.419,20.419,0,0,0,1.566,1.5,0.37,0.37,0,0,0,.235.12,0.389,0.389,0,0,0,.3-0.23,6.052,6.052,0,0,1,.673-0.86c1.162-1.29,1.92-2.21,2.745-3.07a0.342,0.342,0,0,1,.27-0.14,0.392,0.392,0,0,1,.269.12,75.651,75.651,0,0,0,7.461,5.92,0.242,0.242,0,0,0,.185.07,0.37,0.37,0,0,0,.253-0.18,10.627,10.627,0,0,0,.875-1.48,0.3,0.3,0,0,0-.151-0.46,53.464,53.464,0,0,1-7.545-5.52,1.8,1.8,0,0,0-2.981.2c-0.791.85-1.617,1.72-2.442,2.57A7.619,7.619,0,0,1,440.714,2589.68Zm9.195-5.47a8.6,8.6,0,0,1,1.7,1.97,0.178,0.178,0,0,0,.286.06l0.707-.53a0.171,0.171,0,0,0,.051-0.27,7.881,7.881,0,0,0-1.6-1.82,0.174,0.174,0,0,0-.253-0.03Zm1.549-1.12a8.115,8.115,0,0,1,1.684,1.96,0.173,0.173,0,0,0,.286.05l0.674-.53a0.191,0.191,0,0,0,.05-0.3,6.872,6.872,0,0,0-1.6-1.75c-0.1-.09-0.152-0.11-0.253-0.04Zm7.716,1.33a17.7,17.7,0,0,1,3.435,2.77,0.362,0.362,0,0,0,.219.13,0.33,0.33,0,0,0,.2-0.13c0.236-.26.792-0.94,1.044-1.28a0.345,0.345,0,0,0,.1-0.22,0.408,0.408,0,0,0-.151-0.24,17.957,17.957,0,0,0-3.217-2.41,0.44,0.44,0,0,0-.219-0.08,0.321,0.321,0,0,0-.235.13C460.033,2583.43,459.544,2583.96,459.174,2584.42Zm0.37,8.47a12.175,12.175,0,0,0,1.347,1.89,0.419,0.419,0,0,0,.287.18,0.432,0.432,0,0,0,.3-0.17,6.02,6.02,0,0,1,1.128-.78,35.306,35.306,0,0,0,5.086-3.33,26.71,26.71,0,0,0,3.874-3.6,0.817,0.817,0,0,0,.269-0.51,0.847,0.847,0,0,0-.084-0.32,7.656,7.656,0,0,1-.472-1.98,25.366,25.366,0,0,1-4.614,4.61,24.765,24.765,0,0,1-4.85,3.16A10.143,10.143,0,0,1,459.544,2592.89Zm22.485-8.93c0.286-.44.387-0.61,0.522-0.85a1.536,1.536,0,0,1,.354-0.36,0.45,0.45,0,0,0,.2-0.34,0.3,0.3,0,0,0-.185-0.27,10.272,10.272,0,0,0-1.971-.83,6.334,6.334,0,0,1-.909,2.09,18.883,18.883,0,0,1-4.766,5.33,7.4,7.4,0,0,1,1.415.78,0.364,0.364,0,0,0,.269.12,0.632,0.632,0,0,0,.337-0.15,20.661,20.661,0,0,0,3.6-3.82l4.176-.09a16.216,16.216,0,0,1-1.97,3.36,17.619,17.619,0,0,0-2.173-1.35,0.359,0.359,0,0,0-.168-0.07,0.311,0.311,0,0,0-.219.12c-0.387.35-.741,0.8-1.111,1.2a14.254,14.254,0,0,1,2.425,1.6,20.36,20.36,0,0,1-6.2,4.6,4.741,4.741,0,0,1,1.6.87,0.508,0.508,0,0,0,.32.15,0.96,0.96,0,0,0,.421-0.15,20.661,20.661,0,0,0,5.372-4.25,17.8,17.8,0,0,1,1.634,1.65,0.278,0.278,0,0,0,.185.1,0.343,0.343,0,0,0,.2-0.08,11.446,11.446,0,0,0,1.044-1.07,0.345,0.345,0,0,0,.1-0.22,0.334,0.334,0,0,0-.1-0.24,15.036,15.036,0,0,0-1.818-1.72,26.136,26.136,0,0,0,2.475-4.11,2.108,2.108,0,0,1,.5-0.64,0.437,0.437,0,0,0,.186-0.32,0.411,0.411,0,0,0-.135-0.31,5.39,5.39,0,0,0-1.145-1.04,0.6,0.6,0,0,0-.3-0.13,0.461,0.461,0,0,0-.287.12,1.718,1.718,0,0,1-.926.25Zm4.261-1.78a8.374,8.374,0,0,1,1.7,1.97,0.177,0.177,0,0,0,.286.05l0.707-.53a0.17,0.17,0,0,0,.051-0.27,7.881,7.881,0,0,0-1.6-1.82,0.174,0.174,0,0,0-.253-0.03Zm1.549-1.12a7.845,7.845,0,0,1,1.684,1.95,0.174,0.174,0,0,0,.287.05l0.673-.53a0.192,0.192,0,0,0,.051-0.3,6.9,6.9,0,0,0-1.6-1.75,0.175,0.175,0,0,0-.253-0.04Zm14.014,8.69c1.247,0,2.493.02,3.756,0.03,0.236,0.02.3-.05,0.3-0.25a12.562,12.562,0,0,0,0-1.6c0-.2-0.05-0.25-0.3-0.23-1.3.01-2.594,0.05-3.873,0.05h-5.423a21.345,21.345,0,0,1-3.638-.21,18.749,18.749,0,0,0,.253,2.06,0.368,0.368,0,0,0,.387.35,13.609,13.609,0,0,1,2.476-.2h6.062Z" transform="translate(-303 -2573)"/>
  </g>
</svg>
