<?xml version="1.0" encoding="utf-8"?>
<!-- Generator: Adobe Illustrator 26.0.3, SVG Export Plug-In . SVG Version: 6.00 Build 0)  -->
<svg version="1.1" id="catch-about_sp.svg" xmlns="http://www.w3.org/2000/svg" xmlns:xlink="http://www.w3.org/1999/xlink" x="0px"
	 y="0px" viewBox="0 0 570.9 188.1" style="enable-background:new 0 0 570.9 188.1;" xml:space="preserve">
<style type="text/css">
	.st0{fill:#FFFFFF;}
</style>
<g>
	<path class="st0" d="M15.5,12.1c2.3,4.1,6.9,7.2,11.2,8.5l-0.1,0.3c-1.3,0.3-2.3,1.4-2.8,3c-4.3-2.4-7.2-6.2-8.9-11.8l0,0v13
		c0,0.4-1.5,1.2-2.7,1.2h-0.6V15.7C8.8,19.3,5,22.3,0.3,24.4L0,24c4.3-3,7.8-7.6,9.6-11.9h-9l-0.3-0.8h11.1V6.2H2.9L2.7,5.4h8.8V0.1
		l4.4,0.4c-0.1,0.4-0.3,0.7-1,0.8v4.1h4L20.8,3c0,0,2.1,1.6,3.4,2.7c-0.1,0.3-0.4,0.4-0.8,0.4h-8.5v5.1h5.9l2-2.4
		c0,0,2.2,1.6,3.5,2.8c-0.1,0.3-0.4,0.4-0.8,0.4h-10V12.1z"/>
	<path class="st0" d="M50.6,7.4C50.5,7.8,50.2,8,49.5,8c-0.3,0.8-0.5,1.5-0.9,2.2c6.5,1.9,4.2,6.8,1.5,4.9c-0.3-1.3-1.1-2.7-2-3.9
		c-1,1.7-2.2,3-3.6,3.9c2.4,3.2,6.2,5.4,10,6.5L54.4,22c-1.3,0.3-2.3,1.3-2.6,2.9c-4.3-2.1-7.2-5.7-9-11.1v11.4
		c0,0.4-1.5,1.2-2.7,1.2h-0.6v-8.5c-2.8,2.9-6.8,5.5-11.1,7l-0.2-0.4c4.9-2.7,9.4-7.6,11.4-12.9v-6H28.8l-0.2-0.8h10.9V0.2l4.4,0.4
		c-0.1,0.4-0.3,0.7-1,0.8v3.4h5.9l1.9-2.4c0,0,2.1,1.6,3.5,2.7c-0.1,0.3-0.4,0.4-0.8,0.4H42.8v6.8c0.3,0.8,0.8,1.5,1.3,2.2
		c1.2-2.1,2-5,2.3-8.1L50.6,7.4z M37.5,7.6C37.4,8,37,8.3,36.4,8.3c-0.3,0.7-0.6,1.4-0.9,2.1c4.9,1.8,2.3,5.7,0.1,3.8
		c-0.1-0.8-0.4-1.7-0.8-2.5c-1.4,2.2-3.1,3.8-5.1,5l-0.3-0.3c1.8-2.3,3.4-5.9,4.1-9.8L37.5,7.6z"/>
	<path class="st0" d="M68.9,6.2c-0.2,0.3-0.6,0.5-1.2,0.6v16.7c0,0.2-1.5,0.9-2.6,0.9h-0.5v-2.2h-4.3v2.1c0,0.4-1.2,1.1-2.5,1.1
		h-0.5V4.1l3.1,1.3h0.2c0.2-1.5,0.4-3.7,0.6-5.3l4.5,1.1c-0.1,0.5-0.5,0.7-1.1,0.7c-0.7,1-1.8,2.4-2.7,3.5h2.4l1.5-1.7L68.9,6.2z
		 M60.4,6.3v6.9h4.3V6.3H60.4z M64.6,21.4V14h-4.3v7.4H64.6z M82.5,6.2c-0.2,0.3-0.6,0.4-1.2,0.5c-0.2,11.3-0.6,16.4-2.1,18.1
		c-1,1.1-2.2,1.5-4.1,1.5c0-1.1-0.1-1.8-0.6-2.3s-1.6-1-3-1.2v-0.4c1.3,0.1,3.3,0.3,4,0.3c0.5,0,0.8-0.1,1-0.4c1-1,1.3-6.5,1.5-16.1
		h-5.2c-1.3,2.4-2.9,4.4-4.7,5.9l-0.4-0.2c1.5-2.9,3.1-7.4,3.8-11.7L76,1.4C75.9,1.8,75.5,2,74.9,2c-0.5,1.2-1,2.3-1.6,3.4h4.5
		l1.8-1.8L82.5,6.2z M70.2,11.1c8.2,2.4,5.1,8.5,2.2,6c-0.1-2-1.3-4.3-2.4-5.8L70.2,11.1z"/>
	<path class="st0" d="M94.8,22.1c0,2-0.4,3.2-3.5,3.4c-0.1-0.9-0.2-1.6-0.5-2s-0.8-0.8-2-1v-0.4c0,0,2.2,0.2,2.7,0.2
		c0.4,0,0.5-0.2,0.5-0.6v-8c-0.5,0.8-1.2,1.7-1.9,2.6c0,0.4-0.2,0.7-0.5,0.9l-1.2-2.1c-0.3,3.9-1.1,8-3.9,11.2L84,26.2
		c1.7-4.6,1.7-10.4,1.7-15.5v-10L89,1.9h2.8L93,0.4l2.8,2.2c-0.2,0.2-0.5,0.4-1,0.5V22.1z M88.5,10.6c0,1.1,0,2.3-0.1,3.5
		c0.9-0.4,2.2-1,3.6-1.7V9.6c-0.3,0.2-0.7,0.3-1.1,0.2c-0.5-0.6-1.4-1.2-2.4-1.7V10.6z M88.5,2.7V7c1.8-0.3,2.9,0,3.5,0.6V2.7H88.5z
		 M109.6,21.9c0.7,0.4,0.8,0.7,0.8,1.3c0,1.3-1,2-3.7,2h-1.3c-2.1,0-2.5-0.7-2.5-2.7v-19h-3v8.4c0,5-0.3,10.6-5.7,14.5l-0.3-0.2
		c2.7-4,2.9-9.2,2.9-14.3V1.4l3.6,1.3h2.2l1.6-1.8l3.1,2.5c-0.2,0.2-0.5,0.4-1.1,0.5v17.6c0,0.4,0.1,0.6,0.4,0.6h0.5
		c0.2,0,0.4,0,0.5,0c0.2,0,0.3-0.1,0.4-0.4c0.3-0.6,0.8-2.9,1.1-4.8h0.3L109.6,21.9z"/>
	<path class="st0" d="M138.5,5.3c-0.2,0.3-0.5,0.3-1,0.3c-1,0.7-2.6,1.6-3.8,2.1l-0.3-0.2c0.3-0.6,0.7-1.7,1-2.5h-3.8
		c0.5,0.3,1.6,1.1,2.3,1.6c0,0.3-0.3,0.5-0.7,0.5l-6.6,0.5v0.1c0,0.3,0.1,0.4,1,0.4h3.1c1.1,0,2.2,0,2.6,0c0.3,0,0.7-0.1,0.9-0.1
		s0.6-0.1,0.8-0.2h0.3h0.1c0.9,0.3,1.2,0.5,1.2,1c0,0.6-0.3,1-1.4,1.1l2.2,1.7c-0.1,0.2-0.5,0.4-0.9,0.5v3.8c0,0.2-1,0.5-1.9,0.7
		l2,1.5c-0.2,0.2-0.6,0.5-1.2,0.6v4.6c0,1.6-0.5,2.6-3.8,2.8c-0.1-0.7-0.1-1.3-0.5-1.6c-0.4-0.3-0.9-0.6-2.1-0.8v-0.4
		c0,0,2.4,0.1,2.9,0.1c0.4,0,0.5-0.1,0.5-0.5v-1.1c-2,0.5-4.4,1.2-7.5,2c-0.2,0.4-0.4,0.6-0.8,0.6l-0.8-2.7c1.6-0.1,5.2-0.3,9-0.6
		v-2.9h-8.8v1c8.5-1.3,8.5,2.1,6.6,2.1c-1.2-0.5-3.8-1-6.6-1.3c-0.1,2-0.8,4.7-5.2,6.2l-0.2-0.3c2.2-1.8,2.4-4.1,2.4-6.2v-2.5
		c-0.2,0-0.4,0-0.6,0h-0.4V9.9l3.2,1.3h10.2l0.8-0.9c-0.9,0.1-2.1,0.1-3.6,0.1H126c-2.9,0-3.4-0.5-3.4-2.2V8l-4.3,0.3L118,7.5
		l4.6-0.3V5.3l3.8,0.3c-0.1,0.4-0.3,0.6-0.8,0.7V7l3.5-0.3l1.1-1.6h-12.6v6.3c0,4.7-0.3,10.8-5.2,14.8l-0.3-0.2
		c2.3-4.3,2.4-9.7,2.4-14.6V3.1l3.5,1.3h5.1V0l4.2,0.3c-0.1,0.4-0.3,0.7-1,0.8v1.1h5.3l1.6-2c0,0,1.8,1.4,2.9,2.4
		c0,0.1-0.1,0.2-0.2,0.3L138.5,5.3z M131.1,17.6l1.1-1.3h-10.5v0.2c0,0.1-0.2,0.3-0.5,0.4l1.8,0.7C123,17.6,131.1,17.6,131.1,17.6z
		 M121.7,12v1.3h3.8V12H121.7z M125.5,15.5v-1.4h-3.8v1.4H125.5z M134.3,4.3l1.4-1.4c-0.1,0-0.2,0.1-0.4,0.1h-9.1v1.3H134.3z
		 M128.5,12v1.3h3.9V12H128.5z M128.5,15.5h3.9v-1.4h-3.9V15.5z"/>
	<path class="st0" d="M164.7,21.9c1.3,0.4,1.7,0.8,1.7,1.5c0,1.8-1.8,2.3-10.3,2.3h-5.4c-4.3,0-6.2-0.5-6.2-3.8V11l-3.9,1.1
		l-0.5-0.7l4.4-1.2V2.7l4.4,0.4c-0.1,0.4-0.3,0.7-1,0.8v5.4l4.3-1.1v-8l4.3,0.4c-0.1,0.4-0.3,0.7-1,0.8v5.9l4.1-1.1h-0.1l1.9-2
		l3.1,3.2c-0.3,0.3-0.5,0.4-1.2,0.4c-0.8,3.1-2.4,7.7-4.4,10.6l-0.3-0.2c0.5-3.6,0.9-8.1,0.9-11.3L155.4,8v11.3c0,0.3-1.5,1-2.7,1
		h-0.6V9l-4.3,1.1V21c0,1.1,0.7,1.4,2.7,1.4h5.8c2,0,3.7,0,4.6-0.1c0.7-0.1,1.1-0.2,1.4-0.6c0.5-0.7,1.1-2,2-4.6h0.3L164.7,21.9z"/>
	<path class="st0" d="M179.1,12c-1,0.6-2.2,1.4-3.7,2.2v8.1c0,2.4-0.4,3.7-4.1,4.1c-0.1-1.1-0.2-2-0.6-2.5c-0.4-0.6-1-0.9-2.3-1.2
		v-0.4c0,0,2.6,0.2,3.2,0.2c0.4,0,0.6-0.2,0.6-0.5v-6c-0.7,0.4-1.5,0.8-2.3,1.2c-0.1,0.4-0.4,0.7-0.8,0.8l-1.1-4
		c0.8-0.1,2.3-0.4,4.2-0.8V7.5h-3.6l-0.2-0.8h3.8V0.1l4.2,0.4c-0.1,0.4-0.3,0.7-1,0.8v5.2l1.4-2c0,0,1.6,1.5,2.6,2.6
		c-0.1,0.3-0.4,0.4-0.8,0.4h-3.2v5c1.2-0.3,2.4-0.6,3.6-0.8L179.1,12z M191.8,12.6c0,0,1.8,1.5,2.9,2.5c-0.1,0.3-0.4,0.4-0.8,0.4
		h-4.5v7.2c0,2.2-0.6,3.4-4.5,3.7c-0.1-1-0.3-1.6-0.8-2.1c-0.6-0.4-1.3-0.8-3-1v-0.4c0,0,3.7,0.2,4.4,0.2c0.5,0,0.6-0.2,0.6-0.6
		v-7.1H177l-0.2-0.8h9.5v-3.3l4.2,0.4c-0.1,0.4-0.3,0.6-1,0.7v2.2h0.7L191.8,12.6z M178,5h5.6V0l4.2,0.4c-0.1,0.4-0.3,0.6-0.9,0.7V5
		h2.9l1.7-2.2c0,0,1.9,1.5,3.1,2.5c-0.1,0.3-0.4,0.4-0.8,0.4h-6.9V10h2l1.6-2.1c0,0,1.8,1.5,3,2.5c-0.1,0.3-0.4,0.4-0.8,0.4h-13.3
		l-0.2-0.8h4.4V5.9h-5.4L178,5z M179.5,16.1c7.7,1.7,5.3,7.3,2.4,5.2c-0.4-1.7-1.6-3.7-2.7-5.1L179.5,16.1z"/>
	<path class="st0" d="M198.9,18.4c1,2.9,0.8,5-0.1,6.1c-0.6,0.7-2,0.8-2.5-0.1c-0.4-0.8,0-1.7,0.7-2.2c0.7-0.6,1.5-2.4,1.4-3.8
		H198.9z M222.3,8.4c-0.1,0.2-0.4,0.3-0.8,0.4v3.5c0,0.2-1.1,0.6-2,0.7l1.7,1.2c-0.1,0.2-0.4,0.3-0.8,0.4V21c0,0.2-1.4,0.9-2.4,0.9
		h-0.5v-0.8h-7v0.4c0,0.2-0.9,0.8-2.3,0.8h-0.5v-9.1c-0.2,0-0.4,0.1-0.7,0.1h-0.5V7.8c-0.2,0.1-0.5,0.2-0.9,0.1c-1.5,2-4.4,5-7,6.9
		c1.4-0.1,3.1-0.2,5-0.3c-0.2-1-0.5-1.9-0.9-2.6l0.3-0.1c5.6,2.9,2.8,7.1,0.8,5c0-0.4,0-0.8-0.1-1.3c-1.5,0.6-3.5,1.4-5.7,2.2
		c-0.2,0.3-0.4,0.4-0.7,0.5l-1.2-3.4c0,0,0.7-0.1,1-0.3c1.1-0.9,2.5-2.7,3.7-4.6c-0.7,0.3-1.6,0.6-2.5,1c-0.2,0.3-0.4,0.5-0.7,0.6
		L196.3,8c0,0,0.6-0.1,0.8-0.3c1.4-1.4,3.2-5.4,3.6-7.6l3.8,1.9c-0.1,0.3-0.4,0.4-1,0.4c-1.2,1.8-3.4,4.2-5.2,5.7c1,0,2.2,0,3.5,0
		c0.6-1,1.1-2,1.3-2.8l3.2,2.2V6.7l2.8,1.1h9.3l1.2-1.3L222.3,8.4z M200.8,18c4.5,3.6,1.5,7.6-0.2,5.3c0.3-1.7,0.2-3.8-0.1-5.3
		H200.8z M203.4,17.5c5.5,2.4,3.1,6.7,1.1,4.8c0-1.5-0.7-3.4-1.4-4.6L203.4,17.5z M204.9,26c2.3-1.3,4.9-3.4,6.2-4.8l3.1,2.3
		c-0.2,0.3-0.4,0.4-1,0.2c-2,1-5.2,2.1-8,2.7L204.9,26z M205.7,2.7h6.5V0.2l3.9,0.3c-0.1,0.4-0.3,0.6-1,0.8v1.5h2.9l1.5-1.9
		c0,0,1.7,1.3,2.7,2.3c-0.1,0.3-0.4,0.4-0.8,0.4h-6.3v2h1.8l1.4-1.7c0,0,1.6,1.2,2.6,2.1c-0.1,0.3-0.4,0.4-0.8,0.4h-12.7l-0.2-0.8h5
		v-2H206L205.7,2.7z M218.8,12.4v-0.3h-9.6v0.4c0,0.1-0.2,0.2-0.4,0.3l1.8,0.7h6.6l1.3-1.3L218.8,12.4z M209.2,8.6v2.7h1.9V8.6
		H209.2z M210.4,15.8h7v-1.4h-7V15.8z M210.4,18h7v-1.4h-7V18z M217.4,20.3v-1.5h-7v1.5H217.4z M214.9,11.3V8.6h-1.8v2.7H214.9z
		 M214.6,21.8c11.9,0.9,6.4,6.4,4.1,3.9c-0.7-1.1-2.1-2.5-4.3-3.5L214.6,21.8z M216.9,8.6v2.7h1.8V8.6H216.9z"/>
	<path class="st0" d="M246.7,15c0,0,2.1,1.6,3.3,2.7c-0.1,0.3-0.4,0.4-0.8,0.4h-10.9c-0.9,3.9-3.5,6.6-13.6,8.3l-0.2-0.4
		c7.1-2.1,9.3-4.6,10.1-7.8h-9l-0.2-0.8h9.4c0.2-1,0.2-2.1,0.3-3.3l4.6,0.3c-0.1,0.4-0.3,0.7-1,0.8c-0.1,0.8-0.2,1.5-0.3,2.2h6.4
		L246.7,15z M235.4,12.9V9.6h-7.7l-0.2-0.8h7.9V5.6h-9.2l-0.3-0.8h7.1c-0.3-0.1-0.6-0.2-0.9-0.4c-0.1-1.5-1-3-1.9-4l0.2-0.2
		c5.9,0.5,5.4,4.1,3.5,4.6h5.2c0.6-1.4,1.2-3.3,1.5-4.7l4.4,1c-0.1,0.4-0.4,0.6-1.1,0.6c-1,0.9-2.5,2.2-4,3.2h4.4l1.8-2.2
		c0,0,2,1.5,3.2,2.6c-0.1,0.3-0.4,0.4-0.8,0.4h-9.7v3.2h3.8l1.7-2.1c0,0,1.9,1.4,3.1,2.4c-0.1,0.3-0.4,0.4-0.8,0.4h-7.8v3.3h6
		l1.8-2.3c0,0,2.1,1.6,3.2,2.7c-0.1,0.3-0.4,0.4-0.7,0.4h-24.4l-0.2-0.8H235.4z M239.3,19c12.4,1,11.8,8.3,8,7
		c-1.8-2.4-5.4-5.2-8.2-6.7L239.3,19z"/>
	<path class="st0" d="M257.7,17.1c-0.2,3.2-1.2,6.8-5.3,9.2l-0.3-0.3c2.2-3.2,2.4-7.2,2.4-10.8V8.8l0.1,0.1V3.1l3.1,1.2h3.6l1.3-1.3
		l2.7,2c-0.1,0.2-0.4,0.4-0.8,0.4v2.2c1.1,0.2,1.8,0.5,2.2,0.9V3.1l3,1.2h3.6l1.3-1.4l2.9,2.1c-0.2,0.2-0.5,0.4-1,0.5v2.8
		c0,0.1-0.3,0.2-0.6,0.3c0.6,0.5,1.5,1.3,2.2,1.9c-0.1,0.3-0.4,0.4-0.8,0.4H270v2h2.8l1.4-1.5l3,2.2c-0.2,0.2-0.5,0.4-1,0.5v2.8
		c0,0.2-1.5,0.8-2.5,0.8H273v-0.8h-15.3V17.1z M253.8,2.9l-0.2-0.8h8l1.5-1.9c0,0,1.7,1.3,2.7,2.3c-0.1,0.3-0.3,0.4-0.8,0.4H253.8z
		 M257.6,8.3c0,0.2-1.1,0.8-2.2,0.8l2.8,1h6.5c-0.1-0.1-0.3-0.1-0.4-0.3c0-0.5-0.1-1-0.3-1.4c-0.5,0.2-1.4,0.5-2,0.5h-0.5V5.1h-3.9
		L257.6,8.3L257.6,8.3z M264.4,17.9c0,0,1.5,1.3,2.5,2.3c-0.1,0.3-0.4,0.4-0.8,0.4h-4.5v2.3c1.5-0.2,3.3-0.4,5.1-0.7l0.1,0.4
		c-1.4,0.7-3.9,2-6.9,3.2c-0.2,0.3-0.5,0.5-0.7,0.6l-1.7-3.1c1-0.5,1.1-0.8,1.1-1.3v-5l3.8,0.4c0,0.3-0.2,0.5-0.7,0.6v1.7h1.5
		L264.4,17.9z M257.7,11v2h3.2v-2H257.7z M257.7,15.3c0,0.3,0,0.6,0,1h3.2v-2.4h-3.2V15.3z M258.1,5.5c4.8,0.7,2.5,4,0.7,2.5
		c0-0.8-0.5-1.8-1-2.4L258.1,5.5z M267,11h-3.2v2h3.2V11z M263.8,16.2h3.2v-2.4h-3.2V16.2z M275.2,0.1c0,0,1.7,1.4,2.8,2.4
		c-0.1,0.3-0.4,0.4-0.8,0.4h-11L266,2.1h7.6L275.2,0.1z M266.8,9.1c0.1,0.4-0.2,0.8-0.6,1.1h7.4l0.9-1.2c-0.2,0-0.4,0-0.5,0h-0.5
		V5.1h-4v3.1c0,0.3-1.3,0.8-2.5,0.8h-0.2L266.8,9.1L266.8,9.1z M277,23c0.8,0.3,1.1,0.6,1.1,1.1c0,1.3-1.2,1.5-5.2,1.5h-2.5
		c-2.6,0-3.1-0.6-3.1-2.4v-6l3.9,0.3c-0.1,0.4-0.3,0.6-0.8,0.7v1.7h2.3L274,18c0,0,1.6,1.3,2.5,2.3c-0.1,0.3-0.4,0.4-0.8,0.4h-5.4v2
		c0,0.3,0.1,0.4,0.8,0.4h2h1.7c0.3,0,0.6-0.1,0.7-0.2c0.2-0.3,0.6-1,1-1.9h0.3L277,23z M269.9,5.4c5.1,0.6,2.8,4.2,0.9,2.7
		c-0.1-0.9-0.6-1.9-1.1-2.5L269.9,5.4z M270,13.8v2.4h3v-2.4C273,13.8,270,13.8,270,13.8z"/>
	<path class="st0" d="M305.5,22.1c0.9,0.4,1.1,0.8,1.1,1.4c0,1.4-1.2,2-5.8,2H298c-2.9,0-3.5-0.6-3.5-2.9V12h-3
		c-0.5,7-3,12-11.3,14.4l-0.1-0.3c6-3.3,7.5-8,7.7-14.1h-7.4l-0.2-0.8h11.4V0.1l4.5,0.4c-0.1,0.4-0.3,0.7-1,0.8v9.9h6.3l1.9-2.4
		c0,0,2.1,1.6,3.4,2.7c-0.1,0.3-0.4,0.4-0.8,0.4H298v0.4v9.4c0,0.4,0.2,0.6,1,0.6h2.3c0.8,0,1.5,0,1.9-0.1c0.4,0,0.5-0.1,0.7-0.4
		c0.3-0.6,0.8-2.3,1.3-4.3h0.3L305.5,22.1z M282.9,1.9c9,3.2,5.9,10.1,2.6,7.3C285.3,6.7,284,4,282.7,2L282.9,1.9z M304.9,3.6
		c-0.1,0.3-0.5,0.5-1.1,0.4c-2,2.3-4.3,4.4-6.5,5.8L297,9.6c1-1.9,2.4-5.2,3.5-8.1L304.9,3.6z"/>
	<path class="st0" d="M323.6,14.5c2.3,3.5,6.7,6.1,10.8,7.1l-0.1,0.3c-1.2,0.3-2.2,1.3-2.6,2.9c-4.2-2-7.1-5.5-8.8-10.4h-0.2v10.9
		c0,0.3-1.5,0.9-2.7,0.9h-0.6v-8.8c-2.6,3.2-6.5,5.8-11.1,7.5l-0.2-0.3c4.1-2.5,7.4-6.4,9.3-10.2h-8.7l-0.2-0.8h11v-3l4.3,0.4
		c0,0.3-0.2,0.6-0.9,0.7v1.9h5.9l1.9-2.4c0,0,2.2,1.6,3.5,2.7c-0.1,0.3-0.4,0.4-0.8,0.4h-9.8L323.6,14.5L323.6,14.5z M332.3,3.2
		c-0.3,0.3-1,0.3-1.8-0.1c-5.5,1-13.9,1.7-21.1,1.6l-0.1-0.4c6.8-0.8,15.4-2.6,19.8-4.3L332.3,3.2z M311.4,5.5
		c7.8,2,4.7,7.8,1.8,5.4C313,9,312.1,7,311.1,5.7L311.4,5.5z M318.4,4.8c7.3,1.8,4.1,7.2,1.3,4.8c-0.1-1.7-0.8-3.4-1.6-4.7
		L318.4,4.8z M324.7,11.5c1.2-1.7,2.7-4.5,3.8-7.1l4.1,2.1c-0.2,0.3-0.6,0.5-1.1,0.4c-1.9,2-4.3,3.8-6.5,4.9L324.7,11.5z"/>
	<path class="st0" d="M11.2,63.9c1.1,0,2-0.8,2.2-3.2l1.4,0.1c-0.1,3.2-1.6,4.6-3.8,4.6c-1.5,0-2.3-0.6-3.7-1.7
		c-1.2-1-1.9-1.5-2.9-1.5c-1.2,0-2.1,0.9-2.3,3.2l-1.4-0.2c0.1-3.2,1.7-4.5,3.8-4.5c1.4,0,2.4,0.6,3.7,1.8
		C9.3,63.4,10.2,63.9,11.2,63.9z"/>
	<path class="st0" d="M24.6,61.7c-0.1,0.3-0.3,0.4-0.9,0.5v13.1c0,0.3-1.3,1-2.6,1h-0.6V63.7c-1.1,0.9-2.2,1.8-3.4,2.5L16.8,66
		c2.5-2.9,4.9-7.5,6-10.4l4.1,2c-0.1,0.3-0.4,0.5-1.1,0.4c-0.7,1-1.6,2.1-2.6,3.2L24.6,61.7z M26.4,52.2c-0.2,0.3-0.4,0.4-1.1,0.3
		c-1.8,1.9-4.9,4.3-8,5.8L17.1,58c2.2-2.2,4.4-5.8,5.4-8L26.4,52.2z M43.7,72.6v0.3c-1,0.2-1.4,1.4-1.4,2.8h-2.9
		c-5.3,0-8.4-1.4-10-6.6c-1,2.7-2.5,5.3-5.1,7.2L24,76.1c2.6-3.9,3.3-9.5,3.2-13.9l4.5,0.7c-0.1,0.4-0.4,0.7-1.1,0.7
		c-0.2,1.5-0.5,3-0.9,4.6c0.8,1.6,1.9,2.6,3.2,3.3V60.6l-0.1-0.1c0.4-0.6,0.8-1.2,1.1-1.9c-0.5,0.5-1.5,0.6-2.3-0.1
		c-0.1-0.9-0.5-1.8-1-2.6c-1.3,2.1-2.9,4.1-5,5.5l-0.3-0.3C27.4,58,28.6,53.3,29,50l4.5,1.4c-0.1,0.3-0.3,0.5-1,0.6
		c-0.3,0.9-0.8,1.8-1.3,2.8c2.4,0.6,3.2,1.8,3.2,2.7c1.1-2.5,1.8-5.4,2.1-7.5l4.5,1.4c-0.1,0.3-0.3,0.5-1,0.6c-0.4,1-1,2-1.6,3
		c7,1.4,4.8,6.6,1.9,4.8c-0.4-1.4-1.4-2.9-2.4-4c-1.2,1.7-2.6,3.4-4.4,4.6l3.6,0.4c-0.1,0.4-0.3,0.7-1,0.8v4h2l1.7-2.1
		c0,0,1.8,1.5,3,2.5c-0.1,0.3-0.4,0.4-0.8,0.4h-5.8v6c1,0.1,2.2,0.2,3.4,0.2H43.7z"/>
	<path class="st0" d="M59.2,58.4c1,5.4,4.3,11,12.3,14.4v0.3c-1.7,0.3-2.7,1.3-3.1,3.2c-6.4-4.1-8.6-10.8-9.5-16.5
		c-0.4,2.9-1.2,5.7-2.9,8.3c7.7,2.7,4.4,8.6,1.3,5.9c-0.1-1.7-0.9-3.7-1.8-5.2c-2,2.9-5.3,5.5-10.4,7.7L44.9,76
		c7.9-5.2,10-11.1,10.6-17.6h-9.8l-0.3-0.8h10.2c0.2-2.4,0.1-4.9,0.1-7.4l4.7,0.5c-0.1,0.4-0.3,0.7-1,0.8c-0.1,2.1-0.1,4.1-0.3,6.1
		h6l2-2.6c0,0,2.3,1.7,3.6,2.9c-0.1,0.3-0.4,0.4-0.8,0.4L59.2,58.4L59.2,58.4z"/>
	<path class="st0" d="M96.7,63.9l2.8,2.3c-0.2,0.3-0.6,0.4-1.1,0.5c-0.5,5.1-1.4,7.7-2.8,8.8c-0.9,0.6-1.9,0.9-3.2,0.9
		c0-0.8-0.1-1.5-0.4-2s-1-0.7-1.9-0.9v-0.4c0.8,0.1,2.1,0.1,2.7,0.1c0.4,0,0.7-0.1,0.9-0.2c0.7-0.6,1.4-2.8,1.8-6.7h-0.7
		c-1.8,4.6-5.3,8-10.9,10.1L83.4,76c4.1-2.3,6.7-5.7,8.1-9.7h-0.8c-2,3.4-5.3,6.1-9.5,7.9l-0.3-0.4c3-1.9,5.4-4.6,6.9-7.5h-0.9
		c-1.5,1.6-3.4,2.8-5.7,3.8L81.1,70c-0.6,0.4-1.4,0.7-2.5,0.7c0-0.8-0.1-2-0.3-2.4c-0.2-0.3-0.6-0.5-1.1-0.7v7.8c0,0.2-1,1-2.4,1
		h-0.5V50.8l3.3,1.3h1.8l1.6-1.6l3,2.9c-0.2,0.3-0.6,0.3-1.2,0.3c-1,1.7-2.7,4.5-4,6.1c2.6,1.8,3.7,4.4,3.7,6.6
		c0,0.9-0.1,1.7-0.4,2.3c1.7-1.5,2.9-3.5,3.7-5.5h-3.5L82,62.4h13.1l1.6-2.2c0,0,1.8,1.5,2.9,2.5c-0.1,0.3-0.4,0.4-0.8,0.4H89
		c-0.4,0.8-0.9,1.5-1.5,2.2h7.6L96.7,63.9z M78.3,67.3c0.3,0,0.4,0,0.6-0.1c0.3-0.2,0.5-0.7,0.5-1.5c0-1.8-0.4-3.9-1.5-5.7
		c0.5-1.8,1.2-4.9,1.6-7.1h-2.4v14.4H78.3z M87.1,60.8c0,0.2-0.9,0.7-2.4,0.7h-0.5V50.7l3.2,1.2h6l1.4-1.6l2.8,2.1
		c-0.2,0.3-0.4,0.4-1,0.5v7.4c0,0.1-1,0.7-2.5,0.7h-0.5v-1.1h-6.4L87.1,60.8L87.1,60.8z M87.1,52.7v2.8h6.4v-2.8H87.1z M93.4,59.1
		v-2.8H87v2.8H93.4z"/>
	<path class="st0" d="M126.4,72.1c0.9,0.4,1.1,0.8,1.1,1.4c0,1.4-1.2,2-5.8,2h-2.8c-2.9,0-3.5-0.6-3.5-2.9V62h-3
		c-0.5,7-3,12-11.3,14.4l-0.1-0.3c6-3.3,7.5-8,7.7-14.1h-7.4l-0.2-0.8h11.4V50.1l4.5,0.4c-0.1,0.4-0.3,0.7-1,0.8v9.9h6.3l1.9-2.4
		c0,0,2.1,1.6,3.4,2.7c-0.1,0.3-0.4,0.4-0.8,0.4h-7.9v0.4v9.4c0,0.4,0.2,0.6,1,0.6h2.3c0.8,0,1.5,0,1.9-0.1c0.4,0,0.5-0.1,0.7-0.4
		c0.3-0.6,0.8-2.3,1.3-4.3h0.3V72.1z M103.8,51.9c9,3.2,5.9,10.1,2.6,7.3c-0.2-2.4-1.5-5.2-2.9-7.1L103.8,51.9z M125.7,53.6
		c-0.1,0.3-0.5,0.5-1.1,0.4c-2,2.3-4.3,4.4-6.5,5.8l-0.3-0.2c1-1.9,2.4-5.2,3.5-8.1L125.7,53.6z"/>
	<path class="st0" d="M153.2,59.8c0,0,1.7,1.6,2.6,2.7c-0.1,0.3-0.3,0.4-0.7,0.4h-3.4v12.5c0,0.2-1,0.9-2.6,0.9h-0.6V62.9h-2.8
		c-0.1,5.2-1,10.3-8.1,13.5l-0.3-0.3c4.5-3.6,5.2-8.1,5.3-13.2H140l-0.2-0.8h2.9v-8.6h-2.2v-0.1H136c-0.4,2.5-1,4.9-1.8,7l0.5,0.2
		h1.8l1.4-1.5l2.8,2.2c-0.1,0.2-0.5,0.4-0.9,0.5v10.6c0,0.2-1.5,0.8-2.5,0.8h-0.5v-2h-2.4v2.6c0,0.2-0.9,0.9-2.4,0.9h-0.5v-9.2
		c-0.7,1-1.4,1.8-2.2,2.7l-0.4-0.3c2.2-3.9,3.2-9.3,3.8-14.5h-3.2l-0.2-0.8h7.4l1.7-2.2c0,0,1.5,1.2,2.7,2.2h9.5l1.7-2.2
		c0,0,1.9,1.5,3,2.6c-0.1,0.3-0.4,0.4-0.8,0.4h-2.6V62h0.1L153.2,59.8z M134.1,61.5v9h2.4v-9H134.1z M148.5,62.1v-8.6h-2.8v8.6
		H148.5z"/>
	<path class="st0" d="M183.4,55c-0.2,0.3-0.5,0.3-1.1,0.4c-1,0.8-2.5,1.8-3.8,2.4l-0.3-0.2c0.2-0.8,0.4-1.9,0.6-2.9h-4.5v0.4V58
		c0,0.3,0.1,0.4,0.8,0.4h2c0.7,0,1.4,0,1.7,0s0.6,0,0.8,0c0.2-0.1,0.5-0.1,0.8-0.2h0.3l0.2,0.1c0.8,0.3,1.1,0.6,1.1,1.1
		c0,1.1-1,1.5-5.1,1.5h-2.4c-2.6,0-3.1-0.6-3.1-2.4v-3.8h-4.8l2.9,1.8c-0.1,0.3-0.5,0.5-1.4,0.5c-2.2,2.4-5.6,4.5-10.4,5.3l-0.2-0.3
		c3.9-1.8,6.8-4.6,8.1-7.2h-4.2c0.3,2-0.4,3.4-1.4,3.9s-2.2,0.3-2.6-0.8c-0.3-1,0.3-1.8,1.2-2.2c0.9-0.6,1.8-2,1.6-3.5h0.4
		c0.3,0.6,0.5,1.2,0.6,1.8h8.9c-0.3-0.1-0.6-0.2-0.9-0.4c0-1.2-0.8-2.6-1.7-3.4l0.2-0.2c5.8,0.1,5.3,3.5,3.4,4h7.6l1.7-1.7L183.4,55
		z M182.2,72.1c0.8,0.4,1,0.7,1,1.3c0,1.3-1.2,1.8-4.6,1.8h-2c-2.5,0-2.9-0.7-2.9-2.7v-7.6h-4.1c-0.6,4.7-2.8,8.7-11.8,11.5
		l-0.3-0.4c6.4-3.1,8.1-6.8,8.6-11.1H160l-0.3-0.8h6.4c0.1-1.5,0.1-3,0.1-4.5l4.5,0.4c-0.1,0.4-0.3,0.6-1,0.7
		c-0.1,1.2-0.1,2.3-0.2,3.4h3.6l1.6-1.8l3,2.4c-0.2,0.2-0.4,0.4-1,0.5v6.7c0,0.4,0.1,0.4,0.6,0.4h1.3h1.1c0.2,0,0.4-0.1,0.5-0.3
		c0.3-0.4,0.7-1.7,1.2-3.2h0.3L182.2,72.1z"/>
	<path class="st0" d="M193.8,67.2v-1.7h-3.9c-0.3,3.8-1.3,7.9-4.7,10.9l-0.3-0.3c2-4.4,2.1-10,2.1-14.9v-8.9l2.7,0.9
		c2-1,4-2.3,5.2-3.2l3.3,2.8c-0.3,0.3-0.9,0.3-1.7,0c-1.6,0.4-4.1,0.9-6.4,1.3v3.4h3.5l1.5-1.6l3.1,2.3c-0.2,0.2-0.6,0.5-1.1,0.6
		v7.8c0,0.2-1.6,0.7-2.6,0.7L193.8,67.2L193.8,67.2z M193.8,64.7v-6.5H190v3.1c0,1.1,0,2.2-0.1,3.4H193.8z M208.6,57.4
		c0,0,1.9,1.5,3,2.5c-0.1,0.3-0.4,0.4-0.8,0.4h-2.5v14.8c0,0.2-1,0.9-2.7,0.9H205V60.4h-3c0,5.3-0.7,11.9-7.8,16l-0.3-0.3
		c4.3-4.6,4.9-10.4,4.9-15.9V52l3.2,1c2.2-1,4.4-2.2,5.7-3.1l3.5,3.1c-0.3,0.3-1,0.3-1.8,0c-1.9,0.4-4.7,0.8-7.4,1.1v5.5h5
		L208.6,57.4z"/>
	<path class="st0" d="M225.1,68.6c-0.2,0.2-0.5,0.4-1.1,0.4c-0.3,3.7-0.8,5.7-2,6.6c-0.8,0.5-1.8,0.8-3.2,0.8c0-0.8-0.1-1.5-0.5-1.9
		s-1.3-0.8-2.5-1v-0.4c1.1,0.1,2.9,0.2,3.4,0.2c0.4,0,0.7,0,0.9-0.2c0.4-0.4,0.8-1.9,1-4.5h-3L217,70l-2.6-1.8
		c0.3-0.2,0.7-0.4,1.1-0.6c0.3-1.5,0.6-3.6,0.7-4.8l3.1,1.3h1.6v-3.6h-3.1c-1.4,0.7-3,1.3-4.8,1.8l-0.2-0.3c2.3-1.1,4.3-2.6,5.9-4.3
		c-0.5,0.2-1.1,0.1-1.7-0.3c-0.2-1.1-1-2.4-1.9-3.1l0.2-0.2c3.6-0.2,4.7,1.2,4.5,2.3c0.8-1.1,1.5-2.2,2-3.4h-7.1l-0.3-0.8h7.3
		l1.8-1.7l2.9,2.5c-0.2,0.3-0.5,0.4-1.1,0.4c-1.3,2.5-3.4,4.6-6.1,6.2h2.1l1.2-1.3l2.3,2.2c-0.2,0.2-0.6,0.4-1,0.5v4.3
		c-0.1,0.1-1.3,0.6-2.4,0.6h-0.6v-1h-2.4c-0.1,1-0.3,2.1-0.5,3.1h2.9l1.5-1.5L225.1,68.6z M238.9,55.1c-0.2,0.3-0.4,0.4-1,0.3
		c-0.9,0.4-2.1,1-3.3,1.4c1.6,0.7,3.3,1.2,5,1.7l-0.1,0.3c-1.3,0.3-2.2,1.3-2.7,2.9c-0.8-0.4-1.5-0.7-2.3-1.1
		c-0.1,0-0.3,0.1-0.4,0.1v2.5c0,0.3,0.1,0.4,0.3,0.4h0.4h0.5c0.1,0,0.4,0,0.5,0s0.4-0.1,0.6-0.1h0.3h0.1c0.7,0.3,0.9,0.6,0.9,1
		c0,1.1-1,1.4-3.3,1.4h-0.2l2.7,2.2c-0.2,0.3-0.5,0.3-1.1,0.4c-0.6,1-1.3,1.9-2.2,2.8c4.3,2.4,3.4,5.5,0.9,4.8c-0.8-1-1.9-2-3.1-3
		c-2.2,1.5-5,2.6-8.1,3.3l-0.2-0.4c2.5-1,4.8-2.5,6.5-4.2c-1.3-0.9-2.7-1.8-4-2.4l0.2-0.3c2,0.2,3.7,0.6,5.1,1
		c0.5-0.6,0.9-1.3,1.2-2h-7l-0.2-0.8h7.2l1.5-1.4h-0.3c-2,0-2.2-0.6-2.2-2.2v-3.2H229v0.9c0,1.7-0.6,4.3-4.9,5.7l-0.2-0.3
		c2-1.6,2.1-3.7,2.1-5.4v-3l3.4,1.2h1.4l1-1c-2.4-2-4.2-4.8-5.2-8.5l0.4-0.2c0.7,1.5,1.7,2.8,2.9,3.9c0.9-1.1,1.8-2.5,2.3-3.5
		l3.1,2.1c-0.2,0.3-0.4,0.4-1.1,0.3c-1,0.6-2.4,1.2-3.7,1.7c0.9,0.8,1.9,1.4,3,1.9c0.8-1.1,1.7-2.4,2.2-3.3L238.9,55.1z"/>
	<path class="st0" d="M249.3,66c0,0.3-1.4,1-2.5,1h-0.6v-6c-1.3,1.9-3,3.5-5,4.9l-0.3-0.3c2.2-2.6,3.6-6.4,4.4-10h-3.8l-0.2-0.8h4.9
		V50l4.1,0.4c-0.1,0.3-0.3,0.6-1,0.7v3.7h0.5l1.5-2.2c0,0,1.8,1.5,2.8,2.6c-0.1,0.3-0.4,0.4-0.8,0.4h-4.1v2.1
		c6.7,1.6,4.1,6.6,1.5,4.6c-0.1-1.3-0.8-2.7-1.5-3.8V66H249.3z M245.1,67.8c1.5,3.6,0.5,6-0.9,6.9c-1,0.6-2.3,0.3-2.7-0.7
		c-0.3-1,0.3-1.8,1.1-2.3c1-0.6,2.1-2.1,2-3.8L245.1,67.8z M261,72.3c1,0.3,1.3,0.7,1.3,1.3c0,1.4-1.3,1.8-6.9,1.8h-3.7
		c-3.2,0-3.9-0.5-3.9-2.7v-5.5l4.2,0.3c0,0.4-0.3,0.6-0.9,0.7V72c0,0.4,0.1,0.5,1.2,0.5h3.5c1.2,0,2.3,0,2.8,0
		c0.4,0,0.6-0.1,0.8-0.4c0.3-0.4,0.8-1.5,1.3-3h0.3L261,72.3z M253,66.4c7.4,1.7,4.6,7.1,1.8,4.9c-0.1-1.7-1.1-3.5-2.1-4.7L253,66.4
		z M257.4,65.6c0,0.3-1.3,1.1-2.7,1.1h-0.4V51l3.2,1.3h4.5l1.5-1.7l3.2,2.4c-0.2,0.2-0.6,0.5-1.1,0.6v12c0,0.2-1.6,0.9-2.7,0.9h-0.5
		v-1.8h-4.9v0.9H257.4z M257.4,53.1v3.1h4.9v-3.1H257.4z M262.3,60v-3.1h-4.9V60H262.3z M262.3,63.9v-3.1h-4.9v3.1H262.3z
		 M261.3,67.5c8.4,2.4,5.5,8.7,2.4,6.2c-0.1-2.1-1.3-4.5-2.7-6L261.3,67.5z"/>
	<path class="st0" d="M281.7,56.2c-0.2,0.3-0.6,0.5-1.2,0.6v16.7c0,0.2-1.5,0.9-2.6,0.9h-0.5v-2.2h-4.3v2.1c0,0.4-1.2,1.1-2.5,1.1
		h-0.5V54.1l3.1,1.3h0.2c0.2-1.5,0.4-3.7,0.6-5.3l4.5,1.1c-0.1,0.5-0.5,0.7-1.1,0.7c-0.7,1-1.8,2.4-2.7,3.5h2.4l1.5-1.7L281.7,56.2z
		 M273.2,56.3v6.9h4.3v-6.9H273.2z M277.5,71.4V64h-4.3v7.4H277.5z M295.4,56.2c-0.2,0.3-0.6,0.4-1.2,0.5
		C294,68,293.6,73.1,292,74.8c-1,1.1-2.2,1.5-4.1,1.5c0-1.1-0.1-1.8-0.6-2.3s-1.6-1-3-1.2v-0.4c1.3,0.1,3.3,0.3,4,0.3
		c0.5,0,0.8-0.1,1-0.4c1-1,1.3-6.5,1.5-16.1h-5.2c-1.3,2.4-2.9,4.4-4.7,5.9l-0.4-0.2c1.5-2.9,3.1-7.4,3.8-11.7l4.4,1.3
		c-0.1,0.4-0.4,0.6-1.1,0.6c-0.5,1.2-1,2.3-1.6,3.4h4.5l1.8-1.8L295.4,56.2z M283,61.1c8.2,2.4,5.1,8.5,2.2,6
		c-0.1-2-1.3-4.3-2.4-5.8L283,61.1z"/>
	<path class="st0" d="M319.8,66c0,0,2.2,1.7,3.5,2.8c-0.1,0.3-0.4,0.4-0.8,0.4h-8.7v6.2c0,0.2-1,1-2.9,1h-0.7v-7.1h-13l-0.2-0.8h4.8
		v-9l3.9,1.5h4.6v-5.5h-5.2c-2.3,3-4.9,5.3-7.8,6.9l-0.3-0.3c2.5-2.8,5.2-7.5,6.8-12.2l4.6,1.8c-0.1,0.3-0.5,0.6-1.2,0.5
		c-0.5,0.9-1,1.8-1.6,2.6h11.6l1.9-2.4c0,0,2.1,1.6,3.5,2.7c-0.1,0.3-0.4,0.4-0.8,0.4h-8.1V61h2.8l1.8-2.3c0,0,2.1,1.5,3.3,2.6
		c-0.1,0.3-0.4,0.4-0.8,0.4h-7.1v6.8h4L319.8,66z M310.2,68.4v-6.8h-4.9v6.8H310.2z"/>
	<path class="st0" d="M324.9,57.5h2.6v-5.8l3.3,0.3c0,0.3-0.3,0.6-0.9,0.7v4.8h1.5v-7.4l3.5,0.3c0,0.4-0.3,0.6-0.9,0.7v2.5h0.9
		l1.2-1.7c0,0,1.4,1.1,2.2,2c-0.1,0.3-0.3,0.4-0.7,0.4H334v3.1h1.7l1.4-1.8c0,0,1.6,1.2,2.5,2.1c-0.1,0.3-0.3,0.4-0.7,0.4h-13.7
		L324.9,57.5z M338.8,59.7c-0.1,0.3-0.2,0.6-0.8,0.6v14.4c0,0.3-1.1,0.8-2,0.8h-0.5v-1.4h-7.1l-0.8,0.9l-2.6-1.3
		c0.2-0.2,0.5-0.5,0.8-0.7V59.3l3.2,0.3c-0.1,0.3-0.3,0.5-0.8,0.6v13.1h7.3v-14L338.8,59.7z M331.1,72.5c0.1-0.3,0.3-0.6,0.4-0.9
		c-0.3,0.1-0.6,0.1-1-0.3c0-0.4-0.2-0.9-0.3-1.3c-0.4,1-0.9,1.9-1.6,2.6l-0.5-0.2c0.6-1.5,1-3.6,1.1-5.7l2.6,0.4
		c-0.1,0.4-0.4,0.6-0.9,0.7c-0.1,0.5-0.3,1-0.4,1.5c0.8,0.4,1.3,0.8,1.5,1.1c0.3-1.1,0.5-2.4,0.5-3.7l2.7,0.4
		c-0.1,0.3-0.4,0.6-1,0.7c-0.1,0.6-0.3,1.1-0.5,1.6c2.9,1.6,1.4,3.7,0.2,2.6c-0.1-0.6-0.3-1.2-0.5-1.8c-0.5,1-1.1,1.8-1.8,2.4
		L331.1,72.5z M335.3,59.7c-0.1,0.4-0.4,0.6-1,0.6c-0.1,0.6-0.3,1.1-0.5,1.6c2.7,1.5,1.3,3.4,0.1,2.4c0-0.5-0.2-1.1-0.5-1.7
		c-0.5,1-1.1,1.9-1.9,2.5l-0.4-0.3c0.2-0.3,0.3-0.6,0.4-0.9c-0.3,0.2-0.7,0.1-1-0.2c0-0.4-0.1-0.8-0.3-1.1c-0.4,1-1,1.8-1.6,2.5
		l-0.4-0.3c0.6-1.5,1-3.6,1.1-5.7l2.7,0.5c-0.1,0.4-0.4,0.6-1,0.7c-0.1,0.5-0.3,1-0.4,1.5c0.8,0.3,1.2,0.8,1.3,1.1
		c0.4-1.1,0.6-2.5,0.6-3.8L335.3,59.7z M333.4,64.4c0,0,1.1,0.8,1.7,1.5c-0.1,0.3-0.3,0.4-0.7,0.4h-5.7l-0.2-0.8h4L333.4,64.4z
		 M346.9,51.3c-0.1,0.3-0.3,0.6-1.1,0.6c1,3.3,3.4,6,5.7,7.7l-0.1,0.4c-1.1,0.5-1.8,1.3-2,2.4c-0.5-0.5-0.9-1.1-1.3-1.8
		c-0.1,0.2-0.4,0.3-0.7,0.3h-6l-0.2-0.7c-0.8,0.9-1.7,1.7-2.8,2.3l-0.3-0.3c2.7-3.4,4.2-8.2,4.5-12L346.9,51.3z M347.9,62.7l2.9,2.7
		c-0.2,0.2-0.6,0.3-1.1,0.4c-1,1.8-2.7,3.9-4.4,5.6c3.9,2.3,2.5,5.7,0.1,4.5c-0.8-1.9-3-4.3-4.8-5.7l0.3-0.2c1.4,0.2,2.6,0.6,3.6,1
		c0.8-1.9,1.7-4.1,2.1-5.8h-6.9l-0.3-0.8h7L347.9,62.7z M345.7,58.2c0,0,1.2,1,2.1,1.8c-1.1-2-1.9-4.5-2.4-7c-0.8,2.4-2.1,4.9-4,6.9
		h2.9L345.7,58.2z"/>
	<path class="st0" d="M360.3,58.4c-0.1,0.3-0.3,0.4-0.9,0.5v16.5c0,0.3-1.4,1-2.6,1h-0.6V61.5c-1,1.2-2.2,2.3-3.4,3.2l-0.3-0.2
		c2.3-3.5,4.6-9,5.7-14.4l4.5,1.3c-0.1,0.4-0.5,0.6-1.1,0.6c-0.8,2.2-1.7,4.1-2.8,5.8L360.3,58.4z M376.3,62.2c0,0,2.1,1.6,3.3,2.7
		c-0.1,0.3-0.4,0.4-0.8,0.4h-7.4v10.1c0,0.2-1,0.9-2.7,0.9h-0.6v-8c-0.1,0-0.3,0-0.4,0c-2.1,2.9-4.8,5.1-7.4,6.5l-0.3-0.3
		c1.6-2,3.6-5.3,4.8-8.5l3.3,1.5v-2.2h-7.5l-0.2-0.8h7.7v-4.3h-2v1.1c0,0.2-1,0.8-2.6,0.8h-0.6V51l3.4,1.3h7.1l1.5-1.7l2.9,2.2
		c-0.2,0.2-0.4,0.4-1.1,0.5v7.6c0,0.1-1,0.7-2.7,0.7h-0.6v-1.3h-2.1v4.3h3.1L376.3,62.2z M366,59.4h7.4v-6.3H366V59.4z M372.1,66.8
		c9.7,3.1,7.5,9.5,4.2,7.3c-0.8-2.4-2.9-5.2-4.5-7.2L372.1,66.8z"/>
	<path class="st0" d="M399.3,60.2c2,1.7,5.4,2.6,8.2,3.1v0.3c-1.2,0.3-1.9,1.3-2.2,2.9c-1-0.5-1.9-1-2.8-1.6
		c-0.2,0.1-0.4,0.3-0.8,0.4v4.1c0.2-0.3,0.4-0.5,0.5-0.7l3,2.2c-0.1,0.3-0.4,0.4-1,0.2c-0.9,0.3-2.1,0.6-3.2,0.9
		c4.2,1.8,3.8,4.8,1.4,4.5c-1.5-1.3-4.2-2.9-6.7-4.1v0.3c-1.7,0.7-4.7,2-8.3,3.2c-0.2,0.3-0.4,0.6-0.7,0.7l-2.1-2.9
		c1.1-0.7,1.3-1,1.3-1.6v-7.3c-1.5,0.8-3.2,1.5-4.9,2.1l-0.2-0.4c2.8-1.5,5.1-3.9,6.5-6.2h-5.7l-0.2-0.8h10.9v-2h-8.1l-0.2-0.8h8.3
		v-1.9H383l-0.2-0.8h13.6c0.4-1.2,0.9-2.8,1.2-3.9l4.3,1.1c-0.1,0.3-0.4,0.5-1.1,0.5c-0.8,0.7-2.2,1.6-3.5,2.3h3.9l1.7-2
		c0,0,1.9,1.4,3.1,2.4c-0.1,0.3-0.4,0.4-0.8,0.4h-9.5v1.9h4.4l1.6-1.9c0,0,1.8,1.3,2.9,2.2c-0.1,0.3-0.3,0.4-0.7,0.4h-8.2v2h6.6
		l1.7-2c0,0,1.9,1.3,3.1,2.4c-0.1,0.3-0.4,0.4-0.8,0.4C406.3,60.2,399.3,60.2,399.3,60.2z M387.1,50.2c6.6-0.1,4.3,4.9,1.5,3.2
		c-0.3-1.1-1.1-2.4-1.8-3.1L387.1,50.2z M401.2,63.9c-1.1-1-2.1-2.2-2.8-3.6h-7c-0.9,1.2-2,2.3-3.4,3.3l1.6,0.6h8.6l1.4-1.5
		L401.2,63.9z M398.5,65h-9.3v1.5h9.3V65z M389.2,68.9h9.3v-1.6h-9.3V68.9z M392.7,70.7c3-0.1,5.3,0.3,7.1,0.8
		c0.5-0.5,1.1-1.2,1.5-1.8c-0.5,0.3-1.6,0.5-2.3,0.5h-0.6v-0.6h-9.3v3.2c1.9-0.1,4.1-0.4,6.4-0.6c-1.1-0.5-2.1-0.9-3-1.2L392.7,70.7
		z M396.3,60.6c0,0,1.4,1,2.2,1.8c-0.1,0.3-0.4,0.4-0.7,0.4h-7l-0.2-0.8h4.6L396.3,60.6z"/>
	<path class="st0" d="M432,72.4c0,0,2,1.6,3.2,2.7c-0.1,0.3-0.4,0.4-0.8,0.4h-25.2l-0.2-0.8h11.4v-5.1h-8.6l-0.2-0.8h8.8v-3.3
		c-0.3,0.2-1.2,0.5-2.3,0.5h-0.5v-7.5h-2.3c-0.3,2.9-1.5,6.1-6.2,8.1l-0.2-0.3c2.6-2.3,3.3-5.2,3.4-7.9h-3l-0.2-0.8h3.3
		c0-0.3,0-0.6,0-0.9V53h-2.5l-0.2-0.8h10.1l1.6-2c0,0,1.8,1.3,2.9,2.3c-0.1,0.3-0.4,0.4-0.8,0.4h-2.9v4.6l0,0l1.6-2.2
		c0,0,1.7,1.4,2.7,2.5v-6.2l3.9,0.4c-0.1,0.4-0.3,0.6-1,0.7v8.8c0,0.2-1.3,0.7-2.4,0.7h-0.6V58c-0.1,0.2-0.4,0.3-0.7,0.3h-3.6v6.1
		l4.2,0.4c0,0.4-0.3,0.7-1,0.8v3h4.2l1.7-2.2c0,0,2,1.5,3.1,2.6c-0.1,0.3-0.4,0.4-0.8,0.4h-8.3v5.1h6.5L432,72.4z M417.6,57.6V53
		h-2.2v3.8c0,0.3,0,0.6,0,0.9h2.2V57.6z M427.4,63c0,0,2.3,0.2,2.8,0.2c0.4,0,0.5-0.1,0.5-0.4V50.6l4,0.3c-0.1,0.4-0.3,0.6-1,0.8
		v11.2c0,2.2-0.4,3.3-3.8,3.6c-0.1-1-0.2-1.7-0.5-2.1c-0.4-0.4-0.9-0.8-2-1V63z"/>
	<path class="st0" d="M448.5,53.4c-0.2,0.3-0.6,0.4-1.3,0.4c-1,1.7-2.7,4.7-4.1,6.4c3.2,1.9,4.5,4.6,4.5,6.9c0,2.8-1.1,4.4-4.3,4.4
		c0-0.9-0.1-2-0.4-2.4c-0.2-0.3-0.7-0.6-1.3-0.7V68h1.8c0.3,0,0.4,0,0.6-0.2c0.4-0.2,0.6-0.7,0.6-1.6c0-1.9-0.6-4.1-2.2-6
		c0.5-1.8,1.2-5.2,1.6-7.4h-2.8v22.5c0,0.2-0.9,1-2.5,1h-0.6V50.8l3.4,1.3h2.2l1.7-1.6L448.5,53.4z M460.5,53.3c0,0,2,1.6,3.1,2.7
		c-0.1,0.3-0.4,0.4-0.8,0.4h-8.6c-0.1,1.4-0.1,2.8-0.3,4.2h4l1.7-1.7l3,2.5c-0.2,0.3-0.6,0.4-1.2,0.5c-0.3,7.9-1,11.7-2.5,13
		c-1,0.8-2.1,1.2-3.8,1.2c0-1-0.1-1.8-0.5-2.2c-0.5-0.5-1.5-0.9-2.6-1.2v-0.4c1.1,0.1,3,0.2,3.6,0.2c0.5,0,0.7-0.1,1-0.3
		c0.9-0.8,1.4-4.6,1.7-11h-4.4c-0.8,6.3-3.1,11.6-9.8,14.9l-0.2-0.3c5.8-5.1,6.8-12,6.8-19.6h-4.2l-0.2-0.8h7.8
		c-0.4-0.1-0.8-0.3-1.2-0.6c0.1-1.6-0.6-3.5-1.6-4.7l0.2-0.1c6.1,1.3,5.3,5,3.3,5.5h3.9L460.5,53.3z"/>
	<path class="st0" d="M473.1,70.9c-0.1,0.2-1.3,0.8-2.2,0.8h-0.4v-2.4h-2v2.9c0,0.2-0.8,0.8-2.1,0.8H466V51.9l2.9,1.2h1.3l1.3-1.5
		l2.7,2.1c-0.2,0.2-0.6,0.5-1.2,0.6v16.6H473.1z M468.6,53.9v6.9h2v-6.9H468.6z M470.6,68.6v-7.1h-2v7.1H470.6z M485.7,61.3v1.8h1.4
		l1.2-1.3l2.6,1.9c-0.1,0.2-0.5,0.4-1,0.5v2.6c0,0.2-1.3,0.8-2.2,0.8h-0.4v-0.8H477c-0.3,3.1-1.1,6.9-4.1,9.5l-0.3-0.3
		c1.8-3.7,1.8-8.2,1.8-11.9v-4.9l0.2,0.1v-6.2l2.3,1h2.4l1.1-1.1l2.2,1.7c-0.1,0.2-0.4,0.3-0.8,0.4v3.1c0.6,0.1,1,0.2,1.3,0.4v-5.4
		l2.3,1h2.2l1.1-1.1l2.2,1.7c-0.1,0.2-0.4,0.3-0.8,0.4v3.2c0,0.1-0.5,0.4-1.1,0.6c0.6,0.4,1.6,1.2,2.3,1.8c-0.1,0.3-0.3,0.4-0.7,0.4
		h-4.9V61.3z M473.9,52.9l-0.2-0.8h5.1l1.3-1.7c0,0,1.5,1.2,2.4,2c-0.1,0.3-0.3,0.4-0.7,0.4L473.9,52.9L473.9,52.9z M474.7,59.5
		l2.8,1.1h4.4c-0.1-0.6-0.4-1.1-0.7-1.6c-0.4,0.2-0.9,0.3-1.3,0.3h-0.4V55h-2.7v3.8c0,0.2-1,0.7-1.9,0.7H474.7z M481.6,68.8
		c0,0,1.1,1,1.8,1.8c-0.1,0.3-0.3,0.4-0.7,0.4H480v1.9c1-0.2,2-0.3,3.1-0.5l0.1,0.4c-0.8,0.6-2.5,1.7-4.4,2.7
		c-0.2,0.4-0.5,0.6-0.7,0.8l-1.5-2.8c0.8-0.5,0.9-0.7,0.9-1.1v-5l3.4,0.3c-0.1,0.3-0.3,0.5-0.8,0.6v2h0.6L481.6,68.8z M477.1,55.7
		c3.7,0.8,2.1,3.6,0.7,2.4c0-0.8-0.5-1.7-1-2.2L477.1,55.7z M477,64.3c0,0.6,0,1.2,0,1.9h1.8V64H477V64.3z M477,63.2h1.8v-1.8H477
		V63.2z M483.1,61.3h-1.8v1.8h1.8V61.3z M481.3,66.1h1.8v-2.2h-1.8V66.1z M482.8,52.9l-0.2-0.8h4.6l1.3-1.8c0,0,1.6,1.2,2.5,2.1
		c-0.1,0.3-0.4,0.4-0.8,0.4L482.8,52.9L482.8,52.9z M490.1,73.1c0.7,0.3,0.8,0.6,0.8,1c0,1-1,1.5-3.7,1.5h-1.6c-2,0-2.3-0.6-2.3-2.2
		v-6l3.4,0.3c-0.1,0.4-0.3,0.6-0.8,0.7v1.9h0.9l1.1-1.7c0,0,1.3,1.2,2.1,2c-0.1,0.3-0.3,0.4-0.7,0.4H486v1.8c0,0.3,0.1,0.4,0.5,0.4
		h1h0.9c0.2,0,0.4-0.1,0.5-0.2c0.2-0.3,0.5-1,0.8-1.8h0.3L490.1,73.1z M485.3,55v0.7h0.1c3.7,0.8,2.1,3.6,0.7,2.4
		c0-0.6-0.3-1.4-0.7-1.9v2.4c0,0.2-0.8,0.6-1.6,0.6c0.3,0.4,0.2,1-0.1,1.3h3.5l1.1-1.4h-0.4V55H485.3z M485.7,63.9v2.2h1.7v-2.2
		C487.4,63.9,485.7,63.9,485.7,63.9z"/>
	<path class="st0" d="M504,63.9c1.1,0,2-0.8,2.2-3.2l1.4,0.1c-0.1,3.2-1.6,4.6-3.8,4.6c-1.5,0-2.3-0.6-3.7-1.7
		c-1.2-1-1.9-1.5-2.9-1.5c-1.2,0-2.1,0.9-2.3,3.2l-1.4-0.2c0.1-3.2,1.7-4.5,3.8-4.5c1.4,0,2.4,0.6,3.7,1.8
		C502.2,63.4,503,63.9,504,63.9z"/>
</g>
<g>
	<path class="st0" d="M10.5,116c4.7,2,6.5,4,6.5,7.4c0,4.2-3.3,7-8.8,7c-2.7,0-5.4-0.7-7.2-1.9l0.2-5.3H3l1.3,5.2
		c1.1,0.5,2.1,0.6,3.5,0.6c3.3,0,5.2-1.5,5.2-4.2c0-2.2-1.1-3.4-3.9-4.5l-1.5-0.6c-4-1.8-6.3-3.8-6.3-7.5c0-4.2,3.5-6.6,8.3-6.6
		c2.5,0,4.5,0.7,6.2,1.8l-0.2,5h-1.8l-1.3-4.9c-0.7-0.4-1.5-0.5-2.4-0.5c-2.8,0-4.8,1.4-4.8,3.9c0,2.2,1.3,3.5,3.7,4.5L10.5,116z"/>
	<path class="st0" d="M42.6,107.2l-3.2,0.4L39.3,120c0,7.2-3.2,10.4-8.6,10.4c-5.3,0-9-2.7-9-9.9V117c0-3.1,0-6.3-0.1-9.5l-2.8-0.3
		V106h10.7v1.2l-3.3,0.3c-0.1,3.1-0.1,6.3-0.1,9.5v3c0,5.9,2.1,8,5.8,8c3.9,0,6-2.4,6-8.3l-0.1-12l-3.7-0.5V106h8.5
		C42.6,106,42.6,107.2,42.6,107.2z"/>
	<path class="st0" d="M68.2,107.2l-2.9,0.4l-0.2,22.3h-2.2L48.7,110l0.1,18.2l4.1,0.4v1.1h-8.6v-1.1l3-0.4l0.2-20.1l-0.5-0.7
		l-2.4-0.3v-1.2h6.8l12.5,17.4l-0.1-15.8l-4.1-0.4v-1.2h8.6L68.2,107.2L68.2,107.2z"/>
	<path class="st0" d="M89.8,128.6c-2,1.2-4.4,1.8-7.1,1.8c-7.1,0-12.4-4.5-12.4-12.5s5.7-12.4,12.5-12.4c2.5,0,4.6,0.6,6.8,1.8
		l-0.1,5.5h-1.8l-1.4-5.5c-0.9-0.4-1.9-0.5-2.9-0.5c-4.7,0-8.3,3.7-8.3,11.2c0,7.6,3.5,11.1,8.3,11.1c1.1,0,2.1-0.2,3.1-0.6l1.4-5.4
		h1.9V128.6z"/>
	<path class="st0" d="M115.8,107.2l-3.2,0.4l-0.1,12.4c0,7.2-3.2,10.4-8.6,10.4c-5.3,0-9-2.7-9-9.9V117c0-3.1,0-6.3-0.1-9.5
		l-2.8-0.3V106h10.7v1.2l-3.3,0.3c-0.1,3.1-0.1,6.3-0.1,9.5v3c0,5.9,2.1,8,5.8,8c3.9,0,6-2.4,6-8.3l-0.1-12l-3.7-0.5V106h8.5
		C115.8,106,115.8,107.2,115.8,107.2z"/>
	<path class="st0" d="M129.9,107.4c-0.1,3.2-0.1,6.5-0.1,9.8v1.6c0,3.2,0,6.4,0.1,9.7l3.4,0.3v1.1h-11.4v-1.1l3.4-0.3
		c0-3.2,0-6.4,0-9.7v-1.6c0-3.2,0-6.5,0-9.8h-5l-1.3,5.3h-1.8l0.2-6.6h20.3l0.2,6.6h-1.8l-1.3-5.3H129.9z"/>
	<path class="st0" d="M171.8,107.2l-3.2,0.4l-0.1,12.4c0,7.2-3.2,10.4-8.6,10.4c-5.3,0-9-2.7-9-9.9V117c0-3.1,0-6.3-0.1-9.5
		l-2.8-0.3V106h10.7v1.2l-3.3,0.3c-0.1,3.1-0.1,6.3-0.1,9.5v3c0,5.9,2.1,8,5.8,8c3.9,0,6-2.4,6-8.3l-0.1-12l-3.7-0.5V106h8.5
		L171.8,107.2L171.8,107.2z"/>
	<path class="st0" d="M195.9,107.1l-2.8,0.5l-7.5,22.3h-2.3l-8.1-22.5l-2.4-0.3v-1.2h10.6v1.1l-3.3,0.4l6,17.6l5.4-17.5l-3.3-0.4
		V106h7.9v1.1H195.9z"/>
	<path class="st0" d="M214.4,126.4c-0.1,0.3-1.4,0.9-2.5,0.9h-0.4v-2.7h-2.2v3.3c0,0.2-0.9,1-2.4,1h-0.5v-24.3l3.4,1.4h1.5l1.5-1.7
		l3.1,2.4c-0.2,0.3-0.7,0.5-1.3,0.7v19C214.6,126.4,214.4,126.4,214.4,126.4z M209.2,107v7.8h2.2V107H209.2z M211.5,123.8v-8.1h-2.2
		v8.1H211.5z M228.7,115.5v2.1h1.6l1.4-1.5l3,2.2c-0.2,0.2-0.6,0.4-1.1,0.6v3c0,0.2-1.5,0.9-2.5,0.9h-0.5v-0.9h-11.9
		c-0.3,3.6-1.2,7.8-4.7,10.8l-0.4-0.3c2-4.2,2.1-9.4,2.1-13.6v-5.6l0.2,0.1v-7l2.6,1.1h2.7l1.2-1.2l2.5,1.9
		c-0.1,0.2-0.4,0.4-0.9,0.5v3.5c0.7,0.1,1.2,0.2,1.5,0.4v-6.2l2.7,1.1h2.6l1.2-1.2l2.6,1.9c-0.1,0.2-0.5,0.4-1,0.5v3.6
		c0,0.2-0.6,0.5-1.2,0.7c0.6,0.5,1.8,1.4,2.6,2.1c-0.1,0.4-0.4,0.5-0.8,0.5H228.7z M215.3,105.8l-0.3-0.9h5.9l1.5-1.9
		c0,0,1.7,1.3,2.7,2.3c-0.1,0.4-0.4,0.5-0.8,0.5H215.3z M216.2,113.4l3.2,1.2h5c-0.1-0.6-0.4-1.3-0.8-1.8c-0.4,0.2-1,0.4-1.5,0.4
		h-0.4v-4.8h-3.1v4.3c0,0.2-1.1,0.8-2.1,0.8L216.2,113.4L216.2,113.4z M224.1,124.1c0,0,1.2,1.2,2,2c-0.1,0.4-0.4,0.5-0.8,0.5h-3
		v2.1c1.1-0.2,2.3-0.4,3.5-0.6l0.1,0.4c-0.9,0.6-2.9,1.9-5.1,3.1c-0.2,0.4-0.5,0.7-0.8,0.9l-1.7-3.2c0.9-0.5,1.1-0.8,1.1-1.3v-5.7
		l3.8,0.4c-0.1,0.4-0.3,0.6-0.9,0.7v2.3h0.7L224.1,124.1z M218.9,109c4.3,0.9,2.4,4.2,0.8,2.8c0-0.9-0.5-2-1.2-2.6L218.9,109z
		 M218.9,118.8c0,0.7,0,1.4,0,2.1h2v-2.5h-2V118.8z M218.9,117.6h2v-2.1h-2V117.6z M225.8,115.5h-2v2.1h2V115.5z M223.8,121h2v-2.5
		h-2V121z M225.5,105.8l-0.3-0.9h5.3l1.5-2c0,0,1.8,1.4,2.8,2.4c-0.1,0.4-0.4,0.5-0.9,0.5H225.5z M233.9,128.9
		c0.8,0.3,0.9,0.6,0.9,1.2c0,1.2-1.1,1.7-4.2,1.7h-1.8c-2.3,0-2.6-0.6-2.6-2.5v-6.9l3.9,0.4c-0.1,0.4-0.4,0.7-0.9,0.8v2.2h1.1
		l1.3-1.9c0,0,1.5,1.3,2.4,2.3c-0.1,0.4-0.4,0.5-0.8,0.5h-3.9v2.1c0,0.4,0.1,0.4,0.6,0.4h1.1h1.1c0.2,0,0.4-0.1,0.6-0.2
		c0.2-0.3,0.6-1.2,0.9-2.1h0.4L233.9,128.9z M228.3,108.3v0.8h0.1c4.3,0.9,2.4,4.1,0.8,2.8c0-0.7-0.4-1.6-0.8-2.2v2.7
		c0,0.2-0.9,0.6-1.9,0.7c0.4,0.5,0.3,1.1-0.1,1.5h4l1.2-1.6h-0.4v-4.7C231.2,108.3,228.3,108.3,228.3,108.3z M228.7,118.5v2.5h1.9
		v-2.5H228.7z"/>
	<path class="st0" d="M263.2,102.5c0,0,2.5,1.9,4.1,3.3c-0.1,0.4-0.4,0.5-0.9,0.5h-3.9v21.6c0,2.6-0.8,4.4-5.7,4.8
		c-0.1-1.2-0.4-2.2-1.1-2.7c-0.8-0.6-1.8-1-4.1-1.4v-0.4c0,0,5.2,0.3,6.2,0.3c0.6,0,0.9-0.3,0.9-0.7v-21.4h-21.2l-0.3-0.9H261
		L263.2,102.5z M253.5,123.8c0,0.3-1.9,0.9-3,0.9h-0.6V122h-5.5v2.8c0,0.4-1.5,1.2-3,1.2h-0.5v-15.9l3.7,1.5h5l1.7-1.9l3.6,2.7
		c-0.2,0.3-0.6,0.5-1.3,0.7L253.5,123.8L253.5,123.8z M249.9,121.2v-8.6h-5.5v8.6H249.9z"/>
	<path class="st0" d="M275,113.3c-1.5,1.7-3.4,3.2-5.6,4.4l-0.3-0.4c2.3-2.3,4-5.5,4.9-8.7h-4.3l-0.3-0.9h5.5v-5.1l4.6,0.4
		c-0.1,0.4-0.3,0.7-1.2,0.9v3.7h0.7l1.7-2.3c0,0,2,1.6,3.2,2.7c-0.1,0.4-0.4,0.5-0.9,0.5h-4.7v1.4c7.6,1.2,4.8,6.6,2,4.4
		c-0.2-1.3-1.1-2.8-2-3.9v7.8c0,0.3-1.5,0.9-2.8,0.9H275V113.3z M295.9,107.4c0,0,2,1.7,3.3,2.8c-0.1,0.4-0.4,0.5-0.8,0.5h-4v7.2
		c0,0.2-1.1,0.8-2.9,0.8h-0.6v-8h-3.2c-0.1,2.3-0.9,5.1-4.2,7.1l4.5,0.7c-0.1,0.5-0.6,0.8-1.3,0.9c-0.7,0.5-1.7,1.1-2.6,1.6h6.2
		l1.7-1.9l3.6,2.8c-0.2,0.3-0.6,0.5-1.2,0.7v9c0,0.2-1.9,0.9-3.1,0.9h-0.6v-1.8h-12.4v0.8c0,0.4-1.6,1.2-3.2,1.2h-0.5v-13.2l4,1.6
		h3.8c0.1-0.7,0.3-1.8,0.4-2.6c-0.5,0.3-1.2,0.5-1.8,0.8l-0.3-0.4c3.3-2.6,3.7-6,3.7-9v-5l3.8,1.1c2.4-1,5-2.2,6.4-3.1l3.4,3.3
		c-0.4,0.3-1.1,0.3-2,0c-2.1,0.4-5.2,0.8-8.2,0.9v3h6.4L295.9,107.4z M278.2,121.9v3.4h12.4v-3.4H278.2z M290.6,129.8v-3.6h-12.4
		v3.6H290.6z"/>
	<path class="st0" d="M316.2,113.8c5.8,3,3.1,7.4,1,5.3c0.1-1.4-0.4-3-1-4.4v16.6c0,0.4-1.4,1.2-2.7,1.2h-0.6V120
		c-1,1.8-2.1,3.5-3.5,5l-0.4-0.4c1.9-3.6,2.9-8.6,3.5-13.2h-3l-0.3-0.9h3.7v-8l4.5,0.4c-0.1,0.4-0.3,0.8-1.2,0.9v6.5l1.5-2.2
		c0,0,1.8,1.6,2.7,2.7c-0.1,0.4-0.4,0.5-0.8,0.5h-3.4L316.2,113.8L316.2,113.8z M335.8,128c0,0,2.2,1.7,3.6,2.8
		c-0.1,0.4-0.4,0.5-0.9,0.5h-20.4l-0.3-0.9h16.1L335.8,128z M319.6,106.2l-0.3-0.9h14.4l1.8-2.4c0,0,2.1,1.7,3.3,2.8
		c-0.1,0.4-0.4,0.5-0.9,0.5h-10.3c-0.5,1.3-1.2,3-1.8,4.3h1.6l1.7-1.8l3.1,2.7c-0.3,0.2-0.6,0.4-1.3,0.6c-0.2,11.3-0.6,15.1-2,16.6
		c-1,1-2.2,1.4-3.6,1.4c0-1.1-0.1-1.8-0.4-2.3c-0.4-0.5-1.1-0.8-2.1-1.1v-0.5c0.9,0.1,2.2,0.2,2.8,0.2c0.5,0,0.7-0.1,1-0.4
		c0.9-0.8,1.2-5,1.3-14.6h-2.1l-1.3,1.5l-3.2-2.1c0.3-0.3,0.8-0.5,1.3-0.7c0.5-1.2,1.2-2.7,1.5-3.8L319.6,106.2L319.6,106.2z
		 M323.6,124.3v-1.2h-1.5v1.6c0,0.2-1.1,0.8-2,0.8h-0.4v-12.3l2.5,1.1h1.1l1.2-1.2l2.4,1.8c-0.2,0.2-0.5,0.4-0.9,0.4v8.2
		c0,0.2-1.2,0.7-2,0.7L323.6,124.3L323.6,124.3z M323.6,122.2v-6.9h-1.5v6.9H323.6z M339,112.9c-0.2,0.3-0.5,0.4-1.2,0.5
		c-0.3,2-0.7,4.1-1.4,6.1c3.9,4.7,1.9,8.7-0.6,6.6c-0.2-1.1-0.5-2.2-0.9-3.3c-1.1,1.8-2.5,3.5-4.4,4.8l-0.3-0.4
		c1.7-2,2.8-4.4,3.5-7.1c-0.8-1.6-1.8-3.2-2.7-4.5l0.4-0.2c1.1,0.6,2,1.3,2.8,2c0.3-1.4,0.4-2.9,0.5-4.3h-3.2l-0.5-0.9h3.5l1.6-1.7
		L339,112.9z"/>
	<path class="st0" d="M347.9,115.4c0,5.5-0.4,12.7-6.5,17.3l-0.4-0.2c2.9-5,3.1-11.4,3.1-17.1v-9.8l4.4,1.5h8.4
		c-0.1-0.1-0.3-0.1-0.4-0.2c-0.4-1.5-1.6-3.3-2.7-4.2l0.3-0.2c6.6-0.2,6.7,3.6,4.7,4.6h6.9l2-2.7c0,0,2.2,1.9,3.5,3.1
		c-0.1,0.4-0.4,0.5-0.9,0.5h-22.4V115.4z M367.6,122c-0.3,0.3-0.6,0.4-1.4,0.5c-1.2,1.9-2.8,3.5-4.7,4.8c3,0.8,6.4,1.2,10,1.3v0.4
		c-1.6,0.5-2.6,1.7-2.9,3.6c-4-0.7-7.5-1.7-10.3-3.4c-3.6,1.9-8.2,2.9-13.5,3.4l-0.2-0.4c4.5-1,8.4-2.5,11.6-4.5
		c-1.8-1.5-3.2-3.5-4.2-6h-2.2l-0.3-0.9h12.6l2.2-2L367.6,122z M360.7,119.2v-1h-5.1v0.8c0,0.3-1.6,0.8-2.9,0.8H352v-6.7h-3.5
		l-0.3-0.9h3.7v-3.5l4.6,0.4c-0.1,0.4-0.3,0.7-1.1,0.8v2.3h5.1v-3.5l4.7,0.4c-0.1,0.4-0.3,0.7-1.1,0.8v2.3h1.4l1.7-2.6
		c0,0,1.9,1.8,3,2.9c-0.1,0.4-0.4,0.5-0.9,0.5h-5.2v5.2c0,0.3-1.6,0.8-2.9,0.8h-0.5L360.7,119.2L360.7,119.2z M352.7,121.8
		c1.3,2,3.3,3.4,5.6,4.4c1.6-1.3,2.8-2.8,3.8-4.4H352.7z M360.7,117.3v-4.1h-5.1v4.1H360.7z"/>
	<path class="st0" d="M386.3,106.4c-0.3,0.3-0.7,0.4-1.4,0.4c-1.1,2-3.1,5.3-4.7,7.4c3.6,2.2,5.1,5.3,5.1,7.9c0,3.2-1.3,5-4.9,5.1
		c0-1-0.2-2.3-0.4-2.8c-0.3-0.4-0.8-0.6-1.5-0.8v-0.4h2.1c0.3,0,0.5,0,0.7-0.2c0.4-0.3,0.7-0.8,0.7-1.9c0-2.2-0.7-4.7-2.6-6.8
		c0.6-2.1,1.4-5.9,1.8-8.4H378v25.7c0,0.3-1.1,1.1-2.8,1.1h-0.6v-29.2l3.9,1.5h2.5l1.9-1.8L386.3,106.4z M400,106.3
		c0,0,2.3,1.9,3.6,3.1c-0.1,0.4-0.4,0.5-0.9,0.5h-9.8c-0.1,1.6-0.2,3.2-0.3,4.8h4.6l2-2l3.4,2.9c-0.3,0.3-0.7,0.5-1.4,0.6
		c-0.4,9.1-1.1,13.4-2.9,14.9c-1.1,1-2.4,1.4-4.4,1.4c0-1.1-0.1-2-0.6-2.5c-0.5-0.6-1.7-1.1-3-1.3v-0.4c1.3,0.1,3.4,0.3,4.1,0.3
		c0.5,0,0.8-0.1,1.2-0.4c1-0.9,1.6-5.2,1.9-12.6h-5c-1,7.2-3.5,13.3-11.2,17l-0.2-0.3c6.6-5.8,7.7-13.7,7.7-22.4H384l-0.3-0.9h8.9
		c-0.4-0.1-0.9-0.3-1.3-0.7c0.1-1.9-0.7-4-1.8-5.3l0.3-0.2c6.9,1.4,6.1,5.8,3.7,6.2h4.5L400,106.3z"/>
	<path class="st0" d="M408.8,113.1c-1,0.7-2.1,1.4-3.2,2l-0.3-0.4c2.1-2.1,4.2-5.4,5.3-7.7c-1.5,0.9-3.1,1.7-4.7,2.3l-0.3-0.4
		c2-1.7,4.3-4.5,5.3-6.4l3.6,2.3c-0.2,0.3-0.5,0.4-1.2,0.3c-0.6,0.5-1.4,1.1-2.4,1.7l3.6,2c-0.2,0.3-0.5,0.5-1.2,0.4
		c-0.5,0.6-1.2,1.3-1.9,2l1.6,0.5c-0.1,0.3-0.4,0.5-1,0.6v7.2c-0.1,0.2-1.4,0.7-2.6,0.7h-0.5L408.8,113.1L408.8,113.1z M405.9,131.6
		c2.8-1.6,5.7-4.2,7-6.2l3.9,2.5c-0.2,0.3-0.5,0.4-1.2,0.3c-2.2,1.6-5.9,3.1-9.5,3.8L405.9,131.6z M431.2,121.6c0,0,2.2,1.6,3.5,2.8
		c-0.1,0.4-0.4,0.5-0.9,0.5h-11.7v7c0,0.1-1.2,0.7-3,0.7h-0.7v-7.7h-12l-0.3-0.9h23.1L431.2,121.6z M435.1,105.7
		c-0.2,0.3-0.7,0.5-1.3,0.7v7.5c0,2-0.4,3-3.3,3.3c-0.1-0.8-0.1-1.4-0.4-1.9c-0.2-0.4-0.6-0.7-1.4-0.8V114c0,0,1.3,0.1,1.7,0.1
		c0.4,0,0.5-0.2,0.5-0.5v-7.8h-2.4v12.8l0.2-0.2c0,0,2,1.5,3.4,2.6c-0.1,0.4-0.4,0.5-0.9,0.5h-21.3l-0.3-0.9h17.2l1.2-1.5
		c-0.4,0.2-1.1,0.5-2,0.5h-0.5v-16l3.3,1.3h1.6l1.4-1.6L435.1,105.7z M423,107.4c0,0,1.6,1.3,2.5,2.3c-0.1,0.4-0.4,0.5-0.8,0.5H421
		v2.4h0.9l1.2-1.7c0,0,1.3,1.2,2.1,2c-0.1,0.4-0.4,0.5-0.8,0.5H421v2.5c1.3-0.2,2.8-0.4,4.2-0.6l0.1,0.5c-2.1,0.7-5.8,2-9.9,3.2
		c-0.2,0.3-0.4,0.4-0.6,0.5l-1.2-2.7c0.6-0.4,0.7-0.5,0.7-1v-4.7l3.3,0.4c0,0.4-0.3,0.6-0.9,0.7v4.2l1.4-0.2v-6.1h-4.3l-0.3-0.9h4.5
		v-2.6h-1.5c-0.7,0.8-1.5,1.5-2.3,2l-0.4-0.3c0.7-1.4,1.4-3.7,1.8-5.9l3.9,1.2c-0.2,0.4-0.5,0.7-1.2,0.7c-0.3,0.5-0.6,0.9-0.9,1.4
		h3.4l1.5-2c0,0,1.6,1.4,2.7,2.4c-0.1,0.4-0.4,0.5-0.8,0.5h-3v2.6h0.6L423,107.4z M423.8,125.9c11.2-0.1,10.8,6.8,7,5.9
		c-1.6-1.9-4.9-4.3-7.3-5.6L423.8,125.9z"/>
	<path class="st0" d="M458.3,106.4c-0.3,0.3-0.7,0.4-1.4,0.4c-1.1,2-3.1,5.3-4.7,7.4c3.6,2.2,5.1,5.3,5.1,7.9c0,3.2-1.3,5-4.9,5.1
		c0-1-0.2-2.3-0.4-2.8c-0.3-0.4-0.8-0.6-1.5-0.8v-0.4h2.1c0.3,0,0.5,0,0.7-0.2c0.4-0.3,0.7-0.8,0.7-1.9c0-2.2-0.7-4.7-2.6-6.8
		c0.6-2.1,1.4-5.9,1.8-8.4H450v25.7c0,0.3-1.1,1.1-2.8,1.1h-0.6v-29.2l3.9,1.5h2.5l1.9-1.8L458.3,106.4z M472,106.3
		c0,0,2.3,1.9,3.6,3.1c-0.1,0.4-0.4,0.5-0.9,0.5h-9.8c-0.1,1.6-0.2,3.2-0.3,4.8h4.6l2-2l3.4,2.9c-0.3,0.3-0.7,0.5-1.4,0.6
		c-0.4,9.1-1.1,13.4-2.9,14.9c-1.1,1-2.4,1.4-4.4,1.4c0-1.1-0.1-2-0.6-2.5c-0.5-0.6-1.7-1.1-3-1.3v-0.4c1.3,0.1,3.4,0.3,4.1,0.3
		c0.5,0,0.8-0.1,1.2-0.4c1-0.9,1.6-5.2,1.9-12.6h-5c-1,7.2-3.5,13.3-11.2,17l-0.2-0.3c6.6-5.8,7.7-13.7,7.7-22.4H456l-0.3-0.9h8.9
		c-0.4-0.1-0.9-0.3-1.3-0.7c0.1-1.9-0.7-4-1.8-5.3l0.3-0.2c6.9,1.4,6.1,5.8,3.7,6.2h4.5L472,106.3z"/>
	<path class="st0" d="M486.5,126.4c-0.1,0.3-1.4,0.9-2.5,0.9h-0.4v-2.7h-2.2v3.3c0,0.2-0.9,1-2.4,1h-0.5v-24.3l3.4,1.4h1.5l1.5-1.7
		l3.1,2.4c-0.2,0.3-0.7,0.5-1.3,0.7v19C486.7,126.4,486.5,126.4,486.5,126.4z M481.3,107v7.8h2.2V107H481.3z M483.6,123.8v-8.1h-2.2
		v8.1H483.6z M500.8,115.5v2.1h1.6l1.4-1.5l3,2.2c-0.2,0.2-0.6,0.4-1.1,0.6v3c0,0.2-1.5,0.9-2.5,0.9h-0.5v-0.9h-11.9
		c-0.3,3.6-1.2,7.8-4.7,10.8l-0.4-0.3c2-4.2,2.1-9.4,2.1-13.6v-5.6l0.2,0.1v-7l2.6,1.1h2.7l1.2-1.2l2.5,1.9
		c-0.1,0.2-0.4,0.4-0.9,0.5v3.5c0.7,0.1,1.2,0.2,1.5,0.4v-6.2l2.7,1.1h2.6l1.2-1.2l2.6,1.9c-0.1,0.2-0.5,0.4-1,0.5v3.6
		c0,0.2-0.6,0.5-1.2,0.7c0.6,0.5,1.8,1.4,2.6,2.1c-0.1,0.4-0.4,0.5-0.8,0.5H500.8z M487.4,105.8l-0.3-0.9h5.9l1.5-1.9
		c0,0,1.7,1.3,2.7,2.3c-0.1,0.4-0.4,0.5-0.8,0.5H487.4z M488.3,113.4l3.2,1.2h5c-0.1-0.6-0.4-1.3-0.8-1.8c-0.4,0.2-1,0.4-1.5,0.4
		h-0.4v-4.8h-3.1v4.3c0,0.2-1.1,0.8-2.1,0.8L488.3,113.4L488.3,113.4z M496.2,124.1c0,0,1.2,1.2,2,2c-0.1,0.4-0.4,0.5-0.8,0.5h-3
		v2.1c1.1-0.2,2.3-0.4,3.5-0.6l0.1,0.4c-0.9,0.6-2.9,1.9-5.1,3.1c-0.2,0.4-0.5,0.7-0.8,0.9l-1.7-3.2c0.9-0.5,1.1-0.8,1.1-1.3v-5.7
		l3.8,0.4c-0.1,0.4-0.3,0.6-0.9,0.7v2.3h0.7L496.2,124.1z M491,109c4.3,0.9,2.4,4.2,0.8,2.8c0-0.9-0.5-2-1.2-2.6L491,109z
		 M490.9,118.8c0,0.7,0,1.4,0,2.1h2v-2.5h-2V118.8z M490.9,117.6h2v-2.1h-2V117.6z M497.9,115.5h-2v2.1h2V115.5z M495.8,121h2v-2.5
		h-2V121z M497.6,105.8l-0.3-0.9h5.3l1.5-2c0,0,1.8,1.4,2.8,2.4c-0.1,0.4-0.4,0.5-0.9,0.5H497.6z M505.9,128.9
		c0.8,0.3,0.9,0.6,0.9,1.2c0,1.2-1.1,1.7-4.2,1.7h-1.8c-2.3,0-2.6-0.6-2.6-2.5v-6.9l3.9,0.4c-0.1,0.4-0.4,0.7-0.9,0.8v2.2h1.1
		l1.3-1.9c0,0,1.5,1.3,2.4,2.3c-0.1,0.4-0.4,0.5-0.8,0.5h-3.9v2.1c0,0.4,0.1,0.4,0.6,0.4h1.1h1.1c0.2,0,0.4-0.1,0.6-0.2
		c0.2-0.3,0.6-1.2,0.9-2.1h0.4L505.9,128.9z M500.4,108.3v0.8h0.1c4.3,0.9,2.4,4.1,0.8,2.8c0-0.7-0.4-1.6-0.8-2.2v2.7
		c0,0.2-0.9,0.6-1.9,0.7c0.4,0.5,0.3,1.1-0.1,1.5h4l1.2-1.6h-0.4v-4.7C503.3,108.3,500.4,108.3,500.4,108.3z M500.8,118.5v2.5h1.9
		v-2.5H500.8z"/>
	<path class="st0" d="M521.9,125.4c-0.2,0.3-0.5,0.5-1.2,0.3c-2.4,2.1-6.4,4.4-10.6,5.5l-0.3-0.4c3.2-2.1,6.5-5.5,8-8L521.9,125.4z
		 M531,115.3c9,3.3,5.8,10.1,2.5,7.3c0-0.9-0.3-1.8-0.5-2.7c-1.7,0.4-3.7,0.7-6.1,1.2v7.5c0,2.4-0.6,3.9-4.8,4.2
		c-0.1-1.1-0.2-1.9-0.6-2.4c-0.4-0.4-1-0.9-2.5-1.1v-0.4c0,0,2.8,0.2,3.4,0.2c0.5,0,0.6-0.2,0.6-0.5v-6.8c-2.2,0.4-4.7,0.8-7.3,1.2
		c-0.2,0.4-0.5,0.6-0.8,0.8l-1.9-4c0,0,0.9-0.1,1.4-0.3c2.8-0.9,6.2-2.8,9.2-4.8c-2.2,0.6-4.8,1.2-7.6,1.9c-0.2,0.3-0.4,0.5-0.6,0.6
		l-1.8-3.7c0,0,0.7-0.1,1.1-0.2c2.9-1,6.7-3.9,8.6-5.8c-3.6,1-7.7,1.8-11.5,2.4l-0.1-0.5c5.5-1.6,12.4-4.6,15.8-6.8l3.6,2.9
		c-0.4,0.4-1,0.4-1.9,0.1c-1.4,0.5-3.1,1.1-5,1.6l3.5,2c-0.2,0.3-0.6,0.5-1.3,0.4c-2,1.3-5.7,2.9-9,4c2.3-0.1,5.3-0.3,8.5-0.5
		c1.7-1.2,3.1-2.4,4-3.4l4,2.9c-0.2,0.3-0.7,0.5-1.4,0.3c-3.2,2.2-9.8,5.2-15.5,7.1c3.8-0.1,9.5-0.4,15.6-0.7
		c-0.5-1.3-1.3-2.6-2-3.6L531,115.3z M528.5,123.1c12.4,1.8,10.8,9.7,6.8,7.8c-1.4-2.6-4.6-5.7-7-7.6L528.5,123.1z"/>
	<path class="st0" d="M551.6,106.7c-0.5,1.8-1.2,3.5-2,5.2h4.3l2-2l3.4,3.1c-0.2,0.4-0.5,0.4-1.3,0.5c-2.1,8.2-6.2,15.5-16,19.2
		l-0.3-0.4c7-4.2,10.8-11.4,12.4-19.5h-5c-0.6,1.2-1.3,2.3-2.1,3.4c7.4,1.5,4.3,7.3,1.2,4.9c-0.1-1.4-0.9-2.9-1.8-4.1
		c-1.5,1.9-3.2,3.6-5.1,4.9l-0.3-0.3c3.1-4.1,5.5-10,6.2-15h-5.4l-0.3-0.9h11.8l2.1-2.9c0,0,2.4,2,3.8,3.3c-0.1,0.4-0.4,0.5-0.9,0.5
		L551.6,106.7L551.6,106.7z M563.2,124.2c0,0.3-1.5,1-2.7,1h-0.6v-19.9l4.3,0.4c-0.1,0.4-0.3,0.7-1,0.8V124.2z M570.9,103.7
		c-0.1,0.4-0.4,0.8-1.2,0.9v23.6c0,2.6-0.6,4.1-4.9,4.4c-0.1-1.2-0.3-2-0.8-2.6s-1.3-1-3-1.2v-0.5c0,0,3.6,0.3,4.4,0.3
		c0.5,0,0.7-0.2,0.7-0.6v-24.7L570.9,103.7z"/>
</g>
<g>
	<path class="st0" d="M13.3,165.4l1-1.2c0.6,0.6,1.5,1,2.3,1c0.9,0,1.4-0.4,1.4-1c0-0.7-0.5-0.9-1.3-1.2l-1.2-0.5
		c-0.9-0.4-1.8-1.1-1.8-2.4c0-1.5,1.3-2.6,3.1-2.6c1,0,2.1,0.4,2.8,1.1l-0.9,1.1c-0.6-0.5-1.2-0.7-1.9-0.7c-0.8,0-1.3,0.3-1.3,0.9
		c0,0.6,0.6,0.9,1.4,1.2l1.2,0.5c1.1,0.4,1.8,1.1,1.8,2.4c0,1.5-1.2,2.7-3.3,2.7C15.3,166.7,14.1,166.2,13.3,165.4z"/>
	<path class="st0" d="M21.3,162.5v-4.9h1.8v5c0,1.8,0.6,2.5,1.7,2.5s1.7-0.6,1.7-2.5v-5h1.7v4.9c0,3-1.3,4.2-3.4,4.2
		C22.6,166.7,21.3,165.5,21.3,162.5z"/>
	<path class="st0" d="M30.3,157.6h1.8l2.6,4.7l0.9,1.9h0.1c-0.1-0.9-0.2-2.1-0.2-3.1v-3.5h1.7v8.9h-1.8l-2.6-4.7l-0.9-1.9h-0.1
		c0.1,1,0.2,2.1,0.2,3.1v3.6h-1.7V157.6z"/>
	<path class="st0" d="M38.9,162.1c0-2.9,1.9-4.6,4.1-4.6c1.1,0,2,0.5,2.6,1.1l-0.9,1.1c-0.5-0.4-1-0.7-1.6-0.7
		c-1.3,0-2.4,1.2-2.4,3.1c0,1.9,0.9,3.1,2.3,3.1c0.8,0,1.4-0.4,1.8-0.9l0.9,1.1c-0.7,0.9-1.7,1.3-2.8,1.3
		C40.7,166.7,38.9,165.1,38.9,162.1z"/>
	<path class="st0" d="M47.1,162.5v-4.9h1.8v5c0,1.8,0.6,2.5,1.7,2.5c1.1,0,1.7-0.6,1.7-2.5v-5H54v4.9c0,3-1.3,4.2-3.4,4.2
		C48.4,166.7,47.1,165.5,47.1,162.5z"/>
	<path class="st0" d="M57.9,159.1h-2.5v-1.5h6.8v1.5h-2.5v7.4h-1.8V159.1z"/>
	<path class="st0" d="M66.3,162.5v-4.9h1.8v5c0,1.8,0.6,2.5,1.7,2.5s1.7-0.6,1.7-2.5v-5h1.7v4.9c0,3-1.3,4.2-3.4,4.2
		C67.6,166.7,66.3,165.5,66.3,162.5z"/>
	<path class="st0" d="M74.2,157.6h1.9l1.2,4.3c0.3,1,0.5,1.9,0.7,2.9h0c0.3-1,0.5-1.9,0.8-2.9l1.2-4.3h1.8l-2.7,8.9H77L74.2,157.6z"
		/>
	<path class="st0" d="M86.3,165.3v1h-1.1v-9.1h3v8.1H86.3z M86.3,158.5v2.2h0.8v-2.2H86.3z M87.1,164.1v-2.2h-0.8v2.2H87.1z
		 M94.8,166.4c0.2,0,0.3-0.1,0.3-0.6c0.2,0.2,0.7,0.3,1,0.4c-0.1,0.9-0.4,1.2-1.2,1.2h-1c-1,0-1.3-0.3-1.3-1.3v-1.8H91v0.5h1.3v0.8
		H91v0.7l1.3-0.2c0,0.3,0,0.8,0.1,1c-1.9,0.3-2.3,0.4-2.5,0.6c0-0.3-0.2-0.9-0.3-1.2c0.2-0.1,0.4-0.1,0.4-0.5v-1.7h-0.2
		c-0.1,1.1-0.4,2.3-1,3.2c-0.2-0.2-0.8-0.5-1.1-0.6c0.9-1.3,1-3.2,1-4.5v-1.7h2.9c-0.1-0.1-0.1-0.3-0.2-0.4h-0.6v-1.4h-1.3v1.4h-0.9
		v-2.1h3.2v1.8l0.6-0.2v-1.6h3.3v2.1h-1v-1.4h-1.4v1.4h-0.6c0.1,0.1,0.1,0.3,0.2,0.4H96v0.9h-2.3v0.5h2v2.3h-1.8v0.4h1.7v0.8h-1.7
		v0.5c0,0.3,0,0.3,0.3,0.3L94.8,166.4L94.8,166.4z M91.9,157.7h-3.5v-0.9h3.5V157.7z M90,160.2c-0.1-0.3-0.2-0.7-0.3-1l0.7-0.2
		c0.2,0.3,0.3,0.7,0.4,1L90,160.2z M89.8,162.9c0,0.2,0,0.4,0,0.6h0.8v-0.6H89.8z M89.8,161.5v0.5h0.8v-0.5H89.8z M92.5,161.5h-0.8
		v0.5h0.8V161.5z M92.5,162.9h-0.8v0.6h0.8V162.9z M95.9,157.7h-3.6v-0.9h3.6V157.7z M93.8,160.1c-0.1-0.3-0.2-0.7-0.4-1l0.7-0.2
		c0.2,0.3,0.3,0.7,0.4,1L93.8,160.1z M93.7,162.9v0.6h0.8v-0.6H93.7z"/>
	<path class="st0" d="M107.8,158.6h-1.4v7.1c0,0.9-0.2,1.3-0.8,1.5c-0.6,0.2-1.5,0.3-2.7,0.3c-0.1-0.4-0.4-1.1-0.6-1.5
		c0.9,0,1.9,0,2.2,0c0.3,0,0.4-0.1,0.4-0.3v-7.1H97v-1.4h10.8V158.6z M99.5,164.6v0.9h-1.4V160h5.1v4.6H99.5z M99.5,161.3v1.9h2.3
		v-1.9H99.5z"/>
	<path class="st0" d="M110.8,160.3c-0.4,0.7-0.8,1.2-1.3,1.7c-0.2-0.3-0.6-0.8-0.9-1c0.7-0.5,1.4-1.3,1.9-2.2H109v-1.2h1.8v-1.2h1.3
		v1.2h1.6v1.2h-1.6v0.3c0.5,0.2,1.4,0.7,1.6,0.9l-0.7,1.2c-0.2-0.2-0.6-0.5-0.9-0.8v2.1h-1.3V160.3z M116.9,162.3V160h-1.4
		c-0.1,0.7-0.3,1.4-0.8,2l0.7,0.1c-0.2,0.2-0.3,0.4-0.5,0.6h3.6v4.8H117v-0.4h-5v0.4h-1.4v-4.8h2.8c0.1-0.3,0.3-0.7,0.3-1l0,0
		c-0.2-0.1-0.4-0.3-0.5-0.3c0.9-0.8,1-1.8,1-2.7V157c1.5-0.1,3.2-0.4,4.2-0.7l0.9,1c-1.1,0.3-2.5,0.5-3.8,0.7v0.7h4.2v1.1h-1.6v2.3
		h-1.2V162.3z M117,163.8h-5v0.6h5V163.8z M117,166.1v-0.6h-5v0.6H117z"/>
	<path class="st0" d="M126.5,163.3c-0.1-0.3-0.3-0.7-0.5-1.2v5.4h-1.2v-4.1c-0.3,0.7-0.5,1.4-0.8,1.9c-0.1-0.4-0.4-1-0.6-1.4
		c0.6-0.9,1.1-2.4,1.5-3.8v-0.4h-1.1v-1.3h1.1v-2.2h1.2v2.2h1.2v1.3h-1.2v0.6c0.3,0.4,0.9,1.4,1.2,1.8v-2.4h2.4v4.2h-1.5v0.5h-0.9
		v-2.1L126.5,163.3z M126.6,166h8.1v1.3h-8.1V166z M128.7,159.7c0.2-0.5,0.5-1.2,0.6-1.9h-2.2v-1.2h7.2v1.2h-3.7
		c-0.1,0.3-0.2,0.6-0.3,0.8h1.2c0,0,0,0.4,0,0.5v2l0.8-0.6c0.2,0.3,0.5,0.6,0.7,0.8c0.1-0.4,0.2-0.8,0.3-1.2h-1.5v-1h1.8h0.2
		l0.7,0.2c-0.1,1.3-0.4,2.4-0.8,3.2c0.4,0.6,0.7,1.1,0.9,1.6l-0.9,0.7c-0.1-0.3-0.3-0.7-0.5-1.1c-0.4,0.6-0.8,1.1-1.3,1.5
		c-0.1-0.2-0.4-0.5-0.6-0.7c0,0.3-0.1,0.5-0.2,0.6c-0.2,0.3-0.4,0.4-0.8,0.5c-0.3,0-0.8,0.1-1.2,0c0-0.3-0.1-0.8-0.3-1.1
		c0.4,0,0.7,0,0.9,0s0.2,0,0.3-0.2c0.2-0.3,0.2-1.4,0.2-4.8h-1.5V159.7z M128.1,160.8v2.2h0.6v-2.2H128.1z M131.6,161.2
		c0,1.4,0,2.3-0.1,2.9c0.5-0.4,0.8-0.9,1.1-1.5C132.3,162.1,131.9,161.7,131.6,161.2z"/>
	<path class="st0" d="M137.9,160.6c0,2-0.2,5-1.2,7c-0.3-0.2-0.9-0.5-1.3-0.6c1-1.8,1-4.5,1-6.3v-3.2h4.5c-0.1-0.3-0.2-0.6-0.3-0.8
		l1.5-0.3c0.2,0.3,0.3,0.7,0.5,1.1h4v1.3H138L137.9,160.6L137.9,160.6z M145.8,163.7c-0.5,0.9-1.2,1.7-2.1,2.2
		c0.9,0.2,1.9,0.3,3,0.4c-0.3,0.3-0.6,0.9-0.8,1.2c-1.5-0.1-2.8-0.4-3.9-0.9c-1.1,0.4-2.4,0.7-3.8,0.8c-0.1-0.3-0.4-0.9-0.6-1.2
		c1-0.1,2-0.2,2.8-0.4c-0.6-0.4-1-0.8-1.5-1.3l0.5-0.2h-1.3v-1.1h6.5h0.3L145.8,163.7z M139.8,162.8v-1.9h-1.6v-1.1h1.6V159h1.3v0.8
		h2.2V159h1.4v0.8h1.7v1.1h-1.7v1.9H139.8z M140.5,164.4c0.4,0.4,1,0.7,1.6,1c0.6-0.3,1.1-0.6,1.6-1H140.5z M141.1,160.9v0.8h2.2
		v-0.8H141.1z"/>
	<path class="st0" d="M152,157.4c-0.3,1.1-0.7,2.4-1.1,3.3c0.8,0.9,0.9,1.8,0.9,2.5c0,0.8-0.2,1.3-0.6,1.6c-0.2,0.1-0.4,0.2-0.7,0.3
		c-0.2,0-0.5,0-0.8,0c0-0.4-0.1-0.9-0.3-1.3c0.2,0,0.4,0,0.5,0s0.3,0,0.4-0.1c0.1-0.1,0.2-0.3,0.2-0.7c0-0.6-0.2-1.3-0.9-2.1
		c0.3-0.8,0.5-1.9,0.7-2.7h-1.1v9.4H148v-10.7h2.8l0.2-0.1L152,157.4z M154.7,159.6c0,0.5,0,1-0.1,1.4h3.3c0,0,0,0.4,0,0.6
		c-0.1,3.5-0.2,4.9-0.6,5.3c-0.3,0.4-0.6,0.5-0.9,0.5c-0.3,0.1-0.9,0.1-1.5,0c0-0.4-0.2-1-0.4-1.4c0.5,0.1,1,0.1,1.3,0.1
		c0.2,0,0.3,0,0.4-0.2c0.2-0.2,0.3-1.2,0.4-3.7h-2c-0.3,2.3-1,4-3.1,5.2c-0.2-0.3-0.6-0.8-0.9-1.1c2.6-1.4,2.8-3.7,2.8-6.8h-1.5
		v-1.3h2.9c-0.1-0.5-0.3-1.1-0.5-1.7l1.3-0.3c0.2,0.5,0.5,1.3,0.6,1.7l-1,0.3h3.5v1.3L154.7,159.6L154.7,159.6z"/>
	<path class="st0" d="M162.6,157c-0.7,0.8-1.8,1.7-2.7,2.2c-0.1-0.2-0.3-0.7-0.5-1c0.8-0.4,1.7-1.1,2.1-1.7L162.6,157z M160.7,161
		c-0.3,0.2-0.6,0.4-0.8,0.5c-0.1-0.3-0.3-0.9-0.4-1.2c0.8-0.4,1.7-1.1,2.2-1.7l1,0.4v-0.6h1.7v-0.6h-0.6c-0.1,0.1-0.2,0.3-0.3,0.4
		c-0.2-0.1-0.7-0.3-0.9-0.4c0.3-0.4,0.6-0.9,0.8-1.5l1,0.2c0,0.1-0.1,0.2-0.1,0.3h2.6v0.9h-1.3v0.6h1.5v0.9h-1.5v0.5h1.4v0.8h-1.4
		v0.6l1.5-0.1c0,0.3,0,0.7,0,0.9c-3.4,0.3-3.9,0.3-4.2,0.4c0-0.2-0.2-0.7-0.3-0.9c0.2,0,0.4-0.2,0.4-0.6v-1.2h0.9v1.6h0.6v-1.9h-1.7
		v-0.1c-0.2,0.3-0.5,0.5-0.8,0.8v2.3h-1.2L160.7,161L160.7,161z M170.7,165.1h-3c0.9,0.4,2.2,1,2.9,1.4l-0.8,1
		c-0.7-0.5-2.1-1.2-3.1-1.6l0.6-0.8h-1.4v2.4h-1.5v-2.4h-2.1l0.9,0.4c-0.7,0.8-1.7,1.5-2.7,2c-0.2-0.3-0.6-0.8-0.9-1.1
		c0.8-0.3,1.6-0.8,2.2-1.3h-2.4v-1h11.1v1H170.7z M161.1,162.7h8v1h-8V162.7z M168.4,162.4h-1.1v-5.5h3.1v3.8c0,0.4-0.1,0.7-0.3,0.9
		c-0.3,0.2-0.6,0.2-1.1,0.2c0-0.3-0.2-0.7-0.3-1c0.3,0,0.5,0,0.6,0s0.1,0,0.1-0.1V158h-0.9v4.4H168.4z"/>
	<path class="st0" d="M173.5,161.9c-0.4-0.4-1.3-0.9-2-1.2l0.8-1.1c0.7,0.3,1.6,0.7,2.1,1.1L173.5,161.9z M174.8,163.6
		c-0.5,1.3-1.2,2.7-1.8,3.8l-1.3-0.8c0.6-0.9,1.3-2.4,1.9-3.8L174.8,163.6z M174.2,158.7c-0.4-0.4-1.3-0.9-2.1-1.3l0.8-1.1
		c0.7,0.3,1.6,0.8,2.1,1.2L174.2,158.7z M182.8,166v1.2h-8.5V166h1v-3.6h6.8v3.6H182.8z M181.6,161.7h-5.9v-4.9h5.9V161.7z
		 M176.5,166h0.7v-2.4h-0.7V166z M180.2,157.9h-3.3v2c0.7-0.4,1.1-1.2,1.2-1.9l0.9,0.1c0,0.3-0.1,0.5-0.2,0.7
		c0.4,0.4,0.9,0.8,1.2,1.1l-0.6,0.6c-0.2-0.3-0.6-0.6-0.9-0.9c-0.3,0.4-0.6,0.7-1,1c-0.1-0.2-0.4-0.5-0.6-0.6v0.7h3.3L180.2,157.9
		L180.2,157.9z M178.3,163.6v2.4h0.7v-2.4H178.3z M180,163.6v2.4h0.7v-2.4H180z"/>
	<path class="st0" d="M187.3,161.4c0.5,0.5,1.6,1.7,1.8,2.1l-0.8,1.2c-0.2-0.4-0.6-1-1-1.6v4.4h-1.4v-4.3c-0.5,1.1-1,2.2-1.7,2.9
		c-0.1-0.4-0.5-1-0.7-1.3c0.8-0.9,1.6-2.2,2.1-3.6h-1.8v-1.3h2.1v-1.6c-0.6,0.1-1.2,0.2-1.7,0.3c-0.1-0.3-0.2-0.8-0.4-1.1
		c1.6-0.2,3.3-0.6,4.4-1l0.9,1.1c-0.5,0.2-1.2,0.4-1.8,0.5v1.8h1.7v1.3h-1.7L187.3,161.4L187.3,161.4z M194.1,157.5v9.4h-1.5V166
		h-1.9v0.9h-1.4v-9.5h4.8V157.5z M192.6,164.7v-5.8h-1.9v5.8H192.6z"/>
	<path class="st0" d="M200,157.4c-0.3,1.1-0.7,2.4-1.1,3.3c0.8,0.9,0.9,1.8,0.9,2.5c0,0.8-0.2,1.3-0.6,1.6c-0.2,0.1-0.4,0.2-0.7,0.3
		c-0.2,0-0.5,0-0.8,0c0-0.4-0.1-0.9-0.3-1.3c0.2,0,0.4,0,0.5,0s0.3,0,0.4-0.1c0.1-0.1,0.2-0.3,0.2-0.7c0-0.6-0.2-1.3-0.9-2.1
		c0.3-0.8,0.5-1.9,0.7-2.7h-1.1v9.4H196v-10.7h2.8l0.2-0.1L200,157.4z M202.7,159.6c0,0.5,0,1-0.1,1.4h3.3c0,0,0,0.4,0,0.6
		c-0.1,3.5-0.2,4.9-0.6,5.3c-0.3,0.4-0.6,0.5-0.9,0.5c-0.3,0.1-0.9,0.1-1.5,0c0-0.4-0.2-1-0.4-1.4c0.5,0.1,1,0.1,1.3,0.1
		c0.2,0,0.3,0,0.4-0.2c0.2-0.2,0.3-1.2,0.4-3.7h-2c-0.3,2.3-1,4-3.1,5.2c-0.2-0.3-0.6-0.8-0.9-1.1c2.6-1.4,2.8-3.7,2.8-6.8h-1.5
		v-1.3h2.9c-0.1-0.5-0.3-1.1-0.5-1.7l1.3-0.3c0.2,0.5,0.5,1.3,0.6,1.7l-1,0.3h3.5v1.3L202.7,159.6L202.7,159.6z"/>
	<path class="st0" d="M209,165.3v1h-1.1v-9.1h3v8.1H209z M209,158.5v2.2h0.8v-2.2H209z M209.8,164.1v-2.2H209v2.2H209.8z
		 M217.5,166.4c0.2,0,0.3-0.1,0.3-0.6c0.2,0.2,0.7,0.3,1,0.4c-0.1,0.9-0.4,1.2-1.2,1.2h-1c-1,0-1.3-0.3-1.3-1.3v-1.8h-1.6v0.5h1.3
		v0.8h-1.3v0.7l1.3-0.2c0,0.3,0,0.8,0.1,1c-1.9,0.3-2.3,0.4-2.5,0.6c0-0.3-0.2-0.9-0.3-1.2c0.2-0.1,0.4-0.1,0.4-0.5v-1.7h-0.2
		c-0.1,1.1-0.4,2.3-1,3.2c-0.2-0.2-0.8-0.5-1.1-0.6c0.9-1.3,1-3.2,1-4.5v-1.7h2.9c-0.1-0.1-0.1-0.3-0.2-0.4h-0.6v-1.4h-1.3v1.4h-0.9
		v-2.1h3.2v1.8l0.6-0.2v-1.6h3.3v2.1h-1v-1.4H216v1.4h-0.6c0.1,0.1,0.1,0.3,0.2,0.4h3.1v0.9h-2.3v0.5h2v2.3h-1.8v0.4h1.7v0.8h-1.7
		v0.5c0,0.3,0,0.3,0.3,0.3L217.5,166.4L217.5,166.4z M214.6,157.7h-3.5v-0.9h3.5V157.7z M212.7,160.2c-0.1-0.3-0.2-0.7-0.3-1
		l0.7-0.2c0.2,0.3,0.3,0.7,0.4,1L212.7,160.2z M212.5,162.9c0,0.2,0,0.4,0,0.6h0.8v-0.6H212.5z M212.6,161.5v0.5h0.8v-0.5H212.6z
		 M215.3,161.5h-0.8v0.5h0.8V161.5z M215.3,162.9h-0.8v0.6h0.8V162.9z M218.6,157.7H215v-0.9h3.6V157.7z M216.6,160.1
		c-0.1-0.3-0.2-0.7-0.4-1l0.7-0.2c0.2,0.3,0.3,0.7,0.4,1L216.6,160.1z M216.4,162.9v0.6h0.8v-0.6H216.4z"/>
	<path class="st0" d="M223.7,163.5c0.7-0.1,1.5-0.1,2.2-0.2v1.3c-0.7,0.1-1.5,0.1-2.2,0.2v1.4c0,0.6-0.1,1-0.6,1.2
		c-0.4,0.2-1,0.2-1.8,0.2c-0.1-0.4-0.3-0.9-0.4-1.3c0.5,0,1.1,0,1.2,0c0.2,0,0.2,0,0.2-0.2v-1.2c-0.9,0.1-1.8,0.2-2.6,0.2l-0.1-1.3
		c0.7,0,1.7-0.1,2.7-0.2V163c0.4-0.3,0.8-0.7,1.2-1.2h-3.3v-1.2h0.5c-0.1-0.5-0.5-1.3-0.8-1.9l1.1-0.4c0.3,0.6,0.7,1.4,0.9,1.9
		l-1,0.4h3.5l0.3-0.1l0.9,0.7C225.2,162,224.4,162.8,223.7,163.5L223.7,163.5z M226.2,157.5c-1.7,0.4-4.1,0.7-6.1,0.7
		c0-0.3-0.2-0.8-0.4-1.2c2-0.1,4.2-0.4,5.6-0.7L226.2,157.5z M222.5,160.5c-0.1-0.5-0.4-1.4-0.6-2l1.2-0.4c0.3,0.6,0.5,1.4,0.6,1.9
		L222.5,160.5z M223.8,160.2c0.3-0.6,0.7-1.6,0.9-2.4l1.3,0.5c-0.4,0.8-0.8,1.7-1.2,2.3L223.8,160.2z M229.1,166
		c0.3,0,0.3-0.5,0.4-2.2c0.3,0.3,0.9,0.5,1.3,0.6c-0.1,2.1-0.4,2.9-1.5,2.9H228c-1.2,0-1.5-0.5-1.5-2v-8.6h1.4v8.6
		c0,0.6,0,0.7,0.3,0.7H229.1z"/>
	<path class="st0" d="M236,159.2c0-0.7,0.5-1.1,1.1-1.1s1.1,0.5,1.1,1.1s-0.5,1.1-1.1,1.1S236,159.9,236,159.2z M236,164.9
		c0-0.7,0.5-1.1,1.1-1.1s1.1,0.5,1.1,1.1s-0.5,1.1-1.1,1.1S236,165.6,236,164.9z"/>
	<path class="st0" d="M248.9,162.6c-0.7,1.1-1.5,2.1-2.2,2.9l4.9-0.3c-0.4-0.6-0.9-1.2-1.3-1.7l1.3-0.6c1,1.2,2.1,2.8,2.7,3.9
		l-1.4,0.7c-0.1-0.3-0.3-0.6-0.5-1c-6,0.5-6.9,0.5-7.5,0.7c-0.1-0.3-0.3-1-0.5-1.4c0.3-0.1,0.6-0.3,0.9-0.7c0.3-0.3,1.1-1.4,1.8-2.6
		h-3.4v-1.4h4.7v-1.7h-3.8V158h3.8v-1.7h1.5v1.7h3.9v1.4h-3.9v1.7h4.7v1.4h-5.7V162.6z"/>
	<path class="st0" d="M259.7,157.3c-0.3,1-0.7,2.2-1,3.2c0.7,0.9,0.8,1.8,0.8,2.5c0,0.8-0.2,1.3-0.5,1.6c-0.2,0.1-0.4,0.2-0.7,0.3
		c-0.2,0-0.5,0-0.8,0c0-0.4-0.1-0.9-0.3-1.2c0.2,0,0.4,0,0.5,0s0.2,0,0.3-0.1c0.1-0.1,0.2-0.4,0.2-0.7c0-0.6-0.1-1.3-0.8-2.2
		c0.2-0.7,0.4-1.7,0.6-2.5h-0.9v9.4h-1.2v-10.7h2.6h0.2L259.7,157.3z M261.8,164.2c-0.4,1-1.1,2-1.7,2.7c-0.2-0.2-0.8-0.6-1.1-0.8
		c0.6-0.6,1.2-1.4,1.5-2.2L261.8,164.2z M263.9,163.5v2.6c0,0.6-0.1,1-0.6,1.2c-0.4,0.2-1,0.2-1.8,0.2c-0.1-0.4-0.3-0.9-0.5-1.3
		c0.5,0,1.1,0,1.2,0c0.2,0,0.2,0,0.2-0.2v-2.6h-2.9v-1.3h2.9v-1h-1.9v-0.8c-0.2,0.1-0.3,0.2-0.5,0.3c-0.2-0.3-0.6-0.8-0.9-1.1
		c1.5-0.7,2.9-2,3.7-3.4l1.2,0.5c-0.1,0.2-0.2,0.3-0.3,0.5c1.1,1.2,2.2,1.9,3.2,2.3c-0.3,0.3-0.8,0.8-0.9,1.2
		c-0.2-0.1-0.4-0.2-0.6-0.4v0.9h-1.5v1h2.7v1.3h-2.7V163.5z M265,160c-0.6-0.5-1.3-1-2-1.8c-0.6,0.7-1.2,1.3-1.9,1.8H265z
		 M265.3,163.8c0.6,0.7,1.3,1.7,1.6,2.3l-1.1,0.6c-0.3-0.7-1-1.7-1.5-2.4L265.3,163.8z"/>
	<path class="st0" d="M277.1,156.7c0.2,1.7,0.9,3.3,1.8,4.2c-0.3,0.2-0.7,0.6-1,0.9c-0.1,3.4-0.3,4.7-0.6,5.1
		c-0.2,0.3-0.5,0.4-0.9,0.5c-0.3,0.1-0.8,0.1-1.3,0c0-0.4-0.1-0.9-0.3-1.3c0.4,0,0.8,0,1,0s0.3,0,0.4-0.2c0.2-0.3,0.3-1.2,0.4-3.5
		h-1.3c-0.3,2.4-1,4-2.6,5c-0.2-0.3-0.6-0.8-0.9-1c1.4-0.8,2-2.1,2.1-4h-1v-0.9l-0.1,0.1c-0.1-0.2-0.4-0.5-0.7-0.7v0.6h-1.5v0.8
		l0.5-0.3c0.3,0.3,1.1,1.6,1.3,1.9l-0.9,1c-0.2-0.5-0.6-1.3-0.9-1.9v4.4h-1.3v-4.3c-0.3,1.2-0.7,2.4-1.3,3.1
		c-0.1-0.5-0.4-1.2-0.6-1.6c0.5-0.6,1-1.7,1.2-2.6l0.8,0.3v-0.7h-1.7v-1.3h1.7v-4h1.3v4h1.5l0,0c0.6-0.8,1-2,1.2-3.3l1.3,0.2
		c-0.3,1.5-0.8,2.9-1.5,3.9h4.1c-0.6-0.9-1-2.1-1.2-3.2h-1.2v-1.3h2.2V156.7z M268.1,160.1c0-0.7-0.3-1.9-0.5-2.8l1-0.3
		c0.3,0.9,0.6,2,0.6,2.8L268.1,160.1z M272.6,157.3c-0.3,0.9-0.7,2.1-1,2.8l-0.9-0.3c0.3-0.8,0.6-2,0.7-2.8L272.6,157.3z"/>
	<path class="st0" d="M284,162v4.3c0,0.5-0.1,0.8-0.4,1s-0.8,0.2-1.4,0.2c0-0.3-0.2-0.8-0.3-1c0.3,0,0.7,0,0.8,0
		c0.1,0,0.2,0,0.2-0.2v-1.1c-0.4,0.3-0.8,0.5-1.2,0.7l-0.3-0.7c-0.1,0.8-0.3,1.7-0.7,2.3c-0.2-0.2-0.7-0.6-1-0.7
		c0.6-0.9,0.6-2.1,0.6-3.1V162h-0.6v-1.9h0.5v-3.4h3.9v3.4h0.5v1.9H284z M283.4,161.1h-2.7v0.5h2.7V161.1z M281.2,160.2h0.5v-1.9
		h1.2v-0.5h-1.6v2.4H281.2z M281.4,163.9c0,0.3,0,0.7,0,1.1c0.4-0.2,0.9-0.4,1.4-0.7v-0.5l-0.5,0.5c-0.2-0.2-0.6-0.5-0.9-0.8V163.9z
		 M281.4,163.2l0.4-0.4c0.3,0.2,0.7,0.5,1,0.7v-1h-1.4V163.2z M282.8,160.2V159h-0.4v1.1L282.8,160.2L282.8,160.2z M290.7,166.3v1
		h-6.3v-1h1.4c-0.1-0.3-0.2-0.6-0.3-0.9l0.8-0.2H285v-2.3h5.2v2.3h-1.4l0.9,0.3c-0.2,0.3-0.4,0.6-0.5,0.9h1.5V166.3z M290.6,162.5
		h-6.1v-1h6.1V162.5z M290.4,161.1h-5.7v-3.8h1.4v-0.9h1.1v0.9h0.5v-0.9h1.1v0.9h1.5v3.8H290.4z M285.8,158.7h0.6v-0.6h-0.6V158.7z
		 M285.8,160.1h0.6v-0.6h-0.6V160.1z M286.2,164.4h2.6v-0.6h-2.6V164.4z M286.6,165.2c0.1,0.4,0.3,0.8,0.4,1.1h1
		c0.1-0.4,0.3-0.8,0.4-1.1H286.6z M287.8,158.7v-0.6h-0.6v0.6H287.8z M287.2,159.6v0.6h0.6v-0.6H287.2z M289.3,158.2h-0.6v0.6h0.6
		V158.2z M289.3,159.6h-0.6v0.6h0.6V159.6z"/>
	<path class="st0" d="M298.7,162c0,0.8-0.7,1.5-1.5,1.5s-1.5-0.7-1.5-1.5s0.7-1.5,1.5-1.5S298.7,161.1,298.7,162z"/>
	<path class="st0" d="M314.8,158.7c-0.7,4.5-2.7,7.4-5.7,8.9c-0.2-0.4-0.6-0.9-0.9-1.2c1.3-0.6,2.4-1.5,3.3-2.8
		c-0.4-0.5-1-1-1.6-1.5c-0.2,0.3-0.4,0.6-0.7,0.9c-0.2-0.2-0.8-0.6-1.1-0.8v3.9h-2.5v0.9h-1.2v-3.3c-0.1,0.3-0.3,0.5-0.5,0.7
		c-0.1-0.3-0.5-1-0.7-1.3c0.8-1.2,1.2-3,1.5-5h-1.2V157h5.1v1.2H306c-0.1,0.8-0.3,1.6-0.5,2.4h2.5v1.4c1.2-1.3,2-3.4,2.5-5.5
		l1.4,0.3c-0.1,0.6-0.3,1.1-0.5,1.6h2.1l0.2-0.1L314.8,158.7z M306.9,161.8h-1.3v3.1h1.3V161.8z M311.1,159.8
		c-0.1,0.4-0.3,0.8-0.5,1.2c0.6,0.4,1.3,0.9,1.7,1.4c0.4-0.8,0.7-1.6,0.9-2.5L311.1,159.8L311.1,159.8z"/>
	<path class="st0" d="M326.5,166.3v0.9h-10.9v-0.9h1.4c-0.2-0.2-0.5-0.5-0.6-0.7c0.8-0.3,1.4-0.7,1.7-1.3l1,0.2
		c-0.1,0.1-0.1,0.3-0.2,0.4c0.5,0.2,0.9,0.5,1.2,0.7l-0.5,0.7h0.7v-2h-4v-0.9h9.5v0.9h-4.2v2h0.7c-0.1-0.2-0.4-0.5-0.6-0.7
		c0.7-0.3,1.2-0.7,1.4-1.3l1,0.1c0,0.1-0.1,0.3-0.2,0.4c0.6,0.2,1.2,0.5,1.5,0.7l-0.4,0.7h1.5V166.3z M317.3,160.2h-1.4v-2.1h4.5
		v-0.5h-3.9v-0.9h9.4v0.9h-4v0.5h4.7v2.1H325v-1.3h-0.6l0.4,0.5c-0.5,0.2-1.2,0.4-1.8,0.5c0.8,0.1,1.6,0.3,2.1,0.5l-0.2,0.6h1.1v1.9
		h-3V161h1.6c-0.7-0.2-1.7-0.5-2.5-0.6l0.2-0.6h0.3l-0.3-0.4c0.5-0.1,1.2-0.4,1.8-0.6h-2.2v1.8h-1.4v-1.8H318
		c0.6,0.1,1.4,0.3,1.9,0.5l-0.3,0.6l0.4-0.1v0.6c-0.9,0.2-1.7,0.4-2.4,0.5h1.5v1.9h-2.9v-1.9h1.2l-0.3-0.7c0.6-0.1,1.4-0.2,2.2-0.3
		c-0.5-0.2-1.3-0.4-1.9-0.5l0.3-0.6h-0.6v1.4H317.3z M319.6,166.3c-0.3-0.2-0.8-0.5-1.2-0.7c-0.3,0.3-0.7,0.5-1.1,0.7H319.6z
		 M318.2,161.7h-0.9v0.6h0.9V161.7z M319.7,161.1h2.9v1.9h-2.9V161.1z M320.6,162.4h0.9v-0.6h-0.9V162.4z M325.1,166.3
		c-0.4-0.2-0.9-0.5-1.4-0.7c-0.3,0.3-0.6,0.5-1,0.7H325.1z M324.9,161.8H324v0.6h0.9V161.8z"/>
	<path class="st0" d="M338.7,157.1v1.2h-2.2c0.3,0.3,0.6,0.6,0.8,0.8l-0.8,0.7h1.6v1.2h-4.3v0.7h3.5v1.1h-8.6v-1.1h3.5V161H328v-1.2
		h3c-0.3-0.3-0.7-0.8-1.1-1.1l0.4-0.4h-0.9c-0.4,0.5-0.7,0.9-1.1,1.3c-0.2-0.3-0.7-0.7-0.9-1c0.7-0.6,1.4-1.5,1.8-2.4l1.3,0.4
		c-0.1,0.2-0.2,0.3-0.2,0.5h2.7v1.2h-1.7c0.3,0.3,0.6,0.5,0.8,0.7l-0.8,0.8h1.1v-0.6h0.9c-0.2-0.1-0.3-0.3-0.5-0.3
		c0.6-0.6,1.2-1.6,1.5-2.7l1.3,0.3c-0.1,0.2-0.1,0.4-0.2,0.6H338.7z M336.2,163.6h2.3v1.2h-2.3v1.5c0,0.7-0.2,1-0.7,1.1
		c-0.5,0.2-1.2,0.2-2.2,0.2c0-0.4-0.2-0.8-0.3-1.2c0.6,0,1.3,0,1.5,0s0.3,0,0.3-0.2v-1.4H331c0.6,0.5,1.2,1.1,1.6,1.5l-1.1,0.8
		c-0.4-0.5-1.2-1.2-1.8-1.8l0.7-0.5h-2.6v-1.2h6.9V163h1.5V163.6z M336.2,159.8c-0.3-0.3-0.7-0.8-1-1.1l0.5-0.4h-0.9
		c-0.3,0.5-0.6,1-0.9,1.4v0.1H336.2z"/>
	<path class="st0" d="M350,160.5c-0.5,1.6-1.2,3-2.1,4.1c0.3,0.9,0.7,1.4,1.1,1.4c0.3,0,0.4-0.6,0.5-2.1c0.3,0.3,0.8,0.6,1.2,0.8
		c-0.2,2.2-0.7,2.7-1.8,2.7c-0.8,0-1.5-0.6-2-1.6c-0.6,0.6-1.3,1.2-2,1.6c-0.2-0.3-0.7-0.9-1-1.2c0.9-0.5,1.8-1.2,2.4-1.9
		c-0.4-1.4-0.7-3-0.8-4.8H342v1.3h3c0,0,0,0.4,0,0.5c0,2.5-0.1,3.6-0.4,3.9c-0.2,0.3-0.5,0.4-0.8,0.5c-0.3,0-0.8,0-1.4,0
		c0-0.4-0.2-1-0.4-1.3c0.4,0,0.8,0,1,0s0.3,0,0.4-0.1c0.1-0.2,0.2-0.7,0.2-2.3H342c0,1.8-0.3,4.1-1.3,5.6c-0.3-0.3-0.9-0.8-1.2-1
		c0.9-1.4,1-3.5,1-5.1V158h4.9c0-0.6,0-1.2,0-1.8h1.5c0,0.6,0,1.2,0,1.8h1.8c-0.4-0.4-1-0.7-1.5-1l0.9-0.9c0.7,0.3,1.5,0.9,2,1.3
		l-0.6,0.6h1.2v1.4H347c0.1,1.2,0.3,2.3,0.5,3.3c0.5-0.8,0.9-1.7,1.2-2.7L350,160.5z"/>
	<path class="st0" d="M359.4,156.5c0.6,1.8,1.8,3.5,3.4,4.3c-0.3,0.3-0.8,0.9-1,1.3c-0.3-0.2-0.6-0.4-0.9-0.7
		c-0.1,3.5-0.3,4.9-0.7,5.4c-0.3,0.4-0.6,0.5-1.1,0.6c-0.4,0.1-1.1,0.1-1.8,0c0-0.4-0.2-1-0.5-1.4c0.7,0,1.3,0.1,1.6,0.1
		c0.2,0,0.4,0,0.5-0.2c0.2-0.3,0.4-1.3,0.5-3.8H357c-0.3,2.3-1.1,4.4-4.2,5.5c-0.2-0.4-0.6-1-0.9-1.3c2.7-0.9,3.3-2.5,3.6-4.2h-2
		v-0.8c-0.3,0.3-0.6,0.6-0.9,0.9c-0.3-0.3-0.9-0.8-1.2-1.1c1.4-1,2.4-2.6,3-4.4l1.5,0.4c-0.4,1.3-1.1,2.6-1.9,3.6h6.2
		c-0.8-0.9-1.4-1.9-1.8-2.9h-1.9v-1.3L359.4,156.5L359.4,156.5z"/>
	<path class="st0" d="M13.3,182.4l1-1.2c0.6,0.6,1.5,1,2.3,1c0.9,0,1.4-0.4,1.4-1c0-0.7-0.5-0.9-1.3-1.2l-1.2-0.5
		c-0.9-0.4-1.8-1.1-1.8-2.4c0-1.5,1.3-2.6,3.1-2.6c1,0,2.1,0.4,2.8,1.1l-0.9,1.1c-0.6-0.5-1.2-0.7-1.9-0.7c-0.8,0-1.3,0.3-1.3,0.9
		c0,0.6,0.6,0.9,1.4,1.2l1.2,0.5c1.1,0.4,1.8,1.1,1.8,2.4c0,1.5-1.2,2.7-3.3,2.7C15.3,183.7,14.1,183.2,13.3,182.4z"/>
	<path class="st0" d="M21.3,179.5v-4.9h1.8v5c0,1.8,0.6,2.5,1.7,2.5s1.7-0.6,1.7-2.5v-5h1.7v4.9c0,3-1.3,4.2-3.4,4.2
		C22.6,183.7,21.3,182.5,21.3,179.5z"/>
	<path class="st0" d="M30.3,174.6h1.8l2.6,4.7l0.9,1.9h0.1c-0.1-0.9-0.2-2.1-0.2-3.1v-3.5h1.7v8.9h-1.8l-2.6-4.7l-0.9-1.9h-0.1
		c0.1,1,0.2,2.1,0.2,3.1v3.6h-1.7V174.6z"/>
	<path class="st0" d="M38.9,179.1c0-2.9,1.9-4.6,4.1-4.6c1.1,0,2,0.5,2.6,1.1l-0.9,1.1c-0.5-0.4-1-0.7-1.6-0.7
		c-1.3,0-2.4,1.2-2.4,3.1c0,1.9,0.9,3.1,2.3,3.1c0.8,0,1.4-0.4,1.8-0.9l0.9,1.1c-0.7,0.9-1.7,1.3-2.8,1.3
		C40.7,183.7,38.9,182.1,38.9,179.1z"/>
	<path class="st0" d="M47.1,179.5v-4.9h1.8v5c0,1.8,0.6,2.5,1.7,2.5c1.1,0,1.7-0.6,1.7-2.5v-5H54v4.9c0,3-1.3,4.2-3.4,4.2
		C48.4,183.7,47.1,182.5,47.1,179.5z"/>
	<path class="st0" d="M57.9,176.1h-2.5v-1.5h6.8v1.5h-2.5v7.4h-1.8V176.1z"/>
	<path class="st0" d="M66.3,179.5v-4.9h1.8v5c0,1.8,0.6,2.5,1.7,2.5s1.7-0.6,1.7-2.5v-5h1.7v4.9c0,3-1.3,4.2-3.4,4.2
		C67.6,183.7,66.3,182.5,66.3,179.5z"/>
	<path class="st0" d="M74.2,174.6h1.9l1.2,4.3c0.3,1,0.5,1.9,0.7,2.9h0c0.3-1,0.5-1.9,0.8-2.9l1.2-4.3h1.8l-2.7,8.9H77L74.2,174.6z"
		/>
	<path class="st0" d="M86.3,182.3v1h-1.1v-9.1h3v8.1H86.3z M86.3,175.5v2.2h0.8v-2.2H86.3z M87.1,181.1v-2.2h-0.8v2.2H87.1z
		 M94.8,183.4c0.2,0,0.3-0.1,0.3-0.6c0.2,0.2,0.7,0.3,1,0.4c-0.1,0.9-0.4,1.2-1.2,1.2h-1c-1,0-1.3-0.3-1.3-1.3v-1.8H91v0.5h1.3v0.8
		H91v0.7l1.3-0.2c0,0.3,0,0.8,0.1,1c-1.9,0.3-2.3,0.4-2.5,0.6c0-0.3-0.2-0.9-0.3-1.2c0.2-0.1,0.4-0.1,0.4-0.5v-1.7h-0.2
		c-0.1,1.1-0.4,2.3-1,3.2c-0.2-0.2-0.8-0.5-1.1-0.6c0.9-1.3,1-3.2,1-4.5v-1.7h2.9c-0.1-0.1-0.1-0.3-0.2-0.4h-0.6v-1.4h-1.3v1.4h-0.9
		v-2.1h3.2v1.8l0.6-0.2v-1.6h3.3v2.1h-1v-1.4h-1.4v1.4h-0.6c0.1,0.1,0.1,0.3,0.2,0.4H96v0.9h-2.3v0.5h2v2.3h-1.8v0.4h1.7v0.8h-1.7
		v0.5c0,0.3,0,0.3,0.3,0.3L94.8,183.4L94.8,183.4z M91.9,174.7h-3.5v-0.9h3.5V174.7z M90,177.2c-0.1-0.3-0.2-0.7-0.3-1l0.7-0.2
		c0.2,0.3,0.3,0.7,0.4,1L90,177.2z M89.8,179.9c0,0.2,0,0.4,0,0.6h0.8v-0.6H89.8z M89.8,178.5v0.5h0.8v-0.5H89.8z M92.5,178.5h-0.8
		v0.5h0.8V178.5z M92.5,179.9h-0.8v0.6h0.8V179.9z M95.9,174.7h-3.6v-0.9h3.6V174.7z M93.8,177.1c-0.1-0.3-0.2-0.7-0.4-1l0.7-0.2
		c0.2,0.3,0.3,0.7,0.4,1L93.8,177.1z M93.7,179.9v0.6h0.8v-0.6H93.7z"/>
	<path class="st0" d="M107.8,175.6h-1.4v7.1c0,0.9-0.2,1.3-0.8,1.5c-0.6,0.2-1.5,0.3-2.7,0.3c-0.1-0.4-0.4-1.1-0.6-1.5
		c0.9,0,1.9,0,2.2,0c0.3,0,0.4-0.1,0.4-0.3v-7.1H97v-1.4h10.8V175.6z M99.5,181.6v0.9h-1.4V177h5.1v4.6H99.5z M99.5,178.3v1.9h2.3
		v-1.9H99.5z"/>
	<path class="st0" d="M110.8,177.3c-0.4,0.7-0.8,1.2-1.3,1.7c-0.2-0.3-0.6-0.8-0.9-1c0.7-0.5,1.4-1.3,1.9-2.2H109v-1.2h1.8v-1.2h1.3
		v1.2h1.6v1.2h-1.6v0.3c0.5,0.2,1.4,0.7,1.6,0.9l-0.7,1.2c-0.2-0.2-0.6-0.5-0.9-0.8v2.1h-1.3V177.3z M116.9,179.3V177h-1.4
		c-0.1,0.7-0.3,1.4-0.8,2l0.7,0.1c-0.2,0.2-0.3,0.4-0.5,0.6h3.6v4.8H117v-0.4h-5v0.4h-1.4v-4.8h2.8c0.1-0.3,0.3-0.7,0.3-1l0,0
		c-0.2-0.1-0.4-0.3-0.5-0.3c0.9-0.8,1-1.8,1-2.7V174c1.5-0.1,3.2-0.4,4.2-0.7l0.9,1c-1.1,0.3-2.5,0.5-3.8,0.7v0.7h4.2v1.1h-1.6v2.3
		h-1.2V179.3z M117,180.8h-5v0.6h5V180.8z M117,183.1v-0.6h-5v0.6H117z"/>
	<path class="st0" d="M126.5,180.3c-0.1-0.3-0.3-0.7-0.5-1.2v5.4h-1.2v-4.1c-0.3,0.7-0.5,1.4-0.8,1.9c-0.1-0.4-0.4-1-0.6-1.4
		c0.6-0.9,1.1-2.4,1.5-3.8v-0.4h-1.1v-1.3h1.1v-2.2h1.2v2.2h1.2v1.3h-1.2v0.6c0.3,0.4,0.9,1.4,1.2,1.8v-2.4h2.4v4.2h-1.5v0.5h-0.9
		v-2.1L126.5,180.3z M126.6,183h8.1v1.3h-8.1V183z M128.7,176.7c0.2-0.5,0.5-1.2,0.6-1.9h-2.2v-1.2h7.2v1.2h-3.7
		c-0.1,0.3-0.2,0.6-0.3,0.8h1.2c0,0,0,0.4,0,0.5v2l0.8-0.6c0.2,0.3,0.5,0.6,0.7,0.8c0.1-0.4,0.2-0.8,0.3-1.2h-1.5v-1h1.8h0.2
		l0.7,0.2c-0.1,1.3-0.4,2.4-0.8,3.2c0.4,0.6,0.7,1.1,0.9,1.6l-0.9,0.7c-0.1-0.3-0.3-0.7-0.5-1.1c-0.4,0.6-0.8,1.1-1.3,1.5
		c-0.1-0.2-0.4-0.5-0.6-0.7c0,0.3-0.1,0.5-0.2,0.6c-0.2,0.3-0.4,0.4-0.8,0.5c-0.3,0-0.8,0.1-1.2,0c0-0.3-0.1-0.8-0.3-1.1
		c0.4,0,0.7,0,0.9,0s0.2,0,0.3-0.2c0.2-0.3,0.2-1.4,0.2-4.8h-1.5V176.7z M128.1,177.8v2.2h0.6v-2.2H128.1z M131.6,178.2
		c0,1.4,0,2.3-0.1,2.9c0.5-0.4,0.8-0.9,1.1-1.5C132.3,179.1,131.9,178.7,131.6,178.2z"/>
	<path class="st0" d="M137.9,177.6c0,2-0.2,5-1.2,7c-0.3-0.2-0.9-0.5-1.3-0.6c1-1.8,1-4.5,1-6.3v-3.2h4.5c-0.1-0.3-0.2-0.6-0.3-0.8
		l1.5-0.3c0.2,0.3,0.3,0.7,0.5,1.1h4v1.3H138L137.9,177.6L137.9,177.6z M145.8,180.7c-0.5,0.9-1.2,1.7-2.1,2.2
		c0.9,0.2,1.9,0.3,3,0.4c-0.3,0.3-0.6,0.9-0.8,1.2c-1.5-0.1-2.8-0.4-3.9-0.9c-1.1,0.4-2.4,0.7-3.8,0.8c-0.1-0.3-0.4-0.9-0.6-1.2
		c1-0.1,2-0.2,2.8-0.4c-0.6-0.4-1-0.8-1.5-1.3l0.5-0.2h-1.3v-1.1h6.5h0.3L145.8,180.7z M139.8,179.8v-1.9h-1.6v-1.1h1.6V176h1.3v0.8
		h2.2V176h1.4v0.8h1.7v1.1h-1.7v1.9H139.8z M140.5,181.4c0.4,0.4,1,0.7,1.6,1c0.6-0.3,1.1-0.6,1.6-1H140.5z M141.1,177.9v0.8h2.2
		v-0.8H141.1z"/>
	<path class="st0" d="M152,174.4c-0.3,1.1-0.7,2.4-1.1,3.3c0.8,0.9,0.9,1.8,0.9,2.5c0,0.8-0.2,1.3-0.6,1.6c-0.2,0.1-0.4,0.2-0.7,0.3
		c-0.2,0-0.5,0-0.8,0c0-0.4-0.1-0.9-0.3-1.3c0.2,0,0.4,0,0.5,0s0.3,0,0.4-0.1c0.1-0.1,0.2-0.3,0.2-0.7c0-0.6-0.2-1.3-0.9-2.1
		c0.3-0.8,0.5-1.9,0.7-2.7h-1.1v9.4H148v-10.7h2.8l0.2-0.1L152,174.4z M154.7,176.6c0,0.5,0,1-0.1,1.4h3.3c0,0,0,0.4,0,0.6
		c-0.1,3.5-0.2,4.9-0.6,5.3c-0.3,0.4-0.6,0.5-0.9,0.5c-0.3,0.1-0.9,0.1-1.5,0c0-0.4-0.2-1-0.4-1.4c0.5,0.1,1,0.1,1.3,0.1
		c0.2,0,0.3,0,0.4-0.2c0.2-0.2,0.3-1.2,0.4-3.7h-2c-0.3,2.3-1,4-3.1,5.2c-0.2-0.3-0.6-0.8-0.9-1.1c2.6-1.4,2.8-3.7,2.8-6.8h-1.5
		v-1.3h2.9c-0.1-0.5-0.3-1.1-0.5-1.7l1.3-0.3c0.2,0.5,0.5,1.3,0.6,1.7l-1,0.3h3.5v1.3L154.7,176.6L154.7,176.6z"/>
	<path class="st0" d="M162.6,174c-0.7,0.8-1.8,1.7-2.7,2.2c-0.1-0.2-0.3-0.7-0.5-1c0.8-0.4,1.7-1.1,2.1-1.7L162.6,174z M160.7,178
		c-0.3,0.2-0.6,0.4-0.8,0.5c-0.1-0.3-0.3-0.9-0.4-1.2c0.8-0.4,1.7-1.1,2.2-1.7l1,0.4v-0.6h1.7v-0.6h-0.6c-0.1,0.1-0.2,0.3-0.3,0.4
		c-0.2-0.1-0.7-0.3-0.9-0.4c0.3-0.4,0.6-0.9,0.8-1.5l1,0.2c0,0.1-0.1,0.2-0.1,0.3h2.6v0.9h-1.3v0.6h1.5v0.9h-1.5v0.5h1.4v0.8h-1.4
		v0.6l1.5-0.1c0,0.3,0,0.7,0,0.9c-3.4,0.3-3.9,0.3-4.2,0.4c0-0.2-0.2-0.7-0.3-0.9c0.2,0,0.4-0.2,0.4-0.6v-1.2h0.9v1.6h0.6v-1.9h-1.7
		v-0.1c-0.2,0.3-0.5,0.5-0.8,0.8v2.3h-1.2L160.7,178L160.7,178z M170.7,182.1h-3c0.9,0.4,2.2,1,2.9,1.4l-0.8,1
		c-0.7-0.5-2.1-1.2-3.1-1.6l0.6-0.8h-1.4v2.4h-1.5v-2.4h-2.1l0.9,0.4c-0.7,0.8-1.7,1.5-2.7,2c-0.2-0.3-0.6-0.8-0.9-1.1
		c0.8-0.3,1.6-0.8,2.2-1.3h-2.4v-1h11.1v1H170.7z M161.1,179.7h8v1h-8V179.7z M168.4,179.4h-1.1v-5.5h3.1v3.8c0,0.4-0.1,0.7-0.3,0.9
		c-0.3,0.2-0.6,0.2-1.1,0.2c0-0.3-0.2-0.7-0.3-1c0.3,0,0.5,0,0.6,0s0.1,0,0.1-0.1V175h-0.9v4.4H168.4z"/>
	<path class="st0" d="M178.3,181.6c1.4,0.5,3.3,1.2,4.3,1.8l-0.7,1.2c-1.1-0.6-3.2-1.5-4.8-2.1l0.5-0.9h-0.4c-0.6,1.5-1.9,2.4-5.1,3
		c-0.1-0.4-0.4-1-0.7-1.3c2.4-0.3,3.5-0.9,4.1-1.7H172v-1.2h4c0-0.2,0.1-0.4,0.1-0.6h-4.4v-1.2h4.6V178h-3.6v-1.2h3.6v-0.6h-4.2
		v-1.3h2.3c-0.2-0.4-0.4-0.7-0.7-1.1l1.3-0.5c0.4,0.4,0.7,1,0.9,1.4l-0.3,0.2h2.6c0.3-0.5,0.7-1.1,0.9-1.6l1.5,0.4
		c-0.3,0.4-0.5,0.8-0.8,1.2h2.3v1.3h-4.2v0.6h3.7v1.2h-3.7v0.6h4.8v1.2h-4.9c0,0.2-0.1,0.4-0.1,0.6h4.7v1.2L178.3,181.6L178.3,181.6
		z"/>
	<path class="st0" d="M193.6,175.1v9.4h-1.5v-0.8H186v0.8h-1.5v-9.4h3c0.2-0.6,0.4-1.2,0.5-1.8l1.9,0.2c-0.2,0.5-0.5,1.1-0.7,1.5
		h4.4V175.1z M186.1,176.6v2.1h6.1v-2.1H186.1z M192.1,182.3v-2.2H186v2.2H192.1z"/>
	<path class="st0" d="M200,174.4c-0.3,1.1-0.7,2.4-1.1,3.3c0.8,0.9,0.9,1.8,0.9,2.5c0,0.8-0.2,1.3-0.6,1.6c-0.2,0.1-0.4,0.2-0.7,0.3
		c-0.2,0-0.5,0-0.8,0c0-0.4-0.1-0.9-0.3-1.3c0.2,0,0.4,0,0.5,0s0.3,0,0.4-0.1c0.1-0.1,0.2-0.3,0.2-0.7c0-0.6-0.2-1.3-0.9-2.1
		c0.3-0.8,0.5-1.9,0.7-2.7h-1.1v9.4H196v-10.7h2.8l0.2-0.1L200,174.4z M202.7,176.6c0,0.5,0,1-0.1,1.4h3.3c0,0,0,0.4,0,0.6
		c-0.1,3.5-0.2,4.9-0.6,5.3c-0.3,0.4-0.6,0.5-0.9,0.5c-0.3,0.1-0.9,0.1-1.5,0c0-0.4-0.2-1-0.4-1.4c0.5,0.1,1,0.1,1.3,0.1
		c0.2,0,0.3,0,0.4-0.2c0.2-0.2,0.3-1.2,0.4-3.7h-2c-0.3,2.3-1,4-3.1,5.2c-0.2-0.3-0.6-0.8-0.9-1.1c2.6-1.4,2.8-3.7,2.8-6.8h-1.5
		v-1.3h2.9c-0.1-0.5-0.3-1.1-0.5-1.7l1.3-0.3c0.2,0.5,0.5,1.3,0.6,1.7l-1,0.3h3.5v1.3L202.7,176.6L202.7,176.6z"/>
	<path class="st0" d="M209,182.3v1h-1.1v-9.1h3v8.1H209z M209,175.5v2.2h0.8v-2.2H209z M209.8,181.1v-2.2H209v2.2H209.8z
		 M217.5,183.4c0.2,0,0.3-0.1,0.3-0.6c0.2,0.2,0.7,0.3,1,0.4c-0.1,0.9-0.4,1.2-1.2,1.2h-1c-1,0-1.3-0.3-1.3-1.3v-1.8h-1.6v0.5h1.3
		v0.8h-1.3v0.7l1.3-0.2c0,0.3,0,0.8,0.1,1c-1.9,0.3-2.3,0.4-2.5,0.6c0-0.3-0.2-0.9-0.3-1.2c0.2-0.1,0.4-0.1,0.4-0.5v-1.7h-0.2
		c-0.1,1.1-0.4,2.3-1,3.2c-0.2-0.2-0.8-0.5-1.1-0.6c0.9-1.3,1-3.2,1-4.5v-1.7h2.9c-0.1-0.1-0.1-0.3-0.2-0.4h-0.6v-1.4h-1.3v1.4h-0.9
		v-2.1h3.2v1.8l0.6-0.2v-1.6h3.3v2.1h-1v-1.4H216v1.4h-0.6c0.1,0.1,0.1,0.3,0.2,0.4h3.1v0.9h-2.3v0.5h2v2.3h-1.8v0.4h1.7v0.8h-1.7
		v0.5c0,0.3,0,0.3,0.3,0.3L217.5,183.4L217.5,183.4z M214.6,174.7h-3.5v-0.9h3.5V174.7z M212.7,177.2c-0.1-0.3-0.2-0.7-0.3-1
		l0.7-0.2c0.2,0.3,0.3,0.7,0.4,1L212.7,177.2z M212.5,179.9c0,0.2,0,0.4,0,0.6h0.8v-0.6H212.5z M212.6,178.5v0.5h0.8v-0.5H212.6z
		 M215.3,178.5h-0.8v0.5h0.8V178.5z M215.3,179.9h-0.8v0.6h0.8V179.9z M218.6,174.7H215v-0.9h3.6V174.7z M216.6,177.1
		c-0.1-0.3-0.2-0.7-0.4-1l0.7-0.2c0.2,0.3,0.3,0.7,0.4,1L216.6,177.1z M216.4,179.9v0.6h0.8v-0.6H216.4z"/>
	<path class="st0" d="M230.7,177.2v1h-6.8v-1h2.7v-0.5h-2.2v-0.9h2.2v-0.5h-2.5v-0.4c-0.3,0.8-0.6,1.6-0.9,2.2l-0.8-0.3v0.6h1.3v1.3
		h-1.3v0.8l0.5-0.4c0.2,0.3,1.1,1.5,1.2,1.7l-0.9,1c-0.2-0.5-0.6-1.3-0.9-1.8v4.5h-1.2v-4c-0.3,1-0.6,2-1.2,2.6
		c-0.1-0.4-0.4-1.1-0.6-1.5c0.5-0.6,0.9-1.7,1.1-2.6l0.6,0.2v-0.7h-1.5v-1.3h1.5v-4h1.2v3.1c0.2-0.7,0.5-1.6,0.6-2.3l1.1,0.3V174
		h2.5v-0.9h1.4v0.9h2.6v1h-2.6v0.5h2.4v0.9h-2.4v0.5h2.9V177.2z M220.1,177c-0.1-0.7-0.3-1.8-0.5-2.6l1-0.2c0.2,0.8,0.5,1.9,0.6,2.5
		L220.1,177z M230.1,183.3c0,0.6-0.1,0.9-0.5,1.1c-0.4,0.2-1,0.2-1.7,0.2c0-0.3-0.2-0.8-0.4-1.1c0.4,0,0.9,0,1.1,0
		c0.2,0,0.2,0,0.2-0.2v-0.5h-3.2c-0.1,0.7-0.4,1.4-0.9,1.9c-0.2-0.3-0.7-0.7-1-0.9c0.7-0.8,0.8-2,0.8-2.9v-2.1h5.7v4.5H230.1z
		 M228.8,181.8v-0.6h-3.1c0,0.2,0,0.4,0,0.6H228.8z M225.8,179.8v0.6h3.1v-0.6H225.8z"/>
	<path class="st0" d="M237.8,181.4v0.6h4v1.2h-4v1.4h-1.4v-1.4h-4V182h4v-0.6h-4.7v-1.2h4.7v-2.7H232v-1.2h10.3v1.2h-4.5v2.7h4.8
		v1.2H237.8z M234.3,175.3h-2.5V174h2.5v-0.7h1.4v0.7h1.2v1.2h-1.2v0.7h-1.4V175.3z M234.8,177.6v0.5h1.1v1.2h-1.1v0.6h-1.3v-0.6
		H232v-1.2h1.5v-0.5H234.8z M238.5,175.3h-1.2V174h1.2v-0.7h1.4v0.7h2.6v1.2h-2.6v0.7h-1.4V175.3z M239.4,179.9v-0.6h-1.2v-1.2h1.2
		v-0.5h1.3v0.5h1.4v1.2h-1.4v0.6H239.4z"/>
	<path class="st0" d="M248,176.2c0-0.7,0.5-1.1,1.1-1.1s1.1,0.5,1.1,1.1s-0.5,1.1-1.1,1.1S248,176.9,248,176.2z M248,181.9
		c0-0.7,0.5-1.1,1.1-1.1s1.1,0.5,1.1,1.1s-0.5,1.1-1.1,1.1S248,182.6,248,181.9z"/>
	<path class="st0" d="M260.9,179.6c-0.7,1.1-1.5,2.1-2.2,2.9l4.9-0.3c-0.4-0.6-0.9-1.2-1.3-1.7l1.3-0.6c1,1.2,2.1,2.8,2.7,3.9
		l-1.4,0.7c-0.1-0.3-0.3-0.6-0.5-1c-6,0.5-6.9,0.5-7.5,0.7c-0.1-0.3-0.3-1-0.5-1.4c0.3-0.1,0.6-0.3,0.9-0.7c0.3-0.3,1.1-1.4,1.8-2.6
		h-3.4v-1.4h4.7v-1.7h-3.8V175h3.8v-1.7h1.5v1.7h3.9v1.4h-3.9v1.7h4.7v1.4h-5.7V179.6z"/>
	<path class="st0" d="M271.7,174.3c-0.3,1-0.7,2.2-1,3.2c0.7,0.9,0.8,1.8,0.8,2.5c0,0.8-0.2,1.3-0.5,1.6c-0.2,0.1-0.4,0.2-0.7,0.3
		c-0.2,0-0.5,0-0.8,0c0-0.4-0.1-0.9-0.3-1.2c0.2,0,0.4,0,0.5,0s0.2,0,0.3-0.1c0.1-0.1,0.2-0.4,0.2-0.7c0-0.6-0.1-1.3-0.8-2.2
		c0.2-0.7,0.4-1.7,0.6-2.5h-0.9v9.4h-1.2v-10.7h2.6h0.2L271.7,174.3z M273.8,181.2c-0.4,1-1.1,2-1.7,2.7c-0.2-0.2-0.8-0.6-1.1-0.8
		c0.6-0.6,1.2-1.4,1.5-2.2L273.8,181.2z M275.9,180.5v2.6c0,0.6-0.1,1-0.6,1.2c-0.4,0.2-1,0.2-1.8,0.2c-0.1-0.4-0.3-0.9-0.5-1.3
		c0.5,0,1.1,0,1.2,0c0.2,0,0.2,0,0.2-0.2v-2.6h-2.9v-1.3h2.9v-1h-1.9v-0.8c-0.2,0.1-0.3,0.2-0.5,0.3c-0.2-0.3-0.6-0.8-0.9-1.1
		c1.5-0.7,2.9-2,3.7-3.4l1.2,0.5c-0.1,0.2-0.2,0.3-0.3,0.5c1.1,1.2,2.2,1.9,3.2,2.3c-0.3,0.3-0.8,0.8-0.9,1.2
		c-0.2-0.1-0.4-0.2-0.6-0.4v0.9h-1.5v1h2.7v1.3h-2.7V180.5z M277,177c-0.6-0.5-1.3-1-2-1.8c-0.6,0.7-1.2,1.3-1.9,1.8H277z
		 M277.3,180.8c0.6,0.7,1.3,1.7,1.6,2.3l-1.1,0.6c-0.3-0.7-1-1.7-1.5-2.4L277.3,180.8z"/>
	<path class="st0" d="M289.1,173.7c0.2,1.7,0.9,3.3,1.8,4.2c-0.3,0.2-0.7,0.6-1,0.9c-0.1,3.4-0.3,4.7-0.6,5.1
		c-0.2,0.3-0.5,0.4-0.9,0.5c-0.3,0.1-0.8,0.1-1.3,0c0-0.4-0.1-0.9-0.3-1.3c0.4,0,0.8,0,1,0s0.3,0,0.4-0.2c0.2-0.3,0.3-1.2,0.4-3.5
		h-1.3c-0.3,2.4-1,4-2.6,5c-0.2-0.3-0.6-0.8-0.9-1c1.4-0.8,2-2.1,2.1-4h-1v-0.9l-0.1,0.1c-0.1-0.2-0.4-0.5-0.7-0.7v0.6h-1.5v0.8
		l0.5-0.3c0.3,0.3,1.1,1.6,1.3,1.9l-0.9,1c-0.2-0.5-0.6-1.3-0.9-1.9v4.4h-1.3v-4.3c-0.3,1.2-0.7,2.4-1.3,3.1
		c-0.1-0.5-0.4-1.2-0.6-1.6c0.5-0.6,1-1.7,1.2-2.6l0.8,0.3v-0.7h-1.7v-1.3h1.7v-4h1.3v4h1.5l0,0c0.6-0.8,1-2,1.2-3.3l1.3,0.2
		c-0.3,1.5-0.8,2.9-1.5,3.9h4.1c-0.6-0.9-1-2.1-1.2-3.2h-1.2v-1.3h2.2V173.7z M280.1,177.1c0-0.7-0.3-1.9-0.5-2.8l1-0.3
		c0.3,0.9,0.6,2,0.6,2.8L280.1,177.1z M284.6,174.3c-0.3,0.9-0.7,2.1-1,2.8l-0.9-0.3c0.3-0.8,0.6-2,0.7-2.8L284.6,174.3z"/>
	<path class="st0" d="M296,179v4.3c0,0.5-0.1,0.8-0.4,1s-0.8,0.2-1.4,0.2c0-0.3-0.2-0.8-0.3-1c0.3,0,0.7,0,0.8,0
		c0.1,0,0.2,0,0.2-0.2v-1.1c-0.4,0.3-0.8,0.5-1.2,0.7l-0.3-0.7c-0.1,0.8-0.3,1.7-0.7,2.3c-0.2-0.2-0.7-0.6-1-0.7
		c0.6-0.9,0.6-2.1,0.6-3.1V179h-0.6v-1.9h0.5v-3.4h3.9v3.4h0.5v1.9H296z M295.4,178.1h-2.7v0.5h2.7V178.1z M293.2,177.2h0.5v-1.9
		h1.2v-0.5h-1.6v2.4H293.2z M293.4,180.9c0,0.3,0,0.7,0,1.1c0.4-0.2,0.9-0.4,1.4-0.7v-0.5l-0.5,0.5c-0.2-0.2-0.6-0.5-0.9-0.8V180.9z
		 M293.4,180.2l0.4-0.4c0.3,0.2,0.7,0.5,1,0.7v-1h-1.4V180.2z M294.8,177.2V176h-0.4v1.1L294.8,177.2L294.8,177.2z M302.7,183.3v1
		h-6.3v-1h1.4c-0.1-0.3-0.2-0.6-0.3-0.9l0.8-0.2H297v-2.3h5.2v2.3h-1.4l0.9,0.3c-0.2,0.3-0.4,0.6-0.5,0.9h1.5V183.3z M302.6,179.5
		h-6.1v-1h6.1V179.5z M302.4,178.1h-5.7v-3.8h1.4v-0.9h1.1v0.9h0.5v-0.9h1.1v0.9h1.5v3.8H302.4z M297.8,175.7h0.6v-0.6h-0.6V175.7z
		 M297.8,177.1h0.6v-0.6h-0.6V177.1z M298.2,181.4h2.6v-0.6h-2.6V181.4z M298.6,182.2c0.1,0.4,0.3,0.8,0.4,1.1h1
		c0.1-0.4,0.3-0.8,0.4-1.1H298.6z M299.8,175.7v-0.6h-0.6v0.6H299.8z M299.2,176.6v0.6h0.6v-0.6H299.2z M301.3,175.2h-0.6v0.6h0.6
		V175.2z M301.3,176.6h-0.6v0.6h0.6V176.6z"/>
	<path class="st0" d="M310.7,179c0,0.8-0.7,1.5-1.5,1.5s-1.5-0.7-1.5-1.5s0.7-1.5,1.5-1.5S310.7,178.1,310.7,179z"/>
	<path class="st0" d="M324.1,179.5c0.9,0.7,2,1.7,2.5,2.4l-1.3,0.6c-0.2-0.3-0.5-0.6-0.8-1l-2.6,0.2v1.5c0,0.6-0.1,0.9-0.6,1.2
		c-0.5,0.2-1.1,0.2-1.9,0.2c-0.1-0.4-0.3-0.9-0.5-1.2c0.6,0,1.2,0,1.4,0c0.2,0,0.2,0,0.2-0.2v-1.3c-2.8,0.2-3.3,0.3-3.7,0.4
		c0-0.2-0.2-0.9-0.4-1.2c0.5,0,0.9-0.2,1.6-0.5c0.3-0.1,1-0.4,1.8-0.7c-2,0.2-2.3,0.2-2.6,0.3c-0.1-0.2-0.2-0.8-0.3-1.1
		c0.3,0,0.6-0.1,1-0.3c0.4-0.1,1.4-0.6,2.4-1.2c-1.7,0.3-3.3,0.5-4.6,0.7l-0.1-1.3l0.7-0.1v-2.7h1.3v2.5l0.7-0.1v-3.3h1.4v1.1h1.4
		v1.1h-1.4v1l1.5-0.2v1.1h-0.3l0.7,0.6c-0.5,0.3-0.9,0.5-1.4,0.7l1.9-0.1c0.4-0.2,0.7-0.4,1.1-0.7l0.9,1c-1.1,0.7-2.3,1.2-3.5,1.7
		l3.1-0.2c-0.2-0.2-0.4-0.4-0.6-0.6L324.1,179.5z M319.5,182.6c-0.7,0.6-1.9,1.3-2.8,1.7c-0.3-0.2-0.8-0.7-1.1-0.9
		c0.9-0.3,2-0.8,2.6-1.3L319.5,182.6z M323.3,178c-1.4,0-1.8-0.4-1.8-1.6v-3h1.4v1.1h3.3v1.1h-3.3v0.8c0,0.4,0.1,0.4,0.6,0.4h1.4
		c0.4,0,0.5-0.1,0.5-0.8c0.3,0.2,0.8,0.4,1.2,0.5c-0.2,1.2-0.5,1.6-1.6,1.6h-1.7V178z M323.6,182c0.9,0.4,2.1,1.1,2.7,1.5l-1.2,0.7
		c-0.6-0.5-1.8-1.2-2.7-1.6L323.6,182z"/>
	<path class="st0" d="M332.7,175.1l1,0.3c-0.6,4.9-2.3,7.8-5,9.2c-0.2-0.3-0.8-0.9-1.2-1.2c1.4-0.6,2.5-1.6,3.2-3
		c-0.4-0.5-1-1.1-1.5-1.7c-0.2,0.3-0.4,0.6-0.6,0.9c-0.3-0.2-0.9-0.7-1.2-0.9c1-1.2,1.8-3.2,2.1-5.2l1.4,0.3c-0.1,0.5-0.2,1-0.4,1.5
		h1.8L332.7,175.1z M330.2,176.5c-0.1,0.3-0.2,0.6-0.3,0.9c0.5,0.5,1.1,1,1.5,1.5c0.3-0.7,0.5-1.5,0.6-2.4H330.2z M337.6,180.7
		c-0.4-0.6-1.2-1.5-1.9-2.2v6.2h-1.5v-11.2h1.5v4l0.5-0.4c0.8,0.8,2,2,2.6,2.7L337.6,180.7z"/>
	<path class="st0" d="M342.9,180.8c0-0.2,0-0.3-0.1-0.5c-2.2,0.3-2.6,0.4-2.8,0.6c-0.1-0.3-0.3-0.9-0.5-1.3c0.3-0.1,0.6-0.3,1-0.8
		c0.1-0.2,0.4-0.5,0.7-0.9c-0.9,0.1-1.1,0.2-1.3,0.3c-0.1-0.3-0.3-0.9-0.4-1.2c0.2-0.1,0.4-0.3,0.7-0.6c0.2-0.3,0.9-1.6,1.3-2.9
		l1.3,0.5c-0.4,1-1,2-1.5,2.8l0.8-0.1c0.3-0.5,0.6-1.1,0.9-1.6l1.2,0.8c-0.5,0.8-1,1.7-1.6,2.5l0.9-0.3c0.3,0.8,0.6,1.9,0.6,2.5
		L342.9,180.8z M341.1,181.4c-0.1,1.1-0.3,2.3-0.5,3c-0.2-0.1-0.8-0.3-1.1-0.4c0.3-0.7,0.4-1.8,0.5-2.8L341.1,181.4z M342.3,181.2
		c0.1,0.8,0.2,1.8,0.3,2.5l-1.1,0.2c0-0.7-0.1-1.7-0.2-2.5L342.3,181.2z M342.5,179.2c-0.1-0.3-0.1-0.6-0.2-0.8
		c-0.3,0.3-0.5,0.6-0.8,0.9L342.5,179.2z M343.4,180.9c0.2,0.5,0.4,1.2,0.5,1.7l-1,0.3c-0.1-0.4-0.3-1.2-0.5-1.7L343.4,180.9z
		 M346.7,180c-0.4,1.9-1.3,3.2-2.5,4c-0.2-0.3-0.5-0.8-0.8-1c0.7-0.4,1.4-1.2,1.8-2.1h-1.1v-1.2h1.6h0.2L346.7,180z M350.6,180.1
		c-0.6,0.4-1.1,0.9-1.6,1.3c0.5,0.7,1.1,1.3,1.8,1.7c-0.3,0.3-0.7,0.8-0.9,1.1c-0.7-0.5-1.3-1.2-1.7-2v1c0,0.6-0.1,1-0.5,1.2
		s-1,0.2-1.7,0.2c0-0.4-0.2-0.9-0.4-1.3c0.4,0,0.9,0,1.1,0s0.2,0,0.2-0.2V179h-2.3v-4.4h1.7c0.2-0.4,0.3-0.9,0.4-1.3l1.6,0.3
		c-0.2,0.3-0.4,0.7-0.5,1h2.6v4.4h-2.1v0.4c0.1,0.3,0.2,0.7,0.4,1c0.4-0.4,0.8-0.8,1.1-1.2L350.6,180.1z M345.8,176.3h3v-0.6h-3
		V176.3z M345.8,177.9h3v-0.6h-3V177.9z"/>
	<path class="st0" d="M353.2,181.6v0.9h-1.3v-8.3h3.5v7.3h-2.2V181.6z M353.2,175.6v4.7h1v-4.7H353.2z M362.5,177.6
		c-0.3,1.8-1,3.3-1.8,4.5c0.6,0.6,1.4,1,2.2,1.3c-0.3,0.3-0.7,0.8-0.9,1.2c-0.9-0.4-1.6-0.9-2.2-1.5c-0.7,0.6-1.4,1.1-2.3,1.5
		c-0.2-0.3-0.6-0.9-0.9-1.2c0.9-0.3,1.6-0.8,2.3-1.3c-0.5-0.7-1-1.5-1.3-2.4c-0.3,1.9-1,3.7-2.2,4.9c-0.2-0.3-0.7-0.7-1-0.9
		c1.9-1.8,2.2-5.4,2.2-8.3h-0.8V174h4.5l0.2-0.1l1,0.1c-0.1,1-0.3,2.2-0.5,3.2h0.5h0.3L362.5,177.6z M357.9,175.3
		c0,0.6-0.1,1.3-0.1,2h1.7c0.1-0.7,0.3-1.4,0.4-2H357.9z M358.4,178.6c0.3,0.9,0.8,1.7,1.3,2.4c0.5-0.7,0.9-1.5,1.2-2.4H358.4z"/>
	<path class="st0" d="M374,176.9c-0.3,1.8-0.8,3.3-1.5,4.5c0.6,0.8,1.4,1.5,2.3,1.9c-0.3,0.3-0.8,0.8-1,1.2
		c-0.8-0.5-1.5-1.1-2.1-1.9c-0.6,0.8-1.4,1.4-2.4,2c-0.2-0.3-0.6-0.9-0.9-1.2c1-0.5,1.8-1.2,2.5-2c-0.5-0.8-0.8-1.7-1.1-2.6
		c-0.2,0.3-0.4,0.6-0.6,0.9c-0.2-0.3-0.6-0.8-0.9-1.1v6h-1.4v-3.1c-1.9,0.7-2.3,0.9-2.6,1.1c-0.1-0.3-0.3-1-0.6-1.3
		c0.2-0.1,0.4-0.4,0.4-0.9v-5.8h1.4v5.9l1.3-0.4v-6.6h1.4v4.7c0.9-1.2,1.5-3,1.8-4.9l1.5,0.2c-0.1,0.7-0.3,1.3-0.4,2h3.7v1.4
		L374,176.9L374,176.9z M370.6,176.9c0,0.1-0.1,0.2-0.1,0.3c0.3,1,0.7,2,1.1,2.9c0.4-0.9,0.7-2,0.9-3.2H370.6z"/>
	<path class="st0" d="M380.8,179.4h1.2v5.1h-1.2v-1.6h-3.4c-0.2,0.6-0.6,1.2-1.2,1.6c-0.2-0.2-0.6-0.6-0.8-0.8
		c1-0.7,1.1-1.9,1.1-2.8v-1.6h1.2v0.6h3.1L380.8,179.4L380.8,179.4z M378.4,176.4c0,1.4-0.1,2.1-0.2,2.3s-0.3,0.3-0.5,0.3
		s-0.4,0-0.7,0c0-0.3-0.1-0.5-0.2-0.8c-0.2,0.3-0.4,0.6-0.7,0.9c-0.1-0.2-0.4-0.6-0.5-0.7c0.5-0.3,0.7-0.9,0.8-1.5h-0.6V176h2.5
		c-0.1-0.1-0.2-0.3-0.3-0.4l0.4-0.2h-2.6v-1.1h3.1c-0.1-0.3-0.2-0.6-0.3-0.8l1-0.4c0.2,0.3,0.4,0.8,0.6,1.1h2.8v1.1h-2.7l0.8,0.3
		c-0.4,0.4-0.8,0.8-1.1,1.1v2.4h-0.9v-2.4c0.4-0.4,0.8-1,1.1-1.4H379c0.2,0.3,0.4,0.6,0.6,0.9l-0.7,0.5c0-0.1-0.1-0.3-0.2-0.5
		L378.4,176.4z M377.2,176.9c-0.1,0.5-0.2,0.9-0.3,1.2c0.2,0,0.3,0,0.4,0s0.1,0,0.2-0.1s0.1-0.4,0.1-1.2h-0.4V176.9z M380.8,181.8
		v-0.7h-3.1c0,0.2,0,0.5,0,0.7H380.8z M382.3,175.7l0.8,0.7c-0.6,0.3-1.2,0.5-1.9,0.7v1l0.6-0.1c0,0.2,0.1,0.6,0.1,0.8
		c-1.1,0.3-1.3,0.4-1.5,0.5c0-0.2-0.2-0.6-0.3-0.8c0.1-0.1,0.3-0.2,0.3-0.6v-1.3C381.1,176.3,381.9,176,382.3,175.7z M382.4,176.9
		c0.4,0.5,0.7,1.1,0.9,1.5l-0.8,0.5c-0.2-0.4-0.5-1.1-0.9-1.6L382.4,176.9z M384.5,181.5h-1.1v-6.8h1.1V181.5z M386.4,173.5v9.6
		c0,0.6-0.1,1-0.5,1.2s-0.9,0.3-1.7,0.3c0-0.3-0.2-0.9-0.3-1.2c0.5,0,1,0,1.1,0c0.2,0,0.2-0.1,0.2-0.2v-9.6h1.2V173.5z"/>
	<path class="st0" d="M398.7,174.1v1.2h-2.2c0.3,0.3,0.6,0.6,0.8,0.8l-0.8,0.7h1.6v1.2h-4.3v0.7h3.5v1.1h-8.6v-1.1h3.5V178H388v-1.2
		h3c-0.3-0.3-0.7-0.8-1.1-1.1l0.4-0.4h-0.9c-0.4,0.5-0.7,0.9-1.1,1.3c-0.2-0.3-0.7-0.7-0.9-1c0.7-0.6,1.4-1.5,1.8-2.4l1.3,0.4
		c-0.1,0.2-0.2,0.3-0.2,0.5h2.7v1.2h-1.7c0.3,0.3,0.6,0.5,0.8,0.7l-0.8,0.8h1.1v-0.6h0.9c-0.2-0.1-0.3-0.3-0.5-0.3
		c0.6-0.6,1.2-1.6,1.5-2.7l1.3,0.3c-0.1,0.2-0.1,0.4-0.2,0.6H398.7z M396.2,180.6h2.3v1.2h-2.3v1.5c0,0.7-0.2,1-0.7,1.1
		c-0.5,0.2-1.2,0.2-2.2,0.2c0-0.4-0.2-0.8-0.3-1.2c0.6,0,1.3,0,1.5,0s0.3,0,0.3-0.2v-1.4H391c0.6,0.5,1.2,1.1,1.6,1.5l-1.1,0.8
		c-0.4-0.5-1.2-1.2-1.8-1.8l0.7-0.5h-2.6v-1.2h6.9V180h1.5V180.6z M396.2,176.8c-0.3-0.3-0.7-0.8-1-1.1l0.5-0.4h-0.9
		c-0.3,0.5-0.6,1-0.9,1.4v0.1H396.2z"/>
	<path class="st0" d="M410,177.5c-0.5,1.6-1.2,3-2.1,4.1c0.3,0.9,0.7,1.4,1.1,1.4c0.3,0,0.4-0.6,0.5-2.1c0.3,0.3,0.8,0.6,1.2,0.8
		c-0.2,2.2-0.7,2.7-1.8,2.7c-0.8,0-1.5-0.6-2-1.6c-0.6,0.6-1.3,1.2-2,1.6c-0.2-0.3-0.7-0.9-1-1.2c0.9-0.5,1.8-1.2,2.4-1.9
		c-0.4-1.4-0.7-3-0.8-4.8H402v1.3h3c0,0,0,0.4,0,0.5c0,2.5-0.1,3.6-0.4,3.9c-0.2,0.3-0.5,0.4-0.8,0.5c-0.3,0-0.8,0-1.4,0
		c0-0.4-0.2-1-0.4-1.3c0.4,0,0.8,0,1,0s0.3,0,0.4-0.1c0.1-0.2,0.2-0.7,0.2-2.3H402c0,1.8-0.3,4.1-1.3,5.6c-0.3-0.3-0.9-0.8-1.2-1
		c0.9-1.4,1-3.5,1-5.1V175h4.9c0-0.6,0-1.2,0-1.8h1.5c0,0.6,0,1.2,0,1.8h1.8c-0.4-0.4-1-0.7-1.5-1l0.9-0.9c0.7,0.3,1.5,0.9,2,1.3
		l-0.6,0.6h1.2v1.4H407c0.1,1.2,0.3,2.3,0.5,3.3c0.5-0.8,0.9-1.7,1.2-2.7L410,177.5z"/>
	<path class="st0" d="M419.4,173.5c0.6,1.8,1.8,3.5,3.4,4.3c-0.3,0.3-0.8,0.9-1,1.3c-0.3-0.2-0.6-0.4-0.9-0.7
		c-0.1,3.5-0.3,4.9-0.7,5.4c-0.3,0.4-0.6,0.5-1.1,0.6c-0.4,0.1-1.1,0.1-1.8,0c0-0.4-0.2-1-0.5-1.4c0.7,0,1.3,0.1,1.6,0.1
		c0.2,0,0.4,0,0.5-0.2c0.2-0.3,0.4-1.3,0.5-3.8H417c-0.3,2.3-1.1,4.4-4.2,5.5c-0.2-0.4-0.6-1-0.9-1.3c2.7-0.9,3.3-2.5,3.6-4.2h-2
		v-0.8c-0.3,0.3-0.6,0.6-0.9,0.9c-0.3-0.3-0.9-0.8-1.2-1.1c1.4-1,2.4-2.6,3-4.4l1.5,0.4c-0.4,1.3-1.1,2.6-1.9,3.6h6.2
		c-0.8-0.9-1.4-1.9-1.8-2.9h-1.9v-1.3L419.4,173.5L419.4,173.5z"/>
</g>
<g>
	<path class="st0" d="M4.9,163.4l0.8-1.4l-1.4-0.6l0.3-0.9l1.5,0.3l0.2-1.6h0.9l0.1,1.6l1.5-0.3l0.3,0.9L7.7,162l0.8,1.4L7.8,164
		l-1.1-1.2l-1,1.2L4.9,163.4z"/>
</g>
</svg>
