<?xml version="1.0" encoding="utf-8"?>
<!-- Generator: Adobe Illustrator 26.0.3, SVG Export Plug-In . SVG Version: 6.00 Build 0)  -->
<svg version="1.1" id="レイヤー_1" xmlns="http://www.w3.org/2000/svg" xmlns:xlink="http://www.w3.org/1999/xlink" x="0px"
	 y="0px" viewBox="0 0 214.1 63" style="enable-background:new 0 0 214.1 63;" xml:space="preserve">
<style type="text/css">
	.st0{fill:#FFFFFF;}
</style>
<g>
	<path class="st0" d="M2.3,4.1c-0.1,1-0.5,1.9-1,2.7C1,6.6,0.4,6.1,0.1,6C1,5,1,3.5,1,2.5V1.2h4.1c0-0.3,0-0.7-0.1-1.1h1.3
		c0.1,0.3,0.1,0.8,0.1,1.1h1.2C7.5,1,7.2,0.8,6.9,0.6l0.9-0.5c0.4,0.3,1,0.7,1.2,1L8.7,1.3h1.4v1.1H6.8c0.1,0.6,0.3,1,0.6,1.4
		C7.7,3.4,8,3,8.3,2.6l1.2,0.3C9,3.6,8.6,4.3,8,4.8c0.3,0.3,0.6,0.5,0.9,0.5c0.3,0,0.3-0.3,0.4-1.2c0.3,0.3,0.7,0.5,1,0.6
		c-0.2,1.4-0.6,1.8-1.5,1.8C8.1,6.5,7.5,6.1,7,5.6C6.5,5.9,6,6.2,5.5,6.5c-0.2-0.3-0.6-0.7-0.8-1c0,0.1-0.1,0.1-0.1,0.2
		C4.4,5.9,4.1,6,3.9,6.1c-0.3,0-0.7,0.1-1.2,0c0-0.3-0.1-0.7-0.3-1C2.8,5.2,3,5.2,3.2,5.2c0.1,0,0.2,0,0.3-0.1s0.1-0.4,0.1-1H2.3z
		 M9,9h1.2v1.2h-10V9h1.4V6.6h7.5L9,9L9,9z M2.3,2.3L2.3,2.3c0,0.3,0,0.5,0,0.7h2.6c0,0,0,0.3,0,0.4c0,1-0.1,1.6-0.2,1.9
		c0.6-0.2,1.1-0.5,1.6-0.8C5.9,4,5.6,3.2,5.4,2.3H2.3z M2.8,9h0.9V7.6H2.8V9z M4.8,7.6V9h0.9V7.6H4.8z M6.9,7.6V9h0.9V7.6H6.9z"/>
	<path class="st0" d="M20.1,7.2c-0.5,0.8-1.2,1.3-2,1.7c1,0.2,2.1,0.3,3.3,0.3c-0.3,0.3-0.5,0.7-0.6,1c-1.6-0.1-3-0.3-4.3-0.7
		c-1.4,0.5-3,0.7-4.6,0.8c-0.1-0.3-0.3-0.8-0.5-1c1.2-0.1,2.3-0.2,3.5-0.5c-0.4-0.2-0.8-0.4-1.2-0.7c-0.4,0.3-0.8,0.6-1.4,0.8
		c-0.1-0.3-0.6-0.7-0.8-0.9c0.5-0.2,0.9-0.4,1.3-0.6c-0.2-0.2-0.3-0.4-0.6-0.6l1-0.3c0.1,0.1,0.3,0.3,0.3,0.5
		c0.3-0.2,0.5-0.4,0.6-0.6h-1.9V2h3c0-0.1,0.1-0.3,0.1-0.4h-3.9v-1H21v1h-4.1c-0.1,0.1-0.1,0.3-0.1,0.4H20v4.2h-4.2
		c-0.1,0.1-0.2,0.3-0.3,0.4h3.6l0.2-0.1L20.1,7.2z M13.8,3.2h5V2.8h-5C13.8,2.8,13.8,3.2,13.8,3.2z M13.8,4.3h5V3.9h-5
		C13.8,3.9,13.8,4.3,13.8,4.3z M13.8,5.5h5V5.1h-5C13.8,5.1,13.8,5.5,13.8,5.5z M14.6,7.7c0.6,0.3,1.2,0.6,1.9,0.8
		c0.6-0.3,1.2-0.6,1.7-0.9L14.6,7.7L14.6,7.7z"/>
	<path class="st0" d="M24.2,4.6c-0.3,0.6-0.8,1.2-1.2,1.6c-0.2-0.3-0.6-0.7-0.8-0.9c0.8-0.6,1.4-1.5,1.9-2.5h-1.6V1.7h1.8V0.1h1.2
		v1.6h1.6v1.1h-1.6v0.4c0.4,0.3,1.5,1,1.7,1.2l-0.7,1c-0.3-0.3-0.7-0.7-1-1v2.3h-1.2L24.2,4.6L24.2,4.6z M22.2,9.2
		c0.4-0.6,0.8-1.5,1-2.3l1.2,0.5c-0.2,0.8-0.6,1.8-0.9,2.4L22.2,9.2z M28.5,9c0.6,0,0.6-0.1,0.7-1.2C29.5,8,30,8.2,30.4,8.3
		c-0.1,1.6-0.6,1.9-1.7,1.9h-2c-1.5,0-1.9-0.3-1.9-1.5V7.2h1.3v1.5C26.1,9,26.2,9,26.8,9H28.5z M27.2,6.3l0.2,0.2V0.7h4.5v5.9h-4.3
		C28,7,28.5,7.4,28.8,7.8l-1,0.8c-0.3-0.4-1-1.1-1.4-1.5L27.2,6.3z M28.6,2.3h2V1.7h-2V2.3z M28.6,3.9h2V3.3h-2V3.9z M28.6,5.6h2
		V4.9h-2V5.6z M31.2,6.8c0.4,0.7,1.1,1.7,1.4,2.2l-1.2,0.6C31.1,9,30.5,8,30.1,7.3L31.2,6.8z"/>
	<path class="st0" d="M41.2,7.5c-0.3,0.5-0.6,0.8-1,1.2c1.2,0.3,2.2,0.6,3,0.8L42,10.4c-0.8-0.3-1.9-0.6-3.2-1c-1.2,0.6-2.9,0.8-5,1
		c-0.1-0.4-0.3-0.8-0.5-1.1c1.4-0.1,2.5-0.1,3.5-0.4c-0.7-0.1-1.4-0.3-2.1-0.4c0.3-0.3,0.6-0.7,0.8-1h-2.1V6.3h2.8
		c0.2-0.3,0.4-0.7,0.6-1h-2.7v-3h2.4V1.7h-2.9V0.5h9.6v1.1h-3v0.6h2.6v3.1H37l1.2,0.3c-0.1,0.3-0.3,0.5-0.4,0.8h2.7
		c0.1-0.2,0.1-0.4,0.3-0.6L42,6c0,0.1-0.1,0.2-0.1,0.3h1.7v1.1L41.2,7.5L41.2,7.5z M35.3,4.3h1.2v-1h-1.2V4.3z M37,7.5
		c-0.1,0.1-0.2,0.3-0.3,0.4C37.3,8,38,8.1,38.6,8.3c0.3-0.2,0.7-0.5,1-0.8H37z M37.7,2.3h1.2V1.7h-1.2V2.3z M38.9,4.3v-1h-1.2v1
		H38.9z M40.2,3.3v1h1.3v-1C41.5,3.3,40.2,3.3,40.2,3.3z"/>
	<path class="st0" d="M54.3,1.8c0,0,0,0.4,0,0.6c-0.1,5-0.3,6.7-0.7,7.2c-0.3,0.4-0.6,0.6-1,0.6c-0.4,0.1-1.1,0.1-1.7,0
		c0-0.3-0.2-0.9-0.4-1.3C51.1,9,51.8,9,52.1,9c0.2,0,0.3-0.1,0.5-0.2c0.3-0.3,0.5-2,0.6-5.9h-2.3c-0.3,0.7-0.6,1.2-1,1.7
		C49.6,4.5,49.3,4.2,49,4v5.2h-3V10h-1.2V1.9H46c0.1-0.6,0.3-1.2,0.3-1.8l1.4,0.2c-0.3,0.6-0.6,1.1-0.8,1.6h1.7v1.8
		c0.6-0.9,1.2-2.3,1.5-3.6l1.2,0.3c-0.1,0.5-0.3,1-0.4,1.4L54.3,1.8L54.3,1.8z M47.7,3H46v1.8h1.7V3z M47.7,8.1V5.9H46V8L47.7,8.1
		L47.7,8.1z M51.3,7.5c-0.3-0.7-1-1.7-1.5-2.6l1-0.6c0.6,0.8,1.3,1.8,1.7,2.5L51.3,7.5z"/>
	<path class="st0" d="M57.3,6.6c-0.3,1.1-0.6,2.2-1.1,3C56,9.3,55.6,9,55.3,8.9c0.4-0.6,0.8-1.6,1-2.6L57.3,6.6z M60.5,2.5h-5V1.4
		h2.1c-0.1-0.3-0.3-0.7-0.3-1l1.2-0.3C58.7,0.5,58.9,1,59,1.4h1.7C60.5,1.4,60.5,2.5,60.5,2.5z M58.7,6.1v3.1c0,0.6-0.1,0.8-0.4,1
		c-0.3,0.2-0.8,0.2-1.4,0.2c-0.1-0.3-0.2-0.8-0.3-1.1c0.3,0,0.7,0,0.8,0s0.1,0,0.1-0.1V6.1H56v-3h4.2v3H58.7z M57.1,5H59V4h-1.9V5z
		 M59.8,6.2c0.3,0.6,0.7,1.4,0.8,1.9l-1,0.5c-0.1-0.6-0.4-1.4-0.8-2L59.8,6.2z M64.5,9.2c0.1,0,0.1,0,0.2-0.1c0.1,0,0.1-0.1,0.1-0.3
		s0.1-0.6,0.1-1.2c0.2,0.2,0.7,0.4,1,0.6c0,0.6-0.1,1.1-0.1,1.4c-0.1,0.3-0.2,0.4-0.4,0.6c-0.2,0.1-0.5,0.1-0.7,0.1H64
		c-0.3,0-0.6-0.1-0.8-0.3s-0.3-0.4-0.3-1.2V6.2c-0.3,1.7-1,3.1-2.1,4.2c-0.2-0.3-0.6-0.6-0.9-0.8c1.5-1.4,2-3.4,2.2-5.6h-1.3V2.9
		h1.4c0.1-1,0-1.9,0.1-2.8h1.2c0,0.9,0,1.9-0.1,2.8h2.3v1.2h-2.4c0,0.2-0.1,0.3-0.1,0.6H64v4.2c0,0.2,0,0.3,0.1,0.3s0.1,0.1,0.1,0.1
		h0.3V9.2z M64.5,2.8c-0.2-0.5-0.7-1.2-1.1-1.7l0.9-0.6c0.4,0.5,1,1.2,1.2,1.7L64.5,2.8z"/>
	<path class="st0" d="M72.3,9c0.3,0,0.6,0,0.9,0c0.6,0,2.8,0,3.5,0c-0.2,0.3-0.3,0.9-0.4,1.2h-3.2c-2,0-3.4-0.3-4.3-1.6
		c-0.4,0.8-0.9,1.3-1.5,1.7c-0.2-0.3-0.7-0.8-1-0.9c1.1-0.7,1.8-1.9,2.1-3.4l1.3,0.2c-0.1,0.3-0.1,0.7-0.3,1C69.7,8,70.3,8.4,71,8.6
		V5.9h-4.3V4.8h9.7V6h-4.1v0.8h3.4v1.1h-3.4L72.3,9L72.3,9z M75.4,4.3h-7.7V0.5h7.7V4.3z M74,1.4h-5V2h5V1.4z M74,2.8h-5v0.6h5V2.8z
		"/>
	<path class="st0" d="M80.8,8.6c0.6,0.2,1.4,0.3,2.3,0.3c0.8,0,3.8,0,4.8-0.1c-0.2,0.3-0.4,0.9-0.5,1.3H83c-2.1,0-3.4-0.3-4.2-1.5
		c-0.1,0.7-0.3,1.3-0.5,1.8c-0.2-0.1-0.8-0.5-1-0.6c0.6-1.1,0.6-2.9,0.6-4.8l1.2,0.1c0,0.5,0,1-0.1,1.5c0.1,0.5,0.3,0.9,0.6,1.2V4.6
		h-2.1V3.4h1.9v-1h-1.6V1.2h1.6V0.1h1.2v1.1h1.6v1.1h-1.6v1h1.7v0.3c0.8-0.5,1.1-1.1,1.3-2.1h-1.2v-1h4.9c0,0,0,0.3,0,0.5
		c-0.1,1.9-0.2,2.6-0.4,3c-0.2,0.3-0.4,0.3-0.8,0.3c-0.3,0-0.8,0.1-1.2,0c0-0.3-0.1-0.8-0.3-1.1c0.4,0.1,0.8,0.1,0.9,0.1
		s0.2,0,0.3-0.1C86,3,86.1,2.6,86.1,1.7H85c-0.3,1.4-0.8,2.3-1.9,3c-0.1-0.1-0.4-0.3-0.7-0.6v0.5h-1.6v1.2h1.4v1.1h-1.4V8.6
		L80.8,8.6z M82.8,4.8h4.3v3.5h-4.3V4.8z M84,7.2h1.8V5.8H84V7.2z"/>
	<path class="st0" d="M92.3,5.7c0,0,0,0.3,0,0.5c-0.1,2.4-0.3,3.4-0.6,3.7c-0.2,0.3-0.5,0.4-0.8,0.4c-0.3,0.1-0.8,0.1-1.4,0
		c0-0.3-0.1-0.9-0.3-1.2c0.4,0.1,0.9,0.1,1.1,0.1s0.3,0,0.3-0.1c0.2-0.2,0.3-0.8,0.4-2.3h-2.6c0.2-1,0.3-2.5,0.4-3.7H91V1.9h-2.3
		V0.7h3.5v3.7h-2.3c-0.1,0.4-0.1,0.8-0.1,1.2L92.3,5.7L92.3,5.7z M97.7,10.5c-0.1-0.2-0.1-0.4-0.2-0.7c-1.8,0.1-3.7,0.3-5,0.3
		l-0.1-1.3c0.7,0,1.6-0.1,2.5-0.1V7.5h-2.1v-3h2.1v-1h1.2v0.9h2.1v3.1h-0.6c0.5,0.8,1,1.8,1.2,2.4L97.7,10.5z M97.7,3.9
		c-0.1-0.2-0.2-0.4-0.4-0.7c-3.5,0.3-4.1,0.3-4.4,0.5c-0.1-0.2-0.3-0.8-0.4-1.1c0.2-0.1,0.4-0.2,0.6-0.5s0.8-1.1,1.2-2l1.4,0.3
		c-0.4,0.7-0.9,1.4-1.4,2l2.3-0.2C96.4,2,96.2,1.7,96,1.5L96.9,1c0.7,0.7,1.5,1.7,1.9,2.3L97.7,3.9z M94.8,6.5v-1h-1v1H94.8z
		 M96.1,5.5v1h1v-1H96.1z M97,8.7c-0.1-0.3-0.3-0.5-0.4-0.7l1-0.4h-1.5v1.2L97,8.7z"/>
	<path class="st0" d="M103.7,1c-0.3,1-0.7,2.2-1,3c0.7,0.9,0.8,1.7,0.8,2.3c0,0.8-0.1,1.2-0.6,1.4c-0.1,0.1-0.4,0.2-0.6,0.3
		c-0.2,0-0.5,0-0.8,0c0-0.3-0.1-0.8-0.3-1.2c0.2,0,0.3,0,0.5,0s0.2,0,0.3-0.1c0.1-0.1,0.2-0.3,0.2-0.6c0-0.5-0.1-1.2-0.8-1.9
		c0.3-0.7,0.5-1.7,0.7-2.5h-1v8.7h-1.2V0.6h2.6l0.2-0.1L103.7,1z M106.1,3.1c0,0.5,0,0.9-0.1,1.3h3c0,0,0,0.4,0,0.6
		c-0.1,3.2-0.2,4.5-0.6,4.9c-0.3,0.3-0.5,0.4-0.9,0.5c-0.3,0.1-0.8,0.1-1.4,0c0-0.4-0.2-0.9-0.4-1.3c0.5,0.1,1,0.1,1.2,0.1
		s0.3-0.1,0.3-0.1c0.2-0.2,0.3-1.1,0.3-3.4h-1.8c-0.3,2.1-1,3.7-2.9,4.8c-0.1-0.3-0.6-0.8-0.8-1c2.3-1.2,2.6-3.5,2.6-6.3h-1.4V1.9
		h2.7c-0.1-0.4-0.3-1-0.4-1.5l1.2-0.3c0.2,0.5,0.4,1.2,0.6,1.6l-0.9,0.2h3.2v1.2C109.6,3.1,106.1,3.1,106.1,3.1z"/>
	<path class="st0" d="M111.9,8.4v0.9h-1V0.9h2.8v7.5H111.9z M111.9,2.1v2h0.7v-2H111.9z M112.6,7.2v-2h-0.7v2H112.6L112.6,7.2z
		 M119.7,9.4c0.2,0,0.2-0.1,0.3-0.6c0.2,0.1,0.6,0.3,1,0.3c-0.1,0.8-0.4,1.1-1.1,1.1H119c-1,0-1.2-0.3-1.2-1.2V7.4h-1.4v0.4h1.2v0.8
		h-1.2v0.6l1.2-0.1c0,0.3,0,0.7,0.1,0.9c-1.7,0.3-2.1,0.4-2.3,0.5c0-0.3-0.1-0.8-0.3-1c0.2-0.1,0.3-0.1,0.3-0.5V7.4h-0.2
		c-0.1,1-0.4,2.1-0.9,3c-0.2-0.1-0.7-0.5-1-0.6c0.8-1.2,0.9-3,0.9-4.2V4.1h2.7c-0.1-0.1-0.1-0.3-0.1-0.4h-0.5V2.3h-1.2v1.3h-0.8v-2
		h2.9v1.7l0.6-0.1V1.7h3v1.9h-1.2V2.3h-1.2v1.3h-0.6c0.1,0.1,0.1,0.3,0.1,0.4h2.8v0.8h-2.1v0.4h1.8v2.1h-1.7v0.4h1.6v0.8h-1.6V9
		c0,0.3,0,0.3,0.3,0.3L119.7,9.4L119.7,9.4z M117,1.3h-3.2V0.5h3.2V1.3z M115.3,3.6c-0.1-0.3-0.2-0.6-0.3-0.9l0.6-0.2
		c0.1,0.3,0.3,0.6,0.3,0.9L115.3,3.6z M115.1,6.1c0,0.2,0,0.3,0,0.6h0.8V6.1H115.1z M115.1,4.9v0.4h0.7V4.9H115.1z M117.7,4.9h-0.8
		v0.4h0.8V4.9z M117.7,6.1h-0.8v0.6h0.8V6.1z M120.7,1.3h-3.3V0.5h3.3V1.3z M118.8,3.6c-0.1-0.3-0.2-0.6-0.3-0.9l0.7-0.2
		c0.1,0.3,0.3,0.7,0.3,0.9L118.8,3.6z M118.7,6.1v0.6h0.7V6.1H118.7z"/>
	<path class="st0" d="M131.8,7.9h-3.1c1,0.5,2.1,1,2.8,1.4l-0.9,1c-0.7-0.5-1.9-1.2-3-1.7l0.6-0.8h-3.3l0.9,0.8
		c-1,0.6-2.3,1.3-3.4,1.7c-0.2-0.3-0.5-0.7-0.8-1c1-0.3,2.2-1,3-1.5h-2.9V6.7h1L122.4,1c0.7-0.2,1.5-0.6,2.1-0.8l0.6,1.1
		c-0.5,0.1-1,0.3-1.4,0.4v1h1.2v1.1h-1.2v1h1.2v1.1h-1.2v0.9h5.8c0-0.3,0-0.6,0.1-0.9h-1.1V4.7h1.2c0-0.3,0-0.6,0-1h-1.1v-1h1.2
		c0-0.3,0-0.6,0-1h-1.2V0.6h2.5c0,1.9-0.1,4.4-0.1,6.1h1L131.8,7.9L131.8,7.9z M126.5,4.3c-0.1,0.8-0.3,1.4-0.6,1.9
		c-0.2-0.1-0.6-0.4-0.8-0.6c0.3-0.4,0.3-1,0.4-1.6L126.5,4.3z M127,3.9h-1.7V0.2h1.1V1h1.7v1.1h-1.7v0.8h1.2l0,0h0.4v2.8
		c0,0.5-0.1,0.6-0.4,0.8c-0.3,0.1-0.7,0.1-1.2,0.1c-0.1-0.3-0.2-0.6-0.3-0.8c0.3,0,0.6,0,0.7,0s0.1,0,0.1-0.1L127,3.9L127,3.9z"/>
	<path class="st0" d="M136.6,4.8c-0.6,2.3-1.7,4-3,4.9c-0.2-0.3-0.8-0.8-1-1c1-0.6,1.9-1.7,2.4-3h-2.1V4.6h2.7l0.2-0.1L136.6,4.8z
		 M142.6,4.1c-0.8,0.8-1.9,1.6-2.7,2.1c0.8,1,1.8,1.9,3,2.4c-0.3,0.3-0.7,0.8-0.9,1.2c-1.6-0.7-2.8-1.9-3.6-3.4V9
		c0,0.7-0.1,1.1-0.6,1.3s-1.1,0.2-2.1,0.2c-0.1-0.3-0.3-1-0.4-1.3c0.6,0,1.2,0,1.4,0s0.3-0.1,0.3-0.3V3.6h-2.8V2.3h4.1
		c-1-0.4-2.2-0.8-3.2-1.1l0.6-1.1c1.3,0.3,3.1,0.8,4.1,1.4l-0.7,1.2c-0.2-0.1-0.4-0.2-0.7-0.3v0.9c0.2,0.7,0.5,1.4,0.8,1.9
		c0.8-0.6,1.6-1.4,2.1-2L142.6,4.1z"/>
	<path class="st0" d="M150.3,3.7c1.2,0.8,2.9,2.1,3.7,3l-1.1,1c-0.7-0.8-2.2-2.1-3.4-3v5.7H148V5c-1,1.1-2.2,2-3.5,2.7
		c-0.2-0.3-0.6-0.9-0.9-1.2c2-1,3.7-2.6,4.8-4.3H144V0.8h9.6v1.4h-3.5c-0.2,0.3-0.4,0.7-0.6,1v1.2L150.3,3.7z"/>
	<path class="st0" d="M157.5,7.5c-0.1-0.3-0.3-0.7-0.6-1.1v3.9h-1.2V6.8c-0.2,0.3-0.4,0.6-0.6,0.8c-0.1-0.3-0.4-1-0.6-1.2
		c0.8-0.8,1.6-2.1,2-3.3h-1.7V2h1.4c-0.1-0.4-0.5-1-0.8-1.4l1-0.5c0.3,0.4,0.7,1,0.8,1.4L156.4,2h0.7l0.2-0.1l0.6,0.4
		c-0.3,0.8-0.6,1.7-1,2.5V5l0.2,0.3c0.1-0.3,0.3-0.7,0.4-1l0.8,0.6c-0.3,0.3-0.5,0.8-0.7,1c0.3,0.3,0.5,0.6,0.6,0.8L157.5,7.5z
		 M163,7c0.1,0.3,0.1,0.7,0.2,0.9c-1.8,0.6-2.2,0.8-2.3,1c0.5,0.3,1.1,0.3,1.9,0.3c0.7,0,1.7-0.1,2.3-0.1c-0.1,0.3-0.3,0.8-0.3,1.1
		c-0.6,0.1-1.4,0.1-2.1,0.1c-1.4,0-2.5-0.2-3.2-1.2c-0.3,0.6-0.8,1.1-1.2,1.4c-0.1-0.2-0.6-0.6-0.8-0.8c0.9-0.6,1.6-1.8,1.9-3.2
		h-0.3c-0.2,0-0.6,0.1-0.6,0.2c-0.1-0.3-0.3-0.8-0.3-1c0.1-0.1,0.3-0.1,0.4-0.3c0.1-0.2,0.4-0.8,0.7-1.4h-1V2.8h1.5l0.2-0.1l0.8,0.3
		c-0.3,0.6-0.7,1.6-1.1,2.3h0.5h0.2l0.4,0.2c-0.1,1-0.3,1.9-0.6,2.6c0.3,0.4,0.6,0.7,0.9,0.8l0,0c-0.1-0.3-0.1-0.8-0.3-1
		c0.2-0.1,0.3-0.1,0.3-0.5V0.6h3.7v4.3H162v0.8l0.7-0.6c0.1,0.1,0.4,0.4,0.8,0.8c0.3-0.3,0.7-0.6,0.9-0.8l0.8,0.8
		c-0.3,0.3-0.7,0.5-1,0.7c0.5,0.5,0.9,1,1,1.2l-0.8,0.8c-0.5-0.8-1.7-2.2-2.3-2.8v1.7L163,7z M159.1,2.5c-0.1-0.6-0.6-1.3-0.8-1.9
		l1-0.3c0.3,0.6,0.7,1.4,0.8,1.9L159.1,2.5z M162,1.6v0.6h1.4V1.6H162z M163.4,3.9V3.2H162v0.6L163.4,3.9L163.4,3.9z"/>
	<path class="st0" d="M173.4,9c1,0,1.2-0.3,1.4-1.6c0.3,0.2,0.9,0.4,1.2,0.5c-0.2,1.8-0.7,2.3-2.6,2.3h-3.8c-2.1,0-2.7-0.4-2.7-2v-4
		c-0.2,0.2-0.4,0.3-0.6,0.5c-0.1-0.3-0.5-1-0.7-1.2c1.3-0.8,2.6-2.1,3.4-3.5l1.2,0.5c0,0.1-0.2,0.3-0.2,0.5h2.6l0.3-0.1l0.8,0.6
		c-0.3,0.6-0.8,1.1-1.4,1.7h2.7v4.1h-1.3V7h-5.3v1.3c0,0.7,0.2,0.8,1.4,0.8C169.7,9,173.4,9,173.4,9z M169.1,2.1
		c-0.3,0.3-0.6,0.7-0.9,1h2.5c0.3-0.3,0.6-0.7,0.9-1H169.1z M168.3,5.7h2.1V4.4h-2.1V5.7z M173.6,4.4h-2v1.3h2V4.4z"/>
	<path class="st0" d="M186.8,1.8c0,0,0,0.4,0,0.6c-0.1,5-0.3,6.7-0.7,7.2c-0.3,0.4-0.6,0.6-1,0.6c-0.4,0.1-1.1,0.1-1.7,0
		c0-0.3-0.2-0.9-0.4-1.3c0.7,0.1,1.4,0.1,1.7,0.1c0.2,0,0.3-0.1,0.5-0.2c0.3-0.3,0.5-2,0.6-5.9h-2.3c-0.3,0.7-0.6,1.2-1,1.7
		c-0.2-0.1-0.6-0.4-0.8-0.6v5.2h-3V10h-1.2V1.9h1.2c0.1-0.6,0.3-1.2,0.3-1.8l1.4,0.2c-0.2,0.6-0.4,1.1-0.6,1.6h1.7v1.8
		c0.6-0.9,1.2-2.3,1.5-3.6l1.2,0.3c-0.1,0.5-0.3,1-0.4,1.4L186.8,1.8L186.8,1.8z M180.2,3h-1.7v1.8h1.7V3z M180.2,8.1V5.9h-1.7V8
		L180.2,8.1L180.2,8.1z M183.8,7.5c-0.3-0.7-1-1.7-1.5-2.6l1-0.6c0.6,0.8,1.3,1.8,1.7,2.5L183.8,7.5z"/>
	<path class="st0" d="M194.1,7.7c1.3,0.5,3.1,1.1,4,1.7l-0.6,1.1c-1-0.6-3-1.4-4.4-1.9l0.5-0.8h-0.4c-0.6,1.4-1.7,2.2-4.7,2.7
		c-0.1-0.3-0.4-0.9-0.6-1.2c2.2-0.3,3.2-0.8,3.8-1.5h-3.3V6.6h3.7c0-0.2,0.1-0.3,0.1-0.6H188V4.9h4.2V4.3H189V3.2h3.2V2.6h-3.9V1.4
		h2.1c-0.1-0.3-0.4-0.7-0.6-1l1.2-0.5c0.3,0.4,0.7,0.9,0.8,1.3l-0.3,0.1h2.4c0.3-0.4,0.6-1,0.8-1.4l1.4,0.3
		c-0.3,0.4-0.5,0.8-0.8,1.1h2.1v1.2h-3.9v0.6h3.4v1.1h-3.4v0.6h4.4V6h-4.6c0,0.2-0.1,0.4-0.1,0.6h4.3v1.1H194.1L194.1,7.7z"/>
	<path class="st0" d="M207.7,9.4c0.3,0,0.3-0.1,0.4-0.8c0.2,0.1,0.7,0.3,1,0.3c-0.1,1-0.4,1.3-1.3,1.3h-1.5c-1.2,0-1.5-0.3-1.5-1.2
		V7.3h-2.4v0.5h2.1v0.8h-2.1v0.6l2.1-0.1c0,0.3,0,0.7,0,0.9c-2.7,0.2-3.1,0.3-3.4,0.4c0-0.3-0.2-0.8-0.3-1c0.2-0.1,0.4-0.1,0.4-0.6
		V7.2h-0.4c-0.1,1.1-0.5,2.3-1.1,3.2c-0.2-0.3-0.7-0.7-1-0.8c0.9-1.1,1-2.8,1-3.9V3.9h3.7c0-0.1-0.1-0.2-0.1-0.3h-0.8V2.3h-1.1
		c0.3,0.2,0.8,0.6,0.9,0.8l-0.6,0.6c-0.2-0.3-0.6-0.6-0.9-0.9l0.6-0.6h-0.8v1.3h-1.1v-2h4.1v1.7l0.8-0.3l0,0V1.6h4.2v2h-1.2V2.3
		h-1.1c0.3,0.2,0.8,0.6,1,0.8l-0.6,0.6c-0.2-0.3-0.6-0.6-1-0.9l0.6-0.6h-0.7v1.3h-0.9c0,0.1,0.1,0.1,0.1,0.3h4.1v0.9H206v0.4h2.6
		v2.1h-2.5v0.5h2.3v0.8h-2.3V9c0,0.3,0.1,0.3,0.5,0.3L207.7,9.4L207.7,9.4z M203.9,1.2h-4.6V0.4h4.6V1.2z M200.9,6
		c0,0.1,0,0.3,0,0.5h1.4V6H200.9z M200.9,4.8v0.4h1.4V4.8H200.9z M204.8,4.8h-1.4v0.4h1.4V4.8z M204.8,6h-1.4v0.5h1.4V6z M208.9,1.2
		h-4.6V0.4h4.6V1.2z M206,6v0.5h1.3V6H206z"/>
	<path class="st0" d="M214.1,5.3c0,1-0.8,1.8-1.8,1.8s-1.8-0.8-1.8-1.8s0.8-1.8,1.8-1.8S214.1,4.3,214.1,5.3z M213.3,5.3
		c0-0.6-0.4-1-1-1s-1,0.4-1,1s0.5,1,1,1C212.9,6.3,213.3,5.9,213.3,5.3z"/>
	<path class="st0" d="M3.7,32.2c-0.3,0.1-0.7,0.2-1,0.3v2.6c0,0.6-0.1,0.9-0.4,1.1s-0.8,0.3-1.5,0.3c0-0.3-0.2-0.8-0.3-1.2
		c0.4,0,0.8,0,0.9,0s0.2-0.1,0.2-0.2V33l-1,0.3L0.1,32c0.5,0,0.9-0.2,1.3-0.3v-1.9H0.2v-1.2h1.2v-2.1h1.2v2.1h1v1.2h-1v1.7
		c0.3-0.1,0.6-0.1,0.9-0.3L3.7,32.2z M8.3,31.2c0.2,2.2,0.6,3.8,1,3.8c0.1,0,0.3-0.5,0.3-1.4c0.2,0.3,0.7,0.6,0.9,0.7
		c-0.3,1.7-0.8,2.1-1.2,2.1c-1.2,0-1.9-2.1-2.1-5.2H5.4V34l1.4-0.5c0,0.3,0.1,0.8,0.1,1c-2.1,0.8-2.5,1-2.8,1.2
		c-0.1-0.3-0.3-0.8-0.5-1c0.3-0.1,0.6-0.3,0.6-0.8v-6.3l0,0l0,0c1.7-0.3,3.7-0.7,4.8-1.1l1,1c-0.6,0.2-1.2,0.4-1.9,0.6
		c0,0.8,0.1,1.4,0.1,2.1h2.1v1.2h-2C8.3,31.4,8.3,31.2,8.3,31.2z M5.1,35.3h2.8v1H5.1C5.1,36.4,5.1,35.3,5.1,35.3z M7,30
		c0-0.6,0-1.2,0-1.9c-0.5,0.1-1,0.2-1.5,0.3V30H7z"/>
	<path class="st0" d="M13.9,26.9c-0.7,0.8-1.7,1.5-2.5,2c-0.1-0.2-0.3-0.7-0.5-0.9c0.7-0.4,1.5-1,2-1.5L13.9,26.9z M12.2,30.6
		c-0.3,0.2-0.6,0.3-0.8,0.5c-0.1-0.3-0.3-0.8-0.4-1.1c0.7-0.3,1.6-1,2-1.5l0.9,0.4v-0.6h1.6v-0.6H15c-0.1,0.1-0.1,0.3-0.3,0.3
		c-0.2-0.1-0.6-0.3-0.8-0.4c0.3-0.3,0.6-0.8,0.7-1.3l1,0.2c0,0.1-0.1,0.2-0.1,0.3h2.3v0.8h-1.2v0.6H18V29h-1.4v0.5h1.2v0.7h-1.2v0.5
		l1.4-0.1c0,0.3,0,0.6,0,0.8c-3.1,0.3-3.6,0.3-3.9,0.4c-0.1-0.2-0.2-0.6-0.3-0.8c0.2-0.1,0.3-0.1,0.3-0.6v-1H15v1.4l0.6-0.1V29H14
		v-0.1c-0.2,0.2-0.4,0.5-0.7,0.7v2.1h-1.1C12.2,31.9,12.2,30.6,12.2,30.6z M21.4,34.4h-2.8c0.9,0.3,2,0.9,2.6,1.2l-0.7,1
		c-0.6-0.4-1.9-1.1-2.8-1.4l0.6-0.8H17v2.2h-1.4v-2.2h-1.9l0.9,0.3c-0.6,0.7-1.6,1.4-2.4,1.9c-0.1-0.3-0.6-0.8-0.8-1
		c0.7-0.3,1.5-0.7,2-1.2h-2.2v-0.9h10.2C21.4,33.5,21.4,34.4,21.4,34.4z M12.6,32.2h7.3v0.9h-7.3C12.6,33.1,12.6,32.2,12.6,32.2z
		 M19.3,31.9h-1v-5.1H21v3.5c0,0.4-0.1,0.7-0.3,0.8c-0.3,0.1-0.6,0.2-1,0.2c0-0.3-0.2-0.6-0.3-0.9c0.2,0,0.5,0,0.6,0s0.1,0,0.1-0.1
		v-2.5h-0.8C19.3,27.8,19.3,31.9,19.3,31.9z"/>
	<path class="st0" d="M28.4,30.4c0.8,2.2,2.1,4.1,4.1,5c-0.3,0.3-0.8,0.8-1,1.2c-2-1-3.3-2.8-4.1-5c-0.3,0.8-0.6,1.7-1.1,2.4
		l0.3-0.2c0.7,0.6,1.5,1.4,1.9,2l-1.2,0.8c-0.3-0.5-1-1.2-1.7-1.9c-0.7,0.8-1.5,1.4-2.7,1.9c-0.2-0.3-0.6-0.8-1-1.1
		c2.7-1.2,3.8-3.1,4.2-5.1h-3.9V29h4.1c0.1-1,0.1-1.9,0.1-2.8H28c0,0.8,0,1.8-0.1,2.8h4.4v1.4L28.4,30.4L28.4,30.4z"/>
	<path class="st0" d="M39.3,32c-0.1,0.2-0.2,0.3-0.3,0.6h4.2V33c-0.1,2.1-0.3,3-0.6,3.3c-0.2,0.3-0.4,0.3-0.7,0.4
		c-0.3,0-0.6,0.1-1,0c0-0.3-0.1-0.8-0.3-1.1c0.3,0,0.6,0.1,0.7,0.1c0.1,0,0.2,0,0.3-0.1s0.2-0.7,0.3-2h-0.3
		c-0.5,1.2-1.3,2.4-2.2,3.1c-0.2-0.2-0.6-0.6-0.8-0.8c0.8-0.6,1.4-1.4,1.9-2.4H40c-0.6,1.2-1.7,2.2-2.7,2.9
		c-0.1-0.2-0.5-0.6-0.7-0.8c0.9-0.5,1.7-1.2,2.2-2.1h-0.6c-0.3,0.4-0.8,0.8-1.2,1.1c-0.1-0.2-0.4-0.5-0.7-0.7
		c-0.1,0-0.3,0.1-0.5,0.1s-0.5,0-0.7,0c0-0.3-0.1-0.8-0.3-1.1c0.2,0,0.3,0,0.5,0s0.2,0,0.3-0.1s0.1-0.3,0.1-0.6
		c0-0.5-0.1-1.2-0.8-1.9c0.2-0.7,0.5-1.7,0.6-2.4h-0.8v8.7h-1.1v-9.8H36l0.2-0.1l0.8,0.5c-0.3,1-0.6,2.1-1,3
		c0.7,0.8,0.8,1.6,0.8,2.2c0,0.4-0.1,0.8-0.1,1c0.6-0.4,1-0.9,1.3-1.5h-1v-1h6.6v1C43.5,32,39.3,32,39.3,32z M42.8,30.5h-5v-3.8h5
		V30.5z M41.5,27.7H39v0.6h2.5V27.7z M41.5,29.1H39v0.6h2.5V29.1z"/>
	<path class="st0" d="M52.9,35.4c0.3,0,0.4-0.3,0.5-1.7c0.3,0.2,0.8,0.4,1.2,0.6c-0.1,1.9-0.5,2.5-1.6,2.5h-1.3
		c-1.2,0-1.6-0.4-1.6-1.7v-3.3h-1.6c-0.2,2.3-0.7,4.1-3.6,5c-0.1-0.3-0.5-0.9-0.8-1.2c2.6-0.8,2.8-2.1,3-3.9h-2.7v-1.2h4.2v-4h1.3v4
		h4.3v1.2h-2.9V35c0,0.4,0.1,0.5,0.4,0.5L52.9,35.4L52.9,35.4z M46.4,30c-0.1-0.7-0.7-1.9-1.1-2.8l1.2-0.5c0.5,0.8,1,1.9,1.2,2.7
		L46.4,30z M53.8,27.2c-0.5,1-1,2.1-1.5,2.7l-1.2-0.4c0.5-0.8,1-1.9,1.2-2.8L53.8,27.2z"/>
	<path class="st0" d="M55.4,26.8h5.2v1.1h-1.4V29h1.3v7.5h-1V36h-3v0.7h-1V29h1.2v-1.1h-1.4v-1.1H55.4z M59.6,34.9v-2.5l0,0h-0.4
		c-0.6,0-0.8-0.2-0.8-0.9v-1.4h-0.5v0.8c0,0.6-0.1,1.4-0.8,2c-0.1-0.1-0.4-0.3-0.6-0.5V35C56.6,34.9,59.6,34.9,59.6,34.9z M56.6,30
		v2.3c0.5-0.4,0.6-1,0.6-1.4V30H56.6z M56.9,33.2h2.3v1h-2.3V33.2z M58.3,27.9h-0.5V29h0.5V27.9z M59.6,30h-0.5v1.4
		c0,0.2,0,0.2,0.1,0.2h0.2c0.1,0,0.1,0,0.1,0V30H59.6z M64,35.3c0.4,0,0.5-0.3,0.6-1.7c0.3,0.2,0.8,0.4,1.2,0.6
		c-0.1,1.9-0.5,2.4-1.6,2.4h-1.4c-1.2,0-1.6-0.4-1.6-1.7v-4.5H64v-2.2h-3V27h4.2v4.7h-2.9v3.2c0,0.4,0.1,0.6,0.5,0.6
		C62.8,35.3,64,35.3,64,35.3z"/>
	<path class="st0" d="M70.9,29.4c0,0.4-0.1,0.9-0.1,1.3h4.8c0,0,0,0.4-0.1,0.6c-0.2,3-0.4,4.2-0.9,4.7c-0.3,0.3-0.7,0.5-1.2,0.6
		c-0.4,0.1-1.2,0.1-1.9,0c0-0.4-0.2-1-0.5-1.3c0.8,0.1,1.5,0.1,1.9,0.1c0.3,0,0.4,0,0.6-0.1c0.3-0.3,0.5-1.2,0.6-3.2h-3.5
		c-0.3,1.9-1.2,3.6-3.2,4.7c-0.2-0.3-0.6-0.8-1-1.1c2.6-1.4,2.8-3.9,3-6.2h-2.8v-1.2h4.7c-0.2-0.4-0.4-1-0.7-1.4l1.3-0.5
		c0.3,0.5,0.6,1.2,0.8,1.6L72,28.1h4.6v1.3H70.9z"/>
	<path class="st0" d="M82.1,33.5c-1.4,0.6-3.1,1.4-4.3,1.9L77.4,34c0.4-0.1,0.9-0.3,1.4-0.6L78.6,27l1.4,0l0.2,6
		c0.6-0.2,1.1-0.5,1.7-0.7L82.1,33.5z M86.7,36.6c-0.4-0.7-1.2-1.7-2.1-2.7c-0.8,1.2-1.9,2-3.4,2.7c-0.2-0.3-0.8-0.9-1-1.2
		c3.5-1.3,4.6-4,5-8.6l1.4,0.1c-0.2,2.3-0.6,4.1-1.4,5.6c0.9,1,1.9,2.1,2.5,2.8L86.7,36.6z M82.5,31c-0.3-0.8-1-1.9-1.7-2.8l1.2-0.6
		c0.7,0.8,1.4,1.9,1.7,2.6L82.5,31z"/>
	<path class="st0" d="M98.3,30.2c-0.4,1.7-1.2,3-2.1,4.1c0.8,0.5,1.7,0.9,2.7,1.1c-0.3,0.3-0.7,0.9-0.9,1.2
		c-1.1-0.3-2.1-0.8-2.9-1.4c-1,0.7-2.1,1.2-3.3,1.5c-0.1-0.3-0.5-0.9-0.8-1.2c1.1-0.3,2.1-0.7,3-1.3c-0.8-0.8-1.3-1.9-1.8-3.1H92
		c-0.3,1.8-0.9,3.8-2.7,5.3c-0.2-0.3-0.7-0.9-1-1.1c2.2-1.9,2.4-4.6,2.4-6.4v-0.8H89v-1.3h7c-0.2,1-0.4,2.2-0.6,3.1H97l0.3-0.1
		L98.3,30.2z M92.1,28.9c0,0.3,0,0.6,0,1h1.8c0.1-0.6,0.3-1.2,0.5-1.8h-2.2L92.1,28.9C92.2,28.9,92.1,28.9,92.1,28.9z M93.4,31.1
		c0.3,0.8,0.9,1.7,1.5,2.3c0.6-0.6,1.1-1.4,1.4-2.3C96.3,31.1,93.4,31.1,93.4,31.1z"/>
	<path class="st0" d="M101.2,31.5c-0.3-0.3-1.2-0.8-1.8-1.1l0.7-1c0.6,0.2,1.4,0.6,1.9,1L101.2,31.5z M102.3,33.1
		c-0.4,1.2-0.9,2.4-1.4,3.5l-1.2-0.7c0.4-0.8,1.1-2.2,1.5-3.5L102.3,33.1z M101.7,28.5c-0.3-0.3-1.1-0.9-1.8-1.2l0.8-1
		c0.6,0.3,1.4,0.7,1.8,1.1L101.7,28.5z M107.9,30.3c0.6,0.6,1.2,1.1,2.1,1.4c-0.3,0.2-0.6,0.7-0.8,1c-0.1-0.1-0.3-0.1-0.4-0.2
		c0.6,0.8,1,1.7,1.2,2.4l-1.1,0.6c-0.2-0.8-0.8-1.9-1.4-2.8l0.9-0.4c-0.8-0.5-1.4-1.2-1.9-2h-1c-0.5,0.9-1.1,1.7-2,2.3l1,0.3
		c-0.3,0.9-0.7,1.9-1.4,2.6l-1-0.7c0.6-0.6,1.1-1.4,1.3-2.2c-0.2,0.1-0.5,0.3-0.8,0.4c-0.2-0.3-0.6-0.8-0.8-1c0.9-0.4,1.6-1,2.1-1.7
		h-1.6v-1.2h2.3c0.1-0.3,0.2-0.7,0.3-1h-2.1v-1.2h6.5v1.2h-3c-0.1,0.3-0.2,0.7-0.3,1h3.7v1.2L107.9,30.3L107.9,30.3z M107,32.7
		c0.3,0.7,0.7,1.7,0.8,2.3l-1,0.4c-0.1-0.6-0.4-1.6-0.7-2.3v2.2c0,0.6-0.1,0.9-0.5,1.1c-0.3,0.2-0.8,0.2-1.6,0.2
		c-0.1-0.3-0.2-0.8-0.3-1.2c0.4,0,0.8,0,1,0s0.2,0,0.2-0.1v-3.9h1.2v1.7L107,32.7z"/>
	<path class="st0" d="M115.7,28.3c0,0,0,0.4,0,0.6c-0.1,4.7-0.2,6.4-0.6,6.9c-0.3,0.3-0.5,0.5-0.8,0.6s-0.8,0.1-1.3,0.1
		c0-0.3-0.1-1-0.3-1.3c0.4,0,0.8,0.1,1,0.1c0.1,0,0.3-0.1,0.3-0.2c0.2-0.3,0.3-1.7,0.3-5.4h-1.1c-0.1,3-0.5,5.5-1.9,7
		c-0.2-0.3-0.6-0.8-1-1c1.2-1.4,1.5-3.5,1.6-6.1h-1.3v-1.3h1.3c0-0.6,0-1.2,0-1.8h1.3c0,0.6,0,1.2,0,1.8
		C113.2,28.3,115.7,28.3,115.7,28.3z M120.4,27.6v8.8H119v-0.7h-1.4v0.8h-1.2v-8.8h4V27.6z M119,34.4v-5.5h-1.4v5.5H119z"/>
	<path class="st0" d="M127.8,34c1.3,0.5,3,1.1,4,1.7l-0.6,1.1c-1-0.6-3-1.4-4.4-1.9l0.5-0.8h-0.4c-0.6,1.4-1.7,2.2-4.7,2.7
		c-0.1-0.3-0.4-0.9-0.6-1.2c2.2-0.3,3.2-0.8,3.8-1.5H122V33h3.7c0-0.2,0.1-0.3,0.1-0.6h-4.1v-1.1h4.2v-0.6h-3.2v-1.1h3.2V29H122
		v-1.2h2.1c-0.1-0.3-0.4-0.7-0.6-1l1.2-0.5c0.3,0.4,0.7,0.9,0.8,1.3l-0.3,0.1h2.4c0.3-0.4,0.6-1,0.8-1.4l1.4,0.3
		c-0.3,0.4-0.5,0.8-0.8,1.1h2.1V29h-3.9v0.6h3.4v1.1h-3.4v0.6h4.4v1H127c0,0.2-0.1,0.4-0.1,0.6h4.3V34H127.8L127.8,34L127.8,34z"/>
	<path class="st0" d="M138.6,30.2c-0.1,0.1-0.1,0.2-0.2,0.3c1.2,1.3,2.8,2.1,4.4,2.7c-0.3,0.3-0.6,0.7-0.8,1.1
		c-0.4-0.2-0.8-0.3-1.1-0.6v3h-1.4v-0.3h-3.8v0.3h-1.3v-2.9c-0.4,0.2-0.8,0.3-1.2,0.6c-0.2-0.3-0.5-0.8-0.8-1c2.1-0.7,3.9-1.9,5-3.6
		L138.6,30.2z M134.4,29.6H133v-2.3h4.1c-0.1-0.3-0.2-0.5-0.3-0.7l1.4-0.3c0.1,0.3,0.3,0.7,0.5,1h3.8v2.3h-1.4v-1.2h-6.8L134.4,29.6
		C134.3,29.6,134.4,29.6,134.4,29.6z M137,29.1c-0.7,1-1.8,1.9-2.8,2.5c-0.2-0.3-0.6-0.8-0.9-1c1-0.4,1.9-1.1,2.5-1.9L137,29.1z
		 M139.6,35.2V34h-3.8v1.2H139.6z M139.7,32.8c-0.6-0.4-1.2-1-1.9-1.6c-0.5,0.6-1.1,1.1-1.7,1.6H139.7z M139.3,28.6
		c1,0.6,2.1,1.4,2.8,2l-1,0.8c-0.6-0.6-1.7-1.5-2.7-2.1L139.3,28.6z"/>
	<path class="st0" d="M145.4,31.6c-0.3-0.3-1.2-0.9-1.8-1.3l0.8-0.9c0.6,0.3,1.4,0.8,1.8,1.2L145.4,31.6z M143.7,35.8
		c0.4-0.8,1-2.2,1.4-3.5l1,0.7c-0.4,1.2-0.8,2.4-1.3,3.5L143.7,35.8z M153.7,29.9c-0.3,1.8-0.9,3.2-1.7,4.3c0.6,0.6,1.3,1,2.1,1.4
		c-0.3,0.3-0.7,0.8-0.8,1c-0.8-0.3-1.4-0.9-2-1.5c-0.6,0.6-1.2,1.1-2,1.5c-0.1-0.3-0.5-0.8-0.8-1v1h-1.2v-4.4
		c-0.2,0.2-0.3,0.4-0.6,0.6c-0.2-0.3-0.6-0.6-0.8-0.8c0.8-0.8,1.7-2.3,2-3.4h-1.3v-0.7l-0.8,0.8c-0.3-0.4-1.1-1-1.7-1.4l0.8-0.8
		c0.6,0.3,1.2,0.8,1.6,1.2v-0.3h3c-0.1-0.3-0.2-0.6-0.3-0.8l1.2-0.3c0.2,0.3,0.4,0.8,0.6,1.2h2.9v1.2h-3.6l1,0.3
		c-0.1,0.2-0.2,0.5-0.3,0.8h1.6l0.2-0.1L153.7,29.9z M149.1,29c-0.2,0.5-0.4,1-0.7,1.4v1.7c0.8-0.9,1.4-2.3,1.7-3.4H148L149.1,29z
		 M148.4,35.7c0.8-0.3,1.4-0.8,2-1.4c-0.3-0.5-0.7-1-1-1.7c-0.1,0.2-0.3,0.4-0.5,0.6c-0.1-0.1-0.3-0.3-0.6-0.6v3.1H148.4z
		 M150.2,31.6c0.3,0.6,0.6,1.2,1,1.7c0.1-0.3,0.3-0.5,0.4-0.8C151.3,32.2,150.6,31.8,150.2,31.6L150.2,31.6z M150.6,30.7L150.6,30.7
		c0.4,0.3,1,0.7,1.3,1c0.1-0.3,0.3-0.7,0.3-1H150.6z"/>
	<path class="st0" d="M154.6,34.7l0.8-1c0.5,0.5,1,0.8,1.8,0.8s1.4-0.5,1.4-1.4s-0.6-1.4-1.4-1.4c-0.5,0-0.8,0.1-1.2,0.4l-0.8-0.5
		l0.2-4h4.3V29h-2.9l-0.1,1.7c0.3-0.1,0.6-0.2,1-0.2c1.4,0,2.5,0.8,2.5,2.5c0,1.7-1.4,2.8-2.8,2.8C156.1,35.8,155.2,35.3,154.6,34.7
		z"/>
	<path class="st0" d="M161.3,31.7c0-2.7,1.1-4.1,2.8-4.1s2.8,1.4,2.8,4.1s-1.1,4.2-2.8,4.2C162.4,35.8,161.3,34.4,161.3,31.7z
		 M165.3,31.7c0-2.2-0.6-2.8-1.2-2.8s-1.2,0.6-1.2,2.8s0.6,2.9,1.2,2.9S165.3,33.9,165.3,31.7z"/>
	<path class="st0" d="M167.7,30c0-1.7,0.8-2.6,2-2.6s2,1,2,2.6c0,1.7-0.8,2.6-2,2.6S167.7,31.6,167.7,30z M170.5,30
		c0-1.2-0.3-1.7-0.8-1.7s-0.8,0.5-0.8,1.7s0.3,1.7,0.8,1.7S170.5,31.1,170.5,30z M174.4,27.3h1l-4.4,8.5h-1L174.4,27.3z M173.6,33.3
		c0-1.7,0.8-2.6,2-2.6s2,1,2,2.6c0,1.7-0.8,2.6-2,2.6C174.5,35.9,173.6,34.8,173.6,33.3z M176.5,33.3c0-1.2-0.3-1.7-0.8-1.7
		s-0.8,0.5-0.8,1.7s0.3,1.7,0.8,1.7C176.1,34.9,176.5,34.4,176.5,33.3z"/>
	<path class="st0" d="M182.8,33.1c0.8-0.3,1.4-0.8,1.4-1.3h-0.1c-0.6,0-1-0.3-1-1c0-0.6,0.5-1,1.1-1c0.8,0,1.2,0.6,1.2,1.5
		c0,1.2-0.8,2.3-2.2,2.7L182.8,33.1z"/>
	<path class="st0" d="M3,55.3c-0.2,0.4-0.4,0.8-0.7,1.2v6.3H1.1v-4.7c-0.1,0.2-0.3,0.3-0.5,0.6c-0.1-0.3-0.4-1-0.6-1.3
		c0.7-0.6,1.4-1.6,1.9-2.5L3,55.3z M2.8,53c-0.6,1-1.4,2-2.1,2.7c-0.1-0.3-0.4-0.8-0.6-1c0.6-0.6,1.3-1.4,1.6-2.1L2.8,53z M6.4,61.7
		c0,0.5-0.1,0.8-0.3,1s-0.6,0.2-1.2,0.2c0-0.3-0.1-0.8-0.3-1c0.3,0,0.5,0,0.6,0s0.1,0,0.1-0.1V61c-0.3,0.2-0.8,0.3-1.1,0.6L4,60.9
		c-0.1,0.8-0.3,1.4-0.7,2.1c-0.1-0.2-0.6-0.6-0.8-0.7c0.6-1,0.6-2.4,0.6-3.5v-1.7h3.3C6.4,57.1,6.4,61.7,6.4,61.7z M5.9,56.9
		c0-0.1-0.1-0.3-0.1-0.4c-1.9,0.3-2.3,0.3-2.6,0.4c-0.1-0.2-0.2-0.8-0.3-1c0.2-0.1,0.4-0.3,0.6-0.6c0.1-0.1,0.2-0.4,0.4-0.8h-1v-1
		h1.4c0.1-0.3,0.3-0.6,0.3-1l1.2,0.3c-0.1,0.2-0.2,0.5-0.3,0.7h1.2v1H5c-0.2,0.5-0.5,0.8-0.7,1.2l1.1-0.1c-0.1-0.2-0.1-0.3-0.2-0.5
		L6,54.9c0.3,0.6,0.6,1.3,0.8,1.8L5.9,56.9z M4.9,59.8c-0.2-0.1-0.5-0.4-0.8-0.6c0,0.3,0,0.8-0.1,1.2c0.3-0.1,0.8-0.3,1.3-0.6v-0.6
		L4.9,59.8z M4.1,58.2v0.7l0.4-0.4c0.3,0.1,0.6,0.3,0.8,0.5v-0.8H4.1L4.1,58.2z M10,55.8c-0.2,1.7-0.4,3.1-0.9,4.3
		c0.3,0.7,0.8,1.4,1.4,1.8c-0.2,0.2-0.6,0.7-0.8,1c-0.6-0.4-1-1-1.2-1.6c-0.3,0.6-0.8,1.2-1.4,1.7c-0.1-0.3-0.4-0.8-0.6-1
		c0.7-0.6,1.2-1.2,1.5-2c-0.3-0.8-0.4-1.5-0.6-2.2c-0.1,0.1-0.2,0.3-0.3,0.5c-0.1-0.3-0.5-0.8-0.7-1c0.7-1.1,1-2.9,1.2-4.7l1.1,0.1
		c-0.1,0.6-0.1,1.3-0.3,1.9h2v1.1C10.5,55.8,10,55.8,10,55.8z M8.1,55.8C8.1,55.9,8,56,8,56.1c0.1,0.8,0.2,1.6,0.4,2.3
		c0.2-0.8,0.3-1.7,0.4-2.8L8.1,55.8L8.1,55.8z"/>
	<path class="st0" d="M13.3,54.8v1.9c0,1.8-0.1,4.5-1.2,6.2c-0.3-0.2-0.8-0.6-1.1-0.8c0.9-1.6,1-3.9,1-5.5v-3.1h4.2
		c-0.1-0.3-0.2-0.6-0.3-0.8l1.3-0.3c0.2,0.3,0.4,0.8,0.5,1.1h3.7v1.2L13.3,54.8L13.3,54.8z M18.8,58.9c0.3,1.5,0.8,2.6,1.2,2.6
		c0.2,0,0.3-0.5,0.3-1.4c0.3,0.3,0.7,0.5,1,0.6c-0.1,1.7-0.6,2.1-1.4,2.1c-1.2,0-2-1.6-2.4-3.8h-2.1v1.2l1.9-0.4c0,0.3,0,0.8,0,1.1
		c-2.3,0.6-2.8,0.8-3,0.9c-0.1-0.3-0.3-0.8-0.5-1c0.2-0.1,0.4-0.3,0.4-0.8v-4.3l0,0l0,0c2-0.1,4.3-0.3,5.7-0.6l0.9,1
		c-0.6,0.1-1.4,0.3-2.2,0.3c0,0.5,0.1,0.9,0.1,1.4H21V59L18.8,58.9L18.8,58.9z M17.4,57.8c-0.1-0.4-0.1-0.8-0.1-1.2
		c-0.6,0.1-1.3,0.1-1.9,0.1v1.1C15.4,57.8,17.4,57.8,17.4,57.8z M15.6,61.6h2.8v1h-2.8C15.6,62.6,15.6,61.6,15.6,61.6z"/>
	<path class="st0" d="M32.2,58.1h-2.7v3.2c0,0.8-0.1,1.1-0.7,1.3c-0.5,0.2-1.2,0.2-2.3,0.2c-0.1-0.4-0.3-1-0.5-1.3
		c0.7,0,1.5,0,1.7,0s0.3-0.1,0.3-0.3v-3.1h-5.8v-1.3H28v-1.3h1.4v1.3h2.7L32.2,58.1L32.2,58.1z M23.9,56.2h-1.3v-2.3h4.2
		c-0.1-0.3-0.3-0.7-0.4-1l1.3-0.3c0.2,0.4,0.5,1,0.6,1.4H32v2.3h-1.4v-1.1H24v1C24,56.2,23.9,56.2,23.9,56.2z M24.7,58.4
		c0.7,0.6,1.4,1.5,1.7,2.2l-1.1,0.8c-0.3-0.6-1-1.6-1.7-2.3L24.7,58.4z"/>
	<path class="st0" d="M37.3,55.4h-4.1v-1h1.9c-0.1-0.4-0.4-1-0.7-1.4l1-0.5c0.3,0.5,0.6,1,0.8,1.4l-0.7,0.4h1.9
		C37.3,54.4,37.3,55.4,37.3,55.4z M43.1,59.8c-0.3,0.7-0.9,1.2-1.5,1.7c0.6,0.2,1.3,0.3,2.1,0.3c-0.3,0.3-0.6,0.8-0.7,1
		c-1-0.1-1.9-0.3-2.6-0.8c-0.8,0.3-1.8,0.6-2.8,0.8c-0.1-0.3-0.4-0.8-0.6-1v0.4h-2.3v0.5h-1.1V59h3.3v3c0.8-0.1,1.5-0.2,2.2-0.4
		c-0.3-0.3-0.6-0.6-0.9-0.9l0.4-0.1h-1.2v-0.9H42l0.2-0.1L43.1,59.8z M38.9,54.1h-1.5v-1h1.5v-0.6H40v2h-1l0.3,0.1
		c-0.1,0.1-0.1,0.3-0.2,0.5h1C40,54.9,40,54.8,40,54.6l0.9-0.2v-1.9H42v0.6h1.4v1H42v0.6h-0.8c0.1,0.2,0.1,0.4,0.2,0.6h1.8v0.8h-1.9
		v0.3h1.6V57h-1.6v0.3h1.6v0.6h-1.6v0.4h2.1v0.9h-4.3v0.1H38v-2.2c-0.1,0.1-0.3,0.3-0.4,0.4c-0.1-0.2-0.4-0.7-0.6-0.9v0.3h-3.2v-1
		H37v0.6c0.6-0.6,1-1.3,1.3-2.1l0.6,0.2C38.9,54.6,38.9,54.1,38.9,54.1z M33.7,57.4h3.2v1h-3.2V57.4z M35.9,60h-1.2v1.2h1.2V60z
		 M40.2,56H39v0.3h1.2V56z M40.2,57H39v0.3h1.2V57z M40.2,58H39v0.4h1.2V58z M39.6,60.4c0.2,0.2,0.5,0.4,0.8,0.6
		c0.3-0.1,0.6-0.3,0.9-0.6H39.6z"/>
	<path class="st0" d="M46.2,57.7c0,1.5-0.1,3.8-1.1,5.2c-0.2-0.2-0.7-0.6-1-0.8c0.8-1.3,0.9-3.2,0.9-4.5V55h9.3v1.1h-8.1
		C46.2,56.1,46.2,57.7,46.2,57.7z M49.2,54.8h-3.6v-1.9h3.6V54.8z M54,58.2c-0.2,1-0.5,1.9-0.9,2.6c0.5,0.5,1,0.9,1.7,1.2
		c-0.3,0.3-0.6,0.7-0.8,1c-0.6-0.3-1.1-0.8-1.5-1.2c-0.5,0.5-1,0.9-1.7,1.2c-0.1-0.2-0.6-0.7-0.8-0.9V63h-1.1v-0.8
		c-1,0.1-2,0.3-2.8,0.3l-0.1-1l0.8-0.1v-2.8h-0.3v-0.9h1.4v-0.4h-1.2v-0.8h3.7v0.8h-1.3v0.4h1.4v0.8H50v0.6c0.6-0.7,1-1.8,1.2-2.9
		l1.1,0.2c-0.1,0.2-0.1,0.5-0.1,0.7h2.3v1L54,58.2L54,58.2z M48,53.6h-1.2v0.5H48V53.6z M47.8,58.6v0.5H49v-0.5H47.8z M47.8,60.1H49
		v-0.5h-1.2V60.1z M48.9,61.2v-0.5h-1.2v0.6L48.9,61.2z M53.6,54.8H50v-1.9h3.7v1.9H53.6z M50,62c0.7-0.3,1.3-0.8,1.7-1.2
		c-0.2-0.3-0.4-0.8-0.6-1.2c-0.1,0.1-0.2,0.3-0.3,0.4c-0.2-0.2-0.6-0.6-0.8-0.8C50,59.2,50,62,50,62z M52.4,53.6h-1.3v0.5h1.3V53.6z
		 M51.8,58.2L51.8,58.2c0,0.6,0.2,1.1,0.5,1.5c0.2-0.5,0.3-1,0.5-1.5H51.8z"/>
	<path class="st0" d="M55.4,53H60v1.1h-1.2v1.1H60v7.5h-1v-0.6h-2.4v0.7h-1v-7.7h1.1V54h-1.2C55.4,54,55.4,53,55.4,53z M59,61.1
		v-2.6l0,0h-0.3c-0.5,0-0.6-0.1-0.6-0.8v-1.4h-0.4v0.8c0,0.6-0.1,1.4-0.6,1.9c-0.1-0.1-0.3-0.3-0.4-0.3v2.5H59V61.1z M56.5,56.2v2.3
		c0.3-0.4,0.4-1,0.4-1.4v-0.8C56.9,56.2,56.5,56.2,56.5,56.2z M56.9,59.4h1.8v1h-1.8V59.4z M58,54.1h-0.4v1.1H58V54.1z M59,56.2
		h-0.4v1.4c0,0.1,0,0.1,0.1,0.1h0.2c0.1,0,0.1,0,0.1,0S59,56.2,59,56.2z M65.7,56.7v1.2h-5.3v-1.2h2.2v-1.4h-0.8
		c-0.1,0.5-0.3,0.9-0.5,1.3c-0.3-0.2-0.8-0.5-1.1-0.6c0.5-0.8,0.8-2,0.9-3.2l1.2,0.2c-0.1,0.3-0.1,0.7-0.2,1.1h0.6v-1.7h1.2v1.7h1.7
		v1.2h-1.7v1.4H65.7L65.7,56.7z M60.7,58.5h4.7v4.3h-1.2v-0.6H62v0.6h-1.2L60.7,58.5L60.7,58.5z M61.9,59.7v1.4h2.2v-1.4H61.9z"/>
	<path class="st0" d="M74.3,58.2c0.8,0.6,1.8,1.6,2.3,2.3L75.4,61c-0.1-0.3-0.4-0.6-0.8-0.9l-2.4,0.2v1.4c0,0.6-0.1,0.9-0.6,1
		c-0.4,0.1-1,0.2-1.8,0.2c-0.1-0.3-0.3-0.8-0.5-1.1c0.5,0,1.1,0,1.3,0c0.1,0,0.2,0,0.2-0.1v-1.2c-2.6,0.2-3.1,0.3-3.5,0.4
		c-0.1-0.2-0.2-0.8-0.3-1.1c0.4-0.1,0.8-0.2,1.5-0.4c0.3-0.1,0.9-0.3,1.7-0.7c-1.8,0.1-2.1,0.2-2.4,0.3c-0.1-0.2-0.2-0.8-0.3-1
		c0.3-0.1,0.6-0.1,0.9-0.3c0.3-0.1,1.3-0.6,2.2-1.1c-1.5,0.2-3.1,0.5-4.2,0.6L66.2,56l0.7-0.1v-2.5H68v2.2l0.7-0.1v-3H70v1h1.3v1H70
		v0.9l1.4-0.1v1h-0.1l0.7,0.6c-0.4,0.3-0.9,0.5-1.3,0.7l1.7-0.1c0.3-0.2,0.7-0.4,1-0.6l0.8,0.9c-1,0.6-2.1,1.1-3.2,1.6l2.8-0.2
		c-0.2-0.2-0.4-0.3-0.6-0.6L74.3,58.2z M70,61.1c-0.7,0.6-1.7,1.2-2.6,1.6c-0.2-0.2-0.7-0.6-1-0.8c0.8-0.3,1.8-0.8,2.3-1.2L70,61.1z
		 M73.5,56.8c-1.3,0-1.7-0.3-1.7-1.4v-2.8h1.3v1h3v1h-3v0.8c0,0.3,0.1,0.4,0.6,0.4H75c0.3,0,0.4-0.1,0.5-0.8
		c0.3,0.2,0.8,0.3,1.1,0.4c-0.1,1.1-0.5,1.4-1.4,1.4L73.5,56.8L73.5,56.8z M73.8,60.5c0.8,0.4,1.9,1,2.6,1.4l-1.1,0.7
		c-0.6-0.4-1.7-1.1-2.5-1.5L73.8,60.5z"/>
	<path class="st0" d="M82.1,54.1l1,0.3c-0.5,4.5-2.1,7.2-4.6,8.5c-0.2-0.3-0.8-0.9-1.1-1.1c1.2-0.6,2.3-1.5,3-2.8
		c-0.3-0.5-0.9-1-1.4-1.6c-0.2,0.3-0.3,0.6-0.6,0.8c-0.2-0.2-0.8-0.6-1.1-0.8c1-1.1,1.6-2.9,1.9-4.8l1.3,0.2
		c-0.1,0.5-0.2,0.9-0.3,1.4h1.7L82.1,54.1z M79.8,55.4c-0.1,0.3-0.2,0.6-0.3,0.8c0.4,0.4,1,1,1.4,1.4c0.3-0.7,0.4-1.4,0.6-2.2H79.8z
		 M86.7,59.3c-0.3-0.6-1.1-1.4-1.8-2.1v5.7h-1.4V52.5h1.4v3.7l0.5-0.3c0.8,0.8,1.9,1.9,2.4,2.5L86.7,59.3z"/>
	<path class="st0" d="M91.5,59.4c0-0.1-0.1-0.3-0.1-0.5c-2,0.3-2.3,0.4-2.6,0.5c-0.1-0.3-0.3-0.8-0.4-1.2c0.3-0.1,0.6-0.3,0.9-0.8
		c0.1-0.1,0.3-0.5,0.7-0.9c-0.8,0.1-1,0.1-1.2,0.3c-0.1-0.3-0.3-0.8-0.4-1.1c0.2-0.1,0.4-0.3,0.6-0.6s0.9-1.5,1.2-2.7l1.2,0.5
		c-0.3,0.9-0.9,1.9-1.4,2.6l0.8-0.1c0.3-0.5,0.6-1,0.8-1.4l1.1,0.7c-0.4,0.8-0.9,1.5-1.4,2.3l0.8-0.2c0.3,0.8,0.5,1.7,0.6,2.3
		L91.5,59.4z M89.9,60c-0.1,1-0.3,2.1-0.5,2.8c-0.2-0.1-0.7-0.3-1-0.3c0.3-0.7,0.4-1.7,0.5-2.6L89.9,60z M91,59.8
		c0.1,0.8,0.2,1.7,0.3,2.3l-1,0.1c0-0.6-0.1-1.6-0.2-2.3L91,59.8z M91.2,58c-0.1-0.3-0.1-0.6-0.2-0.8c-0.3,0.3-0.5,0.6-0.8,0.9
		L91.2,58z M92,59.5c0.2,0.5,0.3,1.1,0.5,1.5l-0.9,0.3c-0.1-0.4-0.3-1.1-0.4-1.5L92,59.5z M95.1,58.7c-0.3,1.7-1.2,3-2.3,3.7
		c-0.1-0.3-0.5-0.7-0.8-0.9c0.7-0.3,1.2-1.1,1.6-1.9h-1v-1H94h0.2L95.1,58.7z M98.7,58.7c-0.5,0.4-1,0.8-1.4,1.2
		c0.4,0.6,1,1.2,1.6,1.5c-0.3,0.3-0.7,0.7-0.8,1c-0.6-0.4-1.2-1.1-1.6-1.9v1c0,0.6-0.1,0.9-0.5,1.1c-0.3,0.2-0.9,0.2-1.6,0.2
		c-0.1-0.3-0.2-0.8-0.3-1.2c0.4,0,0.8,0,1,0s0.2,0,0.2-0.1v-3.8H93v-4h1.6c0.1-0.4,0.3-0.8,0.3-1.2l1.5,0.3
		c-0.1,0.3-0.3,0.6-0.5,0.9h2.3v4h-1.9V58c0.1,0.3,0.2,0.6,0.3,0.9c0.3-0.3,0.8-0.8,1-1.1L98.7,58.7z M94.2,55.3H97v-0.6h-2.8V55.3z
		 M94.2,56.8H97v-0.6h-2.8V56.8z"/>
	<path class="st0" d="M105.1,54.7v1.7l0.2-0.3c1.2,0.6,2.9,1.5,3.8,2.2l-1,1.2c-0.6-0.6-1.9-1.4-3-2v5.2h-1.4v-8.1h-4v-1.3h9.9v1.3
		L105.1,54.7L105.1,54.7z"/>
	<path class="st0" d="M120.6,54.2c0,0,0,0.4,0,0.6c-0.1,5-0.3,6.7-0.7,7.2c-0.3,0.4-0.6,0.6-1,0.6s-1.1,0.1-1.7,0
		c0-0.3-0.2-0.9-0.4-1.3c0.7,0.1,1.4,0.1,1.7,0.1c0.2,0,0.3-0.1,0.5-0.2c0.3-0.3,0.5-2,0.6-5.9H117c-0.3,0.7-0.6,1.2-1,1.7
		c-0.2-0.1-0.6-0.4-0.8-0.6v5.2h-3v0.8H111v-8.1h1.2c0.1-0.6,0.3-1.2,0.3-1.8l1.4,0.2c-0.2,0.6-0.4,1.1-0.6,1.6h1.7v1.8
		c0.6-0.9,1.2-2.3,1.5-3.6l1.2,0.3c-0.1,0.5-0.3,1-0.4,1.4L120.6,54.2L120.6,54.2z M113.9,55.5h-1.7v1.8h1.7V55.5z M113.9,60.6v-2.1
		h-1.7v2.1H113.9z M117.6,60c-0.3-0.7-1-1.7-1.5-2.6l1-0.6c0.6,0.8,1.3,1.8,1.7,2.5L117.6,60z"/>
	<path class="st0" d="M130.7,61.5c0.1,0,0.1,0,0.1-0.1s0.1-0.1,0.1-0.4c0-0.2,0-0.8,0-1.4c0.3,0.2,0.7,0.5,1,0.6
		c0,0.6-0.1,1.3-0.1,1.7c-0.1,0.3-0.2,0.6-0.3,0.7c-0.1,0.1-0.4,0.2-0.7,0.2h-0.6c-0.3,0-0.6-0.1-0.8-0.3s-0.3-0.5-0.3-1.4v-6.8
		h-1.2v3.2c0,1.7-0.1,4.1-1.2,5.5c-0.2-0.2-0.8-0.6-1.1-0.8c-0.1,0.1-0.2,0.3-0.3,0.3c-0.3,0.2-0.8,0.3-1.5,0.3
		c0-0.3-0.2-0.9-0.3-1.2c0.4,0,0.8,0,0.9,0s0.2-0.1,0.2-0.2v-2.6c-0.3,0.3-0.6,0.6-0.8,0.8l-0.3-0.7c-0.1,1.4-0.3,2.9-0.8,4
		c-0.3-0.2-0.8-0.5-1.1-0.6c0.7-1.5,0.8-3.7,0.8-5.3v-4.1h3.6v8.4c0,0.3,0,0.6-0.1,0.7c0.8-1.2,0.9-3.1,0.9-4.6v-4.5h3.8v8
		C130.6,61.2,130.6,61.3,130.7,61.5c0,0,0.1,0,0.1,0S130.7,61.5,130.7,61.5z M123.5,56.9c0,0.4,0,0.9,0,1.4c0.3-0.2,0.8-0.5,1.2-0.8
		v-0.8l-0.3,0.3c-0.1-0.2-0.5-0.6-0.8-0.9L123.5,56.9L123.5,56.9z M123.5,54.2v1.2l0.3-0.3c0.3,0.2,0.6,0.5,0.8,0.8v-1.8L123.5,54.2
		L123.5,54.2z"/>
	<path class="st0" d="M140.8,56.1c0.4,0,1.2-0.1,1.5-0.1c0,0.3,0.1,0.6,0.1,0.8c-0.3,0.1-0.9,0.1-1.4,0.1h-2.6c-1,0-1.3-0.3-1.4-1
		l-1.9,0.1v-0.6l1.9-0.1V55h-2.2v2c0,1.7-0.1,4.2-1.1,5.8c-0.3-0.2-0.8-0.6-1.1-0.7c0.9-1.4,1-3.6,1-5.1v-2.8h3.5v-1.7h1.3V53h3.5
		v0.8h-3.5v0.3h3.2l0.2-0.1l1,0.3c-0.2,0.6-0.5,1.2-0.7,1.6l-1.1-0.3c0.1-0.1,0.1-0.3,0.2-0.6h-3v0.3l2.4-0.1v0.6l-2.4,0.1
		c0,0.1,0.1,0.2,0.5,0.2C138.6,56.1,140.8,56.1,140.8,56.1z M141.5,61.8c0,0.5-0.1,0.7-0.4,0.8c-0.3,0.1-0.8,0.1-1.4,0.1
		c-0.1-0.3-0.2-0.6-0.3-0.8c0.3,0,0.6,0,0.8,0c0.1,0,0.1,0,0.1-0.1v-0.3c-1,0.2-2.1,0.3-3,0.5l-0.3-0.8c0.6-0.1,1.4-0.1,2.3-0.2
		c-0.6-0.2-1.4-0.4-2.1-0.5l0.3-0.5c0.8,0.1,1.9,0.3,2.4,0.5l-0.2,0.5l0.6-0.1V60H137v0.6c0,0.8-0.1,1.7-0.8,2.3
		c-0.2-0.2-0.8-0.6-1-0.8c0.6-0.5,0.7-1,0.7-1.5v-1.1h5.7L141.5,61.8L141.5,61.8z M135.2,57.1h6.9v2.1h-6.9V57.1z M136.4,58h1.6
		v-0.3h-1.6V58z M136.4,58.7h1.6v-0.3h-1.6V58.7z M140.8,57.6h-1.7V58h1.7V57.6z M140.8,58.5h-1.7v0.3h1.7V58.5z"/>
	<path class="st0" d="M147.9,57.8c0,1-0.8,1.8-1.8,1.8s-1.8-0.8-1.8-1.8s0.8-1.8,1.8-1.8C147.1,56,147.9,56.7,147.9,57.8z
		 M147.1,57.8c0-0.6-0.4-1-1-1s-1,0.4-1,1s0.5,1,1,1C146.6,58.7,147.1,58.3,147.1,57.8z"/>
</g>
<g>
	<path class="st0" d="M178,28.4l0.5-0.9l-0.9-0.4l0.2-0.6l1,0.2l0.1-1h0.6l0.1,1l1-0.2l0.2,0.6l-0.9,0.4l0.5,0.9l-0.5,0.3l-0.7-0.8
		l-0.7,0.8L178,28.4z"/>
</g>
</svg>
