<?xml version="1.0" encoding="utf-8"?>
<!-- Generator: Adobe Illustrator 26.0.3, SVG Export Plug-In . SVG Version: 6.00 Build 0)  -->
<svg version="1.1" id="レイヤー_1" xmlns="http://www.w3.org/2000/svg" xmlns:xlink="http://www.w3.org/1999/xlink" x="0px"
	 y="0px" viewBox="0 0 310.3 91.3" style="enable-background:new 0 0 310.3 91.3;" xml:space="preserve">
<style type="text/css">
	.st0{fill:#FFFFFF;}
</style>
<g>
	<path class="st0" d="M3.3,6C3.1,7.4,2.6,8.8,1.8,9.9c-0.4-0.4-1.2-1-1.7-1.2c1.3-1.5,1.4-3.6,1.4-5.1V1.8h6
		C7.4,1.3,7.4,0.7,7.3,0.2h1.9c0.1,0.5,0.1,1.1,0.2,1.6h1.8c-0.4-0.4-0.8-0.7-1.2-1l1.3-0.7c0.6,0.4,1.4,1,1.8,1.4l-0.5,0.4h2v1.6
		H9.8c0.2,0.8,0.5,1.5,0.8,2c0.5-0.6,1-1.2,1.4-1.8l1.7,0.5c-0.6,1-1.3,2-2.1,2.8c0.4,0.4,0.9,0.7,1.3,0.7c0.4,0,0.5-0.5,0.6-1.7
		c0.4,0.4,1,0.7,1.5,0.8c-0.3,2.1-0.9,2.6-2.2,2.6c-1,0-1.9-0.5-2.7-1.3C9.4,8.6,8.7,9,7.9,9.4C7.6,9,7.1,8.4,6.8,8
		c0,0.1-0.1,0.2-0.2,0.3C6.4,8.6,6,8.7,5.6,8.8c-0.4,0-1,0.1-1.7,0c0-0.4-0.2-1-0.4-1.4C4,7.5,4.4,7.5,4.7,7.5c0.2,0,0.3,0,0.4-0.1
		C5.2,7.2,5.3,6.8,5.3,6H3.3z M13.1,13.1h1.8v1.7H0.3v-1.7h2V9.5h10.9L13.1,13.1L13.1,13.1z M3.4,3.4L3.4,3.4c0,0.4,0,0.7,0,1h3.7
		c0,0,0,0.4,0,0.6c0,1.4-0.1,2.3-0.3,2.8c0.8-0.3,1.6-0.7,2.3-1.1c-0.5-0.9-1-2-1.3-3.3C7.8,3.4,3.4,3.4,3.4,3.4z M4,13.1h1.3V11H4
		V13.1z M7,11v2.1h1.3V11H7z M10,11v2.1h1.3V11H10z"/>
	<path class="st0" d="M29.1,10.4c-0.7,1.1-1.7,1.9-2.9,2.5c1.5,0.3,3.1,0.4,4.8,0.5c-0.4,0.4-0.7,1-0.9,1.5c-2.3-0.1-4.4-0.5-6.2-1
		c-2,0.7-4.3,1-6.6,1.2c-0.1-0.4-0.4-1.1-0.7-1.4c1.7-0.1,3.4-0.3,5-0.7c-0.6-0.3-1.2-0.6-1.7-1c-0.6,0.4-1.2,0.8-2,1.1
		c-0.2-0.4-0.8-1-1.2-1.3c0.7-0.3,1.3-0.6,1.9-0.9c-0.3-0.3-0.5-0.6-0.8-0.9l1.4-0.5c0.2,0.2,0.4,0.4,0.5,0.7
		c0.4-0.3,0.7-0.6,0.9-0.9h-2.7V2.9h4.4c0-0.2,0.1-0.4,0.1-0.6h-5.7V0.8h13.7v1.5h-6c-0.1,0.2-0.1,0.4-0.2,0.6H29V9h-6.1
		c-0.2,0.2-0.3,0.4-0.4,0.6h5.2L28,9.5L29.1,10.4z M20,4.6h7.2V4H20V4.6z M20,6.3h7.2V5.7H20V6.3z M20,8h7.2V7.4H20V8z M21.2,11.1
		c0.8,0.5,1.7,0.9,2.7,1.2c0.9-0.4,1.7-0.8,2.4-1.3L21.2,11.1L21.2,11.1z"/>
	<path class="st0" d="M35.1,6.6c-0.5,0.9-1.2,1.7-1.8,2.3c-0.3-0.4-0.8-1-1.2-1.3c1.1-0.8,2.1-2.2,2.7-3.6h-2.3V2.4h2.6V0.2h1.8v2.3
		h2.3v1.6h-2.3v0.6c0.6,0.4,2.2,1.5,2.5,1.8l-1,1.5c-0.4-0.4-1-1-1.5-1.5v3.3h-1.8V6.6z M32.1,13.4c0.6-0.8,1.1-2.2,1.4-3.3l1.7,0.7
		c-0.3,1.1-0.8,2.6-1.3,3.5L32.1,13.4z M41.3,13.1c0.8,0,0.9-0.2,1-1.8c0.4,0.3,1.2,0.6,1.7,0.7c-0.2,2.3-0.8,2.8-2.5,2.8h-2.9
		c-2.2,0-2.7-0.5-2.7-2.2v-2.2h1.9v2.2c0,0.5,0.2,0.5,1,0.5H41.3z M39.4,9.1l0.3,0.3V1h6.5v8.6h-6.3c0.6,0.6,1.3,1.2,1.7,1.7
		l-1.4,1.2c-0.4-0.6-1.4-1.6-2.1-2.2L39.4,9.1z M41.5,3.4h2.9V2.5h-2.9V3.4z M41.5,5.7h2.9V4.8h-2.9V5.7z M41.5,8.1h2.9v-1h-2.9V8.1
		z M45.2,9.9c0.6,1,1.6,2.4,2,3.2L45.4,14c-0.4-0.8-1.3-2.3-1.9-3.3L45.2,9.9z"/>
	<path class="st0" d="M59.7,10.8c-0.4,0.7-0.9,1.2-1.4,1.7c1.7,0.4,3.2,0.8,4.4,1.2L61,15c-1.2-0.4-2.8-0.9-4.6-1.4
		c-1.8,0.8-4.2,1.2-7.3,1.5c-0.1-0.6-0.4-1.2-0.7-1.6c2-0.1,3.6-0.2,5-0.6c-1-0.2-2.1-0.4-3.1-0.6c0.4-0.4,0.8-1,1.2-1.5h-3V9.2h4.1
		c0.3-0.5,0.6-1,0.8-1.5h-3.9V3.3H53V2.4h-4.2V0.7h13.9v1.6h-4.3v0.9h3.8v4.5h-8.6l1.7,0.4c-0.2,0.4-0.4,0.7-0.6,1.1h3.9
		c0.1-0.3,0.2-0.6,0.4-0.9l1.8,0.4c0,0.2-0.1,0.3-0.2,0.4H63v1.6h-3.3V10.8z M51.1,6.3h1.7V4.8h-1.7V6.3z M53.6,10.8
		c-0.1,0.2-0.3,0.4-0.4,0.6c0.9,0.2,1.9,0.4,2.8,0.6c0.5-0.3,1-0.7,1.4-1.2C57.4,10.8,53.6,10.8,53.6,10.8z M54.6,3.3h1.8V2.4h-1.8
		V3.3z M56.4,6.3V4.8h-1.8v1.5H56.4z M58.2,4.8v1.5h1.9V4.8H58.2z"/>
	<path class="st0" d="M78.7,2.6c0,0,0,0.6,0,0.9c-0.2,7.2-0.4,9.7-1,10.5c-0.4,0.6-0.9,0.8-1.5,0.9c-0.6,0.1-1.6,0.1-2.5,0
		c0-0.5-0.3-1.3-0.6-1.9c1,0.1,2,0.1,2.4,0.1c0.3,0,0.5-0.1,0.7-0.3c0.5-0.5,0.7-2.9,0.8-8.6h-3.4c-0.4,1-0.9,1.8-1.4,2.5
		c-0.3-0.2-0.8-0.6-1.2-0.9v7.5h-4.3v1.2H65V2.7h1.8c0.2-0.8,0.4-1.8,0.5-2.6l2.1,0.3c-0.5,0.8-0.8,1.6-1.1,2.3h2.5v2.6
		C71.7,4,72.5,2,73,0.1l1.8,0.4c-0.2,0.7-0.4,1.4-0.6,2L78.7,2.6L78.7,2.6z M69.1,4.4h-2.5V7h2.5V4.4z M69.1,11.8V8.6h-2.5v3.1
		L69.1,11.8L69.1,11.8z M74.4,10.9c-0.4-1-1.4-2.5-2.2-3.7l1.5-0.8c0.8,1.1,1.9,2.6,2.4,3.6L74.4,10.9z"/>
	<path class="st0" d="M83,9.5c-0.4,1.6-0.9,3.2-1.6,4.3c-0.3-0.3-0.9-0.7-1.3-0.9c0.6-0.9,1.1-2.3,1.4-3.7L83,9.5z M87.7,3.6h-7.3V2
		h3c-0.1-0.5-0.4-1-0.5-1.5l1.7-0.4c0.3,0.6,0.6,1.3,0.7,1.9h2.4C87.7,2,87.7,3.6,87.7,3.6z M85.1,8.8v4.5c0,0.8-0.1,1.2-0.6,1.5
		s-1.1,0.3-2,0.3c-0.1-0.5-0.3-1.1-0.5-1.6c0.5,0,1,0,1.2,0s0.2,0,0.2-0.2V8.8h-2.3V4.5h6.1v4.3H85.1z M82.7,7.3h2.7V5.9h-2.7V7.3z
		 M86.6,9c0.5,0.9,1,2.1,1.2,2.8l-1.4,0.7c-0.2-0.8-0.6-2-1.1-2.9L86.6,9z M93.4,13.4c0.1,0,0.2,0,0.3-0.1c0.1,0,0.1-0.2,0.2-0.5
		c0-0.3,0.1-0.9,0.1-1.8c0.3,0.3,1,0.6,1.5,0.8c0,0.8-0.1,1.6-0.2,2s-0.3,0.6-0.6,0.8c-0.3,0.1-0.7,0.2-1,0.2h-1
		c-0.4,0-0.8-0.1-1.1-0.4c-0.3-0.3-0.4-0.6-0.4-1.7V9c-0.5,2.4-1.5,4.5-3.1,6.1c-0.3-0.4-0.8-0.9-1.3-1.2c2.2-2,2.9-4.9,3.2-8.1
		h-1.9V4.2h2c0.1-1.4,0-2.7,0.1-4H92c0,1.3,0,2.7-0.1,4h3.4v1.7h-3.5c0,0.3-0.1,0.5-0.1,0.8h1.2v6.1c0,0.3,0,0.4,0.1,0.5
		s0.1,0.1,0.2,0.1H93.4z M93.4,4c-0.3-0.7-1-1.8-1.6-2.5l1.3-0.8c0.6,0.7,1.4,1.8,1.7,2.4L93.4,4z"/>
	<path class="st0" d="M104.8,13c0.4,0,0.8,0,1.3,0c0.9,0,4,0,5.1,0c-0.3,0.4-0.5,1.3-0.6,1.8H106c-2.9,0-4.9-0.4-6.3-2.3
		c-0.6,1.1-1.3,1.9-2.2,2.5c-0.3-0.4-1-1.1-1.4-1.3c1.6-1,2.6-2.7,3-4.9l1.9,0.3c-0.1,0.5-0.2,1-0.4,1.5c0.5,1.1,1.3,1.7,2.3,2v-4
		h-6.2V7h14.1v1.7h-5.9v1.2h4.9v1.6h-4.9L104.8,13L104.8,13z M109.2,6.3H98.1V0.7h11.1V6.3z M107.2,2h-7.3v0.8h7.3V2z M107.2,4.1
		h-7.3v0.8h7.3V4.1z"/>
	<path class="st0" d="M117.1,12.5c0.9,0.3,2,0.4,3.3,0.4c1.2,0,5.5,0,6.9-0.1c-0.3,0.4-0.6,1.3-0.7,1.9h-6.3c-3,0-4.9-0.4-6.1-2.2
		c-0.2,1-0.4,1.9-0.7,2.6c-0.3-0.2-1.1-0.7-1.5-0.8c0.8-1.6,0.9-4.2,0.9-6.9l1.7,0.1c0,0.7,0,1.5-0.1,2.2c0.2,0.7,0.5,1.3,0.9,1.7
		V6.6h-3V4.9h2.7V3.4h-2.3V1.8h2.3V0.2h1.8v1.6h2.3v1.6h-2.3v1.5h2.5v0.4c1.1-0.7,1.6-1.6,1.9-3h-1.7V0.8h7.1c0,0,0,0.4,0,0.7
		c-0.1,2.7-0.3,3.8-0.6,4.3c-0.3,0.4-0.6,0.5-1.1,0.5c-0.4,0-1.1,0.1-1.8,0c0-0.5-0.2-1.2-0.5-1.6c0.6,0.1,1.1,0.1,1.3,0.1
		c0.2,0,0.3,0,0.5-0.2c0.1-0.2,0.3-0.8,0.3-2.2h-1.7c-0.4,2-1.2,3.4-2.7,4.3c-0.2-0.2-0.6-0.5-1-0.8v0.7h-2.3v1.7h2.1v1.6h-2.1
		L117.1,12.5L117.1,12.5z M120,6.9h6.3v5H120V6.9z M121.7,10.4h2.6v-2h-2.6V10.4z"/>
	<path class="st0" d="M133.8,8.2c0,0,0,0.5,0,0.7c-0.2,3.5-0.4,4.9-0.9,5.4c-0.3,0.4-0.7,0.6-1.2,0.6c-0.4,0.1-1.2,0.1-2,0
		c0-0.5-0.2-1.3-0.5-1.7c0.6,0.1,1.3,0.1,1.6,0.1s0.4,0,0.5-0.2c0.3-0.3,0.4-1.2,0.6-3.3h-3.7c0.3-1.4,0.5-3.6,0.6-5.3h3.1V2.7h-3.4
		V1h5.1v5.3h-3.3c-0.1,0.6-0.1,1.2-0.2,1.8L133.8,8.2L133.8,8.2z M141.6,15.2c-0.1-0.3-0.2-0.6-0.3-1c-2.6,0.2-5.3,0.4-7.3,0.5
		l-0.2-1.9c1,0,2.3-0.1,3.6-0.2v-1.8h-3V6.4h3V5.1h1.8v1.3h3.1v4.5h-0.8c0.7,1.1,1.5,2.6,1.8,3.5L141.6,15.2z M141.6,5.7
		c-0.1-0.3-0.3-0.6-0.6-1c-5.1,0.4-5.9,0.5-6.4,0.7c-0.1-0.3-0.4-1.2-0.6-1.6c0.3-0.1,0.6-0.3,0.9-0.7c0.3-0.4,1.2-1.6,1.7-2.9
		l2,0.5c-0.6,1-1.3,2-2,2.9l3.4-0.3c-0.3-0.4-0.6-0.8-0.9-1.1l1.3-0.8c1,1,2.2,2.4,2.7,3.4L141.6,5.7z M137.4,9.4V7.9H136v1.5H137.4
		z M139.2,7.9v1.5h1.4V7.9H139.2z M140.5,12.6c-0.2-0.4-0.4-0.7-0.6-1l1.5-0.6h-2.2v1.7L140.5,12.6z"/>
	<path class="st0" d="M150.2,1.5c-0.4,1.4-1,3.2-1.5,4.4c1,1.3,1.2,2.4,1.2,3.3c0,1.1-0.2,1.7-0.8,2.1c-0.2,0.2-0.6,0.3-0.9,0.4
		c-0.3,0-0.7,0-1.1,0c0-0.5-0.2-1.2-0.4-1.7c0.3,0,0.5,0,0.7,0s0.3,0,0.5-0.1s0.3-0.5,0.3-0.9c0-0.7-0.2-1.8-1.2-2.8
		c0.4-1,0.7-2.5,1-3.6h-1.4v12.6h-1.8V0.8h3.8l0.3-0.1L150.2,1.5z M153.8,4.5c0,0.7,0,1.3-0.1,1.9h4.4c0,0,0,0.6,0,0.8
		c-0.2,4.7-0.3,6.5-0.8,7.1c-0.4,0.5-0.7,0.6-1.3,0.7c-0.5,0.1-1.2,0.1-2.1,0c0-0.6-0.3-1.3-0.6-1.9c0.7,0.1,1.4,0.1,1.7,0.1
		s0.4-0.1,0.5-0.2c0.3-0.3,0.4-1.6,0.5-4.9h-2.6c-0.4,3-1.4,5.4-4.2,6.9c-0.2-0.5-0.8-1.1-1.2-1.5c3.4-1.8,3.7-5,3.8-9.1h-2V2.7h3.9
		c-0.1-0.6-0.4-1.5-0.6-2.2l1.7-0.4c0.3,0.7,0.6,1.7,0.8,2.3l-1.3,0.3h4.7v1.8H153.8z"/>
	<path class="st0" d="M162.2,12.1v1.3h-1.5V1.3h4v10.8H162.2z M162.2,3v2.9h1V3H162.2z M163.2,10.5v-3h-1v2.9L163.2,10.5L163.2,10.5
		z M173.5,13.6c0.3,0,0.3-0.1,0.4-0.8c0.3,0.2,0.9,0.4,1.4,0.5c-0.2,1.2-0.6,1.6-1.6,1.6h-1.3c-1.4,0-1.7-0.4-1.7-1.8v-2.4h-2.1v0.6
		h1.7v1.1h-1.7v0.9l1.7-0.2c0,0.4,0,1,0.1,1.3c-2.5,0.4-3,0.6-3.3,0.7c0-0.4-0.2-1.2-0.4-1.5c0.3-0.1,0.5-0.2,0.5-0.7v-2.2h-0.3
		c-0.2,1.5-0.6,3.1-1.3,4.3c-0.3-0.2-1-0.7-1.4-0.8c1.2-1.8,1.3-4.3,1.3-6.1V5.9h3.9c-0.1-0.2-0.1-0.4-0.2-0.6h-0.7V3.4h-1.7v1.9
		h-1.2V2.4h4.2v2.4l0.8-0.2V2.4h4.4v2.8h-1.7V3.4h-1.8v1.9h-0.8c0.1,0.2,0.2,0.4,0.2,0.6h4.1v1.2h-3v0.6h2.6v3h-2.4v0.6h2.3v1.1
		h-2.3v0.7c0,0.4,0,0.4,0.4,0.4L173.5,13.6L173.5,13.6z M169.6,1.9H165V0.7h4.6V1.9z M167.1,5.2c-0.1-0.4-0.3-0.9-0.4-1.3l0.9-0.3
		c0.2,0.4,0.4,0.9,0.5,1.3L167.1,5.2z M166.8,8.8c0,0.3,0,0.5,0,0.8h1.1V8.8H166.8z M166.8,7.1v0.6h1V7.1H166.8z M170.5,7.1h-1.1
		v0.6h1.1V7.1z M170.5,8.8h-1.1v0.9h1.1V8.8z M174.9,1.9h-4.8V0.7h4.8V1.9z M172.2,5.2c-0.1-0.4-0.3-0.9-0.5-1.3l1-0.3
		c0.2,0.4,0.4,1,0.5,1.3L172.2,5.2z M172,8.8v0.9h1V8.8H172z"/>
	<path class="st0" d="M191,11.4h-4.5c1.5,0.7,3.1,1.5,4.1,2.1l-1.3,1.5c-1-0.7-2.8-1.7-4.4-2.5l0.8-1.1h-4.8l1.3,1.1
		c-1.4,0.9-3.4,1.9-4.9,2.5c-0.3-0.4-0.7-1-1.1-1.4c1.4-0.5,3.2-1.4,4.3-2.2h-4.2V9.7h1.4l-0.3-8.3c1-0.3,2.2-0.8,3.1-1.2l0.8,1.6
		c-0.7,0.2-1.4,0.4-2.1,0.6v1.4h1.8v1.6h-1.7v1.4h1.8v1.6h-1.7v1.3h8.4c0-0.4,0-0.8,0.1-1.3h-1.6V6.8h1.7c0-0.4,0-0.9,0-1.4h-1.6
		V3.9h1.7c0-0.5,0-0.9,0-1.4h-1.8V0.9h3.6c0,2.8-0.1,6.4-0.2,8.8h1.4L191,11.4L191,11.4z M183.3,6.2c-0.1,1.1-0.4,2.1-0.8,2.8
		c-0.3-0.2-0.9-0.6-1.2-0.8c0.4-0.6,0.5-1.4,0.6-2.3L183.3,6.2z M184.1,5.6h-2.4V0.3h1.6v1.1h2.5V3h-2.5v1.2h1.8l0,0h0.6v4.1
		c0,0.7-0.1,0.9-0.6,1.1c-0.4,0.2-1,0.2-1.8,0.2c-0.1-0.4-0.3-0.8-0.4-1.2c0.4,0,0.9,0,1,0s0.2,0,0.2-0.2L184.1,5.6L184.1,5.6z"/>
	<path class="st0" d="M198,7c-0.8,3.3-2.4,5.8-4.4,7.1c-0.3-0.4-1.1-1.1-1.5-1.4c1.5-0.9,2.8-2.5,3.5-4.4h-3.1V6.6h3.9l0.3-0.1
		L198,7z M206.7,5.9C205.5,7,204,8.2,202.8,9c1.1,1.5,2.6,2.7,4.4,3.5c-0.4,0.4-1,1.2-1.3,1.7c-2.3-1-4-2.8-5.2-4.9V13
		c0,1-0.2,1.6-0.9,1.9c-0.7,0.3-1.6,0.3-3,0.3c-0.1-0.5-0.4-1.4-0.6-1.9c0.8,0,1.8,0,2.1,0s0.4-0.1,0.4-0.4V5.2h-4V3.4h5.9
		c-1.4-0.6-3.2-1.2-4.7-1.6l0.9-1.6c1.9,0.4,4.5,1.2,5.9,2l-1,1.8c-0.3-0.2-0.6-0.3-1-0.5v1.3c0.3,1,0.7,2,1.1,2.8
		c1.1-0.9,2.3-2,3.1-2.9L206.7,5.9z"/>
	<path class="st0" d="M217.8,5.3c1.7,1.2,4.2,3.1,5.3,4.3l-1.6,1.5c-1-1.2-3.2-3-4.9-4.3v8.3h-2.1V7.3c-1.5,1.6-3.2,2.9-5.1,3.9
		c-0.3-0.5-0.9-1.3-1.3-1.7c2.9-1.4,5.4-3.8,6.9-6.3h-6.4v-2h13.9v2h-5c-0.3,0.5-0.6,1-0.9,1.5v1.7L217.8,5.3z"/>
	<path class="st0" d="M228.3,10.9c-0.2-0.4-0.5-1-0.8-1.6V15h-1.7V9.8c-0.3,0.4-0.6,0.8-0.9,1.2c-0.1-0.5-0.6-1.4-0.9-1.7
		c1.1-1.1,2.3-3,2.9-4.8h-2.5V2.9h2c-0.2-0.6-0.7-1.4-1.1-2l1.4-0.7c0.5,0.6,1,1.5,1.2,2.1L226.7,3h1l0.3-0.1l0.9,0.6
		c-0.4,1.2-0.9,2.4-1.5,3.6v0.1l0.3,0.4c0.2-0.4,0.5-1,0.6-1.4l1.1,0.8c-0.4,0.5-0.7,1.1-1,1.5c0.4,0.5,0.7,0.9,0.8,1.1L228.3,10.9z
		 M236.2,10.2c0.1,0.4,0.2,1,0.3,1.3c-2.6,0.9-3.2,1.2-3.4,1.4c0.7,0.4,1.6,0.4,2.7,0.4c1,0,2.4-0.1,3.4-0.2
		c-0.2,0.4-0.4,1.2-0.5,1.6c-0.9,0.1-2,0.1-3,0.1c-2.1,0-3.6-0.3-4.6-1.8c-0.5,0.9-1.1,1.6-1.8,2.1c-0.2-0.3-0.8-0.9-1.1-1.2
		c1.3-0.9,2.3-2.6,2.8-4.7h-0.5c-0.3,0-0.8,0.1-0.9,0.3c-0.1-0.4-0.4-1.1-0.5-1.4c0.2-0.1,0.4-0.2,0.6-0.5c0.2-0.3,0.6-1.1,1-2h-1.5
		V4h2.2l0.3-0.1l1.1,0.4c-0.4,0.8-1,2.3-1.6,3.4h0.7h0.3l0.6,0.3c-0.2,1.4-0.5,2.7-0.9,3.7c0.4,0.6,0.8,1,1.3,1.2l0,0
		c-0.1-0.4-0.2-1.1-0.5-1.5c0.3-0.1,0.4-0.2,0.4-0.7V0.8h5.4v6.3h-3.8v1.1l1-0.8c0.2,0.2,0.6,0.6,1.1,1.1c0.5-0.4,1-0.8,1.3-1.2
		l1.1,1.1c-0.5,0.4-1,0.7-1.5,1c0.7,0.7,1.3,1.4,1.5,1.7l-1.1,1.2c-0.7-1.1-2.5-3.2-3.4-4v2.4L236.2,10.2z M230.6,3.6
		c-0.2-0.8-0.8-1.9-1.2-2.8l1.5-0.5c0.5,0.9,1,2,1.2,2.7L230.6,3.6z M234.7,2.3v0.9h2.1V2.3H234.7z M236.8,5.6V4.7h-2.1v0.9H236.8z"
		/>
	<path class="st0" d="M251.3,13.1c1.5,0,1.8-0.4,2-2.3c0.5,0.3,1.3,0.6,1.8,0.7c-0.3,2.6-1,3.4-3.7,3.4h-5.5c-3,0-3.9-0.6-3.9-2.9
		V6.1c-0.3,0.3-0.6,0.5-0.9,0.7c-0.2-0.4-0.7-1.4-1-1.8c1.9-1.1,3.8-3,4.9-5l1.7,0.7c-0.1,0.2-0.3,0.5-0.4,0.7h3.7l0.4-0.1l1.2,0.9
		c-0.5,0.8-1.2,1.6-2,2.4h3.9v6h-1.9v-0.5h-7.7V12c0,1,0.3,1.1,2,1.1C245.9,13.1,251.3,13.1,251.3,13.1z M245.1,3.1
		c-0.4,0.5-0.9,1-1.3,1.5h3.6c0.5-0.4,0.9-1,1.3-1.5H245.1z M243.9,8.3h3V6.4h-3V8.3z M251.6,6.4h-2.9v1.9h2.9V6.4z"/>
	<path class="st0" d="M270.7,2.6c0,0,0,0.6,0,0.9c-0.2,7.2-0.4,9.7-1,10.5c-0.4,0.6-0.9,0.8-1.5,0.9c-0.6,0.1-1.6,0.1-2.5,0
		c0-0.5-0.3-1.3-0.6-1.9c1,0.1,2,0.1,2.4,0.1c0.3,0,0.5-0.1,0.7-0.3c0.5-0.5,0.7-2.9,0.8-8.6h-3.4c-0.4,1-0.9,1.8-1.4,2.5
		c-0.3-0.2-0.8-0.6-1.2-0.9v7.5h-4.3v1.2H257V2.7h1.8c0.2-0.8,0.4-1.8,0.5-2.6l2.1,0.3c-0.3,0.8-0.6,1.6-0.8,2.3h2.5v2.6
		c0.9-1.3,1.7-3.3,2.2-5.2l1.8,0.4c-0.2,0.7-0.4,1.4-0.6,2L270.7,2.6L270.7,2.6z M261.1,4.4h-2.5V7h2.5V4.4z M261.1,11.8V8.6h-2.5
		v3.1L261.1,11.8L261.1,11.8z M266.4,10.9c-0.4-1-1.4-2.5-2.2-3.7l1.5-0.8c0.8,1.1,1.9,2.6,2.4,3.6L266.4,10.9z"/>
	<path class="st0" d="M281.2,11.2c1.9,0.7,4.5,1.6,5.8,2.4l-0.9,1.6c-1.4-0.8-4.3-2-6.4-2.8l0.7-1.2h-0.6c-0.8,2-2.5,3.2-6.8,3.9
		c-0.1-0.5-0.6-1.3-0.9-1.7c3.2-0.4,4.7-1.2,5.5-2.2h-4.8V9.5h5.4c0-0.3,0.1-0.5,0.1-0.8h-5.9V7.1h6.1V6.2h-4.7V4.6h4.7V3.8h-5.7
		V2.1h3c-0.2-0.5-0.6-1-0.9-1.4l1.7-0.7c0.5,0.6,1,1.3,1.2,1.9l-0.5,0.2h3.5c0.4-0.6,0.9-1.5,1.1-2.1l2,0.5
		c-0.4,0.6-0.7,1.1-1.1,1.6h3.1v1.7h-5.7v0.8h4.9v1.6h-4.9V7h6.4v1.7H280c0,0.3-0.1,0.6-0.1,0.8h6.2v1.6L281.2,11.2L281.2,11.2z"/>
	<path class="st0" d="M301,13.6c0.4,0,0.5-0.2,0.6-1.1c0.3,0.2,1,0.5,1.5,0.5c-0.2,1.5-0.6,1.9-1.9,1.9H299c-1.8,0-2.2-0.4-2.2-1.8
		v-2.5h-3.5v0.7h3v1.2h-3v0.8l3-0.2c0,0.4,0,1,0,1.3c-3.9,0.3-4.5,0.4-4.9,0.6c0-0.4-0.3-1.1-0.5-1.4c0.3-0.1,0.6-0.2,0.6-0.8v-2.3
		h-0.6c-0.2,1.6-0.7,3.4-1.6,4.7c-0.3-0.4-1-1-1.4-1.2c1.3-1.6,1.4-4,1.4-5.6V5.6h5.4c0-0.1-0.1-0.3-0.2-0.4h-1.1V3.3h-1.6
		c0.5,0.3,1.1,0.8,1.3,1.2l-0.8,0.9C292,5,291.5,4.5,291,4.1l0.9-0.8h-1.1v1.9h-1.6v-3h6v2.5l1.1-0.4l0,0v-2h6.1v2.9h-1.7V3.3h-1.6
		c0.5,0.3,1.1,0.8,1.4,1.2l-0.9,0.9c-0.3-0.4-0.9-0.9-1.4-1.3l0.8-0.8h-1v1.9h-1.3c0,0.1,0.1,0.2,0.1,0.4h5.9v1.3h-4.2v0.6h3.7v3
		h-3.6v0.7h3.4v1.2h-3.4V13c0,0.4,0.1,0.5,0.7,0.5L301,13.6L301,13.6z M295.4,1.8h-6.6V0.6h6.6V1.8z M291.1,8.7c0,0.2,0,0.4,0,0.7h2
		V8.7H291.1z M291.1,6.9v0.6h2V6.9H291.1z M296.8,6.9h-2v0.6h2V6.9z M296.8,8.7h-2v0.7h2V8.7z M302.7,1.8H296V0.6h6.7V1.8z
		 M298.5,8.7v0.7h1.9V8.7H298.5z"/>
	<path class="st0" d="M310.3,7.7c0,1.4-1.2,2.6-2.6,2.6s-2.6-1.2-2.6-2.6s1.2-2.6,2.6-2.6S310.3,6.2,310.3,7.7z M309.1,7.7
		c0-0.8-0.6-1.4-1.4-1.4s-1.4,0.6-1.4,1.4s0.7,1.4,1.4,1.4C308.5,9.1,309.1,8.5,309.1,7.7z"/>
	<path class="st0" d="M5.3,46.7c-0.5,0.2-1,0.3-1.5,0.5V51c0,0.9-0.1,1.3-0.6,1.6S2,53,1,53c0-0.5-0.3-1.2-0.5-1.7
		c0.6,0,1.1,0,1.3,0s0.3-0.1,0.3-0.3v-3.2l-1.5,0.4l-0.4-1.8c0.6-0.1,1.2-0.3,1.9-0.5v-2.8H0.3v-1.8H2v-3h1.7v3h1.5v1.8H3.8v2.4
		c0.4-0.1,0.9-0.2,1.3-0.4L5.3,46.7z M12,45.2c0.3,3.2,0.9,5.5,1.4,5.5c0.2,0,0.4-0.7,0.4-2c0.3,0.4,1,0.8,1.3,1
		c-0.4,2.5-1.1,3.1-1.7,3.1c-1.7,0-2.7-3.1-3.1-7.6H7.8v4l2-0.7c0,0.5,0.1,1.1,0.1,1.5c-3.1,1.1-3.6,1.4-4,1.7
		c-0.1-0.4-0.4-1.2-0.7-1.5C5.6,50.1,6,49.7,6,49.1V40l0,0l0,0c2.5-0.4,5.3-1,7-1.6l1.4,1.4c-0.8,0.3-1.8,0.6-2.7,0.8
		c0,1.1,0.1,2.1,0.2,3h3v1.8H12V45.2z M7.4,51.2h4v1.5h-4C7.4,52.7,7.4,51.2,7.4,51.2z M10.2,43.4c-0.1-0.8-0.1-1.7-0.1-2.7
		c-0.7,0.1-1.5,0.3-2.2,0.4v2.3H10.2z"/>
	<path class="st0" d="M20.2,39c-1,1.1-2.4,2.2-3.6,2.9c-0.1-0.3-0.5-1-0.7-1.3c1-0.6,2.2-1.5,2.9-2.2L20.2,39z M17.7,44.3
		c-0.4,0.3-0.8,0.5-1.1,0.7c-0.1-0.4-0.4-1.2-0.6-1.6c1-0.5,2.3-1.5,2.9-2.2l1.3,0.6V41h2.3v-0.9h-0.8c-0.1,0.2-0.2,0.4-0.4,0.5
		c-0.3-0.2-0.9-0.4-1.2-0.6c0.4-0.5,0.8-1.2,1-1.9l1.4,0.3c0,0.1-0.1,0.3-0.2,0.4h3.4V40H24v0.9h2v1.2h-2v0.7h1.8v1H24v0.7l2-0.1
		c0,0.4,0,0.9,0,1.2c-4.5,0.4-5.2,0.4-5.6,0.6c-0.1-0.3-0.3-0.9-0.4-1.2c0.3-0.1,0.5-0.2,0.5-0.8v-1.5h1.3v2.1l0.8-0.1v-2.5h-2.3
		v-0.1c-0.3,0.3-0.6,0.7-1,1v3.1h-1.6C17.7,46.2,17.7,44.3,17.7,44.3z M31,49.8h-4c1.3,0.5,2.9,1.3,3.8,1.8l-1,1.4
		c-0.9-0.6-2.8-1.6-4.1-2.1l0.8-1.1h-1.9V53h-2v-3.2h-2.8l1.3,0.5c-0.9,1-2.3,2-3.5,2.7c-0.2-0.4-0.8-1.1-1.1-1.5
		c1-0.4,2.2-1,2.9-1.7h-3.2v-1.3H31V49.8z M18.2,46.7h10.6V48H18.2V46.7z M27.9,46.2h-1.5v-7.4h4.1v5c0,0.6-0.1,1-0.5,1.2
		s-0.8,0.3-1.5,0.3c0-0.4-0.3-0.9-0.4-1.3c0.3,0,0.7,0,0.8,0c0.1,0,0.2,0,0.2-0.2v-3.6h-1.2V46.2z"/>
	<path class="st0" d="M41.2,44.1c1.1,3.2,3,5.9,6,7.2c-0.5,0.4-1.1,1.2-1.4,1.8c-2.9-1.5-4.8-4-6-7.3c-0.4,1.2-0.9,2.4-1.6,3.5
		l0.4-0.3c1,0.8,2.2,2.1,2.8,2.9l-1.7,1.2c-0.5-0.7-1.5-1.8-2.4-2.7c-1,1.1-2.2,2-3.9,2.8c-0.3-0.5-0.9-1.2-1.4-1.6
		c3.9-1.7,5.5-4.5,6.1-7.4h-5.6v-2h5.9c0.1-1.4,0.1-2.8,0.1-4h2.1c0,1.2,0,2.6-0.2,4h6.4v2h-5.6V44.1z"/>
	<path class="st0" d="M57,46.3c-0.1,0.3-0.3,0.5-0.4,0.8h6.1v0.6c-0.2,3.1-0.4,4.3-0.8,4.8c-0.3,0.4-0.6,0.5-1,0.6
		c-0.4,0-0.9,0.1-1.5,0c0-0.5-0.2-1.2-0.4-1.6c0.4,0,0.8,0.1,1,0.1s0.3,0,0.4-0.2c0.2-0.2,0.3-1,0.5-2.9h-0.4
		c-0.7,1.8-1.9,3.5-3.2,4.5c-0.3-0.3-0.8-0.8-1.2-1.1c1.1-0.8,2.1-2.1,2.7-3.5H58c-0.9,1.7-2.4,3.2-3.9,4.2c-0.2-0.3-0.7-0.9-1-1.2
		c1.3-0.7,2.4-1.8,3.2-3h-0.8C55,49,54.3,49.6,53.7,50c-0.2-0.3-0.6-0.7-1-1c-0.2,0.1-0.5,0.2-0.8,0.3c-0.3,0-0.7,0-1,0
		c0-0.4-0.2-1.2-0.4-1.6c0.3,0,0.5,0,0.7,0s0.3,0,0.4-0.1c0.2-0.1,0.2-0.4,0.2-0.9c0-0.7-0.2-1.7-1.1-2.8c0.3-1,0.7-2.4,0.9-3.5
		h-1.2V53h-1.6V38.8h3.5l0.3-0.1l1.2,0.7c-0.4,1.4-0.9,3.1-1.4,4.4c1,1.2,1.2,2.3,1.2,3.2c0,0.6-0.1,1.1-0.2,1.5
		c0.8-0.6,1.4-1.3,1.9-2.2h-1.7v-1.5h9.5v1.5C63.1,46.3,57,46.3,57,46.3z M62,44.2h-7.2v-5.5H62V44.2z M60.1,40.1h-3.6v0.8h3.6V40.1
		z M60.1,42.1h-3.6v0.8h3.6V42.1z"/>
	<path class="st0" d="M76.7,51.3c0.5,0,0.6-0.4,0.7-2.5c0.4,0.3,1.2,0.6,1.7,0.8c-0.2,2.8-0.7,3.6-2.3,3.6h-1.9
		c-1.8,0-2.3-0.6-2.3-2.4V46h-2.3c-0.3,3.4-1,5.9-5.2,7.3c-0.2-0.5-0.7-1.3-1.2-1.7c3.7-1.1,4.1-3.1,4.3-5.7h-3.9v-1.8h6.1v-5.8h1.9
		v5.8h6.3v1.8h-4.2v4.8c0,0.6,0.1,0.7,0.6,0.7L76.7,51.3L76.7,51.3z M67.2,43.4c-0.2-1-1-2.7-1.6-4l1.7-0.7c0.7,1.2,1.5,2.8,1.8,3.9
		L67.2,43.4z M77.9,39.4c-0.7,1.4-1.5,3-2.2,3.9L74,42.7c0.7-1.1,1.5-2.7,1.8-4L77.9,39.4z"/>
	<path class="st0" d="M80.3,38.8h7.6v1.6h-2V42h1.9v10.9h-1.5v-0.8H82v1h-1.5V41.9h1.8v-1.6h-2V38.8z M86.3,50.6V47l0,0h-0.6
		c-0.8,0-1.1-0.3-1.1-1.3v-2.1h-0.7v1.1c0,0.9-0.2,2.1-1.1,2.9c-0.2-0.2-0.6-0.5-0.8-0.7v3.7C82,50.6,86.3,50.6,86.3,50.6z M82,43.5
		v3.3c0.7-0.6,0.8-1.5,0.8-2.1v-1.2H82z M82.5,48.1h3.4v1.4h-3.4V48.1z M84.5,40.4h-0.7V42h0.7V40.4z M86.3,43.5h-0.7v2.1
		c0,0.3,0,0.3,0.2,0.3h0.3c0.1,0,0.2,0,0.2,0V43.5z M92.7,51.1c0.6,0,0.7-0.4,0.8-2.5c0.4,0.3,1.2,0.6,1.7,0.8
		c-0.2,2.7-0.7,3.5-2.3,3.5h-2.1c-1.7,0-2.3-0.6-2.3-2.5v-6.5h4.2v-3.2h-4.3v-1.8h6.1v6.8h-4.2v4.6c0,0.6,0.1,0.8,0.7,0.8
		C91,51.1,92.7,51.1,92.7,51.1z"/>
	<path class="st0" d="M102.7,42.6c0,0.6-0.1,1.3-0.2,1.9h6.9c0,0,0,0.6-0.1,0.8c-0.3,4.3-0.6,6.1-1.3,6.8c-0.5,0.5-1,0.7-1.7,0.8
		c-0.6,0.1-1.7,0.1-2.8,0c0-0.6-0.3-1.4-0.7-1.9c1.1,0.1,2.2,0.1,2.7,0.1c0.4,0,0.6,0,0.8-0.2c0.4-0.4,0.7-1.7,0.9-4.6h-5
		c-0.5,2.7-1.7,5.2-4.6,6.8c-0.3-0.5-0.9-1.2-1.4-1.6c3.8-2,4.1-5.7,4.3-9h-4v-1.8h6.8c-0.3-0.6-0.6-1.4-1-2.1l1.9-0.7
		c0.4,0.7,0.9,1.7,1.2,2.3l-1.1,0.5h6.6v1.9H102.7z"/>
	<path class="st0" d="M119,48.6c-2.1,0.9-4.5,2-6.3,2.7l-0.6-2c0.6-0.2,1.3-0.5,2.1-0.8l-0.3-9.3l2-0.1l0.3,8.7
		c0.8-0.3,1.6-0.7,2.4-1L119,48.6z M125.6,53.1c-0.6-1-1.8-2.5-3-3.9c-1.2,1.7-2.8,2.9-4.9,3.9c-0.3-0.4-1.1-1.3-1.5-1.7
		c5.1-1.9,6.7-5.8,7.3-12.4l2.1,0.2c-0.3,3.3-0.9,6-2,8.1c1.3,1.4,2.8,3,3.6,4.1L125.6,53.1z M119.6,44.9c-0.4-1.1-1.4-2.8-2.4-4
		l1.7-0.9c1,1.2,2,2.7,2.5,3.8L119.6,44.9z"/>
	<path class="st0" d="M142.4,43.8c-0.6,2.5-1.7,4.4-3.1,5.9c1.1,0.7,2.4,1.3,3.9,1.6c-0.4,0.4-1,1.3-1.3,1.8c-1.6-0.5-3-1.2-4.2-2.1
		c-1.4,1-3,1.7-4.8,2.2c-0.2-0.5-0.7-1.3-1.1-1.8c1.6-0.4,3.1-1,4.4-1.9c-1.1-1.2-1.9-2.8-2.6-4.5h-0.3c-0.4,2.6-1.3,5.5-3.9,7.7
		c-0.3-0.5-1-1.3-1.4-1.6c3.2-2.7,3.5-6.7,3.5-9.3v-1.1H129v-1.9h10.1c-0.3,1.5-0.6,3.2-0.9,4.5h2.4l0.4-0.1L142.4,43.8z
		 M133.5,41.9c0,0.4,0,0.9,0,1.4h2.6c0.2-0.8,0.4-1.7,0.7-2.6h-3.2v1.2C133.6,41.9,133.5,41.9,133.5,41.9z M135.4,45.1
		c0.5,1.2,1.3,2.4,2.2,3.3c0.9-0.9,1.6-2,2.1-3.3H135.4z"/>
	<path class="st0" d="M146.7,45.6c-0.5-0.5-1.7-1.2-2.6-1.6l1-1.4c0.9,0.3,2.1,0.9,2.7,1.5L146.7,45.6z M148.2,47.9
		c-0.6,1.7-1.3,3.5-2,5.1l-1.7-1c0.6-1.2,1.6-3.2,2.2-5.1L148.2,47.9z M147.4,41.3c-0.5-0.5-1.6-1.3-2.6-1.7l1.1-1.4
		c0.9,0.4,2,1,2.6,1.6L147.4,41.3z M156.3,43.9c0.8,0.9,1.8,1.6,3,2.1c-0.4,0.3-0.9,1-1.2,1.5c-0.2-0.1-0.4-0.2-0.6-0.3
		c0.8,1.2,1.5,2.5,1.8,3.5l-1.6,0.8c-0.3-1.1-1.2-2.8-2-4l1.3-0.6c-1.1-0.7-2-1.8-2.7-2.9h-1.4c-0.7,1.3-1.6,2.4-2.9,3.3l1.4,0.5
		c-0.4,1.3-1,2.7-2,3.7l-1.4-1c0.9-0.8,1.6-2,1.9-3.2c-0.3,0.2-0.7,0.4-1.1,0.6c-0.3-0.4-0.8-1.1-1.2-1.4c1.3-0.6,2.3-1.5,3-2.5
		h-2.3v-1.8h3.4c0.2-0.5,0.3-1,0.5-1.5h-3.1v-1.8h9.4v1.8h-4.3c-0.1,0.5-0.3,1-0.5,1.5h5.4V44L156.3,43.9L156.3,43.9z M155.1,47.4
		c0.5,1,1,2.4,1.2,3.3l-1.5,0.6c-0.1-0.9-0.6-2.3-1-3.3v3.2c0,0.8-0.1,1.3-0.7,1.6c-0.5,0.3-1.2,0.3-2.3,0.3
		c-0.1-0.5-0.3-1.2-0.5-1.7c0.6,0,1.2,0,1.4,0s0.3,0,0.3-0.2v-5.7h1.7v2.4L155.1,47.4z"/>
	<path class="st0" d="M167.7,41c0,0,0,0.6,0,0.9c-0.1,6.8-0.3,9.3-0.8,10c-0.4,0.5-0.7,0.7-1.2,0.8s-1.2,0.1-1.9,0.1
		c0-0.5-0.2-1.4-0.5-1.9c0.6,0,1.2,0.1,1.5,0.1c0.2,0,0.4-0.1,0.5-0.3c0.3-0.4,0.4-2.4,0.5-7.8h-1.6c-0.2,4.3-0.7,7.9-2.8,10.2
		c-0.3-0.5-0.9-1.1-1.4-1.4c1.8-2,2.2-5.1,2.3-8.8h-1.9V41h1.9c0-0.8,0-1.7,0-2.6h1.9c0,0.9,0,1.8,0,2.6H167.7z M174.4,40v12.7h-1.9
		v-1h-2.1v1.1h-1.8V40H174.4z M172.4,49.8v-8h-2.1v8H172.4z"/>
	<path class="st0" d="M185.2,49.2c1.9,0.7,4.4,1.6,5.8,2.4l-0.9,1.6c-1.4-0.8-4.3-2-6.4-2.8l0.7-1.2h-0.6c-0.8,2-2.5,3.2-6.8,3.9
		c-0.1-0.5-0.6-1.3-0.9-1.7c3.2-0.4,4.7-1.2,5.5-2.2h-4.8v-1.6h5.4c0-0.3,0.1-0.5,0.1-0.8h-5.9v-1.6h6.1v-0.8h-4.7v-1.6h4.7V42h-5.6
		v-1.7h3c-0.2-0.5-0.6-1-0.9-1.4l1.7-0.7c0.5,0.6,1,1.3,1.2,1.9l-0.5,0.2h3.5c0.4-0.6,0.9-1.5,1.1-2.1l2,0.5
		c-0.4,0.6-0.7,1.1-1.1,1.6h3.1V42h-5.7v0.8h4.9v1.6h-4.9v0.8h6.4v1.5h-6.6c0,0.3-0.1,0.6-0.1,0.8h6.2v1.6h-5V49.2L185.2,49.2z"/>
	<path class="st0" d="M200.9,43.7c-0.1,0.1-0.2,0.3-0.3,0.4c1.8,1.9,4,3,6.4,3.9c-0.4,0.4-0.9,1-1.2,1.6c-0.6-0.3-1.1-0.5-1.6-0.8
		v4.4h-2v-0.5h-5.5v0.4h-1.9v-4.2c-0.6,0.3-1.1,0.5-1.7,0.8c-0.3-0.5-0.7-1.1-1.2-1.5c3-1,5.7-2.8,7.2-5.2L200.9,43.7z M194.7,42.9
		h-1.9v-3.4h5.9c-0.1-0.4-0.3-0.7-0.5-1l2-0.4c0.2,0.4,0.5,1,0.7,1.5h5.5V43h-2v-1.7h-9.8v1.6C194.6,42.9,194.7,42.9,194.7,42.9z
		 M198.5,42.1c-1,1.4-2.6,2.8-4.1,3.6c-0.3-0.4-0.9-1.1-1.3-1.5c1.4-0.6,2.8-1.6,3.6-2.7L198.5,42.1z M202.3,51v-1.7h-5.5V51H202.3z
		 M202.4,47.6c-0.9-0.6-1.8-1.4-2.7-2.3c-0.7,0.8-1.6,1.6-2.5,2.3H202.4z M201.9,41.5c1.4,0.8,3.1,2,4,2.9l-1.4,1.2
		c-0.8-0.9-2.5-2.2-3.9-3L201.9,41.5z"/>
	<path class="st0" d="M210.7,45.8c-0.5-0.5-1.7-1.3-2.6-1.9l1.1-1.3c0.8,0.5,2,1.2,2.6,1.7L210.7,45.8z M208.2,51.9
		c0.6-1.2,1.5-3.2,2.1-5l1.5,1c-0.6,1.7-1.2,3.5-1.9,5.1L208.2,51.9z M222.7,43.3c-0.5,2.6-1.3,4.6-2.5,6.3c0.9,0.8,1.9,1.5,3,2
		c-0.4,0.4-1,1.1-1.2,1.5c-1.1-0.5-2-1.3-2.9-2.2c-0.9,0.9-1.8,1.6-2.9,2.2c-0.2-0.4-0.7-1.1-1.1-1.4v1.4h-1.7v-6.4
		c-0.3,0.3-0.5,0.6-0.8,0.9c-0.3-0.4-0.9-0.9-1.2-1.2c1.2-1.2,2.4-3.3,2.9-4.9h-1.9v-1l-1.1,1.2c-0.5-0.6-1.6-1.5-2.4-2l1.2-1.2
		c0.8,0.5,1.7,1.1,2.3,1.7v-0.4h4.4c-0.2-0.4-0.3-0.8-0.5-1.2l1.7-0.5c0.3,0.5,0.6,1.1,0.8,1.7h4.2v1.8h-5.2l1.5,0.4
		c-0.1,0.3-0.3,0.7-0.4,1.1h2.3l0.3-0.1L222.7,43.3z M216.1,42c-0.3,0.7-0.6,1.4-1,2.1v2.4c1.2-1.3,2.1-3.3,2.5-4.9h-3L216.1,42z
		 M215.1,51.7c1.1-0.5,2.1-1.2,2.9-2.1c-0.5-0.7-1-1.5-1.4-2.4c-0.2,0.3-0.5,0.6-0.7,0.8c-0.2-0.2-0.5-0.5-0.8-0.8V51.7z
		 M217.6,45.8c0.4,0.9,0.9,1.7,1.5,2.5c0.2-0.4,0.4-0.7,0.6-1.1C219.2,46.7,218.3,46.1,217.6,45.8L217.6,45.8z M218.3,44.5l-0.1,0.1
		c0.7,0.4,1.5,0.9,2,1.4c0.2-0.5,0.4-1,0.5-1.5H218.3z"/>
	<path class="st0" d="M224,50.3l1.1-1.5c0.7,0.7,1.5,1.2,2.6,1.2c1.2,0,2.1-0.7,2.1-2s-0.8-2-2-2c-0.7,0-1.1,0.2-1.8,0.6l-1.1-0.7
		l0.3-5.8h6.3v2h-4.2l-0.2,2.5c0.5-0.2,0.9-0.3,1.4-0.3c2,0,3.6,1.1,3.6,3.6s-2,4-4.1,4C226.2,51.9,224.9,51.2,224,50.3z"/>
	<path class="st0" d="M233.7,45.9c0-3.9,1.6-5.9,4-5.9s4,2,4,5.9s-1.6,6.1-4,6.1C235.3,51.9,233.7,49.8,233.7,45.9z M239.5,45.9
		c0-3.2-0.8-4.1-1.8-4.1s-1.8,0.9-1.8,4.1c0,3.2,0.8,4.2,1.8,4.2S239.5,49.1,239.5,45.9z"/>
	<path class="st0" d="M243,43.4c0-2.4,1.2-3.7,2.9-3.7s2.9,1.4,2.9,3.7c0,2.4-1.2,3.8-2.9,3.8S243,45.8,243,43.4z M247.1,43.4
		c0-1.7-0.5-2.4-1.2-2.4s-1.2,0.7-1.2,2.4s0.5,2.4,1.2,2.4S247.1,45.1,247.1,43.4z M252.7,39.6h1.4l-6.4,12.3h-1.4L252.7,39.6z
		 M251.6,48.2c0-2.4,1.2-3.7,2.9-3.7c1.7,0,2.9,1.4,2.9,3.7c0,2.4-1.2,3.8-2.9,3.8C252.8,52,251.6,50.5,251.6,48.2z M255.7,48.2
		c0-1.7-0.5-2.4-1.2-2.4s-1.2,0.7-1.2,2.4s0.5,2.4,1.2,2.4S255.7,49.9,255.7,48.2z"/>
	<path class="st0" d="M266,47.9c1.2-0.4,2-1.1,2.1-1.9c0,0-0.1,0-0.2,0c-0.8,0-1.5-0.5-1.5-1.4s0.7-1.4,1.6-1.4
		c1.1,0,1.7,0.8,1.7,2.2c0,1.8-1.2,3.3-3.2,3.9L266,47.9z"/>
	<path class="st0" d="M4.4,80.2c-0.3,0.6-0.6,1.2-1,1.8v9.1H1.6v-6.8c-0.2,0.3-0.5,0.5-0.7,0.8c-0.1-0.4-0.6-1.4-0.9-1.9
		c1-0.9,2.1-2.3,2.8-3.6L4.4,80.2z M4.1,76.8c-0.8,1.4-2,2.9-3.1,3.9c-0.2-0.4-0.6-1.1-0.9-1.5c0.9-0.8,1.9-2.1,2.3-3L4.1,76.8z
		 M9.3,89.4c0,0.7-0.1,1.1-0.5,1.4s-0.9,0.3-1.7,0.3c0-0.4-0.2-1.1-0.4-1.5c0.4,0,0.7,0,0.9,0s0.2,0,0.2-0.2v-1.1
		c-0.5,0.3-1.1,0.5-1.6,0.8l-0.4-0.8c-0.2,1.1-0.5,2.1-1,3c-0.2-0.3-0.9-0.8-1.2-1c0.8-1.5,0.9-3.5,0.9-5v-2.4h4.8V89.4z M8.5,82.5
		c0-0.2-0.1-0.4-0.2-0.6c-2.8,0.4-3.4,0.4-3.7,0.6c-0.1-0.3-0.3-1.1-0.5-1.5c0.3-0.1,0.6-0.4,0.9-0.9c0.1-0.2,0.3-0.6,0.6-1.1H4.1
		v-1.5h2c0.2-0.5,0.4-0.9,0.5-1.4l1.7,0.4c-0.1,0.3-0.3,0.7-0.4,1h1.8V79H7.2c-0.3,0.7-0.7,1.2-1,1.8l1.6-0.2
		c-0.1-0.3-0.2-0.5-0.3-0.7l1.2-0.4c0.4,0.8,0.9,1.9,1.2,2.6L8.5,82.5z M7.1,86.7c-0.3-0.2-0.7-0.6-1.1-0.8c0,0.5,0,1.1-0.1,1.8
		c0.5-0.2,1.2-0.5,1.9-0.8v-0.8L7.1,86.7z M6,84.3v1l0.6-0.6c0.4,0.2,0.8,0.4,1.2,0.7v-1.2L6,84.3L6,84.3z M14.5,80.8
		c-0.3,2.4-0.6,4.5-1.3,6.3c0.5,1,1.2,2,2.1,2.6c-0.3,0.3-0.8,1-1.1,1.4c-0.8-0.6-1.4-1.4-1.8-2.3c-0.5,0.9-1.2,1.7-2,2.4
		c-0.2-0.3-0.7-1-1-1.3c1-0.8,1.7-1.7,2.2-2.9c-0.4-1.1-0.6-2.2-0.8-3.2c-0.1,0.2-0.3,0.5-0.4,0.7c-0.2-0.4-0.7-1.2-1-1.5
		c1-1.6,1.4-4.2,1.7-6.8l1.6,0.2c-0.1,0.9-0.2,1.9-0.4,2.8h2.9v1.6C15.2,80.8,14.5,80.8,14.5,80.8z M11.8,80.8
		c0,0.2-0.1,0.3-0.1,0.5c0.1,1.1,0.3,2.3,0.6,3.4c0.3-1.2,0.5-2.5,0.6-4L11.8,80.8L11.8,80.8z"/>
	<path class="st0" d="M19.3,79.4v2.8c0,2.6-0.2,6.5-1.7,9c-0.4-0.3-1.2-0.9-1.6-1.1c1.3-2.3,1.4-5.6,1.4-7.9v-4.5h6.1
		c-0.1-0.4-0.3-0.8-0.5-1.2l1.9-0.4c0.3,0.5,0.6,1.1,0.7,1.6h5.3v1.7H19.3z M27.3,85.3c0.4,2.2,1.1,3.7,1.7,3.7c0.3,0,0.4-0.7,0.5-2
		c0.4,0.4,1,0.7,1.5,0.9c-0.2,2.4-0.8,3-2.1,3c-1.7,0-2.9-2.3-3.5-5.5h-3.1v1.8l2.7-0.6c0,0.5,0,1.2,0,1.6c-3.4,0.8-4,1.1-4.4,1.3
		c-0.1-0.4-0.4-1.2-0.7-1.5c0.3-0.2,0.6-0.5,0.6-1.1v-6.2l0,0l0,0c2.9-0.1,6.3-0.4,8.3-0.8l1.3,1.4c-0.9,0.2-2,0.4-3.2,0.5
		c0,0.7,0.1,1.3,0.2,2h3.4v1.7h-3.2C27.3,85.5,27.3,85.3,27.3,85.3z M25.2,83.7c-0.1-0.6-0.1-1.2-0.1-1.8c-0.9,0.1-1.9,0.1-2.8,0.2
		v1.6C22.3,83.7,25.2,83.7,25.2,83.7z M22.6,89.2h4v1.5h-4V89.2z"/>
	<path class="st0" d="M46.7,84.2h-3.9v4.6c0,1.1-0.2,1.6-1,1.9C41.1,91,40,91,38.5,91c-0.1-0.6-0.4-1.4-0.7-1.9c1,0,2.2,0,2.5,0
		s0.4-0.1,0.4-0.4v-4.5h-8.4v-1.9h8.4v-1.9h2v1.9h3.9L46.7,84.2L46.7,84.2z M34.7,81.4h-1.9V78h6.1c-0.2-0.5-0.4-1-0.6-1.5l1.9-0.4
		c0.3,0.6,0.7,1.4,0.9,2h5.4v3.4h-2v-1.6h-9.6v1.5H34.7z M35.8,84.6c1,0.9,2.1,2.2,2.5,3.2l-1.6,1.1c-0.4-0.9-1.5-2.3-2.4-3.3
		L35.8,84.6z"/>
	<path class="st0" d="M54.1,80.3h-6v-1.5h2.7c-0.2-0.6-0.6-1.4-1-2l1.4-0.7c0.4,0.7,0.9,1.5,1.2,2.1l-1,0.6h2.7
		C54.1,78.8,54.1,80.3,54.1,80.3z M62.5,86.7c-0.5,1-1.3,1.7-2.2,2.4c0.9,0.3,1.9,0.4,3,0.5c-0.4,0.4-0.8,1.1-1,1.5
		c-1.4-0.2-2.7-0.5-3.7-1.1c-1.2,0.5-2.6,0.9-4.1,1.1c-0.2-0.4-0.6-1.1-0.9-1.4v0.6h-3.3V91h-1.6v-5.5h4.8v4.3
		c1.1-0.1,2.2-0.3,3.2-0.6c-0.5-0.4-0.9-0.8-1.3-1.3l0.6-0.2h-1.7v-1.3H61l0.3-0.1L62.5,86.7z M56.3,78.4h-2.2V77h2.2v-0.8H58v2.9
		h-1.4l0.4,0.1c-0.1,0.2-0.2,0.5-0.3,0.7h1.4c-0.1-0.3-0.2-0.5-0.2-0.8l1.3-0.3v-2.7h1.7v0.8H63v1.4h-2.1v0.8h-1.2
		c0.1,0.3,0.2,0.6,0.3,0.8h2.6V81h-2.7v0.5h2.3v0.9h-2.3v0.5h2.3v0.9h-2.3v0.6H63v1.3h-6.3v0.2h-1.6v-3.2c-0.2,0.2-0.4,0.4-0.6,0.6
		c-0.2-0.3-0.6-1-0.9-1.3v0.5h-4.7v-1.4h4.7v0.8c0.8-0.8,1.5-1.9,1.9-3.1l0.8,0.3C56.3,79.1,56.3,78.4,56.3,78.4z M48.8,83.2h4.7
		v1.4h-4.7V83.2z M52,86.9h-1.7v1.8H52V86.9z M58.3,81.1h-1.7v0.5h1.7V81.1z M58.3,82.6h-1.7v0.5h1.7V82.6z M58.3,84h-1.7v0.6h1.7
		V84z M57.4,87.5c0.3,0.3,0.7,0.6,1.2,0.8c0.5-0.2,0.9-0.5,1.3-0.8H57.4z"/>
	<path class="st0" d="M67,83.6c0,2.2-0.2,5.5-1.6,7.6c-0.3-0.3-1-0.9-1.4-1.1c1.2-1.9,1.3-4.6,1.3-6.5v-3.7h13.5v1.6H67V83.6z
		 M71.3,79.4h-5.2v-2.7h5.2V79.4z M78.2,84.3c-0.3,1.4-0.7,2.7-1.3,3.7c0.7,0.7,1.5,1.3,2.4,1.7c-0.4,0.4-0.9,1-1.2,1.5
		c-0.9-0.4-1.6-1.1-2.2-1.8c-0.7,0.7-1.4,1.3-2.4,1.8c-0.2-0.3-0.8-1-1.1-1.3v1.3h-1.6v-1.1c-1.5,0.2-2.9,0.4-4.1,0.5l-0.2-1.4
		l1.1-0.1V85h-0.5v-1.3h2.1v-0.6h-1.8v-1.2h5.3v1.2h-1.9v0.6h2.1v1.2h-0.5v0.9c0.9-1,1.5-2.6,1.7-4.2l1.6,0.3
		c-0.1,0.3-0.1,0.7-0.2,1h3.3v1.5L78.2,84.3C78.2,84.4,78.2,84.3,78.2,84.3z M69.6,77.7h-1.8v0.7h1.8V77.7z M69.2,84.9v0.7h1.7v-0.7
		H69.2z M69.2,87.1h1.7v-0.7h-1.7V87.1z M70.9,88.7V88h-1.7v0.8L70.9,88.7z M77.7,79.4h-5.3v-2.7h5.3V79.4z M72.4,89.8
		c1-0.5,1.9-1.1,2.5-1.8c-0.3-0.5-0.6-1.1-0.8-1.7c-0.1,0.2-0.3,0.4-0.5,0.6c-0.3-0.3-0.9-0.8-1.2-1.1V89.8z M75.9,77.7H74v0.7h1.9
		V77.7z M75.1,84.3L75,84.5c0.2,0.7,0.5,1.4,0.8,2c0.3-0.7,0.5-1.4,0.7-2.2H75.1z"/>
	<path class="st0" d="M80.3,76.8H87v1.6h-1.7V80h1.6v10.9h-1.5v-0.8h-3.5v1h-1.4V79.9h1.6v-1.6h-1.8C80.3,78.3,80.3,76.8,80.3,76.8z
		 M85.5,88.6v-3.8l0,0H85c-0.7,0-0.9-0.2-0.9-1.1v-2.1h-0.6v1.1c0,0.9-0.2,2-0.9,2.8c-0.1-0.1-0.4-0.4-0.6-0.5v3.6H85.5z M81.9,81.5
		v3.3c0.5-0.6,0.6-1.4,0.6-2.1v-1.2C82.5,81.5,81.9,81.5,81.9,81.5z M82.4,86.1H85v1.4h-2.6V86.1z M84,78.4h-0.6V80H84V78.4z
		 M85.5,81.5h-0.6v2.1c0,0.2,0,0.2,0.1,0.2h0.3c0.1,0,0.2,0,0.2,0V81.5z M95.2,82.1v1.7h-7.7v-1.7h3.2v-2h-1.2
		c-0.2,0.7-0.4,1.3-0.7,1.9c-0.4-0.3-1.1-0.7-1.6-0.8c0.7-1.1,1.1-2.9,1.3-4.6l1.7,0.3c-0.1,0.5-0.2,1-0.3,1.6h0.8v-2.4h1.8v2.4h2.4
		v1.7h-2.4v2L95.2,82.1L95.2,82.1z M87.9,84.8h6.8v6.3h-1.8v-0.8h-3.2v0.8H88L87.9,84.8L87.9,84.8z M89.7,86.5v2.1h3.2v-2.1H89.7z"
		/>
	<path class="st0" d="M107.6,84.4c1.2,0.9,2.6,2.3,3.3,3.3l-1.7,0.7c-0.2-0.4-0.6-0.8-1.1-1.3l-3.5,0.3v2c0,0.9-0.2,1.3-0.9,1.5
		c-0.6,0.2-1.5,0.3-2.6,0.3c-0.1-0.5-0.4-1.2-0.7-1.6c0.7,0,1.6,0,1.9,0c0.2,0,0.3,0,0.3-0.2v-1.7c-3.8,0.3-4.5,0.4-5,0.6
		c-0.1-0.3-0.3-1.2-0.5-1.6c0.6-0.1,1.2-0.3,2.2-0.6c0.5-0.2,1.3-0.5,2.4-1c-2.6,0.2-3.1,0.3-3.5,0.4c-0.1-0.3-0.3-1.1-0.5-1.5
		c0.4-0.1,0.8-0.2,1.3-0.4c0.5-0.2,1.9-0.8,3.2-1.6c-2.2,0.3-4.5,0.7-6.1,0.9l-0.2-1.7l1-0.1v-3.6h1.7v3.2l1-0.1v-4.4h1.8v1.4h1.9
		v1.5h-1.9v1.3l2-0.2v1.5h-0.1l1,0.8c-0.6,0.4-1.3,0.7-1.9,1l2.5-0.2c0.5-0.3,1-0.6,1.4-0.9l1.2,1.3c-1.5,0.9-3.1,1.6-4.7,2.3
		l4.1-0.3c-0.3-0.3-0.6-0.5-0.8-0.8L107.6,84.4z M101.4,88.5c-1,0.9-2.5,1.8-3.7,2.3c-0.3-0.3-1-0.9-1.4-1.2
		c1.2-0.4,2.6-1.1,3.4-1.8L101.4,88.5z M106.5,82.3c-1.9,0-2.4-0.5-2.4-2.1v-4h1.9v1.4h4.4v1.5H106v1.1c0,0.5,0.1,0.6,0.8,0.6h1.9
		c0.5,0,0.6-0.2,0.7-1.1c0.4,0.3,1.1,0.5,1.6,0.6c-0.2,1.6-0.7,2.1-2.1,2.1L106.5,82.3L106.5,82.3z M106.9,87.7
		c1.2,0.6,2.8,1.5,3.7,2l-1.6,1c-0.8-0.6-2.4-1.6-3.6-2.2L106.9,87.7z"/>
	<path class="st0" d="M119,78.4l1.4,0.4c-0.7,6.5-3.1,10.4-6.6,12.3c-0.3-0.5-1.1-1.3-1.6-1.6c1.8-0.8,3.3-2.2,4.3-4.1
		c-0.5-0.7-1.3-1.5-2.1-2.3c-0.3,0.4-0.5,0.9-0.8,1.2c-0.3-0.3-1.2-0.9-1.6-1.2c1.4-1.6,2.3-4.2,2.8-7l1.9,0.3
		c-0.1,0.7-0.3,1.3-0.5,2h2.4L119,78.4z M115.7,80.3c-0.1,0.4-0.3,0.8-0.4,1.2c0.6,0.6,1.4,1.4,2.1,2c0.4-1,0.6-2,0.8-3.2H115.7z
		 M125.6,85.9c-0.5-0.8-1.6-2-2.6-3v8.2h-2v-15h2v5.3l0.7-0.5c1.1,1.1,2.7,2.7,3.5,3.6L125.6,85.9z"/>
	<path class="st0" d="M132.6,86.1c0-0.2-0.1-0.4-0.1-0.7c-2.9,0.4-3.4,0.6-3.8,0.7c-0.1-0.4-0.4-1.2-0.6-1.7
		c0.4-0.1,0.8-0.5,1.3-1.1c0.2-0.2,0.5-0.7,1-1.3c-1.2,0.1-1.5,0.2-1.8,0.4c-0.1-0.4-0.4-1.2-0.6-1.6c0.3-0.1,0.6-0.4,0.9-0.8
		s1.3-2.2,1.8-3.9l1.7,0.7c-0.5,1.3-1.3,2.7-2.1,3.8l1.1-0.1c0.4-0.7,0.8-1.4,1.1-2.1l1.6,1c-0.6,1.1-1.3,2.2-2.1,3.3l1.2-0.3
		c0.4,1.1,0.7,2.5,0.8,3.3L132.6,86.1z M130.2,86.9c-0.1,1.5-0.4,3-0.7,4.1c-0.3-0.2-1-0.4-1.4-0.5c0.4-1,0.6-2.4,0.7-3.8
		L130.2,86.9z M131.8,86.6c0.2,1.1,0.3,2.4,0.4,3.4l-1.4,0.2c0-0.9-0.1-2.3-0.3-3.4L131.8,86.6z M132.2,84c-0.1-0.4-0.2-0.8-0.3-1.1
		c-0.4,0.4-0.7,0.9-1.1,1.3L132.2,84z M133.3,86.2c0.3,0.7,0.5,1.6,0.7,2.2l-1.3,0.4c-0.1-0.6-0.4-1.6-0.6-2.2L133.3,86.2z
		 M137.8,85c-0.5,2.5-1.7,4.3-3.4,5.3c-0.2-0.4-0.7-1-1.1-1.3c1-0.5,1.8-1.6,2.3-2.8h-1.4v-1.5h2.1h0.3L137.8,85z M143,85.1
		c-0.7,0.6-1.5,1.2-2.1,1.7c0.6,0.9,1.4,1.7,2.3,2.2c-0.4,0.4-1,1-1.2,1.5c-0.9-0.6-1.7-1.6-2.3-2.7v1.4c0,0.8-0.1,1.3-0.7,1.6
		c-0.5,0.3-1.3,0.3-2.3,0.3c-0.1-0.5-0.3-1.2-0.5-1.7c0.6,0,1.2,0,1.4,0s0.3,0,0.3-0.2v-5.5h-3.1v-5.8h2.3c0.2-0.6,0.4-1.2,0.5-1.7
		l2.2,0.4c-0.2,0.5-0.5,0.9-0.7,1.3h3.4v5.8h-2.8v0.5c0.1,0.4,0.3,0.9,0.5,1.3c0.5-0.5,1.1-1.1,1.4-1.6L143,85.1z M136.5,80.1h4.1
		v-0.8h-4.1V80.1z M136.5,82.3h4.1v-0.8h-4.1V82.3z"/>
	<path class="st0" d="M152.3,79.2v2.5l0.3-0.4c1.7,0.9,4.2,2.2,5.5,3.2l-1.4,1.7c-0.9-0.8-2.8-2-4.4-2.9v7.6h-2V79.2h-5.8v-1.9h14.3
		v1.9H152.3z"/>
	<path class="st0" d="M174.7,78.6c0,0,0,0.6,0,0.9c-0.2,7.2-0.4,9.7-1,10.5c-0.4,0.6-0.9,0.8-1.5,0.9s-1.6,0.1-2.5,0
		c0-0.5-0.3-1.3-0.6-1.9c1,0.1,2,0.1,2.4,0.1c0.3,0,0.5-0.1,0.7-0.3c0.5-0.5,0.7-2.9,0.8-8.6h-3.4c-0.4,1-0.9,1.8-1.4,2.5
		c-0.3-0.2-0.8-0.6-1.2-0.9v7.5h-4.3v1.2H161V78.7h1.8c0.2-0.8,0.4-1.8,0.5-2.6l2.1,0.3c-0.3,0.8-0.6,1.6-0.8,2.3h2.5v2.6
		c0.9-1.3,1.7-3.3,2.2-5.2l1.8,0.4c-0.2,0.7-0.4,1.4-0.6,2L174.7,78.6L174.7,78.6z M165.1,80.4h-2.5V83h2.5V80.4z M165.1,87.8v-3.1
		h-2.5v3.1H165.1z M170.4,86.9c-0.4-1-1.4-2.5-2.2-3.7l1.5-0.8c0.8,1.1,1.9,2.6,2.4,3.6L170.4,86.9z"/>
	<path class="st0" d="M189.4,89.1c0.1,0,0.1,0,0.2-0.1c0-0.1,0.1-0.2,0.1-0.6c0-0.3,0-1.1,0-2c0.4,0.3,1,0.7,1.5,0.8
		c0,0.8-0.1,1.9-0.2,2.4c-0.1,0.5-0.3,0.8-0.5,1s-0.6,0.3-1,0.3h-0.9c-0.4,0-0.8-0.1-1.1-0.4s-0.4-0.7-0.4-2.1v-9.8h-1.7v4.7
		c0,2.5-0.2,5.9-1.7,8c-0.3-0.3-1.1-0.9-1.6-1.1c-0.1,0.2-0.3,0.4-0.5,0.5c-0.5,0.3-1.2,0.4-2.2,0.4c0-0.5-0.3-1.3-0.5-1.8
		c0.6,0,1.2,0,1.3,0c0.2,0,0.3-0.1,0.3-0.3v-3.7c-0.4,0.4-0.8,0.8-1.2,1.2l-0.5-1c-0.1,2-0.5,4.2-1.2,5.8c-0.4-0.3-1.1-0.7-1.6-0.9
		c1-2.2,1.1-5.4,1.1-7.7v-6h5.2v12.2c0,0.4,0,0.8-0.1,1c1.2-1.8,1.3-4.5,1.3-6.7v-6.5h5.5v11.6c0,0.4,0,0.6,0.1,0.7
		c0,0.1,0.1,0.1,0.1,0.1H189.4z M178.9,82.5c0,0.6,0,1.3,0,2.1c0.5-0.3,1.1-0.7,1.7-1.2v-1.1l-0.5,0.4c-0.2-0.3-0.7-0.8-1.1-1.3
		L178.9,82.5L178.9,82.5z M178.9,78.5v1.8l0.5-0.4c0.4,0.3,0.8,0.7,1.1,1.1v-2.6L178.9,78.5L178.9,78.5z"/>
	<path class="st0" d="M204.1,81.3c0.6,0,1.8-0.1,2.2-0.1c0,0.5,0.1,0.8,0.1,1.1c-0.4,0.1-1.3,0.1-2.1,0.1h-3.8c-1.5,0-1.9-0.5-2-1.4
		l-2.7,0.1v-0.8l2.7-0.1v-0.5h-3.2v2.9c0,2.4-0.2,6.1-1.6,8.4c-0.4-0.3-1.2-0.8-1.6-1c1.3-2.1,1.4-5.2,1.4-7.4v-4.1h5v-2.4h1.9v0.7
		h5.1V78h-5.1v0.5h4.6l0.3-0.1l1.4,0.4c-0.3,0.8-0.7,1.7-1,2.3l-1.6-0.5c0.1-0.2,0.2-0.5,0.3-0.8h-4.3v0.4l3.5-0.1v0.8l-3.5,0.1
		c0,0.2,0.2,0.3,0.7,0.3C200.8,81.3,204.1,81.3,204.1,81.3z M205.1,89.6c0,0.7-0.1,1-0.6,1.2s-1.2,0.2-2,0.2
		c-0.1-0.4-0.3-0.8-0.5-1.2c0.4,0,0.9,0,1.1,0c0.2,0,0.2,0,0.2-0.2v-0.4c-1.5,0.3-3,0.5-4.3,0.7l-0.4-1.2c0.9-0.1,2.1-0.2,3.3-0.3
		c-0.8-0.3-2.1-0.6-3.1-0.7l0.4-0.7c1.1,0.1,2.7,0.4,3.5,0.7l-0.3,0.7l0.8-0.1V87h-4.7v0.9c0,1.2-0.2,2.5-1.2,3.3
		c-0.3-0.3-1.1-0.9-1.5-1.2c0.9-0.7,1-1.5,1-2.2v-1.6h8.3V89.6z M195.9,82.8h10v3.1h-10V82.8z M197.6,84h2.3v-0.5h-2.3V84z
		 M197.6,85.1h2.3v-0.4h-2.3V85.1z M204.1,83.5h-2.4V84h2.4V83.5z M204.1,84.7h-2.4v0.4h2.4V84.7z"/>
	<path class="st0" d="M214.3,83.7c0,1.4-1.2,2.6-2.6,2.6c-1.4,0-2.6-1.2-2.6-2.6s1.2-2.6,2.6-2.6S214.3,82.2,214.3,83.7z
		 M213.1,83.7c0-0.8-0.6-1.4-1.4-1.4c-0.8,0-1.4,0.6-1.4,1.4s0.7,1.4,1.4,1.4C212.5,85.1,213.1,84.5,213.1,83.7z"/>
</g>
<g>
	<path class="st0" d="M259.3,40.8l0.8-1.4l-1.4-0.6l0.3-0.9l1.5,0.3l0.2-1.6h0.9l0.1,1.6l1.5-0.3l0.3,0.9l-1.4,0.6l0.8,1.4l-0.8,0.6
		l-1.1-1.2l-1.1,1.2L259.3,40.8z"/>
</g>
</svg>
