<svg xmlns="http://www.w3.org/2000/svg" width="482.187" height="47.406" viewBox="0 0 482.187 47.406">
  <defs>
    <style>
      .cls-1 {
        fill: #fff;
        fill-rule: evenodd;
      }
    </style>
  </defs>
  <path id="head-about.svg" class="cls-1" d="M494.339,239.339h9.521l-18.974-45.362h-6.938L458.43,239.339h9.589l4.013-9.521h18.294Zm-19.519-16.73,6.461-16.323,6.461,16.323H474.82Zm34.338-28.632v45.362h15.234c3.945,0,8.094-.68,11.494-3.672a12.124,12.124,0,0,0,3.877-9.182,11.574,11.574,0,0,0-3.265-8.5,10.659,10.659,0,0,0-5.917-2.856,9.692,9.692,0,0,0,5.1-8.91,11.8,11.8,0,0,0-4.217-9.385c-3.672-2.856-8.569-2.856-11.085-2.856H509.158ZM518,201.186h2.585c3.6,0,6.8,1.564,6.8,5.713,0,5.78-5.509,5.916-6.869,5.916H518V201.186Zm0,18.43h3.265a14.406,14.406,0,0,1,6.053.885,5.429,5.429,0,0,1,3.332,5.168,5.845,5.845,0,0,1-2.788,5.237,12.075,12.075,0,0,1-6.053,1.224H518V219.616Zm51.954-26.66c-14.282,0-24.212,9.93-24.212,23.736s9.93,23.667,24.212,23.667,24.211-9.861,24.211-23.667S584.235,192.956,569.953,192.956Zm0,39.378c-8.842,0-15.1-6.461-15.1-15.642s6.256-15.71,15.1-15.71,15.1,6.529,15.1,15.71S578.794,232.334,569.953,232.334Zm32.364-38.357v27.748c0,4.284.68,8.637,3.4,12.106,3.265,4.284,8.977,6.528,14.826,6.528s11.562-2.244,14.827-6.528c2.72-3.469,3.4-7.822,3.4-12.106V193.977h-8.841v28.5a9.863,9.863,0,0,1-2.177,6.733,9.871,9.871,0,0,1-14.418,0,9.869,9.869,0,0,1-2.176-6.733v-28.5h-8.841Zm71.266,7.617v-7.617H644.339v7.617h10.2v37.745h8.841V201.594h10.2Zm48.347-3.333a17.45,17.45,0,0,0-12.854-5.305c-10.066,0-14.554,6.665-14.554,13.33a10.56,10.56,0,0,0,3.6,8.434,21.836,21.836,0,0,0,7.549,3.944c2.585,0.884,5.305,1.769,7.006,3.333a5.268,5.268,0,0,1,1.768,4.08c0,3.809-2.993,6.257-7,6.257a10.636,10.636,0,0,1-9.522-6.053l-5.781,5.509a18.672,18.672,0,0,0,15.643,8.569c9.385,0,15.778-6.052,15.778-14.894a12.339,12.339,0,0,0-3.876-9.521c-2.313-2.108-5.645-3.333-9.182-4.557-2.856-1.02-4.352-1.564-5.441-2.584a3.821,3.821,0,0,1-1.428-3.061c0-2.312,1.5-5.3,6.257-5.3a8.861,8.861,0,0,1,7.413,3.876Zm9.38-4.284v27.748c0,4.284.68,8.637,3.4,12.106,3.265,4.284,8.977,6.528,14.826,6.528s11.562-2.244,14.827-6.528c2.72-3.469,3.4-7.822,3.4-12.106V193.977h-8.841v28.5a9.863,9.863,0,0,1-2.177,6.733,9.871,9.871,0,0,1-14.418,0,9.869,9.869,0,0,1-2.176-6.733v-28.5H731.31Zm54.264,45.362V209.007l27.612,30.332h6.121V193.977h-8.841v30.264l-27.612-30.264h-6.121v45.362h8.841Zm75.62-11.969a13.738,13.738,0,0,1-10.61,4.964c-7.617,0-15.37-5.441-15.37-15.506,0-8.365,5.917-15.846,15.03-15.846a14.592,14.592,0,0,1,10.95,5.1V195.745a22.809,22.809,0,0,0-11.154-2.789c-6.461,0-12.106,1.7-16.662,5.985-3.877,3.6-7.278,9.522-7.278,17.751a22.61,22.61,0,0,0,7.278,17.343c3.808,3.6,8.637,6.324,16.594,6.324a23.5,23.5,0,0,0,11.222-2.652V227.37Zm6.794-33.393v27.748c0,4.284.68,8.637,3.4,12.106,3.265,4.284,8.978,6.528,14.827,6.528s11.561-2.244,14.826-6.528c2.72-3.469,3.4-7.822,3.4-12.106V193.977H895.6v28.5a9.869,9.869,0,0,1-2.176,6.733,9.871,9.871,0,0,1-14.418,0,9.863,9.863,0,0,1-2.177-6.733v-28.5h-8.841Zm72.627,7.617v-7.617H911.37v7.617h10.2v37.745h8.841V201.594h10.2Z" transform="translate(-458.438 -192.969)"/>
</svg>
