<?xml version="1.0" encoding="utf-8"?>
<!-- Generator: Adobe Illustrator 26.0.3, SVG Export Plug-In . SVG Version: 6.00 Build 0)  -->
<svg version="1.1" id="name-tm_sp.svg" xmlns="http://www.w3.org/2000/svg" xmlns:xlink="http://www.w3.org/1999/xlink" x="0px"
	 y="0px" viewBox="0 0 285.9 104.3" style="enable-background:new 0 0 285.9 104.3;" xml:space="preserve">
<style type="text/css">
	.st0{opacity:0.7;fill-rule:evenodd;clip-rule:evenodd;fill:#956F17;enable-background:new    ;}
	.st1{fill:#8C6C14;}
</style>
<path id="Toughness_UV_milk" class="st0" d="M8.2,2.9V1H0v1.9H3v11.4h2V2.9H8.2L8.2,2.9z M18.3,0.8c-3.8,0-6.9,3.1-6.9,6.9
	c0,3.8,3.1,6.9,6.9,6.9c3.8,0,6.9-3.1,6.9-6.9c0.1-3.7-2.9-6.8-6.6-6.9C18.5,0.8,18.4,0.8,18.3,0.8L18.3,0.8z M18.3,12.8
	c-2.8,0.1-5.1-2.1-5.2-4.9C13,5.1,15.2,2.7,18,2.7c2.8-0.1,5.1,2.1,5.2,4.9c0,0,0,0.1,0,0.1c0.2,2.6-1.9,4.9-4.5,5
	C18.5,12.8,18.4,12.8,18.3,12.8L18.3,12.8z M29.8,1v8.6c0,1.3,0.4,2.5,1.2,3.5c2,2,5.3,2.1,7.3,0.1c0,0,0.1-0.1,0.1-0.1
	c0.8-1,1.3-2.2,1.2-3.5V1h-2v8c0.1,0.8-0.1,1.6-0.4,2.3c-0.9,1.4-2.7,1.8-4,0.9c-0.4-0.2-0.7-0.6-0.9-0.9c-0.3-0.7-0.5-1.5-0.4-2.3
	V1H29.8z M51.7,9.3h3.3c-0.1,0.9-0.5,1.7-1.1,2.3c-0.8,0.8-1.9,1.2-3,1.2c-1.3,0.1-2.5-0.4-3.3-1.3c-1.9-2.1-1.8-5.3,0-7.4
	c0.9-0.9,2.2-1.4,3.5-1.4c0.8,0,1.6,0.2,2.4,0.6c0.6,0.4,1.2,0.9,1.6,1.5l1.6-1.1c-0.5-0.8-1.3-1.5-2.2-2c-1.1-0.6-2.3-0.9-3.5-0.8
	c-3.9,0.1-7,3.3-7,7.2c0,1.8,0.7,3.5,2,4.8c1.2,1.2,2.8,1.9,4.5,1.8c1.7,0.1,3.3-0.5,4.5-1.7c1.4-1.5,2.1-3.4,2-5.4V7.4h-5.5
	L51.7,9.3L51.7,9.3z M63.8,1h-2v13.4h2V8.2h5.7v6.1h2V1h-2v5.3h-5.7L63.8,1L63.8,1z M78.8,14.4V5l9.7,10.1V1h-2v9.2L76.8,0.1v14.2
	H78.8z M101.1,1h-7.4v13.4h7.4v-1.9h-5.3V8.2h5.2V6.3h-5.2V2.9h5.3L101.1,1L101.1,1z M113.1,3c-0.3-0.5-0.6-1-1-1.3
	c-0.8-0.6-1.7-0.9-2.7-0.9c-2-0.2-3.7,1.3-3.9,3.3c0,0.1,0,0.2,0,0.2c0.1,1.6,1.2,2.9,2.7,3.4l1.3,0.5c1.1,0.3,1.9,1.2,1.9,2.3
	c0.1,1.2-0.9,2.2-2,2.2c-0.1,0-0.1,0-0.2,0c-0.7,0-1.3-0.3-1.7-0.8c-0.4-0.5-0.6-1.1-0.6-1.7l-2,0.4c0.1,1,0.5,1.9,1.1,2.6
	c0.8,0.9,1.9,1.4,3.1,1.3c2.3,0.1,4.2-1.6,4.3-3.9c0-0.1,0-0.2,0-0.4c0-1.5-0.7-2.9-3.1-3.9L109,5.9c-1.3-0.5-1.4-1.2-1.4-1.6
	c0-0.9,0.8-1.6,1.7-1.6c0.1,0,0.1,0,0.2,0c0.9,0,1.7,0.5,2,1.3L113.1,3z M125.4,3c-0.3-0.5-0.6-1-1-1.3c-0.8-0.6-1.7-0.9-2.7-0.9
	c-2-0.2-3.7,1.3-3.9,3.3c0,0.1,0,0.2,0,0.2c0.1,1.6,1.2,2.9,2.7,3.4l1.3,0.5c1.1,0.3,1.9,1.2,1.9,2.3c0.1,1.2-0.9,2.2-2,2.2
	c-0.1,0-0.1,0-0.2,0c-0.7,0-1.3-0.3-1.7-0.8c-0.4-0.5-0.6-1.1-0.6-1.7l-2,0.4c0.1,1,0.5,1.9,1.1,2.6c0.8,0.9,1.9,1.4,3.1,1.3
	c2.3,0.1,4.2-1.6,4.3-3.9c0-0.1,0-0.2,0-0.4c0-1.5-0.7-2.9-3.1-3.9l-1.3-0.5c-1.3-0.5-1.4-1.2-1.4-1.6c0-0.9,0.8-1.6,1.7-1.6
	c0.1,0,0.1,0,0.2,0c0.9,0,1.7,0.5,2,1.3L125.4,3z M137,1v8.6c0,1.3,0.4,2.5,1.2,3.5c2,2,5.3,2.1,7.3,0.1c0,0,0.1-0.1,0.1-0.1
	c0.8-1,1.3-2.2,1.2-3.5V1h-2v8c0.1,0.8-0.1,1.6-0.4,2.3c-0.9,1.4-2.7,1.8-4,0.9c-0.4-0.2-0.7-0.6-0.9-0.9c-0.3-0.7-0.5-1.5-0.4-2.3
	V1H137L137,1z M150.6,1l5.9,14.2L162.4,1h-2.2l-3.7,9.3L152.8,1H150.6L150.6,1z M174.4,14.4l1.4-8.1l3.8,8.7l3.9-8.7l1.4,8h2.1
	L184.5,0l-4.7,10.4L175.1,0l-2.8,14.4H174.4L174.4,14.4z M191.8,1v13.4h2V1H191.8z M199,1v13.4h6v-1.9h-3.9V1H199z M210.9,1h-2v13.4
	h2V8.8l0.4-0.4l4.8,5.9h2.7l-6.1-7.3l6-6h-2.7l-5.2,5.3L210.9,1L210.9,1z"/>
<path class="st1" d="M9.9,44.6c4.5,2,6.1,3.7,6.1,7c0,3.9-3.1,6.5-8.3,6.5c-2.5,0-5.1-0.7-6.7-1.8l0.2-5h1.7L4,56.2
	c1,0.4,2,0.6,3.2,0.6c3.1,0,5-1.5,5-3.9c0-2.1-1-3.1-3.6-4.3L7.3,48c-3.8-1.7-5.9-3.6-5.9-7.1c0-3.9,3.2-6.2,7.8-6.2
	c2.4,0,4.3,0.6,5.8,1.7l-0.2,4.8h-1.7l-1.2-4.7c-0.7-0.3-1.3-0.4-2.3-0.4c-2.7,0-4.5,1.3-4.5,3.7c0,2.1,1.2,3.3,3.4,4.3L9.9,44.6z"
	/>
<path class="st1" d="M40,36.3l-3,0.4l-0.1,11.6c0,6.8-3,9.8-8.1,9.8c-5,0-8.5-2.5-8.5-9.2v-3.3c0-2.9,0-5.9-0.1-8.9l-2.7-0.3v-1
	h10.1v1l-3.1,0.2c-0.1,2.9-0.1,5.9-0.1,8.9v2.8c0,5.5,2,7.6,5.5,7.6c3.6,0,5.7-2.2,5.6-7.8l-0.1-11.2l-3.3-0.6v-1h8v1
	C40.1,36.3,40,36.3,40,36.3z"/>
<path class="st1" d="M64.1,36.3l-2.8,0.4l-0.1,21h-2.1L45.9,39L46,56.1l3.8,0.4v1h-8.1v-1l2.8-0.3v-19L44,36.6l-2.3-0.3v-1H48
	l11.8,16.4l-0.1-14.8l-3.8-0.5v-1H64L64.1,36.3L64.1,36.3L64.1,36.3z"/>
<path class="st1" d="M84.4,56.4c-2,1-4,1.8-6.7,1.8c-6.6,0-11.6-4.3-11.6-11.7c0-7.6,5.3-11.7,11.7-11.7c2.4,0,4.4,0.5,6.3,1.7
	L84,41.6h-1.8l-1.3-5.2c-0.8-0.3-1.8-0.5-2.7-0.5c-4.5,0-7.8,3.4-7.8,10.5s3.3,10.5,7.8,10.5c1,0,2-0.2,2.9-0.6l1.3-5.1h1.8
	L84.4,56.4z"/>
<path class="st1" d="M108.9,36.3l-3,0.4l-0.2,11.6c0,6.8-3,9.8-8.1,9.8c-5,0-8.5-2.5-8.5-9.2v-3.3c0-2.9,0-5.9-0.1-8.9l-2.7-0.3v-1
	h10.1v1l-3.1,0.2c-0.1,2.9-0.1,5.9-0.1,8.9v2.8c0,5.5,2,7.6,5.5,7.6c3.6,0,5.7-2.2,5.6-7.8l-0.1-11.2l-3.5-0.4v-1h8v0.8
	C108.7,36.3,108.9,36.3,108.9,36.3z"/>
<path class="st1" d="M122.1,36.5c-0.1,3-0.1,6.1-0.1,9.1v1.5c0,3,0,6,0.1,9.1l3.2,0.3v1h-10.8v-1l3.2-0.3c0-3,0-6,0-9.1v-1.5
	c0-3,0-6.1,0-9.1H113l-1.2,5h-1.7l0.2-6.2h19.1l0.2,6.2H128l-1.2-5H122.1z"/>
<path class="st1" d="M161.5,36.3l-3,0.4l-0.1,11.6c0,6.8-3,9.8-8.1,9.8c-5,0-8.5-2.5-8.5-9.2v-3.3c0-2.9,0-5.9-0.1-8.9l-2.7-0.3v-1
	h10.1v1l-3.1,0.2c-0.1,2.9-0.1,5.9-0.1,8.9v2.8c0,5.5,2,7.6,5.4,7.6c3.6,0,5.7-2.2,5.6-7.8l-0.1-11.2l-3.5-0.4v-1h8v0.8
	C161.3,36.3,161.5,36.3,161.5,36.3z"/>
<path class="st1" d="M184.2,36.2l-2.7,0.4l-7.1,21h-2.2l-7.6-21.2l-2.3-0.2v-1h10v1l-3.1,0.3l5.6,16.6l5.2-16.5l-3.1-0.4v-1h7.5v1
	C184.4,36.2,184.2,36.2,184.2,36.2z"/>
<path class="st1" d="M201.6,54.4c-0.1,0.2-1.3,0.8-2.3,0.8h-0.4v-2.5h-2.1v3.1c0,0.2-0.8,0.9-2.3,0.9H194V33.9l3.1,1.2h1.3l1.3-1.6
	l2.9,2.3c-0.2,0.2-0.6,0.5-1.2,0.6v17.8h0.2V54.4z M196.7,36.1v7.4h2.1v-7.4H196.7z M198.9,51.9v-7.6h-2.1v7.6H198.9z M215.1,44.1v2
	h1.6l1.3-1.3l2.8,2.1c-0.1,0.2-0.5,0.4-1,0.5v2.8c0,0.2-1.3,0.8-2.4,0.8h-0.5v-0.8h-11.2c-0.3,3.3-1.1,7.4-4.4,10.2l-0.3-0.3
	c1.9-3.9,2-8.8,2-12.8V42l0.2,0.1v-6.6l2.5,1h2.6l1.1-1.1l2.3,1.8c-0.1,0.2-0.4,0.3-0.8,0.4v3.3c0.6,0.1,1,0.2,1.5,0.4v-5.8l2.5,1
	h2.4l1.1-1.1l2.4,1.8c-0.1,0.2-0.4,0.3-0.9,0.4V41c0,0.1-0.6,0.5-1.1,0.6c0.6,0.5,1.7,1.3,2.4,2c-0.1,0.3-0.3,0.5-0.8,0.5h-5.1l0,0
	C215.3,44.1,215.1,44.1,215.1,44.1z M202.4,35l-0.2-0.8h5.5l1.3-1.8c0,0,1.6,1.2,2.5,2.2c-0.1,0.3-0.3,0.5-0.7,0.5h-8.4L202.4,35
	L202.4,35z M203.2,42.1l3,1.1h4.7c-0.1-0.6-0.4-1.2-0.8-1.8c-0.4,0.2-0.9,0.3-1.5,0.3h-0.2v-4.6h-2.9v4.1c0,0.2-1,0.7-2,0.7h-0.3
	V42.1z M210.7,52.2c0,0,1.1,1,1.9,1.9c-0.1,0.3-0.3,0.5-0.7,0.5H209v2c1-0.2,2.2-0.3,3.3-0.6l0.1,0.4c-0.8,0.6-2.7,1.8-4.8,2.9
	c-0.2,0.4-0.5,0.6-0.8,0.8l-1.7-3c0.8-0.5,1-0.7,1-1.2v-5.3l3.6,0.3c-0.1,0.3-0.3,0.6-0.8,0.6v2.1h0.7L210.7,52.2z M205.8,38
	c4,0.8,2.3,3.9,0.7,2.6c0-0.8-0.5-1.9-1.1-2.4L205.8,38z M205.8,47.2c0,0.6,0,1.2,0,2h2v-2.4h-1.9v0.4H205.8z M205.8,46.1h1.9v-2
	h-1.9V46.1z M212.4,44.1h-2v2h2V44.1z M210.4,49.3h2v-2.4h-2V49.3z M212,35l-0.2-0.8h5l1.5-1.9c0,0,1.7,1.2,2.7,2.3
	c-0.1,0.3-0.4,0.5-0.8,0.5L212,35L212,35z M219.8,56.7c0.7,0.3,0.8,0.6,0.8,1.1c0,1.1-1,1.6-3.9,1.6H215c-2.2,0-2.4-0.6-2.4-2.3
	v-6.5l3.6,0.3c-0.1,0.4-0.3,0.6-0.8,0.7v2.1h1l1.2-1.8c0,0,1.5,1.2,2.2,2.2c-0.1,0.3-0.3,0.5-0.8,0.5h-3.6v2c0,0.3,0.1,0.4,0.5,0.4
	h1h1c0.2,0,0.4-0.1,0.5-0.2c0.2-0.3,0.5-1,0.8-2h0.3L219.8,56.7z M214.6,37.3v0.8h0.1c4,0.8,2.3,3.8,0.7,2.6c0-0.6-0.3-1.6-0.8-2.1
	v2.5c0,0.2-0.8,0.6-1.8,0.7c0.3,0.5,0.2,1-0.1,1.5h3.8l1.1-1.5h-0.4v-4.5H214.6L214.6,37.3L214.6,37.3z M215.1,46.9v2.4h1.8v-2.4
	H215.1z"/>
<path class="st1" d="M247.5,31.8c0,0,2.4,1.8,3.8,3.1c-0.1,0.3-0.4,0.5-0.8,0.5h-3.7v20.3c0,2.4-0.7,4.1-5.4,4.5
	c-0.1-1.1-0.3-2.1-1-2.6s-1.7-0.9-3.8-1.2V56c0,0,4.9,0.3,5.8,0.3c0.6,0,0.8-0.2,0.8-0.7V35.5h-20l-0.2-0.8h22.4L247.5,31.8z
	 M238.4,52c0,0.2-1.8,0.8-2.9,0.8h-0.6v-2.5h-5.2v2.6c0,0.3-1.5,1-2.9,1h-0.5V39l3.5,1.5h4.8l1.6-1.8l3.3,2.5
	c-0.2,0.2-0.6,0.5-1.2,0.6L238.4,52L238.4,52z M235,49.5v-8.1h-5.2v8.1H235z"/>
<path class="st1" d="M258.5,42c-1.5,1.6-3.2,3-5.2,4.1l-0.3-0.4c2.2-2.2,3.7-5.2,4.7-8.2h-4l-0.2-0.8h5.2v-4.8l4.4,0.4
	c-0.1,0.4-0.3,0.7-1.1,0.8v3.5h0.6l1.6-2.2c0,0,1.9,1.6,3,2.6c-0.1,0.3-0.4,0.5-0.8,0.5h-4.5v1.3c7.2,1.1,4.5,6.1,1.9,4.1
	c-0.1-1.2-1-2.7-1.9-3.6v7.3c0,0.3-1.5,0.8-2.6,0.8h-0.6V42H258.5z M278.2,36.5c0,0,2,1.6,3.1,2.6c-0.1,0.3-0.3,0.5-0.8,0.5h-3.7
	v6.8c0,0.1-1,0.7-2.7,0.7h-0.6v-7.5h-3c-0.1,2.2-0.8,4.8-3.9,6.7l4.3,0.6c-0.1,0.5-0.5,0.7-1.2,0.8c-0.6,0.4-1.7,1-2.4,1.6h5.8
	l1.7-1.8l3.4,2.6c-0.2,0.2-0.6,0.5-1.1,0.6v8.5c0,0.2-1.8,0.8-2.9,0.8h-0.6v-1.7h-11.7v0.8c0,0.3-1.6,1-3,1h-0.5V47.9l3.7,1.5h3.5
	c0.1-0.7,0.2-1.7,0.3-2.5c-0.5,0.3-1,0.5-1.7,0.7l-0.2-0.3c3.1-2.5,3.5-5.7,3.5-8.5v-4.7l3.5,1c2.3-0.9,4.7-2.1,6-2.9l3.2,3.1
	c-0.3,0.3-1,0.3-1.9,0c-2,0.3-5,0.7-7.7,0.8v2.8h6L278.2,36.5z M261.5,50.1v3.2h11.7v-3.2H261.5z M273.2,57.5v-3.3h-11.7v3.3H273.2z
	"/>
<path class="st1" d="M9.9,44.6c4.5,2,6.1,3.7,6.1,7c0,3.9-3.1,6.5-8.3,6.5c-2.5,0-5.1-0.7-6.7-1.8l0.2-5h1.7L4,56.2
	c1,0.4,2,0.6,3.2,0.6c3.1,0,5-1.5,5-3.9c0-2.1-1-3.1-3.6-4.3L7.3,48c-3.8-1.7-5.9-3.6-5.9-7.1c0-3.9,3.2-6.2,7.8-6.2
	c2.4,0,4.3,0.6,5.8,1.7l-0.2,4.8h-1.7l-1.2-4.7c-0.7-0.3-1.3-0.4-2.3-0.4c-2.7,0-4.5,1.3-4.5,3.7c0,2.1,1.2,3.3,3.4,4.3L9.9,44.6z"
	/>
<path class="st1" d="M40,36.3l-3,0.4l-0.1,11.6c0,6.8-3,9.8-8.1,9.8c-5,0-8.5-2.5-8.5-9.2v-3.3c0-2.9,0-5.9-0.1-8.9l-2.7-0.3v-1
	h10.1v1l-3.1,0.2c-0.1,2.9-0.1,5.9-0.1,8.9v2.8c0,5.5,2,7.6,5.5,7.6c3.6,0,5.7-2.2,5.6-7.8l-0.1-11.2l-3.3-0.6v-1h8v1
	C40.1,36.3,40,36.3,40,36.3z"/>
<path class="st1" d="M64.1,36.3l-2.8,0.4l-0.1,21h-2.1L45.9,39L46,56.1l3.8,0.4v1h-8.1v-1l2.8-0.3v-19L44,36.6l-2.3-0.3v-1H48
	l11.8,16.4l-0.1-14.8l-3.8-0.5v-1H64L64.1,36.3L64.1,36.3L64.1,36.3z"/>
<path class="st1" d="M84.4,56.4c-2,1-4,1.8-6.7,1.8c-6.6,0-11.6-4.3-11.6-11.7c0-7.6,5.3-11.7,11.7-11.7c2.4,0,4.4,0.5,6.3,1.7
	L84,41.6h-1.8l-1.3-5.2c-0.8-0.3-1.8-0.5-2.7-0.5c-4.5,0-7.8,3.4-7.8,10.5s3.3,10.5,7.8,10.5c1,0,2-0.2,2.9-0.6l1.3-5.1h1.8
	L84.4,56.4z"/>
<path class="st1" d="M108.9,36.3l-3,0.4l-0.2,11.6c0,6.8-3,9.8-8.1,9.8c-5,0-8.5-2.5-8.5-9.2v-3.3c0-2.9,0-5.9-0.1-8.9l-2.7-0.3v-1
	h10.1v1l-3.1,0.2c-0.1,2.9-0.1,5.9-0.1,8.9v2.8c0,5.5,2,7.6,5.5,7.6c3.6,0,5.7-2.2,5.6-7.8l-0.1-11.2l-3.5-0.4v-1h8v0.8
	C108.7,36.3,108.9,36.3,108.9,36.3z"/>
<path class="st1" d="M122.1,36.5c-0.1,3-0.1,6.1-0.1,9.1v1.5c0,3,0,6,0.1,9.1l3.2,0.3v1h-10.8v-1l3.2-0.3c0-3,0-6,0-9.1v-1.5
	c0-3,0-6.1,0-9.1H113l-1.2,5h-1.7l0.2-6.2h19.1l0.2,6.2H128l-1.2-5H122.1z"/>
<path class="st1" d="M161.5,36.3l-3,0.4l-0.1,11.6c0,6.8-3,9.8-8.1,9.8c-5,0-8.5-2.5-8.5-9.2v-3.3c0-2.9,0-5.9-0.1-8.9l-2.7-0.3v-1
	h10.1v1l-3.1,0.2c-0.1,2.9-0.1,5.9-0.1,8.9v2.8c0,5.5,2,7.6,5.4,7.6c3.6,0,5.7-2.2,5.6-7.8l-0.1-11.2l-3.5-0.4v-1h8v0.8
	C161.3,36.3,161.5,36.3,161.5,36.3z"/>
<path class="st1" d="M184.2,36.2l-2.7,0.4l-7.1,21h-2.2l-7.6-21.2l-2.3-0.2v-1h10v1l-3.1,0.3l5.6,16.6l5.2-16.5l-3.1-0.4v-1h7.5v1
	C184.4,36.2,184.2,36.2,184.2,36.2z"/>
<path class="st1" d="M201.6,54.4c-0.1,0.2-1.3,0.8-2.3,0.8h-0.4v-2.5h-2.1v3.1c0,0.2-0.8,0.9-2.3,0.9H194V33.9l3.1,1.2h1.3l1.3-1.6
	l2.9,2.3c-0.2,0.2-0.6,0.5-1.2,0.6v17.8h0.2V54.4z M196.7,36.1v7.4h2.1v-7.4H196.7z M198.9,51.9v-7.6h-2.1v7.6H198.9z M215.1,44.1v2
	h1.6l1.3-1.3l2.8,2.1c-0.1,0.2-0.5,0.4-1,0.5v2.8c0,0.2-1.3,0.8-2.4,0.8h-0.5v-0.8h-11.2c-0.3,3.3-1.1,7.4-4.4,10.2l-0.3-0.3
	c1.9-3.9,2-8.8,2-12.8V42l0.2,0.1v-6.6l2.5,1h2.6l1.1-1.1l2.3,1.8c-0.1,0.2-0.4,0.3-0.8,0.4v3.3c0.6,0.1,1,0.2,1.5,0.4v-5.8l2.5,1
	h2.4l1.1-1.1l2.4,1.8c-0.1,0.2-0.4,0.3-0.9,0.4V41c0,0.1-0.6,0.5-1.1,0.6c0.6,0.5,1.7,1.3,2.4,2c-0.1,0.3-0.3,0.5-0.8,0.5h-5.1l0,0
	C215.3,44.1,215.1,44.1,215.1,44.1z M202.4,35l-0.2-0.8h5.5l1.3-1.8c0,0,1.6,1.2,2.5,2.2c-0.1,0.3-0.3,0.5-0.7,0.5h-8.4L202.4,35
	L202.4,35z M203.2,42.1l3,1.1h4.7c-0.1-0.6-0.4-1.2-0.8-1.8c-0.4,0.2-0.9,0.3-1.5,0.3h-0.2v-4.6h-2.9v4.1c0,0.2-1,0.7-2,0.7h-0.3
	V42.1z M210.7,52.2c0,0,1.1,1,1.9,1.9c-0.1,0.3-0.3,0.5-0.7,0.5H209v2c1-0.2,2.2-0.3,3.3-0.6l0.1,0.4c-0.8,0.6-2.7,1.8-4.8,2.9
	c-0.2,0.4-0.5,0.6-0.8,0.8l-1.7-3c0.8-0.5,1-0.7,1-1.2v-5.3l3.6,0.3c-0.1,0.3-0.3,0.6-0.8,0.6v2.1h0.7L210.7,52.2z M205.8,38
	c4,0.8,2.3,3.9,0.7,2.6c0-0.8-0.5-1.9-1.1-2.4L205.8,38z M205.8,47.2c0,0.6,0,1.2,0,2h2v-2.4h-1.9v0.4H205.8z M205.8,46.1h1.9v-2
	h-1.9V46.1z M212.4,44.1h-2v2h2V44.1z M210.4,49.3h2v-2.4h-2V49.3z M212,35l-0.2-0.8h5l1.5-1.9c0,0,1.7,1.2,2.7,2.3
	c-0.1,0.3-0.4,0.5-0.8,0.5L212,35L212,35z M219.8,56.7c0.7,0.3,0.8,0.6,0.8,1.1c0,1.1-1,1.6-3.9,1.6H215c-2.2,0-2.4-0.6-2.4-2.3
	v-6.5l3.6,0.3c-0.1,0.4-0.3,0.6-0.8,0.7v2.1h1l1.2-1.8c0,0,1.5,1.2,2.2,2.2c-0.1,0.3-0.3,0.5-0.8,0.5h-3.6v2c0,0.3,0.1,0.4,0.5,0.4
	h1h1c0.2,0,0.4-0.1,0.5-0.2c0.2-0.3,0.5-1,0.8-2h0.3L219.8,56.7z M214.6,37.3v0.8h0.1c4,0.8,2.3,3.8,0.7,2.6c0-0.6-0.3-1.6-0.8-2.1
	v2.5c0,0.2-0.8,0.6-1.8,0.7c0.3,0.5,0.2,1-0.1,1.5h3.8l1.1-1.5h-0.4v-4.5H214.6L214.6,37.3L214.6,37.3z M215.1,46.9v2.4h1.8v-2.4
	H215.1z"/>
<path class="st1" d="M247.5,31.8c0,0,2.4,1.8,3.8,3.1c-0.1,0.3-0.4,0.5-0.8,0.5h-3.7v20.3c0,2.4-0.7,4.1-5.4,4.5
	c-0.1-1.1-0.3-2.1-1-2.6s-1.7-0.9-3.8-1.2V56c0,0,4.9,0.3,5.8,0.3c0.6,0,0.8-0.2,0.8-0.7V35.5h-20l-0.2-0.8h22.4L247.5,31.8z
	 M238.4,52c0,0.2-1.8,0.8-2.9,0.8h-0.6v-2.5h-5.2v2.6c0,0.3-1.5,1-2.9,1h-0.5V39l3.5,1.5h4.8l1.6-1.8l3.3,2.5
	c-0.2,0.2-0.6,0.5-1.2,0.6L238.4,52L238.4,52z M235,49.5v-8.1h-5.2v8.1H235z"/>
<path class="st1" d="M258.5,42c-1.5,1.6-3.2,3-5.2,4.1l-0.3-0.4c2.2-2.2,3.7-5.2,4.7-8.2h-4l-0.2-0.8h5.2v-4.8l4.4,0.4
	c-0.1,0.4-0.3,0.7-1.1,0.8v3.5h0.6l1.6-2.2c0,0,1.9,1.6,3,2.6c-0.1,0.3-0.4,0.5-0.8,0.5h-4.5v1.3c7.2,1.1,4.5,6.1,1.9,4.1
	c-0.1-1.2-1-2.7-1.9-3.6v7.3c0,0.3-1.5,0.8-2.6,0.8h-0.6V42H258.5z M278.2,36.5c0,0,2,1.6,3.1,2.6c-0.1,0.3-0.3,0.5-0.8,0.5h-3.7
	v6.8c0,0.1-1,0.7-2.7,0.7h-0.6v-7.5h-3c-0.1,2.2-0.8,4.8-3.9,6.7l4.3,0.6c-0.1,0.5-0.5,0.7-1.2,0.8c-0.6,0.4-1.7,1-2.4,1.6h5.8
	l1.7-1.8l3.4,2.6c-0.2,0.2-0.6,0.5-1.1,0.6v8.5c0,0.2-1.8,0.8-2.9,0.8h-0.6v-1.7h-11.7v0.8c0,0.3-1.6,1-3,1h-0.5V47.9l3.7,1.5h3.5
	c0.1-0.7,0.2-1.7,0.3-2.5c-0.5,0.3-1,0.5-1.7,0.7l-0.2-0.3c3.1-2.5,3.5-5.7,3.5-8.5v-4.7l3.5,1c2.3-0.9,4.7-2.1,6-2.9l3.2,3.1
	c-0.3,0.3-1,0.3-1.9,0c-2,0.3-5,0.7-7.7,0.8v2.8h6L278.2,36.5z M261.5,50.1v3.2h11.7v-3.2H261.5z M273.2,57.5v-3.3h-11.7v3.3H273.2z
	"/>
<g>
	<path class="st1" d="M7,84c5.1,2.6,2.7,6.5,0.8,4.6c0.1-1.2-0.3-2.7-0.8-3.8v14.6c0,0.3-1.2,1.1-2.3,1.1H4.1v-11
		c-0.8,1.6-1.9,3-3.1,4.4l-0.4-0.3c1.6-3.2,2.6-7.5,3.1-11.6H1.1l-0.2-0.8h3.2v-7L8,74.5c-0.1,0.4-0.3,0.7-1,0.8V81l1.3-1.9
		c0,0,1.5,1.4,2.4,2.4c-0.1,0.3-0.3,0.4-0.7,0.4H7V84z M24.2,96.4c0,0,1.9,1.5,3.1,2.5c-0.1,0.3-0.4,0.4-0.8,0.4H8.7l-0.2-0.8h14.1
		L24.2,96.4z M9.9,77.3l-0.2-0.8h12.6l1.6-2.1c0,0,1.8,1.5,2.9,2.5c-0.1,0.3-0.3,0.4-0.8,0.4h-9c-0.4,1.1-1,2.6-1.5,3.8h1.4l1.5-1.6
		l2.7,2.3c-0.2,0.2-0.6,0.4-1.1,0.5c-0.2,9.9-0.5,13.2-1.8,14.6c-0.8,0.8-1.9,1.2-3.2,1.2c0-0.9-0.1-1.6-0.4-2
		c-0.3-0.4-1-0.7-1.9-0.9l0-0.4c0.8,0.1,1.9,0.1,2.4,0.1c0.4,0,0.6-0.1,0.9-0.3c0.8-0.7,1-4.4,1.1-12.7h-1.9l-1.2,1.3l-2.8-1.9
		c0.3-0.2,0.7-0.5,1.2-0.6c0.5-1,1-2.4,1.3-3.3H9.9z M13.5,93.1v-1h-1.3v1.4c0,0.2-0.9,0.7-1.8,0.7h-0.3V83.4l2.2,1h1l1-1l2.1,1.6
		c-0.1,0.1-0.4,0.3-0.8,0.4v7.1c0,0.2-1.1,0.6-1.8,0.6H13.5z M13.5,91.3v-6.1h-1.3v6.1H13.5z M27,83.1c-0.2,0.3-0.4,0.3-1,0.4
		c-0.2,1.8-0.6,3.6-1.3,5.3c3.4,4.1,1.7,7.6-0.5,5.8c-0.1-0.9-0.4-1.9-0.8-2.9c-1,1.6-2.2,3-3.8,4.2l-0.3-0.3c1.5-1.7,2.4-3.9,3-6.2
		c-0.7-1.4-1.6-2.8-2.4-3.9l0.4-0.2c1,0.6,1.8,1.1,2.5,1.7c0.2-1.2,0.4-2.5,0.4-3.8h-2.8L20,82.4h3l1.4-1.5L27,83.1z"/>
	<path class="st1" d="M34.8,85.3c0,4.8-0.3,11.1-5.7,15.2l-0.3-0.2c2.6-4.4,2.7-9.9,2.7-15v-8.6l3.8,1.3h7.3
		c-0.1-0.1-0.2-0.1-0.3-0.2c-0.3-1.3-1.4-2.9-2.4-3.7l0.2-0.2c5.8-0.1,5.8,3.2,4.1,4h6l1.8-2.4c0,0,1.9,1.6,3.1,2.7
		c-0.1,0.3-0.4,0.4-0.8,0.4H34.8V85.3z M52,91.1c-0.2,0.3-0.5,0.4-1.2,0.4c-1.1,1.7-2.5,3.1-4.1,4.2c2.6,0.7,5.6,1,8.7,1.2v0.3
		c-1.4,0.4-2.2,1.5-2.5,3.1c-3.5-0.6-6.5-1.5-9-3c-3.2,1.6-7.2,2.6-11.8,3l-0.1-0.4c3.9-0.8,7.4-2.2,10.1-3.9
		c-1.5-1.3-2.8-3-3.7-5.2h-1.9l-0.3-0.8h11l1.9-1.7L52,91.1z M45.9,88.7v-0.9h-4.4v0.7c0,0.2-1.4,0.7-2.6,0.7h-0.6v-5.8h-3.1
		l-0.2-0.8h3.3v-3.1l4.1,0.4c-0.1,0.4-0.3,0.6-0.9,0.7v2h4.4v-3.1l4.1,0.4c-0.1,0.4-0.3,0.6-1,0.7v2h1.3l1.5-2.2
		c0,0,1.7,1.5,2.6,2.6c-0.1,0.3-0.4,0.4-0.8,0.4h-4.6V88c0,0.2-1.4,0.7-2.6,0.7H45.9z M39,91c1.2,1.7,2.9,3,4.9,3.9
		c1.4-1.1,2.5-2.4,3.3-3.9H39z M45.9,87v-3.6h-4.4V87H45.9z"/>
	<path class="st1" d="M68.3,77.5c-0.2,0.3-0.6,0.4-1.3,0.4c-1,1.7-2.7,4.7-4.1,6.4c3.2,1.9,4.5,4.6,4.5,6.9c0,2.8-1.1,4.4-4.3,4.4
		c0-0.9-0.1-2-0.4-2.4c-0.2-0.3-0.7-0.6-1.3-0.7v-0.4h1.8c0.3,0,0.4,0,0.6-0.2c0.4-0.2,0.6-0.7,0.6-1.6c0-1.9-0.6-4.1-2.2-6
		c0.5-1.8,1.2-5.2,1.6-7.4h-2.8v22.5c0,0.2-0.9,1-2.5,1H58V74.9l3.4,1.3h2.2l1.7-1.6L68.3,77.5z M80.3,77.4c0,0,2,1.6,3.1,2.7
		c-0.1,0.3-0.4,0.4-0.8,0.4h-8.6c-0.1,1.4-0.1,2.8-0.3,4.2h4l1.7-1.7l3,2.5c-0.2,0.3-0.6,0.4-1.2,0.5c-0.3,7.9-1,11.7-2.5,13
		c-1,0.8-2.1,1.2-3.8,1.2c0-1-0.1-1.8-0.5-2.2C74,97.6,73,97.2,71.8,97v-0.4c1.1,0.1,3,0.2,3.6,0.2c0.5,0,0.7-0.1,1-0.3
		c0.9-0.8,1.4-4.6,1.7-11h-4.4c-0.8,6.3-3.1,11.6-9.8,14.9l-0.2-0.3c5.8-5.1,6.8-12,6.8-19.6h-4.2l-0.2-0.8h7.8
		c-0.4-0.1-0.8-0.3-1.2-0.6c0.1-1.6-0.6-3.5-1.6-4.7l0.2-0.1c6.1,1.3,5.3,5,3.3,5.5h3.9L80.3,77.4z"/>
	<path class="st1" d="M88,83.4c-0.9,0.6-1.8,1.2-2.8,1.7L85,84.8c1.8-1.9,3.7-4.7,4.6-6.7c-1.3,0.8-2.7,1.5-4.1,2l-0.3-0.3
		c1.8-1.5,3.8-4,4.7-5.6l3.2,2c-0.2,0.3-0.4,0.4-1.1,0.3c-0.6,0.4-1.3,1-2.1,1.5l3.1,1.7c-0.2,0.3-0.4,0.4-1.1,0.3
		c-0.4,0.5-1,1.1-1.7,1.7l1.4,0.5c-0.1,0.3-0.4,0.4-0.9,0.5v6.3c-0.1,0.2-1.2,0.6-2.2,0.6H88V83.4z M85.5,99.5
		c2.4-1.4,5-3.7,6.2-5.5l3.4,2.2c-0.2,0.3-0.4,0.4-1.1,0.3c-1.9,1.4-5.2,2.7-8.3,3.3L85.5,99.5z M107.6,90.8c0,0,1.9,1.4,3.1,2.4
		c-0.1,0.3-0.4,0.4-0.8,0.4H99.7v6.1c0,0.1-1,0.6-2.7,0.6h-0.6v-6.7H85.9l-0.2-0.8h20.2L107.6,90.8z M111,76.9
		c-0.2,0.2-0.6,0.5-1.2,0.6v6.6c0,1.7-0.3,2.7-2.9,2.9c-0.1-0.7-0.1-1.3-0.3-1.6c-0.2-0.3-0.5-0.6-1.3-0.7v-0.4c0,0,1.1,0.1,1.5,0.1
		c0.3,0,0.4-0.1,0.4-0.4V77h-2.1v11.2l0.2-0.2c0,0,1.8,1.3,2.9,2.3c-0.1,0.3-0.4,0.4-0.8,0.4H88.9L88.7,90h15.1l1.1-1.3
		c-0.4,0.2-1,0.4-1.7,0.4h-0.4v-14l2.9,1.1h1.4l1.2-1.4L111,76.9z M100.5,78.4c0,0,1.4,1.2,2.2,2c-0.1,0.3-0.3,0.4-0.7,0.4h-3.2v2.1
		h0.8l1.1-1.5c0,0,1.1,1,1.8,1.8c-0.1,0.3-0.3,0.4-0.7,0.4h-3v2.2c1.2-0.2,2.4-0.3,3.7-0.5l0.1,0.4c-1.8,0.6-5.1,1.7-8.6,2.8
		c-0.2,0.2-0.4,0.4-0.6,0.4l-1.1-2.3c0.5-0.3,0.6-0.5,0.6-0.9v-4.1l2.9,0.3c0,0.3-0.3,0.5-0.8,0.6v3.7l1.3-0.2v-5.3h-3.7l-0.2-0.8
		h3.9v-2.3h-1.3c-0.6,0.7-1.3,1.3-2,1.7l-0.4-0.2c0.6-1.3,1.2-3.2,1.5-5.2l3.4,1c-0.1,0.3-0.4,0.6-1,0.6c-0.3,0.4-0.5,0.8-0.8,1.2h3
		l1.3-1.7c0,0,1.4,1.2,2.3,2.1c-0.1,0.3-0.4,0.4-0.7,0.4h-2.6v2.3h0.6L100.5,78.4z M101.2,94.6c9.8-0.1,9.5,5.9,6.2,5.1
		c-1.4-1.7-4.3-3.8-6.4-4.9L101.2,94.6z"/>
	<path class="st1" d="M129.8,76.1c-0.3,0.4-1.2,0.6-2.4,0.7c2.1,2.6,7.1,5.3,12.2,6.4v0.3c-1.5,0.4-2.6,1.7-3,3.1
		c-4.1-2.3-8-5.9-9.8-9.8c-2.8,4.7-8.1,8.6-13.9,10.9l-0.2-0.3c4.3-2.7,8.2-6.9,9.9-10.8H118l-0.3-0.8h8.1l1-1.7L129.8,76.1z
		 M135.3,96.4c0,0,2,1.6,3.3,2.7c-0.1,0.3-0.4,0.4-0.8,0.4h-23.6l-0.2-0.8h10.2v-6H117l-0.2-0.8h7.4v-5.3H118l-0.2-0.8h11.7l1.7-2
		c0,0,1.9,1.4,3.1,2.4c-0.1,0.3-0.4,0.4-0.8,0.4h-5.8v5.3h3.8l1.7-2.2c0,0,1.9,1.5,3.1,2.5c-0.1,0.3-0.4,0.4-0.8,0.4h-7.9v6h5.8
		L135.3,96.4z"/>
	<path class="st1" d="M149.3,77.9c7.8,1.9,5,7.7,2.2,5.4c-0.1-0.6-0.2-1.3-0.5-1.9c-2,0.6-4.7,1.4-7.9,2.2c-0.1,0.1-0.1,0.1-0.2,0.2
		l2.9,1h3.6l1.3-1.5l3.1,2.3c-0.2,0.2-0.6,0.5-1.2,0.6v10.5c0,2.1-0.4,3.3-3.6,3.6c-0.1-1-0.2-1.7-0.4-2.2c-0.3-0.4-0.8-0.8-1.7-1
		v-0.4c0,0,1.8,0.1,2.3,0.1c0.4,0,0.5-0.1,0.5-0.5v-3.2c-1,0.7-2.1,1.5-3.4,2.2c-0.1,0.4-0.4,0.6-0.7,0.7l-0.6-1.4
		c-0.5,2.2-1.6,4.3-3.9,5.9l-0.3-0.3c1.7-2.9,1.7-6.6,1.7-10v-6.1l-0.1,0l-1.4-3.4c0,0,0.5-0.1,0.8-0.3c1.6-1.1,3.8-4.6,4.4-6.5
		l4.2,1.5c-0.1,0.3-0.4,0.5-1,0.5c-1.4,1.5-3.6,3.4-5.7,4.7c1.9,0,4.3-0.1,6.9-0.2c-0.5-1-1.1-1.8-1.7-2.5L149.3,77.9z M145.4,85.7
		v2.4c4.5-1.8,5.5,2.9,2.8,2.6c-0.7-0.5-1.6-1.1-2.8-1.4v1.1c0,0.8,0,1.7-0.1,2.6c1.3-0.2,2.9-0.5,4.4-1v-6.3H145.4z M158.2,86.4
		c-2.7,0-3.3-0.6-3.3-2.7v-9.2l4.1,0.4c-0.1,0.4-0.3,0.6-0.9,0.7v3.2h3l1.6-2.1c0,0,1.7,1.4,2.8,2.4c-0.1,0.3-0.4,0.4-0.8,0.4h-6.6
		v3.3c0,0.4,0.1,0.5,0.9,0.5h2.1c0.7,0,1.5,0,1.8,0c0.3,0,0.6,0,0.8-0.1c0.2,0,0.6-0.1,0.8-0.2h0.3l0.1,0.1c0.9,0.4,1.2,0.7,1.2,1.3
		c0,1.3-1.2,1.9-5.5,1.9H158.2z M165.3,96.4c0.9,0.4,1.1,0.8,1.1,1.3c0,1.4-1.2,1.9-5.6,1.9h-2.6c-2.8,0-3.4-0.6-3.4-2.8v-10
		l4.2,0.4c-0.1,0.4-0.3,0.6-0.9,0.7V91h3.2l1.6-2.1c0,0,1.7,1.4,2.8,2.4c-0.1,0.3-0.4,0.4-0.8,0.4h-6.8v4.3c0,0.4,0.1,0.5,0.9,0.5
		h2.1c0.8,0,1.5,0,1.8,0c0.3,0,0.5-0.1,0.7-0.3c0.3-0.4,0.7-1.4,1.1-2.6h0.3L165.3,96.4z"/>
	<path class="st1" d="M180.3,77.5c-0.2,0.3-0.6,0.4-1.3,0.4c-1,1.7-2.7,4.7-4.1,6.4c3.2,1.9,4.5,4.6,4.5,6.9c0,2.8-1.1,4.4-4.3,4.4
		c0-0.9-0.1-2-0.4-2.4c-0.2-0.3-0.7-0.6-1.3-0.7v-0.4h1.8c0.3,0,0.4,0,0.6-0.2c0.4-0.2,0.6-0.7,0.6-1.6c0-1.9-0.6-4.1-2.2-6
		c0.5-1.8,1.2-5.2,1.6-7.4h-2.8v22.5c0,0.2-0.9,1-2.5,1H170V74.9l3.4,1.3h2.2l1.7-1.6L180.3,77.5z M192.3,77.4c0,0,2,1.6,3.1,2.7
		c-0.1,0.3-0.4,0.4-0.8,0.4h-8.6c-0.1,1.4-0.1,2.8-0.3,4.2h4l1.7-1.7l3,2.5c-0.2,0.3-0.6,0.4-1.2,0.5c-0.3,7.9-1,11.7-2.5,13
		c-1,0.8-2.1,1.2-3.8,1.2c0-1-0.1-1.8-0.5-2.2c-0.5-0.5-1.5-0.9-2.6-1.2v-0.4c1.1,0.1,3,0.2,3.6,0.2c0.5,0,0.7-0.1,1-0.3
		c0.9-0.8,1.4-4.6,1.7-11h-4.4c-0.8,6.3-3.1,11.6-9.8,14.9l-0.2-0.3c5.8-5.1,6.8-12,6.8-19.6h-4.2l-0.2-0.8h7.8
		c-0.4-0.1-0.8-0.3-1.2-0.6c0.1-1.6-0.6-3.5-1.6-4.7l0.2-0.1c6.1,1.3,5.3,5,3.3,5.5h3.9L192.3,77.4z"/>
	<path class="st1" d="M205,95c-0.1,0.2-1.3,0.8-2.2,0.8h-0.4v-2.4h-2v2.9c0,0.2-0.8,0.8-2.1,0.8h-0.4V76l2.9,1.2h1.3l1.3-1.5
		l2.7,2.1c-0.2,0.2-0.6,0.5-1.2,0.6V95z M200.5,78v6.9h2V78H200.5z M202.4,92.7v-7.1h-2v7.1H202.4z M217.5,85.4v1.8h1.4l1.2-1.3
		l2.6,1.9c-0.1,0.2-0.5,0.4-1,0.5V91c0,0.2-1.3,0.8-2.2,0.8h-0.4V91h-10.4c-0.3,3.1-1.1,6.9-4.1,9.5l-0.3-0.3
		c1.8-3.7,1.8-8.2,1.8-11.9l0-4.9l0.2,0.1v-6.2l2.3,1h2.4l1.1-1.1l2.2,1.7c-0.1,0.2-0.4,0.3-0.8,0.4v3.1c0.6,0.1,1,0.2,1.3,0.4v-5.4
		l2.3,1h2.2l1.1-1.1l2.2,1.7c-0.1,0.2-0.4,0.3-0.8,0.4v3.2c0,0.1-0.5,0.4-1.1,0.6c0.6,0.4,1.6,1.2,2.3,1.8c-0.1,0.3-0.3,0.4-0.7,0.4
		H217.5z M205.8,77l-0.2-0.8h5.1l1.3-1.7c0,0,1.5,1.2,2.4,2c-0.1,0.3-0.3,0.4-0.7,0.4H205.8z M206.5,83.6l2.8,1.1h4.4
		c-0.1-0.6-0.4-1.1-0.7-1.6c-0.4,0.2-0.9,0.3-1.3,0.3h-0.4v-4.2h-2.7v3.8c0,0.2-1,0.7-1.9,0.7H206.5z M213.4,92.9c0,0,1.1,1,1.8,1.8
		c-0.1,0.3-0.3,0.4-0.7,0.4h-2.7V97c1-0.2,2-0.3,3.1-0.5l0.1,0.4c-0.8,0.6-2.5,1.7-4.4,2.7c-0.2,0.4-0.5,0.6-0.7,0.8l-1.5-2.8
		c0.8-0.5,0.9-0.7,0.9-1.1v-5l3.4,0.3c-0.1,0.3-0.3,0.5-0.8,0.6v2h0.6L213.4,92.9z M208.9,79.8c3.7,0.8,2.1,3.6,0.7,2.4
		c0-0.8-0.5-1.7-1-2.2L208.9,79.8z M208.9,88.3c0,0.6,0,1.2,0,1.9h1.8V88h-1.8V88.3z M208.9,87.3h1.8v-1.8h-1.8V87.3z M215,85.4
		h-1.8v1.8h1.8V85.4z M213.2,90.2h1.8V88h-1.8V90.2z M214.7,77l-0.2-0.8h4.6l1.3-1.8c0,0,1.6,1.2,2.5,2.1c-0.1,0.3-0.4,0.4-0.8,0.4
		H214.7z M222,97.2c0.7,0.3,0.8,0.6,0.8,1c0,1-1,1.5-3.7,1.5h-1.6c-2,0-2.3-0.6-2.3-2.2v-6l3.4,0.3c-0.1,0.4-0.3,0.6-0.8,0.7v1.9
		h0.9l1.1-1.7c0,0,1.3,1.2,2.1,2c-0.1,0.3-0.3,0.4-0.7,0.4h-3.4V97c0,0.3,0.1,0.4,0.5,0.4h1h0.9c0.2,0,0.4-0.1,0.5-0.2
		c0.2-0.3,0.5-1,0.8-1.8h0.3L222,97.2z M217.1,79.1l0,0.7l0.1,0c3.7,0.8,2.1,3.6,0.7,2.4c0-0.6-0.3-1.4-0.7-1.9v2.4
		c0,0.2-0.8,0.6-1.6,0.6c0.3,0.4,0.2,1-0.1,1.3h3.5l1.1-1.4h-0.4v-4.1H217.1z M217.5,88v2.2h1.7V88H217.5z"/>
	<path class="st1" d="M239.6,77.2c-0.3,0.3-1,0.3-1.8,0c-3.2,0.7-8.5,1.1-12.9,1.1l-0.1-0.4c4-0.8,9-2.4,11.5-3.7L239.6,77.2z
		 M240.2,85.3c-0.2,0.2-0.5,0.3-1.1,0.3c-1.2,0.7-2.7,1.5-4.2,2.2l0.2,0c-0.1,0.4-0.3,0.6-0.9,0.7v1.2c1.8-0.3,3.8-0.5,5.7-0.8
		l0.1,0.4c-1.5,0.6-3.4,1.3-5.7,2.1v5.3c0,2.2-0.5,3.3-4.1,3.6c-0.1-0.9-0.2-1.6-0.6-2.1s-1-0.8-2.3-1V97c0,0,2.7,0.2,3.3,0.2
		c0.4,0,0.5-0.1,0.5-0.4v-4.1c-1.2,0.4-2.4,0.8-3.8,1.2c-0.2,0.4-0.5,0.6-0.8,0.6l-1.5-3.5c1.3-0.1,3.4-0.4,6.1-0.7v-2.7l2.4,0.2
		c0.8-0.8,1.6-1.7,2.2-2.5h-9.7l-0.3-0.8h7.6l-0.1,0c1-1.5,2.1-4,2.9-6.3l3.8,1.7c-0.1,0.3-0.5,0.5-1.1,0.4
		c-1.5,1.6-3.2,3.1-4.9,4.1h1.9l1.6-1.6L240.2,85.3z M225.7,79.1c5.9,1.7,3.3,6,1.1,4.1c-0.1-1.4-0.8-3-1.4-4L225.7,79.1z
		 M229.8,78.5c5.8,2,3,6.2,0.9,4.2c0-1.4-0.6-3-1.2-4.1L229.8,78.5z M250.2,96.2c0.8,0.4,1.1,0.9,1.1,1.5c0,1.5-1.3,2.2-5,2.2h-2
		c-2.6,0-3.3-0.7-3.3-3.1V74.8l4.5,0.5c-0.1,0.4-0.3,0.7-1,0.8v19.5c0,0.6,0.2,0.8,0.8,0.8h1.4h1.3c0.3,0,0.4-0.1,0.6-0.4
		c0.3-0.6,0.8-2.6,1.3-4.5h0.3L250.2,96.2z"/>
</g>
</svg>
