<svg id="name-mbm.svg" xmlns="http://www.w3.org/2000/svg" width="274.034" height="99.69" viewBox="0 0 274.034 99.69">
  <defs>
    <style>
      .cls-1, .cls-2 {
        fill: #0d74a0;
        fill-rule: evenodd;
      }

      .cls-1 {
        opacity: 0.7;
      }

      .cls-3 {
        fill: none;
        stroke: #70a1be;
        stroke-width: 1px;
      }
    </style>
  </defs>
  <path id="Multi_block_UV_milk" data-name="Multi block UV milk" class="cls-1" d="M811.2,2406.59l1.051-6.05,2.884,6.52,2.915-6.51,1.021,6.04h1.563l-1.893-10.77-3.515,7.78-3.486-7.78-2.1,10.77H811.2Zm13.017-10.02v6.44a3.7,3.7,0,0,0,.932,2.6,3.862,3.862,0,0,0,5.558,0,3.7,3.7,0,0,0,.932-2.6v-6.44H830.1v6.04a3.526,3.526,0,0,1-.315,1.73,2.2,2.2,0,0,1-3.726,0,3.526,3.526,0,0,1-.315-1.73v-6.04h-1.533Zm11.31,0v10.02H840v-1.44h-2.944v-8.58h-1.533Zm12.488,1.44v-1.44h-6.129v1.44h2.3v8.58h1.532v-8.58h2.3Zm2.842-1.44v10.02h1.532v-10.02h-1.532Zm10.425,0v10.02h2.508a3.9,3.9,0,0,0,2.81-.98,2.441,2.441,0,0,0,.661-1.8,2.61,2.61,0,0,0-.661-1.88,2.8,2.8,0,0,0-1.292-.72,1.631,1.631,0,0,0,.751-0.69,2.2,2.2,0,0,0,.3-1.19,2.572,2.572,0,0,0-.8-1.98,3.723,3.723,0,0,0-2.764-.78h-1.517Zm1.532,1.44h0.526a1.65,1.65,0,0,1,1.217.38,1.236,1.236,0,0,1,.36.96,1.524,1.524,0,0,1-.39,1.14,1.742,1.742,0,0,1-1.247.39h-0.466v-2.87Zm0,4.13h0.961a2.228,2.228,0,0,1,1.578.45,1.524,1.524,0,0,1,.405,1.06,1.435,1.435,0,0,1-.5,1.11,2.687,2.687,0,0,1-1.518.39h-0.931v-3.01Zm7.857-5.57v10.02h4.477v-1.44H872.2v-8.58h-1.533Zm12.142-.18a5.2,5.2,0,1,0,5.213,5.2A5.081,5.081,0,0,0,882.808,2396.39Zm0,8.98a3.786,3.786,0,1,1,3.681-3.78A3.583,3.583,0,0,1,882.808,2405.37Zm16.039-8.26a4.725,4.725,0,0,0-2.674-.72,4.948,4.948,0,0,0-3.62,1.31,5.227,5.227,0,0,0-1.608,3.92,4.895,4.895,0,0,0,1.608,3.78,5,5,0,0,0,3.545,1.39,5.5,5.5,0,0,0,2.749-.76v-1.81a3.976,3.976,0,0,1-2.7,1.15,3.787,3.787,0,0,1-.015-7.57,3.932,3.932,0,0,1,2.719,1.11v-1.8Zm4.911-.54h-1.532v10.02h1.532v-4.15l0.3-.3,3.575,4.45h2.043l-4.552-5.48,4.522-4.54h-2.013l-3.876,4v-4Zm13.753,0v6.44a3.7,3.7,0,0,0,.931,2.6,3.864,3.864,0,0,0,5.559,0,3.7,3.7,0,0,0,.931-2.6v-6.44H923.4v6.04a3.515,3.515,0,0,1-.316,1.73,2.2,2.2,0,0,1-3.725,0,3.515,3.515,0,0,1-.316-1.73v-6.04h-1.532Zm10.168,0,4.447,10.67,4.446-10.67H934.92l-2.794,6.99-2.795-6.99h-1.652Zm17.9,10.02,1.052-6.05,2.884,6.52,2.914-6.51,1.022,6.04h1.562l-1.893-10.77-3.515,7.78-3.485-7.78-2.1,10.77h1.562Zm13.018-10.02v10.02h1.532v-10.02H958.6Zm5.43,0v10.02H968.5v-1.44h-2.945v-8.58h-1.532Zm8.942,0h-1.532v10.02h1.532v-4.15l0.3-.3,3.575,4.45h2.043l-4.552-5.48,4.522-4.54h-2.013l-3.876,4v-4Z" transform="translate(-808.156 -2395.81)"/>
  <path id="マルチブロックUV_ミルク" data-name="マルチブロックUV ミルク" class="cls-2" d="M808.147,2432.96a6.755,6.755,0,0,0,.443,2.38c0.51,1.22,2.314,2.96,3.5,2.96,0.851,0,1.634-.89,2.484-1.09a151.163,151.163,0,0,1,16.2-2.45c0.476-.04.646,0.24,0.374,0.71a40.223,40.223,0,0,1-7.724,8.44,25.756,25.756,0,0,0-7.145-3.57l-0.375.58a29.137,29.137,0,0,1,5.24,5c3.4,3.91,3.335,6.26,4.9,6.26a1.688,1.688,0,0,0,1.769-1.8c0-1.98-1.259-3.85-3.13-5.48a113.126,113.126,0,0,0,9.391-7.28c1.259-1.02,2.688-.65,2.688-1.84,0-1.33-3.1-3.95-4.457-3.95-0.749,0-1.259.82-2.11,0.92-3.062.38-15.311,1.77-18.85,1.77-1.157,0-1.8-.88-2.654-1.8Zm44.754-2.15c1.667,0.27,2.586.75,2.62,1.67,0.2,3.27.034,12.18-.1,13.95-0.136,1.33-.545,1.7-0.545,2.38,0,0.85,1.736,3,2.79,3,0.851,0,1.395-1.06,2.178-1.57,4.389-2.76,9.255-6.94,12.147-11.43l-0.612-.48a43.059,43.059,0,0,1-12.522,8.64c-0.408.17-.646,0.04-0.646-0.44-0.034-2.48.2-10.55,0.442-12.35,0.136-1.19.919-1.29,0.919-2.11,0-.99-2.552-2.52-4.185-2.52a5.287,5.287,0,0,0-2.518.65Zm-4.594,5.75c0,4.56-3.368,11.74-8.642,16.23l0.51,0.61a22.091,22.091,0,0,0,11.331-14.97c0.17-.85.884-1.32,0.884-2.14,0-1.23-2.79-2.72-4.219-2.79a6.322,6.322,0,0,0-2.348.44v0.65C846.844,2434.93,848.307,2435.47,848.307,2436.56Zm46.315,0.92c0.034-1.73.544-1.97,0.544-2.76,0-.47-0.952-1.36-2.177-1.97a46.167,46.167,0,0,0,5.07-1.63c0.884-.31,2.177-0.21,2.177-0.95a3.852,3.852,0,0,0-1.667-2.28,7.482,7.482,0,0,0-3.471-1.37l-0.408.45c1.259,1.02,1.293,1.49.681,1.97-1.6,1.16-8.847,3.47-14.529,4.7l0.17,0.78a84.669,84.669,0,0,0,9.153-1.06c1.02,0.89,1.191,2.15,1.225,4.09v0.85c-2.791.34-8.3,0.98-10.616,0.98-0.919,0-1.532-.61-2.45-1.7l-0.511.17a6.876,6.876,0,0,0,.341,2.04c0.442,0.99,1.973,2.59,2.994,2.59a10.022,10.022,0,0,0,2.654-.71,64.008,64.008,0,0,1,7.486-1.33c-0.545,6.36-3.233,10.65-9.528,14.53l0.409,0.61c7.86-2.99,11.705-8.1,12.351-15.45,2.144-.17,4.628-0.27,6.3-0.27,1.8,0,3.368.34,4.083,0.34a1.079,1.079,0,0,0,1.225-1.22c0-1.2-2.076-2.11-3.845-2.11-0.544,0-.953.34-3.1,0.64-1.021.14-2.688,0.31-4.56,0.51v-0.44Zm42-4.8a1.024,1.024,0,0,0,1.055-1.09,2.564,2.564,0,0,0-1.055-1.97,11.22,11.22,0,0,0-4.287-2.14l-0.375.47a17.647,17.647,0,0,1,3.1,3.3C935.668,2432.07,936.077,2432.68,936.621,2432.68Zm3.062-2.51a0.927,0.927,0,0,0,.987-1.03,2.585,2.585,0,0,0-1.259-2.11,12.566,12.566,0,0,0-4.185-1.8l-0.374.51a15.923,15.923,0,0,1,3.13,2.96C938.7,2429.55,939.037,2430.17,939.683,2430.17Zm-27.561.64-0.578.24a8.1,8.1,0,0,0,.272,2.18c0.34,1.09,2.076,3.06,3.4,3.06,0.714,0,1.531-.65,2.382-0.85a108.891,108.891,0,0,1,12.283-1.97c0.306,0,.476.1,0.374,0.47-1.871,7.69-8.4,15.59-17.9,20.45l0.442,0.72c10.616-3.68,16.809-10.08,20.654-18.45,0.51-1.12,1.667-1.46,1.667-2.45,0-1.08-3.13-3.74-4.458-3.74-0.782,0-.918.55-2.075,0.78-1.735.38-11.3,1.4-13.679,1.4C913.688,2432.65,912.871,2431.73,912.122,2430.81Zm36.929,16.27c-0.1-3.07-.273-9.22-0.375-11.71a3.718,3.718,0,0,0,1.566.55c0.646,0,1.7-.34,2.79-0.48,1.837-.24,6.465-0.61,8.4-0.61a0.414,0.414,0,0,1,.476.47,98.132,98.132,0,0,1-1.395,10.93C957.285,2446.4,952.351,2446.8,949.051,2447.08Zm-6.023-14.67a5.149,5.149,0,0,1,2.008,2.96,68.369,68.369,0,0,1,.986,10.07c0.034,1.33-.1,2.96-0.1,3.78,0,1.46.885,2.72,1.838,2.72,1.02,0,1.361-.68,1.361-1.63v-0.99c3.845-.24,8.1-0.47,10.718-0.47,1.769,0,3.573.23,4.559,0.23a1.188,1.188,0,0,0,1.327-1.29c0-.85-1.02-1.46-2.177-1.63,0.68-3.24,1.395-6.91,1.8-8.65,0.238-1.08,1.463-1.42,1.463-2.34,0-1.16-3.062-3.61-4.151-3.61-0.817,0-1.055.99-2.416,1.16-1.395.17-8.4,0.85-11.807,1.09a0.44,0.44,0,0,0-.2-0.24,7.278,7.278,0,0,0-4.866-1.67Zm38.326,6.81c0.851,1.83.749,3.3,2.076,3.3a1.454,1.454,0,0,0,1.531-1.5,4.454,4.454,0,0,0-2.314-3.71,11.328,11.328,0,0,0-2.722-1.46l-0.34.37A12.765,12.765,0,0,1,981.354,2439.22Zm11.3,1.56c0.374-.78,1.123-1.26,1.123-1.9,0-1.13-1.974-2.93-3.539-3.03a9.787,9.787,0,0,0-1.769.13l-0.1.45c1.123,0.54,1.735,1.05,1.735,1.63,0,3.13-5.955,12.25-14.563,16.6l0.34,0.55A27.53,27.53,0,0,0,992.651,2440.78Zm-17.183.41c0.885,1.87.953,3.4,2.246,3.4a1.419,1.419,0,0,0,1.5-1.53c0-1.43-.987-2.82-2.688-3.91a10.651,10.651,0,0,0-2.518-1.43l-0.375.37A14.49,14.49,0,0,1,975.468,2441.19Zm36.862-8.51c0.44-.61.85-1.26,1.23-1.87,0.54-.88.98-1.12,0.98-1.77,0-.78-2.24-2.04-4.12-2.21a7.963,7.963,0,0,0-2.24.07l-0.14.54c1.16,0.55,2.01,1.23,2.01,1.87,0,2.08-4.73,8.92-10.139,13.14l0.479,0.65a31.185,31.185,0,0,0,10.78-8.85,3,3,0,0,0,1.53.81,7.3,7.3,0,0,0,1.91-.44,31.4,31.4,0,0,1,4.7-.85c0.34,0,.51.17,0.34,0.61-2.76,6.95-10.72,15.62-19.4,20.22l0.44,0.71c10.48-3.95,17.46-10.89,22.32-19.46,0.55-.96,1.77-1.26,1.77-2.11,0-1.16-2.89-2.83-3.81-2.83-0.68,0-1.12.75-2.04,0.99a40.824,40.824,0,0,1-6.33.78h-0.27Zm43.73-4.32h-8.98v1.23l3.91,0.51,0.07,12.45c0.03,6.53-2.18,9.02-6.47,9.02-3.91,0-6.22-2.15-6.22-8.54v-3.1c0-3.37,0-6.67.07-9.93l3.64-.41v-1.23h-10.82v1.23l3.06,0.34c0.1,3.33.1,6.7,0.1,10v3.88c0,7.35,3.74,10.24,9.29,10.24,5.41,0,8.88-3.2,8.91-10.85l0.07-13.14,3.37-.47v-1.23Zm26.11,0h-8.5v1.33l3.53,0.41-5.95,18.71-6.47-18.78,3.65-.34v-1.33h-10.62v1.23l2.72,0.3,8.68,23.75h1.94l7.93-23.64,3.09-.48v-1.16Zm-256.4,41.11c-2.484-1.16-6.806-1.7-10.753-1.87l-0.136.65a28.116,28.116,0,0,1,9.561,4.45c1.191,0.92,1.634,1.4,2.62,1.4a1.477,1.477,0,0,0,1.4-1.46C828.461,2471.41,827.814,2470.42,825.773,2469.47Zm-12.352,7.04a39.515,39.515,0,0,1,8.507,4.12c1.156,0.78,1.735,1.19,2.483,1.19a1.415,1.415,0,0,0,1.464-1.49c0-1.3-1.021-2.11-2.484-2.76a27.107,27.107,0,0,0-9.8-1.7Zm-1.123,9.46a35.17,35.17,0,0,1,11.671,5.52c1.293,1.02,2.28,1.83,3.233,1.83a1.5,1.5,0,0,0,1.735-1.63c0-.95-0.885-2.04-2.348-2.93-2.994-1.8-8.813-3.23-14.121-3.47Zm38.256-16.16c1.667,0.27,2.586.75,2.62,1.67,0.2,3.27.034,12.18-.1,13.95-0.136,1.33-.544,1.7-0.544,2.38,0,0.85,1.735,3,2.79,3,0.851,0,1.395-1.06,2.178-1.57,4.389-2.76,9.255-6.94,12.147-11.43l-0.612-.48a43.072,43.072,0,0,1-12.522,8.64c-0.408.17-.646,0.04-0.646-0.44-0.034-2.48.2-10.55,0.442-12.35,0.136-1.19.919-1.29,0.919-2.11,0-.99-2.552-2.52-4.186-2.52a5.284,5.284,0,0,0-2.517.65Zm-4.594,5.75c0,4.56-3.369,11.74-8.643,16.23l0.511,0.61a22.086,22.086,0,0,0,11.33-14.97c0.171-.85.885-1.32,0.885-2.14,0-1.23-2.79-2.72-4.219-2.79a6.322,6.322,0,0,0-2.348.44v0.65C844.5,2473.93,845.96,2474.47,845.96,2475.56ZM887,2471.68c0.442-.61.85-1.26,1.225-1.87,0.544-.88.986-1.12,0.986-1.77,0-.78-2.245-2.04-4.117-2.21a8,8,0,0,0-2.246.07l-0.136.54c1.157,0.55,2.008,1.23,2.008,1.87,0,2.08-4.73,8.92-10.14,13.14l0.476,0.65a31.283,31.283,0,0,0,10.787-8.85,2.967,2.967,0,0,0,1.531.81,7.321,7.321,0,0,0,1.9-.44,31.487,31.487,0,0,1,4.7-.85c0.34,0,.51.17,0.34,0.61-2.756,6.95-10.718,15.62-19.395,20.22l0.443,0.71c10.48-3.95,17.455-10.89,22.321-19.46,0.544-.96,1.769-1.26,1.769-2.11,0-1.16-2.892-2.83-3.811-2.83-0.68,0-1.123.75-2.041,0.99a40.967,40.967,0,0,1-6.329.78H887Z" transform="translate(-808.156 -2395.81)"/>
  <g id="薬用">
    <path id="薬用-2" data-name="薬用" class="cls-2" d="M923.141,2484.85a11.86,11.86,0,0,1-4.707,1.95,4.146,4.146,0,0,1,.581.86c0.223,0.4.238,0.42,0.685,0.3a11.152,11.152,0,0,0,4.766-2.61c-0.015,1.66-.074,2.43-0.074,2.68,0,0.15.015,0.17,0.164,0.17h1.281c0.149,0,.164-0.02.164-0.17,0-.25-0.06-1.09-0.075-2.78a12.232,12.232,0,0,0,5.02,2.68c0.462,0.12.476,0.12,0.685-.3a4.8,4.8,0,0,1,.6-0.96,12.931,12.931,0,0,1-4.975-1.82H929.7c1.355,0,1.817.03,1.906,0.03,0.149,0,.164-0.02.164-0.17v-0.97c0-.15-0.015-0.17-0.164-0.17-0.089,0-.551.03-1.906,0.03h-3.739v-0.84h0.119c1,0,1.341.03,1.43,0.03,0.149,0,.164-0.01.164-0.18,0-.09-0.03-0.45-0.03-1.28v-1.78c0-.83.03-1.2,0.03-1.29,0-.15-0.015-0.17-0.164-0.17-0.089,0-.432.03-1.43,0.03h-0.551a1.109,1.109,0,0,0,.074-0.16,1.174,1.174,0,0,1,.224-0.35,0.291,0.291,0,0,0,.119-0.21c0-.09-0.089-0.14-0.253-0.17-0.373-.07-0.79-0.13-1.281-0.19a2.5,2.5,0,0,1-.149.68c-0.06.16-.105,0.28-0.164,0.4-0.79,0-1.073-.03-1.162-0.03-0.149,0-.164.02-0.164,0.17,0,0.1.03,0.46,0.03,1.29v1.78c0,0.83-.03,1.19-0.03,1.28,0,0.17.015,0.18,0.164,0.18,0.1,0,.417-0.03,1.475-0.03h0.03v0.84h-3.531c-1.355,0-1.817-.03-1.906-0.03-0.149,0-.164.02-0.164,0.17v0.97c0,0.15.015,0.17,0.164,0.17,0.089,0,.551-0.03,1.906-0.03h2.235Zm3.232-3.11h-2.309v-0.81h2.309v0.81Zm0-2.61v0.78h-2.309v-0.78h2.309Zm-5.5-3.62c-1.429,0-1.936-.03-2.025-0.03-0.149,0-.164.01-0.164,0.16v0.98c0,0.15.015,0.16,0.164,0.16,0.089,0,.6-0.03,2.025-0.03h1.55c-0.015.41-.03,0.6-0.03,0.68,0,0.15.015,0.17,0.164,0.17h1.132c0.149,0,.164-0.02.164-0.17,0-.06-0.03-0.27-0.03-0.68h2.785c-0.015.41-.03,0.62-0.03,0.68,0,0.17.015,0.18,0.164,0.18h1.132c0.149,0,.164-0.01.164-0.18,0-.06-0.03-0.27-0.03-0.68h1.669c1.5,0,2.04.03,2.13,0.03,0.149,0,.164-0.01.164-0.16v-0.98c0-.15-0.015-0.16-0.164-0.16-0.09,0-.626.03-2.13,0.03h-1.669a1.353,1.353,0,0,1,.075-0.59,0.636,0.636,0,0,0,.074-0.22c0-.08-0.074-0.12-0.193-0.14-0.4-.04-0.939-0.07-1.445-0.09a7.833,7.833,0,0,1,.089,1.04h-2.785a1.437,1.437,0,0,1,.074-0.6,0.466,0.466,0,0,0,.075-0.21c0-.08-0.06-0.12-0.194-0.14-0.4-.04-0.983-0.07-1.445-0.09a8.972,8.972,0,0,1,.09,1.04h-1.55Zm7.269,5.51a0.249,0.249,0,0,0-.074.16,0.142,0.142,0,0,0,.1.12,19.453,19.453,0,0,1,2.562,1.67c0.134,0.11.164,0.09,0.283-.1l0.551-.84a0.388,0.388,0,0,0,.075-0.17,0.169,0.169,0,0,0-.1-0.12,16.259,16.259,0,0,0-2.458-1.5,2.705,2.705,0,0,0,.283-0.17,15.4,15.4,0,0,0,1.534-1.06,1.732,1.732,0,0,1,.4-0.29,0.208,0.208,0,0,0,.179-0.19,0.349,0.349,0,0,0-.134-0.26,13,13,0,0,0-1.013-.83,3.076,3.076,0,0,1-.432.5,7.772,7.772,0,0,1-1.817,1.28,4.258,4.258,0,0,1,.626.7,1.7,1.7,0,0,0,.148.23c-0.074-.02-0.1.03-0.178,0.13Zm-6.077-1.01a13.63,13.63,0,0,1-2.473,1.34,5.867,5.867,0,0,1-.863.29c0.178,0.46.357,0.91,0.521,1.27a0.262,0.262,0,0,0,.208.18,0.3,0.3,0,0,0,.224-0.13,1.207,1.207,0,0,1,.417-0.29c0.655-.33,1.266-0.63,1.892-1.02,0.387-.24.387-0.24,0.268-0.71A9,9,0,0,1,922.068,2480.01Zm-2.919-1.65a0.31,0.31,0,0,0-.09.17,0.179,0.179,0,0,0,.09.12,10.771,10.771,0,0,1,1.787,1.41c0.119,0.1.149,0.1,0.3-.08l0.626-.76a0.277,0.277,0,0,0,.089-0.15,0.206,0.206,0,0,0-.089-0.15,12.361,12.361,0,0,0-1.818-1.32c-0.134-.08-0.193-0.1-0.3.03Zm28.429-.64c0-1.57.03-2.38,0.03-2.47,0-.16-0.015-0.18-0.164-0.18-0.1,0-.611.03-2.056,0.03h-7c-1.43,0-1.951-.03-2.04-0.03-0.164,0-.179.02-0.179,0.18,0,0.09.03,0.9,0.03,2.47v2.46c0,3.62-.447,5.41-1.535,6.82a3.883,3.883,0,0,1,1.058.76,0.591,0.591,0,0,0,.313.24,0.471,0.471,0,0,0,.268-0.3,9.465,9.465,0,0,0,1.3-4.16h3.4v1.79c0,1.46-.03,2.12-0.03,2.22,0,0.15.015,0.17,0.164,0.17h1.281c0.149,0,.164-0.02.164-0.17,0-.09-0.03-0.76-0.03-2.22v-1.79h3.5v2.5a0.414,0.414,0,0,1-.477.49c-0.492,0-.775-0.01-1.385-0.06a3.976,3.976,0,0,1,.417,1.14c0.1,0.45.089,0.44,0.551,0.44a2.868,2.868,0,0,0,1.966-.39,1.449,1.449,0,0,0,.492-1.22c0-.61-0.03-1.38-0.03-2.07v-6.65Zm-5.035,4.43v-2.12h3.5v2.12h-3.5Zm3.5-5.61v2.09h-3.5v-2.09h3.5Zm-8.342,5.61c0.03-.59.045-1.24,0.045-1.96v-0.16h3.247v2.12H937.7Zm0.045-3.52v-2.09h3.247v2.09h-3.247Z" transform="translate(-808.156 -2395.81)"/>
    <rect id="長方形_571" data-name="長方形 571" class="cls-3" x="101.844" y="72.19" width="47" height="27" rx="4" ry="4"/>
  </g>
</svg>
