<svg id="tag-ts.svg" xmlns="http://www.w3.org/2000/svg" width="162" height="30" viewBox="0 0 162 30">
  <defs>
    <style>
      .cls-1 {
        fill: #fff;
      }

      .cls-2 {
        fill: #7664a8;
        fill-rule: evenodd;
      }
    </style>
  </defs>
  <rect id="長方形_688" data-name="長方形 688" class="cls-1" width="162" height="30" rx="3" ry="3"/>
  <g id="グループ_131" data-name="グループ 131">
    <path id="さらさらスティック" class="cls-2" d="M350.148,3975.66a26.071,26.071,0,0,1-2.661.32c-0.556.03-1.246,0.05-2.105,0.02a13.291,13.291,0,0,0,.387,1.52c0.051,0.21.118,0.31,0.27,0.31,0.421,0,1.195-.05,1.65-0.09,1.213-.1,2.189-0.23,3.25-0.42a11.1,11.1,0,0,0,2.173,3.01,8.407,8.407,0,0,0-3-.46c-2.778,0-4.429,1.36-4.429,3.29,0,2.24,2.139,3.52,6.113,3.52a15.052,15.052,0,0,0,1.87-.12,0.309,0.309,0,0,0,.32-0.24,10.374,10.374,0,0,0,.353-1.82,15.763,15.763,0,0,1-2.694.24c-2.644,0-4.177-.53-4.177-1.8,0-1.07,1.061-1.6,2.813-1.6a7.623,7.623,0,0,1,3.57.87,5.923,5.923,0,0,1,.69.44,0.462,0.462,0,0,0,.27.14,0.438,0.438,0,0,0,.337-0.26,6.582,6.582,0,0,0,.656-1.1,0.552,0.552,0,0,0,.1-0.29,0.325,0.325,0,0,0-.168-0.22c-0.151-.12-0.3-0.24-0.438-0.37a19.521,19.521,0,0,1-2.576-3.59,27.22,27.22,0,0,0,3.351-.98,0.2,0.2,0,0,0,.135-0.29,7.418,7.418,0,0,0-.421-1.31c-0.1-.18-0.152-0.2-0.32-0.12a26.087,26.087,0,0,1-3.52,1.06c-0.219-.46-0.371-0.87-0.573-1.38a7.122,7.122,0,0,1-.269-0.85,2.176,2.176,0,0,1-.017-0.47c0-.24-0.135-0.36-0.573-0.36a13.5,13.5,0,0,0-2,.27,5.534,5.534,0,0,1,.842,1.38C349.626,3974.55,349.862,3975.04,350.148,3975.66Zm12.429-2.16a13.1,13.1,0,0,1,3.4,2.21,0.31,0.31,0,0,0,.2.12,0.336,0.336,0,0,0,.185-0.14,10.884,10.884,0,0,0,.859-1.19,0.45,0.45,0,0,0,.084-0.2,0.242,0.242,0,0,0-.118-0.19,11.037,11.037,0,0,0-3.3-2.02,0.288,0.288,0,0,0-.32.08A10.056,10.056,0,0,0,362.577,3973.5Zm-1.179,2.36a10.569,10.569,0,0,1-.152,1.53c-0.2,1.51-.421,3.51-0.522,5.48a0.286,0.286,0,0,0,.236.34c0.354,0.17.758,0.32,1.145,0.46,0.219,0.05.286,0.05,0.387-.12a4.464,4.464,0,0,1,.725-0.93,7.443,7.443,0,0,1,4.85-2.58,1.74,1.74,0,0,1,2.021,1.75,2.776,2.776,0,0,1-1.988,2.56,13.889,13.889,0,0,1-4.631.95,4.426,4.426,0,0,1,1.145,1.44,0.529,0.529,0,0,0,.674.23,14.525,14.525,0,0,0,4.311-1.18,4.155,4.155,0,0,0,2.543-3.8c0-2.19-1.465-3.63-3.924-3.63a8.178,8.178,0,0,0-5.625,2.68,28.3,28.3,0,0,1,.4-3.09,3.216,3.216,0,0,1,.336-0.9,0.523,0.523,0,0,0,.085-0.26,0.374,0.374,0,0,0-.27-0.32A9.708,9.708,0,0,0,361.4,3975.86Zm19.435-.2a26.071,26.071,0,0,1-2.661.32c-0.556.03-1.246,0.05-2.105,0.02a13.291,13.291,0,0,0,.387,1.52c0.051,0.21.118,0.31,0.27,0.31,0.421,0,1.195-.05,1.65-0.09,1.213-.1,2.189-0.23,3.25-0.42a11.1,11.1,0,0,0,2.173,3.01,8.407,8.407,0,0,0-3-.46c-2.778,0-4.429,1.36-4.429,3.29,0,2.24,2.139,3.52,6.113,3.52a15.052,15.052,0,0,0,1.87-.12,0.309,0.309,0,0,0,.32-0.24,10.467,10.467,0,0,0,.353-1.82,15.763,15.763,0,0,1-2.694.24c-2.644,0-4.177-.53-4.177-1.8,0-1.07,1.061-1.6,2.813-1.6a7.623,7.623,0,0,1,3.57.87,5.923,5.923,0,0,1,.69.44,0.462,0.462,0,0,0,.27.14,0.438,0.438,0,0,0,.337-0.26,6.582,6.582,0,0,0,.656-1.1,0.552,0.552,0,0,0,.1-0.29,0.325,0.325,0,0,0-.168-0.22c-0.152-.12-0.3-0.24-0.438-0.37a19.521,19.521,0,0,1-2.576-3.59,27.22,27.22,0,0,0,3.351-.98,0.2,0.2,0,0,0,.135-0.29,7.418,7.418,0,0,0-.421-1.31c-0.1-.18-0.152-0.2-0.32-0.12a26.087,26.087,0,0,1-3.52,1.06c-0.219-.46-0.371-0.87-0.573-1.38a7.122,7.122,0,0,1-.269-0.85,2.176,2.176,0,0,1-.017-0.47c0-.24-0.135-0.36-0.573-0.36a13.5,13.5,0,0,0-2,.27,5.534,5.534,0,0,1,.842,1.38C380.311,3974.55,380.547,3975.04,380.833,3975.66Zm11.754-2.16a13.093,13.093,0,0,1,3.4,2.21,0.309,0.309,0,0,0,.2.12,0.329,0.329,0,0,0,.185-0.14,10.753,10.753,0,0,0,.859-1.19,0.442,0.442,0,0,0,.085-0.2,0.242,0.242,0,0,0-.118-0.19,11.05,11.05,0,0,0-3.3-2.02,0.287,0.287,0,0,0-.32.08A9.957,9.957,0,0,0,392.587,3973.5Zm-1.179,2.36a10.716,10.716,0,0,1-.151,1.53c-0.2,1.51-.421,3.51-0.522,5.48a0.285,0.285,0,0,0,.236.34c0.353,0.17.757,0.32,1.145,0.46,0.219,0.05.286,0.05,0.387-.12a4.459,4.459,0,0,1,.724-0.93,7.443,7.443,0,0,1,4.85-2.58,1.739,1.739,0,0,1,2.021,1.75,2.776,2.776,0,0,1-1.987,2.56,13.889,13.889,0,0,1-4.631.95,4.426,4.426,0,0,1,1.145,1.44,0.528,0.528,0,0,0,.674.23,14.525,14.525,0,0,0,4.311-1.18,4.157,4.157,0,0,0,2.543-3.8c0-2.19-1.465-3.63-3.924-3.63a8.175,8.175,0,0,0-5.625,2.68,28.3,28.3,0,0,1,.4-3.09,3.249,3.249,0,0,1,.337-0.9,0.521,0.521,0,0,0,.084-0.26,0.372,0.372,0,0,0-.269-0.32A9.75,9.75,0,0,0,391.408,3975.86Zm18.291-1.66c-1.1,0-1.937,0-2.846-.07a9.8,9.8,0,0,0,.152,1.76c0.033,0.19.084,0.31,0.219,0.29,0.909-.07,1.785-0.1,2.66-0.1l4.345-.02a21.046,21.046,0,0,1-9.094,8.6,4.507,4.507,0,0,1,1.415,1.1,0.377,0.377,0,0,0,.286.15,1.209,1.209,0,0,0,.388-0.13,24.26,24.26,0,0,0,5.658-4.49,31.234,31.234,0,0,1,4.379,4.21,0.332,0.332,0,0,0,.235.14,0.277,0.277,0,0,0,.2-0.1,9.3,9.3,0,0,0,1.129-1.16,0.3,0.3,0,0,0-.017-0.49,39.982,39.982,0,0,0-4.665-4.11,26.267,26.267,0,0,0,2.156-3.17,3.092,3.092,0,0,1,.623-0.75,0.477,0.477,0,0,0,.219-0.34,0.433,0.433,0,0,0-.084-0.22,6.37,6.37,0,0,0-1.1-1.19,0.547,0.547,0,0,0-.286-0.14,0.289,0.289,0,0,0-.186.07,2.378,2.378,0,0,1-1.162.16H409.7Zm23.007,4.85c1.162,0,2.324.04,3.2,0.07a0.237,0.237,0,0,0,.252-0.29c0.017-.22.017-1.09,0-1.31,0-.23-0.017-0.34-0.185-0.34-0.994.07-1.971,0.11-3.284,0.11h-7.562c-0.976,0-1.919,0-2.863-.09a10.262,10.262,0,0,0,.135,1.63c0.017,0.22.068,0.34,0.219,0.32,0.859-.05,1.684-0.1,2.526-0.1h3.2a7.234,7.234,0,0,1-.859,3.65,7.517,7.517,0,0,1-3.351,3.03,4.406,4.406,0,0,1,1.5.9,0.531,0.531,0,0,0,.353.17,1.03,1.03,0,0,0,.506-0.21,8.447,8.447,0,0,0,2.963-3.21,9.766,9.766,0,0,0,.994-4.33h2.257Zm-1.819-3.94c0.926,0,1.92.02,2.829,0.05,0.185,0,.219-0.08.219-0.32a7.55,7.55,0,0,0,0-1.24c0-.22-0.034-0.32-0.2-0.32-0.842.05-1.9,0.07-2.846,0.07h-3.772c-0.758,0-1.617-.02-2.8-0.09,0.051,0.61.067,1.22,0.118,1.63,0.017,0.21.067,0.29,0.286,0.29,0.943-.03,1.617-0.07,2.392-0.07h3.772Zm14.1,4.32c0.589-.58,1.095-1.14,1.532-1.65a4.332,4.332,0,0,1,.758-0.7,0.377,0.377,0,0,0,.253-0.32,0.487,0.487,0,0,0-.185-0.31,13.772,13.772,0,0,0-1.55-1.01,4.9,4.9,0,0,1-.892,1.46,23.976,23.976,0,0,1-6.989,5.51,3.061,3.061,0,0,1,1.212.85,0.439,0.439,0,0,0,.337.17,0.365,0.365,0,0,0,.219-0.06,23.033,23.033,0,0,0,3.486-2.45v2.9c0,0.9-.034,1.75-0.05,2.72a0.258,0.258,0,0,0,.269.31,10.347,10.347,0,0,0,1.364,0,0.262,0.262,0,0,0,.286-0.31c-0.016-.87-0.05-1.95-0.05-2.77v-4.34Zm5.942-1.43a10.044,10.044,0,0,1,1.584,2.73c0.084,0.24.185,0.33,0.421,0.24a6.563,6.563,0,0,0,1.077-.53,0.286,0.286,0,0,0,.2-0.23,1.15,1.15,0,0,0-.067-0.26,9.146,9.146,0,0,0-1.448-2.51,0.3,0.3,0,0,0-.438-0.12C451.9,3977.49,451.5,3977.68,450.924,3978Zm3.385-.87a11.63,11.63,0,0,1,1.415,2.72c0.084,0.24.152,0.32,0.337,0.25a6.734,6.734,0,0,0,1.162-.52,0.3,0.3,0,0,0,.168-0.46,9.859,9.859,0,0,0-1.3-2.48,0.3,0.3,0,0,0-.438-0.14C455.37,3976.62,454.983,3976.81,454.309,3977.13Zm5.3-.4a6.219,6.219,0,0,1-.387,1.8,17.782,17.782,0,0,1-2.274,4.09,14.715,14.715,0,0,1-4.041,3.53,3.826,3.826,0,0,1,1.431.71,0.365,0.365,0,0,0,.27.12,0.731,0.731,0,0,0,.4-0.18,13.813,13.813,0,0,0,3.469-3.28,20.833,20.833,0,0,0,2.543-4.52,2.371,2.371,0,0,1,.5-0.86,0.324,0.324,0,0,0-.034-0.6A7.883,7.883,0,0,0,459.614,3976.73Zm11.6-1.58c0.2-.31.37-0.56,0.555-0.85a1.821,1.821,0,0,1,.421-0.46,0.349,0.349,0,0,0,.186-0.29,0.367,0.367,0,0,0-.169-0.29,8.321,8.321,0,0,0-1.97-.9,7.208,7.208,0,0,1-.994,2.29,20,20,0,0,1-4.53,5.05,4.493,4.493,0,0,1,1.617.73,0.387,0.387,0,0,0,.252.1,0.523,0.523,0,0,0,.354-0.19,23.4,23.4,0,0,0,3.183-3.48l4.075-.12a17.346,17.346,0,0,1-3.115,4.83,19.6,19.6,0,0,1-5.608,4.33,4.3,4.3,0,0,1,1.6.78,0.572,0.572,0,0,0,.387.18,0.434,0.434,0,0,0,.27-0.08,21.509,21.509,0,0,0,5.119-4.23,23.463,23.463,0,0,0,3.335-5.25,2.124,2.124,0,0,1,.555-0.73,0.485,0.485,0,0,0,.2-0.35,0.537,0.537,0,0,0-.219-0.39,7.208,7.208,0,0,0-1.145-.92,0.466,0.466,0,0,0-.269-0.1,0.336,0.336,0,0,0-.219.06,1.56,1.56,0,0,1-.842.21Z" transform="translate(-330 -3964)"/>
  </g>
</svg>
