<svg xmlns="http://www.w3.org/2000/svg" width="335.063" height="47.78" viewBox="0 0 335.063 47.78">
  <defs>
    <style>
      .cls-1 {
        fill-rule: evenodd;
      }
    </style>
  </defs>
  <path id="head-instagram.svg" class="cls-1" d="M533.406,8383.15v42.05h6.429v-42.05h-6.429Zm24.2,42.05v-29.38l30.508,31.96v-44.63H581.68v29.13l-30.508-31.96v44.88H557.6Zm65.15-35.74a14.311,14.311,0,0,0-3.214-4.23,12.428,12.428,0,0,0-8.447-2.83c-7.879,0-12.292,5.42-12.292,11.09,0,6.3,5.106,9.2,8.573,10.65l4.034,1.71c2.774,1.13,6.051,2.9,6.051,7.18a6.751,6.751,0,0,1-6.933,7.06,6.639,6.639,0,0,1-5.484-2.52,9.074,9.074,0,0,1-1.765-5.36l-6.367,1.39a13.6,13.6,0,0,0,3.53,8.19,12.29,12.29,0,0,0,9.9,4.23c7.879,0,13.552-5.49,13.552-13.49,0-4.79-2.143-9.21-9.9-12.36l-4.224-1.7c-4.1-1.64-4.538-3.84-4.538-5.1,0-2.72,2.017-5.05,5.925-5.05a6.535,6.535,0,0,1,6.429,4.16Zm31.751-.25v-6.06H628.784v6.06h9.644v35.99h6.429v-35.99H654.5Zm32.259,35.99H693.7l-19.919-44.5-20.927,44.5h6.934l4.6-10.15h17.965ZM667.032,8409l6.492-14.25,6.24,14.25H667.032Zm54.942,0.25h10.463a11.253,11.253,0,0,1-3.53,7.12,12.623,12.623,0,0,1-9.392,3.72,13.645,13.645,0,0,1-10.526-4.22,17.452,17.452,0,0,1,.126-23.2,15.169,15.169,0,0,1,11.094-4.35,14.137,14.137,0,0,1,7.438,1.83,17.253,17.253,0,0,1,5.168,4.79l5.106-3.59a19.18,19.18,0,0,0-6.807-6.31,22.83,22.83,0,0,0-10.968-2.64,22.378,22.378,0,0,0-15.7,37.88c3.845,3.97,8.195,5.74,14.309,5.74,4.79,0,9.959-1.14,14.309-5.36,4.1-3.97,6.24-9.83,6.24-17.02v-0.32H721.974v5.93Zm26.636-26.1v42.05h6.429v-17.21h1.135l12.04,17.21h7.753l-13.111-17.97a11.527,11.527,0,0,0,9.329-11.72,11.737,11.737,0,0,0-4.98-9.9c-2.71-1.83-5.988-2.46-11.094-2.46h-7.5Zm6.429,5.93h2.207c3.151,0,8.761.57,8.761,6.49,0,6.68-7.186,6.87-8.95,6.87h-2.018v-13.36Zm56.334,36.12h6.934l-19.919-44.5-20.927,44.5H784.4l4.6-10.15h17.965ZM791.644,8409l6.492-14.25,6.241,14.25H791.644Zm37.23,16.2,4.412-25.41,12.1,27.36,12.228-27.29,4.287,25.34h6.555l-7.942-45.2-14.75,32.65L831.143,8380l-8.825,45.2h6.556Z" transform="translate(-533.406 -8380)"/>
</svg>
