<?xml version="1.0" encoding="utf-8"?>
<!-- Generator: Adobe Illustrator 25.0.1, SVG Export Plug-In . SVG Version: 6.00 Build 0)  -->
<svg version="1.1" id="レイヤー_1" xmlns="http://www.w3.org/2000/svg" xmlns:xlink="http://www.w3.org/1999/xlink" x="0px"
	 y="0px" viewBox="0 0 249.8 46.4" style="enable-background:new 0 0 249.8 46.4;" xml:space="preserve">
<style type="text/css">
	.st0{fill-rule:evenodd;clip-rule:evenodd;fill:#FFFFFF;}
</style>
<path id="feature" class="st0" d="M24.1,0H0v45.4h8.8v-20h14.3v-7.6H8.8V7.6h15.2V0z M56.8,0H31.7v45.4h25.2v-7.6H40.5V25.4h15.6
	v-7.6H40.5V7.6h16.3L56.8,0L56.8,0z M96.3,45.4h9.5L86.8,0h-6.9L60.4,45.4H70l4-9.5h18.3L96.3,45.4z M76.8,28.6l6.5-16.3l6.5,16.3
	H76.8z M133.3,7.6V0H104v7.6h10.2v37.8h8.8V7.6H133.3L133.3,7.6z M138.9,0v27.7c0,4.3,0.7,8.6,3.4,12.1c3.3,4.3,9,6.5,14.8,6.5
	s11.6-2.2,14.8-6.5c2.7-3.5,3.4-7.8,3.4-12.1V0h-8.8v28.5c0.1,2.4-0.6,4.8-2.2,6.7c-3.7,4-10,4.2-14,0.4c-0.2-0.1-0.3-0.3-0.4-0.4
	c-1.5-1.9-2.3-4.3-2.2-6.7V0H138.9L138.9,0z M185.6,0v45.4h8.8V27.1h1.1l12.1,18.2h11l-14.1-19.1c1.8-0.3,3.5-1,5-2
	c3.5-2.4,5.5-6.4,5.3-10.7c0.1-3.9-1.5-7.7-4.5-10.2C208.2,1.6,205,0,198.8,0L185.6,0L185.6,0z M194.5,7.2h2.7
	c1.6,0,8.6,0.1,8.6,6.8c0,6.7-7,6.9-8.7,6.9h-2.5V7.2L194.5,7.2z M249.8,0h-25.2v45.4h25.2v-7.6h-16.3V25.4h15.6v-7.6h-15.6V7.6
	h16.3L249.8,0L249.8,0z"/>
</svg>
