<svg xmlns="http://www.w3.org/2000/svg" width="163.929" height="38.605" viewBox="0 0 163.929 38.605">
  <g id="dr-wk" transform="translate(-371.917 -82.173)">
    <g id="Group_6" data-name="Group 6">
      <path id="Path_282" data-name="Path 282" d="M391.226,102.419H372.7a.785.785,0,0,1,0-1.569h8.513V93.359h-6.991a.785.785,0,0,1,0-1.569h6.991V85.06h-7.752a.785.785,0,0,1,0-1.569h17a.785.785,0,0,1,0,1.569h-7.586v6.73H389.7a.785.785,0,0,1,0,1.569h-6.825v7.491h8.347a.785.785,0,0,1,0,1.569Z" fill="#fff"/>
      <path id="Path_283" data-name="Path 283" d="M400.916,96.45a3.08,3.08,0,0,1-6.159,0V87.937a3.081,3.081,0,0,1,6.159,0Zm-1.5-8.513a1.474,1.474,0,0,0-1.593-1.5,1.455,1.455,0,0,0-1.57,1.5V96.45a1.455,1.455,0,0,0,1.57,1.5,1.473,1.473,0,0,0,1.593-1.5Zm15.409,15.386H407.36a3.7,3.7,0,0,1-3.733-3.71V90.862c-.238.428-.475.856-.713,1.261a.736.736,0,0,1-1.023.237.791.791,0,0,1-.238-1.07,57.993,57.993,0,0,0,4.233-8.632.836.836,0,0,1,1.046-.428.793.793,0,0,1,.452,1c-.333.809-1.046,2.33-1.331,2.972a3.641,3.641,0,0,1,1.355-.285h1.9l1.38-3.044a.842.842,0,0,1,1.07-.38.755.755,0,0,1,.356,1.022L411,85.916h3.662a.751.751,0,0,1,.761.761.772.772,0,0,1-.761.785H410.69v3.781h3.543a.751.751,0,0,1,.737.784.732.732,0,0,1-.737.761H410.69v3.448h3.543a.752.752,0,0,1,.737.785.712.712,0,0,1-.737.737H410.69v4.09h4.137a.737.737,0,0,1,0,1.475Zm-5.636-12.08V87.462h-1.783a2.232,2.232,0,0,0-2.235,2.235v1.546Zm0,4.993V92.788h-4.018v3.448Zm0,5.612v-4.09h-4.018v1.855a2.232,2.232,0,0,0,2.235,2.235Z" fill="#fff"/>
      <path id="Path_284" data-name="Path 284" d="M437.71,101.3H419.448a.809.809,0,0,1,0-1.617h8.18V86.725h-6.944a.808.808,0,0,1,0-1.617H436.5a.809.809,0,0,1,0,1.617h-7.133V99.684h8.346a.809.809,0,1,1,0,1.617Z" fill="#fff"/>
      <path id="Path_285" data-name="Path 285" d="M450.719,90.078h-2.877v2.14a.728.728,0,0,1,1.236-.167l1.855,2.307a.728.728,0,0,1-1.141.9l-1.95-2.449v10.13a.761.761,0,1,1-1.522,0v-9.63a39.5,39.5,0,0,1-3.472,5.469.754.754,0,1,1-1.189-.928,32.622,32.622,0,0,0,4.47-7.775h-3.852a.738.738,0,0,1,0-1.475H446.3V84.68c-1.046.118-2.164.285-3.187.309a.714.714,0,0,1-.784-.69.743.743,0,0,1,.689-.785c1.927-.142,5.422-.57,6.968-.832a.735.735,0,1,1,.238,1.451c-.5.095-1.617.285-2.378.356V88.6h2.877a.738.738,0,0,1,0,1.475Zm12.127,5.683-2.33.618v6.539a.785.785,0,1,1-1.569,0V96.807l-6.492,1.712a.738.738,0,1,1-.381-1.427l6.873-1.831V83.134a.785.785,0,1,1,1.569,0v11.7l1.95-.5a.738.738,0,1,1,.38,1.427Zm-7.68-2.854-2.14-1.736a.729.729,0,0,1-.119-1.046.758.758,0,0,1,1.07-.119l2.14,1.736a.752.752,0,1,1-.951,1.165Zm.428-5.374L453.5,85.7a.775.775,0,1,1,1.023-1.165l2.092,1.855a.756.756,0,0,1,.072,1.07A.786.786,0,0,1,455.594,87.533Z" fill="#fff"/>
      <path id="Path_286" data-name="Path 286" d="M487.043,95.761a.8.8,0,0,1-.785.761.825.825,0,0,1-.784-.785l.023-.88a1.649,1.649,0,0,0-1.64-1.664H469.232a1.67,1.67,0,0,0-1.641,1.688v.88a.826.826,0,0,1-.808.761.8.8,0,0,1-.761-.785v-.88a3.168,3.168,0,0,1,2.521-3V85.417a2.684,2.684,0,0,1,2.068-2.687c.547-.1,1.427-.214,2.045-.333a.686.686,0,1,1,.214,1.355c-.523.1-1.521.238-2,.333a1.3,1.3,0,0,0-.9,1.332v.333h2.426a.666.666,0,1,1,0,1.331h-2.426v1.475h2.426a.7.7,0,0,1,.666.689.66.66,0,0,1-.666.642h-2.426v1.9h13.222v-1.9H480.86a.681.681,0,0,1-.689-.642.723.723,0,0,1,.689-.689h2.331V87.081H480.86a.666.666,0,1,1,0-1.331h2.331v-.428a1.2,1.2,0,0,0-1.118-1.189H480.5a.67.67,0,0,1-.666-.69.711.711,0,0,1,.689-.713h1.546a2.583,2.583,0,0,1,2.521,2.592l-.024,6.539a3.172,3.172,0,0,1,2.473,3Zm-.785,3.947h-8.727v1.26a3.032,3.032,0,0,1-3.044,3.044.749.749,0,1,1-.047-1.5,1.562,1.562,0,0,0,1.569-1.546v-1.26h-9.2a.7.7,0,0,1-.738-.689.741.741,0,0,1,.738-.738h9.2v-.832a.746.746,0,0,1,.928-.737c.761-.381,1.522-.737,2.283-1.141h-7.158a.651.651,0,0,1-.642-.69.63.63,0,0,1,.642-.666h7.419c1.688,0,2.188,1.593.809,2.307-.809.428-2.022,1.046-2.759,1.4v.356h8.727a.741.741,0,0,1,.737.738A.7.7,0,0,1,486.258,99.708Zm-7.395-11.247-1.118.76.928.833a.648.648,0,0,1-.88.951l-1.142-1.07-1.759,1.236a.633.633,0,0,1-.9-.166.653.653,0,0,1,.167-.9l1.521-1.046-.737-.713a.64.64,0,0,1,.856-.952l.975.952,1.356-.952a.65.65,0,0,1,.737,1.071Zm-.167-4.614-1.165.928.832.737a.638.638,0,0,1,.048.9.67.67,0,0,1-.927.072l-1.023-.928-1.45,1.237a.683.683,0,0,1-.952-.119.654.654,0,0,1,.119-.927l1.284-1.047-.808-.737a.639.639,0,0,1-.048-.9.669.669,0,0,1,.928-.048l1,.88,1.332-1.094a.682.682,0,0,1,.951.119A.652.652,0,0,1,478.7,83.847Z" fill="#fff"/>
      <path id="Path_287" data-name="Path 287" d="M496.763,100.35a2.928,2.928,0,0,1-2.283,3.02.733.733,0,1,1-.214-1.45,1.447,1.447,0,0,0,1-1.57V95.428H492.34a26.423,26.423,0,0,1-1.212,7.514.739.739,0,0,1-.952.428.724.724,0,0,1-.451-.927,26.55,26.55,0,0,0,1.117-8.18V85.274a2.963,2.963,0,0,1,5.921,0Zm-1.5-11.818V85.274a1.349,1.349,0,0,0-1.474-1.379,1.331,1.331,0,0,0-1.451,1.379v3.258Zm0,5.422V90.006H492.34v3.948Zm14.292-10.012c-1.713.357-5.422.785-7.42.928a1.692,1.692,0,0,0-1.545,1.9V93.24a21.711,21.711,0,0,1-1.855,9.084.75.75,0,0,1-1,.357.722.722,0,0,1-.356-.975,21.3,21.3,0,0,0,1.712-8.466V86.772a3.153,3.153,0,0,1,2.9-3.353c2.425-.214,5.564-.618,7.324-.927a.738.738,0,0,1,.856.594A.749.749,0,0,1,509.557,83.942Zm.118,4.233a42.518,42.518,0,0,1-5.4.975v13.531a.741.741,0,0,1-.738.737.762.762,0,0,1-.761-.737V89.293c-.332.024-.689.071-1.046.071a.714.714,0,0,1-.785-.689.721.721,0,0,1,.69-.761,50.294,50.294,0,0,0,7.657-1.166.753.753,0,0,1,.927.524A.742.742,0,0,1,509.675,88.175Zm.857,14.529a.753.753,0,0,1-1.047-.119c-2.639-2.948-3.709-7.989-3.472-12.246a.747.747,0,0,1,.809-.666.725.725,0,0,1,.666.785,16.644,16.644,0,0,0,.024,2.188l2.116-.856a.754.754,0,0,1,.975.4.7.7,0,0,1-.4.927l-2.545,1a15.132,15.132,0,0,0,3,7.538A.732.732,0,0,1,510.532,102.7Z" fill="#fff"/>
      <path id="Path_288" data-name="Path 288" d="M522.155,87.961h-7.61a.761.761,0,0,1,0-1.522h7.61a.761.761,0,0,1,0,1.522Zm-.476,12.389a2.913,2.913,0,0,1-2.9,2.9h-.9a2.954,2.954,0,0,1-2.948-2.9v-1.4a2.938,2.938,0,0,1,2.948-2.9h.9a2.913,2.913,0,0,1,2.9,2.9Zm-.594-15.884h-5.208a.747.747,0,0,1-.761-.738.783.783,0,0,1,.761-.761h5.208a.853.853,0,0,1,.76.857C521.845,84.252,521.489,84.466,521.085,84.466Zm-.262,6.753h-4.9a.737.737,0,1,1,0-1.474h4.9a.737.737,0,1,1,0,1.474Zm0,3.115h-4.9a.762.762,0,0,1-.761-.737.783.783,0,0,1,.761-.761h4.9a.783.783,0,0,1,.761.761A.762.762,0,0,1,520.823,94.334Zm-.666,4.613a1.405,1.405,0,0,0-1.4-1.4H517.9a1.405,1.405,0,0,0-1.4,1.4v1.4a1.39,1.39,0,0,0,1.4,1.4l.856-.024a1.4,1.4,0,0,0,1.4-1.379Zm14.363-8.869a34.285,34.285,0,0,1-2.9-3c-.856-1-1.593-1.9-2.117-2.544a.579.579,0,0,0-.927,0c-.5.666-1.189,1.617-1.974,2.616a37.574,37.574,0,0,1-2.449,2.877.79.79,0,1,1-1.141-1.094,31,31,0,0,0,2.33-2.735c.761-.975,1.451-1.949,1.95-2.615a2.2,2.2,0,0,1,3.448-.048,46.71,46.71,0,0,0,4.851,5.351.8.8,0,0,1-1.07,1.189Zm-9.488,13.1a.782.782,0,1,1-.523-1.474,29.993,29.993,0,0,0,9.036-5.375A.791.791,0,1,1,534.71,97.4C532.713,99.542,528.837,101.825,525.032,103.18ZM530.1,90.672a40.171,40.171,0,0,1-4.375,3.377.772.772,0,1,1-.857-1.284,36.994,36.994,0,0,0,4.186-3.234.774.774,0,1,1,1.046,1.141Zm2.4,3.139a33.584,33.584,0,0,1-6.4,4.566.76.76,0,0,1-1.022-.333A.778.778,0,0,1,525.389,97a29.8,29.8,0,0,0,6.016-4.3.811.811,0,0,1,1.117.024A.782.782,0,0,1,532.5,93.811Z" fill="#fff"/>
    </g>
    <g id="Group_8" data-name="Group 8">
      <g id="Group_7" data-name="Group 7">
        <path id="Path_289" data-name="Path 289" d="M372.975,109.118h3.318c2.98,0,4.645,1.489,4.645,4.6,0,3.237-1.421,5.066-4.645,5.066h-3.318Zm1.287,8.586H376.4c.882,0,3.251-.243,3.251-3.805,0-2.3-.852-3.7-3.223-3.7h-2.167Z" fill="#fff"/>
        <path id="Path_290" data-name="Path 290" d="M382.276,111.785h1.083v1.477h.027a2.547,2.547,0,0,1,2.574-1.639v1.219c-1.856,0-2.534,1.057-2.534,2.83v3.116h-1.15Z" fill="#fff"/>
        <path id="Path_291" data-name="Path 291" d="M385.837,117.284h1.5v1.369a2.01,2.01,0,0,1-1.49,2.125V120.1a1.3,1.3,0,0,0,.787-1.314h-.8Z" fill="#fff"/>
        <path id="Path_292" data-name="Path 292" d="M402.032,118.788h-1.341l-2.207-8.126h-.028l-2.234,8.126H394.88l-2.478-9.67h1.315l1.895,8.045h.027l2.167-8.045H399.2l2.14,8.045h.027l1.964-8.045h1.287Z" fill="#fff"/>
        <path id="Path_293" data-name="Path 293" d="M405.834,109.118h1.287v4.821l4.9-4.821h1.665l-4.076,3.9,4.239,5.769h-1.625l-3.495-4.889-1.611,1.5v3.386h-1.287Z" fill="#fff"/>
        <path id="Path_294" data-name="Path 294" d="M414.932,109.118h1.5v1.5c0,1.069-.447,1.991-1.49,1.991v-.677c.61,0,.787-.692.787-1.314h-.8Z" fill="#fff"/>
        <path id="Path_295" data-name="Path 295" d="M418.139,116.581c.042,1.028.935,1.354,1.884,1.354.717,0,1.693-.162,1.693-1.044s-1.138-1.042-2.29-1.3c-1.137-.257-2.289-.635-2.289-1.977,0-1.409,1.4-1.991,2.614-1.991,1.545,0,2.777.487,2.872,2.194h-1.152c-.081-.893-.867-1.178-1.625-1.178-.69,0-1.49.19-1.49.895,0,.825,1.22.96,2.29,1.218,1.15.257,2.289.637,2.289,1.991,0,1.665-1.559,2.208-2.981,2.208-1.57,0-2.9-.636-2.965-2.37Z" fill="#fff"/>
        <path id="Path_296" data-name="Path 296" d="M433.752,111.948a2.113,2.113,0,0,0-2.4-1.977c-1.083,0-2.167.392-2.167,1.652,0,1.192,1.544,1.367,3.1,1.721s3.088.893,3.088,2.79c0,2.057-2.018,2.884-3.779,2.884-2.168,0-3.995-1.057-3.995-3.412h1.219c0,1.625,1.354,2.329,2.817,2.329,1.165,0,2.452-.366,2.452-1.761,0-1.327-1.545-1.557-3.089-1.9s-3.1-.785-3.1-2.559c0-1.963,1.747-2.83,3.509-2.83,1.977,0,3.481.933,3.562,3.06Z" fill="#fff"/>
        <path id="Path_297" data-name="Path 297" d="M441.5,114.034a1.63,1.63,0,0,0-1.733-1.395c-1.667,0-2.181,1.313-2.181,2.735,0,1.287.582,2.561,2.046,2.561a1.81,1.81,0,0,0,1.922-1.707h1.178a2.91,2.91,0,0,1-3.087,2.723c-2.14,0-3.279-1.49-3.279-3.577s1.084-3.751,3.306-3.751c1.585,0,2.857.745,3.02,2.411Z" fill="#fff"/>
        <path id="Path_298" data-name="Path 298" d="M445.232,110.526h-1.151v-1.408h1.151Zm-1.151,1.259h1.151v7h-1.151Z" fill="#fff"/>
        <path id="Path_299" data-name="Path 299" d="M452.992,116.568A2.824,2.824,0,0,1,450,118.951c-2.234,0-3.291-1.545-3.358-3.684a3.371,3.371,0,0,1,3.291-3.644c2.479,0,3.237,2.316,3.169,4.009h-5.241a2.062,2.062,0,0,0,2.18,2.3,1.689,1.689,0,0,0,1.816-1.367Zm-1.111-1.951a2.015,2.015,0,0,0-2.018-1.978,1.994,1.994,0,0,0-2,1.978Z" fill="#fff"/>
        <path id="Path_300" data-name="Path 300" d="M454.289,111.785h1.083V112.9h.027a2.439,2.439,0,0,1,2.275-1.274c1.842,0,2.411,1.057,2.411,2.561v4.6h-1.15v-4.741a1.319,1.319,0,0,0-1.422-1.408,1.968,1.968,0,0,0-2.072,2.195v3.954h-1.152Z" fill="#fff"/>
        <path id="Path_301" data-name="Path 301" d="M466.57,114.034a1.631,1.631,0,0,0-1.734-1.395c-1.667,0-2.18,1.313-2.18,2.735,0,1.287.582,2.561,2.045,2.561a1.81,1.81,0,0,0,1.922-1.707H467.8a2.91,2.91,0,0,1-3.088,2.723c-2.14,0-3.278-1.49-3.278-3.577s1.083-3.751,3.3-3.751c1.585,0,2.857.745,3.021,2.411Z" fill="#fff"/>
        <path id="Path_302" data-name="Path 302" d="M475.058,116.568a2.822,2.822,0,0,1-2.992,2.383c-2.235,0-3.292-1.545-3.36-3.684A3.371,3.371,0,0,1,472,111.623c2.479,0,3.237,2.316,3.169,4.009h-5.241a2.062,2.062,0,0,0,2.18,2.3,1.687,1.687,0,0,0,1.815-1.367Zm-1.11-1.951a2.015,2.015,0,0,0-2.019-1.978,1.993,1.993,0,0,0-2,1.978Z" fill="#fff"/>
        <path id="Path_303" data-name="Path 303" d="M477.059,116.581c.042,1.028.935,1.354,1.884,1.354.717,0,1.693-.162,1.693-1.044s-1.138-1.042-2.29-1.3-2.289-.635-2.289-1.977c0-1.409,1.395-1.991,2.614-1.991,1.545,0,2.777.487,2.872,2.194h-1.152c-.081-.893-.866-1.178-1.625-1.178-.69,0-1.49.19-1.49.895,0,.825,1.22.96,2.29,1.218,1.15.257,2.289.637,2.289,1.991,0,1.665-1.559,2.208-2.981,2.208-1.57,0-2.9-.636-2.965-2.37Z" fill="#fff"/>
        <path id="Path_304" data-name="Path 304" d="M489.91,111.623c2.221,0,3.4,1.612,3.4,3.671s-1.178,3.657-3.4,3.657-3.4-1.612-3.4-3.657S487.688,111.623,489.91,111.623Zm0,6.312c1.2,0,2.18-.949,2.18-2.641s-.975-2.655-2.18-2.655-2.18.948-2.18,2.655S488.7,117.935,489.91,117.935Z" fill="#fff"/>
        <path id="Path_305" data-name="Path 305" d="M495.135,112.8h-1.179v-1.017h1.179v-1.042c0-1.138.678-1.733,1.937-1.733a2.825,2.825,0,0,1,.745.108v1a2.15,2.15,0,0,0-.65-.1c-.555,0-.88.176-.88.785v.975h1.353V112.8h-1.353v5.986h-1.152Z" fill="#fff"/>
        <path id="Path_306" data-name="Path 306" d="M502.621,109.118h4.24a2.86,2.86,0,1,1,0,5.716h-2.953v3.954h-1.287Zm1.287,4.632h2.519c1.449.014,2.112-.623,2.112-1.775s-.663-1.774-2.112-1.774h-2.519Z" fill="#fff"/>
        <path id="Path_307" data-name="Path 307" d="M517,118.788h-1.083v-1.11h-.027a2.437,2.437,0,0,1-2.275,1.273c-1.842,0-2.411-1.057-2.411-2.56v-4.606h1.152v4.741a1.32,1.32,0,0,0,1.422,1.409,1.968,1.968,0,0,0,2.072-2.194v-3.956H517Z" fill="#fff"/>
        <path id="Path_308" data-name="Path 308" d="M518.8,109.118h1.15v9.67H518.8Z" fill="#fff"/>
        <path id="Path_309" data-name="Path 309" d="M522.443,116.581c.04,1.028.933,1.354,1.882,1.354.718,0,1.692-.162,1.692-1.044s-1.137-1.042-2.289-1.3-2.289-.635-2.289-1.977c0-1.409,1.395-1.991,2.614-1.991,1.545,0,2.777.487,2.872,2.194h-1.152c-.08-.893-.866-1.178-1.625-1.178-.69,0-1.489.19-1.489.895,0,.825,1.219.96,2.289,1.218,1.15.257,2.289.637,2.289,1.991,0,1.665-1.559,2.208-2.981,2.208-1.57,0-2.9-.636-2.965-2.37Z" fill="#fff"/>
        <path id="Path_310" data-name="Path 310" d="M534.48,116.568a2.823,2.823,0,0,1-2.992,2.383c-2.236,0-3.292-1.545-3.361-3.684a3.372,3.372,0,0,1,3.293-3.644c2.478,0,3.237,2.316,3.168,4.009h-5.241a2.063,2.063,0,0,0,2.181,2.3,1.688,1.688,0,0,0,1.815-1.367Zm-1.11-1.951a2.015,2.015,0,0,0-2.019-1.978,1.994,1.994,0,0,0-2,1.978Z" fill="#fff"/>
      </g>
    </g>
  </g>
</svg>
