<svg xmlns="http://www.w3.org/2000/svg" width="138" height="138" viewBox="0 0 138 138">
  <g id="icon-itw" transform="translate(-1396.609 -1354.333)">
    <circle id="Ellipse_257" data-name="Ellipse 257" cx="69" cy="69" r="69" transform="translate(1396.609 1354.333)" fill="#e94e78"/>
    <path id="Path_1014" data-name="Path 1014" d="M819.388-122.186a23.284,23.284,0,0,0-32.477-1.581,1.554,1.554,0,0,1-2.061,0,23.283,23.283,0,0,0-32.48,1.581,23.646,23.646,0,0,0,.983,32.7l27.957,27.957a6.461,6.461,0,0,0,9.135,0v0L818.4-89.484A23.643,23.643,0,0,0,819.388-122.186Zm-38.906,14.593h-7.856v16.477a2.551,2.551,0,0,1-2.554,2.554,2.553,2.553,0,0,1-2.554-2.554v-16.477h-7.856a2.553,2.553,0,0,1-2.554-2.554,2.553,2.553,0,0,1,2.554-2.554h20.819a2.555,2.555,0,0,1,2.554,2.554A2.555,2.555,0,0,1,780.482-107.594Zm30.439,16.776a2.507,2.507,0,0,1-.286.909c-.026.049-.071.082-.1.128a2.543,2.543,0,0,1-.516.613c-.016.015-.023.036-.041.048a2.45,2.45,0,0,1-.416.23,2.661,2.661,0,0,1-.3.166,2.578,2.578,0,0,1-.874.161,2.917,2.917,0,0,1-.3-.015,2.454,2.454,0,0,1-.475-.156,2.546,2.546,0,0,1-.388-.128,2.551,2.551,0,0,1-.789-.626c-.013-.015-.033-.018-.046-.036l-.008-.008,0,0-6.852-8.586-6.854,8.586,0,0-.008.008c-.013.018-.033.02-.046.036a2.49,2.49,0,0,1-.789.626,2.558,2.558,0,0,1-.388.128,2.462,2.462,0,0,1-.475.156,2.919,2.919,0,0,1-.3.015,2.552,2.552,0,0,1-.871-.161,2.08,2.08,0,0,1-.314-.174,2.309,2.309,0,0,1-.406-.222c-.018-.015-.023-.033-.038-.048a2.526,2.526,0,0,1-.526-.623c-.026-.043-.069-.074-.092-.117a2.513,2.513,0,0,1-.286-.909L785.9-109.849a2.552,2.552,0,0,1,2.24-2.835,2.564,2.564,0,0,1,2.832,2.237l1.522,12.956,5.039-6.311a2.259,2.259,0,0,1,.225-.189c.066-.066.1-.153.179-.215a2.094,2.094,0,0,1,.2-.1,2.626,2.626,0,0,1,.462-.238,2.537,2.537,0,0,1,.449-.14,2.379,2.379,0,0,1,.485-.038,2.524,2.524,0,0,1,.48.038,2.61,2.61,0,0,1,.449.14,2.611,2.611,0,0,1,.467.24c.061.043.135.054.194.1.074.061.11.146.176.212a2.308,2.308,0,0,1,.227.192l5.036,6.311,1.522-12.956a2.571,2.571,0,0,1,2.835-2.237,2.552,2.552,0,0,1,2.237,2.835Z" transform="translate(680.378 1520.775)" fill="#fff"/>
  </g>
</svg>
