<svg xmlns="http://www.w3.org/2000/svg" width="138.786" height="37.232" viewBox="0 0 138.786 37.232">
  <g id="jinmu-logo" transform="translate(-58.389 -81.912)">
    <g id="Group_3" data-name="Group 3">
      <path id="Path_262" data-name="Path 262" d="M105.814,109.838a.731.731,0,0,1,.717.717V115.5a3.926,3.926,0,0,1-.824,2.811,3.674,3.674,0,0,1-2.7.836,8.324,8.324,0,0,1-2.088-.239.845.845,0,0,1-.49-.333.965.965,0,0,1-.189-.585v-.729a.448.448,0,0,1,.208-.384.46.46,0,0,1,.446-.056,4.993,4.993,0,0,0,1.673.314,1.248,1.248,0,0,0,1.05-.428,2.426,2.426,0,0,0,.333-1.458v-4.691a.731.731,0,0,1,.717-.717Z" fill="#fff"/>
      <path id="Path_263" data-name="Path 263" d="M110.716,109.838a.731.731,0,0,1,.717.717V118.3a.731.731,0,0,1-.717.717h-1.333a.729.729,0,0,1-.716-.717v-7.746a.729.729,0,0,1,.716-.717Z" fill="#fff"/>
      <path id="Path_264" data-name="Path 264" d="M120.146,109.838a.729.729,0,0,1,.716.717V118.3a.729.729,0,0,1-.716.717h-.956a1.068,1.068,0,0,1-1.031-.641L115.983,114c0-.009,0-.013-.012-.013s-.013,0-.013.013v4.3a.729.729,0,0,1-.716.717h-.956a.731.731,0,0,1-.717-.717v-7.746a.731.731,0,0,1,.717-.717h.956a1.069,1.069,0,0,1,1.031.642l2.175,4.376c0,.008,0,.012.013.012a.011.011,0,0,0,.012-.012v-4.3a.731.731,0,0,1,.717-.717Z" fill="#fff"/>
      <path id="Path_265" data-name="Path 265" d="M131.336,109.838a.729.729,0,0,1,.716.717V118.3a.729.729,0,0,1-.716.717h-.918a.731.731,0,0,1-.717-.717V114c0-.009,0-.013-.013-.013s-.012,0-.012.013l-.918,2.464a1,1,0,0,1-.378.484,1.014,1.014,0,0,1-.591.183h-.578a1.013,1.013,0,0,1-.591-.183.993.993,0,0,1-.377-.484L125.325,114c0-.009,0-.013-.013-.013s-.012,0-.012.013v4.3a.731.731,0,0,1-.717.717h-.868A.731.731,0,0,1,123,118.3v-7.746a.731.731,0,0,1,.717-.717h1.119a1.014,1.014,0,0,1,.591.183.931.931,0,0,1,.365.484l1.7,4.728a.011.011,0,0,0,.012.013.012.012,0,0,0,.013-.013l1.7-4.728a.931.931,0,0,1,.365-.484,1.014,1.014,0,0,1,.591-.183Z" fill="#fff"/>
      <path id="Path_266" data-name="Path 266" d="M140.765,109.838a.731.731,0,0,1,.717.717v5.068a3.471,3.471,0,0,1-.931,2.641,4.631,4.631,0,0,1-5.432,0,3.467,3.467,0,0,1-.931-2.641v-5.068a.731.731,0,0,1,.717-.717h1.107a.729.729,0,0,1,.716.717v5.257a1.536,1.536,0,0,0,.265,1.024,1.419,1.419,0,0,0,1.735,0,1.542,1.542,0,0,0,.264-1.024v-5.257a.731.731,0,0,1,.717-.717Z" fill="#fff"/>
      <path id="Path_267" data-name="Path 267" d="M153.728,109.838a.729.729,0,0,1,.716.717V118.3a.729.729,0,0,1-.716.717h-1.082a.731.731,0,0,1-.717-.717v-2.942c0-.076-.033-.113-.1-.113h-2.05a.1.1,0,0,0-.113.113V118.3a.731.731,0,0,1-.717.717h-1.081a.731.731,0,0,1-.717-.717v-7.746a.731.731,0,0,1,.717-.717h1.081a.731.731,0,0,1,.717.717v2.691a.1.1,0,0,0,.113.113h2.05c.067,0,.1-.037.1-.113v-2.691a.731.731,0,0,1,.717-.717Z" fill="#fff"/>
      <path id="Path_268" data-name="Path 268" d="M161.9,109.838a.729.729,0,0,1,.716.717v.579a.728.728,0,0,1-.716.716h-2.692c-.075,0-.113.034-.113.1v1.3a.1.1,0,0,0,.113.113h2.44a.731.731,0,0,1,.717.717v.453a.731.731,0,0,1-.717.717h-2.44c-.075,0-.113.033-.113.1v1.547a.1.1,0,0,0,.113.113H161.9a.729.729,0,0,1,.716.717v.578a.729.729,0,0,1-.716.717h-4.6a.731.731,0,0,1-.717-.717v-7.746a.731.731,0,0,1,.717-.717Z" fill="#fff"/>
      <path id="Path_269" data-name="Path 269" d="M170.114,110.517l2.465,7.822a.5.5,0,0,1-.082.465.5.5,0,0,1-.421.214h-1.233a.873.873,0,0,1-.559-.195.831.831,0,0,1-.308-.5l-.214-.968a.119.119,0,0,0-.126-.1h-2.15c-.084,0-.13.033-.138.1l-.214.968a.836.836,0,0,1-.308.5.876.876,0,0,1-.56.195h-1.182a.5.5,0,0,1-.421-.214.5.5,0,0,1-.082-.465l2.465-7.822a.9.9,0,0,1,.346-.49.96.96,0,0,1,.584-.189h1.208a.946.946,0,0,1,.572.189A.981.981,0,0,1,170.114,110.517Zm-2.213,4.854h1.308a.1.1,0,0,0,.069-.031.064.064,0,0,0,.019-.069l-.73-2.955c0-.008,0-.013-.012-.013a.012.012,0,0,0-.013.013l-.729,2.955a.062.062,0,0,0,.019.069A.1.1,0,0,0,167.9,115.371Z" fill="#fff"/>
      <path id="Path_270" data-name="Path 270" d="M180.145,116.943a.731.731,0,0,1,.717.717v.641a.731.731,0,0,1-.717.717h-4.854a.731.731,0,0,1-.717-.717v-7.746a.731.731,0,0,1,.717-.717h1.144a.731.731,0,0,1,.717.717v6.275a.1.1,0,0,0,.113.113Z" fill="#fff"/>
      <path id="Path_271" data-name="Path 271" d="M187.051,109.838a.731.731,0,0,1,.717.717v.642a.729.729,0,0,1-.717.716h-1.534a.1.1,0,0,0-.113.113V118.3a.7.7,0,0,1-.208.5.666.666,0,0,1-.5.214h-1.157a.666.666,0,0,1-.5-.214.7.7,0,0,1-.207-.5v-6.275a.1.1,0,0,0-.114-.113h-1.534a.729.729,0,0,1-.717-.716v-.642a.731.731,0,0,1,.717-.717Z" fill="#fff"/>
      <path id="Path_272" data-name="Path 272" d="M195.934,109.838a.731.731,0,0,1,.717.717V118.3a.731.731,0,0,1-.717.717h-1.081a.731.731,0,0,1-.717-.717v-2.942c0-.076-.033-.113-.1-.113h-2.05a.1.1,0,0,0-.113.113V118.3a.731.731,0,0,1-.717.717h-1.081a.731.731,0,0,1-.717-.717v-7.746a.731.731,0,0,1,.717-.717h1.081a.731.731,0,0,1,.717.717v2.691a.1.1,0,0,0,.113.113h2.05c.067,0,.1-.037.1-.113v-2.691a.731.731,0,0,1,.717-.717Z" fill="#fff"/>
    </g>
    <g id="Group_4" data-name="Group 4">
      <path id="Path_273" data-name="Path 273" d="M116.232,97.992a.918.918,0,0,1,.476-.464.877.877,0,0,1,.671-.024l1.221.464a.623.623,0,0,1,.4.415.6.6,0,0,1-.085.586q-.171.269-.415.61-.586.9-1.025,1.538-.416.585-.781,1.025c-.049.049-.033.073.048.073h4.638a.874.874,0,0,1,.879.879v.781a.876.876,0,0,1-.879.879H102a.876.876,0,0,1-.879-.879v-.781a.874.874,0,0,1,.879-.879h3.9c.065,0,.09-.032.074-.1a14.714,14.714,0,0,0-1.563-3.222.652.652,0,0,1-.1-.6.659.659,0,0,1,.415-.451l1.367-.586a.031.031,0,0,0,0-.049h-2.856a.848.848,0,0,1-.623-.256.823.823,0,0,1-.256-.6v-.806a.876.876,0,0,1,.879-.879h6.615a.086.086,0,0,0,.1-.1v-2.27c0-.082-.033-.122-.1-.122h-3.613a.847.847,0,0,1-.622-.257.82.82,0,0,1-.257-.6v-.244c0-.081-.032-.1-.1-.049a28.519,28.519,0,0,1-2.881,1.831.844.844,0,0,1-.659.073.9.9,0,0,1-.537-.415,7.521,7.521,0,0,0-.805-1,.713.713,0,0,1-.147-.44v-.122a.6.6,0,0,1,.342-.464,26.434,26.434,0,0,0,5.077-3.588,24.036,24.036,0,0,0,3.735-4.1,1.57,1.57,0,0,1,1.343-.732h1.367a1.649,1.649,0,0,1,1.367.708,25.324,25.324,0,0,0,4.32,4.345,24.571,24.571,0,0,0,5.029,3.124.6.6,0,0,1,.366.44.46.46,0,0,1,.024.146.539.539,0,0,1-.171.391q-.439.561-.9,1.293a.861.861,0,0,1-.549.4.915.915,0,0,1-.671-.085q-1.539-.879-2.954-1.88c-.065-.049-.1-.04-.1.024v.342a.819.819,0,0,1-.256.6.847.847,0,0,1-.622.257h-3.808c-.066,0-.1.04-.1.122V94.55c0,.082.032.122.1.122h6.737a.847.847,0,0,1,.622.257.82.82,0,0,1,.257.6v.83a.82.82,0,0,1-.257.6.846.846,0,0,1-.622.256h-6.737c-.066,0-.1.041-.1.122v4.784a.086.086,0,0,0,.1.1h2.538a.031.031,0,0,0,0-.049l-.732-.293a.729.729,0,0,1-.415-.463.629.629,0,0,1,.1-.586A23.625,23.625,0,0,0,116.232,97.992Zm-6.273-.659c0-.081-.033-.122-.1-.122h-3.417c-.066,0-.074.033-.025.1a15.981,15.981,0,0,1,1.928,3.222.842.842,0,0,1-.024.659.9.9,0,0,1-.488.488l-1.147.488a.03.03,0,0,0,0,.049h3.173a.086.086,0,0,0,.1-.1Zm-2.734-7.811v.049q0,.024.048.024h8.788a.021.021,0,0,0,.024-.024.071.071,0,0,0-.024-.049,25.864,25.864,0,0,1-4.418-4.467q-.073-.1-.147,0A24.916,24.916,0,0,1,107.225,89.522Z" fill="#fff"/>
      <path id="Path_274" data-name="Path 274" d="M147.851,92.5a.855.855,0,0,1-.241.614.794.794,0,0,1-.6.253h-.53a.085.085,0,0,0-.1.1q-.121,3.371-.241,5.151a.085.085,0,0,0,.1.1h.337a.833.833,0,0,1,.614.253.805.805,0,0,1,.253.589v.939a.864.864,0,0,1-.867.867h-.6c-.081,0-.121.032-.121.1a5.949,5.949,0,0,1-.577,2.022,2.728,2.728,0,0,1-.831.962,3.336,3.336,0,0,1-1.119.434,7.973,7.973,0,0,1-1.709.144c-.16,0-.329-.008-.505-.024a.889.889,0,0,1-.614-.253,1.244,1.244,0,0,1-.373-.614,6.516,6.516,0,0,0-.265-.914.5.5,0,0,1,.073-.494.537.537,0,0,1,.457-.228q.817.072,1.54.072a.9.9,0,0,0,.482-.12,1.53,1.53,0,0,0,.577-.939.1.1,0,0,1,.024-.072q.024-.072-.072-.072H136.78c-.081,0-.121.032-.121.1v.12a.907.907,0,0,1-.313.59.828.828,0,0,1-.625.2l-1.107-.072a.792.792,0,0,1-.566-.289.758.758,0,0,1-.181-.625l.025-.241a.049.049,0,0,0-.013-.036q-.012-.012-.036.012l-1.035,1.372a.616.616,0,0,1-.505.24.593.593,0,0,1-.5-.264q-.555-.723-1.324-1.613c-.048-.048-.089-.04-.121.024a12.407,12.407,0,0,1-3.2,3.659.788.788,0,0,1-.625.12.818.818,0,0,1-.53-.361,10.745,10.745,0,0,0-.65-.939.659.659,0,0,1-.168-.565.752.752,0,0,1,.313-.518,9.248,9.248,0,0,0,2.864-3.466.133.133,0,0,0-.024-.168q-.338-.337-1.011-.963c-.048-.048-.081-.04-.1.024a.472.472,0,0,1-.289.349.447.447,0,0,1-.457-.036l-.867-.577a1.208,1.208,0,0,1-.481-.578,1.117,1.117,0,0,1-.049-.722q.675-3.177,1.252-6.547a.085.085,0,0,0-.1-.1h-.626a.807.807,0,0,1-.59-.253.835.835,0,0,1-.252-.613v-.891a.838.838,0,0,1,.252-.614.811.811,0,0,1,.59-.253h1.059q.12,0,.12-.1.266-1.589.578-3.923a.864.864,0,0,1,.313-.578.894.894,0,0,1,.578-.216h.072l.962.072a.746.746,0,0,1,.554.3.783.783,0,0,1,.168.614q-.12.7-.625,3.73-.024.1.1.1h1.42q1.4,0,1.661.025a.915.915,0,0,1,.565.3.883.883,0,0,1,.229.614,37.6,37.6,0,0,1-1.685,10.157.223.223,0,0,0,.048.193,24.008,24.008,0,0,1,2.167,2.43.064.064,0,0,0,.048.025c.015,0,.024-.016.024-.049q.408-3.441.674-7.1a.086.086,0,0,0-.1-.1h-.288a.864.864,0,0,1-.867-.867v-.89a.862.862,0,0,1,.867-.866h.457c.08,0,.12-.032.12-.1q.218-3.393.337-6.859a.779.779,0,0,1,.265-.6.872.872,0,0,1,.6-.241h9.723a.831.831,0,0,1,.59.241.727.727,0,0,1,.228.6v.6q-.1,5.222-.12,6.257a.085.085,0,0,0,.1.1h.458a.8.8,0,0,1,.6.252.856.856,0,0,1,.241.614ZM130.618,89.59q.024-.1-.1-.1h-1.516a.114.114,0,0,0-.121.1q-.434,2.408-.962,4.982a.166.166,0,0,0,.048.169q.168.12,1.42,1.2.072.072.12-.024A33.607,33.607,0,0,0,130.618,89.59Zm6.306,9.026a.085.085,0,0,0,.1.1h6.258a.106.106,0,0,0,.12-.12q.168-2.19.265-5.127a.085.085,0,0,0-.1-.1H137.43c-.081,0-.121.032-.121.1Q137.093,96.859,136.924,98.616Zm6.908-13c0-.08-.033-.12-.1-.12h-5.848c-.064,0-.1.04-.121.12q-.1,2.527-.264,5.03c-.017.065.015.1.1.1h6.041a.085.085,0,0,0,.1-.1Q143.807,87.208,143.832,85.619Zm-1.661,10.807a.762.762,0,0,1,.144.637.887.887,0,0,1-.385.566l-.577.385a.718.718,0,0,1-.6.12.821.821,0,0,1-.53-.361,21.4,21.4,0,0,0-1.708-2.19.709.709,0,0,1-.181-.577.647.647,0,0,1,.3-.506l.433-.265a1.035,1.035,0,0,1,1.324.121A16.29,16.29,0,0,1,142.171,96.426Zm-3.3-8.569a.708.708,0,0,1-.181-.577.633.633,0,0,1,.325-.506l.385-.24a1.066,1.066,0,0,1,1.348.12,14.042,14.042,0,0,1,1.564,1.829.88.88,0,0,1,.121.662.893.893,0,0,1-.385.566l-.53.336a.73.73,0,0,1-.614.109.868.868,0,0,1-.517-.373A19.187,19.187,0,0,0,138.874,87.857Z" fill="#fff"/>
      <path id="Path_275" data-name="Path 275" d="M158.915,90.6a8.752,8.752,0,0,1,1.54.1.807.807,0,0,1,.541.313.856.856,0,0,1,.181.6,28.942,28.942,0,0,1-1.685,8.135.125.125,0,0,0,.048.169,5.67,5.67,0,0,0,1.817,1.251,8.985,8.985,0,0,0,2.13.638,15.6,15.6,0,0,0,2.528.18q4.234,0,6.065-.024a.474.474,0,0,1,.433.241.519.519,0,0,1,.1.289.6.6,0,0,1-.048.217q-.192.48-.361,1.034a1.146,1.146,0,0,1-.385.6.992.992,0,0,1-.65.241H165.87a16.731,16.731,0,0,1-4.392-.506,7.674,7.674,0,0,1-3.189-1.732c-.048-.049-.089-.049-.121,0a10.466,10.466,0,0,1-1.66,1.973.637.637,0,0,1-.566.157.774.774,0,0,1-.517-.349,11.95,11.95,0,0,0-.867-1.156h-.06q-.036,0-.036.048v1.011a.831.831,0,0,1-.241.59.8.8,0,0,1-.6.253h-.842a.839.839,0,0,1-.614-.253.81.81,0,0,1-.252-.59V92.186a.022.022,0,0,0-.025-.024h-.048q-.432.673-.842,1.251a.411.411,0,0,1-.445.157.426.426,0,0,1-.349-.3q-.313-.867-.65-1.613a1.483,1.483,0,0,1-.144-.626,1.313,1.313,0,0,1,.288-.794,24.917,24.917,0,0,0,3.635-7.437.9.9,0,0,1,.433-.505.722.722,0,0,1,.385-.121.852.852,0,0,1,.265.048l.962.289a.811.811,0,0,1,.506.409.771.771,0,0,1,.048.65l-.072.193q-.024.12.072.12h2.647a.1.1,0,0,0,.073-.024,1.473,1.473,0,0,1,.746,0l.626.169a.77.77,0,0,1,.493.4.784.784,0,0,1,.06.613q-.939,2.479-2.19,5.464-.048.1.072.1Zm-4.4-3.393a.426.426,0,0,0-.048.192v14.995q0,.12.1.048a7.5,7.5,0,0,0,1.9-2.311.2.2,0,0,0,0-.192,18.633,18.633,0,0,1-1.541-4.212.826.826,0,0,1,.084-.662.959.959,0,0,1,.542-.421l.578-.145a.772.772,0,0,1,.625.072.822.822,0,0,1,.385.506,13.986,13.986,0,0,0,.578,1.9q0,.024.036.024t.036-.024a29.549,29.549,0,0,0,.819-4.139c.015-.081-.017-.121-.1-.121h-.962a.13.13,0,0,0-.145.1l-.072.145a.982.982,0,0,1-.481.5.952.952,0,0,1-.7.072l-.722-.144a.771.771,0,0,1-.47-.385.641.641,0,0,1-.012-.6q1.229-2.815,2.5-6.065.024-.1-.072-.1h-1.011a.794.794,0,0,1-.6-.253.855.855,0,0,1-.241-.614v-.5a.024.024,0,1,0-.048,0Q155.04,85.976,154.51,87.2Zm10.109-.1q.1,0,.1-.12V86.12a.085.085,0,0,0-.1-.1H162.5a.864.864,0,0,1-.867-.866v-.409a.8.8,0,0,1,.253-.6.859.859,0,0,1,.614-.241h2.118q.1,0,.1-.12v-.867a.805.805,0,0,1,.253-.589.832.832,0,0,1,.613-.253h.939a.863.863,0,0,1,.842.842v.867a.106.106,0,0,0,.121.12h3.2a.833.833,0,0,1,.59.241.8.8,0,0,1,.252.6v2.238a.106.106,0,0,0,.121.12h.24a.865.865,0,0,1,.843.843v.433a.839.839,0,0,1-.253.614.81.81,0,0,1-.59.252h-.24c-.081,0-.121.033-.121.1V91.68a.863.863,0,0,1-.842.843h-3.2a.106.106,0,0,0-.121.12v.939c0,.064.04.1.121.1h3.345a.807.807,0,0,1,.59.253.836.836,0,0,1,.253.613v.409a.865.865,0,0,1-.843.843h-3.345a.106.106,0,0,0-.121.12V96.9c0,.064.04.1.121.1h3.923a.862.862,0,0,1,.866.867v.409a.8.8,0,0,1-.252.6.859.859,0,0,1-.614.24h-3.923a.107.107,0,0,0-.121.121v1.275a.838.838,0,0,1-.252.614.807.807,0,0,1-.59.253h-.939a.864.864,0,0,1-.866-.867V99.238c0-.08-.032-.121-.1-.121h-3.033a.82.82,0,0,1-.842-.842v-.409a.86.86,0,0,1,.24-.614.8.8,0,0,1,.6-.253h3.033a.085.085,0,0,0,.1-.1v-.987q0-.12-.1-.12h-2.407a.835.835,0,0,1-.614-.253.81.81,0,0,1-.253-.59v-.409a.864.864,0,0,1,.867-.866h2.407a.085.085,0,0,0,.1-.1v-.939q0-.12-.1-.12H162.5a.837.837,0,0,1-.614-.253.807.807,0,0,1-.253-.59v-.433a.807.807,0,0,1,.253-.59.836.836,0,0,1,.614-.252h2.118c.064,0,.1-.04.1-.121v-.938a.086.086,0,0,0-.1-.1h-3.731A.81.81,0,0,1,160.3,89a.838.838,0,0,1-.252-.614V87.95a.863.863,0,0,1,.842-.843Zm4.452-.987c0-.063-.04-.1-.12-.1h-1.468c-.081,0-.121.033-.121.1v.867a.106.106,0,0,0,.121.12h1.468a.106.106,0,0,0,.12-.12Zm-.12,4.285a.106.106,0,0,0,.12-.121v-.938c0-.064-.04-.1-.12-.1h-1.468c-.081,0-.121.033-.121.1v.938a.107.107,0,0,0,.121.121Z" fill="#fff"/>
      <path id="Path_276" data-name="Path 276" d="M194.985,95.174a.8.8,0,0,1-.253.6.826.826,0,0,1-.59.241h-4.525q-.1,0-.048.12a11.09,11.09,0,0,0,1.276,2.19.106.106,0,0,0,.168.025,23.733,23.733,0,0,0,2.407-1.685,1.03,1.03,0,0,1,1.324,0l.818.65a.557.557,0,0,1,.217.5.594.594,0,0,1-.289.481q-1.517.963-2.888,1.685c-.064.033-.072.072-.024.12a11.143,11.143,0,0,0,3.394,1.9.543.543,0,0,1,.348.373.537.537,0,0,1-.108.517,12.009,12.009,0,0,0-.77,1.011.945.945,0,0,1-.542.421,1.047,1.047,0,0,1-.686-.012,12.374,12.374,0,0,1-5.367-4.6.024.024,0,0,0-.048,0v2.287a3.642,3.642,0,0,1-.289,1.637,1.955,1.955,0,0,1-1.011.866,10.309,10.309,0,0,1-3.514.409,1.015,1.015,0,0,1-.649-.229,1.229,1.229,0,0,1-.41-.589q-.192-.577-.481-1.228a.1.1,0,0,0-.144-.048l-1.8.819a.967.967,0,0,1-.686.036.926.926,0,0,1-.542-.446l-.481-.842a.661.661,0,0,1-.048-.6.648.648,0,0,1,.433-.409q1.661-.554,4.789-1.757a.719.719,0,0,1,.614.036.77.77,0,0,1,.4.494l.1.433a1.038,1.038,0,0,1-.061.71.926.926,0,0,1-.493.493q-.048.024-1.4.65c0,.033.008.048.024.048.61.033,1.123.048,1.541.048q.432,0,.722-.024a.649.649,0,0,0,.457-.12.568.568,0,0,0,.12-.409V96.136q0-.12-.1-.12h-4.669c-.017,0-.024.008-.024.024s.007.024.024.024a23.667,23.667,0,0,1,2.647,1.565.692.692,0,0,1,.289.541.726.726,0,0,1-.217.59l-.481.5a.9.9,0,0,1-.6.265.945.945,0,0,1-.65-.193,23.4,23.4,0,0,0-2.069-1.4.622.622,0,0,1-.325-.493.631.631,0,0,1,.18-.542l.867-.842v-.048a.309.309,0,0,1-.229-.084.278.278,0,0,1-.084-.205v-.794a.8.8,0,0,1,.252-.6.831.831,0,0,1,.59-.241h4.5c.064,0,.1-.039.1-.12v-.987q0-.12-.1-.12h-5.632a.827.827,0,0,1-.59-.241.8.8,0,0,1-.252-.6v-.337a.836.836,0,0,1,.252-.614.807.807,0,0,1,.59-.253h5.632a.085.085,0,0,0,.1-.1v-.915q0-.12-.1-.12h-4.212a.835.835,0,0,1-.614-.253.807.807,0,0,1-.253-.589V88.6a.864.864,0,0,1,.867-.867h4.212a.085.085,0,0,0,.1-.1v-.987q0-.12-.1-.12h-6.835a.106.106,0,0,0-.121.12V91.13q0,8.618-2.166,13.117a.566.566,0,0,1-.457.349.758.758,0,0,1-.6-.132q-.457-.337-.963-.65a.9.9,0,0,1-.409-.53.7.7,0,0,1-.048-.264.853.853,0,0,1,.1-.385,15.488,15.488,0,0,0,.963-2.72,20.138,20.138,0,0,0,.541-3.129q.157-1.637.217-2.864t.06-2.792V84.824a.829.829,0,0,1,.241-.59.8.8,0,0,1,.6-.252h7.846c.064,0,.1-.04.1-.121V82.754a.794.794,0,0,1,.253-.6.854.854,0,0,1,.614-.241h1.347a.826.826,0,0,1,.59.241.794.794,0,0,1,.253.6v1.107a.106.106,0,0,0,.12.121h7.919a.835.835,0,0,1,.613.252.809.809,0,0,1,.253.59v.867a.8.8,0,0,1-.253.589.832.832,0,0,1-.613.253H188.9q-.1,0-.1.12v.987a.085.085,0,0,0,.1.1h5.247a.81.81,0,0,1,.59.253.839.839,0,0,1,.253.614v2.118q0,.1.12.1h1.228a.805.805,0,0,1,.589.253.833.833,0,0,1,.253.614v.337a.794.794,0,0,1-.253.6.825.825,0,0,1-.589.241H195.1a.106.106,0,0,0-.12.12Zm-6.09-5.488q-.1,0-.1.12v.915a.085.085,0,0,0,.1.1h3.2a.085.085,0,0,0,.1-.1v-.915c0-.08-.033-.12-.1-.12Zm0,3.177q-.1,0-.1.12v.987c0,.081.032.12.1.12h3.2c.063,0,.1-.039.1-.12v-.987c0-.08-.033-.12-.1-.12Z" fill="#fff"/>
    </g>
    <path id="Path_277" data-name="Path 277" d="M69.778,119.144H64.694a6.315,6.315,0,0,1-5.07-2.475,6.127,6.127,0,0,1-1.021-5.3l1.183-4.412a2.314,2.314,0,0,1,2.836-1.638,2.381,2.381,0,0,1,1.619,2.909l-1.163,4.34a1.54,1.54,0,0,0,1.488,1.939h3.79a.344.344,0,0,0,.333-.255l5.979-22.339a2.316,2.316,0,0,1,4.475,1.2l-6.3,23.554A3.25,3.25,0,0,1,69.778,119.144Z" fill="#fff"/>
    <path id="Path_278" data-name="Path 278" d="M77.37,119.144a2.318,2.318,0,0,1-2.239-2.915l3.1-11.59a2.316,2.316,0,0,1,4.475,1.2l-3.095,11.59A2.316,2.316,0,0,1,77.37,119.144Z" fill="#fff"/>
    <path id="Path_279" data-name="Path 279" d="M84.324,119.144a2.35,2.35,0,0,1-.6-.079,2.316,2.316,0,0,1-1.639-2.836l3.094-11.59a2.316,2.316,0,0,1,4.475,1.2l-3.094,11.59A2.317,2.317,0,0,1,84.324,119.144Z" fill="#fff"/>
    <path id="Path_280" data-name="Path 280" d="M91.277,119.144a2.35,2.35,0,0,1-.6-.079,2.317,2.317,0,0,1-1.639-2.836l1.859-6.945a2.316,2.316,0,1,1,4.475,1.2l-1.859,6.945A2.317,2.317,0,0,1,91.277,119.144Z" fill="#fff"/>
    <path id="Path_281" data-name="Path 281" d="M74.834,102.562a2.294,2.294,0,0,1-.6-.079,10.376,10.376,0,1,1,9.846-2.511A2.31,2.31,0,0,1,80.9,96.625a5.758,5.758,0,1,0-9.536-5.656,5.686,5.686,0,0,0,.321,3.876,5.747,5.747,0,0,0,3.75,3.175,2.31,2.31,0,0,1-.6,4.542Z" fill="#fff"/>
  </g>
</svg>
