<svg xmlns="http://www.w3.org/2000/svg" width="400" height="57.013" viewBox="0 0 400 57.013">
  <g id="jinmu-slogan" transform="translate(-87.121 -394.522)">
    <g id="Group_21" data-name="Group 21" transform="translate(87.121 409.835)">
      <path id="Path_324" data-name="Path 324" d="M99.775,408.737v2.443h7.487v2.512h-3.707l2.346.846c-.82,1.314-1.736,2.721-2.466,3.73h5.048v2.562H88.176v-2.562H92.8a19.638,19.638,0,0,0-1.951-3.8l1.855-.773H89.3V411.18h7.467v-2.443H92v-1.148q-1.478.7-3.03,1.264a10.113,10.113,0,0,0-1.852-2.582c4.414-1.268,8.639-3.637,10.869-7.135l2.652,1.195c-.209.305-.421.611-.657.939a26.028,26.028,0,0,0,9.628,5,13.551,13.551,0,0,0-1.925,2.443,31.009,31.009,0,0,1-3.193-1.361v1.384Zm-6.551,4.955a15.909,15.909,0,0,1,2.041,3.734l-1.925.843h3.428v-4.577Zm9.2-7.514a26.9,26.9,0,0,1-4.062-3.053,20.72,20.72,0,0,1-3.8,3.053Zm-2.652,7.514v4.577h2.934l-1.573-.657a21.623,21.623,0,0,0,2.068-3.919Z" transform="translate(-87.121 -399.136)" fill="#fff"/>
      <path id="Path_325" data-name="Path 325" d="M102.338,406.143a23.068,23.068,0,0,1-1.689,8.662c.866.916,1.643,1.785,2.18,2.466l-1.643,2.137c-.445-.657-1.079-1.434-1.782-2.277a16.154,16.154,0,0,1-3.4,3.707,8.042,8.042,0,0,0-1.739-1.713,14.087,14.087,0,0,0,3.451-3.826c-1.055-1.128-2.16-2.253-3.123-3.193.4-1.5.8-3.451,1.128-5.519l-1.221.073-.259-2.512,1.855-.073c.236-1.666.4-3.332.495-4.812l2.37.093c-.116,1.434-.305,3.03-.514,4.6l1.6-.093v-1.457h2.3v1.314l1.032-.047-.023,2.4Zm-4.275.305c-.305,1.736-.611,3.4-.939,4.882.541.541,1.128,1.105,1.716,1.669a20,20,0,0,0,1.175-6.694Zm16.929,3.428c-.07,2.041-.139,3.707-.236,5h1.082v2.512h-1.314a6.062,6.062,0,0,1-.587,2.088,2.466,2.466,0,0,1-1.855,1.314,15.573,15.573,0,0,1-2.887.1,5.926,5.926,0,0,0-.73-2.419c.986.093,1.785.093,2.28.093a.8.8,0,0,0,.82-.491,1.788,1.788,0,0,0,.259-.68h-6.76v-.026h-1.928c.259-2.041.541-4.67.753-7.487h-1.175v-2.489h1.337c.166-2.535.305-5.117.378-7.4H115.2s-.023,1.036-.023,1.364c-.046,2.3-.1,4.271-.119,6.033h1.245v2.489Zm-2.841,5c.093-1.245.189-2.891.259-5H106.47c-.139,1.759-.259,3.5-.4,5Zm-5.26-12.445c-.093,1.6-.186,3.309-.282,4.955h5.871c.023-1.457.046-3.123.093-4.955Zm2.7,12.21a33.766,33.766,0,0,0-2.582-3.382l1.782-1.128a27.849,27.849,0,0,1,2.678,3.2Zm-.352-11.811a28.72,28.72,0,0,1,2.466,2.984l-1.878,1.245a31.34,31.34,0,0,0-2.373-3.123Z" transform="translate(-70.621 -398.841)" fill="#fff"/>
      <path id="Path_326" data-name="Path 326" d="M112.984,407.762a29.046,29.046,0,0,1-1.666,8.5c1.9,1.736,4.46,2.18,7.278,2.18.823.027,3.78,0,4.812-.023a8.147,8.147,0,0,0-.773,2.28h-4.228c-3.216,0-5.964-.518-8.1-2.35a9.316,9.316,0,0,1-2.559,2.748,7.6,7.6,0,0,0-1.739-1.62v1.62h-2.443V409.285q-.528.812-1.055,1.48a16.162,16.162,0,0,0-1.245-3,24.3,24.3,0,0,0,3.9-8.5l2.489.7-.209.727h5.33c-.73,2.184-1.623,4.743-2.4,6.857h.773l.425-.047Zm-6.973,11.669a8.5,8.5,0,0,0,2.7-2.891,14.906,14.906,0,0,1-1.951-4.294l1.951-.73a12.968,12.968,0,0,0,1.009,2.632,24.709,24.709,0,0,0,.87-4.484h-3.525a64.169,64.169,0,0,0,2.419-6.6H107.4v-2.253a35.307,35.307,0,0,1-1.384,3.8Zm10.165-16.461h-2.536v-1.995h2.536v-1.762h2.3v1.762h3.378v3.076H123.2v2.018h-1.341v3.123H118.48v1.055h3.637v2.184H118.48v1.128h4.271v2.16H118.48v2.087h-2.3V415.72h-3.239v-2.16h3.239v-1.128h-2.771v-2.184h2.771v-1.055h-2.536V407.2h2.536v-1.128h-3.544v-2.018h3.544Zm2.3,0v1.082h1.291V402.97Zm1.291,3.1H118.48V407.2h1.291Z" transform="translate(-54.316 -398.957)" fill="#fff"/>
      <path id="Path_327" data-name="Path 327" d="M128.348,412.806h-.87l1.855,1.48c-1.082.727-2.277,1.454-3.335,2.018,1.6.7,3.193,1.457,4.2,2l-1.268,1.948c-1.434-.823-4.016-2.114-6.316-3.123v1.5c0,1.384-.355,1.971-1.294,2.346a13.474,13.474,0,0,1-4.248.375,9.246,9.246,0,0,0-.87-2.277c1.175.046,2.609.046,3.007.023.421,0,.564-.139.564-.518v-1.5c-2.161.986-4.414,2.018-6.2,2.818l-1.032-2.28c1.079-.375,2.536-.916,4.155-1.523-.777-.587-2.137-1.48-3.123-2.114l1.125-1.175h-.514v-1.878h5.589v-1.291H113.51v-1.925h6.269v-1.2h-5.33v-1.878h5.33v-.986h-6.717v4.344c0,3.827-.352,9.578-2.439,13.219a10.352,10.352,0,0,0-2.28-1.5c1.925-3.382,2.068-8.24,2.068-11.715v-6.787h8.874a12.777,12.777,0,0,0-.7-1.384l2.794-.68a22.3,22.3,0,0,1,1.148,2.064h7.656v2.442h-7.56v.986h5.728v2.841h2.064v2.373h-2.064Zm-8.569,2.114v-2.114h-4.135a30.244,30.244,0,0,1,2.771,1.739l-1.245,1.384Zm2.841-7.208h3.1v-1.2h-3.1Zm0,3.216h3.1v-1.291h-3.1Zm.986,4.391a25.763,25.763,0,0,0,3.475-2.512h-4.46v2.114Z" transform="translate(-37.913 -399.12)" fill="#fff"/>
      <path id="Path_328" data-name="Path 328" d="M123.372,414.194a25.459,25.459,0,0,0-1.41-2.582v9.531h-2.7V412.69a22.065,22.065,0,0,1-2.559,4.649,15.206,15.206,0,0,0-1.294-2.652,21.923,21.923,0,0,0,3.475-6.292h-3.169v-2.609h3.548v-2.652c-.916.139-1.785.282-2.655.375a8.409,8.409,0,0,0-.75-2.16,35.666,35.666,0,0,0,7.56-1.925l1.573,2.277a21.052,21.052,0,0,1-3.03.869v3.216h3.1V408.4h-3.1v.186c.68.657,2.605,2.864,3.053,3.405Zm11.572,1.009v5.917H132.2V415.7l-7.092,1.221-.445-2.655,7.537-1.291v-13.76h2.745V412.5l2.326-.4.445,2.608Zm-5.891-3.262a21.256,21.256,0,0,0-3.734-3.591l1.782-1.6a20.715,20.715,0,0,1,3.853,3.405Zm.611-6.2a17.554,17.554,0,0,0-3.5-3.521l1.832-1.6a18.665,18.665,0,0,1,3.617,3.382Z" transform="translate(-21.526 -398.957)" fill="#fff"/>
      <path id="Path_329" data-name="Path 329" d="M130.814,411.767c-.82.236-1.666.471-2.512.68v5.612c0,1.364-.256,2.021-1.055,2.466a7.822,7.822,0,0,1-3.544.495,12.209,12.209,0,0,0-.8-2.535c.916.023,1.878.023,2.184.023.352,0,.448-.12.448-.471V413.2l-2.28.564-.727-2.655c.87-.163,1.878-.4,3.007-.68v-4.155h-2.7v-2.582h2.7v-4.464H128.3v4.464h2.3v2.582h-2.3v3.475l2.16-.541Zm13.009-3.169a17.169,17.169,0,0,1-4.367,7.8,15.836,15.836,0,0,0,5.423,2.369,12.3,12.3,0,0,0-1.785,2.419,16.727,16.727,0,0,1-5.844-2.957,21.636,21.636,0,0,1-6.176,2.887,11.456,11.456,0,0,0-1.5-2.536,18.148,18.148,0,0,0,5.612-2.3,18.569,18.569,0,0,1-3.332-5.589l.7-.212h-1.221v-2.512h4.626v-2.818H130.91v-2.582h5.048v-3.358h2.768v3.358h5.26v2.582h-5.26v2.818h2.818l.494-.116Zm-9.253,1.878a13.364,13.364,0,0,0,2.771,4.155,13.033,13.033,0,0,0,2.934-4.155Z" transform="translate(-5.024 -398.974)" fill="#fff"/>
    </g>
    <g id="Group_22" data-name="Group 22" transform="translate(239.481 410.02)">
      <path id="Path_330" data-name="Path 330" d="M138.592,402.081a34.954,34.954,0,0,1-1.241,4.673h4.387v10.8h-4.484v1.716h-2.323v-7.3c-.305.448-.634.893-.962,1.291a15.658,15.658,0,0,0-.939-3.332,19.73,19.73,0,0,0,2.98-7.842h-2.489v-2.536h8.523v2.536Zm.777,7.139h-2.114v5.868h2.114Zm15.777,1.407H152.68v9.767h-2.652v-9.767H147.35c-.139,3.451-.82,7.374-3.239,9.933A11.176,11.176,0,0,0,142,418.941c2.021-2.184,2.609-5.449,2.748-8.313h-2.184V408h2.23v-5.8h-1.62v-2.582h11.506V402.2h-2V408h2.466ZM150.029,408v-5.8H147.4V408Z" transform="translate(-133.03 -398.371)" fill="#fff"/>
      <path id="Path_331" data-name="Path 331" d="M158.861,418.046c.541,0,.634-.421.73-3.335a8.537,8.537,0,0,0,2.628,1.2c-.282,3.853-1.009,4.885-3.053,4.885h-2.184c-2.3,0-3.027-.823-3.027-3.571V414.2h-3.076c-.587,2.748-2.628,5.589-8.712,7.158a13.518,13.518,0,0,0-1.971-2.393c4.859-1.221,6.833-2.98,7.537-4.766h-5.751v-2.582h6.15v-2.585h2.96v2.585h5.8V417.2c0,.753.093.846.634.846Zm-15.024-11.927h-2.818v-4.789h8.569c-.166-.587-.329-1.175-.495-1.666l2.937-.471c.232.657.514,1.434.727,2.137H161.3v4.576h-2.934v-2.064h-3.312v3c0,.614.093.87.7.87H158.6a9.017,9.017,0,0,0,2.044-.186c.07.75.139,1.689.236,2.346a8.995,8.995,0,0,1-2.161.189h-3.169c-2.655,0-3.289-.939-3.289-3.239v-2.984h-2.416c-.448,3.335-1.786,5.33-7.162,6.455a6.752,6.752,0,0,0-1.457-2.277c4.437-.727,5.353-1.971,5.7-4.178h-3.1Z" transform="translate(-116.414 -399.192)" fill="#fff"/>
    </g>
    <path id="Path_332" data-name="Path 332" d="M216.523,441.282h-8.629a1.127,1.127,0,1,1,0-2.253h8.629a6.736,6.736,0,0,0,6.727-6.73V404.726a6.736,6.736,0,0,0-6.727-6.73H201.077a1.127,1.127,0,1,1,0-2.253h15.445a8.992,8.992,0,0,1,8.981,8.984V432.3A8.994,8.994,0,0,1,216.523,441.282Z" transform="translate(261.618 2.829)" fill="#fff"/>
    <path id="Path_333" data-name="Path 333" d="M286.9,441.282H159.709a9,9,0,0,1-8.984-8.984V404.726a8.995,8.995,0,0,1,8.984-8.984H286.315a1.127,1.127,0,1,1,0,2.253H159.709a6.739,6.739,0,0,0-6.73,6.73V432.3a6.739,6.739,0,0,0,6.73,6.73H286.9a1.127,1.127,0,1,1,0,2.253Z" transform="translate(147.481 2.829)" fill="#fff"/>
    <g id="Group_23" data-name="Group 23" transform="translate(316.249 409.762)">
      <path id="Path_334" data-name="Path 334" d="M167.877,407.762a29.048,29.048,0,0,1-1.666,8.5c1.9,1.736,4.46,2.18,7.278,2.18.823.027,3.78,0,4.812-.023a8.146,8.146,0,0,0-.773,2.28H173.3c-3.219,0-5.964-.518-8.1-2.35a9.316,9.316,0,0,1-2.559,2.748,7.529,7.529,0,0,0-1.739-1.62v1.62h-2.443V409.285q-.528.812-1.055,1.48a16.158,16.158,0,0,0-1.245-3,24.3,24.3,0,0,0,3.9-8.5l2.489.7-.209.727h5.33c-.73,2.184-1.623,4.743-2.4,6.857h.773l.425-.047ZM160.9,419.431a8.469,8.469,0,0,0,2.7-2.891,14.819,14.819,0,0,1-1.948-4.294l1.948-.73a13.167,13.167,0,0,0,1.009,2.632,24.705,24.705,0,0,0,.869-4.484H161.96a64.148,64.148,0,0,0,2.419-6.6h-2.087v-2.253a36.058,36.058,0,0,1-1.387,3.8ZM171.07,402.97h-2.536v-1.995h2.536v-1.762h2.3v1.762h3.382v3.076h1.337v2.018h-1.337v3.123h-3.382v1.055h3.637v2.184h-3.637v1.128h4.271v2.16h-4.271v2.087h-2.3V415.72h-3.239v-2.16h3.239v-1.128H168.3v-2.184h2.768v-1.055h-2.536V407.2h2.536v-1.128h-3.544v-2.018h3.544Zm2.3,0v1.082h1.291V402.97Zm1.291,3.1h-1.291V407.2h1.291Z" transform="translate(-156.162 -398.884)" fill="#fff"/>
      <path id="Path_335" data-name="Path 335" d="M183.241,412.806h-.87l1.855,1.48c-1.082.727-2.277,1.454-3.335,2.018,1.6.7,3.193,1.457,4.2,2l-1.268,1.948c-1.434-.823-4.016-2.114-6.316-3.123v1.5c0,1.384-.352,1.971-1.291,2.346a13.509,13.509,0,0,1-4.251.375,9.246,9.246,0,0,0-.87-2.277c1.175.046,2.609.046,3.007.023.422,0,.564-.139.564-.518v-1.5c-2.161.986-4.414,2.018-6.2,2.818l-1.032-2.28c1.079-.375,2.535-.916,4.155-1.523-.777-.587-2.137-1.48-3.123-2.114l1.125-1.175h-.514v-1.878h5.589v-1.291H168.4v-1.925h6.269v-1.2h-5.33v-1.878h5.33v-.986h-6.717v4.344c0,3.827-.352,9.578-2.439,13.219a10.353,10.353,0,0,0-2.28-1.5c1.925-3.382,2.068-8.24,2.068-11.715v-6.787h8.874a12.8,12.8,0,0,0-.7-1.384l2.794-.68a22.281,22.281,0,0,1,1.148,2.064h7.656v2.442h-7.56v.986h5.728v2.841h2.064v2.373h-2.064Zm-8.569,2.114v-2.114h-4.135a30.252,30.252,0,0,1,2.771,1.739l-1.244,1.384Zm2.841-7.208h3.1v-1.2h-3.1Zm0,3.216h3.1v-1.291h-3.1Zm.986,4.391a25.768,25.768,0,0,0,3.475-2.512h-4.46v2.114Z" transform="translate(-139.759 -399.047)" fill="#fff"/>
      <path id="Path_336" data-name="Path 336" d="M191.012,402.83s0,.939-.023,1.268c-.305,10.494-.564,14.227-1.527,15.472a3.121,3.121,0,0,1-2.253,1.291,26.092,26.092,0,0,1-3.687.047,6.543,6.543,0,0,0-.916-2.721c1.5.139,2.887.139,3.5.139a1.254,1.254,0,0,0,1.035-.4c.68-.753.986-4.274,1.245-12.561h-5.025a20.36,20.36,0,0,1-2.068,3.71,17.272,17.272,0,0,0-1.809-1.314v10.962h-6.269v1.716h-2.536V402.993h2.655a24.943,24.943,0,0,0,.68-3.78l3.053.425c-.4,1.175-.823,2.346-1.221,3.355h3.637v3.8a24.214,24.214,0,0,0,3.169-7.557l2.655.607a27.324,27.324,0,0,1-.916,2.984Zm-14.065,2.605h-3.734v3.8h3.734Zm0,10.826v-4.6h-3.734v4.6Zm7.8-1.268a50.53,50.53,0,0,0-3.262-5.426l2.184-1.245a57.739,57.739,0,0,1,3.451,5.214Z" transform="translate(-122.503 -398.884)" fill="#fff"/>
      <path id="Path_337" data-name="Path 337" d="M184.5,414.587c-.232-.634-.657-1.527-1.079-2.443v9.064h-2.582v-7.7a19.535,19.535,0,0,1-2.091,4.036,15.886,15.886,0,0,0-1.361-2.745,22.934,22.934,0,0,0,3.169-6.292h-2.535V405.9h2.818v-2.844c-.707.143-1.387.259-2.068.352a9.742,9.742,0,0,0-.773-2.134A31.147,31.147,0,0,0,184.4,399.4l1.62,2.253a16.2,16.2,0,0,1-2.605.823V405.9h2.512v2.605h-2.512v.328c.495.587,1.855,2.37,2.466,3.216a35.4,35.4,0,0,0,.916-5.894l2.064.471a34.635,34.635,0,0,1-1.268,7.63l-2.184-.727c.046-.143.119-.282.166-.448Zm10.5,3.85c.68,0,.82-.564.916-3.216a8.119,8.119,0,0,0,2.393,1.055c-.282,3.5-.986,4.626-3.073,4.626h-2.678c-2.018,0-2.818-.587-3.007-2.37a29.118,29.118,0,0,1-2.416,2.111,18.777,18.777,0,0,0-2.253-1.925,22.714,22.714,0,0,0,4.6-4.271V404.82h2.678v5.612a41.611,41.611,0,0,0,3.661-9.7l2.678.564a60.985,60.985,0,0,1-2.207,6.6l1.384-.375a38,38,0,0,1,1.995,6.737l-2.536.75a35.912,35.912,0,0,0-1.454-5.682,37.932,37.932,0,0,1-3.521,6.13v1.832c0,.986.093,1.148.82,1.148Zm-1.9-13.783a46.212,46.212,0,0,0-4.275-3.568l1.716-1.9a50.894,50.894,0,0,1,4.341,3.289Z" transform="translate(-106.952 -398.949)" fill="#fff"/>
      <path id="Path_338" data-name="Path 338" d="M194.387,412.92a6.081,6.081,0,0,1-2.725-.421,42.8,42.8,0,0,1-5.562,1.994,16.2,16.2,0,0,0-1.6-2.277,35.233,35.233,0,0,0,6.106-1.948v-4.251h2.512v3.1a20.016,20.016,0,0,0,6.408-4.905l2.323,1.148a24,24,0,0,1-6.667,5.4h3.359c1.032,0,1.221-.305,1.314-2.18a7.335,7.335,0,0,0,2.23.866c-.282,2.794-1.009,3.475-3.332,3.475Zm-4.391-5.7a13,13,0,0,1-2.984,4.251L184.76,410.1a10.906,10.906,0,0,0,2.984-3.9Zm-1.785-1.1H185.49v-4.932h8.639a10.2,10.2,0,0,0-.494-1.6l2.7-.471a20.9,20.9,0,0,1,.727,2.068h8.572v4.932h-2.867v-2.443H193.73a15.6,15.6,0,0,1,3.382,1.809l-1.41,1.782a16.649,16.649,0,0,0-4.039-2.253l1.082-1.337h-4.533Zm12.867,8.1h2.794v7.046h-2.794v-.777H187.342v-5.891h2.748v3.286h3.992v-4.414h2.841v4.414h4.155Zm1.55-7.842A24.087,24.087,0,0,1,206.5,410.5l-2.137,1.477a25.252,25.252,0,0,0-3.707-4.294Z" transform="translate(-90.451 -399.114)" fill="#fff"/>
    </g>
    <g id="Group_28" data-name="Group 28" transform="translate(434.018 394.522)">
      <path id="Path_339" data-name="Path 339" d="M202.972,409.037a1.126,1.126,0,0,1-1.125-1.125v-3.345a1.5,1.5,0,0,0-3,0v3.345a1.127,1.127,0,0,1-2.253,0v-3.345a3.752,3.752,0,0,1,7.5,0v3.345A1.127,1.127,0,0,1,202.972,409.037Z" transform="translate(-180.173 -379.926)" fill="#fff"/>
      <path id="Path_340" data-name="Path 340" d="M204.554,409.553a1.127,1.127,0,0,1-1.128-1.128v-3.342a1.5,1.5,0,1,0-2.993,0v1.633a1.127,1.127,0,0,1-2.253,0v-1.633a3.75,3.75,0,1,1,7.5,0v3.342A1.127,1.127,0,0,1,204.554,409.553Z" transform="translate(-176.504 -378.729)" fill="#fff"/>
      <path id="Path_341" data-name="Path 341" d="M202.743,437.061a1.124,1.124,0,0,1-.9-.448l-9.063-11.967a4.913,4.913,0,0,1,6.7-7.016l.053.036,2.018,1.573V401.787a4.226,4.226,0,0,1,8.453,0V415.46a1.127,1.127,0,0,1-2.253,0V401.787a1.973,1.973,0,0,0-3.946,0v19.757a1.127,1.127,0,0,1-1.819.889l-3.807-2.964a2.661,2.661,0,0,0-3.6,3.816l9.063,11.967a1.129,1.129,0,0,1-.9,1.809Z" transform="translate(-191.326 -387.473)" fill="#fff"/>
      <path id="Path_342" data-name="Path 342" d="M202.428,427.121a1.129,1.129,0,0,1-.916-1.782l1.882-2.632a8.617,8.617,0,0,0,1.616-5.034V405.6a1.5,1.5,0,0,0-3,0v1.63a1.127,1.127,0,1,1-2.253,0V405.6a3.752,3.752,0,0,1,7.5,0v12.074a10.849,10.849,0,0,1-2.034,6.345l-1.882,2.632A1.137,1.137,0,0,1,202.428,427.121Z" transform="translate(-172.838 -377.533)" fill="#fff"/>
      <path id="Path_343" data-name="Path 343" d="M213.958,418.462H198.625a4.458,4.458,0,0,1-4.45-4.454v-.773a4.455,4.455,0,0,1,4.45-4.45H205.2a1.127,1.127,0,0,1,0,2.253h-6.571a2.2,2.2,0,0,0-2.2,2.2v.773a2.2,2.2,0,0,0,2.2,2.2h15.333a2.2,2.2,0,0,0,2.2-2.2v-.773a2.2,2.2,0,0,0-2.2-2.2,1.127,1.127,0,1,1,0-2.253,4.455,4.455,0,0,1,4.45,4.45v.773A4.458,4.458,0,0,1,213.958,418.462Z" transform="translate(-185.788 -361.45)" fill="#fff"/>
      <g id="Group_24" data-name="Group 24" transform="translate(0 13.467)">
        <path id="Path_344" data-name="Path 344" d="M198.046,400.833h-5.273a1.127,1.127,0,0,1,0-2.254h5.273a1.127,1.127,0,0,1,0,2.254Z" transform="translate(-191.648 -398.58)" fill="#fff"/>
        <path id="Path_345" data-name="Path 345" d="M204.574,400.833H199.3a1.127,1.127,0,1,1,0-2.254h5.27a1.127,1.127,0,1,1,0,2.254Z" transform="translate(-176.514 -398.58)" fill="#fff"/>
      </g>
      <g id="Group_25" data-name="Group 25" transform="translate(13.467)">
        <path id="Path_346" data-name="Path 346" d="M196.831,402.049a1.127,1.127,0,0,1-1.125-1.128v-5.27a1.127,1.127,0,1,1,2.253,0v5.27A1.127,1.127,0,0,1,196.831,402.049Z" transform="translate(-195.706 -394.522)" fill="#fff"/>
      </g>
      <g id="Group_26" data-name="Group 26" transform="translate(19.262 3.946)">
        <path id="Path_347" data-name="Path 347" d="M198.577,401.691a1.125,1.125,0,0,1-.8-1.922l3.73-3.73a1.128,1.128,0,0,1,1.593,1.6l-3.73,3.727A1.123,1.123,0,0,1,198.577,401.691Z" transform="translate(-197.452 -395.711)" fill="#fff"/>
      </g>
      <g id="Group_27" data-name="Group 27" transform="translate(3.943 3.946)">
        <path id="Path_348" data-name="Path 348" d="M197.691,401.691a1.123,1.123,0,0,1-.8-.328l-3.727-3.727a1.128,1.128,0,0,1,1.593-1.6l3.727,3.73a1.125,1.125,0,0,1-.8,1.922Z" transform="translate(-192.836 -395.711)" fill="#fff"/>
      </g>
    </g>
    <g id="Group_29" data-name="Group 29" transform="translate(437.111 441.856)">
      <path id="Path_349" data-name="Path 349" d="M193.733,411.036a1.118,1.118,0,0,1-.428-.083,1.158,1.158,0,0,1-.7-1.042,1.627,1.627,0,0,1,.023-.219,1.362,1.362,0,0,1,.07-.216,1.034,1.034,0,0,1,.1-.189.883.883,0,0,1,.143-.169,1.121,1.121,0,0,1,1.012-.312,1.012,1.012,0,0,1,.216.063.709.709,0,0,1,.189.106.8.8,0,0,1,.176.143,1.183,1.183,0,0,1,.139.169,1.04,1.04,0,0,1,.1.189,1.332,1.332,0,0,1,.063.216.977.977,0,0,1,.02.219,1.093,1.093,0,0,1-.325.793A1.114,1.114,0,0,1,193.733,411.036Z" transform="translate(-192.522 -408.785)" fill="#fff"/>
      <path id="Path_350" data-name="Path 350" d="M193.705,411.035a1.133,1.133,0,0,1-1.125-1.125.981.981,0,0,1,.023-.219,1.792,1.792,0,0,1,.066-.216,1.29,1.29,0,0,1,.1-.189,1,1,0,0,1,.139-.169.778.778,0,0,1,.169-.143.865.865,0,0,1,.2-.106.951.951,0,0,1,.209-.063,1.239,1.239,0,0,1,.441,0,.925.925,0,0,1,.212.063.779.779,0,0,1,.193.106.9.9,0,0,1,.176.143,1.462,1.462,0,0,1,.139.169,1.281,1.281,0,0,1,.1.189,1.05,1.05,0,0,1,.06.216.981.981,0,0,1,.023.219.941.941,0,0,1-.023.219,1,1,0,0,1-.06.216,1.293,1.293,0,0,1-.1.189,1.476,1.476,0,0,1-.139.169A1.121,1.121,0,0,1,193.705,411.035Z" transform="translate(-192.58 -408.784)" fill="#fff"/>
    </g>
    <g id="Group_30" data-name="Group 30" transform="translate(457.05 441.87)">
      <path id="Path_351" data-name="Path 351" d="M199.741,411.026a1.12,1.12,0,0,1-.793-1.918,1.147,1.147,0,0,1,1.586,0,1.125,1.125,0,0,1-.793,1.918Z" transform="translate(-198.53 -408.789)" fill="#fff"/>
      <path id="Path_352" data-name="Path 352" d="M199.716,411.026a1.108,1.108,0,0,1-.8-.332,1.122,1.122,0,0,1,0-1.586,1.155,1.155,0,0,1,1.593,0,1.12,1.12,0,0,1,.332.793,1.133,1.133,0,0,1-1.125,1.125Z" transform="translate(-198.588 -408.789)" fill="#fff"/>
    </g>
  </g>
</svg>
