<svg xmlns="http://www.w3.org/2000/svg" width="208" height="208" viewBox="0 0 208 208">
  <g id="qrcode-app" transform="translate(-1261.5 -2418)">
    <g id="Group_33" data-name="Group 33" transform="translate(1261 2418)">
      <rect id="Rectangle_1238" data-name="Rectangle 1238" width="208" height="208" transform="translate(0.5)" fill="#fff"/>
      <g id="onlink_to_9dsj92" transform="translate(12.503 11.366)">
        <rect id="Rectangle_900" data-name="Rectangle 900" width="6" height="7" transform="translate(-0.003 -0.366)"/>
        <rect id="Rectangle_901" data-name="Rectangle 901" width="7" height="7" transform="translate(5.997 -0.366)"/>
        <rect id="Rectangle_902" data-name="Rectangle 902" width="6" height="7" transform="translate(12.997 -0.366)"/>
        <rect id="Rectangle_903" data-name="Rectangle 903" width="7" height="7" transform="translate(18.997 -0.366)"/>
        <rect id="Rectangle_904" data-name="Rectangle 904" width="9" height="7" transform="translate(25.997 -0.366)"/>
        <rect id="Rectangle_905" data-name="Rectangle 905" width="6" height="7" transform="translate(34.997 -0.366)"/>
        <rect id="Rectangle_906" data-name="Rectangle 906" width="9" height="7" transform="translate(40.997 -0.366)"/>
        <rect id="Rectangle_907" data-name="Rectangle 907" width="9" height="7" transform="translate(71.997 -0.366)"/>
        <rect id="Rectangle_908" data-name="Rectangle 908" width="7" height="7" transform="translate(93.997 -0.366)"/>
        <rect id="Rectangle_909" data-name="Rectangle 909" width="9" height="7" transform="translate(100.997 -0.366)"/>
        <rect id="Rectangle_910" data-name="Rectangle 910" width="7" height="7" transform="translate(109.997 -0.366)"/>
        <rect id="Rectangle_911" data-name="Rectangle 911" width="8" height="7" transform="translate(116.997 -0.366)"/>
        <rect id="Rectangle_912" data-name="Rectangle 912" width="6" height="7" transform="translate(131.997 -0.366)"/>
        <rect id="Rectangle_913" data-name="Rectangle 913" width="9" height="7" transform="translate(137.997 -0.366)"/>
        <rect id="Rectangle_914" data-name="Rectangle 914" width="6" height="7" transform="translate(146.997 -0.366)"/>
        <rect id="Rectangle_915" data-name="Rectangle 915" width="7" height="7" transform="translate(152.997 -0.366)"/>
        <rect id="Rectangle_916" data-name="Rectangle 916" width="9" height="7" transform="translate(159.997 -0.366)"/>
        <rect id="Rectangle_917" data-name="Rectangle 917" width="7" height="7" transform="translate(168.997 -0.366)"/>
        <rect id="Rectangle_918" data-name="Rectangle 918" width="6" height="7" transform="translate(175.997 -0.366)"/>
        <rect id="Rectangle_919" data-name="Rectangle 919" width="6" height="9" transform="translate(-0.003 6.634)"/>
        <rect id="Rectangle_920" data-name="Rectangle 920" width="9" height="9" transform="translate(40.997 6.634)"/>
        <rect id="Rectangle_921" data-name="Rectangle 921" width="8" height="9" transform="translate(56.997 6.634)"/>
        <rect id="Rectangle_922" data-name="Rectangle 922" width="7" height="9" transform="translate(64.997 6.634)"/>
        <rect id="Rectangle_923" data-name="Rectangle 923" width="9" height="9" transform="translate(71.997 6.634)"/>
        <rect id="Rectangle_924" data-name="Rectangle 924" width="7" height="9" transform="translate(93.997 6.634)"/>
        <rect id="Rectangle_925" data-name="Rectangle 925" width="9" height="9" transform="translate(100.997 6.634)"/>
        <rect id="Rectangle_926" data-name="Rectangle 926" width="7" height="9" transform="translate(109.997 6.634)"/>
        <rect id="Rectangle_927" data-name="Rectangle 927" width="6" height="9" transform="translate(131.997 6.634)"/>
        <rect id="Rectangle_928" data-name="Rectangle 928" width="6" height="9" transform="translate(175.997 6.634)"/>
        <rect id="Rectangle_929" data-name="Rectangle 929" width="6" height="7" transform="translate(-0.003 15.634)"/>
        <rect id="Rectangle_930" data-name="Rectangle 930" width="6" height="7" transform="translate(12.997 15.634)"/>
        <rect id="Rectangle_931" data-name="Rectangle 931" width="7" height="7" transform="translate(18.997 15.634)"/>
        <rect id="Rectangle_932" data-name="Rectangle 932" width="9" height="7" transform="translate(25.997 15.634)"/>
        <rect id="Rectangle_933" data-name="Rectangle 933" width="9" height="7" transform="translate(40.997 15.634)"/>
        <rect id="Rectangle_934" data-name="Rectangle 934" width="8" height="7" transform="translate(56.997 15.634)"/>
        <rect id="Rectangle_935" data-name="Rectangle 935" width="9" height="7" transform="translate(100.997 15.634)"/>
        <rect id="Rectangle_936" data-name="Rectangle 936" width="7" height="7" transform="translate(109.997 15.634)"/>
        <rect id="Rectangle_937" data-name="Rectangle 937" width="6" height="7" transform="translate(131.997 15.634)"/>
        <rect id="Rectangle_938" data-name="Rectangle 938" width="6" height="7" transform="translate(146.997 15.634)"/>
        <rect id="Rectangle_939" data-name="Rectangle 939" width="7" height="7" transform="translate(152.997 15.634)"/>
        <rect id="Rectangle_940" data-name="Rectangle 940" width="9" height="7" transform="translate(159.997 15.634)"/>
        <rect id="Rectangle_941" data-name="Rectangle 941" width="6" height="7" transform="translate(175.997 15.634)"/>
        <rect id="Rectangle_942" data-name="Rectangle 942" width="6" height="6" transform="translate(-0.003 22.634)"/>
        <rect id="Rectangle_943" data-name="Rectangle 943" width="6" height="6" transform="translate(12.997 22.634)"/>
        <rect id="Rectangle_944" data-name="Rectangle 944" width="7" height="6" transform="translate(18.997 22.634)"/>
        <rect id="Rectangle_945" data-name="Rectangle 945" width="9" height="6" transform="translate(25.997 22.634)"/>
        <rect id="Rectangle_946" data-name="Rectangle 946" width="9" height="6" transform="translate(40.997 22.634)"/>
        <rect id="Rectangle_947" data-name="Rectangle 947" width="7" height="6" transform="translate(64.997 22.634)"/>
        <rect id="Rectangle_948" data-name="Rectangle 948" width="6" height="6" transform="translate(87.997 22.634)"/>
        <rect id="Rectangle_949" data-name="Rectangle 949" width="6" height="6" transform="translate(131.997 22.634)"/>
        <rect id="Rectangle_950" data-name="Rectangle 950" width="6" height="6" transform="translate(146.997 22.634)"/>
        <rect id="Rectangle_951" data-name="Rectangle 951" width="7" height="6" transform="translate(152.997 22.634)"/>
        <rect id="Rectangle_952" data-name="Rectangle 952" width="9" height="6" transform="translate(159.997 22.634)"/>
        <rect id="Rectangle_953" data-name="Rectangle 953" width="6" height="6" transform="translate(175.997 22.634)"/>
        <rect id="Rectangle_954" data-name="Rectangle 954" width="6" height="8" transform="translate(-0.003 28.634)"/>
        <rect id="Rectangle_955" data-name="Rectangle 955" width="6" height="8" transform="translate(12.997 28.634)"/>
        <rect id="Rectangle_956" data-name="Rectangle 956" width="7" height="8" transform="translate(18.997 28.634)"/>
        <rect id="Rectangle_957" data-name="Rectangle 957" width="9" height="8" transform="translate(25.997 28.634)"/>
        <rect id="Rectangle_958" data-name="Rectangle 958" width="9" height="8" transform="translate(40.997 28.634)"/>
        <rect id="Rectangle_959" data-name="Rectangle 959" width="8" height="8" transform="translate(56.997 28.634)"/>
        <rect id="Rectangle_960" data-name="Rectangle 960" width="7" height="8" transform="translate(64.997 28.634)"/>
        <rect id="Rectangle_961" data-name="Rectangle 961" width="9" height="8" transform="translate(71.997 28.634)"/>
        <rect id="Rectangle_962" data-name="Rectangle 962" width="6" height="8" transform="translate(87.997 28.634)"/>
        <rect id="Rectangle_963" data-name="Rectangle 963" width="7" height="8" transform="translate(109.997 28.634)"/>
        <rect id="Rectangle_964" data-name="Rectangle 964" width="8" height="8" transform="translate(116.997 28.634)"/>
        <rect id="Rectangle_965" data-name="Rectangle 965" width="6" height="8" transform="translate(131.997 28.634)"/>
        <rect id="Rectangle_966" data-name="Rectangle 966" width="6" height="8" transform="translate(146.997 28.634)"/>
        <rect id="Rectangle_967" data-name="Rectangle 967" width="7" height="8" transform="translate(152.997 28.634)"/>
        <rect id="Rectangle_968" data-name="Rectangle 968" width="9" height="8" transform="translate(159.997 28.634)"/>
        <rect id="Rectangle_969" data-name="Rectangle 969" width="6" height="8" transform="translate(175.997 28.634)"/>
        <rect id="Rectangle_970" data-name="Rectangle 970" width="6" height="7" transform="translate(-0.003 36.634)"/>
        <rect id="Rectangle_971" data-name="Rectangle 971" width="9" height="7" transform="translate(40.997 36.634)"/>
        <rect id="Rectangle_972" data-name="Rectangle 972" width="8" height="7" transform="translate(56.997 36.634)"/>
        <rect id="Rectangle_973" data-name="Rectangle 973" width="9" height="7" transform="translate(71.997 36.634)"/>
        <rect id="Rectangle_974" data-name="Rectangle 974" width="6" height="7" transform="translate(87.997 36.634)"/>
        <rect id="Rectangle_975" data-name="Rectangle 975" width="7" height="7" transform="translate(93.997 36.634)"/>
        <rect id="Rectangle_976" data-name="Rectangle 976" width="9" height="7" transform="translate(100.997 36.634)"/>
        <rect id="Rectangle_977" data-name="Rectangle 977" width="7" height="7" transform="translate(109.997 36.634)"/>
        <rect id="Rectangle_978" data-name="Rectangle 978" width="6" height="7" transform="translate(131.997 36.634)"/>
        <rect id="Rectangle_979" data-name="Rectangle 979" width="6" height="7" transform="translate(175.997 36.634)"/>
        <rect id="Rectangle_980" data-name="Rectangle 980" width="6" height="9" transform="translate(-0.003 43.634)"/>
        <rect id="Rectangle_981" data-name="Rectangle 981" width="7" height="9" transform="translate(5.997 43.634)"/>
        <rect id="Rectangle_982" data-name="Rectangle 982" width="6" height="9" transform="translate(12.997 43.634)"/>
        <rect id="Rectangle_983" data-name="Rectangle 983" width="7" height="9" transform="translate(18.997 43.634)"/>
        <rect id="Rectangle_984" data-name="Rectangle 984" width="9" height="9" transform="translate(25.997 43.634)"/>
        <rect id="Rectangle_985" data-name="Rectangle 985" width="6" height="9" transform="translate(34.997 43.634)"/>
        <rect id="Rectangle_986" data-name="Rectangle 986" width="9" height="9" transform="translate(40.997 43.634)"/>
        <rect id="Rectangle_987" data-name="Rectangle 987" width="8" height="9" transform="translate(56.997 43.634)"/>
        <rect id="Rectangle_988" data-name="Rectangle 988" width="9" height="9" transform="translate(71.997 43.634)"/>
        <rect id="Rectangle_989" data-name="Rectangle 989" width="6" height="9" transform="translate(87.997 43.634)"/>
        <rect id="Rectangle_990" data-name="Rectangle 990" width="9" height="9" transform="translate(100.997 43.634)"/>
        <rect id="Rectangle_991" data-name="Rectangle 991" width="8" height="9" transform="translate(116.997 43.634)"/>
        <rect id="Rectangle_992" data-name="Rectangle 992" width="6" height="9" transform="translate(131.997 43.634)"/>
        <rect id="Rectangle_993" data-name="Rectangle 993" width="9" height="9" transform="translate(137.997 43.634)"/>
        <rect id="Rectangle_994" data-name="Rectangle 994" width="6" height="9" transform="translate(146.997 43.634)"/>
        <rect id="Rectangle_995" data-name="Rectangle 995" width="7" height="9" transform="translate(152.997 43.634)"/>
        <rect id="Rectangle_996" data-name="Rectangle 996" width="9" height="9" transform="translate(159.997 43.634)"/>
        <rect id="Rectangle_997" data-name="Rectangle 997" width="7" height="9" transform="translate(168.997 43.634)"/>
        <rect id="Rectangle_998" data-name="Rectangle 998" width="6" height="9" transform="translate(175.997 43.634)"/>
        <rect id="Rectangle_999" data-name="Rectangle 999" width="8" height="6" transform="translate(56.997 52.634)"/>
        <rect id="Rectangle_1000" data-name="Rectangle 1000" width="9" height="6" transform="translate(71.997 52.634)"/>
        <rect id="Rectangle_1001" data-name="Rectangle 1001" width="7" height="6" transform="translate(80.997 52.634)"/>
        <rect id="Rectangle_1002" data-name="Rectangle 1002" width="9" height="6" transform="translate(100.997 52.634)"/>
        <rect id="Rectangle_1003" data-name="Rectangle 1003" width="7" height="6" transform="translate(109.997 52.634)"/>
        <rect id="Rectangle_1004" data-name="Rectangle 1004" width="6" height="8" transform="translate(-0.003 58.634)"/>
        <rect id="Rectangle_1005" data-name="Rectangle 1005" width="7" height="8" transform="translate(5.997 58.634)"/>
        <rect id="Rectangle_1006" data-name="Rectangle 1006" width="7" height="8" transform="translate(18.997 58.634)"/>
        <rect id="Rectangle_1007" data-name="Rectangle 1007" width="9" height="8" transform="translate(40.997 58.634)"/>
        <rect id="Rectangle_1008" data-name="Rectangle 1008" width="7" height="8" transform="translate(49.997 58.634)"/>
        <rect id="Rectangle_1009" data-name="Rectangle 1009" width="7" height="8" transform="translate(80.997 58.634)"/>
        <rect id="Rectangle_1010" data-name="Rectangle 1010" width="6" height="8" transform="translate(87.997 58.634)"/>
        <rect id="Rectangle_1011" data-name="Rectangle 1011" width="7" height="8" transform="translate(93.997 58.634)"/>
        <rect id="Rectangle_1012" data-name="Rectangle 1012" width="9" height="8" transform="translate(100.997 58.634)"/>
        <rect id="Rectangle_1013" data-name="Rectangle 1013" width="6" height="8" transform="translate(131.997 58.634)"/>
        <rect id="Rectangle_1014" data-name="Rectangle 1014" width="9" height="8" transform="translate(137.997 58.634)"/>
        <rect id="Rectangle_1015" data-name="Rectangle 1015" width="6" height="8" transform="translate(146.997 58.634)"/>
        <rect id="Rectangle_1016" data-name="Rectangle 1016" width="9" height="8" transform="translate(159.997 58.634)"/>
        <rect id="Rectangle_1017" data-name="Rectangle 1017" width="7" height="8" transform="translate(168.997 58.634)"/>
        <rect id="Rectangle_1018" data-name="Rectangle 1018" width="6" height="6" transform="translate(-0.003 66.634)"/>
        <rect id="Rectangle_1019" data-name="Rectangle 1019" width="7" height="6" transform="translate(5.997 66.634)"/>
        <rect id="Rectangle_1020" data-name="Rectangle 1020" width="9" height="6" transform="translate(25.997 66.634)"/>
        <rect id="Rectangle_1021" data-name="Rectangle 1021" width="6" height="6" transform="translate(34.997 66.634)"/>
        <rect id="Rectangle_1022" data-name="Rectangle 1022" width="7" height="6" transform="translate(49.997 66.634)"/>
        <rect id="Rectangle_1023" data-name="Rectangle 1023" width="7" height="6" transform="translate(64.997 66.634)"/>
        <rect id="Rectangle_1024" data-name="Rectangle 1024" width="7" height="6" transform="translate(80.997 66.634)"/>
        <rect id="Rectangle_1025" data-name="Rectangle 1025" width="6" height="6" transform="translate(87.997 66.634)"/>
        <rect id="Rectangle_1026" data-name="Rectangle 1026" width="7" height="6" transform="translate(93.997 66.634)"/>
        <rect id="Rectangle_1027" data-name="Rectangle 1027" width="8" height="6" transform="translate(116.997 66.634)"/>
        <rect id="Rectangle_1028" data-name="Rectangle 1028" width="7" height="6" transform="translate(124.997 66.634)"/>
        <rect id="Rectangle_1029" data-name="Rectangle 1029" width="6" height="6" transform="translate(131.997 66.634)"/>
        <rect id="Rectangle_1030" data-name="Rectangle 1030" width="6" height="6" transform="translate(175.997 66.634)"/>
        <rect id="Rectangle_1031" data-name="Rectangle 1031" width="6" height="8" transform="translate(-0.003 72.634)"/>
        <rect id="Rectangle_1032" data-name="Rectangle 1032" width="7" height="8" transform="translate(5.997 72.634)"/>
        <rect id="Rectangle_1033" data-name="Rectangle 1033" width="9" height="8" transform="translate(25.997 72.634)"/>
        <rect id="Rectangle_1034" data-name="Rectangle 1034" width="9" height="8" transform="translate(40.997 72.634)"/>
        <rect id="Rectangle_1035" data-name="Rectangle 1035" width="8" height="8" transform="translate(56.997 72.634)"/>
        <rect id="Rectangle_1036" data-name="Rectangle 1036" width="7" height="8" transform="translate(80.997 72.634)"/>
        <rect id="Rectangle_1037" data-name="Rectangle 1037" width="6" height="8" transform="translate(87.997 72.634)"/>
        <rect id="Rectangle_1038" data-name="Rectangle 1038" width="7" height="8" transform="translate(93.997 72.634)"/>
        <rect id="Rectangle_1039" data-name="Rectangle 1039" width="7" height="8" transform="translate(124.997 72.634)"/>
        <rect id="Rectangle_1040" data-name="Rectangle 1040" width="6" height="8" transform="translate(131.997 72.634)"/>
        <rect id="Rectangle_1041" data-name="Rectangle 1041" width="9" height="8" transform="translate(137.997 72.634)"/>
        <rect id="Rectangle_1042" data-name="Rectangle 1042" width="7" height="8" transform="translate(168.997 72.634)"/>
        <rect id="Rectangle_1043" data-name="Rectangle 1043" width="6" height="8" transform="translate(175.997 72.634)"/>
        <rect id="Rectangle_1044" data-name="Rectangle 1044" width="7" height="7" transform="translate(5.997 80.634)"/>
        <rect id="Rectangle_1045" data-name="Rectangle 1045" width="7" height="7" transform="translate(49.997 80.634)"/>
        <rect id="Rectangle_1046" data-name="Rectangle 1046" width="7" height="7" transform="translate(64.997 80.634)"/>
        <rect id="Rectangle_1047" data-name="Rectangle 1047" width="9" height="7" transform="translate(71.997 80.634)"/>
        <rect id="Rectangle_1048" data-name="Rectangle 1048" width="7" height="7" transform="translate(80.997 80.634)"/>
        <rect id="Rectangle_1049" data-name="Rectangle 1049" width="6" height="7" transform="translate(87.997 80.634)"/>
        <rect id="Rectangle_1050" data-name="Rectangle 1050" width="7" height="7" transform="translate(93.997 80.634)"/>
        <rect id="Rectangle_1051" data-name="Rectangle 1051" width="9" height="7" transform="translate(100.997 80.634)"/>
        <rect id="Rectangle_1052" data-name="Rectangle 1052" width="8" height="7" transform="translate(116.997 80.634)"/>
        <rect id="Rectangle_1053" data-name="Rectangle 1053" width="7" height="7" transform="translate(124.997 80.634)"/>
        <rect id="Rectangle_1054" data-name="Rectangle 1054" width="6" height="9" transform="translate(-0.003 87.634)"/>
        <rect id="Rectangle_1055" data-name="Rectangle 1055" width="9" height="9" transform="translate(25.997 87.634)"/>
        <rect id="Rectangle_1056" data-name="Rectangle 1056" width="9" height="9" transform="translate(40.997 87.634)"/>
        <rect id="Rectangle_1057" data-name="Rectangle 1057" width="8" height="9" transform="translate(56.997 87.634)"/>
        <rect id="Rectangle_1058" data-name="Rectangle 1058" width="9" height="9" transform="translate(71.997 87.634)"/>
        <rect id="Rectangle_1059" data-name="Rectangle 1059" width="7" height="9" transform="translate(80.997 87.634)"/>
        <rect id="Rectangle_1060" data-name="Rectangle 1060" width="7" height="9" transform="translate(93.997 87.634)"/>
        <rect id="Rectangle_1061" data-name="Rectangle 1061" width="7" height="9" transform="translate(109.997 87.634)"/>
        <rect id="Rectangle_1062" data-name="Rectangle 1062" width="8" height="9" transform="translate(116.997 87.634)"/>
        <rect id="Rectangle_1063" data-name="Rectangle 1063" width="7" height="9" transform="translate(124.997 87.634)"/>
        <rect id="Rectangle_1064" data-name="Rectangle 1064" width="6" height="9" transform="translate(131.997 87.634)"/>
        <rect id="Rectangle_1065" data-name="Rectangle 1065" width="7" height="9" transform="translate(152.997 87.634)"/>
        <rect id="Rectangle_1066" data-name="Rectangle 1066" width="7" height="9" transform="translate(168.997 87.634)"/>
        <rect id="Rectangle_1067" data-name="Rectangle 1067" width="6" height="9" transform="translate(175.997 87.634)"/>
        <rect id="Rectangle_1068" data-name="Rectangle 1068" width="6" height="7" transform="translate(12.997 96.634)"/>
        <rect id="Rectangle_1069" data-name="Rectangle 1069" width="7" height="7" transform="translate(18.997 96.634)"/>
        <rect id="Rectangle_1070" data-name="Rectangle 1070" width="9" height="7" transform="translate(25.997 96.634)"/>
        <rect id="Rectangle_1071" data-name="Rectangle 1071" width="6" height="7" transform="translate(34.997 96.634)"/>
        <rect id="Rectangle_1072" data-name="Rectangle 1072" width="8" height="7" transform="translate(56.997 96.634)"/>
        <rect id="Rectangle_1073" data-name="Rectangle 1073" width="7" height="7" transform="translate(64.997 96.634)"/>
        <rect id="Rectangle_1074" data-name="Rectangle 1074" width="7" height="7" transform="translate(80.997 96.634)"/>
        <rect id="Rectangle_1075" data-name="Rectangle 1075" width="9" height="7" transform="translate(100.997 96.634)"/>
        <rect id="Rectangle_1076" data-name="Rectangle 1076" width="8" height="7" transform="translate(116.997 96.634)"/>
        <rect id="Rectangle_1077" data-name="Rectangle 1077" width="7" height="7" transform="translate(124.997 96.634)"/>
        <rect id="Rectangle_1078" data-name="Rectangle 1078" width="6" height="7" transform="translate(131.997 96.634)"/>
        <rect id="Rectangle_1079" data-name="Rectangle 1079" width="9" height="7" transform="translate(137.997 96.634)"/>
        <rect id="Rectangle_1080" data-name="Rectangle 1080" width="7" height="7" transform="translate(152.997 96.634)"/>
        <rect id="Rectangle_1081" data-name="Rectangle 1081" width="9" height="7" transform="translate(159.997 96.634)"/>
        <rect id="Rectangle_1082" data-name="Rectangle 1082" width="6" height="7" transform="translate(175.997 96.634)"/>
        <rect id="Rectangle_1083" data-name="Rectangle 1083" width="6" height="8" transform="translate(-0.003 103.634)"/>
        <rect id="Rectangle_1084" data-name="Rectangle 1084" width="6" height="8" transform="translate(12.997 103.634)"/>
        <rect id="Rectangle_1085" data-name="Rectangle 1085" width="9" height="8" transform="translate(25.997 103.634)"/>
        <rect id="Rectangle_1086" data-name="Rectangle 1086" width="6" height="8" transform="translate(34.997 103.634)"/>
        <rect id="Rectangle_1087" data-name="Rectangle 1087" width="9" height="8" transform="translate(40.997 103.634)"/>
        <rect id="Rectangle_1088" data-name="Rectangle 1088" width="7" height="8" transform="translate(64.997 103.634)"/>
        <rect id="Rectangle_1089" data-name="Rectangle 1089" width="7" height="8" transform="translate(80.997 103.634)"/>
        <rect id="Rectangle_1090" data-name="Rectangle 1090" width="7" height="8" transform="translate(93.997 103.634)"/>
        <rect id="Rectangle_1091" data-name="Rectangle 1091" width="9" height="8" transform="translate(137.997 103.634)"/>
        <rect id="Rectangle_1092" data-name="Rectangle 1092" width="6" height="8" transform="translate(146.997 103.634)"/>
        <rect id="Rectangle_1093" data-name="Rectangle 1093" width="9" height="8" transform="translate(159.997 103.634)"/>
        <rect id="Rectangle_1094" data-name="Rectangle 1094" width="6" height="8" transform="translate(175.997 103.634)"/>
        <rect id="Rectangle_1095" data-name="Rectangle 1095" width="7" height="5" transform="translate(5.997 111.634)"/>
        <rect id="Rectangle_1096" data-name="Rectangle 1096" width="6" height="5" transform="translate(12.997 111.634)"/>
        <rect id="Rectangle_1097" data-name="Rectangle 1097" width="7" height="5" transform="translate(18.997 111.634)"/>
        <rect id="Rectangle_1098" data-name="Rectangle 1098" width="6" height="5" transform="translate(34.997 111.634)"/>
        <rect id="Rectangle_1099" data-name="Rectangle 1099" width="7" height="5" transform="translate(49.997 111.634)"/>
        <rect id="Rectangle_1100" data-name="Rectangle 1100" width="8" height="5" transform="translate(56.997 111.634)"/>
        <rect id="Rectangle_1101" data-name="Rectangle 1101" width="9" height="5" transform="translate(71.997 111.634)"/>
        <rect id="Rectangle_1102" data-name="Rectangle 1102" width="7" height="5" transform="translate(80.997 111.634)"/>
        <rect id="Rectangle_1103" data-name="Rectangle 1103" width="7" height="5" transform="translate(93.997 111.634)"/>
        <rect id="Rectangle_1104" data-name="Rectangle 1104" width="9" height="5" transform="translate(100.997 111.634)"/>
        <rect id="Rectangle_1105" data-name="Rectangle 1105" width="7" height="5" transform="translate(124.997 111.634)"/>
        <rect id="Rectangle_1106" data-name="Rectangle 1106" width="6" height="5" transform="translate(146.997 111.634)"/>
        <rect id="Rectangle_1107" data-name="Rectangle 1107" width="7" height="5" transform="translate(152.997 111.634)"/>
        <rect id="Rectangle_1108" data-name="Rectangle 1108" width="7" height="5" transform="translate(168.997 111.634)"/>
        <rect id="Rectangle_1109" data-name="Rectangle 1109" width="6" height="10" transform="translate(-0.003 116.634)"/>
        <rect id="Rectangle_1110" data-name="Rectangle 1110" width="7" height="10" transform="translate(5.997 116.634)"/>
        <rect id="Rectangle_1111" data-name="Rectangle 1111" width="6" height="10" transform="translate(12.997 116.634)"/>
        <rect id="Rectangle_1112" data-name="Rectangle 1112" width="7" height="10" transform="translate(18.997 116.634)"/>
        <rect id="Rectangle_1113" data-name="Rectangle 1113" width="9" height="10" transform="translate(25.997 116.634)"/>
        <rect id="Rectangle_1114" data-name="Rectangle 1114" width="9" height="10" transform="translate(40.997 116.634)"/>
        <rect id="Rectangle_1115" data-name="Rectangle 1115" width="7" height="10" transform="translate(49.997 116.634)"/>
        <rect id="Rectangle_1116" data-name="Rectangle 1116" width="7" height="10" transform="translate(64.997 116.634)"/>
        <rect id="Rectangle_1117" data-name="Rectangle 1117" width="6" height="10" transform="translate(87.997 116.634)"/>
        <rect id="Rectangle_1118" data-name="Rectangle 1118" width="7" height="10" transform="translate(109.997 116.634)"/>
        <rect id="Rectangle_1119" data-name="Rectangle 1119" width="8" height="10" transform="translate(116.997 116.634)"/>
        <rect id="Rectangle_1120" data-name="Rectangle 1120" width="7" height="10" transform="translate(124.997 116.634)"/>
        <rect id="Rectangle_1121" data-name="Rectangle 1121" width="6" height="10" transform="translate(131.997 116.634)"/>
        <rect id="Rectangle_1122" data-name="Rectangle 1122" width="9" height="10" transform="translate(137.997 116.634)"/>
        <rect id="Rectangle_1123" data-name="Rectangle 1123" width="6" height="10" transform="translate(146.997 116.634)"/>
        <rect id="Rectangle_1124" data-name="Rectangle 1124" width="7" height="10" transform="translate(152.997 116.634)"/>
        <rect id="Rectangle_1125" data-name="Rectangle 1125" width="9" height="10" transform="translate(159.997 116.634)"/>
        <rect id="Rectangle_1126" data-name="Rectangle 1126" width="8" height="6" transform="translate(56.997 126.634)"/>
        <rect id="Rectangle_1127" data-name="Rectangle 1127" width="7" height="6" transform="translate(64.997 126.634)"/>
        <rect id="Rectangle_1128" data-name="Rectangle 1128" width="9" height="6" transform="translate(71.997 126.634)"/>
        <rect id="Rectangle_1129" data-name="Rectangle 1129" width="6" height="6" transform="translate(87.997 126.634)"/>
        <rect id="Rectangle_1130" data-name="Rectangle 1130" width="9" height="6" transform="translate(100.997 126.634)"/>
        <rect id="Rectangle_1131" data-name="Rectangle 1131" width="7" height="6" transform="translate(109.997 126.634)"/>
        <rect id="Rectangle_1132" data-name="Rectangle 1132" width="8" height="6" transform="translate(116.997 126.634)"/>
        <rect id="Rectangle_1133" data-name="Rectangle 1133" width="6" height="6" transform="translate(146.997 126.634)"/>
        <rect id="Rectangle_1134" data-name="Rectangle 1134" width="7" height="6" transform="translate(152.997 126.634)"/>
        <rect id="Rectangle_1135" data-name="Rectangle 1135" width="9" height="6" transform="translate(159.997 126.634)"/>
        <rect id="Rectangle_1136" data-name="Rectangle 1136" width="6" height="6" transform="translate(175.997 126.634)"/>
        <rect id="Rectangle_1137" data-name="Rectangle 1137" width="6" height="7" transform="translate(-0.003 132.634)"/>
        <rect id="Rectangle_1138" data-name="Rectangle 1138" width="7" height="7" transform="translate(5.997 132.634)"/>
        <rect id="Rectangle_1139" data-name="Rectangle 1139" width="6" height="7" transform="translate(12.997 132.634)"/>
        <rect id="Rectangle_1140" data-name="Rectangle 1140" width="7" height="7" transform="translate(18.997 132.634)"/>
        <rect id="Rectangle_1141" data-name="Rectangle 1141" width="9" height="7" transform="translate(25.997 132.634)"/>
        <rect id="Rectangle_1142" data-name="Rectangle 1142" width="6" height="7" transform="translate(34.997 132.634)"/>
        <rect id="Rectangle_1143" data-name="Rectangle 1143" width="9" height="7" transform="translate(40.997 132.634)"/>
        <rect id="Rectangle_1144" data-name="Rectangle 1144" width="8" height="7" transform="translate(56.997 132.634)"/>
        <rect id="Rectangle_1145" data-name="Rectangle 1145" width="7" height="7" transform="translate(80.997 132.634)"/>
        <rect id="Rectangle_1146" data-name="Rectangle 1146" width="6" height="7" transform="translate(87.997 132.634)"/>
        <rect id="Rectangle_1147" data-name="Rectangle 1147" width="7" height="7" transform="translate(93.997 132.634)"/>
        <rect id="Rectangle_1148" data-name="Rectangle 1148" width="9" height="7" transform="translate(100.997 132.634)"/>
        <rect id="Rectangle_1149" data-name="Rectangle 1149" width="7" height="7" transform="translate(109.997 132.634)"/>
        <rect id="Rectangle_1150" data-name="Rectangle 1150" width="8" height="7" transform="translate(116.997 132.634)"/>
        <rect id="Rectangle_1151" data-name="Rectangle 1151" width="6" height="7" transform="translate(131.997 132.634)"/>
        <rect id="Rectangle_1152" data-name="Rectangle 1152" width="6" height="7" transform="translate(146.997 132.634)"/>
        <rect id="Rectangle_1153" data-name="Rectangle 1153" width="7" height="7" transform="translate(168.997 132.634)"/>
        <rect id="Rectangle_1154" data-name="Rectangle 1154" width="6" height="7" transform="translate(175.997 132.634)"/>
        <rect id="Rectangle_1155" data-name="Rectangle 1155" width="6" height="8" transform="translate(-0.003 139.634)"/>
        <rect id="Rectangle_1156" data-name="Rectangle 1156" width="9" height="8" transform="translate(40.997 139.634)"/>
        <rect id="Rectangle_1157" data-name="Rectangle 1157" width="7" height="8" transform="translate(64.997 139.634)"/>
        <rect id="Rectangle_1158" data-name="Rectangle 1158" width="6" height="8" transform="translate(87.997 139.634)"/>
        <rect id="Rectangle_1159" data-name="Rectangle 1159" width="8" height="8" transform="translate(116.997 139.634)"/>
        <rect id="Rectangle_1160" data-name="Rectangle 1160" width="6" height="8" transform="translate(146.997 139.634)"/>
        <rect id="Rectangle_1161" data-name="Rectangle 1161" width="7" height="8" transform="translate(152.997 139.634)"/>
        <rect id="Rectangle_1162" data-name="Rectangle 1162" width="9" height="8" transform="translate(159.997 139.634)"/>
        <rect id="Rectangle_1163" data-name="Rectangle 1163" width="7" height="8" transform="translate(168.997 139.634)"/>
        <rect id="Rectangle_1164" data-name="Rectangle 1164" width="6" height="6" transform="translate(-0.003 147.634)"/>
        <rect id="Rectangle_1165" data-name="Rectangle 1165" width="6" height="6" transform="translate(12.997 147.634)"/>
        <rect id="Rectangle_1166" data-name="Rectangle 1166" width="7" height="6" transform="translate(18.997 147.634)"/>
        <rect id="Rectangle_1167" data-name="Rectangle 1167" width="9" height="6" transform="translate(25.997 147.634)"/>
        <rect id="Rectangle_1168" data-name="Rectangle 1168" width="9" height="6" transform="translate(40.997 147.634)"/>
        <rect id="Rectangle_1169" data-name="Rectangle 1169" width="9" height="6" transform="translate(71.997 147.634)"/>
        <rect id="Rectangle_1170" data-name="Rectangle 1170" width="6" height="6" transform="translate(87.997 147.634)"/>
        <rect id="Rectangle_1171" data-name="Rectangle 1171" width="7" height="6" transform="translate(93.997 147.634)"/>
        <rect id="Rectangle_1172" data-name="Rectangle 1172" width="8" height="6" transform="translate(116.997 147.634)"/>
        <rect id="Rectangle_1173" data-name="Rectangle 1173" width="7" height="6" transform="translate(124.997 147.634)"/>
        <rect id="Rectangle_1174" data-name="Rectangle 1174" width="6" height="6" transform="translate(131.997 147.634)"/>
        <rect id="Rectangle_1175" data-name="Rectangle 1175" width="9" height="6" transform="translate(137.997 147.634)"/>
        <rect id="Rectangle_1176" data-name="Rectangle 1176" width="6" height="6" transform="translate(146.997 147.634)"/>
        <rect id="Rectangle_1177" data-name="Rectangle 1177" width="7" height="6" transform="translate(168.997 147.634)"/>
        <rect id="Rectangle_1178" data-name="Rectangle 1178" width="6" height="7" transform="translate(-0.003 153.634)"/>
        <rect id="Rectangle_1179" data-name="Rectangle 1179" width="6" height="7" transform="translate(12.997 153.634)"/>
        <rect id="Rectangle_1180" data-name="Rectangle 1180" width="7" height="7" transform="translate(18.997 153.634)"/>
        <rect id="Rectangle_1181" data-name="Rectangle 1181" width="9" height="7" transform="translate(25.997 153.634)"/>
        <rect id="Rectangle_1182" data-name="Rectangle 1182" width="9" height="7" transform="translate(40.997 153.634)"/>
        <rect id="Rectangle_1183" data-name="Rectangle 1183" width="8" height="7" transform="translate(56.997 153.634)"/>
        <rect id="Rectangle_1184" data-name="Rectangle 1184" width="7" height="7" transform="translate(64.997 153.634)"/>
        <rect id="Rectangle_1185" data-name="Rectangle 1185" width="9" height="7" transform="translate(71.997 153.634)"/>
        <rect id="Rectangle_1186" data-name="Rectangle 1186" width="7" height="7" transform="translate(80.997 153.634)"/>
        <rect id="Rectangle_1187" data-name="Rectangle 1187" width="9" height="7" transform="translate(100.997 153.634)"/>
        <rect id="Rectangle_1188" data-name="Rectangle 1188" width="7" height="7" transform="translate(109.997 153.634)"/>
        <rect id="Rectangle_1189" data-name="Rectangle 1189" width="8" height="7" transform="translate(116.997 153.634)"/>
        <rect id="Rectangle_1190" data-name="Rectangle 1190" width="9" height="7" transform="translate(137.997 153.634)"/>
        <rect id="Rectangle_1191" data-name="Rectangle 1191" width="6" height="7" transform="translate(146.997 153.634)"/>
        <rect id="Rectangle_1192" data-name="Rectangle 1192" width="9" height="7" transform="translate(159.997 153.634)"/>
        <rect id="Rectangle_1193" data-name="Rectangle 1193" width="6" height="9" transform="translate(-0.003 160.634)"/>
        <rect id="Rectangle_1194" data-name="Rectangle 1194" width="6" height="9" transform="translate(12.997 160.634)"/>
        <rect id="Rectangle_1195" data-name="Rectangle 1195" width="7" height="9" transform="translate(18.997 160.634)"/>
        <rect id="Rectangle_1196" data-name="Rectangle 1196" width="9" height="9" transform="translate(25.997 160.634)"/>
        <rect id="Rectangle_1197" data-name="Rectangle 1197" width="9" height="9" transform="translate(40.997 160.634)"/>
        <rect id="Rectangle_1198" data-name="Rectangle 1198" width="7" height="9" transform="translate(64.997 160.634)"/>
        <rect id="Rectangle_1199" data-name="Rectangle 1199" width="6" height="9" transform="translate(87.997 160.634)"/>
        <rect id="Rectangle_1200" data-name="Rectangle 1200" width="7" height="9" transform="translate(93.997 160.634)"/>
        <rect id="Rectangle_1201" data-name="Rectangle 1201" width="9" height="9" transform="translate(100.997 160.634)"/>
        <rect id="Rectangle_1202" data-name="Rectangle 1202" width="7" height="9" transform="translate(109.997 160.634)"/>
        <rect id="Rectangle_1203" data-name="Rectangle 1203" width="8" height="9" transform="translate(116.997 160.634)"/>
        <rect id="Rectangle_1204" data-name="Rectangle 1204" width="6" height="9" transform="translate(146.997 160.634)"/>
        <rect id="Rectangle_1205" data-name="Rectangle 1205" width="7" height="9" transform="translate(152.997 160.634)"/>
        <rect id="Rectangle_1206" data-name="Rectangle 1206" width="9" height="9" transform="translate(159.997 160.634)"/>
        <rect id="Rectangle_1207" data-name="Rectangle 1207" width="6" height="9" transform="translate(175.997 160.634)"/>
        <rect id="Rectangle_1208" data-name="Rectangle 1208" width="6" height="7" transform="translate(-0.003 169.634)"/>
        <rect id="Rectangle_1209" data-name="Rectangle 1209" width="9" height="7" transform="translate(40.997 169.634)"/>
        <rect id="Rectangle_1210" data-name="Rectangle 1210" width="8" height="7" transform="translate(56.997 169.634)"/>
        <rect id="Rectangle_1211" data-name="Rectangle 1211" width="7" height="7" transform="translate(64.997 169.634)"/>
        <rect id="Rectangle_1212" data-name="Rectangle 1212" width="9" height="7" transform="translate(71.997 169.634)"/>
        <rect id="Rectangle_1213" data-name="Rectangle 1213" width="7" height="7" transform="translate(80.997 169.634)"/>
        <rect id="Rectangle_1214" data-name="Rectangle 1214" width="7" height="7" transform="translate(93.997 169.634)"/>
        <rect id="Rectangle_1215" data-name="Rectangle 1215" width="7" height="7" transform="translate(109.997 169.634)"/>
        <rect id="Rectangle_1216" data-name="Rectangle 1216" width="8" height="7" transform="translate(116.997 169.634)"/>
        <rect id="Rectangle_1217" data-name="Rectangle 1217" width="6" height="7" transform="translate(131.997 169.634)"/>
        <rect id="Rectangle_1218" data-name="Rectangle 1218" width="7" height="7" transform="translate(152.997 169.634)"/>
        <rect id="Rectangle_1219" data-name="Rectangle 1219" width="6" height="9" transform="translate(-0.003 176.634)"/>
        <rect id="Rectangle_1220" data-name="Rectangle 1220" width="7" height="9" transform="translate(5.997 176.634)"/>
        <rect id="Rectangle_1221" data-name="Rectangle 1221" width="6" height="9" transform="translate(12.997 176.634)"/>
        <rect id="Rectangle_1222" data-name="Rectangle 1222" width="7" height="9" transform="translate(18.997 176.634)"/>
        <rect id="Rectangle_1223" data-name="Rectangle 1223" width="9" height="9" transform="translate(25.997 176.634)"/>
        <rect id="Rectangle_1224" data-name="Rectangle 1224" width="6" height="9" transform="translate(34.997 176.634)"/>
        <rect id="Rectangle_1225" data-name="Rectangle 1225" width="9" height="9" transform="translate(40.997 176.634)"/>
        <rect id="Rectangle_1226" data-name="Rectangle 1226" width="8" height="9" transform="translate(56.997 176.634)"/>
        <rect id="Rectangle_1227" data-name="Rectangle 1227" width="7" height="9" transform="translate(64.997 176.634)"/>
        <rect id="Rectangle_1228" data-name="Rectangle 1228" width="9" height="9" transform="translate(71.997 176.634)"/>
        <rect id="Rectangle_1229" data-name="Rectangle 1229" width="7" height="9" transform="translate(93.997 176.634)"/>
        <rect id="Rectangle_1230" data-name="Rectangle 1230" width="9" height="9" transform="translate(100.997 176.634)"/>
        <rect id="Rectangle_1231" data-name="Rectangle 1231" width="7" height="9" transform="translate(109.997 176.634)"/>
        <rect id="Rectangle_1232" data-name="Rectangle 1232" width="8" height="9" transform="translate(116.997 176.634)"/>
        <rect id="Rectangle_1233" data-name="Rectangle 1233" width="7" height="9" transform="translate(124.997 176.634)"/>
        <rect id="Rectangle_1234" data-name="Rectangle 1234" width="6" height="9" transform="translate(131.997 176.634)"/>
        <rect id="Rectangle_1235" data-name="Rectangle 1235" width="9" height="9" transform="translate(137.997 176.634)"/>
        <rect id="Rectangle_1236" data-name="Rectangle 1236" width="7" height="9" transform="translate(168.997 176.634)"/>
        <rect id="Rectangle_1237" data-name="Rectangle 1237" width="6" height="9" transform="translate(175.997 176.634)"/>
      </g>
    </g>
  </g>
</svg>
