<?xml version="1.0" encoding="utf-8"?>
<!-- Generator: Adobe Illustrator 26.0.3, SVG Export Plug-In . SVG Version: 6.00 Build 0)  -->
<svg version="1.1" id="name-ncm_sp.svg" xmlns="http://www.w3.org/2000/svg" xmlns:xlink="http://www.w3.org/1999/xlink" x="0px"
	 y="0px" viewBox="0 0 283.5 104.3" style="enable-background:new 0 0 283.5 104.3;" xml:space="preserve">
<style type="text/css">
	.st0{opacity:0.7;fill-rule:evenodd;clip-rule:evenodd;fill:#0D74A0;enable-background:new    ;}
	.st1{fill:#2B7BA6;}
</style>
<path id="Non_chemical_UV_milk" class="st0" d="M4.6,14.4V5l9.7,10.1V1h-2v9.2L2.6,0.1v14.2L4.6,14.4L4.6,14.4z M25.8,0.8
	c-3.8,0-6.9,3.1-6.9,6.9s3.1,6.9,6.9,6.9s6.9-3.1,6.9-6.9c0.1-3.7-2.9-6.8-6.6-6.9C26,0.8,25.9,0.8,25.8,0.8z M25.8,12.8
	c-2.8,0.1-5.1-2.1-5.2-4.9s2.1-5.1,4.9-5.2s5.1,2.1,5.2,4.9v0.1c0.2,2.6-1.9,4.9-4.5,5C26.1,12.8,25.9,12.8,25.8,12.8L25.8,12.8z
	 M39.3,14.4V5L49,15.2V1h-2v9.2L37.3,0.1v14.2L39.3,14.4L39.3,14.4z M70.8,1.7c-1.1-0.7-2.3-1-3.6-1c-1.8-0.1-3.5,0.5-4.8,1.7
	c-1.4,1.4-2.2,3.3-2.1,5.2c-0.1,1.9,0.7,3.8,2.1,5c1.3,1.2,3,1.9,4.7,1.8c1.3,0,2.6-0.3,3.7-1V11c-1,1-2.2,1.5-3.6,1.5
	c-2.7,0-4.9-2.1-4.9-4.8c0-0.1,0-0.2,0-0.3c-0.2-2.6,1.8-4.9,4.4-5.1c0.1,0,0.3,0,0.4,0c1.4,0,2.7,0.5,3.6,1.5L70.8,1.7L70.8,1.7z
	 M77.3,1h-2v13.4h2V8.2H83v6.1h2V1h-2v5.3h-5.7V1z M97.6,1h-7.4v13.4h7.4v-1.9h-5.3V8.2h5.2V6.3h-5.2V2.9h5.3V1L97.6,1z M104,14.4
	l1.4-8.1l3.8,8.7l3.9-8.7l1.4,8h2.1L114,0l-4.7,10.4L104.7,0l-2.8,14.4H104L104,14.4z M121.3,1v13.4h2V1H121.3z M138.4,1.7
	c-1.1-0.7-2.3-1-3.6-1c-1.8-0.1-3.5,0.5-4.8,1.7c-1.4,1.4-2.2,3.3-2.1,5.2c-0.1,1.9,0.7,3.8,2.1,5c1.3,1.2,3,1.9,4.7,1.8
	c1.3,0,2.6-0.3,3.7-1V11c-1,1-2.2,1.5-3.6,1.5c-2.7,0-4.9-2.1-4.9-4.8c0-0.1,0-0.2,0-0.3c-0.2-2.6,1.8-4.9,4.4-5.1
	c0.1,0,0.3,0,0.4,0c1.4,0,2.7,0.5,3.6,1.5L138.4,1.7L138.4,1.7z M152.2,14.4h2.2l-6.3-14.1l-6.6,14.1h2.2l1.5-3.2h5.7L152.2,14.4z
	 M145.9,9.2l2.1-4.5l2,4.5H145.9L145.9,9.2z M158.1,1v13.4h6v-1.9h-3.9V1H158.1L158.1,1z M174.6,1v8.6c0,1.3,0.4,2.5,1.2,3.5
	c2,2,5.3,2.1,7.3,0.1l0.1-0.1c0.8-1,1.3-2.2,1.2-3.5V1h-2v8c0.1,0.8-0.1,1.6-0.4,2.3c-0.9,1.4-2.7,1.8-4,0.9
	c-0.4-0.2-0.7-0.6-0.9-0.9c-0.3-0.7-0.5-1.5-0.4-2.3V1H174.6z M188.2,1l5.9,14.2L200,1h-2.2l-3.7,9.3L190.4,1H188.2L188.2,1z
	 M212,14.4l1.4-8.1l3.8,8.7l3.9-8.7l1.4,8h2.1L222.1,0l-4.7,10.4L212.8,0L210,14.4H212z M229.4,1v13.4h2V1H229.4z M236.6,1v13.4h6
	v-1.9h-3.9V1H236.6L236.6,1z M248.6,1h-2v13.4h2V8.8l0.4-0.4l4.8,5.9h2.7L250.4,7l6-6h-2.7l-5.2,5.3L248.6,1L248.6,1z"/>
<path class="st1" d="M9.9,44.6c4.5,2,6.1,3.7,6.1,7c0,3.9-3.1,6.5-8.3,6.5c-2.5,0-5.1-0.7-6.7-1.8l0.2-5h1.7L4,56.2
	c1,0.4,2,0.6,3.2,0.6c3.1,0,5-1.5,5-3.9c0-2.1-1-3.1-3.6-4.3L7.3,48c-3.8-1.7-5.9-3.6-5.9-7.1c0-3.9,3.2-6.2,7.8-6.2
	c2.4,0,4.3,0.6,5.8,1.7l-0.2,4.8h-1.7l-1.2-4.7c-0.7-0.3-1.3-0.4-2.3-0.4c-2.7,0-4.5,1.3-4.5,3.7c0,2.1,1.2,3.3,3.4,4.3L9.9,44.6z"
	/>
<path class="st1" d="M40,36.3l-3,0.4l-0.1,11.6c0,6.8-3,9.8-8.1,9.8c-5,0-8.5-2.5-8.5-9.2v-3.3c0-2.9,0-5.9-0.1-8.9l-2.7-0.3v-1
	h10.1v1l-3.1,0.2c-0.1,2.9-0.1,5.9-0.1,8.9v2.8c0,5.5,2,7.6,5.5,7.6c3.6,0,5.7-2.2,5.6-7.8l-0.1-11.2l-3.3-0.6v-1h8v1
	C40.1,36.3,40,36.3,40,36.3z"/>
<path class="st1" d="M64.1,36.3l-2.8,0.4l-0.1,21h-2.1L45.9,39L46,56.1l3.8,0.4v1h-8.1v-1l2.8-0.3v-19L44,36.6l-2.3-0.3v-1H48
	l11.8,16.4l-0.1-14.8l-3.8-0.5v-1H64L64.1,36.3L64.1,36.3L64.1,36.3z"/>
<path class="st1" d="M84.4,56.4c-2,1-4,1.8-6.7,1.8c-6.6,0-11.6-4.3-11.6-11.7c0-7.6,5.3-11.7,11.7-11.7c2.4,0,4.4,0.5,6.3,1.7
	L84,41.6h-1.8l-1.3-5.2c-0.8-0.3-1.8-0.5-2.7-0.5c-4.5,0-7.8,3.4-7.8,10.5s3.3,10.5,7.8,10.5c1,0,2-0.2,2.9-0.6l1.3-5.1h1.8
	L84.4,56.4z"/>
<path class="st1" d="M108.9,36.3l-3,0.4l-0.2,11.6c0,6.8-3,9.8-8.1,9.8c-5,0-8.5-2.5-8.5-9.2v-3.3c0-2.9,0-5.9-0.1-8.9l-2.7-0.3v-1
	h10.1v1l-3.1,0.2c-0.1,2.9-0.1,5.9-0.1,8.9v2.8c0,5.5,2,7.6,5.5,7.6c3.6,0,5.7-2.2,5.6-7.8l-0.1-11.2l-3.5-0.4v-1h8v0.8
	C108.7,36.3,108.9,36.3,108.9,36.3z"/>
<path class="st1" d="M122.1,36.5c-0.1,3-0.1,6.1-0.1,9.1v1.5c0,3,0,6,0.1,9.1l3.2,0.3v1h-10.8v-1l3.2-0.3c0-3,0-6,0-9.1v-1.5
	c0-3,0-6.1,0-9.1H113l-1.2,5h-1.7l0.2-6.2h19.1l0.2,6.2H128l-1.2-5H122.1z"/>
<path class="st1" d="M161.5,36.3l-3,0.4l-0.1,11.6c0,6.8-3,9.8-8.1,9.8c-5,0-8.5-2.5-8.5-9.2v-3.3c0-2.9,0-5.9-0.1-8.9l-2.7-0.3v-1
	h10.1v1l-3.1,0.2c-0.1,2.9-0.1,5.9-0.1,8.9v2.8c0,5.5,2,7.6,5.4,7.6c3.6,0,5.7-2.2,5.6-7.8l-0.1-11.2l-3.5-0.4v-1h8v0.8
	C161.3,36.3,161.5,36.3,161.5,36.3z"/>
<path class="st1" d="M184.2,36.2l-2.7,0.4l-7.1,21h-2.2l-7.6-21.2l-2.3-0.2v-1h10v1l-3.1,0.3l5.6,16.6l5.2-16.5l-3.1-0.4v-1h7.5v1
	C184.4,36.2,184.2,36.2,184.2,36.2z"/>
<path class="st1" d="M201.6,54.4c-0.1,0.2-1.3,0.8-2.3,0.8h-0.4v-2.5h-2.1v3.1c0,0.2-0.8,0.9-2.3,0.9H194V33.9l3.1,1.2h1.3l1.3-1.6
	l2.9,2.3c-0.2,0.2-0.6,0.5-1.2,0.6v17.8h0.2V54.4z M196.7,36.1v7.4h2.1v-7.4H196.7z M198.9,51.9v-7.6h-2.1v7.6H198.9z M215.1,44.1v2
	h1.6l1.3-1.3l2.8,2.1c-0.1,0.2-0.5,0.4-1,0.5v2.8c0,0.2-1.3,0.8-2.4,0.8h-0.5v-0.8h-11.2c-0.3,3.3-1.1,7.4-4.4,10.2l-0.3-0.3
	c1.9-3.9,2-8.8,2-12.8V42l0.2,0.1v-6.6l2.5,1h2.6l1.1-1.1l2.3,1.8c-0.1,0.2-0.4,0.3-0.8,0.4v3.3c0.6,0.1,1,0.2,1.5,0.4v-5.8l2.5,1
	h2.4l1.1-1.1l2.4,1.8c-0.1,0.2-0.4,0.3-0.9,0.4V41c0,0.1-0.6,0.5-1.1,0.6c0.6,0.5,1.7,1.3,2.4,2c-0.1,0.3-0.3,0.5-0.8,0.5h-5.1l0,0
	C215.3,44.1,215.1,44.1,215.1,44.1z M202.4,35l-0.2-0.8h5.5l1.3-1.8c0,0,1.6,1.2,2.5,2.2c-0.1,0.3-0.3,0.5-0.7,0.5h-8.4L202.4,35
	L202.4,35z M203.2,42.1l3,1.1h4.7c-0.1-0.6-0.4-1.2-0.8-1.8c-0.4,0.2-0.9,0.3-1.5,0.3h-0.2v-4.6h-2.9v4.1c0,0.2-1,0.7-2,0.7h-0.3
	V42.1z M210.7,52.2c0,0,1.1,1,1.9,1.9c-0.1,0.3-0.3,0.5-0.7,0.5H209v2c1-0.2,2.2-0.3,3.3-0.6l0.1,0.4c-0.8,0.6-2.7,1.8-4.8,2.9
	c-0.2,0.4-0.5,0.6-0.8,0.8l-1.7-3c0.8-0.5,1-0.7,1-1.2v-5.3l3.6,0.3c-0.1,0.3-0.3,0.6-0.8,0.6v2.1h0.7L210.7,52.2z M205.8,38
	c4,0.8,2.3,3.9,0.7,2.6c0-0.8-0.5-1.9-1.1-2.4L205.8,38z M205.8,47.2c0,0.6,0,1.2,0,2h2v-2.4h-1.9v0.4H205.8z M205.8,46.1h1.9v-2
	h-1.9V46.1z M212.4,44.1h-2v2h2V44.1z M210.4,49.3h2v-2.4h-2V49.3z M212,35l-0.2-0.8h5l1.5-1.9c0,0,1.7,1.2,2.7,2.3
	c-0.1,0.3-0.4,0.5-0.8,0.5L212,35L212,35z M219.8,56.7c0.7,0.3,0.8,0.6,0.8,1.1c0,1.1-1,1.6-3.9,1.6H215c-2.2,0-2.4-0.6-2.4-2.3
	v-6.5l3.6,0.3c-0.1,0.4-0.3,0.6-0.8,0.7v2.1h1l1.2-1.8c0,0,1.5,1.2,2.2,2.2c-0.1,0.3-0.3,0.5-0.8,0.5h-3.6v2c0,0.3,0.1,0.4,0.5,0.4
	h1h1c0.2,0,0.4-0.1,0.5-0.2c0.2-0.3,0.5-1,0.8-2h0.3L219.8,56.7z M214.6,37.3v0.8h0.1c4,0.8,2.3,3.8,0.7,2.6c0-0.6-0.3-1.6-0.8-2.1
	v2.5c0,0.2-0.8,0.6-1.8,0.7c0.3,0.5,0.2,1-0.1,1.5h3.8l1.1-1.5h-0.4v-4.5H214.6L214.6,37.3L214.6,37.3z M215.1,46.9v2.4h1.8v-2.4
	H215.1z"/>
<path class="st1" d="M247.5,31.8c0,0,2.4,1.8,3.8,3.1c-0.1,0.3-0.4,0.5-0.8,0.5h-3.7v20.3c0,2.4-0.7,4.1-5.4,4.5
	c-0.1-1.1-0.3-2.1-1-2.6s-1.7-0.9-3.8-1.2V56c0,0,4.9,0.3,5.8,0.3c0.6,0,0.8-0.2,0.8-0.7V35.5h-20l-0.2-0.8h22.4L247.5,31.8z
	 M238.4,52c0,0.2-1.8,0.8-2.9,0.8h-0.6v-2.5h-5.2v2.6c0,0.3-1.5,1-2.9,1h-0.5V39l3.5,1.5h4.8l1.6-1.8l3.3,2.5
	c-0.2,0.2-0.6,0.5-1.2,0.6L238.4,52L238.4,52z M235,49.5v-8.1h-5.2v8.1H235z"/>
<path class="st1" d="M258.5,42c-1.5,1.6-3.2,3-5.2,4.1l-0.3-0.4c2.2-2.2,3.7-5.2,4.7-8.2h-4l-0.2-0.8h5.2v-4.8l4.4,0.4
	c-0.1,0.4-0.3,0.7-1.1,0.8v3.5h0.6l1.6-2.2c0,0,1.9,1.6,3,2.6c-0.1,0.3-0.4,0.5-0.8,0.5h-4.5v1.3c7.2,1.1,4.5,6.1,1.9,4.1
	c-0.1-1.2-1-2.7-1.9-3.6v7.3c0,0.3-1.5,0.8-2.6,0.8h-0.6V42H258.5z M278.2,36.5c0,0,2,1.6,3.1,2.6c-0.1,0.3-0.3,0.5-0.8,0.5h-3.7
	v6.8c0,0.1-1,0.7-2.7,0.7h-0.6v-7.5h-3c-0.1,2.2-0.8,4.8-3.9,6.7l4.3,0.6c-0.1,0.5-0.5,0.7-1.2,0.8c-0.6,0.4-1.7,1-2.4,1.6h5.8
	l1.7-1.8l3.4,2.6c-0.2,0.2-0.6,0.5-1.1,0.6v8.5c0,0.2-1.8,0.8-2.9,0.8h-0.6v-1.7h-11.7v0.8c0,0.3-1.6,1-3,1h-0.5V47.9l3.7,1.5h3.5
	c0.1-0.7,0.2-1.7,0.3-2.5c-0.5,0.3-1,0.5-1.7,0.7l-0.2-0.3c3.1-2.5,3.5-5.7,3.5-8.5v-4.7l3.5,1c2.3-0.9,4.7-2.1,6-2.9l3.2,3.1
	c-0.3,0.3-1,0.3-1.9,0c-2,0.3-5,0.7-7.7,0.8v2.8h6L278.2,36.5z M261.5,50.1v3.2h11.7v-3.2H261.5z M273.2,57.5v-3.3h-11.7v3.3H273.2z
	"/>
<path class="st1" d="M9.9,44.6c4.5,2,6.1,3.7,6.1,7c0,3.9-3.1,6.5-8.3,6.5c-2.5,0-5.1-0.7-6.7-1.8l0.2-5h1.7L4,56.2
	c1,0.4,2,0.6,3.2,0.6c3.1,0,5-1.5,5-3.9c0-2.1-1-3.1-3.6-4.3L7.3,48c-3.8-1.7-5.9-3.6-5.9-7.1c0-3.9,3.2-6.2,7.8-6.2
	c2.4,0,4.3,0.6,5.8,1.7l-0.2,4.8h-1.7l-1.2-4.7c-0.7-0.3-1.3-0.4-2.3-0.4c-2.7,0-4.5,1.3-4.5,3.7c0,2.1,1.2,3.3,3.4,4.3L9.9,44.6z"
	/>
<path class="st1" d="M40,36.3l-3,0.4l-0.1,11.6c0,6.8-3,9.8-8.1,9.8c-5,0-8.5-2.5-8.5-9.2v-3.3c0-2.9,0-5.9-0.1-8.9l-2.7-0.3v-1
	h10.1v1l-3.1,0.2c-0.1,2.9-0.1,5.9-0.1,8.9v2.8c0,5.5,2,7.6,5.5,7.6c3.6,0,5.7-2.2,5.6-7.8l-0.1-11.2l-3.3-0.6v-1h8v1
	C40.1,36.3,40,36.3,40,36.3z"/>
<path class="st1" d="M64.1,36.3l-2.8,0.4l-0.1,21h-2.1L45.9,39L46,56.1l3.8,0.4v1h-8.1v-1l2.8-0.3v-19L44,36.6l-2.3-0.3v-1H48
	l11.8,16.4l-0.1-14.8l-3.8-0.5v-1H64L64.1,36.3L64.1,36.3L64.1,36.3z"/>
<path class="st1" d="M84.4,56.4c-2,1-4,1.8-6.7,1.8c-6.6,0-11.6-4.3-11.6-11.7c0-7.6,5.3-11.7,11.7-11.7c2.4,0,4.4,0.5,6.3,1.7
	L84,41.6h-1.8l-1.3-5.2c-0.8-0.3-1.8-0.5-2.7-0.5c-4.5,0-7.8,3.4-7.8,10.5s3.3,10.5,7.8,10.5c1,0,2-0.2,2.9-0.6l1.3-5.1h1.8
	L84.4,56.4z"/>
<path class="st1" d="M108.9,36.3l-3,0.4l-0.2,11.6c0,6.8-3,9.8-8.1,9.8c-5,0-8.5-2.5-8.5-9.2v-3.3c0-2.9,0-5.9-0.1-8.9l-2.7-0.3v-1
	h10.1v1l-3.1,0.2c-0.1,2.9-0.1,5.9-0.1,8.9v2.8c0,5.5,2,7.6,5.5,7.6c3.6,0,5.7-2.2,5.6-7.8l-0.1-11.2l-3.5-0.4v-1h8v0.8
	C108.7,36.3,108.9,36.3,108.9,36.3z"/>
<path class="st1" d="M122.1,36.5c-0.1,3-0.1,6.1-0.1,9.1v1.5c0,3,0,6,0.1,9.1l3.2,0.3v1h-10.8v-1l3.2-0.3c0-3,0-6,0-9.1v-1.5
	c0-3,0-6.1,0-9.1H113l-1.2,5h-1.7l0.2-6.2h19.1l0.2,6.2H128l-1.2-5H122.1z"/>
<path class="st1" d="M161.5,36.3l-3,0.4l-0.1,11.6c0,6.8-3,9.8-8.1,9.8c-5,0-8.5-2.5-8.5-9.2v-3.3c0-2.9,0-5.9-0.1-8.9l-2.7-0.3v-1
	h10.1v1l-3.1,0.2c-0.1,2.9-0.1,5.9-0.1,8.9v2.8c0,5.5,2,7.6,5.4,7.6c3.6,0,5.7-2.2,5.6-7.8l-0.1-11.2l-3.5-0.4v-1h8v0.8
	C161.3,36.3,161.5,36.3,161.5,36.3z"/>
<path class="st1" d="M184.2,36.2l-2.7,0.4l-7.1,21h-2.2l-7.6-21.2l-2.3-0.2v-1h10v1l-3.1,0.3l5.6,16.6l5.2-16.5l-3.1-0.4v-1h7.5v1
	C184.4,36.2,184.2,36.2,184.2,36.2z"/>
<path class="st1" d="M201.6,54.4c-0.1,0.2-1.3,0.8-2.3,0.8h-0.4v-2.5h-2.1v3.1c0,0.2-0.8,0.9-2.3,0.9H194V33.9l3.1,1.2h1.3l1.3-1.6
	l2.9,2.3c-0.2,0.2-0.6,0.5-1.2,0.6v17.8h0.2V54.4z M196.7,36.1v7.4h2.1v-7.4H196.7z M198.9,51.9v-7.6h-2.1v7.6H198.9z M215.1,44.1v2
	h1.6l1.3-1.3l2.8,2.1c-0.1,0.2-0.5,0.4-1,0.5v2.8c0,0.2-1.3,0.8-2.4,0.8h-0.5v-0.8h-11.2c-0.3,3.3-1.1,7.4-4.4,10.2l-0.3-0.3
	c1.9-3.9,2-8.8,2-12.8V42l0.2,0.1v-6.6l2.5,1h2.6l1.1-1.1l2.3,1.8c-0.1,0.2-0.4,0.3-0.8,0.4v3.3c0.6,0.1,1,0.2,1.5,0.4v-5.8l2.5,1
	h2.4l1.1-1.1l2.4,1.8c-0.1,0.2-0.4,0.3-0.9,0.4V41c0,0.1-0.6,0.5-1.1,0.6c0.6,0.5,1.7,1.3,2.4,2c-0.1,0.3-0.3,0.5-0.8,0.5h-5.1l0,0
	C215.3,44.1,215.1,44.1,215.1,44.1z M202.4,35l-0.2-0.8h5.5l1.3-1.8c0,0,1.6,1.2,2.5,2.2c-0.1,0.3-0.3,0.5-0.7,0.5h-8.4L202.4,35
	L202.4,35z M203.2,42.1l3,1.1h4.7c-0.1-0.6-0.4-1.2-0.8-1.8c-0.4,0.2-0.9,0.3-1.5,0.3h-0.2v-4.6h-2.9v4.1c0,0.2-1,0.7-2,0.7h-0.3
	V42.1z M210.7,52.2c0,0,1.1,1,1.9,1.9c-0.1,0.3-0.3,0.5-0.7,0.5H209v2c1-0.2,2.2-0.3,3.3-0.6l0.1,0.4c-0.8,0.6-2.7,1.8-4.8,2.9
	c-0.2,0.4-0.5,0.6-0.8,0.8l-1.7-3c0.8-0.5,1-0.7,1-1.2v-5.3l3.6,0.3c-0.1,0.3-0.3,0.6-0.8,0.6v2.1h0.7L210.7,52.2z M205.8,38
	c4,0.8,2.3,3.9,0.7,2.6c0-0.8-0.5-1.9-1.1-2.4L205.8,38z M205.8,47.2c0,0.6,0,1.2,0,2h2v-2.4h-1.9v0.4H205.8z M205.8,46.1h1.9v-2
	h-1.9V46.1z M212.4,44.1h-2v2h2V44.1z M210.4,49.3h2v-2.4h-2V49.3z M212,35l-0.2-0.8h5l1.5-1.9c0,0,1.7,1.2,2.7,2.3
	c-0.1,0.3-0.4,0.5-0.8,0.5L212,35L212,35z M219.8,56.7c0.7,0.3,0.8,0.6,0.8,1.1c0,1.1-1,1.6-3.9,1.6H215c-2.2,0-2.4-0.6-2.4-2.3
	v-6.5l3.6,0.3c-0.1,0.4-0.3,0.6-0.8,0.7v2.1h1l1.2-1.8c0,0,1.5,1.2,2.2,2.2c-0.1,0.3-0.3,0.5-0.8,0.5h-3.6v2c0,0.3,0.1,0.4,0.5,0.4
	h1h1c0.2,0,0.4-0.1,0.5-0.2c0.2-0.3,0.5-1,0.8-2h0.3L219.8,56.7z M214.6,37.3v0.8h0.1c4,0.8,2.3,3.8,0.7,2.6c0-0.6-0.3-1.6-0.8-2.1
	v2.5c0,0.2-0.8,0.6-1.8,0.7c0.3,0.5,0.2,1-0.1,1.5h3.8l1.1-1.5h-0.4v-4.5H214.6L214.6,37.3L214.6,37.3z M215.1,46.9v2.4h1.8v-2.4
	H215.1z"/>
<path class="st1" d="M247.5,31.8c0,0,2.4,1.8,3.8,3.1c-0.1,0.3-0.4,0.5-0.8,0.5h-3.7v20.3c0,2.4-0.7,4.1-5.4,4.5
	c-0.1-1.1-0.3-2.1-1-2.6s-1.7-0.9-3.8-1.2V56c0,0,4.9,0.3,5.8,0.3c0.6,0,0.8-0.2,0.8-0.7V35.5h-20l-0.2-0.8h22.4L247.5,31.8z
	 M238.4,52c0,0.2-1.8,0.8-2.9,0.8h-0.6v-2.5h-5.2v2.6c0,0.3-1.5,1-2.9,1h-0.5V39l3.5,1.5h4.8l1.6-1.8l3.3,2.5
	c-0.2,0.2-0.6,0.5-1.2,0.6L238.4,52L238.4,52z M235,49.5v-8.1h-5.2v8.1H235z"/>
<path class="st1" d="M258.5,42c-1.5,1.6-3.2,3-5.2,4.1l-0.3-0.4c2.2-2.2,3.7-5.2,4.7-8.2h-4l-0.2-0.8h5.2v-4.8l4.4,0.4
	c-0.1,0.4-0.3,0.7-1.1,0.8v3.5h0.6l1.6-2.2c0,0,1.9,1.6,3,2.6c-0.1,0.3-0.4,0.5-0.8,0.5h-4.5v1.3c7.2,1.1,4.5,6.1,1.9,4.1
	c-0.1-1.2-1-2.7-1.9-3.6v7.3c0,0.3-1.5,0.8-2.6,0.8h-0.6V42H258.5z M278.2,36.5c0,0,2,1.6,3.1,2.6c-0.1,0.3-0.3,0.5-0.8,0.5h-3.7
	v6.8c0,0.1-1,0.7-2.7,0.7h-0.6v-7.5h-3c-0.1,2.2-0.8,4.8-3.9,6.7l4.3,0.6c-0.1,0.5-0.5,0.7-1.2,0.8c-0.6,0.4-1.7,1-2.4,1.6h5.8
	l1.7-1.8l3.4,2.6c-0.2,0.2-0.6,0.5-1.1,0.6v8.5c0,0.2-1.8,0.8-2.9,0.8h-0.6v-1.7h-11.7v0.8c0,0.3-1.6,1-3,1h-0.5V47.9l3.7,1.5h3.5
	c0.1-0.7,0.2-1.7,0.3-2.5c-0.5,0.3-1,0.5-1.7,0.7l-0.2-0.3c3.1-2.5,3.5-5.7,3.5-8.5v-4.7l3.5,1c2.3-0.9,4.7-2.1,6-2.9l3.2,3.1
	c-0.3,0.3-1,0.3-1.9,0c-2,0.3-5,0.7-7.7,0.8v2.8h6L278.2,36.5z M261.5,50.1v3.2h11.7v-3.2H261.5z M273.2,57.5v-3.3h-11.7v3.3H273.2z
	"/>
<g>
	<path class="st1" d="M7,84c5.1,2.6,2.7,6.5,0.8,4.7C7.9,87.5,7.5,86,7,84.9v14.6c0,0.3-1.2,1.1-2.3,1.1H4.1v-11
		c-0.8,1.6-1.9,3-3.1,4.4l-0.4-0.3c1.6-3.2,2.6-7.5,3.1-11.6H1.1l-0.2-0.8h3.3v-7L8,74.6C8,75,7.8,75.2,7,75.3v5.7l1.3-1.9
		c0,0,1.5,1.4,2.4,2.4c-0.1,0.3-0.3,0.4-0.7,0.4H7V84z M24.3,96.5c0,0,1.9,1.5,3.1,2.5c-0.1,0.3-0.4,0.4-0.8,0.4H8.7l-0.2-0.8h14.1
		L24.3,96.5z M10,77.3l-0.2-0.8h12.6l1.6-2.1c0,0,1.8,1.5,2.9,2.5c-0.1,0.3-0.3,0.4-0.8,0.4H17c-0.4,1.1-1,2.6-1.5,3.8h1.4l1.5-1.6
		l2.7,2.3c-0.2,0.2-0.6,0.4-1.2,0.5c-0.2,10-0.5,13.3-1.8,14.6c-0.8,0.8-1.9,1.2-3.2,1.2c0-0.9-0.1-1.6-0.4-2
		c-0.3-0.4-1-0.7-1.9-0.9l0-0.4c0.8,0.1,1.9,0.1,2.4,0.1c0.4,0,0.6-0.1,0.9-0.3c0.8-0.7,1-4.4,1.2-12.8h-1.9l-1.2,1.3l-2.8-1.9
		c0.3-0.2,0.7-0.5,1.2-0.6c0.5-1,1-2.4,1.3-3.3H10z M13.5,93.2v-1h-1.3v1.4c0,0.2-0.9,0.7-1.8,0.7h-0.3V83.5l2.2,1h1l1-1l2.1,1.6
		c-0.1,0.1-0.4,0.3-0.8,0.4v7.2c0,0.2-1.1,0.6-1.8,0.6H13.5z M13.5,91.4v-6.1h-1.3v6.1H13.5z M27.1,83.2c-0.2,0.3-0.4,0.3-1,0.4
		c-0.2,1.8-0.6,3.6-1.3,5.3c3.4,4.1,1.7,7.6-0.5,5.8c-0.1-0.9-0.4-1.9-0.8-2.9c-1,1.6-2.2,3-3.9,4.2l-0.3-0.3c1.5-1.7,2.4-3.9,3-6.2
		c-0.7-1.4-1.6-2.8-2.4-3.9l0.4-0.2c1,0.6,1.8,1.2,2.5,1.7c0.2-1.2,0.4-2.5,0.4-3.8h-2.8l-0.4-0.8h3l1.4-1.5L27.1,83.2z"/>
	<path class="st1" d="M34.9,85.4c0,4.8-0.3,11.1-5.7,15.2l-0.3-0.2c2.6-4.4,2.7-10,2.7-15v-8.6l3.9,1.3h7.3
		c-0.1-0.1-0.2-0.1-0.3-0.2c-0.3-1.3-1.4-2.9-2.4-3.7l0.2-0.2c5.8-0.1,5.8,3.2,4.1,4h6l1.8-2.4c0,0,1.9,1.6,3.1,2.7
		c-0.1,0.3-0.4,0.5-0.8,0.5H34.9V85.4z M52.2,91.3c-0.2,0.3-0.5,0.4-1.2,0.4c-1.1,1.7-2.5,3.1-4.1,4.2c2.6,0.7,5.6,1,8.7,1.2v0.3
		c-1.4,0.4-2.2,1.5-2.6,3.1c-3.5-0.6-6.5-1.5-9-3c-3.2,1.6-7.2,2.6-11.8,3l-0.1-0.4c4-0.8,7.4-2.2,10.2-3.9c-1.5-1.3-2.8-3-3.7-5.2
		h-1.9l-0.3-0.8h11l1.9-1.7L52.2,91.3z M46.1,88.8v-0.9h-4.4v0.7c0,0.2-1.4,0.7-2.6,0.7h-0.6v-5.8h-3.1l-0.2-0.8h3.3v-3.1l4.1,0.4
		c-0.1,0.4-0.3,0.6-0.9,0.7v2h4.4v-3.1l4.1,0.4c-0.1,0.4-0.3,0.6-1,0.7v2h1.3l1.5-2.2c0,0,1.7,1.5,2.6,2.6c-0.1,0.3-0.4,0.5-0.8,0.5
		h-4.6v4.6c0,0.2-1.4,0.7-2.6,0.7H46.1z M39.1,91.1c1.2,1.7,2.9,3,4.9,3.9c1.4-1.1,2.5-2.4,3.3-3.9H39.1z M46.1,87.1v-3.6h-4.4v3.6
		H46.1z"/>
	<path class="st1" d="M68.6,77.5c-0.2,0.3-0.6,0.4-1.3,0.4c-1,1.7-2.7,4.7-4.2,6.5c3.2,1.9,4.5,4.6,4.5,6.9c0,2.8-1.1,4.4-4.3,4.4
		c0-0.9-0.1-2.1-0.4-2.4c-0.2-0.3-0.7-0.6-1.3-0.7v-0.4h1.9c0.3,0,0.4,0,0.6-0.2c0.4-0.2,0.6-0.7,0.6-1.6c0-1.9-0.6-4.1-2.2-6
		c0.5-1.8,1.2-5.2,1.6-7.4h-2.8v22.6c0,0.2-0.9,1-2.5,1h-0.6V74.9l3.5,1.3h2.2l1.7-1.6L68.6,77.5z M80.6,77.4c0,0,2,1.6,3.1,2.8
		c-0.1,0.3-0.4,0.5-0.8,0.5h-8.6c-0.1,1.4-0.1,2.8-0.3,4.2h4l1.7-1.7l3,2.5c-0.2,0.3-0.6,0.4-1.2,0.5c-0.3,8-1,11.8-2.6,13.1
		c-1,0.8-2.1,1.2-3.8,1.2c0-1-0.1-1.8-0.5-2.2c-0.5-0.5-1.5-0.9-2.6-1.2v-0.4c1.2,0.1,3,0.2,3.6,0.2c0.5,0,0.7-0.1,1-0.3
		c0.9-0.8,1.4-4.6,1.7-11H74c-0.8,6.4-3.1,11.7-9.8,15l-0.2-0.3c5.8-5.1,6.8-12,6.8-19.7h-4.2l-0.2-0.8h7.8
		c-0.4-0.1-0.8-0.3-1.2-0.6c0.1-1.6-0.6-3.5-1.6-4.7l0.2-0.1c6.1,1.3,5.3,5.1,3.3,5.5h4L80.6,77.4z"/>
	<path class="st1" d="M88.4,83.4c-0.9,0.6-1.9,1.2-2.8,1.7l-0.3-0.3c1.9-1.9,3.7-4.7,4.6-6.7c-1.3,0.8-2.8,1.5-4.2,2l-0.3-0.3
		c1.8-1.5,3.8-4,4.7-5.6l3.2,2c-0.2,0.3-0.4,0.4-1.1,0.3c-0.6,0.5-1.3,1-2.1,1.5l3.1,1.7c-0.2,0.3-0.4,0.4-1.1,0.3
		c-0.4,0.5-1,1.1-1.7,1.7l1.4,0.5c-0.1,0.3-0.4,0.4-0.9,0.5V89c-0.1,0.2-1.2,0.6-2.2,0.6h-0.5V83.4z M85.8,99.6
		c2.4-1.4,5-3.7,6.2-5.5l3.5,2.2c-0.2,0.3-0.4,0.4-1.1,0.3c-1.9,1.4-5.2,2.7-8.4,3.3L85.8,99.6z M108,90.9c0,0,1.9,1.4,3.1,2.4
		c-0.1,0.3-0.4,0.5-0.8,0.5H100v6.2c0,0.1-1,0.6-2.7,0.6h-0.6v-6.8H86.2L86,92.9h20.3L108,90.9z M111.5,77c-0.2,0.2-0.6,0.5-1.2,0.6
		v6.6c0,1.7-0.3,2.7-2.9,2.9c-0.1-0.7-0.1-1.3-0.3-1.6c-0.2-0.3-0.5-0.6-1.3-0.7v-0.4c0,0,1.1,0.1,1.5,0.1c0.3,0,0.4-0.1,0.4-0.5
		v-6.8h-2.1v11.2l0.2-0.2c0,0,1.8,1.3,3,2.3c-0.1,0.3-0.4,0.4-0.8,0.4H89.3L89,90.1h15.1l1.1-1.3c-0.4,0.2-1,0.4-1.7,0.4h-0.4V75.1
		l2.9,1.2h1.4l1.2-1.4L111.5,77z M100.9,78.4c0,0,1.4,1.2,2.2,2c-0.1,0.3-0.3,0.5-0.7,0.5h-3.3V83h0.8l1.1-1.5c0,0,1.2,1,1.9,1.8
		c-0.1,0.3-0.3,0.4-0.7,0.4h-3V86c1.2-0.2,2.4-0.3,3.7-0.5l0.1,0.5c-1.9,0.6-5.1,1.7-8.7,2.8c-0.2,0.2-0.4,0.4-0.6,0.4l-1.1-2.3
		c0.5-0.3,0.6-0.5,0.6-0.9v-4.1l2.9,0.3c0,0.3-0.3,0.5-0.8,0.6v3.7l1.3-0.2v-5.4h-3.7l-0.2-0.8h4v-2.3h-1.3c-0.6,0.7-1.3,1.3-2,1.7
		l-0.4-0.2c0.6-1.3,1.2-3.3,1.5-5.2l3.4,1c-0.1,0.3-0.4,0.6-1,0.6c-0.3,0.4-0.5,0.8-0.8,1.2h3l1.3-1.7c0,0,1.4,1.2,2.3,2.1
		c-0.1,0.3-0.4,0.5-0.7,0.5h-2.6v2.3h0.6L100.9,78.4z M101.6,94.7c9.8-0.1,9.5,6,6.2,5.1c-1.4-1.7-4.3-3.8-6.4-4.9L101.6,94.7z"/>
	<path class="st1" d="M113.4,80.7c7.1,1,4.5,6.3,1.8,4.2c-0.2-1.4-1.1-3.1-2.1-4.1L113.4,80.7z M121.7,79.1
		c-1.1,3.5-3.1,9.9-3.5,11.4c-0.3,0.9-0.4,1.9-0.4,2.6c0.1,1.5,1.2,2.6,1.1,5.1c-0.1,1.4-1,2.3-2.2,2.3c-0.6,0-1.2-0.4-1.4-1.5
		c0.5-3,0.4-5.6-0.3-6.1c-0.4-0.3-0.9-0.4-1.5-0.5V92h1.3c0.4,0,0.5,0,0.8-0.6c0.6-1,0.6-1,5.7-12.5L121.7,79.1z M115.3,74.4
		c7.4,1.2,4.9,6.5,2.1,4.5c-0.3-1.5-1.4-3.2-2.3-4.3L115.3,74.4z M138.2,97c0,0,1.3,1.5,2.1,2.4c-0.1,0.3-0.3,0.5-0.7,0.5h-20.5
		l-0.2-0.8h2.7V87.9l3.2,1.2h9.2l1.3-1.7l3.2,2.2c-0.2,0.3-0.6,0.4-1.3,0.6v8.3L138.2,97z M125.5,87c0,0.2-1,0.7-2.5,0.7h-0.5V74.9
		l3.3,1.3h7.6l1.5-1.7l2.9,2.2c-0.2,0.3-0.5,0.5-1.1,0.5v9.5c0,0.1-1,0.7-2.6,0.7h-0.6v-1.5h-8V87z M124.4,99.1h1.6V90h-1.6V99.1z
		 M125.5,77v8.1h8V77H125.5z M131.7,78.2c-0.1,0.3-0.3,0.5-1,0.5c-0.2,0.6-0.5,1.3-0.9,1.9c4.7,1,3.2,4.4,1.3,3.2
		c-0.3-0.8-1-1.8-1.7-2.6c-0.9,1.2-2.1,2.3-3.6,3l-0.2-0.4c1.8-1.6,2.6-4.2,2.8-6.6L131.7,78.2z M130.1,90h-1.6v9.1h1.6V90z
		 M132.6,90v9.1h1.7V90H132.6z"/>
	<path class="st1" d="M152.4,81.2c0,0,1.9,1.6,3,2.6c-0.1,0.3-0.4,0.4-0.8,0.4H150v1.9c7.1,2.1,4.4,7,1.9,5c-0.2-1.4-1-3-1.9-4.3
		v12.7c0,0.2-1,0.9-2.6,0.9h-0.6V90.2c-1.4,2.2-3.2,4.2-5.3,5.9l-0.3-0.3c2.3-3.1,3.9-7.4,4.8-11.5h-4.1l-0.2-0.8h5.2v-5
		c-1.7,0.2-3.5,0.4-5.1,0.5l-0.1-0.4c3.5-1,7.8-3,10-4.4l3.5,3.2c-0.3,0.3-1,0.3-1.9,0c-0.9,0.2-2,0.5-3.2,0.7v5.5h0.8L152.4,81.2z
		 M167.2,79.6c-0.2,0.3-0.6,0.5-1.2,0.6v17.2c-0.1,0.2-1.6,0.9-2.8,0.9h-0.5v-3h-4v2.3c0,0.4-1.3,1.2-2.7,1.2h-0.5V77.4l3.4,1.4h3.6
		l1.6-1.8L167.2,79.6z M162.8,94.5V79.6h-4v14.9H162.8z"/>
	<path class="st1" d="M181.1,77.5c-0.2,0.3-0.6,0.4-1.3,0.4c-1,1.7-2.7,4.7-4.2,6.5c3.2,1.9,4.5,4.6,4.5,6.9c0,2.8-1.1,4.4-4.3,4.4
		c0-0.9-0.1-2.1-0.4-2.4c-0.2-0.3-0.7-0.6-1.3-0.7v-0.4h1.9c0.3,0,0.4,0,0.6-0.2c0.4-0.2,0.6-0.7,0.6-1.6c0-1.9-0.6-4.1-2.2-6
		c0.5-1.8,1.2-5.2,1.6-7.4h-2.8v22.6c0,0.2-0.9,1-2.5,1h-0.6V74.9l3.5,1.3h2.2l1.7-1.6L181.1,77.5z M193.1,77.4c0,0,2,1.6,3.1,2.8
		c-0.1,0.3-0.4,0.5-0.8,0.5h-8.6c-0.1,1.4-0.1,2.8-0.3,4.2h4l1.7-1.7l3,2.5c-0.2,0.3-0.6,0.4-1.2,0.5c-0.3,8-1,11.8-2.6,13.1
		c-1,0.8-2.1,1.2-3.8,1.2c0-1-0.1-1.8-0.5-2.2c-0.5-0.5-1.5-0.9-2.6-1.2v-0.4c1.2,0.1,3,0.2,3.6,0.2c0.5,0,0.7-0.1,1-0.3
		c0.9-0.8,1.4-4.6,1.7-11h-4.4c-0.8,6.4-3.1,11.7-9.8,15l-0.2-0.3c5.8-5.1,6.8-12,6.8-19.7H179l-0.2-0.8h7.8
		c-0.4-0.1-0.8-0.3-1.2-0.6c0.1-1.6-0.6-3.5-1.6-4.7l0.2-0.1c6.1,1.3,5.3,5.1,3.3,5.5h4L193.1,77.4z"/>
	<path class="st1" d="M205.8,95.1c-0.1,0.2-1.3,0.8-2.2,0.8h-0.4v-2.4h-2v2.9c0,0.2-0.8,0.8-2.1,0.8h-0.5V76l3,1.2h1.3l1.3-1.5
		l2.7,2.1c-0.2,0.2-0.6,0.5-1.2,0.6V95.1z M201.2,78v6.9h2V78H201.2z M203.2,92.8v-7.1h-2v7.1H203.2z M218.4,85.5v1.9h1.4l1.2-1.3
		l2.6,1.9c-0.1,0.2-0.5,0.4-1,0.5v2.6c0,0.2-1.3,0.8-2.2,0.8H220v-0.8h-10.4c-0.3,3.1-1.1,6.9-4.1,9.5l-0.3-0.3
		c1.8-3.7,1.8-8.2,1.8-11.9l0-4.9l0.2,0.1v-6.2l2.3,1h2.4l1.1-1.1l2.2,1.7c-0.1,0.2-0.4,0.3-0.8,0.4v3.1c0.6,0.1,1,0.2,1.3,0.4v-5.4
		l2.3,1h2.2l1.1-1.1l2.2,1.7c-0.1,0.2-0.4,0.3-0.8,0.4v3.2c0,0.1-0.5,0.4-1.1,0.6c0.6,0.4,1.6,1.2,2.3,1.9c-0.1,0.3-0.3,0.4-0.7,0.4
		H218.4z M206.6,77l-0.2-0.8h5.1l1.3-1.7c0,0,1.5,1.2,2.4,2c-0.1,0.3-0.3,0.4-0.7,0.4H206.6z M207.3,83.6l2.8,1.1h4.4
		c-0.1-0.6-0.4-1.2-0.7-1.6c-0.4,0.2-0.9,0.3-1.3,0.3h-0.4v-4.2h-2.7V83c0,0.2-1,0.7-1.9,0.7H207.3z M214.3,93.1c0,0,1.1,1,1.8,1.8
		c-0.1,0.3-0.3,0.5-0.7,0.5h-2.7v1.9c1-0.2,2-0.3,3.1-0.5l0.1,0.4c-0.8,0.6-2.5,1.7-4.4,2.7c-0.2,0.4-0.5,0.6-0.7,0.8l-1.5-2.8
		c0.8-0.5,0.9-0.7,0.9-1.2v-5l3.4,0.3c-0.1,0.3-0.3,0.5-0.8,0.6v2h0.6L214.3,93.1z M209.8,79.8c3.7,0.8,2.1,3.7,0.7,2.4
		c0-0.8-0.5-1.7-1-2.2L209.8,79.8z M209.7,88.4c0,0.6,0,1.2,0,1.9h1.8v-2.2h-1.8V88.4z M209.7,87.4h1.8v-1.9h-1.8V87.4z M215.8,85.5
		H214v1.9h1.8V85.5z M214,90.3h1.8v-2.2H214V90.3z M215.5,77l-0.2-0.8h4.7l1.3-1.8c0,0,1.6,1.2,2.5,2.1c-0.1,0.3-0.4,0.4-0.8,0.4
		H215.5z M222.9,97.3c0.7,0.3,0.8,0.6,0.8,1c0,1-1,1.5-3.7,1.5h-1.6c-2,0-2.3-0.6-2.3-2.2v-6.1l3.4,0.3c-0.1,0.4-0.3,0.6-0.8,0.7
		v1.9h0.9l1.2-1.7c0,0,1.3,1.2,2.1,2c-0.1,0.3-0.3,0.5-0.7,0.5h-3.4v1.8c0,0.3,0.1,0.4,0.5,0.4h1h0.9c0.2,0,0.4-0.1,0.5-0.2
		c0.2-0.3,0.5-1,0.8-1.9h0.3L222.9,97.3z M218,79.2l0,0.7l0.1,0c3.7,0.8,2.1,3.6,0.7,2.4c0-0.6-0.3-1.4-0.7-1.9v2.4
		c0,0.2-0.8,0.6-1.6,0.6c0.3,0.5,0.2,1-0.1,1.3h3.5l1.1-1.4h-0.4v-4.1H218z M218.4,88.1v2.2h1.7v-2.2H218.4z"/>
	<path class="st1" d="M240.5,77.3c-0.3,0.3-1,0.3-1.8,0c-3.3,0.7-8.5,1.1-13,1.1l-0.1-0.4c4-0.8,9-2.4,11.6-3.7L240.5,77.3z
		 M241.1,85.4c-0.2,0.2-0.5,0.3-1.2,0.3c-1.2,0.7-2.7,1.5-4.2,2.2l0.2,0c-0.1,0.4-0.3,0.6-0.9,0.7v1.2c1.8-0.3,3.8-0.5,5.7-0.8
		l0.1,0.4c-1.5,0.6-3.4,1.3-5.8,2.1V97c0,2.2-0.5,3.3-4.1,3.6c-0.1-0.9-0.2-1.6-0.6-2.1c-0.4-0.5-1-0.8-2.3-1v-0.4
		c0,0,2.8,0.2,3.3,0.2c0.4,0,0.5-0.1,0.5-0.4v-4.1c-1.2,0.4-2.4,0.8-3.8,1.2c-0.2,0.4-0.5,0.6-0.8,0.6l-1.5-3.5
		c1.3-0.1,3.5-0.4,6.1-0.7v-2.7l2.4,0.2c0.8-0.8,1.6-1.7,2.2-2.5h-9.7l-0.3-0.8h7.6l-0.1,0c1-1.5,2.1-4,2.9-6.3l3.8,1.7
		c-0.1,0.3-0.5,0.5-1.2,0.5c-1.5,1.6-3.3,3.1-4.9,4.1h1.9l1.6-1.6L241.1,85.4z M226.6,79.2c5.9,1.7,3.3,6.1,1.2,4.2
		c-0.1-1.4-0.8-3-1.4-4L226.6,79.2z M230.7,78.6c5.8,2,3,6.2,0.9,4.2c0-1.4-0.6-3-1.2-4.1L230.7,78.6z M251.2,96.4
		c0.8,0.5,1.1,0.9,1.1,1.5c0,1.5-1.3,2.2-5,2.2h-2.1c-2.6,0-3.3-0.7-3.3-3.1v-22l4.5,0.5c-0.1,0.4-0.3,0.7-1,0.8v19.6
		c0,0.6,0.2,0.8,0.8,0.8h1.4h1.3c0.3,0,0.4-0.1,0.6-0.4c0.3-0.6,0.8-2.6,1.3-4.6h0.3L251.2,96.4z"/>
</g>
</svg>
