<?xml version="1.0" encoding="utf-8"?>
<!-- Generator: Adobe Illustrator 26.0.3, SVG Export Plug-In . SVG Version: 6.00 Build 0)  -->
<svg version="1.1" id="name-we.svg" xmlns="http://www.w3.org/2000/svg" xmlns:xlink="http://www.w3.org/1999/xlink" x="0px"
	 y="0px" viewBox="0 0 360 98.6" style="enable-background:new 0 0 360 98.6;" xml:space="preserve">
<style type="text/css">
	.st0{opacity:0.8;fill-rule:evenodd;clip-rule:evenodd;fill:#8598A2;enable-background:new    ;}
	.st1{fill:#5B6C73;}
</style>
<path id="Whitening_UV_essence" class="st0" d="M0,0.7l4.3,10.7l2.6-7.1l2.6,7.1L14,0.7h-1.7L9.6,7.4L7,0.2L4.3,7.4L1.7,0.7H0L0,0.7
	z M18.3,0.7h-1.5v10h1.5V6.1h4.3v4.6h1.5v-10h-1.5v4h-4.3V0.7z M28,0.7v10h1.5v-10C29.5,0.7,28,0.7,28,0.7z M38.5,2.1V0.7h-6.1v1.4
	h2.3v8.6h1.5V2.1H38.5L38.5,2.1z M46.9,0.7h-5.5v10h5.5V9.2h-4V6.1h3.9V4.6h-3.9V2.1h4V0.7L46.9,0.7z M51.9,10.7v-7l7.3,7.6V0.7
	h-1.5v6.9L50.3,0v10.7H51.9L51.9,10.7z M63,0.7v10h1.5v-10C64.5,0.7,63,0.7,63,0.7z M70,10.7v-7l7.3,7.6V0.7h-1.5v6.9L68.5,0v10.7
	H70L70,10.7z M86.3,6.9h2.5c-0.1,0.6-0.4,1.3-0.8,1.7c-0.6,0.6-1.4,0.9-2.2,0.9c-0.9,0-1.9-0.3-2.5-1c-1.4-1.6-1.4-4,0-5.5
	C84,2.3,85,1.9,85.9,2c0.6,0,1.2,0.1,1.8,0.4c0.5,0.3,0.9,0.7,1.2,1.1l1.2-0.9c-0.4-0.6-1-1.1-1.6-1.5c-2.6-1.4-5.8-0.4-7.2,2.2
	c-1.1,2-0.7,4.5,0.9,6.2c0.9,0.9,2.1,1.4,3.4,1.4s2.5-0.4,3.4-1.3c1-1.1,1.6-2.6,1.5-4.1v0h-4.1v1.4H86.3z M98.9,0.7v6.4
	c0,1,0.3,1.9,0.9,2.6c1.5,1.5,3.9,1.6,5.5,0.1l0.1-0.1c0.6-0.7,1-1.6,0.9-2.6V0.7h-1.5v6c0,0.6-0.1,1.2-0.3,1.7c-0.6,1-2,1.3-3,0.7
	c-0.3-0.2-0.5-0.4-0.7-0.7c-0.3-0.5-0.4-1.1-0.3-1.7v-6L98.9,0.7L98.9,0.7z M109,0.7l4.4,10.7l4.4-10.7h-1.7l-2.8,7l-2.8-7L109,0.7
	L109,0.7z M131.2,0.7h-5.5v10h5.5V9.2h-4V6.1h3.9V4.6h-3.9V2.1h4L131.2,0.7L131.2,0.7z M140.2,2.2c-0.2-0.4-0.5-0.7-0.8-1
	c-0.6-0.5-1.3-0.7-2-0.7c-1.5-0.1-2.8,1-2.9,2.5c0,0.1,0,0.1,0,0.2c0.1,1.2,0.9,2.2,2,2.5l1,0.4c0.8,0.2,1.4,0.9,1.4,1.7
	c0,0.9-0.6,1.6-1.5,1.7h-0.1c-0.5,0-1-0.2-1.3-0.6c-0.3-0.4-0.4-0.8-0.4-1.3l-1.5,0.3c0.1,0.7,0.3,1.4,0.8,1.9
	c0.6,0.7,1.5,1.1,2.4,1c1.7,0.1,3.2-1.2,3.2-2.9c0-0.1,0-0.2,0-0.3c0-1.1-0.5-2.2-2.4-2.9l-1-0.4c-0.6-0.1-1-0.6-1.1-1.2
	c0-0.7,0.6-1.2,1.3-1.2h0.1c0.4,0,0.8,0.1,1.1,0.4c0.2,0.2,0.4,0.4,0.5,0.6L140.2,2.2z M149.5,2.2c-0.2-0.4-0.5-0.7-0.8-1
	c-0.6-0.5-1.3-0.7-2-0.7c-1.5-0.1-2.8,1-2.9,2.5c0,0.1,0,0.1,0,0.2c0.1,1.2,0.9,2.2,2,2.5l1,0.4c0.8,0.2,1.4,0.9,1.4,1.7
	c0,0.9-0.6,1.6-1.5,1.7h-0.1c-0.5,0-1-0.2-1.3-0.6c-0.3-0.4-0.4-0.8-0.4-1.3l-1.5,0.3c0.1,0.7,0.3,1.4,0.8,1.9
	c0.6,0.7,1.5,1.1,2.4,1c1.7,0.1,3.2-1.2,3.2-2.9c0-0.1,0-0.2,0-0.3c0-1.1-0.5-2.2-2.4-2.9l-1-0.4c-0.6-0.1-1-0.6-1.1-1.2
	c0-0.7,0.6-1.2,1.3-1.2h0.1c0.4,0,0.8,0.1,1.1,0.4c0.2,0.2,0.4,0.4,0.5,0.6L149.5,2.2z M158.7,0.7h-5.5v10h5.5V9.2h-4V6.1h3.9V4.6
	h-3.9V2.1h4V0.7L158.7,0.7z M163.7,10.7v-7l7.3,7.6V0.7h-1.5v6.9L162.2,0v10.7H163.7z M182.3,1.2c-0.8-0.5-1.7-0.8-2.7-0.7
	c-1.3-0.1-2.6,0.4-3.6,1.3c-1.1,1-1.6,2.4-1.6,3.9c0,1.4,0.5,2.8,1.6,3.8c1,0.9,2.2,1.4,3.5,1.4c1,0,1.9-0.3,2.7-0.8V8.3
	c-0.7,0.7-1.7,1.1-2.7,1.1c-2.1-0.1-3.7-1.8-3.7-3.9c0.1-2,1.7-3.6,3.7-3.7c1,0,2,0.4,2.7,1.1L182.3,1.2L182.3,1.2z M191.2,0.7h-5.5
	v10h5.5V9.2h-4V6.1h3.9V4.6h-3.9V2.1h4V0.7L191.2,0.7z"/>
<path class="st1" d="M9.7,41.7c4.5,2,6.1,3.7,6.1,7c0,3.9-3.1,6.5-8.3,6.5c-2.5,0-5.1-0.7-6.7-1.8l0.2-5h1.7l1.1,4.9
	c1,0.4,2,0.6,3.2,0.6c3.1,0,5-1.5,5-3.9c0-2.1-1-3.1-3.6-4.3l-1.3-0.6c-3.8-1.7-5.9-3.6-5.9-7.1c0-3.9,3.2-6.2,7.8-6.2
	c2.4,0,4.3,0.6,5.8,1.7l-0.2,4.8h-1.7l-1.2-4.7c-0.7-0.3-1.3-0.4-2.3-0.4c-2.7,0-4.5,1.3-4.5,3.7c0,2.1,1.2,3.3,3.4,4.3L9.7,41.7z"
	/>
<path class="st1" d="M39.8,33.4l-3,0.4l-0.1,11.6c0,6.8-3,9.8-8.1,9.8c-5,0-8.5-2.5-8.5-9.2v-3.3c0-2.9,0-5.9-0.1-8.9l-2.7-0.3v-1
	h10.1v1l-3.1,0.2c-0.1,2.9-0.1,5.9-0.1,8.9v2.8c0,5.5,2,7.6,5.5,7.6c3.6,0,5.7-2.2,5.6-7.8L35.2,34l-3.3-0.6v-1h8v1H39.8z"/>
<path class="st1" d="M63.9,33.4l-2.8,0.4l-0.1,21h-2.1L45.7,36.1l0.1,17.1l3.8,0.4v1h-8.1v-1l2.8-0.3v-19l-0.5-0.6l-2.3-0.3v-1h6.3
	l11.8,16.4L59.5,34l-3.8-0.5v-1h8.1L63.9,33.4L63.9,33.4L63.9,33.4z"/>
<path class="st1" d="M84.2,53.5c-2,1-4,1.8-6.7,1.8c-6.6,0-11.6-4.3-11.6-11.7c0-7.6,5.3-11.7,11.7-11.7c2.4,0,4.4,0.5,6.3,1.7
	l-0.1,5.1H82l-1.3-5.2C79.9,33.2,78.9,33,78,33c-4.5,0-7.8,3.4-7.8,10.5S73.5,54,78,54c1,0,2-0.2,2.9-0.6l1.3-5.1H84L84.2,53.5z"/>
<path class="st1" d="M108.7,33.4l-3,0.4l-0.2,11.6c0,6.8-3,9.8-8.1,9.8c-5,0-8.5-2.5-8.5-9.2v-3.3c0-2.9,0-5.9-0.1-8.9l-2.7-0.3v-1
	h10.1v1l-3.1,0.2C93,36.6,93,39.6,93,42.6v2.8c0,5.5,2,7.6,5.5,7.6c3.6,0,5.7-2.2,5.6-7.8L104,34l-3.5-0.4v-1h8v0.8
	C108.5,33.4,108.7,33.4,108.7,33.4z"/>
<path class="st1" d="M121.9,33.6c-0.1,3-0.1,6.1-0.1,9.1v1.5c0,3,0,6,0.1,9.1l3.2,0.3v1h-10.8v-1l3.2-0.3c0-3,0-6,0-9.1v-1.5
	c0-3,0-6.1,0-9.1h-4.7l-1.2,5h-1.7l0.2-6.2h19.1l0.2,6.2h-1.6l-1.2-5H121.9z"/>
<path class="st1" d="M161.3,33.4l-3,0.4l-0.1,11.6c0,6.8-3,9.8-8.1,9.8c-5,0-8.5-2.5-8.5-9.2v-3.3c0-2.9,0-5.9-0.1-8.9l-2.7-0.3v-1
	h10.1v1l-3.1,0.2c-0.1,2.9-0.1,5.9-0.1,8.9v2.8c0,5.5,2,7.6,5.4,7.6c3.6,0,5.7-2.2,5.6-7.8L156.6,34l-3.5-0.4v-1h8v0.8
	C161.1,33.4,161.3,33.4,161.3,33.4z"/>
<path class="st1" d="M184,33.3l-2.7,0.4l-7.1,21H172l-7.6-21.2l-2.3-0.2v-1h10v1l-3.1,0.3l5.6,16.6l5.2-16.5l-3.1-0.4v-1h7.5v1
	C184.2,33.3,184,33.3,184,33.3z"/>
<path class="st1" d="M201.4,51.5c-0.1,0.2-1.3,0.8-2.3,0.8h-0.4v-2.5h-2.1v3.1c0,0.2-0.8,0.9-2.3,0.9h-0.5V31l3.1,1.2h1.3l1.3-1.6
	l2.9,2.3c-0.2,0.2-0.6,0.5-1.2,0.6v17.8h0.2V51.5z M196.5,33.2v7.4h2.1v-7.4H196.5z M198.7,49v-7.6h-2.1V49H198.7z M214.9,41.2v2
	h1.6l1.3-1.3l2.8,2.1c-0.1,0.2-0.5,0.4-1,0.5v2.8c0,0.2-1.3,0.8-2.4,0.8h-0.5v-0.8h-11.2c-0.3,3.3-1.1,7.4-4.4,10.2l-0.3-0.3
	c1.9-3.9,2-8.8,2-12.8v-5.3l0.2,0.1v-6.6l2.5,1h2.6l1.1-1.1l2.3,1.8c-0.1,0.2-0.4,0.3-0.8,0.4V38c0.6,0.1,1,0.2,1.5,0.4v-5.8l2.5,1
	h2.4l1.1-1.1l2.4,1.8c-0.1,0.2-0.4,0.3-0.9,0.4v3.4c0,0.1-0.6,0.5-1.1,0.6c0.6,0.5,1.7,1.3,2.4,2c-0.1,0.3-0.3,0.5-0.8,0.5h-5.1l0,0
	C215.1,41.2,214.9,41.2,214.9,41.2z M202.2,32.1l-0.2-0.8h5.5l1.3-1.8c0,0,1.6,1.2,2.5,2.2c-0.1,0.3-0.3,0.5-0.7,0.5h-8.4
	L202.2,32.1L202.2,32.1z M203,39.2l3,1.1h4.7c-0.1-0.6-0.4-1.2-0.8-1.8c-0.4,0.2-0.9,0.3-1.5,0.3h-0.2v-4.6h-2.9v4.1
	c0,0.2-1,0.7-2,0.7H203V39.2z M210.5,49.3c0,0,1.1,1,1.9,1.9c-0.1,0.3-0.3,0.5-0.7,0.5h-2.9v2c1-0.2,2.2-0.3,3.3-0.6l0.1,0.4
	c-0.8,0.6-2.7,1.8-4.8,2.9c-0.2,0.4-0.5,0.6-0.8,0.8l-1.7-3c0.8-0.5,1-0.7,1-1.2v-5.3l3.6,0.3c-0.1,0.3-0.3,0.6-0.8,0.6v2.1h0.7
	L210.5,49.3z M205.6,35.1c4,0.8,2.3,3.9,0.7,2.6c0-0.8-0.5-1.9-1.1-2.4L205.6,35.1z M205.6,44.3c0,0.6,0,1.2,0,2h2v-2.4h-1.9v0.4
	H205.6z M205.6,43.2h1.9v-2h-1.9V43.2z M212.2,41.2h-2v2h2V41.2z M210.2,46.4h2V44h-2V46.4z M211.8,32.1l-0.2-0.8h5l1.5-1.9
	c0,0,1.7,1.2,2.7,2.3c-0.1,0.3-0.4,0.5-0.8,0.5L211.8,32.1L211.8,32.1z M219.6,53.8c0.7,0.3,0.8,0.6,0.8,1.1c0,1.1-1,1.6-3.9,1.6
	h-1.7c-2.2,0-2.4-0.6-2.4-2.3v-6.5L216,48c-0.1,0.4-0.3,0.6-0.8,0.7v2.1h1l1.2-1.8c0,0,1.5,1.2,2.2,2.2c-0.1,0.3-0.3,0.5-0.8,0.5
	h-3.6v2c0,0.3,0.1,0.4,0.5,0.4h1h1c0.2,0,0.4-0.1,0.5-0.2c0.2-0.3,0.5-1,0.8-2h0.3L219.6,53.8z M214.4,34.4v0.8h0.1
	c4,0.8,2.3,3.8,0.7,2.6c0-0.6-0.3-1.6-0.8-2.1v2.5c0,0.2-0.8,0.6-1.8,0.7c0.3,0.5,0.2,1-0.1,1.5h3.8l1.1-1.5H217v-4.5H214.4
	L214.4,34.4L214.4,34.4z M214.9,44v2.4h1.8V44H214.9z"/>
<path class="st1" d="M247.3,28.9c0,0,2.4,1.8,3.8,3.1c-0.1,0.3-0.4,0.5-0.8,0.5h-3.7v20.3c0,2.4-0.7,4.1-5.4,4.5
	c-0.1-1.1-0.3-2.1-1-2.6s-1.7-0.9-3.8-1.2v-0.4c0,0,4.9,0.3,5.8,0.3c0.6,0,0.8-0.2,0.8-0.7V32.6h-20l-0.2-0.8h22.4L247.3,28.9z
	 M238.2,49.1c0,0.2-1.8,0.8-2.9,0.8h-0.6v-2.5h-5.2V50c0,0.3-1.5,1-2.9,1h-0.5V36.1l3.5,1.5h4.8l1.6-1.8l3.3,2.5
	c-0.2,0.2-0.6,0.5-1.2,0.6L238.2,49.1L238.2,49.1z M234.8,46.6v-8.1h-5.2v8.1H234.8z"/>
<path class="st1" d="M258.3,39.1c-1.5,1.6-3.2,3-5.2,4.1l-0.3-0.4c2.2-2.2,3.7-5.2,4.7-8.2h-4l-0.2-0.8h5.2V29l4.4,0.4
	c-0.1,0.4-0.3,0.7-1.1,0.8v3.5h0.6l1.6-2.2c0,0,1.9,1.6,3,2.6c-0.1,0.3-0.4,0.5-0.8,0.5h-4.5v1.3c7.2,1.1,4.5,6.1,1.9,4.1
	c-0.1-1.2-1-2.7-1.9-3.6v7.3c0,0.3-1.5,0.8-2.6,0.8h-0.6v-5.4C258.5,39.1,258.3,39.1,258.3,39.1z M278,33.6c0,0,2,1.6,3.1,2.6
	c-0.1,0.3-0.3,0.5-0.8,0.5h-3.7v6.8c0,0.1-1,0.7-2.7,0.7h-0.6v-7.5h-3c-0.1,2.2-0.8,4.8-3.9,6.7l4.3,0.6c-0.1,0.5-0.5,0.7-1.2,0.8
	c-0.6,0.4-1.7,1-2.4,1.6h5.8l1.7-1.8l3.4,2.6c-0.2,0.2-0.6,0.5-1.1,0.6v8.5c0,0.2-1.8,0.8-2.9,0.8h-0.6v-1.7h-11.7v0.8
	c0,0.3-1.6,1-3,1h-0.5V45l3.7,1.5h3.5c0.1-0.7,0.2-1.7,0.3-2.5c-0.5,0.3-1,0.5-1.7,0.7l-0.2-0.3c3.1-2.5,3.5-5.7,3.5-8.5v-4.7l3.5,1
	c2.3-0.9,4.7-2.1,6-2.9l3.2,3.1c-0.3,0.3-1,0.3-1.9,0c-2,0.3-5,0.7-7.7,0.8V36h6L278,33.6z M261.3,47.2v3.2H273v-3.2H261.3z
	 M273,54.6v-3.3h-11.7v3.3H273z"/>
<g>
	<path class="st1" d="M7.2,78.6c5.3,2.7,2.8,6.7,0.9,4.8c0.1-1.2-0.3-2.8-0.9-3.9v15.1c0,0.3-1.3,1.1-2.4,1.1H4.2V84.3
		C3.4,86,2.3,87.4,1,88.8l-0.4-0.3c1.7-3.3,2.7-7.8,3.2-12H1.1l-0.2-0.8h3.4v-7.2l4.1,0.4c-0.1,0.4-0.3,0.7-1.1,0.8v5.9l1.3-2
		c0,0,1.6,1.5,2.4,2.5c-0.1,0.3-0.3,0.5-0.7,0.5h-3v2H7.2z M25.1,91.5c0,0,2,1.5,3.2,2.6c-0.1,0.3-0.4,0.5-0.8,0.5H9l-0.2-0.8h14.6
		L25.1,91.5z M10.3,71.7l-0.2-0.8h13l1.6-2.2c0,0,1.9,1.5,3,2.6c-0.1,0.3-0.3,0.5-0.8,0.5h-9.3c-0.4,1.2-1.1,2.7-1.6,3.9h1.5L19,74
		l2.8,2.4c-0.2,0.2-0.6,0.4-1.2,0.5c-0.2,10.3-0.5,13.7-1.9,15.1c-0.9,0.9-2,1.2-3.3,1.2c0-1-0.1-1.7-0.4-2.1c-0.3-0.4-1-0.8-1.9-1
		v-0.4c0.8,0.1,2,0.1,2.5,0.1c0.4,0,0.6-0.1,0.9-0.3c0.8-0.8,1-4.6,1.2-13.2h-1.9l-1.2,1.3l-2.9-1.9c0.3-0.2,0.8-0.5,1.2-0.7
		c0.5-1.1,1-2.5,1.4-3.4L10.3,71.7L10.3,71.7z M14,88.1V87h-1.3v1.5c0,0.2-1,0.7-1.9,0.7h-0.3V78.1l2.3,1h1l1-1l2.2,1.7
		c-0.1,0.1-0.5,0.3-0.8,0.4v7.4c0,0.2-1.1,0.7-1.9,0.7H14V88.1z M14,86.2v-6.3h-1.3v6.3H14z M27.9,77.8c-0.2,0.3-0.4,0.3-1,0.4
		c-0.2,1.9-0.6,3.7-1.3,5.5c3.5,4.2,1.7,7.9-0.6,6c-0.1-1-0.4-2-0.8-3c-1,1.7-2.3,3.1-4,4.4L20,90.7c1.5-1.8,2.5-4,3.1-6.4
		c-0.8-1.5-1.6-2.9-2.4-4.1L21,80c1,0.6,1.9,1.2,2.6,1.8c0.2-1.3,0.4-2.6,0.5-3.9h-2.9l-0.5-0.8h3.1l1.4-1.5L27.9,77.8z"/>
	<path class="st1" d="M36,80c0,5-0.3,11.5-5.9,15.7l-0.3-0.2c2.7-4.6,2.8-10.3,2.8-15.5v-8.9l4,1.4h7.6c-0.1-0.1-0.2-0.1-0.3-0.2
		c-0.3-1.4-1.5-3-2.4-3.8l0.2-0.2c6-0.1,6,3.3,4.3,4.2h6.2l1.8-2.4c0,0,2,1.7,3.2,2.8c-0.1,0.3-0.4,0.5-0.8,0.5H36V80z M53.9,86.1
		c-0.2,0.3-0.5,0.4-1.3,0.4c-1.1,1.7-2.6,3.2-4.2,4.4c2.7,0.8,5.8,1.1,9,1.2v0.3c-1.5,0.4-2.3,1.6-2.6,3.2c-3.7-0.6-6.8-1.5-9.3-3.1
		c-3.3,1.7-7.4,2.7-12.2,3.1l-0.1-0.4c4.1-0.9,7.7-2.2,10.5-4.1c-1.6-1.4-2.9-3.1-3.8-5.4h-2l-0.3-0.8H49l2-1.8L53.9,86.1z
		 M47.6,83.6v-0.9H43v0.7c0,0.2-1.5,0.8-2.7,0.8h-0.6v-6h-3.2l-0.2-0.8h3.4v-3.2l4.2,0.4c-0.1,0.4-0.3,0.6-1,0.8v2.1h4.6v-3.2
		l4.2,0.4c-0.1,0.4-0.3,0.6-1,0.8v2.1H52l1.5-2.3c0,0,1.7,1.6,2.7,2.7c-0.1,0.3-0.4,0.5-0.8,0.5h-4.8v4.7c0,0.2-1.4,0.8-2.7,0.8
		h-0.3V83.6z M40.4,85.9c1.2,1.8,3,3.1,5,4c1.4-1.2,2.6-2.5,3.4-4H40.4z M47.6,81.8v-3.7H43v3.7H47.6z"/>
	<path class="st1" d="M70.8,71.9c-0.2,0.3-0.6,0.4-1.3,0.4c-1,1.8-2.8,4.8-4.3,6.7c3.3,2,4.6,4.8,4.6,7.2c0,2.9-1.2,4.5-4.5,4.6
		c0-0.9-0.1-2.1-0.4-2.5c-0.2-0.3-0.7-0.6-1.4-0.7v-0.4h1.9c0.3,0,0.4,0,0.6-0.2c0.4-0.2,0.6-0.8,0.6-1.7c0-2-0.6-4.2-2.3-6.2
		c0.5-1.9,1.2-5.4,1.7-7.7h-2.9v23.3c0,0.2-1,1-2.6,1h-0.6V69.2l3.6,1.4h2.2l1.7-1.7L70.8,71.9z M83.2,71.8c0,0,2.1,1.7,3.2,2.8
		c-0.1,0.3-0.4,0.5-0.8,0.5h-8.9c-0.1,1.5-0.1,2.9-0.3,4.3h4.1l1.8-1.8l3.1,2.6c-0.2,0.3-0.6,0.4-1.2,0.6c-0.3,8.2-1,12.2-2.6,13.5
		c-1,0.9-2.2,1.2-3.9,1.2c0-1-0.1-1.8-0.5-2.3c-0.5-0.5-1.5-1-2.7-1.2v-0.4c1.2,0.1,3.1,0.2,3.7,0.2c0.5,0,0.8-0.1,1-0.3
		c0.9-0.8,1.5-4.8,1.7-11.4h-4.6c-0.9,6.6-3.2,12.1-10.1,15.4L66,95.4c6-5.3,7-12.4,7-20.3h-4.3l-0.2-0.8h8.1
		c-0.4-0.1-0.8-0.3-1.2-0.7c0.1-1.7-0.7-3.6-1.7-4.8l0.2-0.1c6.3,1.3,5.5,5.2,3.4,5.7h4.1L83.2,71.8z"/>
	<path class="st1" d="M91.2,78c-0.9,0.6-1.9,1.3-2.9,1.8L88,79.5c1.9-1.9,3.8-4.9,4.8-7c-1.3,0.8-2.8,1.5-4.3,2.1l-0.3-0.3
		c1.9-1.6,3.9-4.1,4.8-5.8l3.3,2.1c-0.2,0.3-0.4,0.4-1.1,0.3c-0.6,0.5-1.3,1-2.1,1.5l3.2,1.8c-0.2,0.3-0.4,0.4-1.1,0.3
		c-0.5,0.6-1.1,1.2-1.7,1.8l1.4,0.5c-0.1,0.3-0.4,0.4-0.9,0.5v6.5c-0.1,0.2-1.3,0.6-2.3,0.6h-0.5C91.2,84.4,91.2,78,91.2,78z
		 M88.5,94.7c2.5-1.5,5.2-3.8,6.4-5.7l3.6,2.3c-0.2,0.3-0.5,0.4-1.1,0.3c-2,1.4-5.3,2.8-8.6,3.5L88.5,94.7z M111.5,85.7
		c0,0,2,1.5,3.2,2.5c-0.1,0.3-0.4,0.5-0.8,0.5h-10.6V95c0,0.1-1,0.6-2.8,0.6h-0.6v-7H89l-0.2-0.8h21L111.5,85.7z M115,71.3
		c-0.2,0.2-0.6,0.5-1.2,0.6v6.8c0,1.8-0.3,2.8-3,3c-0.1-0.7-0.1-1.3-0.3-1.7c-0.2-0.3-0.6-0.6-1.3-0.8v-0.4c0,0,1.2,0.1,1.6,0.1
		c0.3,0,0.4-0.1,0.4-0.5v-7H109V83l0.2-0.2c0,0,1.9,1.4,3,2.4c-0.1,0.3-0.4,0.5-0.8,0.5H92.1l-0.2-0.8h15.6l1.1-1.3
		c-0.4,0.2-1,0.4-1.8,0.4h-0.4V69.4l3,1.2h1.5l1.2-1.5L115,71.3z M104.1,72.9c0,0,1.4,1.2,2.3,2.1c-0.1,0.3-0.3,0.5-0.8,0.5h-3.4
		v2.2h0.8l1.1-1.5c0,0,1.2,1.1,1.9,1.9c-0.1,0.3-0.3,0.5-0.7,0.5h-3.1v2.2c1.2-0.2,2.5-0.3,3.8-0.6l0.1,0.5
		c-1.9,0.6-5.2,1.8-8.9,2.9C97,83.8,96.8,84,96.6,84l-1.1-2.4c0.5-0.3,0.6-0.5,0.6-0.9v-4.2l3,0.3c0,0.3-0.3,0.6-0.8,0.6v3.8
		l1.3-0.2v-5.5h-3.9l-0.2-0.8h4.1v-2.4h-1.4c-0.7,0.7-1.4,1.3-2.1,1.8l-0.4-0.2c0.6-1.3,1.2-3.4,1.6-5.3l3.5,1.1
		c-0.1,0.3-0.5,0.6-1.1,0.6c-0.3,0.4-0.6,0.8-0.8,1.2h3.1l1.3-1.8c0,0,1.5,1.2,2.4,2.2c-0.1,0.3-0.4,0.5-0.8,0.5h-2.7v2.4h0.6
		L104.1,72.9z M104.8,89.6c10.1-0.1,9.8,6.1,6.4,5.3c-1.4-1.7-4.4-3.9-6.6-5L104.8,89.6z"/>
	<path class="st1" d="M140.2,84c0,0,2.2,1.6,3.5,2.8c-0.1,0.3-0.4,0.5-0.8,0.5h-11.3c-1,4-3.6,6.8-14.1,8.6l-0.2-0.5
		c7.3-2.2,9.7-4.7,10.5-8.1h-9.3l-0.2-0.8h9.7c0.2-1,0.2-2.1,0.3-3.4l4.8,0.3c-0.1,0.4-0.3,0.7-1,0.8c-0.1,0.8-0.2,1.5-0.3,2.2h6.6
		L140.2,84z M128.5,81.8v-3.5h-8l-0.2-0.8h8.2v-3.3H119l-0.3-0.8h7.3c-0.3-0.1-0.6-0.2-1-0.5c-0.1-1.5-1-3.1-1.9-4.1l0.2-0.2
		c6.1,0.5,5.6,4.2,3.6,4.8h5.4c0.6-1.5,1.2-3.4,1.6-4.9l4.6,1c-0.1,0.4-0.4,0.6-1.1,0.6c-1,1-2.6,2.3-4.1,3.3h4.5l1.9-2.3
		c0,0,2.1,1.6,3.4,2.7c-0.1,0.3-0.4,0.5-0.8,0.5h-10v3.3h4l1.7-2.1c0,0,2,1.5,3.2,2.5c-0.1,0.3-0.4,0.5-0.8,0.5h-8.1V82h6.2l1.9-2.4
		c0,0,2.1,1.6,3.4,2.8c-0.1,0.3-0.4,0.5-0.8,0.5h-25.2l-0.2-0.8h10.9V81.8z M132.5,88.1c12.9,1.1,12.2,8.6,8.3,7.3
		c-1.8-2.5-5.6-5.4-8.5-7L132.5,88.1z"/>
	<path class="st1" d="M171.5,75.4c-0.2,0.3-0.7,0.6-1.4,0.7v18.1c0,0.3-1.7,1.2-3.1,1.2h-0.6v-2.6h-14v1.4c0,0.4-1.5,1.3-3,1.3h-0.6
		V73l3.9,1.6h3.2c0.4-1.8,0.9-4.4,1.1-6.2l5.1,1.2c-0.1,0.4-0.4,0.6-1.1,0.6c-1.1,1.2-2.6,3-4.2,4.4h9.3l1.8-2L171.5,75.4z
		 M152.5,75.3v7.8h14v-7.8H152.5z M166.5,92v-8h-14v8H166.5z"/>
	<path class="st1" d="M186.8,71.9c-0.2,0.3-0.6,0.4-1.3,0.4c-1,1.8-2.8,4.8-4.3,6.7c3.3,2,4.6,4.8,4.6,7.2c0,2.9-1.2,4.5-4.5,4.6
		c0-0.9-0.1-2.1-0.4-2.5c-0.2-0.3-0.7-0.6-1.4-0.7v-0.4h1.9c0.3,0,0.4,0,0.6-0.2c0.4-0.2,0.6-0.8,0.6-1.7c0-2-0.6-4.2-2.3-6.2
		c0.5-1.9,1.2-5.4,1.7-7.7h-2.9v23.3c0,0.2-1,1-2.6,1h-0.6V69.2l3.6,1.4h2.2l1.7-1.7L186.8,71.9z M199.2,71.8c0,0,2.1,1.7,3.2,2.8
		c-0.1,0.3-0.4,0.5-0.8,0.5h-8.9c-0.1,1.5-0.1,2.9-0.3,4.3h4.1l1.8-1.8l3.1,2.6c-0.2,0.3-0.6,0.4-1.2,0.6c-0.3,8.2-1,12.2-2.6,13.5
		c-1,0.9-2.2,1.2-3.9,1.2c0-1-0.1-1.8-0.5-2.3c-0.5-0.5-1.5-1-2.7-1.2v-0.4c1.2,0.1,3.1,0.2,3.7,0.2c0.5,0,0.8-0.1,1-0.3
		c0.9-0.8,1.5-4.8,1.7-11.4h-4.6c-0.9,6.6-3.2,12.1-10.1,15.4l-0.2-0.3c6-5.3,7-12.4,7-20.3h-4.3l-0.2-0.8h8.1
		c-0.4-0.1-0.8-0.3-1.2-0.7c0.1-1.7-0.7-3.6-1.7-4.8l0.2-0.1c6.3,1.3,5.5,5.2,3.4,5.7h4.1L199.2,71.8z"/>
	<path class="st1" d="M212.3,90.1c-0.1,0.2-1.3,0.8-2.2,0.8h-0.4v-2.4h-2v3c0,0.2-0.8,0.9-2.2,0.9H205v-22l3,1.2h1.3l1.3-1.5
		l2.8,2.2c-0.2,0.2-0.6,0.5-1.2,0.6L212.3,90.1L212.3,90.1z M207.6,72.4v7.1h2v-7.1H207.6z M209.6,87.6v-7.3h-2v7.3H209.6z
		 M225.3,80.1V82h1.5l1.3-1.3l2.7,2c-0.1,0.2-0.5,0.4-1,0.5V86c0,0.2-1.3,0.8-2.3,0.8H227V86h-10.8c-0.3,3.2-1.1,7.1-4.2,9.8
		l-0.3-0.3c1.8-3.8,1.9-8.5,1.9-12.3v-5.1l0.2,0.1v-6.4l2.4,1h2.5l1.1-1.1l2.2,1.7c-0.1,0.2-0.4,0.3-0.8,0.4V77
		c0.6,0.1,1,0.2,1.4,0.4v-5.6l2.4,1h2.3l1.1-1.1l2.3,1.7c-0.1,0.2-0.4,0.3-0.9,0.4v3.3c0,0.1-0.6,0.5-1.1,0.6
		c0.6,0.5,1.6,1.3,2.3,1.9c-0.1,0.3-0.3,0.5-0.8,0.5C230.2,80.1,225.3,80.1,225.3,80.1z M213.1,71.4l-0.2-0.8h5.3l1.3-1.7
		c0,0,1.5,1.2,2.4,2.1c-0.1,0.3-0.3,0.5-0.7,0.5L213.1,71.4L213.1,71.4z M213.9,78.2l2.9,1.1h4.5c-0.1-0.6-0.4-1.2-0.8-1.7
		c-0.4,0.2-0.9,0.3-1.4,0.3h-0.4v-4.4H216v3.9c0,0.2-1,0.7-1.9,0.7L213.9,78.2L213.9,78.2z M221.1,87.9c0,0,1.1,1,1.8,1.8
		c-0.1,0.3-0.3,0.5-0.7,0.5h-2.8v1.9c1-0.2,2.1-0.3,3.2-0.6l0.1,0.4c-0.8,0.6-2.6,1.7-4.6,2.8c-0.2,0.4-0.5,0.6-0.8,0.8l-1.6-2.9
		c0.8-0.5,1-0.7,1-1.2v-5.1l3.5,0.3c-0.1,0.3-0.3,0.6-0.8,0.6v2.1h0.7L221.1,87.9z M216.4,74.3c3.9,0.8,2.2,3.8,0.7,2.5
		c0-0.8-0.5-1.8-1.1-2.3L216.4,74.3z M216.3,83.2c0,0.6,0,1.2,0,1.9h1.9v-2.3h-1.8L216.3,83.2L216.3,83.2z M216.3,82h1.8v-1.9h-1.8
		V82z M222.6,80.1h-1.9V82h1.9V80.1z M220.8,85.1h1.9v-2.3h-1.9V85.1z M222.3,71.4l-0.2-0.8h4.8l1.4-1.8c0,0,1.6,1.2,2.6,2.2
		c-0.1,0.3-0.4,0.5-0.8,0.5L222.3,71.4L222.3,71.4z M229.9,92.3c0.7,0.3,0.8,0.6,0.8,1.1c0,1.1-1,1.5-3.8,1.5h-1.6
		c-2.1,0-2.3-0.6-2.3-2.2v-6.3l3.5,0.3c-0.1,0.4-0.3,0.6-0.8,0.7v2h1l1.2-1.7c0,0,1.4,1.2,2.1,2.1c-0.1,0.3-0.3,0.5-0.8,0.5h-3.5
		v1.9c0,0.3,0.1,0.4,0.5,0.4h1h1c0.2,0,0.4-0.1,0.5-0.2c0.2-0.3,0.5-1,0.8-1.9h0.3L229.9,92.3z M224.9,73.6v0.8h0.1
		c3.9,0.8,2.2,3.7,0.7,2.5c0-0.6-0.3-1.5-0.8-2v2.4c0,0.2-0.8,0.6-1.7,0.7c0.3,0.5,0.2,1-0.1,1.4h3.7l1.1-1.4h-0.4v-4.3L224.9,73.6
		L224.9,73.6z M225.3,82.9v2.3h1.7v-2.3H225.3z"/>
	<path class="st1" d="M257.2,76.7c0,0,1.9,1.5,3,2.5c-0.1,0.3-0.3,0.5-0.8,0.5h-14.9v-0.1c-0.1,0.3-0.4,0.4-0.8,0.4h-3.8v14.7
		c0,0.3-1.2,0.9-2.3,0.9H237v-12c-1.2,2.5-2.6,5.3-4,7.3l-0.4-0.1c0.6-2.6,1.6-6.6,2.2-9.9l2.2,0.8V80h-4l-0.2-0.8h4.2V68.5l4,0.4
		c-0.1,0.4-0.3,0.7-1.1,0.8v9.6h0.5l1.5-1.9c0,0,1.6,1.3,2.6,2.3l-0.2-0.7h5.4v-2.7H246l-0.2-0.8h3.9V73H245l-0.1-0.3
		c-0.2,0.1-0.5,0.2-0.8,0.2c-1,1.7-2.3,3.9-3.4,5.3l-0.5-0.2c0.4-1.7,1-4.6,1.5-6.9l3.2,1.1h4.9v-3.5l4.2,0.4
		c-0.1,0.4-0.3,0.6-0.9,0.8V72h1.8l1.7-2.1c0,0,1.9,1.5,3,2.5c-0.1,0.3-0.3,0.5-0.8,0.5H253v2.5h1.2l1.5-1.9c0,0,1.8,1.3,2.8,2.3
		c-0.1,0.3-0.4,0.5-0.8,0.5H253V79h2.6L257.2,76.7z M233.5,71.1c5.7,4.1,3.1,8.8,0.9,6.5c0.1-2.1-0.6-4.6-1.2-6.4L233.5,71.1z
		 M240.6,81.6c6.1,4.1,3.4,9.2,1.1,6.8c0-2.2-0.8-4.8-1.5-6.7L240.6,81.6z M255.8,80.2l3.2,2.4c-0.2,0.2-0.6,0.5-1.2,0.6v8.7
		c0,2.1-0.4,3.3-3.8,3.6c-0.1-1-0.2-1.7-0.6-2.1c-0.3-0.5-0.9-0.8-2.1-1V92c0,0,2.3,0.1,2.8,0.1c0.4,0,0.6-0.2,0.6-0.6v-2.2h-6.2
		c-0.3,2.4-1.4,4.9-5.1,6.6l-0.3-0.3c2.2-2.2,2.4-5.2,2.4-8.2v-6.8l3.6,1.3h5.3L255.8,80.2z M254.7,88.4v-2.5h-6.1v1.4
		c0,0.4,0,0.7,0,1.1H254.7z M248.7,82.6v2.5h6.1v-2.5H248.7z"/>
	<path class="st1" d="M267.1,72.7h-5l-0.2-0.8h5.2l-0.4-3.2L271,69c0,0.3-0.2,0.6-0.8,0.8l0.3,2.1h0.9l1.6-2.2c0,0,1.8,1.5,2.8,2.6
		c-0.1,0.3-0.4,0.5-0.8,0.5h-4.4l0.3,1.9c-0.5,0.6-1.7,0.9-3.3,0.9L267.1,72.7z M285.7,84.2c0,0,1.8,1.4,2.9,2.3
		c-0.1,0.3-0.4,0.5-0.8,0.5H277v3.2h5.3l1.8-2.2c0,0,2.1,1.5,3.3,2.6c-0.1,0.3-0.4,0.5-0.8,0.5H277v3.8c0,0.2-1,0.9-2.8,0.9h-0.6V91
		h-9.4l-0.2-0.8h9.7V87H263l-0.3-0.8h10.9V82c-0.1,0-0.2,0.1-0.4,0.1h-3.8v2.8c0,0.2-1.1,0.7-2.1,0.7H267V82h-4.3l-0.2-0.8h4.6v-3.3
		l3.4,0.3c-0.1,0.3-0.2,0.6-0.9,0.7v2.3h0.7l1.4-1.9c0,0,1.2,1,2.1,1.8V77h-9.9l-0.2-0.8h19.6l1.7-2c0,0,1.9,1.3,3,2.3
		c-0.1,0.3-0.4,0.5-0.8,0.5H277v9.2h7L285.7,84.2z M286.4,69.7c0,0,1.7,1.5,2.8,2.6c-0.1,0.3-0.4,0.5-0.8,0.5h-6l-0.3,2.2
		c-0.6,0.5-1.9,0.7-3.3,0.4l0.4-2.6h-2.8l-0.2-0.8h3.1l0.5-3.2l4.2,0.7c-0.1,0.4-0.3,0.7-1.1,0.8l-0.3,1.7h2.2L286.4,69.7z
		 M286.3,79.2c0,0,1.6,1.4,2.6,2.3c-0.1,0.3-0.3,0.5-0.7,0.5H283v2.5c0,0.2-1.1,0.6-2.1,0.6h-0.5V82h-2.6l-0.2-0.8h2.8v-3.3l3.4,0.3
		c-0.1,0.3-0.2,0.6-0.9,0.7v2.3h1.9L286.3,79.2z"/>
</g>
</svg>
