<?xml version="1.0" encoding="utf-8"?>
<!-- Generator: Adobe Illustrator 26.0.3, SVG Export Plug-In . SVG Version: 6.00 Build 0)  -->
<svg version="1.1" id="tag-mousse.svg" xmlns="http://www.w3.org/2000/svg" xmlns:xlink="http://www.w3.org/1999/xlink" x="0px"
	 y="0px" viewBox="0 0 217 30" style="enable-background:new 0 0 217 30;" xml:space="preserve">
<style type="text/css">
	.st0{fill:#FFFFFF;}
	.st1{enable-background:new    ;}
	.st2{fill:#AA7CB7;}
</style>
<path id="長方形_688" class="st0" d="M3,0h211c1.7,0,3,1.3,3,3v24c0,1.7-1.3,3-3,3H3c-1.7,0-3-1.3-3-3V3C0,1.3,1.3,0,3,0z"/>
<g class="st1">
	<path class="st2" d="M36.5,14.3c-0.6-0.5-1.7-1.2-2.7-1.6l1.1-1.5c0.9,0.4,2.1,1,2.7,1.5L36.5,14.3z M34,21.2
		c0.6-1.3,1.5-3.5,2.2-5.5l1.6,1.1c-0.6,1.8-1.3,3.8-2,5.4L34,21.2z M35.6,6.7c0.9,0.4,2.1,1.1,2.7,1.6l-1.2,1.6
		c-0.5-0.5-1.7-1.3-2.7-1.7L35.6,6.7z M40.2,13.3v9.1h-1.8V7.2h4.9v6.1H40.2z M40.2,8.7v0.8h1.5V8.7H40.2z M41.7,11.8v-0.9h-1.5v0.9
		H41.7z M46.8,20.6h-6.1v-1.5h2.2V18h-1.7v-1.4h1.7v-1H41v-1.5h5.6v1.5h-2v1h1.7V18h-1.7v1.2h2.3V20.6z M49.2,20.4
		c0,0.9-0.2,1.4-0.7,1.7c-0.5,0.3-1.3,0.4-2.4,0.4c-0.1-0.5-0.2-1.3-0.5-1.8c0.6,0,1.2,0,1.4,0s0.3-0.1,0.3-0.3v-7.1h-3.3V7.2h5.1
		V20.4z M45.8,8.7v0.8h1.6V8.7H45.8z M47.4,11.8v-0.9h-1.6v0.9H47.4z"/>
	<path class="st2" d="M62.8,20.3c1.6,0,1.9-0.4,2.1-2.5c0.5,0.3,1.3,0.6,1.9,0.7c-0.4,2.8-1.1,3.6-3.9,3.6H57c-3.2,0-4.1-0.6-4.1-3
		v-6.2c-0.3,0.3-0.7,0.5-1,0.7c-0.2-0.5-0.7-1.5-1.1-1.9c2-1.2,4.1-3.2,5.2-5.3l1.8,0.7c-0.1,0.2-0.3,0.5-0.4,0.7h3.9l0.4-0.1l1.3,1
		c-0.6,0.8-1.3,1.7-2.1,2.5h4.1v6.4h-2v-0.6h-8.2v2c0,1,0.3,1.2,2.1,1.2H62.8z M56.1,9.7c-0.5,0.6-0.9,1.1-1.4,1.6h3.8
		c0.5-0.5,1-1,1.4-1.6H56.1z M54.9,15.2H58v-2h-3.2V15.2z M63.1,13.2H60v2h3.1V13.2z"/>
	<path class="st2" d="M75.7,7.3h1.6l-4.2,16.8h-1.7L75.7,7.3z"/>
	<path class="st2" d="M91.1,18.6h6.6v1.3h-2.3c0.8,0.6,1.7,1.3,2.3,1.8L96,22.5c-0.5-0.5-1.6-1.4-2.4-2l1.2-0.6H92
		c0.4,0.6,0.9,1.4,1.1,1.9l-1.8,0.6c-0.2-0.6-0.6-1.4-1.1-2.1l1.4-0.5H85l1.2,0.6c-0.6,0.7-1.4,1.4-2.3,1.9l-1.5-1.1
		c0.8-0.4,1.5-0.9,2-1.5h-1.9v-1.3h6.5V18h-5.5v-1.1h5.5v-0.5h-5v-3.5h5v-0.5h-6.4v-1.2h6.4v-0.5c-1.7,0.1-3.5,0.1-5.1,0.1
		c0-0.3-0.2-0.8-0.3-1.1c4.1,0,8.8-0.1,11.5-0.4l1.2,1c-1.5,0.2-3.4,0.3-5.3,0.4v0.6h6.5v1.2h-6.5v0.5h5.1v3.5h-5.1v0.5h5.7V18h-5.7
		V18.6z M85.8,8.6h-3.2V7.3h3.2V6.6h2v0.7h2v1.3h-2v0.8h-2V8.6z M89.1,15.5v-1.7h-3.2v1.7h1.3c-0.2-0.4-0.4-0.9-0.7-1.3l1.3-0.4
		c0.3,0.4,0.7,0.9,0.8,1.3l-1,0.3H89.1z M88.9,19.9c0.3,0.6,0.6,1.5,0.7,2l-1.9,0.5c-0.1-0.5-0.3-1.4-0.6-2.1L88.9,19.9z M97.8,7.3
		v1.3h-3.1v0.7h-2V8.6h-2.2V7.3h2.2V6.6h2v0.7H97.8z M91.1,13.8v1.7h1.2l-0.7-0.2c0.2-0.4,0.6-1,0.8-1.4H91.1z M94.3,13.8h-1.7
		l1.2,0.3c-0.3,0.5-0.7,1-1,1.3h1.5V13.8z"/>
	<path class="st2" d="M114.7,13.4c-1.1,1.1-2.5,2.2-3.7,3.1c1,1.4,2.3,2.6,4.3,3.7c-0.5,0.4-1.2,1.2-1.4,1.8
		c-4.4-2.8-5.9-5.9-6.7-10.1c-0.7,0.8-1.4,1.6-2.3,2.3v5.2l3.8-1.1c0.1,0.6,0.3,1.4,0.4,1.9c-5.1,1.6-5.9,1.9-6.4,2.2
		c-0.2-0.4-0.7-1.2-1.1-1.5c0.4-0.3,1.2-1,1.2-1.9v-3.2c-0.8,0.5-1.6,1-2.5,1.4c-0.2-0.5-0.8-1.3-1.1-1.8c2.3-1,4.6-2.6,6-4.4h-5.5
		V9.2h6.8c-0.2-0.7-0.5-1.5-0.8-2.1l2.1-0.6c0.4,0.7,0.9,1.8,1.1,2.4l-1,0.3h7v1.9H109c0.3,1.4,0.6,2.6,1.1,3.8
		c1-0.8,2.1-1.8,2.9-2.7L114.7,13.4z"/>
	<path class="st2" d="M119.7,9.3h-3.1V7.5h3.1V6.6h2v0.9h2.1v1.8h-2.1v1.1h-2V9.3z M131.8,20h-6.7v2.5h-2V20h-6.5v-1.8h6.5v-1h-4.6
		v-6.5h11.3v6.5h-4.7v1h6.7V20z M120.5,13.2h7.3v-1h-7.3V13.2z M120.5,15.7h7.3v-1h-7.3V15.7z M126.7,9.3h-2.3V7.5h2.3V6.6h2v0.9
		h2.9v1.8h-2.9v1.1h-2V9.3z"/>
	<path class="st2" d="M145.1,20.3c1.6,0,1.9-0.4,2.1-2.5c0.5,0.3,1.3,0.6,1.9,0.7c-0.4,2.8-1.1,3.6-3.9,3.6h-5.8
		c-3.2,0-4.1-0.6-4.1-3v-6.2c-0.3,0.3-0.7,0.5-1,0.7c-0.2-0.5-0.7-1.5-1.1-1.9c2-1.2,4.1-3.2,5.2-5.3l1.8,0.7
		c-0.1,0.2-0.3,0.5-0.4,0.7h3.9l0.4-0.1l1.3,1c-0.6,0.8-1.3,1.7-2.1,2.5h4.1v6.4h-2v-0.6h-8.2v2c0,1,0.3,1.2,2.1,1.2H145.1z
		 M138.5,9.7c-0.5,0.6-0.9,1.1-1.4,1.6h3.8c0.5-0.5,1-1,1.4-1.6H138.5z M137.2,15.2h3.2v-2h-3.2V15.2z M145.4,13.2h-3.1v2h3.1V13.2z
		"/>
	<path class="st2" d="M153.1,14.4c-0.6-0.6-1.9-1.3-2.9-1.7l1.1-1.5c1,0.4,2.3,1,3,1.5L153.1,14.4z M150.6,21.1
		c0.8-1.3,1.9-3.5,2.8-5.5l1.6,1.2c-0.8,1.8-1.7,3.8-2.6,5.4L150.6,21.1z M154,9.9c-0.6-0.6-1.9-1.4-2.9-1.8l1.1-1.5
		c1,0.4,2.3,1.1,3,1.6L154,9.9z M163,20.5c1,0,1.2-0.3,1.3-2.2c0.5,0.3,1.3,0.6,1.9,0.7c-0.3,2.5-0.9,3.3-3,3.3h-3.9
		c-2.4,0-3.2-0.6-3.2-2.8v-6.6l-0.2,0.2c-0.4-0.3-1.2-1-1.7-1.2c1.4-1.2,2.5-3.3,3.2-5.3l2,0.5c-0.2,0.5-0.4,1.1-0.6,1.6h6.7
		c0,0,0,0.6,0,0.9c-0.1,5.4-0.2,7.5-0.7,8.1c-0.3,0.5-0.6,0.6-1.1,0.7c-0.4,0.1-1,0.1-1.7,0.1c0-0.4-0.1-0.8-0.3-1.3H158v2.4
		c0,0.8,0.2,1,1.3,1H163z M157.7,10.5c-0.3,0.5-0.5,0.9-0.8,1.3h5v4.7c0.2,0,0.4,0,0.5,0c0.2,0,0.3-0.1,0.5-0.3
		c0.2-0.4,0.3-1.8,0.4-5.8H157.7z M160,13.6h-2v1.8h2V13.6z"/>
	<path class="st2" d="M170.1,14.4c-0.6-0.6-1.9-1.3-2.9-1.7l1.1-1.5c1,0.4,2.3,1,3,1.5L170.1,14.4z M167.6,21.1
		c0.8-1.3,1.9-3.5,2.8-5.5l1.6,1.2c-0.8,1.8-1.7,3.8-2.6,5.4L167.6,21.1z M171,9.9c-0.6-0.6-1.9-1.4-2.9-1.8l1.1-1.5
		c1,0.4,2.3,1.1,3,1.6L171,9.9z M180,20.5c1,0,1.2-0.3,1.3-2.2c0.5,0.3,1.3,0.6,1.9,0.7c-0.3,2.5-0.9,3.3-3,3.3h-3.9
		c-2.4,0-3.2-0.6-3.2-2.8v-6.6l-0.2,0.2c-0.4-0.3-1.2-1-1.7-1.2c1.4-1.2,2.5-3.3,3.2-5.3l2,0.5c-0.2,0.5-0.4,1.1-0.6,1.6h6.7
		c0,0,0,0.6,0,0.9c-0.1,5.4-0.2,7.5-0.7,8.1c-0.3,0.5-0.6,0.6-1.1,0.7c-0.4,0.1-1,0.1-1.7,0.1c0-0.4-0.1-0.8-0.3-1.3H175v2.4
		c0,0.8,0.2,1,1.3,1H180z M174.7,10.5c-0.3,0.5-0.5,0.9-0.8,1.3h5v4.7c0.2,0,0.4,0,0.5,0c0.2,0,0.3-0.1,0.5-0.3
		c0.2-0.4,0.3-1.8,0.4-5.8H174.7z M177,13.6h-2v1.8h2V13.6z"/>
</g>
</svg>
