<svg xmlns="http://www.w3.org/2000/svg" width="331.063" height="45.34" viewBox="0 0 331.063 45.34">
  <defs>
    <style>
      .cls-1 {
        fill-rule: evenodd;
      }
    </style>
  </defs>
  <path id="head-gallery.svg" class="cls-1" d="M568.528,4839.2h6.933l-19.918-44.5-20.928,44.5h6.934l4.6-10.15h17.964ZM548.8,4823l6.493-14.25,6.24,14.25H548.8Zm31.935-25.85v42.05h8.7c5.862,0,10.464-.57,15.38-4.04,5.547-3.9,8.447-9.96,8.447-16.95a20.824,20.824,0,0,0-8.068-16.96c-4.665-3.47-9.771-4.1-15.633-4.1h-8.825Zm6.43,6.06h2.773c3.089,0,7.564.25,11.22,2.89a15,15,0,0,1,5.673,12.11,14.808,14.808,0,0,1-5.736,11.97c-3.656,2.71-8,2.97-11.157,2.97h-2.773v-29.94Zm70.567,20.04h10.464a11.263,11.263,0,0,1-3.53,7.12,12.624,12.624,0,0,1-9.392,3.72,13.647,13.647,0,0,1-10.527-4.22,17.455,17.455,0,0,1,.126-23.2,15.169,15.169,0,0,1,11.094-4.35,14.134,14.134,0,0,1,7.438,1.83,17.269,17.269,0,0,1,5.169,4.79l5.106-3.59a19.184,19.184,0,0,0-6.808-6.31,22.83,22.83,0,0,0-10.968-2.64,22.377,22.377,0,0,0-15.7,37.88c3.845,3.97,8.194,5.74,14.308,5.74,4.791,0,9.96-1.14,14.309-5.36,4.1-3.97,6.24-9.83,6.24-17.02v-0.32H657.73v5.93Zm51.978,15.95h6.934l-19.919-44.5L675.8,4839.2h6.933l4.6-10.15H705.3Zm-19.73-16.2,6.493-14.25,6.24,14.25H689.978Zm31.936-25.85v42.05H740.7v-6.05H728.343v-36h-6.429Zm26.081,0v42.05H766.78v-6.05H754.425v-36H748Zm49.279,0h-23.2v42.05h23.2v-6.05H780.507v-13.24h16.262v-6.05H780.507v-10.65h16.767v-6.06Zm9.563,0v42.05h6.43v-17.21H814.4l12.04,17.21h7.753l-13.111-17.97a11.527,11.527,0,0,0,9.329-11.72,11.734,11.734,0,0,0-4.98-9.9c-2.71-1.83-5.988-2.46-11.094-2.46h-7.5Zm6.43,5.93h2.206c3.152,0,8.762.57,8.762,6.49,0,6.68-7.186,6.87-8.951,6.87h-2.017v-13.36Zm32.194,36.12h6.429v-18.16l13.805-23.89h-7.312l-9.708,16.83-9.707-16.83h-7.312l13.805,23.89v18.16Z" transform="translate(-534.625 -4794.69)"/>
</svg>
