<svg xmlns="http://www.w3.org/2000/svg" width="160.25" height="30.19" viewBox="0 0 160.25 30.19">
  <defs>
    <style>
      .cls-1 {
        fill-rule: evenodd;
      }
    </style>
  </defs>
  <path id="title-graphic.svg" class="cls-1" d="M635.2,5603.58h6.968a7.5,7.5,0,0,1-2.35,4.74,8.428,8.428,0,0,1-6.255,2.48,9.088,9.088,0,0,1-7.01-2.82,11.61,11.61,0,0,1,.083-15.44,10.088,10.088,0,0,1,7.389-2.9,9.372,9.372,0,0,1,4.953,1.22,11.279,11.279,0,0,1,3.442,3.19l3.4-2.39a12.716,12.716,0,0,0-4.534-4.2,15.125,15.125,0,0,0-7.3-1.77,14.905,14.905,0,0,0-10.453,25.23,12.182,12.182,0,0,0,9.529,3.82,13.092,13.092,0,0,0,9.529-3.56c2.729-2.65,4.156-6.55,4.156-11.34v-0.21H635.2v3.95Zm15.253-17.38v28h4.282v-11.46h0.755l8.018,11.46h5.163l-8.731-11.97a7.671,7.671,0,0,0,6.213-7.8,7.8,7.8,0,0,0-3.317-6.59c-1.805-1.22-3.988-1.64-7.388-1.64h-5Zm4.282,3.94h1.469c2.1,0,5.835.38,5.835,4.33,0,4.45-4.786,4.57-5.961,4.57h-1.343v-8.9Zm39.219,24.06h4.618l-13.265-29.64-13.937,29.64h4.618l3.064-6.76H691.02Zm-13.139-10.79,4.324-9.49,4.156,9.49h-8.48Zm21.3-17.21v28H706.4v-11.38h1.931a10.1,10.1,0,0,0,6.842-2.18,7.836,7.836,0,0,0,2.729-6.13,8.1,8.1,0,0,0-3.484-6.8,10.968,10.968,0,0,0-6.129-1.51h-6.171Zm4.282,3.94h1.889c4.869,0,5.5,2.77,5.5,4.33,0,2.6-1.763,4.41-5.457,4.41H706.4v-8.74Zm20.159-3.94h-4.281v28h4.281v-12.89h12.006v12.89h4.282v-28h-4.282v11.08H726.557V5586.2Zm22.178,0v28h4.282v-28h-4.282Zm30.9,1.51a13.335,13.335,0,0,0-7.472-2.02,13.868,13.868,0,0,0-10.117,3.66,14.635,14.635,0,0,0-4.491,10.95,13.719,13.719,0,0,0,4.491,10.58,14.044,14.044,0,0,0,9.907,3.86,15.271,15.271,0,0,0,7.682-2.1v-5.08a11.076,11.076,0,0,1-7.556,3.24c-5.961,0-10.243-4.58-10.243-10.5,0-6.17,4.114-10.66,10.2-10.66a10.889,10.889,0,0,1,7.6,3.11v-5.04Z" transform="translate(-619.375 -5584.56)"/>
</svg>
