<svg id="Layer_1" xmlns="http://www.w3.org/2000/svg" viewBox="0 0 440.3 154.9"><style>.st0{fill:#a5cf4c}</style><title>htc-logo</title><g id="Layer_2_2_"><path class="st0" d="M350.3 60.4c2.3-.1 6.5-.2 12.6-.2h21.8l55.6.1V38.2h-1.7c-4.4 0-43.5-.1-55.9-.2h-17.2c-7.1 0-12.2 0-16 .2-12.5.5-22.9 5.1-31 13.7-7.4 7.8-12.3 20.6-13 34.2-.5 7.4-.5 14.8 0 22.2 1.3 14.1 5.6 25.2 13 32.9 8.2 8.4 19.3 13.3 31 13.6 2.8.1 12.2.1 28 .1 22.7 0 52-.1 61.1-.1h1.7v-22.3h-1.7c-6.9 0-24.8.1-35 .2H401c-10.5.1-20.7.1-29.2.1-11.7 0-18.5-.1-21.6-.4-13.2-1.1-22.4-10.5-23.4-23.8-.6-7.4-.7-14.9 0-22.3 1.3-13.4 12-25.3 23.5-25.9zm-195.5 1.3h55.9v92.7H232V61.7h55.9V39.4H154.8v22.3zm-33.9-9.9c-8.9-9.3-22.3-13.2-31-13.7-3.3-.2-11.2-.3-21.4-.3-10.8 0-20.8.1-24.5.3-9.6.4-17.2 3-22.6 7.5V0H0v154.8h21.4v-1.7c-.1-10.3-.4-62.2.1-68.5 1-13 10.5-23.2 22.6-24.3 3.9-.3 11.8-.5 21.4-.5 10.2 0 20 .2 24.6.5 12.5.9 21.8 11.1 22.5 24.8.2 3.3.1 37.3 0 68v1.7h21.3v-1.7c0-10.6.1-63.5 0-68.5-.2-12.9-4.6-24-13-32.8z" id="Layer_1-2_1_"/></g></svg>