<svg xmlns="http://www.w3.org/2000/svg" viewBox="0 0 525.88 53.96"><defs><style>.cls-1{fill:#fff}</style></defs><title>htcxmayday-logo</title><g id="Layer_2" data-name="Layer 2"><path class="cls-1" d="M149 45.6c-8.6.06-16.75.12-19-.07-4.6-.4-7.67-3.41-8-7.82a40.3 40.3 0 0 1 0-7.61c.42-4.3 4-8.4 8-8.59 1.43-.08 5.28-.07 12.24 0h20.28V13.1h-32.88a16.23 16.23 0 0 0-11.38 4.82c-2.82 2.86-4.5 7.39-4.76 12a60.84 60.84 0 0 0 0 7.65c.48 4.94 2.09 8.83 4.76 11.54a16.86 16.86 0 0 0 11.38 4.82h32.88v-8.4zM57.46 13.53V22h20v31.78h8.44V22h20v-8.47zm-8.76 15.9A16.25 16.25 0 0 0 44 17.88c-3.23-3.28-8.16-4.64-11.38-4.81-2.81-.16-13.85-.11-16.45 0a14.19 14.19 0 0 0-7.69 2.23V0H0v53.93h8.44s-.17-22.07 0-24.47a8.55 8.55 0 0 1 7.71-8c3.31-.29 13.26-.21 16.38 0a8.27 8.27 0 0 1 7.7 8.15c.08 1.65 0 24.3 0 24.3h8.47s.01-22.53 0-24.48zm154.41 4.41l-11.26-13.31h6.67l8 9.71 8-9.71H221l-11.18 13.23 11.67 13.86h-6.66l-8.46-10.26-8.5 10.26h-6.47zM247.82 54V5.52h14.63l8.79 33 8.69-33h14.67V54h-9.09V15.83L275.9 54h-9.42l-9.58-38.17V54zM348 54h-10.65l-4.23-11h-19.36l-4 11h-10.37l18.86-48.48h10.35zm-18-19.21l-6.67-18-6.54 18zM360.68 54V33.57l-17.74-28h11.46l11.4 19.16L377 5.52h11.26l-17.8 28.12V54zm32.38-48.48h17.87a34.78 34.78 0 0 1 9.22.93 16.21 16.21 0 0 1 7.3 4.46 21.11 21.11 0 0 1 4.63 7.84 36 36 0 0 1 1.58 11.45 31.61 31.61 0 0 1-1.49 10.31 21.44 21.44 0 0 1-5.17 8.56 17.2 17.2 0 0 1-6.87 3.86 29.7 29.7 0 0 1-8.66 1h-18.4zm9.78 8.2V45.8h7.3a26.39 26.39 0 0 0 5.91-.47 9 9 0 0 0 3.95-2 10.25 10.25 0 0 0 2.56-4.68 31.6 31.6 0 0 0 1-8.87 28.94 28.94 0 0 0-1-8.62 11.06 11.06 0 0 0-2.77-4.69 9.37 9.37 0 0 0-4.53-2.28 44.29 44.29 0 0 0-8-.46zM485.63 54H475l-4.23-11H451.4l-4 11H437l18.9-48.48h10.34zm-18-19.17l-6.67-18-6.54 18zM498.32 54V33.57l-17.74-28h11.47l11.39 19.16 11.17-19.21h11.27l-17.81 28.12V54z" id="Layer_1-2" data-name="Layer 1"/></g></svg>