<svg id="Layer_1" data-name="Layer 1" xmlns="http://www.w3.org/2000/svg" viewBox="0 0 25 17.01"><defs><style>.cls-1{fill:#fff}</style></defs><title>icon-upload</title><path class="cls-1" d="M20.3 5.71a5.3 5.3 0 0 0-5.51-2.65A5.44 5.44 0 0 0 4.46 5.38v.38A5.69 5.69 0 0 0 5.76 17h5.62v-6.31l-.81.79a1.15 1.15 0 0 1-1.58 0A1.09 1.09 0 0 1 9 9.92l2.72-2.69a1.12 1.12 0 0 1 .78-.32h.11a1.09 1.09 0 0 1 .7.32L16 9.92a1.07 1.07 0 0 1 .33.78 1 1 0 0 1-.33.78 1.15 1.15 0 0 1-1.58 0l-.82-.81V17h5.64A5.69 5.69 0 0 0 20.3 5.71z"/></svg>