<svg id="Layer_1" data-name="Layer 1" xmlns="http://www.w3.org/2000/svg" viewBox="0 0 20.51 18.51"><defs><style>.cls-1{fill:#fff}</style></defs><title>icon-warn</title><path class="cls-1" d="M20.1 13.92L12.91 1.54a3.06 3.06 0 0 0-5.31 0L.41 13.92a3.06 3.06 0 0 0 2.66 4.59h14.35a3.08 3.08 0 0 0 2.68-4.59zm-9.85 1.85a1.14 1.14 0 0 1 0-2.28 1.14 1.14 0 0 1 0 2.28zm1-7.37l-.15 2.65a7.49 7.49 0 0 0 0 .82.85.85 0 0 1-.86.83.83.83 0 0 1-.86-.8c-.07-1.38-.15-2.72-.23-4.1 0-.36-.05-.73-.08-1.09A1.24 1.24 0 0 1 10 5.47a1.14 1.14 0 0 1 1.32.65 1.21 1.21 0 0 1 .11.57c-.05.57-.11 1.15-.14 1.71z"/></svg>