<svg id="Layer_1" data-name="Layer 1" xmlns="http://www.w3.org/2000/svg" viewBox="0 0 638.1 170.6"><defs><style>.cls-1{fill:#fff}.cls-2{clip-path:url(#clip-path)}</style><clipPath id="clip-path"><path class="cls-1" d="M0 2.1h17.3v31h31.8v-31h17.2v78.3H49.1V48.9H17.3v31.4H.1V2.1zM103.3 18H79.5V2.1h64.8V18h-23.8v62.4h-17.2zm47.4 23.5v-.2C150.7 19 167.5.8 191.5.8c14.8 0 23.6 4.9 30.9 12.1l-11 12.6c-6-5.5-12.2-8.8-20-8.8-13.2 0-22.7 11-22.7 24.4v.2c0 13.4 9.3 24.6 22.7 24.6 8.9 0 14.4-3.6 20.6-9.2l11 11.1c-8.1 8.6-17 14-32.1 14-23.1-.1-40.2-17.9-40.2-40.3zm128.8 14.8L263.7 33h12.2l9.9 15.4L295.9 33h11.8l-15.8 23.1 16.4 24.3h-12.2l-10.6-16.2-10.7 16.2H263zm94.4 14.8a30.13 30.13 0 0 0 1.2-3 240.12 240.12 0 0 0 6.9-23.3h-5.9c-3.5 0-7.5.2-10.6.5V30.5c2.8.3 7 .5 11.1.5h8.4c1.5-7.6 1.9-9.9 2.6-15.6H374a131.38 131.38 0 0 0-13.9.6V1a96.12 96.12 0 0 0 13.6.6h52.2a105.36 105.36 0 0 0 13.9-.6v14.9a110.11 110.11 0 0 0-13.8-.6h-22.7c-.9 6-1.5 9.7-2.6 15.6h17.4c5.4 0 8.5-.1 12.2-.4-.3 3.5-.5 6.9-.5 11V71h2.2a87 87 0 0 0 12.8-.6v15.3a117.87 117.87 0 0 0-14-.7h-61.2a129.84 129.84 0 0 0-14.2.7V70.5a94.45 94.45 0 0 0 13.6.6zm40.6 0V44.7h-16.8a262.61 262.61 0 0 1-7.2 26.4zm62.6-11.8c-2 11.9-6.2 20.8-14.3 30.5a48.47 48.47 0 0 0-12.4-12.7 37.31 37.31 0 0 0 9.3-15.2c2.9-8.7 3.9-20.1 3.9-46.8A132.29 132.29 0 0 0 463 0a115.21 115.21 0 0 0 12.8.5h44.1a91.9 91.9 0 0 0 12.3-.5c-.4 2.8-.5 5.4-.5 12v62.3c0 6.3-1.3 9.8-4.3 11.8-2.7 1.9-6.4 2.5-14.4 2.5-2.9 0-6.4-.1-11.1-.3a58.43 58.43 0 0 0-4.1-15.2 114 114 0 0 0 15.2 1.3c2.7 0 3.3-.4 3.3-2.1v-13zm39.3-13.4v-9.5h-37.3c-.2 4-.3 5.8-.6 9.5zm0-22.9v-8.5h-37.2V23zm83.2 20.2A46.33 46.33 0 0 0 611.1 60 54.76 54.76 0 0 0 628 70.8a57.28 57.28 0 0 0 10.1 3 77.53 77.53 0 0 0-9.1 14.9c-10.8-4-18.8-9-26-16.5a58.41 58.41 0 0 1-11.1-16.5 47.22 47.22 0 0 1-13 18.5c-7.2 6.4-14.8 10.6-25.6 14.2a51.19 51.19 0 0 0-8.7-14.2c12.2-3 20.1-7 26.4-13.4 4.9-4.9 7.5-10 9.4-17.7h-15.8c-4.9 0-9.9.2-14.3.6V29.2c4.2.4 8.7.6 14.1.6h17.9c.1-2.5.2-6.9.4-13.1h-21.1c-5.2 0-10.1.2-14.5.6v-15c3.9.4 9.2.6 14.6.6h59.1c5.2 0 10.4-.2 14.6-.6v15c-4.6-.4-9.4-.6-14.5-.6h-23.1c-.1 6-.3 10.3-.4 13.1h20.1c5.4 0 10-.2 14.5-.6v14.6c-4.6-.4-9.2-.6-14.3-.6z"/></clipPath></defs><title>main-title-4</title><path class="cls-1" d="M4.5 155.9H.4v-4.5H5l.8-6.5H1.5v-4.6h4.9l1.2-9.1h4l-1 9.1h6l1.2-9.1h4.1l-1.1 9.1H25v4.6h-4.8l-.8 6.5h4.5v4.5h-5l-1.3 10.4h-4.2l1.2-10.3h-6l-1.2 10.3H3.3zm10.7-4.5l.8-6.5h-6l-.8 6.5zm84.3-23.9v42.9H94v-2.1H64v2.1h-5.2v-43h40.7zM94 163.6v-31.1H64v31.1zm-12.7-18c-.1.7-.2 1.4-.3 2a64.81 64.81 0 0 1 11.3 10.9l-3.9 3.6a79.16 79.16 0 0 0-8.9-9.4c-1.8 4.3-4.9 7.7-10.2 10.1a16.69 16.69 0 0 0-3.4-4.5c6.4-2.7 8.9-6.8 9.9-12.5h-9.5v-5.1h10c.1-2 .2-4 .2-6.2H82a61.33 61.33 0 0 1-.3 6.2h10v5.1zm94.9 8.1c-.8 9.2-1.6 13.2-3.1 14.8a5 5 0 0 1-3.6 1.8 36.17 36.17 0 0 1-5.7.1 13.08 13.08 0 0 0-1.5-5.1 23.63 23.63 0 0 0 4.6.2 1.94 1.94 0 0 0 1.6-.5c.8-.8 1.4-3.1 2-8.6h-28.4c-.8.6-1.6 1.1-2.4 1.6l4.3 1.4c-1 4.1-2.6 8.2-5.6 10.8l-4.4-2.8a16.66 16.66 0 0 0 5.1-9c-1.1.7-2.3 1.3-3.5 2a36 36 0 0 0-2.9-5 43.5 43.5 0 0 0 18.2-16.3h-15.3v-5h8a38.29 38.29 0 0 0-3-6.1l4.9-1.9a36 36 0 0 1 3.7 7l-2.4 1h6.9a57.27 57.27 0 0 0 3.3-8.1l5.7 1.6q-1.2 3.3-2.7 6.6h9.3c-.5 2.9-1.2 6.1-1.8 8.7h5.4c-.5 2.9-1.1 6.2-1.7 8.8h5.1zm-25.9 5.6a32.88 32.88 0 0 1 1.3 8.8l-4.9.6a32.58 32.58 0 0 0-1-8.8zm1.2-11.7a43.75 43.75 0 0 1-3.6 3.9h18.2c.3-1.1.6-2.5.9-3.9zm5.8 10.8a42.49 42.49 0 0 1 2.3 7.7l-4.5 1.1a42 42 0 0 0-2.2-7.9zm.1-19.4c-.7 1.3-1.5 2.5-2.3 3.8h7.3a31.43 31.43 0 0 0 .8-3.8zm5.3 25.8a28.23 28.23 0 0 0-2.8-6.4l3.9-1.3a24.62 24.62 0 0 1 3.1 6.3zm71.6-.3h18.8v4.9h-43.2v-4.9h18.6v-3.9h-13.6v-4.7h13.6v-3.1h-17v-25.3h19.6v4.3h-5.2v2.7h5.2v11.1h-5.2v3h5.6v4.1h2.8v3.2h14.1v4.7h-14.1zm-17.7-32.8v2.7h4.3v-2.7zm9.4 6.8h-9.4v3.1h9.4zm-9.4 10h4.3v-3h-4.3zm35.7-19.8a40 40 0 0 1-6.9 15.8 26.41 26.41 0 0 0 8.1 5.1 21.18 21.18 0 0 0-3.5 4.4 24.43 24.43 0 0 1-8.2-5.6 32.8 32.8 0 0 1-6.9 4.8 21.47 21.47 0 0 0-3.3-4.6 24.55 24.55 0 0 0 6.6-4.4 39.36 39.36 0 0 1-5.3-10.9l1.9-.5h-2.3v-5.1h15.2l1-.2zm-14.2 4.2a30.15 30.15 0 0 0 3.7 7.4 34.9 34.9 0 0 0 3.9-7.4zm62.8 18.3c-1.4.4-2.9.9-4.3 1.2v11.4c0 2.6-.4 4-1.9 4.9s-3.5 1.1-6.5 1.1a16.27 16.27 0 0 0-1.5-5.2h4c.6 0 .8-.2.8-.8V154l-5 1.5-1.2-5.4c1.8-.4 3.9-.9 6.3-1.6v-8.3h-5.5V135h5.4v-9h5.2v9h3.9v5.2h-3.9v7l3.6-1zm29.1-19.8v5.1h-11.7v3.8h9.6v5.1h-24.4v-5.1h9.4v-3.8H301v-5.1h11.9v-5.2h5.4v5.2zm-5.5 18.1h5.2v5.1h-5.2v9.8c0 2.8-.5 4.2-2.4 5.1s-4.3.9-7.7.9a24.88 24.88 0 0 0-1.6-5.3c1.8.1 3.6.1 5.4.1.7 0 .9-.1.9-.8v-9.7h-17.5v-5.1h17.5v-3.3h5.4zm-15.9 5.5a85.21 85.21 0 0 1 5.3 8l-4.8 2.8a76.08 76.08 0 0 0-5-8.3zm61.2-1.3c-.4 6-1.4 12.5-4 16.9a26 26 0 0 0-4.6-3.6c3-5.5 3.2-13.5 3.2-19.7v-17.2a81.93 81.93 0 0 0 16.2-3.4l3.6 4.8a75.93 75.93 0 0 1-14.2 2.8v3.4h12.2v15.9h-12.4zm.2-10.8v5.8h6.8v-5.8zm36.2 4.3h-4.3V170h-5.6v-22.8h-5c-.2 7.6-1.8 17.4-8.5 23.3a33.11 33.11 0 0 0-4.4-3.9c6.6-5.9 7.1-14.8 7.1-21.6v-14.8a76.62 76.62 0 0 0 16.4-3.8l3.7 4.9a76.55 76.55 0 0 1-14.2 3.1v7.2h14.9zm52.3 9.8c-6.3 2.8-13.3 5.8-18.7 8.1l-1.9-6.1c1.8-.6 4-1.4 6.3-2.3l-1-27.8 5.9-.2.9 25.8c2.4-1 4.8-2 7.2-2.9zm19.7 13.4a88.25 88.25 0 0 0-8.9-11.5 35 35 0 0 1-14.5 11.6 35.68 35.68 0 0 0-4.5-5c15.1-5.7 20-17.2 21.8-36.8l6.2.6c-1 9.8-2.7 17.7-5.8 24.2 4 4.1 8.4 8.9 10.6 12.2zm-17.9-24.5a48.74 48.74 0 0 0-7.1-11.8l5.2-2.6a47.86 47.86 0 0 1 7.5 11.4zm90.4 13.9c2.7 1.9 6.1 4.4 7.7 6.3l-3.5 3.6a45.8 45.8 0 0 0-7.7-6.9l3.2-3h-4.2v10.6H541v-10.7h-11.4v-4.4h5.1a32.33 32.33 0 0 0-2.2-4.1l4-1.9a21.34 21.34 0 0 1 2.7 4.6l-2.7 1.4h4.5v-7h3.2a18.31 18.31 0 0 0-2.4-3.1 20.17 20.17 0 0 0 6.3-4.5l-3.4-3.1a25 25 0 0 1-13.2 13 18.31 18.31 0 0 0-2.6-3.6 20.93 20.93 0 0 0 6.3-3.7c-.8-.8-1.6-1.7-2.5-2.5-.3.6-.7 1.1-1 1.6a11.87 11.87 0 0 0-2.3-1.6c-.7 2-1.3 4.1-2 5.6l-2.6-1.1a78.87 78.87 0 0 1-.5 8.4c1.4 2 4.6 7.1 5.4 8.4l-3.4 3.5c-.7-1.6-1.9-3.9-3-6a27.71 27.71 0 0 1-5.5 10.8 15 15 0 0 0-3.4-3.7c4.5-5.6 5.6-12.6 5.8-19.8l-3.7 1.1c-.6-4.4-1.4-8.7-2.4-13l3.8-.9c.9 3.4 1.9 7.6 2.4 10.8v-18.3h4.7V143c.7-2.7 1.3-6 1.7-8.5l4.2 1.5a33.11 33.11 0 0 0 1.2-4.2l4 .9a8.33 8.33 0 0 1-.4 1.5h1v-8h4.5v2.3h3.5v3.9h-3.5v1.7h1l.8-.2 2.9 1.3-.2.7 2-1.6c1.1.9 2.3 1.8 3.5 2.9a22.19 22.19 0 0 0 2-4.1h-7.4v-4.4h9.3l.9-.1 3 1a33.33 33.33 0 0 1-4.4 10.9 37 37 0 0 1 4.8 4.9l-3.7 3.1a27.89 27.89 0 0 0-4-4.4 25.35 25.35 0 0 1-5.8 4.4h.5v7.1h4.9l-2.8-1.3a47.39 47.39 0 0 0 2.6-5l4.4 1.9c-1.1 1.6-2.2 3.1-3.1 4.3h6v4.4zm-10.4 1.8a42.81 42.81 0 0 1-7.7 8.2 25.72 25.72 0 0 0-3.9-3.5 29.1 29.1 0 0 0 6.7-6.4zm-5.8-23.7c1.1.9 2.3 2 3.2 2.9a18.72 18.72 0 0 0 2-2.9zm57.3 11a130.35 130.35 0 0 0-1.6-14l3.9-.7a120.17 120.17 0 0 1 1.9 13.7zm19.3-6.1v27.6h-4.6v-9.3l-3.3 3.4c-.8-1.6-2-3.9-3.3-6a28.76 28.76 0 0 1-5.7 12.1 16.72 16.72 0 0 0-3.6-3.9c5.2-6.8 5.9-15.6 5.9-23.8v-16.4h4.9v15.8a84.55 84.55 0 0 0 1.9-8.4l3.3 1.2v-7.6H619v15.4zm-9.8 1.6a69.67 69.67 0 0 1-.4 7.9c1.4 1.7 4.4 6.2 5.6 8v-21.5c-1 2.5-1.8 5-2.6 6.8zm9.8-13.2v2.1h3.5v-2.1zm3.5 7.8v-2.2h-3.5v2.2zm11.1 26.7c-1-.8-2.4-1.8-3.9-2.8v5.9h-3.7v-5.5a20.1 20.1 0 0 1-3.9 3.8 12.74 12.74 0 0 0-2.5-2.7 18 18 0 0 0 5.4-4.9h-4.2v-9.7h5.2v-1.4h-5.7v-3h5.7v-2h3.8v2h5.8v3h-5.8v1.4h5.2v9.7h-4.6a50.67 50.67 0 0 1 5.4 3.6zm-10.2-8.8h3.1v-4.5h-3.1zm1.9-4a24.88 24.88 0 0 1 1.1 2.9l-1.9.7a11.76 11.76 0 0 0-1-3zm16.1 12.9c0 2-.3 3-1.5 3.7s-2.7.8-4.7.8a11.74 11.74 0 0 0-1.3-4c1 .1 1.9.1 2.2.1s.5-.2.5-.6v-22.9h-7.9v-15.4h12.5zm-9.2-13.4h-3v4.5h3.1v-3a13.5 13.5 0 0 0-1.5 2.6l-1.3-.6a28.27 28.27 0 0 0 1.1-3.1l1.8.9zm.9-21.2v2.1h3.6v-2.1zm3.6 7.8v-2.2h-3.6v2.2z"/><path id="SVGID" class="cls-1" d="M0 2.1h17.3v31h31.8v-31h17.2v78.3H49.1V48.9H17.3v31.4H.1V2.1zM103.3 18H79.5V2.1h64.8V18h-23.8v62.4h-17.2zm47.4 23.5v-.2C150.7 19 167.5.8 191.5.8c14.8 0 23.6 4.9 30.9 12.1l-11 12.6c-6-5.5-12.2-8.8-20-8.8-13.2 0-22.7 11-22.7 24.4v.2c0 13.4 9.3 24.6 22.7 24.6 8.9 0 14.4-3.6 20.6-9.2l11 11.1c-8.1 8.6-17 14-32.1 14-23.1-.1-40.2-17.9-40.2-40.3zm128.8 14.8L263.7 33h12.2l9.9 15.4L295.9 33h11.8l-15.8 23.1 16.4 24.3h-12.2l-10.6-16.2-10.7 16.2H263zm94.4 14.8a30.13 30.13 0 0 0 1.2-3 240.12 240.12 0 0 0 6.9-23.3h-5.9c-3.5 0-7.5.2-10.6.5V30.5c2.8.3 7 .5 11.1.5h8.4c1.5-7.6 1.9-9.9 2.6-15.6H374a131.38 131.38 0 0 0-13.9.6V1a96.12 96.12 0 0 0 13.6.6h52.2a105.36 105.36 0 0 0 13.9-.6v14.9a110.11 110.11 0 0 0-13.8-.6h-22.7c-.9 6-1.5 9.7-2.6 15.6h17.4c5.4 0 8.5-.1 12.2-.4-.3 3.5-.5 6.9-.5 11V71h2.2a87 87 0 0 0 12.8-.6v15.3a117.87 117.87 0 0 0-14-.7h-61.2a129.84 129.84 0 0 0-14.2.7V70.5a94.45 94.45 0 0 0 13.6.6zm40.6 0V44.7h-16.8a262.61 262.61 0 0 1-7.2 26.4zm62.6-11.8c-2 11.9-6.2 20.8-14.3 30.5a48.47 48.47 0 0 0-12.4-12.7 37.31 37.31 0 0 0 9.3-15.2c2.9-8.7 3.9-20.1 3.9-46.8A132.29 132.29 0 0 0 463 0a115.21 115.21 0 0 0 12.8.5h44.1a91.9 91.9 0 0 0 12.3-.5c-.4 2.8-.5 5.4-.5 12v62.3c0 6.3-1.3 9.8-4.3 11.8-2.7 1.9-6.4 2.5-14.4 2.5-2.9 0-6.4-.1-11.1-.3a58.43 58.43 0 0 0-4.1-15.2 114 114 0 0 0 15.2 1.3c2.7 0 3.3-.4 3.3-2.1v-13zm39.3-13.4v-9.5h-37.3c-.2 4-.3 5.8-.6 9.5zm0-22.9v-8.5h-37.2V23zm83.2 20.2A46.33 46.33 0 0 0 611.1 60 54.76 54.76 0 0 0 628 70.8a57.28 57.28 0 0 0 10.1 3 77.53 77.53 0 0 0-9.1 14.9c-10.8-4-18.8-9-26-16.5a58.41 58.41 0 0 1-11.1-16.5 47.22 47.22 0 0 1-13 18.5c-7.2 6.4-14.8 10.6-25.6 14.2a51.19 51.19 0 0 0-8.7-14.2c12.2-3 20.1-7 26.4-13.4 4.9-4.9 7.5-10 9.4-17.7h-15.8c-4.9 0-9.9.2-14.3.6V29.2c4.2.4 8.7.6 14.1.6h17.9c.1-2.5.2-6.9.4-13.1h-21.1c-5.2 0-10.1.2-14.5.6v-15c3.9.4 9.2.6 14.6.6h59.1c5.2 0 10.4-.2 14.6-.6v15c-4.6-.4-9.4-.6-14.5-.6h-23.1c-.1 6-.3 10.3-.4 13.1h20.1c5.4 0 10-.2 14.5-.6v14.6c-4.6-.4-9.2-.6-14.3-.6z"/><path class="cls-1" d="M0 2.1h17.3v31h31.8v-31h17.2v78.3H49.1V48.9H17.3v31.4H.1V2.1zM103.3 18H79.5V2.1h64.8V18h-23.8v62.4h-17.2zm47.4 23.5v-.2C150.7 19 167.5.8 191.5.8c14.8 0 23.6 4.9 30.9 12.1l-11 12.6c-6-5.5-12.2-8.8-20-8.8-13.2 0-22.7 11-22.7 24.4v.2c0 13.4 9.3 24.6 22.7 24.6 8.9 0 14.4-3.6 20.6-9.2l11 11.1c-8.1 8.6-17 14-32.1 14-23.1-.1-40.2-17.9-40.2-40.3zm128.8 14.8L263.7 33h12.2l9.9 15.4L295.9 33h11.8l-15.8 23.1 16.4 24.3h-12.2l-10.6-16.2-10.7 16.2H263zm94.4 14.8a30.13 30.13 0 0 0 1.2-3 240.12 240.12 0 0 0 6.9-23.3h-5.9c-3.5 0-7.5.2-10.6.5V30.5c2.8.3 7 .5 11.1.5h8.4c1.5-7.6 1.9-9.9 2.6-15.6H374a131.38 131.38 0 0 0-13.9.6V1a96.12 96.12 0 0 0 13.6.6h52.2a105.36 105.36 0 0 0 13.9-.6v14.9a110.11 110.11 0 0 0-13.8-.6h-22.7c-.9 6-1.5 9.7-2.6 15.6h17.4c5.4 0 8.5-.1 12.2-.4-.3 3.5-.5 6.9-.5 11V71h2.2a87 87 0 0 0 12.8-.6v15.3a117.87 117.87 0 0 0-14-.7h-61.2a129.84 129.84 0 0 0-14.2.7V70.5a94.45 94.45 0 0 0 13.6.6zm40.6 0V44.7h-16.8a262.61 262.61 0 0 1-7.2 26.4zm62.6-11.8c-2 11.9-6.2 20.8-14.3 30.5a48.47 48.47 0 0 0-12.4-12.7 37.31 37.31 0 0 0 9.3-15.2c2.9-8.7 3.9-20.1 3.9-46.8A132.29 132.29 0 0 0 463 0a115.21 115.21 0 0 0 12.8.5h44.1a91.9 91.9 0 0 0 12.3-.5c-.4 2.8-.5 5.4-.5 12v62.3c0 6.3-1.3 9.8-4.3 11.8-2.7 1.9-6.4 2.5-14.4 2.5-2.9 0-6.4-.1-11.1-.3a58.43 58.43 0 0 0-4.1-15.2 114 114 0 0 0 15.2 1.3c2.7 0 3.3-.4 3.3-2.1v-13zm39.3-13.4v-9.5h-37.3c-.2 4-.3 5.8-.6 9.5zm0-22.9v-8.5h-37.2V23zm83.2 20.2A46.33 46.33 0 0 0 611.1 60 54.76 54.76 0 0 0 628 70.8a57.28 57.28 0 0 0 10.1 3 77.53 77.53 0 0 0-9.1 14.9c-10.8-4-18.8-9-26-16.5a58.41 58.41 0 0 1-11.1-16.5 47.22 47.22 0 0 1-13 18.5c-7.2 6.4-14.8 10.6-25.6 14.2a51.19 51.19 0 0 0-8.7-14.2c12.2-3 20.1-7 26.4-13.4 4.9-4.9 7.5-10 9.4-17.7h-15.8c-4.9 0-9.9.2-14.3.6V29.2c4.2.4 8.7.6 14.1.6h17.9c.1-2.5.2-6.9.4-13.1h-21.1c-5.2 0-10.1.2-14.5.6v-15c3.9.4 9.2.6 14.6.6h59.1c5.2 0 10.4-.2 14.6-.6v15c-4.6-.4-9.4-.6-14.5-.6h-23.1c-.1 6-.3 10.3-.4 13.1h20.1c5.4 0 10-.2 14.5-.6v14.6c-4.6-.4-9.2-.6-14.3-.6z"/><g class="cls-2"><path class="cls-1" d="M-906.5-38.2h2035.7v170.6H-906.5z"/></g></svg>