<?xml version="1.0" encoding="utf-8"?>
<!-- Generator: Adobe Illustrator 25.0.1, SVG Export Plug-In . SVG Version: 6.00 Build 0)  -->
<svg version="1.1" id="レイヤー_1" xmlns="http://www.w3.org/2000/svg" xmlns:xlink="http://www.w3.org/1999/xlink" x="0px"
	 y="0px" viewBox="0 0 270.6 270.6" style="enable-background:new 0 0 270.6 270.6;" xml:space="preserve">
<style type="text/css">
	.st0{fill:#FFFFFF;}
</style>
<g>
	<g>
		<g>
			<path class="st0" d="M142.9,269.6l-0.7-131.3c0-3.3,1.2-6.3,3.5-8.7c2.3-2.3,5.3-3.6,8.6-3.6l75.2-0.5c0,0,0.1,0,0.1,0
				c3.2,0,6.3,1.2,8.6,3.5c2.3,2.3,3.6,5.3,3.6,8.6l0.7,78l-6,5.1l-0.7-83.1c0-1.7-0.7-3.2-1.9-4.4c-1.2-1.2-2.8-1.8-4.4-1.8
				l-75.2,0.5c-3.4,0-6.2,2.8-6.2,6.3l0.7,131.3L142.9,269.6z"/>
			<polygon class="st0" points="158.4,129 158.2,112.4 225.4,111.9 225.5,128.5 219.5,128.6 219.4,117.9 164.3,118.3 164.4,129 			
				"/>
			<polygon class="st0" points="177,113.3 176.8,79.3 206.5,79.1 206.7,113.1 200.7,113.1 200.6,85.2 182.9,85.3 183,113.3 			"/>
		</g>
		<path class="st0" d="M148,96.3h-6c-1.4,0-2.5-1.1-2.5-2.5s1.1-2.5,2.5-2.5h6c1.4,0,2.5,1.1,2.5,2.5S149.4,96.3,148,96.3z
			 M133,96.3h-6c-1.4,0-2.5-1.1-2.5-2.5s1.1-2.5,2.5-2.5h6c1.4,0,2.5,1.1,2.5,2.5S134.4,96.3,133,96.3z M118,96.3h-6
			c-1.4,0-2.5-1.1-2.5-2.5s1.1-2.5,2.5-2.5h6c1.4,0,2.5,1.1,2.5,2.5S119.4,96.3,118,96.3z M103,96.3h-6c-1.4,0-2.5-1.1-2.5-2.5
			s1.1-2.5,2.5-2.5h6c1.4,0,2.5,1.1,2.5,2.5S104.4,96.3,103,96.3z M88,96.3h-6c-1.4,0-2.5-1.1-2.5-2.5s1.1-2.5,2.5-2.5h6
			c1.4,0,2.5,1.1,2.5,2.5S89.4,96.3,88,96.3z M73,96.3h-6c-1.4,0-2.5-1.1-2.5-2.5s1.1-2.5,2.5-2.5h6c1.4,0,2.5,1.1,2.5,2.5
			S74.4,96.3,73,96.3z M58,96.3h-6c-1.4,0-2.5-1.1-2.5-2.5s1.1-2.5,2.5-2.5h6c1.4,0,2.5,1.1,2.5,2.5S59.4,96.3,58,96.3z M43,96.3h-6
			c-1.4,0-2.5-1.1-2.5-2.5s1.1-2.5,2.5-2.5h6c1.4,0,2.5,1.1,2.5,2.5S44.4,96.3,43,96.3z"/>
		<path class="st0" d="M41.6,128.1c-1.1,0-2.1-0.7-2.4-1.8c-0.4-1.3,0.4-2.7,1.7-3.1l5.7-1.7c1.3-0.4,2.7,0.4,3.1,1.7
			c0.4,1.3-0.4,2.7-1.7,3.1l-5.7,1.7C42.1,128,41.9,128.1,41.6,128.1z M56,123.8c-1.1,0-2.1-0.7-2.4-1.8c-0.4-1.3,0.4-2.7,1.7-3.1
			l5.7-1.7c1.3-0.4,2.7,0.4,3.1,1.7s-0.4,2.7-1.7,3.1l-5.7,1.7C56.5,123.7,56.2,123.8,56,123.8z M70.4,119.5c-1.1,0-2.1-0.7-2.4-1.8
			c-0.4-1.3,0.4-2.7,1.7-3.1l5.7-1.7c1.3-0.4,2.7,0.4,3.1,1.7s-0.4,2.7-1.7,3.1l-5.7,1.7C70.8,119.5,70.6,119.5,70.4,119.5z
			 M84.7,115.2c-1.1,0-2.1-0.7-2.4-1.8c-0.4-1.3,0.4-2.7,1.7-3.1l5.7-1.7c1.3-0.4,2.7,0.4,3.1,1.7s-0.4,2.7-1.7,3.1l-5.7,1.7
			C85.2,115.2,85,115.2,84.7,115.2z M99.1,110.9c-1.1,0-2.1-0.7-2.4-1.8c-0.4-1.3,0.4-2.7,1.7-3.1l5.7-1.7c1.3-0.4,2.7,0.4,3.1,1.7
			c0.4,1.3-0.4,2.7-1.7,3.1l-5.7,1.7C99.6,110.9,99.4,110.9,99.1,110.9z M113.5,106.6c-1.1,0-2.1-0.7-2.4-1.8
			c-0.4-1.3,0.4-2.7,1.7-3.1l5.7-1.7c1.3-0.4,2.7,0.4,3.1,1.7c0.4,1.3-0.4,2.7-1.7,3.1l-5.7,1.7C114,106.6,113.7,106.6,113.5,106.6z
			 M127.9,102.3c-1.1,0-2.1-0.7-2.4-1.8c-0.4-1.3,0.4-2.7,1.7-3.1l5.7-1.7c1.3-0.4,2.7,0.4,3.1,1.7c0.4,1.3-0.4,2.7-1.7,3.1
			l-5.7,1.7C128.3,102.3,128.1,102.3,127.9,102.3z M142.2,98c-1.1,0-2.1-0.7-2.4-1.8c-0.4-1.3,0.4-2.7,1.7-3.1l5.7-1.7
			c1.3-0.4,2.7,0.4,3.1,1.7c0.4,1.3-0.4,2.7-1.7,3.1l-5.7,1.7C142.7,98,142.5,98,142.2,98z"/>
		<path class="st0" d="M148,96.3c-0.2,0-0.5,0-0.7-0.1l-5.7-1.8c-1.3-0.4-2.1-1.8-1.6-3.1c0.4-1.3,1.8-2.1,3.1-1.6l5.7,1.8
			c1.3,0.4,2.1,1.8,1.6,3.1C150,95.6,149,96.3,148,96.3z M133.7,91.9c-0.2,0-0.5,0-0.7-0.1l-5.7-1.8c-1.3-0.4-2.1-1.8-1.6-3.1
			c0.4-1.3,1.8-2.1,3.1-1.6l5.7,1.8c1.3,0.4,2.1,1.8,1.6,3.1C135.7,91.2,134.7,91.9,133.7,91.9z M119.3,87.4c-0.2,0-0.5,0-0.7-0.1
			l-5.7-1.8c-1.3-0.4-2.1-1.8-1.6-3.1c0.4-1.3,1.8-2.1,3.1-1.6l5.7,1.8c1.3,0.4,2.1,1.8,1.6,3.1C121.4,86.7,120.4,87.4,119.3,87.4z
			 M105,83c-0.2,0-0.5,0-0.7-0.1l-5.7-1.8c-1.3-0.4-2.1-1.8-1.6-3.1s1.8-2.1,3.1-1.6l5.7,1.8c1.3,0.4,2.1,1.8,1.6,3.1
			C107.1,82.3,106.1,83,105,83z M90.7,78.5c-0.2,0-0.5,0-0.7-0.1l-5.7-1.8c-1.3-0.4-2.1-1.8-1.6-3.1s1.8-2.1,3.1-1.6l5.7,1.8
			c1.3,0.4,2.1,1.8,1.6,3.1C92.7,77.9,91.7,78.5,90.7,78.5z M76.4,74.1c-0.2,0-0.5,0-0.7-0.1l-5.7-1.8c-1.3-0.4-2.1-1.8-1.6-3.1
			s1.8-2.1,3.1-1.6l5.7,1.8c1.3,0.4,2.1,1.8,1.6,3.1C78.4,73.4,77.4,74.1,76.4,74.1z M62,69.7c-0.2,0-0.5,0-0.7-0.1l-5.7-1.8
			c-1.3-0.4-2.1-1.8-1.6-3.1c0.4-1.3,1.8-2.1,3.1-1.6l5.7,1.8c1.3,0.4,2.1,1.8,1.6,3.1C64.1,69,63.1,69.7,62,69.7z M47.7,65.2
			c-0.2,0-0.5,0-0.7-0.1l-5.7-1.8c-1.3-0.4-2.1-1.8-1.6-3.1c0.4-1.3,1.8-2.1,3.1-1.6l5.7,1.8c1.3,0.4,2.1,1.8,1.6,3.1
			C49.8,64.5,48.8,65.2,47.7,65.2z"/>
		<polygon class="st0" points="180.4,103.3 158.2,103.3 158.2,84 180.4,84 180.4,90 164.2,90 164.2,97.3 180.4,97.3 		"/>
	</g>
	<path class="st0" d="M135.3,270.6C60.7,270.6,0,209.9,0,135.3S60.7,0,135.3,0s135.3,60.7,135.3,135.3S209.9,270.6,135.3,270.6z
		 M135.3,4C62.9,4,4,62.9,4,135.3c0,72.4,58.9,131.3,131.3,131.3c72.4,0,131.3-58.9,131.3-131.3C266.6,62.9,207.7,4,135.3,4z"/>
</g>
</svg>
