<svg id="レイヤー_2" data-name="レイヤー 2" xmlns="http://www.w3.org/2000/svg" width="117.1mm" height="7.56mm" viewBox="0 0 331.95 21.44">
  <defs>
    <style>
      .cls-1 {
        fill: #fff;
      }
    </style>
  </defs>
  <g>
    <path class="cls-1" d="M10,13.57h5a14.86,14.86,0,0,0,2.67-.15V16a21.64,21.64,0,0,0-2.63-.1H2.63A21.64,21.64,0,0,0,0,16V13.42a14.86,14.86,0,0,0,2.67.15H7.32V5.12H4.17a21.74,21.74,0,0,0-2.63.1V2.65a15.28,15.28,0,0,0,2.67.14h9.15A15.21,15.21,0,0,0,16,2.65V5.22a21.44,21.44,0,0,0-2.63-.1H10Z"/>
    <path class="cls-1" d="M23.45,5.34a24.12,24.12,0,0,1,2,4.87L23.14,11a20.18,20.18,0,0,0-1.87-5Zm11.8.15a3.89,3.89,0,0,0-.29,1,17.56,17.56,0,0,1-2.84,6.84,15.66,15.66,0,0,1-6.27,4.95,7.44,7.44,0,0,0-1.64-2,13.5,13.5,0,0,0,3.49-1.89,11.81,11.81,0,0,0,4.67-7.13,9,9,0,0,0,.37-2.37Zm-7.42-1a20,20,0,0,1,2,4.73L27.54,10a22.68,22.68,0,0,0-1.87-4.83Z"/>
    <path class="cls-1" d="M56.31,5.43a5.74,5.74,0,0,0-.57,1,14.94,14.94,0,0,1-5,6,6.79,6.79,0,0,0-2.05-1.66A10.54,10.54,0,0,0,52,7.87c.29-.41.41-.59.78-1.21L52,6.78c-2.08.25-4.2.52-6.33.82v4.63A9.46,9.46,0,0,0,45.79,14c.14.8.8,1,2.9,1a22.57,22.57,0,0,0,6.31-.8L55.12,17c-.55,0-.72,0-1.25.08a45,45,0,0,1-5.1.35,14,14,0,0,1-3.66-.35,2.72,2.72,0,0,1-1.77-1.89,8.12,8.12,0,0,1-.2-2.59V7.89l-1.93.25a11.25,11.25,0,0,0-2.29.39L38.66,6c.22,0,.39,0,.49,0A16.77,16.77,0,0,0,41,5.86l2.18-.27V2.77A9.6,9.6,0,0,0,43,.82h2.84a10.31,10.31,0,0,0-.12,1.91V5.32l7.48-.9a4,4,0,0,0,1.58-.35Z"/>
    <path class="cls-1" d="M59.66,14.7a19.68,19.68,0,0,0,6.09-1.53,13.76,13.76,0,0,0,6.1-5A17.64,17.64,0,0,0,74,4a9,9,0,0,0,2.17,2,18,18,0,0,1-6.51,8.06,22.26,22.26,0,0,1-7.83,3.08,8.21,8.21,0,0,0-1.36.35ZM61.41,1.93a29.17,29.17,0,0,1,5.3,4L64.94,8.14A21.47,21.47,0,0,0,59.7,4Z"/>
    <path class="cls-1" d="M93.47,17.84a39.26,39.26,0,0,0-6.31-6.1,24.56,24.56,0,0,1-7.83,5.94,8.32,8.32,0,0,0-1.67-2.29,16.79,16.79,0,0,0,4.12-2.26,19.82,19.82,0,0,0,6.9-8.36l.23-.54c-.33,0-.33,0-6.81.13a16.73,16.73,0,0,0-2.24.16l-.08-2.63A9.3,9.3,0,0,0,81.59,2h.49l7.24-.1a4.36,4.36,0,0,0,1.83-.23l1.35,1.4a4.06,4.06,0,0,0-.65,1.11,27.77,27.77,0,0,1-3.21,5.68,31.45,31.45,0,0,1,3.8,3c.52.45.52.45,3,2.85Z"/>
    <path class="cls-1" d="M107.2,7.71a4,4,0,0,1-1-2.72c0-2.63,2.22-4.29,5.73-4.29,2.49,0,4.32.8,5.2,2.24A4,4,0,0,1,117.68,5a3.82,3.82,0,0,1-3,3.85A4.11,4.11,0,0,1,118.38,13c0,3.06-2.3,4.75-6.52,4.75-2.38,0-4-.52-5.2-1.65A4.26,4.26,0,0,1,105.47,13a3.87,3.87,0,0,1,1.69-3.37,4.39,4.39,0,0,1,2-.82A4,4,0,0,1,107.2,7.71Zm8.28,5.09c0-1.7-1.34-2.73-3.56-2.73s-3.57,1-3.57,2.76,1.31,2.67,3.53,2.67S115.48,14.53,115.48,12.8Zm-6.54-7.52c0,1.5,1.15,2.45,3,2.45s2.94-.93,2.94-2.43-1.15-2.38-3-2.38S108.94,3.84,108.94,5.28Z"/>
    <path class="cls-1" d="M122,16.07A5.65,5.65,0,0,1,120.66,14a13.66,13.66,0,0,1-.8-4.73,12.08,12.08,0,0,1,1.25-5.69A5.85,5.85,0,0,1,126.35.72a6,6,0,0,1,4.34,1.66A5.77,5.77,0,0,1,132,4.46a13.69,13.69,0,0,1,.8,4.77,10.73,10.73,0,0,1-1.52,6.08,5.81,5.81,0,0,1-5,2.43A5.93,5.93,0,0,1,122,16.07Zm6.56-1.58c.93-1,1.44-2.88,1.44-5.28S129.5,5,128.57,4a3,3,0,0,0-2.24-.87,2.75,2.75,0,0,0-2.3,1,7.62,7.62,0,0,0-1.36,5,9.26,9.26,0,0,0,1,4.9,3.28,3.28,0,0,0,4.85.47Z"/>
    <path class="cls-1" d="M137.78,17.88A3.47,3.47,0,0,0,141,19.44a3.68,3.68,0,0,0,3.37-1.54,5.53,5.53,0,0,0,.54-2.73,4.69,4.69,0,0,1-4,1.87c-3.27,0-5.37-2.24-5.37-5.76s2.16-5.85,5.49-5.85a4.35,4.35,0,0,1,3.93,1.8,5,5,0,0,1,0-.67V5.61h2.75a19.59,19.59,0,0,0-.14,2.57v6.89c0,2.46-.54,4-1.73,5.05a7.77,7.77,0,0,1-4.85,1.32,6,6,0,0,1-5.16-2.14Zm1.33-3.7a3.13,3.13,0,0,0,2.18.93,3.45,3.45,0,0,0,2.86-1.63,4.34,4.34,0,0,0,.57-2.34,3.79,3.79,0,0,0-1.23-3,3.07,3.07,0,0,0-2-.74c-2.06,0-3.33,1.54-3.33,4A4,4,0,0,0,139.11,14.18Z"/>
    <path class="cls-1" d="M164.06,10.13c-1.29,1.09-1.87,1.95-1.87,2.84,0,1.33,1.5,1.91,5,1.91a21.35,21.35,0,0,0,6.46-.88l.22,2.81a8.72,8.72,0,0,0-.9.08,33.29,33.29,0,0,1-5.55.48,14.76,14.76,0,0,1-5.14-.68c-1.77-.7-2.63-1.83-2.63-3.43s.8-2.94,2.65-4.48Zm-3.12-8.45a26.85,26.85,0,0,0,6.16.52,25.41,25.41,0,0,0,5.43-.39l.08,2.32a38.44,38.44,0,0,0-5.49,3.39L165.33,6.1c1.3-.82,1.53-1,2-1.25.21-.12.27-.16.53-.33a2.82,2.82,0,0,0,.46-.25,21,21,0,0,1-3.09.17,31.1,31.1,0,0,1-3.76-.25l-.47,0s-.14,0-.29,0Zm10.85,4.57a13.45,13.45,0,0,1,2.16,3l-1.44.76A14,14,0,0,0,170.35,7ZM175,8.74a14.89,14.89,0,0,0-2.09-3L174.25,5a11.48,11.48,0,0,1,2.14,2.89Z"/>
    <path class="cls-1" d="M181.38,14.63a12.21,12.21,0,0,1-1.95,4.2,8.41,8.41,0,0,0-1.68-1.22,10.16,10.16,0,0,0,1.89-3.84ZM180,13.69a12.93,12.93,0,0,0-1.46.06c0-.6.06-1.44.06-2.18V2.65a20.48,20.48,0,0,0-.08-2c.47,0,.94.06,1.7.06h2.43A16.13,16.13,0,0,0,184.28.6a18.37,18.37,0,0,0-.06,1.85v9.37a13.6,13.6,0,0,0,.06,1.93,13.37,13.37,0,0,0-1.42-.06Zm.45-9.27h1.93V2.57h-1.93Zm0,3.58h1.93V6.19h-1.93Zm0,3.8h1.93v-2h-1.93Zm2.77,2A12.15,12.15,0,0,0,185,17.24a6.88,6.88,0,0,0-1.62,1.14,19.3,19.3,0,0,1-1.71-3.75ZM186.38,8a10.08,10.08,0,0,0-1.69.11V6.25a9.92,9.92,0,0,0,1.69.1h1v-1h-.58a9.23,9.23,0,0,0-1.44.09V3.82a10.07,10.07,0,0,0,1.44.09h.58V3h-.93a11,11,0,0,0-1.52.08V1.34a8.51,8.51,0,0,0,1.58.1h.87A4.59,4.59,0,0,0,187.24,0h2.24a5,5,0,0,0-.12,1.44h2.36A4.56,4.56,0,0,0,191.6,0h2.24a6.84,6.84,0,0,0-.12,1.44H195a7.35,7.35,0,0,0,1.5-.1V3.08A10.72,10.72,0,0,0,195,3h-1.25v.91h.88a8.68,8.68,0,0,0,1.4-.09V5.47a9.5,9.5,0,0,0-1.44-.09h-.84v1h1.33a8.24,8.24,0,0,0,1.65-.1V8.08A8.88,8.88,0,0,0,195,8h-3.57v.91h2.36a17.15,17.15,0,0,0,1.91-.08,16.86,16.86,0,0,0-.08,1.72v3.29a6.76,6.76,0,0,0,1.09-.1v1.83a7.4,7.4,0,0,0-1.09-.08v1.39c0,1.55-.45,1.91-2.3,1.91-.6,0-1.07,0-1.85,0a6.07,6.07,0,0,0-.35-1.83,11.16,11.16,0,0,0,1.7.15c.68,0,.85-.08.85-.47V15.46h-6.13v.9a24.67,24.67,0,0,0,.08,2.53H185.5a20.59,20.59,0,0,0,.1-2.53v-.9a5.43,5.43,0,0,0-1.17.1V13.71a9,9,0,0,0,1.17.1v-3.1c0-.84,0-1.3-.06-1.89.51,0,1,.06,1.93.06h2.07V8Zm3.16,2.47h-2v1h2Zm0,2.39h-2v1h2Zm-.18-8.92h2.36V3h-2.36Zm0,2.44h2.36v-1h-2.36Zm4.34,5.06v-1h-2.22v1Zm0,2.4v-1h-2.22v1Z"/>
    <path class="cls-1" d="M204.61,3.08c-.56,0-1.17,0-2,.11V.72a13,13,0,0,0,1.94.1h3.26a11.64,11.64,0,0,0,1.88-.1A8.54,8.54,0,0,0,209.64,2a15.89,15.89,0,0,0,2.2,8.14,16.66,16.66,0,0,0,3.29,3.95,14.72,14.72,0,0,0,3,2.22,8.55,8.55,0,0,0-1.74,2.32,20.74,20.74,0,0,1-5-4.83,16.07,16.07,0,0,1-1.81-3,13.13,13.13,0,0,1-1-2.92,17.56,17.56,0,0,1-2.94,6.21,20.73,20.73,0,0,1-5.1,4.64,5.83,5.83,0,0,0-1.69-2.16A15.85,15.85,0,0,0,203,13.32a15.23,15.23,0,0,0,3.52-6.09,16.52,16.52,0,0,0,.68-4.15Z"/>
    <path class="cls-1" d="M221.77,17.92a7.78,7.78,0,0,0-.1-.8,38,38,0,0,1-.56-6.54,36.39,36.39,0,0,1,.39-5.44c.1-.62.1-.62.56-2.94a11.45,11.45,0,0,0,.22-1.52V.6l2.78.28c-.85,1.79-1.63,6.74-1.65,10.32,0,.74,0,.74,0,1.07v.33a3.64,3.64,0,0,1,0,.43h0c.1-.23.1-.23.25-.6,0-.14.14-.37.24-.69l.4-.93a3.71,3.71,0,0,0,.24-.64l1.71.76a17.3,17.3,0,0,0-2,6.29,4.13,4.13,0,0,0,0,.56Zm4.64-13.46a14.69,14.69,0,0,0,3.72.33c.72,0,1.17,0,1.89,0,0-1.21,0-2.24,0-3.09a5.78,5.78,0,0,0-.06-1l2.57-.06a20.58,20.58,0,0,0-.14,3v.94a20.89,20.89,0,0,0,2.77-.49l.45-.16.17-.05.08,2.33a3.37,3.37,0,0,0-.59.1c-.7.14-1.77.33-2.86.45v.45c0,1.16,0,1.2.2,4.65a16.56,16.56,0,0,1,3.23,1.87,4,4,0,0,0,.58.35l-1,2.49a7.59,7.59,0,0,0-1.54-1.32l-1.3-.84v.29a3.7,3.7,0,0,1-.16,1.15c-.47,1.21-1.91,1.93-3.91,1.93-2.69,0-4.33-1.28-4.33-3.37S227.91,11,230.4,11a5,5,0,0,1,1.83.28c-.06-.51-.08-1.52-.16-4.37-.83,0-1.32,0-1.85,0-.76,0-1.59,0-2.55-.11l-.62,0-.35,0a.92.92,0,0,0-.2,0,.37.37,0,0,0-.13,0Zm4.17,8.61c-1.31,0-2.13.52-2.13,1.36s.74,1.27,1.89,1.27a2,2,0,0,0,1.66-.63,1.71,1.71,0,0,0,.27-1.11V13.4A4.26,4.26,0,0,0,230.58,13.07Z"/>
    <path class="cls-1" d="M246.21,10.11c-1.3,1.07-1.88,1.93-1.88,2.82,0,1.33,1.5,1.91,5,1.91a22,22,0,0,0,6.45-.86l.23,2.81a8.66,8.66,0,0,0-.91.08,35.15,35.15,0,0,1-5.55.46,14.7,14.7,0,0,1-5.13-.68,3.54,3.54,0,0,1-2.64-3.43c0-1.57.81-2.92,2.66-4.46Zm-3.13-8.45a26.89,26.89,0,0,0,6.17.52,25.24,25.24,0,0,0,5.42-.39l.08,2.3a37.21,37.21,0,0,0-5.48,3.41l-1.79-1.42c1.07-.67,2.07-1.29,3-1.83a20.81,20.81,0,0,1-3.08.17,31,31,0,0,1-3.76-.25,6.43,6.43,0,0,0-.76-.06Z"/>
    <path class="cls-1" d="M258.66,3.21a19.23,19.23,0,0,0,4.44.35,17.53,17.53,0,0,0,.57-3.4l2.76.23a8.91,8.91,0,0,0-.33,1.19c-.37,1.54-.37,1.54-.49,1.93,1.56,0,3.88-.2,5.24-.37a13.33,13.33,0,0,0,2.63-.47l.12,2.49c-.47,0-.66,0-1.19.1-3,.33-4.79.47-7.36.54A27.67,27.67,0,0,1,263.43,10v0a9.48,9.48,0,0,1,5.18-1.34c3.61,0,5.77,1.57,5.77,4.18,0,3-2.94,5-7.44,5a18.85,18.85,0,0,1-5.24-.72,11.42,11.42,0,0,0-.21-2.61,15.62,15.62,0,0,0,5.31,1c3,0,4.91-1,4.91-2.69,0-1.28-1.23-2-3.45-2a10.34,10.34,0,0,0-4.42,1,3.51,3.51,0,0,0-1.5,1.19l-2.49-.86a14.19,14.19,0,0,0,1-1.85c.67-1.56,1.43-3.56,1.72-4.56-1.09,0-2-.07-3.1-.15-.29,0-.49,0-.66,0h-.16Z"/>
    <path class="cls-1" d="M282.38,4.42a43.57,43.57,0,0,0-.93,5.05c0,.29,0,.29-.1.6l0,0c1.19-1.15,3.74-1.95,6.23-1.95,3.49,0,5.79,1.73,5.79,4.36a5,5,0,0,1-2.12,4,8.83,8.83,0,0,1-5.42,1.4,18.7,18.7,0,0,1-5.24-.72,9,9,0,0,0-.31-2.65,16.54,16.54,0,0,0,5.53,1c2.9,0,4.91-1.21,4.91-3,0-1.38-1.29-2.2-3.47-2.2a9.33,9.33,0,0,0-5.12,1.5,4.85,4.85,0,0,0-.93.88l-2.59-.08c.07-.37.07-.45.17-1.23.16-1.28.49-3.56.86-6a8.78,8.78,0,0,0,.13-1.2Zm.26-4a31,31,0,0,0,7.67,2.28L289.47,5a37.52,37.52,0,0,1-8-2.57Z"/>
    <path class="cls-1" d="M304.49.58a4.77,4.77,0,0,0-.17.63c0,.27-.06.37-.12.7s-.06.43-.35,2c-.08.46-.08.5-.14.76.59,0,.88-.06,1.27-.06a4,4,0,0,1,3,1.09c.7.78,1,1.77,1,3.64,0,3.54-.6,6.35-1.58,7.48a2.62,2.62,0,0,1-2.29.93,10.05,10.05,0,0,1-3.16-.6c0-.41,0-.7,0-.9a7.44,7.44,0,0,0-.21-1.75,8.66,8.66,0,0,0,3,.8c.59,0,.92-.39,1.23-1.4a18.23,18.23,0,0,0,.53-4.68c0-1.89-.47-2.45-2.09-2.45-.41,0-.72,0-1.19.06A43.91,43.91,0,0,1,302,11.26,43.24,43.24,0,0,1,299.55,17l-.3.62c-.07.12-.07.14-.17.34l-2.38-1.31a22.28,22.28,0,0,0,2.13-3.86,34.27,34.27,0,0,0,2-5.82,34.57,34.57,0,0,0-3.68.66l-.25-2.43c.76,0,3.25-.25,4.38-.41a32,32,0,0,0,.54-4.15V.29Zm6.8,2.63a19.82,19.82,0,0,1,4.23,8l-2.34,1.19a18.53,18.53,0,0,0-1.64-4.66,13.3,13.3,0,0,0-2.37-3.52Z"/>
    <path class="cls-1" d="M320.91,4.42A43.57,43.57,0,0,0,320,9.47c0,.29,0,.29-.1.6l0,0c1.19-1.15,3.74-1.95,6.23-1.95,3.49,0,5.8,1.73,5.8,4.36a5,5,0,0,1-2.12,4,8.86,8.86,0,0,1-5.43,1.4,18.75,18.75,0,0,1-5.24-.72,9,9,0,0,0-.31-2.65,16.63,16.63,0,0,0,5.53,1c2.9,0,4.91-1.21,4.91-3,0-1.38-1.29-2.2-3.47-2.2a9.33,9.33,0,0,0-5.12,1.5,4.56,4.56,0,0,0-.92.88l-2.59-.08c.06-.37.06-.45.16-1.23.17-1.28.5-3.56.87-6a8.7,8.7,0,0,0,.12-1.2Zm.27-4a30.8,30.8,0,0,0,7.66,2.28L328,5a37.9,37.9,0,0,1-8-2.57Z"/>
  </g>
</svg>
