<?xml version="1.0" encoding="utf-8"?>
<!-- Generator: Adobe Illustrator 25.0.1, SVG Export Plug-In . SVG Version: 6.00 Build 0)  -->
<svg version="1.1" id="Layer_2" xmlns="http://www.w3.org/2000/svg" xmlns:xlink="http://www.w3.org/1999/xlink" x="0px" y="0px"
	 viewBox="0 0 35.3 35.3" style="enable-background:new 0 0 35.3 35.3;" xml:space="preserve">
<style type="text/css">
	.st0{fill:#1147B4;}
	.st1{fill:#FFFFFF;}
</style>
<circle class="st0" cx="17.7" cy="17.7" r="17.7"/>
<g>
	<g>
		<g>
			<path class="st1" d="M8.5,10v7.6c0,2.2,0.5,4.2,1.6,5.9c1,1.6,2.4,1.8,4.4,3.3l2.5,1.8c0.4,0.3,0.9,0.3,1.3,0l2.5-1.8l0,0
				c2.1-1.5,3.5-1.7,4.4-3.3c1.1-1.7,1.6-3.6,1.6-5.9V10c-0.6,0.3-1.7,0.8-2.9,1.1c-2.5,0.6-4.6,0.2-6.2-1.2
				c-1.5,1.4-3.7,1.8-6.2,1.2C10.2,10.8,9.1,10.3,8.5,10z"/>
		</g>
	</g>
</g>
<g>
	<path class="st0" d="M11.5,19.3v-3.6h1.4v3.6c0,1,0.5,1.6,1.4,1.6s1.4-0.5,1.4-1.5v-3.6H17v3.6c0,1.9-1.1,2.8-2.8,2.8
		S11.5,21.2,11.5,19.3z"/>
	<path class="st0" d="M17.8,15.7h1.5l1.7,4.4l1.7-4.4h1.5l-2.6,6.4h-1.2L17.8,15.7z"/>
</g>
</svg>
