<svg id="Layer_2" data-name="Layer 2" xmlns="http://www.w3.org/2000/svg" viewBox="0 0 35.32 35.32"><defs><style>.cls-1{fill:#1147b4;}.cls-2{fill:#fff;}</style></defs><circle class="cls-1" cx="17.66" cy="17.66" r="17.66"/><path class="cls-2" d="M973.22,676.45A1.94,1.94,0,0,1,972,676a2,2,0,0,1-1.21.41,2,2,0,0,1-2-2v-12h-4.13a2,2,0,1,1,0-4h14.66a2,2,0,1,1,0,4h-4.13v12A2,2,0,0,1,973.22,676.45Zm-.57-1.58a.67.67,0,0,0,.57.31.71.71,0,0,0,.72-.71V661.81a.63.63,0,0,1,.63-.64h4.77a.72.72,0,1,0,0-1.43H964.68a.72.72,0,1,0,0,1.43h4.76a.64.64,0,0,1,.64.64v12.66a.71.71,0,0,0,.72.71.67.67,0,0,0,.57-.31v-7.56a.64.64,0,0,1,1.28,0Z" transform="translate(-953.88 -645.9)"/><path class="cls-2" d="M979.34,658.67H964.68a1.79,1.79,0,1,0,0,3.57H969v12.23a1.79,1.79,0,0,0,1.79,1.78,1.79,1.79,0,0,1,2.42,0,1.79,1.79,0,0,0,1.79-1.78V662.24h4.33a1.79,1.79,0,1,0,0-3.57Zm0,2.7h-4.77a.43.43,0,0,0-.43.44v12.66a.92.92,0,0,1-.92.91.89.89,0,0,1-.77-.46v-7.61a.44.44,0,0,0-.88,0v7.61a.89.89,0,0,1-.77.46.92.92,0,0,1-.92-.91V661.81a.43.43,0,0,0-.44-.44h-4.76a.92.92,0,1,1,0-1.83h14.66a.92.92,0,0,1,0,1.83Z" transform="translate(-953.88 -645.9)"/><path class="cls-2" d="M972,657.93a2.4,2.4,0,1,1,2.39-2.4A2.4,2.4,0,0,1,972,657.93Zm0-3.52a1.13,1.13,0,1,0,1.12,1.12A1.12,1.12,0,0,0,972,654.41Z" transform="translate(-953.88 -645.9)"/><path class="cls-2" d="M972,657.73a2.2,2.2,0,1,0-2.2-2.2A2.2,2.2,0,0,0,972,657.73Zm0-3.52a1.32,1.32,0,1,1-1.32,1.32A1.33,1.33,0,0,1,972,654.21Z" transform="translate(-953.88 -645.9)"/></svg>