<?xml version="1.0" encoding="utf-8"?>
<!-- Generator: Adobe Illustrator 25.0.1, SVG Export Plug-In . SVG Version: 6.00 Build 0)  -->
<svg version="1.1" id="icon116" xmlns="http://www.w3.org/2000/svg" xmlns:xlink="http://www.w3.org/1999/xlink" x="0px" y="0px"
	 viewBox="0 0 35 35" style="enable-background:new 0 0 35 35;" xml:space="preserve">
<style type="text/css">
	.st0{fill:#1147B4;}
	.st1{fill:#FFFFFF;}
	.st2{fill:none;stroke:#FFFFFF;stroke-width:0.71;stroke-miterlimit:10;}
	.st3{fill:none;stroke:#FFFFFF;stroke-width:0.71;stroke-miterlimit:10;stroke-dasharray:0.64,0.64;}
	.st4{fill:none;stroke:#FFFFFF;stroke-width:0.71;stroke-miterlimit:10;stroke-dasharray:0.57,0.57;}
	.st5{fill:none;stroke:#FFFFFF;stroke-width:0.71;stroke-miterlimit:10;stroke-dasharray:0.63,0.63;}
	.st6{fill:none;}
</style>
<circle class="st0" cx="17.5" cy="17.5" r="17.5"/>
<polygon class="st1" points="20.9,22.4 19.9,22.4 19.9,23.4 12,23.4 12,18.6 19.9,18.6 19.9,20.5 20.9,20.5 "/>
<line class="st2" x1="21.7" y1="22.8" x2="22" y2="22.8"/>
<line class="st3" x1="22.6" y1="23" x2="29.8" y2="24.8"/>
<line class="st2" x1="30.1" y1="24.8" x2="30.4" y2="24.9"/>
<line class="st2" x1="21.7" y1="21.5" x2="22" y2="21.5"/>
<line class="st4" x1="22.6" y1="21.4" x2="30.2" y2="20.7"/>
<line class="st2" x1="30.5" y1="20.7" x2="30.8" y2="20.7"/>
<line class="st2" x1="21.7" y1="20.8" x2="22" y2="20.7"/>
<line class="st5" x1="22.6" y1="20.5" x2="29.7" y2="18.8"/>
<line class="st2" x1="30" y1="18.8" x2="30.3" y2="18.7"/>
<line class="st2" x1="29.9" y1="16.5" x2="29.6" y2="16.7"/>
<line class="st3" x1="29.1" y1="16.9" x2="22.3" y2="19.7"/>
<line class="st2" x1="22" y1="19.8" x2="21.7" y2="20"/>
<line class="st2" x1="21.7" y1="22.1" x2="22" y2="22.2"/>
<line class="st3" x1="22.7" y1="22.2" x2="30" y2="22.9"/>
<line class="st2" x1="30.3" y1="22.9" x2="30.6" y2="22.9"/>
<path class="st6" d="M23.6,1.8h-3.7C21.2,2,22.4,2.5,23.6,3V1.8z"/>
<path class="st6" d="M13,1.8H9.3V3C10.5,2.5,11.7,2,13,1.8z"/>
<path class="st1" d="M9.3,17.8h14.3V1.6c-1.2-0.6-2.4-0.7-3.7-1l-2.7-0.6L13,0.6c-1.3,0.3-2.5,1.3-3.7,1.8L9.3,17.8z"/>
<g>
	<path class="st0" d="M17.5,1C26.6,1,34,8.4,34,17.5S26.6,34,17.5,34S1,26.6,1,17.5S8.4,1,17.5,1 M17.5,0C7.8,0,0,7.8,0,17.5
		S7.8,35,17.5,35S35,27.2,35,17.5S27.2,0,17.5,0L17.5,0z"/>
</g>
</svg>
