<svg xmlns="http://www.w3.org/2000/svg" width="250" height="203" viewBox="0 0 250 203">
  <defs>
    <style>
      .cls-1 {
        fill: #1da1f2;
        fill-rule: evenodd;
      }
    </style>
  </defs>
  <path id="Logo_FIXED" data-name="Logo — FIXED" class="cls-1" d="M78.623,203c94.344,0,145.936-78.093,145.936-145.809,0-2.219-.045-4.428-0.147-6.625A104.315,104.315,0,0,0,250,24.033,102.457,102.457,0,0,1,220.545,32.1,51.429,51.429,0,0,0,243.1,3.752,102.834,102.834,0,0,1,210.53,16.191a51.322,51.322,0,0,0-87.408,46.737A145.659,145.659,0,0,1,17.4,9.385,51.257,51.257,0,0,0,33.278,77.8a50.948,50.948,0,0,1-23.231-6.411c-0.011.214-.011,0.428-0.011,0.653a51.28,51.28,0,0,0,41.15,50.241,51.23,51.23,0,0,1-23.163.878,51.343,51.343,0,0,0,47.916,35.594,102.978,102.978,0,0,1-63.7,21.937A104.315,104.315,0,0,1,0,179.982,145.3,145.3,0,0,0,78.623,203"/>
</svg>
