<svg xmlns="http://www.w3.org/2000/svg" width="18.75" height="18.75" viewBox="0 0 18.75 18.75">
  <defs>
    <style>
      .cls-1 {
        fill: #1147b4;
        fill-rule: evenodd;
      }
    </style>
  </defs>
  <path id="lang-icon-cn.svg" class="cls-1" d="M1254.43,226.356V218.7h-8.04v7.656h8.04Zm1.72,2.109c1.72-.1,2.55-0.937,2.5-2.5V215.653h-11.17v1.64h9.14v8.282c0.05,0.73-.37,1.067-1.25,1.015q-1.17,0-2.19-.078a9.367,9.367,0,0,1,.47,1.953h2.5ZM1244.51,213h1.33l-0.39.156,1.4,2.031,1.8-.469c-0.42-.52-0.86-1.093-1.33-1.718h3.05v-1.641h-4.84a10.907,10.907,0,0,0,.7-1.328l-2.11-.156a12.01,12.01,0,0,1-3.36,4.375c0.1,0.1.29,0.312,0.55,0.625a10.481,10.481,0,0,1,.7.859,13.726,13.726,0,0,0,2.5-2.734h0Zm8.59,0h1.33l-0.47.156,1.57,2.031,1.79-.469-1.4-1.718h3.59v-1.641h-5.55a4.286,4.286,0,0,0,.39-0.781q0.165-.39.24-0.547l-2.11-.156a13.908,13.908,0,0,1-2.74,4.453c0.21,0.105.5,0.261,0.86,0.468,0.42,0.262.71,0.444,0.86,0.547A19.59,19.59,0,0,0,1253.1,213h0Zm-8.9,15.625V218.075h-2.03v10.547h2.03Zm8.36-5.313v1.563h-4.3v-1.563h4.3Zm0-3.047v1.563h-4.3v-1.563h4.3Zm-5.86-3.359a16.445,16.445,0,0,0-2.27-2.031l-1.4,1.171a21.14,21.14,0,0,1,2.18,2.188Z" transform="translate(-1240.75 -209.875)"/>
</svg>
