<svg xmlns="http://www.w3.org/2000/svg" width="62.188" height="18.843" viewBox="0 0 62.188 18.843">
  <defs>
    <style>
      .cls-1 {
        fill: #fff;
        fill-rule: evenodd;
      }
    </style>
  </defs>
  <path id="lang-text-cn_sp.svg" class="cls-1" d="M479.02,852.57h7.734v-7.109H479.02v7.109Zm10.937-9.062v9.531q0.077,1.249-1.406,1.172h-1.094a10.336,10.336,0,0,0-1.094-.078q0.156,0.546,0,.156a4.289,4.289,0,0,1,.157.937q1.562,0,2.343-.078,2.265,0,2.188-2.109V842.57H480.27v0.938h9.687Zm-4.219,5.937v2.188h-5.7v-2.188h5.7Zm0-3.047v2.188h-5.7V846.4h5.7Zm-12.422-5.078a6.61,6.61,0,0,1,.782.7,17.686,17.686,0,0,0,2.5-2.734H483v-0.937h-5.7a15.358,15.358,0,0,0,.937-1.641l-1.093-.156a15.329,15.329,0,0,1-3.829,4.765h0Zm9.063-.156a4.9,4.9,0,0,1,.937.625,30.54,30.54,0,0,0,1.8-2.5h6.953v-0.937h-6.328c0.052-.1.13-0.261,0.235-0.469a10.673,10.673,0,0,0,.547-1.094l-1.094-.156a16.883,16.883,0,0,1-3.047,4.531h0ZM474.8,855.305H475.9v-10.86H474.8v10.86Zm3.125-11.016,0.781-.7q-1.1-1.094-2.031-1.953l-0.781.625a18.878,18.878,0,0,1,2.031,2.031h0Zm9.14-4.766-0.625.547q0.86,0.781,1.875,1.875l0.7-.625q-0.937-.937-1.954-1.8h0Zm-8.2,0-0.7.547a4.459,4.459,0,0,0,.547.625,9.307,9.307,0,0,1,1.094,1.25l0.781-.625a18.69,18.69,0,0,0-1.719-1.8h0Zm27.147,2.188v8.594h-3.2v1.015h3.2v3.985H507.1V851.32h3.281v-1.015H507.1v-8.594h0.078a20.806,20.806,0,0,0,6.016,10,4.485,4.485,0,0,1,.781-0.86,19.713,19.713,0,0,1-5.938-9.14h5.079v-0.938H507.1v-4.062H506.01v4.062h-5.625v0.938h4.766a20.32,20.32,0,0,1-6.094,9.531c0.051,0.053.156,0.156,0.313,0.313a1.8,1.8,0,0,1,.546.468,20.726,20.726,0,0,0,6.094-10.312h0Zm-8.515,2.031v11.563h1.015V841.711a30.279,30.279,0,0,0,1.875-4.766l-1.015-.234a33.116,33.116,0,0,1-4.532,9.219l0.078,0.156q0.312,0.626.469,0.937a23.9,23.9,0,0,0,2.11-3.281h0Zm28.24,4.453h-9.062v1.016h9.062v3.359q0.076,1.483-1.562,1.406h-2.5q0.077,0.312.156,0.782a0.7,0.7,0,0,1,.078.312h2.578q2.5-.078,2.344-2.344v-3.515H535.5V848.2h-8.672v-0.937l4.766-2.969V843.2H520.188v0.938h10l-4.453,2.656V848.2Zm-8.437-5.078h1.093v-2.578H533.7v2.578H534.8V839.6H517.3v3.515Zm8.984-3.594,1.016-.39q-0.236-.546-0.86-1.953c-0.156-.364-0.261-0.6-0.312-0.7l-1.016.39a17.146,17.146,0,0,1,1.172,2.656h0Z" transform="translate(-473.312 -836.469)"/>
</svg>
