<svg id="レイヤー_2" data-name="レイヤー 2" xmlns="http://www.w3.org/2000/svg" viewBox="0 0 119.48 120.82"><defs><style>.cls-1,.cls-3{fill:#e60012;}.cls-1{fill-rule:evenodd;}.cls-2{fill:#fff;}</style></defs><path class="cls-1" d="M318.27,365.13h.39v-.08H319V365h.61v-.08h.84V365H321V365c.36.05.71.11,1.07.15v-.08h.23V365h.45v-.08l.68-.07v-.08h.08v.08l.77-.09v.08l.22-.07a.24.24,0,0,0,.24.07v-.08h.23v-.08h.3l.15-.23c.23-.15.3-.05.46-.31l.69.07a1.09,1.09,0,0,0,.08.15h.23v.08h.3v.08l.62-.09,1.22.08.69-.24.08-.16a2.4,2.4,0,0,1,1.23.15h.61s0,.1.15.08c.92-.16,2-.31,2.83-.55a2.8,2.8,0,0,1,1.3.13h.61V364l1.23.06v.08l.85.07v-.08l.3.08v-.07c.47,0,.53-.29.84-.47,0-.16,0-.07.07-.16v-.76l-.15-.08c0-.08-.06-.15-.08-.23s-.15-.07-.15-.07H339v-.08h-.68v-.08c-.12,0,0,.06-.08.08h-1v-.08H337v-.08h-.15v-.08h-.23V362l-.77-.07V362h-.76V362h-.39v-.08h-.31v-.08H334v-.08l-.84.09v.07a.22.22,0,0,1-.23-.07l-.38.08V362c-.18,0-.2-.09-.31-.08V362h-.3v.07h-1.23V362h-.38v-.08H330l-.07-.15-.31-.08-.08-.15-.69-.22H328v-.07h-1.22v.08h-.61v.07l-1-.07v.08h-.07v-.08h-.16v-.08h-.46v-.08h-.92v-.07c-.24-.08-.66.08-.76.07v-.07h-1.45v.08h-.46v.07h-.23v.07h-.31v.08L318.4,361l-.15.08V361h-.16v-.07l-.24.08v-.07l-.46-.09v.08s-.29-.12-.46-.07v.08l-1,.08v-.07h-.24l-.23-.3h-.23l-.07-.15-.92-.07v.08h-1.08a3.28,3.28,0,0,1-1.14.23c-.46,0-1.07.08-1.31-.15a.76.76,0,0,1-.3-.14v-.22h.07v-.07h-.08a3.28,3.28,0,0,1,.08-.52h.08a.68.68,0,0,0,.14-.31l.16-.16c.2,0,.29-.23.61-.15h1.38v-.06l.23-.09h.23v-.07l.15-.09c.13,0,.25.05.38.08v.08h1.07v-.08c.16,0,.31-.1.46-.15v-.08l.46-.15.15-.08.16-.08v-.08l.46-.15v-.08h.23v-.08H317v-.07l.46-.08v-.08l1.23-.08v-.08h.38v-.07h.15v-.07h.39v-.08h.24v-.07h.31V357c.29-.08.52.13.69.15h.08v-.08h.31V357h.45v-.06l.31-.09a1,1,0,0,0,.07-.15h.16l.15-.23h.15l.23-.31h.15v-.07h.31V356h.23v-.08h.23v-.08H324v-.07h.23v-.09h.23l.07-.15h.16v-.08l.61-.07v-.08h.15v-.07l1.07-.17V355h.16v-.06h.3v-.07h.23v-.08h.31v-.07h.15v-.08h.38l.08-.15.76-.09v-.07l.46-.08v-.08l.69.15v.07l.23-.07v.07h.31v-.08l.46.07v-.07h.31v-.08l.54-.07V354h.23v-.07h.3s.05-.1.08-.15l.3-.08v-.15a.65.65,0,0,0,.31-.16v-.08h.15s.05-.1.08-.15h.15v-.08h.15V353h.39v-.07h.15v-.07l1.15-.08v.07h.38s0,.11.16.08v-.07h.38v-.08h.08v.08h.08v-.08h.39v-.07H337v-.07h.31v-.08l.45-.16v-.07H338v-.08a.65.65,0,0,1,.31-.16c0-.07.05-.15.08-.22h.07c0-.18,0-.36.07-.54h.08c-.05-.37-.23-.37-.31-.68l-.69-.15v-.08a2.36,2.36,0,0,1-.69.08v-.07s-.63.06-.69.08v.08h-.77v.08h-.39v.07h-.3v.08h-.15v.08l-.47.07V351c-.64.21-1.27-.28-2,0v.08l-.3.08v.08h-.16c0,.08-.1.15-.15.23h-.15v.07h-1.3v.08l-.54.08v.08h-.15v.07l-.3-.07v.08h-.39V352c-.12,0-.36-.14-.61-.07V352h-.31v-.09c-.14,0-.15.08-.15.08-.19,0-.2-.06-.3-.08s0,.11-.16.09v-.08l-.38.08s0-.09-.16-.08V352h-.07v-.07l-.85.08v.07l-.46.17v.07h-.16a1,1,0,0,1-.07.15h-.15c0,.05-.05.11-.08.15l-.31.09v.07a2.64,2.64,0,0,1-.7-.15H323v.08l-.38-.08v.08l-.77.16v.07h-.53V353h-.07v-.08h-.08V353h-.46s0,.1-.16.08V353h-.08v.07l-1.84-.06v.07h-.23v.08h-.08v-.08c-.19,0-.23.08-.23.08-.18.05-.2-.08-.3-.07v.07l-.39.08a.55.55,0,0,1-.23,0s0,.08-.15.08h-.38v.07l-.77.09s-.31.17-.45.23v.07a1.27,1.27,0,0,0-.3.16H315v.07h-.46v.07a3.48,3.48,0,0,1-1.3-.06V354h-1.46v.07h-.54v.08h-.53v.08a1.12,1.12,0,0,1-.61,0v.08h-.61l-.15-.08a1,1,0,0,0,.08-.3l.3-.17h.62a.46.46,0,0,1,.07-.16h.31l.07-.16h.16l.15-.15v-.16l.24-.15v-.16l.46-.38h.16v-.08l.92-.24h.23a1,1,0,0,0,.07-.15l.24-.08h.15v-.08l.22-.07h.16v-.08l.23-.08.46-.16v-.08l.15-.07.3-.08a1.09,1.09,0,0,0,.08-.15h.16V351h.16l.15-.16h.15l.08-.15H316l.15-.23h.15l.16-.23h.15l.08-.16h.15V350h.54l.07-.15h.23v-.08H318c0-.06.05-.11.07-.16l.46-.15v-.16a.78.78,0,0,0,.38-.23V349l.22-.08.08-.14h.15a1.3,1.3,0,0,0,.46-.47H320c.05-.21,0-.17.22-.23v-.15l.31-.08v-.07l.23.07c0-.05.05-.1.07-.16l.69-.08,1.53-.92h.22v-.08h.15v-.08l.38-.08v-.08h.38l.15-.23h.16l.15-.16h.15v-.07H325a1.11,1.11,0,0,0,.07-.16l.23-.07v-.08l.39-.08v-.08h.15v-.08h.45v-.07l.46-.16V345l.39-.08c.07-.1.15-.2.22-.31h.16l.15-.23h.16l.06-.15H328a1.19,1.19,0,0,1,.08-.16l.45-.16a1.09,1.09,0,0,1,.08-.15l.92-.08v.07h.07a.18.18,0,0,1,.16-.07v.08h.46v-.08h.15a1.09,1.09,0,0,1,.08-.15h.15a.77.77,0,0,0,.07-.16h.24c0-.07,0-.15.07-.23l.3-.23v-.16l1.38-.46v-.08h.15L333,342h.16l.3-.38h.15v-.07l1-.08c.14-.06.31-.25.46-.32s0,0,.07-.08v-.23h.08v-.76h-.07c-.12-.16-.28-.23-.39-.38h-1.46v.07H333v.08h-.38a1.09,1.09,0,0,0-.08.15l-.39.08a1.76,1.76,0,0,0-.14.23h-.16a1.11,1.11,0,0,0-.07.16h-.16a1,1,0,0,0-.07.15l-.39.07v.09h-.3v-.08a.13.13,0,0,0-.16.08.14.14,0,0,1-.15-.08l-.69.09v.07l-.31.08V341h-.15l-.07.15-.31.08-.07.15h-.31v.08h-.15v.08h-.16l-.07.15-.62.09v.07h-.23V342h-.23V342H327v.08h-.38v.08h-.16v.08h-.23v.08h-.38v.08h-.15v.08h-.23c-.15.19-.3.36-.46.54h-.15l-.08.15h-.15v.08l-1.38-.14c-.25.3-.72.34-.84.77h-.15c-.06.24-.19.27-.3.46a6.33,6.33,0,0,0-2,.32v.08h-.23v.08h-.15v.08l-.69.15v.08l-.46.08-.07-.07v.07h-.16v.08H318v.07h-.68v.08H317v.08l-.23-.08v.08h-.23v.08l-.31.07v.08h-.15v.07l-.23.08v.15a.66.66,0,0,0-.3.16v.07h-.23c0,.05-.05.11-.08.16l-.69.16-.07.15h-1.53v.08h-.23V347h-.46V347h-.31v.08h-.38v.07h-.15l-.08.15-.46.15c0,.06-.05.11-.07.16h-.16l-.15.24-.3.08-.31.15h-.15v.08l-.31.09h-.23l-.15.07v.08h-.23v.07h-.46a1,1,0,0,0-.07.15H308v.08c-.17.08-.18,0-.3.15h-.31l-.08-.15h-.15l-.08-.23c.07-.48.16-.24.53-.38v-.08l.23-.08.31-.07.15-.23h.15c.15-.21.3-.42.46-.62H309v-.15h.15a.64.64,0,0,1,.15-.31l.08-.16.15-.07.3-.85.54-.23h.3v-.08l.45-.16V345l.31-.08c.25-.36.51-.72.75-1.08h.24v-.07h.15v-.08h.23v-.08l.3-.07v-.08h.16l.07-.15.31-.09v-.07l.3-.08V343h.23a1.09,1.09,0,0,1,.08-.15l.3-.08.08-.15h.15v-.08l.23-.08a.69.69,0,0,1,.15-.31h.07V342h.08v-.16l.16-.15v-.16h.08s.05-.1.08-.15h.15l.3-.38h.16a1,1,0,0,1,.07-.15h.16l.37-.46H317l.24-.39a2.2,2.2,0,0,1,.45-.3s.05-.11.08-.15h.15l.23-.31.3-.08a1.09,1.09,0,0,0,.08-.15h.23l.08-.16H319v-.08c.1,0,0,0,.07.08h.08v-.08h.38v-.08h.16v-.08h.23v-.08h.15l.15-.23h.23l.38-.47v-.15l.15-.08v-.15s.1-.06.15-.16h.16c.08-.32.33-.41.53-.62l.23-.3.15-.08c0-.07.05-.15.07-.23h.16c.25-.28.5-.57.76-.85l1.14-.16a1.09,1.09,0,0,0,.08-.15l.46-.16v-.15a2,2,0,0,0,.76-.47,1.09,1.09,0,0,1,.08-.15l.23-.08v-.15a1.88,1.88,0,0,0,.23-.16c0-.15.05-.3.08-.46l.23-.15.3-.39c.32-.23.63-.34.83-.69h.16v-.15l.46-.38v-.08l.3-.08v-.07h.23a1,1,0,0,0,.07-.15H329v-.08l.46-.15c0-.08.05-.16.07-.24h.08a1.94,1.94,0,0,0,0-1.07l-.23-.07v-.08h-.23v-.08h-.39v-.08h-.07v.08l-.53.08v.08H328v.07h-.23v.07h-.16a1.19,1.19,0,0,1-.08.16l-.3.08-.08.15H327s-.05.1-.08.16h-.15v.08a.69.69,0,0,1-.32.16,3.35,3.35,0,0,1-.45.84h-.15c0,.05-.05.11-.08.16l-.38.08-.15.23h-.15v.08l-.3.07v.08h-.23v.08h-.15v.08H324V332l-.46.15v.08h-.15l-.08.15h-.16a.77.77,0,0,1-.07.16H323l-.23.31h-.15a1.09,1.09,0,0,1-.08.15h-.15v.07h-.15v.08h-.3a1,1,0,0,0-.07.15h-.31a1.09,1.09,0,0,1-.08.15h-.23v.08l-.3.08v.07h-.23l-.08.15-.22.08V334l-.39.08-.07.15h-.16l-.07.15h-.16l-.15.23h-.15l-.08.16a1.27,1.27,0,0,0-.23.08V335l-.3.08-.15.23-.39.08-.07.15-.23.08v.08h-.23a1.19,1.19,0,0,1-.08.16h-.15l-.15.24H317l-.83,1-.38.08v-.08h-.08v.08h-.31v.08h-.3v.08l-.46.15v.08h-.15v.07h-.15v.08h-.23v.07H314v.08h-.24a1.82,1.82,0,0,1-.15.23l-.45.16s-.05.1-.08.16h-.16v.07h-.23c-.06.08-.1.15-.15.23h-.16l-.3.38h-.15c-.06.08-.1.16-.16.23h-.15l-.15.24c-.25.16-.54.06-.84.15v.08h-.31v.08H310l-.16.23-.3.09-.38.46H309l-.23.31c-.24.18-.36.12-.46.47h-.15c0,.07,0,.15-.08.23s-.45.27-.61.54h-.15v.15c-.28.08-.5.29-.76.39h-.31l-.23.15-.31.09V343h-.22l-.15.23h-.16c0,.06-.05.11-.07.16l-.31.08c0,.05-.05.1-.07.16a3,3,0,0,0-.31.15v.07a1.16,1.16,0,0,1-.39-.22H304v-.23h-.08A.61.61,0,0,1,304,343h.08v-.23l.3-.23v-.15l.16-.08v-.15a1.45,1.45,0,0,0,.15-.23l.15-.08v-.08s.12-.18.23-.31h.07v-.15l.23-.15.45-.55.23-.07.38-.62h.16a2.88,2.88,0,0,1,.68-1.15c.18-.19.37-.16.45-.46.41-.12.41-.4.61-.7l.23-.15v-.15h.07c0-.15.06-.31.08-.46l.15-.08c.33-.35.9-.49,1.15-.92h.15c0-.17,0-.2.07-.31h.08v-.16l.15-.07v-.23h.07v-.23h.08v-.15l.23-.15v-.08H311l.15-.15h.16v-.08h.15v-.08h.23v-.08l.45-.38v-.15l.16-.09v-.22h.08v-.16h.08v-.31h.08v-.3l.23-.08.23-.31h.15l.08-.15c.12-.11.25-.21.38-.31v-.16l.6-.54v-.15h.08v-.15a1.14,1.14,0,0,1,.23-.15c0-.11.05-.21.08-.32l.14-.07.08-.23.23-.16c0-.1,0-.2.07-.3l.46-.39h.15v-.08h.16v-.07H316v-.07h.15l.23-.3.23-.08.15-.46.23-.16c0-.08-.06-.15-.08-.22l.15-.08.3-.39.39-.07.68-.47v-.15l.23-.16a2.09,2.09,0,0,1,.08-.23l.15-.08c0-.1.05-.21.07-.31l.16-.07v-.16l.23-.15V325h.08v-.15l.15-.08c0-.13,0-.26.07-.38l.23-.16.46-.54a3,3,0,0,0,.91-.85h.15c.13-.5.61-.6.84-1h.15v-.16h.16c0-.25,0-.51.07-.76-.13-.18-.27-.35-.39-.54h-1v.08l-.3.08-.08.15h-.15v.07a.54.54,0,0,1-.3.16.64.64,0,0,1-.15.31h-.08l-.08.23-.15.08a1.55,1.55,0,0,0-.07.23h-.16v.08h-.15v.08h-.16V322c-.24.14-.4.16-.53.39h-.16a1.91,1.91,0,0,1-.53.69l-.15.08v.15H318l-.15.24h-.16l-.14.15h-.16v.08l-.54.16-.15.23h-.07l-.08.15h-.15c-.1.08-.08.28-.15.39l-.16.07v.15H316v.23h-.07c0,.1-.06.21-.08.31l-.15.07v.15l-.23.08-.08.16c-.21.15-.31.14-.45.38h-.15c0,.08-.05.16-.08.24h-.15l-.16.23h-.08V327l-.31.16-.22.3-.31.08c0,.05-.05.11-.07.15h-.16l-.07.15H313a2.23,2.23,0,0,1-.53.3c-.11.39-.21.2-.46.39l-.22.38h-.16V329l-.23.08a1,1,0,0,1-.07.15l-.46.39-.61.69h-.15s-.05.1-.07.16H310l-.38.46h-.15l-.16.23h-.15a1,1,0,0,0-.07.15h-.16l-.15.23-.3.08-.16.24-.38.3v.16l-.15.07v.08l-.3.24c0,.07-.05.15-.08.22h-.16a1.43,1.43,0,0,1-.15.22h-.15l-.15.22h-.23l-.15.23c-.33.33-.86.65-1,1.16a1.54,1.54,0,0,0-.61.46l-.07.15-.24.08a1.82,1.82,0,0,1-.15.23h-.15l-.15.23-.38.09-.23.3h-.15l-.23.31h-.16l-.15.15V337c-.12.1-.25.19-.37.3a7.59,7.59,0,0,1-.77,1c-.39.4-1,.57-1.37,1-.39,0-.39-.1-.61-.23.05-.23.1-.46.14-.69h.08c0-.13,0-.25.08-.38l.15-.08v-.15l.07-.31.23-.16V337h.07a.71.71,0,0,0,.08-.39h.16c.06-.23.17-.29.3-.46h.07v-.23l.15-.08c.06-.15.1-.3.16-.46l.15-.08v-.15h.08V335h.08v-.31l.15-.08v-.15h.07v-.3l.23-.16c0-.1.05-.21.07-.31l.23-.15v-.16l.15-.08v-.15l.24-.15c0-.13,0-.26.07-.38H303v-.15H303v-.31h.07v-.23h.08v-.3l.38-.32v-.07h.15a1.09,1.09,0,0,1,.08-.15l.3-.24v-.15l.15-.08v-.15h.08v-.16h.07v-.23h.08v-.23h.07v-.39h.08v-.23h.07v-.15l.92-.7v-.15h.07l.15-.47h.08v-.22H306v-.31h.08v-.39h.08v-.23h.08v-.24h.08l.23-.31h.15a1.58,1.58,0,0,1,.23-.53l.15-.08v-.23l.15-.08v-.23l.15-.08v-.3l.15-.08.3-.92.16-.08v-.15H308c0-.13.05-.26.08-.39h.07l.15-.22h.16l.15-.23h.15l.23-.31h.08V322l.16-.08v-.15h.07v-.16h.08v-.46h.07v-.31h.08v-.16h.07l.23-.31h.23c.18-.2.36-.41.53-.62h.08v-.23h.07v-.15a3.55,3.55,0,0,0,.31-.23v-.38h.08v-.23h.08v-.15h.08v-.3h.08c0-.16,0-.32.07-.47h.08v-.15h.07c0-.13.05-.26.08-.38l.15-.08v-.15l.23-.16v-.15l.15-.08c0-.08.05-.15.07-.23h.08c0-.1.05-.21.07-.31l.46-.38v-.16l.15-.15v-.15h.08v-.16l.15-.07v-.16a1.82,1.82,0,0,1,.23-.15v-.16l.15-.08a1.78,1.78,0,0,0,.15-.92c-.31-.08-.2-.15-.39-.3V313l-.84-.07V313h-.16c0,.05-.05.1-.07.16h-.16l-.07.15-.23.08v.15l-.23.16v.15l-.16.15v.15h-.08v.15l-.15.08v.16l-.15.07-.45.54h-.16v.08l-.24.15c0,.11-.05.21-.07.31l-.23.15c0,.1,0,.21-.07.31l-.16.08c-.05.15-.09.3-.15.45l-.15.08V317l-.15.15h-.15l-.23.3h-.15l-.08.16c-.12.1-.26.2-.38.31V318h-.07c0,.1-.06.2-.08.3h-.07v.45H308c0,.15,0,.3-.07.45h-.08v.16l-.3.24v.15l-.23.15v.16h-.08a.75.75,0,0,0-.22.38h-.16a.6.6,0,0,1-.15.31h-.07V321l-.16.08c0,.1-.05.2-.07.31h-.08a.69.69,0,0,0-.22.38,2.16,2.16,0,0,0-1.07.85v.16c-.08,0-.15.1-.23.15V323l-.15.08v.16l-.15.07v.16h-.08c0,.07-.05.15-.07.23l-.15.07V324c-.13.1-.26.2-.38.31v.15l-.16.08c0,.08-.05.15-.07.23h-.08v.15l-.22.16v.15l-.15.08v.14l-.15.09c-.14.2.08.13-.23.23-.09.34-.29.28-.38.61h-.15v.08l-.53.47-.15.45-.16.08v.16l-.16.15v.15c-.11.21-.31.34-.37.62h-.16c-.09.34-.16.22-.37.38l-.16.16v.16l-.31.23v.15l-.14.15v.16h-.08V330l-.15.08-.15.45a3.65,3.65,0,0,1-.31.24V331H299l-.07.22-.16.08v.16h-.07l-.31.38h-.15l-.08.16H298c-.12.15-.25.3-.37.46a.71.71,0,0,0-.15.08v.15l-.16.08-.07.31-.15.08v.15l-.16.07a4.11,4.11,0,0,1-.15.46h-.08a2.3,2.3,0,0,0-.29.7h-.16c-.07.36-.3.43-.45.69h-.15c-.06.21,0,.17-.23.23-.05.19-.09.18-.16.31l-.53-.07c-.07-.09,0,0-.08-.08s.05-.41.08-.61l.15-.08v-.39H295a2.52,2.52,0,0,0-.09-1.3h-.07c0-.43.22-.42.38-.68h.15a2.37,2.37,0,0,1,.3-.62h.07v-.3h.08a5,5,0,0,1,.07-.54H296v-.53H296v-.23h.08V330h.07v-.15h.08v-.31h.08c0-.16,0-.31.07-.46h.08v-.16h.07v-.23h.07v-.15h.08c0-.18,0-.36.07-.54h.08v-.15H297c0-.16,0-.31.07-.46h.07V327h.08v-.31h.07v-.23h.08v-.22h.07V326h.08v-.22h.07v-.31h.08c.05-.14.1-.3.15-.45h.08l.06-.54H298v-.15h.08c.12-.3-.07-.3.07-.54l.16-.08c.05-.15.09-.31.14-.46a1.88,1.88,0,0,0,.23-.16v-.3l.16-.08v-.23h.08v-.15H299v-.23h.08c0-.21.05-.41.07-.61h.08v-.3h.08a2.09,2.09,0,0,0-.08-.23h.08c0-.07.05-.15.08-.23l.15-.07c0-.16.05-.31.07-.46l.16-.08v-.23h.07v-.15h.08c.14-.41-.12-.6,0-1H300a.7.7,0,0,0-.09-.46l.16-.07v-.31h.08v-.46h.08c0-.16,0-.31.07-.47h.07c0-.11.06-.21.08-.31h.08v-.16l.16-.08c0-.12.05-.25.07-.38l.15-.07v-.23h.08v-.23H301v-.15h.08V315h.07v-.16h.07c0-.16,0-.31.08-.46h.15v-.15c.37-.09.4-.43.68-.61.05-.49.1-1,.14-1.46h.08V312h.08c0-.06-.14-.27-.08-.46h.08v-.31h.08V311h.07v-.23h.08v-.3h.07v-.15l.16-.08v-.39H303v-.23l.15-.08c.17-.27.26-.52.53-.68V308l-.15-.07v-.15h-.07l-.16-.23c-.28,0-.55-.13-.69,0a.86.86,0,0,0-.76.63h-.15a1.24,1.24,0,0,1-.23.61l-.15.08c0,.17-.05.35-.08.53l-.68.62a2.09,2.09,0,0,1-.08.23l-.23.15v.31h-.08l-.15.85h-.07V312h-.08v.16h-.08v.22h-.07c0,.11-.05.21-.07.31h-.08v.23l-.15.07v.24h-.07v.16h-.08v.22h-.08c0,.11-.05.21-.07.31H299v.31h-.08l-.15.46h-.08v.15l-.61.55v.15H298c0,.11-.06.21-.08.31h-.07c0,.18-.05.36-.08.54h-.07v.31h-.08v.23h-.08v.22h-.07c0,.1-.06.2-.08.3h-.08v.15l-.39.31V318l-.23.16v.22h-.07c0,.1,0,.2-.08.3h-.07V319h-.08v.16h-.08v.15h-.08v.16h-.07v.23h-.08v.23h-.07v.23H296v.38h-.07v.15h-.08V321l-.16.08-.22.38h-.16l-.23.32H295c0,.11-.05.21-.08.31l-.22.15v.16l-.15.15v.16h-.09v.15l-.23.16c-.07.22-.15.45-.22.68h-.08a2.81,2.81,0,0,1-.08.31h-.07v.16h-.08c0,.13-.05.26-.07.38h-.08v.15h-.07l-.15,1v.69l-.22.15v.16l-.23.15V327l-.16.08v.15c-.05,0-.09.06-.15.08v.15h-.08c0,.15-.05.3-.07.46h-.08V328h-.08v.31h-.08v.15h-.08c0,.16,0,.31-.07.47H292c0,.1-.05.21-.07.31h-.07v.15h-.07v.3l-.15.08V330h-.08c0,.13,0,.25-.07.38l-.16.08v.23l-.15.07v.23l-.22.16-.15.46-.16.08v.15l-.15.08V332l-.15.08v.3h-.08v.15h-.08v.23a2.25,2.25,0,0,0-.23.54l-.38.07v-.07c-.35,0-.32-.11-.54-.23a3,3,0,0,1,.23-.92V330.8h.08v-.08h-.08v-.53h-.08v-.08h.07v-.77h.07V329h.08v-.23h.07v-.31h.08v-.15h.08v-.23h.08v-.38h.07v-.31h.08v-.54h.08v-.38H290V326h-.08v-.46l-.15-.07.07-.08v-.61h.07v-.16H290c0-.18.05-.36.07-.54h.08v-.3h.07c0-.54-.06-1.08-.09-1.61h.08v-.31h.08v-.31h.08v-.39h.08v-.38h.07v-.54h.08v-.61h.07c.17-.59-.34-1.28-.16-1.68l.15-.08c0-.07.05-.16.08-.23h.08l.14-.78H291V316H291v-.09c0-.17-.26-.44-.16-.76H291v-.23H291v-.31h.08v-.22h.09v-.3h.08v-.16h.07v-.3h.07v-.23h.08v-.46h.07v-.15h.08c0-.12-.08-.13-.08-.15v-.46s.1,0,.08-.15h-.08V311h.08v-.16h.08v-.23h.08v-.16h.07v-.22h.08a1.09,1.09,0,0,1-.08-.15h.08v-.31h-.08V309h.08v-.39H292v-.22h.08v-.23h.08v-.39h.07v-.31h.08v-.07h-.08v-.08h.08V307h.08v-.16h.08c0-.07-.05-.15-.08-.22h.08v-.16h.08c0-.23.09-.46.15-.7h.07c0-.1,0-.21.07-.31h.08c0-.17-.05-.35-.08-.53l-.46-.53-.54-.07-.84.46v.16l-.15.08v.14l-.15.09v.15h-.08v.31h-.08v.15h-.08c0,.39-.09.77-.14,1.15h-.08v.15h-.07V308h-.08v.31H290v.16l-.23.16v.23h-.07V309h-.08v.39h-.08v.23h-.08v.23h-.07v.23h-.08v.38h-.07v.15h-.08c0,.13-.05.26-.07.39l-.15.07v.31h-.08v.23h-.08v.15h-.08a1.09,1.09,0,0,0,.08.15h-.08l-.06,1.53h-.08v.16h-.08c0,.23-.09.46-.14.68l-.15.09v.22h-.08v.16h-.07c-.06.23-.11.46-.16.69l-.15.08V316h-.08c0,.16-.05.31-.07.46h-.08c0,.1.05.21.08.31h-.08V317h-.08v.46h-.08c0,.1-.05.2-.07.3h-.08v.15h-.07V318h-.08v.31H287v.23h-.08c0,.44-.1.87-.14,1.31h-.08c0,.18-.05.36-.07.53h-.08v.15h-.07v.38h-.07v.15h-.08v.46h-.07v.15h-.07a1.09,1.09,0,0,0,.08.15h-.08v.69h-.07v.38H286s.05.1.08.15l-.15.07c0,.19,0,.36-.07.54l-.16.08V324h-.07v.23h-.08v.3h-.07v.38h-.08v.3h-.08c0,.2-.05.41-.07.61h-.08v.23h-.08c0,.21-.05.41-.07.62H285v.46h-.09v.37h-.07V328h-.08c0,.48,0,1-.07,1.46h-.07v.3l-.15.08V330h-.08c0,.1,0,.21-.07.31h-.08c-.08.28-.15.57-.22.85H284v.15l-.15.07a1.55,1.55,0,0,0,.08.23h-.08c0,.14-.05.26-.08.39v.07a.17.17,0,0,1-.22.06s-.32-.1-.32-.13c-.22-.05-.22-.13-.38-.22a4.48,4.48,0,0,0-.16-1.23l0-1.3h.08v-.08h-.08v-.38h-.07v-.31h-.08c-.06-.18.09-.22.07-.31h-.07v-.23h-.08l.06-1.23h-.07V326h-.08V325h-.08c0-.28-.05-.56-.08-.84h-.07a2,2,0,0,1,.07-.23h-.08v-.23H282a7.42,7.42,0,0,1,0-1.76h.07c0-.13.05-.26.07-.38h.08s-.12-.22-.08-.39h.08v-.08h-.08v-.08h.08l-.09-.69H282v-.31a5.32,5.32,0,0,1-.25-2.3h.08v-.07l-.16-.08c-.15-.25-.21-.53-.46-.68a10.5,10.5,0,0,1,.37-1.54v-.84h.08c0-.11-.07,0-.08-.08l-.09-1.15h-.08v-.15h-.07v-.3h-.07v-.31s0-.75,0-.75l.09-.4V311c0-.23.05-.46.08-.69h-.08v-.15h-.08c-.06-.17.09-.21.08-.3h-.08c0-.28-.06-.56-.08-.84h-.08v-.45H281v-.15H281c0-.17.1-.21.08-.3H281v-.23h-.08a.19.19,0,0,1,.08-.22V307H281v-.31h.07c0-.25,0-.51.08-.77a.11.11,0,0,1-.08-.15h.08v-.23h.08c0-.58,0-1.17.07-1.76-.1-.26-.34-.39-.47-.61l-.38-.08V303a.8.8,0,0,1-.46,0,1.25,1.25,0,0,1-.46.31,5,5,0,0,0-.14,1.08v1.07h-.07v.31h-.08v.16h-.07v.31h-.08v1.07H279v.7H279v.53h-.07c0,.33.05.67.08,1h-.08c-.08.32.11.52.17.69s-.06.25-.08.38l.15.08c0,.12-.05.26-.07.38v1.15H279v.54h-.08c0,.13-.05.25-.08.38l-.22.16v.23h-.08v.15h-.07c0,.31-.05.61-.08.92h-.07v1.76h.08v.31h.07v.08h-.08c0,.21.05.42.08.62h-.08v.46h-.08v.69h-.08v.38h-.08v.77h-.08c0,.13.06.25.08.38a.22.22,0,0,0-.07.23h.07c.08.34-.21,1-.06,1.45h.07v.23a2.07,2.07,0,0,1,.24,1h-.08v.38h-.08v.16h-.07v.46h-.08v.23h-.08v.3H278v.38h-.08a3.69,3.69,0,0,0,0,1.15H278v.3H278c0,.11.12.12.08.31H278c0,.15.05.3.08.46H278v.15l-.15.08c0,.08-.06.89-.06,1l-.15.08v.23h-.07l0,.35h.07V329h-.08a1.55,1.55,0,0,0,.08.23.12.12,0,0,0-.07.16c0,.1.09,0,.07.07a.14.14,0,0,0-.08.16.11.11,0,0,1,.08.14h-.07v.08h.07V330h.07l-.07.15h.08v.46h.08a1.11,1.11,0,0,1,0,.68,1.43,1.43,0,0,1-.07.62l-.3.07v.08c-.25.09-.53-.06-.69.09-.39,0-.39-.1-.62-.24v-.61h.08v-.15h.07c0-.07-.05-.14-.08-.22h.08c0-.08-.05-.15-.08-.24h-.08v-.46H276V330h-.08v-.77h-.08a.19.19,0,0,1,.08-.23,2,2,0,0,0,0-.84h-.08c-.08-.21-.05-.44-.16-.61l-.15-.08v-.15l-.15-.08c0-.15-.05-.31-.08-.46h-.08c0-.1-.05-.21-.07-.31H275c0-.13-.05-.25-.08-.38h-.08v-.31h-.08v-.15h-.08c0-.38-.06-.77-.09-1.14h-.07v-.38h-.08v-.31h-.08v-.31h-.08v-.3h-.08v-.23h-.07v-.38h.08c0-.11-.13-.2-.08-.38h.07v-.23c0-.1.1,0,.08-.07h-.08v-.15h-.08c0-.22-.05-.46-.08-.68l-.15-.08v-.15h-.08l-.08-.23h-.15v-.15h-.16a.61.61,0,0,0-.15-.39h-.07v-.46h-.07l-.09-.46H273V319h-.08v-.39h-.08v-.16h-.08c0-.18-.05-.36-.08-.53h-.07v-.16h-.08v-.3h-.08v-.31h-.08v-.23h-.08v-.31h-.08v-.45h-.08v-.31h-.07a3.85,3.85,0,0,1-.08-.47h-.08v-.16h-.08v-.31h-.08v-.3h-.08v-.22h-.08a6.28,6.28,0,0,1-.16-1.38,1.68,1.68,0,0,0,.15-.85h-.08c0-.3-.05-.61-.08-.91h-.08V311h-.08v-.38h-.08v-.23h-.07v-.16H271V310h-.08a.57.57,0,0,1-.15-.31h-.16a2.09,2.09,0,0,0-.08-.23l-.22-.15v-.15h-.07v-.54a4.8,4.8,0,0,1-.16-1.45v-.84c-.25-.81-.42-1.6-1.08-2v-.08c-.25.14-.36-.07-.54.09-.45,0-.43.15-.69.31a3.32,3.32,0,0,0-.14,1.52h.08v.3h.08c.05.17-.08.41-.07.45h.07v.23h.08v.08h-.08l.09.69h.07v.23H268v.16h.08v.23h.08v.16h.07c0,.51,0,1-.06,1.53h.07v.3h.08v.31l.16.07c0,.1.05.2.08.31l.15.07v.16h.07a6.14,6.14,0,0,0-.07,1h.08l.09.77H269c0,.15,0,.3.07.45h.08c0,.12-.05.25-.07.38h.07v.38h.08v.08a.83.83,0,0,0,0,.23v.69c0,.15-.08.15-.08.15v.54h.08a2.63,2.63,0,0,0-.07.92l.08.23h.08l.15.47h.08v.15l.15.08.09.38h.07v.08h-.07c0,.41,0,.82-.07,1.23h.07c.05.18-.09.21-.07.3h.07l.09.77h.07v.53H270v.23h.09c0,.07-.05.15-.09.23l.16.07c0,.11-.14.32-.07.54h.08v.92l-.07.22h.07c0,.14-.07.15-.07.15a1,1,0,0,0,.08.46h-.08v.08h.08v.38h.07V325h.08c0,.1-.05.2-.08.3h.08v.54h.08v.46h.08c0,.26.06.52.08.77h.08c0,.13.05.25.08.38l.15.08c0,.13.06.25.08.38l.15.08v.23h.08c0,.15-.05.3-.08.46l0,1.38h-.08a1.25,1.25,0,0,0-.07.69h.08c0,.11,0,.21-.08.32h.08v.46h.07c.06.53.12,1.06.17,1.6l-.23.08v-.07H271c0-.16-.05-.31-.08-.47l-.15-.08v-.15h-.07a1.55,1.55,0,0,1-.08-.23c-.21-.05-.17,0-.23-.22-.27-.07-.34-.24-.61-.3l-.09-.31h-.15V331h-.08v-.08c0-.05.12,0,.08-.15h-.08v-.15h-.08v-.31h-.08l.08-.15h-.08V330h-.08V330h.08c0-.11,0,0-.08-.08v-.23l-.15-.08c0-.14-.06-.3-.08-.45l-.15-.08v-.23h-.07v-.15h-.08v-.24l-.16-.07-.07-.22h-.08v-.23l-.16-.08v-.16h-.07v-.22l-.23-.16v-.15l-.31-.23v-.23h-.07c0-.08-.06-.16-.08-.23l-.15-.08c-.2-.31,0-.57-.16-.92H267v-.23l-.16-.08c0-.12-.05-.25-.08-.38l-.15-.07v-.15l-.22-.16v-.15l-.23-.15v-.16l-.16-.07v-.16h-.08l-.07-.22c-.2,0-.13,0-.23-.15h-.08v-.15l-.39-.31c0-.1-.05-.2-.07-.3H265v-.46h-.08v-.15h-.08v-.3h-.08c-.08-.23-.15-.46-.23-.68h-.08v-.16l-.16-.08c0-.1,0-.2-.08-.3l-.15-.08v-.15H264v-.24h-.07v-.23h-.08v-.23h-.08v-.3l-.15-.08v-.23h-.08v-.15h-.07v-.16l-.15-.07-.15-.47L263,318v-.15h-.07c0-.1-.06-.2-.08-.3h-.08l-.08-.31-.08-.16-.07-.22c-.08-.22,0-.37-.09-.54h-.07v-.15l-.16-.15v-.16l-.23-.15v-.15l-.31-.23v-.15h-.07l-.16-.23v-.23h-.08v-.15h-.08v-.16h-.07a2.09,2.09,0,0,1-.08-.23l-.16-.07a4.32,4.32,0,0,1,.07-1.15c0-.59-.39-.83-.69-1.15l-.16-.07v-.16l-.23-.15v-.3h-.08c0-.16,0-.3-.08-.46h-.08v-.15h-.07v-.23l-.16-.08c-.07-.11-.05-.3-.16-.38h-.15a1.09,1.09,0,0,0-.08-.15H259v-.15h-.08v-.15h-.08v-.15h-.07a.21.21,0,0,1,.07-.23v-.07h-.07v-.46c-.1-.28-.34-.42-.47-.69h-.38v-.07c-.78,0-.66.34-1.07.62v.84h.08v.15H257a.12.12,0,0,1-.07.15c0,.16.05.31.08.46h.08v.38l.15.07v.15h.08c0,.13.05.26.08.39l.15.07v.15l.16.08v.16l.15.07c0,.1,0,.21.08.31H258v.69s0,.51.08.76c.24.38.47.76.7,1.15v.23h.07v.31H259v.08a.11.11,0,0,0-.08.15l.16.08v.38h.08v.15h.07c.06.26.11.51.16.76h.08v.16h.08c0,.12.05.25.07.38h.08v.31c.07.18.25.29.31.54.26.06.25.24.46.37l-.15,1.15h.08v.38c.09.27.31.37.39.69h.15l.08.15a1.32,1.32,0,0,0,.54.38c0,.41.05.82.08,1.23h.08v.3h.08v.31h.08V323h.08c0,.17.05.35.08.53h.07c0,.1,0,.2-.07.31l.15.07v.15h.08c0,.2,0,.41.08.61h.08v.23h.08l.24,1.76h.08v.15l.31.22v.16l.31.23v.15h.08c0,.16.11.31.16.46h.08c0,.21,0,.41.07.61h.08V329H264c.17.55-.14,1.51.09,2l.15.08v.45h.08v.23h.07v.16h.08v.15l.15.07c0,.13.06.26.08.39l.24.15v.15l.15.07.09.39h.08c0,.17.05.35.07.53h.08V334h.08v.31h.08v.31h.08v.15h.07c.14.32-.05.34.24.53,0,.55-.14.31-.38.55-.58-.17-.47-1-1.24-1.22v-.16h-.15v-.15h-.08l-.38-.45h-.16a.71.71,0,0,0-.08-.15l-.37-.08-.09-.15h-.22a1.09,1.09,0,0,1-.08-.15h-.08a1.2,1.2,0,0,1-.23-.54v-.38l-.15-.07-.15-.47-.16-.07v-.15l-.15-.15h-.16l-.15-.23h-.15v-.07l-.23-.15v-.15l-.15-.08v-.3h-.07v-.16l-.15-.07V330h-.07v-.16a1.48,1.48,0,0,1-.32-.69h-.15a1.06,1.06,0,0,0-.31-.69c-.06-.21,0-.18-.24-.23-.1-.34-.64-.48-.92-.68l-.23-.31h-.08v-.16l-.23-.15v-.16l-.15-.07v-.15l-.16-.08v-.15l-.54-.45v-.16c-.21-.06-.17,0-.23-.23-.21-.05-.17,0-.23-.23h-.16a2.17,2.17,0,0,0-.3-.61v-.15l-.15-.07c0-.11-.05-.21-.08-.31H256V324H256v-.46h-.07v-.15h-.08V323l-.15-.08a1.94,1.94,0,0,1-.31-.52c-.54-.15-.88-.65-1.23-1l-.46-.38c-.18-.17-.25-.37-.54-.45-.1-.31,0-.08-.23-.23a1.09,1.09,0,0,1-.08-.15h-.07V320l-.15-.08v-.3h-.08v-.23h-.07v-.53h-.08c-.05-.15-.1-.3-.16-.46h-.07v-.15l-.16-.08c0-.1,0-.2-.08-.3l-.23-.15v-.15l-.15-.08v-.16l-.16-.15h-.15a3.55,3.55,0,0,1-.23-.31h-.16v-.08h-.15a2.18,2.18,0,0,1-.46-.31c0-.08-.05-.16-.08-.23H250v-.15l-.38-.3v-.16l-.23-.15c-.16-.18-.31-.36-.47-.53l-.31-.24v-.22l-.15-.08v-.15h-.07v-.16h-.07V314h-.07v-.15l-.16-.15v-.16c-.08-.1-.19,0-.31-.22h-.92v.08h-.15v.07l-.23.15c0,.22-.16.68-.15.77h.08v.15l.16.08v.31l.15.07v.23h.08v.16l.16.07v.15l.22.16V316l.15.08v.15l.32.23a.69.69,0,0,0,.07.15l.69.38a2.81,2.81,0,0,0,.08.31l.15.08a2.63,2.63,0,0,1,.08.3l.16.07V318h.07v.22H249c0,.15.09.31.15.46h.07V319h.07v.15h.08v.31l.16.07v.16h.07c.06.15.11.3.16.45h.15a1.55,1.55,0,0,1,.08.23l.24.15v.16l.14.07v.15h.08v.47l.16.07v.23h.07v.16h.08V322h.08c.05.15.1.3.16.46h.07v.15l.23.15c0,.13,0,.26.08.39a1.82,1.82,0,0,1,.23.15c0,.1,0,.2.08.3l.24.15c.05.15.09.31.15.46l.15.08v.15l.16.08v.15l.15.08c0,.15.1.3.16.45l.15.08a2.81,2.81,0,0,1,.08.31l.16.07v.15l.15.08v.15l.31.23a1,1,0,0,1,.07.15c.23.17.39.15.47.46a1.77,1.77,0,0,1,.16.92h.15l.08.38h.07v.23l.15.07v.16h.08v.23h.08c.05.15.1.3.16.46h.07v.15h.08v.23l.16.08V330l.15.07c0,.07.05.16.08.23h.08c.05.15.09.3.15.46l.15.08c0,.1.06.2.08.3l.39.3c0,.08.05.15.07.23l.16.08V332h.08v.31h.08v.08a.2.2,0,0,0-.08.23h.08v.23h.08v.15H257c0,.13.06.26.08.39l.24.14a2.25,2.25,0,0,0,.08.24h.07v.15l.39.3c.22.31.07.35.46.54v.15h.15c.1.31.06.08.24.23v.07h.07v.16l.23.15v.15l.55.45v.16l.15.07v.23h.08v.15h.08c0,.1-.13.13-.08.3h.08v.23h.07v.16H260v.23h.08v.15a2.26,2.26,0,0,1,.31.23v.3l.23.15v.16h.08v.15h.08l.08.23a.9.9,0,0,0-.23.31c-.15,0-.06,0-.15.07-.54,0-.35-.26-.62-.53a3.7,3.7,0,0,0-.61-.38,1.09,1.09,0,0,1-.08-.15H259a1.09,1.09,0,0,1-.08-.15h-.16l-.15-.23h-.16l-.07-.15h-.16a1.09,1.09,0,0,0-.08-.15l-1.14-.3v-.08l-.15-.07v-.31l-.15-.08a2.81,2.81,0,0,1-.08-.31l-.16-.07c0-.07-.05-.15-.08-.22h-.15l-.23-.31-.31-.08a1,1,0,0,1-.07-.15h-.24l-.07-.16h-.15v-.07l-.38-.31c0-.12-.06-.26-.08-.38l-.15-.07a1,1,0,0,1-.31-.54h-.16c0-.07,0-.15-.08-.23h-.08a1.68,1.68,0,0,0-.07-.24l-.15-.07v-.16l-.15-.07-.31-.38h-.15l-.08-.15-.31-.08v-.07h-.15v-.08c-.12,0-.18.09-.38,0v-.08l-.31-.07v-.15l-.39-.3v-.08h-.15l-.08-.23-.23-.08a1,1,0,0,1-.07-.15h-.16l-.08-.15-.23-.07v-.08l-.23-.08v-.15c-.3-.08-.38-.3-.69-.38-.05-.2-.11-.17-.16-.38h-.15V330h-.15c-.09-.32-.35-.5-.47-.76s0-.26-.08-.39l-.15-.07v-.15h-.08a.7.7,0,0,1-.16-.31.54.54,0,0,1-.3-.15v-.07h-.15a1.09,1.09,0,0,0-.08-.15c-.25-.09-.51-.16-.76-.23a1.09,1.09,0,0,1-.08-.15h-.15c0-.06-.06-.11-.08-.16h-.15a1.09,1.09,0,0,1-.08-.15h-.16l-.07-.16-.24-.07V327l-.3-.08s-.05-.1-.08-.15h-.15l-.16-.23H245c-.14-.1-.2-.28-.39-.38V326h-.15c-.08-.87-.61-1.21-1.08-1.68-.11-.12-.21-.25-.31-.37h-.15c-.06-.08-.11-.16-.16-.24h-.15v-.08h-.22v-.08h-.16v-.08h-.3v-.08h-.15v-.07h-.15a1.09,1.09,0,0,1-.08-.15,1.32,1.32,0,0,0-.7-.45v-.16c-.05-.09-.44-.16-.53-.23a.71.71,0,0,1-.08-.15,1,1,0,0,0-.54-.3c0-.08-.05-.16-.08-.23h-.07v-.15l-.16-.08v-.15l-.15-.08V321h-.07l-.16-.23c-.12-.09-.17,0-.3-.15H238l-.46.39c0,.26,0,.51-.07.77h.07a2.81,2.81,0,0,1,.08.31l.16.07v.15l.15.08v.15l.16.07v.16l.69.6a3.65,3.65,0,0,0,.24.31h.15v.08h.15l.08.15c.31.15.39-.15.54.3h.15c.08.28.3.42.47.61h.07V325l.23.15v.16l.16.08v.15l.15.07v.23l.23.15c0,.11.06.21.08.31l.16.08v.14l.31.23c0,.06.05.11.07.16h.16l.38.45.16.08v.15l.23.15a2.81,2.81,0,0,0,.08.31l.23.15v.24l.16.06v.16h.08v.15h.08a2.09,2.09,0,0,1,.08.23c.19.05.12,0,.23.15H244v.16l.23.15v.15l.15.15h.15q.12.17.24.3h.15c.09.34.24.27.39.46a3.93,3.93,0,0,0,1.16,1.3V332a.61.61,0,0,1,.3.15v.08l.39.07.08.15h.15l.46.61v.24h.07v.22H248v.16H248v.15l.55.46v.15l.15.07c0,.08.06.16.08.23h.08v.16l.15.07v.15l.7.61v.16l.62.53v.07h.15a1.57,1.57,0,0,0,.46.61l.16.08c.05.23.1.46.16.68a.71.71,0,0,0,.15.08v.15l.93,1h.15l.3.37H253a1.19,1.19,0,0,1,.08.16l.31.07.07.15h.16v.08a.61.61,0,0,0,.3.15c.09.29.18.23.39.38l.23.31h.15l.08.15h.07l.09.39.15.08v.3a1.88,1.88,0,0,1,.23.16V342c.15.13.31.25.46.39a2,2,0,0,0,.08.22H256c.12.1,0,.19.23.31v.15h.15c.05.15,0,.07.08.15,0,.39,0,.51-.37.54v.08l-.54-.15v-.08l-.31-.08v-.07h-.31v-.08l-.31-.07-.07-.15h-.15a1.09,1.09,0,0,1-.08-.15h-.15v-.08L254,343l-.07-.15h-.16l-.08-.16h-.15l-.15-.23h-.16a1.09,1.09,0,0,0-.08-.15H253c-.06-.08-.1-.16-.15-.23l-.31-.07v-.08h-.16v-.08h-.15v-.07h-.15v-.08h-.15v-.08h-.24v-.08h-.15v-.07l-.38-.08-.31-.38-.31-.07-.15-.23h-.16l-.08-.15h-.22v-.08l-.31-.07v-.08h-.46a1.09,1.09,0,0,1-.08-.15l-.38-.07a2.09,2.09,0,0,1-.08-.23h-.16c-.11-.53-.51-.62-.92-.84V339h-.16v-.07h-.22v-.08H247v-.08l-.61-.08v-.08l-.47-.37v-.15l-.15-.08-.23-.31h-.16l-.15-.23H245v-.07h-.15v-.08l-.31.08v-.08l-.77-.15a1.09,1.09,0,0,0-.08-.15h-.15l-.46-.53h-.16l-.15-.16h-.16v-.08h-.15l-.07-.15-.31-.07-.08-.16h-.31v-.07h-.15v-.07h-.15l-.08-.16h-.23l-.08-.15h-.23v-.08l-.38-.07a1.09,1.09,0,0,1-.08-.15h-.15c-.17-.12-.15-.32-.39-.46v-.23c-.24-.06-.3-.18-.46-.3v-.07h-.23V334h-.15v-.07l-.92-.22v-.08l-.15-.08v-.15l-.16-.07v-.15l-.15-.08-.39-.46-.69-.22v-.08l-.23-.08-.08-.15h-.31V332l-.46-.08v-.07h-.15v-.08h-.31v-.09l-.38-.06s-.05-.11-.08-.16h-.15l-.16-.23H234l-.15-.23-.31-.08-.23-.3-.23-.08a1.09,1.09,0,0,1-.08-.15h-.16l-.07-.15-.46-.15c-.2-.13-.13-.3-.47-.38,0-.08,0-.16-.07-.23l-.46-.08v-.07h-.07v.08h-.31c-.13.15-.17.06-.3.15v.08l-.31.23v.31h-.07v.08h.08l.15.77c.22.06.18,0,.24.22l.23.08v.08h.15v.08h.16l.15.23h.23l.15.23H232l.46.53v.15a1.06,1.06,0,0,1,.39.23V333H233a1.88,1.88,0,0,1,.16.23c.16,0,.31.1.46.15l.08.15.31.07v.08l.31.23V334h.15c.09.31.19.17.23.53a.88.88,0,0,1,.39.23v.07h.15v.07l.47.16v.07h.53v.07l.31.08v.07h.15l.23.3h.16l.31.39h.15a1.09,1.09,0,0,0,.08.15h.15l.31.38h.15c.05.07.1.16.16.23h.15l.39.45.15.08v.15c.08.05.15.11.23.15v.15l.23.16v.08h.16l.15.23H240l.22.3h.16v.09c.21.13.14-.08.23.22a.85.85,0,0,1,.39.23v.07l.3.08a1.09,1.09,0,0,1,.08.15h.15l.08.16h.16v.08a.69.69,0,0,0,.31.15v.15c.57.13.7.65,1.15.76v.15h.15c.12.44.66.69,1,.91,0,.05,0,.1.07.16h.15V342l.38.08.08.15h.15s.06.1.16.15v.15a.7.7,0,0,1,.31.16v.07l.23.08V343l.15.15h.16l.07.15h.16l.23.31.46.15a.52.52,0,0,1,.07.15h.24l.15.23h.15l.23.3h.16a1.09,1.09,0,0,0,.08.15h.15l.08.15h.15l.16.15V345l.23.15c.2.22,0,.22.38.38v.15a.75.75,0,0,1,.31.15v.08l.3.07.16.23.31.08.08.15h.15s0,.1.08.16l.31.07.07.15.39.08c.1.12.2.25.31.37l.15.08v.15h.08l.15.23h.15l.16.23h.08l.07.15h.16l.15.3h.08c0,.05,0,.1-.08.16h.08v.07h-.08c0,.07-.05.14-.08.22a1.47,1.47,0,0,1-.69-.07l-.08-.15H252v-.08h-.15v-.08h-.23v-.07h-.85a.77.77,0,0,1-.07.16h-.61v-.08a.7.7,0,0,0-.3-.15c0-.19,0-.12-.16-.23v-.07h-.15c0-.07-.1-.15-.16-.22h-.15c0-.06,0-.1-.07-.15h-.24v-.07h-.53v-.09H248v-.07h-.23v-.08h-.46v-.07h-.23v-.07h-.23v-.08h-.16v-.07h-.22V347h-.3V347l-.31-.08v-.08l-.69-.14v-.08H245v-.08h-.38v-.07h-.23v-.08H244v-.08l-.46-.08v-.07l-.31-.08V346H243v-.08h-.31v-.08h-.15v-.08h-.3a1.09,1.09,0,0,1-.08-.15h-.31v-.08h-.23v-.07h-.16v-.08l-.46-.08v-.07l-.31-.08v-.08l-.31-.07s0-.1-.08-.15h-.15l-.16-.15h-.15v-.08h-.15v-.08h-.16v-.08l-1.38-.22v-.07H238v-.07h-.16V344h-.15V344h-.16l-.15-.15h-.15l-.08-.16-.54-.07v-.07l-1.68-.07v-.07h-.16v-.09l-.76-.13-.08-.16-.31-.08a1.09,1.09,0,0,0-.08-.15h-.15a1.19,1.19,0,0,0-.08-.16H233a1.09,1.09,0,0,1-.08-.15h-.31c-.47-.16-.95-.24-1.07-.76a.75.75,0,0,1-.31-.15v-.08h-.16v-.08l-.3-.08v-.07h-.31v-.07l-1.76-.14V341h-.23v-.07H228a1.09,1.09,0,0,1-.08-.15h-.31l-.08-.15h-.23v-.07h-.23v-.08H227v-.08h-.15l-.08-.15h-.16s-.05-.1-.07-.16h-.16l-.07-.15-.54-.15c-.09.06,0,.07-.08.08v-.08h-.23l-.45.54h-.08v.23h-.08c.06.23.11.46.16.69a3.55,3.55,0,0,1,.31.23,1.09,1.09,0,0,1,.08.15l.31.08.07.14.31.08a.8.8,0,0,1,.08.16h.15v.07h.15v.08h.31l.85.92h.31v.08H228v.08h.23l.08.15h.46v.08H229v.08h.38v.08l.47.15v.08h.23v.07h.15V344h.16l.07.16h.31v.08H231v.08h.31l.08.15h.23v.07h.15v.07H232v.08c.14.1.18.18.39.22v.15l.23.08.15.23h.15c0,.06.06.1.08.15h.23v.07h.39v.08h.15v.08h.46v.08l.31.08V346h.15l.23.3H235l.24.3h.15l.08.16.38.08v.07l.31.07V347h.23v.08h.15v.07h.16v.08h.15v.07h.31v.08h.15v.08l.77.07a1.19,1.19,0,0,0,.08.16h.15v.07l.31.23v.15a.93.93,0,0,1,.38.22v.08h.14a.71.71,0,0,1,.08.15h.16l.15.23h.16l.07.15.31.08c0,.05,0,.1.08.14h.15l.08.15h.15v.08h.23v.08l.31.08v.07h.23v.08h.15v.07h.23a1.09,1.09,0,0,1,.08.15H242v.08h1.08v.08h.3l.08.15.23.07v.08H244l.08.16h.15l.23.3h.16V351h.15V351H245v.08h.15v.07h.3s.06.1.09.15l.84.23v.07h.15a.64.64,0,0,1,.08.14h.23v.08H247v.08h.22a1.09,1.09,0,0,1,.08.15l.47.16s0,.09.07.15l.23.07v.08l.46.15a2.22,2.22,0,0,1,.15.23l.31.07v.08l.46.15v.07h.38v.09H250v.08h.16v.08h.15c.17.09.35.23.54.31v.53h-.07c0,.26,0,.28-.16.39a.54.54,0,0,1-.45,0l-.08-.16H250v-.08h-.16v-.07l-.92-.07v-.08c-.47-.13-1.65.12-1.84,0s-.29.15-.53.08v-.08l-.46-.07v-.07l-.31-.08V354h-.38v-.08h-.16v-.07h-.46v-.08h-.31v-.08l-1.45-.06v.07a1.69,1.69,0,0,1-1,.09v-.08c-.21-.08-.42-.05-.61-.14v-.08h-.16v-.07c-.39-.15-1.2.12-1.37,0h-.08v.08h-.38v-.08h-.24v-.08h-.3v-.08h-.23v-.08h-.31v-.08H238v-.07h-.76V353a7.27,7.27,0,0,0-1.84.16v-.07L235,353a.8.8,0,0,1-.08-.16h-.15a1.09,1.09,0,0,1-.08-.15h-.31v-.08h-.23v-.08h-.54v-.07h-.07v.07h-.31v.07h-.31v.08c-.06,0-.62-.14-.69-.15h-.38v-.08h-.15v-.08l-.7-.14v-.08l-.47-.08V352h-.15V352h-.46v-.08h-.55V352h-.3v.08c-.5.15-1.28-.28-1.61-.37h-1.31s0-.1-.22-.08l-.08.08v-.08l-.31-.07v-.08h-.45v-.07h-.3v-.08h-.39v-.08h-.31v-.08h-.3v-.08h-.23V351h-.24v-.08c-.31-.13-1-.27-1.3,0-.12.11-.25.21-.38.31v.23h-.07v.38h.08V352l.15.07v.16h.08v.15l.23.15v.07h.16v.08h.15l.08.16,1.22.37h.47v.08h.15v.08h.08v-.08l.84.07v.08h.3v.07h.15v.08h.15l.08.15h.23v.07h.15v.08h.46V354H227v.07h.23v.08l.61.07v.08H228v.07h.23v.07h.15v.08l.3.07v.08h.24v.07l1.61.07v.07h.23V355h.3a1.09,1.09,0,0,1,.08.15h.31v.08h.16v.08h.22v.07H232v.07h.23v.08l.31.07v.07h.23v.08h.15v.08l.69.07v.07h.23V356h.54v.07h.15v.08h.38v.08l.46.14v.08h.3v.08h.15v.07c.67.1,1.34.19,2,.3a.64.64,0,0,1,.08.14h.3v.08h.15v.07h.3v.08H239v.08h.77v.08H240v.08h.3l.08.15h.38v.08h.16v.08h.3v.07h.15v.08h.3V358h.23v.07h.39v.08l.69.06v-.07h.07v.08c.23.09.38.13.61.23v.07c.18.06.21-.07.31-.08v.08h.15v.07l.23-.07v.07l.54.08a.14.14,0,0,1,.15-.08v.08h.39v.08h.15v.07l.15-.07v.07l.77-.08v.07l.3.08.16.23h.15v.08l.46.15v.07h.23v.08h.3v.08h.16v.08h.38v.07h.23v.07h.61a.83.83,0,0,1,.16.54h-.08c-.05.15,0,.25-.07.38a2.62,2.62,0,0,1-1,.08v-.08h-.07v.08h-.31v.07h-.23V361h-.46v-.08h-.08V361h-1.07s0-.1-.15-.07V361h-.23V361h-.38v.08h-.23v.08h-1.76v-.08h-.08v.07h-.23v.08c-.18.06-.21-.09-.3-.08v.08l-.84.08v.08h-.54v.07h-.45v.08l-.46-.07v.07h-.31v.08h-.53v-.08a.17.17,0,0,0-.16.09c-.16,0-.15-.08-.15-.08h-.38v-.08l-1.07-.15v.09l-.15-.08v.08h-.23v.08h-.23v.08H237v.07h-.23v.07l-1.07-.07v.08c-.17.05-.35-.08-.38-.08v.08h-.16v.08h-.38s0,.05-.15.08v.15c-.23.06-.5.38-.77.32v-.08h-.23l-.07-.15-2.07-.22v.08H231v.07l-.23-.08v.08l-.38.08v.08l-.31.07v.08c-.66.25-1.13-.42-1.85-.21v.07c-.18.05-.32-.08-.38-.08v.08h-.31v-.08h-.07v.08h-.16v.07h-.46v.08h-.38v.07h-.31v.07h-.54v.08c-.25.09-.2,0-.3,0v.07a2.2,2.2,0,0,1-1-.15l-1.23-.07v-.07h-.54v-.07l-.76-.08v-.07c-.13,0-.13.07-.16.08h-.53v.08a1.65,1.65,0,0,0-.69.38h-.08v.23c-.2.5.12.7.23,1.07l.69.08v.08c.13,0,.14-.08.16-.09h.46v.08l.22-.09v.08h.69v.08c.21,0,.42,0,.62.06v.09h.16v.08h.53v.08l1.07-.08v.07h.3v.08h.38v.07h.46v.08h.08v-.08h.31v-.08h.77a3.89,3.89,0,0,1,1.68-.17v.08h.61v.08H230v.07h.31l.16.24.15,0v.08l.31.08v.08l.84.07v.07l.31-.07v.07h.69v-.07c.1,0,0,.06.07.08a.21.21,0,0,0,.23-.08c.06,0,.2.13.38.06v-.07h.31v-.07c.3-.09.75.09.92.07v-.08l.92.15v.08l.39-.09v.08h.45v.08c.19,0,.21-.09.31-.08v.08l.46-.09v.08h.15v.08c.21.06.46-.08.54-.08v.08l1.53-.25a1.6,1.6,0,0,1,.69-.16v.08h.3v.07h.23v.08h.23v.08l.76.08v.08h.23v.08l.23-.08v.08h.23v.08l.62-.09a2.38,2.38,0,0,0,.92,0v-.07h.3v.07h.15l.08.16h.16a1.09,1.09,0,0,0,.08.15l.3.08v.08l1.53,0s.06-.11.24-.07v.07l.46-.07v-.08c.18-.06.21.08.31.07v-.08h.31v-.07h.3v.07c.12,0,.45-.15.7-.08v.08h.69l.08.15h.15v.54h-.08v.07a.13.13,0,0,1,.08.16h-.08c0,.13-.05.26-.07.38h-.16c0,.21-.1.18-.15.39l-1.38-.06v.07h-.3v.07h-.38v.08H247v.07h-.93v-.08h-.23v-.07l-.69.08v.07H245c0,.05,0,.1-.07.15l-.39.08v.08l-.68.24v.07h-.16v.08h-.24s0,.1-.07.15h-.15v.08h-.16v.08h-.38V369h-.3v.08h-.77v.08h-.3v.08H241v.07l-.31.08v.08l-.31-.07a1,1,0,0,1-.07.15h-.15v.08a.22.22,0,0,1-.24-.08l-.3.08v-.07a2,2,0,0,0-.92,0v.08h-.23v.08l-.46.07c0,.05-.05.1-.07.16h-.15c-.13.15-.26.31-.38.47l-.39.08v.06h-.16v.08l-.91.16v.08h-.15v.08l-.84.16v.07l-.31.08v.07h-.23v.08l-.76.09v.07h-.15v.08h-.31v.07H233v.07h-.38v.07l-.31.09V372l-.61.08c-.25.1-.79.45-1.22.32v-.07l-1.08-.15v.08l-.68.08v.07h-.23v.08h-.31v.08h-.38v.07h-.23v.08h-.16l-.15.23c-.26.18-.42.08-.53.46l-1,.24v.08H225v.07h-.38v-.07l-1.46.07v.08h-.31V374h-.15v.08h-.23v.08h-.15v.08h-.15l-.08.16H222v.08l-.23.07c-.06.24-.35.55-.23.92h.08c.08.19-.07.09.08.23v.15l.24.08a1,1,0,0,0,.07.15h.15v.07h.16a5.63,5.63,0,0,0,2.14-.16l.92-.09v-.07h.16v-.08l.45-.08v-.08c.59-.2,1.34.22,1.83,0v-.08l.31-.08v-.07h.24c.05-.08.09-.16.14-.23h.39V375H229v.07c.14,0,.34-.24.68-.15V375H230V375h.38v-.08h.23v-.08H231v-.08h.15v-.07l.23.07v-.07c.19,0,.2.05.31.07h.84s0-.1.16-.07v.07h1.22v-.08h.31v-.07h.31l.08-.16h.15v-.07h.16c0-.08.09-.16.14-.23h.16c0-.05.05-.11.07-.15h.16v-.08l.69.15v.07l1.46-.08v-.08h.23v-.09h.46v-.08h.23v-.08l.31.08v-.07H239v-.08h.46v-.07l1,.07v.08a2.55,2.55,0,0,1,.69-.09c.1,0,0,.09.07.08v-.08l.69-.08v-.08h.53v-.08H243v-.08h.69s0-.1.15-.08v.07h.08v-.07l.31-.08V373h.3l.08-.15.3-.08.08-.16h.46v-.07l.61.07a6,6,0,0,1,1.38.06c1.36,0,2.27-.45,3.37-.25v.23l-.46.16v.08l-.61.08v.07h-.16l-.07.16h-.23v.09l-.15.08v.15l-.23.15v.15l-.15.08v.15h-.08v.08h-.16v.07h-.23v.07H248v.08h-.16v.07l-.15-.07v.08h-.3v.08h-.3v.07h-.23v.07h-.15v.08h-.23v.08h-.15v.08h-.23V375l-.47.08-.07.15-.38.09a1.09,1.09,0,0,0-.08.15l-.31.08a1,1,0,0,1-.07.15h-.15c-.06.08-.11.16-.16.24h-.15a1,1,0,0,0-.07.15l-.24.08v.08h-.15l-.07.15h-.15a2.22,2.22,0,0,0-.15.23h-.24l-1.3.39a.69.69,0,0,1-.07.15h-.15l-.16.23h-.15l-.08.16h-.15l-.15.22-.3.09c-.11.12-.21.25-.31.38h-.16l-.14.15v.16c-.09.1-.28.08-.39.16l-.07.15c-.17.1-.32,0-.54.07V379h-.3v.07h-.38l-.08.16h-.16a1,1,0,0,1-.07.15l-.31.09c0,.05,0,.09-.07.15l-.38.07-.08.16-.69.16v.07h-.16v.08h-.31v.07H236v.08h-.15a1.09,1.09,0,0,1-.08.15h-.15l-.15.16h-.16v.08h-.15l-.07.15-.69.23c0,.05-.05.1-.07.16l-.93.16c0,.06-.05.1-.07.15h-.15l-.15.23h-.16l-.15.23h-.15l-.15.23h-.16c0,.05-.05.1-.07.16h-.23a1.88,1.88,0,0,1-.16.23,2.27,2.27,0,0,1-1.06.24v-.08h-.62v.07c-.2.08-.45.06-.61.17v.08a.89.89,0,0,1-.38.22c-.06.23-.08.26-.31.31,0,.08-.05.15-.07.24-.22.05-.42.17-.61.22l-.54.09-.07.15-.46.16c-.1.36-.37.36-.53.62l-1,.08v.08l-.3.07c-.1.3-.09.13-.23.31h-.08c-.16.3.13.94.16,1.07l.23.07v.08h.16V387h1.15v-.07h.22v-.08h.46v-.07h.16v-.07h.3v-.08l.31-.08v-.08h.15l.31-.38.31-.08v-.08h.31V386c.16,0,.15-.08.15-.08H230v-.08h.16v-.08l.38-.08.08-.16h.23l.07-.14.46-.16c0-.05,0-.1.08-.16h.15V385l1.37-.23v-.08l.46-.08v-.08h.16v-.08h.3l.08-.15h.15v-.08h.31a1,1,0,0,0,.07-.15l.31-.08c0-.19,0-.13.15-.23v-.08h.15l.08-.16h.15v-.07h.54v.08a1,1,0,0,0,.68,0h.31v-.07h.23l.69-.61v-.23l.22-.16v-.07h.23c.28-.11.78,0,1.08-.08v-.08h.16v-.07h.38V382H240v-.08h.31v-.08h.23v-.08h.15v-.07l.92-.17c0-.05.05-.09.08-.15h.3v-.08h.61v-.08h.3v-.08H243v.08l.69-.16V381l.39-.08.07-.15a2.37,2.37,0,0,0,.3-.23l.16-.24.69-.22V380l.3.07a1.09,1.09,0,0,1,.08-.15h.38v-.08h.38v.09l1.23-.09v-.08h.23v-.08h.46v-.08h.23v-.08l.45-.15v-.08h.15c0-.05,0-.09.07-.15h.16l.15-.23h.15l.08-.15H250v-.07h.3v-.08h.23v-.08H251l.08-.16h.38v-.07h.15a1.09,1.09,0,0,1,.08-.15H252V378h.15V378l.46-.08v-.08a1.12,1.12,0,0,1,.54.22v.31H253c-.11.41-.2.18-.53.32v.07l-.46.16v.07h-.15V379a1,1,0,0,1-.38.23c-.11.39-.43.52-.61.85h-.16a2,2,0,0,1-.07.23h-.08v.15l-.15.09v.22h-.07V381h-.08c0,.08,0,.16-.07.23a5.72,5.72,0,0,0-.54.24l-.69.08c-.4.46-.8.93-1.21,1.39l-.46.08v.07h-.15v.08H247c0,.05,0,.1-.07.16h-.23v.07l-.31.08v.08h-.15v.08H246a1.09,1.09,0,0,1-.08.15l-.45.16-.23.31h-.15a1.09,1.09,0,0,0-.08.15H245c0,.1,0,.21-.07.31l-.23.15-.15.47h-.15v.16a.69.69,0,0,0-.31.15v.08l-.23.08-.07.15h-.16c0,.08-.1.16-.15.24h-.15c-.25.28-.51.56-.76.85h-.15l-.23.3h-.23l-.15.24-.38.08-.16.23H241V388l-.91.17a1.82,1.82,0,0,0-.15.23h-.16l-.23.31c-.07.08-.42.26-.45.3v.16c-.09.14-.22.31-.31.47h-.15c-.15.55-.92.76-1.06,1.31-.26.07-.35.25-.54.39v.08h-.22v.08h-.31v.07H236a1.09,1.09,0,0,0-.08.15h-.16v.08h-.15l-.15.15h-.15s-.05.1-.08.15l-.3.08-.15.23h-.16a.8.8,0,0,1-.08.16h-.15a3.4,3.4,0,0,1-.23.3h-.07V393l-.15.08v.15h-.08v.15h-.07v.14h-.08v.15h-.07a1.55,1.55,0,0,0-.08.23,1.46,1.46,0,0,0-.76.61h-.16c-.08.35-.18.22-.38.4l-.45.54h-.15s0,.1-.08.15l-.46.08v.07l-.3.08V396c-.22.06-.23.14-.39.24,0,.23,0,.56.09.69,0,.53.22.33.46.6a3.08,3.08,0,0,0,1.15-.16v-.08h.15v-.07l.38-.09.08-.15h.15l.23-.31h.15v-.07h.15l.16-.23h.07v-.15l.16-.08v-.23h.08l.38-.46h.15l.08-.15.31-.08.15-.14h.15l.07-.15h.31v-.07l.38-.08v-.08H236v-.08l.53-.08v-.07l.31-.08.15-.23h.15l.16-.24.3-.08.23-.3H238v-.08h.15v-.07h.23v-.08h.22v-.07h.15v-.08H239v-.07l.3-.08a1.09,1.09,0,0,0,.08-.15l.31-.08.07-.15.38-.09a3.4,3.4,0,0,0,.23-.3l.38-.08c0-.06.05-.11.08-.16l.23-.08.15-.23.31-.08a1.07,1.07,0,0,0,.07-.15l.46-.16v-.08h.15l.08-.16h.15l.08-.15h.15v-.08h.15v-.08H243l.07-.15.23-.08c0-.1.05-.2.08-.3h.07a.53.53,0,0,0,.15-.31l.23-.08v-.07h.23v-.08l.92-.16v-.08l.46-.15v-.07h.15v-.07h.23a1.09,1.09,0,0,1,.08-.15h.22l.08-.15.46-.09.15-.22h.23l.15-.23.31-.08.15-.23.31-.07c0-.06.05-.11.07-.16h.16c.07-.11.15-.21.22-.31h.16a1.82,1.82,0,0,1,.15-.23h.15v-.08l1.07-.16v-.08h.15v-.08h.31c0-.06.05-.1.07-.16a.82.82,0,0,1,.54-.3c.08-.31.31-.31.46-.54h.15v-.15a.41.41,0,0,0,.37-.38c.22-.06.18,0,.23-.24h.23c.06-.2,0-.17.23-.22.08-.32.23-.31.46-.47l.15-.23h.31V384h.53v-.07h.23a1.88,1.88,0,0,1,.16-.23l.45-.16s.05-.1.08-.16h.15a2.13,2.13,0,0,0,.61-.46l.39.07c.07.09,0,0,.07.08v.54l-.16.07v.16h-.08V384l-.15.08v.15l-.16.08v.15l-.23.16v.15l-.23.16v.15l-.23.15v.15l-.3.24v.15a1.88,1.88,0,0,1-.23.16c0,.05,0,.1-.08.16h-.15l-.15.16v.15l-.15.15h-.15c-.13.2-.26.41-.38.62h-.16v.3a1.88,1.88,0,0,0-.23.16v.15c-.11.07-.21.16-.31.23s-.36.41-.53.62h-.15l-.08.24-.3.23v.16l-.15.07v.31h-.07c0,.1-.06.21-.08.31h-.08a1.19,1.19,0,0,1-.08.16h-.15l-.07.15-.31.09a1,1,0,0,0-.07.15h-.16l-.15.23h-.15L250,391h-.07v.15h-.08v.16l-.15.08c0,.12-.05.25-.08.38l-.37.54-.39.08v.08h-.15l-.08.15h-.15a1.09,1.09,0,0,0-.08.15c-.15.13-.3.27-.46.39v.16a.69.69,0,0,0-.15.07c0,.13-.06.26-.08.39h-.07v.39c-.48.44-1,.87-1.45,1.32,0,.1-.05.2-.07.3a3.93,3.93,0,0,0-.38.31v.15l-.16.07v.16l-.3.24c0,.1-.05.2-.07.3h-.08c0,.08-.05.16-.07.23l-.16.08v.15a3.7,3.7,0,0,1-.46.31h-.23l-.76.61v.16l-.23.15c0,.15,0,.31-.07.46l-.38.46-.46.08v.08h-.16L242,400h-.15l-.39.47-.15.07v.15l-.16.09v.15l-.24.15v.23l-.3.23v.16h-.07c-.08.22-.15.46-.23.69-.11.07-.2.15-.31.23a2.09,2.09,0,0,1-.08.23l-.22.08-.76.85h-.15l-.08.15c-.12.11-.25.21-.38.31v.15l-.15.08v.08l-.23.08-.38.46h-.08v.23h-.07l.07.15c0,.1-.13.14-.07.31l.15.08V406h.07a2.09,2.09,0,0,1,.08.23c.35.07.79.18.92.07H239v-.08l.61-.46v-.16l.92-.85h.15v-.07h.15l.16-.16h.15v-.09a.6.6,0,0,1,.3-.14c.08-.28.25-.31.31-.62a.65.65,0,0,0,.38-.23h.08v-.23l.23-.08v-.08h.24V403h.15v-.07h.16a.8.8,0,0,1,.08-.16h.22a1.09,1.09,0,0,0,.08-.15h.15l.61-1v-.22h.07c0-.08,0-.16.08-.23h.15a2,2,0,0,1,.08-.22l.3-.09c.06-.21,0-.17.23-.22v-.16c.3-.09.37-.3.69-.39,0-.22.08-.25.3-.31v-.15l.23-.07.15-.24h.15l.08-.16h.15l.16-.15h.15v-.07h.15v-.08l.23-.08a.8.8,0,0,1,.08-.16h.15c.07-.1.15-.2.22-.31l.23-.07v-.15a1.29,1.29,0,0,0,.16-.09,1.76,1.76,0,0,0,.14-.23h.16l.53-.61.46-.39.15-.23h.16l.3-.38h.15l.46-.53.31-.09.14-.23h.16a1,1,0,0,0,.07-.15h.16l.15-.23h.15l.23-.39h.15v-.23h.08c.17-.21.36-.41.53-.62h.15a1.09,1.09,0,0,1,.08-.15c.27-.18.43-.09.53-.47.15,0,.07,0,.15-.07s.18,0,.23-.23l.23-.09v-.15c.06-.07.16-.06.23-.15h.08v-.23h.16c.08-.33.23-.31.45-.47l.31-.38.3-.08.31-.39.38-.07v-.08a2.73,2.73,0,0,0,.84-.7h.15c.06-.26.17-.3.22-.54.3-.08.24-.17.39-.38l.68-.62.15-.23h.16v-.08h.15V388h.15v-.08c.25-.15.47-.23.61-.47.53,0,.33.12.61.31,0,.2,0,.34-.07.45l-.15.08c-.07.26-.15.52-.22.77l-.16.08v.31l-.16.07v.23h-.07v.15h-.08v.16l-.15.07c0,.11-.05.21-.07.31l-.31.24v.15h-.08V391l-.24.14v.16l-.15.08c-.13.38-.26.76-.38,1.16l-.23.15v.23L258,393v.16l-.31.22v.16l-.15.09v.15l-.23.15-.3,1.3h-.08l-.3.39h-.15c-.1.31-.05.09-.23.23l-.08.15h-.08c0,.07,0,.15-.07.23l-.15.07v.31h-.07v.16h-.07v.31h-.07v.39h-.08v.15h-.08v.15h-.08c0,.06,0,.11-.07.16h-.16a1.09,1.09,0,0,1-.08.15c-.21.15-.3.1-.37.39h-.16a2.09,2.09,0,0,1-.08.23h-.07v.15h-.07V399l-.16.07c0,.36,0,.72-.07,1.08l-.15.08v.14h-.07c0,.08-.06.16-.08.23h-.15a1.17,1.17,0,0,1-.31.46h-.08v.15l-.16.16v.15H253v.16H253v.15h-.08V402h-.07v.15h-.08v.15h-.08c0,.11,0,.21-.07.31l-.16.08v.3l-.16.08v.23h-.07v.15h-.08c0,.13,0,.26-.07.39H252a1.11,1.11,0,0,1-.07.16h-.16a3.46,3.46,0,0,1-.22.31l-.23.08v.15c-.31.1-.09,0-.23.23l-.15.08V405l-.15.07v.39h-.08v.38h-.08v.23h-.08l-.22.31h-.16v.08c-.09.08-.14.06-.23.16h-.15v.15h-.16a3.82,3.82,0,0,1-.45.85c0,.12-.06.25-.08.38l-.23.15-.3,1.31h-.07v.15l-.15.08v.23l-.46.38v.24l-.23.15v.15c-.11.08-.2.16-.31.23v.16l-.22.15c0,.13,0,.26-.08.39l-.23.15c-.16.17-.26.41-.46.54,0,.35-.15.69.09.92v.15l.54.3a1.32,1.32,0,0,0,1.15-.54l.22-.15.15-.47.23-.15v-.15l.15-.08c0-.1,0-.2.08-.31h.07a1.09,1.09,0,0,0,.08-.15c.12-.09.18,0,.3-.16h.16v-.15h.15a1.55,1.55,0,0,1,.08-.23h.07v-.15l.15-.08.15-.46.16-.08v-.16l.16-.07v-.16l.16-.08v-.15s.1-.05.15-.15H251v-.15h.23v-.15c.27-.08.2-.17.46-.23.05-.21.1-.18.15-.39h.15c.08-.43.15-.87.22-1.3l.15-.08v-.15h.08l.23-.31h.15a1.22,1.22,0,0,1,.3-.55l.16-.07v-.16l.15-.07V406l.15-.07v-.16l.15-.07v-.16h.08c0-.07.05-.15.07-.23.4-.11.48-.44.84-.54v-.15h.08c.16-.19.18-.05.22-.39.34-.09.3-.29.46-.54l.15-.08v-.15c.11-.07.2-.15.31-.23v-.16L256,403v-.16l.15-.07v-.15l.15-.08v-.16l.15-.07v-.16h.08V402s.1-.06.15-.15h.15a2.93,2.93,0,0,1,1.07-1.31l.15-.3h.15l.15-.16v-.15l.16-.08c0-.1.05-.21.07-.31l.15-.07c0-.11.05-.21.08-.31l.15-.08v-.23l.23-.15v-.16l.22-.15a1,1,0,0,1,.08-.15h.15l.08-.15h.08v-.15h.07v-.16c.12-.1.25-.21.38-.3.08-.24.15-.47.22-.7l.16-.08v-.15l.22-.16v-.14l.16-.08.15-.23h.07v-.16l.39-.31v-.15L262,395a1.09,1.09,0,0,0,.08-.15h.16l.22-.32h.07v-.15l.16-.08v-.15L263,394c0-.13.05-.26.07-.38l.15-.08c0-.1.05-.21.08-.31l.15-.08v-.23l.15-.08v-.15l.23-.15v-.16l.15-.07v-.16l.15-.08.46-.54h.15v-.15h.16v-.16a2,2,0,0,1,.69-.16v.16l.16.07a7.71,7.71,0,0,1-.46,1.16,1.83,1.83,0,0,0,.09.92l.15.07-.08.08c0,.15.06.31.08.46h-.15v.15c-.52.15-.82.87-1,1.39v.38h-.07v.31h-.08c0,.11.08,0,.08.07s-.08.16-.08.16v.46h-.07V397l-.16.07v.39h-.08c0,.1-.05.2-.08.3h-.07c0,.18-.05.35-.07.54h-.08v.15h-.07c0,.13,0,.26-.08.38h-.08v.23h-.07v.38h-.07v.15h-.08c-.05.33-.1.66-.14,1h-.08v.16h-.08c0,.1,0,.2-.07.31h-.08v.3l-.15.07c0,.18-.05.36-.07.54h-.08c0,.11-.05.21-.07.31h-.08l-.15.76H262v.15a.8.8,0,0,1-.16.08v.23l-.16.08c0,.1,0,.2-.07.3l-.16.09v.22l-.15.08-.21,1.38H261l-.15.47h-.08v.16h-.08v.23h-.07v.15h-.08v.16l-.16.08c-.07.51-.14,1-.22,1.53v.61h-.08v.14h-.08v.39H260c0,.1-.06.2-.08.3h-.08v.31l-.15.08c0,.1-.05.2-.08.31l-.22.15v.16h-.07l-.3,1.31-.15.08v.15h-.08c0,.08-.1.15-.15.23h-.15c-.06.23-.18.3-.3.46h-.08c0,.12-.05.25-.07.38H258v.53h-.07c0,.11,0,0,.08.08,0,.3,0,.61-.08.92l-.15.08v.38h-.08c0,.07,0,.14.08.22h-.08v.15h-.08c0,.23-.09.46-.14.69h-.08v.15h-.08V417h-.08v.15h-.08v.22l-.16.08v.16h-.08c0,.07,0,.15-.07.23h-.15v.23h-.07c0,.1-.06.21-.08.31h.08v.47h.08c.13.18.33.26.46.45h.69v-.07H258v-.08a.66.66,0,0,1,.3-.16,4.55,4.55,0,0,1,.38-.69c.05-.15.11-.31.15-.46h.08c0-.13.05-.25.08-.38a.69.69,0,0,1,.15-.07v-.16l.22-.08.61-.77c0-.15.05-.31.08-.46h.07v-.46l.16-.07c0-.24.05-.46.08-.7h.07c0-.1,0-.2.08-.31h.07v-.15l.15-.08c0-.12.05-.25.08-.39l.15-.06v-.23H261v-.16h.08c0-.13.05-.25.08-.38h.07v-.24h.08v-.3l.15-.08c0-.1,0-.21.07-.31h.08c.07-.11.15-.21.22-.31H262l.15-.45h.08v-.15l.15-.08v-.3h.08v-.31h.07V410h.08v-.15h.07v-.23l.38-.31a1.55,1.55,0,0,0,.08-.23h.08v-.15l.23-.16v-.15h.08v-.23h.09c0-.1,0-.21.07-.31h.07v-.23h.08v-.15l.15-.08v-.16H264c0-.07-.05-.15-.08-.22l.15-.08v-.23h.08v-.24h.07v-.31h.07v-.23h.08v-.31l.15-.08c.17-.19.47-.42.53-.69h.15a1,1,0,0,1,.23-.39h.08c0-.12.05-.25.08-.38l.37-.3v-.24h.08v-.16h.08v-.15l.15-.08c0-.15.05-.3.07-.45h.08v-.16h.07l.15-.46h.08v-.38h.07v-.15h.08l-.08-.15h.08v-1.07l.23-.16v-.16l.15-.07V400a1.82,1.82,0,0,1,.23-.15v-.16l.15-.08v-.23h.08v-.16l.16-.08a1.09,1.09,0,0,1-.08-.15h.08c0-.12,0-.25.07-.38H268v-.15h.08v-.31h.07v-.23l.16-.07v-.16h.08c0-.15,0-.3.07-.46h.08c0-.1.05-.21.08-.3h.08a2.82,2.82,0,0,1,.07-.31l.15-.09v-.22H269c0-.11.05-.21.07-.31l.23-.15c0-.11.05-.21.07-.31l.23-.15v-.23l.16-.08a2.66,2.66,0,0,1,.07-.39l.22-.15v-.15h.08c0-.21.05-.41.08-.62h.07a1.55,1.55,0,0,0,.07-.23c.22-.09.42-.22.69-.08l.08.15h.16v.08h.07l-.07.07v.46l-.15.08c0,.08.05.16.07.23h-.07v.54h.08v.08h-.08v.92h-.08v.07h.08a.17.17,0,0,1-.08.15.16.16,0,0,0,.08.16,1.55,1.55,0,0,0-.07.23h.07v.07h-.07v.77l-.15.08.08.07c0,.13,0,.26-.08.39h-.07v.22h-.08v.23h-.07v.23h-.08V399h-.08c0,.28-.05.56-.07.84a1.6,1.6,0,0,0-.15.85h.07c0,.08-.07.15-.07.15v.08h.07v.38l.15.08-.07.22a.21.21,0,0,1,.07.24h-.07c0,.15-.05.31-.08.46h-.07v.38h-.07v.15h-.08v1h.07c0,.25,0,.51-.07.76h-.07v.61l-.15.07v.39h-.08c0,.32,0,.67-.06,1h-.08v.07h.08v.08h-.08v.39h-.07c0,.1.05.2.07.3h-.07c0,.11.05.21.07.31a.12.12,0,0,0-.07.15h.07v.15h.08c0,.2.05.4.07.6h-.07l-.15.46-.15.08v.23h-.08c0,.16-.05.31-.07.46h-.08v.38h.08c0,.13-.05.25-.07.38h.07c0,.09-.14.21-.07.38s.21,0,.15.31h-.07v.38h-.08V412h-.08v.24h-.08v.22h-.08v.24h-.08c0,.21,0,.41-.07.62h-.08v.15h-.07v.38h-.07v.31h-.08v.3h.08V415h.08v.07c0,.11-.11,0-.08.08s.1,0,.07.15h-.07v.62h-.08c0,.1-.05.2-.07.31h-.08v.38h-.08v.45h-.08c0,.12.08,0,.08.08s-.07.23-.07.23c0,.19.05.19.07.23s-.05,0-.07.08v.54h-.07v.24h-.08v.31l-.15.07c-.1.62-.2,1.23-.29,1.84h-.08v.24h-.07c0,.11-.05.21-.08.31h-.08a1,1,0,0,0,.16.77,1,1,0,0,1-.07.15l.23.15v.08c.25,0,.51.09.76.15.18-.2.44-.18.62-.32s.08-.28.15-.38l.23-.16c0-.15,0-.3.07-.45l.16-.08v-.31h.07v-.3H270V420H270v-.32h.08v-.22h.08v-.3h-.08v-.07h.08v-.39h.07c0-.15.06-.31.08-.46l.15-.08c0-.12,0-.25.08-.38h.07v-.15h.08c.09-.46.19-.92.29-1.38h.08v-.15h.07v-.23h.08v-.16h.08c0-.12.05-.25.07-.38h.08v-.23h.08c0-.56,0-1.12.06-1.68h.07c0-.12.06-.25.08-.38h.07v-.15h.08v-.31H272v-.16H272v-.22h.08v-.16h.08c0-.13.05-.26.07-.38h.08c0-.15.05-.31.07-.46h.08a2.81,2.81,0,0,1,.08-.31h.07v-.46h.08v-.39h.07v-.31h.07v-.38l.15-.07c0-.16.05-.31.08-.46h.07v-.16h.08c0-.15.05-.3.08-.45h.07v-.16h.08a1.3,1.3,0,0,1,0-.69h.07v-.16h.08l-.08-.07c0-.11.05-.21.08-.31h.07c0-.13-.05-.26-.07-.38h.07c0-.16.05-.31.08-.47h.07v-.15h.08c0-.15,0-.31.07-.46h.08l.14-1.76.15-.08.15-.69h.08c0-.1.05-.21.07-.31h.08c0-.25,0-.51.07-.76h.08v-.15H275v-.23H275c.05-.14,0-.11-.07-.15v-.08H275v-.31h.08v-.15h.08v-.46h.08v-.15h.07v-.46h.08v-.08a.1.1,0,0,1-.08-.14h.08v-.16h.08a.85.85,0,0,1,0-.61h.07v-.24h.08l-.09-1h.08c0-.12.05-.25.08-.39h.15a.62.62,0,0,1,.07-.31H276v-.23h.08v-.23h.08c0-.1.05-.2.07-.31h.08c0-.16,0-.31.08-.47h.07v-.14h.07c0-.08-.05-.16-.07-.23h.08v-.16h.08l.15-.23.62.07a2.81,2.81,0,0,0,.08.31l.15.07c0,.09-.06.16-.08.24h.08v.07h-.08v.08h.07v.23h.08v.84h-.08c0,.13.07.13.08.15.11.49,0,1,.08,1.31v.38l.16.08c0,.13-.05.25-.08.38l.16.08a.2.2,0,0,1-.08.23c0,.41,0,.81-.07,1.22l.16.08a.12.12,0,0,1-.08.15c0,.13.08.15.08.15a2.81,2.81,0,0,1-.08.31H278v.39h.07c0,.07,0,.15-.07.23h.07v.15h.08c.06.18-.08.21-.07.32h.07v.23h.08c0,.15.05.3.08.46h-.07V403h.07v1c0,.11.06,0,.08.08h-.08v.08h.07c.09.33-.16.74-.22.93v.53a.2.2,0,0,0-.08.23h.08V406h.07c0,.16,0,.31-.07.47h.08v.15h.08v.62h.08v.23h.07l-.06,1.38h.07v.3l.15.08v.16l.16.15v.16l.15.06v.16h.08a.11.11,0,0,1-.07.15,2,2,0,0,0,.07.23H279v.14h-.08c0,.2,0,.41-.07.61h-.08v.38h-.07c0,.07.12.2.08.39h-.08v1.15h.08v.46l.15.08v.22H279v.15h.08a1.83,1.83,0,0,1-.15,1.08v1.68H279V417h.08v.07H279c0,.17.08.15.08.15v.38h.07c.05.28.11.55.16.84h-.08l.16.46h-.08v.53h-.08v.77h-.07v.38h-.07v.61h-.08v.61H279v.31h.08c0,.2-.18.6-.07.92h.08a2.7,2.7,0,0,0,.08.39h.07l.23.3.77.07a1.17,1.17,0,0,1,.46-.31c0-.21.18-.37.22-.54s-.05-.3-.08-.45h-.08c0-.11.06,0,.08-.08v-.84h.08v-.31H281l-.07-.08v-.07H281v-.31h.08c0-.1.05-.21.07-.31h.08v-.31h.07v-.07h-.07v-1h.08c0-.23,0-.46.07-.69h.08a1.55,1.55,0,0,1-.08-.23h.07v-.46h.08a1.09,1.09,0,0,1-.08-.15h.08v-.08h-.08v-.46h-.08v-.38h-.08a1.09,1.09,0,0,1,.08-.15h-.08v-.85a2,2,0,0,1-.08-.91h.08c0-.26,0-.52.07-.77h.07c0-.1.05-.21.08-.31h.07v-.15l.16-.08v-.15h.07c0-.18.05-.36.07-.54h.08v-.23H282c0-.12-.15-.45-.08-.69H282v-1.23h-.08c0-.38-.06-.76-.08-1.14h.08v-.54H282v-.69H282v-.69h.07v-.47h.07a.71.71,0,0,0-.08-.15c-.06-.7.08-1.39,0-1.7s-.06-.51-.08-.76l-.16-.07c-.13-.3.1-.63.15-.77v-.39h.08V403h.08v-.31h.08v-.15h.08l-.08-.08.15-1.15h.07c.07-.25-.11-.36-.08-.54h.08c0-.24-.34-.71-.16-1.08l.15-.07v-.16l.3-.23-.08-.07.15-.54h.08c0-.1-.13-.24-.08-.46a.17.17,0,0,0,.07-.22h-.07v-.23h-.07a1.12,1.12,0,0,1,.07-.53h-.07v-.61c0-.1-.09,0-.07-.07h.07v-.07h-.07v-.54h-.07c0-.51-.14-1,.29-1.07v-.08l.39.07v-.07a2.27,2.27,0,0,1,1,.07c0,.24.09.21,0,.46h-.07c0,.07.05.15.08.23l-.16.07c0,.06.05.11.08.16,0,.31.06.61.08.92h.08v.15h.08v.3h.08c.06.23-.07.36-.07.53s.05.46.08.69h-.08v.31h.08v.23h.07c0,.1.06.2.08.3h.08v.38l.16.08c0,.13.05.25.08.38H285v.15l.15.08v.15h.07v.16h.08v.22h.08v.15h.08c0,.25.05.51.08.76h.07a2.09,2.09,0,0,1,.08.23h-.08v.54h.07v.3h.08v.15h.07v.46H286v.15h.08v.46h.08v.46h-.07c0,.35.05.71.08,1.07h.08c0,.1,0,.2.07.3l.16.08c0,.1.05.2.08.31l.15.07v.16l.23.14v.16l.15.08v.46h.08v.15h.07l.09.69h.08v.16h.08c0,.13.06.25.08.38l.15.08V409h.07v.23h.08v.46h.08c0,.23.05.46.08.69h.08v.23h.07v.31h.07V411h.07c0,.13.06.25.08.38h.08v.53h.08v.16h.07c.09.46.16.92.24,1.38h-.07c0,.46-.05.92-.07,1.37h.08v.46h.08c0,.1.05.2.07.3h.08a1.09,1.09,0,0,1-.08.15h.08V416h.07v.38l.15.07.16.46.15.07v.16l.39.3v.16h.07v.53l.16.08c0,.13-.05.26-.07.38h.08c.16.58-.18,1.16,0,1.76h.08v.54h.07v.22h.08v.24h.08l.08.31h.07v.23l.16.08c0,.1.05.2.08.31h.15a1.09,1.09,0,0,1,.08.15l.92.07v-.07c.19-.06.12,0,.23-.16h.07v-.15l.16-.08a5.54,5.54,0,0,0,.06-1.38v-.46h-.08v-.69h-.08V419h-.08v-.31h-.08v-.23h-.07v-.23h-.08V418h-.08l.06-1.6h-.07v-.31H292v-.15h-.08v-.15l-.23-.16c0-.13-.06-.25-.08-.38h-.08a.12.12,0,0,1,.08-.15c0-.16-.08-.16-.08-.16,0-.15.05-.3.07-.46h-.08v-.69h-.08v-.3h-.07v-.3h-.08v-.24h-.08l0-3.3h-.07v-.31l-.16-.07v-.15h-.07c0-.08-.05-.16-.08-.23h-.16c-.05-.23-.25-.42-.16-.77a2.53,2.53,0,0,0,.15-1.3c-.16-.54-.23-1.29-.4-1.84v-.54h-.08v-.31h-.07V404h.07c0-.51.05-1,.07-1.53h-.08V402H290v-.61H290v-.61h-.08c0-.31-.06-.62-.08-.92l-.15-.07c0-.16-.06-.31-.08-.47l-.16-.07v-.15l-.16-.08v-.15h-.08c0-.15,0-.3.08-.46h-.08v-.09h.08c0-.17-.08-.15-.08-.15v-.92h-.08v-.07h.08c0-.23.09-.46.15-.7h-.08l.07-.22a.15.15,0,0,1-.08-.16h.08v-.54h-.08v-.31h-.08c0-.09.14-.2.07-.38h-.08v-.16h-.08a1.12,1.12,0,0,0,.07-.53h-.07c0-.13-.06-.26-.08-.39s.07-.09.15-.15v-.07c.46.11.25.44.47.76s.3.13.38.45a.84.84,0,0,1,.38.23v.07h.16c.05,0,.06.11.15.16l.24.69v.46H291v.23h.07v.15h.08v.3l.15.08v.23h.08c0,.17.05.35.08.53l.23.16c0,.13.05.25.08.38h.07l.08.31H292v.15h.08v.24c.08,0,.15.1.23.15l.16.45.15.08V400c.08.06.16.1.23.16v.15l.22.15c0,.28.06.56.09.84l.15.08c.08.25.16.51.23.76l.16.08c0,.1.05.21.08.31l.38.3v.15l.23.16c0,.09,0,.2.07.3l.31.23v.15l.39.22c0,.16.05.32.08.46h.08v.16h.07V405h.07l-.07.15h.07c.06.16.11.31.16.47h.07v.22a1.82,1.82,0,0,0,.23.15c0,.11.05.21.08.31h.07l.16.46h.08c0,.18,0,.35.08.54l.15.08c0,.18.05.35.08.53l.16.07v.38H297a2.32,2.32,0,0,0,.31.54c0,.1.06.2.08.3l.15.08v.38h.07c0,.16.06.31.08.46h.08v.15h.08c0,.15.05.31.08.46l.23.15V411l.15.08v.16l.15.07v.23c.1.08.21.15.3.23s.11.31.16.46l.15.07v.24l.15.07a1.45,1.45,0,0,1-.07.77c0,.25.05.51.08.76l.16.08v.15c.13.25.23.45.54.53a.64.64,0,0,0,.15.31h.08v.15l.16.08v.15h.07c0,.1-.05.21-.07.31h.08v.15h.07v.23h.08v.15h.08v.23l.15.07v.15l.16.08v.16l.46.38v.08h-.07c0,.13.05.25.07.38a.12.12,0,0,0-.07.15h.07v.15h.08v.38h.07a2.25,2.25,0,0,0,.24.3v.08c.17.1.4-.05.61.14l.23-.07v-.08h.24V419l.22-.15c.05-.23.08-.37.15-.62h.08c0-.13-.07-.13-.08-.15v-.77h-.08v-.39h-.08v-.23H303v-.22h-.07v-.31l-.15-.08v-.23l-.23-.15c0-.07-.05-.15-.08-.23l-.15-.07c0-.1-.05-.21-.08-.31h-.08c0-.14.19-.62.07-1a4.17,4.17,0,0,1-.39-1h-.16c-.09-.44-.39-.73-.46-1.14a2.09,2.09,0,0,1,.08-.23h-.08v-.38l-.16-.08V411H301c0-.23-.05-.46-.07-.69h-.08c0-.13-.06-.25-.08-.38h-.08c0-.11-.05-.21-.08-.31h-.08v-.23h-.08v-.15l-.23-.15V409l-.23-.15v-.15l-.15-.08c.05-.46.09-.92.14-1.38h-.08V407h-.07v-.23h-.07c-.11-.14-.18-.17-.23-.37a1.33,1.33,0,0,1-.78-.69c-.1-.15.1-.45,0-.77h-.08v-.38h-.08c0-.16.11-.23.08-.31l-.16-.07v-.31h-.08v-.38h-.07v-.08h.07v-.07l-.23-.16v-.22h-.08c0-.24-.05-.47-.08-.69h-.08c0-.16-.05-.31-.07-.46h-.08c0-.11.05-.21.08-.32a.46.46,0,0,1-.16-.07v-.68h-.08v-.16c0-.1.11,0,.07-.07l-.16-.08v-.3l-.15-.08c0-.1-.05-.2-.07-.31h-.08a.54.54,0,0,1-.16-.3h-.15a2.09,2.09,0,0,0-.08-.23h-.08V399h-.08c0-.22-.05-.45-.07-.68l-.16-.08V398h-.08v-.15h-.07l.06-1c0-.11.1,0,.08-.08h-.08v-.23h-.07l.07-.08c0-.12-.05-.25-.08-.38h-.07v-.3h-.07v-.31H296v-.31H296V395h-.08c0-.12-.05-.26-.08-.38l-.23-.15v-.16l-.23-.15c0-.1,0-.2-.08-.31h-.08v-.31h-.07v-.15H295V393H295v-.47l-.15-.07v-.31h-.08V392h-.08a2.38,2.38,0,0,1-.15-.84c.15-.05.06,0,.15-.08H295c.09,0,0,.22.08.3l.15.08c0,.1.06.21.08.31h.08a.91.91,0,0,1,.23.46c.28.05.34.18.54.3v.15a1.32,1.32,0,0,1,.54.38l.08.15h.15v.08h.16v.08h.15v.08h.23l.15.23.16.07v.38h.08v.23H298v.24l.15.07v.15h.08V395l.23.15v.16h.08l.15.21h.15l.47.39V396h.08v.16h.07v.3h.07l.16.46.15.07v.16h.08c0,.15.05.3.08.46l.15.07v.16h.08V398h.08v.15h.08v.15l.15.16v.15l.16.07.15.23.23.08.08.15h.23l.54.45v.16l.31.23c0,.1.05.2.07.3l.32.23v.15l.23.15V401H303v.15h.16c.17.23.36.45.54.68h.07V402l.15.08v.16H304v.23h.08v.15h.07c0,.23.05.46.08.69l.16.07v.23h.07l.16.46.15.08v.16a2.49,2.49,0,0,0,.92.6c.09.35.32.33.54.53l.39.46.15.08v.15c.23.21.47.4.69.61v.15h.07a2.17,2.17,0,0,1,.16.84h-.07v.08l.16.08c.05.15.11.3.15.46l.16.07v.3l.39.31v.15c.08.05.15.11.23.15v.16l.15.08.24.3h.15l.08.15.69.22c0,.11.05.21.07.31l.16.08c.17.25,0,.36.38.46a3.67,3.67,0,0,0,.78,1l.15.08v.15l.16.08v.15h.08c0,.1,0,.2.07.3h.08v.24l.15.07v.15c0,.05.1.06.15.16.49,0,.87.18,1.15-.16h.08v-.24h.08v-.16h.08v-.23h.07a1,1,0,0,1-.07-.15s.09,0,.07-.16h-.07V412l-.15-.07v-.16h-.08v-.23h-.08v-.15h-.07v-.15l-.16-.08a1.83,1.83,0,0,1-.24-.53h-.15c-.1-.33-.18-.2-.38-.38l-.16-.23H312v-.08l-.24-.15v-.15l-.15-.08c0-.09-.05-.2-.08-.3l-.15-.07c0-.1-.05-.21-.08-.31h-.08l-.15-.46H311V408l-.15-.08v-.15h-.08v-.38h-.07v-.15l-.16-.07c0-.1,0-.21-.08-.31l-.15-.07a1.11,1.11,0,0,1-.31-.61c-.15,0-.06,0-.15-.08h-.08c0-.18-.05-.36-.08-.54h-.08v-.15l-.15-.08V405l-.15-.07v-.31h-.08c0-.1-.05-.21-.08-.31h-.07v-.15l-.24-.15c-.07-.23-.15-.46-.23-.69h-.07c-.11-.14-.19-.18-.24-.38h-.15a2.41,2.41,0,0,0-.23-.62h-.08v-.15l-.16-.08v-.15l-.16-.08c-.07-.23-.15-.46-.22-.69l-.31-.22v-.15l-.15-.08c-.1-.13-.2-.26-.31-.38h-.15v-.08l-.23-.15V400l-.16-.08c0-.25-.06-.51-.08-.76h-.07V399h-.07v-.23h-.08v-.23l-.16-.07v-.31l-.15-.07v-.23h-.08c0-.11-.06-.21-.08-.31h-.08v-.23l-.15-.08a2.37,2.37,0,0,1-.39-.92h-.15a1,1,0,0,0-.24-.46h-.07v-.16l-.15-.07v-.16l-.15-.07v-.15a1.88,1.88,0,0,0-.23-.16v-.23l-.39-1.37-.39-.31V393l-.15-.08v-.15l-.16-.08a2,2,0,0,0-.07-.23h-.08c0-.07-.05-.14-.08-.22-.4-.11-.45-.45-.7-.7l-.54-.44v-.16l-.3-.23v-.15l-.16-.08v-.3c0-.09-.18,0-.15-.23a.2.2,0,0,0,.07-.23h-.08c-.07-.23-.15-.46-.23-.69-.08,0-.15-.11-.23-.15v-.3l-.23-.16v-.16h-.08c-.07-.08-.06-.14-.16-.22s.05-.31.08-.46l.53-.08v.15l.31.23V388l.31.23v.08h.15a.71.71,0,0,1,.08.15l.31.07.16.24.3.06c.06.08.11.16.16.24H302v.07l.31.07v.08c.27.1.48,0,.69.15s.12,0,.23.15h.07v.15h.07v.3h.07v.15l.15.08v.15l.15.08.31.38h.15a1.09,1.09,0,0,1,.08.15h.15v.07h.22l.16.24H305v.07l.23.15v.15l.15.08c.22.32.28.64.62.84v.16h.15a1.55,1.55,0,0,1,.08.23,1.88,1.88,0,0,1,.23.16v.14l.46.39a.71.71,0,0,1,.08.15l.31.08s0,.09.08.14l.38.08v.08h.3a1.19,1.19,0,0,1,.08.16h.16l.31.38h.15l.23.3h.08l.08.23h.15v.15a3.66,3.66,0,0,1,1.23.83h.08v.22h.15c.06.23.09.26.31.31.06.21.11.17.16.38h.15a2.37,2.37,0,0,0,.39.83v.16s.39.23.46.3l.31.39h.38V399h.16v.08h.15c0,.06,0,.11.08.16h.15c.06.07.1.15.16.22h.15a.8.8,0,0,1,.08.16l.31.07c.19.11.26.25.53.3.1.31,0,.1.24.23v.08h.15l.08.15.38.3c.11.16,0,.34.09.53a.71.71,0,0,0,.15.08c.05.16.1.31.16.46l.3.24v.15l.93.83h.15v.08h.15c0,.05.05.1.08.16h.39v.07h.23v.08h.23a1.55,1.55,0,0,0,.08.23l.22.08v.08a.68.68,0,0,0,.32.15v.15a1.09,1.09,0,0,1,.47.3v.08l.46.15.38.46.16.07v.15a1.91,1.91,0,0,0,.93.77.56.56,0,0,0,.68-.09c.31-.09.16-.15.39-.31a2.53,2.53,0,0,0,0-.91,4.32,4.32,0,0,0-1.16-1.38l-.24-.3h-.15a.8.8,0,0,0-.08-.16h-.15v-.08h-.31a3.7,3.7,0,0,1-.46-.31v-.15l-.15-.08v-.15l-.31-.23v-.15a1.94,1.94,0,0,0-.24-.15,2.82,2.82,0,0,0-.07-.31l-.15-.07v-.16l-.15-.07a1.55,1.55,0,0,0-.08-.23h-.07v-.23a1.6,1.6,0,0,0-.7-.61v-.15c-.26-.07-.2-.16-.46-.23v-.15h-.16c0-.17,0-.2-.07-.31h-.08V399l-.16-.07v-.15l-.15-.09v-.22h-.08v-.16l-.23-.15V398l-.46-.38v-.16H316a1.57,1.57,0,0,0-.46-.61l-.16-.08v-.15l-.69-.61v-.15l-.31-.23v-.15a1.88,1.88,0,0,1-.23-.16c-.28-.27-.49-.65-.93-.75v-.16H313v-.08c-.31-.08-.4-.27-.54-.52h-.08s.05-.1.08-.16l-.15-.07v-.24l-.15-.07V393l-.16-.08-.15-.45c-.08-.06-.16-.1-.23-.16v-.15l-.32-.23v-.15a3.4,3.4,0,0,0-.3-.23v-.16h-.16c-.15-.54-.93-1-1.31-1.36a2.6,2.6,0,0,1-.46-.69h-.08c0-.18-.05-.36-.07-.53l-.16-.07v-.16l-.23-.15-.55-.62h-.14l-.31-.39c-.23-.15-.31-.11-.47-.37h-.23v-.16a1.51,1.51,0,0,1-.62-.38l-.07-.15-.23-.07-.16-.23h-.15V386l-.31-.23c0-.16-.06-.3-.08-.46h-.07l-.16-.46-.39-.31c-.16-.22-.12-.3-.38-.45v-.16H304v-.16h-.15v-.15c-.15,0-.07,0-.16-.08h-.08a.67.67,0,0,0,.08-.38l.23-.07V383h.15V383l.69.22.08.16h.23v.08h.16l.07.15h.16v.08h.22v.07l.31.08v.07l.3.08V384l.23.08.16.23h.23c.1.12.2.25.31.37h.15a.8.8,0,0,0,.08.16h.15a1,1,0,0,1,.07.15H308l.08.16h.31v.07l.38.08v.08c.21.05.17,0,.23.22a.59.59,0,0,1,.39.16v.07l.31.08.16.22H310l.08.15h.15v.07h.31v.08l.31.07v.08l.54.07a3.4,3.4,0,0,0,.23.3h.07v.16l.23.15v.16l.23.07c0,.05.05.1.07.16a3.25,3.25,0,0,0,1.54.44v.15l.39.31v.16l.23.15c0,.07.05.15.08.22h.15l.07.15.39.08.08.15h.3v.07c.31.09.5-.16.77,0l.16.3h.23c0,.06.05.11.07.16h.08l.08.15H317a3.55,3.55,0,0,1,.23.31,2.66,2.66,0,0,1,.39.07,1.09,1.09,0,0,0,.08.15h.22v.07l.31.08v.08h.23l.08.15h.15v.09h.16v.07l.38.07v.07l.23.08c0,.05.05.11.08.16h.23l.23.3h.08V392l.23.15.08.24h.15c.06.07.11.15.16.22h.15c0,.06.05.11.08.16h.23v.08h.24v.07l.23-.07v.07l.54.15c0,.08.05.15.07.23l.16.08v.15l.15.08v.15l.39.3v.08h.23a1.09,1.09,0,0,0,.08.15h.15v.08l.69.22.08.15h.31v.07h.15v.08l.61.07v.08l.46.14v.16c.66.15.95.86,1.54,1v.16c.56.07,1.22,1,1.76.83l.53-.39c.06-.24.24-.48.16-.62V396l-.15-.08v-.16h-.08v-.15a1.94,1.94,0,0,0-.24-.15v-.08h-.15l-.07-.15-.31-.08-.07-.15h-.16V395l-.23-.08a1.09,1.09,0,0,0-.08-.15H328v-.08c-.08-.05-.15-.11-.23-.15v-.15l-.16-.09v-.14l-.16-.15h-.15l-.23-.31h-.15l-.08-.15h-.15l-.08-.15-.54-.15-.38-.45-.16-.08-.08-.31-.3-.23-.08-.23h-.23v-.08h-.15v-.08h-.16l-.08-.16-.61-.07v-.08l-.38-.07a1.19,1.19,0,0,1-.08-.16h-.16l-.3-.38h-.16a3.55,3.55,0,0,0-.23-.31h-.15l-.16-.23h-.15l-.23-.3-.24-.07a.77.77,0,0,0-.07-.16h-.15a1.09,1.09,0,0,1-.08-.15l-.31-.23v-.15l-.23-.15V389h-.08l-.23-.3h-.15l-.16-.23H320s-.05-.1-.08-.15h-.15l-.31-.38h-.15l-.08-.15h-.15l-.09-.15h-.15s-.05-.1-.15-.16v-.15l-.23-.08v-.07h-.15l-.09-.15H318a1.88,1.88,0,0,0-.16-.23h-.15v-.08l-.23-.07a1.19,1.19,0,0,0-.08-.16h-.15l-.08-.15-.46-.38v-.15c-.39-.11-.23-.29-.46-.45h-.16l-.07-.16h-.16l-.15-.23h-.15l-.16-.15-.31-.07-.3-.38h-.16v-.08c-.21-.13-.14.07-.23-.22h-.15a4.14,4.14,0,0,0-.31-.46h-.16l-.07-.15h-.15l-.16-.23a1.48,1.48,0,0,1-.31-.15h-.23l-.07-.15-.16-.08-.23-.07v-.15a1.1,1.1,0,0,1-.54-.31v-.08l-.23-.08V382h-.15c-.09-.3-.23-.24-.32-.53H311c-.09-.34-.19-.21-.38-.38a1.5,1.5,0,0,1-.15-.23h-.16l-.15-.23a4.26,4.26,0,0,0-.47-.15,1.19,1.19,0,0,0-.08-.16l-.3-.07-.77-.46v-.15c-.54-.11-.66-.6-1-.91s-.38-.14-.46-.46c-.09-.09,0,0-.09-.15.17-.13.05-.16.31-.24v-.07l.08.08h.3l.08.15H308c.42.18,1.19.55,1.61.08H310l.39.46h.08l.07.15h.16l.15.23H311l.22.08v.08h.16l.54.08v.07h.15v.08h.46v.07l.46.08v.08h.23v.07h.23v.08h.23v.07h.38a1.09,1.09,0,0,1,.08.15h.31V380h.15V380h.23v.08l.3.07v.08h.38v.08h.31v.07h.23v.08h.46v.08h.16v.08l.38.07a1,1,0,0,0,.08.15l.54.08V381h.23v.08l.31.07v.08h.39a1,1,0,0,0,.07.15H319v.08h.15v.08h.15a1.09,1.09,0,0,1,.08.15h.23a1.88,1.88,0,0,1,.16.23h.15l.08.15h.16v.08l1.68.29.08.15h.23l.07.15h.24v.07h.15v.08h.16a.91.91,0,0,0,.07.14h.23v.07l2,.14v.08h.23v.08h.15v.07h.38s.05.11.08.16l.31.07.07.16h.23a1.09,1.09,0,0,1,.08.15h.15a1,1,0,0,0,.08.15H327v.08h.38l.08.14h.38v.08c.16.07.45.12.54.22v.15h.07l.16.23.23.08v.15a2.23,2.23,0,0,1,.62.23l.07-.08.39.08v.07h.61v.07H331v.08h.53v.08h.31v.08h.39V386l.46.15v.08H333v.08h.15a1.09,1.09,0,0,0,.08.15h.15l.08.16h.15l.16.23a1.59,1.59,0,0,0,.92.07v-.07c.28-.09.25-.25.45-.39v-.31h.08c0-.13-.08-.15-.08-.15,0-.19,0-.2.07-.31-.23-.15,0-.08-.15-.23l-.15-.07v-.08a3.62,3.62,0,0,0-.85-.38v-.15l-.46-.07-.08-.16h-.15v-.07h-.15l-.07-.15H333v-.16H333c0-.07-.11-.15-.15-.22h-.16l-.07-.15-.31-.09a1,1,0,0,1-.08-.15l-.53-.07v-.07h-.31v-.08H331v-.08h-.3v-.08h-.16v-.07h-.23l-.16-.23-.45-.07v-.08h-.15v-.07l-.77-.23v-.08l-.3-.07v-.08h-.23v-.08h-.16V382H328l-.39-.47h-.15l-.08-.15-.31-.08a1.09,1.09,0,0,0-.08-.15l-1.3-.3v-.08h-.15l-.47-.54-.45-.15v-.07l-.24-.08a1.09,1.09,0,0,0-.08-.15l-.53-.07v-.08l-.3-.07v-.08h-.23v-.08l-.31-.07v-.08l-.69-.07c-.23-.09-.26-.27-.61-.3a1.53,1.53,0,0,0-.39-.61h-.15l-.08-.15-.31-.07a.8.8,0,0,0-.08-.16h-.15v-.08h-.15v-.07l-.23-.08v-.15a2,2,0,0,1-.61-.22v-.08h-.15v-.08h-.16v-.08h-.3l-.16-.23h-.23v-.08l-.31-.07v-.08h-1.37a1.09,1.09,0,0,1-.08-.15h-.16l-.15-.23h-.15a1.19,1.19,0,0,1-.08-.16H316a1.09,1.09,0,0,1-.08-.15h-.16v-.08h-.15a1.46,1.46,0,0,0-.38-.14v-.08h-.15a1,1,0,0,1-.07-.15l-.23-.08h-.24v-.08h-.3c0-.05,0-.11-.08-.16H314v-.07h-.16a3.79,3.79,0,0,0-.54-.14,1.11,1.11,0,0,0-.07-.16H313v-.07h-.16v-.08h-.15c0-.05-.05-.1-.08-.16l-.3-.07a.71.71,0,0,1-.08-.15l-.46-.15-.16-.23h-.15l-.08-.16-.38-.07v-.08h-.16a1,1,0,0,0-.07-.15h-.23l-.08-.15-.46-.08-.77-.45a1.5,1.5,0,0,1,.3-.92c.26.06.51.15.77.22v.08h.23c0,.05.05.1.08.16h.61a2.49,2.49,0,0,0,.46,0v.08a.94.94,0,0,1,.3,0h.77l.46-.08s.56.12.84.15v.08l.3.07v.08l.23.07.69.07v.08h.3V373l.23-.09V373H316v.07h.31v.08l.61-.08V373c.1,0,.13.14.31.07a1.11,1.11,0,0,1,.07-.16l.61-.07v.08h.24V373l.31.09v.07h.38v.07h.39v.09l.39-.09v.08a1.46,1.46,0,0,1,.46-.08v.08h.08v-.08h.76v.08h.16v.08h.3v.07h.22v.08h.46v.08h.68v.07h.16v.08l.15-.08,1.76-.09v.08H325a1.09,1.09,0,0,0,.08.15h.15v.08l.31.07V374h.31v.08h.23v.08h.08v-.08c.14,0,.16.08.16.08.25,0,.5-.06.76-.09V374l.38-.09V374l.54.08v.08h.15v.07l.62.08v.07H329v.07l.53.08v.07h.23v.08a4.91,4.91,0,0,0,1.38,0v-.08c.49-.13,1.08.27,1.38.37h1s0-.1.15-.08v.08h.46V375l.31.07v.09h.23v.08h.54v.08h.31v.07h.3v.08l.31-.08v.08h.15v.07h.16v.08h.3v.07H337v.08h.16v.08h.14v.08l.38-.08c.11,0,0,.08.08.07v-.08c.28,0,.33-.13.53-.22s.16-.46.23-.69h-.08v-.39l-.23-.08c-.09-.3-.13-.13-.31-.3a3.55,3.55,0,0,1-.23-.31h-.15a.8.8,0,0,1-.08-.16,5,5,0,0,1-.54-.07v-.07h-.31v-.08l-.76-.07v-.08h-.3v-.08h-1l-.08-.15h-.15a1.09,1.09,0,0,0-.08-.15l-.38-.07v-.08h-.15v-.07h-.23v-.08h-.24v-.08h-.3v-.08h-.46v-.08h-.15v-.08H332v-.08h-.16v-.08h-.22v-.07l-.31-.08V372l-.54-.07v-.08l-1.53-.06v-.07H329v-.08l-.38-.08c0-.05-.05-.11-.08-.15l-.23.07v-.07l-.31-.07v-.09h-.22v-.07h-.16v-.08l-.46-.07-.08-.15h-.31v-.09h-.15v-.08l-.07.07-.39-.06v-.08h-.45v-.08l-.46-.06c0-.06,0-.11-.08-.16l-.61-.07v-.08h-.15v-.08h-.22V370l-1.45-.15v-.07h-.14v-.08h-.23v-.08l-.31-.08v-.08l-.46-.07v-.08h-.46l-.85-.06v-.08l-.15.08v-.08l-.53-.07V369h-.15V369h-.23c0-.05-.05-.11-.08-.16l-.46-.07v-.08h-.38v-.07h-.23v-.08l-.54-.07h-.15v-.08l-.31-.07h-.23v-.08h-.38v-.08l-.3-.06h-.31V368l-1-.07-.31-.08v.08l-.92-.07-.23-.07-.08-.15a1.08,1.08,0,0,1-.23-.16l-.46-.07v-.08h-.15l-.08-.16-.08.08-.46-.16V367c-.4-.19-1.72,0-1.46-.83h.08V366s.11-.07.14-.16l1.46-.09v-.07h.39v-.08l1.23,0h.54v-.07h.3v-.08l.31.08v-.08H315v-.07l2.22,0v-.08h.46v-.07h.61Z" transform="translate(-220.31 -302.98)"/><path class="cls-2" d="M329.54,363.37A12.41,12.41,0,0,0,317.18,351H243a12.39,12.39,0,0,0-12.36,12.35h0A12.4,12.4,0,0,0,243,375.75h74.2a12.43,12.43,0,0,0,12.36-12.39Z" transform="translate(-220.31 -302.98)"/><path class="cls-3" d="M243,349.56a13.83,13.83,0,0,0,0,27.65h74.2a13.83,13.83,0,0,0,0-27.65Zm-10.91,13.8A10.93,10.93,0,0,1,243,352.46h74.2a10.92,10.92,0,0,1,0,21.84H243A10.94,10.94,0,0,1,232.07,363.36Z" transform="translate(-220.31 -302.98)"/><path class="cls-3" d="M249.53,362.43c-2.65-.75-3.47-.89-3.47-1.8,0-.62.67-1.18,2-1.19,1.1,0,2,.53,2.08,1.57h2.42c0-2.4-2.14-3.77-4.55-3.77-1.91,0-4.43,1.11-4.43,3.37s1.9,2.87,3.68,3.41,3.21.65,3.21,1.89c0,1-1.16,1.27-2.21,1.27s-2.41-.65-2.41-1.84h-2.47c0,2.67,2.26,4.17,4.81,4.17,3,0,4.82-1.55,4.82-3.76S250.66,362.75,249.53,362.43Z" transform="translate(-220.31 -302.98)"/><polygon class="cls-3" points="88.28 54.77 88.28 57.02 91.53 57.02 91.53 65.95 94.18 65.95 94.18 57.02 97.44 57.02 97.44 54.77 88.28 54.77"/><path class="cls-3" d="M303.28,364.63a2.12,2.12,0,0,1-2.22,2.38v0a2.14,2.14,0,0,1-2.22-2.4v-6.88h-2.55v6.94a4.78,4.78,0,0,0,9.55,0v-6.94h-2.55Z" transform="translate(-220.31 -302.98)"/><path class="cls-3" d="M263.1,364.63a2.12,2.12,0,0,1-2.22,2.38v0a2.14,2.14,0,0,1-2.23-2.4v-6.88H256.1v6.94a4.78,4.78,0,0,0,9.55,0v-6.94H263.1Z" transform="translate(-220.31 -302.98)"/><path class="cls-3" d="M288,366.92c-1.5,0-2.89-1.28-2.89-3.56s1.17-3.6,2.77-3.6a2.58,2.58,0,0,1,2.7,1.91h2.6a5,5,0,0,0-5.23-4.39c-3.43,0-5.45,2.34-5.45,6.09s2.48,6.11,5.57,6.11a5.14,5.14,0,0,0,5.14-4.68H290.6A2.49,2.49,0,0,1,288,366.92Z" transform="translate(-220.31 -302.98)"/><polygon class="cls-3" points="56.48 61.53 51.62 54.77 51.59 54.77 50.44 54.77 49.1 54.77 49.1 65.96 51.59 65.95 51.59 59.18 56.45 65.96 56.49 65.95 57.5 65.95 58.97 65.96 58.97 54.77 56.48 54.77 56.48 61.53"/></svg>