<svg xmlns="http://www.w3.org/2000/svg" width="116" height="24" viewBox="0 0 116 24">
  <defs>
    <style>
      .cls-1 {
        fill: #fff;
        fill-rule: evenodd;
      }
    </style>
  </defs>
  <path id="nav-lineup_sp.svg" class="cls-1" d="M108.407,328.7v21.338h9.533v-3.071h-6.27V328.7h-3.263Zm15.168,0v21.338h3.263V328.7h-3.263Zm14.207,21.338V335.131l15.483,16.22V328.7H150v14.78l-15.483-16.219v22.777h3.263ZM172.723,328.7H160.95v21.338h11.773v-3.071h-8.51V340.25h8.254v-3.071h-8.254v-5.407h8.51V328.7Zm16.8,0v13.724a7.9,7.9,0,0,0,1.983,5.535,8.267,8.267,0,0,0,11.837,0,7.9,7.9,0,0,0,1.983-5.535V328.7h-3.263v12.86a7.453,7.453,0,0,1-.672,3.679,4.667,4.667,0,0,1-7.933,0,7.453,7.453,0,0,1-.672-3.679V328.7h-3.263Zm23.487,0v21.338h3.263v-8.67h1.472a7.7,7.7,0,0,0,5.215-1.663,5.978,5.978,0,0,0,2.079-4.671,6.176,6.176,0,0,0-2.655-5.182,8.338,8.338,0,0,0-4.671-1.152h-4.7Zm3.263,3.007h1.44c3.711,0,4.191,2.112,4.191,3.295,0,1.984-1.344,3.359-4.159,3.359h-1.472v-6.654Z" transform="translate(-108.406 -327.25)"/>
</svg>
