<svg xmlns="http://www.w3.org/2000/svg" width="96" height="12" viewBox="0 0 96 12">
  <defs>
    <style>
      .cls-1 {
        fill: #1147b4;
        fill-rule: evenodd;
      }
    </style>
  </defs>
  <path id="AD_GALLERY" data-name="AD GALLERY" class="cls-1" d="M674.517,45.039h1.76l-5.055-11.293-5.31,11.293h1.759l1.168-2.575H673.4Zm-5.006-4.111,1.647-3.615,1.584,3.615h-3.231ZM678.9,34.37V45.039h2.207a6.121,6.121,0,0,0,3.9-1.024,5.087,5.087,0,0,0,2.144-4.3,5.281,5.281,0,0,0-2.048-4.3,6.212,6.212,0,0,0-3.967-1.04H678.9Zm1.632,1.535h0.7a4.782,4.782,0,0,1,2.848.736,3.8,3.8,0,0,1,1.439,3.071,3.764,3.764,0,0,1-1.455,3.039,4.622,4.622,0,0,1-2.832.752h-0.7v-7.6Zm20.478,5.087h2.656a2.86,2.86,0,0,1-.9,1.807,3.207,3.207,0,0,1-2.384.944,3.466,3.466,0,0,1-2.671-1.072,4.43,4.43,0,0,1,.032-5.886,3.85,3.85,0,0,1,2.815-1.1,3.6,3.6,0,0,1,1.888.464,4.333,4.333,0,0,1,1.311,1.216l1.3-.912a4.855,4.855,0,0,0-1.727-1.6,5.775,5.775,0,0,0-2.784-.672,5.679,5.679,0,0,0-3.982,9.613,4.647,4.647,0,0,0,3.631,1.455,4.986,4.986,0,0,0,3.63-1.36,5.823,5.823,0,0,0,1.584-4.319v-0.08h-4.4v1.5Zm15.12,4.047h1.759l-5.055-11.293-5.31,11.293h1.759l1.168-2.575h4.559Zm-5.007-4.111,1.647-3.615,1.584,3.615h-3.231Zm9.392-6.558V45.039h4.767V43.5H722.15V34.37h-1.632Zm7.584,0V45.039h4.767V43.5h-3.135V34.37H728.1Zm13.471,0h-5.887V45.039h5.887V43.5h-4.255V40.144h4.127V38.609h-4.127v-2.7h4.255V34.37Zm3.393,0V45.039H746.6V40.672h0.288l3.055,4.367h1.967l-3.327-4.559a2.926,2.926,0,0,0,2.368-2.975,2.976,2.976,0,0,0-1.264-2.511,4.778,4.778,0,0,0-2.815-.624h-1.9Zm1.632,1.5h0.56c0.8,0,2.223.144,2.223,1.648,0,1.7-1.823,1.743-2.271,1.743H746.6V35.874Zm10.416,9.165h1.631V40.432l3.5-6.062h-1.855l-2.464,4.271-2.463-4.271h-1.855l3.5,6.062v4.607Z" transform="translate(-665.906 -33.75)"/>
</svg>
