<?xml version="1.0" encoding="utf-8"?>
<!-- Generator: Adobe Illustrator 26.0.3, SVG Export Plug-In . SVG Version: 6.00 Build 0)  -->
<svg version="1.1" id="lead-product.svg" xmlns="http://www.w3.org/2000/svg" xmlns:xlink="http://www.w3.org/1999/xlink" x="0px"
	 y="0px" viewBox="0 0 403.5 49.4" style="enable-background:new 0 0 403.5 49.4;" xml:space="preserve">
<style type="text/css">
	.st0{enable-background:new    ;}
	.st1{fill:#1147B4;}
</style>
<g class="st0">
	<path d="M5.2,8.9c-0.2,1.3-0.5,2.5-0.9,3.5c1,1.5,2.7,1.7,5.2,1.7c1.7,0,4.3-0.1,6.1-0.3c-0.3,0.4-0.5,1.2-0.6,1.8
		c-1.6,0.1-3.7,0.1-5.5,0.1c-2.9,0-4.7-0.3-6-1.9c-0.6,0.9-1.3,1.6-2,2.2c-0.2-0.4-0.9-1-1.2-1.3c1.5-0.9,2.5-2.4,3-4.6H2
		c-0.4,0-0.8,0.1-1,0.2C0.9,9.9,0.6,9.1,0.4,8.8c0.3-0.1,0.5-0.2,0.8-0.5c0.3-0.3,0.9-1.2,1.6-2H0.7V4.7H4l0.2-0.1l1.2,0.5
		C4.7,6.1,3.7,7.5,2.9,8.6H4l0.3,0L5.2,8.9z M3.2,4.5C2.8,3.8,1.9,2.7,1.1,1.9L2.5,1c0.8,0.8,1.6,1.8,2.1,2.4L3.2,4.5z M7.3,3.6h-2
		V2.1h3.8C9,1.9,8.8,1.6,8.6,1.4l1.5-0.6c0.3,0.4,0.6,0.9,0.9,1.3h4.3v1.5h-1.9C13.2,4,13,4.4,12.8,4.7h2.1v6.9
		c0,0.8-0.1,1.2-0.7,1.5c-0.5,0.3-1.2,0.3-2.1,0.3c-0.1-0.4-0.2-0.9-0.4-1.3H9.5v0.5H8.2V9h1.5V8.2H7.8V7h1.9V6.2H7.5v7.1H5.8V4.7
		h1.6C7.4,4.4,7.2,4,7.1,3.7L7.3,3.6z M11.1,4.7c0.1-0.4,0.3-0.8,0.4-1.1H8.8C9,4,9.2,4.4,9.2,4.7H11.1z M11.2,10.1H9.5v0.8h1.7
		V10.1z M13.2,6.2H11V7h2v1.2h-2V9h1.5v2.8h0.4c0.2,0,0.2-0.1,0.2-0.3V6.2z"/>
	<path d="M25.8,1.8c-0.2,0.2-0.4,0.5-0.5,0.7c2,1.9,4.2,3,6.3,3.8c-0.5,0.4-1.1,1.2-1.3,1.7c-0.8-0.4-1.6-0.8-2.3-1.2v1h-8V7.1
		c-0.7,0.4-1.4,0.8-2.1,1.2C17.6,7.8,17,7,16.5,6.6c2.9-1.2,6-3.1,7.7-5.6L25.8,1.8z M19,9.3h10.3v6.6h-2v-0.6h-6.3V16h-2V9.3z
		 M20.9,11v2.5h6.3V11H20.9z M26.9,6.2c-0.9-0.6-1.8-1.4-2.8-2.3c-0.8,0.8-1.7,1.6-2.6,2.3H26.9z"/>
	<path d="M45.8,13.9c0.1,0,0.1,0,0.2-0.1c0-0.1,0.1-0.2,0.1-0.6c0-0.3,0-1.1,0-2c0.4,0.3,1,0.7,1.5,0.8c0,0.8-0.1,1.9-0.2,2.4
		s-0.3,0.8-0.5,1c-0.2,0.2-0.6,0.3-1,0.3H45c-0.4,0-0.8-0.1-1.1-0.4c-0.3-0.3-0.4-0.7-0.4-2.1V3.4h-1.7v4.7c0,2.5-0.2,5.9-1.7,8
		c-0.3-0.3-1.1-0.9-1.6-1.1c-0.1,0.2-0.3,0.4-0.5,0.5c-0.5,0.3-1.2,0.4-2.2,0.4c0-0.5-0.3-1.3-0.5-1.8c0.6,0,1.2,0,1.3,0
		c0.2,0,0.3-0.1,0.3-0.3V10c-0.4,0.4-0.8,0.8-1.2,1.2l-0.5-1c-0.1,2-0.5,4.2-1.2,5.8c-0.4-0.3-1.1-0.7-1.6-0.9
		c1-2.2,1.1-5.4,1.1-7.7V1.6h5.2v12.2c0,0.4,0,0.8-0.1,1c1.2-1.8,1.3-4.5,1.3-6.7V1.6h5.5v11.6c0,0.4,0,0.6,0.1,0.7
		c0,0.1,0.1,0.1,0.1,0.1H45.8z M35.2,7.4c0,0.6,0,1.3,0,2.1c0.5-0.3,1.1-0.7,1.7-1.2V7.1l-0.5,0.4c-0.2-0.3-0.7-0.8-1.1-1.3V7.4z
		 M35.2,3.3v1.8l0.5-0.4c0.4,0.3,0.8,0.7,1.1,1.1V3.3H35.2z"/>
	<path d="M60.5,6.2c0.6,0,1.8-0.1,2.2-0.1c0,0.5,0.1,0.8,0.1,1.1c-0.4,0.1-1.3,0.1-2.1,0.1h-3.8c-1.5,0-1.9-0.5-2-1.4L52.3,6l0-0.8
		l2.7-0.1V4.6h-3.2v2.9c0,2.4-0.2,6.1-1.6,8.4c-0.4-0.3-1.2-0.8-1.6-1c1.3-2.1,1.4-5.2,1.4-7.4V3.4h5V1h1.9v0.7h5.1v1.2h-5.1v0.5
		h4.6l0.3-0.1l1.4,0.4c-0.3,0.8-0.7,1.7-1,2.3l-1.6-0.5c0.1-0.2,0.2-0.5,0.3-0.8h-4.3v0.4L60.1,5l0,0.8l-3.5,0.1
		c0,0.2,0.2,0.3,0.7,0.3H60.5z M61.5,14.5c0,0.7-0.1,1-0.6,1.2c-0.5,0.2-1.2,0.2-2,0.2c-0.1-0.4-0.3-0.8-0.5-1.2c0.4,0,0.9,0,1.1,0
		c0.2,0,0.2,0,0.2-0.2v-0.4c-1.5,0.3-3,0.5-4.3,0.7L55,13.7c0.9-0.1,2.1-0.2,3.3-0.3c-0.8-0.3-2.1-0.6-3.1-0.7l0.4-0.7
		c1.1,0.1,2.7,0.4,3.5,0.7l-0.3,0.7l0.8-0.1v-1.3h-4.7v0.9c0,1.2-0.2,2.5-1.2,3.3c-0.3-0.3-1.1-0.9-1.5-1.2c0.9-0.7,1-1.5,1-2.2
		v-1.6h8.3V14.5z M52.3,7.7h10v3.1h-10V7.7z M54,8.9h2.3V8.4H54V8.9z M54,10h2.3V9.6H54V10z M60.5,8.4h-2.4v0.5h2.4V8.4z M60.5,9.6
		h-2.4V10h2.4V9.6z"/>
	<path d="M78.6,5.7c-0.3,2.4-0.9,4.5-1.7,6.2c0.7,1.1,1.5,2,2.6,2.6c-0.4,0.3-1,1.1-1.3,1.6c-0.9-0.6-1.7-1.5-2.4-2.4
		c-0.7,0.9-1.6,1.7-2.6,2.3c-0.2-0.4-0.9-1.1-1.2-1.4c1.2-0.7,2.2-1.5,2.9-2.6c-0.5-1.1-0.9-2.3-1.2-3.7c-0.1,0.3-0.3,0.5-0.4,0.7
		C73,8.6,72.3,8,71.9,7.7l0,0.9h1v1.6h-1.1c0,0.7-0.1,1.3-0.1,1.8h1.1v1.5h-1.2c-0.1,0.8-0.2,1.3-0.4,1.6c-0.3,0.5-0.6,0.6-1.1,0.7
		c-0.4,0.1-1,0.1-1.7,0c0-0.5-0.2-1.2-0.4-1.6c0.5,0,1,0.1,1.2,0.1c0.2,0,0.3,0,0.5-0.3c0.1-0.1,0.1-0.3,0.2-0.5h-4.8
		c0.1-0.9,0.3-2.1,0.4-3.4h-1V8.6h1.1c0-0.6,0.1-1.2,0.1-1.7l0,0c-0.3-0.3-1.1-0.8-1.5-1.1c1-1.2,1.7-3,2-4.8l1.8,0.4
		c-0.1,0.4-0.2,0.8-0.3,1.2h5v1.6h-5.6C67,4.7,66.9,5,66.7,5.4H72v0.8l0,1.4C73,6,73.7,3.5,74.1,1l1.8,0.3c-0.1,0.9-0.3,1.8-0.6,2.7
		h4.1v1.7H78.6z M67.2,10.2c-0.1,0.6-0.1,1.2-0.2,1.8h1.4c-0.2-0.4-0.6-1-1-1.4l0.8-0.4H67.2z M67.5,6.9c0,0.6-0.1,1.1-0.1,1.7h1.2
		c-0.2-0.4-0.5-0.9-0.9-1.3l0.8-0.4H67.5z M70,12c0-0.5,0.1-1.1,0.1-1.8h-1.5c0.4,0.5,0.8,1,1.1,1.5L69.2,12H70z M70.2,8.6
		c0-0.5,0-1.1,0-1.7h-1.4c0.4,0.4,0.8,1,0.9,1.4l-0.5,0.3H70.2z M74.8,5.7c0.3,1.5,0.6,2.9,1.1,4.2c0.4-1.2,0.7-2.6,0.9-4.2H74.8z"
		/>
	<path d="M94.9,5.3c-0.6,1.4-1.4,2.7-2.4,3.9c0.4,2.9,1,4.9,1.4,4.9c0.2,0,0.4-0.9,0.4-2.8c0.4,0.4,0.9,0.8,1.4,1
		c-0.3,2.9-0.8,3.6-2,3.6c-1.2,0-2.1-2.2-2.7-5.2c-0.3,0.2-0.6,0.4-0.8,0.7c0.5,1.1,1.1,2.5,1.3,3.3l-1.3,0.6
		c-0.1-0.5-0.4-1.2-0.6-1.9c-0.2,1.8-0.5,2.3-1.6,2.3h-1.4c-1.3,0-1.6-0.4-1.6-1.7v-2.8h1.4l-0.2-0.4l0.4-0.2h-2.3V6.9h5.2v2.8
		c0.4-0.3,0.8-0.6,1.2-1c-0.2-1.4-0.3-3-0.4-4.5h-6.7v1.5c0,2.8-0.3,7.4-1.7,10.3c-0.3-0.3-1.1-0.8-1.5-1c1.3-2.8,1.4-6.7,1.4-9.3
		V2.6h8.4c0-0.5,0-1.1,0-1.6h1.8c0,0.5,0,1.1,0,1.6h1.3c-0.4-0.3-0.8-0.7-1.2-1l1.1-0.8c0.5,0.4,1.2,0.9,1.6,1.3L94,2.6h1.2v1.6H92
		c0,0.9,0.1,1.8,0.2,2.7c0.4-0.6,0.8-1.3,1-2L94.9,5.3z M82.8,14.8c0.4-0.9,0.7-2.3,0.9-3.4l1.2,0.4c-0.2,1.2-0.4,2.7-0.9,3.6
		L82.8,14.8z M89.7,6.2h-5.6V4.9h5.6V6.2z M85.8,9.4H88V8.1h-2.2V9.4z M87.8,14.5c0.3,0,0.4-0.2,0.4-1.7c0.3,0.2,0.9,0.4,1.2,0.5
		c-0.2-0.6-0.4-1.1-0.6-1.6l1.2-0.5c-0.2-0.2-0.4-0.4-0.6-0.7h-2c0.4,0.7,0.9,1.5,1.1,2l-1.2,0.6c-0.2-0.5-0.5-1.1-0.9-1.8V14
		c0,0.4,0,0.4,0.4,0.4H87.8z"/>
	<path d="M111.1,3.5c0,0,0,0.6,0,0.9c-0.2,7.2-0.4,9.7-1,10.5c-0.4,0.6-0.9,0.8-1.5,0.9c-0.6,0.1-1.6,0.1-2.5,0
		c0-0.5-0.3-1.3-0.6-1.9c1,0.1,2,0.1,2.4,0.1c0.3,0,0.5-0.1,0.7-0.3c0.5-0.5,0.7-2.9,0.8-8.6h-3.4c-0.4,1-0.9,1.8-1.4,2.5
		c-0.3-0.2-0.8-0.6-1.2-0.9v7.5h-4.3v1.2h-1.7V3.6H99c0.2-0.8,0.4-1.8,0.5-2.6l2.1,0.3c-0.3,0.8-0.6,1.6-0.8,2.3h2.5v2.6
		c0.9-1.3,1.7-3.3,2.2-5.2l1.8,0.4c-0.2,0.7-0.4,1.4-0.6,2H111.1z M101.5,5.3h-2.5v2.6h2.5V5.3z M101.5,12.6V9.5h-2.5v3.1H101.5z
		 M106.8,11.8c-0.4-1-1.4-2.5-2.2-3.7l1.5-0.8c0.8,1.1,1.9,2.6,2.4,3.6L106.8,11.8z"/>
	<path d="M120.9,1c0,0.7,0,1.5-0.1,2.5c0.2,2.2,1.2,8.2,6.8,10.7c-0.6,0.5-1.1,1.1-1.4,1.6c-3.6-1.7-5.3-4.8-6.3-7.6
		c-0.9,2.8-2.6,5.7-5.9,7.7c-0.3-0.5-0.9-1.1-1.6-1.6c6.5-3.5,6.2-10.6,6.3-13.3H120.9z"/>
</g>
<g>
	<g class="st0">
		<path d="M10.2,37.5c1.7,1.2,4.2,3.1,5.3,4.3l-1.6,1.5c-1-1.2-3.2-3-4.9-4.3v8.3H7v-7.8c-1.5,1.6-3.2,2.9-5.1,3.9
			c-0.3-0.5-0.9-1.3-1.3-1.7c2.9-1.4,5.4-3.8,6.9-6.3H1.1v-2H15v2h-5c-0.3,0.5-0.6,1-0.9,1.5v1.7L10.2,37.5z"/>
		<path d="M27.1,41.4c-0.1,1-0.4,1.9-0.9,2.8c1.5,0.7,3.3,1.2,5.5,1.3c-0.4,0.4-0.9,1.2-1.1,1.7c-2.2-0.3-4-0.8-5.5-1.7
			c-0.8,0.7-1.9,1.3-3.3,1.7c-0.2-0.4-0.8-1.2-1.2-1.6c1.3-0.3,2.2-0.7,2.9-1.2c-0.8-0.7-1.4-1.5-2-2.4l1.6-0.5
			c0.4,0.6,0.9,1.2,1.5,1.6c0.3-0.6,0.5-1.2,0.6-1.8h-3.6v-4.7h3.7v-1.1h-4v-1.5c-0.3,0.6-0.6,1.2-1,1.8v11.3h-1.8v-8.6
			c-0.4,0.5-0.9,1.1-1.3,1.5c-0.2-0.5-0.7-1.5-1-2c1.5-1.4,3-3.7,3.9-6l1.8,0.6c-0.1,0.3-0.3,0.7-0.4,1h3.9v-1.5h1.9v1.5h4.2v1.7
			h-4.2v1.1H31v4.7H27.1z M25.3,39.9v-0.2v-1.4h-2v1.6H25.3z M27.2,38.3v1.4v0.2h2v-1.6H27.2z"/>
		<path d="M46.4,45c0,1-0.2,1.5-0.9,1.8c-0.7,0.3-1.6,0.4-3.1,0.3c-0.1-0.5-0.4-1.3-0.6-1.8c0.9,0,2,0,2.2,0c0.3,0,0.4-0.1,0.4-0.4
			v-2.4h-3.4V47h-1.9v-4.5h-3.3c-0.3,1.7-0.9,3.5-2,4.8c-0.3-0.4-1.1-1-1.5-1.2c1.7-1.9,1.9-4.8,1.9-7v-5.7h12.1V45z M39.2,40.8v-2
			h-3v0.3c0,0.5,0,1.1,0,1.7H39.2z M36.2,35.2V37h3v-1.9H36.2z M44.5,35.2h-3.4V37h3.4V35.2z M44.5,40.8v-2h-3.4v2H44.5z"/>
	</g>
	<g class="st0">
		<path class="st1" d="M62.9,38.7c1.4,1.2,3.3,2.9,4.2,4.1L65,43.7c-0.3-0.5-0.8-1-1.3-1.6l-4.4,0.3v2.4c0,1.1-0.2,1.6-1.1,1.9
			c-0.8,0.3-1.8,0.3-3.2,0.3c-0.1-0.7-0.5-1.5-0.8-2c0.9,0,2.1,0,2.3,0c0.3,0,0.4-0.1,0.4-0.3v-2.2c-4.7,0.4-5.6,0.5-6.2,0.7
			c-0.1-0.4-0.4-1.5-0.6-2c0.8-0.1,1.5-0.3,2.7-0.8c0.6-0.2,1.7-0.6,3-1.2c-3.3,0.3-3.9,0.4-4.3,0.6c-0.1-0.4-0.4-1.4-0.6-1.9
			c0.5-0.1,1-0.2,1.7-0.5c0.6-0.2,2.4-1,4-2c-2.8,0.4-5.6,0.8-7.7,1.1l-0.2-2.1l1.2-0.1v-4.5h2.1v4.2l1.2-0.1v-5.5h2.3v1.8H58v1.9
			h-2.4v1.6l2.5-0.3l0,1.8l-0.5,0.1l1.2,1.1c-0.8,0.4-1.6,0.8-2.4,1.2l3.2-0.2c0.6-0.3,1.2-0.7,1.8-1.1l1.4,1.6
			C61,39.1,59,40,56.9,40.8l5.1-0.3c-0.3-0.4-0.7-0.7-1.1-1L62.9,38.7z M55.3,43.9c-1.2,1.1-3.1,2.2-4.6,2.8
			c-0.4-0.4-1.3-1.1-1.8-1.5c1.6-0.5,3.3-1.4,4.3-2.2L55.3,43.9z M61.6,36.1c-2.4,0-3-0.6-3-2.7v-5H61v1.8h5.4v1.9H61v1.3
			c0,0.6,0.1,0.7,1,0.7h2.4c0.6,0,0.8-0.2,0.9-1.4c0.5,0.3,1.4,0.6,2,0.8c-0.3,2.1-0.9,2.6-2.7,2.6H61.6z M62.1,42.9
			c1.5,0.7,3.5,1.8,4.6,2.5l-2,1.2c-1.1-0.8-3-2-4.5-2.7L62.1,42.9z"/>
		<path class="st1" d="M77.3,31.3l1.7,0.5c-0.9,8.1-3.8,13-8.3,15.3c-0.4-0.6-1.4-1.6-2-2c2.3-1.1,4.1-2.7,5.4-5.1
			c-0.7-0.8-1.6-1.9-2.6-2.8c-0.3,0.6-0.7,1.1-1,1.5c-0.4-0.4-1.5-1.2-2-1.5c1.7-2,2.9-5.3,3.5-8.7l2.4,0.4
			c-0.2,0.9-0.4,1.7-0.6,2.5h3L77.3,31.3z M73.1,33.6c-0.2,0.5-0.4,1-0.6,1.5c0.8,0.8,1.8,1.7,2.6,2.5c0.4-1.2,0.8-2.5,1-4H73.1z
			 M85.5,40.6c-0.7-1-2-2.4-3.2-3.7v10.3h-2.5V28.4h2.5v6.6l0.9-0.6c1.4,1.4,3.4,3.3,4.4,4.5L85.5,40.6z"/>
		<path class="st1" d="M94.2,40.9c0-0.3-0.1-0.6-0.1-0.9c-3.6,0.5-4.3,0.7-4.7,0.9c-0.1-0.4-0.5-1.5-0.8-2.1c0.5-0.1,1-0.6,1.6-1.3
			c0.2-0.3,0.7-0.8,1.2-1.6c-1.5,0.2-1.9,0.3-2.2,0.4c-0.1-0.4-0.5-1.5-0.7-2.1c0.4-0.1,0.7-0.5,1.1-1.1c0.4-0.6,1.6-2.7,2.2-4.8
			l2.2,0.9c-0.7,1.6-1.6,3.3-2.6,4.7l1.3-0.1c0.5-0.9,1-1.8,1.4-2.7l2,1.3c-0.8,1.4-1.7,2.8-2.7,4.1l1.5-0.4
			c0.5,1.3,0.9,3.1,1.1,4.2L94.2,40.9z M91.2,41.8c-0.2,1.8-0.5,3.8-0.9,5.1c-0.4-0.2-1.3-0.5-1.8-0.6c0.5-1.2,0.7-3,0.8-4.7
			L91.2,41.8z M93.2,41.5c0.2,1.3,0.4,3.1,0.4,4.2l-1.8,0.3c0-1.1-0.2-2.9-0.3-4.2L93.2,41.5z M93.7,38.2c-0.1-0.5-0.2-1-0.4-1.4
			c-0.4,0.5-0.9,1.1-1.3,1.6L93.7,38.2z M95.1,41c0.3,0.9,0.7,2,0.8,2.8l-1.6,0.5c-0.1-0.7-0.5-1.9-0.8-2.8L95.1,41z M100.7,39.5
			c-0.7,3.1-2.1,5.4-4.2,6.7c-0.3-0.5-0.9-1.3-1.3-1.7c1.2-0.7,2.3-2,2.9-3.5h-1.8v-1.9h2.7l0.4-0.1L100.7,39.5z M107.2,39.6
			c-0.9,0.7-1.8,1.5-2.6,2.1c0.8,1.2,1.8,2.2,2.9,2.8c-0.5,0.4-1.2,1.3-1.6,1.9c-1.2-0.8-2.1-2-2.9-3.3v1.7c0,1.1-0.2,1.6-0.9,2
			c-0.7,0.3-1.6,0.4-2.9,0.4c-0.1-0.6-0.4-1.6-0.6-2.2c0.7,0,1.6,0,1.8,0c0.3,0,0.3-0.1,0.3-0.3v-6.9H97v-7.3h2.8
			c0.3-0.7,0.5-1.5,0.6-2.1l2.7,0.5c-0.3,0.6-0.6,1.1-0.9,1.6h4.3v7.3H103v0.6c0.2,0.6,0.4,1.1,0.6,1.6c0.7-0.6,1.3-1.4,1.8-1.9
			L107.2,39.6z M99.2,33.3h5.1v-1h-5.1V33.3z M99.2,36.1h5.1V35h-5.1V36.1z"/>
		<path class="st1" d="M111.4,42.2v1.6h-2.1V30h5.8v12.2H111.4z M111.4,32.2V40h1.6v-7.8H111.4z M127,35.5c-0.6,3.1-1.6,5.5-3,7.5
			c1.1,0.9,2.3,1.7,3.7,2.2c-0.5,0.5-1.2,1.3-1.5,1.9c-1.4-0.6-2.7-1.4-3.7-2.5c-1.1,1-2.4,1.9-3.8,2.4c-0.3-0.6-1-1.5-1.5-1.9
			c1.4-0.5,2.7-1.3,3.8-2.2c-0.9-1.2-1.6-2.5-2.2-3.9c-0.6,3.2-1.7,6.2-3.7,8.1c-0.3-0.4-1.2-1.2-1.7-1.6c3.2-3,3.7-9,3.7-13.9h-1.3
			v-2.1h7.5l0.4-0.1l1.7,0.2c-0.2,1.7-0.5,3.6-0.9,5.4h0.8l0.4-0.1L127,35.5z M119.4,31.7c0,1.1-0.1,2.2-0.2,3.4h2.9
			c0.2-1.1,0.4-2.3,0.6-3.4H119.4z M120.1,37.2c0.5,1.5,1.3,2.9,2.2,4.1c0.8-1.1,1.5-2.5,1.9-4.1H120.1z"/>
		<path class="st1" d="M146.1,34.4c-0.5,3-1.3,5.5-2.5,7.5c1.1,1.3,2.3,2.4,3.8,3.2c-0.5,0.4-1.3,1.3-1.6,2
			c-1.4-0.8-2.6-1.9-3.6-3.1c-1.1,1.3-2.4,2.4-4,3.3c-0.3-0.5-1-1.5-1.5-1.9c1.7-0.8,3.1-1.9,4.1-3.4c-0.8-1.3-1.4-2.8-1.9-4.4
			c-0.3,0.5-0.7,1-1,1.4c-0.3-0.5-0.9-1.3-1.4-1.9v10h-2.4V42c-3.2,1.1-3.8,1.5-4.3,1.8c-0.2-0.6-0.6-1.7-0.9-2.2
			c0.4-0.2,0.7-0.6,0.7-1.4v-9.6h2.3v9.8l2.1-0.6v-11h2.4v7.9c1.5-1.9,2.5-5,3-8.2l2.4,0.4c-0.2,1.1-0.4,2.2-0.7,3.3h6.1v2.3H146.1z
			 M140.5,34.4c-0.1,0.2-0.1,0.4-0.2,0.5c0.5,1.7,1.1,3.4,1.9,4.8c0.7-1.5,1.2-3.3,1.6-5.3H140.5z"/>
		<path class="st1" d="M157.5,38.5h2V47h-2v-2.6h-5.6c-0.4,1-0.9,2-2,2.7c-0.3-0.4-1-1-1.4-1.3c1.7-1.2,1.9-3.2,1.9-4.6v-2.6h1.9v1
			h5.2V38.5z M153.5,33.5c0,2.4-0.1,3.5-0.4,3.9c-0.2,0.3-0.5,0.4-0.9,0.5c-0.3,0-0.7,0.1-1.1,0.1c0-0.4-0.1-0.9-0.3-1.3
			c-0.3,0.6-0.7,1.1-1.2,1.5c-0.2-0.3-0.6-0.9-0.9-1.2c0.8-0.6,1.1-1.4,1.3-2.5h-1v-1.5h4.2c-0.1-0.2-0.3-0.4-0.4-0.6l0.7-0.4h-4.4
			v-1.8h5.2c-0.2-0.4-0.4-0.9-0.6-1.3l1.7-0.6c0.3,0.6,0.7,1.3,0.9,1.9h4.7v1.8h-4.5l1.3,0.5c-0.6,0.6-1.3,1.3-1.9,1.9v4h-1.5v-4.1
			c0.6-0.7,1.4-1.6,1.8-2.3h-2c0.4,0.5,0.7,1,0.9,1.4l-1.2,0.8c-0.1-0.2-0.2-0.5-0.4-0.8L153.5,33.5z M151.5,34.4
			c-0.1,0.8-0.3,1.5-0.6,2.1c0.3,0,0.5,0,0.6,0c0.1,0,0.2,0,0.3-0.2c0.1-0.2,0.2-0.7,0.2-2H151.5z M157.5,42.6v-1.2h-5.2
			c0,0.4,0,0.8-0.1,1.2H157.5z M160,32.3l1.3,1.2c-0.9,0.5-2.1,0.8-3.1,1.1v1.7l1-0.2c0,0.4,0.1,1,0.2,1.3c-1.8,0.5-2.2,0.6-2.5,0.8
			c-0.1-0.4-0.3-1.1-0.6-1.4c0.2-0.1,0.5-0.3,0.5-1.1l0-2.1C157.9,33.3,159.3,32.8,160,32.3z M160.1,34.3c0.6,0.8,1.2,1.8,1.5,2.5
			l-1.3,0.9c-0.3-0.7-0.9-1.8-1.5-2.6L160.1,34.3z M163.6,42h-1.9V30.6h1.9V42z M166.7,28.7v16c0,1.1-0.2,1.6-0.8,2
			c-0.6,0.4-1.5,0.4-2.8,0.4c-0.1-0.6-0.3-1.4-0.6-2c0.8,0,1.6,0,1.9,0c0.3,0,0.4-0.1,0.4-0.4v-16H166.7z"/>
	</g>
	<g class="st0">
		<path d="M170.1,42c1.2-0.4,2-1.1,2.1-1.9c0,0-0.1,0-0.2,0c-0.8,0-1.5-0.5-1.5-1.4c0-0.9,0.7-1.4,1.6-1.4c1.1,0,1.7,0.8,1.7,2.2
			c0,1.8-1.2,3.3-3.2,3.9L170.1,42z"/>
		<path d="M182.2,40.3c0,0,0,0.5,0,0.7c-0.2,3.5-0.4,4.9-0.9,5.4c-0.3,0.4-0.7,0.6-1.2,0.6c-0.4,0.1-1.2,0.1-2,0
			c0-0.5-0.2-1.3-0.5-1.7c0.6,0.1,1.3,0.1,1.6,0.1c0.3,0,0.4,0,0.5-0.2c0.3-0.3,0.4-1.2,0.6-3.3h-3.7c0.3-1.4,0.5-3.6,0.6-5.3h3.1
			v-1.9h-3.4v-1.7h5.1v5.3h-3.3c-0.1,0.6-0.1,1.2-0.2,1.8H182.2z M190,47.3c-0.1-0.3-0.2-0.6-0.3-1c-2.6,0.2-5.3,0.4-7.3,0.5
			l-0.2-1.9c1,0,2.3-0.1,3.6-0.2v-1.8h-3v-4.5h3v-1.3h1.8v1.3h3.1v4.5h-0.8c0.7,1.1,1.5,2.6,1.8,3.5L190,47.3z M189.9,37.9
			c-0.1-0.3-0.3-0.6-0.6-1c-5.1,0.4-5.9,0.5-6.4,0.7c-0.1-0.3-0.4-1.2-0.6-1.6c0.3-0.1,0.6-0.3,0.9-0.7c0.3-0.4,1.2-1.6,1.7-2.9
			l2,0.5c-0.6,1-1.3,2-2,2.9l3.4-0.3c-0.3-0.4-0.6-0.8-0.9-1.1l1.3-0.8c1,1,2.2,2.4,2.7,3.4L189.9,37.9z M185.8,41.6v-1.5h-1.4v1.5
			H185.8z M187.6,40.1v1.5h1.4v-1.5H187.6z M188.9,44.7c-0.2-0.4-0.4-0.7-0.6-1l1.5-0.6h-2.2v1.7L188.9,44.7z"/>
		<path d="M206.6,36.9c-0.4,2.4-1,4.5-1.9,6.1c0.8,1.2,1.8,2.1,2.9,2.8c-0.4,0.4-1,1-1.3,1.5c-1-0.7-1.9-1.6-2.7-2.6
			c-0.9,1.1-2,2-3.4,2.7c-0.2-0.4-0.9-1.1-1.3-1.4c1.6-0.7,2.8-1.7,3.7-2.9c-0.4-0.9-0.8-1.8-1.2-2.8c-0.2,0.3-0.4,0.7-0.7,1
			c-0.2-0.4-0.7-1.1-1.1-1.5l-0.7,0.4c-0.1-0.2-0.2-0.4-0.3-0.7c-0.2,0.9-0.5,1.7-0.9,2.5c0.8,1,1.5,1.9,2,2.6l-1.5,1.2
			c-0.3-0.6-0.8-1.3-1.4-2.1c-0.8,1.4-1.9,2.5-3.2,3.3c-0.2-0.4-0.9-1.1-1.3-1.4c1.4-0.8,2.4-2,3.2-3.4c-0.5-0.6-1.1-1.2-1.6-1.8
			c-0.2,0.2-0.3,0.4-0.4,0.6c-0.3-0.3-0.9-0.9-1.3-1.2c0.8-0.9,1.6-2.3,2.1-3.6l1.6,0.5c-0.5,1.2-1.2,2.4-1.8,3.4l1.2-0.9
			c0.4,0.4,0.7,0.7,1.1,1.1c0.2-0.5,0.4-1.1,0.5-1.7l1.5,0.3c-0.4-0.7-0.9-1.5-1.4-2.1l1.2-0.7h-5.5v-1.7h3.2
			c-0.2-0.5-0.5-1.2-0.8-1.7l1.6-0.6c0.4,0.6,0.8,1.3,1,1.9l-1,0.4h3.7v1.7h-1.8c0.6,0.8,1.2,1.7,1.6,2.5c1-1.7,1.5-4,1.9-6.4
			l1.7,0.3c-0.1,0.8-0.3,1.7-0.5,2.5h4v1.8H206.6z M202.9,36.9c-0.1,0.4-0.2,0.7-0.4,1c0.3,1.2,0.7,2.3,1.1,3.3
			c0.5-1.2,0.9-2.6,1.1-4.3H202.9z"/>
		<path d="M214.6,33.7c-0.4,1.4-1,3.2-1.5,4.5c1,1.3,1.2,2.4,1.2,3.3c0,1.1-0.2,1.7-0.8,2.1c-0.2,0.2-0.6,0.3-0.9,0.4
			c-0.3,0-0.7,0-1.1,0c0-0.5-0.2-1.2-0.4-1.7c0.3,0,0.5,0,0.7,0c0.2,0,0.3,0,0.5-0.1c0.2-0.1,0.3-0.5,0.3-0.9c0-0.7-0.2-1.8-1.2-2.8
			c0.4-1,0.7-2.5,1-3.6H211v12.6h-1.8V33h3.8l0.3-0.1L214.6,33.7z M218.1,36.6c0,0.7,0,1.3-0.1,1.9h4.4c0,0,0,0.6,0,0.8
			c-0.2,4.7-0.3,6.5-0.8,7.1c-0.4,0.5-0.7,0.6-1.3,0.7c-0.5,0.1-1.2,0.1-2.1,0c0-0.6-0.3-1.3-0.6-1.9c0.7,0.1,1.4,0.1,1.7,0.1
			c0.3,0,0.4-0.1,0.5-0.2c0.3-0.3,0.4-1.6,0.5-4.9h-2.6c-0.4,3-1.4,5.4-4.2,6.9c-0.2-0.5-0.8-1.1-1.2-1.5c3.4-1.8,3.7-5,3.8-9.1h-2
			v-1.8h3.9c-0.1-0.6-0.4-1.5-0.6-2.2l1.7-0.4c0.3,0.7,0.6,1.7,0.8,2.3l-1.3,0.4h4.7v1.8H218.1z"/>
		<path d="M226.5,44.3v1.3h-1.5V33.4h4v10.8H226.5z M226.5,35.1V38h1v-2.9H226.5z M227.6,42.6v-2.9h-1v2.9H227.6z M237.9,45.7
			c0.3,0,0.3-0.1,0.4-0.8c0.3,0.2,0.9,0.4,1.4,0.5c-0.2,1.2-0.6,1.6-1.6,1.6h-1.3c-1.4,0-1.7-0.4-1.7-1.8v-2.4h-2.1v0.6h1.7v1.1
			h-1.7v0.9l1.7-0.2c0,0.4,0,1,0.1,1.3c-2.5,0.4-3,0.6-3.3,0.7c0-0.4-0.2-1.2-0.4-1.5c0.3-0.1,0.5-0.2,0.5-0.7v-2.2h-0.3
			c-0.2,1.5-0.6,3.1-1.3,4.3c-0.3-0.2-1-0.7-1.4-0.8c1.2-1.8,1.3-4.3,1.3-6.1V38h3.9c-0.1-0.2-0.1-0.4-0.2-0.6h-0.7v-1.9h-1.7v1.9
			h-1.2v-2.9h4.2V37l0.8-0.2v-2.2h4.5v2.8h-1.3v-1.9h-1.8v1.9h-0.8c0.1,0.2,0.2,0.4,0.2,0.6h4.1v1.2h-3v0.7h2.6v3h-2.4v0.6h2.3v1.1
			h-2.3v0.7c0,0.4,0,0.4,0.4,0.4H237.9z M234,34.1h-4.6v-1.2h4.6V34.1z M231.5,37.4c-0.1-0.4-0.3-0.9-0.4-1.3l0.9-0.3
			c0.2,0.4,0.4,0.9,0.5,1.3L231.5,37.4z M231.2,41c0,0.3,0,0.5,0,0.8h1.1V41H231.2z M231.2,39.2v0.7h1v-0.7H231.2z M234.9,39.2h-1.1
			v0.7h1.1V39.2z M234.9,41h-1.1v0.8h1.1V41z M239.3,34.1h-4.8v-1.2h4.8V34.1z M236.6,37.3c-0.1-0.4-0.3-0.9-0.5-1.3l1-0.3
			c0.2,0.4,0.4,1,0.5,1.3L236.6,37.3z M236.4,41v0.8h1V41H236.4z"/>
		<path d="M254.9,42.6c0,0.9-0.1,1.5-0.7,1.8c-0.5,0.3-1.3,0.4-2.3,0.4c0-0.5-0.3-1.4-0.6-1.9v4.4h-1.9V40l-0.8,1.5
			c-0.1-0.2-0.3-0.4-0.5-0.6v6.3h-1.8v-0.8h-2.6v0.9h-1.7v-5.8c-0.2,0.2-0.4,0.3-0.6,0.5c-0.3-0.5-0.8-1.1-1.2-1.5
			c1.9-1.1,3.5-2.9,4.3-5.2l1.6,0.6c-0.1,0.2-0.2,0.5-0.3,0.7c1.2,1,2.7,2.3,3.5,3.2v-3.9l-1.3,1.1c-0.5-1-1.6-2.5-2.5-3.5l1.3-0.9
			c0.9,1,2,2.3,2.6,3.3v-2.4h5.5V42.6z M244.9,33.1c-0.8,1.7-2,3.3-3.3,4.4c-0.2-0.4-0.8-1.2-1.1-1.6c1.1-0.8,2.1-2,2.7-3.3
			L244.9,33.1z M248.1,40.8c-0.8-0.9-1.9-1.9-2.9-2.8c-0.6,1.1-1.4,2-2.2,2.8H248.1z M246.4,44.7v-2.2h-2.6v2.2H246.4z M251.3,42.9
			c0.7,0,1.3,0,1.5,0c0.2,0,0.3-0.1,0.3-0.3V35h-1.8V42.9z"/>
		<path d="M263.6,45.5c0,0.8-0.1,1.2-0.7,1.4c-0.5,0.2-1.2,0.3-2.2,0.3c-0.1-0.4-0.3-1.1-0.6-1.5c0.6,0,1.2,0,1.4,0
			c0.2,0,0.3-0.1,0.3-0.3v-1.6c-0.8,0.6-1.6,1.1-2.3,1.6l-0.4-1.1c-0.2,1.1-0.5,2.2-1.1,3c-0.3-0.4-1-1.1-1.3-1.3
			c0.8-1.2,0.9-3,0.9-4.4V38h6.1V45.5z M262.7,33.5c0.7,1.2,1.5,2.7,1.9,3.7l-1.7,0.7c-0.1-0.3-0.2-0.6-0.4-1
			c-4,0.4-4.7,0.5-5.2,0.7c-0.1-0.4-0.4-1.2-0.6-1.7c0.3-0.1,0.6-0.3,0.9-0.6s1.3-1.6,1.9-2.8l1.9,0.5c-0.5,0.9-1.3,1.9-2,2.7
			l2.3-0.2c-0.2-0.5-0.5-0.9-0.7-1.3L262.7,33.5z M259.3,41.7c0,0.6,0,1.3-0.1,2c0.7-0.3,1.7-0.8,2.6-1.3v-0.5l-0.8,0.8
			c-0.4-0.4-1.1-1-1.7-1.5V41.7z M259.3,39.6v1.1l0.8-0.7c0.5,0.4,1.2,0.9,1.7,1.4v-1.8H259.3z M267.2,39.4c-1.9,0-2.4-0.7-2.4-2.5
			v-4.5h1.9v1.9h3.9v1.6h-3.9v1.1c0,0.6,0.1,0.8,0.6,0.8h2.3c0.4,0,1.1,0,1.5-0.1c0,0.5,0.1,1.2,0.2,1.6c-0.3,0.1-1,0.1-1.6,0.1
			H267.2z M269.2,45.5c0.5,0,0.7-0.3,0.7-1.7c0.4,0.3,1.2,0.6,1.6,0.7c-0.2,2.1-0.7,2.7-2.2,2.7h-2.3c-1.9,0-2.4-0.6-2.4-2.3v-5h1.9
			v1.6h4v1.7h-4v1.7c0,0.6,0.1,0.6,0.8,0.6H269.2z"/>
		<path d="M275.2,39.7c-0.6-0.5-1.7-1.2-2.7-1.6l1-1.4c0.9,0.3,2.2,0.9,2.8,1.5L275.2,39.7z M276.8,42c-0.7,1.7-1.6,3.6-2.4,5.1
			l-1.7-1.1c0.7-1.2,1.8-3.2,2.6-5.1L276.8,42z M276,35.5c-0.6-0.5-1.8-1.3-2.7-1.7l1.1-1.4c0.9,0.4,2.2,1,2.8,1.6L276,35.5z
			 M287.5,45.1v1.6h-11.3v-1.6h1.3v-4.8h9v4.8H287.5z M285.9,39.5H278V33h7.9V39.5z M279.2,45.1h0.9v-3.2h-0.9V45.1z M284.1,34.4
			h-4.4v2.7c1-0.5,1.5-1.5,1.7-2.5l1.3,0.1c-0.1,0.3-0.2,0.7-0.3,1c0.6,0.5,1.3,1.1,1.6,1.4l-0.9,0.8c-0.3-0.3-0.8-0.8-1.2-1.3
			c-0.4,0.5-0.8,1-1.4,1.3c-0.2-0.2-0.5-0.6-0.8-0.8v1h4.4V34.4z M281.5,41.9v3.2h0.9v-3.2H281.5z M283.8,41.9v3.2h0.9v-3.2H283.8z"
			/>
		<path d="M293.5,39.1c0.6,0.6,2.1,2.3,2.4,2.8l-1.1,1.6c-0.3-0.5-0.8-1.3-1.3-2.1v5.9h-1.9v-5.7c-0.6,1.5-1.4,2.9-2.2,3.8
			c-0.2-0.6-0.6-1.3-1-1.8c1.1-1.2,2.1-3,2.7-4.8h-2.4v-1.8h2.8V35c-0.8,0.1-1.6,0.2-2.3,0.3c-0.1-0.4-0.3-1.1-0.5-1.5
			c2.1-0.3,4.4-0.8,5.9-1.4l1.2,1.5c-0.7,0.3-1.5,0.5-2.4,0.7v2.4h2.3v1.8h-2.3V39.1z M302.7,33.8v12.6h-2v-1.2h-2.6v1.3h-1.9V33.8
			H302.7z M300.7,43.4v-7.8h-2.6v7.8H300.7z"/>
		<path d="M319.1,40.4h-3.9v4.6c0,1.1-0.2,1.6-1,1.9c-0.7,0.3-1.8,0.3-3.3,0.3c-0.1-0.6-0.4-1.4-0.7-1.9c1,0,2.2,0,2.5,0
			c0.3,0,0.4-0.1,0.4-0.4v-4.5h-8.4v-1.9h8.4v-1.9h2v1.9h3.9V40.4z M307.1,37.5h-1.9v-3.4h6.1c-0.2-0.5-0.4-1-0.6-1.5l1.9-0.4
			c0.3,0.6,0.7,1.4,0.9,2h5.4v3.4h-2v-1.6h-9.6V37.5z M308.1,40.8c1,0.9,2.1,2.2,2.5,3.2L309,45c-0.4-0.9-1.5-2.3-2.4-3.3
			L308.1,40.8z"/>
		<path d="M326.5,36.5h-6v-1.5h2.7c-0.2-0.6-0.6-1.4-1-2l1.4-0.7c0.4,0.7,0.9,1.5,1.2,2.1l-1,0.6h2.7V36.5z M334.9,42.8
			c-0.5,1-1.3,1.7-2.2,2.4c0.9,0.3,1.9,0.4,3,0.5c-0.4,0.4-0.8,1.1-1,1.5c-1.4-0.2-2.7-0.5-3.7-1.1c-1.2,0.5-2.6,0.9-4.1,1.1
			c-0.1-0.4-0.5-1.1-0.8-1.5v0.6h-3.3V47h-1.6v-5.5h4.8v4.3c1.1-0.1,2.2-0.3,3.2-0.6c-0.5-0.4-0.9-0.8-1.3-1.3l0.6-0.2h-1.7v-1.3
			h6.7l0.3-0.1L334.9,42.8z M328.7,34.5h-2.2v-1.4h2.2v-0.8h1.7v2.9H329l0.4,0.1c-0.1,0.2-0.2,0.5-0.3,0.7h1.4
			c-0.1-0.3-0.2-0.5-0.2-0.8l1.3-0.3v-2.7h1.7v0.8h2.1v1.4h-2.1v0.8h-1.2c0.1,0.3,0.2,0.6,0.3,0.8h2.6v1.1h-2.7v0.5h2.3v0.9h-2.3
			v0.5h2.3v0.9h-2.3v0.6h3.1v1.1H329v0.2h-1.6v-3.3c-0.2,0.2-0.4,0.4-0.6,0.6c-0.2-0.3-0.6-1-0.9-1.3v0.5h-4.7v-1.4h4.7V38
			c0.8-0.8,1.5-1.9,1.9-3.1l0.8,0.3V34.5z M321.2,39.3h4.7v1.4h-4.7V39.3z M324.4,43h-1.7v1.8h1.7V43z M330.6,37.2H329v0.5h1.7V37.2
			z M330.6,38.7H329v0.5h1.7V38.7z M330.6,40.2H329v0.6h1.7V40.2z M329.8,43.6c0.3,0.3,0.7,0.6,1.2,0.8c0.5-0.2,0.9-0.5,1.3-0.8
			H329.8z"/>
		<path d="M349.8,45.2c0.1,0,0.1,0,0.2-0.1c0-0.1,0.1-0.2,0.1-0.6c0-0.3,0-1.1,0-2c0.4,0.3,1,0.7,1.5,0.8c0,0.8-0.1,1.9-0.2,2.4
			c-0.1,0.5-0.3,0.8-0.5,1c-0.2,0.2-0.6,0.3-1,0.3H349c-0.4,0-0.8-0.1-1.1-0.4c-0.3-0.3-0.4-0.7-0.4-2.1v-9.8h-1.7v4.7
			c0,2.5-0.2,5.9-1.7,8c-0.3-0.3-1.1-0.9-1.6-1.1c-0.1,0.2-0.3,0.4-0.5,0.5c-0.5,0.3-1.2,0.4-2.2,0.4c0-0.5-0.3-1.3-0.5-1.8
			c0.6,0,1.2,0,1.3,0c0.2,0,0.3-0.1,0.3-0.3v-3.7c-0.4,0.4-0.8,0.8-1.2,1.2l-0.5-1c-0.1,2-0.5,4.2-1.2,5.8c-0.4-0.3-1.1-0.7-1.6-0.9
			c1-2.2,1.1-5.4,1.1-7.7v-5.8h5.2V45c0,0.4,0,0.8-0.1,1c1.2-1.8,1.3-4.5,1.3-6.7v-6.5h5.5v11.6c0,0.4,0,0.6,0.1,0.7
			c0,0.1,0.1,0.1,0.1,0.1H349.8z M339.2,38.7c0,0.6,0,1.3,0,2.1c0.5-0.3,1.1-0.7,1.7-1.2v-1.1l-0.5,0.4c-0.2-0.3-0.7-0.8-1.1-1.3
			V38.7z M339.2,34.6v1.8l0.5-0.4c0.4,0.3,0.8,0.7,1.1,1.1v-2.6H339.2z"/>
		<path d="M364.5,37.5c0.6,0,1.8-0.1,2.2-0.1c0,0.5,0.1,0.8,0.1,1.1c-0.4,0.1-1.3,0.1-2.1,0.1h-3.8c-1.5,0-1.9-0.5-2-1.4l-2.7,0.1
			l0-0.8l2.7-0.1v-0.5h-3.2v2.9c0,2.4-0.2,6.1-1.6,8.4c-0.4-0.3-1.2-0.8-1.6-1c1.3-2.1,1.4-5.2,1.4-7.4v-4.1h5v-2.4h1.9V33h5.1v1.2
			h-5.1v0.5h4.6l0.3-0.1l1.4,0.4c-0.3,0.8-0.7,1.7-1,2.3l-1.6-0.5c0.1-0.2,0.2-0.5,0.3-0.8h-4.3v0.4l3.5-0.1l0,0.8l-3.5,0.1
			c0,0.2,0.2,0.3,0.7,0.3H364.5z M365.5,45.8c0,0.7-0.1,1-0.6,1.2c-0.5,0.2-1.2,0.2-2,0.2c-0.1-0.4-0.3-0.8-0.5-1.2
			c0.4,0,0.9,0,1.1,0c0.2,0,0.2,0,0.2-0.2v-0.4c-1.5,0.3-3,0.5-4.3,0.7l-0.4-1.2c0.9-0.1,2.1-0.2,3.3-0.3c-0.8-0.3-2.1-0.6-3.1-0.7
			l0.4-0.7c1.1,0.1,2.7,0.4,3.5,0.7l-0.3,0.7l0.8-0.1v-1.3h-4.7v0.9c0,1.2-0.2,2.5-1.2,3.3c-0.3-0.3-1.1-0.9-1.5-1.2
			c0.9-0.7,1-1.5,1-2.2v-1.6h8.3V45.8z M356.3,38.9h10V42h-10V38.9z M358,40.1h2.3v-0.5H358V40.1z M358,41.3h2.3v-0.4H358V41.3z
			 M364.5,39.7h-2.4v0.5h2.4V39.7z M364.5,40.8h-2.4v0.4h2.4V40.8z"/>
	</g>
</g>
</svg>
