<?xml version="1.0" encoding="utf-8"?>
<!-- Generator: Adobe Illustrator 25.4.1, SVG Export Plug-In . SVG Version: 6.00 Build 0)  -->
<svg version="1.1" id="Layer_1" xmlns="http://www.w3.org/2000/svg" xmlns:xlink="http://www.w3.org/1999/xlink" x="0px" y="0px"
	 viewBox="0 0 160 85" style="enable-background:new 0 0 160 85;" xml:space="preserve">
<style type="text/css">
	.st0{fill:#FFFFFF;}
	.st1{filter:url(#dropshadow);}
</style>
<filter id="dropshadow" height="130%">
  <feGaussianBlur in="SourceAlpha" stdDeviation="3"/> <!-- stdDeviation is how much to blur -->
  <feOffset dx="2" dy="2" result="offsetblur"/> <!-- how much to offset -->
  <feComponentTransfer>
    <feFuncA type="linear" slope="0.5"/> <!-- slope is the opacity of the shadow -->
  </feComponentTransfer>
  <feMerge> 
    <feMergeNode/> <!-- this contains the offset blurred image -->
    <feMergeNode in="SourceGraphic"/> <!-- this contains the element that the filter is applied to -->
  </feMerge>
</filter>
<g class="st1">
	<path class="st0" d="M32,18.2L32,18.2L32,18.2z"/>
	<path class="st0" d="M33.4,10.5c0.2,0.6,0.3,1.7,0.6,2.9c5.7,1.7,9.6,6.9,9.6,12.8c0,1.4-0.2,2.6-0.6,3.8c0.8,0.6,1.5,1.2,2.3,1.7
		c0.6-1.8,0.9-3.6,0.9-5.4C46.3,18.5,40.9,12,33.4,10.5z"/>
	<path class="st0" d="M23.5,13.5c0.2-0.9,0.3-1.8,0.3-2.7c-7.2,1.5-12.5,8-12.5,15.5c0,1.8,0.3,3.6,0.9,5.3c0.8-0.5,1.5-1.1,2.1-1.7
		c-0.3-1.2-0.5-2.4-0.5-3.6C13.9,20.3,17.8,15.2,23.5,13.5z"/>
	<path class="st0" d="M16.9,39.7c3,3.5,7.5,5.4,12,5.4c4.7,0,9-2.1,12-5.6c-0.6-0.3-1.5-0.8-2.6-1.1c-2.6,2.6-5.9,4.1-9.5,4.2
		c-3.6,0-7.1-1.4-9.6-3.9C18.5,38.9,17.6,39.2,16.9,39.7z"/>
	<path class="st0" d="M28.7,6.3c-11.6,0-20.9,9.3-20.9,20.9s9.3,20.9,20.9,20.9s20.9-9.3,20.9-20.9S40.3,6.3,28.7,6.3z M25.4,17.3
		H32v0.9l0,0l0,0l0,0l-1.4,0.8l0,0l0,0v13.2h0.2l1.4,0.8v0.9h-6.6v-0.8l1.5-0.9h0.2V18.9l0,0l0,0L25.7,18v-0.8H25.4z M10.7,33.8
		c-0.8-2.1-1.2-4.4-1.2-6.6C9.5,18,16,10.2,25,8.3C23.8,24.7,13.6,32.2,10.7,33.8z M28.9,46.4c-5.7,0-11.1-2.4-14.7-6.8
		c14.1-7.8,26.4-2,29.4-0.2C40,43.9,34.6,46.4,28.9,46.4z M46.7,34c-12-7.1-14.4-24.5-14.6-25.7c9.2,1.7,15.9,9.6,15.9,18.9
		C47.9,29.6,47.6,31.9,46.7,34z"/>
	<g>
		<polygon class="st0" points="69.7,28 69.6,28 69.3,28 69.1,28 69.3,28.3 69.6,28.3 69.6,28.3 69.7,28.3 69.7,28.3 70,28.3 70,28 
					"/>
		<path class="st0" d="M57.7,14.1L57.7,14.1C57.6,14,57.6,14.1,57.7,14.1c-0.3,0.2-0.3,0.3-0.5,0.5h0.3
			C57.6,14.3,57.7,14.3,57.7,14.1z"/>
		<path class="st0" d="M63.7,12.6L63.7,12.6L63.7,12.6l0.2-0.3h-0.2l0,0h-0.3c-0.2,0-0.2,0.2-0.3,0.3h0.3H63.7z"/>
		<path class="st0" d="M60.6,12.6h-0.3c-0.2,0-0.2,0.2-0.3,0.3h0.3C60.4,12.8,60.4,12.6,60.6,12.6z"/>
		<path class="st0" d="M56.2,15.3V15c-0.2,0-0.2,0.2-0.3,0.3l0,0H56.2z"/>
		<path class="st0" d="M54.7,17.4L54.7,17.4v-0.3l0,0c0-0.2-0.2-0.2-0.3-0.3v0.3l0,0v0.2l0,0v0.3h0.3V17.4z"/>
		<path class="st0" d="M56.2,15v0.3C56.2,15.2,56.4,15.2,56.2,15L56.2,15z"/>
		<path class="st0" d="M66.3,18.3V18l0,0v-0.2l0,0c0-0.2-0.2-0.2-0.3-0.3v0.3l0,0V18l0,0v0.3l0,0v0.3L66.3,18.3L66.3,18.3z"/>
		<path class="st0" d="M69.7,12.2h-0.3c0,0,0,0.2-0.2,0.2h0.2C69.6,12.2,69.7,12.2,69.7,12.2z"/>
		<path class="st0" d="M66.3,17.1L66.3,17.1c-0.2-0.2-0.2,0-0.3,0.2l0,0v0.2C66.1,17.3,66.1,17.3,66.3,17.1L66.3,17.1z"/>
		<path class="st0" d="M69,12.6c-0.2,0-0.2,0.2-0.3,0.3H69V12.6z"/>
		<polygon class="st0" points="64.5,12.6 64.6,12.6 64.5,12.3 64.2,12.3 64,12.3 64,12.6 64.2,12.6 		"/>
		<path class="st0" d="M64.6,14.1h0.3c0-0.2,0.2-0.2,0.2-0.3h-0.2C64.8,14,64.8,14.1,64.6,14.1z"/>
		<path class="st0" d="M65.4,13.5L65.4,13.5v-0.3l-0.3-0.3v0.3c0,0,0,0.2,0,0.3l0,0V14C65.2,13.8,65.2,13.7,65.4,13.5L65.4,13.5z"/>
		<path class="st0" d="M61.9,16.5c-0.2-0.2-0.2-0.2-0.2-0.3l0,0v-0.2l-0.2-0.2v0.2v0.3l0,0C61.6,16.4,61.8,16.5,61.9,16.5L61.9,16.5
			L61.9,16.5L61.9,16.5L61.9,16.5z"/>
		<path class="st0" d="M55.9,18.3L55.9,18.3c0.2-0.2,0.2-0.2,0.3-0.2H57c0-0.2,0.2-0.2,0.3-0.2h0.5l0,0h0.2c0-0.2,0.2-0.2,0.3-0.3
			h0.8c0.2,0,0.2,0.2,0.3,0.3h0.3l-0.3-0.3l0,0l0.3,0.3h0.3l0.2,0.2v0.2c0,0.2,0.2,0.2,0.2,0.3h0.2l0.3,0.3h0.2l0,0h0.6
			c0-0.2,0.2-0.2,0.2-0.3h0.5c0-0.2,0.2-0.2,0.3-0.3l0,0c0-0.2,0.2-0.3,0.3-0.5l0,0v-0.3l0,0v-0.2l0,0v-0.3l0,0V17h-0.3v0.3l0,0v0.2
			l0,0v0.3l0,0V18l0,0v-1.4h-0.3l0,0l-0.2-0.2c-0.2-0.2-0.2-0.2-0.2-0.3V15c0-0.2,0.2-0.2,0.2-0.3s0.2-0.2,0.2-0.2h0.3
			c0-0.2,0.2-0.2,0.3-0.3h1.8c0-0.2,0.2-0.2,0.2-0.3h0.3c0-0.2,0.2-0.2,0.3-0.3h0.2v-0.6l-0.3-0.3l-0.3-0.3h-4.1
			c-0.2,0-0.2,0.2-0.3,0.3h-0.5c-0.2,0-0.2,0.2-0.2,0.2c-0.2,0-0.2,0.2-0.3,0.3l0,0c-0.2,0-0.2,0.2-0.3,0.3l0,0l0,0h-0.2h-0.2
			c-0.2,0-0.2,0.2-0.3,0.3h-0.3L58,14h-0.3v0.3c-0.2,0-0.2,0.2-0.2,0.3h-0.2c-0.2,0-0.2,0.2-0.2,0.3c-0.2,0-0.2,0.2-0.3,0.2h-0.3
			c-0.2,0-0.2,0.2-0.3,0.3c0-0.2-0.2,0-0.2,0h-0.5c-0.2,0-0.2,0.2-0.2,0.2h-0.3c-0.2,0-0.2,0.2-0.3,0.3h-0.2c-0.2,0-0.2,0.2-0.3,0.2
			l0,0v0.3l0,0v0.2l0,0v0.5c0.2,0,0.2,0.2,0.3,0.3v0.8c0,0,0.2,0.2,0.3,0.2l0,0c-0.2-0.2-0.2-0.2-0.3-0.2v-0.3h-0.2l0,0v0.3
			c0.2,0,0.2,0.2,0.3,0.2c0,0,0.2,0,0.3,0c0,0.2,0.2,0.2,0.3,0.2L55.9,18.3L55.6,18l0,0L55.9,18.3L55.9,18.3L55.9,18.3L55.9,18.3
			L55.9,18.3z"/>
		<path class="st0" d="M70.5,12.2c0-0.2-0.2-0.2-0.2-0.3h-0.2v0.3H70.5L70.5,12.2z"/>
		<polygon class="st0" points="73.6,12.8 73.5,12.6 73.2,12.6 73.5,12.8 		"/>
		<path class="st0" d="M70,11.9c-0.2,0-0.2,0.2-0.3,0.3H70V11.9z"/>
		<path class="st0" d="M74.4,12.6L74.4,12.6c-0.3,0-0.3,0.2-0.5,0.3h0.3C74.2,12.8,74.2,12.6,74.4,12.6z"/>
		<path class="st0" d="M76.3,12.6L76.3,12.6c0.2-0.2,0-0.2,0-0.3h-0.2h-0.3L76.3,12.6L76.3,12.6z"/>
		<rect x="75.3" y="12.2" class="st0" width="0.8" height="0.2"/>
		<path class="st0" d="M63.7,20.9L63.7,20.9h0.5v-0.3h-0.3h-0.2h-0.3c-0.2,0-0.2,0.2-0.3,0.3h0.3H63.7z"/>
		<path class="st0" d="M55.9,31.4v-0.2c-0.2,0-0.2,0.2-0.3,0.2H55.9z"/>
		<path class="st0" d="M70.9,12.2c0,0,0.2,0.2,0.3,0.2h0.2c0-0.2-0.2-0.2-0.2-0.2H70.9z"/>
		<path class="st0" d="M63.3,32.2L63.3,32.2C63.1,32,63.1,32,63,31.9v0.3l0,0c0.2,0,0.2,0.2,0.2,0.2h0.3l0,0
			C63.4,32.3,63.4,32.2,63.3,32.2z"/>
		<path class="st0" d="M61.5,21.5c-0.2,0-0.2,0.2-0.3,0.2l0.3,0.3v-0.3V21.5z"/>
		<path class="st0" d="M65.8,34.7c0-0.2,0.2-0.2,0.2-0.2v-0.5c0,0.2-0.2,0.3-0.2,0.5V34.7z"/>
		<path class="st0" d="M67.9,36.1c0,0,0.2,0.2,0.2,0.3L67.9,36.1L67.9,36.1L67.9,36.1z"/>
		<polygon class="st0" points="55.8,29.2 55.9,29.3 55.9,29.2 55.9,28.9 55.8,28.9 		"/>
		<path class="st0" d="M57.7,39.2c-0.2,0-0.2,0.2-0.2,0.2h0.2H58c0-0.2,0.2-0.2,0.2-0.2H58H57.7z"/>
		<path class="st0" d="M71.8,37.4L71.8,37.4c-0.2,0-0.2,0.2-0.3,0.2h0.3H72l0,0c0.2,0,0.2-0.2,0.2-0.2H71.8L71.8,37.4z"/>
		<path class="st0" d="M68.1,36.5v0.2l0,0v0.2l0.3,0.3v-0.3v-0.2l0,0l0,0C68.2,36.7,68.2,36.5,68.1,36.5z"/>
		<path class="st0" d="M68.1,35.8L68.1,35.8v-0.2v-0.3c-0.2,0-0.2,0.2-0.2,0.3l0,0l0,0L68.1,35.8L68.1,35.8l-0.2,0.3h0.2V35.8z"/>
		<polygon class="st0" points="55.9,31.4 55.8,31.4 55.8,31.7 55.8,31.7 55.9,31.9 55.9,31.7 55.9,31.7 		"/>
		<polygon class="st0" points="62.2,17 62.4,17 62.2,16.7 		"/>
		<path class="st0" d="M62.8,14.6c0.5,0,0.5,0,0.5-0.3h-0.5V14.6z"/>
		<path class="st0" d="M61.6,21.4h0.3c0-0.2,0.2-0.2,0.3-0.3h-0.3C61.8,21.2,61.8,21.2,61.6,21.4z"/>
		<path class="st0" d="M62.4,14.4c-0.2,0-0.2,0.2-0.3,0.3h-0.2c-0.2,0-0.2,0.2-0.2,0.2c-0.2,0-0.2,0.2-0.2,0.3h0.2
			c0-0.2,0.2-0.2,0.2-0.3c0-0.2,0.2-0.2,0.3-0.2h0.2C62.4,14.6,62.5,14.6,62.4,14.4L62.4,14.4z"/>
		<path class="st0" d="M55.9,30.4L55.9,30.4v-0.3c-0.2,0-0.2,0.2-0.3,0.3l0,0c0,0.2,0.2,0.5,0.3,0.6V30.4z"/>
		<path class="st0" d="M56.8,25.9c0-0.2,0.2-0.2,0.3-0.3v-0.3c-0.2,0-0.2,0.2-0.3,0.3V25.9z"/>
		<path class="st0" d="M57.3,25.3L57.3,25.3V25C57.1,25,57.1,25.1,57.3,25.3L57.3,25.3L57.3,25.3l-0.2,0.2
			C57.1,25.4,57.3,25.3,57.3,25.3z"/>
		<path class="st0" d="M75.7,32.8c-0.2,0-0.2,0.2-0.2,0.3l0,0v0.2l0,0v0.3c0-0.2,0.2-0.2,0.2-0.3l0,0v-0.2l0,0V32.8z"/>
		<path class="st0" d="M75.3,34c0-0.2,0.2-0.2,0.3-0.3v-0.3c-0.2,0-0.2,0.2-0.3,0.3V34z"/>
		<path class="st0" d="M75,34.4v0.2c0-0.2,0.2-0.2,0.3-0.2v-0.3V34c-0.2,0-0.2,0.2-0.3,0.2V34.4z"/>
		<path class="st0" d="M71.4,17.1L71.4,17.1L71.4,17.1C71.2,17,71.2,17.1,71.4,17.1z"/>
		<path class="st0" d="M73.2,27.5C73,27.4,73,27.4,73,27.2c-0.2,0-0.2,0.2-0.3,0.3H73.2L73.2,27.5z"/>
		<path class="st0" d="M72.4,18.3L72.4,18.3c0,0.2,0.2,0.2,0.3,0.3v-0.3l0,0c-0.2,0-0.2-0.2-0.3-0.2V18.3z"/>
		<path class="st0" d="M70.2,28L70.2,28L70.2,28L70,28.3h0.2l0,0h0.2c0-0.2,0.2-0.2,0.3-0.3H70.2L70.2,28z"/>
		<path class="st0" d="M69.6,17.1h0.3c0,0.2,0.2,0.2,0.3,0.2l0,0l0,0l0.2-0.2l0,0V17h-0.2l0,0h-0.3v0.3l0,0V17
			C69.7,17,69.6,17.1,69.6,17.1z"/>
		<path class="st0" d="M73.2,18.8C73,18.6,73,18.6,73,18.5h-0.3L73.2,18.8L73.2,18.8z"/>
		<path class="st0" d="M75.3,16.2L75.3,16.2v-0.3c-0.2,0-0.2,0.2-0.3,0.3l0,0v0.3C75.1,16.4,75.1,16.4,75.3,16.2z"/>
		<path class="st0" d="M75,28.7c0,0.2,0.2,0.2,0.3,0.2h0.2C75.3,28.9,75.3,28.7,75,28.7L75,28.7z"/>
		<path class="st0" d="M77.1,13.1c-0.2,0-0.2-0.2-0.3-0.2l0,0l0,0C76.9,12.9,76.9,12.9,77.1,13.1v-0.3l0,0l-0.3-0.3l0,0h-0.6
			l-0.3-0.2H75c-0.2,0-0.2,0.2-0.3,0.3h-0.5c-0.2,0-0.2,0.2-0.2,0.3h-0.8L73,12.6h-0.6c-0.2,0-0.2,0.2-0.3,0.3h-0.6l-0.3-0.3l0,0
			l0.3,0.3h0.3l0,0H72h0.2c0-0.2,0.2-0.2,0.3-0.3h-0.3H72h-0.2h-0.3l-0.2-0.3l0,0h-0.2c-0.2,0-0.3-0.2-0.3-0.2h-1.2
			c-0.2,0-0.2,0.2-0.3,0.2h-0.2c-0.2,0-0.2,0.2-0.3,0.3v0.3h-0.3v0.2v0.3c-0.2,0-0.2,0.2-0.2,0.3V14c-0.2,0-0.2,0.2-0.3,0.2v0.3
			c-0.2,0-0.2,0.2-0.3,0.3c-0.2,0-0.2,0.2-0.2,0.3v0.2c-0.2,0-0.2,0.2-0.3,0.3v-0.2l0,0v0.2c0,0.2-0.2,0.2-0.2,0.3v0.2l0,0
			c-0.2,0-0.3,0.2-0.5,0.3c-0.2,0-0.2,0.2-0.2,0.3c-0.2,0-0.2,0.2-0.3,0.2c0,0.2,0,0.2-0.2,0.3v0.3c-0.2,0-0.2,0.2-0.3,0.2v0.3
			c0.2,0,0.2,0.2,0.3,0.3v0.3L66,18.6v0.3c0.2,0,0.2,0.2,0.3,0.3l0,0c0-0.2-0.2-0.2-0.3-0.3v0.3l0,0v0.2v0.3l0,0l0,0
			c0,0-0.2,0.2-0.2,0.3v0.2l0,0c0,0-0.2,0.2-0.3,0.2c-0.2,0-0.2,0.2-0.3,0.3h-0.3c-0.2,0-0.2,0.2-0.2,0.3h-0.5
			c-0.2,0-0.2,0.2-0.2,0.3l0,0c0-0.2,0.2-0.2,0.2-0.3h-0.2v0.3h-1.8c-0.2,0-0.2,0.2-0.3,0.2c-0.2,0-0.2,0.2-0.3,0.3h-0.2
			c-0.2,0-0.2,0.2-0.2,0.3v0.5l0,0l0,0l0,0l0,0l0.2,0.2c0-0.2,0-0.2,0-0.2s0,0,0,0.2h0.8c0,0,0.2,0.2,0.2,0.3h0.3l0,0h0.3v-0.3l0,0
			l0,0v0.2h0.2l0,0h1.7l0.2,0.2h0.2l0,0l0,0l0,0V23v0.3v0.2v0.3l0,0l0,0v0.6c-0.2,0-0.2,0.2-0.3,0.2l0,0c-0.2,0-0.2,0.2-0.3,0.3
			h-0.5c-0.2,0-0.2,0.2-0.3,0.3h-0.2c-0.2,0-0.2,0.2-0.3,0.3h-0.3c-0.2,0-0.2,0.2-0.2,0.2h-0.3c-0.2,0-0.2,0.2-0.3,0.3h-0.9
			c-0.2,0-0.2,0.2-0.2,0.3h-0.9l-0.3-0.3l-0.3-0.3l-0.2-0.2c-0.2-0.2-0.2-0.2-0.2-0.3l-0.3-0.3l-0.3-0.3h-0.8l0,0h0.3h0.5h0.3
			c-0.2,0-0.2-0.2-0.3-0.2h-0.2h-0.3h-0.3l0,0H58c-0.2,0-0.3,0.2-0.5,0.2c-0.2,0-0.2,0.2-0.3,0.3v0.5c-0.2,0-0.2,0.2-0.2,0.2v0.3
			c-0.2,0-0.2,0.2-0.3,0.3c-0.2,0-0.2,0.2-0.3,0.2c-0.2,0-0.2,0.2-0.3,0.2v0.3l0,0v-0.3c-0.2,0-0.2,0.2-0.2,0.3l0,0v0.3l-0.2,0.2
			v0.3l0,0v-0.3c-0.2,0-0.2,0.2-0.3,0.3l0,0v0.3l0,0v0.8c0,0,0.2,0.2,0.3,0.2l0,0c-0.2-0.2-0.2-0.2-0.3-0.2v0.2l0,0v0.3l0,0h0.3
			v-0.2v-0.3l0,0v3.8c0,0,0.2,0.2,0.3,0.2c0.2,0,0.3,0.2,0.5,0.2l0.3,0.3h0.5l0.3,0.3h0.2c0-0.2,0.2-0.2,0.3-0.3h0.8
			c0-0.2,0.2-0.2,0.2-0.3h0.3c0.3-0.2,0.5-0.2,0.8-0.2c0-0.2,0.2-0.2,0.2-0.2h0.9c0-0.2,0.2-0.2,0.3-0.3h0.3c0,0,0.2,0.2,0.2,0.3
			c0.2-0.2,0.5-0.2,0.8-0.3h0.8c0.2,0,0.2,0.2,0.2,0.3c0.2,0,0.2,0.2,0.3,0.2c0,0,0.2,0.2,0.3,0.2l0,0l0,0c-0.2-0.2-0.2-0.2-0.3-0.2
			v0.2l0,0l0.3,0.3c-0.2,0.8-0.2,0.8-0.5,0.9c-0.2,0-0.2,0.2-0.2,0.3c-0.2,0-0.2,0.2-0.3,0.2H63c-0.2,0-0.2,0.2-0.2,0.3l0,0h-0.2
			c-0.2,0-0.2,0.2-0.2,0.2l0,0c-0.2,0-0.2,0.2-0.2,0.3c-0.2,0-0.2,0.2-0.2,0.2c-0.2,0-0.3,0.2-0.5,0.3l0,0h-0.2h-0.2
			c-0.2,0-0.2,0.2-0.2,0.2H61c-0.2,0-0.2,0.2-0.2,0.2c-0.2,0-0.2,0.2-0.2,0.3l-0.5,0.5h-1.4c-0.2,0-0.2,0.2-0.2,0.2h-0.5
			c-0.2,0-0.2,0.2-0.2,0.2c-0.2,0-0.2,0.2-0.3,0.3c-0.2,0-0.2,0.2-0.2,0.3h-0.9c-0.2,0.2-0.3,0.3-0.5,0.5V38c0.2,0,0.2,0.2,0.2,0.3
			v0.6l0.3,0.3h0.3c0,0,0.2,0.2,0.3,0.2h0.5c0-0.2,0.2-0.2,0.2-0.2h0.5c0-0.2,0.2-0.2,0.3-0.3h0.2c0-0.2,0.2-0.2,0.3-0.3
			c0.2-0.2,0.3-0.2,0.5-0.2c0-0.2,0.2-0.2,0.2-0.2c0.2-0.2,0.3-0.2,0.5-0.3c0-0.2,0.2-0.2,0.3-0.3c0.2-0.2,0.3-0.3,0.5-0.5h1.8
			c0,0.2,0.2,0.2,0.3,0.2c0.2,0.2,0.2,0.2,0.2,0.3V38c0.2,0,0.2,0.2,0.3,0.3l0,0c0-0.2-0.2-0.2-0.3-0.3v0.3l0,0v0.2v0.2v0.3v0.3v0.2
			l0,0v0.3c-0.2,0-0.2,0.2-0.2,0.3v0.3c-0.2,0-0.2,0.2-0.3,0.3l0,0v0.3l0,0l0,0l0,0v0.3l0,0v0.2l0,0v0.3l0.3,0.3l0,0l0,0v0.2
			c0.2,0,0.2,0.2,0.2,0.3l0,0l0,0v0.3l0,0l0,0l0.2,0.2l0,0c0,0,0.2,0.2,0.3,0.2v0.3c0,0,0.2,0.2,0.2,0.3v0.3c0,0.2,0.2,0.2,0.3,0.3
			l0,0h1.2c0-0.2,0.2-0.2,0.3-0.2c0-0.2,0.2-0.2,0.3-0.3c0-0.2,0.2-0.2,0.2-0.3V43v-0.2v-0.3l0,0v-0.3L66,42.1l0,0l0.2,0.2v-0.2
			v-0.3v-0.3l0,0v-0.2c0-0.2-0.2-0.2-0.2-0.3v-0.8l0,0v-0.2l-0.3-0.3v-1.2c0-0.2,0.2-0.2,0.3-0.2l-0.3-0.3v-0.3
			c0-0.2,0.2-0.2,0.3-0.3l0,0v-0.2l0,0l0,0c-0.2-0.2-0.2-0.3-0.3-0.5v0.5l0,0v0.2l0,0V35c0-0.2,0.2-0.2,0.3-0.2v-0.5
			c0-0.2,0.2-0.3,0.2-0.5v-1.4l0,0v0.3v0.3l0,0v0.2l0,0v0.3c0-0.2,0.2-0.2,0.3-0.3l0,0v-0.2l0,0v-0.3v-0.3l0,0
			c0-0.2-0.2-0.2-0.3-0.2v-0.2c0.2-0.2,0.2-0.3,0.3-0.5l0,0v-0.3h-0.3l0,0h0.3v-0.2v-0.3l0,0V31l0,0v-0.2c0-0.5,0-0.5,0.2-0.5l0,0
			v-0.3l0.3-0.3c0-0.2,0.2-0.2,0.2-0.2h0.3c0-0.2,0.2-0.2,0.3-0.3h0.3c0-0.2,0.2-0.2,0.2-0.3l0,0c-0.2,0-0.2,0.2-0.2,0.3h0.2h0.3
			c0-0.2,0.2-0.2,0.3-0.3H69l0.3,0.3h0.2l0,0h0.8c0,0,0.2,0.2,0.2,0.3h0.2h0.3h0.2h0.3l0,0v0.2c0.2,0,0.2,0.2,0.2,0.3v0.3l0,0v0.2
			v0.2V31c0-0.2,0.2-0.2,0.3-0.3v-0.2l0,0v0.2c-0.2,0-0.2,0.2-0.3,0.3v0.9c-0.2,0-0.2,0.2-0.2,0.3l0,0v0.2l0,0v0.8
			c-0.2,0-0.2,0.2-0.3,0.2l0,0v0.2c-0.2,0.5-0.2,0.5-0.5,0.8l0,0h-0.2h-0.2h-0.3h-0.3h-0.2c-0.2,0-0.2,0.2-0.2,0.2H69
			c-0.2,0-0.2,0.2-0.2,0.2c-0.2,0-0.2,0.2-0.3,0.3c-0.2,0-0.2,0.2-0.3,0.2v1.4c0,0,0.2,0.2,0.3,0.2v0.5l0.3,0.3
			c0,0.2,0.2,0.2,0.2,0.2h0.3l0.3,0.3h1.1c0-0.2,0.2-0.2,0.3-0.3h0.9c0-0.2,0.2-0.2,0.3-0.2h0.5c0.8-0.2,0.8-0.2,1.2-0.5
			c0-0.2,0.2-0.2,0.3-0.2l0,0c0-0.2,0.2-0.2,0.2-0.2v-0.3c0-0.2,0.2-0.2,0.3-0.3v-0.3c-0.2,0-0.2,0.2-0.3,0.3l0,0
			c0-0.2,0.2-0.2,0.3-0.3c0-0.2,0.2-0.2,0.2-0.2V35c0-0.2,0.2-0.2,0.3-0.3c0-0.2,0.2-0.2,0.2-0.2c0-0.2,0.2-0.2,0.3-0.3v-0.5
			c0-0.2,0.2-0.2,0.3-0.2v-0.3c0-0.2,0.2-0.2,0.3-0.3v-0.5c0-0.2,0.2-0.2,0.2-0.3V32l0,0v0.3c0-0.2,0.2-0.2,0.3-0.3l0,0l0,0l0,0l0,0
			v-0.2l0,0c0-0.2,0.2-0.2,0.3-0.2l0,0v0.2l0,0v-0.3l0,0v-0.3h-0.3v0.3l0,0v-0.3l0,0h0.3v-0.2l0,0v-0.3c0-0.2,0.2-0.2,0.2-0.3v-0.2
			c0-0.2,0.2-0.2,0.2-0.2l0,0v-0.3v-0.3c0-0.2-0.2-0.2-0.2-0.2v0.2v0.3v0.5l0,0v-0.8c-0.2-0.2-0.2-0.2-0.2-0.3L76.5,29l-0.8-0.2
			h-0.5c-0.2,0-0.2-0.2-0.3-0.2h-0.3c0-0.2-0.2-0.2-0.2-0.3c-0.2-0.2-0.2-0.2-0.3-0.2s-0.2-0.2-0.2-0.3s-0.2-0.2-0.2-0.2
			c0-0.2-0.2-0.2-0.2-0.3h-1.4c-0.2,0-0.2,0.2-0.3,0.3H72c-0.2,0-0.2,0.2-0.2,0.2h-1.2c-0.2,0-0.2,0.2-0.3,0.3h-1.1L69,28h-1.4
			c0-0.2-0.2-0.2-0.2-0.2c-0.2-0.2-0.3-0.2-0.5-0.3c0-0.2-0.2-0.2-0.2-0.3l0,0c0.2,0,0.2,0.2,0.2,0.3v-0.2v-0.3l0,0l0,0l-0.2-0.2
			v-0.3c0-0.2,0.2-0.2,0.2-0.3s0.2-0.2,0.3-0.2V26l0,0l0,0h0.2c0-0.2,0.2-0.2,0.2-0.3l0.2-0.2h0.9l0,0h0.2h0.3l0.2-0.2l0,0
			c0-0.2,0.2-0.3,0.3-0.5v-0.3c-0.2,0-0.2-0.2-0.3-0.2c0-0.2-0.2-0.2-0.2-0.2l0,0l0,0l0.2,0.2v-0.2l0,0l0,0l-0.2-0.2H69l0,0l0,0
			l-0.2-0.2l-0.2-0.2l0,0l0.2,0.2v-0.2v-0.3v-0.8v-0.2l0,0c0-0.2,0.2-0.2,0.3-0.2c0-0.2,0.2-0.2,0.3-0.3c0-0.2,0.2-0.2,0.2-0.2h0.3
			c0-0.2,0.2-0.2,0.3-0.3c0-0.2,0.2-0.2,0.2-0.2h0.2c0-0.2,0.2-0.2,0.3-0.3l0,0c0-0.2,0.2-0.2,0.3-0.3v-0.2l-0.3-0.2l0,0
			c0-0.2-0.2-0.2-0.3-0.3h-0.3C70,20.3,70,20.3,70,20.3h-0.2l0,0h-0.3c-0.2,0-0.2-0.2-0.2-0.2H69V20c-0.2-0.2-0.2-0.2-0.2-0.3V20
			l0.2,0.2l0,0c-0.2,0-0.2-0.2-0.2-0.2v-0.3l-0.3-0.3c-0.2-0.2-0.2-0.5-0.3-0.8l0,0c0,0.3,0.2,0.5,0.3,0.8v-0.8l0,0v-0.3l0,0V18l0,0
			c0.2-0.2,0.3-0.3,0.5-0.5h0.2l0,0c0-0.2,0.2-0.2,0.3-0.3h-0.2l0,0h0.3l0.2-0.2c0-0.2,0.2-0.2,0.3-0.3h1.7l0,0V17l0,0H72l0,0h0.2
			l0.2,0.2v0.3c0.2,0,0.2,0.2,0.2,0.3c0,0,0.2,0.2,0.3,0.2c0,0.2,0.2,0.2,0.3,0.2v0.3h0.3c0,0,0.2,0.2,0.2,0.3l0.3,0.3H75v-0.3l0,0
			v0.3l0,0h-0.2h-0.2h-0.8h-0.2h-0.3c0,0,0.2,0.2,0.3,0.2h0.2h0.3h0.2h0.5c0-0.2,0.2-0.2,0.3-0.2l0,0c0-0.2,0.2-0.2,0.3-0.3l0,0
			v-0.3l0,0l0,0l0,0c0-0.2,0.2-0.2,0.3-0.2v-0.3l0,0l-0.2-0.2l0,0l0,0v-0.3l0,0c-0.2,0-0.2-0.2-0.3-0.2v-1.1c0-0.2,0.2-0.2,0.3-0.3
			c0-0.2,0.2-0.2,0.3-0.2c0-0.2,0.2-0.2,0.2-0.3c-0.3,0-0.2-0.2-0.2-0.2h0.3c0-0.2,0.2-0.2,0.2-0.3l0,0c-0.2,0-0.2,0.2-0.2,0.3h0.2
			c0-0.2,0.2-0.2,0.2-0.3l0,0c0-0.2,0.2-0.2,0.3-0.3v-0.2c0-0.2,0.2-0.2,0.3-0.3C77.1,14.3,77.1,13.1,77.1,13.1z M63.6,29.2
			c-0.2,0-0.2,0.2-0.3,0.3c-0.2,0-0.2,0.2-0.2,0.3c-0.3,0-0.5,0.2-0.8,0.2c-0.2,0-0.2,0.2-0.3,0.3h-0.5c-0.2,0-0.2,0.2-0.2,0.3h-1.2
			l0,0L60,30.2h-0.5l-0.3-0.3v-0.2v-0.3l0,0v-0.3v-0.3c0-0.2,0.2-0.2,0.3-0.2c0-0.2,0.2-0.2,0.2-0.3s0.2-0.2,0.2-0.2h0.5
			c0-0.2,0.2-0.2,0.2-0.3h0.9l0,0l0,0l0,0c0-0.2,0.2-0.2,0.2-0.2h0.9c0.3,0,0.6,0.2,0.9,0.2v0.3l0,0v0.2l0,0v0.3l0,0v0.2l0,0l0,0
			C63.7,29,63.6,29,63.6,29.2z"/>
		<path class="st0" d="M65.4,24.1c-0.2,0-0.2,0.2-0.3,0.2v0.2C65.1,24.2,65.2,24.2,65.4,24.1L65.4,24.1z"/>
		<path class="st0" d="M77.1,14.4c-0.2,0-0.2,0.2-0.3,0.3l0,0v0.2c0-0.2,0.2-0.2,0.3-0.2l0,0V14.4z"/>
		<path class="st0" d="M63.1,25.4c0-0.2,0.2-0.2,0.2-0.2h-0.2V25.4z"/>
		<path class="st0" d="M62.8,25.4h0.3v-0.2C63,25.3,63,25.4,62.8,25.4h-0.3h-0.2c-0.2,0-0.2,0.2-0.3,0.3h0.3h0.2
			C62.7,25.6,62.8,25.6,62.8,25.4z"/>
		<path class="st0" d="M77.4,13.7L77.4,13.7c-0.2-0.2-0.2-0.3-0.3-0.5v0.5l0,0v0.5C77.2,14,77.2,13.8,77.4,13.7L77.4,13.7L77.4,13.7
			L77.4,13.7z"/>
		<path class="st0" d="M65.8,35.3V35l0,0v-0.2c-0.2,0-0.2,0.2-0.3,0.2l0,0l0,0v0.3v0.3h0.3V35.3z"/>
		<path class="st0" d="M62.8,37.6h0.3c-0.2,0-0.2-0.2-0.3-0.2h-0.3v0.2H62.8L62.8,37.6z"/>
		<path class="st0" d="M65.7,35.8c0-0.2,0.2-0.2,0.3-0.2h-0.3V35.8z"/>
		<path class="st0" d="M61.5,32.2L61.5,32.2c0-0.2,0-0.2,0-0.3h-0.3l0,0l0,0c-0.2,0-0.2,0.2-0.3,0.3h0.3l0,0H61.5z"/>
		<path class="st0" d="M62.8,31.9h-0.3h-0.2c0.2,0.2,0.2,0.2,0.2,0.3C62.7,32,62.8,32,62.8,31.9z"/>
		<path class="st0" d="M57.3,32.8L57.3,32.8c-0.2,0,0,0.2,0,0.3h0.3L57.3,32.8z"/>
		<path class="st0" d="M59.2,32.6h-0.3c-0.2,0-0.2,0.2-0.2,0.3l0,0h0.2l0,0C59.1,32.8,59.1,32.6,59.2,32.6z"/>
	</g>
	<g>
		<path class="st0" d="M99.1,27.5L99.1,27.5h0.5h0.3c0-0.2,0.2-0.2,0.3-0.3h-0.3h-0.3h-0.3h-0.2C99,27.2,99,27.4,99.1,27.5
			L99.1,27.5L99.1,27.5z"/>
		<path class="st0" d="M87.1,27.5h0.3v-0.2h-0.3H87c-0.2,0-0.2,0.2-0.3,0.3H87h0.2V27.5z"/>
		<path class="st0" d="M104.8,27.1h-0.3c-0.2,0-0.2,0.2-0.2,0.3h0.2C104.7,27.2,104.8,27.1,104.8,27.1z"/>
		<path class="st0" d="M106.9,26.6L106.9,26.6L106.9,26.6c0.2-0.2,0-0.2,0-0.3h-0.3c-0.2,0-0.2,0.2-0.3,0.3h0.3H106.9z"/>
		<path class="st0" d="M105.7,26.9c0-0.2,0.2-0.2,0.3-0.3h-0.3c-0.2,0-0.2,0.2-0.3,0.3H105.7L105.7,26.9z"/>
		<path class="st0" d="M92.8,31.3c0,0.2,0.2,0.2,0.3,0.2h0.2c-0.2,0-0.2-0.2-0.2-0.2H92.8z"/>
		<path class="st0" d="M92.2,31h-0.3c0.2,0,0.2,0.2,0.2,0.3h0.3h0.3L92.2,31L92.2,31z"/>
		<path class="st0" d="M88.8,31.4L88.8,31.4h-0.5H88c0,0.2,0.2,0.2,0.3,0.3h0.3l0,0h0.2h0.2c0-0.2,0.2-0.2,0.3-0.3H88.8L88.8,31.4z"
			/>
		<path class="st0" d="M94,31.7v-0.3h-0.2C93.9,31.6,94,31.6,94,31.7z"/>
		<polygon class="st0" points="87,29.2 87,28.9 86.7,28.9 		"/>
		<path class="st0" d="M87,29.6v0.2c0,0,0.2,0.2,0.2,0.3v-0.3L87,29.6c0-0.2,0-0.2,0-0.3V29.6z"/>
		<path class="st0" d="M111.3,28.9L111.3,28.9v-0.2v-0.3c-0.2-0.2-0.2-0.2-0.3-0.2V28c-0.2-0.2-0.2-0.2-0.3-0.2l0,0
			c0,0,0.2,0.2,0.3,0.2v-0.2l0,0l0,0l-0.2-0.2l0,0c-0.2-0.2-0.2-0.2-0.2-0.3h-0.3l0,0h0.2c-0.2,0-0.2-0.2-0.3-0.3h-0.3
			c-0.2,0-0.2-0.2-0.3-0.2c0-0.2-0.2-0.2-0.2-0.3h-3.8c-0.2,0-0.2,0.2-0.3,0.3H105c-0.2,0-0.2,0.2-0.2,0.2h-0.3
			c-0.2,0-0.2,0.2-0.3,0.3h-2.1l0,0h0.2c0-0.2-0.2-0.2-0.2-0.3h-0.3l0,0h-0.5c-0.2,0-0.2,0.2-0.3,0.3h-0.3c-0.2,0-0.2,0.2-0.3,0.3
			h-0.6l0,0h0.3h0.8h0.2c0-0.2,0.2-0.2,0.3-0.3h-0.3h-0.2h-0.2h-0.3h-0.3l0,0H100c-0.2,0-0.2,0.2-0.3,0.3h-1.2
			c-0.2,0-0.2,0.2-0.3,0.3l0,0c0-0.2,0.2-0.2,0.3-0.3h-0.3l0,0c-0.2,0-0.2,0.2-0.2,0.3l0,0h-0.2c-0.2,0-0.2,0.2-0.3,0.2l0,0
			c0-0.2,0.2-0.2,0.3-0.2h-0.3l0,0h-0.2l0,0h-0.8c0-0.2-0.2-0.2-0.3-0.3l0,0c-0.2,0-0.2,0.2-0.2,0.3l0,0h-1.2l0,0h-0.2h-0.2h-0.3
			h-0.3l0,0h-0.3h-0.2h-0.3l0,0h-0.2H93l0,0h-0.2l0.2,0.2l0,0L92.8,28h-0.3c-0.2,0-0.2,0.2-0.3,0.2h-0.5C91.6,28,91.6,28,91.5,28
			h-0.2v0.2l0,0l0,0V28H91l0,0h-0.3c0,0,0.2,0.2,0.3,0.2l0,0C90.9,28,90.9,28,90.7,28h-0.9l-0.3-0.3h-0.2l0,0h-0.3l0,0
			c-0.5-0.2-1.1-0.3-1.7-0.3v0.3c-0.2,0-0.2,0.2-0.3,0.3l0,0c0-0.2,0.2-0.2,0.3-0.3h-0.3H87h-0.3V28l0,0l0,0v0.2l0,0v0.3H87l0,0
			h-0.3v0.2l0,0v0.3l0,0l0,0H87v-0.2l0,0v0.8c0,0,0.2,0.2,0.2,0.3v0.6c0,0,0.2,0.2,0.3,0.2v0.2l0.3,0.3c0.2,0,0.2,0.2,0.2,0.3
			c0.2,0,0.2,0.2,0.3,0.2h1.4l0.2-0.2h0.8c0-0.2,0.2-0.2,0.2-0.3h1.8l0.3,0.3h0.5c0,0.2,0.2,0.2,0.2,0.2H94c0,0.2,0.2,0.2,0.3,0.3
			l0,0c-0.2,0-0.2-0.2-0.3-0.3v0.3h0.3l0,0l0.3,0.3c0-0.2,0.2-0.2,0.3-0.3l0,0h0.8c0,0,0.2,0.2,0.2,0.3c0.2-0.2,0.3-0.2,0.5-0.3h0.2
			l0,0h0.2c0-0.2,0.2-0.2,0.2-0.3l0,0l-0.2-0.2l0,0c0,0.2,0.2,0.2,0.2,0.2h0.5c0,0.2,0.2,0.2,0.2,0.3h0.6l0,0c0-0.2,0.2-0.2,0.3-0.3
			l0.2-0.2h0.8l0,0h0.2c0-0.2,0.2-0.2,0.3-0.3h1.2l0,0h0.2h0.2h0.3h0.3h0.3l-0.3-0.3l0,0L102,31h0.9l0.3,0.3h0.2h0.3h0.2h0.2h0.3
			h0.3c0-0.2,0.2-0.2,0.2-0.3h0.3l0,0l0.2,0.2l0,0l0,0h0.2h0.2h0.3h0.3l-0.3-0.3l0,0l0.3,0.3l0,0c0,0.2,0.2,0.2,0.3,0.2h0.2
			c-0.2,0-0.2-0.2-0.2-0.2l0,0c0,0.2,0.2,0.2,0.2,0.2h0.5c0,0.2,0.2,0.2,0.2,0.3h0.2v-0.3l0,0v0.3h0.5c0-0.2,0.2-0.2,0.2-0.3h0.3
			c0,0.2,0.2,0.2,0.3,0.3h0.9c0-0.2,0.2-0.2,0.3-0.3h0.3c0-0.2,0.2-0.2,0.3-0.2c0.2-0.2,0.3-0.2,0.5-0.3c0.2-0.3,0.5-0.5,0.8-0.6
			l0,0l0.2-0.2v-0.5v-0.3V29v-0.2H111.3L111.3,28.9z"/>
	</g>
	<g>
		<polygon class="st0" points="140.9,20.6 140.9,20.6 140.9,20.6 141.2,20.9 141.2,20.6 140.9,20.5 		"/>
		<path class="st0" d="M140.9,20L140.9,20v-0.2l0,0v-0.3l0,0v-0.3h-0.3l0,0v0.3l0,0v0.3V20l0,0c0,0.2,0.2,0.2,0.3,0.2V20z"/>
		<path class="st0" d="M141.3,21.4c0-0.2-0.2-0.2-0.2-0.3L141.3,21.4L141.3,21.4l-0.2,0.3l0,0l0,0l0.2,0.2v-0.2l0,0V21.4L141.3,21.4
			z"/>
		<path class="st0" d="M137.3,21.5L137.3,21.5v0.2l0,0V22l0,0h0.2v-0.3L137.3,21.5L137.3,21.5l0.2-0.2l0,0v-0.3
			c-0.2,0-0.2,0.2-0.3,0.3l0,0L137.3,21.5L137.3,21.5z"/>
		<path class="st0" d="M137.7,20.1V20c-0.2,0.2-0.2,0.2-0.3,0.2v0.3v0.3c0-0.2,0.2-0.2,0.3-0.3V20.1z"/>
		<path class="st0" d="M137.4,22.3L137.4,22.3v-0.2h-0.3v0.2l0,0v0.3C137.3,22.4,137.4,22.3,137.4,22.3z"/>
		<path class="st0" d="M141.2,22.3L141.2,22.3v0.3l0,0v0.2l0.2-0.2l0,0L141.2,22.3L141.2,22.3l0.2-0.2
			C141.3,22.1,141.2,22.1,141.2,22.3z"/>
		<path class="st0" d="M150.3,28.4L150.3,28.4v0.3c0-0.2,0.2-0.2,0.3-0.3l0,0v-0.2V28c-0.2,0-0.2,0.2-0.3,0.3V28.4z"/>
		<path class="st0" d="M141.2,17.9c-0.2,0-0.2,0.2-0.3,0.2v0.3c0-0.2,0.2-0.2,0.3-0.2V17.9z"/>
		<polygon class="st0" points="151.1,35.8 151.1,36.1 151.2,36.1 		"/>
		<polygon class="st0" points="150.6,27.5 150.6,27.5 150.3,27.4 150.3,27.5 150.3,27.5 150.6,27.8 		"/>
		<path class="st0" d="M140.9,19.2v-0.2l0,0v-0.3l0,0v-0.3l0,0v-0.2c-0.2,0-0.2,0.2-0.3,0.3l0,0v0.3l0,0v0.3l0,0v0.2l0,0L140.9,19.2
			L140.9,19.2z"/>
		<path class="st0" d="M131,19.2v-0.2c-0.2,0-0.2,0.2-0.3,0.2l0,0l0,0v0.3C130.8,19.4,131,19.4,131,19.2L131,19.2z"/>
		<path class="st0" d="M130.1,21.1v-0.3C129.9,20.8,129.9,20.9,130.1,21.1L130.1,21.1L130.1,21.1l-0.2,0.3
			C129.9,21.2,129.9,21.2,130.1,21.1L130.1,21.1z"/>
		<path class="st0" d="M131.3,18.8v-0.3c-0.2,0-0.2,0.2-0.3,0.3l0,0v0.3C131.1,18.9,131.1,18.8,131.3,18.8L131.3,18.8z"/>
		<path class="st0" d="M137.3,23.6L137.3,23.6v-0.2c-0.2,0-0.2,0.2-0.3,0.2l0,0l0,0l0.3,0.3V23.6z"/>
		<path class="st0" d="M129.2,22.4c0-0.2,0.2-0.2,0.3-0.3l0,0V22c-0.2,0-0.2,0.2-0.3,0.2l0,0V22.4z"/>
		<path class="st0" d="M137.3,22.9L137.3,22.9v-0.3c-0.2,0-0.2,0.2-0.3,0.3l0,0l0.3,0.3V22.9z"/>
		<path class="st0" d="M128.1,23.9c-0.2,0-0.2,0.2-0.2,0.3l0,0l0,0v0.2c0-0.2,0.2-0.2,0.2-0.2V23.9z"/>
		<path class="st0" d="M150.2,27.1L150.2,27.1L150.2,27.1l-0.5-0.2C149.7,27.1,149.9,27.1,150.2,27.1L150.2,27.1L150.2,27.1z"/>
		<path class="st0" d="M137.7,31.9L137.7,31.9c0-0.2,0.2-0.2,0.2-0.3h-0.2l0,0c-0.2,0-0.2,0.2-0.3,0.3H137.7z"/>
		<path class="st0" d="M142.5,37.9L142.5,37.9v0.3c0-0.2,0.2-0.2,0.3-0.3l0,0c-0.2-0.2-0.2-0.3-0.3-0.5V37.9z"/>
		<path class="st0" d="M129,30.4v0.2C129,30.4,129.2,30.4,129,30.4c0-0.2,0-0.2,0-0.3V30.4z"/>
		<path class="st0" d="M128.7,29.6L128.7,29.6c0,0,0.2,0.2,0.3,0.2v-0.2l0,0v-0.3V29l0,0l-0.3-0.2v0.3l0,0V29.6L128.7,29.6z"/>
		<path class="st0" d="M136.7,36.1h-0.3v0.3l0,0v-0.3H136.7c-0.2-0.2-0.2-0.2-0.3-0.3v0.3l0,0v-0.3l0,0v-0.2l0,0l-0.2-0.2l0,0
			c-0.2-0.2-0.2-0.2-0.2-0.3l0,0c-0.2-0.2-0.2-0.2-0.3-0.2h-0.3l0,0H135c-0.2,0-0.2,0.2-0.3,0.2v0.5l0,0v-0.3
			c-0.2,0-0.2,0.2-0.3,0.3l0,0v0.2c0-0.2,0.2-0.2,0.3-0.2l0,0c-0.2,0-0.2,0.2-0.3,0.2v0.9l0,0v0.2v0.3l0,0l0.3,0.3l0,0
			c0,0.2,0.2,0.2,0.3,0.2c0.2,0.2,0.2,0.2,0.2,0.3l0,0h0.8c0-0.2,0.2-0.2,0.2-0.3l0,0v-0.2c-0.2,0-0.2,0.2-0.2,0.2l0,0
			c0-0.2,0.2-0.2,0.2-0.2c0-0.2,0.2-0.2,0.2-0.3v-0.3l0,0v0.3c0-0.2,0.2-0.2,0.3-0.3l0,0l0,0v-0.2h-0.3v0.2l0,0v-0.2h0.3v-0.2l0,0
			v-0.3l0,0v-0.2C136.5,36.1,136.7,36.1,136.7,36.1z"/>
		<polygon class="st0" points="131.3,38 131.3,37.9 131.3,37.9 131.3,37.6 131.3,37.6 131.3,37.4 131.1,37.4 131.1,37.6 131.1,37.6 
			131.1,37.9 131.1,37.9 131.1,38 131.1,38.3 131.3,38.3 		"/>
		<path class="st0" d="M131.3,38.6v-0.2H131C131.1,38.5,131.3,38.5,131.3,38.6z"/>
		<path class="st0" d="M134.9,22.7l0.2-0.2l0,0c0.2-0.2,0.2-0.3,0.3-0.5l0,0v-0.3l0,0v-0.2l0,0l0,0l0.2-0.2l0,0v-0.2l0,0l0,0
			l0.2-0.2v-0.3v-0.3v-0.3v-0.2l-0.2-0.2v-0.3l0,0v-0.2l0,0l-0.2-0.2l0,0l0,0v-0.2l0,0c0-0.2-0.2-0.2-0.2-0.2l0,0l0,0v-0.8V18
			l-0.2-0.2v-0.3l-0.3-0.3c-0.2,0-0.2-0.2-0.3-0.2h-0.2c-0.2-0.2-0.2-0.2-0.2-0.3h-0.3c-0.2,0-0.2,0.2-0.3,0.3l0,0
			c0-0.2,0.2-0.2,0.3-0.3h-0.3l0,0h-0.2h-0.2v0.3l0,0V17h-0.2v0.3l0,0V17c-0.2,0-0.2,0.2-0.3,0.3h-0.3c-0.2,0-0.2,0.2-0.3,0.2
			c-0.2,0-0.2,0.2-0.2,0.3c-0.2,0-0.2,0.2-0.3,0.3c-0.2,0-0.2,0.2-0.2,0.2l0,0c-0.2,0-0.2,0.2-0.2,0.2l0,0v0.3
			c0-0.2,0.2-0.2,0.3-0.3l0,0c-0.2,0-0.2,0.2-0.3,0.3v0.3c-0.2,0-0.2,0.2-0.3,0.3v0.2c-0.2,0-0.2,0.2-0.3,0.3v0.6
			c-0.2,0-0.2,0.2-0.2,0.3l0,0c0-0.2,0.2-0.2,0.2-0.3v-0.2V20l0,0v-0.3c-0.2,0-0.2,0.2-0.2,0.3l0,0v0.2l0,0
			c-0.2,0.2-0.2,0.2-0.3,0.2v0.3l0,0v0.2c-0.2,0-0.2,0.2-0.3,0.3v0.3c-0.2,0-0.2,0.2-0.2,0.3c-0.2,0-0.2,0.2-0.2,0.3
			c-0.2,0.2-0.2,0.3-0.3,0.5v0.2c-0.2,0-0.2,0.2-0.3,0.3c-0.2,0-0.2,0.2-0.2,0.2l-0.8,0.8c-0.2,0-0.2,0.2-0.2,0.2v0.5
			c-0.2,0-0.2,0.2-0.2,0.2c-0.2,0-0.2,0.2-0.3,0.2h-0.3c-0.2,0-0.2,0.2-0.2,0.3h-0.3c-0.2,0-0.2,0.2-0.3,0.3h-0.5l0,0H126
			c-0.2,0-0.2,0.2-0.2,0.3l0,0c-0.2,0.2-0.3,0.3-0.5,0.5c-0.2,0-0.2,0.2-0.3,0.3v0.3c-0.2,0-0.2,0.2-0.3,0.2v0.2l0,0
			c-0.2,0-0.2,0.2-0.2,0.3h-0.2c-0.2,0-0.2,0.2-0.3,0.2c-0.2,0-0.2,0.2-0.3,0.3v0.9c0,0,0.2,0.2,0.3,0.2l0.3,0.3
			c0,0.2,0.2,0.2,0.3,0.2h1.7c0.2,0,0.2-0.2,0.3-0.2h0.3l0,0h0.3c0-0.2,0.2-0.2,0.2-0.3l0,0c0-0.2,0.2-0.2,0.3-0.2h0.6
			c0,0,0.2,0.2,0.3,0.2L129,29v-0.2l0.3,0.3v0.9c0,0,0.2,0.2,0.2,0.3c-0.2,0-0.2,0.2-0.2,0.2v2.1l0,0v-0.2v-0.2l0,0v-0.5
			c-0.2,0-0.2,0.2-0.3,0.3l0,0v0.2v0.2l0,0v0.3l0,0v0.3l0,0l0,0c-0.2,0-0.2,0.2-0.3,0.2v0.3v0.3l0,0v0.3c-0.2,0-0.2,0.2-0.3,0.2v0.3
			l0,0v0.2l0,0v0.5l0,0v-0.3c-0.2,0-0.2,0.2-0.2,0.2l0,0v0.3c0-0.2,0.2-0.2,0.2-0.3l0,0c-0.2,0-0.2,0.2-0.2,0.3v0.3
			c-0.2,0-0.2,0.2-0.2,0.2v0.5c-0.2,0-0.2,0.2-0.3,0.3c-0.2,0-0.2,0.2-0.3,0.2v0.2c-0.2,0-0.2,0.2-0.2,0.3v0.5
			c-0.2,0-0.2,0.2-0.2,0.2l0,0l0.2,0.2l0,0l0,0V38h0.2l0,0v0.5l0.3,0.3l0.3,0.3v0.2c0,0,0.2,0.2,0.2,0.3h0.2l0.3,0.3
			c0,0.2,0.2,0.2,0.3,0.2v0.3l0,0l0.3,0.3h0.2c-0.2-0.2-0.2-0.2-0.2-0.3l0,0l0,0c0,0,0.2,0.2,0.2,0.3l0,0c0,0,0.2,0.2,0.3,0.2l0,0
			h0.9c0-0.2,0.2-0.2,0.2-0.2c0-0.2,0.2-0.2,0.3-0.3l0,0c0-0.2,0.2-0.2,0.3-0.3v-0.2v-0.2l0,0l0,0c0-0.2,0.2-0.2,0.2-0.2l0,0
			c-0.2-0.2-0.2-0.2-0.3-0.2v0.2l0,0v-0.9c-0.2-0.2-0.2-0.2-0.3-0.2v-3c0-0.2,0.2-0.2,0.3-0.3l0,0v-0.3l0,0v-0.3v-0.2l0,0v-0.3V34
			l0,0v-0.3h-0.2v-1.2l0,0v0.3l0,0v0.3v0.2v0.3v0.3h0.3v-0.3v-0.3v-0.2v-0.3l0,0v-0.3l0,0v-0.2v-0.2l0,0v-0.3l0,0v-0.2l0,0v-0.3l0,0
			v-0.2V31v-0.3c-0.2,0-0.2,0.2-0.3,0.3l0,0c0-0.2,0.2-0.2,0.3-0.3l0,0l0.2-0.2l0,0v-0.2v-0.3v-0.5c-0.2,0.2-0.2,0.3-0.3,0.5l0,0
			l0,0c0-0.2,0.2-0.3,0.3-0.5v-0.5l0,0v-0.3h-0.2l0,0v-1.1l0,0V28l0,0c0-0.2,0.2-0.2,0.3-0.2v-0.3c-0.2,0-0.2,0.2-0.3,0.3l0,0
			c0-0.2,0.2-0.2,0.3-0.3v-1.4l0.2-0.2v-0.3c0-0.2,0.2-0.2,0.3-0.3V25c0-0.2,0.2-0.2,0.2-0.3l0,0c0-0.2,0.2-0.3,0.3-0.5l0,0v-0.2
			c-0.2,0-0.2,0.2-0.3,0.2l0,0c0-0.2,0.2-0.2,0.3-0.2c0.2-0.2,0.3-0.2,0.5-0.3c0-0.2,0.2-0.2,0.3-0.3h0.3c0-0.2,0.2-0.2,0.2-0.2
			c0.2-0.2,0.3-0.2,0.5-0.3c0-0.2,0.2-0.2,0.2-0.3C134.4,22.9,134.7,22.7,134.9,22.7z"/>
		<polygon class="st0" points="131.3,36.2 131.3,36.2 131.3,36.1 131.1,36.1 131.1,36.2 131.1,36.2 131.1,36.5 131.1,36.5 
			131.1,36.7 131.3,36.7 131.3,36.5 131.3,36.5 		"/>
		<path class="st0" d="M131.1,38.3L131.1,38.3L131.1,38.3z"/>
		<rect x="131.1" y="35.8" class="st0" width="0.3" height="0.3"/>
		<path class="st0" d="M131.1,35.6v0.2h0.3C131.3,35.8,131.1,35.6,131.1,35.6z"/>
		<polygon class="st0" points="131.3,37.1 131.3,37.1 131.3,37 131.3,36.7 131.1,36.7 131.1,37 131.1,37 131.1,37.1 131.1,37.1 
			131.1,37.4 131.3,37.4 		"/>
		<path class="st0" d="M142.4,34.4L142.4,34.4v-0.3V34c-0.2,0-0.2,0.2-0.2,0.2L142.4,34.4L142.4,34.4l-0.2,0.2
			C142.1,34.6,142.2,34.6,142.4,34.4z"/>
		<path class="st0" d="M142.4,36.5v-0.3l0,0c-0.2-0.2-0.2-0.2-0.2-0.3v0.3l0,0l0,0C142.2,36.4,142.2,36.4,142.4,36.5z"/>
		<path class="st0" d="M142.5,38.6L142.5,38.6v0.2v0.3c0-0.2,0.2-0.2,0.3-0.3v-0.2l0,0c-0.2-0.2-0.2-0.2-0.3-0.2V38.6z"/>
		<path class="st0" d="M142.8,32.6c-0.2,0-0.2,0.2-0.3,0.3v0.3c0-0.2,0.2-0.2,0.3-0.3V32.6z"/>
		<path class="st0" d="M142.5,37.4v-0.3v-0.3l0,0l-0.2-0.2v0.2l0,0l0,0v0.3C142.4,37.3,142.5,37.3,142.5,37.4z"/>
		<path class="st0" d="M142.5,33.2c-0.2,0-0.2,0.2-0.2,0.3v0.3c0-0.2,0.2-0.2,0.2-0.3V33.2z"/>
		<path class="st0" d="M145.5,29.8h-0.3l0.3,0.3h0.2c0-0.2,0.2-0.2,0.3-0.3H145.5L145.5,29.8z"/>
		<path class="st0" d="M146.4,29.8L146.4,29.8h0.5l0,0c0-0.2,0.2-0.2,0.3-0.2h-0.3h-0.3L146.4,29.8z"/>
		<path class="st0" d="M146.3,34.9c0,0,0.2,0.2,0.3,0.2v-0.2v-0.3c0-0.2,0.2-0.2,0.2-0.2l0,0v-0.3V34l-0.2,0.2
			c-0.2,0-0.2,0.2-0.3,0.3l0,0v0.2V34.9z"/>
		<path class="st0" d="M146.4,35.3v0.3l0,0l0.2,0.2v-0.2l0,0C146.6,35.5,146.6,35.5,146.4,35.3z"/>
		<path class="st0" d="M150.8,35.3L150.8,35.3L150.8,35.3L150.8,35.3c-0.2-0.2-0.2-0.2-0.2-0.3l0,0h-0.3l0,0
			c-0.2-0.2-0.2-0.2-0.3-0.2h-0.2l0,0h-0.3l-0.3-0.3l0,0l-0.2-0.2H149l0,0l0,0l-0.3-0.3h-0.2l0,0h-0.5c-0.2-0.2-0.2-0.2-0.3-0.2
			h-0.3c-0.2-0.2-0.2-0.2-0.2-0.3H147c-0.2,0-0.2,0.2-0.3,0.3h-0.2v0.5l-0.2,0.2v0.8c0,0,0.2,0.2,0.2,0.3v0.5l0,0v0.2l0,0l0,0
			l0.2,0.2v0.5l0,0V37v0.3h0.2l0,0h-0.2v0.2l0,0l0,0l0,0l0,0l0.2,0.2l0,0l0,0v0.2l0,0l0.2,0.2l0,0l0.2,0.2c0,0,0.2,0.2,0.3,0.2
			l0.3,0.3c0.2,0,0.2,0.2,0.2,0.3c0.2,0,0.2,0.2,0.3,0.2l0,0c0.3-0.2,0.6-0.2,0.9-0.2l0,0h0.2c0-0.2,0.2-0.2,0.3-0.3v-0.2l0,0
			c0-0.2,0.2-0.2,0.2-0.2c0-0.2,0.2-0.2,0.3-0.2c0-0.2,0.2-0.2,0.3-0.3v0.2c0-0.2,0.2-0.2,0.2-0.3v-0.2c0-0.2,0.2-0.2,0.2-0.3v-1.4
			l-0.2-0.2v-0.3H150.8z"/>
		<path class="st0" d="M142.5,26.9L142.5,26.9L142.5,26.9L142.5,26.9c0,0,0.2,0,0.3,0l0,0l0,0l0,0l0,0v-0.3
			C142.7,26.6,142.7,26.8,142.5,26.9z"/>
		<path class="st0" d="M151.2,36.5v-0.3l0,0v-0.3h-0.3v0.3l0,0v0.3l0,0v0.2l0,0v0.2c0-0.2,0.2-0.2,0.3-0.2l0,0V36.5L151.2,36.5z"/>
		<path class="st0" d="M143.7,29.8L143.7,29.8h2.7c0-0.2,0.2-0.2,0.2-0.2h0.8c0-0.2,0.2-0.2,0.2-0.3h0.9l0,0h0.2h0.5h0.3h0.2h0.3
			c0-0.2,0.2-0.2,0.3-0.3h-0.3h-0.3h-0.2H149h-0.3l0,0h1.4c0-0.2,0.2-0.2,0.3-0.3V28c0-0.2,0.2-0.2,0.3-0.3v-0.2l-0.3-0.3v0.2
			c-0.2,0-0.2-0.2-0.3-0.3h-0.2l0,0c-0.2,0-0.2-0.2-0.3-0.2h-1.4l-0.2,0.2h-0.5l0,0h-0.2h-0.3c-0.2,0-0.2,0.2-0.3,0.3h-0.3l0,0h-0.2
			c-0.2,0-0.2,0.2-0.3,0.3H146c-0.2,0-0.2,0.2-0.3,0.3h-0.2l0,0h-0.2l0,0c-0.2,0-0.2,0.2-0.3,0.2h0.3l0,0h-0.3
			c-0.3,0-0.8,0.2-1.2,0.3h-0.2h-0.3h-0.3H143l0.2,0.2h0.3h0.2l0,0h-0.5l-0.2-0.3l-0.3-0.3c-0.2-0.3-0.2-0.5-0.3-0.8v-0.5
			c0-0.2,0.2-0.2,0.3-0.3c0-0.2,0.2-0.2,0.3-0.3c0-0.2,0.2-0.2,0.2-0.2c0-0.2,0.2-0.2,0.3-0.2c0-0.2,0.2-0.2,0.3-0.3
			c0-0.2,0.2-0.2,0.2-0.3s0.2-0.2,0.3-0.2c0-0.2,0.2-0.2,0.3-0.3v-0.3c0-0.2,0.2-0.2,0.2-0.3c0-0.2,0.2-0.2,0.3-0.2
			c0-0.2,0.2-0.2,0.2-0.2v-0.5l0,0h0.3v-0.2l0,0v-0.9l0,0v0.2l0,0v0.3v0.5c0-0.2,0.2-0.3,0.3-0.5v-0.3l0,0v-0.2l0,0v-0.2l0,0v-0.2
			c0.2-0.2,0.3-0.3,0.5-0.5h0.3c0-0.2,0.2-0.2,0.3-0.3c0-0.2,0.2-0.2,0.2-0.3h0.3c0.2-0.2,0.2-0.2,0.3-0.3c0-0.2,0.2-0.2,0.3-0.3
			c0-0.2,0.2-0.2,0.2-0.3v-0.3c0,0,0.2-0.2,0.3-0.2l0,0l0.2-0.2l0,0v-0.2l0,0c-0.2-0.2-0.2-0.3-0.3-0.5l0,0v-0.2l0,0l-0.2-0.2l0,0
			l0,0l-0.2-0.2h-0.2l0,0c-0.2,0-0.2-0.2-0.3-0.2h-0.6l0,0v-0.5H146l0,0h0.2l-0.2-0.2l0,0l-0.3-0.3l-0.2-0.2l-0.3-0.3l-0.3-0.3
			l-0.2-0.2h-0.3c0-0.2,0-0.2-0.2-0.3h-0.2l0,0h-0.3h-0.2c-0.2,0-0.2,0.2-0.3,0.3h-0.3c-0.2,0-0.2,0.2-0.2,0.2h-0.3
			c-0.2,0-0.2,0.2-0.3,0.3h-0.2c-0.2,0-0.2,0.2-0.2,0.3l0,0c0-0.2,0.2-0.2,0.2-0.3h-0.2l0,0c-0.2,0-0.2,0.2-0.3,0.3l0,0
			c-0.2,0-0.2,0.2-0.2,0.2c-0.2,0-0.2,0.2-0.3,0.3c-0.2,0-0.2,0.2-0.2,0.3v0.2c-0.2,0-0.2,0.2-0.3,0.2v2.1l0.3,0.3v0.5
			c0.2,0,0.2,0.2,0.2,0.3v1.2l-0.2,0.2v0.5c-0.2,0-0.2,0.2-0.3,0.3c-0.3,0.2-0.5,0.5-0.6,0.8l0,0c0-0.2,0.2-0.2,0.2-0.2h-0.2l0,0
			c-0.2,0-0.2,0.2-0.3,0.3h-0.5l-0.2,0.2l0,0l0.2-0.2h-0.2l0,0h-0.2l0,0l0,0l-0.2-0.2l0,0c0-0.2-0.2-0.2-0.2-0.2l0,0l0,0v-0.2h-0.5
			l0,0h0.2v-0.3l0,0l-0.2-0.8v-0.3h0.2c0-0.5,0-0.5-0.2-0.5v-0.9l0,0v-0.2v-0.2l0,0v-0.3c-0.2-0.2-0.2-0.2-0.2-0.3l0,0v-0.2
			l-0.2-0.2l0,0H138v0.5c-0.2,0-0.2,0.2-0.3,0.3v1.7c-0.2,0-0.2,0.2-0.3,0.3v1.7c0,0,0.2,0.2,0.3,0.2v0.5l0,0v-0.3v-0.5
			c-0.2-0.2-0.2-0.2-0.3-0.2v0.2v0.2v0.3l0,0v0.3l0,0l0,0v0.3v0.2l0.3,0.3l0,0h0.3c0,0.2,0.2,0.2,0.2,0.2c0.2,0.3,0.5,0.6,0.8,0.9
			c0,0.2,0.2,0.2,0.2,0.3l0.3,0.3v0.3c0,0,0.2,0.2,0.3,0.2v0.3l0,0v0.2l0,0c0.2,0,0.2,0.2,0.2,0.3v-0.3l0,0v0.5
			c-0.2,0-0.2,0.2-0.2,0.3v0.3c-0.2,0-0.2,0.2-0.3,0.3c-0.2,0-0.2,0.2-0.3,0.2c-0.2,0-0.2,0.2-0.2,0.3h-0.5c-0.2,0-0.2,0.2-0.3,0.3
			h-0.8c-0.2,0-0.2,0.2-0.3,0.2h-1.4c-0.2,0-0.2,0.2-0.3,0.2l0,0h-0.2l-0.2,0.2l0,0c-0.2,0-0.2,0.2-0.3,0.3c-0.2,0-0.2,0.2-0.3,0.2
			l0,0c0,0.2-0.2,0.2-0.2,0.2l0,0v0.3l0,0l0,0c-0.2,0-0.2,0.2-0.2,0.3l0,0l0.2,0.2v0.5h0.2l0.3,0.3h0.5c0-0.2,0.2-0.2,0.3-0.3
			c0.3-0.2,0.5-0.2,0.8-0.3c0-0.2,0.2-0.2,0.2-0.2h0.3c0-0.2,0.2-0.2,0.3-0.2H137c0-0.2,0.2-0.2,0.3-0.3h0.3c0-0.2,0.2-0.2,0.3-0.3
			l0,0h1.8c0.2,0,0.2,0.2,0.3,0.3l0,0V32l0,0v0.2l0,0v0.2l0,0v0.3l0,0v0.3v0.2v0.2l0,0v0.5l0,0v0.2l0.2,0.2v0.3l0,0v0.6l0.2,0.2v0.3
			c-0.2,0-0.2,0.2-0.2,0.2l0,0v0.2l0,0l0,0l-0.2,0.2l0,0l0,0h-0.2v0.2c0,0,0,0-0.2,0.2v0.3c-0.2,0-0.2,0.2-0.3,0.2l0,0l-0.2,0.2l0,0
			c-0.2,0-0.2,0.2-0.3,0.3h0.2l0,0h0.2l0,0h-0.5c-0.2,0-0.2,0.2-0.3,0.3v0.3l-0.2,0.2l0,0V38v0.2l0,0v0.2c-0.2,0-0.2,0.2-0.3,0.2
			v0.3l-0.2,0.2v0.2v0.3l0.2,0.2l0,0c0,0.2,0.2,0.2,0.3,0.2c0,0.2,0.2,0.2,0.2,0.3l0,0l0.3,0.3l0,0h0.2l0,0l0,0h0.5h0.6l0,0
			c0-0.2,0.2-0.2,0.3-0.3h0.5c0-0.2,0.2-0.2,0.3-0.3h0.3l0.2-0.2c0-0.2,0.2-0.2,0.3-0.3c0-0.2,0.2-0.2,0.3-0.3h0.3
			c0-0.2,0.2-0.2,0.2-0.2c0-0.2,0.2-0.2,0.2-0.3v-1.7c-0.2-0.2-0.2-0.2-0.2-0.3v-0.6c-0.2-0.2-0.2-0.2-0.2-0.3v-0.5h-0.3v-0.8l0,0
			v0.8h0.3v-0.8l0,0v-0.9c0-0.2,0.2-0.2,0.2-0.2v-0.5c0-0.2,0.2-0.2,0.2-0.3v-0.5c0-0.2,0.2-0.2,0.3-0.3v-1.2c0-0.2,0.2-0.2,0.3-0.2
			v-0.3c-0.2,0-0.2,0.2-0.3,0.3l0,0c0-0.2,0.2-0.2,0.3-0.3v-0.5c0-0.2,0.2-0.2,0.2-0.2l0.3-0.3h0.3l0,0h0.2l0,0
			c0-0.2,0.2-0.2,0.3-0.3h-0.3h-0.5L143.7,29.8L143.7,29.8z"/>
		<path class="st0" d="M137.7,25.9h-0.3c0,0.2,0.2,0.2,0.3,0.2h0.2C137.9,26,137.7,26,137.7,25.9z"/>
		<path class="st0" d="M145.1,23.9c0-0.2,0.2-0.2,0.3-0.3h-0.3V23.9z"/>
		<path class="st0" d="M127.2,38.3L127.2,38.3L127.2,38.3z"/>
		<path class="st0" d="M127.4,38.6v-0.2h-0.2C127.2,38.5,127.4,38.5,127.4,38.6z"/>
		<path class="st0" d="M124.8,28.9l0.3,0.3c0-0.2,0.2-0.2,0.3-0.3h-0.3H124.8z"/>
		<path class="st0" d="M124.4,28.7l-0.3-0.3v0.3c0,0.2,0.2,0.2,0.3,0.2h0.3C124.5,28.9,124.5,28.7,124.4,28.7L124.4,28.7z"/>
		<path class="st0" d="M131.6,26.3v0.3C131.6,26.5,131.7,26.5,131.6,26.3L131.6,26.3l0.2-0.5l-0.2,0.2V26.3z"/>
		<path class="st0" d="M132,25v0.3v0.2c0-0.2,0.2-0.2,0.2-0.2L132,25l0.2-0.3C132.2,24.8,132,25,132,25L132,25z"/>
		<path class="st0" d="M131.3,28.9h0.3c-0.2,0-0.2-0.2-0.3-0.2V28.9z"/>
		<path class="st0" d="M131.7,25.9c0-0.2,0.2-0.2,0.3-0.3v-0.3c-0.2,0-0.2,0.2-0.3,0.3V25.9z"/>
	</g>
	<g>
		<path class="st0" d="M21.7,73.1V65H9.4v8.1h3.2c-1.4,0.7-2.9,1.5-4.9,2l0.9,1.2c2.2-0.7,4-1.6,5.4-2.5l-0.8-0.7h4.3l-0.7,0.7
			c2.2,0.9,3.9,1.8,5,2.5l1.1-1.1c-1.2-0.7-2.8-1.4-4.6-2.1H21.7z M11.1,66.4h9.1v0.9h-9.1V66.4z M11.1,68.6h9.1v0.9h-9.1V68.6z
			 M11.1,71.8v-1h9.1v1H11.1z"/>
		<path class="st0" d="M20.9,60.5H10.4v3.7h10.5V60.5z M19.2,63h-7.3v-1.2h7.3V63z"/>
		<polygon class="st0" points="34.9,62.8 40.9,62.8 40.9,61.3 27.3,61.3 27.3,62.8 33.2,62.8 33.2,73.6 26.1,73.6 26.1,75.2 
			42,75.2 42,73.6 34.9,73.6 		"/>
		<path class="st0" d="M52.7,60.1l-1.7-0.2c-0.2,0.7-0.4,1.4-0.8,2.1h-3.9v14.4H48v-1h8.7v1h1.7V62h-6.6
			C52.3,61.4,52.6,60.9,52.7,60.1z M56.9,73.8h-8.7v-2.5h8.7V73.8z M56.9,69.7h-8.7v-2.3h8.7V69.7z M56.9,63.6v2.2h-8.7v-2.2H56.9z"
			/>
		<path class="st0" d="M71.9,69.7h5.6v-1.6h-5.6v-3.6h6.5v-1.7h-6.6h0.1c-0.2-0.8-0.6-1.9-1-2.9l-1.7,0.4c0.4,0.8,0.7,1.7,1,2.5
			h-6.5v1.7h6.5v3.6h-5.6v1.6h5.6V74h-7.1v1.7H79V74h-7.1L71.9,69.7L71.9,69.7z"/>
		<path class="st0" d="M82.5,69.3c0,2.4-0.4,4.4-1,5.9l1.2,1.1c0.7-1.6,1.1-3.5,1.2-5.9h2.5V74c0,0.6-0.2,0.9-0.5,0.9
			c-0.4,0-0.8,0-1.4-0.1l0.4,1.5h1.5c1,0,1.7-0.6,1.7-1.8V60.6h-5.5L82.5,69.3L82.5,69.3z M84.1,62.1h2.5v2.6h-2.5V62.1z M84.1,66.3
			h2.5v2.6h-2.5V66.3z"/>
		<path class="st0" d="M96.8,68.6v-1.5h-5.9v-5h4.3c0,1.1-0.1,2-0.2,2.2c-0.1,0.2-0.2,0.4-0.4,0.4c-0.2,0-0.4,0.1-0.8,0.1
			c-0.5,0-0.9,0-1.1,0l0.4,1.5h1.5c1.1,0,1.8-0.4,2-1.1c0.2-0.7,0.3-2.3,0.3-4.6h-7.5v15.7h1.6v-1.4l0.8,1.4c1-0.5,1.9-1.2,2.6-2
			c0.7,0.7,1.7,1.4,2.6,2l0.8-1.5c-0.9-0.5-1.8-1.1-2.5-1.9C95.9,71.8,96.4,70.3,96.8,68.6z M90.8,74.9v-6.4H91
			c0.4,1.7,1.1,3.1,2.1,4.5C92.5,73.8,91.8,74.4,90.8,74.9z M94.1,71.8c-0.7-0.9-1.2-2-1.6-3.1h2.8C95,69.8,94.6,70.8,94.1,71.8z"/>
		<path class="st0" d="M111.7,67.6h-1.6c0,0.5-0.1,0.9-0.1,1.5h-2.9v1.6h2.6c-0.2,0.7-0.4,1.4-0.7,1.8c-0.6,1-1.8,1.9-3.2,2.6l1,1.4
			c1.8-0.9,2.9-2,3.7-3.2c0.4-0.6,0.6-1.5,0.8-2.5h2.3c0,1.8-0.1,2.8-0.2,3.1c-0.1,0.7-0.6,1-1.4,1c-0.5,0-1,0-1.7-0.1l0.3,1.4
			c0.7,0,1.2,0.1,1.6,0.1c1.6,0,2.4-0.6,2.6-1.8c0.2-0.6,0.2-2.5,0.2-5.3h-3.6L111.7,67.6z"/>
		<path class="st0" d="M107.2,66h-2.5l0.5-0.4c-0.2-0.2-0.4-0.4-0.7-0.7c0.8-0.8,1.7-1.8,2.4-2.9v-1.4h-6.6v1.6h4.7
			c-0.5,0.6-1,1.2-1.6,1.8c-0.4-0.4-0.9-0.8-1.6-1.2l-1,1c1.1,0.8,2,1.6,2.7,2.3h-3.6v1.6h2.1c-0.6,1.8-1.5,3.3-2.4,4.7l0.6,1.6
			c1.1-1.7,2-3.5,2.6-5.6v6c0,0.4-0.2,0.6-0.5,0.6c-0.4,0-0.9,0-1.5-0.1l0.3,1.5h1.7c1,0,1.6-0.5,1.6-1.7v-7h1.2
			c-0.4,0.8-0.7,1.6-1,2.2l1,0.9c0.6-0.9,1-2.1,1.5-3.2L107.2,66L107.2,66z"/>
		<path class="st0" d="M114.5,62.8h1.1v-1.5h-5.2c0.1-0.4,0.3-0.7,0.4-1.1l-1.6-0.2c-0.4,1.6-1.2,2.8-2.5,3.9l0.9,1.2
			c0.8-0.6,1.5-1.5,2-2.3h3.2c-0.3,0.8-0.8,1.5-1.4,2c-0.5-0.4-1-0.8-1.5-1.2l-1.1,0.6c0.4,0.5,0.8,1,1.5,1.5
			c-0.7,0.4-1.7,0.8-2.8,1.2l0.9,1.2c1.2-0.5,2.3-1,3.1-1.6c0.9,0.5,2,1,3.3,1.6l1-1.2c-1.2-0.3-2.3-0.7-3.1-1.2
			C113.4,65,114,64.1,114.5,62.8z"/>
		<path class="st0" d="M130.8,67.8c0.8-1.4,1.5-2.6,2-4l-1.6-0.7c-0.5,1.2-1.1,2.6-2,4L130.8,67.8z"/>
		<polygon class="st0" points="127.2,62.3 133.6,62.3 133.6,60.6 119.2,60.6 119.2,62.3 125.5,62.3 125.5,68.6 118.5,68.6 
			118.5,70.2 125.5,70.2 125.5,76.3 127.2,76.3 127.2,70.2 134.3,70.2 134.3,68.6 127.2,68.6 		"/>
		<path class="st0" d="M121.7,63.1l-1.6,0.7c0.6,1.1,1.2,2.5,1.9,4l1.6-0.7C123,65.6,122.4,64.3,121.7,63.1z"/>
		<path class="st0" d="M148.8,61.8l-1.6,0.7c0.6,0.7,1.1,1.6,1.8,2.4c-2.8,0.3-5.7,0.4-8.7,0.5c1.5-1.4,2.9-3,4.4-5l-1.7-0.5
			c-2.4,3.4-4.3,5.4-5.6,5.6l0.3,1.6c4.6-0.2,8.6-0.4,12.4-0.7c0.4,0.6,0.8,1.4,1.2,2.1l1.7-0.8C151.6,65.5,150.3,63.6,148.8,61.8z"
			/>
		<path class="st0" d="M138.8,76.4h1.7v-0.7h8.7v0.7h1.7v-7.5h-12.1V76.4z M140.6,70.4h8.7V74h-8.7V70.4z"/>
	</g>
</g>
</svg>
