<?xml version="1.0" encoding="utf-8"?>
<!-- Generator: Adobe Illustrator 25.4.1, SVG Export Plug-In . SVG Version: 6.00 Build 0)  -->
<svg version="1.1" id="Layer_1" xmlns="http://www.w3.org/2000/svg" xmlns:xlink="http://www.w3.org/1999/xlink" x="0px" y="0px"
	 viewBox="0 0 268 36" style="enable-background:new 0 0 268 36;" xml:space="preserve">
<style type="text/css">
	.st0{filter:url(#shadow);}
	.st1{fill:#FFFFFF; filter:url(#dropshadow);}
</style>
<filter id="dropshadow" height="130%">
  <feGaussianBlur in="SourceAlpha" stdDeviation="2"/> <!-- stdDeviation is how much to blur -->
  <feOffset dx="0" dy="1.2" result="offsetblur"/> <!-- how much to offset -->
  <feComponentTransfer>
    <feFuncA type="linear" slope="0.5"/> <!-- slope is the opacity of the shadow -->
  </feComponentTransfer>
  <feMerge> 
    <feMergeNode/> <!-- this contains the offset blurred image -->
    <feMergeNode in="SourceGraphic"/> <!-- this contains the element that the filter is applied to -->
  </feMerge>
</filter>
<g class="st1">
	<path class="st1" d="M20.1,11.9L20.1,11.9L20.1,11.9z"/>
	<path class="st1" d="M112,3c-0.6,0-1,0.4-1,1v28c0,0.6,0.4,1,1,1s1-0.4,1-1V4C113,3.4,112.6,3,112,3z"/>
	<path class="st1" d="M21,6.8c0.1,0.4,0.2,1.1,0.4,1.9c3.8,1.1,6.4,4.6,6.4,8.5c0,0.9-0.1,1.7-0.4,2.5c0.5,0.4,1,0.8,1.5,1.1
		c0.4-1.2,0.6-2.4,0.6-3.6C29.6,12.1,26,7.8,21,6.8z"/>
	<path class="st1" d="M14.4,8.8c0.1-0.6,0.2-1.2,0.2-1.8c-4.8,1-8.3,5.3-8.3,10.3c0,1.2,0.2,2.4,0.6,3.5c0.5-0.3,1-0.7,1.4-1.1
		C8.1,18.9,8,18.1,8,17.3C8,13.3,10.6,9.9,14.4,8.8z"/>
	<path class="st1" d="M10,26.2c2,2.3,5,3.6,8,3.6c3.1,0,6-1.4,8-3.7c-0.4-0.2-1-0.5-1.7-0.7c-1.7,1.7-3.9,2.7-6.3,2.8
		c-2.4,0-4.7-0.9-6.4-2.6C11.1,25.7,10.5,25.9,10,26.2z"/>
	<path class="st1" d="M17.9,4C10.2,4,4,10.2,4,17.9s6.2,13.9,13.9,13.9s13.9-6.2,13.9-13.9S25.6,4,17.9,4z M15.7,11.3h4.4v0.6l0,0
		l0,0l0,0l-0.9,0.5l0,0l0,0v8.8h0.1l0.9,0.5v0.6h-4.4v-0.5l1-0.6h0.1v-8.8l0,0l0,0l-1-0.6v-0.5H15.7z M5.9,22.3
		c-0.5-1.4-0.8-2.9-0.8-4.4c0-6.1,4.3-11.3,10.3-12.6C14.6,16.2,7.8,21.2,5.9,22.3z M18,30.7c-3.8,0-7.4-1.6-9.8-4.5
		c9.4-5.2,17.6-1.3,19.6-0.1C25.4,29,21.8,30.7,18,30.7z M29.9,22.4c-8-4.7-9.6-16.3-9.7-17.1c6.1,1.1,10.6,6.4,10.6,12.6
		C30.7,19.5,30.5,21,29.9,22.4z"/>
	<g>
		<polygon class="st1" points="45.2,18.4 45.1,18.4 44.9,18.4 44.8,18.4 44.9,18.6 45.1,18.6 45.1,18.6 45.2,18.6 45.2,18.6 
			45.4,18.6 45.4,18.4 		"/>
		<path class="st1" d="M37.2,9.2L37.2,9.2C37.1,9.1,37.1,9.2,37.2,9.2C37,9.3,37,9.4,36.9,9.5h0.2C37.1,9.3,37.2,9.3,37.2,9.2z"/>
		<path class="st1" d="M41.2,8.2L41.2,8.2L41.2,8.2L41.3,8h-0.1l0,0H41c-0.1,0-0.1,0.1-0.2,0.2H41H41.2z"/>
		<path class="st1" d="M39.1,8.2h-0.2c-0.1,0-0.1,0.1-0.2,0.2h0.2C39,8.3,39,8.2,39.1,8.2z"/>
		<path class="st1" d="M36.2,10V9.8c-0.1,0-0.1,0.1-0.2,0.2l0,0H36.2z"/>
		<path class="st1" d="M35.2,11.4L35.2,11.4v-0.2l0,0c0-0.1-0.1-0.1-0.2-0.2v0.2l0,0v0.1l0,0v0.2h0.2V11.4z"/>
		<path class="st1" d="M36.2,9.8V10C36.2,9.9,36.3,9.9,36.2,9.8L36.2,9.8z"/>
		<path class="st1" d="M42.9,12v-0.2l0,0v-0.1l0,0c0-0.1-0.1-0.1-0.2-0.2v0.2l0,0v0.1l0,0V12l0,0v0.2L42.9,12L42.9,12z"/>
		<path class="st1" d="M45.2,7.9H45c0,0,0,0.1-0.1,0.1H45C45.1,7.9,45.2,7.9,45.2,7.9z"/>
		<path class="st1" d="M42.9,11.2L42.9,11.2c-0.1-0.1-0.1,0-0.2,0.1l0,0v0.1C42.8,11.3,42.8,11.3,42.9,11.2L42.9,11.2z"/>
		<path class="st1" d="M44.7,8.2c-0.1,0-0.1,0.1-0.2,0.2h0.2V8.2z"/>
		<polygon class="st1" points="41.7,8.2 41.8,8.2 41.7,8 41.5,8 41.4,8 41.4,8.2 41.5,8.2 		"/>
		<path class="st1" d="M41.8,9.2H42c0-0.1,0.1-0.1,0.1-0.2H42C41.9,9.1,41.9,9.2,41.8,9.2z"/>
		<path class="st1" d="M42.3,8.8L42.3,8.8V8.6l-0.2-0.2v0.2c0,0,0,0.1,0,0.2l0,0v0.3C42.2,9,42.2,8.9,42.3,8.8L42.3,8.8z"/>
		<path class="st1" d="M40,10.8c-0.1-0.1-0.1-0.1-0.1-0.2l0,0v-0.1l-0.1-0.1v0.1v0.2l0,0C39.8,10.7,39.9,10.8,40,10.8L40,10.8
			L40,10.8L40,10.8L40,10.8z"/>
		<path class="st1" d="M36,12L36,12c0.1-0.1,0.1-0.1,0.2-0.1h0.5c0-0.1,0.1-0.1,0.2-0.1h0.3l0,0h0.1c0-0.1,0.1-0.1,0.2-0.2H38
			c0.1,0,0.1,0.1,0.2,0.2h0.2l-0.2-0.2l0,0l0.2,0.2h0.2l0.1,0.1V12c0,0.1,0.1,0.1,0.1,0.2h0.1l0.2,0.2h0.1l0,0h0.4
			c0-0.1,0.1-0.1,0.1-0.2H40c0-0.1,0.1-0.1,0.2-0.2l0,0c0-0.1,0.1-0.2,0.2-0.3l0,0v-0.2l0,0v-0.1l0,0v-0.2l0,0v-0.1h-0.2v0.2l0,0
			v0.1l0,0v0.2l0,0v0.2l0,0v-0.9H40l0,0l-0.1-0.1c-0.1-0.1-0.1-0.1-0.1-0.2V9.8c0-0.1,0.1-0.1,0.1-0.2S40,9.5,40,9.5h0.2
			c0-0.1,0.1-0.1,0.2-0.2h1.2c0-0.1,0.1-0.1,0.1-0.2h0.2C41.9,9,42,9,42.1,8.9h0.1V8.5L42,8.3l-0.2-0.2h-2.7c-0.1,0-0.1,0.1-0.2,0.2
			h-0.3c-0.1,0-0.1,0.1-0.1,0.1c-0.1,0-0.1,0.1-0.2,0.2l0,0c-0.1,0-0.1,0.1-0.2,0.2l0,0l0,0H38h-0.1c-0.1,0-0.1,0.1-0.2,0.2h-0.2
			l-0.1,0.1h-0.2v0.2c-0.1,0-0.1,0.1-0.1,0.2H37c-0.1,0-0.1,0.1-0.1,0.2c-0.1,0-0.1,0.1-0.2,0.1h-0.2c-0.1,0-0.1,0.1-0.2,0.2
			c0-0.1-0.1,0-0.1,0h-0.3c-0.1,0-0.1,0.1-0.1,0.1h-0.2c-0.1,0-0.1,0.1-0.2,0.2h-0.1c-0.1,0-0.1,0.1-0.2,0.1l0,0v0.2l0,0v0.1l0,0V11
			c0.1,0,0.1,0.1,0.2,0.2v0.5c0,0,0.1,0.1,0.2,0.1l0,0c-0.1-0.1-0.1-0.1-0.2-0.1v-0.2h-0.1l0,0v0.2c0.1,0,0.1,0.1,0.2,0.1
			c0,0,0.1,0,0.2,0c0,0.1,0.1,0.1,0.2,0.1L36,12l-0.2-0.2l0,0L36,12L36,12L36,12L36,12L36,12z"/>
		<path class="st1" d="M45.7,7.9c0-0.1-0.1-0.1-0.1-0.2h-0.1v0.2H45.7L45.7,7.9z"/>
		<polygon class="st1" points="47.8,8.3 47.7,8.2 47.5,8.2 47.7,8.3 		"/>
		<path class="st1" d="M45.4,7.7c-0.1,0-0.1,0.1-0.2,0.2h0.2V7.7z"/>
		<path class="st1" d="M48.3,8.2L48.3,8.2c-0.2,0-0.2,0.1-0.3,0.2h0.2C48.2,8.3,48.2,8.2,48.3,8.2z"/>
		<path class="st1" d="M49.6,8.2L49.6,8.2c0.1-0.1,0-0.1,0-0.2h-0.1h-0.2L49.6,8.2L49.6,8.2z"/>
		<rect x="48.9" y="7.9" class="st1" width="0.5" height="0.1"/>
		<path class="st1" d="M41.2,13.7L41.2,13.7h0.3v-0.2h-0.2h-0.1H41c-0.1,0-0.1,0.1-0.2,0.2H41H41.2z"/>
		<path class="st1" d="M36,20.7v-0.1c-0.1,0-0.1,0.1-0.2,0.1H36z"/>
		<path class="st1" d="M46,7.9c0,0,0.1,0.1,0.2,0.1h0.1c0-0.1-0.1-0.1-0.1-0.1H46z"/>
		<path class="st1" d="M40.9,21.2L40.9,21.2c-0.1-0.1-0.1-0.1-0.2-0.2v0.2l0,0c0.1,0,0.1,0.1,0.1,0.1H41l0,0
			C41,21.3,41,21.2,40.9,21.2z"/>
		<path class="st1" d="M39.7,14.1c-0.1,0-0.1,0.1-0.2,0.1l0.2,0.2v-0.2V14.1z"/>
		<path class="st1" d="M42.6,22.9c0-0.1,0.1-0.1,0.1-0.1v-0.3c0,0.1-0.1,0.2-0.1,0.3V22.9z"/>
		<path class="st1" d="M44,23.8c0,0,0.1,0.1,0.1,0.2L44,23.8L44,23.8L44,23.8z"/>
		<polygon class="st1" points="35.9,19.2 36,19.3 36,19.2 36,19 35.9,19 		"/>
		<path class="st1" d="M37.2,25.9c-0.1,0-0.1,0.1-0.1,0.1h0.1h0.2c0-0.1,0.1-0.1,0.1-0.1h-0.1H37.2z"/>
		<path class="st1" d="M46.6,24.7L46.6,24.7c-0.1,0-0.1,0.1-0.2,0.1h0.2h0.1l0,0c0.1,0,0.1-0.1,0.1-0.1H46.6L46.6,24.7z"/>
		<path class="st1" d="M44.1,24.1v0.1l0,0v0.1l0.2,0.2v-0.2v-0.1l0,0l0,0C44.2,24.2,44.2,24.1,44.1,24.1z"/>
		<path class="st1" d="M44.1,23.6L44.1,23.6v-0.1v-0.2c-0.1,0-0.1,0.1-0.1,0.2l0,0l0,0L44.1,23.6L44.1,23.6L44,23.8h0.1V23.6z"/>
		<polygon class="st1" points="36,20.7 35.9,20.7 35.9,20.9 35.9,20.9 36,21 36,20.9 36,20.9 		"/>
		<polygon class="st1" points="40.2,11.1 40.3,11.1 40.2,10.9 		"/>
		<path class="st1" d="M40.6,9.5c0.3,0,0.3,0,0.3-0.2h-0.3V9.5z"/>
		<path class="st1" d="M39.8,14H40c0-0.1,0.1-0.1,0.2-0.2H40C39.9,13.9,39.9,13.9,39.8,14z"/>
		<path class="st1" d="M40.3,9.4c-0.1,0-0.1,0.1-0.2,0.2H40c-0.1,0-0.1,0.1-0.1,0.1c-0.1,0-0.1,0.1-0.1,0.2h0.1
			c0-0.1,0.1-0.1,0.1-0.2s0.1-0.1,0.2-0.1h0.1C40.3,9.5,40.4,9.5,40.3,9.4L40.3,9.4z"/>
		<path class="st1" d="M36,20L36,20v-0.2c-0.1,0-0.1,0.1-0.2,0.2l0,0c0,0.1,0.1,0.3,0.2,0.4V20z"/>
		<path class="st1" d="M36.6,17c0-0.1,0.1-0.1,0.2-0.2v-0.2c-0.1,0-0.1,0.1-0.2,0.2V17z"/>
		<path class="st1" d="M36.9,16.6L36.9,16.6v-0.2C36.8,16.4,36.8,16.5,36.9,16.6L36.9,16.6L36.9,16.6l-0.1,0.1
			C36.8,16.7,36.9,16.6,36.9,16.6z"/>
		<path class="st1" d="M49.2,21.6c-0.1,0-0.1,0.1-0.1,0.2l0,0v0.1l0,0v0.2c0-0.1,0.1-0.1,0.1-0.2l0,0v-0.1l0,0V21.6z"/>
		<path class="st1" d="M48.9,22.4c0-0.1,0.1-0.1,0.2-0.2V22c-0.1,0-0.1,0.1-0.2,0.2V22.4z"/>
		<path class="st1" d="M48.7,22.7v0.1c0-0.1,0.1-0.1,0.2-0.1v-0.2v-0.1c-0.1,0-0.1,0.1-0.2,0.1V22.7z"/>
		<path class="st1" d="M46.3,11.2L46.3,11.2L46.3,11.2C46.2,11.1,46.2,11.2,46.3,11.2z"/>
		<path class="st1" d="M47.5,18.1c-0.1-0.1-0.1-0.1-0.1-0.2c-0.1,0-0.1,0.1-0.2,0.2H47.5L47.5,18.1z"/>
		<path class="st1" d="M47,12L47,12c0,0.1,0.1,0.1,0.2,0.2V12l0,0c-0.1,0-0.1-0.1-0.2-0.1V12z"/>
		<path class="st1" d="M45.5,18.4L45.5,18.4L45.5,18.4l-0.1,0.2h0.1l0,0h0.1c0-0.1,0.1-0.1,0.2-0.2H45.5L45.5,18.4z"/>
		<path class="st1" d="M45.1,11.2h0.2c0,0.1,0.1,0.1,0.2,0.1l0,0l0,0l0.1-0.1l0,0v-0.1h-0.1l0,0h-0.2v0.2l0,0v-0.2
			C45.2,11.1,45.1,11.2,45.1,11.2z"/>
		<path class="st1" d="M47.5,12.3c-0.1-0.1-0.1-0.1-0.1-0.2h-0.2L47.5,12.3L47.5,12.3z"/>
		<path class="st1" d="M48.9,10.6L48.9,10.6v-0.2c-0.1,0-0.1,0.1-0.2,0.2l0,0v0.2C48.8,10.7,48.8,10.7,48.9,10.6z"/>
		<path class="st1" d="M48.7,18.9c0,0.1,0.1,0.1,0.2,0.1H49C48.9,19,48.9,18.9,48.7,18.9L48.7,18.9z"/>
		<path class="st1" d="M50.1,8.5c-0.1,0-0.1-0.1-0.2-0.1l0,0l0,0C50,8.4,50,8.4,50.1,8.5V8.3l0,0l-0.2-0.2l0,0h-0.4L49.3,8h-0.6
			c-0.1,0-0.1,0.1-0.2,0.2h-0.3c-0.1,0-0.1,0.1-0.1,0.2h-0.5l-0.2-0.2H47c-0.1,0-0.1,0.1-0.2,0.2h-0.4l-0.2-0.2l0,0l0.2,0.2h0.2l0,0
			h0.1h0.1c0-0.1,0.1-0.1,0.2-0.2h-0.2h-0.1h-0.1h-0.2L46.3,8l0,0h-0.1C46.1,8,46,7.9,46,7.9h-0.8C45.1,7.9,45.1,8,45,8h-0.1
			c-0.1,0-0.1,0.1-0.2,0.2v0.2h-0.2v0.1v0.2c-0.1,0-0.1,0.1-0.1,0.2v0.2c-0.1,0-0.1,0.1-0.2,0.1v0.2c-0.1,0-0.1,0.1-0.2,0.2
			c-0.1,0-0.1,0.1-0.1,0.2v0.1c-0.1,0-0.1,0.1-0.2,0.2V10l0,0v0.1c0,0.1-0.1,0.1-0.1,0.2v0.1l0,0c-0.1,0-0.2,0.1-0.3,0.2
			c-0.1,0-0.1,0.1-0.1,0.2c-0.1,0-0.1,0.1-0.2,0.1c0,0.1,0,0.1-0.1,0.2v0.2c-0.1,0-0.1,0.1-0.2,0.1v0.2c0.1,0,0.1,0.1,0.2,0.2V12
			l-0.2,0.2v0.2c0.1,0,0.1,0.1,0.2,0.2l0,0c0-0.1-0.1-0.1-0.2-0.2v0.2l0,0v0.1v0.2l0,0l0,0c0,0-0.1,0.1-0.1,0.2v0.1l0,0
			c0,0-0.1,0.1-0.2,0.1c-0.1,0-0.1,0.1-0.2,0.2H42c-0.1,0-0.1,0.1-0.1,0.2h-0.3c-0.1,0-0.1,0.1-0.1,0.2l0,0c0-0.1,0.1-0.1,0.1-0.2
			h-0.1v0.2h-1.2c-0.1,0-0.1,0.1-0.2,0.1c-0.1,0-0.1,0.1-0.2,0.2h-0.1c-0.1,0-0.1,0.1-0.1,0.2v0.3l0,0l0,0l0,0l0,0l0.1,0.1
			c0-0.1,0-0.1,0-0.1s0,0,0,0.1h0.5c0,0,0.1,0.1,0.1,0.2h0.2l0,0h0.2v-0.2l0,0l0,0v0.1h0.1l0,0H42l0.1,0.1h0.1l0,0l0,0l0,0v0.1v0.2
			v0.1v0.2l0,0l0,0V16c-0.1,0-0.1,0.1-0.2,0.1l0,0c-0.1,0-0.1,0.1-0.2,0.2h-0.3c-0.1,0-0.1,0.1-0.2,0.2h-0.1c-0.1,0-0.1,0.1-0.2,0.2
			h-0.2c-0.1,0-0.1,0.1-0.1,0.1h-0.2c-0.1,0-0.1,0.1-0.2,0.2h-0.6c-0.1,0-0.1,0.1-0.1,0.2H39L38.8,17l-0.2-0.2l-0.1-0.1
			c-0.1-0.1-0.1-0.1-0.1-0.2l-0.2-0.2L38,16.1h-0.5l0,0h0.2H38h0.2c-0.1,0-0.1-0.1-0.2-0.1h-0.1h-0.2h-0.2l0,0h-0.1
			c-0.1,0-0.2,0.1-0.3,0.1s-0.1,0.1-0.2,0.2v0.3c-0.1,0-0.1,0.1-0.1,0.1v0.2c-0.1,0-0.1,0.1-0.2,0.2c-0.1,0-0.1,0.1-0.2,0.1
			c-0.1,0-0.1,0.1-0.2,0.1v0.2l0,0v-0.2c-0.1,0-0.1,0.1-0.1,0.2l0,0v0.2L36,17.8V18l0,0v-0.2c-0.1,0-0.1,0.1-0.2,0.2l0,0v0.2l0,0
			v0.5c0,0,0.1,0.1,0.2,0.1l0,0c-0.1-0.1-0.1-0.1-0.2-0.1v0.1l0,0V19l0,0H36v-0.1v-0.2l0,0v2.5c0,0,0.1,0.1,0.2,0.1
			c0.1,0,0.2,0.1,0.3,0.1l0.2,0.2H37l0.2,0.2h0.1c0-0.1,0.1-0.1,0.2-0.2H38c0-0.1,0.1-0.1,0.1-0.2h0.2c0.2-0.1,0.3-0.1,0.5-0.1
			c0-0.1,0.1-0.1,0.1-0.1h0.6c0-0.1,0.1-0.1,0.2-0.2h0.2c0,0,0.1,0.1,0.1,0.2c0.1-0.1,0.3-0.1,0.5-0.2H41c0.1,0,0.1,0.1,0.1,0.2
			c0.1,0,0.1,0.1,0.2,0.1c0,0,0.1,0.1,0.2,0.1l0,0l0,0c-0.1-0.1-0.1-0.1-0.2-0.1v0.1l0,0l0.2,0.2c-0.1,0.5-0.1,0.5-0.3,0.6
			c-0.1,0-0.1,0.1-0.1,0.2c-0.1,0-0.1,0.1-0.2,0.1h-0.2c-0.1,0-0.1,0.1-0.1,0.2l0,0h-0.1c-0.1,0-0.1,0.1-0.1,0.1l0,0
			c-0.1,0-0.1,0.1-0.1,0.2c-0.1,0-0.1,0.1-0.1,0.1c-0.1,0-0.2,0.1-0.3,0.2l0,0h-0.1h-0.1c-0.1,0-0.1,0.1-0.1,0.1h-0.2
			c-0.1,0-0.1,0.1-0.1,0.1c-0.1,0-0.1,0.1-0.1,0.2L38.9,24H38c-0.1,0-0.1,0.1-0.1,0.1h-0.3c-0.1,0-0.1,0.1-0.1,0.1
			c-0.1,0-0.1,0.1-0.2,0.2c-0.1,0-0.1,0.1-0.1,0.2h-0.6c-0.1,0.1-0.2,0.2-0.3,0.3v0.2c0.1,0,0.1,0.1,0.1,0.2v0.4l0.2,0.2h0.2
			c0,0,0.1,0.1,0.2,0.1h0.3c0-0.1,0.1-0.1,0.1-0.1h0.3c0-0.1,0.1-0.1,0.2-0.2H38c0-0.1,0.1-0.1,0.2-0.2c0.1-0.1,0.2-0.1,0.3-0.1
			c0-0.1,0.1-0.1,0.1-0.1c0.1-0.1,0.2-0.1,0.3-0.2c0-0.1,0.1-0.1,0.2-0.2c0.1-0.1,0.2-0.2,0.3-0.3h1.2c0,0.1,0.1,0.1,0.2,0.1
			c0.1,0.1,0.1,0.1,0.1,0.2v0.2c0.1,0,0.1,0.1,0.2,0.2l0,0c0-0.1-0.1-0.1-0.2-0.2v0.2l0,0v0.1v0.1v0.2v0.2V26l0,0v0.2
			c-0.1,0-0.1,0.1-0.1,0.2v0.2c-0.1,0-0.1,0.1-0.2,0.2l0,0V27l0,0l0,0l0,0v0.2l0,0v0.1l0,0v0.2l0.2,0.2l0,0l0,0v0.1
			c0.1,0,0.1,0.1,0.1,0.2l0,0l0,0v0.2l0,0l0,0l0.1,0.1l0,0c0,0,0.1,0.1,0.2,0.1v0.2c0,0,0.1,0.1,0.1,0.2V29c0,0.1,0.1,0.1,0.2,0.2
			l0,0h0.8c0-0.1,0.1-0.1,0.2-0.1c0-0.1,0.1-0.1,0.2-0.2c0-0.1,0.1-0.1,0.1-0.2v-0.3v-0.1v-0.2l0,0v-0.2l-0.1-0.1l0,0l0.1,0.1v-0.1
			v-0.2v-0.2l0,0v-0.1c0-0.1-0.1-0.1-0.1-0.2v-0.5l0,0v-0.1l-0.2-0.2v-0.8c0-0.1,0.1-0.1,0.2-0.1l-0.2-0.2V25c0-0.1,0.1-0.1,0.2-0.2
			l0,0v-0.1l0,0l0,0c-0.1-0.1-0.1-0.2-0.2-0.3v0.3l0,0v0.1l0,0v-1.7c0-0.1,0.1-0.1,0.2-0.1v-0.3c0-0.1,0.1-0.2,0.1-0.3v-0.9l0,0v0.2
			v0.2l0,0V22l0,0v0.2c0-0.1,0.1-0.1,0.2-0.2l0,0v-0.1l0,0v-0.2v-0.2l0,0c0-0.1-0.1-0.1-0.2-0.1v-0.1c0.1-0.1,0.1-0.2,0.2-0.3l0,0
			v-0.2h-0.2l0,0H43v-0.1v-0.2l0,0v-0.1l0,0v-0.1c0-0.3,0-0.3,0.1-0.3l0,0v-0.2l0.2-0.2c0-0.1,0.1-0.1,0.1-0.1h0.2
			c0-0.1,0.1-0.1,0.2-0.2H44c0-0.1,0.1-0.1,0.1-0.2l0,0c-0.1,0-0.1,0.1-0.1,0.2h0.1h0.2c0-0.1,0.1-0.1,0.2-0.2h0.2l0.2,0.2H45l0,0
			h0.5c0,0,0.1,0.1,0.1,0.2h0.1h0.2H46h0.2l0,0v0.1c0.1,0,0.1,0.1,0.1,0.2V20l0,0v0.1v0.1v0.2c0-0.1,0.1-0.1,0.2-0.2v-0.1l0,0v0.1
			c-0.1,0-0.1,0.1-0.2,0.2V21c-0.1,0-0.1,0.1-0.1,0.2l0,0v0.1l0,0v0.5c-0.1,0-0.1,0.1-0.2,0.1l0,0V22c-0.1,0.3-0.1,0.3-0.3,0.5l0,0
			h-0.1h-0.1h-0.2h-0.2H45c-0.1,0-0.1,0.1-0.1,0.1h-0.2c-0.1,0-0.1,0.1-0.1,0.1c-0.1,0-0.1,0.1-0.2,0.2c-0.1,0-0.1,0.1-0.2,0.1v0.9
			c0,0,0.1,0.1,0.2,0.1v0.3l0.2,0.2c0,0.1,0.1,0.1,0.1,0.1h0.2l0.2,0.2h0.7c0-0.1,0.1-0.1,0.2-0.2h0.6c0-0.1,0.1-0.1,0.2-0.1h0.3
			c0.5-0.1,0.5-0.1,0.8-0.3c0-0.1,0.1-0.1,0.2-0.1l0,0c0-0.1,0.1-0.1,0.1-0.1v-0.2c0-0.1,0.1-0.1,0.2-0.2v-0.2
			c-0.1,0-0.1,0.1-0.2,0.2l0,0c0-0.1,0.1-0.1,0.2-0.2c0-0.1,0.1-0.1,0.1-0.1v-0.2c0-0.1,0.1-0.1,0.2-0.2c0-0.1,0.1-0.1,0.1-0.1
			c0-0.1,0.1-0.1,0.2-0.2v-0.3c0-0.1,0.1-0.1,0.2-0.1V22c0-0.1,0.1-0.1,0.2-0.2v-0.3c0-0.1,0.1-0.1,0.1-0.2v-0.2l0,0v0.2
			c0-0.1,0.1-0.1,0.2-0.2l0,0l0,0l0,0l0,0V21l0,0c0-0.1,0.1-0.1,0.2-0.1l0,0V21l0,0v-0.2l0,0v-0.2h-0.2v0.2l0,0v-0.2l0,0h0.2v-0.1
			l0,0v-0.2c0-0.1,0.1-0.1,0.1-0.2V20c0-0.1,0.1-0.1,0.1-0.1l0,0v-0.2v-0.2c0-0.1-0.1-0.1-0.1-0.1v0.1v0.2V20l0,0v-0.5
			c-0.1-0.1-0.1-0.1-0.1-0.2l-0.2-0.2L49.2,19h-0.3c-0.1,0-0.1-0.1-0.2-0.1h-0.2c0-0.1-0.1-0.1-0.1-0.2c-0.1-0.1-0.1-0.1-0.2-0.1
			s-0.1-0.1-0.1-0.2S48,18.3,48,18.3c0-0.1-0.1-0.1-0.1-0.2H47c-0.1,0-0.1,0.1-0.2,0.2h-0.1c-0.1,0-0.1,0.1-0.1,0.1h-0.8
			c-0.1,0-0.1,0.1-0.2,0.2h-0.7l-0.2-0.2h-0.9c0-0.1-0.1-0.1-0.1-0.1c-0.1-0.1-0.2-0.1-0.3-0.2c0-0.1-0.1-0.1-0.1-0.2l0,0
			c0.1,0,0.1,0.1,0.1,0.2V18v-0.2l0,0l0,0l-0.1-0.1v-0.2c0-0.1,0.1-0.1,0.1-0.2c0-0.1,0.1-0.1,0.2-0.1v-0.1l0,0l0,0h0.1
			c0-0.1,0.1-0.1,0.1-0.2l0.1-0.1h0.6l0,0h0.1h0.2l0.1-0.1l0,0c0-0.1,0.1-0.2,0.2-0.3v-0.2c-0.1,0-0.1-0.1-0.2-0.1
			c0-0.1-0.1-0.1-0.1-0.1l0,0l0,0l0.1,0.1V16l0,0l0,0l-0.1-0.1h-0.1l0,0l0,0l-0.1-0.1l-0.1-0.1l0,0l0.1,0.1v-0.1v-0.2V15v-0.1l0,0
			c0-0.1,0.1-0.1,0.2-0.1c0-0.1,0.1-0.1,0.2-0.2c0-0.1,0.1-0.1,0.1-0.1h0.2c0-0.1,0.1-0.1,0.2-0.2c0-0.1,0.1-0.1,0.1-0.1h0.1
			c0-0.1,0.1-0.1,0.2-0.2l0,0c0-0.1,0.1-0.1,0.2-0.2v-0.1l-0.2-0.1l0,0c0-0.1-0.1-0.1-0.2-0.2h-0.2c-0.1-0.1-0.1-0.1-0.1-0.1h-0.1
			l0,0h-0.2c-0.1,0-0.1-0.1-0.1-0.1h-0.3v-0.1c-0.1-0.1-0.1-0.1-0.1-0.2v0.2l0.1,0.1l0,0c-0.1,0-0.1-0.1-0.1-0.1v-0.2l-0.2-0.2
			c-0.1-0.1-0.1-0.3-0.2-0.5l0,0c0,0.2,0.1,0.3,0.2,0.5v-0.5l0,0V12l0,0v-0.2l0,0c0.1-0.1,0.2-0.2,0.3-0.3h0.1l0,0
			c0-0.1,0.1-0.1,0.2-0.2h-0.1l0,0h0.2l0.1-0.1c0-0.1,0.1-0.1,0.2-0.2h1.1l0,0v0.1l0,0h0.2l0,0h0.1l0.1,0.1v0.2
			c0.1,0,0.1,0.1,0.1,0.2c0,0,0.1,0.1,0.2,0.1c0,0.1,0.1,0.1,0.2,0.1V12h0.2c0,0,0.1,0.1,0.1,0.2l0.2,0.2h0.8v-0.2l0,0v0.2l0,0h-0.1
			h-0.1H48h-0.1h-0.2c0,0,0.1,0.1,0.2,0.1H48h0.2h0.1h0.3c0-0.1,0.1-0.1,0.2-0.1l0,0c0-0.1,0.1-0.1,0.2-0.2l0,0V12l0,0l0,0l0,0
			c0-0.1,0.1-0.1,0.2-0.1v-0.2l0,0l-0.1-0.1l0,0l0,0v-0.2l0,0c-0.1,0-0.1-0.1-0.2-0.1v-0.7c0-0.1,0.1-0.1,0.2-0.2
			c0-0.1,0.1-0.1,0.2-0.1c0-0.1,0.1-0.1,0.1-0.2c-0.2,0-0.1-0.1-0.1-0.1h0.2c0-0.1,0.1-0.1,0.1-0.2l0,0c-0.1,0-0.1,0.1-0.1,0.2h0.1
			c0-0.1,0.1-0.1,0.1-0.2l0,0c0-0.1,0.1-0.1,0.2-0.2V9.5c0-0.1,0.1-0.1,0.2-0.2C50.1,9.3,50.1,8.5,50.1,8.5z M41.1,19.2
			c-0.1,0-0.1,0.1-0.2,0.2c-0.1,0-0.1,0.1-0.1,0.2c-0.2,0-0.3,0.1-0.5,0.1c-0.1,0-0.1,0.1-0.2,0.2h-0.3c-0.1,0-0.1,0.1-0.1,0.2h-0.8
			l0,0l-0.2-0.2h-0.3l-0.2-0.2v-0.1v-0.2l0,0v-0.2V19c0-0.1,0.1-0.1,0.2-0.1c0-0.1,0.1-0.1,0.1-0.2s0.1-0.1,0.1-0.1h0.3
			c0-0.1,0.1-0.1,0.1-0.2h0.6l0,0l0,0l0,0c0-0.1,0.1-0.1,0.1-0.1h0.6c0.2,0,0.4,0.1,0.6,0.1v0.2l0,0v0.1l0,0v0.2l0,0V19l0,0l0,0
			C41.2,19.1,41.1,19.1,41.1,19.2z"/>
		<path class="st1" d="M42.3,15.8c-0.1,0-0.1,0.1-0.2,0.1V16C42.1,15.9,42.2,15.9,42.3,15.8L42.3,15.8z"/>
		<path class="st1" d="M50.1,9.4c-0.1,0-0.1,0.1-0.2,0.2l0,0v0.1c0-0.1,0.1-0.1,0.2-0.1l0,0V9.4z"/>
		<path class="st1" d="M40.8,16.7c0-0.1,0.1-0.1,0.1-0.1h-0.1V16.7z"/>
		<path class="st1" d="M40.6,16.7h0.2v-0.1C40.7,16.6,40.7,16.7,40.6,16.7h-0.2h-0.1c-0.1,0-0.1,0.1-0.2,0.2h0.2h0.1
			C40.5,16.8,40.6,16.8,40.6,16.7z"/>
		<path class="st1" d="M50.3,8.9L50.3,8.9c-0.1-0.1-0.1-0.2-0.2-0.3v0.3l0,0v0.3C50.2,9.1,50.2,9,50.3,8.9L50.3,8.9L50.3,8.9
			L50.3,8.9z"/>
		<path class="st1" d="M42.6,23.3v-0.2l0,0V23c-0.1,0-0.1,0.1-0.2,0.1l0,0l0,0v0.2v0.2h0.2V23.3z"/>
		<path class="st1" d="M40.6,24.8h0.2c-0.1,0-0.1-0.1-0.2-0.1h-0.2v0.1H40.6L40.6,24.8z"/>
		<path class="st1" d="M42.5,23.6c0-0.1,0.1-0.1,0.2-0.1h-0.2V23.6z"/>
		<path class="st1" d="M39.7,21.2L39.7,21.2c0-0.1,0-0.1,0-0.2h-0.2l0,0l0,0c-0.1,0-0.1,0.1-0.2,0.2h0.2l0,0H39.7z"/>
		<path class="st1" d="M40.6,21h-0.2h-0.1c0.1,0.1,0.1,0.1,0.1,0.2C40.5,21.1,40.6,21.1,40.6,21z"/>
		<path class="st1" d="M36.9,21.6L36.9,21.6c-0.1,0,0,0.1,0,0.2h0.2L36.9,21.6z"/>
		<path class="st1" d="M38.2,21.5H38c-0.1,0-0.1,0.1-0.1,0.2l0,0H38l0,0C38.1,21.6,38.1,21.5,38.2,21.5z"/>
	</g>
	<g>
		<path class="st1" d="M64.8,18.1L64.8,18.1h0.3h0.2c0-0.1,0.1-0.1,0.2-0.2h-0.2h-0.2h-0.2h-0.1C64.7,17.9,64.7,18,64.8,18.1
			L64.8,18.1L64.8,18.1z"/>
		<path class="st1" d="M56.8,18.1H57V18h-0.2h-0.1c-0.1,0-0.1,0.1-0.2,0.2h0.2h0.1V18.1z"/>
		<path class="st1" d="M68.6,17.8h-0.2c-0.1,0-0.1,0.1-0.1,0.2h0.1C68.5,17.9,68.6,17.8,68.6,17.8z"/>
		<path class="st1" d="M70,17.5L70,17.5L70,17.5c0.1-0.1,0-0.1,0-0.2h-0.2c-0.1,0-0.1,0.1-0.2,0.2h0.2H70z"/>
		<path class="st1" d="M69.2,17.7c0-0.1,0.1-0.1,0.2-0.2h-0.2c-0.1,0-0.1,0.1-0.2,0.2H69.2L69.2,17.7z"/>
		<path class="st1" d="M60.6,20.6c0,0.1,0.1,0.1,0.2,0.1h0.1c-0.1,0-0.1-0.1-0.1-0.1H60.6z"/>
		<path class="st1" d="M60.2,20.4H60c0.1,0,0.1,0.1,0.1,0.2h0.2h0.2L60.2,20.4L60.2,20.4z"/>
		<path class="st1" d="M57.9,20.7L57.9,20.7h-0.3h-0.2c0,0.1,0.1,0.1,0.2,0.2h0.2l0,0h0.1H58c0-0.1,0.1-0.1,0.2-0.2H57.9L57.9,20.7z
			"/>
		<path class="st1" d="M61.4,20.9v-0.2h-0.1C61.3,20.8,61.4,20.8,61.4,20.9z"/>
		<polygon class="st1" points="56.7,19.2 56.7,19 56.5,19 		"/>
		<path class="st1" d="M56.7,19.5v0.1c0,0,0.1,0.1,0.1,0.2v-0.2L56.7,19.5c0-0.1,0-0.1,0-0.2V19.5z"/>
		<path class="st1" d="M72.9,19L72.9,19v-0.1v-0.2c-0.1-0.1-0.1-0.1-0.2-0.1v-0.2c-0.1-0.1-0.1-0.1-0.2-0.1l0,0c0,0,0.1,0.1,0.2,0.1
			v-0.1l0,0l0,0l-0.1-0.1l0,0c-0.1-0.1-0.1-0.1-0.1-0.2h-0.2l0,0h0.1c-0.1,0-0.1-0.1-0.2-0.2H72c-0.1,0-0.1-0.1-0.2-0.1
			c0-0.1-0.1-0.1-0.1-0.2h-2.5c-0.1,0-0.1,0.1-0.2,0.2h-0.3c-0.1,0-0.1,0.1-0.1,0.1h-0.2c-0.1,0-0.1,0.1-0.2,0.2h-1.4l0,0h0.1
			c0-0.1-0.1-0.1-0.1-0.2h-0.2l0,0h-0.3c-0.1,0-0.1,0.1-0.2,0.2h-0.2c-0.1,0-0.1,0.1-0.2,0.2h-0.4l0,0h0.2H66h0.1
			c0-0.1,0.1-0.1,0.2-0.2h-0.2H66h-0.1h-0.2h-0.2l0,0h-0.1c-0.1,0-0.1,0.1-0.2,0.2h-0.8c-0.1,0-0.1,0.1-0.2,0.2l0,0
			c0-0.1,0.1-0.1,0.2-0.2h-0.2l0,0c-0.1,0-0.1,0.1-0.1,0.2l0,0H64c-0.1,0-0.1,0.1-0.2,0.1l0,0c0-0.1,0.1-0.1,0.2-0.1h-0.2l0,0h-0.1
			l0,0h-0.5c0-0.1-0.1-0.1-0.2-0.2l0,0c-0.1,0-0.1,0.1-0.1,0.2l0,0h-0.8l0,0H62h-0.1h-0.2h-0.2l0,0h-0.2h-0.1H61l0,0h-0.1h-0.2l0,0
			h-0.1l0.1,0.1l0,0l-0.1-0.1h-0.2c-0.1,0-0.1,0.1-0.2,0.1h-0.3c-0.1-0.1-0.1-0.1-0.2-0.1h-0.1v0.1l0,0l0,0v-0.1h-0.2l0,0h-0.2
			c0,0,0.1,0.1,0.2,0.1l0,0c-0.1-0.1-0.1-0.1-0.2-0.1h-0.6l-0.2-0.2h-0.1l0,0h-0.2l0,0C57.8,18.1,57.4,18,57,18v0.2
			c-0.1,0-0.1,0.1-0.2,0.2l0,0c0-0.1,0.1-0.1,0.2-0.2h-0.2h-0.1h-0.2v0.2l0,0l0,0v0.1l0,0v0.2h0.2l0,0h-0.2v0.1l0,0V19l0,0l0,0h0.2
			v-0.1l0,0v0.5c0,0,0.1,0.1,0.1,0.2V20c0,0,0.1,0.1,0.2,0.1v0.1l0.2,0.2c0.1,0,0.1,0.1,0.1,0.2c0.1,0,0.1,0.1,0.2,0.1h0.9l0.1-0.1
			H59c0-0.1,0.1-0.1,0.1-0.2h1.2l0.2,0.2h0.3c0,0.1,0.1,0.1,0.1,0.1h0.5c0,0.1,0.1,0.1,0.2,0.2l0,0c-0.1,0-0.1-0.1-0.2-0.2v0.2h0.2
			l0,0l0.2,0.2c0-0.1,0.1-0.1,0.2-0.2l0,0h0.5c0,0,0.1,0.1,0.1,0.2c0.1-0.1,0.2-0.1,0.3-0.2H63l0,0h0.1c0-0.1,0.1-0.1,0.1-0.2l0,0
			l-0.1-0.1l0,0c0,0.1,0.1,0.1,0.1,0.1h0.3c0,0.1,0.1,0.1,0.1,0.2H64l0,0c0-0.1,0.1-0.1,0.2-0.2l0.1-0.1h0.5l0,0h0.1
			c0-0.1,0.1-0.1,0.2-0.2h0.8l0,0H66h0.1h0.2h0.2h0.2l-0.2-0.2l0,0l0.2,0.2h0.6l0.2,0.2h0.1h0.2h0.1H68h0.2h0.2
			c0-0.1,0.1-0.1,0.1-0.2h0.2l0,0l0.1,0.1l0,0l0,0h0.1H69h0.2h0.2l-0.2-0.2l0,0l0.2,0.2l0,0c0,0.1,0.1,0.1,0.2,0.1h0.1
			c-0.1,0-0.1-0.1-0.1-0.1l0,0c0,0.1,0.1,0.1,0.1,0.1H70c0,0.1,0.1,0.1,0.1,0.2h0.1v-0.2l0,0v0.2h0.3c0-0.1,0.1-0.1,0.1-0.2h0.2
			c0,0.1,0.1,0.1,0.2,0.2h0.6c0-0.1,0.1-0.1,0.2-0.2H72c0-0.1,0.1-0.1,0.2-0.1c0.1-0.1,0.2-0.1,0.3-0.2c0.1-0.2,0.3-0.3,0.5-0.4l0,0
			l0.1-0.1v-0.3v-0.2v-0.2V19H72.9L72.9,19z"/>
	</g>
	<g>
		<polygon class="st1" points="92.6,13.5 92.6,13.5 92.6,13.5 92.8,13.7 92.8,13.5 92.6,13.4 		"/>
		<path class="st1" d="M92.6,13.1L92.6,13.1V13l0,0v-0.2l0,0v-0.2h-0.2l0,0v0.2l0,0V13v0.1l0,0c0,0.1,0.1,0.1,0.2,0.1V13.1z"/>
		<path class="st1" d="M92.9,14c0-0.1-0.1-0.1-0.1-0.2L92.9,14L92.9,14l-0.1,0.2l0,0l0,0l0.1,0.1v-0.1l0,0V14L92.9,14z"/>
		<path class="st1" d="M90.2,14.1L90.2,14.1v0.1l0,0v0.2l0,0h0.1v-0.2L90.2,14.1L90.2,14.1l0.1-0.1l0,0v-0.2c-0.1,0-0.1,0.1-0.2,0.2
			l0,0L90.2,14.1L90.2,14.1z"/>
		<path class="st1" d="M90.5,13.2v-0.1c-0.1,0.1-0.1,0.1-0.2,0.1v0.2v0.2c0-0.1,0.1-0.1,0.2-0.2V13.2z"/>
		<path class="st1" d="M90.3,14.6L90.3,14.6v-0.1h-0.2v0.1l0,0v0.2C90.2,14.7,90.3,14.6,90.3,14.6z"/>
		<path class="st1" d="M92.8,14.6L92.8,14.6v0.2l0,0v0.1l0.1-0.1l0,0L92.8,14.6L92.8,14.6l0.1-0.1C92.9,14.5,92.8,14.5,92.8,14.6z"
			/>
		<path class="st1" d="M98.9,18.7L98.9,18.7v0.2c0-0.1,0.1-0.1,0.2-0.2l0,0v-0.1v-0.2c-0.1,0-0.1,0.1-0.2,0.2V18.7z"/>
		<path class="st1" d="M92.8,11.7c-0.1,0-0.1,0.1-0.2,0.1V12c0-0.1,0.1-0.1,0.2-0.1V11.7z"/>
		<polygon class="st1" points="99.4,23.6 99.4,23.8 99.5,23.8 		"/>
		<polygon class="st1" points="99.1,18.1 99.1,18.1 98.9,18 98.9,18.1 98.9,18.1 99.1,18.3 		"/>
		<path class="st1" d="M92.6,12.6v-0.1l0,0v-0.2l0,0v-0.2l0,0V12c-0.1,0-0.1,0.1-0.2,0.2l0,0v0.2l0,0v0.2l0,0v0.1l0,0L92.6,12.6
			L92.6,12.6z"/>
		<path class="st1" d="M86,12.6v-0.1c-0.1,0-0.1,0.1-0.2,0.1l0,0l0,0v0.2C85.9,12.7,86,12.7,86,12.6L86,12.6z"/>
		<path class="st1" d="M85.4,13.8v-0.2C85.3,13.6,85.3,13.7,85.4,13.8L85.4,13.8L85.4,13.8L85.3,14C85.3,13.9,85.3,13.9,85.4,13.8
			L85.4,13.8z"/>
		<path class="st1" d="M86.2,12.3v-0.2c-0.1,0-0.1,0.1-0.2,0.2l0,0v0.2C86.1,12.4,86.1,12.3,86.2,12.3L86.2,12.3z"/>
		<path class="st1" d="M90.2,15.5L90.2,15.5v-0.1c-0.1,0-0.1,0.1-0.2,0.1l0,0l0,0l0.2,0.2V15.5z"/>
		<path class="st1" d="M84.8,14.7c0-0.1,0.1-0.1,0.2-0.2l0,0v-0.1c-0.1,0-0.1,0.1-0.2,0.1l0,0V14.7z"/>
		<path class="st1" d="M90.2,15L90.2,15v-0.2c-0.1,0-0.1,0.1-0.2,0.2l0,0l0.2,0.2V15z"/>
		<path class="st1" d="M84.1,15.7c-0.1,0-0.1,0.1-0.1,0.2l0,0l0,0V16c0-0.1,0.1-0.1,0.1-0.1V15.7z"/>
		<path class="st1" d="M98.8,17.8L98.8,17.8L98.8,17.8l-0.3-0.1C98.5,17.8,98.6,17.8,98.8,17.8L98.8,17.8L98.8,17.8z"/>
		<path class="st1" d="M90.5,21L90.5,21c0-0.1,0.1-0.1,0.1-0.2h-0.1l0,0c-0.1,0-0.1,0.1-0.2,0.2H90.5z"/>
		<path class="st1" d="M93.7,25L93.7,25v0.2c0-0.1,0.1-0.1,0.2-0.2l0,0c-0.1-0.1-0.1-0.2-0.2-0.3V25z"/>
		<path class="st1" d="M84.7,20v0.1C84.7,20,84.8,20,84.7,20c0-0.1,0-0.1,0-0.2V20z"/>
		<path class="st1" d="M84.5,19.5L84.5,19.5c0,0,0.1,0.1,0.2,0.1v-0.1l0,0v-0.2v-0.2l0,0L84.5,19v0.2l0,0V19.5L84.5,19.5z"/>
		<path class="st1" d="M89.8,23.8h-0.2V24l0,0v-0.2H89.8c-0.1-0.1-0.1-0.1-0.2-0.2v0.2l0,0v-0.2l0,0v-0.1l0,0l-0.1-0.1l0,0
			c-0.1-0.1-0.1-0.1-0.1-0.2l0,0c-0.1-0.1-0.1-0.1-0.2-0.1H89l0,0h-0.3c-0.1,0-0.1,0.1-0.2,0.1v0.3l0,0v-0.2c-0.1,0-0.1,0.1-0.2,0.2
			l0,0v0.1c0-0.1,0.1-0.1,0.2-0.1l0,0c-0.1,0-0.1,0.1-0.2,0.1v0.6l0,0v0.1v0.2l0,0l0.2,0.2l0,0c0,0.1,0.1,0.1,0.2,0.1
			c0.1,0.1,0.1,0.1,0.1,0.2l0,0h0.5c0-0.1,0.1-0.1,0.1-0.2l0,0v-0.1c-0.1,0-0.1,0.1-0.1,0.1l0,0c0-0.1,0.1-0.1,0.1-0.1
			c0-0.1,0.1-0.1,0.1-0.2v-0.2l0,0v0.2c0-0.1,0.1-0.1,0.2-0.2l0,0l0,0v-0.1h-0.2v0.1l0,0v-0.1h0.2v-0.1l0,0v-0.2l0,0v-0.1
			C89.7,23.8,89.8,23.8,89.8,23.8z"/>
		<polygon class="st1" points="86.2,25.1 86.2,25 86.2,25 86.2,24.8 86.2,24.8 86.2,24.7 86.1,24.7 86.1,24.8 86.1,24.8 86.1,25 
			86.1,25 86.1,25.1 86.1,25.3 86.2,25.3 		"/>
		<path class="st1" d="M86.2,25.5v-0.1H86C86.1,25.4,86.2,25.4,86.2,25.5z"/>
		<path class="st1" d="M88.6,14.9l0.1-0.1l0,0c0.1-0.1,0.1-0.2,0.2-0.3l0,0v-0.2l0,0v-0.1l0,0l0,0l0.1-0.1l0,0V14l0,0l0,0l0.1-0.1
			v-0.2v-0.2v-0.2v-0.1L89,13.1v-0.2l0,0v-0.1l0,0l-0.1-0.1l0,0l0,0v-0.1l0,0c0-0.1-0.1-0.1-0.1-0.1l0,0l0,0V12v-0.2l-0.1-0.1v-0.2
			l-0.2-0.2c-0.1,0-0.1-0.1-0.2-0.1h-0.1c-0.1-0.1-0.1-0.1-0.1-0.2h-0.2c-0.1,0-0.1,0.1-0.2,0.2l0,0c0-0.1,0.1-0.1,0.2-0.2h-0.2l0,0
			h-0.1h-0.1v0.2l0,0v-0.1h-0.1v0.2l0,0v-0.2c-0.1,0-0.1,0.1-0.2,0.2H87c-0.1,0-0.1,0.1-0.2,0.1s-0.1,0.1-0.1,0.2
			c-0.1,0-0.1,0.1-0.2,0.2c-0.1,0-0.1,0.1-0.1,0.1l0,0c-0.1,0-0.1,0.1-0.1,0.1l0,0v0.2c0-0.1,0.1-0.1,0.2-0.2l0,0
			c-0.1,0-0.1,0.1-0.2,0.2v0.2c-0.1,0-0.1,0.1-0.2,0.2v0.1c-0.1,0-0.1,0.1-0.2,0.2v0.4c-0.1,0-0.1,0.1-0.1,0.2l0,0
			c0-0.1,0.1-0.1,0.1-0.2v-0.1v-0.1l0,0v-0.2c-0.1,0-0.1,0.1-0.1,0.2l0,0v0.1l0,0c-0.1,0.1-0.1,0.1-0.2,0.1v0.2l0,0v0.1
			c-0.1,0-0.1,0.1-0.2,0.2V14c-0.1,0-0.1,0.1-0.1,0.2c-0.1,0-0.1,0.1-0.1,0.2c-0.1,0.1-0.1,0.2-0.2,0.3v0.1c-0.1,0-0.1,0.1-0.2,0.2
			c-0.1,0-0.1,0.1-0.1,0.1l-0.5,0.5c-0.1,0-0.1,0.1-0.1,0.1V16C84,16,84,16.1,84,16.1c-0.1,0-0.1,0.1-0.2,0.1h-0.2
			c-0.1,0-0.1,0.1-0.1,0.2h-0.2c-0.1,0-0.1,0.1-0.2,0.2h-0.3l0,0h-0.1c-0.1,0-0.1,0.1-0.1,0.2l0,0c-0.1,0.1-0.2,0.2-0.3,0.3
			c-0.1,0-0.1,0.1-0.2,0.2v0.2c-0.1,0-0.1,0.1-0.2,0.1v0.1l0,0c-0.1,0-0.1,0.1-0.1,0.2h-0.1c-0.1,0-0.1,0.1-0.2,0.1
			s-0.1,0.1-0.2,0.2v0.6c0,0,0.1,0.1,0.2,0.1l0.2,0.2c0,0.1,0.1,0.1,0.2,0.1H83c0.1,0,0.1-0.1,0.2-0.1h0.2l0,0h0.2
			c0-0.1,0.1-0.1,0.1-0.2l0,0c0-0.1,0.1-0.1,0.2-0.1h0.4c0,0,0.1,0.1,0.2,0.1l0.2,0.2V19l0.2,0.2v0.6c0,0,0.1,0.1,0.1,0.2
			c-0.1,0-0.1,0.1-0.1,0.1v1.4l0,0v-0.1v-0.1l0,0V21c-0.1,0-0.1,0.1-0.2,0.2l0,0v0.1v0.1l0,0v0.2l0,0v0.2l0,0l0,0
			c-0.1,0-0.1,0.1-0.2,0.1v0.2v0.2l0,0v0.2c-0.1,0-0.1,0.1-0.2,0.1v0.2l0,0v0.1l0,0v0.3l0,0V23c-0.1,0-0.1,0.1-0.1,0.1l0,0v0.2
			c0-0.1,0.1-0.1,0.1-0.2l0,0c-0.1,0-0.1,0.1-0.1,0.2v0.2c-0.1,0-0.1,0.1-0.1,0.1v0.3c-0.1,0-0.1,0.1-0.2,0.2
			c-0.1,0-0.1,0.1-0.2,0.1v0.1c-0.1,0-0.1,0.1-0.1,0.2v0.3c-0.1,0-0.1,0.1-0.1,0.1l0,0l0.1,0.1l0,0l0,0v0.1h0.1l0,0v0.3l0.2,0.2
			l0.2,0.2v0.1c0,0,0.1,0.1,0.1,0.2h0.1l0.2,0.2c0,0.1,0.1,0.1,0.2,0.1v0.2l0,0l0.2,0.2H85c-0.1-0.1-0.1-0.1-0.1-0.2l0,0l0,0
			c0,0,0.1,0.1,0.1,0.2l0,0c0,0,0.1,0.1,0.2,0.1l0,0h0.6c0-0.1,0.1-0.1,0.1-0.1c0-0.1,0.1-0.1,0.2-0.2l0,0c0-0.1,0.1-0.1,0.2-0.2
			v-0.1v-0.1l0,0l0,0c0-0.1,0.1-0.1,0.1-0.1l0,0C86.3,26,86.3,26,86.2,26v0.1l0,0v-0.6c-0.1-0.1-0.1-0.1-0.2-0.1v-2
			c0-0.1,0.1-0.1,0.2-0.2l0,0V23l0,0v-0.2v-0.1l0,0v-0.2v-0.1l0,0v-0.2h-0.1v-0.8l0,0v0.2l0,0v0.2v0.1v0.2v0.2h0.2v-0.2v-0.2v-0.1
			v-0.2l0,0v-0.2l0,0v-0.1v-0.1l0,0V21l0,0v-0.1l0,0v-0.2l0,0v-0.1v-0.2v-0.2c-0.1,0-0.1,0.1-0.2,0.2l0,0c0-0.1,0.1-0.1,0.2-0.2l0,0
			l0.1-0.1l0,0V20v-0.2v-0.3c-0.1,0.1-0.1,0.2-0.2,0.3l0,0l0,0c0-0.1,0.1-0.2,0.2-0.3v-0.3l0,0V19h-0.1l0,0v-0.7l0,0v0.1l0,0
			c0-0.1,0.1-0.1,0.2-0.1v-0.2c-0.1,0-0.1,0.1-0.2,0.2l0,0c0-0.1,0.1-0.1,0.2-0.2v-0.9l0.1-0.1v-0.2c0-0.1,0.1-0.1,0.2-0.2v-0.3
			c0-0.1,0.1-0.1,0.1-0.2l0,0c0-0.1,0.1-0.2,0.2-0.3l0,0v-0.1c-0.1,0-0.1,0.1-0.2,0.1l0,0c0-0.1,0.1-0.1,0.2-0.1
			c0.1-0.1,0.2-0.1,0.3-0.2c0-0.1,0.1-0.1,0.2-0.2h0.2c0-0.1,0.1-0.1,0.1-0.1c0.1-0.1,0.2-0.1,0.3-0.2c0-0.1,0.1-0.1,0.1-0.2
			C88.3,15,88.5,14.9,88.6,14.9z"/>
		<polygon class="st1" points="86.2,23.9 86.2,23.9 86.2,23.8 86.1,23.8 86.1,23.9 86.1,23.9 86.1,24.1 86.1,24.1 86.1,24.2 
			86.2,24.2 86.2,24.1 86.2,24.1 		"/>
		<path class="st1" d="M86.1,25.3L86.1,25.3L86.1,25.3z"/>
		<rect x="86.1" y="23.6" class="st1" width="0.2" height="0.2"/>
		<path class="st1" d="M86.1,23.5v0.1h0.2C86.2,23.6,86.1,23.5,86.1,23.5z"/>
		<polygon class="st1" points="86.2,24.5 86.2,24.5 86.2,24.4 86.2,24.2 86.1,24.2 86.1,24.4 86.1,24.4 86.1,24.5 86.1,24.5 
			86.1,24.7 86.2,24.7 		"/>
		<path class="st1" d="M93.6,22.7L93.6,22.7v-0.2v-0.1c-0.1,0-0.1,0.1-0.1,0.1L93.6,22.7L93.6,22.7l-0.1,0.1
			C93.4,22.8,93.5,22.8,93.6,22.7z"/>
		<path class="st1" d="M93.6,24.1v-0.2l0,0c-0.1-0.1-0.1-0.1-0.1-0.2v0.2l0,0l0,0C93.5,24,93.5,24,93.6,24.1z"/>
		<path class="st1" d="M93.7,25.5L93.7,25.5v0.1v0.2c0-0.1,0.1-0.1,0.2-0.2v-0.1l0,0c-0.1-0.1-0.1-0.1-0.2-0.1V25.5z"/>
		<path class="st1" d="M93.9,21.5c-0.1,0-0.1,0.1-0.2,0.2v0.2c0-0.1,0.1-0.1,0.2-0.2V21.5z"/>
		<path class="st1" d="M93.7,24.7v-0.2v-0.2l0,0l-0.1-0.1v0.1l0,0l0,0v0.2C93.6,24.6,93.7,24.6,93.7,24.7z"/>
		<path class="st1" d="M93.7,21.9c-0.1,0-0.1,0.1-0.1,0.2v0.2c0-0.1,0.1-0.1,0.1-0.2V21.9z"/>
		<path class="st1" d="M95.7,19.6h-0.2l0.2,0.2h0.1c0-0.1,0.1-0.1,0.2-0.2H95.7L95.7,19.6z"/>
		<path class="st1" d="M96.3,19.6L96.3,19.6h0.3l0,0c0-0.1,0.1-0.1,0.2-0.1h-0.2h-0.2L96.3,19.6z"/>
		<path class="st1" d="M96.2,23c0,0,0.1,0.1,0.2,0.1V23v-0.2c0-0.1,0.1-0.1,0.1-0.1l0,0v-0.2v-0.1l-0.1,0.1c-0.1,0-0.1,0.1-0.2,0.2
			l0,0v0.1V23z"/>
		<path class="st1" d="M96.3,23.3v0.2l0,0l0.1,0.1v-0.1l0,0C96.4,23.4,96.4,23.4,96.3,23.3z"/>
		<path class="st1" d="M99.2,23.3L99.2,23.3L99.2,23.3L99.2,23.3c-0.1-0.1-0.1-0.1-0.1-0.2l0,0h-0.2l0,0C98.8,23,98.8,23,98.7,23
			h-0.1l0,0h-0.2l-0.2-0.2l0,0l-0.1-0.1H98l0,0l0,0l-0.2-0.2h-0.1l0,0h-0.3c-0.1-0.1-0.1-0.1-0.2-0.1H97c-0.1-0.1-0.1-0.1-0.1-0.2
			h-0.2c-0.1,0-0.1,0.1-0.2,0.2h-0.1v0.3l-0.1,0.1v0.5c0,0,0.1,0.1,0.1,0.2v0.3l0,0v0.1l0,0l0,0l0.1,0.1v0.3l0,0v0.1v0.2h0.1l0,0
			h-0.1v0.1l0,0l0,0l0,0l0,0l0.1,0.1l0,0l0,0v0.1l0,0l0.1,0.1l0,0l0.1,0.1c0,0,0.1,0.1,0.2,0.1l0.2,0.2c0.1,0,0.1,0.1,0.1,0.2
			c0.1,0,0.1,0.1,0.2,0.1l0,0c0.2-0.1,0.4-0.1,0.6-0.1l0,0h0.1c0-0.1,0.1-0.1,0.2-0.2v-0.1l0,0c0-0.1,0.1-0.1,0.1-0.1
			c0-0.1,0.1-0.1,0.2-0.1c0-0.1,0.1-0.1,0.2-0.2V25c0-0.1,0.1-0.1,0.1-0.2v-0.1c0-0.1,0.1-0.1,0.1-0.2v-0.9L99,23.5v-0.2H99.2z"/>
		<path class="st1" d="M93.7,17.7L93.7,17.7L93.7,17.7L93.7,17.7c0,0,0.1,0,0.2,0l0,0l0,0l0,0l0,0v-0.2
			C93.8,17.5,93.8,17.6,93.7,17.7z"/>
		<path class="st1" d="M99.5,24.1v-0.2l0,0v-0.2h-0.2v0.2l0,0v0.2l0,0v0.1l0,0v0.1c0-0.1,0.1-0.1,0.2-0.1l0,0V24.1L99.5,24.1z"/>
		<path class="st1" d="M94.5,19.6L94.5,19.6h1.8c0-0.1,0.1-0.1,0.1-0.1h0.5c0-0.1,0.1-0.1,0.1-0.2h0.6l0,0h0.1H98h0.2h0.1h0.2
			c0-0.1,0.1-0.1,0.2-0.2h-0.2h-0.2h-0.1H98h-0.2l0,0h0.9c0-0.1,0.1-0.1,0.2-0.2v-0.5c0-0.1,0.1-0.1,0.2-0.2v-0.1l-0.2-0.2V18
			c-0.1,0-0.1-0.1-0.2-0.2h-0.1l0,0c-0.1,0-0.1-0.1-0.2-0.1h-0.9l-0.1,0.1h-0.3l0,0H97h-0.2c-0.1,0-0.1,0.1-0.2,0.2h-0.2l0,0h-0.1
			c-0.1,0-0.1,0.1-0.2,0.2H96c-0.1,0-0.1,0.1-0.2,0.2h-0.1l0,0h-0.1l0,0c-0.1,0-0.1,0.1-0.2,0.1h0.2l0,0h-0.2
			c-0.2,0-0.5,0.1-0.8,0.2h-0.1h-0.2h-0.2H94l0.1,0.1h0.2h0.1l0,0h-0.3L94,18.6l-0.2-0.2c-0.1-0.2-0.1-0.3-0.2-0.5v-0.3
			c0-0.1,0.1-0.1,0.2-0.2c0-0.1,0.1-0.1,0.2-0.2c0-0.1,0.1-0.1,0.1-0.1c0-0.1,0.1-0.1,0.2-0.1c0-0.1,0.1-0.1,0.2-0.2
			c0-0.1,0.1-0.1,0.1-0.2c0-0.1,0.1-0.1,0.2-0.1c0-0.1,0.1-0.1,0.2-0.2v-0.2c0-0.1,0.1-0.1,0.1-0.2c0-0.1,0.1-0.1,0.2-0.1
			c0-0.1,0.1-0.1,0.1-0.1v-0.3l0,0h0.2v-0.1l0,0v-0.6l0,0v0.1l0,0V15v0.3c0-0.1,0.1-0.2,0.2-0.3v-0.2l0,0v-0.1l0,0v-0.1l0,0v-0.1
			c0.1-0.1,0.2-0.2,0.3-0.3h0.2c0-0.1,0.1-0.1,0.2-0.2c0-0.1,0.1-0.1,0.1-0.2h0.2c0.1-0.1,0.1-0.1,0.2-0.2c0-0.1,0.1-0.1,0.2-0.2
			c0-0.1,0.1-0.1,0.1-0.2V13c0,0,0.1-0.1,0.2-0.1l0,0l0.1-0.1l0,0v-0.1l0,0c-0.1-0.1-0.1-0.2-0.2-0.3l0,0v-0.1l0,0l-0.1-0.1l0,0l0,0
			l-0.1-0.1h-0.1l0,0C97,12.1,97,12,96.9,12h-0.4l0,0v-0.3H96l0,0h0.1L96,11.6l0,0l-0.2-0.2l-0.1-0.1l-0.2-0.2l-0.2-0.2l-0.1-0.1H95
			c0-0.1,0-0.1-0.1-0.2h-0.1l0,0h-0.2h-0.1c-0.1,0-0.1,0.1-0.2,0.2h-0.2c-0.1,0-0.1,0.1-0.1,0.1h-0.2c-0.1,0-0.1,0.1-0.2,0.2h-0.1
			c-0.1,0-0.1,0.1-0.1,0.2l0,0c0-0.1,0.1-0.1,0.1-0.2h-0.1l0,0c-0.1,0-0.1,0.1-0.2,0.2l0,0c-0.1,0-0.1,0.1-0.1,0.1
			c-0.1,0-0.1,0.1-0.2,0.2c-0.1,0-0.1,0.1-0.1,0.2v0.1c-0.1,0-0.1,0.1-0.2,0.1v1.4l0.2,0.2v0.3c0.1,0,0.1,0.1,0.1,0.2v0.8L92.8,15
			v0.3c-0.1,0-0.1,0.1-0.2,0.2c-0.2,0.1-0.3,0.3-0.4,0.5l0,0c0-0.1,0.1-0.1,0.1-0.1h-0.1l0,0c-0.1,0-0.1,0.1-0.2,0.2h-0.3l-0.1,0.1
			l0,0l0.1-0.1h-0.1l0,0h-0.1l0,0l0,0L91.4,16l0,0c0-0.1-0.1-0.1-0.1-0.1l0,0l0,0v-0.1H91l0,0h0.1v-0.2l0,0L91,15.1v-0.2h0.1
			c0-0.3,0-0.3-0.1-0.3V14l0,0v-0.1v-0.1l0,0v-0.2c-0.1-0.1-0.1-0.1-0.1-0.2l0,0v-0.1l-0.1-0.1l0,0h-0.1v0.3c-0.1,0-0.1,0.1-0.2,0.2
			v1.1c-0.1,0-0.1,0.1-0.2,0.2v1.1c0,0,0.1,0.1,0.2,0.1v0.3l0,0v-0.2V16c-0.1-0.1-0.1-0.1-0.2-0.1V16v0.1v0.2l0,0v0.2l0,0l0,0v0.2
			v0.1l0.2,0.2l0,0h0.2c0,0.1,0.1,0.1,0.1,0.1c0.1,0.2,0.3,0.4,0.5,0.6c0,0.1,0.1,0.1,0.1,0.2l0.2,0.2v0.2c0,0,0.1,0.1,0.2,0.1v0.2
			l0,0v0.1l0,0c0.1,0,0.1,0.1,0.1,0.2v-0.2l0,0V19c-0.1,0-0.1,0.1-0.1,0.2v0.2c-0.1,0-0.1,0.1-0.2,0.2c-0.1,0-0.1,0.1-0.2,0.1
			s-0.1,0.1-0.1,0.2H91c-0.1,0-0.1,0.1-0.2,0.2h-0.5c-0.1,0-0.1,0.1-0.2,0.1h-0.9c-0.1,0-0.1,0.1-0.2,0.1l0,0h-0.1l-0.1,0.1l0,0
			c-0.1,0-0.1,0.1-0.2,0.2c-0.1,0-0.1,0.1-0.2,0.1l0,0c0,0.1-0.1,0.1-0.1,0.1l0,0V21l0,0l0,0c-0.1,0-0.1,0.1-0.1,0.2l0,0l0.1,0.1
			v0.3h0.1l0.2,0.2h0.3c0-0.1,0.1-0.1,0.2-0.2c0.2-0.1,0.3-0.1,0.5-0.2c0-0.1,0.1-0.1,0.1-0.1h0.2c0-0.1,0.1-0.1,0.2-0.1H90
			c0-0.1,0.1-0.1,0.2-0.2h0.2c0-0.1,0.1-0.1,0.2-0.2l0,0h1.2c0.1,0,0.1,0.1,0.2,0.2l0,0v0.1l0,0v0.1l0,0v0.1l0,0v0.2l0,0v0.2v0.1
			v0.1l0,0v0.3l0,0v0.1l0.1,0.1v0.2l0,0V23l0.1,0.1v0.2c-0.1,0-0.1,0.1-0.1,0.1l0,0v0.1l0,0l0,0L92,23.6l0,0l0,0h-0.1v0.1
			c0,0,0,0-0.1,0.1V24c-0.1,0-0.1,0.1-0.2,0.1l0,0l-0.1,0.1l0,0c-0.1,0-0.1,0.1-0.2,0.2h0.1l0,0h0.1l0,0h-0.3
			c-0.1,0-0.1,0.1-0.2,0.2v0.2l-0.1,0.1l0,0v0.2v0.1l0,0v0.1c-0.1,0-0.1,0.1-0.2,0.1v0.2l-0.1,0.1v0.1V26l0.1,0.1l0,0
			c0,0.1,0.1,0.1,0.2,0.1c0,0.1,0.1,0.1,0.1,0.2l0,0l0.2,0.2l0,0h0.1l0,0l0,0h0.3H92l0,0c0-0.1,0.1-0.1,0.2-0.2h0.3
			c0-0.1,0.1-0.1,0.2-0.2h0.2l0.1-0.1c0-0.1,0.1-0.1,0.2-0.2c0-0.1,0.1-0.1,0.2-0.2h0.2c0-0.1,0.1-0.1,0.1-0.1
			c0-0.1,0.1-0.1,0.1-0.2v-1.1c-0.1-0.1-0.1-0.1-0.1-0.2v-0.4c-0.1-0.1-0.1-0.1-0.1-0.2v-0.3h-0.2v-0.5l0,0v0.5h0.2v-0.5l0,0v-0.6
			c0-0.1,0.1-0.1,0.1-0.1v-0.3c0-0.1,0.1-0.1,0.1-0.2v-0.3c0-0.1,0.1-0.1,0.2-0.2v-0.8c0-0.1,0.1-0.1,0.2-0.1v-0.2
			c-0.1,0-0.1,0.1-0.2,0.2l0,0c0-0.1,0.1-0.1,0.2-0.2v-0.3c0-0.1,0.1-0.1,0.1-0.1l0.2-0.2h0.2l0,0h0.1l0,0c0-0.1,0.1-0.1,0.2-0.2
			h-0.2h-0.3L94.5,19.6L94.5,19.6z"/>
		<path class="st1" d="M90.5,17h-0.2c0,0.1,0.1,0.1,0.2,0.1h0.1C90.6,17.1,90.5,17.1,90.5,17z"/>
		<path class="st1" d="M95.4,15.7c0-0.1,0.1-0.1,0.2-0.2h-0.2V15.7z"/>
		<path class="st1" d="M83.5,25.3L83.5,25.3L83.5,25.3z"/>
		<path class="st1" d="M83.6,25.5v-0.1h-0.1C83.5,25.4,83.6,25.4,83.6,25.5z"/>
		<path class="st1" d="M81.9,19l0.2,0.2c0-0.1,0.1-0.1,0.2-0.2h-0.2H81.9z"/>
		<path class="st1" d="M81.6,18.9l-0.2-0.2v0.2c0,0.1,0.1,0.1,0.2,0.1h0.2C81.7,19,81.7,18.9,81.6,18.9L81.6,18.9z"/>
		<path class="st1" d="M86.4,17.3v0.2C86.4,17.4,86.5,17.4,86.4,17.3L86.4,17.3l0.1-0.3l-0.1,0.1V17.3z"/>
		<path class="st1" d="M86.7,16.4v0.2v0.1c0-0.1,0.1-0.1,0.1-0.1L86.7,16.4l0.1-0.2C86.8,16.3,86.7,16.4,86.7,16.4L86.7,16.4z"/>
		<path class="st1" d="M86.2,19h0.2c-0.1,0-0.1-0.1-0.2-0.1V19z"/>
		<path class="st1" d="M86.5,17c0-0.1,0.1-0.1,0.2-0.2v-0.2c-0.1,0-0.1,0.1-0.2,0.2V17z"/>
	</g>
	<path class="st1" d="M138.4,22.7v-7.8h-11.8v7.8h3.1c-1.3,0.7-2.8,1.4-4.7,1.9l0.9,1.2c2.1-0.7,3.8-1.5,5.2-2.4l-0.8-0.7h4.1
		l-0.7,0.7c2.1,0.9,3.7,1.7,4.8,2.4l1.1-1.1c-1.2-0.7-2.7-1.3-4.4-2H138.4z M128.2,16.2h8.7v0.9h-8.7V16.2z M128.2,18.3h8.7v0.9
		h-8.7V18.3z M128.2,21.4v-1h8.7v1H128.2z"/>
	<path class="st1" d="M137.6,10.6h-10.1v3.6h10.1V10.6z M136,13h-7v-1.2h7V13z"/>
	<polygon class="st1" points="151.1,12.8 156.8,12.8 156.8,11.3 143.8,11.3 143.8,12.8 149.4,12.8 149.4,23.1 142.6,23.1 
		142.6,24.7 157.9,24.7 157.9,23.1 151.1,23.1 	"/>
	<path class="st1" d="M168.2,10.2l-1.6-0.2c-0.2,0.7-0.4,1.3-0.8,2h-3.7v13.8h1.6v-1h8.4v1h1.6V12h-6.3
		C167.8,11.4,168.1,10.9,168.2,10.2z M172.2,23.3h-8.4v-2.4h8.4V23.3z M172.2,19.4h-8.4v-2.2h8.4V19.4z M172.2,13.5v2.1h-8.4v-2.1
		H172.2z"/>
	<path class="st1" d="M186.6,19.4h5.4v-1.5h-5.4v-3.5h6.2v-1.6h-6.3h0.1c-0.2-0.8-0.6-1.8-1-2.8l-1.6,0.4c0.4,0.8,0.7,1.6,1,2.4
		h-6.2v1.6h6.2v3.5h-5.4v1.5h5.4v4.1h-6.8v1.6h15.2v-1.6h-6.8L186.6,19.4L186.6,19.4z"/>
	<path class="st1" d="M196.8,19c0,2.3-0.4,4.2-1,5.7l1.2,1.1c0.7-1.5,1.1-3.4,1.2-5.7h2.4v3.4c0,0.6-0.2,0.9-0.5,0.9
		c-0.4,0-0.8,0-1.3-0.1l0.4,1.4h1.4c1,0,1.6-0.6,1.6-1.7V10.7h-5.3L196.8,19L196.8,19z M198.3,12.1h2.4v2.5h-2.4V12.1z M198.3,16.1
		h2.4v2.5h-2.4V16.1z"/>
	<path class="st1" d="M210.5,18.3v-1.4h-5.7v-4.8h4.1c0,1.1-0.1,1.9-0.2,2.1c-0.1,0.2-0.2,0.4-0.4,0.4s-0.4,0.1-0.8,0.1
		c-0.5,0-0.9,0-1.1,0l0.4,1.4h1.4c1.1,0,1.7-0.4,1.9-1.1c0.2-0.7,0.3-2.2,0.3-4.4h-7.2v15.1h1.5v-1.3l0.8,1.3c1-0.5,1.8-1.2,2.5-1.9
		c0.7,0.7,1.6,1.3,2.5,1.9l0.8-1.4c-0.9-0.5-1.7-1.1-2.4-1.8C209.7,21.4,210.2,20,210.5,18.3z M204.8,24.4v-6.1h0.2
		c0.4,1.6,1.1,3,2,4.3C206.4,23.3,205.7,23.9,204.8,24.4z M207.9,21.4c-0.7-0.9-1.2-1.9-1.5-3h2.7C208.8,19.5,208.4,20.5,207.9,21.4
		z"/>
	<path class="st1" d="M224.9,17.4h-1.5c0,0.5-0.1,0.9-0.1,1.4h-2.8v1.5h2.5c-0.2,0.7-0.4,1.3-0.7,1.7c-0.6,1-1.7,1.8-3.1,2.5l1,1.3
		c1.7-0.9,2.8-1.9,3.6-3.1c0.4-0.6,0.6-1.4,0.8-2.4h2.2c0,1.7-0.1,2.7-0.2,3c-0.1,0.7-0.6,1-1.3,1c-0.5,0-1,0-1.6-0.1l0.3,1.3
		c0.7,0,1.2,0.1,1.5,0.1c1.5,0,2.3-0.6,2.5-1.7c0.2-0.6,0.2-2.4,0.2-5.1h-3.5L224.9,17.4z"/>
	<path class="st1" d="M220.5,15.8h-2.4l0.5-0.4c-0.2-0.2-0.4-0.4-0.7-0.7c0.8-0.8,1.6-1.7,2.3-2.8v-1.3h-6.3v1.5h4.5
		c-0.5,0.6-1,1.2-1.5,1.7c-0.4-0.4-0.9-0.8-1.5-1.2l-1,1c1.1,0.8,1.9,1.5,2.6,2.2h-3.5v1.5h2c-0.6,1.7-1.4,3.2-2.3,4.5l0.6,1.5
		c1.1-1.6,1.9-3.4,2.5-5.4v5.8c0,0.4-0.2,0.6-0.5,0.6c-0.4,0-0.9,0-1.4-0.1l0.3,1.4h1.6c1,0,1.5-0.5,1.5-1.6v-6.7h1.2
		c-0.4,0.8-0.7,1.5-1,2.1l1,0.9c0.6-0.9,1-2,1.4-3.1L220.5,15.8L220.5,15.8z"/>
	<path class="st1" d="M227.5,12.8h1.1v-1.4h-5c0.1-0.4,0.3-0.7,0.4-1.1l-1.5-0.2c-0.4,1.5-1.2,2.7-2.4,3.7L221,15
		c0.8-0.6,1.4-1.4,1.9-2.2h3.1c-0.3,0.8-0.8,1.4-1.3,1.9c-0.5-0.4-1-0.8-1.4-1.2l-1.1,0.6c0.4,0.5,0.8,1,1.4,1.4
		c-0.7,0.4-1.6,0.8-2.7,1.2l0.9,1.2c1.2-0.5,2.2-1,3-1.5c0.9,0.5,1.9,1,3.2,1.5l1-1.2c-1.2-0.3-2.2-0.7-3-1.2
		C226.5,14.9,227.1,14,227.5,12.8z"/>
	<path class="st1" d="M243.2,17.6c0.8-1.3,1.4-2.5,1.9-3.8l-1.5-0.7c-0.5,1.2-1.1,2.5-1.9,3.8L243.2,17.6z"/>
	<polygon class="st1" points="239.7,12.3 245.9,12.3 245.9,10.7 232.1,10.7 232.1,12.3 238.1,12.3 238.1,18.3 231.4,18.3 
		231.4,19.9 238.1,19.9 238.1,25.7 239.7,25.7 239.7,19.9 246.6,19.9 246.6,18.3 239.7,18.3 	"/>
	<path class="st1" d="M234.5,13.1l-1.5,0.7c0.6,1.1,1.2,2.4,1.8,3.8l1.5-0.7C235.7,15.5,235.1,14.2,234.5,13.1z"/>
	<path class="st1" d="M260.5,11.8l-1.5,0.7c0.6,0.7,1.1,1.5,1.7,2.3c-2.7,0.3-5.5,0.4-8.4,0.5c1.4-1.3,2.8-2.9,4.2-4.8l-1.6-0.5
		c-2.3,3.3-4.1,5.2-5.4,5.4l0.3,1.5c4.4-0.2,8.3-0.4,11.9-0.7c0.4,0.6,0.8,1.3,1.2,2l1.6-0.8C263.2,15.4,261.9,13.5,260.5,11.8z"/>
	<path class="st1" d="M250.9,25.8h1.6v-0.7h8.4v0.7h1.6v-7.2h-11.6V25.8z M252.6,20.1h8.4v3.4h-8.4V20.1z"/>
</g>
</svg>
