<svg xmlns="http://www.w3.org/2000/svg" width="331" height="226" viewBox="0 0 331 226">
    <g fill="none" fill-rule="evenodd">
        <g>
            <g>
                <g transform="translate(-901.000000, -282.000000) translate(888.000000, 282.000000) translate(43.751538, 0.000000)">
                    <circle cx="73.463" cy="73" r="73" fill="#FFB0B9"/>
                    <g transform="translate(95.463350, 48.000000)">
                        <circle cx="18.9" cy="18.9" r="18.9" fill="#FFF"/>
                        <path fill="#494949" d="M33.186 31.275C26.654 30.09 21.7 24.374 21.7 17.5c0-6.06 3.851-11.222 9.24-13.17 4.19 3.467 6.86 8.707 6.86 14.57 0 4.733-1.74 9.06-4.614 12.375z"/>
                    </g>
                    <g transform="translate(35.463350, 52.000000)">
                        <circle cx="21" cy="21" r="21" fill="#FFF"/>
                        <path fill="#494949" d="M36.784 35C29.4 33.677 23.8 27.29 23.8 19.612c0-6.77 4.353-12.536 10.445-14.712C38.982 8.773 42 14.626 42 21.176c0 5.287-1.966 10.12-5.216 13.824z"/>
                    </g>
                    <path stroke="#FFCCD3" stroke-linecap="round" stroke-width="2.1" d="M35.463 38.749c2.2 7.509 4.36 10.447 6.484 8.813C44.07 45.93 45.575 41.408 46.463 34M17.464 69.832c-.016 6.779 1.984 10.168 6 10.168 4.015 0 6.015-5 6-15M52.463 114.51c-.011 6.327 1.489 9.49 4.5 9.49 3.012 0 4.512-4.667 4.5-14"/>
                </g>
                <g stroke="#72C7C7" stroke-linecap="round" stroke-width="4">
                    <path d="M192 0l-6 18M219.639 19.357L207 28.555M233.825 47.688H213M0 70.646C18 95.422 41.912 99.576 56.452 102c12.833 2.14 36.272 4.184 44.553-15.85 8.28-20.036-24.476-24.324-20.281-2.576 1.796 9.31 20.641 11.618 22.362 11.848 9.667 1.293 35.505 2.238 43.104-16.637 1.234-3.065 5.058-14.52-5.532-16.785-10.59-2.265-16.27 20.384 5.532 16.785 3.699-.611 10.164-.611 19.416-10.052C179.303 54.757 179 40 179 40" transform="translate(-901.000000, -282.000000) translate(888.000000, 282.000000) translate(107.751538, 120.000000)"/>
                </g>
                <path fill="#B8DADA" fill-rule="nonzero" d="M116.186 206.184c-4.347-1.178-8.564-4.634-13.33-10.89-5.265-6.939-7.753-12.723-7.36-17.095.341-3.692 1.912-6.283 6.862-11.388 1.938-2.016 3.72-4.084 3.928-4.582 1.231-2.932-.288-7.618-4.426-13.743-3.849-5.706-8.3-10.837-16.63-19.162-8.328-8.325-13.46-12.776-19.17-16.623-6.128-4.136-10.815-5.654-13.748-4.424-.498.209-2.567 1.99-4.584 3.926-5.185 5.053-7.777 6.572-11.628 6.859-4.66.366-11.052-2.617-18.62-8.717-8.773-7.042-11.445-13.902-8.066-20.577 1.414-2.828 2.933-4.66 7.805-9.556 4.504-4.528 5.21-5.105 6.966-5.942C35.893 68.746 60.51 77.097 83.504 94.4c27.915 20.997 50.518 51.127 56.854 75.71 2.2 8.639 2.2 15.575-.08 20.234-.838 1.754-1.493 2.514-5.945 6.964-2.75 2.749-5.71 5.472-6.572 6.047-4.4 2.933-7.935 3.797-11.575 2.828z" transform="translate(-901.000000, -282.000000) translate(888.000000, 282.000000) translate(74.999098, 139.571657) rotate(-173.000000) translate(-74.999098, -139.571657)"/>
            </g>
        </g>
    </g>
</svg>
