<svg width="122" height="122" viewBox="0 0 122 122" xmlns="http://www.w3.org/2000/svg">
    <g fill="none" fill-rule="evenodd">
        <circle fill="#FFA75B" cx="61" cy="61" r="61"/>
        <g transform="translate(80 40)">
            <circle fill="#FFF" cx="15.916" cy="15.916" r="15.916"/>
            <path d="M27.946 26.337c-5.5-.998-9.672-5.812-9.672-11.6 0-5.104 3.243-9.45 7.78-11.09a15.883 15.883 0 0 1 5.778 12.269c0 3.985-1.465 7.629-3.886 10.42z" fill="#494949"/>
        </g>
        <g transform="translate(30 44)">
            <circle fill="#FFF" cx="17.5" cy="17.5" r="17.5"/>
            <path d="M30.653 29.167c-6.153-1.103-10.82-6.425-10.82-12.824 0-5.642 3.628-10.446 8.704-12.26C32.485 7.311 35 12.188 35 17.647c0 4.405-1.639 8.433-4.347 11.52z" fill="#494949"/>
        </g>
    </g>
</svg>
