<?xml version="1.0" encoding="UTF-8"?>
<svg width="45px" height="52px" viewBox="0 0 45 52" version="1.1" xmlns="http://www.w3.org/2000/svg" xmlns:xlink="http://www.w3.org/1999/xlink">
    <!-- Generator: sketchtool 56.3 (101010) - https://sketch.com -->
    <title>63965053-DE06-484C-918D-0D9EE50EB97F</title>
    <desc>Created with sketchtool.</desc>
    <g id="Page-1" stroke="none" stroke-width="1" fill="none" fill-rule="evenodd">
        <g id="setting" transform="translate(-2124.000000, -1358.000000)">
            <g id="icon-file-4" transform="translate(2124.000000, 1358.000000)">
                <g id="icon-file-ppt">
                    <path d="M29.6703297,14.8571429 L29.6703297,1.16204082 C30.0941915,1.43265306 30.4438776,1.70326531 30.7140895,1.97387755 L42.5345369,13.8118367 C42.8047488,14.082449 43.0749608,14.4326531 43.3451727,14.8571429 L29.6703297,14.8571429 Z M25.9615385,15.7857143 C25.9615385,16.5604082 26.2317504,17.2183673 26.7721743,17.7595918 C27.3125981,18.3008163 27.969584,18.5714286 28.7431319,18.5714286 L44.5054945,18.5714286 L44.5054945,49.2142857 C44.5054945,49.9889796 44.2352826,50.6469388 43.6948587,51.1881633 C43.1544349,51.7293878 42.497449,52 41.7239011,52 L2.78159341,52 C2.00804553,52 1.35105965,51.7293878 0.810635793,51.1881633 C0.270211931,50.6469388 0,49.9889796 0,49.2142857 L0,2.78571429 C0,2.01102041 0.270211931,1.35306122 0.810635793,0.811836735 C1.35635793,0.270612245 2.00804553,0 2.78159341,0 L25.9615385,0 L25.9615385,15.7857143 L25.9615385,15.7857143 Z" id="形狀" fill="#EB873F" fill-rule="nonzero"></path>
                    <path d="M13.8461538,42.1942857 L16.3542983,42.1942857 L16.3542983,27.1638095 L13.8461538,27.1638095 L13.8461538,24.2666667 L23.8737451,24.2666667 C25.3646699,24.2666667 26.5464397,24.44 27.4190546,24.7817143 C28.5659198,25.272 29.4734393,26.0544762 30.1465993,27.1390476 C30.8197593,28.223619 31.1538462,29.496381 31.1538462,30.9573333 C31.1538462,32.4380952 30.7948275,33.7554286 30.0767901,34.9093333 C29.3587527,36.0681905 28.3913968,36.8506667 27.1747224,37.2666667 C26.4118077,37.5390476 25.339738,37.6727619 23.9585134,37.6727619 L20.2237218,37.6727619 L20.2237218,42.1942857 L22.7617845,42.1942857 L22.7617845,45.0666667 L13.8461538,45.0666667 L13.8461538,42.1942857 Z M23.4748354,34.6121905 C24.3275048,34.6072381 25.0355694,34.4735238 25.5990293,34.2011429 C26.7259491,33.6415238 27.2894089,32.5619048 27.2894089,30.952381 C27.2894089,29.471619 26.7807991,28.431619 25.7635795,27.8373333 C25.2001197,27.5154286 24.4421913,27.352 23.4997673,27.352 L20.2287082,27.352 L20.2287082,34.6121905 L23.4748354,34.6121905 Z" id="合併形狀" fill="#FFFFFF"></path>
                </g>
            </g>
        </g>
    </g>
</svg>