<svg width="414" height="234" viewBox="0 0 414 234" xmlns="http://www.w3.org/2000/svg">
    <g fill="none" fill-rule="evenodd">
        <path d="m365.8 192.974.672 38.679a2.307 2.307 0 0 1-4.613.08l-.695-39.915-54.264-13.53c-3.5-.872-5.614-4.444-4.735-7.967l16.906-67.806-3.954-.986c-1.745-.435-2.803-2.216-2.364-3.977.44-1.762 2.212-2.848 3.957-2.413l42.687 10.644c.658-2.638 3.31-4.257 5.932-3.604 2.622.654 4.205 3.319 3.545 5.966l42.688 10.644c1.744.435 2.81 2.228 2.371 3.99-.44 1.761-2.21 2.837-3.954 2.402l-2.375-.592-16.906 67.806c-.88 3.534-4.432 5.682-7.921 4.812l-16.978-4.233zm20.184-1.784 16.939-67.937-79.303-19.773-16.94 67.938a1.64 1.64 0 0 0 1.187 1.993l76.134 18.982a1.64 1.64 0 0 0 1.983-1.203zm-22.332-62.703c-1.3-.324-2.102-1.592-1.793-2.833.31-1.24 1.614-1.984 2.913-1.66l26.633 6.64c1.3.324 2.102 1.593 1.793 2.834-.31 1.24-1.614 1.984-2.913 1.66l-26.633-6.64zm24.168 16.526c1.3.323 2.102 1.592 1.793 2.833-.31 1.24-1.614 1.984-2.913 1.66l-26.633-6.64c-1.3-.325-2.102-1.593-1.793-2.834.31-1.24 1.614-1.984 2.913-1.66l26.633 6.64zm-3.585 14.378c1.3.324 2.105 1.583 1.793 2.833-.31 1.24-1.614 1.984-2.913 1.66l-26.633-6.64c-1.299-.324-2.102-1.593-1.793-2.834.31-1.24 1.614-1.984 2.914-1.66l26.632 6.64zm-50.05-6.752c-8.078-2.014-13.106-9.953-11.641-18.065l16.22 4.044 4.058-16.279c7.81 2.508 12.442 10.695 10.42 18.802-2.105 8.445-10.642 13.596-19.057 11.498zm7.416-33.468-4.033 16.176-16.117-4.019c2.226-8.93 11.242-14.378 20.15-12.157zm38.801 55.49c1.313.328 2.126 1.6 1.817 2.84-.31 1.24-1.624 1.98-2.937 1.654l-63.296-15.782c-1.313-.327-2.126-1.599-1.817-2.84.31-1.24 1.625-1.98 2.937-1.653l63.296 15.782z" fill="#A4D7D7" fill-rule="nonzero"/>
        <path d="M365.946 2c-4.285 6.074-22.967 35.525-38.6 29.176-2.027-.822-2.577-3.286-2.635-5.148-.158-5.076 13.478-9.547 16.53-4.645C354.83 43.204 329.13 52.891 308.946 60" stroke="#B8DADA" stroke-width="3" stroke-linecap="round"/>
        <path d="M258.193 73.61s3.653-2.226 5.671-5.151c14.934-21.67 28.828-7.123 28.794-6.778 0 0-2.66.726-4.456 2.189-11.406 9.282-21.61 9.056-21.61 9.056s12.22.504 22.134-7.815c2.189-1.838 6.498-2.325 10.565-1.927 0 0-1.067 1.431-1.423 2.075-1.797-.195-3.6-.074-5.331.48-2.158 14.761-14.757 16.414-18.877 15.966-9.727-1.06-15.467-8.096-15.467-8.096z" fill="#E1A1A8" fill-rule="nonzero"/>
        <path d="M213.053 142.667S210.72 127 237.038 127c25.127 0 23.953 15.667 23.953 15.667V174h-47.938v-31.333zM205 158h-8v16h8v-16zm72 0h-8v16h8v-16zm-.004 35.86c0 .388.017.5 0-.048v.049zm-31.98 31.145V209H229v16.005h-8L213 233h48l-8-7.995h-7.984zM277 186c.13-4.995-15.999-7.999-15.999-7.999h-47.995s-16.096 1.714-15.998 8c.082 5.811 0 7.999 0 7.999s-1.584 8.13 39.996 8c22.022-.066 39.914-1.829 39.979-7.935-.016-1.028-.065-4.359.017-8.065zM108.053 145.667S105.72 130 132.038 130c25.127 0 23.953 15.667 23.953 15.667V177h-47.938v-31.333zM100 161h-8v16h8v-16zm72 0h-8v16h8v-16zm-.004 35.86c0 .388.017.5 0-.048v.049zm-31.98 28.145V209H124v16.005h-8L108 233h48l-8-7.995h-7.984zM172 189c.13-4.995-15.999-7.999-15.999-7.999h-47.995s-16.096 1.714-15.998 8c.082 5.811 0 7.999 0 7.999s-1.584 8.13 39.996 8c22.022-.066 39.914-1.829 39.979-7.935-.016-1.028-.065-4.359.017-8.065zM16.053 145.667S13.72 130 40.038 130c25.127 0 23.953 15.667 23.953 15.667V177H16.053v-31.333zM8 161H0v16h8v-16zm72 0h-8v16h8v-16zm-.004 35.86c0 .388.017.5 0-.048v.049zm-31.98 28.145V209H32v16.005h-8L16 233h48l-8-7.995h-7.984zM80 189c.13-4.995-15.999-7.999-15.999-7.999H16.006S-.09 182.714.008 189c.082 5.811 0 7.999 0 7.999s-1.584 8.13 39.996 8c22.022-.066 39.914-1.829 39.979-7.935-.016-1.028-.065-4.359.017-8.065z" fill="#69BFBF" fill-rule="nonzero"/>
        <g transform="rotate(-2 3260.803 -5519.916)">
            <ellipse fill="#FFB0B9" cx="40.48" cy="40" rx="40.224" ry="40"/>
            <g transform="translate(52.602 26.301)">
                <ellipse fill="#FFF" cx="10.414" cy="10.356" rx="10.414" ry="10.356"/>
                <path d="M18.286 17.137c-3.6-.65-6.329-3.782-6.329-7.548 0-3.32 2.122-6.149 5.091-7.216 2.31 1.9 3.78 4.77 3.78 7.983 0 2.593-.958 4.964-2.542 6.78z" fill="#494949"/>
            </g>
            <g transform="translate(19.541 28.493)">
                <ellipse fill="#FFF" cx="11.571" cy="11.507" rx="11.571" ry="11.507"/>
                <path d="M20.269 19.178c-4.07-.725-7.155-4.224-7.155-8.432 0-3.71 2.399-6.869 5.756-8.061 2.61 2.122 4.273 5.33 4.273 8.918 0 2.897-1.084 5.546-2.874 7.575z" fill="#494949"/>
            </g>
            <path d="M19.541 21.232c1.212 4.115 2.403 5.725 3.572 4.83 1.17-.895 2-3.373 2.49-7.432M9.623 38.264c-.009 3.715 1.093 5.572 3.306 5.572 2.212 0 3.314-2.74 3.306-8.22M28.908 62.745c-.006 3.467.82 5.2 2.48 5.2 1.66 0 2.486-2.557 2.48-7.671" stroke="#FFCCD3" stroke-width="2.1" stroke-linecap="round"/>
        </g>
        <g transform="rotate(2 -3815.217 3075.078)">
            <ellipse fill="#FFBEC6" cx="28.486" cy="28" rx="28.306" ry="28"/>
            <g transform="translate(37.016 18.411)">
                <ellipse fill="#FFF" cx="7.329" cy="7.249" rx="7.329" ry="7.249"/>
                <path d="M12.868 11.996c-2.533-.454-4.454-2.647-4.454-5.284 0-2.324 1.494-4.304 3.583-5.051a7.204 7.204 0 0 1 2.66 5.588 7.176 7.176 0 0 1-1.789 4.747z" fill="#494949"/>
            </g>
            <g transform="translate(13.751 19.945)">
                <ellipse fill="#FFF" cx="8.143" cy="8.055" rx="8.143" ry="8.055"/>
                <path d="M14.263 13.425C11.4 12.917 9.23 10.468 9.23 7.522c0-2.596 1.688-4.808 4.05-5.643 1.836 1.486 3.007 3.731 3.007 6.243a7.962 7.962 0 0 1-2.023 5.303z" fill="#494949"/>
            </g>
            <path d="M13.751 14.863c.853 2.88 1.69 4.007 2.514 3.38.823-.626 1.407-2.36 1.751-5.202M6.772 26.785c-.006 2.6.77 3.9 2.326 3.9 1.557 0 2.333-1.918 2.326-5.753M20.343 43.922c-.005 2.426.577 3.64 1.745 3.64 1.168 0 1.75-1.79 1.745-5.37" stroke="#FFCCD3" stroke-width="2.1" stroke-linecap="round"/>
        </g>
        <g>
            <g transform="rotate(-6 1167.787 10.135)">
                <ellipse fill="#FFA3AE" cx="37.481" cy="37" rx="37.245" ry="37"/>
                <g transform="translate(48.706 24.329)">
                    <ellipse fill="#FFF" cx="9.643" cy="9.579" rx="9.643" ry="9.579"/>
                    <path d="M16.932 15.852c-3.333-.6-5.86-3.498-5.86-6.982 0-3.072 1.964-5.688 4.713-6.675a9.536 9.536 0 0 1 1.147 13.657z" fill="#494949"/>
                </g>
                <g transform="translate(18.094 26.356)">
                    <ellipse fill="#FFF" cx="10.714" cy="10.644" rx="10.714" ry="10.644"/>
                    <path d="M18.767 17.74c-3.767-.67-6.624-3.908-6.624-7.8 0-3.431 2.22-6.353 5.329-7.456 2.417 1.962 3.957 4.93 3.957 8.249 0 2.68-1.004 5.13-2.662 7.007z" fill="#494949"/>
                </g>
                <path d="M39.708 58.053c1.122 3.806 2.224 5.295 3.307 4.467 1.084-.828 1.852-3.12 2.305-6.874M8.91 35.395c-.008 3.435 1.012 5.153 3.061 5.153s3.07-2.534 3.061-7.603M26.767 58.04c-.006 3.206.76 4.81 2.296 4.81 1.537 0 2.302-2.366 2.296-7.097" stroke="#FFCCD3" stroke-width="2.1" stroke-linecap="round"/>
            </g>
        </g>
    </g>
</svg>
