<?xml version="1.0" encoding="UTF-8"?>
<svg width="45px" height="53px" viewBox="0 0 45 53" version="1.1" xmlns="http://www.w3.org/2000/svg" xmlns:xlink="http://www.w3.org/1999/xlink">
    <!-- Generator: sketchtool 56.3 (101010) - https://sketch.com -->
    <title>2F9F05C4-8D8D-4E28-A4A1-F56AAAD51DBA</title>
    <desc>Created with sketchtool.</desc>
    <g id="Page-1" stroke="none" stroke-width="1" fill="none" fill-rule="evenodd">
        <g id="setting" transform="translate(-2189.000000, -1356.000000)" fill-rule="nonzero">
            <g id="icon-file-5" transform="translate(2189.000000, 1356.000000)">
                <g id="icon-file-pdf">
                    <path d="M29.6703297,15.1428571 L29.6703297,1.18438776 C30.0941915,1.46020408 30.4438776,1.73602041 30.7140895,2.01183673 L42.5345369,14.077449 C42.8047488,14.3532653 43.0749608,14.7102041 43.3451727,15.1428571 L29.6703297,15.1428571 Z M25.9615385,16.0892857 C25.9615385,16.8788776 26.2317504,17.5494898 26.7721743,18.1011224 C27.3125981,18.6527551 27.969584,18.9285714 28.7431319,18.9285714 L44.5054945,18.9285714 L44.5054945,50.1607143 C44.5054945,50.9503061 44.2352826,51.6209184 43.6948587,52.172551 C43.1544349,52.7241837 42.497449,53 41.7239011,53 L2.78159341,53 C2.00804553,53 1.35105965,52.7241837 0.810635793,52.172551 C0.270211931,51.6209184 2.59348099e-13,50.9503061 2.59348099e-13,50.1607143 L2.59348099e-13,2.83928571 C2.59348099e-13,2.04969388 0.270211931,1.37908163 0.810635793,0.82744898 C1.35635793,0.275816327 2.00804553,0 2.78159341,0 L25.9615385,0 L25.9615385,16.0892857 L25.9615385,16.0892857 Z" id="形狀" fill="#F06E7E"></path>
                    <path d="M34.2057077,34.6956284 C33.6282263,34.0377049 32.4467735,33.7163934 30.5924755,33.7163934 C29.5143336,33.7163934 28.2110269,33.8260474 26.7196415,34.0428051 C22.6428347,31.1739526 21.5064149,28.0092896 21.5064149,28.0092896 C21.5064149,28.0092896 22.2031012,26.3032787 22.2481341,23.5160291 C22.2772731,21.7539162 21.9938304,20.5655738 21.2600582,19.8744991 C20.9739665,19.6067395 20.497147,19.4333333 20.0415194,19.4333333 C19.6865538,19.4333333 19.3554291,19.5327869 19.0825824,19.7240437 C16.9633846,21.215847 19.2759592,28.2540984 19.3395352,28.4428051 C18.3382142,30.8118397 17.0799405,33.3236794 15.7819319,35.5295082 C15.3607413,36.2460838 15.4004762,36.1899818 15.0455106,36.7739526 C15.0455106,36.7739526 11.4587683,38.3958106 9.71837715,40.3874317 C8.73559917,41.5120219 8.6110963,42.271949 8.66407624,42.8508197 L8.66407624,42.8635701 C8.74619516,43.5444444 9.65480121,44.1666667 10.5660563,44.1666667 C10.6031422,44.1666667 10.6428772,44.1666667 10.6799631,44.1641166 C11.6071122,44.1080146 12.6243271,43.475592 13.7872369,42.2234973 C14.5554461,41.3972678 15.5541181,39.9462659 16.7541138,37.9061931 C20.2057573,36.9601093 23.2415081,36.2868852 25.7845455,35.9043716 C27.6494395,36.8708561 30.4229397,37.9648452 32.3116747,37.9648452 C32.944785,37.9648452 33.4560415,37.8398907 33.8269011,37.595082 C34.2719327,37.3018215 34.4600115,36.9371585 34.5765673,36.2588342 C34.6957722,35.5830601 34.5315344,35.0679417 34.2057077,34.6956284 Z M30.1792319,35.5218579 C31.8375042,35.5218579 32.7355142,35.7539162 33.1964398,35.9477231 C33.3394856,36.0089253 33.4427965,36.0650273 33.5143194,36.1134791 C33.3845186,36.1925319 33.1275658,36.2945355 32.6666403,36.2945355 C31.9010801,36.2945355 30.8944612,36.0369763 29.6706244,35.5269581 C29.8428093,35.5218579 30.0123451,35.5218579 30.1792319,35.5218579 Z M20.3541011,20.8460838 C20.3541011,20.8435337 20.3567501,20.8409836 20.3567501,20.8384335 C20.7117157,21.01949 20.8786026,22.2843352 20.8441656,23.0187614 C20.7991326,24.0030965 20.7885367,24.3856102 20.6084048,24.9899818 C20.1236383,23.7276867 20.0892014,21.4606557 20.3541011,20.8460838 Z M20.483902,30.8296903 C21.3209851,32.1378871 22.5607158,33.5531876 23.7554136,34.5630237 C21.424296,35.0373406 19.1832443,35.6315118 17.7898718,36.0956284 C19.2839062,33.6424408 20.3858891,31.0744991 20.483902,30.8296903 Z M10.8865849,42.103643 C11.0879087,41.7797814 11.6415492,41.1499089 13.0428687,39.9360656 C12.0812827,41.3284153 11.3766494,42.0857923 10.6587712,42.5575592 C10.7196981,42.4071038 10.79387,42.2515483 10.8865849,42.103643 Z" id="形狀" fill="#FFFFFF"></path>
                </g>
            </g>
        </g>
    </g>
</svg>