<svg xmlns="http://www.w3.org/2000/svg" width="303" height="215" viewBox="0 0 303 215">
    <g fill="none" fill-rule="evenodd">
        <g>
            <g>
                <g fill="#FF8C9A" fill-rule="nonzero" opacity=".5">
                    <path d="M22.038 53.912h-1.385V28h-8.297v25.912H10.97C9.89 53.912 9 54.595 9 55.425v1.062c0 .83.89 1.513 1.971 1.513H22.03C23.11 58 24 57.318 24 56.487v-1.062c.01-.83-.88-1.513-1.962-1.513zM75.038 53.912h-1.385V28h-8.297v25.912H63.97c-1.082 0-1.971.683-1.971 1.513v1.062c0 .83.89 1.513 1.971 1.513H75.03C76.11 58 77 57.318 77 56.487v-1.062c.01-.83-.88-1.513-1.962-1.513zM32.642 0L32.624 0 20 0 20.009.017 30.403 24 43 24 32.642.017zM55.633 0L43 0 53.403 24 66 24 55.633.017zM8.58 0H1.994C.919 0 0 .774 0 1.766V22.36c0 .715.482 1.37 1.128 1.64H19L8.58 0zM84.083 0H67l10.431 24h7.515c.645-.27 1.054-.925 1.054-1.64V1.766C86 .774 85.155 0 84.083 0z" transform="translate(-758.000000, -251.000000) translate(758.000000, 251.000000) translate(217.000000, 154.000000)"/>
                </g>
                <g fill="#FF8C9A" fill-rule="nonzero" opacity=".7">
                    <path d="M34.355 15.777c-1.64-.62-3.136-2.17-4.047-4.14-.255-.565-1.075-3.265-1.841-6.019-.748-2.736-1.404-5.126-1.459-5.29-.09-.31.42-.328 8.95-.328H45l-.11.383c-.072.22-.729 2.627-1.475 5.344-.857 3.156-1.586 5.418-1.987 6.275-.766 1.532-2.06 2.9-3.318 3.52-1.057.51-2.77.638-3.755.255z" transform="translate(-758.000000, -251.000000) translate(758.000000, 251.000000) translate(0.000000, 142.000000) translate(36.000000, 8.000000) scale(-1, 1) rotate(-180.000000) translate(-36.000000, -8.000000)"/>
                    <path d="M22.622 33.056c-.929-3.272-1.657-5.978-1.62-6.014.036-.035 7.026-.053 15.526-.035L52 27.06l-1.656 5.926-1.657 5.925-12.195.054L24.296 39l-1.674-5.944z" transform="translate(-758.000000, -251.000000) translate(758.000000, 251.000000) translate(0.000000, 142.000000) translate(36.500000, 33.000000) scale(-1, 1) rotate(-180.000000) translate(-36.500000, -33.000000)"/>
                    <path d="M16.89 68.021c-.307-1.096-1.137-4.118-1.859-6.716l-1.317-4.72-5.99-.053c-5.721-.053-6.01-.07-6.479-.423C.29 55.419 0 54.854 0 53.739c0-1.113.289-1.678 1.245-2.368L1.732 51h68.536l.487.371c.956.69 1.245 1.255 1.245 2.369 0 1.113-.289 1.678-1.245 2.368-.469.353-.795.371-6.478.459l-5.99.088-1.661 6.01c-.902 3.305-1.751 6.31-1.859 6.68l-.198.655H17.467l-.577-1.979z" transform="translate(-758.000000, -251.000000) translate(758.000000, 251.000000) translate(0.000000, 142.000000) translate(36.000000, 60.500000) scale(-1, 1) rotate(-180.000000) translate(-36.000000, -60.500000)"/>
                </g>
                <g>
                    <path fill="#FF8C9A" fill-rule="nonzero" d="M160.8 7.79H90.766c0-4.31-3.472-7.79-7.774-7.79s-7.775 3.496-7.775 7.79H5.183C2.32 7.79 0 10.132 0 13c0 2.869 2.32 5.194 5.183 5.194h6.487v110.402c0 5.737 4.64 10.404 10.382 10.404h124.487c5.725 0 10.383-4.65 10.383-10.404V18.194h3.895c2.863 0 5.183-2.325 5.183-5.194 0-2.868-2.337-5.21-5.2-5.21zm-11.67 120.806c0 1.443-1.168 2.597-2.59 2.597H22.051c-1.44 0-2.591-1.171-2.591-2.597V18.194h129.67v110.402z" transform="translate(-758.000000, -251.000000) translate(758.000000, 251.000000) translate(50.000000, 0.000000)"/>
                    <path fill="#FF8C9A" fill-rule="nonzero" d="M71.586 72c-1.163 0-2.515-1.118-2.515-2.5v-30c0-1.382 1.352-2.5 2.515-2.5S74 38.118 74 39.5v30c0 1.382-1.251 2.5-2.414 2.5zM58.66 68.74c0 1.803-1.392 3.26-3.114 3.26H41.544c-1.721 0-3.113-1.457-3.113-3.26v-6.45l-6.324-1.447V49.07l34.5-7.902v27.666l-7.947-1.826v1.734zm-1.093-1.906l-16.424-4V68.7c0 .901 1.046 1.632 1.91 1.632h12.95c.863 0 1.568-.73 1.568-1.632v-1.867h-.004zm-27.775-5.667c-.99 0-1.792-.704-1.792-1.577V48.577c0-.868.802-1.577 1.792-1.577.989 0 2.315.704 2.315 1.577V59.59c.005.873-1.32 1.577-2.315 1.577zM89.905 72h44.19c2.156 0 3.905-1.791 3.905-4s-1.749-4-3.905-4h-44.19C87.749 64 86 65.791 86 68s1.749 4 3.905 4zM89.905 58h44.19c2.156 0 3.905-1.791 3.905-4s-1.749-4-3.905-4h-44.19C87.749 50 86 51.791 86 54s1.749 4 3.905 4zM89.905 41h44.19c2.156 0 3.905-1.791 3.905-4s-1.749-4-3.905-4h-44.19C87.749 33 86 34.791 86 37s1.749 4 3.905 4zM134.123 105H30.877c-2.14 0-3.877 1.791-3.877 4s1.736 4 3.877 4h103.246c2.14 0 3.877-1.791 3.877-4s-1.736-4-3.877-4zM134.123 88H30.877C28.737 88 27 89.791 27 92s1.736 4 3.877 4h103.246c2.14 0 3.877-1.791 3.877-4s-1.736-4-3.877-4z" transform="translate(-758.000000, -251.000000) translate(758.000000, 251.000000) translate(50.000000, 0.000000)"/>
                    <path stroke="#FF8C9A" stroke-linecap="square" stroke-width="9" d="M82.44 136.416V205M48 210.5h69" transform="translate(-758.000000, -251.000000) translate(758.000000, 251.000000) translate(50.000000, 0.000000)"/>
                </g>
            </g>
        </g>
    </g>
</svg>
