<?xml version="1.0" encoding="UTF-8"?>
<svg width="45px" height="53px" viewBox="0 0 45 53" version="1.1" xmlns="http://www.w3.org/2000/svg" xmlns:xlink="http://www.w3.org/1999/xlink">
    <!-- Generator: sketchtool 56.3 (101010) - https://sketch.com -->
    <title>9ECDC46C-88C6-40C3-AB1A-C8378A7993EB</title>
    <desc>Created with sketchtool.</desc>
    <g id="Page-1" stroke="none" stroke-width="1" fill="none" fill-rule="evenodd">
        <g id="setting" transform="translate(-2254.000000, -1356.000000)" fill="#8FD3D3" fill-rule="nonzero">
            <g id="icon-file-6" transform="translate(2254.000000, 1356.000000)">
                <g id="icon-file-other">
                    <path d="M29.6703297,15.1428571 L29.6703297,1.18438776 C30.0941915,1.46020408 30.4438776,1.73602041 30.7140895,2.01183673 L42.5345369,14.077449 C42.8047488,14.3532653 43.0749608,14.7102041 43.3451727,15.1428571 L29.6703297,15.1428571 Z M25.9615385,16.0892857 C25.9615385,16.8788776 26.2317504,17.5494898 26.7721743,18.1011224 C27.3125981,18.6527551 27.969584,18.9285714 28.7431319,18.9285714 L44.5054945,18.9285714 L44.5054945,50.1607143 C44.5054945,50.9503061 44.2352826,51.6209184 43.6948587,52.172551 C43.1544349,52.7241837 42.497449,53 41.7239011,53 L2.78159341,53 C2.00804553,53 1.35105965,52.7241837 0.810635793,52.172551 C0.270211931,51.6209184 2.57571742e-13,50.9503061 2.57571742e-13,50.1607143 L2.57571742e-13,2.83928571 C2.57571742e-13,2.04969388 0.270211931,1.37908163 0.810635793,0.82744898 C1.35635793,0.275816327 2.00804553,0 2.78159341,0 L25.9615385,0 L25.9615385,16.0892857 L25.9615385,16.0892857 Z" id="形狀"></path>
                </g>
            </g>
        </g>
    </g>
</svg>