<svg width="368" height="231" viewBox="0 0 368 231" xmlns="http://www.w3.org/2000/svg">
    <g fill="none" fill-rule="evenodd">
        <g transform="translate(173)">
            <path d="M147.43 73.77h-27.2c0-5.517-4.34-10.35-10.814-13.061l16.719-25.58c.379.07.758.094 1.162.094 3.936 0 7.114-3.183 7.114-7.073 0-3.914-3.202-7.073-7.114-7.073-3.937 0-7.138 3.183-7.138 7.073a6.99 6.99 0 0 0 1.185 3.914l-17.62 26.97a33.316 33.316 0 0 0-12.474 0l-31.68-48.519a6.769 6.769 0 0 0 1.09-3.678C60.66 3.065 57.578 0 53.783 0c-3.794 0-6.877 3.065-6.877 6.837s3.083 6.837 6.877 6.837c.356 0 .688-.023 1.02-.094l30.78 47.129C79.087 63.42 74.77 68.253 74.77 73.77H47.547C21.27 73.77 0 94.942 0 121.04v52.01c0 22.02 15.153 40.527 35.666 45.785-.214 3.843-.332 12.165 2.798 12.165 2.75 0 7.304-6.507 9.936-10.68h98.223c2.633 4.173 7.186 10.68 9.937 10.68 3.106 0 3.011-8.322 2.774-12.165C179.847 213.577 195 195.07 195 173.05v-52.01c-.024-26.098-21.319-47.27-47.57-47.27zm-9.937 119.492H32.272c-5.163 0-9.33-4.16-9.33-9.311v-72.862c0-5.152 4.167-9.312 9.33-9.312h105.22c5.163 0 9.332 4.16 9.332 9.312v72.862c0 5.152-4.192 9.311-9.331 9.311zm28.257-18.297c-6.033 0-10.897-4.872-10.897-10.864 0-5.991 4.887-10.863 10.897-10.863 6.033 0 10.897 4.872 10.897 10.863 0 5.992-4.864 10.864-10.897 10.864zm0-41.168c-6.033 0-10.897-4.872-10.897-10.864 0-6.015 4.887-10.864 10.897-10.864 6.033 0 10.897 4.873 10.897 10.864 0 6.015-4.864 10.864-10.897 10.864z" fill="#95D2D2" fill-rule="nonzero"/>
            <rect fill="#D8D8D8" x="34.412" y="133.797" width="95.206" height="5.718" rx="2.5"/>
            <rect fill="#D8D8D8" x="79.147" y="142.946" width="61.941" height="5.718" rx="2.5"/>
            <rect fill="#D8D8D8" x="58.5" y="115.5" width="61.941" height="5.718" rx="2.5"/>
            <rect fill="#D8D8D8" x="32.118" y="158.955" width="88.324" height="5.718" rx="2.5"/>
            <rect fill="#D8D8D8" x="49.324" y="168.104" width="88.324" height="5.718" rx="2.5"/>
        </g>
        <g transform="rotate(6 -185.262 86.931)">
            <ellipse fill="#FFB0B9" cx="71.611" cy="70.942" rx="71.159" ry="70.942"/>
            <g transform="translate(93.056 46.647)">
                <ellipse fill="#FFF" cx="18.423" cy="18.367" rx="18.423" ry="18.367"/>
                <path d="M32.349 30.393c-6.368-1.15-11.196-6.706-11.196-13.386 0-5.89 3.754-10.906 9.006-12.799 4.085 3.37 6.688 8.461 6.688 14.16 0 4.599-1.696 8.803-4.498 12.025z" fill="#494949"/>
            </g>
            <g transform="translate(34.569 50.534)">
                <ellipse fill="#FFF" cx="20.47" cy="20.408" rx="20.47" ry="20.408"/>
                <path d="M35.856 34.013C28.658 32.728 23.2 26.521 23.2 19.06c0-6.58 4.243-12.182 10.181-14.297 4.618 3.763 7.56 9.452 7.56 15.817 0 5.138-1.917 9.835-5.085 13.434z" fill="#494949"/>
            </g>
            <path d="M34.569 37.657c2.144 7.297 4.25 10.152 6.32 8.565 2.07-1.588 3.537-5.981 4.403-13.18M17.023 67.864c-.015 6.587 1.935 9.881 5.849 9.881s5.863-4.86 5.848-14.577M51.14 111.283c-.011 6.148 1.451 9.222 4.387 9.222 2.936 0 4.398-4.535 4.386-13.606" stroke="#FFCCD3" stroke-width="2.1" stroke-linecap="round"/>
        </g>
    </g>
</svg>
