<svg width="315" height="179" viewBox="0 0 315 179" xmlns="http://www.w3.org/2000/svg">
    <g fill="none" fill-rule="evenodd">
        <g transform="matrix(-1 0 0 1 315.248 33)">
            <circle fill="#FFB0B9" cx="73.463" cy="73" r="73"/>
            <g transform="translate(95.463 48)">
                <circle fill="#FFF" cx="18.9" cy="18.9" r="18.9"/>
                <path d="M33.186 31.275C26.654 30.09 21.7 24.374 21.7 17.5c0-6.06 3.851-11.222 9.24-13.17 4.19 3.467 6.86 8.707 6.86 14.57 0 4.733-1.74 9.06-4.614 12.375z" fill="#494949"/>
            </g>
            <g transform="translate(35.463 52)">
                <circle fill="#FFF" cx="21" cy="21" r="21"/>
                <path d="M36.784 35C29.4 33.677 23.8 27.29 23.8 19.612c0-6.77 4.353-12.536 10.445-14.712C38.982 8.773 42 14.626 42 21.176c0 5.287-1.966 10.12-5.216 13.824z" fill="#494949"/>
            </g>
            <path d="M35.463 38.749c2.2 7.509 4.36 10.447 6.484 8.813C44.07 45.93 45.575 41.408 46.463 34M17.464 69.832c-.016 6.779 1.984 10.168 6 10.168 4.015 0 6.015-5 6-15M52.463 114.51c-.011 6.327 1.489 9.49 4.5 9.49 3.012 0 4.512-4.667 4.5-14" stroke="#FFCCD3" stroke-width="2.1" stroke-linecap="round"/>
        </g>
        <g>
            <path d="M108.676.531c-1.872-.463-5.445-.52-48.534-.52C8.869-.02 11.779-.106 8.177 1.774 5.931 2.96 2.905 5.998 1.725 8.254c-2.45 4.687-2.277 10.471.432 15.128 2.045 3.529 6.74 6.653 10.974 7.289 2.592.376 3.888.028 4.694-1.302.664-1.07.692-1.939.116-3.067-.576-1.099-1.296-1.475-3.485-1.735-3.458-.433-6.137-2.372-7.548-5.437-1.813-3.99-.287-9.14 3.457-11.512 1.555-.985 4.32-1.65 5.963-1.418 3.14.433 6.163 2.66 7.431 5.525.49 1.07.519 4.512.663 61.003.143 54.004.202 60.02.633 61.38.72 2.342 1.901 4.714 3.14 6.392l1.182 1.532 9.246-.086c8.958-.086 9.332-.116 10.744-.752 5.358-2.43 6.972-9.66 3.14-14.144-1.93-2.256-3.716-3.095-7.95-3.702-2.102-.317-3.313-2.43-2.42-4.31.98-2.053-1.959-1.908 41.595-1.908h39.203V67.29c-.03-55.392.086-52.5-1.959-56.723-2.535-5.235-6.712-8.649-12.3-10.037zM41.703 43.513c.72-.376 4.898-.433 32.032-.404 17.168 0 31.484.114 31.8.26 1.641.665 2.392 3.152 1.383 4.599-1.066 1.532-.029 1.475-33.241 1.475-33.213 0-32.176.057-33.242-1.475-.576-.867-.604-2.545 0-3.384.23-.347.808-.84 1.268-1.07zm.173 18.484c1.412-.607 62.305-.578 63.658 0 1.18.52 1.844 1.504 1.844 2.777 0 1.301-.662 2.256-1.9 2.777-1.44.607-62.162.607-63.602 0-1.238-.521-1.9-1.476-1.9-2.777 0-1.302.66-2.256 1.9-2.777zm25.016-35.839.508-.911 19.254-.055c10.58-.027 19.41.055 19.602.193.998.636 1.455 3.011.84 4.393-.647 1.463-.016 1.409-20.216 1.409-20.199 0-19.568.054-20.216-1.41-.455-1.05-.368-2.569.228-3.619zM40.81 99.715l.836-.954 31.658-.058c17.398-.028 31.915.058 32.232.203 1.64.665 2.39 3.152 1.382 4.599-1.066 1.533-.029 1.475-33.241 1.475-33.213 0-32.176.058-33.242-1.475-.749-1.1-.604-2.69.375-3.79zm104.973 24.487-.748-1.267h-43.237c-23.764 0-43.211.09-43.211.178 0 .089.258.562.604 1.033.315.472.92 1.681 1.351 2.715.661 1.622.748 2.212.777 5.37 0 2.923-.116 3.866-.662 5.46-1.612 4.839-5.697 8.706-10.3 9.857-1.496.383 3.51.413 41.168.442 47.239.03 44.707.117 48.304-1.801 2.243-1.21 5.265-4.31 6.444-6.61 2.474-4.841 2.272-10.802-.49-15.377z" fill="#95CDCD" fill-rule="nonzero"/>
            <circle fill="#FFF" cx="51" cy="28.047" r="7"/>
        </g>
        <path d="M111.098 67.602c14.337 6.428 27.548 3.414 34.825-24.5-1.383 7.398-1.36 35.167-12.663 46.798-11.341 11.669-21.78 9.403-33.213 8.6-11.433-.803-12.741-7.119-15.745-10.867 0 0-13.96 14.226-27.847 14.216-13.888-.01-18.777-1.949-27.962-11.949C19.31 79.9 14.552 58.16 14 50.5 19.726 66.49 39.993 80.187 52.314 74c0 0 13.012-12.789 23.292-6.398 0 0 5.997 3.313 8.707 8.4 0 0 12.448-14.828 26.785-8.4z" fill="#499B9B" fill-rule="nonzero"/>
    </g>
</svg>
