<?xml version="1.0" encoding="UTF-8"?>
<svg width="45px" height="52px" viewBox="0 0 45 52" version="1.1" xmlns="http://www.w3.org/2000/svg" xmlns:xlink="http://www.w3.org/1999/xlink">
    <!-- Generator: sketchtool 56.3 (101010) - https://sketch.com -->
    <title>9E40C248-AE87-4139-95D5-7EFC428270E3</title>
    <desc>Created with sketchtool.</desc>
    <g id="Page-1" stroke="none" stroke-width="1" fill="none" fill-rule="evenodd">
        <g id="setting" transform="translate(-2059.000000, -1358.000000)">
            <g id="icon-file-3" transform="translate(2059.000000, 1358.000000)">
                <g id="icon-file-excel">
                    <path d="M29.6703297,14.8571429 L29.6703297,1.16204082 C30.0941915,1.43265306 30.4438776,1.70326531 30.7140895,1.97387755 L42.5345369,13.8118367 C42.8047488,14.082449 43.0749608,14.4326531 43.3451727,14.8571429 L29.6703297,14.8571429 Z M25.9615385,15.7857143 C25.9615385,16.5604082 26.2317504,17.2183673 26.7721743,17.7595918 C27.3125981,18.3008163 27.969584,18.5714286 28.7431319,18.5714286 L44.5054945,18.5714286 L44.5054945,49.2142857 C44.5054945,49.9889796 44.2352826,50.6469388 43.6948587,51.1881633 C43.1544349,51.7293878 42.497449,52 41.7239011,52 L2.78159341,52 C2.00804553,52 1.35105965,51.7293878 0.810635793,51.1881633 C0.270211931,50.6469388 0,49.9889796 0,49.2142857 L0,2.78571429 C0,2.01102041 0.270211931,1.35306122 0.810635793,0.811836735 C1.35635793,0.270612245 2.00804553,0 2.78159341,0 L25.9615385,0 L25.9615385,15.7857143 L25.9615385,15.7857143 Z" id="形狀" fill="#8CBC54" fill-rule="nonzero"></path>
                    <polygon id="路徑" fill="#FFFFFF" points="32.0314395 24.2666667 26.4513246 24.2666667 22.504309 29.9972789 18.5572933 24.2666667 12.9728695 24.2666667 19.6603894 34.1148299 12.1153846 45.0666667 22.9308969 45.0666667 22.9308969 41.3481361 20.4316949 41.3481361 22.5 38.3002993 27.093361 45.0666667 32.8846154 45.0666667 25.3396106 34.1148299"></polygon>
                </g>
            </g>
        </g>
    </g>
</svg>