<svg xmlns="http://www.w3.org/2000/svg" width="95.25" height="9.75" viewBox="0 0 95.25 9.75">
  <defs>
    <style>
      .cls-1 {
        fill: #fff;
        fill-rule: evenodd;
      }
    </style>
  </defs>
  <path id="btn-moredetail.svg" class="cls-1" d="M205.768,2203.26h1.849l0.952-5.76,2.4,5.76h0.616l2.507-5.76,0.841,5.76h1.849l-1.569-9.35h-1.317l-2.591,5.94-2.479-5.94h-1.317Zm18.315-9.56a4.886,4.886,0,1,0,4.986,4.89A4.744,4.744,0,0,0,224.083,2193.7Zm0,8.11a3.227,3.227,0,1,1,3.109-3.22A3.038,3.038,0,0,1,224.083,2201.81Zm7.781-7.9v9.35h1.821v-3.76h0.224l2.493,3.76h2.27l-2.914-3.94a2.665,2.665,0,0,0,1.023-.4,2.566,2.566,0,0,0,1.092-2.2,2.682,2.682,0,0,0-.924-2.11,3.461,3.461,0,0,0-2.382-.7h-2.7Zm1.821,1.49h0.546a1.512,1.512,0,0,1,1.765,1.4c0,1.37-1.443,1.41-1.793,1.41h-0.518v-2.81Zm12.518-1.49H241.02v9.35H246.2v-1.57h-3.362v-2.55h3.222v-1.57h-3.222v-2.09H246.2v-1.57Zm7.542,0v9.35h2.41a5.369,5.369,0,0,0,3.418-.9,4.456,4.456,0,0,0,1.877-3.77,4.612,4.612,0,0,0-1.793-3.76,5.392,5.392,0,0,0-3.474-.92h-2.438Zm1.821,1.57h0.561a3.809,3.809,0,0,1,2.3.62,3.108,3.108,0,0,1,1.149,2.49,3.031,3.031,0,0,1-1.163,2.48,3.9,3.9,0,0,1-2.283.62h-0.561v-6.21Zm14.142-1.57h-5.183v9.35h5.183v-1.57h-3.362v-2.55h3.222v-1.57h-3.222v-2.09h3.362v-1.57Zm7.924,1.57v-1.57h-6.023v1.57h2.1v7.78h1.821v-7.78h2.1Zm8.9,7.78H288.5l-3.909-9.35h-1.428l-4.021,9.35h1.976l0.826-1.96h3.768Zm-4.02-3.45,1.331-3.36,1.331,3.36h-2.662Zm8.469-5.9v9.35h1.821v-9.35h-1.821Zm5.348,0v9.35h4.706v-1.57h-2.885v-7.78h-1.821Z" transform="translate(-205.781 -2193.72)"/>
</svg>
