<svg id="レイヤー_2" data-name="レイヤー 2" xmlns="http://www.w3.org/2000/svg" viewBox="0 0 180.5 18.38"><defs><style>.cls-1{fill:#fff;}</style></defs><path class="cls-1" d="M364,194.57c-1.26,1.06-1.82,1.9-1.82,2.76,0,1.3,1.46,1.86,4.84,1.86a20.6,20.6,0,0,0,6.28-.86l.22,2.75c-.36,0-.42,0-.88.07a31.38,31.38,0,0,1-5.4.47,14.31,14.31,0,0,1-5-.66c-1.72-.69-2.56-1.78-2.56-3.35s.78-2.86,2.58-4.36Zm-3-8.22a26.23,26.23,0,0,0,6,.5,24.8,24.8,0,0,0,5.28-.38l.08,2.26A36.22,36.22,0,0,0,367,192l-1.74-1.38c1.26-.8,1.48-.94,2-1.22l.52-.32a3.62,3.62,0,0,0,.44-.24,21.32,21.32,0,0,1-3,.16,31.54,31.54,0,0,1-3.66-.24l-.46,0s-.14,0-.28,0Zm10.56,4.44a13,13,0,0,1,2.1,2.94l-1.4.74a13.5,13.5,0,0,0-2.1-3Zm3.1,2.42a14.74,14.74,0,0,0-2-2.9l1.34-.7a11.57,11.57,0,0,1,2.08,2.82Z" transform="translate(-359.71 -184.71)"/><path class="cls-1" d="M381.29,199a12,12,0,0,1-1.9,4.09,8,8,0,0,0-1.64-1.18,9.76,9.76,0,0,0,1.84-3.75ZM380,198a12.25,12.25,0,0,0-1.42.06c0-.58.06-1.4.06-2.12v-8.68a19.56,19.56,0,0,0-.08-2c.46,0,.92.06,1.66.06h2.36a15.37,15.37,0,0,0,1.58-.06,17.46,17.46,0,0,0-.06,1.8v9.12a12.91,12.91,0,0,0,.06,1.88,12.67,12.67,0,0,0-1.38-.06Zm.44-9h1.88v-1.8h-1.88Zm0,3.48h1.88v-1.76h-1.88Zm0,3.7h1.88v-2h-1.88Zm2.7,2a11.57,11.57,0,0,0,1.68,3.35,6.5,6.5,0,0,0-1.58,1.1,18.81,18.81,0,0,1-1.66-3.65Zm3.06-5.68a9.58,9.58,0,0,0-1.64.1v-1.78a9.3,9.3,0,0,0,1.64.1h1V190h-.56a8.94,8.94,0,0,0-1.4.08v-1.6a8.71,8.71,0,0,0,1.4.08h.56v-.88h-.9a10.45,10.45,0,0,0-1.48.08V186a8.1,8.1,0,0,0,1.54.1h.84a4.73,4.73,0,0,0-.12-1.4h2.18a4.73,4.73,0,0,0-.12,1.4h2.3a4.34,4.34,0,0,0-.12-1.4h2.18a6.49,6.49,0,0,0-.12,1.4h1.2A7,7,0,0,0,396,186v1.7a10.21,10.21,0,0,0-1.44-.08h-1.22v.88h.86a8.39,8.39,0,0,0,1.36-.08V190a9.1,9.1,0,0,0-1.4-.08h-.82v.94h1.3a7.8,7.8,0,0,0,1.6-.1v1.78a8.52,8.52,0,0,0-1.62-.1h-3.48v.88h2.3a16.31,16.31,0,0,0,1.86-.08,16.11,16.11,0,0,0-.08,1.68v3.2a6.34,6.34,0,0,0,1.06-.1v1.78a6,6,0,0,0-1.06-.07v1.35c0,1.51-.44,1.87-2.24,1.87-.58,0-1,0-1.8,0a5.59,5.59,0,0,0-.34-1.79,10.61,10.61,0,0,0,1.66.15c.66,0,.82-.08.82-.46v-1.08h-6v.88a23.33,23.33,0,0,0,.08,2.46h-2.1a19.52,19.52,0,0,0,.1-2.46v-.88a4.61,4.61,0,0,0-1.14.1v-1.81a8.63,8.63,0,0,0,1.14.1v-3c0-.82,0-1.26-.06-1.84.5,0,1,.06,1.88.06h2v-.88Zm3.08,2.4h-1.92v.94h1.92Zm0,2.32h-1.92v1h1.92Zm-.18-8.68h2.3v-.88h-2.3Zm0,2.38h2.3V190h-2.3Zm4.22,4.92v-.94h-2.16v.94Zm0,2.34v-1h-2.16v1Z" transform="translate(-359.71 -184.71)"/><path class="cls-1" d="M404.29,187.71c-.54,0-1.14,0-1.92.1v-2.4a12.18,12.18,0,0,0,1.88.1h3.18a10.9,10.9,0,0,0,1.82-.1,9.44,9.44,0,0,0-.06,1.26,15.49,15.49,0,0,0,2.14,7.92,16.42,16.42,0,0,0,3.2,3.85,14.69,14.69,0,0,0,3,2.16,8.49,8.49,0,0,0-1.7,2.26,20.19,20.19,0,0,1-4.86-4.71,15.23,15.23,0,0,1-1.76-3,12.93,12.93,0,0,1-1-2.84,16.91,16.91,0,0,1-2.86,6.05,20,20,0,0,1-5,4.52,5.72,5.72,0,0,0-1.64-2.11,15.8,15.8,0,0,0,4-3.14,14.81,14.81,0,0,0,3.42-5.92,15.8,15.8,0,0,0,.66-4Z" transform="translate(-359.71 -184.71)"/><path class="cls-1" d="M421.39,202.16a7.3,7.3,0,0,0-.1-.78,38.13,38.13,0,0,1-.54-6.37,35.75,35.75,0,0,1,.38-5.3c.1-.6.1-.6.54-2.86a10.74,10.74,0,0,0,.22-1.48v-.08l2.7.28c-.82,1.74-1.58,6.56-1.6,10,0,.72,0,.72,0,1V197a3.4,3.4,0,0,1,0,.42h0c.1-.22.1-.22.24-.58,0-.14.14-.36.24-.68l.38-.9a3.81,3.81,0,0,0,.24-.62l1.66.74a16.67,16.67,0,0,0-2,6.13,3.92,3.92,0,0,0,0,.54Zm4.52-13.11a14.41,14.41,0,0,0,3.62.32c.7,0,1.14,0,1.84,0,0-1.18,0-2.18,0-3a5.59,5.59,0,0,0-.06-1l2.5-.06a19.57,19.57,0,0,0-.14,2.94v.92a20.11,20.11,0,0,0,2.7-.48l.44-.16.16,0,.08,2.26a3.46,3.46,0,0,0-.58.1c-.68.14-1.72.32-2.78.44v.44c0,1.12,0,1.16.2,4.52a16,16,0,0,1,3.14,1.82,3.81,3.81,0,0,0,.56.34l-1,2.43a7.18,7.18,0,0,0-1.5-1.28l-1.26-.83V199a3.54,3.54,0,0,1-.16,1.12c-.46,1.17-1.86,1.88-3.8,1.88-2.62,0-4.22-1.25-4.22-3.29s1.7-3.3,4.12-3.3a4.75,4.75,0,0,1,1.78.28c-.06-.5-.08-1.48-.16-4.26-.8,0-1.28,0-1.8,0-.74,0-1.54,0-2.48-.1l-.6,0-.34,0-.2,0-.12,0Zm4.06,8.38c-1.28,0-2.08.5-2.08,1.32s.72,1.24,1.84,1.24a2,2,0,0,0,1.62-.62,1.66,1.66,0,0,0,.26-1.08v-.54A4.19,4.19,0,0,0,430,197.43Z" transform="translate(-359.71 -184.71)"/><path class="cls-1" d="M445.57,194.55c-1.26,1-1.82,1.88-1.82,2.74,0,1.3,1.46,1.86,4.84,1.86a21.33,21.33,0,0,0,6.28-.84l.22,2.75a8,8,0,0,0-.88.08,34.22,34.22,0,0,1-5.4.44,14.31,14.31,0,0,1-5-.66,3.44,3.44,0,0,1-2.56-3.35c0-1.52.78-2.84,2.58-4.34Zm-3-8.22a26.23,26.23,0,0,0,6,.5,24.8,24.8,0,0,0,5.28-.38l.08,2.24a36.77,36.77,0,0,0-5.34,3.32l-1.74-1.38c1-.66,2-1.26,2.94-1.78a21.32,21.32,0,0,1-3,.16,31.54,31.54,0,0,1-3.66-.24,6,6,0,0,0-.74-.06Z" transform="translate(-359.71 -184.71)"/><path class="cls-1" d="M460.89,187.83a18.4,18.4,0,0,0,4.32.34,17.16,17.16,0,0,0,.56-3.3l2.68.22a11.18,11.18,0,0,0-.32,1.16c-.36,1.5-.36,1.5-.48,1.88,1.52,0,3.78-.2,5.1-.36a13.64,13.64,0,0,0,2.56-.46l.12,2.42c-.46,0-.64,0-1.16.1-2.9.32-4.66.46-7.16.52a26.59,26.59,0,0,1-1.58,4.06v0a9.3,9.3,0,0,1,5-1.3c3.52,0,5.62,1.52,5.62,4.06,0,3-2.86,4.89-7.24,4.89a18.27,18.27,0,0,1-5.1-.7,11.38,11.38,0,0,0-.2-2.54,15.44,15.44,0,0,0,5.16.95c2.9,0,4.78-1,4.78-2.62,0-1.24-1.2-1.92-3.36-1.92a10.11,10.11,0,0,0-4.3,1,3.39,3.39,0,0,0-1.46,1.16l-2.42-.84a13.45,13.45,0,0,0,.94-1.8,45.28,45.28,0,0,0,1.68-4.44c-1.06,0-2-.06-3-.14-.28,0-.48,0-.64,0h-.16Z" transform="translate(-359.71 -184.71)"/><path class="cls-1" d="M486.37,189a42.32,42.32,0,0,0-.9,4.92c0,.28,0,.28-.1.58l0,0c1.16-1.12,3.64-1.9,6.06-1.9,3.4,0,5.64,1.68,5.64,4.24a4.89,4.89,0,0,1-2.06,3.87,8.64,8.64,0,0,1-5.28,1.36,18.39,18.39,0,0,1-5.1-.7,9,9,0,0,0-.3-2.59,15.9,15.9,0,0,0,5.38,1c2.82,0,4.78-1.18,4.78-2.88,0-1.34-1.26-2.14-3.38-2.14a9.1,9.1,0,0,0-5,1.46,4.35,4.35,0,0,0-.9.86l-2.52-.08c.06-.36.06-.44.16-1.2.16-1.24.48-3.46.84-5.82a8.16,8.16,0,0,0,.12-1.16Zm.26-3.92a30,30,0,0,0,7.46,2.22l-.82,2.3a36.2,36.2,0,0,1-7.8-2.5Z" transform="translate(-359.71 -184.71)"/><path class="cls-1" d="M509.89,185.27a4.65,4.65,0,0,0-.16.62c0,.26-.06.36-.12.68s-.06.42-.34,1.92c-.08.44-.08.48-.14.74.58,0,.86-.06,1.24-.06a3.87,3.87,0,0,1,3,1.06c.68.76.94,1.72.94,3.54,0,3.44-.58,6.18-1.54,7.29a2.53,2.53,0,0,1-2.22.9,9.7,9.7,0,0,1-3.08-.58c0-.4,0-.69,0-.89a7.57,7.57,0,0,0-.2-1.7,8.27,8.27,0,0,0,2.92.78c.58,0,.9-.38,1.2-1.36a17.77,17.77,0,0,0,.52-4.56c0-1.84-.46-2.38-2-2.38-.4,0-.7,0-1.16.06a42.31,42.31,0,0,1-1.22,4.34,43.56,43.56,0,0,1-2.4,5.63l-.3.6c-.06.12-.06.14-.16.34L502.31,201a22.39,22.39,0,0,0,2.08-3.77,33.93,33.93,0,0,0,1.94-5.66,35.86,35.86,0,0,0-3.58.64l-.24-2.36c.74,0,3.16-.24,4.26-.4a30.78,30.78,0,0,0,.52-4V185Zm6.62,2.56a19.41,19.41,0,0,1,4.12,7.8l-2.28,1.16a18,18,0,0,0-1.6-4.54,12.94,12.94,0,0,0-2.3-3.42Z" transform="translate(-359.71 -184.71)"/><path class="cls-1" d="M529.47,189a42.32,42.32,0,0,0-.9,4.92c0,.28,0,.28-.1.58l0,0c1.16-1.12,3.64-1.9,6.06-1.9,3.4,0,5.64,1.68,5.64,4.24a4.89,4.89,0,0,1-2.06,3.87,8.64,8.64,0,0,1-5.28,1.36,18.39,18.39,0,0,1-5.1-.7,9,9,0,0,0-.3-2.59,15.9,15.9,0,0,0,5.38,1c2.82,0,4.78-1.18,4.78-2.88,0-1.34-1.26-2.14-3.38-2.14a9.1,9.1,0,0,0-5,1.46,4.35,4.35,0,0,0-.9.86l-2.52-.08c.06-.36.06-.44.16-1.2.16-1.24.48-3.46.84-5.82a8.16,8.16,0,0,0,.12-1.16Zm.26-3.92a30,30,0,0,0,7.46,2.22l-.82,2.3a36.2,36.2,0,0,1-7.8-2.5Z" transform="translate(-359.71 -184.71)"/></svg>