<?xml version="1.0" encoding="utf-8"?>
<!-- Generator: Adobe Illustrator 25.1.0, SVG Export Plug-In . SVG Version: 6.00 Build 0)  -->
<svg version="1.1" id="レイヤー_1" xmlns="http://www.w3.org/2000/svg" xmlns:xlink="http://www.w3.org/1999/xlink" x="0px"
	 y="0px" width="138px" height="13.2px" viewBox="0 0 138 13.2" style="enable-background:new 0 0 138 13.2;" xml:space="preserve">
<style type="text/css">
	.st0{fill-rule:evenodd;clip-rule:evenodd;fill:#FFFFFF;}
</style>
<path id="btn-online-text.svg" class="st0" d="M6.6,0C3,0,0,2.9,0,6.6c0,3.7,2.9,6.6,6.6,6.6c3.7,0,6.6-2.9,6.6-6.6c0,0,0,0,0,0
	c0.2-3.5-2.6-6.5-6.1-6.6C7,0,6.8,0,6.6,0z M6.6,11C4.2,11.1,2.1,9.3,2,6.9C1.8,4.5,3.7,2.4,6.1,2.2c2.4-0.1,4.5,1.7,4.6,4.1
	c0,0.1,0,0.2,0,0.3C10.9,8.9,9.2,10.8,7,11C6.8,11,6.7,11,6.6,11L6.6,11z M20,12.9V4.5l7.5,8.5h1.7V0.3h-2.4v8.5l-7.5-8.5h-1.7v12.7
	L20,12.9L20,12.9z M34.1,0.3v12.7h6.2v-2.1h-3.8V0.3L34.1,0.3L34.1,0.3z M44.2,0.3v12.7h2.4V0.3L44.2,0.3L44.2,0.3z M53.9,12.9V4.5
	l7.5,8.5h1.7V0.3h-2.4v8.5l-7.5-8.5h-1.7v12.7L53.9,12.9L53.9,12.9z M75,0.3h-6.9v12.7H75v-2.1h-4.5V7.4h4.3V5.2h-4.3V2.4H75V0.3z
	 M93.2,1.5C92.3,0.5,91,0,89.7,0c-2-0.2-3.8,1.3-4,3.3c0,0.1,0,0.3,0,0.4c0,0.9,0.3,1.8,1,2.4c0.6,0.5,1.3,0.9,2.1,1.1
	c0.7,0.2,1.3,0.5,1.9,0.9c0.3,0.3,0.5,0.7,0.5,1.1c0,1-0.8,1.8-1.8,1.8c-0.1,0-0.1,0-0.2,0c-1.1,0-2.1-0.7-2.6-1.7l-1.6,1.5
	c0.9,1.5,2.5,2.4,4.3,2.4c2.2,0.2,4.1-1.5,4.3-3.7c0-0.1,0-0.3,0-0.4c0-1-0.3-2-1.1-2.7c-0.7-0.6-1.6-1-2.5-1.3
	c-0.5-0.1-1-0.4-1.5-0.7c-0.3-0.2-0.4-0.5-0.4-0.9c0-0.8,0.7-1.5,1.5-1.5c0.1,0,0.1,0,0.2,0c0.8,0,1.6,0.4,2,1.1L93.2,1.5z
	 M100.3,0.3h-2.4v12.7h2.4V7.3h5.2v5.6h2.4V0.3h-2.4v4.9h-5.2V0.3z M118.9,0c-3.7,0-6.6,3-6.6,6.6c0,3.7,3,6.6,6.6,6.6
	c3.7,0,6.6-3,6.6-6.6c0,0,0,0,0,0c0.2-3.5-2.6-6.5-6.1-6.6C119.3,0,119.1,0,118.9,0L118.9,0z M118.9,11c-2.4,0.1-4.5-1.7-4.6-4.1
	c-0.1-2.4,1.7-4.5,4.1-4.6c2.4-0.1,4.5,1.7,4.6,4.1c0,0.1,0,0.2,0,0.3c0.2,2.2-1.5,4.2-3.8,4.4C119.2,11,119,11,118.9,11L118.9,11z
	 M129.9,0.3v12.7h2.4V8.3h1.6c2,0.2,3.9-1.2,4.1-3.2c0-0.2,0-0.5,0-0.7c0-1.2-0.4-2.3-1.3-3.1c-0.9-0.8-2.1-1.1-3.3-1H129.9
	L129.9,0.3z M132.3,2.4h0.8c0.6,0,1.2,0.1,1.7,0.4c0.4,0.3,0.7,0.9,0.7,1.4c0,0.6-0.2,1.1-0.7,1.5c-0.5,0.3-1,0.5-1.6,0.4h-1V2.4
	L132.3,2.4z"/>
</svg>
