<svg id="icon116" xmlns="http://www.w3.org/2000/svg" viewBox="0 0 35 35"><defs><style>.cls-1{fill:#1147b4;}.cls-2{fill:#fff;}</style></defs><circle class="cls-1" cx="17.5" cy="17.5" r="17.5"/><path class="cls-2" d="M19.92,18.56c-1.71,5.58-6.1,8.06-6.1,12.05a6.11,6.11,0,0,0,12.21,0C26,26.62,21.63,24.14,19.92,18.56ZM15.29,30.69c0-1.91,1.09-3.44,2.49-5.34a9,9,0,0,0-1.58,5.26,5.5,5.5,0,0,0,3.54,4.63A4.59,4.59,0,0,1,15.29,30.69Z" transform="translate(-1.95 -9.27)"/><path class="cls-2" d="M13.3,15.46c-.28,1.75-.8,2.38-2.2,2.73a.32.32,0,0,0,0,.63c1.4.36,1.92,1,2.2,2.74a.27.27,0,0,0,.53,0c.28-1.75.8-2.38,2.2-2.74a.32.32,0,0,0,0-.63c-1.4-.35-1.92-1-2.2-2.73A.27.27,0,0,0,13.3,15.46Z" transform="translate(-1.95 -9.27)"/><path class="cls-2" d="M28.6,20.6c-.31,1.9-.87,2.58-2.39,3a.36.36,0,0,0,0,.69c1.52.38,2.08,1.06,2.39,3a.29.29,0,0,0,.57,0c.31-1.9.86-2.58,2.38-3a.35.35,0,0,0,0-.69c-1.52-.38-2.07-1.06-2.38-3A.29.29,0,0,0,28.6,20.6Z" transform="translate(-1.95 -9.27)"/><path class="cls-2" d="M9.7,21.7c-.18,1.13-.52,1.54-1.42,1.77a.2.2,0,0,0,0,.4c.9.23,1.24.64,1.42,1.77a.17.17,0,0,0,.34,0c.19-1.13.52-1.54,1.43-1.77a.21.21,0,0,0,0-.4c-.91-.23-1.24-.64-1.43-1.77A.17.17,0,0,0,9.7,21.7Z" transform="translate(-1.95 -9.27)"/></svg>