<svg id="tag.svg" xmlns="http://www.w3.org/2000/svg" width="86" height="23" viewBox="0 0 86 23">
  <defs>
    <style>
      .cls-1 {
        fill: #1147b4;
        fill-rule: evenodd;
      }

      .cls-2 {
        fill: none;
        stroke: #1147b4;
        stroke-width: 1px;
      }
    </style>
  </defs>
  <path id="医薬部外品" class="cls-1" d="M773.836,311.306h7.623c1.21,0,1.626.026,1.7,0.026,0.13,0,.143-0.013.143-0.143v-1.027c0-.13-0.013-0.143-0.143-0.143-0.078,0-.494.026-1.7,0.026H774.3c-1.209,0-1.652-.026-1.73-0.026-0.13,0-.143.013-0.143,0.143,0,0.078.026,0.962,0.026,2.745v5.632c0,1.8-.026,2.68-0.026,2.758,0,0.13.013,0.143,0.143,0.143h1.106c0.143,0,.156-0.013.156-0.143v-0.416h7.675c1.249,0,1.691.026,1.782,0.026,0.131,0,.144-0.013.144-0.143v-1.028c0-.13-0.013-0.143-0.144-0.143-0.091,0-.533.026-1.782,0.026h-7.675v-8.313Zm3.63,4.8c-0.482,1.027-1.457,1.639-3.279,2.159a2.683,2.683,0,0,1,.612.781c0.1,0.208.143,0.286,0.247,0.286a1.366,1.366,0,0,0,.312-0.091,5.2,5.2,0,0,0,3.213-2.472,6,6,0,0,0,3.461,2.472,1.391,1.391,0,0,0,.3.065c0.117,0,.156-0.078.234-0.286a4.447,4.447,0,0,1,.546-0.9,5.806,5.806,0,0,1-3.59-2.016h1.431c1.275,0,1.7.026,1.782,0.026,0.143,0,.156-0.013.156-0.143v-0.872c0-.117-0.013-0.13-0.156-0.13-0.078,0-.507.026-1.782,0.026h-1.86a10.5,10.5,0,0,0,.117-1.327h1.144c1.158,0,1.561.026,1.64,0.026,0.13,0,.143-0.013.143-0.156V312.7c0-.13-0.013-0.143-0.143-0.143-0.079,0-.482.026-1.64,0.026h-3.2a0.7,0.7,0,0,0,.091-0.169,0.958,0.958,0,0,1,.222-0.364,0.239,0.239,0,0,0,.117-0.182,0.192,0.192,0,0,0-.17-0.169,7.784,7.784,0,0,0-1.144-.3,3.316,3.316,0,0,1-.312.833,7.327,7.327,0,0,1-1.47,1.821,2.852,2.852,0,0,1,.7.469,0.615,0.615,0,0,0,.325.221,0.473,0.473,0,0,0,.286-0.208,7.4,7.4,0,0,0,.677-0.846h1.431a9.689,9.689,0,0,1-.117,1.327h-1.418c-1.262,0-1.7-.026-1.782-0.026-0.13,0-.143.013-0.143,0.13v0.872c0,0.13.013,0.143,0.143,0.143,0.078,0,.52-0.026,1.782-0.026h1.093Zm13.193,2.445a10.375,10.375,0,0,1-4.11,1.691,3.569,3.569,0,0,1,.507.742c0.195,0.351.208,0.364,0.6,0.26a9.707,9.707,0,0,0,4.163-2.263c-0.013,1.444-.065,2.107-0.065,2.328,0,0.13.013,0.143,0.143,0.143h1.119c0.13,0,.143-0.013.143-0.143,0-.221-0.052-0.95-0.065-2.406a10.751,10.751,0,0,0,4.384,2.315c0.4,0.1.416,0.1,0.6-.26a4.215,4.215,0,0,1,.521-0.833,11.408,11.408,0,0,1-4.345-1.574h2.133c1.184,0,1.587.026,1.665,0.026,0.13,0,.143-0.013.143-0.143V317.59c0-.13-0.013-0.143-0.143-0.143-0.078,0-.481.026-1.665,0.026h-3.265v-0.729h0.1c0.872,0,1.171.026,1.249,0.026,0.13,0,.143-0.013.143-0.156,0-.078-0.026-0.39-0.026-1.106V313.96c0-.715.026-1.04,0.026-1.119,0-.13-0.013-0.143-0.143-0.143-0.078,0-.377.026-1.249,0.026h-0.481a1.525,1.525,0,0,0,.065-0.143,0.986,0.986,0,0,1,.195-0.3,0.244,0.244,0,0,0,.1-0.182c0-.078-0.078-0.117-0.221-0.143-0.325-.065-0.69-0.117-1.119-0.169a2.061,2.061,0,0,1-.13.585,3.24,3.24,0,0,1-.143.351c-0.689,0-.937-0.026-1.015-0.026-0.13,0-.143.013-0.143,0.143,0,0.092.026,0.4,0.026,1.119v1.548c0,0.716-.026,1.028-0.026,1.106,0,0.143.013,0.156,0.143,0.156,0.091,0,.365-0.026,1.288-0.026h0.026v0.729h-3.083c-1.184,0-1.587-.026-1.665-0.026-0.13,0-.143.013-0.143,0.143v0.845c0,0.13.013,0.143,0.143,0.143,0.078,0,.481-0.026,1.665-0.026h1.951Zm2.823-2.693h-2.016v-0.7h2.016v0.7Zm0-2.263v0.676h-2.016V313.6h2.016Zm-4.8-3.135c-1.249,0-1.691-.026-1.769-0.026-0.13,0-.143.013-0.143,0.143v0.846c0,0.13.013,0.143,0.143,0.143,0.078,0,.52-0.026,1.769-0.026h1.353c-0.013.351-.026,0.52-0.026,0.585,0,0.13.013,0.143,0.143,0.143h0.989c0.13,0,.143-0.013.143-0.143,0-.052-0.026-0.234-0.026-0.585h2.432c-0.013.351-.026,0.533-0.026,0.585,0,0.143.013,0.156,0.144,0.156H794.8c0.13,0,.143-0.013.143-0.156,0-.052-0.026-0.234-0.026-0.585h1.457c1.314,0,1.782.026,1.861,0.026,0.13,0,.143-0.013.143-0.143v-0.846c0-.13-0.013-0.143-0.143-0.143-0.079,0-.547.026-1.861,0.026h-1.457a1.147,1.147,0,0,1,.065-0.507,0.587,0.587,0,0,0,.065-0.2,0.153,0.153,0,0,0-.169-0.117c-0.351-.039-0.819-0.065-1.262-0.078a6.594,6.594,0,0,1,.078.9h-2.432a1.224,1.224,0,0,1,.065-0.52,0.394,0.394,0,0,0,.065-0.183c0-.065-0.052-0.1-0.169-0.117-0.351-.039-0.859-0.065-1.262-0.078a7.711,7.711,0,0,1,.078.9h-1.353Zm6.348,4.774a0.222,0.222,0,0,0-.065.143,0.133,0.133,0,0,0,.091.1,16.571,16.571,0,0,1,2.238,1.444c0.117,0.091.143,0.078,0.247-.091l0.481-.728a0.325,0.325,0,0,0,.065-0.143,0.134,0.134,0,0,0-.091-0.105,14.535,14.535,0,0,0-2.146-1.3,2.084,2.084,0,0,0,.247-0.143,13.621,13.621,0,0,0,1.34-.924,1.466,1.466,0,0,1,.351-0.247,0.188,0.188,0,0,0,.156-0.169,0.291,0.291,0,0,0-.117-0.222,9.638,9.638,0,0,0-.884-0.715,3.1,3.1,0,0,1-.378.429,6.737,6.737,0,0,1-1.587,1.106,3.744,3.744,0,0,1,.547.611,1.694,1.694,0,0,0,.13.2c-0.065-.013-0.091.026-0.156,0.117Zm-5.307-.872a11.873,11.873,0,0,1-2.16,1.158,4.655,4.655,0,0,1-.754.247c0.156,0.4.312,0.794,0.455,1.106a0.229,0.229,0,0,0,.182.156,0.266,0.266,0,0,0,.195-0.117,1.015,1.015,0,0,1,.365-0.247c0.572-.286,1.105-0.546,1.652-0.885,0.338-.208.338-0.208,0.234-0.611A8.007,8.007,0,0,1,789.723,314.363Zm-2.55-1.43a0.26,0.26,0,0,0-.078.143,0.139,0.139,0,0,0,.078.1,9.561,9.561,0,0,1,1.561,1.223c0.1,0.091.13,0.091,0.26-.066l0.547-.663a0.238,0.238,0,0,0,.078-0.13,0.177,0.177,0,0,0-.078-0.13,11.529,11.529,0,0,0-1.587-1.145c-0.117-.065-0.169-0.078-0.261.026ZM809.8,310.11c-0.728,0-1.079-.026-1.157-0.026-0.143,0-.157.013-0.157,0.143,0,0.091.027,0.962,0.027,2.745v5.619c0,1.769-.027,2.628-0.027,2.706,0,0.13.014,0.143,0.157,0.143h1.04c0.13,0,.143-0.013.143-0.143,0-.065-0.026-0.976-0.026-2.719v-7.285h1.822a25.591,25.591,0,0,1-1.34,3.409c1.379,1.275,1.678,1.912,1.678,2.732,0,0.767-.586,1.092-1.808,1.066a1.753,1.753,0,0,1,.364.859c0.065,0.429.065,0.429,0.468,0.39,1.522-.143,2.29-0.859,2.29-2.211,0-1.067-.26-1.848-1.587-3.044,0.442-.937.806-1.822,1.183-2.823a1.031,1.031,0,0,1,.274-0.482,0.316,0.316,0,0,0,.117-0.234,0.861,0.861,0,0,0-.313-0.533,0.915,0.915,0,0,0-.546-0.39,0.576,0.576,0,0,0-.195.039,0.894,0.894,0,0,1-.325.039H809.8Zm-6.322,11.174c0.13,0,.143-0.013.143-0.13V320.5h2.472v0.6c0,0.143.013,0.156,0.143,0.156h1c0.143,0,.156-0.013.156-0.156,0-.078-0.026-0.4-0.026-2.185v-1.08c0-.833.026-1.2,0.026-1.275,0-.13-0.013-0.143-0.156-0.143-0.078,0-.43.026-1.444,0.026h-1.874c-1.014,0-1.352-.026-1.444-0.026-0.13,0-.143.013-0.143,0.143,0,0.091.026,0.442,0.026,1.457v0.937c0,1.782-.026,2.107-0.026,2.2,0,0.117.013,0.13,0.143,0.13h1Zm0.143-3.707h2.472v1.782h-2.472v-1.782Zm2.628-2.095c1.171,0,1.574.026,1.652,0.026,0.13,0,.143-0.013.143-0.143v-0.936c0-.131-0.013-0.144-0.143-0.144-0.078,0-.455.026-1.47,0.026a11.717,11.717,0,0,0,.442-1.2,0.841,0.841,0,0,1,.17-0.3,0.294,0.294,0,0,0,.1-0.208,0.21,0.21,0,0,0-.2-0.169,10.978,10.978,0,0,0-1.131-.26,3.782,3.782,0,0,1-.1.65,12.7,12.7,0,0,1-.482,1.483h-1.886c-1.184,0-1.587-.026-1.665-0.026-0.117,0-.13.013-0.13,0.144v0.936c0,0.13.013,0.143,0.13,0.143,0.078,0,.481-0.026,1.665-0.026h2.9Zm-0.117-3.5c1.132,0,1.509.026,1.587,0.026,0.13,0,.143-0.013.143-0.143v-0.911c0-.143-0.013-0.156-0.143-0.156-0.078,0-.455.026-1.587,0.026h-0.664V310.6a1.824,1.824,0,0,1,.053-0.624,0.577,0.577,0,0,0,.091-0.261,0.2,0.2,0,0,0-.209-0.117c-0.442-.039-0.845-0.078-1.313-0.091a5.025,5.025,0,0,1,.078,1.08v0.234H803.58c-1.145,0-1.522-.026-1.6-0.026-0.13,0-.143.013-0.143,0.156v0.911c0,0.13.013,0.143,0.143,0.143,0.078,0,.455-0.026,1.6-0.026h2.55Zm-2.055,1.925c0.156-.052.182-0.052,0.156-0.195a8.435,8.435,0,0,0-.417-1.431c-0.052-.13-0.091-0.143-0.247-0.1l-0.715.195c-0.169.052-.195,0.052-0.143,0.195a7.23,7.23,0,0,1,.364,1.431c0.026,0.156.039,0.182,0.234,0.13Zm14.494,1.314a0.286,0.286,0,0,0-.078.156,0.182,0.182,0,0,0,.078.117,13.942,13.942,0,0,1,1.288,1.327,10.246,10.246,0,0,1-3.551,3.408,3.2,3.2,0,0,1,.754.69,0.567,0.567,0,0,0,.287.26,0.736,0.736,0,0,0,.312-0.182,11.612,11.612,0,0,0,4.722-6.843,10.789,10.789,0,0,0,1.626,1.926v2.953c0,1.457-.026,2.185-0.026,2.263,0,0.13.013,0.143,0.143,0.143h1.132c0.13,0,.143-0.013.143-0.143,0-.065-0.026-0.806-0.026-2.263V317.16a14.539,14.539,0,0,0,1.951,1.093,0.894,0.894,0,0,0,.3.1c0.1,0,.143-0.091.235-0.325A4.018,4.018,0,0,1,828.43,317a14.9,14.9,0,0,1-3.057-1.561V311.5a5.162,5.162,0,0,1,.091-1.444,0.855,0.855,0,0,0,.065-0.261c0-.078-0.078-0.117-0.2-0.13a12.553,12.553,0,0,0-1.431-.1,11.959,11.959,0,0,1,.1,1.978V314.3a9.435,9.435,0,0,1-1.3-1.665l0.078-.13a0.365,0.365,0,0,0,.13-0.221,0.839,0.839,0,0,0-.377-0.455,0.943,0.943,0,0,0-.572-0.351,0.325,0.325,0,0,0-.182.052,0.707,0.707,0,0,1-.391.078h-1.34c0.078-.209.143-0.43,0.221-0.664a1.8,1.8,0,0,1,.261-0.663,0.291,0.291,0,0,0,.091-0.221,0.22,0.22,0,0,0-.2-0.183,10.252,10.252,0,0,0-1.327-.286,3.927,3.927,0,0,1-.169,1.028,10.309,10.309,0,0,1-2.732,4.6,2.751,2.751,0,0,1,.65.794,0.373,0.373,0,0,0,.221.26,0.467,0.467,0,0,0,.261-0.195,12.7,12.7,0,0,0,2.211-3.266h1.847a12.592,12.592,0,0,1-.9,2.823,11.66,11.66,0,0,0-1.145-1.118,0.2,0.2,0,0,0-.13-0.078,0.167,0.167,0,0,0-.117.091Zm16.668-5.2c-1.223,0-1.652-.026-1.731-0.026-0.13,0-.143.013-0.143,0.143,0,0.091.026,0.429,0.026,1.209v1.887c0,0.78-.026,1.118-0.026,1.2,0,0.143.013,0.156,0.143,0.156,0.079,0,.508-0.026,1.731-0.026h3.59c1.236,0,1.652.026,1.743,0.026,0.13,0,.143-0.013.143-0.156,0-.079-0.026-0.417-0.026-1.2v-1.887c0-.78.026-1.118,0.026-1.209,0-.13-0.013-0.143-0.143-0.143-0.091,0-.507.026-1.743,0.026h-3.59Zm-0.508,1.248h4.618v2.043h-4.618v-2.043ZM838.7,321.4c0.13,0,.143-0.013.143-0.143v-0.637h2.316v0.572c0,0.143.013,0.156,0.143,0.156h1.027c0.13,0,.143-0.013.143-0.156,0-.078-0.026-0.442-0.026-2.394v-1.391c0-1.041.026-1.418,0.026-1.5,0-.144-0.013-0.157-0.143-0.157-0.078,0-.416.026-1.418,0.026h-1.795c-1,0-1.34-.026-1.431-0.026-0.117,0-.13.013-0.13,0.157,0,0.078.026,0.455,0.026,1.691v1.209c0,1.991-.026,2.355-0.026,2.446,0,0.13.013,0.143,0.13,0.143H838.7Zm0.143-4.4h2.316v2.407H838.84V317Zm-6.088,4.4c0.13,0,.143-0.013.143-0.156v-0.624h2.159v0.533c0,0.13.014,0.143,0.131,0.143H836.2c0.13,0,.143-0.013.143-0.143,0-.078-0.026-0.455-0.026-2.407v-1.366c0-1.027.026-1.4,0.026-1.483,0-.13-0.013-0.143-0.143-0.143-0.091,0-.416.026-1.392,0.026h-1.7c-0.962,0-1.288-.026-1.379-0.026-0.13,0-.143.013-0.143,0.143,0,0.092.026,0.456,0.026,1.7v1.209c0,1.991-.026,2.355-0.026,2.433,0,0.143.013,0.156,0.143,0.156h1.028ZM832.9,317h2.159v2.407H832.9V317Z" transform="translate(-764.5 -303.5)"/>
  <rect id="長方形_1033" data-name="長方形 1033" class="cls-2" x="0.5" y="0.5" width="85" height="22"/>
</svg>
