<svg id="レイヤー_1" data-name="レイヤー 1" xmlns="http://www.w3.org/2000/svg" viewBox="0 0 285 271.52"><defs><style>.cls-1{fill:#1147b4;}.cls-2{fill:#fff;}</style></defs><g id="TYPE_A" data-name="TYPE A"><path class="cls-1" d="M285,115.6C285,51.8,221.1,0,142.5,0S0,51.9,0,115.6c0,57.2,50.7,105,119.2,114.1,4.6,1,11,3.1,12.6,7,1.4,3.6.9,9.2.5,12.9,0,0-1.7,10.1-2,12.2-.6,3.6-2.9,14.1,12.3,7.7s82.1-48.3,112-82.7h0c20.5-22.7,30.4-45.7,30.4-71.2"/><path class="cls-2" d="M113.5,84.7h-10a2.8,2.8,0,0,0-2.8,2.8v62.1a2.8,2.8,0,0,0,2.8,2.8h10a2.8,2.8,0,0,0,2.8-2.8V87.5a2.8,2.8,0,0,0-2.8-2.8"/><path class="cls-2" d="M182.3,84.7h-10a2.8,2.8,0,0,0-2.8,2.8v36.9L141,86c-.1-.1-.1-.2-.2-.3h0l-.2-.2h-.1l-.1-.1-.1-.1-.1-.1h-.1l-.1-.1h-.1c-.1,0-.1,0-.2-.1h-.1c-.1,0-.1,0-.2-.1H128.7a2.8,2.8,0,0,0-2.8,2.8v62.1a2.8,2.8,0,0,0,2.8,2.8h10a2.8,2.8,0,0,0,2.8-2.8V112.9L170,151.4a2.34,2.34,0,0,0,.7.7h0c.1,0,.1.1.2.1h.1a995164323831.81,995164323831.81,0,0,0,.2.2h.1c.1,0,.1,0,.2.1h0a1.7,1.7,0,0,0,.7.1h10a2.8,2.8,0,0,0,2.8-2.8V87.7a2.71,2.71,0,0,0-2.7-3"/><path class="cls-2" d="M89.5,136.8H62.3V87.5a2.8,2.8,0,0,0-2.8-2.8h-10a2.8,2.8,0,0,0-2.8,2.8v62.1h0a2.73,2.73,0,0,0,.8,1.9h0a2.73,2.73,0,0,0,1.9.8H89.5a2.8,2.8,0,0,0,2.8-2.8v-10a2.92,2.92,0,0,0-2.8-2.7"/><path class="cls-2" d="M237.5,100.3a2.8,2.8,0,0,0,2.8-2.8v-10a2.8,2.8,0,0,0-2.8-2.8H197.6a2.73,2.73,0,0,0-1.9.8h0a2.73,2.73,0,0,0-.8,1.9h0v62.1h0a2.73,2.73,0,0,0,.8,1.9h0a2.73,2.73,0,0,0,1.9.8h39.9a2.8,2.8,0,0,0,2.8-2.8v-10a2.8,2.8,0,0,0-2.8-2.8H210.3V126.1h27.2a2.8,2.8,0,0,0,2.8-2.8v-10a2.8,2.8,0,0,0-2.8-2.8H210.3V100h27.2Z"/></g></svg>