<?xml version="1.0" encoding="utf-8"?>
<!-- Generator: Adobe Illustrator 25.0.1, SVG Export Plug-In . SVG Version: 6.00 Build 0)  -->
<svg version="1.1" id="icon116" xmlns="http://www.w3.org/2000/svg" xmlns:xlink="http://www.w3.org/1999/xlink" x="0px" y="0px"
	 viewBox="0 0 35 35" style="enable-background:new 0 0 35 35;" xml:space="preserve">
<style type="text/css">
	.st0{fill:#1147B4;}
	.st1{fill:#FFFFFF;}
</style>
<circle class="st0" cx="17.5" cy="17.5" r="17.5"/>
<g>
	<path class="st1" d="M12.2,12.9c-0.1,0-0.1,0-0.2,0c-0.8,0.4-1.5,1-1.9,1.8c-0.1,0.1-0.1,0.3,0,0.4c0,0.1,0.1,0.2,0.3,0.3
		c0.1,0,0.1,0,0.2,0c0.2,0,0.4-0.1,0.5-0.3c0.3-0.6,0.8-1.1,1.4-1.3c0.1-0.1,0.2-0.2,0.3-0.3c0.1-0.1,0-0.3,0-0.4
		C12.6,13,12.4,12.9,12.2,12.9z"/>
	<path class="st1" d="M20.2,16.3c0-3.7-3-6.8-6.8-6.8c-3.7,0-6.8,3-6.8,6.8c0,3.7,3,6.8,6.8,6.8C17.2,23,20.2,20,20.2,16.3z
		 M13.5,21.7c-1.4,0-2.8-0.6-3.8-1.6c-1-1-1.6-2.4-1.6-3.8c0-1.5,0.6-2.8,1.6-3.8c1-1,2.4-1.6,3.8-1.6c1.4,0,2.8,0.6,3.8,1.6
		c1,1,1.6,2.4,1.6,3.8c0,1.4-0.6,2.8-1.6,3.8C16.3,21.1,14.9,21.7,13.5,21.7z"/>
	<path class="st1" d="M24.4,10.7c-1.9,0-3.5,1.6-3.5,3.5c0,1.9,1.6,3.5,3.5,3.5c1.9,0,3.5-1.6,3.5-3.5
		C27.9,12.3,26.4,10.7,24.4,10.7z M26,15.8c-0.4,0.4-1,0.6-1.5,0.6c-0.6,0-1.1-0.2-1.5-0.6c-0.4-0.4-0.6-1-0.6-1.5
		c0-0.6,0.2-1.1,0.6-1.5c0.4-0.4,1-0.6,1.5-0.6c0.6,0,1.1,0.2,1.5,0.6c0.4,0.4,0.6,1,0.6,1.5C26.6,14.8,26.4,15.4,26,15.8z"/>
	<path class="st1" d="M21.2,18.3c-0.1,0.4-0.3,0.9-0.4,1.3c0.7,0.1,1.3,0.4,1.8,0.9c0.6,0.6,1,1.5,1,2.3c0,0.9-0.3,1.7-1,2.3
		c-0.6,0.6-1.5,1-2.3,1c-0.9,0-1.7-0.3-2.3-1c-0.5-0.5-0.8-1-0.9-1.7c-0.4,0.2-0.8,0.4-1.2,0.5c0.5,2,2.4,3.5,4.5,3.5
		c2.5,0,4.6-2.1,4.6-4.6C24.8,20.6,23.3,18.7,21.2,18.3z"/>
</g>
</svg>
