<?xml version="1.0" encoding="utf-8"?>
<!-- Generator: Adobe Illustrator 25.0.1, SVG Export Plug-In . SVG Version: 6.00 Build 0)  -->
<svg version="1.1" id="Layer_1" xmlns="http://www.w3.org/2000/svg" xmlns:xlink="http://www.w3.org/1999/xlink" x="0px" y="0px"
	 viewBox="0 0 400 400" style="enable-background:new 0 0 400 400;" xml:space="preserve">
<style type="text/css">
	.st0{fill:#1877F2;}
	.st1{fill:#FFFFFF;}
</style>
<g>
	<path class="st0" d="M400,200C400,89.5,310.5,0,200,0S0,89.5,0,200c0,99.8,73.1,182.6,168.8,197.6V257.8H118V200h50.8v-44.1
		c0-50.1,29.9-77.8,75.5-77.8c21.9,0,44.8,3.9,44.8,3.9v49.2h-25.2c-24.8,0-32.6,15.4-32.6,31.2V200h55.5l-8.9,57.8h-46.6v139.8
		C326.9,382.6,400,299.8,400,200z"/>
	<path class="st1" d="M277.9,257.8l8.9-57.8h-55.5v-37.5c0-15.8,7.7-31.2,32.6-31.2h25.2V82c0,0-22.9-3.9-44.8-3.9
		c-45.7,0-75.5,27.7-75.5,77.8V200H118v57.8h50.8v139.8c10.2,1.6,20.6,2.4,31.2,2.4s21.1-0.8,31.2-2.4V257.8H277.9z"/>
</g>
</svg>
