<svg xmlns="http://www.w3.org/2000/svg" width="18.9" height="18.688" viewBox="0 0 18.9 18.688">
  <defs>
    <style>
      .cls-1 {
        fill: #1147b4;
        fill-rule: evenodd;
      }
    </style>
  </defs>
  <path id="lang-icon-zh.svg" class="cls-1" d="M1249.35,184.387c1.62,0,2.37-.7,2.27-2.109V180.4h2.27q1.56-.076,2.34-0.078c0.42,0.312.83,0.6,1.25,0.859l1.17-1.094c-0.26-.156-0.68-0.416-1.25-0.781-1.35-.885-2.4-1.536-3.12-1.953l-1.25.859,1.32,0.86c-0.67,0-1.77.027-3.28,0.078-1.82.052-3.15,0.105-3.98,0.156q5.31-1.561,9.3-3.047l-1.25-1.172c-0.27.1-.71,0.287-1.33,0.547q-1.17.469-1.8,0.7l-5.16.078a32.944,32.944,0,0,0,3.21-1.093,5.163,5.163,0,0,0,.62-0.235l-0.23-.156h0.62V173.84h-0.93l0.07-1.172h1.64V171.34l0.08,0.078a4.705,4.705,0,0,0,.78-0.937,6.567,6.567,0,0,0,1.41,2.187,13.054,13.054,0,0,1-3.05,1.25c0.16,0.262.39,0.625,0.71,1.094a0.866,0.866,0,0,0,.15.313,11.773,11.773,0,0,0,3.44-1.563,14.486,14.486,0,0,0,3.59,1.641,16.982,16.982,0,0,1,.86-1.563,11.131,11.131,0,0,1-3.12-1.172,7.911,7.911,0,0,0,1.87-3.593h1.1v-1.563h-5a0.85,0.85,0,0,0,.15-0.312,7.876,7.876,0,0,0,.47-1.094l-1.8-.234a13.742,13.742,0,0,1-2.57,4.14l0.86,1.328h-1.41l0.16-2.265h-7.04a11.575,11.575,0,0,0,.71-0.938h7.03v-1.172h-6.17l0.54-.937-1.79-.235a9.7,9.7,0,0,1-2.82,3.282,12.8,12.8,0,0,1,1.18,1.172,1.791,1.791,0,0,0,.62-0.547c0.05-.052.11-0.1,0.16-0.157l-0.39,1.8h-1.64v1.328h1.4l-0.47,2.266h5.94q-0.54.234-1.56,0.625a7.253,7.253,0,0,0-1.09.391,11.725,11.725,0,0,1-2.04.468l0.47,1.407a10.2,10.2,0,0,1,1.64-.157q1.725-.155,3.6-0.156-0.63.157-1.8,0.547a19.489,19.489,0,0,1-2.5.781,11.84,11.84,0,0,1-2.34.547l0.47,1.485a13.736,13.736,0,0,1,1.4-.157c0.47-.051.81-0.078,1.02-0.078q1.1,0,4.14-.156h0.54v1.406q0.09,0.938-1.17.938-0.78,0-1.95-.078l0.39,1.718c1.09,0,1.88-.027,2.34-0.078h0Zm-1.48-2.109-0.94-1.25q-2.73.861-5.94,1.562l0.71,1.485q2.34-.627,6.17-1.8h0Zm11.8,0.469c-0.68-.209-1.7-0.52-3.05-0.938-1.3-.469-2.24-0.781-2.81-0.937l-0.86,1.328q3.51,1.014,5.86,1.953Zm-2.82-13.672a6.174,6.174,0,0,1-1.48,2.578,6.364,6.364,0,0,1-1.48-2.578h2.96Zm-13.2,4.765,0.31-1.328h1.33l-0.23.078,1.09,1.25h-2.5Zm3.75-.547-0.7-.781h1.95l-0.08,1.328h-2.34Zm0.31-2.421-0.78-.782h1.96l-0.08,1.407h-2.19Zm-3.51.625,0.23-1.407h1.17l-0.23.078,1.17,1.329h-2.34Z" transform="translate(-1240.91 -165.781)"/>
</svg>
