<svg xmlns="http://www.w3.org/2000/svg" width="19.94" height="14.313" viewBox="0 0 19.94 14.313">
  <defs>
    <style>
      .cls-1 {
        fill: #1147b4;
        fill-rule: evenodd;
      }
    </style>
  </defs>
  <path id="lang-icon-jp.svg" class="cls-1" d="M1244.71,78.032v9.03a4.638,4.638,0,0,1-.31,2.268,1.221,1.221,0,0,1-1.07.483,1.612,1.612,0,0,1-1.37-.756l-1.66,2a4.627,4.627,0,0,0,3.21,1.3,4.3,4.3,0,0,0,2.29-.63c1.56-1.05,1.64-3,1.64-4.242v-9.45h-2.73Zm6.34,0V92.039h2.73V86.852h1.77a4.82,4.82,0,0,0,3.55-1.239,4.5,4.5,0,0,0,1.15-3.129,4.443,4.443,0,0,0-1.43-3.381,5.014,5.014,0,0,0-3.69-1.071h-4.08Zm2.73,2.352h0.95a3.288,3.288,0,0,1,1.93.441,1.928,1.928,0,0,1,.78,1.6,2.076,2.076,0,0,1-.76,1.638,2.79,2.79,0,0,1-1.78.441h-1.12V80.384Z" transform="translate(-1240.31 -78.031)"/>
</svg>
