<svg id="編集モード" xmlns="http://www.w3.org/2000/svg" viewBox="0 0 395.21 395.21"><defs><style>.cls-1{fill:#1147b4;}</style></defs><path class="cls-1" d="M197.6,395.21C88.64,395.21,0,306.56,0,197.6S88.64,0,197.6,0,395.21,88.65,395.21,197.6,306.56,395.21,197.6,395.21ZM197.6,15C96.92,15,15,96.92,15,197.6S96.92,380.21,197.6,380.21,380.21,298.29,380.21,197.6,298.29,15,197.6,15Z"/><path class="cls-1" d="M197.6,395.21c-28.58,0-55-21.24-74.49-59.8-18.63-36.94-28.89-85.88-28.89-137.81S104.48,96.74,123.11,59.8C142.56,21.24,169,0,197.6,0s55.05,21.24,74.5,59.8C290.73,96.74,301,145.67,301,197.6s-10.27,100.87-28.9,137.81C252.65,374,226.19,395.21,197.6,395.21ZM197.6,15c-22.6,0-44.33,18.31-61.1,51.56-17.59,34.88-27.28,81.42-27.28,131s9.69,96.17,27.28,131c16.77,33.25,38.47,51.56,61.1,51.56s44.34-18.31,61.11-51.56C276.3,293.77,286,247.23,286,197.6s-9.69-96.16-27.28-131C241.94,33.31,220.24,15,197.6,15Z"/><path class="cls-1" d="M338.63,332.58a7.49,7.49,0,0,1-3.64-.95C300.07,312.16,250,301,197.6,301S95.14,312.16,60.22,331.63a7.5,7.5,0,0,1-7.58-12.95l.28-.15C90,297.85,142.74,286,197.6,286s107.61,11.86,144.69,32.54a7.5,7.5,0,0,1-3.66,14Z"/><path class="cls-1" d="M197.6,109.22c-54.87,0-107.6-11.86-144.68-32.54a7.5,7.5,0,0,1,7.3-13.1c34.92,19.47,85,30.64,137.38,30.64S300.07,83.05,335,63.58a7.5,7.5,0,0,1,7.31,13.1C305.21,97.36,252.47,109.22,197.6,109.22Z"/><path class="cls-1" d="M197.6,395.21c-5.52,0-10-3.36-10-7.5V7.5c0-4.14,4.48-7.5,10-7.5s10,3.36,10,7.5V387.71C207.6,391.85,203.12,395.21,197.6,395.21Z"/><path class="cls-1" d="M387.71,205.1H7.5a7.5,7.5,0,0,1,0-15H387.71a7.5,7.5,0,0,1,0,15Z"/></svg>