<svg xmlns="http://www.w3.org/2000/svg" width="43.5" height="13.124" viewBox="0 0 43.5 13.124">
  <defs>
    <style>
      .cls-1 {
        fill: #1147b4;
        fill-rule: evenodd;
      }
    </style>
  </defs>
  <path id="lang-text-zh.svg" class="cls-1" d="M1288.14,181.461c1.13,0,1.66-.492,1.58-1.477v-1.312h1.59c0.73-.036,1.27-0.055,1.64-0.055q0.435,0.329.87,0.6l0.82-.766q-0.27-.164-0.87-0.547-1.425-.928-2.19-1.367l-0.87.6,0.93,0.6c-0.48,0-1.24.019-2.3,0.055q-1.92.056-2.79,0.109,3.72-1.094,6.51-2.133l-0.88-.82-0.93.383c-0.54.219-.96,0.383-1.25,0.492l-3.61.055c0.43-.11,1.18-0.364,2.24-0.766a4.6,4.6,0,0,0,.44-0.164l-0.17-.109h0.44v-0.766h-0.66l0.06-.82h1.15v-0.93l0.05,0.055a3.539,3.539,0,0,0,.55-0.656,4.614,4.614,0,0,0,.98,1.531,9.124,9.124,0,0,1-2.13.875c0.11,0.183.27,0.437,0.49,0.765a0.585,0.585,0,0,0,.11.219,8.146,8.146,0,0,0,2.41-1.094,9.985,9.985,0,0,0,2.51,1.149q0.39-.765.6-1.094a7.737,7.737,0,0,1-2.18-.82,5.58,5.58,0,0,0,1.31-2.516h0.77v-1.094h-3.5a0.609,0.609,0,0,0,.1-0.218,5.168,5.168,0,0,0,.33-0.766l-1.25-.164a9.874,9.874,0,0,1-1.81,2.9l0.6,0.93h-0.98l0.11-1.586h-4.92c0.18-.219.34-0.437,0.49-0.656h4.92v-0.82h-4.32l0.38-.657-1.26-.164a6.8,6.8,0,0,1-1.96,2.3,9.762,9.762,0,0,1,.82.82,1.262,1.262,0,0,0,.43-0.382,1.038,1.038,0,0,0,.11-0.11l-0.27,1.258h-1.15v0.93h0.98l-0.32,1.586h4.15c-0.25.109-.62,0.255-1.09,0.437a5.5,5.5,0,0,0-.77.274,7.952,7.952,0,0,1-1.42.328l0.33,0.984a7.111,7.111,0,0,1,1.15-.109c0.8-.073,1.64-0.11,2.51-0.11-0.29.074-.71,0.2-1.25,0.383a14.387,14.387,0,0,1-1.75.547,8.428,8.428,0,0,1-1.64.383l0.32,1.039a9.934,9.934,0,0,1,.99-0.109c0.33-.036.56-0.055,0.71-0.055,0.51,0,1.48-.036,2.9-0.11h0.38v0.985c0.04,0.437-.24.656-0.82,0.656-0.37,0-.82-0.019-1.37-0.055l0.28,1.2c0.76,0,1.31-.019,1.64-0.055h0Zm-1.04-1.477-0.66-.875c-1.28.4-2.66,0.766-4.15,1.094l0.49,1.039q1.635-.438,4.32-1.258h0Zm8.26,0.328c-0.48-.146-1.19-0.364-2.14-0.656-0.91-.328-1.57-0.547-1.97-0.656l-0.6.93c1.64,0.473,3.01.929,4.1,1.367Zm-1.97-9.57a1.2,1.2,0,1,1-2.08,0h2.08Zm-9.25,3.336,0.22-.93h0.93l-0.16.055,0.76,0.875h-1.75Zm2.63-.383-0.49-.547h1.36l-0.05.93h-1.64Zm0.22-1.695-0.55-.547h1.37l-0.06.984h-1.53Zm-2.46.437,0.16-.984h0.82l-0.16.055,0.82,0.929h-1.64Zm19.6,0a12.758,12.758,0,0,1-3.83,5.524,2.786,2.786,0,0,0,.22.328q0.435,0.821.6,1.2a16.167,16.167,0,0,0,3.61-5.742v4.211h-2.02v1.258h2.02v2.351h1.43v-2.351h2.02v-1.258h-2.02V173.7a14.3,14.3,0,0,0,3.71,5.578,7.57,7.57,0,0,1,.39-0.765,3.12,3.12,0,0,0,.32-0.711,13.126,13.126,0,0,1-3.82-5.36h3.28v-1.312h-3.88v-2.57h-1.43v2.57h-3.44v1.312h2.84Zm-3.88,9.133v-9.515a26.5,26.5,0,0,0,1.2-3.118l-1.47-.382a21.907,21.907,0,0,1-2.74,6.07,3.477,3.477,0,0,1,.11.547,9.282,9.282,0,0,1,.27,1.367q0.66-.93,1.26-1.8v6.836h1.37Zm18.35-3.828v1.477a0.781,0.781,0,0,1-.99.875q-0.87,0-1.8-.055c0.03,0.145.09,0.4,0.16,0.766a6,6,0,0,0,.11.656h2.19a1.6,1.6,0,0,0,1.86-1.805v-1.914h5.57v-1.367h-5.57V176.1l3.17-1.805V172.93h-8.48v1.312h6.24l-2.46,1.367v0.766h-6.13v1.367h6.13Zm-4.16-4.539v-1.641h9.3V173.2h1.47V170.2h-4.92q-0.105-.273-0.27-0.765c-0.19-.474-0.31-0.8-0.39-0.985l-1.69.219q0.375,0.984.6,1.531h-5.58V173.2h1.48Z" transform="translate(-1282.22 -168.438)"/>
</svg>
