<svg xmlns="http://www.w3.org/2000/svg" width="62.031" height="18.843" viewBox="0 0 62.031 18.843">
  <defs>
    <style>
      .cls-1 {
        fill: #fff;
        fill-rule: evenodd;
      }
    </style>
  </defs>
  <path id="lang-text-zh_sp.svg" class="cls-1" d="M352.27,842.18h-1.8v0.7h1.64l-0.547,2.344h6.875v0.156a34.019,34.019,0,0,1-3.75,1.328,8.71,8.71,0,0,1-1.718.469l0.39,0.937a1.649,1.649,0,0,1,.625-0.078,4.856,4.856,0,0,1,.7-0.078q0.78,0,2.5-.078,1.641,0,2.422-.078-2.891,1.1-5.39,1.8-1.173.312-2.266,0.546l0.391,0.938a18.407,18.407,0,0,1,2.109-.078q1.641-.078,5.078-0.235v2.188q0.076,1.248-1.406,1.172H356.1l0.234,0.937h2.109q2.265,0,2.11-2.031v-2.266q2.5-.077,4.844-0.078a13.909,13.909,0,0,1,1.484.86l0.625-.782c-0.261-.156-0.652-0.363-1.172-0.625q-2.109-1.248-3.516-1.953l-0.625.7a13.847,13.847,0,0,1,1.25.625,7.188,7.188,0,0,1,.7.391q-1.875.078-5.86,0.156-2.5.157-3.515,0.157,6.563-2.031,10.625-3.594l-0.7-.7q-0.391.158-1.25,0.468-1.095.47-1.718,0.7-1.1,0-3.438.078h-2.734q2.969-.937,4.453-1.485l-0.547-.468h1.094v-0.7h-1.094l0.156-1.64h1.8v-0.7h-1.8l0.235-2.344h-7.032Zm10-2.032a8.265,8.265,0,0,0,1.875,3.2,15.39,15.39,0,0,1-3.36,1.64,2.653,2.653,0,0,1,.391.625,0.226,0.226,0,0,1,.156.156,15.639,15.639,0,0,0,3.594-1.875,12.623,12.623,0,0,0,3.672,1.8,0.222,0.222,0,0,1,.156-0.156,6.751,6.751,0,0,1,.391-0.7,14.7,14.7,0,0,1-3.594-1.563,8.558,8.558,0,0,0,2.187-3.906h1.407v-0.859h-5.7a15.354,15.354,0,0,0,.938-1.641l-0.859-.312a11.953,11.953,0,0,1-3.047,4.218c0.051,0.053.156,0.183,0.312,0.391a0.782,0.782,0,0,1,.313.313,12.654,12.654,0,0,0,1.172-1.329h0Zm-8.907-1.406h7.266v-0.781H353.91a4.139,4.139,0,0,0,.781-1.094l-0.937-.312a12.126,12.126,0,0,1-3.125,3.515l0.391,0.391a2.1,2.1,0,0,0,.234.312,10.565,10.565,0,0,0,2.109-2.031h0Zm-0.312,4.141h5.625l-0.156,1.64h-5.86Zm5.859-2.344-0.156,1.641h-5.547l0.391-1.641h5.312Zm7.813-1.172a7.6,7.6,0,0,1-1.875,3.36,8.225,8.225,0,0,1-1.875-3.36h3.75Zm-3.047,13.359q3.516,1.25,4.922,1.8l0.547-.859q-1.017-.313-3.125-1.016-2.032-.78-2.735-1.015l-0.547.781a9.747,9.747,0,0,1,.938.312h0Zm-12.891.782a1.339,1.339,0,0,1-.312.078l0.468,0.859q3.282-1.016,6.016-1.953l-0.547-.781a57.274,57.274,0,0,1-5.625,1.8h0Zm4.844-12.891-0.547.547,1.563,0.938,0.546-.547Zm-0.313,2.344-0.546.547,1.562,0.937,0.547-.547Zm27.694-1.25v8.594h-3.2v1.015h3.2v3.985H384.1V851.32h3.281v-1.015H384.1v-8.594h0.078a20.806,20.806,0,0,0,6.016,10,4.485,4.485,0,0,1,.781-0.86,19.713,19.713,0,0,1-5.938-9.14h5.079v-0.938H384.1v-4.062H383.01v4.062h-5.625v0.938h4.766a20.32,20.32,0,0,1-6.094,9.531c0.051,0.053.156,0.156,0.313,0.313a1.8,1.8,0,0,1,.546.468,20.726,20.726,0,0,0,6.094-10.312h0Zm-8.515,2.031v11.563h1.015V841.711a30.279,30.279,0,0,0,1.875-4.766l-1.015-.234a33.116,33.116,0,0,1-4.532,9.219l0.078,0.156q0.312,0.626.469,0.937a23.9,23.9,0,0,0,2.11-3.281h0Zm28.24,4.453h-9.062v1.016h9.062v3.359q0.077,1.483-1.562,1.406h-2.5q0.077,0.312.156,0.782a0.7,0.7,0,0,1,.078.312h2.578q2.5-.078,2.344-2.344v-3.515H412.5V848.2h-8.672v-0.937l4.766-2.969V843.2H397.188v0.938h10l-4.453,2.656V848.2Zm-8.437-5.078h1.093v-2.578H410.7v2.578H411.8V839.6H394.3v3.515Zm8.984-3.594,1.016-.39q-0.236-.546-0.86-1.953c-0.156-.364-0.261-0.6-0.312-0.7l-1.016.39a17.146,17.146,0,0,1,1.172,2.656h0Z" transform="translate(-350.469 -836.469)"/>
</svg>
