<svg xmlns="http://www.w3.org/2000/svg" width="69.719" height="20.5" viewBox="0 0 69.719 20.5">
  <defs>
    <style>
      .cls-1 {
        fill: #fff;
        fill-rule: evenodd;
      }
    </style>
  </defs>
  <path id="lang-text-en_sp.svg" class="cls-1" d="M234.369,838.424H224.158v16.219h10.365v-1.607h-8.45v-6.2h6.272v-1.607h-6.272v-5.193h8.3v-1.607Zm4.816,4.974h-1.717v11.245h1.783v-7.7a4.469,4.469,0,0,1,3.279-2.223c1.21,0,1.892.682,1.892,2.289v7.636h1.827v-8.274a2.948,2.948,0,0,0-3.125-3.213,5.2,5.2,0,0,0-3.939,2.288V843.4Zm20.241-1.409a3.378,3.378,0,0,0-3.212,1.717,4.561,4.561,0,0,0-2.223-.55c-2.333,0-4.159,1.5-4.159,3.653a3.381,3.381,0,0,0,1.5,2.86,2.841,2.841,0,0,0-1.628,2.245c0,0.836.528,1.409,1.672,1.673-1.408.462-2.222,1.32-2.222,2.332,0,1.629,1.782,2.707,4.951,2.707,3.521,0,5.347-1.408,5.347-3.191,0-1.474-.836-2.443-3.807-2.729l-2.266-.22c-1.805-.2-2.091-0.484-2.091-1.078a1.69,1.69,0,0,1,1.012-1.254,4.395,4.395,0,0,0,1.7.33c2.443,0,4.159-1.431,4.159-3.675a3.234,3.234,0,0,0-1.1-2.465,2.731,2.731,0,0,1,2.244-.814Zm-5.435,2.377a2.465,2.465,0,1,1-2.487,2.465A2.374,2.374,0,0,1,253.991,844.366Zm1.3,9.771c2.113,0.22,2.553.726,2.553,1.518,0,0.99-1.254,1.805-3.675,1.805-2.047,0-3.455-.594-3.455-1.783,0-.792.66-1.43,1.981-1.8Zm8.755-16h-1.782v16.5h1.782v-16.5Zm5.852,5.26h-1.8v11.245h1.8V843.4Zm0.2-4.336h-2.2v2.179h2.2v-2.179Zm11.442,6.778a4,4,0,0,0-4.138-2.706c-2.662,0-3.983,1.342-3.983,3.058,0,1.739.771,2.619,3.3,3.257l0.9,0.2c2.046,0.529,2.464.9,2.464,2.091,0,0.99-.7,1.849-2.552,1.849a2.723,2.723,0,0,1-2.773-2.025l-1.739.616c0.682,1.849,2.267,2.729,4.468,2.729,2.926,0,4.335-1.452,4.335-3.345,0-1.849-.947-2.707-3.521-3.323l-0.9-.22c-1.826-.44-2.31-0.88-2.31-1.959,0-.946.836-1.606,2.288-1.606a2.414,2.414,0,0,1,2.443,1.937Zm5.344-7.7H285.1v16.5h1.783v-7.7a4.533,4.533,0,0,1,3.279-2.223c1.21,0,1.892.682,1.892,2.289v7.636h1.827v-8.274a2.976,2.976,0,0,0-3.125-3.235,5.121,5.121,0,0,0-3.873,2.266v-7.262Z" transform="translate(-224.156 -838.125)"/>
</svg>
