<svg xmlns="http://www.w3.org/2000/svg" width="43.6" height="13.187" viewBox="0 0 43.6 13.187">
  <defs>
    <style>
      .cls-1 {
        fill: #1147b4;
        fill-rule: evenodd;
      }
    </style>
  </defs>
  <path id="lang-text-cn.svg" class="cls-1" d="M1290.69,225.039V219.68h-5.63v5.359h5.63Zm1.2,1.477a1.571,1.571,0,0,0,1.75-1.75v-7.219h-7.82V218.7h6.4v5.8q0.06,0.766-.87.711-0.825,0-1.53-.055a7.059,7.059,0,0,1,.32,1.368h1.75Zm-8.14-10.829h0.93l-0.28.11,0.99,1.422,1.25-.328q-0.435-.546-0.93-1.2h2.14v-1.148h-3.39a8.418,8.418,0,0,0,.49-0.93l-1.48-.109a8.349,8.349,0,0,1-2.35,3.062c0.07,0.074.2,0.219,0.38,0.438,0.26,0.292.42,0.492,0.5,0.6a9.826,9.826,0,0,0,1.75-1.915h0Zm6.01,0h0.93l-0.33.11,1.1,1.422,1.25-.328-0.98-1.2h2.52v-1.148h-3.89a3.036,3.036,0,0,0,.28-0.547,3.954,3.954,0,0,1,.16-0.383l-1.48-.109a9.622,9.622,0,0,1-1.91,3.117q0.225,0.111.6,0.328c0.29,0.183.49,0.31,0.6,0.383a14.867,14.867,0,0,0,1.15-1.641h0Zm-6.23,10.938v-7.383h-1.42v7.383h1.42Zm5.85-3.719V224h-3.01v-1.094h3.01Zm0-2.133v1.094h-3.01v-1.094h3.01Zm-4.1-2.351a11.275,11.275,0,0,0-1.59-1.422l-0.98.82a16.634,16.634,0,0,1,1.53,1.532Zm17.85-.985a12.758,12.758,0,0,1-3.83,5.524,2.786,2.786,0,0,0,.22.328q0.435,0.821.6,1.2a16.167,16.167,0,0,0,3.61-5.742v4.211h-2.02v1.258h2.02v2.351h1.43v-2.351h2.02v-1.258h-2.02V218.7a14.3,14.3,0,0,0,3.71,5.578,7.57,7.57,0,0,1,.39-0.765,3.12,3.12,0,0,0,.32-0.711,13.126,13.126,0,0,1-3.82-5.36h3.28v-1.312h-3.88v-2.57h-1.43v2.57h-3.44v1.312h2.84Zm-3.88,9.133v-9.515a26.5,26.5,0,0,0,1.2-3.118l-1.47-.382a21.907,21.907,0,0,1-2.74,6.07,3.477,3.477,0,0,1,.11.547,9.282,9.282,0,0,1,.27,1.367q0.66-.93,1.26-1.8v6.836h1.37Zm18.35-3.828v1.477a0.781,0.781,0,0,1-.99.875q-0.87,0-1.8-.055c0.03,0.145.09,0.4,0.16,0.766a6,6,0,0,0,.11.656h2.19a1.6,1.6,0,0,0,1.86-1.805v-1.914h5.57v-1.367h-5.57V221.1l3.17-1.805V217.93h-8.48v1.312h6.24l-2.46,1.367v0.766h-6.13v1.367h6.13Zm-4.16-4.539v-1.641h9.3V218.2h1.47V215.2h-4.92q-0.105-.273-0.27-0.765c-0.19-.474-0.31-0.8-0.39-0.985l-1.69.219q0.375,0.984.6,1.531h-5.58V218.2h1.48Z" transform="translate(-1281.12 -213.438)"/>
</svg>
