<svg id="name-fb_sp.svg" xmlns="http://www.w3.org/2000/svg" width="143.656" height="35.3" viewBox="0 0 143.656 35.3">
  <defs>
    <style>
      .cls-1 {
        fill-rule: evenodd;
      }
    </style>
  </defs>
  <path id="KOSE_COSMEPORT" data-name="KOSE COSMEPORT" class="cls-1" d="M111.748,13742.8h1.746v-2.8l1.548-1.6,3.394,4.4h2.13l-4.331-5.6,4.147-4.3h-2.159l-4.729,5v-5h-1.746v9.9Zm14.283,0.2a5.059,5.059,0,0,0,5.212-5.1v-0.1a5.035,5.035,0,0,0-5.184-5.1,5.141,5.141,0,0,0-5.212,5.2h0A5.035,5.035,0,0,0,126.031,13743Zm0.028-1.6a3.394,3.394,0,0,1-3.38-3.5v-0.1a3.371,3.371,0,0,1,3.352-3.5,3.421,3.421,0,0,1,3.38,3.6h0A3.371,3.371,0,0,1,126.059,13741.4Zm10.7,1.6c2.087,0,3.55-1.1,3.55-3h0c0-1.7-1.079-2.4-3.181-2.9-1.917-.5-2.372-0.8-2.372-1.6h0c0-.7.6-1.2,1.619-1.2a4.286,4.286,0,0,1,2.7,1l0.937-1.3a5.6,5.6,0,0,0-3.607-1.3c-1.974,0-3.394,1.2-3.394,2.9v0.1c0,1.8,1.193,2.4,3.309,2.9,1.846,0.5,2.243.8,2.243,1.6h0c0,0.7-.681,1.2-1.761,1.2a4.287,4.287,0,0,1-3.138-1.3l-1.051,1.3A5.97,5.97,0,0,0,136.763,13743Zm5.606-.2h7.442v-1.5h-5.695v-2.7H149.1v-1.6h-4.985v-2.6h5.624v-1.5h-7.371v9.9Zm18.386,0.2a5.092,5.092,0,0,0,4.033-1.8l-1.122-1.1a3.886,3.886,0,0,1-2.854,1.3,3.358,3.358,0,0,1-3.281-3.5v-0.1a3.367,3.367,0,0,1,3.281-3.5,3.781,3.781,0,0,1,2.783,1.3l1.122-1.3a4.9,4.9,0,0,0-3.891-1.6,5.036,5.036,0,0,0-5.127,5.2h0A5.022,5.022,0,0,0,160.755,13743Zm10.321,0a5.058,5.058,0,0,0,5.211-5.1v-0.1a5.034,5.034,0,0,0-5.183-5.1,5.141,5.141,0,0,0-5.212,5.2h0A5.035,5.035,0,0,0,171.076,13743Zm0.028-1.6a3.394,3.394,0,0,1-3.38-3.5v-0.1a3.371,3.371,0,0,1,3.352-3.5,3.421,3.421,0,0,1,3.38,3.6h0A3.371,3.371,0,0,1,171.1,13741.4Zm10.7,1.6c2.087,0,3.55-1.1,3.55-3h0c0-1.7-1.079-2.4-3.181-2.9-1.917-.5-2.372-0.8-2.372-1.6h0c0-.7.6-1.2,1.619-1.2a4.281,4.281,0,0,1,2.7,1l0.938-1.3a5.6,5.6,0,0,0-3.607-1.3c-1.974,0-3.394,1.2-3.394,2.9v0.1c0,1.8,1.193,2.4,3.308,2.9,1.847,0.5,2.244.8,2.244,1.6h0c0,0.7-.681,1.2-1.761,1.2a4.287,4.287,0,0,1-3.138-1.3l-1.051,1.3A5.97,5.97,0,0,0,181.808,13743Zm5.606-.2h1.718v-7.1l3.11,4.7H192.3l3.139-4.7v7.1h1.746v-9.9h-1.86l-3.025,4.7-3.025-4.7h-1.86v9.9Zm12.322,0h7.442v-1.5h-5.695v-2.7h4.985v-1.6h-4.985v-2.6h5.624v-1.5h-7.371v9.9Zm9.512,0H211v-3.2h1.974c2.187,0,3.976-1.1,3.976-3.4h0c0-2-1.449-3.3-3.778-3.3h-3.919v9.9Zm1.747-4.7v-3.6h2.03c1.307,0,2.145.6,2.145,1.8h0a1.91,1.91,0,0,1-2.145,1.8H211Zm12.479,4.9a5.058,5.058,0,0,0,5.212-5.1v-0.1a5.034,5.034,0,0,0-5.183-5.1,5.14,5.14,0,0,0-5.212,5.2h0A5.034,5.034,0,0,0,223.474,13743Zm0.029-1.6a3.394,3.394,0,0,1-3.38-3.5v-0.1a3.37,3.37,0,0,1,3.351-3.5,3.421,3.421,0,0,1,3.38,3.6h0A3.37,3.37,0,0,1,223.5,13741.4Zm7.3,1.4h1.747v-3.4h2.187l2.442,3.4h2.074l-2.684-3.7a3,3,0,0,0,2.357-3v-0.1a2.941,2.941,0,0,0-.824-2.1,3.706,3.706,0,0,0-2.868-1H230.8v9.9Zm1.747-5v-3.3h2.542c1.292,0,2.059.6,2.059,1.6v0.1c0,1-.795,1.6-2.045,1.6h-2.556Zm10.917,5h1.761v-8.3h3.152v-1.6h-8.066v1.6h3.153v8.3Z" transform="translate(-109.438 -13732.7)"/>
  <path id="Official_Facebook" data-name="Official Facebook" class="cls-1" d="M115.536,13768a6.14,6.14,0,0,0,6.14-6.3h0a6.124,6.124,0,1,0-12.247,0h0A6.054,6.054,0,0,0,115.536,13768Zm0.033-2a4.055,4.055,0,0,1-3.982-4.3h0a4.029,4.029,0,0,1,3.949-4.3,4.115,4.115,0,0,1,3.982,4.3h0A4.029,4.029,0,0,1,115.569,13766Zm14.765,1.8h2.025v-7.4h2.309v-1.7h-2.343v-0.5a1.166,1.166,0,0,1,1.172-1.4,4.652,4.652,0,0,1,1.187.2v-1.7a3.834,3.834,0,0,0-1.639-.3,2.606,2.606,0,0,0-1.991.8,2.894,2.894,0,0,0-.72,2.2v0.7h-1.121v1.7h1.121v7.4Zm-6.291,0h2.025v-7.4h2.309v-1.7h-2.343v-0.5a1.166,1.166,0,0,1,1.171-1.4,4.659,4.659,0,0,1,1.188.2v-1.7a3.837,3.837,0,0,0-1.639-.3,2.606,2.606,0,0,0-1.991.8,2.894,2.894,0,0,0-.72,2.2v0.7h-1.121v1.7h1.121v7.4Zm12.825-10.6h2.175v-2h-2.175v2Zm0.084,10.6h2.024v-9.2h-2.024v9.2Zm9.416,0.2a4.414,4.414,0,0,0,3.614-1.7l-1.221-1.3a2.948,2.948,0,0,1-2.292,1.1,2.721,2.721,0,0,1-2.644-2.9h0a2.709,2.709,0,0,1,2.56-2.9,2.817,2.817,0,0,1,2.275,1.1l1.272-1.4a4.521,4.521,0,0,0-3.53-1.6,4.66,4.66,0,0,0-4.6,4.8v0.1A4.629,4.629,0,0,0,146.368,13768Zm5.165-10.8h2.175v-2h-2.175v2Zm0.083,10.6h2.025v-9.2h-2.025v9.2Zm6.874,0.2a3.435,3.435,0,0,0,2.878-1.4v1.2h1.974v-5.4a3.447,3.447,0,0,0-3.881-3.9,6.73,6.73,0,0,0-3.33.8l0.535,1.6a6.78,6.78,0,0,1,2.527-.6,1.888,1.888,0,0,1,2.192,2v0.2a8.082,8.082,0,0,0-2.376-.3c-2.159,0-3.648.9-3.648,2.9h0A2.88,2.88,0,0,0,158.49,13768Zm0.569-1.6a1.5,1.5,0,0,1-1.723-1.4h0c0-.9.769-1.5,2.074-1.5a4.036,4.036,0,0,1,2.008.4v0.6A2.112,2.112,0,0,1,159.059,13766.4Zm6.486,1.4h2.024v-12.7h-2.024v12.7Zm8.912,0h2.058v-5h5.906v-1.9h-5.906v-3.3h6.659v-1.9h-8.717v12.1Zm12.526,0.2a3.433,3.433,0,0,0,2.877-1.4v1.2h1.975v-5.4a3.448,3.448,0,0,0-3.882-3.9,6.736,6.736,0,0,0-3.33.8l0.536,1.6a6.775,6.775,0,0,1,2.526-.6,1.887,1.887,0,0,1,2.192,2v0.2a8.082,8.082,0,0,0-2.376-.3c-2.158,0-3.647.9-3.647,2.9h0A2.88,2.88,0,0,0,186.983,13768Zm0.568-1.6a1.5,1.5,0,0,1-1.723-1.4h0c0-.9.77-1.5,2.075-1.5a4.036,4.036,0,0,1,2.008.4v0.6A2.112,2.112,0,0,1,187.551,13766.4ZM198,13768a4.415,4.415,0,0,0,3.614-1.7l-1.222-1.3a2.945,2.945,0,0,1-2.292,1.1,2.721,2.721,0,0,1-2.644-2.9h0a2.709,2.709,0,0,1,2.56-2.9,2.819,2.819,0,0,1,2.276,1.1l1.272-1.4a4.522,4.522,0,0,0-3.531-1.6,4.659,4.659,0,0,0-4.6,4.8v0.1A4.629,4.629,0,0,0,198,13768Zm8.929,0a4.511,4.511,0,0,0,3.614-1.7l-1.188-1.1a3.205,3.205,0,0,1-2.393,1.1,2.559,2.559,0,0,1-2.543-2.4h6.492c0.017-.2.033-0.4,0.033-0.5,0-2.7-1.422-5-4.233-5a4.516,4.516,0,0,0-4.316,4.8h0A4.491,4.491,0,0,0,206.932,13768Zm-2.527-5.4c0.184-1.5,1.054-2.4,2.293-2.4,1.338,0,2.108,1,2.242,2.4h-4.535Zm13.279,5.4c2.091,0,4.1-1.8,4.1-4.8h0c0-3.1-2.024-4.8-4.1-4.8a3.486,3.486,0,0,0-3.012,1.8v-5.1h-2.024v12.7h2.024v-1.5A3.528,3.528,0,0,0,217.684,13768Zm-0.485-1.9a2.664,2.664,0,0,1-2.577-2.9h0a2.664,2.664,0,0,1,2.577-2.9,2.628,2.628,0,0,1,2.526,2.9h0A2.619,2.619,0,0,1,217.2,13766.1Zm10.534,1.9a4.729,4.729,0,0,0,4.735-4.8h0a4.711,4.711,0,1,0-9.42,0v0.1A4.685,4.685,0,0,0,227.733,13768Zm0.033-1.9a2.75,2.75,0,0,1-2.694-2.9h0a2.694,2.694,0,0,1,2.661-2.9,2.753,2.753,0,0,1,2.71,2.9v0.1A2.668,2.668,0,0,1,227.766,13766.1Zm10.618,1.9a4.729,4.729,0,0,0,4.735-4.8h0a4.711,4.711,0,1,0-9.42,0v0.1A4.685,4.685,0,0,0,238.384,13768Zm0.034-1.9a2.75,2.75,0,0,1-2.694-2.9h0a2.693,2.693,0,0,1,2.66-2.9,2.753,2.753,0,0,1,2.711,2.9v0.1A2.668,2.668,0,0,1,238.418,13766.1Zm6.418,1.7h2.024v-2.6l1.255-1.4,2.61,4H253.1l-3.63-5.4,3.513-3.8h-2.459l-3.665,4.1v-7.6h-2.024v12.7Z" transform="translate(-109.438 -13732.7)"/>
</svg>
