<svg xmlns="http://www.w3.org/2000/svg" width="124" height="12" viewBox="0 0 124 12">
  <defs>
    <style>
      .cls-1 {
        fill: #1147b4;
        fill-rule: evenodd;
      }
    </style>
  </defs>
  <path id="about_suncut" data-name="about suncut" class="cls-1" d="M246.517,45.039h1.76l-5.055-11.293-5.31,11.293h1.759l1.168-2.575H245.4Zm-5.006-4.111,1.647-3.615,1.584,3.615h-3.231ZM250.9,34.37V45.039h2.671A4.134,4.134,0,0,0,256.565,44a2.6,2.6,0,0,0,.7-1.919,2.777,2.777,0,0,0-.7-2,2.926,2.926,0,0,0-1.375-.768,1.768,1.768,0,0,0,.8-0.736,2.326,2.326,0,0,0,.32-1.264,2.737,2.737,0,0,0-.848-2.111,3.938,3.938,0,0,0-2.943-.832H250.9Zm1.632,1.535h0.559a1.75,1.75,0,0,1,1.3.4,1.318,1.318,0,0,1,.384,1.024,1.618,1.618,0,0,1-.416,1.216,1.875,1.875,0,0,1-1.327.416h-0.5V35.906Zm0,4.4h1.023a2.343,2.343,0,0,1,1.68.48,1.6,1.6,0,0,1,.432,1.12,1.53,1.53,0,0,1-.528,1.184,2.814,2.814,0,0,1-1.616.416h-0.991V40.3Zm13.1-6.126a5.534,5.534,0,1,0,5.551,5.534A5.412,5.412,0,0,0,265.637,34.178Zm0,9.565a3.818,3.818,0,0,1-3.918-4.031,3.92,3.92,0,1,1,7.837,0A3.818,3.818,0,0,1,265.637,43.743Zm8.882-9.373v6.862A3.948,3.948,0,0,0,275.511,44a4.133,4.133,0,0,0,5.918,0,3.948,3.948,0,0,0,.992-2.767V34.37h-1.632V40.8a3.727,3.727,0,0,1-.336,1.84,2.334,2.334,0,0,1-3.967,0,3.727,3.727,0,0,1-.336-1.84V34.37h-1.631Zm17.15,1.535V34.37h-6.526v1.535h2.447v9.133h1.632V35.906h2.447Zm13.648,0.064A3.634,3.634,0,0,0,304.5,34.9a3.148,3.148,0,0,0-2.144-.72,2.881,2.881,0,0,0-3.119,2.815,3.009,3.009,0,0,0,2.176,2.7l1.023,0.432a1.992,1.992,0,0,1,1.536,1.824,1.714,1.714,0,0,1-1.759,1.791,1.684,1.684,0,0,1-1.392-.64,2.3,2.3,0,0,1-.448-1.36l-1.615.352a3.452,3.452,0,0,0,.895,2.079,3.122,3.122,0,0,0,2.512,1.072,3.288,3.288,0,0,0,3.439-3.423c0-1.216-.544-2.335-2.512-3.135l-1.071-.432a1.415,1.415,0,0,1-1.152-1.3,1.322,1.322,0,0,1,1.5-1.28,1.652,1.652,0,0,1,1.632,1.056Zm3.617-1.6v6.862A3.948,3.948,0,0,0,309.926,44a4.133,4.133,0,0,0,5.918,0,3.948,3.948,0,0,0,.992-2.767V34.37H315.2V40.8a3.727,3.727,0,0,1-.336,1.84,2.333,2.333,0,0,1-3.966,0,3.727,3.727,0,0,1-.336-1.84V34.37h-1.632ZM322.31,45.039V37.585l7.741,8.11V34.37H328.42v7.39l-7.742-8.11V45.039h1.632ZM341.8,34.946a5.073,5.073,0,0,0-2.848-.768,5.281,5.281,0,0,0-3.854,1.392,5.582,5.582,0,0,0-1.712,4.175,5.23,5.23,0,0,0,1.712,4.031,5.342,5.342,0,0,0,3.774,1.471,5.825,5.825,0,0,0,2.928-.8V42.512a4.235,4.235,0,0,1-2.88,1.232,3.851,3.851,0,0,1-3.9-4,3.81,3.81,0,0,1,3.886-4.063,4.161,4.161,0,0,1,2.9,1.184V34.946Zm3.3-.576v6.862A3.951,3.951,0,0,0,346.085,44,4.134,4.134,0,0,0,352,44,3.948,3.948,0,0,0,353,41.232V34.37h-1.632V40.8a3.727,3.727,0,0,1-.336,1.84,2.334,2.334,0,0,1-3.967,0,3.727,3.727,0,0,1-.336-1.84V34.37h-1.631Zm17.15,1.535V34.37h-6.526v1.535h2.447v9.133H359.8V35.906h2.447Z" transform="translate(-237.906 -33.656)"/>
</svg>
