<?xml version="1.0" encoding="utf-8"?>
<!-- Generator: Adobe Illustrator 25.2.1, SVG Export Plug-In . SVG Version: 6.00 Build 0)  -->
<svg version="1.1" id="Layer_1" xmlns="http://www.w3.org/2000/svg" xmlns:xlink="http://www.w3.org/1999/xlink" x="0px" y="0px"
	 viewBox="0 0 76 13" style="enable-background:new 0 0 76 13;" xml:space="preserve" width="76" height="13">
<style type="text/css">
	.st0{fill:#1147B4;}
</style>
<g>
	<path class="st0" d="M4.5,1.3C4.2,2.5,3.7,4,3.3,5.1c0.9,1.1,1,2,1,2.8c0,0.9-0.2,1.4-0.6,1.8C3.5,9.8,3.2,9.9,2.9,9.9
		c-0.3,0-0.6,0-0.9,0c0-0.4-0.1-1-0.4-1.4c0.2,0,0.4,0,0.6,0c0.1,0,0.3,0,0.4-0.1C2.8,8.3,2.8,8,2.8,7.6c0-0.6-0.2-1.5-1-2.4
		c0.3-0.9,0.6-2.1,0.8-3.1H1.5v10.6H0v-12h3.2l0.2-0.1L4.5,1.3z M7.5,3.8c0,0.6,0,1.1-0.1,1.6h3.7c0,0,0,0.5,0,0.7
		c-0.1,3.9-0.3,5.5-0.7,6c-0.3,0.4-0.6,0.5-1.1,0.6c-0.4,0.1-1.1,0.1-1.7,0c0-0.5-0.2-1.1-0.5-1.6c0.6,0.1,1.1,0.1,1.4,0.1
		c0.2,0,0.4-0.1,0.5-0.2c0.2-0.3,0.4-1.4,0.5-4.1H7.3C7,9.4,6.2,11.4,3.8,12.8c-0.2-0.4-0.7-0.9-1-1.2C5.7,10,5.9,7.3,6,3.8H4.2V2.3
		h3.3C7.4,1.8,7.2,1.1,7,0.5l1.5-0.4C8.7,0.7,9,1.5,9.1,2L8,2.3h3.9v1.5H7.5z"/>
	<path class="st0" d="M17.2,10.3v1.1h-1.3V1.1h3.4v9.1H17.2z M17.2,2.5V5h0.9V2.5H17.2z M18.1,8.9V6.4h-0.9v2.5H18.1z M26.8,11.5
		c0.2,0,0.3-0.1,0.3-0.6c0.2,0.2,0.8,0.4,1.1,0.4c-0.1,1-0.5,1.3-1.3,1.3h-1.1c-1.2,0-1.4-0.4-1.4-1.5v-2h-1.8v0.5H24v0.9h-1.4v0.8
		l1.4-0.2c0,0.4,0,0.9,0.1,1.1c-2.1,0.4-2.6,0.5-2.8,0.6c0-0.4-0.2-1-0.4-1.3c0.2-0.1,0.4-0.2,0.4-0.6V9.1H21
		c-0.2,1.3-0.5,2.6-1.1,3.6c-0.3-0.2-0.9-0.6-1.2-0.7c1-1.5,1.1-3.6,1.1-5.1V5h3.3C23,4.9,23,4.7,22.9,4.5h-0.6V2.9h-1.4v1.6h-1.1
		V2.1h3.6v2L24,4V2.1h3.8v2.4h-1.1V2.9h-1.5v1.6h-0.7c0.1,0.2,0.1,0.3,0.2,0.5H28v1h-2.5v0.6h2.2v2.6h-2v0.5h1.9v0.9h-1.9v0.6
		c0,0.3,0,0.4,0.3,0.4H26.8z M23.5,1.7h-3.9v-1h3.9V1.7z M21.4,4.5c-0.1-0.3-0.2-0.8-0.4-1.1l0.8-0.2c0.2,0.3,0.4,0.8,0.4,1.1
		L21.4,4.5z M21.1,7.5c0,0.2,0,0.5,0,0.7H22V7.5H21.1z M21.2,6v0.6H22V6H21.2z M24.2,6h-0.9v0.6h0.9V6z M24.2,7.5h-0.9v0.7h0.9V7.5z
		 M28,1.7h-4.1v-1H28V1.7z M25.7,4.4c-0.1-0.3-0.2-0.8-0.4-1.1l0.8-0.3c0.2,0.4,0.4,0.8,0.4,1.1L25.7,4.4z M25.5,7.5v0.7h0.9V7.5
		H25.5z"/>
	<path class="st0" d="M35.3,3.8c-0.5,2-1.2,4.5-2.3,6c-0.4-0.3-1.1-0.6-1.6-0.8c1.1-1.4,1.8-3.7,2-5.5L35.3,3.8z M38.8,0.4v10.4
		c0,1-0.2,1.4-0.8,1.7c-0.6,0.3-1.6,0.3-2.9,0.3c-0.1-0.5-0.4-1.2-0.6-1.7c0.9,0,1.9,0,2.2,0c0.3,0,0.4-0.1,0.4-0.4V0.4H38.8z
		 M41.8,3.3c1.1,1.9,2.2,4.4,2.5,6L42.6,10c-0.3-1.6-1.3-4.2-2.4-6.1L41.8,3.3z"/>
	<path class="st0" d="M60,10.3h-5.2v1c0,0.7-0.2,1.1-0.7,1.3c-0.6,0.2-1.3,0.2-2.3,0.2c-0.1-0.4-0.3-1-0.5-1.3c0.6,0,1.4,0,1.6,0
		c0.2,0,0.3,0,0.3-0.2v-0.9h-5.5V9.1h5.5V8.7c0.5-0.2,1-0.5,1.5-0.8h-4.3V6.8h5.9l0.3-0.1l0.9,0.8C56.8,8,55.9,8.6,55,9.1H60V10.3z
		 M49.6,7.8h-1.5V5h1l-0.2-4c0.8-0.1,2-0.5,2.7-0.8l0.6,0.9c-0.5,0.2-1.2,0.4-1.8,0.5l0,0.4h1.7v1h-1.7l0,0.5h1.7v0.7
		c0.3-0.2,0.6-0.3,0.9-0.5c-0.3-0.2-0.5-0.3-0.8-0.4l0.7-0.6c0.3,0.1,0.6,0.3,0.8,0.5c0.2-0.2,0.4-0.4,0.5-0.6l1.1,0.3
		c-0.2,0.3-0.4,0.6-0.7,0.8c0.3,0.2,0.6,0.4,0.8,0.6L54.8,5c-0.2-0.2-0.5-0.4-0.8-0.7c-0.4,0.3-0.7,0.5-1.1,0.7h4.4l0.1-0.5h-1.6v-1
		h1.7l0-0.5h-1.6v-1h1.7l0-0.4h-1.8v-1h3.4C59.1,2,59,3.8,58.9,5h1v2.8h-1.6V6.2h-8.7V7.8z M50.6,5h2.2c-0.1-0.2-0.4-0.4-0.6-0.6
		v0.1h-1.6L50.6,5z M54.7,2.5C54.6,2.4,54.3,2.2,54,2c-0.4,0.3-0.7,0.5-1.1,0.7c-0.2-0.2-0.6-0.5-0.8-0.7c0.4-0.1,0.7-0.3,1-0.5
		c-0.3-0.1-0.5-0.3-0.7-0.4l0.7-0.6c0.3,0.1,0.5,0.3,0.8,0.4c0.2-0.2,0.4-0.4,0.5-0.5l1.1,0.3c-0.2,0.3-0.4,0.5-0.7,0.7
		c0.3,0.2,0.5,0.4,0.7,0.5L54.7,2.5z"/>
	<path class="st0" d="M76,2.2v3.2h-1.5V3.6h-9v1.8H64V2.2h2c-0.2-0.4-0.6-0.9-0.9-1.4l1.4-0.6c0.4,0.5,0.9,1.2,1.1,1.7l-0.5,0.2h1.9
		v-2h1.6v2h2.1L72.2,2c0.4-0.5,0.8-1.2,1.1-1.7L75,0.7c-0.4,0.5-0.8,1-1.2,1.4H76z M70.8,11.1H76v1.4H64.1v-1.4h5.1V10h-3.9V8.6h3.9
		V7.7h-2.9V4.3h7.6v3.5h-3v0.9h4.1V10h-4.1V11.1z M67.7,6.5h4.5v-1h-4.5V6.5z"/>
</g>
</svg>
