<svg xmlns="http://www.w3.org/2000/svg" width="58" height="22" viewBox="0 0 58 22">
  <defs>
    <style>
      .cls-1 {
        fill: #fff;
        fill-rule: evenodd;
      }
    </style>
  </defs>
  <path id="nav-top_sp.svg" class="cls-1" d="M120.22,109.772V106.7H107.168v3.071h4.894v18.267h3.263V109.772h4.895Zm15.52-3.455a11.069,11.069,0,1,0,11.1,11.069A10.825,10.825,0,0,0,135.74,106.317Zm0,19.131c-4.575,0-7.838-3.327-7.838-8.062s3.263-8.062,7.838-8.062,7.838,3.327,7.838,8.062S140.314,125.448,135.74,125.448ZM153.5,106.7v21.338h3.264v-8.67h1.471a7.7,7.7,0,0,0,5.215-1.663,5.978,5.978,0,0,0,2.079-4.671,6.176,6.176,0,0,0-2.655-5.182,8.338,8.338,0,0,0-4.671-1.152h-4.7Zm3.264,3.007h1.439c3.711,0,4.191,2.112,4.191,3.3,0,1.984-1.344,3.359-4.159,3.359h-1.471v-6.654Z" transform="translate(-107.156 -106.312)"/>
</svg>
