<?xml version="1.0" encoding="utf-8"?>
<!-- Generator: Adobe Illustrator 25.2.1, SVG Export Plug-In . SVG Version: 6.00 Build 0)  -->
<svg version="1.1" id="Layer_1" xmlns="http://www.w3.org/2000/svg" xmlns:xlink="http://www.w3.org/1999/xlink" x="0px" y="0px"
	 viewBox="0 0 139 24" style="enable-background:new 0 0 139 24;" xml:space="preserve" width="139" height="24">
<style type="text/css">
	.st0{fill:#FFFFFF;}
</style>
<g>
	<path class="st0" d="M8.3,2.5c-0.6,2.2-1.5,5-2.2,7c1.7,2,1.8,3.7,1.8,5.1c0,1.7-0.4,2.6-1.1,3.3c-0.4,0.2-0.9,0.4-1.5,0.4
		s-1.1,0-1.7,0c0-0.7-0.2-1.8-0.7-2.6c0.4,0,0.7,0,1.1,0c0.2,0,0.6,0,0.7-0.2c0.4-0.2,0.4-0.7,0.4-1.5c0-1.1-0.4-2.8-1.8-4.4
		C3.9,8,4.4,5.8,4.8,4h-2v19.4H0v-22h5.9l0.4-0.2L8.3,2.5z M13.7,7.1c0,1.1,0,2-0.2,2.9h6.8c0,0,0,0.9,0,1.3
		c-0.2,7.2-0.6,10-1.3,10.9c-0.6,0.7-1.1,0.9-2,1.1c-0.7,0.2-2,0.2-3.1,0c0-0.9-0.4-2-0.9-2.9c1.1,0.2,2,0.2,2.6,0.2
		c0.4,0,0.7-0.2,0.9-0.4c0.4-0.6,0.7-2.6,0.9-7.5h-4c-0.6,4.6-2,8.3-6.4,10.7c-0.4-0.7-1.3-1.7-1.8-2.2c5.3-2.9,5.7-7.9,5.9-14.2
		H7.7V4.4h6.1c-0.2-0.9-0.6-2.2-0.9-3.3l2.8-0.7C16,1.6,16.5,3,16.7,3.9l-2,0.6h7.2v2.8h-8.2V7.1z"/>
	<path class="st0" d="M31.4,19.1v2h-2.4V2.2h6.3v16.6h-3.9V19.1z M31.4,4.7v4.6h1.7V4.7H31.4z M33.1,16.5v-4.6h-1.7v4.6H33.1z
		 M49.1,21.3c0.4,0,0.6-0.2,0.6-1.1c0.4,0.4,1.5,0.7,2,0.7c-0.2,1.8-0.9,2.4-2.4,2.4h-2c-2.2,0-2.6-0.7-2.6-2.8v-3.7h-3.3v0.9H44
		v1.7h-2.6v1.5l2.6-0.4c0,0.7,0,1.7,0.2,2c-3.9,0.7-4.8,0.9-5.1,1.1c0-0.7-0.4-1.8-0.7-2.4c0.4-0.2,0.7-0.4,0.7-1.1v-3.3h-0.6
		c-0.4,2.4-0.9,4.8-2,6.6c-0.6-0.4-1.7-1.1-2.2-1.3c1.8-2.8,2-6.6,2-9.4V9.3h6.1c-0.2-0.2-0.2-0.6-0.4-0.9h-1.2V5.5h-2.6v2.9h-2V4
		h6.6v3.7l1.1-0.2V4h7v4.4h-2V5.5h-2.8v2.9h-1.3C45,8.8,45,9,45.2,9.3h6.1v1.8h-4.6v1.1h4V17H47v1h3.5v1.7H47v1.1
		c0,0.6,0,0.7,0.6,0.7h1.5V21.3z M43,3.3h-7.2V1.5H43V3.3z M39.1,8.4c-0.2-0.6-0.4-1.5-0.7-2L39.9,6c0.4,0.6,0.7,1.5,0.7,2L39.1,8.4
		z M38.6,13.9c0,0.4,0,0.9,0,1.3h1.7v-1.3H38.6z M38.8,11.2v1.1h1.5v-1.1H38.8z M44.3,11.2h-1.7v1.1h1.7V11.2z M44.3,13.9h-1.7v1.3
		h1.7V13.9z M51.2,3.3h-7.5V1.5h7.5V3.3z M47.1,8.2c-0.2-0.6-0.4-1.5-0.7-2l1.4-0.5c0.4,0.7,0.7,1.5,0.7,2L47.1,8.2z M46.7,13.9v1.3
		h1.7v-1.3H46.7z"/>
	<path class="st0" d="M64.6,7.1c-0.9,3.7-2.2,8.3-4.2,10.9c-0.7-0.6-2-1.1-2.9-1.5c2-2.6,3.3-6.8,3.7-10L64.6,7.1z M70.9,1v19
		c0,1.8-0.4,2.6-1.5,3.1c-1.1,0.6-2.9,0.6-5.3,0.6c-0.2-0.9-0.7-2.2-1.1-3.1c1.7,0,3.5,0,4,0s0.7-0.2,0.7-0.7V1H70.9z M76.5,6.2
		c2,3.5,4,8.1,4.6,10.9L78,18.5c-0.6-2.9-2.4-7.7-4.4-11.1L76.5,6.2z"/>
	<path class="st0" d="M109.7,19.1h-9.6v1.8c0,1.3-0.4,2-1.3,2.4c-1.1,0.4-2.4,0.4-4.2,0.4c-0.2-0.7-0.6-1.8-0.9-2.4
		c1.1,0,2.6,0,2.9,0s0.6,0,0.6-0.4v-1.7h-10v-2.4h10v-0.7c0.9-0.4,1.8-0.9,2.8-1.5h-7.9v-2H103l0.6-0.2l1.7,1.5
		c-1.3,0.9-2.9,2-4.6,2.9h9.2L109.7,19.1L109.7,19.1z M90.7,14.5H88V9.3h1.8l-0.3-7.3c1.5-0.2,3.7-0.9,5-1.5l1.1,1.7
		c-0.9,0.4-2.2,0.7-3.3,0.9v0.7h3.1v1.8h-3.1v0.9h3.1v1.3c0.6-0.4,1.1-0.6,1.7-0.9c-0.6-0.4-0.9-0.6-1.5-0.7l1.3-1.1
		c0.6,0.2,1.1,0.6,1.5,0.9c0.4-0.4,0.7-0.7,0.9-1.1l2,0.6c-0.4,0.6-0.7,1.1-1.3,1.5c0.6,0.4,1.1,0.7,1.5,1.1l-1.1,1.3
		c-0.4-0.4-1-0.8-1.5-1.4c-0.7,0.6-1.3,0.9-2,1.3h8.1l0.2-0.9h-2.9V6.6h3.1V5.7h-2.9V3.8h3.1V3.1h-3.3V1.3h6.3
		c-0.2,2.6-0.4,5.9-0.6,8.1h1.8v5.1h-2.9v-2.9H90.8C90.7,11.5,90.7,14.5,90.7,14.5z M92.5,9.3h4c-0.1-0.3-0.7-0.7-1-1.1v0.2h-3V9.3z
		 M100.1,4.7c-0.2-0.2-0.7-0.6-1.3-0.9c-0.7,0.6-1.3,0.9-2,1.3c-0.4-0.4-1.1-0.9-1.5-1.3c0.7-0.2,1.3-0.6,1.8-0.9
		c-0.6-0.2-0.9-0.6-1.3-0.7l1.3-1.1c0.6,0.2,0.9,0.6,1.5,0.7C99,1.5,99.3,1.2,99.5,1l2,0.6c-0.4,0.6-0.7,0.9-1.3,1.3
		c0.6,0.4,0.9,0.7,1.3,0.9L100.1,4.7z"/>
	<path class="st0" d="M139,4.2v5.9h-2.7V6.8h-16.4v3.3h-2.8V4.2h3.7c-0.4-0.7-1.1-1.7-1.7-2.6l2.6-1.1c0.7,0.9,1.7,2.2,2,3.1
		L122.8,4h3.5V0.4h2.9V4h3.9l-0.9-0.2c0.7-0.9,1.5-2.2,2-3.1l3.1,0.7c-0.7,0.9-1.5,1.8-2.2,2.6h4L139,4.2L139,4.2z M129.5,20.5h9.6
		V23h-21.8v-2.6h9.4v-2h-7.2V16h7.2v-1.7h-5.3V8h13.9v6.4h-5.5v1.7h7.5v2.4h-7.5v2H129.5z M123.9,12.1h8.3v-1.8h-8.3V12.1z"/>
</g>
</svg>
