<svg xmlns="http://www.w3.org/2000/svg" width="30" height="11" viewBox="0 0 30 11">
  <defs>
    <style>
      .cls-1 {
        fill: #1147b4;
        fill-rule: evenodd;
      }
    </style>
  </defs>
  <path id="TOP" class="cls-1" d="M167.534,35.906V34.37h-6.526v1.535h2.447v9.133h1.631V35.906h2.448Zm7.76-1.727a5.534,5.534,0,1,0,5.55,5.534A5.413,5.413,0,0,0,175.294,34.178Zm0,9.565a3.818,3.818,0,0,1-3.919-4.031,3.921,3.921,0,1,1,7.838,0A3.819,3.819,0,0,1,175.294,43.743Zm8.881-9.373V45.039h1.632V40.7h0.735a3.853,3.853,0,0,0,2.608-.832,2.989,2.989,0,0,0,1.039-2.335,3.089,3.089,0,0,0-1.327-2.591,4.172,4.172,0,0,0-2.336-.576h-2.351Zm1.632,1.5h0.719c1.856,0,2.1,1.056,2.1,1.648,0,0.992-.672,1.679-2.08,1.679h-0.735V35.874Z" transform="translate(-161 -34.188)"/>
</svg>
