<?xml version="1.0" encoding="utf-8"?>
<!-- Generator: Adobe Illustrator 26.0.3, SVG Export Plug-In . SVG Version: 6.00 Build 0)  -->
<svg version="1.1" id="Layer_1" xmlns="http://www.w3.org/2000/svg" xmlns:xlink="http://www.w3.org/1999/xlink" x="0px" y="0px"
	 viewBox="0 0 584.6 40.6" style="enable-background:new 0 0 584.6 40.6;" xml:space="preserve">
<style type="text/css">
	.st0{fill:#FFFFFF;}
</style>
<g>
	<path class="st0" d="M23.7,18.6c3.6,6.3,10.5,11.1,17.2,13.1l-0.1,0.5c-2,0.4-3.6,2.1-4.3,4.6c-6.5-3.6-11-9.6-13.7-18.1h0v20
		c0,0.6-2.2,1.8-4.2,1.8h-1V24.1c-4.1,5.5-9.9,10.1-17.3,13.3L0,36.9c6.6-4.6,11.9-11.6,14.7-18.3H0.9l-0.4-1.2h17.1V9.5H4.4
		L4.1,8.3h13.5V0.1l6.8,0.6c-0.1,0.6-0.4,1-1.6,1.2v6.4H29l2.9-3.6c0,0,3.3,2.4,5.2,4.1c-0.1,0.5-0.6,0.7-1.2,0.7H22.8v7.9h9l3-3.7
		c0,0,3.4,2.5,5.4,4.3c-0.1,0.5-0.6,0.7-1.2,0.7H23.7z"/>
	<path class="st0" d="M84.1,11.4c-0.2,0.6-0.6,0.9-1.6,0.9c-0.4,1.2-0.8,2.3-1.3,3.3c9.9,2.9,6.4,10.4,2.3,7.6c-0.5-2-1.8-4.2-3.1-6
		c-1.5,2.6-3.3,4.6-5.5,6c3.7,4.9,9.5,8.3,15.3,9.9L90,33.8c-1.9,0.4-3.5,2-4,4.4c-6.7-3.3-11.1-8.8-13.8-17v17.5
		c0,0.6-2.2,1.8-4.2,1.8h-1v-13c-4.3,4.4-10.4,8.4-17.1,10.8l-0.3-0.6C57.1,33.7,64,26,67.1,17.9V8.6H50.7l-0.3-1.2h16.8V0.3
		l6.7,0.7c-0.1,0.6-0.4,1-1.5,1.2v5.2h9l3-3.7c0,0,3.3,2.5,5.3,4.2c-0.1,0.5-0.6,0.7-1.2,0.7h-16v10.5c0.5,1.2,1.2,2.3,1.9,3.3
		c1.8-3.2,3.1-7.7,3.5-12.5L84.1,11.4z M64,11.7c-0.2,0.6-0.7,0.9-1.6,0.9c-0.4,1.1-0.9,2.2-1.4,3.2c7.6,2.8,3.5,8.8,0.1,5.8
		c-0.1-1.2-0.6-2.6-1.2-3.9c-2.1,3.4-4.7,5.9-7.8,7.7l-0.5-0.4c2.8-3.6,5.2-9,6.2-15.1L64,11.7z"/>
	<path class="st0" d="M118.7,9.5c-0.3,0.4-0.9,0.7-1.8,0.9V36c0,0.3-2.3,1.4-4,1.4h-0.7v-3.4h-6.5v3.2c0,0.6-1.8,1.6-3.9,1.6H101
		V6.4l4.8,2h0.3c0.3-2.4,0.7-5.7,0.9-8.1l7,1.7c-0.2,0.7-0.8,1-1.8,1c-1.1,1.5-2.8,3.7-4.2,5.4h3.7l2.3-2.6L118.7,9.5z M105.6,9.6
		v10.7h6.5V9.6H105.6z M112.1,32.9V21.5h-6.5v11.3H112.1z M139.7,9.5c-0.3,0.4-0.9,0.7-1.9,0.8c-0.3,17.3-0.9,25.2-3.3,27.7
		c-1.5,1.6-3.4,2.3-6.3,2.3c0-1.6-0.2-2.8-0.9-3.5c-0.8-0.8-2.5-1.5-4.6-1.9l0-0.6c2.1,0.2,5,0.4,6.1,0.4c0.8,0,1.2-0.2,1.6-0.6
		c1.6-1.5,2-10,2.3-24.7h-8c-2.1,3.7-4.5,6.7-7.3,9l-0.6-0.3c2.4-4.4,4.7-11.4,5.8-18l6.8,2c-0.2,0.6-0.7,0.9-1.7,0.9
		c-0.7,1.8-1.5,3.6-2.4,5.2h6.8l2.7-2.8L139.7,9.5z M120.7,17c12.6,3.7,7.9,13,3.3,9.2c-0.2-3.1-1.9-6.5-3.7-8.9L120.7,17z"/>
	<path class="st0" d="M164.9,34c0,3.1-0.6,4.9-5.4,5.3c-0.1-1.3-0.3-2.5-0.8-3.1c-0.5-0.7-1.3-1.2-3-1.5v-0.6c0,0,3.4,0.3,4.1,0.3
		c0.6,0,0.8-0.3,0.8-0.9V21.2c-0.8,1.2-1.8,2.5-2.9,4c0,0.6-0.3,1.1-0.8,1.3l-1.8-3.2c-0.4,6-1.7,12.3-6.1,17.2l-0.6-0.3
		c2.6-7,2.5-15.9,2.5-23.9V1.1l5,1.8h4.3l2-2.3l4.3,3.3c-0.3,0.3-0.8,0.6-1.6,0.8V34z M155.2,16.3c0,1.7,0,3.5-0.1,5.4
		c1.3-0.6,3.3-1.6,5.5-2.7v-4.3c-0.4,0.3-1,0.5-1.8,0.3c-0.8-0.9-2.2-1.8-3.6-2.6V16.3z M155.2,4.2v6.5c2.8-0.5,4.5,0,5.4,0.9V4.2
		H155.2z M187.7,33.6c1.1,0.6,1.3,1.1,1.3,2c0,1.9-1.5,3-5.7,3h-1.9c-3.3,0-3.8-1.1-3.8-4.2V5.3H173v12.9c0,7.7-0.5,16.3-8.7,22.2
		l-0.5-0.3c4.1-6.2,4.4-14.1,4.4-21.9V2.1l5.5,2h3.3l2.4-2.8l4.7,3.9c-0.3,0.3-0.8,0.6-1.8,0.8v27c0,0.6,0.1,0.9,0.6,0.9h0.8
		c0.3,0,0.6,0,0.8,0c0.3,0,0.4-0.1,0.6-0.6c0.4-0.9,1.2-4.5,1.8-7.4h0.5L187.7,33.6z"/>
	<path class="st0" d="M238.5,8.2c-0.3,0.4-0.8,0.4-1.6,0.5c-1.5,1.1-4,2.5-5.8,3.2l-0.4-0.3c0.5-1,1.1-2.5,1.5-3.8h-5.9
		c0.8,0.5,2.4,1.6,3.5,2.5c0,0.5-0.5,0.8-1.1,0.8l-10.1,0.7v0.2c0,0.5,0.1,0.6,1.6,0.6h4.7c1.6,0,3.4,0,4,0c0.5,0,1.1-0.1,1.4-0.1
		c0.3,0,0.9-0.2,1.3-0.3h0.4l0.2,0c1.4,0.5,1.8,0.8,1.8,1.5c0,1-0.5,1.5-2.2,1.7l3.4,2.5c-0.2,0.3-0.7,0.6-1.4,0.7v5.9
		c0,0.3-1.5,0.8-2.9,1.1l3.1,2.2c-0.3,0.3-0.9,0.7-1.8,0.9v7c0,2.5-0.7,4-5.9,4.3c-0.1-1.1-0.2-1.9-0.8-2.4
		c-0.6-0.5-1.3-0.9-3.3-1.2v-0.6c0,0,3.7,0.2,4.5,0.2c0.6,0,0.8-0.2,0.8-0.8v-1.8c-3,0.8-6.8,1.9-11.5,3.1c-0.3,0.6-0.7,0.9-1.2,0.9
		l-1.2-4.2c2.5-0.1,7.9-0.5,13.9-1v-4.5H214v1.5c13.1-2,13,3.2,10.1,3.2c-1.9-0.7-5.8-1.5-10.1-2c-0.1,3.1-1.2,7.2-8,9.5l-0.3-0.4
		c3.4-2.8,3.7-6.4,3.7-9.5v-3.9c-0.3,0-0.6,0-0.9,0H208V15.2l5,1.9h15.7l1.2-1.3c-1.4,0.1-3.2,0.1-5.5,0.1h-5.1
		c-4.4,0-5.2-0.7-5.2-3.3v-0.3l-6.6,0.5l-0.4-1.2l7.1-0.5V8.1l5.8,0.4c-0.1,0.6-0.5,0.9-1.3,1v1.2l5.3-0.4l1.7-2.5h-19.3v9.7
		c0,7.2-0.4,16.6-8,22.8l-0.5-0.3c3.5-6.6,3.7-15,3.7-22.4V4.7l5.4,2h7.8V0l6.5,0.5c-0.1,0.6-0.5,1-1.6,1.2v1.7h8.2l2.5-3.1
		c0,0,2.8,2.1,4.5,3.7c0,0.2-0.2,0.3-0.3,0.5L238.5,8.2z M227.1,27l1.8-2h-16.2v0.3c0,0.1-0.3,0.4-0.8,0.6l2.8,1H227.1z M212.7,18.4
		v2.1h5.8v-2.1H212.7z M218.5,23.7v-2.1h-5.8v2.1H218.5z M232.1,6.7l2.2-2.1c-0.2,0-0.3,0.1-0.6,0.1h-14v2.1H232.1z M223.1,18.4v2.1
		h6v-2.1H223.1z M223.1,23.7h6v-2.1h-6V23.7z"/>
	<path class="st0" d="M285.1,33.6c2,0.6,2.7,1.2,2.7,2.2c0,2.8-2.8,3.6-15.8,3.6h-8.3c-6.7,0-9.5-0.7-9.5-5.8V16.9l-6.1,1.6
		l-0.7-1.1l6.8-1.8V4.1l6.8,0.7c-0.1,0.6-0.5,1-1.6,1.2v8.3l6.6-1.8V0.1l6.7,0.6c-0.1,0.6-0.4,1-1.6,1.2v9.1l6.2-1.7H277l3-3.1
		l4.8,5c-0.4,0.4-0.8,0.6-1.8,0.7c-1.2,4.8-3.7,11.8-6.8,16.3l-0.4-0.3c0.8-5.5,1.3-12.5,1.4-17.4l-6.2,1.7v17.4
		c0,0.5-2.2,1.5-4.2,1.5h-0.9V13.8l-6.6,1.7v16.8c0,1.7,1,2.2,4.1,2.2h8.9c3.1,0,5.7,0,7-0.2c1.1-0.1,1.7-0.3,2.1-0.9
		c0.7-1.1,1.7-3.1,3.1-7.1h0.4L285.1,33.6z"/>
	<path class="st0" d="M313.7,18.4c-1.5,0.9-3.4,2.1-5.7,3.4v12.4c0,3.7-0.7,5.7-6.3,6.3c-0.1-1.8-0.3-3.1-0.9-3.9
		c-0.6-0.9-1.5-1.4-3.5-1.8v-0.6c0,0,4,0.3,4.9,0.3c0.7,0,0.9-0.3,0.9-0.8v-9.2c-1.1,0.6-2.3,1.2-3.6,1.8c-0.2,0.6-0.7,1-1.2,1.2
		l-1.6-6c1.2-0.2,3.6-0.6,6.4-1.2v-8.7h-5.5l-0.3-1.2h5.8V0.1l6.5,0.6C309.5,1.4,309,1.8,308,2v8l2.2-3.1c0,0,2.5,2.3,4,4
		c-0.1,0.5-0.6,0.7-1.2,0.7h-5v7.7c1.8-0.4,3.7-0.9,5.6-1.3L313.7,18.4z M333.3,19.3c0,0,2.8,2.2,4.5,3.8c-0.1,0.5-0.6,0.7-1.2,0.7
		h-6.8v11.1c0,3.4-0.9,5.2-6.9,5.7c-0.2-1.5-0.4-2.5-1.2-3.2c-0.9-0.7-2-1.2-4.6-1.6v-0.6c0,0,5.7,0.3,6.8,0.3c0.8,0,1-0.3,1-0.9
		V23.8h-14.2l-0.3-1.2h14.5v-5.1l6.4,0.6c-0.1,0.6-0.5,1-1.5,1.1v3.4h1.1L333.3,19.3z M312.1,7.7h8.6V0.1l6.5,0.6
		c-0.1,0.6-0.4,0.9-1.4,1.1v6h4.4l2.6-3.4c0,0,3,2.3,4.8,3.9c-0.1,0.5-0.6,0.7-1.2,0.7h-10.6v6.6h3.1l2.5-3.3c0,0,2.8,2.2,4.6,3.8
		c-0.1,0.5-0.6,0.7-1.2,0.7h-20.4l-0.3-1.2h6.8V9h-8.3L312.1,7.7z M314.4,24.7c11.9,2.7,8.1,11.2,3.7,8c-0.6-2.6-2.5-5.7-4.1-7.8
		L314.4,24.7z"/>
	<path class="st0" d="M350.5,28.3c1.5,4.4,1.2,7.7-0.1,9.4c-0.9,1.1-3.1,1.2-3.8-0.2c-0.6-1.2,0-2.5,1.1-3.4c1.1-1,2.4-3.6,2.1-5.8
		L350.5,28.3z M386.6,12.9c-0.2,0.3-0.6,0.5-1.2,0.6v5.4c0,0.3-1.8,0.9-3.1,1.1l2.5,1.9c-0.2,0.3-0.7,0.5-1.3,0.6v9.7
		c0,0.3-2.2,1.4-3.7,1.4H379v-1.2h-10.8V33c0,0.3-1.3,1.2-3.5,1.2H364V20.3c-0.3,0-0.6,0.1-1,0.1l-0.7,0v-8.5
		c-0.3,0.2-0.7,0.3-1.3,0.2c-2.3,3.1-6.8,7.6-10.7,10.6c2.1-0.1,4.8-0.3,7.7-0.5c-0.3-1.5-0.8-2.9-1.3-4L357,18
		c8.6,4.4,4.3,10.9,1.2,7.7c0-0.6,0-1.3-0.1-2c-2.3,1-5.3,2.2-8.7,3.4c-0.3,0.4-0.7,0.6-1.1,0.8l-1.8-5.2c0,0,1-0.2,1.5-0.5
		c1.8-1.4,3.9-4.2,5.7-7.1c-1.1,0.5-2.4,1-3.8,1.5c-0.3,0.5-0.6,0.8-1,0.9l-2.2-5.2c0,0,0.9-0.2,1.3-0.5c2.1-2.2,4.9-8.3,5.6-11.7
		l5.8,2.9c-0.2,0.4-0.7,0.7-1.5,0.6c-1.9,2.8-5.2,6.4-8,8.8c1.5,0,3.4,0,5.3,0c0.9-1.6,1.6-3.1,2.1-4.3l5,3.3v-1.2l4.3,1.7h14.2
		l1.9-1.9L386.6,12.9z M353.6,27.7c7,5.5,2.4,11.6-0.3,8.2c0.5-2.7,0.3-5.8-0.2-8.1L353.6,27.7z M357.5,26.9
		c8.5,3.7,4.8,10.3,1.7,7.4c0-2.4-1-5.3-2.1-7.1L357.5,26.9z M359.9,40c3.5-2,7.5-5.2,9.5-7.4l4.8,3.5c-0.3,0.4-0.6,0.6-1.6,0.3
		c-3,1.5-7.9,3.2-12.3,4.1L359.9,40z M361.1,4.2h10V0.3l6,0.5c-0.1,0.6-0.4,0.9-1.5,1.2v2.2h4.4l2.3-2.9c0,0,2.6,2,4.2,3.5
		c-0.1,0.5-0.6,0.7-1.2,0.7h-9.7v3.1h2.8l2.1-2.7c0,0,2.5,1.8,4,3.2c-0.1,0.5-0.6,0.7-1.2,0.7h-19.5l-0.3-1.2h7.7V5.4h-9.6
		L361.1,4.2z M381.1,19.1v-0.5h-14.7v0.6c0,0.1-0.3,0.3-0.7,0.5l2.8,1.1h10.2l2-2L381.1,19.1z M366.4,13.2v4.2h3v-4.2H366.4z
		 M368.3,24.3H379v-2.2h-10.8V24.3z M368.3,27.7H379v-2.2h-10.8V27.7z M379,31.2v-2.2h-10.8v2.2H379z M375.2,17.3v-4.2h-2.8v4.2
		H375.2z M374.7,33.4c18.2,1.4,9.9,9.8,6.3,6c-1-1.7-3.2-3.8-6.5-5.4L374.7,33.4z M378.3,13.2v4.2h2.8v-4.2H378.3z"/>
	<path class="st0" d="M430.4,23c0,0,3.2,2.4,5.1,4.1c-0.1,0.5-0.6,0.7-1.2,0.7h-16.8c-1.4,6-5.3,10.1-20.9,12.7l-0.3-0.7
		c10.8-3.3,14.3-7,15.6-12h-13.8l-0.3-1.2h14.4c0.3-1.5,0.3-3.2,0.4-5l7.1,0.5c-0.1,0.6-0.5,1.1-1.5,1.2c-0.1,1.2-0.3,2.2-0.4,3.3
		h9.8L430.4,23z M413.1,19.9v-5.1h-11.8l-0.3-1.2h12.2V8.6h-14.1l-0.4-1.2h10.9c-0.5-0.1-0.9-0.3-1.4-0.7c-0.2-2.2-1.5-4.6-2.9-6.1
		l0.3-0.3c9.1,0.8,8.3,6.3,5.3,7.1h8c0.9-2.2,1.8-5.1,2.4-7.2l6.8,1.5c-0.2,0.6-0.6,0.9-1.6,0.9c-1.5,1.4-3.9,3.4-6.1,4.9h6.7
		l2.8-3.4c0,0,3.1,2.3,5,4c-0.1,0.5-0.6,0.7-1.2,0.7h-14.8v4.9h5.9l2.6-3.2c0,0,3,2.1,4.8,3.7c-0.1,0.5-0.6,0.7-1.2,0.7h-12v5.1h9.2
		l2.8-3.6c0,0,3.2,2.4,5,4.1c-0.1,0.5-0.6,0.7-1.1,0.7H397l-0.3-1.2H413.1z M419,29.2c19.1,1.6,18.1,12.7,12.3,10.8
		c-2.7-3.7-8.3-8-12.6-10.4L419,29.2z"/>
	<path class="st0" d="M453.7,26.2c-0.3,4.9-1.8,10.4-8.1,14.2l-0.4-0.4c3.4-4.9,3.7-11,3.7-16.6v-9.8l0.2,0.1V4.8l4.7,1.8h5.5l1.9-2
		l4.1,3c-0.2,0.3-0.6,0.6-1.3,0.7v3.4c1.8,0.3,2.8,0.8,3.3,1.4V4.8l4.6,1.8h5.5l2.1-2.2l4.5,3.3c-0.3,0.3-0.8,0.6-1.5,0.8v4.3
		c0,0.1-0.4,0.3-1,0.5c0.9,0.8,2.3,1.9,3.3,2.9c-0.1,0.5-0.6,0.7-1.2,0.7h-11.1V20h4.3l2.2-2.3l4.6,3.4c-0.3,0.3-0.8,0.6-1.6,0.8
		v4.3c0,0.3-2.4,1.2-3.9,1.2h-0.9v-1.3H453.7z M447.8,4.4l-0.3-1.2h12.2l2.3-3c0,0,2.6,2.1,4.2,3.5c-0.1,0.5-0.5,0.7-1.2,0.7H447.8z
		 M453.6,12.8c0,0.3-1.7,1.2-3.4,1.3l4.3,1.5h9.9c-0.2-0.1-0.4-0.2-0.6-0.4c0-0.7-0.1-1.5-0.4-2.1c-0.7,0.3-2.1,0.7-3.1,0.7h-0.8v-6
		h-6V12.8z M464.1,27.4c0,0,2.4,2.1,3.8,3.5c-0.1,0.5-0.6,0.7-1.2,0.7h-6.9v3.6c2.3-0.3,5.1-0.6,7.8-1.1l0.1,0.6
		c-2.1,1-6.1,3-10.6,4.9c-0.3,0.5-0.7,0.8-1.1,1l-2.5-4.7c1.5-0.8,1.7-1.2,1.7-1.9v-7.6L461,27c0,0.4-0.3,0.8-1.1,0.9v2.5h2.2
		L464.1,27.4z M453.8,16.9V20h4.9v-3.1H453.8z M453.8,23.4c0,0.5,0,1,0,1.5h4.9v-3.7h-4.9V23.4z M454.4,8.4c7.4,1.1,3.9,6.2,1.1,3.9
		c0-1.3-0.7-2.8-1.5-3.6L454.4,8.4z M468.1,16.9h-5V20h5V16.9z M463.2,24.9h5v-3.7h-5V24.9z M480.7,0.1c0,0,2.6,2.2,4.3,3.7
		c-0.1,0.5-0.6,0.7-1.2,0.7h-16.9l-0.3-1.2h11.7L480.7,0.1z M467.8,14c0.1,0.6-0.3,1.3-0.9,1.6h11.4l1.4-1.8c-0.3,0-0.6,0-0.8,0H478
		v-6h-6.1v4.8c0,0.4-2,1.3-3.9,1.3H467.8z M483.5,35.3c1.2,0.5,1.6,1,1.6,1.7c0,1.9-1.8,2.3-8,2.3h-3.8c-4,0-4.7-0.9-4.7-3.7v-9.2
		l6.1,0.5c-0.1,0.6-0.5,0.9-1.3,1.1v2.6h3.6l2.1-3c0,0,2.4,2.1,3.8,3.5c-0.1,0.5-0.6,0.7-1.2,0.7h-8.3V35c0,0.5,0.1,0.6,1.2,0.6h3.1
		h2.6c0.5,0,0.9-0.1,1.1-0.3c0.3-0.4,0.9-1.5,1.5-2.9h0.5L483.5,35.3z M472.5,8.3c7.8,0.9,4.3,6.5,1.4,4.1c-0.1-1.4-0.9-3-1.8-3.9
		L472.5,8.3z M472.7,21.2v3.7h4.6v-3.7H472.7z"/>
	<path class="st0" d="M533.7,34c1.4,0.6,1.7,1.2,1.7,2.2c0,2.1-1.8,3.1-8.9,3.1h-4.3c-4.4,0-5.4-0.9-5.4-4.5V18.4h-4.6
		c-0.8,10.8-4.6,18.4-17.4,22.1l-0.2-0.5c9.3-5.1,11.6-12.3,11.8-21.6h-11.4l-0.3-1.2h17.5v-17l6.8,0.6c-0.1,0.6-0.4,1-1.6,1.2v15.2
		h9.6l2.9-3.7c0,0,3.2,2.5,5.2,4.2c-0.1,0.5-0.6,0.7-1.2,0.7h-12.1V19v14.4c0,0.7,0.3,0.9,1.5,0.9h3.5c1.3,0,2.4,0,3-0.1
		c0.6,0,0.8-0.2,1.1-0.6c0.5-0.9,1.2-3.5,2.1-6.5h0.5L533.7,34z M499,2.9c13.8,4.9,9.1,15.4,4,11.1c-0.3-3.7-2.3-7.9-4.4-10.9
		L499,2.9z M532.7,5.6c-0.2,0.5-0.8,0.8-1.8,0.7c-3.1,3.5-6.6,6.7-10,8.9l-0.5-0.3c1.6-3,3.7-8,5.3-12.4L532.7,5.6z"/>
	<path class="st0" d="M567.9,22.2c3.6,5.4,10.3,9.3,16.6,11l-0.1,0.5c-1.9,0.4-3.4,2.1-4,4.5c-6.4-3.1-10.8-8.4-13.5-16h-0.3V39
		c0,0.4-2.3,1.4-4.2,1.4h-0.9V26.9c-4,4.9-9.9,8.9-17.1,11.6l-0.3-0.5c6.4-3.9,11.4-9.8,14.3-15.7h-13.4l-0.3-1.2h16.9v-4.6l6.5,0.6
		c0,0.5-0.3,0.9-1.4,1.1v3h9.1l3-3.7c0,0,3.4,2.5,5.4,4.2c-0.1,0.5-0.6,0.7-1.2,0.7H567.9z M581.2,4.9c-0.5,0.4-1.5,0.5-2.8-0.1
		C570,6.2,557.1,7.4,546,7.3l-0.1-0.7c10.5-1.2,23.6-4,30.4-6.5L581.2,4.9z M549.2,8.4c12,3,7.3,12,2.8,8.3c-0.3-2.8-1.8-5.9-3.2-8
		L549.2,8.4z M559.9,7.4c11.3,2.8,6.3,11.1,2,7.4c-0.1-2.6-1.2-5.3-2.4-7.2L559.9,7.4z M569.5,17.7c1.8-2.6,4.1-6.9,5.8-10.9
		l6.3,3.2c-0.3,0.5-0.9,0.8-1.8,0.6c-3,3.1-6.6,5.8-10,7.5L569.5,17.7z"/>
</g>
</svg>
