<?xml version="1.0" encoding="utf-8"?>
<!-- Generator: Adobe Illustrator 26.0.3, SVG Export Plug-In . SVG Version: 6.00 Build 0)  -->
<svg version="1.1" id="Layer_1" xmlns="http://www.w3.org/2000/svg" xmlns:xlink="http://www.w3.org/1999/xlink" x="0px" y="0px"
	 viewBox="0 0 537.2 112.2" style="enable-background:new 0 0 537.2 112.2;" xml:space="preserve">
<style type="text/css">
	.st0{fill:none;}
	.st1{fill:#FFFFFF;}
</style>
<rect class="st0" width="537.2" height="112.2"/>
<g>
	<path class="st1" d="M214.3,26.5v16.7c0,0.3-1.3,1.1-3.5,1.1h-0.7V30.9c-0.2,0-0.6,0-1,0c-1.5,3.2-4,7.4-7.5,10.1l-0.5-0.5
		c2.3-3.6,3.9-9,4.5-12.6l4.5,1.9v-3.5h-7.9l-0.4-1.3h8.3v-5.5h-8.6l-0.4-1.3h12.4c0.9-2.7,1.8-6.1,2.3-8.7h-10.1
		c8.7,4.4,4.8,10.8,1.7,7.7c0-2.4-1.2-5.5-2.3-7.5l0.4-0.2h-3.3l-0.4-1.3h10.6c-0.4-0.1-0.9-0.3-1.4-0.7c-0.3-2-1.6-4.5-2.8-5.9
		l0.5-0.3c8,1.6,7.1,6.5,4.5,6.9h3.7l2.3-2.9c0,0,2.5,2,4.1,3.5c-0.1,0.5-0.6,0.7-1.2,0.7h-5.6l5.1,1.6c-0.2,0.6-0.7,0.9-1.7,0.8
		c-1.1,1.8-3,4.2-4.9,6.3h3.4l2.3-3.1c0,0,2.7,2.2,4.2,3.7c-0.1,0.5-0.6,0.7-1.2,0.7h-9.4V25h3.1l2.2-2.9c0,0,2.5,2,4,3.5
		c-0.1,0.5-0.6,0.7-1.2,0.7h-8.1V26.5z M215.4,28.5c9.5,4.6,5.7,11.7,2.3,8.6c0-2.8-1.4-6.1-2.9-8.3L215.4,28.5z M239.6,14.2
		c0,0,2.9,2.4,4.7,4.1c-0.1,0.5-0.6,0.7-1.2,0.7h-4.5v24c0,0.3-1.4,1.3-3.5,1.3h-0.8V19h-5.5v1.6c0,8-0.8,17.5-9.9,23.6l-0.6-0.6
		c5.6-6.5,6.3-14.9,6.3-23.1V5.2l4.6,1.6c3.5-1.6,7.2-3.7,9.2-5.2l4.9,3.7c-0.5,0.5-1.3,0.6-2.5,0.1c-3,1-7.5,2-11.9,2.6v9.6h8.1
		L239.6,14.2z"/>
	<path class="st1" d="M260.7,26c0,0,2.8,2.5,4.4,4.2c-0.1,0.5-0.6,0.7-1.2,0.7h-16.4l-0.4-1.3h11.1L260.7,26z M248.3,11.5l-0.4-1.3
		h8l2.4-3.4c0,0,2.7,2.4,4.1,4c-0.1,0.5-0.6,0.7-1.2,0.7H248.3z M277.5,16.7c-0.1,0.6-0.7,1.1-1.8,1.1c0,0.5-0.1,0.9-0.1,1.4
		c1.2,8.8,4.8,15.8,14.6,20v0.6c-2.3,0.5-3.6,1.7-4,4.5c-7.3-4.5-9.9-12.6-11-21.4c-1.4,8.1-4.9,15.8-19.5,21.5l-0.5-0.7
		c14.2-8.2,15.6-17.7,16.1-28.3L277.5,16.7z M260,22.3c3.1-5.1,5.8-12.8,6.9-20.8l6.5,1.5c-0.1,0.6-0.7,1.1-1.7,1.1
		c-0.7,2.4-1.5,4.6-2.4,6.7h14l2.5-2.6l4.5,4.3c-0.4,0.4-0.9,0.5-1.9,0.6c-1.5,3.1-4.4,7.5-6.9,10.1l-0.5-0.3c1-3,2.1-7.5,2.6-10.8
		h-15c-2.1,4.4-4.8,8-8,10.6L260,22.3z"/>
	<path class="st1" d="M334.9,38.3c1.3,0.5,1.6,1,1.6,1.9c0,1.9-1.8,2.8-9.2,2.8h-4.6c-4.3,0-5.2-0.9-5.2-4.2V18.6h-6.7
		c-0.7,12.7-4,21.2-17.7,25.8l-0.3-0.6c10.5-5.9,12.7-13.9,13-25.2h-12l-0.4-1.3h34.3l2.9-3.6c0,0,3.2,2.5,5.2,4.2
		c-0.1,0.5-0.6,0.7-1.3,0.7h-12.7v1v18.1c0,0.8,0.3,1.1,1.8,1.1h3.9c1.7,0,2.9,0,3.6,0c0.6,0,0.8-0.2,1-0.7c0.5-0.9,1.2-3.9,1.9-7.2
		h0.6L334.9,38.3z M298.6,7.1l-0.4-1.3h25.5l2.8-3.5c0,0,3.1,2.3,5,4c-0.1,0.5-0.6,0.7-1.2,0.7h-31.7V7.1z"/>
	<path class="st1" d="M132.2,78.4c10.9,1.5,7.6,9.2,3.7,6.5c-0.5-2.2-2.3-4.7-4.1-6.2L132.2,78.4z M146.2,74.9
		c-1.9,5.9-5.5,16.8-6.1,19.3c-0.4,1.6-0.7,3.1-0.7,4.3c0,2.3,1.6,4.2,1.5,8.1c-0.1,2.2-1.3,3.5-3.2,3.5c-1,0-1.8-0.7-2.1-2.3
		c0.8-4.8,0.6-8.8-0.5-9.5c-0.6-0.5-1.3-0.6-2.3-0.7v-1h2.1c0.6,0,0.8,0,1.2-0.9c1-1.7,1-1.7,9.3-21L146.2,74.9z M135.4,68.1
		c11.5,1.3,8.5,9.4,4.3,6.9c-0.7-2.3-2.9-5-4.7-6.6L135.4,68.1z M173.1,104.8c1.5,0.5,2,0.9,2,1.7c0,2.1-2.3,2.7-13.3,2.7h-7.6
		c-5.4,0-7.1-0.8-7.1-4.5V83.4c-1,0.9-1.9,1.7-3,2.4l-0.4-0.5c3.9-5,6.9-12.6,8.1-17.9l6.4,2.1c-0.2,0.5-0.6,0.8-1.7,0.8
		c-0.7,1.4-1.5,3-2.5,4.6h13.8l2.3-2.4l4.1,3.5c-0.3,0.4-0.9,0.7-1.8,0.8c-0.3,13.4-1,19.7-3.1,21.8c-1.3,1.3-3,1.9-5.4,1.9
		c0-1.2-0.1-2.3-0.8-2.9c-0.6-0.6-2.3-1.2-4-1.5v-0.7c1.7,0.2,4.6,0.4,5.6,0.4c0.8,0,1.1-0.1,1.6-0.6c1.2-1.2,1.7-7.6,2-19h-15.1
		c-1.1,1.6-2.3,3.2-3.7,4.7l2.3,1h6.4l2-2.1l4.3,3.2c-0.3,0.3-0.9,0.6-1.7,0.8v9.5c0,0.3-2.2,1.1-3.5,1.1h-0.7v-2.1h-7.4v11.5
		c0,1.2,0.5,1.6,3.2,1.6h7.6c3.1,0,5.6,0,6.7-0.1c0.9,0,1.3-0.2,1.6-0.7c0.5-0.8,1.2-2.9,2.1-6h0.5L173.1,104.8z M151.2,83.3V91h7.4
		v-7.7H151.2z"/>
	<path class="st1" d="M178.2,78.4c10.9,1.5,7.6,9.2,3.7,6.5c-0.5-2.2-2.3-4.7-4.1-6.2L178.2,78.4z M192.2,74.9
		c-1.9,5.9-5.5,16.8-6.1,19.3c-0.4,1.6-0.7,3.1-0.7,4.3c0,2.3,1.6,4.2,1.5,8.1c-0.1,2.2-1.3,3.5-3.2,3.5c-1,0-1.8-0.7-2.1-2.3
		c0.8-4.8,0.6-8.8-0.5-9.5c-0.6-0.5-1.3-0.6-2.3-0.7v-1h2.1c0.6,0,0.8,0,1.2-0.9c1-1.7,1-1.7,9.3-21L192.2,74.9z M181.4,68.1
		c11.5,1.3,8.5,9.4,4.3,6.9c-0.7-2.3-2.9-5-4.7-6.6L181.4,68.1z M219.1,104.8c1.5,0.5,2,0.9,2,1.7c0,2.1-2.3,2.7-13.3,2.7h-7.6
		c-5.4,0-7.1-0.8-7.1-4.5V83.4c-1,0.9-1.9,1.7-3,2.4l-0.4-0.5c3.9-5,6.9-12.6,8.1-17.9l6.4,2.1c-0.2,0.5-0.6,0.8-1.7,0.8
		c-0.7,1.4-1.5,3-2.5,4.6h13.8l2.3-2.4l4.1,3.5c-0.3,0.4-0.9,0.7-1.8,0.8c-0.3,13.4-1,19.7-3.1,21.8c-1.3,1.3-3,1.9-5.4,1.9
		c0-1.2-0.1-2.3-0.8-2.9c-0.6-0.6-2.3-1.2-4-1.5v-0.7c1.7,0.2,4.6,0.4,5.6,0.4c0.8,0,1.1-0.1,1.6-0.6c1.2-1.2,1.7-7.6,2-19h-15.1
		c-1.1,1.6-2.3,3.2-3.7,4.7l2.3,1h6.4l2-2.1l4.3,3.2c-0.3,0.3-0.9,0.6-1.7,0.8v9.5c0,0.3-2.2,1.1-3.5,1.1h-0.7v-2.1h-7.4v11.5
		c0,1.2,0.5,1.6,3.2,1.6h7.6c3.1,0,5.6,0,6.7-0.1c0.9,0,1.3-0.2,1.6-0.7c0.5-0.8,1.2-2.9,2.1-6h0.5L219.1,104.8z M197.2,83.3V91h7.4
		v-7.7H197.2z"/>
	<path class="st1" d="M242.2,72.5c-0.4,0.4-1,0.6-2.1,0.6c-1.5,2.9-4.4,8-6.6,10.8c5.1,3.4,7.1,7.6,7.1,11.3c0,4.5-1.7,6.8-6.7,7
		c0-1.2-0.2-2.8-0.6-3.3c-0.4-0.5-1.2-0.8-2.3-1v-0.6h3.4c0.5,0,0.8-0.1,1.1-0.3c0.7-0.5,1.1-1.3,1.1-2.9c0-3.3-1.1-6.8-4.2-10.1
		c1-2.9,2.4-8.4,3.3-12.1h-5.4v36.9c0,0.3-1.3,1.4-3.4,1.4h-0.7V68.7l4.7,1.9h4.6l2.4-2.3L242.2,72.5z M262.8,73.1
		c0,0,2.9,2.3,4.6,4c-0.1,0.5-0.6,0.7-1.2,0.7h-14.8c-0.1,2.4-0.2,4.7-0.5,6.9h7.9l2.4-2.4l4.3,3.7c-0.3,0.4-0.9,0.6-1.9,0.8
		c-0.5,12.5-1.6,19.3-4,21.4c-1.4,1.3-3.3,1.9-5.8,1.9c0-1.3-0.2-2.4-0.9-3c-0.7-0.7-2.5-1.3-4.4-1.7v-0.7c1.9,0.2,5.1,0.4,6.2,0.4
		c0.8,0,1.2-0.1,1.7-0.5c1.5-1.3,2.3-8.1,2.8-18.6h-8.5c-1.3,10.5-4.9,18.8-15.6,24.2l-0.4-0.5c10-8.2,11.8-18.9,11.9-32h-7.5
		l-0.4-1.3h21.6L262.8,73.1z M247.9,67.6c11.5,3,6.9,11.5,2.9,7.8c-0.1-2.5-1.7-5.6-3.3-7.5L247.9,67.6z"/>
	<path class="st1" d="M283,102.1c-0.1,0.3-1.7,1.2-3,1.2h-0.5v-3.6h-4v4.5c0,0.3-1.2,1.2-2.9,1.2H272V70.6l4.1,1.7h2.9l1.9-2.1
		l4,3.2c-0.3,0.4-1,0.7-1.9,0.9V102.1z M275.5,73.6v11.6h4V73.6H275.5z M279.5,98.4V86.5h-4v11.8L279.5,98.4L279.5,98.4z
		 M310.8,81.3c0,0.2-0.8,0.6-1.6,0.9c0.7,0.6,2.5,1.9,3.7,3c-0.1,0.5-0.6,0.7-1.2,0.7h-8.3v3h3.2l1.8-1.8l3.8,2.9
		c-0.2,0.3-0.9,0.6-1.7,0.8v4.6c0,0.3-1.8,1.1-2.9,1.1H307v-1.3h-18.2c-0.3,5-1.6,10.9-6,15.3l-0.5-0.5c2.9-5.9,3.1-13.1,3.1-19.1
		v-8l4.2,1.7h8c0-0.9-0.5-1.9-1.1-2.8c-0.6,0.3-1.6,0.7-2.3,0.7h-0.5v-7.1h-5.1v6.5c0,0.3-1.4,0.9-2.6,0.9h-0.5V72.7l3.3,1.4h4.6
		l1.6-1.5l3.2,2.4c-0.2,0.3-0.6,0.6-1.3,0.7v5c1.3,0.2,2.3,0.6,2.8,1.2v-9.2l3.3,1.4h4.3l1.6-1.6l3.4,2.6c-0.2,0.3-0.7,0.6-1.4,0.7
		L310.8,81.3L310.8,81.3z M284.6,72l-0.4-1.3h8.8l1.8-2.4c0,0,2.2,1.7,3.4,3c-0.1,0.5-0.5,0.7-1.1,0.7H284.6z M297.1,98.4
		c0,0,1.7,1.5,2.8,2.6c-0.1,0.5-0.6,0.7-1.1,0.7h-5.2v3.7c1.7-0.4,3.8-0.8,5.8-1.2l0.2,0.6c-1.5,0.8-4.5,2.6-7.6,4.2
		c-0.3,0.6-0.7,1-1.1,1.2l-2.1-4.1c1.2-0.7,1.3-1,1.3-1.7v-8.6l4.9,0.6c-0.1,0.6-0.5,0.9-1.4,1.1v3h2L297.1,98.4z M288.9,90.9
		c0,0.9,0,1.9,0,2.9h3.9v-3.5H289v0.6H288.9z M288.9,85.9v3h3.8v-3H288.9z M289.5,76.7c5.8,1.6,3.4,5.9,1.2,4.1
		c0-1.3-0.8-2.9-1.7-3.8L289.5,76.7z M299.9,85.9h-3.8v3h3.8V85.9z M296.1,93.8h3.8v-3.5h-3.8V93.8z M299.2,72l-0.4-1.3h8.2l2-2.5
		c0,0,2.3,1.8,3.6,3.1c-0.1,0.5-0.6,0.7-1.2,0.7H299.2z M306.7,84.6l1.8-2.3c-0.1,0-0.3,0-0.5,0h-0.5v-6.9h-4.8v6.1
		c0,0.3-1.4,0.9-2.7,0.9c0.4,0.8,0.2,1.6-0.3,2.1h7V84.6z M311.1,105.6c1,0.4,1.2,0.8,1.2,1.4c0,1.5-1.4,2.1-5.9,2.1h-2.7
		c-2.9,0-3.4-0.8-3.4-3.1V95.8l4.8,0.5c-0.1,0.6-0.5,1-1.3,1.1v2.9h2.3l1.7-2.3c0,0,2,1.7,3.2,2.9c-0.1,0.5-0.6,0.7-1.2,0.7h-5.9
		v3.7c0,0.5,0.1,0.6,1,0.6h1.9c0.8,0,1.5,0,1.8,0s0.6,0,0.8-0.3c0.3-0.5,0.7-1.9,1.2-3.5h0.6L311.1,105.6z M303.2,76.7
		c5.8,1.6,3.4,6,1.2,4.1c0-1.3-0.8-2.9-1.7-3.8L303.2,76.7z M303.4,90.3v3.5h3.6v-3.5H303.4z"/>
	<path class="st1" d="M345.3,93.2c3.4,2.4,9,4.1,13.5,4.8v0.5c-1.6,0.4-2.5,1.7-3,3.7c-4.7-1.9-9.4-5.1-12-9h-10.3
		c-4,4-9.6,7.5-17,9.4l-0.4-0.6c5.3-2.3,9.5-5.4,12.6-8.8h-11.1l-0.4-1.3h12.6c1.1-1.3,1.9-2.6,2.7-4h-4.3v0.9
		c0,0.4-1.9,1.3-3.6,1.3H324v-15l4.6,1.8h17.6L348,75c-0.9,0.5-2.4,0.7-4.1,0.3l0.5-2.9h-5.1l-0.4-1.3h5.7l0.7-4l5.6,1
		c-0.1,0.5-0.6,1-1.7,1.1l-0.4,2h3.5l2.1-2.9c0,0,2.5,2,4,3.5c-0.1,0.5-0.6,0.7-1.2,0.7h-8.6l-0.5,2.3l0.1-0.1l4.4,3.3
		c-0.3,0.3-0.9,0.7-1.7,0.9v9.2c0,0.4-2.2,1.3-3.6,1.3h-0.7v-1.5h-12l4.3,1.1c-0.2,0.5-0.7,0.8-2.2,0.8c-0.6,0.7-1.2,1.4-1.8,2.1h16
		l2.4-2.8c0,0,2.7,1.9,4.4,3.4c-0.1,0.5-0.6,0.7-1.2,0.7C356.5,93.2,345.3,93.2,345.3,93.2z M317,71.2h8.8l-0.5-3.9l5.7,0.4
		c0,0.5-0.4,1-1.3,1.3l0.3,2.2h1.7l2.2-2.9c0,0,2.4,2,3.9,3.5c-0.1,0.5-0.6,0.7-1.2,0.7h-6.3l0.3,2.1c-0.6,0.8-2.2,1.1-4.1,1.1
		l-0.4-3.3h-8.8L317,71.2z M329.1,97.7c1.4,5-0.7,8.2-2.8,9.2c-1.3,0.7-3.2,0.6-3.6-0.8c-0.4-1.2,0.5-2.3,1.6-2.8
		c1.9-0.8,4-3,4.1-5.7h0.7V97.7z M328.1,78.2v3.5h18.4v-3.5H328.1z M328.1,86.6h18.4v-3.5h-18.4V86.6z M340.1,94.6
		c-0.1,0.6-0.6,1-1.6,1.2v9.9c0,3-0.6,4.6-5.2,5.1c-0.1-1.2-0.3-2.2-0.8-2.8c-0.6-0.6-1.3-1.1-3.1-1.3V106c0,0,3.5,0.3,4.2,0.3
		c0.6,0,0.8-0.2,0.8-0.7V94L340.1,94.6z M340.3,98.2c8.9,4.6,4.8,11.2,1.7,8c0-2.5-1.2-5.7-2.3-7.8L340.3,98.2z M344.4,97.6
		c12.7,4,9.6,12.1,5.4,9.3c-0.9-3-3.7-6.7-5.9-9L344.4,97.6z"/>
	<path class="st1" d="M366.9,97.7c1.6,4.8,1.1,8.4-0.3,10.1c-0.9,1.2-3.1,1.4-3.8,0c-0.6-1.2,0-2.5,1-3.3c1.2-1.2,2.6-4.2,2.4-6.8
		C366.2,97.7,366.9,97.7,366.9,97.7z M362.9,91.4c0,0,1.1-0.2,1.6-0.6c2.4-1.7,5.4-4.8,8-8.1c-1.9,0.6-4.2,1.4-6.7,2.1
		c-0.3,0.6-0.7,1-1.2,1.1l-2-5.1c0,0,0.9-0.2,1.3-0.5c2.9-2.5,6.6-9.2,7.8-12.8l5.5,3c-0.2,0.4-0.8,0.7-1.7,0.6c-2.2,3-6,7-9.5,9.8
		c2.2,0,4.9,0,7.8,0c1.7-2.3,3.1-4.4,3.9-6.1l5.2,3.4c-0.2,0.4-0.9,0.7-1.8,0.5c-2.9,3.7-8.8,9.1-14.1,12.6c2.6-0.1,6.2-0.4,10-0.7
		c-0.5-1.6-1.2-3.2-1.9-4.4l0.6-0.2c9.1,4.8,5.2,11.5,2.1,8.5c0-0.8-0.2-1.7-0.4-2.6c-2.9,1.1-6.9,2.4-11.4,3.7
		c-0.4,0.5-0.8,0.8-1.2,1L362.9,91.4z M371.2,96.4c6.8,6.1,2.4,12.3-0.3,8.9c0.6-2.9,0.2-6.3-0.3-8.7L371.2,96.4z M376.2,95.2
		c8.5,4.3,4.2,10.9,1.3,7.7c0.2-2.5-0.8-5.5-1.8-7.5L376.2,95.2z M390.1,97.4c-0.2,0.5-0.6,0.7-1.7,0.6c-1.9,3.3-5.2,7.7-9,10.5
		l-0.5-0.5c2.7-3.7,5-9.4,5.9-13.2L390.1,97.4z M397.2,84c10.4,5.2,6.4,12.6,2.9,9.3c-0.1-1.1-0.4-2.4-0.9-3.6
		c-1.2,0.3-2.6,0.7-4.1,1.2V105c0,2.9-0.7,5-5.4,5.4c-0.1-1.2-0.3-2.3-0.8-2.9c-0.6-0.6-1.5-1.1-3.5-1.4v-0.8c0,0,4,0.3,4.9,0.3
		c0.7,0,0.9-0.3,0.9-0.8v-13c-1.9,0.6-4,1.1-6.2,1.6c-0.4,0.6-0.9,0.9-1.3,1.1l-1.7-5.1c0,0,1.1-0.2,1.7-0.5
		c2.6-1.7,5.8-4.6,8.6-7.6c-2,0.7-4.5,1.6-7.2,2.4c-0.3,0.6-0.7,0.9-1.2,1.1l-2-4.9c0,0,1-0.2,1.4-0.5c3.1-2.4,7.2-8.9,8.7-12.4
		l5.5,2.9c-0.2,0.4-0.8,0.7-1.7,0.6c-2.4,2.9-6.6,6.9-10.3,9.5c2.3,0,5.2-0.2,8.2-0.4c2-2.3,3.7-4.6,4.7-6.4l4.8,3.6
		c-0.3,0.4-0.9,0.6-1.8,0.4c-3.2,3.5-9.5,8.7-15.2,12.2c3.3-0.2,7.9-0.5,12.8-0.8c-0.6-1.6-1.4-3.2-2.2-4.4L397.2,84z M397.2,95.2
		c12.1,5.7,8.3,14.5,4.4,11c-0.5-3.5-2.9-7.8-4.8-10.7L397.2,95.2z"/>
</g>
</svg>
