<svg xmlns="http://www.w3.org/2000/svg" width="496.531" height="102.466" viewBox="0 0 496.531 102.466">
  <defs>
    <style>
      .cls-1 {
        fill: #fff;
        fill-rule: evenodd;
      }
    </style>
  </defs>
  <path id="head-about.svg" class="cls-1" d="M629.885,978.478h19.478a1.125,1.125,0,0,0,1.241-.735c-1.47-1.424-3.905-3.354-3.905-3.354l-2.113,2.711h-3.032v-4.365c1.1-.183,1.47-0.6,1.562-1.24l-5.191-.459V977.1h-8.361Zm2.849,0.459a18.842,18.842,0,0,1,2.021,7.4c2.756,2.757,6.294-3.123-1.47-7.625Zm17.916,9.831a1.124,1.124,0,0,0,1.24-.735c-1.516-1.424-4.042-3.445-4.042-3.445l-2.114,2.848h-3.675a49.515,49.515,0,0,0,4.548-6.477,1.5,1.5,0,0,0,1.654-.873l-5.007-1.47a62.351,62.351,0,0,1-2.251,8.82H628.737l0.368,1.332H650.65Zm-9.234,9.142v-2.021h8.407a1.124,1.124,0,0,0,1.24-.735c-1.47-1.425-3.767-3.308-3.767-3.308l-2.113,2.71h-3.767v-3.491a1.394,1.394,0,0,0,1.47-1.148l-5.007-.552v5.191H629.2l0.368,1.333h7.074a35.754,35.754,0,0,1-7.993,13.231l0.551,0.64a33.786,33.786,0,0,0,8.683-8.63v12.22h0.689c1.286,0,2.848-.79,2.848-1.15V998.415c1.884,1.655,4.043,4.315,4.5,6.525,3.4,2.3,6.064-4.64-4.41-7.122Zm23.659-10.888h-8.867v-9.785a75.147,75.147,0,0,0,12.036-2.71c1.195,0.368,1.976.322,2.389-.092l-4.226-3.445A49.94,49.94,0,0,1,656.668,976l-4.089-1.332v15.114c0,8.636-1.01,16.671-7.718,22.921l0.552,0.6c9.739-6.02,10.795-15.206,10.795-23.475v-1.47h6.064v25h0.6c1.884,0,3.078-.88,3.078-1.15V988.355h4.64a1.124,1.124,0,0,0,1.24-.735c-1.653-1.562-4.364-3.721-4.364-3.721Zm14.673-11.714c2.664,1.838,5.742,5.053,6.753,7.856,4.318,2.526,6.8-6.156-6.34-8.269Zm14.195,16.446c-6.845,3.537-13.874,6.937-16.584,8.039l2.756,4.457a1.8,1.8,0,0,0,.827-1.38c5.926-4.409,10.337-8.084,13.277-10.611Zm11.9-9.693v-0.276h8.774a47.494,47.494,0,0,1-3.767,9.05l0.506,0.368a34.868,34.868,0,0,0,7.488-8.683,2.74,2.74,0,0,0,1.837-.5l-4-3.813-2.251,2.251H698.491a47.81,47.81,0,0,0,2.986-6.937,1.588,1.588,0,0,0,1.792-.918l-5.743-1.746c-1.654,8.131-5.237,15.619-9.1,20.351l0.6,0.459a31.525,31.525,0,0,0,8.682-9.877h4.456c-0.551,14.839-4.134,24.345-19.065,30.875l0.368,0.64c15.665-4.82,20.535-13.28,21.959-26.6,0.872,11.439,3.353,21.179,11.484,26.6a3.959,3.959,0,0,1,3.446-3.45l0.092-.5c-10.612-5.47-13.6-14.656-14.471-27.335Zm57.167-5.6a1.124,1.124,0,0,0,1.24-.735c-1.746-1.562-4.64-3.767-4.64-3.767l-2.526,3.215H731.448l0.321,1.287h31.239Zm4.686,23.933h-0.6a45.621,45.621,0,0,1-1.745,7.3,0.864,0.864,0,0,1-.965.69,36.945,36.945,0,0,1-3.9.1H756.3c-1.7,0-1.93-.28-1.93-1.11V987.8h13.047a1.123,1.123,0,0,0,1.24-.735c-1.791-1.607-4.777-3.858-4.777-3.858l-2.619,3.261H726.578l0.414,1.332h12.265c-0.321,11.439-2.664,19.207-13.276,24.987l0.322,0.65c13.276-4.73,16.446-12.77,17.135-25.637h7.212v20.487c0,2.9.919,3.72,4.87,3.72H760.3c7.351,0,8.912-.64,8.912-2.29,0-.78-0.229-1.24-1.378-1.7Zm-314.73,31.47c1.93,1.52,4.227,4.09,4.87,6.34,3.767,2.21,6.248-5.23-4.456-6.7Zm-3.215,10.38c1.837,1.34,3.95,3.73,4.5,5.84,3.583,2.3,6.11-4.78-4.089-6.25Zm13.276-3.81c-8.269,19.02-8.269,19.02-9.142,20.67-0.459.97-.6,0.97-1.194,0.97h-2.022v0.96a4.148,4.148,0,0,1,2.251.69c1.057,0.74,1.333,4.5.6,9.24,0.183,1.51.873,2.29,1.791,2.29,1.654,0,2.711-1.28,2.8-3.35,0.183-3.81-1.287-5.83-1.333-7.99a16.4,16.4,0,0,1,.735-4.14c0.643-2.34,4.365-13.27,6.34-19.11Zm27.747,24.17h-0.6a32.137,32.137,0,0,1-1.792,5.74,1.4,1.4,0,0,1-1.378.73c-1.1.09-3.859,0.14-7.35,0.14h-8.131c-2.8,0-3.124-.27-3.124-1.19V1055.7h8.59v1.7h0.552c1.1,0,2.848-.68,2.894-1.01v-9.23a3.046,3.046,0,0,0,1.745-.83l-3.858-2.89-1.746,1.88H466.1a43.834,43.834,0,0,0,4.5-5.83h15.941c-0.276,11.39-.781,17.96-2.022,19.16a1.97,1.97,0,0,1-1.562.5c-0.918,0-3.767-.23-5.512-0.41l-0.046.78a9.734,9.734,0,0,1,3.951,1.33,3.26,3.26,0,0,1,.826,2.53,6.806,6.806,0,0,0,4.962-1.75c1.883-2.02,2.618-8.54,2.894-21.68a2.535,2.535,0,0,0,1.837-.69l-3.812-3.26-1.976,2.16H471.432a44.5,44.5,0,0,0,2.389-4.6c1.148,0,1.516-.27,1.7-0.82l-5.7-1.8c-1.24,5.29-4.364,12.82-8.407,17.74l0.505,0.41a29.373,29.373,0,0,0,3.676-3.22l0.229,0.79H476.99v7.71h-8.039l-4.134-1.7v16.08c0,3.13,1.286,3.77,6.477,3.77h8.131c11.255,0,13.184-.6,13.184-2.39,0-.74-0.413-1.15-1.745-1.56Zm8.15-21.64a9.6,9.6,0,0,0,0,2.3c0.321,1.79,2.894,4.08,4.685,4.08,1.057,0,2.022-.82,2.94-1.28a84.293,84.293,0,0,1,14.425-4.83c0.506-.09.551,0.19,0.23,0.42-5.191,3.95-7.258,9.92-7.258,15.66,0,5.38,1.653,8.27,4.593,10.34,3.078,2.2,7.3,2.48,10.2,2.48,2.113,0,3.629-.46,3.629-1.84,0-1.28-1.654-2.29-2.894-2.29-1.7,0-5.651.27-8.545-1.43-1.791-1.06-3.9-3.03-3.9-8.13,0-8.77,4.364-12.91,6.293-14.1a14.557,14.557,0,0,1,7.626-1.79c1.608,0,2.986.13,4,.13a1.547,1.547,0,0,0,1.791-1.42,2.116,2.116,0,0,0-1.608-1.88,8.456,8.456,0,0,0-3.445-.6,67.2,67.2,0,0,0-10.612,2.02c-7.718,1.79-15.941,4.18-18.467,4.18-1.057,0-2.251-1.1-2.94-2.3Zm32.708,3.4a22.793,22.793,0,0,1,4.226,3.81c0.919,1.15,1.424,2.11,2.205,2.11a1.116,1.116,0,0,0,1.195-1.28,3.571,3.571,0,0,0-1.654-2.85,17.444,17.444,0,0,0-5.467-2.57Zm-4.134,3.03a20.862,20.862,0,0,1,4.18,4.23c0.919,1.14,1.424,2.11,2.113,2.11a1.256,1.256,0,0,0,1.286-1.38,3.59,3.59,0,0,0-1.47-2.66,17.945,17.945,0,0,0-5.512-3.08Zm52.8,6.57v13.92H567.8v-17.92H578v2.48h0.643c1.378,0,2.986-.69,2.986-1.01v-14.38c1.1-.18,1.47-0.59,1.562-1.19l-5.191-.55v13.37H567.8V1033.1a1.612,1.612,0,0,0,1.608-1.28l-5.375-.6v17.46h-9.922v-11.63c1.1-.18,1.516-0.59,1.607-1.19l-5.191-.55v17.36h0.689c1.333,0,2.895-.69,2.895-1.05v-1.66h9.922v17.92H551.906V1055.7c1.148-.18,1.515-0.59,1.607-1.19l-5.145-.55v19.34h0.643c1.333,0,2.895-.69,2.895-1.06v-3.03H580.3v3.68h0.643c1.332,0,2.94-.69,2.94-1.11V1055.7c1.1-.18,1.516-0.59,1.608-1.19Zm13.385-13.14a9.6,9.6,0,0,0,0,2.3c0.322,1.79,2.894,4.09,4.686,4.09,1.056,0,2.021-.83,2.94-1.29a84.358,84.358,0,0,1,14.425-4.82c0.5-.1.551,0.18,0.229,0.41-5.191,3.95-7.258,9.92-7.258,15.66,0,5.38,1.654,8.27,4.594,10.34,3.078,2.21,7.3,2.48,10.2,2.48,2.114,0,3.629-.46,3.629-1.84,0-1.28-1.653-2.29-2.894-2.29-1.7,0-5.65.27-8.544-1.43-1.792-1.05-3.905-3.03-3.905-8.13,0-8.77,4.364-12.91,6.294-14.1a14.552,14.552,0,0,1,7.625-1.79c1.608,0,2.986.14,4,.14a1.553,1.553,0,0,0,1.792-1.43,2.127,2.127,0,0,0-1.608-1.88,8.461,8.461,0,0,0-3.446-.6,67.2,67.2,0,0,0-10.611,2.02c-7.718,1.79-15.941,4.18-18.468,4.18-1.056,0-2.251-1.1-2.94-2.29Zm60.875-4.23a3.083,3.083,0,0,1-1.057,1.98c-2.021,2.53-8.728,9.19-11.071,11.99a3.85,3.85,0,0,0-1.24,2.57,4.073,4.073,0,0,0,1.745,2.99c5.513,4.68,8.913,8.04,10.934,11.21a33.012,33.012,0,0,1,2.251,3.99,2.212,2.212,0,0,0,1.929,1.24,2.037,2.037,0,0,0,2.159-2.29c0-1.43-.872-3.13-2.251-4.87-3.215-4.09-7.534-7.08-12.173-10.66-1.011-.78-1.562-1.33-1.562-1.98,0-.55.321-1.05,1.608-2.38,1.929-1.93,7.809-7.17,10.979-9.61,1.7-1.24,2.664-1.6,2.664-2.71,0-1.28-1.837-3.39-3.767-4.41a9.285,9.285,0,0,0-3.077-.91l-0.552.78C653.821,1034.8,654.556,1035.77,654.556,1036.59Zm36.666,31.56c-4.181,0-6.2-1.33-6.2-2.98,0-1.47,1.2-2.39,2.894-2.39,2.573,0,4.686,1.88,5.283,5.28C692.554,1068.11,691.911,1068.15,691.222,1068.15Zm-10.061-32.57a6.849,6.849,0,0,0-.092,2.71c0.276,1.43,2.068,3.73,4.089,3.73,0.827,0,1.516-.69,2.389-1.11a44.5,44.5,0,0,1,7.074-2.62c0.6-.13.919,0.14,0.414,0.88-2.067,3.12-10.75,11.39-17.181,18-1.2,1.2-1.7,1.93-1.746,2.9a1.819,1.819,0,0,0,1.424,2.16c0.781,0.04,1.195-.28,2.021-1.29,3.859-5.01,8.407-9.23,14.931-9.23,5.558,0,8.544,3.72,8.406,7.76-0.046,3.45-2.113,6.62-6.523,8a7.645,7.645,0,0,0-7.626-6.53c-3.124,0-5.466,1.93-5.466,4.55,0,3.49,3.675,5.65,8.866,5.65,8.912,0,14.149-4.82,14.241-10.66,0.092-6.52-5.008-10.43-11.026-10.43a22.716,22.716,0,0,0-7.855,1.57c-0.414.18-.643-0.19-0.276-0.55a141.869,141.869,0,0,1,10.52-9.7c1.562-1.33,2.8-1.47,2.8-2.43,0-1.47-2.848-3.68-4.456-3.68-0.735,0-.827.55-2.067,0.92-2.159.69-7.718,2.07-9.463,2.07-1.2,0-1.976-1.38-2.619-2.76Zm44.712,31.89v-14.89h20.535v14.89H725.873Zm20.535-30.51v14.29H725.873v-14.29h20.535Zm1.562-3.63-2.021,2.3H726.241l-4.135-1.84v39.19h0.69c1.7,0,3.077-.97,3.077-1.43v-2.75h20.535v3.9h0.6c1.378,0,3.262-.96,3.308-1.28v-33.77a3.009,3.009,0,0,0,1.883-.96Zm32.222,1.15c2.756,0.83,4.272,2.16,4.778,3.22,0.321,0.69.137,1.01-.506,1.1-1.286.14-4.777,0.37-8.315,0.64-1.47.09-3.721-.18-4.134,2.48-0.368,1.75.643,2.58,1.516,3.68,0.643,0.78,1.378,1.74,2.3,3.08-1.241.59-2.481,1.24-3.721,1.88a10.59,10.59,0,0,1-4.043,1.47c-1.057,0-1.975-1.06-2.71-2.11l-0.873.41a4.473,4.473,0,0,0,.643,2.99,6.392,6.392,0,0,0,4.226,2.66c1.379,0,2.022-1.01,4.135-2.39,1.24-.83,2.572-1.65,3.9-2.48a60.268,60.268,0,0,1,5.466,12.63c0.873,2.94,1.287,5.47,1.654,6.57,0.414,1.43,1.011,1.98,1.884,1.98,1.24,0,1.975-1.01,1.975-2.48a21.607,21.607,0,0,0-1.654-6.34,93.938,93.938,0,0,0-6.891-13.87c5.513-3.31,11.209-6.11,15.711-6.11,3.492,0,6.248,2.2,6.248,5.46,0,3.45-2.756,5.51-6.615,5.51a13.573,13.573,0,0,1-8.958-3.26l-0.781.69c2.94,3.81,6.615,5.61,10.06,5.61,5.421,0,9.694-2.85,9.694-7.72,0-4.55-3.676-7.95-9.464-7.95-5.007,0-10.979,2.44-17.319,5.56-1.424-1.98-3.261-4.23-3.261-5.19,0-.92.6-1.15,1.883-1.29a53.945,53.945,0,0,1,8.315.05c1.148,0.14,2.067.55,2.894,0.55a1.393,1.393,0,0,0,1.47-1.65,5.027,5.027,0,0,0-1.47-3.36c-1.286-1.38-3.721-2.75-7.718-2.94Zm43.843,17.27c-1.24,3.08-3.261,7.91-4.134,9.38-0.414.64-.781,0.64-1.149-0.05a11.484,11.484,0,0,1-.873-4.82c0-3.91,1.654-8.09,3.078-11.12,0.735-1.52,1.47-2.76,1.47-3.86,0-2.2-2.3-4.55-3.4-5.33a10.868,10.868,0,0,0-2.8-1.38l-0.552.65c1.562,1.7,2.665,3.26,2.665,5.1,0,3.67-2.94,10.42-2.94,16.44,0,5.74,1.424,9.24,2.71,11.3,0.689,1.1,1.516,1.93,2.527,1.93a1.474,1.474,0,0,0,1.653-1.56c0-1.61-.689-2.43-0.689-3.9a11.286,11.286,0,0,1,.46-3.08c0.459-1.75,1.929-6.16,2.986-9.24Zm11.852-15.52a16.222,16.222,0,0,1,3.078.64,1.43,1.43,0,0,1,1.057,1.56c0.138,1.33.321,4.23,0.459,6.8a24.045,24.045,0,0,1-5.145.64,12.208,12.208,0,0,1-7.074-2.43l-0.552.69c2.251,3.77,5.053,4.73,7.81,4.73a32.023,32.023,0,0,0,5.1-.41c0.184,4.41.368,10.1-1.057,13.82-1.607,4.78-4.593,7.22-8.866,9.56l0.506,0.87c5.237-1.65,9.417-3.9,11.53-8.82,1.884-4.09,1.424-11.16,1.149-16.08a30.6,30.6,0,0,0,5.972-1.88c1.1-.51,1.47-1.01,1.47-1.79,0-1.06-1.516-1.7-2.665-1.7a17.594,17.594,0,0,0-2.526,1.15,23.608,23.608,0,0,1-2.389.82c-0.046-1.65-.092-3.26-0.046-4.31,0.046-1.61.689-2.39,0.689-3.13,0-1.33-3.032-2.66-4.915-2.66a10.7,10.7,0,0,0-3.676,1.01Zm56.613,33.76H881.705v-19.98h14.149a1.181,1.181,0,0,0,1.286-.74c-1.837-1.56-4.823-3.86-4.823-3.86l-2.573,3.31h-8.039v-15.16c1.194-.18,1.562-0.64,1.654-1.28l-5.513-.6v38.31h-8.82v-25.95c1.194-.19,1.608-0.65,1.7-1.29l-5.558-.55v27.79h-7.626l0.413,1.33H898.7a1.126,1.126,0,0,0,1.24-.73c-1.791-1.61-4.823-3.91-4.823-3.91Zm33.509-17.55c-0.644,1.15-1.333,2.35-2.068,3.4a13.086,13.086,0,0,1-2.48-3.21,21.619,21.619,0,0,1-1.838-5.06,17.059,17.059,0,0,1,9.739-3.35A50.7,50.7,0,0,1,926.009,1052.44Zm-6.983,8.92a6.586,6.586,0,0,1-4.272,1.79c-1.241,0-2.16-1.06-2.16-3.59,0-2.57,1.516-6.61,4.594-9.87a39.938,39.938,0,0,0,1.562,4.09,20.04,20.04,0,0,0,3.078,4.82A22.6,22.6,0,0,1,919.026,1061.36ZM934,1040.13c0.413-1.33,1.1-1.93,1.1-2.85,0-1.42-3.307-3.21-5.374-3.21a6.8,6.8,0,0,0-2.986.87l0.091,0.83a11.326,11.326,0,0,1,2.757.41,1.3,1.3,0,0,1,1.194,1.56,32.575,32.575,0,0,1-.873,4.5,21.468,21.468,0,0,0-10.749,3.4c-0.138-.59-0.276-1.19-0.414-1.7a6.489,6.489,0,0,0-3.124-3.72,10.481,10.481,0,0,0-3.721-1.51l-0.551.59c2.067,1.84,3.537,3.4,4.181,5.24,0.321,0.87.643,1.93,1.01,3.03-2.572,2.21-6.707,7.08-6.707,13.51,0,2.94,1.241,5.83,4.135,5.83a10.585,10.585,0,0,0,6.615-2.75,22.417,22.417,0,0,0,3.675-3.54,5.873,5.873,0,0,0,2.848,1.15,1.414,1.414,0,0,0,1.654-1.38c0-1.19-1.011-1.93-2.021-2.48l-0.368-.18c0.781-1.24,1.562-2.58,2.343-4.09a62.37,62.37,0,0,0,3.951-9.33,10.944,10.944,0,0,1,9.693,10.89c0,6.06-3.629,12.36-17.641,14.84l0.23,1.01c16.354-.78,21.316-7.54,21.316-15.16,0-6.98-4.87-12.59-12.955-13.51Z" transform="translate(-449.75 -970.844)"/>
</svg>
