<svg xmlns="http://www.w3.org/2000/svg" width="537.188" height="112.16" viewBox="0 0 537.188 112.16">
  <defs>
    <style>
      .cls-1 {
        fill: #fff;
        fill-rule: evenodd;
      }
    </style>
  </defs>
  <path id="head-about_sp.svg" class="cls-1" d="M244.907,2010.03H265.17a1.172,1.172,0,0,0,1.29-.76c-1.529-1.49-4.062-3.49-4.062-3.49l-2.2,2.82h-3.154v-4.54c1.147-.2,1.529-0.63,1.625-1.29l-5.4-.48v6.31h-8.7Zm2.963,0.48a19.546,19.546,0,0,1,2.1,7.69c2.867,2.87,6.547-3.25-1.529-7.93Zm18.638,10.22a1.163,1.163,0,0,0,1.291-.76c-1.577-1.48-4.206-3.58-4.206-3.58l-2.2,2.96h-3.824a51.433,51.433,0,0,0,4.732-6.74,1.549,1.549,0,0,0,1.72-.91l-5.209-1.53a64.678,64.678,0,0,1-2.342,9.18h-12.76l0.383,1.38h22.413Zm-9.606,9.52v-2.11h8.746a1.172,1.172,0,0,0,1.29-.76c-1.529-1.48-3.918-3.44-3.918-3.44l-2.2,2.82H256.9v-3.64c1.052-.14,1.482-0.62,1.53-1.19l-5.209-.57v5.4H244.19l0.382,1.38h7.36a37.238,37.238,0,0,1-8.315,13.77l0.573,0.67a35.193,35.193,0,0,0,9.033-8.99v12.71h0.716c1.339,0,2.963-.81,2.963-1.19v-14.34c1.96,1.72,4.206,4.49,4.684,6.79,3.536,2.39,6.308-4.83-4.588-7.41Zm24.612-11.33h-9.223v-10.18a78.512,78.512,0,0,0,12.521-2.82c1.243,0.38,2.055.33,2.485-.1l-4.4-3.58a51.707,51.707,0,0,1-10.131,5.21l-4.254-1.39v15.73c0,8.98-1.051,17.34-8.028,23.84l0.573,0.62c10.132-6.26,11.231-15.81,11.231-24.42v-1.53H278.6v26h0.622c1.959,0,3.2-.91,3.2-1.19V2020.3h4.827a1.163,1.163,0,0,0,1.291-.76c-1.721-1.62-4.54-3.87-4.54-3.87Zm17.34-12.19c2.772,1.91,5.974,5.26,7.025,8.17,4.492,2.63,7.073-6.4-6.6-8.6Zm14.767,17.11c-7.121,3.68-14.433,7.22-17.252,8.36l2.867,4.64a1.864,1.864,0,0,0,.86-1.43c6.165-4.59,10.753-8.41,13.812-11.04ZM326,2013.76v-0.29h9.128a49.756,49.756,0,0,1-3.919,9.42l0.526,0.38a36.314,36.314,0,0,0,7.789-9.03,2.88,2.88,0,0,0,1.912-.53l-4.158-3.97-2.341,2.34H318.352a49.215,49.215,0,0,0,3.107-7.21,1.643,1.643,0,0,0,1.863-.96l-5.973-1.81c-1.721,8.46-5.448,16.25-9.463,21.17l0.621,0.48a32.9,32.9,0,0,0,9.033-10.28h4.635c-0.573,15.44-4.3,25.33-19.833,32.12l0.383,0.66c16.3-5.01,21.362-13.81,22.844-27.67,0.908,11.9,3.488,22.04,11.947,27.67a4.109,4.109,0,0,1,3.584-3.58l0.1-.53c-11.04-5.68-14.146-15.24-15.054-28.43Zm61.545-5.83a1.168,1.168,0,0,0,1.29-.77c-1.816-1.62-4.826-3.92-4.826-3.92l-2.629,3.35H354.712l0.335,1.34h32.5Zm4.875,24.9H391.8a47.253,47.253,0,0,1-1.816,7.59,0.9,0.9,0,0,1-1,.72,39.981,39.981,0,0,1-4.062.1h-4.349c-1.769,0-2.007-.29-2.007-1.15v-20.36h13.572a1.172,1.172,0,0,0,1.29-.76c-1.863-1.68-4.97-4.02-4.97-4.02l-2.724,3.4H349.646l0.43,1.38h12.761c-0.335,11.9-2.772,19.98-13.812,26l0.335,0.67c13.811-4.92,17.109-13.29,17.825-26.67h7.5v21.32c0,3.01.955,3.87,5.065,3.87h4.971c7.646,0,9.271-.67,9.271-2.39,0-.82-0.239-1.29-1.434-1.77ZM52.611,2071.15c2.007,1.58,4.4,4.25,5.066,6.59,3.919,2.3,6.5-5.44-4.636-6.97Zm-3.345,10.8c1.912,1.38,4.11,3.87,4.684,6.07,3.728,2.39,6.356-4.97-4.253-6.5Zm13.811-3.97c-8.6,19.79-8.6,19.79-9.51,21.51-0.478,1-.621,1-1.243,1h-2.1v1a4.272,4.272,0,0,1,2.342.72c1.1,0.77,1.386,4.69.621,9.61,0.191,1.57.908,2.39,1.864,2.39,1.72,0,2.82-1.34,2.915-3.49,0.191-3.97-1.338-6.07-1.386-8.32a17.066,17.066,0,0,1,.765-4.3c0.669-2.44,4.54-13.81,6.6-19.88Zm28.865,25.14H91.321a33.266,33.266,0,0,1-1.864,5.97,1.458,1.458,0,0,1-1.434.77c-1.147.09-4.014,0.14-7.647,0.14H71.918c-2.915,0-3.25-.29-3.25-1.24v-12.81h8.937v1.77h0.573c1.147,0,2.963-.72,3.011-1.05v-9.61a3.159,3.159,0,0,0,1.816-.86l-4.014-3.01-1.816,1.96h-10.9a45.41,45.41,0,0,0,4.683-6.07H87.546c-0.287,11.85-.812,18.69-2.1,19.93a2.032,2.032,0,0,1-1.625.53c-0.956,0-3.919-.24-5.735-0.43l-0.048.81a10.147,10.147,0,0,1,4.11,1.38,3.4,3.4,0,0,1,.86,2.63,7.108,7.108,0,0,0,5.161-1.81c1.959-2.11,2.724-8.89,3.011-22.56a2.688,2.688,0,0,0,1.912-.72l-3.967-3.39-2.055,2.25H71.823a47.24,47.24,0,0,0,2.485-4.78c1.195,0,1.577-.29,1.768-0.86l-5.926-1.87c-1.29,5.5-4.54,13.34-8.746,18.45l0.526,0.43a30.543,30.543,0,0,0,3.823-3.35l0.239,0.82H77.605v8.03H69.242l-4.3-1.77v16.72c0,3.25,1.338,3.92,6.738,3.92h8.459c11.709,0,13.716-.62,13.716-2.48,0-.77-0.43-1.2-1.816-1.63Zm10.551-22.51a9.934,9.934,0,0,0,0,2.39c0.334,1.86,3.011,4.25,4.874,4.25,1.1,0,2.1-.86,3.059-1.33a87.321,87.321,0,0,1,15.006-5.02c0.526-.1.574,0.19,0.239,0.43-5.4,4.11-7.551,10.32-7.551,16.29,0,5.6,1.721,8.61,4.779,10.76,3.2,2.29,7.6,2.58,10.61,2.58,2.2,0,3.775-.48,3.775-1.91,0-1.34-1.72-2.39-3.011-2.39-1.768,0-5.878.28-8.889-1.49-1.863-1.09-4.062-3.15-4.062-8.45,0-9.13,4.54-13.43,6.548-14.68a15.248,15.248,0,0,1,7.933-1.86c1.672,0,3.106.14,4.157,0.14a1.612,1.612,0,0,0,1.864-1.48c0-.86-0.573-1.48-1.672-1.96a8.922,8.922,0,0,0-3.585-.62c-1.577,0-5.687.81-11.039,2.1-8.029,1.87-16.583,4.35-19.212,4.35-1.1,0-2.342-1.14-3.059-2.39Zm34.027,3.54a23.848,23.848,0,0,1,4.4,3.96c0.956,1.2,1.482,2.2,2.294,2.2a1.164,1.164,0,0,0,1.243-1.34,3.708,3.708,0,0,0-1.721-2.96,18.3,18.3,0,0,0-5.687-2.68Zm-4.3,3.15a21.848,21.848,0,0,1,4.349,4.4c0.956,1.19,1.482,2.2,2.2,2.2a1.312,1.312,0,0,0,1.338-1.44,3.736,3.736,0,0,0-1.529-2.77,18.676,18.676,0,0,0-5.735-3.2Zm57,6.84v14.48h-13v-18.64h10.609v2.58h0.669c1.434,0,3.107-.72,3.107-1.05v-14.96c1.147-.19,1.529-0.62,1.624-1.24l-5.4-.58v13.91H176.216v-16.2a1.681,1.681,0,0,0,1.672-1.34l-5.591-.62v18.16H161.974v-12.09c1.147-.19,1.577-0.62,1.673-1.24l-5.4-.58v18.07h0.717c1.386,0,3.011-.72,3.011-1.1v-1.72H172.3v18.64H159.68v-12.67c1.195-.19,1.577-0.62,1.673-1.24l-5.353-.57v20.11h0.669c1.386,0,3.011-.71,3.011-1.09V2110h29.535v3.82h0.669c1.386,0,3.058-.71,3.058-1.14v-16.73c1.147-.19,1.577-0.62,1.673-1.24Zm15.994-13.67a9.983,9.983,0,0,0,0,2.39c0.334,1.86,3.011,4.25,4.874,4.25,1.1,0,2.1-.86,3.059-1.34a88.2,88.2,0,0,1,15.006-5.02c0.526-.09.574,0.2,0.239,0.43-5.4,4.11-7.551,10.33-7.551,16.3,0,5.59,1.721,8.6,4.779,10.75,3.2,2.3,7.6,2.58,10.61,2.58,2.2,0,3.775-.47,3.775-1.91,0-1.34-1.72-2.39-3.011-2.39-1.768,0-5.878.29-8.889-1.48-1.863-1.1-4.062-3.15-4.062-8.46,0-9.13,4.54-13.43,6.548-14.67a15.151,15.151,0,0,1,7.933-1.86c1.672,0,3.106.14,4.158,0.14a1.611,1.611,0,0,0,1.863-1.48c0-.86-0.573-1.48-1.672-1.96a8.922,8.922,0,0,0-3.585-.62c-1.577,0-5.687.81-11.039,2.1-8.029,1.86-16.583,4.35-19.212,4.35-1.1,0-2.342-1.15-3.058-2.39Zm65.372-4.4a3.224,3.224,0,0,1-1.1,2.06c-2.1,2.62-9.081,9.55-11.518,12.47a4,4,0,0,0-1.29,2.68,4.232,4.232,0,0,0,1.816,3.1c5.735,4.88,9.271,8.36,11.374,11.66a34.417,34.417,0,0,1,2.342,4.16,2.3,2.3,0,0,0,2.007,1.29,2.122,2.122,0,0,0,2.246-2.39c0-1.48-.908-3.25-2.342-5.06-3.345-4.26-7.837-7.36-12.664-11.09-1.052-.81-1.625-1.39-1.625-2.06,0-.57.334-1.1,1.673-2.48,2.007-2.01,8.124-7.46,11.421-9.99,1.769-1.29,2.772-1.67,2.772-2.82,0-1.34-1.911-3.54-3.918-4.59a9.745,9.745,0,0,0-3.2-.95l-0.574.81C269.816,2074.21,270.581,2075.21,270.581,2076.07Zm40.189,32.83c-4.349,0-6.452-1.38-6.452-3.1,0-1.53,1.243-2.49,3.011-2.49,2.676,0,4.875,1.96,5.5,5.5C312.156,2108.85,311.487,2108.9,310.77,2108.9ZM300.3,2075.02a7.1,7.1,0,0,0-.1,2.82c0.287,1.48,2.151,3.87,4.253,3.87,0.861,0,1.578-.72,2.486-1.15a45.633,45.633,0,0,1,7.359-2.72c0.622-.14.956,0.14,0.43,0.91-2.15,3.25-11.183,11.85-17.873,18.73-1.243,1.24-1.768,2.01-1.816,3.01a1.9,1.9,0,0,0,1.481,2.25c0.813,0.05,1.243-.29,2.1-1.34,4.014-5.21,8.746-9.61,15.532-9.61,5.783,0,8.889,3.87,8.746,8.08-0.048,3.58-2.2,6.88-6.787,8.32a7.952,7.952,0,0,0-7.933-6.79c-3.25,0-5.687,2.01-5.687,4.73,0,3.63,3.823,5.88,9.224,5.88,9.271,0,14.719-5.02,14.815-11.09,0.1-6.78-5.21-10.85-11.47-10.85a23.589,23.589,0,0,0-8.172,1.63c-0.43.19-.669-0.19-0.287-0.58,2.1-2.19,8.316-8.07,10.944-10.08,1.625-1.39,2.915-1.53,2.915-2.53,0-1.53-2.963-3.83-4.635-3.83-0.765,0-.861.58-2.151,0.96-2.246.72-8.029,2.15-9.845,2.15-1.242,0-2.055-1.43-2.724-2.87Zm48.575,33.17V2092.7h21.362v15.49H348.879Zm21.362-31.74v14.87H348.879v-14.87h21.362Zm1.625-3.77-2.1,2.39h-20.5l-4.3-1.91v40.76h0.717c1.768,0,3.2-1,3.2-1.48v-2.87h21.362v4.06h0.621c1.434,0,3.393-1,3.441-1.33v-35.13a3.127,3.127,0,0,0,1.959-1Zm35.6,1.19c2.867,0.86,4.444,2.25,4.97,3.35,0.334,0.71.143,1.05-.526,1.14-1.338.15-4.97,0.39-8.65,0.67-1.529.1-3.871-.19-4.3,2.58-0.382,1.82.669,2.68,1.577,3.83,0.669,0.81,1.434,1.81,2.39,3.2-1.291.62-2.581,1.29-3.871,1.96a11.085,11.085,0,0,1-4.206,1.53c-1.1,0-2.055-1.1-2.82-2.2l-0.908.43a4.679,4.679,0,0,0,.669,3.11,6.661,6.661,0,0,0,4.4,2.77c1.434,0,2.1-1.05,4.3-2.49,1.291-.86,2.677-1.72,4.062-2.58a62.728,62.728,0,0,1,5.687,13.14c0.908,3.06,1.339,5.69,1.721,6.84,0.43,1.48,1.051,2.05,1.959,2.05,1.291,0,2.055-1.05,2.055-2.58a22.516,22.516,0,0,0-1.72-6.59,97.738,97.738,0,0,0-7.169-14.43c5.735-3.45,11.661-6.36,16.345-6.36,3.632,0,6.5,2.29,6.5,5.69,0,3.58-2.867,5.73-6.882,5.73a14.136,14.136,0,0,1-9.319-3.39l-0.812.71c3.058,3.97,6.882,5.84,10.466,5.84,5.639,0,10.084-2.97,10.084-8.03,0-4.73-3.824-8.27-9.845-8.27-5.209,0-11.422,2.53-18.017,5.78-1.482-2.05-3.393-4.4-3.393-5.4,0-.95.621-1.19,1.959-1.34a57.035,57.035,0,0,1,8.65.05c1.195,0.14,2.151.57,3.011,0.57a1.446,1.446,0,0,0,1.529-1.72,5.224,5.224,0,0,0-1.529-3.49c-1.338-1.43-3.871-2.86-8.029-3.05Zm47.678,17.97c-1.291,3.2-3.393,8.22-4.3,9.75-0.43.67-.813,0.67-1.195-0.05a11.942,11.942,0,0,1-.908-5.02c0-4.06,1.72-8.41,3.2-11.56,0.764-1.58,1.529-2.87,1.529-4.01,0-2.3-2.389-4.74-3.536-5.55a11.158,11.158,0,0,0-2.916-1.43l-0.573.67c1.625,1.77,2.772,3.39,2.772,5.3,0,3.82-3.059,10.85-3.059,17.11,0,5.97,1.482,9.61,2.82,11.76,0.717,1.14,1.577,2,2.628,2a1.532,1.532,0,0,0,1.721-1.62c0-1.67-.717-2.53-0.717-4.06a11.739,11.739,0,0,1,.478-3.2c0.478-1.82,2.007-6.41,3.106-9.61Zm12.33-16.15a16.539,16.539,0,0,1,3.2.67,1.485,1.485,0,0,1,1.1,1.62c0.143,1.39.334,4.4,0.478,7.08a24.778,24.778,0,0,1-5.353.66,12.68,12.68,0,0,1-7.359-2.53l-0.574.72c2.342,3.92,5.257,4.92,8.124,4.92a32.281,32.281,0,0,0,5.3-.43c0.191,4.59.382,10.51-1.1,14.39-1.673,4.97-4.779,7.5-9.224,9.94l0.526,0.9c5.448-1.72,9.8-4.06,12-9.17,1.96-4.26,1.482-11.62,1.195-16.73a31.892,31.892,0,0,0,6.213-1.96c1.147-.52,1.529-1.05,1.529-1.86,0-1.1-1.577-1.77-2.772-1.77a19.171,19.171,0,0,0-2.628,1.19,22.2,22.2,0,0,1-2.485.86c-0.048-1.72-.1-3.39-0.048-4.49,0.048-1.67.717-2.48,0.717-3.25,0-1.38-3.154-2.77-5.114-2.77a11.365,11.365,0,0,0-3.823,1.05Zm60.963,35.12H517.2v-20.78h14.72a1.229,1.229,0,0,0,1.338-.77c-1.912-1.62-5.018-4.01-5.018-4.01l-2.676,3.44H517.2v-15.77c1.243-.19,1.625-0.67,1.721-1.34l-5.735-.62v39.85h-9.176v-27c1.243-.19,1.673-0.67,1.768-1.34L500,2081.9v28.91h-7.933l0.43,1.39h42.39a1.172,1.172,0,0,0,1.29-.76c-1.864-1.68-5.018-4.07-5.018-4.07Zm36.935-18.25c-0.67,1.19-1.386,2.44-2.151,3.53a13.619,13.619,0,0,1-2.581-3.34,22.469,22.469,0,0,1-1.911-5.26,17.774,17.774,0,0,1,10.131-3.49A52.7,52.7,0,0,1,565.369,2092.56Zm-7.265,9.27a6.818,6.818,0,0,1-4.444,1.86c-1.29,0-2.246-1.1-2.246-3.72,0-2.68,1.577-6.89,4.779-10.28a40.573,40.573,0,0,0,1.625,4.25,20.528,20.528,0,0,0,3.2,5.02A23.273,23.273,0,0,1,558.1,2101.83Zm15.58-22.08c0.43-1.39,1.147-2.01,1.147-2.96,0-1.48-3.441-3.35-5.591-3.35a6.957,6.957,0,0,0-3.107.91l0.1,0.86a12.146,12.146,0,0,1,2.867.43,1.358,1.358,0,0,1,1.243,1.63,34.54,34.54,0,0,1-.908,4.68,22.248,22.248,0,0,0-11.183,3.54c-0.144-.63-0.287-1.25-0.43-1.77a6.69,6.69,0,0,0-3.25-3.87,10.829,10.829,0,0,0-3.871-1.58l-0.574.62c2.151,1.91,3.68,3.54,4.349,5.45,0.335,0.91.669,2.01,1.052,3.15-2.677,2.3-6.978,7.36-6.978,14.05,0,3.06,1.291,6.07,4.3,6.07a10.949,10.949,0,0,0,6.882-2.87,22.456,22.456,0,0,0,3.824-3.68,6.041,6.041,0,0,0,2.963,1.2,1.471,1.471,0,0,0,1.72-1.43c0-1.25-1.051-2.01-2.1-2.58l-0.382-.2c0.812-1.29,1.625-2.67,2.437-4.25a65.05,65.05,0,0,0,4.11-9.7,11.381,11.381,0,0,1,10.084,11.33c0,6.3-3.776,12.85-18.352,15.43l0.239,1.05c17.014-.81,22.175-7.83,22.175-15.77,0-7.26-5.066-13.09-13.477-14.05Z" transform="translate(-49.25 -2002.09)"/>
</svg>
