<?xml version="1.0" encoding="utf-8"?>
<!-- Generator: Adobe Illustrator 26.0.3, SVG Export Plug-In . SVG Version: 6.00 Build 0)  -->
<svg version="1.1" id="lead-block-01.svg" xmlns="http://www.w3.org/2000/svg" xmlns:xlink="http://www.w3.org/1999/xlink" x="0px"
	 y="0px" viewBox="0 0 517.7 89.2" style="enable-background:new 0 0 517.7 89.2;" xml:space="preserve">
<style type="text/css">
	.st0{fill:none;}
	.st1{opacity:0.2;fill:#1E9FE0;enable-background:new    ;}
	.st2{fill:#1147B4;}
</style>
<rect class="st0" width="517.7" height="89.2"/>
<rect id="長方形_978" x="153.9" y="26.2" class="st1" width="131.2" height="10"/>
<rect id="長方形_978-2" x="104.9" y="79.2" class="st1" width="299.2" height="10"/>
<g>
	<path d="M92,28c1.2,0.4,2.8,0.5,4.7,0.5c1.7,0,7.9,0,10-0.1c-0.4,0.6-0.9,1.9-1,2.7h-8.9c-4.3,0-7-0.6-8.8-3.2
		c-0.3,1.4-0.6,2.7-1.1,3.7c-0.5-0.3-1.6-1-2.2-1.2c1.1-2.3,1.3-6,1.4-9.9l2.4,0.2c0,1.1,0,2.1-0.1,3.1c0.3,1,0.8,1.8,1.3,2.4v-6.9
		h-4.3v-2.4h3.9V15h-3.4v-2.4h3.4v-2.3h2.5v2.3h3.3V15h-3.3v2.1h3.7v0.6c1.5-1,2.3-2.4,2.7-4.3h-2.5v-2.3h10.1c0,0,0,0.6,0,0.9
		c-0.2,3.8-0.4,5.5-0.9,6.1c-0.4,0.5-0.9,0.7-1.5,0.8c-0.6,0.1-1.5,0.1-2.6,0c0-0.7-0.3-1.7-0.7-2.3c0.8,0.1,1.5,0.1,1.9,0.1
		c0.3,0,0.5,0,0.7-0.2c0.2-0.3,0.4-1.1,0.5-3.2h-2.4c-0.5,2.9-1.8,4.9-3.9,6.2c-0.3-0.3-0.9-0.8-1.4-1.2v1.1H92V22h3v2.4h-3V28z
		 M96.2,19.9h9v7.2h-9V19.9z M98.7,25h3.7v-2.9h-3.7V25z"/>
	<path d="M113.7,28.1v3.6h-2.3v-3.6h-3.6v-2.4h3.6v-1.4h-2.9V16h2.9v-1.2h-3.2v-2.4h3.2v-2.2h2.3v2.2h3.3v2.4h-3.3V16h3v8.3h-3v1.4
		h3.5v2.4H113.7z M110.5,19.3h1.2v-1.4h-1.2V19.3z M110.5,22.5h1.2v-1.4h-1.2V22.5z M114.7,17.9h-1.3v1.4h1.3V17.9z M114.7,21.1
		h-1.3v1.4h1.3V21.1z M129.4,28.9v2.3H117v-2.3h4.9v-3.4h-3.8v-2.3h10.7v2.3h-4.1v3.4H129.4z M119.4,22.8c-0.4-1.2-1.3-3-2.3-4.7
		c0.8-1.4,1.6-3.2,2-4.3l2.2,0.5c-0.6,1.3-1.3,2.6-1.9,3.8c0.9,1.3,1.7,2.9,2.1,3.8L119.4,22.8z M129.1,13.5h-11.5v-2.3h11.5V13.5z
		 M125,14.4c-0.6,1.3-1.3,2.6-2,3.7c0.9,1.3,1.9,2.8,2.3,3.8l-2.1,0.9c-0.5-1.2-1.4-3-2.6-4.6c0.8-1.4,1.7-3.1,2.1-4.3L125,14.4z
		 M127.1,22.8c-0.5-1.2-1.6-3-2.8-4.7c0.9-1.4,1.8-3.2,2.3-4.3l2.3,0.5c-0.6,1.3-1.4,2.6-2.1,3.7c1,1.3,2,2.8,2.5,3.8L127.1,22.8z"
		/>
	<path d="M137.3,16.9c-0.9,2.9-2.3,5.1-4.3,6.8c-0.4-0.5-1.4-1.4-2-1.9c2.6-1.7,3.9-4.6,4.5-8.4h-3.5v-2.3H148
		c-0.3,1.3-0.6,2.8-0.9,4.1h4.3c0,0,0,0.7-0.1,1c-0.3,3.5-0.7,5.1-1.3,5.7c-0.5,0.6-1.1,0.7-1.8,0.8c-0.6,0.1-1.7,0.1-2.9,0
		c0-0.7-0.4-1.7-0.8-2.3c1,0.1,2,0.1,2.5,0.1c0.4,0,0.6,0,0.8-0.2c0.3-0.3,0.6-1.1,0.8-2.9H144c0.3-1.1,0.7-2.6,1-4h-6.9
		c-0.1,0.5-0.2,0.9-0.3,1.4h4.2l0.4,0l1.4,0.4c-0.3,1.8-0.9,3.3-1.7,4.5c0.9,0.6,1.6,1.2,2.2,1.7l-1.6,1.6c-0.5-0.5-1.2-1.1-2-1.7
		c-0.9,0.9-2,1.5-3.2,2c-0.3-0.5-1.1-1.4-1.5-1.8c1.1-0.3,2-0.9,2.9-1.5c-0.7-0.4-1.4-0.8-2.1-1.2l1.5-1.4c0.7,0.3,1.3,0.6,2,1
		c0.3-0.5,0.6-1,0.8-1.6H137.3z M152.2,28.8v2.3h-21v-2.3h2.4v-5.2h16.1v5.2H152.2z M136.2,28.8h1.9v-3.1h-1.9V28.8z M140.6,25.7
		v3.1h2v-3.1H140.6z M145.1,25.7v3.1h2v-3.1H145.1z"/>
	<path class="st2" d="M157.1,19.2c-0.5,0.7-1,1.3-1.5,1.9c-0.3-0.8-1.3-2.7-1.8-3.6c2-2.2,4.2-5.5,5.5-8.8l3,1.2
		c-0.5,1.2-1.1,2.4-1.7,3.6v19.1h-3.4V19.2z M161.9,3.1c-1.6,2.8-3.9,6-6.2,8c-0.4-0.8-1.2-2.3-1.7-3c1.7-1.6,3.8-4.2,4.8-6.3
		L161.9,3.1z M166.7,19.1c-0.1,6.3-0.6,10.7-3.8,13.4c-0.4-0.9-1.4-2.3-2.2-2.9c2.4-2.1,2.6-5.4,2.6-10.5H166.7z M173.3,18.1H162V15
		h11.3V18.1z M183.8,11.2c-0.5,5.1-1.3,9.4-2.7,13c1.1,2.2,2.6,4.1,4.5,5.3c-0.7,0.7-1.7,2-2.2,3c-1.7-1.2-2.9-2.8-4-4.7
		c-1.2,1.9-2.6,3.6-4.4,5c-0.4-0.7-1.7-2-2.4-2.6c2.3-1.6,4-3.6,5.2-6.2c-0.8-2.3-1.4-5-1.8-7.8c-0.3,0.5-0.6,0.9-0.9,1.3
		c-0.4-0.8-1.4-2.4-2.1-3.2c0.2-0.3,0.4-0.6,0.6-1h-11.3V4.7h2.7v5.8h1.5V1.8h2.9v8.7h1.4V4.8h2.8v8.6c1.7-3,2.8-7.2,3.3-11.6
		l3.3,0.6c-0.3,1.8-0.6,3.7-1.1,5.4h6v3.3H183.8z M174.2,23.1c0.2,0.9,0.6,2.1,0.9,2.8c-4.5,2.8-5.3,3.6-5.8,4.2
		c-0.2-0.9-0.9-2.5-1.4-3.3c0.5-0.3,1.1-1,1.1-2.3v-5.3h3.2v5.1L174.2,23.1z M178.1,11.2c-0.1,0.2-0.1,0.4-0.2,0.6
		c0.3,2.7,0.8,5.3,1.4,7.7c0.6-2.4,1.1-5.2,1.3-8.2H178.1z"/>
	<path class="st2" d="M199.5,20.7c-2.1,4.6-5.6,9.1-9.2,11.8c-0.7-1-2-2.4-2.9-3.2c3.4-2.1,6.8-6.1,8.6-9.8L199.5,20.7z M204.8,18.1
		v14.6h-4.2V18.1h-12.6v-4h12.6V1.8h4.2v12.2h12.7v4H204.8z M193.5,12.6c-0.6-2.1-2.3-5.3-4.1-7.7l3.6-1.6c1.8,2.3,3.7,5.4,4.4,7.5
		L193.5,12.6z M209,19.2c3.5,3.3,7.5,7.9,9.2,11.2l-3.5,2.2c-1.6-3.3-5.3-8.1-8.9-11.5L209,19.2z M216.4,4.9c-1.7,2.9-3.7,6-5.3,8
		l-3.4-1.5c1.6-2.2,3.4-5.5,4.4-8.2L216.4,4.9z"/>
	<path class="st2" d="M225.8,17c-1.2-1.1-3.7-2.5-5.6-3.3l2.1-3c1.9,0.7,4.5,1.9,5.8,3L225.8,17z M221,29.9
		c1.6-2.5,3.7-6.7,5.4-10.6l3.1,2.3c-1.5,3.5-3.3,7.4-5,10.6L221,29.9z M227.5,8.3c-1.2-1.1-3.7-2.6-5.6-3.5l2.2-3
		c1.9,0.8,4.5,2.1,5.8,3.2L227.5,8.3z M245,28.8c2,0,2.3-0.7,2.5-4.2c0.9,0.6,2.5,1.2,3.6,1.5c-0.6,4.9-1.7,6.3-5.8,6.3h-7.6
		c-4.7,0-6.1-1.2-6.1-5.4V14.1l-0.4,0.4c-0.7-0.7-2.4-1.9-3.4-2.4c2.7-2.4,5-6.4,6.2-10.4l3.9,1c-0.3,1-0.7,2-1.2,3h13
		c0,0,0,1.2,0,1.7c-0.2,10.5-0.4,14.6-1.3,15.8c-0.6,0.9-1.2,1.3-2.1,1.5c-0.8,0.2-2,0.2-3.3,0.2c-0.1-0.7-0.2-1.7-0.5-2.5h-7.2v4.6
		c0,1.6,0.4,1.9,2.6,1.9H245z M234.9,9.4c-0.5,0.9-1.1,1.8-1.7,2.6h9.8v9.1c0.4,0,0.8,0,1,0c0.4,0,0.6-0.1,0.9-0.5
		c0.4-0.7,0.7-3.4,0.8-11.2H234.9z M239.3,15.4h-3.9v3.6h3.9V15.4z"/>
	<path class="st2" d="M258.8,17c-1.2-1.1-3.7-2.5-5.6-3.3l2.1-3c1.9,0.7,4.5,1.9,5.8,3L258.8,17z M254,29.9
		c1.6-2.5,3.7-6.7,5.4-10.6l3.1,2.3c-1.5,3.5-3.3,7.4-5,10.6L254,29.9z M260.5,8.3c-1.2-1.1-3.7-2.6-5.6-3.5l2.2-3
		c1.9,0.8,4.5,2.1,5.8,3.2L260.5,8.3z M278,28.8c2,0,2.3-0.7,2.5-4.2c0.9,0.6,2.5,1.2,3.6,1.5c-0.6,4.9-1.7,6.3-5.8,6.3h-7.6
		c-4.7,0-6.1-1.2-6.1-5.4V14.1l-0.4,0.4c-0.7-0.7-2.4-1.9-3.4-2.4c2.7-2.4,5-6.4,6.2-10.4l3.9,1c-0.3,1-0.7,2-1.2,3h13
		c0,0,0,1.2,0,1.7c-0.2,10.5-0.4,14.6-1.3,15.8c-0.6,0.9-1.2,1.3-2.1,1.5c-0.8,0.2-2,0.2-3.3,0.2c-0.1-0.7-0.2-1.7-0.5-2.5h-7.2v4.6
		c0,1.6,0.4,1.9,2.6,1.9H278z M267.9,9.4c-0.5,0.9-1.1,1.8-1.7,2.6h9.8v9.1c0.4,0,0.8,0,1,0c0.4,0,0.6-0.1,0.9-0.5
		c0.4-0.7,0.7-3.4,0.8-11.2H267.9z M272.3,15.4h-3.9v3.6h3.9V15.4z"/>
	<path d="M296,14l0.8,0l0,2.6l-0.8,0.1c-0.1,2.6-0.4,6-2.2,9.1c1.2,1,2.2,2,2.9,2.8l-2,2.1c-0.6-0.7-1.4-1.6-2.4-2.6
		c-1.1,1.3-2.6,2.6-4.5,3.7c-0.4-0.6-1.3-1.6-1.9-2.1c1.9-1,3.3-2.3,4.3-3.6c-1.3-1.1-2.6-2.3-3.7-3.3c0.5-1.5,0.9-3.5,1.3-5.6
		l-1.7,0.1l-0.3-2.7c0.7,0,1.5-0.1,2.4-0.1c0.2-1.4,0.4-2.8,0.5-4l2.9,0.2c-0.1,1.2-0.3,2.5-0.5,3.7l2.2-0.1v-1.1h2.7V14z M290.6,17
		c-0.3,1.8-0.7,3.5-1.1,5c0.7,0.6,1.4,1.2,2.1,1.8c1.2-2.4,1.6-5,1.6-7L290.6,17z M306.3,12.6v18.1h-2.7v-1.3h-3.6v1.7h-2.6V12.6
		H306.3z M303.6,26.8V15.2h-3.6v11.6H303.6z"/>
	<path d="M312.8,23.4c-0.8-0.7-2.5-1.8-3.9-2.4l1.5-1.8c1.3,0.6,3.1,1.5,4,2.2L312.8,23.4z M309.4,29.9c1-1.3,2.3-3.5,3.4-5.5
		l1.9,1.6c-0.9,1.8-2.1,3.8-3.1,5.6L309.4,29.9z M314.3,13.9h-4.7v-2.3h4.7v-1.4h2.7v1.4h2.4v2.3H317V15h-2.7V13.9z M311.5,15
		c1.2,0.6,2.9,1.5,3.7,2.2l-1.7,1.9c-0.7-0.7-2.3-1.7-3.6-2.4L311.5,15z M330,27.7h-3.1v1.5c0,1.1-0.2,1.7-1,2.1
		c-0.8,0.3-1.8,0.4-3.2,0.4c-0.1-0.7-0.4-1.6-0.7-2.2c0.8,0,1.7,0,2,0c0.3,0,0.3-0.1,0.3-0.3v-1.4H320c0.7,0.4,1.3,0.9,1.8,1.2
		l-1.5,1.8c-0.7-0.6-2.3-1.7-3.4-2.3l0.6-0.7H315v-2.1h9.4v-0.8h1.1c-0.2-0.4-0.3-0.8-0.5-1c0.5,0,0.9,0,1.1,0
		c0.2,0,0.3-0.1,0.3-0.3v-0.2h-2.7v1.3h-2.5v-1.3h-2.7V25H316v-7h5.2v-0.6h-5.9v-1.7h5.9v-0.9h1.1v-0.9h-2.2v-2.3h2.2v-1.4h2.7v1.4
		h4.8v2.3h-2.9c0.8,0.4,1.5,0.9,2,1.2l-0.5,0.6h1.2v1.7h-6V18h5.3v5.7c0,1-0.2,1.3-0.8,1.6c-0.3,0.2-0.7,0.2-1.2,0.3v0.1h3.1
		L330,27.7z M318.5,19.5v0.7h2.7v-0.7H318.5z M321.2,22.1v-0.6h-2.7v0.6H321.2z M323.7,15.7h2.7c-0.4-0.3-0.9-0.5-1.3-0.7l0.9-1.1
		h-1V15l-1.4,0V15.7z M323.7,19.5v0.7h2.7v-0.7H323.7z M326.4,22.1v-0.6h-2.7v0.6H326.4z"/>
	<path d="M348.2,26.8c1.7,0.9,4.2,2.1,5.4,2.9l-1.6,2c-1.2-0.9-3.7-2.3-5.4-3.2l1.5-1.7h-0.8c-0.9,2.4-2.6,4-6.7,5
		c-0.2-0.5-0.6-1.3-1.1-1.8c-0.1,0.5-0.3,0.9-0.8,1.2c-0.6,0.4-1.5,0.5-2.9,0.5c-0.1-0.6-0.4-1.7-0.7-2.4c0.8,0,1.5,0,1.8,0
		c0.2,0,0.3-0.1,0.3-0.4v-5.5c-0.5,0.5-1,1-1.4,1.5l-0.6-1.4c-0.2,2.9-0.6,6-1.6,8.3c-0.4-0.5-1.4-1.3-1.9-1.6
		c1.2-3.1,1.3-7.7,1.3-11v-8.3h6.5V29c0,0.2,0,0.4,0,0.6c2.7-0.6,4.1-1.5,4.9-2.8h-4.2v-2.3h4.9c0.1-0.4,0.1-0.8,0.1-1.2h-4v-7.3
		H352v7.3h-4.1c0,0.4-0.1,0.8-0.1,1.2h5.2v2.3H348.2z M335.4,19.3c0,0.9,0,2.1-0.1,3.2c0.6-0.3,1.2-0.8,2-1.4v-2.3l-0.9,0.6
		c-0.2-0.4-0.6-1-1-1.5V19.3z M335.4,13.5v2.8l0.6-0.4c0.4,0.5,0.9,1,1.2,1.5v-3.9H335.4z M342.6,14.2h-2.4V12h2.4v-1.7h2.4V12h1.6
		v2.2H345v1.3h-2.4V14.2z M343.7,18.7h5.8v-1h-5.8V18.7z M343.7,21.5h5.8v-1h-5.8V21.5z M348.6,14.2h-1.5V12h1.5v-1.7h2.4V12h2.3
		v2.2H351v1.3h-2.4V14.2z"/>
	<path d="M375.9,20.4c-0.6,3-1.7,5.2-3.1,7c1.1,0.8,2.4,1.4,3.8,1.8c-0.6,0.5-1.4,1.6-1.7,2.3c-1.5-0.6-2.9-1.3-4-2.2
		c-1.3,1-2.8,1.8-4.5,2.3c-0.3-0.6-1-1.7-1.5-2.1c-0.1,0.8-0.4,1.3-1,1.6c-0.8,0.4-1.9,0.4-3.5,0.4c-0.1-0.6-0.4-1.7-0.7-2.3
		c1,0,2.1,0,2.4,0c0.3,0,0.4-0.1,0.4-0.5v-6.7c-1.2,0.1-2.5,0.3-3.6,0.4c-0.1,3.1-0.6,6.7-1.8,9.3c-0.5-0.4-1.5-1.1-2.1-1.4
		c1-2.2,1.3-5,1.4-7.7l-1.3,0.1l-0.2-2.5l1.6-0.1v-0.7v-6.9h2.4c0.3-0.8,0.5-1.7,0.6-2.5l2.8,0.3c-0.3,0.8-0.6,1.5-0.9,2.1h3.5v7
		l0.5,0l0,2.1l-0.5,0.1v7c0,0.2,0,0.4,0,0.6c1.6-0.4,3-1.1,4.2-1.9c-1.2-1.4-2.2-3-3-4.9l1.4-0.4h-1.6v-2.4h8l0.4-0.1L375.9,20.4z
		 M360.6,27.3c-0.4-0.9-1.1-2.4-1.8-3.5l1.7-0.8c0.7,1,1.5,2.4,1.9,3.3L360.6,27.3z M358.9,20.1c1.1-0.1,2.3-0.2,3.5-0.3v-5h-3.5
		v1.4l1.6-0.8c0.7,1,1.4,2.2,1.8,3.1l-1.7,1c-0.3-0.8-1-2-1.6-3v3.1V20.1z M369,14.5c0,1.8-0.3,3.9-2.1,5.1c-0.4-0.5-1.5-1.4-2-1.7
		c1.5-1,1.6-2.2,1.6-3.4v-3.2h7.6v4.5c0,0.6,0,0.9,0.3,0.9h0.8c0.3,0,0.8,0,1.1-0.2c0,0.7,0.1,1.5,0.2,2.2c-0.3,0.1-0.8,0.2-1.3,0.2
		h-1.1c-2.1,0-2.6-0.9-2.6-3.1v-2.1H369V14.5z M368.6,22.2c0.6,1.3,1.4,2.5,2.4,3.6c0.8-1,1.5-2.2,1.9-3.6H368.6z"/>
	<path d="M383,26.7c-0.7,1.9-1.9,3.9-3.1,5.1c-0.5-0.4-1.6-1.2-2.2-1.5c1.2-1,2.1-2.6,2.7-4.2L383,26.7z M387,25.9h-7.9V11.2h7.9
		V25.9z M384.4,13.3h-2.9v2.1h2.9V13.3z M384.4,17.4h-2.9v2.1h2.9V17.4z M384.4,21.6h-2.9v2.1h2.9V21.6z M385.6,26
		c1,1.1,1.9,2.7,2.3,3.7l-2.3,1.1c-0.3-1.1-1.3-2.7-2.2-3.9L385.6,26z M394.4,17.7v3.6h4.1v10.3h-2.7v-0.9h-5.1v0.9h-2.5V21.3h3.5
		v-11h2.7v4.9h5v2.5H394.4z M395.8,23.7h-5.1v4.6h5.1V23.7z"/>
	<path d="M414.3,11.4c-0.3,0.3-0.5,0.7-0.8,1c2.9,2.7,6,4.3,9.1,5.4c-0.7,0.6-1.5,1.7-1.9,2.5c-1.1-0.5-2.2-1.1-3.3-1.7v1.5H406V19
		c-1,0.6-2,1.2-3.1,1.7c-0.4-0.8-1.2-1.8-2-2.5c4.2-1.7,8.6-4.5,11-8L414.3,11.4z M404.5,22.1h14.8v9.5h-2.9v-0.9h-9.1v1h-2.8V22.1z
		 M407.3,24.5v3.6h9.1v-3.6H407.3z M415.9,17.6c-1.3-0.9-2.6-2-4-3.3c-1.2,1.2-2.4,2.3-3.8,3.3H415.9z"/>
	<path class="st2" d="M117,64.6c0.7,2.2,1.5,5.1,1.7,6.9l-2.9,0.9c-0.1-0.4-0.1-1-0.2-1.5c-6.3,0.9-7.4,1.3-8.2,1.6
		c-0.2-0.7-0.7-2.3-1.1-3.2c0.8-0.2,1.5-1,2.5-2.2c0.4-0.5,1.2-1.5,2.1-2.9c-2.5,0.3-3.3,0.5-3.8,0.7c-0.2-0.7-0.7-2.3-1.1-3.1
		c0.6-0.2,1.2-0.9,1.8-1.8c0.7-0.9,2.6-4.7,3.7-8.2l3.3,1.3c-1.1,2.7-2.6,5.6-4.2,8l2.3-0.2c0.8-1.4,1.5-2.8,2.1-4.2l3,1.9
		c-1.8,3.4-4.2,6.9-6.6,9.8l3.3-0.4c-0.2-0.9-0.5-1.7-0.7-2.5L117,64.6z M110.4,73.9c-0.3,3.1-0.8,6.4-1.5,8.5c-0.7-0.3-2-0.8-2.8-1
		c0.8-2,1.2-5.1,1.4-8L110.4,73.9z M113.7,73.4c0.4,2.4,0.7,5.5,0.8,7.5l-2.8,0.6c0-2.1-0.3-5.2-0.7-7.6L113.7,73.4z M116.9,72.5
		c0.7,2,1.4,4.8,1.7,6.5l-2.6,0.8c-0.3-1.8-1-4.5-1.6-6.6L116.9,72.5z M136.6,61.3v5.6h-3.4v-2.7h-11.6V67h-3.3v-5.7h3.9
		c-0.2-0.9-0.5-2-0.8-2.9l1.7-0.4h-4.4v-3.3h6.5c-0.2-0.7-0.5-1.5-0.8-2l3.3-0.9c0.5,0.9,0.9,1.9,1.2,2.9h7.3v3.3h-4.9l2.1,0.6
		c-0.4,1-0.9,1.9-1.3,2.8H136.6z M135.3,76.2c0,1.5-0.2,2.3-1.1,2.9c-0.9,0.6-2.1,0.6-3.7,0.6c-0.1-1-0.5-2.3-0.9-3.3
		c0.8,0,1.6,0,1.9,0c0.3,0,0.4-0.1,0.4-0.4v-4.9H129v11.3h-3.5V71.3h-2.6v8.1h-3.3V68.1h5.9V65h3.5v3.1h6.3V76.2z M124.5,57.9
		c0.4,1.1,0.8,2.3,1,3.2l-0.7,0.2h4.1c0.4-1.1,0.8-2.3,1.1-3.4H124.5z"/>
	<path class="st2" d="M148.7,68c-0.4,2.6-1,5-1.8,7c2,3.2,5.6,3.7,11,3.7c3.5,0,8.9-0.2,12.6-0.6c-0.6,0.8-1.1,2.6-1.3,3.6
		c-3.4,0.2-7.6,0.3-11.4,0.3c-6,0-9.8-0.6-12.3-4c-1.2,2-2.5,3.5-4.2,4.6c-0.5-0.8-1.7-2.1-2.5-2.6c2.9-1.8,5-5,6-9.5h-2.5
		c-0.8,0-1.7,0.2-2,0.5c-0.2-0.8-0.9-2.4-1.2-3.1c0.5-0.1,1-0.4,1.6-1.1c0.6-0.6,1.8-2.4,2.9-4.2h-3.9v-3.1h6.2l0.3-0.1l2.4,1
		c-1.2,1.8-3.1,4.9-4.7,7.2h2.3l0.6-0.1L148.7,68z M144.8,58.9c-0.9-1.4-2.8-3.7-4.3-5.3l2.9-1.8c1.6,1.6,3.4,3.6,4.4,5L144.8,58.9z
		 M153.6,58.8c-0.6,1.1-1.3,1.9-1.9,2.7c-0.8-0.6-2.3-1.4-3.2-1.8c1.9-1.9,3.5-4.8,4.3-7.7l3.5,0.8c-0.2,0.9-0.6,1.7-1,2.6h2.1v-3.7
		h3.9v3.7h6.7v3.3h-6.7v2.8h8.1v3.3h-20.2v-3.3h8.3v-2.8H153.6z M151.4,76.5v-9.8h16.2v9.8H151.4z M155.1,73.4h8.4v-3.6h-8.4V73.4z"
		/>
	<path class="st2" d="M202.9,77h-3v5.5h-3V77h-4.3c0.3-1.8,0.5-4.5,0.6-6.8h-0.5v-3h4.2v-2h2.3v-1h-12.5v0.7l1.8,0.4
		c-0.1,0.5-0.3,1.1-0.4,1.7h2.3l0.6-0.1l1.7,0.4c-1,8.2-3.9,12.9-8.8,15.4c-0.3-0.7-1-1.8-1.6-2.4c1.9-0.9,3.5-2.2,4.7-4
		c-0.6-0.6-1.4-1.4-2.2-2c-0.3,0.4-0.6,0.8-1,1.2c-0.2-0.5-0.9-1.6-1.4-2.3v4.3h-5.8V80h-3.1V53.6h8.9v18.5c1.3-1.5,2.2-3.7,2.8-5.9
		h-1.8v-5h3c-0.4-1-1.2-2.5-1.7-3.6l2.9-1c0.7,1.2,1.6,2.7,2,3.7l-2.4,0.9h5.3c-0.3-1.1-1.1-2.8-1.6-4.1l3-0.8c0.7,1.2,1.5,3,1.8,4
		l-3,0.9h4.2l-0.6-0.2c0.9-1.4,2-3.6,2.6-5.1l3.3,1.2c-1,1.5-1.9,3-2.8,4.2h3.3v5h-2.7v1h2.6v3h-2.6v3.8h3V77z M176.5,57.1v3.3h2.7
		v-3.3H176.5z M176.5,67.1h2.7v-3.4h-2.7V67.1z M179.2,73.9v-3.5h-2.7v3.5H179.2z M202,54.7c-4.8,1.2-12.1,1.6-18,1.6
		c-0.1-0.8-0.5-2-0.9-2.7c5.9-0.1,12.9-0.6,17.1-1.6L202,54.7z M187,69.6c-0.3,0.8-0.6,1.5-1,2.2c0.8,0.6,1.6,1.2,2.1,1.8
		c0.5-1.2,0.9-2.5,1.2-4H187z M196.8,74.1v-3.8h-1.4c-0.1,1.3-0.1,2.6-0.2,3.8H196.8z"/>
	<path class="st2" d="M210.8,65v17.7h-3.9V53h12.6V65H210.8z M210.8,55.9v1.7h5.1v-1.7H210.8z M215.8,62.1v-1.9h-5.1v1.9H215.8z
		 M234.7,78c0,2.1-0.4,3.3-1.7,3.9c-1.3,0.7-3.2,0.8-6,0.8c-0.1-0.8-0.5-2-0.9-3.1h-8.2v1.7h-3.6V67h1.6v0l11.1,0v11.7
		c1.3,0,2.5,0,2.9,0c0.6,0,0.8-0.2,0.8-0.7V65h-9V53h12.9V78z M223.3,69.8h-5.4v2h5.4V69.8z M223.3,76.7v-2h-5.4v2H223.3z
		 M225.5,55.9v1.7h5.2v-1.7H225.5z M230.8,62.2v-1.9h-5.2v1.9H230.8z"/>
	<path class="st2" d="M268.6,57c0,0,0,1.4,0,1.9c-0.5,14.7-0.9,20-2.2,21.7c-0.9,1.3-1.8,1.6-3.1,1.8c-1.2,0.2-3.1,0.2-5,0.1
		c-0.1-1.2-0.6-2.8-1.3-4c1.9,0.2,3.7,0.2,4.5,0.2c0.6,0,1-0.1,1.4-0.6c1-1,1.4-5.8,1.8-17.4h-10.1c-0.6,1.2-1.4,2.3-2.1,3.3h9.1
		v3.5h-9.5v-2.9c-0.3,0.4-0.6,0.8-0.9,1.2c-0.8-0.7-2.6-1.8-3.6-2.3l0.2-0.2h-1.5v8.4l3.2-1.6l1.1,3.6c-3.7,1.9-7.7,4-10.9,5.6
		l-1.5-3.9c1.2-0.5,2.7-1.1,4.3-1.9V63.3h-3.6v-3.7h3.6v-7.3h3.8v7.3h3.1v1.8c2-2.7,3.7-6.2,4.8-9.6l4,1c-0.5,1.5-1.1,2.9-1.7,4.3
		H268.6z M262,74.8h-10.8v-3.5H262V74.8z"/>
	<path class="st2" d="M300.1,56.7c0,0,0,1.4-0.1,1.9c-0.6,14.7-1.2,20.1-2.7,21.9c-1,1.3-2,1.7-3.5,1.9c-1.4,0.2-3.6,0.2-5.7,0.1
		c-0.1-1.1-0.6-2.8-1.4-4c2.3,0.2,4.5,0.2,5.4,0.2c0.8,0,1.2-0.1,1.6-0.6c1.1-1.1,1.7-6.1,2.2-17.6h-16.5c-0.7,1.2-1.5,2.4-2.2,3.5
		h14.2v3.6h-14.3v-3.5c-0.9,1.2-1.8,2.2-2.7,3.2c-0.8-0.7-2.5-2-3.5-2.5c3.4-3,6.3-7.9,7.9-12.9l4.1,1c-0.5,1.3-1,2.6-1.6,3.9H300.1
		z M292.4,74.9h-17.2v-3.6h17.2V74.9z"/>
	<path class="st2" d="M313.4,68c-0.3,2.6-0.9,4.9-1.6,6.8c1.9,3.4,5.6,3.8,11,3.8c3.5,0,8.9-0.2,12.6-0.6c-0.6,0.8-1.1,2.5-1.2,3.6
		c-3.4,0.2-7.6,0.3-11.5,0.3c-6,0-9.8-0.6-12.4-4c-1.1,2-2.4,3.6-3.9,4.7c-0.5-0.8-1.8-2.1-2.5-2.6c2.8-1.9,4.7-5.1,5.6-9.6h-2.3
		c-0.8,0-1.7,0.2-2,0.5c-0.2-0.8-0.9-2.5-1.2-3.2c0.5-0.1,1.1-0.4,1.7-1.1c0.6-0.6,1.9-2.4,3.1-4.2h-4.2v-3.1h6.7l0.4-0.2l2.2,1
		v-2.6h8.7V56c-2.3,0.1-4.6,0.2-6.8,0.3c-0.1-0.8-0.5-1.9-0.8-2.6c5.6-0.2,12.2-0.7,16-1.5l2.4,2.6c-2.1,0.4-4.5,0.7-7.1,1v1.9h8.2
		v2.9h-5.2c2.3,1.2,4.8,2.5,6.2,3.6l-2.3,2.4c-1.6-1.2-4.3-2.9-6.7-4.2l1.6-1.8h-1.7v4.9h-3.7v-3.1c-1.5,1.5-3.3,2.7-5.2,3.7h12.1
		c-0.2,0.8-0.4,1.7-0.5,2.6h5c0,0-0.1,0.8-0.1,1.3c-0.3,3.6-0.7,5.4-1.5,6.1c-0.6,0.7-1.4,0.9-2.4,1c-0.9,0.1-2.4,0.1-4,0
		c-0.1-0.9-0.5-2.1-0.9-2.9c1.4,0.1,2.7,0.2,3.2,0.2c0.5,0,0.8,0,1.1-0.3c0.3-0.3,0.6-1.1,0.7-2.6h-5.2c0.2-0.7,0.5-1.6,0.7-2.5
		h-2.6c-0.5,4-2,6.8-6.8,8.4c-0.3-0.9-1.3-2.2-2-2.9c3.6-1.1,4.8-2.9,5.2-5.5h-2.9v-2.4c-0.4,0.2-0.8,0.3-1.2,0.5
		c-0.5-0.8-1.5-2.1-2.3-2.8c2.6-0.7,5.3-2.1,7.3-3.6h-6.3c-1.3,1.8-3.2,4.7-4.9,6.8h2.1l0.6-0.1L313.4,68z M309.4,58.9
		c-0.8-1.4-2.6-3.7-4-5.3l2.9-1.7c1.5,1.6,3.2,3.6,4.1,5L309.4,58.9z"/>
	<path class="st2" d="M342.2,73.7v2.8h-3.6v-23H350v20.2H342.2z M342.2,57.1v4.7h4.3v-4.7H342.2z M346.4,70.2v-4.9h-4.3v4.9H346.4z
		 M367.2,78.1c0,2.1-0.4,3.1-1.7,3.8c-1.3,0.6-3.2,0.7-5.9,0.7c-0.2-1.1-0.8-2.8-1.4-3.8c1.8,0.1,3.8,0.1,4.4,0
		c0.6,0,0.8-0.2,0.8-0.8v-5.8h-7.8c-0.8,4-2.6,7.9-6.3,10.6c-0.6-0.8-2.1-2.1-2.9-2.6c5.5-4.1,6-10.2,6-15.2V53.1h14.9V78.1z
		 M363.3,68.7v-4.2h-7.1V65c0,1.2,0,2.4-0.2,3.7H363.3z M356.2,56.7V61h7.1v-4.2H356.2z"/>
	<path class="st2" d="M399.8,60.6c-1.3,2.9-2.9,5.6-4.9,8c0.9,5.9,2.1,10.1,2.9,10.1c0.4,0,0.7-1.9,0.8-5.8c0.8,0.8,1.9,1.7,2.9,2.1
		c-0.5,5.9-1.6,7.4-4.2,7.4c-2.5,0-4.4-4.5-5.5-10.7c-0.6,0.5-1.2,0.9-1.7,1.4c1.1,2.2,2.2,5.1,2.8,6.9l-2.7,1.2
		c-0.3-1-0.8-2.4-1.3-3.8c-0.3,3.8-1.1,4.8-3.2,4.8h-2.8c-2.7,0-3.4-0.9-3.4-3.5v-5.8h2.9l-0.5-0.8l0.9-0.4h-4.7v-7.6h10.7v5.8
		c0.9-0.6,1.7-1.3,2.4-2.1c-0.4-3-0.7-6.2-0.9-9.3h-13.8v3.1c0,5.8-0.5,15.2-3.5,21.3c-0.7-0.6-2.3-1.7-3.1-2.1
		c2.7-5.7,3-13.9,3-19.2v-6.3h17.3c-0.1-1.1-0.1-2.2-0.1-3.3h3.7c0,1.1,0,2.2,0,3.3h2.7c-0.7-0.7-1.6-1.5-2.4-2.1l2.3-1.6
		c1.1,0.8,2.5,1.9,3.2,2.6l-1.5,1.1h2.5v3.2h-6.7c0.1,1.9,0.3,3.7,0.5,5.5c0.9-1.3,1.6-2.7,2.1-4.1L399.8,60.6z M374.9,80.3
		c0.9-1.8,1.5-4.7,1.8-7l2.5,0.8c-0.3,2.4-0.9,5.5-1.8,7.5L374.9,80.3z M389.2,62.4h-11.6v-2.6h11.6V62.4z M381.2,68.9h4.5v-2.5
		h-4.5V68.9z M385.3,79.5c0.7,0,0.8-0.5,0.9-3.5c0.6,0.5,1.8,0.9,2.6,1.1c-0.4-1.2-0.9-2.3-1.3-3.3l2.4-1c-0.3-0.4-0.8-0.9-1.3-1.4
		h-4.1c0.9,1.4,1.8,3.1,2.3,4.1l-2.5,1.3c-0.4-1-1.1-2.3-1.8-3.7v5.3c0,0.8,0.1,0.9,0.8,0.9H385.3z"/>
</g>
</svg>
