<svg id="head-block-01_sp.svg" xmlns="http://www.w3.org/2000/svg" width="378" height="155.97" viewBox="0 0 378 155.97">
  <defs>
    <style>
      .cls-1, .cls-2 {
        fill: #1e9fe0;
        opacity: 0.2;
      }

      .cls-1, .cls-3, .cls-4 {
        fill-rule: evenodd;
      }

      .cls-4 {
        fill: #1147b4;
      }
    </style>
  </defs>
  <path id="長方形_978" data-name="長方形 978" class="cls-1" d="M173.418,2366H471v13H173.418v-13Z" transform="translate(-131 -2285.03)"/>
  <rect id="長方形_978-2" data-name="長方形 978" class="cls-2" x="191" y="27.97" width="139.906" height="13"/>
  <path id="ふわっと軽い" class="cls-3" d="M143.249,2294.47a29.508,29.508,0,0,1,6.878,3.59,0.718,0.718,0,0,0,.449.22,0.584,0.584,0,0,0,.45-0.32,18.721,18.721,0,0,0,1.447-2.3,0.585,0.585,0,0,0-.193-0.84,28.644,28.644,0,0,0-6.62-3.16,0.489,0.489,0,0,0-.643.19C144.438,2292.62,143.86,2293.54,143.249,2294.47Zm-0.964,18.79a9.077,9.077,0,0,1,.836,3.36,0.62,0.62,0,0,0,.514.64,10.614,10.614,0,0,0,3.535.51c2.989,0,6.01-1.63,6.01-4.96,0-1.83-.74-3.52-3.728-5.86-2.089-1.63-2.668-2.21-2.668-3.01a3.735,3.735,0,0,1,.932-2.27,0.93,0.93,0,0,0,.193-0.35,0.338,0.338,0,0,0-.128-0.26,16.071,16.071,0,0,0-2.282-1.76,6.562,6.562,0,0,0-2.217,4.8c0,1.48.642,2.76,2.795,4.52,2.6,2.14,3.182,2.75,3.182,3.87,0,1.15-.739,1.82-2.346,1.82A12.072,12.072,0,0,1,142.285,2313.26Zm-1.8-3.81a9.968,9.968,0,0,1-1.993,2.11,1.6,1.6,0,0,1-1.125.45c-0.546,0-1.06-.55-1.863-2.53a0.326,0.326,0,0,0-.225-0.29,0.475,0.475,0,0,0-.29.16,22.19,22.19,0,0,0-1.96,1.63,0.478,0.478,0,0,0-.1.61c1,3.27,2.7,4.23,4.4,4.23a4.566,4.566,0,0,0,2.7-1.19,7.758,7.758,0,0,0,1.542-1.53,0.854,0.854,0,0,0,.29-0.64,0.965,0.965,0,0,0-.29-0.58A7.315,7.315,0,0,1,140.486,2309.45Zm13.529-2.88a18.818,18.818,0,0,1,4.692,6.56c0.161,0.35.386,0.45,0.675,0.25a13.588,13.588,0,0,0,2.346-1.85,0.47,0.47,0,0,0,.128-0.71,18.658,18.658,0,0,0-4.917-6.01,0.316,0.316,0,0,0-.224-0.13,0.956,0.956,0,0,0-.322.13C155.718,2305.29,154.786,2305.93,154.015,2306.57Zm23.526-4.99c0.771-1.12,1.253-1.73,1.7-2.31a1.34,1.34,0,0,0,.546-0.89,1.878,1.878,0,0,0-.514-1,1.561,1.561,0,0,0-.868-0.73,0.634,0.634,0,0,0-.225.06c-0.1.03-.16,0.07-0.257,0.1,0.064-1.38.129-2.11,0.161-2.88a5.553,5.553,0,0,1,.321-1.38,0.727,0.727,0,0,0-.578-1.12,24.949,24.949,0,0,0-3.728-.54,11.551,11.551,0,0,1,.321,2.78c0,1.38,0,2.79-.064,4.16-2.474.67-3.728,0.96-4.563,1.15a14.075,14.075,0,0,1-2.186.32,27.423,27.423,0,0,0,1.286,2.82,0.852,0.852,0,0,0,.643.58,10.766,10.766,0,0,0,1.06-.55c1.221-.45,2.732-0.89,3.664-1.18-0.033.61-.033,1.47-0.033,2.27-2.41,3.3-4.242,5.57-7.07,8.99a0.565,0.565,0,0,0-.192.39,0.456,0.456,0,0,0,.192.35,22.634,22.634,0,0,0,1.961,1.92,0.544,0.544,0,0,0,.353.19,0.67,0.67,0,0,0,.45-0.32c1.189-1.7,2.8-4.03,4.339-6.34-0.065,3.27-.129,6.63-0.161,9.89-0.032.32,0.064,0.45,0.353,0.45,1.061,0,2.507-.1,2.861-0.13a0.363,0.363,0,0,0,.417-0.38c-0.064-4.32-.16-8.19-0.192-12.29,3.149-2.69,5.656-4.1,8.612-4.1,3.085,0,4.788,1.96,4.788,4.96a6.2,6.2,0,0,1-2.185,4.84,14.8,14.8,0,0,1-6.459,3.16,9.615,9.615,0,0,1,2.538,2.12,1.071,1.071,0,0,0,.836.44,1.292,1.292,0,0,0,.546-0.12c5.528-1.99,8.549-5.38,8.549-10.31,0-4.83-3.15-8.13-8-8.13-3.375,0-6.331,1.38-9.223,3.75v-0.99Zm22.818,2.94a15.941,15.941,0,0,0,1.735,3.1,1.162,1.162,0,0,0,.836.58,1.027,1.027,0,0,0,.642-0.32,10,10,0,0,1,1.8-.99c3.5-1.41,6.877-2.5,9.095-2.5,2.57,0,3.984,1.25,3.984,3.52a5,5,0,0,1-2.892,4.77,23.469,23.469,0,0,1-7.745,2.21,6.751,6.751,0,0,1,1.961,2.11,0.838,0.838,0,0,0,1.06.45,17.659,17.659,0,0,0,6.652-2.11c3.053-1.64,4.6-3.91,4.6-7.17,0-4-2.957-6.85-7.327-6.85a31.755,31.755,0,0,0-9.384,1.95A34.765,34.765,0,0,1,200.359,2304.52Zm33.359-12.93a14.3,14.3,0,0,1,.835,3.71,48.175,48.175,0,0,0,1.672,7.81c-3.76,2.37-6.106,4.71-6.106,8.26,0,4.16,3.213,6.14,9.287,6.14a68.055,68.055,0,0,0,9.577-.48,0.5,0.5,0,0,0,.578-0.54,28.5,28.5,0,0,0-.321-2.98,0.4,0.4,0,0,0-.579-0.38,56.238,56.238,0,0,1-9.8.73c-3.7,0-5.11-.8-5.11-2.68,0-1.51,1-3.01,3.792-4.84a44.8,44.8,0,0,1,7.552-3.74,15.226,15.226,0,0,1,3.085-.96,0.636,0.636,0,0,0,.643-0.64,1.287,1.287,0,0,0-.225-0.67,16.665,16.665,0,0,0-2.346-3.01,8.053,8.053,0,0,1-2.217,1.73c-1.8.96-2.957,1.57-4.564,2.43a44.71,44.71,0,0,1-1.028-5.5c-0.064-.74-0.161-1.51-0.161-2.15,0-.45.225-0.89,0.225-1.34a0.578,0.578,0,0,0-.578-0.51A18.543,18.543,0,0,0,233.718,2291.59Zm39.947,0.36c-2.732,0-3.664-.07-3.857-0.07-0.353,0-.385.03-0.385,0.35v2.24c0,0.32.032,0.35,0.385,0.35,0.065,0,.29,0,0.74-0.03a20.344,20.344,0,0,0,3.824,5.57,24.8,24.8,0,0,1-6.138,3.1v-2.08c0-1.92.064-2.78,0.064-2.97,0-.32-0.032-0.35-0.353-0.35-0.225,0-1.093.06-3.535,0.06h-0.579v-2.05H264.6c2.7,0,3.664.07,3.857,0.07,0.289,0,.321-0.04.321-0.36v-2.08c0-.28-0.032-0.32-0.321-0.32-0.193,0-1.157.07-3.857,0.07h-0.771v-0.1a5.19,5.19,0,0,1,.225-2.08,1.4,1.4,0,0,0,.161-0.57c0-.16-0.161-0.26-0.514-0.32a28.566,28.566,0,0,0-3.053-.23,19.8,19.8,0,0,1,.225,3.3h-1.382c-2.7,0-3.6-.07-3.792-0.07-0.322,0-.354.04-0.354,0.32v2.08c0,0.32.032,0.36,0.354,0.36,0.192,0,1.092-.07,3.792-0.07h1.382v2.05h-0.611c-2.442,0-3.31-.06-3.5-0.06-0.321,0-.353.03-0.353,0.35,0,0.19.064,1.05,0.064,2.97v4.96c0,1.96-.064,2.79-0.064,3.01,0,0.29.032,0.32,0.353,0.32,0.193,0,1.061-.06,3.5-0.06h0.578v2.08h-1.414c-2.8,0-3.727-.07-3.92-0.07-0.322,0-.354.04-0.354,0.36v2.04c0,0.32.032,0.36,0.354,0.36,0.193,0,1.125-.07,3.92-0.07h1.414c-0.032,3.01-.064,4.64-0.064,4.8,0,0.32.032,0.35,0.354,0.35h2.378c0.321,0,.353-0.03.353-0.35,0-.13-0.064-1.79-0.064-4.8h0.8c2.8,0,3.792.07,3.985,0.07,0.29,0,.322-0.04.322-0.36v-2.04c0-.32-0.032-0.36-0.322-0.36-0.193,0-1.189.07-3.985,0.07h-0.8v-2.08h0.611c2.442,0,3.31.06,3.535,0.06,0.321,0,.353-0.03.353-0.32,0-.19-0.064-1.05-0.064-3.01v-2.81a10.828,10.828,0,0,1,1.028,1.73c0.257,0.6.354,0.86,0.611,0.86a2.358,2.358,0,0,0,.771-0.26,30.647,30.647,0,0,0,6.01-3.45,25.6,25.6,0,0,0,6.2,3.39,2.722,2.722,0,0,0,.739.22c0.289,0,.354-0.25.611-0.86a7.169,7.169,0,0,1,1.092-1.98,27.82,27.82,0,0,1-6.3-2.82,24.73,24.73,0,0,0,3.438-4.42,4.631,4.631,0,0,1,1.028-1.37,0.752,0.752,0,0,0,.386-0.64c0-.29-0.064-0.42-0.964-1.34-0.868-.87-1.06-0.93-1.318-0.93a0.847,0.847,0,0,0-.417.13,1.76,1.76,0,0,1-.8.16h-6.684Zm5.881,2.81a17.92,17.92,0,0,1-2.925,3.74,15.575,15.575,0,0,1-2.892-3.74h5.817ZM265.6,2307.3h-1.9v-2.4h1.9v2.4Zm-6.492,0v-2.4H261v2.4h-1.9Zm0-4.57v-2.31H261v2.31h-1.9Zm6.492-2.31v2.31h-1.9v-2.31h1.9Zm12.308,7.97v-0.19a6.82,6.82,0,0,1,.193-2.43,1.694,1.694,0,0,0,.128-0.67c0-.2-0.16-0.32-0.482-0.36-1.092-.09-2.089-0.19-3.246-0.22a21.676,21.676,0,0,1,.225,3.71v0.16h-0.964c-2.7,0-3.6-.06-3.792-0.06-0.321,0-.353.03-0.353,0.35v2.27c0,0.32.032,0.35,0.353,0.35,0.193,0,1.093-.06,3.792-0.06h0.964v4.32H272.54c-2.989,0-3.953-.06-4.146-0.06-0.321,0-.353.03-0.353,0.35v2.27c0,0.35.032,0.38,0.353,0.38,0.193,0,1.157-.06,4.146-0.06h7.777c2.989,0,3.985.06,4.178,0.06,0.289,0,.321-0.03.321-0.38v-2.27c0-.32-0.032-0.35-0.321-0.35-0.193,0-1.189.06-4.178,0.06h-2.41v-4.32h1.478c2.7,0,3.6.06,3.824,0.06,0.322,0,.354-0.03.354-0.35v-2.27c0-.32-0.032-0.35-0.354-0.35-0.225,0-1.124.06-3.824,0.06h-1.478Zm13.21-13.66a17.076,17.076,0,0,1,.385,4.19,57.7,57.7,0,0,0,.772,9.31c0.867,5.41,3.5,8.35,6.009,8.35,2.25,0,4.242-1.72,5.463-4.99a0.969,0.969,0,0,0-.225-1.18,12.384,12.384,0,0,1-2.056-2.47c-1.254,3.33-2.057,4.45-3.085,4.45-1.35,0-2.186-2.17-2.636-4.7a40.21,40.21,0,0,1-.578-7.3,14.306,14.306,0,0,1,.289-3.13,2.838,2.838,0,0,0,.257-0.9,0.768,0.768,0,0,0-.514-0.58A13.907,13.907,0,0,0,291.117,2294.73Zm16.454,4.54a21.548,21.548,0,0,1,6.009,11.17c0.064,0.38.289,0.48,0.675,0.35a10.771,10.771,0,0,0,2.507-1.28,0.557,0.557,0,0,0,.353-0.7,21.158,21.158,0,0,0-6.3-10.95,0.521,0.521,0,0,0-.353-0.19,1.045,1.045,0,0,0-.354.13C309.6,2298.06,308.792,2298.5,307.571,2299.27Z" transform="translate(-131 -2285.03)"/>
  <path id="ミクロ泡" class="cls-4" d="M332.546,2290.89a63.408,63.408,0,0,1,14.575,4.42,0.584,0.584,0,0,0,.925-0.27,31.265,31.265,0,0,0,1.349-3.34c0.232-.5.155-0.69-0.462-0.96a71.326,71.326,0,0,0-13.726-4.03,0.721,0.721,0,0,0-1.041.5C333.857,2287.82,333.009,2289.78,332.546,2290.89Zm-2.583,9.99a57.372,57.372,0,0,1,12.608,4.1,0.91,0.91,0,0,0,.5.16,0.735,0.735,0,0,0,.54-0.5,24.317,24.317,0,0,0,1.272-2.96,0.735,0.735,0,0,0-.5-1.11,60.628,60.628,0,0,0-11.76-3.73,0.7,0.7,0,0,0-1,.39A36.958,36.958,0,0,0,329.963,2300.88Zm-0.617,11.4a70.136,70.136,0,0,1,19.047,6.37,1.1,1.1,0,0,0,.54.19,0.717,0.717,0,0,0,.578-0.46,29.213,29.213,0,0,0,1.542-3.15,0.667,0.667,0,0,0-.385-1.03,65.669,65.669,0,0,0-18.469-5.99,0.85,0.85,0,0,0-1.079.46A39.365,39.365,0,0,0,329.346,2312.28Zm40.221-19.66c0.463-.69.848-1.27,1.273-1.92a4.2,4.2,0,0,1,.963-1.03,0.784,0.784,0,0,0,.425-0.66,0.8,0.8,0,0,0-.386-0.65,18.884,18.884,0,0,0-4.511-2.03,16.359,16.359,0,0,1-2.275,5.18,45.641,45.641,0,0,1-10.371,11.4,10.526,10.526,0,0,1,3.7,1.65,0.948,0.948,0,0,0,.578.23,1.191,1.191,0,0,0,.81-0.42,53.726,53.726,0,0,0,7.287-7.87l9.331-.27a39.174,39.174,0,0,1-7.133,10.9,44.373,44.373,0,0,1-12.839,9.79,10.253,10.253,0,0,1,3.662,1.77,1.354,1.354,0,0,0,.887.42,1.067,1.067,0,0,0,.617-0.19,49,49,0,0,0,11.721-9.56,52.944,52.944,0,0,0,7.634-11.86,4.611,4.611,0,0,1,1.273-1.65,1.106,1.106,0,0,0,.462-0.81,1.223,1.223,0,0,0-.5-0.88,18.147,18.147,0,0,0-2.622-2.08,1.148,1.148,0,0,0-.617-0.23,0.756,0.756,0,0,0-.5.16,3.593,3.593,0,0,1-1.928.46Zm38.839,20.04v2.04c0,0.53.039,0.61,0.5,0.61,1.157,0.04,2.391.04,3.547,0,0.54,0,.733-0.11.733-0.65-0.077-2.08-.193-3.96-0.193-7.3v-9.17c0-2.27.039-4.34,0.039-6.22,0.038-.58-0.077-0.77-0.5-0.77-1.813.08-4.743,0.08-7.249,0.08h-9.176c-2.584,0-4.858,0-6.9-.12-0.27,0-.424.16-0.424,0.54,0.116,2.23.077,4.3,0.077,6.37v9.41c0,2.92-.077,5.64-0.116,7.64-0.038.46,0.155,0.54,0.81,0.57,0.964,0.04,2.082.04,3.046,0,0.694-.03.848-0.11,0.848-0.76v-2.27h14.96Zm0-4.07h-15v-13.24h15v13.24Zm26.459-8.6c0,0.42.039,0.46,0.424,0.46,0.231,0,1.041-.07,3.663-0.07h4.125v3.72h-5.821c-2.121,0-3.124-.08-3.355-0.08-0.424,0-.463.04-0.463,0.46,0,0.23.078,1.27,0.078,3.34v7.34c0,1.88.385,2.8,1.156,3.49,0.81,0.69,2.584,1,9.871,1,6.439,0,9.06-.35,10.217-1.35a5.647,5.647,0,0,0,1.735-3.72c0.154-1.19.116-1.23-1.08-1.53a12.23,12.23,0,0,1-2.7-1.04c-0.116,1.69-.27,2.53-0.887,3.15-0.579.57-2.314,0.84-7.056,0.84-5.4,0-6.4-.15-6.863-0.5-0.386-.27-0.386-1.07-0.386-1.96v-5.95h5.745c2.2,0,3.123.08,3.355,0.08,0.424,0,.462-0.04.462-0.42,0-.23-0.077-1.23-0.077-3.38v-3.26c0-2.15.077-3.15,0.077-3.42,0-.38-0.038-0.42-0.462-0.42-0.232,0-1.157.07-3.355,0.07h-4.318c-2.622,0-3.432-.07-3.663-0.07a0.735,0.735,0,0,0-.347.04,31.793,31.793,0,0,0,2.275-3.15h13.649c-0.039,7.1-.309,11.55-0.694,13.55-0.232,1.19-.656,1.57-1.311,1.57a19.381,19.381,0,0,1-3.007-.23,10.462,10.462,0,0,1,.694,2.69c0.154,1.27.192,1.27,1.388,1.27a12.645,12.645,0,0,0,3.161-.23,3.629,3.629,0,0,0,2.738-3.04c0.617-2.68.925-7.02,1-15.97,0-.88.077-1.84,0.154-2.84,0-.38-0.077-0.46-0.5-0.46-0.231,0-1.311.08-4.55,0.08H439.26c0.309-.61.617-1.27,0.887-1.92a3.038,3.038,0,0,1,.694-1.23,0.793,0.793,0,0,0,.347-0.65,0.745,0.745,0,0,0-.655-0.58,25.042,25.042,0,0,0-3.586-.65,10.755,10.755,0,0,1-.655,2.27,27.021,27.021,0,0,1-6.594,9.36,9.921,9.921,0,0,1,2.044,1.85,1.64,1.64,0,0,0,.81.8,1.914,1.914,0,0,0,.771-0.61c0.54-.58,1.041-1.15,1.542-1.77v3.07ZM422.1,2317.35a25.156,25.156,0,0,0,3.007,2.11,1.847,1.847,0,0,0,.694.23,0.569,0.569,0,0,0,.54-0.46,5.209,5.209,0,0,1,.617-1.5,82.956,82.956,0,0,0,3.663-8.49,2.924,2.924,0,0,0,.231-0.88,1.408,1.408,0,0,0-.81-0.96,17.278,17.278,0,0,1-2.12-1.96,73.9,73.9,0,0,1-3.779,8.87A13.091,13.091,0,0,1,422.1,2317.35Zm1.581-29.37a0.817,0.817,0,0,0-.27.46,0.449,0.449,0,0,0,.27.27,32.394,32.394,0,0,1,5.436,4.3c0.309,0.26.386,0.3,0.656-.12l1.773-2.38a1.008,1.008,0,0,0,.232-0.46,0.417,0.417,0,0,0-.232-0.31,31.63,31.63,0,0,0-5.359-4.03c-0.347-.19-0.424-0.19-0.733.19Zm-1.658,9.67a0.856,0.856,0,0,0-.232.46,0.43,0.43,0,0,0,.27.27,29.721,29.721,0,0,1,5.437,4.18,0.644,0.644,0,0,0,.347.24,0.4,0.4,0,0,0,.308-0.27l1.735-2.46a1.008,1.008,0,0,0,.232-0.46,0.619,0.619,0,0,0-.232-0.31,28.58,28.58,0,0,0-5.475-3.91c-0.347-.2-0.462-0.2-0.771.19Z" transform="translate(-131 -2285.03)"/>
  <path id="が" class="cls-3" d="M488.239,2293.9a15.83,15.83,0,0,1,3.246,3.71,0.337,0.337,0,0,0,.546.09l1.35-.99a0.321,0.321,0,0,0,.1-0.51,14.49,14.49,0,0,0-3.053-3.42,0.339,0.339,0,0,0-.482-0.07Zm2.957-2.11a15.076,15.076,0,0,1,3.214,3.67,0.328,0.328,0,0,0,.546.1l1.285-.99a0.374,0.374,0,0,0,.1-0.58,13.259,13.259,0,0,0-3.053-3.29,0.337,0.337,0,0,0-.482-0.07Zm-15.811,7.29c-1.254.19-2.443,0.35-3.792,0.48-1.414.13-2.828,0.22-4.242,0.22a29.341,29.341,0,0,0,1,3.3,0.707,0.707,0,0,0,1.028.42,9.366,9.366,0,0,1,1.768-.52c0.867-.16,1.9-0.35,3.149-0.54a67.188,67.188,0,0,1-5.881,12.54,0.612,0.612,0,0,0-.128.36,0.66,0.66,0,0,0,.257.48,14.138,14.138,0,0,0,2.217,1.4,0.525,0.525,0,0,0,.836-0.28,88.368,88.368,0,0,0,6.459-15.04,21.084,21.084,0,0,1,2.7-.23c1.414,0,1.831.71,1.831,2.95a24.582,24.582,0,0,1-1.253,7.96c-0.514,1.32-1,1.7-2.057,1.7a8.6,8.6,0,0,1-3.7-.83,9.052,9.052,0,0,1,.61,2.97,0.859,0.859,0,0,0,.579.9,8.547,8.547,0,0,0,3.342.48,4.6,4.6,0,0,0,4.338-3.01c1.093-2.3,1.736-6.56,1.736-10.01,0-4.1-1.607-6.18-4.6-6.18a23.643,23.643,0,0,0-2.571.13c0.418-1.35.739-2.53,1.157-3.84a4.08,4.08,0,0,1,.643-1.22,0.664,0.664,0,0,0,.225-0.48,0.685,0.685,0,0,0-.514-0.64,23.458,23.458,0,0,0-3.857-1.05,21.676,21.676,0,0,1-.321,3.55C476.124,2296.14,475.9,2297.26,475.385,2299.08Zm11.087-.26a21.681,21.681,0,0,1,5.27,8.29,0.456,0.456,0,0,0,.739.26,13.242,13.242,0,0,0,2.411-1.6,0.456,0.456,0,0,0,.128-0.64,21.464,21.464,0,0,0-5.334-7.78,0.453,0.453,0,0,0-.611-0.16A28.4,28.4,0,0,0,486.472,2298.82Z" transform="translate(-131 -2285.03)"/>
  <path id="ピタッと薄膜フィット" class="cls-3" d="M182.406,2354.12a7.276,7.276,0,0,1,.321-2.88c0.289-.48.418-1.02-0.289-1.18a27.351,27.351,0,0,0-4.049-.64,33.037,33.037,0,0,1,.321,5.85v11.81c0,2.62.675,4.13,2.282,4.8a15.825,15.825,0,0,0,6.106.86,64.3,64.3,0,0,0,9.544-.57c0.482-.03.675-0.16,0.675-0.58,0-.67-0.1-1.89-0.193-2.78-0.032-.39-0.1-0.51-0.578-0.45a57.2,57.2,0,0,1-9.063.74,16.138,16.138,0,0,1-4.049-.36c-0.835-.25-1.06-0.76-1.06-2.27v-4.25a84.784,84.784,0,0,0,11.022-3.97,17.145,17.145,0,0,1,2.668-1.06c0.642-.16.675-0.7,0.289-1.15a18.508,18.508,0,0,0-2.667-2.88,9.954,9.954,0,0,1-3.439,2.3,60.539,60.539,0,0,1-7.841,3.11v-4.45Zm17-6.11a3.382,3.382,0,0,0-3.471,3.42A3.471,3.471,0,1,0,199.406,2348.01Zm0,1.53a1.89,1.89,0,1,1-1.9,1.89A1.837,1.837,0,0,1,199.406,2349.54Zm19.477,2.28c0.546-.84.739-1.16,1-1.6a2.746,2.746,0,0,1,.675-0.68,0.854,0.854,0,0,0,.386-0.63,0.566,0.566,0,0,0-.354-0.52,19.97,19.97,0,0,0-3.76-1.56,11.808,11.808,0,0,1-1.735,3.93A35.756,35.756,0,0,1,206,2360.81a13.312,13.312,0,0,1,2.7,1.47,0.73,0.73,0,0,0,.514.22,1.14,1.14,0,0,0,.643-0.28,38.971,38.971,0,0,0,6.877-7.2l7.97-.16a30.779,30.779,0,0,1-3.76,6.33,32.722,32.722,0,0,0-4.146-2.56,0.914,0.914,0,0,0-.321-0.13,0.609,0.609,0,0,0-.418.23c-0.739.67-1.414,1.5-2.121,2.27a26.8,26.8,0,0,1,4.628,3.01,38.987,38.987,0,0,1-11.827,8.67,9.1,9.1,0,0,1,3.053,1.63,0.981,0.981,0,0,0,.611.29,1.757,1.757,0,0,0,.8-0.29,39.052,39.052,0,0,0,10.252-8,35.319,35.319,0,0,1,3.117,3.11,0.6,0.6,0,0,0,.354.19,0.71,0.71,0,0,0,.385-0.16,19.3,19.3,0,0,0,1.993-2.02,0.628,0.628,0,0,0,.193-0.41,0.641,0.641,0,0,0-.193-0.45,27.724,27.724,0,0,0-3.471-3.23,49.957,49.957,0,0,0,4.724-7.75,3.859,3.859,0,0,1,.964-1.21,0.835,0.835,0,0,0,.354-0.61,0.791,0.791,0,0,0-.257-0.58,10.573,10.573,0,0,0-2.186-1.95,1.122,1.122,0,0,0-.578-0.26,0.958,0.958,0,0,0-.547.23,3.183,3.183,0,0,1-1.767.48Zm18.384,6.08a18.744,18.744,0,0,1,3.02,5.15c0.161,0.45.354,0.61,0.8,0.45a13.478,13.478,0,0,0,2.057-1,0.558,0.558,0,0,0,.385-0.44,2.084,2.084,0,0,0-.128-0.48,17.117,17.117,0,0,0-2.764-4.74,0.578,0.578,0,0,0-.836-0.22C239.13,2356.94,238.359,2357.29,237.267,2357.9Zm6.459-1.64a21.975,21.975,0,0,1,2.7,5.12c0.161,0.45.29,0.61,0.643,0.48a13.491,13.491,0,0,0,2.218-.99,0.562,0.562,0,0,0,.321-0.86,18.357,18.357,0,0,0-2.475-4.67,0.563,0.563,0,0,0-.835-0.26C245.751,2355.3,245.011,2355.66,243.726,2356.26Zm10.123-.76a11.552,11.552,0,0,1-.739,3.39,33.2,33.2,0,0,1-4.339,7.71c-1.928,2.5-3.856,4.13-7.712,6.66a7.228,7.228,0,0,1,2.731,1.34,0.733,0.733,0,0,0,.514.22,1.407,1.407,0,0,0,.772-0.35,25.78,25.78,0,0,0,6.62-6.17,38.987,38.987,0,0,0,4.852-8.52,4.48,4.48,0,0,1,.965-1.63,0.756,0.756,0,0,0,.353-0.57,0.777,0.777,0,0,0-.418-0.55A15.228,15.228,0,0,0,253.849,2355.5Zm16.455-7.91a14.384,14.384,0,0,1,.835,3.71,48.278,48.278,0,0,0,1.671,7.81c-3.76,2.37-6.105,4.71-6.105,8.26,0,4.16,3.213,6.14,9.287,6.14a68.055,68.055,0,0,0,9.577-.48,0.5,0.5,0,0,0,.578-0.54,28.5,28.5,0,0,0-.321-2.98,0.4,0.4,0,0,0-.579-0.38,56.238,56.238,0,0,1-9.8.73c-3.7,0-5.11-.8-5.11-2.68,0-1.51,1-3.01,3.792-4.84a44.764,44.764,0,0,1,7.552-3.74,15.206,15.206,0,0,1,3.085-.96,0.636,0.636,0,0,0,.643-0.64,1.287,1.287,0,0,0-.225-0.67,16.665,16.665,0,0,0-2.346-3.01,8.053,8.053,0,0,1-2.217,1.73c-1.8.96-2.957,1.57-4.564,2.43a44.522,44.522,0,0,1-1.028-5.5c-0.064-.74-0.161-1.51-0.161-2.15,0-.45.225-0.89,0.225-1.34a0.578,0.578,0,0,0-.578-0.51A18.543,18.543,0,0,0,270.3,2347.59Zm38.565,8.9v1.47h-2.475c-3.02,0-4.081-.06-4.242-0.06-0.353,0-.385.03-0.385,0.35,0,0.22.064,0.83,0.064,2.37v2.75c0,1.6-.064,2.21-0.064,2.37,0,0.35.032,0.38,0.385,0.38,0.161,0,1.222-.06,4.242-0.06h8.131c3.021,0,4.049.06,4.242,0.06,0.353,0,.386-0.03.386-0.38,0-.16-0.065-0.77-0.065-2.37v-2.75c0-1.54.065-2.18,0.065-2.37,0-.32-0.033-0.35-0.386-0.35-0.193,0-1.221.06-4.242,0.06h-2.7v-1.47h4.564c3.149,0,4.242.06,4.435,0.06,0.321,0,.353-0.03.353-0.35v-1.7c0-.32-0.032-0.35-0.353-0.35-0.161,0-1.093.07-3.375,0.07l0.611-.48a0.65,0.65,0,0,0,.257-0.32,0.522,0.522,0,0,0-.161-0.29,13.437,13.437,0,0,0-1.9-1.47,0.477,0.477,0,0,0-.707-0.04l-1.221.84a0.411,0.411,0,0,0-.257.28,0.494,0.494,0,0,0,.225.26c0.418,0.35.9,0.77,1.35,1.22h-3.825a2.5,2.5,0,0,1,.161-0.87,1.046,1.046,0,0,0,.129-0.45c0-.16-0.129-0.22-0.386-0.25-0.868-.1-2.057-0.19-3.021-0.23a15.34,15.34,0,0,1,.161,1.8h-3.856c-3.15,0-4.242-.07-4.435-0.07-0.322,0-.354.03-0.354,0.35v1.7c0,0.32.032,0.35,0.354,0.35,0.193,0,1.285-.06,4.435-0.06h3.856Zm7.263,7.81h-4.307v-1.48h4.307v1.48Zm0-4.58v1.44h-4.307v-1.44h4.307Zm-11.409,4.58v-1.48h4.146v1.48h-4.146Zm0-3.14v-1.44h4.146v1.44h-4.146Zm-7.616-12.8c-2.828,0-3.824-.06-4.017-0.06-0.321,0-.354.03-0.354,0.35v2.05c0,0.32.033,0.35,0.354,0.35,0.193,0,1.189-.07,4.017-0.07h3.631c-0.032.93-.064,1.38-0.064,1.54,0,0.32.032,0.35,0.354,0.35H303.5c0.321,0,.354-0.03.354-0.35,0-.16-0.065-0.61-0.065-1.54h6.2c0,0.52-.032.8-0.032,0.9,0,0.32.032,0.35,0.353,0.35h2.475c0.321,0,.353-0.03.353-0.35,0-.1-0.032-0.38-0.064-0.9H317c2.828,0,3.825.07,4.017,0.07,0.322,0,.354-0.03.354-0.35v-2.05c0-.32-0.032-0.35-0.354-0.35-0.192,0-1.189.06-4.017,0.06h-3.92a2.855,2.855,0,0,1,.16-1.25,1.209,1.209,0,0,0,.161-0.44c0-.16-0.128-0.26-0.418-0.29-0.867-.1-2.121-0.16-3.149-0.19a14.625,14.625,0,0,1,.193,2.17h-6.235a2.849,2.849,0,0,1,.161-1.25,1.35,1.35,0,0,0,.161-0.48c0-.16-0.129-0.25-0.418-0.28-0.868-.1-2.121-0.16-3.149-0.2a16.282,16.282,0,0,1,.192,2.21h-3.631Zm16.261,21.7v1.79a0.74,0.74,0,0,1-.9.89c-0.8,0-1.7-.03-2.8-0.12a6.279,6.279,0,0,1,.707,1.92c0.225,0.99.257,0.99,1.254,0.99,2.313,0,3.374-.23,3.952-0.67a2.794,2.794,0,0,0,.868-2.44c0-.7-0.064-1.5-0.064-2.36h0.353c3.15,0,4.242.06,4.435,0.06,0.289,0,.321-0.03.321-0.35v-1.79c0-.32-0.032-0.36-0.321-0.36-0.193,0-1.285.07-4.435,0.07h-0.353a1.638,1.638,0,0,1,.128-0.42,1.044,1.044,0,0,0,.161-0.48,0.41,0.41,0,0,0-.45-0.32c-0.9-.09-1.9-0.16-3.053-0.22a11.649,11.649,0,0,1,.193,1.44h-8.58c-3.182,0-4.275-.07-4.467-0.07-0.322,0-.354.04-0.354,0.36v1.79c0,0.32.032,0.35,0.354,0.35,0.192,0,1.285-.06,4.467-0.06h8.58Zm-15.65-5.09a43.8,43.8,0,0,1-3.407,5.73,16.432,16.432,0,0,1-1.7,1.92c0.739,0.76,1.639,1.6,2.249,2.11a0.925,0.925,0,0,0,.547.29,0.5,0.5,0,0,0,.418-0.36,5.191,5.191,0,0,1,.61-1.12,43.27,43.27,0,0,0,3.085-5.08,1.965,1.965,0,0,0,.322-0.84,1.365,1.365,0,0,0-.579-0.8A17.1,17.1,0,0,1,297.718,2364.97Zm-4.789-4.35c-0.193.28-.193,0.35,0.1,0.54a31.72,31.72,0,0,1,3.952,3.04,0.506,0.506,0,0,0,.29.16,0.372,0.372,0,0,0,.257-0.22l1.349-1.86c0.225-.38.258-0.45,0.033-0.67a35.706,35.706,0,0,0-3.985-2.85c-0.322-.19-0.386-0.16-0.675.22Zm1-6.28c-0.224.29-.257,0.32,0.033,0.52a24.185,24.185,0,0,1,3.792,3,0.5,0.5,0,0,0,.289.16,0.675,0.675,0,0,0,.386-0.32l1.285-1.76a0.782,0.782,0,0,0,.193-0.38,0.427,0.427,0,0,0-.193-0.26,24.5,24.5,0,0,0-3.792-2.72c-0.289-.19-0.321-0.22-0.675.2Zm9.416,17.25c-0.417.26-.449,0.32-0.16,0.51a20.976,20.976,0,0,1,2.8,2.76,0.542,0.542,0,0,0,.257.19,0.972,0.972,0,0,0,.417-0.19l1.639-1.32c0.386-.32.354-0.38,0.193-0.6a19.224,19.224,0,0,0-2.86-2.44c-0.225-.19-0.321-0.19-0.675.04Zm48.142-3.29c3.085,0,4.178.06,4.371,0.06,0.289,0,.321-0.03.321-0.35v-2.05c0-.29-0.032-0.32-0.321-0.32-0.193,0-1.286.06-4.371,0.06H347.5a12.5,12.5,0,0,0,.161-1.63h2.025c2.86,0,3.792.07,4.017,0.07,0.321,0,.353-0.04.353-0.36,0-.19-0.064-0.96-0.064-2.78v-4.1c0-1.82.064-2.62,0.064-2.81,0-.32-0.032-0.35-0.353-0.35-0.225,0-1.157.06-4.017,0.06h-6.492c-2.86,0-3.824-.06-4.017-0.06-0.321,0-.353.03-0.353,0.35,0,0.22.064,0.99,0.064,2.81v4.1c0,1.82-.064,2.56-0.064,2.78,0,0.32.032,0.36,0.353,0.36,0.193,0,1.157-.07,4.017-0.07h1.35c-0.032.58-.1,1.12-0.161,1.63H342c-3.053,0-4.146-.06-4.338-0.06-0.322,0-.354.03-0.354,0.32v2.05c0,0.32.032,0.35,0.354,0.35,0.192,0,1.285-.06,4.338-0.06h1.543c-1.093,2.2-3.246,3.48-6.974,4.51a7.491,7.491,0,0,0,.064-0.9c0-1.31-.1-3.01-0.1-4.45v-14.65c0-3.33.064-5.06,0.064-5.25,0-.32-0.032-0.35-0.353-0.35-0.225,0-.772.06-2.571,0.06h-2.411c-1.831,0-2.378-.06-2.57-0.06-0.354,0-.386.03-0.386,0.35,0,0.19.064,1.92,0.064,5.25v5.25c0,9.18-.61,12.19-2.024,15.13a6.4,6.4,0,0,1,1.767,1.63,0.93,0.93,0,0,0,.579.42,0.6,0.6,0,0,0,.417-0.54,28.514,28.514,0,0,0,1.8-9.67h2.924v5.99c0,0.76-.257,1.08-0.835,1.08a18.4,18.4,0,0,1-1.928-.09,6.054,6.054,0,0,1,.9,2.21c0.225,1.02.225,1.02,1.222,0.99a4.289,4.289,0,0,0,2.571-.67,2.148,2.148,0,0,0,.707-1.19,7.707,7.707,0,0,1,.932,1.35c0.289,0.57.417,0.76,0.674,0.76a2.4,2.4,0,0,0,.74-0.19c3.631-1.25,6.009-3.04,7.391-5.53a13.4,13.4,0,0,0,8.259,5.4c1.028,0.23,1.06.32,1.35-.67a7.351,7.351,0,0,1,1.06-2.14c-4.049-.51-6.845-1.99-8.452-4.03h3.053ZM351,2361.67h-9.159v-1.73H351v1.73Zm-9.159-5.47H351v1.6h-9.159v-1.6Zm-10.8,5.86c0.032-1.19.032-2.5,0.032-3.97v-0.45h2.763v4.42h-2.795Zm2.795-11.78v4.38h-2.763v-4.38h2.763Zm3.535,0.86c0,0.32.033,0.36,0.354,0.36,0.161,0,1.189-.07,3.888-0.07-0.032.83-.064,1.22-0.064,1.38,0,0.29.032,0.32,0.354,0.32h2.346c0.321,0,.353-0.03.353-0.32,0-.13-0.064-0.58-0.064-1.38h3.824c-0.032.83-.064,1.22-0.064,1.38,0,0.32.032,0.35,0.353,0.35H351c0.322,0,.354-0.03.354-0.35,0-.13-0.065-0.58-0.065-1.38h0.29c3.053,0,4.145.07,4.338,0.07,0.289,0,.321-0.04.321-0.36v-2.01c0-.32-0.032-0.35-0.321-0.35-0.193,0-1.285.06-4.338,0.06h-0.29v-0.13a4.333,4.333,0,0,1,.161-1.4,0.849,0.849,0,0,0,.161-0.45c0-.16-0.129-0.26-0.418-0.29-0.868-.1-1.96-0.16-3.021-0.19a12.081,12.081,0,0,1,.193,2.46h-3.824v-0.13a4.041,4.041,0,0,1,.16-1.4,1.47,1.47,0,0,0,.161-0.48,0.376,0.376,0,0,0-.418-0.29c-0.867-.1-1.992-0.16-3.02-0.19a12.634,12.634,0,0,1,.192,2.49c-2.7,0-3.727-.06-3.888-0.06-0.321,0-.354.03-0.354,0.35v2.01Zm42.647,3.2a26.746,26.746,0,0,1-5.431,9.12,30.871,30.871,0,0,1-10.509,8,9.642,9.642,0,0,1,2.989,1.76,1.125,1.125,0,0,0,.8.36,1.576,1.576,0,0,0,.867-0.29,36.063,36.063,0,0,0,9.127-7.62,37.528,37.528,0,0,0,6.234-10.4,3.885,3.885,0,0,1,.74-1.25,1.077,1.077,0,0,0,.449-0.8,0.791,0.791,0,0,0-.225-0.54,9.738,9.738,0,0,0-2.345-2.11,1.51,1.51,0,0,0-.611-0.16,0.877,0.877,0,0,0-.482.13,3.138,3.138,0,0,1-1.768.32H368.389a56.076,56.076,0,0,1-6.17-.23c0.064,0.93.192,2.59,0.289,3.23,0.064,0.45.193,0.68,0.61,0.64,1.382-.06,3.214-0.16,5.3-0.16h11.6Zm23.268,6.24c1.125-1.08,2.089-2.14,2.924-3.1a7.964,7.964,0,0,1,1.447-1.31,0.738,0.738,0,0,0,.482-0.61,0.908,0.908,0,0,0-.354-0.58,27.73,27.73,0,0,0-2.956-1.92,9.1,9.1,0,0,1-1.7,2.76,45.886,45.886,0,0,1-13.336,10.4,5.446,5.446,0,0,1,2.314,1.6,0.9,0.9,0,0,0,.642.32,0.755,0.755,0,0,0,.418-0.13,43.147,43.147,0,0,0,6.652-4.61v5.47c0,1.7-.064,3.3-0.1,5.12a0.479,0.479,0,0,0,.514.58,18.844,18.844,0,0,0,2.6,0,0.487,0.487,0,0,0,.546-0.58c-0.032-1.63-.1-3.68-0.1-5.21v-8.2Zm12.278-2.68a18.772,18.772,0,0,1,3.021,5.15c0.16,0.45.353,0.61,0.8,0.45a13.478,13.478,0,0,0,2.057-1,0.558,0.558,0,0,0,.385-0.44,2.084,2.084,0,0,0-.128-0.48,17.117,17.117,0,0,0-2.764-4.74,0.577,0.577,0,0,0-.835-0.22C417.432,2356.94,416.66,2357.29,415.568,2357.9Zm6.459-1.64a21.979,21.979,0,0,1,2.7,5.12c0.16,0.45.289,0.61,0.642,0.48a13.491,13.491,0,0,0,2.218-.99,0.562,0.562,0,0,0,.321-0.86,18.387,18.387,0,0,0-2.474-4.67,0.564,0.564,0,0,0-.836-0.26C424.052,2355.3,423.313,2355.66,422.027,2356.26Zm10.123-.76a11.52,11.52,0,0,1-.739,3.39,33.235,33.235,0,0,1-4.338,7.71c-1.929,2.5-3.857,4.13-7.713,6.66a7.228,7.228,0,0,1,2.731,1.34,0.733,0.733,0,0,0,.515.22,1.407,1.407,0,0,0,.771-0.35,25.764,25.764,0,0,0,6.62-6.17,38.988,38.988,0,0,0,4.853-8.52,4.478,4.478,0,0,1,.964-1.63,0.756,0.756,0,0,0,.353-0.57,0.774,0.774,0,0,0-.418-0.55A15.228,15.228,0,0,0,432.15,2355.5Zm19.7-3.56c0-1.79,0-2.59.225-3a1.717,1.717,0,0,0,.257-0.74,0.591,0.591,0,0,0-.611-0.54,22.852,22.852,0,0,0-4.017-.51,24.23,24.23,0,0,1,.322,4.73v15.74c0,2.05-.033,3.94-0.129,6.31,0,0.38.161,0.48,0.611,0.48a22.744,22.744,0,0,0,2.86,0c0.45,0,.61-0.1.578-0.48-0.064-2.31-.128-4.19-0.128-6.27v-7.08a35.593,35.593,0,0,1,8.451,4.1,0.488,0.488,0,0,0,.354.16,0.547,0.547,0,0,0,.418-0.35,18.879,18.879,0,0,0,1.382-2.79,0.59,0.59,0,0,0-.354-0.83,45.521,45.521,0,0,0-10.219-4.35v-4.58Z" transform="translate(-131 -2285.03)"/>
  <rect id="長方形_978-3" data-name="長方形 978" class="cls-2" y="142.97" width="378" height="13"/>
  <path id="瞬時にムラなく透明感" class="cls-4" d="M154.9,2419.52a21.02,21.02,0,0,1-1.388,4.07c-0.347-.31-0.771-0.65-1.234-1-0.269-.15-0.424-0.15-0.809.19l-1.118,1.12a0.712,0.712,0,0,0-.309.5,0.4,0.4,0,0,0,.232.3,17.535,17.535,0,0,1,1.7,1.62,18.775,18.775,0,0,1-6.362,5.56,7.663,7.663,0,0,1,1.928,1.69,1.116,1.116,0,0,0,.733.58,1.621,1.621,0,0,0,.809-0.39,21.62,21.62,0,0,0,8.945-13.51,2.446,2.446,0,0,1,.54-1.15,0.738,0.738,0,0,0,.27-0.46,2.477,2.477,0,0,0-.848-1.35,2.364,2.364,0,0,0-1.273-1.07,0.75,0.75,0,0,0-.424.15,1.144,1.144,0,0,1-.655.16h-1.889l0.154-.5a2.363,2.363,0,0,1,.578-1.12,0.847,0.847,0,0,0,.347-0.57c0-.23-0.154-0.39-0.655-0.54-0.733-.23-1.774-0.46-2.7-0.69v-0.92h15.846v1.61c-0.771-.11-1.889-0.19-2.968-0.23a21.649,21.649,0,0,1,.231,3.34h-1.812c-2.506,0-3.239-.08-3.47-0.08-0.386,0-.424.04-0.424,0.46v2.5c0,0.42.038,0.46,0.424,0.46a3.848,3.848,0,0,0,.54-0.04v5.07c-1.7,0-2.391-.08-2.545-0.08-0.386,0-.424.04-0.424,0.42v2.65c0,0.39.038,0.43,0.424,0.43,0.231,0,1.195-.08,4.125-0.08h3.162v0.34c0,3.15-.077,4.69-0.077,4.96,0,0.34.038,0.38,0.424,0.38h2.545c0.347,0,.385-0.04.385-0.38,0-.23-0.077-1.81-0.077-4.96v-0.34c2.044,0.04,2.815.08,3.046,0.08,0.386,0,.424-0.04.424-0.43v-2.65c0-.38-0.038-0.42-0.424-0.42-0.231,0-1,.08-3.046.08v-5.11c1.465,0.04,2,.08,2.2.08,0.424,0,.462-0.04.462-0.46v-2.5c0-.42-0.038-0.46-0.462-0.46-0.193,0-.733.08-2.2,0.08,0-.65-0.038-1.19,0-1.54h2.66c0.386,0,.425-0.03.425-0.46,0-.19-0.078-0.57-0.078-3.14v-1c0-.65.078-1.15,0.078-1.38,0-.39-0.039-0.43-0.425-0.43-0.231,0-1.349.08-4.048,0.08a19.889,19.889,0,0,0,1.427-2.92,1.936,1.936,0,0,1,.617-0.8,0.534,0.534,0,0,0,.308-0.5,0.592,0.592,0,0,0-.463-0.54,16.045,16.045,0,0,0-3.238-.84,13.805,13.805,0,0,1-.579,2.07,20.4,20.4,0,0,1-1.7,3.53h-1.542a19.509,19.509,0,0,0-1.427-4.15c-0.231-.38-0.309-0.42-0.81-0.26l-1.966.57c-0.5.15-.5,0.23-0.309,0.62a28.281,28.281,0,0,1,1.08,3.22h-3.354a21.37,21.37,0,0,0-1.311-3.49c-0.193-.35-0.347-0.39-0.771-0.23l-1.928.61c-0.5.15-.54,0.23-0.347,0.61a14.449,14.449,0,0,1,.964,2.5c-1.7,0-2.468-.08-2.584-0.08-0.424,0-.462.04-0.462,0.43,0,0.26.077,0.73,0.077,1.57v0.81c0,2.57-.077,2.95-0.077,3.14,0,0.43.038,0.46,0.462,0.46h2.391a15.526,15.526,0,0,1-4.2,6.76v-12.78c0-6.15.077-8.33,0.077-8.56,0-.43-0.038-0.46-0.462-0.46-0.232,0-.887.07-2.969,0.07h-2.738c-2.159,0-2.776-.07-3.046-0.07-0.385,0-.424.03-0.424,0.46,0,0.23.077,2.61,0.077,10.05v7.41c0,11.1-.077,13.4-0.077,13.63,0,0.39.039,0.42,0.424,0.42h2.507c0.385,0,.424-0.03.424-0.42v-2.95h3.046v1.46c0,0.38.038,0.42,0.424,0.42h2.352c0.424,0,.462-0.04.462-0.42,0-.16-0.077-1.58-0.077-7.26a8.253,8.253,0,0,1,.964,1.04,1.231,1.231,0,0,0,.694.53,1.157,1.157,0,0,0,.656-0.5,20.309,20.309,0,0,0,3.47-4.68H154.9Zm-14.458,6.1v-5.45h3.046v5.45h-3.046Zm3.046-21.92v5.26h-3.046v-5.26h3.046Zm-3.046,13.4v-5.07h3.046v5.07h-3.046Zm22.478,8.18v-5.11h1.658v5.11h-1.658Zm-13.649-21.65c0.463,1.19.463,1.19,1.658,1.11a122.321,122.321,0,0,0,16.155-2.07,6.69,6.69,0,0,1,1.619-.31,0.715,0.715,0,0,0,.81-0.5,0.844,0.844,0,0,0-.347-0.61,13.156,13.156,0,0,0-2.622-1.96,8.545,8.545,0,0,1-2.082.69,101.526,101.526,0,0,1-16.155,1.69Zm40.031,5.64c0-5.64.077-7.52,0.077-7.75,0-.39-0.039-0.43-0.424-0.43-0.27,0-1,.08-3.316.08H182.32c-2.313,0-3.046-.08-3.316-0.08-0.385,0-.424.04-0.424,0.43,0,0.23.077,2.26,0.077,9.21v8.37c0,9.63-.077,11.59-0.077,11.82,0,0.39.039,0.43,0.424,0.43h2.854c0.347,0,.385-0.04.385-0.43v-3.03h3.547v1.69c0,0.38.039,0.42,0.386,0.42h2.776c0.385,0,.424-0.04.424-0.42,0-.23-0.077-1.96-0.077-11.52v-8.79Zm-7.056,15.13v-8.3h3.547v8.3h-3.547Zm3.547-19.74v7.95h-3.547v-7.95h3.547Zm21.013,9.52c3.663,0,4.936.08,5.167,0.08,0.424,0,.463-0.04.463-0.46v-2.65c0-.38-0.039-0.42-0.463-0.42-0.231,0-1.5.08-5.167,0.08h-4.086v-3.96H205.3c3.508,0,4.665.08,4.9,0.08,0.386,0,.425-0.04.425-0.42v-2.69c0-.42-0.039-0.46-0.425-0.46-0.231,0-1.388.08-4.9,0.08h-2.583a8.9,8.9,0,0,1,.192-2.88,2.141,2.141,0,0,0,.232-0.81,0.556,0.556,0,0,0-.617-0.38c-1.427-.16-2.468-0.23-3.972-0.27a31.844,31.844,0,0,1,.27,4.34H197.01c-3.431,0-4.627-.08-4.858-0.08-0.424,0-.463.04-0.463,0.46v2.69c0,0.38.039,0.42,0.463,0.42,0.231,0,1.427-.08,4.858-0.08h1.812v3.96h-2.776c-3.663,0-4.935-.08-5.166-0.08-0.424,0-.463.04-0.463,0.42v2.65c0,0.42.039,0.46,0.463,0.46,0.231,0,1.5-.08,5.166-0.08H206.8Zm-3.007,7.22v7.64a1.032,1.032,0,0,1-1.272,1.19c-1.273,0-2.429-.04-3.779-0.15a8.563,8.563,0,0,1,1.157,2.8c0.27,1.15.308,1.15,1.465,1.15,2.892,0,4.164-.27,5.012-0.84a3.566,3.566,0,0,0,1.35-3.27c0-1.3-.039-2.95-0.039-4.72v-3.8c2.622,0.04,3.663.08,3.856,0.08,0.424,0,.463-0.04.463-0.42v-2.69c0-.38-0.039-0.42-0.463-0.42-0.193,0-1.234.07-3.856,0.07a4.779,4.779,0,0,1,.193-1.95,1.309,1.309,0,0,0,.193-0.66,0.648,0.648,0,0,0-.656-0.42c-1.041-.15-2.429-0.27-3.894-0.34a28.048,28.048,0,0,1,.27,3.37H196.2c-3.663,0-4.9-.07-5.128-0.07-0.425,0-.463.04-0.463,0.42v2.69c0,0.38.038,0.42,0.463,0.42,0.231,0,1.465-.08,5.128-0.08H203.8Zm-10.41,2.42c-0.463.27-.463,0.38-0.193,0.69a32.848,32.848,0,0,1,3.393,4.72,0.383,0.383,0,0,0,.309.27,0.927,0.927,0,0,0,.462-0.23l2.352-1.61c0.386-.27.424-0.38,0.193-0.73a30.635,30.635,0,0,0-3.547-4.41,0.529,0.529,0,0,0-.81-0.04Zm27.539-21.92a30.879,30.879,0,0,1-.694,5.72,72.969,72.969,0,0,0-1.311,12.59,35.833,35.833,0,0,0,1.774,11.44,0.461,0.461,0,0,0,.5.42,18.578,18.578,0,0,0,3.162-.61,0.507,0.507,0,0,0,.5-0.5c0-.31-0.077-0.61-0.077-1.07a4.337,4.337,0,0,1,.115-1.19,37.651,37.651,0,0,1,2.2-5.8,1.068,1.068,0,0,0,.193-0.62,1.513,1.513,0,0,0-.27-0.57,10.073,10.073,0,0,1-1.35-2.42c-1.118,2.69-1.812,3.95-2.621,5.72a36.633,36.633,0,0,1-.232-4.49,61.9,61.9,0,0,1,1.62-12.4,9.029,9.029,0,0,1,.925-2.73,2.122,2.122,0,0,0,.578-1.15,1.184,1.184,0,0,0-.886-0.92A17.208,17.208,0,0,0,220.925,2401.9Zm8.868,19.81a8.447,8.447,0,0,0,1.349,4.99c1.658,2.26,4.319,3.19,10.025,3.19a51.625,51.625,0,0,0,6.285-.43c0.655-.07.655-0.11,0.655-0.57a28.317,28.317,0,0,0-.231-3.3c-0.077-.5-0.154-0.54-0.54-0.5a56.717,56.717,0,0,1-7.364.5c-4.2,0-6.054-.96-6.285-3.61,0-.42-0.077-0.62-0.385-0.58Zm1.234-10.9a46.788,46.788,0,0,1,8.752-.89c1.966,0,3.971.08,6.285,0.23,0.347,0.04.462-.11,0.5-0.46,0.077-1.07.077-2.11,0.077-3.26,0-.38-0.077-0.46-0.887-0.5-1.619-.15-3.393-0.23-5.706-0.23a62.182,62.182,0,0,0-8.367.69,0.562,0.562,0,0,0-.54.65C231.065,2407.7,231.065,2408.66,231.027,2410.81Zm33.823-9.83a20.478,20.478,0,0,1-1.118,5.26c-2.005,6.45-4.01,12.13-6.748,19a46.137,46.137,0,0,1-4.7-.04,36.117,36.117,0,0,0,1.35,4.96,0.721,0.721,0,0,0,1.118.38c0.925-.46,1.966-0.65,4.511-0.92,6.285-.66,12.145-1.31,18.314-2.23,0.463,1,.887,2,1.35,3.07a0.638,0.638,0,0,0,.539.54,1,1,0,0,0,.463-0.12,19.73,19.73,0,0,0,2.93-1.57,0.79,0.79,0,0,0,.5-0.65,0.908,0.908,0,0,0-.155-0.5,54.154,54.154,0,0,0-7.788-12.56,0.652,0.652,0,0,0-.925-0.23c-1.08.58-2.2,1.23-3.355,1.85a38.313,38.313,0,0,1,4.28,6.14c-4.318.65-7.557,0.96-13.5,1.46,2.429-5.76,4.473-11.4,6.632-17.28a12.276,12.276,0,0,1,1.581-3.18,1.3,1.3,0,0,0,.385-0.77,0.88,0.88,0,0,0-.462-0.62A21.285,21.285,0,0,0,264.85,2400.98Zm41.957,5.07c2.352,0,4.164.07,5.436,0.07,0.579,0.04.694-.11,0.694-0.77a19.132,19.132,0,0,0,0-2.99c0-.42-0.115-0.61-0.462-0.61-1.5.07-3.547,0.19-6.054,0.19h-6.94a53.4,53.4,0,0,1-6.323-.27,33.042,33.042,0,0,0,.193,3.68c0.038,0.62.154,0.85,0.54,0.85,1.619-.12,3.547-0.15,5.282-0.15h7.634Zm2.93,8.21c-2.776,7.41-9.06,12.71-16.193,16.01a11.366,11.366,0,0,1,3.585,2,1.291,1.291,0,0,0,.849.46,1.919,1.919,0,0,0,.771-0.27c7.441-3.99,11.875-8.79,15.731-16.97a4.34,4.34,0,0,1,1.311-1.8,0.927,0.927,0,0,0,.424-0.73,1.137,1.137,0,0,0-.386-0.81,22.9,22.9,0,0,0-2.583-2.38,1.021,1.021,0,0,0-.578-0.27,0.852,0.852,0,0,0-.5.23,4.2,4.2,0,0,1-2.043.42H296.9a68.691,68.691,0,0,1-7.094-.3,28.78,28.78,0,0,0,.424,3.87c0.077,0.5.231,0.73,0.578,0.73,1.928-.11,3.856-0.15,5.784-0.15Zm32.473,8.33a20.192,20.192,0,0,0-3.046-.23c-4.356,0-7.132,2.27-7.132,5.61,0,3.3,2.853,5.45,7.094,5.45,4.4,0,7.171-1.77,7.171-5.61a28.55,28.55,0,0,1,4.7,3.23,0.616,0.616,0,0,0,.386.23,0.444,0.444,0,0,0,.347-0.27,23.634,23.634,0,0,0,1.773-3.11,0.512,0.512,0,0,0-.231-0.81,30.646,30.646,0,0,0-6.94-3.57,49.783,49.783,0,0,1-.424-6.52,3.983,3.983,0,0,1,.154-1.58,5,5,0,0,0,.231-0.8,0.6,0.6,0,0,0-.539-0.62,21.814,21.814,0,0,0-4.2-.73,13.464,13.464,0,0,1,.308,2.73C341.9,2417.79,341.979,2420.14,342.21,2422.59Zm0.077,3.65a4.352,4.352,0,0,1,.039.77c0,1.61-1.272,2.72-3.354,2.72-2.2,0-3.278-.61-3.278-1.84,0-1.46,1.5-2.23,3.432-2.23A9.779,9.779,0,0,1,342.287,2426.24ZM336,2406.54c0.347-1.15.655-2.34,0.925-3.26a4.235,4.235,0,0,1,.617-1.42,0.941,0.941,0,0,0,.347-0.73,0.644,0.644,0,0,0-.617-0.57,34.88,34.88,0,0,0-4.511-.81,14.8,14.8,0,0,1-.231,3.11c-0.27,1.38-.54,2.69-1,4.3-1.773.15-2.93,0.19-4.434,0.19-1.118,0-2-.04-3.585-0.15a20.009,20.009,0,0,0,.385,3.26c0.077,0.5.154,0.61,0.54,0.61,0.964,0.04,1.272.04,2.121,0.04,1.195,0,2.39,0,3.855-.07a77.453,77.453,0,0,1-6.67,13.39,0.761,0.761,0,0,0-.193.47,0.545,0.545,0,0,0,.27.42,18.892,18.892,0,0,0,2.66,1.96,1.132,1.132,0,0,0,.463.19,0.567,0.567,0,0,0,.424-0.39,105.667,105.667,0,0,0,7.519-16.47c2.39-.34,4.279-0.61,6.361-1.03a0.41,0.41,0,0,0,.463-0.46,20.626,20.626,0,0,0-.347-3.11c-0.077-.43-0.231-0.43-0.578-0.31A39.91,39.91,0,0,1,336,2406.54Zm8.559,3.65a33.2,33.2,0,0,1,7.981,4.19,0.562,0.562,0,0,0,.347.15,0.442,0.442,0,0,0,.347-0.27,23.228,23.228,0,0,0,1.62-2.84,0.926,0.926,0,0,0,.154-0.46,0.569,0.569,0,0,0-.347-0.42,29.95,29.95,0,0,0-7.557-3.61,0.538,0.538,0,0,0-.81.27C345.8,2407.89,345.218,2409.04,344.562,2410.19Zm29.812-10.21a11.007,11.007,0,0,1-2.082,2.88c-3.315,3.61-6.516,6.79-9.793,10.33-1.2,1.26-1.889,2.11-1.889,3.37s0.578,2.12,2.043,3.23a96.536,96.536,0,0,1,14.035,12.98,0.677,0.677,0,0,0,.462.34,0.943,0.943,0,0,0,.54-0.31c0.656-.57,1.774-1.69,2.661-2.64a0.674,0.674,0,0,0,.269-0.47,0.9,0.9,0,0,0-.269-0.49,107.03,107.03,0,0,0-14.343-12.1,0.956,0.956,0,0,1-.5-0.69,1.667,1.667,0,0,1,.5-0.84c2.969-3.07,7.21-7.03,10.526-9.99a7.462,7.462,0,0,1,1.85-1.34,0.765,0.765,0,0,0,.54-0.73,0.933,0.933,0,0,0-.308-0.61A30.985,30.985,0,0,0,374.374,2399.98Zm40.068,9.1c3.74,0,5.051.08,5.282,0.08,0.386,0,.425-0.04.425-0.43v-2.38c0-.38-0.039-0.42-0.425-0.42-0.231,0-1.542.08-5.282,0.08h-4.858v-2.54c1.851-.19,3.663-0.46,5.282-0.73a9.5,9.5,0,0,1,2.121-.23c0.54,0,.848-0.19.848-0.46a1.151,1.151,0,0,0-.347-0.73,17.591,17.591,0,0,0-2.39-2.34,15.5,15.5,0,0,1-2.468.73,55.06,55.06,0,0,1-6.4.92c-2.815.27-5.36,0.42-9.1,0.5a6.371,6.371,0,0,1,1,2.23c0.27,0.96.27,0.96,1.349,0.92,2.314-.08,4.357-0.23,6.439-0.42v2.15h-4.434c-3.74,0-5.05-.08-5.282-0.08-0.424,0-.462.04-0.462,0.42v2.38c0,0.39.038,0.43,0.462,0.43,0.232,0,1.542-.08,5.282-0.08h1.427a23.329,23.329,0,0,1-8.174,4.49,8.748,8.748,0,0,1,1.427,2.42c0.192,0.46.27,0.69,0.539,0.69a2.473,2.473,0,0,0,.887-0.35l0.926-.46v2.38c0,0.43.038,0.46,0.462,0.46,0.232,0,1.118-.07,3.856-0.07h0.154c-0.347,4.03-2.275,5.68-6.9,7.22a8.244,8.244,0,0,1,1.812,1.88,1.4,1.4,0,0,0,.886.84,2.9,2.9,0,0,0,.926-0.31c4.588-2.03,6.323-4.72,6.978-9.63h3.239a23.447,23.447,0,0,1-1.311,3.49c-0.193.39-.154,0.54,0.347,0.58l2.391,0.15a0.616,0.616,0,0,0,.771-0.38l0.116-.27h2a8.3,8.3,0,0,1-.539,2.53,1.424,1.424,0,0,1-1.5.69,23.514,23.514,0,0,1-3.586-.3,7.19,7.19,0,0,1,.579,2.22c0.115,1.23.231,1.23,1.272,1.27,0.848,0.04,1.812.08,2.583,0.04,1.812-.08,3.355-0.54,3.972-1.92a14.4,14.4,0,0,0,1.118-4.72l0.231-2.23c0.039-.31-0.116-0.42-0.463-0.42-0.231,0-.694.04-2.12,0.04h-2.468c0.231-.66.424-1.35,0.656-2.04l0.462-1.38a0.377,0.377,0,0,0-.424-0.54c-0.231,0-1.234.08-4.434,0.08h-6.747c-2.121,0-3.123-.04-3.586-0.04a25.564,25.564,0,0,0,6.747-5.22c-0.038,1.92-.154,3.53-0.154,4.11,0,0.38.039,0.42,0.424,0.42h2.969c0.386,0,.424-0.04.424-0.42,0-.58-0.115-2.5-0.154-4.46a21.384,21.384,0,0,0,9.215,6.38,2.665,2.665,0,0,0,.925.26c0.232,0,.309-0.19.5-0.76a8.661,8.661,0,0,1,1.31-2.61c-3.894-1.16-6.631-2.31-8.867-4.11h1.85Zm-19.972,8.48c0-2.38.077-3.49,0.077-3.72,0-.38-0.038-0.42-0.424-0.42-0.193,0-.81.07-2.853,0.07H389c-2,0-2.545-.07-2.737-0.07-0.424,0-.463.04-0.463,0.42v2.92c0,0.42.039,0.46,0.463,0.46,0.192,0,.732-0.08,2.737-0.08h1.735v8.52a16.914,16.914,0,0,1-3.046,2.5,20.38,20.38,0,0,1-2.275,1.19,35.779,35.779,0,0,0,1.581,3.53,0.673,0.673,0,0,0,.54.46,0.589,0.589,0,0,0,.54-0.27,4.532,4.532,0,0,1,.887-0.8,43.75,43.75,0,0,0,3.662-3.27,7.867,7.867,0,0,0,4.01,3.38c1.851,0.77,5.051,1,9.022,1,4.01,0,8.6-.08,13.5-0.35,1.234-.07,1.234-0.07,1.427-1.3a6.51,6.51,0,0,1,.964-2.84c-5.784.57-11.529,0.8-16.5,0.8a24.4,24.4,0,0,1-7.133-.69,5.883,5.883,0,0,1-3.432-3.11v-8.33Zm-0.038-10.9c0.424-.31.424-0.38,0.231-0.73a28.592,28.592,0,0,0-4.82-5.6,0.627,0.627,0,0,0-.347-0.2,1.026,1.026,0,0,0-.462.23l-2.082,1.46c-0.424.31-.463,0.39-0.193,0.66a30.184,30.184,0,0,1,4.742,5.98,0.478,0.478,0,0,0,.347.27,0.7,0.7,0,0,0,.463-0.27Zm66.095-.5c0-3.38.077-5.14,0.077-5.37,0-.39-0.038-0.43-0.462-0.43-0.232,0-1.273.08-4.319,0.08h-5.745c-3.084,0-4.087-.08-4.318-0.08-0.424,0-.463.04-0.463,0.43,0,0.26.078,1.99,0.078,5.37v4.72c0,12.9-1.813,16.28-7.673,20.5a10.584,10.584,0,0,1,2.352,1.92,1.741,1.741,0,0,0,.848.69,1.844,1.844,0,0,0,.925-0.57c3.74-3.03,5.9-6.3,6.863-12.33h7.9v7.38c0,0.99-.308,1.34-1.5,1.34-0.733,0-2-.04-3.316-0.15a10.034,10.034,0,0,1,1.079,2.88c0.27,1.19.27,1.19,1.466,1.19,2.737,0,4.279-.23,5.166-1a3.691,3.691,0,0,0,1.118-3.15c0-1.54-.077-3.49-0.077-5.3v-18.12Zm-11.413,11.4c0.116-1.49.193-3.18,0.232-5.03h7.248v5.03h-7.48Zm7.48-13.51V2409h-7.248v-4.95h7.248Zm-24.329,22.73c0.425,0,.463,0,0.463-0.39v-2.99H438.2v1.88c0,0.38.039,0.42,0.463,0.42h2.891c0.386,0,.425-0.04.425-0.42,0-.23-0.078-1.77-0.078-9.91v-6.6c0-5.03.078-6.64,0.078-6.87,0-.38-0.039-0.42-0.425-0.42-0.269,0-1.156.07-3.894,0.07h-4.472c-2.738,0-3.625-.07-3.894-0.07-0.386,0-.425.04-0.425,0.42,0,0.23.078,1.92,0.078,7.98v6.11c0,8.56-.078,10.13-0.078,10.4,0,0.39.039,0.39,0.425,0.39h2.968Zm0.463-6.88v-5.83H438.2v5.83h-5.475Zm5.475-14.89v5.6h-5.475v-5.6H438.2Zm56.186-4.88a0.47,0.47,0,0,0-.308.39,0.4,0.4,0,0,0,.192.34c0.424,0.43,1.2,1.27,1.774,2h-3.7a11.744,11.744,0,0,1,.038-2.53,1.906,1.906,0,0,0,.193-0.7c0-.23-0.193-0.38-0.578-0.42-1.119-.11-2.545-0.23-3.9-0.27,0.232,1.12.309,2.54,0.463,3.92H477.039c-3.7,0-4.974-.08-5.2-0.08-0.424,0-.463.04-0.463,0.39,0,0.23.077,1.49,0.077,4.18a35.266,35.266,0,0,1-.732,8.18,14.773,14.773,0,0,1-2.777,6.1,9.842,9.842,0,0,1,2.468,1.65,1.873,1.873,0,0,0,.81.58,1.123,1.123,0,0,0,.694-0.77,21.136,21.136,0,0,0,2.583-6.72,45.918,45.918,0,0,0,.694-7.71v-2.58h13.726a36.5,36.5,0,0,0,2.738,10.6,19.868,19.868,0,0,1-4.242,3.42c0-.35-0.038-0.96-0.038-2.11v-2.54c0-1.61.077-2.23,0.077-2.46,0-.38-0.039-0.42-0.424-0.42-0.27,0-1,.08-3.277.08h-3.625c-2.275,0-3.007-.08-3.277-0.08-0.386,0-.424.04-0.424,0.42,0,0.27.077,0.85,0.077,2.46v2.54c0,1.61-.077,2.18-0.077,2.45,0,0.39.038,0.42,0.424,0.42,0.27,0,1-.07,3.277-0.07h3.625c2.274,0,3.007.07,3.277,0.07s0.385,0,.424-0.19a13.084,13.084,0,0,1,1.272,1.23,1.539,1.539,0,0,0,.849.73,2.4,2.4,0,0,0,.925-0.5,23.965,23.965,0,0,0,2.93-2.53c1.658,2.22,3.586,3.53,5.437,3.53,2.2,0,3.47-1.42,4.434-4.65a3.442,3.442,0,0,0,.192-0.84c0-.38-0.27-0.54-1-0.88a7.9,7.9,0,0,1-1.928-1.27c-0.463,2.61-.848,3.69-1.812,3.69-0.694,0-1.812-.85-2.853-2.42a34.113,34.113,0,0,0,3.393-5.72,5.015,5.015,0,0,1,.771-1.16,0.83,0.83,0,0,0,.347-0.57,0.735,0.735,0,0,0-.463-0.54,23.016,23.016,0,0,0-3.123-1.19,17.787,17.787,0,0,1-.732,2.38,24.472,24.472,0,0,1-1.851,3.38,31.855,31.855,0,0,1-1.62-7.26h3.779c3.663,0,4.935.08,5.166,0.08,0.386,0,.425-0.04.425-0.42v-2.57c0-.35-0.039-0.39-0.425-0.39-0.192,0-1.041.08-3.277,0.08l0.887-.58c0.347-.27.463-0.38,0.193-0.73a16.821,16.821,0,0,0-2.391-2.49,0.555,0.555,0,0,0-.809-0.04ZM484.21,2418.1h-4.588v-2.8h4.588v2.8Zm-2.853,7.76a3.231,3.231,0,0,1,.231-1.39,1.2,1.2,0,0,0,.193-0.65c0-.15-0.231-0.27-0.694-0.34a28.8,28.8,0,0,0-3.817-.24,15.113,15.113,0,0,1,.193,2.92v3.38c0,2.04.54,2.84,1.426,3.34,1.119,0.58,3.278.77,6.671,0.77,4.01,0,6.13-.15,7.557-0.92,1.079-.62,1.812-1.65,2.12-3.77,0.116-1.03.116-1.03-.887-1.34a9.794,9.794,0,0,1-2.776-1.15c-0.038,1.84-.347,2.96-1,3.3-0.81.46-1.889,0.42-4.7,0.42a12.494,12.494,0,0,1-3.894-.34,1.583,1.583,0,0,1-.617-1.54v-2.45Zm-1.2-17.97c-2.275,0-3.2-.08-3.432-0.08-0.385,0-.424.04-0.424,0.46v2.23c0,0.38.039,0.42,0.424,0.42,0.232,0,1.157-.08,3.432-0.08H484.1c2.313,0,3.238.08,3.47,0.08,0.347,0,.385-0.04.385-0.42v-2.23c0-.42-0.038-0.46-0.385-0.46-0.232,0-1.157.08-3.47,0.08h-3.933Zm15.114,16.81c-0.463.27-.5,0.39-0.193,0.69a23.51,23.51,0,0,1,4.126,6.65c0.154,0.38.269,0.34,0.771,0.03l2.39-1.45c0.5-.31.5-0.39,0.309-0.77a30.048,30.048,0,0,0-4.55-6.41,0.513,0.513,0,0,0-.347-0.23,1.2,1.2,0,0,0-.463.19Zm-24.021,7.95c0.424,0.23.54,0.23,0.771-.08a28.243,28.243,0,0,0,3.933-6.91c0.116-.38.077-0.46-0.424-0.69l-2.275-1c-0.54-.23-0.617-0.23-0.771.2a22.282,22.282,0,0,1-3.894,6.41c-0.231.3-.231,0.46,0.231,0.73Zm12.454-9.56c-0.463.35-.463,0.39-0.154,0.69a26.322,26.322,0,0,1,3.354,3.99,0.383,0.383,0,0,0,.309.27,0.861,0.861,0,0,0,.5-0.27l2-1.53c0.385-.27.347-0.35,0.115-0.62a21.423,21.423,0,0,0-3.624-3.8c-0.308-.23-0.424-0.23-0.81.04Z" transform="translate(-131 -2285.03)"/>
</svg>
