<svg id="head-block-02_sp.svg" xmlns="http://www.w3.org/2000/svg" width="562" height="116.94" viewBox="0 0 562 116.94">
  <defs>
    <style>
      .cls-1 {
        fill: #1e9fe0;
        opacity: 0.2;
      }

      .cls-2 {
        fill: #1147b4;
      }

      .cls-2, .cls-3 {
        fill-rule: evenodd;
      }
    </style>
  </defs>
  <rect id="長方形_978" data-name="長方形 978" class="cls-1" x="96" y="41.94" width="234" height="13"/>
  <rect id="長方形_978-2" data-name="長方形 978" class="cls-1" y="103.94" width="562" height="13"/>
  <path id="_64_" data-name="64%" class="cls-2" d="M279.949,2987.83l-12.605,16.15a45.34,45.34,0,0,0-5.519,8.07,17.863,17.863,0,0,0-2.18,8.68,14.325,14.325,0,0,0,3.952,10.25c3.475,3.59,7.767,4.41,11.719,4.41,3,0,7.9-.54,11.719-4.28a16.1,16.1,0,0,0,4.5-11.39,15.539,15.539,0,0,0-4.019-10.59,14.153,14.153,0,0,0-10.493-4.2,14.305,14.305,0,0,0-2.861.27l10.833-13.64Zm-4.293,23a9.461,9.461,0,0,1,6.4,2.51,9.814,9.814,0,0,1,0,13.43,9.425,9.425,0,0,1-6.4,2.51,10.434,10.434,0,0,1-6.54-2.51,9.624,9.624,0,0,1-2.657-6.71,9.372,9.372,0,0,1,2.657-6.72A9.938,9.938,0,0,1,275.656,3010.83Zm46.408-24.76-29.16,40.02h22.483v8.55h6.677v-8.55h4.906v-6.37h-4.906v-33.65Zm-17.033,33.78,10.356-14.58v14.58H305.031Zm31.153-8.06a5.332,5.332,0,1,0,5.489,5.33A5.453,5.453,0,0,0,336.184,3011.79Zm0,8.22a2.886,2.886,0,1,1,2.83-2.89A2.82,2.82,0,0,1,336.184,3020.01Zm-0.1,14.02,1.6,0.98,12.99-22.47-1.6-.91Zm14.49-9.81a5.332,5.332,0,1,0,5.489,5.33A5.447,5.447,0,0,0,350.571,3024.22Zm0,8.21a2.886,2.886,0,1,1,2.83-2.88A2.817,2.817,0,0,1,350.571,3032.43Z" transform="translate(-41 -2986.06)"/>
  <path id="美容液" class="cls-2" d="M170.36,3019.61c3.32,0,4.439.07,4.663,0.07,0.41,0,.448-0.03.448-0.44v-2.6c0-.37-0.038-0.41-0.448-0.41-0.224,0-1.343.07-4.663,0.07h-9.847v-2.41H166.3c3.618,0,4.886.07,5.11,0.07,0.373,0,.41-0.03.41-0.41v-2.37c0-.37-0.037-0.41-0.41-0.41-0.224,0-1.492.07-5.11,0.07h-5.782v-2.19h7.535c3.581,0,4.774.08,5,.08,0.373,0,.41-0.04.41-0.41v-2.49c0-.41-0.037-0.45-0.41-0.45-0.224,0-1.417.08-5,.08H164.8c0.485-.67.969-1.38,1.342-1.97a2.337,2.337,0,0,1,.635-0.74,0.76,0.76,0,0,0,.41-0.6,0.582,0.582,0,0,0-.485-0.52c-1.119-.33-2.574-0.59-3.805-0.82a10.127,10.127,0,0,1-.634,1.9,25.044,25.044,0,0,1-1.529,2.75h-7.311l2.014-.93c0.522-.26.522-0.34,0.261-0.78a17.639,17.639,0,0,0-2.089-2.75c-0.261-.3-0.335-0.33-0.783-0.15l-2.5,1.12a0.475,0.475,0,0,0-.373.33,0.783,0.783,0,0,0,.261.41,19.069,19.069,0,0,1,1.79,2.75h-2.35c-3.618,0-4.812-.08-5.035-0.08-0.373,0-.411.04-0.411,0.45v2.49c0,0.37.038,0.41,0.411,0.41,0.223,0,1.417-.08,5.035-0.08H156.6v2.19h-5.185c-3.618,0-4.886-.07-5.11-0.07-0.335,0-.373.04-0.373,0.41v2.37c0,0.38.038,0.41,0.373,0.41,0.224,0,1.492-.07,5.11-0.07H156.6v2.41h-9.288c-3.319,0-4.438-.07-4.662-0.07-0.373,0-.411.04-0.411,0.41v2.6c0,0.41.038,0.44,0.411,0.44,0.224,0,1.343-.07,4.662-0.07H170.36Zm-0.969,5.94c3.431,0,4.625.08,4.849,0.08,0.373,0,.41-0.04.41-0.41v-2.57c0-.37-0.037-0.4-0.41-0.4-0.224,0-1.418.07-4.849,0.07H160.14a2.165,2.165,0,0,1,.336-0.89,0.929,0.929,0,0,0,.261-0.63c0-.3-0.261-0.45-0.709-0.52-1.082-.11-2.5-0.23-3.767-0.3a9.3,9.3,0,0,1-.075,2.34h-7.8c-3.469,0-4.663-.07-4.886-0.07-0.373,0-.411.03-0.411,0.4v2.57c0,0.37.038,0.41,0.411,0.41,0.223,0,1.417-.08,4.886-0.08h6.6a7.339,7.339,0,0,1-1.977,2.3c-2.387,1.94-6.453,3.05-11.19,3.61a8.871,8.871,0,0,1,1.343,2.45c0.3,0.78.373,1,.821,1a4.657,4.657,0,0,0,.783-0.11c4.1-.74,7.982-2.12,10.668-4.23a13.753,13.753,0,0,0,3.059-3.5c3.282,4.31,8.542,6.84,14.435,7.73a7.609,7.609,0,0,0,.784.07c0.447,0,.485-0.22.82-1a9.861,9.861,0,0,1,1.38-2.56c-6.49-.52-11.339-2.45-14.174-5.76h7.647Zm18.229,3.08c0,4.79-.074,5.69-0.074,5.91,0,0.37.037,0.41,0.41,0.41h3.133c0.373,0,.41-0.04.41-0.41v-1.38h12.832v1.27c0,0.41.037,0.44,0.448,0.44h3.1c0.373,0,.41-0.03.41-0.44,0-.19-0.075-1.08-0.075-5.87v-4.31c1.306,0.71,2.723,1.34,4.215,1.97a2.2,2.2,0,0,0,.858.26c0.3,0,.373-0.26.6-0.97a8.189,8.189,0,0,1,1.343-2.74c-6.6-1.94-11.526-4.91-15.256-9.03l0.074-.07a0.6,0.6,0,0,0,.373-0.45,0.544,0.544,0,0,0-.484-0.48,27.531,27.531,0,0,0-3.581-.71,12.471,12.471,0,0,1-2.089,2.9c-2.872,3.23-7.162,6.05-13.391,8.36a6.252,6.252,0,0,1,1.38,2.3c0.261,0.67.373,0.93,0.708,0.93a2.9,2.9,0,0,0,.9-0.3c1.3-.59,2.574-1.23,3.767-1.86v4.27Zm3.879-3.56h12.832v4.94H191.5v-4.94Zm0.038-3.16a33.1,33.1,0,0,0,6.341-5.68,29.8,29.8,0,0,0,6.341,5.68H191.537Zm8.094-17.57v-0.07a6.523,6.523,0,0,1,.187-2.16,3.205,3.205,0,0,0,.223-0.74c0-.15-0.186-0.3-0.6-0.33-1.269-.11-2.649-0.19-4.029-0.23a14.779,14.779,0,0,1,.3,3.53h-7.946c-3.469,0-4.7-.07-4.961-0.07-0.373,0-.41.04-0.41,0.41,0,0.26.075,0.81,0.075,2v1.19c0,3.08-.075,3.6-0.075,3.86,0,0.38.037,0.41,0.41,0.41h3.134c0.373,0,.41-0.03.41-0.41v-4.08h23.239v4.08c0,0.38.037,0.41,0.41,0.41h3.133c0.373,0,.41-0.03.41-0.41,0-.22-0.074-0.78-0.074-3.86v-1.45c0-.93.074-1.52,0.074-1.74,0-.37-0.037-0.41-0.41-0.41-0.261,0-1.492.07-4.961,0.07h-8.542Zm-8.132,4.42a8.824,8.824,0,0,1-1.566,1.93,18.1,18.1,0,0,1-6.64,4.05,6.905,6.905,0,0,1,1.828,2.05c0.373,0.63.522,0.89,0.821,0.89a2.858,2.858,0,0,0,.895-0.37,27.8,27.8,0,0,0,6.528-4.98,4.3,4.3,0,0,1,1.193-.97,0.633,0.633,0,0,0,.522-0.48,0.552,0.552,0,0,0-.373-0.56A33,33,0,0,0,191.5,3008.76Zm9.885,1.56c-0.447.3-.447,0.37-0.186,0.67a26.774,26.774,0,0,0,8.467,6.24,2.224,2.224,0,0,0,.858.34c0.224,0,.336-0.26.634-0.93a13.843,13.843,0,0,1,1.418-2.34,20.234,20.234,0,0,1-8.5-5.2,0.439,0.439,0,0,0-.709-0.04Zm40.685,7.25a0.772,0.772,0,0,0-.336.37,0.629,0.629,0,0,0,.261.33,16.375,16.375,0,0,1,2.313,2.79c0.224,0.37.3,0.29,0.709-.04l1.38-1.19c0.373-.33.41-0.41,0.149-0.74a15.836,15.836,0,0,0-2.387-2.64c-0.3-.26-0.41-0.22-0.783.08Zm1.418-5.28,0.335-.93a3.918,3.918,0,0,1,.634-1.26,0.841,0.841,0,0,0,.336-0.52c0-.22-0.186-0.37-0.6-0.45a26.529,26.529,0,0,0-3.357-.52,10.237,10.237,0,0,1-.447,2.08,24.692,24.692,0,0,1-6.342,10,6.277,6.277,0,0,1,1.567,1.7,1.319,1.319,0,0,0,.746.78,1.645,1.645,0,0,0,.783-0.59l1.045-1.19a28.579,28.579,0,0,0,3.73,5.65,24.856,24.856,0,0,1-7.348,4.53,6.9,6.9,0,0,1,1.492,2.15,0.933,0.933,0,0,0,.708.78,2.076,2.076,0,0,0,.821-0.26,27.645,27.645,0,0,0,6.789-4.75,30.552,30.552,0,0,0,7.684,4.75,2.793,2.793,0,0,0,.858.22c0.3,0,.41-0.26.634-0.96a9.11,9.11,0,0,1,1.268-2.56,24.849,24.849,0,0,1-8.094-4.01,29.683,29.683,0,0,0,5.185-10.33,3.454,3.454,0,0,1,.671-1.6,0.728,0.728,0,0,0,.3-0.63,1.841,1.841,0,0,0-.857-1.3c-0.9-.93-1.157-1-1.418-1a0.94,0.94,0,0,0-.448.11,2.331,2.331,0,0,1-.857.11h-5.819Zm5.147,2.94a22.087,22.087,0,0,1-4.439,9.36,23.809,23.809,0,0,1-3.991-5.95,34.393,34.393,0,0,0,1.94-3.41h6.49Zm-18.091,14.74c0,2.93-.075,4.31-0.075,4.53,0,0.37.038,0.41,0.411,0.41h2.76c0.41,0,.448-0.04.448-0.41,0-.18-0.075-1.6-0.075-4.53v-14.19a34.839,34.839,0,0,0,2.052-3.86,3.768,3.768,0,0,1,.746-1.3,0.955,0.955,0,0,0,.335-0.63,0.591,0.591,0,0,0-.559-0.52,27.5,27.5,0,0,0-3.208-.82,11.083,11.083,0,0,1-.634,2.08,25.026,25.026,0,0,1-6.677,9.21,9.675,9.675,0,0,1,1.716,2.01,1.285,1.285,0,0,0,.634.74,1.384,1.384,0,0,0,.709-0.56c0.485-.52.969-1.11,1.454-1.67,0,1.08-.037,2.27-0.037,3.16v6.35Zm17.867-21.95c3.693,0,4.961.07,5.185,0.07,0.336,0,.373-0.03.373-0.4v-2.68c0-.33-0.037-0.37-0.373-0.37-0.224,0-1.492.07-5.185,0.07h-5.781v-0.89a5.441,5.441,0,0,1,.223-1.82,1.468,1.468,0,0,0,.187-0.63,0.541,0.541,0,0,0-.6-0.41c-1.194-.11-2.387-0.18-3.73-0.22a14.691,14.691,0,0,1,.261,3.08v0.89H234.5c-3.656,0-4.924-.07-5.148-0.07-0.41,0-.447.04-0.447,0.37v2.68c0,0.37.037,0.4,0.447,0.4,0.224,0,1.492-.07,5.148-0.07H248.41Zm-28.237,24.07a20.648,20.648,0,0,0,2.723,1.89,1.408,1.408,0,0,0,.634.22,0.469,0.469,0,0,0,.411-0.52,8,8,0,0,1,.485-1.44,61.838,61.838,0,0,0,2.946-8.06c0.3-1.08.3-1.08-.708-1.82a12.908,12.908,0,0,1-1.94-1.71,53.8,53.8,0,0,1-2.909,8.5A24.676,24.676,0,0,1,220.173,3032.09Zm1.119-28.38a1.2,1.2,0,0,0-.261.41,0.475,0.475,0,0,0,.261.3,24.311,24.311,0,0,1,4.626,3.97c0.3,0.3.373,0.22,0.671-.11l1.716-2.19a0.956,0.956,0,0,0,.224-0.45,0.521,0.521,0,0,0-.224-0.33,27.384,27.384,0,0,0-4.663-3.75c-0.3-.23-0.41-0.19-0.708.18Zm-1.193,9.21a0.838,0.838,0,0,0-.224.45,0.4,0.4,0,0,0,.261.3,23.377,23.377,0,0,1,4.588,3.78c0.3,0.3.41,0.23,0.709-.18L227,3015a0.926,0.926,0,0,0,.224-0.44,0.532,0.532,0,0,0-.224-0.34,27.927,27.927,0,0,0-4.625-3.45,0.472,0.472,0,0,0-.746.11Z" transform="translate(-41 -2986.06)"/>
  <path id="でできた" class="cls-3" d="M395.056,3016.9c-3.892,2.53-6.175,5.6-6.175,10.15,0,6.66,6.207,9.89,11.867,9.89,0.386,0,.514-0.19.611-0.67a11.349,11.349,0,0,0,.353-2.76c0-.35-0.192-0.48-0.707-0.48-5.6-.35-8.554-2.59-8.554-6.72,0-3.84,2.733-7.59,8.2-9.45a14.884,14.884,0,0,1,3.924-.7c0.418,0,.611-0.1.611-0.48a18.327,18.327,0,0,0-.354-2.82c-0.032-.22-0.193-0.41-0.675-0.35-8.3,1.09-15.372,2.14-19.328,2.72a46.736,46.736,0,0,1-5.113.55,22.045,22.045,0,0,0,1.19,3.45,0.748,0.748,0,0,0,.611.48,1.98,1.98,0,0,0,.707-0.25c0.483-.16.8-0.23,2.026-0.51,3.441-.71,6.882-1.38,10.806-2.12v0.07Zm4.663,4.57a16.119,16.119,0,0,1,3.248,3.72,0.339,0.339,0,0,0,.546.1l1.351-1a0.32,0.32,0,0,0,.1-0.51,14.738,14.738,0,0,0-3.055-3.43,0.328,0.328,0,0,0-.482-0.06Zm2.958-2.11a15.294,15.294,0,0,1,3.216,3.68,0.329,0.329,0,0,0,.547.1l1.286-.99a0.374,0.374,0,0,0,.1-0.58,13.5,13.5,0,0,0-3.055-3.3,0.328,0.328,0,0,0-.483-0.06Zm24.3-2.46c-3.891,2.53-6.174,5.6-6.174,10.15,0,6.66,6.207,9.89,11.866,9.89,0.386,0,.515-0.19.611-0.67a11.3,11.3,0,0,0,.354-2.76c0-.35-0.193-0.48-0.707-0.48-5.6-.35-8.554-2.59-8.554-6.72,0-3.84,2.733-7.59,8.2-9.45a14.884,14.884,0,0,1,3.923-.7c0.418,0,.611-0.1.611-0.48a18.331,18.331,0,0,0-.353-2.82c-0.033-.22-0.193-0.41-0.676-0.35-8.3,1.09-15.372,2.14-19.327,2.72a46.736,46.736,0,0,1-5.113.55,22.045,22.045,0,0,0,1.19,3.45,0.747,0.747,0,0,0,.611.48,1.98,1.98,0,0,0,.707-0.25c0.483-.16.8-0.23,2.026-0.51,3.441-.71,6.882-1.38,10.805-2.12v0.07Zm4.663,4.57a16.072,16.072,0,0,1,3.248,3.72,0.34,0.34,0,0,0,.547.1l1.351-1a0.32,0.32,0,0,0,.1-0.51,14.738,14.738,0,0,0-3.055-3.43,0.328,0.328,0,0,0-.482-0.06Zm2.959-2.11a15.316,15.316,0,0,1,3.216,3.68,0.329,0.329,0,0,0,.547.1l1.286-.99a0.373,0.373,0,0,0,.1-0.58,13.462,13.462,0,0,0-3.055-3.3,0.327,0.327,0,0,0-.482-0.06Zm18.513-4.58a55.529,55.529,0,0,1-8.007.51c0.193,1.03.418,2.21,0.514,2.57a0.537,0.537,0,0,0,.644.44,56.79,56.79,0,0,0,7.814-.76c0.418,0.89.9,1.98,1.222,2.65a55.854,55.854,0,0,1-8.651.8,16.113,16.113,0,0,0,.579,2.63,0.514,0.514,0,0,0,.579.45,78.167,78.167,0,0,0,8.812-.96,38.622,38.622,0,0,0,2.669,3.78,14.84,14.84,0,0,0-5.532-.8c-5.016,0-7.975,2.14-7.975,5.57,0,3.94,3.923,6.02,11.32,6.02,0.8,0,1.576-.03,2.315-0.1a0.6,0.6,0,0,0,.676-0.48,20.677,20.677,0,0,0,.643-2.91,0.33,0.33,0,0,0-.386-0.42c-1.158.06-2.348,0.19-3.538,0.19-4.92,0-7.653-.67-7.653-2.75,0-1.51,1.768-2.43,4.791-2.43A15.8,15.8,0,0,1,460,3029.8a8.341,8.341,0,0,1,1.9,1.02,0.861,0.861,0,0,0,.45.2,0.677,0.677,0,0,0,.514-0.32,9.26,9.26,0,0,0,1.319-1.99,0.516,0.516,0,0,0-.161-0.77,23.774,23.774,0,0,1-4.213-5.54,38.9,38.9,0,0,0,5.435-1.57c0.322-.12.322-0.28,0.257-0.57a12.189,12.189,0,0,0-.579-2.12c-0.1-.28-0.257-0.35-0.578-0.19a38.057,38.057,0,0,1-5.853,1.67c-0.418-.9-0.836-1.89-1.126-2.69,2.187-.48,4.149-0.96,6.3-1.64a0.481,0.481,0,0,0,.386-0.57c-0.128-.64-0.354-1.54-0.547-2.15-0.1-.25-0.257-0.29-0.546-0.16a49.7,49.7,0,0,1-6.561,1.7c-0.193-.54-0.289-0.83-0.514-1.66a5.877,5.877,0,0,1-.129-0.97c0-.19.065-0.41,0.065-0.6a0.619,0.619,0,0,0-.708-0.58,23.259,23.259,0,0,0-3.891.35,8.26,8.26,0,0,1,1.125,2.05C452.663,3013.5,452.856,3014.05,453.113,3014.78Zm29.544,1.25c0.225-.8.45-1.89,0.772-3.04a6.2,6.2,0,0,1,.675-1.28,0.78,0.78,0,0,0,.161-0.51,0.539,0.539,0,0,0-.354-0.52,18.855,18.855,0,0,0-4.052-.89,21.835,21.835,0,0,1-.193,2.94c-0.225,1.32-.482,2.72-0.8,4.01a44.512,44.512,0,0,1-5.209.32,14.322,14.322,0,0,1-2.38-.1c0.161,1.15.321,2.24,0.45,2.91,0.064,0.42.193,0.52,0.675,0.52,1.512,0,3.763-.16,5.628-0.36a119.583,119.583,0,0,1-5.563,15.18,0.512,0.512,0,0,0,.257.64c0.675,0.39,2.251,1.06,2.573,1.19,0.353,0.09.546,0.12,0.707-.32,2.058-5.32,3.7-10.22,5.885-17.33a52.5,52.5,0,0,0,5.6-1.21c0.418-.1.514-0.2,0.482-0.61-0.032-.67-0.129-1.6-0.225-2.31a0.351,0.351,0,0,0-.515-0.32C485.648,3015.39,483.911,3015.81,482.657,3016.03Zm0.579,14.7a6.24,6.24,0,0,0,1.447,4.39c1.447,1.5,3.634,2.08,7.847,2.08a38.375,38.375,0,0,0,4.373-.36c0.515-.03.547-0.12,0.515-0.51a19.825,19.825,0,0,0-.258-2.78,0.28,0.28,0,0,0-.385-0.29,48.287,48.287,0,0,1-5.4.45c-3.087,0-4.663-.68-4.92-3.01a0.417,0.417,0,0,0-.483-0.45A16.036,16.036,0,0,0,483.236,3030.73Zm2.508-6.05a35.422,35.422,0,0,1,6.464-.74,21.983,21.983,0,0,1,3.988.38c0.45,0.1.611-.03,0.611-0.57a22.564,22.564,0,0,0-.032-2.56c0-.39-0.1-0.42-0.547-0.48a22.654,22.654,0,0,0-3.763-.32,34.239,34.239,0,0,0-6.271.73c-0.482.1-.578,0.19-0.578,0.64C485.616,3022.4,485.68,3023.56,485.744,3024.68Z" transform="translate(-41 -2986.06)"/>
  <path id="太陽光ダメージディフェンス_" data-name="太陽光ダメージディフェンス   " class="cls-2" d="M61.617,3073.02a25.7,25.7,0,0,1-2.451,7.84c-2.411,4.72-6.629,8.52-12.9,11.32a10.88,10.88,0,0,1,2.33,2.56,1.306,1.306,0,0,0,.924.88,2.3,2.3,0,0,0,.924-0.36c5.625-3.16,9.884-7.12,12.737-12.72a27.911,27.911,0,0,0,1.929-5.04,35.14,35.14,0,0,0,14.464,17.6,2.1,2.1,0,0,0,.884.4c0.321,0,.482-0.28.844-0.96a14.309,14.309,0,0,1,2.33-3c-8.036-3.24-13.621-10.76-16.192-18.52h9.482c3.656,0,4.9.08,5.143,0.08,0.4,0,.442-0.04.442-0.44v-3.33c0-.4-0.04-0.44-0.442-0.44-0.241,0-1.487.08-5.143,0.08H66.559c0.121-1.48.161-2.96,0.2-4.44a7.264,7.264,0,0,1,.321-2.8,1.405,1.405,0,0,0,.281-0.84,0.752,0.752,0,0,0-.723-0.56,45.65,45.65,0,0,0-4.58-.32,31.2,31.2,0,0,1,.2,4.64c0,1.52-.08,2.96-0.161,4.32h-9.04c-3.656,0-4.9-.08-5.143-0.08-0.4,0-.442.04-0.442,0.44v3.33c0,0.4.04,0.44,0.442,0.44,0.241,0,1.487-.08,5.143-0.08h8.558Zm-0.362,14.52c-0.522.32-.522,0.4-0.241,0.72a27.462,27.462,0,0,1,4.42,5.92,0.464,0.464,0,0,0,.362.32,1.116,1.116,0,0,0,.522-0.24l2.612-1.92c0.482-.36.482-0.4,0.241-0.76a32.024,32.024,0,0,0-4.54-5.72c-0.281-.28-0.362-0.36-0.8-0.08Zm55-3.56a18.873,18.873,0,0,1-9.482,9.96,11.7,11.7,0,0,1,1.728,1.32,1.634,1.634,0,0,0,.964.8,2.316,2.316,0,0,0,.964-0.44c4.822-2.88,7.514-6.56,9.523-11.64h1.205c-0.241,4.24-.482,5.84-0.8,6.88a1.652,1.652,0,0,1-1.849,1.28,13.968,13.968,0,0,1-2.812-.28,7.157,7.157,0,0,1,.964,2.6c0.241,1.28.281,1.28,1.2,1.36a14.931,14.931,0,0,0,1.889.08c2.451,0,3.576-.88,4.178-3.08a38.393,38.393,0,0,0,1.005-7.96c0.08-1.16.12-2.48,0.241-3.72,0-.4-0.08-0.48-0.522-0.48-0.241,0-1.326.08-4.621,0.08h-9.442a2.438,2.438,0,0,1,.643-0.64,0.569,0.569,0,0,0,.241-0.48c0-.24-0.121-0.4-0.643-0.56l-1.2-.36h10.848c3.817,0,5.143.08,5.384,0.08,0.442,0,.482-0.04.482-0.44v-2.56c0-.4-0.04-0.44-0.482-0.44-0.241,0-1.567.08-5.384,0.08H109.3c-3.857,0-5.183-.08-5.424-0.08-0.4,0-.442.04-0.442,0.44v2.56c0,0.4.04,0.44,0.442,0.44,0.2,0,1.165-.04,3.7-0.08a18.27,18.27,0,0,1-.965,1.76,18.589,18.589,0,0,1-7.071,5.76,6.712,6.712,0,0,1,1.969,1.36,1.673,1.673,0,0,0,1,.8,2.228,2.228,0,0,0,.924-0.44,24.627,24.627,0,0,0,4.7-3.96h2.25a19.87,19.87,0,0,1-8.638,7,8.093,8.093,0,0,1,2.009,1.2,2.313,2.313,0,0,0,1.044.72,1.913,1.913,0,0,0,.884-0.4,24.1,24.1,0,0,0,8.639-8.52h1.928Zm-21.375-23.09c-1.969,0-2.893-.08-3.174-0.08-0.4,0-.442.04-0.442,0.44,0,0.28.08,3.08,0.08,8.72v17.33c0,5.6-.08,8.36-0.08,8.64,0,0.4.04,0.4,0.442,0.4h3.174c0.4,0,.442,0,0.442-0.4,0-.24-0.08-3.12-0.08-8.64v-22.73H99.1a47.279,47.279,0,0,1-3.214,8.01c2.33,2.64,3.174,4.84,3.174,6.72,0,2.24-.924,2.96-3.295,2.84a4.922,4.922,0,0,1,.763,2.36c0.161,1.32.161,1.4,1.406,1.2,3.5-.52,4.9-2.32,4.9-5.36a11.114,11.114,0,0,0-3.014-7.92,71.33,71.33,0,0,0,3.014-6.97,3.389,3.389,0,0,1,.763-1.2,0.893,0.893,0,0,0,.4-0.72c0-.32-0.241-0.68-1.045-1.6-1-1.2-1.2-1.28-1.527-1.28a1.286,1.286,0,0,0-.562.12,2.812,2.812,0,0,1-.8.12H94.879Zm15.951,0.2c-3.294,0-4.379-.08-4.62-0.08-0.4,0-.442.04-0.442,0.48,0,0.24.08,1.16,0.08,3.36v4.84c0,2.21-.08,3.09-0.08,3.37,0,0.4.04,0.44,0.442,0.44,0.241,0,1.326-.08,4.62-0.08h7.112c3.294,0,4.419.08,4.7,0.08,0.361,0,.4-0.04.4-0.44,0-.24-0.081-1.16-0.081-3.37v-4.84c0-2.2.081-3.12,0.081-3.36,0-.44-0.041-0.48-0.4-0.48-0.282,0-1.407.08-4.7,0.08H110.83Zm-1.286,3h9.6v1.84h-9.6v-1.84Zm9.6,6.44h-9.6v-1.8h9.6v1.8Zm26.15,7.77c-0.2,8.32-3.295,12.04-11.331,14.24a9.016,9.016,0,0,1,2.009,2.56c0.4,0.76.563,1,.925,1a4.1,4.1,0,0,0,.883-0.2c8.719-3.04,11.532-8.84,11.853-17.6h4.38v11.64c0,2.32.241,3.64,1.044,4.48,0.884,0.96,2.532,1.28,6.148,1.28,4.178,0,5.785-.56,6.991-1.68,1-.96,1.527-2.52,1.768-5.36,0.12-1,.08-1-0.965-1.24a8.041,8.041,0,0,1-3.053-1.24c-0.04,2.84-.2,4.08-0.924,4.8-0.6.56-1.567,0.8-3.5,0.8s-2.531-.16-2.893-0.52c-0.361-.4-0.4-0.96-0.4-2.16v-10.8h6.308c3.656,0,4.9.08,5.142,0.08,0.362,0,.4-0.04.4-0.48v-3.12c0-.4-0.04-0.44-0.4-0.44-0.241,0-1.486.08-5.142,0.08H154.3v-9.65a9.326,9.326,0,0,1,.241-3.2,1.738,1.738,0,0,0,.281-0.84,0.552,0.552,0,0,0-.6-0.52,38.877,38.877,0,0,0-4.38-.32,34.639,34.639,0,0,1,.241,4.88v9.65h-9.442c-3.656,0-4.861-.08-5.143-0.08-0.4,0-.442.04-0.442,0.44v3.12c0,0.44.041,0.48,0.442,0.48,0.282,0,1.487-.08,5.143-0.08H145.3Zm12.054-7.12a23.967,23.967,0,0,1,2.611,1.36,1.905,1.905,0,0,0,.964.48,1.457,1.457,0,0,0,.884-0.8,61.816,61.816,0,0,0,3.9-6.17,3.022,3.022,0,0,1,.723-1.04,0.779,0.779,0,0,0,.4-0.6,0.585,0.585,0,0,0-.442-0.52,25.576,25.576,0,0,0-3.817-1.8,8.235,8.235,0,0,1-.563,1.68A38.366,38.366,0,0,1,157.351,3071.18Zm-18.643-7.37c-0.483.24-.523,0.36-0.282,0.68a33.778,33.778,0,0,1,4.3,7.81c0.161,0.4.282,0.44,0.8,0.16l2.692-1.4c0.522-.33.563-0.37,0.4-0.77a37.774,37.774,0,0,0-4.5-7.76c-0.2-.32-0.322-0.32-0.764-0.08Zm53.593,3.36c0.683-1.04.924-1.44,1.245-2a3.347,3.347,0,0,1,.844-0.84,1.081,1.081,0,0,0,.482-0.8,0.7,0.7,0,0,0-.442-0.64,25.354,25.354,0,0,0-4.7-1.96,14.72,14.72,0,0,1-2.169,4.92,44.717,44.717,0,0,1-11.371,12.57,16.747,16.747,0,0,1,3.375,1.84,0.922,0.922,0,0,0,.643.28,1.448,1.448,0,0,0,.8-0.36,48.442,48.442,0,0,0,8.6-9l9.964-.2a38.52,38.52,0,0,1-4.7,7.92,40.3,40.3,0,0,0-5.183-3.2,1.046,1.046,0,0,0-.4-0.16,0.76,0.76,0,0,0-.522.28c-0.924.84-1.768,1.88-2.652,2.84a33.61,33.61,0,0,1,5.786,3.76,48.7,48.7,0,0,1-14.786,10.84,11.438,11.438,0,0,1,3.817,2.04,1.207,1.207,0,0,0,.764.36,2.195,2.195,0,0,0,1-.36,48.936,48.936,0,0,0,12.817-10,44.37,44.37,0,0,1,3.9,3.88,0.7,0.7,0,0,0,.442.24,0.839,0.839,0,0,0,.483-0.2,24.694,24.694,0,0,0,2.491-2.52,0.776,0.776,0,0,0,.241-0.52,0.791,0.791,0,0,0-.241-0.56,35.675,35.675,0,0,0-4.34-4.04,62.347,62.347,0,0,0,5.907-9.68,5.066,5.066,0,0,1,1.2-1.53,1.024,1.024,0,0,0,.442-0.76,0.972,0.972,0,0,0-.322-0.72,12.99,12.99,0,0,0-2.732-2.44,1.384,1.384,0,0,0-.723-0.32,1.177,1.177,0,0,0-.683.28,3.944,3.944,0,0,1-2.21.6Zm10.165-4.2a19.865,19.865,0,0,1,4.058,4.64,0.421,0.421,0,0,0,.683.12l1.688-1.24a0.4,0.4,0,0,0,.12-0.64,18.427,18.427,0,0,0-3.817-4.28,0.414,0.414,0,0,0-.6-0.08Zm3.7-2.64a18.916,18.916,0,0,1,4.018,4.6,0.413,0.413,0,0,0,.683.12l1.608-1.24a0.461,0.461,0,0,0,.12-0.72,16.727,16.727,0,0,0-3.817-4.12,0.412,0.412,0,0,0-.6-0.08Zm23.5,14.01a61.411,61.411,0,0,0-6.991-4.21,1.141,1.141,0,0,0-.482-0.16,0.56,0.56,0,0,0-.4.2c-0.522.56-1.486,1.81-2.652,3.29a44.094,44.094,0,0,1,7.835,4.76,49.016,49.016,0,0,1-15.147,13.12,11.712,11.712,0,0,1,3.616,2.2,1.129,1.129,0,0,0,.763.28,1.837,1.837,0,0,0,.925-0.32,52.676,52.676,0,0,0,13.741-12.48,40.952,40.952,0,0,1,5.263,5.28,0.76,0.76,0,0,0,.563.36,0.623,0.623,0,0,0,.482-0.28c0.844-.92,1.647-1.8,2.451-2.84a1.069,1.069,0,0,0,.2-0.52,0.866,0.866,0,0,0-.241-0.56,46.656,46.656,0,0,0-5.907-5.44,77.621,77.621,0,0,0,4.581-7.93,8.728,8.728,0,0,1,1.808-2.68,1.178,1.178,0,0,0,.442-0.88,0.835,0.835,0,0,0-.4-0.68,19.665,19.665,0,0,0-5.063-2.52,18.562,18.562,0,0,1-1.526,4.92A47.425,47.425,0,0,1,229.664,3074.34Zm38.044,6.2c2.725,0,5.45.04,8.212,0.08,0.515,0.03.663-.11,0.663-0.55a27.2,27.2,0,0,0,0-3.45c0-.44-0.111-0.55-0.663-0.51-2.836.03-5.671,0.11-8.47,0.11H255.593a48.234,48.234,0,0,1-7.954-.44,39.338,39.338,0,0,0,.552,4.43,0.808,0.808,0,0,0,.847.77,29.571,29.571,0,0,1,5.413-.44h13.257Zm15.579-4.36a35.293,35.293,0,0,1,8.116,4.36,0.778,0.778,0,0,0,.482.24,0.866,0.866,0,0,0,.522-0.4,16.265,16.265,0,0,0,1.768-3.04,1.191,1.191,0,0,0,.161-0.44,0.776,0.776,0,0,0-.442-0.6,27.924,27.924,0,0,0-7.715-3.92,0.7,0.7,0,0,0-.763.4C284.934,3073.42,284.291,3074.58,283.287,3076.18Zm4.861-9.41a38.459,38.459,0,0,1,7.795,4.93,1.037,1.037,0,0,0,.6.28,0.447,0.447,0,0,0,.4-0.24,17.244,17.244,0,0,0,2.05-3.01,0.968,0.968,0,0,0,.16-0.52,0.633,0.633,0,0,0-.321-0.52,27.338,27.338,0,0,0-7.554-4.44,0.635,0.635,0,0,0-1,.32C289.6,3064.61,288.831,3065.73,288.148,3066.77Zm-1.687,22.81a25.214,25.214,0,0,0,2.973,4.08,1.034,1.034,0,0,0,.8.48,0.892,0.892,0,0,0,.642-0.32,13.206,13.206,0,0,1,2.331-1.36,93.314,93.314,0,0,0,12.013-7.52,74.735,74.735,0,0,0,10.206-9.24,1.243,1.243,0,0,0,.442-0.92,1.959,1.959,0,0,0-.2-0.76,19.828,19.828,0,0,1-1.165-4.49,72.661,72.661,0,0,1-11.572,11.17,67.334,67.334,0,0,1-11.009,6.92A18.63,18.63,0,0,1,286.461,3089.58Zm20.089-25.77a19.865,19.865,0,0,1,4.058,4.64,0.421,0.421,0,0,0,.683.12l1.688-1.24a0.4,0.4,0,0,0,.12-0.64,18.427,18.427,0,0,0-3.817-4.28,0.413,0.413,0,0,0-.6-0.08Zm3.7-2.64a18.933,18.933,0,0,1,4.017,4.6,0.414,0.414,0,0,0,.684.12l1.607-1.24a0.461,0.461,0,0,0,.12-0.72,16.727,16.727,0,0,0-3.817-4.12,0.411,0.411,0,0,0-.6-0.08Zm38.647,0.88a19.5,19.5,0,0,1,3.616,5,0.417,0.417,0,0,0,.643.2l1.808-1.08a0.424,0.424,0,0,0,.2-0.64,18.839,18.839,0,0,0-3.415-4.64,0.41,0.41,0,0,0-.563-0.12Zm3.938-2.28a19.255,19.255,0,0,1,3.576,4.96,0.434,0.434,0,0,0,.683.2l1.687-1.08a0.484,0.484,0,0,0,.2-0.72,17.7,17.7,0,0,0-3.415-4.48c-0.2-.2-0.322-0.28-0.563-0.12Zm-11.532,7.96c2.21,0,4.581.04,6.75,0.12,0.442,0,.523-0.2.523-0.76a17.793,17.793,0,0,0,0-2.92c0-.52-0.081-0.76-0.483-0.76-2.008.12-4.54,0.16-6.79,0.16h-7.393c-1.808,0-3.857-.04-6.669-0.2,0.12,1.44.16,2.88,0.281,3.84a0.583,0.583,0,0,0,.683.68c2.25-.08,3.857-0.16,5.7-0.16H341.3Zm5.947,9.29c2.772,0,5.544.08,7.634,0.16a0.558,0.558,0,0,0,.6-0.68c0.041-.52.041-2.56,0-3.08,0-.56-0.04-0.8-0.442-0.8-2.37.16-4.7,0.24-7.834,0.24H329.166c-2.33,0-4.58,0-6.83-.2a23.95,23.95,0,0,0,.321,3.84c0.04,0.52.161,0.8,0.523,0.76,2.049-.12,4.018-0.24,6.026-0.24h7.634c-0.16,3.8-.562,5.96-2.049,8.6-1.687,3.04-4.058,5-8,7.12a10.571,10.571,0,0,1,3.576,2.12,1.185,1.185,0,0,0,.843.4,2.454,2.454,0,0,0,1.206-.48,20.187,20.187,0,0,0,7.071-7.56c1.567-3.04,2.13-5.72,2.371-10.2h5.384Zm26.519,0.68c1.406-1.36,2.611-2.68,3.656-3.88a10.115,10.115,0,0,1,1.808-1.64,0.913,0.913,0,0,0,.6-0.76,1.143,1.143,0,0,0-.442-0.73,33.171,33.171,0,0,0-3.7-2.4,11.412,11.412,0,0,1-2.129,3.45,57.114,57.114,0,0,1-16.675,13,6.976,6.976,0,0,1,2.893,2,1.119,1.119,0,0,0,.8.4,0.884,0.884,0,0,0,.522-0.16,53.75,53.75,0,0,0,8.317-5.76v6.84c0,2.12-.08,4.12-0.12,6.4a0.6,0.6,0,0,0,.643.72,22.089,22.089,0,0,0,3.254,0,0.609,0.609,0,0,0,.683-0.72c-0.04-2.04-.12-4.6-0.12-6.52V3077.7Zm34.469-7.81a33.581,33.581,0,0,1-6.79,11.41,38.819,38.819,0,0,1-13.139,10,11.954,11.954,0,0,1,3.737,2.2,1.412,1.412,0,0,0,1,.44,1.948,1.948,0,0,0,1.085-.36,45,45,0,0,0,11.411-9.52,47.069,47.069,0,0,0,7.8-13,4.751,4.751,0,0,1,.924-1.57,1.364,1.364,0,0,0,.562-1,1,1,0,0,0-.281-0.68,12.334,12.334,0,0,0-2.933-2.64,1.969,1.969,0,0,0-.763-0.2,1.139,1.139,0,0,0-.6.16,3.859,3.859,0,0,1-2.21.4H393.69a70.609,70.609,0,0,1-7.714-.28c0.08,1.16.241,3.24,0.361,4.04,0.081,0.56.242,0.84,0.764,0.8,1.728-.08,4.018-0.2,6.629-0.2h14.5Zm24.424,8.29h2.21c1.647,0,3.656.08,5.223,0.08,0.6,0.04.764-.12,0.8-0.76,0.04-.8.04-1.68,0-2.48-0.04-.48-0.161-0.72-0.643-0.68-1.768,0-3.616.08-5.424,0.08h-8.92c-1.728,0-3.857,0-5.585-.16,0.08,1.44.121,2.52,0.241,3.2,0.081,0.6.281,0.84,0.643,0.8,1.848-.04,3.295-0.04,4.942-0.04h2.21v10.12h-4.018c-2.571,0-4.54,0-6.871-.16a18.359,18.359,0,0,0,.2,3.24,0.74,0.74,0,0,0,.764.84c1.687-.08,3.5-0.16,5.906-0.16h12.616c1.848,0,4.219.08,6.308,0.08,0.482,0.04.643-.2,0.683-0.72,0.04-.84.04-1.72,0-2.56-0.04-.52-0.2-0.76-0.562-0.76-2.17.12-4.42,0.16-6.469,0.16h-4.259v-10.12Zm16.619-9.93a42.56,42.56,0,0,1,8.2,6.53,0.843,0.843,0,0,0,.522.32,0.772,0.772,0,0,0,.482-0.32c0.563-.6,1.889-2.2,2.492-3a0.862,0.862,0,0,0,.241-0.52,0.961,0.961,0,0,0-.362-0.57,41.882,41.882,0,0,0-7.674-5.68,1.075,1.075,0,0,0-.523-0.2,0.754,0.754,0,0,0-.562.32C451.328,3065.93,450.162,3067.17,449.278,3068.25Zm0.884,19.97a27.732,27.732,0,0,0,3.215,4.44,1.042,1.042,0,0,0,.683.44,1.112,1.112,0,0,0,.723-0.4,13.885,13.885,0,0,1,2.692-1.84,86.446,86.446,0,0,0,12.134-7.84,65.547,65.547,0,0,0,9.241-8.48,1.473,1.473,0,0,0,.442-1.96,17.883,17.883,0,0,1-1.125-4.69,70.241,70.241,0,0,1-22.58,18.33A24.273,24.273,0,0,1,450.162,3088.22Zm41.661-22.85c-2.611,0-4.62,0-6.79-.16a23.189,23.189,0,0,0,.362,4.16c0.08,0.44.2,0.72,0.522,0.68,2.17-.16,4.259-0.24,6.348-0.24l10.366-.04a49.972,49.972,0,0,1-21.7,20.25,11,11,0,0,1,3.375,2.6,0.9,0.9,0,0,0,.683.36,2.555,2.555,0,0,0,.924-0.32,57.776,57.776,0,0,0,13.5-10.56,73.058,73.058,0,0,1,10.447,9.92,0.823,0.823,0,0,0,.562.32,0.7,0.7,0,0,0,.482-0.24,21.417,21.417,0,0,0,2.692-2.72,0.986,0.986,0,0,0,.281-0.6,0.907,0.907,0,0,0-.321-0.56,94.246,94.246,0,0,0-11.13-9.68,63.023,63.023,0,0,0,5.143-7.48,7.214,7.214,0,0,1,1.487-1.77,1.1,1.1,0,0,0,.522-0.8,1.059,1.059,0,0,0-.2-0.52,14.6,14.6,0,0,0-2.611-2.8,1.33,1.33,0,0,0-.683-0.32,0.67,0.67,0,0,0-.442.16,5.927,5.927,0,0,1-2.773.36H491.823Z" transform="translate(-41 -2986.06)"/>
  <path id="処方" class="cls-3" d="M531.669,3067.48l0.382-2.01a5.113,5.113,0,0,1,.612-1.98,1.379,1.379,0,0,0,.306-0.69,0.607,0.607,0,0,0-.574-0.53,35.5,35.5,0,0,0-3.784-.72,15.365,15.365,0,0,1-.23,2.97c-0.8,5.29-2.179,10.08-5.811,14.95a9.429,9.429,0,0,1,1.835,2.71,0.915,0.915,0,0,0,.5.64,1.207,1.207,0,0,0,.612-0.6,38.313,38.313,0,0,0,2.447-4.12,32.236,32.236,0,0,0,2.6,7.05,27.133,27.133,0,0,1-7.913,7.8,7.694,7.694,0,0,1,1.911,2.36,1.224,1.224,0,0,0,.688.84,2.068,2.068,0,0,0,.88-0.5,32.215,32.215,0,0,0,6.728-7,17.024,17.024,0,0,0,3.173,3.04c3.25,2.63,8.028,3.58,13.036,3.58,2.447,0,4.473-.04,6.92-0.15,1.185-.08,1.185-0.08,1.452-1.29a8.66,8.66,0,0,1,1.033-2.9c-3.288.34-6.461,0.42-8.449,0.42-5.582,0-9.672-.68-13.189-3.69a13.948,13.948,0,0,1-2.064-2.17,38.842,38.842,0,0,0,3.746-12.79c0.153-1.52.191-2.02,0.459-2.36a1.1,1.1,0,0,0,.267-0.69,3.25,3.25,0,0,0-1.108-1.52,2.906,2.906,0,0,0-1.491-1.06,1.673,1.673,0,0,0-.688.22,2.906,2.906,0,0,1-1.224.19h-3.058Zm-0.879,3.51h4.167a33.949,33.949,0,0,1-2.485,10.58,39.585,39.585,0,0,1-2.37-8.41Zm21.676-1.83c0-3.2.076-4.76,0.076-4.99,0-.38-0.038-0.42-0.42-0.42-0.268,0-.994.08-3.365,0.08h-3.478c-2.371,0-3.021-.08-3.25-0.08-0.42,0-.459.04-0.459,0.42,0,0.23.077,1.3,0.077,3.35,0,10.39-1.071,13.86-4.167,18.43a8.923,8.923,0,0,1,2.485,1.67,1.381,1.381,0,0,0,.8.53,1.218,1.218,0,0,0,.765-0.76c2.982-4.72,4.014-9.29,3.976-20.02h3.173v17.13c0,1.6.344,2.51,1.07,2.97,0.536,0.42,1.338.57,3.517,0.57a5.151,5.151,0,0,0,3.4-.88c0.764-.72,1.147-1.82,1.3-6.43,0.038-1.22.038-1.33-.65-1.52a9.144,9.144,0,0,1-2.638-1.18c-0.038,4.79-.23,5.71-0.421,6.01a0.935,0.935,0,0,1-.917.5,1.041,1.041,0,0,1-.65-0.19,0.927,0.927,0,0,1-.229-0.8v-14.39Zm23.021,2.63c-0.077,11.57-2.944,16.82-11.737,21.12a8.338,8.338,0,0,1,2.294,2.32,1.26,1.26,0,0,0,.765.84,2.656,2.656,0,0,0,.917-0.42c6.5-3.84,9.748-8.3,11.2-15.34h10.4a45.974,45.974,0,0,1-1.185,9.67,2.132,2.132,0,0,1-2.255,1.9,36.558,36.558,0,0,1-4.7-.34,8.424,8.424,0,0,1,.841,2.93c0.153,1.22.153,1.3,1.223,1.37,1.262,0.08,2.332.08,3.02,0.08,3.823,0,5.314-1.11,6.155-4.72a69.537,69.537,0,0,0,1.262-11.31c0.038-.95.076-1.98,0.153-2.97,0-.41-0.077-0.53-0.459-0.53-0.23,0-1.3.08-4.511,0.08H579.5c0.153-1.45.267-3.01,0.305-4.68h13.228c3.44,0,4.587.07,4.817,0.07,0.344,0,.382-0.04.382-0.46v-3.08c0-.42-0.038-0.46-0.382-0.46-0.23,0-1.377.08-4.817,0.08H582.979v-2.59a5.431,5.431,0,0,1,.23-2.21,2.28,2.28,0,0,0,.229-0.79,0.538,0.538,0,0,0-.611-0.42c-1.3-.12-2.791-0.19-4.167-0.19a18.865,18.865,0,0,1,.267,3.73v2.47h-9.366c-3.4,0-4.549-.08-4.817-0.08-0.382,0-.42.04-0.42,0.46v3.08c0,0.42.038,0.46,0.42,0.46,0.268,0,1.415-.07,4.817-0.07h5.926Z" transform="translate(-41 -2986.06)"/>
  <path id="_6" data-name="※6" class="cls-2" d="M360.987,3013.54l3.337,3.34,0.33-.33-3.348-3.33,3.348-3.33-0.33-.33-3.337,3.34-3.337-3.34-0.33.33,3.348,3.33-3.348,3.33,0.33,0.33Zm2.8-1.18a0.855,0.855,0,1,0,.865.86A0.86,0.86,0,0,0,363.789,3012.36Zm-5.6,0a0.855,0.855,0,1,0,.854.86A0.863,0.863,0,0,0,358.186,3012.36Zm2.8-2.8a0.855,0.855,0,1,0,.855.86A0.86,0.86,0,0,0,360.987,3009.56Zm0,5.6a0.86,0.86,0,1,0,.855.85A0.858,0.858,0,0,0,360.987,3015.16Zm8.436-2.16a1.493,1.493,0,0,1,1.668,1.55,1.816,1.816,0,0,1-1.916,1.84,1.865,1.865,0,0,1-1.874-2.06,0.724,0.724,0,0,1,.257-0.63A2.9,2.9,0,0,1,369.423,3013Zm-1.782.04a0.234,0.234,0,0,1-.134.06,0.051,0.051,0,0,1-.052-0.06,0.552,0.552,0,0,1,.031-0.13,3.275,3.275,0,0,1,2.874-2.41c0.226-.02.257-0.06,0.257-0.29v-0.12c0-.17-0.031-0.23-0.175-0.23a4.725,4.725,0,0,0-.577.08c-2.183.45-3.151,2.38-3.151,4.36a2.49,2.49,0,1,0,4.974.23,1.976,1.976,0,0,0-2.173-2.09A3.163,3.163,0,0,0,367.641,3013.04Z" transform="translate(-41 -2986.06)"/>
</svg>
