<svg id="lead-block-01.svg" xmlns="http://www.w3.org/2000/svg" width="517.656" height="89.22" viewBox="0 0 517.656 89.22">
  <defs>
    <style>
      .cls-1 {
        fill: #1e9fe0;
        opacity: 0.2;
      }

      .cls-2 {
        fill: #1147b4;
      }

      .cls-2, .cls-3 {
        fill-rule: evenodd;
      }
    </style>
  </defs>
  <rect id="長方形_978" data-name="長方形 978" class="cls-1" x="148.875" y="26.22" width="127.25" height="10"/>
  <g id="グループ_128" data-name="グループ 128">
    <path id="瞬時にムラなく透明感_" data-name="瞬時にムラなく透明感 " class="cls-2" d="M550.679,1304.36a19.172,19.172,0,0,1-1.247,3.69c-0.312-.28-0.693-0.59-1.109-0.9-0.242-.14-0.381-0.14-0.727.17l-1,1.01a0.654,0.654,0,0,0-.277.45,0.359,0.359,0,0,0,.208.28,16.322,16.322,0,0,1,1.524,1.46,16.827,16.827,0,0,1-5.716,5.05,6.815,6.815,0,0,1,1.732,1.53,1,1,0,0,0,.658.52,1.394,1.394,0,0,0,.728-0.35,19.623,19.623,0,0,0,8.038-12.25,2.235,2.235,0,0,1,.485-1.04,0.694,0.694,0,0,0,.242-0.42,2.253,2.253,0,0,0-.762-1.22,2.113,2.113,0,0,0-1.143-.97,0.608,0.608,0,0,0-.381.14,1.1,1.1,0,0,1-.589.14h-1.7l0.138-.46a2.128,2.128,0,0,1,.52-1.01,0.745,0.745,0,0,0,.312-0.52c0-.21-0.139-0.35-0.589-0.48-0.658-.21-1.594-0.42-2.425-0.63v-0.84h14.239v1.47a23.39,23.39,0,0,0-2.667-.21,19.787,19.787,0,0,1,.207,3.02h-1.628c-2.252,0-2.91-.07-3.118-0.07-0.347,0-.381.04-0.381,0.42v2.26c0,0.39.034,0.42,0.381,0.42a4.125,4.125,0,0,0,.485-0.03v4.59c-1.524,0-2.148-.07-2.287-0.07-0.346,0-.381.04-0.381,0.39v2.4c0,0.34.035,0.38,0.381,0.38,0.208,0,1.074-.07,3.707-0.07h2.841v0.31c0,2.86-.069,4.25-0.069,4.49,0,0.32.035,0.35,0.381,0.35h2.287c0.312,0,.346-0.03.346-0.35,0-.21-0.069-1.63-0.069-4.49v-0.31c1.836,0.03,2.529.07,2.737,0.07,0.347,0,.381-0.04.381-0.38v-2.4c0-.35-0.034-0.39-0.381-0.39-0.208,0-.9.07-2.737,0.07v-4.63c1.317,0.04,1.8.07,1.975,0.07,0.381,0,.416-0.03.416-0.42v-2.26c0-.38-0.035-0.42-0.416-0.42-0.173,0-.658.07-1.975,0.07,0-.59-0.035-1.07,0-1.39h2.391c0.346,0,.381-0.03.381-0.42,0-.17-0.07-0.52-0.07-2.85v-0.9c0-.6.07-1.05,0.07-1.26,0-.35-0.035-0.38-0.381-0.38-0.208,0-1.213.07-3.638,0.07a18.379,18.379,0,0,0,1.282-2.65,1.794,1.794,0,0,1,.554-0.73,0.474,0.474,0,0,0,.277-0.45,0.544,0.544,0,0,0-.416-0.49,14.708,14.708,0,0,0-2.91-.76,13.138,13.138,0,0,1-.519,1.88,18.532,18.532,0,0,1-1.525,3.2h-1.386a17.7,17.7,0,0,0-1.282-3.76c-0.208-.35-0.277-0.38-0.727-0.24l-1.767.52c-0.451.14-.451,0.21-0.277,0.56a25.431,25.431,0,0,1,.97,2.92h-3.014a19.991,19.991,0,0,0-1.178-3.17c-0.174-.31-0.312-0.35-0.693-0.21l-1.733.56c-0.45.14-.485,0.21-0.312,0.56a12.661,12.661,0,0,1,.867,2.26c-1.525,0-2.218-.07-2.322-0.07-0.381,0-.415.03-0.415,0.38,0,0.25.069,0.66,0.069,1.43v0.73c0,2.33-.069,2.68-0.069,2.85,0,0.39.034,0.42,0.415,0.42h2.148a14.16,14.16,0,0,1-3.776,6.13v-11.59c0-5.57.069-7.56,0.069-7.76,0-.39-0.034-0.42-0.415-0.42-0.208,0-.8.07-2.668,0.07h-2.46c-1.94,0-2.5-.07-2.737-0.07-0.347,0-.381.03-0.381,0.42,0,0.2.069,2.36,0.069,9.12v6.71c0,10.06-.069,12.15-0.069,12.36,0,0.35.034,0.38,0.381,0.38h2.252c0.346,0,.381-0.03.381-0.38v-2.68h2.737v1.32c0,0.35.035,0.38,0.381,0.38h2.114c0.381,0,.415-0.03.415-0.38,0-.14-0.069-1.43-0.069-6.58a8.7,8.7,0,0,1,.866.94,1.082,1.082,0,0,0,.624.49,1.064,1.064,0,0,0,.589-0.45,18.556,18.556,0,0,0,3.118-4.25h2.217Zm-12.992,5.54v-4.95h2.737v4.95h-2.737Zm2.737-19.88v4.77h-2.737v-4.77h2.737Zm-2.737,12.15v-4.6h2.737v4.6h-2.737Zm20.2,7.41v-4.63h1.489v4.63h-1.489Zm-12.265-19.63c0.416,1.08.416,1.08,1.49,1.01a106.822,106.822,0,0,0,14.516-1.88,6.214,6.214,0,0,1,1.456-.28,0.639,0.639,0,0,0,.727-0.45,0.778,0.778,0,0,0-.312-0.56,12.274,12.274,0,0,0-2.356-1.77,7.853,7.853,0,0,1-1.87.63,91.145,91.145,0,0,1-14.517,1.53Zm34.918,5.12c0-5.12.069-6.82,0.069-7.03,0-.35-0.035-0.39-0.381-0.39-0.243,0-.9.07-2.98,0.07h-2.979c-2.079,0-2.737-.07-2.98-0.07-0.346,0-.381.04-0.381,0.39,0,0.21.069,2.05,0.069,8.35v7.59c0,8.73-.069,10.51-0.069,10.72,0,0.35.035,0.38,0.381,0.38h2.564c0.312,0,.346-0.03.346-0.38v-2.75h3.188v1.53c0,0.35.034,0.38,0.346,0.38h2.5c0.346,0,.381-0.03.381-0.38,0-.21-0.069-1.78-0.069-10.44v-7.97Zm-6.341,13.71v-7.52h3.188v7.52H574.2Zm3.188-17.89v7.21H574.2v-7.21h3.188Zm18.882,8.63c3.291,0,4.435.07,4.643,0.07,0.381,0,.415-0.03.415-0.41v-2.41c0-.34-0.034-0.38-0.415-0.38-0.208,0-1.352.07-4.643,0.07H592.6v-3.58h2.321c3.153,0,4.192.06,4.4,0.06,0.346,0,.381-0.03.381-0.38v-2.43c0-.39-0.035-0.42-0.381-0.42-0.208,0-1.247.07-4.4,0.07H592.6a8.1,8.1,0,0,1,.173-2.61,1.99,1.99,0,0,0,.208-0.73,0.5,0.5,0,0,0-.555-0.35c-1.282-.14-2.217-0.21-3.568-0.25a29.368,29.368,0,0,1,.242,3.94h-1.628c-3.084,0-4.158-.07-4.366-0.07-0.381,0-.415.03-0.415,0.42v2.43c0,0.35.034,0.38,0.415,0.38,0.208,0,1.282-.06,4.366-0.06H589.1v3.58H586.6c-3.292,0-4.435-.07-4.643-0.07-0.381,0-.416.04-0.416,0.38v2.41c0,0.38.035,0.41,0.416,0.41,0.208,0,1.351-.07,4.643-0.07h9.666Zm-2.7,6.55v6.92a0.932,0.932,0,0,1-1.144,1.08c-1.143,0-2.182-.03-3.395-0.14a7.843,7.843,0,0,1,1.039,2.54c0.243,1.05.278,1.05,1.317,1.05,2.6,0,3.742-.25,4.5-0.77a3.238,3.238,0,0,0,1.213-2.96c0-1.18-.035-2.68-0.035-4.28v-3.44c2.356,0.03,3.291.07,3.464,0.07,0.382,0,.416-0.04.416-0.39v-2.43c0-.35-0.034-0.39-0.416-0.39-0.173,0-1.108.07-3.464,0.07a4.416,4.416,0,0,1,.173-1.77,1.184,1.184,0,0,0,.173-0.59,0.574,0.574,0,0,0-.589-0.39c-0.935-.14-2.182-0.24-3.5-0.31a26.074,26.074,0,0,1,.243,3.06H586.74c-3.291,0-4.4-.07-4.608-0.07-0.381,0-.415.04-0.415,0.39v2.43c0,0.35.034,0.39,0.415,0.39,0.208,0,1.317-.07,4.608-0.07h6.826Zm-9.355,2.19c-0.416.24-.416,0.35-0.173,0.63a28.708,28.708,0,0,1,3.049,4.28,0.357,0.357,0,0,0,.277.24,0.885,0.885,0,0,0,.416-0.21l2.113-1.46c0.347-.24.381-0.35,0.173-0.66a27.435,27.435,0,0,0-3.187-4,0.469,0.469,0,0,0-.728-0.04Zm25.08-19.87a28.161,28.161,0,0,1-.624,5.18,66.79,66.79,0,0,0-1.178,11.42,32.8,32.8,0,0,0,1.594,10.37,0.415,0.415,0,0,0,.45.38,17.051,17.051,0,0,0,2.841-.55,0.458,0.458,0,0,0,.45-0.46c0-.28-0.069-0.55-0.069-0.97a3.982,3.982,0,0,1,.1-1.08,34.163,34.163,0,0,1,1.975-5.26,0.942,0.942,0,0,0,.173-0.55,1.451,1.451,0,0,0-.242-0.53,8.925,8.925,0,0,1-1.213-2.19c-1,2.44-1.628,3.59-2.356,5.19a33.672,33.672,0,0,1-.208-4.07,56.709,56.709,0,0,1,1.455-11.25,8.342,8.342,0,0,1,.832-2.47,1.951,1.951,0,0,0,.52-1.04,1.077,1.077,0,0,0-.8-0.84A15.487,15.487,0,0,0,609.291,1288.39Zm7.968,17.95a7.7,7.7,0,0,0,1.213,4.53c1.49,2.05,3.88,2.89,9.008,2.89a47.993,47.993,0,0,0,5.647-.38c0.589-.07.589-0.11,0.589-0.53a25.894,25.894,0,0,0-.208-2.99c-0.069-.45-0.138-0.49-0.485-0.45a49.192,49.192,0,0,1-6.617.45c-3.777,0-5.44-.87-5.648-3.27,0-.38-0.069-0.56-0.346-0.52Zm1.109-9.88a42.3,42.3,0,0,1,7.865-.8c1.766,0,3.568.07,5.647,0.21a0.37,0.37,0,0,0,.45-0.42c0.07-.97.07-1.91,0.07-2.96,0-.35-0.07-0.42-0.8-0.45-1.455-.14-3.049-0.21-5.128-0.21a53.986,53.986,0,0,0-7.518.63,0.5,0.5,0,0,0-.485.59C618.4,1293.64,618.4,1294.51,618.368,1296.46Zm32.8-8.91a18.664,18.664,0,0,1-1,4.77c-1.8,5.85-3.6,11-6.063,17.23-1.386.03-2.841,0.07-4.227-.04a32.432,32.432,0,0,0,1.212,4.49,0.643,0.643,0,0,0,1,.35,11.689,11.689,0,0,1,4.054-.84c5.647-.59,10.913-1.18,16.457-2.01,0.415,0.9.8,1.81,1.212,2.78a0.586,0.586,0,0,0,.485.49,0.924,0.924,0,0,0,.416-0.11,17.268,17.268,0,0,0,2.633-1.42,0.736,0.736,0,0,0,.451-0.6,0.877,0.877,0,0,0-.139-0.45,49.1,49.1,0,0,0-7-11.38,0.576,0.576,0,0,0-.831-0.21c-0.97.52-1.975,1.12-3.014,1.67a34.867,34.867,0,0,1,3.845,5.57c-3.88.59-6.79,0.87-12.126,1.32,2.183-5.22,4.019-10.33,5.959-15.66a11.212,11.212,0,0,1,1.421-2.89,1.175,1.175,0,0,0,.346-0.69,0.773,0.773,0,0,0-.415-0.56A18.742,18.742,0,0,0,651.173,1287.55Zm36.651,4.59c2.114,0,3.742.07,4.886,0.07,0.519,0.04.623-.1,0.623-0.69a17.9,17.9,0,0,0,0-2.72c0-.38-0.1-0.55-0.416-0.55-1.351.07-3.187,0.17-5.439,0.17h-6.236a47.313,47.313,0,0,1-5.682-.24,30.411,30.411,0,0,0,.173,3.34c0.035,0.55.138,0.76,0.485,0.76,1.455-.1,3.187-0.14,4.746-0.14h6.86Zm2.634,7.45c-2.5,6.72-8.142,11.52-14.552,14.52a10,10,0,0,1,3.222,1.81,1.15,1.15,0,0,0,.762.41,1.634,1.634,0,0,0,.693-0.24c6.687-3.62,10.671-7.97,14.136-15.38a3.99,3.99,0,0,1,1.178-1.64,0.839,0.839,0,0,0,.381-0.66,1.027,1.027,0,0,0-.346-0.73,20.086,20.086,0,0,0-2.322-2.16,0.877,0.877,0,0,0-.519-0.24,0.741,0.741,0,0,0-.451.21,3.83,3.83,0,0,1-1.836.38H678.92a60.71,60.71,0,0,1-6.375-.28,26.5,26.5,0,0,0,.382,3.52c0.069,0.45.207,0.66,0.519,0.66,1.733-.11,3.465-0.14,5.2-0.14Zm28.128,7.56a17.076,17.076,0,0,0-2.737-.21c-3.915,0-6.41,2.05-6.41,5.08,0,2.99,2.564,4.94,6.375,4.94,3.95,0,6.444-1.6,6.444-5.08a25.523,25.523,0,0,1,4.227,2.92,0.541,0.541,0,0,0,.347.21,0.4,0.4,0,0,0,.311-0.24,21.411,21.411,0,0,0,1.594-2.82,0.461,0.461,0,0,0-.208-0.73,27.232,27.232,0,0,0-6.236-3.24,45.7,45.7,0,0,1-.381-5.92,3.588,3.588,0,0,1,.138-1.42,4.4,4.4,0,0,0,.208-0.73,0.533,0.533,0,0,0-.485-0.56,18.256,18.256,0,0,0-3.776-.66,12.244,12.244,0,0,1,.277,2.47C718.309,1302.79,718.378,1304.92,718.586,1307.15Zm0.069,3.3a4,4,0,0,1,.035.7c0,1.46-1.144,2.47-3.015,2.47-1.974,0-2.944-.56-2.944-1.67,0-1.32,1.351-2.02,3.083-2.02A8.751,8.751,0,0,1,718.655,1310.45Zm-5.647-17.85c0.312-1.05.589-2.13,0.831-2.96a3.826,3.826,0,0,1,.555-1.29,0.858,0.858,0,0,0,.311-0.66,0.593,0.593,0,0,0-.554-0.52,30.957,30.957,0,0,0-4.054-.73,13.6,13.6,0,0,1-.207,2.82c-0.243,1.25-.485,2.43-0.9,3.89-1.594.14-2.633,0.18-3.985,0.18-1,0-1.8-.04-3.222-0.14a18.345,18.345,0,0,0,.347,2.96c0.069,0.45.138,0.55,0.485,0.55,0.866,0.04,1.143.04,1.9,0.04,1.074,0,2.148,0,3.465-.07a70.356,70.356,0,0,1-5.994,12.15,0.655,0.655,0,0,0-.173.41,0.5,0.5,0,0,0,.243.39,17.154,17.154,0,0,0,2.39,1.77,0.917,0.917,0,0,0,.416.18,0.515,0.515,0,0,0,.381-0.35A96.54,96.54,0,0,0,712,1296.29c2.148-.32,3.846-0.56,5.717-0.94a0.373,0.373,0,0,0,.415-0.42,18.848,18.848,0,0,0-.311-2.82c-0.07-.38-0.208-0.38-0.52-0.28A37.976,37.976,0,0,1,713.008,1292.6Zm7.691,3.3a29.633,29.633,0,0,1,7.172,3.8,0.509,0.509,0,0,0,.312.14,0.391,0.391,0,0,0,.312-0.25,21.579,21.579,0,0,0,1.455-2.57,0.867,0.867,0,0,0,.138-0.42,0.513,0.513,0,0,0-.312-0.38,26.859,26.859,0,0,0-6.79-3.28,0.489,0.489,0,0,0-.728.25C721.808,1293.82,721.288,1294.86,720.7,1295.9Zm27.124-9.25a10.049,10.049,0,0,1-1.871,2.61c-2.979,3.27-5.855,6.16-8.8,9.36-1.074,1.15-1.7,1.91-1.7,3.06s0.52,1.92,1.837,2.92a87.365,87.365,0,0,1,12.611,11.77,0.607,0.607,0,0,0,.416.31,0.854,0.854,0,0,0,.485-0.28c0.589-.52,1.593-1.53,2.39-2.4a0.592,0.592,0,0,0,.243-0.42,0.881,0.881,0,0,0-.243-0.45,95.946,95.946,0,0,0-12.888-10.96,0.878,0.878,0,0,1-.451-0.63,1.517,1.517,0,0,1,.451-0.76c2.668-2.79,6.479-6.37,9.458-9.05a6.534,6.534,0,0,1,1.663-1.22,0.7,0.7,0,0,0,.485-0.66,0.861,0.861,0,0,0-.277-0.56A27.586,27.586,0,0,0,747.823,1286.65Zm39.111,8.24c3.361,0,4.539.07,4.747,0.07,0.346,0,.381-0.03.381-0.38v-2.16c0-.35-0.035-0.38-0.381-0.38-0.208,0-1.386.07-4.747,0.07h-4.365v-2.3c1.663-.17,3.291-0.42,4.746-0.66a8.462,8.462,0,0,1,1.906-.21c0.485,0,.762-0.17.762-0.42a1.078,1.078,0,0,0-.312-0.66,15.951,15.951,0,0,0-2.148-2.12,14.082,14.082,0,0,1-2.217.66,51.553,51.553,0,0,1-5.751.84c-2.53.24-4.816,0.38-8.177,0.45a5.786,5.786,0,0,1,.9,2.02c0.242,0.87.242,0.87,1.213,0.83,2.078-.07,3.915-0.21,5.785-0.38v1.95h-3.984c-3.361,0-4.539-.07-4.746-0.07-0.382,0-.416.03-0.416,0.38v2.16c0,0.35.034,0.38,0.416,0.38,0.207,0,1.385-.07,4.746-0.07h1.282a20.886,20.886,0,0,1-7.345,4.08,7.877,7.877,0,0,1,1.282,2.19c0.173,0.42.242,0.63,0.485,0.63a2.213,2.213,0,0,0,.8-0.32l0.831-.42v2.16c0,0.39.035,0.42,0.416,0.42,0.208,0,1-.07,3.465-0.07h0.138c-0.312,3.66-2.044,5.15-6.2,6.54a7.584,7.584,0,0,1,1.628,1.71,1.259,1.259,0,0,0,.8.77,2.9,2.9,0,0,0,.831-0.28c4.123-1.85,5.682-4.28,6.271-8.74h2.911a21.505,21.505,0,0,1-1.178,3.17c-0.174.35-.139,0.49,0.311,0.52l2.149,0.14a0.552,0.552,0,0,0,.692-0.35l0.1-.24h1.8a7.528,7.528,0,0,1-.485,2.29,1.277,1.277,0,0,1-1.351.63,20.928,20.928,0,0,1-3.222-.28,6.693,6.693,0,0,1,.519,2.02c0.1,1.12.208,1.12,1.144,1.15,0.762,0.03,1.628.07,2.321,0.03,1.628-.06,3.014-0.48,3.569-1.74a13.047,13.047,0,0,0,1-4.28l0.208-2.02c0.035-.27-0.1-0.38-0.416-0.38-0.208,0-.623.04-1.9,0.04h-2.218c0.208-.6.382-1.22,0.589-1.85l0.416-1.25a0.342,0.342,0,0,0-.381-0.49c-0.208,0-1.109.07-3.984,0.07h-6.063c-1.906,0-2.807-.03-3.222-0.03a23.086,23.086,0,0,0,6.063-4.74c-0.035,1.74-.139,3.21-0.139,3.73,0,0.35.035,0.38,0.381,0.38h2.668c0.346,0,.381-0.03.381-0.38,0-.52-0.1-2.27-0.138-4.04a19.187,19.187,0,0,0,8.28,5.78,2.467,2.467,0,0,0,.831.24c0.208,0,.278-0.17.451-0.7a7.915,7.915,0,0,1,1.178-2.36c-3.5-1.05-5.959-2.09-7.969-3.73h1.663Zm-17.946,7.7c0-2.16.069-3.17,0.069-3.38,0-.35-0.035-0.38-0.381-0.38-0.174,0-.728.07-2.564,0.07h-2.044c-1.8,0-2.287-.07-2.46-0.07-0.381,0-.416.03-0.416,0.38v2.65c0,0.38.035,0.41,0.416,0.41,0.173,0,.658-0.07,2.46-0.07h1.559v7.73a15.015,15.015,0,0,1-2.737,2.26,18.375,18.375,0,0,1-2.044,1.08,31.377,31.377,0,0,0,1.42,3.2,0.613,0.613,0,0,0,.485.42,0.528,0.528,0,0,0,.485-0.24,3.991,3.991,0,0,1,.8-0.73,40.305,40.305,0,0,0,3.291-2.96,7.094,7.094,0,0,0,3.6,3.06c1.663,0.7,4.538.91,8.107,0.91,3.6,0,7.726-.07,12.126-0.32,1.109-.07,1.109-0.07,1.282-1.18a6.022,6.022,0,0,1,.866-2.58c-5.2.53-10.359,0.73-14.828,0.73a21.9,21.9,0,0,1-6.41-.62,5.352,5.352,0,0,1-3.083-2.82v-7.55Zm-0.035-9.89c0.381-.28.381-0.35,0.208-0.66a26,26,0,0,0-4.331-5.08,0.554,0.554,0,0,0-.312-0.18,0.885,0.885,0,0,0-.416.21l-1.87,1.33c-0.382.27-.416,0.34-0.174,0.59a27.078,27.078,0,0,1,4.262,5.43,0.449,0.449,0,0,0,.312.24,0.669,0.669,0,0,0,.415-0.24Zm59.032-.45c0-3.06.069-4.67,0.069-4.87,0-.35-0.035-0.39-0.416-0.39-0.208,0-1.143.07-3.88,0.07H818.6c-2.772,0-3.673-.07-3.881-0.07-0.381,0-.416.04-0.416,0.39,0,0.24.07,1.81,0.07,4.87v4.28c0,11.69-1.629,14.76-6.895,18.59a8.983,8.983,0,0,1,2.114,1.74,1.588,1.588,0,0,0,.762.62,1.624,1.624,0,0,0,.831-0.52c3.361-2.75,5.3-5.71,6.167-11.17h7.1v6.68c0,0.91-.277,1.22-1.351,1.22-0.659,0-1.8-.04-2.98-0.14a9.314,9.314,0,0,1,.97,2.61c0.243,1.08.243,1.08,1.317,1.08,2.46,0,3.845-.21,4.642-0.91a3.349,3.349,0,0,0,1-2.85c0-1.39-.069-3.17-0.069-4.8v-16.43Zm-10.256,10.34c0.1-1.36.174-2.89,0.208-4.56h6.514v4.56h-6.722Zm6.722-12.26v4.49h-6.514v-4.49h6.514Zm-21.862,20.61c0.381,0,.416,0,0.416-0.35v-2.71h4.92v1.7c0,0.35.034,0.38,0.415,0.38h2.6c0.346,0,.381-0.03.381-0.38,0-.21-0.069-1.6-0.069-8.98v-5.98c0-4.56.069-6.03,0.069-6.23,0-.35-0.035-0.39-0.381-0.39-0.243,0-1.04.07-3.5,0.07h-4.019c-2.46,0-3.257-.07-3.5-0.07-0.346,0-.381.04-0.381,0.39,0,0.2.069,1.74,0.069,7.23v5.54c0,7.76-.069,9.19-0.069,9.43,0,0.35.035,0.35,0.381,0.35h2.668Zm0.416-6.23v-5.29h4.92v5.29h-4.92Zm4.92-13.51v5.09h-4.92v-5.09h4.92Zm49.434-4.42a0.433,0.433,0,0,0-.277.35,0.38,0.38,0,0,0,.173.32,22.009,22.009,0,0,1,1.594,1.81h-3.326a10.787,10.787,0,0,1,.035-2.3,1.683,1.683,0,0,0,.173-0.63,0.449,0.449,0,0,0-.52-0.38c-1-.11-2.287-0.21-3.5-0.24,0.208,1,.277,2.29.416,3.55h-10.36c-3.326,0-4.469-.07-4.677-0.07-0.381,0-.416.03-0.416,0.34,0,0.21.07,1.36,0.07,3.8a32.155,32.155,0,0,1-.659,7.41,13.489,13.489,0,0,1-2.494,5.54,8.593,8.593,0,0,1,2.217,1.49,1.676,1.676,0,0,0,.728.52,0.99,0.99,0,0,0,.623-0.69,19.251,19.251,0,0,0,2.322-6.09,42.074,42.074,0,0,0,.623-7v-2.33h12.334a33.4,33.4,0,0,0,2.46,9.61,17.966,17.966,0,0,1-3.811,3.09c0-.31-0.034-0.87-0.034-1.91v-2.3c0-1.46.069-2.02,0.069-2.23,0-.34-0.035-0.38-0.381-0.38-0.243,0-.9.07-2.945,0.07H844.54c-2.044,0-2.7-.07-2.945-0.07-0.346,0-.381.04-0.381,0.38,0,0.25.069,0.77,0.069,2.23v2.3c0,1.46-.069,1.98-0.069,2.23,0,0.34.035,0.38,0.381,0.38,0.243,0,.9-0.07,2.945-0.07H847.8c2.044,0,2.7.07,2.945,0.07s0.346,0,.381-0.17a10.724,10.724,0,0,1,1.143,1.11,1.4,1.4,0,0,0,.762.66,2.131,2.131,0,0,0,.832-0.45,21.574,21.574,0,0,0,2.633-2.3c1.49,2.02,3.222,3.2,4.885,3.2,1.975,0,3.118-1.29,3.984-4.21a3.2,3.2,0,0,0,.174-0.76c0-.35-0.243-0.49-0.9-0.8a7.518,7.518,0,0,1-1.732-1.15c-0.416,2.36-.763,3.34-1.629,3.34-0.623,0-1.628-.77-2.564-2.19a31.034,31.034,0,0,0,3.049-5.19,4.3,4.3,0,0,1,.693-1.05,0.754,0.754,0,0,0,.312-0.52,0.641,0.641,0,0,0-.416-0.48,18.634,18.634,0,0,0-2.806-1.08,15.874,15.874,0,0,1-.658,2.15,22.646,22.646,0,0,1-1.663,3.07,29.1,29.1,0,0,1-1.456-6.58h3.4c3.291,0,4.434.07,4.642,0.07,0.347,0,.381-0.04.381-0.38v-2.34c0-.31-0.034-0.34-0.381-0.34-0.173,0-.935.07-2.945,0.07l0.8-.53c0.312-.24.416-0.34,0.174-0.66a15.251,15.251,0,0,0-2.149-2.26,0.494,0.494,0,0,0-.727-0.03Zm-9.146,16.29H844.09v-2.54h4.123v2.54Zm-2.564,7.03a2.894,2.894,0,0,1,.208-1.25,1.121,1.121,0,0,0,.173-0.59c0-.14-0.208-0.24-0.624-0.31a26.55,26.55,0,0,0-3.43-.21,13.675,13.675,0,0,1,.174,2.64v3.07c0,1.84.485,2.57,1.281,3.02,1,0.53,2.945.7,5.994,0.7,3.6,0,5.509-.14,6.791-0.84,0.97-.55,1.628-1.49,1.9-3.41,0.1-.94.1-0.94-0.8-1.22a8.533,8.533,0,0,1-2.5-1.04c-0.035,1.67-.312,2.68-0.9,2.99-0.727.42-1.7,0.39-4.227,0.39a11.08,11.08,0,0,1-3.5-.32,1.423,1.423,0,0,1-.554-1.39v-2.23Zm-1.074-16.28c-2.044,0-2.876-.07-3.084-0.07-0.346,0-.381.03-0.381,0.41v2.02c0,0.35.035,0.38,0.381,0.38,0.208,0,1.04-.06,3.084-0.06h3.534c2.078,0,2.91.06,3.118,0.06,0.312,0,.346-0.03.346-0.38v-2.02c0-.38-0.034-0.41-0.346-0.41-0.208,0-1.04.07-3.118,0.07h-3.534Zm13.581,15.24c-0.416.24-.45,0.35-0.173,0.63a21.282,21.282,0,0,1,3.707,6.02c0.139,0.35.242,0.31,0.693,0.03l2.148-1.32c0.45-.28.45-0.35,0.277-0.7a27.712,27.712,0,0,0-4.088-5.81,0.486,0.486,0,0,0-.312-0.21,1.1,1.1,0,0,0-.416.18Zm-21.585,7.2c0.382,0.21.486,0.21,0.693-.07a25.611,25.611,0,0,0,3.534-6.26c0.1-.35.07-0.42-0.381-0.63l-2.044-.9c-0.485-.21-0.554-0.21-0.693.17a20.03,20.03,0,0,1-3.5,5.81c-0.208.28-.208,0.42,0.208,0.67Zm11.191-8.66c-0.416.31-.416,0.35-0.138,0.62a24.207,24.207,0,0,1,3.014,3.62,0.355,0.355,0,0,0,.277.25,0.791,0.791,0,0,0,.45-0.25l1.8-1.39c0.346-.24.312-0.31,0.1-0.55a19.1,19.1,0,0,0-3.257-3.45c-0.277-.21-0.381-0.21-0.727.03Z" transform="translate(-441.875 -1233.78)"/>
  </g>
  <g id="グループ_137" data-name="グループ 137">
    <rect id="長方形_978-2" data-name="長方形 978" class="cls-1" x="87.875" y="79.22" width="339.25" height="10"/>
    <path id="ミクロ泡" class="cls-2" d="M596.84,1239.1a56.73,56.73,0,0,1,13.1,4,0.516,0.516,0,0,0,.831-0.24,28.992,28.992,0,0,0,1.213-3.03c0.208-.45.138-0.63-0.416-0.87a63.234,63.234,0,0,0-12.334-3.65,0.646,0.646,0,0,0-.935.45C598.018,1236.32,597.256,1238.09,596.84,1239.1Zm-2.321,9.05a51.087,51.087,0,0,1,11.329,3.72,0.8,0.8,0,0,0,.451.14,0.653,0.653,0,0,0,.485-0.45,22.311,22.311,0,0,0,1.143-2.68,0.669,0.669,0,0,0-.45-1.01,53.667,53.667,0,0,0-10.567-3.37,0.618,0.618,0,0,0-.9.34A35.27,35.27,0,0,0,594.519,1248.15Zm-0.554,10.34a63.081,63.081,0,0,1,17.115,5.77,0.988,0.988,0,0,0,.485.18,0.651,0.651,0,0,0,.52-0.42,27.166,27.166,0,0,0,1.386-2.85,0.611,0.611,0,0,0-.347-0.94,58.7,58.7,0,0,0-16.6-5.43,0.759,0.759,0,0,0-.97.42A35.621,35.621,0,0,0,593.965,1258.49Zm39.249-17.82c0.416-.63.763-1.15,1.144-1.74a3.763,3.763,0,0,1,.866-0.94,0.711,0.711,0,0,0,.381-0.6,0.745,0.745,0,0,0-.346-0.59,17.09,17.09,0,0,0-4.054-1.84,14.925,14.925,0,0,1-2.044,4.7,41.232,41.232,0,0,1-9.32,10.33,9.431,9.431,0,0,1,3.326,1.5,0.828,0.828,0,0,0,.52.21,1.084,1.084,0,0,0,.727-0.38,48.385,48.385,0,0,0,6.548-7.14l8.385-.24a35.486,35.486,0,0,1-6.41,9.88,40.044,40.044,0,0,1-11.537,8.88,9,9,0,0,1,3.292,1.6,1.229,1.229,0,0,0,.8.38,0.922,0.922,0,0,0,.555-0.17,44.1,44.1,0,0,0,10.532-8.67,47.912,47.912,0,0,0,6.86-10.75,4.149,4.149,0,0,1,1.143-1.5,1,1,0,0,0,.416-0.73,1.136,1.136,0,0,0-.45-0.8,16.305,16.305,0,0,0-2.356-1.88,1,1,0,0,0-.554-0.21,0.722,0.722,0,0,0-.451.14,3.281,3.281,0,0,1-1.732.42Zm35.929,18.16v1.85c0,0.49.035,0.56,0.45,0.56,1.04,0.03,2.148.03,3.188,0,0.485,0,.658-0.11.658-0.6-0.069-1.87-.173-3.58-0.173-6.61v-8.32c0-2.05.034-3.93,0.034-5.64,0.035-.52-0.069-0.69-0.45-0.69-1.628.07-4.261,0.07-6.513,0.07h-8.246c-2.322,0-4.366,0-6.2-.11-0.242,0-.381.14-0.381,0.49,0.1,2.02.069,3.9,0.069,5.78v8.53c0,2.64-.069,5.11-0.1,6.92-0.034.42,0.139,0.49,0.728,0.52,0.866,0.04,1.871.04,2.737,0,0.624-.03.762-0.1,0.762-0.69v-2.06h13.443Zm0-3.68H655.666v-12.01h13.477v12.01Zm23.416-7.8c0,0.38.035,0.42,0.381,0.42,0.208,0,.935-0.07,3.291-0.07h3.708v3.37h-5.232c-1.906,0-2.806-.07-3.014-0.07-0.381,0-.416.04-0.416,0.42,0,0.21.069,1.15,0.069,3.03v6.65c0,1.7.347,2.54,1.04,3.16,0.727,0.63,2.321.91,8.869,0.91,5.786,0,8.142-.31,9.181-1.22a5.127,5.127,0,0,0,1.559-3.37c0.139-1.08.1-1.12-.97-1.4a10.475,10.475,0,0,1-2.425-.94c-0.1,1.53-.242,2.3-0.8,2.86-0.519.52-2.079,0.76-6.34,0.76-4.85,0-5.751-.14-6.167-0.45a2.413,2.413,0,0,1-.347-1.77v-5.4h5.163c1.975,0,2.806.07,3.014,0.07,0.381,0,.416-0.03.416-0.38,0-.21-0.07-1.12-0.07-3.07v-2.95c0-1.95.07-2.86,0.07-3.1,0-.35-0.035-0.38-0.416-0.38-0.208,0-1.039.07-3.014,0.07h-3.881c-2.356,0-3.083-.07-3.291-0.07a0.783,0.783,0,0,0-.312.03,27.465,27.465,0,0,0,2.044-2.85h12.265a85.04,85.04,0,0,1-.624,12.28c-0.207,1.08-.589,1.43-1.178,1.43a17.921,17.921,0,0,1-2.7-.21,9.39,9.39,0,0,1,.624,2.44c0.138,1.15.173,1.15,1.247,1.15a11.669,11.669,0,0,0,2.841-.21,3.279,3.279,0,0,0,2.46-2.75c0.554-2.44.831-6.37,0.9-14.48,0-.8.069-1.67,0.138-2.58,0-.35-0.069-0.42-0.45-0.42-0.208,0-1.178.07-4.088,0.07h-9.6c0.277-.55.554-1.14,0.8-1.74a2.735,2.735,0,0,1,.624-1.11,0.721,0.721,0,0,0,.312-0.59,0.657,0.657,0,0,0-.589-0.52,21.329,21.329,0,0,0-3.222-.59,9.79,9.79,0,0,1-.589,2.05,24.4,24.4,0,0,1-5.925,8.49,9.221,9.221,0,0,1,1.837,1.67,1.453,1.453,0,0,0,.727.73,1.737,1.737,0,0,0,.693-0.55c0.485-.53.936-1.05,1.386-1.61v2.79Zm-11.468,15.73a22.094,22.094,0,0,0,2.7,1.92,1.707,1.707,0,0,0,.624.2,0.51,0.51,0,0,0,.485-0.41,4.884,4.884,0,0,1,.554-1.36,76.482,76.482,0,0,0,3.292-7.69,2.782,2.782,0,0,0,.208-0.8,1.242,1.242,0,0,0-.728-0.87,16.629,16.629,0,0,1-1.9-1.78,67.848,67.848,0,0,1-3.4,8.04A11.742,11.742,0,0,1,681.091,1263.08Zm1.421-26.62a0.731,0.731,0,0,0-.243.41,0.4,0.4,0,0,0,.243.25,29.747,29.747,0,0,1,4.885,3.89c0.277,0.25.346,0.28,0.589-.1l1.593-2.16a0.877,0.877,0,0,0,.208-0.42,0.361,0.361,0,0,0-.208-0.27,28.023,28.023,0,0,0-4.815-3.66c-0.312-.17-0.382-0.17-0.659.18Zm-1.49,8.77a0.75,0.75,0,0,0-.208.41,0.4,0.4,0,0,0,.242.25,26.558,26.558,0,0,1,4.885,3.79,0.583,0.583,0,0,0,.312.21,0.356,0.356,0,0,0,.277-0.24l1.56-2.23a0.882,0.882,0,0,0,.207-0.42,0.546,0.546,0,0,0-.207-0.28,26.215,26.215,0,0,0-4.92-3.55c-0.312-.17-0.416-0.17-0.693.18Z" transform="translate(-441.875 -1233.78)"/>
    <path id="ふわっと軽い" class="cls-3" d="M449.911,1246.24a22.972,22.972,0,0,1,5.328,2.8,0.55,0.55,0,0,0,.348.18,0.459,0.459,0,0,0,.349-0.25,15.646,15.646,0,0,0,1.12-1.8,0.451,0.451,0,0,0-.149-0.65,22.063,22.063,0,0,0-5.128-2.48,0.387,0.387,0,0,0-.5.15C450.833,1244.79,450.384,1245.52,449.911,1246.24Zm-0.746,14.68a7.157,7.157,0,0,1,.647,2.63,0.478,0.478,0,0,0,.4.5,8,8,0,0,0,2.739.4c2.315,0,4.655-1.28,4.655-3.88,0-1.42-.573-2.75-2.888-4.57-1.618-1.28-2.066-1.73-2.066-2.35a2.943,2.943,0,0,1,.722-1.78,0.759,0.759,0,0,0,.149-0.27,0.247,0.247,0,0,0-.1-0.2,11.48,11.48,0,0,0-1.768-1.38,5.148,5.148,0,0,0-1.718,3.75c0,1.15.5,2.15,2.166,3.53,2.017,1.67,2.465,2.15,2.465,3.02,0,0.9-.573,1.43-1.818,1.43A9.207,9.207,0,0,1,449.165,1260.92Zm-1.394-2.97a7.78,7.78,0,0,1-1.544,1.65,1.264,1.264,0,0,1-.871.35c-0.423,0-.822-0.43-1.444-1.98a0.241,0.241,0,0,0-.174-0.22,0.355,0.355,0,0,0-.224.12,15.8,15.8,0,0,0-1.519,1.28c-0.124.12-.149,0.17-0.075,0.47,0.772,2.55,2.091,3.3,3.411,3.3a3.533,3.533,0,0,0,2.091-.92,6.2,6.2,0,0,0,1.195-1.2,0.676,0.676,0,0,0,.224-0.5,0.735,0.735,0,0,0-.224-0.45A5.814,5.814,0,0,1,447.771,1257.95Zm10.48-2.25a14.746,14.746,0,0,1,3.635,5.12c0.124,0.28.3,0.35,0.522,0.2a10.532,10.532,0,0,0,1.818-1.45,0.363,0.363,0,0,0,.1-0.55,14.651,14.651,0,0,0-3.809-4.7,0.273,0.273,0,0,0-.174-0.1,0.852,0.852,0,0,0-.249.1C459.57,1254.7,458.849,1255.2,458.251,1255.7Zm18.214-3.9c0.6-.88.971-1.35,1.319-1.8a1.073,1.073,0,0,0,.423-0.7,1.449,1.449,0,0,0-.4-0.78,1.2,1.2,0,0,0-.672-0.58,0.564,0.564,0,0,0-.174.05l-0.2.08c0.05-1.08.1-1.65,0.125-2.25a4.291,4.291,0,0,1,.249-1.08,0.563,0.563,0,0,0-.448-0.87,18.091,18.091,0,0,0-2.888-.43,9.15,9.15,0,0,1,.249,2.18c0,1.07,0,2.17-.05,3.25-1.917.53-2.888,0.75-3.535,0.9a12.052,12.052,0,0,1-1.693.25,20.845,20.845,0,0,0,1,2.2,0.651,0.651,0,0,0,.5.45c0.149,0,.4-0.25.822-0.42,0.946-.35,2.116-0.7,2.838-0.93-0.025.48-.025,1.15-0.025,1.78-1.867,2.57-3.286,4.35-5.477,7.02a0.432,0.432,0,0,0-.15.3,0.361,0.361,0,0,0,.15.28,18.122,18.122,0,0,0,1.518,1.5,0.435,0.435,0,0,0,.274.15,0.516,0.516,0,0,0,.349-0.25c0.921-1.33,2.166-3.15,3.361-4.95-0.05,2.55-.1,5.17-0.125,7.73-0.025.25,0.05,0.35,0.274,0.35,0.821,0,1.942-.08,2.215-0.1a0.283,0.283,0,0,0,.324-0.3c-0.05-3.38-.124-6.41-0.149-9.61,2.439-2.1,4.381-3.2,6.671-3.2,2.39,0,3.71,1.53,3.71,3.88a4.819,4.819,0,0,1-1.693,3.77,11.4,11.4,0,0,1-5,2.48,7.17,7.17,0,0,1,1.967,1.65,0.8,0.8,0,0,0,.647.35,0.88,0.88,0,0,0,.423-0.1c4.282-1.55,6.622-4.2,6.622-8.05,0-3.78-2.44-6.35-6.2-6.35a11.047,11.047,0,0,0-7.144,2.92v-0.77Zm17.667,2.3a12.711,12.711,0,0,0,1.344,2.42,0.909,0.909,0,0,0,.647.45,0.752,0.752,0,0,0,.5-0.25,7.722,7.722,0,0,1,1.394-.77c2.714-1.1,5.328-1.95,7.045-1.95,1.992,0,3.087.97,3.087,2.75a3.9,3.9,0,0,1-2.24,3.72,18.024,18.024,0,0,1-6,1.73,5.242,5.242,0,0,1,1.519,1.65,0.636,0.636,0,0,0,.821.35,13.462,13.462,0,0,0,5.153-1.65,5.982,5.982,0,0,0,3.56-5.6c0-3.13-2.29-5.35-5.676-5.35a24.5,24.5,0,0,0-7.269,1.52A26.775,26.775,0,0,1,494.132,1254.1Zm25.833-10.11a11.257,11.257,0,0,1,.647,2.9,38.147,38.147,0,0,0,1.3,6.11c-2.913,1.85-4.73,3.67-4.73,6.45,0,3.25,2.489,4.8,7.194,4.8a53.071,53.071,0,0,0,7.419-.37,0.393,0.393,0,0,0,.448-0.43,22.6,22.6,0,0,0-.249-2.33,0.311,0.311,0,0,0-.448-0.3,43.227,43.227,0,0,1-7.593.58c-2.863,0-3.958-.63-3.958-2.1,0-1.18.771-2.35,2.937-3.78a34.582,34.582,0,0,1,5.85-2.92,11.3,11.3,0,0,1,2.39-.75,0.5,0.5,0,0,0,.5-0.5,1.022,1.022,0,0,0-.174-0.53,13.054,13.054,0,0,0-1.817-2.35,6.083,6.083,0,0,1-1.718,1.35l-3.535,1.9a35.2,35.2,0,0,1-.8-4.3c-0.05-.58-0.124-1.18-0.124-1.68,0-.35.174-0.7,0.174-1.05a0.46,0.46,0,0,0-.448-0.4A14.637,14.637,0,0,0,519.965,1243.99Zm30.936,0.28c-2.116,0-2.838-.05-2.988-0.05-0.274,0-.3.02-0.3,0.27v1.75c0,0.25.025,0.28,0.3,0.28,0.05,0,.224,0,0.573-0.03a15.99,15.99,0,0,0,2.962,4.36,19.277,19.277,0,0,1-4.755,2.42v-1.62c0-1.5.05-2.18,0.05-2.33,0-.25-0.025-0.28-0.274-0.28-0.174,0-.846.05-2.738,0.05h-0.448v-1.6h0.6c2.091,0,2.838.05,2.988,0.05,0.224,0,.249-0.02.249-0.27v-1.63c0-.22-0.025-0.25-0.249-0.25-0.15,0-.9.05-2.988,0.05h-0.6v-0.07a4.1,4.1,0,0,1,.174-1.63,1.1,1.1,0,0,0,.125-0.45c0-.12-0.125-0.2-0.4-0.25a19.867,19.867,0,0,0-2.365-.17,15.4,15.4,0,0,1,.175,2.57h-1.071c-2.091,0-2.788-.05-2.937-0.05-0.249,0-.274.03-0.274,0.25v1.63c0,0.25.025,0.27,0.274,0.27,0.149,0,.846-0.05,2.937-0.05h1.071v1.6H540.52c-1.892,0-2.565-.05-2.714-0.05-0.249,0-.274.03-0.274,0.28,0,0.15.05,0.83,0.05,2.33v3.87c0,1.53-.05,2.18-0.05,2.35,0,0.23.025,0.25,0.274,0.25,0.149,0,.822-0.05,2.714-0.05h0.448v1.63h-1.1c-2.165,0-2.887-.05-3.037-0.05-0.249,0-.274.02-0.274,0.27v1.6c0,0.25.025,0.28,0.274,0.28,0.15,0,.872-0.05,3.037-0.05h1.1c-0.025,2.35-.05,3.63-0.05,3.75,0,0.25.025,0.28,0.274,0.28h1.842c0.249,0,.274-0.03.274-0.28,0-.1-0.05-1.4-0.05-3.75h0.622c2.166,0,2.938.05,3.087,0.05,0.224,0,.249-0.03.249-0.28v-1.6c0-.25-0.025-0.27-0.249-0.27-0.149,0-.921.05-3.087,0.05h-0.622v-1.63h0.473c1.892,0,2.564.05,2.738,0.05,0.249,0,.274-0.02.274-0.25,0-.15-0.05-0.82-0.05-2.35v-2.2a8.37,8.37,0,0,1,.8,1.35c0.2,0.48.274,0.68,0.473,0.68a1.911,1.911,0,0,0,.6-0.2,24.035,24.035,0,0,0,4.656-2.7,19.8,19.8,0,0,0,4.8,2.65,2.134,2.134,0,0,0,.573.17c0.224,0,.274-0.2.473-0.67a5.706,5.706,0,0,1,.846-1.55,21.277,21.277,0,0,1-4.879-2.2,19.771,19.771,0,0,0,2.664-3.46,3.743,3.743,0,0,1,.8-1.07,0.588,0.588,0,0,0,.3-0.5c0-.23-0.05-0.33-0.747-1.05-0.672-.68-0.821-0.73-1.02-0.73a0.705,0.705,0,0,0-.324.1,1.23,1.23,0,0,1-.622.13H550.9Zm4.555,2.2a14.247,14.247,0,0,1-2.265,2.93,12.575,12.575,0,0,1-2.241-2.93h4.506Zm-10.8,9.8h-1.469v-1.87h1.469v1.87Zm-5.029,0v-1.87h1.469v1.87h-1.469Zm0-3.57v-1.8h1.469v1.8h-1.469Zm5.029-1.8v1.8h-1.469v-1.8h1.469Zm9.535,6.22v-0.15a5.4,5.4,0,0,1,.149-1.9,1.282,1.282,0,0,0,.1-0.52,0.334,0.334,0,0,0-.374-0.28c-0.846-.07-1.618-0.15-2.514-0.17a17.083,17.083,0,0,1,.174,2.9v0.12h-0.747c-2.091,0-2.788-.05-2.937-0.05-0.249,0-.274.03-0.274,0.28v1.77c0,0.25.025,0.28,0.274,0.28,0.149,0,.846-0.05,2.937-0.05h0.747v3.37h-1.693c-2.315,0-3.062-.05-3.211-0.05-0.249,0-.274.03-0.274,0.28v1.78c0,0.27.025,0.3,0.274,0.3,0.149,0,.9-0.05,3.211-0.05h6.025c2.315,0,3.087.05,3.236,0.05,0.224,0,.249-0.03.249-0.3v-1.78c0-.25-0.025-0.28-0.249-0.28-0.149,0-.921.05-3.236,0.05h-1.867v-3.37h1.145c2.091,0,2.788.05,2.962,0.05,0.249,0,.274-0.03.274-0.28v-1.77c0-.25-0.025-0.28-0.274-0.28-0.174,0-.871.05-2.962,0.05h-1.145Zm10.223-10.68a13.522,13.522,0,0,1,.3,3.28,45.541,45.541,0,0,0,.6,7.28c0.672,4.22,2.713,6.52,4.655,6.52,1.743,0,3.286-1.35,4.232-3.9a0.761,0.761,0,0,0-.174-0.92,9.569,9.569,0,0,1-1.593-1.93c-0.971,2.6-1.594,3.48-2.39,3.48-1.046,0-1.693-1.7-2.042-3.68a31.643,31.643,0,0,1-.448-5.7,11.357,11.357,0,0,1,.224-2.45,2.169,2.169,0,0,0,.2-0.7,0.581,0.581,0,0,0-.4-0.45A10.583,10.583,0,0,0,564.41,1246.44Zm12.745,3.56a16.871,16.871,0,0,1,4.656,8.72,0.337,0.337,0,0,0,.522.28,8.825,8.825,0,0,0,1.942-1,0.442,0.442,0,0,0,.274-0.55,16.576,16.576,0,0,0-4.879-8.56,0.383,0.383,0,0,0-.274-0.15,0.738,0.738,0,0,0-.274.1C578.724,1249.04,578.1,1249.4,577.155,1250Z" transform="translate(-441.875 -1233.78)"/>
    <path id="がピタッと薄膜フィット" class="cls-3" d="M739.665,1245.79a12.389,12.389,0,0,1,2.514,2.9,0.26,0.26,0,0,0,.423.08l1.046-.78a0.252,0.252,0,0,0,.074-0.4,11.554,11.554,0,0,0-2.365-2.67,0.251,0.251,0,0,0-.373-0.05Zm2.29-1.65a11.73,11.73,0,0,1,2.489,2.88,0.255,0.255,0,0,0,.424.07l1-.77a0.29,0.29,0,0,0,.075-0.45,10.364,10.364,0,0,0-2.365-2.58,0.257,0.257,0,0,0-.373-0.05Zm-12.248,5.71c-0.971.15-1.892,0.27-2.938,0.37-1.1.1-2.19,0.18-3.286,0.18a22.482,22.482,0,0,0,.772,2.57,0.55,0.55,0,0,0,.8.33,6.592,6.592,0,0,1,1.369-.4c0.672-.13,1.469-0.28,2.439-0.43a52.514,52.514,0,0,1-4.555,9.8,0.468,0.468,0,0,0-.1.28,0.5,0.5,0,0,0,.2.37,11.359,11.359,0,0,0,1.718,1.11,0.407,0.407,0,0,0,.647-0.23,69.176,69.176,0,0,0,5-11.75,16.493,16.493,0,0,1,2.091-.18c1.1,0,1.419.55,1.419,2.3a19.41,19.41,0,0,1-.971,6.23c-0.4,1.02-.771,1.32-1.593,1.32a6.529,6.529,0,0,1-2.863-.65,7.194,7.194,0,0,1,.473,2.33,0.661,0.661,0,0,0,.448.7,6.555,6.555,0,0,0,2.589.38,3.56,3.56,0,0,0,3.361-2.36,21.34,21.34,0,0,0,1.344-7.82c0-3.2-1.244-4.83-3.559-4.83-0.573,0-1.32.03-1.992,0.1,0.324-1.05.573-1.98,0.9-3a3.121,3.121,0,0,1,.5-0.95,0.509,0.509,0,0,0-.224-0.88,18.2,18.2,0,0,0-2.987-.82,17.073,17.073,0,0,1-.249,2.77C730.279,1247.54,730.105,1248.42,729.707,1249.85Zm8.588-.2a16.946,16.946,0,0,1,4.083,6.47,0.352,0.352,0,0,0,.573.2,10.145,10.145,0,0,0,1.867-1.25,0.358,0.358,0,0,0,.1-0.5,16.834,16.834,0,0,0-4.132-6.08,0.35,0.35,0,0,0-.473-0.12A20.3,20.3,0,0,0,738.3,1249.65Zm15.277-.56a5.74,5.74,0,0,1,.249-2.25c0.224-.37.323-0.8-0.224-0.92a19.994,19.994,0,0,0-3.137-.5,26.119,26.119,0,0,1,.249,4.58v9.22c0,2.05.523,3.23,1.767,3.75a12.2,12.2,0,0,0,4.73.68,49.588,49.588,0,0,0,7.394-.45c0.373-.03.523-0.13,0.523-0.45,0-.53-0.075-1.48-0.15-2.18-0.024-.3-0.074-0.4-0.448-0.35a43.77,43.77,0,0,1-7.02.58,12.407,12.407,0,0,1-3.137-.28c-0.647-.2-0.821-0.6-0.821-1.77v-3.33a63.747,63.747,0,0,0,8.539-3.1,12.687,12.687,0,0,1,2.066-.82c0.5-.13.523-0.55,0.224-0.9a14.531,14.531,0,0,0-2.066-2.26,7.736,7.736,0,0,1-2.664,1.81,46.579,46.579,0,0,1-6.074,2.42v-3.48Zm13.169-4.77a2.627,2.627,0,0,0-2.689,2.67A2.689,2.689,0,1,0,766.741,1244.32Zm0,1.2a1.475,1.475,0,1,1-1.469,1.47A1.425,1.425,0,0,1,766.741,1245.52Zm14.083,1.77c0.423-.65.573-0.9,0.772-1.25a2.15,2.15,0,0,1,.523-0.52,0.7,0.7,0,0,0,.3-0.5,0.439,0.439,0,0,0-.274-0.4,15.684,15.684,0,0,0-2.913-1.23,9.271,9.271,0,0,1-1.344,3.08,27.725,27.725,0,0,1-7.045,7.85,10.389,10.389,0,0,1,2.091,1.15,0.555,0.555,0,0,0,.4.18,0.868,0.868,0,0,0,.5-0.23,30.067,30.067,0,0,0,5.327-5.62l6.174-.13a24,24,0,0,1-2.912,4.95,25.543,25.543,0,0,0-3.212-2,0.64,0.64,0,0,0-.249-0.1,0.475,0.475,0,0,0-.323.18c-0.573.52-1.1,1.17-1.643,1.77a21.114,21.114,0,0,1,3.584,2.35,30.286,30.286,0,0,1-9.161,6.78,7.067,7.067,0,0,1,2.365,1.28,0.736,0.736,0,0,0,.473.22,1.4,1.4,0,0,0,.623-0.22,30.625,30.625,0,0,0,7.941-6.26,28.534,28.534,0,0,1,2.415,2.43,0.431,0.431,0,0,0,.273.15,0.492,0.492,0,0,0,.3-0.13,15.889,15.889,0,0,0,1.544-1.57,0.5,0.5,0,0,0,.149-0.33,0.505,0.505,0,0,0-.149-0.35,22.137,22.137,0,0,0-2.689-2.52,39.488,39.488,0,0,0,3.659-6.05,3.012,3.012,0,0,1,.747-0.95,0.657,0.657,0,0,0,.274-0.48,0.613,0.613,0,0,0-.2-0.45,8.094,8.094,0,0,0-1.693-1.53,0.9,0.9,0,0,0-.448-0.2,0.706,0.706,0,0,0-.423.18,2.393,2.393,0,0,1-1.369.37Zm13.237,4.76a14.77,14.77,0,0,1,2.34,4.02c0.124,0.35.274,0.48,0.622,0.35a9.846,9.846,0,0,0,1.594-.77,0.446,0.446,0,0,0,.3-0.35,1.773,1.773,0,0,0-.1-0.38,13.482,13.482,0,0,0-2.141-3.7,0.443,0.443,0,0,0-.647-0.17C795.505,1251.3,794.907,1251.57,794.061,1252.05Zm5-1.28a17.247,17.247,0,0,1,2.091,4c0.124,0.35.224,0.48,0.5,0.38a9.848,9.848,0,0,0,1.717-.78,0.439,0.439,0,0,0,.249-0.67,14.337,14.337,0,0,0-1.917-3.65,0.433,0.433,0,0,0-.647-0.2C800.633,1250.02,800.06,1250.3,799.065,1250.77Zm7.841-.6a8.97,8.97,0,0,1-.572,2.65,26.045,26.045,0,0,1-3.361,6.03,21.753,21.753,0,0,1-5.975,5.2,5.675,5.675,0,0,1,2.116,1.05,0.557,0.557,0,0,0,.4.18,1.087,1.087,0,0,0,.6-0.28,19.99,19.99,0,0,0,5.128-4.83,30.387,30.387,0,0,0,3.76-6.65,3.39,3.39,0,0,1,.746-1.27,0.607,0.607,0,0,0,.274-0.45,0.621,0.621,0,0,0-.323-0.43A12.253,12.253,0,0,0,806.906,1250.17Zm11.743-6.18a11.257,11.257,0,0,1,.647,2.9,38.147,38.147,0,0,0,1.295,6.11c-2.913,1.85-4.73,3.67-4.73,6.45,0,3.25,2.489,4.8,7.194,4.8a53.071,53.071,0,0,0,7.419-.37,0.392,0.392,0,0,0,.448-0.43,22.6,22.6,0,0,0-.249-2.33,0.311,0.311,0,0,0-.448-0.3,43.227,43.227,0,0,1-7.593.58c-2.863,0-3.958-.63-3.958-2.1,0-1.18.772-2.35,2.937-3.78a34.593,34.593,0,0,1,5.851-2.92,11.3,11.3,0,0,1,2.389-.75,0.5,0.5,0,0,0,.5-0.5,1.013,1.013,0,0,0-.174-0.53,13.008,13.008,0,0,0-1.817-2.35,6.083,6.083,0,0,1-1.718,1.35l-3.535,1.9a35.391,35.391,0,0,1-.8-4.3c-0.049-.58-0.124-1.18-0.124-1.68,0-.35.174-0.7,0.174-1.05a0.46,0.46,0,0,0-.448-0.4A14.637,14.637,0,0,0,818.649,1243.99Zm28.87,6.96v1.15H845.6c-2.34,0-3.162-.05-3.286-0.05-0.274,0-.3.02-0.3,0.27,0,0.18.05,0.65,0.05,1.85v2.15c0,1.25-.05,1.73-0.05,1.85,0,0.28.025,0.3,0.3,0.3,0.124,0,.946-0.05,3.286-0.05h6.3c2.34,0,3.137.05,3.286,0.05,0.274,0,.3-0.02.3-0.3,0-.12-0.05-0.6-0.05-1.85v-2.15c0-1.2.05-1.7,0.05-1.85,0-.25-0.025-0.27-0.3-0.27-0.149,0-.946.05-3.286,0.05h-2.091v-1.15h3.535c2.44,0,3.286.05,3.435,0.05,0.249,0,.274-0.03.274-0.28v-1.32c0-.26-0.025-0.28-0.274-0.28-0.124,0-.846.05-2.614,0.05l0.473-.38a0.455,0.455,0,0,0,.2-0.25,0.419,0.419,0,0,0-.125-0.22,10.443,10.443,0,0,0-1.469-1.15,0.365,0.365,0,0,0-.547-0.03l-0.946.65a0.332,0.332,0,0,0-.2.23,0.406,0.406,0,0,0,.174.2c0.323,0.27.7,0.6,1.045,0.95h-2.962a2.049,2.049,0,0,1,.124-0.68,0.818,0.818,0,0,0,.1-0.35c0-.12-0.1-0.17-0.3-0.2-0.672-.07-1.593-0.15-2.34-0.17a11.944,11.944,0,0,1,.125,1.4h-2.988c-2.439,0-3.286-.05-3.435-0.05-0.249,0-.274.02-0.274,0.28v1.32c0,0.25.025,0.28,0.274,0.28,0.149,0,1-.05,3.435-0.05h2.988Zm5.626,6.1h-3.336v-1.15h3.336v1.15Zm0-3.58v1.13h-3.336v-1.13h3.336Zm-8.838,3.58v-1.15h3.212v1.15h-3.212Zm0-2.45v-1.13h3.212v1.13h-3.212Zm-5.9-10.01c-2.19,0-2.962-.05-3.111-0.05-0.249,0-.274.03-0.274,0.28v1.6c0,0.25.025,0.27,0.274,0.27,0.149,0,.921-0.05,3.111-0.05h2.813c-0.025.73-.049,1.08-0.049,1.2,0,0.25.024,0.28,0.273,0.28h1.917c0.249,0,.274-0.03.274-0.28,0-.12-0.05-0.47-0.05-1.2h4.8c0,0.4-.025.63-0.025,0.7,0,0.25.025,0.28,0.274,0.28h1.917c0.249,0,.274-0.03.274-0.28,0-.07-0.025-0.3-0.05-0.7h3.037c2.191,0,2.962.05,3.112,0.05,0.249,0,.274-0.02.274-0.27v-1.6c0-.25-0.025-0.28-0.274-0.28-0.15,0-.921.05-3.112,0.05H850.78a2.2,2.2,0,0,1,.124-0.97,1.058,1.058,0,0,0,.125-0.35c0-.13-0.1-0.2-0.324-0.23-0.672-.07-1.643-0.12-2.439-0.15a11.77,11.77,0,0,1,.149,1.7h-4.83a2.177,2.177,0,0,1,.125-0.97,1.128,1.128,0,0,0,.124-0.38c0-.12-0.1-0.2-0.323-0.22-0.672-.08-1.643-0.13-2.44-0.15a12.581,12.581,0,0,1,.149,1.72h-2.813Zm12.6,16.96v1.4a0.579,0.579,0,0,1-.7.7c-0.623,0-1.32-.02-2.166-0.1a5.044,5.044,0,0,1,.548,1.5c0.174,0.78.2,0.78,0.971,0.78,1.792,0,2.614-.18,3.062-0.53a2.178,2.178,0,0,0,.672-1.9c0-.55-0.05-1.18-0.05-1.85h0.274c2.439,0,3.286.05,3.435,0.05,0.224,0,.249-0.03.249-0.28v-1.4c0-.25-0.025-0.27-0.249-0.27-0.149,0-1,.05-3.435.05h-0.274a1.218,1.218,0,0,1,.1-0.33,0.8,0.8,0,0,0,.124-0.37,0.311,0.311,0,0,0-.349-0.25c-0.7-.08-1.468-0.13-2.364-0.18a9.427,9.427,0,0,1,.149,1.13h-6.647c-2.464,0-3.311-.05-3.46-0.05-0.249,0-.274.02-0.274,0.27v1.4c0,0.25.025,0.28,0.274,0.28,0.149,0,1-.05,3.46-0.05H851Zm-12.124-3.98a34.054,34.054,0,0,1-2.638,4.48,12.531,12.531,0,0,1-1.32,1.5c0.573,0.6,1.27,1.25,1.743,1.65a0.712,0.712,0,0,0,.423.23,0.389,0.389,0,0,0,.324-0.28,3.892,3.892,0,0,1,.473-0.87,35.681,35.681,0,0,0,2.389-3.98,1.551,1.551,0,0,0,.249-0.65,1.046,1.046,0,0,0-.448-0.63A13.283,13.283,0,0,1,838.88,1257.57Zm-3.709-3.4c-0.149.23-.149,0.28,0.075,0.43a24.532,24.532,0,0,1,3.062,2.37,0.39,0.39,0,0,0,.224.13,0.293,0.293,0,0,0,.2-0.18l1.046-1.45c0.174-.3.2-0.35,0.024-0.52a28.949,28.949,0,0,0-3.086-2.23c-0.249-.15-0.3-0.12-0.523.18Zm0.772-4.9c-0.174.23-.2,0.25,0.025,0.4a18.968,18.968,0,0,1,2.937,2.35,0.4,0.4,0,0,0,.224.13,0.567,0.567,0,0,0,.3-0.25l1-1.38a0.625,0.625,0,0,0,.149-0.3,0.329,0.329,0,0,0-.149-0.2,19.363,19.363,0,0,0-2.938-2.13c-0.224-.15-0.249-0.17-0.523.15Zm7.294,13.48c-0.324.2-.349,0.25-0.125,0.4a16.22,16.22,0,0,1,2.166,2.15,0.393,0.393,0,0,0,.2.15,0.687,0.687,0,0,0,.324-0.15l1.27-1.02c0.3-.25.273-0.3,0.149-0.48a14.993,14.993,0,0,0-2.216-1.9c-0.174-.15-0.249-0.15-0.522.02Zm36.287-2.58c2.39,0,3.236.05,3.386,0.05,0.224,0,.249-0.02.249-0.27v-1.6c0-.23-0.025-0.25-0.249-0.25-0.15,0-1,.05-3.386.05h-3.087a10.1,10.1,0,0,0,.125-1.28h1.568c2.216,0,2.937.05,3.112,0.05,0.249,0,.274-0.02.274-0.27,0-.15-0.05-0.75-0.05-2.18v-3.2c0-1.42.05-2.05,0.05-2.2,0-.25-0.025-0.28-0.274-0.28-0.175,0-.9.05-3.112,0.05H873.1c-2.215,0-2.962-.05-3.112-0.05-0.248,0-.273.03-0.273,0.28,0,0.18.049,0.78,0.049,2.2v3.2c0,1.43-.049,2-0.049,2.18,0,0.25.025,0.27,0.273,0.27,0.15,0,.9-0.05,3.112-0.05h1.046c-0.025.45-.075,0.88-0.125,1.28H872.18c-2.365,0-3.211-.05-3.361-0.05-0.249,0-.273.02-0.273,0.25v1.6c0,0.25.024,0.27,0.273,0.27,0.15,0,1-.05,3.361-0.05h1.2c-0.846,1.73-2.514,2.73-5.4,3.53a5.751,5.751,0,0,0,.05-0.7c0-1.03-.075-2.35-0.075-3.48v-11.45c0-2.6.05-3.95,0.05-4.1,0-.25-0.025-0.28-0.274-0.28-0.174,0-.6.05-1.991,0.05h-1.868c-1.419,0-1.842-.05-1.991-0.05-0.274,0-.3.03-0.3,0.28,0,0.15.05,1.5,0.05,4.1v4.1c0,7.18-.473,9.53-1.568,11.83a4.864,4.864,0,0,1,1.369,1.28,0.723,0.723,0,0,0,.448.32,0.463,0.463,0,0,0,.324-0.42,22.542,22.542,0,0,0,1.394-7.56h2.265v4.68c0,0.6-.2.85-0.647,0.85a12.445,12.445,0,0,1-1.494-.08,4.847,4.847,0,0,1,.7,1.73c0.174,0.8.174,0.8,0.946,0.78a3.2,3.2,0,0,0,1.992-.53,1.623,1.623,0,0,0,.547-0.92,5.743,5.743,0,0,1,.722,1.05c0.224,0.45.324,0.6,0.523,0.6a1.9,1.9,0,0,0,.573-0.15c2.813-.98,4.655-2.38,5.725-4.33a10.45,10.45,0,0,0,6.4,4.23c0.8,0.17.822,0.25,1.046-.53a6.006,6.006,0,0,1,.821-1.68c-3.136-.4-5.3-1.55-6.547-3.15h2.365Zm-0.373-5.17h-7.095v-1.35h7.095V1255Zm-7.095-4.28h7.095v1.25h-7.095v-1.25Zm-8.365,4.58c0.025-.93.025-1.95,0.025-3.1v-0.35h2.141v3.45h-2.166Zm2.166-9.21v3.43h-2.141v-3.43h2.141Zm2.738,0.68c0,0.25.025,0.27,0.274,0.27,0.125,0,.921-0.05,3.012-0.05-0.024.65-.049,0.95-0.049,1.08,0,0.22.025,0.25,0.273,0.25h1.818c0.249,0,.274-0.03.274-0.25,0-.1-0.05-0.45-0.05-1.08h2.962c-0.025.65-.05,0.95-0.05,1.08,0,0.25.025,0.27,0.274,0.27h1.818c0.249,0,.273-0.02.273-0.27,0-.1-0.049-0.45-0.049-1.08H879.6c2.365,0,3.211.05,3.36,0.05,0.224,0,.249-0.02.249-0.27v-1.58c0-.25-0.025-0.27-0.249-0.27-0.149,0-.995.05-3.36,0.05h-0.224v-0.1a3.461,3.461,0,0,1,.124-1.1,0.694,0.694,0,0,0,.125-0.35c0-.13-0.1-0.2-0.324-0.23-0.672-.07-1.519-0.12-2.34-0.15a9.641,9.641,0,0,1,.149,1.93h-2.962v-0.1a3.155,3.155,0,0,1,.124-1.1,1.131,1.131,0,0,0,.125-0.38,0.288,0.288,0,0,0-.324-0.22c-0.672-.08-1.543-0.13-2.34-0.15a9.888,9.888,0,0,1,.149,1.95c-2.091,0-2.887-.05-3.012-0.05-0.249,0-.274.02-0.274,0.27v1.58Zm32.031,2.5a21.067,21.067,0,0,1-4.207,7.13,24.136,24.136,0,0,1-8.14,6.25,7.134,7.134,0,0,1,2.315,1.38,0.864,0.864,0,0,0,.622.27,1.193,1.193,0,0,0,.672-0.22,28.067,28.067,0,0,0,7.07-5.96,29.351,29.351,0,0,0,4.83-8.12,3.1,3.1,0,0,1,.573-0.98,0.854,0.854,0,0,0,.348-0.63,0.619,0.619,0,0,0-.174-0.42,7.569,7.569,0,0,0-1.817-1.65,1.149,1.149,0,0,0-.473-0.13,0.751,0.751,0,0,0-.374.1,2.37,2.37,0,0,1-1.369.25h-8.887a45.04,45.04,0,0,1-4.78-.17c0.05,0.72.149,2.02,0.224,2.52,0.05,0.36.149,0.53,0.473,0.51,1.07-.05,2.489-0.13,4.108-0.13h8.986Zm17.021,4.88c0.872-.85,1.618-1.68,2.266-2.43a6.071,6.071,0,0,1,1.12-1.02,0.576,0.576,0,0,0,.373-0.48,0.7,0.7,0,0,0-.273-0.45,20.542,20.542,0,0,0-2.291-1.5,6.979,6.979,0,0,1-1.319,2.15,35.456,35.456,0,0,1-10.331,8.13,4.233,4.233,0,0,1,1.792,1.25,0.692,0.692,0,0,0,.5.25,0.584,0.584,0,0,0,.324-0.1,33.686,33.686,0,0,0,5.153-3.6v4.27c0,1.33-.05,2.58-0.075,4.01a0.375,0.375,0,0,0,.4.45,13.58,13.58,0,0,0,2.017,0,0.381,0.381,0,0,0,.423-0.45c-0.025-1.28-.075-2.88-0.075-4.08v-6.4Zm8.508-2.1a14.745,14.745,0,0,1,2.34,4.02c0.125,0.35.274,0.48,0.623,0.35a9.878,9.878,0,0,0,1.593-.77,0.448,0.448,0,0,0,.3-0.35,1.79,1.79,0,0,0-.1-0.38,13.482,13.482,0,0,0-2.141-3.7,0.443,0.443,0,0,0-.647-0.17C927.6,1251.3,927,1251.57,926.155,1252.05Zm5-1.28a17.208,17.208,0,0,1,2.091,4c0.125,0.35.224,0.48,0.5,0.38a9.861,9.861,0,0,0,1.718-.78,0.44,0.44,0,0,0,.249-0.67,14.4,14.4,0,0,0-1.917-3.65,0.434,0.434,0,0,0-.647-0.2C932.727,1250.02,932.155,1250.3,931.159,1250.77Zm7.842-.6a8.969,8.969,0,0,1-.573,2.65,26.045,26.045,0,0,1-3.361,6.03,21.747,21.747,0,0,1-5.974,5.2,5.69,5.69,0,0,1,2.116,1.05,0.555,0.555,0,0,0,.4.18,1.093,1.093,0,0,0,.6-0.28,19.99,19.99,0,0,0,5.128-4.83,30.427,30.427,0,0,0,3.759-6.65,3.379,3.379,0,0,1,.747-1.27,0.61,0.61,0,0,0,.274-0.45,0.622,0.622,0,0,0-.324-0.43A12.243,12.243,0,0,0,939,1250.17Zm12.266-2.78a6.528,6.528,0,0,1,.175-2.35,1.288,1.288,0,0,0,.2-0.57,0.469,0.469,0,0,0-.473-0.43,18.83,18.83,0,0,0-3.112-.4,19.21,19.21,0,0,1,.249,3.7v12.31c0,1.6-.025,3.07-0.1,4.93,0,0.3.125,0.37,0.473,0.37a16.388,16.388,0,0,0,2.216,0c0.348,0,.473-0.07.448-0.37-0.05-1.81-.1-3.28-0.1-4.91v-5.52a27.152,27.152,0,0,1,6.548,3.2,0.371,0.371,0,0,0,.273.12,0.422,0.422,0,0,0,.324-0.27,14.783,14.783,0,0,0,1.071-2.18,0.464,0.464,0,0,0-.274-0.65,35.28,35.28,0,0,0-7.917-3.4v-3.58Z" transform="translate(-441.875 -1233.78)"/>
  </g>
</svg>
