<svg id="head-block-03--.svg" xmlns="http://www.w3.org/2000/svg" width="250" height="87.03" viewBox="0 0 250 87.03">
  <defs>
    <style>
      .cls-1, .cls-3 {
        fill-rule: evenodd;
      }

      .cls-2 {
        fill: #d2ecf9;
      }

      .cls-3 {
        fill: #1147b4;
      }
    </style>
  </defs>
  <path id="レベルの" class="cls-1" d="M983.767,3156.48a11.494,11.494,0,0,1,.308-3.47,2.215,2.215,0,0,0,.14-0.59,0.532,0.532,0,0,0-.448-0.53,26.628,26.628,0,0,0-3.641-.62,26.468,26.468,0,0,1,.308,4.87l-0.056,10.53a5.531,5.531,0,0,1-.112,1.6,1.16,1.16,0,0,0-.14.48,0.682,0.682,0,0,0,.168.44A8.541,8.541,0,0,0,982,3171.1a0.74,0.74,0,0,0,.476.22,0.805,0.805,0,0,0,.5-0.22,6.441,6.441,0,0,1,1.569-.9,62.767,62.767,0,0,0,6.862-3.47,45.262,45.262,0,0,0,7-4.82,0.885,0.885,0,0,0,.28-1.12,12.6,12.6,0,0,1-.448-3.25,34.837,34.837,0,0,1-7.423,5.72,46.776,46.776,0,0,1-7.142,3.53Zm19.293,6.44a33.862,33.862,0,0,0,2.6,2.47,0.566,0.566,0,0,0,.39.19,0.642,0.642,0,0,0,.51-0.36,8.6,8.6,0,0,1,1.12-1.43c1.93-2.13,3.19-3.64,4.56-5.07a0.593,0.593,0,0,1,.45-0.22,0.69,0.69,0,0,1,.45.19,124.943,124.943,0,0,0,12.41,9.78,0.472,0.472,0,0,0,.31.11,0.58,0.58,0,0,0,.42-0.31,16.355,16.355,0,0,0,1.45-2.44,0.485,0.485,0,0,0-.25-0.75,88.907,88.907,0,0,1-12.55-9.11,3.233,3.233,0,0,0-2.43-1.14c-0.87,0-1.4.3-2.52,1.48-1.32,1.4-2.69,2.83-4.07,4.23A12.778,12.778,0,0,1,1003.06,3162.92Zm15.29-9.02a14,14,0,0,1,2.83,3.25,0.285,0.285,0,0,0,.47.08l1.18-.86a0.277,0.277,0,0,0,.08-0.45,12.619,12.619,0,0,0-2.66-3,0.28,0.28,0,0,0-.42-0.05Zm2.58-1.85a13.744,13.744,0,0,1,2.8,3.22,0.281,0.281,0,0,0,.47.09l1.12-.87a0.319,0.319,0,0,0,.09-0.5,12.022,12.022,0,0,0-2.66-2.89,0.289,0.289,0,0,0-.42-0.06Zm26.26,4.37c0-2.01,0-2.57.25-3.11a1.812,1.812,0,0,0,.23-0.7,0.507,0.507,0,0,0-.51-0.47,27.039,27.039,0,0,0-3.5-.59,22.377,22.377,0,0,1,.28,4.87v8.77c0,1.43.03,1.76-.17,2.13a0.907,0.907,0,0,0-.11.42,1.117,1.117,0,0,0,.25.59,8.2,8.2,0,0,0,1.68,1.7,1.232,1.232,0,0,0,.59.23,0.893,0.893,0,0,0,.56-0.23,9.957,9.957,0,0,1,.81-0.58,47.333,47.333,0,0,0,4.99-3.36,36.569,36.569,0,0,0,4.14-3.67,1.068,1.068,0,0,0,.42-0.7,1.488,1.488,0,0,0-.16-0.48,7.938,7.938,0,0,1-.87-2.83,26.934,26.934,0,0,1-4.9,4.76,28.908,28.908,0,0,1-3.98,2.61v-9.36Zm-9.77-3.11a7.682,7.682,0,0,1,.28,2.36c-0.03,4.48-.4,6.02-1.18,7.92a13.959,13.959,0,0,1-4.65,5.58,9.959,9.959,0,0,1,2.38,1.17,0.966,0.966,0,0,0,.53.23,1.236,1.236,0,0,0,.73-0.37,14.343,14.343,0,0,0,3.98-5.26,21.179,21.179,0,0,0,1.51-8.24,3.993,3.993,0,0,1,.34-1.9,0.563,0.563,0,0,0-.37-0.87A23.5,23.5,0,0,0,1037.42,3153.31Zm38.44,1.21a6.358,6.358,0,0,1,6.27,6.5c0,5.29-3.72,7.25-8.45,8.37a6.024,6.024,0,0,1,1.96,1.76,0.886,0.886,0,0,0,1.2.51c5.69-1.71,8.63-4.99,8.63-10.2,0-5.57-3.95-9.71-10.67-9.71a12.294,12.294,0,0,0-9.11,3.58,10.34,10.34,0,0,0-3.16,7.28c0,4.57,2.49,7.2,4.96,7.2,2.1,0,3.55-1.12,4.76-3.22,1.68-2.94,2.85-7.31,3.5-12.07h0.11Zm-3.36.17a32.171,32.171,0,0,1-2.97,10.02c-0.75,1.35-1.37,1.71-2.1,1.71-0.87,0-1.9-1.43-1.9-4a8.1,8.1,0,0,1,2.18-5.19A8.428,8.428,0,0,1,1072.5,3154.69Z" transform="translate(-864 -3138.97)"/>
  <rect id="長方形_1367" data-name="長方形 1367" class="cls-2" x="33" y="25.03" width="74" height="10"/>
  <rect id="長方形_1367-2" data-name="長方形 1367" class="cls-2" y="77.03" width="250" height="10"/>
  <path id="最高_" data-name="最高  " class="cls-3" d="M917.3,3169.32c0.33,0,.363-0.04.363-0.37,0-.19-0.066-1.41-0.066-3.96v-11.05h11.186c2.871,0,3.828.07,4.026,0.07,0.3,0,.33-0.04.33-0.37v-2.08c0-.33-0.033-0.36-0.33-0.36-0.2,0-1.155.07-4.026,0.07H907.6c-2.871,0-3.828-.07-4.026-0.07-0.33,0-.363.03-0.363,0.36v2.08c0,0.33.033,0.37,0.363,0.37,0.165,0,1.023-.04,3.267-0.07v10.36a4.008,4.008,0,0,1-.594.07,29.451,29.451,0,0,1-3.1.23,21.858,21.858,0,0,0,.66,2.64,0.6,0.6,0,0,0,.462.53,1.348,1.348,0,0,0,.528-0.2,3.6,3.6,0,0,1,1.188-.33c2.673-.4,5.939-0.99,8.579-1.55-0.033,2.04-.066,3.07-0.066,3.26,0,0.33.033,0.37,0.363,0.37H917.3Zm-2.739-6.14c-1.485.26-3.1,0.49-4.653,0.73v-2.28h4.653v1.55Zm-4.653-7.49v-1.75h4.653v1.75h-4.653Zm0,3.83v-1.72h4.653v1.72h-4.653Zm2.244-19.24c-3.267,0-4.388-.07-4.619-0.07-0.33,0-.363.04-0.363,0.4,0,0.2.066,0.92,0.066,2.71v3.46c0,1.78-.066,2.51-0.066,2.71,0,0.36.033,0.39,0.363,0.39,0.231,0,1.352-.06,4.619-0.06h12.011c3.267,0,4.422.06,4.62,0.06,0.33,0,.363-0.03.363-0.39,0-.2-0.066-0.93-0.066-2.71v-3.46c0-1.79.066-2.51,0.066-2.71,0-.36-0.033-0.4-0.363-0.4-0.2,0-1.353.07-4.62,0.07H912.155Zm13.661,7.23H910.505v-1.42h15.311v1.42Zm-15.311-4.79h15.311v1.39H910.505v-1.39Zm11.978,13.17c-2.606,0-3.431-.07-3.629-0.07-0.33,0-.363.03-0.363,0.36v1.92c0,0.36.033,0.39,0.363,0.39,0.1,0,.33,0,0.858-0.03a18.492,18.492,0,0,0,3.233,5.28,18.173,18.173,0,0,1-5.312,2.48,6.259,6.259,0,0,1,1.221,1.88,0.922,0.922,0,0,0,.594.75,2.291,2.291,0,0,0,.66-0.23,22.209,22.209,0,0,0,4.982-2.9,18.369,18.369,0,0,0,5.643,2.84c0.858,0.26.924,0.26,1.254-.63a10.253,10.253,0,0,1,1.155-2.11,18.16,18.16,0,0,1-5.841-2.24,17.371,17.371,0,0,0,2.673-4,3.4,3.4,0,0,1,.891-1.38,0.67,0.67,0,0,0,.33-0.6c0-.23-0.1-0.46-0.891-1.22-0.759-.69-0.924-0.76-1.155-0.76a1.321,1.321,0,0,0-.5.14,1.888,1.888,0,0,1-.594.13h-5.577Zm4.917,2.54a13.059,13.059,0,0,1-2.277,3.43,11.712,11.712,0,0,1-2.409-3.43H927.4Zm38.214,0.49c0-2.41.066-3.56,0.066-3.76,0-.33-0.033-0.36-0.363-0.36-0.231,0-1.32.06-4.455,0.06H943.769c-3.134,0-4.223-.06-4.454-0.06-0.33,0-.363.03-0.363,0.36,0,0.2.066,1.19,0.066,3.5v6.4c0,2.54-.066,3.53-0.066,3.73,0,0.33.033,0.36,0.363,0.36h2.838c0.33,0,.363-0.03.363-0.36,0-.17-0.066-1.29-0.066-3.73v-7.39h19.732v7.23a0.753,0.753,0,0,1-.825.92,18.1,18.1,0,0,1-2.112-.13,7.6,7.6,0,0,1,.693,2.18c0.165,0.95.2,1.02,1.221,1.02,2.376,0,3.135-.17,3.729-0.69a3.055,3.055,0,0,0,.792-2.38c0-1.02-.066-2.41-0.066-4.19v-2.71Zm-17.258-12.6c-3,0-4.059-.07-4.257-0.07-0.33,0-.363.03-0.363,0.36,0,0.24.066,0.73,0.066,2.15v2.01c0,1.36-.066,1.88-0.066,2.08,0,0.33.033,0.36,0.363,0.36,0.2,0,1.254-.06,4.257-0.06h7.952c3,0,4.059.06,4.257,0.06,0.33,0,.363-0.03.363-0.36,0-.2-0.066-0.72-0.066-2.08v-2.01c0-1.42.066-1.91,0.066-2.15,0-.33-0.033-0.36-0.363-0.36-0.2,0-1.254.07-4.257,0.07h-7.952Zm9.272,4.52H947v-2.18h10.625v2.18Zm4.653-6.14c2.97,0,3.993.07,4.191,0.07,0.33,0,.363-0.04.363-0.37v-2.31c0-.33-0.033-0.36-0.363-0.36-0.2,0-1.221.07-4.191,0.07h-8.447v-0.1a6.673,6.673,0,0,1,.132-1.59,1.888,1.888,0,0,0,.231-0.66,0.494,0.494,0,0,0-.528-0.33c-1.122-.09-2.277-0.16-3.5-0.16a11.3,11.3,0,0,1,.231,2.74v0.1h-8.018c-2.97,0-3.993-.07-4.191-0.07-0.33,0-.363.03-0.363,0.36v2.31c0,0.33.033,0.37,0.363,0.37,0.2,0,1.221-.07,4.191-0.07h19.9Zm-13.793,22.24c0.33,0,.363-0.03.363-0.36v-0.89h6.7v0.69c0,0.33.033,0.36,0.4,0.36h2.442c0.33,0,.363-0.03.363-0.36,0-.2-0.066-0.73-0.066-3.7v-1.45c0-.95.066-1.55,0.066-1.75,0-.33-0.033-0.36-0.363-0.36-0.231,0-1.089.07-3.563,0.07h-5.148c-2.508,0-3.366-.07-3.564-0.07-0.33,0-.363.03-0.363,0.36,0,0.2.066,0.83,0.066,2.08v1.22c0,3.04-.066,3.57-0.066,3.8,0,0.33.033,0.36,0.363,0.36h2.376Zm0.363-5.54h6.7v2.11h-6.7v-2.11Z" transform="translate(-864 -3138.97)"/>
  <path id="紫外線防御効果" class="cls-3" d="M892.087,3207.59a0.425,0.425,0,0,0-.33.3,0.46,0.46,0,0,0,.2.3l1.484,1.45c-2.177.17-4.619,0.3-7.192,0.4a49.566,49.566,0,0,0,4.586-3.93,4.474,4.474,0,0,1,1.056-.73,0.536,0.536,0,0,0,.462-0.46,0.6,0.6,0,0,0-.4-0.49c-0.693-.46-1.782-0.96-2.673-1.42a7.589,7.589,0,0,1-1.254,1.62,55.178,55.178,0,0,1-4.619,4.35l-1.814-1.42c1.056-.96,2.012-1.94,3-2.97a3.237,3.237,0,0,1,.924-0.76,0.573,0.573,0,0,0,.429-0.39,0.64,0.64,0,0,0-.4-0.5,22.909,22.909,0,0,0-2.145-1.15,7.462,7.462,0,0,0,.792-0.17c1.089-.23,1.089-0.23,1.188-1.28a11.922,11.922,0,0,1,.3-1.69c-1.815.37-3.4,0.7-4.916,0.93v-3.04h1.617c1.715,0,2.276.07,2.474,0.07,0.33,0,.363-0.04.363-0.37v-2.07c0-.33-0.033-0.37-0.363-0.37-0.2,0-.759.07-2.474,0.07H880.77v-0.33a5.515,5.515,0,0,1,.2-2.21,0.984,0.984,0,0,0,.2-0.59c0-.17-0.2-0.27-0.528-0.3-1.089-.13-2.013-0.2-3.167-0.23a19.6,19.6,0,0,1,.231,3.56v6.3l-2.211.27v-4.39a5.278,5.278,0,0,1,.165-2.05,0.731,0.731,0,0,0,.2-0.53c0-.19-0.165-0.29-0.462-0.33-0.924-.09-2.013-0.16-3.035-0.19a15.751,15.751,0,0,1,.2,3.1v4.68c-0.924.07-1.716,0.1-2.64,0.1,0.165,1.09.3,1.88,0.528,2.84a0.518,0.518,0,0,0,.5.46,1.077,1.077,0,0,0,.528-0.16,3.611,3.611,0,0,1,1.188-.27c3.86-.49,6.73-0.95,10-1.65a5.949,5.949,0,0,1-.726,1.12,28.223,28.223,0,0,1-2.64,2.81c-0.792-.53-1.583-1.06-2.441-1.55-0.264-.17-0.363-0.13-0.66.1l-1.716,1.25c-0.3.2-.363,0.36-0.033,0.53a40.148,40.148,0,0,1,5.642,3.99c-2.079.03-4.157,0.07-6.17,0.07-0.989,0-2.045-.04-3.431-0.13,0.165,0.98.4,1.97,0.627,2.9a0.527,0.527,0,0,0,.5.43,1.143,1.143,0,0,0,.528-0.13,2.659,2.659,0,0,1,1.22-.2c3-.04,6.3-0.1,9.634-0.27v3.8c0,2.11-.066,3.07-0.066,3.3,0,0.29.033,0.33,0.33,0.33h2.8c0.363,0,.4-0.04.4-0.33,0-.2-0.066-1.19-0.066-3.3v-3.96c3.233-.2,6.367-0.4,9.073-0.66a19.869,19.869,0,0,1,1.155,1.71c0.165,0.3.231,0.27,0.627,0.04l2.012-1.16c0.33-.2.3-0.33,0.132-0.62a30.5,30.5,0,0,0-4.883-5.28,0.421,0.421,0,0,0-.66-0.07Zm-2.079-10.16a42.219,42.219,0,0,0,6.7-2.31,3.482,3.482,0,0,1,1.451-.49,0.4,0.4,0,0,0,.462-0.36,0.9,0.9,0,0,0-.264-0.5,17.707,17.707,0,0,0-1.946-2.14,6.968,6.968,0,0,1-1.518,1.02,31.242,31.242,0,0,1-4.883,1.91v-1.05a6.13,6.13,0,0,1,.165-2.15,1.157,1.157,0,0,0,.2-0.56c0-.2-0.2-0.3-0.627-0.33a30.072,30.072,0,0,0-3.068-.26,20.853,20.853,0,0,1,.165,3.23v6.73a2.062,2.062,0,0,0,1.187,2.18,16.711,16.711,0,0,0,4.554.53c2.573,0,4.421-.23,5.377-0.83,0.924-.56,1.452-1.52,1.65-3.46,0.066-.86.066-0.93-0.792-1.12a9.011,9.011,0,0,1-2.276-.86c-0.033,1.48-.165,2.44-0.693,2.97-0.429.39-1.881,0.49-3.1,0.49a8.678,8.678,0,0,1-2.243-.2c-0.429-.09-0.5-0.36-0.5-1.08v-1.36Zm-0.792,16.99c-0.33.24-.4,0.33-0.132,0.6a24.492,24.492,0,0,0,6.632,4.55,2.207,2.207,0,0,0,.759.27,1.23,1.23,0,0,0,.759-0.8,10.458,10.458,0,0,1,1.682-1.88,20.013,20.013,0,0,1-7.291-3.89,0.475,0.475,0,0,0-.3-0.2,0.682,0.682,0,0,0-.363.2Zm-11.283-1.18a7.479,7.479,0,0,1-1.353,1.35,21.432,21.432,0,0,1-5.906,2.87,6.185,6.185,0,0,1,1.518,1.65,1.309,1.309,0,0,0,.792.76,3.007,3.007,0,0,0,.758-0.23,27.534,27.534,0,0,0,5.444-3.14,4.02,4.02,0,0,1,1.023-.69,0.592,0.592,0,0,0,.5-0.46,0.656,0.656,0,0,0-.363-0.53A15.954,15.954,0,0,0,877.933,3213.24Zm32.406-8.75a0.747,0.747,0,0,0-.2.4,0.483,0.483,0,0,0,.2.3,35.775,35.775,0,0,1,3.266,3.36,26.119,26.119,0,0,1-9.007,8.65,7.985,7.985,0,0,1,1.914,1.74,1.443,1.443,0,0,0,.726.66,1.814,1.814,0,0,0,.791-0.46,29.438,29.438,0,0,0,11.977-17.35,27.375,27.375,0,0,0,4.124,4.88v7.49c0,3.7-.066,5.54-0.066,5.74,0,0.33.033,0.36,0.363,0.36h2.87c0.33,0,.363-0.03.363-0.36,0-.16-0.066-2.04-0.066-5.74v-4.75a37.76,37.76,0,0,0,4.949,2.77,2.126,2.126,0,0,0,.759.26c0.264,0,.363-0.23.594-0.82a10.255,10.255,0,0,1,1.452-2.61,37.414,37.414,0,0,1-7.754-3.96v-9.99a13.162,13.162,0,0,1,.231-3.67,2.043,2.043,0,0,0,.165-0.65c0-.2-0.2-0.3-0.5-0.33a30.039,30.039,0,0,0-3.629-.27,30.309,30.309,0,0,1,.264,5.02v6.99a24.2,24.2,0,0,1-3.3-4.22l0.2-.33a0.944,0.944,0,0,0,.33-0.56,2.115,2.115,0,0,0-.957-1.16,2.4,2.4,0,0,0-1.452-.89,0.814,0.814,0,0,0-.462.13,1.706,1.706,0,0,1-.989.2h-3.4c0.2-.53.363-1.09,0.561-1.68a4.483,4.483,0,0,1,.66-1.68,0.764,0.764,0,0,0,.231-0.57,0.561,0.561,0,0,0-.5-0.46,25.79,25.79,0,0,0-3.365-.72,9.886,9.886,0,0,1-.429,2.6,26.072,26.072,0,0,1-6.929,11.68,6.918,6.918,0,0,1,1.65,2.02,0.951,0.951,0,0,0,.561.66,1.192,1.192,0,0,0,.66-0.5,32.252,32.252,0,0,0,5.608-8.28H917.5a32.036,32.036,0,0,1-2.277,7.16,29.2,29.2,0,0,0-2.9-2.84,0.528,0.528,0,0,0-.33-0.2,0.438,0.438,0,0,0-.3.23Zm48.078,11.45c0,0.69-.264,1.02-1.188,1.02-0.494,0-1.418-.03-2.408-0.13a6.787,6.787,0,0,1,.891,2.11c0.231,1.03.231,0.99,1.254,0.99a6.316,6.316,0,0,0,3.365-.56,2.8,2.8,0,0,0,1.221-2.67c0-1.85-.1-3.83-0.2-6.47a24.706,24.706,0,0,0,5.74,7.66,1.338,1.338,0,0,0,.66.46,1.025,1.025,0,0,0,.528-0.66,7.533,7.533,0,0,1,1.485-2.18,21.462,21.462,0,0,1-5.048-4.35,26.145,26.145,0,0,0,2.7-2.38,4.515,4.515,0,0,1,1.254-.99,0.513,0.513,0,0,0,.4-0.49,0.893,0.893,0,0,0-.4-0.66,18.885,18.885,0,0,0-1.88-1.52,9.943,9.943,0,0,1-1.188,1.48,21.868,21.868,0,0,1-2.442,2.31,20.431,20.431,0,0,1-1.814-4.28h1.682c2.805,0,3.762.06,3.992,0.06,0.33,0,.363-0.03.363-0.36,0-.2-0.066-1.06-0.066-3.07v-4.88c0-2.02.066-2.84,0.066-3.04,0-.36-0.033-0.39-0.363-0.39-0.23,0-1.187.06-3.992,0.06h-2.078c0.165-.36.33-0.76,0.5-1.22a1.939,1.939,0,0,1,.5-0.76,0.66,0.66,0,0,0,.263-0.49c0-.2-0.132-0.33-0.626-0.43a23.691,23.691,0,0,0-3.1-.4,9.173,9.173,0,0,1-.33,1.88c-0.132.5-.3,0.96-0.462,1.42h-0.659c-2.805,0-3.762-.06-3.993-0.06-0.33,0-.363.03-0.363,0.39,0,0.2.066,1.02,0.066,3.04v4.88c0,2.01-.066,2.84-0.066,3.07,0,0.33.033,0.36,0.363,0.36,0.231,0,1.188-.06,3.993-0.06h1.385v3.89a4.894,4.894,0,0,0-.924-0.99c-0.758-.76-0.956-0.86-1.154-0.86a0.887,0.887,0,0,0-.363.13,0.927,0.927,0,0,1-.594.13h-1.32c-0.924,0-1.518,0-1.88-.03a0.384,0.384,0,0,0,.065-0.39,35.416,35.416,0,0,0-1.979-5.81c-0.132-.3-0.2-0.4-0.561-0.26l-1.485.56c-0.4.13-.462,0.26-0.33,0.56,0.3,0.72.594,1.48,0.858,2.31-1.32.1-2.606,0.16-3.86,0.23,1.584-2.08,3.365-4.62,5.114-7.39a4.307,4.307,0,0,1,1.023-1.29,0.578,0.578,0,0,0,.363-0.53,0.529,0.529,0,0,0-.4-0.46,22.788,22.788,0,0,0-2.739-1.22,14.545,14.545,0,0,1-.924,2.08c-0.692,1.25-1.451,2.51-2.21,3.76l-1.452-1.72a48.991,48.991,0,0,0,2.805-4.55,1.753,1.753,0,0,1,.627-0.79,0.508,0.508,0,0,0,.3-0.43,0.649,0.649,0,0,0-.428-0.53c-0.792-.39-1.782-0.82-2.739-1.19a9.129,9.129,0,0,1-.594,1.75,37.346,37.346,0,0,1-1.913,3.6l-0.792-.79c-0.231-.27-0.33-0.23-0.594.1l-1.221,1.61a0.937,0.937,0,0,0-.231.43,0.44,0.44,0,0,0,.165.3,37.523,37.523,0,0,1,4.289,4.88c-0.594.83-1.187,1.68-1.847,2.51a20.155,20.155,0,0,1-2.409-.13c0.1,1.05.231,1.94,0.4,2.8,0.066,0.33.165,0.53,0.4,0.53a0.92,0.92,0,0,0,.5-0.13,3.582,3.582,0,0,1,1.254-.27l2.606-.19v8.77c0,3.04-.066,4.09-0.066,4.32,0,0.33.033,0.37,0.363,0.37h2.508c0.329,0,.362-0.04.362-0.37,0-.19-0.066-1.28-0.066-4.32v-9.07c0.693-.07,1.353-0.13,2.079-0.23l0.2,0.95c0.066,0.4.132,0.43,0.594,0.3l1.089-.33v2.18c0,0.33.033,0.36,0.363,0.36,0.2,0,.956-0.06,2.045-0.06h1.089a15.1,15.1,0,0,1-5.543,6.92,6.481,6.481,0,0,1,1.551,1.39,0.764,0.764,0,0,0,1.484.13,18.041,18.041,0,0,0,5.147-7.65,2.919,2.919,0,0,1,.693-1.19,0.8,0.8,0,0,0,.3-0.3v6.93Zm5.741-13.76H955.91v-2.24h8.248v2.24Zm-8.248-6.69h8.248v2.07H955.91v-2.07Zm-16.893,21.41a10.646,10.646,0,0,1,1.815.86,2.022,2.022,0,0,0,.759.39c0.2,0,.264-0.26.429-0.79a38.911,38.911,0,0,0,1.088-5.94,4.322,4.322,0,0,1,.264-1.22,0.75,0.75,0,0,0,.165-0.49,0.6,0.6,0,0,0-.561-0.4,20.637,20.637,0,0,0-2.54-.46,14.746,14.746,0,0,1-.066,2.11A19.15,19.15,0,0,1,939.017,3216.9Zm9.238-7.92c-0.4.13-.429,0.17-0.33,0.5a32.523,32.523,0,0,1,.99,5.01c0.033,0.36.1,0.4,0.561,0.23l1.65-.56c0.462-.16.462-0.26,0.4-0.59a33.038,33.038,0,0,0-1.188-4.82c-0.132-.33-0.165-0.36-0.561-0.23Zm50.025-2.94a41.854,41.854,0,0,1-.759,8.75,1.816,1.816,0,0,1-1.913,1.75,28.346,28.346,0,0,1-3.267-.24,6.2,6.2,0,0,1,.726,2.31c0.165,1.06.165,1.06,0.957,1.13,0.561,0.03,1.221.03,1.749,0.03,3.3,0,4.587-1.06,5.177-4.16a62.839,62.839,0,0,0,.73-9.8c0-.79.03-1.65,0.1-2.47,0-.33-0.1-0.43-0.46-0.43-0.2,0-.83.07-3.106,0.07H992.9c0.1-1.26.132-2.58,0.165-4.06h6.1c3.139,0,4.219.06,4.419,0.06,0.33,0,.37-0.03.37-0.36v-2.54c0-.33-0.04-0.36-0.37-0.36-0.2,0-1.28.06-4.419,0.06H995.74v-2.17a6.386,6.386,0,0,1,.165-2.22,1.637,1.637,0,0,0,.2-0.69,0.494,0.494,0,0,0-.528-0.33c-1.089-.13-2.145-0.23-3.4-0.26a19.469,19.469,0,0,1,.231,3.5v2.17h-2.342c-2.805,0-3.893-.06-4.091-0.06-0.33,0-.363.03-0.363,0.36v2.54c0,0.33.033,0.36,0.363,0.36,0.165,0,1.187-.06,3.695-0.06-0.066,4.72-.4,7.98-1.287,10.69-1.122,3.53-3.53,6.1-7.192,8.05a7.049,7.049,0,0,1,1.946,1.85,1.035,1.035,0,0,0,.726.62,2.088,2.088,0,0,0,.792-0.36,16.733,16.733,0,0,0,7-9.17,25.7,25.7,0,0,0,.956-4.56h5.675Zm-19.895-14.71c-1.715,0-2.573-.07-2.8-0.07-0.33,0-.363.04-0.363,0.4,0,0.2.066,2.44,0.066,7.03v14.22c0,4.55-.066,6.76-0.066,6.99,0,0.3.033,0.33,0.363,0.33h2.639c0.363,0,.4-0.03.4-0.33,0-.2-0.066-2.54-0.066-6.99v-18.55h3.7a41.264,41.264,0,0,1-3,7.46c2.343,2.97,3.1,4.55,3.1,6.07,0,2.01-1.187,2.48-3.233,2.38a4.671,4.671,0,0,1,.726,2.21c0.132,1.02.132,1.02,1.188,0.92,3.2-.23,4.52-2.01,4.52-5.08,0-1.85-.429-3.83-2.871-6.76a68.009,68.009,0,0,0,2.772-6.5,2.4,2.4,0,0,1,.627-1.09,0.788,0.788,0,0,0,.33-0.56,2.044,2.044,0,0,0-.858-1.29c-0.759-.82-0.99-0.99-1.287-0.99a0.712,0.712,0,0,0-.363.1,1.457,1.457,0,0,1-.66.1h-4.85Zm32.835,24.45c0,2.64-.07,3.89-0.07,4.09,0,0.33.04,0.36,0.33,0.36h2.64c0.33,0,.37-0.03.37-0.36,0-.2-0.07-1.45-0.07-4.09V3203.8c0.53-.73.99-1.48,1.42-2.21a4,4,0,0,1,.82-1.06v2.38c0,0.36.04,0.4,0.4,0.4,0.2,0,.96-0.07,3.53-0.07h0.99v10.79c-0.53.1-1.02,0.16-1.52,0.23v-5.77a6.109,6.109,0,0,1,.13-1.85,1.1,1.1,0,0,0,.17-0.53c0-.17-0.2-0.26-0.5-0.3-0.79-.1-1.94-0.16-2.83-0.19a17.876,17.876,0,0,1,.16,2.87v6.17c-0.69.06-1.32,0.09-2.04,0.09a31.647,31.647,0,0,0,.92,3.14,0.524,0.524,0,0,0,.43.43,0.872,0.872,0,0,0,.53-0.23,2.784,2.784,0,0,1,1.12-.4c3.03-.53,5.64-1.09,9.07-2.01,0.96-.27.96-0.27,1.06-1.35a8.472,8.472,0,0,1,.3-1.89c-1.42.37-2.74,0.7-4.03,0.99v-4.12h1.52a12.761,12.761,0,0,1,1.38.07c0.3,0,.33-0.04.33-0.37v-2.31c0-.33-0.03-0.36-0.33-0.36a12.761,12.761,0,0,1-1.38.07h-1.52v-3.17h0.2c2.57,0,3.36.07,3.56,0.07,0.33,0,.36-0.04.36-0.4v-2.31c0-.3-0.03-0.33-0.36-0.33-0.2,0-.99.03-3.56,0.03h-0.2v-3.66c2.01,0.03,2.77.07,2.97,0.07,0.33,0,.36-0.04.36-0.37v-2.31c0-.29-0.03-0.33-0.36-0.33-0.2,0-1.02.07-3.53,0.07h-2.64l0.23-.73a3.05,3.05,0,0,1,.46-1.18,0.781,0.781,0,0,0,.33-0.56,0.584,0.584,0,0,0-.56-0.47,21.006,21.006,0,0,0-2.7-.56,10.044,10.044,0,0,1-.33,1.92,17.55,17.55,0,0,1-2.97,5.94,6.436,6.436,0,0,1,1.75.95,1.518,1.518,0,0,0,.72.5,1.065,1.065,0,0,0,.63-0.66,17.82,17.82,0,0,0,1.28-2.28h1.39v3.66h-0.99c-2.57,0-3.33-.03-3.56-0.03a0.431,0.431,0,0,0,.1-0.3,0.866,0.866,0,0,0-.47-0.62,18.076,18.076,0,0,0-2.34-1.52,10.422,10.422,0,0,1-.82,1.75,25.361,25.361,0,0,1-5.84,6.76,8,8,0,0,1,.92,2.34c0.13,0.47.23,0.66,0.43,0.66a1.531,1.531,0,0,0,.69-0.39c0.56-.46,1.09-0.96,1.59-1.45-0.04,1.15-.07,2.47-0.07,3.43v4.85Zm26.73-17.62c0-3.43.06-5.18,0.06-5.38,0-.33-0.03-0.36-0.36-0.36-0.17,0-.79.06-2.71,0.06h-2.6c-1.92,0-2.51-.06-2.74-0.06-0.33,0-.37.03-0.37,0.36,0,0.23.07,2.31,0.07,6.57v14.08c0,4.26-.07,6.31-0.07,6.5,0,0.33.04,0.37,0.37,0.37h2.47c0.33,0,.37-0.04.37-0.37,0-.16-0.07-2.01-0.07-5.67v-18.74h2.54v16.07c0,0.76-.23.95-0.73,0.95a8.086,8.086,0,0,1-1.35-.1,8.594,8.594,0,0,1,.66,2.41c0.13,0.99.13,1.03,1.16,1.03a3.46,3.46,0,0,0,2.7-.8c0.6-.62.63-1.55,0.63-3.03,0-1.16-.03-2.81-0.03-4.52v-9.37Zm-24.35-8.02a7.021,7.021,0,0,1-.83,1.55,19.008,19.008,0,0,1-4.68,4.62,9.618,9.618,0,0,1,1.22,2.24c0.19,0.53.29,0.73,0.49,0.73a1.324,1.324,0,0,0,.69-0.4,30.351,30.351,0,0,0,4.92-5.24,2.884,2.884,0,0,1,.99-0.96,0.48,0.48,0,0,0,.33-0.46,0.809,0.809,0,0,0-.46-0.59A14.3,14.3,0,0,0,1013.6,3190.14Zm55.33,10.49a101.284,101.284,0,0,1-.82,13.86c-0.27,1.68-.69,2.05-1.72,2.05a19.4,19.4,0,0,1-3.16-.27,6.658,6.658,0,0,1,.75,2.28c0.2,1.09.2,1.09,1.13,1.12a19,19,0,0,0,2.01.07c2.51,0,3.76-1.03,4.16-3.6a103.726,103.726,0,0,0,.92-15.05c0-1.02.03-1.97,0.07-3.13,0-.33-0.07-0.4-0.37-0.4-0.2,0-1.09.07-3.76,0.07h-2.31c0.03-.86.07-1.75,0.07-2.67a17.6,17.6,0,0,1,.16-3.27,3.9,3.9,0,0,0,.23-0.89,0.461,0.461,0,0,0-.49-0.39c-1.16-.1-2.18-0.17-3.4-0.2a31.87,31.87,0,0,1,.26,4.65c0,0.96-.03,1.88-0.06,2.77-2.54,0-3.37-.07-3.53-0.07-0.37,0-.4.04-0.4,0.37v2.41c0,0.33.03,0.36,0.4,0.36,0.16,0,.99-0.07,3.36-0.07a35.68,35.68,0,0,1-1.42,8.15,16.946,16.946,0,0,1-6.96,9.01,5.689,5.689,0,0,1,1.88,1.65,1.155,1.155,0,0,0,.66.59,1.738,1.738,0,0,0,.83-0.49,20.5,20.5,0,0,0,6.6-9.64,39.983,39.983,0,0,0,1.68-9.27h3.23Zm-22,6.3c-0.27.27-.3,0.37-0.04,0.57,1.03,0.85,2.08,1.81,3.1,2.83a19.6,19.6,0,0,1-7.29,6.83,6.714,6.714,0,0,1,1.49,1.65,1.17,1.17,0,0,0,.69.76,1.8,1.8,0,0,0,.76-0.39,23.927,23.927,0,0,0,6.57-6.5,34.312,34.312,0,0,1,2.24,2.8,0.471,0.471,0,0,0,.3.23,0.754,0.754,0,0,0,.36-0.26l1.65-1.78c0.3-.3.3-0.4,0.06-0.63a38.163,38.163,0,0,0-2.93-3.3c0.36-.76.69-1.52,0.99-2.34a3.8,3.8,0,0,1,.69-1.42,0.905,0.905,0,0,0,.36-0.63,0.548,0.548,0,0,0-.43-0.49,17.32,17.32,0,0,0-2.9-1.22,11.205,11.205,0,0,1-.72,2.9l-0.4.96c-0.83-.73-1.65-1.42-2.48-2.05-0.26-.2-0.36-0.16-0.69.13Zm7.42-9.33c2.87,0,3.83.06,4.03,0.06,0.32,0,.36-0.03.36-0.36v-2.37c0-.37-0.04-0.4-0.36-0.4-0.2,0-1.16.07-4.03,0.07H1053v-1.09a6.908,6.908,0,0,1,.16-2.25,1.709,1.709,0,0,0,.23-0.69c0-.16-0.19-0.3-0.56-0.33-1.09-.13-2.08-0.2-3.3-0.23a18.812,18.812,0,0,1,.2,3.5v1.09h-1.75c-2.87,0-3.83-.07-4.02-0.07-0.33,0-.37.03-0.37,0.4v2.37c0,0.33.04,0.36,0.37,0.36,0.19,0,1.15-.06,4.02-0.06h6.37Zm-11.55,6.89a6.146,6.146,0,0,1,1.68,1.59,1.075,1.075,0,0,0,.6.59,1.681,1.681,0,0,0,.72-0.53,23.144,23.144,0,0,0,3.37-4.58,4.515,4.515,0,0,1,.73-1.09,0.523,0.523,0,0,0-.14-1.02,20.476,20.476,0,0,0-2.7-1.19,10.8,10.8,0,0,1-.56,1.61A14.506,14.506,0,0,1,1042.8,3204.49Zm10.46-5.11c-0.36.16-.43,0.23-0.26,0.56a36.675,36.675,0,0,0,3.76,5.71,1.165,1.165,0,0,0,.69.62,1.52,1.52,0,0,0,.73-0.56,9.49,9.49,0,0,1,1.78-1.41,23.106,23.106,0,0,1-4.16-5.65c-0.16-.29-0.23-0.29-0.59-0.13Zm35.28,10.56c-2.91,3.03-6.6,4.95-11.12,6.36a8.144,8.144,0,0,1,1.58,2.12c0.27,0.59.4,0.79,0.63,0.79a2.544,2.544,0,0,0,.79-0.27,26.383,26.383,0,0,0,10.53-7.49c-0.04,4.26-.23,7.79-0.23,8.52,0,0.33.03,0.36,0.39,0.36h2.9c0.33,0,.37-0.03.37-0.36,0-.73-0.23-4.36-0.23-8.65a25.665,25.665,0,0,0,11.08,7.56,2.934,2.934,0,0,0,.79.23c0.27,0,.37-0.23.66-0.83a9.495,9.495,0,0,1,1.49-2.27c-4.82-1.35-8.98-3.33-11.85-6.07h6.7c2.94,0,3.93.06,4.13,0.06,0.33,0,.36-0.03.36-0.39v-2.35c0-.33-0.03-0.36-0.36-0.36-0.2,0-1.19.07-4.13,0.07h-8.77v-2.41h4.38c3.2,0,4.36.07,4.59,0.07,0.33,0,.36-0.04.36-0.37,0-.16-0.06-1.12-0.06-3.26v-5.88c0-2.14.06-3.1,0.06-3.3,0-.33-0.03-0.36-0.36-0.36-0.23,0-1.39.07-4.59,0.07h-11.68c-3.16,0-4.32-.07-4.55-0.07-0.33,0-.36.03-0.36,0.36,0,0.23.06,1.16,0.06,3.3V3201c0,2.14-.06,3.06-0.06,3.26,0,0.33.03,0.37,0.36,0.37,0.23,0,1.39-.07,4.55-0.07h3.9v2.41h-8.22c-2.93,0-3.92-.07-4.12-0.07-0.36,0-.4.03-0.4,0.36v2.35c0,0.36.04,0.39,0.4,0.39,0.2,0,1.19-.06,4.12-0.06h5.91Zm11.64-15.67v2.57h-5.93v-2.57h5.93Zm0,7.68h-5.93v-2.54h5.93v2.54Zm-14.74-5.11v-2.57h5.41v2.57h-5.41Zm0,5.11v-2.54h5.41v2.54h-5.41Z" transform="translate(-864 -3138.97)"/>
  <path id="_7" data-name="※7" class="cls-3" d="M973.037,3144.9l2.583,2.61,0.255-.25-2.591-2.61,2.591-2.6-0.255-.26-2.583,2.62-2.584-2.62-0.255.26,2.592,2.6-2.592,2.61,0.255,0.25Zm2.168-.91a0.661,0.661,0,0,0-.661.66A0.666,0.666,0,1,0,975.205,3143.99Zm-4.337,0a0.663,0.663,0,0,0-.67.66,0.672,0.672,0,0,0,.67.67A0.665,0.665,0,0,0,970.868,3143.99Zm2.169-2.2a0.675,0.675,0,1,0,.661.68A0.673,0.673,0,0,0,973.037,3141.79Zm0,4.38a0.67,0.67,0,1,0,.661.67A0.67,0.67,0,0,0,973.037,3146.17Zm7.263-2.45c0.136-.36.271-0.71,0.407-1.04a0.872,0.872,0,0,0,.08-0.36v-0.05a0.159,0.159,0,0,0-.192-0.19h-3.173c-0.136,0-.16.04-0.16,0.19v0.09c0,0.15.024,0.19,0.16,0.19,0.032,0,.183-0.01.4-0.02h2.208c0.128,0,.183.01,0.183,0.08a0.356,0.356,0,0,1-.031.14l-1.125,3.01c-0.2.53-.39,1.04-0.606,1.57a0.3,0.3,0,0,0-.031.11c0,0.06.047,0.07,0.151,0.07h0.144a0.211,0.211,0,0,0,.263-0.19c0.183-.52.366-1.03,0.566-1.57Z" transform="translate(-864 -3138.97)"/>
</svg>
