<svg id="lead-block-01_sp.svg" xmlns="http://www.w3.org/2000/svg" width="474.531" height="89.44" viewBox="0 0 474.531 89.44">
  <defs>
    <style>
      .cls-1 {
        fill: #1147b4;
      }

      .cls-1, .cls-2 {
        fill-rule: evenodd;
      }

      .cls-2 {
        fill: none;
        stroke: #1147b4;
        stroke-linecap: round;
        stroke-width: 3px;
        stroke-dasharray: 0.001 6;
      }
    </style>
  </defs>
  <path id="_トーンアップパール_透明感UP成分_色ムラ補正成分_配合" data-name="★トーンアップパール 透明感UP成分  色ムラ補正成分 配合" class="cls-1" d="M104.6,2524.05l-3.277,10.06H90.991l8.318,6.24-3.193,9.89,8.486-6.11,8.458,6.11-3.193-9.89,8.318-6.24H107.879Zm23.883,5.72a7.326,7.326,0,0,1,.2-2.64,1.444,1.444,0,0,0,.224-0.64,0.521,0.521,0,0,0-.533-0.48,21.719,21.719,0,0,0-3.5-.45,21.436,21.436,0,0,1,.28,4.15v13.78c0,1.79-.028,3.44-0.112,5.52,0,0.33.14,0.42,0.532,0.42a20.719,20.719,0,0,0,2.492,0c0.392,0,.533-0.09.5-0.42-0.056-2.02-.113-3.67-0.113-5.49v-6.19a31.055,31.055,0,0,1,7.366,3.58,0.438,0.438,0,0,0,.308.14,0.47,0.47,0,0,0,.365-0.31,16.366,16.366,0,0,0,1.2-2.43,0.519,0.519,0,0,0-.308-0.73,39.433,39.433,0,0,0-8.907-3.81v-4Zm29.15,9.74c2.073,0,4.145.03,6.246,0.06,0.392,0.03.5-.09,0.5-0.42a20.607,20.607,0,0,0,0-2.63c0-.34-0.084-0.42-0.5-0.4-2.157.03-4.313,0.09-6.442,0.09h-9.018a35.931,35.931,0,0,1-6.05-.34,30.434,30.434,0,0,0,.421,3.39,0.617,0.617,0,0,0,.644.59,22.141,22.141,0,0,1,4.117-.34h10.082Zm11.337-8.79a29.777,29.777,0,0,1,5.713,4.56,0.6,0.6,0,0,0,.364.23,0.555,0.555,0,0,0,.336-0.23c0.393-.42,1.317-1.54,1.737-2.1a0.6,0.6,0,0,0,.168-0.36,0.625,0.625,0,0,0-.252-0.39,29.088,29.088,0,0,0-5.349-3.98,0.791,0.791,0,0,0-.365-0.14,0.519,0.519,0,0,0-.392.22C170.4,2529.09,169.589,2529.96,168.973,2530.72Zm0.616,13.97a19.011,19.011,0,0,0,2.241,3.11,0.715,0.715,0,0,0,.476.31,0.766,0.766,0,0,0,.5-0.28,9.93,9.93,0,0,1,1.876-1.29,60.168,60.168,0,0,0,8.458-5.49,45.5,45.5,0,0,0,6.442-5.94,1.344,1.344,0,0,0,.448-0.84,1.415,1.415,0,0,0-.14-0.53,12.408,12.408,0,0,1-.784-3.27,42.057,42.057,0,0,1-7.674,7.61,41.249,41.249,0,0,1-8.066,5.21A16.587,16.587,0,0,1,169.589,2544.69ZM212.042,2531a20.028,20.028,0,0,1-5.014,4.9,6.457,6.457,0,0,1,2.325,1.15,1.083,1.083,0,0,0,.672.28,0.836,0.836,0,0,0,.588-0.25,23.929,23.929,0,0,0,4.93-5.41,3.355,3.355,0,0,1,.756-0.81,0.742,0.742,0,0,0,.392-0.59,0.781,0.781,0,0,0-.224-0.5,13.793,13.793,0,0,0-1.681-1.77,0.963,0.963,0,0,0-.644-0.39,1.926,1.926,0,0,0-.532.2,6.07,6.07,0,0,1-1.932.16H199.663c-2.241,0-3.781-.05-5.686-0.19a25.985,25.985,0,0,0,.5,3.02,0.437,0.437,0,0,0,.5.42c1.653-.11,3.361-0.22,4.958-0.22h12.1Zm-16.384,16.27a7.808,7.808,0,0,1,2.548,1.43,0.782,0.782,0,0,0,.56.25,1.4,1.4,0,0,0,.785-0.28,14.544,14.544,0,0,0,5.1-5.57,17.156,17.156,0,0,0,1.652-7.7,2.551,2.551,0,0,1,.252-1.15,1.165,1.165,0,0,0,.14-0.51,0.507,0.507,0,0,0-.476-0.53,30.287,30.287,0,0,0-3.613-.53,10.079,10.079,0,0,1,.28,2.63,12.95,12.95,0,0,1-1.372,6.61C200.307,2544.16,198.71,2545.67,195.658,2547.27Zm24.612-12.3a16.742,16.742,0,0,1,2.633,4.51c0.14,0.4.308,0.54,0.7,0.4a12.639,12.639,0,0,0,1.792-.87,0.5,0.5,0,0,0,.336-0.39,1.718,1.718,0,0,0-.112-0.42,14.912,14.912,0,0,0-2.408-4.15,0.5,0.5,0,0,0-.729-0.2C221.894,2534.13,221.222,2534.44,220.27,2534.97Zm5.629-1.42a18.978,18.978,0,0,1,2.353,4.48c0.14,0.39.252,0.53,0.56,0.42a11.446,11.446,0,0,0,1.933-.87,0.5,0.5,0,0,0,.28-0.76,16.254,16.254,0,0,0-2.157-4.09,0.5,0.5,0,0,0-.728-0.22C227.664,2532.71,227.02,2533.01,225.9,2533.55Zm8.823-.68a10.029,10.029,0,0,1-.645,2.97,28.852,28.852,0,0,1-3.781,6.75,24.213,24.213,0,0,1-6.721,5.83,6.344,6.344,0,0,1,2.38,1.17,0.647,0.647,0,0,0,.448.2,1.205,1.205,0,0,0,.673-0.31,22.479,22.479,0,0,0,5.769-5.4,34.446,34.446,0,0,0,4.229-7.45,3.788,3.788,0,0,1,.84-1.43,0.685,0.685,0,0,0,.308-0.51,0.7,0.7,0,0,0-.364-0.47A13.388,13.388,0,0,0,234.722,2532.87Zm24.583-.64a23.516,23.516,0,0,1-4.733,7.98,26.993,26.993,0,0,1-9.158,7,8.441,8.441,0,0,1,2.6,1.54,0.963,0.963,0,0,0,.7.31,1.337,1.337,0,0,0,.756-0.25,31.41,31.41,0,0,0,7.954-6.67,32.8,32.8,0,0,0,5.433-9.1,3.335,3.335,0,0,1,.644-1.09,0.767,0.767,0,0,0,.28-0.53,0.93,0.93,0,0,0-.224-0.56,10.135,10.135,0,0,0-1.9-1.93,0.66,0.66,0,0,0-.476-0.2,0.914,0.914,0,0,0-.476.17,2.715,2.715,0,0,1-1.541.28h-10a48.781,48.781,0,0,1-5.378-.2c0.056,0.81.168,2.27,0.252,2.83,0.056,0.39.168,0.59,0.533,0.56,1.2-.06,2.8-0.14,4.621-0.14h10.11Zm6.218-8.37a2.952,2.952,0,0,0-3.025,2.99A3.025,3.025,0,1,0,265.523,2523.86Zm0,1.34a1.655,1.655,0,1,1-1.653,1.65A1.6,1.6,0,0,1,265.523,2525.2Zm2.85,18.49a7.563,7.563,0,0,1,2.464,1.2,0.925,0.925,0,0,0,.644.28,1.055,1.055,0,0,0,.785-0.42,30.937,30.937,0,0,0,5.993-9.41,5.384,5.384,0,0,1,.98-1.71,0.827,0.827,0,0,0,.28-0.56,0.48,0.48,0,0,0-.336-0.45,28.578,28.578,0,0,0-3.472-1.43,14.036,14.036,0,0,1-1.261,4.15A24.862,24.862,0,0,1,268.373,2543.69Zm14.311-10.65a36.589,36.589,0,0,1,6.918,10.9c0.112,0.36.308,0.42,0.672,0.25a16.368,16.368,0,0,0,2.325-1.49,0.541,0.541,0,0,0,.28-0.44,0.725,0.725,0,0,0-.112-0.4,35.2,35.2,0,0,0-7.03-10.27,0.575,0.575,0,0,0-.42-0.23,0.685,0.685,0,0,0-.392.17C284.449,2531.84,283.693,2532.37,282.684,2533.04Zm8.654-6.41a3,3,0,1,0,3.025,3A2.991,2.991,0,0,0,291.338,2526.63Zm0,1.34a1.655,1.655,0,1,1-1.652,1.66A1.606,1.606,0,0,1,291.338,2527.97Zm21.923,11.54c2.073,0,4.146.03,6.246,0.06,0.392,0.03.5-.09,0.5-0.42a20.607,20.607,0,0,0,0-2.63c0-.34-0.084-0.42-0.5-0.4-2.156.03-4.313,0.09-6.442,0.09h-9.018a35.911,35.911,0,0,1-6.049-.34,30.246,30.246,0,0,0,.42,3.39,0.617,0.617,0,0,0,.644.59,22.141,22.141,0,0,1,4.117-.34h10.082Zm26.208-6.61c0-2.01,0-2.57.252-3.11a1.771,1.771,0,0,0,.225-0.7,0.506,0.506,0,0,0-.505-0.47,27.039,27.039,0,0,0-3.5-.59,22.377,22.377,0,0,1,.28,4.87v8.77a4.8,4.8,0,0,1-.168,2.13,0.865,0.865,0,0,0-.112.42,1.14,1.14,0,0,0,.252.59,8.05,8.05,0,0,0,1.68,1.7,1.211,1.211,0,0,0,.588.23,0.9,0.9,0,0,0,.56-0.23,9.623,9.623,0,0,1,.813-0.58,45.44,45.44,0,0,0,4.985-3.37,35.949,35.949,0,0,0,4.145-3.66,1.077,1.077,0,0,0,.42-0.7,1.439,1.439,0,0,0-.168-0.48,8.056,8.056,0,0,1-.868-2.83,26.877,26.877,0,0,1-4.9,4.76,28.466,28.466,0,0,1-3.977,2.61v-9.36Zm-9.774-3.11a7.561,7.561,0,0,1,.28,2.36c-0.028,4.48-.392,6.02-1.176,7.92a14,14,0,0,1-4.649,5.58,10,10,0,0,1,2.38,1.17,0.966,0.966,0,0,0,.532.23,1.248,1.248,0,0,0,.728-0.37,14.342,14.342,0,0,0,3.977-5.26,21.009,21.009,0,0,0,1.513-8.24,4.014,4.014,0,0,1,.336-1.9,0.559,0.559,0,0,0-.364-0.87A23.534,23.534,0,0,0,329.7,2529.79Zm57.179,2.27c2.716,0,3.669.06,3.837,0.06,0.28,0,.308-0.03.308-0.31v-1.74c0-.28-0.028-0.3-0.308-0.3-0.168,0-1.121.05-3.837,0.05h-3.529v-1.85c1.344-.14,2.66-0.33,3.837-0.53a6.366,6.366,0,0,1,1.54-.17c0.392,0,.616-0.14.616-0.33a0.862,0.862,0,0,0-.252-0.54,12.945,12.945,0,0,0-1.736-1.7,12.132,12.132,0,0,1-1.793.53,41.128,41.128,0,0,1-4.649.67c-2.044.2-3.893,0.31-6.609,0.36a4.643,4.643,0,0,1,.728,1.63c0.2,0.7.2,0.7,0.98,0.67,1.68-.05,3.165-0.17,4.677-0.31v1.57h-3.221c-2.716,0-3.669-.05-3.837-0.05-0.308,0-.336.02-0.336,0.3v1.74c0,0.28.028,0.31,0.336,0.31,0.168,0,1.121-.06,3.837-0.06H378.5a16.808,16.808,0,0,1-5.938,3.28,6.431,6.431,0,0,1,1.036,1.76c0.14,0.34.2,0.51,0.392,0.51a1.914,1.914,0,0,0,.645-0.25l0.672-.34v1.74c0,0.3.028,0.33,0.336,0.33,0.168,0,.812-0.05,2.8-0.05h0.112c-0.252,2.94-1.653,4.14-5.014,5.26a6.136,6.136,0,0,1,1.317,1.37,1.02,1.02,0,0,0,.644.62,2.19,2.19,0,0,0,.672-0.22c3.333-1.49,4.593-3.45,5.069-7.03H383.6a16.912,16.912,0,0,1-.952,2.54c-0.14.28-.112,0.4,0.252,0.42l1.736,0.12a0.455,0.455,0,0,0,.56-0.28l0.084-.2h1.457a6.093,6.093,0,0,1-.392,1.85,1.038,1.038,0,0,1-1.093.5,16.747,16.747,0,0,1-2.6-.22,5.256,5.256,0,0,1,.42,1.62c0.084,0.9.168,0.9,0.924,0.93,0.616,0.03,1.316.05,1.876,0.03,1.317-.06,2.437-0.4,2.885-1.4a10.6,10.6,0,0,0,.812-3.45l0.168-1.62c0.028-.23-0.084-0.31-0.336-0.31-0.168,0-.5.03-1.54,0.03h-1.792c0.168-.48.308-0.98,0.476-1.49l0.336-1.01a0.274,0.274,0,0,0-.308-0.39c-0.168,0-.9.06-3.221,0.06h-4.9c-1.541,0-2.269-.03-2.605-0.03a18.655,18.655,0,0,0,4.9-3.81c-0.028,1.4-.112,2.58-0.112,3,0,0.28.028,0.31,0.308,0.31h2.157c0.28,0,.308-0.03.308-0.31,0-.42-0.084-1.82-0.112-3.25a15.508,15.508,0,0,0,6.693,4.65,1.9,1.9,0,0,0,.673.19c0.168,0,.224-0.14.364-0.56a6.5,6.5,0,0,1,.952-1.9,17.866,17.866,0,0,1-6.442-3h1.345Zm-14.508,6.19c0-1.73.056-2.55,0.056-2.71,0-.28-0.028-0.31-0.308-0.31-0.14,0-.588.05-2.073,0.05h-1.652c-1.456,0-1.848-.05-1.988-0.05-0.309,0-.337.03-0.337,0.31v2.12c0,0.31.028,0.34,0.337,0.34,0.14,0,.532-0.06,1.988-0.06h1.26v6.22a12.164,12.164,0,0,1-2.212,1.82,14.738,14.738,0,0,1-1.653.87,26.065,26.065,0,0,0,1.149,2.58,0.492,0.492,0,0,0,.392.33,0.419,0.419,0,0,0,.392-0.19,3.273,3.273,0,0,1,.644-0.59,33.659,33.659,0,0,0,2.661-2.38,5.711,5.711,0,0,0,2.912,2.46,19.526,19.526,0,0,0,6.554.73c2.913,0,6.246-.06,9.8-0.25,0.9-.06.9-0.06,1.036-0.95a4.833,4.833,0,0,1,.7-2.08c-4.2.42-8.374,0.59-11.987,0.59a17.842,17.842,0,0,1-5.181-.5,4.3,4.3,0,0,1-2.493-2.27v-6.08Zm-0.028-7.95c0.308-.23.308-0.28,0.168-0.53a20.948,20.948,0,0,0-3.5-4.09,0.425,0.425,0,0,0-.252-0.14,0.7,0.7,0,0,0-.336.16l-1.512,1.07c-0.308.22-.336,0.28-0.14,0.47a22.17,22.17,0,0,1,3.444,4.37,0.372,0.372,0,0,0,.253.2,0.546,0.546,0,0,0,.336-0.2Zm46.681-.37c0-2.46.056-3.75,0.056-3.92,0-.28-0.028-0.31-0.337-0.31-0.168,0-.924.06-3.136,0.06h-4.173c-2.241,0-2.969-.06-3.137-0.06-0.308,0-.336.03-0.336,0.31,0,0.2.056,1.46,0.056,3.92v3.45c0,9.41-1.317,11.87-5.574,14.95a7.673,7.673,0,0,1,1.709,1.4,1.268,1.268,0,0,0,.616.51,1.336,1.336,0,0,0,.672-0.42c2.717-2.21,4.285-4.59,4.985-8.99h5.742v5.38c0,0.72-.224.98-1.092,0.98-0.533,0-1.457-.03-2.409-0.12a7.513,7.513,0,0,1,.784,2.1c0.2,0.87.2,0.87,1.064,0.87,1.989,0,3.109-.17,3.753-0.73a2.682,2.682,0,0,0,.813-2.29c0-1.12-.056-2.55-0.056-3.87v-13.22Zm-8.291,8.32c0.084-1.09.14-2.32,0.168-3.67h5.266v3.67h-5.434Zm5.434-9.86v3.62H410.9v-3.62h5.266Zm-17.673,16.58c0.308,0,.336,0,0.336-0.28v-2.18H402.8v1.37c0,0.28.028,0.31,0.337,0.31h2.1c0.28,0,.308-0.03.308-0.31,0-.17-0.056-1.29-0.056-7.22v-4.82c0-3.67.056-4.85,0.056-5.02,0-.28-0.028-0.3-0.308-0.3-0.2,0-.84.05-2.829,0.05h-3.248c-1.989,0-2.633-.05-2.829-0.05-0.28,0-.308.02-0.308,0.3,0,0.17.056,1.41,0.056,5.83v4.45c0,6.25-.056,7.4-0.056,7.59,0,0.28.028,0.28,0.308,0.28h2.156Zm0.336-5.01v-4.26H402.8v4.26h-3.977Zm3.977-10.87v4.09h-3.977v-4.09H402.8Zm40.015-3.55a0.327,0.327,0,0,0-.224.28,0.3,0.3,0,0,0,.14.25,18.571,18.571,0,0,1,1.289,1.46h-2.689a8.622,8.622,0,0,1,.028-1.85,1.342,1.342,0,0,0,.14-0.51,0.368,0.368,0,0,0-.42-0.31c-0.812-.08-1.849-0.16-2.829-0.19,0.168,0.81.224,1.85,0.336,2.86h-8.374c-2.689,0-3.613-.06-3.781-0.06-0.308,0-.336.03-0.336,0.28,0,0.17.056,1.09,0.056,3.05a25.823,25.823,0,0,1-.532,5.97,10.78,10.78,0,0,1-2.017,4.45,6.838,6.838,0,0,1,1.793,1.2,1.384,1.384,0,0,0,.588.42,0.8,0.8,0,0,0,.5-0.56,15.338,15.338,0,0,0,1.877-4.9,33.6,33.6,0,0,0,.5-5.63v-1.87h9.97a26.814,26.814,0,0,0,1.989,7.73,14.629,14.629,0,0,1-3.081,2.49c0-.25-0.028-0.7-0.028-1.54v-1.85c0-1.17.056-1.62,0.056-1.79,0-.28-0.028-0.31-0.308-0.31-0.2,0-.728.06-2.381,0.06h-2.632c-1.653,0-2.185-.06-2.381-0.06-0.28,0-.308.03-0.308,0.31,0,0.19.056,0.62,0.056,1.79v1.85c0,1.18-.056,1.6-0.056,1.79,0,0.28.028,0.31,0.308,0.31,0.2,0,.728-0.06,2.381-0.06h2.632c1.653,0,2.185.06,2.381,0.06s0.28,0,.308-0.14a8.6,8.6,0,0,1,.924.9,1.133,1.133,0,0,0,.616.53,1.726,1.726,0,0,0,.673-0.37,17.371,17.371,0,0,0,2.128-1.84c1.2,1.62,2.6,2.57,3.949,2.57,1.6,0,2.521-1.03,3.221-3.39a2.5,2.5,0,0,0,.14-0.61c0-.28-0.2-0.39-0.728-0.65a5.637,5.637,0,0,1-1.4-.92c-0.336,1.9-.616,2.69-1.316,2.69-0.5,0-1.316-.62-2.072-1.77a24.5,24.5,0,0,0,2.464-4.17,3.563,3.563,0,0,1,.56-0.84,0.613,0.613,0,0,0,.252-0.42,0.532,0.532,0,0,0-.336-0.39,15.569,15.569,0,0,0-2.268-.87,13.351,13.351,0,0,1-.532,1.74,18.3,18.3,0,0,1-1.345,2.46,23.342,23.342,0,0,1-1.176-5.29h2.745c2.66,0,3.585.05,3.753,0.05,0.28,0,.308-0.02.308-0.3v-1.88c0-.25-0.028-0.28-0.308-0.28-0.14,0-.757.06-2.381,0.06l0.644-.43c0.252-.19.336-0.28,0.14-0.53a12.62,12.62,0,0,0-1.736-1.82,0.407,0.407,0,0,0-.588-0.03Zm-7.394,13.1h-3.332v-2.04h3.332v2.04Zm-2.072,5.66a2.393,2.393,0,0,1,.168-1.01,0.89,0.89,0,0,0,.14-0.47c0-.12-0.168-0.2-0.5-0.26a22.123,22.123,0,0,0-2.773-.16,11,11,0,0,1,.14,2.13v2.46c0,1.48.392,2.07,1.036,2.44,0.813,0.42,2.381.56,4.846,0.56,2.912,0,4.453-.12,5.489-0.68a3.323,3.323,0,0,0,1.54-2.74c0.084-.76.084-0.76-0.644-0.98a7.047,7.047,0,0,1-2.016-.84c-0.028,1.34-.252,2.16-0.728,2.41-0.589.33-1.373,0.31-3.417,0.31a8.841,8.841,0,0,1-2.829-.26,1.147,1.147,0,0,1-.448-1.12v-1.79Zm-0.868-13.11c-1.653,0-2.325-.05-2.493-0.05-0.28,0-.308.03-0.308,0.33v1.63c0,0.28.028,0.31,0.308,0.31,0.168,0,.84-0.06,2.493-0.06h2.856c1.681,0,2.353.06,2.521,0.06,0.252,0,.28-0.03.28-0.31v-1.63c0-.3-0.028-0.33-0.28-0.33-0.168,0-.84.05-2.521,0.05h-2.856Zm10.978,12.27c-0.336.2-.364,0.28-0.14,0.51a17,17,0,0,1,3,4.84c0.112,0.28.2,0.25,0.56,0.03l1.737-1.07c0.364-.22.364-0.28,0.224-0.56a22.211,22.211,0,0,0-3.305-4.67,0.367,0.367,0,0,0-.252-0.17,0.834,0.834,0,0,0-.336.14Zm-17.448,5.8c0.308,0.17.392,0.17,0.56-.06a20.72,20.72,0,0,0,2.857-5.04c0.084-.28.056-0.33-0.308-0.5l-1.653-.73c-0.392-.17-0.448-0.17-0.56.14a16.254,16.254,0,0,1-2.828,4.68c-0.169.22-.169,0.33,0.168,0.53Zm9.046-6.98c-0.336.26-.336,0.28-0.112,0.51a19.137,19.137,0,0,1,2.437,2.91,0.294,0.294,0,0,0,.224.2,0.671,0.671,0,0,0,.364-0.2l1.456-1.12c0.28-.19.252-0.25,0.084-0.45a15.562,15.562,0,0,0-2.632-2.77c-0.224-.17-0.308-0.17-0.588.03Zm35.2-15.79h-3.529v14.17c0,3.56-1.736,5.07-4.593,5.07-2.885,0-4.593-1.51-4.593-5.07v-14.17h-3.781v14.23c0,5.29,3.249,7.89,8.29,7.89,5.013,0,8.206-2.68,8.206-7.89v-14.23Zm5.988,0v21.73h3.781v-9.13H483.7c5.209,0,7.982-2.38,7.982-6.38s-2.409-6.22-7.758-6.22h-7.674Zm3.781,2.83h3.7c2.884,0,4.145,1.26,4.145,3.41,0,2.22-1.4,3.53-4.286,3.53h-3.556v-6.94Zm36.123,2.69c2.633,0,3.557.05,3.725,0.05,0.28,0,.308-0.03.308-0.31v-2.12c0-.31-0.028-0.34-0.308-0.34-0.168,0-1.092.06-3.725,0.06h-4.2v-0.68a10.166,10.166,0,0,1,.14-2.8,1.347,1.347,0,0,0,.14-0.53,0.387,0.387,0,0,0-.42-0.34c-1.008-.11-1.96-0.14-3.024-0.19a26.594,26.594,0,0,1,.224,3.95v0.59h-7.45c-2.661,0-3.585-.06-3.753-0.06-0.308,0-.336.03-0.336,0.34,0,0.16.056,1.82,0.056,5.63a45.559,45.559,0,0,1-.392,6.77,14.938,14.938,0,0,1-2.185,6.19,8.8,8.8,0,0,1,1.736,1.57,0.958,0.958,0,0,0,.561.45,0.808,0.808,0,0,0,.476-0.53,20.962,20.962,0,0,0,2.184-6.56,36.362,36.362,0,0,0,.5-4.9h3.921a23.044,23.044,0,0,1-.42,4.51,1.189,1.189,0,0,1-1.344,1.01,13.547,13.547,0,0,1-2.3-.22,5.818,5.818,0,0,1,.673,2.01c0.14,0.87.168,0.87,0.812,0.93a13.629,13.629,0,0,0,1.428.05,3.2,3.2,0,0,0,3.249-2.32,22.124,22.124,0,0,0,.644-5.21c0.056-.84.084-2.02,0.14-3.08,0-.31-0.056-0.37-0.336-0.37-0.168,0-.672.06-2.381,0.06h-4.033v-3.61h8.627a33.925,33.925,0,0,0,2.044,10.72,22.177,22.177,0,0,1-6.5,5.27,6.563,6.563,0,0,1,1.429,1.48,0.993,0.993,0,0,0,.588.59,1.727,1.727,0,0,0,.672-0.31,22.1,22.1,0,0,0,5.069-4.17c1.4,2.6,3.249,4.4,5.182,4.4,1.708,0,2.716-1.38,3.165-4.37,0.14-.87.14-0.87-0.673-1.29a5.6,5.6,0,0,1-1.568-1.09c-0.168,2.6-.5,3.44-1.148,3.44-0.7,0-1.989-1.34-3-3.5a31.568,31.568,0,0,0,3.193-5.68,4.426,4.426,0,0,1,.7-1.38,1.127,1.127,0,0,0,.392-0.58,0.583,0.583,0,0,0-.42-0.45,16.174,16.174,0,0,0-2.605-1.01,14.121,14.121,0,0,1-.756,2.58,22.639,22.639,0,0,1-1.68,3.27,35.5,35.5,0,0,1-1.149-7.92h4.117Zm-2.128-6.03a0.444,0.444,0,0,0-.224.26,0.394,0.394,0,0,0,.168.25,10.805,10.805,0,0,1,2.268,2.46,0.341,0.341,0,0,0,.224.2,0.848,0.848,0,0,0,.365-0.2l1.344-1c0.308-.2.308-0.31,0.14-0.54a12.81,12.81,0,0,0-2.409-2.35c-0.224-.17-0.308-0.17-0.588.03Zm24.415,0.06c-0.308.14-.364,0.17-0.252,0.48a29.635,29.635,0,0,0,6.021,8.88c-0.28.02-1.2,0.05-3.641,0.05H533.03c-2.156,0-3.136-.03-3.529-0.05a25.3,25.3,0,0,0,5.126-7.43,2.193,2.193,0,0,1,.644-0.89,0.59,0.59,0,0,0,.224-0.42,0.5,0.5,0,0,0-.392-0.48,18.989,18.989,0,0,0-2.913-.98,7.9,7.9,0,0,1-.56,1.79,21.906,21.906,0,0,1-8.094,9.25,6.117,6.117,0,0,1,1.568,1.7,1.009,1.009,0,0,0,.589.62,1.519,1.519,0,0,0,.616-0.36,30.917,30.917,0,0,0,2.716-2.33v2.05c0,0.28.028,0.3,0.308,0.3,0.168,0,1.065-.05,3.7-0.05h0.336c-0.532,4.93-3,7.9-8.094,9.74a5.391,5.391,0,0,1,1.429,1.68,0.944,0.944,0,0,0,.588.68,1.88,1.88,0,0,0,.672-0.23,13.534,13.534,0,0,0,8.514-11.87h4.986a46.122,46.122,0,0,1-.533,6.94c-0.224,1.29-.7,1.74-1.876,1.74a21.634,21.634,0,0,1-3.193-.25,5.757,5.757,0,0,1,.868,2.24c0.2,0.92.168,0.92,1.037,0.98,0.672,0.05,1.2.05,1.9,0.05,2.745,0,3.809-1.23,4.173-3.44a55.918,55.918,0,0,0,.7-7.84c0.028-.98.028-1.96,0.084-2.77a23.4,23.4,0,0,0,2.661,2.26,1.275,1.275,0,0,0,.588.37,0.985,0.985,0,0,0,.532-0.62,9.684,9.684,0,0,1,1.625-2.1,22.422,22.422,0,0,1-9.075-10.33c-0.112-.28-0.168-0.31-0.532-0.14Zm-342.709,71.1c0,2.33.588,3.39,1.764,3.87,1.232,0.58,3.557.78,8.514,0.78,5.742,0,8.4-.28,9.5-1.06,1.12-.73,1.652-1.88,1.848-4.09,0.084-.84.112-0.9-0.784-1.09a8.292,8.292,0,0,1-2.185-.82c-0.112,2.02-.14,2.92-0.952,3.53-0.812.59-2.6,0.79-7.562,0.79a31.328,31.328,0,0,1-6.077-.31c-0.925-.25-1.149-0.79-1.149-2.16v-3.3h11.9c2.745,0,3.725.05,3.893,0.05,0.28,0,.308-0.03.308-0.31,0-.16-0.056-0.84-0.056-2.46v-3.36c0-1.6.056-2.24,0.056-2.41,0-.28-0.028-0.31-0.308-0.31-0.168,0-1.148.06-3.893,0.06h-3.3c0.728-.76,1.344-1.49,2.128-2.44a3.671,3.671,0,0,1,.868-0.87,0.58,0.58,0,0,0,.448-0.5,1.523,1.523,0,0,0-.784-0.98,2.38,2.38,0,0,0-1.12-.7,1.232,1.232,0,0,0-.392.08,1.3,1.3,0,0,1-.672.09h-5.378l0.084-.12a2.9,2.9,0,0,1,.7-0.92,0.581,0.581,0,0,0,.308-0.45,0.5,0.5,0,0,0-.392-0.45c-0.785-.19-1.681-0.39-2.717-0.56a9.945,9.945,0,0,1-.9,1.85,21.458,21.458,0,0,1-7.45,6.75,4.963,4.963,0,0,1,1.064,1.71,0.82,0.82,0,0,0,.448.67,1.745,1.745,0,0,0,.616-0.33c0.56-.37,1.121-0.73,1.625-1.12v10.89Zm16.02-6.38h-5.266v-3.73h5.266v3.73Zm-13.108,0v-3.73h4.986v3.73h-4.986Zm-0.784-6.22a21.613,21.613,0,0,0,2.857-3h5.6a28.445,28.445,0,0,1-2.436,3h-6.022Zm32.762-6.39a15,15,0,0,1-.812,3.84c-1.457,4.7-2.913,8.85-4.9,13.86-1.12.03-2.3,0.06-3.416-.02a26.47,26.47,0,0,0,.98,3.61,0.521,0.521,0,0,0,.812.28,9.207,9.207,0,0,1,3.277-.67c4.565-.48,8.822-0.96,13.3-1.63,0.336,0.73.644,1.46,0.98,2.24a0.466,0.466,0,0,0,.393.39,0.692,0.692,0,0,0,.336-0.08,14.291,14.291,0,0,0,2.128-1.15,0.582,0.582,0,0,0,.364-0.47,0.677,0.677,0,0,0-.112-0.37,39.4,39.4,0,0,0-5.657-9.16,0.468,0.468,0,0,0-.672-0.16c-0.785.42-1.6,0.89-2.437,1.34a27.918,27.918,0,0,1,3.109,4.48c-3.137.48-5.49,0.7-9.8,1.07,1.765-4.21,3.249-8.32,4.818-12.61a8.94,8.94,0,0,1,1.148-2.32,0.956,0.956,0,0,0,.28-0.56,0.625,0.625,0,0,0-.336-0.45A15.433,15.433,0,0,0,230.617,2578.15Zm30.437,3.7c1.709,0,3.025.06,3.949,0.06,0.42,0.02.5-.09,0.5-0.56a14.3,14.3,0,0,0,0-2.19c0-.31-0.084-0.45-0.336-0.45-1.092.06-2.577,0.14-4.4,0.14h-5.041a40.446,40.446,0,0,1-4.593-.19,24.443,24.443,0,0,0,.14,2.69c0.028,0.44.112,0.61,0.392,0.61,1.176-.08,2.576-0.11,3.837-0.11h5.545Zm2.129,5.99c-2.017,5.41-6.582,9.27-11.763,11.68a8.376,8.376,0,0,1,2.6,1.46,0.919,0.919,0,0,0,.616.33,1.351,1.351,0,0,0,.561-0.19c5.405-2.91,8.626-6.42,11.426-12.38a3.3,3.3,0,0,1,.953-1.32,0.659,0.659,0,0,0,.308-0.53,0.829,0.829,0,0,0-.28-0.59,16.715,16.715,0,0,0-1.877-1.73,0.682,0.682,0,0,0-.42-0.2,0.619,0.619,0,0,0-.364.17,3.106,3.106,0,0,1-1.484.31h-9.607a48.953,48.953,0,0,1-5.153-.23,21.3,21.3,0,0,0,.308,2.83c0.056,0.37.168,0.53,0.42,0.53,1.4-.08,2.8-0.11,4.2-0.11Zm19.234,10.37c0,2.49-.056,3.61-0.056,3.8,0,0.26.028,0.28,0.308,0.28h2.156c0.28,0,.308-0.02.308-0.28,0-.16-0.056-1.31-0.056-3.69v-2.41h3.053v2.04c0,2.47-.056,3.64-0.056,3.84,0,0.25.028,0.28,0.308,0.28h2.129c0.28,0,.308-0.03.308-0.28,0-.17-0.056-1.37-0.056-3.84v-2.04h3.361v2.72a0.639,0.639,0,0,1-.757.78c-0.448,0-1.064-.03-1.736-0.08a4.546,4.546,0,0,1,.728,2.1c0.112,0.67.112,0.67,0.98,0.64,1.569,0,2.437-.11,2.885-0.53a2.5,2.5,0,0,0,.672-2.1c0-.87-0.084-2.72-0.084-4.37v-6.3c0-2.58.056-3.87,0.056-4.04,0-.28-0.028-0.3-0.308-0.3-0.2,0-1.092.05-3.641,0.05h-2.1v-2.18h3c2.688,0,3.612.05,3.753,0.05,0.308,0,.336-0.02.336-0.3v-1.99c0-.25-0.028-0.28-0.336-0.28-0.113,0-.813.05-2.605,0.05l1.148-.64c0.28-.17.308-0.25,0.112-0.51a18.158,18.158,0,0,0-1.708-1.84,0.455,0.455,0,0,0-.308-0.17,0.834,0.834,0,0,0-.336.14l-1.261.67c-0.308.17-.336,0.25-0.14,0.45a10.37,10.37,0,0,1,1.6,1.9h-3.249a6.292,6.292,0,0,1,.168-2.01,1.655,1.655,0,0,0,.168-0.56,0.4,0.4,0,0,0-.448-0.31c-0.98-.11-1.793-0.17-2.857-0.2a22.924,22.924,0,0,1,.224,3.08h-2.436c-2.689,0-3.613-.05-3.781-0.05-0.281,0-.309.03-0.309,0.28v1.99c0,0.28.028,0.3,0.309,0.3,0.168,0,1.092-.05,3.781-0.05h2.436v2.18H286.31c-2.577,0-3.473-.05-3.641-0.05-0.28,0-.308.02-0.308,0.3,0,0.17.028,1.18,0.056,3.25l-0.168-.16a11.655,11.655,0,0,0-1.793-1.1,8.378,8.378,0,0,1-.448,1.1,16.115,16.115,0,0,1-.98,1.59c-0.2-.22-0.364-0.45-0.532-0.67v-0.39a39.463,39.463,0,0,0,2.184-4.15,1.681,1.681,0,0,1,.644-0.98,0.56,0.56,0,0,0,.336-0.56,1.567,1.567,0,0,0-.7-1.03,1.68,1.68,0,0,0-.952-0.73,0.706,0.706,0,0,0-.308.08,0.74,0.74,0,0,1-.5.14h-0.7v-1.23a5.054,5.054,0,0,1,.224-1.99,1.426,1.426,0,0,0,.168-0.59c0-.17-0.168-0.25-0.448-0.31-0.981-.11-1.849-0.16-2.913-0.19a16.886,16.886,0,0,1,.224,3.22v1.09c-1.82,0-2.409-.05-2.577-0.05-0.308,0-.336.02-0.336,0.3v2.08c0,0.28.028,0.3,0.336,0.3,0.168,0,.757-0.05,2.605-0.05h2.241a21.29,21.29,0,0,1-5.966,8.18,7.57,7.57,0,0,1,.812,2.15c0.084,0.34.168,0.48,0.308,0.48a0.877,0.877,0,0,0,.532-0.34,27.891,27.891,0,0,0,2.045-2.1v6.84c0,2.1-.056,3.08-0.056,3.24,0,0.28.028,0.31,0.308,0.31h2.213c0.308,0,.336-0.03.336-0.31,0-.14-0.056-1.14-0.056-3.24v-6.84a10.708,10.708,0,0,0,1.68,1.88,1.392,1.392,0,0,0,.56.45,0.991,0.991,0,0,0,.5-0.62,6,6,0,0,1,1.149-1.4,18.73,18.73,0,0,1-1.961-1.54,20.377,20.377,0,0,0,1.176-1.68,1.853,1.853,0,0,1,.673-0.67,0.326,0.326,0,0,0,.14-0.11v9.83Zm8.346-4.57v-2.3h3.361v2.3h-3.361Zm3.361-6.81v2.25h-3.361v-2.25h3.361Zm-9.047,6.81v-2.3h3.053v2.3h-3.053Zm0-4.56v-2.25h3.053v2.25h-3.053Zm28.252-8.01v16.88h-4.341v-8.17a10.638,10.638,0,0,1,.2-3.06,1.2,1.2,0,0,0,.2-0.61,0.431,0.431,0,0,0-.476-0.34c-0.98-.11-2.156-0.17-3.221-0.2a26.381,26.381,0,0,1,.224,4.26v8.12h-0.42c-2.464,0-3.305-.05-3.473-0.05-0.252,0-.28.03-0.28,0.31v2.32c0,0.28.028,0.31,0.28,0.31,0.168,0,1.009-.06,3.473-0.06h17.5c2.492,0,3.333.06,3.5,0.06,0.252,0,.28-0.03.28-0.31v-2.32c0-.28-0.028-0.31-0.28-0.31-0.168,0-1.009.05-3.5,0.05h-6.554v-7.5h3.893c2.409,0,3.249.05,3.417,0.05,0.252,0,.28-0.02.28-0.3v-2.27c0-.28-0.028-0.31-0.28-0.31-0.168,0-1.008.06-3.417,0.06h-3.893v-6.61h5.433c2.605,0,3.529.05,3.7,0.05,0.28,0,.308-0.03.308-0.31v-2.29c0-.28-0.028-0.31-0.308-0.31-0.168,0-1.092.05-3.7,0.05H306.664c-2.6,0-3.529-.05-3.7-0.05-0.28,0-.308.03-0.308,0.31v2.29c0,0.28.028,0.31,0.308,0.31,0.168,0,1.092-.05,3.7-0.05h6.665Zm38,2.94c2.632,0,3.556.05,3.724,0.05,0.281,0,.309-0.03.309-0.31v-2.12c0-.31-0.028-0.34-0.309-0.34-0.168,0-1.092.06-3.724,0.06h-4.2v-0.68a10.1,10.1,0,0,1,.141-2.8,1.347,1.347,0,0,0,.14-0.53,0.387,0.387,0,0,0-.421-0.34c-1.008-.11-1.96-0.14-3.024-0.19a26.594,26.594,0,0,1,.224,3.95v0.59h-7.45c-2.661,0-3.585-.06-3.753-0.06-0.308,0-.336.03-0.336,0.34,0,0.16.056,1.82,0.056,5.63a45.559,45.559,0,0,1-.392,6.77,14.924,14.924,0,0,1-2.185,6.19,8.832,8.832,0,0,1,1.737,1.57,0.955,0.955,0,0,0,.56.45,0.808,0.808,0,0,0,.476-0.53,20.962,20.962,0,0,0,2.184-6.56,36.346,36.346,0,0,0,.5-4.9h3.921a22.937,22.937,0,0,1-.421,4.51,1.189,1.189,0,0,1-1.344,1.01,13.528,13.528,0,0,1-2.3-.22,5.818,5.818,0,0,1,.672,2.01c0.14,0.87.168,0.87,0.812,0.93a13.629,13.629,0,0,0,1.428.05,3.2,3.2,0,0,0,3.249-2.32,22.124,22.124,0,0,0,.644-5.21c0.056-.84.084-2.02,0.14-3.08,0-.31-0.056-0.37-0.336-0.37-0.168,0-.672.06-2.38,0.06h-4.033v-3.61h8.626a33.925,33.925,0,0,0,2.044,10.72,22.185,22.185,0,0,1-6.5,5.27,6.582,6.582,0,0,1,1.428,1.48,0.993,0.993,0,0,0,.588.59,1.727,1.727,0,0,0,.672-0.31,22.122,22.122,0,0,0,5.07-4.17c1.4,2.6,3.248,4.4,5.181,4.4,1.708,0,2.717-1.38,3.165-4.37,0.14-.87.14-0.87-0.672-1.29a5.591,5.591,0,0,1-1.569-1.09c-0.168,2.6-.5,3.44-1.148,3.44-0.7,0-1.989-1.34-3-3.5a31.568,31.568,0,0,0,3.193-5.68,4.426,4.426,0,0,1,.7-1.38,1.127,1.127,0,0,0,.392-0.58,0.583,0.583,0,0,0-.42-0.45,16.174,16.174,0,0,0-2.6-1.01,14.121,14.121,0,0,1-.756,2.58,22.639,22.639,0,0,1-1.68,3.27,35.561,35.561,0,0,1-1.148-7.92h4.117Zm-2.129-6.03a0.444,0.444,0,0,0-.224.26,0.394,0.394,0,0,0,.168.25,10.831,10.831,0,0,1,2.269,2.46,0.341,0.341,0,0,0,.224.2,0.852,0.852,0,0,0,.364-0.2l1.344-1c0.308-.2.308-0.31,0.14-0.54a12.81,12.81,0,0,0-2.409-2.35c-0.224-.17-0.308-0.17-0.588.03Zm24.415,0.06c-0.308.14-.364,0.17-0.252,0.48a29.635,29.635,0,0,0,6.021,8.88c-0.28.02-1.2,0.05-3.641,0.05h-7.533c-2.157,0-3.137-.03-3.529-0.05a25.3,25.3,0,0,0,5.125-7.43,2.193,2.193,0,0,1,.644-0.89,0.59,0.59,0,0,0,.224-0.42,0.5,0.5,0,0,0-.392-0.48,18.952,18.952,0,0,0-2.913-.98,7.9,7.9,0,0,1-.56,1.79,21.906,21.906,0,0,1-8.094,9.25,6.134,6.134,0,0,1,1.569,1.7,1.011,1.011,0,0,0,.588.62,1.519,1.519,0,0,0,.616-0.36,30.917,30.917,0,0,0,2.716-2.33v2.05c0,0.28.029,0.3,0.309,0.3,0.168,0,1.064-.05,3.7-0.05h0.336c-0.533,4.93-3,7.9-8.094,9.74a5.4,5.4,0,0,1,1.428,1.68,0.944,0.944,0,0,0,.588.68,1.88,1.88,0,0,0,.672-0.23,13.532,13.532,0,0,0,8.514-11.87h4.986a46.15,46.15,0,0,1-.532,6.94c-0.225,1.29-.7,1.74-1.877,1.74a21.644,21.644,0,0,1-3.193-.25,5.757,5.757,0,0,1,.868,2.24c0.2,0.92.168,0.92,1.037,0.98,0.672,0.05,1.2.05,1.9,0.05,2.745,0,3.809-1.23,4.173-3.44a55.918,55.918,0,0,0,.7-7.84c0.028-.98.028-1.96,0.084-2.77a23.4,23.4,0,0,0,2.661,2.26,1.275,1.275,0,0,0,.588.37,0.985,0.985,0,0,0,.532-0.62,9.715,9.715,0,0,1,1.625-2.1,22.414,22.414,0,0,1-9.074-10.33c-0.113-.28-0.169-0.31-0.533-0.14Zm34.269,2.1v2.69c-1.961,0-2.717-.06-2.857-0.06-0.28,0-.308.03-0.308,0.28,0,0.17.056,1.49,0.056,6.05v4.76c0,6.59-.056,7.85-0.056,8.04,0,0.28.028,0.31,0.308,0.31h1.765c0.252,0,.28-0.03.28-0.31v-1.43h6.665v0.93c0,0.28.028,0.31,0.337,0.31h1.708c0.28,0,.308-0.03.308-0.31,0-.17-0.056-1.43-0.056-7.84v-5.21c0-3.84.056-5.13,0.056-5.3,0-.25-0.028-0.28-0.308-0.28-0.2,0-.9.06-2.857,0.06v-2.69h0.224c2.409,0,3.249.06,3.417,0.06,0.28,0,.308-0.03.308-0.31v-1.99c0-.28-0.028-0.31-0.308-0.31-0.168,0-1.008.06-3.417,0.06h-5.6c-2.437,0-3.249-.06-3.417-0.06-0.252,0-.28.03-0.28,0.31v1.99c0,0.28.028,0.31,0.28,0.31,0.168,0,.98-0.06,3.417-0.06h0.336Zm3.025,4.9v4.43a1.8,1.8,0,0,0,.42,1.59,1.883,1.883,0,0,0,1.372.31h1.036v2.35h-6.665v-2.63a3.468,3.468,0,0,1,.9,1.23,0.475,0.475,0,0,0,.336.37,0.4,0.4,0,0,0,.28-0.25,12.486,12.486,0,0,0,1.176-4.26c0.084-.92.112-2.1,0.112-3.14h1.037Zm-3.837,13.03v-2.02h6.665v2.02h-6.665Zm0-13.03h1.064c0,0.84,0,1.74-.056,2.41a6.4,6.4,0,0,1-1.008,3.33v-5.74Zm6.665,0v4.06h-0.42a0.5,0.5,0,0,1-.532-0.19,2.053,2.053,0,0,1-.084-0.95v-2.92h1.036Zm-3.865-2.21v-2.69h1.037v2.69h-1.037Zm8.067-2.66c0,0.25.028,0.28,0.308,0.28,0.168,0,.84-0.06,2.912-0.06h3.977v6.19h-4.257c-1.68,0-2.492-.05-2.66-0.05-0.308,0-.336.02-0.336,0.33,0,0.17.056,1.18,0.056,3.2v8.71a2.66,2.66,0,0,0,.7,2.24c0.588,0.53,1.708.72,4.369,0.72,2.632,0,3.977-.36,4.7-1,0.672-.62,1.2-1.49,1.372-4.04,0.056-.86.056-0.86-0.812-1.12a6.42,6.42,0,0,1-1.9-.78c-0.112,2.27-.224,3.19-0.644,3.67-0.421.45-1.261,0.56-2.6,0.56-1.26,0-1.821-.09-2.1-0.37a1.785,1.785,0,0,1-.252-1.26v-8.12h4.369v0.95c0,0.28.028,0.31,0.308,0.31h2.241c0.308,0,.336-0.03.336-0.31,0-.16-0.056-1-0.056-2.99v-6.3c0-1.99.056-2.83,0.056-3,0-.28-0.028-0.31-0.336-0.31-0.168,0-.868.06-2.941,0.06h-3.585c-2.072,0-2.744-.06-2.912-0.06-0.28,0-.308.03-0.308,0.31v2.24Zm21.306,22.1c0.308,0,.336-0.03.336-0.31v-1.07h11.231v0.93c0,0.28.028,0.31,0.308,0.31h2.38c0.308,0,.336-0.03.336-0.31,0-.14-0.056-0.9-0.056-4.93v-2.75c0-1.98.056-2.8,0.056-2.96,0-.28-0.028-0.31-0.336-0.31-0.168,0-1.148.05-3.837,0.05H440.7c-2.689,0-3.669-.05-3.837-0.05-0.28,0-.308.03-0.308,0.31,0,0.16.056,0.98,0.056,3.38v2.41c0,4.06-.056,4.82-0.056,4.99,0,0.28.028,0.31,0.308,0.31h2.381Zm0.336-8.8h11.231v4.88H439.58v-4.88Zm-0.056-5.51c0,0.28.028,0.3,0.308,0.3,0.2,0,.924-0.05,3.165-0.05h4.341c2.24,0,3,.05,3.164.05,0.281,0,.309-0.02.309-0.3v-1.97a29.774,29.774,0,0,0,5.461,3.14,1.634,1.634,0,0,0,.672.25c0.224,0,.336-0.19.5-0.72a7.251,7.251,0,0,1,1.177-2.13,25.259,25.259,0,0,1-11.959-8.55,0.709,0.709,0,0,1,.224-0.19,0.477,0.477,0,0,0,.28-0.42c0-.25-0.168-0.34-0.5-0.45-0.813-.2-1.849-0.36-2.941-0.53a8.739,8.739,0,0,1-1.093,1.99,24.991,24.991,0,0,1-10.782,8.57,6.783,6.783,0,0,1,1.316,1.87c0.224,0.51.336,0.7,0.532,0.7a1.983,1.983,0,0,0,.644-0.28,34.372,34.372,0,0,0,5.182-3.3v2.02ZM443,2585.6c-1.905,0-2.689-.03-3.025-0.05a27.612,27.612,0,0,0,5.1-5.3,25,25,0,0,0,5.153,5.32c-0.392,0-1.232.03-2.884,0.03H443Z" transform="translate(-91 -2523.84)"/>
  <path id="_3" data-name="※3" class="cls-1" d="M353.987,2528.54l3.337,3.34,0.33-.33-3.348-3.33,3.348-3.33-0.33-.33-3.337,3.34-3.337-3.34-0.33.33,3.348,3.33-3.348,3.33,0.33,0.33Zm2.8-1.18a0.855,0.855,0,1,0,.865.86A0.86,0.86,0,0,0,356.789,2527.36Zm-5.6,0a0.855,0.855,0,1,0,.854.86A0.863,0.863,0,0,0,351.186,2527.36Zm2.8-2.8a0.855,0.855,0,1,0,.855.86A0.86,0.86,0,0,0,353.987,2524.56Zm0,5.6a0.86,0.86,0,1,0,.855.85A0.858,0.858,0,0,0,353.987,2530.16Zm8.191-2.16a1.63,1.63,0,0,0,.958-1.5c0-.89-0.618-1.66-2.019-1.66a3.6,3.6,0,0,0-1.72.42,0.225,0.225,0,0,0-.175.19,0.531,0.531,0,0,0,.051.18l0.062,0.12a0.2,0.2,0,0,0,.155.16,0.423,0.423,0,0,0,.175-0.08,2.629,2.629,0,0,1,1.411-.41,1.236,1.236,0,0,1,1.442,1.15c0,0.64-.464,1.34-1.865,1.34-0.185,0-.484-0.01-0.566-0.01-0.216,0-.258.03-0.258,0.25v0.07c0,0.21.042,0.24,0.258,0.24,0.113,0,.443-0.01.669-0.01,1.442,0,2.081.53,2.081,1.38,0,0.72-.6,1.56-2.07,1.56a3.152,3.152,0,0,1-1.463-.35,0.344,0.344,0,0,0-.165-0.08,0.236,0.236,0,0,0-.144.19l-0.051.13a0.423,0.423,0,0,0-.031.15,0.234,0.234,0,0,0,.185.2,3.867,3.867,0,0,0,1.607.31c1.957,0,2.76-1.07,2.76-2.13a1.586,1.586,0,0,0-1.277-1.61,0.166,0.166,0,0,1-.144-0.1A0.21,0.21,0,0,1,362.178,2528Z" transform="translate(-91 -2523.84)"/>
  <path id="_4" data-name="※4" class="cls-1" d="M554.987,2528.54l3.337,3.34,0.33-.33-3.348-3.33,3.348-3.33-0.33-.33-3.337,3.34-3.337-3.34-0.33.33,3.348,3.33-3.348,3.33,0.33,0.33Zm2.8-1.18a0.855,0.855,0,1,0,.865.86A0.86,0.86,0,0,0,557.789,2527.36Zm-5.6,0a0.855,0.855,0,1,0,.854.86A0.863,0.863,0,0,0,552.186,2527.36Zm2.8-2.8a0.855,0.855,0,1,0,.855.86A0.86,0.86,0,0,0,554.987,2524.56Zm0,5.6a0.86,0.86,0,1,0,.855.85A0.858,0.858,0,0,0,554.987,2530.16Zm9.313-.03c0.33,0,.938.01,1.01,0.01,0.175,0,.206-0.05.206-0.25v-0.06c0-.19-0.031-0.24-0.206-0.24-0.072,0-.68.01-1.01,0.01-0.195,0-.236-0.06-0.236-0.27,0-.81.02-1.68,0.02-1.87s-0.051-.21-0.247-0.21H563.7c-0.2,0-.247.03-0.247,0.21s0.02,1.06.02,1.87c0,0.21-.051.27-0.267,0.27h-2.2c-0.155,0-.227-0.02-0.227-0.1a0.494,0.494,0,0,1,.072-0.17l1.545-2.76c0.268-.48.546-0.96,0.824-1.45a0.347,0.347,0,0,0,.062-0.14c0-.05-0.062-0.07-0.186-0.07h-0.236a0.321,0.321,0,0,0-.371.22c-0.206.42-.433,0.83-0.67,1.25l-1.071,1.92c-0.206.37-.412,0.75-0.639,1.13a0.64,0.64,0,0,0-.133.42v0.1c0,0.14.051,0.19,0.216,0.19s0.865-.01,1.329-0.01H563.2c0.227,0,.278.05,0.278,0.28,0,0.5-.02,1.1-0.02,1.26,0,0.18.051,0.21,0.247,0.21h0.134c0.2,0,.247-0.03.247-0.21,0-.16-0.02-0.76-0.02-1.26C564.064,2530.18,564.105,2530.13,564.3,2530.13Z" transform="translate(-91 -2523.84)"/>
  <path id="_5" data-name="※5" class="cls-1" d="M388.987,2580.54l3.337,3.34,0.33-.33-3.348-3.33,3.348-3.33-0.33-.33-3.337,3.34-3.337-3.34-0.33.33,3.348,3.33-3.348,3.33,0.33,0.33Zm2.8-1.18a0.855,0.855,0,1,0,.865.86A0.86,0.86,0,0,0,391.789,2579.36Zm-5.6,0a0.855,0.855,0,1,0,.854.86A0.863,0.863,0,0,0,386.186,2579.36Zm2.8-2.8a0.855,0.855,0,1,0,.855.86A0.86,0.86,0,0,0,388.987,2576.56Zm0,5.6a0.86,0.86,0,1,0,.855.85A0.858,0.858,0,0,0,388.987,2582.16Zm6.3-2.48a0.651,0.651,0,0,1-.165.03c-0.083,0-.1-0.05-0.1-0.17l0.144-1.74c0.021-.27.072-0.31,0.34-0.31h1.174c0.216,0,.69,0,0.917.01,0.319,0.01.484,0.02,0.525,0.02,0.175,0,.206-0.05.206-0.24v-0.12c0-.19-0.031-0.24-0.206-0.24-0.072,0-.917.01-1.442,0.01h-0.494c-0.474,0-1.185-.01-1.3-0.01a0.232,0.232,0,0,0-.268.27c-0.01.3-.031,0.57-0.051,0.88l-0.1,1.15c-0.031.31-.062,0.63-0.1,0.94a0.342,0.342,0,0,0-.011.08,0.127,0.127,0,0,0,.114.14l0.082,0.03a0.231,0.231,0,0,0,.1.02,0.492,0.492,0,0,0,.165-0.05,3.269,3.269,0,0,1,1.318-.25,1.537,1.537,0,0,1,1.8,1.5,1.789,1.789,0,0,1-2.05,1.76,2.908,2.908,0,0,1-1.421-.36,0.372,0.372,0,0,0-.175-0.08c-0.062,0-.093.06-0.145,0.19l-0.051.12a0.435,0.435,0,0,0-.041.17,0.216,0.216,0,0,0,.175.18,3.789,3.789,0,0,0,1.6.33c2,0,2.719-1.27,2.719-2.36a2.008,2.008,0,0,0-2.235-2.01A4.215,4.215,0,0,0,395.283,2579.68Z" transform="translate(-91 -2523.84)"/>
  <path id="シェイプ_984" data-name="シェイプ 984" class="cls-2" d="M94.253,2558.77H547.78" transform="translate(-91 -2523.84)"/>
  <path id="シェイプ_984-2" data-name="シェイプ 984" class="cls-2" d="M192.077,2608.77H458.955" transform="translate(-91 -2523.84)"/>
</svg>
