<svg id="lead-block-04_sp.svg" xmlns="http://www.w3.org/2000/svg" width="360.5" height="88.62" viewBox="0 0 360.5 88.62">
  <defs>
    <style>
      .cls-1 {
        fill: #1147b4;
      }

      .cls-1, .cls-2 {
        fill-rule: evenodd;
      }

      .cls-2 {
        fill: none;
        stroke: #1147b4;
        stroke-linecap: round;
        stroke-width: 3px;
        stroke-dasharray: 0.001 6;
      }
    </style>
  </defs>
  <path id="汗_水_こすれに強い_スーパーウォータープルーフ" data-name="汗・水・こすれに強い スーパーウォータープルーフ" class="cls-1" d="M208.091,4189.2v6.75c0,3.13-.056,4.7-0.056,4.9,0,0.25.028,0.28,0.308,0.28h2.521c0.28,0,.308-0.03.308-0.28,0-.17-0.056-1.77-0.056-4.9v-6.75h3.473c2.745,0,3.7.05,3.865,0.05,0.252,0,.28-0.03.28-0.33v-2.33c0-.28-0.028-0.31-0.28-0.31-0.168,0-1.12.06-3.865,0.06h-3.473v-5.99h2.521c2.6,0,3.529.05,3.7,0.05,0.28,0,.308-0.03.308-0.33v-2.25c0-.28-0.028-0.3-0.308-0.3-0.168,0-1.093.05-3.7,0.05H206.1c-2.633,0-3.557-.05-3.725-0.05-0.28,0-.308.02-0.308,0.3v2.25c0,0.3.028,0.33,0.308,0.33,0.168,0,1.092-.05,3.725-0.05h1.988v5.99h-2.968c-2.745,0-3.669-.06-3.837-0.06-0.28,0-.308.03-0.308,0.31v2.33c0,0.3.028,0.33,0.308,0.33,0.168,0,1.092-.05,3.837-0.05h2.968Zm-14.535,9.99a16,16,0,0,0,2.156,1.6,0.9,0.9,0,0,0,.532.2,0.39,0.39,0,0,0,.336-0.37,4.962,4.962,0,0,1,.5-1.06,62.293,62.293,0,0,0,3-6.14,1.71,1.71,0,0,0,.168-0.58,1.17,1.17,0,0,0-.588-0.79,18.206,18.206,0,0,1-1.512-1.43,43.676,43.676,0,0,1-3.137,6.56A11.4,11.4,0,0,1,193.556,4199.19Zm1.12-21.37a0.636,0.636,0,0,0-.2.34,0.315,0.315,0,0,0,.2.2,21.2,21.2,0,0,1,4.313,3.19c0.2,0.17.252,0.2,0.476-.08l1.289-1.77a0.733,0.733,0,0,0,.168-0.33,0.366,0.366,0,0,0-.168-0.23,31.56,31.56,0,0,0-4.258-2.97c-0.224-.11-0.308-0.11-0.532.14Zm-0.98,7.03a0.637,0.637,0,0,0-.168.34,0.315,0.315,0,0,0,.2.2,24.812,24.812,0,0,1,4.285,3.16,0.491,0.491,0,0,0,.252.17,0.294,0.294,0,0,0,.224-0.2l1.26-1.79a0.733,0.733,0,0,0,.168-0.33,0.422,0.422,0,0,0-.168-0.23,25.906,25.906,0,0,0-4.313-2.97c-0.252-.14-0.336-0.14-0.56.14Zm34.667,0.87a2.8,2.8,0,1,0,2.8,2.8A2.808,2.808,0,0,0,228.363,4185.72Zm23.968-6.63a7.286,7.286,0,0,1,.168-1.97,2.667,2.667,0,0,0,.2-0.72,0.466,0.466,0,0,0-.476-0.31c-0.924-.11-2.072-0.14-3.081-0.17a16.882,16.882,0,0,1,.2,3.19v18.07c0,0.64-.421.87-1.4,0.89a23.015,23.015,0,0,1-2.773-.08,6.227,6.227,0,0,1,.925,2.16c0.224,0.86.252,0.84,1.092,0.84,2.213-.03,3.445-0.17,4.117-0.65a2.707,2.707,0,0,0,1.12-2.57c0-2.66-.2-7.31-0.224-11.4a24.062,24.062,0,0,0,8.878,11.4,1.588,1.588,0,0,0,.673.33,0.874,0.874,0,0,0,.5-0.59,7.485,7.485,0,0,1,1.568-2.04,21.712,21.712,0,0,1-7.842-6.95,38.757,38.757,0,0,0,4.285-3.95,6.505,6.505,0,0,1,1.485-1.26,0.558,0.558,0,0,0,.392-0.47,0.7,0.7,0,0,0-.392-0.56,19.827,19.827,0,0,0-2.381-1.63,6.5,6.5,0,0,1-.952,1.49,28.278,28.278,0,0,1-3.893,4.06,22.429,22.429,0,0,1-2.185-5.83v-1.28Zm-10.362,4.06c-2.073,0-2.745-.06-2.913-0.06-0.28,0-.308.03-0.308,0.31v2.21c0,0.28.028,0.31,0.308,0.31,0.168,0,.84-0.06,2.913-0.06h3.136a19.457,19.457,0,0,1-7.365,10.03,5.641,5.641,0,0,1,1.568,1.68,0.918,0.918,0,0,0,.56.56,1.369,1.369,0,0,0,.616-0.39,24.2,24.2,0,0,0,7.478-11.18,2.237,2.237,0,0,1,.56-1.01,0.71,0.71,0,0,0,.28-0.56c0-.3-0.14-0.5-0.9-1.26a1.975,1.975,0,0,0-1.176-.84,1.244,1.244,0,0,0-.336.14,1.3,1.3,0,0,1-.672.12h-3.753Zm31.194,2.57a2.8,2.8,0,1,0,2.8,2.8A2.808,2.808,0,0,0,273.163,4185.72Zm12.654,3.73a7.368,7.368,0,0,0-1.484,4c0,3.64,3.221,5.66,9.494,5.66a42.714,42.714,0,0,0,8.346-.67c0.336-.06.5-0.17,0.476-0.42a23.805,23.805,0,0,0-.448-2.75c-0.056-.25-0.2-0.33-0.588-0.25a35.255,35.255,0,0,1-7.59.81c-4.817,0-6.637-.86-6.637-2.63a4.631,4.631,0,0,1,.728-2.13,0.3,0.3,0,0,0-.14-0.5C287.246,4190.18,286.545,4189.81,285.817,4189.45Zm0.616-10.59c-0.056,1.01-.112,1.82-0.112,2.49a0.423,0.423,0,0,0,.364.51,34.868,34.868,0,0,0,4.9.47,20.21,20.21,0,0,0,2.3-.08c-0.98.59-2.212,1.37-3.669,2.32a6.967,6.967,0,0,1,1.961.9,1.2,1.2,0,0,0,.588.17,1.247,1.247,0,0,0,.7-0.25,16.387,16.387,0,0,1,6.862-2.78,0.471,0.471,0,0,0,.476-0.58,18.3,18.3,0,0,0-.14-2.38,0.32,0.32,0,0,0-.42-0.31c-1.793.11-3.893,0.25-5.938,0.25A34.983,34.983,0,0,1,286.433,4178.86Zm33.658,1.96c-3.36.2-6.973,0.42-8.682,0.56a17.941,17.941,0,0,1-3.417.11,19.436,19.436,0,0,0,.7,2.83,0.434,0.434,0,0,0,.476.39c0.252,0,.7-0.25,1.316-0.33,2.213-.31,6.162-0.65,9.69-0.84,0,0.92.028,1.87,0.028,2.86a3.38,3.38,0,0,0-2.128-.57,4.085,4.085,0,0,0-4.229,4.21c0,2.68,1.68,4.28,3.893,4.28a3.238,3.238,0,0,0,2.632-1.12c-0.5,2.35-2.464,4.71-5.741,6.16a6.4,6.4,0,0,1,2.129,1.12,1.543,1.543,0,0,0,.84.42,2.632,2.632,0,0,0,1.092-.53,10.463,10.463,0,0,0,4.985-9.05,8.746,8.746,0,0,0-.42-2.77c-0.028-1.71-.028-3.5-0.028-5.21,2.913-.03,5.63-0.03,8.542.06,0.336,0.03.476-.06,0.476-0.37,0.028-.7.028-1.42,0-2.12-0.028-.37-0.084-0.42-0.42-0.42-2.688,0-5.573.02-8.6,0.14,0.028-1.07.028-1.43,0.056-1.8a2.973,2.973,0,0,1,.224-0.81,1.181,1.181,0,0,0,.252-0.64,0.782,0.782,0,0,0-.784-0.54,29.937,29.937,0,0,0-3.277-.39,8.877,8.877,0,0,1,.336,2.05C320.063,4179.25,320.063,4179.95,320.091,4180.82Zm-1.792,7.2a1.675,1.675,0,0,1,1.848,1.79,1.8,1.8,0,0,1-1.9,1.93,1.735,1.735,0,0,1-1.793-1.9A1.784,1.784,0,0,1,318.3,4188.02Zm24.667-4.96c-1.429.45-3,.84-3.949,1.07a12.992,12.992,0,0,1-2.045.25,15.108,15.108,0,0,0,1.092,2.58,0.666,0.666,0,0,0,.561.44,2.451,2.451,0,0,0,.812-0.39,25.6,25.6,0,0,1,3.361-1.12c-0.028.67-.028,1.21-0.028,1.91-1.709,2.4-3.165,4.39-5.49,7.36a0.734,0.734,0,0,0-.252.48,0.453,0.453,0,0,0,.168.31,9.033,9.033,0,0,0,1.737,1.56,0.707,0.707,0,0,0,.336.14,0.4,0.4,0,0,0,.308-0.28c1.036-1.59,2.156-3.33,3.249-5.04-0.084,2.52-.084,5.46-0.084,8.01,0,0.34.112,0.48,0.392,0.48,0.728,0,1.82-.06,2.184-0.11a0.345,0.345,0,0,0,.392-0.4c0-3.05-.084-7.08-0.112-10.61,1.457-1.68,2.773-3,3.921-4.12,1.373-1.23,2.325-1.82,3.137-1.82,0.56,0,.868.62,0.868,1.85,0,1.21-.056,2.13-0.2,4.59-0.14,2.38-.224,3.95-0.224,4.71,0,2.91,1.176,4.28,3.585,4.28a6.746,6.746,0,0,0,5.377-3.22,0.793,0.793,0,0,0,.2-0.47,1.069,1.069,0,0,0-.309-0.65,6.848,6.848,0,0,1-1.036-2.1,7.389,7.389,0,0,1-1.68,2.36,3.686,3.686,0,0,1-2.073,1c-0.7,0-1.036-.19-1.036-1.59,0-.87.14-2.13,0.28-4.71,0.2-2.57.224-4.28,0.224-5.1,0-2.32-1.26-3.72-3.361-3.72-1.316,0-2.856.64-5.069,2.74-1.092,1.07-1.708,1.71-2.6,2.72v-0.14c0.448-.92.925-1.79,1.457-2.66a0.57,0.57,0,0,0,.14-0.31,0.482,0.482,0,0,0-.252-0.39,8.963,8.963,0,0,0-1.065-.62c0.056-1.28.084-1.87,0.14-2.8a3.393,3.393,0,0,1,.252-1.37,1.136,1.136,0,0,0,.2-0.53,0.577,0.577,0,0,0-.589-0.56,15.633,15.633,0,0,0-3.192-.53,10.234,10.234,0,0,1,.28,2.71v3.81Zm26.319-5.24a22.6,22.6,0,0,1-.5,4.18,53.392,53.392,0,0,0-.952,9.18,26.278,26.278,0,0,0,1.288,8.35,0.336,0.336,0,0,0,.364.31,14.1,14.1,0,0,0,2.3-.45,0.371,0.371,0,0,0,.364-0.36c0-.23-0.056-0.45-0.056-0.79a3.216,3.216,0,0,1,.084-0.87,27.869,27.869,0,0,1,1.6-4.23,0.763,0.763,0,0,0,.14-0.44,1.063,1.063,0,0,0-.2-0.42,7.381,7.381,0,0,1-.98-1.77c-0.812,1.96-1.316,2.89-1.9,4.18a27.211,27.211,0,0,1-.168-3.28,45.386,45.386,0,0,1,1.176-9.05,6.718,6.718,0,0,1,.672-1.99,1.56,1.56,0,0,0,.42-0.84,0.853,0.853,0,0,0-.644-0.67A12.377,12.377,0,0,0,369.285,4177.82Zm6.442,14.46a6.189,6.189,0,0,0,.98,3.64c1.2,1.65,3.137,2.32,7.282,2.32a36.477,36.477,0,0,0,4.565-.31c0.476-.05.476-0.08,0.476-0.42a20.6,20.6,0,0,0-.168-2.4c-0.056-.37-0.112-0.4-0.392-0.37a39.141,39.141,0,0,1-5.349.37c-3.053,0-4.4-.7-4.565-2.64,0-.31-0.056-0.45-0.28-0.42Zm0.9-7.96a34.725,34.725,0,0,1,6.358-.64c1.428,0,2.884.05,4.565,0.17a0.3,0.3,0,0,0,.364-0.34c0.056-.78.056-1.54,0.056-2.38,0-.28-0.056-0.34-0.644-0.36a40.51,40.51,0,0,0-4.145-.17,44.368,44.368,0,0,0-6.078.5,0.413,0.413,0,0,0-.392.48C376.651,4182.05,376.651,4182.75,376.623,4184.32Zm38.195,12.16-3.025.42v-3.11h1.9c2.521,0,3.417.05,3.585,0.05,0.28,0,.308-0.02.308-0.3,0-.17-0.056-0.79-0.056-2.24v-2.97c0-1.46.056-2.07,0.056-2.24,0-.28-0.028-0.31-0.308-0.31-0.168,0-1.064.05-3.585,0.05h-1.9v-2.6c1.372-.11,2.661-0.25,3.809-0.39,0.308,0.5.588,1.01,0.868,1.51a0.314,0.314,0,0,0,.252.25,0.77,0.77,0,0,0,.336-0.17l1.681-1c0.336-.23.308-0.31,0.168-0.56a40.246,40.246,0,0,0-4.453-5.38c-0.2-.2-0.28-0.2-0.561-0.03l-1.4.81c-0.308.17-.336,0.26-0.14,0.45a24.456,24.456,0,0,1,1.709,1.99c-1.737.14-3.809,0.31-5.882,0.39,0.616-1.06,1.26-2.29,1.708-3.22a2.232,2.232,0,0,1,.533-0.78,0.673,0.673,0,0,0,.28-0.51,0.512,0.512,0,0,0-.42-0.42,20.441,20.441,0,0,0-2.717-.5,7.542,7.542,0,0,1-.532,1.9,25.382,25.382,0,0,1-1.737,3.62c-0.7,0-1.484.02-2.212-.03,0.084,0.81.224,1.73,0.364,2.49a0.448,0.448,0,0,0,.392.45,0.8,0.8,0,0,0,.448-0.14,2.644,2.644,0,0,1,1.036-.23c1.205-.05,2.493-0.14,3.837-0.25v2.35h-1.624c-2.493,0-3.389-.05-3.585-0.05-0.28,0-.308.03-0.308,0.31,0,0.19.056,0.78,0.056,2.24v2.97c0,1.45-.056,2.04-0.056,2.24,0,0.28.028,0.3,0.308,0.3,0.2,0,1.092-.05,3.585-0.05h1.624v3.44c-1.288.17-2.52,0.28-3.529,0.34a27.506,27.506,0,0,1-3.248.06c0.168,0.92.336,1.87,0.588,2.74a0.5,0.5,0,0,0,.476.45,1.318,1.318,0,0,0,.5-0.14,4.312,4.312,0,0,1,1.176-.31c3.417-.42,7.31-0.98,10.923-1.65,0.308,0.64.56,1.29,0.812,1.93,0.112,0.28.224,0.31,0.56,0.2l1.6-.73c0.308-.14.336-0.23,0.252-0.48a25.762,25.762,0,0,0-3-5.26c-0.14-.25-0.2-0.31-0.5-0.17l-1.428.62c-0.336.14-.392,0.22-0.252,0.44Zm0.084-5.02h-3.109v-3.3H414.9v3.3Zm-8.6,0v-3.3h2.856v3.3H406.3Zm-9.243-2.77c0.14-1.01.28-2.1,0.392-3.28h2.465c1.288,0,1.764.06,1.932,0.06,0.309,0,.337-0.03.337-0.31,0-.17-0.056-0.92-0.056-2.52v-2.88c0-1.63.056-2.36,0.056-2.52,0-.31-0.028-0.34-0.337-0.34-0.168,0-.644.06-1.932,0.06h-3.081c-1.736,0-2.24-.06-2.408-0.06-0.309,0-.337.03-0.337,0.34v2.01c0,0.28.028,0.31,0.337,0.31,0.168,0,.672-0.05,2.408-0.05h2.689v3.52h-2.465c-1.036,0-1.68-.05-1.848-0.05a0.3,0.3,0,0,0-.364.36,11.838,11.838,0,0,1-.084,1.99,52.3,52.3,0,0,1-1.009,6.47c-0.084.39-.084,0.42,1.205,0.59,1.456,0.17,1.456.17,1.54-.17l0.2-1.04h2.689c-0.252,4.35-.7,6.17-1.092,6.67a1.567,1.567,0,0,1-1.261.42,15.566,15.566,0,0,1-2.464-.25,8.735,8.735,0,0,1,.644,2.07c0.168,0.87.168,0.87,0.756,0.92,0.5,0.03.98,0.03,1.344,0.03,2.073,0,3.053-.59,3.557-1.85,0.448-1.09.952-3.36,1.2-8.23,0.028-.62.057-1.4,0.113-1.96,0.028-.28-0.056-0.36-0.337-0.36-0.168,0-.5.05-1.792,0.05h-3Zm27.692-8.99a15.035,15.035,0,0,1,.336,3.67,50.749,50.749,0,0,0,.672,8.15c0.757,4.73,3.053,7.31,5.238,7.31,1.96,0,3.7-1.51,4.761-4.37a0.864,0.864,0,0,0-.2-1.04,10.623,10.623,0,0,1-1.793-2.15c-1.092,2.91-1.792,3.89-2.688,3.89-1.177,0-1.905-1.9-2.3-4.12a35.2,35.2,0,0,1-.5-6.38,12.634,12.634,0,0,1,.252-2.75,2.37,2.37,0,0,0,.224-0.78,0.646,0.646,0,0,0-.448-0.5A12.169,12.169,0,0,0,424.753,4179.7Zm14.34,3.98a18.885,18.885,0,0,1,5.237,9.77c0.056,0.34.252,0.42,0.588,0.31a9.277,9.277,0,0,0,2.185-1.12,0.492,0.492,0,0,0,.308-0.62,18.491,18.491,0,0,0-5.489-9.57,0.41,0.41,0,0,0-.309-0.17,0.758,0.758,0,0,0-.308.11C440.857,4182.61,440.157,4183.01,439.093,4183.68ZM154.175,4231.7c-1.82,0-3.221,0-4.733-.11a16.306,16.306,0,0,0,.252,2.91c0.056,0.31.14,0.51,0.364,0.48,1.512-.11,2.969-0.17,4.425-0.17l7.226-.03a34.4,34.4,0,0,1-5.265,7.03,33.991,33.991,0,0,1-9.859,7.14,7.877,7.877,0,0,1,2.353,1.82,0.63,0.63,0,0,0,.476.26,1.838,1.838,0,0,0,.644-0.23,40.417,40.417,0,0,0,9.41-7.39,51.223,51.223,0,0,1,7.282,6.94,0.586,0.586,0,0,0,.392.23,0.5,0.5,0,0,0,.336-0.17,15.325,15.325,0,0,0,1.877-1.9,0.7,0.7,0,0,0,.2-0.42,0.633,0.633,0,0,0-.224-0.4,65.415,65.415,0,0,0-7.758-6.77,44.528,44.528,0,0,0,3.585-5.24,4.857,4.857,0,0,1,1.036-1.23,0.794,0.794,0,0,0,.364-0.56,0.737,0.737,0,0,0-.14-0.37,10.327,10.327,0,0,0-1.82-1.96,0.932,0.932,0,0,0-.477-0.22,0.486,0.486,0,0,0-.308.11,4.172,4.172,0,0,1-1.932.25h-7.7Zm36.066,10.81c2.073,0,4.145.03,6.246,0.06,0.392,0.03.5-.09,0.5-0.42a20.607,20.607,0,0,0,0-2.63c0-.34-0.084-0.42-0.5-0.4-2.157.03-4.313,0.09-6.442,0.09h-9.018a35.931,35.931,0,0,1-6.05-.34,30.194,30.194,0,0,0,.421,3.39,0.617,0.617,0,0,0,.644.59,22.141,22.141,0,0,1,4.117-.34h10.082Zm11.448,4.18a7.563,7.563,0,0,1,2.464,1.2,0.925,0.925,0,0,0,.645.28,1.055,1.055,0,0,0,.784-0.42,30.937,30.937,0,0,0,5.993-9.41,5.384,5.384,0,0,1,.98-1.71,0.824,0.824,0,0,0,.281-0.56,0.48,0.48,0,0,0-.337-0.45,28.578,28.578,0,0,0-3.472-1.43,14.036,14.036,0,0,1-1.261,4.15A24.862,24.862,0,0,1,201.689,4246.69ZM216,4236.04a36.589,36.589,0,0,1,6.918,10.9c0.112,0.36.308,0.42,0.672,0.25a17.3,17.3,0,0,0,2.325-1.49,0.541,0.541,0,0,0,.28-0.44,0.725,0.725,0,0,0-.112-0.4,35.2,35.2,0,0,0-7.03-10.27,0.575,0.575,0,0,0-.42-0.23,0.685,0.685,0,0,0-.392.17C217.765,4234.84,217.009,4235.37,216,4236.04Zm8.655-6.41a3,3,0,1,0,3.024,3A2.991,2.991,0,0,0,224.655,4229.63Zm0,1.34a1.655,1.655,0,1,1-1.653,1.66A1.606,1.606,0,0,1,224.655,4230.97Zm22.483,11.54c2.072,0,4.145.03,6.245,0.06,0.392,0.03.5-.09,0.5-0.42a20.607,20.607,0,0,0,0-2.63c0-.34-0.084-0.42-0.5-0.4-2.156.03-4.313,0.09-6.442,0.09h-9.018a35.911,35.911,0,0,1-6.049-.34,30.246,30.246,0,0,0,.42,3.39,0.617,0.617,0,0,0,.644.59,22.141,22.141,0,0,1,4.117-.34h10.083Zm24.135-9.21v-1.35a5.749,5.749,0,0,1,.336-2.15c0.224-.45.056-0.76-0.5-0.87a30.857,30.857,0,0,0-3.473-.42,15.014,15.014,0,0,1,.28,3.72v1.1h-2.856c-1.4,0-2.941-.03-4.257-0.09a0.326,0.326,0,0,0-.393.37c0.056,0.81.056,1.82,0.056,2.71v2.27c0,1.12-.028,2.05-0.056,3.47,0,0.34.084,0.42,0.449,0.42a18.455,18.455,0,0,0,2.576,0c0.364,0,.448-0.08.448-0.53-0.028-1.12-.084-2.27-0.084-3.39v-2.35h12.183a23.126,23.126,0,0,1-3.248,7.81c-1.877,2.86-4.061,4.79-8.01,6.98a9.284,9.284,0,0,1,2.8,1.26,1.014,1.014,0,0,0,.588.28,0.839,0.839,0,0,0,.449-0.17,23.265,23.265,0,0,0,7.225-6.86,31.045,31.045,0,0,0,3.529-8.24,3.112,3.112,0,0,1,.616-1.37,0.938,0.938,0,0,0,.28-0.61,0.583,0.583,0,0,0-.2-0.42,13.435,13.435,0,0,0-1.876-1.74,0.891,0.891,0,0,0-.616-0.28,0.7,0.7,0,0,0-.392.14,3.863,3.863,0,0,1-2.1.31h-3.753Zm24.64,15.71a0.6,0.6,0,0,1-.56.67,20.167,20.167,0,0,1-3.361.23,4.645,4.645,0,0,1,1.793,2.12,0.722,0.722,0,0,0,.812.48,6.343,6.343,0,0,0,3.081-.84c0.784-.45,1.176-1.12,1.12-2.58l-0.364-7.81h1.848c1.653,0,3.109.06,4.173,0.06a0.389,0.389,0,0,0,.476-0.4c0.028-.64.028-1.31,0-1.96,0-.28-0.14-0.39-0.476-0.36-1.176,0-2.856.08-4.257,0.08h-1.96l-0.084-1.99a3.625,3.625,0,0,1,.14-1.62,0.449,0.449,0,0,0-.364-0.7,28.383,28.383,0,0,0-3.053-.25,14.641,14.641,0,0,1,.392,2.74l0.084,1.85h-4.761c-1.372,0-2.353,0-4.061-.11,0.056,0.98.112,1.71,0.2,2.32a0.4,0.4,0,0,0,.42.45c1.2-.03,2.353-0.11,3.529-0.11H293.9a22.182,22.182,0,0,1-3.053,3.08,26.219,26.219,0,0,1-5.209,3.53,4.521,4.521,0,0,1,2.016,1.37,0.612,0.612,0,0,0,.448.28,0.905,0.905,0,0,0,.476-0.17,33.744,33.744,0,0,0,4.285-3.1,22.114,22.114,0,0,0,2.8-3.09Zm28.954-6.5c2.072,0,4.145.03,6.245,0.06,0.392,0.03.5-.09,0.5-0.42a20.607,20.607,0,0,0,0-2.63c0-.34-0.084-0.42-0.5-0.4-2.156.03-4.313,0.09-6.441,0.09h-9.019a35.918,35.918,0,0,1-6.049-.34,30.246,30.246,0,0,0,.42,3.39,0.617,0.617,0,0,0,.644.59,22.141,22.141,0,0,1,4.117-.34h10.083Zm22.455-9.86c0.476-.72.644-1,0.868-1.4a2.286,2.286,0,0,1,.588-0.58,0.769,0.769,0,0,0,.337-0.57,0.488,0.488,0,0,0-.309-0.44,17.941,17.941,0,0,0-3.276-1.38,10.3,10.3,0,0,1-1.513,3.45,31.229,31.229,0,0,1-7.926,8.79,12.3,12.3,0,0,1,2.353,1.29,0.647,0.647,0,0,0,.448.2,1,1,0,0,0,.56-0.25,33.666,33.666,0,0,0,5.994-6.31l6.945-.14a27.09,27.09,0,0,1-3.276,5.55,28.84,28.84,0,0,0-3.613-2.24,0.661,0.661,0,0,0-.28-0.11,0.528,0.528,0,0,0-.365.19c-0.644.59-1.232,1.32-1.848,1.99a24.154,24.154,0,0,1,4.033,2.63,33.775,33.775,0,0,1-10.307,7.59,7.993,7.993,0,0,1,2.661,1.43,0.826,0.826,0,0,0,.532.25,1.519,1.519,0,0,0,.7-0.25,34.008,34.008,0,0,0,8.935-7,29.984,29.984,0,0,1,2.716,2.72,0.5,0.5,0,0,0,.308.17,0.61,0.61,0,0,0,.336-0.14,17.588,17.588,0,0,0,1.737-1.77,0.534,0.534,0,0,0,.168-0.36,0.585,0.585,0,0,0-.168-0.4,24.877,24.877,0,0,0-3.025-2.82,43.67,43.67,0,0,0,4.117-6.78,3.681,3.681,0,0,1,.84-1.07,0.7,0.7,0,0,0,.308-0.53,0.676,0.676,0,0,0-.224-0.5,8.918,8.918,0,0,0-1.9-1.71,0.952,0.952,0,0,0-.5-0.22,0.8,0.8,0,0,0-.476.19,2.709,2.709,0,0,1-1.541.42Zm30.717,9.86c2.073,0,4.145.03,6.246,0.06,0.392,0.03.5-.09,0.5-0.42a20.607,20.607,0,0,0,0-2.63c0-.34-0.084-0.42-0.5-0.4-2.157.03-4.313,0.09-6.442,0.09h-9.018a35.911,35.911,0,0,1-6.049-.34,30.246,30.246,0,0,0,.42,3.39,0.617,0.617,0,0,0,.644.59,22.141,22.141,0,0,1,4.117-.34h10.082Zm27.637-7.28a23.535,23.535,0,0,1-4.734,7.98,26.984,26.984,0,0,1-9.158,7,8.447,8.447,0,0,1,2.605,1.54,0.961,0.961,0,0,0,.7.31,1.337,1.337,0,0,0,.756-0.25,31.376,31.376,0,0,0,7.954-6.67,32.805,32.805,0,0,0,5.434-9.1,3.335,3.335,0,0,1,.644-1.09,0.767,0.767,0,0,0,.28-0.53,0.93,0.93,0,0,0-.224-0.56,10.141,10.141,0,0,0-1.9-1.93,0.66,0.66,0,0,0-.476-0.2,0.914,0.914,0,0,0-.476.17,2.711,2.711,0,0,1-1.54.28h-10a48.748,48.748,0,0,1-5.377-.2c0.056,0.81.168,2.27,0.252,2.83,0.056,0.39.168,0.59,0.532,0.56,1.2-.06,2.8-0.14,4.621-0.14h10.111Zm6.217-8.37a2.953,2.953,0,0,0-3.025,2.99A3.025,3.025,0,1,0,411.893,4226.86Zm0,1.34a1.655,1.655,0,1,1-1.652,1.65A1.6,1.6,0,0,1,411.893,4228.2Zm18.731,7.7c0-2.01,0-2.57.252-3.11a1.783,1.783,0,0,0,.224-0.7,0.506,0.506,0,0,0-.5-0.47,27.086,27.086,0,0,0-3.5-.59,22.377,22.377,0,0,1,.28,4.87v8.77a4.8,4.8,0,0,1-.168,2.13,0.865,0.865,0,0,0-.112.42,1.14,1.14,0,0,0,.252.59,8.05,8.05,0,0,0,1.68,1.7,1.211,1.211,0,0,0,.588.23,0.9,0.9,0,0,0,.561-0.23,9.731,9.731,0,0,1,.812-0.58,45.344,45.344,0,0,0,4.985-3.37,35.866,35.866,0,0,0,4.145-3.66,1.077,1.077,0,0,0,.42-0.7,1.439,1.439,0,0,0-.168-0.48,8.056,8.056,0,0,1-.868-2.83,26.905,26.905,0,0,1-4.9,4.76,28.584,28.584,0,0,1-3.977,2.61v-9.36Zm-9.775-3.11a7.561,7.561,0,0,1,.28,2.36c-0.028,4.48-.392,6.02-1.176,7.92a13.991,13.991,0,0,1-4.649,5.58,10,10,0,0,1,2.38,1.17,0.966,0.966,0,0,0,.532.23,1.247,1.247,0,0,0,.729-0.37,14.434,14.434,0,0,0,3.977-5.26,21.029,21.029,0,0,0,1.512-8.24,4.014,4.014,0,0,1,.336-1.9,0.559,0.559,0,0,0-.364-0.87A23.51,23.51,0,0,0,420.849,4232.79Zm39.931,9.72c2.072,0,4.145.03,6.245,0.06,0.392,0.03.5-.09,0.5-0.42a20.607,20.607,0,0,0,0-2.63c0-.34-0.084-0.42-0.5-0.4-2.156.03-4.313,0.09-6.441,0.09h-9.019a35.918,35.918,0,0,1-6.049-.34,30.246,30.246,0,0,0,.42,3.39,0.617,0.617,0,0,0,.644.59,22.141,22.141,0,0,1,4.117-.34H460.78Zm27.636-7.64a23.612,23.612,0,0,1-4.733,7.98,27.12,27.12,0,0,1-9.158,7,8.25,8.25,0,0,1,2.6,1.54,1,1,0,0,0,.7.31,1.417,1.417,0,0,0,.756-0.25,31.393,31.393,0,0,0,7.954-6.67,33.093,33.093,0,0,0,5.433-9.1,3.335,3.335,0,0,1,.644-1.09,0.969,0.969,0,0,0,.392-0.7,0.712,0.712,0,0,0-.2-0.48,8.754,8.754,0,0,0-2.044-1.85,1.443,1.443,0,0,0-.532-0.14,0.825,0.825,0,0,0-.42.11,2.633,2.633,0,0,1-1.541.28h-10a49.429,49.429,0,0,1-5.378-.19c0.056,0.81.168,2.27,0.252,2.83,0.056,0.39.168,0.58,0.533,0.56,1.2-.06,2.8-0.14,4.621-0.14h10.11Z" transform="translate(-139.312 -4175.66)"/>
  <path id="シェイプ_984" data-name="シェイプ 984" class="cls-2" d="M188.311,4209.77h264" transform="translate(-139.312 -4175.66)"/>
  <path id="シェイプ_984-2" data-name="シェイプ 984" class="cls-2" d="M142.311,4259.77h355" transform="translate(-139.312 -4175.66)"/>
</svg>
