<svg id="lead-block-01.svg" xmlns="http://www.w3.org/2000/svg" width="383.718" height="82" viewBox="0 0 383.718 82">
  <defs>
    <style>
      .cls-1 {
        fill: #1147b4;
      }

      .cls-1, .cls-2 {
        fill-rule: evenodd;
      }

      .cls-2 {
        fill: none;
        stroke: #1147b4;
        stroke-linecap: round;
        stroke-width: 2px;
        stroke-dasharray: 0.001 4;
      }
    </style>
  </defs>
  <path id="_トーンアップパール_透明感UP成分_色ムラ補正成分_配合" data-name="★トーンアップパール  透明感UP成分  色ムラ補正成分   配合" class="cls-1" d="M524.431,1393.23l-2.574,7.9h-8.115l6.532,4.9-2.508,7.76,6.665-4.79,6.642,4.79-2.508-7.76,6.533-4.9H527Zm19.206,4.49a5.7,5.7,0,0,1,.154-2.07,1.187,1.187,0,0,0,.176-0.51,0.411,0.411,0,0,0-.418-0.37,15.3,15.3,0,0,0-2.749-.35,16.716,16.716,0,0,1,.22,3.25v10.82c0,1.41-.022,2.71-0.088,4.34,0,0.26.11,0.33,0.417,0.33a15.989,15.989,0,0,0,1.958,0c0.308,0,.418-0.07.4-0.33-0.044-1.59-.088-2.89-0.088-4.31v-4.87a24.305,24.305,0,0,1,5.784,2.82,0.329,0.329,0,0,0,.242.11,0.376,0.376,0,0,0,.286-0.24,13.021,13.021,0,0,0,.946-1.92,0.406,0.406,0,0,0-.242-0.57,31.124,31.124,0,0,0-6.994-2.99v-3.14Zm23.341,7.65c1.628,0,3.255.02,4.905,0.04,0.308,0.03.4-.06,0.4-0.33a16.091,16.091,0,0,0,0-2.06c0-.27-0.066-0.33-0.4-0.31-1.694.02-3.387,0.06-5.059,0.06h-7.082a28.325,28.325,0,0,1-4.751-.26,23.7,23.7,0,0,0,.33,2.66,0.482,0.482,0,0,0,.506.46,17.849,17.849,0,0,1,3.233-.26h7.918Zm9.353-6.91a23.5,23.5,0,0,1,4.487,3.59,0.47,0.47,0,0,0,.286.18,0.434,0.434,0,0,0,.264-0.18c0.308-.33,1.034-1.21,1.364-1.65a0.477,0.477,0,0,0,.132-0.29,0.509,0.509,0,0,0-.2-0.3,23.179,23.179,0,0,0-4.2-3.13,0.653,0.653,0,0,0-.286-0.11,0.418,0.418,0,0,0-.308.18C577.453,1397.19,576.815,1397.87,576.331,1398.46Zm0.484,10.98a15.59,15.59,0,0,0,1.76,2.44,0.582,0.582,0,0,0,.374.24,0.617,0.617,0,0,0,.4-0.22,7.32,7.32,0,0,1,1.473-1.01,47.277,47.277,0,0,0,6.642-4.31,36.183,36.183,0,0,0,5.059-4.66,0.815,0.815,0,0,0,.242-1.08,9.827,9.827,0,0,1-.616-2.57,33.343,33.343,0,0,1-6.026,5.98,32.876,32.876,0,0,1-6.335,4.09A13.527,13.527,0,0,1,576.815,1409.44Zm33.789-10.76a15.543,15.543,0,0,1-3.937,3.85,5.07,5.07,0,0,1,1.826.9,0.814,0.814,0,0,0,.527.22,0.633,0.633,0,0,0,.462-0.19,18.824,18.824,0,0,0,3.871-4.25,2.866,2.866,0,0,1,.594-0.64,0.563,0.563,0,0,0,.308-0.46,0.624,0.624,0,0,0-.176-0.39,11.172,11.172,0,0,0-1.32-1.39,0.737,0.737,0,0,0-.5-0.31,1.437,1.437,0,0,0-.418.16,4.921,4.921,0,0,1-1.518.13h-9.435c-1.76,0-2.969-.05-4.465-0.16a20.8,20.8,0,0,0,.4,2.38,0.344,0.344,0,0,0,.4.33c1.3-.09,2.639-0.18,3.893-0.18h9.5Zm-12.866,12.78a6.269,6.269,0,0,1,2,1.12,0.594,0.594,0,0,0,.44.2,1.122,1.122,0,0,0,.616-0.22,11.465,11.465,0,0,0,4-4.37,13.478,13.478,0,0,0,1.3-6.05,1.962,1.962,0,0,1,.2-0.9,0.95,0.95,0,0,0,.11-0.4,0.4,0.4,0,0,0-.374-0.42,25.233,25.233,0,0,0-2.837-.42,8,8,0,0,1,.22,2.07,10.169,10.169,0,0,1-1.078,5.19A9.714,9.714,0,0,1,597.738,1411.46Zm19.778-9.65a12.868,12.868,0,0,1,2.067,3.54c0.11,0.31.242,0.42,0.55,0.31a9.205,9.205,0,0,0,1.408-.69,0.382,0.382,0,0,0,.263-0.3,1.409,1.409,0,0,0-.088-0.33,11.746,11.746,0,0,0-1.891-3.26,0.394,0.394,0,0,0-.572-0.15C618.791,1401.15,618.263,1401.39,617.516,1401.81Zm4.42-1.12a14.942,14.942,0,0,1,1.848,3.51c0.11,0.31.2,0.42,0.44,0.33a9.245,9.245,0,0,0,1.517-.68,0.386,0.386,0,0,0,.22-0.59,12.621,12.621,0,0,0-1.693-3.21,0.384,0.384,0,0,0-.572-0.18C623.322,1400.03,622.816,1400.27,621.936,1400.69Zm6.929-.53a7.912,7.912,0,0,1-.506,2.33,22.889,22.889,0,0,1-2.97,5.3,18.913,18.913,0,0,1-5.278,4.57,5.08,5.08,0,0,1,1.869.93,0.5,0.5,0,0,0,.352.15,0.965,0.965,0,0,0,.528-0.24,17.693,17.693,0,0,0,4.531-4.24,26.845,26.845,0,0,0,3.321-5.86,3.105,3.105,0,0,1,.66-1.12,0.517,0.517,0,0,0,.242-0.39,0.569,0.569,0,0,0-.286-0.38A10.4,10.4,0,0,0,628.865,1400.16Zm19.756-.51a18.57,18.57,0,0,1-3.717,6.27,21.339,21.339,0,0,1-7.192,5.5,6.435,6.435,0,0,1,2.045,1.21,0.794,0.794,0,0,0,.55.24,1.083,1.083,0,0,0,.594-0.2,24.676,24.676,0,0,0,6.246-5.23,26.081,26.081,0,0,0,4.267-7.15,2.685,2.685,0,0,1,.506-0.86,0.585,0.585,0,0,0,.22-0.42,0.775,0.775,0,0,0-.176-0.44,8.26,8.26,0,0,0-1.5-1.51,0.522,0.522,0,0,0-.374-0.16,0.772,0.772,0,0,0-.374.13,2.07,2.07,0,0,1-1.209.22h-7.852a38.735,38.735,0,0,1-4.223-.15c0.044,0.64.132,1.78,0.2,2.22,0.044,0.31.132,0.46,0.418,0.44,0.946-.04,2.2-0.11,3.629-0.11h7.94Zm4.882-6.57a2.319,2.319,0,0,0-2.375,2.35A2.376,2.376,0,1,0,653.5,1393.08Zm0,1.05a1.3,1.3,0,1,1-1.3,1.3A1.261,1.261,0,0,1,653.5,1394.13Zm2.689,14.52a6.1,6.1,0,0,1,1.936.94,0.714,0.714,0,0,0,.506.22,0.826,0.826,0,0,0,.615-0.33,24.137,24.137,0,0,0,4.707-7.39,4.2,4.2,0,0,1,.77-1.34,0.637,0.637,0,0,0,.22-0.44,0.379,0.379,0,0,0-.264-0.35,20.942,20.942,0,0,0-2.727-1.12,10.974,10.974,0,0,1-.99,3.25A19.553,19.553,0,0,1,656.192,1408.65Zm11.239-8.36a28.7,28.7,0,0,1,5.433,8.56c0.088,0.28.242,0.33,0.528,0.19a13,13,0,0,0,1.825-1.16,0.425,0.425,0,0,0,.22-0.35,0.556,0.556,0,0,0-.088-0.31,27.488,27.488,0,0,0-5.52-8.07,0.429,0.429,0,0,0-.33-0.18,0.508,0.508,0,0,0-.308.13C668.817,1399.34,668.223,1399.76,667.431,1400.29Zm6.8-5.04a2.355,2.355,0,1,0,2.376,2.36A2.353,2.353,0,0,0,674.227,1395.25Zm0,1.06a1.3,1.3,0,1,1-1.3,1.3A1.261,1.261,0,0,1,674.227,1396.31Zm17.668,9.06c1.628,0,3.255.02,4.9,0.04,0.308,0.03.4-.06,0.4-0.33a16.091,16.091,0,0,0,0-2.06c0-.27-0.066-0.33-0.4-0.31-1.694.02-3.387,0.06-5.059,0.06h-7.082a28.325,28.325,0,0,1-4.751-.26,23.7,23.7,0,0,0,.33,2.66,0.482,0.482,0,0,0,.506.46,17.849,17.849,0,0,1,3.233-.26H691.9Zm21.033-5.19a6.122,6.122,0,0,1,.2-2.44,1.418,1.418,0,0,0,.176-0.55,0.405,0.405,0,0,0-.4-0.38,22.449,22.449,0,0,0-2.75-.46,17.6,17.6,0,0,1,.22,3.83v6.88a3.787,3.787,0,0,1-.132,1.68,0.67,0.67,0,0,0-.088.33,0.885,0.885,0,0,0,.2.46,6.344,6.344,0,0,0,1.32,1.34,0.921,0.921,0,0,0,.462.17,0.691,0.691,0,0,0,.44-0.17,5.753,5.753,0,0,1,.637-0.46,36.121,36.121,0,0,0,3.915-2.64,28.068,28.068,0,0,0,3.255-2.88,0.858,0.858,0,0,0,.33-0.55,1.164,1.164,0,0,0-.132-0.38,6.313,6.313,0,0,1-.681-2.22,21.14,21.14,0,0,1-3.849,3.74,23.39,23.39,0,0,1-3.123,2.05v-7.35Zm-7.676-2.44a5.915,5.915,0,0,1,.22,1.85c-0.022,3.51-.308,4.72-0.924,6.22a10.932,10.932,0,0,1-3.651,4.38,7.7,7.7,0,0,1,1.869.92,0.757,0.757,0,0,0,.418.18,0.983,0.983,0,0,0,.572-0.29,11.3,11.3,0,0,0,3.123-4.13,16.484,16.484,0,0,0,1.188-6.47,3.2,3.2,0,0,1,.264-1.5,0.437,0.437,0,0,0-.286-0.68A18.149,18.149,0,0,0,705.252,1397.74Zm45.249,1.78c2.134,0,2.881.04,3.013,0.04,0.22,0,.242-0.02.242-0.24v-1.36c0-.22-0.022-0.24-0.242-0.24-0.132,0-.879.04-3.013,0.04H747.73v-1.45c1.056-.11,2.089-0.27,3.013-0.42a5.134,5.134,0,0,1,1.21-.13c0.308,0,.484-0.11.484-0.27a0.639,0.639,0,0,0-.2-0.41,9.568,9.568,0,0,0-1.364-1.34,9.52,9.52,0,0,1-1.407.41,32.3,32.3,0,0,1-3.651.53c-1.606.16-3.058,0.24-5.191,0.29a3.616,3.616,0,0,1,.572,1.27c0.154,0.55.154,0.55,0.77,0.53,1.319-.04,2.485-0.13,3.673-0.24v1.23h-2.53c-2.133,0-2.881-.04-3.013-0.04-0.242,0-.264.02-0.264,0.24v1.36c0,0.22.022,0.24,0.264,0.24,0.132,0,.88-0.04,3.013-0.04h0.814a13.193,13.193,0,0,1-4.663,2.57,5.094,5.094,0,0,1,.814,1.39c0.11,0.26.154,0.39,0.308,0.39a1.356,1.356,0,0,0,.506-0.19l0.528-.27v1.37c0,0.24.022,0.26,0.264,0.26,0.132,0,.638-0.04,2.2-0.04h0.088c-0.2,2.31-1.3,3.25-3.937,4.13a4.757,4.757,0,0,1,1.034,1.08,0.793,0.793,0,0,0,.506.48,1.69,1.69,0,0,0,.528-0.17c2.617-1.17,3.607-2.71,3.98-5.52h1.848a13.9,13.9,0,0,1-.748,2c-0.11.22-.088,0.31,0.2,0.33l1.364,0.09a0.356,0.356,0,0,0,.44-0.22l0.066-.16h1.143a4.694,4.694,0,0,1-.308,1.45,0.811,0.811,0,0,1-.857.4,12.545,12.545,0,0,1-2.046-.18,4.2,4.2,0,0,1,.33,1.28c0.066,0.7.132,0.7,0.726,0.72,0.484,0.03,1.034.05,1.473,0.03a2.362,2.362,0,0,0,2.266-1.1,8.315,8.315,0,0,0,.638-2.71l0.132-1.27c0.022-.18-0.066-0.25-0.264-0.25-0.132,0-.4.03-1.21,0.03h-1.408c0.132-.38.242-0.77,0.374-1.17l0.264-.79a0.216,0.216,0,0,0-.242-0.31c-0.132,0-.7.04-2.529,0.04h-3.849c-1.21,0-1.781-.02-2.045-0.02a14.578,14.578,0,0,0,3.849-2.99c-0.022,1.1-.088,2.03-0.088,2.35,0,0.22.022,0.25,0.242,0.25h1.693c0.22,0,.242-0.03.242-0.25,0-.32-0.066-1.42-0.088-2.55a12.119,12.119,0,0,0,5.257,3.65,1.584,1.584,0,0,0,.527.16c0.132,0,.176-0.11.286-0.44a5.131,5.131,0,0,1,.748-1.5,14.137,14.137,0,0,1-5.058-2.35H750.5Zm-11.393,4.86c0-1.36.044-2,.044-2.13,0-.22-0.022-0.24-0.242-0.24-0.109,0-.461.04-1.627,0.04h-1.3c-1.143,0-1.451-.04-1.561-0.04-0.242,0-.264.02-0.264,0.24v1.67c0,0.24.022,0.26,0.264,0.26,0.11,0,.418-0.04,1.561-0.04h0.99v4.88a9.893,9.893,0,0,1-1.737,1.43,11.654,11.654,0,0,1-1.3.68,21.261,21.261,0,0,0,.9,2.03,0.393,0.393,0,0,0,.308.26,0.329,0.329,0,0,0,.307-0.15,2.591,2.591,0,0,1,.506-0.47,23.763,23.763,0,0,0,2.09-1.87,4.482,4.482,0,0,0,2.287,1.94,15.343,15.343,0,0,0,5.147.57c2.287,0,4.9-.04,7.7-0.2,0.7-.04.7-0.04,0.813-0.74a3.735,3.735,0,0,1,.55-1.63c-3.3.33-6.576,0.46-9.413,0.46a13.7,13.7,0,0,1-4.069-.4,3.354,3.354,0,0,1-1.958-1.78v-4.77Zm-0.022-6.25c0.242-.17.242-0.22,0.132-0.41a15.929,15.929,0,0,0-2.749-3.21,0.338,0.338,0,0,0-.2-0.11,0.535,0.535,0,0,0-.264.13l-1.187.83c-0.242.18-.264,0.22-0.11,0.38a17.117,17.117,0,0,1,2.7,3.43,0.274,0.274,0,0,0,.2.15,0.409,0.409,0,0,0,.264-0.15Zm37.111-.28c0-1.94.044-2.95,0.044-3.08,0-.22-0.022-0.24-0.264-0.24-0.132,0-.726.04-2.464,0.04h-3.277c-1.759,0-2.331-.04-2.463-0.04-0.242,0-.264.02-0.264,0.24,0,0.15.044,1.14,0.044,3.08v2.7c0,7.39-1.034,9.33-4.377,11.75a5.926,5.926,0,0,1,1.342,1.1,0.993,0.993,0,0,0,.484.39,1.05,1.05,0,0,0,.528-0.33,10.14,10.14,0,0,0,3.914-7.06h4.509v4.23c0,0.57-.176.77-0.858,0.77-0.417,0-1.143-.03-1.891-0.09a5.779,5.779,0,0,1,.616,1.65c0.154,0.68.154,0.68,0.836,0.68,1.561,0,2.441-.13,2.947-0.57a2.132,2.132,0,0,0,.638-1.81c0-.88-0.044-2-0.044-3.03v-10.38Zm-6.511,6.53c0.066-.86.11-1.83,0.132-2.88h4.135v2.88h-4.267Zm4.267-7.74v2.84h-4.135v-2.84h4.135Zm-13.878,13.02c0.242,0,.264,0,0.264-0.22v-1.72h3.123v1.08c0,0.22.022,0.24,0.264,0.24h1.65c0.219,0,.241-0.02.241-0.24,0-.13-0.043-1.01-0.043-5.67v-3.79c0-2.88.043-3.8,0.043-3.93,0-.22-0.022-0.24-0.241-0.24-0.154,0-.66.04-2.222,0.04H760.6c-1.562,0-2.068-.04-2.221-0.04-0.22,0-.242.02-0.242,0.24,0,0.13.044,1.1,0.044,4.57v3.5c0,4.9-.044,5.81-0.044,5.96,0,0.22.022,0.22,0.242,0.22h1.693Zm0.264-3.94v-3.34h3.123v3.34h-3.123Zm3.123-8.53v3.21h-3.123v-3.21h3.123Zm31.876-2.79a0.255,0.255,0,0,0-.176.22,0.221,0.221,0,0,0,.11.19c0.242,0.25.681,0.73,1.011,1.15h-2.111a6.775,6.775,0,0,1,.022-1.45,1.089,1.089,0,0,0,.11-0.4,0.287,0.287,0,0,0-.33-0.24c-0.638-.07-1.452-0.13-2.221-0.16,0.132,0.64.176,1.46,0.264,2.25H785.44c-2.111,0-2.837-.05-2.969-0.05-0.242,0-.264.02-0.264,0.22,0,0.13.044,0.86,0.044,2.4a20.134,20.134,0,0,1-.418,4.68,8.489,8.489,0,0,1-1.583,3.5,5.5,5.5,0,0,1,1.407.95,1.087,1.087,0,0,0,.462.33,0.636,0.636,0,0,0,.4-0.44,12.211,12.211,0,0,0,1.474-3.85,26.4,26.4,0,0,0,.4-4.42v-1.48h7.83a20.891,20.891,0,0,0,1.561,6.07,11.194,11.194,0,0,1-2.419,1.96c0-.2-0.022-0.55-0.022-1.21v-1.45c0-.92.044-1.27,0.044-1.41,0-.22-0.022-0.24-0.242-0.24-0.154,0-.572.05-1.87,0.05H787.2c-1.3,0-1.716-.05-1.87-0.05-0.219,0-.241.02-0.241,0.24,0,0.16.043,0.49,0.043,1.41v1.45c0,0.93-.043,1.26-0.043,1.41,0,0.22.022,0.24,0.241,0.24,0.154,0,.572-0.04,1.87-0.04h2.067c1.3,0,1.716.04,1.87,0.04s0.22,0,.242-0.11a6.869,6.869,0,0,1,.726.71,0.877,0.877,0,0,0,.483.41,1.431,1.431,0,0,0,.528-0.28,13.926,13.926,0,0,0,1.672-1.45,4.218,4.218,0,0,0,3.1,2.02c1.254,0,1.979-.81,2.529-2.66a2.025,2.025,0,0,0,.11-0.49c0-.22-0.154-0.3-0.572-0.5a4.657,4.657,0,0,1-1.1-.73c-0.264,1.5-.484,2.11-1.034,2.11a2.657,2.657,0,0,1-1.628-1.38,19.562,19.562,0,0,0,1.936-3.28,2.783,2.783,0,0,1,.44-0.66,0.489,0.489,0,0,0,.2-0.33,0.422,0.422,0,0,0-.264-0.31,13.125,13.125,0,0,0-1.782-.68,10.509,10.509,0,0,1-.418,1.37,14.507,14.507,0,0,1-1.055,1.93,18.2,18.2,0,0,1-.924-4.16h2.155c2.09,0,2.816.05,2.948,0.05,0.219,0,.241-0.02.241-0.24v-1.48c0-.2-0.022-0.22-0.241-0.22-0.11,0-.594.05-1.87,0.05l0.506-.33c0.2-.16.264-0.22,0.11-0.42a9.7,9.7,0,0,0-1.364-1.43,0.319,0.319,0,0,0-.462-0.02Zm-5.807,10.29h-2.617v-1.61h2.617v1.61Zm-1.627,4.44a1.847,1.847,0,0,1,.132-0.79,0.708,0.708,0,0,0,.11-0.37c0-.09-0.132-0.16-0.4-0.2a16.694,16.694,0,0,0-2.178-.13,8.577,8.577,0,0,1,.11,1.67v1.93c0,1.17.308,1.63,0.814,1.92a9.743,9.743,0,0,0,3.805.44c2.287,0,3.5-.09,4.311-0.53a2.632,2.632,0,0,0,1.21-2.16c0.066-.59.066-0.59-0.506-0.77a5.268,5.268,0,0,1-1.584-.66c-0.022,1.06-.2,1.7-0.572,1.89-0.462.27-1.077,0.25-2.683,0.25a7.3,7.3,0,0,1-2.221-.2,0.911,0.911,0,0,1-.352-0.88v-1.41Zm-0.682-10.29c-1.3,0-1.826-.05-1.958-0.05-0.219,0-.241.03-0.241,0.27v1.27c0,0.22.022,0.25,0.241,0.25,0.132,0,.66-0.05,1.958-0.05h2.243c1.32,0,1.848.05,1.98,0.05,0.2,0,.22-0.03.22-0.25v-1.27c0-.24-0.022-0.27-0.22-0.27-0.132,0-.66.05-1.98,0.05h-2.243Zm8.622,9.63c-0.264.16-.286,0.22-0.11,0.4a13.436,13.436,0,0,1,2.353,3.8c0.088,0.22.154,0.2,0.44,0.02l1.363-.83c0.286-.18.286-0.22,0.176-0.44a17.053,17.053,0,0,0-2.6-3.67,0.32,0.32,0,0,0-.2-0.14,0.871,0.871,0,0,0-.264.11Zm-13.7,4.55c0.242,0.14.308,0.14,0.44-.04a16.344,16.344,0,0,0,2.244-3.96c0.066-.22.044-0.26-0.242-0.39l-1.3-.58c-0.308-.13-0.352-0.13-0.44.11a12.844,12.844,0,0,1-2.221,3.68c-0.132.17-.132,0.26,0.132,0.41Zm7.1-5.47c-0.264.2-.264,0.22-0.088,0.39a15.072,15.072,0,0,1,1.914,2.29,0.219,0.219,0,0,0,.176.15,0.5,0.5,0,0,0,.286-0.15l1.143-.88c0.22-.15.2-0.2,0.066-0.35a11.971,11.971,0,0,0-2.067-2.18,0.307,0.307,0,0,0-.462.02Zm28.093-12.41h-2.771v11.13c0,2.8-1.364,3.98-3.607,3.98-2.266,0-3.607-1.18-3.607-3.98v-11.13h-2.969v11.18c0,4.15,2.551,6.2,6.51,6.2,3.937,0,6.444-2.11,6.444-6.2v-11.18Zm5.151,0v17.07h2.97v-7.17h2.881c4.091,0,6.268-1.87,6.268-5.01s-1.891-4.89-6.092-4.89h-6.027Zm2.97,2.22h2.9c2.265,0,3.255.99,3.255,2.69,0,1.74-1.1,2.77-3.365,2.77h-2.793v-5.46Zm28.816,2.12c2.067,0,2.793.04,2.925,0.04,0.22,0,.242-0.02.242-0.24v-1.67c0-.25-0.022-0.27-0.242-0.27-0.132,0-.858.05-2.925,0.05h-3.3v-0.53a7.9,7.9,0,0,1,.11-2.2,1.044,1.044,0,0,0,.11-0.42,0.3,0.3,0,0,0-.33-0.26c-0.792-.09-1.54-0.11-2.375-0.16a20.906,20.906,0,0,1,.176,3.1v0.47h-5.851c-2.089,0-2.815-.05-2.947-0.05-0.242,0-.264.02-0.264,0.27,0,0.13.044,1.43,0.044,4.42a35.814,35.814,0,0,1-.308,5.32,11.725,11.725,0,0,1-1.715,4.86,6.885,6.885,0,0,1,1.363,1.23,0.754,0.754,0,0,0,.44.35,0.626,0.626,0,0,0,.374-0.41,16.538,16.538,0,0,0,1.716-5.15,28.522,28.522,0,0,0,.395-3.85h3.08a18.025,18.025,0,0,1-.33,3.54,0.931,0.931,0,0,1-1.056.79,10.163,10.163,0,0,1-1.8-.17,4.529,4.529,0,0,1,.528,1.58c0.11,0.68.132,0.68,0.638,0.73a10.518,10.518,0,0,0,1.122.04,2.509,2.509,0,0,0,2.551-1.82,17.467,17.467,0,0,0,.506-4.1c0.044-.66.066-1.58,0.11-2.42,0-.24-0.044-0.28-0.264-0.28-0.132,0-.528.04-1.869,0.04h-3.168v-2.83h6.775a26.638,26.638,0,0,0,1.605,8.42,17.3,17.3,0,0,1-5.1,4.13,5.238,5.238,0,0,1,1.121,1.17,0.77,0.77,0,0,0,.462.46,1.45,1.45,0,0,0,.528-0.24,17.2,17.2,0,0,0,3.981-3.28c1.1,2.05,2.551,3.46,4.069,3.46,1.341,0,2.133-1.08,2.485-3.44,0.11-.68.11-0.68-0.528-1.01a4.3,4.3,0,0,1-1.231-.85c-0.132,2.04-.4,2.7-0.9,2.7-0.55,0-1.562-1.06-2.354-2.75a24.534,24.534,0,0,0,2.508-4.46,3.343,3.343,0,0,1,.55-1.08,0.916,0.916,0,0,0,.307-0.46,0.458,0.458,0,0,0-.329-0.35,12.111,12.111,0,0,0-2.046-.8,10.946,10.946,0,0,1-.594,2.03,18.316,18.316,0,0,1-1.319,2.57,27.907,27.907,0,0,1-.9-6.22h3.233Zm-1.672-4.73a0.336,0.336,0,0,0-.175.2,0.293,0.293,0,0,0,.131.19,8.458,8.458,0,0,1,1.782,1.94,0.265,0.265,0,0,0,.176.15,0.681,0.681,0,0,0,.286-0.15l1.056-.79c0.242-.16.242-0.25,0.11-0.42a10.088,10.088,0,0,0-1.892-1.85,0.307,0.307,0,0,0-.462.02Zm19.625,0.04c-0.241.11-.285,0.13-0.2,0.38a23.271,23.271,0,0,0,4.728,6.97c-0.22.02-.946,0.04-2.859,0.04h-5.916c-1.694,0-2.464-.02-2.772-0.04a19.991,19.991,0,0,0,4.025-5.83,1.817,1.817,0,0,1,.506-0.71,0.439,0.439,0,0,0,.176-0.33,0.394,0.394,0,0,0-.308-0.37,16.148,16.148,0,0,0-2.287-.77,6.24,6.24,0,0,1-.44,1.41,17.213,17.213,0,0,1-6.356,7.26,4.89,4.89,0,0,1,1.231,1.34,0.774,0.774,0,0,0,.462.48,1.211,1.211,0,0,0,.484-0.28,25.424,25.424,0,0,0,2.134-1.83v1.61c0,0.22.022,0.24,0.241,0.24,0.132,0,.836-0.05,2.9-0.05h0.264c-0.418,3.88-2.354,6.21-6.357,7.66a4.156,4.156,0,0,1,1.122,1.32,0.749,0.749,0,0,0,.462.53,1.472,1.472,0,0,0,.528-0.18,10.639,10.639,0,0,0,6.686-9.33H874.6a36.374,36.374,0,0,1-.418,5.46,1.306,1.306,0,0,1-1.474,1.36,15.692,15.692,0,0,1-2.507-.2,4.588,4.588,0,0,1,.682,1.76c0.154,0.73.132,0.73,0.814,0.77a14.707,14.707,0,0,0,1.5.05c2.156,0,2.991-.97,3.277-2.71a43.749,43.749,0,0,0,.55-6.16c0.022-.77.022-1.54,0.066-2.17a19.022,19.022,0,0,0,2.09,1.78,1.042,1.042,0,0,0,.461.28,0.752,0.752,0,0,0,.418-0.48,7.436,7.436,0,0,1,1.276-1.65,17.6,17.6,0,0,1-7.126-8.11c-0.088-.22-0.132-0.25-0.418-0.11Zm-276.371,65c0,1.83.462,2.66,1.386,3.04,0.967,0.46,2.793.61,6.686,0.61,4.508,0,6.6-.22,7.456-0.83,0.879-.58,1.3-1.48,1.451-3.21,0.066-.66.088-0.71-0.616-0.86a6.506,6.506,0,0,1-1.715-.64c-0.088,1.58-.11,2.29-0.748,2.77-0.638.46-2.045,0.62-5.938,0.62a23.761,23.761,0,0,1-4.773-.25c-0.726-.19-0.9-0.61-0.9-1.69v-2.59h9.348c2.155,0,2.925.04,3.057,0.04,0.22,0,.242-0.02.242-0.24,0-.13-0.044-0.66-0.044-1.94v-2.64c0-1.25.044-1.76,0.044-1.89,0-.22-0.022-0.24-0.242-0.24-0.132,0-.9.04-3.057,0.04h-2.6c0.572-.59,1.056-1.16,1.672-1.91a2.632,2.632,0,0,1,.682-0.68,0.459,0.459,0,0,0,.352-0.4,1.189,1.189,0,0,0-.616-0.77,1.87,1.87,0,0,0-.88-0.55,0.762,0.762,0,0,0-.308.07,1.186,1.186,0,0,1-.528.06h-4.223l0.066-.08a2.355,2.355,0,0,1,.55-0.73,0.457,0.457,0,0,0,.242-0.35,0.385,0.385,0,0,0-.308-0.35c-0.616-.16-1.319-0.31-2.133-0.44a8.013,8.013,0,0,1-.7,1.45,16.945,16.945,0,0,1-5.85,5.3,3.833,3.833,0,0,1,.835,1.34,0.66,0.66,0,0,0,.352.53,1.365,1.365,0,0,0,.484-0.26c0.44-.29.88-0.58,1.276-0.88v8.55Zm12.58-5.01H604.3v-2.93h4.134v2.93Zm-10.293,0v-2.93h3.915v2.93h-3.915Zm-0.616-4.89a16.616,16.616,0,0,0,2.244-2.35h4.4a21.287,21.287,0,0,1-1.914,2.35h-4.729Zm26.18-5.01a11.668,11.668,0,0,1-.638,3.01c-1.144,3.7-2.288,6.95-3.849,10.89-0.88.02-1.8,0.04-2.683-.02a20.32,20.32,0,0,0,.769,2.83,0.4,0.4,0,0,0,.638.22,7.463,7.463,0,0,1,2.574-.52c3.585-.38,6.928-0.75,10.447-1.28,0.264,0.57.506,1.14,0.769,1.76a0.367,0.367,0,0,0,.308.31,0.523,0.523,0,0,0,.264-0.07,10.894,10.894,0,0,0,1.672-.9,0.453,0.453,0,0,0,.286-0.37,0.54,0.54,0,0,0-.088-0.29,30.908,30.908,0,0,0-4.443-7.19,0.359,0.359,0,0,0-.528-0.13c-0.616.33-1.254,0.7-1.913,1.05a21.988,21.988,0,0,1,2.441,3.52c-2.463.38-4.311,0.55-7.7,0.84,1.386-3.3,2.551-6.53,3.783-9.9a7.128,7.128,0,0,1,.9-1.83,0.724,0.724,0,0,0,.22-0.44,0.493,0.493,0,0,0-.264-0.35A11.737,11.737,0,0,0,623.708,1444.88Zm24.353,2.9c1.341,0,2.375.05,3.1,0.05,0.33,0.02.4-.07,0.4-0.44a11.223,11.223,0,0,0,0-1.72c0-.24-0.066-0.35-0.264-0.35-0.858.04-2.024,0.11-3.453,0.11h-3.959a28.608,28.608,0,0,1-3.607-.16,19.331,19.331,0,0,0,.11,2.12c0.022,0.35.088,0.48,0.308,0.48,0.923-.07,2.023-0.09,3.013-0.09h4.355Zm1.671,4.71c-1.583,4.24-5.168,7.28-9.237,9.17a6.686,6.686,0,0,1,2.045,1.14,0.713,0.713,0,0,0,.484.27,1.05,1.05,0,0,0,.44-0.16,19.168,19.168,0,0,0,8.973-9.72,2.5,2.5,0,0,1,.748-1.03,0.534,0.534,0,0,0,.242-0.42,0.644,0.644,0,0,0-.22-0.46,12.021,12.021,0,0,0-1.473-1.36,0.565,0.565,0,0,0-.33-0.16,0.52,0.52,0,0,0-.286.13,2.4,2.4,0,0,1-1.166.25h-7.544a39.437,39.437,0,0,1-4.047-.18,16.6,16.6,0,0,0,.242,2.22c0.044,0.29.132,0.42,0.33,0.42,1.1-.07,2.2-0.09,3.3-0.09Zm15.556,8.14c0,1.95-.044,2.83-0.044,2.99,0,0.2.022,0.22,0.242,0.22h1.693c0.22,0,.242-0.02.242-0.22,0-.13-0.044-1.04-0.044-2.91v-1.89h2.4v1.61c0,1.93-.044,2.86-0.044,3.01,0,0.2.022,0.22,0.242,0.22h1.671c0.22,0,.242-0.02.242-0.22,0-.13-0.044-1.08-0.044-3.01v-1.61h2.639v2.14a0.5,0.5,0,0,1-.594.61c-0.351,0-.835-0.02-1.363-0.06a3.546,3.546,0,0,1,.572,1.65c0.088,0.52.088,0.52,0.77,0.5a3.5,3.5,0,0,0,2.265-.42,1.941,1.941,0,0,0,.528-1.65c0-.68-0.066-2.13-0.066-3.43v-4.95c0-2.02.044-3.03,0.044-3.16,0-.22-0.022-0.24-0.242-0.24-0.154,0-.858.04-2.859,0.04h-1.65v-1.72h2.353c2.112,0,2.838.05,2.948,0.05,0.242,0,.264-0.02.264-0.24v-1.57c0-.19-0.022-0.22-0.264-0.22-0.088,0-.638.05-2.046,0.05l0.9-.51c0.22-.13.242-0.2,0.088-0.39a14.328,14.328,0,0,0-1.342-1.45,0.391,0.391,0,0,0-.242-0.14,0.871,0.871,0,0,0-.264.11l-0.989.53c-0.242.13-.264,0.2-0.11,0.35a8.472,8.472,0,0,1,1.253,1.5h-2.551a4.933,4.933,0,0,1,.132-1.58,1.291,1.291,0,0,0,.132-0.44,0.318,0.318,0,0,0-.352-0.25c-0.77-.08-1.408-0.13-2.243-0.15a18.049,18.049,0,0,1,.176,2.42h-1.914c-2.111,0-2.837-.05-2.969-0.05-0.22,0-.242.03-0.242,0.22v1.57c0,0.22.022,0.24,0.242,0.24,0.132,0,.858-0.05,2.969-0.05h1.914v1.72h-1.386c-2.023,0-2.727-.04-2.859-0.04-0.22,0-.242.02-0.242,0.24,0,0.13.022,0.92,0.044,2.55l-0.132-.13a8.609,8.609,0,0,0-1.408-.86,6.678,6.678,0,0,1-.352.86,12.559,12.559,0,0,1-.769,1.25c-0.154-.18-0.286-0.35-0.418-0.53v-0.31a30.154,30.154,0,0,0,1.715-3.25,1.348,1.348,0,0,1,.506-0.77,0.443,0.443,0,0,0,.264-0.44,1.226,1.226,0,0,0-.55-0.81,1.346,1.346,0,0,0-.748-0.58,0.557,0.557,0,0,0-.242.07,0.581,0.581,0,0,1-.395.11h-0.55v-0.97a3.994,3.994,0,0,1,.176-1.56,1.078,1.078,0,0,0,.132-0.46c0-.13-0.132-0.2-0.352-0.24-0.77-.09-1.452-0.13-2.288-0.16a13.373,13.373,0,0,1,.176,2.53v0.86c-1.429,0-1.891-.04-2.023-0.04-0.242,0-.264.02-0.264,0.24v1.63c0,0.22.022,0.24,0.264,0.24,0.132,0,.594-0.05,2.045-0.05h1.76a16.684,16.684,0,0,1-4.685,6.43,6.049,6.049,0,0,1,.638,1.69c0.066,0.26.132,0.37,0.242,0.37a0.673,0.673,0,0,0,.418-0.26c0.572-.53,1.1-1.08,1.605-1.65v5.37c0,1.65-.044,2.42-0.044,2.55,0,0.22.022,0.24,0.242,0.24h1.738c0.242,0,.264-0.02.264-0.24,0-.11-0.044-0.9-0.044-2.55v-5.37a8.279,8.279,0,0,0,1.319,1.47,1.137,1.137,0,0,0,.44.36,0.776,0.776,0,0,0,.4-0.49,4.769,4.769,0,0,1,.9-1.1,13.974,13.974,0,0,1-1.54-1.21,16.01,16.01,0,0,0,.924-1.32,1.555,1.555,0,0,1,.528-0.53,0.217,0.217,0,0,0,.11-0.08v7.72Zm6.554-3.59v-1.8h2.639v1.8h-2.639Zm2.639-5.34v1.76h-2.639v-1.76h2.639Zm-7.1,5.34v-1.8h2.4v1.8h-2.4Zm0-3.58v-1.76h2.4v1.76h-2.4Zm22.638-6.29v13.26h-3.409v-6.42a8.265,8.265,0,0,1,.154-2.4,0.991,0.991,0,0,0,.154-0.48,0.333,0.333,0,0,0-.374-0.27c-0.769-.09-1.693-0.13-2.529-0.15a20.558,20.558,0,0,1,.176,3.34v6.38h-0.33c-1.935,0-2.6-.05-2.727-0.05-0.2,0-.22.03-0.22,0.25v1.82c0,0.22.022,0.24,0.22,0.24,0.132,0,.792-0.04,2.727-0.04H697.6c1.958,0,2.618.04,2.75,0.04,0.2,0,.22-0.02.22-0.24v-1.82c0-.22-0.022-0.25-0.22-0.25-0.132,0-.792.05-2.75,0.05h-5.146v-5.9h3.057c1.891,0,2.551.05,2.683,0.05,0.2,0,.22-0.02.22-0.24v-1.79c0-.21-0.022-0.24-0.22-0.24-0.132,0-.792.05-2.683,0.05h-3.057v-5.19h4.267c2.045,0,2.771.04,2.9,0.04,0.22,0,.242-0.02.242-0.24v-1.8c0-.22-0.022-0.25-0.242-0.25-0.132,0-.858.05-2.9,0.05H684.781c-2.046,0-2.771-.05-2.9-0.05-0.22,0-.242.03-0.242,0.25v1.8c0,0.22.022,0.24,0.242,0.24,0.132,0,.857-0.04,2.9-0.04h5.234Zm30.292,2.31c2.068,0,2.794.04,2.926,0.04,0.22,0,.242-0.02.242-0.24v-1.67c0-.25-0.022-0.27-0.242-0.27-0.132,0-.858.05-2.926,0.05h-3.3v-0.53a7.9,7.9,0,0,1,.11-2.2,1.044,1.044,0,0,0,.11-0.42,0.3,0.3,0,0,0-.33-0.26c-0.791-.09-1.539-0.11-2.375-0.16a20.906,20.906,0,0,1,.176,3.1v0.47h-5.85c-2.09,0-2.816-.05-2.948-0.05-0.241,0-.263.02-0.263,0.27,0,0.13.044,1.43,0.044,4.42a35.814,35.814,0,0,1-.308,5.32,11.713,11.713,0,0,1-1.716,4.86,6.888,6.888,0,0,1,1.364,1.23,0.754,0.754,0,0,0,.44.35,0.623,0.623,0,0,0,.373-0.41,16.538,16.538,0,0,0,1.716-5.15,28.507,28.507,0,0,0,.4-3.85h3.079a18.025,18.025,0,0,1-.33,3.54,0.931,0.931,0,0,1-1.056.79,10.161,10.161,0,0,1-1.8-.17,4.529,4.529,0,0,1,.528,1.58c0.11,0.68.132,0.68,0.638,0.73a10.49,10.49,0,0,0,1.121.04,2.51,2.51,0,0,0,2.552-1.82,17.53,17.53,0,0,0,.5-4.1c0.044-.66.066-1.58,0.11-2.42,0-.24-0.044-0.28-0.264-0.28-0.131,0-.527.04-1.869,0.04h-3.167v-2.83h6.774a26.636,26.636,0,0,0,1.606,8.42,17.3,17.3,0,0,1-5.1,4.13,5.218,5.218,0,0,1,1.122,1.17,0.77,0.77,0,0,0,.462.46,1.455,1.455,0,0,0,.527-0.24,17.18,17.18,0,0,0,3.981-3.28c1.1,2.05,2.552,3.46,4.069,3.46,1.342,0,2.134-1.08,2.485-3.44,0.11-.68.11-0.68-0.527-1.01a4.314,4.314,0,0,1-1.232-.85c-0.132,2.04-.4,2.7-0.9,2.7-0.55,0-1.561-1.06-2.353-2.75a24.529,24.529,0,0,0,2.507-4.46,3.343,3.343,0,0,1,.55-1.08,0.919,0.919,0,0,0,.308-0.46,0.459,0.459,0,0,0-.33-0.35,12.131,12.131,0,0,0-2.045-.8,10.946,10.946,0,0,1-.594,2.03,18.326,18.326,0,0,1-1.32,2.57,27.907,27.907,0,0,1-.9-6.22h3.233Zm-1.671-4.73a0.335,0.335,0,0,0-.176.2,0.292,0.292,0,0,0,.132.19,8.433,8.433,0,0,1,1.781,1.94,0.265,0.265,0,0,0,.176.15,0.681,0.681,0,0,0,.286-0.15l1.056-.79c0.242-.16.242-0.25,0.11-0.42a10.114,10.114,0,0,0-1.891-1.85,0.307,0.307,0,0,0-.462.02Zm19.625,0.04c-0.242.11-.286,0.13-0.2,0.38a23.275,23.275,0,0,0,4.729,6.97c-0.22.02-.946,0.04-2.86,0.04h-5.916c-1.693,0-2.463-.02-2.771-0.04a20.03,20.03,0,0,0,4.025-5.83,1.817,1.817,0,0,1,.506-0.71,0.439,0.439,0,0,0,.176-0.33,0.394,0.394,0,0,0-.308-0.37,16.164,16.164,0,0,0-2.288-.77,6.24,6.24,0,0,1-.44,1.41,17.206,17.206,0,0,1-6.356,7.26,4.892,4.892,0,0,1,1.232,1.34,0.774,0.774,0,0,0,.462.48,1.211,1.211,0,0,0,.484-0.28,25.571,25.571,0,0,0,2.133-1.83v1.61c0,0.22.022,0.24,0.242,0.24,0.132,0,.836-0.05,2.9-0.05h0.264c-0.418,3.88-2.353,6.21-6.356,7.66a4.141,4.141,0,0,1,1.121,1.32,0.749,0.749,0,0,0,.462.53,1.472,1.472,0,0,0,.528-0.18,10.639,10.639,0,0,0,6.686-9.33h3.915a36.374,36.374,0,0,1-.418,5.46,1.305,1.305,0,0,1-1.473,1.36,15.7,15.7,0,0,1-2.508-.2,4.588,4.588,0,0,1,.682,1.76c0.154,0.73.132,0.73,0.814,0.77a14.737,14.737,0,0,0,1.5.05c2.155,0,2.991-.97,3.277-2.71a43.749,43.749,0,0,0,.55-6.16c0.022-.77.022-1.54,0.066-2.17a18.918,18.918,0,0,0,2.089,1.78,1.049,1.049,0,0,0,.462.28,0.752,0.752,0,0,0,.418-0.48,7.435,7.435,0,0,1,1.275-1.65,17.6,17.6,0,0,1-7.126-8.11c-0.088-.22-0.132-0.25-0.418-0.11Zm28.05,1.65v2.11c-1.54,0-2.134-.04-2.244-0.04-0.22,0-.242.02-0.242,0.22,0,0.13.044,1.16,0.044,4.75v3.74c0,5.17-.044,6.16-0.044,6.31,0,0.22.022,0.24,0.242,0.24h1.386c0.2,0,.22-0.02.22-0.24v-1.12h5.234v0.72c0,0.22.022,0.25,0.264,0.25h1.342c0.22,0,.242-0.03.242-0.25,0-.13-0.044-1.12-0.044-6.15v-4.1c0-3.01.044-4.02,0.044-4.15,0-.2-0.022-0.22-0.242-0.22-0.154,0-.7.04-2.243,0.04v-2.11h0.176c1.891,0,2.551.04,2.683,0.04,0.22,0,.242-0.02.242-0.24v-1.56c0-.22-0.022-0.24-0.242-0.24-0.132,0-.792.04-2.683,0.04h-4.4c-1.914,0-2.551-.04-2.683-0.04-0.2,0-.22.02-0.22,0.24v1.56c0,0.22.022,0.24,0.22,0.24,0.132,0,.769-0.04,2.683-0.04h0.264Zm2.375,3.85v3.47a1.438,1.438,0,0,0,.33,1.26,1.537,1.537,0,0,0,1.078.24h0.813v1.85h-5.234v-2.07a2.647,2.647,0,0,1,.7.97,0.361,0.361,0,0,0,.264.28,0.293,0.293,0,0,0,.22-0.19,9.825,9.825,0,0,0,.923-3.35c0.066-.72.088-1.65,0.088-2.46h0.814Zm-3.013,10.23v-1.59h5.234v1.59h-5.234Zm0-10.23h0.836c0,0.66,0,1.36-.044,1.89a5.076,5.076,0,0,1-.792,2.62v-4.51Zm5.234,0v3.19h-0.329a0.387,0.387,0,0,1-.418-0.16,1.585,1.585,0,0,1-.066-0.74v-2.29h0.813Zm-3.035-1.74v-2.11h0.814v2.11h-0.814Zm6.335-2.09c0,0.2.022,0.22,0.241,0.22,0.132,0,.66-0.04,2.288-0.04h3.123v4.86h-3.343c-1.32,0-1.958-.04-2.09-0.04-0.241,0-.263.02-0.263,0.26,0,0.13.044,0.92,0.044,2.51v6.84a2.1,2.1,0,0,0,.549,1.76c0.462,0.41,1.342.57,3.431,0.57,2.068,0,3.124-.29,3.695-0.79,0.528-.49.946-1.17,1.078-3.17,0.044-.68.044-0.68-0.638-0.88a4.883,4.883,0,0,1-1.5-.62c-0.088,1.78-.176,2.51-0.506,2.88a2.848,2.848,0,0,1-2.046.44,2.5,2.5,0,0,1-1.649-.28,1.43,1.43,0,0,1-.2-0.99v-6.38h3.431v0.75c0,0.22.022,0.24,0.242,0.24h1.759c0.242,0,.264-0.02.264-0.24,0-.13-0.044-0.79-0.044-2.35v-4.95c0-1.57.044-2.22,0.044-2.36,0-.22-0.022-0.24-0.264-0.24-0.132,0-.681.05-2.309,0.05h-2.815c-1.628,0-2.156-.05-2.288-0.05-0.219,0-.241.02-0.241,0.24v1.76Zm17.183,17.36c0.242,0,.264-0.03.264-0.25v-0.83h8.82v0.72c0,0.22.022,0.25,0.242,0.25h1.869c0.242,0,.264-0.03.264-0.25,0-.11-0.044-0.7-0.044-3.87v-2.15c0-1.56.044-2.2,0.044-2.33,0-.22-0.022-0.25-0.264-0.25-0.132,0-.9.05-3.013,0.05h-7.038c-2.112,0-2.881-.05-3.013-0.05-0.22,0-.242.03-0.242,0.25,0,0.13.044,0.77,0.044,2.66v1.89c0,3.19-.044,3.78-0.044,3.91,0,0.22.022,0.25,0.242,0.25h1.869Zm0.264-6.91h8.82v3.83h-8.82v-3.83Zm-0.044-4.33c0,0.22.022,0.24,0.242,0.24,0.154,0,.726-0.05,2.485-0.05h3.409c1.76,0,2.354.05,2.486,0.05,0.22,0,.242-0.02.242-0.24v-1.54a24.048,24.048,0,0,0,4.288,2.46,1.364,1.364,0,0,0,.528.2c0.176,0,.264-0.16.4-0.57a5.758,5.758,0,0,1,.924-1.67,19.872,19.872,0,0,1-9.391-6.71,0.643,0.643,0,0,1,.176-0.16,0.376,0.376,0,0,0,.219-0.33c0-.19-0.131-0.26-0.395-0.35-0.638-.15-1.452-0.28-2.31-0.42a6.929,6.929,0,0,1-.858,1.57,19.661,19.661,0,0,1-8.467,6.73,5.137,5.137,0,0,1,1.034,1.47,0.688,0.688,0,0,0,.417.55,1.647,1.647,0,0,0,.506-0.22,27.309,27.309,0,0,0,4.069-2.6v1.59Zm2.727-1.85c-1.5,0-2.111-.02-2.375-0.04a21.871,21.871,0,0,0,4-4.16,19.717,19.717,0,0,0,4.047,4.18c-0.308,0-.968.02-2.266,0.02h-3.409Z" transform="translate(-508.938 -1392.78)"/>
  <path id="_3" data-name="※3" class="cls-1" d="M723.037,1395.9l2.583,2.61,0.255-.25-2.591-2.61,2.591-2.6-0.255-.26-2.583,2.62-2.584-2.62-0.255.26,2.592,2.6-2.592,2.61,0.255,0.25Zm2.168-.91a0.661,0.661,0,0,0-.661.66A0.666,0.666,0,1,0,725.205,1394.99Zm-4.337,0a0.663,0.663,0,0,0-.67.66,0.672,0.672,0,0,0,.67.67A0.665,0.665,0,0,0,720.868,1394.99Zm2.169-2.2a0.675,0.675,0,1,0,.661.68A0.673,0.673,0,0,0,723.037,1392.79Zm0,4.38a0.67,0.67,0,1,0,.661.67A0.67,0.67,0,0,0,723.037,1397.17Zm6.817-1.68a1.282,1.282,0,0,0,.741-1.18,1.328,1.328,0,0,0-1.563-1.29,2.768,2.768,0,0,0-1.331.32,0.184,0.184,0,0,0-.136.15,0.4,0.4,0,0,0,.04.14l0.048,0.1a0.159,0.159,0,0,0,.12.12,0.3,0.3,0,0,0,.135-0.06,1.974,1.974,0,0,1,1.093-.32,0.958,0.958,0,0,1,1.116.9c0,0.5-.359,1.04-1.443,1.04h-0.439c-0.167,0-.2.02-0.2,0.19v0.05c0,0.17.032,0.2,0.2,0.2,0.088,0,.343-0.01.518-0.01,1.117,0,1.611.41,1.611,1.08a1.361,1.361,0,0,1-1.6,1.21,2.308,2.308,0,0,1-1.132-.28,0.318,0.318,0,0,0-.127-0.05,0.172,0.172,0,0,0-.112.14l-0.04.11a0.313,0.313,0,0,0-.024.11,0.192,0.192,0,0,0,.144.16,3.017,3.017,0,0,0,1.244.24c1.514,0,2.136-.83,2.136-1.66a1.24,1.24,0,0,0-.988-1.26,0.175,0.175,0,0,1-.112-0.07A0.143,0.143,0,0,1,729.854,1395.49Z" transform="translate(-508.938 -1392.78)"/>
  <path id="_4" data-name="※4" class="cls-1" d="M884.037,1395.9l2.583,2.61,0.255-.25-2.591-2.61,2.591-2.6-0.255-.26-2.583,2.62-2.584-2.62-0.255.26,2.592,2.6-2.592,2.61,0.255,0.25Zm2.168-.91a0.661,0.661,0,0,0-.661.66A0.666,0.666,0,1,0,886.205,1394.99Zm-4.337,0a0.663,0.663,0,0,0-.67.66,0.672,0.672,0,0,0,.67.67A0.665,0.665,0,0,0,881.868,1394.99Zm2.169-2.2a0.675,0.675,0,1,0,.661.68A0.673,0.673,0,0,0,884.037,1392.79Zm0,4.38a0.67,0.67,0,1,0,.661.67A0.67,0.67,0,0,0,884.037,1397.17Zm7.686-.02c0.255,0,.725.01,0.781,0.01,0.136,0,.16-0.04.16-0.2v-0.04c0-.16-0.024-0.2-0.16-0.2-0.056,0-.526.01-0.781,0.01-0.152,0-.184-0.04-0.184-0.21,0-.63.016-1.31,0.016-1.46s-0.04-.16-0.191-0.16h-0.1c-0.151,0-.191.02-0.191,0.16s0.016,0.83.016,1.46c0,0.17-.04.21-0.207,0.21h-1.707c-0.119,0-.175-0.02-0.175-0.07a0.483,0.483,0,0,1,.056-0.14l1.2-2.15c0.207-.38.422-0.76,0.638-1.13a0.3,0.3,0,0,0,.047-0.12c0-.04-0.047-0.05-0.143-0.05h-0.183a0.247,0.247,0,0,0-.288.17c-0.159.33-.334,0.65-0.518,0.98l-0.829,1.5c-0.159.29-.319,0.58-0.494,0.88a0.5,0.5,0,0,0-.1.33V1397a0.135,0.135,0,0,0,.167.16c0.128,0,.67-0.01,1.029-0.01h1.3c0.175,0,.215.04,0.215,0.21,0,0.4-.016.86-0.016,0.99s0.04,0.16.191,0.16h0.1c0.151,0,.191-0.02.191-0.16s-0.016-.59-0.016-0.99C891.539,1397.19,891.571,1397.15,891.723,1397.15Z" transform="translate(-508.938 -1392.78)"/>
  <path id="_5" data-name="※5" class="cls-1" d="M752.037,1444.9l2.583,2.61,0.255-.25-2.591-2.61,2.591-2.6-0.255-.26-2.583,2.62-2.584-2.62-0.255.26,2.592,2.6-2.592,2.61,0.255,0.25Zm2.168-.91a0.661,0.661,0,0,0-.661.66A0.666,0.666,0,1,0,754.205,1443.99Zm-4.337,0a0.663,0.663,0,0,0-.67.66,0.672,0.672,0,0,0,.67.67A0.665,0.665,0,0,0,749.868,1443.99Zm2.169-2.2a0.675,0.675,0,1,0,.661.68A0.673,0.673,0,0,0,752.037,1441.79Zm0,4.38a0.67,0.67,0,1,0,.661.67A0.67,0.67,0,0,0,752.037,1446.17Zm5.35-1.93a0.888,0.888,0,0,1-.128.02c-0.064,0-.08-0.04-0.08-0.14l0.112-1.35c0.016-.21.056-0.24,0.263-0.24h1.619c0.247,0.01.374,0.02,0.406,0.02,0.136,0,.16-0.04.16-0.19v-0.09c0-.15-0.024-0.19-0.16-0.19h-2.5a0.178,0.178,0,0,0-.208.21c-0.008.24-.024,0.44-0.039,0.69l-0.08.89c-0.024.25-.048,0.49-0.08,0.74a0.264,0.264,0,0,0-.008.06,0.1,0.1,0,0,0,.088.11l0.064,0.03a0.258,0.258,0,0,0,.079.01,0.275,0.275,0,0,0,.128-0.04,2.461,2.461,0,0,1,1.02-.2,1.194,1.194,0,0,1,1.4,1.17,1.387,1.387,0,0,1-1.587,1.38,2.176,2.176,0,0,1-1.1-.28,0.269,0.269,0,0,0-.136-0.06,0.173,0.173,0,0,0-.111.15l-0.04.09a0.359,0.359,0,0,0-.032.13,0.164,0.164,0,0,0,.135.14,2.856,2.856,0,0,0,1.236.26,1.856,1.856,0,0,0,2.1-1.85,1.553,1.553,0,0,0-1.73-1.56A2.974,2.974,0,0,0,757.387,1444.24Z" transform="translate(-508.938 -1392.78)"/>
  <path id="シェイプ_984" data-name="シェイプ 984" class="cls-2" d="M510.947,1421.77H892.478" transform="translate(-508.938 -1392.78)"/>
  <path id="シェイプ_984-2" data-name="シェイプ 984" class="cls-2" d="M592.947,1471.77h217.4" transform="translate(-508.938 -1392.78)"/>
</svg>
