<svg id="lead-block-02.svg" xmlns="http://www.w3.org/2000/svg" width="226.062" height="32.53" viewBox="0 0 226.062 32.53">
  <defs>
    <style>
      .cls-1 {
        fill: #1147b4;
      }

      .cls-1, .cls-2 {
        fill-rule: evenodd;
      }

      .cls-2 {
        fill: none;
        stroke: #1147b4;
        stroke-linecap: round;
        stroke-width: 2px;
        stroke-dasharray: 0.001 4;
      }
    </style>
  </defs>
  <path id="UVダメージ_ケアCPX" data-name="UVダメージ ケアCPX" class="cls-1" d="M603.121,1993.14H600.35v11.13c0,2.8-1.364,3.98-3.607,3.98-2.265,0-3.607-1.18-3.607-3.98v-11.13h-2.969v11.18c0,4.15,2.551,6.2,6.51,6.2,3.937,0,6.444-2.11,6.444-6.2v-11.18Zm17.688,0h-2.925l-2.243,8.12c-0.616,2.2-1.1,4.18-1.584,6.22h-0.308c-0.528-2.09-.968-4.09-1.605-6.31l-2.222-8.03h-3.189l5.169,17.07H615.6Zm11.353,2.73c0.374-.57.506-0.79,0.682-1.1a1.866,1.866,0,0,1,.462-0.46,0.6,0.6,0,0,0,.264-0.44,0.378,0.378,0,0,0-.242-0.35,13.616,13.616,0,0,0-2.573-1.08,8.059,8.059,0,0,1-1.188,2.7,24.421,24.421,0,0,1-6.224,6.91,9.6,9.6,0,0,1,1.847,1.01,0.513,0.513,0,0,0,.352.16,0.793,0.793,0,0,0,.44-0.2,26.5,26.5,0,0,0,4.707-4.95l5.454-.11a21.11,21.11,0,0,1-2.573,4.35,23.831,23.831,0,0,0-2.837-1.76,0.606,0.606,0,0,0-.22-0.08,0.4,0.4,0,0,0-.286.15c-0.506.46-.968,1.03-1.452,1.56a18.818,18.818,0,0,1,3.167,2.07,26.692,26.692,0,0,1-8.093,5.96,6.214,6.214,0,0,1,2.089,1.12,0.675,0.675,0,0,0,.418.2,1.2,1.2,0,0,0,.55-0.2,26.735,26.735,0,0,0,7.016-5.5,24.118,24.118,0,0,1,2.133,2.14,0.42,0.42,0,0,0,.242.13,0.5,0.5,0,0,0,.264-0.11,13.168,13.168,0,0,0,1.364-1.39,0.4,0.4,0,0,0,.132-0.28,0.442,0.442,0,0,0-.132-0.31,18.794,18.794,0,0,0-2.376-2.22,34.217,34.217,0,0,0,3.233-5.32,2.784,2.784,0,0,1,.66-0.84,0.563,0.563,0,0,0,.242-0.42,0.526,0.526,0,0,0-.176-0.39,7.081,7.081,0,0,0-1.5-1.35,0.74,0.74,0,0,0-.4-0.17,0.634,0.634,0,0,0-.374.15,2.105,2.105,0,0,1-1.21.33Zm5.565-2.31a10.884,10.884,0,0,1,2.221,2.55,0.228,0.228,0,0,0,.374.07l0.924-.68a0.229,0.229,0,0,0,.066-0.36,10.266,10.266,0,0,0-2.09-2.35,0.223,0.223,0,0,0-.33-0.04Zm2.023-1.45a10.371,10.371,0,0,1,2.2,2.53,0.221,0.221,0,0,0,.373.06l0.88-.68a0.248,0.248,0,0,0,.066-0.39,9.288,9.288,0,0,0-2.089-2.27,0.222,0.222,0,0,0-.33-0.04Zm13.312,7.7a32.692,32.692,0,0,0-3.827-2.31,0.549,0.549,0,0,0-.263-0.09,0.292,0.292,0,0,0-.22.11c-0.286.31-.814,0.99-1.452,1.8a24.365,24.365,0,0,1,4.289,2.62,26.8,26.8,0,0,1-8.292,7.21,6.606,6.606,0,0,1,1.98,1.21,0.623,0.623,0,0,0,.417.16,1.011,1.011,0,0,0,.506-0.18,28.727,28.727,0,0,0,7.522-6.86,22.248,22.248,0,0,1,2.881,2.9,0.4,0.4,0,0,0,.308.2,0.334,0.334,0,0,0,.264-0.15c0.462-.51.9-0.99,1.342-1.56a0.591,0.591,0,0,0,.11-0.29,0.48,0.48,0,0,0-.132-0.31,26.061,26.061,0,0,0-3.233-2.99,43.3,43.3,0,0,0,2.507-4.35,4.864,4.864,0,0,1,.99-1.48,0.647,0.647,0,0,0,.242-0.48,0.471,0.471,0,0,0-.22-0.38,10.58,10.58,0,0,0-2.771-1.38,10.2,10.2,0,0,1-.836,2.7A25.624,25.624,0,0,1,653.062,1999.81Zm23.21,3.56c1.628,0,3.255.02,4.9,0.04,0.308,0.03.4-.06,0.4-0.33a16.091,16.091,0,0,0,0-2.06c0-.27-0.066-0.33-0.4-0.31-1.694.02-3.387,0.06-5.059,0.06h-7.082a28.325,28.325,0,0,1-4.751-.26,23.7,23.7,0,0,0,.33,2.66,0.482,0.482,0,0,0,.506.46,17.849,17.849,0,0,1,3.233-.26h7.918Zm9.354-2.55a19.134,19.134,0,0,1,4.442,2.4,0.468,0.468,0,0,0,.264.13,0.483,0.483,0,0,0,.286-0.22,9.205,9.205,0,0,0,.968-1.67,0.672,0.672,0,0,0,.088-0.25,0.429,0.429,0,0,0-.242-0.33,15.306,15.306,0,0,0-4.223-2.15,0.4,0.4,0,0,0-.418.22C686.527,1999.3,686.176,1999.94,685.626,2000.82Zm2.661-5.17a21.2,21.2,0,0,1,4.267,2.71,0.612,0.612,0,0,0,.33.15,0.242,0.242,0,0,0,.22-0.13,9.566,9.566,0,0,0,1.121-1.65,0.54,0.54,0,0,0,.088-0.29,0.328,0.328,0,0,0-.176-0.28,15.064,15.064,0,0,0-4.135-2.45,0.351,0.351,0,0,0-.549.18C689.079,1994.46,688.661,1995.08,688.287,1995.65Zm-0.924,12.54a13.924,13.924,0,0,0,1.628,2.24,0.55,0.55,0,0,0,.44.26,0.485,0.485,0,0,0,.352-0.17,7.413,7.413,0,0,1,1.275-.75,51.27,51.27,0,0,0,6.576-4.13,41.587,41.587,0,0,0,5.587-5.09,0.658,0.658,0,0,0,.242-0.5,1.121,1.121,0,0,0-.11-0.42,10.845,10.845,0,0,1-.638-2.46,40.022,40.022,0,0,1-6.334,6.13,36.348,36.348,0,0,1-6.027,3.81A10.289,10.289,0,0,1,687.363,2008.19Zm11-14.17a11.069,11.069,0,0,1,2.222,2.55,0.227,0.227,0,0,0,.373.07l0.924-.68a0.22,0.22,0,0,0,.066-0.35,10.121,10.121,0,0,0-2.089-2.36,0.223,0.223,0,0,0-.33-0.04Zm2.024-1.45a10.387,10.387,0,0,1,2.2,2.53,0.228,0.228,0,0,0,.374.07l0.88-.69a0.248,0.248,0,0,0,.066-0.39,9.273,9.273,0,0,0-2.09-2.27,0.222,0.222,0,0,0-.33-0.04Zm34.342,7.04c1.341,0,3.123.04,4.024,0.09a0.291,0.291,0,0,0,.308-0.35c0.022-.6.022-1.19,0-1.79a0.312,0.312,0,0,0-.352-0.39c-1.385.02-2.859,0.11-4.222,0.11h-7.06c0.286-.55.681-1.34,1.011-2.11a2.192,2.192,0,0,1,.66-0.91,0.48,0.48,0,0,0,.242-0.41,0.4,0.4,0,0,0-.264-0.38,17.037,17.037,0,0,0-2.639-1.01,9.262,9.262,0,0,1-.88,3.04,23.34,23.34,0,0,1-5.19,7.17,6.6,6.6,0,0,1,2.045.79,0.57,0.57,0,0,0,.308.11,0.548,0.548,0,0,0,.374-0.18,21.3,21.3,0,0,0,3.057-3.78h4.531a11.752,11.752,0,0,1-6.488,10.49,8.3,8.3,0,0,1,2.265.97,0.546,0.546,0,0,0,.374.15,0.749,0.749,0,0,0,.462-0.17,12.865,12.865,0,0,0,4.354-4.71,14.725,14.725,0,0,0,1.782-6.73h1.3Zm22.022-2.93a15.56,15.56,0,0,1-3.937,3.85,5.073,5.073,0,0,1,1.825.9,0.816,0.816,0,0,0,.528.22,0.633,0.633,0,0,0,.462-0.19,18.871,18.871,0,0,0,3.871-4.25,2.866,2.866,0,0,1,.594-0.64,0.563,0.563,0,0,0,.308-0.46,0.624,0.624,0,0,0-.176-0.39,11.172,11.172,0,0,0-1.32-1.39,0.737,0.737,0,0,0-.506-0.31,1.437,1.437,0,0,0-.418.16,4.918,4.918,0,0,1-1.517.13h-9.436c-1.759,0-2.969-.05-4.464-0.16a20.8,20.8,0,0,0,.395,2.38,0.344,0.344,0,0,0,.4.33c1.3-.09,2.64-0.18,3.893-0.18h9.5Zm-12.867,12.78a6.264,6.264,0,0,1,2,1.12,0.594,0.594,0,0,0,.439.2,1.122,1.122,0,0,0,.616-0.22,11.457,11.457,0,0,0,4-4.37,13.466,13.466,0,0,0,1.3-6.05,1.962,1.962,0,0,1,.2-0.9,0.95,0.95,0,0,0,.11-0.4,0.4,0.4,0,0,0-.374-0.42,25.269,25.269,0,0,0-2.837-.42,8,8,0,0,1,.22,2.07,10.169,10.169,0,0,1-1.078,5.19A9.717,9.717,0,0,1,743.881,2009.46Zm33.987-11.43a6.183,6.183,0,0,0-6.488-5.19c-4.4,0-7.412,3.21-7.412,8.86,0,5.63,2.991,8.82,7.412,8.82,3.475,0,5.674-1.56,6.576-5.08l-2.793-.86c-0.484,2.49-1.716,3.65-3.761,3.65-2.486,0-4.289-2.22-4.289-6.55,0-4.36,1.759-6.56,4.289-6.56,1.935,0,3.167,1.23,3.585,3.61Zm3.941-4.89v17.07h2.969v-7.17h2.882c4.09,0,6.268-1.87,6.268-5.01s-1.892-4.89-6.092-4.89h-6.027Zm2.969,2.22h2.9c2.265,0,3.255.99,3.255,2.69,0,1.74-1.1,2.77-3.365,2.77h-2.794v-5.46Zm25.606-2.22h-3.123l-2.794,4.8c-0.242.44-.462,0.86-0.7,1.27-0.242-.41-0.44-0.81-0.682-1.23l-2.75-4.84h-3.365l4.949,8.32-5.3,8.75h3.1l3.189-5.48c0.2-.37.374-0.7,0.572-1.05,0.22,0.35.373,0.68,0.593,1.05l3.168,5.48h3.409l-5.345-8.86Z" transform="translate(-586.938 -1991.25)"/>
  <path id="_2" data-name="※2" class="cls-1" d="M711.037,1994.9l2.583,2.61,0.255-.25-2.591-2.61,2.591-2.6-0.255-.26-2.583,2.62-2.584-2.62-0.255.26,2.592,2.6-2.592,2.61,0.255,0.25Zm2.168-.91a0.661,0.661,0,0,0-.661.66A0.666,0.666,0,1,0,713.205,1993.99Zm-4.337,0a0.663,0.663,0,0,0-.67.66,0.672,0.672,0,0,0,.67.67A0.665,0.665,0,0,0,708.868,1993.99Zm2.169-2.2a0.675,0.675,0,1,0,.661.68A0.673,0.673,0,0,0,711.037,1991.79Zm0,4.38a0.67,0.67,0,1,0,.661.67A0.67,0.67,0,0,0,711.037,1996.17Zm5.222,0.9c-0.1,0-.143-0.01-0.143-0.05a0.189,0.189,0,0,1,.079-0.11c1.491-1.33,2.528-2.33,2.528-3.47a1.455,1.455,0,0,0-1.619-1.42,2.4,2.4,0,0,0-1.626.61,0.228,0.228,0,0,0-.1.14,0.189,0.189,0,0,0,.08.14l0.087,0.09a0.269,0.269,0,0,0,.136.1,0.28,0.28,0,0,0,.144-0.1,1.74,1.74,0,0,1,1.227-.51,1.036,1.036,0,0,1,1.18,1.02c0,0.92-.988,1.85-2.328,3.1-0.127.11-.271,0.24-0.406,0.36a0.338,0.338,0,0,0-.152.33c0,0.17.024,0.21,0.16,0.21,0.055,0,.645-0.01,1.036-0.01h0.933c0.423,0,.949.01,1.116,0.01,0.136,0,.16-0.04.16-0.2v-0.07c0-.15-0.024-0.19-0.16-0.19-0.056,0-.239.01-0.375,0.01-0.2.01-.5,0.01-0.741,0.01h-1.22Z" transform="translate(-586.938 -1991.25)"/>
  <path id="シェイプ_984" data-name="シェイプ 984" class="cls-2" d="M588.947,2020.77H813.578" transform="translate(-586.938 -1991.25)"/>
</svg>
