<svg xmlns="http://www.w3.org/2000/svg" width="107.875" height="9.03" viewBox="0 0 107.875 9.03">
  <defs>
    <style>
      .cls-1 {
        fill-rule: evenodd;
      }
    </style>
  </defs>
  <path id="name-en.svg" class="cls-1" d="M643.963,7484.96h1.223v-3.46l2.627-4.54h-1.392l-1.847,3.2-1.847-3.2h-1.391l2.627,4.54v3.46Zm8.83-8.14a4.145,4.145,0,1,0,4.162,4.14A4.05,4.05,0,0,0,652.793,7476.82Zm0,7.17a3.026,3.026,0,1,1,2.939-3.03A2.866,2.866,0,0,1,652.793,7483.99Zm7.646,0.97v-5.59l5.805,6.08v-8.49H665.02v5.54l-5.8-6.08v8.54h1.224Zm12.862-8h-4.414v8H673.3v-1.15h-3.19v-2.52h3.094v-1.15h-3.094v-2.03h3.19v-1.15Zm3.29,0h-1.224v8h1.224v-3.31l0.239-.24,2.855,3.55h1.631l-3.634-4.38,3.61-3.62h-1.607l-3.094,3.19v-3.19Zm6.288,0v5.14a2.965,2.965,0,1,0,5.925,0v-5.14h-1.223v4.82a2.8,2.8,0,0,1-.252,1.38,1.748,1.748,0,0,1-2.975,0,2.811,2.811,0,0,1-.251-1.38v-4.82h-1.224Zm8.328,0v8h1.224v-3.28h0.215l2.291,3.28h1.475l-2.494-3.42a2.195,2.195,0,0,0,1.775-2.23,2.217,2.217,0,0,0-.948-1.88,3.563,3.563,0,0,0-2.111-.47h-1.427Zm1.224,1.13h0.419c0.6,0,1.667.1,1.667,1.23,0,1.27-1.367,1.31-1.7,1.31h-0.383v-2.54Zm11.445,6.87H705.2l-3.79-8.47-3.981,8.47h1.319l0.875-1.93h3.419Zm-3.754-3.08,1.235-2.71,1.188,2.71h-2.423Zm10.321-4.92v8h1.223v-3.28h0.216l2.291,3.28h1.475l-2.5-3.42a2.194,2.194,0,0,0,1.775-2.23,2.218,2.218,0,0,0-.947-1.88,3.565,3.565,0,0,0-2.111-.47h-1.427Zm1.223,1.13h0.42c0.6,0,1.667.1,1.667,1.23,0,1.27-1.367,1.31-1.7,1.31h-0.384v-2.54Zm7.332,6.87h1.223v-3.46l2.627-4.54h-1.391l-1.847,3.2-1.847-3.2h-1.392L719,7481.5v3.46Zm8.831-8.14a4.145,4.145,0,1,0,4.161,4.14A4.05,4.05,0,0,0,727.829,7476.82Zm0,7.17a3.026,3.026,0,1,1,2.938-3.03A2.867,2.867,0,0,1,727.829,7483.99Zm7.405-7.03h-1.223v8h1.223v-3.31l0.24-.24,2.854,3.55h1.631l-3.634-4.38,3.61-3.62h-1.607l-3.094,3.19v-3.19Zm9.827-.14a4.145,4.145,0,1,0,4.161,4.14A4.05,4.05,0,0,0,745.061,7476.82Zm0,7.17a3.026,3.026,0,1,1,2.938-3.03A2.867,2.867,0,0,1,745.061,7483.99Z" transform="translate(-641.344 -7476.41)"/>
</svg>
