<svg xmlns="http://www.w3.org/2000/svg" width="231.906" height="91.41" viewBox="0 0 231.906 91.41">
  <defs>
    <style>
      .cls-1 {
        fill: #0a45a7;
        fill-rule: evenodd;
      }
    </style>
  </defs>
  <path id="title-mask.svg" class="cls-1" d="M278.637,3480.8v22.04c0,3.4.541,6.86,2.7,9.61,2.593,3.41,7.131,5.19,11.776,5.19s9.184-1.78,11.777-5.19c2.16-2.75,2.7-6.21,2.7-9.61V3480.8h-7.023v22.63a7.833,7.833,0,0,1-1.729,5.35,7.85,7.85,0,0,1-11.452,0,7.839,7.839,0,0,1-1.728-5.35V3480.8h-7.023Zm34.234,0L328,3516.83h4.213l15.234-36.03h-7.671l-9.616,24.2-9.615-24.2h-7.671Zm51.678,36.03h7.131l3.673-22.2,9.237,22.2h2.377l9.669-22.2,3.242,22.2h7.13l-6.05-36.03H395.88l-9.993,22.9-9.562-22.9h-5.077Zm75.5,0h7.563l-15.071-36.03h-5.51l-15.5,36.03h7.617l3.187-7.56h14.531Zm-15.5-13.29,5.132-12.96,5.131,12.96H424.547Zm47.524-19.34a13.855,13.855,0,0,0-10.209-4.21c-8,0-11.56,5.29-11.56,10.59a8.358,8.358,0,0,0,2.863,6.69,17.391,17.391,0,0,0,6,3.14c2.052,0.7,4.213,1.4,5.564,2.64a4.2,4.2,0,0,1,1.4,3.24c0,3.03-2.377,4.97-5.564,4.97a8.44,8.44,0,0,1-7.562-4.8l-4.592,4.37a14.82,14.82,0,0,0,12.424,6.81c7.455,0,12.533-4.81,12.533-11.83a9.787,9.787,0,0,0-3.079-7.56c-1.837-1.68-4.484-2.65-7.293-3.62-2.269-.81-3.457-1.25-4.321-2.06a3.016,3.016,0,0,1-1.135-2.43c0-1.83,1.189-4.21,4.97-4.21a7.037,7.037,0,0,1,5.888,3.08Zm15.547-3.4H480.6v36.03h7.022v-15.34l0.81-.81,12.8,16.15h9.291l-16.044-19.39,15.234-16.64h-8.859l-13.235,15.23V3480.8ZM308.1,3540.61a16.645,16.645,0,0,0-11.493-4.46,17.621,17.621,0,1,0,.1,35.24,17.18,17.18,0,0,0,11.39-4.26v-2.97a15.9,15.9,0,0,1-11.493,5.18c-6.926,0-15.391-5.28-15.391-15.44,0-8.67,6.567-15.7,15.34-15.7a15.145,15.145,0,0,1,11.544,5.39v-2.98Zm24.88-4.46a17.62,17.62,0,1,0,17.751,17.64A17.5,17.5,0,0,0,332.975,3536.15Zm0,33.19a15.571,15.571,0,1,1,15.391-15.55A15.182,15.182,0,0,1,332.975,3569.34Zm41.655-33.19a17.62,17.62,0,1,0,17.752,17.64A17.5,17.5,0,0,0,374.63,3536.15Zm0,33.19a15.571,15.571,0,1,1,15.392-15.55A15.182,15.182,0,0,1,374.63,3569.34Zm25.956-32.73v34.22h11.8v-2.05h-9.543v-32.17h-2.257Z" transform="translate(-278.625 -3480)"/>
</svg>
