<?xml version="1.0" encoding="utf-8"?>
<!-- Generator: Adobe Illustrator 26.0.3, SVG Export Plug-In . SVG Version: 6.00 Build 0)  -->
<svg version="1.1" id="head-block-04.svg" xmlns="http://www.w3.org/2000/svg" xmlns:xlink="http://www.w3.org/1999/xlink" x="0px"
	 y="0px" viewBox="0 0 477.2 35.3" style="enable-background:new 0 0 477.2 35.3;" xml:space="preserve">
<style type="text/css">
	.st0{opacity:0.2;fill:#1E9FE0;enable-background:new    ;}
	.st1{fill:#1147B4;}
</style>
<rect id="長方形_978" x="294.4" y="25.3" class="st0" width="182.2" height="10"/>
<g>
	<path class="st1" d="M329.7,3.8v3.4h-30V3.8h13.1c-0.3-0.8-0.5-1.7-0.8-2.4l4.2-1c0.4,1.1,0.9,2.3,1.3,3.4H329.7z M328.9,28.6
		c0,1.8-0.4,2.5-1.7,3c-1.2,0.4-3.1,0.4-5.4,0.4c-0.2-0.9-0.7-2-1.2-2.9h-9.7v1.4h-3.7v-9H322V29h-0.5c1.2,0,2.4,0,2.7,0
		c0.5,0,0.7-0.1,0.7-0.6v-8.2h-20.3v11.9h-3.9v-15H329L328.9,28.6L328.9,28.6z M325.7,15.7h-21.5V8.5h21.5V15.7z M321.4,11.2h-13.2
		V13h13.2V11.2z M318.4,24.5h-7.5v1.9h7.5V24.5z"/>
	<path class="st1" d="M334.9,2.2h17.8V6h-7.4c-0.4,1.1-0.8,2.2-1.2,3.1h8.3v19.5c0,1.5-0.2,2.3-1.1,2.9c-0.8,0.5-1.9,0.6-3.4,0.6
		c-0.1-0.7-0.4-1.9-0.8-2.8h-2.2V12.6h-1.6v16.8h-2.6V12.6h-1.8v19.5h-3.3v-23h4.8c0.3-1,0.6-2,0.9-3.1h-6.5V2.2H334.9z M349.1,12.6
		h-1.6v16.5c0.6,0,1.1,0,1.3,0c0.3,0,0.4-0.1,0.4-0.4L349.1,12.6L349.1,12.6z M366.3,11.5h-2.1v16.4c0,2-0.4,3-1.6,3.7
		c-1.1,0.6-2.9,0.8-5.3,0.8c-0.2-1.1-0.8-2.8-1.4-3.8c1.6,0.1,3.1,0.1,3.6,0.1s0.7-0.2,0.7-0.7V11.5h-7.1V7.7h7.1V0.8h3.9v6.9h2.1
		L366.3,11.5L366.3,11.5z M356.5,14.2c1.3,2.4,2.5,5.4,2.8,7.4l-3.5,1.3c-0.2-2-1.3-5.2-2.5-7.6L356.5,14.2z"/>
	<path class="st1" d="M393.5,6.9c-0.8,3.3-1.9,6.3-3.3,9c2.3,5.6,6.5,10.4,12.1,12.7c-1,0.9-2.3,2.5-3,3.6c-5.1-2.5-8.9-6.7-11.6-12
		c-3.7,5.6-8.7,9.7-14.2,12.1c-0.6-1-2.1-2.9-3.2-3.6c8.1-3.2,14.6-9.6,17.6-18.9h-7.1c-2,3.8-4.5,7.1-7.2,9.6
		c-0.7-0.8-2.6-2.3-3.6-3c4.6-3.4,8-9.3,9.9-15.7l4.5,1c-0.4,1.4-1,2.8-1.5,4.1h6.9l0.8-0.2L393.5,6.9z"/>
	<path class="st1" d="M417.9,18.8c-1.2,0.3-2.4,0.7-3.6,1v8.1c0,2-0.4,2.9-1.5,3.6c-1.1,0.6-2.8,0.7-5.2,0.7c-0.1-1-0.6-2.6-1.1-3.7
		c1.3,0,2.7,0,3.2,0s0.6-0.2,0.6-0.7v-7l-3.3,0.8l-1.1-3.8c1.3-0.3,2.7-0.6,4.4-1v-6h-3.9V7.1h3.9V0.6h4V7h3.3v3.7h-3.3v5l3.1-0.8
		L417.9,18.8z M436.7,14.2c-1.3,4.7-3.5,8.4-6.4,11.3c2.2,1.6,4.9,2.7,7.9,3.4c-0.8,0.8-2,2.4-2.6,3.5c-3.3-1-6.1-2.4-8.5-4.3
		c-2.7,1.8-5.6,3.2-9,4.2c-0.4-1.1-1.4-2.8-2.1-3.7c3-0.7,5.7-1.8,8.1-3.3c-2-2.3-3.6-5-4.8-8.1l1-0.3h-1.8v-3.6h6.7V9.2H418V5.4
		h7.3V0.6h4v4.9h7.6v3.7h-7.6v4.1h4.1l0.7-0.2L436.7,14.2z M423.3,16.9c1,2.2,2.3,4.3,4,6c1.8-1.7,3.3-3.7,4.3-6H423.3z"/>
	<path class="st1" d="M473.4,14.9h-2.6v12.7c0,1.9-0.3,3-1.5,3.6s-2.8,0.7-5.1,0.7c-0.1-1.1-0.6-2.8-1.1-3.9c1.4,0.1,2.8,0.1,3.2,0
		c0.4,0,0.6-0.1,0.6-0.5V14.9h-3v-2.7h-5v20h-3.5v-20H451V9.9c-0.5,1.2-1.2,2.5-2,3.7v18.7h-3.7V18.8c-0.6,0.7-1.3,1.5-1.9,2
		c-0.4-0.8-1.5-2.9-2.2-3.7c2.6-2.3,5.2-5.8,6.6-9.4l3.2,1.1V8.6h4.5V0.7h3.5v7.9h5.1v2.8h9.3V14.9z M451,1.9
		c-1.8,3-4.5,6.3-7.1,8.3c-0.5-0.8-1.4-2.3-2.1-3c2.1-1.7,4.4-4.4,5.5-6.6L451,1.9z M454.5,14.1c0,6.5-0.4,10.7-3,13.3
		c-0.3-0.7-1.2-1.8-1.9-2.3c1.9-2.1,2-5.4,2.1-11C451.7,14.1,454.5,14.1,454.5,14.1z M462.1,7.9c-0.5-1.2-1.6-3-2.6-4.4l2.4-1.3
		c1.1,1.3,2.2,3.1,2.8,4.2L462.1,7.9z M463.3,26.5c-2.7,0-3.2-1-3.2-4v-8.4h2.9v8.4c0,0.9,0,1.2,0.2,1.2h0.8c0.3,0,0.8-0.1,1.1-0.2
		c0.1,0.7,0.2,2.1,0.3,2.7c-0.4,0.2-0.9,0.2-1.4,0.2L463.3,26.5L463.3,26.5z M472.9,6.7h-8.1V3.1h8.1V6.7z"/>
</g>
<g>
	<path d="M9.5,21c1.1,1.9,2.6,4.4,3.2,6l-2.6,1.4c-0.2-0.6-0.5-1.3-0.8-2c-5.4,1.7-6.3,2.1-7,2.5c-0.2-0.8-0.6-2.1-1.1-2.8
		c0.5-0.3,1.1-0.7,1.1-1.6V9.1H12v11.4H5.2V25l3.1-0.9c-0.4-0.7-0.7-1.3-1.1-1.9L9.5,21z M5.2,11.5v2h4.1v-2H5.2z M9.3,18v-2.1H5.2
		V18H9.3z M21.6,22.4c0,1.2-0.2,2-1,2.4c-0.7,0.4-1.8,0.5-3.3,0.5c-0.1-0.7-0.4-1.9-0.8-2.6c0.8,0,1.7,0,1.9,0
		c0.3,0,0.4-0.1,0.4-0.4V11.7H16v17.7h-2.8V9.2h8.2v13.2H21.6z"/>
	<path d="M39.2,21c-0.2,1.4-0.6,2.8-1.3,4c2.1,1,4.8,1.7,7.9,1.9c-0.6,0.6-1.3,1.7-1.6,2.4c-3.1-0.4-5.7-1.2-7.9-2.4
		c-1.1,1-2.7,1.9-4.7,2.5c-0.3-0.6-1.1-1.7-1.7-2.3c1.8-0.4,3.2-1,4.2-1.8c-1.1-0.9-2-2.1-2.8-3.4l2.2-0.7c0.6,0.9,1.3,1.7,2.1,2.4
		c0.5-0.8,0.7-1.7,0.9-2.6h-5.1v-6.7h5.3v-1.6h-5.8v-2.1c-0.4,0.9-0.9,1.8-1.4,2.6v16.3h-2.6V17.1c-0.6,0.8-1.2,1.5-1.9,2.2
		c-0.3-0.7-1-2.1-1.4-2.8c2.2-2.1,4.3-5.3,5.6-8.6l2.5,0.8c-0.2,0.5-0.4,1-0.6,1.5h5.6V8.1h2.7v2.1h6.1v2.5h-6.1v1.6h5.5V21H39.2z
		 M36.7,18.8v-0.3v-2h-2.8v2.3H36.7z M39.4,16.5v2v0.3h2.9v-2.3H39.4z"/>
	<path d="M68,11.1v2.6H55.7c-0.8,1.6-1.6,3.1-2.7,4.5v11.1h-2.8v-8c-0.6,0.6-1.3,1.1-2,1.6c-0.3-0.7-0.9-2-1.4-2.6
		c2.4-1.6,4.3-4,5.7-6.6h-5v-2.6h6.2c0.4-1.1,0.7-2.1,1-3.2l2.9,0.7c-0.3,0.9-0.6,1.7-0.9,2.5H68z M62.5,26.3h5.4v2.5H54.1v-2.5h5.6
		V21H55v-2.5h4.7v-3.8h2.8v3.8H67V21h-4.6L62.5,26.3L62.5,26.3z"/>
	<path d="M74.1,18.5c0,3.2-0.3,7.9-2.3,10.9c-0.4-0.5-1.5-1.3-2.1-1.5c1.7-2.7,1.8-6.6,1.8-9.4v-5.3H91v2.2H74.1V18.5z M80.3,12.5
		h-7.5V8.7h7.5V12.5z M90.3,19.6c-0.4,2.1-1.1,3.8-1.9,5.3c0.9,1.1,2.1,1.9,3.4,2.4c-0.6,0.5-1.3,1.4-1.7,2.1
		c-1.2-0.6-2.3-1.5-3.2-2.6c-0.9,1-2.1,1.8-3.4,2.5c-0.3-0.5-1.1-1.4-1.6-1.9v1.8h-2.2v-1.6c-2.1,0.3-4.2,0.5-5.8,0.7l-0.3-2
		l1.5-0.1v-6h-0.7v-1.7h3v-0.9h-2.5v-1.7h7.6v1.7h-2.7v0.9h3v1.7H82v1.4c1.3-1.4,2.1-3.7,2.5-6.1l2.3,0.4c-0.1,0.5-0.2,1-0.3,1.4H91
		v2.1h-0.7V19.6z M77.8,10.1h-2.6v1h2.6V10.1z M77.2,20.4v0.9h2.4v-0.9H77.2z M77.2,23.6h2.4v-1h-2.4V23.6z M79.7,25.9v-1h-2.4v1.2
		L79.7,25.9z M89.5,12.5h-7.6V8.7h7.6V12.5z M81.9,27.6c1.5-0.7,2.7-1.5,3.6-2.6c-0.4-0.8-0.8-1.6-1.2-2.5c-0.2,0.3-0.4,0.6-0.7,0.9
		c-0.4-0.4-1.2-1.2-1.7-1.6C81.9,21.8,81.9,27.6,81.9,27.6z M86.9,10.1h-2.7v1h2.7V10.1z M85.7,19.6l-0.1,0.3c0.3,1,0.7,2,1.2,2.9
		c0.5-0.9,0.8-2,1-3.2C87.8,19.6,85.7,19.6,85.7,19.6z"/>
	<path d="M97.8,12.2h-4.3V9.7h4.3V7.9h2.7v1.8h2.6v2.5h-2.6V14h-2.7V12.2z M93.5,14.8H114v2.6h-3v9.1c0,1.5-0.4,2.2-1.4,2.6
		c-1.1,0.4-2.6,0.4-4.7,0.4c-0.1-0.8-0.6-1.9-1-2.6c1.4,0.1,3.2,0.1,3.6,0.1c0.5,0,0.6-0.1,0.6-0.5v-9H93.5V14.8z M98.6,25.5v1.7
		h-2.7v-8.6h9.4v6.9H98.6z M98.6,20.9v2.4h3.9v-2.4H98.6z M114,9.7v2.4h-4.4v1.8h-2.7v-1.8h-2.8V9.7h2.8V7.9h2.7v1.8H114z"/>
	<path d="M136.9,11.5c0,0,0,0.9,0,1.2c-0.3,10.3-0.6,13.9-1.5,15.2c-0.6,0.9-1.3,1.1-2.2,1.3c-0.9,0.1-2.3,0.1-3.6,0
		c0-0.8-0.4-1.9-0.9-2.7c1.5,0.1,2.8,0.1,3.4,0.1c0.5,0,0.7-0.1,1-0.4c0.7-0.7,1-4.2,1.2-12.3h-4.9c-0.6,1.4-1.3,2.6-2,3.6
		c-0.4-0.3-1.1-0.9-1.8-1.3V27h-6.1v1.7H117V11.6h2.6c0.3-1.1,0.6-2.6,0.7-3.7l3,0.4c-0.4,1.1-0.8,2.3-1.2,3.3h3.6v3.7
		c1.3-1.9,2.4-4.7,3.1-7.4l2.6,0.6c-0.3,1-0.6,2-0.9,2.9h6.4V11.5z M123.1,14h-3.7v3.7h3.7V14z M123.1,24.6v-4.5h-3.7v4.5H123.1z
		 M130.8,23.4c-0.6-1.4-2.1-3.6-3.2-5.3l2.1-1.2c1.1,1.6,2.7,3.8,3.4,5.1L130.8,23.4z"/>
	<path d="M160.1,24.2c-0.9,0.5-1.8,0.9-2.6,1.3c0.9,0.7,2,1.2,3.2,1.5c-0.6,0.5-1.3,1.4-1.6,2.1c-3.1-1-5.1-3.2-6.3-6.1
		c-0.7,0.6-1.4,1.1-2.2,1.6v2l3.2-0.6c-0.1,0.6-0.1,1.5,0,2c-4.2,0.9-5,1.1-5.4,1.4c-0.1-0.5-0.6-1.4-0.9-1.8
		c0.4-0.2,0.9-0.6,0.9-1.6v-0.2c-0.6,0.3-1.3,0.5-1.9,0.7c-0.3-0.4-0.7-0.9-1.1-1.3v0.2c-2.1,0.6-4.4,1.2-6.2,1.7l-0.5-2.5
		c0.7-0.1,1.4-0.3,2.3-0.5v-5.7h-1.8V16h1.8v-4.3h-2V9.2h6.2v2.4h-1.9v4.3h1.7v2.4h-1.7v5.1l1.7-0.5l0.2,1.6
		c1.6-0.4,3.3-1.1,4.7-1.9h-2.6v-5h11.5v5H155c0.3,0.6,0.6,1.1,1,1.6c0.8-0.5,1.7-1.1,2.3-1.5L160.1,24.2z M160.1,16.8H146v-2.2
		h14.1V16.8z M159.4,13.9h-12.5V8.6h12.5V13.9z M150.5,10.5h-1.4V12h1.4V10.5z M149.8,20.7h6.5v-1.3h-6.5V20.7z M153.8,10.5h-1.4V12
		h1.4V10.5z M157.1,10.5h-1.5V12h1.5V10.5z"/>
	<path d="M169.8,23.8c-2.4,1-5,2-7.1,2.9l-0.9-2.8c0.8-0.2,1.7-0.5,2.6-0.9v-7h-2.2v-2.6h2.2V8.2h2.7v5.2h2V16h-2v6.2
		c0.7-0.3,1.4-0.5,2.1-0.8L169.8,23.8z M180.4,27c0.2,0,0.4,0,0.5,0s0.2-0.2,0.3-0.5c0-0.3,0.1-0.9,0.1-1.7c0.5,0.4,1.4,0.9,2.1,1.1
		c-0.1,0.9-0.2,1.8-0.3,2.2c-0.2,0.4-0.5,0.7-1,0.9c-0.3,0.1-1,0.2-1.4,0.2h-1.5c-0.6,0-1.3-0.2-1.7-0.6s-0.6-0.9-0.6-2.3v-2.8h-1.7
		c-0.4,3-1.5,4.9-5.8,6c-0.2-0.6-0.9-1.6-1.4-2.1c3.5-0.7,4.4-1.9,4.7-3.9h-1.9v-6.9h11v6.9h-2.4v2.9c0,0.3,0,0.5,0.1,0.6
		s0.2,0.1,0.4,0.1h0.5V27z M182.7,15.7h-13v-2.3h2.8c-0.1-0.5-0.3-1.1-0.5-1.5l2.2-0.4c0.3,0.6,0.6,1.4,0.7,2h2.6
		c0.3-0.6,0.5-1.4,0.7-2l2.5,0.5c-0.3,0.5-0.5,1-0.8,1.5h2.9L182.7,15.7L182.7,15.7z M182.1,11.5h-11.8V9.3h4.6
		c-0.1-0.4-0.3-0.8-0.4-1.1l2.6-0.5c0.2,0.5,0.4,1.1,0.6,1.6h4.4L182.1,11.5L182.1,11.5z M173.1,19.2h5.9v-1h-5.9V19.2z M173.1,21.7
		h5.9v-1h-5.9V21.7z"/>
	<path d="M196.7,12.4V16l0.5-0.5c2.5,1.2,6.1,3.2,7.8,4.6l-2,2.5c-1.3-1.2-4-2.9-6.3-4.2v10.9h-2.9v-17h-8.3V9.6H206v2.8
		C206,12.4,196.7,12.4,196.7,12.4z"/>
	<path d="M224,26.6c2.1,0,2.4-0.6,2.7-3.6c0.7,0.4,1.8,0.9,2.6,1c-0.5,3.8-1.4,5.1-5.1,5.1H217c-4,0-5.2-0.9-5.2-4.5v-6.2l-3.2,1
		l-0.7-2.5l3.9-1.2V9.5h2.7v5.4l3.5-1.1V7.9h2.7v5l4.3-1.3l0.7-0.5l2,0.6l-0.1,0.4c-0.1,3.2-0.5,7.5-1,10.3l-2.3-0.6
		c0.3-1.9,0.5-4.8,0.6-7.5l-4.2,1.4v8.6H218v-7.8l-3.5,1.1v7c0,1.7,0.3,2,2.6,2H224z"/>
	<path d="M238.6,14c-0.5,0.9-1.2,1.9-1.9,2.8v12.6H234v-9.5c-0.7,0.7-1.4,1.3-2,1.9c-0.2-0.6-0.9-2.2-1.3-2.8c2-1.4,4.2-3.7,5.5-5.9
		L238.6,14z M238.2,9c-1.5,2.1-3.8,4.4-5.9,5.8c-0.3-0.6-1-1.7-1.4-2.3c1.7-1.1,3.7-3,4.6-4.5L238.2,9z M251.8,21.5
		c-1.1,0.9-2.4,1.8-3.5,2.4c1.1,1.3,2.5,2.3,4.2,3c-0.6,0.5-1.4,1.6-1.8,2.4c-3.9-1.8-6-5.3-7.3-9.9H242v6.5l3.2-0.7
		c0,0.8,0,1.9,0.1,2.5c-4.5,1.2-5.4,1.5-5.9,1.8c-0.2-0.6-0.8-1.7-1.2-2.1c0.5-0.3,1.1-0.9,1.1-2V8.8h11.1v10.6h-4.6
		c0.3,1,0.7,1.9,1.2,2.8c1-0.7,2.3-1.7,3.1-2.5L251.8,21.5z M242,11.2V13h5.8v-1.8H242z M242,17h5.8v-1.8H242V17z"/>
	<path d="M262.1,19.4c0,0,0,0.7-0.1,1.1c-0.3,5-0.6,7.1-1.3,7.8c-0.5,0.6-1,0.8-1.8,0.9c-0.6,0.1-1.7,0.1-2.8,0
		c0-0.8-0.3-1.8-0.8-2.5c0.9,0.1,1.9,0.1,2.3,0.1s0.6,0,0.8-0.3c0.4-0.4,0.6-1.7,0.8-4.7H254c0.4-2,0.7-5.1,0.9-7.6h4.4v-2.7h-4.9
		V9.1h7.4v7.7h-4.7c-0.1,0.9-0.2,1.8-0.3,2.6H262.1z M273.3,29.5c-0.1-0.4-0.3-0.9-0.5-1.4c-3.7,0.3-7.6,0.6-10.4,0.8l-0.3-2.7
		c1.4,0,3.2-0.1,5.2-0.3v-2.6h-4.4v-6.5h4.4V15h2.6v1.8h4.5v6.5h-1.2c1,1.6,2.2,3.7,2.6,5.1L273.3,29.5z M273.3,15.9
		c-0.2-0.4-0.5-0.9-0.8-1.4c-7.4,0.6-8.5,0.8-9.2,1c-0.2-0.5-0.6-1.7-0.9-2.3c0.4-0.1,0.8-0.4,1.2-1c0.4-0.5,1.7-2.4,2.5-4.2
		l2.9,0.7c-0.8,1.4-1.9,2.9-2.9,4.2l4.9-0.4c-0.4-0.6-0.9-1.1-1.4-1.6l1.9-1.2c1.4,1.4,3.1,3.4,3.8,4.9L273.3,15.9z M267.3,21.2
		v-2.1h-2v2.1H267.3z M269.9,19.1v2.1h2v-2.1H269.9z M271.7,25.7c-0.3-0.5-0.6-1-0.8-1.5l2.1-0.9h-3.1v2.5L271.7,25.7z"/>
	<path d="M278.4,25.5c0-1.3,0.9-2.2,2.1-2.2s2.1,0.9,2.1,2.2c0,1.2-0.9,2.2-2.1,2.2S278.4,26.7,278.4,25.5z M278.9,13.1l-0.1-3.2
		h3.4l-0.1,3.2l-0.5,8.5h-2.2L278.9,13.1z"/>
</g>
</svg>
