<svg id="head-block-05.svg" xmlns="http://www.w3.org/2000/svg" width="259.25" height="35.25" viewBox="0 0 259.25 35.25">
  <defs>
    <style>
      .cls-1 {
        fill: #1e9fe0;
        opacity: 0.2;
      }

      .cls-2 {
        fill: #1147b4;
        fill-rule: evenodd;
      }
    </style>
  </defs>
  <rect id="長方形_978" data-name="長方形 978" class="cls-1" y="25.25" width="259.25" height="10"/>
  <path id="アレルガード機能" class="cls-2" d="M596,3461.57a24.664,24.664,0,0,1-6.2,6.09,7.96,7.96,0,0,1,2.876,1.43,1.345,1.345,0,0,0,.831.35,1,1,0,0,0,.728-0.32,29.431,29.431,0,0,0,6.1-6.71,4.233,4.233,0,0,1,.936-1.01,0.92,0.92,0,0,0,.485-0.73,1.021,1.021,0,0,0-.277-0.63,17.8,17.8,0,0,0-2.079-2.19,1.177,1.177,0,0,0-.8-0.49,2.5,2.5,0,0,0-.658.24,7.234,7.234,0,0,1-2.391.21H580.681c-2.772,0-4.677-.07-7.033-0.24a32.759,32.759,0,0,0,.624,3.76,0.544,0.544,0,0,0,.623.52c2.044-.14,4.158-0.28,6.133-0.28H596Zm-20.268,20.22a9.807,9.807,0,0,1,3.152,1.78,0.971,0.971,0,0,0,.693.31,1.728,1.728,0,0,0,.97-0.35,18.038,18.038,0,0,0,6.306-6.92,21.374,21.374,0,0,0,2.044-9.57,3.19,3.19,0,0,1,.312-1.43,1.436,1.436,0,0,0,.173-0.63,0.637,0.637,0,0,0-.589-0.66,38.232,38.232,0,0,0-4.469-.66,12.606,12.606,0,0,1,.346,3.27,16.2,16.2,0,0,1-1.7,8.22C581.478,3477.93,579.5,3479.81,575.727,3481.79Zm37.725-17.78a14.428,14.428,0,0,1,.381-4.32,2.589,2.589,0,0,0,.173-0.73,0.661,0.661,0,0,0-.554-0.66,36.812,36.812,0,0,0-4.5-.77,33.181,33.181,0,0,1,.381,6.06l-0.069,13.09a6.869,6.869,0,0,1-.139,1.98,1.43,1.43,0,0,0-.173.59,0.852,0.852,0,0,0,.208.56,10.91,10.91,0,0,0,2.113,2.37,0.929,0.929,0,0,0,.589.27,1.012,1.012,0,0,0,.624-0.27,7.965,7.965,0,0,1,1.94-1.12,78.054,78.054,0,0,0,8.488-4.31,56.145,56.145,0,0,0,8.662-5.99,1.1,1.1,0,0,0,.346-1.39,15.8,15.8,0,0,1-.554-4.04,43.081,43.081,0,0,1-9.181,7.1,57.768,57.768,0,0,1-8.835,4.39Zm41.119-.07c0-2.51,0-3.2.312-3.87a2.194,2.194,0,0,0,.277-0.87,0.641,0.641,0,0,0-.624-0.59,34.509,34.509,0,0,0-4.33-.73,27.979,27.979,0,0,1,.346,6.06v10.89c0,1.78.035,2.19-.208,2.65a1.077,1.077,0,0,0-.138.52,1.375,1.375,0,0,0,.312.73,9.862,9.862,0,0,0,2.078,2.12,1.422,1.422,0,0,0,.728.28,1.069,1.069,0,0,0,.693-0.28c0.312-.24.381-0.31,1-0.73a56.893,56.893,0,0,0,6.167-4.17,44.6,44.6,0,0,0,5.127-4.56,1.343,1.343,0,0,0,.52-0.87,1.774,1.774,0,0,0-.208-0.6,9.983,9.983,0,0,1-1.074-3.51,33.331,33.331,0,0,1-6.063,5.92,34.936,34.936,0,0,1-4.92,3.23v-11.62Zm-12.091-3.87a9.483,9.483,0,0,1,.346,2.93c-0.035,5.57-.485,7.48-1.455,9.85a17.225,17.225,0,0,1-5.751,6.92,12.25,12.25,0,0,1,2.945,1.47,1.184,1.184,0,0,0,.658.27,1.555,1.555,0,0,0,.9-0.45,17.951,17.951,0,0,0,4.919-6.54,26.14,26.14,0,0,0,1.871-10.23,5.055,5.055,0,0,1,.416-2.37,0.692,0.692,0,0,0-.45-1.08A28.383,28.383,0,0,0,642.48,3460.07Zm35.818,2.82c-2.01,0-3.569,0-5.751-.14,0.069,1.29.138,2.55,0.277,3.38,0.035,0.42.173,0.63,0.52,0.59,1.628-.1,3.291-0.17,4.989-0.17h3.118a20.371,20.371,0,0,1-2.5,7.52,19.313,19.313,0,0,1-8.142,7.1,8.749,8.749,0,0,1,2.911,2.02,0.888,0.888,0,0,0,.658.34,1.6,1.6,0,0,0,.8-0.27,22.4,22.4,0,0,0,7.345-7.17c1.455-2.3,2.39-5.43,3.083-9.65h7a49.05,49.05,0,0,1-1.04,10.45c-0.415,1.56-.866,2.12-1.8,2.43a14.1,14.1,0,0,1-4.712.32,7.246,7.246,0,0,1,2.009,3.16,0.841,0.841,0,0,0,.832.7,15.075,15.075,0,0,0,3.5-.38c2.218-.56,3.4-2.02,4.088-4.7a59.464,59.464,0,0,0,1.282-11.45c0.07-1.85.139-3.24,0.139-3.69,0-.39-0.173-0.49-0.728-0.49-1.593,0-3.222.07-4.815,0.07h-5.267c0.174-1.71.208-2.54,0.312-3.66a3.236,3.236,0,0,1,.451-1.63,1.575,1.575,0,0,0,.173-0.66,0.714,0.714,0,0,0-.589-0.73,25.958,25.958,0,0,0-4.5-.73,13.383,13.383,0,0,1,.242,2.75c-0.034,1.87-.1,2.99-0.242,4.69H678.3Zm14.794-5.08a17.4,17.4,0,0,1,3.5,4.04,0.359,0.359,0,0,0,.589.1l1.455-1.07a0.355,0.355,0,0,0,.1-0.56,16.058,16.058,0,0,0-3.291-3.73,0.366,0.366,0,0,0-.52-0.07Zm3.187-2.29a16.311,16.311,0,0,1,3.465,4,0.353,0.353,0,0,0,.589.1l1.386-1.08a0.4,0.4,0,0,0,.1-0.62,14.61,14.61,0,0,0-3.292-3.59,0.355,0.355,0,0,0-.519-0.07Zm24.448,16.63c2.35,0,4.7.04,7.081,0.07,0.444,0.04.571-.1,0.571-0.52a27.87,27.87,0,0,0,0-3.27c0-.42-0.1-0.52-0.571-0.49-2.445.04-4.89,0.11-7.3,0.11H710.28a37.07,37.07,0,0,1-6.859-.42,41.6,41.6,0,0,0,.476,4.21,0.725,0.725,0,0,0,.731.73,23.107,23.107,0,0,1,4.668-.42h11.431Zm19.028-12.11c0-1.95,0-2.82.242-3.27a1.82,1.82,0,0,0,.277-0.8,0.637,0.637,0,0,0-.658-0.59,24.84,24.84,0,0,0-4.331-.56,26.6,26.6,0,0,1,.347,5.15v17.12c0,2.23-.035,4.29-0.139,6.86,0,0.42.173,0.52,0.659,0.52a22.657,22.657,0,0,0,3.083,0c0.485,0,.658-0.1.624-0.52-0.07-2.5-.139-4.56-0.139-6.82v-7.69a38.393,38.393,0,0,1,9.112,4.45,0.538,0.538,0,0,0,.381.18,0.586,0.586,0,0,0,.451-0.39,20.742,20.742,0,0,0,1.489-3.02,0.647,0.647,0,0,0-.381-0.91,48.782,48.782,0,0,0-11.017-4.73v-4.98Zm6.236-2.3a17.4,17.4,0,0,1,3.5,4.04,0.359,0.359,0,0,0,.589.1l1.455-1.07a0.355,0.355,0,0,0,.1-0.56,16.058,16.058,0,0,0-3.291-3.73,0.355,0.355,0,0,0-.52-0.06Zm3.187-2.29a16.289,16.289,0,0,1,3.465,4,0.353,0.353,0,0,0,.589.1l1.386-1.08a0.4,0.4,0,0,0,.1-0.62,14.591,14.591,0,0,0-3.292-3.59,0.354,0.354,0,0,0-.519-0.07Zm33.292,18.48h3.395c3.361,0,4.5.07,4.712,0.07,0.381,0,.415-0.04.415-0.39v-2.29c0-.35-0.034-0.39-0.415-0.39-0.208,0-1.178.07-3.742,0.07l0.935-.8a0.482,0.482,0,0,0,.243-0.31,0.5,0.5,0,0,0-.243-0.35,16.737,16.737,0,0,0-1.8-1.39l2.668-.38,0.277,1.01c0.069,0.38.138,0.41,0.589,0.24l1.247-.52c0.381-.18.485-0.21,0.381-0.52a30.6,30.6,0,0,0-1.663-4.36c-0.173-.34-0.208-0.41-0.624-0.24l-1.143.45c-0.45.18-.485,0.21-0.346,0.56l0.589,1.32c-1,.11-2.01.21-2.945,0.28,1.247-1.39,2.667-3.06,3.88-4.66a4.36,4.36,0,0,1,1.074-1.15,0.438,0.438,0,0,0,.381-0.42,0.558,0.558,0,0,0-.312-0.45,15.827,15.827,0,0,0-2.286-1.36,10.21,10.21,0,0,1-.866,1.74c-0.347.52-.728,1.08-1.144,1.64-0.346-.45-0.727-0.94-1.143-1.43a33.244,33.244,0,0,0,2.321-3.27,1.686,1.686,0,0,1,.555-0.63,0.482,0.482,0,0,0,.311-0.38,0.51,0.51,0,0,0-.346-0.45,21.3,21.3,0,0,0-2.287-1.15,6.678,6.678,0,0,1-.554,1.32,18.538,18.538,0,0,1-1.7,2.72l-0.415-.42c-0.278-.25-0.278-0.28-0.589.03l-1.248,1.5v-0.14c-0.034-2.78-.034-3.48.139-3.93a1.663,1.663,0,0,0,.208-0.7,0.577,0.577,0,0,0-.624-0.38,29.641,29.641,0,0,0-3.222-.24,36.715,36.715,0,0,1,.381,5.36v0.62a22.212,22.212,0,0,0-2.183-1.25,6.383,6.383,0,0,1-.658,1.39l-1.109,1.64a16.938,16.938,0,0,0-1.108-1.36,32.474,32.474,0,0,0,2.286-3.45,2.093,2.093,0,0,1,.589-0.62,0.438,0.438,0,0,0,0-.84,14.643,14.643,0,0,0-2.39-1.11,7.984,7.984,0,0,1-.52,1.32,21.713,21.713,0,0,1-1.732,2.82l-0.555-.52c-0.277-.25-0.381-0.21-0.588.07l-1.144,1.32a0.7,0.7,0,0,0-.208.38,0.433,0.433,0,0,0,.208.32,27.392,27.392,0,0,1,3.5,3.93c-0.8,1.01-1.593,2.02-2.39,2.92-0.277,0-.554,0-0.9-0.03,0.139,0.8.312,1.74,0.485,2.47a0.507,0.507,0,0,0,.451.45,0.955,0.955,0,0,0,.45-0.17,3.14,3.14,0,0,1,1.109-.28c1.628-.18,3.187-0.38,4.919-0.66l0.174,0.94c0.069,0.38.138,0.42,0.554,0.24l1-.45c0.381-.18.45-0.21,0.346-0.59a26.577,26.577,0,0,0-1.316-4.32c-0.139-.35-0.208-0.38-0.555-0.24l-0.9.35c-0.415.17-.485,0.17-0.346,0.55a12.513,12.513,0,0,1,.485,1.36l-2.806.24c1.108-1.25,2.6-3.13,3.811-4.73a3.155,3.155,0,0,1,1.108-1.15,81.483,81.483,0,0,0,1.109,10.3H773.6c-3.395,0-4.539-.07-4.746-0.07-0.347,0-.382.04-0.382,0.39v2.29c0,0.35.035,0.39,0.382,0.39,0.138,0,.658-0.04,1.9-0.04-0.277,4.49-1.559,7.31-3.915,9.3a6.669,6.669,0,0,1,1.8,1.46,1.588,1.588,0,0,0,.762.62,1.452,1.452,0,0,0,.693-0.59,15.03,15.03,0,0,0,3.326-6.92,18.467,18.467,0,0,1,3.395,2.43,0.583,0.583,0,0,0,.312.21,0.493,0.493,0,0,0,.381-0.35l1.04-1.53c0.207-.28.242-0.42-0.035-0.63a21.751,21.751,0,0,0-3.257-2.15,0.444,0.444,0,0,0-.693.17l-1.074,1.46a31.374,31.374,0,0,0,.52-3.51h5.266a27.422,27.422,0,0,0,.728,2.68,17.206,17.206,0,0,0,1.039,2.85,24.215,24.215,0,0,1-7.518,3.48,6.718,6.718,0,0,1,1.316,1.74c0.278,0.59.416,0.8,0.693,0.8a3.515,3.515,0,0,0,.832-0.24,26.154,26.154,0,0,0,6.167-3.24c1.524,2.13,3.395,3.34,5.127,3.34,1.837,0,2.841-1.32,3.4-4.66,0.208-1.08.208-1.08-.8-1.6a8.433,8.433,0,0,1-1.628-1.05c-0.208,2.93-.659,3.87-1.456,3.87-0.589,0-1.42-.63-2.217-1.81a21.441,21.441,0,0,0,2.6-2.79,3.089,3.089,0,0,1,1-.9,0.585,0.585,0,0,0,.381-0.49,0.675,0.675,0,0,0-.346-0.52,15.141,15.141,0,0,0-2.5-1.36,7.823,7.823,0,0,1-.97,1.64,15.124,15.124,0,0,1-1.593,1.74,19.371,19.371,0,0,1-.763-2.4Zm-0.9-7.94a16.067,16.067,0,0,0,.45,2.37,0.477,0.477,0,0,0,.416.45,1.319,1.319,0,0,0,.554-0.17,2.658,2.658,0,0,1,1.04-.28l0.935-.11-0.8.6a0.608,0.608,0,0,0-.346.38,0.654,0.654,0,0,0,.277.31,14.043,14.043,0,0,1,1.732,1.46h-3.984a75.251,75.251,0,0,1-1.213-11.52,23.728,23.728,0,0,1,3.534,3.97c-0.727.94-1.455,1.81-2.113,2.58Zm-15.8,19.63c0.347,0,.381-0.03.381-0.38,0-.56-0.208-7.87-0.242-17.06a21.837,21.837,0,0,0,1.282,3.8,0.937,0.937,0,0,0,.415.62,0.656,0.656,0,0,0,.347-0.59,14.413,14.413,0,0,1,1.108-2.43,19.368,19.368,0,0,1-2.875-5.68c1.559,0.04,2.079.07,2.286,0.07,0.347,0,.382-0.03.382-0.38v-2.51c0-.31-0.035-0.34-0.382-0.34-0.207,0-.762.07-2.459,0.07v-2.48c0-2.26.069-2.81,0.242-3.23a2.322,2.322,0,0,0,.139-0.7,0.45,0.45,0,0,0-.52-0.38,27.814,27.814,0,0,0-3.257-.24,24.08,24.08,0,0,1,.277,4.59v2.44h-0.242c-2.148,0-2.772-.07-2.98-0.07-0.311,0-.346.03-0.346,0.34v2.51c0,0.35.035,0.38,0.346,0.38,0.208,0,.832-0.07,2.945-0.07h0.07a32.05,32.05,0,0,1-4.193,10.41,9.72,9.72,0,0,1,1.213,2.54,0.767,0.767,0,0,0,.346.56,0.965,0.965,0,0,0,.486-0.59,28.367,28.367,0,0,0,2.425-6.62c-0.07,8.01-.208,14.52-0.208,15.04,0,0.35.035,0.38,0.346,0.38h2.668Zm43.828-14.93c0-2.92.069-4.45,0.069-4.66,0-.35-0.034-0.39-0.381-0.39-0.208,0-1.074.07-3.638,0.07h-4.33c-2.564,0-3.43-.07-3.673-0.07-0.346,0-.381.04-0.381,0.39,0,0.24.069,1.53,0.069,4.35v10.44c0,2.82-.069,4.04-0.069,4.28,0,0.31.035,0.35,0.381,0.35h2.633c0.347,0,.381-0.04.381-0.35,0-.21-0.069-1.53-0.069-4.28v-2.26h5.751v2.61a0.919,0.919,0,0,1-1.143,1.04,12.938,12.938,0,0,1-2.079-.14,7.125,7.125,0,0,1,.693,2.06c0.208,1.04.208,1.04,1.282,1.04,2.6-.04,3.257-0.28,3.811-0.77,0.693-.62.762-1.56,0.762-2.75,0-1.07-.069-2.95-0.069-4.73v-6.23Zm-3.257-2.16v2.33H800.59v-2.33h5.751Zm-5.751,7.35v-2.34h5.751v2.34H800.59Zm15.279,1.91a71.344,71.344,0,0,0,7.553-3.31,5.288,5.288,0,0,1,1.559-.62,0.548,0.548,0,0,0,.554-0.42,1.2,1.2,0,0,0-.346-0.66,18.477,18.477,0,0,0-2.148-2.26,8.7,8.7,0,0,1-1.871,1.46,33.413,33.413,0,0,1-5.3,2.54v-1.67a4.011,4.011,0,0,1,.173-1.85,1.338,1.338,0,0,0,.208-0.62c0-.25-0.208-0.35-0.589-0.42-1.143-.14-2.356-0.21-3.464-0.24a18.379,18.379,0,0,1,.207,3.37v8.77c0,1.4.451,2.16,1.213,2.54,1.039,0.53,2.91.63,5.474,0.63,2.806,0,4.851-.45,5.751-1.08,0.971-.69,1.386-1.7,1.629-3.86,0.1-.91.1-0.94-0.762-1.15a9.866,9.866,0,0,1-2.495-.98c-0.069,1.88-.069,2.68-0.589,3.24-0.45.45-2.009,0.63-3.361,0.63a8.663,8.663,0,0,1-2.771-.25,1.025,1.025,0,0,1-.624-1.18v-2.61Zm-0.035-20.67a4.648,4.648,0,0,1,.174-1.92,1.227,1.227,0,0,0,.208-0.59c0-.21-0.208-0.35-0.589-0.38-1.144-.14-2.356-0.21-3.465-0.25a18.907,18.907,0,0,1,.208,3.41v8.25c0,1.29.381,1.95,1.178,2.27a14.99,14.99,0,0,0,5.3.59c2.841,0,4.815-.21,5.786-0.91,0.97-.66,1.351-1.63,1.593-3.72,0.035-.94.035-0.94-0.8-1.18a11.491,11.491,0,0,1-2.425-1.01c-0.069,1.91-.069,2.61-0.485,3.02-0.416.46-1.628,0.63-3.464,0.63a9.816,9.816,0,0,1-2.634-.21,0.855,0.855,0,0,1-.589-1.04v-2.06a53.67,53.67,0,0,0,7.345-2.99,6.55,6.55,0,0,1,1.594-.63,0.516,0.516,0,0,0,.485-0.41,0.838,0.838,0,0,0-.312-0.6,17.385,17.385,0,0,0-2.113-2.22,7.776,7.776,0,0,1-1.906,1.42,40.548,40.548,0,0,1-5.093,2.23v-1.7Zm-10.22.27c-0.381.18-.451,0.28-0.243,0.6,0.485,0.73.936,1.46,1.386,2.22-1.732.21-3.568,0.35-5.439,0.49,0.693-1.32,1.455-2.96,2.009-4.18a2.7,2.7,0,0,1,.624-1,0.9,0.9,0,0,0,.381-0.63,0.62,0.62,0,0,0-.554-0.52,20.748,20.748,0,0,0-3.292-.63,13.922,13.922,0,0,1-.623,2.37,42.8,42.8,0,0,1-2.045,4.83c-0.9.04-1.94,0.04-2.841,0.04,0.1,1.01.278,2.09,0.451,3.03,0.1,0.42.242,0.55,0.45,0.55a1.267,1.267,0,0,0,.52-0.13,4.252,4.252,0,0,1,1.386-.32c3.5-.31,7.1-0.69,10.359-1.18l0.624,1.53c0.173,0.38.277,0.42,0.658,0.17l1.975-1.07c0.381-.21.415-0.35,0.242-0.7a43.845,43.845,0,0,0-3.638-6.23,0.456,0.456,0,0,0-.727-0.17Z" transform="translate(-570.75 -3453.75)"/>
</svg>
