<svg xmlns="http://www.w3.org/2000/svg" width="328.688" height="27.91" viewBox="0 0 328.688 27.91">
  <defs>
    <style>
      .cls-1 {
        fill-rule: evenodd;
      }
    </style>
  </defs>
  <path id="head-other-products.svg" class="cls-1" d="M550.555,7549.51c-8.4,0-14.248,5.85-14.248,13.97s5.844,13.93,14.248,13.93,14.248-5.8,14.248-13.93S558.96,7549.51,550.555,7549.51Zm0,23.18c-5.2,0-8.885-3.8-8.885-9.21s3.682-9.24,8.885-9.24,8.885,3.84,8.885,9.24S555.758,7572.69,550.555,7572.69Zm33.081-18.09v-4.48h-17.21v4.48h6v22.21h5.2V7554.6h6Zm9.274-4.48h-5.2v26.69h5.2v-11.89H604.2v11.89h5.2v-26.69h-5.2v10.32H592.91v-10.32Zm38.165,0H616.267v26.69h14.808v-4.48H621.47v-7.29h9.2v-4.48h-9.2v-5.96h9.605v-4.48Zm5.831,0v26.69h5.2v-10.73h0.64l7.124,10.73h6.484l-8.325-11.25a7.4,7.4,0,0,0,2.922-1.16,7.286,7.286,0,0,0,3.122-6.28,7.577,7.577,0,0,0-2.642-6c-1.241-1.04-3.122-2-6.8-2h-7.724Zm5.2,4.24h1.561c0.96,0,5.043.04,5.043,4,0,3.92-4.123,4.04-5.123,4.04h-1.481v-8.04Zm28.676-4.24v26.69h5.2v-9.89h3.362c3.082,0,5.283-.88,6.764-2.36a9.068,9.068,0,0,0-.521-12.4c-1.961-1.72-4.042-2.04-7.044-2.04h-7.764Zm5.2,4.48h1.8a6.268,6.268,0,0,1,3.682.84,3.675,3.675,0,0,1,1.481,3.04,3.98,3.98,0,0,1-1.441,3.12,5.327,5.327,0,0,1-3.4.84h-2.121v-7.84Zm16.957-4.48v26.69h5.2v-10.73h0.64l7.124,10.73H712.4l-8.325-11.25a7.405,7.405,0,0,0,2.922-1.16,7.285,7.285,0,0,0,3.121-6.28,7.576,7.576,0,0,0-2.641-6c-1.241-1.04-3.122-2-6.8-2h-7.724Zm5.2,4.24h1.561c0.96,0,5.043.04,5.043,4,0,3.92-4.123,4.04-5.123,4.04h-1.481v-8.04Zm31.524-4.85c-8.4,0-14.248,5.85-14.248,13.97s5.843,13.93,14.248,13.93,14.248-5.8,14.248-13.93S738.076,7549.51,729.672,7549.51Zm0,23.18c-5.2,0-8.885-3.8-8.885-9.21s3.682-9.24,8.885-9.24,8.885,3.84,8.885,9.24S734.875,7572.69,729.672,7572.69Zm19.832-22.57v26.69h6.884c3.722,0,6.644-.36,9.765-2.56a12.737,12.737,0,0,0,5.363-10.77,13.2,13.2,0,0,0-5.123-10.76c-2.961-2.2-6.2-2.6-9.925-2.6H749.5Zm5.2,4.48h1.6a10.865,10.865,0,0,1,6.563,1.76,8.886,8.886,0,0,1,3.282,7.12,8.694,8.694,0,0,1-3.322,7.09,11.172,11.172,0,0,1-6.523,1.76h-1.6V7554.6Zm22.4-4.48v16.32a11.235,11.235,0,0,0,2,7.13,11.832,11.832,0,0,0,17.45,0,11.235,11.235,0,0,0,2-7.13v-16.32h-5.2v16.76a5.808,5.808,0,0,1-1.281,3.97,5.811,5.811,0,0,1-8.485,0,5.814,5.814,0,0,1-1.28-3.97v-16.76h-5.2Zm47.69,19.65a8.085,8.085,0,0,1-6.243,2.92,8.842,8.842,0,0,1-9.045-9.13c0-4.92,3.482-9.32,8.845-9.32a8.587,8.587,0,0,1,6.443,3v-6.08a13.337,13.337,0,0,0-6.564-1.65,13.675,13.675,0,0,0-9.805,3.53,13.946,13.946,0,0,0-4.282,10.44,13.313,13.313,0,0,0,4.282,10.21,13.164,13.164,0,0,0,9.765,3.72,13.83,13.83,0,0,0,6.6-1.56v-6.08Zm20.436-15.17v-4.48H828.021v4.48h6v22.21h5.2V7554.6h6Zm18.8-1.96a10.249,10.249,0,0,0-7.565-3.13c-5.923,0-8.564,3.93-8.564,7.85a6.206,6.206,0,0,0,2.121,4.96,12.854,12.854,0,0,0,4.442,2.32,11.967,11.967,0,0,1,4.123,1.96,3.105,3.105,0,0,1,1.04,2.41c0,2.24-1.761,3.68-4.122,3.68a6.26,6.26,0,0,1-5.6-3.56l-3.4,3.24a10.988,10.988,0,0,0,9.205,5.04c5.523,0,9.285-3.56,9.285-8.76a7.261,7.261,0,0,0-2.281-5.61,15.538,15.538,0,0,0-5.4-2.68,9.109,9.109,0,0,1-3.2-1.52,2.247,2.247,0,0,1-.84-1.8c0-1.36.88-3.12,3.682-3.12a5.215,5.215,0,0,1,4.362,2.28Z" transform="translate(-536.312 -7549.5)"/>
</svg>
