<svg id="icon-tag-cool.svg" xmlns="http://www.w3.org/2000/svg" width="47" height="18" viewBox="0 0 47 18">
  <defs>
    <style>
      .cls-1, .cls-2 {
        fill-rule: evenodd;
      }

      .cls-2 {
        fill: none;
        stroke: #000;
        stroke-linecap: round;
        stroke-linejoin: round;
        stroke-width: 1px;
        opacity: 0.5;
      }
    </style>
  </defs>
  <path id="クール" class="cls-1" d="M465.15,3611.1c0.168-.24.3-0.47,0.48-0.76a1.367,1.367,0,0,1,.36-0.41,0.174,0.174,0,0,0,0-.31,3.162,3.162,0,0,0-.9-0.42,3.6,3.6,0,0,1-.6,1.5,12.8,12.8,0,0,1-3.131,3.49,1.763,1.763,0,0,1,.612.25,0.252,0.252,0,0,0,.372-0.02,17.6,17.6,0,0,0,2.374-2.57l3.455-.09a13.621,13.621,0,0,1-2.255,3.67,13.4,13.4,0,0,1-3.97,3.17,1.867,1.867,0,0,1,.672.35,0.206,0.206,0,0,0,.263.04,14.755,14.755,0,0,0,3.742-3.11,15.933,15.933,0,0,0,2.315-3.74,1.161,1.161,0,0,1,.312-0.42,0.226,0.226,0,0,0-.024-0.36,4.237,4.237,0,0,0-.48-0.4,0.268,0.268,0,0,0-.312-0.04,0.952,0.952,0,0,1-.6.13Zm13.835,3.49c0.8,0,1.691,0,2.591.02,0.143,0.01.179-.01,0.179-0.14a5.514,5.514,0,0,0,0-.63c0-.13-0.036-0.15-0.179-0.14-0.912.02-1.8,0.03-2.627,0.03h-3.682a23.387,23.387,0,0,1-2.651-.1,7.309,7.309,0,0,0,.12.91,0.2,0.2,0,0,0,.2.17,9.811,9.811,0,0,1,1.619-.12h4.426Zm11.389-2.32a5.713,5.713,0,0,1,.108-1.58c0.072-.17.108-0.29-0.072-0.35a9.151,9.151,0,0,0-1-.16,10.782,10.782,0,0,1,.12,2.1v3.41a6.275,6.275,0,0,1-.048,1.19,0.335,0.335,0,0,0,.024.3,2.618,2.618,0,0,0,.468.46,0.22,0.22,0,0,0,.324-0.01,1.841,1.841,0,0,1,.4-0.26,22.09,22.09,0,0,0,2.074-1.35,16.389,16.389,0,0,0,1.895-1.67,0.24,0.24,0,0,0,.072-0.32,1.972,1.972,0,0,1-.2-0.75,11.169,11.169,0,0,1-2.122,2,15.47,15.47,0,0,1-2.039,1.27v-4.28Zm-3.49-1.34a4.911,4.911,0,0,1,.108,1.24,7.025,7.025,0,0,1-.648,3.11,5.682,5.682,0,0,1-1.931,2.23,1.768,1.768,0,0,1,.636.3c0.1,0.09.2,0.07,0.335-.05a6.26,6.26,0,0,0,1.716-2.13,7.76,7.76,0,0,0,.743-3.29,2.806,2.806,0,0,1,.12-0.93c0.06-.15.048-0.25-0.084-0.3A4.3,4.3,0,0,0,486.884,3610.93Z" transform="translate(-455 -3605)"/>
  <path id="長方形_1218" data-name="長方形 1218" class="cls-2" d="M457.5,3605.5h42a2,2,0,0,1,2,2v13a2,2,0,0,1-2,2h-42a2,2,0,0,1-2-2v-13A2,2,0,0,1,457.5,3605.5Z" transform="translate(-455 -3605)"/>
</svg>
