<svg xmlns="http://www.w3.org/2000/svg" width="57.281" height="31.41" viewBox="0 0 57.281 31.41">
  <defs>
    <style>
      .cls-1 {
        fill-rule: evenodd;
      }
    </style>
  </defs>
  <path id="title-cm.svg" class="cls-1" d="M693.459,5030.71a13.339,13.339,0,0,0-7.472-2.02,13.867,13.867,0,0,0-10.117,3.66,14.631,14.631,0,0,0-4.492,10.95,13.72,13.72,0,0,0,4.492,10.58,14.04,14.04,0,0,0,9.907,3.86,15.274,15.274,0,0,0,7.682-2.1v-5.08a11.076,11.076,0,0,1-7.556,3.24c-5.961,0-10.243-4.58-10.243-10.5,0-6.17,4.114-10.66,10.2-10.66a10.89,10.89,0,0,1,7.6,3.11v-5.04Zm8.828,26.49,2.939-16.92,8.06,18.22,8.143-18.18,2.855,16.88h4.366l-5.29-30.1-9.822,21.74L703.8,5027.1l-5.877,30.1h4.365Z" transform="translate(-671.375 -5027.09)"/>
</svg>
