<?xml version="1.0" encoding="utf-8"?>
<!-- Generator: Adobe Illustrator 26.0.3, SVG Export Plug-In . SVG Version: 6.00 Build 0)  -->
<svg version="1.1" id="head-block-01_sp.svg" xmlns="http://www.w3.org/2000/svg" xmlns:xlink="http://www.w3.org/1999/xlink"
	 x="0px" y="0px" viewBox="0 0 378 156" style="enable-background:new 0 0 378 156;" xml:space="preserve">
<style type="text/css">
	.st0{opacity:0.2;fill-rule:evenodd;clip-rule:evenodd;fill:#1E9FE0;enable-background:new    ;}
	.st1{opacity:0.2;fill:#1E9FE0;enable-background:new    ;}
	.st2{fill:#1147B4;}
</style>
<path id="長方形_978" class="st0" d="M117.6,81h149.6v13H117.6V81z"/>
<path id="長方形_978_00000083069197699321057090000008770892384505651637_" class="st0" d="M140.2,32.8h165.6v13H140.2V32.8z"/>
<rect id="長方形_978-3" y="143" class="st1" width="378" height="13"/>
<g>
	<path d="M126.6,77.3c-1-0.9-3.1-2.3-4.9-3l1.9-2.3c1.6,0.8,3.9,1.9,5,2.8L126.6,77.3z M122.4,85.4c1.3-1.6,2.9-4.4,4.3-6.9l2.4,2
		c-1.1,2.3-2.6,4.8-3.9,7L122.4,85.4z M128.5,65.4h-5.9v-2.9h5.9v-1.8h3.4v1.8h3v2.9h-3v1.4h-3.4V65.4z M125,66.8
		c1.5,0.8,3.6,1.9,4.6,2.8l-2.1,2.4c-0.9-0.9-2.9-2.1-4.5-3L125,66.8z M148.2,82.7h-3.9v1.9c0,1.4-0.3,2.1-1.3,2.6
		c-1,0.4-2.3,0.5-4,0.5c-0.1-0.9-0.5-2-0.9-2.8c1,0,2.1,0,2.5,0s0.4-0.1,0.4-0.4v-1.8h-5.4c0.9,0.5,1.6,1.1,2.3,1.5l-1.9,2.3
		c-0.9-0.8-2.9-2.1-4.3-2.9l0.8-0.9h-3.1v-2.6h11.8v-1h1.4c-0.3-0.5-0.4-1-0.6-1.3c0.6,0,1.1,0,1.4,0c0.3,0,0.4-0.1,0.4-0.4v-0.3
		h-3.4v1.6h-3.1v-1.6h-3.4v2h-3.1v-8.8h6.5v-0.8h-7.4v-2.1h7.4v-1.1h1.4v-1.1h-2.8v-2.9h2.8v-1.8h3.4v1.8h6v2.9h-3.6
		c1,0.5,1.9,1.1,2.5,1.5l-0.6,0.8h1.5v2.1h-7.5v0.8h6.6v7.1c0,1.3-0.3,1.6-1,2c-0.4,0.3-0.9,0.3-1.5,0.4v0.1h3.9L148.2,82.7z
		 M133.8,72.4v0.9h3.4v-0.9H133.8z M137.2,75.6v-0.8h-3.4v0.8H137.2z M140.3,67.6h3.4c-0.5-0.4-1.1-0.6-1.6-0.9l1.1-1.4h-1.3v1.4
		h-1.8v0.9H140.3z M140.3,72.4v0.9h3.4v-0.9H140.3z M143.7,75.6v-0.8h-3.4v0.8H143.7z"/>
	<path d="M171,81.5c2.1,1.1,5.3,2.6,6.8,3.6l-2,2.5c-1.5-1.1-4.6-2.9-6.8-4l1.9-2.1h-1c-1.1,3-3.3,5-8.4,6.3
		c-0.3-0.6-0.8-1.6-1.4-2.3c-0.1,0.6-0.4,1.1-1,1.5c-0.8,0.5-1.9,0.6-3.6,0.6c-0.1-0.8-0.5-2.1-0.9-3c1,0,1.9,0,2.3,0
		c0.3,0,0.4-0.1,0.4-0.5v-6.9c-0.6,0.6-1.3,1.3-1.8,1.9l-0.8-1.8c-0.3,3.6-0.8,7.5-2,10.4c-0.5-0.6-1.8-1.6-2.4-2
		c1.5-3.9,1.6-9.6,1.6-13.8V61.6h8.1v22.7c0,0.3,0,0.5,0,0.8c3.4-0.8,5.1-1.9,6.1-3.5h-5.3v-2.9h6.1c0.1-0.5,0.1-1,0.1-1.5h-5V68
		h13.5v9.1h-5.1c0,0.5-0.1,1-0.1,1.5h6.5v2.9H171z M154.9,72.1c0,1.1,0,2.6-0.1,4c0.8-0.4,1.5-1,2.5-1.8v-2.9l-1.1,0.8
		c-0.3-0.5-0.8-1.3-1.3-1.9V72.1z M154.9,64.9v3.5l0.8-0.5c0.5,0.6,1.1,1.3,1.5,1.9v-4.9H154.9z M163.9,65.8h-3V63h3v-2.1h3V63h2
		v2.8h-2v1.6h-3V65.8z M165.3,71.4h7.3v-1.3h-7.3V71.4z M165.3,74.9h7.3v-1.3h-7.3V74.9z M171.5,65.8h-1.9V63h1.9v-2.1h3V63h2.9v2.8
		h-2.9v1.6h-3V65.8z"/>
	<path d="M205.6,73.5c-0.8,3.8-2.1,6.5-3.9,8.8c1.4,1,3,1.8,4.8,2.3c-0.8,0.6-1.8,2-2.1,2.9c-1.9-0.8-3.6-1.6-5-2.8
		c-1.6,1.3-3.5,2.3-5.6,2.9c-0.4-0.8-1.3-2.1-1.9-2.6c-0.1,1-0.5,1.6-1.3,2c-1,0.5-2.4,0.5-4.4,0.5c-0.1-0.8-0.5-2.1-0.9-2.9
		c1.3,0,2.6,0,3,0s0.5-0.1,0.5-0.6v-8.4c-1.5,0.1-3.1,0.4-4.5,0.5c-0.1,3.9-0.8,8.4-2.3,11.6c-0.6-0.5-1.9-1.4-2.6-1.8
		c1.3-2.8,1.6-6.3,1.8-9.6l-1.6,0.1l-0.3-3.1l2-0.1v-0.9v-8.6h3c0.4-1,0.6-2.1,0.8-3.1l3.5,0.4c-0.4,1-0.8,1.9-1.1,2.6h4.4v8.8h0.6
		v2.6l-0.6,0.1v8.8c0,0.3,0,0.5,0,0.8c2-0.5,3.8-1.4,5.3-2.4c-1.5-1.8-2.8-3.8-3.8-6.1l1.8-0.5h-2v-3h10l0.5-0.1L205.6,73.5z
		 M186.5,82.2c-0.5-1.1-1.4-3-2.3-4.4l2.1-1c0.9,1.3,1.9,3,2.4,4.1L186.5,82.2z M184.4,73.1c1.4-0.1,2.9-0.3,4.4-0.4v-6.3h-4.4v1.8
		l2-1c0.9,1.3,1.8,2.8,2.3,3.9l-2.1,1.3c-0.4-1-1.3-2.5-2-3.8v3.9v0.6H184.4z M197,66.1c0,2.3-0.4,4.9-2.6,6.4
		c-0.5-0.6-1.9-1.8-2.5-2.1c1.9-1.3,2-2.8,2-4.3v-4h9.5v5.6c0,0.8,0,1.1,0.4,1.1h1c0.4,0,1,0,1.4-0.3c0,0.9,0.1,1.9,0.3,2.8
		c-0.4,0.1-1,0.3-1.6,0.3h-1.4c-2.6,0-3.3-1.1-3.3-3.9v-2.6H197V66.1z M196.5,75.8c0.8,1.6,1.8,3.1,3,4.5c1-1.3,1.9-2.8,2.4-4.5
		H196.5z"/>
	<path d="M214.5,81.4c-0.9,2.4-2.4,4.9-3.9,6.4c-0.6-0.5-2-1.5-2.8-1.9c1.5-1.3,2.6-3.3,3.4-5.3L214.5,81.4z M219.5,80.4h-9.9V62
		h9.9V80.4z M216.3,64.6h-3.6v2.6h3.6V64.6z M216.3,69.8h-3.6v2.6h3.6V69.8z M216.3,75h-3.6v2.6h3.6V75z M217.8,80.5
		c1.3,1.4,2.4,3.4,2.9,4.6l-2.9,1.4c-0.4-1.4-1.6-3.4-2.8-4.9L217.8,80.5z M228.8,70.1v4.5h5.1v12.9h-3.4v-1.1h-6.4v1.1H221V74.6
		h4.4V60.9h3.4V67h6.3v3.1C235,70.1,228.8,70.1,228.8,70.1z M230.5,77.6h-6.4v5.8h6.4V77.6z"/>
	<path d="M253.7,62.2c-0.4,0.4-0.6,0.9-1,1.3c3.6,3.4,7.5,5.4,11.4,6.8c-0.9,0.8-1.9,2.1-2.4,3.1c-1.4-0.6-2.8-1.4-4.1-2.1v1.9
		h-14.3v-1.4c-1.3,0.8-2.5,1.5-3.9,2.1c-0.5-1-1.5-2.3-2.5-3.1c5.3-2.1,10.8-5.6,13.8-10L253.7,62.2z M241.4,75.6H260v11.9h-3.6
		v-1.1h-11.4v1.3h-3.5V75.6z M244.9,78.6v4.5h11.4v-4.5H244.9z M255.7,70c-1.6-1.1-3.3-2.5-5-4.1c-1.5,1.5-3,2.9-4.8,4.1H255.7z"/>
</g>
<g>
	<path d="M63.4,34.5c1.5,0.5,3.5,0.6,5.9,0.6c2.1,0,9.9,0,12.5-0.1c-0.5,0.8-1.1,2.4-1.3,3.4H69.4c-5.4,0-8.8-0.8-11-4
		C58,36.1,57.6,37.8,57,39c-0.6-0.4-2-1.3-2.8-1.5c1.4-2.9,1.6-7.5,1.8-12.4l3,0.3c0,1.4,0,2.6-0.1,3.9c0.4,1.3,1,2.3,1.6,3v-8.6
		h-5.4v-3H60v-2.4h-4.3v-3H60v-2.9h3.1v2.9h4.1v3h-4.1v2.6h4.6v0.8c1.9-1.3,2.9-3,3.4-5.4H68v-2.9h12.6c0,0,0,0.8,0,1.1
		c-0.3,4.8-0.5,6.9-1.1,7.6c-0.5,0.6-1.1,0.9-1.9,1c-0.8,0.1-1.9,0.1-3.3,0c0-0.9-0.4-2.1-0.9-2.9c1,0.1,1.9,0.1,2.4,0.1
		c0.4,0,0.6,0,0.9-0.3c0.3-0.4,0.5-1.4,0.6-4h-3c-0.6,3.6-2.3,6.1-4.9,7.8c-0.4-0.4-1.1-1-1.8-1.5v1.4h-4.4V27h3.8v3h-3.8V34.5z
		 M68.6,24.4h11.3v9H68.6V24.4z M71.8,30.8h4.6v-3.6h-4.6V30.8z"/>
	<path d="M90.5,34.6v4.5h-2.9v-4.5h-4.5v-3h4.5v-1.8H84V19.5h3.6V18h-4v-3h4v-2.8h2.9V15h4.1v3h-4.1v1.5h3.8v10.4h-3.8v1.8h4.4v3
		C94.9,34.6,90.5,34.6,90.5,34.6z M86.5,23.6H88v-1.8h-1.5V23.6z M86.5,27.6H88v-1.8h-1.5V27.6z M91.8,21.9h-1.6v1.8h1.6V21.9z
		 M91.8,25.9h-1.6v1.8h1.6V25.9z M110.2,35.6v2.9H94.7v-2.9h6.1v-4.3H96v-2.9h13.4v2.9h-5.1v4.3H110.2z M97.7,28
		c-0.5-1.5-1.6-3.8-2.9-5.9c1-1.8,2-4,2.5-5.4l2.8,0.6c-0.8,1.6-1.6,3.3-2.4,4.8c1.1,1.6,2.1,3.6,2.6,4.8L97.7,28z M109.8,16.4H95.4
		v-2.9h14.4V16.4z M104.7,17.5c-0.8,1.6-1.6,3.3-2.5,4.6c1.1,1.6,2.4,3.5,2.9,4.8l-2.6,1.1c-0.6-1.5-1.8-3.8-3.3-5.8
		c1-1.8,2.1-3.9,2.6-5.4L104.7,17.5z M107.3,28c-0.6-1.5-2-3.8-3.5-5.9c1.1-1.8,2.3-4,2.9-5.4l2.9,0.6c-0.8,1.6-1.8,3.3-2.6,4.6
		c1.3,1.6,2.5,3.5,3.1,4.8L107.3,28z"/>
	<path d="M120.1,20.6c-1.1,3.6-2.9,6.4-5.4,8.5c-0.5-0.6-1.8-1.8-2.5-2.4c3.3-2.1,4.9-5.8,5.6-10.5h-4.4v-2.9h20
		c-0.4,1.6-0.8,3.5-1.1,5.1h5.4c0,0,0,0.9-0.1,1.3c-0.4,4.4-0.9,6.4-1.6,7.1c-0.6,0.8-1.4,0.9-2.3,1c-0.8,0.1-2.1,0.1-3.6,0
		c0-0.9-0.5-2.1-1-2.9c1.3,0.1,2.5,0.1,3.1,0.1c0.5,0,0.8,0,1-0.3c0.4-0.4,0.8-1.4,1-3.6h-5.8c0.4-1.4,0.9-3.3,1.3-5h-8.6
		c-0.1,0.6-0.3,1.1-0.4,1.8h5.3h0.5l1.8,0.5c-0.4,2.3-1.1,4.1-2.1,5.6c1.1,0.8,2,1.5,2.8,2.1l-2,2c-0.6-0.6-1.5-1.4-2.5-2.1
		c-1.1,1.1-2.5,1.9-4,2.5c-0.4-0.6-1.4-1.8-1.9-2.3c1.4-0.4,2.5-1.1,3.6-1.9c-0.9-0.5-1.8-1-2.6-1.5l1.9-1.8
		c0.9,0.4,1.6,0.8,2.5,1.3c0.4-0.6,0.8-1.3,1-2h-4.8V20.6z M138.7,35.5v2.9h-26.3v-2.9h3V29h20.2v6.5H138.7z M118.7,35.5h2.4v-3.9
		h-2.4V35.5z M124.2,31.6v3.9h2.5v-3.9H124.2z M129.8,31.6v3.9h2.5v-3.9H129.8z"/>
	<path class="st2" d="M144.9,23.5c-0.6,0.9-1.3,1.6-1.9,2.4c-0.4-1-1.6-3.4-2.3-4.5c2.5-2.8,5.3-6.9,6.9-11l3.8,1.5
		c-0.6,1.5-1.4,3-2.1,4.5v23.9H145V23.5H144.9z M150.9,3.4c-2,3.5-4.9,7.5-7.8,10c-0.5-1-1.5-2.9-2.1-3.8c2.1-2,4.8-5.3,6-7.9
		L150.9,3.4z M156.9,23.4c-0.1,7.9-0.8,13.4-4.8,16.8c-0.5-1.1-1.8-2.9-2.8-3.6c3-2.6,3.3-6.8,3.3-13.1H156.9z M165.1,22.1H151v-3.9
		h14.1V22.1z M178.3,13.5c-0.6,6.4-1.6,11.8-3.4,16.3c1.4,2.8,3.3,5.1,5.6,6.6c-0.9,0.9-2.1,2.5-2.8,3.8c-2.1-1.5-3.6-3.5-5-5.9
		c-1.5,2.4-3.3,4.5-5.5,6.3c-0.5-0.9-2.1-2.5-3-3.3c2.9-2,5-4.5,6.5-7.8c-1-2.9-1.8-6.3-2.3-9.8c-0.4,0.6-0.8,1.1-1.1,1.6
		c-0.5-1-1.8-3-2.6-4c0.3-0.4,0.5-0.8,0.8-1.3h-14.1V5.4h3.4v7.3h1.9V1.7h3.6v10.9h1.8V5.5h3.5v10.8c2.1-3.8,3.5-9,4.1-14.5l4.1,0.8
		c-0.4,2.3-0.8,4.6-1.4,6.8h7.5v4.1h-1.6V13.5z M166.3,28.4c0.3,1.1,0.8,2.6,1.1,3.5c-5.6,3.5-6.6,4.5-7.3,5.3
		c-0.3-1.1-1.1-3.1-1.8-4.1c0.6-0.4,1.4-1.3,1.4-2.9v-6.6h4v6.4L166.3,28.4z M171.1,13.5c-0.1,0.3-0.1,0.5-0.3,0.8
		c0.4,3.4,1,6.6,1.8,9.6c0.8-3,1.4-6.5,1.6-10.3h-3.1V13.5z"/>
	<path class="st2" d="M197.9,25.4c-2.6,5.8-7,11.4-11.5,14.8c-0.9-1.3-2.5-3-3.6-4c4.3-2.6,8.5-7.6,10.8-12.3L197.9,25.4z
		 M204.6,22.1v18.3h-5.3V22.1h-15.8v-5h15.8V1.7h5.3V17h15.9v5h-15.9V22.1z M190.4,15.2c-0.8-2.6-2.9-6.6-5.1-9.6l4.5-2
		c2.3,2.9,4.6,6.8,5.5,9.4L190.4,15.2z M209.8,23.5c4.4,4.1,9.4,9.9,11.5,14l-4.4,2.8c-2-4.1-6.6-10.1-11.1-14.4L209.8,23.5z
		 M219.1,5.6c-2.1,3.6-4.6,7.5-6.6,10l-4.3-1.9c2-2.8,4.3-6.9,5.5-10.3L219.1,5.6z"/>
	<path class="st2" d="M230.9,20.7c-1.5-1.4-4.6-3.1-7-4.1l2.6-3.8c2.4,0.9,5.6,2.4,7.3,3.8L230.9,20.7z M224.8,36.9
		c2-3.1,4.6-8.4,6.8-13.3l3.9,2.9c-1.9,4.4-4.1,9.3-6.3,13.3L224.8,36.9z M233,9.9c-1.5-1.4-4.6-3.3-7-4.4l2.8-3.8
		c2.4,1,5.6,2.6,7.3,4L233,9.9z M254.9,35.5c2.5,0,2.9-0.9,3.1-5.3c1.1,0.8,3.1,1.5,4.5,1.9c-0.8,6.1-2.1,7.9-7.3,7.9h-9.5
		c-5.9,0-7.6-1.5-7.6-6.8V17.1l-0.5,0.5c-0.9-0.9-3-2.4-4.3-3c3.4-3,6.3-8,7.8-13l4.9,1.3c-0.4,1.3-0.9,2.5-1.5,3.8h16.3
		c0,0,0,1.5,0,2.1c-0.3,13.1-0.5,18.3-1.6,19.8c-0.8,1.1-1.5,1.6-2.6,1.9c-1,0.3-2.5,0.3-4.1,0.3c-0.1-0.9-0.3-2.1-0.6-3.1h-9v5.8
		c0,2,0.5,2.4,3.3,2.4h8.9V35.5z M242.2,11.2c-0.6,1.1-1.4,2.3-2.1,3.3h12.3v11.4c0.5,0,1,0,1.3,0c0.5,0,0.8-0.1,1.1-0.6
		c0.5-0.9,0.9-4.3,1-14C255.8,11.2,242.2,11.2,242.2,11.2z M247.8,18.7h-4.9v4.5h4.9V18.7z"/>
	<path class="st2" d="M272.2,20.7c-1.5-1.4-4.6-3.1-7-4.1l2.6-3.8c2.4,0.9,5.6,2.4,7.3,3.8L272.2,20.7z M266.2,36.9
		c2-3.1,4.6-8.4,6.8-13.3l3.9,2.9c-1.9,4.4-4.1,9.3-6.3,13.3L266.2,36.9z M274.3,9.9c-1.5-1.4-4.6-3.3-7-4.4l2.8-3.8
		c2.4,1,5.6,2.6,7.3,4L274.3,9.9z M296.2,35.5c2.5,0,2.9-0.9,3.1-5.3c1.1,0.8,3.1,1.5,4.5,1.9c-0.8,6.1-2.1,7.9-7.3,7.9h-9.5
		c-5.9,0-7.6-1.5-7.6-6.8V17.1l-0.5,0.5c-0.9-0.9-3-2.4-4.3-3c3.4-3,6.3-8,7.8-13l4.9,1.3c-0.4,1.3-0.9,2.5-1.5,3.8h16.3
		c0,0,0,1.5,0,2.1c-0.3,13.1-0.5,18.3-1.6,19.8c-0.8,1.1-1.5,1.6-2.6,1.9c-1,0.3-2.5,0.3-4.1,0.3c-0.1-0.9-0.3-2.1-0.6-3.1h-9v5.8
		c0,2,0.5,2.4,3.3,2.4h8.9V35.5z M283.6,11.2c-0.6,1.1-1.4,2.3-2.1,3.3h12.3v11.4c0.5,0,1,0,1.3,0c0.5,0,0.8-0.1,1.1-0.6
		c0.5-0.9,0.9-4.3,1-14C297.1,11.2,283.6,11.2,283.6,11.2z M289.1,18.7h-4.9v4.5h4.9V18.7z"/>
	<path d="M318.7,17h1v3.3l-1,0.1c-0.1,3.3-0.5,7.5-2.8,11.4c1.5,1.3,2.8,2.5,3.6,3.5l-2.5,2.6c-0.8-0.9-1.8-2-3-3.3
		c-1.4,1.6-3.3,3.3-5.6,4.6c-0.5-0.8-1.6-2-2.4-2.6c2.4-1.3,4.1-2.9,5.4-4.5c-1.6-1.4-3.3-2.9-4.6-4.1c0.6-1.9,1.1-4.4,1.6-7
		l-2.1,0.1l-0.4-3.4c0.9,0,1.9-0.1,3-0.1c0.3-1.8,0.5-3.5,0.6-5l3.6,0.3c-0.1,1.5-0.4,3.1-0.6,4.6l2.8-0.1V16h3.4L318.7,17L318.7,17
		z M312,20.7c-0.4,2.3-0.9,4.4-1.4,6.3c0.9,0.8,1.8,1.5,2.6,2.3c1.5-3,2-6.3,2-8.8L312,20.7z M331.6,15.2v22.7h-3.4v-1.6h-4.5v2.1
		h-3.3V15.2H331.6z M328.2,33V18.5h-4.5V33H328.2z"/>
</g>
<g>
	<path class="st2" d="M19.7,127.1c0.9,2.8,1.9,6.4,2.1,8.6l-3.6,1.1c-0.1-0.5-0.1-1.3-0.3-1.9c-7.9,1.1-9.3,1.6-10.3,2
		c-0.3-0.9-0.9-2.9-1.4-4c1-0.3,1.9-1.3,3.1-2.8c0.5-0.6,1.5-1.9,2.6-3.6C9,127,8,127.3,7.4,127.5c-0.3-0.9-0.9-2.9-1.4-3.9
		c0.8-0.3,1.5-1.1,2.3-2.3c0.9-1.1,3.3-5.9,4.6-10.3l4.1,1.6c-1.4,3.4-3.3,7-5.3,10l2.9-0.3c1-1.8,1.9-3.5,2.6-5.3l3.8,2.4
		c-2.3,4.3-5.3,8.6-8.3,12.3l4.1-0.5c-0.3-1.1-0.6-2.1-0.9-3.1L19.7,127.1z M11.5,138.8c-0.4,3.9-1,8-1.9,10.6
		c-0.9-0.4-2.5-1-3.5-1.3c1-2.5,1.5-6.4,1.8-10L11.5,138.8z M15.6,138.2c0.5,3,0.9,6.9,1,9.4l-3.5,0.8c0-2.6-0.4-6.5-0.9-9.5
		L15.6,138.2z M19.6,137c0.9,2.5,1.8,6,2.1,8.1l-3.3,1c-0.4-2.3-1.3-5.6-2-8.3L19.6,137z M44.3,123v7H40v-3.4H25.5v3.5h-4.1V123h4.9
		c-0.3-1.1-0.6-2.5-1-3.6l2.1-0.5h-5.5v-4.1H30c-0.3-0.9-0.6-1.9-1-2.5l4.1-1.1c0.6,1.1,1.1,2.4,1.5,3.6h9.1v4.1h-6.1l2.6,0.8
		c-0.5,1.3-1.1,2.4-1.6,3.5h5.6V123z M42.7,141.7c0,1.9-0.3,2.9-1.4,3.6c-1.1,0.8-2.6,0.8-4.6,0.8c-0.1-1.3-0.6-2.9-1.1-4.1
		c1,0,2,0,2.4,0c0.4,0,0.5-0.1,0.5-0.5v-6.1h-3.6v14.1h-4.4v-13.9h-3.3v10.1H23v-14.1h7.4v-3.9h4.4v3.9h7.9V141.7z M29.1,118.8
		c0.5,1.4,1,2.9,1.3,4l-0.9,0.3h5.1c0.5-1.4,1-2.9,1.4-4.3H29.1z"/>
	<path class="st2" d="M59.4,131.4c-0.5,3.3-1.3,6.3-2.3,8.8c2.5,4,7,4.6,13.8,4.6c4.4,0,11.1-0.3,15.8-0.8c-0.8,1-1.4,3.3-1.6,4.5
		c-4.3,0.3-9.5,0.4-14.3,0.4c-7.5,0-12.3-0.8-15.4-5c-1.5,2.5-3.1,4.4-5.3,5.8c-0.6-1-2.1-2.6-3.1-3.3c3.6-2.3,6.3-6.3,7.5-11.9
		h-3.1c-1,0-2.1,0.3-2.5,0.6c-0.3-1-1.1-3-1.5-3.9c0.6-0.1,1.3-0.5,2-1.4c0.8-0.8,2.3-3,3.6-5.3h-4.9v-3.9h7.8l0.4-0.1l3,1.3
		c-1.5,2.3-3.9,6.1-5.9,9h2.9l0.8-0.1L59.4,131.4z M54.5,120c-1.1-1.8-3.5-4.6-5.4-6.6l3.6-2.3c2,2,4.3,4.5,5.5,6.3L54.5,120z
		 M65.6,119.9c-0.8,1.4-1.6,2.4-2.4,3.4c-1-0.8-2.9-1.8-4-2.3c2.4-2.4,4.4-6,5.4-9.6l4.4,1c-0.3,1.1-0.8,2.1-1.3,3.3h2.6V111h4.9
		v4.6h8.4v4.1h-8.4v3.5h10.1v4.1H60.1v-4.1h10.4v-3.5h-4.9V119.9z M62.8,142v-12.3h20.3V142H62.8z M67.4,138.2H78v-4.5H67.4V138.2z"
		/>
	<path class="st2" d="M127.3,142.7h-3.8v6.9h-3.8v-6.9h-5.4c0.4-2.3,0.6-5.6,0.8-8.5h-0.6v-3.8h5.3v-2.5h2.9v-1.3H107v0.9l2.3,0.5
		c-0.1,0.6-0.4,1.4-0.5,2.1h2.9l0.8-0.1l2.1,0.5c-1.3,10.3-4.9,16.1-11,19.3c-0.4-0.9-1.3-2.3-2-3c2.4-1.1,4.4-2.8,5.9-5
		c-0.8-0.8-1.8-1.8-2.8-2.5c-0.4,0.5-0.8,1-1.3,1.5c-0.3-0.6-1.1-2-1.8-2.9v5.4h-7.3v3.1h-3.9v-33h11.1v23.2
		c1.6-1.9,2.8-4.6,3.5-7.4h-2.3v-6.3h3.8c-0.5-1.3-1.5-3.1-2.1-4.5l3.6-1.3c0.9,1.5,2,3.4,2.5,4.6l-3,1.1h6.6
		c-0.4-1.4-1.4-3.5-2-5.1l3.8-1c0.9,1.5,1.9,3.8,2.3,5l-3.8,1.1h5.3l-0.8-0.3c1.1-1.8,2.5-4.5,3.3-6.4l4.1,1.5
		c-1.3,1.9-2.4,3.8-3.5,5.3h4.1v6.3h-3.4v1.3h3.3v3.8h-3.3v4.8h3.8v3.6H127.3z M94.2,117.8v4.1h3.4v-4.1H94.2z M94.2,130.3h3.4V126
		h-3.4V130.3z M97.6,138.8v-4.4h-3.4v4.4H97.6z M126.1,114.7c-6,1.5-15.1,2-22.5,2c-0.1-1-0.6-2.5-1.1-3.4c7.4-0.1,16.1-0.8,21.4-2
		L126.1,114.7z M107.4,133.4c-0.4,1-0.8,1.9-1.3,2.8c1,0.8,2,1.5,2.6,2.3c0.6-1.5,1.1-3.1,1.5-5H107.4z M119.6,139v-4.8h-1.8
		c-0.1,1.6-0.1,3.3-0.3,4.8H119.6z"/>
	<path class="st2" d="M137.2,127.6v22.2h-4.9v-37.2h15.8v15H137.2z M137.2,116.3v2.1h6.4v-2.1H137.2z M143.4,124v-2.4H137v2.4H143.4
		z M167.1,143.9c0,2.6-0.5,4.1-2.1,4.9c-1.6,0.9-4,1-7.5,1c-0.1-1-0.6-2.5-1.1-3.9h-10.3v2.1h-4.5v-17.9h2l0,0h13.9v14.6
		c1.6,0,3.1,0,3.6,0c0.8,0,1-0.3,1-0.9v-16.3h-11.3v-15H167v31.3H167.1z M152.8,133.7h-6.8v2.5h6.8V133.7z M152.8,142.3v-2.5h-6.8
		v2.5H152.8z M155.6,116.3v2.1h6.5v-2.1H155.6z M162.2,124.1v-2.4h-6.5v2.4H162.2z"/>
	<path class="st2" d="M209.5,117.6c0,0,0,1.8,0,2.4c-0.6,18.4-1.1,25-2.8,27.2c-1.1,1.6-2.3,2-3.9,2.3c-1.5,0.3-3.9,0.3-6.3,0.1
		c-0.1-1.5-0.8-3.5-1.6-5c2.4,0.3,4.6,0.3,5.6,0.3c0.8,0,1.3-0.1,1.8-0.8c1.3-1.3,1.8-7.3,2.3-21.8H192c-0.8,1.5-1.8,2.9-2.6,4.1
		h11.4v4.4h-11.9v-3.6c-0.4,0.5-0.8,1-1.1,1.5c-1-0.9-3.3-2.3-4.5-2.9l0.3-0.3h-1.9V136l4-2l1.4,4.5c-4.6,2.4-9.6,5-13.6,7l-1.9-4.9
		c1.5-0.6,3.4-1.4,5.4-2.4v-12.8h-4.5v-4.6h4.5v-9.1h4.8v9.1h3.9v2.3c2.5-3.4,4.6-7.8,6-12l5,1.3c-0.6,1.9-1.4,3.6-2.1,5.4h15.1
		V117.6z M201.3,139.9h-13.5v-4.4h13.5V139.9z"/>
	<path class="st2" d="M248.9,117.3c0,0,0,1.8-0.1,2.4c-0.8,18.4-1.5,25.2-3.4,27.4c-1.3,1.6-2.5,2.1-4.4,2.4
		c-1.8,0.3-4.5,0.3-7.1,0.1c-0.1-1.4-0.8-3.5-1.8-5c2.9,0.3,5.6,0.3,6.8,0.3c1,0,1.5-0.1,2-0.8c1.4-1.4,2.1-7.6,2.8-22H223
		c-0.9,1.5-1.9,3-2.8,4.4h17.8v4.5h-17.9v-4.4c-1.1,1.5-2.3,2.8-3.4,4c-1-0.9-3.1-2.5-4.4-3.1c4.3-3.8,7.9-9.9,9.9-16.1l5.1,1.3
		c-0.6,1.6-1.3,3.3-2,4.9h23.5V117.3z M239.3,140h-21.5v-4.5h21.5V140z"/>
	<path class="st2" d="M265.6,131.4c-0.4,3.3-1.1,6.1-2,8.5c2.4,4.3,7,4.8,13.8,4.8c4.4,0,11.1-0.3,15.8-0.8c-0.8,1-1.4,3.1-1.5,4.5
		c-4.3,0.3-9.5,0.4-14.4,0.4c-7.5,0-12.3-0.8-15.5-5c-1.4,2.5-3,4.5-4.9,5.9c-0.6-1-2.3-2.6-3.1-3.3c3.5-2.4,5.9-6.4,7-12h-2.9
		c-1,0-2.1,0.3-2.5,0.6c-0.3-1-1.1-3.1-1.5-4c0.6-0.1,1.4-0.5,2.1-1.4c0.8-0.8,2.4-3,3.9-5.3h-5.3v-3.9h8.4l0.5-0.3l2.8,1.3v-3.3
		h10.9v-1.9c-2.9,0.1-5.8,0.3-8.5,0.4c-0.1-1-0.6-2.4-1-3.3c7-0.3,15.3-0.9,20-1.9l3,3.3c-2.6,0.5-5.6,0.9-8.9,1.3v2.4H292v3.6h-6.5
		c2.9,1.5,6,3.1,7.8,4.5l-2.9,3c-2-1.5-5.4-3.6-8.4-5.3l2-2.3h-2.1v6.1h-4.6v-3.9c-1.9,1.9-4.1,3.4-6.5,4.6h15.1
		c-0.3,1-0.5,2.1-0.6,3.3h6.3c0,0-0.1,1-0.1,1.6c-0.4,4.5-0.9,6.8-1.9,7.6c-0.8,0.9-1.8,1.1-3,1.3c-1.1,0.1-3,0.1-5,0
		c-0.1-1.1-0.6-2.6-1.1-3.6c1.8,0.1,3.4,0.3,4,0.3s1,0,1.4-0.4c0.4-0.4,0.8-1.4,0.9-3.3h-6.5c0.3-0.9,0.6-2,0.9-3.1h-3.3
		c-0.6,5-2.5,8.5-8.5,10.5c-0.4-1.1-1.6-2.8-2.5-3.6c4.5-1.4,6-3.6,6.5-6.9h-3.6v-3c-0.5,0.3-1,0.4-1.5,0.6c-0.6-1-1.9-2.6-2.9-3.5
		c3.3-0.9,6.6-2.6,9.1-4.5h-7.9c-1.6,2.3-4,5.9-6.1,8.5h2.6l0.8-0.1L265.6,131.4z M260.6,120c-1-1.8-3.3-4.6-5-6.6l3.6-2.1
		c1.9,2,4,4.5,5.1,6.3L260.6,120z"/>
	<path class="st2" d="M301.6,138.5v3.5h-4.5v-28.8h14.3v25.3H301.6z M301.6,117.8v5.9h5.4v-5.9H301.6z M306.9,134.2V128h-5.4v6.1
		H306.9z M332.9,144c0,2.6-0.5,3.9-2.1,4.8c-1.6,0.8-4,0.9-7.4,0.9c-0.3-1.4-1-3.5-1.8-4.8c2.3,0.1,4.8,0.1,5.5,0c0.8,0,1-0.3,1-1
		v-7.3h-9.8c-1,5-3.3,9.9-7.9,13.3c-0.8-1-2.6-2.6-3.6-3.3c6.9-5.1,7.5-12.8,7.5-19v-14.9h18.7V144H332.9z M328.1,132.3V127h-8.9
		v0.6c0,1.5,0,3-0.3,4.6H328.1z M319.2,117.3v5.4h8.9v-5.3h-8.9V117.3z"/>
	<path class="st2" d="M373.8,122.1c-1.6,3.6-3.6,7-6.1,10c1.1,7.4,2.6,12.6,3.6,12.6c0.5,0,0.9-2.4,1-7.3c1,1,2.4,2.1,3.6,2.6
		c-0.6,7.4-2,9.3-5.3,9.3c-3.1,0-5.5-5.6-6.9-13.4c-0.8,0.6-1.5,1.1-2.1,1.8c1.4,2.8,2.8,6.4,3.5,8.6l-3.4,1.5c-0.4-1.3-1-3-1.6-4.8
		c-0.4,4.8-1.4,6-4,6h-3.5c-3.4,0-4.3-1.1-4.3-4.4v-7.3h3.6l-0.6-1l1.1-0.5h-5.9v-9.5H360v7.3c1.1-0.8,2.1-1.6,3-2.6
		c-0.5-3.8-0.9-7.8-1.1-11.6h-17.3v3.9c0,7.3-0.6,19-4.4,26.7c-0.9-0.8-2.9-2.1-3.9-2.6c3.4-7.1,3.8-17.4,3.8-24v-7.9h21.7
		c-0.1-1.4-0.1-2.8-0.1-4.1h4.6c0,1.4,0,2.8,0,4.1h3.4c-0.9-0.9-2-1.9-3-2.6l2.9-2c1.4,1,3.1,2.4,4,3.3l-1.9,1.4h3.1v4h-8.4
		c0.1,2.4,0.4,4.6,0.6,6.9c1.1-1.6,2-3.4,2.6-5.1L373.8,122.1z M342.6,146.8c1.1-2.3,1.9-5.9,2.3-8.8l3.1,1c-0.4,3-1.1,6.9-2.3,9.4
		L342.6,146.8z M360.5,124.4H346v-3.3h14.5V124.4z M350.5,132.5h5.6v-3.1h-5.6V132.5z M355.6,145.8c0.9,0,1-0.6,1.1-4.4
		c0.8,0.6,2.3,1.1,3.3,1.4c-0.5-1.5-1.1-2.9-1.6-4.1l3-1.3c-0.4-0.5-1-1.1-1.6-1.8h-5.1c1.1,1.8,2.3,3.9,2.9,5.1l-3.1,1.6
		c-0.5-1.3-1.4-2.9-2.3-4.6v6.6c0,1,0.1,1.1,1,1.1h2.5V145.8z"/>
</g>
</svg>
