<?xml version="1.0" encoding="utf-8"?>
<!-- Generator: Adobe Illustrator 26.0.3, SVG Export Plug-In . SVG Version: 6.00 Build 0)  -->
<svg version="1.1" id="lead-block-01_sp.svg" xmlns="http://www.w3.org/2000/svg" xmlns:xlink="http://www.w3.org/1999/xlink"
	 x="0px" y="0px" viewBox="0 0 474.5 89.4" style="enable-background:new 0 0 474.5 89.4;" xml:space="preserve">
<style type="text/css">
	.st0{fill:none;stroke:#1147B4;stroke-width:3;stroke-linecap:round;stroke-dasharray:1.000000e-03,6;}
	.st1{fill:#1147B4;}
	.st2{fill:none;}
</style>
<path id="シェイプ_984" class="st0" d="M42.4,34.9h390"/>
<path id="シェイプ_984-2" class="st0" d="M155.8,84.9h163.1"/>
<path class="st1" d="M67.8,10.1l-7.7,5.6l3,9.2h-0.1l-7.9-5.7L47.2,25h-0.1l3-9.2l-7.7-5.6V10H52l3-9.2h0.1l3,9.2h9.6v0.1H67.8z"/>
<path class="st1" d="M74,12.8c-0.9-0.9-2.9-2-4.4-2.7l1.7-2.4C73,8.3,75,9.3,76,10.1L74,12.8z M76.6,16.7c-1,2.9-2.2,6-3.5,8.7
	l-3-1.7c1.1-2.1,2.6-5.5,3.9-8.7L76.6,16.7z M75.3,5.5c-0.9-0.9-2.9-2.1-4.4-2.9l1.9-2.4c1.5,0.6,3.5,1.7,4.5,2.6L75.3,5.5z
	 M90.6,10c1.4,1.5,3.1,2.9,5.1,3.6c-0.6,0.5-1.6,1.7-2.1,2.5c-0.4-0.1-0.7-0.4-1.1-0.6c1.2,2,2.5,4.4,3,6l-2.6,1.4
	c-0.5-1.9-2-4.7-3.4-6.9l2.1-1c-1.9-1.2-3.5-3-4.6-5h-2.5c-1.2,2.2-2.7,4.1-4.9,5.6l2.5,0.9c-0.7,2.2-1.7,4.7-3.5,6.4l-2.4-1.7
	c1.5-1.4,2.6-3.5,3.2-5.5c-0.6,0.4-1.1,0.7-1.9,1.1c-0.5-0.6-1.4-1.9-2-2.5c2.2-1,3.9-2.5,5.1-4.2h-4.1V6.9h5.7
	c0.4-0.7,0.6-1.6,0.7-2.5h-5.2v-3H94v3h-7.5C86.2,5.3,86,6,85.7,6.9H95v3h-4.4V10z M88.5,15.9c0.9,1.7,1.6,4.1,2,5.6l-2.5,1
	c-0.2-1.5-1-3.9-1.7-5.7v5.6c0,1.4-0.2,2.2-1.1,2.7c-1.1,0.5-2.2,0.6-4,0.6c-0.1-0.9-0.5-2.1-0.9-3c1,0,2.1,0,2.4,0
	c0.4,0,0.5-0.1,0.5-0.4v-9.7h3v4.1L88.5,15.9z"/>
<path class="st1" d="M110,5c0,0,0,1.1,0,1.5c-0.2,11.7-0.5,15.8-1.2,17.2c-0.6,0.9-1.2,1.2-2.1,1.4c-0.7,0.1-2,0.1-3.4,0.1
	c0-0.9-0.4-2.4-0.9-3.2c1.1,0.1,2.1,0.1,2.6,0.1c0.4,0,0.6-0.1,0.9-0.5c0.5-0.7,0.7-4.1,0.9-13.3h-2.7c-0.2,7.4-1.2,13.5-4.7,17.6
	c-0.5-0.7-1.6-1.9-2.4-2.4c3.1-3.5,3.9-8.7,4-15.1h-3.2V5h3.2c0-1.5,0-3,0-4.5h3.1c0,1.5,0,3,0,4.5H110z M121.5,3.2v21.7h-3.2v-1.6
	h-3.5v1.9h-3.2V3.2H121.5z M118.3,20.1V6.4h-3.5v13.7H118.3z"/>
<path class="st1" d="M128.7,12.6c-0.9-0.9-2.7-2-4.2-2.6l1.7-2.4c1.5,0.6,3.5,1.5,4.4,2.4L128.7,12.6z M124.8,23.7
	c1-2.1,2.5-5.6,3.6-8.8l2.6,1.7c-0.9,3-2.1,6.1-3.2,8.7L124.8,23.7z M127.2,0.3c1.5,0.6,3.4,1.7,4.4,2.5l-1.9,2.6
	c-0.9-0.9-2.7-2.1-4.2-2.7L127.2,0.3z M134.7,10.9v14.8h-2.9V1.2h8V11h-5.1V10.9z M134.7,3.5v1.4h2.4V3.5H134.7z M137.1,8.5V7h-2.4
	v1.4h2.4V8.5z M145.4,22.7h-9.8v-2.4h3.5v-1.9h-2.7v-2.4h2.7v-1.5H136v-2.4h9v2.4h-3.2v1.5h2.7v2.4h-2.7v1.9h3.7V22.7z M149.2,22.4
	c0,1.5-0.2,2.2-1.1,2.7c-0.9,0.5-2,0.6-3.9,0.6c-0.1-0.7-0.4-2.1-0.7-3c1,0,2,0,2.4,0s0.5-0.1,0.5-0.5V10.9h-5.2V1.2h8.2v21.2H149.2
	z M143.7,3.5v1.4h2.5V3.5H143.7z M146.2,8.5V7h-2.5v1.4h2.5V8.5z"/>
<path class="st1" d="M171.1,22.2c2.6,0,3-0.6,3.4-4c0.9,0.5,2.1,1,3.1,1.1c-0.6,4.5-1.7,5.9-6.4,5.9h-9.3c-5.1,0-6.6-1-6.6-4.9v-10
	c-0.5,0.5-1.1,0.9-1.6,1.2c-0.2-0.7-1.1-2.4-1.7-3.1c3.2-2,6.6-5.1,8.4-8.5l3,1.1c-0.2,0.4-0.5,0.7-0.7,1.1h6.4l0.6-0.1l2.1,1.6
	c-0.9,1.4-2.1,2.7-3.4,4.1h6.7v10.3h-3.2V17h-13.2v3.2c0,1.6,0.5,2,3.5,2H171.1z M160.4,5c-0.7,0.9-1.5,1.7-2.2,2.6h6.1
	c0.7-0.7,1.6-1.6,2.2-2.6H160.4z M158.4,14h5.1v-3.4h-5.1V14z M171.6,10.6h-5v3.2h5V10.6z"/>
<path class="st1" d="M189.1,20.5c-3.1,0.9-6.5,1.7-9.1,2.5l-0.6-3.1c1-0.2,2.1-0.5,3.4-0.7v-6.6h-3v-3h3V4.7h-3.2v-3h9.5v3h-3.1v4.9
	h2.7v3h-2.7v5.7c1-0.2,1.9-0.5,2.9-0.7L189.1,20.5z M199.8,14.5c1.4,2.9,3.6,5.6,5.9,7.2c-0.7,0.6-1.7,1.7-2.2,2.5
	c-1.7-1.5-3.4-3.9-4.7-6.5v8h-3.1V18c-1.6,2.7-3.7,5.1-6,6.6c-0.5-0.7-1.5-1.9-2.1-2.5c2.7-1.6,5.4-4.5,6.9-7.6h-5.2v-3h6.5V7.8
	h-2.7c-0.5,1.2-1,2.4-1.6,3.2c-0.5-0.5-1.9-1.2-2.5-1.6c1.4-1.9,2.2-5,2.6-8l3,0.5c-0.1,1-0.4,2-0.5,2.9h1.9V0h3.1v4.7h5.2v3h-5.2
	v3.7h6.4v3H199.8z"/>
<path class="st1" d="M228.2,22.5c0.9,0,1-0.6,1.1-4.4c0.7,0.5,2.1,1.1,3,1.4c-0.4,4.9-1.1,6.1-3.9,6.1h-3.2c-3.1,0-3.9-1-3.9-4.1
	v-8.2h-3.9c-0.5,5.7-1.7,10.1-9,12.6c-0.4-0.9-1.2-2.2-2-2.9c6.2-1.9,7-5.2,7.4-9.7h-6.7v-3.1h10.5v-10h3.2v10h10.8v3.1h-7.2v8.2
	c0,1,0.1,1.1,1,1.1h2.7V22.5z M212.1,9.1c-0.4-1.7-1.6-4.6-2.9-6.7l3-1.1c1.2,2.1,2.6,4.7,3.1,6.6L212.1,9.1z M230.4,2.2
	c-1.2,2.5-2.6,5.1-3.7,6.7l-2.9-1.1c1.1-1.9,2.5-4.7,3.1-6.9L230.4,2.2z"/>
<path class="st1" d="M234.9,6.8l1-1.9L234.1,4l0.4-1.1l2,0.5l0.2-2.1h1.2l0.2,2.1l2-0.5l0.4,1.1l-1.9,0.9l1.1,1.9l-1,0.7l-1.4-1.6
	L236,7.5L234.9,6.8z"/>
<path class="st1" d="M241.8,12.8l1.1-1.5c0.7,0.7,1.6,1.2,2.6,1.2c1.2,0,2-0.6,2-1.6c0-1.1-0.7-1.9-3.2-1.9V7.4
	c2.1,0,2.9-0.7,2.9-1.7c0-0.9-0.6-1.4-1.6-1.4c-0.9,0-1.5,0.4-2.2,1L242,3.8c1-0.9,2.1-1.5,3.5-1.5c2.2,0,3.9,1.1,3.9,3.1
	c0,1.2-0.7,2.1-2,2.6v0.1c1.4,0.4,2.4,1.4,2.4,2.9c0,2.1-1.9,3.4-4.1,3.4C243.9,14.4,242.7,13.6,241.8,12.8z"/>
<path class="st1" d="M265.6,13.5c-0.2,2.1-0.7,4-1.4,5.7c1.6,2.7,4.7,3.1,9.1,3.2c3,0,7.4-0.1,10.5-0.5c-0.5,0.6-0.9,2.1-1,3
	c-2.9,0.1-6.4,0.2-9.6,0.2c-5,0-8.2-0.5-10.3-3.4c-0.9,1.6-2,3-3.2,3.9c-0.4-0.6-1.5-1.7-2.1-2.1c2.2-1.6,3.9-4.2,4.7-8h-1.9
	c-0.6,0-1.5,0.2-1.7,0.4c-0.1-0.6-0.7-2.1-1-2.6c0.5-0.1,0.9-0.4,1.4-0.9c0.5-0.5,1.6-2,2.6-3.5h-3.5V6.4h5.5l0.4-0.1l1.9,0.9V5h7.2
	V3.7c-1.9,0.1-3.9,0.2-5.7,0.2c-0.1-0.6-0.4-1.6-0.6-2.2c4.7-0.1,10.1-0.6,13.3-1.2l2,2.1c-1.7,0.4-3.7,0.6-5.9,0.9V5h6.9v2.5h-4.4
	c1.9,1,4,2.1,5.1,3l-2,2c-1.4-1-3.5-2.4-5.5-3.5l1.2-1.5h-1.5v4.1h-3.1V8.9c-1.2,1.2-2.7,2.2-4.4,3h10.1c-0.1,0.6-0.2,1.4-0.5,2.1
	h4.2c0,0,0,0.6-0.1,1.1c-0.2,3-0.6,4.5-1.2,5.1c-0.5,0.5-1.1,0.7-2,0.7c-0.7,0.1-2,0.1-3.4,0c0-0.7-0.4-1.7-0.7-2.4
	c1.1,0.1,2.2,0.1,2.7,0.1s0.6,0,0.9-0.2c0.2-0.2,0.5-0.9,0.6-2.2h-4.4c0.2-0.6,0.4-1.2,0.5-2.1h-2.2c-0.5,3.4-1.6,5.6-5.7,7
	c-0.2-0.7-1.1-1.9-1.6-2.4c3-0.9,4-2.4,4.4-4.6h-2.4v-2c-0.4,0.1-0.6,0.2-1,0.4c-0.4-0.6-1.2-1.7-1.9-2.2c2.1-0.6,4.5-1.7,6-3h-5.2
	c-1,1.5-2.6,3.9-4,5.6h1.7l0.5-0.1L265.6,13.5z M262.2,6c-0.7-1.1-2.1-3.1-3.2-4.5l2.5-1.4c1.2,1.2,2.6,3,3.4,4.1L262.2,6z"/>
<path class="st1" d="M289.4,18.4v2.4h-3V1.5h9.6v16.7h-6.6V18.4z M289.4,4.5v3.9h3.5V4.5H289.4z M293,15.4v-4.1h-3.5v4.1H293z
	 M310.2,22c0,1.7-0.4,2.6-1.4,3.1c-1.1,0.5-2.6,0.6-5,0.6c-0.1-0.9-0.6-2.4-1.1-3.1c1.5,0.1,3.1,0,3.6,0s0.6-0.1,0.6-0.6v-4.9h-6.5
	c-0.7,3.2-2.1,6.6-5.2,8.8c-0.5-0.6-1.7-1.7-2.5-2.1c4.6-3.4,5-8.5,5-12.7v-10h12.3V22H310.2z M307,14.1v-3.5h-5.9V11
	c0,1,0,2-0.1,3.1H307z M301.1,4.2v3.5h5.9V4.2H301.1z"/>
<path class="st1" d="M337.4,7.4c-1,2.5-2.5,4.7-4.1,6.6c0.7,5,1.7,8.5,2.4,8.5c0.4,0,0.6-1.6,0.6-4.9c0.6,0.6,1.6,1.4,2.5,1.7
	c-0.5,5-1.4,6.2-3.5,6.2c-2.1,0-3.6-3.7-4.6-8.8c-0.5,0.4-1,0.7-1.5,1.1c0.9,1.9,1.9,4.2,2.2,5.7l-2.2,1c-0.2-0.9-0.6-2-1.1-3.2
	c-0.2,3.1-0.9,4-2.7,4h-2.4c-2.2,0-2.7-0.7-2.7-3v-4.9h2.4l-0.4-0.6l0.7-0.4H319v-6.4h8.8V15c0.7-0.5,1.4-1.1,2-1.7
	c-0.4-2.5-0.6-5.1-0.7-7.7h-11.5V8c0,4.9-0.5,12.6-2.9,17.7c-0.5-0.5-1.9-1.5-2.6-1.7c2.2-4.7,2.5-11.5,2.5-16V2.8H329
	c0-0.9-0.1-1.9-0.1-2.7h3c0,0.9,0,1.9,0,2.7h2.2c-0.6-0.6-1.4-1.2-2-1.7l1.9-1.4c0.9,0.6,2.1,1.6,2.7,2.2l-1.2,0.9h2.1v2.7h-5.5
	c0.1,1.6,0.2,3.1,0.4,4.6c0.7-1.1,1.2-2.2,1.7-3.5L337.4,7.4z M316.7,23.7c0.7-1.5,1.2-3.9,1.5-5.9l2.1,0.6c-0.2,2-0.7,4.6-1.5,6.2
	L316.7,23.7z M328.5,8.9h-9.6V6.6h9.6V8.9z M321.9,14.4h3.7v-2.1h-3.7V14.4z M325.3,23.1c0.6,0,0.6-0.4,0.7-2.9
	c0.5,0.4,1.5,0.7,2.1,0.9c-0.4-1-0.7-1.9-1.1-2.7l2-0.7c-0.2-0.4-0.6-0.7-1.1-1.1h-3.2c0.7,1.1,1.5,2.5,1.9,3.4l-2,1.1
	c-0.2-0.7-0.9-2-1.5-3.1v4.5c0,0.7,0.1,0.7,0.6,0.7C323.7,23.1,325.3,23.1,325.3,23.1z"/>
<path class="st1" d="M341.7,14.1V2.9h4.1v11.6c0,4.2,1.5,5.6,3.9,5.6s4-1.4,4-5.6V3h3.9v11.2c0,6.7-2.9,9.5-7.9,9.5
	C344.6,23.7,341.7,20.9,341.7,14.1z"/>
<path class="st1" d="M362.3,3h6.6c4.5,0,8,1.6,8,6.4c0,4.6-3.5,6.7-7.9,6.7h-2.7v7.2h-4.1V3H362.3z M368.8,12.9
	c2.7,0,4.1-1.1,4.1-3.5s-1.5-3.1-4.2-3.1h-2.2v6.6H368.8z"/>
<path class="st1" d="M402.9,9.6c-1.1,3.6-2.7,6.7-4.7,9.3c0.7,2,1.6,3.1,2.5,3.1c0.6,0,1-1.4,1.1-4.9c0.7,0.7,1.9,1.5,2.7,1.9
	c-0.5,5.1-1.6,6.2-4.1,6.2c-1.9,0-3.5-1.4-4.6-3.6c-1.4,1.5-3,2.7-4.6,3.7c-0.5-0.7-1.6-2.1-2.4-2.7c2.1-1.1,4-2.6,5.6-4.5
	c-0.9-3.1-1.5-7-1.9-11.1h-8v3h6.7c0,0,0,0.9,0,1.2c-0.1,5.7-0.2,8.2-0.9,9c-0.5,0.7-1.1,1-1.9,1.1s-1.9,0.1-3.1,0.1
	c0-1-0.4-2.2-0.9-3c1,0.1,1.9,0.1,2.4,0.1c0.4,0,0.6,0,0.9-0.4c0.2-0.4,0.4-1.7,0.5-5.1h-3.6c-0.1,4-0.6,9.3-3,12.7
	c-0.6-0.6-2-1.9-2.7-2.2c2.1-3.2,2.2-8.1,2.2-11.6v-8h11.2c0-1.4-0.1-2.7-0.1-4.1h3.5c0,1.4,0,2.7,0,4.1h4.2c-1-0.9-2.4-1.7-3.5-2.4
	l2-2c1.5,0.7,3.5,2,4.5,3l-1.4,1.4h2.9v3.2h-8.5c0.2,2.7,0.6,5.4,1.1,7.5c1.1-1.9,2-3.9,2.6-6.1L402.9,9.6z"/>
<path class="st1" d="M424.5,0.5c1.2,4,4.1,7.9,7.9,9.8c-0.6,0.7-1.7,2.1-2.2,3c-0.7-0.5-1.4-1-2.1-1.6c-0.2,8.1-0.6,11.2-1.6,12.3
	c-0.6,0.9-1.4,1.1-2.5,1.4c-0.9,0.1-2.5,0.1-4.1,0.1c0-1-0.5-2.4-1.1-3.2c1.5,0.1,3,0.1,3.6,0.1c0.5,0,0.9,0,1.1-0.4
	c0.5-0.6,0.9-3,1.1-8.7h-5.4c-0.7,5.2-2.5,10-9.6,12.6c-0.4-0.9-1.4-2.2-2.1-3c6.2-2,7.6-5.6,8.2-9.6H411v-1.9
	c-0.6,0.7-1.4,1.4-2.1,2c-0.6-0.6-2-1.9-2.7-2.4c3.1-2.2,5.5-5.9,6.9-10l3.5,0.9c-1,3.1-2.5,6-4.4,8.2h14.2c-1.7-2-3.2-4.2-4.1-6.6
	h-4.4V0.5H424.5z"/>
<path class="st1" d="M176.3,60.3c1.1,0,3.1-0.1,3.7-0.2c0.1,0.9,0.1,1.4,0.2,2c-0.7,0.2-2.2,0.2-3.5,0.2h-6.6
	c-2.6,0-3.4-0.9-3.5-2.4l-4.6,0.1v-1.4l4.6-0.1v-0.9h-5.5v5c0,4.2-0.4,10.3-2.7,14.3c-0.6-0.5-2-1.4-2.7-1.6c2.2-3.6,2.4-9,2.4-12.7
	v-7h8.6v-4.1h3.2v1.2h8.7v1.7H170v0.9h7.9l0.5-0.1l2.4,0.6c-0.5,1.4-1.1,3-1.7,4l-2.7-0.9c0.1-0.4,0.4-0.9,0.5-1.5h-7.4v0.7l6.1-0.2
	v1.4l-6.1,0.2c0.1,0.4,0.4,0.5,1.1,0.5h5.9V60.3z M178,74.5c0,1.2-0.2,1.7-1.1,2.1c-0.7,0.2-2,0.2-3.5,0.2c-0.1-0.6-0.5-1.4-0.9-2
	c0.7,0,1.6,0,1.9,0s0.4-0.1,0.4-0.4v-0.6c-2.6,0.5-5.1,0.9-7.4,1.2l-0.6-2.1c1.5-0.1,3.5-0.2,5.7-0.5c-1.5-0.5-3.6-1-5.4-1.2
	l0.7-1.2c2,0.2,4.6,0.7,6,1.2l-0.5,1.1l1.4-0.1v-2.2h-8.1v1.5c0,2-0.4,4.2-2.1,5.7c-0.5-0.5-1.9-1.6-2.6-2c1.5-1.1,1.6-2.5,1.6-3.9
	v-2.7h14.2v5.9H178z M162.3,62.7h17.1v5.2h-17.1V62.7z M165.3,64.8h4v-0.7h-4V64.8z M165.3,66.8h4v-0.7h-4V66.8z M176.2,63.9h-4.1
	v0.7h4.1V63.9z M176.2,66.1h-4.1v0.7h4.1V66.1z"/>
<path class="st1" d="M202.4,73.5c2.6,0,3-0.6,3.4-4c0.9,0.5,2.1,1,3.1,1.1c-0.6,4.5-1.7,5.9-6.4,5.9h-9.3c-5.1,0-6.6-1-6.6-4.9v-10
	c-0.5,0.5-1.1,0.9-1.6,1.2c-0.2-0.7-1.1-2.4-1.7-3.1c3.2-2,6.6-5.1,8.4-8.5l3,1.1c-0.2,0.4-0.5,0.7-0.7,1.1h6.4l0.6-0.1l2.1,1.6
	c-0.9,1.4-2.1,2.7-3.4,4.1h6.7v10.3H203v-1.2h-13.2v3.2c0,1.6,0.5,2,3.5,2H202.4z M191.7,56.5c-0.7,0.9-1.5,1.7-2.2,2.6h6.1
	c0.7-0.7,1.6-1.6,2.2-2.6H191.7z M189.6,65.3h5.1v-3.2h-5.1V65.3z M202.9,62h-5v3.2h5V62z"/>
<path class="st1" d="M219,68.6c-0.4-0.9-0.9-2.2-1.5-3.6V77h-3V65.9c-0.7,2.5-1.6,4.9-2.6,6.5c-0.2-0.9-1-2.4-1.5-3.2
	c1.5-2.1,2.9-6.1,3.6-9.3h-2.7v-3h3.2v-5.4h3v5.4h2.7v3h-2.7v0.9c0.7,0.9,2.9,4.6,3.4,5.4L219,68.6z M233.8,65.4
	c-0.2-0.4-0.4-0.7-0.7-1.1c-0.7,2.2-1.7,4.4-3,6.1c1.7,1.6,4,2.7,6.5,3.5c-0.7,0.6-1.7,2-2.1,3c-2.6-0.9-4.7-2.2-6.5-4
	c-1.9,1.7-4,3.1-6.6,4.1c-0.4-0.7-1.4-2-2-2.5c2.6-1,4.9-2.4,6.6-4.1c-1.2-1.7-2.2-3.6-3-5.7c-0.4,0.4-0.7,0.6-1.1,1
	c-0.5-0.6-1.5-1.5-2.2-2c1.7-1.4,3.5-3.5,4.6-5.4l2.9,1.4c-0.9,1.4-2,2.9-3.1,4.1l1.6-0.4c0.6,1.7,1.5,3.4,2.5,4.7
	c1-1.4,1.7-3,2.1-4.7l2.7,0.7c-1-1.4-2.4-3-3.6-4.1l1.9-1.6H221v-3h6.2c-0.4-1-1.1-2.1-1.7-3l2.9-1.1c0.9,1,1.7,2.4,2.1,3.4
	l-1.7,0.7h7.5v3h-4.4c1.6,1.6,3.6,3.6,4.5,5.1L233.8,65.4z"/>
<path class="st1" d="M263.3,72.8V76h-24.9v-3.2h3.4V60.6h3.5v12.2h4.7V56.3h-10.6v-3.2h23.2v3.2h-9.1v6h7.7v3.2h-7.7v7.2H263.3z"/>
<path class="st1" d="M289.4,61c-1.1,3.6-2.7,6.7-4.7,9.3c0.7,2,1.6,3.1,2.5,3.1c0.6,0,1-1.4,1.1-4.9c0.7,0.7,1.9,1.5,2.7,1.9
	c-0.5,5.1-1.6,6.2-4.1,6.2c-1.9,0-3.5-1.4-4.6-3.6c-1.4,1.5-3,2.7-4.6,3.7c-0.5-0.7-1.6-2.1-2.4-2.7c2.1-1.1,4-2.6,5.6-4.5
	c-0.9-3.1-1.5-7-1.9-11.1h-8v3h6.7c0,0,0,0.9,0,1.2c-0.1,5.7-0.2,8.2-0.9,9c-0.5,0.7-1.1,1-1.9,1.1s-1.9,0.1-3.1,0.1
	c0-1-0.4-2.2-0.9-3c1,0.1,1.9,0.1,2.4,0.1c0.4,0,0.6,0,0.9-0.4c0.2-0.4,0.4-1.7,0.5-5.1h-3.7c-0.1,4-0.7,9.3-3,12.7
	c-0.6-0.6-2-1.9-2.7-2.2c2.1-3.2,2.2-8.1,2.2-11.6v-8h11.2c0-1.4-0.1-2.7-0.1-4.1h3.5c0,1.4,0,2.7,0,4.1h4.2c-1-0.9-2.4-1.7-3.5-2.4
	l2-2c1.5,0.7,3.5,2,4.5,3l-1.4,1.4h2.9v3.2h-8.5c0.2,2.7,0.6,5.4,1.1,7.5c1.1-1.9,2-3.9,2.6-6.1L289.4,61z"/>
<path class="st1" d="M310.9,51.9c1.2,4,4.1,7.9,7.9,9.8c-0.6,0.7-1.7,2.1-2.2,3c-0.7-0.5-1.4-1-2.1-1.6c-0.2,8.1-0.6,11.2-1.6,12.3
	c-0.7,0.9-1.4,1.1-2.5,1.4c-0.9,0.1-2.5,0.1-4.1,0.1c0-1-0.5-2.4-1.1-3.2c1.5,0.1,3,0.1,3.6,0.1c0.5,0,0.9,0,1.1-0.4
	c0.5-0.6,0.9-3,1.1-8.7h-5.4c-0.6,5.2-2.5,10-9.6,12.6c-0.4-0.9-1.4-2.2-2.1-3c6.2-2,7.6-5.6,8.2-9.6h-4.6v-1.9
	c-0.6,0.7-1.4,1.4-2,2c-0.6-0.6-2-1.9-2.7-2.4c3.1-2.2,5.5-5.9,6.9-10l3.5,0.9c-1,3.1-2.5,6-4.4,8.2h14.2c-1.7-2-3.2-4.2-4.1-6.6
	h-4.4v-3h6.5V51.9z"/>
<rect class="st2" width="474.5" height="89.4"/>
</svg>
