<?xml version="1.0" encoding="utf-8"?>
<!-- Generator: Adobe Illustrator 26.0.3, SVG Export Plug-In . SVG Version: 6.00 Build 0)  -->
<svg version="1.1" id="lead-block-02.svg" xmlns="http://www.w3.org/2000/svg" xmlns:xlink="http://www.w3.org/1999/xlink" x="0px"
	 y="0px" viewBox="0 0 226.1 32.5" style="enable-background:new 0 0 226.1 32.5;" xml:space="preserve">
<style type="text/css">
	.st0{fill:none;stroke:#1147B4;stroke-width:2;stroke-linecap:round;stroke-dasharray:1.000000e-03,4;}
	.st1{fill:#1147B4;}
	.st2{fill:none;}
</style>
<path id="シェイプ_984" class="st0" d="M43.8,29.5h146.2"/>
<g>
	<path class="st1" d="M50,1.9c-0.4,1.2-0.9,2.5-1.5,3.8v14.2h-2.3v-10c-0.4,0.6-0.8,1.2-1.3,1.7C44.8,11,44.2,9.6,43.8,9
		c1.6-1.9,3.1-4.8,4-7.7L50,1.9z M61.2,5.1c-0.6,1.1-1.3,2.1-2.2,2.9c1.2,0.6,2.7,1.1,4.4,1.3c-0.4,0.4-1,1.3-1.3,1.9
		c-1.8-0.4-3.4-1.1-4.8-1.9c-1.3,0.9-2.9,1.6-4.6,2.1c-0.2-0.4-0.6-1-1-1.4v6.5h-2.1V3.7h2.1v2.1C53,4.6,54,3,54.7,1.2l2.1,0.5
		c-0.2,0.5-0.4,1-0.6,1.5h6.5v1.9H61.2z M51.7,9.6c1.4-0.4,2.7-0.8,3.8-1.5c-0.6-0.5-1.1-1-1.5-1.5c-0.4,0.4-0.8,0.8-1.2,1.2
		c-0.3-0.3-0.7-0.6-1.2-1V9.6z M62.8,15.3c-2.1,2.4-5.6,3.8-9.7,4.5c-0.3-0.6-0.7-1.4-1.2-1.9c3.7-0.5,7.1-1.6,8.9-3.5L62.8,15.3z
		 M59.1,11.1c-1.2,1.3-3.2,2.2-5.1,2.8c-0.3-0.4-0.8-1-1.3-1.4c1.7-0.4,3.6-1.3,4.6-2.2L59.1,11.1z M61,12.9c-1.6,1.7-4.2,2.9-7,3.6
		c-0.3-0.4-0.7-1.1-1.2-1.5c2.5-0.5,5.1-1.5,6.4-2.8L61,12.9z M55.2,5.1c0.5,0.6,1.1,1.3,1.9,1.8c0.6-0.5,1.2-1.1,1.6-1.8H55.2z"/>
	<path class="st1" d="M71.7,6.4h-7.4V4.5h3.4c-0.3-0.8-0.8-1.8-1.3-2.5l1.8-0.9C68.6,2,69.2,3,69.6,3.8l-1.3,0.7h3.4V6.4z
		 M82.2,14.3c-0.7,1.2-1.6,2.2-2.7,3c1.1,0.3,2.4,0.5,3.7,0.7c-0.5,0.5-1,1.3-1.3,1.9c-1.8-0.2-3.3-0.7-4.7-1.3
		c-1.5,0.6-3.3,1.1-5.1,1.4c-0.2-0.5-0.6-1.4-1-1.8v0.7H67v0.8H65v-6.9h6V18c1.4-0.2,2.8-0.4,4-0.8c-0.6-0.5-1.1-1-1.6-1.6l0.8-0.2
		h-2.2v-1.6h8.3l0.4-0.1L82.2,14.3z M74.4,3.9h-2.8V2.2h2.8v-1h2.1v3.7h-1.7L75.3,5c-0.1,0.3-0.2,0.6-0.4,0.9h1.8
		c-0.1-0.3-0.2-0.7-0.3-0.9L78,4.6V1.2h2.1v1h2.6v1.8h-2.6v1h-1.5c0.1,0.3,0.3,0.7,0.4,1h3.3v1.4h-3.4V8h2.9v1.2h-2.9v0.7h2.9v1.2
		h-2.9v0.7h3.8v1.4h-7.9v0.3h-2V9.4c-0.2,0.3-0.5,0.5-0.7,0.8c-0.2-0.4-0.8-1.2-1.1-1.7v0.6h-5.9V7.3H71v1c1-1,1.9-2.4,2.4-3.9
		l1.1,0.3V3.9z M65.1,10H71v1.8h-5.9V10z M69.1,14.6H67v2.2h2.1V14.6z M76.9,7.3h-2.1V8h2.1V7.3z M76.9,9.2h-2.1v0.7h2.1V9.2z
		 M76.9,11.1h-2.1v0.7h2.1V11.1z M75.8,15.4c0.4,0.4,0.9,0.8,1.5,1.1c0.6-0.3,1.2-0.7,1.6-1.1H75.8z"/>
	<path class="st1" d="M85.3,11.5V3.3h3v8.4c0,3.1,1.1,4.1,2.8,4.1c1.8,0,2.9-1,2.9-4.1V3.3h2.8v8.2c0,4.9-2.1,6.9-5.7,6.9
		C87.4,18.4,85.3,16.4,85.3,11.5z"/>
	<path class="st1" d="M98.2,3.3h3.1l2,7.2c0.5,1.6,0.8,3.1,1.2,4.8h0.1c0.5-1.7,0.8-3.1,1.3-4.8l1.9-7.2h3l-4.5,14.8h-3.5L98.2,3.3z
		"/>
	<path class="st1" d="M117.7,2c-0.5,1.4-1.2,2.8-1.9,4.1v13.7h-2.3V9.6c-0.4,0.6-0.9,1.1-1.4,1.6c-0.2-0.6-0.9-1.9-1.3-2.5
		c1.8-1.8,3.5-4.6,4.5-7.5L117.7,2z M121.7,13c-0.2,0.3-0.4,0.5-0.6,0.8h8.5c0,0,0,0.5-0.1,0.8c-0.3,2.9-0.7,4.2-1.2,4.7
		c-0.4,0.4-0.7,0.5-1.3,0.6c-0.4,0-1.1,0.1-1.9,0c0-0.5-0.2-1.2-0.5-1.7c-0.6,0.7-1.3,1.4-1.9,1.9c-0.4-0.3-1.1-0.9-1.6-1.2
		c1.3-0.8,2.4-2.1,3.2-3.4h-1.3c-1.1,1.7-2.8,3.3-4.4,4.3c-0.3-0.3-1-1-1.5-1.3c1.3-0.8,2.6-1.8,3.6-3h-1.3c-0.7,0.6-1.4,1.2-2,1.6
		c-0.3-0.4-1-1.1-1.4-1.4c1.2-0.6,2.4-1.6,3.3-2.6h-2.8v-1.7h13.5V13H121.7z M119,6.6c-0.3,0.4-0.6,0.7-0.8,1
		c-0.4-0.4-1.2-1.1-1.7-1.4c1.3-1.2,2.4-3.1,3.1-5l2.1,0.6c-0.1,0.3-0.3,0.7-0.4,1h8.5v1.7h-9.3c-0.2,0.3-0.3,0.5-0.5,0.8h8.3v5.3
		H119V6.6z M121.2,7.3h4.8V6.6h-4.8V7.3z M121.2,9.3h4.8V8.5h-4.8V9.3z M126.5,15.4c-0.5,1-1.1,1.9-1.8,2.7c0.6,0.1,1.1,0.1,1.3,0.1
		c0.3,0,0.4,0,0.6-0.2c0.3-0.3,0.5-1,0.7-2.6H126.5z"/>
	<path class="st1" d="M149.6,11.4v1.9h-17.8v-1.9h7.8v-0.9h-5.9V8.8h5.9V8.1c-2,0.1-4,0.1-5.8,0.1c0-0.3-0.1-0.8-0.3-1.2h-1.2V2.9
		h7.5c-0.2-0.4-0.4-0.9-0.7-1.3l2.3-0.7c0.4,0.6,0.8,1.3,1.1,1.9h6.7V7h-1.4l0.2,0.3c-1.7,0.3-3.9,0.6-6.2,0.7v0.8h6.1v1.7h-6.1v0.9
		H149.6z M134.6,14.1h12.5v5.8h-2.4v-0.5h-7.8v0.6h-2.3V14.1z M134.6,6.6c1.6,0,3.3-0.1,5-0.1V5.2h2.2v1.1c1.9-0.1,3.6-0.3,4.8-0.5
		l0.1,0.1V5h-12.1V6.6z M136.9,15.9v1.5h7.8v-1.5H136.9z"/>
	<path class="st1" d="M151.7,10.8c0-4.9,3.1-7.7,6.9-7.7c1.9,0,3.4,0.9,4.3,1.9l-1.5,1.9c-0.8-0.7-1.6-1.2-2.7-1.2
		c-2.2,0-3.9,1.9-3.9,5.1c0,3.2,1.5,5.2,3.9,5.2c1.3,0,2.3-0.6,3.1-1.5l1.6,1.8c-1.2,1.4-2.8,2.2-4.7,2.2
		C154.8,18.4,151.7,15.7,151.7,10.8z"/>
	<path class="st1" d="M165.6,3.3h4.9c3.3,0,5.8,1.2,5.8,4.7c0,3.4-2.5,4.9-5.7,4.9h-2v5.3h-3V3.3z M170.4,10.5c2,0,3-0.9,3-2.6
		c0-1.7-1.1-2.3-3.1-2.3h-1.7v4.9H170.4z"/>
	<path class="st1" d="M181,10.5l-3.9-7.2h3.3l1.5,3.1c0.4,0.7,0.7,1.4,1.1,2.3h0.1c0.4-0.9,0.7-1.6,1-2.3l1.4-3.1h3.1l-3.9,7.3
		l4.2,7.5h-3.3l-1.7-3.3c-0.4-0.8-0.7-1.5-1.2-2.4h-0.1c-0.4,0.9-0.7,1.7-1.1,2.4l-1.6,3.3h-3.1L181,10.5z"/>
</g>
<rect class="st2" width="226.1" height="32.5"/>
</svg>
