<?xml version="1.0" encoding="utf-8"?>
<!-- Generator: Adobe Illustrator 25.2.0, SVG Export Plug-In . SVG Version: 6.00 Build 0)  -->
<svg version="1.1" id="Layer_1" xmlns="http://www.w3.org/2000/svg" xmlns:xlink="http://www.w3.org/1999/xlink" x="0px" y="0px"
	 viewBox="0 0 494.5 138.3" style="enable-background:new 0 0 494.5 138.3;" xml:space="preserve">
<g id="Layer_2_1_">
	<g id="Layer_1-2">
		<path d="M1.5,2.7h64.2c55.2,0,76.8,32.4,76.8,66.7c0,34.9-27.7,66-80.4,66H1.6c-0.7,0.1-1.4-0.4-1.5-1.1c0-0.1,0-0.1,0-0.2
			c0-0.7,0.7-1.3,1.7-1.3h11.3c3.5,0,5.8-2.1,5.8-6V11.5c0-2.9-1.4-6.1-6-6.1H1.4C0.7,5.5,0.1,4.9,0,4.2c0,0,0-0.1,0-0.1
			C0,3.5,0.2,2.7,1.5,2.7 M41.6,129.2c0,2.9,1.3,3.8,3.2,3.8h17c41.9,0,57.1-32.1,57.1-64.3S102.8,5.3,67.4,5.3H44.3
			c-2.4,0-2.6,2-2.6,2.9L41.6,129.2z M148.9,2.7c-1,0-1.9,0.4-1.9,1.2c0,0.7,0.5,1.3,1.2,1.3c0.1,0,0.2,0,0.2,0h11.3
			c2.6,0,5.1,1.8,5.1,6.8v114.9c0,2.4-1.8,6-5,6h-11.2c-0.7-0.1-1.3,0.4-1.4,1.1c0,0.1,0,0.2,0,0.3c0,0.4-0.1,1.1,1.4,1.1H203
			c0.8,0,1.9-0.1,1.9-0.9s-0.2-1.6-1.6-1.6h-10.5c-1.5,0-5.6-0.9-5.6-5.5V10.8c0-3.3,2.1-5.5,5.9-5.5h10.3c0.9,0,1.4-0.5,1.4-1.2
			s-0.5-1.3-1.7-1.3h-54.2V2.7z M233.9,69.1c0-36.7,16.4-66.4,47.2-66.4c30.2,0,47.2,29.7,47.2,66.4s-15.5,66.4-47.2,66.4
			C250.4,135.6,233.9,105.8,233.9,69.1 M281.1,138.3c43.8,0,71.4-31,71.4-69.1S325.2,0,281.1,0s-71.4,31-71.4,69.1
			S238.2,138.3,281.1,138.3 M492.5,134.6c-17.2,1.8-26.7-26.4-35.4-39.8c-6.5-9.9-20.3-20-33.9-22c22.4-1.3,47.5-8.5,47.5-33.9
			c0-20.6-12.7-36.2-59.3-36.2h-53.7c-0.7-0.1-1.3,0.4-1.4,1.1c0,0,0,0,0,0.1c0,0.7,0.6,1.3,1.4,1.3c0,0,0,0,0,0H370
			c2.6,0,5.1,1.8,5.1,6.8v114.9c0,2.4-1.8,6-5,6H358c-0.7,0-1.3,0.5-1.4,1.2c0.1,0.7,0.7,1.3,1.4,1.3h57c0.8,0,1.5-0.4,1.5-1.2
			s-0.5-1.3-1.6-1.3h-11.5c-1.5,0-5.6-1-5.6-5.5V73.1h5.9c28.2,0,30.3,30.6,44.3,48.1c12,15,27.7,16.9,36.6,16.9
			c3,0.1,5.9-0.1,8.8-0.7C494.9,136.9,495.2,134.3,492.5,134.6 M403.5,5.2h8.3c14.2,0,37.2,5.6,37.2,32.4
			c0,24.6-20.4,32.9-39.3,32.9h-12.1V10.8C397.6,7.4,399.7,5.2,403.5,5.2"/>
	</g>
</g>
</svg>
