<svg id="圖層_1" data-name="圖層 1" xmlns="http://www.w3.org/2000/svg" viewBox="0 0 168 80.91"><defs><style>.cls-1{fill:#1a262f;}</style></defs><title>curel-logo</title><path class="cls-1" d="M36.89,58.31c-2,.08-1.78.47-2.66,4.56-0.51,2.55-.88,4.64-1.69,7.71-1.07,3.91-3.36,6.77-8.92,6.77-7.17,0-11.35-6.51-11.54-14.35a196.08,196.08,0,0,1-1.17-22.72,186.47,186.47,0,0,1,1.17-22.4C12.27,10,16,3.49,23.62,3.49c5.56,0,7.85,2.88,8.92,6.81,0.8,3,1.18,5.13,1.69,7.68,0.88,4.11.7,4.49,2.66,4.56,0.5,0,1.57,0,1.57,0S38.38,8.93,38,4.38c-0.08-1-1.43-1.82-2.75-2.28C29.39,0.08,26.84,0,23.38,0A20.52,20.52,0,0,0,6.5,8.11C1.74,14.17-.16,25.16,0,40.44S1.5,66.92,6.27,73c5.18,6.6,11.89,7.87,17.11,7.87,3.46,0,6-.08,11.82-2.1,1.33-.45,2.68-1.32,2.75-2.3,0.41-4.55.49-18.13,0.49-18.13H36.89Zm72.53-34.18c-5,.24-9.12,3.29-11.76,7.07V26.93c0-1.69-.32-2.38-1.76-2.38H82.17s0,1,0,1.5c0.05,1.38.4,1.69,2.3,2s4.24,0.78,4.24,4.68V71.54c0,3.91-2.41,4.35-4.24,4.69a3.16,3.16,0,0,0-1.93.76,3.2,3.2,0,0,0-1.94-.76c-1.82-.34-4.24-0.78-4.24-4.69V26.93c0-1.69-.32-2.38-1.75-2.38H60.87s0,1,0,1.5c0,1.38.4,1.69,2.29,2s4.23,0.78,4.23,4.68V63.93c0,6-3.67,10.47-8.59,10.47S51.27,71,51.27,63.47V26.93c0-1.69-.32-2.38-1.74-2.38H35.79s0,1,0,1.5c0.07,1.38.39,1.69,2.27,2s4.24,0.78,4.24,4.68V64.13c0,11.7,4.59,16.78,11.92,16.78s12.44-7.15,13.53-7.15c0.45,0,.84.4,0.84,1.56v4.4l13.58,0h22s0-1,0-1.52c-0.08-1.38-.41-1.67-2.28-2s-4.24-.78-4.24-4.69l0-35.41c1.23-3.35,9.45-5.7,10.69.1,0.9,4.1.69,3.68,2.65,3.74,0.51,0,1.08,0,1.08,0s-0.28-9-.42-13.52C111.61,24.72,111.51,24,109.42,24.13ZM131.88,24c-16,0-19,15.35-19,32.14,0,20,8,24.6,18.83,24.56,11.33,0,14.82-10.88,14.78-15.36V63.95s-0.5,0-1,0c-1.81.06-1.7-.23-2.54,3.87-0.6,3.1-4.62,6.63-9.49,6.63l-1.75,0c-9.72,0-9.59-11.88-9.59-20.54,0-1.94.84-1.64,3.9-1.64h20.21c2,0,2.79-.86,2.79-5.27C149,35.7,145.12,24,131.88,24Zm8.44,23.1c0,2.08-.83,1.6-3.9,1.6H126c-3.06,0-3.9.49-3.9-1.6,0-2.6-.37-19.77,9.11-19.81C141.49,27.32,140.32,44.49,140.32,47.09Zm11.33,29.13c-1.88.35-2.19,0.65-2.26,2,0,0.51,0,1.52,0,1.52H168s0-1,0-1.52c-0.09-1.38-.41-1.67-2.29-2s-2.88-.78-2.88-4.69l0-69.12c0-1.69-.33-2.33-1.73-2.33L147.78,0s0,1,0,1.51c0.06,1.4.4,1.68,2.27,2s4.26,0.81,4.26,4.69V71.54C154.34,75.45,153.49,75.89,151.65,76.22ZM127.6,19.77a13.25,13.25,0,0,0,3,.11,3.17,3.17,0,0,0,2.24-.64c1.54-1.11,7.85-4.55,10.18-6.31s0.84-3-.1-3.8S140,7.19,139,6.53s-3.33-.82-4.4.66c-2.47,3.47-5,7.71-7.44,10.86C126.38,18.94,126.75,19.56,127.6,19.77Z"/></svg>