<svg xmlns="http://www.w3.org/2000/svg" width="20" height="20" viewBox="0 0 20 20">
    <g fill="none" fill-rule="evenodd">
        <g fill="#D1D1D1" fill-rule="nonzero">
            <g>
                <g>
                    <path d="M4.982 5.1c0 2.265 1.67 4.102 3.729 4.102 2.058 0 3.728-1.837 3.728-4.101C12.44 2.837 10.77 1 8.712 1c-2.06 0-3.73 1.837-3.73 4.1z" transform="translate(-2732 -994) translate(2728 988) translate(4 6) matrix(-1 0 0 1 17.421 0)"/>
                    <path d="M17.73 13.418c-.263-.21-2.049-2.336-7.272-2.796-3.57-.315-5.162-3.31-5.995-4.44-.72-.979-1.146-1.609-1.932-1.154-.849.49-.873 2.68 1.377 5.173 1.69 1.874 4.084 2.476 4.31 3.845.225 1.37 0 4.055 0 5.454 0 0 5.29 1.719 9.512-3.217 1.375-1.607.261-2.656 0-2.865z" transform="translate(-2732 -994) translate(2728 988) translate(4 6) matrix(-1 0 0 1 20.404 0)"/>
                </g>
            </g>
        </g>
    </g>
</svg>
