<?xml version="1.0" encoding="utf-8"?>
<!-- Generator: Adobe Illustrator 26.0.3, SVG Export Plug-In . SVG Version: 6.00 Build 0)  -->
<svg version="1.1" id="desc-block-02_sp.svg" xmlns="http://www.w3.org/2000/svg" xmlns:xlink="http://www.w3.org/1999/xlink"
	 x="0px" y="0px" viewBox="0 0 281.1 100.5" style="enable-background:new 0 0 281.1 100.5;" xml:space="preserve">
<style type="text/css">
	.st0{fill:none;stroke:#1147B4;stroke-width:3;stroke-linecap:round;stroke-dasharray:1.000000e-03,6;}
	.st1{fill:#1147B4;}
</style>
<path id="シェイプ_984" class="st0" d="M17,37h254.6"/>
<path id="シェイプ_984-2" class="st0" d="M33,96h216.6"/>
<g>
	<path class="st1" d="M23.3,14.3c-0.9-0.9-2.9-2.1-4.5-2.8L20.6,9c1.6,0.6,3.6,1.7,4.6,2.5L23.3,14.3z M25.9,18.3
		c-1,3-2.3,6.1-3.6,8.8l-3-1.8c1.1-2.2,2.7-5.6,3.9-8.8L25.9,18.3z M24.6,6.9C23.6,6,21.7,4.7,20.1,4L22,1.5
		c1.5,0.7,3.6,1.8,4.6,2.7L24.6,6.9z M40.1,11.5c1.3,1.6,3.2,2.9,5.2,3.7c-0.7,0.6-1.7,1.8-2.1,2.6c-0.4-0.2-0.8-0.4-1.1-0.6
		c1.3,2,2.5,4.4,3.1,6.1l-2.7,1.4c-0.5-1.9-2-4.8-3.4-7l2.2-1.1c-1.9-1.3-3.5-3.1-4.7-5.1h-2.5c-1.2,2.2-2.9,4.2-5,5.7l2.5,0.9
		c-0.7,2.3-1.8,4.8-3.5,6.4l-2.4-1.8c1.6-1.3,2.7-3.5,3.4-5.5c-0.6,0.4-1.2,0.8-1.9,1.1c-0.4-0.7-1.5-1.9-2.1-2.5
		c2.3-1,4-2.5,5.2-4.3H26V8.4h5.9c0.3-0.8,0.6-1.7,0.8-2.5h-5.4V2.7h16.5v3.1h-7.6c-0.2,0.9-0.5,1.7-0.8,2.5h9.4v3.1H40.1z M38,17.5
		c0.9,1.8,1.7,4.2,2,5.8l-2.6,1c-0.3-1.6-1.1-4-1.8-5.8v5.7c0,1.5-0.2,2.3-1.2,2.8c-1,0.5-2.2,0.5-3.9,0.5c-0.1-0.9-0.5-2.1-0.8-3
		c1,0.1,2.1,0,2.5,0s0.4-0.1,0.4-0.4v-9.9h3.1v4.3L38,17.5z"/>
	<path class="st1" d="M60,6.4c0,0,0,1.1,0,1.5c-0.3,11.9-0.4,16.2-1.3,17.5c-0.6,1-1.2,1.2-2.2,1.4c-0.8,0.2-2.1,0.2-3.4,0.1
		c-0.1-0.9-0.4-2.4-1-3.3c1.1,0.1,2.1,0.1,2.7,0.1c0.4,0,0.7-0.1,1-0.5c0.5-0.8,0.8-4.2,0.9-13.6h-2.8c-0.3,7.5-1.3,13.7-4.9,17.9
		c-0.5-0.8-1.6-1.9-2.4-2.4c3.1-3.6,3.9-8.9,4.1-15.5h-3.2V6.4h3.3c0-1.5,0-3,0-4.6H54c0,1.6,0,3.1,0,4.6H60z M71.7,4.5v22.2h-3.3
		V25h-3.6v1.9h-3.2V4.5H71.7z M68.4,21.8v-14h-3.6v14H68.4z"/>
	<path class="st1" d="M84.7,20.1c-0.2,2.5-0.6,5.1-1.2,6.8c-0.6-0.3-1.8-0.7-2.4-0.8c0.6-1.7,1-4.1,1.1-6.4L84.7,20.1z M90.2,12
		c0.9,1.8,1.8,4.1,2,5.6l-2.4,1c-0.1-0.3-0.1-0.7-0.2-1.1c-5.7,0.9-6.7,1.2-7.3,1.4c-0.1-0.5-0.6-1.9-0.9-2.7
		c0.7-0.2,1.3-0.8,2.2-1.9c0.4-0.4,1-1.3,1.8-2.5c-2.2,0.3-2.9,0.4-3.3,0.6c-0.1-0.6-0.6-1.9-0.9-2.7c0.5-0.1,1-0.7,1.5-1.5
		C83.3,7.5,85,4.4,86,1.4l2.8,1.1c-1,2.4-2.4,4.8-3.8,6.8l2-0.1c0.7-1.3,1.5-2.6,2-3.9l2.5,1.6c-1.6,3-3.7,6.2-5.9,8.7l3.2-0.4
		c-0.3-0.8-0.6-1.6-1-2.3L90.2,12z M87.6,19.5c0.4,1.8,0.6,4.2,0.8,5.8L85.9,26c0-1.6-0.3-4.1-0.6-5.9L87.6,19.5z M90.5,18.7
		c0.6,1.7,1.3,3.9,1.6,5.3l-2.3,0.8c-0.3-1.5-0.9-3.7-1.5-5.4L90.5,18.7z M107.3,25.7H96.4v1.8h-3V13.1c-0.4,0.5-0.8,1.1-1.2,1.5
		c-0.3-0.9-1-2.4-1.4-3.2c2.1-2.5,4-6.7,4.8-10l3.2,0.9c-0.4,1.3-1,2.6-1.5,3.9h3.4c-0.4-1.1-1.1-2.5-1.7-3.7l2.8-1.2
		c0.7,1.2,1.5,2.9,1.9,3.9l-2,1h5.3v3h-4.3v2.4h3.8v3h-3.8v2.4h3.8v3h-3.8v2.5h4.7V25.7z M99.6,9.3h-3.2v2.4h3.2V9.3z M99.6,14.7
		h-3.2v2.4h3.2V14.7z M96.4,22.6h3.2v-2.5h-3.2V22.6z"/>
	<path class="st1" d="M118.2,2.4c-0.8,2-1.7,4-2.8,6v19h-3.2V13.3c-0.6,0.8-1.2,1.4-1.7,2c-0.3-0.8-1.2-2.7-1.8-3.5
		c2.5-2.5,5-6.5,6.4-10.5L118.2,2.4z M130.4,24.3c1.7,0,2-0.7,2.2-3.8c0.8,0.5,2.1,1,2.9,1.2c-0.4,4.2-1.4,5.6-4.8,5.6h-6.4
		c-3.9,0-5-1-5-4.9v-7.8l-2.1,0.8l-1.3-2.9l3.4-1.3V4.5h3.1v5.3l2.8-1.1V1.5h3v6.1l3.8-1.5l0.3-0.2l2.5,0.8l-0.1,0.5
		c-0.1,4-0.5,9.3-1.1,12.7l-2.7-0.8c0.3-2.4,0.5-6,0.6-9.5l-3.2,1.3v9.9h-3v-8.8l-2.8,1.1v9.1c0,1.7,0.3,1.9,2.1,1.9H130.4z"/>
	<path class="st1" d="M153.1,2.8c-0.2,0.2-0.4,0.4-0.6,0.7c2.5,2.4,6.7,4.3,11.1,5.2c-0.8,0.8-1.8,2.2-2.4,3.2
		c-1.8-0.5-3.5-1.2-5.1-2v1.7h-12V9.7c-1.7,0.9-3.6,1.7-5.3,2.3c-0.4-1-1.2-2.3-1.9-3.2c5.3-1.2,10.9-4.4,13.6-7.9L153.1,2.8z
		 M148.7,23.3h-6.2v2.2h-3V13.2h9.3V23.3z M142.5,16.1v4.3h3.1v-4.3H142.5z M154.1,8.6c-1.4-0.9-2.6-1.9-3.7-3.1
		c-1.3,1.1-2.7,2.1-4.2,3.1H154.1z M161.2,20.9c0,1.5-0.2,2.3-1.2,2.8c-1,0.5-2.3,0.5-4.1,0.5c-0.1-0.9-0.5-2.1-0.8-3
		c1,0,2.2,0,2.5,0c0.4,0,0.5-0.1,0.5-0.4v-4.6h-3.9v11.4h-3.3V13.2h10.3V20.9z"/>
	<path class="st1" d="M165.8,14.8c0-6.8,4.4-10.8,9.6-10.8c2.6,0,4.7,1.3,6.1,2.7l-2.2,2.6c-1.1-1-2.3-1.7-3.8-1.7
		c-3.1,0-5.5,2.7-5.5,7.1c0,4.5,2.1,7.2,5.4,7.2c1.8,0,3.2-0.8,4.3-2l2.2,2.6c-1.7,2-3.9,3.1-6.6,3.1
		C170,25.5,165.8,21.7,165.8,14.8z"/>
	<path class="st1" d="M191.5,2.5c-1.7,2.4-4.2,5.1-6.4,6.8c-0.4-0.6-1.2-1.8-1.8-2.4c2-1.4,4.2-3.7,5.3-5.6L191.5,2.5z M192.4,8
		c-0.7,1.2-1.4,2.5-2.3,3.7v15.8h-3.2V15.6c-0.6,0.6-1.1,1.1-1.7,1.5c-0.3-0.6-1.2-2.3-1.7-3.1c2.3-1.7,4.7-4.4,6.1-7.2L192.4,8z
		 M196.5,15c-1-0.9-3.2-2.2-4.9-3l1.8-2.4c1.6,0.7,3.9,1.8,5,2.7L196.5,15z M191.7,24.6c1.6-2.2,3.8-5.7,5.5-8.9l2.4,2.2
		c-1.6,2.9-3.5,6.2-5.3,8.9L191.7,24.6z M197,7.6c-0.9-1-2.9-2.4-4.4-3.2l2-2.2c1.5,0.8,3.6,2,4.6,2.9L197,7.6z M209.6,13.2h-2.9
		v10.7c0,1.6-0.3,2.5-1.3,3c-1,0.6-2.4,0.6-4.2,0.6c-0.1-0.9-0.5-2.3-0.9-3.2c1.1,0,2.3,0,2.7,0c0.4,0,0.5-0.1,0.5-0.4V13.2h-4.1
		v-3.1h10.2V13.2z M209.2,5.8h-9.3v-3h9.3V5.8z"/>
	<path class="st1" d="M237.3,23.4v3.3h-25.2v-3.3h10.8v-5.6h-7.6v-3.2h7.6V9.7h-5.8c-0.8,1.5-1.7,3-2.6,4.1c-0.7-0.5-2.2-1.5-3-2
		c2.2-2.4,4-6.2,5-10l3.4,0.8c-0.4,1.3-0.8,2.7-1.3,3.9h4.3v-5h3.5v5h9.4v3.2h-9.4v4.9h8.4v3.2h-8.4v5.6H237.3z"/>
	<path class="st1" d="M250.6,16.6c-1,0.3-2,0.6-3,0.9v10h-3.1v-9c-1.5,0.4-2.9,0.9-4.2,1.2l-0.8-3.2c1.4-0.3,3.1-0.8,5-1.3V9.9h-1.9
		c-0.3,1.4-0.6,2.6-1,3.6c-0.5-0.4-1.7-1.2-2.4-1.5c0.9-2.2,1.3-5.7,1.6-9l2.8,0.5c-0.1,1.1-0.3,2.2-0.4,3.3h1.3V1.4h3.1v5.4h2.3
		v3.2h-2.3v4.5l2.6-0.7L250.6,16.6z M265.6,5.7c0,0,0,1.1-0.1,1.5c-0.5,12.5-1,17.1-2.1,18.5c-0.6,1-1.3,1.3-2.2,1.5
		c-0.8,0.1-2,0.1-3.2,0.1c-0.1-1-0.4-2.3-0.9-3.2c1,0.1,2,0.1,2.5,0.1c0.4,0,0.7-0.1,1-0.5c0.7-0.9,1.2-4.7,1.7-14.8h-0.1
		c-1.4,7.1-4.3,14.3-8.8,18.1c-0.6-0.6-1.8-1.5-2.7-1.9c4.5-3.2,7.3-9.6,8.7-16.1h-1.3c-1.2,4.6-3.6,9.6-6.4,12.3
		c-0.6-0.6-1.7-1.4-2.5-1.9c2.8-2.2,5-6.3,6.2-10.4h-1.4c-0.8,1.9-1.8,3.7-2.9,5c-0.5-0.5-1.8-1.5-2.5-1.9c2.2-2.4,3.8-6.4,4.6-10.6
		l3,0.6c-0.3,1.3-0.6,2.5-1,3.8H265.6z"/>
	<path class="st1" d="M36.1,71.2c0-5.6,1.5-10.2,4.2-14.5l2.6,1.1c-2.4,4.1-3.4,8.8-3.4,13.4c0,4.6,1.1,9.3,3.4,13.4l-2.6,1.1
		C37.6,81.4,36.1,76.8,36.1,71.2z"/>
	<path class="st1" d="M69.9,75.4c-1.3,0.9-2.9,1.7-4.3,2.4c1.6,0.8,3.5,1.3,5.7,1.7c-0.6,0.6-1.4,1.8-1.8,2.6
		c-5.7-1.1-9.2-3.6-11.3-7.9c-1.1,0.9-2.5,1.7-4,2.4v2.5l5.2-1.1c-0.1,0.7-0.2,1.9-0.2,2.5c-6.7,1.5-7.6,1.8-8.2,2.2l0-0.3
		c-0.2-0.7-0.6-1.6-1-2c0.5-0.4,1.2-1.1,1.2-2.5v-0.1c-1.4,0.4-2.8,0.8-4.3,1c-0.4-0.7-1.2-1.8-1.8-2.4c3.1-0.4,6.2-1.2,8.6-2.4
		h-8.2v-2.6h11.3c-0.2-0.5-0.4-1-0.6-1.4h0c-0.3,0-0.6,0-0.9,0c-0.1-0.6-0.5-1.4-0.8-1.9c0.6,0,1.3,0,1.5,0s0.3-0.1,0.3-0.3v-1.2
		h-2.3v4.1h-2.8v-4.1h-2.2v3.5h-2.5v-5.5h4.7v-1h-5.8v-2.2h1.7c-0.6-0.3-1.3-0.8-1.8-1c1-1.1,1.7-2.6,2.2-4l2.5,0.6
		c-0.1,0.4-0.3,0.7-0.4,1.1h1.6v-1.8h2.8v1.8h4.6v2.1h-4.6v1.1h5.4v2.2h-5.4v1h5v3.2c0,0.7-0.1,1.2-0.4,1.5l0.6-0.2
		c0.4,0.7,0.8,1.5,1.1,2.3h10.2V74h-2.8L69.9,75.4z M51.5,61.4v-1.1h-2.7c-0.2,0.4-0.5,0.8-0.7,1.1H51.5z M64.2,67h-3v-9.2h3V67z
		 M61.3,74c0.6,0.9,1.3,1.6,2,2.3c1.3-0.7,2.7-1.5,3.7-2.3H61.3z M69.7,67.7c0,1.4-0.3,2.1-1.3,2.5c-1,0.4-2.4,0.4-4.3,0.4
		c-0.2-0.8-0.6-1.9-1-2.6c1.3,0.1,2.6,0.1,3,0c0.4,0,0.5-0.1,0.5-0.5V56.6h3V67.7z"/>
	<path class="st1" d="M74.3,69.9H85v12.5h-3.3v-1.3h-4.2v1.4h-3.1V69.9z M77.5,73.1v4.8h4.2v-4.8H77.5z M94.6,67.6H78.2V57.4h16.4
		V67.6z M91.2,60.6h-9.8v3.8h9.8V60.6z M98.4,69.9v12.5H95v-1.3h-4.5v1.4h-3.2V69.9H98.4z M95,77.9v-4.8h-4.5v4.8H95z"/>
	<path class="st1" d="M126.7,60.7c0,0,0,1.1,0,1.5c-0.4,12.5-0.7,17-1.8,18.5c-0.8,1-1.6,1.3-2.7,1.5c-1.1,0.1-2.7,0.1-4.4,0.1
		c-0.1-0.9-0.5-2.3-1.1-3.2c1.8,0.2,3.4,0.2,4.2,0.2c0.6,0,0.9-0.1,1.2-0.5c0.8-0.9,1.2-5.1,1.5-15h-6c-0.7,1.7-1.6,3.2-2.5,4.4
		c-0.4-0.4-1.4-1.1-2.2-1.6v13.1h-7.5v2h-3V60.9h3.2c0.4-1.4,0.7-3.2,0.8-4.5l3.6,0.5c-0.5,1.4-1,2.8-1.5,4h4.3v4.5
		c1.6-2.4,3-5.7,3.8-9l3.2,0.7c-0.3,1.2-0.7,2.4-1.1,3.6H126.7z M109.9,63.8h-4.5v4.5h4.5V63.8z M109.9,76.7v-5.5h-4.5v5.5H109.9z
		 M119.2,75.2c-0.8-1.7-2.5-4.4-3.9-6.5l2.6-1.5c1.4,1.9,3.2,4.6,4.1,6.2L119.2,75.2z"/>
	<path class="st1" d="M139.4,71.3c-1.1,0.3-2.2,0.6-3.2,0.9v6.6c0,1.6-0.3,2.4-1.2,2.9c-0.9,0.5-2.3,0.6-4.3,0.6
		c-0.1-0.9-0.5-2.2-0.9-3c1.1,0,2.3,0,2.6,0c0.4,0,0.5-0.1,0.5-0.5V73l-3.3,0.8l-0.6-3.2c1.1-0.2,2.5-0.5,3.9-0.9v-5h-3.4v-3.1h3.4
		v-5.3h3.2v5.3h3v3.1h-3v4.2l2.9-0.7L139.4,71.3z M152.6,79.4c0.1,0,0.3,0,0.4-0.1c0.1-0.1,0.1-0.3,0.2-0.9c0-0.5,0.1-1.7,0.1-3.3
		c0.6,0.5,1.6,1.1,2.4,1.3c0,1.5-0.1,3.2-0.3,4c-0.2,0.7-0.5,1.1-0.9,1.5c-0.4,0.3-1.1,0.4-1.7,0.4h-1.5c-0.7,0-1.5-0.2-1.9-0.7
		c-0.5-0.6-0.7-1.2-0.7-3.3v-8.9h-3.8v2c0,3.7-0.9,8.5-5.5,11.4c-0.4-0.7-1.7-2-2.2-2.5c4-2.4,4.4-6,4.4-8.9v-5h10.4v11.9
		c0,0.6,0,1,0.1,1.1c0.1,0.1,0.2,0.1,0.3,0.1H152.6z M155.5,64h-16v-3.2h5.9c-0.3-1.1-0.9-2.8-1.5-4l3.2-0.8c0.6,1.3,1.3,2.9,1.7,4
		l-2.6,0.8h9.3V64z"/>
	<path class="st1" d="M163.9,61.1c-1.5,2.1-3.2,4-5,5.3c-0.4-0.6-1.6-2-2.2-2.6c2.5-1.7,4.9-4.5,6.2-7.5l3.2,0.9
		c-0.2,0.5-0.4,1-0.7,1.4h17v2.5H163.9z M178.9,65.4c-0.1,7.8,0.2,13.7,1.8,13.7c0.4,0,0.6-1.6,0.6-4c0.6,0.8,1.4,1.6,2.1,2.1
		c-0.2,3.7-0.8,5.2-3,5.2c-4.1,0-4.8-6.1-4.9-14.5H171l1.8,0.4c-0.4,0.6-0.8,1.3-1.2,1.8h3.2v2.3h-6.3v1h5.4v2.2h-5.4V77h6.8v2.4
		h-6.8v3.1h-3.3v-3.1h-7.3V77h7.3v-1.1h-5.6v-2.2h5.6v-1h-6.6v-2.3h3.5c-0.2-0.6-0.5-1.3-0.8-1.8L163,68h-2.5v-2.5H178.9z
		 M163.6,64.4v-2.3H180v2.3H163.6z M168.3,70.2c0.4-0.7,0.9-1.6,1.2-2.3h-5.2c0.4,0.7,0.9,1.6,1,2.3H168.3z"/>
	<path class="st1" d="M195.3,57.5c-0.8,1.8-1.7,3.6-2.7,5.3v19.7h-3.2V67.4c-0.9,1.1-1.8,2.1-2.7,3c-0.3-0.8-1.2-2.6-1.8-3.5
		c2.9-2.5,5.6-6.4,7.2-10.4L195.3,57.5z M206.3,78.9c1.4,0,1.7-1.2,1.9-5.8c0.8,0.6,2.1,1.2,2.9,1.4c-0.4,5.4-1.2,7.3-4.6,7.3h-4.7
		c-3.4,0-4.4-1.1-4.4-4.9v-20h3.2V64h9.7v3.2h-9.7V77c0,1.7,0.2,1.9,1.5,1.9H206.3z"/>
	<path class="st1" d="M225.6,70.5h2.8v11.9h-2.8v-3.7h-7.9c-0.5,1.4-1.3,2.8-2.7,3.8c-0.4-0.5-1.4-1.4-2-1.8
		c2.3-1.7,2.7-4.5,2.7-6.5v-3.7h2.7v1.4h7.2V70.5z M219.9,63.5c-0.1,3.4-0.1,4.8-0.5,5.4c-0.3,0.4-0.6,0.6-1.2,0.7
		c-0.4,0.1-1,0.1-1.6,0.1c-0.1-0.6-0.2-1.3-0.4-1.8c-0.4,0.8-1,1.5-1.7,2.1c-0.3-0.4-0.8-1.3-1.3-1.7c1.1-0.8,1.6-2,1.8-3.5h-1.4v-2
		h5.9c-0.2-0.3-0.4-0.6-0.6-0.9l0.9-0.5h-6.1v-2.5h7.2c-0.3-0.6-0.5-1.3-0.8-1.8l2.4-0.8c0.4,0.8,1,1.8,1.3,2.6h6.6v2.5h-6.3
		l1.9,0.7c-0.9,0.9-1.8,1.8-2.6,2.6v5.7h-2.2v-5.7c0.9-0.9,1.9-2.3,2.5-3.2h-2.9c0.5,0.6,1,1.4,1.3,2l-1.7,1.1
		c-0.1-0.3-0.3-0.7-0.5-1.1L219.9,63.5z M217.1,64.7c-0.2,1.1-0.4,2-0.8,2.9c0.4,0,0.6,0.1,0.9,0.1c0.2,0,0.3,0,0.5-0.2
		c0.1-0.3,0.2-1,0.3-2.7H217.1z M225.6,76.1v-1.7h-7.2c0,0.5,0,1.1-0.1,1.7H225.6z M229.1,61.8l1.8,1.7c-1.3,0.6-2.9,1.1-4.4,1.6
		v2.4l1.4-0.3c0,0.6,0.1,1.3,0.2,1.8c-2.5,0.6-3.1,0.8-3.5,1.1c-0.1-0.5-0.5-1.5-0.8-1.9c0.3-0.2,0.6-0.5,0.6-1.5l0-3
		C226.2,63.1,228,62.5,229.1,61.8z M229.2,64.6c0.8,1.1,1.7,2.5,2.1,3.5l-1.8,1.2c-0.4-1-1.3-2.6-2.1-3.7L229.2,64.6z M234.1,75.4
		h-2.6v-16h2.6V75.4z M238.5,56.7v22.5c0,1.5-0.3,2.3-1.1,2.7c-0.8,0.5-2.1,0.6-4,0.6c-0.1-0.8-0.4-2-0.8-2.9c1.1,0.1,2.3,0.1,2.7,0
		c0.4,0,0.5-0.1,0.5-0.5V56.7H238.5z"/>
	<path class="st1" d="M241.7,84.6c2.4-4.1,3.4-8.8,3.4-13.4c0-4.6-1.1-9.3-3.4-13.4l2.5-1.1c2.7,4.3,4.2,8.9,4.2,14.5
		c0,5.6-1.5,10.2-4.2,14.5L241.7,84.6z"/>
</g>
</svg>
