<?xml version="1.0" encoding="utf-8"?>
<!-- Generator: Adobe Illustrator 26.0.3, SVG Export Plug-In . SVG Version: 6.00 Build 0)  -->
<svg version="1.1" id="head-block-01_sp.svg" xmlns="http://www.w3.org/2000/svg" xmlns:xlink="http://www.w3.org/1999/xlink"
	 x="0px" y="0px" viewBox="0 0 224.9 172.1" style="enable-background:new 0 0 224.9 172.1;" xml:space="preserve">
<style type="text/css">
	.st0{fill:#1147B4;}
	.st1{opacity:0.8;enable-background:new    ;}
	.st2{fill:#010101;}
	.st3{fill:#D2ECF9;}
</style>
<g>
	<path class="st0" d="M83.1,90.8l-6,6l6,6l-0.5,0.5l-6-6l-6,6l-0.5-0.5l6-6l-6-6l0.5-0.5l6,6l6-6L83.1,90.8z M71.4,98.3
		c-0.8,0-1.3-0.7-1.3-1.3c0-0.7,0.7-1.3,1.3-1.3c0.7,0,1.3,0.7,1.3,1.3C72.7,97.6,72,98.3,71.4,98.3z M75.2,91.7
		c0-0.8,0.7-1.3,1.3-1.3c0.8,0,1.3,0.7,1.3,1.3S77.2,93,76.5,93C75.9,93.2,75.2,92.5,75.2,91.7z M77.8,102.1c0,0.8-0.7,1.3-1.3,1.3
		c-0.8,0-1.3-0.7-1.3-1.3c0-0.8,0.7-1.3,1.3-1.3C77.3,100.8,77.8,101.4,77.8,102.1z M81.7,95.6c0.8,0,1.3,0.7,1.3,1.3
		s-0.7,1.3-1.3,1.3c-0.7,0-1.3-0.7-1.3-1.3S81,95.6,81.7,95.6z"/>
	<path class="st0" d="M101.2,99.8h2.2v2h-2.2v1.5c0,1.2-0.2,1.7-1,2c-0.8,0.3-1.8,0.3-3,0.3c-0.2-0.5-0.3-1.3-0.7-2l-1.8,1.2
		c-0.3-0.7-1.3-1.8-2-2.5l0.8-0.5h-2.3v-2h7.5v-0.5c-2.5,0-5,0.2-6.8,0.2l-0.2-2c1.3,0,2.8,0,4.6,0V97h-3.8v-5.1h3.6v-0.5h-4.6v-0.7
		c-0.3,0.7-0.7,1.5-1,2.2v12.8h-2.7v-8.8c-0.3,0.3-0.7,0.7-0.8,1c-0.2-0.7-1-2.2-1.3-2.8c1.5-1.7,3.1-4.1,4-6.6l2.5,0.8l-0.2,0.3
		h4.1v-1h2.7v1h4.5v1.8h-4.5v0.5h4V97h-0.5c0.7,0.7,1.2,1.2,1.5,1.8l-1.8,1c-0.2-0.2-0.2-0.3-0.3-0.5h-0.3v0.5
		C101.4,99.8,101.2,99.8,101.2,99.8z M94.7,93.7h1.5v-0.5h-1.5V93.7z M96.2,95.5V95h-1.5v0.5H96.2z M98.7,101.8h-3.3
		c0.5,0.5,1.2,1.2,1.5,1.7c0.7,0,1.3,0,1.5,0c0.3,0,0.3,0,0.3-0.3V101.8z M98.7,93.2v0.5h1.5v-0.5H98.7z M100.2,95h-1.5v0.5h1.5V95z
		 M98.7,97.5h1.3c-0.2-0.2-0.3-0.3-0.5-0.5l0,0h-1L98.7,97.5L98.7,97.5z"/>
	<path class="st0" d="M107.5,100.6v1.5H105V89.2h6.6v11.4H107.5z M107.5,91.7v2.2h1.8v-2.2H107.5z M109.2,98.1V96h-1.8v2.2H109.2z
		 M121.1,102.8c0,1.3-0.3,2-1,2.5c-0.8,0.5-1.8,0.5-3.3,0.5c-0.2-0.7-0.5-1.8-0.8-2.5c0.8,0,2,0,2.3,0c0.3,0,0.5-0.2,0.5-0.5V100
		h-3.6c-0.5,2.2-1.5,4.5-3.5,5.8c-0.3-0.5-1.5-1.5-2-1.8c3.1-2.2,3.3-5.6,3.3-8.3V89h8.4v13.8C121.4,102.8,121.1,102.8,121.1,102.8z
		 M118.6,97.5v-1.8h-3.3c0,0.7,0,1.2,0,1.8H118.6z M115.3,91.5v1.8h3.3v-1.8H115.3z"/>
	<path class="st0" d="M139.5,98c-0.5,1.8-1.3,3.1-2.5,4.3c0.8,0.5,1.8,0.8,3,1c-0.5,0.5-1.2,1.5-1.5,2.2c-1.3-0.3-2.7-0.8-3.5-1.5
		c-1,0.7-2.2,1.2-3.5,1.7c-0.2-0.5-0.7-1.2-1-1.7v1.5h-2v-0.8h-3.6v1.2h-1.8V92.8h1.8v-1.5h-2.2v-2.2h7.8v2.2h-1.8v1.5h1.8v3
		c1.3-0.5,1.7-1.2,1.8-2c-0.5,0-0.8,0.2-1,0.2c-0.2-0.5-0.5-1.7-0.8-2.2c0.3-0.2,0.7-0.3,1-0.7c0.3-0.3,1.3-1.5,2-2.8L136,89
		c-0.7,0.8-1.3,1.8-2,2.5l2.3-0.2l-0.7-1l1.8-1c0.8,1,1.8,2.5,2.3,3.5l-2,1.2c-0.2-0.2-0.2-0.3-0.3-0.7h-0.2v1.2
		c0,0.3,0,0.5,0.3,0.5h0.8c0.3,0,0.8,0,1-0.2c0,0.5,0.2,1.5,0.2,2c-0.3,0.2-0.8,0.2-1.2,0.2h-1c-2,0-2.5-0.7-2.5-2.7v-1h-0.5
		c-0.2,1.2-0.3,2.2-1.2,3l2.2,0.5l-0.2,0.7h2l0.5-0.2L139.5,98z M128.5,102.4v-4H128c-0.8,0-1-0.3-1-1.5v-2.2h-0.3v1.3
		c0,1-0.2,2.2-0.8,3c-0.2-0.2-0.5-0.5-0.8-0.7v4H128.5z M124.9,94.8v3.5c0.5-0.7,0.5-1.5,0.5-2.2v-1.3
		C125.4,94.8,124.9,94.8,124.9,94.8z M125.4,99.6h2.7v2h-2.7V99.6z M126.6,92.5h0.5V91h-0.5V92.5z M128,97c0,0.2,0,0.3,0.2,0.3h0.2
		c0.2,0,0.2,0,0.2,0v-2.5H128C128,94.8,128,97,128,97z M132.7,97.3c0,0.2,0.2,0.3,0.2,0.5c0.2-0.5,0.3-1,0.5-1.5
		c-0.5,0.5-1,0.8-1.8,1.2c-0.2-0.5-0.7-1.2-1-1.5v4.6c0.3-0.2,0.7-0.5,1-0.8c-0.3-0.5-0.5-1.2-0.7-1.7L132.7,97.3z M130.5,103.4
		c1-0.3,1.8-0.7,2.7-1.2c-0.2-0.2-0.3-0.3-0.5-0.5c-0.2,0.2-0.5,0.3-0.7,0.5c-0.3-0.5-1.2-1.2-1.5-1.7
		C130.5,100.6,130.5,103.4,130.5,103.4z M134.5,99.5c-0.2,0.2-0.2,0.3-0.3,0.7c0.3,0.3,0.5,0.7,0.8,0.8c0.5-0.5,0.8-1,1.2-1.5H134.5
		z"/>
	<path class="st0" d="M140.8,100.3c0-1.8,1.2-3,2.5-3.8c-0.5-1-0.8-2-0.8-2.8c0-2,1.5-3.6,3.8-3.6c2.2,0,3.5,1.2,3.5,3.1
		c0,1.8-1.3,2.8-2.8,3.8c0.8,0.8,1.7,1.7,2.7,2.3c0.7-0.8,1.2-2,1.5-3.1h3c-0.5,1.7-1.2,3.1-2.3,4.5c0.8,0.5,1.7,0.7,2.3,0.8
		l-0.8,2.7c-1.2-0.2-2.3-0.7-3.5-1.3c-1.2,0.8-2.7,1.3-4.3,1.3C142.3,104.1,140.8,102.3,140.8,100.3z M145.8,101.6
		c0.5,0,1-0.2,1.7-0.5c-1-0.8-2-1.7-2.7-2.7c-0.5,0.5-0.8,1-0.8,1.5C143.9,100.9,144.6,101.6,145.8,101.6z M145.4,95.1
		c1-0.5,1.7-1.2,1.7-2c0-0.7-0.3-1-0.8-1c-0.7,0-1.2,0.5-1.2,1.5C145.1,94.2,145.3,94.7,145.4,95.1z"/>
</g>
<g>
	<path class="st0" d="M54.6,123.3c-0.2,1.7-0.3,3.3-0.7,4.5c-0.5-0.2-1.3-0.5-1.8-0.7c0.3-1,0.5-2.7,0.7-4.1L54.6,123.3z
		 M58.1,117.9c0.7,1.2,1.2,2.7,1.3,3.6l-1.8,0.8c0-0.2,0-0.5-0.2-0.7c-3.5,0.5-4.1,0.8-4.6,1c-0.2-0.5-0.5-1.5-0.7-2.2
		c0.5-0.2,0.8-0.5,1.5-1.2c0.2-0.2,0.7-0.7,1-1.3c-1.2,0.2-1.7,0.3-1.8,0.3c-0.2-0.5-0.5-1.5-0.7-2c0.3-0.2,0.7-0.5,1-1
		c0.3-0.5,1.5-2.5,2-4.5l2.2,0.8c-0.7,1.5-1.5,3-2.3,4.1h1c0.5-0.8,1-1.7,1.3-2.7l2,1.2c-0.7,1.3-1.5,2.7-2.3,3.8L58.1,117.9z
		 M56.5,122.8c0.2,1.2,0.5,2.8,0.5,3.8l-1.8,0.5c0-1-0.2-2.7-0.3-3.8L56.5,122.8z M57,119.8c-0.2-0.3-0.3-0.8-0.5-1.2
		c-0.3,0.5-0.7,0.8-1,1.3L57,119.8z M58.5,122.3c0.5,1.2,0.8,2.5,1,3.3l-1.8,0.7c-0.2-1-0.7-2.3-1-3.5L58.5,122.3z M69.4,127h-7v1.2
		h-2.3v-8.8c-0.2,0.3-0.3,0.5-0.7,0.8c-0.2-0.7-0.8-2-1.2-2.7c1.3-1.7,2.5-4.5,3.1-6.6l2.5,0.8v0.2l2.2-1c0.5,0.8,1,1.8,1.2,2.7
		l-1.3,0.7h3.1v2.3h-2.7v1.2h2.3v2.3h-2.3v1.2h2.3v2.3h-2.3v1.2h2.8v2.3H69.4z M64.3,116.4h-1.8v1.2h1.8V116.4z M64.3,120h-1.8v1.2
		h1.8V120z M62.4,124.6h1.8v-1.2h-1.8V124.6z M64.8,114c-0.2-0.7-0.7-1.5-1-2.2c-0.2,0.7-0.5,1.5-0.8,2.2H64.8z"/>
	<path class="st0" d="M76.5,111.7c-0.5,1.3-1,2.7-1.8,3.8v12.6h-2.5v-8.8c-0.3,0.3-0.5,0.7-0.8,1c-0.2-0.7-1-2.2-1.3-2.8
		c1.5-1.7,3.1-4.1,4-6.6L76.5,111.7z M84,125.6c1,0,1.2-0.5,1.3-2.5c0.7,0.3,1.7,0.8,2.3,1c-0.3,2.8-1,3.8-3.5,3.8h-3.8
		c-2.8,0-3.6-0.8-3.6-3.6v-4.6l-1.2,0.5l-1-2.3l2.2-0.8v-4h2.5v3l1.3-0.5v-4.6h2.3v3.6l2.2-0.8l0.2-0.2l2,0.7l-0.2,0.3
		c-0.2,2.7-0.3,6-0.8,8.3l-2.2-0.7c0.2-1.5,0.3-3.6,0.5-5.8L83,117v6.5h-2.3V118l-1.3,0.5v5.6c0,1.2,0.2,1.3,1.3,1.3L84,125.6
		L84,125.6z"/>
	<path class="st0" d="M99.4,112.1c-0.2,0.2-0.2,0.3-0.3,0.5c1.7,1.3,4.1,2.5,7,2.8c-0.7,0.7-1.5,1.8-1.8,2.5c-1-0.3-2-0.7-3-1.2v1.2
		h-8.1v-1.3c-1,0.5-2.2,1-3.3,1.3c-0.3-0.8-1-1.8-1.5-2.5c3.5-0.8,7.3-2.7,9.1-5L99.4,112.1z M96.4,125.5h-4v1.5h-2.5v-8.3h6.3
		L96.4,125.5L96.4,125.5z M92.4,121v2.2h1.5V121H92.4z M99,115.5c-0.7-0.5-1.2-1-1.8-1.5c-0.7,0.5-1.5,1-2.2,1.5H99z M104.5,123.7
		c0,1.2-0.2,1.8-0.8,2.2c-0.7,0.3-1.5,0.3-2.7,0.3c0-0.7-0.3-1.7-0.7-2.3c0.5,0,1.2,0,1.3,0c0.2,0,0.3,0,0.3-0.2V121h-2v7.1h-2.7
		v-9.4h7.1V123.7z"/>
	<path class="st0" d="M107.8,112.9h8.6v2.7h-5.3v2.5h4.5v2.8h-4.5v2.8h5.5v2.8h-8.8V112.9z"/>
	<path class="st0" d="M123.7,111.7c-1.2,1.7-2.8,3.5-4.3,4.6c-0.3-0.5-1-1.5-1.3-2c1.2-0.8,2.7-2.5,3.3-3.5L123.7,111.7z
		 M124.2,115.4c-0.3,0.8-0.8,1.7-1.5,2.5v10.4h-2.7V121c-0.2,0.2-0.5,0.5-0.7,0.7c-0.2-0.5-0.8-1.8-1.3-2.5c1.5-1,3-2.8,3.8-4.5
		L124.2,115.4z M126.9,120.2c-0.7-0.7-2.2-1.5-3.3-2l1.3-1.8c1,0.5,2.7,1.2,3.3,1.8L126.9,120.2z M123.7,125.8
		c1-1.3,2.5-3.5,3.6-5.6l1.8,1.8c-1,1.8-2.3,3.8-3.5,5.6L123.7,125.8z M127.2,115.2c-0.7-0.7-2-1.5-3-2.2l1.5-1.8
		c1,0.5,2.3,1.3,3,1.8L127.2,115.2z M135.5,118.9h-1.7v6.5c0,1.2-0.2,1.8-0.8,2.3c-0.7,0.5-1.7,0.5-2.8,0.5c0-0.7-0.3-1.8-0.7-2.7
		c0.7,0,1.3,0,1.5,0c0.2,0,0.3,0,0.3-0.3v-6.5h-2.5v-2.5h6.6V118.9z M135.2,114.2H129v-2.3h6.1V114.2z"/>
	<path class="st0" d="M153.6,125v2.7H137V125h7v-3.1h-4.6v-2.5h4.6v-2.8h-3.5c-0.5,1-1,1.8-1.7,2.5c-0.5-0.5-1.7-1.2-2.3-1.7
		c1.3-1.5,2.7-4,3.1-6.5l2.8,0.7c-0.2,0.8-0.5,1.7-0.8,2.3h2.3v-3.1h2.8v3.1h6v2.7h-6v2.8h5.3v2.5h-5.3v3.1H153.6z"/>
	<path class="st0" d="M171.9,113.5c0,0,0,0.8,0,1.2c-0.3,8.1-0.7,11.1-1.3,12.1c-0.5,0.7-0.8,1-1.5,1c-0.5,0.2-1.3,0.2-2.2,0.2
		c0-0.8-0.3-1.8-0.7-2.7c0.7,0,1.2,0,1.5,0c0.3,0,0.5-0.2,0.7-0.3c0.3-0.5,0.7-2.5,0.8-7.1c-1,3.8-2.7,7.6-5.1,9.8
		c-0.5-0.5-1.3-1.2-2.2-1.5c2.8-2,4.6-6,5.5-10.1H167c-0.8,3-2.2,6.1-4,7.8c-0.5-0.5-1.3-1.2-2-1.5c1.7-1.3,3-3.8,3.8-6.5h-0.5
		c-0.5,1.2-1.2,2.3-1.8,3.1c-0.5-0.3-1.5-1.2-2-1.5c0.2-0.3,0.5-0.7,0.7-0.8h-1v2.5l1.5-0.3l0.3,2.3c-0.7,0.2-1.2,0.3-1.8,0.5v6.5
		h-2.5v-5.6c-0.8,0.3-1.8,0.5-2.7,0.8l-0.7-2.5c0.8-0.2,2-0.5,3.1-0.8v-3.1h-1c-0.2,0.8-0.3,1.5-0.7,2.2c-0.3-0.3-1.3-1-1.8-1.2
		c0.5-1.5,0.8-3.6,1-5.8l2.2,0.3c0,0.7-0.2,1.3-0.2,2h0.5v-3.5h2.5v3.5h1.3v2c0.8-1.5,1.5-3.5,1.8-5.5l2.3,0.5
		c-0.2,0.8-0.3,1.5-0.7,2.3L171.9,113.5L171.9,113.5z"/>
</g>
<g class="st1">
	<path class="st2" d="M39.8,145.2c-0.5-0.5-1.6-1.2-2.5-1.6l0.8-1.1c0.9,0.3,2,0.9,2.6,1.4L39.8,145.2z M37.6,151.5
		c0.6-1.2,1.6-3.1,2.2-4.8l1.1,0.8c-0.6,1.6-1.4,3.3-2,4.8L37.6,151.5z M40.4,141.1c-0.5-0.5-1.6-1.2-2.5-1.7l0.8-1.1
		c0.9,0.3,2,1.1,2.5,1.6L40.4,141.1z M44.5,142.2c0.3-0.6,0.5-1.2,0.6-1.7h-3.3v-1.4H51v1.4h-4.3c-0.2,0.6-0.3,1.2-0.6,1.7h5.4v1.4
		h-2.9c0.8,1.1,1.9,2,3.1,2.5c-0.3,0.3-0.8,0.8-0.9,1.1c-1.6-0.8-2.9-2-3.7-3.6h-1.7c-0.8,1.6-2,2.9-3.9,3.9
		c-0.2-0.3-0.6-0.8-0.9-1.1c1.4-0.6,2.3-1.6,3.1-2.8h-2.6v-1.4C40.9,142.2,44.5,142.2,44.5,142.2z M44,147.2c-0.3,1.2-0.9,2.6-2,3.6
		l-1.1-0.8c0.9-0.8,1.6-2,1.9-3.3L44,147.2z M44.8,145.2h1.4v5.7c0,0.6-0.2,1.1-0.6,1.2c-0.5,0.2-1.1,0.2-2.2,0.2
		c0-0.3-0.2-0.9-0.3-1.2c0.6,0,1.4,0,1.6,0s0.3,0,0.3-0.2L44.8,145.2L44.8,145.2z M47.6,147c0.5,0.9,0.9,2.3,1.1,3.3l-1.1,0.5
		c-0.2-0.9-0.6-2.2-1.1-3.3L47.6,147z M49.6,146.4c0.9,1.2,1.7,2.8,2.2,3.7l-1.2,0.6c-0.3-1.1-1.2-2.6-2-3.9L49.6,146.4z"/>
	<path class="st2" d="M59.8,141.1c0,0,0,0.5,0,0.8c-0.2,6.7-0.2,9-0.8,9.6c-0.3,0.5-0.6,0.6-1.1,0.6c-0.5,0-1.1,0-1.9,0
		c0-0.5-0.2-1.1-0.5-1.4c0.6,0,1.2,0,1.6,0c0.3,0,0.3,0,0.5-0.3c0.3-0.5,0.5-2.5,0.6-8.1h-2c-0.2,4.2-0.6,7.8-2.6,9.9
		c-0.2-0.3-0.8-0.8-1.1-1.1c1.9-2,2.3-5.3,2.3-9h-2v-1.4h2c0-0.8,0-1.7,0-2.6h1.4c0,0.9,0,1.7,0,2.6h3.6V141.1z M66.3,140.1v12h-1.4
		v-0.9h-2.5v1.1h-1.4v-12.1C61.1,140.1,66.3,140.1,66.3,140.1z M64.9,149.7v-8.2h-2.5v8.2H64.9z"/>
	<path class="st2" d="M73.9,141.6c-0.3,0.5-0.5,1.1-0.8,1.6h7.3v7.8c0,0.8-0.2,1.2-0.8,1.4c-0.5,0.2-1.4,0.2-2.6,0.2
		c0-0.3-0.3-0.9-0.5-1.4c0.9,0,1.9,0,2.2,0c0.3,0,0.3,0,0.3-0.3v-1.4h-6.2c-0.2,1.1-0.8,2.3-1.6,3.1c-0.2-0.3-0.8-0.9-1.1-1.1
		c1.2-1.2,1.4-2.9,1.4-4.3v-1.9c-0.6,0.8-1.4,1.6-2.2,2c-0.2-0.3-0.6-0.8-0.9-1.1c1.7-1.1,2.9-2.8,4-4.7H69v-1.4h4
		c0.3-0.6,0.5-1.2,0.6-1.9l1.4,0.3c-0.2,0.5-0.3,1.1-0.6,1.6h7.8v1.4L73.9,141.6L73.9,141.6z M79.1,148.3v-1.4H73v0.3
		c0,0.3,0,0.8,0,1.1C73,148.3,79.1,148.3,79.1,148.3z M79.1,144.4H73v1.4h6.1V144.4z"/>
	<path class="st2" d="M87,142.4c-0.6,1.4-1.6,2.9-2.3,3.9c-0.2-0.3-0.6-0.8-0.9-0.9c0.8-0.9,1.6-2.2,2-3.4L87,142.4z M89.5,150.9
		c-0.3-0.6-0.8-1.4-1.4-2.2c-0.8,1.4-1.9,2.5-3.1,3.4c-0.2-0.3-0.6-0.8-0.9-1.1c1.4-0.8,2.5-2,3.3-3.4c-0.6-0.6-1.2-1.4-1.7-1.9
		l1.1-0.8c0.5,0.5,0.9,0.9,1.4,1.4c0.3-0.6,0.5-1.2,0.6-1.9l1.4,0.3c-0.3,1.1-0.6,1.9-1.1,2.8c0.8,0.9,1.6,1.9,1.9,2.6L89.5,150.9z
		 M91.3,141.8h-7.1v-1.2h3.3c-0.2-0.5-0.6-1.2-0.9-1.7l1.2-0.5c0.5,0.6,0.9,1.2,1.1,1.9l-0.9,0.3h3.6v1.2
		C91.5,141.8,91.3,141.8,91.3,141.8z M97.2,142.4c-0.3,2.5-0.9,4.5-1.9,6.2c0.8,1.2,1.7,2.2,2.9,2.8c-0.3,0.3-0.8,0.8-0.9,1.2
		c-1.1-0.6-2-1.6-2.8-2.8c-0.9,1.1-2,2-3.4,2.8c-0.2-0.3-0.6-0.8-0.9-1.1c1.6-0.8,2.8-1.7,3.7-2.9c-0.5-0.9-0.9-2-1.2-3.3
		c-0.3,0.5-0.5,0.8-0.8,1.2c-0.2-0.3-0.6-0.9-0.9-1.1c0.2-0.2,0.2-0.3,0.3-0.5l-0.9,0.5c-0.3-0.8-1.1-2-1.7-2.8l1.1-0.6
		c0.6,0.8,1.4,1.9,1.7,2.6c0.9-1.7,1.6-3.9,2-6.4l1.4,0.2c-0.2,0.9-0.3,1.7-0.5,2.5h4v1.4C98.5,142.4,97.2,142.4,97.2,142.4z
		 M93.5,142.4c-0.2,0.3-0.2,0.6-0.3,1.1c0.3,1.4,0.8,2.6,1.2,3.7c0.6-1.4,1.1-2.9,1.2-4.8H93.5z"/>
	<path class="st2" d="M112.6,143.6c-0.6,2-1.6,3.7-2.6,5.3c0.5,1.2,1.1,2.2,1.7,2.2c0.5,0,0.6-0.8,0.6-2.8c0.3,0.3,0.8,0.6,1.2,0.8
		c-0.2,2.8-0.8,3.4-2,3.4c-1.1,0-2-0.9-2.8-2.3c-0.9,0.9-1.9,1.7-2.9,2.3c-0.2-0.3-0.8-0.9-1.1-1.2c1.2-0.8,2.5-1.6,3.4-2.8
		c-0.6-1.7-0.9-4-1.1-6.4h-5v1.9h3.9v0.6c0,3.4-0.2,4.7-0.5,5.1c-0.3,0.3-0.6,0.5-0.9,0.5s-1.1,0-1.9,0c0-0.5-0.2-0.9-0.3-1.4
		c0.6,0,1.2,0,1.6,0c0.2,0,0.3,0,0.5-0.2c0.2-0.2,0.3-1.1,0.3-3.4h-2.5c0,2.2-0.3,5.3-1.7,7.3c-0.3-0.3-0.9-0.8-1.2-0.9
		c1.2-1.9,1.4-4.5,1.4-6.5v-4.3h6.4c0-0.8-0.2-1.7-0.2-2.5h1.6c0,0.8,0,1.7,0,2.5h2.9c-0.6-0.5-1.6-1.2-2.5-1.6l0.9-0.9
		c0.9,0.5,2,1.2,2.6,1.7l-0.8,0.8h1.6v1.4h-4.8c0.2,1.9,0.5,3.6,0.8,5c0.8-1.1,1.2-2.5,1.7-3.9L112.6,143.6z"/>
	<path class="st2" d="M124.9,138.5c0.8,2.3,2.3,4.5,4.3,5.6c-0.3,0.3-0.8,0.9-1.1,1.2c-0.5-0.3-0.9-0.8-1.4-1.1c0,0.2,0,0.2,0,0.3
		c-0.2,4.7-0.5,6.5-0.9,7.1c-0.3,0.5-0.8,0.6-1.2,0.6s-1.4,0-2.3,0c0-0.5-0.2-1.1-0.5-1.4c0.9,0.2,1.9,0.2,2.2,0.2
		c0.3,0,0.5,0,0.6-0.2c0.3-0.3,0.6-1.9,0.8-5.4h-3.6c-0.5,2.9-1.4,5.7-5.4,7.1c-0.2-0.3-0.6-0.9-0.9-1.2c3.6-1.2,4.3-3.4,4.8-5.9
		h-2.9v-1.1c-0.5,0.5-0.8,0.9-1.2,1.2c-0.3-0.3-0.9-0.8-1.2-1.1c1.7-1.2,3.1-3.4,3.9-5.7l1.6,0.3c-0.6,1.9-1.6,3.6-2.6,4.8h9
		c-1.1-1.2-2-2.6-2.6-4.2h-2.6v-1.4L124.9,138.5L124.9,138.5z"/>
	<path class="st2" d="M130.9,144.1c0-0.8,0.5-1.2,1.2-1.2c0.8,0,1.2,0.5,1.2,1.2c0,0.8-0.5,1.2-1.2,1.2
		C131.4,145.3,130.9,144.9,130.9,144.1z M130.9,150.3c0-0.8,0.5-1.2,1.2-1.2c0.8,0,1.2,0.5,1.2,1.2c0,0.8-0.5,1.2-1.2,1.2
		C131.4,151.5,130.9,150.9,130.9,150.3z"/>
	<path class="st2" d="M147.2,148h2v1.1h-2v1.9c0,0.6-0.2,1.1-0.6,1.2s-1.2,0.2-2.5,0.2c0-0.3-0.3-0.9-0.5-1.2c0.8,0,1.6,0,1.9,0
		c0.2,0,0.3,0,0.3-0.3v-1.9h-4c0.6,0.6,1.4,1.2,1.7,1.9l-1.1,0.8c-0.3-0.6-1.2-1.4-1.9-2.2l0.8-0.5H139v-1.1h6.8V147
		c-2.3,0-4.7,0.2-6.4,0.2l-0.2-1.1c1.1,0,2.6,0,4.2,0v-0.8h-3.6v-4.2h3.6v-0.8h-4.2v-0.9c-0.3,0.8-0.8,1.7-1.2,2.5v10.4h-1.4v-8.4
		c-0.5,0.6-0.9,1.1-1.4,1.6c-0.2-0.3-0.6-1.1-0.8-1.4c1.4-1.4,2.8-3.7,3.7-5.9l1.4,0.5c-0.2,0.2-0.2,0.5-0.3,0.6h4v-0.9h1.4v0.9h4.2
		v1.1h-4.2v0.8h3.6v4.2h-0.9c0.6,0.6,1.4,1.2,1.7,1.7l-1.1,0.6c-0.2-0.2-0.3-0.5-0.5-0.6h-0.6v0.9C146.9,148,147.2,148,147.2,148z
		 M141.3,142.8h2.2v-0.8h-2.2V142.8z M143.5,144.6v-0.8h-2.2v0.8H143.5z M145,142.1v0.8h2.2v-0.8H145z M147.2,144.6v-0.8H145v0.8
		H147.2z M145,146.1h1.9c-0.3-0.3-0.5-0.5-0.8-0.6l0.2-0.2h-1.4v0.8H145z"/>
	<path class="st2" d="M152.5,148.4v1.4h-1.4v-10.7h5.1v9.3H152.5z M152.5,140.5v2.6h2.5v-2.6H152.5z M155,147v-2.6h-2.5v2.6H155z
		 M164.3,150.8c0,0.8-0.2,1.2-0.8,1.4c-0.5,0.2-1.4,0.3-2.6,0.3c0-0.3-0.3-1.1-0.5-1.4c0.9,0,1.9,0,2.2,0s0.3-0.2,0.3-0.3v-3.1h-4.2
		c-0.3,1.9-1.1,3.7-2.9,5c-0.2-0.3-0.8-0.8-1.1-0.9c2.6-1.9,2.8-4.8,2.8-7.1v-5.4h6.7L164.3,150.8L164.3,150.8z M162.9,146.3v-2.3
		H159v0.5c0,0.6,0,1.2,0,1.9H162.9z M159,140.2v2.3h3.9v-2.3H159z"/>
	<path class="st2" d="M179.6,146.4c-0.5,1.6-1.2,2.6-2.2,3.6c0.8,0.5,1.9,0.9,2.9,1.2c-0.3,0.3-0.6,0.8-0.8,1.2
		c-1.2-0.3-2.3-0.9-3.3-1.6c-0.9,0.8-2,1.2-3.3,1.6c-0.2-0.3-0.5-0.8-0.8-1.1v0.9h-1.1v-0.8h-3.7v1.1h-1.1v-10.6h1.6v-1.9h-1.9V139
		h6.4v1.2h-1.7v1.9h1.7v9.5c1.1-0.3,2-0.6,2.9-1.2c-0.3-0.3-0.6-0.8-0.9-1.1c-0.3,0.3-0.5,0.5-0.8,0.8c-0.2-0.3-0.6-0.8-0.9-0.9
		c0.3-0.3,0.8-0.6,1.1-0.9c-0.2-0.5-0.5-0.8-0.6-1.2l1.1-0.5c0.2,0.3,0.2,0.6,0.3,0.8c0.3-0.6,0.6-1.2,0.9-2l1.2,0.2
		c-0.2,0.3-0.2,0.8-0.3,1.1h2.3h0.2L179.6,146.4z M171.4,150.3v-3.9h-0.2h-0.6c-0.6,0-0.8-0.2-0.8-0.9v-2.2h-0.6v1.1
		c0,0.9-0.2,2-1.1,2.8c-0.2-0.2-0.3-0.3-0.5-0.5v3.6H171.4z M167.5,143.2v3.4c0.6-0.8,0.8-1.6,0.8-2.3v-1.1H167.5z M168.2,147.8h2.6
		v1.1h-2.6V147.8z M169.1,141.9h0.8v-1.9h-0.8V141.9z M171.4,143.2h-0.8v2.2c0,0.2,0,0.2,0.2,0.2h0.5c0.2,0,0.2,0,0.2,0V143.2z
		 M175.8,142.2c-0.2,1.7-0.8,2.8-2.5,3.4c-0.2-0.3-0.5-0.8-0.8-0.9c1.4-0.5,1.9-1.2,2-2.3c-0.9,0-1.1,0.2-1.4,0.2
		c0-0.3-0.3-0.9-0.5-1.2c0.3,0,0.5-0.3,0.8-0.6c0.3-0.3,1.4-1.4,2-2.5l1.4,0.5c-0.6,0.9-1.4,1.9-2.2,2.5l3.3-0.2
		c-0.3-0.3-0.6-0.8-0.9-1.1l1.1-0.6c0.8,0.8,1.7,2,2.2,2.6l-1.1,0.6c-0.2-0.2-0.3-0.3-0.5-0.6h-0.9v1.4c0,0.3,0,0.5,0.3,0.5h1.1
		c0.3,0,0.6,0,0.8,0c0,0.3,0,0.8,0.2,1.1c-0.2,0-0.6,0.2-0.9,0.2h-1.2c-1.2,0-1.4-0.5-1.4-1.6v-1.4L175.8,142.2z M175.8,147.2
		c-0.2,0.3-0.3,0.5-0.5,0.8c0.3,0.5,0.8,0.9,1.2,1.2c0.6-0.6,1.1-1.2,1.6-2H175.8z"/>
	<path class="st2" d="M185.5,138.8h1.2l-4.3,15.2h-1.2L185.5,138.8z"/>
</g>
<g class="st1">
	<path class="st2" d="M31.9,161.1h-3.4v-1.6H37v1.6h-3.4v9.9h-1.9L31.9,161.1L31.9,161.1z"/>
	<path class="st2" d="M37.9,165.3c0-3.7,2-5.9,5-5.9s5,2.2,5,5.9s-2,5.9-5,5.9C40.1,171.3,37.9,169,37.9,165.3z M46.2,165.3
		c0-2.6-1.2-4.3-3.1-4.3c-1.9,0-3.1,1.6-3.1,4.3c0,2.6,1.2,4.3,3.1,4.3C44.9,169.6,46.2,167.9,46.2,165.3z"/>
	<path class="st2" d="M49.7,165.4c0-3.7,2.3-5.9,5.1-5.9c1.4,0,2.5,0.6,3.3,1.4l-0.9,1.1c-0.6-0.6-1.2-1.1-2.2-1.1
		c-2,0-3.3,1.7-3.3,4.3c0,2.6,1.2,4.3,3.3,4.3c1.1,0,1.9-0.5,2.5-1.2l0.9,1.1c-0.9,1.1-2,1.7-3.6,1.7
		C51.9,171.3,49.7,169.2,49.7,165.4z"/>
	<path class="st2" d="M59.2,165.3c0-3.7,2-5.9,5-5.9c2.9,0,5,2.2,5,5.9s-2,5.9-5,5.9C61.2,171.2,59.2,169,59.2,165.3z M67.3,165.3
		c0-2.6-1.2-4.3-3.1-4.3c-1.9,0-3.1,1.6-3.1,4.3c0,2.6,1.2,4.3,3.1,4.3C66,169.6,67.3,167.9,67.3,165.3z"/>
	<path class="st2" d="M71.5,159.7h3.4c2.5,0,4.3,0.9,4.3,3.4s-1.9,3.6-4.3,3.6h-1.7v4.3h-1.9v-11.3H71.5z M74.9,165.3
		c1.9,0,2.6-0.8,2.6-2.2c0-1.6-0.9-2-2.8-2h-1.6v4.2C73.2,165.3,74.9,165.3,74.9,165.3z"/>
	<path class="st2" d="M81.6,159.7h1.9v4.7h4.8v-4.7h1.9v11.5h-1.9v-5.1h-4.8v5.1h-1.9V159.7z"/>
	<path class="st2" d="M93,159.7h6.7v1.6h-5v3.1h4.2v1.6h-4.2v3.7h5.1v1.6h-7L93,159.7L93,159.7z"/>
	<path class="st2" d="M102.4,159.7h3.7c2.3,0,4.2,0.8,4.2,3.3c0,1.7-0.9,2.8-2.3,3.3l2.8,4.8h-2l-2.6-4.7h-1.9v4.7h-1.9V159.7z
		 M105.9,165c1.7,0,2.5-0.6,2.5-2c0-1.4-0.9-1.9-2.5-1.9h-1.7v3.9H105.9z"/>
	<path class="st2" d="M114.3,166.7l-3.4-7.1h1.9l1.2,3.1c0.3,0.8,0.6,1.7,1.1,2.5l0,0c0.3-0.9,0.8-1.7,1.1-2.5l1.4-3.1h1.9l-3.4,7.1
		v4.3h-1.7V166.7z"/>
	<path class="st2" d="M121,159.7h1.9v9.9h4.8v1.6H121V159.7z"/>
	<path class="st2" d="M135.4,159.7h2l3.7,11.5h-1.9l-0.9-3.3h-3.9l-0.9,3.3h-1.9L135.4,159.7z M134.9,166.4h3.1l-0.5-1.6
		c-0.3-1.2-0.8-2.5-1.1-3.7l0,0c-0.3,1.2-0.6,2.5-1.1,3.7L134.9,166.4z"/>
	<path class="st2" d="M142.1,165.4c0-3.7,2.3-5.9,5.1-5.9c1.4,0,2.5,0.6,3.3,1.4l-0.9,1.1c-0.6-0.6-1.2-1.1-2.2-1.1
		c-2,0-3.3,1.7-3.3,4.3c0,2.6,1.2,4.3,3.3,4.3c1.1,0,1.9-0.5,2.5-1.2l0.9,1.1c-0.9,1.1-2,1.7-3.6,1.7
		C144.3,171.3,142.1,169.2,142.1,165.4z"/>
	<path class="st2" d="M152.6,159.7h6.7v1.6h-5v3.1h4.2v1.6h-4.2v3.7h5.1v1.6h-7L152.6,159.7L152.6,159.7z"/>
	<path class="st2" d="M164.3,161.1h-3.4v-1.6h8.5v1.6H166v9.9h-1.9L164.3,161.1L164.3,161.1z"/>
	<path class="st2" d="M173.1,159.7h2l3.7,11.5H177l-0.9-3.3h-4l-0.9,3.3h-1.9L173.1,159.7z M172.5,166.4h3.1l-0.5-1.6
		c-0.3-1.2-0.8-2.5-1.1-3.7l0,0c-0.3,1.2-0.6,2.5-1.1,3.7L172.5,166.4z"/>
	<path class="st2" d="M181.7,161.1h-3.4v-1.6h8.5v1.6h-3.4v9.9h-1.9L181.7,161.1L181.7,161.1z"/>
	<path class="st2" d="M188.8,159.7h6.7v1.6h-5v3.1h4.2v1.6h-4.2v3.7h5.1v1.6h-6.8V159.7z"/>
</g>
<rect id="長方形_1367_00000026158389190474306650000007105696159774608298_" x="10.9" y="21.9" class="st3" width="202.3" height="8"/>
<rect id="長方形_1367-2_00000178193842141268520580000000998198946259514249_" x="-0.1" y="62.1" class="st3" width="224.3" height="8"/>
<g>
	<path class="st0" d="M14.2,14.2c-0.9-0.8-2.7-1.9-4.2-2.6l1.8-2.2c1.5,0.6,3.4,1.5,4.3,2.3L14.2,14.2z M16.6,17.9
		c-1,2.7-2.2,5.6-3.3,8.1l-2.7-1.7c1-1.9,2.5-5.1,3.6-8.1L16.6,17.9z M15.4,7.4c-0.9-0.9-2.7-2-4.2-2.7L13,2.4
		c1.4,0.6,3.3,1.7,4.2,2.5L15.4,7.4z M29.7,11.6c1.2,1.4,2.9,2.7,4.8,3.4c-0.6,0.5-1.5,1.6-1.9,2.3c-0.3-0.2-0.7-0.3-1-0.6
		c1.2,1.8,2.3,4.1,2.9,5.6l-2.6,1.4c-0.5-1.8-1.8-4.4-3.1-6.4l2-1c-1.7-1.2-3.2-2.8-4.3-4.7h-2.3c-1.1,2.1-2.7,3.9-4.6,5.2l2.2,0.9
		c-0.6,2.1-1.6,4.4-3.2,5.9l-2.2-1.6c1.4-1.2,2.5-3.2,3.1-5.1c-0.6,0.3-1.1,0.7-1.7,1c-0.4-0.6-1.4-1.8-1.9-2.3c2.1-1,3.6-2.3,4.8-4
		h-3.9V8.7h5.5C22.6,8,22.8,7.2,23,6.4h-4.9V3.6h15.1v2.8h-7C26,7.2,25.7,8,25.5,8.7h8.6v2.8H29.7z M27.7,17.2
		c0.8,1.7,1.5,3.9,1.8,5.3l-2.4,1c-0.2-1.4-1-3.6-1.7-5.4v5.2c0,1.4-0.2,2.1-1,2.6c-0.9,0.4-2,0.5-3.6,0.5c-0.1-0.8-0.4-1.9-0.8-2.7
		c1,0.1,1.9,0,2.2,0s0.4-0.1,0.4-0.3V14h2.8V18L27.7,17.2z"/>
	<path class="st0" d="M48,6.9c0,0,0,1,0,1.4c-0.2,10.9-0.4,14.9-1.2,16.1c-0.6,0.9-1.1,1.1-2,1.3c-0.7,0.2-1.9,0.2-3.1,0.1
		c-0.1-0.9-0.3-2.2-0.9-3.1c1,0.1,1.9,0.1,2.4,0.1c0.4,0,0.6-0.1,0.9-0.5c0.5-0.7,0.7-3.9,0.9-12.4h-2.6c-0.2,6.8-1.1,12.6-4.5,16.4
		c-0.5-0.7-1.4-1.8-2.2-2.2c2.9-3.3,3.5-8.2,3.8-14.2h-3V6.9h3c0-1.4,0-2.8,0-4.3h3c0,1.4,0,2.9,0,4.3H48z M58.7,5.2v20.4h-3.1V24
		h-3.3v1.8h-3V5.2H58.7z M55.6,21V8.2h-3.3V21H55.6z"/>
	<path class="st0" d="M63.9,9.5c-0.3,0.3-0.6,0.6-1,1c-0.2-0.5-1-1.7-1.4-2.2c1.5-1.4,2.9-3.6,3.7-5.9L67.5,3
		c-0.2,0.6-0.5,1.3-0.8,2h1.9c-0.2-0.6-0.5-1.3-0.8-1.8l2.5-0.7c0.4,0.8,0.9,1.8,1.1,2.6h1.8V7h-2.7v1h2.2l0,0
		c1.4-1.5,2.5-3.5,3.2-5.5L78.5,3c-0.2,0.6-0.5,1.3-0.8,2h1.9c-0.2-0.6-0.5-1.3-0.7-1.8l2.5-0.7c0.4,0.8,0.9,1.8,1.1,2.5h2.3v1.9
		h-3.2v1h2.5v1.8h-2.5v1h2.5v1.8h-2.5v1h3.5v1.9H74.8V9.5c-0.3,0.4-0.6,0.7-1,1c-0.2-0.3-0.6-1-1-1.4v0.5h-2.2v1h2.2v1.8h-2.2v1h2.9
		v1.9h-9.7V9.5z M82.7,17.5c-1.2,1.9-2.9,3.5-4.9,4.7c2.2,0.5,4.8,0.8,7.4,1c-0.6,0.7-1.4,2.1-1.8,2.9c-3.5-0.3-6.7-1-9.6-2
		c-3.2,1.1-6.8,1.8-10.6,2.2c-0.2-0.8-0.7-2-1.2-2.7c2.8-0.2,5.5-0.6,8-1.2c-1.4-0.9-2.7-1.8-3.9-3l1.2-0.6h-3.9v-2.5h16.8l0.6-0.2
		L82.7,17.5z M68.3,6.9h-1.8v1h1.8V6.9z M68.3,9.6h-1.8v1h1.8V9.6z M68.3,12.4h-1.8v1h1.8V12.4z M69.6,18.9c1.1,0.9,2.6,1.6,4.2,2.2
		c1.4-0.6,2.7-1.4,3.8-2.2H69.6z M79.2,6.9h-1.8v1h1.8V6.9z M79.2,9.6h-1.8v1h1.8V9.6z M79.2,12.4h-1.8v1h1.8V12.4z"/>
	<path class="st0" d="M110.9,23.2v2.4H87.6v-2.4h10v-1.4h-8.1v-2.2h8.1v-1.2h-7.2v-8.2h7.2v-1h-9.8V6.8h9.8V5.7
		c-2.5,0.1-5,0.2-7.3,0.2c0-0.7-0.3-1.7-0.6-2.3c6-0.2,12.9-0.6,17.3-1.3l1.4,2.3c-2.2,0.3-4.9,0.6-7.7,0.9v1.4h10v2.4h-10v1h7.6
		v8.1h-7.6v1.1h8.6v2.2h-8.6v1.4H110.9z M93.3,13.4h4.3v-1.1h-4.3V13.4z M97.6,16.4v-1.1h-4.3v1.1H97.6z M100.7,12.2v1.1h4.5v-1.1
		H100.7z M105.2,15.2h-4.5v1.1h4.5V15.2z"/>
	<path class="st0" d="M122.6,8.3c-0.3,0.7-0.6,1.4-1,2h12V23c0,1.5-0.3,2.3-1.4,2.8c-1,0.5-2.5,0.5-4.6,0.5c-0.2-0.9-0.6-2.2-1-3
		c1.3,0.1,2.8,0.1,3.2,0.1s0.6-0.2,0.6-0.5v-1.5h-9.6c-0.4,1.9-1.3,3.8-2.9,5.1c-0.4-0.6-1.6-1.9-2.2-2.3c2.2-1.9,2.4-4.7,2.4-7.1
		V15c-1,1-2,2-3.2,2.8c-0.5-0.7-1.4-1.8-2-2.3c2.6-1.7,4.7-4.3,6.2-7.1h-5.5v-3h6.9c0.4-1,0.7-2.1,1-3.1l3.1,0.7
		c-0.2,0.8-0.6,1.6-0.8,2.4h12.5v2.9H122.6z M130.5,18.9v-1.7h-9.2c0,0.6,0,1-0.1,1.7H130.5z M130.5,13h-9.2v1.6h9.2V13z"/>
	<path class="st0" d="M161.2,9.6c-0.6,3.9-1.5,7.2-3,9.9c1.3,1.8,2.8,3.4,4.7,4.4c-0.7,0.6-1.6,1.7-2.1,2.4
		c-1.7-1.1-3.1-2.5-4.3-4.3c-1.4,1.8-3.3,3.2-5.5,4.3c-0.4-0.6-1.5-1.7-2.1-2.2c2.7-1.1,4.6-2.7,6-4.7c-0.7-1.4-1.4-3-1.8-4.6
		c-0.3,0.6-0.7,1.1-1,1.6c-0.3-0.6-1.2-1.8-1.8-2.3l-1.1,0.6c-0.1-0.3-0.2-0.7-0.4-1.1c-0.4,1.4-0.9,2.7-1.4,3.9
		c1.3,1.5,2.5,3,3.2,4.3l-2.4,1.9c-0.5-1-1.3-2.1-2.2-3.4c-1.4,2.2-3.1,4-5.1,5.4c-0.4-0.6-1.4-1.7-2-2.2c2.2-1.3,3.9-3.1,5.2-5.5
		c-0.9-1-1.8-1.9-2.6-2.8c-0.2,0.3-0.5,0.7-0.7,1c-0.5-0.5-1.4-1.4-2.1-1.9c1.3-1.4,2.6-3.7,3.4-5.8l2.6,0.8c-0.8,1.8-1.9,3.9-3,5.5
		l1.9-1.4c0.6,0.6,1.1,1.1,1.7,1.8c0.3-0.9,0.6-1.8,0.8-2.7l2.4,0.5c-0.6-1.1-1.4-2.4-2.2-3.5l1.8-1h-8.8V5.9h5.1
		C144,5,143.5,4,143,3.1l2.6-1c0.6,1,1.4,2.2,1.6,3l-1.6,0.6h5.9v2.7h-3.1c1,1.2,2,2.7,2.7,4c1.5-2.7,2.5-6.4,3-10.3l2.8,0.5
		c-0.2,1.4-0.5,2.7-0.8,4h6.3v2.8L161.2,9.6L161.2,9.6z M155.3,9.6c-0.2,0.6-0.3,1.1-0.6,1.6c0.5,1.8,1,3.6,1.8,5.2
		c0.8-1.9,1.4-4.3,1.8-6.8H155.3z"/>
	<path class="st0" d="M186.7,11.2c-1,3.4-2.6,6.3-4.4,8.8c0.7,1.8,1.6,2.9,2.4,2.9c0.6,0,1-1.3,1-4.5c0.7,0.7,1.8,1.4,2.6,1.7
		c-0.5,4.7-1.5,5.9-3.9,5.9c-1.8,0-3.2-1.3-4.3-3.4c-1.3,1.4-2.7,2.5-4.3,3.5c-0.5-0.6-1.6-1.9-2.2-2.5c2-1,3.8-2.5,5.2-4.2
		c-0.9-2.9-1.4-6.5-1.8-10.4h-7.5V12h6.3c0,0,0,0.8,0,1.1c-0.1,5.4-0.2,7.7-0.8,8.4c-0.5,0.6-1,0.9-1.8,1c-0.6,0.1-1.8,0.1-3,0.1
		c-0.1-0.9-0.4-2.1-0.9-2.9c1,0.1,1.8,0.1,2.2,0.1c0.3,0,0.6-0.1,0.8-0.3c0.2-0.3,0.3-1.6,0.4-4.8h-3.4c-0.1,3.8-0.6,8.8-2.7,11.9
		c-0.6-0.6-1.9-1.7-2.6-2.1c1.9-3.1,2.2-7.5,2.2-10.9V6.2h10.5c-0.1-1.3-0.1-2.5-0.1-3.8h3.2c0,1.3,0,2.6,0.1,3.8h3.9
		c-1-0.8-2.2-1.6-3.3-2.2l1.8-1.8c1.4,0.7,3.3,1.9,4.2,2.7l-1.2,1.3h2.7v3.1h-8c0.2,2.6,0.6,5,1,7.1c1-1.7,1.8-3.6,2.5-5.7
		L186.7,11.2z"/>
	<path class="st0" d="M207,2.7c1.2,3.8,3.8,7.4,7.4,9.2c-0.6,0.6-1.7,1.9-2.2,2.8c-0.6-0.4-1.4-1-1.9-1.5
		c-0.3,7.5-0.6,10.5-1.5,11.6c-0.6,0.9-1.4,1.1-2.3,1.2c-0.9,0.2-2.3,0.2-3.9,0.1c-0.1-1-0.5-2.2-1-3.1c1.4,0.1,2.7,0.2,3.4,0.2
		c0.5,0,0.8-0.1,1-0.3c0.5-0.6,0.8-2.9,1-8.2H202c-0.6,4.9-2.3,9.3-9,11.8c-0.4-0.9-1.3-2.2-2-2.8c5.8-1.8,7.1-5.3,7.6-9h-4.3V13
		c-0.6,0.7-1.3,1.3-1.9,1.8c-0.6-0.6-1.8-1.8-2.6-2.2c2.9-2.1,5.2-5.5,6.3-9.4l3.2,0.8c-1,2.9-2.3,5.5-4,7.7h13.3
		c-1.7-1.8-3-4-3.9-6.1h-4.1V2.7H207z"/>
	<path class="st0" d="M15.2,59.3c3.1,1,7.1,2.7,9.3,3.8l-1.4,2.6c-2.2-1.3-7-3.3-10.3-4.5l1.1-1.9h-1c-1.2,3.1-4,5.2-10.8,6.3
		c-0.2-0.8-1-2.1-1.5-2.7c5.1-0.7,7.5-1.8,8.8-3.5H1.8v-2.6h8.7c0.1-0.4,0.2-0.9,0.2-1.4H1.2v-2.7H11v-1.4H3.5v-2.6H11v-1.3H1.9
		v-2.7h4.9c-0.4-0.8-1-1.6-1.4-2.2l2.7-1c0.8,0.9,1.6,2.2,1.9,3l-0.7,0.3H15c0.6-1,1.4-2.3,1.8-3.4l3.3,0.9
		c-0.6,0.9-1.1,1.8-1.7,2.5h4.9v2.7h-9.1v1.3h7.9v2.6h-7.9v1.4h10.2v2.7H13.9c-0.1,0.5-0.2,0.9-0.2,1.4h10v2.6H15.2z"/>
	<path class="st0" d="M48,45.4v20.2h-3.2V64h-13v1.6h-3.1V45.4h6.4c0.4-1.3,0.9-2.7,1-3.9l4,0.5c-0.5,1.1-1,2.2-1.5,3.3L48,45.4
		L48,45.4z M31.8,48.5v4.6h13v-4.6C44.8,48.5,31.8,48.5,31.8,48.5z M44.8,60.9v-4.7h-13v4.7H44.8z"/>
	<path class="st0" d="M53.8,61.1c0-2.1,1.4-3.3,2.8-4.3c-0.6-1.1-1-2.3-1-3.2c0-2.1,1.5-3.9,3.9-3.9c2.2,0,3.5,1.3,3.5,3.3
		s-1.7,3.2-3.2,4.3c0.9,1.1,2,2.2,3.2,3.1c0.8-1,1.4-2.3,1.8-3.9h2.7c-0.6,1.8-1.4,3.6-2.6,5.1c1,0.6,1.9,1,2.7,1L67,65.3
		c-1-0.2-2.4-0.8-3.7-1.6c-1.3,1-2.8,1.6-4.7,1.6C55.6,65.4,53.8,63.4,53.8,61.1z M59.1,63c0.8,0,1.4-0.2,2.2-0.8
		c-1.3-1-2.4-2.3-3.4-3.5c-0.8,0.6-1.3,1.3-1.3,2.1C56.7,62.2,57.7,63,59.1,63z M58.7,55.6c1.2-0.7,2.1-1.4,2.1-2.6
		c0-0.8-0.3-1.3-1.1-1.3c-0.9,0-1.5,0.7-1.5,1.8C58.2,54.2,58.4,54.8,58.7,55.6z"/>
	<path class="st0" d="M78.4,56.9c0.3-0.9,0.6-2,0.9-3.2h-1.6v8.7c0,1.4-0.2,2.2-1.2,2.7s-2.2,0.6-3.9,0.6c-0.1-0.9-0.5-2.1-1-2.9
		c1.1,0,2.3,0,2.7,0c0.3,0,0.5-0.1,0.5-0.4v-8.8h-3.8v-2.7h5.5c-1.3-1-3-2-4.4-2.7l1.5-2c0.7,0.3,1.6,0.7,2.3,1.2
		c0.6-0.6,1.1-1.4,1.6-2.1h-5.9v-2.7h7.9l0.6-0.2l1.8,1.3v-1.2h13.1v2.6H90c-0.2,0.6-0.3,1.1-0.6,1.7h4.7v13.6H82.7V46.9h3.8
		c0.1-0.6,0.2-1.1,0.2-1.7h-5v-1.1c-1,1.6-2.3,3.4-3.6,4.7c0.6,0.4,1.1,0.8,1.5,1.2L79,51h1.2l0.4-0.1l1.8,0.4
		c-0.6,2.2-1.2,4.6-1.8,6.1L78.4,56.9z M87.6,62.2c-1.4,1.4-3.9,2.8-5.8,3.5c-0.5-0.6-1.4-1.4-2.1-2c2-0.7,4.3-2.1,5.4-3.2
		L87.6,62.2z M91.1,49.2h-5.7v1.6h5.7V49.2z M91.1,52.9h-5.7v1.6h5.7V52.9z M91.1,56.6h-5.7v1.6h5.7V56.6z M91.1,60.7
		c1.4,1,3.4,2.3,4.3,3.3L93,65.7c-0.9-1-2.8-2.5-4.2-3.5L91.1,60.7z"/>
	<path class="st0" d="M106.4,43.8c-0.7,2.2-1.6,5.1-2.3,7.1c1.6,2,1.9,3.8,1.9,5.3c0,1.7-0.3,2.7-1.2,3.4c-0.4,0.3-0.9,0.5-1.5,0.6
		c-0.5,0.1-1.1,0.1-1.7,0.1c0-0.8-0.2-2-0.7-2.7c0.5,0.1,0.9,0.1,1.1,0c0.3,0,0.6-0.1,0.8-0.2c0.3-0.2,0.4-0.7,0.4-1.5
		c0-1.2-0.3-2.8-1.8-4.6c0.6-1.6,1.1-4,1.5-5.8h-2.2v20.2h-2.9V42.8h6.1l0.4-0.2L106.4,43.8z M112.2,48.6c-0.1,1-0.1,2.1-0.2,3.1
		h7.1c0,0,0,0.9,0,1.3c-0.2,7.5-0.5,10.4-1.3,11.4c-0.6,0.8-1.2,1-2,1.1c-0.7,0.2-2,0.2-3.3,0.1c-0.1-0.9-0.4-2.2-1-3.1
		c1.1,0.2,2.2,0.2,2.7,0.2c0.4,0,0.6-0.1,0.9-0.4c0.5-0.5,0.7-2.7,0.9-7.9h-4.2c-0.6,4.8-2.2,8.7-6.7,11.2c-0.4-0.7-1.3-1.8-1.9-2.3
		c5.5-2.9,5.9-8,6.1-14.6H106v-2.8h6.3c-0.2-1-0.6-2.4-1-3.5l2.8-0.6c0.5,1.1,1,2.7,1.2,3.6l-2.1,0.6h7.5v2.8L112.2,48.6L112.2,48.6
		z"/>
	<path class="st0" d="M143.8,62.4c0.2,0,0.2,0,0.3-0.2c0.1-0.1,0.2-0.3,0.2-0.9c0.1-0.5,0.1-1.8,0.1-3.3c0.6,0.6,1.6,1,2.4,1.4
		c0,1.4-0.2,3.1-0.3,3.9c-0.2,0.8-0.4,1.2-0.9,1.6c-0.3,0.3-1,0.4-1.5,0.4h-1.4c-0.6,0-1.4-0.2-1.8-0.7c-0.5-0.5-0.7-1.1-0.7-3.4
		V45.5h-2.8v7.5c0,3.9-0.3,9.5-2.8,12.8c-0.5-0.5-1.8-1.4-2.5-1.8c-0.2,0.3-0.4,0.6-0.7,0.8c-0.8,0.5-1.9,0.6-3.5,0.6
		c-0.1-0.8-0.5-2.2-0.9-2.9c1,0.1,1.8,0.1,2.2,0.1c0.3,0,0.4-0.2,0.4-0.5v-6c-0.6,0.6-1.3,1.3-1.9,1.8l-0.8-1.5
		c-0.2,3.3-0.7,6.7-1.8,9.2c-0.6-0.4-1.8-1.2-2.5-1.4c1.6-3.5,1.7-8.7,1.7-12.4v-9.2h8.3v19.6c0,0.7-0.1,1.2-0.2,1.7
		c1.9-3,2.2-7.3,2.2-10.8V42.6h8.8v18.6c0,0.6,0,1,0.1,1.1c0.1,0.1,0.2,0.2,0.2,0.2C143.4,62.4,143.8,62.4,143.8,62.4z M126.8,51.9
		c0,1,0,2.2-0.1,3.3c0.8-0.5,1.7-1.2,2.7-1.9v-1.8l-0.9,0.7c-0.4-0.6-1-1.3-1.8-2.1L126.8,51.9C126.7,51.9,126.8,51.9,126.8,51.9z
		 M126.8,45.4v3l0.8-0.6c0.6,0.6,1.3,1.2,1.8,1.8v-4.2H126.8z"/>
	<path class="st0" d="M167.4,50c1,0,2.9-0.1,3.5-0.2c0.1,0.8,0.2,1.3,0.2,1.8c-0.6,0.2-2.1,0.2-3.3,0.2h-6.1c-2.4,0-3.1-0.8-3.2-2.2
		l-4.3,0.2v-1.4l4.3-0.2v-0.8h-5.1v4.7c0,3.9-0.3,9.7-2.6,13.5c-0.6-0.5-1.8-1.3-2.7-1.5c2.1-3.5,2.2-8.4,2.2-12v-6.6h8.1v-3.9h3.1
		v1.1h8.1v1.9h-8.1v0.8h7.4l0.5-0.2l2.2,0.6c-0.5,1.4-1,2.8-1.6,3.7l-2.6-0.8c0.2-0.3,0.3-0.9,0.5-1.4h-6.8v0.7l5.7-0.2v1.4
		l-5.7,0.2c0.1,0.3,0.3,0.5,1.1,0.5H167.4z M168.9,63.3c0,1.2-0.2,1.6-1,1.9s-1.8,0.3-3.3,0.3c-0.2-0.6-0.5-1.3-0.8-1.8
		c0.7,0.1,1.5,0.1,1.8,0c0.2,0,0.3-0.1,0.3-0.3v-0.6c-2.4,0.4-4.8,0.8-6.8,1.1l-0.6-1.9c1.4-0.1,3.3-0.3,5.4-0.5
		c-1.4-0.4-3.4-0.9-5-1.1l0.6-1.2c1.8,0.2,4.3,0.7,5.6,1.1l-0.5,1l1.4-0.2v-2.1h-7.5v1.4c0,1.8-0.3,4-2,5.4
		c-0.5-0.5-1.8-1.5-2.4-1.8c1.4-1,1.5-2.3,1.5-3.6v-2.7h13.3L168.9,63.3L168.9,63.3z M154.2,52.3h16v4.9h-16V52.3z M156.9,54.2h3.8
		v-0.7h-3.8V54.2z M156.9,56h3.8v-0.7h-3.8V56z M167.3,53.5h-3.9v0.7h3.9V53.5z M167.3,55.3h-3.9V56h3.9V55.3z"/>
	<path class="st0" d="M194.5,62.4c0.7,0,1-0.3,1-3.4c0.8,0.5,1.8,0.8,2.6,1c-0.3,4.5-1.3,5.4-3.7,5.4h-3.6c-3,0-4.3-1.2-4.3-3.2
		c0-1.3,0.2-2.7,4.8-8.6h-4v-2.1l-0.2,0.2c-0.3-0.4-1-1-1.7-1.5v7h-3.9v1.5h4.4v2.7h-4.4v4.2h-3v-4.2H174v-2.7h4.6v-1.5h-3.7v-9h3.7
		v-1.4h-4.3v-2.7h4.3v-2.4h3v2.4h4.3v2.7h-4.3v1.4h3.9v0.6c1.4-1.8,2.5-4.5,3.1-7.1l3.1,0.6c-0.2,1-0.6,2.1-1,3.1h7.1v2.8h-8.3
		c-0.5,1-1,1.9-1.6,2.7h6.2l0.6-0.1l2,0.8c-0.1,0.2-0.2,0.4-0.3,0.6c-6.3,7.4-6.7,8.7-6.7,9.5c0,0.5,0.4,0.7,1.2,0.7L194.5,62.4
		L194.5,62.4z M182.6,50.3h-5.1v1.3h5.1V50.3z M182.6,53.7h-5.1v1.4h5.1V53.7z"/>
	<path class="st0" d="M203.9,56.5h3.1v2c0,2.2-0.8,5.4-5.4,7.2c-0.5-0.6-1.4-1.6-2.2-2.1c3.9-1.4,4.5-3.8,4.5-5.3V56.5L203.9,56.5z
		 M205.5,45.7h-5.3V43h5.3v-1.4h3v1.4h2.7v2.6h-2.7v1.8h-3V45.7z M216,53.2c1.4,0,3.9-0.1,4.7-0.3c0.1,0.9,0.2,1.8,0.3,2.5
		c-0.8,0.2-3,0.2-4.7,0.2H208c-3.7,0-4.8-1-4.8-3.5v-1h-2.9v-2.6h10c-0.2-0.6-0.5-1.2-0.7-1.7l2.9-0.7c0.4,0.7,0.9,1.6,1.1,2.3h9.2
		V51h-16.4v1c0,0.7,0.2,1,1.7,1h7.9V53.2z M210,56.7h2.9v8.5H210V56.7z M214.5,45.7H212V43h2.5v-1.4h3.1v1.4h5.4v2.6h-5.4v1.8h-3.1
		V45.7z M221.5,62.9c0.6,0,1.4-0.1,1.8-0.2c0.1,0.7,0.2,1.8,0.2,2.5c-0.5,0.2-1.3,0.2-1.9,0.2H219c-2.7,0-3.3-1-3.3-3.5v-5.2h2.9
		v5.3c0,0.7,0.1,1,0.6,1L221.5,62.9L221.5,62.9z"/>
</g>
</svg>
