<?xml version="1.0" encoding="utf-8"?>
<!-- Generator: Adobe Illustrator 26.0.3, SVG Export Plug-In . SVG Version: 6.00 Build 0)  -->
<svg version="1.1" id="head-block-01.svg" xmlns="http://www.w3.org/2000/svg" xmlns:xlink="http://www.w3.org/1999/xlink" x="0px"
	 y="0px" viewBox="0 0 279.5 124.2" style="enable-background:new 0 0 279.5 124.2;" xml:space="preserve">
<style type="text/css">
	.st0{fill:#D2ECF9;}
	.st1{fill:#1147B4;}
</style>
<rect id="長方形_1367" x="13.3" y="25.4" class="st0" width="251.9" height="10"/>
<rect id="長方形_1367-2" x="-0.4" y="75.4" class="st0" width="279.3" height="10"/>
<g>
	<path class="st1" d="M18,15.8c-1.1-1-3.4-2.4-5.2-3.2L15,9.8c1.9,0.7,4.2,1.9,5.3,2.9L18,15.8z M21,20.4c-1.2,3.4-2.7,7-4.1,10.1
		l-3.4-2.1C14.8,26,16.6,22,18,18.3L21,20.4z M19.5,7.3c-1.1-1.1-3.3-2.5-5.2-3.4l2.2-2.8c1.8,0.8,4.1,2.1,5.2,3.1L19.5,7.3z
		 M37.3,12.5c1.5,1.8,3.6,3.3,6,4.2c-0.8,0.6-1.9,2-2.4,2.9c-0.4-0.2-0.9-0.4-1.3-0.7c1.5,2.3,2.9,5.1,3.6,7L40,27.6
		c-0.6-2.2-2.3-5.5-3.9-8l2.5-1.2c-2.1-1.5-4-3.5-5.3-5.8h-2.9c-1.4,2.6-3.3,4.8-5.7,6.5l2.8,1.1c-0.8,2.6-2,5.5-4,7.4l-2.8-2
		c1.8-1.5,3.1-4,3.8-6.3c-0.7,0.4-1.4,0.9-2.1,1.2c-0.5-0.8-1.7-2.2-2.4-2.9c2.6-1.2,4.5-2.9,6-5h-4.8V9H28c0.4-0.9,0.7-1.9,0.9-2.9
		h-6.1V2.6h18.8v3.5h-8.7c-0.3,1-0.6,2-0.9,2.9h10.7v3.5H37.3z M34.8,19.5c1,2.1,1.9,4.8,2.3,6.6l-3,1.2c-0.3-1.8-1.2-4.5-2.1-6.7
		v6.5c0,1.7-0.3,2.6-1.3,3.2c-1.1,0.5-2.5,0.6-4.5,0.6c-0.1-1-0.5-2.4-1-3.4c1.2,0.1,2.4,0,2.8,0s0.5-0.1,0.5-0.4V15.6H32v4.9
		L34.8,19.5z"/>
	<path class="st1" d="M60,6.7c0,0,0,1.2,0,1.7c-0.3,13.6-0.5,18.5-1.5,20c-0.7,1.1-1.4,1.4-2.5,1.6c-0.9,0.2-2.4,0.2-3.9,0.1
		C52,29,51.7,27.4,51,26.3c1.3,0.1,2.4,0.1,3,0.1c0.5,0,0.8-0.1,1.1-0.6c0.6-0.9,0.9-4.8,1.1-15.5H53c-0.3,8.5-1.4,15.7-5.6,20.4
		c-0.6-0.9-1.8-2.2-2.8-2.8c3.6-4.1,4.4-10.2,4.7-17.7h-3.7V6.7h3.7c0-1.7,0-3.5,0-5.3H53c0,1.8,0,3.6,0,5.3H60z M73.4,4.6V30h-3.8
		v-2h-4.1v2.2h-3.7V4.6H73.4z M69.5,24.3v-16h-4.1v16H69.5z"/>
	<path class="st1" d="M79.8,10c-0.4,0.4-0.8,0.8-1.2,1.2c-0.3-0.6-1.2-2.1-1.8-2.7c1.9-1.8,3.6-4.5,4.6-7.4l2.9,0.8
		c-0.3,0.8-0.6,1.6-1,2.5h2.4c-0.3-0.8-0.6-1.6-1-2.3l3.1-0.9c0.5,1,1.1,2.2,1.4,3.2h2.3v2.4h-3.3V8H91l0,0c1.7-1.9,3.1-4.4,4-6.9
		l3,0.8c-0.3,0.8-0.6,1.6-1,2.5h2.4c-0.3-0.8-0.6-1.6-0.9-2.3l3.1-0.9c0.5,1,1.1,2.2,1.4,3.1h2.9v2.4h-4v1.2h3.1v2.2h-3.1v1.2h3.1
		v2.2h-3.1v1.2h4.4v2.4H93.4V10c-0.4,0.5-0.8,0.9-1.2,1.3c-0.3-0.4-0.8-1.2-1.3-1.8v0.6h-2.7v1.2H91v2.2h-2.7v1.2h3.6v2.4H79.8V10z
		 M103.2,19.9c-1.5,2.4-3.6,4.4-6.1,5.9c2.8,0.6,6,1,9.2,1.2c-0.8,0.9-1.8,2.6-2.3,3.6c-4.4-0.4-8.4-1.2-12-2.5
		c-4,1.4-8.5,2.3-13.2,2.8c-0.3-1-0.9-2.5-1.5-3.4c3.5-0.3,6.9-0.7,10-1.5c-1.8-1.1-3.4-2.3-4.8-3.7l1.5-0.7h-4.9v-3.1H100l0.7-0.2
		L103.2,19.9z M85.3,6.7H83v1.2h2.3V6.7z M85.3,10.1H83v1.2h2.3V10.1z M85.3,13.6H83v1.2h2.3V13.6z M87,21.6c1.4,1.1,3.2,2,5.2,2.8
		c1.8-0.8,3.4-1.7,4.7-2.8H87z M98.9,6.7h-2.2v1.2h2.2V6.7z M98.9,10.1h-2.2v1.2h2.2V10.1z M98.9,13.6h-2.2v1.2h2.2V13.6z"/>
	<path class="st1" d="M138.4,27v3h-29v-3h12.4v-1.7h-10.1v-2.8h10.1V21h-9V10.8h9V9.6h-12.2v-3h12.2V5.2c-3.1,0.1-6.2,0.2-9.1,0.3
		c0-0.9-0.4-2.1-0.8-2.9c7.5-0.2,16.1-0.7,21.5-1.6l1.8,2.9c-2.8,0.4-6.1,0.8-9.6,1.1v1.7h12.5v3h-12.5v1.2h9.5V21h-9.5v1.4h10.7
		v2.8h-10.7V27H138.4z M116.5,14.8h5.3v-1.4h-5.3V14.8z M121.8,18.5v-1.4h-5.3v1.4H121.8z M125.7,13.3v1.4h5.6v-1.4H125.7z
		 M131.3,17.1h-5.6v1.4h5.6V17.1z"/>
	<path class="st1" d="M152.9,8.4c-0.4,0.9-0.8,1.7-1.3,2.5h14.9v15.8c0,1.9-0.4,2.9-1.7,3.5c-1.2,0.6-3.1,0.6-5.7,0.6
		c-0.2-1.1-0.7-2.7-1.2-3.7c1.6,0.1,3.5,0.1,4,0.1s0.7-0.2,0.7-0.6v-1.9h-12c-0.5,2.4-1.6,4.7-3.6,6.4c-0.5-0.8-2-2.4-2.8-2.9
		c2.8-2.4,3-5.8,3-8.8v-2.6c-1.2,1.3-2.5,2.5-4,3.5c-0.6-0.9-1.8-2.2-2.5-2.9c3.2-2.1,5.8-5.4,7.7-8.9h-6.9V4.8h8.6
		c0.5-1.3,0.9-2.6,1.3-3.9l3.9,0.9c-0.3,1-0.7,2-1,3h15.6v3.6H152.9z M162.8,21.6v-2.1h-11.5c0,0.7,0,1.3-0.1,2.1H162.8z
		 M162.8,14.3h-11.5v2h11.5V14.3z"/>
	<path class="st1" d="M201,10.1c-0.7,4.9-1.9,9-3.7,12.3c1.6,2.3,3.5,4.2,5.8,5.5c-0.9,0.7-2,2.1-2.6,3c-2.1-1.4-3.9-3.1-5.3-5.3
		c-1.8,2.2-4.1,4-6.8,5.4c-0.5-0.7-1.9-2.1-2.6-2.8c3.3-1.4,5.7-3.3,7.5-5.9c-0.9-1.8-1.7-3.7-2.3-5.7c-0.4,0.7-0.9,1.4-1.3,2
		c-0.4-0.7-1.5-2.2-2.2-2.9l-1.4,0.8c-0.1-0.4-0.3-0.9-0.5-1.4c-0.5,1.8-1.1,3.4-1.8,4.9c1.6,1.9,3.1,3.7,4,5.3l-3,2.4
		c-0.6-1.2-1.6-2.6-2.8-4.2c-1.7,2.7-3.8,5-6.3,6.7c-0.5-0.7-1.8-2.1-2.5-2.8c2.8-1.6,4.9-3.9,6.5-6.8c-1.1-1.2-2.2-2.4-3.2-3.5
		c-0.3,0.4-0.6,0.9-0.9,1.2c-0.6-0.6-1.8-1.8-2.6-2.4c1.6-1.8,3.2-4.6,4.2-7.2l3.2,1c-1,2.3-2.4,4.8-3.7,6.9l2.4-1.8
		c0.7,0.7,1.4,1.4,2.1,2.2c0.4-1.1,0.7-2.2,1-3.4l3,0.6c-0.8-1.4-1.8-3-2.8-4.3l2.3-1.3h-11V5.4h6.3c-0.4-1.1-1.1-2.3-1.7-3.4
		l3.2-1.2c0.8,1.2,1.7,2.7,2,3.7l-2,0.8h7.4v3.4H185c1.2,1.5,2.5,3.4,3.3,5c1.9-3.4,3.1-8,3.7-12.8l3.5,0.6c-0.2,1.7-0.6,3.4-1,5
		h7.9V10H201V10.1z M193.6,10.1c-0.2,0.7-0.4,1.4-0.7,2c0.6,2.3,1.3,4.5,2.3,6.5c1-2.4,1.7-5.3,2.2-8.5H193.6z"/>
	<path class="st1" d="M232.8,12.1c-1.3,4.2-3.2,7.9-5.5,11c0.9,2.3,2,3.6,3,3.6c0.8,0,1.2-1.6,1.3-5.6c0.9,0.9,2.2,1.7,3.2,2.1
		c-0.6,5.9-1.9,7.3-4.9,7.3c-2.2,0-4-1.6-5.4-4.2c-1.6,1.7-3.4,3.1-5.4,4.4c-0.6-0.8-2-2.4-2.8-3.1c2.5-1.3,4.7-3.1,6.5-5.2
		c-1.1-3.6-1.8-8.1-2.2-12.9h-9.3V13h7.9c0,0,0,1,0,1.4c-0.1,6.7-0.3,9.6-1,10.5c-0.6,0.8-1.2,1.1-2.2,1.3c-0.8,0.1-2.2,0.1-3.7,0.1
		c-0.1-1.1-0.5-2.6-1.1-3.6c1.2,0.1,2.2,0.1,2.8,0.1c0.4,0,0.7-0.1,1-0.4c0.3-0.4,0.4-2,0.5-6h-4.2c-0.1,4.7-0.8,10.9-3.4,14.8
		c-0.7-0.7-2.4-2.1-3.2-2.6c2.4-3.8,2.7-9.4,2.7-13.6V5.8h13.1c-0.1-1.6-0.1-3.1-0.1-4.7h4c0,1.6,0,3.2,0.1,4.7h4.9
		c-1.2-1-2.8-2-4.1-2.8l2.3-2.3c1.8,0.9,4.1,2.4,5.2,3.4l-1.5,1.6h3.3v3.8h-9.9c0.3,3.2,0.7,6.2,1.3,8.8c1.2-2.1,2.3-4.5,3.1-7.1
		L232.8,12.1z"/>
	<path class="st1" d="M258,1.5c1.5,4.7,4.7,9.2,9.2,11.5c-0.8,0.8-2.1,2.4-2.7,3.5c-0.8-0.5-1.7-1.2-2.4-1.9
		c-0.4,9.4-0.7,13.1-1.9,14.4c-0.8,1.1-1.7,1.4-2.9,1.5c-1.1,0.2-2.9,0.2-4.8,0.1c-0.1-1.2-0.6-2.8-1.2-3.8c1.8,0.1,3.4,0.2,4.2,0.2
		c0.6,0,1-0.1,1.3-0.4c0.6-0.7,1-3.6,1.3-10.2h-6.3c-0.8,6.1-2.9,11.6-11.2,14.7c-0.5-1.1-1.6-2.7-2.5-3.5c7.2-2.3,8.9-6.6,9.5-11.2
		h-5.4v-2.1c-0.8,0.9-1.6,1.6-2.4,2.3c-0.7-0.8-2.3-2.2-3.2-2.8c3.6-2.6,6.5-6.9,7.9-11.7l4,1c-1.2,3.6-2.9,6.9-5,9.6H260
		c-2.1-2.3-3.7-5-4.8-7.6h-5.1V1.5H258z"/>
	<path class="st1" d="M19.2,72c3.8,1.3,8.9,3.3,11.6,4.7L29,79.9c-2.8-1.6-8.7-4.1-12.8-5.6l1.4-2.4h-1.2c-1.5,3.9-5,6.5-13.5,7.9
		c-0.3-1-1.2-2.6-1.9-3.4c6.4-0.9,9.4-2.3,10.9-4.4H2.5v-3.2h10.8c0.1-0.5,0.2-1.1,0.3-1.7H1.8v-3.3H14v-1.7H4.6v-3.2H14v-1.6H2.7
		v-3.4h6.1c-0.5-1-1.2-2-1.8-2.8l3.4-1.3c1,1.1,2,2.7,2.4,3.7l-0.9,0.4h7c0.8-1.2,1.8-2.9,2.3-4.2l4.1,1.1c-0.7,1.1-1.4,2.2-2.1,3.1
		h6.1v3.4H18v1.6h9.8v3.2H18v1.7h12.7v3.3H17.6c-0.1,0.6-0.2,1.1-0.3,1.7h12.5V72H19.2z"/>
	<path class="st1" d="M60.1,54.6v25.2h-4v-2H39.9v2H36V54.6h8c0.5-1.6,1.1-3.3,1.3-4.8l5,0.6c-0.6,1.4-1.2,2.8-1.9,4.1h11.7V54.6z
		 M39.9,58.5v5.7h16.2v-5.7C56.1,58.5,39.9,58.5,39.9,58.5z M56.1,73.9V68H39.9v5.9H56.1z"/>
	<path class="st1" d="M67.3,74.2c0-2.6,1.7-4.1,3.5-5.3c-0.8-1.4-1.2-2.9-1.2-4c0-2.6,1.9-4.8,4.9-4.8c2.7,0,4.4,1.6,4.4,4.1
		c0,2.5-2.1,4-4,5.4c1.1,1.4,2.5,2.8,4,3.9c1-1.3,1.8-2.9,2.3-4.8h3.4c-0.7,2.3-1.7,4.5-3.2,6.4c1.2,0.7,2.4,1.2,3.3,1.3l-1,3
		c-1.3-0.3-3-1-4.6-2c-1.6,1.2-3.5,2-5.8,2C69.5,79.5,67.3,77.1,67.3,74.2z M73.9,76.6c1,0,1.8-0.3,2.8-1c-1.6-1.3-3-2.9-4.2-4.4
		c-1,0.8-1.6,1.6-1.6,2.6C70.9,75.5,72.1,76.6,73.9,76.6z M73.4,67.3c1.5-0.9,2.6-1.8,2.6-3.2c0-1-0.4-1.6-1.4-1.6
		c-1.1,0-1.9,0.9-1.9,2.3C72.8,65.6,73,66.4,73.4,67.3z"/>
	<path class="st1" d="M97.9,69c0.4-1.1,0.7-2.5,1.1-4h-2v10.8c0,1.8-0.3,2.8-1.5,3.4s-2.8,0.7-4.9,0.7c-0.1-1.1-0.6-2.6-1.2-3.6
		c1.4,0,2.9,0,3.3,0s0.6-0.1,0.6-0.5V64.9h-4.7v-3.4h6.8c-1.6-1.2-3.7-2.5-5.5-3.4l1.9-2.5c0.9,0.4,2,0.9,2.9,1.5
		c0.7-0.8,1.4-1.7,2-2.6h-7.4v-3.3h9.8l0.7-0.2l2.2,1.6v-1.5h16.3v3.2h-6c-0.2,0.7-0.4,1.4-0.7,2.1h5.8v16.9h-14.2V56.5h4.7
		c0.1-0.7,0.2-1.4,0.3-2.1H102V53c-1.2,2-2.9,4.2-4.5,5.9c0.8,0.5,1.4,1,1.9,1.5l-0.8,1.2h1.5l0.5-0.1l2.3,0.5
		c-0.7,2.7-1.5,5.7-2.2,7.6L97.9,69z M109.3,75.5c-1.8,1.7-4.8,3.5-7.2,4.4c-0.6-0.7-1.7-1.8-2.6-2.5c2.5-0.9,5.3-2.6,6.7-4
		L109.3,75.5z M113.7,59.4h-7.1v2h7.1V59.4z M113.7,64h-7.1v2h7.1V64z M113.7,68.6h-7.1v2h7.1V68.6z M113.7,73.7
		c1.8,1.2,4.2,2.9,5.4,4.1l-3,2.1c-1.1-1.2-3.5-3.1-5.2-4.4L113.7,73.7z"/>
	<path class="st1" d="M132.8,52.7c-0.9,2.8-2,6.4-2.9,8.9c2,2.5,2.4,4.7,2.4,6.6c0,2.1-0.4,3.4-1.5,4.2c-0.5,0.4-1.1,0.6-1.9,0.7
		c-0.6,0.1-1.4,0.1-2.1,0.1c0-1-0.3-2.5-0.9-3.4c0.6,0.1,1.1,0.1,1.4,0c0.4,0,0.7-0.1,1-0.3c0.4-0.3,0.5-0.9,0.5-1.9
		c0-1.5-0.4-3.5-2.3-5.7c0.7-2,1.4-5,1.9-7.2h-2.8v25.1H122V51.4h7.6l0.5-0.2L132.8,52.7z M140,58.6c-0.1,1.3-0.1,2.6-0.2,3.8h8.8
		c0,0,0,1.1,0,1.6c-0.3,9.3-0.6,13-1.6,14.2c-0.7,1-1.5,1.3-2.5,1.4c-0.9,0.2-2.5,0.2-4.1,0.1c-0.1-1.1-0.5-2.7-1.2-3.8
		c1.4,0.2,2.7,0.2,3.4,0.2c0.5,0,0.8-0.1,1.1-0.5c0.6-0.6,0.9-3.3,1.1-9.8h-5.2c-0.8,6-2.8,10.8-8.4,13.9c-0.5-0.9-1.6-2.2-2.4-2.9
		c6.9-3.6,7.4-9.9,7.6-18.2h-4.1v-3.5h7.8c-0.3-1.2-0.8-3-1.3-4.4l3.5-0.8c0.6,1.4,1.2,3.4,1.5,4.5l-2.6,0.8h9.3v3.5L140,58.6
		L140,58.6z"/>
	<path class="st1" d="M179.3,75.8c0.2,0,0.3,0,0.4-0.2c0.1-0.1,0.2-0.4,0.2-1.1c0.1-0.6,0.1-2.2,0.1-4.1c0.8,0.7,2,1.3,3,1.7
		c0,1.7-0.2,3.8-0.4,4.8s-0.5,1.5-1.1,2c-0.4,0.4-1.2,0.5-1.9,0.5h-1.8c-0.7,0-1.7-0.3-2.2-0.9c-0.6-0.6-0.9-1.4-0.9-4.2V54.8h-3.5
		v9.4c0,4.9-0.4,11.8-3.5,15.9c-0.6-0.6-2.2-1.8-3.1-2.2c-0.2,0.4-0.5,0.7-0.9,1c-1,0.6-2.4,0.7-4.4,0.7c-0.1-1-0.6-2.7-1.1-3.6
		c1.2,0.1,2.3,0.1,2.7,0.1s0.5-0.2,0.5-0.6V68c-0.8,0.8-1.6,1.6-2.4,2.3l-1-1.9c-0.3,4.1-0.9,8.4-2.3,11.5c-0.7-0.5-2.3-1.5-3.1-1.8
		c2-4.4,2.1-10.8,2.1-15.5V51.1H165v24.4c0,0.9-0.1,1.5-0.3,2.1c2.4-3.7,2.7-9.1,2.7-13.4V51.1h11v23.1c0,0.8,0,1.2,0.1,1.4
		c0.1,0.1,0.2,0.2,0.3,0.2C178.8,75.8,179.3,75.8,179.3,75.8z M158.2,62.7c0,1.3,0,2.7-0.1,4.1c1-0.6,2.1-1.5,3.3-2.4v-2.3l-1.1,0.9
		c-0.5-0.7-1.3-1.6-2.2-2.6v2.3H158.2z M158.2,54.6v3.7l1-0.7c0.7,0.7,1.6,1.5,2.3,2.2v-5.2H158.2z"/>
	<path class="st1" d="M208.7,60.4c1.2,0,3.6-0.1,4.3-0.3c0.1,1,0.2,1.6,0.3,2.3c-0.8,0.2-2.6,0.3-4.1,0.3h-7.6c-3,0-3.9-1-4-2.8
		l-5.3,0.2v-1.7l5.3-0.2v-1h-6.4V63c0,4.9-0.4,12.1-3.2,16.8c-0.7-0.6-2.3-1.6-3.3-1.9c2.6-4.3,2.8-10.5,2.8-14.9v-8.2h10.1V50h3.8
		v1.4h10.1v2.4h-10.1v1h9.2l0.6-0.2l2.8,0.7c-0.6,1.7-1.3,3.5-2,4.6l-3.2-1c0.2-0.4,0.4-1.1,0.6-1.7h-8.5v0.9l7.1-0.2v1.7l-7.1,0.2
		c0.1,0.4,0.4,0.6,1.4,0.6H208.7z M210.6,76.9c0,1.5-0.3,2-1.2,2.4s-2.3,0.4-4.1,0.4c-0.2-0.8-0.6-1.6-1-2.3c0.9,0.1,1.9,0.1,2.2,0
		c0.3,0,0.4-0.1,0.4-0.4v-0.7c-3,0.5-6,1-8.5,1.4l-0.8-2.4c1.8-0.1,4.1-0.4,6.7-0.6c-1.7-0.5-4.2-1.1-6.2-1.4l0.8-1.5
		c2.3,0.3,5.4,0.9,7,1.4l-0.6,1.3l1.7-0.2v-2.6h-9.4v1.8c0,2.3-0.4,5-2.5,6.7c-0.6-0.6-2.2-1.9-3-2.3c1.7-1.3,1.9-2.9,1.9-4.5v-3.3
		h16.6L210.6,76.9L210.6,76.9z M192.3,63.2h19.9v6.1h-19.9V63.2z M195.7,65.6h4.7v-0.9h-4.7V65.6z M195.7,67.9h4.7V67h-4.7V67.9z
		 M208.6,64.7h-4.8v0.9h4.8V64.7z M208.6,67h-4.8v0.9h4.8V67z"/>
	<path class="st1" d="M242.4,75.8c0.9,0,1.2-0.4,1.3-4.2c1,0.6,2.2,1,3.2,1.2c-0.4,5.6-1.6,6.7-4.6,6.7h-4.5c-3.7,0-5.3-1.5-5.3-4
		c0-1.6,0.3-3.3,6-10.7h-5v-2.6l-0.2,0.3c-0.4-0.5-1.3-1.2-2.1-1.9v8.7h-4.9v1.9h5.5v3.4h-5.5v5.2h-3.7v-5.2h-5.7v-3.4h5.7v-1.9H218
		V58.1h4.6v-1.8h-5.3V53h5.3v-3h3.7v3h5.3v3.3h-5.3v1.8h4.9v0.8c1.8-2.3,3.1-5.6,3.8-8.9l3.8,0.7c-0.3,1.3-0.7,2.6-1.2,3.8h8.9V58
		h-10.3c-0.6,1.2-1.3,2.4-2,3.4h7.7l0.8-0.1l2.5,1c-0.1,0.2-0.2,0.5-0.4,0.7c-7.9,9.2-8.4,10.8-8.4,11.8c0,0.6,0.5,0.9,1.5,0.9
		L242.4,75.8L242.4,75.8z M227.6,60.8h-6.3v1.6h6.3V60.8z M227.6,65h-6.3v1.7h6.3V65z"/>
	<path class="st1" d="M254.2,68.5h3.8V71c0,2.7-1,6.7-6.7,9c-0.6-0.8-1.8-2-2.7-2.6c4.9-1.8,5.6-4.7,5.6-6.6L254.2,68.5L254.2,68.5z
		 M256.2,55h-6.6v-3.3h6.6V50h3.7v1.8h3.4V55h-3.4v2.2h-3.7V55z M269.2,64.4c1.8,0,4.8-0.1,5.9-0.4c0.1,1.1,0.3,2.3,0.4,3.1
		c-1,0.2-3.7,0.3-5.8,0.3h-10.4c-4.6,0-6-1.2-6-4.4v-1.3h-3.6v-3.2h12.4c-0.3-0.7-0.6-1.5-0.9-2.1l3.6-0.9c0.5,0.9,1.1,2,1.4,2.9
		h11.5v3.2h-20.4v1.3c0,0.9,0.3,1.2,2.1,1.2h9.8V64.4z M261.7,68.7h3.6v10.6h-3.6V68.7z M267.4,55h-3.1v-3.3h3.1V50h3.8v1.8h6.7V55
		h-6.7v2.3h-3.8V55z M276.1,76.4c0.7,0,1.7-0.1,2.2-0.2c0.1,0.9,0.2,2.2,0.3,3.1c-0.6,0.2-1.6,0.2-2.4,0.2H273
		c-3.3,0-4.1-1.3-4.1-4.4v-6.5h3.6v6.6c0,0.9,0.1,1.3,0.7,1.3L276.1,76.4L276.1,76.4z"/>
</g>
<g>
	<path class="st1" d="M86.1,99.4l-3.6,3.6l3.6,3.6l-0.3,0.3l-3.6-3.6l-3.6,3.6l-0.3-0.3l3.6-3.6l-3.6-3.6l0.3-0.3l3.6,3.6l3.6-3.6
		L86.1,99.4z M79,103.9c-0.5,0-0.8-0.4-0.8-0.8s0.4-0.8,0.8-0.8s0.8,0.4,0.8,0.8S79.4,103.9,79,103.9z M81.3,99.9
		c0-0.5,0.4-0.8,0.8-0.8c0.5,0,0.8,0.4,0.8,0.8s-0.4,0.8-0.8,0.8C81.7,100.8,81.3,100.4,81.3,99.9z M82.9,106.2
		c0,0.5-0.4,0.8-0.8,0.8c-0.5,0-0.8-0.4-0.8-0.8c0-0.5,0.4-0.8,0.8-0.8C82.6,105.4,82.9,105.8,82.9,106.2z M85.2,102.3
		c0.5,0,0.8,0.4,0.8,0.8s-0.4,0.8-0.8,0.8s-0.8-0.4-0.8-0.8S84.8,102.3,85.2,102.3z"/>
	<path class="st1" d="M97,104.8h1.3v1.2H97v0.9c0,0.7-0.1,1-0.6,1.2s-1.1,0.2-1.8,0.2c-0.1-0.3-0.2-0.8-0.4-1.2l-1.1,0.7
		c-0.2-0.4-0.8-1.1-1.2-1.5l0.5-0.3H91v-1.2h4.5v-0.3c-1.5,0-3,0.1-4.1,0.1l-0.1-1.2c0.8,0,1.7,0,2.8,0v-0.3h-2.3V100H94v-0.3h-2.8
		v-0.4c-0.2,0.4-0.4,0.9-0.6,1.3v7.7H89V103c-0.2,0.2-0.4,0.4-0.5,0.6c-0.1-0.4-0.6-1.3-0.8-1.7c0.9-1,1.9-2.5,2.4-4l1.5,0.5
		l-0.1,0.2H94V98h1.6v0.6h2.7v1.1h-2.7v0.3H98v3.1h-0.3c0.4,0.4,0.7,0.7,0.9,1.1l-1.1,0.6c-0.1-0.1-0.1-0.2-0.2-0.3h-0.2v0.3H97z
		 M93.1,101.1H94v-0.3h-0.9V101.1z M94,102.2v-0.3h-0.9v0.3H94z M95.5,106h-2c0.3,0.3,0.7,0.7,0.9,1c0.4,0,0.8,0,0.9,0
		c0.2,0,0.2,0,0.2-0.2V106z M95.5,100.8v0.3h0.9v-0.3H95.5z M96.4,101.9h-0.9v0.3h0.9V101.9z M95.5,103.4h0.8
		c-0.1-0.1-0.2-0.2-0.3-0.3l0,0h-0.6L95.5,103.4L95.5,103.4z"/>
	<path class="st1" d="M100.8,105.3v0.9h-1.5v-7.8h4v6.9H100.8z M100.8,99.9v1.3h1.1v-1.3H100.8z M101.8,103.8v-1.3h-1.1v1.3H101.8z
		 M109,106.6c0,0.8-0.2,1.2-0.6,1.5c-0.5,0.3-1.1,0.3-2,0.3c-0.1-0.4-0.3-1.1-0.5-1.5c0.5,0,1.2,0,1.4,0c0.2,0,0.3-0.1,0.3-0.3v-1.7
		h-2.2c-0.3,1.3-0.9,2.7-2.1,3.5c-0.2-0.3-0.9-0.9-1.2-1.1c1.9-1.3,2-3.4,2-5v-4h5.1v8.3H109z M107.5,103.4v-1.1h-2
		c0,0.4,0,0.7,0,1.1H107.5z M105.5,99.8v1.1h2v-1.1H105.5z"/>
	<path class="st1" d="M120.1,103.7c-0.3,1.1-0.8,1.9-1.5,2.6c0.5,0.3,1.1,0.5,1.8,0.6c-0.3,0.3-0.7,0.9-0.9,1.3
		c-0.8-0.2-1.6-0.5-2.1-0.9c-0.6,0.4-1.3,0.7-2.1,1c-0.1-0.3-0.4-0.7-0.6-1v0.9h-1.2v-0.5h-2.2v0.7h-1.1v-7.8h1.1v-0.9H110v-1.3h4.7
		v1.3h-1.1v0.9h1.1v1.8c0.8-0.3,1-0.7,1.1-1.2c-0.3,0-0.5,0.1-0.6,0.1c-0.1-0.3-0.3-1-0.5-1.3c0.2-0.1,0.4-0.2,0.6-0.4
		c0.2-0.2,0.8-0.9,1.2-1.7l1.5,0.4c-0.4,0.5-0.8,1.1-1.2,1.5l1.4-0.1l-0.4-0.6l1.1-0.6c0.5,0.6,1.1,1.5,1.4,2.1l-1.2,0.7
		c-0.1-0.1-0.1-0.2-0.2-0.4h-0.1v0.7c0,0.2,0,0.3,0.2,0.3h0.5c0.2,0,0.5,0,0.6-0.1c0,0.3,0.1,0.9,0.1,1.2c-0.2,0.1-0.5,0.1-0.7,0.1
		h-0.6c-1.2,0-1.5-0.4-1.5-1.6v-0.6h-0.3c-0.1,0.7-0.2,1.3-0.7,1.8l1.3,0.3l-0.1,0.4h1.2l0.3-0.1L120.1,103.7z M113.5,106.4V104
		h-0.3c-0.5,0-0.6-0.2-0.6-0.9v-1.3h-0.2v0.8c0,0.6-0.1,1.3-0.5,1.8c-0.1-0.1-0.3-0.3-0.5-0.4v2.4H113.5z M111.3,101.8v2.1
		c0.3-0.4,0.3-0.9,0.3-1.3v-0.8C111.6,101.8,111.3,101.8,111.3,101.8z M111.6,104.7h1.6v1.2h-1.6V104.7z M112.3,100.4h0.3v-0.9h-0.3
		V100.4z M113.2,103.1c0,0.1,0,0.2,0.1,0.2h0.1c0.1,0,0.1,0,0.1,0v-1.5h-0.3C113.2,101.8,113.2,103.1,113.2,103.1z M116,103.3
		c0,0.1,0.1,0.2,0.1,0.3c0.1-0.3,0.2-0.6,0.3-0.9c-0.3,0.3-0.6,0.5-1.1,0.7c-0.1-0.3-0.4-0.7-0.6-0.9v2.8c0.2-0.1,0.4-0.3,0.6-0.5
		c-0.2-0.3-0.3-0.7-0.4-1L116,103.3z M114.7,107c0.6-0.2,1.1-0.4,1.6-0.7c-0.1-0.1-0.2-0.2-0.3-0.3c-0.1,0.1-0.3,0.2-0.4,0.3
		c-0.2-0.3-0.7-0.7-0.9-1C114.7,105.3,114.7,107,114.7,107z M117.1,104.6c-0.1,0.1-0.1,0.2-0.2,0.4c0.2,0.2,0.3,0.4,0.5,0.5
		c0.3-0.3,0.5-0.6,0.7-0.9H117.1z"/>
	<path class="st1" d="M120.9,105.1c0-1.1,0.7-1.8,1.5-2.3c-0.3-0.6-0.5-1.2-0.5-1.7c0-1.2,0.9-2.2,2.3-2.2c1.3,0,2.1,0.7,2.1,1.9
		c0,1.1-0.8,1.7-1.7,2.3c0.5,0.5,1,1,1.6,1.4c0.4-0.5,0.7-1.2,0.9-1.9h1.8c-0.3,1-0.7,1.9-1.4,2.7c0.5,0.3,1,0.4,1.4,0.5l-0.5,1.6
		c-0.7-0.1-1.4-0.4-2.1-0.8c-0.7,0.5-1.6,0.8-2.6,0.8C121.8,107.4,120.9,106.3,120.9,105.1z M123.9,105.9c0.3,0,0.6-0.1,1-0.3
		c-0.6-0.5-1.2-1-1.6-1.6c-0.3,0.3-0.5,0.6-0.5,0.9C122.8,105.5,123.2,105.9,123.9,105.9z M123.7,102c0.6-0.3,1-0.7,1-1.2
		c0-0.4-0.2-0.6-0.5-0.6c-0.4,0-0.7,0.3-0.7,0.9C123.5,101.4,123.6,101.7,123.7,102z"/>
	<path class="st1" d="M130.9,105.4c-0.1,1-0.2,2-0.4,2.7c-0.3-0.1-0.8-0.3-1.1-0.4c0.2-0.6,0.3-1.6,0.4-2.5L130.9,105.4z M133,102.1
		c0.4,0.7,0.7,1.6,0.8,2.2l-1.1,0.5c0-0.1,0-0.3-0.1-0.4c-2.1,0.3-2.5,0.5-2.8,0.6c-0.1-0.3-0.3-0.9-0.4-1.3
		c0.3-0.1,0.5-0.3,0.9-0.7c0.1-0.1,0.4-0.4,0.6-0.8c-0.7,0.1-1,0.2-1.1,0.2c-0.1-0.3-0.3-0.9-0.4-1.2c0.2-0.1,0.4-0.3,0.6-0.6
		c0.2-0.3,0.9-1.5,1.2-2.7l1.3,0.5c-0.4,0.9-0.9,1.8-1.4,2.5h0.6c0.3-0.5,0.6-1,0.8-1.6l1.2,0.7c-0.4,0.8-0.9,1.6-1.4,2.3L133,102.1
		z M132,105.1c0.1,0.7,0.3,1.7,0.3,2.3l-1.1,0.3c0-0.6-0.1-1.6-0.2-2.3L132,105.1z M132.3,103.3c-0.1-0.2-0.2-0.5-0.3-0.7
		c-0.2,0.3-0.4,0.5-0.6,0.8L132.3,103.3z M133.2,104.8c0.3,0.7,0.5,1.5,0.6,2l-1.1,0.4c-0.1-0.6-0.4-1.4-0.6-2.1L133.2,104.8z
		 M139.8,107.6h-4.2v0.7h-1.4V103c-0.1,0.2-0.2,0.3-0.4,0.5c-0.1-0.4-0.5-1.2-0.7-1.6c0.8-1,1.5-2.7,1.9-4l1.5,0.5v0.1l1.3-0.6
		c0.3,0.5,0.6,1.1,0.7,1.6l-0.8,0.4h1.9v1.4H138v0.7h1.4v1.4H138v0.7h1.4v1.4H138v0.7h1.7v1.4H139.8z M136.7,101.2h-1.1v0.7h1.1
		V101.2z M136.7,103.4h-1.1v0.7h1.1V103.4z M135.6,106.2h1.1v-0.7h-1.1V106.2z M137,99.8c-0.1-0.4-0.4-0.9-0.6-1.3
		c-0.1,0.4-0.3,0.9-0.5,1.3H137z"/>
	<path class="st1" d="M144.1,98.4c-0.3,0.8-0.6,1.6-1.1,2.3v7.6h-1.5V103c-0.2,0.2-0.3,0.4-0.5,0.6c-0.1-0.4-0.6-1.3-0.8-1.7
		c0.9-1,1.9-2.5,2.4-4L144.1,98.4z M148.6,106.8c0.6,0,0.7-0.3,0.8-1.5c0.4,0.2,1,0.5,1.4,0.6c-0.2,1.7-0.6,2.3-2.1,2.3h-2.3
		c-1.7,0-2.2-0.5-2.2-2.2v-2.8l-0.7,0.3l-0.6-1.4l1.3-0.5v-2.4h1.5v1.8l0.8-0.3v-2.8h1.4v2.2l1.3-0.5l0.1-0.1l1.2,0.4l-0.1,0.2
		c-0.1,1.6-0.2,3.6-0.5,5l-1.3-0.4c0.1-0.9,0.2-2.2,0.3-3.5l-0.9,0.4v3.9h-1.4v-3.3l-0.8,0.3v3.4c0,0.7,0.1,0.8,0.8,0.8L148.6,106.8
		L148.6,106.8z"/>
	<path class="st1" d="M157.9,98.6c-0.1,0.1-0.1,0.2-0.2,0.3c1,0.8,2.5,1.5,4.2,1.7c-0.4,0.4-0.9,1.1-1.1,1.5
		c-0.6-0.2-1.2-0.4-1.8-0.7v0.7h-4.9v-0.8c-0.6,0.3-1.3,0.6-2,0.8c-0.2-0.5-0.6-1.1-0.9-1.5c2.1-0.5,4.4-1.6,5.5-3L157.9,98.6z
		 M156.1,106.7h-2.4v0.9h-1.5v-5h3.8L156.1,106.7L156.1,106.7z M153.7,104v1.3h0.9V104H153.7z M157.7,100.7
		c-0.4-0.3-0.7-0.6-1.1-0.9c-0.4,0.3-0.9,0.6-1.3,0.9H157.7z M161,105.6c0,0.7-0.1,1.1-0.5,1.3c-0.4,0.2-0.9,0.2-1.6,0.2
		c0-0.4-0.2-1-0.4-1.4c0.3,0,0.7,0,0.8,0s0.2,0,0.2-0.1V104h-1.2v4.3h-1.6v-5.7h4.3V105.6z"/>
	<path class="st1" d="M163,99.1h5.2v1.6H165v1.5h2.7v1.7H165v1.7h3.3v1.7H163V99.1z"/>
	<path class="st1" d="M172.6,98.4c-0.7,1-1.7,2.1-2.6,2.8c-0.2-0.3-0.6-0.9-0.8-1.2c0.7-0.5,1.6-1.5,2-2.1L172.6,98.4z M172.9,100.6
		c-0.2,0.5-0.5,1-0.9,1.5v6.3h-1.6V104c-0.1,0.1-0.3,0.3-0.4,0.4c-0.1-0.3-0.5-1.1-0.8-1.5c0.9-0.6,1.8-1.7,2.3-2.7L172.9,100.6z
		 M174.5,103.5c-0.4-0.4-1.3-0.9-2-1.2l0.8-1.1c0.6,0.3,1.6,0.7,2,1.1L174.5,103.5z M172.6,106.9c0.6-0.8,1.5-2.1,2.2-3.4l1.1,1.1
		c-0.6,1.1-1.4,2.3-2.1,3.4L172.6,106.9z M174.7,100.5c-0.4-0.4-1.2-0.9-1.8-1.3l0.9-1.1c0.6,0.3,1.4,0.8,1.8,1.1L174.7,100.5z
		 M179.7,102.7h-1v3.9c0,0.7-0.1,1.1-0.5,1.4s-1,0.3-1.7,0.3c0-0.4-0.2-1.1-0.4-1.6c0.4,0,0.8,0,0.9,0c0.1,0,0.2,0,0.2-0.2v-3.9
		h-1.5v-1.5h4V102.7z M179.5,99.9h-3.7v-1.4h3.7V99.9z"/>
	<path class="st1" d="M190.6,106.4v1.6h-10v-1.6h4.2v-1.9H182V103h2.8v-1.7h-2.1c-0.3,0.6-0.6,1.1-1,1.5c-0.3-0.3-1-0.7-1.4-1
		c0.8-0.9,1.6-2.4,1.9-3.9l1.7,0.4c-0.1,0.5-0.3,1-0.5,1.4h1.4v-1.9h1.7v1.9h3.6v1.6h-3.6v1.7h3.2v1.5h-3.2v1.9H190.6z"/>
	<path class="st1" d="M201.7,99.5c0,0,0,0.5,0,0.7c-0.2,4.9-0.4,6.7-0.8,7.3c-0.3,0.4-0.5,0.6-0.9,0.6c-0.3,0.1-0.8,0.1-1.3,0.1
		c0-0.5-0.2-1.1-0.4-1.6c0.4,0,0.7,0,0.9,0s0.3-0.1,0.4-0.2c0.2-0.3,0.4-1.5,0.5-4.3c-0.6,2.3-1.6,4.6-3.1,5.9
		c-0.3-0.3-0.8-0.7-1.3-0.9c1.7-1.2,2.8-3.6,3.3-6.1h-0.3c-0.5,1.8-1.3,3.7-2.4,4.7c-0.3-0.3-0.8-0.7-1.2-0.9c1-0.8,1.8-2.3,2.3-3.9
		h-0.3c-0.3,0.7-0.7,1.4-1.1,1.9c-0.3-0.2-0.9-0.7-1.2-0.9c0.1-0.2,0.3-0.4,0.4-0.5h-0.6v1.5l0.9-0.2l0.2,1.4
		c-0.4,0.1-0.7,0.2-1.1,0.3v3.9h-1.5v-3.4c-0.5,0.2-1.1,0.3-1.6,0.5l-0.4-1.5c0.5-0.1,1.2-0.3,1.9-0.5v-1.9h-0.6
		c-0.1,0.5-0.2,0.9-0.4,1.3c-0.2-0.2-0.8-0.6-1.1-0.7c0.3-0.9,0.5-2.2,0.6-3.5l1.3,0.2c0,0.4-0.1,0.8-0.1,1.2h0.3v-2.1h1.5v2.1h0.8
		v1.2c0.5-0.9,0.9-2.1,1.1-3.3l1.4,0.3c-0.1,0.5-0.2,0.9-0.4,1.4L201.7,99.5L201.7,99.5z"/>
</g>
<g>
	<path class="st1" d="M38.6,118.8c-0.3-0.3-1-0.8-1.6-1l0.5-0.7c0.6,0.2,1.3,0.6,1.7,0.9L38.6,118.8z M37.2,122.9
		c0.4-0.8,1-2,1.4-3.1l0.7,0.5c-0.4,1-0.9,2.1-1.3,3.1L37.2,122.9z M39,116.2c-0.3-0.3-1-0.8-1.6-1.1l0.5-0.7c0.6,0.2,1.3,0.7,1.6,1
		L39,116.2z M41.6,116.9c0.2-0.4,0.3-0.8,0.4-1.1h-2.1v-0.9h5.9v0.9H43c-0.1,0.4-0.2,0.8-0.4,1.1h3.5v0.9h-1.9
		c0.5,0.7,1.2,1.3,2,1.6c-0.2,0.2-0.5,0.5-0.6,0.7c-1-0.5-1.9-1.3-2.4-2.3h-1.1c-0.5,1-1.3,1.9-2.5,2.5c-0.1-0.2-0.4-0.5-0.6-0.7
		c0.9-0.4,1.5-1,2-1.8h-1.7v-0.9C39.3,116.9,41.6,116.9,41.6,116.9z M41.3,120.1c-0.2,0.8-0.6,1.7-1.3,2.3l-0.7-0.5
		c0.6-0.5,1-1.3,1.2-2.1L41.3,120.1z M41.8,118.8h0.9v3.7c0,0.4-0.1,0.7-0.4,0.8c-0.3,0.1-0.7,0.1-1.4,0.1c0-0.2-0.1-0.6-0.2-0.8
		c0.4,0,0.9,0,1,0s0.2,0,0.2-0.1L41.8,118.8L41.8,118.8z M43.6,120c0.3,0.6,0.6,1.5,0.7,2.1l-0.7,0.3c-0.1-0.6-0.4-1.4-0.7-2.1
		L43.6,120z M44.9,119.6c0.6,0.8,1.1,1.8,1.4,2.4l-0.8,0.4c-0.2-0.7-0.8-1.7-1.3-2.5L44.9,119.6z"/>
	<path class="st1" d="M51.5,116.2c0,0,0,0.3,0,0.5c-0.1,4.3-0.1,5.8-0.5,6.2c-0.2,0.3-0.4,0.4-0.7,0.4s-0.7,0-1.2,0
		c0-0.3-0.1-0.7-0.3-0.9c0.4,0,0.8,0,1,0s0.2,0,0.3-0.2c0.2-0.3,0.3-1.6,0.4-5.2h-1.3c-0.1,2.7-0.4,5-1.7,6.4
		c-0.1-0.2-0.5-0.5-0.7-0.7c1.2-1.3,1.5-3.4,1.5-5.8H47V116h1.3c0-0.5,0-1.1,0-1.7h0.9c0,0.6,0,1.1,0,1.7h2.3V116.2z M55.7,115.5
		v7.7h-0.9v-0.6h-1.6v0.7h-0.9v-7.8C52.3,115.5,55.7,115.5,55.7,115.5z M54.8,121.7v-5.3h-1.6v5.3H54.8z"/>
	<path class="st1" d="M60.6,116.5c-0.2,0.3-0.3,0.7-0.5,1h4.7v5c0,0.5-0.1,0.8-0.5,0.9c-0.3,0.1-0.9,0.1-1.7,0.1
		c0-0.2-0.2-0.6-0.3-0.9c0.6,0,1.2,0,1.4,0s0.2,0,0.2-0.2v-0.9h-4c-0.1,0.7-0.5,1.5-1,2c-0.1-0.2-0.5-0.6-0.7-0.7
		c0.8-0.8,0.9-1.9,0.9-2.8v-1.2c-0.4,0.5-0.9,1-1.4,1.3c-0.1-0.2-0.4-0.5-0.6-0.7c1.1-0.7,1.9-1.8,2.6-3h-2.3v-0.9H60
		c0.2-0.4,0.3-0.8,0.4-1.2l0.9,0.2c-0.1,0.3-0.2,0.7-0.4,1h5v0.9L60.6,116.5L60.6,116.5z M63.9,120.8v-0.9H60v0.2c0,0.2,0,0.5,0,0.7
		C60,120.8,63.9,120.8,63.9,120.8z M63.9,118.3H60v0.9h3.9V118.3z"/>
	<path class="st1" d="M69,117c-0.4,0.9-1,1.9-1.5,2.5c-0.1-0.2-0.4-0.5-0.6-0.6c0.5-0.6,1-1.4,1.3-2.2L69,117z M70.6,122.5
		c-0.2-0.4-0.5-0.9-0.9-1.4c-0.5,0.9-1.2,1.6-2,2.2c-0.1-0.2-0.4-0.5-0.6-0.7c0.9-0.5,1.6-1.3,2.1-2.2c-0.4-0.4-0.8-0.9-1.1-1.2
		l0.7-0.5c0.3,0.3,0.6,0.6,0.9,0.9c0.2-0.4,0.3-0.8,0.4-1.2l0.9,0.2c-0.2,0.7-0.4,1.2-0.7,1.8c0.5,0.6,1,1.2,1.2,1.7L70.6,122.5z
		 M71.8,116.6h-4.6v-0.8h2.1c-0.1-0.3-0.4-0.8-0.6-1.1l0.8-0.3c0.3,0.4,0.6,0.8,0.7,1.2l-0.6,0.2h2.3v0.8H71.8z M75.6,117
		c-0.2,1.6-0.6,2.9-1.2,4c0.5,0.8,1.1,1.4,1.9,1.8c-0.2,0.2-0.5,0.5-0.6,0.8c-0.7-0.4-1.3-1-1.8-1.8c-0.6,0.7-1.3,1.3-2.2,1.8
		c-0.1-0.2-0.4-0.5-0.6-0.7c1-0.5,1.8-1.1,2.4-1.9c-0.3-0.6-0.6-1.3-0.8-2.1c-0.2,0.3-0.3,0.5-0.5,0.8c-0.1-0.2-0.4-0.6-0.6-0.7
		c0.1-0.1,0.1-0.2,0.2-0.3l-0.6,0.3c-0.2-0.5-0.7-1.3-1.1-1.8l0.7-0.4c0.4,0.5,0.9,1.2,1.1,1.7c0.6-1.1,1-2.5,1.3-4.1l0.9,0.1
		c-0.1,0.6-0.2,1.1-0.3,1.6h2.6v0.9C76.4,117,75.6,117,75.6,117z M73.2,117c-0.1,0.2-0.1,0.4-0.2,0.7c0.2,0.9,0.5,1.7,0.8,2.4
		c0.4-0.9,0.7-1.9,0.8-3.1H73.2z"/>
	<path class="st1" d="M85.5,117.8c-0.4,1.3-1,2.4-1.7,3.4c0.3,0.8,0.7,1.4,1.1,1.4c0.3,0,0.4-0.5,0.4-1.8c0.2,0.2,0.5,0.4,0.8,0.5
		c-0.1,1.8-0.5,2.2-1.3,2.2c-0.7,0-1.3-0.6-1.8-1.5c-0.6,0.6-1.2,1.1-1.9,1.5c-0.1-0.2-0.5-0.6-0.7-0.8c0.8-0.5,1.6-1,2.2-1.8
		c-0.4-1.1-0.6-2.6-0.7-4.1h-3.2v1.2h2.5v0.4c0,2.2-0.1,3-0.3,3.3c-0.2,0.2-0.4,0.3-0.6,0.3s-0.7,0-1.2,0c0-0.3-0.1-0.6-0.2-0.9
		c0.4,0,0.8,0,1,0c0.1,0,0.2,0,0.3-0.1c0.1-0.1,0.2-0.7,0.2-2.2h-1.6c0,1.4-0.2,3.4-1.1,4.7c-0.2-0.2-0.6-0.5-0.8-0.6
		c0.8-1.2,0.9-2.9,0.9-4.2v-2.8h4.1c0-0.5-0.1-1.1-0.1-1.6h1c0,0.5,0,1.1,0,1.6h1.9c-0.4-0.3-1-0.8-1.6-1l0.6-0.6
		c0.6,0.3,1.3,0.8,1.7,1.1l-0.5,0.5h1v0.9h-3.1c0.1,1.2,0.3,2.3,0.5,3.2c0.5-0.7,0.8-1.6,1.1-2.5L85.5,117.8z"/>
	<path class="st1" d="M93.4,114.5c0.5,1.5,1.5,2.9,2.8,3.6c-0.2,0.2-0.5,0.6-0.7,0.8c-0.3-0.2-0.6-0.5-0.9-0.7c0,0.1,0,0.1,0,0.2
		c-0.1,3-0.3,4.2-0.6,4.6c-0.2,0.3-0.5,0.4-0.8,0.4s-0.9,0-1.5,0c0-0.3-0.1-0.7-0.3-0.9c0.6,0.1,1.2,0.1,1.4,0.1
		c0.2,0,0.3,0,0.4-0.1c0.2-0.2,0.4-1.2,0.5-3.5h-2.3c-0.3,1.9-0.9,3.7-3.5,4.6c-0.1-0.2-0.4-0.6-0.6-0.8c2.3-0.8,2.8-2.2,3.1-3.8
		h-1.9v-0.7c-0.3,0.3-0.5,0.6-0.8,0.8c-0.2-0.2-0.6-0.5-0.8-0.7c1.1-0.8,2-2.2,2.5-3.7l1,0.2c-0.4,1.2-1,2.3-1.7,3.1h5.8
		c-0.7-0.8-1.3-1.7-1.7-2.7h-1.7v-0.9L93.4,114.5L93.4,114.5z"/>
	<path class="st1" d="M97.3,118.1c0-0.5,0.3-0.8,0.8-0.8s0.8,0.3,0.8,0.8s-0.3,0.8-0.8,0.8S97.3,118.6,97.3,118.1z M97.3,122.1
		c0-0.5,0.3-0.8,0.8-0.8s0.8,0.3,0.8,0.8s-0.3,0.8-0.8,0.8S97.3,122.5,97.3,122.1z"/>
	<path class="st1" d="M107.8,120.6h1.3v0.7h-1.3v1.2c0,0.4-0.1,0.7-0.4,0.8c-0.3,0.1-0.8,0.1-1.6,0.1c0-0.2-0.2-0.6-0.3-0.8
		c0.5,0,1,0,1.2,0c0.1,0,0.2,0,0.2-0.2v-1.2h-2.6c0.4,0.4,0.9,0.8,1.1,1.2l-0.7,0.5c-0.2-0.4-0.8-0.9-1.2-1.4l0.5-0.3h-1.5v-0.7h4.4
		V120c-1.5,0-3,0.1-4.1,0.1l-0.1-0.7c0.7,0,1.7,0,2.7,0v-0.5h-2.3v-2.7h2.3v-0.5h-2.7v-0.6c-0.2,0.5-0.5,1.1-0.8,1.6v6.7H101V118
		c-0.3,0.4-0.6,0.7-0.9,1c-0.1-0.2-0.4-0.7-0.5-0.9c0.9-0.9,1.8-2.4,2.4-3.8l0.9,0.3c-0.1,0.1-0.1,0.3-0.2,0.4h2.6v-0.6h0.9v0.6h2.7
		v0.7h-2.7v0.5h2.3v2.7h-0.6c0.4,0.4,0.9,0.8,1.1,1.1l-0.7,0.4c-0.1-0.1-0.2-0.3-0.3-0.4h-0.4v0.6H107.8z M104,117.3h1.4v-0.5H104
		V117.3z M105.4,118.4v-0.5H104v0.5H105.4z M106.4,116.8v0.5h1.4v-0.5H106.4z M107.8,118.4v-0.5h-1.4v0.5H107.8z M106.4,119.4h1.2
		c-0.2-0.2-0.3-0.3-0.5-0.4l0.1-0.1h-0.9v0.5H106.4z"/>
	<path class="st1" d="M111.2,120.9v0.9h-0.9v-6.9h3.3v6H111.2z M111.2,115.8v1.7h1.6v-1.7H111.2z M112.8,120v-1.7h-1.6v1.7H112.8z
		 M118.8,122.4c0,0.5-0.1,0.8-0.5,0.9c-0.3,0.1-0.9,0.2-1.7,0.2c0-0.2-0.2-0.7-0.3-0.9c0.6,0,1.2,0,1.4,0c0.2,0,0.2-0.1,0.2-0.2v-2
		h-2.7c-0.2,1.2-0.7,2.4-1.9,3.2c-0.1-0.2-0.5-0.5-0.7-0.6c1.7-1.2,1.8-3.1,1.8-4.6v-3.5h4.3L118.8,122.4L118.8,122.4z M117.9,119.5
		V118h-2.5v0.3c0,0.4,0,0.8,0,1.2H117.9z M115.4,115.6v1.5h2.5v-1.5H115.4z"/>
	<path class="st1" d="M128.7,119.6c-0.3,1-0.8,1.7-1.4,2.3c0.5,0.3,1.2,0.6,1.9,0.8c-0.2,0.2-0.4,0.5-0.5,0.8
		c-0.8-0.2-1.5-0.6-2.1-1c-0.6,0.5-1.3,0.8-2.1,1c-0.1-0.2-0.3-0.5-0.5-0.7v0.6h-0.7v-0.5h-2.4v0.7h-0.7v-6.8h1v-1.2H120v-0.8h4.1
		v0.8H123v1.2h1.1v6.1c0.7-0.2,1.3-0.4,1.9-0.8c-0.2-0.2-0.4-0.5-0.6-0.7c-0.2,0.2-0.3,0.3-0.5,0.5c-0.1-0.2-0.4-0.5-0.6-0.6
		c0.2-0.2,0.5-0.4,0.7-0.6c-0.1-0.3-0.3-0.5-0.4-0.8l0.7-0.3c0.1,0.2,0.1,0.4,0.2,0.5c0.2-0.4,0.4-0.8,0.6-1.3l0.8,0.1
		c-0.1,0.2-0.1,0.5-0.2,0.7h1.5h0.1L128.7,119.6z M123.4,122.1v-2.5h-0.1h-0.4c-0.4,0-0.5-0.1-0.5-0.6v-1.4H122v0.7
		c0,0.6-0.1,1.3-0.7,1.8c-0.1-0.1-0.2-0.2-0.3-0.3v2.3H123.4z M120.9,117.5v2.2c0.4-0.5,0.5-1,0.5-1.5v-0.7H120.9z M121.3,120.5h1.7
		v0.7h-1.7V120.5z M121.9,116.7h0.5v-1.2h-0.5V116.7z M123.4,117.5h-0.5v1.4c0,0.1,0,0.1,0.1,0.1h0.3c0.1,0,0.1,0,0.1,0V117.5z
		 M126.2,116.9c-0.1,1.1-0.5,1.8-1.6,2.2c-0.1-0.2-0.3-0.5-0.5-0.6c0.9-0.3,1.2-0.8,1.3-1.5c-0.6,0-0.7,0.1-0.9,0.1
		c0-0.2-0.2-0.6-0.3-0.8c0.2,0,0.3-0.2,0.5-0.4c0.2-0.2,0.9-0.9,1.3-1.6l0.9,0.3c-0.4,0.6-0.9,1.2-1.4,1.6l2.1-0.1
		c-0.2-0.2-0.4-0.5-0.6-0.7l0.7-0.4c0.5,0.5,1.1,1.3,1.4,1.7l-0.7,0.4c-0.1-0.1-0.2-0.2-0.3-0.4h-0.6v0.9c0,0.2,0,0.3,0.2,0.3h0.7
		c0.2,0,0.4,0,0.5,0c0,0.2,0,0.5,0.1,0.7c-0.1,0-0.4,0.1-0.6,0.1h-0.8c-0.8,0-0.9-0.3-0.9-1v-0.9L126.2,116.9z M126.2,120.1
		c-0.1,0.2-0.2,0.3-0.3,0.5c0.2,0.3,0.5,0.6,0.8,0.8c0.4-0.4,0.7-0.8,1-1.3H126.2z"/>
	<path class="st1" d="M132.5,114.7h0.8l-2.8,9.8h-0.8L132.5,114.7z"/>
	<path class="st1" d="M135.9,116.3h-2.2v-1h5.5v1H137v6.4h-1.2L135.9,116.3L135.9,116.3z"/>
	<path class="st1" d="M139.8,119c0-2.4,1.3-3.8,3.2-3.8s3.2,1.4,3.2,3.8s-1.3,3.8-3.2,3.8C141.2,122.9,139.8,121.4,139.8,119z
		 M145.1,119c0-1.7-0.8-2.8-2-2.8s-2,1-2,2.8c0,1.7,0.8,2.8,2,2.8S145.1,120.7,145.1,119z"/>
	<path class="st1" d="M147.4,119.1c0-2.4,1.5-3.8,3.3-3.8c0.9,0,1.6,0.4,2.1,0.9l-0.6,0.7c-0.4-0.4-0.8-0.7-1.4-0.7
		c-1.3,0-2.1,1.1-2.1,2.8c0,1.7,0.8,2.8,2.1,2.8c0.7,0,1.2-0.3,1.6-0.8l0.6,0.7c-0.6,0.7-1.3,1.1-2.3,1.1
		C148.8,122.9,147.4,121.5,147.4,119.1z"/>
	<path class="st1" d="M153.5,119c0-2.4,1.3-3.8,3.2-3.8s3.2,1.4,3.2,3.8s-1.3,3.8-3.2,3.8S153.5,121.4,153.5,119z M158.7,119
		c0-1.7-0.8-2.8-2-2.8s-2,1-2,2.8c0,1.7,0.8,2.8,2,2.8S158.7,120.7,158.7,119z"/>
	<path class="st1" d="M161.4,115.4h2.2c1.6,0,2.8,0.6,2.8,2.2s-1.2,2.3-2.8,2.3h-1.1v2.8h-1.2v-7.3H161.4z M163.6,119
		c1.2,0,1.7-0.5,1.7-1.4c0-1-0.6-1.3-1.8-1.3h-1v2.7C162.5,119,163.6,119,163.6,119z"/>
	<path class="st1" d="M167.9,115.4h1.2v3h3.1v-3h1.2v7.4h-1.2v-3.3h-3.1v3.3h-1.2V115.4z"/>
	<path class="st1" d="M175.3,115.4h4.3v1h-3.2v2h2.7v1h-2.7v2.4h3.3v1h-4.5L175.3,115.4L175.3,115.4z"/>
	<path class="st1" d="M181.3,115.4h2.4c1.5,0,2.7,0.5,2.7,2.1c0,1.1-0.6,1.8-1.5,2.1l1.8,3.1h-1.3l-1.7-3h-1.2v3h-1.2V115.4z
		 M183.6,118.8c1.1,0,1.6-0.4,1.6-1.3s-0.6-1.2-1.6-1.2h-1.1v2.5H183.6z"/>
	<path class="st1" d="M189,119.9l-2.2-4.6h1.2l0.8,2c0.2,0.5,0.4,1.1,0.7,1.6l0,0c0.2-0.6,0.5-1.1,0.7-1.6l0.9-2h1.2l-2.2,4.6v2.8
		H189V119.9z"/>
	<path class="st1" d="M193.3,115.4h1.2v6.4h3.1v1h-4.3V115.4z"/>
	<path class="st1" d="M202.6,115.4h1.3l2.4,7.4h-1.2l-0.6-2.1H202l-0.6,2.1h-1.2L202.6,115.4z M202.3,119.7h2l-0.3-1
		c-0.2-0.8-0.5-1.6-0.7-2.4l0,0c-0.2,0.8-0.4,1.6-0.7,2.4L202.3,119.7z"/>
	<path class="st1" d="M206.9,119.1c0-2.4,1.5-3.8,3.3-3.8c0.9,0,1.6,0.4,2.1,0.9l-0.6,0.7c-0.4-0.4-0.8-0.7-1.4-0.7
		c-1.3,0-2.1,1.1-2.1,2.8c0,1.7,0.8,2.8,2.1,2.8c0.7,0,1.2-0.3,1.6-0.8l0.6,0.7c-0.6,0.7-1.3,1.1-2.3,1.1
		C208.3,122.9,206.9,121.5,206.9,119.1z"/>
	<path class="st1" d="M213.7,115.4h4.3v1h-3.2v2h2.7v1h-2.7v2.4h3.3v1h-4.5L213.7,115.4L213.7,115.4z"/>
	<path class="st1" d="M221.2,116.3H219v-1h5.5v1h-2.2v6.4h-1.2L221.2,116.3L221.2,116.3z"/>
	<path class="st1" d="M226.9,115.4h1.3l2.4,7.4h-1.2l-0.6-2.1h-2.6l-0.6,2.1h-1.2L226.9,115.4z M226.5,119.7h2l-0.3-1
		c-0.2-0.8-0.5-1.6-0.7-2.4l0,0c-0.2,0.8-0.4,1.6-0.7,2.4L226.5,119.7z"/>
	<path class="st1" d="M232.4,116.3h-2.2v-1h5.5v1h-2.2v6.4h-1.2L232.4,116.3L232.4,116.3z"/>
	<path class="st1" d="M237,115.4h4.3v1h-3.2v2h2.7v1h-2.7v2.4h3.3v1H237V115.4z"/>
</g>
</svg>
