<?xml version="1.0" encoding="utf-8"?>
<!-- Generator: Adobe Illustrator 26.0.3, SVG Export Plug-In . SVG Version: 6.00 Build 0)  -->
<svg version="1.1" id="Layer_1" xmlns="http://www.w3.org/2000/svg" xmlns:xlink="http://www.w3.org/1999/xlink" x="0px" y="0px"
	 viewBox="0 0 946.7 102.7" style="enable-background:new 0 0 946.7 102.7;" xml:space="preserve">
<style type="text/css">
	.st0{fill:#FFFFFF;}
</style>
<g>
	<path class="st0" d="M290.2,13.5c10.7,1.4,7.5,9.2,3.5,6.4c-0.4-2.2-2.2-4.6-3.9-6.1L290.2,13.5z M302.8,11.6
		c-1.7,5.5-4.7,15.5-5.3,17.9c-0.3,1.4-0.6,2.9-0.6,4.1c0.1,2.3,1.7,4.2,1.5,8.1c-0.1,2.2-1.3,3.5-3.2,3.5c-1,0-1.8-0.7-2.1-2.3
		c0.8-4.7,0.5-8.8-0.5-9.5c-0.6-0.5-1.3-0.6-2.3-0.7v-0.9h2c0.6,0,0.8,0,1.3-0.9c0.9-1.7,0.9-1.7,8.4-19.5L302.8,11.6z M293.4,3.3
		c11.4,1.2,8.5,9.2,4.3,6.8c-0.7-2.3-2.9-4.9-4.7-6.5L293.4,3.3z M320.2,16.9c3.1,3.8,8.5,6.7,13.3,8.1l-0.1,0.5
		c-1.6,0.4-2.8,1.7-3.3,3.8c-4.9-2.6-8.7-6.8-11.1-12.3h-4.6c-3,5.8-8.1,10.1-15.8,13.1l-0.3-0.6C304,26.2,307.7,22,310,17h-7.4
		l-0.4-1.3h8.3c0.9-2.4,1.6-4.9,1.9-7.6h-8.6l-0.2-1.5h19.2l2.5-3.3c0,0,2.9,2.3,4.6,3.9c-0.2,0.5-0.7,0.8-1.3,0.8h-11
		c-0.6,2.8-1.4,5.3-2.4,7.6h10.4l2.6-3.4c0,0,2.9,2.3,4.6,4c-0.1,0.5-0.6,0.7-1.2,0.7C331.6,16.9,320.2,16.9,320.2,16.9z
		 M308.3,28.5c2.3,13.8-9.8,11.8-6.2,7.5c2.4-1,4.8-3.5,5.5-7.5H308.3z M312.1,23.1l5.7,0.6c-0.1,0.6-0.6,1-1.6,1.2v15.5
		c0,3.1-0.6,4.8-5.7,5.3c-0.1-1.3-0.3-2.3-1-2.9c-0.6-0.7-1.7-1.1-3.9-1.5v-0.7c0,0,4.6,0.3,5.6,0.3c0.7,0,1-0.2,1-0.8L312.1,23.1
		L312.1,23.1z M318.7,29.2c8.8,5.7,4.7,13.2,1.4,9.8c0.3-3.1-0.8-6.9-2-9.5L318.7,29.2z M323.9,28.2c12.3,5,8.9,14.2,4.9,10.9
		c-0.3-3.5-2.9-7.9-5.5-10.6L323.9,28.2z"/>
	<path class="st0" d="M354.7,10.4l4.3,3.7c-0.4,0.4-1,0.7-1.9,0.9c-0.4,17.3-1.1,25.1-3.5,27.6c-1.5,1.6-3.4,2.3-5.7,2.3
		c0-1.5-0.2-2.5-0.8-3.2c-0.7-0.7-2.2-1.2-4-1.6v-0.7c1.7,0.2,4.3,0.4,5.3,0.4c0.9,0,1.2-0.2,1.7-0.6c1.6-1.5,2.2-9.8,2.5-24.9h-5.3
		c-0.5,11.1-2.3,22.6-11.5,31.3l-0.7-0.6c6.3-9.1,7.6-19.9,7.9-30.6h-6.3l-0.4-1.3h6.8c0.1-3.3,0-6.6,0-9.8l6.1,0.6
		c-0.1,0.7-0.5,1.1-1.7,1.3c0,2.6,0,5.2-0.1,7.9h4.7L354.7,10.4z M378.5,11.9c-0.3,0.4-1.1,0.7-2,1v29.4c-0.1,0.4-2.2,1.6-3.8,1.6
		H372v-4.4h-6.9V43c0,0.6-1.6,1.6-3.5,1.6h-0.7V8.7l4.4,2h6.2l2.3-2.6L378.5,11.9z M372,38.2V12h-6.9v26.2H372z"/>
	<path class="st0" d="M385.2,13.6c-1,1-2,1.9-2.9,2.7l-0.6-0.5c2.3-3.1,4.6-8,5.8-13l5,1.8c-0.2,0.6-0.8,0.9-1.7,0.9
		c-0.6,1.1-1.1,2.2-1.8,3.3l0.6,0.2h8.3l1.9-2.3c0,0,2.2,1.7,3.5,2.9c-0.1,0.5-0.5,0.7-1.1,0.7h-5.7v4h1.3l1.7-2.1
		c0,0,1.6,1.2,2.7,2.3c1.9-3,3.6-7.3,4.6-11.7l5.1,1.7c-0.1,0.6-0.7,1-1.7,0.9c-0.5,1.1-1.1,2.3-1.7,3.3l0.7,0.3h9.2l1.9-2.3
		c0,0,2.2,1.7,3.6,2.9c-0.1,0.5-0.6,0.7-1.2,0.7h-6.2v4h1.6l1.5-2.3c0,0,2,1.5,3.2,2.8c-0.1,0.5-0.5,0.7-1.2,0.7h-5.3v4.1h1.6
		l1.7-2.2c0,0,2,1.5,3.2,2.8c-0.1,0.5-0.6,0.7-1.2,0.7h-5.3v4h2.6l1.9-2.5c0,0,2.3,1.7,3.7,3.1c-0.1,0.5-0.6,0.7-1.2,0.7h-14.9v0.5
		c0,0.3-1.2,1.2-3.1,1.2h-0.6V13.6c-0.8,0.9-1.7,1.7-2.6,2.3l-0.6-0.4h-0.2h-4.9v4.1h1.3l1.7-2.1c0,0,1.9,1.5,3.1,2.7
		c-0.1,0.5-0.6,0.7-1.1,0.7h-4.9v4h2.1l1.9-2.4c0,0,2.2,1.7,3.5,3c-0.1,0.5-0.6,0.7-1.2,0.7h-13.7v0.7c0,0.3-1.2,1.2-3.1,1.2h-0.6
		V13.6H385.2z M419.2,30.9c-0.4,0.4-0.9,0.6-2.2,0.6c-2.5,2.7-5.5,5-9,6.9c5.3,1.4,11.1,2.1,17.1,2.4v0.6c-1.9,0.5-3.1,2-3.6,4.1
		c-6.7-0.9-12.9-2.4-18-4.9c-6.1,2.5-13.2,4.1-21.1,4.8l-0.3-0.7c6.6-1.2,12.9-3.2,18.3-5.8c-3.5-2.1-6.4-4.9-8.6-8.3H384l-0.4-1.3
		h28.6l2.9-2.4L419.2,30.9z M388.9,10.3v4h3.9v-4H388.9z M392.9,15.5H389v4.1h3.9V15.5z M392.9,21H389v4h3.9V21z M391.7,2.8
		c8.8,1.4,5.5,7.8,2.3,5.3c-0.2-1.7-1.5-3.8-2.7-5L391.7,2.8z M393,30.7c2.6,2.8,6.3,4.9,10.7,6.5c3.2-1.9,5.9-4.1,8-6.5H393z
		 M408.4,10.3v4h4.3v-4H408.4z M412.7,15.5h-4.3v4.1h4.3V15.5z M412.7,21h-4.3v4h4.3V21z M411.5,2.7c8.8,1.4,5.5,7.8,2.3,5.3
		c-0.1-1.7-1.4-3.8-2.7-5L411.5,2.7z"/>
	<path class="st0" d="M465.5,39.1c0,0,3.3,2.4,5.2,4.2c-0.1,0.5-0.6,0.7-1.3,0.7h-41.1l-0.4-1.3h19v-5.2h-15l-0.4-1.3h15.4v-4.7
		h-8.6v0.9c0,0.4-1.9,1.4-3.7,1.4H434V15.9l4.7,2h8.3v-4.3h-17.8l-0.4-1.3h18.1v-4c-5,0.4-10.3,0.6-15.2,0.6L431.6,8
		c10.2-0.9,23-3.2,29.8-5.2l4,4c-0.5,0.4-1.4,0.4-2.7-0.2c-3.2,0.5-7.1,1-11.3,1.3v4.3h11.1l2.7-3.2c0,0,3,2.2,4.9,3.8
		c-0.1,0.5-0.6,0.7-1.2,0.7h-17.4v4.3h8.3l2.2-2.4l4.6,3.5c-0.3,0.4-1,0.7-1.9,0.9v11.9c0,0.3-2.2,1.2-3.7,1.2h-0.7v-1.7h-8.8v4.7
		h9.2l2.5-3.1c0,0,2.9,2.1,4.7,3.7c-0.1,0.5-0.6,0.7-1.2,0.7h-15.1v5.2h11.3L465.5,39.1z M438.3,19.1v4.7h8.6v-4.7
		C446.9,19.1,438.3,19.1,438.3,19.1z M446.9,30v-4.8h-8.6V30H446.9z M451.4,19.1v4.7h8.8v-4.7C460.2,19.1,451.4,19.1,451.4,19.1z
		 M460.2,30v-4.8h-8.8V30H460.2z"/>
	<path class="st0" d="M511.1,7c0,0,3.1,2.3,5.1,4c-0.1,0.5-0.6,0.7-1.3,0.7h-22.3c-1.1,2-2.3,4-3.8,6l1.2,0.4h14.4l2.2-2.5l4.9,3.7
		c-0.4,0.5-1.1,0.9-2.2,1.1V40c0,3.1-0.7,5-6.2,5.5c-0.1-1.4-0.4-2.5-1.1-3.2s-1.8-1.2-4-1.6V40c0,0,4.9,0.3,5.9,0.3
		c0.8,0,1-0.3,1-1v-5.8h-16.1c-0.8,4.3-2.6,8.7-7.3,12L481,45c3.5-5.3,3.7-12.1,3.7-18.2v-4.4c-2.9,3-6.3,5.8-10.2,7.8l-0.4-0.5
		c6-4.7,10.5-11.5,13.5-18.2h-12.5l-0.3-1.3h13.4c1.1-2.6,2-5.3,2.6-7.8l6.4,1.9c-0.2,0.5-0.6,0.8-1.8,0.8c-0.6,1.7-1.4,3.3-2.2,5.1
		h15L511.1,7z M505,32.3v-5.8h-15.6V27c0,1.7,0,3.5-0.3,5.3H505z M489.3,19.5v5.7h15.6v-5.7H489.3z"/>
	<path class="st0" d="M531.9,16c-0.2,0.5-0.8,0.9-1.7,0.7c-2.6,4.5-6.2,7.8-10,9.8l-0.6-0.5c2.7-2.8,5.3-7.4,6.9-12.3L531.9,16z
		 M539.5,23.4c-0.2,0.6-0.8,1-1.9,0.9c-0.5,1.7-1.1,4-2.4,6.6c7.4,6.3,5.1,12.3,1.2,9.8c-0.7-1.9-2-4-3.5-6
		c-2.5,3.5-6.3,7.2-12.5,10.7l-0.6-0.7c5.4-4.4,8.7-8.8,10.7-12.8c-2-2.4-4.3-4.7-6.3-6.5l0.5-0.4c2.9,1.2,5.2,2.4,7.2,3.7
		c1-2.8,1.5-5.2,1.7-7.1L539.5,23.4z M520.4,12.7l-0.4-1.3h17.9l2.5-3.3c0,0,2.9,2.3,4.6,3.8c-0.1,0.5-0.6,0.7-1.2,0.7h-23.4V12.7z
		 M526.6,3.1c11.8,1.6,8.5,10.5,4,7.6c-0.5-2.6-2.5-5.5-4.4-7.3L526.6,3.1z M533.2,14.1c12.2,1.9,9.8,10.7,5.4,8.2
		c-0.8-2.8-3.5-6-5.8-7.9L533.2,14.1z M559.6,14.5c-0.9,7.1-2.6,13.4-6.1,18.7c2.5,3.5,5.7,6.4,9.9,8.6l-0.1,0.5
		c-2,0.4-3.3,1.4-3.9,3.4c-3.5-2.5-6.1-5.7-8-9.5c-3.3,3.9-7.6,7.1-13.6,9.6l-0.4-0.5c5.7-3.5,9.7-7.7,12.4-12.6
		c-1.5-3.9-2.5-8.3-3.2-13c-1.4,2.9-3,5.5-4.8,7.7l-0.6-0.4c2.6-6.2,4.7-15.3,5.5-24l6.3,1.3c-0.1,0.6-0.7,1.1-1.7,1.1
		c-0.6,2.8-1.3,5.4-2.2,7.9h7.1l2.5-3.3c0,0,2.9,2.3,4.6,3.9c-0.1,0.5-0.6,0.7-1.2,0.7h-2.5V14.5z M548.8,14.5
		c-0.4,1.2-0.9,2.3-1.3,3.3c0.9,4.3,2.2,8.2,4,11.7c1.9-4.6,3-9.6,3.5-15H548.8z"/>
	<path class="st0" d="M607.3,40.4c1.6,2.3,1.7,3.4,1.2,4c-1.6,1.7-5.1,0.1-7.2-1.6c-2.4-1.9-4.5-4.1-6.1-6.7
		c-3.6,3.7-8.2,6.9-14.1,9.2l-0.4-0.6c5.4-3,9.6-7.1,12.8-11.6c-2.8-5.6-4.1-12.2-4.7-19.6H575V21h6.5l2.2-2.2l4.1,3.4
		c-0.3,0.4-0.8,0.6-1.7,0.7c-0.2,9.6-0.9,13.4-2.8,15c-1.2,0.9-2.7,1.4-4.6,1.4c0-1.1-0.1-2.2-0.7-2.8c-0.5-0.6-1.6-1-2.9-1.3v-0.7
		c1.2,0.1,3.2,0.3,4,0.3c0.6,0,1-0.1,1.3-0.4c0.8-0.8,1.3-4.5,1.5-12.1H575c0,7.3-0.6,17.1-8.8,23.5l-0.5-0.5
		c4.5-6.9,4.9-15.5,4.9-23.2V10.3l5.1,1.9h13.1c-0.2-3-0.3-6.1-0.3-9.3l6,0.6c-0.1,0.6-0.5,1.2-1.6,1.3c0,2.5,0,4.9,0.1,7.4h8.3
		l2.7-3.4c0,0,3,2.3,4.8,3.9c-0.1,0.5-0.6,0.7-1.3,0.7h-14.4c0.4,5.5,1.3,10.7,3.1,15.2c1.9-3.6,3.3-7.4,4.2-11.1l6.2,2
		c-0.2,0.6-0.6,0.9-1.8,0.8c-1.5,4.2-3.5,8.4-6.5,12.3c1.5,2.3,3.3,4.4,5.6,5.9c0.8,0.6,1.1,0.6,1.6-0.2c0.7-1.1,1.7-3.5,2.5-5.5
		l0.6,0.1L607.3,40.4z M595.6,4c10.8,0,8.8,7.6,4.8,5.7c-0.8-1.9-3.2-4.1-5.2-5.3L595.6,4z"/>
	<path class="st0" d="M631,7.6c-0.2,0.5-0.6,0.8-1.7,0.7c-3.1,5.8-8.8,12.5-16.9,16.1l-0.4-0.5c6.3-4.8,10.9-12.6,13-18.8L631,7.6z
		 M643.2,19l4.3,3.7c-0.3,0.4-0.9,0.6-1.9,0.8c-0.5,11.1-1.6,17.8-3.9,19.9c-1.5,1.3-3.3,1.9-5.9,1.9c0-1.3-0.2-2.4-1-3
		c-0.8-0.7-2.9-1.3-5-1.7v-0.7c2.2,0.2,5.9,0.5,7,0.5c0.9,0,1.2-0.1,1.7-0.5c1.4-1.2,2.2-7.6,2.7-17h-9.3
		c-0.8,7.7-3.3,16.4-17.9,22.6l-0.5-0.7c11.6-7.1,13.2-15.2,13.6-21.9H620l-0.4-1.3h21.2L643.2,19z M643.2,5.7
		c-0.5,0.6-1.9,0.9-3.5,1.1c2.3,4.9,8,9.8,15,12.1l-0.1,0.5c-1.7,0.5-3.2,2-3.7,3.7c-6.1-3.8-10.6-9.6-12.6-16.6h-5.1l-0.4-1.3h4.4
		l1.5-2.4L643.2,5.7z"/>
</g>
<g>
	<path class="st0" d="M36.7,83.7c0,0,2.9,2.2,4.8,3.8c-0.1,0.5-0.6,0.7-1.2,0.7h-18c-1.4,6.1-5.6,10.3-21.3,13.1l-0.3-0.8
		c11.6-3.3,15.4-7.1,16.8-12.3H2.4L2,86.9h15.6c0.3-1.6,0.4-3.3,0.5-5.1l6.3,0.5c-0.1,0.6-0.6,1.1-1.6,1.2c-0.1,1.2-0.3,2.3-0.4,3.4
		H34L36.7,83.7z M18.7,80v-5.4H5.7l-0.4-1.3h13.3v-5.1H3.2l-0.4-1.3h21.5c1.1-2.2,2.2-5.2,2.9-7.5l6,1.5c-0.2,0.5-0.7,0.9-1.7,0.9
		c-1.4,1.6-3.7,3.5-5.8,5.1h7.5l2.6-3.2c0,0,2.9,2.2,4.6,3.7c-0.1,0.5-0.6,0.7-1.2,0.7H23.2v5.1h7.4l2.4-3c0,0,2.7,2,4.5,3.6
		c-0.1,0.5-0.6,0.7-1.2,0.7h-13V80h11.1l2.6-3.2c0,0,2.9,2.2,4.7,3.8c-0.1,0.5-0.6,0.7-1.2,0.7H1.2L0.8,80H18.7z M10.3,59.7
		c10.7,1.5,6.9,9.4,3,6.4C13,63.9,11.4,61.5,10,60L10.3,59.7z M24.3,89.9c19.1,2.6,18.6,12.8,13.4,11.1c-2.8-3.7-9.1-8.2-13.7-10.6
		L24.3,89.9z"/>
	<path class="st0" d="M85.7,69.8c-0.4,0.4-1.2,0.9-2.2,1.1v28.4c-0.1,0.4-2.2,1.6-3.9,1.6h-0.7v-3.8H55.7v2.4c0,0.5-1.8,1.6-3.7,1.6
		h-0.8V66.6l4.9,2.1h5.9c0.8-2.7,1.7-6.6,2.1-9.3l6.7,1.6c-0.2,0.6-0.7,0.9-1.7,0.9c-1.4,1.9-3.6,4.7-5.7,6.8h14.9l2.4-2.7
		L85.7,69.8z M55.7,69.9V82h23.1V69.9H55.7z M78.8,95.8V83.3H55.7v12.5H78.8z"/>
	<path class="st0" d="M113.4,85c-2.6,0-4.6-2.1-4.6-4.6c0-2.6,2.1-4.6,4.6-4.6s4.6,2.1,4.6,4.6C118,82.9,115.9,85,113.4,85z"/>
	<path class="st0" d="M176.2,59.9c0,0,2.9,2.3,4.7,3.9c-0.1,0.5-0.6,0.7-1.2,0.7h-8.8c-1.2,1.8-2.7,3.8-4,5.1h6.1l2-2.2l4.1,3.2
		c-0.2,0.3-0.8,0.6-1.5,0.8v20.1c0,0.3-2.1,1.3-3.5,1.3h-0.7v-1.8h-10.6v0.9c0,0.5-1.7,1.4-3.5,1.4h-0.6V78
		c-0.3,0.2-0.8,0.3-1.6,0.4c-1.3,2-3.6,5.1-5.4,7l-0.5-0.3c0.5-2,1.2-5.2,1.6-7.5h-3.7v18.3c0,2.9-0.6,5-5.4,5.4
		c0-1.3-0.2-2.3-0.8-2.9c-0.6-0.7-1.5-1.1-3.4-1.4v-0.6c0,0,3.9,0.3,4.7,0.3c0.7,0,0.9-0.3,0.9-0.8V77.5h-6.4l-0.4-1.3h14.2l2.2-2.2
		l3.9,3.6v-9.8l4.3,1.8h2.5c0.2-1.4,0.4-3.4,0.5-5.1h-8.6l0.1,0.1c-0.3,0.4-0.9,0.5-1.8,0.5c-1.6,1.5-4.4,3.4-6.8,4.8
		c3.7,3,1.7,6.9-1.4,5.2c-0.9-2.7-3.9-5.9-6.6-7.6l0.4-0.4c2.8,0.4,4.9,1.1,6.4,1.9c1.1-1.5,2.3-3.3,3.2-4.8h-11.2l-0.4-1.3h11.8
		l2.3-2.3l3.2,3.1l-0.1-0.6h17.1L176.2,59.9z M153.1,100.7c3.9-2,8.3-5.7,10.3-8.5l4.9,3c-0.2,0.4-0.7,0.5-1.5,0.3
		c-2.8,2.3-8.6,4.8-13.5,5.8L153.1,100.7z M162.8,70.9v5.3h10.6v-5.3H162.8z M162.8,82.9h10.6v-5.4h-10.6V82.9z M173.4,89.6v-5.4
		h-10.6v5.4H173.4z M169.3,92.4c13.4,1.8,11.6,10.6,7.1,8.5c-1.4-2.8-4.8-6.2-7.5-8.1L169.3,92.4z"/>
	<path class="st0" d="M202.3,64.3c-0.4,0.4-0.9,0.5-2,0.6c-1.5,2.8-4.3,7.8-6.5,10.6c5,3.3,6.9,7.4,7,11c0,4.4-1.7,6.7-6.6,6.8
		c0-1.2-0.2-2.7-0.6-3.2c-0.4-0.5-1.2-0.8-2.3-0.9v-0.6h3.3c0.5,0,0.8-0.1,1.1-0.3c0.7-0.5,1.1-1.3,1.1-2.8c0-3.2-1.1-6.7-4.1-9.9
		c0.9-2.9,2.4-8.2,3.2-11.8h-5.3v36.1c0,0.3-1.3,1.4-3.3,1.4h-0.7V60.6l4.6,1.8h4.5l2.3-2.3L202.3,64.3z M222.5,64.9
		c0,0,2.8,2.2,4.5,3.9c-0.1,0.5-0.5,0.7-1.2,0.7h-14.5c-0.1,2.3-0.2,4.6-0.5,6.8h7.7l2.3-2.4l4.2,3.6c-0.3,0.4-0.9,0.6-1.8,0.8
		c-0.5,12.2-1.6,18.9-3.9,20.9c-1.4,1.3-3.2,1.9-5.6,1.9c0-1.3-0.2-2.4-0.9-3c-0.7-0.7-2.5-1.3-4.3-1.6l0-0.7c1.9,0.2,5,0.4,6,0.4
		c0.8,0,1.2-0.1,1.6-0.5c1.4-1.3,2.2-7.9,2.7-18.2h-8.3c-1.3,10.3-4.8,18.4-15.3,23.7l-0.4-0.5c9.8-8,11.5-18.4,11.6-31.3h-7.3
		l-0.4-1.3H220L222.5,64.9z M207.9,59.6c11.2,3,6.8,11.2,2.8,7.7c-0.1-2.5-1.6-5.5-3.2-7.3L207.9,59.6z"/>
	<path class="st0" d="M247.2,95.2c0,2.8-0.5,4.5-5,4.9c-0.1-1.2-0.4-2.2-0.9-2.7c-0.6-0.6-1.4-1-3.2-1.3v-0.7c0,0,3.7,0.3,4.5,0.3
		c0.8,0,0.9-0.3,0.9-0.9V80.6c-1.1,1.3-2.5,2.9-4.1,4.6c-0.1,0.5-0.4,1.1-0.8,1.3l-1.7-3c-0.4,6.2-1.6,12.7-5.8,17.8l-0.6-0.4
		c2.9-7.3,2.9-16.6,2.9-24.9V60.5l4.4,1.8h5.4l1.8-2.1l4,3.2c-0.3,0.3-0.9,0.7-1.7,0.9V95.2z M237.1,76c0,1.9,0,4-0.1,6.2
		c1.5-0.7,3.9-1.9,6.5-3.3v-4.5c-0.4,0.4-1,0.6-1.8,0.5c-1-1-2.9-2.1-4.7-2.9V76z M237.1,63.5v7c3.6-0.5,5.6,0.4,6.4,1.5v-8.5H237.1
		z M271.6,95.1c1.1,0.5,1.3,0.9,1.3,1.8c0,1.6-1.4,2.6-5.6,2.6h-2.1c-3.1,0-3.6-1-3.6-3.7v-31h-6.3V78c0,8-0.5,17.1-8.4,23.3
		l-0.6-0.4c4.5-6.4,4.9-14.6,4.9-22.9V61.6l4.7,1.8h5l2.2-2.6l4.3,3.7c-0.4,0.4-0.9,0.6-1.9,0.8v29c0,0.7,0.1,0.9,0.8,0.9h1.1
		c0.5,0,0.9,0,1.1,0c0.3,0,0.4-0.1,0.7-0.6c0.3-0.9,1.1-4.9,1.6-7.9h0.6L271.6,95.1z"/>
	<path class="st0" d="M318.8,67.8c-0.3,0.4-0.8,0.4-1.7,0.4c-1.3,1.2-3.6,2.8-5.2,3.6l-0.5-0.3c0.5-1,1.2-2.7,1.6-4h-6.6
		c0.7,0.5,2.5,1.8,3.7,2.7c0,0.5-0.5,0.8-1.1,0.8l-11.6,0.7v0.3c0,0.5,0.1,0.6,1.8,0.6h5.4c2,0,4,0,4.7,0c0.5,0,1-0.1,1.3-0.1
		c0.3,0,0.9-0.2,1.2-0.2h0.4l0.2,0c1.3,0.4,1.7,0.7,1.7,1.3c0,0.9-0.5,1.3-2.2,1.6l3.6,2.7c-0.2,0.3-0.8,0.6-1.6,0.8v6.3
		c0,0.3-1.8,0.9-3,1.1l3.1,2.2c-0.3,0.4-0.9,0.8-1.9,0.9V97c0,2.4-0.6,3.8-5.4,4.2c-0.1-0.9-0.3-1.7-0.9-2.2
		c-0.6-0.4-1.5-0.9-3.4-1.1v-0.6c0,0,3.9,0.2,4.8,0.2c0.7,0,0.9-0.2,0.9-0.8v-2.2c-3.5,0.8-7.8,1.8-13.3,3c-0.3,0.5-0.8,0.9-1.2,0.9
		l-1.1-3.9c2.8-0.1,9-0.6,15.6-1.2v-4.6h-15.5v1.6c14.7-1.8,14.5,3.2,11.7,3.2c-2.2-0.8-6.8-1.6-11.7-2c0,3.2-0.9,7.4-7.2,9.8
		l-0.4-0.5c3.4-2.8,3.7-6.3,3.7-9.5v-4.5c-0.3,0-0.7,0.1-1,0.1l-0.6,0V75.3l4.3,1.8h18l1.5-1.5c-1.5,0.1-3.7,0.1-6.7,0.1h-5.7
		c-4.3,0-5-0.7-5-3.1v-0.5l-7.2,0.5l-0.5-1.3l7.6-0.5v-2.9l5.2,0.4c-0.1,0.6-0.5,0.9-1.3,1.1v1.2l6.8-0.4l1.8-2.5h-21.1v10.4
		c0,7.4-0.5,16.9-7.6,23.2l-0.6-0.4c3.9-6.7,4.2-15,4.2-22.8V64.6l4.7,1.8h9.1v-7.1l5.8,0.5c-0.1,0.6-0.5,1.1-1.7,1.2v1.8h9.6
		l2.3-2.9c0,0,2.7,2,4.3,3.5c-0.1,0.5-0.5,0.7-1.2,0.7h-15v2.2h14.2l2.2-2.2L318.8,67.8z M309.9,85.5v-0.2h-18.7v0.4
		c0,0.1-0.3,0.4-0.8,0.6l2.9,1.1h14.4l1.9-2.2L309.9,85.5z M291.1,78.3v2.2h7.4v-2.2H291.1z M298.5,84v-2.2h-7.4V84H298.5z
		 M302.5,78.3v2.2h7.4v-2.2H302.5z M302.5,84h7.4v-2.2h-7.4V84z"/>
	<path class="st0" d="M340.4,87.5c0,0,2.7,2.1,4.2,3.6c-0.1,0.5-0.5,0.7-1.2,0.7h-8v8.5c0,0.1-1.3,0.9-3.5,0.9h-0.7v-9.5h-7.9
		l-0.4-1.3h8.3v-5.4h-2.2v0.9c0,0.4-1.7,1.3-3.3,1.3h-0.6V69.6l4.1,1.7h1.9v-4.3h-7.7l-0.4-1.3h8.1v-6.1L337,60c0,0.6-0.4,1-1.6,1.2
		v4.4h2.4l2.4-3.2c0,0,2.7,2.2,4.3,3.7c-0.1,0.5-0.6,0.7-1.2,0.7h-7.9v4.3h1.8l1.9-2.1l4.2,3.2c-0.3,0.3-0.9,0.7-1.8,0.9v12.4
		c0,0.3-2,1.1-3.3,1.1h-0.6v-1.6h-2.2v5.4h2.6L340.4,87.5z M329.1,72.6v4.9h8.5v-4.9H329.1z M329.1,83.8h8.5v-5h-8.5V83.8z
		 M342.9,75.7c2.4-4,4.6-10,5.5-16.2l6.5,1.8c-0.1,0.6-0.7,1-1.7,1c-0.8,2.1-1.7,4-2.7,5.8h7.6l2.4-3.3c0,0,2.7,2.2,4.4,3.9
		c-0.1,0.5-0.6,0.7-1.2,0.7h-14c-1.8,2.8-4,5.1-6.3,6.8L342.9,75.7z M363.5,95.8c1.5,0.5,1.8,0.7,1.8,1.6c0,1.8-2.4,2.7-7.4,2.7
		h-6.2c-5.2,0-7.5-1.4-7.7-4.7c-0.4-3.6,4.3-8.2,11.6-18.4H346l-0.4-1.3h10.5l1.8-2l4.3,3.4c-0.4,0.4-1.1,0.6-2.1,0.7
		c-8.3,10-12.1,15.2-11.8,17.1c0.1,1.1,1.4,1.4,3.9,1.4h5.8c2.6,0,3.1-0.1,3.5-0.7c0.6-1.2,1.2-3.3,1.7-5.8h0.5L363.5,95.8z"/>
	<path class="st0" d="M377.7,66.1h-8.1l-0.4-1.3h8.4l-0.7-5.3l5.6,0.5c0,0.5-0.4,1-1.3,1.2l0.5,3.6h2.4l2.2-3c0,0,2.6,2.1,4.1,3.6
		c-0.1,0.5-0.6,0.7-1.2,0.7h-7.4l0.5,3.7c-0.6,0.9-2.1,1.2-4,1.2L377.7,66.1z M377.9,84.4l5.8,0.5c-0.1,0.6-0.4,1-1.4,1.2v3
		c-0.1,4.5-2,9.5-12,12.1l-0.4-0.5c6.7-3.1,8-7.6,8-11.6V84.4z M404.8,79c1.6,0.4,2,0.9,2,1.6c0,1.9-1.8,2.4-14.6,2.3h-9.3
		c-5.8,0-7-0.5-7-3.5v-5.2h-4.2l-0.4-1.3h31.3l2.4-3.1c0,0,2.8,2.2,4.5,3.7c-0.1,0.5-0.6,0.7-1.2,0.7h-28.5v0.7v3.9
		c0,0.7,0.1,0.8,3.1,0.8h9.6c3.5,0,7,0,8.2-0.1c0.8,0,1.4-0.1,1.8-0.2c0.5,0,1.1-0.2,1.6-0.4h0.4L404.8,79z M387,67.7
		c8.9-0.2,6,6.6,2.4,4.5c-0.3-1.5-1.6-3.2-2.8-4.1L387,67.7z M387.6,84.8l5.7,0.6c-0.1,0.6-0.4,1-1.5,1.2v12.3
		c0,0.4-1.8,1.1-3.4,1.1h-0.8V84.8z M407.1,61.8c0,0,2.6,2.1,4.1,3.6c-0.1,0.5-0.6,0.7-1.2,0.7h-8.9l-0.6,3.9
		c-0.8,0.6-2.4,0.9-4.1,0.5l0.7-4.4h-5.3l-0.4-1.3h5.9l0.8-5.3l5.5,1.1c-0.2,0.6-0.5,1-1.7,1.1l-0.5,3.1h3.6L407.1,61.8z
		 M408.9,95.7c1.1,0.5,1.5,0.8,1.5,1.7c0,1.6-1.6,2.3-6.2,2.3h-2.7c-3.2,0-3.7-0.9-3.7-3.5V84.4l5.4,0.5c0,0.6-0.5,1-1.4,1.1v9.3
		c0,0.5,0.1,0.7,0.9,0.7h1.9h1.7c0.3,0,0.7,0,0.9,0c0.3,0,0.7-0.1,0.9-0.2h0.4L408.9,95.7z"/>
	<path class="st0" d="M453.1,77.1c-0.3,0.5-0.8,0.6-1.9,0.7c-1.8,5.1-4.5,9.6-8.3,13.4c4,2.8,8.8,4.9,13.9,6.3l-0.1,0.5
		c-1.8,0.2-3.2,1.5-4,3.4c-4.9-1.9-9-4.4-12.5-7.8c-4.5,3.6-10.3,6.2-18,7.7l-0.4-0.6c6.8-2.2,12.1-5.4,16.2-9.4
		c-3.1-3.7-5.4-8.4-6.8-14.2h-2.5c-1.4,9.5-4.7,17.6-12.8,23.8l-0.5-0.4c8.3-9.9,9.8-22.4,9.7-36.1h-7.7l-0.4-1.3h23l1.9-2.1
		l4.3,3.3c-0.3,0.4-0.7,0.5-1.6,0.6l-1.5,10.9h3.1l2.6-2.4L453.1,77.1z M429.8,64.2c-0.1,4-0.3,7.8-0.8,11.4h9.9l1.4-11.4H429.8z
		 M432.2,76.9c1.7,4.9,4.5,8.8,8,12c2.9-3.5,5-7.5,6.3-12H432.2z"/>
	<path class="st0" d="M477.8,95.2c0,2.8-0.5,4.5-5,4.9c-0.1-1.2-0.4-2.2-0.9-2.7c-0.6-0.6-1.4-1-3.2-1.3v-0.7c0,0,3.7,0.3,4.5,0.3
		c0.8,0,0.9-0.3,0.9-0.9V80.6c-1.1,1.3-2.5,2.9-4.1,4.6c-0.1,0.5-0.4,1.1-0.8,1.3l-1.7-3c-0.4,6.2-1.6,12.7-5.8,17.8l-0.6-0.4
		C464,93.6,464,84.4,464,76V60.5l4.4,1.8h5.4l1.8-2.1l4,3.2c-0.3,0.3-0.9,0.7-1.7,0.9V95.2z M467.7,76c0,1.9,0,4-0.1,6.2
		c1.5-0.7,3.9-1.9,6.5-3.3v-4.5c-0.4,0.4-1,0.6-1.8,0.5c-1-1-2.9-2.1-4.7-2.9V76z M467.7,63.5v7c3.6-0.5,5.6,0.4,6.4,1.5v-8.5H467.7
		z M502.2,95.1c1.1,0.5,1.3,0.9,1.3,1.8c0,1.6-1.4,2.6-5.6,2.6h-2.1c-3.1,0-3.6-1-3.6-3.7v-31h-6.3V78c0,8-0.5,17.1-8.4,23.3
		l-0.6-0.4c4.5-6.4,5-14.6,5-22.9V61.6l4.7,1.8h5l2.2-2.6l4.3,3.7c-0.4,0.4-0.9,0.6-1.9,0.8v29c0,0.7,0.1,0.9,0.8,0.9h1.1
		c0.5,0,0.9,0,1.1,0c0.3,0,0.5-0.1,0.7-0.6c0.3-0.9,1.1-4.9,1.6-7.9h0.6L502.2,95.1z"/>
	<path class="st0" d="M549.4,67.8c-0.3,0.4-0.8,0.4-1.7,0.4c-1.3,1.2-3.6,2.8-5.2,3.6l-0.5-0.3c0.5-1,1.2-2.7,1.6-4H537
		c0.7,0.5,2.5,1.8,3.7,2.7c0,0.5-0.5,0.8-1.1,0.8L528,71.9v0.3c0,0.5,0.1,0.6,1.8,0.6h5.4c2,0,4,0,4.7,0c0.5,0,1-0.1,1.3-0.1
		c0.3,0,0.9-0.2,1.2-0.2h0.4l0.2,0c1.3,0.4,1.7,0.7,1.7,1.3c0,0.9-0.5,1.3-2.2,1.6l3.6,2.7c-0.2,0.3-0.8,0.6-1.6,0.8v6.3
		c0,0.3-1.8,0.9-3,1.1l3.1,2.2c-0.3,0.4-0.9,0.8-1.9,0.9V97c0,2.4-0.6,3.8-5.4,4.2c-0.1-0.9-0.3-1.7-0.9-2.2
		c-0.6-0.4-1.5-0.9-3.4-1.1v-0.6c0,0,3.9,0.2,4.8,0.2c0.7,0,0.9-0.2,0.9-0.8v-2.2c-3.5,0.8-7.8,1.8-13.3,3c-0.3,0.5-0.8,0.9-1.2,0.9
		l-1.1-3.9c2.8-0.1,9-0.6,15.6-1.2v-4.6h-15.5v1.6c14.7-1.8,14.5,3.2,11.7,3.2c-2.2-0.8-6.8-1.6-11.7-2c0,3.2-0.9,7.4-7.2,9.8
		l-0.4-0.5c3.4-2.8,3.7-6.3,3.7-9.5v-4.5c-0.3,0-0.7,0.1-1,0.1l-0.6,0V75.3L522,77h18l1.5-1.5c-1.5,0.1-3.7,0.1-6.7,0.1h-5.7
		c-4.3,0-5-0.7-5-3.1v-0.5l-7.2,0.5l-0.5-1.3l7.6-0.5v-2.9l5.2,0.4c-0.1,0.6-0.5,0.9-1.3,1.1v1.2l6.8-0.4l1.8-2.5h-21.1v10.4
		c0,7.4-0.5,16.9-7.6,23.2l-0.6-0.4c3.9-6.7,4.2-15,4.2-22.8V64.6l4.7,1.8h9.1v-7.1l5.8,0.5c-0.1,0.6-0.5,1.1-1.7,1.2v1.8h9.6
		l2.3-2.9c0,0,2.7,2,4.3,3.5c-0.1,0.5-0.5,0.7-1.2,0.7h-15v2.2h14.2l2.2-2.2L549.4,67.8z M540.5,85.5v-0.2h-18.7v0.4
		c0,0.1-0.3,0.4-0.8,0.6l2.9,1.1h14.4l1.9-2.2L540.5,85.5z M521.8,78.3v2.2h7.4v-2.2H521.8z M529.1,84v-2.2h-7.4V84H529.1z
		 M533.1,78.3v2.2h7.4v-2.2H533.1z M533.1,84h7.4v-2.2h-7.4V84z"/>
	<path class="st0" d="M565,77.3V100c0,0.4-1.6,1.3-3.1,1.3h-0.8V81.6c-0.1,0-0.2,0-0.3,0c-2,4.2-4.4,9-6.7,12.5l-0.7-0.4
		c1.1-3.8,2.7-9.8,4-14.8l3.7,1.3v-3h-7l-0.4-1.3h7.4V59.4l5.5,0.6c-0.1,0.6-0.5,1.1-1.7,1.3v14.7h1.8l2.2-2.8c0,0,2.4,1.9,3.8,3.4
		c-0.1,0.5-0.5,0.7-1.2,0.7H565z M554.9,63.2c8.5,6.5,5,13.4,1.9,10.2c0-3.1-1.3-7.2-2.5-10L554.9,63.2z M565.8,79.6
		c9,6.2,5.4,13.5,2.1,10.2c0-3.2-1.4-7.2-2.7-10L565.8,79.6z M565.6,73.6c0.8-2.7,1.9-7.1,2.7-10.8l4.9,1.8
		c-0.2,0.5-0.7,0.9-1.7,0.9c-1.6,2.8-3.5,6.3-5.3,8.5L565.6,73.6z M592.8,95.1c0,0,2,2,3.1,3.4c-0.1,0.5-0.5,0.7-1.2,0.7h-25.4
		l-0.4-1.3h4.7V61.3l4.4,1.8h8.1l1.9-2.5l4.7,3.5c-0.4,0.5-0.9,0.7-2.1,0.9v33h0.2L592.8,95.1z M577.6,64.4v9.8h9v-9.8H577.6z
		 M577.6,85.9h9V75.5h-9V85.9z M577.6,97.9h9V87.2h-9V97.9z"/>
	<path class="st0" d="M609.2,77.3v22.9c0,0.4-1.4,1.1-2.7,1.1h-0.7V81.7c-1.4,4.5-3.3,9.2-5.6,12.5l-0.8-0.3
		c1.4-3.8,2.7-9.4,3.4-14.4l3,0.9v-3h-5.6l-0.4-1.3h5.9V59.7l5,0.5c-0.1,0.6-0.5,1.1-1.6,1.3v14.4h0.8l1.8-2.4c0,0,2.2,1.7,3.4,3
		c-0.1,0.5-0.5,0.7-1.1,0.7H609.2z M600.7,63.5c7.2,6.4,4.2,12.4,1.7,9.7c0-2.9-1.3-6.9-2.2-9.5L600.7,63.5z M609.9,79.7
		c7.2,6.8,4.1,13.2,1.4,10.3c0.1-3.1-1-7.2-2.1-10L609.9,79.7z M609.7,73.5c0.8-2.7,1.6-6.6,2-10l4.5,1.3c-0.1,0.5-0.6,0.9-1.6,0.9
		c-1.1,2.9-2.5,6-4.2,8.1L609.7,73.5z M624.7,82.4c-0.3,0.2-0.8,0.3-1.5,0.3c-0.9,3.2-2.7,6.8-5.4,9.6c0.2,0.1,0.4,0.2,0.6,0.5
		c2.7,2.8,6.5,3.5,13,3.5c3.6,0,6.8,0,10.4-0.2v0.5c-1.4,0.2-2.2,1.8-2.3,3.5h-9c-7,0-9.9-1.6-12.8-5.9c-0.5-0.8-0.9-0.6-1.3,0
		c-0.6,1.4-1.5,3.6-2.2,5.5c0.1,0.4,0,0.6-0.2,0.9l-3.2-4.1c1.8-1.1,4.1-3.3,5.3-4c1.7-2.8,3-6.7,3.6-10h-2.6l-1.4,1.3l-3.1-2.4
		c0.5-0.3,1.1-0.6,1.6-0.8c1.2-2.2,2.8-5.6,3.7-8h-4.3l-0.4-1.3h4.9l1.7-1.8l3.4,3.1c0.8-3,1.5-6.8,1.9-10.2l4.5,1v-3.9l5.2,0.6
		c-0.1,0.6-0.5,1.1-1.6,1.2V68h0.9l2-2.7c0,0,2.2,1.9,3.5,3.2c-0.1,0.5-0.5,0.7-1.2,0.7h-5.3v6.8h1.9l2-2.8c0,0,2.3,2,3.7,3.4
		c-0.1,0.5-0.5,0.7-1.2,0.7h-17l-0.4-1.3h7.4v-6.8h-3.2c-0.9,2.2-2,4.2-3.1,5.8l-0.7-0.3c0.2-0.6,0.4-1.3,0.6-2.1
		c-0.4,0.4-1.2,0.5-2.1,0.6c-0.9,2.1-2.6,5.4-3.8,7.8h2l2-2l3.3,2.7V79l3.8,1.6h5.4l1.8-2l4,3.1c-0.3,0.3-0.9,0.7-1.8,0.9v10.3
		c0,0.3-1.8,1-3,1h-0.5v-2.3h-6.1v1.8c0,0.3-1.6,1.1-3.1,1.1h-0.5V82.4z M615.7,60.2c9,3.7,5.4,10.3,2.3,7.5c0-2.4-1.5-5.4-2.8-7.2
		L615.7,60.2z M629.8,63.8c-0.2,0.4-0.7,0.7-1.5,0.7c-0.4,1.1-0.8,2.3-1.2,3.5h2.7V63.8z M628.3,81.9v8.3h6.1v-8.3H628.3z"/>
	<path class="st0" d="M665.8,68.9c-0.3,0.4-1,0.7-1.9,0.9V97c0,0.4-2,1.3-3.4,1.3h-0.6v-3.5h-8v3.5c0,0.5-1.5,1.4-3.2,1.4H648V66
		l4.1,1.9h0.8c0.4-2.4,0.9-5.9,1.3-8.3l6.2,1.5c-0.2,0.7-0.8,1-1.8,1c-1.1,1.7-2.7,4-3.9,5.8h4.7l2.1-2.3L665.8,68.9z M651.9,69.2
		v11.2h8V69.2H651.9z M659.9,93.5V81.7h-8v11.8H659.9z M687.8,68.9c-0.4,0.4-0.9,0.7-1.9,0.8c-0.3,17.5-1,26.5-3.3,29.1
		c-1.4,1.7-3.4,2.3-6,2.3c0-1.4-0.2-2.5-0.9-3.1c-0.8-0.7-2.6-1.3-4.6-1.7l0-0.7c2.1,0.2,5.3,0.5,6.3,0.5c0.9,0,1.3-0.1,1.8-0.6
		c1.7-1.6,2.2-11.1,2.5-26.5h-9.5c-2.1,3.7-4.5,7-7.2,9.4l-0.6-0.4c2.7-4.5,5.3-11.7,6.6-18.6l6,1.8c-0.2,0.5-0.7,0.9-1.7,0.9
		c-0.7,1.9-1.5,3.8-2.4,5.5h8.3l2.4-2.6L687.8,68.9z M668.5,77c12.1,4.3,8.2,13,4.1,9.6c-0.4-3.1-2.5-6.9-4.5-9.3L668.5,77z"/>
	<path class="st0" d="M728.5,83.7c0,0,2.9,2.2,4.8,3.8c-0.1,0.5-0.6,0.7-1.2,0.7h-18c-1.4,6.1-5.6,10.3-21.3,13.1l-0.3-0.8
		c11.6-3.3,15.4-7.1,16.8-12.3h-14.9l-0.4-1.3h15.6c0.3-1.6,0.4-3.3,0.5-5.1l6.3,0.5c-0.1,0.6-0.6,1.1-1.6,1.2
		c-0.1,1.2-0.3,2.3-0.5,3.4h11.6L728.5,83.7z M710.5,80v-5.4h-12.9l-0.4-1.3h13.3v-5.1h-15.4l-0.4-1.3h21.5c1.1-2.2,2.2-5.2,2.9-7.5
		l6,1.5c-0.2,0.5-0.7,0.9-1.7,0.9c-1.4,1.6-3.7,3.5-5.8,5.1h7.5l2.6-3.2c0,0,2.9,2.2,4.6,3.7c-0.1,0.5-0.6,0.7-1.2,0.7h-15.9v5.1
		h7.4l2.4-3c0,0,2.7,2,4.5,3.6c-0.1,0.5-0.6,0.7-1.2,0.7h-13V80h11.1l2.6-3.2c0,0,2.9,2.2,4.7,3.8c-0.1,0.5-0.6,0.7-1.2,0.7h-39.1
		l-0.4-1.3H710.5z M702.2,59.7c10.7,1.5,6.9,9.4,3,6.4c-0.3-2.2-1.9-4.6-3.3-6.1L702.2,59.7z M716.2,89.9
		c19.1,2.6,18.6,12.8,13.4,11.1c-2.8-3.7-9.1-8.2-13.7-10.6L716.2,89.9z"/>
	<path class="st0" d="M777.5,69.8c-0.4,0.4-1.2,0.9-2.2,1.1v28.4c-0.1,0.4-2.2,1.6-3.9,1.6h-0.7v-3.8h-23.1v2.4
		c0,0.5-1.8,1.6-3.7,1.6h-0.8V66.6l4.9,2.1h5.8c0.8-2.7,1.7-6.6,2.1-9.3l6.7,1.6c-0.2,0.6-0.7,0.9-1.7,0.9c-1.4,1.9-3.6,4.7-5.7,6.8
		h14.9l2.4-2.7L777.5,69.8z M747.6,69.9V82h23.1V69.9H747.6z M770.7,95.8V83.3h-23.1v12.5H770.7z"/>
	<path class="st0" d="M817.5,65.9l-4.5,0.6l-0.1,17.4c0,10.1-4.6,14.4-11.8,14.4c-7.3,0-12.3-3.8-12.3-13.5v-5.1
		c0-4.4,0-8.8-0.1-13.2l-4-0.5v-1.6H799v1.6l-4.8,0.5c-0.1,4.3-0.1,8.7-0.1,13.1v4.1c0,8.5,3.1,11.3,8.2,11.3
		c5.7,0,8.6-3.3,8.5-11.9l-0.1-16.5l-5.2-0.7v-1.6h11.9V65.9z"/>
	<path class="st0" d="M852.9,65.8l-4.1,0.6l-10.5,31.3h-2.6l-11.5-31.4l-3.6-0.4v-1.6h14V66l-4.8,0.5l8.5,24.8l7.9-24.7l-4.7-0.5
		v-1.8h11.2V65.8z"/>
	<path class="st0" d="M873.7,64.3c-0.4,0.4-0.9,0.5-2,0.6c-1.5,2.8-4.3,7.8-6.5,10.6c5,3.3,6.9,7.4,7,11c0,4.4-1.7,6.7-6.6,6.8
		c0-1.2-0.2-2.7-0.6-3.2c-0.4-0.5-1.2-0.8-2.3-0.9v-0.6h3.3c0.5,0,0.8-0.1,1.1-0.3c0.7-0.5,1.1-1.3,1.1-2.8c0-3.2-1.1-6.7-4.1-9.9
		c0.9-2.9,2.4-8.2,3.2-11.8h-5.3v36.1c0,0.3-1.3,1.4-3.3,1.4h-0.7V60.6l4.6,1.8h4.5l2.3-2.3L873.7,64.3z M893.8,64.9
		c0,0,2.8,2.2,4.5,3.9c-0.1,0.5-0.5,0.7-1.2,0.7h-14.5c-0.1,2.3-0.2,4.6-0.5,6.8h7.7l2.3-2.4l4.2,3.6c-0.3,0.4-0.9,0.6-1.8,0.8
		c-0.5,12.2-1.6,18.9-3.9,20.9c-1.4,1.3-3.2,1.9-5.6,1.9c0-1.3-0.2-2.4-0.9-3c-0.7-0.7-2.5-1.3-4.3-1.6l0-0.7c1.9,0.2,5,0.4,6,0.4
		c0.8,0,1.2-0.1,1.6-0.5c1.4-1.3,2.2-7.9,2.7-18.2H882c-1.3,10.3-4.8,18.4-15.3,23.7l-0.4-0.5c9.8-8,11.5-18.4,11.6-31.3h-7.3
		l-0.4-1.3h21.1L893.8,64.9z M879.2,59.6c11.2,3,6.8,11.2,2.8,7.7c-0.1-2.5-1.6-5.5-3.2-7.3L879.2,59.6z"/>
	<path class="st0" d="M914.7,93.3c-0.1,0.3-1.7,1.1-2.9,1.1h-0.5v-3.5h-3.9v4.4c0,0.3-1.1,1.2-2.9,1.2h-0.6v-34l4,1.7h2.9l1.8-2.1
		l3.9,3.1c-0.3,0.4-1,0.7-1.9,0.9V93.3z M907.3,65.4v11.3h3.9V65.4H907.3z M911.2,89.6V78.1h-3.9v11.6H911.2z M941.8,72.9
		c0,0.2-0.8,0.6-1.5,0.9c0.7,0.5,2.4,1.8,3.6,2.9c-0.1,0.5-0.6,0.7-1.2,0.7h-8.1v3h3.1l1.8-1.8l3.7,2.8c-0.2,0.3-0.9,0.6-1.6,0.8
		v4.5c0,0.3-1.8,1.1-2.9,1.1h-0.6v-1.3h-17.8c-0.3,4.9-1.6,10.7-5.8,15L914,101c2.9-5.8,3-12.8,3-18.7v-7.8l4.1,1.7h7.8
		c0-0.9-0.5-1.9-1-2.7c-0.5,0.3-1.5,0.7-2.2,0.7h-0.5v-6.9h-5v6.3c0,0.3-1.3,0.9-2.6,0.9h-0.5v-9.9l3.2,1.4h4.5l1.5-1.5l3.1,2.4
		c-0.2,0.3-0.6,0.5-1.3,0.7v4.9c1.3,0.2,2.2,0.6,2.7,1.1v-9l3.2,1.4h4.2l1.6-1.6l3.3,2.5c-0.2,0.3-0.7,0.5-1.4,0.7V72.9z
		 M916.3,63.8l-0.4-1.3h8.6l1.8-2.3c0,0,2.1,1.7,3.3,2.9c-0.1,0.5-0.5,0.7-1.1,0.7H916.3z M928.5,89.6c0,0,1.7,1.4,2.7,2.6
		c-0.1,0.5-0.5,0.7-1.1,0.7h-5v3.6c1.7-0.4,3.7-0.8,5.6-1.2l0.2,0.6c-1.4,0.8-4.4,2.5-7.4,4.1c-0.3,0.5-0.7,0.9-1,1.1l-2.1-4
		c1.1-0.7,1.3-0.9,1.3-1.7v-8.5l4.8,0.5c-0.1,0.5-0.5,0.9-1.4,1v2.9h2L928.5,89.6z M920.5,82.3c0,0.9,0,1.8,0,2.9h3.8v-3.4h-3.7
		V82.3z M920.5,77.5v3h3.7v-3H920.5z M921,68.5c5.7,1.5,3.3,5.8,1.2,4c0-1.3-0.8-2.9-1.7-3.7L921,68.5z M931.3,77.5h-3.7v3h3.7V77.5
		z M927.5,85.2h3.7v-3.4h-3.7V85.2z M930.5,63.8l-0.4-1.3h8l1.9-2.5c0,0,2.2,1.8,3.6,3.1c-0.1,0.5-0.5,0.7-1.2,0.7H930.5z
		 M937.9,76.2l1.8-2.2c-0.1,0-0.3,0-0.5,0h-0.5v-6.7H934v6c0,0.3-1.3,0.9-2.6,0.9c0.4,0.8,0.2,1.5-0.3,2H937.9z M942.1,96.7
		c0.9,0.4,1.2,0.8,1.2,1.4c0,1.4-1.3,2-5.8,2h-2.7c-2.9,0-3.3-0.8-3.3-3v-10l4.7,0.5c-0.1,0.5-0.5,0.9-1.3,1.1v2.9h2.2l1.7-2.3
		c0,0,1.9,1.6,3.1,2.9c-0.1,0.5-0.5,0.7-1.2,0.7H935v3.5c0,0.5,0.1,0.6,0.9,0.6h1.9c0.8,0,1.5,0,1.8,0c0.3,0,0.5,0,0.8-0.3
		c0.3-0.5,0.7-1.8,1.1-3.4h0.5L942.1,96.7z M934.5,68.5c5.7,1.5,3.3,5.8,1.2,4c0-1.3-0.8-2.9-1.7-3.7L934.5,68.5z M934.6,81.8v3.4
		h3.5v-3.4H934.6z"/>
</g>
</svg>
