<?xml version="1.0" encoding="utf-8"?>
<!-- Generator: Adobe Illustrator 26.0.3, SVG Export Plug-In . SVG Version: 6.00 Build 0)  -->
<svg version="1.1" id="lead-block-02_sp.svg" xmlns="http://www.w3.org/2000/svg" xmlns:xlink="http://www.w3.org/1999/xlink"
	 x="0px" y="0px" viewBox="0 0 281.1 42.2" style="enable-background:new 0 0 281.1 42.2;" xml:space="preserve">
<style type="text/css">
	.st0{fill:none;}
	.st1{fill:none;stroke:#1147B4;stroke-width:3;stroke-linecap:round;stroke-dasharray:1.000000e-03,6;}
	.st2{fill:#1147B4;}
</style>
<rect class="st0" width="281.1" height="42.2"/>
<path id="シェイプ_984" class="st1" d="M23,37.6h235.6"/>
<g>
	<path class="st2" d="M37.6,21.2c3.5,1.2,8.1,3,10.5,4.3l-1.6,3c-2.6-1.5-7.9-3.7-11.6-5l1.3-2.2h-1c-1.4,3.6-4.5,5.9-12.2,7.1
		c-0.2-0.9-1-2.4-1.7-3.1c5.8-0.8,8.6-2.1,9.9-4h-8.6v-2.9h9.8c0.1-0.5,0.2-1,0.2-1.5H21.7v-3h11.1v-1.5h-8.6V9.3h8.6V7.8H22.6v-3
		h5.5c-0.4-0.9-1-1.8-1.6-2.6L29.6,1c0.9,1,1.8,2.4,2.2,3.4L31,4.8h6.4C38,3.7,38.9,2.1,39.3,1L43,2c-0.6,1-1.3,2-1.9,2.8h5.6v3
		H36.4v1.5h8.9v2.9h-8.9v1.5H48v3H36c-0.1,0.5-0.1,1-0.2,1.5h11.3v2.9h-9.5V21.2z"/>
	<path class="st2" d="M75.6,24.7c0.1,0,0.3,0,0.3-0.2c0.1-0.1,0.1-0.4,0.2-1s0.1-2,0.1-3.7c0.7,0.6,1.8,1.2,2.7,1.5
		c0,1.5-0.2,3.5-0.3,4.3c-0.2,0.8-0.5,1.4-1,1.8c-0.4,0.3-1.1,0.5-1.7,0.5h-1.7c-0.7,0-1.5-0.2-2-0.8c-0.6-0.6-0.8-1.2-0.8-3.8V5.6
		h-3.1v8.5c0,4.5-0.4,10.7-3.1,14.4c-0.6-0.6-2-1.6-2.8-2c-0.2,0.4-0.5,0.6-0.8,0.9c-0.9,0.6-2.1,0.6-4,0.6c-0.1-0.9-0.5-2.4-1-3.3
		c1,0.1,2.1,0.1,2.4,0.1c0.4,0,0.5-0.1,0.5-0.5v-6.7c-0.7,0.7-1.5,1.4-2.1,2.1l-1-1.7c-0.3,3.7-0.8,7.6-2.1,10.4
		c-0.6-0.5-2.1-1.3-2.8-1.6c1.8-4,1.9-9.8,1.9-14V2.3h9.4v22.1c0,0.8-0.1,1.4-0.2,1.9C64.8,23,65,18.1,65,14.2V2.3h10v21
		c0,0.7,0,1.1,0.1,1.2s0.1,0.2,0.3,0.2H75.6z M56.5,12.8c0,1.2,0,2.4-0.1,3.7c0.9-0.6,1.9-1.3,3-2.1v-2.1l-1,0.8
		c-0.4-0.6-1.2-1.5-2-2.3L56.5,12.8L56.5,12.8z M56.5,5.5v3.3l0.9-0.7c0.7,0.6,1.4,1.3,2.1,2V5.5H56.5z"/>
	<path class="st2" d="M89.7,20.7h4.5v3h-4.5v4.6h-3v-4.6H82v-3h4.7V19H83V8.5h3.7V7h-4.3V4h4.3V1.3h3V4h4.1v3h-4.1v1.5h3.9V19h-3.9
		V20.7z M85.4,12.7h1.7V11h-1.7V12.7z M85.4,16.6h1.7v-1.7h-1.7V16.6z M91.1,10.9h-1.8v1.7h1.8V10.9z M91.1,14.9h-1.8v1.7h1.8V14.9z
		 M103,7.9v1.8h5.4V25c0,1.4-0.2,2.2-1,2.8c-0.8,0.5-1.8,0.6-3.2,0.6c-0.1-0.9-0.4-2.2-0.8-3c0.6,0,1.2,0,1.5,0
		c0.2,0,0.3-0.1,0.3-0.3V22H103v6.1h-3V22h-2.1v6.3h-3.1V9.6h5.2V7.9h-5.6v-3h5.6V1.3h3v3.6h3.1c-0.7-0.7-1.7-1.6-2.5-2.2l1.9-1.5
		c1.1,0.7,2.5,1.8,3.2,2.6l-1.3,1.1h1.6v3C109,7.9,103,7.9,103,7.9z M97.8,12.6v1.9h2.1v-1.9H97.8z M99.9,19.1v-1.9h-2.1v1.9H99.9z
		 M103,12.6v1.9h2.2v-1.9H103z M105.2,19.1v-1.9H103v1.9H105.2z"/>
	<path class="st2" d="M138.6,9c-0.3,11.9-0.5,16.2-1.5,17.5c-0.7,1-1.4,1.3-2.4,1.5c-0.9,0.2-2.4,0.1-3.9,0.1
		c-0.1-0.9-0.4-2.4-1-3.3c1.4,0.1,2.7,0.1,3.4,0.1c0.5,0,0.8-0.1,1-0.5c0.7-0.8,0.9-4.4,1.1-13.7h-3.1c-0.4,7.7-2,13.8-7.6,17.6
		c-0.5-0.8-1.6-2-2.4-2.6c1.4-1,2.6-2,3.4-3.3c-4.4,1.1-9.2,2.2-12.7,3l-0.6-3.5c0.6-0.1,1.3-0.2,2-0.4V2.4h10.1v17.1l1.2-0.3
		L126,22c1.9-3,2.6-6.8,2.9-11.3h-3.7V7.5h3.8c0-2,0-4,0-6.2h3.4c0,2.2,0,4.3-0.1,6.2h6.3L138.6,9L138.6,9z M117.4,5.5v2.9h3.8V5.5
		H117.4z M121.2,11.5h-3.8v3h3.8V11.5z M117.4,21c1.2-0.2,2.5-0.5,3.8-0.8v-2.7h-3.8V21z"/>
	<path class="st2" d="M151.3,2.3c-0.6,1.8-1.3,3.7-2.1,5.5v20.5h-3.3V13.8c-0.6,0.9-1.2,1.7-1.8,2.4c-0.3-0.8-1.1-2.8-1.7-3.7
		c2.3-2.7,4.5-7,5.7-11.2L151.3,2.3z M167.5,6.9c-0.8,1.7-1.9,3-3.2,4.3c1.8,0.9,3.9,1.6,6.3,1.9c-0.6,0.6-1.5,1.9-1.9,2.8
		c-2.7-0.6-5-1.6-6.9-2.8c-1.9,1.3-4.2,2.3-6.6,3c-0.3-0.5-0.9-1.4-1.5-2.1v9.5h-3V4.9h3V8c1.9-1.8,3.5-4.2,4.4-6.8l3.1,0.7
		c-0.3,0.7-0.6,1.5-0.9,2.2h9.4v2.8C169.7,6.9,167.5,6.9,167.5,6.9z M153.7,13.4c2.1-0.5,3.9-1.2,5.5-2.1c-0.8-0.7-1.5-1.5-2.1-2.2
		c-0.5,0.6-1.1,1.2-1.7,1.7c-0.4-0.4-1.1-0.9-1.7-1.4V13.4z M169.9,21.7c-3,3.5-8.2,5.5-14.1,6.6c-0.4-0.8-1.1-2-1.7-2.7
		c5.3-0.7,10.4-2.3,12.9-5L169.9,21.7z M164.5,15.6c-1.8,1.8-4.7,3.2-7.4,4.1c-0.4-0.6-1.2-1.5-1.8-2c2.5-0.6,5.3-1.8,6.7-3.1
		L164.5,15.6z M167.3,18.2c-2.3,2.5-6.1,4.2-10.1,5.3c-0.4-0.6-1.1-1.6-1.7-2.1c3.6-0.8,7.4-2.2,9.3-4.1L167.3,18.2z M158.8,6.9
		c0.7,0.9,1.7,1.9,2.8,2.7c0.9-0.8,1.7-1.7,2.3-2.7C163.9,6.9,158.8,6.9,158.8,6.9z"/>
	<path class="st2" d="M184.2,8.8h-10.8V6h4.9c-0.4-1.1-1.2-2.6-1.8-3.7l2.6-1.2c0.8,1.2,1.7,2.8,2.1,3.9l-1.9,1h4.9V8.8z
		 M199.4,20.3c-1,1.7-2.3,3.1-4,4.3c1.6,0.5,3.5,0.8,5.4,1c-0.7,0.7-1.5,1.9-1.9,2.7c-2.6-0.3-4.8-1-6.8-1.9c-2.2,0.9-4.8,1.6-7.4,2
		c-0.2-0.8-0.9-2-1.4-2.7v1h-5.9V28h-2.8V18h8.7v7.7c2-0.2,4.1-0.6,5.8-1.2c-0.9-0.7-1.6-1.5-2.3-2.4l1.1-0.3h-3.2v-2.3h12.1
		l0.5-0.1L199.4,20.3z M188.2,5.2h-4V2.7h4V1.3h3v5.3h-2.5l0.7,0.2c-0.2,0.4-0.3,0.9-0.6,1.3h2.6c-0.1-0.5-0.3-1-0.4-1.4l2.4-0.6
		V1.3h3v1.4h3.8v2.6h-3.8v1.4h-2.2c0.2,0.5,0.4,1,0.5,1.5h4.8v2.1h-5v1h4.2V13h-4.2v1h4.2v1.7h-4.2v1h5.5v2h-11.5V19h-2.8v-5.9
		c-0.3,0.4-0.7,0.8-1,1.1c-0.3-0.6-1.1-1.8-1.6-2.4v0.9h-8.6v-2.6h8.6v1.5c1.5-1.4,2.8-3.5,3.5-5.6l1.5,0.5V5.2H188.2z M174.6,14
		h8.6v2.6h-8.6V14z M180.4,20.7h-3V24h3V20.7z M191.7,10.2h-3v1h3V10.2z M191.7,12.9h-3v1h3V12.9z M191.7,15.6h-3v1h3V15.6z
		 M190.1,21.8c0.6,0.6,1.3,1.1,2.1,1.5c0.9-0.4,1.7-1,2.4-1.5H190.1z"/>
	<path class="st2" d="M204.4,15.2c0-7.1,4.6-11.2,10-11.2c2.7,0,4.9,1.3,6.3,2.8l-2.2,2.7c-1.1-1-2.3-1.8-4-1.8
		c-3.2,0-5.7,2.8-5.7,7.4c0,4.7,2.2,7.5,5.6,7.5c1.9,0,3.3-0.9,4.4-2.1l2.3,2.7c-1.8,2.1-4.1,3.2-6.8,3.2
		C208.9,26.2,204.4,22.3,204.4,15.2z"/>
	<path class="st2" d="M226,4.3h7c4.8,0,8.4,1.7,8.4,6.8c0,4.9-3.7,7.1-8.3,7.1h-2.9v7.6H226V4.3z M232.9,14.8c3,0,4.4-1.2,4.4-3.7
		s-1.6-3.3-4.5-3.3h-2.4v7H232.9z"/>
	<path class="st2" d="M249.7,14.7L244,4.3h4.8l2.1,4.4c0.5,1,1,2.1,1.6,3.4h0.1c0.5-1.3,1-2.4,1.4-3.4l2-4.4h4.5L255,14.9l6,10.9
		h-4.8l-2.4-4.8c-0.6-1.1-1-2.2-1.7-3.5H252c-0.5,1.3-1,2.4-1.6,3.5l-2.3,4.8h-4.6L249.7,14.7z"/>
</g>
</svg>
