<svg xmlns="http://www.w3.org/2000/svg" width="434.125" height="47.47" viewBox="0 0 434.125 47.47">
  <defs>
    <style>
      .cls-1 {
        fill-rule: evenodd;
      }
    </style>
  </defs>
  <path id="head-about.svg" class="cls-1" d="M516.528,3935.2h6.933l-19.918-44.5-20.928,44.5h6.934l4.6-10.15h17.964ZM496.8,3919l6.493-14.25,6.24,14.25H496.8Zm31.935-25.85v42.05H539.26c3.215,0,8.447-.57,11.787-4.1a10.251,10.251,0,0,0,2.774-7.56,10.927,10.927,0,0,0-2.774-7.88,11.51,11.51,0,0,0-5.421-3.03,6.952,6.952,0,0,0,3.152-2.9,9.166,9.166,0,0,0,1.261-4.98,10.793,10.793,0,0,0-3.341-8.32c-2.773-2.58-6.177-3.28-11.6-3.28h-6.367Zm6.43,6.06h2.206c1.828,0,3.656.18,5.106,1.57a5.2,5.2,0,0,1,1.513,4.04,6.4,6.4,0,0,1-1.639,4.79,7.38,7.38,0,0,1-5.232,1.63h-1.954v-12.03Zm0,17.33H539.2c2.269,0,4.854.19,6.619,1.89a6.3,6.3,0,0,1,1.7,4.41,6.043,6.043,0,0,1-2.08,4.67c-1.639,1.32-4.538,1.64-6.366,1.64h-3.908v-12.61Zm46.563-24.14c-12.607,0-21.873,9.45-21.873,21.81s9.266,21.81,21.873,21.81,21.873-9.46,21.873-21.81S594.333,3892.4,581.726,3892.4Zm0,37.69c-9.014,0-15.443-6.55-15.443-15.88s6.429-15.89,15.443-15.89,15.443,6.56,15.443,15.89S590.74,3930.09,581.726,3930.09Zm29.914-36.94v27.05a15.549,15.549,0,0,0,3.908,10.9,16.28,16.28,0,0,0,23.323,0,15.554,15.554,0,0,0,3.908-10.9v-27.05h-6.43v25.34c0,2.27-.063,5.05-1.323,7.25a9.2,9.2,0,0,1-15.633,0c-1.261-2.2-1.324-4.98-1.324-7.25v-25.34H611.64Zm62.507,6.06v-6.06H648.429v6.06h9.644v35.99h6.43v-35.99h9.644Zm43.659,0.25a14.33,14.33,0,0,0-3.215-4.23,12.426,12.426,0,0,0-8.447-2.83c-7.879,0-12.291,5.42-12.291,11.09,0,6.3,5.105,9.2,8.572,10.65l4.034,1.71c2.774,1.13,6.052,2.9,6.052,7.18a6.751,6.751,0,0,1-6.934,7.06,6.641,6.641,0,0,1-5.484-2.52,9.074,9.074,0,0,1-1.765-5.36l-6.366,1.39a13.59,13.59,0,0,0,3.53,8.19,12.288,12.288,0,0,0,9.9,4.23c7.879,0,13.552-5.49,13.552-13.49,0-4.79-2.143-9.21-9.9-12.36l-4.223-1.7c-4.1-1.64-4.539-3.84-4.539-5.1,0-2.72,2.017-5.05,5.925-5.05a6.535,6.535,0,0,1,6.43,4.16Zm9.184-6.31v27.05a15.551,15.551,0,0,0,3.909,10.9,16.279,16.279,0,0,0,23.322,0,15.549,15.549,0,0,0,3.908-10.9v-27.05H751.7v25.34c0,2.27-.063,5.05-1.324,7.25a9.2,9.2,0,0,1-15.632,0c-1.261-2.2-1.324-4.98-1.324-7.25v-25.34h-6.43Zm47.631,42.05v-29.38l30.509,31.96v-44.63H798.7v29.13l-30.508-31.96v44.88h6.429Zm71.707-39.78a19.992,19.992,0,0,0-11.22-3.02c-5.8,0-10.842,1.38-15.192,5.48a22,22,0,0,0-6.744,16.45,20.618,20.618,0,0,0,6.744,15.89,21.075,21.075,0,0,0,14.877,5.8,22.954,22.954,0,0,0,11.535-3.15v-7.63a16.682,16.682,0,0,1-11.346,4.85c-8.951,0-15.381-6.87-15.381-15.76,0-9.26,6.178-16.01,15.318-16.01a16.373,16.373,0,0,1,11.409,4.67v-7.57Zm7.921-2.27v27.05a15.549,15.549,0,0,0,3.908,10.9,16.279,16.279,0,0,0,23.322,0,15.549,15.549,0,0,0,3.908-10.9v-27.05h-6.429v25.34c0,2.27-.063,5.05-1.324,7.25a9.2,9.2,0,0,1-15.632,0c-1.261-2.2-1.324-4.98-1.324-7.25v-25.34h-6.429Zm62.506,6.06v-6.06H891.038v6.06h9.644v35.99h6.429v-35.99h9.644Z" transform="translate(-482.625 -3890.31)"/>
</svg>
