<?xml version="1.0" encoding="utf-8"?>
<!-- Generator: Adobe Illustrator 26.0.3, SVG Export Plug-In . SVG Version: 6.00 Build 0)  -->
<svg version="1.1" id="lead-product.svg" xmlns="http://www.w3.org/2000/svg" xmlns:xlink="http://www.w3.org/1999/xlink" x="0px"
	 y="0px" viewBox="0 0 180.7 49.2" style="enable-background:new 0 0 180.7 49.2;" xml:space="preserve">
<style type="text/css">
	.st0{fill:#1147B4;}
</style>
<g>
	<path d="M5.4,7.4c-0.2,1.2-0.4,2.2-0.8,3c0.9,1.3,2.4,1.5,4.6,1.5c1.5,0,3.8-0.1,5.4-0.2c-0.2,0.3-0.5,1.1-0.5,1.5
		c-1.4,0.1-3.2,0.1-4.8,0.1c-2.5,0-4.1-0.3-5.2-1.6c-0.5,0.8-1.1,1.4-1.8,1.9c-0.2-0.3-0.8-0.9-1.1-1.1c1.3-0.8,2.2-2.1,2.7-4H2.5
		c-0.3,0-0.7,0.1-0.9,0.2C1.6,8.3,1.3,7.6,1.1,7.3c0.2-0.1,0.5-0.2,0.7-0.4c0.3-0.3,0.8-1,1.4-1.8H1.4V3.8h2.8l0.2-0.1l1,0.5
		C4.9,5,4,6.2,3.3,7.2h1l0.3,0L5.4,7.4z M3.6,3.5C3.2,3,2.4,2,1.8,1.3L3,0.5c0.7,0.7,1.4,1.5,1.8,2.1L3.6,3.5z M7.2,2.8H5.4V1.5h3.3
		C8.6,1.3,8.5,1,8.3,0.8l1.3-0.5c0.3,0.3,0.6,0.8,0.8,1.1h3.7v1.3h-1.6c-0.2,0.4-0.4,0.7-0.5,1h1.9v6c0,0.7-0.1,1.1-0.6,1.3
		c-0.4,0.2-1.1,0.3-1.9,0.3c-0.1-0.3-0.2-0.8-0.4-1.2h-2v0.4H8v-3h1.3V6.8H7.6v-1h1.7V5H7.4v6.2H5.9V3.8h1.4C7.3,3.5,7.1,3.1,7,2.8
		L7.2,2.8z M10.5,3.8c0.1-0.3,0.3-0.7,0.4-1H8.5c0.2,0.3,0.3,0.7,0.4,1H10.5z M10.6,8.5H9.1v0.7h1.5V8.5z M12.3,5h-1.9v0.7h1.7v1
		h-1.7v0.8h1.3V10h0.4c0.2,0,0.2-0.1,0.2-0.2V5z"/>
	<path d="M23.4,1.2c-0.2,0.2-0.3,0.4-0.5,0.6c1.8,1.7,3.7,2.6,5.5,3.3c-0.4,0.4-0.9,1-1.1,1.5c-0.7-0.3-1.4-0.7-2-1v0.9h-7V5.9
		c-0.6,0.4-1.2,0.7-1.9,1c-0.3-0.5-0.8-1.1-1.2-1.5c2.6-1,5.2-2.7,6.7-4.9L23.4,1.2z M17.4,7.8h9v5.8h-1.8V13h-5.5v0.6h-1.7V7.8z
		 M19.1,9.2v2.2h5.5V9.2H19.1z M24.4,5c-0.8-0.5-1.6-1.2-2.4-2c-0.7,0.7-1.5,1.4-2.3,2H24.4z"/>
	<path d="M31.8,6.2c-0.5,0.8-1,1.5-1.6,2c-0.2-0.4-0.7-0.9-1.1-1.1c0.9-0.7,1.8-1.9,2.4-3.1h-2V2.5h2.3v-2h1.6v2h2v1.4h-2v0.5
		c0.6,0.3,1.9,1.3,2.2,1.5l-0.9,1.3C34.4,7,33.9,6.5,33.4,6v2.9h-1.6V6.2z M29.3,12.1c0.5-0.7,1-1.9,1.2-2.9L32,9.8
		c-0.3,1-0.7,2.2-1.2,3.1L29.3,12.1z M37.3,11.9c0.7,0,0.8-0.2,0.8-1.6c0.3,0.3,1,0.5,1.5,0.6c-0.2,2-0.7,2.5-2.2,2.5h-2.5
		c-1.9,0-2.4-0.5-2.4-1.9V9.5h1.7v1.9c0,0.4,0.1,0.5,0.9,0.5H37.3z M35.6,8.4l0.3,0.3V1.2h5.7v7.5H36c0.5,0.5,1.1,1.1,1.5,1.5
		l-1.2,1c-0.4-0.5-1.2-1.4-1.8-1.9L35.6,8.4z M37.4,3.4H40V2.6h-2.6V3.4z M37.4,5.4H40V4.6h-2.6V5.4z M37.4,7.5H40V6.6h-2.6V7.5z
		 M40.7,9c0.6,0.9,1.4,2.1,1.8,2.8l-1.6,0.8c-0.3-0.7-1.1-2-1.7-2.9L40.7,9z"/>
	<path d="M53.4,9.8c-0.4,0.6-0.8,1.1-1.3,1.5c1.5,0.4,2.8,0.7,3.9,1.1l-1.5,1.2c-1-0.4-2.4-0.8-4-1.2c-1.6,0.7-3.7,1.1-6.4,1.3
		c-0.1-0.5-0.4-1.1-0.6-1.4c1.7-0.1,3.2-0.2,4.4-0.5c-0.9-0.2-1.8-0.4-2.7-0.5c0.3-0.4,0.7-0.8,1.1-1.3h-2.7V8.5H47
		c0.3-0.4,0.5-0.9,0.7-1.3h-3.4V3.3h3V2.5h-3.7V1h12.2v1.4h-3.8v0.8h3.3v3.9h-7.5l1.5,0.3c-0.1,0.3-0.3,0.6-0.5,0.9h3.4
		c0.1-0.3,0.2-0.5,0.3-0.8l1.6,0.4c0,0.1-0.1,0.3-0.1,0.4h2.1v1.4H53.4z M45.9,5.9h1.5V4.6h-1.5V5.9z M48,9.8
		c-0.1,0.2-0.3,0.4-0.4,0.5c0.8,0.2,1.7,0.3,2.5,0.5c0.5-0.3,0.9-0.6,1.3-1H48z M48.9,3.3h1.6V2.5h-1.6V3.3z M50.5,5.9V4.6h-1.6v1.3
		H50.5z M52.1,4.6v1.3h1.7V4.6H52.1z"/>
	<path d="M61.9,1.1c-0.4,1-0.8,2-1.4,2.9v9.6H59V6.4c-0.3,0.4-0.7,0.8-1,1.1c-0.2-0.4-0.6-1.3-0.9-1.7c1.3-1.3,2.6-3.2,3.3-5.2
		L61.9,1.1z M64.4,9.6c-0.6,1.2-1.4,2.6-2.1,3.4c-0.3-0.3-0.9-0.7-1.3-0.9c0.7-0.8,1.5-1.9,1.9-3L64.4,9.6z M66.6,8.7v4.9h-1.7V8.7
		h-3.7V7.2h3.7V6h-2.7V1.1h7.4V6h-2.9v1.2h3.6v1.5H66.6z M63.8,4.5h4.1V2.6h-4.1V4.5z M68.3,9.1c0.8,0.9,1.7,2.1,2.1,3l-1.3,0.8
		c-0.4-0.8-1.2-2.1-2-3.1L68.3,9.1z"/>
	<path d="M75.8,8c-0.4,0.1-0.8,0.3-1.3,0.4v3.3c0,0.8-0.1,1.2-0.6,1.4c-0.4,0.3-1,0.3-1.9,0.3c0-0.4-0.2-1.1-0.4-1.5
		c0.5,0,1,0,1.2,0c0.2,0,0.2-0.1,0.2-0.2V8.8l-1.5,0.4l-0.4-1.6c0.5-0.1,1.1-0.3,1.8-0.5V4.7h-1.6V3.2H73V0.6h1.5v2.6h1.1v1.5h-1.1
		v2l1.1-0.3L75.8,8z M84.3,2.1v1.5h-3.4v1.1h2.8v1.5h-7.2V4.8h2.8V3.7h-3.5V2.1h3.5V0.6h1.6v1.5H84.3z M82.7,7.5h1.5V9h-1.5v2.9
		c0,0.8-0.2,1.2-0.7,1.5c-0.5,0.2-1.3,0.3-2.3,0.3c-0.1-0.5-0.3-1.1-0.5-1.6c0.6,0,1.4,0,1.6,0c0.2,0,0.3,0,0.3-0.2V9H76V7.5h5.2v-1
		h1.6V7.5z M78,9.1c0.5,0.7,1.2,1.7,1.6,2.3l-1.4,0.8c-0.3-0.6-1-1.7-1.5-2.5L78,9.1z"/>
	<path d="M96.9,11.8c0.1,0,0.1,0,0.2-0.1c0-0.1,0.1-0.2,0.1-0.5c0-0.3,0-1,0-1.8c0.3,0.3,0.9,0.6,1.3,0.7c0,0.7-0.1,1.7-0.2,2.1
		c-0.1,0.4-0.2,0.7-0.5,0.9c-0.2,0.2-0.5,0.2-0.8,0.2h-0.8c-0.3,0-0.7-0.1-1-0.4c-0.3-0.3-0.4-0.6-0.4-1.8V2.6h-1.5v4.1
		c0,2.2-0.2,5.2-1.5,7c-0.3-0.3-1-0.8-1.4-1c-0.1,0.2-0.2,0.3-0.4,0.4c-0.4,0.3-1,0.3-1.9,0.3c0-0.4-0.3-1.2-0.5-1.6
		c0.5,0,1,0,1.2,0c0.2,0,0.2-0.1,0.2-0.3V8.4c-0.3,0.3-0.7,0.7-1,1l-0.4-0.8c-0.1,1.8-0.4,3.7-1,5c-0.3-0.2-1-0.6-1.4-0.8
		c0.9-1.9,0.9-4.7,0.9-6.8V1h4.5v10.7c0,0.4,0,0.7-0.1,0.9c1.1-1.6,1.2-4,1.2-5.9V1h4.8v10.1c0,0.4,0,0.5,0.1,0.6
		c0,0.1,0.1,0.1,0.1,0.1H96.9z M87.6,6.1c0,0.6,0,1.2,0,1.8c0.4-0.3,0.9-0.6,1.5-1v-1l-0.5,0.4c-0.2-0.3-0.6-0.7-1-1.1V6.1z
		 M87.6,2.6v1.6l0.4-0.3c0.3,0.3,0.7,0.6,1,1V2.6H87.6z"/>
	<path d="M109.7,5.1c0.5,0,1.6-0.1,1.9-0.1c0,0.4,0.1,0.7,0.1,1c-0.4,0.1-1.1,0.1-1.8,0.1h-3.3c-1.3,0-1.7-0.4-1.8-1.2l-2.3,0.1
		l0-0.7l2.3-0.1V3.7H102v2.5c0,2.1-0.2,5.3-1.4,7.3c-0.3-0.3-1-0.7-1.4-0.8c1.1-1.9,1.2-4.6,1.2-6.5V2.6h4.4V0.5h1.7v0.6h4.4v1h-4.4
		v0.4h4l0.3-0.1l1.2,0.3c-0.3,0.7-0.6,1.5-0.9,2l-1.4-0.4c0.1-0.2,0.2-0.5,0.3-0.7h-3.7v0.4l3.1-0.1l0,0.7l-3.1,0.1
		c0,0.2,0.2,0.3,0.6,0.3H109.7z M110.6,12.3c0,0.6-0.1,0.9-0.5,1.1c-0.4,0.2-1,0.2-1.8,0.2c-0.1-0.3-0.3-0.7-0.4-1c0.4,0,0.8,0,1,0
		c0.1,0,0.2,0,0.2-0.2V12c-1.3,0.2-2.6,0.4-3.7,0.6l-0.3-1.1c0.8-0.1,1.8-0.2,2.9-0.3c-0.7-0.2-1.8-0.5-2.7-0.6l0.4-0.6
		c1,0.1,2.4,0.4,3.1,0.6l-0.3,0.6l0.7-0.1v-1.1h-4.1v0.8c0,1-0.2,2.2-1.1,2.9c-0.3-0.3-1-0.8-1.3-1c0.8-0.6,0.8-1.3,0.8-2V9.4h7.3
		V12.3z M102.6,6.3h8.7V9h-8.7V6.3z M104.1,7.4h2V7h-2V7.4z M104.1,8.4h2V8h-2V8.4z M109.7,7h-2.1v0.4h2.1V7z M109.7,8h-2.1v0.4h2.1
		V8z"/>
	<path d="M125.1,2.6v11h-1.8v-0.9h-7.1v0.9h-1.7v-11h3.5c0.2-0.7,0.5-1.5,0.6-2.1l2.2,0.3c-0.3,0.6-0.5,1.2-0.8,1.8H125.1z
		 M116.2,4.3v2.5h7.1V4.3H116.2z M123.3,11V8.4h-7.1V11H123.3z"/>
	<path d="M129.6,5.2c-0.4,0.8-1,1.5-1.5,1.9c-0.2-0.4-0.7-0.9-1.1-1.2c0.8-0.6,1.6-1.6,2.2-2.6h-1.8V2h2.1V0.6h1.6V2h1.9v1.3h-1.9
		v0.3c0.6,0.3,1.6,0.9,1.9,1l-0.8,1.4c-0.3-0.3-0.7-0.6-1.1-1v2.5h-1.6V5.2z M136.7,7.5V4.7h-1.6c-0.1,0.8-0.4,1.7-1,2.4l0.8,0.2
		c-0.2,0.3-0.4,0.5-0.6,0.8h4.2v5.6h-1.7v-0.4H131v0.5h-1.6V8h3.2c0.2-0.4,0.3-0.8,0.4-1.1h0c-0.2-0.2-0.4-0.3-0.6-0.4
		c1.1-0.9,1.2-2.1,1.2-3.1v-2c1.8-0.2,3.7-0.5,4.9-0.9l1.1,1.2c-1.3,0.4-2.9,0.6-4.5,0.8v0.9h5v1.3h-1.8v2.7H136.7z M136.8,9.3H131
		V10h5.8V9.3z M136.8,11.9v-0.7H131v0.7H136.8z"/>
	<path d="M154,2.7c0,0,0,0.6,0,0.8c-0.2,6.3-0.3,8.5-0.9,9.2c-0.4,0.5-0.8,0.7-1.3,0.8c-0.5,0.1-1.4,0.1-2.2,0
		c0-0.5-0.3-1.2-0.5-1.6c0.9,0.1,1.7,0.1,2.1,0.1c0.3,0,0.4-0.1,0.6-0.2c0.4-0.4,0.6-2.5,0.7-7.5h-3c-0.4,0.8-0.8,1.6-1.2,2.2
		c-0.2-0.2-0.7-0.5-1.1-0.8v6.5h-3.7v1h-1.5V2.8h1.6c0.2-0.7,0.4-1.6,0.4-2.3l1.8,0.3c-0.2,0.7-0.5,1.4-0.7,2h2.2v2.3
		c0.8-1.2,1.5-2.9,1.9-4.5l1.6,0.4c-0.2,0.6-0.3,1.2-0.5,1.8H154z M145.6,4.2h-2.2v2.3h2.2V4.2z M145.6,10.7V8h-2.2v2.7H145.6z
		 M150.2,10c-0.4-0.8-1.3-2.2-1.9-3.2l1.3-0.7c0.7,1,1.6,2.3,2.1,3.1L150.2,10z"/>
	<path d="M162.6,0.6c0,0.6,0,1.3-0.1,2.2c0.2,1.9,1.1,7.2,5.9,9.3c-0.5,0.4-1,1-1.2,1.4c-3.1-1.5-4.7-4.2-5.5-6.6
		c-0.8,2.5-2.2,5-5.2,6.7c-0.3-0.4-0.8-1-1.4-1.4c5.7-3,5.4-9.3,5.5-11.7H162.6z"/>
</g>
<g>
	<path class="st0" d="M6.6,41.2c0.2-0.7,0.5-1.6,0.7-2.5H6.1v6.8c0,1.1-0.2,1.7-0.9,2.1S3.4,48,2.1,48c-0.1-0.7-0.4-1.6-0.7-2.3
		c0.9,0,1.8,0,2.1,0c0.3,0,0.4-0.1,0.4-0.3v-6.7h-3v-2.1h4.3c-1-0.8-2.3-1.5-3.5-2.1L2.8,33c0.6,0.3,1.2,0.6,1.8,0.9
		c0.4-0.5,0.9-1,1.3-1.6H1.3v-2.1h6.1l0.4-0.1l1.4,1v-0.9h10.2v2h-3.8c-0.1,0.5-0.3,0.9-0.4,1.3h3.6V44H9.9V33.5h2.9
		c0.1-0.4,0.1-0.9,0.2-1.3H9.2v-0.9c-0.8,1.2-1.8,2.6-2.8,3.7c0.5,0.3,0.9,0.6,1.2,0.9L7,36.6h1l0.3-0.1l1.4,0.3
		c-0.4,1.7-1,3.5-1.4,4.7L6.6,41.2z M13.7,45.3c-1.1,1.1-3,2.2-4.5,2.8c-0.4-0.5-1.1-1.1-1.6-1.6c1.6-0.5,3.3-1.6,4.2-2.5L13.7,45.3
		z M16.5,35.2H12v1.3h4.5V35.2z M16.5,38.1H12v1.3h4.5V38.1z M16.5,41H12v1.3h4.5V41z M16.5,44.2c1.1,0.7,2.6,1.8,3.4,2.6L18,48.1
		c-0.7-0.8-2.2-1.9-3.3-2.7L16.5,44.2z"/>
	<path class="st0" d="M28.4,31.1c-0.5,1.8-1.2,4-1.8,5.6c1.3,1.6,1.5,3,1.5,4.1c0,1.3-0.3,2.1-0.9,2.6c-0.3,0.2-0.7,0.4-1.2,0.4
		c-0.4,0.1-0.9,0.1-1.3,0.1c0-0.6-0.2-1.5-0.5-2.1c0.4,0,0.7,0,0.9,0c0.2,0,0.4,0,0.6-0.2c0.2-0.2,0.3-0.6,0.3-1.2
		c0-0.9-0.3-2.2-1.4-3.6c0.4-1.3,0.9-3.1,1.2-4.5h-1.8V48h-2.2V30.2h4.7l0.3-0.1L28.4,31.1z M32.9,34.8c0,0.8-0.1,1.6-0.1,2.4h5.5
		c0,0,0,0.7,0,1c-0.2,5.8-0.4,8.1-1,8.9c-0.5,0.6-0.9,0.8-1.6,0.9C35.1,48,34.1,48,33.1,48c0-0.7-0.3-1.7-0.7-2.4
		c0.9,0.1,1.7,0.1,2.1,0.1c0.3,0,0.5-0.1,0.7-0.3c0.4-0.4,0.6-2,0.7-6.1h-3.3c-0.5,3.8-1.7,6.7-5.2,8.7c-0.3-0.6-1-1.4-1.5-1.8
		c4.3-2.3,4.6-6.2,4.7-11.4H28v-2.2h4.9c-0.2-0.8-0.5-1.9-0.8-2.8l2.2-0.5c0.4,0.9,0.8,2.1,0.9,2.8l-1.6,0.5h5.8v2.2H32.9z"/>
	<path class="st0" d="M46.9,44.7c-2,0.6-4.1,1.2-5.9,1.7l-0.5-2.2c0.6-0.1,1.4-0.3,2.2-0.5V39h-1.6v-2.1h1.6v-4.1H41v-2.2h5.5v2.2
		h-1.7v4.1h1.4V39h-1.4v4.1l1.8-0.5L46.9,44.7z M50.9,45.5c-0.2-0.5-0.4-1.1-0.7-1.7c-0.8,1.6-1.7,3.1-2.9,4.2
		c-0.3-0.4-1.1-1.3-1.5-1.6c1.5-1.3,2.5-3,3.3-5.1c-0.8-1.6-1.7-3.3-2.5-4.7l1.7-1c0.5,0.8,1,1.8,1.5,2.7c0.2-1,0.4-2.1,0.6-3.2
		h-3.9v-2.1h2.8c-0.2-0.8-0.7-2-1.1-2.8l2.1-0.7c0.4,0.9,1,2.1,1.3,2.9l-1.7,0.6h3.5v2.1h-0.9c-0.3,2.1-0.7,4.1-1.2,5.8
		c0.6,1.2,1.2,2.4,1.6,3.3L50.9,45.5z M59.6,45.2v2.2H52v-2.2h2.9v-5.5h-1.9v-2.1h1.9v-4.8h-2.1v-2.2h6.6v2.2h-2.3v4.8h1.8v2.1h-1.8
		v5.5H59.6z"/>
	<path class="st0" d="M60.7,47.1c0.6-0.9,1-2.4,1.3-3.6l1.6,0.6c-0.3,1.2-0.6,2.7-1.2,3.7L60.7,47.1z M70.3,43h-9.1v-1.8h3.5v-1
		h-3.1v-1.8h3.1v-0.9h-3.1V30H70v7.5h-3.2v0.9H70v1.8h-3.2v1h3.5V43z M63.4,35.9H65v-4.3h-1.7v0.8l0.9-0.3c0.3,0.9,0.6,2.1,0.6,2.9
		l-1,0.3c0-0.8-0.2-1.9-0.5-2.8V35.9z M65.4,43.9c0.2,1.1,0.3,2.5,0.3,3.5l-1.5,0.2c0-1,0-2.4-0.2-3.5L65.4,43.9z M67.4,43.7
		c0.4,1,0.7,2.4,0.8,3.3l-1.5,0.3c-0.1-0.9-0.4-2.3-0.8-3.3L67.4,43.7z M68.2,31.6h-1.7v3.3c0.3-0.8,0.6-2,0.8-2.7l1,0.3V31.6z
		 M68.2,35.9v-2.8c-0.3,0.8-0.6,1.7-0.9,2.3L66.5,35v0.9H68.2z M75.7,35.7v3.1h3.2V48h-2.3v-0.7h-3.7V48h-2.2v-1.4l-1.5,0.6
		C69.1,46.3,68.5,45,68,44l1.4-0.5c0.6,0.9,1.1,2.1,1.4,3v-7.7h2.6v-9.4h2.3v4.1h3.9v2.2H75.7z M76.6,40.9h-3.7v4.2h3.7V40.9z"/>
	<path class="st0" d="M92.8,38.7c0,1.4-1.2,2.6-2.6,2.6c-1.4,0-2.6-1.2-2.6-2.6s1.2-2.6,2.6-2.6C91.6,36.1,92.8,37.3,92.8,38.7z"/>
	<path class="st0" d="M117.5,45.5c0.1,0,0.2,0,0.2-0.1c0.1-0.1,0.1-0.3,0.1-0.7c0-0.4,0.1-1.4,0.1-2.6c0.5,0.4,1.2,0.8,1.9,1
		c0,1.1-0.1,2.4-0.2,3s-0.3,1-0.7,1.2c-0.3,0.2-0.8,0.3-1.2,0.3h-1.1c-0.5,0-1-0.2-1.4-0.5c-0.4-0.4-0.5-0.9-0.5-2.6V32.3h-2.2v5.9
		c0,3.1-0.3,7.4-2.2,10c-0.4-0.4-1.4-1.1-2-1.4c-0.1,0.3-0.3,0.4-0.6,0.6c-0.6,0.4-1.5,0.4-2.8,0.4c-0.1-0.6-0.4-1.7-0.7-2.3
		c0.7,0,1.5,0,1.7,0c0.3,0,0.3-0.1,0.3-0.4v-4.6c-0.5,0.5-1,1-1.5,1.5l-0.6-1.2c-0.2,2.5-0.6,5.2-1.5,7.2c-0.4-0.3-1.4-0.9-2-1.1
		c1.2-2.7,1.3-6.7,1.3-9.7v-7.2h6.5v15.2c0,0.5,0,1-0.2,1.3c1.5-2.3,1.7-5.7,1.7-8.4v-8.2h6.9v14.5c0,0.5,0,0.8,0.1,0.9
		c0,0.1,0.1,0.1,0.2,0.1H117.5z M104.3,37.3c0,0.8,0,1.7-0.1,2.6c0.6-0.4,1.3-0.9,2.1-1.5V37l-0.7,0.5c-0.3-0.4-0.8-1-1.4-1.6V37.3z
		 M104.3,32.3v2.3l0.6-0.5c0.5,0.4,1,0.9,1.4,1.4v-3.2H104.3z"/>
	<path class="st0" d="M135.9,35.8c0.8,0,2.2-0.1,2.7-0.2c0.1,0.6,0.1,1,0.2,1.4c-0.5,0.1-1.6,0.2-2.6,0.2h-4.8
		c-1.9,0-2.4-0.6-2.5-1.7l-3.3,0.1l0-1l3.3-0.1v-0.6h-4v3.6c0,3.1-0.3,7.6-2,10.5c-0.4-0.4-1.5-1-2-1.2c1.6-2.7,1.7-6.5,1.7-9.3
		v-5.1h6.3v-3h2.4v0.9h6.3v1.5h-6.3v0.6h5.8l0.4-0.1l1.8,0.5c-0.4,1-0.8,2.2-1.3,2.9l-2-0.6c0.1-0.3,0.3-0.7,0.4-1.1H131v0.6
		l4.4-0.1l0,1l-4.4,0.1c0.1,0.3,0.3,0.4,0.9,0.4H135.9z M137.1,46.2c0,0.9-0.2,1.2-0.8,1.5c-0.6,0.2-1.4,0.2-2.5,0.2
		c-0.1-0.5-0.4-1-0.6-1.5c0.6,0,1.2,0,1.4,0c0.2,0,0.3-0.1,0.3-0.3v-0.5c-1.9,0.3-3.8,0.6-5.3,0.9l-0.5-1.5c1.1-0.1,2.6-0.2,4.2-0.4
		c-1.1-0.3-2.6-0.7-3.9-0.9l0.5-0.9c1.4,0.2,3.4,0.6,4.4,0.9l-0.4,0.8l1-0.1V43h-5.9v1.1c0,1.5-0.2,3.1-1.6,4.2
		c-0.4-0.4-1.4-1.2-1.9-1.4c1.1-0.8,1.2-1.8,1.2-2.8v-2h10.4V46.2z M125.6,37.6h12.5v3.8h-12.5V37.6z M127.7,39.1h2.9v-0.6h-2.9
		V39.1z M127.7,40.6h2.9V40h-2.9V40.6z M135.8,38.6h-3v0.6h3V38.6z M135.8,40h-3v0.6h3V40z"/>
	<path class="st0" d="M156.9,45.5c0.6,0,0.8-0.3,0.8-2.6c0.6,0.4,1.4,0.6,2,0.7c-0.2,3.5-1,4.2-2.9,4.2H154c-2.3,0-3.3-1-3.3-2.5
		c0-1,0.2-2,3.8-6.7h-3.1v-1.6l-0.1,0.2c-0.3-0.3-0.8-0.8-1.3-1.2v5.4h-3v1.2h3.4v2.1h-3.4V48h-2.3v-3.3H141v-2.1h3.6v-1.2h-2.9
		v-7.1h2.9v-1.1h-3.3v-2.1h3.3v-1.9h2.3v1.9h3.3v2.1h-3.3v1.1h3v0.5c1.1-1.4,1.9-3.5,2.4-5.6l2.4,0.5c-0.2,0.8-0.4,1.6-0.7,2.4h5.5
		v2.2H153c-0.4,0.8-0.8,1.5-1.3,2.1h4.8l0.5,0l1.5,0.6c-0.1,0.1-0.1,0.3-0.2,0.4c-4.9,5.8-5.3,6.7-5.3,7.4c0,0.4,0.3,0.5,0.9,0.5
		H156.9z M147.7,36.1h-3.9v1h3.9V36.1z M147.7,38.8h-3.9v1h3.9V38.8z"/>
	<path class="st0" d="M164.3,41h2.4v1.5c0,1.7-0.6,4.2-4.2,5.6c-0.4-0.5-1.1-1.2-1.7-1.6c3.1-1.1,3.5-2.9,3.5-4.1V41z M165.5,32.5
		h-4.1v-2h4.1v-1.1h2.3v1.1h2.1v2h-2.1v1.4h-2.3V32.5z M173.7,38.4c1.1,0,3-0.1,3.7-0.2c0.1,0.7,0.2,1.4,0.3,2
		c-0.6,0.1-2.3,0.2-3.6,0.2h-6.5c-2.9,0-3.7-0.7-3.7-2.7v-0.8h-2.3v-2h7.8c-0.2-0.4-0.4-0.9-0.6-1.3l2.2-0.5
		c0.3,0.6,0.7,1.2,0.9,1.8h7.2v2h-12.8v0.8c0,0.6,0.2,0.8,1.3,0.8H173.7z M168.9,41.1h2.3v6.6h-2.3V41.1z M172.5,32.5h-2v-2h2v-1.1
		h2.4v1.1h4.2v2h-4.2V34h-2.4V32.5z M177.9,45.9c0.4,0,1.1,0,1.4-0.1c0,0.6,0.1,1.4,0.2,1.9c-0.4,0.1-1,0.1-1.5,0.1h-2
		c-2.1,0-2.5-0.8-2.5-2.8v-4h2.3v4.1c0,0.6,0.1,0.8,0.5,0.8H177.9z"/>
</g>
</svg>
