<svg id="lead-product.svg" xmlns="http://www.w3.org/2000/svg" width="178.843" height="49.188" viewBox="0 0 178.843 49.188">
  <defs>
    <style>
      .cls-1 {
        fill: #1147b4;
      }

      .cls-1, .cls-2 {
        fill-rule: evenodd;
      }
    </style>
  </defs>
  <path id="肌を白く保ちたい方に_シミ_肌あれも防ぐ_" data-name="肌を白く保ちたい方に シミ・肌あれも防ぐ " class="cls-1" d="M764.685,169.028A18.329,18.329,0,0,1,768.9,171.3a0.405,0.405,0,0,0,.25.125,0.452,0.452,0,0,0,.272-0.208,8.551,8.551,0,0,0,.919-1.584,0.605,0.605,0,0,0,.083-0.229,0.4,0.4,0,0,0-.229-0.313,14.5,14.5,0,0,0-4.01-2.041,0.364,0.364,0,0,0-.4.208C765.541,167.59,765.207,168.2,764.685,169.028Zm2.527-4.9a20.225,20.225,0,0,1,4.052,2.562,0.534,0.534,0,0,0,.313.146,0.231,0.231,0,0,0,.209-0.125,8.886,8.886,0,0,0,1.065-1.562,0.5,0.5,0,0,0,.084-0.271,0.331,0.331,0,0,0-.167-0.271,14.219,14.219,0,0,0-3.927-2.313,0.33,0.33,0,0,0-.522.167C767.964,163.007,767.567,163.59,767.212,164.132Zm-0.877,11.875a13.173,13.173,0,0,0,1.545,2.125,0.539,0.539,0,0,0,.418.25,0.46,0.46,0,0,0,.334-0.166,6.88,6.88,0,0,1,1.212-.709,48.5,48.5,0,0,0,6.244-3.916,38.914,38.914,0,0,0,5.305-4.813,0.649,0.649,0,0,0,.23-0.479,1.014,1.014,0,0,0-.105-0.4,10.389,10.389,0,0,1-.605-2.333,38.013,38.013,0,0,1-6.015,5.812,34.919,34.919,0,0,1-5.723,3.6A9.623,9.623,0,0,1,766.335,176.007Zm22.377-12.167a34.268,34.268,0,0,1,7.895,2.4,0.315,0.315,0,0,0,.5-0.146,17.178,17.178,0,0,0,.731-1.812c0.125-.271.083-0.375-0.251-0.521a38.516,38.516,0,0,0-7.435-2.188,0.394,0.394,0,0,0-.564.271C789.422,162.173,788.963,163.236,788.712,163.84Zm-1.4,5.417a30.826,30.826,0,0,1,6.829,2.229,0.505,0.505,0,0,0,.272.084,0.392,0.392,0,0,0,.292-0.271,13.174,13.174,0,0,0,.689-1.6,0.4,0.4,0,0,0-.271-0.6,32.671,32.671,0,0,0-6.37-2.02,0.374,0.374,0,0,0-.543.208A20.342,20.342,0,0,0,787.313,169.257Zm-0.334,6.188A38.079,38.079,0,0,1,797.3,178.9a0.625,0.625,0,0,0,.292.1,0.389,0.389,0,0,0,.313-0.25,16.153,16.153,0,0,0,.836-1.708,0.365,0.365,0,0,0-.209-0.562,35.638,35.638,0,0,0-10-3.251,0.466,0.466,0,0,0-.585.25A21.674,21.674,0,0,0,786.979,175.445Zm21.4-7.355a2.084,2.084,0,1,0,2.088,2.084A2.093,2.093,0,0,0,808.381,168.09Zm20.1-4.521h2.443v13.918a1.631,1.631,0,0,0,.564,1.52,3.671,3.671,0,0,0,1.775.292,2.449,2.449,0,0,0,2.047-.6c0.355-.417.564-1.083,0.647-3.48,0.021-.541.063-0.6-0.459-0.749a4.125,4.125,0,0,1-1.232-.542c-0.021,2.125-.105,3-0.272,3.146a0.519,0.519,0,0,1-.459.146,0.484,0.484,0,0,1-.4-0.125,0.918,0.918,0,0,1-.084-0.6V165.361c0-2.313.042-3.479,0.042-3.625,0-.208-0.021-0.229-0.23-0.229-0.146,0-.605.041-2.046,0.041h-2.277c-1.42,0-1.838-.041-1.984-0.041-0.209,0-.23.021-0.23,0.229,0,0.1.021,0.875,0.021,2.354,0,2.188.021,3.459-.041,4.813-0.188,4.417-.669,6.875-1.984,8.6a1.636,1.636,0,0,0,.02-0.312c0-.854-0.02-1.917-0.02-2.875v-9.251c0-2.187.041-3.333,0.041-3.458,0-.208-0.021-0.229-0.229-0.229-0.147,0-.564.041-1.859,0.041h-2.047c-1.316,0-1.733-.041-1.859-0.041-0.229,0-.25.021-0.25,0.229,0,0.146.042,1.271,0.042,3.458v3.417c0,5.625-.46,7.751-1.713,9.751a4.254,4.254,0,0,1,1.211,1.041,0.765,0.765,0,0,0,.4.354,0.6,0.6,0,0,0,.355-0.416,14.936,14.936,0,0,0,1.566-6.084h2.361v3.438a0.609,0.609,0,0,1-.669.75,9.845,9.845,0,0,1-1.316-.084,4.926,4.926,0,0,1,.5,1.48c0.125,0.666.125,0.666,0.772,0.646a2.9,2.9,0,0,0,2.047-.563,1.664,1.664,0,0,0,.418-0.562,6.614,6.614,0,0,1,1.086.875,0.981,0.981,0,0,0,.438.354,0.667,0.667,0,0,0,.376-0.375,11.632,11.632,0,0,0,1.964-4.938,46.739,46.739,0,0,0,.522-8.646v-1.938Zm-8.375,7.647c0.021-.813.042-1.709,0.042-2.709v-0.333h2.193v3.042H820.11Zm2.235-7.813v2.854h-2.193V163.4h2.193Zm23.291-2.25a4.856,4.856,0,0,1,.084.937c0,0.584-.084,1.521-0.167,2.271a31.869,31.869,0,0,1-4.052-.083c0.042,0.583.042,1.125,0.1,1.583a0.4,0.4,0,0,0,.376.479,8.271,8.271,0,0,0,1.191.042c0.355,0,.919.021,2.151-0.021-0.042.792-.084,1.708-0.105,2.6-2.568,1.271-4.887,3.813-4.887,6.48a2.272,2.272,0,0,0,2.319,2.583,6.579,6.579,0,0,0,3.634-1.5,4.067,4.067,0,0,0,.355.813c0.125,0.208.208,0.208,0.417,0.1a6.624,6.624,0,0,0,1.253-.729,0.346,0.346,0,0,0,.167-0.521,6.282,6.282,0,0,1-.375-0.938,22.067,22.067,0,0,0,3.947-5.458,3.113,3.113,0,0,1,2.59,3.021,3.586,3.586,0,0,1-1.671,3.125,12.047,12.047,0,0,1-3.885,1.521,5.306,5.306,0,0,1,1.232,1.291,0.65,0.65,0,0,0,.919.4c3.321-.895,5.806-2.854,5.806-5.875,0-2.6-1.587-4.375-4.281-5.083a1.79,1.79,0,0,1,.271-0.417,0.359,0.359,0,0,0,.126-0.25,0.694,0.694,0,0,0-.376-0.458,8.388,8.388,0,0,0-1.859-.771,5.109,5.109,0,0,1-.355,1.52,12.562,12.562,0,0,0-3.2.459c0.02-.729.062-1.229,0.146-2.1a44.565,44.565,0,0,0,5.931-.875,0.437,0.437,0,0,0,.439-0.417,6.483,6.483,0,0,0-.209-1.417c-0.042-.187-0.105-0.271-0.355-0.208a40.388,40.388,0,0,1-5.43.875c0.062-.354.1-0.667,0.167-1.042a1.609,1.609,0,0,1,.292-0.75,0.455,0.455,0,0,0,.105-0.333,0.434,0.434,0,0,0-.376-0.375A11.391,11.391,0,0,0,845.636,161.153Zm1.88,12.042a22.3,22.3,0,0,1-.251-3.125,9.82,9.82,0,0,1,2.673-.48A19.111,19.111,0,0,1,847.516,173.2Zm-2.3-2.188a26.946,26.946,0,0,0,.418,3.583,4.478,4.478,0,0,1-2.423,1.209,0.712,0.712,0,0,1-.689-0.792C842.524,173.653,843.61,172.153,845.218,171.007Zm21.308-4.9c-1.065.334-2.235,0.625-2.945,0.792a9.569,9.569,0,0,1-1.525.188,10.977,10.977,0,0,0,.815,1.916,0.5,0.5,0,0,0,.418.333,1.815,1.815,0,0,0,.605-0.291,19.6,19.6,0,0,1,2.506-.834c-0.02.5-.02,0.9-0.02,1.417-1.274,1.792-2.36,3.271-4.094,5.48a0.542,0.542,0,0,0-.188.354,0.321,0.321,0,0,0,.125.229,6.739,6.739,0,0,0,1.3,1.167,0.588,0.588,0,0,0,.251.1,0.305,0.305,0,0,0,.23-0.209c0.772-1.187,1.608-2.479,2.422-3.75-0.062,1.875-.062,4.063-0.062,5.959,0,0.25.083,0.354,0.292,0.354a15.949,15.949,0,0,0,1.629-.083,0.255,0.255,0,0,0,.292-0.292c0-2.271-.062-5.271-0.083-7.9,1.086-1.25,2.067-2.229,2.924-3.063a4.075,4.075,0,0,1,2.339-1.354c0.418,0,.647.459,0.647,1.375,0,0.9-.041,1.583-0.146,3.417-0.1,1.771-.167,2.937-0.167,3.5,0,2.167.877,3.188,2.673,3.188a5.049,5.049,0,0,0,4.01-2.4,0.6,0.6,0,0,0,.146-0.354,0.782,0.782,0,0,0-.229-0.48,5.161,5.161,0,0,1-.773-1.562,5.483,5.483,0,0,1-1.253,1.75,2.727,2.727,0,0,1-1.546.75c-0.522,0-.772-0.146-0.772-1.188,0-.646.1-1.583,0.208-3.5,0.147-1.917.167-3.187,0.167-3.792,0-1.729-.939-2.771-2.506-2.771-0.981,0-2.13.48-3.78,2.042-0.814.792-1.274,1.271-1.942,2.021v-0.1a22.389,22.389,0,0,1,1.086-1.979,0.437,0.437,0,0,0,.1-0.23,0.36,0.36,0,0,0-.188-0.291,6.582,6.582,0,0,0-.793-0.458c0.042-.959.062-1.4,0.1-2.084a2.539,2.539,0,0,1,.188-1.021,0.837,0.837,0,0,0,.146-0.4,0.431,0.431,0,0,0-.438-0.417,11.8,11.8,0,0,0-2.381-.395,7.614,7.614,0,0,1,.209,2.021v2.833Zm24.212,6.563c1.065,0.021,2.151.021,3.195-.063,0.209,0,.272-0.083.293-0.333a14.161,14.161,0,0,0,.1-1.563c0-.187-0.063-0.271-0.334-0.229-1,.063-1.859.084-2.966,0.063,0.126-.833.334-2.25,0.46-2.98a20.631,20.631,0,0,0,2.777-.1c0.251-.02.335-0.083,0.335-0.312a9.771,9.771,0,0,0,.041-1.563,0.21,0.21,0,0,0-.208-0.25,11.908,11.908,0,0,1-2.569.125c0.1-.771.229-1.479,0.334-1.958a2.041,2.041,0,0,1,.376-0.9,0.611,0.611,0,0,0,.167-0.4,0.585,0.585,0,0,0-.46-0.479,12.326,12.326,0,0,0-2.506-.583,9.719,9.719,0,0,1,.021,1.75c-0.042.625-.1,1.187-0.271,2.4a17.054,17.054,0,0,1-3.781-.792c0,0.75.042,1.438,0.063,1.938a0.343,0.343,0,0,0,.334.354,14.675,14.675,0,0,0,3.008.583c-0.084.854-.251,2.208-0.355,2.979a13.1,13.1,0,0,1-3.384-.812,11.942,11.942,0,0,0,.042,1.937,0.359,0.359,0,0,0,.23.4,16.44,16.44,0,0,0,2.84.625c-0.083.938-.146,1.521-0.146,1.959,0,3.041,1.566,4.708,5.263,4.708,3.592,0,6.015-1.917,6.015-4.875a5.428,5.428,0,0,0-1.775-3.917,0.48,0.48,0,0,0-.439-0.083,6.681,6.681,0,0,1-2.13.125c1.587,1.667,1.879,2.625,1.879,3.792,0,1.875-1.357,2.812-3.8,2.812-1.942,0-2.777-.75-2.777-2.667A12.676,12.676,0,0,1,890.738,172.674Zm29.1-1.917a26.225,26.225,0,0,1-.48,5.521,1.144,1.144,0,0,1-1.211,1.1,18.277,18.277,0,0,1-2.068-.146,3.886,3.886,0,0,1,.46,1.459c0.1,0.667.1,0.667,0.605,0.708,0.355,0.021.773,0.021,1.107,0.021,2.089,0,2.9-.667,3.279-2.625a39.654,39.654,0,0,0,.46-6.188c0-.5.02-1.042,0.062-1.562,0-.208-0.062-0.271-0.292-0.271-0.126,0-.522.042-1.963,0.042h-3.363c0.063-.792.084-1.626,0.105-2.563H920.4c1.984,0,2.674.042,2.8,0.042,0.209,0,.23-0.021.23-0.23v-1.6c0-.208-0.021-0.229-0.23-0.229-0.125,0-.815.042-2.8,0.042h-2.172V162.9a3.944,3.944,0,0,1,.1-1.4,1.07,1.07,0,0,0,.125-0.438,0.3,0.3,0,0,0-.334-0.208c-0.689-.084-1.358-0.146-2.151-0.167a12.292,12.292,0,0,1,.146,2.209v1.375h-1.483c-1.775,0-2.464-.042-2.59-0.042-0.208,0-.229.021-0.229,0.229v1.6c0,0.209.021,0.23,0.229,0.23,0.105,0,.752-0.042,2.339-0.042a22.678,22.678,0,0,1-.814,6.75,8.665,8.665,0,0,1-4.553,5.084,4.569,4.569,0,0,1,1.232,1.167,0.663,0.663,0,0,0,.46.395,1.328,1.328,0,0,0,.5-0.229,10.557,10.557,0,0,0,4.428-5.792,16.126,16.126,0,0,0,.605-2.875h3.592Zm-12.593-9.292c-1.086,0-1.629-.042-1.775-0.042-0.209,0-.23.021-0.23,0.25,0,0.126.042,1.542,0.042,4.438v8.98c0,2.875-.042,4.271-0.042,4.417,0,0.187.021,0.208,0.23,0.208h1.67c0.23,0,.251-0.021.251-0.208,0-.126-0.042-1.605-0.042-4.417V163.382h2.339a26.162,26.162,0,0,1-1.9,4.708c1.483,1.875,1.963,2.876,1.963,3.834,0,1.271-.752,1.562-2.047,1.5a2.956,2.956,0,0,1,.46,1.4c0.083,0.646.083,0.646,0.752,0.583,2.025-.146,2.861-1.271,2.861-3.208a6.214,6.214,0,0,0-1.817-4.271,42.3,42.3,0,0,0,1.754-4.105,1.544,1.544,0,0,1,.4-0.687,0.5,0.5,0,0,0,.209-0.355,1.293,1.293,0,0,0-.543-0.812,1.315,1.315,0,0,0-.815-0.625,0.471,0.471,0,0,0-.229.063,0.979,0.979,0,0,1-.418.062h-3.07Zm28.787-.291a6.03,6.03,0,0,1-1.128,1.562c-1.8,1.958-3.529,3.688-5.3,5.6a2.675,2.675,0,0,0-1.024,1.834,2.1,2.1,0,0,0,1.107,1.75,52.691,52.691,0,0,1,7.6,7.042,0.373,0.373,0,0,0,.251.187,0.533,0.533,0,0,0,.292-0.166c0.355-.313.961-0.917,1.441-1.438a0.353,0.353,0,0,0,.146-0.25,0.5,0.5,0,0,0-.146-0.271,57.944,57.944,0,0,0-7.769-6.563,0.515,0.515,0,0,1-.271-0.374,0.9,0.9,0,0,1,.271-0.459c1.608-1.666,3.906-3.813,5.7-5.417a3.955,3.955,0,0,1,1-.729,0.417,0.417,0,0,0,.292-0.4,0.506,0.506,0,0,0-.167-0.333A16.515,16.515,0,0,0,936.031,161.174Zm2.193,4.833a10.338,10.338,0,0,1,2.109,2.417,0.218,0.218,0,0,0,.355.062l0.878-.646a0.209,0.209,0,0,0,.062-0.333,9.584,9.584,0,0,0-1.984-2.229,0.214,0.214,0,0,0-.313-0.042Zm1.921-1.375a9.843,9.843,0,0,1,2.089,2.4,0.215,0.215,0,0,0,.355.063l0.835-.646a0.242,0.242,0,0,0,.063-0.376,8.729,8.729,0,0,0-1.984-2.146,0.214,0.214,0,0,0-.313-0.041Z" transform="translate(-764.688 -130.531)"/>
  <path id="肌を白く保ちたい方に_シミ_肌あれも防ぐ_2" data-name="肌を白く保ちたい方に シミ・肌あれも防ぐ " class="cls-2" d="M774.722,132.954H776.6v10.673a1.253,1.253,0,0,0,.432,1.167,2.82,2.82,0,0,0,1.361.223,1.878,1.878,0,0,0,1.57-.463c0.272-.32.433-0.831,0.5-2.668,0.016-.416.048-0.464-0.353-0.576a3.132,3.132,0,0,1-.945-0.415,6.4,6.4,0,0,1-.208,2.413,0.4,0.4,0,0,1-.352.112,0.372,0.372,0,0,1-.3-0.1,0.709,0.709,0,0,1-.064-0.464v-8.532c0-1.773.032-2.668,0.032-2.78,0-.16-0.016-0.176-0.176-0.176-0.112,0-.464.032-1.569,0.032H774.77c-1.089,0-1.41-.032-1.522-0.032-0.16,0-.176.016-0.176,0.176,0,0.08.016,0.671,0.016,1.805,0,1.678.016,2.653-.032,3.691-0.144,3.388-.513,5.273-1.522,6.6a1.2,1.2,0,0,0,.016-0.239c0-.655-0.016-1.47-0.016-2.2V134.1c0-1.677.032-2.556,0.032-2.652,0-.16-0.016-0.176-0.176-0.176-0.112,0-.432.032-1.425,0.032H768.4c-1.009,0-1.329-.032-1.426-0.032-0.176,0-.192.016-0.192,0.176,0,0.112.032,0.975,0.032,2.652v2.621c0,4.314-.352,5.944-1.313,7.478a3.258,3.258,0,0,1,.929.8,0.589,0.589,0,0,0,.3.272,0.464,0.464,0,0,0,.272-0.319,11.467,11.467,0,0,0,1.2-4.666h1.81v2.636a0.467,0.467,0,0,1-.513.576,7.592,7.592,0,0,1-1.009-.064,3.76,3.76,0,0,1,.384,1.134c0.1,0.511.1,0.511,0.593,0.5a2.218,2.218,0,0,0,1.57-.431,1.275,1.275,0,0,0,.32-0.431,5.054,5.054,0,0,1,.833.671,0.743,0.743,0,0,0,.336.271,0.513,0.513,0,0,0,.289-0.287,8.933,8.933,0,0,0,1.5-3.787,35.719,35.719,0,0,0,.4-6.631v-1.486Zm-6.423,5.864c0.016-.623.032-1.31,0.032-2.077v-0.256h1.682v2.333H768.3Zm1.714-5.992v2.189h-1.682v-2.189h1.682Zm21.518,6.392c1.361-.56,2.4-0.911,3.443-1.279a5.143,5.143,0,0,1,.977-0.239,0.232,0.232,0,0,0,.241-0.224,0.635,0.635,0,0,0-.129-0.352,9.817,9.817,0,0,0-1.121-1.406,4.807,4.807,0,0,1-1.217.863c-0.817.416-1.73,0.831-2.355,1.119a1.767,1.767,0,0,0-1.954-1.726,3.2,3.2,0,0,0-1.6.5l-0.016-.032a16.5,16.5,0,0,0,1.2-1.773c1.169-.128,2.547-0.3,3.748-0.48,0.224-.032.288-0.095,0.272-0.255a5.385,5.385,0,0,0-.16-1.151c-0.032-.143-0.08-0.192-0.256-0.159a26.014,26.014,0,0,1-2.915.5c0.192-.432.272-0.639,0.368-0.863a1.24,1.24,0,0,1,.272-0.383,0.31,0.31,0,0,0,.112-0.24,0.287,0.287,0,0,0-.192-0.272,10.118,10.118,0,0,0-1.826-.447,3.877,3.877,0,0,1-.112.974,12.307,12.307,0,0,1-.48,1.375,35.369,35.369,0,0,1-3.684.015c0.048,0.48.112,1.071,0.16,1.327,0.032,0.176.08,0.256,0.224,0.256,0.945,0,1.81-.016,2.563-0.049a16.314,16.314,0,0,1-3.348,3.963,0.223,0.223,0,0,0-.112.176,0.255,0.255,0,0,0,.064.143,7.611,7.611,0,0,0,.913,1.055,0.319,0.319,0,0,0,.176.112,0.285,0.285,0,0,0,.193-0.144,21.582,21.582,0,0,1,1.6-1.741,3.868,3.868,0,0,1,2.211-1.151c0.72-.032.913,0.288,0.961,1.1-2.419,1.247-3.38,2.366-3.38,3.9,0,1.853,1.394,2.636,4.02,2.636a28.532,28.532,0,0,0,3.973-.208c0.128,0,.192-0.112.176-0.3a7.15,7.15,0,0,0-.144-1.311,0.171,0.171,0,0,0-.225-0.176,27.389,27.389,0,0,1-3.988.32c-1.682,0-2.226-.431-2.226-1.1,0-.767.512-1.389,1.938-2.125-0.016.576-.016,1.374-0.016,1.95a0.209,0.209,0,0,0,.208.255,8.659,8.659,0,0,0,1.137-.08,0.28,0.28,0,0,0,.3-0.287v-2.572Zm11.267,5.8c0.16,0,.176-0.016.176-0.159v-0.8h7.72v0.767c0,0.144.016,0.16,0.176,0.16H812.3c0.144,0,.16-0.016.16-0.16,0-.1-0.032-0.879-0.032-4.841v-3.2c0-2.445.032-3.244,0.032-3.356,0-.16-0.016-0.175-0.16-0.175-0.112,0-.673.032-2.226,0.032h-3.46c0.272-.48.513-0.943,0.737-1.391a1.444,1.444,0,0,1,.352-0.511,0.355,0.355,0,0,0,.192-0.287,0.292,0.292,0,0,0-.256-0.224c-0.561-.144-1.073-0.24-1.746-0.352a3.756,3.756,0,0,1-.24.927,15.6,15.6,0,0,1-.865,1.838H803.6c-1.554,0-2.114-.032-2.227-0.032-0.144,0-.16.015-0.16,0.175,0,0.112.032,0.911,0.032,3.739V140c0,3.979-.032,4.746-0.032,4.858,0,0.143.016,0.159,0.16,0.159H802.8Zm0.176-2.508v-3.132h7.72v3.132h-7.72Zm0-7.669h7.72v3.019h-7.72V134.84Zm20.908-3.724a4.581,4.581,0,0,1-.865,1.2c-1.377,1.5-2.707,2.828-4.068,4.3a2.05,2.05,0,0,0-.785,1.406,1.612,1.612,0,0,0,.849,1.342,40.436,40.436,0,0,1,5.83,5.4,0.286,0.286,0,0,0,.192.144,0.409,0.409,0,0,0,.224-0.128c0.273-.24.737-0.7,1.106-1.1a0.275,0.275,0,0,0,.112-0.192,0.383,0.383,0,0,0-.112-0.208,44.35,44.35,0,0,0-5.959-5.033,0.4,0.4,0,0,1-.208-0.288,0.692,0.692,0,0,1,.208-0.351c1.234-1.279,3-2.924,4.373-4.155a3.047,3.047,0,0,1,.769-0.559,0.321,0.321,0,0,0,.224-0.3,0.392,0.392,0,0,0-.128-0.255A12.862,12.862,0,0,0,823.882,131.116Zm13.939,8.421a9.366,9.366,0,0,1-4.052,3.515,4.624,4.624,0,0,1,.753,1.007,0.556,0.556,0,0,0,.3.367,1.009,1.009,0,0,0,.384-0.192,9.936,9.936,0,0,0,3.588-3.818c-0.016,2.029-.1,4.2-0.1,4.729,0,0.16.016,0.176,0.176,0.176h1.314c0.16,0,.176-0.016.176-0.176,0-.543-0.1-2.812-0.1-4.809a10.249,10.249,0,0,0,3.636,3.851,0.9,0.9,0,0,0,.368.176,0.425,0.425,0,0,0,.24-0.352,4.188,4.188,0,0,1,.641-1.214,9.223,9.223,0,0,1-3.988-3.26H842.5c1.57,0,2.114.032,2.21,0.032,0.145,0,.161-0.016.161-0.176v-1.182c0-.16-0.016-0.176-0.161-0.176-0.1,0-.64.032-2.21,0.032h-2.162v-1.454h1.041c1.441,0,1.922.032,2.034,0.032,0.16,0,.176-0.016.176-0.176,0-.1-0.032-0.5-0.032-1.406v-2.029c0-.911.032-1.31,0.032-1.406,0-.16-0.016-0.176-0.176-0.176-0.112,0-.593.032-2.034,0.032h-3.556c-1.441,0-1.938-.032-2.05-0.032-0.16,0-.176.016-0.176,0.176,0,0.112.032,0.5,0.032,1.406v2.029c0,0.911-.032,1.294-0.032,1.406,0,0.16.016,0.176,0.176,0.176,0.112,0,.609-0.032,2.05-0.032h0.913v1.454h-2c-1.586,0-2.13-.032-2.226-0.032-0.16,0-.176.016-0.176,0.176v1.182c0,0.16.016,0.176,0.176,0.176,0.1,0,.64-0.032,2.226-0.032h1.089Zm4.084-4.314h-4.66v-2.285h4.66v2.285Zm-9.978,7.557c0,1.55-.032,2.317-0.032,2.413,0,0.16.016,0.176,0.16,0.176H833.4c0.161,0,.177-0.016.177-0.176,0-.08-0.032-0.863-0.032-2.413v-8.212a21.7,21.7,0,0,0,.977-2.237,1.327,1.327,0,0,1,.336-0.655,0.319,0.319,0,0,0,.176-0.272,0.285,0.285,0,0,0-.256-0.239,12.7,12.7,0,0,0-1.554-.48,5.3,5.3,0,0,1-.256,1.134,13.981,13.981,0,0,1-2.915,5.066,5.437,5.437,0,0,1,.561,1.374,0.323,0.323,0,0,0,.192.287,0.5,0.5,0,0,0,.256-0.207c0.3-.384.609-0.767,0.9-1.167-0.016.687-.032,1.422-0.032,2.013v3.595Zm19.58-8.66c-1.233.1-2.226,0.144-3.476,0.144,0.064,0.527.176,1.2,0.225,1.39a0.273,0.273,0,0,0,.3.224c0.817,0,1.826-.08,2.691-0.144-0.273,1.6-.5,2.78-0.849,4.187-0.064.239-.128,0.479-0.208,0.751a1.081,1.081,0,0,0-.064.319c0,0.144.1,0.208,0.352,0.319a4.468,4.468,0,0,0,1.2.352c0.144,0.016.192-.048,0.305-0.24,0.144-.207.3-0.4,0.448-0.607a5.332,5.332,0,0,1,4.212-1.981,1.577,1.577,0,0,1,1.826,1.518,2.427,2.427,0,0,1-1.826,2.253,12.507,12.507,0,0,1-4.6.879,3.058,3.058,0,0,1,.865,1.134,0.448,0.448,0,0,0,.4.383,7.422,7.422,0,0,0,1.185-.111,10.686,10.686,0,0,0,4.084-1.279,3.576,3.576,0,0,0,1.826-3.227c0-1.646-1.441-3.02-3.571-3.02a6.935,6.935,0,0,0-4.6,1.694c0.288-1.119.512-2.19,0.737-3.515,1.345-.176,2.21-0.352,3.587-0.656a0.206,0.206,0,0,0,.193-0.255,7.12,7.12,0,0,0-.113-1.183c-0.032-.207-0.112-0.223-0.336-0.159a29.566,29.566,0,0,1-3.011.591c0.08-.559.144-0.879,0.224-1.311a1.664,1.664,0,0,1,.272-0.591,0.528,0.528,0,0,0,.113-0.255,0.357,0.357,0,0,0-.321-0.288,10.417,10.417,0,0,0-1.922-.335,5.289,5.289,0,0,1,.032,1.549C851.651,133.034,851.587,133.561,851.507,134.12Zm18.571-.016c0.112-.4.224-0.942,0.384-1.518a3.031,3.031,0,0,1,.336-0.638,0.384,0.384,0,0,0,.08-0.256,0.266,0.266,0,0,0-.176-0.256,9.28,9.28,0,0,0-2.018-.447,10.99,10.99,0,0,1-.1,1.47c-0.112.655-.24,1.358-0.4,2a21.671,21.671,0,0,1-2.6.16,7.392,7.392,0,0,1-1.185-.048c0.08,0.575.16,1.118,0.224,1.454,0.032,0.208.1,0.255,0.336,0.255,0.753,0,1.874-.079,2.8-0.175A59.871,59.871,0,0,1,865,143.676a0.257,0.257,0,0,0,.128.319c0.337,0.192,1.122.527,1.282,0.591,0.176,0.048.272,0.064,0.352-.16,1.025-2.652,1.842-5.1,2.931-8.644a25.361,25.361,0,0,0,2.787-.607c0.208-.048.256-0.1,0.24-0.3-0.016-.335-0.064-0.8-0.112-1.15a0.173,0.173,0,0,0-.256-0.16C871.567,133.785,870.7,133.993,870.078,134.1Zm0.288,7.335a3.108,3.108,0,0,0,.721,2.188c0.72,0.751,1.81,1.039,3.908,1.039a19.067,19.067,0,0,0,2.178-.176c0.256-.016.272-0.064,0.256-0.256a9.988,9.988,0,0,0-.128-1.39,0.139,0.139,0,0,0-.192-0.143,24.238,24.238,0,0,1-2.691.223c-1.537,0-2.322-.335-2.45-1.5a0.208,0.208,0,0,0-.241-0.223A8.053,8.053,0,0,0,870.366,141.439Zm1.249-3.021a17.834,17.834,0,0,1,3.22-.367,10.731,10.731,0,0,1,1.986.192c0.224,0.048.3-.016,0.3-0.288a11.259,11.259,0,0,0-.016-1.278c0-.192-0.048-0.208-0.272-0.24a11.687,11.687,0,0,0-1.874-.16,16.751,16.751,0,0,0-3.124.368c-0.24.048-.288,0.1-0.288,0.319C871.551,137.284,871.583,137.859,871.615,138.418Zm10.4-5.432a8.551,8.551,0,0,1,.192,2.093,28.822,28.822,0,0,0,.385,4.65c0.432,2.7,1.746,4.17,3,4.17,1.121,0,2.114-.863,2.723-2.493a0.489,0.489,0,0,0-.112-0.591,6.065,6.065,0,0,1-1.025-1.23c-0.625,1.662-1.026,2.221-1.538,2.221-0.673,0-1.089-1.087-1.314-2.349a20.093,20.093,0,0,1-.288-3.643,7.174,7.174,0,0,1,.144-1.566,1.383,1.383,0,0,0,.128-0.447,0.377,0.377,0,0,0-.256-0.288A6.933,6.933,0,0,0,882.018,132.986Zm8.2,2.269a10.765,10.765,0,0,1,3,5.576c0.032,0.192.144,0.24,0.336,0.176a5.478,5.478,0,0,0,1.25-.639,0.28,0.28,0,0,0,.176-0.352,10.56,10.56,0,0,0-3.14-5.464,0.246,0.246,0,0,0-.176-0.1,0.475,0.475,0,0,0-.176.064C891.228,134.648,890.827,134.871,890.219,135.255ZM903.312,135c-0.032,4.857-1.233,7.063-4.917,8.868a3.488,3.488,0,0,1,.961.975,0.523,0.523,0,0,0,.321.351,1.114,1.114,0,0,0,.384-0.176,8.934,8.934,0,0,0,4.693-6.439h4.357a19.461,19.461,0,0,1-.5,4.059,0.893,0.893,0,0,1-.945.8,15.6,15.6,0,0,1-1.97-.144,3.531,3.531,0,0,1,.352,1.23c0.064,0.512.064,0.543,0.513,0.575,0.528,0.033.977,0.033,1.265,0.033,1.6,0,2.227-.464,2.579-1.982a29.321,29.321,0,0,0,.528-4.746c0.017-.4.033-0.83,0.065-1.246,0-.175-0.032-0.223-0.193-0.223-0.1,0-.544.031-1.89,0.031h-3.924c0.064-.607.112-1.262,0.128-1.965h5.542c1.442,0,1.922.032,2.018,0.032,0.144,0,.16-0.016.16-0.191v-1.3c0-.176-0.016-0.192-0.16-0.192-0.1,0-.576.033-2.018,0.033h-4.212V132.3a2.28,2.28,0,0,1,.1-0.927,0.968,0.968,0,0,0,.1-0.335,0.228,0.228,0,0,0-.256-0.176c-0.545-.048-1.17-0.08-1.746-0.08a7.959,7.959,0,0,1,.112,1.566v1.039H900.83c-1.426,0-1.906-.033-2.018-0.033-0.161,0-.177.016-0.177,0.192v1.3c0,0.175.016,0.191,0.177,0.191,0.112,0,.592-0.032,2.018-0.032h2.482Zm14.632-3.084a12.874,12.874,0,0,1-.288,2.381,30.376,30.376,0,0,0-.545,5.241,14.924,14.924,0,0,0,.737,4.761,0.193,0.193,0,0,0,.208.176,8.04,8.04,0,0,0,1.313-.255,0.21,0.21,0,0,0,.209-0.208c0-.128-0.032-0.256-0.032-0.448a1.813,1.813,0,0,1,.048-0.495,15.51,15.51,0,0,1,.913-2.413,0.437,0.437,0,0,0,.08-0.255,0.637,0.637,0,0,0-.112-0.24,4.112,4.112,0,0,1-.561-1.006c-0.464,1.118-.753,1.645-1.089,2.38a15.376,15.376,0,0,1-.1-1.869,25.858,25.858,0,0,1,.672-5.161,3.805,3.805,0,0,1,.385-1.135,0.894,0.894,0,0,0,.24-0.479,0.486,0.486,0,0,0-.368-0.383A7.1,7.1,0,0,0,917.944,131.915Zm3.684,8.245a3.515,3.515,0,0,0,.56,2.077c0.689,0.943,1.794,1.326,4.165,1.326a21.511,21.511,0,0,0,2.611-.175c0.272-.032.272-0.048,0.272-0.24a11.818,11.818,0,0,0-.1-1.374c-0.032-.208-0.064-0.224-0.224-0.208a23,23,0,0,1-3.06.208c-1.746,0-2.514-.4-2.61-1.5,0-.176-0.033-0.256-0.161-0.24Zm0.512-4.537a19.607,19.607,0,0,1,3.636-.368c0.817,0,1.65.032,2.611,0.1,0.144,0.016.192-.048,0.208-0.192,0.032-.447.032-0.879,0.032-1.358,0-.16-0.032-0.192-0.368-0.208-0.673-.064-1.41-0.1-2.371-0.1a25.6,25.6,0,0,0-3.475.288,0.234,0.234,0,0,0-.225.272C922.156,134.328,922.156,134.727,922.14,135.623Z" transform="translate(-764.688 -130.531)"/>
</svg>
