<?xml version="1.0" encoding="utf-8"?>
<!-- Generator: Adobe Illustrator 26.3.1, SVG Export Plug-In . SVG Version: 6.00 Build 0)  -->
<svg version="1.1" id="head-block-06_sp.svg" xmlns="http://www.w3.org/2000/svg" xmlns:xlink="http://www.w3.org/1999/xlink"
	 x="0px" y="0px" viewBox="0 0 470.7 108.2" style="enable-background:new 0 0 470.7 108.2;" xml:space="preserve">
<style type="text/css">
	.st0{opacity:0.2;fill:#1E9FE0;enable-background:new    ;}
	.st1{fill:#1147B4;}
</style>
<rect id="長方形_978" x="65.3" y="31.3" class="st0" width="357.9" height="12.9"/>
<rect id="長方形_978-2" y="95.3" class="st0" width="470.7" height="12.8"/>
<g>
	<path class="st1" d="M73.5,33.5c3.7,0,4.3-1.1,4.9-6.4c1.2,0.7,3.2,1.5,4.6,1.8c-0.8,6.8-2.5,9-9.1,9H61.1c-7.2,0-9.3-1.6-9.3-8V19
		L46,20.8l-1.3-4.4l7-2.2V3h4.8v9.6l6.3-2V0.2h4.9v8.9l7.6-2.3l1.3-0.9L80.2,7l-0.2,0.7c-0.2,5.7-0.9,13.3-1.8,18.3l-4-1.1
		c0.5-3.4,0.8-8.6,1-13.4l-7.5,2.4v15.3h-4.9V15.4l-6.3,2V30c0,3,0.6,3.5,4.6,3.5H73.5z"/>
	<path class="st1" d="M123.7,7.8H119v24.4c0,3-0.7,4.4-2.6,5.2c-2.1,0.8-5.1,0.9-9.3,0.9c-0.3-1.4-1.3-3.9-2-5.2
		c2.9,0.2,6.5,0.1,7.5,0.1c0.9,0,1.3-0.3,1.3-1.1V7.8H86.7V2.9h36.9V7.8z M95.3,28.3v3.1h-4.8v-19h17.4v15.9H95.3z M95.3,17.1v6.6
		h7.8v-6.6H95.3z"/>
	<path class="st1" d="M164.2,5.7v9.3h-4.8V9.9h-26.2v5.2h-4.6V5.7h5.4c-0.7-1.2-1.5-2.5-2.3-3.5l4.3-1.7c1.3,1.5,2.6,3.5,3.2,4.9
		l-0.7,0.3h5.1V0.2h4.9v5.6h4.8l-0.2-0.1c1-1.4,2.3-3.6,2.9-5.2l5.2,1.5c-1,1.4-2,2.7-2.9,3.8H164.2z M131.5,23h29.8v15.5h-4.9v-0.9
		h-20.3v1h-4.6V23z M157.1,11.9v9.4h-21.7v-9.4H157.1z M136.1,26.5v2.1h7.6v-2.1H136.1z M143.8,34v-2.1h-7.6V34H143.8z M152.3,15.3
		H140v2.4h12.3V15.3z M156.5,26.5h-8v2.1h8V26.5z M156.5,34v-2.1h-8V34H156.5z"/>
	<path class="st1" d="M180.7,29.8c-0.4-2.1-1.4-5.7-2-8v16.6h-4.5V21.2c-0.9,4.5-2.5,10.2-4.6,13.3c-0.4-1.6-1.3-4.1-2-5.5
		c1.6-2.3,3.2-6.6,3.8-9.7l2.8,1.3v-2.3h-5.9v-4.5h5.9V0.3h4.5v11.6c0.9-2.6,1.7-6.7,2.2-9.5l4,0.9c-1.1,3.3-2.2,7.1-3.2,9.5l-3-0.9
		v1.8h5v4.5h-5v2.5l2.1-1.6c0.5,1,2.7,5.5,3.1,6.6L180.7,29.8z M170.1,13c-0.1-2.5-0.9-6.5-1.8-9.5l3.3-0.9c1.1,3,1.9,6.9,2.1,9.4
		L170.1,13z M189.5,17c0,6.3-0.7,15.7-5,21.5c-0.8-0.9-2.7-2.6-3.6-3.2c3.8-5.2,4.1-12.8,4.1-18.4V5.5h9.1c-0.6-1.2-1.4-2.6-2.2-3.7
		l4.1-1.6c1.1,1.3,2.3,3.2,2.8,4.4l-2.3,1h9.6v4.5h-16.6V17z M206.3,32.2v4.6h-18.1v-4.6h6.8v-9.8h-4.6v-4.6h4.6v-6.8h4.6v6.8h5.5
		v4.6h-5.5v9.8H206.3z"/>
	<path class="st1" d="M228,33.6c0,2.1-0.4,3.2-1.8,3.9c-1.3,0.7-3.2,0.8-5.7,0.8c-0.2-1.2-0.9-3-1.6-4.1c1.5,0.1,3.2,0.1,3.7,0
		c0.5,0,0.7-0.2,0.7-0.7v-3.6h-7.2c-0.5,3.1-1.4,6.2-3,8.5c-0.7-0.8-2.7-2.3-3.6-2.7c2.5-3.7,2.8-8.9,2.8-12.9v-9.4H228V33.6z
		 M246.7,6.2v4.4h-37.1V6.2h8.7c-0.7-1.4-1.9-3.2-3.1-4.5l4.6-1.6c1.5,1.6,3.1,3.8,3.8,5.3l-2.3,0.8h11.4c1.2-1.9,2.5-4.3,3.4-6.2
		l5.3,1.6c-1,1.6-2.1,3.2-3.1,4.6H246.7z M223.3,26.4v-2.7h-6.7c0,0.9,0,1.7-0.1,2.7H223.3z M216.6,17.3v2.8h6.7v-2.8H216.6z
		 M236,30.6h-4.5V13.9h4.5V30.6z M239.7,12.7h4.8v20.4c0,2.4-0.5,3.6-2.1,4.4c-1.6,0.7-3.8,0.9-6.7,0.8c-0.2-1.3-1-3.3-1.8-4.6
		c2.1,0.1,4.2,0.1,4.9,0c0.7,0,0.9-0.2,0.9-0.7V12.7z"/>
	<path class="st1" d="M264.2,3.4c-1.1,3.4-2.4,7.5-3.5,10.7c2.5,3.3,3,6.1,3,8.5c0,2.7-0.5,4.4-1.8,5.4c-0.6,0.5-1.4,0.8-2.3,0.9
		c-0.7,0.1-1.7,0.1-2.6,0.1c0-1.2-0.4-3-1.1-4.2c0.7,0.1,1.3,0.1,1.7,0c0.4,0,0.8-0.1,1.1-0.3c0.5-0.4,0.7-1.3,0.7-2.5
		c0-2-0.5-4.6-2.8-7.5c0.8-2.5,1.6-5.9,2.3-8.5h-3.2v32.3h-4.2V1.8h8.9l0.7-0.2L264.2,3.4z M287.8,1.7v4.1h-23.2V1.7H287.8z
		 M287.1,34.1c0,1.8-0.2,3-1.4,3.6c-1.1,0.7-2.7,0.7-4.8,0.7c-0.1-1.2-0.6-2.8-1.1-3.9c1,0,2.2,0,2.5,0c0.4,0,0.5-0.1,0.5-0.5V21.2
		H269v17.3h-4.1V17.6h22.2V34.1z M285.8,16.2h-19.4V7.3h19.4V16.2z M278,30.4v7.1h-4v-7.1h-3.8v-3.2h2.6c-0.5-1.3-1.5-3-2.3-4.4
		l2.9-1.1c0.9,1.4,2.1,3.3,2.6,4.6l-2.3,1h2.7c0.9-1.7,1.9-3.9,2.4-5.5l3.3,1.3c-0.8,1.4-1.6,2.9-2.4,4.2h2v3.2H278z M281.4,10.5
		h-10.9v2.4h10.9V10.5z"/>
	<path class="st1" d="M329.4,36.6h-13v1.8h-4.2V17l-0.4,0.6c-0.5-0.5-1.3-1.4-2.2-2v4.1h-6.4l-0.4,2.1h8.2v12.7
		c0,1.8-0.3,2.7-1.6,3.4c-1.1,0.5-2.9,0.5-5.3,0.5c-0.1-1-0.5-2.4-0.9-3.4c1.4,0.1,2.9,0.1,3.4,0c0.4,0,0.6-0.1,0.6-0.5v-1.5
		l-2.3,0.9c-0.1-0.5-0.3-1.1-0.5-1.7c-2.5,0.6-4.9,1.2-7,1.8l-1.1-3.2l1.1-0.2c0.4-1.4,0.8-3.1,1.2-4.9h-2.4v13h-3.9v-13h-0.9v-3.7
		h0.9v-1.1h3.9v1.1h3.1c0.1-0.7,0.2-1.4,0.4-2.1H293V8.3h3.5v8.1h9.4v-2l-1.8,1.6c-0.6-0.7-1.5-1.5-2.5-2.3
		c-0.9,0.9-1.9,1.7-2.7,2.4c-0.5-0.5-1.7-1.4-2.4-1.9c1-0.7,2-1.5,3-2.4c-0.8-0.7-1.6-1.3-2.4-1.9l1.9-1.7c0.7,0.6,1.6,1.2,2.4,1.8
		c0.6-0.6,1.2-1.3,1.7-1.9l2.8,1.1c-0.7,0.9-1.5,1.7-2.3,2.6c0.9,0.7,1.6,1.4,2.3,2V8.3h3.7v4.5c2.2-3.4,4.1-8,5.2-12.5l4.3,1
		c-0.6,2.2-1.4,4.4-2.2,6.6H329v4.3h-4.6V16h4.2v4.1h-4.2V24h4.2v4.1h-4.2v4.1h5L329.4,36.6z M311.3,7.2h-19.9V3.3h7.9
		c-0.3-0.8-0.5-1.7-0.8-2.4l4.1-0.9c0.5,1,0.9,2.2,1.3,3.3h7.5V7.2z M302,25.4c-0.3,1.5-0.6,3-0.9,4.2l2.1-0.5
		c-0.3-0.8-0.6-1.6-0.9-2.3l2.6-0.9c0.7,1.6,1.6,3.6,2.2,5.2v-5.8H302z M320.1,12.1h-3.7V16h3.7V12.1z M320.1,20.1h-3.7V24h3.7V20.1
		z M316.4,32.2h3.7v-4.1h-3.7V32.2z M321.3,7.7c-0.4-1.5-1.4-3.9-2.3-5.7l4.2-1.3c0.9,1.7,2,4,2.5,5.5L321.3,7.7z"/>
	<path class="st1" d="M359.2,23.5c-0.3,2.5-1,5-2.3,7.1c3.8,1.8,8.5,3,14,3.4c-1,1.1-2.3,3.1-2.9,4.3c-5.5-0.7-10.2-2.1-14-4.3
		c-2,1.8-4.8,3.3-8.4,4.4c-0.6-1.1-2-3-3-4.1c3.3-0.7,5.7-1.8,7.5-3.2c-2-1.7-3.6-3.8-5-6.1l4-1.2c1,1.6,2.3,3,3.8,4.2
		c0.8-1.5,1.3-3,1.5-4.7h-9.1v-12h9.4V8.6h-10.3V4.8c-0.7,1.6-1.6,3.2-2.5,4.7v29h-4.6v-22c-1.1,1.4-2.2,2.7-3.4,3.9
		c-0.5-1.2-1.8-3.8-2.6-5c3.9-3.7,7.7-9.5,9.9-15.3l4.5,1.5c-0.4,0.9-0.7,1.7-1.1,2.6h10V0.5h4.8v3.7h10.9v4.4h-10.9v2.9h9.8v12
		H359.2z M354.6,19.5V19v-3.5h-5v4.1H354.6z M359.4,15.5V19v0.5h5.1v-4.1H359.4z"/>
	<path class="st1" d="M408.5,32.7c0,2.6-0.6,3.9-2.2,4.7c-1.7,0.8-4.2,0.9-7.9,0.9c-0.2-1.3-0.9-3.4-1.6-4.7c2.3,0.1,5,0.1,5.7,0.1
		c0.8,0,1.1-0.2,1.1-1v-6.2H395v11.4h-4.9V26.5h-8.4c-0.7,4.5-2.2,9-5.2,12.2c-0.8-0.9-2.7-2.6-3.9-3.2c4.5-4.9,4.8-12.2,4.8-18V2.9
		h31V32.7z M390.1,21.9v-5h-7.7v0.7c0,1.3,0,2.8-0.1,4.3H390.1z M382.4,7.6v4.8h7.7V7.6H382.4z M403.7,7.6H395v4.8h8.7V7.6z
		 M403.7,21.9v-5H395v5H403.7z"/>
	<path class="st1" d="M418.1,25c3.2-1,5-2.8,5.3-5c-0.1,0-0.3,0-0.5,0c-2,0-3.9-1.3-3.9-3.6c0-2.3,1.8-3.7,4-3.7
		c2.9,0,4.4,2.2,4.4,5.6c0,4.6-3,8.4-8.1,9.9L418.1,25z"/>
	<path class="st1" d="M24.1,88.7c-1.5-1.4-4.7-3.5-7.3-4.8l2.7-3.5c2.5,1.1,5.8,2.9,7.5,4.3L24.1,88.7z M28.1,93.9
		c-1.8,4.3-3.9,9.1-5.9,13.2l-4.3-3c1.9-3.2,4.6-8.3,6.6-13L28.1,93.9z M25.6,77.9c-1.4-1.5-4.4-3.7-6.9-5l2.9-3.4
		c2.5,1.2,5.6,3.2,7.2,4.7L25.6,77.9z M50.7,102.7c0.8,0,0.9-0.8,1.1-5.8c1,0.8,2.9,1.6,4.2,1.9c-0.4,6.4-1.5,8.2-4.8,8.2H48
		c-3.9,0-4.7-1.4-4.7-5.7V90.5h-3.5c-0.6,7.7-2.3,13.6-10.5,17c-0.5-1.2-1.8-3-2.9-3.9c7-2.6,8-7.1,8.5-13h-6.2v-4.6h11V80h-4.6
		c-0.9,2.3-1.8,4.2-3,5.8c-0.9-0.8-3-2.2-4.2-2.7c2.5-3.1,4.1-8.2,5-13.4l4.9,0.9c-0.3,1.6-0.7,3.2-1.1,4.8h3.1v-6.2h4.8v6.2h8.9V80
		h-8.9v5.8h10.7v4.6H48v10.7c0,1.3,0.1,1.5,0.8,1.5H50.7z"/>
	<path class="st1" d="M79.2,76.1c-0.4,1.3-0.8,2.5-1.1,3.7h15.6v27.7h-5v-2.1H65.1v2.1h-4.7V79.8H73c0.2-1.2,0.5-2.5,0.7-3.7h-15
		v-4.6h36.9v4.6H79.2z M65.1,100.9h4.2V84.3h-4.2V100.9z M79.9,84.3h-6.3v2.8h6.3V84.3z M79.9,90.9h-6.3v3.1h6.3V90.9z M73.7,100.9
		h6.3v-3h-6.3V100.9z M88.8,84.3h-4.4v16.6h4.4V84.3z"/>
	<path class="st1" d="M113.1,93.5c2.5-0.2,5.1-0.4,7.6-0.6v4.3c-2.5,0.2-5.1,0.5-7.6,0.7v4.7c0,2.1-0.4,3.3-2,4
		c-1.5,0.7-3.5,0.7-6.2,0.7c-0.2-1.3-0.9-3.2-1.5-4.3c1.7,0,3.6,0,4.2,0c0.6,0,0.7-0.1,0.7-0.6v-4.1c-3.2,0.3-6.2,0.5-8.8,0.7
		l-0.4-4.5c2.5-0.2,5.7-0.4,9.2-0.7V92c1.3-1,2.7-2.5,4-3.9h-11.1V84h1.8c-0.5-1.8-1.6-4.4-2.6-6.4l3.9-1.5c1.2,2,2.4,4.8,3,6.5
		l-3.3,1.4H116l1.1-0.2l3.2,2.5c-2,2.3-4.6,5-7.1,7.1V93.5z M121.8,73.1c-5.9,1.5-14,2.3-20.9,2.5c-0.2-1.1-0.8-2.9-1.3-3.9
		c6.7-0.4,14.4-1.3,19.2-2.5L121.8,73.1z M109,83.3c-0.3-1.8-1.2-4.7-2-6.8l3.9-1.2c0.9,2.1,1.8,4.8,2.2,6.6L109,83.3z M113.4,82.3
		c1.1-2.1,2.5-5.5,3.2-8l4.6,1.6c-1.4,2.8-2.8,5.9-4.1,7.9L113.4,82.3z M131.6,102.1c1,0,1.2-1.6,1.4-7.5c1.1,0.9,3,1.8,4.3,2.1
		c-0.4,7.1-1.5,9.8-5.3,9.8H128c-4.1,0-5.1-1.6-5.1-6.8V70.2h4.8v29.5c0,2.1,0.2,2.4,1.1,2.4H131.6z"/>
	<path class="st1" d="M154.1,88.3c0,2.9-2.4,5.2-5.2,5.2c-2.9,0-5.2-2.4-5.2-5.2s2.4-5.2,5.2-5.2C151.7,83.1,154.1,85.5,154.1,88.3z
		"/>
	<path class="st1" d="M168.1,88.4c-1.6-1.4-5.1-3.2-7.7-4.3l2.6-3.7c2.5,1,6.1,2.7,7.9,4L168.1,88.4z M171.9,93.8
		c-2.1,4.4-4.5,9.1-6.9,13.1l-4.2-3.2c2.1-3.1,5.1-8.3,7.4-13.1L171.9,93.8z M170.4,77.5c-1.6-1.4-5-3.3-7.6-4.6l2.7-3.6
		c2.5,1.1,6,2.9,7.7,4.2L170.4,77.5z M189.2,82.7c2.2,6.1,6,12.2,10.1,15.7c-1.1,0.9-2.7,2.6-3.6,3.9c-3.2-3.2-6.1-7.9-8.3-13.1
		v18.1h-5V89.7c-2.3,5.3-5.4,10-9,13.1c-0.8-1.2-2.4-3-3.5-3.9c4.6-3.4,8.5-9.8,10.7-16.2h-8.6v-4.8h10.3v-8.6h5v8.6h10.7v4.8H189.2
		z"/>
	<path class="st1" d="M208.8,88.9c-1.6-1.1-4.8-3.1-7.2-4.3l2.7-3.5c2.2,1,5.5,2.8,7.3,3.9L208.8,88.9z M203,103.7
		c1.7-2.8,4-7.3,5.9-11.5l3.8,3c-1.6,3.8-3.5,7.9-5.4,11.4L203,103.7z M210.9,78.1c-1.6-1.4-4.9-3.6-7.1-5.1l2.9-3.4
		c2.3,1.3,5.7,3.4,7.3,4.7L210.9,78.1z M228.3,77.9c-0.2,0.5-0.5,1-0.7,1.4c3.4,5.3,7.6,8.5,12.9,11c-1.2,1-2.6,2.7-3.2,4.1
		c-0.7-0.4-1.3-0.8-2-1.2v13.9h-5v-1.3h-10.3v1.6h-4.8V93c-0.7,0.5-1.5,0.9-2.3,1.3c-0.7-1.3-2-3-3.3-4.1c6.1-2.7,11.3-7.6,14-13.9
		L228.3,77.9z M224.5,71.2c-2.4,4.1-5.9,8.6-8.9,11.4c-0.9-0.9-2.9-2.3-4-3c3-2.5,6.2-6.3,8.2-10L224.5,71.2z M233.1,91.7
		c-3-2.2-5.5-4.8-7.8-8.1c-2.2,3.2-4.9,5.9-7.9,8.1H233.1z M230.4,101.6V96h-10.3v5.6H230.4z M235.5,82c-1.8-2.6-5.9-6.9-8.8-10
		l3.9-2.5c2.8,2.9,7,7,9.1,9.6L235.5,82z"/>
	<path class="st1" d="M256.6,93.5c2.5-0.2,5.1-0.4,7.6-0.6v4.3c-2.5,0.2-5.1,0.5-7.6,0.7v4.7c0,2.1-0.4,3.3-2,4
		c-1.5,0.7-3.5,0.7-6.2,0.7c-0.2-1.3-0.9-3.2-1.5-4.3c1.7,0,3.6,0,4.2,0c0.6,0,0.7-0.1,0.7-0.6v-4.1c-3.2,0.3-6.2,0.5-8.8,0.7
		l-0.4-4.5c2.5-0.2,5.7-0.4,9.2-0.7V92c1.3-1,2.7-2.5,4-3.9h-11.1V84h1.8c-0.5-1.8-1.6-4.4-2.6-6.4l3.9-1.5c1.2,2,2.4,4.8,3,6.5
		l-3.3,1.4h11.9l1.1-0.2l3.2,2.5c-2,2.3-4.6,5-7.1,7.1V93.5z M265.3,73.1c-5.9,1.5-14,2.3-20.9,2.5c-0.2-1.1-0.8-2.9-1.3-3.9
		c6.7-0.4,14.4-1.3,19.2-2.5L265.3,73.1z M252.5,83.3c-0.3-1.8-1.2-4.7-2.1-6.8l3.9-1.2c0.9,2.1,1.8,4.8,2.2,6.6L252.5,83.3z
		 M256.9,82.3c1.1-2.1,2.5-5.5,3.2-8l4.6,1.6c-1.4,2.8-2.8,5.9-4.1,7.9L256.9,82.3z M275.1,102.1c1,0,1.2-1.6,1.4-7.5
		c1.1,0.9,3,1.8,4.3,2.1c-0.4,7.1-1.5,9.8-5.3,9.8h-3.9c-4.1,0-5.1-1.6-5.1-6.8V70.2h4.8v29.5c0,2.1,0.2,2.4,1.1,2.4H275.1z"/>
	<path class="st1" d="M298.6,92.5c2,3.4,4.6,7.8,5.7,10.7l-4.6,2.4c-0.3-1-0.8-2.3-1.4-3.5c-9.6,3-11.3,3.7-12.4,4.5
		c-0.3-1.4-1.1-3.8-1.9-5c0.9-0.5,1.9-1.3,1.9-2.9V71.2h17.3v20.3h-12.3v8.1l5.5-1.6c-0.7-1.2-1.3-2.4-1.9-3.4L298.6,92.5z
		 M290.9,75.6v3.5h7.4v-3.5H290.9z M298.3,87.1v-3.7h-7.4v3.7H298.3z M320.1,95.1c0,2.2-0.4,3.5-1.8,4.3c-1.3,0.8-3.2,0.8-5.8,0.8
		c-0.2-1.3-0.7-3.3-1.4-4.6c1.5,0.1,3,0.1,3.4,0c0.5,0,0.7-0.2,0.7-0.7V76h-5v31.5h-4.9v-36h14.7V95.1z"/>
	<path class="st1" d="M362.1,76.8h-4.7v24.4c0,3-0.7,4.4-2.6,5.2c-2,0.8-5.1,0.9-9.3,0.9c-0.3-1.4-1.3-3.9-2-5.2
		c2.9,0.2,6.5,0.1,7.5,0.1c0.9,0,1.3-0.3,1.3-1.1V76.8h-27.1v-4.9h36.9V76.8z M333.7,97.3v3.1h-4.8v-19h17.4v15.9H333.7z
		 M333.7,86.1v6.6h7.8v-6.6H333.7z"/>
	<path class="st1" d="M379.9,82.1h7.1v4.3h-7.1v3.5h6.3V94h-6.3v5.2l6.8-0.5c-0.2,1.3-0.2,3.3-0.1,4.4c-15,1.4-17.3,1.7-18.8,2.4
		c-0.2-1.1-0.9-2.9-1.4-3.8c0.7-0.3,1.6-0.9,1.6-2.4V88.4h4.3v11.4l3.2-0.2V86.4h-9.5v-4.3h9.5v-4.4h-3.2c-0.9,1.7-1.9,3.2-2.9,4.3
		c-0.8-0.7-2.7-2.1-3.7-2.7c2.3-2.5,4.2-6.4,5.2-10.3l4.4,1c-0.3,1.1-0.7,2.2-1.1,3.3h12.1v4.3h-6.2V82.1z M402,95.9
		c0,2.2-0.4,3.6-1.8,4.5c-1.3,0.9-3.2,1-5.6,1c-0.1-1.4-0.9-3.7-1.6-5c1.5,0.1,3,0,3.5,0c0.5,0,0.6-0.2,0.6-0.7V76.2h-4.3v31.3h-4.7
		V71.6H402V95.9z"/>
	<path class="st1" d="M420.6,72.4c-1,3.5-2.3,7.6-3.4,10.8c2.3,3.2,2.8,6.1,2.8,8.4c0,2.7-0.5,4.4-1.8,5.4c-0.6,0.5-1.4,0.8-2.3,0.9
		c-0.7,0.1-1.7,0.1-2.6,0.1c0-1.2-0.3-3-1-4.2c0.7,0.1,1.3,0.1,1.7,0c0.4,0,0.8-0.1,1-0.3c0.5-0.4,0.7-1.3,0.7-2.5
		c0-2-0.5-4.6-2.6-7.4c0.7-2.5,1.5-5.9,2.1-8.6h-3.2v32.2h-4.3V70.8h8.9l0.7-0.2L420.6,72.4z M427.9,96.1c-1.5,3.3-3.9,6.8-5.9,9.1
		c-0.8-0.7-2.6-2.1-3.6-2.7c2.1-1.9,4.1-4.8,5.3-7.6L427.9,96.1z M435,93.6v8.8c0,2.2-0.4,3.4-1.9,4.2c-1.4,0.7-3.4,0.8-6.1,0.8
		c-0.2-1.3-0.9-3.2-1.6-4.4c1.8,0.1,3.6,0.1,4.2,0c0.6,0,0.7-0.2,0.7-0.7v-8.7h-9.8v-4.4h9.8v-3.4h-6.6v-2.8
		c-0.6,0.4-1.1,0.7-1.7,1.1c-0.7-1.1-2-2.7-3.2-3.6c5-2.5,10-6.8,12.7-11.7l4.1,1.6c-0.3,0.6-0.6,1.1-1,1.6c3.9,4.2,7.6,6.5,10.8,8
		c-1.1,1-2.6,2.6-3.2,4c-0.6-0.4-1.3-0.8-1.9-1.3v3.2H435v3.4h9.2v4.4H435z M438.9,81.6c-2-1.6-4.3-3.6-6.7-6.3
		c-1.9,2.4-4.2,4.5-6.6,6.3H438.9z M439.8,94.6c2.1,2.5,4.4,5.8,5.5,8l-3.8,2.2c-1-2.3-3.3-5.8-5.2-8.3L439.8,94.6z"/>
	<path class="st1" d="M449.9,100.5c0-2.3,1.6-3.9,3.7-3.9s3.8,1.7,3.8,3.9c0,2.2-1.6,3.9-3.8,3.9S449.9,102.8,449.9,100.5z
		 M450.8,78.4l-0.2-5.7h6.1l-0.2,5.7l-0.9,15.1h-3.9L450.8,78.4z"/>
</g>
</svg>
