<?xml version="1.0" encoding="utf-8"?>
<!-- Generator: Adobe Illustrator 26.3.1, SVG Export Plug-In . SVG Version: 6.00 Build 0)  -->
<svg version="1.1" id="lead-block-04_sp.svg" xmlns="http://www.w3.org/2000/svg" xmlns:xlink="http://www.w3.org/1999/xlink"
	 x="0px" y="0px" viewBox="0 0 360.5 88.6" style="enable-background:new 0 0 360.5 88.6;" xml:space="preserve">
<style type="text/css">
	.st0{fill:none;stroke:#1147B4;stroke-width:3;stroke-linecap:round;stroke-dasharray:1.000000e-03,6;}
	.st1{fill:#1147B4;}
</style>
<path id="シェイプ_984" class="st0" d="M85.7,34.1h189"/>
<path id="シェイプ_984-2" class="st0" d="M112.7,84.1h136.9"/>
<g>
	<path class="st1" d="M97.3,15c0,0,0,0.8-0.1,1.2c-0.3,5.8-0.7,8.2-1.5,9c-0.6,0.7-1.2,1-2.1,1.1c-0.7,0.1-1.9,0.1-3.3,0.1
		c-0.1-0.9-0.4-2.1-0.9-2.9c1.1,0.1,2.2,0.1,2.6,0.1c0.4,0,0.6-0.1,0.9-0.3c0.4-0.5,0.7-1.9,1-5.5h-6.2c0.5-2.3,0.9-5.9,1.1-8.8h5.1
		V5.9h-5.6V3H97v8.9h-5.5c-0.1,1-0.2,2.1-0.3,3.1H97.3z M110.2,26.7c-0.1-0.5-0.3-1-0.5-1.6c-4.3,0.3-8.8,0.7-12.1,0.9l-0.4-3.1
		c1.7-0.1,3.8-0.2,6-0.3v-3h-5.1V12h5.1V9.9h3V12h5.2v7.6h-1.4c1.2,1.9,2.5,4.3,3,5.9L110.2,26.7z M110.2,10.9
		c-0.2-0.5-0.5-1-0.9-1.7c-8.6,0.7-9.8,0.9-10.6,1.2c-0.2-0.6-0.7-1.9-1.1-2.7c0.5-0.1,1-0.5,1.4-1.1c0.5-0.6,2-2.7,2.9-4.9l3.3,0.8
		c-0.9,1.7-2.2,3.4-3.4,4.8l5.7-0.4c-0.5-0.7-1-1.3-1.6-1.9l2.2-1.3c1.7,1.7,3.6,4,4.4,5.7L110.2,10.9z M103.3,17v-2.5h-2.3V17
		H103.3z M106.2,14.6V17h2.4v-2.5H106.2z M108.4,22.3c-0.3-0.6-0.7-1.2-1-1.7l2.4-1h-3.6v2.9L108.4,22.3z"/>
	<path class="st1" d="M138,7.2c0,0,0,1.1-0.1,1.5c-0.5,10.6-1.1,14.6-2.2,16c-0.8,1-1.6,1.3-2.7,1.5c-1,0.1-2.6,0.1-4.3,0.1
		c-0.1-1-0.5-2.4-1.1-3.3c1.7,0.1,3.3,0.1,3.9,0.1c0.6,0,0.9-0.1,1.3-0.4c0.8-0.8,1.3-4.3,1.8-12.2h-7.5c-0.4,5.5-2.3,12-9.8,16.2
		c-0.5-0.8-1.7-2-2.5-2.6c6.6-3.6,8.4-9,8.8-13.6h-8V7.2h8.2V1.7h3.4v5.5H138z"/>
	<path class="st1" d="M150.8,15.8c-1,0.3-2.1,0.6-3.1,0.8V23c0,1.5-0.3,2.3-1.2,2.8c-0.9,0.5-2.2,0.6-4,0.6
		c-0.1-0.8-0.5-2.1-0.9-2.9c1,0,2.2,0,2.5,0c0.4,0,0.5-0.1,0.5-0.5v-5.5l-3.1,0.8l-0.6-3.1c1.1-0.2,2.3-0.5,3.7-0.8V9.6h-3.2V6.7
		h3.2v-5h3.1v5h2.8v2.9h-2.8v4l2.7-0.7L150.8,15.8z M163.4,23.6c0.1,0,0.3,0,0.4-0.1c0.1-0.1,0.1-0.3,0.2-0.9c0-0.5,0.1-1.7,0.1-3.1
		c0.6,0.5,1.5,1,2.3,1.3c0,1.4-0.1,3.1-0.3,3.8c-0.2,0.7-0.5,1.1-0.9,1.4c-0.4,0.3-1.1,0.4-1.6,0.4h-1.4c-0.6,0-1.4-0.2-1.8-0.7
		c-0.5-0.5-0.7-1.1-0.7-3.1V14h-3.6v1.9c0,3.5-0.9,8.1-5.2,10.8c-0.4-0.7-1.6-1.9-2.1-2.4c3.8-2.3,4.2-5.7,4.2-8.4v-4.8h9.9v11.3
		c0,0.6,0,0.9,0.1,1c0.1,0.1,0.2,0.1,0.3,0.1H163.4z M166.1,9H151V6h5.6c-0.3-1.1-0.9-2.6-1.4-3.8l3.1-0.8c0.6,1.2,1.3,2.8,1.6,3.8
		L157.3,6h8.8V9z"/>
	<path class="st1" d="M172.8,14.5c-1.1-0.8-3.4-2.1-5-2.9l1.7-2.3c1.5,0.7,3.8,1.8,5,2.6L172.8,14.5z M168.8,24.1
		c1.4-2,3.4-5.3,5-8.4l2.3,2.1c-1.4,2.8-3.1,5.8-4.7,8.4L168.8,24.1z M174.2,7.4c-1.1-0.9-3.4-2.3-4.9-3.4l1.8-2.2
		c1.6,0.9,3.9,2.2,5,3.1L174.2,7.4z M192.6,15.3h-7v11.2h-3.4V15.3h-6.5v-3.2h6.5v-6h-5.3V3h14.7v3.1h-5.9v6h7V15.3z"/>
	<path class="st1" d="M210.2,14.1c0,1.9-1.5,3.4-3.4,3.4s-3.4-1.5-3.4-3.4c0-1.9,1.5-3.4,3.4-3.4S210.2,12.2,210.2,14.1z"/>
	<path class="st1" d="M231.1,8.8c-1.2,7.2-4,12.6-7.8,15.4c-0.5-0.7-1.8-2-2.6-2.5c3.1-2.1,5.4-5.7,6.5-10.4h-5.6V8.1h6.7l0.6-0.1
		L231.1,8.8z M244.4,8.3c-2,2-4.3,4.2-6.2,5.7c2,3.1,4.7,5.6,8.1,7c-0.8,0.7-1.8,2-2.4,3c-3.8-2-6.6-5.2-8.7-9.2v7.6
		c0,1.8-0.3,2.8-1.4,3.4c-1,0.6-2.6,0.7-4.8,0.7c-0.1-1-0.7-2.6-1.2-3.5c1.5,0.1,2.9,0.1,3.4,0.1c0.5,0,0.6-0.2,0.6-0.6V1.6h3.4v6.5
		c0.4,1.2,0.9,2.3,1.5,3.4c1.7-1.6,3.5-3.6,4.7-5.3L244.4,8.3z"/>
	<path class="st1" d="M271.9,5.7c0,0,0,1.1,0,1.4c-0.3,11.9-0.6,16.1-1.7,17.6c-0.7,1-1.5,1.3-2.6,1.5c-1,0.1-2.6,0.1-4.2,0.1
		c-0.1-0.9-0.5-2.2-1-3.1c1.7,0.2,3.3,0.2,4,0.2c0.5,0,0.8-0.1,1.2-0.5c0.8-0.9,1.1-4.8,1.4-14.3h-5.7c-0.7,1.6-1.5,3.1-2.3,4.2
		c-0.4-0.4-1.3-1-2.1-1.5v12.4h-7.1v1.9h-2.9V5.9h3c0.3-1.3,0.7-3,0.8-4.3l3.5,0.5c-0.5,1.3-0.9,2.7-1.4,3.8h4.1v4.3
		c1.5-2.2,2.8-5.5,3.6-8.6l3,0.7c-0.3,1.1-0.6,2.3-1,3.4H271.9z M255.9,8.7h-4.2V13h4.2V8.7z M255.9,21v-5.2h-4.2V21H255.9z
		 M264.8,19.5c-0.7-1.6-2.4-4.2-3.7-6.2l2.5-1.4c1.3,1.8,3.1,4.4,3.9,5.9L264.8,19.5z"/>
	<path class="st1" d="M121.2,67c-0.2-0.7-0.6-1.7-1.1-2.6v12.1h-2.8v-9.2c-0.6,1.7-1.2,3.2-1.8,4.3c-0.3-0.9-1-2.3-1.4-3.1
		c1.3-1.9,2.5-5.4,3.2-8.4v-0.9h-2.5v-2.8h2.5v-4.8h2.8v4.8h2.6v2.8h-2.6v1.3c0.6,0.9,2.1,3.1,2.6,4.1v-5.3h5.3v9.4h-3.3v1.1h-2V65
		L121.2,67z M121.3,73.1h18v2.8h-18V73.1z M126,59.1c0.5-1.1,1-2.7,1.4-4.2h-4.9v-2.7h16.1v2.7h-8.3c-0.2,0.6-0.4,1.3-0.6,1.9h2.7
		c0,0,0,0.9,0,1.2l-0.1,4.5l1.8-1.4c0.5,0.6,1,1.2,1.5,1.9c0.3-0.9,0.5-1.8,0.6-2.8H133v-2.3h4.1l0.5-0.1l1.6,0.5
		c-0.3,2.8-0.9,5.2-1.7,7.2c0.8,1.3,1.5,2.5,1.9,3.5l-2,1.6c-0.3-0.7-0.7-1.6-1.2-2.5c-0.8,1.4-1.8,2.5-2.8,3.2
		c-0.3-0.4-0.9-1.1-1.4-1.6c-0.1,0.7-0.2,1.2-0.4,1.4c-0.5,0.7-1,1-1.7,1.1c-0.7,0.1-1.7,0.1-2.7,0.1c0-0.7-0.3-1.8-0.7-2.5
		c0.8,0.1,1.5,0.1,2,0.1c0.3,0,0.5-0.1,0.7-0.4c0.4-0.6,0.5-3.2,0.5-10.6H126z M124.7,61.6v4.9h1.3v-4.9H124.7z M132.4,62.5
		c-0.1,3-0.1,5.1-0.2,6.4c1-0.9,1.8-2,2.5-3.3C133.9,64.5,133.1,63.4,132.4,62.5z"/>
	<path class="st1" d="M164.5,59.2c-0.6,4.1-1.6,7.5-3.1,10.2c1.3,1.9,2.9,3.5,4.8,4.6c-0.7,0.6-1.7,1.7-2.2,2.5
		c-1.7-1.1-3.2-2.6-4.4-4.4c-1.5,1.8-3.4,3.3-5.7,4.5c-0.4-0.6-1.5-1.8-2.2-2.3c2.7-1.2,4.7-2.8,6.2-4.9c-0.7-1.5-1.4-3.1-1.9-4.7
		c-0.3,0.6-0.7,1.1-1.1,1.7c-0.3-0.6-1.2-1.8-1.8-2.5l-1.2,0.7c-0.1-0.3-0.3-0.7-0.5-1.1c-0.4,1.5-0.9,2.9-1.5,4.1
		c1.4,1.6,2.6,3.1,3.3,4.4l-2.5,2c-0.5-1-1.3-2.2-2.3-3.5c-1.4,2.3-3.2,4.2-5.3,5.5c-0.4-0.6-1.5-1.8-2.1-2.3
		c2.3-1.3,4.1-3.3,5.4-5.6c-0.9-1-1.8-2-2.7-2.9c-0.3,0.4-0.5,0.7-0.7,1c-0.5-0.5-1.5-1.5-2.2-2c1.3-1.5,2.7-3.8,3.5-6L147,59
		c-0.8,1.9-2,4-3.1,5.7l2-1.5c0.6,0.6,1.2,1.2,1.8,1.8c0.3-0.9,0.6-1.8,0.8-2.8l2.5,0.5c-0.6-1.2-1.5-2.5-2.3-3.6l1.9-1.1h-9.1v-2.9
		h5.3c-0.3-0.9-0.9-1.9-1.4-2.8l2.7-1c0.7,1,1.4,2.2,1.7,3.1l-1.7,0.7h6.1v2.9h-3c1,1.3,2.1,2.8,2.7,4.1c1.6-2.8,2.6-6.7,3.1-10.7
		l2.9,0.5c-0.2,1.4-0.5,2.8-0.8,4.2h6.6v2.9H164.5z M158.3,59.2c-0.2,0.6-0.4,1.1-0.6,1.7c0.5,1.9,1.1,3.8,1.9,5.4
		c0.9-2,1.4-4.4,1.8-7.1H158.3z"/>
	<path class="st1" d="M177.8,53.9c-0.7,2.3-1.7,5.3-2.5,7.4c1.7,2.1,2,3.9,2,5.5c0,1.8-0.4,2.9-1.3,3.5c-0.4,0.3-0.9,0.5-1.5,0.6
		c-0.5,0.1-1.2,0.1-1.8,0.1c0-0.8-0.3-2.1-0.7-2.9c0.5,0.1,0.9,0.1,1.2,0c0.3,0,0.6-0.1,0.8-0.2c0.3-0.2,0.5-0.8,0.5-1.5
		c0-1.2-0.4-2.9-1.9-4.7c0.6-1.7,1.2-4.2,1.6-6h-2.3v20.9h-3V52.8h6.3l0.5-0.1L177.8,53.9z M183.8,58.8c-0.1,1.1-0.1,2.1-0.2,3.2
		h7.3c0,0,0,0.9,0,1.3c-0.3,7.8-0.5,10.8-1.3,11.8c-0.6,0.8-1.2,1.1-2.1,1.2c-0.8,0.1-2.1,0.1-3.4,0.1c-0.1-0.9-0.4-2.2-1-3.1
		c1.2,0.1,2.3,0.2,2.8,0.2c0.4,0,0.7-0.1,0.9-0.4c0.5-0.5,0.7-2.7,0.9-8.2h-4.3c-0.7,5-2.3,9-7,11.6c-0.4-0.8-1.3-1.9-2-2.5
		c5.7-3,6.1-8.3,6.3-15.2h-3.4v-2.9h6.5c-0.2-1-0.7-2.5-1.1-3.7l2.9-0.7c0.5,1.2,1,2.8,1.3,3.8l-2.2,0.6h7.8v2.9H183.8z"/>
	<path class="st1" d="M204.5,58.8c-1.2,7.2-4,12.6-7.8,15.4c-0.5-0.7-1.8-2-2.6-2.5c3.1-2.1,5.4-5.7,6.5-10.4h-5.6v-3.2h6.7l0.6-0.1
		L204.5,58.8z M217.7,58.3c-2,2-4.3,4.2-6.2,5.7c2,3.1,4.7,5.6,8.1,7c-0.8,0.7-1.8,2-2.4,3c-3.8-2-6.6-5.2-8.7-9.2v7.6
		c0,1.8-0.3,2.8-1.4,3.4c-1,0.6-2.6,0.7-4.8,0.7c-0.1-1-0.7-2.6-1.2-3.5c1.5,0.1,2.9,0.1,3.4,0.1c0.5,0,0.6-0.2,0.6-0.6V51.6h3.4
		v6.5c0.4,1.2,0.9,2.3,1.5,3.4c1.7-1.6,3.5-3.6,4.7-5.3L217.7,58.3z"/>
	<path class="st1" d="M245.4,72.7v2.9h-24v-2.9h10.4v-2.1h-7.7v-2.9h7.7V66h-2v-5.1h-2.5c-0.4,2.2-1.5,4.4-4.2,5.8
		c-0.4-0.6-1.5-1.8-2.1-2.2c2-1,2.9-2.3,3.2-3.6h-2.7v-2.8h3v-2.8h-2.1v-2.8h12.1v2.8h-1.9v2.8h2.5v2.8h-2.5v4.7h2.3v2.1h7.7v2.9
		h-7.7v2.1H245.4z M229.8,58.1v-2.8h-2.2v2.8H229.8z M239.3,62.2h-2.9v-9h2.9V62.2z M244.3,63.3c0,1.5-0.3,2.2-1.3,2.7
		c-1,0.4-2.3,0.5-4.2,0.5c-0.1-0.8-0.6-2-0.9-2.8c1.2,0.1,2.5,0.1,2.9,0c0.4,0,0.5-0.1,0.5-0.5V51.9h3V63.3z"/>
</g>
</svg>
