<?xml version="1.0" encoding="utf-8"?>
<!-- Generator: Adobe Illustrator 26.0.3, SVG Export Plug-In . SVG Version: 6.00 Build 0)  -->
<svg version="1.1" id="tag-tm.svg" xmlns="http://www.w3.org/2000/svg" xmlns:xlink="http://www.w3.org/1999/xlink" x="0px" y="0px"
	 viewBox="0 0 133 30" style="enable-background:new 0 0 133 30;" xml:space="preserve">
<style type="text/css">
	.st0{fill:#FFFFFF;}
	.st1{fill:#96711C;}
</style>
<path id="長方形_688" class="st0" d="M3,0h127c1.7,0,3,1.3,3,3v24c0,1.7-1.3,3-3,3H3c-1.7,0-3-1.3-3-3V3C0,1.3,1.3,0,3,0z"/>
<g>
	<path class="st1" d="M19,15.3c-0.6-0.5-2-1.3-2.9-1.8l1-1.5c0.8,0.5,2.2,1.2,2.9,1.7L19,15.3z M16.5,21.6c0.8-1.3,1.9-3.5,2.8-5.4
		l1.4,1.1c-0.8,1.8-1.7,3.8-2.6,5.4L16.5,21.6z M19.5,10.9C19,10.3,17.8,9.4,17,8.8l1.2-1.4c0.8,0.6,2,1.4,2.6,1.9L19.5,10.9z
		 M32.2,12.3v1.4H20.3v-1.4h4.9v-0.8h-4v-1.3h4V9.5h-4.4V8h4.4V7.1h2V8h4.5v1.4h-4.5v0.7h4.1v1.3h-4.1v0.8H32.2z M30.9,21
		c0,0.9-0.2,1.4-0.9,1.7c-0.6,0.3-1.5,0.3-2.7,0.3c-0.1-0.5-0.4-1.2-0.6-1.7c0.7,0,1.5,0,1.8,0c0.2,0,0.3-0.1,0.3-0.3v-0.7h-5.3
		c-0.2,1-0.6,2-1.3,2.7c-0.3-0.4-1.1-1.2-1.5-1.4c1-1.2,1.1-2.8,1.1-4.1v-3h9.1V21z M28.8,19v-0.9h-5c0,0.3,0,0.6-0.1,0.9H28.8z
		 M23.8,15.9v0.9h5v-0.9H23.8z"/>
	<path class="st1" d="M47.3,19c-0.3-0.3-0.7-0.7-1.2-1.1c-0.4,0.3-0.7,0.6-1.1,0.8c-0.3-0.3-0.9-0.8-1.3-1c1.2,1.8,2.9,2.9,5.5,3.5
		c-0.4,0.4-1,1.3-1.2,1.8c-3.4-0.9-5.4-2.7-6.6-5.4c-1,2.5-2.9,4.4-6.8,5.5c-0.2-0.6-0.8-1.4-1.2-1.9c6-1.6,6.8-4.7,6.9-10.2h-6.6
		V9.2h6.6v-2h2.1v2h6.5V11h-6.5c0,1-0.1,1.9-0.2,2.8c0.3,1.5,0.8,2.8,1.4,3.8c0.4-0.2,0.7-0.5,1.1-0.7c-0.4-0.3-0.8-0.5-1.1-0.7
		l1.2-1c0.3,0.2,0.7,0.4,1.1,0.7c0.4-0.3,0.7-0.7,0.9-1l1.6,0.6c-0.3,0.4-0.7,0.9-1.2,1.4c0.5,0.4,1,0.7,1.3,1.1L47.3,19z
		 M37.4,18.9c-0.2-0.3-0.5-0.5-0.9-0.8c-0.5,0.4-1,0.8-1.5,1.1c-0.3-0.3-1-0.9-1.4-1.2c0.5-0.3,1-0.6,1.5-1c-0.3-0.2-0.7-0.4-1-0.6
		l1.2-1c0.3,0.2,0.6,0.4,1,0.6c0.4-0.4,0.7-0.7,1-1.1l1.6,0.6c-0.4,0.5-0.8,1-1.3,1.5c0.4,0.3,0.7,0.6,0.9,0.8L37.4,18.9z
		 M37.9,14.9c-0.3-0.3-0.7-0.6-1.1-1c-0.6,0.4-1.1,0.8-1.6,1.2c-0.3-0.3-0.9-0.9-1.3-1.1c0.5-0.3,1-0.6,1.6-1
		c-0.4-0.3-0.8-0.5-1.2-0.7l1.1-1c0.4,0.2,0.8,0.5,1.3,0.7c0.4-0.3,0.7-0.6,1-1l1.5,0.6c-0.3,0.4-0.7,0.8-1.2,1.2
		c0.4,0.3,0.8,0.6,1.1,0.8L37.9,14.9z M48.1,11.6c-0.3,0.4-0.7,0.8-1.2,1.2c0.5,0.3,0.9,0.6,1.2,0.9l-1.2,1.1
		c-0.3-0.3-0.7-0.6-1.1-1c-0.5,0.5-1.1,0.9-1.5,1.2c-0.3-0.3-1-0.9-1.3-1.1c0.5-0.3,1-0.6,1.5-1c-0.4-0.3-0.8-0.5-1.2-0.7l1.1-1
		c0.4,0.2,0.8,0.5,1.3,0.7c0.3-0.3,0.7-0.6,0.9-1L48.1,11.6z"/>
	<path class="st1" d="M56.2,17.2c1-0.1,2.1-0.2,3.1-0.3v1.8c-1,0.1-2.1,0.2-3.1,0.3v2c0,0.9-0.2,1.4-0.8,1.7
		C54.8,22.9,54,23,52.8,23c-0.1-0.5-0.4-1.3-0.6-1.8c0.7,0,1.5,0,1.7,0c0.2,0,0.3,0,0.3-0.2v-1.7c-1.3,0.1-2.6,0.2-3.6,0.3l-0.2-1.9
		c1.1-0.1,2.4-0.2,3.8-0.3v-0.8c0.5-0.4,1.1-1,1.6-1.6h-4.6v-1.7h0.7c-0.2-0.7-0.7-1.8-1.1-2.7l1.6-0.6c0.5,0.8,1,2,1.2,2.7
		l-1.4,0.6h4.9l0.4-0.1l1.3,1C58.3,15.1,57.3,16.2,56.2,17.2L56.2,17.2z M59.8,8.7c-2.5,0.6-5.8,0.9-8.7,1.1
		c-0.1-0.5-0.3-1.2-0.5-1.6c2.8-0.2,6-0.5,8-1.1L59.8,8.7z M54.5,13c-0.1-0.7-0.5-1.9-0.9-2.8l1.6-0.5c0.4,0.9,0.7,2,0.9,2.7
		L54.5,13z M56.3,12.5c0.5-0.9,1-2.3,1.3-3.3l1.9,0.7c-0.6,1.2-1.2,2.4-1.7,3.3L56.3,12.5z M63.8,20.8c0.4,0,0.5-0.6,0.6-3.1
		c0.5,0.4,1.3,0.8,1.8,0.9c-0.2,3-0.6,4-2.2,4h-1.6c-1.7,0-2.1-0.7-2.1-2.8V7.5h2v12.2c0,0.9,0.1,1,0.5,1H63.8z"/>
	<path class="st1" d="M70,15.2c-0.6-0.6-1.8-1.4-2.7-2l1.2-1.4c0.9,0.5,2.2,1.3,2.8,1.8L70,15.2z M67.4,21.7
		c0.7-1.3,1.6-3.4,2.3-5.4l1.6,1.1c-0.6,1.8-1.3,3.7-2.1,5.4L67.4,21.7z M82.8,12.6c-0.5,2.7-1.4,4.9-2.6,6.7c0.9,0.9,2,1.6,3.2,2.1
		c-0.4,0.4-1.1,1.1-1.3,1.6c-1.1-0.6-2.2-1.4-3.1-2.3c-0.9,1-2,1.7-3.1,2.3c-0.3-0.4-0.7-1.1-1.1-1.5V23h-1.8v-6.8
		c-0.3,0.3-0.6,0.7-0.8,1c-0.3-0.4-0.9-1-1.3-1.3c1.3-1.3,2.5-3.5,3.1-5.2h-2V9.7l-1.1,1.2c-0.5-0.6-1.7-1.5-2.6-2.2l1.2-1.3
		c0.8,0.5,1.8,1.2,2.4,1.8V8.8h4.7C76.3,8.4,76.2,8,76,7.6l1.8-0.5c0.3,0.5,0.6,1.2,0.8,1.8h4.5v1.9h-5.5l1.6,0.4
		c-0.1,0.4-0.3,0.7-0.4,1.1h2.5l0.3-0.1L82.8,12.6z M75.8,11.2c-0.3,0.7-0.6,1.5-1.1,2.2v2.5c1.2-1.4,2.2-3.5,2.7-5.2h-3.2
		L75.8,11.2z M74.7,21.5c1.1-0.5,2.2-1.3,3.1-2.2c-0.6-0.8-1.1-1.6-1.5-2.5c-0.2,0.3-0.5,0.6-0.7,0.9c-0.2-0.2-0.5-0.6-0.8-0.8V21.5
		z M77.3,15.3c0.4,0.9,1,1.8,1.6,2.7c0.2-0.4,0.5-0.8,0.7-1.2c-0.6-0.5-1.4-1.1-2.2-1.6L77.3,15.3z M78.1,13.8L78.1,14
		c0.7,0.4,1.6,1,2.1,1.4c0.2-0.5,0.4-1,0.5-1.6H78.1z"/>
	<path class="st1" d="M91.8,15.7h1.7v7.2h-1.7v-2.2H87c-0.3,0.9-0.8,1.7-1.7,2.3c-0.3-0.3-0.8-0.9-1.2-1.1c1.4-1.1,1.6-2.8,1.6-3.9
		v-2.2h1.6v0.9h4.4V15.7z M88.4,11.4c0,2-0.1,2.9-0.3,3.3c-0.2,0.3-0.4,0.4-0.7,0.4c-0.2,0-0.6,0.1-1,0.1c0-0.4-0.1-0.8-0.2-1.1
		c-0.3,0.5-0.6,0.9-1,1.3c-0.2-0.3-0.5-0.8-0.8-1c0.6-0.5,1-1.2,1.1-2.1h-0.8v-1.2h3.6c-0.1-0.2-0.2-0.4-0.4-0.5l0.6-0.3h-3.7V8.5
		H89c-0.2-0.4-0.3-0.8-0.5-1.1L90,6.9c0.3,0.5,0.6,1.1,0.8,1.6h4v1.5h-3.8l1.1,0.4c-0.5,0.5-1.1,1.1-1.6,1.6v3.4h-1.3V12
		c0.5-0.6,1.2-1.4,1.5-2h-1.7c0.3,0.4,0.6,0.9,0.8,1.2l-1,0.6c-0.1-0.2-0.2-0.4-0.3-0.6L88.4,11.4z M86.7,12.2
		c-0.1,0.7-0.3,1.2-0.5,1.8c0.2,0,0.4,0,0.5,0c0.1,0,0.2,0,0.3-0.1c0.1-0.2,0.1-0.6,0.2-1.7H86.7z M91.8,19.1v-1h-4.4
		c0,0.3,0,0.6-0.1,1H91.8z M94,10.4l1.1,1c-0.8,0.4-1.8,0.7-2.7,1v1.5l0.9-0.2c0,0.3,0.1,0.8,0.1,1.1c-1.5,0.4-1.9,0.5-2.1,0.7
		c-0.1-0.3-0.3-0.9-0.5-1.2c0.2-0.1,0.4-0.3,0.4-0.9l0-1.8C92.2,11.2,93.3,10.8,94,10.4z M94,12.1c0.5,0.6,1,1.5,1.3,2.1L94.2,15
		c-0.2-0.6-0.8-1.6-1.3-2.2L94,12.1z M97,18.7h-1.6V9H97V18.7z M99.7,7.3V21c0,0.9-0.2,1.4-0.7,1.7c-0.5,0.3-1.3,0.4-2.4,0.4
		c-0.1-0.5-0.3-1.2-0.5-1.7c0.7,0,1.4,0,1.6,0c0.2,0,0.3-0.1,0.3-0.3V7.3H99.7z"/>
	<path class="st1" d="M116.9,20.6v1.9h-15.3v-1.9h6.6v-1.4h-4.9v-1.8h4.9v-1.1h-1.3v-3.3h-1.6c-0.3,1.4-1,2.8-2.7,3.7
		c-0.3-0.4-1-1.1-1.3-1.4c1.3-0.6,1.8-1.5,2.1-2.3h-1.7v-1.8h1.9V9.5h-1.3V7.7h7.7v1.8h-1.2v1.8h1.6v1.8h-1.6v3h1.5v1.4h4.9v1.8
		h-4.9v1.4H116.9z M106.9,11.3V9.5h-1.4v1.8H106.9z M113,13.8h-1.9V8.1h1.9V13.8z M116.2,14.6c0,0.9-0.2,1.4-0.8,1.7
		c-0.6,0.3-1.5,0.3-2.7,0.3c-0.1-0.5-0.4-1.3-0.6-1.8c0.8,0,1.6,0,1.8,0c0.2,0,0.3-0.1,0.3-0.3V7.3h1.9V14.6z"/>
</g>
</svg>
