<svg id="name-song.svg" xmlns="http://www.w3.org/2000/svg" width="350.563" height="21.18" viewBox="0 0 350.563 21.18">
  <defs>
    <style>
      .cls-1 {
        fill-rule: evenodd;
      }
    </style>
  </defs>
  <path id="FIVE_NEW_OLD" data-name="FIVE NEW OLD" class="cls-1" d="M302.738,8016.9h-9.353v18.68h2.856v-8.57h6.273v-2.68h-6.273v-4.74h6.5v-2.69Zm4.367,0v18.68h2.856V8016.9h-2.856Zm6.327,0,8.289,19.89,8.29-19.89H326.93l-5.209,13.03-5.208-13.03h-3.081Zm30.354,0H333.48v18.68h10.306v-2.69h-7.449v-5.88h7.225v-2.68h-7.225v-4.74h7.449v-2.69Zm15.314,18.68v-13.05l13.554,14.2V8016.9H369.8v12.94l-13.554-14.2v19.94H359.1Zm29.457-18.68H378.251v18.68h10.306v-2.69h-7.449v-5.88h7.225v-2.68h-7.225v-4.74h7.449v-2.69Zm2.686,0,7.953,19.89,4.929-13.25L409,8036.79l8.345-19.89h-3.081l-5.1,12.49-4.873-13.38-5.041,13.38-4.928-12.49h-3.081Zm46.033-.33a9.69,9.69,0,1,0,9.717,9.69A9.475,9.475,0,0,0,437.276,8016.57Zm0,16.74a7.058,7.058,0,1,1,6.861-7.05A6.682,6.682,0,0,1,437.276,8033.31Zm14.418-16.41v18.68h8.346v-2.69h-5.489V8016.9h-2.857Zm12.152,0v18.68h3.865c2.6,0,4.649-.25,6.833-1.79a8.9,8.9,0,0,0,3.752-7.53,9.26,9.26,0,0,0-3.584-7.54c-2.072-1.54-4.341-1.82-6.945-1.82h-3.921Zm2.857,2.69h1.232a8.345,8.345,0,0,1,4.985,1.29,6.654,6.654,0,0,1,2.52,5.38,6.582,6.582,0,0,1-2.548,5.32,8.109,8.109,0,0,1-4.957,1.31H466.7v-13.3Z" transform="translate(-293.375 -8015.66)"/>
  <path id="ファイブニューオールド" class="cls-1" d="M504.212,8028.03a11.675,11.675,0,0,1-2.368,3.99,13.576,13.576,0,0,1-4.58,3.51,4.125,4.125,0,0,1,1.3.77,0.5,0.5,0,0,0,.351.15,0.64,0.64,0,0,0,.378-0.13,15.574,15.574,0,0,0,3.978-3.33,16.552,16.552,0,0,0,2.718-4.55,1.76,1.76,0,0,1,.322-0.55,0.468,0.468,0,0,0,.2-0.35,0.375,0.375,0,0,0-.1-0.24,4.475,4.475,0,0,0-1.023-.92,0.722,0.722,0,0,0-.266-0.07,0.406,0.406,0,0,0-.21.05,1.276,1.276,0,0,1-.77.14h-5a25.069,25.069,0,0,1-2.69-.09c0.028,0.4.084,1.13,0.126,1.41,0.028,0.2.084,0.3,0.267,0.28,0.6-.03,1.4-0.07,2.311-0.07h5.057Zm13.509,1.79a8.578,8.578,0,0,1-1.68,1.9,2.638,2.638,0,0,1,.938.49,0.472,0.472,0,0,0,.308.12,0.35,0.35,0,0,0,.238-0.11,14.673,14.673,0,0,0,1.821-2.19,1,1,0,0,1,.365-0.29,0.222,0.222,0,0,0,.14-0.2,0.4,0.4,0,0,0-.07-0.21,5.359,5.359,0,0,0-.813-0.91,0.371,0.371,0,0,0-.224-0.11,0.44,0.44,0,0,0-.2.07,1.466,1.466,0,0,1-.743.11h-4.692c-1.009,0-1.443-.01-2.283-0.08,0.056,0.46.14,1.04,0.2,1.3a0.272,0.272,0,0,0,.308.18c0.616-.02,1.065-0.07,1.891-0.07h4.5Zm-3.642.59a3.675,3.675,0,0,1,.141,1.15,4.719,4.719,0,0,1-2.844,4.55,3.5,3.5,0,0,1,1.093.58,0.43,0.43,0,0,0,.266.12,0.658,0.658,0,0,0,.336-0.14,5.651,5.651,0,0,0,2.647-5.08,1.224,1.224,0,0,1,.1-0.53,0.386,0.386,0,0,0,.056-0.2,0.238,0.238,0,0,0-.238-0.22A11.45,11.45,0,0,0,514.079,8030.41Zm16.368-1.48a22.114,22.114,0,0,0,1.639-1.77,5.114,5.114,0,0,1,.84-0.77,0.392,0.392,0,0,0,.2-0.31,0.252,0.252,0,0,0-.112-0.21,12.642,12.642,0,0,0-1.555-.98,4.019,4.019,0,0,1-.882,1.45,23.078,23.078,0,0,1-2.984,2.92,22.467,22.467,0,0,1-4.412,2.88,5.185,5.185,0,0,1,1.2.82,0.383,0.383,0,0,0,.294.14,0.406,0.406,0,0,0,.21-0.05,24.835,24.835,0,0,0,3.852-2.69v3.26c0,0.95-.042,1.86-0.056,2.87-0.014.17,0.042,0.23,0.2,0.23,0.448,0.02.953,0.02,1.4,0a0.184,0.184,0,0,0,.21-0.24c-0.028-1.12-.042-1.95-0.042-2.92v-4.63Zm14.462-.6a11.847,11.847,0,0,1-2.367,3.99,13.564,13.564,0,0,1-4.58,3.5,4.125,4.125,0,0,1,1.3.77,0.494,0.494,0,0,0,.35.15,0.7,0.7,0,0,0,.379-0.12,15.638,15.638,0,0,0,3.978-3.34,16.4,16.4,0,0,0,2.717-4.55,1.581,1.581,0,0,1,.322-0.54,0.5,0.5,0,0,0,.2-0.35,0.336,0.336,0,0,0-.1-0.24,4.29,4.29,0,0,0-1.022-.93,0.722,0.722,0,0,0-.266-0.07,0.42,0.42,0,0,0-.21.06,1.36,1.36,0,0,1-.771.14h-5a24.4,24.4,0,0,1-2.69-.1c0.028,0.41.084,1.14,0.126,1.42,0.028,0.19.084,0.29,0.266,0.28,0.6-.03,1.4-0.07,2.312-0.07h5.056Zm1.107-2.85a6.925,6.925,0,0,1,1.415,1.63,0.15,0.15,0,0,0,.238.04l0.518-.38a0.138,0.138,0,0,0,.042-0.22,6.162,6.162,0,0,0-1.331-1.5c-0.084-.07-0.14-0.09-0.21-0.03Zm1.219-.87a6.736,6.736,0,0,1,1.4,1.61,0.145,0.145,0,0,0,.126.1,0.164,0.164,0,0,0,.112-0.05l0.463-.38a0.161,0.161,0,0,0,.042-0.25,6.026,6.026,0,0,0-1.331-1.45,0.139,0.139,0,0,0-.21-0.02Zm10.26,4.22c0.9,0,1.793.01,2.451,0.04,0.14,0,.168-0.07.182-0.26a9.311,9.311,0,0,0,0-1.25c0-.17-0.042-0.24-0.154-0.24-0.6.03-1.443,0.07-2.521,0.07h-2.774c-0.84,0-1.5-.01-2.381-0.08a9.383,9.383,0,0,0,.084,1.48c0.014,0.21.056,0.3,0.2,0.3,0.644-.03,1.261-0.06,2.143-0.06H557.5Zm1.176,5.95c0.953,0,2.4.02,3.068,0.04,0.182,0,.21-0.08.21-0.29a8.87,8.87,0,0,0,0-1.22c0-.18-0.042-0.25-0.224-0.25-0.644.03-1.6,0.07-3.152,0.07h-5.1c-0.883,0-1.892-.01-2.9-0.08,0.042,0.74.07,1.21,0.126,1.54,0.028,0.18.07,0.26,0.21,0.26,0.686-.05,1.611-0.07,2.521-0.07h5.239Zm13.426-.4,0.434-2.87a1.121,1.121,0,0,1,.281-0.71,0.342,0.342,0,0,0,.126-0.25,0.359,0.359,0,0,0-.126-0.25,4.79,4.79,0,0,0-.855-0.77,0.456,0.456,0,0,0-.21-0.08,0.262,0.262,0,0,0-.154.05,1.62,1.62,0,0,1-.827.13h-1.933c-0.588,0-1.008-.03-1.947-0.07,0.028,0.46.056,0.91,0.1,1.2,0.028,0.24.084,0.28,0.253,0.27,0.364-.02.994-0.04,1.54-0.04h2.256l-0.477,3.4h-3.249c-0.7,0-1.219,0-2.018-.06a7.019,7.019,0,0,0,.071,1.18c0.028,0.21.084,0.28,0.238,0.28,0.686-.03,1.232-0.03,1.807-0.03h5.154c0.645,0,1.317.02,1.947,0.02,0.211,0,.253-0.02.267-0.28s0.014-.62,0-0.89c-0.014-.22-0.07-0.26-0.309-0.25-0.532,0-1.148.02-1.708,0.02H572.1Zm13.734-2.52c1.037,0,2.073.01,3.124,0.02,0.2,0.02.252-.04,0.252-0.21a10.225,10.225,0,0,0,0-1.31c0-.17-0.042-0.21-0.252-0.2-1.079.01-2.157,0.04-3.222,0.04h-4.51a17.979,17.979,0,0,1-3.026-.17,15.088,15.088,0,0,0,.21,1.7,0.3,0.3,0,0,0,.322.29,11.757,11.757,0,0,1,2.059-.16h5.043Zm12.109,2.33c0.028,0.62-.084.76-0.406,0.83a9.583,9.583,0,0,1-1.975.14,2.871,2.871,0,0,1,.981,1.25,0.368,0.368,0,0,0,.434.24,4.293,4.293,0,0,0,1.933-.49,1.484,1.484,0,0,0,.672-1.49l-0.252-5.27h1.135c0.868,0,1.667.03,2.689,0.07a0.173,0.173,0,0,0,.2-0.19c0.014-.39.014-0.83,0-1.22a0.176,0.176,0,0,0-.21-0.17c-1.036.04-1.737,0.07-2.717,0.07H599.2l-0.042-1.06a3.985,3.985,0,0,1,.056-1.29,0.92,0.92,0,0,0,.056-0.21c0-.09-0.042-0.14-0.182-0.17a11.817,11.817,0,0,0-1.765-.15,6.938,6.938,0,0,1,.224,1.65l0.056,1.25H594.27c-0.84,0-1.667-.02-2.507-0.07a12.367,12.367,0,0,0,.112,1.35c0.014,0.16.07,0.26,0.2,0.24,0.729-.04,1.513-0.07,2.241-0.07l2.452-.01a13.594,13.594,0,0,1-2.059,2.17,16.344,16.344,0,0,1-3.264,2.21,3.2,3.2,0,0,1,1.148.83,0.288,0.288,0,0,0,.239.14,0.556,0.556,0,0,0,.322-0.13,15.366,15.366,0,0,0,2.647-1.96,11.221,11.221,0,0,0,1.975-2.16Zm15.331-2.33c1.037,0,2.073.01,3.124,0.02,0.2,0.02.252-.04,0.252-0.21a10.225,10.225,0,0,0,0-1.31c0-.17-0.042-0.21-0.252-0.2-1.079.01-2.157,0.04-3.222,0.04h-4.51a17.979,17.979,0,0,1-3.026-.17,15.088,15.088,0,0,0,.21,1.7,0.3,0.3,0,0,0,.322.29,11.757,11.757,0,0,1,2.059-.16h5.043Zm13.048-3.31a3.918,3.918,0,0,1,.126-1.56,0.868,0.868,0,0,0,.112-0.35,0.249,0.249,0,0,0-.252-0.23,12.687,12.687,0,0,0-1.751-.3,11.24,11.24,0,0,1,.14,2.44v4.38a2.4,2.4,0,0,1-.084,1.07,0.419,0.419,0,0,0-.056.21,0.542,0.542,0,0,0,.126.29,4.069,4.069,0,0,0,.84.86,0.591,0.591,0,0,0,.3.11,0.442,0.442,0,0,0,.28-0.11,4.369,4.369,0,0,1,.406-0.3,22.69,22.69,0,0,0,2.493-1.68,17.4,17.4,0,0,0,2.073-1.83,0.561,0.561,0,0,0,.21-0.35,0.719,0.719,0,0,0-.084-0.24,4.054,4.054,0,0,1-.434-1.42,13.513,13.513,0,0,1-2.451,2.39,15.181,15.181,0,0,1-1.989,1.3v-4.68Zm-4.889-1.56a3.8,3.8,0,0,1,.14,1.18,9.189,9.189,0,0,1-.588,3.97,6.937,6.937,0,0,1-2.325,2.78,5.194,5.194,0,0,1,1.19.59,0.472,0.472,0,0,0,.266.11,0.642,0.642,0,0,0,.365-0.18,7.26,7.26,0,0,0,1.989-2.63,10.515,10.515,0,0,0,.756-4.12,2.007,2.007,0,0,1,.168-0.95,0.283,0.283,0,0,0-.182-0.44A11.752,11.752,0,0,0,621.43,8026.99Zm16.41-.01a3.715,3.715,0,0,1,.1-1.32,0.684,0.684,0,0,0,.112-0.32,0.267,0.267,0,0,0-.266-0.24,10.408,10.408,0,0,0-1.751-.22,10.659,10.659,0,0,1,.14,2.07v6.89c0,0.9-.014,1.73-0.056,2.76,0,0.17.07,0.21,0.266,0.21a8.65,8.65,0,0,0,1.247,0c0.2,0,.266-0.04.252-0.21-0.028-1-.056-1.83-0.056-2.74v-3.1a15.434,15.434,0,0,1,3.684,1.8,0.191,0.191,0,0,0,.336-0.09,7.792,7.792,0,0,0,.6-1.22,0.254,0.254,0,0,0-.154-0.36,19.957,19.957,0,0,0-4.454-1.91v-2Zm2.521-.92a6.849,6.849,0,0,1,1.415,1.62,0.145,0.145,0,0,0,.238.04l0.588-.43a0.147,0.147,0,0,0,.042-0.23,6.292,6.292,0,0,0-1.331-1.49c-0.084-.07-0.14-0.09-0.21-0.03Zm1.289-.93a6.736,6.736,0,0,1,1.4,1.61,0.139,0.139,0,0,0,.239.04l0.56-.43a0.16,0.16,0,0,0,.042-0.25,5.809,5.809,0,0,0-1.331-1.44c-0.084-.07-0.126-0.09-0.21-0.03Z" transform="translate(-293.375 -8015.66)"/>
</svg>
