<svg xmlns="http://www.w3.org/2000/svg" width="298.719" height="31.82" viewBox="0 0 298.719 31.82">
  <defs>
    <style>
      .cls-1 {
        fill-rule: evenodd;
      }
    </style>
  </defs>
  <path id="title-photo.svg" class="cls-1" d="M557.248,6740.2l2.938-16.92,8.06,18.22,8.144-18.18,2.854,16.88h4.366l-5.289-30.1-9.823,21.74-9.739-21.74-5.877,30.1h4.366Zm51.651,0h4.618l-13.266-29.64-13.936,29.64h4.617l3.065-6.76H605.96Zm-13.139-10.79,4.323-9.49,4.156,9.49H595.76Zm25.578-17.21h-4.282v28h4.282v-11.59l0.84-.84,9.991,12.43h5.709l-12.72-15.32,12.636-12.68h-5.625l-10.831,11.16V6712.2Zm20.33,0v28h4.282v-28h-4.282Zm15.286,28v-19.56l20.317,21.28V6712.2h-4.282v19.39l-20.317-21.28v29.89h4.282Zm41.532-10.62h6.968a7.505,7.505,0,0,1-2.351,4.74,8.427,8.427,0,0,1-6.254,2.48,9.09,9.09,0,0,1-7.011-2.82,11.611,11.611,0,0,1,.084-15.44,10.085,10.085,0,0,1,7.388-2.9,9.373,9.373,0,0,1,4.954,1.22,11.29,11.29,0,0,1,3.442,3.19l3.4-2.39a12.712,12.712,0,0,0-4.533-4.2,15.126,15.126,0,0,0-7.3-1.77,14.905,14.905,0,0,0-10.452,25.23,12.182,12.182,0,0,0,9.529,3.82,13.093,13.093,0,0,0,9.529-3.56c2.729-2.65,4.156-6.55,4.156-11.34v-0.21H698.486v3.95ZM725.2,6712.2v28h4.282v-11.38h1.931a10.1,10.1,0,0,0,6.842-2.18,7.836,7.836,0,0,0,2.729-6.13,8.1,8.1,0,0,0-3.484-6.8,10.968,10.968,0,0,0-6.129-1.51H725.2Zm4.282,3.94h1.889c4.869,0,5.5,2.77,5.5,4.33,0,2.6-1.763,4.41-5.457,4.41h-1.931v-8.74Zm20.159-3.94h-4.281v28h4.281v-12.89h12.006v12.89h4.282v-28h-4.282v11.08H749.645V6712.2Zm36.241-.51a14.525,14.525,0,1,0,14.567,14.53A14.207,14.207,0,0,0,785.886,6711.69Zm0,25.11c-6,0-10.284-4.37-10.284-10.58s4.282-10.58,10.284-10.58,10.285,4.37,10.285,10.58S791.889,6736.8,785.886,6736.8Zm34.146-20.57v-4.03H802.9v4.03h6.423v23.97h4.282v-23.97h6.423Zm17.01-4.54a14.525,14.525,0,1,0,14.566,14.53A14.207,14.207,0,0,0,837.042,6711.69Zm0,25.11c-6,0-10.285-4.37-10.285-10.58s4.282-10.58,10.285-10.58,10.284,4.37,10.284,10.58S843.045,6736.8,837.042,6736.8Z" transform="translate(-552.875 -6710.09)"/>
</svg>
