<svg xmlns="http://www.w3.org/2000/svg" width="185.156" height="31.82" viewBox="0 0 185.156 31.82">
  <defs>
    <style>
      .cls-1 {
        fill-rule: evenodd;
      }
    </style>
  </defs>
  <path id="title-song.svg" class="cls-1" d="M629.459,7885.71a13.339,13.339,0,0,0-7.472-2.02,13.867,13.867,0,0,0-10.117,3.66,14.631,14.631,0,0,0-4.492,10.95,13.72,13.72,0,0,0,4.492,10.58,14.04,14.04,0,0,0,9.907,3.86,15.274,15.274,0,0,0,7.682-2.1v-5.08a11.076,11.076,0,0,1-7.556,3.24c-5.961,0-10.243-4.58-10.243-10.5,0-6.17,4.114-10.66,10.2-10.66a10.89,10.89,0,0,1,7.6,3.11v-5.04Zm8.828,26.49,2.939-16.92,8.06,18.22,8.143-18.18,2.855,16.88h4.366l-5.29-30.1-9.822,21.74L639.8,7882.1l-5.877,30.1h4.365Zm57.575-23.8a9.494,9.494,0,0,0-2.141-2.82,8.284,8.284,0,0,0-5.625-1.89c-5.247,0-8.186,3.61-8.186,7.39,0,4.2,3.4,6.13,5.709,7.1l2.687,1.13c1.847,0.76,4.03,1.93,4.03,4.79a4.5,4.5,0,0,1-4.618,4.7,4.412,4.412,0,0,1-3.652-1.68,6.035,6.035,0,0,1-1.175-3.57l-4.24.92a9.073,9.073,0,0,0,2.351,5.46,8.175,8.175,0,0,0,6.59,2.81,8.627,8.627,0,0,0,9.026-8.98c0-3.19-1.428-6.13-6.591-8.23l-2.813-1.13c-2.728-1.09-3.022-2.56-3.022-3.4,0-1.81,1.343-3.36,3.946-3.36a4.347,4.347,0,0,1,4.282,2.77Zm19.363-4.71a14.525,14.525,0,1,0,14.566,14.53A14.207,14.207,0,0,0,715.225,7883.69Zm0,25.11c-6,0-10.285-4.37-10.285-10.58s4.282-10.58,10.285-10.58,10.284,4.37,10.284,10.58S721.228,7908.8,715.225,7908.8Zm24.238,3.4v-19.56l20.317,21.28V7884.2H755.5v19.39l-20.318-21.28v29.89h4.282ZM781,7901.58h6.968a7.508,7.508,0,0,1-2.35,4.74,8.428,8.428,0,0,1-6.255,2.48,9.09,9.09,0,0,1-7.011-2.82,11.611,11.611,0,0,1,.084-15.44,10.086,10.086,0,0,1,7.389-2.9,9.372,9.372,0,0,1,4.953,1.22,11.279,11.279,0,0,1,3.442,3.19l3.4-2.39a12.7,12.7,0,0,0-4.533-4.2,15.125,15.125,0,0,0-7.3-1.77,14.905,14.905,0,0,0-10.453,25.23,12.182,12.182,0,0,0,9.529,3.82,13.092,13.092,0,0,0,9.529-3.56c2.729-2.65,4.156-6.55,4.156-11.34v-0.21H781v3.95Z" transform="translate(-607.375 -7882.09)"/>
</svg>
