<?xml version="1.0" encoding="utf-8"?>
<!-- Generator: Adobe Illustrator 25.0.1, SVG Export Plug-In . SVG Version: 6.00 Build 0)  -->
<svg version="1.1" id="レイヤー_1" xmlns="http://www.w3.org/2000/svg" xmlns:xlink="http://www.w3.org/1999/xlink" x="0px"
	 y="0px" viewBox="0 0 537.6 47.4" style="enable-background:new 0 0 537.6 47.4;" xml:space="preserve">
<style type="text/css">
	.st0{fill-rule:evenodd;clip-rule:evenodd;fill:#FFFFFF;}
</style>
<path id="PERFECT_UVseries" class="st0" d="M0,1v45.3h8.8V29.6h5.7c5.2,0,9-1.5,11.5-4c3.5-3.5,3.7-8.4,3.7-10.1
	c0.1-4.1-1.6-8.1-4.6-10.9C21.8,1.6,18.3,1,13.2,1H0z M8.8,8.6h3.1c2.1,0,4.4,0.1,6.3,1.4c1.6,1.2,2.6,3.1,2.5,5.2
	c0,2-0.9,4-2.4,5.3c-1.7,1.1-3.7,1.6-5.8,1.4H8.8L8.8,8.6L8.8,8.6z M62.8,1H37.7v45.3h25.1v-7.6H46.5V26.4h15.6v-7.6H46.5V8.6h16.3
	L62.8,1L62.8,1z M72.8,1v45.3h8.8V28.1h1.1l12.1,18.2h11L91.7,27.3c1.8-0.3,3.5-1,5-2c3.5-2.4,5.5-6.4,5.3-10.7
	c0.1-3.9-1.5-7.7-4.5-10.2C95.3,2.7,92.1,1,85.9,1L72.8,1L72.8,1z M81.6,8.2h2.7c1.6,0,8.6,0.1,8.6,6.8c0,6.7-7,6.9-8.7,6.9h-2.5
	L81.6,8.2L81.6,8.2z M137.2,1h-24.1v45.3h8.8v-20h14.3v-7.6H122V8.6h15.2L137.2,1L137.2,1z M171.3,1h-25.1v45.3h25.1v-7.6H155V26.4
	h15.6v-7.6H155V8.6h16.3L171.3,1L171.3,1z M214.2,34.4c-2.6,3.2-6.5,5-10.6,5c-7.6,0-15.4-5.4-15.4-15.5c0-8.4,5.9-15.8,15-15.8
	c4.2,0,8.2,1.9,10.9,5.1V2.8C210.8,0.9,206.9,0,203,0c-6.5,0-12.1,1.7-16.7,6c-3.9,3.6-7.3,9.5-7.3,17.7c-0.2,6.6,2.4,12.9,7.3,17.3
	c3.8,3.6,8.6,6.3,16.6,6.3c3.9,0.1,7.8-0.8,11.2-2.6L214.2,34.4L214.2,34.4z M248.9,8.6V1h-29.2v7.6h10.2v37.7h8.8V8.6H248.9
	L248.9,8.6z M266.3,1v27.7c0,4.3,0.7,8.6,3.4,12.1c3.3,4.3,9,6.5,14.8,6.5s11.6-2.2,14.8-6.5c2.7-3.5,3.4-7.8,3.4-12.1V1h-8.8v28.5
	c0.1,2.4-0.6,4.8-2.2,6.7c-3.7,4-10,4.2-13.9,0.5c-0.2-0.1-0.3-0.3-0.5-0.5c-1.5-1.9-2.3-4.3-2.2-6.7V1H266.3L266.3,1z M312.1,1
	l19,45.3h5.3L355.6,1H346l-12.1,30.4L321.8,1L312.1,1L312.1,1z M390.7,8.8c-2-3.9-6.1-6.2-10.5-6.1c-7.7,0-11,5.7-11,10.7
	c0,1.7,0.5,3.4,1.4,4.9c1.5,2.5,3.6,3.6,7.9,5.7c3.6,1.7,6.1,3,7.3,3.7c3.3,2,4.2,4.5,4.2,6.8c0,5.7-4.6,9.9-10.4,9.9
	c-3.1,0-6.1-1.3-8.1-3.7c-1-1.2-1.8-2.6-2.3-4.1l-2.5,1.2c0.6,1.7,1.6,3.3,2.8,4.7c2.4,3,6.1,4.7,10,4.5c7.4,0,13.4-5.4,13.4-12.6
	c0.1-3.4-1.7-6.6-4.6-8.3c-2.2-1.6-4.3-2.5-8.6-4.5c-4.3-2.1-7.6-3.7-7.6-8.3c-0.2-4.2,3.1-7.8,7.3-8c0.2,0,0.5,0,0.7,0
	c3.6,0,6.9,2,8.5,5.3L390.7,8.8z M423.9,3.3h-20.7v43.1h20.7v-2.6h-17.8V24.1h17.4v-2.6h-17.4V5.9h17.8L423.9,3.3L423.9,3.3z
	 M456.8,46.4L442.7,26c1.8,0,3.6-0.3,5.3-0.8c5.4-1.8,7.2-6.2,7.2-10.5c0.2-3.6-1.5-7.1-4.5-9.2c-2.8-1.9-5.8-2.2-9.1-2.2h-6.2v43.1
	h2.8V26h1.3l14,20.3L456.8,46.4L456.8,46.4z M438.3,5.9h3.6c1.7,0,4.8,0.3,6.6,1.3c1.7,0.9,3.8,3.2,3.8,7.5c0,5.6-3.7,8.8-9.8,8.8
	h-4.1V5.9L438.3,5.9z M467.2,3.3v43.1h2.8V3.3L467.2,3.3L467.2,3.3z M503.6,3.3h-20.7v43.1h20.7v-2.6h-17.8V24.1h17.4v-2.6h-17.4
	V5.9h17.8L503.6,3.3L503.6,3.3z M535.4,8.8c-2-3.9-6.1-6.2-10.5-6.1c-7.7,0-11,5.7-11,10.7c0,1.7,0.5,3.4,1.4,4.9
	c1.5,2.5,3.6,3.6,7.9,5.7c3.6,1.7,6.1,3,7.3,3.7c3.3,2,4.2,4.5,4.2,6.8c0,5.7-4.6,9.9-10.4,9.9c-3.1,0-6.1-1.3-8.1-3.7
	c-1-1.2-1.8-2.6-2.3-4.1l-2.5,1.2c0.6,1.7,1.6,3.3,2.8,4.7c2.4,3,6.1,4.7,10,4.5c7.4,0,13.4-5.4,13.4-12.6c0.1-3.4-1.7-6.6-4.6-8.3
	c-2.2-1.6-4.3-2.5-8.6-4.5c-4.3-2.1-7.6-3.7-7.6-8.3c-0.2-4.2,3.1-7.8,7.3-8c0.2,0,0.5,0,0.7,0c3.6,0,6.9,2,8.5,5.3L535.4,8.8z"/>
</svg>
