<svg xmlns="http://www.w3.org/2000/svg" width="147.125" height="31.844" viewBox="0 0 147.125 31.844">
  <defs>
    <style>
      .cls-1 {
        fill-rule: evenodd;
      }
    </style>
  </defs>
  <path id="head-topics.svg" class="cls-1" d="M228.247,827.851v-4.418H209.471v4.418h7.041v26.277h4.694V827.851h7.041Zm18.629-4.97A15.923,15.923,0,1,0,262.845,838.8,15.571,15.571,0,0,0,246.876,822.881Zm0,27.519c-6.581,0-11.275-4.786-11.275-11.6s4.694-11.6,11.275-11.6,11.275,4.786,11.275,11.6S253.457,850.4,246.876,850.4Zm23.684-26.967v30.7h4.694V841.657h2.116a11.081,11.081,0,0,0,7.5-2.393,8.6,8.6,0,0,0,2.991-6.719,8.884,8.884,0,0,0-3.82-7.455,11.993,11.993,0,0,0-6.719-1.657H270.56Zm4.694,4.326h2.07c5.339,0,6.029,3.037,6.029,4.74,0,2.853-1.933,4.832-5.983,4.832h-2.116v-9.572Zm19.225-4.326v30.7h4.694v-30.7h-4.694Zm36.626,1.657a14.589,14.589,0,0,0-8.192-2.209c-4.234,0-7.915,1.012-11.091,4A16.062,16.062,0,0,0,306.9,838.9a15.05,15.05,0,0,0,4.924,11.6,15.379,15.379,0,0,0,10.861,4.234,16.75,16.75,0,0,0,8.422-2.3v-5.568a12.181,12.181,0,0,1-8.284,3.543c-6.535,0-11.229-5.016-11.229-11.5,0-6.765,4.51-11.689,11.183-11.689a11.969,11.969,0,0,1,8.33,3.4V825.09Zm24.653,2.945a10.445,10.445,0,0,0-2.347-3.083,9.049,9.049,0,0,0-6.167-2.071c-5.752,0-8.974,3.957-8.974,8.1,0,4.6,3.728,6.719,6.259,7.777L347.474,840c2.025,0.828,4.418,2.117,4.418,5.246a4.931,4.931,0,0,1-5.062,5.154,4.845,4.845,0,0,1-4-1.84,6.632,6.632,0,0,1-1.288-3.912l-4.648,1.012a9.936,9.936,0,0,0,2.577,5.983,8.979,8.979,0,0,0,7.225,3.083,9.459,9.459,0,0,0,9.894-9.848c0-3.5-1.564-6.719-7.225-9.02l-3.083-1.242c-2.991-1.2-3.314-2.807-3.314-3.728,0-1.979,1.473-3.681,4.326-3.681a4.75,4.75,0,0,1,4.694,3.037Z" transform="translate(-209.469 -822.875)"/>
</svg>
