<?xml version="1.0" encoding="utf-8"?>
<!-- Generator: Adobe Illustrator 26.0.3, SVG Export Plug-In . SVG Version: 6.00 Build 0)  -->
<svg version="1.1" id="desc-block-02.svg" xmlns="http://www.w3.org/2000/svg" xmlns:xlink="http://www.w3.org/1999/xlink" x="0px"
	 y="0px" viewBox="0 0 369.9 32.7" style="enable-background:new 0 0 369.9 32.7;" xml:space="preserve">
<style type="text/css">
	.st0{fill:#1147B4;}
	.st1{fill:none;stroke:#1147B4;stroke-width:2;stroke-linecap:round;stroke-dasharray:1.000000e-03,4;}
</style>
<g>
	<path class="st0" d="M11,11c-0.7-0.7-2.2-1.6-3.4-2.1L9,7.1c1.2,0.4,2.7,1.2,3.5,1.9L11,11z M13,14c-0.8,2.2-1.7,4.6-2.7,6.6
		l-2.2-1.4c0.8-1.6,2-4.2,2.9-6.6L13,14z M12,5.4c-0.7-0.7-2.2-1.7-3.4-2.2L10,1.4c1.2,0.5,2.7,1.4,3.4,2L12,5.4z M23.7,8.9
		c1,1.2,2.4,2.2,3.9,2.8c-0.5,0.4-1.2,1.3-1.6,1.9c-0.3-0.1-0.6-0.3-0.8-0.4c1,1.5,1.9,3.3,2.3,4.6l-2.1,1c-0.4-1.4-1.5-3.6-2.6-5.2
		l1.7-0.8c-1.4-1-2.6-2.3-3.5-3.8h-1.9c-0.9,1.7-2.1,3.2-3.8,4.3l1.9,0.7c-0.5,1.7-1.3,3.6-2.6,4.8l-1.8-1.3c1.2-1,2-2.6,2.5-4.2
		c-0.4,0.3-0.9,0.6-1.4,0.8c-0.3-0.5-1.1-1.4-1.6-1.9c1.7-0.8,3-1.9,3.9-3.3h-3.2V6.6h4.4c0.3-0.6,0.4-1.3,0.6-1.9h-4V2.3h12.3v2.3
		h-5.7c-0.2,0.7-0.4,1.3-0.6,1.9h7v2.3H23.7z M22.1,13.4c0.7,1.4,1.3,3.1,1.5,4.3l-2,0.8c-0.2-1.2-0.8-3-1.4-4.4v4.3
		c0,1.1-0.2,1.7-0.9,2.1c-0.7,0.4-1.6,0.4-3,0.4c-0.1-0.7-0.4-1.6-0.6-2.2c0.8,0,1.6,0,1.8,0s0.3-0.1,0.3-0.3v-7.5h2.3v3.2
		L22.1,13.4z"/>
	<path class="st0" d="M38.6,5c0,0,0,0.8,0,1.1c-0.2,8.9-0.3,12.2-1,13.1c-0.5,0.7-0.9,0.9-1.6,1.1c-0.6,0.1-1.6,0.1-2.5,0.1
		c0-0.7-0.3-1.8-0.7-2.5c0.8,0.1,1.6,0.1,2,0.1c0.3,0,0.5-0.1,0.7-0.4c0.4-0.6,0.6-3.2,0.7-10.2H34c-0.2,5.6-0.9,10.3-3.7,13.4
		c-0.4-0.6-1.2-1.4-1.8-1.8c2.4-2.7,2.9-6.7,3.1-11.6h-2.4V5h2.5c0-1.1,0-2.3,0-3.5H34c0,1.2,0,2.3,0,3.5H38.6z M47.3,3.7v16.6h-2.5
		V19h-2.7v1.4h-2.4V3.7H47.3z M44.8,16.6V6.1h-2.7v10.5H44.8z"/>
	<path class="st0" d="M57.1,15.4c-0.1,1.8-0.5,3.8-0.9,5.1c-0.4-0.2-1.3-0.5-1.8-0.6c0.5-1.2,0.7-3.1,0.8-4.8L57.1,15.4z M61.2,9.3
		c0.7,1.3,1.3,3.1,1.5,4.2l-1.8,0.7c0-0.3-0.1-0.5-0.2-0.8c-4.3,0.7-5,0.9-5.5,1.1c-0.1-0.4-0.4-1.4-0.7-2c0.5-0.1,0.9-0.6,1.6-1.4
		c0.3-0.3,0.8-1,1.4-1.9c-1.7,0.2-2.1,0.3-2.5,0.5c-0.1-0.4-0.4-1.4-0.7-2c0.4-0.1,0.7-0.5,1.2-1.1c0.4-0.6,1.7-2.9,2.5-5.1l2.1,0.8
		c-0.8,1.8-1.8,3.6-2.8,5.1l1.5-0.1c0.5-0.9,1.1-2,1.5-3l1.9,1.2c-1.2,2.3-2.8,4.6-4.4,6.5l2.4-0.3c-0.2-0.6-0.5-1.2-0.7-1.7
		L61.2,9.3z M59.3,14.9c0.3,1.4,0.5,3.2,0.6,4.4L58,19.8c0-1.2-0.3-3-0.5-4.4L59.3,14.9z M61.5,14.3c0.5,1.3,1,2.9,1.2,4L61,18.9
		c-0.2-1.1-0.7-2.8-1.1-4L61.5,14.3z M74,19.6h-8.2v1.4h-2.2V10.1c-0.3,0.4-0.6,0.8-0.9,1.2c-0.2-0.7-0.7-1.8-1.1-2.4
		c1.6-1.9,3-5.1,3.6-7.5l2.4,0.7c-0.3,1-0.7,2-1.2,3H69c-0.3-0.8-0.8-1.9-1.2-2.8l2.1-0.9c0.5,0.9,1.1,2.1,1.4,2.9L69.7,5h4v2.2
		h-3.2v1.8h2.8v2.2h-2.8v1.8h2.9v2.2h-2.9v1.9H74V19.6z M68.3,7.3h-2.4v1.8h2.4V7.3z M68.3,11.3h-2.4v1.8h2.4V11.3z M65.9,17.2h2.4
		v-1.9h-2.4V17.2z"/>
	<path class="st0" d="M82.2,2.1c-0.6,1.5-1.3,3-2.1,4.5v14.3h-2.4V10.3c-0.4,0.6-0.9,1.1-1.3,1.5c-0.2-0.6-0.9-2-1.4-2.6
		c1.9-1.9,3.7-4.8,4.8-7.9L82.2,2.1z M91.3,18.5c1.2,0,1.5-0.5,1.6-2.9c0.6,0.4,1.6,0.8,2.2,0.9c-0.3,3.1-1,4.2-3.6,4.2h-4.8
		c-2.9,0-3.8-0.8-3.8-3.7v-5.9l-1.6,0.6l-0.9-2.2l2.5-1v-5h2.4v4l2.1-0.8V1.4h2.2v4.6l2.8-1.1l0.2-0.1l1.9,0.6l-0.1,0.4
		c-0.1,3-0.4,6.9-0.8,9.6l-2.1-0.6c0.2-1.8,0.4-4.5,0.5-7.1l-2.4,1v7.4h-2.2V9.3l-2.1,0.9V17c0,1.2,0.2,1.4,1.6,1.4H91.3z"/>
	<path class="st0" d="M108.4,2.4c-0.1,0.2-0.3,0.3-0.4,0.5c1.9,1.8,5,3.3,8.3,3.9c-0.6,0.6-1.4,1.6-1.8,2.4
		c-1.3-0.4-2.6-0.9-3.8-1.5v1.3h-9V7.6c-1.3,0.7-2.7,1.3-4,1.7c-0.3-0.7-0.9-1.7-1.4-2.4c4-0.9,8.1-3.3,10.2-5.9L108.4,2.4z
		 M105.1,17.7h-4.7v1.7h-2.3v-9.2h7V17.7z M100.4,12.3v3.2h2.4v-3.2H100.4z M109.1,6.7c-1-0.7-1.9-1.4-2.8-2.3
		c-0.9,0.8-2,1.6-3.2,2.3H109.1z M114.5,15.9c0,1.1-0.2,1.7-0.9,2.1c-0.7,0.4-1.7,0.4-3.1,0.4c-0.1-0.7-0.4-1.6-0.6-2.2
		c0.8,0,1.6,0,1.9,0c0.3,0,0.4-0.1,0.4-0.3v-3.5h-2.9v8.5h-2.5V10.2h7.7V15.9z"/>
	<path class="st0" d="M117.9,11.4c0-5.1,3.3-8.1,7.2-8.1c2,0,3.5,0.9,4.6,2l-1.6,2c-0.8-0.8-1.7-1.3-2.9-1.3c-2.4,0-4.1,2-4.1,5.4
		c0,3.4,1.6,5.4,4.1,5.4c1.3,0,2.4-0.6,3.2-1.5l1.6,1.9c-1.3,1.5-2.9,2.3-5,2.3C121.1,19.4,117.9,16.5,117.9,11.4z"/>
	<path class="st0" d="M137.2,2.1C136,4,134.1,6,132.4,7.3c-0.3-0.5-0.9-1.4-1.3-1.8c1.5-1,3.1-2.8,3.9-4.2L137.2,2.1z M137.8,6.3
		c-0.5,0.9-1.1,1.9-1.7,2.8v11.9h-2.4V12c-0.4,0.4-0.9,0.8-1.3,1.2c-0.2-0.5-0.9-1.7-1.3-2.3c1.7-1.3,3.5-3.3,4.6-5.4L137.8,6.3z
		 M140.9,11.5c-0.8-0.7-2.4-1.6-3.7-2.2l1.3-1.8c1.2,0.5,2.9,1.3,3.7,2L140.9,11.5z M137.4,18.7c1.2-1.6,2.9-4.2,4.2-6.7l1.8,1.6
		c-1.2,2.2-2.6,4.6-3.9,6.7L137.4,18.7z M141.3,6c-0.7-0.7-2.1-1.8-3.3-2.4l1.5-1.7c1.1,0.6,2.7,1.5,3.4,2.2L141.3,6z M150.7,10.2
		h-2.2v8c0,1.2-0.2,1.8-0.9,2.2c-0.7,0.4-1.8,0.4-3.2,0.4c-0.1-0.7-0.4-1.7-0.7-2.4c0.9,0,1.7,0,2,0c0.3,0,0.4-0.1,0.4-0.3v-8h-3.1
		V7.9h7.7V10.2z M150.4,4.6h-7V2.3h7V4.6z"/>
	<path class="st0" d="M171.6,17.9v2.5h-18.9v-2.5h8.1v-4.2h-5.7v-2.4h5.7V7.5h-4.3c-0.6,1.2-1.3,2.2-2,3c-0.5-0.4-1.6-1.2-2.2-1.5
		c1.6-1.8,3-4.7,3.7-7.5l2.6,0.6c-0.3,1-0.6,2-1,3h3.2V1.3h2.6v3.8h7.1v2.4h-7.1v3.7h6.3v2.4h-6.3v4.2H171.6z"/>
	<path class="st0" d="M181.5,12.8c-0.8,0.2-1.5,0.5-2.3,0.7v7.5h-2.3v-6.8c-1.1,0.3-2.2,0.7-3.1,0.9l-0.6-2.4c1.1-0.2,2.3-0.6,3.8-1
		v-4h-1.4c-0.2,1-0.5,1.9-0.8,2.7c-0.4-0.3-1.3-0.9-1.8-1.2c0.7-1.7,1-4.3,1.2-6.8l2.1,0.4c-0.1,0.8-0.2,1.7-0.3,2.5h1v-4h2.3v4h1.7
		v2.4h-1.7v3.4l1.9-0.5L181.5,12.8z M192.8,4.5c0,0,0,0.8,0,1.1c-0.4,9.4-0.8,12.8-1.6,13.8c-0.5,0.7-0.9,0.9-1.6,1.1
		c-0.6,0.1-1.5,0.1-2.4,0.1c-0.1-0.7-0.3-1.7-0.7-2.4c0.8,0.1,1.5,0.1,1.9,0.1c0.3,0,0.5-0.1,0.8-0.4c0.5-0.7,0.9-3.5,1.2-11.1h-0.1
		c-1,5.3-3.2,10.8-6.6,13.5c-0.5-0.5-1.3-1.1-2-1.4c3.4-2.4,5.5-7.2,6.5-12.1h-1c-0.9,3.4-2.7,7.2-4.8,9.2c-0.5-0.5-1.3-1-1.9-1.4
		c2.1-1.6,3.7-4.7,4.6-7.8H184c-0.6,1.4-1.3,2.8-2.2,3.8c-0.4-0.4-1.4-1.1-1.9-1.4c1.7-1.8,2.8-4.8,3.4-7.9l2.3,0.4
		c-0.2,1-0.5,1.9-0.8,2.8H192.8z"/>
	<path class="st0" d="M200.1,12.4c0-4.2,1.2-7.6,3.1-10.9l1.9,0.8c-1.8,3.1-2.6,6.6-2.6,10c0,3.5,0.8,7,2.6,10.1l-1.9,0.8
		C201.3,20.1,200.1,16.7,200.1,12.4z"/>
	<path class="st0" d="M225.5,15.6c-1,0.7-2.1,1.3-3.2,1.8c1.2,0.6,2.6,1,4.3,1.2c-0.5,0.5-1,1.4-1.3,2c-4.2-0.8-6.9-2.7-8.4-5.9
		c-0.8,0.7-1.9,1.3-3,1.8v1.9l3.9-0.8c-0.1,0.5-0.2,1.4-0.2,1.9c-5,1.1-5.7,1.3-6.2,1.6l0-0.2c-0.1-0.5-0.5-1.2-0.7-1.5
		c0.4-0.3,0.9-0.8,0.9-1.9v-0.1c-1,0.3-2.1,0.6-3.2,0.8c-0.3-0.5-0.9-1.3-1.3-1.8c2.3-0.3,4.7-0.9,6.5-1.8h-6.1v-2h8.5
		c-0.1-0.4-0.3-0.7-0.5-1.1h0c-0.2,0-0.4,0-0.7,0c-0.1-0.5-0.4-1-0.6-1.4c0.5,0,1,0,1.1,0s0.2-0.1,0.2-0.2V9h-1.7v3.1h-2.1V9H210
		v2.6h-1.9V7.5h3.5V6.7h-4.3V5.1h1.3c-0.4-0.3-1-0.6-1.3-0.7c0.7-0.8,1.3-1.9,1.7-3l1.8,0.5c-0.1,0.3-0.2,0.5-0.3,0.8h1.2V1.3h2.1
		v1.3h3.5v1.6h-3.5v0.8h4v1.7h-4v0.7h3.7v2.4c0,0.5-0.1,0.9-0.3,1.1l0.5-0.1c0.3,0.5,0.6,1.1,0.8,1.7h7.7v2h-2.1L225.5,15.6z
		 M211.6,5.1V4.2h-2c-0.2,0.3-0.4,0.6-0.5,0.8H211.6z M221.2,9.2H219V2.3h2.2V9.2z M219,14.6c0.4,0.7,0.9,1.2,1.5,1.7
		c1-0.5,2-1.1,2.8-1.7H219z M225.3,9.8c0,1.1-0.2,1.6-1,1.9c-0.7,0.3-1.8,0.3-3.2,0.3c-0.1-0.6-0.4-1.4-0.7-2c0.9,0,2,0,2.2,0
		c0.3,0,0.4-0.1,0.4-0.4V1.5h2.3V9.8z"/>
	<path class="st0" d="M228.8,11.4h8v9.3h-2.5v-0.9h-3.1v1h-2.4V11.4z M231.2,13.8v3.6h3.1v-3.6H231.2z M244,9.7h-12.3V2.1H244V9.7z
		 M241.4,4.5h-7.3v2.8h7.3V4.5z M246.8,11.4v9.4h-2.5v-1H241v1h-2.4v-9.4H246.8z M244.3,17.5v-3.6H241v3.6H244.3z"/>
	<path class="st0" d="M268,4.5c0,0,0,0.8,0,1.1c-0.3,9.4-0.5,12.7-1.4,13.8c-0.6,0.8-1.2,1-2,1.2c-0.8,0.1-2.1,0.1-3.3,0
		c0-0.7-0.4-1.7-0.8-2.4c1.3,0.1,2.6,0.1,3.1,0.1c0.4,0,0.7-0.1,0.9-0.4c0.6-0.7,0.9-3.8,1.1-11.2h-4.5c-0.5,1.3-1.2,2.4-1.8,3.3
		c-0.3-0.3-1-0.8-1.6-1.2v9.8h-5.6v1.5h-2.3V4.7h2.4c0.3-1,0.5-2.4,0.6-3.4l2.7,0.4c-0.4,1-0.7,2.1-1.1,3h3.3v3.4
		c1.2-1.8,2.2-4.3,2.8-6.8l2.4,0.5c-0.2,0.9-0.5,1.8-0.8,2.7H268z M255.5,6.8h-3.3v3.4h3.3V6.8z M255.5,16.5v-4.1h-3.3v4.1H255.5z
		 M262.4,15.4c-0.6-1.3-1.9-3.3-2.9-4.9l2-1.1c1,1.4,2.4,3.4,3.1,4.7L262.4,15.4z"/>
	<path class="st0" d="M277.6,12.5c-0.8,0.2-1.6,0.4-2.4,0.7v5c0,1.2-0.2,1.8-0.9,2.2c-0.7,0.4-1.7,0.5-3.2,0.5
		c-0.1-0.7-0.4-1.6-0.7-2.3c0.8,0,1.7,0,2,0c0.3,0,0.4-0.1,0.4-0.4v-4.3l-2.5,0.6l-0.5-2.4c0.8-0.1,1.8-0.4,2.9-0.7V7.6h-2.5V5.3
		h2.5v-4h2.4v4h2.2v2.3h-2.2v3.1l2.1-0.5L277.6,12.5z M287.5,18.6c0.1,0,0.2,0,0.3-0.1c0.1-0.1,0.1-0.3,0.1-0.7c0-0.4,0-1.3,0.1-2.5
		c0.4,0.4,1.2,0.8,1.8,1c0,1.1-0.1,2.4-0.2,3c-0.1,0.5-0.4,0.9-0.7,1.1c-0.3,0.3-0.8,0.3-1.3,0.3h-1.1c-0.5,0-1.1-0.2-1.4-0.5
		c-0.4-0.4-0.5-0.9-0.5-2.5V11h-2.9v1.5c0,2.8-0.7,6.4-4.1,8.5c-0.3-0.5-1.2-1.5-1.7-1.9c3-1.8,3.3-4.5,3.3-6.7V8.7h7.8v8.9
		c0,0.5,0,0.7,0.1,0.8c0.1,0.1,0.1,0.1,0.2,0.1H287.5z M289.7,7.1h-12V4.7h4.4c-0.2-0.8-0.7-2.1-1.1-3l2.4-0.6c0.5,0.9,1,2.2,1.3,3
		l-2,0.6h7V7.1z"/>
	<path class="st0" d="M296,4.8c-1.1,1.6-2.4,3-3.7,4c-0.3-0.5-1.2-1.5-1.7-2c1.9-1.3,3.7-3.4,4.6-5.6l2.4,0.7
		c-0.2,0.4-0.3,0.7-0.5,1h12.8v1.8H296z M307.2,8.1c-0.1,5.9,0.1,10.3,1.4,10.3c0.3,0,0.4-1.2,0.5-3c0.5,0.6,1.1,1.2,1.6,1.6
		c-0.2,2.8-0.6,3.9-2.2,3.9c-3.1,0-3.6-4.6-3.7-10.9h-3.4l1.4,0.3c-0.3,0.5-0.6,0.9-0.9,1.4h2.4v1.7h-4.7v0.8h4.1v1.7h-4.1v0.9h5.1
		v1.8h-5.1v2.4H297v-2.4h-5.5v-1.8h5.5v-0.9h-4.2v-1.7h4.2v-0.8h-5v-1.7h2.6c-0.2-0.4-0.4-0.9-0.6-1.3l1.3-0.4h-1.8V8.1H307.2z
		 M295.8,7.3V5.6H308v1.7H295.8z M299.3,11.7c0.3-0.5,0.7-1.2,0.9-1.7h-3.9c0.3,0.5,0.7,1.2,0.8,1.7H299.3z"/>
	<path class="st0" d="M319.5,2.1c-0.6,1.3-1.3,2.7-2,4v14.8h-2.4V9.6c-0.7,0.8-1.3,1.6-2,2.2c-0.2-0.6-0.9-2-1.3-2.6
		c2.1-1.8,4.2-4.8,5.4-7.8L319.5,2.1z M327.8,18.2c1.1,0,1.2-0.9,1.4-4.3c0.6,0.4,1.6,0.9,2.2,1c-0.3,4.1-0.9,5.5-3.4,5.5h-3.5
		c-2.6,0-3.3-0.8-3.3-3.7v-15h2.4V7h7.3v2.4h-7.3v7.3c0,1.2,0.1,1.4,1.2,1.4H327.8z"/>
	<path class="st0" d="M342.2,11.9h2.1v8.9h-2.1V18h-5.9c-0.4,1.1-1,2.1-2.1,2.8c-0.3-0.4-1-1.1-1.5-1.4c1.7-1.3,2-3.4,2-4.8v-2.8h2
		V13h5.4V11.9z M338,6.6c0,2.5-0.1,3.6-0.4,4.1c-0.3,0.3-0.5,0.4-0.9,0.5c-0.3,0-0.7,0.1-1.2,0.1c0-0.4-0.1-0.9-0.3-1.4
		c-0.3,0.6-0.7,1.1-1.3,1.6c-0.2-0.3-0.6-1-0.9-1.3c0.8-0.6,1.2-1.5,1.4-2.6h-1V6h4.4c-0.1-0.2-0.3-0.5-0.5-0.7l0.7-0.4h-4.6V3h5.4
		c-0.2-0.5-0.4-1-0.6-1.3l1.8-0.6c0.3,0.6,0.7,1.4,1,2h4.9v1.9h-4.7l1.4,0.5c-0.7,0.7-1.3,1.4-2,2v4.2h-1.6V7.4
		c0.7-0.7,1.4-1.7,1.9-2.4h-2.1c0.4,0.5,0.8,1.1,1,1.5l-1.2,0.8c-0.1-0.2-0.2-0.5-0.4-0.8L338,6.6z M335.9,7.5
		c-0.1,0.8-0.3,1.5-0.6,2.2c0.3,0,0.5,0,0.7,0c0.1,0,0.3,0,0.4-0.2c0.1-0.2,0.2-0.7,0.2-2.1H335.9z M342.2,16.1v-1.2h-5.4
		c0,0.4,0,0.8-0.1,1.2H342.2z M344.9,5.3l1.3,1.2c-1,0.5-2.2,0.9-3.3,1.2v1.8l1.1-0.2c0,0.4,0.1,1,0.2,1.3c-1.9,0.5-2.4,0.6-2.6,0.8
		c-0.1-0.4-0.4-1.1-0.6-1.4c0.3-0.1,0.5-0.4,0.5-1.1l0-2.2C342.7,6.4,344.1,5.9,344.9,5.3z M345,7.5c0.6,0.8,1.3,1.9,1.6,2.6
		l-1.3,0.9c-0.3-0.8-0.9-1.9-1.6-2.8L345,7.5z M348.6,15.6h-2v-12h2V15.6z M351.9,1.6v16.8c0,1.1-0.2,1.7-0.8,2.1
		c-0.6,0.4-1.6,0.4-3,0.4c-0.1-0.6-0.3-1.5-0.6-2.1c0.9,0,1.7,0,2,0c0.3,0,0.4-0.1,0.4-0.4V1.6H351.9z"/>
	<path class="st0" d="M354.4,22.5c1.8-3.1,2.6-6.6,2.6-10.1c0-3.4-0.8-7-2.6-10l1.9-0.8c2,3.2,3.2,6.7,3.2,10.9
		c0,4.2-1.2,7.6-3.2,10.9L354.4,22.5z"/>
</g>
<path id="シェイプ_984" class="st1" d="M2,29.7h367.6"/>
</svg>
