<svg id="desc-block-02_sp.svg" xmlns="http://www.w3.org/2000/svg" width="281.062" height="100.47" viewBox="0 0 281.062 100.47">
  <defs>
    <style>
      .cls-1 {
        fill: #1147b4;
      }

      .cls-1, .cls-2 {
        fill-rule: evenodd;
      }

      .cls-2 {
        fill: none;
        stroke: #1147b4;
        stroke-linecap: round;
        stroke-width: 3px;
        stroke-dasharray: 0.001 6;
      }
    </style>
  </defs>
  <path id="ビタミン_誘導体_製品の抗酸化_配合" data-name="ビタミンＣ誘導体 （製品の抗酸化）配合" class="cls-1" d="M214.325,3365.35a6.839,6.839,0,0,1,.3-2.7,1.309,1.309,0,0,0,.209-0.63,0.5,0.5,0,0,0-.479-0.48,25.683,25.683,0,0,0-3.78-.6,31.159,31.159,0,0,1,.3,5.49v11.07c0,2.46.63,3.87,2.13,4.5a14.767,14.767,0,0,0,5.7.81,60,60,0,0,0,8.909-.54c0.45-.03.63-0.15,0.63-0.54,0-.63-0.09-1.77-0.18-2.61-0.03-.36-0.09-0.48-0.54-0.42a52.922,52.922,0,0,1-8.459.69,15.371,15.371,0,0,1-3.78-.33c-0.779-.24-0.989-0.72-0.989-2.13v-3.99a78.67,78.67,0,0,0,10.288-3.72,15.933,15.933,0,0,1,2.49-.99,0.565,0.565,0,0,0,.51-0.54,0.87,0.87,0,0,0-.24-0.54,17.211,17.211,0,0,0-2.49-2.7,9.316,9.316,0,0,1-3.209,2.16,56.4,56.4,0,0,1-7.319,2.91v-4.17Zm10.948-3.39a14.886,14.886,0,0,1,3.03,3.48,0.313,0.313,0,0,0,.51.09l1.259-.93a0.3,0.3,0,0,0,.09-0.48,13.783,13.783,0,0,0-2.849-3.21,0.308,0.308,0,0,0-.45-0.06Zm2.76-1.98a14.188,14.188,0,0,1,3,3.45,0.308,0.308,0,0,0,.51.09l1.2-.93a0.347,0.347,0,0,0,.09-0.54,12.528,12.528,0,0,0-2.85-3.09,0.306,0.306,0,0,0-.45-0.06Zm18.692,3.36c0.51-.78.69-1.08,0.93-1.5a2.508,2.508,0,0,1,.63-0.63,0.811,0.811,0,0,0,.36-0.6,0.526,0.526,0,0,0-.33-0.48,18.893,18.893,0,0,0-3.51-1.47,11.066,11.066,0,0,1-1.62,3.69,33.45,33.45,0,0,1-8.489,9.42,12.5,12.5,0,0,1,2.52,1.38,0.687,0.687,0,0,0,.48.21,1.076,1.076,0,0,0,.6-0.27,36.227,36.227,0,0,0,6.419-6.75l7.439-.15a28.963,28.963,0,0,1-3.509,5.94,30.081,30.081,0,0,0-3.87-2.4,0.779,0.779,0,0,0-.3-0.12,0.567,0.567,0,0,0-.39.21c-0.69.63-1.32,1.41-1.98,2.13a25.079,25.079,0,0,1,4.32,2.82,36.374,36.374,0,0,1-11.039,8.13,8.524,8.524,0,0,1,2.85,1.53,0.9,0.9,0,0,0,.57.27,1.633,1.633,0,0,0,.75-0.27,36.552,36.552,0,0,0,9.568-7.5,33.248,33.248,0,0,1,2.91,2.91,0.521,0.521,0,0,0,.33.18,0.623,0.623,0,0,0,.36-0.15,18.44,18.44,0,0,0,1.86-1.89,0.581,0.581,0,0,0,.18-0.39,0.592,0.592,0,0,0-.18-0.42,26.67,26.67,0,0,0-3.24-3.03,46.825,46.825,0,0,0,4.41-7.26,3.762,3.762,0,0,1,.9-1.14,0.768,0.768,0,0,0,.33-0.57,0.733,0.733,0,0,0-.24-0.54,9.714,9.714,0,0,0-2.039-1.83,1.033,1.033,0,0,0-.54-0.24,0.877,0.877,0,0,0-.51.21,2.935,2.935,0,0,1-1.65.45Zm19.381-.69a49.1,49.1,0,0,1,11.338,3.45,0.452,0.452,0,0,0,.72-0.21,24.933,24.933,0,0,0,1.05-2.61c0.18-.39.12-0.54-0.36-0.75a55.226,55.226,0,0,0-10.678-3.15,0.565,0.565,0,0,0-.81.39C267.126,3360.25,266.466,3361.78,266.106,3362.65Zm-2.01,7.8a44.17,44.17,0,0,1,9.809,3.21,0.726,0.726,0,0,0,.39.12,0.563,0.563,0,0,0,.42-0.39,19.105,19.105,0,0,0,.99-2.31,0.576,0.576,0,0,0-.39-0.87,46.788,46.788,0,0,0-9.149-2.91,0.537,0.537,0,0,0-.78.3A29.388,29.388,0,0,0,264.1,3370.45Zm-0.48,8.91a54.625,54.625,0,0,1,14.818,4.98,0.894,0.894,0,0,0,.42.15,0.563,0.563,0,0,0,.45-0.36,23.448,23.448,0,0,0,1.2-2.46,0.526,0.526,0,0,0-.3-0.81,51.14,51.14,0,0,0-14.368-4.68,0.667,0.667,0,0,0-.84.36A31.083,31.083,0,0,0,263.616,3379.36Zm23.191-14.88a31.78,31.78,0,0,1,6.119,4.89,0.628,0.628,0,0,0,.39.24,0.578,0.578,0,0,0,.36-0.24c0.42-.45,1.409-1.65,1.859-2.25a0.645,0.645,0,0,0,.18-0.39,0.689,0.689,0,0,0-.27-0.42,31.245,31.245,0,0,0-5.729-4.26,0.8,0.8,0,0,0-.39-0.15,0.562,0.562,0,0,0-.42.24C288.336,3362.74,287.466,3363.67,286.807,3364.48Zm0.659,14.97a20.787,20.787,0,0,0,2.4,3.33,0.778,0.778,0,0,0,.51.33,0.829,0.829,0,0,0,.54-0.3,10.355,10.355,0,0,1,2.01-1.38,64.467,64.467,0,0,0,9.058-5.88,49.035,49.035,0,0,0,6.9-6.36,1.111,1.111,0,0,0,.33-1.47,13.391,13.391,0,0,1-.84-3.51,45.1,45.1,0,0,1-8.219,8.16,44.49,44.49,0,0,1-8.639,5.58A18.073,18.073,0,0,1,287.466,3379.45Zm46.288-12.84c-0.96-4.41-4.079-7.08-8.849-7.08-6,0-10.108,4.38-10.108,12.09,0,7.68,4.079,12.03,10.108,12.03,4.74,0,7.739-2.13,8.969-6.93l-3.81-1.17c-0.659,3.39-2.339,4.98-5.129,4.98-3.389,0-5.849-3.03-5.849-8.94,0-5.94,2.4-8.94,5.849-8.94,2.64,0,4.32,1.68,4.89,4.92Zm24.57,9.09a26.722,26.722,0,0,1-1.079,3.42c-0.15.36,0,.45,0.48,0.48l1.589,0.09c0.54,0.03.69,0,.81-0.33l0.09-.27h1.41a9.4,9.4,0,0,1-.69,2.97,1.537,1.537,0,0,1-1.5.54,22.3,22.3,0,0,1-3-.24,6.583,6.583,0,0,1,.57,1.74c0.18,0.99.21,1.05,1.08,1.08,0.629,0.03,1.019.03,1.589,0.03,1.92,0,2.88-.39,3.48-1.32,0.69-1.02.93-2.37,1.26-4.74l0.24-2.1c0.03-.3-0.06-0.36-0.33-0.36-0.21,0-.6.06-1.71,0.06h-1.8c0.18-.63.33-1.32,0.51-2.04,0.12-.48.27-0.9,0.36-1.23,0.06-.21-0.06-0.33-0.36-0.33-0.18,0-.99.06-3.359,0.06h-4.86c-2.1,0-2.729-.06-2.909-0.06-0.3,0-.33.03-0.33,0.3v1.95c0,0.33.03,0.36,0.33,0.36,0.15,0,.75-0.06,2.579-0.06a8.835,8.835,0,0,1-5.009,7.53v-4.92c0-1.41.03-2.13,0.03-2.31,0-.3,0-0.33-0.27-0.33-0.21,0-.84.06-2.73,0.06h-2.249c-1.89,0-2.52-.06-2.7-0.06-0.33,0-.36.03-0.36,0.33,0,0.21.06,0.93,0.06,2.82v1.92c0,3.63-.06,4.32-0.06,4.53,0,0.27.03,0.3,0.36,0.3h2.13c0.3,0,.33-0.03.33-0.3v-1.38h2.729v0.81c0,0.3.03,0.33,0.33,0.33h2.16c0.27,0,.27-0.03.27-0.33,0-.09-0.03-0.48-0.03-1.32a6.687,6.687,0,0,1,1.29,1.44,1.055,1.055,0,0,0,.6.66,1.887,1.887,0,0,0,.72-0.39c3.149-2.28,4.709-5.16,5.189-9.39h2.759Zm-13.288,2.52v3.21h-2.729v-3.21h2.729Zm16.048-11.4c2.82,0,3.78.06,3.96,0.06,0.33,0,.36-0.03.36-0.33v-1.89c0-.27-0.03-0.3-0.36-0.3-0.18,0-1.14.06-3.96,0.06H358.3v-2.46a34.205,34.205,0,0,0,3.509-.75,7.674,7.674,0,0,1,1.65-.33c0.42,0,.57-0.15.57-0.36a0.753,0.753,0,0,0-.21-0.51,19.692,19.692,0,0,0-1.77-1.77,8.686,8.686,0,0,1-1.98.72,46.765,46.765,0,0,1-10.738,1.35,5.646,5.646,0,0,1,.87,1.65c0.3,0.87.33,0.87,1.229,0.81,1.41-.09,2.7-0.21,3.9-0.36v2.01h-1.98c-2.819,0-3.779-.06-3.959-0.06-0.33,0-.36.03-0.36,0.3v1.89c0,0.3.03,0.33,0.36,0.33,0.18,0,1.14-.06,3.959-0.06h0.27a18.754,18.754,0,0,1-6.179,3.78,7.211,7.211,0,0,1,1.05,1.71c0.24,0.54.33,0.75,0.54,0.75a2.176,2.176,0,0,0,.69-0.3,20.5,20.5,0,0,0,5.729-4.47c-0.03,2.04-.09,3.18-0.09,3.66,0,0.3.03,0.33,0.33,0.33h2.25c0.3,0,.33-0.03.33-0.33,0-.45-0.06-1.56-0.09-3.6a18.425,18.425,0,0,0,5.639,4.44,2.241,2.241,0,0,0,.72.3c0.21,0,.33-0.18.54-0.69a7.3,7.3,0,0,1,1.049-1.8,18.026,18.026,0,0,1-6.389-3.78h1.35Zm-19.257-3.48c-2.28,0-2.97-.06-3.15-0.06-0.3,0-.33.03-0.33,0.33v2.13c0,0.33.03,0.36,0.33,0.36,0.18,0,.87-0.06,3.15-0.06h3c2.25,0,2.97.06,3.12,0.06,0.3,0,.33-0.03.33-0.36v-2.13c0-.3-0.03-0.33-0.33-0.33-0.15,0-.87.06-3.12,0.06h-3Zm0.81-4.11c-1.92,0-2.52-.06-2.7-0.06-0.3,0-.33.03-0.33,0.33v2.01c0,0.27.03,0.3,0.33,0.3,0.18,0,.78-0.06,2.7-0.06h2.189c1.89,0,2.49.06,2.67,0.06,0.3,0,.3-0.03.3-0.3v-2.01c0-.3,0-0.33-0.3-0.33-0.18,0-.78.06-2.67,0.06h-2.189Zm0.09,8.37c-1.8,0-2.34-.06-2.52-0.06-0.3,0-.33.03-0.33,0.33v1.95c0,0.3.03,0.33,0.33,0.33,0.18,0,.72-0.06,2.52-0.06h1.859c1.77,0,2.31.06,2.49,0.06,0.33,0,.36-0.03.36-0.33v-1.95c0-.3-0.03-0.33-0.36-0.33-0.18,0-.72.06-2.49,0.06h-1.859Zm0,4.05c-1.8,0-2.34-.06-2.52-0.06-0.3,0-.33.03-0.33,0.33v1.92c0,0.3.03,0.33,0.33,0.33,0.18,0,.72-0.06,2.52-0.06h1.859c1.77,0,2.31.06,2.49,0.06,0.33,0,.36-0.03.36-0.33v-1.92c0-.3-0.03-0.33-0.36-0.33-0.18,0-.72.06-2.49,0.06h-1.859Zm49.227,8.64c2.7,0,3.63.06,3.81,0.06,0.3,0,.33-0.03.33-0.33v-1.83c0-.33-0.03-0.36-0.33-0.36-0.18,0-1.11.06-3.81,0.06H390v-1.23c1.71-.03,3.51-0.06,5.37-0.12,0.96-.03.96-0.03,1.14-0.99a6.951,6.951,0,0,1,.509-1.71c-4.109.3-8.308,0.39-12.538,0.39a20.935,20.935,0,0,1-5.519-.45,3.978,3.978,0,0,1-2.28-2.01v-3.57c0-1.32.06-1.89,0.06-2.07,0-.3-0.03-0.33-0.36-0.33-0.18,0-.6.06-2.189,0.06h-1.95c-1.59,0-1.98-.06-2.19-0.06-0.27,0-.3.03-0.3,0.33v2.04c0,0.3.03,0.33,0.3,0.33,0.21,0,.6-0.06,2.19-0.06h1.59v3.15a14.583,14.583,0,0,1-2.76,1.71,12.035,12.035,0,0,1-1.71.66c0.42,1.05.72,1.77,1.11,2.58a0.511,0.511,0,0,0,.45.36,0.485,0.485,0,0,0,.42-0.27,2.2,2.2,0,0,1,.6-0.57,24.738,24.738,0,0,0,3.089-2.25,5.546,5.546,0,0,0,2.85,2.1,25.677,25.677,0,0,0,7.019.78h2.1v1.2H373.867c-2.7,0-3.6-.06-3.78-0.06-0.27,0-.3.03-0.3,0.36v1.83c0,0.3.03,0.33,0.3,0.33,0.18,0,1.08-.06,3.78-0.06h13.138V3382c0,0.69-.39.96-1.26,0.96-0.6,0-1.65-.03-2.73-0.12a6.962,6.962,0,0,1,.84,1.98c0.21,0.72.21,0.72,1.11,0.72,2.46,0,3.33-.21,3.99-0.54a2.214,2.214,0,0,0,1.109-2.19c0-.87-0.06-1.62-0.06-2.52h1.95Zm-7.2-17.61a6.609,6.609,0,0,1-.39,1.08h-0.99c-2.639,0-3.569-.06-3.779-0.06-0.3,0-.33.03-0.33,0.33,0,0.18.06,0.84,0.06,2.49v3.66c0,1.65-.06,2.31-0.06,2.52,0,0.3.03,0.33,0.33,0.33,0.21,0,1.14-.06,3.779-0.06h6.209c2.64,0,3.57.06,3.78,0.06,0.27,0,.3-0.03.3-0.33,0-.18-0.06-0.87-0.06-2.52v-3.66c0-1.65.06-2.31,0.06-2.49,0-.3-0.03-0.33-0.3-0.33-0.21,0-1.14.06-3.78,0.06h-2.219a9.845,9.845,0,0,0,.45-1.08h3.659c2.94,0,3.96.06,4.14,0.06,0.3,0,.33-0.03.33-0.33v-1.47c0-.3-0.03-0.33-0.33-0.33-0.18,0-1.2.06-4.14,0.06h-0.63l0.57-.84a2.579,2.579,0,0,1,.54-0.6,0.6,0.6,0,0,0,.33-0.48,0.4,0.4,0,0,0-.39-0.3c-0.78-.18-1.74-0.39-2.729-0.54a4.8,4.8,0,0,1-.54,1.44c-0.24.45-.51,0.87-0.81,1.32H383.2l1.11-.48c0.33-.15.36-0.27,0.21-0.54a9.39,9.39,0,0,0-1.26-1.62,0.452,0.452,0,0,0-.63-0.15l-1.619.66c-0.36.15-.48,0.21-0.27,0.48a7.951,7.951,0,0,1,1.11,1.65c-2.91,0-3.9-.06-4.08-0.06-0.3,0-.33.03-0.33,0.33v1.5c0,0.3.03,0.3,0.33,0.3,0.18,0,1.17-.06,4.08-0.06h2.909Zm6.059,2.7v1.11h-8.729v-1.11h8.729Zm0,5.94h-8.729v-1.11h8.729v1.11Zm-8.729-2.43v-1.08h8.729v1.08h-8.729Zm-11.278-8.67a0.573,0.573,0,0,0-.27.33,0.468,0.468,0,0,0,.21.24,20.628,20.628,0,0,1,3.33,3.6,0.468,0.468,0,0,0,.24.21,0.822,0.822,0,0,0,.389-0.24l1.62-1.41a0.512,0.512,0,0,0,.21-0.36,0.56,0.56,0,0,0-.15-0.3,22.227,22.227,0,0,0-3.569-3.39c-0.24-.18-0.36-0.12-0.6.09Zm5.009,21.27a0.385,0.385,0,0,0-.3.27,0.468,0.468,0,0,0,.18.24,15.733,15.733,0,0,1,2.52,2.94c0.18,0.27.27,0.24,0.6,0.06l2.07-1.2c0.33-.18.36-0.27,0.18-0.51a18.8,18.8,0,0,0-2.61-2.73,0.476,0.476,0,0,0-.69-0.03Zm38.309-14.22a27.731,27.731,0,0,1-7.859,10.41v-12.15a43.409,43.409,0,0,0,1.95-4.38,2.905,2.905,0,0,1,.6-1.2,0.678,0.678,0,0,0,.33-0.54,0.563,0.563,0,0,0-.48-0.45,20.778,20.778,0,0,0-2.91-.93,10.421,10.421,0,0,1-.449,2.13,26.522,26.522,0,0,1-5.7,9.75,8.571,8.571,0,0,1,1.02,2.58c0.09,0.36.18,0.54,0.33,0.54a0.918,0.918,0,0,0,.54-0.39c0.6-.69,1.17-1.44,1.74-2.19-0.03,1.2-.03,2.4-0.03,3.39v6.81c0,2.94-.06,4.38-0.06,4.56,0,0.3.03,0.33,0.3,0.33H406c0.3,0,.33-0.03.33-0.33,0-.15-0.06-1.62-0.06-4.56v-2.88a9.75,9.75,0,0,1,1.35,1.77,0.846,0.846,0,0,0,.48.57,1.426,1.426,0,0,0,.63-0.45,28.067,28.067,0,0,0,6.839-10.02c0,2.67-.03,5.34-0.09,7.68h-0.57c-2.339,0-3.089-.06-3.269-0.06-0.3,0-.33.03-0.33,0.33v2.19c0,0.33.03,0.36,0.33,0.36,0.18,0,.93-0.06,3.269-0.06h0.54c-0.06,2.82-.12,4.83-0.12,5.13s0.03,0.33.36,0.33h2.58c0.3,0,.33-0.03.33-0.33s-0.06-2.28-.09-5.13h0.66c2.339,0,3.089.06,3.269,0.06,0.3,0,.33-0.03.33-0.36v-2.19c0-.3-0.03-0.33-0.33-0.33-0.18,0-.93.06-3.269,0.06h-0.69c-0.03-2.34-.06-5.01-0.06-7.71a29.606,29.606,0,0,0,6.989,10.08,1.333,1.333,0,0,0,.63.48,0.936,0.936,0,0,0,.48-0.63,7.689,7.689,0,0,1,1.469-2.01,30.435,30.435,0,0,1-8.338-10.26h3.119c2.91,0,3.93.06,4.14,0.06,0.27,0,.3-0.03.3-0.33v-2.31c0-.33-0.03-0.33-0.3-0.33-0.21,0-1.23.03-4.14,0.03h-4.259v-2.01a10.289,10.289,0,0,1,.18-3.03,1.567,1.567,0,0,0,.21-0.63,0.412,0.412,0,0,0-.48-0.3,26.8,26.8,0,0,0-3.15-.24,33.166,33.166,0,0,1,.21,4.26v1.95h-3.029c-2.94,0-3.93-.03-4.11-0.03-0.3,0-.33,0-0.33.33V3367c0,0.3.03,0.33,0.33,0.33,0.18,0,1.17-.06,4.11-0.06h1.679ZM191.973,3413.1c-5.76,4.2-8.129,8.76-8.129,14.67s2.369,10.47,8.129,14.67l0.779-.93c-4.979-4.11-6.749-8.46-6.749-13.74s1.77-9.63,6.749-13.74Zm13.532,19.71a28.732,28.732,0,0,1-9.719,3.18,3.838,3.838,0,0,1,1.11,1.65c0.33,0.87.42,0.84,1.32,0.63a33.735,33.735,0,0,0,6.089-2.04v2.13l-0.81.09c-1.08.12-2.04,0.21-3.209,0.27,0.21,0.87.42,1.8,0.69,2.58a0.444,0.444,0,0,0,.419.42,1.028,1.028,0,0,0,.51-0.21,3.2,3.2,0,0,1,1.08-.3c2.82-.45,5.49-0.93,8.609-1.68,0.96-.24.96-0.24,0.99-0.87a12.055,12.055,0,0,1,.18-1.83c-1.98.48-3.72,0.84-5.609,1.14v-3.27a19.085,19.085,0,0,0,2.459-1.89h0.24c2.22,4.2,5.91,6.81,11.309,8.37,0.9,0.21.93,0.24,1.35-.66a7.534,7.534,0,0,1,1.289-1.98,23.189,23.189,0,0,1-6.239-1.83c0.66-.42,1.29-0.81,1.8-1.17a3.062,3.062,0,0,1,1.02-.54,0.445,0.445,0,0,0,.39-0.39,0.578,0.578,0,0,0-.3-0.45,13.236,13.236,0,0,0-1.89-1.35h0.54c2.64,0,3.54.06,3.72,0.06,0.3,0,.33-0.03.33-0.33v-1.98c0-.3-0.03-0.33-0.33-0.33-0.18,0-1.08.06-3.72,0.06H211.8a2.054,2.054,0,0,1,.18-1.11,1.107,1.107,0,0,0,.18-0.6c0-.18-0.15-0.33-0.54-0.39l-0.78-.06a1.984,1.984,0,0,0,.42-1.32v-2.07c0-.69.03-0.96,0.03-1.14,0-.27-0.03-0.3-0.33-0.3-0.21,0-1.08.06-3.6,0.06h-1.44v-1.35H208c2.729,0,3.629.06,3.809,0.06,0.3,0,.33-0.03.33-0.36v-1.53c0-.33-0.03-0.36-0.33-0.36-0.18,0-1.08.06-3.809,0.06h-2.07v-1.35h1.44c2.489,0,3.3.06,3.479,0.06,0.3,0,.33-0.03.33-0.33v-1.56c0-.33-0.03-0.36-0.33-0.36-0.18,0-.99.06-3.479,0.06h-1.44a4.829,4.829,0,0,1,.12-1.26,1.879,1.879,0,0,0,.21-0.66,0.454,0.454,0,0,0-.48-0.33c-0.75-.09-1.71-0.15-2.73-0.18a17.944,17.944,0,0,1,.18,2.43H201.1l0.09-.18a1.718,1.718,0,0,1,.479-0.75,0.457,0.457,0,0,0,.21-0.36c0-.18-0.12-0.24-0.42-0.33-0.749-.18-1.439-0.3-2.219-0.45a5.614,5.614,0,0,1-.48,1.47,8.915,8.915,0,0,1-2.16,3,4.637,4.637,0,0,1,1.47.63,1.7,1.7,0,0,0,.72.39,1.035,1.035,0,0,0,.63-0.54l0.54-.75h3.269v1.35h-2.489c-2.76,0-3.69-.06-3.87-0.06-0.3,0-.33.03-0.33,0.36v1.53c0,0.33.03,0.36,0.33,0.36,0.18,0,1.11-.06,3.87-0.06h2.489v1.35h-1.29c-2.519,0-3.389-.06-3.6-0.06-0.3,0-.33.03-0.33,0.3,0,0.21.06,0.57,0.06,1.68v1.53c0,1.14-.06,1.44-0.06,1.65,0,0.3.03,0.33,0.33,0.33h2.01c0.3,0,.33-0.03.33-0.33,0-.18-0.03-0.51-0.03-1.47v-1.59h2.579v0.09c0,2.37-.06,3.51-0.06,3.72,0,0.27.03,0.3,0.33,0.3h2.16c0.3,0,.33-0.03.33-0.3,0-.18-0.06-1.35-0.06-3.72v-0.09h2.759v0.93c0,0.45-.09.63-0.6,0.63-0.36,0-.75,0-1.2-0.03a3.477,3.477,0,0,1,.6,1.47c0.09,0.48.15,0.51,0.72,0.48h0.629c0.03,0.48.06,0.96,0.06,1.41h-8.518c-2.64,0-3.54-.06-3.72-0.06-0.3,0-.33.03-0.33,0.33v1.98c0,0.3.03,0.33,0.33,0.33,0.18,0,1.08-.06,3.72-0.06h5.129Zm12.838,0a6.14,6.14,0,0,1-.93,1.05,18.088,18.088,0,0,1-2.039,1.53,11.3,11.3,0,0,1-2.49-2.58h5.459Zm3.45-14.91a8.618,8.618,0,0,1,.18-2.58,1.427,1.427,0,0,0,.21-0.63,0.438,0.438,0,0,0-.48-0.3c-1.05-.12-1.86-0.18-3.06-0.21a21.935,21.935,0,0,1,.24,3.78v7.59c0,0.66-.33.87-1.2,0.87a22.474,22.474,0,0,1-2.369-.09,6.655,6.655,0,0,1,.629,1.98c0.12,0.81.15,0.81,1.11,0.81,2.04-.03,3.12-0.18,3.81-0.72a2.3,2.3,0,0,0,.96-2.01c0-.69-0.03-1.56-0.03-2.61v-5.88Zm-8.519,3.81c0,1.77-.06,2.58-0.06,2.76,0,0.33.03,0.36,0.33,0.36h2.31c0.3,0,.329-0.03.329-0.36,0-.18-0.06-0.99-0.06-2.76v-3.06a5.782,5.782,0,0,1,.15-1.92,1.81,1.81,0,0,0,.18-0.57,0.393,0.393,0,0,0-.45-0.33c-1.019-.12-1.8-0.15-2.939-0.18a16.439,16.439,0,0,1,.21,3v3.06Zm23.281-6.51c-2.82,0-3.81-.06-3.99-0.06-0.3,0-.33.03-0.33,0.33,0,0.21.06,0.99,0.06,2.79v4.35c0,1.8-.06,2.58-0.06,2.76,0,0.33.03,0.36,0.33,0.36,0.18,0,1.17-.06,3.99-0.06h8.279c2.849,0,3.809.06,4.019,0.06,0.3,0,.33-0.03.33-0.36,0-.18-0.06-0.96-0.06-2.76v-4.35c0-1.8.06-2.58,0.06-2.79,0-.3-0.03-0.33-0.33-0.33-0.21,0-1.17.06-4.019,0.06h-8.279Zm-1.17,2.88h10.649v4.71H235.385v-4.71Zm9.149,23.37c0.3,0,.33-0.03.33-0.33v-1.47H250.2v1.32c0,0.33.03,0.36,0.33,0.36h2.37c0.3,0,.33-0.03.33-0.36,0-.18-0.06-1.02-0.06-5.52v-3.21c0-2.4.06-3.27,0.06-3.45,0-.33-0.03-0.36-0.33-0.36-0.18,0-.96.06-3.27,0.06h-4.139c-2.31,0-3.09-.06-3.3-0.06-0.27,0-.3.03-0.3,0.36,0,0.18.06,1.05,0.06,3.9v2.79c0,4.59-.06,5.43-0.06,5.64,0,0.3.03,0.33,0.3,0.33h2.34Zm0.33-10.14H250.2v5.55h-5.339v-5.55Zm-14.038,10.14c0.3,0,.33-0.03.33-0.36v-1.44h4.979v1.23c0,0.3.03,0.33,0.3,0.33h2.34c0.3,0,.33-0.03.33-0.33,0-.18-0.06-1.05-0.06-5.55v-3.15c0-2.37.06-3.24,0.06-3.42,0-.3-0.03-0.33-0.33-0.33-0.21,0-.96.06-3.21,0.06h-3.929c-2.22,0-2.97-.06-3.18-0.06-0.3,0-.33.03-0.33,0.33,0,0.21.06,1.05,0.06,3.93v2.79c0,4.59-.06,5.43-0.06,5.61,0,0.33.03,0.36,0.33,0.36h2.37Zm0.33-10.14h4.979v5.55h-4.979v-5.55Zm42.148-10.53a6.813,6.813,0,0,1,6.719,6.96c0,5.67-3.989,7.77-9.058,8.97a6.367,6.367,0,0,1,2.1,1.89,0.954,0.954,0,0,0,1.29.54c6.089-1.83,9.239-5.34,9.239-10.92,0-5.97-4.23-10.41-11.429-10.41a13.124,13.124,0,0,0-9.748,3.84,11.053,11.053,0,0,0-3.39,7.8c0,4.89,2.67,7.71,5.309,7.71,2.25,0,3.81-1.2,5.1-3.45,1.8-3.15,3.059-7.83,3.749-12.93h0.12Zm-3.6.18a34.277,34.277,0,0,1-3.18,10.74c-0.81,1.44-1.47,1.83-2.25,1.83-0.929,0-2.039-1.53-2.039-4.29a8.643,8.643,0,0,1,2.339-5.55A9.035,9.035,0,0,1,269.705,3420.96Zm37.709,6v11.46a2.357,2.357,0,0,0,.87,2.22c0.539,0.36,1.379.51,3.239,0.51a5.242,5.242,0,0,0,3.45-.87c0.75-.69.929-2.01,1.049-4.92,0.03-.78.03-0.87-0.719-1.11a8.323,8.323,0,0,1-2.07-1.02c-0.03,3.66-.15,4.38-0.33,4.62a1.4,1.4,0,0,1-1.29.42,1.794,1.794,0,0,1-.93-0.15,1.158,1.158,0,0,1-.15-0.87v-9.27c0-2.28.06-3.45,0.06-3.63,0-.3-0.03-0.33-0.33-0.33-0.21,0-.87.06-2.969,0.06h-3.42c-2.1,0-2.729-.06-2.909-0.06-0.33,0-.36.03-0.36,0.33,0,0.18.06,0.87,0.06,2.16,0,7.86-.63,10.02-5.1,12.54a5.32,5.32,0,0,1,1.62,1.65,1,1,0,0,0,.69.66,1.687,1.687,0,0,0,.81-0.39c3.989-2.85,5.069-5.52,5.069-14.01h3.66Zm-12.209,3.24c0.84-.33,1.68-0.66,2.43-0.99,0.9-.39.9-0.36,0.87-1.32a19.793,19.793,0,0,1,.12-2.07c-1.05.45-2.25,0.93-3.42,1.35v-4.5c1.44,0.03,1.98.06,2.13,0.06,0.3,0,.3-0.03.3-0.33v-2.28c0-.3,0-0.33-0.3-0.33-0.15,0-.69.06-2.13,0.06v-1.53c0-2.04,0-2.67.18-3.03a1.528,1.528,0,0,0,.18-0.63,0.454,0.454,0,0,0-.48-0.33c-0.99-.12-2.009-0.18-3.149-0.21a25.109,25.109,0,0,1,.24,4.26v1.47h-0.51c-2.16,0-2.82-.06-2.97-0.06-0.33,0-.36.03-0.36,0.33v2.28c0,0.3.03,0.33,0.36,0.33,0.15,0,.81-0.06,2.97-0.06h0.51v5.49c-0.48.15-.93,0.27-1.32,0.36a26.652,26.652,0,0,1-2.76.57,26.784,26.784,0,0,0,.69,2.94,0.4,0.4,0,0,0,.39.36,1.053,1.053,0,0,0,.48-0.18,3.087,3.087,0,0,1,.99-0.45l1.53-.51v6.09c0,0.75-.18.9-0.78,0.9a21.663,21.663,0,0,1-2.43-.09,7.963,7.963,0,0,1,.81,2.25c0.21,0.93.21,0.93,1.14,0.93,2.01,0,2.7-.12,3.359-0.63,0.78-.57.96-1.35,0.96-2.88,0-1.47-.03-3.96-0.03-6.06v-1.56Zm15.718-8.61c2.91,0,3.9.06,4.08,0.06,0.33,0,.36-0.03.36-0.33v-2.28c0-.3-0.03-0.33-0.36-0.33-0.18,0-1.17.06-4.08,0.06h-3.449v-1.2a8.609,8.609,0,0,1,.18-2.28,1.669,1.669,0,0,0,.18-0.63c0-.18-0.21-0.27-0.51-0.3-0.99-.12-1.98-0.18-3.15-0.21a20.081,20.081,0,0,1,.21,3.45v1.17h-1.71c-2.909,0-3.9-.06-4.079-0.06-0.33,0-.36.03-0.36,0.33v2.28c0,0.3.03,0.33,0.36,0.33,0.18,0,1.17-.06,4.079-0.06h8.249Zm17.462-3.93c2.43,0,3.24.06,3.42,0.06,0.27,0,.3-0.03.3-0.36v-2.07c0-.33-0.029-0.36-0.3-0.36-0.18,0-.99.06-3.42,0.06h-5.279c-2.43,0-3.21-.06-3.39-0.06-0.3,0-.33.03-0.33,0.36v2.07c0,0.33.03,0.36,0.33,0.36,0.18,0,.96-0.06,3.39-0.06h0.12v2.85c-1.89,0-2.58-.06-2.76-0.06-0.3,0-.33.03-0.33,0.33,0,0.21.06,1.62,0.06,6.45v5.04c0,7.17-.06,8.52-0.06,8.73,0,0.27.03,0.3,0.33,0.3h1.77c0.3,0,.33-0.03.33-0.3v-1.95h6.089v1.26c0,0.3.03,0.33,0.3,0.33h1.77c0.3,0,.33-0.03.33-0.33,0-.06-0.03-0.33-0.03-0.96a6.872,6.872,0,0,1,.87,1.41c0.239,0.54.329,0.72,0.6,0.72a2.3,2.3,0,0,0,.69-0.18,19.108,19.108,0,0,0,6.03-3.12,17.326,17.326,0,0,0,5.909,2.94c0.93,0.24.96,0.24,1.23-.6a8.044,8.044,0,0,1,.989-2.16,19.251,19.251,0,0,1-6.059-2.16,15.964,15.964,0,0,0,2.55-3.81,3.273,3.273,0,0,1,.66-1.02,0.668,0.668,0,0,0,.33-0.51,2.513,2.513,0,0,0-.78-1.14,1.98,1.98,0,0,0-1.17-.87,1.246,1.246,0,0,0-.39.09,1.606,1.606,0,0,1-.66.12h-3.509l0.12-.24a4.1,4.1,0,0,1,.72-1.11,0.879,0.879,0,0,0,.329-0.57,0.586,0.586,0,0,0-.509-0.42,20.018,20.018,0,0,0-2.31-.57,7.358,7.358,0,0,1-.66,1.86,14.049,14.049,0,0,1-5.009,5.61v-6.96a7.141,7.141,0,0,1,.93,1.2,1.124,1.124,0,0,0,.719.78,1.225,1.225,0,0,0,.6-0.27,9.6,9.6,0,0,0,3.66-4.35,3.794,3.794,0,0,1,.54-1.02,0.472,0.472,0,0,0,.18-0.39c0-.12-0.09-0.24-0.45-0.36a23.356,23.356,0,0,0-2.34-.63,3.488,3.488,0,0,1-.33,1.38,5.973,5.973,0,0,1-3.509,3.36v-0.12c0-3.93.06-5.28,0.06-5.46,0-.3-0.03-0.33-0.33-0.33-0.21,0-.87.06-2.61,0.06v-2.85h0.27Zm-2.28,5.28v4.77a1.843,1.843,0,0,0,.6,1.68,2.37,2.37,0,0,0,1.38.27h0.57v2.31h-6.089v-2.34a6.689,6.689,0,0,1,.78.99,0.468,0.468,0,0,0,.3.27,0.513,0.513,0,0,0,.36-0.36,9.891,9.891,0,0,0,1.109-4.32c0.03-.81.09-1.89,0.12-3.27h0.87Zm4.92,16.05c-0.03-.93-0.03-2.64-0.03-5.28a4.4,4.4,0,0,1,1.109,1.26,0.955,0.955,0,0,0,.57.63,1.66,1.66,0,0,0,.69-0.42c0.69-.57,1.32-1.11,1.86-1.65a15.358,15.358,0,0,0,1.98,2.76A16.541,16.541,0,0,1,331.025,3438.99Zm-8.459-2.49v-2.04h6.089v2.04h-6.089Zm18.747-5.13a14.713,14.713,0,0,1-2.189,3.18,12.179,12.179,0,0,1-2.28-3l0.12-.18h4.349Zm-18.747-8.43h0.99c0,0.93-.03,1.74-0.06,2.37a8.512,8.512,0,0,1-.93,3.81v-6.18Zm6.089,0v4.32h-0.15a0.8,0.8,0,0,1-.63-0.21,2.1,2.1,0,0,1-.12-1.05v-3.06h0.9Zm-3.42-2.43v-2.85h0.87v2.85h-0.87Zm15.568-4.32c-0.3.18-.33,0.3-0.12,0.54,0.42,0.45.84,0.93,1.23,1.44-1.71.18-3.389,0.33-5.039,0.42,0.36-.66.69-1.23,1.05-1.92a5.794,5.794,0,0,1,.75-1.11,0.618,0.618,0,0,0,.27-0.48,0.532,0.532,0,0,0-.48-0.48,20.147,20.147,0,0,0-2.61-.72,9.3,9.3,0,0,1-.57,2.01,23.084,23.084,0,0,1-1.29,2.85c-0.78,0-1.5,0-2.4-.06,0.12,0.93.27,1.74,0.45,2.61a0.419,0.419,0,0,0,.419.42,0.93,0.93,0,0,0,.51-0.15,2.607,2.607,0,0,1,1.11-.24c3.24-.24,6.269-0.54,9.3-0.96,0.27,0.45.51,0.9,0.75,1.35,0.18,0.33.24,0.33,0.63,0.12l1.53-.9c0.39-.21.39-0.33,0.21-0.63a22.379,22.379,0,0,0-3.81-4.83c-0.21-.21-0.27-0.24-0.57-0.06Zm0.87,6.99a2.1,2.1,0,0,1,.15-1.02,0.75,0.75,0,0,0,.12-0.42c0-.12-0.09-0.24-0.45-0.27-0.87-.09-1.53-0.15-2.489-0.21a15.489,15.489,0,0,1,.12,2.37v1.38a1.966,1.966,0,0,0,.719,1.8c0.42,0.27.72,0.42,2.94,0.42a4.907,4.907,0,0,0,2.88-.6c0.69-.42.9-0.93,1.079-2.31,0.12-.78.06-0.81-0.629-1.02a4.5,4.5,0,0,1-1.59-.84c-0.06,1.23-.15,1.83-0.45,2.07a1.638,1.638,0,0,1-1.14.27,1.593,1.593,0,0,1-1.05-.18,0.775,0.775,0,0,1-.21-0.63v-0.81Zm24.481,5.67a52.079,52.079,0,0,0,7.919-5.82,6.2,6.2,0,0,1,1.56-1.14,0.6,0.6,0,0,0,.51-0.48,0.817,0.817,0,0,0-.33-0.6,26.153,26.153,0,0,0-2.34-1.98,11.692,11.692,0,0,1-1.77,2.04,33.043,33.043,0,0,1-5.549,4.41v-7.5a4.851,4.851,0,0,1,.21-2.04,1.164,1.164,0,0,0,.18-0.57c0-.24-0.18-0.36-0.57-0.39-1.05-.12-2.01-0.18-3.209-0.21a20.959,20.959,0,0,1,.18,3.48v18.93c0,2.01.6,2.79,1.589,3.27,0.96,0.48,2.4.6,5.22,0.6,2.639,0,4.439-.33,5.429-1.02,1.02-.75,1.53-2.04,1.74-4.98,0.06-.78.09-0.78-0.66-1.05a9.418,9.418,0,0,1-2.31-1.23c-0.12,2.85-.39,4.14-0.9,4.56a4.464,4.464,0,0,1-3.089.75,10.646,10.646,0,0,1-2.97-.21c-0.66-.24-0.84-0.63-0.84-1.71v-7.11Zm-11.428,7.77c0,2.91-.06,4.35-0.06,4.56,0,0.27.03,0.3,0.36,0.3h2.609c0.3,0,.33-0.03.33-0.3,0-.18-0.06-1.65-0.06-4.56v-15.33a35.38,35.38,0,0,0,1.89-3.87,3.1,3.1,0,0,1,.75-1.29,0.627,0.627,0,0,0,.27-0.51c0-.21-0.12-0.3-0.51-0.45a20.684,20.684,0,0,0-2.91-.96,11.049,11.049,0,0,1-.6,2.1,24.735,24.735,0,0,1-6.929,10.14,11.5,11.5,0,0,1,1.14,2.46,0.744,0.744,0,0,0,.45.66,1.324,1.324,0,0,0,.66-0.45,32.6,32.6,0,0,0,2.67-3.12c-0.03,1.32-.06,2.7-0.06,3.84v6.78Zm26.04-22.59c4.98,4.11,6.749,8.46,6.749,13.74s-1.769,9.63-6.749,13.74l0.78,0.93c5.759-4.2,8.129-8.76,8.129-14.67s-2.37-10.47-8.129-14.67Zm20.79,3.69v2.88c-2.1,0-2.91-.06-3.06-0.06-0.3,0-.33.03-0.33,0.3,0,0.18.06,1.59,0.06,6.48v5.1c0,7.05-.06,8.4-0.06,8.61,0,0.3.03,0.33,0.33,0.33h1.89c0.27,0,.3-0.03.3-0.33v-1.53h7.139v0.99c0,0.3.03,0.33,0.36,0.33h1.829c0.3,0,.33-0.03.33-0.33,0-.18-0.06-1.53-0.06-8.4v-5.58c0-4.11.06-5.49,0.06-5.67,0-.27-0.03-0.3-0.33-0.3-0.209,0-.959.06-3.059,0.06v-2.88h0.24c2.58,0,3.479.06,3.659,0.06,0.3,0,.33-0.03.33-0.33v-2.13c0-.3-0.03-0.33-0.33-0.33-0.18,0-1.079.06-3.659,0.06h-6c-2.61,0-3.48-.06-3.66-0.06-0.27,0-.3.03-0.3,0.33v2.13c0,0.3.03,0.33,0.3,0.33,0.18,0,1.05-.06,3.66-0.06h0.36Zm3.239,5.25v4.74c0,1.02.09,1.41,0.45,1.71a2.051,2.051,0,0,0,1.47.33h1.11v2.52h-7.139v-2.82a3.668,3.668,0,0,1,.96,1.32,0.512,0.512,0,0,0,.36.39,0.413,0.413,0,0,0,.3-0.27,13.362,13.362,0,0,0,1.259-4.56c0.09-.99.12-2.25,0.12-3.36h1.11Zm-4.109,13.95v-2.16h7.139v2.16h-7.139Zm0-13.95h1.14c0,0.9,0,1.86-.06,2.58a6.885,6.885,0,0,1-1.08,3.57v-6.15Zm7.139,0v4.35h-0.45a0.543,0.543,0,0,1-.57-0.21,2.2,2.2,0,0,1-.09-1.02v-3.12h1.11Zm-4.14-2.37v-2.88h1.11v2.88h-1.11Zm8.639-2.85c0,0.27.03,0.3,0.33,0.3,0.18,0,.9-0.06,3.12-0.06h4.259v6.63h-4.559c-1.8,0-2.67-.06-2.85-0.06-0.33,0-.36.03-0.36,0.36,0,0.18.06,1.26,0.06,3.42v9.33a2.842,2.842,0,0,0,.75,2.4c0.63,0.57,1.83.78,4.679,0.78,2.82,0,4.26-.39,5.04-1.08,0.72-.66,1.29-1.59,1.47-4.32,0.06-.93.06-0.93-0.87-1.2a6.941,6.941,0,0,1-2.04-.84c-0.12,2.43-.24,3.42-0.69,3.93-0.45.48-1.35,0.6-2.79,0.6-1.349,0-1.949-.09-2.249-0.39a1.929,1.929,0,0,1-.27-1.35v-8.7h4.679v1.02c0,0.3.03,0.33,0.33,0.33h2.4c0.33,0,.36-0.03.36-0.33,0-.18-0.06-1.08-0.06-3.21v-6.75c0-2.13.06-3.03,0.06-3.21,0-.3-0.03-0.33-0.36-0.33-0.18,0-.93.06-3.15,0.06h-3.839c-2.22,0-2.94-.06-3.12-0.06-0.3,0-.33.03-0.33,0.33v2.4Zm22.831,23.67c0.33,0,.36-0.03.36-0.33v-1.14h12.029v0.99c0,0.3.03,0.33,0.33,0.33h2.549c0.33,0,.36-0.03.36-0.33,0-.15-0.06-0.96-0.06-5.28v-2.94c0-2.13.06-3,.06-3.18,0-.3-0.03-0.33-0.36-0.33-0.18,0-1.23.06-4.109,0.06h-9.6c-2.88,0-3.929-.06-4.109-0.06-0.3,0-.33.03-0.33,0.33,0,0.18.06,1.05,0.06,3.63v2.58c0,4.35-.06,5.16-0.06,5.34,0,0.3.03,0.33,0.33,0.33h2.549Zm0.36-9.42h12.029v5.22H435.515V3432Zm-0.06-5.91c0,0.3.03,0.33,0.33,0.33,0.21,0,.99-0.06,3.39-0.06h4.649c2.4,0,3.21.06,3.39,0.06,0.3,0,.33-0.03.33-0.33v-2.1a32.628,32.628,0,0,0,5.849,3.36,1.8,1.8,0,0,0,.72.27c0.24,0,.36-0.21.54-0.78a7.973,7.973,0,0,1,1.259-2.28,27.071,27.071,0,0,1-12.808-9.15,0.809,0.809,0,0,1,.24-0.21,0.511,0.511,0,0,0,.3-0.45c0-.27-0.18-0.36-0.54-0.48-0.87-.21-1.98-0.39-3.149-0.57a9.386,9.386,0,0,1-1.17,2.13,26.707,26.707,0,0,1-11.549,9.18,7.272,7.272,0,0,1,1.41,2.01,0.925,0.925,0,0,0,.57.75,2.176,2.176,0,0,0,.69-0.3,36.993,36.993,0,0,0,5.549-3.54v2.16Zm3.72-2.52c-2.04,0-2.88-.03-3.24-0.06a29.621,29.621,0,0,0,5.459-5.67,26.83,26.83,0,0,0,5.52,5.7c-0.42,0-1.32.03-3.09,0.03h-4.649Z" transform="translate(-179.938 -3357.81)"/>
  <path id="シェイプ_984" data-name="シェイプ 984" class="cls-2" d="M206.947,3394.77H431.578" transform="translate(-179.938 -3357.81)"/>
  <path id="シェイプ_984-2" data-name="シェイプ 984" class="cls-2" d="M182.947,3453.77H459.578" transform="translate(-179.938 -3357.81)"/>
</svg>
