<svg id="desc-block-02.svg" xmlns="http://www.w3.org/2000/svg" width="369.906" height="32.72" viewBox="0 0 369.906 32.72">
  <defs>
    <style>
      .cls-1 {
        fill: #1147b4;
      }

      .cls-1, .cls-2 {
        fill-rule: evenodd;
      }

      .cls-2 {
        fill: none;
        stroke: #1147b4;
        stroke-linecap: round;
        stroke-width: 2px;
        stroke-dasharray: 0.001 4;
      }
    </style>
  </defs>
  <path id="ビタミン_誘導体_製品の抗酸化_配合" data-name="ビタミンＣ誘導体（製品の抗酸化）配合" class="cls-1" d="M521.767,2137.1a5.021,5.021,0,0,1,.22-1.98,0.954,0.954,0,0,0,.154-0.46,0.367,0.367,0,0,0-.352-0.35,18.577,18.577,0,0,0-2.771-.44,22.772,22.772,0,0,1,.22,4.02v8.12c0,1.8.461,2.84,1.561,3.3a10.965,10.965,0,0,0,4.179.59,45.112,45.112,0,0,0,6.532-.39c0.33-.03.462-0.11,0.462-0.4,0-.46-0.066-1.3-0.132-1.91-0.022-.27-0.066-0.35-0.4-0.31a39.05,39.05,0,0,1-6.2.51,10.872,10.872,0,0,1-2.771-.25c-0.572-.17-0.726-0.52-0.726-1.56v-2.92a58.015,58.015,0,0,0,7.544-2.73,12.767,12.767,0,0,1,1.825-.73,0.409,0.409,0,0,0,.374-0.39,0.648,0.648,0,0,0-.176-0.4,12.7,12.7,0,0,0-1.825-1.98,6.945,6.945,0,0,1-2.354,1.59,42.756,42.756,0,0,1-5.366,2.13v-3.06Zm8.028-2.48a10.884,10.884,0,0,1,2.221,2.55,0.231,0.231,0,0,0,.374.06l0.924-.68a0.22,0.22,0,0,0,.066-0.35,9.859,9.859,0,0,0-2.09-2.35c-0.132-.11-0.22-0.14-0.33-0.05Zm2.023-1.45a10.3,10.3,0,0,1,2.2,2.52,0.224,0.224,0,0,0,.374.07l0.88-.68a0.258,0.258,0,0,0,.066-0.4,9.075,9.075,0,0,0-2.089-2.26,0.232,0.232,0,0,0-.33-0.05Zm13.709,2.46c0.373-.57.5-0.79,0.681-1.1a1.712,1.712,0,0,1,.462-0.46,0.6,0.6,0,0,0,.264-0.44,0.39,0.39,0,0,0-.242-0.36,14.232,14.232,0,0,0-2.573-1.07,8.145,8.145,0,0,1-1.188,2.7,24.539,24.539,0,0,1-6.224,6.91,9.03,9.03,0,0,1,1.847,1.01,0.5,0.5,0,0,0,.352.15,0.774,0.774,0,0,0,.44-0.19,26.824,26.824,0,0,0,4.707-4.95l5.454-.11a21.065,21.065,0,0,1-2.573,4.35,22.516,22.516,0,0,0-2.837-1.76,0.606,0.606,0,0,0-.22-0.08,0.4,0.4,0,0,0-.286.15c-0.506.46-.968,1.03-1.452,1.56a18.271,18.271,0,0,1,3.168,2.07,26.709,26.709,0,0,1-8.094,5.96,6.2,6.2,0,0,1,2.089,1.12,0.675,0.675,0,0,0,.418.2,1.2,1.2,0,0,0,.55-0.2,26.719,26.719,0,0,0,7.016-5.5,25.351,25.351,0,0,1,2.133,2.13,0.391,0.391,0,0,0,.242.14,0.5,0.5,0,0,0,.264-0.11,13.168,13.168,0,0,0,1.364-1.39,0.433,0.433,0,0,0,.132-0.28,0.442,0.442,0,0,0-.132-0.31,18.851,18.851,0,0,0-2.375-2.22,34.468,34.468,0,0,0,3.233-5.33,2.854,2.854,0,0,1,.66-0.83,0.581,0.581,0,0,0,.241-0.42,0.561,0.561,0,0,0-.176-0.4,7.256,7.256,0,0,0-1.5-1.34,0.74,0.74,0,0,0-.4-0.17,0.634,0.634,0,0,0-.374.15,2.105,2.105,0,0,1-1.21.33Zm14.213-.51a36.508,36.508,0,0,1,8.314,2.53,0.333,0.333,0,0,0,.528-0.15,18.741,18.741,0,0,0,.769-1.92c0.132-.28.088-0.39-0.264-0.55a41.026,41.026,0,0,0-7.829-2.3,0.41,0.41,0,0,0-.594.28C560.488,2133.36,560,2134.48,559.74,2135.12Zm-1.474,5.72a32.456,32.456,0,0,1,7.192,2.35,0.5,0.5,0,0,0,.286.09,0.418,0.418,0,0,0,.308-0.28,14.087,14.087,0,0,0,.726-1.7,0.425,0.425,0,0,0-.286-0.64,35.128,35.128,0,0,0-6.708-2.13,0.394,0.394,0,0,0-.572.22A22.017,22.017,0,0,0,558.266,2140.84Zm-0.351,6.53a40.327,40.327,0,0,1,10.865,3.65,0.614,0.614,0,0,0,.307.11,0.4,0.4,0,0,0,.33-0.26,17.929,17.929,0,0,0,.88-1.8,0.391,0.391,0,0,0-.22-0.6,37.812,37.812,0,0,0-10.535-3.43,0.5,0.5,0,0,0-.616.27A22.086,22.086,0,0,0,557.915,2147.37Zm17.006-10.91a23.534,23.534,0,0,1,4.487,3.59,0.47,0.47,0,0,0,.286.18,0.434,0.434,0,0,0,.264-0.18c0.308-.33,1.033-1.21,1.363-1.65a0.477,0.477,0,0,0,.132-0.29,0.509,0.509,0,0,0-.2-0.3,23.145,23.145,0,0,0-4.2-3.13,0.654,0.654,0,0,0-.285-0.11,0.418,0.418,0,0,0-.308.18C576.043,2135.19,575.405,2135.87,574.921,2136.46Zm0.484,10.98a15.654,15.654,0,0,0,1.759,2.44,0.582,0.582,0,0,0,.374.24,0.617,0.617,0,0,0,.4-0.22,7.344,7.344,0,0,1,1.474-1.01,47.337,47.337,0,0,0,6.642-4.31,36.24,36.24,0,0,0,5.059-4.66,0.816,0.816,0,0,0,.241-1.08,9.87,9.87,0,0,1-.615-2.57,33.35,33.35,0,0,1-6.027,5.98,32.868,32.868,0,0,1-6.334,4.09A13.546,13.546,0,0,1,575.405,2147.44Zm33.942-9.41a6.183,6.183,0,0,0-6.488-5.19c-4.4,0-7.412,3.21-7.412,8.86,0,5.63,2.991,8.82,7.412,8.82,3.475,0,5.674-1.56,6.576-5.08l-2.793-.86c-0.484,2.49-1.716,3.65-3.761,3.65-2.486,0-4.289-2.22-4.289-6.55,0-4.36,1.759-6.56,4.289-6.56,1.935,0,3.167,1.23,3.585,3.61Zm18.019,6.66a19.745,19.745,0,0,1-.792,2.51c-0.11.26,0,.33,0.352,0.35l1.166,0.06c0.395,0.03.5,0,.593-0.24l0.066-.19h1.034a6.862,6.862,0,0,1-.506,2.17,1.124,1.124,0,0,1-1.1.4,16.407,16.407,0,0,1-2.2-.18,4.762,4.762,0,0,1,.418,1.28c0.132,0.72.154,0.77,0.792,0.79,0.462,0.02.748,0.02,1.165,0.02,1.408,0,2.112-.28,2.552-0.97a8.183,8.183,0,0,0,.923-3.47l0.176-1.54c0.022-.22-0.044-0.26-0.242-0.26-0.153,0-.439.04-1.253,0.04h-1.32c0.132-.46.242-0.97,0.374-1.5,0.088-.35.2-0.66,0.264-0.9,0.044-.15-0.044-0.24-0.264-0.24-0.132,0-.726.04-2.463,0.04h-3.563c-1.54,0-2-.04-2.134-0.04-0.22,0-.242.02-0.242,0.22v1.43c0,0.24.022,0.26,0.242,0.26,0.11,0,.55-0.04,1.892-0.04a6.477,6.477,0,0,1-3.673,5.52v-3.61c0-1.03.022-1.56,0.022-1.69,0-.22,0-0.24-0.2-0.24-0.154,0-.616.04-2,0.04H615.8c-1.386,0-1.848-.04-1.98-0.04-0.241,0-.263.02-0.263,0.24,0,0.15.044,0.68,0.044,2.07v1.4c0,2.67-.044,3.17-0.044,3.33,0,0.19.022,0.22,0.263,0.22h1.562c0.22,0,.242-0.03.242-0.22v-1.02h2v0.6c0,0.22.022,0.24,0.242,0.24h1.584c0.2,0,.2-0.02.2-0.24,0-.07-0.022-0.35-0.022-0.97a4.976,4.976,0,0,1,.946,1.06,0.764,0.764,0,0,0,.439.48,1.354,1.354,0,0,0,.528-0.29,9.01,9.01,0,0,0,3.8-6.88h2.024Zm-9.744,1.85v2.35h-2v-2.35h2Zm11.767-8.36c2.068,0,2.771.04,2.9,0.04,0.242,0,.264-0.02.264-0.24v-1.38c0-.2-0.022-0.22-0.264-0.22-0.132,0-.835.04-2.9,0.04h-2.045v-1.8c0.923-.16,1.781-0.33,2.573-0.55a5.414,5.414,0,0,1,1.21-.25c0.308,0,.418-0.11.418-0.26a0.543,0.543,0,0,0-.154-0.37,14.452,14.452,0,0,0-1.3-1.3,6.558,6.558,0,0,1-1.452.53,34.5,34.5,0,0,1-7.873.99,4.013,4.013,0,0,1,.637,1.21c0.22,0.63.242,0.63,0.9,0.59,1.034-.07,1.98-0.15,2.859-0.26v1.47h-1.451c-2.068,0-2.771-.04-2.9-0.04-0.242,0-.264.02-0.264,0.22v1.38c0,0.22.022,0.24,0.264,0.24,0.132,0,.835-0.04,2.9-0.04h0.2a13.823,13.823,0,0,1-4.531,2.77,5.341,5.341,0,0,1,.77,1.25c0.176,0.4.242,0.55,0.4,0.55a1.411,1.411,0,0,0,.5-0.22,14.84,14.84,0,0,0,4.2-3.27c-0.022,1.49-.066,2.33-0.066,2.68,0,0.22.022,0.24,0.242,0.24h1.65c0.22,0,.242-0.02.242-0.24,0-.33-0.044-1.14-0.066-2.64a13.577,13.577,0,0,0,4.135,3.26,1.691,1.691,0,0,0,.527.22c0.154,0,.242-0.14.4-0.51a5.279,5.279,0,0,1,.77-1.32,13.248,13.248,0,0,1-4.685-2.77h0.99Zm-14.12-2.55c-1.671,0-2.177-.05-2.309-0.05-0.22,0-.242.03-0.242,0.25v1.56c0,0.24.022,0.26,0.242,0.26,0.132,0,.638-0.04,2.309-0.04h2.2c1.65,0,2.178.04,2.288,0.04,0.22,0,.242-0.02.242-0.26v-1.56c0-.22-0.022-0.25-0.242-0.25-0.11,0-.638.05-2.288,0.05h-2.2Zm0.594-3.01c-1.408,0-1.848-.05-1.98-0.05-0.219,0-.241.02-0.241,0.24v1.48c0,0.19.022,0.22,0.241,0.22,0.132,0,.572-0.05,1.98-0.05h1.6c1.386,0,1.826.05,1.958,0.05,0.22,0,.22-0.03.22-0.22v-1.48c0-.22,0-0.24-0.22-0.24-0.132,0-.572.05-1.958,0.05h-1.6Zm0.066,6.13c-1.32,0-1.716-.04-1.848-0.04-0.22,0-.242.02-0.242,0.24v1.43c0,0.22.022,0.24,0.242,0.24,0.132,0,.528-0.04,1.848-0.04h1.364c1.3,0,1.693.04,1.825,0.04,0.242,0,.264-0.02.264-0.24v-1.43c0-.22-0.022-0.24-0.264-0.24-0.132,0-.528.04-1.825,0.04h-1.364Zm0,2.97c-1.32,0-1.716-.04-1.848-0.04-0.22,0-.242.02-0.242,0.24v1.41c0,0.22.022,0.24,0.242,0.24,0.132,0,.528-0.05,1.848-0.05h1.364c1.3,0,1.693.05,1.825,0.05,0.242,0,.264-0.02.264-0.24v-1.41c0-.22-0.022-0.24-0.264-0.24-0.132,0-.528.04-1.825,0.04h-1.364Zm36.1,6.33c1.98,0,2.661.05,2.793,0.05,0.22,0,.242-0.02.242-0.24v-1.34c0-.25-0.022-0.27-0.242-0.27-0.132,0-.813.05-2.793,0.05H650.6v-0.91c1.253-.02,2.573-0.04,3.936-0.08,0.7-.03.7-0.03,0.836-0.73a5,5,0,0,1,.374-1.25c-3.013.22-6.092,0.28-9.193,0.28a15.346,15.346,0,0,1-4.047-.33,2.938,2.938,0,0,1-1.672-1.47v-2.62c0-.97.044-1.38,0.044-1.52,0-.22-0.022-0.24-0.264-0.24-0.132,0-.44.05-1.605,0.05h-1.43c-1.165,0-1.451-.05-1.605-0.05-0.2,0-.22.02-0.22,0.24v1.5c0,0.22.022,0.24,0.22,0.24,0.154,0,.44-0.04,1.605-0.04h1.166v2.31a10.882,10.882,0,0,1-2.024,1.25,9.032,9.032,0,0,1-1.253.48c0.308,0.77.528,1.3,0.814,1.9a0.381,0.381,0,0,0,.329.26,0.362,0.362,0,0,0,.308-0.2,1.818,1.818,0,0,1,.44-0.42,16.884,16.884,0,0,0,2.266-1.65,4.039,4.039,0,0,0,2.089,1.54,18.668,18.668,0,0,0,5.147.58H648.4v0.88h-9.633c-1.98,0-2.639-.05-2.771-0.05-0.2,0-.22.02-0.22,0.27v1.34c0,0.22.022,0.24,0.22,0.24,0.132,0,.791-0.05,2.771-0.05H648.4v1.26c0,0.5-.286.7-0.924,0.7-0.439,0-1.209-.02-2-0.09a5.145,5.145,0,0,1,.616,1.46c0.154,0.52.154,0.52,0.814,0.52a6.4,6.4,0,0,0,2.925-.39,1.629,1.629,0,0,0,.814-1.61c0-.64-0.044-1.19-0.044-1.85h1.429Zm-5.278-12.91a5,5,0,0,1-.286.8h-0.726c-1.936,0-2.617-.05-2.771-0.05-0.22,0-.242.02-0.242,0.24,0,0.14.044,0.62,0.044,1.83v2.68c0,1.21-.044,1.7-0.044,1.85,0,0.22.022,0.24,0.242,0.24,0.154,0,.835-0.04,2.771-0.04h4.553c1.935,0,2.617.04,2.771,0.04,0.2,0,.22-0.02.22-0.24,0-.13-0.044-0.64-0.044-1.85v-2.68c0-1.21.044-1.69,0.044-1.83,0-.22-0.022-0.24-0.22-0.24-0.154,0-.836.05-2.771,0.05h-1.628a7.242,7.242,0,0,0,.33-0.8h2.683c2.156,0,2.9.05,3.035,0.05,0.22,0,.242-0.02.242-0.24v-1.08c0-.22-0.022-0.24-0.242-0.24-0.132,0-.879.04-3.035,0.04h-0.462l0.418-.61a1.778,1.778,0,0,1,.4-0.44,0.45,0.45,0,0,0,.242-0.36,0.3,0.3,0,0,0-.286-0.22c-0.572-.13-1.275-0.28-2-0.39a3.38,3.38,0,0,1-.4,1.05c-0.176.33-.374,0.64-0.594,0.97h-3.387l0.814-.35c0.242-.11.264-0.2,0.154-0.4a6.68,6.68,0,0,0-.924-1.18,0.327,0.327,0,0,0-.462-0.11l-1.188.48c-0.264.11-.352,0.15-0.2,0.35a5.993,5.993,0,0,1,.814,1.21c-2.133,0-2.859-.04-2.991-0.04-0.22,0-.242.02-0.242,0.24v1.1c0,0.22.022,0.22,0.242,0.22,0.132,0,.858-0.05,2.991-0.05h2.134Zm4.442,1.98v0.82h-6.4v-0.82h6.4Zm0,4.36h-6.4v-0.82h6.4v0.82Zm-6.4-1.78v-0.79h6.4v0.79h-6.4Zm-8.27-6.36a0.438,0.438,0,0,0-.2.24,0.342,0.342,0,0,0,.153.18,14.985,14.985,0,0,1,2.442,2.64,0.321,0.321,0,0,0,.176.15,0.58,0.58,0,0,0,.286-0.17l1.187-1.04a0.365,0.365,0,0,0,.154-0.26,0.4,0.4,0,0,0-.11-0.22,16.464,16.464,0,0,0-2.617-2.49c-0.176-.13-0.264-0.08-0.44.07Zm3.673,15.59a0.3,0.3,0,0,0-.219.2,0.335,0.335,0,0,0,.131.18,11.629,11.629,0,0,1,1.848,2.15c0.132,0.2.2,0.18,0.44,0.05l1.517-.88c0.242-.13.264-0.2,0.132-0.38a14.459,14.459,0,0,0-1.913-2,0.354,0.354,0,0,0-.506-0.02Zm28.093-10.42a20.337,20.337,0,0,1-5.762,7.63v-8.91a31.23,31.23,0,0,0,1.429-3.21,2.131,2.131,0,0,1,.44-0.88,0.488,0.488,0,0,0,.242-0.39c0-.16-0.11-0.22-0.352-0.33a13.617,13.617,0,0,0-2.133-.68,7.6,7.6,0,0,1-.33,1.56,19.421,19.421,0,0,1-4.179,7.14,6.275,6.275,0,0,1,.748,1.9c0.066,0.26.132,0.39,0.242,0.39a0.685,0.685,0,0,0,.4-0.28c0.439-.51.857-1.06,1.275-1.61-0.022.88-.022,1.76-0.022,2.49v4.99c0,2.15-.044,3.21-0.044,3.34,0,0.22.022,0.24,0.22,0.24h1.87c0.22,0,.242-0.02.242-0.24,0-.11-0.044-1.19-0.044-3.34v-2.11a7.074,7.074,0,0,1,.989,1.3,0.615,0.615,0,0,0,.352.41,1.029,1.029,0,0,0,.462-0.33,20.527,20.527,0,0,0,5.015-7.34c0,1.95-.022,3.91-0.066,5.63h-0.418c-1.716,0-2.266-.05-2.4-0.05-0.219,0-.241.03-0.241,0.25v1.6c0,0.24.022,0.26,0.241,0.26,0.132,0,.682-0.04,2.4-0.04h0.4c-0.044,2.07-.088,3.54-0.088,3.76s0.022,0.24.264,0.24h1.891c0.22,0,.242-0.02.242-0.24s-0.044-1.67-.066-3.76h0.484c1.715,0,2.265.04,2.4,0.04,0.22,0,.242-0.02.242-0.26v-1.6c0-.22-0.022-0.25-0.242-0.25-0.132,0-.682.05-2.4,0.05h-0.506c-0.022-1.72-.044-3.68-0.044-5.65a21.708,21.708,0,0,0,5.125,7.38,1.016,1.016,0,0,0,.462.36,0.707,0.707,0,0,0,.351-0.46,5.587,5.587,0,0,1,1.078-1.48,22.325,22.325,0,0,1-6.114-7.52h2.287c2.134,0,2.881.04,3.035,0.04,0.2,0,.22-0.02.22-0.24v-1.69c0-.24-0.022-0.24-0.22-0.24-0.154,0-.9.02-3.035,0.02H671.5v-1.48a7.585,7.585,0,0,1,.132-2.22,1.1,1.1,0,0,0,.154-0.46,0.3,0.3,0,0,0-.352-0.22,19.245,19.245,0,0,0-2.309-.17,24.172,24.172,0,0,1,.154,3.12v1.43h-2.222c-2.155,0-2.881-.02-3.013-0.02-0.22,0-.242,0-0.242.24v1.69c0,0.22.022,0.24,0.242,0.24,0.132,0,.858-0.04,3.013-0.04h1.232Zm20.985-7.46c-4.222,3.08-5.96,6.43-5.96,10.76s1.738,7.67,5.96,10.75l0.572-.68c-3.651-3.01-4.948-6.2-4.948-10.07s1.3-7.06,4.948-10.07Zm9.926,14.45a20.938,20.938,0,0,1-7.126,2.33,2.887,2.887,0,0,1,.814,1.21c0.242,0.64.308,0.62,0.967,0.47a24.871,24.871,0,0,0,4.465-1.5v1.56l-0.594.07c-0.791.09-1.5,0.15-2.353,0.2,0.154,0.63.308,1.32,0.506,1.89a0.328,0.328,0,0,0,.308.31,0.751,0.751,0,0,0,.374-0.16,2.674,2.674,0,0,1,.791-0.22c2.068-.33,4.025-0.68,6.313-1.23,0.7-.18.7-0.18,0.725-0.64a8.838,8.838,0,0,1,.132-1.34c-1.451.35-2.727,0.62-4.112,0.84v-2.4a13.911,13.911,0,0,0,1.8-1.39h0.176c1.628,3.08,4.333,5,8.292,6.14,0.66,0.15.682,0.18,0.989-.48a5.544,5.544,0,0,1,.946-1.46,16.654,16.654,0,0,1-4.575-1.34c0.484-.31.946-0.59,1.32-0.85a2.237,2.237,0,0,1,.748-0.4,0.321,0.321,0,0,0,.286-0.29,0.439,0.439,0,0,0-.22-0.33,10.032,10.032,0,0,0-1.386-.99h0.4c1.936,0,2.6.05,2.727,0.05,0.22,0,.242-0.02.242-0.24v-1.46c0-.22-0.022-0.24-0.242-0.24-0.132,0-.791.05-2.727,0.05h-5.366a1.535,1.535,0,0,1,.132-0.82,0.821,0.821,0,0,0,.132-0.44c0-.13-0.11-0.24-0.4-0.28l-0.572-.05a1.45,1.45,0,0,0,.308-0.97v-1.51c0-.51.022-0.71,0.022-0.84,0-.2-0.022-0.22-0.242-0.22-0.154,0-.792.05-2.639,0.05h-1.056v-0.99h1.517c2,0,2.662.04,2.794,0.04,0.22,0,.242-0.02.242-0.26v-1.13c0-.24-0.022-0.26-0.242-0.26-0.132,0-.792.04-2.794,0.04h-1.517v-0.99h1.056c1.825,0,2.419.05,2.551,0.05,0.22,0,.242-0.02.242-0.24v-1.15c0-.24-0.022-0.26-0.242-0.26-0.132,0-.726.04-2.551,0.04h-1.056a3.527,3.527,0,0,1,.088-0.92,1.425,1.425,0,0,0,.154-0.48,0.345,0.345,0,0,0-.352-0.25c-0.55-.06-1.254-0.11-2-0.13a13.231,13.231,0,0,1,.132,1.78h-1.561l0.066-.13a1.294,1.294,0,0,1,.352-0.55,0.32,0.32,0,0,0,.154-0.26c0-.13-0.088-0.18-0.308-0.24-0.55-.14-1.056-0.22-1.628-0.33a4.065,4.065,0,0,1-.352,1.07,6.5,6.5,0,0,1-1.583,2.2,3.382,3.382,0,0,1,1.077.46,1.222,1.222,0,0,0,.528.29,0.749,0.749,0,0,0,.462-0.4l0.4-.55h2.4v0.99H695.7c-2.024,0-2.705-.04-2.837-0.04-0.22,0-.242.02-0.242,0.26v1.13c0,0.24.022,0.26,0.242,0.26,0.132,0,.813-0.04,2.837-0.04h1.825v0.99h-0.945c-1.848,0-2.486-.05-2.64-0.05-0.22,0-.242.02-0.242,0.22,0,0.16.044,0.42,0.044,1.23v1.12c0,0.84-.044,1.06-0.044,1.21,0,0.22.022,0.25,0.242,0.25h1.474c0.22,0,.242-0.03.242-0.25,0-.13-0.022-0.37-0.022-1.07v-1.17h1.891v0.07c0,1.73-.044,2.57-0.044,2.72,0,0.2.022,0.22,0.242,0.22h1.584c0.22,0,.242-0.02.242-0.22,0-.13-0.044-0.99-0.044-2.72v-0.07h2.023v0.68c0,0.33-.066.46-0.44,0.46-0.264,0-.549,0-0.879-0.02a2.578,2.578,0,0,1,.44,1.08c0.065,0.35.109,0.37,0.527,0.35h0.462c0.022,0.35.044,0.71,0.044,1.04h-6.246c-1.935,0-2.6-.05-2.727-0.05-0.22,0-.242.02-0.242,0.24v1.46c0,0.22.022,0.24,0.242,0.24,0.132,0,.792-0.05,2.727-0.05H699.2Zm9.413,0a4.287,4.287,0,0,1-.682.77,12.865,12.865,0,0,1-1.5,1.13,8.28,8.28,0,0,1-1.826-1.9h4Zm2.53-10.93a6.338,6.338,0,0,1,.132-1.89,1.013,1.013,0,0,0,.154-0.46,0.319,0.319,0,0,0-.352-0.22,21.833,21.833,0,0,0-2.244-.15,16.046,16.046,0,0,1,.176,2.77v5.56c0,0.48-.242.64-0.88,0.64a15.555,15.555,0,0,1-1.737-.07,4.945,4.945,0,0,1,.462,1.45c0.088,0.6.11,0.6,0.814,0.6,1.495-.02,2.287-0.13,2.793-0.53a1.69,1.69,0,0,0,.7-1.47c0-.51-0.022-1.15-0.022-1.92v-4.31Zm-6.247,2.8c0,1.29-.044,1.89-0.044,2.02,0,0.24.022,0.26,0.242,0.26h1.694c0.22,0,.242-0.02.242-0.26,0-.13-0.044-0.73-0.044-2.02v-2.25a4.256,4.256,0,0,1,.11-1.41,1.3,1.3,0,0,0,.132-0.41,0.287,0.287,0,0,0-.33-0.24c-0.748-.09-1.32-0.11-2.156-0.14a12.08,12.08,0,0,1,.154,2.2v2.25Zm17.074-4.78c-2.068,0-2.793-.04-2.925-0.04-0.22,0-.242.02-0.242,0.24,0,0.16.044,0.73,0.044,2.05v3.19c0,1.32-.044,1.89-0.044,2.02,0,0.24.022,0.26,0.242,0.26,0.132,0,.857-0.04,2.925-0.04h6.07c2.09,0,2.793.04,2.947,0.04,0.22,0,.242-0.02.242-0.26,0-.13-0.044-0.7-0.044-2.02v-3.19c0-1.32.044-1.89,0.044-2.05,0-.22-0.022-0.24-0.242-0.24-0.154,0-.857.04-2.947,0.04h-6.07Zm-0.858,2.11h7.808v3.46H721.11v-3.46Zm6.708,17.14c0.22,0,.242-0.02.242-0.24v-1.08h3.915v0.97c0,0.24.022,0.26,0.242,0.26h1.738c0.219,0,.241-0.02.241-0.26,0-.14-0.043-0.75-0.043-4.05v-2.35c0-1.76.043-2.4,0.043-2.53,0-.25-0.022-0.27-0.241-0.27-0.132,0-.7.05-2.4,0.05h-3.035c-1.693,0-2.265-.05-2.419-0.05-0.2,0-.22.02-0.22,0.27,0,0.13.044,0.77,0.044,2.86v2.04c0,3.37-.044,3.98-0.044,4.14,0,0.22.022,0.24,0.22,0.24h1.715Zm0.242-7.44h3.915v4.07H728.06v-4.07Zm-10.293,7.44c0.22,0,.242-0.02.242-0.27v-1.05h3.651v0.9c0,0.22.022,0.24,0.22,0.24H723.6c0.22,0,.242-0.02.242-0.24,0-.13-0.044-0.77-0.044-4.07v-2.31c0-1.74.044-2.37,0.044-2.51,0-.22-0.022-0.24-0.242-0.24-0.154,0-.7.05-2.353,0.05h-2.881c-1.628,0-2.177-.05-2.331-0.05-0.22,0-.242.02-0.242,0.24,0,0.16.044,0.77,0.044,2.89v2.04c0,3.37-.044,3.98-0.044,4.11,0,0.25.022,0.27,0.242,0.27h1.737Zm0.242-7.44h3.651v4.07h-3.651v-4.07Zm30.908-7.72a5,5,0,0,1,4.926,5.11c0,4.15-2.925,5.69-6.642,6.57a4.646,4.646,0,0,1,1.54,1.39,0.691,0.691,0,0,0,.946.39c4.464-1.34,6.774-3.91,6.774-8,0-4.38-3.1-7.63-8.38-7.63a9.611,9.611,0,0,0-7.148,2.81,8.119,8.119,0,0,0-2.485,5.72c0,3.59,1.957,5.65,3.893,5.65,1.649,0,2.793-.88,3.739-2.53a27.558,27.558,0,0,0,2.749-9.48h0.088Zm-2.639.14a25.129,25.129,0,0,1-2.332,7.87c-0.594,1.06-1.078,1.34-1.649,1.34-0.682,0-1.5-1.12-1.5-3.14a6.335,6.335,0,0,1,1.716-4.07A6.559,6.559,0,0,1,746.278,2136.82Zm27.652,4.39v8.41a1.719,1.719,0,0,0,.638,1.62,4.318,4.318,0,0,0,2.375.38,3.838,3.838,0,0,0,2.529-.64c0.55-.51.682-1.47,0.77-3.61,0.022-.57.022-0.63-0.528-0.81a6.046,6.046,0,0,1-1.517-.75c-0.022,2.68-.11,3.21-0.242,3.39a1.032,1.032,0,0,1-.946.31,1.405,1.405,0,0,1-.682-0.11,0.859,0.859,0,0,1-.11-0.64v-6.8c0-1.67.044-2.53,0.044-2.66,0-.22-0.022-0.24-0.242-0.24-0.154,0-.637.04-2.177,0.04h-2.507c-1.54,0-2-.04-2.134-0.04-0.242,0-.264.02-0.264,0.24,0,0.13.044,0.64,0.044,1.58,0,5.77-.462,7.35-3.739,9.2a3.776,3.776,0,0,1,1.188,1.21,0.721,0.721,0,0,0,.506.48,1.29,1.29,0,0,0,.594-0.28c2.925-2.09,3.717-4.05,3.717-10.28h2.683Zm-8.952,2.38c0.616-.24,1.232-0.48,1.782-0.73,0.66-.28.66-0.26,0.638-0.96a14.455,14.455,0,0,1,.088-1.52c-0.77.33-1.65,0.68-2.508,0.99v-3.3c1.056,0.02,1.452.04,1.562,0.04,0.22,0,.22-0.02.22-0.24v-1.67c0-.22,0-0.24-0.22-0.24-0.11,0-.506.04-1.562,0.04v-1.12a6.7,6.7,0,0,1,.132-2.22,1.12,1.12,0,0,0,.132-0.46,0.329,0.329,0,0,0-.351-0.24,23.069,23.069,0,0,0-2.31-.16,18.4,18.4,0,0,1,.176,3.12V2136h-0.374c-1.583,0-2.067-.04-2.177-0.04-0.242,0-.264.02-0.264,0.24v1.67c0,0.22.022,0.24,0.264,0.24,0.11,0,.594-0.04,2.177-0.04h0.374v4.02c-0.352.11-.682,0.2-0.968,0.27a18.994,18.994,0,0,1-2.023.42,19.3,19.3,0,0,0,.506,2.15,0.3,0.3,0,0,0,.286.27,0.746,0.746,0,0,0,.352-0.14,2.462,2.462,0,0,1,.725-0.33l1.122-.37v4.46c0,0.55-.132.66-0.572,0.66a17.447,17.447,0,0,1-1.781-.06,5.724,5.724,0,0,1,.594,1.65c0.154,0.68.154,0.68,0.835,0.68,1.474,0,1.98-.09,2.464-0.46,0.572-.42.7-0.99,0.7-2.11,0-1.08-.022-2.91-0.022-4.45v-1.14Zm11.525-6.31c2.134,0,2.859.04,2.991,0.04,0.242,0,.264-0.02.264-0.24v-1.67c0-.22-0.022-0.24-0.264-0.24-0.132,0-.857.04-2.991,0.04h-2.529v-0.88a6.317,6.317,0,0,1,.132-1.67,1.214,1.214,0,0,0,.132-0.46c0-.13-0.154-0.2-0.374-0.22-0.726-.09-1.452-0.13-2.309-0.16a14.726,14.726,0,0,1,.154,2.53v0.86h-1.254c-2.133,0-2.859-.04-2.991-0.04-0.242,0-.264.02-0.264,0.24v1.67c0,0.22.022,0.24,0.264,0.24,0.132,0,.858-0.04,2.991-0.04H776.5Zm12.807-2.88c1.782,0,2.375.04,2.507,0.04,0.2,0,.22-0.02.22-0.26v-1.52c0-.24-0.022-0.26-0.22-0.26-0.132,0-.725.04-2.507,0.04h-3.871c-1.781,0-2.353-.04-2.485-0.04-0.22,0-.242.02-0.242,0.26v1.52c0,0.24.022,0.26,0.242,0.26,0.132,0,.7-0.04,2.485-0.04h0.088v2.09c-1.386,0-1.891-.05-2.023-0.05-0.22,0-.242.02-0.242,0.24,0,0.16.044,1.19,0.044,4.73v3.7c0,5.25-.044,6.24-0.044,6.4,0,0.2.022,0.22,0.242,0.22h1.3c0.22,0,.242-0.02.242-0.22v-1.43h4.465V2151c0,0.22.022,0.24,0.22,0.24h1.3c0.219,0,.241-0.02.241-0.24,0-.04-0.022-0.24-0.022-0.7a5.121,5.121,0,0,1,.638,1.03c0.176,0.4.242,0.53,0.44,0.53a1.608,1.608,0,0,0,.506-0.13,13.969,13.969,0,0,0,4.421-2.29,12.782,12.782,0,0,0,4.333,2.16c0.681,0.17.7,0.17,0.9-.44a5.944,5.944,0,0,1,.726-1.59,14.018,14.018,0,0,1-4.443-1.58,11.683,11.683,0,0,0,1.87-2.79,2.342,2.342,0,0,1,.484-0.75,0.487,0.487,0,0,0,.242-0.38,1.88,1.88,0,0,0-.572-0.83,1.44,1.44,0,0,0-.858-0.64,0.731,0.731,0,0,0-.286.07,1.28,1.28,0,0,1-.484.08H796.59l0.088-.17a3.176,3.176,0,0,1,.528-0.82,0.627,0.627,0,0,0,.242-0.41,0.425,0.425,0,0,0-.374-0.31,13.529,13.529,0,0,0-1.694-.42,5.243,5.243,0,0,1-.484,1.36,10.331,10.331,0,0,1-3.673,4.12v-5.11a5.869,5.869,0,0,1,.682.88,0.836,0.836,0,0,0,.528.58,0.926,0.926,0,0,0,.44-0.2,7.034,7.034,0,0,0,2.683-3.19,2.975,2.975,0,0,1,.4-0.75,0.336,0.336,0,0,0,.132-0.28c0-.09-0.066-0.18-0.33-0.27a17.694,17.694,0,0,0-1.715-.46,2.542,2.542,0,0,1-.242,1.01,4.35,4.35,0,0,1-2.574,2.46v-0.08c0-2.88.044-3.87,0.044-4.01,0-.22-0.022-0.24-0.241-0.24-0.154,0-.638.05-1.914,0.05v-2.09h0.2Zm-1.672,3.87v3.49a1.362,1.362,0,0,0,.44,1.24,1.79,1.79,0,0,0,1.012.19h0.418v1.7h-4.465v-1.72a4.745,4.745,0,0,1,.572.73,0.355,0.355,0,0,0,.22.2,0.38,0.38,0,0,0,.264-0.27,7.248,7.248,0,0,0,.814-3.17c0.022-.59.066-1.38,0.088-2.39h0.637Zm3.607,11.76c-0.022-.68-0.022-1.93-0.022-3.87a3.24,3.24,0,0,1,.814.93,0.7,0.7,0,0,0,.418.46,1.207,1.207,0,0,0,.506-0.31c0.506-.42.968-0.81,1.364-1.21a10.95,10.95,0,0,0,1.451,2.02A11.959,11.959,0,0,1,791.245,2150.03Zm-6.2-1.82v-1.5h4.465v1.5h-4.465Zm13.746-3.76a10.911,10.911,0,0,1-1.605,2.33,8.969,8.969,0,0,1-1.672-2.2l0.088-.13h3.189Zm-13.746-6.18h0.726c0,0.68-.022,1.27-0.044,1.74a6.238,6.238,0,0,1-.682,2.79v-4.53Zm4.465,0v3.16H789.4a0.587,0.587,0,0,1-.462-0.15,1.529,1.529,0,0,1-.088-0.77v-2.24h0.66ZM787,2136.49v-2.09h0.637v2.09H787Zm11.414-3.17c-0.219.13-.241,0.22-0.087,0.39,0.307,0.33.615,0.69,0.9,1.06-1.253.13-2.485,0.24-3.7,0.31,0.264-.49.506-0.9,0.77-1.41a4.133,4.133,0,0,1,.55-0.81,0.452,0.452,0,0,0,.2-0.35,0.4,0.4,0,0,0-.352-0.36,14.977,14.977,0,0,0-1.913-.52,6.882,6.882,0,0,1-.418,1.47,17.2,17.2,0,0,1-.946,2.09c-0.572,0-1.1,0-1.76-.05,0.088,0.69.2,1.28,0.33,1.92a0.311,0.311,0,0,0,.308.31,0.735,0.735,0,0,0,.374-0.11,1.8,1.8,0,0,1,.814-0.18c2.375-.18,4.6-0.4,6.818-0.7,0.2,0.33.374,0.66,0.55,0.99,0.132,0.24.176,0.24,0.462,0.08l1.121-.66c0.286-.15.286-0.24,0.154-0.46a16.316,16.316,0,0,0-2.793-3.54c-0.154-.15-0.2-0.17-0.418-0.04Zm0.638,5.12a1.5,1.5,0,0,1,.11-0.74,0.556,0.556,0,0,0,.088-0.31c0-.09-0.066-0.18-0.33-0.2-0.637-.07-1.121-0.11-1.825-0.15a11.267,11.267,0,0,1,.088,1.73v1.02a1.432,1.432,0,0,0,.528,1.31c0.308,0.2.528,0.31,2.155,0.31a3.6,3.6,0,0,0,2.112-.44,1.889,1.889,0,0,0,.791-1.69c0.088-.57.044-0.59-0.462-0.75a3.36,3.36,0,0,1-1.165-.61,2.244,2.244,0,0,1-.33,1.51,2.054,2.054,0,0,1-1.606.07,0.559,0.559,0,0,1-.154-0.46v-0.6Zm17.954,4.16a37.568,37.568,0,0,0,5.806-4.27,4.532,4.532,0,0,1,1.144-.83,0.45,0.45,0,0,0,.374-0.35,0.581,0.581,0,0,0-.242-0.44,17.985,17.985,0,0,0-1.716-1.46,8.716,8.716,0,0,1-1.3,1.5,24.267,24.267,0,0,1-4.069,3.23v-5.5a3.546,3.546,0,0,1,.154-1.49,0.842,0.842,0,0,0,.132-0.42c0-.17-0.132-0.26-0.418-0.28-0.77-.09-1.474-0.14-2.354-0.16a15.343,15.343,0,0,1,.132,2.55v13.88c0,1.47.44,2.05,1.166,2.4,0.7,0.35,1.759.44,3.827,0.44a7.383,7.383,0,0,0,3.981-.75c0.748-.55,1.121-1.5,1.275-3.65,0.044-.57.066-0.57-0.483-0.77a6.97,6.97,0,0,1-1.694-.9c-0.088,2.09-.286,3.03-0.66,3.34a3.261,3.261,0,0,1-2.265.55,7.948,7.948,0,0,1-2.178-.15c-0.483-.18-0.615-0.47-0.615-1.26v-5.21Zm-8.38,5.7c0,2.13-.044,3.19-0.044,3.34,0,0.2.022,0.22,0.264,0.22h1.913c0.22,0,.242-0.02.242-0.22,0-.13-0.044-1.21-0.044-3.34v-11.24a26.151,26.151,0,0,0,1.386-2.84,2.377,2.377,0,0,1,.55-0.95,0.433,0.433,0,0,0,.2-0.37c0-.15-0.088-0.22-0.374-0.33a16,16,0,0,0-2.134-.7,8.39,8.39,0,0,1-.439,1.54,18.135,18.135,0,0,1-5.081,7.43,8.587,8.587,0,0,1,.836,1.8,0.558,0.558,0,0,0,.33.49,0.957,0.957,0,0,0,.484-0.33,24.086,24.086,0,0,0,1.957-2.29c-0.022.97-.044,1.98-0.044,2.82v4.97Zm19.1-16.56c3.651,3.01,4.949,6.2,4.949,10.07s-1.3,7.06-4.949,10.07l0.572,0.68c4.223-3.08,5.96-6.42,5.96-10.75s-1.737-7.68-5.96-10.76Zm15.245,2.7v2.11c-1.54,0-2.133-.04-2.243-0.04-0.22,0-.242.02-0.242,0.22,0,0.13.044,1.16,0.044,4.75v3.74c0,5.17-.044,6.16-0.044,6.31,0,0.22.022,0.24,0.242,0.24h1.385c0.2,0,.22-0.02.22-0.24v-1.12h5.235v0.72c0,0.22.022,0.25,0.264,0.25h1.341c0.22,0,.242-0.03.242-0.25,0-.13-0.044-1.12-0.044-6.15v-4.1c0-3.01.044-4.02,0.044-4.15,0-.2-0.022-0.22-0.242-0.22-0.154,0-.7.04-2.243,0.04v-2.11H847.1c1.891,0,2.551.04,2.683,0.04,0.22,0,.242-0.02.242-0.24v-1.56c0-.22-0.022-0.24-0.242-0.24-0.132,0-.792.04-2.683,0.04h-4.4c-1.913,0-2.551-.04-2.683-0.04-0.2,0-.22.02-0.22,0.24v1.56c0,0.22.022,0.24,0.22,0.24,0.132,0,.77-0.04,2.683-0.04h0.264Zm2.375,3.85v3.47a1.438,1.438,0,0,0,.33,1.26,1.537,1.537,0,0,0,1.078.24h0.814v1.85h-5.235v-2.07a2.647,2.647,0,0,1,.7.97,0.361,0.361,0,0,0,.264.28,0.293,0.293,0,0,0,.22-0.19,9.8,9.8,0,0,0,.924-3.35c0.066-.72.088-1.65,0.088-2.46h0.813Zm-3.013,10.23v-1.59h5.235v1.59h-5.235Zm0-10.23h0.836c0,0.66,0,1.36-.044,1.89a5.076,5.076,0,0,1-.792,2.62v-4.51Zm5.235,0v3.19h-0.33a0.387,0.387,0,0,1-.418-0.16,1.585,1.585,0,0,1-.066-0.74v-2.29h0.814Zm-3.035-1.74v-2.11h0.813v2.11h-0.813Zm6.334-2.09c0,0.2.022,0.22,0.242,0.22,0.132,0,.66-0.04,2.287-0.04h3.123v4.86h-3.343c-1.319,0-1.957-.04-2.089-0.04-0.242,0-.264.02-0.264,0.26,0,0.13.044,0.92,0.044,2.51v6.84a2.1,2.1,0,0,0,.55,1.76c0.461,0.41,1.341.57,3.431,0.57,2.067,0,3.123-.29,3.7-0.79,0.527-.49.945-1.17,1.077-3.17,0.044-.68.044-0.68-0.637-0.88a4.889,4.889,0,0,1-1.5-.62c-0.088,1.78-.176,2.51-0.506,2.88a2.847,2.847,0,0,1-2.045.44,2.5,2.5,0,0,1-1.65-.28,1.43,1.43,0,0,1-.2-0.99v-6.38h3.431v0.75c0,0.22.022,0.24,0.242,0.24h1.76c0.242,0,.264-0.02.264-0.24,0-.13-0.044-0.79-0.044-2.35v-4.95c0-1.57.044-2.22,0.044-2.36,0-.22-0.022-0.24-0.264-0.24-0.132,0-.682.05-2.31,0.05h-2.815c-1.627,0-2.155-.05-2.287-0.05-0.22,0-.242.02-0.242,0.24v1.76Zm16.743,17.36c0.242,0,.264-0.03.264-0.25v-0.83h8.82v0.72c0,0.22.022,0.25,0.242,0.25H878.8c0.242,0,.264-0.03.264-0.25,0-.11-0.044-0.7-0.044-3.87v-2.15c0-1.56.044-2.2,0.044-2.33,0-.22-0.022-0.25-0.264-0.25-0.132,0-.9.05-3.013,0.05h-7.038c-2.111,0-2.881-.05-3.013-0.05-0.22,0-.242.03-0.242,0.25,0,0.13.044,0.77,0.044,2.66v1.89c0,3.19-.044,3.78-0.044,3.91,0,0.22.022,0.25,0.242,0.25h1.869Zm0.264-6.91h8.82v3.83h-8.82v-3.83Zm-0.044-4.33c0,0.22.022,0.24,0.242,0.24,0.154,0,.726-0.05,2.486-0.05h3.409c1.759,0,2.353.05,2.485,0.05,0.22,0,.242-0.02.242-0.24v-1.54a24.058,24.058,0,0,0,4.289,2.46,1.364,1.364,0,0,0,.528.2c0.176,0,.263-0.16.395-0.57a5.758,5.758,0,0,1,.924-1.67,19.872,19.872,0,0,1-9.391-6.71,0.643,0.643,0,0,1,.176-0.16,0.375,0.375,0,0,0,.22-0.33c0-.19-0.132-0.26-0.4-0.35-0.638-.15-1.452-0.28-2.31-0.42a6.885,6.885,0,0,1-.857,1.57,19.671,19.671,0,0,1-8.468,6.73,5.137,5.137,0,0,1,1.034,1.47,0.69,0.69,0,0,0,.418.55,1.647,1.647,0,0,0,.506-0.22,27.3,27.3,0,0,0,4.068-2.6v1.59Zm2.728-1.85c-1.5,0-2.112-.02-2.376-0.04a21.871,21.871,0,0,0,4-4.16,19.717,19.717,0,0,0,4.047,4.18c-0.308,0-.968.02-2.265,0.02h-3.409Z" transform="translate(-514.938 -2131.06)"/>
  <path id="シェイプ_984" data-name="シェイプ 984" class="cls-2" d="M516.947,2160.77H884.578" transform="translate(-514.938 -2131.06)"/>
</svg>
