<svg id="head-block-04.svg" xmlns="http://www.w3.org/2000/svg" width="424.062" height="35.34" viewBox="0 0 424.062 35.34">
  <defs>
    <style>
      .cls-1 {
        fill: #1e9fe0;
        opacity: 0.2;
      }

      .cls-2, .cls-3 {
        fill-rule: evenodd;
      }

      .cls-3 {
        fill: #1147b4;
      }
    </style>
  </defs>
  <rect id="長方形_978" data-name="長方形 978" class="cls-1" x="241.812" y="25.34" width="182.25" height="10"/>
  <path id="過酷な環境でも強い_" data-name="過酷な環境でも強い！" class="cls-2" d="M501.544,3037.6c-1.369,0-1.768-.05-1.942-0.05-0.249,0-.274.02-0.274,0.3,0,0.15.05,0.57,0.05,1.65v1.62c0,1.05-.05,1.48-0.05,1.65,0,0.25.025,0.28,0.274,0.28,0.174,0,.573-0.05,1.942-0.05h1.917c1.195,0,1.643.05,1.867,0.05a6.565,6.565,0,0,1,.274,1.2c0.074,0.55.1,0.52,0.846,0.52,1.668,0,2.216-.17,2.689-0.57a2.107,2.107,0,0,0,.572-1.75c0-1.03-.05-1.83-0.05-3.93v-1.57c0-1.53.05-2.28,0.05-2.43,0-.25-0.025-0.27-0.274-0.27-0.1,0-.473.02-1.244,0.05v-4.76c0-1.55.049-2.35,0.049-2.5,0-.25-0.025-0.27-0.274-0.27-0.174,0-.9.05-3.012,0.05h-4.7c-2.116,0-2.863-.05-3.012-0.05-0.274,0-.3.02-0.3,0.27,0,0.18.05,0.95,0.05,2.5v4.76c-0.846-.03-1.22-0.05-1.294-0.05-0.274,0-.3.02-0.3,0.27,0,0.15.05,0.9,0.05,2.55v4.65c0,1.9-.05,2.58-0.05,2.75,0,0.25.025,0.28,0.3,0.28h1.941c0.249,0,.274-0.03.274-0.28,0-.15-0.05-0.87-0.05-2.72v-5.53h9.435v5.53a0.583,0.583,0,0,1-.647.72c-0.373,0-.622,0-0.971-0.02-0.025-.28-0.025-0.68-0.025-1.33v-1.62c0-1.08.05-1.5,0.05-1.65,0-.28-0.025-0.3-0.274-0.3-0.174,0-.572.05-1.966,0.05h-1.917Zm4.306-8.71v1.5h-2.489c-1.145,0-1.693-.05-1.867-0.05-0.249,0-.274.03-0.274,0.28,0,0.15.05,0.65,0.05,1.75v1.93h-1.917v-5.41h6.5Zm-2.365,5.41v-2.16h2.365v2.16h-2.365Zm-2.14,5h2.315v1.97h-2.315v-1.97Zm-7.643-1.33c0-1.55.05-2.27,0.05-2.42,0-.25-0.025-0.28-0.274-0.28-0.125,0-.5.05-1.792,0.05h-1.469c-1.295,0-1.618-.05-1.743-0.05-0.274,0-.3.03-0.3,0.28v1.9c0,0.27.025,0.3,0.3,0.3,0.125,0,.448-0.05,1.743-0.05h1.07v5.62a10.431,10.431,0,0,1-1.867,1.53,14.848,14.848,0,0,1-1.493.8c0.348,0.9.622,1.55,0.97,2.25a0.491,0.491,0,0,0,.374.33,0.439,0.439,0,0,0,.348-0.23,1.9,1.9,0,0,1,.548-0.55c0.822-.65,1.668-1.35,2.415-2.05a5.231,5.231,0,0,0,2.589,2.15,16.807,16.807,0,0,0,5.825.75c2.589,0,5.552-.07,8.713-0.25,0.8-.05.8-0.05,0.921-0.85a3.82,3.82,0,0,1,.647-1.8c-3.734.37-7.468,0.5-10.679,0.5a15.587,15.587,0,0,1-4.68-.48,4.093,4.093,0,0,1-2.216-2.05v-5.4Zm0.05-7.03c0.274-.22.3-0.27,0.149-0.5a20.786,20.786,0,0,0-3.137-3.7,0.486,0.486,0,0,0-.248-0.12,0.635,0.635,0,0,0-.3.15l-1.295.92c-0.274.2-.323,0.25-0.124,0.43a18.114,18.114,0,0,1,3.062,3.9,0.341,0.341,0,0,0,.224.2,0.662,0.662,0,0,0,.3-0.18Zm22.52,17.66c0.249,0,.274-0.02.274-0.25v-1.4h5.2v0.93c0,0.25.025,0.27,0.274,0.27h1.494c0.249,0,.273-0.02.273-0.27,0-.15-0.049-1.23-0.049-6.78v-5.08c0-3.25.049-4.38,0.049-4.53,0-.25-0.024-0.27-0.273-0.27-0.175,0-.722.05-2.216,0.05v-2.38c1.967,0,2.639.05,2.763,0.05,0.249,0,.274-0.02.274-0.3v-1.72c0-.28-0.025-0.3-0.274-0.3-0.124,0-.8.05-2.813,0.05h-4.232c-2.016,0-2.688-.05-2.838-0.05-0.224,0-.249.02-0.249,0.3v1.72c0,0.28.025,0.3,0.249,0.3,0.15,0,.822-0.05,2.838-0.05h0.075v2.38c-1.618,0-2.191-.05-2.34-0.05-0.249,0-.274.02-0.274,0.27,0,0.18.05,1.36,0.05,5.38v4.3c0,5.88-.05,7.01-0.05,7.18,0,0.23.025,0.25,0.274,0.25h1.518Zm3.286-15.3v3.92a1.541,1.541,0,0,0,.5,1.4,1.958,1.958,0,0,0,1.145.23h0.548v2.07h-5.2v-2.07a5.757,5.757,0,0,1,.7.85,0.377,0.377,0,0,0,.249.22,0.427,0.427,0,0,0,.3-0.3,8.264,8.264,0,0,0,.921-3.6c0.025-.8.075-1.62,0.1-2.72h0.746Zm-3.012,11.52V3043h5.2v1.82h-5.2Zm0-11.52h0.847c0,0.77-.025,1.45-0.05,1.97a7.361,7.361,0,0,1-.8,3.25v-5.22Zm5.2,0v3.57H521.5a0.43,0.43,0,0,1-.448-0.17,1.935,1.935,0,0,1-.075-0.9v-2.5h0.772Zm-2.937-2.03v-2.38h0.746v2.38h-0.746Zm8.887,17.33c0.249,0,.274-0.02.274-0.25v-1h4.9v0.95c0,0.23.025,0.25,0.3,0.25h1.867c0.249,0,.274-0.02.274-0.25,0-.15-0.05-0.8-0.05-4.15v-2.23c0-1.57.05-2.25,0.05-2.4,0-.25-0.025-0.27-0.274-0.27-0.175,0-.847.05-2.788,0.05H528.62c-1.967,0-2.614-.05-2.788-0.05-0.249,0-.274.02-0.274,0.27,0,0.18.05,0.85,0.05,2.73v1.92c0,3.38-.05,4.01-0.05,4.18,0,0.23.025,0.25,0.274,0.25H527.7Zm0.274-7.03h4.9v3.5h-4.9v-3.5Zm5.178-4.1c2.19,0,2.937.05,3.112,0.05,0.224,0,.248-0.02.248-0.27v-1.83c0-.25-0.024-0.27-0.248-0.27-0.175,0-.922.05-3.112,0.05h-1.419v-3h1.294c1.917,0,2.539.05,2.714,0.05,0.249,0,.274-0.03.274-0.28v-1.75c0-.25-0.025-0.28-0.274-0.28-0.175,0-.8.05-2.714,0.05h-1.294v-0.6a7.649,7.649,0,0,1,.174-2.5,0.973,0.973,0,0,0,.124-0.5c0-.15-0.124-0.25-0.4-0.27-0.821-.1-1.518-0.15-2.489-0.18a22.107,22.107,0,0,1,.174,3.45v0.6H527.8l0.224-.92a2.456,2.456,0,0,1,.324-0.98,0.767,0.767,0,0,0,.149-0.4,0.412,0.412,0,0,0-.373-0.37,19.437,19.437,0,0,0-2.116-.5,12.546,12.546,0,0,1-.2,1.65,14.678,14.678,0,0,1-1.942,4.9,5.394,5.394,0,0,1,1.469.73,1.279,1.279,0,0,0,.523.3,0.808,0.808,0,0,0,.448-0.55c0.249-.53.523-1.08,0.747-1.65h2.265v3H527.8c-2.19,0-2.937-.05-3.086-0.05-0.274,0-.3.02-0.3,0.27v1.83c0,0.25.025,0.27,0.3,0.27,0.149,0,.9-0.05,3.086-0.05h5.353Zm18.613,3.78a12.178,12.178,0,0,0-1.967-.15c-2.813,0-4.605,1.47-4.605,3.65,0,2.15,1.842,3.55,4.58,3.55,2.838,0,4.63-1.15,4.63-3.65a18.531,18.531,0,0,1,3.038,2.1,0.386,0.386,0,0,0,.248.15,0.286,0.286,0,0,0,.225-0.17,16.25,16.25,0,0,0,1.145-2.03,0.338,0.338,0,0,0-.15-0.53,19.256,19.256,0,0,0-4.481-2.32,32.87,32.87,0,0,1-.274-4.25,2.632,2.632,0,0,1,.1-1.03,3.09,3.09,0,0,0,.149-0.52,0.38,0.38,0,0,0-.348-0.4,13.739,13.739,0,0,0-2.714-.48,8.788,8.788,0,0,1,.2,1.78C551.564,3038.12,551.614,3039.65,551.764,3041.25Zm0.049,2.37a2.909,2.909,0,0,1,.025.5c0,1.05-.821,1.78-2.166,1.78-1.418,0-2.116-.4-2.116-1.2,0-.95.971-1.45,2.216-1.45A6.318,6.318,0,0,1,551.813,3043.62Zm-4.057-12.83c0.224-.75.423-1.52,0.6-2.12a2.793,2.793,0,0,1,.4-0.93,0.6,0.6,0,0,0,.224-0.47,0.425,0.425,0,0,0-.4-0.38,23.931,23.931,0,0,0-2.913-.52,9.693,9.693,0,0,1-.149,2.02c-0.174.9-.348,1.75-0.647,2.8-1.145.1-1.892,0.13-2.863,0.13-0.722,0-1.294-.03-2.315-0.1a13.294,13.294,0,0,0,.249,2.13c0.05,0.32.1,0.4,0.348,0.4,0.623,0.02.822,0.02,1.37,0.02,0.771,0,1.543,0,2.489-.05a50.551,50.551,0,0,1-4.307,8.73,0.462,0.462,0,0,0-.124.3,0.342,0.342,0,0,0,.174.27,11.808,11.808,0,0,0,1.718,1.28,0.732,0.732,0,0,0,.3.12,0.351,0.351,0,0,0,.274-0.25,69.379,69.379,0,0,0,4.855-10.72c1.543-.23,2.763-0.4,4.107-0.68a0.261,0.261,0,0,0,.3-0.3,13.84,13.84,0,0,0-.224-2.03c-0.05-.27-0.149-0.27-0.373-0.2A25.631,25.631,0,0,1,547.756,3030.79Zm5.526,2.38a21.657,21.657,0,0,1,5.153,2.73,0.377,0.377,0,0,0,.224.1,0.279,0.279,0,0,0,.224-0.18,14.805,14.805,0,0,0,1.046-1.85,0.569,0.569,0,0,0,.1-0.3,0.366,0.366,0,0,0-.224-0.27,19.434,19.434,0,0,0-4.88-2.36,0.349,0.349,0,0,0-.523.18C554.079,3031.67,553.705,3032.42,553.282,3033.17Zm21.923,3.43c-2.34,0-3.136-.03-3.286-0.03-0.274,0-.3,0-0.3.25,0,0.18.049,0.55,0.049,1.6v1.48c0,1.05-.049,1.42-0.049,1.6,0,0.22.024,0.25,0.3,0.25,0.15,0,.921-0.05,3.187-0.05a20.881,20.881,0,0,1-7.294,4.3,7.35,7.35,0,0,1,1.12,1.35,0.834,0.834,0,0,0,.548.6,1.389,1.389,0,0,0,.572-0.22,20.228,20.228,0,0,0,6.1-4.28c-0.025,3.35-.1,4.68-0.1,5.18,0,0.25.025,0.27,0.274,0.27h1.991c0.224,0,.249-0.02.249-0.27,0-.53-0.075-1.83-0.124-5.26a15.4,15.4,0,0,0,6,4.48,1.677,1.677,0,0,0,.6.2c0.2,0,.273-0.17.473-0.65a8.126,8.126,0,0,1,1.02-1.5,16.176,16.176,0,0,1-3.585-1.38,19.869,19.869,0,0,0,2.067-1.75,2.376,2.376,0,0,1,.523-0.37,0.354,0.354,0,0,0,.273-0.28,0.364,0.364,0,0,0-.2-0.32l-1.444-.83v-2.55c0-1.05.05-1.45,0.05-1.6,0-.25-0.025-0.25-0.274-0.25-0.149,0-.921.03-3.161,0.03h-5.577Zm6.672,3.4h-7.941v-1.58h7.941V3040Zm-1.095,1.7c1.12,0,1.867.02,2.34,0.02a18.7,18.7,0,0,1-1.867,1.78,14.519,14.519,0,0,1-2.042-1.8h1.569Zm-6.1-14.93c-2.341,0-3.187-.05-3.336-0.05-0.249,0-.274.02-0.274,0.27,0,0.18.05,0.58,0.05,1.68v1.75c0,1.1-.05,1.47-0.05,1.62,0,0.28.025,0.31,0.274,0.31,0.149,0,1-.05,3.435-0.05h6.448c2.34,0,3.161.05,3.336,0.05,0.249,0,.273-0.03.273-0.31,0-.15-0.049-0.52-0.049-1.62v-1.75c0-1.1.049-1.53,0.049-1.68,0-.25-0.024-0.27-0.273-0.27-0.175,0-1,.05-3.336.05h-6.547Zm8.04,3.75h-1.991v-1.95h1.991v1.95Zm-5.8-1.95h1.967v1.95h-1.967v-1.95Zm-3.734,1.95v-1.95h1.942v1.95h-1.942Zm-5.128,5.65c1.12,0.03,1.493.05,1.643,0.05,0.249,0,.274-0.02.274-0.27v-1.8c0-.18-0.025-0.25-0.274-0.25-0.15,0-.523.05-1.643,0.05v-4.36c1.419,0,1.867.05,2.016,0.05,0.249,0,.274-0.02.274-0.3v-1.75c0-.25-0.025-0.27-0.274-0.27-0.149,0-.6.05-2.166,0.05h-2.24c-1.569,0-2.017-.05-2.166-0.05-0.249,0-.274.02-0.274,0.27v1.75c0,0.28.025,0.3,0.274,0.3,0.149,0,.6-0.05,2.141-0.05h0.05v4.36c-1.37,0-1.768-.05-1.917-0.05-0.224,0-.249.02-0.249,0.25v1.8c0,0.25.025,0.27,0.249,0.27,0.149,0,.547-0.05,1.917-0.05v5.43l-0.349.12a15.057,15.057,0,0,1-2.39.65c0.224,0.98.374,1.65,0.6,2.33a0.371,0.371,0,0,0,.348.32,0.755,0.755,0,0,0,.4-0.2,2.929,2.929,0,0,1,.771-0.4,41.51,41.51,0,0,0,4.9-2.12c0.7-.38.7-0.38,0.6-1.18a9.118,9.118,0,0,1-.075-1.62c-0.871.45-1.668,0.82-2.439,1.17v-4.5Zm13.916-.7c2.414,0,3.236.05,3.41,0.05,0.249,0,.274-0.02.274-0.27v-1.63c0-.25-0.025-0.27-0.274-0.27-0.174,0-1,.05-3.41.05h-7.718c-2.414,0-3.211-.05-3.36-0.05-0.249,0-.274.02-0.274,0.27v1.63c0,0.25.025,0.27,0.274,0.27,0.149,0,.946-0.05,3.36-0.05h7.718Zm24.362,7.4c2.166,0,2.913.05,3.087,0.05,0.249,0,.274-0.02.274-0.3,0-.15-0.05-0.72-0.05-2.07v-3.05c0-1.35.05-1.93,0.05-2.1,0-.25-0.025-0.28-0.274-0.28-0.174,0-.921.05-3.161,0.05h-5.4c-2.241,0-3.013-.05-3.187-0.05-0.249,0-.274.03-0.274,0.28,0,0.17.05,0.75,0.05,2.1v3.05c0,1.35-.05,1.92-0.05,2.07,0,0.28.025,0.3,0.274,0.3,0.125,0,.672-0.02,2.041-0.05-0.473,2.55-2.414,3.48-6,4.06a4.389,4.389,0,0,1,1.17,1.45c0.249,0.45.324,0.6,0.573,0.6a2.894,2.894,0,0,0,.6-0.1c3.759-.95,5.477-2.63,6.174-6.01H603.9v3.53c0,1.13.323,1.6,0.821,1.8a7.264,7.264,0,0,0,2.913.35c1.618,0,2.44-.17,3.012-0.7,0.573-.5.846-1.2,1-2.75,0.075-.65.075-0.65-0.548-0.85a8.726,8.726,0,0,1-1.643-.68c-0.025,1.65-.075,2.03-0.4,2.33a1.7,1.7,0,0,1-1.27.3,3.406,3.406,0,0,1-1.17-.1,0.68,0.68,0,0,1-.274-0.73v-2.5Zm0.921-1.75h-7.468v-1.3h7.468v1.3Zm-7.468-4.2h7.468v1.28h-7.468v-1.28Zm8.091-2.9c2.439,0,3.261.05,3.385,0.05,0.249,0,.274-0.02.274-0.27v-1.53c0-.25-0.025-0.28-0.274-0.28-0.124,0-.946.05-3.385,0.05h-0.7c0.274-.5.5-1.02,0.771-1.6a0.762,0.762,0,0,1,.3-0.4c1.3,0.03,1.818.05,1.942,0.05,0.249,0,.274-0.02.274-0.27v-1.45c0-.25-0.025-0.28-0.274-0.28-0.149,0-.971.05-3.286,0.05h-2.365v-0.27a2.749,2.749,0,0,1,.124-1.1,0.988,0.988,0,0,0,.15-0.43,0.4,0.4,0,0,0-.4-0.22c-0.771-.08-1.568-0.13-2.439-0.15a8.841,8.841,0,0,1,.174,1.95v0.22h-1.743c-2.34,0-3.136-.05-3.286-0.05-0.273,0-.3.03-0.3,0.28v1.45c0,0.25.025,0.27,0.3,0.27,0.1,0,.573-0.02,1.693-0.05a12.66,12.66,0,0,1,.847,2c-2.141,0-2.963-.05-3.087-0.05-0.224,0-.249.03-0.249,0.28v1.53c0,0.25.025,0.27,0.249,0.27,0.149,0,1-.05,3.41-0.05h7.892Zm-2.266-3.98a13.651,13.651,0,0,1-.8,2h-2.838a16.05,16.05,0,0,0-.747-2h4.381Zm-11.775,4.73c1.17,0.03,1.594.05,1.743,0.05,0.249,0,.274-0.02.274-0.27v-1.9c0-.25-0.025-0.28-0.274-0.28-0.149,0-.573.05-1.743,0.05v-2.28a10.06,10.06,0,0,1,.175-2.8,1.741,1.741,0,0,0,.1-0.5,0.331,0.331,0,0,0-.348-0.27c-0.847-.1-1.618-0.15-2.54-0.18a27.007,27.007,0,0,1,.2,3.8v2.23h-0.1c-1.543,0-2.016-.05-2.166-0.05-0.224,0-.249.03-0.249,0.28v1.9c0,0.25.025,0.27,0.249,0.27,0.15,0,.623-0.05,2.166-0.05h0.1v7.08l-0.349.12a13.656,13.656,0,0,1-2.464.6,19.6,19.6,0,0,0,.7,2.23,0.382,0.382,0,0,0,.348.3,0.74,0.74,0,0,0,.423-0.2,3.248,3.248,0,0,1,.822-0.38,41.515,41.515,0,0,0,4.78-2.02c0.721-.35.746-0.35,0.672-1.18a8.024,8.024,0,0,1,0-1.55c-0.9.48-1.718,0.85-2.515,1.2v-6.2Zm32.628-2.9c-3.012,1.98-4.779,4.38-4.779,7.93,0,5.2,4.8,7.73,9.186,7.73,0.3,0,.4-0.15.473-0.53a8.974,8.974,0,0,0,.274-2.15c0-.28-0.15-0.38-0.548-0.38-4.332-.27-6.622-2.02-6.622-5.25,0-3,2.116-5.92,6.348-7.38a11.259,11.259,0,0,1,3.037-.55c0.324,0,.473-0.07.473-0.37a14.209,14.209,0,0,0-.274-2.2c-0.025-.18-0.149-0.33-0.522-0.28-6.423.85-11.9,1.68-14.962,2.13a35.16,35.16,0,0,1-3.958.42,17.73,17.73,0,0,0,.921,2.71,0.585,0.585,0,0,0,.473.37,1.376,1.376,0,0,0,.548-0.2c0.373-.12.622-0.17,1.568-0.4,2.664-.55,5.327-1.07,8.364-1.65v0.05Zm3.61,3.58a12.366,12.366,0,0,1,2.514,2.9,0.259,0.259,0,0,0,.424.07l1.045-.77a0.254,0.254,0,0,0,.075-0.4,11.414,11.414,0,0,0-2.365-2.68,0.258,0.258,0,0,0-.373-0.05Zm2.29-1.65a11.876,11.876,0,0,1,2.49,2.87,0.255,0.255,0,0,0,.423.08l1-.78a0.29,0.29,0,0,0,.075-0.45,10.5,10.5,0,0,0-2.365-2.57,0.25,0.25,0,0,0-.374-0.05Zm13.934,6.52a37.093,37.093,0,0,0,3.808-.07c0.249,0,.324-0.1.349-0.4a17,17,0,0,0,.124-1.88c0-.22-0.074-0.32-0.4-0.27-1.2.07-2.216,0.1-3.535,0.07,0.149-1,.4-2.7.548-3.57a24.452,24.452,0,0,0,3.311-.13c0.3-.02.4-0.1,0.4-0.37a11.75,11.75,0,0,0,.05-1.88,0.25,0.25,0,0,0-.249-0.3,14.455,14.455,0,0,1-3.062.15c0.124-.93.274-1.78,0.4-2.35a2.483,2.483,0,0,1,.448-1.08,0.728,0.728,0,0,0,.2-0.47,0.705,0.705,0,0,0-.547-0.58,15.093,15.093,0,0,0-2.988-.7,11.763,11.763,0,0,1,.025,2.1c-0.05.75-.124,1.43-0.323,2.88a20.45,20.45,0,0,1-4.506-.95c0,0.9.05,1.73,0.074,2.33a0.406,0.406,0,0,0,.4.42,16.694,16.694,0,0,0,3.585.7c-0.1,1.03-.3,2.65-0.424,3.58a15.533,15.533,0,0,1-4.033-.98,14.746,14.746,0,0,0,.05,2.33,0.424,0.424,0,0,0,.274.47,19.078,19.078,0,0,0,3.386.75c-0.1,1.13-.175,1.83-0.175,2.35,0,3.65,1.868,5.66,6.274,5.66,4.282,0,7.169-2.31,7.169-5.86a6.526,6.526,0,0,0-2.116-4.7,0.581,0.581,0,0,0-.522-0.1,7.773,7.773,0,0,1-2.54.15c1.892,2,2.241,3.15,2.241,4.55,0,2.25-1.618,3.38-4.531,3.38-2.315,0-3.311-.9-3.311-3.2A15.518,15.518,0,0,1,646.3,3040.32Zm33.45,4.1-2.689.38v-2.78h1.693c2.24,0,3.037.05,3.186,0.05,0.249,0,.274-0.02.274-0.27,0-.15-0.05-0.7-0.05-2v-2.65c0-1.3.05-1.85,0.05-2,0-.25-0.025-0.28-0.274-0.28-0.149,0-.946.05-3.186,0.05h-1.693v-2.32c1.22-.1,2.365-0.23,3.386-0.35,0.273,0.45.522,0.9,0.771,1.35a0.279,0.279,0,0,0,.224.22,0.765,0.765,0,0,0,.3-0.15l1.494-.9c0.3-.2.274-0.27,0.149-0.5a35.485,35.485,0,0,0-3.958-4.8c-0.174-.18-0.249-0.18-0.5-0.03l-1.245.73c-0.274.15-.3,0.22-0.124,0.4a21.714,21.714,0,0,1,1.518,1.77c-1.543.13-3.385,0.28-5.227,0.35,0.547-.95,1.12-2.05,1.518-2.87a1.977,1.977,0,0,1,.473-0.7,0.615,0.615,0,0,0,.249-0.45,0.449,0.449,0,0,0-.373-0.38,18.26,18.26,0,0,0-2.415-.45,6.745,6.745,0,0,1-.473,1.7,22.717,22.717,0,0,1-1.544,3.23c-0.622,0-1.319.02-1.966-.03,0.074,0.73.2,1.56,0.323,2.23a0.4,0.4,0,0,0,.349.4,0.721,0.721,0,0,0,.4-0.12,2.213,2.213,0,0,1,.921-0.2c1.071-.05,2.216-0.13,3.411-0.23v2.1h-1.444c-2.216,0-3.012-.05-3.186-0.05-0.249,0-.274.03-0.274,0.28,0,0.17.049,0.7,0.049,2v2.65c0,1.3-.049,1.82-0.049,2,0,0.25.025,0.27,0.274,0.27,0.174,0,.97-0.05,3.186-0.05h1.444v3.08c-1.145.15-2.241,0.25-3.137,0.3a23.52,23.52,0,0,1-2.888.05c0.15,0.82.3,1.68,0.523,2.45a0.44,0.44,0,0,0,.423.4,1.183,1.183,0,0,0,.449-0.12,3.619,3.619,0,0,1,1.045-.28c3.037-.37,6.5-0.87,9.709-1.48,0.274,0.58.5,1.16,0.722,1.73,0.1,0.25.2,0.28,0.5,0.18l1.419-.65c0.274-.13.3-0.2,0.224-0.43a22.914,22.914,0,0,0-2.664-4.7c-0.124-.23-0.174-0.28-0.448-0.15l-1.27.55c-0.3.12-.348,0.2-0.224,0.4Zm0.074-4.47h-2.763V3037h2.763v2.95Zm-7.642,0V3037h2.539v2.95h-2.539Zm-8.216-2.48c0.125-.9.249-1.87,0.349-2.92h2.191c1.145,0,1.568.05,1.717,0.05,0.274,0,.3-0.03.3-0.28,0-.15-0.05-0.82-0.05-2.25v-2.58c0-1.45.05-2.1,0.05-2.25,0-.27-0.025-0.3-0.3-0.3-0.149,0-.572.05-1.717,0.05h-2.739c-1.543,0-1.991-.05-2.141-0.05-0.273,0-.3.03-0.3,0.3v1.8c0,0.25.025,0.28,0.3,0.28,0.15,0,.6-0.05,2.141-0.05h2.39v3.15H663.97c-0.921,0-1.493-.05-1.643-0.05a0.268,0.268,0,0,0-.323.33,10.49,10.49,0,0,1-.075,1.77,47.078,47.078,0,0,1-.9,5.78c-0.075.35-.075,0.37,1.07,0.52,1.3,0.15,1.3.15,1.37-.15l0.174-.92h2.39c-0.224,3.87-.623,5.5-0.971,5.95a1.4,1.4,0,0,1-1.12.37,13.927,13.927,0,0,1-2.191-.22,7.748,7.748,0,0,1,.572,1.85c0.15,0.78.15,0.78,0.673,0.83,0.448,0.02.871,0.02,1.2,0.02,1.842,0,2.713-.52,3.161-1.65,0.4-.98.847-3,1.071-7.35,0.024-.55.049-1.25,0.1-1.75a0.248,0.248,0,0,0-.3-0.33c-0.149,0-.448.05-1.593,0.05H663.97Zm23.617-8.03a13.47,13.47,0,0,1,.3,3.28,45.654,45.654,0,0,0,.6,7.28c0.672,4.22,2.714,6.52,4.655,6.52,1.743,0,3.286-1.35,4.232-3.9a0.758,0.758,0,0,0-.174-0.92,9.6,9.6,0,0,1-1.593-1.93c-0.971,2.6-1.593,3.48-2.39,3.48-1.046,0-1.693-1.7-2.041-3.68a31.551,31.551,0,0,1-.448-5.7,11.291,11.291,0,0,1,.224-2.45,2.2,2.2,0,0,0,.2-0.7,0.58,0.58,0,0,0-.4-0.45A10.566,10.566,0,0,0,687.587,3029.44Zm12.746,3.56a16.869,16.869,0,0,1,4.655,8.72,0.337,0.337,0,0,0,.523.28,8.87,8.87,0,0,0,1.942-1,0.442,0.442,0,0,0,.273-0.55,16.569,16.569,0,0,0-4.879-8.56,0.381,0.381,0,0,0-.274-0.15,0.744,0.744,0,0,0-.274.1C701.9,3032.04,701.279,3032.4,700.333,3033Zm17.494-5.98h-3.884l0.7,14.88h2.514Zm-3.734,17.3v3.38h3.535v-3.38h-3.535Z" transform="translate(-487.938 -3018.66)"/>
  <path id="高耐久技術" class="cls-3" d="M764.1,3039.76c0-2.54.069-3.76,0.069-3.97,0-.34-0.035-0.38-0.381-0.38-0.243,0-1.386.07-4.677,0.07H741.164c-3.291,0-4.435-.07-4.677-0.07-0.347,0-.381.04-0.381,0.38,0,0.21.069,1.26,0.069,3.69v6.76c0,2.68-.069,3.72-0.069,3.93,0,0.35.034,0.38,0.381,0.38h2.979c0.347,0,.382-0.03.382-0.38,0-.17-0.07-1.36-0.07-3.93v-7.8H760.5v7.62a0.8,0.8,0,0,1-.867.98,20.319,20.319,0,0,1-2.217-.14,8.122,8.122,0,0,1,.728,2.29c0.173,1.01.208,1.08,1.282,1.08,2.494,0,3.291-.17,3.915-0.73a3.19,3.19,0,0,0,.831-2.5c0-1.08-.069-2.54-0.069-4.42v-2.86Zm-18.12-13.29c-3.153,0-4.262-.07-4.469-0.07-0.347,0-.382.03-0.382,0.38,0,0.24.07,0.77,0.07,2.26v2.13c0,1.42-.07,1.98-0.07,2.19,0,0.35.035,0.38,0.382,0.38,0.207,0,1.316-.07,4.469-0.07h8.35c3.152,0,4.261.07,4.469,0.07,0.346,0,.381-0.03.381-0.38,0-.21-0.069-0.77-0.069-2.19v-2.13c0-1.49.069-2.02,0.069-2.26,0-.35-0.035-0.38-0.381-0.38-0.208,0-1.317.07-4.469,0.07h-8.35Zm9.735,4.77H744.559v-2.3h11.156v2.3Zm4.886-6.48c3.118,0,4.192.07,4.4,0.07,0.346,0,.381-0.03.381-0.38v-2.44c0-.35-0.035-0.38-0.381-0.38-0.208,0-1.282.07-4.4,0.07h-8.87v-0.11a6.906,6.906,0,0,1,.139-1.67,2.029,2.029,0,0,0,.242-0.69,0.5,0.5,0,0,0-.554-0.35c-1.178-.1-2.391-0.17-3.673-0.17a11.91,11.91,0,0,1,.243,2.88v0.11h-8.419c-3.118,0-4.192-.07-4.4-0.07-0.347,0-.381.03-0.381,0.38v2.44c0,0.35.034,0.38,0.381,0.38,0.208,0,1.282-.07,4.4-0.07H760.6Zm-14.483,23.46c0.347,0,.382-0.03.382-0.38v-0.94h7.033v0.73c0,0.35.034,0.38,0.416,0.38h2.563c0.347,0,.381-0.03.381-0.38,0-.21-0.069-0.77-0.069-3.9v-1.53c0-1.01.069-1.64,0.069-1.85,0-.34-0.034-0.38-0.381-0.38-0.242,0-1.143.07-3.741,0.07h-5.4c-2.633,0-3.534-.07-3.742-0.07-0.347,0-.381.04-0.381,0.38,0,0.21.069,0.87,0.069,2.2v1.28c0,3.21-.069,3.76-0.069,4.01,0,0.35.034,0.38,0.381,0.38h2.494Zm0.382-5.85h7.033v2.23H746.5v-2.23Zm31.349-18.83a21.531,21.531,0,0,1-1.386,4.15h-0.277c-3.049,0-4.088-.07-4.331-0.07-0.346,0-.381.03-0.381,0.38,0,0.24.07,1.7,0.07,4.94v12.29c0,3.2-.07,4.63-0.07,4.87,0,0.31.035,0.35,0.381,0.35h2.564c0.312,0,.347-0.04.347-0.35,0-.21-0.07-1.67-0.07-4.66v-14.69h1.594v12.49c0,2.75-.069,4.18-0.069,4.42,0,0.35.034,0.39,0.381,0.39h1.871c0.381,0,.416-0.04.416-0.39,0-.21-0.07-1.67-0.07-4.42v-12.49h1.594v12.42c0,2.75-.069,4.18-0.069,4.42,0,0.35.034,0.39,0.381,0.39H782.7a7.039,7.039,0,0,1,.346,1.53c0.1,0.8.243,0.83,1.213,0.8,1.628-.07,2.321-0.25,2.737-0.59a2.557,2.557,0,0,0,.866-2.2c0-1.49-.069-3.23-0.069-6.05v-8.32c0-3.27.138-4.94,0.138-5.15,0-.35-0.034-0.38-0.416-0.38-0.207,0-1.247.07-4.3,0.07h-3.291a32.284,32.284,0,0,0,1.49-4.15h2.494c3.188,0,4.262.07,4.435,0.07,0.346,0,.381-0.03.381-0.38v-2.54c0-.35-0.035-0.38-0.381-0.38-0.173,0-1.247.07-4.435,0.07h-8.523c-3.152,0-4.261-.07-4.434-0.07-0.347,0-.381.03-0.381,0.38v2.54c0,0.35.034,0.38,0.381,0.38,0.173,0,1.282-.07,4.434-0.07h2.46Zm5.128,23.53c0-.66-0.035-1.95-0.035-3.9v-12.42h1.663v15.35a0.823,0.823,0,0,1-.97.97h-0.658Zm16.284-17.68c1.974,0.04,2.7.07,2.875,0.07,0.381,0,.416-0.03.416-0.38v-2.86c0-.31-0.035-0.34-0.416-0.34-0.173,0-.9.06-2.875,0.06v-2.22c0-2.33,0-3.1.207-3.52a1.631,1.631,0,0,0,.208-0.73,0.516,0.516,0,0,0-.554-0.35c-1.213-.14-2.391-0.21-3.673-0.24a32.046,32.046,0,0,1,.278,4.91v2.15H793.2c-2.841,0-3.776-.06-3.984-0.06-0.346,0-.381.03-0.381,0.34v2.86c0,0.35.035,0.38,0.381,0.38,0.208,0,1.143-.07,3.984-0.07h2.53v16.36c0,0.83-.347,1.11-1.282,1.11-1.04,0-2.287-.03-3.534-0.14a8.259,8.259,0,0,1,.8,2.68c0.208,0.94.208,0.94,1.282,0.91,3.291,0,4.538-.21,5.266-0.77,0.866-.73,1.074-1.49,1.074-3.27,0-1.95-.069-4.59-0.069-7.03v-9.85Zm-10.221,4.11c-0.381.17-.45,0.28-0.277,0.59a27.207,27.207,0,0,1,2.737,6.75c0.069,0.38.173,0.42,0.589,0.21l2.148-1.08c0.381-.17.485-0.28,0.381-0.63a25.083,25.083,0,0,0-2.876-6.54c-0.173-.31-0.312-0.31-0.658-0.17Zm34.641-5.64a31.763,31.763,0,0,1-6.445,11.69,29.8,29.8,0,0,1-10.879,7.73,8.478,8.478,0,0,1,1.871,2.26,1.028,1.028,0,0,0,.728.8,2.257,2.257,0,0,0,.8-0.28,31.979,31.979,0,0,0,10.22-7.86,33.9,33.9,0,0,0,5.024-7.66,33.834,33.834,0,0,0,2.391,6.16,29.057,29.057,0,0,0,6.34,8.77,1.614,1.614,0,0,0,.8.56,1.552,1.552,0,0,0,.727-0.63,12.057,12.057,0,0,1,2.564-2.15,30.024,30.024,0,0,1-7.1-8.36,30.908,30.908,0,0,1-3.638-9.15c0.138-.38.312-0.87,0.45-1.29a3.027,3.027,0,0,1,.693-1.15,0.914,0.914,0,0,0,.381-0.76c0-.25-0.173-0.53-1.143-1.4-0.9-.83-1.213-1-1.49-1a1.521,1.521,0,0,0-.727.2,1.613,1.613,0,0,1-.763.11h-5.785l0.8-1.92a3.757,3.757,0,0,1,.763-1.35,1.251,1.251,0,0,0,.415-0.77,0.6,0.6,0,0,0-.554-0.56,28.383,28.383,0,0,0-3.672-.83,13.218,13.218,0,0,1-.936,3.34,27.2,27.2,0,0,1-8.731,11.73,8.714,8.714,0,0,1,2.148,1.91,1.257,1.257,0,0,0,.763.66,1.47,1.47,0,0,0,.727-0.48,34.486,34.486,0,0,0,6.583-8.32h6.687Zm36.65-.8v4.42h-2.252c-3.153,0-4.227-.07-4.435-0.07-0.346,0-.381.03-0.381,0.38v2.44c0,0.38.035,0.42,0.381,0.42,0.1,0,.555-0.04,1.525-0.04a23.656,23.656,0,0,0,4.469,8.46,26.4,26.4,0,0,1-9.424,4.31,9.682,9.682,0,0,1,1.559,2.27c0.278,0.62.347,0.87,0.659,0.87a2.645,2.645,0,0,0,.8-0.21,29.247,29.247,0,0,0,8.938-4.7,27.442,27.442,0,0,0,8,4.56,2.56,2.56,0,0,0,.831.21c0.312,0,.381-0.25.658-0.91a13.894,13.894,0,0,1,1.421-2.57,22.932,22.932,0,0,1-8.177-3.8,27.361,27.361,0,0,0,4.92-7.72,3.538,3.538,0,0,1,.8-1.4,0.823,0.823,0,0,0,.312-0.62c0-.25-0.139-0.49-0.97-1.29a2.127,2.127,0,0,0-1.282-.87,1.275,1.275,0,0,0-.485.14,1.254,1.254,0,0,1-.693.14h-3.638v-4.42h3.568c3.292,0,4.435.07,4.643,0.07,0.381,0,.381-0.04.381-0.38v-2.61c0-.39,0-0.42-0.381-0.42-0.208,0-1.351.07-4.643,0.07h-3.568v-0.8a10.409,10.409,0,0,1,.208-2.68,2.8,2.8,0,0,0,.242-0.87,0.483,0.483,0,0,0-.519-0.39c-1.178-.14-2.426-0.21-3.708-0.24a23.629,23.629,0,0,1,.243,4.25v0.73h-2.564c-3.291,0-4.435-.07-4.677-0.07-0.346,0-.381.03-0.381,0.42v2.61c0,0.34.035,0.38,0.381,0.38,0.242,0,1.386-.07,4.677-0.07h2.564Zm5.925,7.52a19.115,19.115,0,0,1-3.95,6.16,18.17,18.17,0,0,1-3.638-6.16h7.588Zm-17.358,2.89,2.252-.94c0.97-.42,1-0.35.97-1.5a21.644,21.644,0,0,1,.138-2.3,28.327,28.327,0,0,1-3.36,1.39v-5.43c1.836,0.04,2.494.07,2.7,0.07,0.312,0,.347-0.03.347-0.38v-2.61c0-.38-0.035-0.42-0.347-0.42-0.208,0-.866.07-2.7,0.07v-1.74c0-2.36,0-3.1.208-3.51a1.84,1.84,0,0,0,.208-0.73,0.5,0.5,0,0,0-.555-0.35c-1.143-.14-2.321-0.21-3.638-0.25a28.575,28.575,0,0,1,.278,4.91v1.67H844.81c-2.356,0-3.084-.07-3.257-0.07-0.381,0-.416.04-0.416,0.42v2.61c0,0.35.035,0.38,0.416,0.38,0.173,0,.9-0.07,3.257-0.07H845.4v6.55l-1.213.35a18.359,18.359,0,0,1-3.257.62,32.821,32.821,0,0,0,.624,3.38,0.421,0.421,0,0,0,.416.42,1.4,1.4,0,0,0,.589-0.21,3.857,3.857,0,0,1,1.108-.52l1.733-.53v6.72c0,0.94-.312,1.32-1.075,1.32a17.5,17.5,0,0,1-2.633-.14,9.624,9.624,0,0,1,.936,2.68c0.242,1.05.242,1.05,1.316,1.05,2.322,0,3.119-.14,3.881-0.7,0.9-.69,1.108-1.56,1.108-3.34,0-1.74-.034-4.59-0.034-7.06v-1.81Zm42.436-11.35h-0.52c-2.668,0-3.5-.07-3.707-0.07-0.346,0-.381.03-0.381,0.38v2.16a1.222,1.222,0,0,0-.45-0.49,23.313,23.313,0,0,0-2.564-1.67,16.256,16.256,0,0,1-.832,1.85,25.192,25.192,0,0,1-5.994,7.24,9.19,9.19,0,0,1,1,2.61c0.1,0.45.208,0.66,0.381,0.66a1.158,1.158,0,0,0,.624-0.35c0.589-.49,1.143-1.04,1.7-1.6-0.035,1.32-.07,2.82-0.07,3.93v5.12c0,2.78-.069,4.07-0.069,4.28,0,0.35.035,0.38,0.381,0.38h2.772c0.346,0,.381-0.03.381-0.38,0-.17-0.069-1.5-0.069-4.28v-12.98c0.554-.8,1.074-1.61,1.524-2.41a3.284,3.284,0,0,1,.935-1.18,0.9,0.9,0,0,0,.347-0.28c0,0.35.035,0.39,0.381,0.39,0.208,0,1.039-.07,3.707-0.07h0.52v14.54c0,3.97-.069,5.99-0.069,6.2,0,0.35.034,0.38,0.346,0.38h2.841c0.347,0,.347-0.03.347-0.38,0-.21-0.035-2.23-0.035-6.2v-14.54h0.52c2.667,0,3.464.07,3.672,0.07a0.765,0.765,0,0,0,.347-0.04v2.19c0,0.39.034,0.42,0.415,0.42,0.208,0,.832-0.07,2.945-0.07h0.243v13.51c0,1.07-.243,1.35-1.248,1.35a22.725,22.725,0,0,1-2.91-.21,8.984,8.984,0,0,1,.693,2.48c0.173,1.11.173,1.11,1.247,1.11,2.6,0,3.777-.11,4.539-0.7,0.9-.66,1.143-1.84,1.143-3.41,0-1.42-.069-3.13-0.069-6.82v-7.31c1.836,0,2.391.07,2.6,0.07,0.347,0,.382-0.03.382-0.42v-2.61c0-.35-0.035-0.38-0.382-0.38-0.207,0-.8.07-2.944,0.07h-3.292c-2.113,0-2.737-.07-2.945-0.07a0.382,0.382,0,0,0-.346.07v-2.23c0-.35-0.035-0.38-0.416-0.38-0.208,0-1,.07-3.672.07h-0.52v-2.54a12.277,12.277,0,0,1,.173-3.24,1.937,1.937,0,0,0,.208-0.73,0.507,0.507,0,0,0-.52-0.38,34.856,34.856,0,0,0-3.568-.21,23.584,23.584,0,0,1,.277,4.56v2.54Zm-6.583,18.31a8.9,8.9,0,0,1,2.217.66,2.646,2.646,0,0,0,.693.24c0.243,0,.347-0.21.485-0.66a38.779,38.779,0,0,0,1.8-9.08,2.676,2.676,0,0,1,.312-1.33,0.869,0.869,0,0,0,.242-0.52,0.573,0.573,0,0,0-.589-0.52c-0.97-.17-1.974-0.31-3.048-0.42a16.743,16.743,0,0,1-.035,2.65A34.359,34.359,0,0,1,884.751,3044.43Zm-1.178-25.76a7.392,7.392,0,0,1-.935,1.6,21.228,21.228,0,0,1-5.648,5.26,6.83,6.83,0,0,1,1.352,2.4c0.173,0.56.311,0.8,0.519,0.8a1.857,1.857,0,0,0,.8-0.42,32.065,32.065,0,0,0,5.855-5.88,3.066,3.066,0,0,1,1.04-1.01,0.506,0.506,0,0,0,.346-0.45,0.85,0.85,0,0,0-.485-0.66A17.979,17.979,0,0,0,883.573,3018.67Zm12.473,14.51c-0.416.14-.485,0.25-0.381,0.6a51.462,51.462,0,0,1,1.767,9.5c0.034,0.35.138,0.35,0.623,0.17l1.975-.69c0.416-.14.45-0.25,0.416-0.6a47.878,47.878,0,0,0-1.975-9.29c-0.139-.35-0.208-0.38-0.554-0.24Zm7.31-12.14c-1.94,0-2.494-.07-2.7-0.07-0.347,0-.381.03-0.381,0.38V3024c0,0.34.034,0.38,0.381,0.38,0.208,0,.762-0.07,2.7-0.07h2.321c1.941,0,2.5.07,2.7,0.07,0.312,0,.346-0.04.346-0.38v-2.65c0-.35-0.034-0.38-0.346-0.38-0.208,0-.762.07-2.7,0.07h-2.321Zm-7.83-.11c-0.381.25-.381,0.39-0.173,0.63a18.589,18.589,0,0,1,2.044,3.31,0.413,0.413,0,0,0,.277.27,0.942,0.942,0,0,0,.416-0.2l1.42-.98c0.347-.21.416-0.35,0.243-0.66a25.1,25.1,0,0,0-2.114-3.2c-0.207-.25-0.311-0.25-0.658-0.04Z" transform="translate(-487.938 -3018.66)"/>
</svg>
