<svg id="head-block-04_sp.svg" xmlns="http://www.w3.org/2000/svg" width="311.469" height="101.72" viewBox="0 0 311.469 101.72">
  <defs>
    <style>
      .cls-1 {
        fill: #1e9fe0;
        opacity: 0.2;
      }

      .cls-2 {
        fill: #1147b4;
      }

      .cls-2, .cls-3 {
        fill-rule: evenodd;
      }
    </style>
  </defs>
  <rect id="長方形_978" data-name="長方形 978" class="cls-1" x="25.531" y="88.72" width="258" height="13"/>
  <path id="高耐久技術" class="cls-2" d="M236.852,4201.64c0-3.59.1-5.31,0.1-5.6,0-.5-0.049-0.54-0.543-0.54-0.346,0-1.976.09-6.669,0.09H204.15c-4.693,0-6.323-.09-6.669-0.09-0.494,0-.543.04-0.543,0.54,0,0.29.1,1.77,0.1,5.21v9.54c0,3.79-.1,5.27-0.1,5.56,0,0.49.049,0.54,0.543,0.54h4.248c0.494,0,.544-0.05.544-0.54,0-.25-0.1-1.92-0.1-5.56v-11.02h29.54v10.78a1.123,1.123,0,0,1-1.235,1.37,29.251,29.251,0,0,1-3.161-.19,11.341,11.341,0,0,1,1.037,3.24c0.247,1.43.3,1.53,1.828,1.53,3.556,0,4.693-.25,5.582-1.03a4.537,4.537,0,0,0,1.185-3.55c0-1.52-.1-3.59-0.1-6.24v-4.04Zm-25.836-18.79c-4.5,0-6.076-.09-6.372-0.09-0.494,0-.544.05-0.544,0.54,0,0.34.1,1.08,0.1,3.19v3c0,2.02-.1,2.81-0.1,3.1,0,0.5.05,0.54,0.544,0.54,0.3,0,1.877-.09,6.372-0.09h11.905c4.5,0,6.076.09,6.373,0.09,0.494,0,.543-0.04.543-0.54,0-.29-0.1-1.08-0.1-3.1v-3c0-2.11.1-2.85,0.1-3.19,0-.49-0.049-0.54-0.543-0.54-0.3,0-1.878.09-6.373,0.09h-11.9Zm13.881,6.74H208.991v-3.24H224.9v3.24Zm6.965-9.15c4.446,0,5.978.1,6.274,0.1,0.494,0,.543-0.05.543-0.54v-3.44c0-.49-0.049-0.54-0.543-0.54-0.3,0-1.828.1-6.274,0.1H219.216v-0.15a9.676,9.676,0,0,1,.2-2.36,2.985,2.985,0,0,0,.346-0.99,0.728,0.728,0,0,0-.791-0.49c-1.679-.15-3.408-0.24-5.236-0.24a16.744,16.744,0,0,1,.346,4.08v0.15h-12c-4.446,0-5.977-.1-6.273-0.1-0.494,0-.544.05-0.544,0.54V4180c0,0.49.05,0.54,0.544,0.54,0.3,0,1.827-.1,6.273-0.1h29.787Zm-20.648,33.16c0.494,0,.543-0.05.543-0.55v-1.32h10.028v1.03c0,0.49.049,0.54,0.593,0.54h3.655c0.494,0,.544-0.05.544-0.54,0-.3-0.1-1.08-0.1-5.51v-2.16c0-1.43.1-2.32,0.1-2.61,0-.49-0.05-0.54-0.544-0.54-0.345,0-1.63.1-5.335,0.1h-7.706c-3.754,0-5.038-.1-5.335-0.1-0.494,0-.543.05-0.543,0.54,0,0.29.1,1.23,0.1,3.1v1.82c0,4.52-.1,5.31-0.1,5.65,0,0.5.049,0.55,0.543,0.55h3.557Zm0.543-8.27h10.028v3.15H211.757v-3.15Zm44.72-26.61a30.152,30.152,0,0,1-1.976,5.86h-0.4c-4.347,0-5.829-.1-6.175-0.1-0.494,0-.543.05-0.543,0.54,0,0.34.1,2.41,0.1,6.98v17.37c0,4.52-.1,6.54-0.1,6.88,0,0.44.049,0.49,0.543,0.49h3.656c0.444,0,.494-0.05.494-0.49,0-.29-0.1-2.36-0.1-6.59V4188.9h2.272v17.66c0,3.89-.1,5.9-0.1,6.25,0,0.49.05,0.54,0.544,0.54h2.667c0.544,0,.593-0.05.593-0.54,0-.3-0.1-2.36-0.1-6.25V4188.9h2.273v17.56c0,3.89-.1,5.91-0.1,6.25,0,0.49.049,0.54,0.543,0.54h2.816a10.128,10.128,0,0,1,.494,2.17c0.148,1.13.346,1.18,1.729,1.13,2.322-.1,3.309-0.35,3.9-0.84a3.572,3.572,0,0,0,1.235-3.1c0-2.11-.1-4.57-0.1-8.56V4192.3c0-4.63.2-6.99,0.2-7.28,0-.49-0.049-0.54-0.593-0.54-0.3,0-1.778.1-6.125,0.1h-4.693a45.078,45.078,0,0,0,2.124-5.86h3.557c4.544,0,6.076.1,6.323,0.1,0.494,0,.543-0.05.543-0.54v-3.59c0-.49-0.049-0.54-0.543-0.54-0.247,0-1.779.1-6.323,0.1H252.97c-4.5,0-6.076-.1-6.323-0.1-0.494,0-.544.05-0.544,0.54v3.59c0,0.49.05,0.54,0.544,0.54,0.247,0,1.828-.1,6.323-0.1h3.507Zm7.311,33.25c0-.93-0.049-2.75-0.049-5.51V4188.9h2.371v21.7a1.168,1.168,0,0,1-1.383,1.37h-0.939Zm23.217-24.98c2.816,0.05,3.853.09,4.1,0.09,0.544,0,.593-0.04.593-0.54v-4.03c0-.44-0.049-0.49-0.593-0.49-0.247,0-1.284.1-4.1,0.1v-3.15c0-3.3,0-4.38.3-4.97a2.282,2.282,0,0,0,.3-1.03,0.717,0.717,0,0,0-.79-0.49c-1.729-.2-3.409-0.3-5.237-0.35a44.875,44.875,0,0,1,.4,6.94v3.05h-3.606c-4.051,0-5.385-.1-5.681-0.1-0.494,0-.544.05-0.544,0.49v4.03c0,0.5.05,0.54,0.544,0.54,0.3,0,1.63-.09,5.681-0.09h3.606v23.11c0,1.18-.494,1.58-1.828,1.58-1.482,0-3.26-.05-5.039-0.2a11.488,11.488,0,0,1,1.136,3.79c0.3,1.33.3,1.33,1.828,1.28,4.693,0,6.471-.3,7.509-1.08,1.235-1.04,1.531-2.12,1.531-4.63,0-2.75-.1-6.49-0.1-9.93v-13.92Zm-14.572,5.8c-0.544.25-.642,0.39-0.395,0.84a38.093,38.093,0,0,1,3.9,9.54c0.1,0.54.247,0.59,0.84,0.29l3.063-1.52c0.543-.25.691-0.39,0.543-0.89a35,35,0,0,0-4.1-9.24c-0.247-.45-0.445-0.45-0.939-0.25Zm48.424-7.97a44.8,44.8,0,0,1-9.188,16.53,42.623,42.623,0,0,1-15.512,10.92,11.9,11.9,0,0,1,2.668,3.2c0.445,0.83.642,1.13,1.037,1.13a3.376,3.376,0,0,0,1.137-.4,45.554,45.554,0,0,0,14.572-11.11,48.112,48.112,0,0,0,7.163-10.82,47.714,47.714,0,0,0,3.408,8.7,41.163,41.163,0,0,0,9.04,12.4,2.293,2.293,0,0,0,1.136.78,2.184,2.184,0,0,0,1.038-.88,17.317,17.317,0,0,1,3.655-3.05,42.6,42.6,0,0,1-10.126-11.81,43.533,43.533,0,0,1-5.187-12.93c0.2-.54.444-1.23,0.642-1.82a4.2,4.2,0,0,1,.988-1.63,1.284,1.284,0,0,0,.543-1.08c0-.34-0.247-0.74-1.63-1.96-1.284-1.19-1.729-1.43-2.124-1.43a2.3,2.3,0,0,0-1.037.29,2.394,2.394,0,0,1-1.087.15h-8.25l1.136-2.7a5.247,5.247,0,0,1,1.087-1.92,1.733,1.733,0,0,0,.593-1.08,0.836,0.836,0,0,0-.79-0.79,39.268,39.268,0,0,0-5.237-1.18,18.443,18.443,0,0,1-1.333,4.72,38.432,38.432,0,0,1-12.449,16.58,12.2,12.2,0,0,1,3.063,2.7,1.847,1.847,0,0,0,1.087.94,2.138,2.138,0,0,0,1.037-.69,48.722,48.722,0,0,0,9.386-11.76h9.534Zm52.277-1.13v6.25h-3.211c-4.5,0-6.027-.1-6.323-0.1-0.494,0-.543.05-0.543,0.54v3.44c0,0.54.049,0.59,0.543,0.59,0.148,0,.79-0.05,2.173-0.05a33.32,33.32,0,0,0,6.373,11.96,38.061,38.061,0,0,1-13.437,6.1,13.5,13.5,0,0,1,2.223,3.19c0.4,0.89.494,1.23,0.939,1.23a3.967,3.967,0,0,0,1.136-.29,41.886,41.886,0,0,0,12.745-6.64,39.059,39.059,0,0,0,11.411,6.44,3.647,3.647,0,0,0,1.185.3c0.445,0,.544-0.35.939-1.28a19.333,19.333,0,0,1,2.025-3.64,33.111,33.111,0,0,1-11.658-5.36,38.818,38.818,0,0,0,7.015-10.92,4.9,4.9,0,0,1,1.136-1.97,1.2,1.2,0,0,0,.445-0.89c0-.34-0.2-0.69-1.383-1.82-1.038-1.03-1.482-1.23-1.828-1.23a1.817,1.817,0,0,0-.692.2,1.721,1.721,0,0,1-.988.2h-5.187v-6.25h5.088c4.693,0,6.323.1,6.62,0.1,0.543,0,.543-0.05.543-0.54v-3.69c0-.54,0-0.59-0.543-0.59-0.3,0-1.927.1-6.62,0.1h-5.088v-1.13a14.713,14.713,0,0,1,.3-3.79,3.844,3.844,0,0,0,.346-1.23,0.679,0.679,0,0,0-.741-0.54c-1.68-.2-3.458-0.3-5.286-0.35a33.2,33.2,0,0,1,.346,6v1.04h-3.656c-4.693,0-6.323-.1-6.668-0.1-0.494,0-.544.05-0.544,0.59v3.69c0,0.49.05,0.54,0.544,0.54,0.345,0,1.975-.1,6.668-0.1h3.656Zm8.447,10.62a26.944,26.944,0,0,1-5.632,8.71,25.51,25.51,0,0,1-5.186-8.71h10.818Zm-24.749,4.09,3.211-1.33c1.383-.59,1.433-0.49,1.383-2.12a29.874,29.874,0,0,1,.2-3.24,41.976,41.976,0,0,1-4.792,1.97V4186c2.618,0.05,3.557.1,3.853,0.1,0.445,0,.494-0.05.494-0.54v-3.69c0-.54-0.049-0.59-0.494-0.59-0.3,0-1.235.1-3.853,0.1v-2.46c0-3.35,0-4.38.3-4.97a2.482,2.482,0,0,0,.3-1.03,0.717,0.717,0,0,0-.79-0.49c-1.63-.2-3.31-0.3-5.187-0.35a40.127,40.127,0,0,1,.4,6.94v2.36H351c-3.359,0-4.4-.1-4.643-0.1-0.544,0-.593.05-0.593,0.59v3.69c0,0.49.049,0.54,0.593,0.54,0.247,0,1.284-.1,4.643-0.1h0.84v9.25l-1.729.49a27.1,27.1,0,0,1-4.643.89,46.381,46.381,0,0,0,.889,4.77,0.593,0.593,0,0,0,.593.59,1.9,1.9,0,0,0,.839-0.3,6.323,6.323,0,0,1,1.581-.74l2.47-.73v9.49c0,1.33-.445,1.87-1.531,1.87a24.906,24.906,0,0,1-3.755-.2,13.357,13.357,0,0,1,1.334,3.79c0.346,1.48.346,1.48,1.877,1.48,3.31,0,4.446-.2,5.533-0.99,1.284-.98,1.581-2.21,1.581-4.72,0-2.46-.05-6.49-0.05-9.99v-2.55Zm60.528-16.04h-0.741c-3.8,0-4.99-.1-5.286-0.1-0.494,0-.543.05-0.543,0.55v3.04a1.632,1.632,0,0,0-.643-0.68,31.6,31.6,0,0,0-3.655-2.36,21.881,21.881,0,0,1-1.186,2.6,35.509,35.509,0,0,1-8.546,10.23,13.115,13.115,0,0,1,1.433,3.69c0.148,0.64.3,0.94,0.543,0.94a1.606,1.606,0,0,0,.89-0.5,32.123,32.123,0,0,0,2.42-2.26c-0.049,1.87-.1,3.99-0.1,5.56v7.23c0,3.94-.1,5.76-0.1,6.05,0,0.49.05,0.54,0.544,0.54h3.952c0.494,0,.543-0.05.543-0.54,0-.25-0.1-2.11-0.1-6.05v-18.35c0.791-1.13,1.532-2.26,2.174-3.39a4.458,4.458,0,0,1,1.334-1.67,1.438,1.438,0,0,0,.494-0.4c0,0.5.049,0.55,0.543,0.55,0.3,0,1.482-.1,5.286-0.1h0.741v20.56c0,5.6-.1,8.46-0.1,8.75,0,0.49.049,0.54,0.494,0.54h4.05c0.494,0,.494-0.05.494-0.54,0-.29-0.049-3.15-0.049-8.75v-20.56h0.741c3.8,0,4.94.1,5.236,0.1a1.226,1.226,0,0,0,.494-0.05v3.09c0,0.55.05,0.6,0.593,0.6,0.3,0,1.186-.1,4.2-0.1h0.346v19.08c0,1.53-.346,1.92-1.779,1.92a32.326,32.326,0,0,1-4.149-.3,12.647,12.647,0,0,1,.988,3.5c0.247,1.57.247,1.57,1.778,1.57,3.7,0,5.385-.15,6.471-0.98,1.285-.94,1.63-2.61,1.63-4.82,0-2.02-.1-4.43-0.1-9.64v-10.33c2.618,0,3.408.1,3.7,0.1,0.494,0,.543-0.05.543-0.6v-3.68c0-.5-0.049-0.55-0.543-0.55-0.3,0-1.137.1-4.2,0.1h-4.693c-3.013,0-3.9-.1-4.2-0.1a0.547,0.547,0,0,0-.494.1v-3.14c0-.5-0.049-0.55-0.593-0.55-0.3,0-1.432.1-5.236,0.1H422.25v-3.59c0-3.2.049-3.98,0.247-4.57a2.763,2.763,0,0,0,.3-1.04,0.73,0.73,0,0,0-.741-0.54c-1.58-.19-3.21-0.24-5.088-0.29a32.989,32.989,0,0,1,.4,6.44v3.59Zm-9.386,25.87a13.076,13.076,0,0,1,3.161.94,3.712,3.712,0,0,0,.988.34c0.346,0,.494-0.29.692-0.93a54.407,54.407,0,0,0,2.569-12.84,3.721,3.721,0,0,1,.444-1.87,1.241,1.241,0,0,0,.346-0.74,0.8,0.8,0,0,0-.84-0.73c-1.383-.25-2.815-0.45-4.347-0.59a23.123,23.123,0,0,1-.049,3.73A48.149,48.149,0,0,1,407.974,4208.23Zm-1.68-36.39a10.652,10.652,0,0,1-1.333,2.26,30.235,30.235,0,0,1-8.052,7.43,9.623,9.623,0,0,1,1.926,3.39c0.247,0.79.445,1.13,0.741,1.13a2.673,2.673,0,0,0,1.136-.59,45.741,45.741,0,0,0,8.349-8.31,4.417,4.417,0,0,1,1.482-1.43,0.728,0.728,0,0,0,.494-0.64,1.209,1.209,0,0,0-.692-0.93A26.205,26.205,0,0,0,406.294,4171.84Zm17.784,20.51c-0.593.19-.692,0.34-0.544,0.83a72.548,72.548,0,0,1,2.52,13.43c0.049,0.49.2,0.49,0.889,0.25l2.816-.99c0.592-.19.642-0.34,0.592-0.83a67.236,67.236,0,0,0-2.815-13.14c-0.2-.49-0.3-0.54-0.791-0.34Zm10.423-17.17c-2.767,0-3.557-.1-3.853-0.1-0.494,0-.544.05-0.544,0.54v3.74c0,0.49.05,0.54,0.544,0.54,0.3,0,1.086-.1,3.853-0.1h3.309c2.767,0,3.557.1,3.854,0.1,0.444,0,.494-0.05.494-0.54v-3.74c0-.49-0.05-0.54-0.494-0.54-0.3,0-1.087.1-3.854,0.1H434.5Zm-11.164-.15c-0.544.35-.544,0.54-0.247,0.89a26.254,26.254,0,0,1,2.914,4.67,0.6,0.6,0,0,0,.395.4,1.255,1.255,0,0,0,.593-0.3l2.026-1.38c0.494-.29.592-0.49,0.345-0.93a36.459,36.459,0,0,0-3.013-4.53c-0.3-.34-0.445-0.34-0.938-0.05Z" transform="translate(-165.469 -4120.28)"/>
  <path id="過酷な環境でも強い_" data-name="過酷な環境でも強い！" class="cls-3" d="M183.607,4135.79c-1.824,0-2.354-.07-2.586-0.07-0.332,0-.365.03-0.365,0.4,0,0.19.066,0.76,0.066,2.18v2.14c0,1.39-.066,1.95-0.066,2.18,0,0.33.033,0.36,0.365,0.36,0.232,0,.762-0.06,2.586-0.06h2.553c1.591,0,2.188.06,2.486,0.06a8.842,8.842,0,0,1,.365,1.59c0.1,0.72.132,0.69,1.127,0.69,2.221,0,2.951-.23,3.581-0.76a2.753,2.753,0,0,0,.762-2.31c0-1.35-.066-2.41-0.066-5.18v-2.08c0-2.02.066-3.01,0.066-3.2,0-.33-0.033-0.37-0.365-0.37-0.132,0-.629.04-1.657,0.07v-6.27c0-2.05.066-3.11,0.066-3.3,0-.33-0.033-0.37-0.365-0.37-0.232,0-1.193.07-4.011,0.07h-6.266c-2.818,0-3.813-.07-4.012-0.07-0.365,0-.4.04-0.4,0.37,0,0.23.067,1.25,0.067,3.3v6.27c-1.128-.03-1.625-0.07-1.724-0.07-0.365,0-.4.04-0.4,0.37,0,0.19.066,1.18,0.066,3.36v6.14c0,2.51-.066,3.4-0.066,3.63,0,0.33.033,0.37,0.4,0.37H178.4c0.331,0,.364-0.04.364-0.37,0-.19-0.066-1.15-0.066-3.59v-7.3h12.565v7.3a0.775,0.775,0,0,1-.862.95c-0.5,0-.829,0-1.293-0.03-0.033-.36-0.033-0.89-0.033-1.75v-2.14c0-1.42.066-1.99,0.066-2.18,0-.37-0.033-0.4-0.364-0.4-0.232,0-.763.07-2.619,0.07h-2.553Zm5.735-11.49v1.98h-3.315c-1.525,0-2.254-.07-2.487-0.07-0.331,0-.364.04-0.364,0.37,0,0.19.066,0.85,0.066,2.31v2.54h-2.553v-7.13h8.653Zm-3.149,7.13v-2.84h3.149v2.84h-3.149Zm-2.851,6.6h3.083v2.61h-3.083v-2.61Zm-10.179-1.75c0-2.04.067-3,.067-3.2,0-.33-0.034-0.36-0.365-0.36-0.166,0-.663.06-2.387,0.06h-1.956c-1.724,0-2.155-.06-2.321-0.06-0.365,0-.4.03-0.4,0.36v2.51c0,0.36.033,0.39,0.4,0.39,0.166,0,.6-0.06,2.321-0.06h1.425v7.43a14.135,14.135,0,0,1-2.486,2.01,19.115,19.115,0,0,1-1.989,1.06c0.464,1.18.828,2.04,1.293,2.97a0.669,0.669,0,0,0,.5.43,0.577,0.577,0,0,0,.464-0.3,2.662,2.662,0,0,1,.729-0.73c1.095-.86,2.222-1.78,3.216-2.7a6.989,6.989,0,0,0,3.448,2.84,22.576,22.576,0,0,0,7.758.99c3.448,0,7.394-.1,11.6-0.33,1.061-.07,1.061-0.07,1.227-1.13a4.987,4.987,0,0,1,.862-2.37c-4.973.49-9.946,0.66-14.223,0.66a21.165,21.165,0,0,1-6.233-.63,5.463,5.463,0,0,1-2.951-2.71v-7.13Zm0.067-9.27c0.364-.3.4-0.37,0.2-0.66a27.346,27.346,0,0,0-4.178-4.89,0.625,0.625,0,0,0-.331-0.17,0.881,0.881,0,0,0-.4.2l-1.724,1.22c-0.365.27-.431,0.33-0.166,0.57a23.581,23.581,0,0,1,4.078,5.15,0.44,0.44,0,0,0,.3.26,0.867,0.867,0,0,0,.4-0.23Zm31.317,23.3c0.332,0,.365-0.03.365-0.33v-1.85h6.929v1.22c0,0.33.033,0.37,0.365,0.37H214.2c0.332,0,.365-0.04.365-0.37,0-.19-0.066-1.61-0.066-8.94v-6.7c0-4.29.066-5.78,0.066-5.98,0-.33-0.033-0.36-0.365-0.36-0.232,0-.961.06-2.95,0.06v-3.13c2.619,0,3.514.06,3.68,0.06,0.331,0,.364-0.03.364-0.39v-2.28c0-.36-0.033-0.4-0.364-0.4-0.166,0-1.061.07-3.747,0.07h-5.636c-2.685,0-3.581-.07-3.779-0.07-0.3,0-.332.04-0.332,0.4v2.28c0,0.36.033,0.39,0.332,0.39,0.2,0,1.094-.06,3.779-0.06h0.1v3.13c-2.155,0-2.918-.06-3.117-0.06-0.331,0-.365.03-0.365,0.36,0,0.23.067,1.78,0.067,7.1v5.68c0,7.76-.067,9.24-0.067,9.47,0,0.3.034,0.33,0.365,0.33h2.022Zm4.377-20.2v5.18a2.023,2.023,0,0,0,.663,1.85,2.659,2.659,0,0,0,1.525.3h0.729v2.74h-6.929v-2.74a7.329,7.329,0,0,1,.928,1.12,0.52,0.52,0,0,0,.332.3,0.583,0.583,0,0,0,.4-0.4,10.88,10.88,0,0,0,1.227-4.75c0.033-1.06.1-2.15,0.132-3.6h1Zm-4.012,15.22v-2.41h6.929v2.41h-6.929Zm0-15.22h1.127c0,1.02-.033,1.91-0.066,2.61a9.657,9.657,0,0,1-1.061,4.29v-6.9Zm6.929,0v4.72H211.51a0.568,0.568,0,0,1-.6-0.23,2.5,2.5,0,0,1-.1-1.19v-3.3h1.027Zm-3.912-2.68v-3.13h1v3.13h-1Zm11.836,22.88c0.332,0,.365-0.03.365-0.33v-1.32h6.531v1.26c0,0.29.033,0.33,0.4,0.33h2.486c0.332,0,.365-0.04.365-0.33,0-.2-0.066-1.06-0.066-5.48v-2.94c0-2.08.066-2.97,0.066-3.17,0-.33-0.033-0.36-0.365-0.36-0.232,0-1.127.06-3.713,0.06h-4.84c-2.619,0-3.481-.06-3.713-0.06-0.332,0-.365.03-0.365,0.36,0,0.23.066,1.12,0.066,3.6v2.54c0,4.46-.066,5.28-0.066,5.51,0,0.3.033,0.33,0.365,0.33h2.486Zm0.365-9.27h6.531v4.62H220.13v-4.62Zm6.9-5.42c2.917,0,3.912.07,4.144,0.07,0.3,0,.331-0.04.331-0.37v-2.41c0-.33-0.033-0.36-0.331-0.36-0.232,0-1.227.07-4.144,0.07h-1.89v-3.96h1.724c2.553,0,3.382.06,3.614,0.06,0.331,0,.364-0.03.364-0.36v-2.31c0-.33-0.033-0.36-0.364-0.36-0.232,0-1.061.06-3.614,0.06h-1.724v-0.79c0-2.08.033-2.91,0.232-3.3a1.31,1.31,0,0,0,.166-0.66c0-.2-0.166-0.33-0.531-0.37-1.094-.13-2.022-0.19-3.315-0.23a28.88,28.88,0,0,1,.232,4.56v0.79H219.9l0.3-1.22a3.227,3.227,0,0,1,.431-1.29,1.012,1.012,0,0,0,.2-0.53,0.559,0.559,0,0,0-.5-0.49,26,26,0,0,0-2.818-.66,16.581,16.581,0,0,1-.266,2.18,19.27,19.27,0,0,1-2.586,6.47,6.848,6.848,0,0,1,1.956.96,1.718,1.718,0,0,0,.7.39,1.049,1.049,0,0,0,.6-0.73c0.332-.69.7-1.41,1-2.17h3.017v3.96H219.9c-2.918,0-3.912-.07-4.111-0.07-0.365,0-.4.03-0.4,0.36v2.41c0,0.33.033,0.37,0.4,0.37,0.2,0,1.193-.07,4.111-0.07h7.128Zm26.113,4.99a16.574,16.574,0,0,0-2.619-.2c-3.746,0-6.133,1.95-6.133,4.82,0,2.84,2.453,4.69,6.1,4.69,3.78,0,6.167-1.52,6.167-4.82a24.131,24.131,0,0,1,4.044,2.77,0.534,0.534,0,0,0,.332.2,0.384,0.384,0,0,0,.3-0.23,20.174,20.174,0,0,0,1.525-2.68,0.434,0.434,0,0,0-.2-0.69,26.025,26.025,0,0,0-5.968-3.07,43.085,43.085,0,0,1-.365-5.61,3.456,3.456,0,0,1,.133-1.36,3.933,3.933,0,0,0,.2-0.69,0.51,0.51,0,0,0-.464-0.53,18.358,18.358,0,0,0-3.614-.63,11.643,11.643,0,0,1,.265,2.35C252.874,4136.48,252.941,4138.49,253.139,4140.61Zm0.067,3.13a3.855,3.855,0,0,1,.033.66c0,1.39-1.094,2.35-2.884,2.35-1.89,0-2.819-.53-2.819-1.59,0-1.25,1.293-1.91,2.951-1.91A8.6,8.6,0,0,1,253.206,4143.74Zm-5.4-16.93c0.3-.99.563-2.02,0.8-2.81a3.571,3.571,0,0,1,.531-1.22,0.811,0.811,0,0,0,.3-0.63,0.556,0.556,0,0,0-.53-0.49,30.538,30.538,0,0,0-3.879-.7,12.764,12.764,0,0,1-.2,2.68c-0.232,1.19-.464,2.31-0.862,3.7-1.525.13-2.52,0.16-3.813,0.16-0.961,0-1.724-.03-3.083-0.13a17.04,17.04,0,0,0,.331,2.8c0.067,0.43.133,0.53,0.465,0.53,0.828,0.04,1.094.04,1.823,0.04,1.028,0,2.056,0,3.315-.07a66.44,66.44,0,0,1-5.735,11.52,0.645,0.645,0,0,0-.166.4,0.455,0.455,0,0,0,.232.36,15.435,15.435,0,0,0,2.288,1.68,0.925,0.925,0,0,0,.4.17,0.481,0.481,0,0,0,.364-0.33,91.09,91.09,0,0,0,6.465-14.16c2.056-.3,3.68-0.53,5.471-0.89a0.355,0.355,0,0,0,.4-0.4,17.635,17.635,0,0,0-.3-2.67c-0.066-.37-0.2-0.37-0.5-0.27A34.748,34.748,0,0,1,247.8,4126.81Zm7.36,3.13a28.9,28.9,0,0,1,6.863,3.6,0.453,0.453,0,0,0,.3.13,0.363,0.363,0,0,0,.3-0.23,19.467,19.467,0,0,0,1.393-2.44,0.81,0.81,0,0,0,.132-0.4,0.486,0.486,0,0,0-.3-0.36,26.122,26.122,0,0,0-6.5-3.1,0.464,0.464,0,0,0-.7.23C256.223,4127.96,255.725,4128.95,255.162,4129.94Zm30.522,4.53c-3.116,0-4.177-.04-4.376-0.04-0.365,0-.4,0-0.4.33,0,0.23.066,0.73,0.066,2.12v1.94c0,1.39-.066,1.89-0.066,2.12,0,0.29.033,0.33,0.4,0.33,0.2,0,1.226-.07,4.243-0.07a27.8,27.8,0,0,1-9.714,5.68,9.731,9.731,0,0,1,1.492,1.78,1.121,1.121,0,0,0,.73.79,1.984,1.984,0,0,0,.762-0.29,26.909,26.909,0,0,0,8.123-5.65c-0.033,4.42-.133,6.17-0.133,6.83,0,0.33.033,0.37,0.365,0.37h2.652c0.3,0,.332-0.04.332-0.37,0-.69-0.1-2.41-0.166-6.93a20.525,20.525,0,0,0,7.99,5.91,2.332,2.332,0,0,0,.8.27c0.265,0,.364-0.24.63-0.86a10.28,10.28,0,0,1,1.359-1.98,21.439,21.439,0,0,1-4.774-1.82,25.727,25.727,0,0,0,2.752-2.31,3.356,3.356,0,0,1,.7-0.5,0.44,0.44,0,0,0,.365-0.36,0.49,0.49,0,0,0-.266-0.43l-1.923-1.09v-3.36c0-1.39.067-1.92,0.067-2.12,0-.33-0.033-0.33-0.365-0.33-0.2,0-1.227.04-4.21,0.04h-7.427Zm8.885,4.49H283.993v-2.08h10.576v2.08Zm-1.458,2.24c1.491,0,2.486.03,3.116,0.03a24.081,24.081,0,0,1-2.487,2.35,18.966,18.966,0,0,1-2.718-2.38h2.089Zm-8.123-19.71c-3.117,0-4.244-.06-4.443-0.06-0.331,0-.364.03-0.364,0.36,0,0.23.066,0.76,0.066,2.21v2.31c0,1.45-.066,1.95-0.066,2.15,0,0.36.033,0.39,0.364,0.39,0.2,0,1.326-.06,4.575-0.06h8.587c3.117,0,4.211.06,4.443,0.06,0.331,0,.365-0.03.365-0.39,0-.2-0.067-0.7-0.067-2.15V4124c0-1.45.067-2.01,0.067-2.21,0-.33-0.034-0.36-0.365-0.36-0.232,0-1.326.06-4.443,0.06h-8.719Zm10.708,4.95h-2.652v-2.57H295.7v2.57Zm-7.724-2.57h2.619v2.57h-2.619v-2.57ZM283,4126.44v-2.57h2.586v2.57H283Zm-6.83,7.47c1.492,0.03,1.989.06,2.188,0.06,0.332,0,.365-0.03.365-0.36v-2.38c0-.23-0.033-0.33-0.365-0.33-0.2,0-.7.07-2.188,0.07v-5.75c1.89,0,2.486.07,2.685,0.07,0.332,0,.365-0.03.365-0.4v-2.31c0-.33-0.033-0.36-0.365-0.36-0.2,0-.795.06-2.884,0.06h-2.984c-2.089,0-2.685-.06-2.884-0.06-0.332,0-.365.03-0.365,0.36v2.31c0,0.37.033,0.4,0.365,0.4,0.2,0,.8-0.07,2.851-0.07h0.066v5.75c-1.823,0-2.354-.07-2.553-0.07-0.3,0-.331.03-0.331,0.33v2.38c0,0.33.033,0.36,0.331,0.36,0.2,0,.73-0.06,2.553-0.06v7.16l-0.464.16a19.356,19.356,0,0,1-3.183.86c0.3,1.29.5,2.18,0.8,3.07a0.5,0.5,0,0,0,.464.43,1.015,1.015,0,0,0,.531-0.26,3.723,3.723,0,0,1,1.027-.53,54.012,54.012,0,0,0,6.532-2.81c0.928-.49.928-0.49,0.8-1.55a12.031,12.031,0,0,1-.1-2.14c-1.16.59-2.221,1.08-3.249,1.55v-5.94Zm18.533-.93c3.216,0,4.31.07,4.542,0.07,0.331,0,.365-0.04.365-0.37v-2.14c0-.33-0.034-0.37-0.365-0.37-0.232,0-1.326.07-4.542,0.07H284.424c-3.216,0-4.277-.07-4.476-0.07-0.331,0-.364.04-0.364,0.37v2.14c0,0.33.033,0.37,0.364,0.37,0.2,0,1.26-.07,4.476-0.07H294.7Zm33.771,9.77c2.884,0,3.879.07,4.111,0.07,0.332,0,.365-0.03.365-0.4,0-.2-0.066-0.96-0.066-2.74v-4.03c0-1.78.066-2.54,0.066-2.77,0-.33-0.033-0.36-0.365-0.36-0.232,0-1.227.06-4.21,0.06h-7.2c-2.984,0-4.011-.06-4.243-0.06-0.332,0-.365.03-0.365,0.36,0,0.23.066,0.99,0.066,2.77v4.03c0,1.78-.066,2.54-0.066,2.74,0,0.37.033,0.4,0.365,0.4,0.165,0,.9-0.03,2.718-0.07-0.63,3.37-3.216,4.59-7.99,5.35a5.932,5.932,0,0,1,1.558,1.91c0.332,0.6.431,0.8,0.763,0.8a3.553,3.553,0,0,0,.8-0.14c5.006-1.25,7.293-3.46,8.222-7.92h2.221v4.66c0,1.48.431,2.11,1.094,2.37a9.7,9.7,0,0,0,3.879.47c2.155,0,3.249-.24,4.012-0.93,0.762-.66,1.127-1.58,1.326-3.63,0.1-.86.1-0.86-0.73-1.12a11.819,11.819,0,0,1-2.188-.89c-0.033,2.18-.1,2.67-0.53,3.07a2.283,2.283,0,0,1-1.691.39,4.389,4.389,0,0,1-1.558-.13,0.881,0.881,0,0,1-.365-0.96v-3.3Zm1.227-2.31h-9.946v-1.72H329.7v1.72Zm-9.946-5.54H329.7v1.68h-9.946v-1.68Zm10.775-3.83c3.249,0,4.343.06,4.509,0.06,0.331,0,.364-0.03.364-0.36v-2.01c0-.33-0.033-0.37-0.364-0.37-0.166,0-1.26.07-4.509,0.07H329.6c0.365-.66.663-1.36,1.028-2.11a0.964,0.964,0,0,1,.4-0.53c1.724,0.03,2.42.06,2.586,0.06,0.331,0,.365-0.03.365-0.36v-1.91c0-.33-0.034-0.37-0.365-0.37-0.2,0-1.293.07-4.376,0.07h-3.15v-0.36a3.655,3.655,0,0,1,.166-1.46,1.277,1.277,0,0,0,.2-0.56,0.559,0.559,0,0,0-.531-0.3c-1.027-.09-2.088-0.16-3.249-0.19a11.5,11.5,0,0,1,.232,2.57v0.3h-2.32c-3.117,0-4.178-.07-4.377-0.07-0.364,0-.4.04-0.4,0.37v1.91c0,0.33.034,0.36,0.4,0.36,0.133,0,.763-0.03,2.255-0.06a16.451,16.451,0,0,1,1.127,2.64c-2.851,0-3.945-.07-4.111-0.07-0.3,0-.332.04-0.332,0.37v2.01c0,0.33.033,0.36,0.332,0.36,0.2,0,1.326-.06,4.542-0.06h10.51Zm-3.017-5.25a18.818,18.818,0,0,1-1.061,2.64h-3.78a20.2,20.2,0,0,0-.994-2.64h5.835Zm-15.682,6.24c1.558,0.03,2.122.06,2.321,0.06,0.331,0,.364-0.03.364-0.36v-2.51c0-.33-0.033-0.36-0.364-0.36-0.2,0-.763.06-2.321,0.06v-3a13.232,13.232,0,0,1,.232-3.7,2.347,2.347,0,0,0,.133-0.66,0.445,0.445,0,0,0-.465-0.36c-1.127-.13-2.155-0.2-3.381-0.23a35.418,35.418,0,0,1,.265,5.02v2.93h-0.133c-2.055,0-2.685-.06-2.884-0.06-0.3,0-.331.03-0.331,0.36v2.51c0,0.33.033,0.36,0.331,0.36,0.2,0,.829-0.06,2.884-0.06h0.133v9.34l-0.464.16a19.057,19.057,0,0,1-3.282.8,25.507,25.507,0,0,0,.928,2.93,0.5,0.5,0,0,0,.464.4,1,1,0,0,0,.564-0.26,4.1,4.1,0,0,1,1.094-.5,55.7,55.7,0,0,0,6.365-2.67c0.962-.47,1-0.47.895-1.55a10.63,10.63,0,0,1,0-2.05c-1.193.63-2.287,1.12-3.348,1.58v-8.18Zm44.779-3.83c-4.012,2.6-6.366,5.77-6.366,10.46,0,6.87,6.4,10.2,12.234,10.2,0.4,0,.53-0.2.63-0.69a11.727,11.727,0,0,0,.365-2.84c0-.36-0.2-0.5-0.73-0.5-5.769-.36-8.819-2.67-8.819-6.93,0-3.96,2.818-7.82,8.454-9.74a14.972,14.972,0,0,1,4.045-.72c0.431,0,.63-0.1.63-0.5a18.746,18.746,0,0,0-.365-2.9c-0.033-.23-0.2-0.43-0.7-0.37-8.553,1.13-15.847,2.22-19.925,2.81a45.234,45.234,0,0,1-5.272.56,22.912,22.912,0,0,0,1.227,3.57,0.782,0.782,0,0,0,.63.49,1.916,1.916,0,0,0,.729-0.26c0.5-.17.829-0.23,2.089-0.53,3.548-.73,7.1-1.42,11.14-2.18v0.07Zm4.807,4.72a16.258,16.258,0,0,1,3.349,3.83,0.35,0.35,0,0,0,.563.1l1.393-1.03a0.333,0.333,0,0,0,.1-0.53,15.339,15.339,0,0,0-3.15-3.53,0.337,0.337,0,0,0-.5-0.06Zm3.05-2.18a15.626,15.626,0,0,1,3.316,3.8,0.342,0.342,0,0,0,.563.09l1.326-1.02a0.377,0.377,0,0,0,.1-0.59,13.66,13.66,0,0,0-3.15-3.4,0.338,0.338,0,0,0-.5-0.07Zm17.893,8.61a50.343,50.343,0,0,0,5.073-.09c0.331,0,.431-0.14.464-0.53a22.342,22.342,0,0,0,.165-2.48c0-.3-0.1-0.43-0.53-0.36-1.591.1-2.951,0.13-4.708,0.1,0.2-1.32.531-3.57,0.73-4.72a32.515,32.515,0,0,0,4.409-.17c0.4-.03.53-0.13,0.53-0.49a15.362,15.362,0,0,0,.067-2.48,0.338,0.338,0,0,0-.332-0.4,18.8,18.8,0,0,1-4.078.2c0.166-1.22.365-2.34,0.531-3.1a3.211,3.211,0,0,1,.6-1.42,0.98,0.98,0,0,0,.265-0.63,0.942,0.942,0,0,0-.73-0.76,20.461,20.461,0,0,0-3.978-.92,15.5,15.5,0,0,1,.033,2.77c-0.066.99-.166,1.88-0.431,3.8a26.808,26.808,0,0,1-6-1.26c0,1.19.067,2.28,0.1,3.07a0.548,0.548,0,0,0,.53.57,24.2,24.2,0,0,0,4.774.92c-0.132,1.35-.4,3.5-0.563,4.72a20.737,20.737,0,0,1-5.371-1.29,18.945,18.945,0,0,0,.066,3.07,0.572,0.572,0,0,0,.365.63,26.1,26.1,0,0,0,4.509.99c-0.133,1.49-.232,2.41-0.232,3.1,0,4.82,2.486,7.46,8.354,7.46,5.7,0,9.549-3.03,9.549-7.72a8.612,8.612,0,0,0-2.818-6.21,0.8,0.8,0,0,0-.7-0.13,10.707,10.707,0,0,1-3.381.2c2.519,2.64,2.983,4.16,2.983,6.01,0,2.97-2.154,4.45-6.033,4.45-3.084,0-4.41-1.18-4.41-4.22A20.253,20.253,0,0,1,382.359,4139.38Zm43.885,5.42-3.581.49v-3.66h2.255c2.984,0,4.045.07,4.243,0.07,0.332,0,.365-0.04.365-0.37,0-.2-0.066-0.92-0.066-2.64v-3.5c0-1.71.066-2.44,0.066-2.64,0-.33-0.033-0.36-0.365-0.36-0.2,0-1.259.06-4.243,0.06h-2.255v-3.07c1.625-.13,3.15-0.29,4.509-0.46,0.365,0.6.7,1.19,1.028,1.78a0.38,0.38,0,0,0,.3.3,0.926,0.926,0,0,0,.4-0.2l1.989-1.18c0.4-.27.365-0.37,0.2-0.66a47.429,47.429,0,0,0-5.271-6.34c-0.232-.23-0.332-0.23-0.663-0.04l-1.658.96c-0.365.2-.4,0.3-0.166,0.53a29.134,29.134,0,0,1,2.023,2.34c-2.056.17-4.509,0.37-6.963,0.47,0.73-1.26,1.492-2.71,2.023-3.8a2.744,2.744,0,0,1,.63-0.93,0.772,0.772,0,0,0,.331-0.59,0.577,0.577,0,0,0-.5-0.49,23.232,23.232,0,0,0-3.216-.6,8.873,8.873,0,0,1-.63,2.25,29.8,29.8,0,0,1-2.055,4.25c-0.829,0-1.758.04-2.62-.03,0.1,0.96.266,2.05,0.431,2.94a0.53,0.53,0,0,0,.465.53,0.915,0.915,0,0,0,.53-0.17,3.076,3.076,0,0,1,1.227-.26c1.425-.07,2.95-0.17,4.542-0.3v2.77h-1.923c-2.951,0-4.012-.06-4.244-0.06-0.331,0-.364.03-0.364,0.36,0,0.23.066,0.93,0.066,2.64v3.5c0,1.72-.066,2.41-0.066,2.64,0,0.33.033,0.37,0.364,0.37,0.232,0,1.293-.07,4.244-0.07h1.923v4.06c-1.525.2-2.984,0.33-4.178,0.4a29.366,29.366,0,0,1-3.845.06c0.2,1.09.4,2.21,0.7,3.24a0.6,0.6,0,0,0,.563.53,1.483,1.483,0,0,0,.6-0.17,4.77,4.77,0,0,1,1.393-.36c4.044-.5,8.653-1.16,12.93-1.95,0.364,0.76.663,1.52,0.961,2.28,0.133,0.33.265,0.36,0.663,0.23l1.89-.86c0.365-.16.4-0.26,0.3-0.56a30.53,30.53,0,0,0-3.547-6.21c-0.166-.29-0.232-0.36-0.6-0.2l-1.691.73c-0.4.17-.464,0.27-0.3,0.53Zm0.1-5.91h-3.68v-3.9h3.68v3.9Zm-10.178,0v-3.9h3.382v3.9h-3.382Zm-10.941-3.27c0.166-1.19.332-2.47,0.465-3.86h2.917c1.525,0,2.089.07,2.288,0.07,0.364,0,.4-0.04.4-0.37,0-.2-0.067-1.09-0.067-2.97v-3.4c0-1.91.067-2.77,0.067-2.97,0-.36-0.034-0.4-0.4-0.4-0.2,0-.763.07-2.288,0.07h-3.647c-2.055,0-2.652-.07-2.851-0.07-0.365,0-.4.04-0.4,0.4v2.38c0,0.33.033,0.36,0.4,0.36,0.2,0,.8-0.07,2.851-0.07h3.183v4.16h-2.918c-1.226,0-1.989-.06-2.188-0.06a0.352,0.352,0,0,0-.431.43,13.933,13.933,0,0,1-.1,2.34,61.92,61.92,0,0,1-1.194,7.63c-0.1.46-.1,0.49,1.426,0.69,1.724,0.2,1.724.2,1.823-.2l0.232-1.22h3.183c-0.3,5.12-.829,7.26-1.293,7.86a1.891,1.891,0,0,1-1.492.49,18.664,18.664,0,0,1-2.917-.3,10.173,10.173,0,0,1,.762,2.45c0.2,1.02.2,1.02,0.895,1.09,0.6,0.03,1.161.03,1.592,0.03,2.453,0,3.614-.69,4.21-2.18,0.531-1.29,1.128-3.96,1.426-9.7,0.033-.73.066-1.66,0.133-2.32,0.033-.33-0.067-0.42-0.4-0.42-0.2,0-.6.06-2.122,0.06h-3.548Zm31.452-10.6a17.631,17.631,0,0,1,.4,4.33,59.59,59.59,0,0,0,.8,9.61c0.895,5.57,3.613,8.61,6.2,8.61,2.321,0,4.377-1.78,5.636-5.15a1,1,0,0,0-.232-1.22,12.839,12.839,0,0,1-2.121-2.54c-1.293,3.43-2.122,4.59-3.183,4.59-1.393,0-2.255-2.25-2.719-4.86a41.35,41.35,0,0,1-.6-7.52,14.816,14.816,0,0,1,.3-3.24,2.787,2.787,0,0,0,.265-0.92,0.8,0.8,0,0,0-.53-0.6A14.635,14.635,0,0,0,436.676,4125.02Zm16.975,4.69a22.235,22.235,0,0,1,6.2,11.52c0.066,0.4.3,0.5,0.7,0.37a11.436,11.436,0,0,0,2.586-1.32,0.583,0.583,0,0,0,.364-0.73,21.8,21.8,0,0,0-6.5-11.29,0.52,0.52,0,0,0-.364-0.2,1.1,1.1,0,0,0-.365.13C455.739,4128.46,454.911,4128.92,453.651,4129.71Zm23.3-7.89h-5.172l0.928,19.64h3.349Zm-4.973,22.85v4.45h4.708v-4.45h-4.708Z" transform="translate(-165.469 -4120.28)"/>
</svg>
