<svg xmlns="http://www.w3.org/2000/svg" width="790.156" height="102.722" viewBox="0 0 790.156 102.722">
  <defs>
    <style>
      .cls-1 {
        fill: #fff;
        fill-rule: evenodd;
      }
    </style>
  </defs>
  <path id="head-about.svg" class="cls-1" d="M572.248,973.41H560.47v2.031l4.721,0.507-7.108,29.142L550.316,975.9l5.178-.457V973.41H540.568v2.031L545.7,975.9l-7.768,29.142-7.26-29.193,4.772-.406V973.41H521.022v2.031l4.061,0.355,9.646,35.894h3.351l8.377-30.868,8.529,30.868h3.4l9.139-35.742,4.721-.507V973.41Zm37.612,13.884v5.845H592.785v-5.845H609.86Zm-17.075,13.066v-5.933H609.86v5.933H592.785ZM613.634,978H597.157c0.875-1.7,1.611-3.359,2.255-4.97,1.243,0.092,1.657-.23,1.841-0.783l-5.569-1.749a53.265,53.265,0,0,1-2.761,7.5H578.839l0.322,1.335h13.118a46.221,46.221,0,0,1-13.9,17.4l0.46,0.6a40.835,40.835,0,0,0,10.264-7.87v23.613h0.644c1.841,0,3.038-.92,3.038-1.2V1001.7H609.86v5.94c0,0.69-.184.96-1.059,0.96-1.012,0-5.845-.32-5.845-0.32v0.69c2.209,0.32,3.36.78,4.05,1.38a4.209,4.209,0,0,1,1.059,2.72c4.925-.46,5.523-2.17,5.523-4.97V988.122a3.481,3.481,0,0,0,2.117-1.059l-4.464-3.359-1.887,2.255H593.337l-0.92-.368a49.971,49.971,0,0,0,4.05-6.26h23.058a1.04,1.04,0,0,0,1.2-.736c-1.7-1.565-4.6-3.728-4.6-3.728Zm15.759,1.611h23.012a1.072,1.072,0,0,0,1.2-.69c-1.565-1.519-4.234-3.636-4.234-3.636l-2.3,3.038H642.74v-5.892c1.105-.138,1.565-0.6,1.657-1.242l-5.339-.506v7.64H629.025Zm13.715,2.164c2.117,1.887,4.511,5.108,5.063,7.778,3.728,2.531,6.49-5.247-4.648-8.147Zm-12.979,10.861a32.938,32.938,0,0,0,8.791-8.974c1.059,0.138,1.473-.092,1.749-0.553l-4.787-2.347a36.464,36.464,0,0,1-6.259,11.322Zm12.933-3.682a49.484,49.484,0,0,1-2.071,6.628,43.878,43.878,0,0,0-7.364-3.636l-0.506.46a62.793,62.793,0,0,1,6.674,5.937,38.035,38.035,0,0,1-11.046,14.131l0.46,0.55a35.226,35.226,0,0,0,12.841-12.2,24.052,24.052,0,0,1,3.728,5.8c3.36,1.98,5.063-3.26-1.887-8.971a42.042,42.042,0,0,0,2.715-6.167c1.2,0.046,1.565-.23,1.795-0.783Zm24.532-8.7-2.026,2.209h-5.476c0.092-3.038.092-6.213,0.138-9.527a1.579,1.579,0,0,0,1.61-1.289l-5.338-.552c0,4,.046,7.778,0,11.368h-5.754l0.415,1.381h5.293c-0.323,11.736-1.98,21.268-10.356,28.488l0.644,0.74c10.908-7,12.887-16.986,13.3-29.228h6.03c-0.276,14.774-.783,22.778-2.255,24.258a1.929,1.929,0,0,1-1.611.55c-0.921,0-3.544-.19-5.155-0.37v0.78a9.258,9.258,0,0,1,3.728,1.38,3.291,3.291,0,0,1,.736,2.58,6.492,6.492,0,0,0,5.017-2.02c2.071-2.4,2.761-10.04,3.038-26.7a3.032,3.032,0,0,0,1.887-.736Zm40.888-8.009a14.738,14.738,0,0,1,5.569,5.155c3.544,1.657,5.063-5.247-5.2-5.615Zm13.071,29.277-0.506-.14a47.162,47.162,0,0,1-2.255,5.38c-0.461.83-.783,0.83-1.611,0.19a18.978,18.978,0,0,1-6.122-6.4,43.952,43.952,0,0,0,6.49-12.52c1.243,0.046,1.657-.23,1.841-0.829l-5.477-1.748a44.569,44.569,0,0,1-4.557,11.782,48.7,48.7,0,0,1-3.451-15.925h14.866a1.1,1.1,0,0,0,1.2-.736c-1.657-1.473-4.464-3.636-4.464-3.636l-2.393,3.038h-9.3c-0.185-2.44-.231-4.879-0.185-7.364a1.6,1.6,0,0,0,1.657-1.289l-5.385-.6c0,3.175.093,6.259,0.323,9.251H688.507l-4.326-1.7v11.644c0,7.732-.46,16.153-5.017,22.923l0.6,0.46c7.41-6.35,8.1-15.973,8.1-23.153h7.594c-0.184,7.732-.69,11.6-1.519,12.383a1.678,1.678,0,0,1-1.335.41c-0.828,0-2.991-.18-4.188-0.27l-0.046.73a6.187,6.187,0,0,1,2.946,1.15,3.407,3.407,0,0,1,.69,2.4,6.113,6.113,0,0,0,4.28-1.34c1.749-1.52,2.394-5.614,2.67-15a2.621,2.621,0,0,0,1.795-.69l-3.774-3.084-1.933,1.979h-7.18v-7.5h14.452c0.644,7.364,2.025,14.038,4.786,19.51a37.543,37.543,0,0,1-12.933,11.42l0.415,0.6a37.123,37.123,0,0,0,13.991-9.39,23.928,23.928,0,0,0,6.674,7.09c2.163,1.61,5.339,2.99,6.627,1.42,0.46-.5.322-1.38-1.15-3.36Zm22.8-30.749c-2.255,6.811-7.364,15.1-14.222,20.205l0.46,0.552c8.377-4.188,14.222-11.644,17.352-17.95,1.15,0.138,1.519-.138,1.749-0.69Zm15.924,18.179H736.484l0.414,1.335h9.251c-0.414,6.858-2.025,15.1-14.314,22.045l0.552,0.74c14.59-6.31,17.076-15.007,17.858-22.785h10.448c-0.507,9.159-1.565,16.3-3.038,17.585a2.6,2.6,0,0,1-1.887.55c-1.151,0-5.109-.32-7.456-0.55l-0.046.73c2.117,0.33,4.418.92,5.247,1.57a3,3,0,0,1,1.012,2.62,8.12,8.12,0,0,0,5.707-1.84c2.394-2.12,3.636-9.62,4.189-20.113a3.032,3.032,0,0,0,1.887-.736l-3.913-3.314ZM755.492,971a36.047,36.047,0,0,0,14.452,19.376,4.233,4.233,0,0,1,3.313-3.037l0.138-.507c-6.673-3.037-14.175-9.067-17.167-16.247Zm37.436,10.816h-2.485v-6.536h2.485v6.536Zm5.523,1.334v8.607c-0.23.046-.506,0.092-0.69,0.138h-1.933c-0.368,0-.46-0.138-0.46-0.6v-8.147h3.083Zm-13.163,24.259v-6.31h13.163v6.31H785.288ZM788,983.151v1.887c0,3.222-.138,7.318-2.716,10.77V983.151H788Zm8.376,11.23a12.534,12.534,0,0,0,2.071-.138v5.523H785.288V996.13l0.46,0.553c4.327-3.36,4.695-8.331,4.695-11.645v-1.887h2.485v9.021c0,1.519.323,2.209,2.21,2.209h1.242Zm1.289-20.435H780.824l0.368,1.335h6.444v6.536h-2.118l-3.452-1.657v32.72h0.553c1.427,0,2.669-.83,2.669-1.19v-2.95h13.163v3.36h0.507c1.15,0,2.761-.78,2.807-1.1V983.7a3.435,3.435,0,0,0,1.887-.875l-3.866-3.038-1.795,2.026h-2.255v-6.536h7.088a1.149,1.149,0,0,0,1.242-.69c-1.61-1.473-4.188-3.5-4.188-3.5Zm24.669,26.694h-0.6a53.793,53.793,0,0,1-1.611,6.86,0.946,0.946,0,0,1-.966.64c-0.645.09-2.118,0.09-4.1,0.09H810.74c-1.749,0-1.933-.27-1.933-1.15V987.846h8.238v4.142H817.6c1.1,0,2.853-.736,2.9-1.059V976.017a3.5,3.5,0,0,0,2.163-1.012l-4.28-3.314-1.887,2.209H804.849l0.414,1.289h11.782v11.322h-7.732l-4-1.7v23.152c0,2.81.921,3.59,4.741,3.59h4.832c7.272,0,8.929-.65,8.929-2.26,0-.64-0.276-1.1-1.335-1.52Zm20.776,7.55V997.327h19.192v10.863H843.114Zm18.686-12.2H843.39l-4.1-1.795v18.823h0.6c1.565,0,3.222-.87,3.222-1.2v-2.3h19.192v3.13h0.6c1.2,0,3.175-.78,3.221-1.06V998.017a3.772,3.772,0,0,0,1.979-.92l-4.28-3.314Zm-4.833-8.422H841.825l0.368,1.288h20.389a1.1,1.1,0,0,0,1.243-.69c-1.7-1.565-4.418-3.682-4.418-3.682Zm-6.581-17.122c-2.348,6.582-11.414,15.879-19.239,20.343l0.323,0.645c8.882-3.82,18-11.322,22.276-18.042,3.129,6.812,9.895,12.657,17.305,16.339a4.43,4.43,0,0,1,3.176-3.176l0.046-.644c-7.825-2.854-15.6-7.318-19.7-13.117,1.2-.092,1.8-0.322,1.933-0.875ZM316.305,1040.71c2.439,2.03,3.314,3.87,4.832,3.87a1.714,1.714,0,0,0,1.657-1.8c0-1.98-1.795-3.49-4.924-4.83a44.009,44.009,0,0,0-5.984-1.7l-0.46,1.01A29.961,29.961,0,0,1,316.305,1040.71Zm-4.971,24.3c-1.611,0-3.083-1.61-4.234-2.99l-0.69.42a8.608,8.608,0,0,0,1.012,3.49c1.1,1.66,4.05,3.64,5.661,3.64,1.335,0,1.841-1.29,2.9-1.93,10.171-5.71,20.067-14.18,25.129-23.43l-0.966-.64C331.953,1054.52,315.108,1065.01,311.334,1065.01Zm-0.736-15.05c2.3,1.84,3.083,3.59,4.74,3.59a1.6,1.6,0,0,0,1.657-1.7c0-2.07-2.117-3.77-5.062-4.83a44.1,44.1,0,0,0-6.168-1.66l-0.414.97A29.071,29.071,0,0,1,310.6,1049.96Zm58.706-11.09c-3.038-1.43-8.423-2.44-14.406-2.85l-0.184.96c6.213,1.75,9.665,3.27,13.3,5.8,1.427,1.06,2.025,1.71,3.176,1.66a1.644,1.644,0,0,0,1.61-1.7C372.8,1041.31,371.973,1040.16,369.3,1038.87Zm-16.063,9.34a53.509,53.509,0,0,1,11.69,5.25c1.381,0.88,2.117,1.43,2.9,1.43a1.618,1.618,0,0,0,1.7-1.71c0-1.51-1.151-2.53-3.038-3.35a37.271,37.271,0,0,0-13.025-2.58Zm-1.841,12.57c6.581,1.93,10.954,3.54,16.2,7.18,1.657,1.24,2.853,2.3,4,2.3a1.7,1.7,0,0,0,1.933-1.84c0-1.15-.967-2.39-2.762-3.54-3.682-2.31-11.276-4.56-19.1-5.11Zm45.639-8.18a3.813,3.813,0,1,0-3.813,3.81A3.817,3.817,0,0,0,397.039,1052.6Zm18.391,1.92c0.138-2.35.138-4.65,0.138-6.81v-2.63h6.674v9.44H415.43Zm6.812-19.79v9.02h-6.674v-9.02h6.674Zm3.5,0.55a3.13,3.13,0,0,0,1.749-.87l-3.959-3.04-1.7,2.02h-5.616l-4.05-1.61v15.97c0,8.61-.138,17.77-3.636,25.04l0.691,0.37c4.234-4.83,5.615-11.18,6.121-17.26h6.9v9.62a0.809,0.809,0,0,1-.967.97c-0.828,0-4.648-.33-4.648-0.33v0.74a5.1,5.1,0,0,1,3.314,1.29,4.005,4.005,0,0,1,.874,2.58c4.418-.42,4.925-2.07,4.925-4.79v-30.7Zm24.393,23.15h-0.552c-0.507,3.13-1.2,7.37-1.519,8.24-0.184.51-.369,0.6-0.6,0.6a12.057,12.057,0,0,1-1.38.04H444.84c-0.736,0-.875-0.27-0.875-0.96v-30.56a3.232,3.232,0,0,0,1.98-.79l-4-3.49-1.979,2.3h-5.8l-4.142-1.7v16.79c0,8.8-.644,17.26-5.937,23.85l0.69,0.41c8.1-6.35,8.745-15.88,8.745-24.26v-13.76h6.95v32.31c0,2.4.506,3.41,3.359,3.41h2.164c4.188,0,5.569-.78,5.569-2.21,0-.74-0.185-1.15-1.243-1.61Zm25.149-5.71c0-.73.046-1.51,0.092-2.39a19.528,19.528,0,0,1,7.64-1.89,38.685,38.685,0,0,1-6.9,9.95A18.462,18.462,0,0,1,475.282,1052.72Zm-9.435,11.79c-1.058,0-1.473-.46-1.473-1.66,0-3.08,3.222-7.82,8.331-11.05-0.046.6-.046,1.15-0.046,1.71a34.99,34.99,0,0,0,.782,7.36C470.956,1062.9,468.01,1064.51,465.847,1064.51Zm15.418-20.21c1.611,0.97,2.3,1.61,2.21,2.72a25.639,25.639,0,0,0-7.871,1.47c0.23-1.84.553-3.77,0.921-5.57a59.934,59.934,0,0,0,12.1-3.13,1.606,1.606,0,0,0,1.289-1.52c0-.96-1.012-1.56-2.807-1.56-0.783,0-3.913,2.07-9.942,3.36,0.184-.65.322-1.2,0.46-1.71,0.369-1.65,1.335-1.93,1.335-2.94,0-.97-2.577-2.53-5.247-2.53a9.682,9.682,0,0,0-2.577.6l-0.046.87a14.107,14.107,0,0,1,2.669.6,1.06,1.06,0,0,1,.875,1.29,41.553,41.553,0,0,1-.506,4.32,30.534,30.534,0,0,1-4.189.28,9.076,9.076,0,0,1-6.351-2.3l-0.691.64c1.749,3.18,3.36,4.42,6.582,4.42a33.422,33.422,0,0,0,4.234-.27c-0.322,2.07-.644,4.28-0.828,6.35-5.615,2.85-11.46,8.37-11.46,14.45,0,2.48,1.242,3.73,3.406,3.73,2.761,0,6.167-1.48,9.527-4.28,0.552,1.24,1.334,2.07,2.209,2.07a1.4,1.4,0,0,0,1.611-1.48,8.934,8.934,0,0,0-1.059-3.26,44.177,44.177,0,0,0,8.515-12.34c4.97,0.78,7.916,4.42,7.916,8.84,0,6.9-6.489,11.41-17.95,13.12l0.184,0.96c12.335-.23,21.494-4.19,21.494-13.16,0-5.29-4.05-10.36-11.092-11.18a1.72,1.72,0,0,0-.46-1.66,8.163,8.163,0,0,0-4-1.89Zm37.759,19.98c0,0.78-.276.83-0.782,0.37-0.6-.74-2.071-2.54-3.314-4.1,1.427-1.98,2.854-4.1,4.1-6.03C518.932,1058.39,519.07,1062.21,519.024,1064.28Zm31.711-3.18c-2.715,2.35-4.97,3.45-7.916,3.45-2.163,0-3.13-1.01-3.13-3.45,0-4.74,1.933-10.72,1.933-14.54,0-4.38-1.933-6.49-5.523-6.49-4.464,0-9.619,3.82-13.577,7.41,0.322-.42.6-0.78,0.921-1.15,0.6-.74,1.058-1.11,1.058-1.71a3.949,3.949,0,0,0-1.657-1.88c0.322-1.29.645-2.4,0.875-3.04,0.552-1.75,1.1-2.26,1.1-3.22,0-1.43-2.577-3.68-4.694-3.68a9.2,9.2,0,0,0-3.038.59l0.046,0.92a14.2,14.2,0,0,1,2.578.79,1.276,1.276,0,0,1,1.012,1.56c-0.046,1.24-.322,3.59-0.69,6.4-2.117,1.15-6.536,3.22-7.778,3.22-0.875,0-1.565-.78-2.3-2.12l-0.782.23a7.163,7.163,0,0,0,.138,2.21c0.506,1.61,2.623,3.55,4.188,3.55,0.829,0,1.289-1.11,2.255-1.71s2.44-1.47,3.913-2.25c-0.093,1.1-.231,2.25-0.323,3.4a107.551,107.551,0,0,1-9.895,12.8,3.487,3.487,0,0,0-1.105,2.62,1.647,1.647,0,0,0,1.427,1.89c0.829-.05,1.335-0.78,1.979-1.7l2.486-3.64a32.918,32.918,0,0,1,3.037,5.39,14.72,14.72,0,0,1,.875,3.17,1.672,1.672,0,0,0,1.749,1.7c1.38,0,2.255-2.16,2.255-4.05,0-1.1-.184-2.11-0.322-3.49a88.422,88.422,0,0,1-.369-13.26v-0.04c4.373-5.02,9.574-9.07,13.532-9.07,2.255,0,3.037,1.52,3.037,4.42,0,4.97-1.887,10.17-1.887,15.42,0,4.28,2.256,6.3,5.615,6.3,4.281,0,7.733-3.17,9.666-6.21Zm19.309-8.5a3.813,3.813,0,1,0-3.813,3.81A3.817,3.817,0,0,0,570.044,1052.6Zm40.944-9.13a40.61,40.61,0,0,1-6.075,10.45,62.409,62.409,0,0,0-10.494-4.74,59.5,59.5,0,0,0,4.7-5.52,3.4,3.4,0,0,0,1.7.83,11.049,11.049,0,0,0,2.577-.6,54.039,54.039,0,0,1,7.088-1.15C610.988,1042.69,611.218,1042.88,610.988,1043.47Zm-10.4-1.84c0.46-.69.874-1.33,1.288-2.02,0.691-1.15,1.335-1.52,1.335-2.4,0-.92-2.623-2.44-4.833-2.76a9.832,9.832,0,0,0-2.853-.04l-0.23.78c1.564,0.74,2.761,1.52,2.761,2.35,0,2.76-7.64,13.3-14.728,18.68l0.691,0.92a41.188,41.188,0,0,0,9.481-7.08,39.036,39.036,0,0,1,9.527,6.16,62.835,62.835,0,0,1-19.377,15.42l0.6,0.97a54.862,54.862,0,0,0,21.125-14.04c3.222,3.59,3.958,5.48,5.477,5.43a1.792,1.792,0,0,0,1.841-2.02c-0.092-1.94-2.255-4.15-4.925-6.13a72.029,72.029,0,0,0,6.9-10.44c0.6-1.11,2.255-1.52,2.255-2.49,0-1.38-3.267-3.59-4.418-3.59-0.875,0-1.289.92-2.531,1.2a69.61,69.61,0,0,1-9.205,1.1h-0.184Zm11.874-6.72a23.981,23.981,0,0,1,4.1,4.19c0.921,1.11,1.473,1.98,2.163,1.98a1.221,1.221,0,0,0,1.243-1.29,3.93,3.93,0,0,0-1.611-2.76,15.721,15.721,0,0,0-5.385-2.81Zm3.958-2.8a24.088,24.088,0,0,1,4.188,3.77c1.013,1.1,1.473,2.07,2.3,2.07a1.146,1.146,0,0,0,1.15-1.33,3.57,3.57,0,0,0-1.749-2.81,16.556,16.556,0,0,0-5.339-2.39Zm33.621,3.68c1.611,0.96,2.762,1.75,2.762,3.04,0,1.51-2.67,6.76-5.707,11.23a63.694,63.694,0,0,0-12.243-5.71l-0.6,1.01a80.007,80.007,0,0,1,10.77,7.5,68.141,68.141,0,0,1-19.055,16.43l0.6,0.88a51.558,51.558,0,0,0,21.033-15.1c5.477,5.06,5.937,8.24,8.008,8.24a1.951,1.951,0,0,0,1.979-2.21c-0.046-2.62-4.142-6.58-7.594-9.11,2.67-3.78,5.155-8.1,6.076-9.62,0.828-1.47,1.933-1.61,1.933-2.53,0-1.43-1.887-3.32-3.728-4.19a11.192,11.192,0,0,0-3.959-.69Zm22.114,13.9a7.488,7.488,0,0,0,.369,2.85c0.69,1.75,3.037,4.23,4.464,4.23,1.473,0,2.025-.78,4.879-1.1,3.452-.41,15.648-1.1,18.686-1.1,2.945,0,4.556.09,6.213,0.09s2.347-.55,2.347-1.48c0-1.47-2.163-2.43-4.234-2.43-1.151,0-2.669.27-5.753,0.5-2.3.19-17.812,1.2-22.138,1.2-2.071,0-2.853-1.38-3.912-3.04Zm79.323-6.72a1.328,1.328,0,0,0,1.381-1.38c0-.88-0.461-1.66-1.565-2.72a16.475,16.475,0,0,0-5.523-3.13l-0.6.74a23.508,23.508,0,0,1,4.188,4.46C750.28,1042.09,750.787,1042.97,751.477,1042.97Zm4.833-3.68a1.214,1.214,0,0,0,1.242-1.34,3.779,3.779,0,0,0-1.7-2.81,17.313,17.313,0,0,0-5.477-2.71l-0.552.73a25.579,25.579,0,0,1,4.188,4.05C754.975,1038.36,755.527,1039.29,756.31,1039.29Zm-24.854,2.16c2.439,2.02,3.314,3.86,4.833,3.86a1.706,1.706,0,0,0,1.657-1.79c0-1.98-1.8-3.5-4.925-4.83a44.191,44.191,0,0,0-5.983-1.71l-0.46,1.02A28.809,28.809,0,0,1,731.456,1041.45Zm-4.971,24.3c-1.61,0-3.083-1.61-4.234-2.99l-0.69.41a8.607,8.607,0,0,0,1.012,3.5c1.105,1.66,4.051,3.64,5.661,3.64,1.335,0,1.841-1.29,2.9-1.94,10.171-5.7,20.067-14.17,25.13-23.42l-0.967-.65C747.105,1055.26,730.26,1065.75,726.485,1065.75Zm-0.736-15.05c2.3,1.84,3.084,3.59,4.741,3.59a1.6,1.6,0,0,0,1.657-1.7c0-2.07-2.118-3.78-5.063-4.84a43.976,43.976,0,0,0-6.168-1.65l-0.414.96A29.153,29.153,0,0,1,725.749,1050.7Zm76.836-4.7-2.439,2.4H789.514c1.242-.97,1.058-3.78-2.762-6.17a68.4,68.4,0,0,0,12.8-6.03,3.3,3.3,0,0,0,2.025-.46l-4-3.86-2.485,2.3H769.217l0.368,1.33h24.623a78.83,78.83,0,0,1-8.376,6.17,30.834,30.834,0,0,0-9.389-2.76l-0.276.64c5.615,2.67,9.573,6.44,11.046,8.84H763.878l0.414,1.29h18.916v18.08c0,0.7-.322.97-1.242,0.97-1.243,0-7.779-.41-7.779-0.41v0.64c2.854,0.37,4.327.88,5.2,1.47a3.47,3.47,0,0,1,1.335,2.72c5.477-.46,6.305-2.39,6.305-5.25v-18.22h12.979a63.582,63.582,0,0,1-6.9,9.66l0.506,0.37a58.743,58.743,0,0,0,11.138-9.2,2.763,2.763,0,0,0,1.933-.56Zm25.286-14.63-2.255,2.21h-5.063l-4.142-1.7v41.19h0.644c1.8,0,2.9-.97,2.9-1.25v-36.91H825.8c-0.967,3.55-2.532,8.79-3.636,11.6a14.126,14.126,0,0,1,4.05,9.76c0,1.56-.414,2.48-1.151,2.85a1.949,1.949,0,0,1-1.15.28h-3.176v0.69a4.327,4.327,0,0,1,2.255.87,5.683,5.683,0,0,1,.645,2.99c4.648-.18,6.305-2.43,6.259-6.67,0-3.54-1.795-7.59-6.582-10.91a95.1,95.1,0,0,0,6.628-10.44,2.984,2.984,0,0,0,2.117-.56Zm22.782,7.82H843.2v-6.58c1.151-.18,1.565-0.64,1.657-1.29l-5.293-.5v8.37h-11l0.368,1.29h8.1c-0.046,13.9-1.657,24.03-12.565,32.08l0.368,0.55c11-5.38,14.5-13.21,15.7-23.79h9.251c-0.553,10.31-1.519,17.35-2.992,18.64a2.424,2.424,0,0,1-1.8.55c-1.012,0-4.372-.28-6.4-0.51v0.79a11.583,11.583,0,0,1,4.464,1.47,3.105,3.105,0,0,1,.875,2.53,7.636,7.636,0,0,0,5.384-1.79c2.3-2.17,3.452-9.3,3.959-21.13a3.062,3.062,0,0,0,1.933-.74l-3.866-3.26-2.026,2.16h-8.7c0.23-2.39.368-4.88,0.414-7.55h15.188a1.1,1.1,0,0,0,1.2-.73c-1.611-1.57-4.373-3.78-4.373-3.78Zm34.308,4.15a21.662,21.662,0,0,1-1.749,7.45c-1.795,4.01-5.983,11-8.883,11-1.887,0-3.774-3.36-3.774-7.55a14.725,14.725,0,0,1,4.557-10.4,17.27,17.27,0,0,1,8.514-4.65A7.536,7.536,0,0,1,884.961,1043.34Zm-0.69,26.41c15.142-.87,20.343-8.6,20.343-16.52,0-9.57-7.364-16.11-17.168-16.11a20.036,20.036,0,0,0-13.577,4.93,17.867,17.867,0,0,0-6.351,13.11c0,5.8,3.267,10.91,6.535,10.91,4.971,0,10.264-8.79,12.2-14.4a23.309,23.309,0,0,0,1.473-7.64,8.653,8.653,0,0,0-2.3-5.16c0.6-.04,1.151-0.09,1.7-0.09,7.594,0,13.485,5.29,13.485,13.53,0,8.28-5.154,14.22-16.522,16.43Zm40.8-38.57a13.049,13.049,0,0,1,3.589,6.45c3.5,2.53,6.674-4.6-3.129-6.77Zm-9.021,20.35,0.414,1.33h38.707a1.128,1.128,0,0,0,1.242-.73c-1.656-1.52-4.418-3.59-4.418-3.59l-2.393,2.99H937.678v-5.48h13.716a1.1,1.1,0,0,0,1.2-.74c-1.564-1.42-4.188-3.4-4.188-3.4l-2.255,2.81h-8.469v-5.2h16.109a1.065,1.065,0,0,0,1.243-.74c-1.7-1.52-4.373-3.59-4.373-3.59l-2.393,2.99h-7.548a47.044,47.044,0,0,0,5.477-5.15,1.422,1.422,0,0,0,1.7-.79l-5.247-1.75a60.758,60.758,0,0,1-3.314,7.69H918.026l0.368,1.34h15.464v5.2H920.419l0.368,1.33h13.071v5.48H916.047ZM956,1060.32a1.068,1.068,0,0,0,1.2-.74c-1.657-1.52-4.511-3.63-4.511-3.63l-2.439,3.03H936.758c0.23-1.19.368-2.44,0.506-3.72a1.533,1.533,0,0,0,1.565-1.25l-5.615-.5a32.538,32.538,0,0,1-.6,5.47H915.034l0.414,1.34h16.845c-1.564,5.11-5.707,8.79-17.673,11.97l0.322,0.87c15.6-2.81,19.929-6.95,21.494-12.84h0.69c2.946,7.45,8.561,10.77,17.535,12.61a4.163,4.163,0,0,1,2.9-3.41l0.046-.5c-8.975-.83-15.925-3.04-19.422-8.7H956Zm18.383,7.32V1054.8h24.577v12.84H974.379Zm24.577-26.47v12.29H974.379v-12.29h24.577Zm1.614-3.82-2.167,2.44H982.8a78.683,78.683,0,0,0,5.2-6.86,1.507,1.507,0,0,0,1.657-.96l-5.891-1.43a84.593,84.593,0,0,1-2.348,9.25h-6.673l-4.189-1.79v34.93H971.2c1.7,0,3.176-.97,3.176-1.43v-2.53h24.577v3.78h0.552a5.172,5.172,0,0,0,3.362-1.39v-29.27a4.94,4.94,0,0,0,2.35-1.1Zm52.22-3.18h-13.3v1.93l5.84,0.76,0.05,18.13c0,9.95-3.25,13.6-9.75,13.6-5.73,0-9.39-3.09-9.39-12.64v-4.57c0-4.97,0-9.85.1-14.67l5.64-.61v-1.93h-15.54v1.93l4.67,0.51c0.05,4.87.05,9.85,0.05,14.77v5.84c0,10.61,5.49,14.98,13.56,14.98,7.67,0,13.05-4.47,13.05-15.89l0.05-19.55,4.97-.66v-1.93Zm42.7,0h-12.74v2.13l5.13,0.51-9.04,27.92-9.75-27.97,5.44-.46v-2.13h-15.08v1.93l4.21,0.46,13,35.18h2.33l11.68-35.03,4.82-.66v-1.88Z" transform="translate(-305.344 -970.438)"/>
</svg>
