<?xml version="1.0" encoding="utf-8"?>
<!-- Generator: Adobe Illustrator 26.0.3, SVG Export Plug-In . SVG Version: 6.00 Build 0)  -->
<svg version="1.1" id="head-block-04_sp.svg" xmlns="http://www.w3.org/2000/svg" xmlns:xlink="http://www.w3.org/1999/xlink"
	 x="0px" y="0px" viewBox="0 0 393.5 101.7" style="enable-background:new 0 0 393.5 101.7;" xml:space="preserve">
<style type="text/css">
	.st0{opacity:0.2;fill:#1E9FE0;enable-background:new    ;}
	.st1{fill:#1147B4;}
</style>
<rect id="長方形_978" x="63.7" y="89.7" class="st0" width="258" height="13"/>
<g>
	<path class="st1" d="M111.4,55.6v4.8H68.9v-4.8h18.6c-0.4-1.1-0.7-2.4-1.1-3.4l5.9-1.4c0.6,1.6,1.3,3.3,1.8,4.8
		C94.1,55.6,111.4,55.6,111.4,55.6z M110.2,90.7c0,2.5-0.6,3.5-2.4,4.2c-1.7,0.6-4.4,0.6-7.6,0.6c-0.3-1.3-1-2.8-1.7-4.1H84.7v2
		h-5.2V80.7h21v10.6h-0.7c1.7,0,3.4,0,3.8,0c0.7,0,1-0.1,1-0.8V78.8H75.8v16.9h-5.5V74.4h40.1v16.3H110.2z M105.7,72.5H75.3V62.3
		h30.5v10.2H105.7z M99.6,66.1H80.9v2.5h18.7C99.6,68.6,99.6,66.1,99.6,66.1z M95.4,84.9H84.7v2.7h10.6v-2.7H95.4z"/>
	<path class="st1" d="M118.7,53.3h25.2v5.4h-10.5c-0.6,1.6-1.1,3.1-1.7,4.4h11.8v27.6c0,2.1-0.3,3.3-1.6,4.1
		c-1.1,0.7-2.7,0.8-4.8,0.8c-0.1-1-0.6-2.7-1.1-4h-3.1V68.1h-2.3v23.8H127V68.1h-2.5v27.6h-4.7V63.1h6.8c0.4-1.4,0.8-2.8,1.3-4.4
		h-9.2L118.7,53.3C118.7,53.3,118.7,53.3,118.7,53.3z M138.9,68.1h-2.3v23.4c0.8,0,1.6,0,1.8,0c0.4,0,0.6-0.1,0.6-0.6V68.1H138.9z
		 M163.2,66.5h-3v23.2c0,2.8-0.6,4.2-2.3,5.2c-1.6,0.8-4.1,1.1-7.5,1.1c-0.3-1.6-1.1-4-2-5.4c2.3,0.1,4.4,0.1,5.1,0.1s1-0.3,1-1
		V66.5h-10.1v-5.4h10.1v-9.8h5.5v9.8h3v5.4H163.2z M149.3,70.3c1.8,3.4,3.5,7.6,4,10.5l-5,1.8c-0.3-2.8-1.8-7.4-3.5-10.8L149.3,70.3
		z"/>
	<path class="st1" d="M201.7,60c-1.1,4.7-2.7,8.9-4.7,12.7c3.3,7.9,9.2,14.7,17.1,18c-1.4,1.3-3.3,3.5-4.2,5.1
		c-7.2-3.5-12.6-9.5-16.4-17c-5.2,7.9-12.3,13.7-20.1,17.1c-0.8-1.4-3-4.1-4.5-5.1c11.5-4.5,20.7-13.6,24.9-26.8h-10.1
		c-2.8,5.4-6.4,10.1-10.2,13.6c-1-1.1-3.7-3.3-5.1-4.2c6.5-4.8,11.3-13.2,14-22.2l6.4,1.4c-0.6,2-1.4,4-2.1,5.8h9.8l1.1-0.3
		L201.7,60z"/>
	<path class="st1" d="M236.3,76.8c-1.7,0.4-3.4,1-5.1,1.4v11.5c0,2.8-0.6,4.1-2.1,5.1c-1.6,0.8-4,1-7.4,1c-0.1-1.4-0.8-3.7-1.6-5.2
		c1.8,0,3.8,0,4.5,0s0.8-0.3,0.8-1v-9.9l-4.7,1.1l-1.6-5.4c1.8-0.4,3.8-0.8,6.2-1.4v-8.5H220v-5.2h5.5v-9.2h5.7v9.1h4.7v5.2h-4.7
		v7.1l4.4-1.1L236.3,76.8z M262.9,70.3c-1.8,6.7-5,11.9-9.1,16c3.1,2.3,6.9,3.8,11.2,4.8c-1.1,1.1-2.8,3.4-3.7,5
		c-4.7-1.4-8.6-3.4-12-6.1c-3.8,2.5-7.9,4.5-12.7,5.9c-0.6-1.6-2-4-3-5.2c4.2-1,8.1-2.5,11.5-4.7c-2.8-3.3-5.1-7.1-6.8-11.5l1.4-0.4
		h-2.5V69h9.5v-5.8h-10.2v-5.4h10.3V51h5.7v7h10.8v5.2h-10.8V69h5.8l1-0.3L262.9,70.3z M243.9,74.2c1.4,3.1,3.3,6.1,5.7,8.5
		c2.5-2.4,4.7-5.2,6.1-8.5H243.9z"/>
	<path class="st1" d="M314.9,71.3h-3.7v18c0,2.7-0.4,4.2-2.1,5.1s-4,1-7.2,1c-0.1-1.6-0.8-4-1.6-5.5c2,0.1,4,0.1,4.5,0
		c0.6,0,0.8-0.1,0.8-0.7V71.3h-4.2v-3.8h-7.1v28.3h-5V67.5h-6.2v-3.3c-0.7,1.7-1.7,3.5-2.8,5.2V96h-5.2V76.8c-0.8,1-1.8,2.1-2.7,2.8
		c-0.6-1.1-2.1-4.1-3.1-5.2c3.7-3.3,7.4-8.2,9.3-13.3l4.5,1.6v-0.3h6.4V51.2h5v11.2h7.2v4h13.2L314.9,71.3L314.9,71.3z M283.2,52.9
		c-2.5,4.2-6.4,8.9-10.1,11.8c-0.7-1.1-2-3.3-3-4.2c3-2.4,6.2-6.2,7.8-9.3L283.2,52.9z M288.1,70.2c0,9.2-0.6,15.2-4.2,18.8
		c-0.4-1-1.7-2.5-2.7-3.3c2.7-3,2.8-7.6,3-15.6C284.2,70.2,288.1,70.2,288.1,70.2z M298.9,61.4c-0.7-1.7-2.3-4.2-3.7-6.2l3.4-1.8
		c1.6,1.8,3.1,4.4,4,5.9L298.9,61.4z M300.6,87.8c-3.8,0-4.5-1.4-4.5-5.7V70.2h4.1v11.9c0,1.3,0,1.7,0.3,1.7h1.1
		c0.4,0,1.1-0.1,1.6-0.3c0.1,1,0.3,3,0.4,3.8c-0.6,0.3-1.3,0.3-2,0.3h-1V87.8z M314.2,59.7h-11.5v-5.1h11.5V59.7z"/>
</g>
<g>
	<path d="M12.5,19.1c1.5,2.6,3.6,6.1,4.4,8.3l-3.6,1.9c-0.3-0.8-0.7-1.8-1.1-2.8c-7.5,2.4-8.7,2.9-9.7,3.5c-0.2-1-0.8-2.8-1.5-3.8
		c0.7-0.4,1.5-1,1.5-2.2V2.6H16v15.8H6.6v6.2l4.3-1.2c-0.6-1-1-1.8-1.5-2.6L12.5,19.1z M6.6,5.9v2.8h5.7V5.9H6.6z M12.2,14.9V12H6.6
		v2.9H12.2z M29.3,21.1c0,1.7-0.3,2.8-1.4,3.3c-1,0.6-2.5,0.7-4.6,0.7c-0.1-1-0.6-2.6-1.1-3.6c1.1,0,2.4,0,2.6,0
		c0.4,0,0.6-0.1,0.6-0.6V6.2h-3.9v24.6h-3.9v-28H29v18.3C29,21.1,29.3,21.1,29.3,21.1z"/>
	<path d="M53.7,19.1c-0.3,1.9-0.8,3.9-1.8,5.6c2.9,1.4,6.7,2.4,11,2.6c-0.8,0.8-1.8,2.4-2.2,3.3c-4.3-0.6-7.9-1.7-11-3.3
		c-1.5,1.4-3.7,2.6-6.5,3.5c-0.4-0.8-1.5-2.4-2.4-3.2c2.5-0.6,4.4-1.4,5.8-2.5c-1.5-1.2-2.8-2.9-3.9-4.7l3.1-1
		c0.8,1.2,1.8,2.4,2.9,3.3c0.7-1.1,1-2.4,1.2-3.6h-7.1V9.8h7.4V7.6h-8.1V4.7c-0.6,1.2-1.2,2.5-1.9,3.6v22.6h-3.6V13.7
		c-0.8,1.1-1.7,2.1-2.6,3.1c-0.4-1-1.4-2.9-1.9-3.9c3.1-2.9,6-7.4,7.8-11.9l3.4,1c-0.3,0.7-0.6,1.4-0.8,2.1h7.8V1.2H54v2.9h8.5v3.5
		H54v2.2h7.6v9.3H53.7z M50.3,16.1v-0.4v-2.8h-3.9v3.2H50.3z M54,12.9v2.8v0.4h4v-3.2C58,12.9,54,12.9,54,12.9z"/>
	<path d="M93.7,5.4V9H76.6c-1.1,2.2-2.2,4.3-3.7,6.2v15.4H69V19.5c-0.8,0.8-1.8,1.5-2.8,2.2c-0.4-1-1.2-2.8-1.9-3.6
		c3.3-2.2,6-5.6,7.9-9.2h-6.9V5.4h8.6c0.6-1.5,1-2.9,1.4-4.4l4,1c-0.4,1.2-0.8,2.4-1.2,3.5L93.7,5.4L93.7,5.4z M86.1,26.5h7.5V30
		H74.4v-3.5h7.8v-7.4h-6.5v-3.5h6.5v-5.3h3.9v5.3h6.2v3.5h-6.4v7.4H86.1z"/>
	<path d="M102.2,15.6c0,4.4-0.4,11-3.2,15.1c-0.6-0.7-2.1-1.8-2.9-2.1c2.4-3.7,2.5-9.2,2.5-13V8.3h27.1v3.1h-23.5V15.6z M110.8,7.3
		h-10.4V2h10.4V7.3z M124.7,17.2c-0.6,2.9-1.5,5.3-2.6,7.4c1.2,1.5,2.9,2.6,4.7,3.3c-0.8,0.7-1.8,1.9-2.4,2.9
		c-1.7-0.8-3.2-2.1-4.4-3.6c-1.2,1.4-2.9,2.5-4.7,3.5c-0.4-0.7-1.5-1.9-2.2-2.6v2.5H110v-2.2c-2.9,0.4-5.8,0.7-8.1,1l-0.4-2.8
		l2.1-0.1V18h-1v-2.4h4.2v-1.2h-3.5V12h10.5v2.4h-3.7v1.2h4.2V18h-1.1v1.9c1.8-1.9,2.9-5.1,3.5-8.5l3.2,0.6
		c-0.1,0.7-0.3,1.4-0.4,1.9h6.2v2.9h-1C124.7,16.8,124.7,17.2,124.7,17.2z M107.3,4h-3.6v1.4h3.6V4z M106.5,18.3v1.2h3.3v-1.2H106.5
		z M106.5,22.7h3.3v-1.4h-3.3V22.7z M110,25.9v-1.4h-3.3v1.7L110,25.9z M123.6,7.3H113V2h10.5L123.6,7.3L123.6,7.3z M113,28.3
		c2.1-1,3.7-2.1,5-3.6c-0.6-1.1-1.1-2.2-1.7-3.5c-0.3,0.4-0.6,0.8-1,1.2c-0.6-0.6-1.7-1.7-2.4-2.2C113,20.2,113,28.3,113,28.3z
		 M120,4h-3.7v1.4h3.7V4z M118.3,17.2l-0.1,0.4c0.4,1.4,1,2.8,1.7,4c0.7-1.2,1.1-2.8,1.4-4.4C121.2,17.2,118.3,17.2,118.3,17.2z"/>
	<path d="M135.1,6.9h-6V3.4h6V0.9h3.7v2.5h3.6v3.5h-3.6v2.5h-3.7V6.9z M129.1,10.5h28.5v3.6h-4.2v12.6c0,2.1-0.6,3.1-1.9,3.6
		c-1.5,0.6-3.6,0.6-6.5,0.6c-0.1-1.1-0.8-2.6-1.4-3.6c1.9,0.1,4.4,0.1,5,0.1c0.7,0,0.8-0.1,0.8-0.7V14.3h-20.3L129.1,10.5
		L129.1,10.5z M136.2,25.4v2.4h-3.7v-12h13v9.6C145.5,25.4,136.2,25.4,136.2,25.4z M136.2,19v3.3h5.4V19H136.2z M157.6,3.4v3.3h-6.1
		v2.5h-3.7V6.8h-3.9V3.4h3.9V0.9h3.7v2.5H157.6z"/>
	<path d="M189.4,5.9c0,0,0,1.2,0,1.7c-0.4,14.3-0.8,19.3-2.1,21.1c-0.8,1.2-1.8,1.5-3.1,1.8c-1.2,0.1-3.2,0.1-5,0
		c0-1.1-0.6-2.6-1.2-3.7c2.1,0.1,3.9,0.1,4.7,0.1c0.7,0,1-0.1,1.4-0.6c1-1,1.4-5.8,1.7-17.1H179c-0.8,1.9-1.8,3.6-2.8,5
		c-0.6-0.4-1.5-1.2-2.5-1.8v15h-8.5v2.4h-3.5V6.1h3.6c0.4-1.5,0.8-3.6,1-5.1l4.2,0.6c-0.6,1.5-1.1,3.2-1.7,4.6h5v5.1
		c1.8-2.6,3.3-6.5,4.3-10.3l3.6,0.8c-0.4,1.4-0.8,2.8-1.2,4h8.9L189.4,5.9L189.4,5.9z M170.2,9.4h-5.1v5.1h5.1V9.4z M170.2,24.1
		v-6.2h-5.1v6.2C165.1,24.1,170.2,24.1,170.2,24.1z M180.9,22.4c-0.8-1.9-2.9-5-4.4-7.4l2.9-1.7c1.5,2.2,3.7,5.3,4.7,7.1L180.9,22.4
		z"/>
	<path d="M221.6,23.6c-1.2,0.7-2.5,1.2-3.6,1.8c1.2,1,2.8,1.7,4.4,2.1c-0.8,0.7-1.8,1.9-2.2,2.9c-4.3-1.4-7.1-4.4-8.7-8.5
		c-1,0.8-1.9,1.5-3.1,2.2v2.8l4.4-0.8c-0.1,0.8-0.1,2.1,0,2.8c-5.8,1.2-6.9,1.5-7.5,1.9c-0.1-0.7-0.8-1.9-1.2-2.5
		c0.6-0.3,1.2-0.8,1.2-2.2v-0.3c-0.8,0.4-1.8,0.7-2.6,1c-0.4-0.6-1-1.2-1.5-1.8v0.3c-2.9,0.8-6.1,1.7-8.6,2.4l-0.7-3.5
		c1-0.1,1.9-0.4,3.2-0.7v-7.9h-2.5v-3.3h2.5v-6h-2.8V2.7h8.6V6h-2.6v6h2.4v3.3h-2.4v7.1l2.4-0.7l0.3,2.2c2.2-0.6,4.6-1.5,6.5-2.6
		h-3.6v-6.9h16v6.9h-5.3c0.4,0.8,0.8,1.5,1.4,2.2c1.1-0.7,2.4-1.5,3.2-2.1L221.6,23.6z M221.6,13.3H202v-3.1h19.6V13.3z M220.6,9.3
		h-17.4V1.9h17.4V9.3z M208.2,4.5h-1.9v2.1h1.9V4.5z M207.3,18.7h9v-1.8h-9V18.7z M212.8,4.5h-1.9v2.1h1.9V4.5z M217.4,4.5h-2.1v2.1
		h2.1V4.5z"/>
	<path d="M235,23c-3.3,1.4-6.9,2.8-9.9,4l-1.2-3.9c1.1-0.3,2.4-0.7,3.6-1.2v-9.7h-3.1V8.6h3.1V1.3h3.7v7.2h2.8v3.6h-2.8v8.6
		c1-0.4,1.9-0.7,2.9-1.1L235,23z M249.7,27.4c0.3,0,0.6,0,0.7,0s0.3-0.3,0.4-0.7c0-0.4,0.1-1.2,0.1-2.4c0.7,0.6,1.9,1.2,2.9,1.5
		c-0.1,1.2-0.3,2.5-0.4,3.1c-0.3,0.6-0.7,1-1.4,1.2c-0.4,0.1-1.4,0.3-1.9,0.3H248c-0.8,0-1.8-0.3-2.4-0.8c-0.6-0.6-0.8-1.2-0.8-3.2
		v-3.9h-2.4c-0.6,4.2-2.1,6.8-8.1,8.3c-0.3-0.8-1.2-2.2-1.9-2.9c4.9-1,6.1-2.6,6.5-5.4h-2.6V13h15.3v9.6h-3.3v4c0,0.4,0,0.7,0.1,0.8
		s0.3,0.1,0.6,0.1h0.7L249.7,27.4L249.7,27.4z M252.9,11.8h-18V8.6h3.9c-0.1-0.7-0.4-1.5-0.7-2.1l3.1-0.6c0.4,0.8,0.8,1.9,1,2.8h3.6
		c0.4-0.8,0.7-1.9,1-2.8l3.5,0.7c-0.4,0.7-0.7,1.4-1.1,2.1h4v3.1C253.2,11.8,252.9,11.8,252.9,11.8z M252.1,5.9h-16.4v-3h6.4
		c-0.1-0.6-0.4-1.1-0.6-1.5l3.6-0.7c0.3,0.7,0.6,1.5,0.8,2.2h6.1L252.1,5.9L252.1,5.9z M239.6,16.6h8.2v-1.4h-8.2V16.6z M239.6,20.1
		h8.2v-1.4h-8.2V20.1z"/>
	<path d="M272.4,7.2v5l0.7-0.7c3.5,1.7,8.5,4.4,10.8,6.4l-2.8,3.5c-1.8-1.7-5.6-4-8.7-5.8v15.1h-4V7h-11.5V3.3h28.5v3.9
		C285.3,7.2,272.4,7.2,272.4,7.2z"/>
	<path d="M310.3,26.9c2.9,0,3.3-0.8,3.7-5c1,0.6,2.5,1.2,3.6,1.4c-0.7,5.3-1.9,7.1-7.1,7.1h-10c-5.6,0-7.2-1.2-7.2-6.2v-8.6
		l-4.4,1.4l-1-3.5l5.4-1.7V3.1h3.7v7.5l4.9-1.5V0.9h3.7v6.9l6-1.8l1-0.7l2.8,0.8l-0.1,0.6c-0.1,4.4-0.7,10.4-1.4,14.3l-3.2-0.8
		c0.4-2.6,0.7-6.7,0.8-10.4l-5.8,1.9v11.9H302V12.9l-4.9,1.5v9.7c0,2.4,0.4,2.8,3.6,2.8C300.7,26.9,310.3,26.9,310.3,26.9z"/>
	<path d="M330.5,9.4c-0.7,1.2-1.7,2.6-2.6,3.9v17.5h-3.7V17.6c-1,1-1.9,1.8-2.8,2.6c-0.3-0.8-1.2-3.1-1.8-3.9
		c2.8-1.9,5.8-5.1,7.6-8.2L330.5,9.4z M330,2.5c-2.1,2.9-5.3,6.1-8.2,8.1c-0.4-0.8-1.4-2.4-1.9-3.2c2.4-1.5,5.1-4.2,6.4-6.2L330,2.5
		z M348.8,19.8c-1.5,1.2-3.3,2.5-4.9,3.3c1.5,1.8,3.5,3.2,5.8,4.2c-0.8,0.7-1.9,2.2-2.5,3.3c-5.4-2.5-8.3-7.4-10.1-13.7h-1.9v9
		l4.4-1c0,1.1,0,2.6,0.1,3.5c-6.2,1.7-7.5,2.1-8.2,2.5c-0.3-0.8-1.1-2.4-1.7-2.9c0.7-0.4,1.5-1.2,1.5-2.8v-23h15.4v14.7h-6.4
		c0.4,1.4,1,2.6,1.7,3.9c1.4-1,3.2-2.4,4.3-3.5L348.8,19.8z M335.2,5.5V8h8.1V5.5H335.2z M335.2,13.6h8.1v-2.5h-8.1V13.6z"/>
	<path d="M363.1,16.9c0,0,0,1-0.1,1.5c-0.4,6.9-0.8,9.9-1.8,10.8c-0.7,0.8-1.4,1.1-2.5,1.2c-0.8,0.1-2.4,0.1-3.9,0
		c0-1.1-0.4-2.5-1.1-3.5c1.2,0.1,2.6,0.1,3.2,0.1s0.8,0,1.1-0.4c0.6-0.6,0.8-2.4,1.1-6.5h-7.2c0.6-2.8,1-7.1,1.2-10.5h6.1V5.9h-6.8
		V2.6h10.3v10.7h-6.5c-0.1,1.2-0.3,2.5-0.4,3.6H363.1z M378.7,30.9c-0.1-0.6-0.4-1.2-0.7-1.9c-5.1,0.4-10.5,0.8-14.4,1.1l-0.4-3.7
		c1.9,0,4.4-0.1,7.2-0.4v-3.6h-6.1v-9h6.1v-2.5h3.6v2.5h6.2v9h-1.7c1.4,2.2,3.1,5.1,3.6,7.1L378.7,30.9z M378.7,12
		c-0.3-0.6-0.7-1.2-1.1-1.9c-10.3,0.8-11.8,1.1-12.8,1.4c-0.3-0.7-0.8-2.4-1.2-3.2c0.6-0.1,1.1-0.6,1.7-1.4c0.6-0.7,2.4-3.3,3.5-5.8
		l4,1c-1.1,1.9-2.6,4-4,5.8l6.8-0.6c-0.6-0.8-1.2-1.5-1.9-2.2l2.6-1.7c1.9,1.9,4.3,4.7,5.3,6.8L378.7,12z M370.4,19.4v-2.9h-2.8v2.9
		H370.4z M374,16.5v2.9h2.8v-2.9H374z M376.5,25.6c-0.4-0.7-0.8-1.4-1.1-2.1l2.9-1.2H374v3.5L376.5,25.6z"/>
	<path d="M385.8,25.4c0-1.8,1.2-3.1,2.9-3.1c1.7,0,2.9,1.2,2.9,3.1c0,1.7-1.2,3.1-2.9,3.1C387,28.4,385.8,27,385.8,25.4z M386.5,8.1
		l-0.1-4.4h4.7L391,8.1l-0.7,11.8h-3.1L386.5,8.1z"/>
</g>
</svg>
