<svg xmlns="http://www.w3.org/2000/svg" width="526.5" height="180.34" viewBox="0 0 526.5 180.34">
  <defs>
    <style>
      .cls-1 {
        fill: #fff;
        fill-rule: evenodd;
      }
    </style>
  </defs>
  <path id="head-about_sp.svg" class="cls-1" d="M184.472,2001.68H173.385v1.92l4.444,0.47-6.69,27.44-7.312-27.48,4.874-.43v-1.92h-14.05v1.92l4.827,0.43-7.312,27.43-6.834-27.48,4.492-.38v-1.92H136.252v1.92l3.823,0.33,9.08,33.79h3.154l7.886-29.06,8.028,29.06h3.2l8.6-33.65,4.444-.47v-1.92Zm39.036,12.81v6.07h-17.73v-6.07h17.73Zm-17.73,13.57v-6.16h17.73v6.16h-17.73Zm21.649-23.22H210.318c0.908-1.77,1.673-3.49,2.342-5.16,1.29,0.09,1.72-.24,1.911-0.82l-5.782-1.81a55.528,55.528,0,0,1-2.868,7.79H191.3l0.334,1.38h13.62a48,48,0,0,1-14.432,18.07l0.478,0.62a42.507,42.507,0,0,0,10.657-8.17v24.51h0.669c1.911,0,3.154-.95,3.154-1.24v-10.56h17.73v6.17c0,0.71-.191,1-1.1,1-1.051,0-6.069-.34-6.069-0.34V2037c2.294,0.34,3.488.81,4.2,1.44a4.338,4.338,0,0,1,1.1,2.81c5.114-.47,5.735-2.24,5.735-5.16v-20.74a3.618,3.618,0,0,0,2.2-1.1l-4.636-3.49-1.959,2.35H206.352l-0.956-.39a51.517,51.517,0,0,0,4.205-6.5h23.943a1.075,1.075,0,0,0,1.243-.76c-1.768-1.62-4.779-3.87-4.779-3.87Zm16.623,1.67h23.895a1.11,1.11,0,0,0,1.242-.72c-1.625-1.57-4.4-3.77-4.4-3.77l-2.39,3.15h-4.492v-6.11c1.147-.15,1.625-0.63,1.72-1.29l-5.543-.53v7.93H243.667Zm14.241,2.25c2.2,1.96,4.684,5.3,5.257,8.07,3.871,2.63,6.738-5.44-4.827-8.45Zm-13.477,11.28a34.365,34.365,0,0,0,9.128-9.32c1.1,0.14,1.529-.1,1.816-0.58l-4.97-2.43a37.974,37.974,0,0,1-6.5,11.75Zm13.429-3.83a51.172,51.172,0,0,1-2.15,6.88,45.248,45.248,0,0,0-7.647-3.77l-0.525.48a64.7,64.7,0,0,1,6.929,6.16,39.357,39.357,0,0,1-11.47,14.67l0.478,0.58a36.62,36.62,0,0,0,13.334-12.67,25.039,25.039,0,0,1,3.871,6.02c3.489,2.06,5.257-3.39-1.959-9.31a44.392,44.392,0,0,0,2.819-6.41c1.243,0.05,1.625-.24,1.864-0.81Zm25.473-9.03-2.1,2.29h-5.687c0.1-3.15.1-6.45,0.143-9.89a1.639,1.639,0,0,0,1.673-1.34l-5.544-.57c0,4.16.048,8.08,0,11.8h-5.974l0.43,1.44h5.5c-0.334,12.18-2.055,22.08-10.753,29.58l0.67,0.76c11.326-7.26,13.381-17.63,13.811-30.34h6.26c-0.286,15.34-.812,23.65-2.341,25.18a1.991,1.991,0,0,1-1.673.58c-0.956,0-3.68-.19-5.352-0.39v0.82a9.341,9.341,0,0,1,3.871,1.43,3.412,3.412,0,0,1,.764,2.68,6.723,6.723,0,0,0,5.209-2.11c2.151-2.48,2.868-10.41,3.155-27.71a3.193,3.193,0,0,0,1.959-.77Zm42.716-8.32a15.329,15.329,0,0,1,5.782,5.36c3.68,1.72,5.257-5.45-5.4-5.83ZM340,2029.26l-0.526-.14a48.767,48.767,0,0,1-2.341,5.59c-0.478.86-.813,0.86-1.673,0.19a19.676,19.676,0,0,1-6.356-6.64,45.785,45.785,0,0,0,6.738-13c1.291,0.04,1.721-.24,1.912-0.86l-5.687-1.82a46.33,46.33,0,0,1-4.731,12.24,50.6,50.6,0,0,1-3.585-16.54h15.437a1.142,1.142,0,0,0,1.242-.77c-1.72-1.52-4.636-3.77-4.636-3.77l-2.485,3.15H323.66c-0.191-2.53-.239-5.06-0.191-7.64a1.666,1.666,0,0,0,1.72-1.34l-5.591-.62c0,3.3.095,6.5,0.334,9.6H305.691l-4.493-1.76v12.09c0,8.03-.478,16.77-5.209,23.8l0.621,0.47c7.695-6.59,8.411-16.58,8.411-24.03h7.886c-0.191,8.02-.717,12.04-1.577,12.85a1.717,1.717,0,0,1-1.386.43c-0.86,0-3.106-.19-4.349-0.29l-0.048.77a6.426,6.426,0,0,1,3.059,1.19,3.524,3.524,0,0,1,.717,2.49,6.334,6.334,0,0,0,4.444-1.39c1.816-1.57,2.485-5.83,2.772-15.58a2.707,2.707,0,0,0,1.864-.71l-3.919-3.21-2.007,2.06h-7.456v-7.79h15.007c0.669,7.65,2.1,14.58,4.97,20.26a38.991,38.991,0,0,1-13.429,11.85l0.43,0.63a38.664,38.664,0,0,0,14.528-9.75,24.9,24.9,0,0,0,6.93,7.36c2.246,1.67,5.543,3.1,6.882,1.48,0.477-.53.334-1.44-1.195-3.49Zm23.934-31.92c-2.341,7.07-7.646,15.67-14.767,20.98l0.478,0.57c8.7-4.35,14.767-12.09,18.017-18.64,1.195,0.14,1.577-.14,1.816-0.72Zm16.536,18.87H355.766l0.43,1.39H365.8c-0.43,7.12-2.1,15.67-14.863,22.89l0.574,0.76c15.149-6.54,17.73-15.57,18.543-23.65H380.9c-0.526,9.51-1.625,16.92-3.154,18.25a2.679,2.679,0,0,1-1.96.58c-1.194,0-5.3-.34-7.742-0.58l-0.047.77c2.2,0.33,4.587.96,5.448,1.62a3.134,3.134,0,0,1,1.051,2.73,8.423,8.423,0,0,0,5.926-1.91c2.485-2.2,3.776-9.99,4.349-20.89a3.135,3.135,0,0,0,1.959-.76l-4.062-3.44Zm-4.97-18.64a37.384,37.384,0,0,0,15.006,20.12,4.4,4.4,0,0,1,3.441-3.15l0.143-.53c-6.929-3.15-14.719-9.41-17.826-16.87Zm39.131,11.24h-2.58v-6.79h2.58v6.79Zm5.735,1.38v8.94c-0.239.05-.525,0.09-0.717,0.14h-2.007c-0.382,0-.478-0.14-0.478-0.62v-8.46h3.2ZM406.7,2035.38v-6.55H420.37v6.55H406.7Zm2.82-25.19v1.96c0,3.35-.143,7.6-2.82,11.18v-13.14h2.82Zm8.7,11.66a13.708,13.708,0,0,0,2.15-.14v5.73H406.7v-3.77l0.478,0.57c4.492-3.49,4.875-8.65,4.875-12.09v-1.96h2.58v9.37c0,1.58.335,2.29,2.294,2.29h1.291Zm1.338-21.22H402.067l0.382,1.39h6.691v6.79h-2.2l-3.584-1.73v33.98h0.573c1.482,0,2.772-.86,2.772-1.24v-3.06H420.37v3.49H420.9c1.195,0,2.867-.81,2.915-1.15v-28.34a3.574,3.574,0,0,0,1.96-.9l-4.015-3.16-1.864,2.11h-2.341v-6.79h7.359a1.2,1.2,0,0,0,1.291-.72c-1.673-1.53-4.349-3.63-4.349-3.63Zm25.615,27.72h-0.621a55.673,55.673,0,0,1-1.672,7.12,1,1,0,0,1-1,.67c-0.669.1-2.2,0.1-4.253,0.1H433.13c-1.816,0-2.007-.29-2.007-1.2v-19.97h8.555v4.3h0.573c1.147,0,2.963-.77,3.011-1.1v-15.49a3.629,3.629,0,0,0,2.246-1.05l-4.444-3.44-1.96,2.3H427.013l0.43,1.33h12.235v11.76h-8.029l-4.158-1.77v24.04c0,2.92.956,3.73,4.922,3.73h5.018c7.551,0,9.272-.67,9.272-2.34,0-.67-0.287-1.15-1.386-1.58Zm21.832,7.84v-11.28h19.929v11.28H467.005Zm19.4-12.67H467.292l-4.253-1.86v19.55h0.621c1.625,0,3.345-.91,3.345-1.25v-2.38h19.929v3.24h0.621c1.243,0,3.3-.81,3.345-1.09v-14.1a3.924,3.924,0,0,0,2.055-.96l-4.444-3.44Zm-5.018-8.74H465.667l0.382,1.34H487.22a1.14,1.14,0,0,0,1.291-.72c-1.768-1.62-4.588-3.82-4.588-3.82ZM474.556,1997c-2.437,6.84-11.852,16.49-19.976,21.12l0.334,0.67c9.224-3.96,18.686-11.75,23.131-18.73,3.249,7.07,10.275,13.14,17.969,16.97a4.592,4.592,0,0,1,3.3-3.3l0.048-.67c-8.124-2.96-16.2-7.6-20.454-13.62,1.242-.1,1.864-0.34,2.007-0.91Zm-280.687,78.66c2.532,2.1,3.44,4.01,5.018,4.01a1.777,1.777,0,0,0,1.72-1.86c0-2.06-1.864-3.63-5.114-5.02a46.949,46.949,0,0,0-6.212-1.77l-0.478,1.05A31.022,31.022,0,0,1,193.869,2075.66Zm-5.162,25.23c-1.672,0-3.2-1.67-4.4-3.1l-0.716.43a8.944,8.944,0,0,0,1.051,3.63c1.147,1.72,4.206,3.77,5.878,3.77,1.386,0,1.912-1.34,3.011-2,10.562-5.93,20.837-14.72,26.094-24.33l-1-.67C210.117,2090,192.626,2100.89,188.707,2100.89Zm-0.764-15.63c2.389,1.92,3.2,3.73,4.922,3.73a1.663,1.663,0,0,0,1.72-1.77c0-2.15-2.2-3.92-5.257-5.01a43.407,43.407,0,0,0-6.4-1.72l-0.431,1A30.359,30.359,0,0,1,187.943,2085.26Zm61.169-11.51c-3.154-1.48-8.746-2.54-14.958-2.97l-0.191,1.01c6.451,1.81,10.035,3.39,13.811,6.02,1.481,1.1,2.1,1.77,3.3,1.72a1.712,1.712,0,0,0,1.673-1.77C252.744,2076.28,251.884,2075.08,249.112,2073.75Zm-16.679,9.7a54.893,54.893,0,0,1,12.139,5.45c1.434,0.9,2.2,1.48,3.011,1.48a1.678,1.678,0,0,0,1.768-1.77c0-1.58-1.195-2.63-3.154-3.49a38.737,38.737,0,0,0-13.525-2.68Zm-1.911,13.04c6.834,2.01,11.374,3.68,16.822,7.46,1.72,1.29,2.963,2.39,4.158,2.39a1.762,1.762,0,0,0,2.007-1.91c0-1.2-1-2.49-2.868-3.68-3.823-2.39-11.708-4.73-19.833-5.31Zm44.241-7.75a3.789,3.789,0,1,0-3.788,3.79A3.794,3.794,0,0,0,274.763,2088.74Zm18.266,1.26c0.144-2.44.144-4.83,0.144-7.08v-2.72H300.1v9.8h-7.073Zm7.073-20.55v9.36h-6.929v-9.36H300.1Zm3.632,0.57a3.224,3.224,0,0,0,1.816-.91l-4.11-3.15-1.768,2.1h-5.83l-4.206-1.67v16.58c0,8.94-.143,18.45-3.775,26l0.716,0.38c4.4-5.02,5.831-11.61,6.357-17.92H300.1v9.99a0.834,0.834,0,0,1-1,1c-0.861,0-4.827-.33-4.827-0.33v0.76c1.911,0.24,2.867.72,3.441,1.34a4.151,4.151,0,0,1,.908,2.68c4.588-.43,5.113-2.16,5.113-4.97v-31.88Zm25.329,24.04H328.49c-0.526,3.25-1.243,7.64-1.577,8.55-0.192.53-.383,0.62-0.622,0.62a10.405,10.405,0,0,1-1.433.05h-1.291c-0.764,0-.908-0.29-0.908-1v-31.74a3.338,3.338,0,0,0,2.055-.81l-4.158-3.63-2.055,2.39H312.48l-4.3-1.77v17.45c0,9.12-.669,17.92-6.165,24.75l0.717,0.43c8.411-6.59,9.08-16.49,9.08-25.18v-14.29h7.216v33.54c0,2.49.526,3.54,3.489,3.54h2.246c4.349,0,5.783-.81,5.783-2.29,0-.77-0.192-1.2-1.291-1.68Zm26.364-5.93c0-.76.048-1.58,0.1-2.48a19.963,19.963,0,0,1,7.933-1.96,40.055,40.055,0,0,1-7.168,10.32A19.114,19.114,0,0,1,355.427,2088.13Zm-9.8,12.24c-1.1,0-1.529-.48-1.529-1.72,0-3.21,3.345-8.13,8.65-11.47-0.048.62-.048,1.19-0.048,1.76a36.347,36.347,0,0,0,.813,7.65C350.935,2098.69,347.876,2100.37,345.63,2100.37Zm16.01-20.98c1.673,1,2.39,1.67,2.294,2.82a26.571,26.571,0,0,0-8.172,1.52c0.239-1.91.573-3.91,0.956-5.78a62.52,62.52,0,0,0,12.569-3.25,1.663,1.663,0,0,0,1.338-1.57c0-1.01-1.052-1.63-2.916-1.63-0.812,0-4.062,2.15-10.322,3.49,0.191-.67.334-1.24,0.478-1.77,0.382-1.72,1.386-2.01,1.386-3.06,0-1-2.677-2.63-5.449-2.63a10.121,10.121,0,0,0-2.676.63l-0.048.9a15.939,15.939,0,0,1,2.772.62,1.1,1.1,0,0,1,.908,1.34,43.264,43.264,0,0,1-.525,4.49,31.281,31.281,0,0,1-4.349.29,9.43,9.43,0,0,1-6.6-2.39l-0.717.67c1.816,3.3,3.488,4.59,6.834,4.59a34.16,34.16,0,0,0,4.4-.29c-0.334,2.15-.669,4.45-0.86,6.6-5.83,2.96-11.9,8.7-11.9,15,0,2.58,1.291,3.87,3.537,3.87,2.867,0,6.4-1.52,9.893-4.44,0.573,1.29,1.385,2.15,2.293,2.15a1.449,1.449,0,0,0,1.673-1.53,9.294,9.294,0,0,0-1.1-3.39c3.823-4.02,7.264-8.94,8.841-12.81,5.162,0.81,8.22,4.59,8.22,9.18,0,7.16-6.738,11.85-18.638,13.62l0.191,1c12.808-.24,22.318-4.35,22.318-13.67,0-5.49-4.205-10.75-11.517-11.61a1.783,1.783,0,0,0-.478-1.72,8.4,8.4,0,0,0-4.158-1.96Zm39.463,20.74c0,0.81-.287.86-0.813,0.38-0.621-.77-2.15-2.63-3.441-4.25,1.482-2.06,2.963-4.26,4.254-6.26C401.007,2094.01,401.15,2097.98,401.1,2100.13Zm32.927-3.3c-2.819,2.44-5.161,3.58-8.22,3.58-2.246,0-3.25-1.05-3.25-3.58,0-4.92,2.008-11.14,2.008-15.1,0-4.54-2.008-6.74-5.735-6.74-4.636,0-9.988,3.97-14.1,7.69,0.334-.43.621-0.81,0.955-1.19,0.622-.77,1.1-1.15,1.1-1.77,0-.48-0.908-1.39-1.721-1.96,0.335-1.34.669-2.48,0.908-3.15,0.574-1.82,1.147-2.34,1.147-3.35,0-1.48-2.676-3.82-4.874-3.82a9.615,9.615,0,0,0-3.155.62l0.048,0.96a14.192,14.192,0,0,1,2.676.81,1.323,1.323,0,0,1,1.052,1.62c-0.048,1.29-.335,3.73-0.717,6.65-2.2,1.19-6.786,3.34-8.077,3.34-0.908,0-1.624-.81-2.389-2.2l-0.813.24a7.5,7.5,0,0,0,.144,2.3c0.525,1.67,2.724,3.68,4.349,3.68,0.86,0,1.338-1.15,2.341-1.77s2.533-1.53,4.063-2.34c-0.1,1.14-.239,2.34-0.335,3.53a111.6,111.6,0,0,1-10.275,13.29,3.6,3.6,0,0,0-1.147,2.72,1.7,1.7,0,0,0,1.482,1.96c0.86-.05,1.386-0.81,2.055-1.77l2.58-3.77a33.907,33.907,0,0,1,3.155,5.59,15.3,15.3,0,0,1,.908,3.3,1.739,1.739,0,0,0,1.816,1.76c1.433,0,2.341-2.24,2.341-4.2,0-1.15-.191-2.2-0.334-3.63a91.825,91.825,0,0,1-.383-13.77v-0.04c4.541-5.21,9.941-9.42,14.051-9.42,2.342,0,3.154,1.58,3.154,4.59,0,5.16-1.959,10.56-1.959,16.01,0,4.44,2.341,6.55,5.83,6.55,4.445,0,8.029-3.3,10.036-6.46Zm19.82-8.09a3.789,3.789,0,1,0-3.789,3.79A3.794,3.794,0,0,0,453.85,2088.74ZM85.612,2146.53a42.288,42.288,0,0,1-6.308,10.84,64.872,64.872,0,0,0-10.9-4.92,59.837,59.837,0,0,0,4.875-5.73,3.52,3.52,0,0,0,1.768.86,11.461,11.461,0,0,0,2.676-.62,56.586,56.586,0,0,1,7.36-1.2C85.612,2145.71,85.851,2145.9,85.612,2146.53Zm-10.8-1.92c0.478-.71.908-1.38,1.338-2.1,0.717-1.19,1.386-1.58,1.386-2.48,0-.96-2.724-2.54-5.018-2.87a10.645,10.645,0,0,0-2.963-.05l-0.239.81c1.625,0.77,2.867,1.58,2.867,2.44,0,2.87-7.933,13.81-15.293,19.4l0.717,0.96a42.457,42.457,0,0,0,9.845-7.36,40.534,40.534,0,0,1,9.893,6.4,65.31,65.31,0,0,1-20.12,16.01l0.621,1.01a56.953,56.953,0,0,0,21.936-14.58c3.345,3.73,4.11,5.69,5.687,5.64a1.861,1.861,0,0,0,1.912-2.1c-0.1-2.01-2.342-4.3-5.114-6.36a74.467,74.467,0,0,0,7.169-10.85c0.621-1.14,2.342-1.57,2.342-2.58,0-1.43-3.393-3.73-4.588-3.73-0.908,0-1.338.96-2.628,1.25A72.68,72.68,0,0,1,75,2144.61H74.811Zm12.33-6.97a24.723,24.723,0,0,1,4.253,4.35c0.956,1.14,1.529,2.05,2.246,2.05a1.267,1.267,0,0,0,1.29-1.34,4.069,4.069,0,0,0-1.673-2.86,16.331,16.331,0,0,0-5.591-2.92Zm4.11-2.92a25.049,25.049,0,0,1,4.349,3.92c1.051,1.15,1.529,2.15,2.389,2.15a1.184,1.184,0,0,0,1.195-1.38,3.716,3.716,0,0,0-1.816-2.92,17.351,17.351,0,0,0-5.544-2.49Zm35.134,3.82c1.672,1.01,2.867,1.82,2.867,3.16,0,1.58-2.772,7.02-5.926,11.66a66.556,66.556,0,0,0-12.712-5.93l-0.621,1.06a80.915,80.915,0,0,1,11.183,7.79,70.954,70.954,0,0,1-19.786,17.06l0.622,0.9a53.532,53.532,0,0,0,21.84-15.67c5.687,5.26,6.165,8.55,8.315,8.55a2.023,2.023,0,0,0,2.055-2.29c-0.047-2.72-4.3-6.83-7.885-9.46,2.772-3.92,5.353-8.41,6.308-9.99,0.861-1.53,2.008-1.67,2.008-2.63,0-1.48-1.96-3.44-3.871-4.35a11.8,11.8,0,0,0-4.11-.72Zm23.2,14.44a7.786,7.786,0,0,0,.383,2.96c0.717,1.82,3.154,4.4,4.635,4.4,1.53,0,2.1-.82,5.066-1.15,3.584-.43,16.249-1.15,19.4-1.15,3.059,0,4.731.1,6.452,0.1s2.437-.57,2.437-1.53c0-1.53-2.246-2.53-4.4-2.53-1.194,0-2.772.28-5.974,0.52-2.389.19-18.494,1.24-22.987,1.24-2.15,0-2.963-1.43-4.062-3.15Zm82.606-6.98a1.377,1.377,0,0,0,1.434-1.43c0-.91-0.478-1.72-1.625-2.82a16.915,16.915,0,0,0-5.735-3.25l-0.621.76a24.525,24.525,0,0,1,4.349,4.64C230.944,2145.09,231.469,2146,232.186,2146Zm5.018-3.82a1.261,1.261,0,0,0,1.291-1.39,3.913,3.913,0,0,0-1.769-2.91,17.706,17.706,0,0,0-5.687-2.82l-0.573.76a26.212,26.212,0,0,1,4.349,4.21C235.818,2141.22,236.392,2142.18,237.2,2142.18Zm-25.807,2.24c2.533,2.11,3.441,4.02,5.018,4.02a1.78,1.78,0,0,0,1.721-1.87c0-2.05-1.864-3.63-5.114-5.01a45.467,45.467,0,0,0-6.212-1.77l-0.478,1.05A30.258,30.258,0,0,1,211.4,2144.42Zm-5.161,25.24c-1.673,0-3.2-1.68-4.4-3.11l-0.716.43a8.944,8.944,0,0,0,1.051,3.63c1.147,1.72,4.2,3.78,5.878,3.78,1.386,0,1.912-1.34,3.011-2.01,10.562-5.93,20.837-14.72,26.093-24.32l-1-.67C227.646,2158.76,210.155,2169.66,206.236,2169.66Zm-0.765-15.63c2.39,1.91,3.2,3.73,4.923,3.73a1.663,1.663,0,0,0,1.72-1.77c0-2.15-2.2-3.92-5.257-5.02a46.043,46.043,0,0,0-6.4-1.72l-0.43,1A30.4,30.4,0,0,1,205.471,2154.03Zm80.027-4.88-2.533,2.49h-11.04c1.291-1,1.1-3.92-2.867-6.4,4.444-1.63,10.179-4.16,13.286-6.27a3.437,3.437,0,0,0,2.1-.47l-4.157-4.02-2.581,2.39H250.85l0.382,1.39H276.8a81.627,81.627,0,0,1-8.7,6.4,32.518,32.518,0,0,0-9.749-2.87l-0.287.67c5.831,2.78,9.941,6.69,11.47,9.18h-24.23l0.43,1.34h19.642v18.78c0,0.72-.334,1-1.29,1-1.291,0-8.077-.43-8.077-0.43V2173c2.963,0.38,4.492.91,5.4,1.53a3.6,3.6,0,0,1,1.386,2.82c5.687-.48,6.548-2.48,6.548-5.45v-18.92h13.477a65.572,65.572,0,0,1-7.169,10.03l0.526,0.39a60.781,60.781,0,0,0,11.565-9.56,2.833,2.833,0,0,0,2.007-.58Zm26.515-15.19-2.342,2.29h-5.257l-4.3-1.77v42.78h0.669c1.864,0,3.011-1.01,3.011-1.3v-38.32h6.069c-1,3.68-2.628,9.12-3.775,12.04a14.682,14.682,0,0,1,4.2,10.13c0,1.63-.43,2.58-1.194,2.96a2.019,2.019,0,0,1-1.195.29h-3.3v0.72a4.464,4.464,0,0,1,2.342.91,5.848,5.848,0,0,1,.669,3.1c4.827-.19,6.547-2.53,6.5-6.93,0-3.68-1.864-7.88-6.834-11.32a99.346,99.346,0,0,0,6.881-10.85,3.123,3.123,0,0,0,2.2-.58Zm23.656,8.12h-7.742v-6.83c1.195-.19,1.625-0.67,1.721-1.34l-5.5-.53v8.7H312.73l0.382,1.34h8.411c-0.048,14.43-1.72,24.95-13.047,33.31l0.383,0.57c11.422-5.59,15.054-13.71,16.3-24.7h9.606c-0.573,10.7-1.577,18.01-3.106,19.35a2.5,2.5,0,0,1-1.864.57c-1.051,0-4.54-.28-6.643-0.52v0.81c1.912,0.34,3.919.91,4.636,1.53a3.221,3.221,0,0,1,.908,2.63,7.925,7.925,0,0,0,5.591-1.87c2.39-2.24,3.584-9.65,4.11-21.93a3.11,3.11,0,0,0,2.007-.77l-4.014-3.39-2.1,2.25h-9.032c0.239-2.49.382-5.07,0.43-7.84h15.771a1.142,1.142,0,0,0,1.242-.77c-1.672-1.62-4.54-3.91-4.54-3.91Zm35.882,4.3a22.405,22.405,0,0,1-1.816,7.74c-1.864,4.16-6.213,11.43-9.224,11.43-1.959,0-3.919-3.49-3.919-7.84a15.276,15.276,0,0,1,4.731-10.8,17.967,17.967,0,0,1,8.842-4.83A7.814,7.814,0,0,1,371.551,2146.38Zm-0.717,27.43c15.723-.9,21.123-8.93,21.123-17.15,0-9.94-7.646-16.73-17.826-16.73a20.833,20.833,0,0,0-14.1,5.11,18.576,18.576,0,0,0-6.6,13.62c0,6.03,3.393,11.33,6.786,11.33,5.162,0,10.657-9.13,12.665-14.96a24.157,24.157,0,0,0,1.529-7.93,8.979,8.979,0,0,0-2.39-5.35c0.622-.05,1.195-0.1,1.769-0.1,7.885,0,14,5.5,14,14.05,0,8.6-5.352,14.77-17.156,17.06Zm42.617-40.04a13.461,13.461,0,0,1,3.728,6.69c3.632,2.62,6.93-4.78-3.25-7.03Zm-9.366,21.12,0.43,1.39h40.191a1.17,1.17,0,0,0,1.291-.77c-1.721-1.58-4.588-3.73-4.588-3.73l-2.485,3.11H426.546v-5.69h14.242a1.146,1.146,0,0,0,1.242-.76c-1.625-1.48-4.349-3.54-4.349-3.54l-2.342,2.92h-8.793v-5.4h16.727a1.106,1.106,0,0,0,1.29-.77c-1.768-1.58-4.54-3.73-4.54-3.73l-2.485,3.11H429.7a48.486,48.486,0,0,0,5.687-5.35,1.486,1.486,0,0,0,1.768-.81l-5.448-1.82a63.667,63.667,0,0,1-3.441,7.98H406.14l0.382,1.39h16.057v5.4H408.625l0.382,1.38h13.572v5.69H404.085Zm41.482,9.13a1.109,1.109,0,0,0,1.242-.77c-1.72-1.57-4.683-3.77-4.683-3.77l-2.533,3.15h-14c0.239-1.24.383-2.53,0.526-3.87a1.587,1.587,0,0,0,1.625-1.29l-5.831-.53a33.9,33.9,0,0,1-.621,5.69H403.033l0.43,1.39h17.492c-1.625,5.3-5.926,9.13-18.352,12.42l0.335,0.91c16.2-2.91,20.693-7.22,22.318-13.33h0.717c3.058,7.74,8.889,11.18,18.208,13.09a4.307,4.307,0,0,1,3.01-3.53l0.048-.53c-9.319-.86-16.535-3.15-20.167-9.03h18.5Zm19.346,7.6v-13.34h25.52v13.34h-25.52Zm25.52-27.48v12.76h-25.52v-12.76h25.52Zm1.673-3.97-2.246,2.53h-16.2a81.609,81.609,0,0,0,5.4-7.12,1.568,1.568,0,0,0,1.721-1l-6.118-1.48a88.151,88.151,0,0,1-2.437,9.6H465.3l-4.348-1.86v36.27h0.669c1.768,0,3.3-1,3.3-1.48V2173h25.52v3.92h0.574a5.437,5.437,0,0,0,3.488-1.43v-30.4a5.041,5.041,0,0,0,2.438-1.14Zm50.745-1.77H530.33v1.82l5.5,0.71,0.048,17.07c0,9.36-3.058,12.8-9.175,12.8-5.4,0-8.842-2.91-8.842-11.9v-4.3c0-4.68,0-9.27.1-13.81l5.3-.57v-1.82H508.633v1.82l4.4,0.48c0.048,4.58.048,9.27,0.048,13.9v5.5c0,9.99,5.162,14.1,12.76,14.1,7.217,0,12.282-4.21,12.282-14.96l0.048-18.4,4.684-.62v-1.82Zm40.519,0h-12v2.01l4.826,0.48-8.506,26.28-9.176-26.33,5.114-.43v-2.01H549.439v1.82l3.966,0.43,12.235,33.12h2.2l10.992-32.98,4.54-.62v-1.77Z" transform="translate(-56.875 -1997)"/>
</svg>
