<svg id="head-block-06.svg" xmlns="http://www.w3.org/2000/svg" width="567.25" height="35.41" viewBox="0 0 567.25 35.41">
  <defs>
    <style>
      .cls-1 {
        fill: #1e9fe0;
        opacity: 0.2;
      }

      .cls-2 {
        fill: #1147b4;
        fill-rule: evenodd;
      }
    </style>
  </defs>
  <rect id="長方形_978" data-name="長方形 978" class="cls-1" y="25.41" width="567.25" height="10"/>
  <path id="化粧下地にも使えて石けんで落とせる_" data-name="化粧下地にも使えて石けんで落とせる！" class="cls-2" d="M437.8,4225.93a59.78,59.78,0,0,0,9.147-6.75,7.312,7.312,0,0,1,1.8-1.32,0.7,0.7,0,0,0,.589-0.56,0.929,0.929,0,0,0-.381-0.69,31.1,31.1,0,0,0-2.7-2.3,13.883,13.883,0,0,1-2.044,2.37,38.475,38.475,0,0,1-6.41,5.11v-8.7a5.684,5.684,0,0,1,.243-2.37,1.315,1.315,0,0,0,.208-0.66c0-.28-0.208-0.41-0.659-0.45-1.212-.14-2.321-0.21-3.707-0.24a24.422,24.422,0,0,1,.208,4.03v21.97c0,2.33.693,3.23,1.836,3.79,1.109,0.56,2.772.7,6.029,0.7,3.049,0,5.127-.39,6.271-1.19,1.178-.87,1.767-2.36,2.009-5.77,0.07-.91.1-0.91-0.762-1.22a10.846,10.846,0,0,1-2.668-1.43c-0.138,3.31-.45,4.8-1.039,5.29-0.762.66-1.8,0.87-3.569,0.87a12.249,12.249,0,0,1-3.43-.24c-0.762-.28-0.97-0.73-0.97-1.99v-8.25Zm-13.2,9.02c0,3.37-.069,5.05-0.069,5.29,0,0.31.034,0.35,0.416,0.35h3.014c0.346,0,.381-0.04.381-0.35,0-.21-0.069-1.92-0.069-5.29v-17.79a40.645,40.645,0,0,0,2.182-4.49,3.6,3.6,0,0,1,.866-1.49,0.743,0.743,0,0,0,.312-0.6c0-.24-0.138-0.34-0.589-0.52a24.372,24.372,0,0,0-3.36-1.11,13.206,13.206,0,0,1-.693,2.44,28.785,28.785,0,0,1-8,11.76A13.318,13.318,0,0,1,420.3,4226a0.858,0.858,0,0,0,.52.77,1.545,1.545,0,0,0,.762-0.52,38.7,38.7,0,0,0,3.083-3.62c-0.034,1.53-.069,3.13-0.069,4.45v7.87Zm36.648-15h-1.075c-2.563,0-3.395-.07-3.6-0.07-0.346,0-.381.03-0.381,0.42v2.43c0,0.32.035,0.35,0.381,0.35,0.208,0,1.04-.07,3.6-0.07h0.589a28.305,28.305,0,0,1-5.3,9.43,8.74,8.74,0,0,1,1.282,2.44,0.71,0.71,0,0,0,.415.63,1.139,1.139,0,0,0,.52-0.53,29.112,29.112,0,0,0,3.672-7.55c-0.034,6.37-.242,12.15-0.242,12.84,0,0.35.035,0.39,0.381,0.39h2.737c0.347,0,.381-0.04.381-0.39,0-.69-0.208-6.54-0.242-13.61a22.374,22.374,0,0,0,2.217,4.04,0.965,0.965,0,0,0,.52.52,0.859,0.859,0,0,0,.519-0.62,8.128,8.128,0,0,1,1.352-1.99,20.94,20.94,0,0,1-4.3-5.6c2.564,0,3.361.07,3.569,0.07,0.381,0,.416-0.03.416-0.35v-2.43c0-.39-0.035-0.42-0.416-0.42-0.208,0-1,.07-3.6.07h-0.173v-6.27c0-2.36.034-3.1,0.207-3.51a1.875,1.875,0,0,0,.243-0.77,0.516,0.516,0,0,0-.554-0.35,33.012,33.012,0,0,0-3.4-.24,28.95,28.95,0,0,1,.278,4.94v6.2Zm11.848-3.13h9.528c3.153,0,4.227.06,4.4,0.06,0.347,0,.381-0.03.381-0.38v-2.57c0-.35-0.034-0.39-0.381-0.39-0.173,0-1.247.07-4.4,0.07h-2.529v-0.94a8.234,8.234,0,0,1,.139-2.33,1.75,1.75,0,0,0,.207-0.73,0.506,0.506,0,0,0-.519-0.38c-1.213-.11-2.391-0.21-3.638-0.25a20.671,20.671,0,0,1,.242,3.69v0.94h-1.9c-3.153,0-4.3-.07-4.539-0.07-0.312,0-.346.04-0.346,0.39,0,0.21.069,2.19,0.069,6.61a50.521,50.521,0,0,1-.554,9.61,17.945,17.945,0,0,1-3.188,7.69,8.277,8.277,0,0,1,1.941,1.81,1.309,1.309,0,0,0,.692.59,1,1,0,0,0,.589-0.63,25.339,25.339,0,0,0,2.98-7.97,60.268,60.268,0,0,0,.831-11.48v-3.34Zm9.32,10.92c2.529,0,3.361.07,3.569,0.07,0.346,0,.381-0.03.381-0.38v-2.57c0-.39-0.035-0.42-0.381-0.42-0.208,0-1.04.07-3.569,0.07h-0.97v-1.5a18.344,18.344,0,0,1,.173-3.45,3.483,3.483,0,0,0,.208-0.83,0.48,0.48,0,0,0-.519-0.42,33.012,33.012,0,0,0-3.4-.24,42.53,42.53,0,0,1,.243,4.98v1.46h-0.173c-2.53,0-3.361-.07-3.569-0.07-0.346,0-.381.03-0.381,0.42v2.57c0,0.35.035,0.38,0.381,0.38,0.208,0,1.039-.07,3.569-0.07h0.173v8.5h-1.663c-2.98,0-3.95-.07-4.158-0.07-0.346,0-.381.03-0.381,0.41v2.58c0,0.35.035,0.38,0.381,0.38,0.208,0,1.178-.07,4.158-0.07H483c2.98,0,3.95.07,4.158,0.07,0.346,0,.381-0.03.381-0.38v-2.58c0-.38-0.035-0.41-0.381-0.41-0.208,0-1.178.07-4.158,0.07h-1.559v-8.5h0.97Zm-25.5-15.9c-0.451.17-.485,0.28-0.381,0.62a28.468,28.468,0,0,1,1.316,5.64c0.035,0.39.1,0.35,0.589,0.21l1.455-.49a0.458,0.458,0,0,0,.416-0.62,34.75,34.75,0,0,0-1.455-5.61c-0.139-.38-0.173-0.41-0.624-0.24Zm8,5.91a5.055,5.055,0,0,1,1.178.46,1.684,1.684,0,0,0,.693.31c0.208,0,.277-0.17.485-0.66a38.934,38.934,0,0,0,1.524-4.42,1.312,1.312,0,0,1,.416-0.77,0.381,0.381,0,0,0,.208-0.34,0.489,0.489,0,0,0-.381-0.42,19.6,19.6,0,0,0-2.391-.77,7.317,7.317,0,0,1-.173,1.43A27.944,27.944,0,0,1,464.916,4217.75Zm39.11-3.09v20.67c0,3.1-.069,4.49-0.069,4.73,0,0.35.034,0.39,0.415,0.39h3.188c0.381,0,.415-0.04.415-0.39,0-.2-0.069-1.63-0.069-4.73v-12.22a64.254,64.254,0,0,1,8.558,5.09c0.312,0.21.416,0.17,0.693-.25l1.628-2.33a1.04,1.04,0,0,0,.173-0.38,0.438,0.438,0,0,0-.277-0.35,59.213,59.213,0,0,0-10.775-5.6v-4.63h9.285c3.119,0,4.158.07,4.366,0.07,0.346,0,.381-0.04.381-0.39v-2.92c0-.35-0.035-0.38-0.381-0.38-0.208,0-1.247.07-4.366,0.07h-21.1c-3.084,0-4.158-.07-4.366-0.07-0.346,0-.381.03-0.381,0.38v2.92c0,0.35.035,0.39,0.381,0.39,0.208,0,1.282-.07,4.366-0.07h7.934Zm38.106,8.94,3.326-1.15v4.91c0,3.48-.07,5.15-0.07,5.4,0,0.34.035,0.38,0.382,0.38h2.771c0.347,0,.381-0.04.381-0.38,0-.21-0.069-1.92-0.069-5.4v-6.06l4.019-1.39a33.269,33.269,0,0,1-.416,6.09c-0.208,1.12-.45,1.29-1.039,1.29a8.262,8.262,0,0,1-1.836-.24,8.637,8.637,0,0,1,.727,2.5c0.173,1.08.173,1.08,0.936,1.15a8.084,8.084,0,0,0,1.282.07c1.489,0,2.459-.62,2.979-2.64a34.271,34.271,0,0,0,.832-7.87l0.1-4.45a0.3,0.3,0,0,0-.382-0.35c-0.242.03-1.281,0.48-4.538,1.56l-2.668.91v-4.39a10.97,10.97,0,0,1,.208-3.13,1.96,1.96,0,0,0,.208-0.7,0.5,0.5,0,0,0-.555-0.38,29.218,29.218,0,0,0-3.533-.28,36.545,36.545,0,0,1,.277,4.95v5.04l-3.326,1.12v-3c0-2.19.034-2.96,0.208-3.3a1.622,1.622,0,0,0,.207-0.73c0-.18-0.207-0.32-0.692-0.39q-1.56-.15-3.327-0.21a35.305,35.305,0,0,1,.208,4.95v3.82c-2.217.74-3.118,0.94-3.395,1.01-0.312.11-.346,0.11-0.277,0.46l0.45,2.71c0.07,0.35.1,0.38,0.451,0.28,0.277-.07,1-0.38,2.771-1.01v10.86c0,1.88.485,2.92,1.317,3.45,0.866,0.55,2.6.97,7.31,0.97,5.37,0,7.033-.35,8.211-1.15,1.144-.73,1.559-1.67,1.871-4.7,0.1-.9.1-0.9-0.762-1.15a9.412,9.412,0,0,1-2.494-1.11c-0.1,2.75-.278,3.45-0.832,3.93-0.693.56-1.836,0.73-5.578,0.73-3.43,0-4.5-.1-4.989-0.38a1.452,1.452,0,0,1-.658-1.56V4223.6Zm-8.731-2.4c1.975,0,2.633.07,2.841,0.07,0.312,0,.346-0.03.346-0.38v-2.65c0-.35-0.034-0.38-0.346-0.38-0.208,0-.866.07-2.841,0.07v-3.73a11.724,11.724,0,0,1,.208-3.3,1.96,1.96,0,0,0,.208-0.7,0.52,0.52,0,0,0-.555-0.42c-1.143-.13-2.217-0.2-3.568-0.24a29.675,29.675,0,0,1,.277,5.12v3.27h-0.277c-2.252,0-2.945-.07-3.153-0.07-0.347,0-.347.03-0.347,0.38v2.65c0,0.35,0,.38.347,0.38,0.208,0,.9-0.07,3.153-0.07h0.277v9.89l-0.8.24a24.6,24.6,0,0,1-3.43.87,31.252,31.252,0,0,0,.936,3.1,0.553,0.553,0,0,0,.519.41,0.893,0.893,0,0,0,.589-0.24,5.093,5.093,0,0,1,1.144-.56c2.286-.87,4.746-1.88,6.894-2.95,0.97-.49.97-0.46,0.9-1.61a14.434,14.434,0,0,1,.035-2.15c-1.178.62-2.252,1.14-3.361,1.6v-8.6Zm32.4-9.81a28.14,28.14,0,0,1-.623,5.18A66.79,66.79,0,0,0,564,4227.99a32.8,32.8,0,0,0,1.593,10.37,0.416,0.416,0,0,0,.451.38,17.051,17.051,0,0,0,2.841-.55,0.458,0.458,0,0,0,.45-0.46c0-.28-0.069-0.55-0.069-0.97a3.982,3.982,0,0,1,.1-1.08,34.163,34.163,0,0,1,1.975-5.26,0.942,0.942,0,0,0,.173-0.55,1.455,1.455,0,0,0-.243-0.53,8.921,8.921,0,0,1-1.212-2.19c-1,2.44-1.629,3.59-2.356,5.19a33.672,33.672,0,0,1-.208-4.07,56.709,56.709,0,0,1,1.455-11.25,8.342,8.342,0,0,1,.832-2.47,1.945,1.945,0,0,0,.519-1.04,1.077,1.077,0,0,0-.8-0.84A15.471,15.471,0,0,0,565.8,4211.39Zm7.969,17.95a7.69,7.69,0,0,0,1.213,4.53c1.489,2.05,3.88,2.89,9.008,2.89a47.993,47.993,0,0,0,5.647-.38c0.589-.07.589-0.11,0.589-0.53a25.894,25.894,0,0,0-.208-2.99c-0.069-.45-0.139-0.49-0.485-0.45a49.2,49.2,0,0,1-6.618.45c-3.776,0-5.439-.87-5.647-3.27,0-.38-0.069-0.56-0.346-0.52Zm1.109-9.88a42.3,42.3,0,0,1,7.864-.8c1.767,0,3.569.07,5.648,0.21a0.371,0.371,0,0,0,.45-0.42c0.069-.97.069-1.91,0.069-2.96,0-.35-0.069-0.42-0.8-0.45-1.455-.14-3.048-0.21-5.127-0.21a53.986,53.986,0,0,0-7.518.63,0.5,0.5,0,0,0-.485.59C574.914,4216.64,574.914,4217.51,574.88,4219.46Zm29.9,9.4c1.766,0.03,3.568.03,5.3-.11,0.347,0,.451-0.14.485-0.55a23.638,23.638,0,0,0,.174-2.61c0-.32-0.1-0.46-0.555-0.39-1.663.11-3.083,0.14-4.919,0.11,0.207-1.39.554-3.76,0.762-4.98a33.818,33.818,0,0,0,4.608-.17c0.415-.04.554-0.14,0.554-0.53a16.254,16.254,0,0,0,.069-2.61,0.346,0.346,0,0,0-.346-0.41,19.874,19.874,0,0,1-4.262.21c0.174-1.29.382-2.48,0.555-3.28a3.374,3.374,0,0,1,.623-1.49,1.025,1.025,0,0,0,.278-0.66,0.985,0.985,0,0,0-.763-0.81,20.854,20.854,0,0,0-4.157-.97,16.337,16.337,0,0,1,.034,2.92c-0.069,1.05-.173,1.99-0.45,4.01a28.2,28.2,0,0,1-6.271-1.33c0,1.26.069,2.41,0.1,3.24a0.568,0.568,0,0,0,.554.59,24.022,24.022,0,0,0,4.989.98c-0.138,1.42-.415,3.69-0.589,4.97a21.439,21.439,0,0,1-5.612-1.35,20.033,20.033,0,0,0,.069,3.23,0.61,0.61,0,0,0,.381.67,27.653,27.653,0,0,0,4.712,1.04c-0.139,1.57-.242,2.54-0.242,3.27,0,5.08,2.6,7.87,8.73,7.87,5.959,0,9.978-3.21,9.978-8.15a9.1,9.1,0,0,0-2.944-6.54,0.8,0.8,0,0,0-.728-0.14,11.084,11.084,0,0,1-3.534.21c2.633,2.78,3.118,4.38,3.118,6.33,0,3.14-2.252,4.7-6.3,4.7-3.223,0-4.608-1.25-4.608-4.45A21.407,21.407,0,0,1,604.777,4228.86Zm36.824-12.88v2.68h-2.91c-3.292,0-4.47-.07-4.643-0.07-0.346,0-.381.03-0.381,0.38,0,0.25.069,0.94,0.069,2.79v3.55c0,1.81-.069,2.57-0.069,2.78,0,0.35.035,0.38,0.381,0.38,0.173,0,1.351-.06,4.643-0.06h2.6a11.859,11.859,0,0,1-.624,2.54,13.8,13.8,0,0,1-.623,1.28,16.008,16.008,0,0,1-2.737-2.95c-0.208-.28-0.312-0.28-0.693-0.07l-1.767,1.01c-0.416.24-.451,0.31-0.243,0.62a19.446,19.446,0,0,0,3.326,3.8,17.983,17.983,0,0,1-6.963,2.71,6.865,6.865,0,0,1,1.385,2.19c0.278,0.63.416,0.87,0.763,0.87a3.3,3.3,0,0,0,.762-0.17,18.929,18.929,0,0,0,6.894-3.55c3.292,1.98,7.38,3.1,12.577,3.48,1.109,0.07,1.109.07,1.316-1.01a9.375,9.375,0,0,1,1.04-2.51c-5.3-.2-9.493-0.9-12.819-2.57a17.457,17.457,0,0,0,1-2.12,15.05,15.05,0,0,0,.8-3.55h3.5c3.291,0,4.469.06,4.677,0.06,0.346,0,.381-0.03.381-0.38,0-.21-0.069-0.97-0.069-2.78v-3.55c0-1.85.069-2.58,0.069-2.79,0-.35-0.035-0.38-0.381-0.38-0.208,0-1.386.07-4.677,0.07h-3.119v-2.68h4.886c3.395,0,4.573.07,4.746,0.07,0.381,0,.416-0.04.416-0.38v-2.61c0-.35-0.035-0.39-0.416-0.39-0.173,0-1.351.07-4.746,0.07h-4.886v-0.21a6.376,6.376,0,0,1,.243-2.4,1.62,1.62,0,0,0,.208-0.69,0.546,0.546,0,0,0-.589-0.39c-1.109-.14-2.287-0.17-3.534-0.21a20.682,20.682,0,0,1,.208,3.69v0.21h-3.777c-3.43,0-4.573-.07-4.781-0.07-0.346,0-.381.04-0.381,0.39v2.61c0,0.34.035,0.38,0.381,0.38,0.208,0,1.351-.07,4.781-0.07H641.6Zm3.361,9.47,0.1-3.8h4.712v3.8h-4.815Zm-3.361-3.8c0,1.4-.035,2.68-0.069,3.8h-4.47v-3.8H641.6Zm-14.69,13.3c0,3.41-.069,5.08-0.069,5.29,0,0.35.034,0.38,0.381,0.38H630.1c0.347,0,.381-0.03.381-0.38,0-.18-0.069-1.88-0.069-5.29v-18.13c0.693-1.5,1.351-3.03,1.906-4.63a2.771,2.771,0,0,1,.727-1.4,0.739,0.739,0,0,0,.381-0.62,0.689,0.689,0,0,0-.589-0.52,29.177,29.177,0,0,0-3.326-1.05,10.066,10.066,0,0,1-.519,2.47,32.2,32.2,0,0,1-6.271,11.14,8.444,8.444,0,0,1,1.247,2.92,0.659,0.659,0,0,0,.416.63,0.967,0.967,0,0,0,.589-0.45c0.693-.84,1.386-1.71,2.009-2.61-0.034,1.49-.069,2.99-0.069,4.24v8.01Zm42.055-25.76a31.04,31.04,0,0,0-1.178,3.24,0.467,0.467,0,0,0,.312.63,53.333,53.333,0,0,0,9.666,2.92,0.494,0.494,0,0,0,.589-0.38,21.213,21.213,0,0,0,.935-2.86c0.1-.48-0.034-0.69-0.381-0.76A62.521,62.521,0,0,1,668.966,4209.19ZM662,4220.02a24.687,24.687,0,0,0,1.386,3.9,0.72,0.72,0,0,0,.589.59,1.545,1.545,0,0,0,.727-0.21,12.639,12.639,0,0,1,1.871-.63c2.287-.59,4.608-1.15,7.207-1.84-3.708,4-5.509,6.02-6.86,7.41-2.218,2.26-4.331,4.42-6.548,6.68a0.88,0.88,0,0,0-.278.56,0.585,0.585,0,0,0,.174.35,19.7,19.7,0,0,0,2.425,2.12,0.608,0.608,0,0,0,.381.14,0.6,0.6,0,0,0,.485-0.24c1.178-1.47,3.707-4.53,5.266-6.13a4.936,4.936,0,0,1,3.257-1.74c1.213,0,1.628.98,2.183,3.34,0.727,3.45,2.39,4.81,7.483,4.81a29.963,29.963,0,0,0,5.093-.46c0.451-.07.624-0.21,0.624-0.55a18.262,18.262,0,0,0-.243-3.07,0.5,0.5,0,0,0-.623-0.52,23.366,23.366,0,0,1-5.37.63c-2.564,0-3.119-.56-3.812-3.41-0.589-2.47-2.148-3.52-3.776-3.52a4.278,4.278,0,0,0-1.247.18c2.321-2.51,3.742-3.97,6.305-6.41a5.319,5.319,0,0,1,1.109-.8,0.941,0.941,0,0,0,.624-0.8,1.3,1.3,0,0,0-.381-0.8,8.348,8.348,0,0,0-2.045-1.85,1.029,1.029,0,0,0-.589-0.24,1.342,1.342,0,0,0-.762.24,4.854,4.854,0,0,1-1.386.56c-1.42.31-3.36,0.7-6.028,1.12A38.592,38.592,0,0,1,662,4220.02Zm42.4-3.1c-4.192,2.75-6.652,6.09-6.652,11.03,0,7.24,6.687,10.76,12.785,10.76,0.415,0,.554-0.21.658-0.73a12.483,12.483,0,0,0,.381-3c0-.38-0.208-0.52-0.762-0.52-6.029-.38-9.216-2.82-9.216-7.31,0-4.17,2.945-8.25,8.835-10.27a15.491,15.491,0,0,1,4.227-.76c0.45,0,.658-0.11.658-0.52a20.047,20.047,0,0,0-.381-3.07c-0.035-.24-0.208-0.45-0.728-0.38-8.939,1.18-16.561,2.33-20.822,2.96a48.267,48.267,0,0,1-5.509.59,24.4,24.4,0,0,0,1.282,3.76,0.815,0.815,0,0,0,.658.52,1.927,1.927,0,0,0,.762-0.28c0.52-.17.867-0.24,2.183-0.55,3.707-.77,7.414-1.5,11.641-2.3v0.07Zm26.395-2.16a23.088,23.088,0,0,1-10.844,14.2,9.587,9.587,0,0,1,1.836,2.16,1.207,1.207,0,0,0,.693.8,2.089,2.089,0,0,0,.8-0.45,32.458,32.458,0,0,0,4.608-4.11v5.05c0,5.91-.069,7.03-0.069,7.27,0,0.35.034,0.38,0.381,0.38h3.118c0.346,0,.381-0.03.381-0.38v-1.98h12.715v1.7c0,0.35.035,0.39,0.381,0.39h3.118c0.382,0,.416-0.04.416-0.39,0-.21-0.069-1.32-0.069-7.17v-4.38c0-3.38.069-4.49,0.069-4.7,0-.35-0.034-0.38-0.416-0.38-0.207,0-1.351.07-4.677,0.07H731.285a35.413,35.413,0,0,0,3.534-8.08h11.329c3.188,0,4.262.07,4.47,0.07,0.346,0,.381-0.03.381-0.38v-2.79c0-.34-0.035-0.38-0.381-0.38-0.208,0-1.282.07-4.47,0.07H726.123c-3.187,0-4.261-.07-4.469-0.07-0.347,0-.381.04-0.381,0.38v2.79c0,0.35.034,0.38,0.381,0.38,0.208,0,1.282-.07,4.469-0.07H730.8Zm0.9,11.45h12.715v8.08H731.7v-8.08Zm42.264-1.88c0.034,3.62-.312,5.99-1.074,7.76-1.04,2.44-2.6,4.04-5.856,5.78a11.432,11.432,0,0,1,2.7,1.71,0.723,0.723,0,0,0,.693.31,1.563,1.563,0,0,0,.866-0.31,12.258,12.258,0,0,0,4.954-5.4,18.226,18.226,0,0,0,1.525-8.07l-0.035-5.36c1.594-.18,3.118-0.38,4.781-0.7a0.467,0.467,0,0,0,.451-0.62c-0.07-.91-0.139-1.74-0.278-2.61-0.034-.35-0.207-0.42-0.623-0.32-1.455.32-2.945,0.56-4.435,0.77v-3.87a4.29,4.29,0,0,1,.173-1.46,1.382,1.382,0,0,0,.243-0.69,0.588,0.588,0,0,0-.554-0.56,21.254,21.254,0,0,0-4.47-.49,10.893,10.893,0,0,1,.589,2.86c0.139,1.32.139,2.88,0.208,4.63-1.247.1-2.876,0.13-3.846,0.13-1.282,0-3.014-.03-4.3-0.17,0.173,1.53.243,2.47,0.381,3.17a0.651,0.651,0,0,0,.8.55c1.282,0.04,2.183.04,2.91,0,1,0,2.322-.07,4.158-0.2Zm-12.023,11.77a4.3,4.3,0,0,1,.1-0.91,25.968,25.968,0,0,1,1.559-4.24,2.641,2.641,0,0,0,.416-1.15,1.033,1.033,0,0,0-.312-0.66,10.156,10.156,0,0,1-1.143-2.34c-0.831,1.95-1.455,3.14-2.321,4.98a29.753,29.753,0,0,1-.347-5.5,65.208,65.208,0,0,1,1.317-10.44,20.436,20.436,0,0,1,.658-2.58,1.241,1.241,0,0,0,.208-0.69,1.06,1.06,0,0,0-.762-0.77,17.482,17.482,0,0,0-3.638-1.22,37.815,37.815,0,0,1-.381,5.19,79.71,79.71,0,0,0-1.04,11.14c0,3.62.936,8.56,2.045,10.79a0.625,0.625,0,0,0,.8.45,8.465,8.465,0,0,0,2.391-.73,0.5,0.5,0,0,0,.45-0.49v-0.83Zm31.39-9.99c1.906-3.13,3.777-6.79,5.994-11.07a9.517,9.517,0,0,1,1.074-1.5,1.064,1.064,0,0,0,.381-0.69,0.906,0.906,0,0,0-.485-0.73,20.027,20.027,0,0,0-3.88-1.95,21.059,21.059,0,0,1-1.733,5.08c-1.9,4.35-5.093,11-10.151,20.95a1.067,1.067,0,0,0-.173.49,0.6,0.6,0,0,0,.312.45,10.983,10.983,0,0,0,2.667,1.5c0.451,0.14.624,0.07,0.832-.42a40.525,40.525,0,0,1,4.054-7.73c1.385-1.84,2.875-2.95,4.365-2.95,1.213,0,1.975,1,2.287,4.48,0.45,4.91,1.94,6.76,5.439,6.76a8.642,8.642,0,0,0,6.375-2.93,18.783,18.783,0,0,0,2.98-4.31,1.265,1.265,0,0,0,.138-0.59,0.941,0.941,0,0,0-.381-0.73,8.534,8.534,0,0,1-2.009-2.89,17.326,17.326,0,0,1-3.5,5.67,4.432,4.432,0,0,1-3.256,1.67c-1.317,0-1.733-1.15-2.01-3.69-0.381-3.34-1.317-6.58-5.058-6.58a6.857,6.857,0,0,0-4.227,1.78Zm38.072-9.02c-4.192,2.75-6.652,6.09-6.652,11.04,0,7.24,6.687,10.75,12.784,10.75,0.416,0,.555-0.21.659-0.73a12.465,12.465,0,0,0,.381-2.99c0-.39-0.208-0.52-0.763-0.52-6.028-.39-9.215-2.82-9.215-7.31,0-4.18,2.944-8.25,8.834-10.27a15.511,15.511,0,0,1,4.227-.77c0.451,0,.658-0.1.658-0.52a19.822,19.822,0,0,0-.381-3.06c-0.034-.25-0.208-0.45-0.727-0.38-8.939,1.18-16.561,2.33-20.823,2.95a46.423,46.423,0,0,1-5.508.6,24.114,24.114,0,0,0,1.282,3.75,0.807,0.807,0,0,0,.658.53,2.094,2.094,0,0,0,.762-0.28,21.81,21.81,0,0,1,2.183-.56c3.707-.76,7.414-1.5,11.641-2.3v0.07Zm5.024,4.98a17.224,17.224,0,0,1,3.5,4.04,0.359,0.359,0,0,0,.589.1l1.455-1.08a0.345,0.345,0,0,0,.1-0.55,16.058,16.058,0,0,0-3.291-3.73,0.358,0.358,0,0,0-.52-0.07Zm3.187-2.3a16.539,16.539,0,0,1,3.465,4.01,0.357,0.357,0,0,0,.589.1l1.385-1.08a0.4,0.4,0,0,0,.1-0.62,14.411,14.411,0,0,0-3.291-3.59,0.356,0.356,0,0,0-.52-0.07Zm18.705-5.36c-0.035,1.26-.069,1.81-0.069,1.99,0,0.38.034,0.42,0.381,0.42h2.7c0.347,0,.381-0.04.381-0.42,0-.18-0.069-0.73-0.069-1.99h6.444c-0.034,1.01-.069,1.5-0.069,1.64v0.17l-2.529-.62a9.168,9.168,0,0,1-.762,1.53,17.793,17.793,0,0,1-6.86,6.02,6.951,6.951,0,0,1,1.42,1.57,1.255,1.255,0,0,0,.762.76,1.768,1.768,0,0,0,.8-0.38,23.3,23.3,0,0,0,2.945-2.23,17.941,17.941,0,0,0,2.807,2.79,37.948,37.948,0,0,1-9.39,3.27,9.78,9.78,0,0,1,1.178,2.02c0.416,0.94.416,0.97,1.456,0.73l1.385-.42c0.035,0.42.07,1.15,0.07,2.4v1.81c0,3.86-.07,4.56-0.07,4.77,0,0.35.035,0.38,0.381,0.38h2.668c0.381,0,.416-0.03.416-0.38v-0.94h9.043v0.9c0,0.35.034,0.39,0.381,0.39h2.737c0.381,0,.416-0.04.416-0.39,0-.17-0.07-0.9-0.07-4.73v-2.19c0-1.36.035-2.13,0.07-2.4,0.519,0.17,1.039.27,1.559,0.41,1.108,0.28,1.108.25,1.489-.83a13.726,13.726,0,0,1,1.109-2.26,38.845,38.845,0,0,1-9.147-2.65,30.944,30.944,0,0,0,3.673-3.76,3.985,3.985,0,0,1,1.074-1.04,0.7,0.7,0,0,0,.381-0.63c0-.31-0.138-0.49-0.9-1.18-0.866-.8-1.074-0.91-1.351-0.91a1.275,1.275,0,0,0-.485.14,1.564,1.564,0,0,1-.693.11h-6.34a3.843,3.843,0,0,1,.727-0.98,0.746,0.746,0,0,0,.416-0.59,0.441,0.441,0,0,0-.173-0.28h2.5c0.346,0,.381-0.03.381-0.38,0-.14-0.07-0.63-0.07-1.64h4.158c3.083,0,4.123.07,4.331,0.07,0.381,0,.415-0.03.415-0.38v-2.33c0-.35-0.034-0.38-0.415-0.38-0.208,0-1.248.07-4.331,0.07h-4.158a4.264,4.264,0,0,1,.208-1.71,1.264,1.264,0,0,0,.139-0.49c0-.17-0.139-0.28-0.451-0.31-0.9-.11-2.321-0.17-3.43-0.21a13.087,13.087,0,0,1,.208,2.72h-6.444a4.264,4.264,0,0,1,.208-1.71,1.46,1.46,0,0,0,.139-0.52c0-.18-0.139-0.28-0.451-0.32-0.935-.1-2.321-0.17-3.43-0.2a13.808,13.808,0,0,1,.208,2.75h-3.95c-3.083,0-4.157-.07-4.33-0.07-0.347,0-.381.03-0.381,0.38v2.33c0,0.35.034,0.38,0.381,0.38,0.173,0,1.247-.07,4.33-0.07h3.95Zm6.375,18.8h9.043v3.34H864.7v-3.34Zm-1.247-2.72a31.292,31.292,0,0,0,5.993-2.89,32,32,0,0,0,6.479,2.86c-0.658.03-1.7,0.03-3.291,0.03h-9.181Zm9.216-9.64a17.113,17.113,0,0,1-3.257,3.1,15.682,15.682,0,0,1-3.361-3.1h6.618Zm-17.22,8.11a44.639,44.639,0,0,1-3.776,6.65,14.671,14.671,0,0,1-1.836,2.09c0.8,0.83,1.767,1.74,2.425,2.3a1.114,1.114,0,0,0,.589.27,0.493,0.493,0,0,0,.45-0.34,5.286,5.286,0,0,1,.659-1.22,45.038,45.038,0,0,0,3.43-5.95,2.847,2.847,0,0,0,.346-0.91,1.568,1.568,0,0,0-.624-0.87A25.861,25.861,0,0,1,855.444,4228.96Zm-4.088-10.82c-0.242.31-.277,0.38,0.035,0.55a33.676,33.676,0,0,1,4.712,3.38c0.346,0.28.415,0.21,0.727-.17l1.455-1.88c0.278-.39.278-0.49,0-0.66a35.819,35.819,0,0,0-4.711-3.21c-0.312-.17-0.347-0.21-0.728.21Zm-1.455,6.51c-0.242.31-.208,0.38,0.1,0.59a37.1,37.1,0,0,1,4.573,3.44,0.554,0.554,0,0,0,.312.18,0.409,0.409,0,0,0,.277-0.25l1.49-2.01a0.784,0.784,0,0,0,.243-0.42,0.433,0.433,0,0,0-.208-0.28,42.361,42.361,0,0,0-4.643-3.24c-0.346-.21-0.381-0.17-0.727.25Zm39.007-14.34a15.617,15.617,0,0,1,.9,4.03,53.123,53.123,0,0,0,1.8,8.5c-4.053,2.57-6.583,5.11-6.583,8.98,0,4.52,3.465,6.68,10.013,6.68a74.939,74.939,0,0,0,10.325-.52,0.546,0.546,0,0,0,.623-0.6,30.848,30.848,0,0,0-.346-3.23,0.434,0.434,0,0,0-.624-0.42,59.977,59.977,0,0,1-10.567.8c-3.984,0-5.509-.87-5.509-2.92,0-1.64,1.074-3.27,4.089-5.26a48.719,48.719,0,0,1,8.141-4.07,16.461,16.461,0,0,1,3.326-1.04,0.693,0.693,0,0,0,.693-0.7,1.43,1.43,0,0,0-.242-0.73,17.779,17.779,0,0,0-2.529-3.27,8.857,8.857,0,0,1-2.391,1.88c-1.94,1.04-3.187,1.7-4.92,2.64a49.2,49.2,0,0,1-1.108-5.99c-0.07-.8-0.174-1.63-0.174-2.33,0-.48.243-0.97,0.243-1.46a0.642,0.642,0,0,0-.624-0.56A20.172,20.172,0,0,0,888.908,4210.31Zm27.75,9.78c-1.282.21-2.945,0.52-3.915,0.66a32.845,32.845,0,0,1-3.707.35,13.738,13.738,0,0,0,.97,3.48,0.585,0.585,0,0,0,.9.38,9.414,9.414,0,0,1,1.559-.52c1.316-.28,2.425-0.49,4.192-0.73,0,3.69.069,6.61,0.243,8.49,0.415,4.56,2.459,6.02,9.458,6.02a80.3,80.3,0,0,0,8.7-.52,0.506,0.506,0,0,0,.451-0.63,21.546,21.546,0,0,0-.208-2.92c-0.07-.42-0.174-0.49-0.693-0.45a64.457,64.457,0,0,1-8.974.69c-4.226,0-4.989-.56-5.2-3.41-0.138-1.98-.1-4.07-0.069-7.87,2.668-.41,5.682-0.76,8.454-0.97-0.035,1.36-.1,2.61-0.243,3.69a1.415,1.415,0,0,1-1.628,1.5,11,11,0,0,1-2.945-.42,8.438,8.438,0,0,1,.762,3.13c0,0.63.139,0.87,0.693,0.91a16.217,16.217,0,0,0,2.148.1c2.6,0,4.158-1.15,4.539-3.86,0.208-1.36.312-3.07,0.416-5.36,2.286-.18,4.608-0.28,6.894-0.28,0.381,0,.451-0.04.451-0.49a26.306,26.306,0,0,0,0-2.85c0-.32-0.139-0.35-0.416-0.35-1.871.07-3.95,0.17-6.756,0.38,0.035-1.63.069-2.99,0.138-4.87a6.129,6.129,0,0,1,.347-1.57,1.624,1.624,0,0,0,.208-0.69,0.665,0.665,0,0,0-.658-0.66,23.512,23.512,0,0,0-4.193-.7,15.448,15.448,0,0,1,.451,3.97c0,1.29,0,3.16-.035,4.9-2.494.28-6.167,0.67-8.558,0.98,0.035-1.18.035-2.51,0.07-3.34a4.628,4.628,0,0,1,.346-1.53,1.99,1.99,0,0,0,.208-0.73,0.884,0.884,0,0,0-.727-0.74,31.784,31.784,0,0,0-4.158-.59,14.057,14.057,0,0,1,.485,3.69v3.73Zm37.875,3.13c2.633-2.54,4.954-4.98,7.483-7.45a5.636,5.636,0,0,1,1.525-1.11,0.931,0.931,0,0,0,.589-0.84,1.19,1.19,0,0,0-.382-0.83,13.166,13.166,0,0,0-2.321-2.23,1.2,1.2,0,0,0-.8-0.28,1.7,1.7,0,0,0-.658.28,9.17,9.17,0,0,1-1.906.52c-2.7.52-5.751,0.98-7.864,1.18a16.528,16.528,0,0,1-3.222-.07,16.655,16.655,0,0,0,1.212,3.76,0.8,0.8,0,0,0,.762.6,2.525,2.525,0,0,0,.693-0.18,11.348,11.348,0,0,1,1.456-.42c2.148-.45,4.607-0.94,6.686-1.32-1.593,1.99-3.222,3.73-5.37,5.95a83.408,83.408,0,0,1-8.211,7.69,0.568,0.568,0,0,0-.173.81,15.817,15.817,0,0,0,2.044,2.26,0.836,0.836,0,0,0,.52.31,0.993,0.993,0,0,0,.589-0.38c1.039-1.05,2.009-2.06,3.014-2.96a14.079,14.079,0,0,1,8.869-3.69,5.071,5.071,0,0,1,5.44,5.26c0,2.64-1.109,4.17-3.534,5.29a6.31,6.31,0,0,0-6.514-5.09c-2.7,0-4.885,1.92-4.885,4.25,0,3.24,2.633,5.12,7,5.12,7.414,0,12.091-3.73,12.091-9.54,0-5.01-3.534-8.35-8.592-8.35a10.417,10.417,0,0,0-5.509,1.56Zm3.014,13.02a7.856,7.856,0,0,1-1.594.14c-2.079,0-3.014-.74-3.014-1.81a1.469,1.469,0,0,1,1.663-1.33C956.057,4233.24,957.1,4234.32,957.547,4236.24Zm23-25.9h-5.4l0.97,20.71h3.5Zm-5.2,24.09v4.7h4.919v-4.7h-4.919Z" transform="translate(-416.75 -4208.59)"/>
</svg>
