<?xml version="1.0" encoding="utf-8"?>
<!-- Generator: Adobe Illustrator 26.0.3, SVG Export Plug-In . SVG Version: 6.00 Build 0)  -->
<svg version="1.1" id="Layer_1" xmlns="http://www.w3.org/2000/svg" xmlns:xlink="http://www.w3.org/1999/xlink" x="0px" y="0px"
	 viewBox="0 0 942.2 102.7" style="enable-background:new 0 0 942.2 102.7;" xml:space="preserve">
<style type="text/css">
	.st0{fill:#FFFFFF;}
</style>
<g>
	<path class="st0" d="M289.6,13.5c10.7,1.4,7.5,9.2,3.5,6.4c-0.4-2.2-2.2-4.6-3.9-6.1L289.6,13.5z M302.2,11.6
		c-1.7,5.5-4.7,15.5-5.3,17.9c-0.3,1.4-0.6,2.9-0.6,4.1c0.1,2.3,1.7,4.2,1.5,8.1c-0.1,2.2-1.3,3.5-3.2,3.5c-1,0-1.8-0.7-2.1-2.3
		c0.8-4.7,0.5-8.8-0.5-9.5c-0.6-0.5-1.3-0.6-2.3-0.7v-0.9h2c0.6,0,0.8,0,1.3-0.9c0.9-1.7,0.9-1.7,8.4-19.5L302.2,11.6z M292.8,3.3
		c11.4,1.2,8.5,9.2,4.3,6.8c-0.7-2.3-2.9-4.9-4.7-6.5L292.8,3.3z M319.6,16.9c3.1,3.8,8.5,6.7,13.3,8.1l-0.1,0.5
		c-1.6,0.4-2.8,1.7-3.3,3.8c-4.9-2.6-8.7-6.8-11.1-12.3h-4.6c-3,5.8-8.1,10.1-15.8,13.1l-0.3-0.6c5.7-3.3,9.4-7.5,11.7-12.5H302
		l-0.4-1.3h8.3c0.9-2.4,1.6-4.9,1.9-7.6h-8.6L303,6.6h19.2l2.5-3.3c0,0,2.9,2.3,4.6,3.9C329.1,7.7,328.6,8,328,8h-11
		c-0.6,2.8-1.4,5.3-2.4,7.6H325l2.6-3.4c0,0,2.9,2.3,4.6,4c-0.1,0.5-0.6,0.7-1.2,0.7H319.6z M307.7,28.5c2.3,13.8-9.8,11.8-6.2,7.5
		c2.4-1,4.8-3.5,5.5-7.5L307.7,28.5z M311.5,23.1l5.7,0.6c-0.1,0.6-0.6,1-1.6,1.2v15.5c0,3.1-0.6,4.8-5.7,5.3
		c-0.1-1.3-0.3-2.3-1-2.9c-0.6-0.7-1.7-1.1-3.9-1.5v-0.7c0,0,4.6,0.3,5.6,0.3c0.7,0,1-0.2,1-0.8V23.1z M318.1,29.2
		c8.8,5.7,4.7,13.2,1.4,9.8c0.3-3.1-0.8-6.9-2-9.5L318.1,29.2z M323.3,28.2c12.3,5,8.9,14.2,4.9,10.9c-0.3-3.5-2.9-7.9-5.5-10.6
		L323.3,28.2z"/>
	<path class="st0" d="M354.1,10.4l4.3,3.7c-0.4,0.4-1,0.7-1.9,0.9c-0.4,17.3-1.1,25.1-3.5,27.6c-1.5,1.6-3.4,2.3-5.7,2.3
		c0-1.5-0.2-2.5-0.8-3.2c-0.7-0.7-2.2-1.2-4-1.6l0-0.7c1.7,0.2,4.3,0.4,5.3,0.4c0.9,0,1.2-0.2,1.7-0.6c1.6-1.5,2.2-9.8,2.5-24.9
		h-5.3c-0.5,11.1-2.3,22.6-11.5,31.3l-0.7-0.6c6.3-9.1,7.6-19.9,7.9-30.6h-6.3l-0.4-1.3h6.8c0.1-3.3,0-6.6,0-9.8l6.1,0.6
		c-0.1,0.7-0.5,1.1-1.7,1.3c0,2.6,0,5.2-0.1,7.9h4.7L354.1,10.4z M377.9,11.9c-0.3,0.4-1.1,0.7-2,1v29.4c-0.1,0.4-2.2,1.6-3.8,1.6
		h-0.7v-4.4h-6.9V43c0,0.6-1.6,1.6-3.5,1.6h-0.7V8.7l4.4,2h6.2l2.3-2.6L377.9,11.9z M371.4,38.2V12h-6.9v26.2H371.4z"/>
	<path class="st0" d="M384.6,13.6c-1,1-2,1.9-2.9,2.7l-0.6-0.5c2.3-3.1,4.6-8,5.8-13l5,1.8c-0.2,0.6-0.8,0.9-1.7,0.9
		c-0.6,1.1-1.1,2.2-1.8,3.3l0.6,0.2h8.3l1.9-2.3c0,0,2.2,1.7,3.5,2.9c-0.1,0.5-0.5,0.7-1.1,0.7h-5.7v4h1.3l1.7-2.1
		c0,0,1.6,1.2,2.7,2.3c1.9-3,3.6-7.3,4.6-11.7l5.1,1.7c-0.1,0.6-0.7,1-1.7,0.9c-0.5,1.1-1.1,2.3-1.7,3.3l0.7,0.3h9.2l1.9-2.3
		c0,0,2.2,1.7,3.6,2.9c-0.1,0.5-0.6,0.7-1.2,0.7h-6.2v4h1.6L419,12c0,0,2,1.5,3.2,2.8c-0.1,0.5-0.5,0.7-1.2,0.7h-5.3v4.1h1.6
		l1.7-2.2c0,0,2,1.5,3.2,2.8c-0.1,0.5-0.6,0.7-1.2,0.7h-5.3v4h2.6l1.9-2.5c0,0,2.3,1.7,3.7,3.1c-0.1,0.5-0.6,0.7-1.2,0.7h-14.9v0.5
		c0,0.3-1.2,1.2-3.1,1.2h-0.6V13.6c-0.8,0.9-1.7,1.7-2.6,2.3l-0.6-0.4h-0.2h-4.9v4.1h1.3l1.7-2.1c0,0,1.9,1.5,3.1,2.7
		c-0.1,0.5-0.6,0.7-1.1,0.7h-4.9v4h2.1l1.9-2.4c0,0,2.2,1.7,3.5,3c-0.1,0.5-0.6,0.7-1.2,0.7h-13.7v0.7c0,0.3-1.2,1.2-3.1,1.2h-0.6
		V13.6z M418.6,30.9c-0.4,0.4-0.9,0.6-2.2,0.6c-2.5,2.7-5.5,5-9,6.9c5.3,1.4,11.1,2.1,17.1,2.4l0,0.6c-1.9,0.5-3.1,2-3.6,4.1
		c-6.7-0.9-12.9-2.4-18-4.9c-6.1,2.5-13.2,4.1-21.1,4.8l-0.3-0.7c6.6-1.2,12.9-3.2,18.3-5.8c-3.5-2.1-6.4-4.9-8.6-8.3h-7.8l-0.4-1.3
		h28.6l2.9-2.4L418.6,30.9z M388.3,10.3v4h3.9v-4H388.3z M392.3,15.5h-3.9v4.1h3.9V15.5z M392.3,21h-3.9v4h3.9V21z M391.1,2.8
		c8.8,1.4,5.5,7.8,2.3,5.3c-0.2-1.7-1.5-3.8-2.7-5L391.1,2.8z M392.4,30.7c2.6,2.8,6.3,4.9,10.7,6.5c3.2-1.9,5.9-4.1,8-6.5H392.4z
		 M407.8,10.3v4h4.3v-4H407.8z M412.1,15.5h-4.3v4.1h4.3V15.5z M412.1,21h-4.3v4h4.3V21z M410.9,2.7c8.8,1.4,5.5,7.8,2.3,5.3
		c-0.1-1.7-1.4-3.8-2.7-5L410.9,2.7z"/>
	<path class="st0" d="M464.9,39.1c0,0,3.3,2.4,5.2,4.2c-0.1,0.5-0.6,0.7-1.3,0.7h-41.1l-0.4-1.3h19v-5.2h-15l-0.4-1.3h15.4v-4.7
		h-8.6v0.9c0,0.4-1.9,1.4-3.7,1.4h-0.6V15.9l4.7,2h8.3v-4.3h-17.8l-0.4-1.3h18.1v-4c-5,0.4-10.3,0.6-15.2,0.6L431,8
		c10.2-0.9,23-3.2,29.8-5.2l4,4c-0.5,0.4-1.4,0.4-2.7-0.2c-3.2,0.5-7.1,1-11.3,1.3v4.3h11.1l2.7-3.2c0,0,3,2.2,4.9,3.8
		c-0.1,0.5-0.6,0.7-1.2,0.7h-17.4v4.3h8.3l2.2-2.4l4.6,3.5c-0.3,0.4-1,0.7-1.9,0.9v11.9c0,0.3-2.2,1.2-3.7,1.2h-0.7v-1.7h-8.8v4.7
		h9.2l2.5-3.1c0,0,2.9,2.1,4.7,3.7c-0.1,0.5-0.6,0.7-1.2,0.7h-15.1v5.2h11.3L464.9,39.1z M437.7,19.1v4.7h8.6v-4.7H437.7z M446.3,30
		v-4.8h-8.6V30H446.3z M450.8,19.1v4.7h8.8v-4.7H450.8z M459.6,30v-4.8h-8.8V30H459.6z"/>
	<path class="st0" d="M510.5,7c0,0,3.1,2.3,5.1,4c-0.1,0.5-0.6,0.7-1.3,0.7H492c-1.1,2-2.3,4-3.8,6l1.2,0.4h14.4l2.2-2.5l4.9,3.7
		c-0.4,0.5-1.1,0.9-2.2,1.1V40c0,3.1-0.7,5-6.2,5.5c-0.1-1.4-0.4-2.5-1.1-3.2c-0.7-0.7-1.8-1.2-4-1.6v-0.7c0,0,4.9,0.3,5.9,0.3
		c0.8,0,1-0.3,1-1v-5.8h-16.1c-0.8,4.3-2.6,8.7-7.3,12l-0.5-0.5c3.5-5.3,3.7-12.1,3.7-18.2v-4.4c-2.9,3-6.3,5.8-10.2,7.8l-0.4-0.5
		c6-4.7,10.5-11.5,13.5-18.2h-12.5l-0.3-1.3h13.4c1.1-2.6,2-5.3,2.6-7.8l6.4,1.9c-0.2,0.5-0.6,0.8-1.8,0.8c-0.6,1.7-1.4,3.3-2.2,5.1
		h15L510.5,7z M504.4,32.3v-5.8h-15.6V27c0,1.7,0,3.5-0.3,5.3H504.4z M488.7,19.5v5.7h15.6v-5.7H488.7z"/>
	<path class="st0" d="M531.3,16c-0.2,0.5-0.8,0.9-1.7,0.7c-2.6,4.5-6.2,7.8-10,9.8l-0.6-0.5c2.7-2.8,5.3-7.4,6.9-12.3L531.3,16z
		 M538.9,23.4c-0.2,0.6-0.8,1-1.9,0.9c-0.5,1.7-1.1,4-2.4,6.6c7.4,6.3,5.1,12.3,1.2,9.8c-0.7-1.9-2-4-3.5-6
		c-2.5,3.5-6.3,7.2-12.5,10.7l-0.6-0.7c5.4-4.4,8.7-8.8,10.7-12.8c-2-2.4-4.3-4.7-6.3-6.5l0.5-0.4c2.9,1.2,5.2,2.4,7.2,3.7
		c1-2.8,1.5-5.2,1.7-7.1L538.9,23.4z M519.8,12.7l-0.4-1.3h17.9l2.5-3.3c0,0,2.9,2.3,4.6,3.8c-0.1,0.5-0.6,0.7-1.2,0.7H519.8z
		 M526,3.1c11.8,1.6,8.5,10.5,4,7.6c-0.5-2.6-2.5-5.5-4.4-7.3L526,3.1z M532.6,14.1c12.2,1.9,9.8,10.7,5.4,8.2
		c-0.8-2.8-3.5-6-5.8-7.9L532.6,14.1z M559,14.5c-0.9,7.1-2.6,13.4-6.1,18.7c2.5,3.5,5.7,6.4,9.9,8.6l-0.1,0.5
		c-2,0.4-3.3,1.4-3.9,3.4c-3.5-2.5-6.1-5.7-8-9.5c-3.3,3.9-7.6,7.1-13.6,9.6l-0.4-0.5c5.7-3.5,9.7-7.7,12.4-12.6
		c-1.5-3.9-2.5-8.3-3.2-13c-1.4,2.9-3,5.5-4.8,7.7l-0.6-0.4c2.6-6.2,4.7-15.3,5.5-24l6.3,1.3c-0.1,0.6-0.7,1.1-1.7,1.1
		c-0.6,2.8-1.3,5.4-2.2,7.9h7.1l2.5-3.3c0,0,2.9,2.3,4.6,3.9c-0.1,0.5-0.6,0.7-1.2,0.7H559z M548.2,14.5c-0.4,1.2-0.9,2.3-1.3,3.3
		c0.9,4.3,2.2,8.2,4,11.7c1.9-4.6,3-9.6,3.5-15H548.2z"/>
	<path class="st0" d="M606.7,40.4c1.6,2.3,1.7,3.4,1.2,4c-1.6,1.7-5.1,0.1-7.2-1.6c-2.4-1.9-4.5-4.1-6.1-6.7
		c-3.6,3.7-8.2,6.9-14.1,9.2l-0.4-0.6c5.4-3,9.6-7.1,12.8-11.6c-2.8-5.6-4.1-12.2-4.7-19.6h-13.8V21h6.5l2.2-2.2l4.1,3.4
		c-0.3,0.4-0.8,0.6-1.7,0.7c-0.2,9.6-0.9,13.4-2.8,15c-1.2,0.9-2.7,1.4-4.6,1.4c0-1.1-0.1-2.2-0.7-2.8c-0.5-0.6-1.6-1-2.9-1.3l0-0.7
		c1.2,0.1,3.2,0.3,4,0.3c0.6,0,1-0.1,1.3-0.4c0.8-0.8,1.3-4.5,1.5-12.1h-6.9c0,7.3-0.6,17.1-8.8,23.5l-0.5-0.5
		c4.5-6.9,4.9-15.5,4.9-23.2V10.3l5.1,1.9h13.1c-0.2-3-0.3-6.1-0.3-9.3l6,0.6c-0.1,0.6-0.5,1.2-1.6,1.3c0,2.5,0,4.9,0.1,7.4h8.3
		l2.7-3.4c0,0,3,2.3,4.8,3.9c-0.1,0.5-0.6,0.7-1.3,0.7h-14.4c0.4,5.5,1.3,10.7,3.1,15.2c1.9-3.6,3.3-7.4,4.2-11.1l6.2,2
		c-0.2,0.6-0.6,0.9-1.8,0.8c-1.5,4.2-3.5,8.4-6.5,12.3c1.5,2.3,3.3,4.4,5.6,5.9c0.8,0.6,1.1,0.6,1.6-0.2c0.7-1.1,1.7-3.5,2.5-5.5
		l0.6,0.1L606.7,40.4z M595,4c10.8,0,8.8,7.6,4.8,5.7c-0.8-1.9-3.2-4.1-5.2-5.3L595,4z"/>
	<path class="st0" d="M630.4,7.6c-0.2,0.5-0.6,0.8-1.7,0.7c-3.1,5.8-8.8,12.5-16.9,16.1l-0.4-0.5c6.3-4.8,10.9-12.6,13-18.8
		L630.4,7.6z M642.6,19l4.3,3.7c-0.3,0.4-0.9,0.6-1.9,0.8c-0.5,11.1-1.6,17.8-3.9,19.9c-1.5,1.3-3.3,1.9-5.9,1.9c0-1.3-0.2-2.4-1-3
		c-0.8-0.7-2.9-1.3-5-1.7l0-0.7c2.2,0.2,5.9,0.5,7,0.5c0.9,0,1.2-0.1,1.7-0.5c1.4-1.2,2.2-7.6,2.7-17h-9.3
		c-0.8,7.7-3.3,16.4-17.9,22.6l-0.5-0.7c11.6-7.1,13.2-15.2,13.6-21.9h-7.1l-0.4-1.3h21.2L642.6,19z M642.6,5.7
		c-0.5,0.6-1.9,0.9-3.5,1.1c2.3,4.9,8,9.8,15,12.1l-0.1,0.5c-1.7,0.5-3.2,2-3.7,3.7c-6.1-3.8-10.6-9.6-12.6-16.6h-5.1l-0.4-1.3h4.4
		l1.5-2.4L642.6,5.7z"/>
	<path class="st0" d="M39.7,59.3c0,0,2.9,2.3,4.8,4c-0.1,0.5-0.6,0.7-1.2,0.7h-9c-1.2,1.9-2.7,3.9-4,5.2h6.2l2.1-2.2l4.2,3.3
		c-0.2,0.3-0.8,0.6-1.6,0.8v20.5c0,0.3-2.1,1.3-3.6,1.3h-0.7V91H26v1c0,0.5-1.7,1.5-3.5,1.5h-0.6V77.8c-0.3,0.2-0.8,0.3-1.6,0.4
		c-1.3,2.1-3.7,5.2-5.5,7.2L14.2,85c0.6-2.1,1.2-5.3,1.7-7.7h-3.8V96c0,3-0.6,5.2-5.5,5.6c0-1.3-0.2-2.3-0.8-3
		c-0.6-0.7-1.6-1.2-3.5-1.5v-0.6c0,0,4,0.3,4.8,0.3c0.7,0,0.9-0.3,0.9-0.8V77.3H1.5L1.1,76h14.5l2.3-2.3l4,3.7v-10l4.4,1.9h2.6
		c0.2-1.4,0.4-3.5,0.6-5.2h-8.8l0.1,0.1c-0.3,0.4-0.9,0.5-1.8,0.5c-1.7,1.6-4.5,3.5-7,4.9c3.8,3.1,1.7,7.1-1.4,5.3
		c-0.9-2.8-4-6-6.7-7.7L4,66.7c2.9,0.4,5.1,1.1,6.6,2c1.2-1.5,2.4-3.4,3.3-4.9H2.4L2,62.5H14l2.4-2.3l3.3,3.1l-0.1-0.6H37L39.7,59.3
		z M16.1,101c4-2.1,8.5-5.8,10.6-8.7l5.1,3.1c-0.2,0.4-0.7,0.5-1.5,0.3c-2.9,2.3-8.8,4.9-13.8,6L16.1,101z M26,70.5V76h10.8v-5.4H26
		z M26,82.8h10.8v-5.5H26V82.8z M36.8,89.7v-5.6H26v5.6H36.8z M32.6,92.5c13.7,1.8,11.8,10.8,7.3,8.7c-1.4-2.9-4.9-6.3-7.7-8.3
		L32.6,92.5z"/>
	<path class="st0" d="M65.2,63.8c-0.4,0.4-1,0.6-2.1,0.6c-1.5,2.9-4.4,8-6.6,10.8c5.1,3.4,7.1,7.6,7.1,11.3c0,4.5-1.7,6.8-6.7,7
		c0-1.2-0.2-2.8-0.6-3.3c-0.4-0.5-1.2-0.8-2.3-1v-0.6h3.4c0.5,0,0.8-0.1,1.1-0.3c0.7-0.5,1.1-1.3,1.1-2.9c0-3.3-1.1-6.8-4.2-10.1
		c1-2.9,2.4-8.4,3.3-12.1h-5.4v36.9c0,0.3-1.3,1.4-3.4,1.4h-0.7V60l4.7,1.9h4.6l2.4-2.3L65.2,63.8z M85.8,64.4c0,0,2.9,2.3,4.6,4
		c-0.1,0.5-0.6,0.7-1.2,0.7H74.4c-0.1,2.4-0.2,4.7-0.5,6.9h7.9l2.4-2.4l4.3,3.7c-0.3,0.4-0.9,0.6-1.9,0.8c-0.5,12.5-1.6,19.3-4,21.4
		c-1.4,1.3-3.3,1.9-5.8,1.9c0-1.3-0.2-2.4-0.9-3c-0.7-0.7-2.5-1.3-4.4-1.7l0-0.7c1.9,0.2,5.1,0.4,6.2,0.4c0.8,0,1.2-0.1,1.7-0.5
		c1.5-1.3,2.3-8.1,2.8-18.6h-8.5c-1.3,10.5-4.9,18.8-15.6,24.2l-0.4-0.5c10-8.2,11.8-18.9,11.9-32h-7.5l-0.4-1.3h21.5L85.8,64.4z
		 M70.9,58.9c11.5,3,6.9,11.5,2.9,7.8c-0.1-2.5-1.7-5.6-3.3-7.5L70.9,58.9z"/>
	<path class="st0" d="M108.6,88.2c-2.6,1.8-6.6,4.6-12.1,8.1c-0.1,0.6-0.5,1.1-1,1.3l-2.7-4.9c1.1-0.3,2.9-0.8,5.2-1.6V77.8h-4.1
		l-0.4-1.3H98V64.8h-4.5l-0.4-1.3h9l2.3-3.2c0,0,2.7,2.2,4.4,3.8c-0.1,0.5-0.6,0.7-1.2,0.7h-5.4v11.7h0.4l1.9-2.9
		c0,0,2.3,2.1,3.5,3.5c-0.1,0.5-0.6,0.7-1.1,0.7h-4.6v11.8c2-0.6,4.1-1.3,6.2-2.1L108.6,88.2z M119.1,69.9
		c-0.6,4.4-1.4,8.6-2.7,12.6c5.9,8.5,3.6,14.4,0.1,11.4c-0.4-2.1-1.1-4.4-2.1-6.6c-2.7,5.6-6.9,10.4-12.9,14.3l-0.5-0.5
		c5.7-5,9.3-11.2,11.5-18c-1.7-3.4-3.7-6.6-5.4-9.2l0.6-0.3c2.3,1.8,4.3,3.7,5.9,5.4c0.6-2.9,1.1-5.9,1.3-9h-9.2l-0.4-1.3h11.3
		l2.2-3.2c0,0,2.5,2.2,4,3.8c-0.1,0.5-0.6,0.7-1.2,0.7H119.1z M110,59.8c9.7,3.5,5.3,10.6,1.8,7.4c0-2.4-1.2-5.3-2.3-7.1L110,59.8z
		 M132.4,94c0,0,2.6,2.6,4,4.4c-0.1,0.5-0.6,0.7-1.2,0.7h-18.7l-0.4-1.3h8.4v-17h-4.7l-0.4-1.3h5.1V64.7h-5.8l-0.4-1.3H129l2.5-3.4
		c0,0,2.9,2.3,4.6,4c-0.1,0.5-0.6,0.7-1.2,0.7h-6.1v14.8h1l2-3.3c0,0,2.3,2.3,3.6,3.9c-0.1,0.5-0.6,0.7-1.2,0.7h-5.4v17h1.6
		L132.4,94z"/>
	<path class="st0" d="M143.1,90.6c1.5,4.5,1,8-0.3,9.6c-0.9,1.2-2.9,1.3-3.7,0c-0.6-1.1,0-2.3,1-3.2c1.1-1.1,2.4-4,2.3-6.4
		L143.1,90.6z M157.1,84.9c0,0,2.4,1.9,4,3.3c-0.1,0.5-0.6,0.7-1.2,0.7h-20.6l-0.4-1.3h9.1v-5.9h-7.6l-0.4-1.3h8v-4.5h-3.8v0.7
		c0,0.4-1.6,1.2-3,1.2h-0.6V59.9l3.8,1.7h10.7l1.8-2l4,3c-0.3,0.3-0.9,0.7-1.7,0.8v12.6c0,0.3-1.8,1.1-3,1.1h-0.6v-1.3H152v4.5h2.3
		l2.1-2.5c0,0,2.3,1.7,3.8,3.1c-0.1,0.5-0.6,0.7-1.2,0.7H152v5.9h2.9L157.1,84.9z M148.6,74.5V62.9h-4.3v11.6H148.6z M145,64.5
		c5.4,5,2.9,9.3,1,7.2c0-2.3-0.9-5.2-1.6-7L145,64.5z M146.4,90.8c6.2,6,1.9,12-0.6,8.7c0.6-2.8,0.4-6.2-0.1-8.6L146.4,90.8z
		 M150.4,90.5c8.1,5,4.3,11.4,1.4,8.4c0.2-2.7-0.8-5.9-2-8.1L150.4,90.5z M151.6,62.9v11.6h4v-7.8h0c-0.7,1.5-2,3.8-3.2,5.7
		l-0.6-0.2c0.5-2.3,1.1-5.9,1.3-7.7l2.5,0.9v-2.5H151.6z M155.4,90.4c8.8,4.6,5.2,11.5,2.1,8.4c0.1-2.7-1.2-6-2.6-8.1L155.4,90.4z
		 M172.6,71.3v9.5h3.1l2.1-2.4l4.2,3.2c-0.3,0.4-0.8,0.7-1.8,0.9v17.5c0,0.2-1.5,1.2-3.6,1.2h-0.7v-3.2h-10v2.5
		c0,0.3-1.3,1.1-3.4,1.1h-0.7V78.9l4.6,1.9h2V59.3l5.8,0.6c-0.1,0.7-0.5,1.2-1.7,1.3v8.7h3.3l2.3-3c0,0,2.7,2.1,4.2,3.6
		c-0.1,0.5-0.6,0.7-1.2,0.7H172.6z M165.9,82.1v14.4h10V82.1H165.9z"/>
	<path class="st0" d="M206.6,77c1.8,0,3.2,1.4,3.2,3.2c0,1.8-1.4,3.2-3.2,3.2c-1.8,0-3.2-1.4-3.2-3.2C203.4,78.4,204.8,77,206.6,77z
		"/>
	<path class="st0" d="M248,95.3c0,2.9-0.6,4.6-5.2,5c-0.1-1.2-0.4-2.2-0.9-2.7c-0.6-0.6-1.5-1.1-3.3-1.4v-0.7c0,0,3.8,0.3,4.6,0.3
		c0.8,0,1-0.3,1-0.9V80.5c-1.1,1.3-2.6,2.9-4.2,4.7c-0.1,0.6-0.4,1.1-0.8,1.3l-1.7-3c-0.4,6.3-1.7,13-5.9,18.2l-0.6-0.4
		c3-7.5,3-16.9,3-25.5V59.9l4.5,1.8h5.5l1.8-2.2l4.1,3.2c-0.3,0.3-0.9,0.7-1.7,0.9V95.3z M237.6,75.8c0,2,0,4.1-0.1,6.3
		c1.5-0.7,4-1.9,6.7-3.4v-4.6c-0.4,0.4-1,0.6-1.8,0.5c-1.1-1-3-2.2-4.8-3V75.8z M237.6,63v7.1c3.6-0.5,5.7,0.4,6.6,1.5V63H237.6z
		 M272.9,95.3c1.1,0.5,1.3,1,1.3,1.8c0,1.7-1.5,2.6-5.8,2.6h-2.2c-3.1,0-3.7-1.1-3.7-3.8V64.2h-6.4v13.5c0,8.1-0.5,17.5-8.6,23.8
		l-0.6-0.4c4.6-6.5,5.1-14.9,5.1-23.4V61l4.8,1.9h5.2l2.3-2.6l4.4,3.8c-0.4,0.4-0.9,0.6-1.9,0.8v29.7c0,0.7,0.1,1,0.8,1h1.2
		c0.5,0,0.9,0,1.1,0c0.3,0,0.5-0.1,0.7-0.6c0.3-0.9,1.1-5,1.6-8.1h0.6L272.9,95.3z"/>
	<path class="st0" d="M320,67.4c-0.3,0.4-0.8,0.4-1.7,0.5c-1.3,1.2-3.7,2.9-5.3,3.7l-0.6-0.3c0.6-1,1.2-2.7,1.7-4h-6.7
		c0.7,0.5,2.6,1.8,3.8,2.8c0,0.5-0.6,0.8-1.2,0.8l-11.8,0.7v0.3c0,0.5,0.1,0.6,1.9,0.6h5.5c2,0,4.1,0,4.8,0c0.5,0,1-0.1,1.3-0.1
		c0.3,0,0.9-0.2,1.2-0.2h0.4l0.2,0c1.3,0.4,1.7,0.7,1.7,1.3c0,0.9-0.5,1.4-2.3,1.7l3.7,2.7c-0.2,0.3-0.8,0.6-1.6,0.8v6.5
		c0,0.3-1.8,1-3.1,1.1l3.1,2.3c-0.3,0.4-1,0.8-1.9,1v7.7c0,2.4-0.6,3.9-5.5,4.3c-0.1-1-0.3-1.7-0.9-2.3c-0.6-0.4-1.6-0.9-3.5-1.1
		v-0.6c0,0,4,0.2,4.9,0.2c0.7,0,0.9-0.2,0.9-0.8v-2.2c-3.6,0.8-8,1.8-13.6,3c-0.3,0.6-0.8,0.9-1.2,1l-1.2-4c2.9-0.1,9.2-0.6,16-1.2
		v-4.7h-15.9v1.6c15-1.8,14.9,3.3,12,3.3c-2.3-0.8-6.9-1.7-12-2.1c0,3.3-0.9,7.5-7.4,10l-0.4-0.5c3.5-2.9,3.8-6.4,3.8-9.7v-4.6
		c-0.3,0-0.7,0.1-1,0.1l-0.6,0V75l4.4,1.8h18.4l1.5-1.6c-1.6,0.1-3.8,0.1-6.8,0.1h-5.8c-4.4,0-5.2-0.7-5.2-3.2v-0.5l-7.4,0.5
		l-0.5-1.3l7.8-0.5v-2.9l5.3,0.5c-0.1,0.6-0.5,1-1.3,1.1v1.2l7-0.5l1.8-2.6h-21.6v10.7c0,7.5-0.5,17.3-7.8,23.7l-0.6-0.4
		c4-6.8,4.3-15.4,4.3-23.3V64l4.8,1.8h9.3v-7.2l5.9,0.6c-0.1,0.6-0.5,1.1-1.7,1.2v1.8h9.8l2.4-2.9c0,0,2.8,2.1,4.4,3.5
		c-0.1,0.5-0.5,0.7-1.2,0.7h-15.4v2.3H314l2.2-2.3L320,67.4z M310.8,85.5v-0.2h-19.1v0.4c0,0.1-0.3,0.4-0.8,0.6l3,1.2h14.7l1.9-2.2
		L310.8,85.5z M291.7,78.1v2.2h7.5v-2.2H291.7z M299.2,83.9v-2.3h-7.5v2.3H299.2z M303.3,78.1v2.2h7.5v-2.2H303.3z M303.3,83.9h7.5
		v-2.3h-7.5V83.9z"/>
	<path class="st0" d="M340.9,87.5c0,0,2.7,2.2,4.3,3.7c-0.1,0.5-0.6,0.7-1.2,0.7h-8.1v8.7c0,0.1-1.3,0.9-3.5,0.9h-0.7V92h-8.1
		l-0.4-1.3h8.5v-5.6h-2.2v1c0,0.4-1.7,1.3-3.4,1.3h-0.6V69.2l4.2,1.7h2v-4.4h-7.9l-0.4-1.3h8.3v-6.3l5.9,0.5c0,0.6-0.4,1.1-1.6,1.2
		v4.5h2.5l2.4-3.2c0,0,2.8,2.2,4.4,3.8c-0.1,0.5-0.6,0.7-1.2,0.7h-8.1v4.4h1.8l2-2.2L344,72c-0.3,0.3-1,0.7-1.8,0.9v12.7
		c0,0.3-2.1,1.1-3.4,1.1h-0.6v-1.6h-2.3v5.6h2.7L340.9,87.5z M329.3,72.2v5.1h8.7v-5.1H329.3z M329.3,83.7h8.7v-5.1h-8.7V83.7z
		 M343.5,75.4c2.5-4,4.7-10.2,5.6-16.6l6.7,1.8c-0.1,0.6-0.7,1-1.7,1c-0.8,2.1-1.7,4.1-2.7,5.9h7.8l2.5-3.4c0,0,2.8,2.3,4.5,4
		c-0.1,0.5-0.6,0.7-1.2,0.7h-14.3c-1.8,2.9-4,5.2-6.5,6.9L343.5,75.4z M364.5,96c1.5,0.5,1.9,0.7,1.9,1.6c0,1.8-2.4,2.8-7.6,2.8
		h-6.3c-5.3,0-7.6-1.4-7.9-4.8c-0.4-3.7,4.4-8.4,11.9-18.8h-9.8l-0.4-1.3H357l1.8-2.1l4.4,3.5c-0.4,0.4-1.1,0.6-2.2,0.7
		c-8.5,10.3-12.3,15.5-12.1,17.5c0.1,1.2,1.4,1.5,4,1.5h6c2.7,0,3.2-0.1,3.5-0.7c0.6-1.2,1.2-3.4,1.7-5.9h0.6L364.5,96z"/>
	<path class="st0" d="M377.9,65.6h-8.3l-0.4-1.3h8.6l-0.7-5.4l5.7,0.5c0,0.6-0.4,1-1.3,1.2l0.5,3.7h2.4l2.3-3.1c0,0,2.7,2.1,4.2,3.6
		c-0.1,0.5-0.6,0.7-1.2,0.7h-7.5l0.5,3.8c-0.6,0.9-2.2,1.2-4.1,1.2L377.9,65.6z M378.1,84.3l5.9,0.6c-0.1,0.6-0.4,1.1-1.5,1.2v3.1
		c-0.1,4.6-2.1,9.8-12.2,12.4l-0.4-0.6c6.9-3.1,8.1-7.8,8.1-11.9V84.3z M405.5,78.8c1.6,0.4,2.1,0.9,2.1,1.6c0,2-1.8,2.4-15,2.4
		h-9.5c-5.9,0-7.2-0.5-7.2-3.6v-5.3h-4.3l-0.4-1.3h32l2.5-3.2c0,0,2.9,2.2,4.6,3.8c-0.1,0.5-0.6,0.7-1.2,0.7h-29.2v0.7v4
		c0,0.7,0.1,0.8,3.2,0.8h9.8c3.6,0,7.1,0,8.4-0.1c0.8,0,1.5-0.1,1.9-0.2c0.5,0,1.1-0.2,1.6-0.4h0.4L405.5,78.8z M387.4,67.2
		c9.1-0.2,6.2,6.8,2.5,4.6c-0.3-1.6-1.6-3.3-2.9-4.2L387.4,67.2z M388,84.7l5.8,0.6c-0.1,0.6-0.5,1-1.6,1.2v12.6
		c0,0.4-1.9,1.1-3.5,1.1H388V84.7z M407.9,61.2c0,0,2.7,2.1,4.2,3.6c-0.1,0.5-0.6,0.7-1.2,0.7h-9.1l-0.6,4c-0.8,0.6-2.4,0.9-4.2,0.5
		l0.7-4.5h-5.4l-0.4-1.3h6l0.8-5.4l5.7,1.2c-0.2,0.6-0.6,1.1-1.7,1.1l-0.6,3.2h3.6L407.9,61.2z M409.7,95.9c1.2,0.5,1.5,0.8,1.5,1.7
		c0,1.6-1.6,2.4-6.3,2.4h-2.7c-3.3,0-3.8-0.9-3.8-3.6V84.3l5.6,0.5c0,0.6-0.5,1-1.4,1.1v9.5c0,0.6,0.1,0.7,0.9,0.7h1.9h1.7
		c0.3,0,0.7,0,0.9,0c0.3,0,0.7-0.1,1-0.2h0.5L409.7,95.9z"/>
	<path class="st0" d="M436.6,77c1.8,0,3.2,1.4,3.2,3.2c0,1.8-1.4,3.2-3.2,3.2c-1.8,0-3.2-1.4-3.2-3.2C433.4,78.4,434.8,77,436.6,77z
		"/>
	<path class="st0" d="M478,95.3c0,2.9-0.6,4.6-5.2,5c-0.1-1.2-0.4-2.2-0.9-2.7c-0.6-0.6-1.5-1.1-3.3-1.4v-0.7c0,0,3.8,0.3,4.6,0.3
		c0.8,0,1-0.3,1-0.9V80.5c-1.2,1.3-2.6,2.9-4.2,4.7c-0.1,0.6-0.4,1.1-0.8,1.3l-1.7-3c-0.4,6.3-1.7,13-5.9,18.2l-0.6-0.4
		c3-7.5,3-16.9,3-25.5V59.9l4.5,1.8h5.5l1.8-2.2l4.1,3.2c-0.3,0.3-0.9,0.7-1.7,0.9V95.3z M467.6,75.8c0,2,0,4.1-0.1,6.3
		c1.5-0.7,4-1.9,6.7-3.4v-4.6c-0.4,0.4-1,0.6-1.8,0.5c-1.1-1-3-2.2-4.8-3V75.8z M467.6,63v7.1c3.6-0.5,5.7,0.4,6.6,1.5V63H467.6z
		 M502.9,95.3c1.1,0.5,1.3,1,1.3,1.8c0,1.7-1.5,2.6-5.8,2.6h-2.2c-3.1,0-3.7-1.1-3.7-3.8V64.2h-6.4v13.5c0,8.1-0.5,17.5-8.6,23.8
		l-0.6-0.4c4.6-6.5,5.1-14.9,5.1-23.4V61l4.8,1.9h5.2l2.3-2.6l4.4,3.8c-0.4,0.4-0.9,0.6-1.9,0.8v29.7c0,0.7,0.1,1,0.8,1h1.2
		c0.5,0,0.9,0,1.1,0c0.3,0,0.5-0.1,0.7-0.6c0.3-0.9,1.1-5,1.6-8.1h0.6L502.9,95.3z"/>
	<path class="st0" d="M550,67.4c-0.3,0.4-0.8,0.4-1.7,0.5c-1.3,1.2-3.7,2.9-5.3,3.7l-0.6-0.3c0.6-1,1.2-2.7,1.7-4h-6.7
		c0.7,0.5,2.6,1.8,3.8,2.8c0,0.5-0.6,0.8-1.2,0.8l-11.8,0.7v0.3c0,0.5,0.1,0.6,1.9,0.6h5.5c2,0,4.1,0,4.8,0c0.5,0,1-0.1,1.3-0.1
		c0.3,0,0.9-0.2,1.2-0.2h0.4l0.2,0c1.3,0.4,1.7,0.7,1.7,1.3c0,0.9-0.5,1.4-2.3,1.7l3.7,2.7c-0.2,0.3-0.8,0.6-1.6,0.8v6.5
		c0,0.3-1.8,1-3.1,1.1l3.1,2.3c-0.3,0.4-1,0.8-1.9,1v7.7c0,2.4-0.6,3.9-5.5,4.3c-0.1-1-0.3-1.7-0.9-2.3c-0.6-0.4-1.6-0.9-3.5-1.1
		v-0.6c0,0,4,0.2,4.9,0.2c0.7,0,0.9-0.2,0.9-0.8v-2.2c-3.6,0.8-8,1.8-13.6,3c-0.3,0.6-0.8,0.9-1.2,1l-1.2-4c2.9-0.1,9.2-0.6,16-1.2
		v-4.7h-15.9v1.6c15-1.8,14.9,3.3,12,3.3c-2.3-0.8-6.9-1.7-12-2.1c0,3.3-0.9,7.5-7.4,10l-0.4-0.5c3.5-2.9,3.8-6.4,3.8-9.7v-4.6
		c-0.3,0-0.7,0.1-1,0.1l-0.6,0V75l4.4,1.8h18.4l1.5-1.6c-1.6,0.1-3.8,0.1-6.8,0.1h-5.8c-4.4,0-5.2-0.7-5.2-3.2v-0.5l-7.4,0.5
		l-0.5-1.3l7.8-0.5v-2.9l5.3,0.5c-0.1,0.6-0.5,1-1.3,1.1v1.2l7-0.5l1.8-2.6h-21.6v10.7c0,7.5-0.5,17.3-7.8,23.7l-0.6-0.4
		c4-6.8,4.3-15.4,4.3-23.3V64l4.8,1.8h9.3v-7.2l5.9,0.6c-0.1,0.6-0.5,1.1-1.7,1.2v1.8h9.8l2.4-2.9c0,0,2.8,2.1,4.4,3.5
		c-0.1,0.5-0.5,0.7-1.2,0.7h-15.4v2.3H544l2.2-2.3L550,67.4z M540.8,85.5v-0.2h-19.1v0.4c0,0.1-0.3,0.4-0.8,0.6l3,1.2h14.7l1.9-2.2
		L540.8,85.5z M521.7,78.1v2.2h7.5v-2.2H521.7z M529.2,83.9v-2.3h-7.5v2.3H529.2z M533.3,78.1v2.2h7.5v-2.2H533.3z M533.3,83.9h7.5
		v-2.3h-7.5V83.9z"/>
	<path class="st0" d="M570,77.9c-1.7,1.1-3.9,2.3-6.5,3.8v14.4c0,3.1-0.6,4.9-5.5,5.4c-0.1-1.3-0.3-2.3-0.9-3
		c-0.6-0.7-1.5-1.2-3.4-1.4v-0.7c0,0,3.8,0.3,4.7,0.3c0.7,0,0.9-0.2,0.9-0.8V84.1c-1.2,0.7-2.6,1.4-4,2.1c-0.2,0.6-0.6,1.1-1.1,1.2
		l-1.8-5.4c1.4-0.3,3.9-0.9,6.9-1.7v-9.4h-5.8l-0.4-1.3h6.2V58.8l5.8,0.6c-0.1,0.6-0.6,1.1-1.7,1.3v8.8h0.9l2.1-3.1
		c0,0,2.5,2.2,3.9,3.7c-0.1,0.5-0.6,0.7-1.2,0.7h-5.7v8.2c2-0.6,4.2-1.2,6.3-1.8L570,77.9z M565.1,101c4.6-1.8,9.5-5.3,11.7-8.1
		l5,3.2c-0.3,0.4-0.7,0.6-1.7,0.4c-3.3,2.3-9,4.5-14.7,5.2L565.1,101z M575.2,92.4c0,0.5-1.7,1.4-3.5,1.4h-0.6V71.8l4.4,1.8h13.4
		l2.1-2.2l4.3,3.3c-0.2,0.3-0.9,0.6-1.7,0.8V92c0,0.4-2.2,1.2-3.6,1.2h-0.7v-1.7h-14.1V92.4z M576.5,70.5c0,0.3-1.9,1.3-3.5,1.3
		h-0.6V59.5l4.4,1.8h11.2l2-2.2l4.4,3.2c-0.2,0.3-0.9,0.7-1.7,0.9V70c0,0.3-2.2,1.2-3.5,1.2h-0.7v-1.7h-11.9V70.5z M575.2,74.9v4.2
		h14.1v-4.2H575.2z M589.3,84.7v-4.2h-14.1v4.2H589.3z M589.3,90.1V86h-14.1v4.1H589.3z M576.5,62.7v5.6h11.9v-5.6H576.5z
		 M584.1,93.4c14.4,0.9,13.3,9.5,8.6,8c-1.9-2.4-6-5.8-9-7.6L584.1,93.4z"/>
	<path class="st0" d="M614.4,60.8c-0.2,0.6-0.7,0.9-1.7,0.9c-1.2,3.4-2.7,6.6-4.3,9.5l1.8,0.7c-0.1,0.4-0.6,0.7-1.4,0.9v27.6
		c-0.1,0.3-1.8,1.3-3.5,1.3h-0.8V77.2c-1.6,2.2-3.4,4.1-5.2,5.8l-0.6-0.4c3.5-5.8,7.3-14.9,9.3-23.6L614.4,60.8z M623.5,83.6
		c-0.7,1-1.5,2-2.3,2.9h14.4l2.3-2.2l4.1,3.4c-0.4,0.3-0.9,0.6-1.8,0.7c-0.6,6.8-1.7,10.4-3.7,11.9c-1.3,0.9-3,1.2-5.1,1.2
		c0-1.1-0.1-1.9-0.8-2.5c-0.6-0.6-2-1-3.5-1.3l0-0.7c1.5,0.1,4.2,0.3,5.1,0.3c0.7,0,1.1-0.1,1.5-0.4c0.9-0.7,1.8-4,2.3-9.2h-2.4
		c-2.7,6.2-7.6,10.7-15,13.8l-0.4-0.7c5.2-3.2,8.8-7.7,10.9-13.1h-2.4c-3,4.6-7.9,8.3-13.8,10.9l-0.5-0.7c4.2-2.7,7.7-6.3,10-10.1
		h-2.5c-2.4,2.2-5.4,3.9-8.7,5.3l-0.5-0.7c3.6-2.3,6.5-5.5,8.4-8.8h-7l-0.4-1.3h23.6l2.5-3.2c0,0,2.8,2.2,4.6,3.8
		c-0.1,0.5-0.6,0.7-1.2,0.7H623.5z M611.3,72.7c2.8-3.3,5.6-8.5,7.2-14l5.8,2.2c-0.2,0.5-0.8,0.9-1.8,0.8c-0.4,0.7-0.8,1.4-1.2,2.1
		h12.5l2.7-3.5c0,0,3,2.3,4.9,4c-0.1,0.5-0.6,0.7-1.2,0.7h-19.8c-0.5,0.7-1,1.3-1.5,2l2.8,1.1h10.8l2-2.2l4.4,3.3
		c-0.2,0.3-0.9,0.7-1.7,0.9v8.9c0,0.4-2.1,1.4-3.6,1.4h-0.7v-1.4h-11.5v0.4c0,0.4-1.8,1.3-3.6,1.3h-0.6V69c-1.7,1.7-3.5,3.1-5.3,4.2
		L611.3,72.7z M621.3,69.6V73h11.5v-3.5H621.3z M632.8,77.8v-3.5h-11.5v3.5H632.8z"/>
	<path class="st0" d="M665.5,68.5c-0.3,0.4-1,0.7-1.9,1v27.7c0,0.4-2.1,1.3-3.5,1.3h-0.6V95h-8.1v3.5c0,0.5-1.6,1.5-3.3,1.5h-0.7
		V65.5l4.2,1.9h0.8c0.4-2.4,1-6,1.3-8.5l6.3,1.5c-0.2,0.7-0.8,1.1-1.8,1.1c-1.1,1.7-2.7,4.1-4,5.9h4.8l2.1-2.4L665.5,68.5z
		 M651.3,68.7v11.5h8.1V68.7H651.3z M659.5,93.6V81.5h-8.1v12.1H659.5z M688,68.5c-0.4,0.4-0.9,0.7-2,0.8
		c-0.3,17.8-1.1,27.1-3.4,29.8c-1.5,1.7-3.5,2.4-6.1,2.4c0-1.4-0.2-2.5-1-3.2c-0.8-0.7-2.6-1.4-4.7-1.7l0-0.7
		c2.2,0.2,5.4,0.5,6.5,0.5c0.9,0,1.3-0.1,1.8-0.6c1.7-1.7,2.3-11.3,2.6-27.1H672c-2.1,3.8-4.6,7.2-7.4,9.7l-0.6-0.4
		c2.7-4.6,5.4-12,6.8-19l6.1,1.8c-0.2,0.6-0.7,1-1.7,1c-0.7,2-1.5,3.9-2.4,5.7h8.5l2.5-2.6L688,68.5z M668.3,76.7
		c12.4,4.4,8.4,13.3,4.2,9.8c-0.4-3.2-2.6-7-4.6-9.5L668.3,76.7z"/>
	<path class="st0" d="M728.5,83.6c0,0,3,2.3,4.9,3.9c-0.1,0.5-0.6,0.7-1.2,0.7h-18.4c-1.5,6.2-5.7,10.5-21.8,13.4l-0.3-0.8
		c11.9-3.4,15.7-7.2,17.2-12.6h-15.3l-0.4-1.3h16c0.3-1.6,0.4-3.4,0.5-5.2l6.5,0.5c-0.1,0.6-0.6,1.2-1.6,1.2
		c-0.1,1.2-0.3,2.4-0.5,3.5h11.8L728.5,83.6z M710.1,79.8v-5.5h-13.2l-0.4-1.3h13.6v-5.2h-15.8l-0.4-1.3h21.9
		c1.2-2.3,2.3-5.3,2.9-7.6l6.1,1.6c-0.2,0.6-0.7,0.9-1.7,0.9c-1.4,1.6-3.8,3.6-5.9,5.2h7.7l2.6-3.2c0,0,2.9,2.2,4.7,3.8
		c-0.1,0.5-0.6,0.7-1.2,0.7h-16.3V73h7.5l2.5-3c0,0,2.8,2.1,4.6,3.6c-0.1,0.5-0.6,0.7-1.2,0.7h-13.3v5.5h11.3l2.6-3.3
		c0,0,3,2.3,4.8,3.9c-0.1,0.5-0.6,0.7-1.2,0.7h-40l-0.4-1.3H710.1z M701.6,59c10.9,1.6,7.1,9.6,3,6.6c-0.3-2.2-1.9-4.7-3.4-6.3
		L701.6,59z M715.8,89.9c19.6,2.7,19,13.1,13.7,11.4c-2.9-3.8-9.3-8.4-14-10.9L715.8,89.9z"/>
	<path class="st0" d="M777.4,69.4c-0.4,0.4-1.2,0.9-2.3,1.1v29.1c-0.1,0.4-2.3,1.6-4,1.6h-0.7v-3.9h-23.6v2.4c0,0.6-1.8,1.7-3.8,1.7
		h-0.8V66.1l5,2.1h6c0.8-2.8,1.7-6.8,2.2-9.5l6.8,1.6c-0.2,0.6-0.7,1-1.7,1c-1.5,2-3.6,4.8-5.8,6.9h15.3l2.4-2.8L777.4,69.4z
		 M746.8,69.5v12.3h23.6V69.5H746.8z M770.4,96V83.2h-23.6V96H770.4z"/>
	<path class="st0" d="M817.1,65.4l-4.6,0.6l-0.1,17.8c0,10.4-4.7,14.7-12.1,14.7c-7.5,0-12.6-3.9-12.6-13.8v-5.2c0-4.5,0-9-0.1-13.5
		l-4.1-0.5v-1.7h14.6v1.7l-4.9,0.6c-0.1,4.4-0.1,8.9-0.1,13.4v4.2c0,8.6,3.1,11.5,8.4,11.5c5.8,0,8.8-3.4,8.7-12.2l-0.1-16.8
		l-5.3-0.7v-1.7h12.1V65.4z"/>
	<path class="st0" d="M851.5,65.3l-4.2,0.6l-10.7,32h-2.6l-11.7-32.1l-3.7-0.4v-1.7h14.4v1.8L828,66l8.7,25.4l8.1-25.3l-4.8-0.6
		v-1.8h11.5V65.3z"/>
	<path class="st0" d="M871.5,63.8c-0.4,0.4-1,0.6-2.1,0.6c-1.5,2.9-4.4,8-6.6,10.8c5.1,3.4,7.1,7.6,7.1,11.3c0,4.5-1.7,6.8-6.7,7
		c0-1.2-0.2-2.8-0.6-3.3c-0.4-0.5-1.2-0.8-2.3-1v-0.6h3.4c0.5,0,0.8-0.1,1.1-0.3c0.7-0.5,1.1-1.3,1.1-2.9c0-3.3-1.1-6.8-4.2-10.1
		c1-2.9,2.4-8.4,3.3-12.1h-5.4v36.9c0,0.3-1.3,1.4-3.4,1.4h-0.7V60l4.7,1.9h4.6l2.4-2.3L871.5,63.8z M892.1,64.4c0,0,2.9,2.3,4.6,4
		c-0.1,0.5-0.6,0.7-1.2,0.7h-14.8c-0.1,2.4-0.2,4.7-0.5,6.9h7.9l2.4-2.4l4.3,3.7c-0.3,0.4-0.9,0.6-1.9,0.8
		c-0.5,12.5-1.6,19.3-4,21.4c-1.4,1.3-3.3,1.9-5.8,1.9c0-1.3-0.2-2.4-0.9-3c-0.7-0.7-2.5-1.3-4.4-1.7l0-0.7c1.9,0.2,5.1,0.4,6.2,0.4
		c0.8,0,1.2-0.1,1.7-0.5c1.5-1.3,2.3-8.1,2.8-18.6H880c-1.3,10.5-4.9,18.8-15.6,24.2l-0.4-0.5c10-8.2,11.8-18.9,11.9-32h-7.5
		l-0.4-1.3h21.5L892.1,64.4z M877.2,58.9c11.5,3,6.9,11.5,2.9,7.8c-0.1-2.5-1.7-5.6-3.3-7.5L877.2,58.9z"/>
	<path class="st0" d="M912.3,93.4c-0.1,0.3-1.7,1.2-3,1.2h-0.5V91h-4v4.5c0,0.3-1.1,1.2-2.9,1.2h-0.6V61.9l4.1,1.7h2.9l1.9-2.1
		l4,3.2c-0.3,0.4-1,0.7-1.9,0.9V93.4z M904.8,64.9v11.6h4V64.9H904.8z M908.8,89.7V77.8h-4v11.8H908.8z M940.1,72.6
		c0,0.2-0.8,0.6-1.6,0.9c0.7,0.6,2.5,1.9,3.7,3c-0.1,0.5-0.6,0.7-1.2,0.7h-8.3v3h3.2l1.8-1.8l3.8,2.9c-0.2,0.3-0.9,0.6-1.7,0.8v4.6
		c0,0.3-1.8,1.1-2.9,1.1h-0.6v-1.3h-18.2c-0.3,5-1.6,10.9-6,15.3l-0.5-0.5c2.9-5.9,3.1-13.1,3.1-19.1v-8l4.2,1.7h8
		c0-0.9-0.5-1.9-1.1-2.8c-0.6,0.3-1.6,0.7-2.3,0.7H923v-7.1h-5.1v6.5c0,0.3-1.4,0.9-2.6,0.9h-0.5V64l3.3,1.4h4.6l1.6-1.5l3.2,2.4
		c-0.2,0.3-0.6,0.6-1.3,0.7v5c1.3,0.2,2.3,0.6,2.8,1.2V64l3.3,1.4h4.3l1.6-1.6l3.4,2.6c-0.2,0.3-0.7,0.6-1.4,0.7V72.6z M913.9,63.3
		l-0.4-1.3h8.8l1.8-2.4c0,0,2.2,1.7,3.4,3c-0.1,0.5-0.5,0.7-1.1,0.7H913.9z M926.5,89.7c0,0,1.7,1.5,2.8,2.6
		c-0.1,0.5-0.6,0.7-1.1,0.7h-5.2v3.7c1.7-0.4,3.8-0.8,5.8-1.2l0.2,0.6c-1.5,0.8-4.5,2.6-7.6,4.2c-0.3,0.6-0.7,1-1.1,1.2l-2.1-4.1
		c1.2-0.7,1.3-1,1.3-1.7v-8.6l4.9,0.6c-0.1,0.6-0.5,0.9-1.4,1.1v3h2L926.5,89.7z M918.2,82.2c0,0.9,0,1.9,0,2.9h3.9v-3.5h-3.8V82.2z
		 M918.2,77.2v3h3.8v-3H918.2z M918.8,68c5.8,1.6,3.4,5.9,1.2,4.1c0-1.3-0.8-2.9-1.7-3.8L918.8,68z M929.3,77.2h-3.8v3h3.8V77.2z
		 M925.4,85.1h3.8v-3.5h-3.8V85.1z M928.5,63.3l-0.4-1.3h8.2l2-2.5c0,0,2.3,1.8,3.6,3.1c-0.1,0.5-0.6,0.7-1.2,0.7H928.5z M936,75.9
		l1.8-2.3c-0.1,0-0.3,0-0.5,0h-0.5v-6.9h-4.8v6.1c0,0.3-1.4,0.9-2.7,0.9c0.4,0.8,0.2,1.6-0.3,2.1H936z M940.4,96.9
		c1,0.4,1.2,0.8,1.2,1.4c0,1.5-1.4,2.1-5.9,2.1H933c-2.9,0-3.4-0.8-3.4-3.1V87.1l4.8,0.5c-0.1,0.6-0.5,1-1.3,1.1v2.9h2.3l1.7-2.3
		c0,0,2,1.7,3.2,2.9c-0.1,0.5-0.6,0.7-1.2,0.7h-5.9v3.6c0,0.5,0.1,0.6,1,0.6h1.9c0.8,0,1.5,0,1.8,0c0.3,0,0.6,0,0.8-0.3
		c0.3-0.5,0.7-1.9,1.1-3.5h0.6L940.4,96.9z M932.5,68c5.8,1.6,3.4,6,1.2,4.1c0-1.3-0.8-2.9-1.7-3.8L932.5,68z M932.7,81.6v3.5h3.6
		v-3.5H932.7z"/>
</g>
</svg>
