<svg id="head-block-01.svg" xmlns="http://www.w3.org/2000/svg" width="260.375" height="124.19" viewBox="0 0 260.375 124.19">
  <defs>
    <style>
      .cls-1 {
        fill: #d2ecf9;
      }

      .cls-2 {
        fill: #1147b4;
        fill-rule: evenodd;
      }
    </style>
  </defs>
  <rect id="長方形_1367" data-name="長方形 1367" class="cls-1" x="5.344" y="25.38" width="230" height="10"/>
  <rect id="長方形_1367-2" data-name="長方形 1367" class="cls-1" y="75.38" width="255.344" height="10"/>
  <path id="W有効成分配合で_美白_肌あれ防止_" data-name="W有効成分配合で 美白＆肌あれ防止  " class="cls-2" d="M314.827,1375.1H310.57l-1.98,11.98c-0.495,3.17-.792,5.78-1.287,9.21h-0.462c-0.363-3.4-.759-6.11-1.254-9.01l-2.144-12.18h-5.709l-2.079,11.78c-0.561,3.07-.891,6.21-1.353,9.41H293.84c-0.4-3.27-.825-6.37-1.286-9.5l-1.848-11.69h-4.521l4.983,25.61h5.477l2.079-12.04c0.594-3.27.957-6.11,1.419-9.47h0.462c0.462,3.33.792,6.17,1.419,9.6l2.211,11.91h5.477Zm9.439,23.86c0,2.74-.066,3.63-0.066,3.8,0,0.33.033,0.36,0.4,0.36h2.772c0.33,0,.363-0.03.363-0.36,0-.17-0.066-1.06-0.066-3.8v-2.61h10.856v2.15c0,0.89-.363,1.15-1.419,1.15-1.221,0-1.98-.03-3.135-0.13a9.611,9.611,0,0,1,.891,2.38c0.231,0.99.231,0.99,1.254,0.99,3.135-.04,4.125-0.3,4.917-0.93a3.422,3.422,0,0,0,.989-2.77c0-.92-0.066-2.67-0.066-5.11v-5.97c0-2.78.066-4.2,0.066-4.39,0-.33-0.033-0.37-0.395-0.37-0.2,0-1.716.07-4.686,0.07h-8.843c0.5-.89.99-1.82,1.418-2.77H341.82c2.97,0,3.993.06,4.191,0.06,0.3,0,.33-0.03.33-0.36v-2.54c0-.33-0.033-0.36-0.33-0.36-0.2,0-1.221.06-4.191,0.06H330.766l0.462-1.48a4.434,4.434,0,0,1,.693-1.52,1.142,1.142,0,0,0,.363-0.63,0.634,0.634,0,0,0-.627-0.46,28.579,28.579,0,0,0-3.365-.53,16.78,16.78,0,0,1-.594,3.2c-0.132.5-.264,0.96-0.429,1.42h-5.478c-2.97,0-3.993-.06-4.191-0.06-0.33,0-.363.03-0.363,0.36v2.54c0,0.33.033,0.36,0.363,0.36,0.2,0,1.221-.06,4.191-0.06h4.158a24.955,24.955,0,0,1-9.272,10.23,8.851,8.851,0,0,1,1.715,1.91,1.093,1.093,0,0,0,.66.63,1.3,1.3,0,0,0,.726-0.4,35.056,35.056,0,0,0,4.488-4.25v10.19Zm3.4-5.31v-2.28h10.856v2.28H327.665Zm10.856-7.23v2.25H327.665v-2.25h10.856Zm36.695-2.8a100.36,100.36,0,0,1-.825,13.86c-0.263,1.68-.692,2.04-1.715,2.04a19.446,19.446,0,0,1-3.168-.26,6.585,6.585,0,0,1,.759,2.28c0.2,1.08.2,1.08,1.122,1.12,0.66,0.06,1.32.06,2.013,0.06,2.507,0,3.761-1.02,4.157-3.59a102.87,102.87,0,0,0,.924-15.05c0-1.02.033-1.98,0.066-3.14,0-.33-0.066-0.39-0.363-0.39-0.2,0-1.089.06-3.762,0.06h-2.309c0.033-.85.066-1.74,0.066-2.67a17.237,17.237,0,0,1,.165-3.26,3.9,3.9,0,0,0,.231-0.9,0.475,0.475,0,0,0-.5-0.39c-1.155-.1-2.178-0.17-3.4-0.2a32.189,32.189,0,0,1,.264,4.65c0,0.96-.033,1.88-0.066,2.77-2.541,0-3.366-.06-3.531-0.06-0.363,0-.4.03-0.4,0.36v2.41c0,0.33.033,0.36,0.4,0.36,0.165,0,.99-0.06,3.366-0.06a36.014,36.014,0,0,1-1.419,8.15,17.083,17.083,0,0,1-6.962,9.01,5.606,5.606,0,0,1,1.88,1.65,1.184,1.184,0,0,0,.66.59,1.831,1.831,0,0,0,.825-0.49,20.5,20.5,0,0,0,6.6-9.64,39.65,39.65,0,0,0,1.683-9.27h3.233Zm-22.009,6.3c-0.264.26-.3,0.36-0.033,0.56,1.023,0.86,2.079,1.82,3.1,2.84a19.841,19.841,0,0,1-7.292,6.83,6.8,6.8,0,0,1,1.484,1.65,1.169,1.169,0,0,0,.693.76,1.744,1.744,0,0,0,.759-0.4,23.6,23.6,0,0,0,6.567-6.5,33.441,33.441,0,0,1,2.244,2.81,0.466,0.466,0,0,0,.3.23,0.678,0.678,0,0,0,.363-0.27l1.649-1.78c0.3-.3.3-0.39,0.066-0.63a41.075,41.075,0,0,0-2.936-3.3,23.414,23.414,0,0,0,.99-2.34,4.1,4.1,0,0,1,.692-1.42,0.889,0.889,0,0,0,.363-0.62,0.566,0.566,0,0,0-.428-0.5,19.176,19.176,0,0,0-2.9-1.22,10.96,10.96,0,0,1-.726,2.9l-0.4.96c-0.825-.72-1.65-1.42-2.475-2.04-0.264-.2-0.363-0.17-0.693.13Zm7.425-9.34c2.87,0,3.827.07,4.025,0.07,0.33,0,.363-0.04.363-0.37v-2.37c0-.36-0.033-0.4-0.363-0.4-0.2,0-1.155.07-4.025,0.07h-1.353v-1.09a6.6,6.6,0,0,1,.165-2.24,1.72,1.72,0,0,0,.231-0.7c0-.16-0.2-0.29-0.561-0.33-1.089-.13-2.079-0.19-3.3-0.23a19.109,19.109,0,0,1,.2,3.5v1.09h-1.749c-2.871,0-3.828-.07-4.026-0.07-0.33,0-.363.04-0.363,0.4v2.37c0,0.33.033,0.37,0.363,0.37,0.2,0,1.155-.07,4.026-0.07h6.369Zm-11.549,6.9a6.267,6.267,0,0,1,1.682,1.58,1.062,1.062,0,0,0,.594.6,1.674,1.674,0,0,0,.726-0.53,23.277,23.277,0,0,0,3.366-4.59,4.835,4.835,0,0,1,.726-1.09,0.523,0.523,0,0,0-.132-1.02,21.732,21.732,0,0,0-2.706-1.19,11.4,11.4,0,0,1-.561,1.62A14.51,14.51,0,0,1,349.083,1387.48Zm10.46-5.12c-0.363.17-.429,0.23-0.264,0.56a36.859,36.859,0,0,0,3.761,5.71,1.2,1.2,0,0,0,.693.63,1.582,1.582,0,0,0,.726-0.56,9.8,9.8,0,0,1,1.782-1.42,23,23,0,0,1-4.158-5.64c-0.165-.3-0.231-0.3-0.593-0.13Zm47.948-.76c3.1,0,4.19.07,4.388,0.07,0.33,0,.363-0.03.363-0.36v-2.51c0-.36-0.033-0.4-0.363-0.4-0.2,0-1.287.07-4.388,0.07h-4.95v-0.79a11.9,11.9,0,0,1,.165-3.3,1.589,1.589,0,0,0,.165-0.63,0.446,0.446,0,0,0-.5-0.39c-1.188-.14-2.31-0.17-3.564-0.24a31.46,31.46,0,0,1,.264,4.66v0.69H390.3c-3.135,0-4.224-.07-4.422-0.07-0.363,0-.4.04-0.4,0.4,0,0.2.066,2.14,0.066,6.63a53.968,53.968,0,0,1-.462,7.99,17.631,17.631,0,0,1-2.573,7.29,10.4,10.4,0,0,1,2.045,1.85,1.148,1.148,0,0,0,.66.53,0.951,0.951,0,0,0,.561-0.63,24.7,24.7,0,0,0,2.574-7.72,42.843,42.843,0,0,0,.594-5.78h4.62a27.217,27.217,0,0,1-.495,5.32,1.393,1.393,0,0,1-1.584,1.18,14.853,14.853,0,0,1-2.706-.26,6.89,6.89,0,0,1,.792,2.38c0.165,1.02.2,1.02,0.957,1.08a13.536,13.536,0,0,0,1.683.07,3.761,3.761,0,0,0,3.827-2.74,25.99,25.99,0,0,0,.759-6.14c0.066-.99.1-2.37,0.165-3.63,0-.36-0.066-0.42-0.4-0.42-0.2,0-.792.06-2.8,0.06h-4.752v-4.26h10.163a39.964,39.964,0,0,0,2.409,12.64,26.313,26.313,0,0,1-7.655,6.21,7.77,7.77,0,0,1,1.682,1.75,1.171,1.171,0,0,0,.693.69,2.088,2.088,0,0,0,.792-0.36,26.064,26.064,0,0,0,5.973-4.92c1.65,3.07,3.828,5.18,6.1,5.18,2.013,0,3.2-1.62,3.729-5.15,0.165-1.02.165-1.02-.792-1.52a6.583,6.583,0,0,1-1.848-1.28c-0.2,3.07-.594,4.06-1.353,4.06-0.825,0-2.342-1.59-3.53-4.13a37.219,37.219,0,0,0,3.761-6.7,4.977,4.977,0,0,1,.825-1.61,1.378,1.378,0,0,0,.462-0.7,0.694,0.694,0,0,0-.5-0.53,19.707,19.707,0,0,0-3.068-1.18,16.147,16.147,0,0,1-.891,3.03,26.233,26.233,0,0,1-1.98,3.86,41.868,41.868,0,0,1-1.353-9.34h4.851Zm-2.508-7.09a0.5,0.5,0,0,0-.264.3,0.445,0.445,0,0,0,.2.29,12.766,12.766,0,0,1,2.672,2.91,0.423,0.423,0,0,0,.264.23,1.118,1.118,0,0,0,.429-0.23l1.584-1.19c0.363-.23.363-0.36,0.165-0.63a15.123,15.123,0,0,0-2.837-2.77c-0.264-.2-0.363-0.2-0.693.03Zm28.116,0.07c-0.363.16-.429,0.19-0.3,0.56a34.752,34.752,0,0,0,7.095,10.46c-0.33.03-1.419,0.06-4.29,0.06h-8.876c-2.541,0-3.7-.03-4.158-0.06a29.758,29.758,0,0,0,6.038-8.75,2.629,2.629,0,0,1,.759-1.05,0.694,0.694,0,0,0,.264-0.5,0.6,0.6,0,0,0-.462-0.56,23,23,0,0,0-3.431-1.15,9.4,9.4,0,0,1-.66,2.11,25.793,25.793,0,0,1-9.536,10.89,7.426,7.426,0,0,1,1.847,2.01,1.174,1.174,0,0,0,.693.73,1.819,1.819,0,0,0,.726-0.43,36.307,36.307,0,0,0,3.2-2.74v2.41c0,0.33.033,0.36,0.363,0.36,0.2,0,1.254-.07,4.356-0.07h0.4c-0.627,5.81-3.531,9.31-9.537,11.49a6.235,6.235,0,0,1,1.683,1.98c0.33,0.56.429,0.79,0.693,0.79a2.112,2.112,0,0,0,.792-0.27c6.105-2.7,9.4-7.39,10.031-13.99h5.874a54.621,54.621,0,0,1-.627,8.19c-0.264,1.52-.825,2.04-2.211,2.04a24.591,24.591,0,0,1-3.762-.29,6.69,6.69,0,0,1,1.023,2.64c0.231,1.09.2,1.09,1.221,1.15,0.792,0.07,1.419.07,2.244,0.07,3.234,0,4.488-1.45,4.917-4.06a65.9,65.9,0,0,0,.825-9.24c0.033-1.16.033-2.31,0.1-3.27a27.461,27.461,0,0,0,3.134,2.68,1.525,1.525,0,0,0,.693.42,1.144,1.144,0,0,0,.627-0.72,11.314,11.314,0,0,1,1.914-2.48,26.38,26.38,0,0,1-10.691-12.17c-0.132-.33-0.2-0.37-0.627-0.17Zm21.418,2.47v3.17c-2.31,0-3.2-.07-3.366-0.07-0.33,0-.363.04-0.363,0.33,0,0.2.066,1.75,0.066,7.13v5.61c0,7.75-.066,9.24-0.066,9.47,0,0.33.033,0.36,0.363,0.36h2.079c0.3,0,.33-0.03.33-0.36v-1.68h7.854v1.09c0,0.33.033,0.36,0.4,0.36h2.013c0.33,0,.363-0.03.363-0.36,0-.2-0.066-1.69-0.066-9.24v-6.14c0-4.52.066-6.04,0.066-6.24,0-.29-0.033-0.33-0.363-0.33-0.231,0-1.056.07-3.365,0.07v-3.17h0.264c2.837,0,3.827.07,4.025,0.07,0.33,0,.363-0.04.363-0.37v-2.34c0-.33-0.033-0.36-0.363-0.36-0.2,0-1.188.06-4.025,0.06h-6.6c-2.871,0-3.828-.06-4.026-0.06-0.3,0-.33.03-0.33,0.36v2.34c0,0.33.033,0.37,0.33,0.37,0.2,0,1.155-.07,4.026-0.07h0.4Zm3.564,5.78v5.21c0,1.12.1,1.55,0.5,1.88a2.28,2.28,0,0,0,1.617.36h1.221v2.77H453.56v-3.1a4.035,4.035,0,0,1,1.056,1.45,0.56,0.56,0,0,0,.4.43,0.459,0.459,0,0,0,.33-0.29,14.741,14.741,0,0,0,1.386-5.02c0.1-1.09.132-2.47,0.132-3.69h1.221Zm-4.521,15.34v-2.38h7.854v2.38H453.56Zm0-15.34h1.254c0,0.99,0,2.04-.066,2.83a7.567,7.567,0,0,1-1.188,3.93v-6.76Zm7.854,0v4.78h-0.5a0.594,0.594,0,0,1-.627-0.23,2.419,2.419,0,0,1-.1-1.12v-3.43h1.221Zm-4.554-2.61v-3.17h1.221v3.17H456.86Zm9.5-3.14c0,0.3.033,0.33,0.363,0.33,0.2,0,.99-0.06,3.432-0.06h4.685v7.29h-5.015c-1.98,0-2.937-.07-3.135-0.07-0.363,0-.4.04-0.4,0.4,0,0.2.066,1.39,0.066,3.76v10.26c0,1.46.231,2.08,0.825,2.64,0.693,0.63,2.013.86,5.148,0.86,3.1,0,4.685-.43,5.543-1.19,0.792-.72,1.419-1.74,1.617-4.75,0.066-1.02.066-1.02-.957-1.32a7.852,7.852,0,0,1-2.244-.92c-0.132,2.67-.264,3.76-0.759,4.32-0.5.53-1.484,0.66-3.068,0.66-1.485,0-2.145-.1-2.475-0.43a2.1,2.1,0,0,1-.3-1.48v-9.57h5.147v1.12c0,0.33.033,0.36,0.363,0.36h2.64c0.363,0,.4-0.03.4-0.36,0-.2-0.066-1.19-0.066-3.53v-7.43c0-2.34.066-3.33,0.066-3.53,0-.33-0.033-0.36-0.4-0.36-0.2,0-1.023.07-3.465,0.07h-4.223c-2.442,0-3.234-.07-3.432-0.07-0.33,0-.363.03-0.363,0.36v2.64Zm24.454,26.04c0.363,0,.4-0.03.4-0.36v-1.26h13.232v1.09c0,0.33.033,0.36,0.363,0.36h2.8c0.363,0,.4-0.03.4-0.36,0-.16-0.066-1.05-0.066-5.81v-3.23c0-2.34.066-3.3,0.066-3.5,0-.33-0.033-0.36-0.4-0.36-0.2,0-1.352.07-4.52,0.07H492.533c-3.168,0-4.323-.07-4.521-0.07-0.33,0-.363.03-0.363,0.36,0,0.2.066,1.16,0.066,3.99v2.84c0,4.79-.066,5.68-0.066,5.88,0,0.33.033,0.36,0.363,0.36h2.805Zm0.4-10.36h13.232v5.74H491.213v-5.74Zm-0.066-6.5c0,0.33.033,0.36,0.363,0.36,0.231,0,1.089-.07,3.728-0.07h5.115c2.64,0,3.531.07,3.729,0.07,0.33,0,.363-0.03.363-0.36v-2.31a35.49,35.49,0,0,0,6.434,3.69,1.964,1.964,0,0,0,.792.3c0.264,0,.4-0.23.594-0.86a8.935,8.935,0,0,1,1.386-2.51,29.738,29.738,0,0,1-14.09-10.06,0.931,0.931,0,0,1,.264-0.23,0.569,0.569,0,0,0,.33-0.5c0-.29-0.2-0.39-0.594-0.52-0.957-.23-2.178-0.43-3.465-0.63a10.341,10.341,0,0,1-1.286,2.34c-2.706,3.93-6.633,7.36-12.7,10.1a7.967,7.967,0,0,1,1.55,2.21,1.036,1.036,0,0,0,.627.83,2.609,2.609,0,0,0,.759-0.33,40.978,40.978,0,0,0,6.105-3.9v2.38Zm4.091-2.77c-2.243,0-3.167-.04-3.563-0.07a32.663,32.663,0,0,0,6-6.24,29.234,29.234,0,0,0,6.072,6.27c-0.462,0-1.452.04-3.4,0.04h-5.115Zm33.245,2.37c-3.192,2.09-5.066,4.62-5.066,8.37,0,5.49,5.093,8.15,9.737,8.15,0.317,0,.422-0.16.5-0.55a9.356,9.356,0,0,0,.291-2.27c0-.29-0.159-0.4-0.581-0.4-4.591-.29-7.019-2.13-7.019-5.54,0-3.16,2.243-6.25,6.729-7.78a11.778,11.778,0,0,1,3.219-.58c0.343,0,.5-0.08.5-0.4a15.023,15.023,0,0,0-.29-2.32c-0.026-.18-0.158-0.34-0.554-0.29-6.808.9-12.613,1.77-15.859,2.24a35.9,35.9,0,0,1-4.195.45,18.446,18.446,0,0,0,.976,2.85,0.619,0.619,0,0,0,.5.4,1.718,1.718,0,0,0,.581-0.21,16.6,16.6,0,0,1,1.662-.43c2.824-.58,5.647-1.13,8.866-1.74v0.05Zm3.827,3.78a13.087,13.087,0,0,1,2.665,3.06,0.279,0.279,0,0,0,.448.08l1.108-.82a0.264,0.264,0,0,0,.08-0.42,12.22,12.22,0,0,0-2.507-2.83,0.277,0.277,0,0,0-.4-0.05Zm2.427-1.74a12.427,12.427,0,0,1,2.639,3.03,0.269,0.269,0,0,0,.448.08l1.056-.82a0.3,0.3,0,0,0,.079-0.47,10.914,10.914,0,0,0-2.507-2.72,0.266,0.266,0,0,0-.395-0.05Zm-224.926,50.79c2.937,0,3.927.07,4.125,0.07,0.363,0,.4-0.04.4-0.4v-2.31c0-.33-0.033-0.36-0.4-0.36-0.2,0-1.188.06-4.125,0.06H301.1v-2.14h5.114c3.2,0,4.323.06,4.521,0.06,0.33,0,.363-0.03.363-0.36v-2.11c0-.33-0.033-0.36-0.363-0.36-0.2,0-1.32.06-4.521,0.06H301.1v-1.95h6.665c3.168,0,4.224.07,4.422,0.07,0.33,0,.363-0.03.363-0.36v-2.21c0-.37-0.033-0.4-0.363-0.4-0.2,0-1.254.07-4.422,0.07H304.9c0.429-.6.858-1.22,1.187-1.75a2.093,2.093,0,0,1,.561-0.66,0.666,0.666,0,0,0,.363-0.53,0.517,0.517,0,0,0-.429-0.46,33.244,33.244,0,0,0-3.365-.73,9.263,9.263,0,0,1-.561,1.69,22.453,22.453,0,0,1-1.353,2.44H294.83l1.782-.83c0.462-.23.462-0.29,0.231-0.69a15.563,15.563,0,0,0-1.848-2.44c-0.231-.27-0.3-0.3-0.693-0.13l-2.21.99a0.4,0.4,0,0,0-.33.29,0.684,0.684,0,0,0,.231.37,17.1,17.1,0,0,1,1.583,2.44H291.5c-3.2,0-4.257-.07-4.455-0.07-0.33,0-.363.03-0.363,0.4v2.21c0,0.33.033,0.36,0.363,0.36,0.2,0,1.254-.07,4.455-0.07h6.137v1.95h-4.586c-3.2,0-4.323-.06-4.521-0.06-0.3,0-.33.03-0.33,0.36v2.11c0,0.33.033,0.36,0.33,0.36,0.2,0,1.32-.06,4.521-0.06h4.586v2.14h-8.216c-2.937,0-3.927-.06-4.125-0.06-0.33,0-.363.03-0.363,0.36v2.31c0,0.36.033,0.4,0.363,0.4,0.2,0,1.188-.07,4.125-0.07h20.392Zm-0.858,5.28c3.036,0,4.092.06,4.29,0.06,0.33,0,.363-0.03.363-0.36v-2.28c0-.33-0.033-0.36-0.363-0.36-0.2,0-1.254.07-4.29,0.07H300.77a1.916,1.916,0,0,1,.3-0.79,0.849,0.849,0,0,0,.231-0.57c0-.26-0.231-0.39-0.627-0.46-0.957-.1-2.211-0.19-3.333-0.26a8.3,8.3,0,0,1-.066,2.08h-6.9c-3.069,0-4.125-.07-4.323-0.07-0.33,0-.363.03-0.363,0.36v2.28c0,0.33.033,0.36,0.363,0.36,0.2,0,1.254-.06,4.323-0.06h5.84a6.58,6.58,0,0,1-1.749,2.04c-2.111,1.72-5.708,2.71-9.9,3.21a7.871,7.871,0,0,1,1.188,2.17c0.264,0.7.33,0.89,0.726,0.89a3.461,3.461,0,0,0,.693-0.1,21.652,21.652,0,0,0,9.437-3.76,11.948,11.948,0,0,0,2.706-3.1c2.9,3.83,7.556,6.07,12.77,6.86a5.971,5.971,0,0,0,.693.07c0.4,0,.429-0.2.726-0.89a8.98,8.98,0,0,1,1.221-2.28c-5.742-.46-10.031-2.17-12.539-5.11h6.764Zm15.017,7.59c0.33,0,.363-0.03.363-0.33v-1.65h15.9v1.58c0,0.3.033,0.33,0.363,0.33h2.937c0.3,0,.33-0.03.33-0.33,0-.2-0.066-1.81-0.066-10v-6.6c0-5.04.066-6.69,0.066-6.93,0-.33-0.033-0.36-0.33-0.36-0.231,0-1.386.07-4.587,0.07h-7.127c0.561-.99,1.056-1.95,1.518-2.87a2.951,2.951,0,0,1,.726-1.06,0.725,0.725,0,0,0,.4-0.59,0.591,0.591,0,0,0-.528-0.46c-1.155-.3-2.211-0.5-3.6-0.73a7.676,7.676,0,0,1-.5,1.91,31.923,31.923,0,0,1-1.782,3.8H325.62c-3.2,0-4.356-.07-4.587-0.07-0.3,0-.33.03-0.33,0.36,0,0.24.066,1.89,0.066,7.73v5.84c0,8.21-.066,9.8-0.066,10.03,0,0.3.033,0.33,0.33,0.33h2.937Zm0.363-5.18v-6.47h15.9v6.47h-15.9Zm0-15.84h15.9v6.24h-15.9v-6.24Zm38.423,10.95a11.039,11.039,0,0,1-1.187,5.17,68.236,68.236,0,0,1-4.512-5.94c3.43-1,4.855-2.59,4.855-5.12,0-2.74-2.058-4.38-5.04-4.38-3.087,0-5.172,1.95-5.172,4.62a6.817,6.817,0,0,0,1.5,4.11c-2.982,1.38-4.354,3.14-4.354,5.97,0,3.69,2.8,6.15,6.861,6.15a7.838,7.838,0,0,0,5.409-1.75,4.917,4.917,0,0,0,4.3,1.72h0.9l0.659-2.37c-1.821.02-2.665-.22-3.694-1.4a11.14,11.14,0,0,0,2.269-6.18Zm-8.444.21a58.619,58.619,0,0,0,5.251,6.96,4.724,4.724,0,0,1-3.192,1.06,4.207,4.207,0,0,1-4.434-4.22A3.933,3.933,0,0,1,354.312,1441.7Zm1.636-2.7a5.707,5.707,0,0,1-1.266-3.27,2.188,2.188,0,0,1,2.19-2.29,2.02,2.02,0,0,1,2.084,2.13C358.956,1437.21,358.218,1438.24,355.948,1439Zm33.143-12.35h3.861v22.04c0,1.28.3,2.04,0.891,2.41a5.807,5.807,0,0,0,2.805.46c1.781,0,2.606-.27,3.233-0.96,0.561-.66.891-1.71,1.023-5.51,0.033-.86.1-0.96-0.726-1.19a6.434,6.434,0,0,1-1.947-.86c-0.033,3.37-.164,4.76-0.428,4.99a0.822,0.822,0,0,1-.726.23,0.748,0.748,0,0,1-.627-0.2,1.46,1.46,0,0,1-.132-0.96v-17.62c0-3.66.066-5.51,0.066-5.74,0-.33-0.033-0.36-0.363-0.36-0.231,0-.957.06-3.234,0.06h-3.6c-2.244,0-2.9-.06-3.135-0.06-0.33,0-.362.03-0.362,0.36,0,0.17.032,1.39,0.032,3.73,0,3.46.033,5.48-.065,7.62-0.3,7-1.056,10.89-3.135,13.63a2.448,2.448,0,0,0,.033-0.49c0-1.36-.033-3.04-0.033-4.56v-14.65c0-3.46.066-5.28,0.066-5.48,0-.33-0.033-0.36-0.363-0.36-0.231,0-.891.07-2.937,0.07h-3.234c-2.079,0-2.739-.07-2.936-0.07-0.363,0-.4.03-0.4,0.36,0,0.23.066,2.02,0.066,5.48v5.41c0,8.91-.726,12.28-2.706,15.45a6.623,6.623,0,0,1,1.914,1.65,1.226,1.226,0,0,0,.627.56,0.979,0.979,0,0,0,.561-0.66,23.764,23.764,0,0,0,2.474-9.64h3.729v5.45a0.959,0.959,0,0,1-1.056,1.18,15.444,15.444,0,0,1-2.079-.13,7.862,7.862,0,0,1,.792,2.34c0.2,1.06.2,1.06,1.221,1.03,1.914-.07,2.64-0.37,3.234-0.89a2.634,2.634,0,0,0,.66-0.89,10.381,10.381,0,0,1,1.716,1.38,1.562,1.562,0,0,0,.693.56,1.068,1.068,0,0,0,.594-0.59,18.513,18.513,0,0,0,3.1-7.82c0.627-3.1.825-7.33,0.825-13.7v-3.06Zm-13.232,12.11c0.033-1.29.066-2.71,0.066-4.29v-0.53h3.465v4.82h-3.531Zm3.531-12.38v4.52h-3.465v-4.52h3.465Zm33.231-3.56a7.755,7.755,0,0,1,.132,1.48c0,0.93-.132,2.41-0.264,3.6a51.073,51.073,0,0,1-6.4-.13c0.066,0.92.066,1.78,0.165,2.5,0.033,0.57.231,0.73,0.594,0.76a12.381,12.381,0,0,0,1.881.07c0.561,0,1.451.03,3.4-.03-0.066,1.25-.132,2.7-0.165,4.12-4.058,2.01-7.721,6.04-7.721,10.26,0,2.58,1.419,4.1,3.663,4.1,1.683,0,3.4-.76,5.741-2.38a6.853,6.853,0,0,0,.561,1.29c0.2,0.33.33,0.33,0.66,0.16a10.589,10.589,0,0,0,1.98-1.15,0.554,0.554,0,0,0,.264-0.83,10.154,10.154,0,0,1-.594-1.48,34.921,34.921,0,0,0,6.236-8.65c2.211,0.56,4.092,2.15,4.092,4.79a5.693,5.693,0,0,1-2.64,4.95,19.071,19.071,0,0,1-6.137,2.4,8.588,8.588,0,0,1,1.947,2.05,1.024,1.024,0,0,0,1.452.63c5.246-1.42,9.173-4.52,9.173-9.31,0-4.12-2.508-6.93-6.765-8.05a2.9,2.9,0,0,1,.429-0.66,0.561,0.561,0,0,0,.2-0.4,1.1,1.1,0,0,0-.594-0.72,13.154,13.154,0,0,0-2.936-1.22,8.152,8.152,0,0,1-.561,2.41,19.643,19.643,0,0,0-5.049.72c0.033-1.15.1-1.94,0.231-3.33a69.6,69.6,0,0,0,9.371-1.39,0.686,0.686,0,0,0,.693-0.66,10.227,10.227,0,0,0-.33-2.24c-0.066-.3-0.165-0.43-0.561-0.33a63.271,63.271,0,0,1-8.579,1.39c0.1-.57.165-1.06,0.264-1.65a2.517,2.517,0,0,1,.462-1.19,0.74,0.74,0,0,0,.165-0.53,0.684,0.684,0,0,0-.594-0.59A17.809,17.809,0,0,0,412.621,1422.82Zm2.97,19.07a35.253,35.253,0,0,1-.4-4.95,15.568,15.568,0,0,1,4.224-.76A30.2,30.2,0,0,1,415.591,1441.89Zm-3.63-3.46a42.779,42.779,0,0,0,.66,5.67c-1.683,1.32-2.9,1.91-3.827,1.91a1.123,1.123,0,0,1-1.089-1.25C407.705,1442.62,409.421,1440.24,411.961,1438.43Zm29.436-7.76c-1.683.53-3.53,0.99-4.652,1.25a14.166,14.166,0,0,1-2.409.3,17.4,17.4,0,0,0,1.287,3.04,0.8,0.8,0,0,0,.66.53,2.727,2.727,0,0,0,.957-0.47A32.731,32.731,0,0,1,441.2,1434c-0.033.8-.033,1.42-0.033,2.25-2.012,2.84-3.728,5.18-6.467,8.68a0.843,0.843,0,0,0-.3.56,0.5,0.5,0,0,0,.2.36,10.728,10.728,0,0,0,2.046,1.85,0.881,0.881,0,0,0,.4.16,0.48,0.48,0,0,0,.363-0.33c1.221-1.88,2.54-3.92,3.827-5.94-0.1,2.97-.1,6.44-0.1,9.44,0,0.4.132,0.56,0.462,0.56a23.833,23.833,0,0,0,2.574-.13,0.405,0.405,0,0,0,.462-0.46c0-3.6-.1-8.35-0.132-12.51,1.716-1.98,3.267-3.53,4.62-4.85,1.617-1.45,2.739-2.14,3.695-2.14,0.66,0,1.023.72,1.023,2.17,0,1.42-.066,2.51-0.231,5.42-0.165,2.8-.264,4.65-0.264,5.54,0,3.43,1.386,5.05,4.224,5.05s4.95-1.85,6.336-3.8a0.949,0.949,0,0,0,.231-0.56,1.256,1.256,0,0,0-.363-0.76,8.116,8.116,0,0,1-1.221-2.47,8.745,8.745,0,0,1-1.98,2.77,4.325,4.325,0,0,1-2.442,1.19c-0.825,0-1.221-.23-1.221-1.88,0-1.03.165-2.51,0.33-5.55,0.231-3.03.264-5.05,0.264-6,0-2.74-1.485-4.39-3.96-4.39-1.55,0-3.365.76-5.972,3.23-1.287,1.26-2.013,2.02-3.069,3.2v-0.16c0.528-1.09,1.089-2.11,1.716-3.14a0.678,0.678,0,0,0,.165-0.36,0.575,0.575,0,0,0-.3-0.46,10.544,10.544,0,0,0-1.254-.73c0.066-1.52.1-2.21,0.165-3.3a3.947,3.947,0,0,1,.3-1.61,1.334,1.334,0,0,0,.231-0.63,0.679,0.679,0,0,0-.693-0.66,18.423,18.423,0,0,0-3.762-.63,12.08,12.08,0,0,1,.33,3.2v4.49Zm49.631,7.36a41.653,41.653,0,0,1-.759,8.74c-0.264,1.19-.792,1.75-1.914,1.75a27.9,27.9,0,0,1-3.267-.23,6.138,6.138,0,0,1,.726,2.31c0.165,1.06.165,1.06,0.957,1.12,0.561,0.04,1.221.04,1.749,0.04,3.3,0,4.587-1.06,5.181-4.16a63,63,0,0,0,.726-9.8c0-.79.033-1.65,0.1-2.48,0-.33-0.1-0.43-0.462-0.43-0.2,0-.825.07-3.1,0.07h-5.313c0.1-1.25.132-2.57,0.165-4.06h6.1c3.135,0,4.223.07,4.421,0.07,0.33,0,.363-0.04.363-0.37v-2.54c0-.33-0.033-0.36-0.363-0.36-0.2,0-1.286.07-4.421,0.07h-3.432v-2.18a6.281,6.281,0,0,1,.165-2.21,1.68,1.68,0,0,0,.2-0.69,0.474,0.474,0,0,0-.528-0.33,31.565,31.565,0,0,0-3.4-.27,19.469,19.469,0,0,1,.231,3.5v2.18h-2.342c-2.805,0-3.894-.07-4.092-0.07-0.33,0-.363.03-0.363,0.36v2.54c0,0.33.033,0.37,0.363,0.37,0.165,0,1.188-.07,3.7-0.07-0.066,4.72-.4,7.99-1.287,10.69-1.122,3.53-3.531,6.11-7.194,8.05a7.361,7.361,0,0,1,1.947,1.85,1.059,1.059,0,0,0,.726.63,2.088,2.088,0,0,0,.792-0.36,16.711,16.711,0,0,0,7-9.18,25.487,25.487,0,0,0,.957-4.55h5.676Zm-19.9-14.72c-1.715,0-2.573-.06-2.8-0.06-0.33,0-.363.03-0.363,0.39,0,0.2.066,2.44,0.066,7.03v14.22c0,4.56-.066,6.77-0.066,7,0,0.29.033,0.33,0.363,0.33h2.639c0.363,0,.4-0.04.4-0.33,0-.2-0.066-2.54-0.066-7v-18.54h3.7a41.936,41.936,0,0,1-3,7.46c2.343,2.97,3.1,4.55,3.1,6.07,0,2.01-1.188,2.47-3.234,2.37a4.712,4.712,0,0,1,.726,2.21c0.132,1.03.132,1.03,1.188,0.93,3.2-.23,4.521-2.02,4.521-5.08,0-1.85-.429-3.83-2.871-6.77a66.937,66.937,0,0,0,2.772-6.5,2.461,2.461,0,0,1,.627-1.09,0.77,0.77,0,0,0,.33-0.56,2.068,2.068,0,0,0-.858-1.29c-0.759-.82-0.99-0.99-1.287-0.99a0.827,0.827,0,0,0-.363.1,1.457,1.457,0,0,1-.66.1H471.13Zm52.634,27.46c2.937,0,3.927.06,4.124,0.06,0.33,0,.363-0.03.363-0.36v-2.9c0-.33-0.033-0.37-0.363-0.37-0.2,0-1.187.07-4.124,0.07H516.9v-10.79h4.158c3.432,0,4.653.06,4.884,0.06,0.33,0,.363-0.03.363-0.36v-2.87c0-.33-0.033-0.36-0.363-0.36-0.231,0-1.452.06-4.884,0.06H516.9v-6.3a11.359,11.359,0,0,1,.231-3.03,2.219,2.219,0,0,0,.2-0.76,0.529,0.529,0,0,0-.561-0.4c-1.155-.13-2.573-0.2-3.86-0.23a25.3,25.3,0,0,1,.3,4.45v20.53h-5.379v-13.79a9.513,9.513,0,0,1,.231-2.94,1.946,1.946,0,0,0,.165-0.66,0.509,0.509,0,0,0-.528-0.43c-1.155-.13-2.574-0.2-3.828-0.23a31.4,31.4,0,0,1,.264,4.62v13.43h-0.561c-2.936,0-3.959-.07-4.157-0.07-0.33,0-.363.04-0.363,0.37v2.9c0,0.33.033,0.36,0.363,0.36,0.2,0,1.221-.06,4.157-0.06h20.195Z" transform="translate(-278.656 -1372.62)"/>
  <path id="_トラネキサム酸_ビタミンE誘導体_有効成分_トラネキサム酸_酢酸DL-α-_トコフェロール配合_" data-name="※トラネキサム酸＆ビタミンE誘導体 有効成分：トラネキサム酸／酢酸DL-α- トコフェロール配合  " class="cls-2" d="M319.4,1476.13l4.461-4.5-0.359-.36-4.461,4.5-4.461-4.5-0.358.36,4.461,4.5-4.485,4.53,0.359,0.36,4.484-4.53,4.509,4.53,0.359-.36Zm-0.359-4.21a0.958,0.958,0,0,0-.944.97,0.941,0.941,0,0,0,.944.95,0.951,0.951,0,0,0,.957-0.95A0.968,0.968,0,0,0,319.046,1471.92Zm-3.229,3.24a0.959,0.959,0,0,0-.945.97,0.942,0.942,0,0,0,.945.95,0.952,0.952,0,0,0,.957-0.95A0.969,0.969,0,0,0,315.817,1475.16Zm6.447,0a0.958,0.958,0,0,0-.945.97,0.941,0.941,0,0,0,.945.95,0.951,0.951,0,0,0,.956-0.95A0.968,0.968,0,0,0,322.264,1475.16Zm-3.218,3.27a0.955,0.955,0,1,0,.957.96A0.96,0.96,0,0,0,319.046,1478.43Zm11.006-5.64a3.161,3.161,0,0,1,.083-1.13,0.662,0.662,0,0,0,.1-0.28,0.213,0.213,0,0,0-.227-0.2,8.714,8.714,0,0,0-1.5-.2,9.341,9.341,0,0,1,.119,1.79v5.92c0,0.78-.012,1.49-0.047,2.38,0,0.14.059,0.18,0.227,0.18a9.442,9.442,0,0,0,1.064,0c0.168,0,.227-0.04.216-0.18-0.024-.87-0.048-1.58-0.048-2.36v-2.67a12.877,12.877,0,0,1,3.145,1.55,0.224,0.224,0,0,0,.132.06,0.2,0.2,0,0,0,.155-0.14,6.9,6.9,0,0,0,.514-1.04,0.228,0.228,0,0,0-.131-0.32,16.943,16.943,0,0,0-3.8-1.64v-1.72Zm12.1,0.04c0.729,0,1.291.02,1.686,0.02,0.179,0.01.215-.04,0.215-0.24a6.145,6.145,0,0,0,0-.94c0-.13-0.036-0.19-0.143-0.19-0.467.02-1.1,0.06-1.878,0.06h-2.153a14.829,14.829,0,0,1-1.961-.09,10.477,10.477,0,0,0,.06,1.16c0.012,0.19.048,0.26,0.167,0.26,0.5-.03,1.1-0.04,1.639-0.04h2.368Zm0.909,2.58a9.385,9.385,0,0,1-5.023,5.02,3.564,3.564,0,0,1,1.112.63,0.408,0.408,0,0,0,.263.14,0.69,0.69,0,0,0,.239-0.08,10.526,10.526,0,0,0,4.88-5.33,1.394,1.394,0,0,1,.406-0.57,0.277,0.277,0,0,0,.132-0.22,0.37,0.37,0,0,0-.12-0.26,6.85,6.85,0,0,0-.8-0.74,0.216,0.216,0,0,0-.335-0.02,1.3,1.3,0,0,1-.634.14h-4.1a21.591,21.591,0,0,1-2.2-.1,9.052,9.052,0,0,0,.131,1.22c0.024,0.15.072,0.23,0.18,0.23,0.6-.04,1.195-0.05,1.793-0.05Zm10.87,1.14c0.646-.55,1.28-1.16,1.89-1.78a1.165,1.165,0,0,1,.382-0.28,0.238,0.238,0,0,0,.18-0.22,0.366,0.366,0,0,0-.072-0.2,4.468,4.468,0,0,0-.6-0.71,0.25,0.25,0,0,0-.2-0.1,0.362,0.362,0,0,0-.18.05,1.993,1.993,0,0,1-.849.13l-3.468.04a11.878,11.878,0,0,1-1.663-.1,10.59,10.59,0,0,0,.132,1.18c0.024,0.16.072,0.23,0.2,0.23,0.491-.04.933-0.06,1.579-0.08l2.763-.06a17.229,17.229,0,0,1-2.32,1.95,22.8,22.8,0,0,1-3.852,2.17,2.784,2.784,0,0,1,.957.73,0.31,0.31,0,0,0,.239.13,0.435,0.435,0,0,0,.2-0.06,20.745,20.745,0,0,0,3.289-2.01v1.56c0,1-.06,1.8-0.06,2.14,0,0.12.084,0.17,0.227,0.17a8.831,8.831,0,0,0,1.029,0c0.143,0,.227-0.05.227-0.16,0-.3-0.036-1.09-0.036-2.17v-2.55Zm-2.512-4.71a12.25,12.25,0,0,1,2.667,1.19,0.2,0.2,0,0,0,.132.05,0.192,0.192,0,0,0,.156-0.12c0.2-.33.358-0.63,0.49-0.89a0.212,0.212,0,0,0,.048-0.12,0.2,0.2,0,0,0-.132-0.14,16.082,16.082,0,0,0-2.535-1.04,0.192,0.192,0,0,0-.251.1C351.871,1471.06,351.656,1471.45,351.416,1471.84Zm3.122,5.41a13.56,13.56,0,0,1,2.691,1.66,0.363,0.363,0,0,0,.167.09,0.213,0.213,0,0,0,.144-0.1,7.2,7.2,0,0,0,.586-0.87,0.293,0.293,0,0,0,.048-0.14,0.186,0.186,0,0,0-.108-0.15,13.048,13.048,0,0,0-2.607-1.47c-0.12-.05-0.156-0.06-0.239.05A11.437,11.437,0,0,0,354.538,1477.25Zm9.746-3.74-1.088.17c-0.826.13-1.483,0.22-2.129,0.27a10.545,10.545,0,0,0,.335,1.2,0.158,0.158,0,0,0,.227.12c0.323-.08,1.124-0.25,1.782-0.36l1.124-.18,0.3,1.55-1.674.28c-0.861.15-1.5,0.24-2.225,0.33,0.1,0.38.215,0.84,0.335,1.19a0.188,0.188,0,0,0,.275.13c0.455-.12,1.124-0.26,1.938-0.41l1.626-.29,0.3,1.43c0.168,0.77.3,1.61,0.383,2.06a0.187,0.187,0,0,0,.239.14,9.15,9.15,0,0,0,1.088-.25c0.108-.04.168-0.08,0.156-0.14-0.156-.6-0.359-1.37-0.526-2.18l-0.275-1.33,1.65-.29c0.849-.15,1.567-0.27,1.925-0.32a0.184,0.184,0,0,0,.18-0.2,6.877,6.877,0,0,0-.2-0.96c-0.012-.13-0.048-0.17-0.2-0.14a18.358,18.358,0,0,1-1.877.4l-1.735.3-0.3-1.54,1.053-.19c0.6-.11,1.447-0.24,2-0.34,0.12-.01.18-0.05,0.18-0.13a8.252,8.252,0,0,0-.24-1.04,0.152,0.152,0,0,0-.131-0.13c-0.622.17-1.459,0.31-2.141,0.43l-0.981.17-0.179-1.01a2.644,2.644,0,0,1-.024-0.87c0-.12-0.084-0.17-0.239-0.18a10.1,10.1,0,0,0-1.555.04,5.819,5.819,0,0,1,.478,1.5Zm16.323,0.39v-1.15a3.362,3.362,0,0,1,.1-1.06,0.58,0.58,0,0,0,.048-0.21c0-.1-0.048-0.16-0.216-0.2a12.368,12.368,0,0,0-1.4-.2,8.051,8.051,0,0,1,.108,1.65l-0.012,1.18h-2.571v-0.88a3.1,3.1,0,0,1,.083-1.16,0.776,0.776,0,0,0,.072-0.25,0.18,0.18,0,0,0-.179-0.17,12.113,12.113,0,0,0-1.459-.19,8.478,8.478,0,0,1,.143,1.77v0.88h-0.359c-0.921,0-1.7-.02-2.2-0.06a11.229,11.229,0,0,0,.083,1.17c0.012,0.16.048,0.23,0.144,0.23,0.371-.03,1.327-0.06,1.973-0.06h0.359v0.46c0,0.76-.024,1.35-0.06,1.97-0.012.13,0.06,0.16,0.216,0.17a8.813,8.813,0,0,0,1.028,0c0.132-.01.215-0.04,0.2-0.17-0.036-.64-0.036-1.29-0.036-2v-0.43h2.548a5.847,5.847,0,0,1-.706,3.07,5.182,5.182,0,0,1-3.229,2.13,2.7,2.7,0,0,1,.993.73,0.344,0.344,0,0,0,.227.13,1.076,1.076,0,0,0,.335-0.11,5.648,5.648,0,0,0,2.822-2.24,7.216,7.216,0,0,0,.921-3.71h0.491c0.586,0,1.315.01,1.722,0.01,0.167,0.01.191-.04,0.2-0.19a6.276,6.276,0,0,0,0-.95c-0.012-.14-0.024-0.21-0.167-0.2-0.55.03-1.22,0.04-1.806,0.04h-0.419Zm8.253-2.66a6.492,6.492,0,0,1-.347,1.65c-0.622,2.02-1.244,3.8-2.093,5.96-0.478.01-.98,0.02-1.459-0.01a10.86,10.86,0,0,0,.419,1.55,0.218,0.218,0,0,0,.347.12,4.255,4.255,0,0,1,1.4-.29c1.949-.2,3.767-0.41,5.681-0.69,0.143,0.31.275,0.62,0.418,0.96a0.2,0.2,0,0,0,.168.17,0.259,0.259,0,0,0,.143-0.04,5.829,5.829,0,0,0,.909-0.49,0.246,0.246,0,0,0,.156-0.21,0.268,0.268,0,0,0-.048-0.15,16.774,16.774,0,0,0-2.416-3.94,0.2,0.2,0,0,0-.287-0.08c-0.335.19-.682,0.39-1.041,0.58a12.473,12.473,0,0,1,1.328,1.93c-1.339.21-2.344,0.3-4.186,0.46,0.754-1.81,1.387-3.58,2.057-5.42a3.757,3.757,0,0,1,.491-1,0.417,0.417,0,0,0,.119-0.24,0.267,0.267,0,0,0-.143-0.2A6.272,6.272,0,0,0,388.86,1471.24Zm11.825,0.83c0.969,0,1.292.02,1.364,0.02,0.107,0,.119-0.01.119-0.14v-0.83c0-.14-0.012-0.15-0.119-0.15-0.072,0-.395.03-1.364,0.03H398.58c-0.968,0-1.279-.03-1.351-0.03-0.12,0-.132.01-0.132,0.15v0.83c0,0.13.012,0.14,0.132,0.14,0.072,0,.383-0.02,1.351-0.02h0.048v1.14c-0.753,0-1.028-.02-1.1-0.02-0.12,0-.132.01-0.132,0.13,0,0.09.024,0.65,0.024,2.59v2.03c0,2.87-.024,3.42-0.024,3.5,0,0.11.012,0.12,0.132,0.12h0.706c0.119,0,.131-0.01.131-0.12v-0.78h2.428v0.5c0,0.12.012,0.14,0.119,0.14h0.706c0.12,0,.132-0.02.132-0.14,0-.02-0.012-0.13-0.012-0.38a2.875,2.875,0,0,1,.347.56c0.1,0.22.131,0.29,0.239,0.29a0.84,0.84,0,0,0,.275-0.07,7.573,7.573,0,0,0,2.4-1.25,6.976,6.976,0,0,0,2.356,1.18c0.37,0.1.382,0.1,0.49-.24a3.263,3.263,0,0,1,.4-0.87,7.565,7.565,0,0,1-2.416-.87,6.215,6.215,0,0,0,1.016-1.53,1.533,1.533,0,0,1,.264-0.41,0.265,0.265,0,0,0,.131-0.2,0.994,0.994,0,0,0-.311-0.46,0.778,0.778,0,0,0-.466-0.35,0.55,0.55,0,0,0-.156.04,0.7,0.7,0,0,1-.263.05h-1.4l0.048-.1a1.789,1.789,0,0,1,.287-0.45,0.333,0.333,0,0,0,.131-0.23,0.221,0.221,0,0,0-.2-0.16,6.88,6.88,0,0,0-.921-0.23,2.787,2.787,0,0,1-.263.74,5.61,5.61,0,0,1-2,2.26v-2.8a3.014,3.014,0,0,1,.37.48,0.46,0.46,0,0,0,.288.32,0.52,0.52,0,0,0,.239-0.11,3.808,3.808,0,0,0,1.459-1.75,1.725,1.725,0,0,1,.215-0.41,0.179,0.179,0,0,0,.072-0.15c0-.05-0.036-0.1-0.18-0.15a7.585,7.585,0,0,0-.932-0.25,1.417,1.417,0,0,1-.132.55,2.4,2.4,0,0,1-1.4,1.35v-0.05c0-1.57.024-2.12,0.024-2.19,0-.12-0.012-0.13-0.132-0.13-0.084,0-.347.02-1.04,0.02v-1.14h0.107Zm-0.909,2.12v1.91a0.75,0.75,0,0,0,.239.68,0.993,0.993,0,0,0,.551.11h0.227v0.92h-2.428v-0.94a3.072,3.072,0,0,1,.311.4,0.2,0.2,0,0,0,.12.11,0.211,0.211,0,0,0,.143-0.14,4.046,4.046,0,0,0,.443-1.74c0.012-.32.036-0.76,0.047-1.31h0.347Zm1.962,6.44c-0.012-.37-0.012-1.06-0.012-2.12a1.758,1.758,0,0,1,.442.51,0.378,0.378,0,0,0,.227.25,0.654,0.654,0,0,0,.276-0.17c0.275-.23.526-0.44,0.741-0.66a6.248,6.248,0,0,0,.789,1.11A6.422,6.422,0,0,1,401.738,1480.63Zm-3.373-1v-0.82h2.428v0.82h-2.428Zm7.475-2.06a5.855,5.855,0,0,1-.873,1.28,4.9,4.9,0,0,1-.909-1.2l0.048-.08h1.734Zm-7.475-3.38h0.395c0,0.37-.012.7-0.024,0.95a3.426,3.426,0,0,1-.371,1.53v-2.48Zm2.428,0v1.73h-0.06a0.318,0.318,0,0,1-.251-0.08,0.848,0.848,0,0,1-.048-0.42v-1.23h0.359Zm-1.364-.98v-1.14h0.347v1.14h-0.347Zm6.208-1.73c-0.12.07-.132,0.12-0.048,0.21,0.167,0.18.335,0.38,0.49,0.58-0.682.07-1.351,0.14-2.009,0.17,0.143-.26.275-0.49,0.418-0.77a2.774,2.774,0,0,1,.3-0.45,0.247,0.247,0,0,0,.108-0.19,0.218,0.218,0,0,0-.191-0.19,7.951,7.951,0,0,0-1.041-.29,3.856,3.856,0,0,1-.227.81,9.516,9.516,0,0,1-.514,1.14c-0.311,0-.6,0-0.957-0.02,0.048,0.37.108,0.7,0.179,1.05a0.162,0.162,0,0,0,.168.16,0.341,0.341,0,0,0,.2-0.06,1.14,1.14,0,0,1,.443-0.09c1.291-.1,2.5-0.22,3.707-0.39,0.108,0.18.2,0.36,0.3,0.54,0.072,0.14.1,0.14,0.251,0.05l0.61-.36c0.156-.08.156-0.13,0.084-0.25a8.962,8.962,0,0,0-1.519-1.94c-0.084-.09-0.108-0.1-0.227-0.03Zm0.346,2.8a0.881,0.881,0,0,1,.06-0.41,0.276,0.276,0,0,0,.048-0.16c0-.05-0.036-0.1-0.179-0.11-0.347-.04-0.61-0.06-0.993-0.09a6.367,6.367,0,0,1,.048.96v0.55a0.785,0.785,0,0,0,.287.72,1.837,1.837,0,0,0,1.172.17,1.95,1.95,0,0,0,1.148-.24,1.037,1.037,0,0,0,.431-0.93c0.047-.31.023-0.32-0.252-0.41a1.841,1.841,0,0,1-.633-0.33,1.264,1.264,0,0,1-.18.83,0.669,0.669,0,0,1-.454.11,0.619,0.619,0,0,1-.419-0.08,0.3,0.3,0,0,1-.084-0.25v-0.33Zm10.991,1.79a5.035,5.035,0,0,1-.538,2.36,31.544,31.544,0,0,1-2.045-2.71c1.555-.46,2.2-1.18,2.2-2.34a2.019,2.019,0,0,0-2.285-2,2.141,2.141,0,0,0-2.344,2.11,3.147,3.147,0,0,0,.682,1.88,2.839,2.839,0,0,0,1.136,5.53,3.505,3.505,0,0,0,2.452-.8,2.215,2.215,0,0,0,1.949.79h0.407l0.3-1.09a1.761,1.761,0,0,1-1.674-.64,5.078,5.078,0,0,0,1.028-2.82Zm-3.827.09a25.923,25.923,0,0,0,2.38,3.18,2.1,2.1,0,0,1-1.447.49,1.916,1.916,0,0,1-2.009-1.93A1.807,1.807,0,0,1,413.147,1476.16Zm0.742-1.22a2.636,2.636,0,0,1-.574-1.5,1,1,0,0,1,.992-1.05,0.923,0.923,0,0,1,.945.98A1.563,1.563,0,0,1,413.889,1474.94Zm9.965-1.39a2.736,2.736,0,0,1,.119-1.08,0.553,0.553,0,0,0,.084-0.26,0.206,0.206,0,0,0-.191-0.19,9.958,9.958,0,0,0-1.507-.24,12.64,12.64,0,0,1,.119,2.2v4.45a1.7,1.7,0,0,0,.849,1.81,6.009,6.009,0,0,0,2.273.32,23.563,23.563,0,0,0,3.552-.22c0.179-.01.251-0.06,0.251-0.21,0-.26-0.036-0.71-0.072-1.05-0.012-.14-0.036-0.19-0.215-0.17a21.287,21.287,0,0,1-3.373.28,6.347,6.347,0,0,1-1.507-.13c-0.311-.1-0.394-0.29-0.394-0.86v-1.6a30.151,30.151,0,0,0,4.1-1.5,6.309,6.309,0,0,1,.993-0.39,0.229,0.229,0,0,0,.2-0.22,0.358,0.358,0,0,0-.1-0.22,6.966,6.966,0,0,0-.992-1.08,3.831,3.831,0,0,1-1.28.87,22.444,22.444,0,0,1-2.918,1.16v-1.67Zm4.365-1.36a5.772,5.772,0,0,1,1.208,1.4,0.126,0.126,0,0,0,.2.03l0.5-.37a0.12,0.12,0,0,0,.035-0.19,5.489,5.489,0,0,0-1.136-1.29c-0.072-.06-0.119-0.08-0.179-0.03Zm1.1-.8a5.666,5.666,0,0,1,1.2,1.39,0.12,0.12,0,0,0,.2.03l0.478-.37a0.142,0.142,0,0,0,.036-0.22,5.1,5.1,0,0,0-1.136-1.24,0.12,0.12,0,0,0-.18-0.02Zm8.242,1.35c0.2-.31.275-0.43,0.371-0.6a1.044,1.044,0,0,1,.251-0.25,0.331,0.331,0,0,0,.144-0.24,0.215,0.215,0,0,0-.132-0.2,7.915,7.915,0,0,0-1.4-.59,4.418,4.418,0,0,1-.646,1.48,13.425,13.425,0,0,1-3.384,3.79,5.417,5.417,0,0,1,1,.55,0.284,0.284,0,0,0,.192.09,0.435,0.435,0,0,0,.239-0.11,14.858,14.858,0,0,0,2.559-2.71l2.966-.06a11.568,11.568,0,0,1-1.4,2.38,11.32,11.32,0,0,0-1.543-.96,0.244,0.244,0,0,0-.12-0.05,0.257,0.257,0,0,0-.155.08c-0.275.26-.526,0.57-0.789,0.86a10.528,10.528,0,0,1,1.722,1.13,14.441,14.441,0,0,1-4.4,3.27,3.36,3.36,0,0,1,1.136.61,0.373,0.373,0,0,0,.227.11,0.655,0.655,0,0,0,.3-0.11,14.348,14.348,0,0,0,3.815-3.01,12.985,12.985,0,0,1,1.16,1.17,0.2,0.2,0,0,0,.132.07,0.221,0.221,0,0,0,.143-0.06,7.013,7.013,0,0,0,.742-0.76,0.24,0.24,0,0,0,.072-0.15,0.228,0.228,0,0,0-.072-0.17,10.644,10.644,0,0,0-1.292-1.22,18.393,18.393,0,0,0,1.758-2.92,1.468,1.468,0,0,1,.359-0.45,0.324,0.324,0,0,0,.132-0.23,0.3,0.3,0,0,0-.1-0.22,3.756,3.756,0,0,0-.813-0.73,0.425,0.425,0,0,0-.216-0.1,0.341,0.341,0,0,0-.2.08,1.12,1.12,0,0,1-.658.18Zm8.519-.27a19.053,19.053,0,0,1,4.521,1.38,0.181,0.181,0,0,0,.287-0.08,10.437,10.437,0,0,0,.419-1.05c0.072-.16.048-0.22-0.144-0.3a21.866,21.866,0,0,0-4.257-1.27,0.231,0.231,0,0,0-.323.16C446.487,1471.5,446.224,1472.12,446.08,1472.47Zm-0.8,3.13a17.182,17.182,0,0,1,3.911,1.29,0.361,0.361,0,0,0,.155.05,0.228,0.228,0,0,0,.168-0.16,7.71,7.71,0,0,0,.4-0.93,0.234,0.234,0,0,0-.156-0.35,18.727,18.727,0,0,0-3.648-1.17,0.214,0.214,0,0,0-.311.12C445.674,1474.67,445.471,1475.12,445.279,1475.6Zm-0.191,3.58a21.361,21.361,0,0,1,5.908,2,0.441,0.441,0,0,0,.167.06,0.227,0.227,0,0,0,.18-0.15,9.3,9.3,0,0,0,.478-0.99,0.209,0.209,0,0,0-.119-0.32,20.378,20.378,0,0,0-5.729-1.88,0.268,0.268,0,0,0-.335.14A12.263,12.263,0,0,0,445.088,1479.18Zm10.038-5.98a12.9,12.9,0,0,1,2.439,1.96,0.261,0.261,0,0,0,.156.1,0.237,0.237,0,0,0,.143-0.1c0.168-.18.563-0.66,0.742-0.9a0.262,0.262,0,0,0,.072-0.16,0.28,0.28,0,0,0-.108-0.16,12.356,12.356,0,0,0-2.284-1.72,0.394,0.394,0,0,0-.156-0.06,0.229,0.229,0,0,0-.167.1C455.736,1472.5,455.389,1472.87,455.126,1473.2Zm0.263,6.01a8.316,8.316,0,0,0,.957,1.34,0.319,0.319,0,0,0,.2.13,0.339,0.339,0,0,0,.215-0.12,3.9,3.9,0,0,1,.8-0.55,26.515,26.515,0,0,0,3.612-2.36,19.8,19.8,0,0,0,2.751-2.56,0.567,0.567,0,0,0,.191-0.36,0.65,0.65,0,0,0-.059-0.23,5.41,5.41,0,0,1-.335-1.41,17.766,17.766,0,0,1-3.277,3.28,18.043,18.043,0,0,1-3.445,2.24A7,7,0,0,1,455.389,1479.21Zm17.842-7.83h-6.124v9.35h6.219v-1.29h-4.6v-3.01h3.408v-1.29h-3.408v-2.47h4.509v-1.29Zm10.2,6.33a10.785,10.785,0,0,1-.43,1.37c-0.06.14,0,.18,0.191,0.19l0.634,0.04c0.215,0.01.275,0,.323-0.13l0.036-.11h0.562a3.763,3.763,0,0,1-.275,1.19,0.609,0.609,0,0,1-.6.22,8.9,8.9,0,0,1-1.2-.1,2.6,2.6,0,0,1,.227.7c0.072,0.4.084,0.42,0.431,0.43,0.251,0.02.406,0.02,0.633,0.02a1.44,1.44,0,0,0,1.388-.53,4.612,4.612,0,0,0,.5-1.91l0.1-.84c0.012-.12-0.024-0.15-0.132-0.15-0.084,0-.239.03-0.682,0.03h-0.717c0.072-.26.131-0.53,0.2-0.82,0.048-.19.108-0.36,0.144-0.5,0.024-.08-0.024-0.13-0.144-0.13-0.072,0-.394.03-1.339,0.03h-1.938c-0.837,0-1.088-.03-1.16-0.03-0.119,0-.131.01-0.131,0.12v0.79c0,0.13.012,0.14,0.131,0.14,0.06,0,.3-0.02,1.029-0.02a3.548,3.548,0,0,1-2,3.02v-1.98c0-.56.012-0.85,0.012-0.92,0-.12,0-0.14-0.107-0.14-0.084,0-.335.03-1.089,0.03h-0.9c-0.753,0-1-.03-1.076-0.03-0.132,0-.143.02-0.143,0.14,0,0.08.023,0.37,0.023,1.13v0.77c0,1.46-.023,1.74-0.023,1.82,0,0.11.011,0.12,0.143,0.12h0.849c0.12,0,.132-0.01.132-0.12V1481h1.088v0.32c0,0.12.012,0.13,0.132,0.13h0.861c0.107,0,.107-0.01.107-0.13,0-.04-0.012-0.19-0.012-0.53a2.744,2.744,0,0,1,.515.58,0.407,0.407,0,0,0,.239.26,0.8,0.8,0,0,0,.287-0.15,4.951,4.951,0,0,0,2.069-3.77h1.1Zm-5.3,1.01v1.29h-1.088v-1.29h1.088Zm6.4-4.58c1.124,0,1.506.02,1.578,0.02,0.132,0,.144-0.01.144-0.13v-0.76c0-.11-0.012-0.12-0.144-0.12-0.072,0-.454.03-1.578,0.03H483.42v-0.99c0.5-.09.969-0.18,1.4-0.3a2.847,2.847,0,0,1,.657-0.14c0.168,0,.228-0.06.228-0.14a0.292,0.292,0,0,0-.084-0.2,7.912,7.912,0,0,0-.706-0.72,3.177,3.177,0,0,1-.789.29,18.755,18.755,0,0,1-4.282.55,2.113,2.113,0,0,1,.347.66c0.12,0.35.132,0.35,0.49,0.32,0.563-.03,1.077-0.08,1.555-0.14v0.81h-0.789c-1.124,0-1.507-.03-1.579-0.03-0.131,0-.143.01-0.143,0.12v0.76c0,0.12.012,0.13,0.143,0.13,0.072,0,.455-0.02,1.579-0.02h0.108a7.4,7.4,0,0,1-2.464,1.52,2.736,2.736,0,0,1,.418.68c0.1,0.22.132,0.31,0.216,0.31a0.921,0.921,0,0,0,.275-0.12,8.252,8.252,0,0,0,2.284-1.8c-0.012.82-.036,1.28-0.036,1.47,0,0.12.012,0.13,0.132,0.13h0.9c0.119,0,.131-0.01.131-0.13,0-.18-0.024-0.63-0.036-1.45a7.313,7.313,0,0,0,2.249,1.79,0.936,0.936,0,0,0,.287.12c0.084,0,.131-0.07.215-0.28a2.846,2.846,0,0,1,.419-0.72,7.223,7.223,0,0,1-2.548-1.52h0.539Zm-7.679-1.4c-0.909,0-1.184-.02-1.255-0.02-0.12,0-.132.01-0.132,0.13v0.86c0,0.13.012,0.14,0.132,0.14,0.071,0,.346-0.02,1.255-0.02h1.2c0.9,0,1.184.02,1.244,0.02,0.12,0,.132-0.01.132-0.14v-0.86c0-.12-0.012-0.13-0.132-0.13-0.06,0-.347.02-1.244,0.02h-1.2Zm0.323-1.65c-0.765,0-1-.02-1.076-0.02-0.12,0-.132.01-0.132,0.13v0.81c0,0.11.012,0.12,0.132,0.12,0.072,0,.311-0.03,1.076-0.03h0.873c0.754,0,.993.03,1.065,0.03,0.119,0,.119-0.01.119-0.12v-0.81c0-.12,0-0.13-0.119-0.13-0.072,0-.311.02-1.065,0.02h-0.873Zm0.036,3.36c-0.717,0-.933-0.02-1-0.02-0.12,0-.132.01-0.132,0.13v0.78c0,0.13.012,0.14,0.132,0.14,0.071,0,.287-0.03,1-0.03h0.742c0.705,0,.921.03,0.992,0.03,0.132,0,.144-0.01.144-0.14v-0.78c0-.12-0.012-0.13-0.144-0.13-0.071,0-.287.02-0.992,0.02h-0.742Zm0,1.63c-0.717,0-.933-0.02-1-0.02-0.12,0-.132.01-0.132,0.13v0.77c0,0.12.012,0.13,0.132,0.13,0.071,0,.287-0.02,1-0.02h0.742c0.705,0,.921.02,0.992,0.02,0.132,0,.144-0.01.144-0.13v-0.77c0-.12-0.012-0.13-0.144-0.13-0.071,0-.287.02-0.992,0.02h-0.742Zm20.411,3.47c1.076,0,1.447.02,1.519,0.02,0.119,0,.131-0.01.131-0.13v-0.73c0-.14-0.012-0.15-0.131-0.15-0.072,0-.443.03-1.519,0.03h-0.778v-0.5c0.682-.01,1.4-0.02,2.141-0.05,0.383-.01.383-0.01,0.455-0.39a2.7,2.7,0,0,1,.2-0.69c-1.639.12-3.313,0.16-5,.16a8.326,8.326,0,0,1-2.2-.18,1.591,1.591,0,0,1-.909-0.81v-1.44c0-.53.024-0.75,0.024-0.83,0-.12-0.012-0.13-0.143-0.13-0.072,0-.24.02-0.873,0.02h-0.778c-0.634,0-.789-0.02-0.873-0.02-0.107,0-.119.01-0.119,0.13v0.82c0,0.12.012,0.13,0.119,0.13,0.084,0,.239-0.02.873-0.02H490.4v1.27a5.993,5.993,0,0,1-1.1.68,4,4,0,0,1-.682.27c0.168,0.42.287,0.71,0.443,1.03a0.207,0.207,0,0,0,.179.15,0.2,0.2,0,0,0,.167-0.11,0.915,0.915,0,0,1,.24-0.23,10.511,10.511,0,0,0,1.231-.9,2.243,2.243,0,0,0,1.137.84,10.137,10.137,0,0,0,2.8.31h0.837v0.49h-5.238c-1.076,0-1.435-.03-1.507-0.03-0.108,0-.119.01-0.119,0.15v0.73c0,0.12.011,0.13,0.119,0.13,0.072,0,.431-0.02,1.507-0.02h5.238v0.69c0,0.27-.155.38-0.5,0.38-0.239,0-.658-0.01-1.088-0.05a2.856,2.856,0,0,1,.335.8c0.083,0.29.083,0.29,0.442,0.29a3.442,3.442,0,0,0,1.591-.22,0.892,0.892,0,0,0,.442-0.88c0-.35-0.024-0.65-0.024-1.01h0.778Zm-2.871-7.07a2.593,2.593,0,0,1-.155.43h-0.4c-1.052,0-1.423-.02-1.507-0.02-0.119,0-.131.01-0.131,0.13,0,0.07.024,0.34,0.024,1v1.47c0,0.66-.024.93-0.024,1.01,0,0.12.012,0.13,0.131,0.13,0.084,0,.455-0.02,1.507-0.02h2.476c1.052,0,1.423.02,1.507,0.02,0.107,0,.119-0.01.119-0.13,0-.07-0.023-0.35-0.023-1.01v-1.47c0-.66.023-0.93,0.023-1,0-.12-0.012-0.13-0.119-0.13-0.084,0-.455.02-1.507,0.02h-0.885a3.746,3.746,0,0,0,.179-0.43h1.459c1.172,0,1.579.02,1.651,0.02,0.119,0,.131-0.01.131-0.13v-0.59c0-.12-0.012-0.13-0.131-0.13-0.072,0-.479.02-1.651,0.02h-0.251l0.227-.34a1.119,1.119,0,0,1,.216-0.24,0.249,0.249,0,0,0,.131-0.19,0.155,0.155,0,0,0-.155-0.12c-0.311-.07-0.694-0.16-1.089-0.22a1.918,1.918,0,0,1-.215.58,6.018,6.018,0,0,1-.323.53h-1.842l0.443-.19c0.132-.06.144-0.11,0.084-0.22a3.618,3.618,0,0,0-.5-0.65,0.175,0.175,0,0,0-.251-0.06l-0.646.26c-0.143.06-.191,0.09-0.107,0.2a3.328,3.328,0,0,1,.442.66c-1.16,0-1.554-.02-1.626-0.02-0.12,0-.132.01-0.132,0.13v0.6c0,0.12.012,0.12,0.132,0.12,0.072,0,.466-0.02,1.626-0.02h1.16Zm2.416,1.08v0.45h-3.48v-0.45h3.48Zm0,2.39h-3.48v-0.45h3.48v0.45Zm-3.48-.98v-0.43h3.48v0.43h-3.48Zm-4.5-3.48a0.243,0.243,0,0,0-.107.13,0.182,0.182,0,0,0,.083.1,8.1,8.1,0,0,1,1.328,1.44,0.2,0.2,0,0,0,.1.09,0.351,0.351,0,0,0,.156-0.1l0.646-.56a0.209,0.209,0,0,0,.083-0.15,0.249,0.249,0,0,0-.059-0.12,8.645,8.645,0,0,0-1.424-1.36c-0.095-.07-0.143-0.05-0.239.04Zm2,8.54a0.155,0.155,0,0,0-.119.11,0.217,0.217,0,0,0,.072.1,6.148,6.148,0,0,1,1,1.18c0.072,0.11.108,0.09,0.239,0.02l0.826-.48c0.131-.07.143-0.11,0.071-0.21a7.187,7.187,0,0,0-1.04-1.09c-0.108-.09-0.132-0.09-0.275-0.01Zm16.058-5.71a11.155,11.155,0,0,1-3.134,4.18v-4.88a17.905,17.905,0,0,0,.778-1.76,1.153,1.153,0,0,1,.239-0.48,0.265,0.265,0,0,0,.131-0.22,0.228,0.228,0,0,0-.191-0.18,9.178,9.178,0,0,0-1.16-.37,4.245,4.245,0,0,1-.18.86,10.643,10.643,0,0,1-2.272,3.91,3.419,3.419,0,0,1,.407,1.04c0.036,0.14.072,0.21,0.131,0.21a0.379,0.379,0,0,0,.216-0.15c0.239-.28.466-0.58,0.693-0.88-0.012.48-.012,0.96-0.012,1.36v2.73c0,1.18-.024,1.76-0.024,1.84,0,0.12.012,0.13,0.12,0.13h1.017c0.119,0,.131-0.01.131-0.13,0-.06-0.024-0.66-0.024-1.84v-1.15a3.738,3.738,0,0,1,.538.71,0.333,0.333,0,0,0,.192.23,0.552,0.552,0,0,0,.251-0.18,11.287,11.287,0,0,0,2.727-4.03c0,1.07-.012,2.15-0.036,3.09h-0.227c-0.933,0-1.232-.03-1.3-0.03-0.12,0-.132.01-0.132,0.14v0.87c0,0.14.012,0.15,0.132,0.15,0.072,0,.371-0.02,1.3-0.02h0.215c-0.024,1.13-.048,1.94-0.048,2.06s0.012,0.13.144,0.13H508.9c0.12,0,.132-0.01.132-0.13s-0.024-.92-0.036-2.06h0.263c0.933,0,1.232.02,1.3,0.02,0.12,0,.132-0.01.132-0.15v-0.87c0-.13-0.012-0.14-0.132-0.14-0.071,0-.37.03-1.3,0.03h-0.275c-0.012-.94-0.024-2.02-0.024-3.1a11.854,11.854,0,0,0,2.786,4.05,0.524,0.524,0,0,0,.252.19,0.365,0.365,0,0,0,.191-0.25,3.044,3.044,0,0,1,.586-0.81,12.134,12.134,0,0,1-3.325-4.12h1.244c1.16,0,1.567.02,1.65,0.02,0.108,0,.12-0.01.12-0.13v-0.93c0-.13-0.012-0.13-0.12-0.13-0.083,0-.49.01-1.65,0.01h-1.7v-0.8a4.152,4.152,0,0,1,.072-1.22,0.643,0.643,0,0,0,.083-0.25,0.164,0.164,0,0,0-.191-0.12,10.235,10.235,0,0,0-1.256-.1,13.389,13.389,0,0,1,.084,1.71v0.78h-1.208c-1.172,0-1.567-.01-1.639-0.01-0.119,0-.131,0-0.131.13v0.93c0,0.12.012,0.13,0.131,0.13,0.072,0,.467-0.02,1.639-0.02h0.67Zm-209.039,15.74c0-.07-0.008-0.08-0.062-0.08s-0.332.02-1.175,0.02h-3.319c0.09-.24.17-0.5,0.251-0.77a1.453,1.453,0,0,1,.152-0.34,0.26,0.26,0,0,0,.081-0.13,0.125,0.125,0,0,0-.125-0.11,4.691,4.691,0,0,0-.565-0.11,3.2,3.2,0,0,1-.135.76c-0.063.23-.144,0.47-0.224,0.7h-1.462c-0.843,0-1.122-.02-1.175-0.02s-0.072.01-.072,0.08v0.39c0,0.06.009,0.07,0.072,0.07s0.332-.02,1.175-0.02h1.264a7.122,7.122,0,0,1-2.592,3.12,1.008,1.008,0,0,1,.314.27,0.193,0.193,0,0,0,.126.1,0.371,0.371,0,0,0,.125-0.07,8.218,8.218,0,0,0,1.588-1.62v3.21c0,0.78-.018,1.03-0.018,1.07,0,0.06.009,0.07,0.081,0.07h0.4c0.063,0,.072-0.01.072-0.07,0-.04-0.018-0.29-0.018-1.07v-0.75h3.355v0.92a0.331,0.331,0,0,1-.4.37,7.379,7.379,0,0,1-.825-0.04,1.338,1.338,0,0,1,.179.39c0.045,0.18.045,0.18,0.216,0.18a1.741,1.741,0,0,0,1.166-.2,0.793,0.793,0,0,0,.215-0.64c0-.18-0.018-0.65-0.018-1.17v-1.8c0-.78.018-1.13,0.018-1.18s-0.009-.07-0.072-0.07-0.412.02-1.229,0.02h-2.628a9.112,9.112,0,0,0,.512-1.04h3.516c0.843,0,1.121.02,1.175,0.02s0.062-.01.062-0.07v-0.39Zm-1.883,4.24H292.97v-0.94h3.355v0.94Zm0-1.4H292.97v-0.89h3.355v0.89Zm9.568-2.1c0.018-.35.027-0.71,0.027-1.03a3.943,3.943,0,0,1,.053-0.82,0.842,0.842,0,0,0,.054-0.19,0.09,0.09,0,0,0-.1-0.09,3.723,3.723,0,0,0-.6-0.07,5.277,5.277,0,0,1,.071,1.11c0,0.37-.009.74-0.027,1.09h-0.107c-0.736,0-.969-0.02-1.014-0.02-0.063,0-.072.01-0.072,0.07v0.37c0,0.07.009,0.08,0.072,0.08,0.045,0,.278-0.02,1.014-0.02h0.081a11.91,11.91,0,0,1-.368,2.28,4.784,4.784,0,0,1-2.135,2.79,0.909,0.909,0,0,1,.332.25,0.334,0.334,0,0,0,.134.1,0.371,0.371,0,0,0,.126-0.08,5.274,5.274,0,0,0,2.027-2.86,12.7,12.7,0,0,0,.4-2.48h1.3a32.014,32.014,0,0,1-.233,4.13c-0.089.51-.215,0.61-0.52,0.61a5.655,5.655,0,0,1-.915-0.08,1.229,1.229,0,0,1,.126.39c0.027,0.19.027,0.19,0.2,0.2,0.206,0.02.413,0.02,0.655,0.02a0.878,0.878,0,0,0,.969-0.9,30.134,30.134,0,0,0,.251-3.98c0-.27.009-0.53,0.018-0.81,0-.06-0.018-0.08-0.072-0.08s-0.287.02-1.023,0.02h-0.717Zm-4.853,2.16c-0.054.05-.063,0.07-0.018,0.12,0.368,0.32.709,0.65,1.023,0.98a5.89,5.89,0,0,1-2.225,2.11,1.014,1.014,0,0,1,.26.25,0.233,0.233,0,0,0,.126.13,0.467,0.467,0,0,0,.134-0.07,6.359,6.359,0,0,0,2.046-2.03,10.924,10.924,0,0,1,.7.92c0.045,0.06.072,0.06,0.153-.03l0.206-.21c0.063-.07.072-0.08,0.036-0.14-0.269-.33-0.547-0.67-0.843-0.99a7.3,7.3,0,0,0,.349-0.83,1.516,1.516,0,0,1,.162-0.39,0.443,0.443,0,0,0,.1-0.17,0.133,0.133,0,0,0-.1-0.1,2.452,2.452,0,0,0-.493-0.2,3.208,3.208,0,0,1-.189.81,4.344,4.344,0,0,1-.188.48,8.872,8.872,0,0,0-.915-0.85c-0.054-.05-0.072-0.04-0.144.04Zm3.122-2.9c0-.07-0.009-0.08-0.072-0.08s-0.314.02-1.121,0.02h-0.53v-0.49a2.071,2.071,0,0,1,.054-0.66,0.46,0.46,0,0,0,.054-0.18,0.1,0.1,0,0,0-.108-0.07c-0.17-.02-0.367-0.04-0.592-0.05a4.342,4.342,0,0,1,.072.96V1490h-0.655c-0.807,0-1.067-.02-1.112-0.02-0.063,0-.072.01-0.072,0.08v0.38c0,0.05.009,0.06,0.072,0.06,0.045,0,.305-0.02,1.112-0.02h1.7c0.807,0,1.067.02,1.121,0.02s0.072-.01.072-0.06v-0.38Zm-2.5,1.13a0.117,0.117,0,0,0-.081-0.1,2.5,2.5,0,0,0-.5-0.24,1.257,1.257,0,0,1-.117.41,4.328,4.328,0,0,1-1.049,1.38,0.7,0.7,0,0,1,.3.21,0.275,0.275,0,0,0,.125.1,0.323,0.323,0,0,0,.126-0.1,6.167,6.167,0,0,0,.942-1.33,0.6,0.6,0,0,1,.179-0.22A0.147,0.147,0,0,0,301.659,1491.19Zm1.157-.13c-0.081.04-.1,0.06-0.063,0.13a9.091,9.091,0,0,0,1.086,1.51,0.22,0.22,0,0,0,.134.1,0.193,0.193,0,0,0,.117-0.09,0.77,0.77,0,0,1,.305-0.22,6.01,6.01,0,0,1-1.2-1.53c-0.036-.06-0.045-0.06-0.135-0.02Zm13.317-.42c0.9,0,1.193.02,1.247,0.02s0.072-.01.072-0.07v-0.39c0-.07-0.009-0.08-0.072-0.08s-0.35.02-1.247,0.02h-1.507c0-.15-0.009-0.3-0.009-0.46a2.42,2.42,0,0,1,.054-0.79,0.252,0.252,0,0,0,.036-0.14,0.116,0.116,0,0,0-.116-0.09,5.7,5.7,0,0,0-.593-0.06,7.888,7.888,0,0,1,.072,1.1c0,0.16.009,0.3,0.009,0.44h-2.323c-0.9,0-1.211-.02-1.256-0.02-0.071,0-.08.01-0.08,0.08,0,0.05.018,0.55,0.018,1.8a14.774,14.774,0,0,1-.117,2.1,5.015,5.015,0,0,1-.772,2.21,1.161,1.161,0,0,1,.323.25,0.207,0.207,0,0,0,.117.1,0.2,0.2,0,0,0,.1-0.11,5.977,5.977,0,0,0,.762-2.25,11.619,11.619,0,0,0,.126-1.69h1.677a10.939,10.939,0,0,1-.135,1.74,0.439,0.439,0,0,1-.475.46,5.542,5.542,0,0,1-.825-0.08,1.058,1.058,0,0,1,.143.38c0.036,0.19.036,0.2,0.18,0.22a5.594,5.594,0,0,0,.565.02,0.851,0.851,0,0,0,.906-0.77,8.416,8.416,0,0,0,.152-1.46c0.018-.32.036-0.62,0.054-0.94a0.066,0.066,0,0,0-.081-0.08c-0.044,0-.206.02-0.771,0.02h-1.381v-1.48h3.13a11.418,11.418,0,0,0,.736,3.63,6.923,6.923,0,0,1-2.225,1.91,1.531,1.531,0,0,1,.269.24,0.251,0.251,0,0,0,.153.13,0.275,0.275,0,0,0,.134-0.06,7.284,7.284,0,0,0,1.92-1.67c0.529,1.07,1.13,1.71,1.7,1.71,0.484,0,.771-0.44.87-1.41,0.018-.17.009-0.18-0.152-0.27a1.588,1.588,0,0,1-.314-0.24c-0.036.95-.189,1.29-0.431,1.29a2.4,2.4,0,0,1-1.318-1.57,9.953,9.953,0,0,0,1-1.81,2.489,2.489,0,0,1,.215-0.43,0.319,0.319,0,0,0,.108-0.17,0.151,0.151,0,0,0-.108-0.12,3.276,3.276,0,0,0-.5-0.19,3.2,3.2,0,0,1-.242.81,7.892,7.892,0,0,1-.7,1.33,10.853,10.853,0,0,1-.574-3.11h1.48Zm-0.583-1.73c-0.089.07-.08,0.1-0.018,0.14a3.688,3.688,0,0,1,.835.8c0.044,0.06.08,0.05,0.17-.03l0.188-.15c0.081-.07.081-0.1,0.036-0.15a4.506,4.506,0,0,0-.888-0.77c-0.054-.04-0.072-0.03-0.143.02Zm6.447,3.26c-0.87,0-1.157-.02-1.2-0.02-0.063,0-.072.01-0.072,0.08v0.39c0,0.07.009,0.08,0.072,0.08,0.045,0,.332-0.02,1.2-0.02h0.4a3.9,3.9,0,0,1-2.682,3.54,0.948,0.948,0,0,1,.287.3,0.189,0.189,0,0,0,.135.13,0.306,0.306,0,0,0,.125-0.04,4.385,4.385,0,0,0,2.7-3.93h2a16.613,16.613,0,0,1-.2,2.57,0.645,0.645,0,0,1-.69.68,5.8,5.8,0,0,1-1.023-.09,1.064,1.064,0,0,1,.179.42c0.036,0.2.036,0.2,0.216,0.21a5.452,5.452,0,0,0,.717.03,1.055,1.055,0,0,0,1.148-1.03,15.945,15.945,0,0,0,.216-2.28c0.018-.38.018-0.68,0.036-0.96a0.066,0.066,0,0,0-.081-0.08c-0.054,0-.341.02-1.22,0.02H322Zm0.681-3.04a0.159,0.159,0,0,0-.116-0.14,4.441,4.441,0,0,0-.574-0.22,2,2,0,0,1-.144.54,7.27,7.27,0,0,1-2.8,3.15,1.016,1.016,0,0,1,.314.3,0.209,0.209,0,0,0,.125.12,0.375,0.375,0,0,0,.135-0.08,8.459,8.459,0,0,0,2.825-3.38,0.455,0.455,0,0,1,.162-0.19A0.2,0.2,0,0,0,322.678,1489.13Zm1.211-.2c-0.089.04-.116,0.04-0.08,0.12a9.579,9.579,0,0,0,3.067,3.71,0.372,0.372,0,0,0,.126.07,0.226,0.226,0,0,0,.107-0.13,1.461,1.461,0,0,1,.314-0.36,7.725,7.725,0,0,1-3.121-3.53c-0.027-.07-0.036-0.08-0.144-0.03Zm6.761,1.25a0.622,0.622,0,0,0-.628.64,0.628,0.628,0,1,0,1.255,0A0.622,0.622,0,0,0,330.65,1490.18Zm0,3.66a0.629,0.629,0,0,0-.628.64,0.628,0.628,0,1,0,1.255,0A0.628,0.628,0,0,0,330.65,1493.84Zm5.921-3.54a3.734,3.734,0,0,1,.063-1c0.045-.14.081-0.24-0.063-0.27a3.443,3.443,0,0,0-.744-0.12,7.84,7.84,0,0,1,.1,1.45v4.02c0,0.55-.009,1.25-0.036,1.83a0.1,0.1,0,0,0,.126.13,3.484,3.484,0,0,0,.457,0c0.1,0,.126-0.03.117-0.12-0.009-.59-0.027-1.29-0.027-1.84v-2.1a9.8,9.8,0,0,1,2.61,1.21c0.081,0.06.117,0.04,0.171-.04a2.738,2.738,0,0,0,.215-0.44,0.1,0.1,0,0,0-.063-0.14,12.391,12.391,0,0,0-2.924-1.26v-1.31Zm9.055-.23c0.547,0,.924.01,1.336,0.01,0.1,0.01.117-.01,0.117-0.11a3.115,3.115,0,0,0,0-.41c0-.08-0.018-0.11-0.1-0.11-0.43.03-.825,0.05-1.39,0.05H344.2a11.186,11.186,0,0,1-1.462-.07,4.976,4.976,0,0,0,.045.55c0.009,0.1.026,0.13,0.107,0.12,0.4-.02.8-0.03,1.274-0.03h1.462Zm1.211,1.88a7.425,7.425,0,0,1-3.9,4.02,1.5,1.5,0,0,1,.5.28,0.174,0.174,0,0,0,.243.01,7.831,7.831,0,0,0,3.785-4.07,0.78,0.78,0,0,1,.206-0.31c0.1-.07.108-0.12,0.018-0.24a1.853,1.853,0,0,0-.332-0.33,0.185,0.185,0,0,0-.242-0.01,0.91,0.91,0,0,1-.44.07h-3.211a13.447,13.447,0,0,1-1.489-.07,4.072,4.072,0,0,0,.063.57,0.115,0.115,0,0,0,.135.12,11.98,11.98,0,0,1,1.264-.04h3.4Zm7.391,0.89a19.71,19.71,0,0,0,1.471-1.38,0.839,0.839,0,0,1,.233-0.17c0.117-.06.153-0.13,0.081-0.24a1.938,1.938,0,0,0-.287-0.33,0.146,0.146,0,0,0-.216-0.03,1.389,1.389,0,0,1-.7.08l-2.323.01a13.685,13.685,0,0,1-1.391-.06c0.018,0.22.054,0.43,0.081,0.58,0.018,0.09.054,0.1,0.144,0.1,0.314-.02.681-0.05,1.13-0.06l2.574-.03a13.057,13.057,0,0,1-1.749,1.56,17.929,17.929,0,0,1-3.2,1.87,1.2,1.2,0,0,1,.448.3,0.164,0.164,0,0,0,.233.02,19.9,19.9,0,0,0,2.844-1.75v1.45c0,0.61-.027,1.18-0.045,1.59,0,0.09.036,0.11,0.126,0.12a3.349,3.349,0,0,0,.448,0c0.09-.01.126-0.03,0.126-0.11-0.018-.4-0.027-0.97-0.027-1.6v-1.92Zm-1.525-3.57a10.221,10.221,0,0,1,1.857.81c0.08,0.07.125,0.05,0.17-.04,0.081-.12.162-0.24,0.215-0.34a0.1,0.1,0,0,0-.044-0.17,10.7,10.7,0,0,0-1.768-.74,0.125,0.125,0,0,0-.179.06Zm2.233,4.05a8.489,8.489,0,0,1,2.019,1.25c0.089,0.06.107,0.07,0.17,0,0.1-.12.188-0.27,0.269-0.39,0.045-.08.027-0.11-0.045-0.17a10.333,10.333,0,0,0-2-1.13c-0.072-.03-0.09-0.03-0.135.03C355.152,1493,355.044,1493.17,354.936,1493.32Zm7.373-2.51-1.023.17c-0.556.09-1,.15-1.462,0.18,0.036,0.14.117,0.42,0.162,0.54a0.093,0.093,0,0,0,.134.07,12.826,12.826,0,0,1,1.256-.26l1.05-.17,0.314,1.5-1.48.25c-0.566.1-1.023,0.17-1.525,0.22,0.044,0.17.107,0.38,0.161,0.53a0.106,0.106,0,0,0,.162.08c0.394-.09.8-0.19,1.327-0.28l1.462-.26,0.269,1.28c0.108,0.51.216,1.05,0.287,1.45a0.092,0.092,0,0,0,.135.09,2.35,2.35,0,0,0,.43-0.1,0.1,0.1,0,0,0,.072-0.14c-0.108-.43-0.233-0.93-0.341-1.46l-0.26-1.24,1.48-.27c0.485-.09.951-0.17,1.31-0.22a0.111,0.111,0,0,0,.089-0.14c-0.026-.13-0.053-0.26-0.089-0.4-0.018-.06-0.036-0.08-0.117-0.06-0.368.1-.789,0.19-1.291,0.28l-1.5.27-0.305-1.47,1.049-.19c0.413-.07.942-0.16,1.363-0.23,0.081-.01.1-0.04,0.09-0.1a3.646,3.646,0,0,0-.1-0.43,0.073,0.073,0,0,0-.1-0.06c-0.431.11-.933,0.2-1.382,0.28l-1.04.19-0.144-.77a1.807,1.807,0,0,1-.035-0.74,0.128,0.128,0,0,0-.144-0.16,3.2,3.2,0,0,0-.753.01,3.245,3.245,0,0,1,.323.96Zm11.606,0.37,0.009-.83a2.91,2.91,0,0,1,.072-0.97c0.054-.13.045-0.21-0.09-0.24a4.772,4.772,0,0,0-.673-0.12,7.63,7.63,0,0,1,.081,1.35l-0.009.81h-2.287v-0.74a3.342,3.342,0,0,1,.072-0.91c0.053-.11.089-0.21-0.045-0.25a3.573,3.573,0,0,0-.727-0.11,6.1,6.1,0,0,1,.1,1.27v0.74h-0.458c-0.574,0-1.049-.01-1.515-0.04,0.009,0.2.017,0.39,0.035,0.52,0.018,0.1.018,0.13,0.1,0.12,0.386-.02.906-0.03,1.381-0.03h0.458v0.46c0,0.51-.018.97-0.036,1.43,0,0.09.027,0.11,0.108,0.11a3.348,3.348,0,0,0,.448,0c0.081,0,.108-0.02.108-0.1-0.018-.48-0.027-0.95-0.027-1.46v-0.44h2.287a5.085,5.085,0,0,1-.547,2.55,3.9,3.9,0,0,1-2.4,1.68,1.438,1.438,0,0,1,.467.35c0.08,0.08.107,0.06,0.242,0.01a4.132,4.132,0,0,0,2.206-1.74,5.643,5.643,0,0,0,.637-2.85h0.341c0.5,0,.978-0.01,1.435.01,0.1,0,.117-0.02.117-0.11a2.819,2.819,0,0,0,0-.39c0-.08-0.009-0.11-0.108-0.11-0.493.03-.951,0.03-1.453,0.03h-0.323Zm6.5-2a5.419,5.419,0,0,1-.278,1.39c-0.305,1-.96,2.77-1.606,4.31a6.3,6.3,0,0,1-1.058.01,6.107,6.107,0,0,0,.215.75c0.054,0.13.162,0.12,0.287,0.04a2.558,2.558,0,0,1,.915-0.17c1.588-.18,3-0.33,4.413-0.55,0.135,0.25.26,0.52,0.377,0.77,0.045,0.1.09,0.12,0.161,0.08,0.126-.06.261-0.13,0.395-0.21a0.123,0.123,0,0,0,.045-0.18,13.17,13.17,0,0,0-1.74-2.8c-0.054-.07-0.09-0.1-0.18-0.04-0.134.07-.278,0.17-0.421,0.25a10.222,10.222,0,0,1,1.085,1.58c-1.184.18-2.61,0.31-3.821,0.41,0.628-1.43,1.238-3.07,1.677-4.39a1.821,1.821,0,0,1,.323-0.66c0.1-.12.09-0.22,0.009-0.27A2.961,2.961,0,0,0,380.419,1489.18Zm9.533-.12c0-.06-0.009-0.07-0.071-0.07-0.045,0-.287.02-1.041,0.02h-1.462c-0.753,0-.987-0.02-1.031-0.02-0.063,0-.072.01-0.072,0.07v0.35c0,0.06.009,0.07,0.072,0.07,0.044,0,.278-0.02,1.031-0.02h0.1v1.1c-0.61,0-.825-0.01-0.87-0.01-0.063,0-.072,0-0.072.07,0,0.05.018,0.42,0.018,1.89v1.53c0,2.04-.018,2.4-0.018,2.45s0.009,0.06.072,0.06h0.323c0.062,0,.071,0,0.071-0.06v-0.81h2.153v0.3c0,0.06.009,0.07,0.072,0.07h0.314c0.063,0,.072-0.01.072-0.07s-0.018-.31-0.018-2.25v-1.54c0-1.18.018-1.52,0.018-1.57,0-.07-0.009-0.07-0.072-0.07s-0.269.01-.852,0.01v-1.1h0.152c0.754,0,1,.02,1.041.02,0.062,0,.071-0.01.071-0.07v-0.35Zm-0.8,4.92H387v-0.68a0.957,0.957,0,0,1,.207.18,0.136,0.136,0,0,0,.08.07,0.167,0.167,0,0,0,.081-0.09,2.887,2.887,0,0,0,.44-1.25c0.018-.22.045-0.67,0.053-1.24h0.44v1.54a0.613,0.613,0,0,0,.17.52,0.682,0.682,0,0,0,.467.13h0.215v0.82Zm0,1.24H387v-0.79h2.153v0.79Zm-1.677-4.25c0,0.34-.009.71-0.045,1.08a2.152,2.152,0,0,1-.431,1.24v-2.32h0.476Zm1.677,1.74H389a0.256,0.256,0,0,1-.26-0.1,0.626,0.626,0,0,1-.063-0.35v-1.29h0.475v1.74Zm-0.852-2.15h-0.44v-1.1h0.44v1.1Zm3.256,2.58,0.135-.26a1.189,1.189,0,0,1,.2-0.3,0.187,0.187,0,0,0,.081-0.13,0.129,0.129,0,0,0-.108-0.1,2.6,2.6,0,0,0-.448-0.14,1.848,1.848,0,0,1-.207.64,5.075,5.075,0,0,1-1.543,1.87,0.784,0.784,0,0,1,.225.2,0.2,0.2,0,0,0,.116.12,0.242,0.242,0,0,0,.135-0.09,5.572,5.572,0,0,0,.825-0.85,4.621,4.621,0,0,0,.745,1.09,5.134,5.134,0,0,1-2.288,1.1,0.8,0.8,0,0,1,.224.3c0.045,0.1.063,0.14,0.117,0.14a0.605,0.605,0,0,0,.144-0.04,5.763,5.763,0,0,0,2.161-1.16,5.845,5.845,0,0,0,1.983,1.07,0.682,0.682,0,0,0,.134.04c0.045,0,.072-0.04.108-0.15a1.144,1.144,0,0,1,.215-0.38,5.92,5.92,0,0,1-2.081-.92,5.689,5.689,0,0,0,.915-1.35,0.626,0.626,0,0,1,.161-0.24,0.16,0.16,0,0,0,.09-0.12,0.434,0.434,0,0,0-.152-0.22,0.425,0.425,0,0,0-.243-0.18,0.16,0.16,0,0,0-.08.03,0.4,0.4,0,0,1-.189.03h-1.372Zm1.363,0.42a4.232,4.232,0,0,1-.861,1.31,4.126,4.126,0,0,1-.816-1.17l0.081-.14h1.6Zm-0.287-4.27c-0.08.06-.089,0.08-0.035,0.13a5.752,5.752,0,0,1,.529.53c-0.7.07-1.31,0.13-1.983,0.17,0.162-.3.27-0.51,0.413-0.79a2.382,2.382,0,0,1,.206-0.36,0.17,0.17,0,0,0,.081-0.12,0.133,0.133,0,0,0-.126-0.12,2.229,2.229,0,0,0-.475-0.15,2.533,2.533,0,0,1-.161.6,9.065,9.065,0,0,1-.458.97,5.079,5.079,0,0,1-.78-0.01c0.027,0.18.063,0.32,0.107,0.5a0.106,0.106,0,0,0,.09.09,0.209,0.209,0,0,0,.126-0.04,0.7,0.7,0,0,1,.35-0.06c1.1-.08,1.946-0.17,2.924-0.29,0.116,0.16.224,0.32,0.332,0.49a0.09,0.09,0,0,0,.062.05,0.284,0.284,0,0,0,.108-0.05l0.2-.13c0.1-.07.1-0.09,0.054-0.15a6.8,6.8,0,0,0-1.265-1.39c-0.044-.04-0.062-0.05-0.134,0Zm0.054,2.04a1.038,1.038,0,0,1,.045-0.4,0.172,0.172,0,0,0,.036-0.1,0.093,0.093,0,0,0-.09-0.09l-0.5-.05a3.818,3.818,0,0,1,.036.65v0.47a0.526,0.526,0,0,0,.2.5,1.464,1.464,0,0,0,.772.11,1.5,1.5,0,0,0,.762-0.1,0.864,0.864,0,0,0,.341-0.68,0.164,0.164,0,0,0-.117-0.23,0.966,0.966,0,0,1-.278-0.19,0.774,0.774,0,0,1-.224.69,1.045,1.045,0,0,1-.484.06,0.664,0.664,0,0,1-.422-0.07,0.265,0.265,0,0,1-.072-0.24v-0.33Zm-1.193-.32c0-.03-0.027-0.05-0.116-0.09-0.117-.03-0.269-0.07-0.449-0.1a1.2,1.2,0,0,1-.072.47,1.72,1.72,0,0,1-1.219,1.2,0.885,0.885,0,0,1,.215.24,0.212,0.212,0,0,0,.134.15,0.243,0.243,0,0,0,.126-0.05,2.244,2.244,0,0,0,1.2-1.4,1.115,1.115,0,0,1,.143-0.32A0.108,0.108,0,0,0,391.5,1491.01Zm4.689,5.8,7.7-8.03-0.332-.32-7.7,8.03Zm13.362-7.69c0-.07-0.009-0.07-0.081-0.07-0.045,0-.3.01-1.094,0.01h-1.624c-0.8,0-1.049-.01-1.094-0.01-0.063,0-.072,0-0.072.07v0.35c0,0.06.009,0.07,0.072,0.07,0.045,0,.3-0.02,1.094-0.02h0.162v1.1c-0.664,0-.888-0.02-0.942-0.02s-0.072.01-.072,0.07,0.018,0.43.018,1.92v1.51c0,2.13-.018,2.48-0.018,2.54s0.009,0.06.072,0.06H406.3c0.062,0,.071,0,0.071-0.06v-0.55h2.4v0.34c0,0.06.009,0.07,0.072,0.07h0.332c0.063,0,.072-0.01.072-0.07s-0.018-.4-0.018-2.46v-1.62c0-1.26.018-1.62,0.018-1.68s-0.009-.07-0.072-0.07-0.287.02-.978,0.02v-1.1h0.171c0.8,0,1.049.02,1.094,0.02,0.072,0,.081-0.01.081-0.07v-0.35Zm-0.772,5.14h-2.4v-3.22h0.539a7.281,7.281,0,0,1-.045,1.03,2.4,2.4,0,0,1-.449,1.29,0.957,0.957,0,0,1,.233.22,0.138,0.138,0,0,0,.09.08,0.109,0.109,0,0,0,.072-0.07,2.908,2.908,0,0,0,.448-1.3,10.4,10.4,0,0,0,.054-1.25H407.8v1.56a0.677,0.677,0,0,0,.17.55,0.738,0.738,0,0,0,.457.11h0.35v1Zm0,1.36h-2.4v-0.91h2.4v0.91Zm0-2.82h-0.251a0.336,0.336,0,0,1-.287-0.1,0.877,0.877,0,0,1-.036-0.4v-1.26h0.574v1.76Zm-0.977-2.18h-0.485v-1.1H407.8v1.1Zm5.83-.4c0-.06-0.009-0.07-0.063-0.07s-0.305.02-1.094,0.02h-1.713c0.134-.31.242-0.61,0.34-0.9a1.015,1.015,0,0,1,.171-0.37,0.154,0.154,0,0,0,.054-0.13,0.141,0.141,0,0,0-.108-0.09,3.5,3.5,0,0,0-.52-0.13,2.986,2.986,0,0,1-.117.6,6.49,6.49,0,0,1-1.3,2.48,0.991,0.991,0,0,1,.287.21,0.237,0.237,0,0,0,.134.09,0.207,0.207,0,0,0,.117-0.1,6.931,6.931,0,0,0,.708-1.17h0.5v4.53c0,0.95-.018,1.36-0.018,1.41s0.009,0.07.071,0.07h0.413c0.072,0,.081-0.01.081-0.07s-0.018-.46-0.018-1.41v-0.82h0.978c0.538,0,.69.02,0.735,0.02,0.063,0,.072-0.01.072-0.08v-0.39c0-.05-0.009-0.06-0.072-0.06-0.045,0-.2.02-0.735,0.02h-0.978v-1.39h0.96c0.538,0,.69.02,0.735,0.02,0.063,0,.072-0.01.072-0.08v-0.38c0-.06-0.009-0.07-0.072-0.07-0.045,0-.2.02-0.735,0.02h-0.96v-1.34h0.915c0.789,0,1.04.02,1.094,0.02s0.063-.01.063-0.07v-0.39Zm5.271-1.16c0-.06-0.009-0.07-0.072-0.07-0.044,0-.287.02-1.04,0.02h-1.462c-0.754,0-.987-0.02-1.032-0.02-0.062,0-.071.01-0.071,0.07v0.35c0,0.06.009,0.07,0.071,0.07,0.045,0,.278-0.02,1.032-0.02h0.1v1.1c-0.61,0-.826-0.01-0.87-0.01-0.063,0-.072,0-0.072.07,0,0.05.018,0.42,0.018,1.89v1.53c0,2.04-.018,2.4-0.018,2.45s0.009,0.06.072,0.06h0.322c0.063,0,.072,0,0.072-0.06v-0.81H418.1v0.3c0,0.06.009,0.07,0.072,0.07h0.314c0.062,0,.071-0.01.071-0.07s-0.018-.31-0.018-2.25v-1.54c0-1.18.018-1.52,0.018-1.57,0-.07-0.009-0.07-0.071-0.07s-0.269.01-.853,0.01v-1.1h0.153c0.753,0,1,.02,1.04.02,0.063,0,.072-0.01.072-0.07v-0.35Zm-0.8,4.92h-2.153v-0.68a0.933,0.933,0,0,1,.206.18,0.137,0.137,0,0,0,.081.07,0.167,0.167,0,0,0,.081-0.09,2.873,2.873,0,0,0,.439-1.25c0.018-.22.045-0.67,0.054-1.24h0.44v1.54a0.613,0.613,0,0,0,.17.52,0.682,0.682,0,0,0,.467.13H418.1v0.82Zm0,1.24h-2.153v-0.79H418.1v0.79Zm-1.677-4.25c0,0.34-.009.71-0.045,1.08a2.152,2.152,0,0,1-.431,1.24v-2.32h0.476Zm1.677,1.74h-0.153a0.258,0.258,0,0,1-.26-0.1,0.627,0.627,0,0,1-.062-0.35v-1.29H418.1v1.74Zm-0.852-2.15h-0.44v-1.1h0.44v1.1Zm3.256,2.58,0.134-.26a1.214,1.214,0,0,1,.2-0.3,0.186,0.186,0,0,0,.08-0.13,0.129,0.129,0,0,0-.107-0.1,2.589,2.589,0,0,0-.449-0.14,1.842,1.842,0,0,1-.206.64,5.075,5.075,0,0,1-1.543,1.87,0.766,0.766,0,0,1,.224.2,0.206,0.206,0,0,0,.117.12,0.242,0.242,0,0,0,.135-0.09,5.62,5.62,0,0,0,.825-0.85,4.648,4.648,0,0,0,.744,1.09,5.124,5.124,0,0,1-2.287,1.1,0.805,0.805,0,0,1,.224.3c0.045,0.1.063,0.14,0.117,0.14a0.588,0.588,0,0,0,.143-0.04,5.768,5.768,0,0,0,2.162-1.16A5.85,5.85,0,0,0,423,1496.6a0.706,0.706,0,0,0,.135.04c0.045,0,.072-0.04.108-0.15a1.127,1.127,0,0,1,.215-0.38,5.92,5.92,0,0,1-2.081-.92,5.689,5.689,0,0,0,.915-1.35,0.615,0.615,0,0,1,.161-0.24,0.16,0.16,0,0,0,.09-0.12,0.432,0.432,0,0,0-.153-0.22,0.421,0.421,0,0,0-.242-0.18,0.156,0.156,0,0,0-.08.03,0.4,0.4,0,0,1-.189.03H420.5Zm1.363,0.42a4.232,4.232,0,0,1-.861,1.31,4.126,4.126,0,0,1-.816-1.17l0.081-.14h1.6Zm-0.287-4.27c-0.081.06-.09,0.08-0.036,0.13a5.641,5.641,0,0,1,.53.53c-0.7.07-1.31,0.13-1.983,0.17,0.162-.3.269-0.51,0.413-0.79a2.3,2.3,0,0,1,.206-0.36,0.17,0.17,0,0,0,.081-0.12,0.133,0.133,0,0,0-.126-0.12,2.229,2.229,0,0,0-.475-0.15,2.494,2.494,0,0,1-.162.6,8.846,8.846,0,0,1-.457.97,5.079,5.079,0,0,1-.78-0.01,4.954,4.954,0,0,0,.107.5,0.106,0.106,0,0,0,.09.09,0.209,0.209,0,0,0,.126-0.04,0.694,0.694,0,0,1,.349-0.06c1.1-.08,1.947-0.17,2.924-0.29,0.117,0.16.225,0.32,0.332,0.49a0.094,0.094,0,0,0,.063.05,0.284,0.284,0,0,0,.108-0.05l0.2-.13c0.1-.07.1-0.09,0.054-0.15a6.8,6.8,0,0,0-1.265-1.39c-0.045-.04-0.063-0.05-0.134,0Zm0.054,2.04a1.038,1.038,0,0,1,.045-0.4,0.172,0.172,0,0,0,.036-0.1,0.093,0.093,0,0,0-.09-0.09l-0.5-.05a3.818,3.818,0,0,1,.036.65v0.47a0.524,0.524,0,0,0,.2.5,1.462,1.462,0,0,0,.771.11,1.5,1.5,0,0,0,.763-0.1,0.864,0.864,0,0,0,.341-0.68,0.164,0.164,0,0,0-.117-0.23,0.952,0.952,0,0,1-.278-0.19,0.774,0.774,0,0,1-.224.69,1.05,1.05,0,0,1-.485.06,0.663,0.663,0,0,1-.421-0.07,0.265,0.265,0,0,1-.072-0.24v-0.33Zm-1.193-.32c0-.03-0.027-0.05-0.117-0.09-0.116-.03-0.269-0.07-0.448-0.1a1.2,1.2,0,0,1-.072.47,1.719,1.719,0,0,1-1.22,1.2,0.872,0.872,0,0,1,.216.24,0.21,0.21,0,0,0,.134.15,0.243,0.243,0,0,0,.126-0.05,2.247,2.247,0,0,0,1.2-1.4,1.062,1.062,0,0,1,.143-0.32A0.108,0.108,0,0,0,420.441,1491.01Zm4.823-1.77v6.66h1.919a3.02,3.02,0,0,0,3.256-3.36c0-2.24-1.184-3.3-3.13-3.3h-2.045Zm0.78,0.65h1.184c1.48,0,2.386.78,2.386,2.66s-0.986,2.71-2.457,2.71h-1.113v-5.37Zm7.362-.65h-0.781v6.66h4.055v-0.67h-3.274v-5.99Zm7.394,3.79h-2.494v0.61H440.8v-0.61Zm7.01-1.74h-0.727l-0.35,1.25a1.2,1.2,0,0,0-1.238-1.35,2.764,2.764,0,0,0-2.421,2.93c0,1.27.592,1.9,1.587,1.9a1.943,1.943,0,0,0,1.669-1.36l0.054,0.53a0.788,0.788,0,0,0,.914.83,3.171,3.171,0,0,0,.332-0.03l0.162-.55a1.216,1.216,0,0,1-.332.03c-0.3,0-.449-0.13-0.476-0.54l-0.071-1.26Zm-1.552,2.37c-0.466,1.28-.978,1.81-1.525,1.81-0.574,0-.924-0.38-0.924-1.36,0-1.19.79-2.37,1.651-2.37C446.034,1491.74,446.258,1492.01,446.258,1493.66Zm6.281-.63h-2.494v0.61h2.494v-0.61Zm7.624-2.73a3.8,3.8,0,0,1,.062-1c0.045-.14.081-0.24-0.062-0.27a3.466,3.466,0,0,0-.745-0.12,7.73,7.73,0,0,1,.1,1.45v4.02c0,0.55-.009,1.25-0.036,1.83,0,0.1.027,0.13,0.125,0.13a3.5,3.5,0,0,0,.458,0c0.1,0,.125-0.03.117-0.12-0.009-.59-0.027-1.29-0.027-1.84v-2.1a9.8,9.8,0,0,1,2.61,1.21c0.081,0.06.116,0.04,0.17-.04a2.655,2.655,0,0,0,.216-0.44,0.1,0.1,0,0,0-.063-0.14,12.409,12.409,0,0,0-2.924-1.26v-1.31Zm10.453,4.03H467.36c-0.574,0-1.067-.01-1.525-0.04a5.317,5.317,0,0,0,.027.57c0.009,0.09.027,0.12,0.1,0.11q0.633-.03,1.4-0.03h3.256v0.39c0,0.11.018,0.12,0.126,0.12a3.215,3.215,0,0,0,.439,0c0.09,0,.108-0.02.108-0.11-0.009-.37-0.027-0.98-0.027-1.52v-1.96c0-.47.009-0.92,0.018-1.34,0.009-.11-0.027-0.14-0.143-0.14-0.494.01-1.014,0.03-1.507,0.03h-2.279c-0.529,0-.915-0.01-1.444-0.05,0,0.17.009,0.43,0.027,0.58a0.106,0.106,0,0,0,.126.12c0.376-.03.771-0.05,1.3-0.05h3.256v3.32Zm8.971-3.69a8.61,8.61,0,0,1-1.687,2.89,8.739,8.739,0,0,1-2.9,2.23,1.519,1.519,0,0,1,.467.31,0.212,0.212,0,0,0,.3.01,9.82,9.82,0,0,0,4.423-5.14,0.793,0.793,0,0,1,.2-0.3,0.194,0.194,0,0,0,.027-0.28,2.266,2.266,0,0,0-.4-0.38,0.218,0.218,0,0,0-.233,0,0.855,0.855,0,0,1-.449.08H476.16a15.232,15.232,0,0,1-1.722-.08c0.009,0.16.036,0.44,0.045,0.57a0.13,0.13,0,0,0,.161.14c0.485-.04.978-0.05,1.507-0.05h3.436Zm6.157,1.93h0.574c0.394,0,.789.01,1.193,0.02,0.089,0,.116-0.02.116-0.11a2.271,2.271,0,0,0,0-.35c0-.08-0.018-0.11-0.1-0.11-0.431.01-.79,0.03-1.211,0.03h-1.812c-0.386,0-.772-0.02-1.184-0.05,0.009,0.18.018,0.36,0.036,0.48a0.106,0.106,0,0,0,.116.12c0.377-.02.7-0.02,1.05-0.02h0.628v2.52h-1.158c-0.466,0-.834-0.01-1.291-0.04a3.442,3.442,0,0,0,.027.49c0.009,0.09.036,0.12,0.107,0.12,0.368-.02.727-0.04,1.157-0.04h2.916c0.421,0,.843.01,1.282,0.02,0.081,0,.1-0.03.108-0.13v-0.34c-0.009-.08-0.027-0.11-0.1-0.11-0.448.02-.852,0.03-1.3,0.03h-1.157v-2.53Zm10.111,2.25v0.53c0,0.09.009,0.12,0.089,0.12h0.467c0.09,0,.116-0.03.116-0.13-0.017-.46-0.044-1.08-0.044-1.78v-1.81c0-.49.009-0.97,0.018-1.43,0-.1-0.018-0.13-0.108-0.13-0.466.02-1.05,0.02-1.588,0.02h-1.973c-0.5,0-.987,0-1.444-0.02a0.082,0.082,0,0,0-.1.1c0.018,0.49.018,0.97,0.018,1.45v1.78c0,0.77-.009,1.36-0.036,1.93,0,0.09.027,0.11,0.126,0.12,0.125,0.01.305,0,.421,0s0.126-.03.126-0.14v-0.61h3.911Zm0-.58h-3.92v-3.45h3.92v3.45Zm8.458-1.2c0.6,0,1.265,0,1.937.02,0.108,0.01.135-.01,0.135-0.11a4.09,4.09,0,0,0,0-.47c0-.1-0.027-0.12-0.135-0.11-0.681.02-1.345,0.03-1.964,0.03h-2.754a16.763,16.763,0,0,1-1.982-.08,5.247,5.247,0,0,0,.09.68,0.147,0.147,0,0,0,.152.13,7.324,7.324,0,0,1,1.211-.09h3.31Zm8.654-1.74a4.379,4.379,0,0,1,.081-1.2c0.054-.12.081-0.21-0.054-0.26-0.162-.04-0.5-0.09-0.745-0.12a8.15,8.15,0,0,1,.09,1.58v2.57a4.551,4.551,0,0,1-.036.89,0.258,0.258,0,0,0,.018.23,1.759,1.759,0,0,0,.35.35,0.159,0.159,0,0,0,.242-0.01,1.1,1.1,0,0,1,.3-0.19,16.535,16.535,0,0,0,1.552-1.02,12.164,12.164,0,0,0,1.417-1.26,0.18,0.18,0,0,0,.054-0.24,1.5,1.5,0,0,1-.152-0.57,8.164,8.164,0,0,1-1.588,1.51,11.26,11.26,0,0,1-1.525.96v-3.22Zm-2.61-1.02a3.777,3.777,0,0,1,.081.94,5.3,5.3,0,0,1-.485,2.34,4.229,4.229,0,0,1-1.444,1.68,1.366,1.366,0,0,1,.475.23,0.176,0.176,0,0,0,.252-0.04,4.752,4.752,0,0,0,1.282-1.6,5.871,5.871,0,0,0,.556-2.48,2.21,2.21,0,0,1,.09-0.71c0.045-.1.036-0.19-0.063-0.22A3.151,3.151,0,0,0,510.357,1490.28Zm11.916-1.24c0-.07-0.008-0.08-0.071-0.08-0.045,0-.3.02-1.1,0.02h-1.659c-0.8,0-1.049-.02-1.094-0.02-0.063,0-.072.01-0.072,0.08v0.35c0,0.06.009,0.07,0.072,0.07,0.045,0,.3-0.02,1.094-0.02h0.188v1.11c-0.672,0-.906-0.02-0.95-0.02-0.063,0-.072.01-0.072,0.07,0,0.04.018,0.41,0.018,1.91v1.51c0,2.13-.018,2.48-0.018,2.53,0,0.07.009,0.08,0.072,0.08h0.34c0.054,0,.063-0.01.063-0.08v-0.53h2.4v0.35c0,0.07.009,0.08,0.072,0.08H521.9c0.063,0,.072-0.01.072-0.08,0-.04-0.018-0.39-0.018-2.45v-1.64c0-1.27.018-1.64,0.018-1.68,0-.06-0.009-0.07-0.072-0.07s-0.287.02-.951,0.02v-1.11h0.161c0.79,0,1.05.02,1.1,0.02,0.063,0,.071-0.01.071-0.07v-0.35Zm-0.78,5.14h-2.4v-3.22h0.547a9.878,9.878,0,0,1-.044,1.12,2.158,2.158,0,0,1-.44,1.21,0.568,0.568,0,0,1,.215.24,0.128,0.128,0,0,0,.081.07,0.14,0.14,0,0,0,.09-0.07,3,3,0,0,0,.448-1.31,8.9,8.9,0,0,0,.054-1.26h0.5v1.47a0.789,0.789,0,0,0,.162.6,0.626,0.626,0,0,0,.439.14c0.126,0,.234,0,0.35-0.01v1.02Zm0,1.37h-2.4v-0.92h2.4v0.92Zm0-2.85a1.679,1.679,0,0,1-.224.01,0.251,0.251,0,0,1-.278-0.1,0.671,0.671,0,0,1-.045-0.38v-1.27h0.547v1.74Zm-0.951-2.15h-0.5v-1.11h0.5v1.11Zm2.745,1.86h1.991v0.4c0,0.07.009,0.08,0.072,0.08h0.413c0.063,0,.071-0.01.071-0.08,0-.04-0.017-0.28-0.017-0.95v-1.87c0-.67.017-0.91,0.017-0.95,0-.07-0.008-0.08-0.071-0.08s-0.269.02-.942,0.02h-1.05c-0.672,0-.87-0.02-0.923-0.02s-0.072.01-.072,0.08v0.4c0,0.06.009,0.07,0.072,0.07s0.251-.02.923-0.02h1.507v2.41h-1.56c-0.6,0-.861-0.02-0.906-0.02-0.072,0-.081.01-0.081,0.07s0.018,0.34.018,1v2.54a0.864,0.864,0,0,0,.206.74,2.157,2.157,0,0,0,1.319.21,2.43,2.43,0,0,0,1.525-.29,1.6,1.6,0,0,0,.412-1.14c0.018-.18.018-0.18-0.161-0.25a1.042,1.042,0,0,1-.341-0.18,1.865,1.865,0,0,1-.278,1.15,1.761,1.761,0,0,1-1.13.2,1.68,1.68,0,0,1-.933-0.13,0.887,0.887,0,0,1-.081-0.54v-2.85Zm11.138,1.75c0-.61.018-0.84,0.018-0.89s-0.009-.07-0.081-0.07c-0.045,0-.35.02-1.229,0.02h-2.512c-0.879,0-1.184-.02-1.237-0.02s-0.072.01-.072,0.07,0.018,0.28.018,1.02v0.73c0,1.31-.018,1.52-0.018,1.57s0.009,0.06.072,0.06h0.43c0.063,0,.072-0.01.072-0.06v-0.42h3.983v0.38c0,0.06.009,0.07,0.071,0.07h0.422c0.072,0,.081-0.01.081-0.07s-0.018-.26-0.018-1.56v-0.83Zm-0.556,1.53h-3.983v-1.98h3.983v1.98Zm-1.669-6.91a0.118,0.118,0,0,0,.063-0.11c0-.04-0.036-0.07-0.126-0.09a4.79,4.79,0,0,0-.556-0.11,1.933,1.933,0,0,1-.251.51,8.305,8.305,0,0,1-3.678,3.06,1.3,1.3,0,0,1,.279.32,0.181,0.181,0,0,0,.116.13,0.368,0.368,0,0,0,.135-0.06,9.554,9.554,0,0,0,3.65-3.16,8.717,8.717,0,0,0,3.795,3.11,0.259,0.259,0,0,0,.143.05,0.17,0.17,0,0,0,.117-0.14,1.234,1.234,0,0,1,.251-0.36,8.528,8.528,0,0,1-4.019-3.07Zm1.507,2.82c0-.06-0.009-0.07-0.072-0.07-0.045,0-.3.02-1.049,0.02h-1.435c-0.754,0-1-.02-1.05-0.02s-0.072.01-.072,0.07v0.39c0,0.06.009,0.07,0.072,0.07s0.3-.01,1.05-0.01h1.435c0.753,0,1,.01,1.049.01,0.063,0,.072-0.01.072-0.07v-0.39Z" transform="translate(-278.656 -1372.62)"/>
</svg>
