<svg id="head-block-02.svg" xmlns="http://www.w3.org/2000/svg" width="758.28" height="41.19" viewBox="0 0 758.28 41.19">
  <defs>
    <style>
      .cls-1 {
        fill: #1147b4;
      }

      .cls-1, .cls-3 {
        fill-rule: evenodd;
      }

      .cls-2 {
        fill: #1e9fe0;
        opacity: 0.2;
      }
    </style>
  </defs>
  <path id="_50_" data-name="50%" class="cls-1" d="M441.58,1783.39H427.023l-5.222,17.85a14.563,14.563,0,0,1,3.112-1.58,10.888,10.888,0,0,1,4.114-.75,8.26,8.26,0,0,1,5.749,1.96,7.513,7.513,0,0,1,2.11,5.73,8.205,8.205,0,0,1-2.268,5.98,7.446,7.446,0,0,1-5.38,1.96,7.536,7.536,0,0,1-7.279-4.29l-4.061,3.39a12.772,12.772,0,0,0,4.167,4.08,13.063,13.063,0,0,0,6.751,1.59c3.587,0,6.962-.85,9.757-3.6a12.723,12.723,0,0,0,3.587-9.38c0-4.61-1.741-7.42-3.428-9.06a11.588,11.588,0,0,0-8.123-3.13c-0.527,0-1.107.06-1.635,0.11l1.741-5.88H441.58v-4.98Zm16.093,35.92a10.124,10.124,0,0,0,7.965-3.81c3.692-4.24,4.483-9.8,4.483-14.41,0-4.56-.791-10.23-4.483-14.47a10.23,10.23,0,0,0-15.929,0c-3.692,4.24-4.483,9.91-4.483,14.47,0,4.61.791,10.17,4.483,14.41A10.122,10.122,0,0,0,457.673,1819.31Zm0-31.74a5.641,5.641,0,0,1,4.747,2.92c1.952,2.91,2.426,7.47,2.426,10.54,0,3.13-.474,7.63-2.426,10.6a5.326,5.326,0,0,1-9.493,0c-1.952-2.97-2.427-7.47-2.427-10.6,0-3.07.475-7.63,2.427-10.54A5.641,5.641,0,0,1,457.673,1787.57Zm21.69,13.32a4.161,4.161,0,1,0,4.25,4.16A4.232,4.232,0,0,0,479.363,1800.89Zm0,6.41a2.256,2.256,0,1,1,2.191-2.25A2.193,2.193,0,0,1,479.363,1807.3Zm-0.079,10.95,1.241,0.77,10.055-17.55-1.24-.72Zm11.217-7.66a4.166,4.166,0,1,0,4.249,4.16A4.232,4.232,0,0,0,490.5,1810.59Zm0,6.42a2.256,2.256,0,1,1,2.191-2.26A2.2,2.2,0,0,1,490.5,1817.01Z" transform="translate(-320 -1782.81)"/>
  <rect id="長方形_978" data-name="長方形 978" class="cls-2" y="31.19" width="181" height="10"/>
  <rect id="長方形_978-2" data-name="長方形 978" class="cls-2" x="289" y="31.19" width="414" height="10"/>
  <path id="美容液" class="cls-1" d="M346.6,1806.99c2.57,0,3.436.06,3.609,0.06,0.318,0,.347-0.03.347-0.35v-2.03c0-.29-0.029-0.32-0.347-0.32-0.173,0-1.039.06-3.609,0.06h-7.623v-1.89h4.476c2.8,0,3.782.06,3.956,0.06,0.288,0,.317-0.03.317-0.32v-1.86c0-.29-0.029-0.32-0.317-0.32-0.174,0-1.156.06-3.956,0.06h-4.476v-1.71h5.833c2.772,0,3.7.06,3.869,0.06,0.289,0,.318-0.03.318-0.32v-1.94c0-.32-0.029-0.35-0.318-0.35-0.173,0-1.1.06-3.869,0.06H342.3c0.375-.53.75-1.08,1.039-1.54a1.85,1.85,0,0,1,.491-0.58,0.59,0.59,0,0,0,.318-0.47,0.454,0.454,0,0,0-.376-0.4,28.461,28.461,0,0,0-2.945-.64,8.046,8.046,0,0,1-.491,1.48,20.034,20.034,0,0,1-1.184,2.15H333.49l1.559-.73c0.4-.2.4-0.26,0.2-0.61a13.518,13.518,0,0,0-1.617-2.14c-0.2-.24-0.26-0.27-0.606-0.12l-1.935.87a0.371,0.371,0,0,0-.289.26,0.6,0.6,0,0,0,.2.32,14.92,14.92,0,0,1,1.386,2.15h-1.819c-2.8,0-3.725-.06-3.9-0.06-0.289,0-.318.03-0.318,0.35v1.94c0,0.29.029,0.32,0.318,0.32,0.173,0,1.1-.06,3.9-0.06h5.371v1.71H331.93c-2.8,0-3.782-.06-3.956-0.06-0.26,0-.288.03-0.288,0.32v1.86c0,0.29.028,0.32,0.288,0.32,0.174,0,1.155-.06,3.956-0.06h4.014v1.89h-7.19c-2.57,0-3.436-.06-3.609-0.06-0.289,0-.318.03-0.318,0.32v2.03c0,0.32.029,0.35,0.318,0.35,0.173,0,1.039-.06,3.609-0.06H346.6Zm-0.751,4.64c2.657,0,3.581.06,3.754,0.06,0.289,0,.318-0.03.318-0.32v-2c0-.29-0.029-0.32-0.318-0.32-0.173,0-1.1.06-3.754,0.06h-7.161a1.725,1.725,0,0,1,.26-0.7,0.724,0.724,0,0,0,.2-0.49c0-.24-0.2-0.35-0.548-0.41-0.838-.09-1.935-0.17-2.917-0.23a7.328,7.328,0,0,1-.058,1.83h-6.035c-2.685,0-3.609-.06-3.782-0.06-0.289,0-.318.03-0.318,0.32v2c0,0.29.029,0.32,0.318,0.32,0.173,0,1.1-.06,3.782-0.06H334.7a5.785,5.785,0,0,1-1.53,1.8c-1.848,1.51-5,2.38-8.663,2.81a7.055,7.055,0,0,1,1.04,1.92c0.231,0.61.289,0.78,0.635,0.78a3.16,3.16,0,0,0,.606-0.09,19.032,19.032,0,0,0,8.259-3.3,10.81,10.81,0,0,0,2.368-2.73c2.541,3.36,6.612,5.34,11.174,6.03,0.26,0.03.462,0.06,0.607,0.06,0.346,0,.375-0.17.635-0.78a7.615,7.615,0,0,1,1.068-2c-5.024-.41-8.778-1.92-10.972-4.5h5.919Zm14.112,2.41c0,3.74-.058,4.44-0.058,4.61,0,0.29.029,0.32,0.318,0.32h2.425c0.289,0,.318-0.03.318-0.32v-1.07H372.9v0.98c0,0.32.029,0.35,0.347,0.35h2.4c0.289,0,.318-0.03.318-0.35,0-.14-0.058-0.84-0.058-4.58v-3.37a34.79,34.79,0,0,0,3.263,1.54,1.646,1.646,0,0,0,.664.2c0.231,0,.289-0.2.462-0.75a6.568,6.568,0,0,1,1.04-2.15,24.5,24.5,0,0,1-11.81-7.04l0.058-.06a0.485,0.485,0,0,0,.288-0.35,0.425,0.425,0,0,0-.375-0.38,22.357,22.357,0,0,0-2.772-.55,9.729,9.729,0,0,1-1.617,2.26c-2.224,2.53-5.544,4.73-10.366,6.53a4.96,4.96,0,0,1,1.068,1.8c0.2,0.52.289,0.72,0.549,0.72a2.145,2.145,0,0,0,.693-0.23c1.01-.46,1.992-0.96,2.916-1.45v3.34Zm3-2.79H372.9v3.86h-9.933v-3.86Zm0.029-2.46a26.084,26.084,0,0,0,4.909-4.44,23.342,23.342,0,0,0,4.909,4.44h-9.818Zm6.266-13.72v-0.03a5.3,5.3,0,0,1,.144-1.71,2.77,2.77,0,0,0,.174-0.58c0-.12-0.145-0.24-0.463-0.27-0.981-.08-2.05-0.14-3.118-0.17a11.672,11.672,0,0,1,.231,2.76h-6.151c-2.685,0-3.638-.06-3.84-0.06-0.289,0-.318.03-0.318,0.32,0,0.2.058,0.64,0.058,1.56v0.93c0,2.41-.058,2.82-0.058,3.02,0,0.29.029,0.32,0.318,0.32h2.426c0.288,0,.317-0.03.317-0.32v-3.19h17.99v3.19c0,0.29.028,0.32,0.317,0.32h2.426c0.289,0,.317-0.03.317-0.32,0-.18-0.057-0.61-0.057-3.02v-1.13c0-.72.057-1.19,0.057-1.36,0-.29-0.028-0.32-0.317-0.32-0.2,0-1.155.06-3.841,0.06h-6.612Zm-6.295,3.45a7.374,7.374,0,0,1-1.213,1.51,14.228,14.228,0,0,1-5.14,3.16,5.239,5.239,0,0,1,1.415,1.59,0.977,0.977,0,0,0,.636.7,2.262,2.262,0,0,0,.693-0.29,21.244,21.244,0,0,0,5.053-3.89,3.458,3.458,0,0,1,.924-0.75,0.494,0.494,0,0,0,.4-0.38,0.419,0.419,0,0,0-.289-0.43A24.408,24.408,0,0,0,362.963,1798.52Zm7.652,1.22c-0.346.23-.346,0.29-0.144,0.52a20.614,20.614,0,0,0,6.554,4.87,1.554,1.554,0,0,0,.665.26,0.932,0.932,0,0,0,.49-0.72,10.952,10.952,0,0,1,1.1-1.83,15.637,15.637,0,0,1-6.584-4.06,0.341,0.341,0,0,0-.549-0.03Zm31.5,5.65a0.721,0.721,0,0,0-.26.29,0.458,0.458,0,0,0,.2.26,13.07,13.07,0,0,1,1.79,2.18c0.174,0.29.231,0.23,0.549-.03l1.068-.93c0.289-.26.318-0.32,0.116-0.58a12.56,12.56,0,0,0-1.848-2.06c-0.231-.2-0.318-0.17-0.607.06Zm1.1-4.12,0.26-.72a3.2,3.2,0,0,1,.491-0.99,0.664,0.664,0,0,0,.26-0.4c0-.18-0.145-0.29-0.462-0.35a18.431,18.431,0,0,0-2.6-.41,8.331,8.331,0,0,1-.347,1.63,19.293,19.293,0,0,1-4.908,7.8,4.954,4.954,0,0,1,1.212,1.33,1.016,1.016,0,0,0,.578.61,1.267,1.267,0,0,0,.606-0.46l0.809-.93a22.516,22.516,0,0,0,2.887,4.41,19.143,19.143,0,0,1-5.688,3.54,5.375,5.375,0,0,1,1.155,1.68c0.2,0.44.317,0.61,0.548,0.61a1.733,1.733,0,0,0,.636-0.2,21.593,21.593,0,0,0,5.255-3.72,23.831,23.831,0,0,0,5.948,3.72,2.366,2.366,0,0,0,.665.17c0.231,0,.317-0.2.49-0.75a7.109,7.109,0,0,1,.982-2,19,19,0,0,1-6.266-3.14,23.1,23.1,0,0,0,4.014-8.06,2.665,2.665,0,0,1,.52-1.25,0.571,0.571,0,0,0,.231-0.49,1.457,1.457,0,0,0-.664-1.02c-0.693-.72-0.9-0.78-1.1-0.78a0.664,0.664,0,0,0-.346.09,1.943,1.943,0,0,1-.664.08h-4.5Zm3.985,2.3a17.331,17.331,0,0,1-3.436,7.31,18.637,18.637,0,0,1-3.09-4.65,28.3,28.3,0,0,0,1.5-2.66h5.024Zm-14,11.51c0,2.29-.057,3.37-0.057,3.54,0,0.29.028,0.32,0.317,0.32h2.137c0.318,0,.346-0.03.346-0.32,0-.14-0.057-1.25-0.057-3.54V1804a27.466,27.466,0,0,0,1.588-3.02,2.9,2.9,0,0,1,.577-1.01,0.739,0.739,0,0,0,.26-0.49,0.46,0.46,0,0,0-.433-0.41,23.9,23.9,0,0,0-2.483-.64,9.026,9.026,0,0,1-.491,1.63,19.654,19.654,0,0,1-5.169,7.19,7.512,7.512,0,0,1,1.328,1.57,1.031,1.031,0,0,0,.491.58,1.123,1.123,0,0,0,.549-0.44c0.375-.41.751-0.87,1.126-1.3,0,0.84-.029,1.77-0.029,2.46v4.96Zm13.832-17.14c2.858,0,3.84.06,4.013,0.06,0.26,0,.289-0.03.289-0.32v-2.09c0-.26-0.029-0.29-0.289-0.29-0.173,0-1.155.06-4.013,0.06h-4.476v-0.7a4.257,4.257,0,0,1,.173-1.42,1.211,1.211,0,0,0,.145-0.49,0.411,0.411,0,0,0-.462-0.32c-0.924-.09-1.848-0.15-2.888-0.18a11.673,11.673,0,0,1,.2,2.41v0.7h-3.465c-2.83,0-3.811-.06-3.985-0.06-0.317,0-.346.03-0.346,0.29v2.09c0,0.29.029,0.32,0.346,0.32,0.174,0,1.155-.06,3.985-0.06h10.771Zm-21.859,18.8a15.746,15.746,0,0,0,2.108,1.47,1.08,1.08,0,0,0,.491.18,0.372,0.372,0,0,0,.317-0.41,6.488,6.488,0,0,1,.376-1.13,48.275,48.275,0,0,0,2.281-6.29c0.231-.84.231-0.84-0.549-1.42a10.026,10.026,0,0,1-1.5-1.34,42.262,42.262,0,0,1-2.253,6.64A18.671,18.671,0,0,1,385.16,1816.74Zm0.866-22.17a0.909,0.909,0,0,0-.2.32,0.345,0.345,0,0,0,.2.23,19.339,19.339,0,0,1,3.581,3.11c0.231,0.23.288,0.17,0.519-.09l1.329-1.71a0.724,0.724,0,0,0,.173-0.35,0.408,0.408,0,0,0-.173-0.26,21.623,21.623,0,0,0-3.61-2.93c-0.231-.17-0.317-0.14-0.548.15Zm-0.924,7.2a0.623,0.623,0,0,0-.173.35,0.309,0.309,0,0,0,.2.23,18.173,18.173,0,0,1,3.552,2.96c0.231,0.23.317,0.17,0.548-.15l1.213-1.77a0.714,0.714,0,0,0,.173-0.35,0.428,0.428,0,0,0-.173-0.26,22.12,22.12,0,0,0-3.58-2.7,0.372,0.372,0,0,0-.578.09Z" transform="translate(-320 -1782.81)"/>
  <path id="でできた" class="cls-3" d="M520.539,1804.87c-3.012,1.98-4.78,4.38-4.78,7.93,0,5.2,4.8,7.73,9.186,7.73,0.3,0,.4-0.15.473-0.53a8.924,8.924,0,0,0,.274-2.15c0-.28-0.149-0.38-0.547-0.38-4.332-.27-6.622-2.02-6.622-5.25,0-3,2.116-5.92,6.348-7.38a11.252,11.252,0,0,1,3.037-.55c0.323,0,.473-0.07.473-0.37a14.332,14.332,0,0,0-.274-2.2c-0.025-.18-0.149-0.33-0.523-0.28-6.423.85-11.9,1.68-14.961,2.13a35.15,35.15,0,0,1-3.959.42,17.827,17.827,0,0,0,.922,2.71,0.583,0.583,0,0,0,.473.37,1.366,1.366,0,0,0,.547-0.2c0.374-.12.623-0.17,1.569-0.4,2.663-.55,5.327-1.07,8.364-1.65v0.05Zm3.61,3.58a12.389,12.389,0,0,1,2.514,2.9,0.259,0.259,0,0,0,.423.07l1.046-.77a0.254,0.254,0,0,0,.075-0.4,11.436,11.436,0,0,0-2.365-2.68,0.26,0.26,0,0,0-.374-0.05Zm2.29-1.65a11.9,11.9,0,0,1,2.49,2.87,0.255,0.255,0,0,0,.423.08l1-.78a0.289,0.289,0,0,0,.074-0.45,10.483,10.483,0,0,0-2.365-2.57,0.249,0.249,0,0,0-.373-0.05Zm18.812-1.93c-3.012,1.98-4.78,4.38-4.78,7.93,0,5.2,4.8,7.73,9.186,7.73,0.3,0,.4-0.15.473-0.53a8.924,8.924,0,0,0,.274-2.15c0-.28-0.149-0.38-0.548-0.38-4.331-.27-6.621-2.02-6.621-5.25,0-3,2.116-5.92,6.348-7.38a11.252,11.252,0,0,1,3.037-.55c0.323,0,.473-0.07.473-0.37a14.332,14.332,0,0,0-.274-2.2c-0.025-.18-0.149-0.33-0.523-0.28-6.423.85-11.9,1.68-14.961,2.13a35.15,35.15,0,0,1-3.959.42,17.952,17.952,0,0,0,.921,2.71,0.586,0.586,0,0,0,.473.37,1.365,1.365,0,0,0,.548-0.2c0.374-.12.623-0.17,1.568-0.4,2.664-.55,5.328-1.07,8.365-1.65v0.05Zm3.61,3.58a12.389,12.389,0,0,1,2.514,2.9,0.259,0.259,0,0,0,.423.07l1.046-.77a0.253,0.253,0,0,0,.074-0.4,11.434,11.434,0,0,0-2.364-2.68,0.26,0.26,0,0,0-.374-0.05Zm2.29-1.65a11.871,11.871,0,0,1,2.489,2.87,0.256,0.256,0,0,0,.424.08l1-.78a0.289,0.289,0,0,0,.075-0.45,10.5,10.5,0,0,0-2.365-2.57,0.249,0.249,0,0,0-.373-0.05Zm14.331-3.58a45.24,45.24,0,0,1-6.2.4c0.149,0.8.323,1.73,0.4,2a0.419,0.419,0,0,0,.5.35,42.193,42.193,0,0,0,6.049-.6c0.324,0.7.7,1.55,0.946,2.08a43.864,43.864,0,0,1-6.7.62,12.521,12.521,0,0,0,.448,2.05,0.4,0.4,0,0,0,.448.35,58.572,58.572,0,0,0,6.821-.75,28.046,28.046,0,0,0,2.066,2.95,11.6,11.6,0,0,0-4.282-.62c-3.883,0-6.174,1.67-6.174,4.35,0,3.07,3.038,4.7,8.763,4.7,0.623,0,1.22-.02,1.793-0.07a0.472,0.472,0,0,0,.523-0.38,15.991,15.991,0,0,0,.5-2.28,0.252,0.252,0,0,0-.3-0.32c-0.9.05-1.818,0.15-2.739,0.15-3.809,0-5.925-.53-5.925-2.15,0-1.18,1.37-1.9,3.71-1.9a12.077,12.077,0,0,1,4.68.8,6.109,6.109,0,0,1,1.469.8,0.66,0.66,0,0,0,.348.15,0.529,0.529,0,0,0,.4-0.25,7.49,7.49,0,0,0,1.021-1.55,0.4,0.4,0,0,0-.124-0.6,18.789,18.789,0,0,1-3.262-4.33,31.236,31.236,0,0,0,4.208-1.22,0.311,0.311,0,0,0,.2-0.45,9.443,9.443,0,0,0-.448-1.65c-0.075-.23-0.2-0.28-0.448-0.15a29.731,29.731,0,0,1-4.531,1.3c-0.324-.7-0.647-1.48-0.872-2.11,1.693-.37,3.212-0.75,4.88-1.27a0.383,0.383,0,0,0,.3-0.45c-0.1-.5-0.274-1.2-0.424-1.68-0.074-.2-0.2-0.22-0.423-0.12a38.7,38.7,0,0,1-5.078,1.32c-0.15-.42-0.224-0.65-0.4-1.3a4.4,4.4,0,0,1-.1-0.75c0-.15.05-0.32,0.05-0.47a0.479,0.479,0,0,0-.548-0.45,18.025,18.025,0,0,0-3.012.27,6.352,6.352,0,0,1,.871,1.6C565.134,1802.22,565.283,1802.64,565.482,1803.22Zm22.871,0.97c0.174-.62.348-1.47,0.6-2.37a4.8,4.8,0,0,1,.523-1,0.611,0.611,0,0,0,.124-0.4,0.411,0.411,0,0,0-.273-0.4,14.18,14.18,0,0,0-3.137-.7,17.371,17.371,0,0,1-.149,2.3c-0.175,1.02-.374,2.12-0.623,3.12a32.505,32.505,0,0,1-4.033.25,12.254,12.254,0,0,1-1.842-.07c0.125,0.9.249,1.75,0.349,2.28,0.049,0.32.149,0.4,0.522,0.4,1.17,0,2.913-.13,4.357-0.28a93.563,93.563,0,0,1-4.307,11.85,0.415,0.415,0,0,0,.2.51c0.523,0.3,1.743.82,1.992,0.92,0.274,0.08.423,0.1,0.548-.25,1.593-4.15,2.862-7.98,4.555-13.53a38.488,38.488,0,0,0,4.332-.95c0.323-.07.4-0.15,0.373-0.47-0.025-.53-0.1-1.26-0.174-1.81a0.27,0.27,0,0,0-.4-0.25C590.668,1803.69,589.324,1804.02,588.353,1804.19Zm0.448,11.48a4.9,4.9,0,0,0,1.12,3.43c1.12,1.18,2.813,1.63,6.074,1.63a28.384,28.384,0,0,0,3.386-.28c0.4-.02.423-0.1,0.4-0.4a15.631,15.631,0,0,0-.2-2.18,0.213,0.213,0,0,0-.3-0.22,38.25,38.25,0,0,1-4.182.35c-2.39,0-3.61-.53-3.809-2.35a0.323,0.323,0,0,0-.373-0.35A12.5,12.5,0,0,0,588.8,1815.67Zm1.942-4.72a27.022,27.022,0,0,1,5-.58,17.009,17.009,0,0,1,3.087.3c0.349,0.08.473-.02,0.473-0.45a17.675,17.675,0,0,0-.025-2c0-.3-0.074-0.32-0.423-0.37a18.054,18.054,0,0,0-2.913-.25,26.3,26.3,0,0,0-4.854.57c-0.373.08-.448,0.15-0.448,0.5C590.643,1809.17,590.693,1810.07,590.743,1810.95Z" transform="translate(-320 -1782.81)"/>
  <path id="太陽光ダメージディフェンス_" data-name="太陽光ダメージディフェンス   " class="cls-1" d="M629.22,1800.37a22.538,22.538,0,0,1-2.113,6.82c-2.079,4.1-5.717,7.41-11.122,9.85a9.392,9.392,0,0,1,2.01,2.22,1.129,1.129,0,0,0,.8.77,1.935,1.935,0,0,0,.8-0.31,26,26,0,0,0,10.983-11.07,24.4,24.4,0,0,0,1.663-4.39,30.493,30.493,0,0,0,12.473,15.32,1.869,1.869,0,0,0,.762.35c0.277,0,.416-0.25.728-0.84a12.661,12.661,0,0,1,2.009-2.61c-6.929-2.82-11.745-9.36-13.962-16.11h8.176c3.153,0,4.227.06,4.435,0.06,0.346,0,.381-0.03.381-0.38v-2.89c0-.34-0.035-0.38-0.381-0.38-0.208,0-1.282.07-4.435,0.07h-8.938c0.1-1.29.138-2.58,0.173-3.86a6.384,6.384,0,0,1,.277-2.44,1.228,1.228,0,0,0,.242-0.73,0.656,0.656,0,0,0-.623-0.49c-1.143-.17-2.876-0.24-3.95-0.28a27.374,27.374,0,0,1,.173,4.04c0,1.32-.069,2.58-0.138,3.76h-7.8c-3.152,0-4.226-.07-4.434-0.07-0.347,0-.381.04-0.381,0.38v2.89c0,0.35.034,0.38,0.381,0.38,0.208,0,1.282-.06,4.434-0.06h7.38ZM628.908,1813c-0.45.28-.45,0.35-0.208,0.63a23.664,23.664,0,0,1,3.811,5.15,0.412,0.412,0,0,0,.312.28,0.958,0.958,0,0,0,.451-0.21l2.252-1.67c0.415-.32.415-0.35,0.208-0.67a27.915,27.915,0,0,0-3.915-4.97c-0.243-.25-0.312-0.32-0.693-0.07Zm46.733-3.1a16.365,16.365,0,0,1-8.177,8.67,9.7,9.7,0,0,1,1.49,1.15,1.424,1.424,0,0,0,.831.69,2.023,2.023,0,0,0,.832-0.38,18.942,18.942,0,0,0,8.211-10.13h1.039a27.523,27.523,0,0,1-.693,5.99,1.425,1.425,0,0,1-1.593,1.11,11.8,11.8,0,0,1-2.425-.24,6.282,6.282,0,0,1,.831,2.26c0.208,1.11.243,1.11,1.039,1.18a12.684,12.684,0,0,0,1.629.07c2.113,0,3.083-.76,3.6-2.68a33.638,33.638,0,0,0,.866-6.92c0.069-1.01.1-2.16,0.208-3.24,0-.35-0.069-0.42-0.45-0.42-0.208,0-1.144.07-3.985,0.07h-8.142a2.008,2.008,0,0,1,.555-0.55,0.515,0.515,0,0,0,.208-0.42c0-.21-0.1-0.35-0.555-0.49l-1.039-.31h9.354c3.292,0,4.435.07,4.643,0.07,0.381,0,.416-0.04.416-0.39v-2.22c0-.35-0.035-0.39-0.416-0.39-0.208,0-1.351.07-4.643,0.07h-9.631c-3.326,0-4.47-.07-4.677-0.07-0.347,0-.382.04-0.382,0.39v2.22c0,0.35.035,0.39,0.382,0.39,0.173,0,1-.04,3.187-0.07a17.276,17.276,0,0,1-.831,1.53,16.016,16.016,0,0,1-6.1,5.01,5.926,5.926,0,0,1,1.7,1.18,1.445,1.445,0,0,0,.867.7,1.944,1.944,0,0,0,.8-0.38,21.626,21.626,0,0,0,4.054-3.45h1.94a17.151,17.151,0,0,1-7.449,6.09,6.952,6.952,0,0,1,1.733,1.05,2.032,2.032,0,0,0,.9.62,1.638,1.638,0,0,0,.763-0.34,20.872,20.872,0,0,0,7.449-7.42h1.663Zm-18.432-20.08c-1.7,0-2.495-.07-2.737-0.07-0.347,0-.381.03-0.381,0.38,0,0.25.069,2.68,0.069,7.59v15.07c0,4.87-.069,7.27-0.069,7.52,0,0.35.034,0.35,0.381,0.35h2.737c0.346,0,.381,0,0.381-0.35,0-.21-0.069-2.72-0.069-7.52v-19.77h3.326a40.735,40.735,0,0,1-2.772,6.96c2.009,2.3,2.737,4.21,2.737,5.85,0,1.95-.8,2.58-2.841,2.47a4.3,4.3,0,0,1,.658,2.05c0.139,1.15.139,1.22,1.213,1.05,3.014-.45,4.227-2.02,4.227-4.67a9.74,9.74,0,0,0-2.6-6.89,61.511,61.511,0,0,0,2.6-6.05,2.938,2.938,0,0,1,.658-1.05,0.774,0.774,0,0,0,.347-0.62,2.729,2.729,0,0,0-.9-1.4c-0.866-1.04-1.04-1.11-1.317-1.11a1.257,1.257,0,0,0-.485.1,2.182,2.182,0,0,1-.693.11h-4.469Zm13.754,0.17c-2.841,0-3.776-.07-3.984-0.07-0.346,0-.381.04-0.381,0.42,0,0.21.069,1.01,0.069,2.92v4.22c0,1.91-.069,2.68-0.069,2.92,0,0.35.035,0.38,0.381,0.38,0.208,0,1.143-.07,3.984-0.07H677.1c2.841,0,3.811.07,4.053,0.07,0.312,0,.347-0.03.347-0.38,0-.21-0.07-1.01-0.07-2.92v-4.22c0-1.91.07-2.71,0.07-2.92,0-.38-0.035-0.42-0.347-0.42-0.242,0-1.212.07-4.053,0.07h-6.133Zm-1.108,2.61h8.28v1.6h-8.28v-1.6Zm8.28,5.61h-8.28v-1.57h8.28v1.57Zm21.163,6.75c-0.173,7.24-2.841,10.48-9.77,12.39a7.761,7.761,0,0,1,1.732,2.23c0.347,0.66.485,0.87,0.8,0.87a3.3,3.3,0,0,0,.763-0.18c7.518-2.64,9.943-7.69,10.22-15.31h3.777v10.13c0,2.02.207,3.17,0.9,3.9,0.763,0.83,2.183,1.11,5.3,1.11,3.6,0,4.989-.49,6.029-1.46,0.866-.84,1.316-2.19,1.524-4.67,0.1-.87.069-0.87-0.831-1.07a6.957,6.957,0,0,1-2.634-1.08c-0.034,2.47-.173,3.55-0.8,4.17-0.52.49-1.352,0.7-3.015,0.7s-2.182-.14-2.494-0.45a2.743,2.743,0,0,1-.347-1.88v-9.4h5.44c3.153,0,4.227.07,4.435,0.07,0.311,0,.346-0.04.346-0.42v-2.71c0-.35-0.035-0.39-0.346-0.39-0.208,0-1.282.07-4.435,0.07h-8.835v-8.38a8.2,8.2,0,0,1,.208-2.79,1.516,1.516,0,0,0,.242-0.73,0.475,0.475,0,0,0-.519-0.45,30.919,30.919,0,0,0-3.777-.28,30.339,30.339,0,0,1,.208,4.25v8.38h-8.142c-3.152,0-4.192-.07-4.434-0.07-0.347,0-.381.04-0.381,0.39v2.71c0,0.38.034,0.42,0.381,0.42,0.242,0,1.282-.07,4.434-0.07H699.3Zm10.394-6.2a20.533,20.533,0,0,1,2.252,1.19,1.633,1.633,0,0,0,.832.42,1.266,1.266,0,0,0,.762-0.7,53.453,53.453,0,0,0,3.361-5.36,2.69,2.69,0,0,1,.623-0.91,0.663,0.663,0,0,0,.347-0.52,0.506,0.506,0,0,0-.381-0.45,22.407,22.407,0,0,0-3.292-1.57,7.34,7.34,0,0,1-.485,1.47A33.076,33.076,0,0,1,709.692,1798.76Zm-16.076-6.4c-0.415.21-.45,0.31-0.242,0.59a29.672,29.672,0,0,1,3.707,6.79c0.139,0.35.243,0.38,0.693,0.14l2.321-1.22c0.451-.28.485-0.31,0.347-0.66a32.732,32.732,0,0,0-3.881-6.75c-0.173-.28-0.277-0.28-0.658-0.07Zm45.521,2.92c0.589-.9.8-1.25,1.074-1.74a2.988,2.988,0,0,1,.727-0.73,0.929,0.929,0,0,0,.416-0.69,0.614,0.614,0,0,0-.381-0.56,21.7,21.7,0,0,0-4.053-1.71,12.856,12.856,0,0,1-1.871,4.29,38.761,38.761,0,0,1-9.8,10.92,14.882,14.882,0,0,1,2.91,1.6,0.776,0.776,0,0,0,.554.25,1.259,1.259,0,0,0,.693-0.31,42,42,0,0,0,7.415-7.84l8.592-.17a33.683,33.683,0,0,1-4.054,6.89,34.777,34.777,0,0,0-4.469-2.78,0.9,0.9,0,0,0-.347-0.14,0.646,0.646,0,0,0-.45.24c-0.8.73-1.524,1.64-2.287,2.47a29.826,29.826,0,0,1,4.989,3.27,42,42,0,0,1-12.749,9.44,9.773,9.773,0,0,1,3.291,1.77,1.026,1.026,0,0,0,.658.31,1.8,1.8,0,0,0,.866-0.31,42.256,42.256,0,0,0,11.053-8.7,37.817,37.817,0,0,1,3.36,3.38,0.6,0.6,0,0,0,.381.21,0.692,0.692,0,0,0,.416-0.18,21.769,21.769,0,0,0,2.148-2.19,0.668,0.668,0,0,0,.208-0.45,0.684,0.684,0,0,0-.208-0.49,30.859,30.859,0,0,0-3.742-3.52,54.18,54.18,0,0,0,5.093-8.42,4.322,4.322,0,0,1,1.04-1.32,0.9,0.9,0,0,0,.381-0.66,0.859,0.859,0,0,0-.277-0.63,11.2,11.2,0,0,0-2.356-2.12,1.151,1.151,0,0,0-.624-0.28,1.031,1.031,0,0,0-.589.24,3.329,3.329,0,0,1-1.9.52Zm8.765-3.65a17.2,17.2,0,0,1,3.5,4.04,0.364,0.364,0,0,0,.589.1l1.455-1.08a0.346,0.346,0,0,0,.1-0.55,16.06,16.06,0,0,0-3.292-3.73,0.356,0.356,0,0,0-.519-0.07Zm3.188-2.3a16.68,16.68,0,0,1,3.464,4,0.354,0.354,0,0,0,.589.11l1.386-1.08a0.407,0.407,0,0,0,.1-0.63,14.548,14.548,0,0,0-3.291-3.58,0.348,0.348,0,0,0-.52-0.07Zm20.265,12.18a51.742,51.742,0,0,0-6.028-3.65,0.979,0.979,0,0,0-.416-0.14,0.492,0.492,0,0,0-.346.17c-0.451.49-1.282,1.57-2.287,2.86a37.617,37.617,0,0,1,6.756,4.14,42.458,42.458,0,0,1-13.061,11.42,9.926,9.926,0,0,1,3.118,1.91,0.984,0.984,0,0,0,.658.24,1.6,1.6,0,0,0,.8-0.27,45.842,45.842,0,0,0,11.849-10.86,34.9,34.9,0,0,1,4.538,4.59,0.647,0.647,0,0,0,.486.31,0.54,0.54,0,0,0,.415-0.24c0.728-.8,1.421-1.57,2.114-2.47a0.94,0.94,0,0,0,.173-0.45,0.738,0.738,0,0,0-.208-0.49,40.306,40.306,0,0,0-5.093-4.73,68.4,68.4,0,0,0,3.95-6.9,7.648,7.648,0,0,1,1.559-2.33,1.018,1.018,0,0,0,.381-0.76,0.746,0.746,0,0,0-.347-0.6,17.21,17.21,0,0,0-4.365-2.19,16.162,16.162,0,0,1-1.317,4.28A40.733,40.733,0,0,1,771.355,1801.51Zm32.8,5.4c2.35,0,4.7.04,7.081,0.07,0.445,0.03.572-.1,0.572-0.48a23.833,23.833,0,0,0,0-3c0-.38-0.1-0.48-0.572-0.45-2.445.04-4.89,0.1-7.3,0.1H793.713a40.542,40.542,0,0,1-6.858-.38,35.165,35.165,0,0,0,.476,3.86,0.7,0.7,0,0,0,.73.67,24.846,24.846,0,0,1,4.668-.39H804.16Zm12.164-3.8a30.219,30.219,0,0,1,7,3.8,0.667,0.667,0,0,0,.416.21,0.746,0.746,0,0,0,.45-0.35,14.163,14.163,0,0,0,1.525-2.65,1,1,0,0,0,.138-0.38,0.663,0.663,0,0,0-.381-0.52,23.913,23.913,0,0,0-6.652-3.41,0.6,0.6,0,0,0-.658.35C817.744,1800.71,817.19,1801.72,816.324,1803.11Zm4.192-8.17a32.92,32.92,0,0,1,6.721,4.28,0.879,0.879,0,0,0,.52.24,0.375,0.375,0,0,0,.346-0.21,15.031,15.031,0,0,0,1.767-2.61,0.827,0.827,0,0,0,.139-0.45,0.548,0.548,0,0,0-.277-0.45,23.694,23.694,0,0,0-6.514-3.87,0.545,0.545,0,0,0-.866.28C821.763,1793.06,821.105,1794.03,820.516,1794.94Zm-1.455,19.83a21.556,21.556,0,0,0,2.564,3.55,0.888,0.888,0,0,0,.692.42,0.765,0.765,0,0,0,.555-0.28,11.751,11.751,0,0,1,2.009-1.18,80.886,80.886,0,0,0,10.359-6.54,64.961,64.961,0,0,0,8.8-8.04,1.084,1.084,0,0,0,.381-0.8,1.683,1.683,0,0,0-.174-0.66,17.571,17.571,0,0,1-1-3.9,63.823,63.823,0,0,1-9.978,9.71,58.351,58.351,0,0,1-9.493,6.02A15.823,15.823,0,0,1,819.061,1814.77Zm17.323-22.41a17.2,17.2,0,0,1,3.5,4.04,0.359,0.359,0,0,0,.589.1l1.455-1.08a0.345,0.345,0,0,0,.1-0.55,16.058,16.058,0,0,0-3.291-3.73,0.358,0.358,0,0,0-.52-0.07Zm3.187-2.3a16.539,16.539,0,0,1,3.465,4.01,0.357,0.357,0,0,0,.589.1l1.386-1.08a0.407,0.407,0,0,0,.1-0.63,14.573,14.573,0,0,0-3.292-3.58,0.355,0.355,0,0,0-.519-0.07Zm33.326,0.77a16.943,16.943,0,0,1,3.118,4.35,0.358,0.358,0,0,0,.554.17l1.559-.94a0.364,0.364,0,0,0,.174-0.55,16.343,16.343,0,0,0-2.945-4.04,0.361,0.361,0,0,0-.485-0.11Zm3.395-1.99a16.792,16.792,0,0,1,3.084,4.32,0.369,0.369,0,0,0,.589.17l1.455-.94a0.415,0.415,0,0,0,.173-0.62,15.3,15.3,0,0,0-2.945-3.9c-0.173-.17-0.277-0.24-0.485-0.1Zm-9.943,6.93c1.9,0,3.949.04,5.82,0.11,0.381,0,.451-0.18.451-0.67a15.609,15.609,0,0,0,0-2.54c0-.45-0.07-0.66-0.416-0.66-1.732.11-3.915,0.14-5.855,0.14h-6.375c-1.559,0-3.326-.03-5.751-0.17,0.1,1.25.138,2.5,0.242,3.34a0.5,0.5,0,0,0,.589.59c1.94-.07,3.326-0.14,4.92-0.14h6.375Zm5.127,8.08c2.391,0,4.782.07,6.583,0.13a0.48,0.48,0,0,0,.52-0.59c0.035-.45.035-2.22,0-2.68,0-.48-0.035-0.69-0.381-0.69-2.044.14-4.054,0.21-6.756,0.21H855.886c-2.01,0-3.95,0-5.89-.18a20.944,20.944,0,0,0,.277,3.34c0.035,0.46.139,0.7,0.45,0.66,1.767-.1,3.465-0.2,5.2-0.2H862.5c-0.139,3.3-.485,5.18-1.767,7.48-1.455,2.64-3.5,4.35-6.894,6.19a9.162,9.162,0,0,1,3.083,1.85,1.037,1.037,0,0,0,.728.35,2.148,2.148,0,0,0,1.039-.42,17.452,17.452,0,0,0,6.1-6.58c1.351-2.64,1.836-4.98,2.044-8.87h4.642Zm22.175,0.59c1.212-1.19,2.252-2.33,3.153-3.38a8.893,8.893,0,0,1,1.559-1.43,0.78,0.78,0,0,0,.519-0.66,0.959,0.959,0,0,0-.381-0.62,27.281,27.281,0,0,0-3.187-2.09,9.859,9.859,0,0,1-1.836,2.99,49.3,49.3,0,0,1-14.379,11.31,6.088,6.088,0,0,1,2.5,1.74,0.958,0.958,0,0,0,.693.35,0.723,0.723,0,0,0,.45-0.14,46.239,46.239,0,0,0,7.172-5.01v5.95c0,1.85-.069,3.59-0.1,5.57a0.522,0.522,0,0,0,.554.63,18.786,18.786,0,0,0,2.807,0,0.532,0.532,0,0,0,.589-0.63c-0.035-1.77-.1-4-0.1-5.67v-8.91Zm29.723-6.79a29.377,29.377,0,0,1-5.856,9.92,33.47,33.47,0,0,1-11.329,8.7,10.181,10.181,0,0,1,3.222,1.92,1.244,1.244,0,0,0,.866.38,1.739,1.739,0,0,0,.936-0.31,39.061,39.061,0,0,0,9.839-8.29,40.877,40.877,0,0,0,6.722-11.31,4.244,4.244,0,0,1,.8-1.36,1.183,1.183,0,0,0,.485-0.87,0.874,0.874,0,0,0-.243-0.59,10.991,10.991,0,0,0-2.529-2.3,1.757,1.757,0,0,0-.658-0.17,0.927,0.927,0,0,0-.52.14,3.286,3.286,0,0,1-1.906.35H910.832a58.475,58.475,0,0,1-6.652-.25c0.069,1.01.208,2.82,0.312,3.52,0.069,0.49.207,0.73,0.658,0.69,1.49-.07,3.464-0.17,5.716-0.17h12.508Zm20.368,7.21h1.905c1.421,0,3.153.06,4.5,0.06,0.52,0.04.658-.1,0.693-0.66,0.035-.69.035-1.46,0-2.15-0.035-.42-0.138-0.63-0.554-0.6-1.525,0-3.118.07-4.677,0.07h-7.692c-1.49,0-3.326,0-4.816-.14,0.07,1.26.1,2.2,0.208,2.79,0.069,0.52.243,0.73,0.555,0.69,1.593-.03,2.841-0.03,4.261-0.03h1.906v8.81H936.57c-2.217,0-3.915,0-5.925-.14a16.138,16.138,0,0,0,.174,2.82c0.069,0.52.242,0.73,0.658,0.73,1.455-.07,3.014-0.14,5.093-0.14h10.879c1.594,0,3.638.07,5.439,0.07,0.416,0.03.555-.18,0.589-0.63,0.035-.73.035-1.5,0-2.23-0.034-.45-0.173-0.66-0.485-0.66-1.871.11-3.811,0.14-5.578,0.14h-3.672v-8.8Zm15.023-8.64a36.6,36.6,0,0,1,7.068,5.68,0.747,0.747,0,0,0,.451.28,0.689,0.689,0,0,0,.415-0.28c0.485-.53,1.629-1.92,2.148-2.61a0.778,0.778,0,0,0,.208-0.46,0.789,0.789,0,0,0-.312-0.48,36.166,36.166,0,0,0-6.617-4.95,0.955,0.955,0,0,0-.45-0.17,0.63,0.63,0,0,0-.485.28C960.532,1794.2,959.528,1795.28,958.765,1796.22Zm0.763,17.37a23.928,23.928,0,0,0,2.771,3.86,0.889,0.889,0,0,0,.589.39,0.956,0.956,0,0,0,.624-0.35,12.158,12.158,0,0,1,2.321-1.6,74.617,74.617,0,0,0,10.463-6.82,56.8,56.8,0,0,0,7.969-7.38,1.7,1.7,0,0,0,.554-1.05,1.724,1.724,0,0,0-.173-0.66,15.614,15.614,0,0,1-.97-4.07,52.434,52.434,0,0,1-9.493,9.47,51.139,51.139,0,0,1-9.978,6.47A20.923,20.923,0,0,1,959.528,1813.59Zm36.616-19.87c-2.252,0-3.984,0-5.855-.14a20.367,20.367,0,0,0,.312,3.62c0.069,0.38.173,0.62,0.45,0.59,1.871-.14,3.673-0.21,5.475-0.21l8.934-.03a42.445,42.445,0,0,1-6.509,8.73,42.017,42.017,0,0,1-12.2,8.88,9.394,9.394,0,0,1,2.911,2.26,0.765,0.765,0,0,0,.589.31,2.174,2.174,0,0,0,.8-0.28,49.845,49.845,0,0,0,11.639-9.18,63.059,63.059,0,0,1,9.01,8.63,0.718,0.718,0,0,0,.49.28,0.6,0.6,0,0,0,.41-0.21,18.45,18.45,0,0,0,2.32-2.37,0.614,0.614,0,0,0-.03-1.01,81.058,81.058,0,0,0-9.6-8.42,54.735,54.735,0,0,0,4.44-6.51,6.217,6.217,0,0,1,1.28-1.53,0.981,0.981,0,0,0,.45-0.7,0.868,0.868,0,0,0-.18-0.45,12.286,12.286,0,0,0-2.25-2.44,1.143,1.143,0,0,0-.59-0.28,0.618,0.618,0,0,0-.38.14,5.018,5.018,0,0,1-2.39.32h-9.526Z" transform="translate(-320 -1782.81)"/>
  <path id="処方" class="cls-3" d="M1034.96,1802.29l0.25-1.33a3.377,3.377,0,0,1,.4-1.3,0.9,0.9,0,0,0,.2-0.45,0.412,0.412,0,0,0-.38-0.35,22.349,22.349,0,0,0-2.46-.47,10.99,10.99,0,0,1-.15,1.95,20.667,20.667,0,0,1-3.78,9.82,6.439,6.439,0,0,1,1.19,1.78,0.627,0.627,0,0,0,.33.42,0.826,0.826,0,0,0,.39-0.4,24.56,24.56,0,0,0,1.6-2.7,21.107,21.107,0,0,0,1.69,4.63,17.821,17.821,0,0,1-5.15,5.12,5.143,5.143,0,0,1,1.24,1.55,0.809,0.809,0,0,0,.45.55,1.4,1.4,0,0,0,.57-0.33,20.972,20.972,0,0,0,4.38-4.59,10.846,10.846,0,0,0,2.07,1.99c2.11,1.73,5.22,2.35,8.48,2.35,1.59,0,2.91-.02,4.5-0.1,0.78-.05.78-0.05,0.95-0.85a5.6,5.6,0,0,1,.67-1.9,53.374,53.374,0,0,1-5.5.28c-3.63,0-6.29-.45-8.58-2.42a9.146,9.146,0,0,1-1.35-1.43,25.4,25.4,0,0,0,2.44-8.4,3.434,3.434,0,0,1,.3-1.55,0.724,0.724,0,0,0,.18-0.45,2.111,2.111,0,0,0-.73-1,1.913,1.913,0,0,0-.97-0.7,1.1,1.1,0,0,0-.44.15,1.871,1.871,0,0,1-.8.13h-1.99Zm-0.57,2.3h2.71a22.252,22.252,0,0,1-1.62,6.95,26.341,26.341,0,0,1-1.54-5.53Zm14.1-1.2c0-2.1.05-3.13,0.05-3.28,0-.25-0.02-0.27-0.27-0.27-0.17,0-.65.05-2.19,0.05h-2.26c-1.55,0-1.97-.05-2.12-0.05-0.27,0-.3.02-0.3,0.27,0,0.15.05,0.85,0.05,2.2,0,6.83-.69,9.1-2.71,12.1a5.745,5.745,0,0,1,1.62,1.1,0.916,0.916,0,0,0,.52.35,0.826,0.826,0,0,0,.5-0.5c1.94-3.1,2.61-6.1,2.59-13.15h2.06v11.25a2.116,2.116,0,0,0,.7,1.95c0.35,0.28.87,0.38,2.29,0.38a3.312,3.312,0,0,0,2.21-.58c0.5-.47.75-1.2,0.85-4.22,0.02-.8.02-0.88-0.43-1a5.639,5.639,0,0,1-1.71-.78c-0.03,3.15-.15,3.75-0.28,3.95a0.6,0.6,0,0,1-.59.33,0.649,0.649,0,0,1-.43-0.13,0.614,0.614,0,0,1-.15-0.52v-9.45Zm14.99,1.72c-0.05,7.6-1.92,11.05-7.64,13.87a5.438,5.438,0,0,1,1.49,1.53,0.857,0.857,0,0,0,.5.55,1.8,1.8,0,0,0,.6-0.28c4.23-2.52,6.34-5.44,7.29-10.07h6.76a29.8,29.8,0,0,1-.77,6.35,1.382,1.382,0,0,1-1.46,1.25,23.286,23.286,0,0,1-3.06-.23,5.814,5.814,0,0,1,.54,1.93c0.1,0.8.1,0.85,0.8,0.9,0.82,0.05,1.52.05,1.96,0.05,2.49,0,3.46-.73,4.01-3.1a46.62,46.62,0,0,0,.82-7.42c0.03-.63.05-1.3,0.1-1.95,0-.28-0.05-0.35-0.3-0.35-0.15,0-.84.05-2.93,0.05h-6.1c0.1-.95.17-1.98,0.2-3.08h8.61c2.24,0,2.98.05,3.13,0.05,0.23,0,.25-0.02.25-0.3v-2.02c0-.28-0.02-0.3-0.25-0.3-0.15,0-.89.05-3.13,0.05h-6.55v-1.7a3.55,3.55,0,0,1,.15-1.45,1.423,1.423,0,0,0,.15-0.53,0.345,0.345,0,0,0-.39-0.27c-0.85-.08-1.82-0.13-2.72-0.13a12.05,12.05,0,0,1,.18,2.45v1.63h-6.1c-2.21,0-2.96-.05-3.13-0.05-0.25,0-.28.02-0.28,0.3v2.02c0,0.28.03,0.3,0.28,0.3,0.17,0,.92-0.05,3.13-0.05h3.86Z" transform="translate(-320 -1782.81)"/>
  <path id="_1" data-name="※1" class="cls-1" d="M496.037,1799.9l2.583,2.61,0.255-.25-2.591-2.61,2.591-2.6-0.255-.26-2.583,2.62-2.584-2.62-0.255.26,2.592,2.6-2.592,2.61,0.255,0.25Zm2.168-.91a0.661,0.661,0,0,0-.661.66A0.666,0.666,0,1,0,498.205,1798.99Zm-4.337,0a0.663,0.663,0,0,0-.67.66,0.672,0.672,0,0,0,.67.67A0.665,0.665,0,0,0,493.868,1798.99Zm2.169-2.2a0.675,0.675,0,1,0,.661.68A0.673,0.673,0,0,0,496.037,1796.79Zm0,4.38a0.67,0.67,0,1,0,.661.67A0.67,0.67,0,0,0,496.037,1801.17Zm6.123-2.5c0-.27,0-0.64.008-0.93,0-.1.008-0.42,0.008-0.54s-0.032-.13-0.183-0.13a0.588,0.588,0,0,0-.343.08c-0.3.13-.766,0.32-1.069,0.43a0.168,0.168,0,0,0-.151.13,0.282,0.282,0,0,0,.032.12l0.032,0.07c0.047,0.11.071,0.15,0.127,0.15a0.492,0.492,0,0,0,.128-0.04c0.2-.1.47-0.22,0.725-0.32a0.637,0.637,0,0,1,.136-0.04c0.072,0,.088.06,0.088,0.2v3.06c0,0.21,0,.51-0.008.8-0.008.27-.016,0.57-0.016,0.64,0,0.14.04,0.16,0.191,0.16h0.128c0.151,0,.191-0.02.191-0.16,0-.06-0.008-0.37-0.016-0.65s-0.008-.58-0.008-0.79v-2.24Z" transform="translate(-320 -1782.81)"/>
</svg>
