<svg id="head-block-01_sp.svg" xmlns="http://www.w3.org/2000/svg" width="224.906" height="172.13" viewBox="0 0 224.906 172.13">
  <defs>
    <style>
      .cls-1 {
        fill: #d2ecf9;
      }

      .cls-1, .cls-2, .cls-3 {
        fill-rule: evenodd;
      }

      .cls-2 {
        fill: #1147b4;
      }

      .cls-3 {
        fill: #010101;
        opacity: 0.8;
      }
    </style>
  </defs>
  <path id="長方形_1367" data-name="長方形 1367" class="cls-1" d="M61.054,2453.47h196.3v8.23H61.054v-8.23Z" transform="translate(-61.063 -2432.59)"/>
  <path id="長方形_1367-2" data-name="長方形 1367" class="cls-1" d="M61.656,2494.62H274.813v8.23H61.656v-8.23Z" transform="translate(-61.063 -2432.59)"/>
  <path id="W有効成分配合で_美白_肌あれ防止_" data-name="W有効成分配合で 美白＆肌あれ防止  " class="cls-2" d="M86.623,2434.62h-3.5l-1.629,9.86c-0.407,2.61-.652,4.75-1.059,7.58h-0.38c-0.3-2.8-.625-5.03-1.032-7.42l-1.765-10.02h-4.7l-1.711,9.7c-0.462,2.52-.733,5.1-1.114,7.74h-0.38c-0.326-2.69-.679-5.24-1.059-7.82l-1.521-9.62H63.05l4.1,21.08h4.508l1.711-9.92c0.489-2.69.787-5.02,1.168-7.79h0.38c0.38,2.74.652,5.08,1.168,7.9l1.819,9.81h4.508Zm8.855,19.64c0,2.25-.054,2.98-0.054,3.12,0,0.27.027,0.3,0.326,0.3h2.281c0.272,0,.3-0.03.3-0.3,0-.14-0.054-0.87-0.054-3.12v-2.15h8.935v1.77c0,0.73-.3.95-1.168,0.95-1.005,0-1.629-.03-2.58-0.11a7.754,7.754,0,0,1,.733,1.95c0.19,0.82.19,0.82,1.032,0.82,2.58-.03,3.4-0.25,4.047-0.76a2.831,2.831,0,0,0,.815-2.28c0-.76-0.055-2.2-0.055-4.21v-4.92c0-2.28.055-3.45,0.055-3.61,0-.27-0.028-0.3-0.326-0.3-0.163,0-1.412.05-3.857,0.05H98.629c0.407-.73.815-1.49,1.168-2.28h10.13c2.444,0,3.286.06,3.449,0.06,0.244,0,.271-0.03.271-0.3v-2.09c0-.27-0.027-0.3-0.271-0.3-0.163,0-1.005.05-3.449,0.05h-9.1l0.38-1.22a3.675,3.675,0,0,1,.57-1.25,0.9,0.9,0,0,0,.3-0.51c0-.22-0.217-0.3-0.516-0.38a22.291,22.291,0,0,0-2.77-.44,14.022,14.022,0,0,1-.489,2.64c-0.109.4-.217,0.78-0.353,1.16H93.442c-2.444,0-3.286-.05-3.449-0.05-0.272,0-.3.03-0.3,0.3v2.09c0,0.27.027,0.3,0.3,0.3,0.163,0,1-.06,3.449-0.06h3.422a20.454,20.454,0,0,1-7.631,8.42,7.247,7.247,0,0,1,1.412,1.58,0.888,0.888,0,0,0,.543.51,1.05,1.05,0,0,0,.6-0.32,28.323,28.323,0,0,0,3.694-3.51v8.4Zm2.8-4.38v-1.87h8.935v1.87H98.276Zm8.935-5.94v1.84H98.276v-1.84h8.935Zm31.288-2.31a82.294,82.294,0,0,1-.679,11.4c-0.217,1.39-.57,1.69-1.412,1.69a16.613,16.613,0,0,1-2.607-.22,5.477,5.477,0,0,1,.624,1.87c0.163,0.9.163,0.9,0.924,0.93,0.543,0.05,1.086.05,1.656,0.05,2.064,0,3.1-.84,3.422-2.96a84.491,84.491,0,0,0,.761-12.38c0-.84.027-1.63,0.054-2.58,0-.27-0.054-0.33-0.3-0.33-0.163,0-.9.06-3.1,0.06h-1.9c0.027-.71.055-1.44,0.055-2.2a14.359,14.359,0,0,1,.135-2.69,3.25,3.25,0,0,0,.19-0.74,0.387,0.387,0,0,0-.407-0.32c-0.95-.08-1.792-0.14-2.8-0.16a26.432,26.432,0,0,1,.217,3.83c0,0.78-.027,1.54-0.054,2.28-2.091,0-2.77-.06-2.906-0.06-0.3,0-.326.03-0.326,0.3v1.98c0,0.28.027,0.3,0.326,0.3,0.136,0,.815-0.05,2.77-0.05a29.614,29.614,0,0,1-1.168,6.71,14.014,14.014,0,0,1-5.73,7.41,4.774,4.774,0,0,1,1.548,1.36,0.969,0.969,0,0,0,.543.49,1.478,1.478,0,0,0,.679-0.41,16.822,16.822,0,0,0,5.432-7.93,32.656,32.656,0,0,0,1.385-7.63H138.5Zm-18.114,5.19c-0.218.21-.245,0.29-0.027,0.46,0.841,0.7,1.711,1.49,2.552,2.33a16.2,16.2,0,0,1-6,5.62,5.574,5.574,0,0,1,1.222,1.36,0.962,0.962,0,0,0,.57.63,1.467,1.467,0,0,0,.625-0.33,19.5,19.5,0,0,0,5.4-5.35,27.458,27.458,0,0,1,1.847,2.31,0.375,0.375,0,0,0,.244.19,0.549,0.549,0,0,0,.3-0.22l1.358-1.46c0.244-.25.244-0.33,0.054-0.52a32.81,32.81,0,0,0-2.417-2.72c0.3-.62.57-1.25,0.815-1.92a3.2,3.2,0,0,1,.57-1.17,0.769,0.769,0,0,0,.3-0.52,0.469,0.469,0,0,0-.353-0.41,15.207,15.207,0,0,0-2.39-1,9.129,9.129,0,0,1-.6,2.39l-0.325.79c-0.679-.6-1.358-1.17-2.037-1.69-0.218-.16-0.3-0.13-0.571.11Zm6.11-7.69c2.363,0,3.151.05,3.314,0.05,0.271,0,.3-0.02.3-0.3v-1.95c0-.3-0.027-0.33-0.3-0.33-0.163,0-.951.06-3.314,0.06h-1.113v-0.9a5.417,5.417,0,0,1,.136-1.84,1.508,1.508,0,0,0,.19-0.58c0-.13-0.163-0.24-0.462-0.27-0.9-.11-1.711-0.16-2.716-0.19a15.709,15.709,0,0,1,.163,2.88v0.9h-1.439c-2.363,0-3.151-.06-3.313-0.06-0.272,0-.3.03-0.3,0.33v1.95c0,0.28.027,0.3,0.3,0.3,0.162,0,.95-0.05,3.313-0.05H126.5Zm-9.505,5.68a5,5,0,0,1,1.385,1.3,0.9,0.9,0,0,0,.489.49,1.409,1.409,0,0,0,.6-0.44,18.9,18.9,0,0,0,2.77-3.77,4.134,4.134,0,0,1,.6-0.9,0.557,0.557,0,0,0,.3-0.41,0.572,0.572,0,0,0-.408-0.43,17.084,17.084,0,0,0-2.227-.98,9.068,9.068,0,0,1-.461,1.33A11.976,11.976,0,0,1,116.99,2444.81Zm8.609-4.21c-0.3.13-.353,0.19-0.217,0.46a30.594,30.594,0,0,0,3.1,4.7,0.977,0.977,0,0,0,.57.51,1.27,1.27,0,0,0,.6-0.46,8.247,8.247,0,0,1,1.466-1.17,18.887,18.887,0,0,1-3.422-4.64c-0.136-.25-0.19-0.25-0.489-0.11Zm40.549-.63c2.553,0,3.449.06,3.612,0.06,0.272,0,.3-0.03.3-0.3v-2.07c0-.3-0.027-0.32-0.3-0.32-0.163,0-1.059.05-3.612,0.05h-4.073v-0.65a9.882,9.882,0,0,1,.135-2.72,1.263,1.263,0,0,0,.136-0.51,0.373,0.373,0,0,0-.407-0.33c-0.978-.11-1.9-0.13-2.933-0.19a25.822,25.822,0,0,1,.217,3.83v0.57H152c-2.58,0-3.476-.05-3.639-0.05-0.3,0-.326.02-0.326,0.32,0,0.17.054,1.77,0.054,5.46a44.3,44.3,0,0,1-.38,6.57,14.519,14.519,0,0,1-2.118,6.01,8.257,8.257,0,0,1,1.683,1.52,0.91,0.91,0,0,0,.544.43,0.772,0.772,0,0,0,.461-0.51,20.365,20.365,0,0,0,2.119-6.36,35.3,35.3,0,0,0,.488-4.75h3.8a22.386,22.386,0,0,1-.408,4.37,1.157,1.157,0,0,1-1.3.98,12.732,12.732,0,0,1-2.227-.22,5.711,5.711,0,0,1,.651,1.96c0.136,0.84.163,0.84,0.788,0.89a10.7,10.7,0,0,0,1.385.06,3.1,3.1,0,0,0,3.15-2.26,21.311,21.311,0,0,0,.625-5.05c0.054-.81.082-1.95,0.136-2.99,0-.3-0.054-0.35-0.326-0.35-0.163,0-.652.05-2.308,0.05H150.94v-3.5H159.3a32.857,32.857,0,0,0,1.983,10.4,21.632,21.632,0,0,1-6.3,5.11,6.221,6.221,0,0,1,1.385,1.44,0.95,0.95,0,0,0,.571.57,1.733,1.733,0,0,0,.651-0.3,21.329,21.329,0,0,0,4.916-4.05c1.358,2.53,3.15,4.27,5.024,4.27,1.657,0,2.635-1.33,3.069-4.24,0.136-.84.136-0.84-0.652-1.25a5.369,5.369,0,0,1-1.52-1.06c-0.163,2.53-.489,3.34-1.114,3.34-0.679,0-1.928-1.3-2.906-3.39a30.493,30.493,0,0,0,3.1-5.52,4.22,4.22,0,0,1,.679-1.33,1.074,1.074,0,0,0,.38-0.57,0.557,0.557,0,0,0-.407-0.43,15.629,15.629,0,0,0-2.526-.98,13.564,13.564,0,0,1-.733,2.5,22.068,22.068,0,0,1-1.63,3.18,34.643,34.643,0,0,1-1.113-7.69h3.992Zm-2.064-5.84a0.429,0.429,0,0,0-.217.25,0.379,0.379,0,0,0,.163.24,10.7,10.7,0,0,1,2.2,2.39,0.338,0.338,0,0,0,.217.19,0.886,0.886,0,0,0,.353-0.19l1.3-.98c0.3-.19.3-0.3,0.135-0.51a11.876,11.876,0,0,0-2.335-2.28c-0.217-.17-0.3-0.17-0.571.02Zm24.227,0.06c-0.3.13-.353,0.16-0.244,0.46a28.767,28.767,0,0,0,5.839,8.61c-0.272.02-1.168,0.05-3.531,0.05H183.07c-2.091,0-3.042-.03-3.422-0.05a24.635,24.635,0,0,0,4.97-7.2,2.177,2.177,0,0,1,.625-0.87,0.545,0.545,0,0,0,.217-0.41,0.49,0.49,0,0,0-.38-0.46,20.516,20.516,0,0,0-2.825-.95,7.662,7.662,0,0,1-.543,1.74,21.207,21.207,0,0,1-7.849,8.96,6.1,6.1,0,0,1,1.521,1.66,0.968,0.968,0,0,0,.571.6,1.468,1.468,0,0,0,.6-0.36,29.385,29.385,0,0,0,2.634-2.25v1.98c0,0.27.028,0.3,0.3,0.3,0.163,0,1.032-.05,3.585-0.05H183.4c-0.516,4.78-2.906,7.65-7.849,9.45a5.042,5.042,0,0,1,1.385,1.63,0.906,0.906,0,0,0,.571.65,1.716,1.716,0,0,0,.651-0.22,13.133,13.133,0,0,0,8.256-11.51h4.834a44.687,44.687,0,0,1-.516,6.73c-0.217,1.25-.678,1.69-1.819,1.69a20.35,20.35,0,0,1-3.1-.25,5.619,5.619,0,0,1,.842,2.17c0.19,0.9.163,0.9,1,.95,0.651,0.06,1.167.06,1.846,0.06,2.662,0,3.694-1.2,4.047-3.34a54.432,54.432,0,0,0,.679-7.61c0.027-.95.027-1.9,0.081-2.69a21.453,21.453,0,0,0,2.58,2.2,1.272,1.272,0,0,0,.571.36,0.945,0.945,0,0,0,.516-0.6,9.371,9.371,0,0,1,1.575-2.04,21.723,21.723,0,0,1-8.8-10.02c-0.109-.27-0.163-0.3-0.516-0.13Zm18.715,2.03v2.61c-1.9,0-2.635-.05-2.771-0.05-0.271,0-.3.02-0.3,0.27,0,0.16.054,1.44,0.054,5.86v4.62c0,6.38-.054,7.61-0.054,7.8,0,0.27.027,0.29,0.3,0.29h1.711c0.245,0,.272-0.02.272-0.29v-1.39H212.7v0.9c0,0.27.027,0.3,0.325,0.3h1.657c0.272,0,.3-0.03.3-0.3,0-.17-0.054-1.39-0.054-7.61v-5.05c0-3.72.054-4.97,0.054-5.13,0-.25-0.027-0.27-0.3-0.27-0.19,0-.869.05-2.77,0.05v-2.61h0.217c2.336,0,3.151.06,3.314,0.06,0.271,0,.3-0.03.3-0.3v-1.93c0-.27-0.027-0.3-0.3-0.3-0.163,0-.978.06-3.314,0.06H206.7c-2.363,0-3.151-.06-3.314-0.06-0.244,0-.271.03-0.271,0.3v1.93c0,0.27.027,0.3,0.271,0.3,0.163,0,.951-0.06,3.314-0.06h0.326Zm2.933,4.76v4.29a1.78,1.78,0,0,0,.407,1.55,1.9,1.9,0,0,0,1.331.29h1v2.29h-6.464v-2.56a3.339,3.339,0,0,1,.869,1.2,0.466,0.466,0,0,0,.326.35,0.374,0.374,0,0,0,.272-0.24,12.194,12.194,0,0,0,1.14-4.13c0.082-.9.109-2.04,0.109-3.04h1Zm-3.721,12.62v-1.95H212.7v1.95h-6.464Zm0-12.62h1.032c0,0.81,0,1.68-.054,2.33a6.2,6.2,0,0,1-.978,3.23v-5.56Zm6.464,0v3.93h-0.408a0.481,0.481,0,0,1-.516-0.19,1.952,1.952,0,0,1-.081-0.92v-2.82h1Zm-3.748-2.15v-2.61h1v2.61h-1Zm7.821-2.58c0,0.25.027,0.27,0.3,0.27,0.163,0,.815-0.05,2.824-0.05h3.857v6h-4.128c-1.63,0-2.417-.05-2.58-0.05-0.3,0-.326.02-0.326,0.32,0,0.16.054,1.14,0.054,3.1v8.44a2.594,2.594,0,0,0,.679,2.18c0.571,0.51,1.657.7,4.237,0.7,2.553,0,3.856-.35,4.562-0.98,0.652-.59,1.168-1.43,1.331-3.91,0.054-.84.054-0.84-0.787-1.08a6.653,6.653,0,0,1-1.847-.76c-0.109,2.2-.217,3.09-0.625,3.55-0.407.44-1.222,0.55-2.525,0.55-1.223,0-1.766-.08-2.037-0.36a1.716,1.716,0,0,1-.245-1.22v-7.87h4.237V2446c0,0.27.027,0.3,0.3,0.3h2.172c0.3,0,.326-0.03.326-0.3,0-.16-0.054-0.98-0.054-2.91v-6.11c0-1.92.054-2.74,0.054-2.9,0-.27-0.027-0.3-0.326-0.3-0.163,0-.842.05-2.851,0.05H219.9c-2.009,0-2.661-.05-2.824-0.05-0.272,0-.3.03-0.3,0.3v2.17Zm21.213,21.43c0.3,0,.326-0.03.326-0.3v-1.03H249.2v0.89c0,0.28.027,0.3,0.3,0.3h2.308c0.3,0,.326-0.02.326-0.3,0-.13-0.054-0.87-0.054-4.78v-2.66c0-1.93.054-2.71,0.054-2.88,0-.27-0.027-0.3-0.326-0.3-0.163,0-1.113.06-3.72,0.06H239.4c-2.607,0-3.558-.06-3.72-0.06-0.272,0-.3.03-0.3,0.3,0,0.17.054,0.95,0.054,3.29v2.34c0,3.93-.054,4.67-0.054,4.83,0,0.27.027,0.3,0.3,0.3h2.308Zm0.326-8.53H249.2v4.73h-10.89v-4.73Zm-0.054-5.35c0,0.27.027,0.3,0.3,0.3,0.19,0,.9-0.06,3.069-0.06h4.21c2.172,0,2.906.06,3.068,0.06,0.272,0,.3-0.03.3-0.3v-1.9a29.527,29.527,0,0,0,5.3,3.04,1.714,1.714,0,0,0,.652.25c0.217,0,.326-0.19.489-0.71a7.2,7.2,0,0,1,1.14-2.06,24.514,24.514,0,0,1-11.6-8.29,0.85,0.85,0,0,1,.217-0.19,0.457,0.457,0,0,0,.272-0.41c0-.24-0.163-0.32-0.489-0.43-0.788-.19-1.793-0.35-2.852-0.52a8.273,8.273,0,0,1-1.059,1.93,24.165,24.165,0,0,1-10.456,8.31,6.649,6.649,0,0,1,1.277,1.82,0.837,0.837,0,0,0,.516.68,2.035,2.035,0,0,0,.624-0.27,33.381,33.381,0,0,0,5.025-3.2v1.95Zm3.367-2.28c-1.847,0-2.607-.03-2.933-0.06a26.578,26.578,0,0,0,4.943-5.13,24.168,24.168,0,0,0,5,5.16c-0.38,0-1.195.03-2.8,0.03h-4.21Zm28.448,1.96c-2.628,1.71-4.17,3.8-4.17,6.88,0,4.52,4.192,6.71,8.014,6.71,0.261,0,.348-0.13.413-0.45a7.82,7.82,0,0,0,.239-1.87c0-.24-0.13-0.33-0.478-0.33-3.779-.24-5.777-1.76-5.777-4.56,0-2.6,1.846-5.14,5.538-6.4a9.293,9.293,0,0,1,2.65-.48c0.282,0,.412-0.07.412-0.33a12.232,12.232,0,0,0-.239-1.91c-0.021-.15-0.13-0.28-0.456-0.24-5.6.74-10.381,1.46-13.052,1.85a31.269,31.269,0,0,1-3.453.37,14.775,14.775,0,0,0,.8,2.34,0.506,0.506,0,0,0,.413.33,1.2,1.2,0,0,0,.478-0.18c0.326-.1.543-0.15,1.368-0.34,2.324-.48,4.648-0.94,7.3-1.44v0.05Zm3.149,3.1a10.875,10.875,0,0,1,2.194,2.52,0.228,0.228,0,0,0,.369.07l0.912-.68a0.211,0.211,0,0,0,.065-0.34,9.889,9.889,0,0,0-2.063-2.33,0.219,0.219,0,0,0-.326-0.04Zm2-1.43a10.182,10.182,0,0,1,2.172,2.5,0.222,0.222,0,0,0,.369.06l0.869-.67a0.25,0.25,0,0,0,.065-0.39,9.112,9.112,0,0,0-2.063-2.24,0.218,0.218,0,0,0-.326-0.04Zm-189.251,41.8c2.417,0,3.232.06,3.395,0.06,0.3,0,.326-0.03.326-0.33v-1.9c0-.27-0.027-0.3-0.326-0.3-0.163,0-.978.06-3.395,0.06H78.8v-1.77h4.21c2.634,0,3.558.06,3.721,0.06,0.272,0,.3-0.03.3-0.3v-1.74c0-.27-0.027-0.3-0.3-0.3-0.163,0-1.086.05-3.721,0.05H78.8v-1.6h5.486c2.607,0,3.476.06,3.639,0.06,0.272,0,.3-0.03.3-0.3v-1.82c0-.3-0.027-0.33-0.3-0.33-0.163,0-1.032.06-3.639,0.06H81.925c0.353-.49.706-1.01,0.978-1.44a1.835,1.835,0,0,1,.462-0.55,0.528,0.528,0,0,0,.3-0.43,0.424,0.424,0,0,0-.353-0.38,25.47,25.47,0,0,0-2.77-.6,7.461,7.461,0,0,1-.462,1.39,19.427,19.427,0,0,1-1.114,2.01H73.642l1.467-.68c0.38-.19.38-0.25,0.19-0.57a12.847,12.847,0,0,0-1.521-2.01c-0.19-.22-0.244-0.25-0.57-0.11l-1.82.81a0.368,0.368,0,0,0-.272.25,0.585,0.585,0,0,0,.19.3,13.858,13.858,0,0,1,1.3,2.01H70.9c-2.634,0-3.5-.06-3.666-0.06-0.271,0-.3.03-0.3,0.33v1.82c0,0.27.027,0.3,0.3,0.3,0.163,0,1.032-.06,3.666-0.06H75.95v1.6H72.175c-2.634,0-3.558-.05-3.721-0.05-0.245,0-.272.03-0.272,0.3v1.74c0,0.27.027,0.3,0.272,0.3,0.163,0,1.086-.06,3.721-0.06H75.95v1.77H69.188c-2.417,0-3.232-.06-3.395-0.06-0.272,0-.3.03-0.3,0.3v1.9c0,0.3.027,0.33,0.3,0.33,0.163,0,.978-0.06,3.395-0.06H85.971Zm-0.706,4.35c2.5,0,3.368.05,3.531,0.05,0.272,0,.3-0.02.3-0.3v-1.87c0-.27-0.027-0.3-0.3-0.3-0.163,0-1.032.06-3.531,0.06H78.53a1.652,1.652,0,0,1,.244-0.66,0.66,0.66,0,0,0,.19-0.46c0-.21-0.19-0.32-0.516-0.38-0.788-.08-1.82-0.16-2.743-0.21a6.823,6.823,0,0,1-.054,1.71H69.975c-2.526,0-3.395-.06-3.558-0.06-0.272,0-.3.03-0.3,0.3v1.87c0,0.28.027,0.3,0.3,0.3,0.163,0,1.032-.05,3.558-0.05h4.807a5.352,5.352,0,0,1-1.439,1.68c-1.738,1.42-4.7,2.23-8.147,2.64a6.461,6.461,0,0,1,.978,1.79c0.217,0.57.272,0.73,0.6,0.73a2.64,2.64,0,0,0,.57-0.08,17.969,17.969,0,0,0,7.767-3.09,10.072,10.072,0,0,0,2.227-2.56c2.39,3.15,6.219,5,10.51,5.65,0.244,0.03.435,0.06,0.57,0.06,0.326,0,.353-0.17.6-0.74a7.2,7.2,0,0,1,1-1.87c-4.725-.38-8.256-1.79-10.32-4.21h5.567Zm12.9,6.25c0.272,0,.3-0.03.3-0.28v-1.35h13.09v1.3c0,0.24.028,0.27,0.3,0.27h2.417c0.245,0,.272-0.03.272-0.27,0-.16-0.055-1.49-0.055-8.23v-5.43c0-4.16.055-5.51,0.055-5.7,0-.28-0.027-0.3-0.272-0.3-0.19,0-1.14.05-3.775,0.05h-5.866c0.462-.81.869-1.6,1.249-2.36a2.43,2.43,0,0,1,.6-0.87,0.607,0.607,0,0,0,.326-0.49,0.494,0.494,0,0,0-.435-0.38c-0.95-.24-1.819-0.41-2.96-0.6a6.4,6.4,0,0,1-.407,1.58,26.472,26.472,0,0,1-1.467,3.12h-2.01c-2.634,0-3.585-.05-3.775-0.05-0.244,0-.272.02-0.272,0.3,0,0.19.054,1.54,0.054,6.35v4.81c0,6.76-.054,8.06-0.054,8.25,0,0.25.027,0.28,0.272,0.28h2.417Zm0.3-4.27v-5.32h13.09v5.32H98.466Zm0-13.03h13.09v5.13H98.466v-5.13Zm33.254,9a9.063,9.063,0,0,1-.977,4.26,55.323,55.323,0,0,1-3.714-4.88c2.823-.83,4-2.13,4-4.22,0-2.26-1.694-3.6-4.148-3.6-2.541,0-4.257,1.6-4.257,3.8a5.664,5.664,0,0,0,1.238,3.39c-2.454,1.12-3.583,2.58-3.583,4.9,0,3.04,2.3,5.06,5.646,5.06a6.445,6.445,0,0,0,4.452-1.43,4.055,4.055,0,0,0,3.54,1.41h0.739l0.543-1.95a3.254,3.254,0,0,1-3.041-1.15,9.174,9.174,0,0,0,1.868-5.09Zm-6.95.18a48.579,48.579,0,0,0,4.322,5.73,3.859,3.859,0,0,1-2.628.87,3.458,3.458,0,0,1-3.648-3.47A3.241,3.241,0,0,1,124.77,2489.43Zm1.347-2.22a4.716,4.716,0,0,1-1.043-2.69,1.807,1.807,0,0,1,1.8-1.89,1.667,1.667,0,0,1,1.715,1.76C128.592,2485.74,127.984,2486.58,126.117,2487.21Zm29.016-10.17h3.177v18.14a2.148,2.148,0,0,0,.733,1.99,4.8,4.8,0,0,0,2.309.38c1.466,0,2.145-.22,2.661-0.79,0.462-.55.734-1.41,0.842-4.54,0.027-.7.082-0.79-0.6-0.98a5.4,5.4,0,0,1-1.6-.7c-0.027,2.77-.135,3.91-0.353,4.1a0.674,0.674,0,0,1-.6.19,0.648,0.648,0,0,1-.516-0.16,1.21,1.21,0,0,1-.109-0.79v-14.5c0-3.02.055-4.54,0.055-4.73,0-.27-0.028-0.3-0.3-0.3-0.19,0-.788.06-2.662,0.06h-2.96c-1.847,0-2.39-.06-2.58-0.06-0.271,0-.3.03-0.3,0.3,0,0.14.028,1.14,0.028,3.07,0,2.85.027,4.51-.055,6.27-0.244,5.76-.869,8.97-2.58,11.22a2.094,2.094,0,0,0,.027-0.41c0-1.11-.027-2.5-0.027-3.75V2479c0-2.86.055-4.35,0.055-4.51,0-.27-0.028-0.3-0.3-0.3-0.19,0-.733.05-2.417,0.05h-2.662c-1.711,0-2.254-.05-2.417-0.05-0.3,0-.326.03-0.326,0.3,0,0.19.055,1.65,0.055,4.51v4.45c0,7.33-.6,10.1-2.227,12.71a5.534,5.534,0,0,1,1.575,1.36,0.985,0.985,0,0,0,.516.46,0.789,0.789,0,0,0,.462-0.54,19.576,19.576,0,0,0,2.036-7.93h3.069v4.48a0.794,0.794,0,0,1-.869.98,13.135,13.135,0,0,1-1.711-.11,6.359,6.359,0,0,1,.652,1.92c0.163,0.87.163,0.87,1,.85,1.575-.06,2.173-0.3,2.661-0.74a2.124,2.124,0,0,0,.544-0.73,8.871,8.871,0,0,1,1.412,1.14,1.247,1.247,0,0,0,.57.46,0.858,0.858,0,0,0,.489-0.49,15.149,15.149,0,0,0,2.553-6.43,61.031,61.031,0,0,0,.679-11.27v-2.53Zm-10.891,9.97c0.028-1.06.055-2.23,0.055-3.53v-0.44h2.851v3.97h-2.906Zm2.906-10.19v3.72H144.3v-3.72h2.851Zm27.894-2.93a6.494,6.494,0,0,1,.109,1.22c0,0.76-.109,1.99-0.218,2.96a40.885,40.885,0,0,1-5.268-.11c0.054,0.76.054,1.47,0.135,2.07,0.028,0.46.191,0.6,0.489,0.62a9.791,9.791,0,0,0,1.548.06c0.462,0,1.2.02,2.8-.03-0.055,1.03-.109,2.23-0.136,3.39-3.341,1.66-6.355,4.97-6.355,8.45,0,2.12,1.168,3.37,3.014,3.37,1.385,0,2.8-.63,4.726-1.96a5.168,5.168,0,0,0,.462,1.06c0.162,0.27.271,0.27,0.543,0.14a8.548,8.548,0,0,0,1.629-.95,0.453,0.453,0,0,0,.217-0.68,8.276,8.276,0,0,1-.488-1.22,28.85,28.85,0,0,0,5.132-7.12,4.057,4.057,0,0,1,3.368,3.94,4.673,4.673,0,0,1-2.173,4.07,15.592,15.592,0,0,1-5.051,1.99,6.85,6.85,0,0,1,1.6,1.68,0.847,0.847,0,0,0,1.195.52c4.318-1.17,7.55-3.73,7.55-7.66,0-3.4-2.064-5.71-5.567-6.63a2.29,2.29,0,0,1,.353-0.54,0.48,0.48,0,0,0,.163-0.33,0.919,0.919,0,0,0-.489-0.6,11.1,11.1,0,0,0-2.417-1,6.607,6.607,0,0,1-.462,1.98,16.561,16.561,0,0,0-4.155.6c0.027-.95.082-1.6,0.19-2.74a58.6,58.6,0,0,0,7.713-1.14,0.573,0.573,0,0,0,.57-0.55,8.326,8.326,0,0,0-.271-1.84c-0.055-.25-0.136-0.36-0.462-0.28a51.116,51.116,0,0,1-7.061,1.14c0.081-.46.136-0.86,0.217-1.35a2.118,2.118,0,0,1,.38-0.98,0.617,0.617,0,0,0,.136-0.44,0.556,0.556,0,0,0-.489-0.48A14.441,14.441,0,0,0,175.042,2473.89Zm2.444,15.7a29.153,29.153,0,0,1-.326-4.08,13.132,13.132,0,0,1,3.476-.62A25.031,25.031,0,0,1,177.486,2489.59Zm-2.987-2.85a35.183,35.183,0,0,0,.543,4.67,5.85,5.85,0,0,1-3.15,1.57,0.926,0.926,0,0,1-.9-1.03C171,2490.19,172.408,2488.23,174.5,2486.74Zm24.77-6.39c-1.385.44-2.906,0.82-3.829,1.04a13.431,13.431,0,0,1-1.983.24,14.507,14.507,0,0,0,1.059,2.5,0.653,0.653,0,0,0,.543.43,2.313,2.313,0,0,0,.788-0.38,25.428,25.428,0,0,1,3.259-1.08c-0.027.65-.027,1.17-0.027,1.84-1.657,2.34-3.069,4.27-5.323,7.15a0.7,0.7,0,0,0-.245.46,0.422,0.422,0,0,0,.163.3,8.654,8.654,0,0,0,1.684,1.52,0.749,0.749,0,0,0,.326.13,0.391,0.391,0,0,0,.3-0.27c1-1.55,2.091-3.23,3.15-4.89-0.081,2.45-.081,5.3-0.081,7.77,0,0.33.108,0.46,0.38,0.46a18.889,18.889,0,0,0,2.118-.11,0.33,0.33,0,0,0,.38-0.38c0-2.96-.081-6.87-0.108-10.29,1.412-1.63,2.688-2.91,3.8-3.99,1.331-1.2,2.254-1.77,3.042-1.77,0.543,0,.841.6,0.841,1.8,0,1.16-.054,2.06-0.19,4.45-0.135,2.31-.217,3.83-0.217,4.56,0,2.83,1.141,4.16,3.476,4.16a6.551,6.551,0,0,0,5.215-3.13,0.785,0.785,0,0,0,.19-0.46,1.015,1.015,0,0,0-.3-0.62,6.735,6.735,0,0,1-1-2.04,7.1,7.1,0,0,1-1.629,2.28,3.549,3.549,0,0,1-2.01.98c-0.679,0-1.005-.19-1.005-1.55,0-.84.136-2.06,0.272-4.56,0.19-2.5.217-4.16,0.217-4.94,0-2.26-1.222-3.62-3.259-3.62-1.276,0-2.77.63-4.916,2.67-1.059,1.03-1.656,1.65-2.525,2.63v-0.14c0.434-.89.9-1.73,1.412-2.58a0.532,0.532,0,0,0,.136-0.29,0.456,0.456,0,0,0-.245-0.38,8.571,8.571,0,0,0-1.032-.6c0.055-1.25.082-1.82,0.136-2.72a3.3,3.3,0,0,1,.245-1.33,1.1,1.1,0,0,0,.19-0.51,0.561,0.561,0,0,0-.571-0.55,15.514,15.514,0,0,0-3.1-.51,9.88,9.88,0,0,1,.272,2.63v3.69Zm41.391,6.06a34.519,34.519,0,0,1-.625,7.2,1.488,1.488,0,0,1-1.575,1.44,25.427,25.427,0,0,1-2.689-.19,5.007,5.007,0,0,1,.6,1.9c0.136,0.87.136,0.87,0.787,0.92,0.462,0.03,1,.03,1.44.03,2.716,0,3.775-.87,4.264-3.42a51.909,51.909,0,0,0,.6-8.07c0-.65.027-1.36,0.082-2.04,0-.27-0.082-0.35-0.381-0.35-0.163,0-.679.05-2.553,0.05h-4.372c0.081-1.03.109-2.11,0.136-3.34h5.024c2.58,0,3.476.06,3.639,0.06,0.272,0,.3-0.03.3-0.3v-2.09c0-.27-0.027-0.3-0.3-0.3-0.163,0-1.059.05-3.639,0.05h-2.824v-1.79a5.242,5.242,0,0,1,.135-1.82,1.362,1.362,0,0,0,.163-0.57,0.4,0.4,0,0,0-.434-0.27c-0.9-.11-1.765-0.19-2.8-0.22a16.136,16.136,0,0,1,.19,2.88v1.79H233.9c-2.308,0-3.2-.05-3.367-0.05-0.272,0-.3.03-0.3,0.3v2.09c0,0.27.027,0.3,0.3,0.3,0.136,0,.978-0.06,3.042-0.06a29.6,29.6,0,0,1-1.06,8.8,11.271,11.271,0,0,1-5.92,6.63,6.049,6.049,0,0,1,1.6,1.52,0.872,0.872,0,0,0,.6.52,1.735,1.735,0,0,0,.652-0.3,13.76,13.76,0,0,0,5.757-7.55,21.2,21.2,0,0,0,.788-3.75h4.671Zm-16.377-12.11c-1.412,0-2.118-.06-2.308-0.06-0.272,0-.3.03-0.3,0.33,0,0.16.055,2.01,0.055,5.78v11.71c0,3.75-.055,5.57-0.055,5.76,0,0.24.027,0.27,0.3,0.27h2.173c0.3,0,.326-0.03.326-0.27,0-.17-0.055-2.09-0.055-5.76V2476.8h3.042a34.253,34.253,0,0,1-2.471,6.13c1.928,2.45,2.552,3.75,2.552,5,0,1.66-.977,2.04-2.661,1.96a3.825,3.825,0,0,1,.6,1.82c0.109,0.84.109,0.84,0.978,0.76,2.634-.19,3.721-1.66,3.721-4.19,0-1.52-.353-3.15-2.363-5.56a55.9,55.9,0,0,0,2.281-5.35,2.007,2.007,0,0,1,.516-0.9,0.656,0.656,0,0,0,.272-0.46,3.964,3.964,0,0,0-1.765-1.87,0.561,0.561,0,0,0-.3.08,1.329,1.329,0,0,1-.543.08h-3.993Zm43.863,22.59c2.417,0,3.232.06,3.395,0.06,0.271,0,.3-0.03.3-0.3v-2.39c0-.27-0.027-0.3-0.3-0.3-0.163,0-.978.05-3.395,0.05H262.5v-8.88h3.422c2.824,0,3.829.06,4.019,0.06,0.272,0,.3-0.03.3-0.3v-2.36c0-.27-0.027-0.3-0.3-0.3-0.19,0-1.195.05-4.019,0.05H262.5v-5.18a9.332,9.332,0,0,1,.19-2.5,1.792,1.792,0,0,0,.163-0.63,0.43,0.43,0,0,0-.462-0.32c-0.95-.11-2.118-0.17-3.177-0.19a20.8,20.8,0,0,1,.244,3.66v16.89h-4.427v-11.35a7.725,7.725,0,0,1,.191-2.41,1.6,1.6,0,0,0,.135-0.55,0.424,0.424,0,0,0-.434-0.35c-0.951-.11-2.118-0.16-3.15-0.19a25.96,25.96,0,0,1,.217,3.8v11.05h-0.462c-2.417,0-3.259-.05-3.422-0.05-0.271,0-.3.03-0.3,0.3v2.39c0,0.27.028,0.3,0.3,0.3,0.163,0,1-.06,3.422-0.06h16.621Z" transform="translate(-61.063 -2432.59)"/>
  <path id="_トラネキサム酸_ビタミンE誘導体_" data-name="※トラネキサム酸＆ ビタミンE誘導体  " class="cls-2" d="M97.216,2529.72l6.644-6.7-0.534-.53-6.644,6.69-6.644-6.69-0.534.53,6.644,6.7-6.679,6.74L90,2537l6.679-6.74L103.4,2537l0.534-.54Zm-0.534-6.27a1.423,1.423,0,0,0-1.407,1.44,1.406,1.406,0,0,0,1.407,1.42,1.421,1.421,0,0,0,1.425-1.42A1.438,1.438,0,0,0,96.682,2523.45Zm-4.809,4.83a1.423,1.423,0,0,0-1.407,1.44,1.4,1.4,0,0,0,1.407,1.41,1.412,1.412,0,0,0,1.425-1.41A1.438,1.438,0,0,0,91.873,2528.28Zm9.6,0a1.423,1.423,0,0,0-1.407,1.44,1.4,1.4,0,0,0,1.407,1.41,1.412,1.412,0,0,0,1.425-1.41A1.438,1.438,0,0,0,101.473,2528.28Zm-4.791,4.86a1.423,1.423,0,0,0-1.407,1.44,1.406,1.406,0,0,0,1.407,1.42,1.421,1.421,0,0,0,1.425-1.42A1.438,1.438,0,0,0,96.682,2533.14Zm16.512-8.39a4.689,4.689,0,0,1,.125-1.69,0.965,0.965,0,0,0,.142-0.41,0.334,0.334,0,0,0-.338-0.31,13.127,13.127,0,0,0-2.227-.28,13.618,13.618,0,0,1,.178,2.65v8.83c0,1.15-.018,2.21-0.071,3.53,0,0.22.089,0.27,0.338,0.27a10.5,10.5,0,0,0,1.586,0c0.249,0,.338-0.05.32-0.27-0.035-1.29-.071-2.35-0.071-3.51v-3.97a19.671,19.671,0,0,1,4.684,2.3,0.282,0.282,0,0,0,.2.09,0.3,0.3,0,0,0,.232-0.2,10.614,10.614,0,0,0,.766-1.56,0.338,0.338,0,0,0-.2-0.47,24.878,24.878,0,0,0-5.664-2.44v-2.56Zm18.128,0.05c1.087,0,1.924.04,2.512,0.04,0.267,0.01.32-.06,0.32-0.36a9.088,9.088,0,0,0,0-1.4c0-.2-0.053-0.29-0.213-0.29-0.695.04-1.639,0.09-2.8,0.09h-3.206a23.82,23.82,0,0,1-2.921-.13,16,16,0,0,0,.089,1.73c0.018,0.28.071,0.39,0.249,0.39,0.748-.05,1.639-0.07,2.441-0.07h3.526Zm1.354,3.84a13.935,13.935,0,0,1-7.481,7.48,5.373,5.373,0,0,1,1.657.94,0.583,0.583,0,0,0,.391.21,0.861,0.861,0,0,0,.357-0.12,15.644,15.644,0,0,0,7.267-7.94,2.038,2.038,0,0,1,.605-0.84,0.431,0.431,0,0,0,.2-0.34,0.535,0.535,0,0,0-.178-0.38,10.767,10.767,0,0,0-1.193-1.11,0.457,0.457,0,0,0-.267-0.12,0.375,0.375,0,0,0-.232.1,1.967,1.967,0,0,1-.944.2h-6.109c-1.176,0-2.262-.04-3.278-0.14a13.755,13.755,0,0,0,.2,1.81c0.036,0.23.107,0.34,0.267,0.34,0.891-.05,1.782-0.07,2.672-0.07Zm16.32,1.7c0.962-.82,1.906-1.72,2.814-2.65a1.849,1.849,0,0,1,.57-0.41,0.362,0.362,0,0,0,.268-0.33,0.568,0.568,0,0,0-.107-0.3,6.825,6.825,0,0,0-.891-1.06,0.387,0.387,0,0,0-.3-0.14,0.519,0.519,0,0,0-.267.07,2.932,2.932,0,0,1-1.264.2l-5.166.05a16.925,16.925,0,0,1-2.476-.14,15.753,15.753,0,0,0,.2,1.75c0.036,0.24.107,0.35,0.3,0.35,0.73-.06,1.389-0.09,2.351-0.13l4.115-.09a24.954,24.954,0,0,1-3.456,2.91,33.582,33.582,0,0,1-5.735,3.23,4.151,4.151,0,0,1,1.425,1.09,0.5,0.5,0,0,0,.356.2,0.782,0.782,0,0,0,.3-0.09,30.734,30.734,0,0,0,4.9-3v2.32c0,1.49-.089,2.69-0.089,3.19,0,0.18.125,0.25,0.338,0.25a9.794,9.794,0,0,0,1.532,0c0.214,0,.339-0.07.339-0.23,0-.45-0.054-1.63-0.054-3.23v-3.81Zm-3.74-7.01a18.246,18.246,0,0,1,3.972,1.78,0.352,0.352,0,0,0,.2.07,0.285,0.285,0,0,0,.231-0.18c0.3-.49.535-0.94,0.73-1.33a0.218,0.218,0,0,0-.124-0.38,24.363,24.363,0,0,0-3.776-1.56,0.291,0.291,0,0,0-.374.16C145.933,2522.16,145.612,2522.75,145.256,2523.33Zm4.649,8.06a19.931,19.931,0,0,1,4.007,2.47,0.569,0.569,0,0,0,.25.13,0.315,0.315,0,0,0,.213-0.15,9.872,9.872,0,0,0,.873-1.29,0.43,0.43,0,0,0,.071-0.21,0.266,0.266,0,0,0-.16-0.22,19.061,19.061,0,0,0-3.883-2.19c-0.178-.07-0.231-0.09-0.356.07C150.688,2530.27,150.3,2530.81,149.905,2531.39Zm14.646-5.57-1.621.25c-1.229.2-2.209,0.33-3.17,0.4a15.113,15.113,0,0,0,.5,1.79,0.236,0.236,0,0,0,.339.18c0.481-.12,1.674-0.37,2.654-0.54l1.674-.26,0.445,2.31-2.493.41c-1.283.22-2.227,0.36-3.313,0.49,0.142,0.57.32,1.25,0.5,1.77a0.279,0.279,0,0,0,.41.2c0.677-.18,1.674-0.39,2.885-0.61l2.423-.43,0.445,2.12c0.249,1.15.445,2.4,0.57,3.07a0.272,0.272,0,0,0,.356.21,11.152,11.152,0,0,0,1.621-.38c0.16-.05.25-0.1,0.232-0.19-0.232-.9-0.535-2.05-0.784-3.25l-0.41-1.99,2.458-.43c1.265-.22,2.334-0.4,2.868-0.47a0.28,0.28,0,0,0,.267-0.3,10.111,10.111,0,0,0-.3-1.44c-0.017-.18-0.071-0.25-0.3-0.2a27.77,27.77,0,0,1-2.8.59l-2.582.45-0.446-2.29,1.568-.29c0.89-.16,2.155-0.36,2.974-0.5,0.178-.02.267-0.07,0.267-0.2a12.055,12.055,0,0,0-.356-1.54,0.223,0.223,0,0,0-.2-0.2c-0.926.25-2.173,0.47-3.188,0.65l-1.461.25-0.267-1.51a3.922,3.922,0,0,1-.035-1.29c0-.18-0.125-0.25-0.357-0.27a16.272,16.272,0,0,0-2.315.05,8.791,8.791,0,0,1,.712,2.24Zm24.442,0.58v-1.71a4.972,4.972,0,0,1,.143-1.58,0.954,0.954,0,0,0,.071-0.32c0-.14-0.071-0.23-0.321-0.29a17.251,17.251,0,0,0-2.084-.3,11.973,11.973,0,0,1,.161,2.46l-0.018,1.76h-3.83v-1.31a4.592,4.592,0,0,1,.125-1.73,1.208,1.208,0,0,0,.107-0.37,0.264,0.264,0,0,0-.267-0.26,19.207,19.207,0,0,0-2.173-.28,12.578,12.578,0,0,1,.214,2.64v1.31h-0.535c-1.371,0-2.529-.04-3.277-0.09a16.015,16.015,0,0,0,.125,1.74c0.017,0.23.071,0.34,0.213,0.34,0.552-.04,1.977-0.09,2.939-0.09h0.535V2529c0,1.13-.036,2.01-0.09,2.94-0.017.2,0.09,0.24,0.321,0.25a9.794,9.794,0,0,0,1.532,0c0.2-.01.321-0.05,0.3-0.25-0.054-.95-0.054-1.92-0.054-2.98v-0.64h3.794a8.707,8.707,0,0,1-1.051,4.57c-0.908,1.47-2.28,2.39-4.809,3.18a4.081,4.081,0,0,1,1.478,1.08,0.485,0.485,0,0,0,.339.19,1.423,1.423,0,0,0,.5-0.16,8.392,8.392,0,0,0,4.2-3.34,10.713,10.713,0,0,0,1.372-5.52h0.73c0.873,0,1.959.02,2.565,0.02,0.249,0.01.285-.06,0.3-0.29a9.615,9.615,0,0,0,0-1.42c-0.018-.2-0.036-0.3-0.25-0.29-0.819.04-1.817,0.06-2.689,0.06h-0.624Zm12.418-3.97a9.57,9.57,0,0,1-.516,2.46c-0.926,3.01-1.853,5.67-3.117,8.88a19.69,19.69,0,0,1-2.173-.02,16.892,16.892,0,0,0,.623,2.32,0.331,0.331,0,0,0,.517.18,5.725,5.725,0,0,1,2.084-.43c2.9-.31,5.61-0.61,8.46-1.04,0.214,0.46.41,0.93,0.624,1.43a0.3,0.3,0,0,0,.249.25,0.423,0.423,0,0,0,.214-0.05,9.094,9.094,0,0,0,1.353-.74,0.362,0.362,0,0,0,.232-0.3,0.435,0.435,0,0,0-.071-0.23,25.068,25.068,0,0,0-3.6-5.87,0.292,0.292,0,0,0-.428-0.11c-0.5.27-1.015,0.57-1.549,0.86a18.307,18.307,0,0,1,1.977,2.87c-2,.31-3.491.45-6.234,0.68,1.122-2.69,2.066-5.32,3.063-8.07a5.742,5.742,0,0,1,.731-1.49,0.6,0.6,0,0,0,.178-0.36,0.4,0.4,0,0,0-.214-0.29A9.872,9.872,0,0,0,201.411,2522.43Zm17.747,1.24c1.443,0,1.924.04,2.031,0.04,0.16,0,.178-0.02.178-0.22v-1.24c0-.19-0.018-0.21-0.178-0.21-0.107,0-.588.03-2.031,0.03h-3.135c-1.443,0-1.906-.03-2.013-0.03-0.178,0-.195.02-0.195,0.21v1.24c0,0.2.017,0.22,0.195,0.22,0.107,0,.57-0.04,2.013-0.04h0.071v1.7c-1.122,0-1.531-.03-1.638-0.03-0.178,0-.2.02-0.2,0.2,0,0.12.035,0.97,0.035,3.85v3.02c0,4.29-.035,5.09-0.035,5.22,0,0.16.018,0.18,0.2,0.18h1.051c0.178,0,.2-0.02.2-0.18v-1.17h3.615v0.76c0,0.18.018,0.19,0.178,0.19h1.051c0.178,0,.2-0.01.2-0.19,0-.04-0.018-0.2-0.018-0.58a4.066,4.066,0,0,1,.517.85c0.142,0.32.2,0.43,0.356,0.43a1.445,1.445,0,0,0,.41-0.11,11.338,11.338,0,0,0,3.58-1.87,10.172,10.172,0,0,0,3.509,1.76c0.552,0.15.57,0.15,0.73-.36a4.813,4.813,0,0,1,.588-1.29,11.447,11.447,0,0,1-3.6-1.29,9.547,9.547,0,0,0,1.514-2.28,2.016,2.016,0,0,1,.392-0.61,0.4,0.4,0,0,0,.2-0.3,1.483,1.483,0,0,0-.463-0.69,1.186,1.186,0,0,0-.695-0.52,0.68,0.68,0,0,0-.232.06,1.058,1.058,0,0,1-.391.07h-2.084l0.071-.15a2.488,2.488,0,0,1,.427-0.66,0.508,0.508,0,0,0,.2-0.34,0.344,0.344,0,0,0-.3-0.25,11.05,11.05,0,0,0-1.372-.34,4.393,4.393,0,0,1-.392,1.11,8.42,8.42,0,0,1-2.974,3.36v-4.17a4.56,4.56,0,0,1,.552.72,0.687,0.687,0,0,0,.427.47,0.8,0.8,0,0,0,.356-0.16,5.747,5.747,0,0,0,2.174-2.61,2.414,2.414,0,0,1,.32-0.61,0.278,0.278,0,0,0,.107-0.23c0-.07-0.053-0.14-0.267-0.21a11.185,11.185,0,0,0-1.389-.38,2.1,2.1,0,0,1-.2.82,3.549,3.549,0,0,1-2.084,2.01v-0.07c0-2.35.035-3.16,0.035-3.26,0-.18-0.018-0.2-0.2-0.2-0.124,0-.516.03-1.549,0.03v-1.7h0.16Zm-1.354,3.16v2.85a1.11,1.11,0,0,0,.357,1.01,1.425,1.425,0,0,0,.819.16h0.338v1.38H215.7v-1.4a4.243,4.243,0,0,1,.463.59,0.266,0.266,0,0,0,.178.16,0.3,0.3,0,0,0,.214-0.21,6.008,6.008,0,0,0,.659-2.59c0.017-.48.053-1.13,0.071-1.95H217.8Zm2.921,9.6c-0.017-.56-0.017-1.58-0.017-3.16a2.664,2.664,0,0,1,.659.75,0.574,0.574,0,0,0,.338.38,1,1,0,0,0,.41-0.25c0.409-.34.783-0.67,1.1-0.99a9.043,9.043,0,0,0,1.176,1.65A9.774,9.774,0,0,1,220.725,2536.43Zm-5.022-1.49v-1.22h3.615v1.22H215.7Zm11.132-3.07a8.848,8.848,0,0,1-1.3,1.9,7.194,7.194,0,0,1-1.354-1.79l0.071-.11h2.583Zm-11.132-5.04h0.587c0,0.55-.017,1.04-0.035,1.42a5.077,5.077,0,0,1-.552,2.27v-3.69Zm3.615,0v2.58h-0.089a0.472,0.472,0,0,1-.374-0.12,1.277,1.277,0,0,1-.071-0.63v-1.83h0.534Zm-2.03-1.46v-1.7H217.8v1.7h-0.516Zm9.244-2.58c-0.178.11-.2,0.18-0.071,0.32a11.105,11.105,0,0,1,.73.87c-1.015.1-2.013,0.19-2.992,0.25,0.213-.4.409-0.74,0.623-1.15a3.672,3.672,0,0,1,.445-0.67,0.371,0.371,0,0,0,.161-0.28,0.313,0.313,0,0,0-.285-0.29,11.923,11.923,0,0,0-1.55-.43,5.473,5.473,0,0,1-.338,1.2,13.746,13.746,0,0,1-.766,1.71c-0.463,0-.891,0-1.425-0.04,0.071,0.56.16,1.04,0.267,1.56a0.247,0.247,0,0,0,.249.25,0.5,0.5,0,0,0,.3-0.09,1.493,1.493,0,0,1,.659-0.14c1.924-.14,3.723-0.32,5.522-0.58,0.16,0.27.3,0.54,0.445,0.81,0.107,0.2.143,0.2,0.374,0.07l0.909-.53c0.231-.13.231-0.2,0.124-0.38a13.392,13.392,0,0,0-2.262-2.89c-0.125-.13-0.16-0.14-0.338-0.04Zm0.517,4.18a1.255,1.255,0,0,1,.089-0.61,0.45,0.45,0,0,0,.071-0.25c0-.07-0.054-0.14-0.267-0.16-0.517-.06-0.909-0.09-1.479-0.13a9.319,9.319,0,0,1,.072,1.42v0.83a1.176,1.176,0,0,0,.427,1.07c0.249,0.16.428,0.25,1.746,0.25a2.971,2.971,0,0,0,1.709-.35,1.568,1.568,0,0,0,.642-1.39c0.071-.46.035-0.48-0.374-0.61a2.588,2.588,0,0,1-.944-0.5,1.857,1.857,0,0,1-.268,1.24,1,1,0,0,1-.676.16,0.935,0.935,0,0,1-.624-0.11,0.443,0.443,0,0,1-.124-0.37v-0.49Zm16.5,2.66a7.471,7.471,0,0,1-.8,3.51,46.233,46.233,0,0,1-3.046-4.03c2.315-.69,3.277-1.76,3.277-3.48,0-1.87-1.389-2.98-3.4-2.98a3.191,3.191,0,0,0-3.491,3.14,4.7,4.7,0,0,0,1.015,2.8c-2.012.93-2.938,2.13-2.938,4.05,0,2.51,1.888,4.18,4.631,4.18a5.258,5.258,0,0,0,3.651-1.18,3.327,3.327,0,0,0,2.9,1.16h0.606l0.445-1.61a2.633,2.633,0,0,1-2.494-.95,7.593,7.593,0,0,0,1.532-4.2Zm-5.7.14a40,40,0,0,0,3.544,4.74,3.187,3.187,0,0,1-2.155.72,2.852,2.852,0,0,1-2.993-2.88A2.676,2.676,0,0,1,237.846,2529.77Zm1.1-1.83a3.9,3.9,0,0,1-.855-2.22,1.489,1.489,0,0,1,1.478-1.57,1.377,1.377,0,0,1,1.407,1.46C240.98,2526.72,240.482,2527.42,238.95,2527.94Zm-135.889,19.94a4.128,4.128,0,0,1,.178-1.62,0.767,0.767,0,0,0,.125-0.37,0.3,0.3,0,0,0-.285-0.29,15.384,15.384,0,0,0-2.245-.36,18.729,18.729,0,0,1,.178,3.28v6.62c0,1.48.375,2.32,1.265,2.7a8.786,8.786,0,0,0,3.384.48,35.531,35.531,0,0,0,5.29-.32c0.267-.02.374-0.09,0.374-0.33,0-.37-0.053-1.05-0.107-1.56-0.017-.21-0.053-0.28-0.32-0.25a30.869,30.869,0,0,1-5.023.41,9.45,9.45,0,0,1-2.244-.19c-0.463-.15-0.588-0.43-0.588-1.28v-2.38a46.123,46.123,0,0,0,6.109-2.23,10.452,10.452,0,0,1,1.479-.59,0.335,0.335,0,0,0,.3-0.32,0.541,0.541,0,0,0-.143-0.33,10.209,10.209,0,0,0-1.478-1.61,5.552,5.552,0,0,1-1.906,1.29,33.26,33.26,0,0,1-4.346,1.74v-2.49Zm6.5-2.03a8.885,8.885,0,0,1,1.8,2.08,0.183,0.183,0,0,0,.3.05l0.748-.55a0.184,0.184,0,0,0,.053-0.29,8.245,8.245,0,0,0-1.692-1.92c-0.107-.09-0.178-0.11-0.267-0.03Zm1.639-1.18a8.49,8.49,0,0,1,1.781,2.06,0.18,0.18,0,0,0,.3.05l0.712-.55a0.215,0.215,0,0,0,.054-0.33,7.55,7.55,0,0,0-1.693-1.84,0.183,0.183,0,0,0-.267-0.04Zm12.4,2c0.3-.46.409-0.64,0.552-0.89a1.475,1.475,0,0,1,.374-0.38,0.48,0.48,0,0,0,.214-0.36,0.325,0.325,0,0,0-.2-0.29,11.391,11.391,0,0,0-2.084-.87,6.673,6.673,0,0,1-.962,2.2,19.978,19.978,0,0,1-5.041,5.64,7.468,7.468,0,0,1,1.5.82,0.412,0.412,0,0,0,.285.13,0.634,0.634,0,0,0,.357-0.16,21.91,21.91,0,0,0,3.811-4.04l4.418-.09a17.347,17.347,0,0,1-2.084,3.55,17.218,17.218,0,0,0-2.3-1.43,0.435,0.435,0,0,0-.178-0.08,0.35,0.35,0,0,0-.232.13c-0.409.38-.783,0.84-1.175,1.27a15.645,15.645,0,0,1,2.565,1.69,21.534,21.534,0,0,1-6.555,4.86,5.09,5.09,0,0,1,1.692.92,0.52,0.52,0,0,0,.338.16,0.961,0.961,0,0,0,.446-0.16,21.58,21.58,0,0,0,5.682-4.49,20.129,20.129,0,0,1,1.727,1.74,0.281,0.281,0,0,0,.2.11,0.333,0.333,0,0,0,.214-0.09,10.342,10.342,0,0,0,1.1-1.13,0.338,0.338,0,0,0,.107-0.23,0.346,0.346,0,0,0-.107-0.25,15.882,15.882,0,0,0-1.923-1.82,27.561,27.561,0,0,0,2.618-4.34,2.229,2.229,0,0,1,.534-0.68,0.46,0.46,0,0,0,.2-0.34,0.418,0.418,0,0,0-.142-0.32,5.946,5.946,0,0,0-1.211-1.1,0.6,0.6,0,0,0-.321-0.14,0.5,0.5,0,0,0-.3.12,1.623,1.623,0,0,1-.979.27Zm12.805-.41a28.463,28.463,0,0,1,6.733,2.07,0.266,0.266,0,0,0,.427-0.13,14.7,14.7,0,0,0,.624-1.56c0.107-.23.071-0.32-0.214-0.45a32.646,32.646,0,0,0-6.341-1.88,0.329,0.329,0,0,0-.481.23C137.011,2544.83,136.619,2545.74,136.405,2546.26Zm-1.193,4.67a25.926,25.926,0,0,1,5.824,1.92,0.46,0.46,0,0,0,.232.07,0.332,0.332,0,0,0,.249-0.23,11.622,11.622,0,0,0,.588-1.39,0.348,0.348,0,0,0-.232-0.52,28.11,28.11,0,0,0-5.432-1.74,0.323,0.323,0,0,0-.463.18A18.2,18.2,0,0,0,135.212,2550.93Zm-0.285,5.33a31.937,31.937,0,0,1,8.8,2.98,0.545,0.545,0,0,0,.249.08,0.333,0.333,0,0,0,.267-0.21,14.346,14.346,0,0,0,.713-1.47,0.321,0.321,0,0,0-.179-0.49,30.427,30.427,0,0,0-8.531-2.8,0.4,0.4,0,0,0-.5.22A17.689,17.689,0,0,0,134.927,2556.26Zm15.067-8.9a18.992,18.992,0,0,1,3.634,2.92,0.362,0.362,0,0,0,.231.14,0.334,0.334,0,0,0,.214-0.14c0.249-.27.837-0.99,1.1-1.34a0.41,0.41,0,0,0,.107-0.24,0.42,0.42,0,0,0-.16-0.25,18.848,18.848,0,0,0-3.4-2.55,0.517,0.517,0,0,0-.232-0.09,0.34,0.34,0,0,0-.249.15C150.9,2546.32,150.386,2546.87,149.994,2547.36Zm0.392,8.95a12.391,12.391,0,0,0,1.425,1.99,0.449,0.449,0,0,0,.3.2,0.484,0.484,0,0,0,.32-0.18,6.4,6.4,0,0,1,1.194-.83,38.428,38.428,0,0,0,5.379-3.51,29.031,29.031,0,0,0,4.1-3.81,0.861,0.861,0,0,0,.285-0.53,0.922,0.922,0,0,0-.089-0.35,8.019,8.019,0,0,1-.5-2.09,27.163,27.163,0,0,1-4.881,4.88,26.5,26.5,0,0,1-5.13,3.33A10.381,10.381,0,0,1,150.386,2556.31Zm26.705-11.66h-9.12v13.92h9.262v-1.92h-6.857v-4.48h5.076v-1.92h-5.076v-3.68h6.715v-1.92Zm15.289,9.42a16.1,16.1,0,0,1-.642,2.04c-0.089.22,0,.27,0.285,0.29l0.944,0.05c0.321,0.02.41,0,.481-0.19l0.054-.16h0.837a5.638,5.638,0,0,1-.41,1.77,0.909,0.909,0,0,1-.89.32,13.079,13.079,0,0,1-1.782-.14,4.019,4.019,0,0,1,.339,1.04c0.107,0.59.125,0.63,0.641,0.65,0.374,0.02.606,0.02,0.944,0.02a2.145,2.145,0,0,0,2.066-.79,6.8,6.8,0,0,0,.748-2.84l0.143-1.26c0.018-.17-0.036-0.21-0.2-0.21-0.125,0-.356.04-1.015,0.04h-1.069c0.107-.38.2-0.79,0.3-1.22,0.071-.29.16-0.54,0.213-0.74,0.036-.13-0.035-0.2-0.213-0.2-0.107,0-.588.04-2,0.04H189.28c-1.246,0-1.62-.04-1.727-0.04-0.178,0-.2.02-0.2,0.18v1.17c0,0.2.018,0.21,0.2,0.21,0.089,0,.445-0.03,1.531-0.03a5.287,5.287,0,0,1-2.974,4.5v-2.94c0-.84.018-1.28,0.018-1.38,0-.18,0-0.2-0.161-0.2-0.124,0-.5.04-1.62,0.04h-1.336c-1.122,0-1.5-.04-1.6-0.04-0.2,0-.214.02-0.214,0.2,0,0.12.036,0.55,0.036,1.68v1.15c0,2.17-.036,2.59-0.036,2.71,0,0.16.018,0.18,0.214,0.18h1.264c0.178,0,.2-0.02.2-0.18v-0.82h1.621v0.48c0,0.18.018,0.2,0.2,0.2h1.282c0.161,0,.161-0.02.161-0.2,0-.05-0.018-0.29-0.018-0.79a3.939,3.939,0,0,1,.766.86,0.64,0.64,0,0,0,.356.4,1.077,1.077,0,0,0,.428-0.24,7.354,7.354,0,0,0,3.081-5.61h1.639Zm-7.891,1.5v1.92h-1.621v-1.92h1.621Zm9.529-6.81c1.675,0,2.245.03,2.351,0.03,0.2,0,.214-0.02.214-0.2v-1.13c0-.16-0.018-0.18-0.214-0.18-0.106,0-.676.04-2.351,0.04h-1.656v-1.47a21.194,21.194,0,0,0,2.084-.45,4.964,4.964,0,0,1,.979-0.2c0.25,0,.339-0.09.339-0.21a0.464,0.464,0,0,0-.125-0.31,11.752,11.752,0,0,0-1.051-1.06,4.911,4.911,0,0,1-1.175.44,27.894,27.894,0,0,1-6.377.8,3.437,3.437,0,0,1,.517.99c0.178,0.52.2,0.52,0.73,0.48,0.837-.05,1.6-0.12,2.315-0.21v1.2h-1.175c-1.674,0-2.244-.04-2.351-0.04-0.2,0-.214.02-0.214,0.18v1.13c0,0.18.018,0.2,0.214,0.2,0.107,0,.677-0.03,2.351-0.03h0.16a11.194,11.194,0,0,1-3.669,2.26,4.193,4.193,0,0,1,.623,1.02c0.143,0.32.2,0.45,0.321,0.45a1.242,1.242,0,0,0,.41-0.18,12.313,12.313,0,0,0,3.4-2.67c-0.018,1.22-.054,1.9-0.054,2.18,0,0.18.018,0.2,0.2,0.2h1.336c0.178,0,.2-0.02.2-0.2,0-.26-0.036-0.93-0.053-2.15a10.891,10.891,0,0,0,3.348,2.66,1.551,1.551,0,0,0,.428.18c0.124,0,.2-0.11.32-0.42a4.373,4.373,0,0,1,.624-1.07,10.775,10.775,0,0,1-3.794-2.26h0.8Zm-11.435-2.09c-1.353,0-1.763-.03-1.87-0.03-0.178,0-.2.02-0.2,0.2v1.27c0,0.2.018,0.22,0.2,0.22,0.107,0,.517-0.04,1.87-0.04h1.781c1.336,0,1.764.04,1.853,0.04,0.178,0,.2-0.02.2-0.22v-1.27c0-.18-0.018-0.2-0.2-0.2-0.089,0-.517.03-1.853,0.03h-1.781Zm0.481-2.45c-1.14,0-1.5-.04-1.6-0.04-0.178,0-.2.02-0.2,0.2v1.2c0,0.16.018,0.18,0.2,0.18,0.107,0,.463-0.04,1.6-0.04h1.3c1.122,0,1.479.04,1.586,0.04,0.178,0,.178-0.02.178-0.18v-1.2c0-.18,0-0.2-0.178-0.2-0.107,0-.464.04-1.586,0.04h-1.3Zm0.054,5c-1.069,0-1.39-.03-1.5-0.03-0.178,0-.2.01-0.2,0.19v1.17c0,0.18.018,0.2,0.2,0.2,0.107,0,.428-0.04,1.5-0.04h1.1c1.051,0,1.371.04,1.478,0.04,0.2,0,.214-0.02.214-0.2v-1.17c0-.18-0.018-0.19-0.214-0.19-0.107,0-.427.03-1.478,0.03h-1.1Zm0,2.43c-1.069,0-1.39-.04-1.5-0.04-0.178,0-.2.02-0.2,0.2v1.15c0,0.17.018,0.19,0.2,0.19,0.107,0,.428-0.03,1.5-0.03h1.1c1.051,0,1.371.03,1.478,0.03,0.2,0,.214-0.02.214-0.19v-1.15c0-.18-0.018-0.2-0.214-0.2-0.107,0-.427.04-1.478,0.04h-1.1Zm30.537,5.16c1.6,0,2.155.04,2.262,0.04,0.178,0,.2-0.02.2-0.2v-1.09c0-.2-0.018-0.22-0.2-0.22-0.107,0-.659.04-2.262,0.04H212.5v-0.74c1.016-.02,2.084-0.03,3.189-0.07,0.57-.02.57-0.02,0.676-0.59a4.08,4.08,0,0,1,.3-1.02c-2.44.17-4.934,0.23-7.445,0.23a12.3,12.3,0,0,1-3.277-.27,2.366,2.366,0,0,1-1.354-1.2v-2.14c0-.79.036-1.13,0.036-1.24,0-.18-0.018-0.19-0.214-0.19-0.107,0-.356.03-1.3,0.03h-1.158c-0.944,0-1.176-.03-1.3-0.03-0.161,0-.179.01-0.179,0.19v1.22c0,0.18.018,0.2,0.179,0.2,0.124,0,.356-0.03,1.3-0.03H202.9v1.88a8.938,8.938,0,0,1-1.639,1.02,6.843,6.843,0,0,1-1.015.4c0.249,0.62.427,1.06,0.659,1.54a0.312,0.312,0,0,0,.267.22,0.292,0.292,0,0,0,.249-0.17,1.445,1.445,0,0,1,.357-0.34,15.083,15.083,0,0,0,1.834-1.34,3.307,3.307,0,0,0,1.692,1.25,15.157,15.157,0,0,0,4.168.47h1.247v0.72h-7.8c-1.6,0-2.138-.04-2.245-0.04-0.16,0-.178.02-0.178,0.22v1.09c0,0.18.018,0.2,0.178,0.2,0.107,0,.642-0.04,2.245-0.04h7.8v1.03c0,0.41-.231.57-0.748,0.57-0.356,0-.98-0.02-1.621-0.07a4.179,4.179,0,0,1,.5,1.18c0.125,0.43.125,0.43,0.659,0.43a5.074,5.074,0,0,0,2.369-.32,1.326,1.326,0,0,0,.659-1.31c0-.52-0.036-0.97-0.036-1.51h1.158Zm-4.275-10.53a4.263,4.263,0,0,1-.231.65h-0.588c-1.567,0-2.12-.04-2.244-0.04-0.178,0-.2.02-0.2,0.2,0,0.11.035,0.5,0.035,1.49v2.19c0,0.98-.035,1.38-0.035,1.5,0,0.18.018,0.2,0.2,0.2,0.124,0,.677-0.04,2.244-0.04h3.687c1.567,0,2.12.04,2.244,0.04,0.161,0,.178-0.02.178-0.2,0-.1-0.035-0.52-0.035-1.5v-2.19c0-.99.035-1.38,0.035-1.49,0-.18-0.017-0.2-0.178-0.2-0.124,0-.677.04-2.244,0.04H210.93a6.164,6.164,0,0,0,.267-0.65h2.173c1.746,0,2.351.04,2.458,0.04,0.178,0,.2-0.02.2-0.2v-0.88c0-.18-0.018-0.2-0.2-0.2-0.107,0-.712.04-2.458,0.04H213l0.338-.5a1.48,1.48,0,0,1,.321-0.36,0.371,0.371,0,0,0,.2-0.29,0.242,0.242,0,0,0-.232-0.18c-0.463-.11-1.033-0.23-1.62-0.32a2.905,2.905,0,0,1-.321.86c-0.143.27-.3,0.52-0.481,0.79h-2.743l0.659-.29c0.2-.09.214-0.16,0.125-0.32a5.4,5.4,0,0,0-.748-0.97,0.272,0.272,0,0,0-.374-0.09l-0.962.39c-0.214.09-.285,0.13-0.16,0.29a4.641,4.641,0,0,1,.659.99c-1.728,0-2.316-.04-2.423-0.04-0.178,0-.2.02-0.2,0.2v0.9c0,0.18.018,0.18,0.2,0.18,0.107,0,.7-0.04,2.423-0.04h1.727Zm3.6,1.61v0.67H207.8v-0.67h5.183Zm0,3.56H207.8v-0.67h5.183v0.67Zm-5.183-1.46v-0.64h5.183v0.64H207.8Zm-6.7-5.18a0.328,0.328,0,0,0-.16.2,0.283,0.283,0,0,0,.124.14,12.375,12.375,0,0,1,1.977,2.15,0.3,0.3,0,0,0,.143.13,0.517,0.517,0,0,0,.231-0.15l0.962-.84a0.3,0.3,0,0,0,.125-0.21,0.316,0.316,0,0,0-.089-0.18,13.459,13.459,0,0,0-2.12-2.03c-0.142-.11-0.213-0.07-0.356.05Zm2.974,12.72a0.229,0.229,0,0,0-.178.16,0.306,0.306,0,0,0,.107.15,9.183,9.183,0,0,1,1.5,1.75c0.107,0.17.161,0.15,0.357,0.04l1.229-.72c0.2-.11.213-0.16,0.106-0.3a11.559,11.559,0,0,0-1.549-1.64,0.284,0.284,0,0,0-.41-0.01Zm24.054-8.5a16.607,16.607,0,0,1-4.666,6.22v-7.27a26.058,26.058,0,0,0,1.158-2.62,1.675,1.675,0,0,1,.356-0.71,0.418,0.418,0,0,0,.2-0.33,0.324,0.324,0,0,0-.285-0.26,11.539,11.539,0,0,0-1.728-.56,6.172,6.172,0,0,1-.267,1.27,15.8,15.8,0,0,1-3.384,5.83,5.142,5.142,0,0,1,.6,1.55c0.054,0.21.107,0.32,0.2,0.32a0.554,0.554,0,0,0,.321-0.23c0.356-.42.694-0.86,1.033-1.31-0.018.72-.018,1.43-0.018,2.03v4.07c0,1.76-.036,2.62-0.036,2.73,0,0.17.018,0.19,0.179,0.19H223.3c0.178,0,.195-0.02.195-0.19,0-.09-0.035-0.97-0.035-2.73v-1.72a5.521,5.521,0,0,1,.8,1.05,0.512,0.512,0,0,0,.285.35,0.864,0.864,0,0,0,.374-0.27,16.736,16.736,0,0,0,4.061-6c0,1.6-.017,3.2-0.053,4.6H228.59c-1.39,0-1.835-.04-1.942-0.04-0.178,0-.2.02-0.2,0.2v1.31c0,0.2.018,0.21,0.2,0.21,0.107,0,.552-0.03,1.942-0.03h0.32c-0.035,1.68-.071,2.89-0.071,3.07s0.018,0.19.214,0.19h1.531c0.179,0,.2-0.02.2-0.19s-0.035-1.37-.053-3.07h0.392c1.389,0,1.834.03,1.941,0.03,0.178,0,.2-0.01.2-0.21v-1.31c0-.18-0.018-0.2-0.2-0.2-0.107,0-.552.04-1.941,0.04h-0.41c-0.018-1.4-.035-3-0.035-4.62a17.557,17.557,0,0,0,4.15,6.03,0.8,0.8,0,0,0,.374.29,0.544,0.544,0,0,0,.285-0.38,4.621,4.621,0,0,1,.872-1.2,18.137,18.137,0,0,1-4.951-6.13h1.852c1.728,0,2.334.03,2.458,0.03,0.161,0,.178-0.02.178-0.2v-1.38c0-.2-0.017-0.2-0.178-0.2-0.124,0-.73.02-2.458,0.02h-2.529v-1.2a6.151,6.151,0,0,1,.107-1.81,0.953,0.953,0,0,0,.125-0.38,0.245,0.245,0,0,0-.285-0.18,16.2,16.2,0,0,0-1.871-.14,19.987,19.987,0,0,1,.125,2.55v1.16h-1.8c-1.745,0-2.333-.02-2.44-0.02-0.178,0-.2,0-0.2.2v1.38c0,0.18.018,0.2,0.2,0.2,0.107,0,.695-0.03,2.44-0.03h1Z" transform="translate(-61.063 -2432.59)"/>
  <path id="有効成分_トラネキサム酸_酢酸DL-α-_トコフェロール配合" data-name="有効成分：トラネキサム酸／ 酢酸DL-α- トコフェロール配合" class="cls-3" d="M85.906,2572.86c0-.11-0.016-0.13-0.112-0.13s-0.59.03-2.088,0.03h-5.9c0.159-.43.3-0.9,0.446-1.36a2.41,2.41,0,0,1,.271-0.61,0.483,0.483,0,0,0,.143-0.24,0.244,0.244,0,0,0-.223-0.2c-0.255-.06-0.621-0.14-1-0.19a5.791,5.791,0,0,1-.239,1.35c-0.111.42-.255,0.84-0.4,1.25h-2.6c-1.5,0-1.992-.03-2.088-0.03-0.112,0-.127.02-0.127,0.13v0.69c0,0.11.016,0.13,0.127,0.13,0.1,0,.59-0.03,2.088-0.03h2.247a12.586,12.586,0,0,1-4.606,5.53,2.086,2.086,0,0,1,.558.49,0.337,0.337,0,0,0,.223.17,0.563,0.563,0,0,0,.223-0.13,14.343,14.343,0,0,0,2.821-2.87v5.7c0,1.4-.032,1.83-0.032,1.91,0,0.11.016,0.13,0.144,0.13H76.5c0.112,0,.127-0.02.127-0.13,0-.08-0.032-0.51-0.032-1.91v-1.33h5.96v1.63a0.586,0.586,0,0,1-.717.66,14.008,14.008,0,0,1-1.466-.06,2.332,2.332,0,0,1,.319.69c0.08,0.32.08,0.32,0.382,0.32,1.323,0,1.769-.1,2.072-0.35a1.442,1.442,0,0,0,.382-1.14c0-.32-0.032-1.16-0.032-2.09v-3.19c0-1.39.032-2.01,0.032-2.09,0-.11-0.016-0.13-0.127-0.13-0.1,0-.733.03-2.183,0.03H76.551a15.013,15.013,0,0,0,.908-1.84h6.247c1.5,0,1.992.03,2.088,0.03s0.112-.02.112-0.13v-0.69Zm-3.347,7.53H76.6v-1.65h5.96v1.65Zm0-2.47H76.6v-1.59h5.96v1.59Zm17.327-3.74c0.032-.63.048-1.26,0.048-1.83a6.722,6.722,0,0,1,.1-1.45,1.543,1.543,0,0,0,.1-0.35,0.172,0.172,0,0,0-.175-0.16,7,7,0,0,0-1.068-.12,9.281,9.281,0,0,1,.127,1.98c0,0.66-.016,1.3-0.048,1.93H98.771c-1.307,0-1.721-.04-1.8-0.04-0.112,0-.127.02-0.127,0.13v0.66c0,0.11.016,0.13,0.127,0.13,0.08,0,.494-0.03,1.8-0.03h0.143a21.179,21.179,0,0,1-.653,4.06,8.489,8.489,0,0,1-3.793,4.94,1.841,1.841,0,0,1,.59.45,0.245,0.245,0,0,0,.462.03,9.331,9.331,0,0,0,3.6-5.07,22.338,22.338,0,0,0,.7-4.41h2.311a56.766,56.766,0,0,1-.415,7.33c-0.159.92-.382,1.1-0.924,1.1a8.936,8.936,0,0,1-1.625-.15,2.238,2.238,0,0,1,.223.69c0.048,0.34.048,0.34,0.351,0.35a10.576,10.576,0,0,0,1.164.05,1.564,1.564,0,0,0,1.721-1.6,53.473,53.473,0,0,0,.446-7.08c0-.47.016-0.93,0.032-1.43,0-.11-0.032-0.15-0.128-0.15s-0.51.04-1.816,0.04H99.887Zm-8.622,3.83c-0.1.1-.112,0.13-0.032,0.21,0.653,0.58,1.259,1.16,1.817,1.75a10.38,10.38,0,0,1-3.952,3.74,2.035,2.035,0,0,1,.462.45,0.409,0.409,0,0,0,.223.23,0.822,0.822,0,0,0,.239-0.12,11.179,11.179,0,0,0,3.634-3.61,20.5,20.5,0,0,1,1.243,1.64c0.08,0.11.127,0.11,0.271-.05l0.367-.38c0.112-.12.127-0.15,0.064-0.25-0.478-.59-0.972-1.18-1.5-1.76a11.586,11.586,0,0,0,.622-1.48,2.976,2.976,0,0,1,.287-0.69,0.721,0.721,0,0,0,.175-0.29,0.245,0.245,0,0,0-.175-0.19,5.483,5.483,0,0,0-.876-0.35,5.69,5.69,0,0,1-.335,1.44,7.523,7.523,0,0,1-.335.85,18.665,18.665,0,0,0-1.626-1.51c-0.1-.08-0.127-0.06-0.255.07Zm5.546-5.15c0-.11-0.016-0.13-0.127-0.13-0.1,0-.558.03-1.992,0.03h-0.94v-0.88a3.665,3.665,0,0,1,.1-1.17,0.73,0.73,0,0,0,.1-0.31,0.18,0.18,0,0,0-.191-0.13,9.73,9.73,0,0,0-1.052-.09,7.7,7.7,0,0,1,.128,1.7v0.88H91.663c-1.434,0-1.9-.03-1.976-0.03-0.112,0-.127.02-0.127,0.13v0.67c0,0.1.016,0.12,0.127,0.12,0.08,0,.542-0.04,1.976-0.04h3.028c1.434,0,1.9.04,1.992,0.04,0.112,0,.127-0.02.127-0.12v-0.67Zm-4.446,2.01a0.221,0.221,0,0,0-.143-0.18,4.778,4.778,0,0,0-.892-0.42,2.177,2.177,0,0,1-.207.72,7.679,7.679,0,0,1-1.865,2.46,1.119,1.119,0,0,1,.526.37,0.466,0.466,0,0,0,.223.18,0.554,0.554,0,0,0,.223-0.18,11.131,11.131,0,0,0,1.673-2.36,1.169,1.169,0,0,1,.319-0.4A0.24,0.24,0,0,0,92.365,2574.87Zm2.056-.23c-0.143.07-.175,0.11-0.112,0.23a15.5,15.5,0,0,0,1.928,2.68,0.411,0.411,0,0,0,.239.19,0.372,0.372,0,0,0,.207-0.16,1.3,1.3,0,0,1,.542-0.4,10.47,10.47,0,0,1-2.136-2.72c-0.064-.11-0.08-0.11-0.239-0.03Zm23.989-.74c1.594,0,2.12.03,2.216,0.03,0.111,0,.127-0.01.127-0.12v-0.69c0-.13-0.016-0.15-0.127-0.15-0.1,0-.622.03-2.216,0.03h-2.677c0-.25-0.016-0.53-0.016-0.82a4.254,4.254,0,0,1,.1-1.39,0.526,0.526,0,0,0,.063-0.26,0.22,0.22,0,0,0-.207-0.16c-0.35-.05-0.685-0.08-1.052-0.1a14.11,14.11,0,0,1,.128,1.96c0,0.28.016,0.53,0.016,0.77h-4.128c-1.593,0-2.151-.03-2.231-0.03-0.127,0-.143.02-0.143,0.15,0,0.08.032,0.98,0.032,3.19a26.2,26.2,0,0,1-.208,3.73,8.892,8.892,0,0,1-1.37,3.93,2.53,2.53,0,0,1,.574.45,0.407,0.407,0,0,0,.207.17,0.4,0.4,0,0,0,.175-0.2,10.619,10.619,0,0,0,1.355-3.99,20.766,20.766,0,0,0,.223-3.01h2.98a19.3,19.3,0,0,1-.239,3.09,0.784,0.784,0,0,1-.845.82,8.525,8.525,0,0,1-1.466-.14,2.034,2.034,0,0,1,.255.67c0.064,0.34.064,0.36,0.319,0.39a7.076,7.076,0,0,0,1,.05,1.515,1.515,0,0,0,1.609-1.37,14.827,14.827,0,0,0,.271-2.6c0.032-.56.064-1.11,0.1-1.67,0-.11-0.032-0.14-0.144-0.14-0.079,0-.366.03-1.37,0.03h-2.454v-2.62h5.562a20.206,20.206,0,0,0,1.306,6.44,12.256,12.256,0,0,1-3.952,3.4,2.434,2.434,0,0,1,.478.42,0.443,0.443,0,0,0,.271.23,0.587,0.587,0,0,0,.239-0.1,12.9,12.9,0,0,0,3.411-2.97c0.94,1.89,2.008,3.03,3.028,3.03,0.86,0,1.37-.77,1.545-2.5,0.032-.31.016-0.32-0.27-0.48a2.355,2.355,0,0,1-.558-0.42c-0.064,1.69-.335,2.3-0.765,2.3-0.59,0-1.578-1.05-2.343-2.8a17.731,17.731,0,0,0,1.769-3.21,4.283,4.283,0,0,1,.383-0.77,0.558,0.558,0,0,0,.191-0.3,0.263,0.263,0,0,0-.191-0.21,5.012,5.012,0,0,0-.893-0.34,5.822,5.822,0,0,1-.43,1.45,14.869,14.869,0,0,1-1.243,2.36,19.382,19.382,0,0,1-1.02-5.53h2.629Zm-1.036-3.08c-0.159.13-.143,0.18-0.031,0.26a6.12,6.12,0,0,1,1.482,1.41c0.079,0.11.143,0.1,0.3-.05l0.335-.27c0.144-.13.144-0.18,0.064-0.26a7.868,7.868,0,0,0-1.578-1.38c-0.095-.06-0.127-0.05-0.255.05Zm11.782,5.8c-1.546,0-2.056-.04-2.136-0.04-0.111,0-.127.02-0.127,0.13v0.71c0,0.11.016,0.13,0.127,0.13,0.08,0,.59-0.04,2.136-0.04h0.717a6.931,6.931,0,0,1-4.765,6.3,1.806,1.806,0,0,1,.51.53,0.374,0.374,0,0,0,.239.24,0.689,0.689,0,0,0,.223-0.08,7.808,7.808,0,0,0,4.8-6.99h3.554a29.639,29.639,0,0,1-.351,4.58,1.142,1.142,0,0,1-1.227,1.2,9.8,9.8,0,0,1-1.817-.16,1.96,1.96,0,0,1,.319.76c0.064,0.35.064,0.35,0.383,0.37a10.339,10.339,0,0,0,1.275.05,1.884,1.884,0,0,0,2.039-1.83,28.807,28.807,0,0,0,.383-4.05c0.032-.67.032-1.2,0.064-1.7a0.121,0.121,0,0,0-.144-0.15c-0.1,0-.605.04-2.167,0.04h-4.032Zm1.211-5.41a0.29,0.29,0,0,0-.207-0.25,7.543,7.543,0,0,0-1.02-.38,3.531,3.531,0,0,1-.255.95,13.033,13.033,0,0,1-4.972,5.6,1.822,1.822,0,0,1,.557.53,0.376,0.376,0,0,0,.224.21,0.58,0.58,0,0,0,.239-0.15,15.024,15.024,0,0,0,5.02-5.98,0.876,0.876,0,0,1,.287-0.36A0.288,0.288,0,0,0,130.366,2571.21Zm2.151-.36c-0.159.08-.207,0.08-0.143,0.21a16.905,16.905,0,0,0,5.45,6.6,0.565,0.565,0,0,0,.224.13,0.457,0.457,0,0,0,.191-0.23,2.664,2.664,0,0,1,.558-0.64,13.771,13.771,0,0,1-5.546-6.28c-0.048-.12-0.064-0.14-0.255-0.04Zm12.337,2.23a1.106,1.106,0,0,0-1.115,1.13,1.116,1.116,0,1,0,2.231,0A1.106,1.106,0,0,0,144.854,2573.08Zm0,6.51a1.109,1.109,0,0,0-1.115,1.12,1.116,1.116,0,1,0,2.231,0A1.11,1.11,0,0,0,144.854,2579.59Zm10.846-6.3a6.8,6.8,0,0,1,.111-1.78c0.08-.24.144-0.42-0.111-0.48a6.391,6.391,0,0,0-1.323-.21,13.737,13.737,0,0,1,.175,2.57v7.14c0,0.98-.016,2.23-0.064,3.26,0,0.18.048,0.23,0.223,0.23,0.255,0.01.574,0.01,0.813,0,0.176,0,.223-0.05.207-0.21-0.015-1.05-.047-2.3-0.047-3.28v-3.72a17.673,17.673,0,0,1,4.637,2.15c0.144,0.1.207,0.06,0.3-.06a5.207,5.207,0,0,0,.382-0.79,0.183,0.183,0,0,0-.111-0.26,22.292,22.292,0,0,0-5.2-2.23v-2.33Zm16.414-.41c0.972,0,1.641.03,2.374,0.03,0.175,0.01.207-.03,0.207-0.21a5.4,5.4,0,0,0,0-.72c0-.15-0.032-0.2-0.175-0.2-0.765.05-1.466,0.08-2.47,0.08h-2.47a21.248,21.248,0,0,1-2.6-.11,8.578,8.578,0,0,0,.08.96c0.016,0.18.047,0.25,0.191,0.23,0.7-.05,1.418-0.06,2.263-0.06h2.6Zm2.151,3.33a13.16,13.16,0,0,1-6.932,7.15,2.792,2.792,0,0,1,.892.5,0.328,0.328,0,0,0,.43.03,13.994,13.994,0,0,0,6.726-7.24,1.263,1.263,0,0,1,.366-0.55c0.175-.13.191-0.22,0.032-0.43a3.454,3.454,0,0,0-.59-0.58,0.32,0.32,0,0,0-.43-0.02,1.743,1.743,0,0,1-.781.12h-5.705a26.346,26.346,0,0,1-2.646-.12,7.575,7.575,0,0,0,.112,1.02,0.193,0.193,0,0,0,.239.2c0.653-.06,1.355-0.08,2.247-0.08h6.04Zm13.459,1.59a33.519,33.519,0,0,0,2.613-2.45,2.033,2.033,0,0,1,.415-0.31c0.207-.09.271-0.22,0.143-0.41a3.318,3.318,0,0,0-.51-0.6,0.275,0.275,0,0,0-.382-0.05,2.275,2.275,0,0,1-1.243.15l-4.128.01a21.839,21.839,0,0,1-2.47-.11c0.032,0.4.1,0.77,0.143,1.04a0.2,0.2,0,0,0,.255.18c0.558-.05,1.212-0.1,2.008-0.11l4.574-.05a22.388,22.388,0,0,1-3.107,2.76,31.674,31.674,0,0,1-5.69,3.33,2.117,2.117,0,0,1,.8.53,0.3,0.3,0,0,0,.414.04,35.622,35.622,0,0,0,5.052-3.11v2.58c0,1.08-.048,2.09-0.079,2.81a0.2,0.2,0,0,0,.223.23c0.239,0.01.557,0.01,0.8,0a0.2,0.2,0,0,0,.223-0.21c-0.032-.71-0.048-1.72-0.048-2.84v-3.41Zm-2.709-6.34a17.484,17.484,0,0,1,3.3,1.45c0.144,0.11.224,0.08,0.3-.08a5.756,5.756,0,0,0,.383-0.61,0.175,0.175,0,0,0-.08-0.29,18.758,18.758,0,0,0-3.139-1.32,0.231,0.231,0,0,0-.319.1C185.365,2570.87,185.174,2571.19,185.015,2571.46Zm3.968,7.19a16.037,16.037,0,0,1,3.586,2.22c0.159,0.11.191,0.13,0.3,0a7.161,7.161,0,0,0,.478-0.69c0.08-.14.048-0.19-0.079-0.29a18.484,18.484,0,0,0-3.554-2.02c-0.128-.05-0.159-0.05-0.239.06C189.365,2578.09,189.174,2578.38,188.983,2578.65Zm13.426-4.46-1.817.31a25.424,25.424,0,0,1-2.6.32c0.063,0.25.207,0.75,0.286,0.96a0.168,0.168,0,0,0,.24.13c0.573-.16,1.37-0.32,2.231-0.47l1.864-.3,0.558,2.66-2.63.45c-1,.18-1.816.31-2.709,0.39,0.08,0.3.191,0.67,0.287,0.95a0.188,0.188,0,0,0,.287.14c0.7-.18,1.418-0.35,2.359-0.51l2.6-.45,0.478,2.26c0.192,0.92.383,1.88,0.51,2.59,0.016,0.14.08,0.19,0.239,0.16a6.021,6.021,0,0,0,.765-0.18,0.184,0.184,0,0,0,.128-0.26c-0.191-.75-0.414-1.65-0.606-2.58l-0.462-2.2,2.63-.48c0.86-.16,1.689-0.31,2.326-0.4a0.2,0.2,0,0,0,.16-0.25c-0.048-.24-0.1-0.46-0.16-0.7-0.031-.11-0.063-0.15-0.207-0.11-0.653.17-1.4,0.33-2.295,0.49l-2.661.49-0.542-2.62,1.865-.34c0.733-.13,1.673-0.29,2.422-0.42,0.143-.01.175-0.06,0.159-0.17a6.738,6.738,0,0,0-.175-0.76,0.131,0.131,0,0,0-.175-0.11c-0.765.19-1.658,0.35-2.454,0.5l-1.849.33-0.255-1.36a3.217,3.217,0,0,1-.064-1.32c0.032-.14-0.032-0.25-0.255-0.29a6.8,6.8,0,0,0-1.338.02,5.773,5.773,0,0,1,.573,1.72Zm20.948,0.66,0.016-1.48a5.188,5.188,0,0,1,.128-1.72c0.095-.22.079-0.36-0.16-0.43a9.448,9.448,0,0,0-1.2-.21,13.706,13.706,0,0,1,.144,2.41l-0.016,1.43H218.21v-1.32a5.845,5.845,0,0,1,.127-1.6c0.1-.21.16-0.39-0.079-0.45a6.635,6.635,0,0,0-1.291-.19,10.7,10.7,0,0,1,.175,2.24v1.32h-0.813c-1.02,0-1.864-.02-2.693-0.06,0.016,0.35.032,0.69,0.064,0.91,0.032,0.18.032,0.24,0.175,0.23,0.685-.04,1.61-0.07,2.454-0.07h0.813v0.82c0,0.92-.032,1.73-0.064,2.55,0,0.16.048,0.2,0.192,0.2,0.239,0.01.573,0.01,0.8,0,0.144,0,.192-0.04.192-0.18-0.032-.85-0.048-1.7-0.048-2.6v-0.79h4.064a9.052,9.052,0,0,1-.972,4.54,6.976,6.976,0,0,1-4.272,2.99,2.215,2.215,0,0,1,.829.61c0.144,0.15.191,0.11,0.43,0.02a7.332,7.332,0,0,0,3.921-3.09,10.057,10.057,0,0,0,1.131-5.07h0.606c0.892,0,1.737-.01,2.55.02,0.175,0.01.207-.03,0.207-0.2a4.965,4.965,0,0,0,0-.69c0-.14-0.016-0.19-0.191-0.19-0.877.05-1.689,0.05-2.582,0.05h-0.574Zm11.883-3.55a9.466,9.466,0,0,1-.494,2.47c-0.542,1.77-1.705,4.92-2.853,7.66a11.985,11.985,0,0,1-1.88.02,10.952,10.952,0,0,0,.382,1.33c0.1,0.23.287,0.21,0.51,0.06a5.268,5.268,0,0,1,1.626-.3c2.821-.31,5.339-0.58,7.841-0.96,0.239,0.43.462,0.91,0.669,1.36,0.08,0.18.159,0.21,0.287,0.15,0.223-.12.462-0.25,0.7-0.39a0.219,0.219,0,0,0,.08-0.32,23.559,23.559,0,0,0-3.092-4.96c-0.1-.13-0.159-0.18-0.319-0.08-0.239.13-.494,0.3-0.749,0.45a17.367,17.367,0,0,1,1.929,2.81c-2.1.32-4.638,0.54-6.789,0.72,1.115-2.54,2.2-5.46,2.98-7.8a3.114,3.114,0,0,1,.573-1.17c0.176-.21.16-0.39,0.016-0.49A5.479,5.479,0,0,0,235.24,2571.3Zm17.266-.21c0-.11-0.016-0.13-0.128-0.13-0.079,0-.51.04-1.848,0.04h-2.6c-1.339,0-1.753-.04-1.833-0.04-0.111,0-.127.02-0.127,0.13v0.61c0,0.12.016,0.13,0.127,0.13,0.08,0,.494-0.03,1.833-0.03h0.175v1.96c-1.083,0-1.466-.03-1.546-0.03-0.111,0-.127.01-0.127,0.12s0.032,0.76.032,3.38v2.71c0,3.63-.032,4.25-0.032,4.35s0.016,0.11.127,0.11h0.574c0.112,0,.128-0.01.128-0.11v-1.45h3.824v0.53c0,0.12.016,0.13,0.128,0.13h0.558c0.111,0,.127-0.01.127-0.13,0-.08-0.032-0.54-0.032-3.99v-2.73c0-2.11.032-2.7,0.032-2.8s-0.016-.12-0.127-0.12-0.478.03-1.514,0.03v-1.96h0.271c1.338,0,1.769.03,1.848,0.03,0.112,0,.128-0.01.128-0.13v-0.61Zm-1.419,8.74h-3.824v-1.21a1.669,1.669,0,0,1,.366.32,0.269,0.269,0,0,0,.144.12,0.287,0.287,0,0,0,.143-0.15,5.134,5.134,0,0,0,.781-2.23c0.032-.39.08-1.19,0.1-2.2h0.78v2.75a1.055,1.055,0,0,0,.3.91,1.2,1.2,0,0,0,.829.23h0.382v1.46Zm0,2.2h-3.824v-1.4h3.824v1.4Zm-2.98-7.55c0,0.61-.016,1.27-0.079,1.93a3.9,3.9,0,0,1-.765,2.2v-4.13h0.844Zm2.98,3.1h-0.27a0.484,0.484,0,0,1-.463-0.18,1.139,1.139,0,0,1-.111-0.62v-2.3h0.844v3.1Zm-1.514-3.82h-0.78v-1.96h0.78v1.96Zm5.786,4.57,0.239-.46a2.312,2.312,0,0,1,.35-0.53,0.326,0.326,0,0,0,.144-0.23c0-.06-0.032-0.11-0.192-0.17a4.347,4.347,0,0,0-.8-0.26,3.325,3.325,0,0,1-.367,1.14,9,9,0,0,1-2.741,3.32,1.483,1.483,0,0,1,.4.36,0.367,0.367,0,0,0,.207.21,0.435,0.435,0,0,0,.24-0.15,11.052,11.052,0,0,0,1.466-1.52,8.1,8.1,0,0,0,1.322,1.94,9.41,9.41,0,0,1-4.063,1.96,1.42,1.42,0,0,1,.4.53c0.08,0.17.112,0.24,0.207,0.24a0.875,0.875,0,0,0,.255-0.07,10.17,10.17,0,0,0,3.841-2.05,10.342,10.342,0,0,0,3.522,1.89,1.787,1.787,0,0,0,.239.07c0.08,0,.127-0.07.191-0.26a1.9,1.9,0,0,1,.383-0.67,10.4,10.4,0,0,1-3.7-1.64,10.1,10.1,0,0,0,1.626-2.39,1.092,1.092,0,0,1,.287-0.44,0.277,0.277,0,0,0,.159-0.21,0.779,0.779,0,0,0-.271-0.4,0.738,0.738,0,0,0-.43-0.3,0.266,0.266,0,0,0-.144.05,0.834,0.834,0,0,1-.334.04h-2.438Zm2.422,0.76a7.944,7.944,0,0,1-1.53,2.33,7.755,7.755,0,0,1-1.45-2.09l0.143-.24h2.837Zm-0.51-7.6c-0.144.12-.159,0.15-0.064,0.25a7.572,7.572,0,0,1,.94.93c-1.243.12-2.326,0.22-3.522,0.3,0.287-.53.479-0.91,0.734-1.41a3.825,3.825,0,0,1,.366-0.63,0.327,0.327,0,0,0,.143-0.22,0.243,0.243,0,0,0-.223-0.21,4.455,4.455,0,0,0-.844-0.27,4.324,4.324,0,0,1-.287,1.07,15.719,15.719,0,0,1-.813,1.72,9.164,9.164,0,0,1-1.386-.02,8.044,8.044,0,0,0,.191.89,0.2,0.2,0,0,0,.159.17,0.4,0.4,0,0,0,.223-0.08,1.583,1.583,0,0,1,.622-0.11c1.96-.14,3.458-0.29,5.195-0.51,0.207,0.29.4,0.57,0.59,0.86a0.147,0.147,0,0,0,.111.1,0.374,0.374,0,0,0,.192-0.1l0.35-.22c0.176-.13.176-0.16,0.1-0.27a12.234,12.234,0,0,0-2.247-2.46c-0.08-.08-0.112-0.1-0.239,0Zm0.1,3.63a1.706,1.706,0,0,1,.079-0.7,0.35,0.35,0,0,0,.064-0.2,0.16,0.16,0,0,0-.159-0.14l-0.893-.1a6.756,6.756,0,0,1,.064,1.16v0.83a0.919,0.919,0,0,0,.351.89,2.562,2.562,0,0,0,1.37.21,2.588,2.588,0,0,0,1.355-.2,1.486,1.486,0,0,0,.6-1.2c0.032-.24.032-0.29-0.207-0.4a2,2,0,0,1-.494-0.34,1.382,1.382,0,0,1-.4,1.22,1.707,1.707,0,0,1-.861.11,1.085,1.085,0,0,1-.749-0.13,0.48,0.48,0,0,1-.127-0.43v-0.58Zm-2.12-.56c0-.06-0.048-0.1-0.207-0.16-0.207-.06-0.478-0.13-0.8-0.19a2.044,2.044,0,0,1-.128.83,3.073,3.073,0,0,1-2.167,2.14,1.58,1.58,0,0,1,.383.43,0.372,0.372,0,0,0,.239.26,0.513,0.513,0,0,0,.223-0.08,4.02,4.02,0,0,0,2.135-2.49,1.659,1.659,0,0,1,.255-0.56A0.212,0.212,0,0,0,255.247,2574.56Zm8.658,10.29,13.673-14.25-0.589-.58-13.69,14.27ZM71.1,2591.19c0-.11-0.016-0.13-0.143-0.13-0.08,0-.526.03-1.944,0.03H66.125c-1.418,0-1.865-.03-1.944-0.03-0.112,0-.127.02-0.127,0.13v0.63c0,0.11.016,0.12,0.127,0.12,0.08,0,.526-0.03,1.944-0.03h0.287v1.94c-1.179,0-1.578-.03-1.673-0.03-0.112,0-.127.02-0.127,0.13s0.032,0.76.032,3.4v2.69c0,3.78-.032,4.41-0.032,4.51s0.016,0.11.127,0.11h0.59c0.112,0,.127,0,0.127-0.11v-0.97h4.271v0.6c0,0.11.016,0.13,0.127,0.13h0.59c0.112,0,.127-0.02.127-0.13,0-.08-0.032-0.71-0.032-4.37v-2.87c0-2.25.032-2.89,0.032-2.99s-0.016-.13-0.127-0.13c-0.1,0-.51.03-1.737,0.03v-1.94h0.3c1.418,0,1.865.03,1.944,0.03,0.127,0,.143-0.01.143-0.12v-0.63Zm-1.37,9.13H65.456v-5.71h0.956a13.031,13.031,0,0,1-.08,1.83,4.3,4.3,0,0,1-.8,2.3,1.376,1.376,0,0,1,.414.38,0.262,0.262,0,0,0,.159.14,0.209,0.209,0,0,0,.127-0.12,5.257,5.257,0,0,0,.8-2.32,18.453,18.453,0,0,0,.1-2.21H67.99v2.76a1.2,1.2,0,0,0,.3.98,1.315,1.315,0,0,0,.813.21c0.191,0,.4,0,0.622-0.02v1.78Zm0,2.43H65.456v-1.62h4.271v1.62Zm0-5.03a3.454,3.454,0,0,1-.446.02,0.636,0.636,0,0,1-.51-0.18,1.608,1.608,0,0,1-.064-0.72v-2.23h1.02v3.11Zm-1.737-3.87H67.129v-1.94H67.99v1.94Zm10.359-.7c0-.11-0.016-0.13-0.111-0.13s-0.542.03-1.944,0.03H73.249c0.239-.54.43-1.07,0.606-1.59a1.968,1.968,0,0,1,.3-0.66,0.274,0.274,0,0,0,.1-0.22,0.234,0.234,0,0,0-.191-0.16,5.87,5.87,0,0,0-.924-0.24,5.4,5.4,0,0,1-.207,1.07,11.534,11.534,0,0,1-2.311,4.4,2.083,2.083,0,0,1,.51.37,0.41,0.41,0,0,0,.239.16,0.359,0.359,0,0,0,.207-0.17,12.954,12.954,0,0,0,1.259-2.08h0.892v8.05c0,1.68-.032,2.42-0.032,2.5,0,0.11.016,0.13,0.127,0.13h0.733c0.127,0,.143-0.02.143-0.13,0-.08-0.032-0.82-0.032-2.5v-1.46H76.4c0.956,0,1.227.03,1.307,0.03,0.112,0,.127-0.02.127-0.13v-0.69c0-.1-0.016-0.11-0.127-0.11-0.08,0-.351.03-1.307,0.03H74.667v-2.47h1.705c0.956,0,1.227.03,1.307,0.03,0.111,0,.127-0.02.127-0.13v-0.67c0-.12-0.016-0.13-0.127-0.13-0.08,0-.351.03-1.307,0.03H74.667v-2.38h1.626c1.4,0,1.849.04,1.944,0.04s0.111-.02.111-0.13v-0.69Zm8.741-2.06c0-.11-0.016-0.13-0.127-0.13-0.08,0-.51.04-1.849,0.04h-2.6c-1.339,0-1.753-.04-1.833-0.04-0.112,0-.127.02-0.127,0.13v0.61c0,0.12.016,0.13,0.127,0.13,0.08,0,.494-0.03,1.833-0.03h0.175v1.96c-1.084,0-1.466-.03-1.546-0.03-0.112,0-.127.01-0.127,0.12s0.032,0.76.032,3.38v2.71c0,3.63-.032,4.25-0.032,4.35s0.016,0.11.127,0.11h0.574c0.111,0,.127-0.01.127-0.11v-1.44h3.825v0.52c0,0.12.016,0.13,0.127,0.13h0.558c0.112,0,.128-0.01.128-0.13,0-.08-0.032-0.54-0.032-3.99v-2.73c0-2.11.032-2.7,0.032-2.8s-0.016-.12-0.128-0.12c-0.1,0-.478.03-1.514,0.03v-1.96h0.271c1.339,0,1.769.03,1.849,0.03,0.111,0,.127-0.01.127-0.13v-0.61Zm-1.418,8.74H81.846v-1.21a1.667,1.667,0,0,1,.367.32,0.268,0.268,0,0,0,.144.12,0.287,0.287,0,0,0,.143-0.15,5.136,5.136,0,0,0,.781-2.23c0.032-.39.08-1.19,0.1-2.2h0.781v2.75a1.054,1.054,0,0,0,.3.91,1.2,1.2,0,0,0,.829.23h0.382v1.46Zm0,2.2H81.846v-1.4h3.825v1.4Zm-2.98-7.55c0,0.61-.016,1.27-0.08,1.93a3.9,3.9,0,0,1-.765,2.2v-4.13h0.845Zm2.98,3.1H85.4a0.482,0.482,0,0,1-.462-0.18,1.132,1.132,0,0,1-.112-0.62v-2.3h0.845v3.1Zm-1.514-3.82H83.376v-1.96h0.781v1.96Zm5.785,4.57,0.239-.46a2.337,2.337,0,0,1,.351-0.53,0.326,0.326,0,0,0,.143-0.23c0-.06-0.032-0.11-0.191-0.17a4.343,4.343,0,0,0-.8-0.26,3.317,3.317,0,0,1-.367,1.14,9.01,9.01,0,0,1-2.741,3.32,1.489,1.489,0,0,1,.4.36,0.363,0.363,0,0,0,.207.21,0.432,0.432,0,0,0,.239-0.15,10.984,10.984,0,0,0,1.466-1.52,8.112,8.112,0,0,0,1.323,1.94,9.3,9.3,0,0,1-4.064,1.96,1.412,1.412,0,0,1,.4.53c0.08,0.17.112,0.24,0.207,0.24a0.882,0.882,0,0,0,.255-0.07,10.173,10.173,0,0,0,3.841-2.05,10.344,10.344,0,0,0,3.522,1.89,1.823,1.823,0,0,0,.239.07c0.08,0,.127-0.07.191-0.26a1.9,1.9,0,0,1,.382-0.67,10.4,10.4,0,0,1-3.7-1.64,10.128,10.128,0,0,0,1.626-2.39,1.1,1.1,0,0,1,.287-0.44,0.276,0.276,0,0,0,.159-0.21,0.783,0.783,0,0,0-.271-0.4,0.736,0.736,0,0,0-.43-0.3,0.264,0.264,0,0,0-.143.05,0.839,0.839,0,0,1-.335.04H89.942Zm2.422,0.76a7.934,7.934,0,0,1-1.53,2.33,7.771,7.771,0,0,1-1.45-2.09l0.144-.24h2.837Zm-0.51-7.6c-0.143.12-.159,0.15-0.064,0.25a7.657,7.657,0,0,1,.94.93c-1.243.12-2.327,0.22-3.522,0.3,0.287-.53.478-0.91,0.733-1.41a3.889,3.889,0,0,1,.367-0.63,0.329,0.329,0,0,0,.143-0.22,0.244,0.244,0,0,0-.223-0.21,4.455,4.455,0,0,0-.845-0.27,4.3,4.3,0,0,1-.287,1.07,15.826,15.826,0,0,1-.813,1.72A9.17,9.17,0,0,1,86.9,2593a8.3,8.3,0,0,0,.191.89,0.2,0.2,0,0,0,.159.17,0.405,0.405,0,0,0,.223-0.08,1.581,1.581,0,0,1,.622-0.11c1.96-.14,3.458-0.29,5.2-0.51,0.207,0.29.4,0.57,0.59,0.86a0.146,0.146,0,0,0,.111.1,0.371,0.371,0,0,0,.191-0.1l0.351-.22c0.175-.13.175-0.16,0.1-0.27a12.2,12.2,0,0,0-2.247-2.46c-0.08-.08-0.111-0.1-0.239,0Zm0.1,3.63a1.7,1.7,0,0,1,.08-0.7,0.351,0.351,0,0,0,.064-0.2,0.16,0.16,0,0,0-.159-0.14l-0.892-.1a6.787,6.787,0,0,1,.064,1.16v0.83a0.921,0.921,0,0,0,.351.89,4.632,4.632,0,0,0,2.725.01,1.486,1.486,0,0,0,.606-1.2c0.032-.24.032-0.29-0.207-0.4a2,2,0,0,1-.494-0.34,1.381,1.381,0,0,1-.4,1.22,1.7,1.7,0,0,1-.861.11,1.085,1.085,0,0,1-.749-0.13,0.479,0.479,0,0,1-.127-0.43v-0.58Zm-2.12-.56c0-.06-0.048-0.1-0.207-0.16-0.207-.06-0.478-0.13-0.8-0.19a2.052,2.052,0,0,1-.127.83,3.076,3.076,0,0,1-2.167,2.14,1.581,1.581,0,0,1,.382.43,0.374,0.374,0,0,0,.239.26,0.508,0.508,0,0,0,.223-0.08,4.021,4.021,0,0,0,2.135-2.49,1.642,1.642,0,0,1,.255-0.56A0.212,0.212,0,0,0,89.83,2594.56Zm7.944-3.15v11.84h3.411c3.458,0,5.785-1.99,5.785-5.98s-2.1-5.86-5.562-5.86H97.774Zm1.386,1.14h2.1c2.63,0,4.239,1.4,4.239,4.74s-1.753,4.82-4.366,4.82H99.161v-9.56Zm12.451-1.14h-1.386v11.84h7.2v-1.19h-5.817v-10.65Zm12.508,6.73h-4.43v1.08h4.43v-1.08Zm11.824-3.1h-1.291l-0.622,2.23c-0.127-1.51-.733-2.4-2.2-2.4-2.407,0-4.3,2.5-4.3,5.21,0,2.25,1.052,3.38,2.821,3.38,1.291,0,2.263-.94,2.964-2.43l0.1,0.95a1.4,1.4,0,0,0,1.625,1.48c0.207,0,.415-0.04.59-0.05l0.287-.98a2.3,2.3,0,0,1-.59.05c-0.526,0-.8-0.23-0.845-0.97l-0.127-2.23Zm-2.757,4.22c-0.829,2.27-1.738,3.22-2.71,3.22-1.02,0-1.641-.68-1.641-2.41,0-2.12,1.4-4.22,2.932-4.22C132.788,2595.85,133.187,2596.33,133.187,2599.26Zm10.533-1.12h-4.431v1.08h4.431v-1.08ZM156,2593.29a6.8,6.8,0,0,1,.111-1.78c0.08-.24.144-0.42-0.111-0.48a6.391,6.391,0,0,0-1.323-.21,13.65,13.65,0,0,1,.175,2.57v7.14c0,0.98-.015,2.23-0.063,3.26,0,0.18.048,0.23,0.223,0.23,0.255,0.01.574,0.01,0.813,0,0.175,0,.223-0.05.207-0.21-0.016-1.05-.048-2.3-0.048-3.28v-3.72a17.694,17.694,0,0,1,4.638,2.15c0.143,0.1.207,0.06,0.3-.06a5.205,5.205,0,0,0,.383-0.79,0.183,0.183,0,0,0-.112-0.26,22.256,22.256,0,0,0-5.195-2.23v-2.33Zm17.946,7.16h-5.785c-1.02,0-1.9-.01-2.709-0.08a9.635,9.635,0,0,0,.048,1.03c0.016,0.16.048,0.21,0.175,0.19,0.749-.03,1.578-0.06,2.486-0.06h5.785v0.7c0,0.2.032,0.21,0.223,0.21a5.089,5.089,0,0,0,.781,0c0.16,0,.191-0.03.191-0.19-0.015-.66-0.047-1.75-0.047-2.71v-3.49c0-.81.016-1.62,0.032-2.37,0.015-.19-0.048-0.24-0.255-0.24-0.877.01-1.8,0.05-2.678,0.05h-4.048c-0.94,0-1.625-.02-2.566-0.1,0,0.3.016,0.77,0.048,1.04a0.186,0.186,0,0,0,.223.21c0.67-.05,1.371-0.08,2.311-0.08h5.785v5.89Zm15.312-6.56a16.247,16.247,0,0,1-8.144,9.1,2.559,2.559,0,0,1,.829.55,0.391,0.391,0,0,0,.542.03,17.416,17.416,0,0,0,4.733-3.87,17.2,17.2,0,0,0,3.124-5.27,1.5,1.5,0,0,1,.35-0.54,0.345,0.345,0,0,0,.048-0.5,3.8,3.8,0,0,0-.717-0.66,0.388,0.388,0,0,0-.414-0.02,1.4,1.4,0,0,1-.8.15h-5.642a28.92,28.92,0,0,1-3.06-.13c0.016,0.27.064,0.77,0.08,1,0.032,0.2.1,0.27,0.287,0.25,0.861-.06,1.737-0.09,2.677-0.09h6.1Zm10.313,3.43h1.019c0.7,0,1.4.02,2.12,0.03,0.159,0,.207-0.03.207-0.19a4.008,4.008,0,0,0,0-.62c0-.15-0.032-0.2-0.175-0.2-0.765.02-1.4,0.05-2.152,0.05h-3.219c-0.685,0-1.37-.03-2.1-0.08,0.016,0.32.031,0.64,0.063,0.85a0.187,0.187,0,0,0,.208.21c0.669-.03,1.243-0.03,1.864-0.03h1.116v4.48h-2.056c-0.829,0-1.482-.02-2.3-0.07a6.005,6.005,0,0,0,.048.87c0.016,0.16.064,0.21,0.191,0.21,0.653-.03,1.291-0.07,2.056-0.07h5.179c0.749,0,1.5.02,2.279,0.04,0.144,0,.176-0.05.191-0.23v-0.61c-0.015-.14-0.047-0.19-0.175-0.19-0.8.03-1.514,0.05-2.311,0.05h-2.055v-4.5Zm17.338,4v0.95c0,0.16.016,0.21,0.159,0.21H217.9c0.159,0,.207-0.05.207-0.23-0.032-.82-0.08-1.93-0.08-3.16v-3.23c0-.87.016-1.72,0.032-2.54,0-.17-0.032-0.22-0.191-0.22-0.829.03-1.865,0.03-2.821,0.03H211.54c-0.892,0-1.753,0-2.566-.03-0.127,0-.175.03-0.175,0.18,0.032,0.86.032,1.71,0.032,2.57v3.16c0,1.36-.016,2.42-0.064,3.43,0,0.16.048,0.2,0.223,0.21,0.223,0.02.542,0,.749,0s0.223-.05.223-0.24v-1.09h6.949Zm0-1.03h-6.964v-6.13h6.964v6.13Zm14.465-2.13c1.068,0,2.247,0,3.442.03,0.192,0.02.24-.02,0.24-0.19a7.843,7.843,0,0,0,0-.84c0-.17-0.048-0.21-0.24-0.19-1.211.03-2.39,0.05-3.49,0.05h-4.892a28.477,28.477,0,0,1-3.522-.15,9.311,9.311,0,0,0,.159,1.22,0.263,0.263,0,0,0,.271.23,13,13,0,0,1,2.152-.16h5.88Zm14.751-3.1a7.677,7.677,0,0,1,.144-2.12c0.1-.23.143-0.39-0.1-0.47a9.726,9.726,0,0,0-1.323-.2,14.26,14.26,0,0,1,.16,2.8v4.56a8.179,8.179,0,0,1-.064,1.59,0.442,0.442,0,0,0,.032.4,3.248,3.248,0,0,0,.621.63,0.3,0.3,0,0,0,.431-0.02,2.681,2.681,0,0,1,.526-0.35,30.112,30.112,0,0,0,2.757-1.8,22.444,22.444,0,0,0,2.518-2.24,0.312,0.312,0,0,0,.095-0.42,2.765,2.765,0,0,1-.271-1.01,14.972,14.972,0,0,1-2.82,2.68,21.218,21.218,0,0,1-2.71,1.7v-5.73Zm-4.637-1.8a6.677,6.677,0,0,1,.143,1.67,9.516,9.516,0,0,1-.86,4.16,7.575,7.575,0,0,1-2.566,2.98,2.255,2.255,0,0,1,.844.41,0.308,0.308,0,0,0,.447-0.07,8.327,8.327,0,0,0,2.279-2.86,10.365,10.365,0,0,0,.988-4.4,3.84,3.84,0,0,1,.159-1.25c0.08-.19.064-0.33-0.112-0.4A5.87,5.87,0,0,0,241.49,2593.26Zm20.468-2.22c0-.11-0.016-0.12-0.127-0.12-0.08,0-.542.03-1.944,0.03h-2.949c-1.418,0-1.864-.03-1.944-0.03-0.112,0-.128.01-0.128,0.12v0.63c0,0.11.016,0.13,0.128,0.13,0.08,0,.526-0.03,1.944-0.03h0.335v1.96c-1.2,0-1.61-.04-1.689-0.04-0.112,0-.128.02-0.128,0.13,0,0.08.032,0.74,0.032,3.39v2.7c0,3.77-.032,4.4-0.032,4.49,0,0.11.016,0.13,0.128,0.13h0.605c0.1,0,.112-0.02.112-0.13v-0.94h4.271v0.62c0,0.11.016,0.13,0.127,0.13h0.59c0.112,0,.127-0.02.127-0.13,0-.08-0.031-0.69-0.031-4.35v-2.92c0-2.27.031-2.91,0.031-2.99,0-.11-0.015-0.13-0.127-0.13-0.1,0-.51.04-1.689,0.04v-1.96h0.287c1.4,0,1.864.03,1.944,0.03,0.111,0,.127-0.02.127-0.13v-0.63Zm-1.386,9.14H256.3v-5.72h0.972a17.4,17.4,0,0,1-.08,2,3.88,3.88,0,0,1-.781,2.15,0.959,0.959,0,0,1,.383.41,0.213,0.213,0,0,0,.143.13,0.233,0.233,0,0,0,.16-0.13,5.208,5.208,0,0,0,.8-2.32,15.746,15.746,0,0,0,.1-2.24h0.893v2.62a1.379,1.379,0,0,0,.286,1.06,1.117,1.117,0,0,0,.781.24c0.223,0,.415,0,0.622-0.01v1.81Zm0,2.44H256.3v-1.64h4.271v1.64Zm0-5.06a2.667,2.667,0,0,1-.4.02,0.466,0.466,0,0,1-.494-0.18,1.249,1.249,0,0,1-.079-0.69v-2.25h0.972v3.1Zm-1.689-3.83H257.99v-1.96h0.893v1.96Zm4.876,3.3H267.3v0.73c0,0.11.016,0.12,0.128,0.12h0.733c0.111,0,.127-0.01.127-0.12,0-.08-0.032-0.5-0.032-1.71v-3.3c0-1.21.032-1.62,0.032-1.71,0-.11-0.016-0.12-0.127-0.12s-0.478.03-1.674,0.03H264.62c-1.2,0-1.546-.03-1.642-0.03s-0.127.01-.127,0.12v0.73c0,0.09.016,0.11,0.127,0.11s0.446-.03,1.642-0.03H267.3v4.28h-2.773c-1.068,0-1.53-.03-1.609-0.03-0.128,0-.144.02-0.144,0.13s0.032,0.59.032,1.77v4.51a1.514,1.514,0,0,0,.366,1.31c0.287,0.28.909,0.37,2.343,0.37,1.5,0,2.327-.16,2.709-0.51a2.814,2.814,0,0,0,.734-2.02c0.031-.32.031-0.32-0.287-0.44a2.112,2.112,0,0,1-.606-0.33,3.311,3.311,0,0,1-.494,2.05,3.24,3.24,0,0,1-2.008.35,2.752,2.752,0,0,1-1.657-.24,1.484,1.484,0,0,1-.144-0.94v-5.08Zm19.163,3.12c0-1.09.032-1.5,0.032-1.58,0-.11-0.016-0.12-0.143-0.12-0.08,0-.622.03-2.183,0.03h-4.463c-1.561,0-2.1-.03-2.2-0.03s-0.127.01-.127,0.12c0,0.08.031,0.49,0.031,1.8v1.3c0,2.33-.031,2.7-0.031,2.8s0.016,0.11.127,0.11h0.765c0.112,0,.128-0.02.128-0.11v-0.74h7.075v0.66c0,0.11.016,0.12,0.128,0.12h0.749c0.127,0,.143-0.01.143-0.12,0-.08-0.032-0.45-0.032-2.77v-1.47Zm-0.988,2.71h-7.075v-3.51h7.075v3.51Zm-2.964-12.26a0.246,0.246,0,0,0,.112-0.2c0-.08-0.064-0.13-0.223-0.17-0.271-.07-0.606-0.13-0.988-0.2a3.455,3.455,0,0,1-.447.92,14.819,14.819,0,0,1-6.534,5.43,2.136,2.136,0,0,1,.494.57,0.324,0.324,0,0,0,.208.23,0.621,0.621,0,0,0,.239-0.1,17.047,17.047,0,0,0,6.486-5.62,15.587,15.587,0,0,0,6.741,5.53,0.589,0.589,0,0,0,.255.09,0.321,0.321,0,0,0,.207-0.26,2.375,2.375,0,0,1,.446-0.64,15.043,15.043,0,0,1-7.139-5.46Zm2.678,5c0-.11-0.016-0.12-0.128-0.12-0.08,0-.526.03-1.865,0.03h-2.549c-1.339,0-1.769-.03-1.865-0.03-0.112,0-.127.01-0.127,0.12v0.69c0,0.12.015,0.13,0.127,0.13,0.1,0,.526-0.03,1.865-0.03h2.549c1.339,0,1.785.03,1.865,0.03,0.112,0,.128-0.01.128-0.13v-0.69Z" transform="translate(-61.063 -2432.59)"/>
</svg>
