<svg id="lead-block-02_sp.svg" xmlns="http://www.w3.org/2000/svg" width="281.062" height="42.16" viewBox="0 0 281.062 42.16">
  <defs>
    <style>
      .cls-1 {
        fill: #1147b4;
      }

      .cls-1, .cls-2 {
        fill-rule: evenodd;
      }

      .cls-2 {
        fill: none;
        stroke: #1147b4;
        stroke-linecap: round;
        stroke-width: 3px;
        stroke-dasharray: 0.001 6;
      }
    </style>
  </defs>
  <path id="美肌サプリケアCPX" class="cls-1" d="M207.023,3573.21c2.669,0,3.569.06,3.749,0.06,0.33,0,.36-0.03.36-0.36v-2.1c0-.3-0.03-0.33-0.36-0.33-0.18,0-1.08.06-3.749,0.06H199.1v-1.95h4.649c2.91,0,3.93.06,4.11,0.06,0.3,0,.33-0.03.33-0.33v-1.92c0-.3-0.03-0.33-0.33-0.33-0.18,0-1.2.06-4.11,0.06H199.1v-1.77h6.059c2.88,0,3.84.06,4.02,0.06,0.3,0,.33-0.03.33-0.33v-2.01c0-.33-0.03-0.36-0.33-0.36-0.18,0-1.14.06-4.02,0.06h-2.61c0.39-.54.78-1.11,1.08-1.59a1.944,1.944,0,0,1,.51-0.6,0.6,0.6,0,0,0,.33-0.48,0.47,0.47,0,0,0-.39-0.42,30.532,30.532,0,0,0-3.059-.66,8.243,8.243,0,0,1-.51,1.53,19.937,19.937,0,0,1-1.23,2.22h-5.879l1.619-.75c0.42-.21.42-0.27,0.21-0.63a14.338,14.338,0,0,0-1.679-2.22c-0.21-.24-0.27-0.27-0.63-0.12l-2.01.9a0.385,0.385,0,0,0-.3.27,0.611,0.611,0,0,0,.21.33,15.749,15.749,0,0,1,1.44,2.22h-1.89c-2.909,0-3.869-.06-4.049-0.06-0.3,0-.33.03-0.33,0.36v2.01c0,0.3.03,0.33,0.33,0.33,0.18,0,1.14-.06,4.049-0.06h5.579v1.77h-4.169c-2.91,0-3.93-.06-4.11-0.06-0.269,0-.3.03-0.3,0.33v1.92c0,0.3.03,0.33,0.3,0.33,0.18,0,1.2-.06,4.11-0.06h4.169v1.95h-7.469c-2.669,0-3.569-.06-3.749-0.06-0.3,0-.33.03-0.33,0.33v2.1c0,0.33.03,0.36,0.33,0.36,0.18,0,1.08-.06,3.749-0.06h18.538Zm-0.78,4.8c2.76,0,3.719.06,3.9,0.06,0.3,0,.33-0.03.33-0.33v-2.07c0-.3-0.03-0.33-0.33-0.33-0.18,0-1.139.06-3.9,0.06H198.8a1.754,1.754,0,0,1,.27-0.72,0.753,0.753,0,0,0,.21-0.51c0-.24-0.21-0.36-0.57-0.42-0.87-.09-2.01-0.18-3.03-0.24a7.53,7.53,0,0,1-.06,1.89h-6.269c-2.789,0-3.749-.06-3.929-0.06-0.3,0-.33.03-0.33,0.33v2.07c0,0.3.03,0.33,0.33,0.33,0.18,0,1.14-.06,3.929-0.06h5.31a5.962,5.962,0,0,1-1.59,1.86c-1.92,1.56-5.19,2.46-9,2.91a7.245,7.245,0,0,1,1.08,1.98c0.24,0.63.3,0.81,0.66,0.81a3.422,3.422,0,0,0,.63-0.09,19.78,19.78,0,0,0,8.578-3.42,10.959,10.959,0,0,0,2.46-2.82c2.64,3.48,6.869,5.52,11.609,6.24,0.27,0.03.48,0.06,0.629,0.06,0.36,0,.39-0.18.66-0.81a7.979,7.979,0,0,1,1.11-2.07c-5.219-.42-9.119-1.98-11.4-4.65h6.149Zm26.4-15.75h3.509v20.04a2.353,2.353,0,0,0,.81,2.19,5.275,5.275,0,0,0,2.55.42c1.62,0,2.369-.24,2.939-0.87,0.51-.6.81-1.56,0.93-5.01,0.03-.78.09-0.87-0.66-1.08a5.874,5.874,0,0,1-1.769-.78c-0.03,3.06-.15,4.32-0.39,4.53a0.745,0.745,0,0,1-.66.21,0.694,0.694,0,0,1-.57-0.18,1.33,1.33,0,0,1-.12-0.87v-16.02c0-3.33.06-5.01,0.06-5.22,0-.3-0.03-0.33-0.33-0.33-0.21,0-.87.06-2.94,0.06h-3.269c-2.04,0-2.64-.06-2.85-0.06-0.3,0-.33.03-0.33,0.33,0,0.15.03,1.26,0.03,3.39,0,3.15.03,4.98-.06,6.93-0.27,6.36-.96,9.9-2.85,12.39a2.271,2.271,0,0,0,.03-0.45c0-1.23-.03-2.76-0.03-4.14v-13.32c0-3.15.06-4.8,0.06-4.98,0-.3-0.03-0.33-0.329-0.33-0.21,0-.81.06-2.67,0.06H220.8c-1.889,0-2.489-.06-2.669-0.06-0.33,0-.36.03-0.36,0.33,0,0.21.06,1.83,0.06,4.98v4.92c0,8.1-.66,11.16-2.46,14.04a6.12,6.12,0,0,1,1.74,1.5,1.1,1.1,0,0,0,.57.51,0.869,0.869,0,0,0,.51-0.6,21.594,21.594,0,0,0,2.249-8.76h3.39v4.95a0.875,0.875,0,0,1-.96,1.08,14.208,14.208,0,0,1-1.89-.12,7.077,7.077,0,0,1,.72,2.13c0.18,0.96.18,0.96,1.11,0.93,1.74-.06,2.4-0.33,2.94-0.81a2.381,2.381,0,0,0,.6-0.81,9.619,9.619,0,0,1,1.559,1.26,1.4,1.4,0,0,0,.63.51,0.962,0.962,0,0,0,.54-0.54,16.779,16.779,0,0,0,2.82-7.11c0.57-2.82.75-6.66,0.75-12.45v-2.79Zm-12.029,11.01c0.03-1.17.06-2.46,0.06-3.9v-0.48h3.15v4.38h-3.21Zm3.21-11.25v4.11h-3.15v-4.11h3.15Zm43.348,4.2v-2.85a8.261,8.261,0,0,1,.24-2.64,1.606,1.606,0,0,0,.12-0.54c0-.24-0.12-0.39-0.54-0.48a27.836,27.836,0,0,0-3.509-.51,19.943,19.943,0,0,1,.27,4.11l-0.03,2.94h-6.449v-2.19c0-2.04,0-2.34.21-2.88a2.038,2.038,0,0,0,.18-0.63,0.432,0.432,0,0,0-.45-0.42,29.125,29.125,0,0,0-3.66-.48,20.851,20.851,0,0,1,.36,4.41v2.19h-0.9c-2.309,0-4.259-.06-5.519-0.15a26.917,26.917,0,0,0,.21,2.91c0.03,0.39.12,0.57,0.36,0.57,0.93-.06,3.33-0.15,4.949-0.15h0.9v1.14c0,1.89-.06,3.36-0.15,4.92-0.03.33,0.15,0.39,0.54,0.42a18.511,18.511,0,0,0,2.58,0c0.33-.03.54-0.09,0.51-0.42-0.09-1.59-.09-3.21-0.09-4.98v-1.08h6.389c-0.12,3.66-.6,5.73-1.77,7.65-1.53,2.46-3.839,3.99-8.1,5.31a6.924,6.924,0,0,1,2.49,1.8,0.819,0.819,0,0,0,.57.33,2.517,2.517,0,0,0,.84-0.27,14.136,14.136,0,0,0,7.079-5.58c1.47-2.43,2.129-4.95,2.309-9.24h1.23c1.47,0,3.3.03,4.32,0.03,0.42,0.03.48-.09,0.51-0.48a15.625,15.625,0,0,0,0-2.37c-0.03-.33-0.06-0.51-0.42-0.48-1.38.06-3.06,0.09-4.53,0.09h-1.05Zm28.141-.12a25.265,25.265,0,0,1-5.069,8.55,29,29,0,0,1-9.809,7.5,8.92,8.92,0,0,1,2.79,1.65,1.053,1.053,0,0,0,.75.33,1.446,1.446,0,0,0,.809-0.27,33.62,33.62,0,0,0,8.519-7.14,35.328,35.328,0,0,0,5.82-9.75,3.594,3.594,0,0,1,.689-1.17,0.821,0.821,0,0,0,.3-0.57,1.022,1.022,0,0,0-.24-0.6,11.05,11.05,0,0,0-2.039-2.07,0.7,0.7,0,0,0-.51-0.21,0.956,0.956,0,0,0-.51.18,2.869,2.869,0,0,1-1.65.3H284.456a52.5,52.5,0,0,1-5.76-.21c0.06,0.87.18,2.43,0.27,3.03,0.06,0.42.18,0.63,0.57,0.6,1.29-.06,3-0.15,4.95-0.15h10.828Zm6.659-8.97a3.163,3.163,0,0,0-3.239,3.21A3.24,3.24,0,1,0,301.973,3557.13Zm0,1.44a1.77,1.77,0,1,1-1.77,1.77A1.718,1.718,0,0,1,301.973,3558.57Zm9.033,11.7c0,1.29-.09,3.03-0.09,4.08-0.03.36,0.15,0.51,0.57,0.51h2.4a0.527,0.527,0,0,0,.66-0.6c-0.03-1.05-.09-2.22-0.09-3.78v-6.06a6.9,6.9,0,0,1,.33-2.85,1.257,1.257,0,0,0,.12-0.45,0.538,0.538,0,0,0-.51-0.48,22.2,22.2,0,0,0-3.72-.63,20.54,20.54,0,0,1,.33,4.38v5.88Zm14.128-5.85a9.038,9.038,0,0,1,.27-3.27,0.95,0.95,0,0,0,.12-0.48,0.5,0.5,0,0,0-.42-0.51,18.763,18.763,0,0,0-3.9-.66,22.026,22.026,0,0,1,.33,4.89v5.67c0,3.81-.63,6.3-2.01,8.01-1.59,1.98-4.109,3.39-7.319,4.38a9.746,9.746,0,0,1,2.55,1.83,0.973,0.973,0,0,0,.72.36,1.886,1.886,0,0,0,.629-0.15,15.478,15.478,0,0,0,6.6-4.71c1.769-2.37,2.429-5.34,2.429-9.78v-5.58Zm27.211,4.35c1.829,0,4.259.06,5.489,0.12a0.4,0.4,0,0,0,.42-0.48q0.045-1.215,0-2.43c0-.39-0.12-0.54-0.48-0.54-1.89.03-3.9,0.15-5.759,0.15h-9.629c0.39-.75.93-1.83,1.38-2.88a2.975,2.975,0,0,1,.9-1.23,0.679,0.679,0,0,0,.33-0.57,0.538,0.538,0,0,0-.36-0.51,21.946,21.946,0,0,0-3.6-1.38,12.618,12.618,0,0,1-1.2,4.14,31.694,31.694,0,0,1-7.079,9.78,9,9,0,0,1,2.79,1.08,0.717,0.717,0,0,0,.42.15,0.739,0.739,0,0,0,.51-0.24,28.937,28.937,0,0,0,4.169-5.16h6.179a16.753,16.753,0,0,1-2.069,7.86c-1.41,2.55-3.3,4.38-6.78,6.45a11.3,11.3,0,0,1,3.09,1.32,0.753,0.753,0,0,0,.51.21,1.032,1.032,0,0,0,.63-0.24,17.5,17.5,0,0,0,5.939-6.42,20.072,20.072,0,0,0,2.43-9.18h1.77Zm30.03-3.99a21.339,21.339,0,0,1-5.37,5.25,6.918,6.918,0,0,1,2.49,1.23,1.173,1.173,0,0,0,.72.3,0.863,0.863,0,0,0,.63-0.27,25.5,25.5,0,0,0,5.279-5.79,3.727,3.727,0,0,1,.81-0.87,0.783,0.783,0,0,0,.42-0.63,0.87,0.87,0,0,0-.24-0.54,15.377,15.377,0,0,0-1.8-1.89,1.02,1.02,0,0,0-.69-0.42,2.194,2.194,0,0,0-.57.21,6.311,6.311,0,0,1-2.069.18H369.116c-2.4,0-4.049-.06-6.089-0.21a28.068,28.068,0,0,0,.54,3.24,0.469,0.469,0,0,0,.54.45c1.77-.12,3.6-0.24,5.309-0.24h12.959Zm-17.548,17.43a8.442,8.442,0,0,1,2.73,1.53,0.849,0.849,0,0,0,.6.27,1.509,1.509,0,0,0,.84-0.3,15.62,15.62,0,0,0,5.459-5.97,18.339,18.339,0,0,0,1.77-8.25,2.757,2.757,0,0,1,.269-1.23,1.222,1.222,0,0,0,.15-0.54,0.546,0.546,0,0,0-.509-0.57,33.3,33.3,0,0,0-3.87-.57,10.846,10.846,0,0,1,.3,2.82,13.871,13.871,0,0,1-1.47,7.08C369.806,3578.88,368.1,3580.5,364.827,3582.21Zm46.348-15.6c-0.96-4.41-4.08-7.08-8.849-7.08-6,0-10.109,4.38-10.109,12.09,0,7.68,4.08,12.03,10.109,12.03,4.739,0,7.739-2.13,8.969-6.93l-3.81-1.17c-0.66,3.39-2.339,4.98-5.129,4.98-3.39,0-5.849-3.03-5.849-8.94,0-5.94,2.4-8.94,5.849-8.94,2.64,0,4.319,1.68,4.889,4.92Zm5.372-6.66v23.28H420.6v-9.78h3.93c5.579,0,8.549-2.55,8.549-6.84s-2.58-6.66-8.309-6.66h-8.219Zm4.049,3.03h3.96c3.089,0,4.439,1.35,4.439,3.66,0,2.37-1.5,3.78-4.589,3.78H420.6v-7.44Zm34.918-3.03h-4.259l-3.81,6.54c-0.33.6-.629,1.17-0.959,1.74-0.33-.57-0.6-1.11-0.93-1.68l-3.75-6.6h-4.589l6.749,11.34-7.229,11.94h4.229l4.35-7.47c0.27-.51.51-0.96,0.78-1.44,0.3,0.48.51,0.93,0.81,1.44l4.319,7.47h4.649l-7.289-12.09Z" transform="translate(-179.938 -3557.12)"/>
  <path id="シェイプ_984" data-name="シェイプ 984" class="cls-2" d="M182.947,3594.77H458.578" transform="translate(-179.938 -3557.12)"/>
</svg>
