<svg id="lead-block-02.svg" xmlns="http://www.w3.org/2000/svg" width="205.5" height="32.72" viewBox="0 0 205.5 32.72">
  <defs>
    <style>
      .cls-1 {
        fill: #1147b4;
      }

      .cls-1, .cls-2 {
        fill-rule: evenodd;
      }

      .cls-2 {
        fill: none;
        stroke: #1147b4;
        stroke-linecap: round;
        stroke-width: 2px;
        stroke-dasharray: 0.001 4;
      }
    </style>
  </defs>
  <path id="美肌サプリケアCPX" class="cls-1" d="M617.058,2066.86c1.957,0,2.617.05,2.749,0.05,0.242,0,.264-0.02.264-0.27v-1.54c0-.22-0.022-0.24-0.264-0.24-0.132,0-.792.05-2.749,0.05h-5.807v-1.43h3.409c2.134,0,2.881.04,3.013,0.04,0.22,0,.242-0.02.242-0.24v-1.41c0-.22-0.022-0.24-0.242-0.24-0.132,0-.879.04-3.013,0.04h-3.409v-1.29h4.443c2.111,0,2.815.04,2.947,0.04,0.22,0,.242-0.02.242-0.24v-1.48c0-.24-0.022-0.26-0.242-0.26-0.132,0-.836.04-2.947,0.04H613.78c0.286-.39.572-0.81,0.792-1.16a1.36,1.36,0,0,1,.374-0.44,0.449,0.449,0,0,0,.242-0.35,0.345,0.345,0,0,0-.286-0.31,21.33,21.33,0,0,0-2.243-.48,6.175,6.175,0,0,1-.374,1.12,13.993,13.993,0,0,1-.9,1.62h-4.311l1.188-.55c0.308-.15.308-0.19,0.154-0.46a10.344,10.344,0,0,0-1.232-1.62c-0.154-.18-0.2-0.2-0.462-0.09l-1.473.66a0.27,0.27,0,0,0-.22.2,0.459,0.459,0,0,0,.154.24,11.566,11.566,0,0,1,1.056,1.62h-1.386c-2.133,0-2.837-.04-2.969-0.04-0.22,0-.242.02-0.242,0.26v1.48c0,0.22.022,0.24,0.242,0.24,0.132,0,.836-0.04,2.969-0.04h4.091v1.29h-3.057c-2.134,0-2.882-.04-3.013-0.04-0.2,0-.22.02-0.22,0.24v1.41c0,0.22.022,0.24,0.22,0.24,0.131,0,.879-0.04,3.013-0.04h3.057v1.43h-5.477c-1.957,0-2.617-.05-2.749-0.05-0.22,0-.242.02-0.242,0.24v1.54c0,0.25.022,0.27,0.242,0.27,0.132,0,.792-0.05,2.749-0.05h13.593Zm-0.572,3.52c2.023,0,2.727.05,2.859,0.05,0.22,0,.242-0.02.242-0.24v-1.52c0-.22-0.022-0.24-0.242-0.24-0.132,0-.836.04-2.859,0.04h-5.455a1.3,1.3,0,0,1,.2-0.53,0.543,0.543,0,0,0,.154-0.37c0-.18-0.154-0.27-0.418-0.31-0.638-.07-1.473-0.13-2.221-0.18a5.546,5.546,0,0,1-.044,1.39h-4.6c-2.045,0-2.749-.04-2.881-0.04-0.22,0-.242.02-0.242,0.24v1.52c0,0.22.022,0.24,0.242,0.24,0.132,0,.836-0.05,2.881-0.05H608a4.463,4.463,0,0,1-1.166,1.37c-1.407,1.14-3.805,1.8-6.6,2.13a5.27,5.27,0,0,1,.792,1.45c0.176,0.46.22,0.6,0.484,0.6a3.052,3.052,0,0,0,.462-0.07,14.437,14.437,0,0,0,6.29-2.51,8.1,8.1,0,0,0,1.8-2.06,12.861,12.861,0,0,0,8.511,4.57c0.2,0.02.352,0.04,0.462,0.04,0.264,0,.286-0.13.484-0.59a5.931,5.931,0,0,1,.814-1.52c-3.827-.31-6.686-1.45-8.358-3.41h4.509Zm19.361-11.54h2.573v14.69a1.709,1.709,0,0,0,.594,1.6,3.861,3.861,0,0,0,1.869.31,2.551,2.551,0,0,0,2.156-.64c0.374-.44.594-1.14,0.682-3.67,0.022-.57.066-0.64-0.484-0.79a4.366,4.366,0,0,1-1.3-.57c-0.022,2.24-.11,3.16-0.286,3.32a0.556,0.556,0,0,1-.484.15,0.508,0.508,0,0,1-.418-0.13,0.979,0.979,0,0,1-.088-0.64v-11.74c0-2.44.044-3.67,0.044-3.83,0-.22-0.022-0.24-0.242-0.24-0.153,0-.637.04-2.155,0.04h-2.4c-1.5,0-1.936-.04-2.09-0.04-0.22,0-.242.02-0.242,0.24,0,0.11.022,0.92,0.022,2.49,0,2.31.022,3.65-.044,5.08-0.2,4.66-.7,7.25-2.089,9.08a1.665,1.665,0,0,0,.022-0.33c0-.9-0.022-2.02-0.022-3.03v-9.77c0-2.31.044-3.52,0.044-3.65,0-.22-0.022-0.24-0.242-0.24-0.154,0-.594.04-1.957,0.04h-2.156c-1.385,0-1.825-.04-1.957-0.04-0.242,0-.264.02-0.264,0.24,0,0.15.044,1.34,0.044,3.65v3.61c0,5.94-.484,8.18-1.8,10.29a4.52,4.52,0,0,1,1.276,1.1,0.8,0.8,0,0,0,.418.37,0.628,0.628,0,0,0,.374-0.44,15.783,15.783,0,0,0,1.649-6.42h2.486v3.63a0.641,0.641,0,0,1-.7.79,9.8,9.8,0,0,1-1.386-.09,5.245,5.245,0,0,1,.528,1.57c0.132,0.7.132,0.7,0.814,0.68a3.03,3.03,0,0,0,2.155-.6,1.71,1.71,0,0,0,.44-0.59,7.1,7.1,0,0,1,1.144.92,1,1,0,0,0,.462.38,0.693,0.693,0,0,0,.4-0.4,12.319,12.319,0,0,0,2.068-5.21,49.384,49.384,0,0,0,.55-9.13v-2.04Zm-8.82,8.07c0.022-.86.044-1.81,0.044-2.86v-0.35h2.31v3.21h-2.354Zm2.354-8.25v3.01h-2.31v-3.01h2.31Zm31.787,3.08v-2.09a6.08,6.08,0,0,1,.176-1.94,1.114,1.114,0,0,0,.088-0.39c0-.18-0.088-0.29-0.4-0.35a19.616,19.616,0,0,0-2.573-.38,14.644,14.644,0,0,1,.2,3.02l-0.022,2.15H653.91v-1.6a5.566,5.566,0,0,1,.154-2.12,1.455,1.455,0,0,0,.132-0.46,0.325,0.325,0,0,0-.33-0.31,21.819,21.819,0,0,0-2.683-.35,15.359,15.359,0,0,1,.264,3.24v1.6h-0.66c-1.693,0-3.123-.04-4.047-0.11a20.087,20.087,0,0,0,.154,2.14c0.022,0.28.088,0.41,0.264,0.41,0.682-.04,2.441-0.11,3.629-0.11h0.66v0.84c0,1.38-.044,2.46-0.11,3.61-0.022.24,0.11,0.28,0.4,0.3a11.937,11.937,0,0,0,1.891,0c0.242-.02.4-0.06,0.374-0.3-0.066-1.17-.066-2.36-0.066-3.66v-0.79h4.685c-0.088,2.69-.44,4.2-1.3,5.61-1.121,1.81-2.815,2.93-5.938,3.89a5.09,5.09,0,0,1,1.825,1.32,0.6,0.6,0,0,0,.418.25,1.916,1.916,0,0,0,.616-0.2,10.412,10.412,0,0,0,5.191-4.09c1.077-1.78,1.561-3.63,1.693-6.78h0.9c1.078,0,2.419.03,3.167,0.03,0.308,0.02.352-.07,0.374-0.36a11.353,11.353,0,0,0,0-1.73c-0.022-.25-0.044-0.38-0.308-0.36-1.012.05-2.243,0.07-3.321,0.07h-0.77Zm20.637-.09a18.57,18.57,0,0,1-3.717,6.27,21.329,21.329,0,0,1-7.192,5.5,6.413,6.413,0,0,1,2.045,1.21,0.794,0.794,0,0,0,.55.24,1.083,1.083,0,0,0,.594-0.2,24.676,24.676,0,0,0,6.246-5.23,26.081,26.081,0,0,0,4.267-7.15,2.685,2.685,0,0,1,.506-0.86,0.585,0.585,0,0,0,.22-0.42,0.775,0.775,0,0,0-.176-0.44,8.26,8.26,0,0,0-1.5-1.51,0.522,0.522,0,0,0-.373-0.16,0.772,0.772,0,0,0-.374.13,2.071,2.071,0,0,1-1.21.22h-7.852a38.747,38.747,0,0,1-4.223-.15c0.044,0.64.132,1.78,0.2,2.22,0.044,0.31.132,0.46,0.418,0.44,0.946-.04,2.2-0.11,3.629-0.11h7.94Zm4.883-6.57a2.32,2.32,0,0,0-2.376,2.35A2.376,2.376,0,1,0,686.688,2055.08Zm0,1.05a1.3,1.3,0,1,1-1.3,1.3A1.26,1.26,0,0,1,686.688,2056.13Zm6.626,8.58c0,0.94-.066,2.22-0.066,2.99-0.022.26,0.11,0.37,0.418,0.37h1.759a0.386,0.386,0,0,0,.484-0.44c-0.022-.77-0.066-1.62-0.066-2.77v-4.44a5.075,5.075,0,0,1,.242-2.09,0.922,0.922,0,0,0,.088-0.33,0.391,0.391,0,0,0-.374-0.35,16.284,16.284,0,0,0-2.727-.46,14.981,14.981,0,0,1,.242,3.21v4.31Zm10.359-4.29a6.648,6.648,0,0,1,.2-2.4,0.69,0.69,0,0,0,.088-0.35,0.359,0.359,0,0,0-.308-0.37,14.01,14.01,0,0,0-2.859-.49,16.2,16.2,0,0,1,.242,3.59v4.15c0,2.8-.462,4.62-1.474,5.88a10.788,10.788,0,0,1-5.366,3.21,6.973,6.973,0,0,1,1.869,1.34,0.7,0.7,0,0,0,.528.26,1.3,1.3,0,0,0,.462-0.11,11.32,11.32,0,0,0,4.838-3.45c1.3-1.74,1.782-3.91,1.782-7.17v-4.09Zm19.954,3.19c1.342,0,3.123.04,4.025,0.09a0.291,0.291,0,0,0,.308-0.35c0.022-.6.022-1.19,0-1.79a0.312,0.312,0,0,0-.352-0.39c-1.386.02-2.859,0.11-4.223,0.11h-7.06c0.286-.55.682-1.34,1.012-2.11a2.192,2.192,0,0,1,.66-0.91,0.48,0.48,0,0,0,.242-0.41,0.4,0.4,0,0,0-.264-0.38,17.05,17.05,0,0,0-2.64-1.01,9.26,9.26,0,0,1-.879,3.04,23.345,23.345,0,0,1-5.191,7.17,6.594,6.594,0,0,1,2.046.79,0.57,0.57,0,0,0,.307.11,0.548,0.548,0,0,0,.374-0.18,21.3,21.3,0,0,0,3.058-3.78h4.53a11.747,11.747,0,0,1-6.488,10.49,8.275,8.275,0,0,1,2.265.97,0.546,0.546,0,0,0,.374.15,0.749,0.749,0,0,0,.462-0.17,12.867,12.867,0,0,0,4.355-4.71,14.713,14.713,0,0,0,1.781-6.73h1.3Zm22.022-2.93a15.543,15.543,0,0,1-3.937,3.85,5.07,5.07,0,0,1,1.826.9,0.816,0.816,0,0,0,.528.22,0.631,0.631,0,0,0,.461-0.19,18.824,18.824,0,0,0,3.871-4.25,2.866,2.866,0,0,1,.594-0.64,0.563,0.563,0,0,0,.308-0.46,0.624,0.624,0,0,0-.176-0.39,11.238,11.238,0,0,0-1.319-1.39,0.737,0.737,0,0,0-.506-0.31,1.437,1.437,0,0,0-.418.16,4.921,4.921,0,0,1-1.518.13h-9.435c-1.76,0-2.969-.05-4.465-0.16a20.8,20.8,0,0,0,.4,2.38,0.344,0.344,0,0,0,.4.33c1.3-.09,2.639-0.18,3.893-0.18h9.5Zm-12.866,12.78a6.269,6.269,0,0,1,2,1.12,0.594,0.594,0,0,0,.44.2,1.122,1.122,0,0,0,.616-0.22,11.465,11.465,0,0,0,4-4.37,13.478,13.478,0,0,0,1.3-6.05,1.962,1.962,0,0,1,.2-0.9,0.95,0.95,0,0,0,.11-0.4,0.4,0.4,0,0,0-.374-0.42,25.2,25.2,0,0,0-2.837-.42,8,8,0,0,1,.22,2.07,10.169,10.169,0,0,1-1.078,5.19A9.714,9.714,0,0,1,732.783,2073.46Zm33.986-11.43a6.183,6.183,0,0,0-6.488-5.19c-4.4,0-7.412,3.21-7.412,8.86,0,5.63,2.992,8.82,7.412,8.82,3.475,0,5.675-1.56,6.576-5.08l-2.793-.86c-0.484,2.49-1.715,3.65-3.761,3.65-2.485,0-4.289-2.22-4.289-6.55,0-4.36,1.76-6.56,4.289-6.56,1.936,0,3.167,1.23,3.585,3.61Zm3.942-4.89v17.07h2.969v-7.17h2.881c4.091,0,6.268-1.87,6.268-5.01s-1.891-4.89-6.092-4.89h-6.026Zm2.969,2.22h2.9c2.266,0,3.255.99,3.255,2.69,0,1.74-1.1,2.77-3.365,2.77H773.68v-5.46Zm25.605-2.22h-3.123l-2.793,4.8c-0.242.44-.462,0.86-0.7,1.27-0.242-.41-0.44-0.81-0.682-1.23l-2.749-4.84h-3.365l4.949,8.32-5.3,8.75h3.1l3.189-5.48c0.2-.37.374-0.7,0.572-1.05,0.22,0.35.374,0.68,0.594,1.05l3.167,5.48h3.409l-5.344-8.86Z" transform="translate(-596.938 -2055.06)"/>
  <path id="シェイプ_984" data-name="シェイプ 984" class="cls-2" d="M598.947,2084.77H800.578" transform="translate(-596.938 -2055.06)"/>
</svg>
