<svg width="353" height="215" viewBox="0 0 353 215" fill="none" xmlns="http://www.w3.org/2000/svg">
<g clip-path="url(#clip0_19_2176)">
<path d="M296.409 44.6962L295.596 42.1075C289.057 21.2997 271.858 5.34826 250.465 1.11836C247.452 0.522968 244.402 0.160554 241.332 0.0414745C220.866 -0.745483 200.307 9.52639 188.621 26.3269C181.751 36.2208 177.433 48.5119 167.425 55.2165C154.404 63.9456 137.034 59.9538 121.958 55.6618C106.881 51.3698 89.4854 47.4143 76.5058 56.1795C68.3722 61.6779 58.6543 72.4934 55.4081 81.7608C46.0888 108.388 56.1795 137.335 75.9518 154.208C95.7241 171.081 133.074 177.961 159.033 179.266C195.399 181.088 234.959 167.306 262.114 143.05C289.269 118.794 304.325 80.2387 296.409 44.6962Z" fill="#EBEBEB"/>
<path d="M352.889 214.55C352.889 214.627 273.887 214.684 176.455 214.684C79.022 214.684 0 214.601 0 214.55C0 214.498 78.9858 214.415 176.455 214.415C273.924 214.415 352.889 214.451 352.889 214.55Z" fill="#263238"/>
<path d="M317.439 187.11C317.512 187.182 317.574 187.265 317.631 187.353L318.149 188.078C318.584 188.709 319.184 189.631 319.909 190.817C323.652 196.931 326.645 203.475 328.814 210.309C329.228 211.624 329.539 212.691 329.73 213.416C329.818 213.763 329.891 214.047 329.953 214.27C329.984 214.368 330.005 214.472 330.01 214.576C329.963 214.482 329.922 214.384 329.896 214.286C329.829 214.063 329.741 213.768 329.632 213.442C329.409 212.707 329.068 211.65 328.633 210.335C326.365 203.553 323.388 197.029 319.743 190.879C319.049 189.693 318.47 188.746 318.061 188.098L317.6 187.343C317.538 187.27 317.481 187.192 317.439 187.11Z" fill="#263238"/>
<path d="M325.889 171.712C325.899 171.857 325.899 172.007 325.889 172.152C325.889 172.463 325.889 172.882 325.847 173.41C325.806 173.938 325.795 174.622 325.79 175.398C325.785 176.175 325.749 177.055 325.764 178.029C325.764 179.98 325.821 182.305 325.972 184.883C326.122 187.462 326.401 190.283 326.805 193.229C327.209 196.175 327.737 198.971 328.275 201.513C328.814 204.055 329.404 206.286 329.943 208.166C330.191 209.108 330.46 209.947 330.683 210.692C330.906 211.438 331.107 212.07 331.278 212.587L331.661 213.788C331.713 213.928 331.75 214.068 331.775 214.213C331.775 214.213 331.713 214.073 331.61 213.804C331.506 213.535 331.361 213.121 331.18 212.624C330.999 212.127 330.771 211.479 330.543 210.739C330.315 209.999 330.025 209.16 329.756 208.218C329.197 206.343 328.607 204.076 328.037 201.57C327.468 199.064 326.955 196.248 326.541 193.286C326.127 190.325 325.878 187.493 325.723 184.914C325.568 182.336 325.542 180.001 325.573 178.044C325.573 177.066 325.614 176.185 325.64 175.409C325.666 174.632 325.702 173.964 325.744 173.421C325.785 172.877 325.811 172.473 325.832 172.163C325.837 172.012 325.858 171.862 325.889 171.712Z" fill="#263238"/>
<path d="M333.437 191.573C333.411 191.878 333.36 192.178 333.277 192.473C333.153 193.043 332.992 193.876 332.821 194.907C331.915 200.291 331.931 205.795 332.863 211.174C333.044 212.209 333.204 213.038 333.334 213.607C333.417 213.902 333.468 214.203 333.499 214.508C333.391 214.223 333.297 213.933 333.23 213.633C333.075 213.069 332.878 212.24 332.676 211.21C331.636 205.815 331.62 200.276 332.635 194.876C332.832 193.84 333.018 193.012 333.178 192.447C333.246 192.152 333.329 191.857 333.437 191.573Z" fill="#263238"/>
<path d="M326.484 214.399C326.438 214.399 326.334 213.732 326.065 212.66C325.718 211.272 325.236 209.916 324.636 208.616C324.03 207.317 323.3 206.079 322.467 204.914C321.819 204.019 321.369 203.501 321.431 203.47C321.493 203.439 321.571 203.579 321.783 203.801C322.089 204.117 322.373 204.454 322.643 204.801C324.434 207.094 325.671 209.771 326.267 212.618C326.36 213.048 326.427 213.483 326.474 213.918C326.5 214.078 326.505 214.239 326.484 214.399Z" fill="#263238"/>
<path d="M81.4398 194.933C81.2638 195.171 81.0671 195.393 80.8548 195.6C80.6529 195.808 80.4147 196.066 80.1507 196.372C79.8866 196.677 79.5656 197.019 79.2498 197.407C78.5871 198.189 77.8519 199.157 77.0805 200.27C76.2573 201.487 75.5066 202.745 74.818 204.04C74.1449 205.344 73.5443 206.685 73.0163 208.057C72.5399 209.32 72.1672 210.48 71.8979 211.469C71.753 211.961 71.6546 212.416 71.5562 212.81C71.4579 213.203 71.3802 213.545 71.3233 213.845C71.2767 214.141 71.2042 214.425 71.111 214.71C71.1213 214.415 71.1576 214.115 71.2197 213.825C71.2611 213.54 71.3181 213.193 71.4061 212.789C71.4941 212.385 71.577 211.93 71.7167 211.433C72.0119 210.263 72.3639 209.108 72.7833 207.979C73.8084 205.199 75.1804 202.569 76.8786 200.141C77.5672 199.152 78.3127 198.2 79.1048 197.293C79.431 196.895 79.7624 196.563 80.0368 196.258C80.3112 195.953 80.5545 195.709 80.7771 195.512C80.979 195.3 81.2017 195.109 81.4398 194.933Z" fill="#263238"/>
<path d="M71.111 187.948C71.0955 188.036 71.0747 188.13 71.0385 188.212L70.79 188.958C70.6761 189.279 70.5415 189.672 70.4017 190.138C70.2619 190.604 70.0807 191.122 69.9254 191.692C69.5837 192.862 69.242 194.28 68.9261 195.833C68.6103 197.387 68.3618 199.162 68.1961 201.011C68.0305 202.859 68.0046 204.635 68.0304 206.235C68.0563 207.835 68.1651 209.289 68.3048 210.501C68.3566 211.107 68.4446 211.65 68.5068 212.127C68.5689 212.603 68.631 213.022 68.688 213.354C68.7449 213.685 68.776 213.923 68.8071 214.13C68.8174 214.223 68.8174 214.311 68.8071 214.405C68.7656 214.322 68.7397 214.234 68.7294 214.141C68.688 213.939 68.631 213.685 68.5637 213.374C68.4964 213.064 68.4084 212.634 68.3359 212.152C68.2634 211.671 68.1599 211.117 68.0926 210.522C67.9321 209.31 67.813 207.86 67.7612 206.245C67.7146 204.49 67.7612 202.74 67.9062 200.99C68.0667 199.245 68.3152 197.506 68.6621 195.787C68.9365 194.389 69.2834 193.007 69.6976 191.645C69.8632 191.055 70.0548 190.537 70.2153 190.092C70.3758 189.647 70.5208 189.243 70.6502 188.927L70.9453 188.202C70.9867 188.109 71.0437 188.026 71.111 187.948Z" fill="#263238"/>
<path d="M58.9494 204.102C59.1151 204.164 59.2704 204.241 59.4154 204.34C59.8244 204.578 60.2178 204.842 60.5958 205.127C63.1172 207.027 65.0017 209.647 66.0061 212.639C66.1563 213.084 66.2805 213.545 66.3789 214.006C66.4255 214.177 66.4514 214.348 66.4566 214.524C66.41 214.524 66.2443 213.814 65.8249 212.701C64.7377 209.792 62.8894 207.229 60.4715 205.277C59.5551 204.531 58.9183 204.143 58.9494 204.102Z" fill="#263238"/>
<path d="M117.94 204.635C118.007 204.599 119.131 206.789 120.456 209.522C121.782 212.256 122.791 214.493 122.724 214.524C122.657 214.555 121.533 212.37 120.213 209.636C119.374 208.011 118.613 206.338 117.94 204.635Z" fill="#263238"/>
<path d="M123.066 197.935C123.092 198.158 123.092 198.376 123.066 198.598C123.066 199.017 123.03 199.634 123.014 200.384C122.973 202.352 123.035 204.319 123.195 206.276C123.361 208.233 123.63 210.185 123.998 212.116C124.137 212.862 124.257 213.462 124.345 213.877C124.402 214.089 124.438 214.306 124.448 214.524C124.36 214.322 124.293 214.11 124.241 213.897C124.122 213.493 123.977 212.898 123.811 212.158C122.962 208.29 122.631 204.329 122.822 200.379C122.864 199.623 122.91 199.012 122.962 198.588C122.978 198.365 123.009 198.148 123.066 197.935Z" fill="#263238"/>
<path d="M127.358 204.112C127.234 204.625 127.078 205.127 126.892 205.619C126.509 206.825 126.219 208.052 126.012 209.3C125.815 210.547 125.706 211.806 125.685 213.069C125.706 213.597 125.696 214.125 125.654 214.648C125.546 214.135 125.489 213.618 125.494 213.095C125.458 211.816 125.546 210.542 125.748 209.279C125.95 208.016 126.271 206.778 126.711 205.577C126.871 205.065 127.089 204.573 127.358 204.112Z" fill="#263238"/>
<path d="M318.335 109.651C320.748 109.403 322.373 109.004 323.963 108.926C325.92 108.833 326.717 108.657 326.676 108.29C326.619 107.803 326.676 107.989 323.083 107.658C323.083 107.658 328.198 108.082 327.162 107.14C326.707 106.716 322.461 106.317 322.461 106.317C325.842 106.949 327.214 106.654 327.281 106.136C327.385 105.39 322.223 104.945 322.223 104.945C322.223 104.945 326.153 105.359 326.883 105.219C327.613 105.08 326.914 104.526 326.225 104.231C325.449 103.894 320.665 102.6 319.303 102.16C318.848 102.066 318.552 101.621 318.64 101.165C318.651 101.124 318.661 101.083 318.677 101.041C319.681 99.2188 319.49 97.2618 319.194 96.7596C318.987 96.4748 318.589 96.4179 318.304 96.625C318.138 96.7492 318.04 96.9408 318.045 97.1479C317.921 97.8416 317.703 98.5147 317.393 99.1463C317.17 99.6641 316.859 100.135 316.476 100.549C316.026 101.031 315.632 101.414 315.286 101.735L279.391 100.182L277.253 110.086L318.335 109.651Z" fill="#B78876"/>
<path d="M321.069 107.44C321.069 107.534 322.151 107.679 323.512 107.772C324.874 107.865 325.977 107.865 325.977 107.772C325.977 107.679 324.884 107.534 323.533 107.44C322.182 107.347 321.079 107.378 321.069 107.44Z" fill="#AA6550"/>
<path d="M321.053 106.053C321.053 106.146 322.197 106.369 323.642 106.571C325.086 106.773 326.256 106.835 326.267 106.747C326.277 106.659 325.123 106.431 323.678 106.229C322.234 106.027 321.063 105.965 321.053 106.053Z" fill="#AA6550"/>
<path d="M321.043 104.614C321.043 104.702 322.12 104.929 323.481 105.131C324.843 105.333 325.951 105.406 325.961 105.318C325.971 105.23 324.884 104.997 323.523 104.8C322.161 104.603 321.053 104.526 321.043 104.614Z" fill="#AA6550"/>
<path d="M194.845 99.4053C192.422 99.5088 190.775 99.8039 189.186 99.7832C187.224 99.7832 186.416 99.8919 186.437 100.254C186.462 100.746 186.437 100.56 189.983 101.109C189.983 101.109 184.904 100.368 185.877 101.393C186.307 101.849 190.537 102.501 190.537 102.501C187.198 101.668 185.81 101.88 185.707 102.387C185.562 103.128 190.687 103.889 190.687 103.889C190.687 103.889 186.789 103.231 186.074 103.33C185.36 103.428 186.002 104.023 186.67 104.365C187.425 104.748 192.121 106.333 193.452 106.861C193.902 106.98 194.166 107.435 194.052 107.886C194.042 107.932 194.027 107.974 194.006 108.015C192.898 109.776 192.97 111.738 193.24 112.261C193.431 112.556 193.825 112.639 194.12 112.447C194.291 112.333 194.399 112.147 194.41 111.94C194.575 111.256 194.834 110.599 195.181 109.983C195.44 109.48 195.777 109.025 196.186 108.636C196.657 108.191 197.076 107.829 197.444 107.529L235.238 109.294L235.88 98.5148L194.845 99.4053Z" fill="#B78876"/>
<path d="M310.538 214.42C312.743 214.244 307.644 212.261 305.184 211.697C302.218 211.019 299.821 210.201 299.821 210.201L300.043 198.484L290.916 197.366L290.367 213.24C290.377 213.892 290.869 214.441 291.516 214.524L310.538 214.42Z" fill="#B78876"/>
<path d="M177.293 196.294C176.988 196.905 169.367 203.765 169.367 203.765C169.367 203.765 167.643 213.737 169.165 214.348H178.919C179.281 213.012 175.766 206.204 175.766 206.204L181.865 200.871L177.293 196.294Z" fill="#B78876"/>
<path d="M246.1 112.556C246.1 112.856 247.685 135.258 247.685 135.258L269.663 136.056L270.584 112.556H246.1Z" fill="#B78876"/>
<path d="M281.571 100.26L275.358 98.3284C272.671 97.4948 269.911 96.8994 267.121 96.5422L264.956 96.2678L255.062 95.7087C254.498 95.7087 250.072 95.0667 246.007 95.8174C237.113 97.4586 232.676 98.142 232.676 98.142L233.131 110.568L243.921 110.759C244.692 114.223 245.759 128.393 245.759 128.393L270.61 129.651L271.413 117.314C271.651 117.06 271.853 116.786 272.029 116.485C273.064 114.647 273.116 112.416 272.168 110.531L279.821 110.961L281.571 100.26Z" fill="#AAD96E"/>
<path d="M244.827 117.774L271.319 118.359L271.123 121.368L245.096 120.669L244.827 117.774Z" fill="#FAFAFA"/>
<g opacity="0.2">
<path opacity="0.2" d="M245.096 120.663L245.754 128.388L270.584 129.646L271.123 121.362L245.096 120.663Z" fill="#FAFAFA"/>
</g>
<g opacity="0.2">
<path opacity="0.2" d="M258.832 113.384C258.971 113.482 258.697 114.228 257.796 115.113C257.247 115.626 256.611 116.04 255.917 116.33C255.042 116.692 254.089 116.843 253.142 116.765C252.199 116.677 251.288 116.371 250.481 115.869C249.844 115.476 249.279 114.979 248.808 114.399C248.021 113.405 247.83 112.639 247.98 112.556C248.13 112.473 248.627 113.017 249.492 113.731C250.548 114.653 251.858 115.243 253.25 115.424C254.648 115.502 256.031 115.129 257.196 114.357C258.138 113.772 258.676 113.26 258.832 113.384Z" fill="black"/>
</g>
<path d="M274.964 65.0069C272.852 64.5461 270.672 65.4263 269.461 67.2176C268.798 68.2531 268.508 69.4801 268.632 70.702C267.944 70.1635 267.188 69.7183 266.385 69.3766C264.863 68.7657 263.263 68.3722 261.633 68.2013C259.991 67.9942 258.272 67.9062 256.724 68.4964C254.136 69.4905 249.88 72.7108 251.62 79.3119L264.77 90.4381C264.993 90.8315 265.479 90.9972 265.899 90.8212C266.297 90.6348 266.639 90.3397 266.882 89.9721C268.995 87.2643 270.465 84.1165 271.19 80.7616C271.671 78.5457 271.785 76.102 271.029 74.031C272.158 74.6005 273.447 74.7714 274.685 74.5177C276.994 73.9741 278.64 71.929 278.676 69.5578C278.562 67.3937 277.061 65.5505 274.964 65.0069Z" fill="#263238"/>
<path d="M258.247 103.185C261.192 103.687 263.988 101.714 264.506 98.7684L268.467 76.2779C268.622 75.3719 268.058 74.4969 267.167 74.264L258.676 72.048C255.839 71.3077 252.935 73.0059 252.194 75.8482C252.173 75.9207 252.158 75.9932 252.142 76.0657C251.433 79.3481 250.693 83.3864 250.713 85.9026C250.75 90.9972 254.467 92.2035 254.467 92.2035L253.778 97.0495C253.354 99.9695 255.337 102.693 258.247 103.185Z" fill="#B78876"/>
<path d="M252.608 79.2446C252.557 79.5915 252.784 79.9125 253.126 79.9798C253.457 80.0575 253.789 79.8556 253.867 79.5242V79.5035C253.929 79.1566 253.696 78.8304 253.354 78.7683C253.023 78.6907 252.691 78.8926 252.614 79.2239V79.2446H252.608Z" fill="#263238"/>
<path d="M252.707 78.3075C252.774 78.4007 253.313 78.1211 253.996 78.2246C254.679 78.3282 255.135 78.7424 255.223 78.6751C255.311 78.6078 255.223 78.4835 255.011 78.292C254.747 78.0383 254.41 77.8778 254.048 77.826C253.696 77.7742 253.328 77.8312 253.012 77.9968C252.769 78.1263 252.676 78.2661 252.707 78.3075Z" fill="#263238"/>
<path d="M259.344 80.1921C259.287 80.5389 259.515 80.8651 259.862 80.9324C260.198 81.0101 260.53 80.7978 260.607 80.4665V80.4561C260.664 80.1092 260.437 79.7831 260.09 79.7157C259.753 79.6381 259.422 79.8504 259.344 80.1817V80.1921Z" fill="#263238"/>
<path d="M259.437 79.4569C259.505 79.5553 260.038 79.2705 260.727 79.374C261.415 79.4776 261.866 79.8918 261.948 79.8245C262.031 79.7572 261.948 79.6329 261.741 79.4414C261.472 79.1877 261.136 79.0272 260.773 78.9754C260.421 78.9236 260.059 78.9806 259.738 79.1462C259.499 79.2757 259.401 79.4206 259.437 79.4569Z" fill="#263238"/>
<path d="M256.176 84.1683C255.829 84.0026 255.466 83.8783 255.088 83.8007C254.918 83.7541 254.757 83.6971 254.747 83.5729C254.752 83.3865 254.819 83.2001 254.938 83.0551C255.171 82.6565 255.409 82.2371 255.663 81.797C256.315 80.7409 256.88 79.6329 257.356 78.4835C256.621 79.4879 255.963 80.5493 255.399 81.6572L254.7 82.9205C254.555 83.1173 254.488 83.3554 254.503 83.5988C254.534 83.7282 254.628 83.8421 254.752 83.8939C254.845 83.9353 254.943 83.9663 255.042 83.9819C255.409 84.0958 255.792 84.1579 256.176 84.1683Z" fill="#263238"/>
<path d="M254.472 92.2191C256.807 92.6126 259.204 92.3434 261.4 91.4529C261.4 91.4529 259.329 94.6576 254.4 93.4409L254.472 92.2191Z" fill="#AA6550"/>
<path d="M256.212 85.8664C256.533 85.5765 256.973 85.4678 257.392 85.5765C257.693 85.6438 257.946 85.8302 258.107 86.0942C258.262 86.3531 258.231 86.6845 258.039 86.9174C257.775 87.1401 257.403 87.1763 257.102 87.0106C256.797 86.845 256.528 86.6223 256.305 86.3531C256.238 86.2858 256.181 86.2081 256.139 86.1201C256.103 86.0373 256.119 85.9338 256.181 85.8664" fill="#AA6550"/>
<path d="M258.122 84.9501C258.014 84.9501 257.9 85.6749 257.18 86.1046C256.46 86.5343 255.679 86.3376 255.658 86.4411C255.637 86.5447 255.813 86.612 256.176 86.6689C256.61 86.7414 257.061 86.6586 257.439 86.436C257.801 86.2185 258.065 85.8665 258.179 85.4574C258.247 85.152 258.174 84.9553 258.122 84.9501Z" fill="#263238"/>
<path d="M259.308 78.2091C259.349 78.4059 260.048 78.4214 260.861 78.6388C261.674 78.8563 262.275 79.1566 262.414 79.0272C262.554 78.8977 262.388 78.7631 262.15 78.5405C261.84 78.2609 261.462 78.0642 261.058 77.9606C260.654 77.8467 260.224 77.8312 259.815 77.9192C259.463 77.9917 259.282 78.1159 259.308 78.2091Z" fill="#263238"/>
<path d="M253.261 76.3608C253.359 76.5317 253.856 76.4436 254.426 76.5213C254.995 76.599 255.461 76.7853 255.596 76.6404C255.73 76.4954 255.596 76.4022 255.415 76.221C255.161 75.9932 254.845 75.8534 254.509 75.8224C254.172 75.7758 253.835 75.8379 253.535 75.9932C253.313 76.1227 253.219 76.278 253.261 76.3608Z" fill="#263238"/>
<path d="M252.148 76.0658C253.659 71.9549 254.586 73.8136 256.227 71.9912C257.869 74.2433 261.979 77.1685 264.63 78.0332C264.91 78.0953 265.169 78.2247 265.391 78.4059C265.764 78.7787 265.702 79.3896 265.624 79.9125C265.35 81.3777 265.246 82.8688 265.319 84.3599C265.391 85.8665 265.935 87.3162 266.872 88.5018C269.036 85.2918 269.808 81.2949 269.642 77.4274C269.575 75.8742 269.311 74.1657 268.234 73.0059C267.41 72.2242 266.406 71.6547 265.308 71.3544C262.663 70.4432 259.81 69.8892 257.071 70.469C254.332 71.0489 252.148 71.9342 251.376 74.6109" fill="#263238"/>
<path d="M270.18 73.7255C269.751 73.068 268.912 72.8195 268.192 73.1353C267.524 73.3269 266.82 73.8446 265.914 74.1708C264.941 74.5384 263.905 74.7299 262.865 74.7403C261.824 74.7558 260.783 74.585 259.805 74.2226C259.008 73.9326 258.257 73.5288 257.573 73.0214C257.118 72.6797 256.698 72.2966 256.321 71.8669C256.17 71.7115 256.046 71.5407 255.948 71.3491C256.491 71.8927 257.071 72.395 257.687 72.8506C260.064 74.5125 263.098 74.9163 265.826 73.9274C266.706 73.6272 267.416 73.1301 268.14 72.9437C268.71 72.7625 269.331 72.8557 269.818 73.1974C269.947 73.2958 270.056 73.4149 270.129 73.5599C270.16 73.6116 270.18 73.6686 270.18 73.7255Z" fill="#455A64"/>
<path d="M275.13 65.3849C275.13 65.3849 275.285 65.447 275.472 65.6748C275.725 66.0062 275.881 66.4048 275.912 66.819C275.948 67.4299 275.829 68.0409 275.56 68.5948C275.265 69.2731 274.871 69.9047 274.39 70.469C273.908 71.0386 273.313 71.4993 272.645 71.8307C272.096 72.0947 271.495 72.2397 270.885 72.2604C270.476 72.2759 270.067 72.219 269.678 72.0947C269.533 72.0585 269.399 71.9964 269.28 71.9032C269.802 72.0326 270.336 72.0896 270.874 72.0688C271.454 72.0223 272.018 71.8669 272.536 71.6029C273.168 71.2767 273.727 70.8315 274.188 70.293C275.151 69.1385 275.777 67.8131 275.741 66.8294C275.725 66.4411 275.606 66.0683 275.404 65.7369C275.239 65.504 275.114 65.4056 275.13 65.3849Z" fill="#455A64"/>
<path d="M277.807 67.2228C277.858 67.3781 277.884 67.5386 277.879 67.6991C277.895 68.1392 277.853 68.5741 277.755 69.0038C277.123 71.9808 274.198 73.886 271.221 73.2596C271.19 73.2544 271.164 73.2492 271.133 73.2389C270.703 73.1457 270.289 73.0007 269.901 72.7988C269.626 72.6538 269.487 72.5503 269.497 72.5347C270.041 72.7522 270.6 72.9282 271.169 73.0525C274.053 73.6116 276.864 71.8099 277.574 68.9624C277.703 68.3929 277.781 67.8078 277.807 67.2228Z" fill="#455A64"/>
<path d="M191.164 183.154L191.21 183.118L191.164 183.154Z" fill="#263238"/>
<path d="M299.432 151.417L271.123 140.762L270.553 135.585C270.496 135.051 270.056 134.637 269.518 134.616L247.436 133.866H247.219V133.892C245.81 134.161 240.007 136.76 235.87 141.963C233.007 145.561 214.068 167.451 212.448 167.912C210.827 168.373 190.899 183.418 191.164 183.139L176.574 195.808L182.6 205.396L222.87 177.64L254.814 156.175C258.36 157.977 262.109 159.349 265.976 160.27C270.04 161.238 287.99 163.496 287.99 163.496L289.58 202.657L303.108 204.335L305.837 160.897C306.096 156.651 303.471 152.763 299.432 151.417Z" fill="#263238"/>
<path d="M270.553 135.585C270.253 135.662 269.947 135.714 269.637 135.74C269.047 135.823 268.192 135.921 267.126 136.014C264.356 136.247 261.57 136.294 258.795 136.154C256.015 136.009 253.256 135.631 250.537 135.025C249.502 134.782 248.663 134.559 248.094 134.383C247.793 134.306 247.498 134.202 247.214 134.083C247.519 134.125 247.825 134.192 248.12 134.28C248.694 134.43 249.538 134.622 250.579 134.834C253.292 135.383 256.046 135.724 258.811 135.869C261.57 136.004 264.335 135.983 267.095 135.807C268.13 135.74 269.015 135.673 269.606 135.621C269.921 135.585 270.237 135.569 270.553 135.585Z" fill="#455A64"/>
<path d="M263.771 154.844C263.771 154.891 263.165 154.751 262.218 154.648C259.675 154.378 257.108 154.787 254.778 155.833C253.887 156.232 253.364 156.553 253.344 156.511C253.323 156.47 253.452 156.403 253.68 156.247C254.011 156.03 254.358 155.833 254.716 155.657C257.051 154.492 259.686 154.073 262.264 154.456C262.652 154.513 263.03 154.591 263.408 154.699C263.533 154.73 263.657 154.782 263.771 154.844Z" fill="#455A64"/>
<path d="M288.55 168.047C288.177 166.685 287.892 165.302 287.69 163.905C287.405 162.538 287.203 161.155 287.09 159.763C287.468 161.114 287.752 162.491 287.954 163.879C288.244 165.251 288.446 166.643 288.55 168.047Z" fill="#455A64"/>
<path d="M218.733 178.122C218.464 178.22 218.174 178.246 217.894 178.194C216.507 178.039 215.306 177.159 214.736 175.885C214.601 175.637 214.534 175.352 214.55 175.067C214.684 175.305 214.803 175.549 214.907 175.802C215.218 176.367 215.647 176.859 216.165 177.242C216.688 177.62 217.288 177.884 217.92 178.003C218.195 178.029 218.464 178.065 218.733 178.122Z" fill="#455A64"/>
<path d="M111.179 67.2538C110.143 65.5246 108.341 64.3597 106.488 63.5469C104.526 62.6874 101.963 62.2629 100.461 63.7902C99.545 64.7325 99.2603 66.2132 98.1834 66.9639C97.1065 67.7146 95.6413 67.4817 94.3263 67.549C91.9291 67.7043 89.5838 69.3248 88.9677 71.6494C88.3516 73.974 89.8582 76.7543 92.2242 77.1685C90.8005 78.7424 90.9247 81.1706 92.5038 82.5943C93.503 83.5004 94.9061 83.811 96.1953 83.4175L111.147 72.9593C112.38 71.375 112.245 68.9831 111.179 67.2538Z" fill="#263238"/>
<path d="M104.308 101.549C101.352 101.952 98.6235 99.8919 98.1989 96.9356L94.9631 74.3261C94.8388 73.4149 95.429 72.5606 96.3247 72.3535L104.883 70.412C107.741 69.7597 110.583 71.5511 111.235 74.409C111.251 74.4866 111.267 74.5591 111.282 74.6368C111.888 77.9451 112.499 81.999 112.395 84.5307C112.198 89.62 108.445 90.7124 108.445 90.7124L108.963 95.574C109.284 98.4992 107.218 101.15 104.303 101.549H104.308Z" fill="#FFBE9D"/>
<path d="M110.723 77.8C110.764 78.1469 110.526 78.4679 110.179 78.5197C109.848 78.587 109.522 78.3696 109.454 78.033C109.454 78.0227 109.454 78.0123 109.449 78.002C109.408 77.6551 109.646 77.3341 109.993 77.2823C110.335 77.2202 110.661 77.448 110.723 77.7897V77.8Z" fill="#263238"/>
<path d="M110.65 76.8631C110.583 76.9562 110.055 76.6508 109.366 76.7388C108.678 76.8268 108.212 77.2255 108.129 77.1478C108.046 77.0701 108.129 76.9562 108.352 76.7699C108.626 76.5265 108.968 76.3764 109.33 76.335C109.687 76.2935 110.05 76.366 110.366 76.5421C110.599 76.6767 110.692 76.832 110.65 76.8631Z" fill="#263238"/>
<path d="M103.961 78.5353C104.003 78.8821 103.765 79.2031 103.418 79.2549C103.081 79.317 102.755 79.0944 102.698 78.7527V78.7372C102.646 78.3955 102.874 78.0797 103.211 78.0175C103.542 77.9399 103.873 78.147 103.951 78.4783C103.951 78.499 103.961 78.5145 103.961 78.5353Z" fill="#263238"/>
<path d="M103.889 77.7949C103.822 77.8881 103.293 77.5878 102.605 77.6707C101.916 77.7535 101.45 78.1573 101.367 78.0797C101.285 78.002 101.367 77.8881 101.59 77.7017C101.865 77.4584 102.206 77.3083 102.569 77.2669C102.926 77.2254 103.288 77.2979 103.604 77.4739C103.837 77.6085 103.925 77.7535 103.889 77.7949Z" fill="#263238"/>
<path d="M107 82.6098C107.352 82.4493 107.72 82.3406 108.098 82.2733C108.269 82.2371 108.429 82.1801 108.445 82.0559C108.445 81.8695 108.383 81.6883 108.269 81.5381C108.051 81.1343 107.824 80.7098 107.591 80.2593C106.975 79.1824 106.441 78.0538 106.001 76.894C106.705 77.9192 107.327 78.996 107.855 80.1247C108.088 80.5751 108.305 81.0049 108.512 81.4139C108.647 81.6158 108.709 81.854 108.688 82.0973C108.652 82.2267 108.554 82.3354 108.429 82.3872C108.336 82.4235 108.238 82.4493 108.134 82.4649C107.767 82.5632 107.384 82.6098 107 82.6098Z" fill="#263238"/>
<path d="M108.445 90.7124C106.094 91.0282 103.708 90.6814 101.543 89.7184C101.543 89.7184 103.532 92.9904 108.476 91.9343L108.445 90.7124Z" fill="#EB996E"/>
<path d="M106.907 84.308C106.602 84.0026 106.157 83.8783 105.737 83.9767C105.432 84.044 105.168 84.2304 105.002 84.4944C104.841 84.7533 104.857 85.0846 105.049 85.3228C105.302 85.5454 105.67 85.5972 105.975 85.447C106.291 85.2917 106.571 85.0795 106.799 84.8154C106.871 84.7533 106.928 84.6756 106.969 84.5876C107.011 84.5048 107 84.4012 106.938 84.3287" fill="#EB996E"/>
<path d="M105.028 83.3295C105.137 83.3295 105.23 84.0543 105.934 84.5099C106.638 84.9655 107.425 84.7895 107.441 84.893C107.456 84.9966 107.28 85.0587 106.923 85.1105C106.488 85.1675 106.043 85.0691 105.67 84.8309C105.313 84.6031 105.059 84.2459 104.961 83.8317C104.914 83.5262 104.997 83.3295 105.028 83.3295Z" fill="#263238"/>
<path d="M104.06 76.5523C104.013 76.7439 103.314 76.7387 102.506 76.9303C101.699 77.1218 101.083 77.4221 100.953 77.2668C100.896 77.1943 100.99 77.0028 101.233 76.7905C101.559 76.5316 101.937 76.3556 102.346 76.2728C102.755 76.1744 103.18 76.1744 103.589 76.2728C103.91 76.3142 104.075 76.4591 104.06 76.5523Z" fill="#263238"/>
<path d="M110.174 74.8956C110.071 75.0664 109.574 74.9629 109.004 75.0198C108.435 75.0768 107.969 75.2528 107.829 75.1027C107.772 75.0302 107.829 74.8593 108.026 74.6885C108.284 74.471 108.605 74.3416 108.942 74.3209C109.278 74.2847 109.615 74.3571 109.91 74.5228C110.122 74.6626 110.205 74.8128 110.174 74.8956Z" fill="#263238"/>
<path d="M95.2634 83.5159L96.2574 86.0632C96.3195 86.2962 96.4593 86.5033 96.6561 86.6482C97.0133 86.788 97.4171 86.6793 97.6553 86.3842C98.4008 85.6335 98.4371 84.4323 98.2455 83.3865C98.054 82.3407 97.6915 81.3156 97.821 80.2801C98.0177 79.3792 98.3284 78.5094 98.7529 77.6914C99.105 76.8371 99.3276 75.8483 98.9341 75.0095C101.673 75.8069 104.608 74.7041 106.151 72.307C106.566 72.9386 107.409 73.1095 108.036 72.7004C108.507 72.3898 108.74 71.8255 108.621 71.2715C108.704 71.9549 108.911 72.7885 109.579 72.9541C110.138 73.0318 110.666 72.6694 110.785 72.1154C110.889 71.5666 110.744 70.9971 110.392 70.5622C109.76 69.7597 108.849 69.2161 107.839 69.0452C106.84 68.8744 105.815 68.864 104.81 69.0038C101.704 69.3352 98.6545 70.0911 95.75 71.2456C94.9165 71.5821 94.0311 71.9963 93.6118 72.7988C93.1924 73.6013 93.3426 74.5488 93.4979 75.4341L94.9113 83.283" fill="#263238"/>
<path d="M93.0371 82.5892C92.9542 82.5736 92.8766 82.5426 92.8093 82.496C92.6073 82.3769 92.4261 82.2112 92.2915 82.0197C92.0637 81.7194 91.9239 81.3621 91.8877 80.9842C91.8256 80.4665 91.9861 79.9539 92.3278 79.5604C92.6798 79.1152 93.1924 78.7838 93.5755 78.3075C93.9483 77.7639 94.1191 77.1012 94.057 76.4436C94.0518 76.0709 94.0725 75.6981 94.1243 75.3253C94.1968 74.9319 94.3314 74.5539 94.5333 74.207C94.9527 73.4719 95.6102 72.9023 96.4023 72.5969C97.1997 72.3587 98.0384 72.3018 98.8564 72.4364C99.5864 72.5555 100.332 72.5865 101.067 72.5244C101.398 72.4778 101.725 72.3743 102.02 72.2189C102.299 72.0636 102.548 71.8617 102.765 71.6287C103.2 71.1783 103.526 70.6761 103.878 70.2515C104.184 69.8529 104.567 69.5215 105.002 69.273C105.338 69.097 105.722 69.0141 106.105 69.0349C106.343 69.0504 106.576 69.1229 106.783 69.2523C106.855 69.2937 106.918 69.3507 106.969 69.418C106.71 69.2471 106.41 69.1539 106.1 69.1436C105.737 69.1332 105.38 69.2264 105.064 69.4076C104.66 69.6613 104.308 69.9875 104.029 70.3758C103.692 70.79 103.376 71.3025 102.931 71.784C102.703 72.0377 102.434 72.2552 102.139 72.426C101.818 72.6021 101.466 72.716 101.103 72.7729C100.342 72.8402 99.5812 72.8195 98.8254 72.7004C98.0487 72.5762 97.2514 72.6279 96.4955 72.8506C95.7655 73.1353 95.1546 73.6582 94.7611 74.3365C94.5747 74.6575 94.4453 75.0095 94.378 75.3719C94.3262 75.7292 94.3055 76.0916 94.3055 76.454C94.3055 76.8112 94.2693 77.1685 94.202 77.5205C94.1295 77.8622 93.9742 78.1781 93.7515 78.4473C93.3218 78.965 92.8093 79.2808 92.4727 79.6847C92.1569 80.0367 92.0068 80.5027 92.0534 80.9738C92.0741 81.3311 92.1932 81.678 92.3899 81.9782C92.5659 82.2216 92.7834 82.4287 93.0371 82.5892Z" fill="#455A64"/>
<path d="M89.5527 71.4475C89.5165 71.3905 89.4906 71.3232 89.4751 71.2559C89.4285 71.0592 89.4285 70.8521 89.4751 70.6553C89.5527 70.3447 89.708 70.0599 89.9307 69.8269C90.2258 69.5163 90.6141 69.3092 91.0335 69.2264C91.5357 69.128 92.0482 69.128 92.5504 69.2264C93.0682 69.3299 93.6325 69.5163 94.2072 69.682C94.7922 69.8684 95.4083 69.9512 96.0193 69.9201C96.6768 69.8632 97.3239 69.7027 97.9349 69.449C99.2085 68.9313 100.332 68.2168 101.466 67.7767C102.46 67.3159 103.578 67.1917 104.65 67.4091C105.375 67.5644 106.022 67.9631 106.488 68.543C106.607 68.7035 106.7 68.8743 106.773 69.0607C106.799 69.1228 106.819 69.1901 106.83 69.2574C106.799 69.2574 106.721 68.9934 106.405 68.6051C105.934 68.0718 105.307 67.7094 104.608 67.5696C103.573 67.3832 102.506 67.5282 101.559 67.9786C100.456 68.4187 99.3431 69.1487 98.0332 69.6716C97.3964 69.9409 96.7234 70.1013 96.0348 70.1583C95.3928 70.1842 94.7456 70.0962 94.1347 69.8943C93.5548 69.7182 93.0216 69.5267 92.509 69.4231C92.0379 69.3092 91.5512 69.2937 91.0749 69.3713C90.3759 69.4749 89.7961 69.9667 89.5786 70.6398C89.5113 70.9038 89.501 71.1782 89.5527 71.4475Z" fill="#455A64"/>
<path d="M111.179 67.2538C110.143 65.5246 108.341 64.3597 106.488 63.5469C104.526 62.6874 101.963 62.2629 100.461 63.7902C99.545 64.7325 99.2603 66.2132 98.1834 66.9639C97.1065 67.7146 95.6413 67.4817 94.3263 67.549C91.9291 67.7043 89.5838 69.3248 88.9677 71.6494C88.3516 73.974 89.8582 76.7543 92.2242 77.1685C90.8005 78.7424 90.9247 81.1706 92.5038 82.5943C93.503 83.5004 94.9061 83.811 96.1953 83.4175L111.147 72.9593C112.38 71.375 112.245 68.9831 111.179 67.2538Z" fill="#263238"/>
<path d="M104.308 101.549C101.352 101.952 98.6235 99.8919 98.1989 96.9356L94.9631 74.3261C94.8388 73.4149 95.429 72.5606 96.3247 72.3535L104.883 70.412C107.741 69.7597 110.583 71.5511 111.235 74.409C111.251 74.4866 111.267 74.5591 111.282 74.6368C111.888 77.9451 112.499 81.999 112.395 84.5307C112.198 89.62 108.445 90.7124 108.445 90.7124L108.963 95.574C109.284 98.4992 107.218 101.15 104.303 101.549H104.308Z" fill="#FFBE9D"/>
<path d="M110.723 77.8C110.764 78.1469 110.526 78.4679 110.179 78.5197C109.848 78.587 109.522 78.3696 109.454 78.033C109.454 78.0227 109.454 78.0123 109.449 78.002C109.408 77.6551 109.646 77.3341 109.993 77.2823C110.335 77.2202 110.661 77.448 110.723 77.7897V77.8Z" fill="#263238"/>
<path d="M110.65 76.8631C110.583 76.9562 110.055 76.6508 109.366 76.7388C108.678 76.8268 108.212 77.2255 108.129 77.1478C108.046 77.0701 108.129 76.9562 108.352 76.7699C108.626 76.5265 108.968 76.3764 109.33 76.335C109.687 76.2935 110.05 76.366 110.366 76.5421C110.599 76.6767 110.692 76.832 110.65 76.8631Z" fill="#263238"/>
<path d="M103.961 78.5353C104.003 78.8821 103.765 79.2031 103.418 79.2549C103.081 79.317 102.755 79.0944 102.698 78.7527V78.7372C102.646 78.3955 102.874 78.0797 103.211 78.0175C103.542 77.9399 103.873 78.147 103.951 78.4783C103.951 78.499 103.961 78.5145 103.961 78.5353Z" fill="#263238"/>
<path d="M103.889 77.7949C103.822 77.8881 103.293 77.5878 102.605 77.6707C101.916 77.7535 101.45 78.1573 101.367 78.0797C101.285 78.002 101.367 77.8881 101.59 77.7017C101.865 77.4584 102.206 77.3083 102.569 77.2669C102.926 77.2254 103.288 77.2979 103.604 77.4739C103.837 77.6085 103.925 77.7535 103.889 77.7949Z" fill="#263238"/>
<path d="M107 82.6098C107.352 82.4493 107.72 82.3406 108.098 82.2733C108.269 82.2371 108.429 82.1801 108.445 82.0559C108.445 81.8695 108.383 81.6883 108.269 81.5381C108.051 81.1343 107.824 80.7098 107.591 80.2593C106.975 79.1824 106.441 78.0538 106.001 76.894C106.705 77.9192 107.327 78.996 107.855 80.1247C108.088 80.5751 108.305 81.0049 108.512 81.4139C108.647 81.6158 108.709 81.854 108.688 82.0973C108.652 82.2267 108.554 82.3354 108.429 82.3872C108.336 82.4235 108.238 82.4493 108.134 82.4649C107.767 82.5632 107.384 82.6098 107 82.6098Z" fill="#263238"/>
<path d="M108.445 90.7124C106.094 91.0282 103.708 90.6814 101.543 89.7184C101.543 89.7184 103.532 92.9904 108.476 91.9343L108.445 90.7124Z" fill="#EB996E"/>
<path d="M106.907 84.308C106.602 84.0026 106.157 83.8783 105.737 83.9767C105.432 84.044 105.168 84.2304 105.002 84.4944C104.841 84.7533 104.857 85.0846 105.049 85.3228C105.302 85.5454 105.67 85.5972 105.975 85.447C106.291 85.2917 106.571 85.0795 106.799 84.8154C106.871 84.7533 106.928 84.6756 106.969 84.5876C107.011 84.5048 107 84.4012 106.938 84.3287" fill="#EB996E"/>
<path d="M105.028 83.3295C105.137 83.3295 105.23 84.0543 105.934 84.5099C106.638 84.9655 107.425 84.7895 107.441 84.893C107.456 84.9966 107.28 85.0587 106.923 85.1105C106.488 85.1675 106.043 85.0691 105.67 84.8309C105.313 84.6031 105.059 84.2459 104.961 83.8317C104.914 83.5262 104.997 83.3295 105.028 83.3295Z" fill="#263238"/>
<path d="M104.06 76.5523C104.013 76.7439 103.314 76.7387 102.506 76.9303C101.699 77.1218 101.083 77.4221 100.953 77.2668C100.896 77.1943 100.99 77.0028 101.233 76.7905C101.559 76.5316 101.937 76.3556 102.346 76.2728C102.755 76.1744 103.18 76.1744 103.589 76.2728C103.91 76.3142 104.075 76.4591 104.06 76.5523Z" fill="#263238"/>
<path d="M110.174 74.8956C110.071 75.0664 109.574 74.9629 109.004 75.0198C108.435 75.0768 107.969 75.2528 107.829 75.1027C107.772 75.0302 107.829 74.8593 108.026 74.6885C108.284 74.471 108.605 74.3416 108.942 74.3209C109.278 74.2847 109.615 74.3571 109.91 74.5228C110.122 74.6626 110.205 74.8128 110.174 74.8956Z" fill="#263238"/>
<path d="M95.2634 83.5159L96.2574 86.0632C96.3195 86.2962 96.4593 86.5033 96.6561 86.6482C97.0133 86.788 97.4171 86.6793 97.6553 86.3842C98.4008 85.6335 98.4371 84.4323 98.2455 83.3865C98.054 82.3407 97.6915 81.3156 97.821 80.2801C98.0177 79.3792 98.3284 78.5094 98.7529 77.6914C99.105 76.8371 99.3276 75.8483 98.9341 75.0095C101.673 75.8069 104.608 74.7041 106.151 72.307C106.566 72.9386 107.409 73.1095 108.036 72.7004C108.507 72.3898 108.74 71.8255 108.621 71.2715C108.704 71.9549 108.911 72.7885 109.579 72.9541C110.138 73.0318 110.666 72.6694 110.785 72.1154C110.889 71.5666 110.744 70.9971 110.392 70.5622C109.76 69.7597 108.849 69.2161 107.839 69.0452C106.84 68.8744 105.815 68.864 104.81 69.0038C101.704 69.3352 98.6545 70.0911 95.75 71.2456C94.9165 71.5821 94.0311 71.9963 93.6118 72.7988C93.1924 73.6013 93.3426 74.5488 93.4979 75.4341L94.9113 83.283" fill="#263238"/>
<path d="M93.0371 82.5892C92.9542 82.5736 92.8766 82.5426 92.8093 82.496C92.6073 82.3769 92.4261 82.2112 92.2915 82.0197C92.0637 81.7194 91.9239 81.3621 91.8877 80.9842C91.8256 80.4665 91.9861 79.9539 92.3278 79.5604C92.6798 79.1152 93.1924 78.7838 93.5755 78.3075C93.9483 77.7639 94.1191 77.1012 94.057 76.4436C94.0518 76.0709 94.0725 75.6981 94.1243 75.3253C94.1968 74.9319 94.3314 74.5539 94.5333 74.207C94.9527 73.4719 95.6102 72.9023 96.4023 72.5969C97.1997 72.3587 98.0384 72.3018 98.8564 72.4364C99.5864 72.5555 100.332 72.5865 101.067 72.5244C101.398 72.4778 101.725 72.3743 102.02 72.2189C102.299 72.0636 102.548 71.8617 102.765 71.6287C103.2 71.1783 103.526 70.6761 103.878 70.2515C104.184 69.8529 104.567 69.5215 105.002 69.273C105.338 69.097 105.722 69.0141 106.105 69.0349C106.343 69.0504 106.576 69.1229 106.783 69.2523C106.855 69.2937 106.918 69.3507 106.969 69.418C106.71 69.2471 106.41 69.1539 106.1 69.1436C105.737 69.1332 105.38 69.2264 105.064 69.4076C104.66 69.6613 104.308 69.9875 104.029 70.3758C103.692 70.79 103.376 71.3025 102.931 71.784C102.703 72.0377 102.434 72.2552 102.139 72.426C101.818 72.6021 101.466 72.716 101.103 72.7729C100.342 72.8402 99.5812 72.8195 98.8254 72.7004C98.0487 72.5762 97.2514 72.6279 96.4955 72.8506C95.7655 73.1353 95.1546 73.6582 94.7611 74.3365C94.5747 74.6575 94.4453 75.0095 94.378 75.3719C94.3262 75.7292 94.3055 76.0916 94.3055 76.454C94.3055 76.8112 94.2693 77.1685 94.202 77.5205C94.1295 77.8622 93.9742 78.1781 93.7515 78.4473C93.3218 78.965 92.8093 79.2808 92.4727 79.6847C92.1569 80.0367 92.0068 80.5027 92.0534 80.9738C92.0741 81.3311 92.1932 81.678 92.3899 81.9782C92.5659 82.2216 92.7834 82.4287 93.0371 82.5892Z" fill="#455A64"/>
<path d="M89.5527 71.4475C89.5165 71.3905 89.4906 71.3232 89.4751 71.2559C89.4285 71.0592 89.4285 70.8521 89.4751 70.6553C89.5527 70.3447 89.708 70.0599 89.9307 69.8269C90.2258 69.5163 90.6141 69.3092 91.0335 69.2264C91.5357 69.128 92.0482 69.128 92.5504 69.2264C93.0682 69.3299 93.6325 69.5163 94.2072 69.682C94.7922 69.8684 95.4083 69.9512 96.0193 69.9201C96.6768 69.8632 97.3239 69.7027 97.9349 69.449C99.2085 68.9313 100.332 68.2168 101.466 67.7767C102.46 67.3159 103.578 67.1917 104.65 67.4091C105.375 67.5644 106.022 67.9631 106.488 68.543C106.607 68.7035 106.7 68.8743 106.773 69.0607C106.799 69.1228 106.819 69.1901 106.83 69.2574C106.799 69.2574 106.721 68.9934 106.405 68.6051C105.934 68.0718 105.307 67.7094 104.608 67.5696C103.573 67.3832 102.506 67.5282 101.559 67.9786C100.456 68.4187 99.3431 69.1487 98.0332 69.6716C97.3964 69.9409 96.7234 70.1013 96.0348 70.1583C95.3928 70.1842 94.7456 70.0962 94.1347 69.8943C93.5548 69.7182 93.0216 69.5267 92.509 69.4231C92.0379 69.3092 91.5512 69.2937 91.0749 69.3713C90.3759 69.4749 89.7961 69.9667 89.5786 70.6398C89.5113 70.9038 89.501 71.1782 89.5527 71.4475Z" fill="#455A64"/>
<path d="M118.846 51.7579C117.733 49.6042 116.775 48.2374 116.118 46.7877C115.315 45.0015 114.86 44.3181 114.533 44.4941C114.099 44.7219 114.259 44.6132 115.253 48.0665C115.253 48.0665 113.788 43.148 113.265 44.4423C113.234 45.0792 113.317 45.7212 113.498 46.3321C113.058 45.0843 112.618 44.6184 112.286 44.7012C111.727 44.8358 112.457 47.8076 112.804 49.1537C112.478 47.8853 112.064 46.6375 111.562 45.426C111.173 44.8151 110.904 45.6487 110.878 46.4046C110.878 47.2485 111.396 52.1721 111.474 53.6011C111.556 54.0619 111.251 54.4968 110.795 54.5796C110.749 54.59 110.702 54.59 110.656 54.5951C108.585 54.3259 106.845 55.2164 106.483 55.6824C106.12 56.1483 106.643 56.7955 107.264 56.6091C107.958 56.4745 108.662 56.4331 109.366 56.4849C109.931 56.5056 110.485 56.6195 111.008 56.8318C111.619 57.0699 112.121 57.2977 112.561 57.5048L120.296 81.3776L111.443 97.3135L117.246 109.9L127.793 89.5526C129.9 85.4884 130.154 80.7149 128.486 76.4487L118.846 51.7579Z" fill="#FFBE9D"/>
<path d="M111.821 45.9594C112.183 46.6945 112.463 47.466 112.659 48.2581C112.939 49.0295 113.136 49.8268 113.244 50.6397C112.882 49.9097 112.597 49.1486 112.4 48.3565C112.116 47.5799 111.924 46.7774 111.821 45.9594Z" fill="#EB996E"/>
<path d="M114.394 49.8165C114.057 49.159 113.809 48.4652 113.643 47.7455C113.384 47.0518 113.208 46.3321 113.125 45.5969C113.462 46.2545 113.715 46.9482 113.881 47.6679C114.14 48.3616 114.311 49.0813 114.394 49.8165Z" fill="#EB996E"/>
<path d="M115.548 49.1642C115.165 48.5998 114.891 47.9734 114.725 47.3107C114.477 46.679 114.337 46.006 114.311 45.3278C114.596 45.9387 114.818 46.5755 114.984 47.2278C115.227 47.8543 115.419 48.5015 115.548 49.1642Z" fill="#EB996E"/>
<path d="M117.624 53.3268C117.624 53.3682 117.402 53.4252 117.07 53.6271C116.635 53.8963 116.299 54.2898 116.102 54.7609L116.045 54.9007L115.911 54.8179C115.724 54.704 115.528 54.6004 115.326 54.5176C114.709 54.2639 114.042 54.1552 113.374 54.2018C113.094 54.2432 112.815 54.2691 112.535 54.2846C112.778 54.1241 113.063 54.0257 113.353 54.0102C114.052 53.9118 114.772 53.9998 115.424 54.2691C115.641 54.3623 115.854 54.471 116.05 54.6004L115.859 54.6574C116.082 54.1396 116.48 53.7203 116.988 53.4769C117.179 53.363 117.402 53.3113 117.624 53.3268Z" fill="#EB996E"/>
<path d="M90.5002 112.556C90.5002 112.856 92.0793 135.258 92.0793 135.258L114.062 136.056L114.984 112.556H90.5002Z" fill="#FFBE9D"/>
<path d="M102.377 123.998C102.408 123.998 102.341 124.251 102.315 124.707C102.284 125.349 102.367 125.986 102.569 126.597C102.864 127.498 103.392 128.305 104.096 128.937C104.515 129.304 104.997 129.594 105.515 129.796C106.074 130.003 106.664 130.128 107.259 130.164C108.497 130.257 109.703 130.164 110.801 130.361C111.789 130.469 112.711 130.93 113.389 131.66C113.84 132.162 114.078 132.82 114.062 133.498C114.052 133.674 114.021 133.85 113.959 134.016C113.912 134.13 113.881 134.187 113.871 134.182C113.923 133.954 113.954 133.721 113.959 133.488C113.933 132.851 113.679 132.24 113.244 131.774C112.582 131.101 111.701 130.682 110.759 130.594C109.698 130.423 108.507 130.516 107.239 130.423C106.617 130.387 106.001 130.257 105.416 130.034C104.873 129.817 104.375 129.501 103.941 129.108C103.211 128.445 102.672 127.591 102.387 126.643C102.191 126.012 102.134 125.344 102.211 124.686C102.232 124.51 102.263 124.339 102.315 124.169C102.346 124.055 102.367 123.998 102.377 123.998Z" fill="#263238"/>
<path d="M111.629 132.473C111.593 132.359 111.562 132.245 111.536 132.126C111.443 131.831 111.261 131.572 111.018 131.386C110.645 131.122 110.169 131.054 109.739 131.215C109.045 131.474 108.693 132.25 108.952 132.939C109.087 133.301 109.377 133.586 109.739 133.726C110.169 133.886 110.645 133.819 111.018 133.555C111.261 133.369 111.443 133.11 111.536 132.815C111.562 132.701 111.593 132.587 111.629 132.473C111.629 132.473 111.676 132.602 111.629 132.841C111.567 133.182 111.386 133.488 111.111 133.705C110.692 134.037 110.133 134.135 109.63 133.959C108.807 133.669 108.378 132.763 108.667 131.945C108.828 131.495 109.18 131.142 109.63 130.982C110.133 130.806 110.692 130.904 111.111 131.236C111.386 131.453 111.567 131.759 111.629 132.1C111.676 132.338 111.645 132.473 111.629 132.473Z" fill="#263238"/>
<path d="M111.619 132.494C111.153 132.494 110.687 132.566 110.236 132.701C109.527 132.996 109.201 133.581 109.128 133.54C109.056 133.498 109.128 133.353 109.294 133.125C109.724 132.514 110.469 132.204 111.204 132.323C111.479 132.369 111.629 132.463 111.619 132.494Z" fill="#263238"/>
<path d="M110.407 132.639C110.407 132.711 109.931 132.597 109.651 132.121C109.372 131.645 109.48 131.189 109.553 131.21C109.625 131.23 109.646 131.603 109.879 131.981C110.112 132.359 110.438 132.571 110.407 132.639Z" fill="#263238"/>
<path d="M108.699 128.259C108.673 128.259 108.668 128.129 108.6 127.917C108.512 127.622 108.331 127.363 108.082 127.177C107.71 126.913 107.233 126.845 106.804 127.006C106.11 127.265 105.758 128.041 106.017 128.73C106.151 129.092 106.441 129.377 106.804 129.517C107.233 129.677 107.71 129.61 108.082 129.346C108.331 129.159 108.512 128.901 108.6 128.606C108.668 128.388 108.673 128.259 108.699 128.259C108.724 128.259 108.745 128.393 108.699 128.631C108.636 128.973 108.45 129.279 108.181 129.496C107.762 129.827 107.202 129.926 106.7 129.75C105.877 129.506 105.411 128.642 105.654 127.819C105.804 127.316 106.198 126.923 106.7 126.773C107.202 126.597 107.762 126.695 108.181 127.026C108.45 127.244 108.636 127.549 108.699 127.891C108.745 128.129 108.714 128.264 108.699 128.259Z" fill="#263238"/>
<path d="M108.683 128.285C108.217 128.285 107.751 128.352 107.306 128.492C106.897 128.714 106.519 128.994 106.193 129.33C106.162 129.33 106.193 129.144 106.358 128.916C106.571 128.616 106.866 128.383 107.202 128.243C107.539 128.098 107.906 128.052 108.269 128.114C108.543 128.16 108.693 128.253 108.683 128.285Z" fill="#263238"/>
<path d="M107.477 128.43C107.477 128.502 106.995 128.388 106.716 127.912C106.436 127.435 106.55 126.98 106.617 127.001C106.685 127.021 106.71 127.394 106.949 127.772C107.187 128.15 107.508 128.357 107.477 128.43Z" fill="#263238"/>
<path d="M108.823 130.935C108.859 130.935 108.709 131.344 108.248 131.826C107.979 132.116 107.663 132.354 107.306 132.53C106.861 132.737 106.364 132.83 105.872 132.799H105.716L105.753 132.649V132.52C105.882 132.023 106.172 131.577 106.571 131.256C106.897 130.997 107.29 130.827 107.705 130.775C108.077 130.697 108.466 130.754 108.797 130.946C108.455 130.909 108.103 130.909 107.761 130.946C107.394 131.023 107.047 131.189 106.757 131.432C106.405 131.727 106.157 132.126 106.043 132.571L106.017 132.685L105.892 132.525C106.343 132.556 106.788 132.478 107.202 132.302C107.534 132.157 107.839 131.955 108.103 131.712C108.59 131.267 108.792 130.92 108.823 130.935Z" fill="#263238"/>
<path d="M117.536 127.337C116.817 125.375 114.477 122.16 115.119 120.161C115.761 118.163 116.672 116.273 117.091 114.228C117.345 112.913 117.407 111.572 117.277 110.241C117.376 109.936 117.459 109.656 117.526 109.408C117.609 109.077 117.148 107.829 116.454 106.239C116.32 105.804 116.17 105.38 116.009 104.961C115.238 103.035 114.3 101.176 113.218 99.4052C112.395 97.7588 111.784 96.5732 111.784 96.5732L110.014 96.3454L108.978 93.4978L97.588 93.1044L96.7959 96.2936L94.2797 96.4179L88.2273 112.038L91.6133 128.606L114.394 127.632V127.539L117.536 127.337Z" fill="#455A64"/>
<path d="M95.8225 104.51C95.8225 103.138 95.7448 101.766 95.5895 100.399C95.253 98.1522 94.5074 96.4385 94.5955 96.4075C94.8181 96.7492 94.9889 97.1219 95.1132 97.5102C95.8018 99.3586 96.1021 101.331 95.9934 103.299C95.9934 103.708 95.9416 104.117 95.8225 104.51Z" fill="#263238"/>
<path d="M97.6191 101.6C97.3395 100.674 96.9926 99.7676 96.5836 98.8926C95.8381 97.474 94.9941 96.4592 95.0666 96.4075C95.7966 97.0754 96.392 97.8778 96.8217 98.7684C97.3188 99.633 97.5932 100.606 97.6191 101.6Z" fill="#263238"/>
<path d="M98.784 96.1382C98.7115 96.1382 98.639 95.693 98.6234 95.139C98.5665 94.7921 98.6079 94.4349 98.7322 94.1035C98.8047 94.1035 98.8771 94.554 98.8927 95.1079C98.9082 95.6619 98.8668 96.1382 98.784 96.1382Z" fill="#263238"/>
<path d="M100.901 96.071C100.824 96.071 100.767 95.6205 100.767 95.0665C100.767 94.5126 100.824 94.0621 100.901 94.0621C100.979 94.0621 101.036 94.5126 101.036 95.0665C101.036 95.6205 100.974 96.071 100.901 96.071Z" fill="#263238"/>
<path d="M103.107 96.1383C103.029 96.1383 102.947 95.6671 102.91 95.0717C102.874 94.4763 102.91 93.9948 102.988 93.9896C103.133 94.3262 103.2 94.6886 103.18 95.0562C103.242 95.4186 103.221 95.7914 103.107 96.1383Z" fill="#263238"/>
<path d="M105.043 96.1383C104.971 96.1383 104.883 95.7448 104.852 95.2478C104.821 94.7508 104.852 94.3418 104.924 94.3366C104.997 94.3314 105.085 94.7301 105.121 95.2271C105.157 95.7241 105.121 96.1332 105.043 96.1383Z" fill="#263238"/>
<path d="M106.71 95.9882C106.633 95.9882 106.576 95.5688 106.483 95.0666C106.389 94.5644 106.296 94.145 106.369 94.1191C106.441 94.0933 106.648 94.4816 106.747 95.0148C106.845 95.5481 106.783 95.9882 106.71 95.9882Z" fill="#263238"/>
<path d="M108.652 96.1383C108.574 96.1383 108.445 95.6982 108.253 95.1546C108.062 94.6109 107.891 94.1657 107.958 94.1191C108.026 94.0725 108.315 94.4815 108.507 95.0562C108.699 95.6309 108.724 96.1279 108.652 96.1383Z" fill="#263238"/>
<path d="M108.942 110.386C108.647 110.547 108.403 110.78 108.227 111.065C108.031 111.406 107.901 111.784 107.844 112.173C107.782 112.706 107.881 113.244 108.124 113.726L108.16 113.834H104.997L105.147 113.669C105.375 113.358 105.494 112.98 105.494 112.592C105.53 112.178 105.442 111.764 105.235 111.401C104.986 111.028 104.65 110.723 104.256 110.505L103.956 110.314C103.868 110.252 103.765 110.21 103.661 110.184C103.433 110.143 103.195 110.127 102.962 110.148H102.998C101.89 110.599 100.622 110.065 100.171 108.957C99.721 107.849 100.254 106.581 101.362 106.131C101.818 105.944 102.32 105.918 102.791 106.058L102.641 106.255C102.408 105.851 102.305 105.385 102.356 104.924C102.413 104.318 102.682 103.754 103.112 103.324C103.547 102.9 104.143 102.688 104.748 102.745C105.924 102.864 106.845 103.796 106.949 104.971L106.705 104.924C107.109 103.92 108.253 103.433 109.258 103.837C110.195 104.215 110.692 105.245 110.407 106.213L110.231 106.1C110.79 105.665 111.556 105.628 112.157 106.001C112.701 106.301 113.048 106.861 113.073 107.482C113.11 108.466 112.587 109.382 111.722 109.853C111.189 110.143 110.593 110.298 109.988 110.309C109.832 110.319 109.672 110.319 109.517 110.309C109.46 110.309 109.408 110.298 109.356 110.283C109.356 110.283 109.579 110.283 109.983 110.257C110.573 110.21 111.147 110.034 111.66 109.739C112.017 109.527 112.323 109.232 112.545 108.88C112.804 108.466 112.928 107.979 112.897 107.487C112.866 106.933 112.551 106.436 112.059 106.172C111.536 105.851 110.863 105.887 110.376 106.26L110.091 106.509L110.195 106.146C110.402 105.307 109.988 104.443 109.206 104.075C108.321 103.739 107.327 104.153 106.943 105.023L106.716 105.577V104.976C106.607 103.935 105.784 103.117 104.743 103.009C104.215 102.967 103.697 103.154 103.319 103.526C102.931 103.909 102.693 104.417 102.641 104.955C102.6 105.359 102.688 105.768 102.89 106.12L103.06 106.41L102.739 106.322C101.663 106.079 100.591 106.757 100.353 107.834C100.311 108.015 100.296 108.207 100.306 108.393C100.513 109.496 101.575 110.221 102.677 110.014C102.765 109.998 102.848 109.977 102.931 109.946H102.926C103.185 109.926 103.444 109.946 103.697 109.993C103.827 110.019 103.951 110.076 104.06 110.159L104.365 110.35C104.784 110.588 105.137 110.925 105.401 111.329C105.623 111.732 105.722 112.188 105.68 112.649C105.675 113.084 105.53 113.503 105.266 113.845L105.193 113.679H108.051L107.979 113.788C107.736 113.286 107.648 112.727 107.725 112.173C107.793 111.769 107.943 111.386 108.16 111.039C108.295 110.832 108.471 110.656 108.678 110.521C108.756 110.459 108.849 110.412 108.942 110.386Z" fill="white"/>
<path d="M110.329 108.17C110.329 108.17 110.376 108.289 110.329 108.502C110.288 108.807 110.159 109.097 109.957 109.33C109.656 109.693 109.211 109.905 108.74 109.91C108.155 109.91 107.606 109.62 107.28 109.133L107.233 109.066H107.477C107.233 109.594 106.731 109.951 106.151 110.014C105.685 110.06 105.23 109.894 104.909 109.553C104.697 109.335 104.557 109.061 104.5 108.761C104.469 108.652 104.469 108.543 104.5 108.434C104.583 108.802 104.759 109.139 105.018 109.413C105.307 109.693 105.701 109.822 106.1 109.77C106.581 109.708 107 109.403 107.208 108.963L107.311 108.73L107.446 108.947L107.487 109.004C107.762 109.418 108.222 109.667 108.719 109.677C109.128 109.682 109.522 109.517 109.796 109.216C110.065 108.921 110.252 108.564 110.329 108.17Z" fill="white"/>
<path d="M101.797 115.294C101.797 115.294 101.839 115.289 101.859 115.294C101.896 115.315 101.921 115.357 101.921 115.398C101.88 115.745 101.844 116.019 101.823 116.216C101.761 116.708 101.73 116.987 101.73 117.055C101.73 117.324 101.797 117.459 101.937 117.459C102.206 117.448 102.46 117.314 102.62 117.096C102.802 116.863 102.931 116.594 103.009 116.309C102.843 116.309 102.677 116.257 102.543 116.154C102.408 116.045 102.33 115.879 102.341 115.703C102.341 115.574 102.398 115.445 102.496 115.362C102.584 115.284 102.693 115.243 102.807 115.243C102.941 115.243 103.076 115.294 103.174 115.388C103.288 115.507 103.35 115.662 103.345 115.828C103.345 115.869 103.345 115.936 103.345 116.03H103.418C103.495 116.004 103.568 115.968 103.63 115.921C103.677 115.89 103.728 115.869 103.78 115.864C103.796 115.864 103.816 115.864 103.832 115.864C103.868 115.885 103.894 115.926 103.889 115.968C103.889 116.035 103.837 116.097 103.733 116.159C103.594 116.237 103.444 116.283 103.288 116.299C103.205 116.635 103.055 116.951 102.848 117.231C102.636 117.547 102.284 117.738 101.901 117.749C101.854 117.759 101.808 117.759 101.761 117.749C101.575 117.676 101.487 117.459 101.487 117.101C101.487 116.848 101.512 116.594 101.559 116.34C101.606 116.03 101.637 115.823 101.647 115.688L101.393 115.848C101.336 115.89 101.274 115.926 101.207 115.947C101.186 115.952 101.16 115.952 101.14 115.947C101.103 115.926 101.078 115.885 101.078 115.838C101.078 115.786 101.109 115.74 101.155 115.714C101.357 115.553 101.569 115.414 101.797 115.294ZM102.6 115.766C102.6 115.812 102.61 115.864 102.631 115.905C102.698 116.024 102.843 116.081 103.071 116.081C103.076 116.004 103.076 115.921 103.071 115.843C103.081 115.797 103.081 115.75 103.071 115.703C103.045 115.605 102.957 115.533 102.853 115.538C102.802 115.538 102.75 115.548 102.708 115.574C102.641 115.615 102.6 115.688 102.6 115.766Z" fill="white"/>
<path d="M103.961 115.289H105.059C105.111 115.305 105.147 115.357 105.147 115.414C105.147 115.429 105.147 115.445 105.147 115.46C105.121 115.507 105.074 115.538 105.017 115.543H104.096L103.982 116.413H104.645C104.645 116.413 104.691 116.408 104.717 116.413C104.764 116.434 104.795 116.48 104.795 116.532C104.795 116.547 104.795 116.558 104.795 116.573C104.795 116.625 104.733 116.651 104.665 116.661H103.91L103.806 117.474H104.712C104.712 117.474 104.759 117.469 104.779 117.474C104.831 117.49 104.862 117.542 104.862 117.593C104.862 117.609 104.862 117.619 104.862 117.635C104.841 117.686 104.79 117.723 104.733 117.723H103.697C103.697 117.723 103.651 117.728 103.625 117.723C103.583 117.692 103.557 117.64 103.563 117.588C103.563 117.588 103.656 116.843 103.847 115.393C103.847 115.377 103.847 115.362 103.847 115.346C103.873 115.305 103.915 115.284 103.961 115.289Z" fill="white"/>
<path d="M106.084 116.511H106.679C106.679 116.511 106.721 116.511 106.742 116.511C106.783 116.532 106.809 116.573 106.804 116.62V116.698C106.804 116.744 106.778 116.796 106.762 116.848C106.69 117.096 106.566 117.329 106.389 117.521C106.26 117.676 106.074 117.769 105.872 117.78H105.799C105.628 117.749 105.478 117.645 105.395 117.49C105.271 117.272 105.214 117.024 105.219 116.775C105.219 116.599 105.245 116.428 105.292 116.257C105.354 116.004 105.473 115.771 105.644 115.569C105.768 115.408 105.955 115.305 106.162 115.289C106.239 115.289 106.317 115.305 106.389 115.336C106.555 115.429 106.679 115.59 106.736 115.771C106.736 115.792 106.736 115.812 106.736 115.833C106.736 115.854 106.736 115.874 106.736 115.895C106.716 115.931 106.674 115.957 106.628 115.957H106.586C106.55 115.947 106.519 115.916 106.503 115.88C106.488 115.828 106.462 115.781 106.431 115.74C106.374 115.636 106.265 115.574 106.146 115.569C106.074 115.569 106.006 115.6 105.949 115.641C105.804 115.766 105.691 115.926 105.628 116.107C105.54 116.32 105.489 116.547 105.489 116.78C105.483 116.956 105.515 117.132 105.587 117.298C105.634 117.433 105.758 117.521 105.898 117.531C106.012 117.516 106.12 117.453 106.188 117.36C106.322 117.195 106.426 117.008 106.493 116.806H106.063C105.97 116.806 105.924 116.744 105.924 116.667C105.924 116.651 105.924 116.635 105.924 116.62C105.939 116.547 106.012 116.501 106.084 116.511Z" fill="white"/>
<path d="M108.103 115.357V115.398C108.103 115.486 108.264 116.221 108.517 117.604C108.517 117.614 108.517 117.624 108.517 117.635C108.517 117.655 108.517 117.681 108.517 117.702C108.497 117.738 108.455 117.764 108.414 117.764C108.367 117.759 108.326 117.723 108.315 117.676L108.171 116.941H107.43L107.078 117.676C107.078 117.676 107.078 117.692 107.078 117.702C107.052 117.738 107.016 117.764 106.969 117.764C106.943 117.769 106.923 117.769 106.897 117.764C106.861 117.743 106.84 117.702 106.84 117.661C106.84 117.645 106.84 117.635 106.84 117.619C106.84 117.567 106.897 117.49 106.949 117.381C107.466 116.263 107.767 115.6 107.865 115.403C107.896 115.341 107.932 115.31 107.989 115.31C108.031 115.31 108.077 115.32 108.103 115.357ZM107.948 115.848L107.549 116.682H108.103L107.948 115.848Z" fill="white"/>
<path d="M110.428 117.64C110.428 117.723 110.386 117.764 110.304 117.764C110.247 117.764 110.195 117.723 110.169 117.671L109.361 115.828C109.361 115.911 109.335 116.009 109.325 116.118C109.216 117.003 109.154 117.51 109.133 117.635C109.113 117.759 109.071 117.764 108.999 117.764C108.978 117.769 108.952 117.769 108.932 117.764C108.89 117.733 108.864 117.681 108.869 117.629C109.061 116.169 109.159 115.439 109.159 115.434V115.382C109.185 115.341 109.232 115.315 109.278 115.315C109.351 115.315 109.392 115.315 109.413 115.377L110.221 117.184L110.454 115.439C110.454 115.439 110.454 115.403 110.454 115.382C110.469 115.341 110.511 115.31 110.557 115.315C110.578 115.31 110.604 115.31 110.625 115.315C110.661 115.341 110.682 115.382 110.682 115.424V115.543C110.542 116.796 110.454 117.5 110.428 117.64Z" fill="white"/>
<path d="M21.6879 196.294C21.3876 196.905 13.7614 203.765 13.7614 203.765C13.7614 203.765 12.3117 213.809 13.8339 214.42L23.7537 214.524C23.5984 213.152 20.1658 206.204 20.1658 206.204L26.2647 200.871L21.6879 196.294Z" fill="#FFBE9D"/>
<path d="M156.077 214.42C158.287 214.244 153.188 212.261 150.728 211.697C147.762 211.019 145.38 210.201 145.38 210.201L145.598 198.484L136.475 197.366L135.926 213.24C135.937 213.892 136.429 214.441 137.076 214.524L156.077 214.42Z" fill="#FFBE9D"/>
<path d="M35.5633 183.154L35.6099 183.118L35.5633 183.154Z" fill="#7CC2D9"/>
<path d="M143.827 151.417L114.984 140.866L114.114 134.653L91.8515 133.897H91.634V133.923C90.2206 134.192 84.422 136.791 80.2853 141.994C77.4222 145.592 58.4834 167.482 56.8629 167.943C55.2424 168.404 35.3096 183.449 35.5788 183.17L20.9734 195.823L24.8927 202.067L68.5068 180.322C84.4168 172.67 103.283 169.01 120.933 168.523C123.086 168.466 125.401 168.523 127.171 169.734C130.972 172.359 132.618 176.558 134.218 184.718L135.771 202.901L145.51 203.537L150.216 160.917C150.485 156.667 147.86 152.773 143.827 151.417Z" fill="#7CC2D9"/>
<path d="M25.017 195.393C24.5976 195.844 24.1109 196.232 23.5777 196.537C23.0962 196.921 22.5577 197.231 21.983 197.459C22.4076 197.014 22.8942 196.625 23.4275 196.315C23.9142 195.937 24.4475 195.626 25.017 195.393Z" fill="#263238"/>
<path d="M26.0628 197.63C25.6435 198.008 25.1671 198.319 24.6494 198.546C24.1679 198.852 23.645 199.085 23.0962 199.23C23.5156 198.852 23.9867 198.541 24.5044 198.308C24.9859 197.997 25.5088 197.77 26.0628 197.63Z" fill="#263238"/>
<path d="M27.2277 199.105C26.8032 199.52 26.3165 199.872 25.7832 200.141C25.2965 200.488 24.7633 200.762 24.1989 200.954C24.6287 200.54 25.1153 200.193 25.6434 199.918C26.1301 199.571 26.6634 199.297 27.2277 199.105Z" fill="#263238"/>
<path d="M114.171 135.952C113.886 136.066 113.596 136.164 113.301 136.237C113.022 136.325 112.675 136.423 112.266 136.517C111.857 136.61 111.396 136.734 110.873 136.817C109.656 137.05 108.429 137.205 107.197 137.283C104.168 137.474 101.129 137.221 98.173 136.527C96.9667 136.247 95.7811 135.89 94.6214 135.46C94.1036 135.289 93.6895 135.093 93.3011 134.943C92.9128 134.792 92.5867 134.632 92.3226 134.497C92.0431 134.378 91.7686 134.233 91.515 134.068C91.8049 134.161 92.0896 134.27 92.364 134.404C92.6333 134.523 92.9646 134.663 93.3581 134.803C93.7516 134.943 94.1865 135.134 94.6835 135.289C95.8432 135.688 97.0288 136.025 98.2248 136.294C101.16 136.951 104.174 137.205 107.182 137.045C108.409 136.977 109.631 136.843 110.842 136.641C111.36 136.568 111.821 136.46 112.23 136.382C112.639 136.304 112.991 136.221 113.265 136.149C113.56 136.056 113.866 135.988 114.171 135.952Z" fill="#263238"/>
<path d="M103.682 156.113C103.682 156.113 103.64 156.061 103.589 155.947C103.511 155.776 103.444 155.605 103.381 155.429C103.154 154.798 102.993 154.145 102.9 153.478C102.76 152.489 102.76 151.479 102.9 150.49C102.988 149.905 103.128 149.325 103.314 148.766C103.506 148.181 103.765 147.601 104.003 147.006C104.495 145.831 104.857 144.629 104.603 143.563C104.35 142.496 103.671 141.704 103.324 140.922C103.009 140.312 102.9 139.613 103.014 138.934C103.05 138.753 103.123 138.577 103.221 138.417C103.293 138.313 103.335 138.261 103.345 138.266C103.247 138.484 103.169 138.717 103.117 138.95C103.045 139.602 103.18 140.26 103.501 140.834C103.682 141.207 103.93 141.596 104.189 142.025C104.479 142.481 104.702 142.978 104.841 143.501C104.976 144.091 104.976 144.702 104.841 145.292C104.702 145.913 104.505 146.519 104.251 147.104C104.013 147.705 103.734 148.274 103.568 148.844C103.381 149.393 103.236 149.952 103.143 150.521C102.993 151.489 102.967 152.473 103.076 153.446C103.205 154.353 103.407 155.243 103.682 156.113Z" fill="#263238"/>
<path d="M108.259 155.108C108.186 154.906 108.134 154.705 108.103 154.492C108 154.088 107.87 153.498 107.73 152.763C107.363 150.847 107.094 148.911 106.918 146.97C106.742 145.023 106.669 143.071 106.695 141.119C106.695 140.374 106.726 139.768 106.757 139.348C106.757 139.131 106.783 138.914 106.824 138.701C106.861 138.919 106.876 139.136 106.861 139.354V141.119C106.861 142.615 106.959 144.676 107.161 146.944C107.363 149.211 107.653 151.256 107.891 152.727C108.005 153.421 108.103 154.006 108.181 154.472C108.233 154.679 108.259 154.896 108.259 155.108Z" fill="#263238"/>
<path d="M133.286 171.702C133.265 171.645 133.25 171.588 133.244 171.531C133.244 171.407 133.193 171.236 133.151 171.013C133.11 170.739 133.048 170.464 132.97 170.2C132.882 169.833 132.768 169.47 132.628 169.118C131.753 166.856 130.283 164.878 128.367 163.392C127.073 162.346 125.629 161.492 124.086 160.866C122.315 160.151 120.446 159.701 118.541 159.535C114.513 159.121 110.055 159.809 105.52 160.907C100.984 162.005 96.6768 163.216 92.8352 164.531C89.4285 165.655 86.0942 167.001 82.8688 168.57C80.6943 169.636 78.5871 170.848 76.5731 172.194C75.8483 172.649 75.3202 173.058 74.9474 173.307L74.5229 173.597C74.4763 173.633 74.4245 173.664 74.3727 173.69C74.3727 173.69 74.4141 173.648 74.5073 173.576L74.9112 173.265C75.2788 172.996 75.7965 172.577 76.5161 172.106C78.5146 170.728 80.6063 169.496 82.7807 168.419C86.0062 166.825 89.3405 165.453 92.7575 164.314C96.6043 163.004 100.907 161.808 105.458 160.69C110.008 159.571 114.492 158.903 118.567 159.333C120.482 159.504 122.367 159.954 124.153 160.674C125.711 161.321 127.166 162.196 128.471 163.263C130.397 164.78 131.862 166.804 132.706 169.103C132.841 169.46 132.949 169.828 133.027 170.2C133.099 170.47 133.156 170.744 133.187 171.024L133.25 171.541C133.27 171.593 133.281 171.645 133.286 171.702Z" fill="#263238"/>
<path d="M139.017 200.369C139.136 201.233 139.079 202.113 138.841 202.957C138.732 202.533 138.717 202.088 138.795 201.653C138.779 201.213 138.857 200.778 139.017 200.369Z" fill="#263238"/>
<path d="M141.637 201.233C141.709 201.585 141.694 201.948 141.595 202.295C141.502 202.864 141.363 203.33 141.29 203.304C141.218 203.278 141.233 202.823 141.331 202.269C141.43 201.715 141.559 201.223 141.637 201.233Z" fill="#263238"/>
<path d="M144.039 201.057C144.163 201.808 144.101 202.58 143.863 203.304C143.76 202.937 143.744 202.548 143.817 202.171C143.806 201.787 143.884 201.409 144.039 201.057Z" fill="#263238"/>
<path d="M99.2499 54.7868C98.8927 54.326 97.1427 53.4303 95.0821 53.6995C94.6162 53.6943 94.2434 53.306 94.2538 52.8401C94.2538 52.7935 94.2538 52.7521 94.2641 52.7106C94.3469 51.2817 94.8854 46.3528 94.8543 45.5089C94.8543 44.7582 94.5644 43.9247 94.1761 44.5304C93.6739 45.7419 93.2597 46.9897 92.9335 48.2581C93.3063 46.8861 94.0363 43.9454 93.4513 43.8056C93.1251 43.7227 92.685 44.1887 92.2398 45.4365C92.4261 44.8255 92.5038 44.1887 92.4727 43.5519C91.955 42.2368 90.4846 47.176 90.4846 47.176C91.4839 43.7176 91.6392 43.8263 91.2095 43.5985C90.8833 43.4276 90.4277 44.1162 89.6252 45.8921C88.9729 47.3417 88.0099 48.7137 86.8967 50.8675L76.8682 76.5472C75.4341 80.2076 75.5739 84.3028 77.2461 87.8597L88.2636 111.287C88.3982 111.909 88.9366 112.354 89.5734 112.374C90.2361 112.364 90.8626 112.095 91.3285 111.624C92.5866 110.474 93.0837 108.719 93.3995 107.047C94.0932 103.521 94.5644 100.021 94.2745 96.4386L85.4212 80.5079L93.1561 56.6299C93.5807 56.428 94.0829 56.2002 94.7094 55.9568C95.2323 55.7497 95.7862 55.6358 96.3506 55.61C97.0547 55.5582 97.7588 55.5996 98.4526 55.7342C99.0946 55.9051 99.6123 55.2527 99.2499 54.7868Z" fill="#FFBE9D"/>
<path d="M88.7243 52.5397C88.7243 52.5139 88.9832 52.5915 89.3145 52.8504C89.7546 53.2128 90.0704 53.6943 90.2361 54.2379L90.0187 54.1758L90.3604 53.8859C90.847 53.4251 91.458 53.1196 92.1155 53.0057C92.6332 52.9488 92.9335 53.1093 92.918 53.1351C92.9025 53.161 92.6073 53.0937 92.1466 53.1973C91.5408 53.3526 90.9868 53.6632 90.5312 54.093L90.1947 54.3777L90.0342 54.5123L89.9772 54.3104C89.8323 53.8082 89.5631 53.3526 89.1955 52.985C88.9159 52.7002 88.7036 52.5708 88.7243 52.5397Z" fill="#EB996E"/>
<path d="M93.6739 45.3846C93.6428 46.037 93.5186 46.6842 93.3063 47.3003C93.1872 47.9422 92.975 48.5635 92.6798 49.1434C92.7161 48.491 92.8352 47.8439 93.0474 47.2278C93.1717 46.5858 93.384 45.9697 93.6739 45.3846Z" fill="#EB996E"/>
<path d="M91.2095 48.4083C91.2095 47.8129 91.3234 47.2227 91.546 46.6739C91.6858 46.0992 91.9395 45.5556 92.2863 45.0741C92.188 45.6488 92.0275 46.2131 91.8049 46.7567C91.6651 47.3262 91.4632 47.8802 91.2095 48.4083Z" fill="#EB996E"/>
<path d="M90.0187 48.1131C90.2051 47.5177 90.4277 46.9379 90.6866 46.3735C90.8626 45.7781 91.0697 45.1879 91.3182 44.6184C91.2561 45.892 90.8057 47.1087 90.0187 48.1131Z" fill="#EB996E"/>
<g opacity="0.2">
<path opacity="0.2" d="M70.7072 176.522C81.124 168.321 93.8603 162.962 106.871 160.436C110.604 159.711 114.425 159.24 118.204 159.639C121.984 160.037 125.748 161.363 128.595 163.884C129.248 164.464 129.895 165.277 129.657 166.115C129.418 166.737 128.854 167.166 128.191 167.229C127.544 167.28 126.892 167.218 126.265 167.047C115.062 164.749 103.485 167.487 92.4003 170.211C85.0795 172.007 77.738 173.809 70.7072 176.522Z" fill="black"/>
</g>
<path d="M229.295 190.589C230.537 190.801 231.64 191.505 232.355 192.541C233.054 193.576 233.504 194.757 233.675 195.994C234.073 198.37 233.432 201.062 232.551 203.304C230.128 202.17 228.839 199.349 228.275 197.878C227.384 195.554 227.188 190.806 229.31 190.589" fill="#AAD96E"/>
<path d="M236.118 206.644C235.373 205.432 235.337 203.915 236.025 202.673C236.724 201.456 237.884 200.565 239.24 200.208C239.851 199.975 240.53 200.022 241.099 200.338C241.581 200.721 241.814 201.332 241.715 201.937C241.607 202.533 241.342 203.087 240.954 203.548C239.691 205.178 238.174 206.519 236.118 206.654" fill="#AAD96E"/>
<path d="M235.508 214.161C235.456 213.995 235.425 213.819 235.425 213.643C235.389 213.322 235.352 212.856 235.316 212.277C235.207 210.76 235.301 209.232 235.596 207.741C235.906 206.229 236.621 204.832 237.667 203.698C237.988 203.361 238.345 203.066 238.738 202.823C238.873 202.724 239.028 202.647 239.189 202.595C238.697 202.968 238.231 203.382 237.806 203.827C236.838 204.966 236.17 206.333 235.87 207.798C235.58 209.269 235.461 210.77 235.518 212.266C235.549 212.898 235.549 213.529 235.508 214.161Z" fill="#263238"/>
<path d="M229.859 194.187C229.983 194.435 230.082 194.699 230.165 194.963C230.346 195.481 230.594 196.201 230.889 197.112C231.485 198.935 232.267 201.466 233.059 204.283C233.851 207.099 234.508 209.667 234.954 211.531C235.171 212.463 235.347 213.219 235.471 213.742C235.539 214.011 235.59 214.285 235.616 214.565C235.508 214.306 235.425 214.042 235.368 213.768L234.783 211.572C234.291 209.724 233.607 207.167 232.815 204.35C232.023 201.534 231.262 199.002 230.744 197.164C230.48 196.284 230.268 195.549 230.102 194.989C229.999 194.731 229.916 194.461 229.859 194.187Z" fill="#263238"/>
<path d="M232.878 208.901C231.65 206.183 229.191 204.226 226.271 203.635C225.536 203.496 224.635 203.516 224.226 204.153C223.817 204.79 224.169 205.618 224.609 206.224C226.535 208.772 229.802 209.916 232.893 209.118" fill="#AAD96E"/>
<path d="M227.089 205.748C227.25 205.738 227.415 205.753 227.571 205.795C227.757 205.826 227.943 205.862 228.13 205.914C228.373 205.976 228.611 206.048 228.85 206.131C229.471 206.349 230.066 206.623 230.631 206.959C231.319 207.379 231.956 207.871 232.541 208.425C233.116 208.989 233.623 209.616 234.063 210.289C234.42 210.837 234.715 211.428 234.948 212.039C235.042 212.272 235.124 212.51 235.192 212.753C235.249 212.934 235.295 213.115 235.326 213.302C235.373 213.457 235.394 213.623 235.389 213.783C235.337 213.783 235.207 213.121 234.772 212.111C234.519 211.521 234.208 210.956 233.856 210.423C233.416 209.771 232.909 209.165 232.349 208.616C231.78 208.078 231.164 207.591 230.501 207.172C229.952 206.835 229.378 206.545 228.782 206.312C227.762 205.903 227.079 205.795 227.089 205.748Z" fill="#263238"/>
</g>
<defs>
<clipPath id="clip0_19_2176">
<rect width="352.889" height="214.71" fill="white"/>
</clipPath>
</defs>
</svg>
