<?xml version="1.0" encoding="utf-8"?>
<!-- Generator: Adobe Illustrator 26.0.3, SVG Export Plug-In . SVG Version: 6.00 Build 0)  -->
<svg version="1.1" id="head-block-01.svg" xmlns="http://www.w3.org/2000/svg" xmlns:xlink="http://www.w3.org/1999/xlink" x="0px"
	 y="0px" viewBox="0 0 279.5 124.2" style="enable-background:new 0 0 279.5 124.2;" xml:space="preserve">
<style type="text/css">
	.st0{fill:#D2ECF9;}
	.st1{fill:#1147B4;}
</style>
<rect id="長方形_1367" x="13.3" y="25.4" class="st0" width="251.9" height="10"/>
<rect id="長方形_1367-2" x="-0.4" y="75.4" class="st0" width="279.3" height="10"/>
<g>
	<path class="st1" d="M18,15.8c-1.1-1-3.4-2.4-5.2-3.2L15,9.8c1.9,0.7,4.2,1.9,5.3,2.9L18,15.8z M21,20.4c-1.2,3.4-2.7,7-4.1,10.1
		l-3.4-2.1C14.8,26,16.6,22,18,18.3L21,20.4z M19.5,7.3c-1.1-1.1-3.3-2.5-5.2-3.4l2.2-2.8c1.8,0.8,4.1,2.1,5.2,3.1L19.5,7.3z
		 M37.3,12.5c1.5,1.8,3.6,3.3,6,4.2c-0.8,0.6-1.9,2-2.4,2.9c-0.4-0.2-0.9-0.4-1.3-0.7c1.5,2.3,2.9,5.1,3.6,7L40,27.6
		c-0.6-2.2-2.3-5.5-3.9-8l2.5-1.2c-2.1-1.5-4-3.5-5.3-5.8h-2.9c-1.4,2.6-3.3,4.8-5.7,6.5l2.8,1.1c-0.8,2.6-2,5.5-4,7.4l-2.8-2
		c1.8-1.5,3.1-4,3.8-6.3c-0.7,0.4-1.4,0.9-2.1,1.2c-0.5-0.8-1.7-2.2-2.4-2.9c2.6-1.2,4.5-2.9,6-5h-4.8V9H28c0.4-0.9,0.7-1.9,0.9-2.9
		h-6.1V2.6h18.8v3.5h-8.7c-0.3,1-0.6,2-0.9,2.9h10.7v3.5H37.3z M34.8,19.5c1,2.1,1.9,4.8,2.3,6.6l-3,1.2c-0.3-1.8-1.2-4.5-2.1-6.7
		v6.5c0,1.7-0.3,2.6-1.3,3.2c-1.1,0.5-2.5,0.6-4.5,0.6c-0.1-1-0.5-2.4-1-3.4c1.2,0.1,2.4,0,2.8,0s0.5-0.1,0.5-0.4V15.6H32v4.9
		L34.8,19.5z"/>
	<path class="st1" d="M60,6.7c0,0,0,1.2,0,1.7c-0.3,13.6-0.5,18.5-1.5,20c-0.7,1.1-1.4,1.4-2.5,1.6c-0.9,0.2-2.4,0.2-3.9,0.1
		C52,29,51.7,27.4,51,26.3c1.3,0.1,2.4,0.1,3,0.1c0.5,0,0.8-0.1,1.1-0.6c0.6-0.9,0.9-4.8,1.1-15.5H53c-0.3,8.5-1.4,15.7-5.6,20.4
		c-0.6-0.9-1.8-2.2-2.8-2.8c3.6-4.1,4.4-10.2,4.7-17.7h-3.7V6.7h3.7c0-1.7,0-3.5,0-5.3H53c0,1.8,0,3.6,0,5.3H60z M73.4,4.6V30h-3.8
		v-2h-4.1v2.2h-3.7V4.6H73.4z M69.5,24.3v-16h-4.1v16H69.5z"/>
	<path class="st1" d="M79.8,10c-0.4,0.4-0.8,0.8-1.2,1.2c-0.3-0.6-1.2-2.1-1.8-2.7c1.9-1.8,3.6-4.5,4.6-7.4l2.9,0.8
		c-0.3,0.8-0.6,1.6-1,2.5h2.4c-0.3-0.8-0.6-1.6-1-2.3l3.1-0.9c0.5,1,1.1,2.2,1.4,3.2h2.3v2.4h-3.3V8H91l0,0c1.7-1.9,3.1-4.4,4-6.9
		l3,0.8c-0.3,0.8-0.6,1.6-1,2.5h2.4c-0.3-0.8-0.6-1.6-0.9-2.3l3.1-0.9c0.5,1,1.1,2.2,1.4,3.1h2.9v2.4h-4v1.2h3.1v2.2h-3.1v1.2h3.1
		v2.2h-3.1v1.2h4.4v2.4H93.4V10c-0.4,0.5-0.8,0.9-1.2,1.3c-0.3-0.4-0.8-1.2-1.3-1.8v0.6h-2.7v1.2H91v2.2h-2.7v1.2h3.6v2.4H79.8V10z
		 M103.2,19.9c-1.5,2.4-3.6,4.4-6.1,5.9c2.8,0.6,6,1,9.2,1.2c-0.8,0.9-1.8,2.6-2.3,3.6c-4.4-0.4-8.4-1.2-12-2.5
		c-4,1.4-8.5,2.3-13.2,2.8c-0.3-1-0.9-2.5-1.5-3.4c3.5-0.3,6.9-0.7,10-1.5c-1.8-1.1-3.4-2.3-4.8-3.7l1.5-0.7h-4.9v-3.1H100l0.7-0.2
		L103.2,19.9z M85.3,6.7H83v1.2h2.3V6.7z M85.3,10.1H83v1.2h2.3V10.1z M85.3,13.6H83v1.2h2.3V13.6z M87,21.6c1.4,1.1,3.2,2,5.2,2.8
		c1.8-0.8,3.4-1.7,4.7-2.8H87z M98.9,6.7h-2.2v1.2h2.2V6.7z M98.9,10.1h-2.2v1.2h2.2V10.1z M98.9,13.6h-2.2v1.2h2.2V13.6z"/>
	<path class="st1" d="M138.4,27v3h-29v-3h12.4v-1.7h-10.1v-2.8h10.1V21h-9V10.8h9V9.6h-12.2v-3h12.2V5.2c-3.1,0.1-6.2,0.2-9.1,0.3
		c0-0.9-0.4-2.1-0.8-2.9c7.5-0.2,16.1-0.7,21.5-1.6l1.8,2.9c-2.8,0.4-6.1,0.8-9.6,1.1v1.7h12.5v3h-12.5v1.2h9.5V21h-9.5v1.4h10.7
		v2.8h-10.7V27H138.4z M116.5,14.8h5.3v-1.4h-5.3V14.8z M121.8,18.5v-1.4h-5.3v1.4H121.8z M125.7,13.3v1.4h5.6v-1.4H125.7z
		 M131.3,17.1h-5.6v1.4h5.6V17.1z"/>
	<path class="st1" d="M152.9,8.4c-0.4,0.9-0.8,1.7-1.3,2.5h14.9v15.8c0,1.9-0.4,2.9-1.7,3.5c-1.2,0.6-3.1,0.6-5.7,0.6
		c-0.2-1.1-0.7-2.7-1.2-3.7c1.6,0.1,3.5,0.1,4,0.1s0.7-0.2,0.7-0.6v-1.9h-12c-0.5,2.4-1.6,4.7-3.6,6.4c-0.5-0.8-2-2.4-2.8-2.9
		c2.8-2.4,3-5.8,3-8.8v-2.6c-1.2,1.3-2.5,2.5-4,3.5c-0.6-0.9-1.8-2.2-2.5-2.9c3.2-2.1,5.8-5.4,7.7-8.9h-6.9V4.8h8.6
		c0.5-1.3,0.9-2.6,1.3-3.9l3.9,0.9c-0.3,1-0.7,2-1,3h15.6v3.6H152.9z M162.8,21.6v-2.1h-11.5c0,0.7,0,1.3-0.1,2.1H162.8z
		 M162.8,14.3h-11.5v2h11.5V14.3z"/>
	<path class="st1" d="M201,10.1c-0.7,4.9-1.9,9-3.7,12.3c1.6,2.3,3.5,4.2,5.8,5.5c-0.9,0.7-2,2.1-2.6,3c-2.1-1.4-3.9-3.1-5.3-5.3
		c-1.8,2.2-4.1,4-6.8,5.4c-0.5-0.7-1.9-2.1-2.6-2.8c3.3-1.4,5.7-3.3,7.5-5.9c-0.9-1.8-1.7-3.7-2.3-5.7c-0.4,0.7-0.9,1.4-1.3,2
		c-0.4-0.7-1.5-2.2-2.2-2.9l-1.4,0.8c-0.1-0.4-0.3-0.9-0.5-1.4c-0.5,1.8-1.1,3.4-1.8,4.9c1.6,1.9,3.1,3.7,4,5.3l-3,2.4
		c-0.6-1.2-1.6-2.6-2.8-4.2c-1.7,2.7-3.8,5-6.3,6.7c-0.5-0.7-1.8-2.1-2.5-2.8c2.8-1.6,4.9-3.9,6.5-6.8c-1.1-1.2-2.2-2.4-3.2-3.5
		c-0.3,0.4-0.6,0.9-0.9,1.2c-0.6-0.6-1.8-1.8-2.6-2.4c1.6-1.8,3.2-4.6,4.2-7.2l3.2,1c-1,2.3-2.4,4.8-3.7,6.9l2.4-1.8
		c0.7,0.7,1.4,1.4,2.1,2.2c0.4-1.1,0.7-2.2,1-3.4l3,0.6c-0.8-1.4-1.8-3-2.8-4.3l2.3-1.3h-11V5.4h6.3c-0.4-1.1-1.1-2.3-1.7-3.4
		l3.2-1.2c0.8,1.2,1.7,2.7,2,3.7l-2,0.8h7.4v3.4H185c1.2,1.5,2.5,3.4,3.3,5c1.9-3.4,3.1-8,3.7-12.8l3.5,0.6c-0.2,1.7-0.6,3.4-1,5
		h7.9V10H201V10.1z M193.6,10.1c-0.2,0.7-0.4,1.4-0.7,2c0.6,2.3,1.3,4.5,2.3,6.5c1-2.4,1.7-5.3,2.2-8.5H193.6z"/>
	<path class="st1" d="M232.8,12.1c-1.3,4.2-3.2,7.9-5.5,11c0.9,2.3,2,3.6,3,3.6c0.8,0,1.2-1.6,1.3-5.6c0.9,0.9,2.2,1.7,3.2,2.1
		c-0.6,5.9-1.9,7.3-4.9,7.3c-2.2,0-4-1.6-5.4-4.2c-1.6,1.7-3.4,3.1-5.4,4.4c-0.6-0.8-2-2.4-2.8-3.1c2.5-1.3,4.7-3.1,6.5-5.2
		c-1.1-3.6-1.8-8.1-2.2-12.9h-9.3V13h7.9c0,0,0,1,0,1.4c-0.1,6.7-0.3,9.6-1,10.5c-0.6,0.8-1.2,1.1-2.2,1.3c-0.8,0.1-2.2,0.1-3.7,0.1
		c-0.1-1.1-0.5-2.6-1.1-3.6c1.2,0.1,2.2,0.1,2.8,0.1c0.4,0,0.7-0.1,1-0.4c0.3-0.4,0.4-2,0.5-6h-4.2c-0.1,4.7-0.8,10.9-3.4,14.8
		c-0.7-0.7-2.4-2.1-3.2-2.6c2.4-3.8,2.7-9.4,2.7-13.6V5.8h13.1c-0.1-1.6-0.1-3.1-0.1-4.7h4c0,1.6,0,3.2,0.1,4.7h4.9
		c-1.2-1-2.8-2-4.1-2.8l2.3-2.3c1.8,0.9,4.1,2.4,5.2,3.4l-1.5,1.6h3.3v3.8h-9.9c0.3,3.2,0.7,6.2,1.3,8.8c1.2-2.1,2.3-4.5,3.1-7.1
		L232.8,12.1z"/>
	<path class="st1" d="M258,1.5c1.5,4.7,4.7,9.2,9.2,11.5c-0.8,0.8-2.1,2.4-2.7,3.5c-0.8-0.5-1.7-1.2-2.4-1.9
		c-0.4,9.4-0.7,13.1-1.9,14.4c-0.8,1.1-1.7,1.4-2.9,1.5c-1.1,0.2-2.9,0.2-4.8,0.1c-0.1-1.2-0.6-2.8-1.2-3.8c1.8,0.1,3.4,0.2,4.2,0.2
		c0.6,0,1-0.1,1.3-0.4c0.6-0.7,1-3.6,1.3-10.2h-6.3c-0.8,6.1-2.9,11.6-11.2,14.7c-0.5-1.1-1.6-2.7-2.5-3.5c7.2-2.3,8.9-6.6,9.5-11.2
		h-5.4v-2.1c-0.8,0.9-1.6,1.6-2.4,2.3c-0.7-0.8-2.3-2.2-3.2-2.8c3.6-2.6,6.5-6.9,7.9-11.7l4,1c-1.2,3.6-2.9,6.9-5,9.6H260
		c-2.1-2.3-3.7-5-4.8-7.6h-5.1V1.5H258z"/>
	<path class="st1" d="M19.2,72c3.8,1.3,8.9,3.3,11.6,4.7L29,79.9c-2.8-1.6-8.7-4.1-12.8-5.6l1.4-2.4h-1.2c-1.5,3.9-5,6.5-13.5,7.9
		c-0.3-1-1.2-2.6-1.9-3.4c6.4-0.9,9.4-2.3,10.9-4.4H2.5v-3.2h10.8c0.1-0.5,0.2-1.1,0.3-1.7H1.8v-3.3H14v-1.7H4.6v-3.2H14v-1.6H2.7
		v-3.4h6.1c-0.5-1-1.2-2-1.8-2.8l3.4-1.3c1,1.1,2,2.7,2.4,3.7l-0.9,0.4h7c0.8-1.2,1.8-2.9,2.3-4.2l4.1,1.1c-0.7,1.1-1.4,2.2-2.1,3.1
		h6.1v3.4H18v1.6h9.8v3.2H18v1.7h12.7v3.3H17.6c-0.1,0.6-0.2,1.1-0.3,1.7h12.5V72H19.2z"/>
	<path class="st1" d="M60.1,54.6v25.2h-4v-2H39.9v2H36V54.6h8c0.5-1.6,1.1-3.3,1.3-4.8l5,0.6c-0.6,1.4-1.2,2.8-1.9,4.1h11.7V54.6z
		 M39.9,58.5v5.7h16.2v-5.7C56.1,58.5,39.9,58.5,39.9,58.5z M56.1,73.9V68H39.9v5.9H56.1z"/>
	<path class="st1" d="M67.3,74.2c0-2.6,1.7-4.1,3.5-5.3c-0.8-1.4-1.2-2.9-1.2-4c0-2.6,1.9-4.8,4.9-4.8c2.7,0,4.4,1.6,4.4,4.1
		c0,2.5-2.1,4-4,5.4c1.1,1.4,2.5,2.8,4,3.9c1-1.3,1.8-2.9,2.3-4.8h3.4c-0.7,2.3-1.7,4.5-3.2,6.4c1.2,0.7,2.4,1.2,3.3,1.3l-1,3
		c-1.3-0.3-3-1-4.6-2c-1.6,1.2-3.5,2-5.8,2C69.5,79.5,67.3,77.1,67.3,74.2z M73.9,76.6c1,0,1.8-0.3,2.8-1c-1.6-1.3-3-2.9-4.2-4.4
		c-1,0.8-1.6,1.6-1.6,2.6C70.9,75.5,72.1,76.6,73.9,76.6z M73.4,67.3c1.5-0.9,2.6-1.8,2.6-3.2c0-1-0.4-1.6-1.4-1.6
		c-1.1,0-1.9,0.9-1.9,2.3C72.8,65.6,73,66.4,73.4,67.3z"/>
	<path class="st1" d="M97.9,69c0.4-1.1,0.7-2.5,1.1-4h-2v10.8c0,1.8-0.3,2.8-1.5,3.4s-2.8,0.7-4.9,0.7c-0.1-1.1-0.6-2.6-1.2-3.6
		c1.4,0,2.9,0,3.3,0s0.6-0.1,0.6-0.5V64.9h-4.7v-3.4h6.8c-1.6-1.2-3.7-2.5-5.5-3.4l1.9-2.5c0.9,0.4,2,0.9,2.9,1.5
		c0.7-0.8,1.4-1.7,2-2.6h-7.4v-3.3h9.8l0.7-0.2l2.2,1.6v-1.5h16.3v3.2h-6c-0.2,0.7-0.4,1.4-0.7,2.1h5.8v16.9h-14.2V56.5h4.7
		c0.1-0.7,0.2-1.4,0.3-2.1H102V53c-1.2,2-2.9,4.2-4.5,5.9c0.8,0.5,1.4,1,1.9,1.5l-0.8,1.2h1.5l0.5-0.1l2.3,0.5
		c-0.7,2.7-1.5,5.7-2.2,7.6L97.9,69z M109.3,75.5c-1.8,1.7-4.8,3.5-7.2,4.4c-0.6-0.7-1.7-1.8-2.6-2.5c2.5-0.9,5.3-2.6,6.7-4
		L109.3,75.5z M113.7,59.4h-7.1v2h7.1V59.4z M113.7,64h-7.1v2h7.1V64z M113.7,68.6h-7.1v2h7.1V68.6z M113.7,73.7
		c1.8,1.2,4.2,2.9,5.4,4.1l-3,2.1c-1.1-1.2-3.5-3.1-5.2-4.4L113.7,73.7z"/>
	<path class="st1" d="M132.8,52.7c-0.9,2.8-2,6.4-2.9,8.9c2,2.5,2.4,4.7,2.4,6.6c0,2.1-0.4,3.4-1.5,4.2c-0.5,0.4-1.1,0.6-1.9,0.7
		c-0.6,0.1-1.4,0.1-2.1,0.1c0-1-0.3-2.5-0.9-3.4c0.6,0.1,1.1,0.1,1.4,0c0.4,0,0.7-0.1,1-0.3c0.4-0.3,0.5-0.9,0.5-1.9
		c0-1.5-0.4-3.5-2.3-5.7c0.7-2,1.4-5,1.9-7.2h-2.8v25.1H122V51.4h7.6l0.5-0.2L132.8,52.7z M140,58.6c-0.1,1.3-0.1,2.6-0.2,3.8h8.8
		c0,0,0,1.1,0,1.6c-0.3,9.3-0.6,13-1.6,14.2c-0.7,1-1.5,1.3-2.5,1.4c-0.9,0.2-2.5,0.2-4.1,0.1c-0.1-1.1-0.5-2.7-1.2-3.8
		c1.4,0.2,2.7,0.2,3.4,0.2c0.5,0,0.8-0.1,1.1-0.5c0.6-0.6,0.9-3.3,1.1-9.8h-5.2c-0.8,6-2.8,10.8-8.4,13.9c-0.5-0.9-1.6-2.2-2.4-2.9
		c6.9-3.6,7.4-9.9,7.6-18.2h-4.1v-3.5h7.8c-0.3-1.2-0.8-3-1.3-4.4l3.5-0.8c0.6,1.4,1.2,3.4,1.5,4.5l-2.6,0.8h9.3v3.5L140,58.6
		L140,58.6z"/>
	<path class="st1" d="M179.3,75.8c0.2,0,0.3,0,0.4-0.2c0.1-0.1,0.2-0.4,0.2-1.1c0.1-0.6,0.1-2.2,0.1-4.1c0.8,0.7,2,1.3,3,1.7
		c0,1.7-0.2,3.8-0.4,4.8s-0.5,1.5-1.1,2c-0.4,0.4-1.2,0.5-1.9,0.5h-1.8c-0.7,0-1.7-0.3-2.2-0.9c-0.6-0.6-0.9-1.4-0.9-4.2V54.8h-3.5
		v9.4c0,4.9-0.4,11.8-3.5,15.9c-0.6-0.6-2.2-1.8-3.1-2.2c-0.2,0.4-0.5,0.7-0.9,1c-1,0.6-2.4,0.7-4.4,0.7c-0.1-1-0.6-2.7-1.1-3.6
		c1.2,0.1,2.3,0.1,2.7,0.1s0.5-0.2,0.5-0.6V68c-0.8,0.8-1.6,1.6-2.4,2.3l-1-1.9c-0.3,4.1-0.9,8.4-2.3,11.5c-0.7-0.5-2.3-1.5-3.1-1.8
		c2-4.4,2.1-10.8,2.1-15.5V51.1H165v24.4c0,0.9-0.1,1.5-0.3,2.1c2.4-3.7,2.7-9.1,2.7-13.4V51.1h11v23.1c0,0.8,0,1.2,0.1,1.4
		c0.1,0.1,0.2,0.2,0.3,0.2C178.8,75.8,179.3,75.8,179.3,75.8z M158.2,62.7c0,1.3,0,2.7-0.1,4.1c1-0.6,2.1-1.5,3.3-2.4v-2.3l-1.1,0.9
		c-0.5-0.7-1.3-1.6-2.2-2.6v2.3C158.1,62.7,158.2,62.7,158.2,62.7z M158.2,54.6v3.7l1-0.7c0.7,0.7,1.6,1.5,2.3,2.2v-5.2H158.2z"/>
	<path class="st1" d="M208.7,60.4c1.2,0,3.6-0.1,4.3-0.3c0.1,1,0.2,1.6,0.3,2.3c-0.8,0.2-2.6,0.3-4.1,0.3h-7.6c-3,0-3.9-1-4-2.8
		l-5.3,0.2v-1.7l5.3-0.2v-1h-6.4V63c0,4.9-0.4,12.1-3.2,16.8c-0.7-0.6-2.3-1.6-3.3-1.9c2.6-4.3,2.8-10.5,2.8-14.9v-8.2h10.1V50h3.8
		v1.4h10.1v2.4h-10.1v1h9.2l0.6-0.2l2.8,0.7c-0.6,1.7-1.3,3.5-2,4.6l-3.2-1c0.2-0.4,0.4-1.1,0.6-1.7h-8.5v0.9l7.1-0.2v1.7l-7.1,0.2
		c0.1,0.4,0.4,0.6,1.4,0.6H208.7z M210.6,76.9c0,1.5-0.3,2-1.2,2.4s-2.3,0.4-4.1,0.4c-0.2-0.8-0.6-1.6-1-2.3c0.9,0.1,1.9,0.1,2.2,0
		c0.3,0,0.4-0.1,0.4-0.4v-0.7c-3,0.5-6,1-8.5,1.4l-0.8-2.4c1.8-0.1,4.1-0.4,6.7-0.6c-1.7-0.5-4.2-1.1-6.2-1.4l0.8-1.5
		c2.3,0.3,5.4,0.9,7,1.4l-0.6,1.3l1.7-0.2v-2.6h-9.4v1.8c0,2.3-0.4,5-2.5,6.7c-0.6-0.6-2.2-1.9-3-2.3c1.7-1.3,1.9-2.9,1.9-4.5v-3.3
		h16.6L210.6,76.9L210.6,76.9z M192.3,63.2h19.9v6.1h-19.9V63.2z M195.7,65.6h4.7v-0.9h-4.7V65.6z M195.7,67.9h4.7V67h-4.7V67.9z
		 M208.6,64.7h-4.8v0.9h4.8V64.7z M208.6,67h-4.8v0.9h4.8V67z"/>
	<path class="st1" d="M242.4,75.8c0.9,0,1.2-0.4,1.3-4.2c1,0.6,2.2,1,3.2,1.2c-0.4,5.6-1.6,6.7-4.6,6.7h-4.5c-3.7,0-5.3-1.5-5.3-4
		c0-1.6,0.3-3.3,6-10.7h-5v-2.6l-0.2,0.3c-0.4-0.5-1.3-1.2-2.1-1.9v8.7h-4.9v1.9h5.5v3.4h-5.5v5.2h-3.7v-5.2h-5.7v-3.4h5.7v-1.9H218
		V58.1h4.6v-1.8h-5.3V53h5.3v-3h3.7v3h5.3v3.3h-5.3v1.8h4.9v0.8c1.8-2.3,3.1-5.6,3.8-8.9l3.8,0.7c-0.3,1.3-0.7,2.6-1.2,3.8h8.9V58
		h-10.3c-0.6,1.2-1.3,2.4-2,3.4h7.7l0.8-0.1l2.5,1c-0.1,0.2-0.2,0.5-0.4,0.7c-7.9,9.2-8.4,10.8-8.4,11.8c0,0.6,0.5,0.9,1.5,0.9
		L242.4,75.8L242.4,75.8z M227.6,60.8h-6.3v1.6h6.3V60.8z M227.6,65h-6.3v1.7h6.3V65z"/>
	<path class="st1" d="M254.2,68.5h3.8V71c0,2.7-1,6.7-6.7,9c-0.6-0.8-1.8-2-2.7-2.6c4.9-1.8,5.6-4.7,5.6-6.6L254.2,68.5L254.2,68.5z
		 M256.2,55h-6.6v-3.3h6.6V50h3.7v1.8h3.4V55h-3.4v2.2h-3.7V55z M269.2,64.4c1.8,0,4.8-0.1,5.9-0.4c0.1,1.1,0.3,2.3,0.4,3.1
		c-1,0.2-3.7,0.3-5.8,0.3h-10.4c-4.6,0-6-1.2-6-4.4v-1.3h-3.6v-3.2h12.4c-0.3-0.7-0.6-1.5-0.9-2.1l3.6-0.9c0.5,0.9,1.1,2,1.4,2.9
		h11.5v3.2h-20.4v1.3c0,0.9,0.3,1.2,2.1,1.2h9.8V64.4z M261.7,68.7h3.6v10.6h-3.6V68.7z M267.4,55h-3.1v-3.3h3.1V50h3.8v1.8h6.7V55
		h-6.7v2.3h-3.8V55z M276.1,76.4c0.7,0,1.7-0.1,2.2-0.2c0.1,0.9,0.2,2.2,0.3,3.1c-0.6,0.2-1.6,0.2-2.4,0.2H273
		c-3.3,0-4.1-1.3-4.1-4.4v-6.5h3.6v6.6c0,0.9,0.1,1.3,0.7,1.3L276.1,76.4L276.1,76.4z"/>
</g>
<g>
	<path class="st1" d="M28.6,101.8l0.4,0.4l-4.7,4.7l4.7,4.7l-0.4,0.4l-4.7-4.7l-4.7,4.7l-0.4-0.4l4.7-4.7l-4.7-4.7l0.4-0.4l4.7,4.7
		L28.6,101.8z M19.9,107.9c-0.6,0-1.1-0.5-1.1-1.1c0-0.6,0.5-1.1,1.1-1.1s1.1,0.5,1.1,1.1C21,107.5,20.5,107.9,19.9,107.9z
		 M22.9,102.8c0-0.6,0.5-1.1,1.1-1.1s1.1,0.5,1.1,1.1c0,0.6-0.5,1.1-1.1,1.1S22.9,103.4,22.9,102.8z M25,110.9
		c0,0.6-0.5,1.1-1.1,1.1s-1.1-0.5-1.1-1.1s0.5-1.1,1.1-1.1S25,110.3,25,110.9z M28,105.8c0.6,0,1.1,0.5,1.1,1.1
		c0,0.6-0.5,1.1-1.1,1.1c-0.6,0-1.1-0.5-1.1-1.1C26.9,106.3,27.4,105.8,28,105.8z"/>
	<path class="st1" d="M34,106.5c-0.5-0.5-1.5-1.1-2.4-1.4l0.6-0.8c0.8,0.3,1.9,0.9,2.4,1.3L34,106.5z M31.9,112.6
		c0.6-1,1.4-2.8,2-4.3l0.8,0.6c-0.5,1.4-1.2,3.1-1.8,4.3L31.9,112.6z M34.6,102.8c-0.5-0.5-1.4-1.1-2.3-1.5l0.6-0.8
		c0.8,0.4,1.8,1,2.3,1.5L34.6,102.8z M38.2,104.1c0.3-0.6,0.5-1.2,0.6-1.9h-3.1v-1h8.4v1h-4.1c-0.2,0.7-0.4,1.3-0.6,1.9h5.2v1h-2.8
		c0.7,1.1,1.9,2,3.1,2.6c-0.2,0.2-0.5,0.6-0.7,0.8c-1.4-0.7-2.7-2-3.5-3.4h-1.8c-0.8,1.5-1.9,2.8-3.5,3.6c-0.1-0.2-0.4-0.6-0.6-0.8
		c1.3-0.7,2.3-1.6,3-2.8h-2.6v-1H38.2z M37.7,108.5c-0.4,1.2-0.9,2.5-1.8,3.3l-0.8-0.6c0.9-0.7,1.5-1.9,1.8-3L37.7,108.5z
		 M38.6,106.6h1v5.6c0,0.5-0.1,0.8-0.5,1c-0.4,0.2-1,0.2-1.9,0.2c0-0.3-0.2-0.7-0.3-0.9c0.7,0,1.3,0,1.5,0c0.2,0,0.2-0.1,0.2-0.2
		V106.6z M41,108.4c0.4,0.9,0.9,2.2,1,3l-0.9,0.3c-0.1-0.8-0.5-2.1-1-3L41,108.4z M42.7,107.9c0.8,1.1,1.7,2.5,2,3.5l-0.9,0.5
		c-0.4-1-1.2-2.4-2-3.5L42.7,107.9z"/>
	<path class="st1" d="M52.2,103.6c-0.1,6.3-0.2,8.3-0.7,8.9c-0.3,0.4-0.5,0.5-0.9,0.5c-0.4,0.1-1,0.1-1.7,0c0-0.3-0.1-0.8-0.3-1.1
		c0.7,0.1,1.3,0.1,1.5,0.1c0.2,0,0.4,0,0.5-0.2c0.3-0.4,0.5-2.3,0.6-7.8H49c-0.1,3.8-0.6,7.2-2.5,9.3c-0.2-0.2-0.5-0.6-0.8-0.7
		c1.8-1.9,2.2-5,2.3-8.6h-2v-1h2c0-0.8,0-1.6,0-2.5h1c0,0.8,0,1.7,0,2.5h3.1V103.6z M58.2,102.2V113h-1.1v-0.9h-2.8v1h-1v-11H58.2z
		 M57.1,111.1v-7.9h-2.8v7.9H57.1z"/>
	<path class="st1" d="M65.1,103.2c-0.3,0.6-0.6,1.1-0.9,1.6h6.9v7.2c0,0.6-0.1,1-0.6,1.1c-0.5,0.2-1.3,0.2-2.5,0.2
		c0-0.3-0.2-0.7-0.4-1c1,0,1.8,0,2.1,0c0.2,0,0.3-0.1,0.3-0.3v-1.5H64c-0.2,1-0.6,2.1-1.4,2.9c-0.1-0.2-0.5-0.7-0.7-0.8
		c1.2-1.1,1.3-2.7,1.3-4v-2.1c-0.7,0.8-1.4,1.6-2.3,2.2c-0.1-0.2-0.5-0.6-0.7-0.8c1.7-1.1,2.9-2.8,3.8-4.6h-3.5v-1h4
		c0.2-0.6,0.5-1.2,0.6-1.8l1.1,0.3c-0.2,0.5-0.3,1.1-0.6,1.6h7.2v1H65.1z M70.1,109.7v-1.5h-5.9v0.4c0,0.3,0,0.7,0,1.1H70.1z
		 M70.1,105.8h-5.9v1.4h5.9V105.8z"/>
	<path class="st1" d="M77,104.1c-0.5,1.2-1.3,2.5-2.1,3.4c-0.2-0.2-0.5-0.5-0.8-0.6c0.7-0.8,1.4-1.9,1.9-3.1L77,104.1z M79.4,111.9
		c-0.3-0.6-0.8-1.3-1.4-2.1c-0.8,1.3-1.8,2.4-3,3.2c-0.2-0.2-0.5-0.6-0.7-0.8c1.3-0.8,2.3-1.9,3.1-3.3c-0.5-0.6-1.1-1.3-1.7-1.8
		l0.8-0.6c0.5,0.5,0.9,1,1.4,1.5c0.3-0.6,0.5-1.3,0.7-2l1,0.2c-0.3,0.9-0.6,1.8-1,2.6c0.7,0.9,1.4,1.7,1.7,2.4L79.4,111.9z
		 M80.9,103.4h-6.4v-1h3c-0.2-0.5-0.6-1.2-1-1.7l0.9-0.4c0.4,0.5,0.9,1.2,1.1,1.7l-0.8,0.4h3.2V103.4z M80,106.6
		c-0.3-0.7-0.9-1.7-1.6-2.5l0.8-0.4c0.6,0.7,1.3,1.7,1.6,2.4L80,106.6z M86.4,104c-0.4,2.4-0.9,4.3-1.8,5.8c0.8,1.2,1.7,2.1,2.8,2.7
		c-0.2,0.2-0.6,0.6-0.7,0.8c-1.1-0.6-2-1.5-2.7-2.6c-0.8,1.1-1.9,2-3.3,2.7c-0.1-0.2-0.5-0.6-0.7-0.8c1.5-0.7,2.6-1.6,3.4-2.9
		c-0.5-1-1-2.2-1.3-3.4c-0.2,0.5-0.5,0.9-0.8,1.3c-0.1-0.2-0.5-0.6-0.7-0.8c1.1-1.5,1.8-4,2.3-6.5l1,0.1c-0.2,0.8-0.3,1.7-0.5,2.4
		h3.9v1H86.4z M83,104c-0.1,0.3-0.2,0.7-0.3,1c0.3,1.4,0.7,2.7,1.3,3.8c0.7-1.3,1.1-2.9,1.4-4.8H83z"/>
	<path class="st1" d="M100.5,105.2c-0.6,1.8-1.4,3.5-2.5,4.8c0.5,1.4,1.2,2.2,1.9,2.2c0.4,0,0.6-0.7,0.7-2.6
		c0.2,0.2,0.6,0.5,0.9,0.6c-0.2,2.4-0.6,3.1-1.7,3.1c-1.1,0-1.9-0.9-2.6-2.3c-0.9,0.9-1.8,1.7-2.9,2.4c-0.2-0.2-0.5-0.6-0.8-0.8
		c1.3-0.7,2.4-1.6,3.3-2.6c-0.5-1.6-0.9-3.7-1-6h-4.9v1.8h3.6v0.5c-0.1,3.2-0.2,4.4-0.5,4.7c-0.2,0.3-0.5,0.4-0.9,0.4
		c-0.4,0-1,0-1.7,0c0-0.3-0.1-0.7-0.3-1c0.7,0.1,1.3,0.1,1.5,0.1c0.2,0,0.3,0,0.4-0.2c0.2-0.2,0.3-1.1,0.3-3.6h-2.6v0.1
		c0,2-0.2,4.8-1.5,6.7c-0.2-0.2-0.6-0.6-0.9-0.7c1.2-1.7,1.3-4.2,1.3-6v-4h5.9c-0.1-0.8-0.1-1.6-0.1-2.4h1.1c0,0.8,0,1.6,0.1,2.4
		h4.6v1h-4.5c0.1,1.9,0.4,3.6,0.8,4.9c0.8-1.1,1.4-2.4,1.8-3.8L100.5,105.2z M98,100.5c0.9,0.4,2,1.1,2.5,1.6l-0.7,0.7
		c-0.5-0.5-1.6-1.2-2.5-1.7L98,100.5z"/>
	<path class="st1" d="M107.4,101.1c-0.8,2.4-2.2,4.4-3.9,5.8c-0.2-0.2-0.6-0.6-0.9-0.8c1.7-1.2,3-3,3.7-5.3L107.4,101.1z
		 M113.6,105.7c0,0,0,0.4,0,0.5c-0.2,4.4-0.4,6-0.9,6.5c-0.3,0.4-0.6,0.5-1.1,0.5c-0.5,0-1.3,0-2.2,0c0-0.3-0.1-0.8-0.3-1.1
		c0.9,0.1,1.8,0.1,2.1,0.1c0.3,0,0.5,0,0.6-0.2c0.4-0.4,0.6-1.8,0.7-5.4h-3.7c-0.4,2.8-1.3,5.4-4.9,6.7c-0.1-0.3-0.4-0.7-0.7-0.9
		c3.3-1.1,4.1-3.4,4.5-5.8h-2.9v-1H113.6z M111.8,100.6c0.7,2.2,2.2,4.3,4,5.3c-0.2,0.2-0.6,0.7-0.8,1c-1.8-1.1-3.2-3.1-4-5.2h-2.5
		v-1H111.8z"/>
	<path class="st1" d="M117.3,105.8c0-0.6,0.4-1,0.9-1s0.9,0.4,0.9,1c0,0.6-0.4,1-0.9,1S117.3,106.3,117.3,105.8z M117.3,111.5
		c0-0.6,0.4-1,0.9-1s0.9,0.4,0.9,1c0,0.6-0.4,1-0.9,1S117.3,112.1,117.3,111.5z"/>
	<path class="st1" d="M132.2,109.2h1.8v1.3h-1.8v1.5c0,0.8-0.1,1.1-0.7,1.3c-0.5,0.2-1.3,0.2-2.3,0.2c-0.1-0.4-0.3-1-0.5-1.4
		c0.7,0,1.4,0,1.6,0c0.2,0,0.3-0.1,0.3-0.2v-1.4h-3.2c0.5,0.5,1.1,1.1,1.4,1.5l-1.3,0.9c-0.3-0.5-1-1.4-1.7-1.9l0.7-0.5h-2v-1.3h6
		v-0.6c-2.1,0.1-4.1,0.1-5.6,0.1l-0.1-1.3c1,0,2.3,0,3.7,0v-0.6h-3.1V103h3.1v-0.5h-3.7v-0.7c-0.3,0.7-0.6,1.3-1,2v9.8h-1.6v-7.3
		c-0.3,0.4-0.6,0.8-1,1.1c-0.2-0.4-0.6-1.3-0.9-1.7c1.3-1.3,2.5-3.3,3.2-5.3l1.6,0.5l-0.2,0.4h3.5v-0.9h1.6v0.9h3.7v1.2h-3.7v0.5
		h3.2v3.9h-0.6c0.5,0.5,1.1,1.1,1.3,1.5l-1.2,0.7c-0.1-0.1-0.2-0.3-0.3-0.5l-0.4,0V109.2z M127,104.5h1.6v-0.6H127V104.5z
		 M128.5,105.9v-0.6H127v0.6H128.5z M130.2,103.9v0.6h1.6v-0.6H130.2z M131.8,105.4h-1.6v0.6h1.6V105.4z M130.2,107.4l1.4,0
		c-0.2-0.2-0.3-0.3-0.5-0.5l0.1-0.1h-1V107.4z"/>
	<path class="st1" d="M137,109.7v1.2h-1.6V101h5v8.7H137z M137,102.5v2h1.8v-2H137z M138.8,108.2v-2.1H137v2.1H138.8z M147.8,111.6
		c0,0.9-0.2,1.3-0.7,1.6c-0.6,0.3-1.4,0.3-2.6,0.3c-0.1-0.5-0.4-1.2-0.6-1.6c0.8,0,1.6,0,1.9,0c0.3,0,0.3-0.1,0.3-0.3v-2.5h-3.3
		c-0.4,1.7-1.1,3.4-2.7,4.6c-0.3-0.3-0.9-0.9-1.3-1.1c2.4-1.8,2.6-4.4,2.6-6.6v-5.1h6.4V111.6z M146.1,107.5v-1.8H143v0.2
		c0,0.5,0,1.1-0.1,1.6H146.1z M143,102.4v1.8h3.1v-1.8H143z"/>
	<path class="st1" d="M161.9,107.8c-0.4,1.4-1.1,2.5-1.9,3.4c0.7,0.4,1.5,0.7,2.5,0.9c-0.3,0.3-0.8,1-1,1.4c-1.1-0.3-2-0.7-2.8-1.3
		c-0.8,0.6-1.8,1-2.8,1.3c-0.1-0.3-0.5-0.8-0.7-1.2v1h-1.3v-0.7h-3.1v0.9h-1.2v-9.9h1.4v-1.4h-1.6v-1.4h5.9v1.4h-1.5v1.4h1.4v2.5
		c1.2-0.4,1.5-1,1.7-1.9c-0.6,0.1-0.8,0.1-1,0.2c-0.1-0.3-0.3-1.1-0.5-1.4c0.3-0.1,0.5-0.2,0.8-0.5c0.3-0.3,1.2-1.2,1.7-2.2l1.6,0.5
		c-0.5,0.8-1.2,1.5-1.8,2.1l2.4-0.1c-0.2-0.3-0.5-0.7-0.7-0.9l1.2-0.6c0.6,0.8,1.5,1.9,1.9,2.6l-1.3,0.7c-0.1-0.2-0.2-0.3-0.3-0.5
		l-0.5,0v1.1c0,0.3,0,0.4,0.2,0.4h0.9c0.2,0,0.6,0,0.8-0.1c0,0.4,0.1,0.9,0.1,1.3c-0.2,0.1-0.5,0.1-0.9,0.1h-1
		c-1.3,0-1.6-0.5-1.6-1.7v-1l-0.7,0.1c-0.2,1.5-0.6,2.5-2.4,3.2c-0.1-0.3-0.5-0.8-0.8-1.1v6c0.9-0.2,1.7-0.6,2.4-1
		c-0.2-0.2-0.4-0.5-0.6-0.7c-0.2,0.2-0.4,0.4-0.6,0.5c-0.2-0.3-0.7-0.8-1.1-1.1c0.3-0.2,0.6-0.5,0.9-0.8c-0.2-0.4-0.4-0.9-0.5-1.3
		l1.2-0.6c0.1,0.2,0.2,0.4,0.2,0.6c0.3-0.5,0.5-1,0.6-1.5l1.4,0.3c-0.1,0.3-0.2,0.5-0.3,0.8h1.8l0.3-0.1L161.9,107.8z M153.8,111.3
		v-3.4h0h-0.5c-0.6,0-0.8-0.2-0.8-1V105H152v1.1c0,0.8-0.1,1.8-0.8,2.5c-0.1-0.1-0.3-0.4-0.5-0.5v3.2H153.8z M150.7,105v2.9
		c0.5-0.6,0.6-1.3,0.6-1.9v-1H150.7z M151.1,109.1h2.3v1.3h-2.3V109.1z M152,103.6h0.6v-1.4H152V103.6z M153.8,105h-0.5v1.9
		c0,0.2,0,0.2,0.1,0.2h0.2c0.1,0,0.2,0,0.2,0V105z M158.2,108.7c-0.1,0.2-0.2,0.4-0.4,0.6c0.2,0.3,0.5,0.6,0.9,0.9
		c0.5-0.4,0.8-0.9,1.1-1.5H158.2z"/>
	<path class="st1" d="M166.6,100.8h1.4l-3.5,14h-1.4L166.6,100.8z"/>
	<path class="st1" d="M170.6,109.8c-0.1,1.2-0.3,2.6-0.6,3.5c-0.3-0.2-0.9-0.3-1.2-0.4c0.3-0.8,0.5-2.1,0.6-3.2L170.6,109.8z
		 M173.4,105.6c0.5,0.9,0.9,2.1,1,2.8l-1.2,0.5c0-0.2-0.1-0.4-0.1-0.6c-2.9,0.5-3.4,0.6-3.7,0.7c-0.1-0.3-0.3-1-0.5-1.4
		c0.3-0.1,0.6-0.4,1.1-1c0.2-0.2,0.5-0.7,0.9-1.3c-1.1,0.1-1.4,0.2-1.7,0.3c-0.1-0.3-0.3-1-0.5-1.3c0.3-0.1,0.5-0.3,0.8-0.8
		c0.3-0.4,1.2-2,1.7-3.5l1.4,0.6c-0.5,1.2-1.2,2.5-1.9,3.5l1-0.1c0.4-0.6,0.7-1.3,1-2l1.3,0.8c-0.8,1.5-1.9,3.1-3,4.4l1.6-0.2
		c-0.1-0.4-0.3-0.8-0.5-1.2L173.4,105.6z M172.1,109.5c0.2,0.9,0.3,2.1,0.4,3l-1.2,0.3c0-0.8-0.2-2.1-0.3-3L172.1,109.5z
		 M173.6,109.1c0.3,0.9,0.7,2,0.8,2.7l-1.2,0.4c-0.1-0.7-0.5-1.9-0.8-2.7L173.6,109.1z M182.1,112.6h-5.5v0.9H175v-7.3
		c-0.2,0.3-0.4,0.5-0.6,0.8c-0.1-0.4-0.5-1.2-0.7-1.6c1.1-1.3,2-3.4,2.4-5.1l1.6,0.5c-0.2,0.7-0.5,1.3-0.8,2h1.7
		c-0.2-0.6-0.6-1.3-0.8-1.9l1.4-0.6c0.4,0.6,0.8,1.4,1,2l-1,0.5h2.7v1.5h-2.2v1.2h1.9v1.5h-1.9v1.2h1.9v1.5h-1.9v1.3h2.4V112.6z
		 M178.2,104.3h-1.6v1.2h1.6V104.3z M178.2,107h-1.6v1.2h1.6V107z M176.5,111h1.6v-1.3h-1.6V111z"/>
	<path class="st1" d="M187.6,100.8c-0.4,1-0.9,2-1.4,3v9.7h-1.6v-7.2c-0.3,0.4-0.6,0.7-0.9,1c-0.2-0.4-0.6-1.3-0.9-1.8
		c1.3-1.3,2.5-3.3,3.2-5.3L187.6,100.8z M193.8,111.9c0.8,0,1-0.4,1.1-1.9c0.4,0.3,1.1,0.5,1.5,0.6c-0.2,2.1-0.7,2.8-2.5,2.8h-3.2
		c-2,0-2.5-0.5-2.5-2.5v-4l-1.1,0.4l-0.6-1.5l1.7-0.7v-3.4h1.6v2.7l1.4-0.6v-3.7h1.5v3.1l1.9-0.7l0.1-0.1l1.3,0.4l-0.1,0.3
		c-0.1,2-0.3,4.7-0.6,6.5l-1.4-0.4c0.2-1.2,0.3-3.1,0.3-4.8l-1.6,0.7v5h-1.5v-4.4l-1.4,0.6v4.6c0,0.8,0.1,1,1.1,1H193.8z"/>
	<path class="st1" d="M205.3,101c-0.1,0.1-0.2,0.2-0.3,0.3c1.3,1.2,3.4,2.2,5.6,2.7c-0.4,0.4-0.9,1.1-1.2,1.6
		c-0.9-0.3-1.8-0.6-2.6-1v0.9h-6.1v-0.9c-0.9,0.5-1.8,0.9-2.7,1.2c-0.2-0.5-0.6-1.2-1-1.6c2.7-0.6,5.5-2.2,6.9-4L205.3,101z
		 M203.1,111.4h-3.2v1.1h-1.5v-6.3h4.7V111.4z M199.9,107.7v2.2h1.6v-2.2H199.9z M205.8,103.9c-0.7-0.5-1.3-1-1.9-1.5
		c-0.6,0.6-1.4,1.1-2.1,1.5H205.8z M209.4,110.1c0,0.8-0.1,1.2-0.6,1.4c-0.5,0.3-1.2,0.3-2.1,0.3c0-0.5-0.3-1.1-0.4-1.5
		c0.5,0,1.1,0,1.3,0c0.2,0,0.2-0.1,0.2-0.2v-2.4h-2v5.8h-1.7v-7.3h5.2V110.1z"/>
	<path class="st1" d="M212.3,101.8h6.4v1.8h-4.3v2.4h3.7v1.8h-3.7v2.8h4.5v1.8h-6.6V101.8z"/>
	<path class="st1" d="M224.2,100.8c-0.8,1.2-2.1,2.6-3.3,3.5c-0.2-0.3-0.6-0.9-0.9-1.2c1-0.7,2.1-1.9,2.7-2.8L224.2,100.8z
		 M224.6,103.6c-0.3,0.6-0.7,1.3-1.2,1.9v8h-1.6v-6.1c-0.3,0.3-0.6,0.5-0.9,0.8c-0.1-0.3-0.6-1.2-0.9-1.5c1.2-0.9,2.4-2.2,3.1-3.6
		L224.6,103.6z M226.7,107.2c-0.5-0.5-1.6-1.1-2.5-1.5l0.9-1.2c0.8,0.3,2,0.9,2.5,1.4L226.7,107.2z M224.3,112.1
		c0.8-1.1,1.9-2.9,2.8-4.5l1.2,1.1c-0.8,1.5-1.8,3.1-2.7,4.5L224.3,112.1z M227,103.4c-0.5-0.5-1.4-1.2-2.2-1.6l1-1.1
		c0.8,0.4,1.8,1,2.3,1.5L227,103.4z M233.4,106.3h-1.5v5.4c0,0.8-0.1,1.3-0.6,1.5c-0.5,0.3-1.2,0.3-2.1,0.3
		c-0.1-0.5-0.3-1.2-0.5-1.6c0.6,0,1.2,0,1.4,0c0.2,0,0.2-0.1,0.2-0.2v-5.4h-2.1v-1.5h5.2V106.3z M233.2,102.5h-4.7V101h4.7V102.5z"
		/>
	<path class="st1" d="M247.5,111.5v1.7h-12.8v-1.7h5.5v-2.9h-3.8V107h3.8v-2.5h-2.9c-0.4,0.8-0.9,1.5-1.3,2.1
		c-0.3-0.3-1.1-0.8-1.5-1c1.1-1.2,2-3.2,2.5-5.1l1.7,0.4c-0.2,0.7-0.4,1.3-0.7,2h2.2v-2.6h1.8v2.6h4.8v1.6h-4.8v2.5h4.2v1.6h-4.2
		v2.9H247.5z"/>
	<path class="st1" d="M254.2,108c-0.5,0.1-1,0.3-1.5,0.5v5.1h-1.5v-4.6c-0.8,0.2-1.5,0.5-2.1,0.6l-0.4-1.6c0.7-0.2,1.6-0.4,2.5-0.7
		v-2.7h-1c-0.2,0.7-0.3,1.3-0.5,1.8c-0.3-0.2-0.9-0.6-1.2-0.8c0.4-1.1,0.7-2.9,0.8-4.6l1.4,0.2c-0.1,0.6-0.1,1.1-0.2,1.7h0.7v-2.7
		h1.5v2.7h1.2v1.6h-1.2v2.3l1.3-0.4L254.2,108z M261.8,102.5c0,0,0,0.6,0,0.8c-0.3,6.3-0.5,8.7-1.1,9.4c-0.3,0.5-0.6,0.6-1.1,0.7
		c-0.4,0.1-1,0.1-1.6,0c0-0.5-0.2-1.2-0.5-1.6c0.5,0.1,1,0.1,1.3,0.1c0.2,0,0.4-0.1,0.5-0.3c0.4-0.5,0.6-2.4,0.8-7.5h-0.1
		c-0.7,3.6-2.2,7.3-4.4,9.2c-0.3-0.3-0.9-0.7-1.4-1c2.3-1.6,3.7-4.9,4.4-8.2H258c-0.6,2.3-1.8,4.9-3.3,6.2c-0.3-0.3-0.9-0.7-1.3-1
		c1.4-1.1,2.5-3.2,3.1-5.3h-0.7c-0.4,1-0.9,1.9-1.5,2.5c-0.3-0.3-0.9-0.7-1.3-1c1.1-1.2,1.9-3.3,2.3-5.4l1.5,0.3
		c-0.1,0.7-0.3,1.3-0.5,1.9H261.8z"/>
</g>
</svg>
