<?xml version="1.0" encoding="utf-8"?>
<!-- Generator: Adobe Illustrator 26.0.3, SVG Export Plug-In . SVG Version: 6.00 Build 0)  -->
<svg version="1.1" id="Layer_1" xmlns="http://www.w3.org/2000/svg" xmlns:xlink="http://www.w3.org/1999/xlink" x="0px" y="0px"
	 viewBox="0 0 496.5 102.5" style="enable-background:new 0 0 496.5 102.5;" xml:space="preserve">
<style type="text/css">
	.st0{fill:#FFFFFF;}
	.st1{fill-rule:evenodd;clip-rule:evenodd;fill:none;}
</style>
<g>
	<path class="st0" d="M194,26.2v16.7c0,0.3-1.3,1.1-3.5,1.1h-0.7V30.6c-0.2,0-0.6,0-1,0c-1.5,3.2-4,7.4-7.5,10.1l-0.5-0.5
		c2.3-3.6,3.9-9,4.5-12.6l4.5,1.9v-3.5h-7.9l-0.4-1.3h8.3v-5.5h-8.6l-0.4-1.3h12.4c0.9-2.7,1.8-6.1,2.3-8.7h-10.1
		c8.7,4.4,4.8,10.8,1.7,7.7c0-2.4-1.2-5.5-2.3-7.5l0.4-0.2h-3.3l-0.4-1.3h10.6c-0.4-0.1-0.9-0.3-1.4-0.7c-0.3-2-1.6-4.5-2.8-5.9
		l0.5-0.3c8,1.6,7.1,6.5,4.5,6.9h3.7l2.3-2.9c0,0,2.5,2,4.1,3.5c-0.1,0.5-0.6,0.7-1.2,0.7h-5.6l5.1,1.6c-0.2,0.6-0.7,0.9-1.7,0.8
		c-1.1,1.8-3,4.2-4.9,6.3h3.4l2.3-3.1c0,0,2.7,2.2,4.2,3.7c-0.1,0.5-0.6,0.7-1.2,0.7H194v5.5h3.1l2.2-2.9c0,0,2.5,2,4,3.5
		c-0.1,0.5-0.6,0.7-1.2,0.7H194z M195.1,28.2c9.5,4.6,5.7,11.7,2.3,8.6c0-2.8-1.4-6.1-2.9-8.3L195.1,28.2z M219.3,13.9
		c0,0,2.9,2.4,4.7,4.1c-0.1,0.5-0.6,0.7-1.2,0.7h-4.5v24c0,0.3-1.4,1.3-3.5,1.3H214V18.7h-5.5v1.6c0,8-0.8,17.5-9.9,23.6l-0.6-0.6
		c5.6-6.5,6.3-14.9,6.3-23.1V4.9l4.6,1.6c3.5-1.6,7.2-3.7,9.2-5.2L223,5c-0.5,0.5-1.3,0.6-2.5,0.1c-3,1-7.5,2-11.9,2.6v9.6h8.1
		L219.3,13.9z"/>
	<path class="st0" d="M240.4,25.7c0,0,2.8,2.5,4.4,4.2c-0.1,0.5-0.6,0.7-1.2,0.7h-16.4l-0.4-1.3h11.1L240.4,25.7z M228,11.2
		l-0.4-1.3h8l2.4-3.4c0,0,2.7,2.4,4.1,4c-0.1,0.5-0.6,0.7-1.2,0.7H228z M257.2,16.4c-0.1,0.6-0.7,1.1-1.8,1.1c0,0.5-0.1,0.9-0.1,1.4
		c1.2,8.8,4.8,15.8,14.6,20l0,0.6c-2.3,0.5-3.6,1.7-4,4.5c-7.3-4.5-9.9-12.6-11-21.4c-1.4,8.1-4.9,15.8-19.5,21.5l-0.5-0.7
		c14.2-8.2,15.6-17.7,16.1-28.3L257.2,16.4z M239.7,22c3.1-5.1,5.8-12.8,6.9-20.8l6.5,1.5c-0.1,0.6-0.7,1.1-1.7,1.1
		c-0.7,2.4-1.5,4.6-2.4,6.7H263l2.5-2.6l4.5,4.3c-0.4,0.4-0.9,0.5-1.9,0.6c-1.5,3.1-4.4,7.5-6.9,10.1l-0.5-0.3c1-3,2.1-7.5,2.6-10.8
		h-15c-2.1,4.4-4.8,8-8,10.6L239.7,22z"/>
	<path class="st0" d="M314.6,38c1.3,0.5,1.6,1,1.6,1.9c0,1.9-1.8,2.8-9.2,2.8h-4.6c-4.3,0-5.2-0.9-5.2-4.2V18.3h-6.7
		c-0.7,12.7-4,21.2-17.7,25.8l-0.3-0.6c10.5-5.9,12.7-13.9,13-25.2h-12l-0.4-1.3h34.3l2.9-3.6c0,0,3.2,2.5,5.2,4.2
		c-0.1,0.5-0.6,0.7-1.3,0.7h-12.7v1v18.1c0,0.8,0.3,1.1,1.8,1.1h3.9c1.7,0,2.9,0,3.6,0c0.6,0,0.8-0.2,1-0.7c0.5-0.9,1.2-3.9,1.9-7.2
		h0.6L314.6,38z M278.3,6.8l-0.4-1.3h25.5l2.8-3.5c0,0,3.1,2.3,5,4c-0.1,0.5-0.6,0.7-1.2,0.7H278.3z"/>
	<path class="st0" d="M111.9,70.1c10.9,1.5,7.6,9.2,3.7,6.5c-0.5-2.2-2.3-4.7-4.1-6.2L111.9,70.1z M125.9,66.6
		c-1.9,5.9-5.5,16.8-6.1,19.3c-0.4,1.6-0.7,3.1-0.7,4.3c0,2.3,1.6,4.2,1.5,8.1c-0.1,2.2-1.3,3.5-3.2,3.5c-1,0-1.8-0.7-2.1-2.3
		c0.8-4.8,0.6-8.8-0.5-9.5c-0.6-0.5-1.3-0.6-2.3-0.7v-1h2.1c0.6,0,0.8,0,1.2-0.9c1-1.7,1-1.7,9.3-21L125.9,66.6z M115.1,59.8
		c11.5,1.3,8.5,9.4,4.3,6.9c-0.7-2.3-2.9-5-4.7-6.6L115.1,59.8z M152.8,96.5c1.5,0.5,2,0.9,2,1.7c0,2.1-2.3,2.7-13.3,2.7h-7.6
		c-5.4,0-7.1-0.8-7.1-4.5V75.1c-1,0.9-1.9,1.7-3,2.4l-0.4-0.5c3.9-5,6.9-12.6,8.1-17.9l6.4,2.1c-0.2,0.5-0.6,0.8-1.7,0.8
		c-0.7,1.4-1.5,3-2.5,4.6h13.8l2.3-2.4l4.1,3.5c-0.3,0.4-0.9,0.7-1.8,0.8c-0.3,13.4-1,19.7-3.1,21.8c-1.3,1.3-3,1.9-5.4,1.9
		c0-1.2-0.1-2.3-0.8-2.9c-0.6-0.6-2.3-1.2-4-1.5l0-0.7c1.7,0.2,4.6,0.4,5.6,0.4c0.8,0,1.1-0.1,1.6-0.6c1.2-1.2,1.7-7.6,2-19h-15.1
		c-1.1,1.6-2.3,3.2-3.7,4.7l2.3,1h6.4l2-2.1l4.3,3.2c-0.3,0.3-0.9,0.6-1.7,0.8v9.5c0,0.3-2.2,1.1-3.5,1.1h-0.7v-2.1h-7.4v11.5
		c0,1.2,0.5,1.6,3.2,1.6h7.6c3.1,0,5.6,0,6.7-0.1c0.9,0,1.3-0.2,1.6-0.7c0.5-0.8,1.2-2.9,2.1-6h0.5L152.8,96.5z M130.9,75v7.7h7.4
		V75H130.9z"/>
	<path class="st0" d="M157.9,70.1c10.9,1.5,7.6,9.2,3.7,6.5c-0.5-2.2-2.3-4.7-4.1-6.2L157.9,70.1z M171.9,66.6
		c-1.9,5.9-5.5,16.8-6.1,19.3c-0.4,1.6-0.7,3.1-0.7,4.3c0,2.3,1.6,4.2,1.5,8.1c-0.1,2.2-1.3,3.5-3.2,3.5c-1,0-1.8-0.7-2.1-2.3
		c0.8-4.8,0.6-8.8-0.5-9.5c-0.6-0.5-1.3-0.6-2.3-0.7v-1h2.1c0.6,0,0.8,0,1.2-0.9c1-1.7,1-1.7,9.3-21L171.9,66.6z M161.1,59.8
		c11.5,1.3,8.5,9.4,4.3,6.9c-0.7-2.3-2.9-5-4.7-6.6L161.1,59.8z M198.8,96.5c1.5,0.5,2,0.9,2,1.7c0,2.1-2.3,2.7-13.3,2.7h-7.6
		c-5.4,0-7.1-0.8-7.1-4.5V75.1c-1,0.9-1.9,1.7-3,2.4l-0.4-0.5c3.9-5,6.9-12.6,8.1-17.9l6.4,2.1c-0.2,0.5-0.6,0.8-1.7,0.8
		c-0.7,1.4-1.5,3-2.5,4.6h13.8l2.3-2.4l4.1,3.5c-0.3,0.4-0.9,0.7-1.8,0.8c-0.3,13.4-1,19.7-3.1,21.8c-1.3,1.3-3,1.9-5.4,1.9
		c0-1.2-0.1-2.3-0.8-2.9c-0.6-0.6-2.3-1.2-4-1.5l0-0.7c1.7,0.2,4.6,0.4,5.6,0.4c0.8,0,1.1-0.1,1.6-0.6c1.2-1.2,1.7-7.6,2-19h-15.1
		c-1.1,1.6-2.3,3.2-3.7,4.7l2.3,1h6.4l2-2.1l4.3,3.2c-0.3,0.3-0.9,0.6-1.7,0.8v9.5c0,0.3-2.2,1.1-3.5,1.1h-0.7v-2.1h-7.4v11.5
		c0,1.2,0.5,1.6,3.2,1.6h7.6c3.1,0,5.6,0,6.7-0.1c0.9,0,1.3-0.2,1.6-0.7c0.5-0.8,1.2-2.9,2.1-6h0.5L198.8,96.5z M176.9,75v7.7h7.4
		V75H176.9z"/>
	<path class="st0" d="M221.9,64.2c-0.4,0.4-1,0.6-2.1,0.6c-1.5,2.9-4.4,8-6.6,10.8c5.1,3.4,7.1,7.6,7.1,11.3c0,4.5-1.7,6.8-6.7,7
		c0-1.2-0.2-2.8-0.6-3.3c-0.4-0.5-1.2-0.8-2.3-1v-0.6h3.4c0.5,0,0.8-0.1,1.1-0.3c0.7-0.5,1.1-1.3,1.1-2.9c0-3.3-1.1-6.8-4.2-10.1
		c1-2.9,2.4-8.4,3.3-12.1h-5.4v36.9c0,0.3-1.3,1.4-3.4,1.4h-0.7V60.4l4.7,1.9h4.6l2.4-2.3L221.9,64.2z M242.5,64.8
		c0,0,2.9,2.3,4.6,4c-0.1,0.5-0.6,0.7-1.2,0.7h-14.8c-0.1,2.4-0.2,4.7-0.5,6.9h7.9l2.4-2.4l4.3,3.7c-0.3,0.4-0.9,0.6-1.9,0.8
		c-0.5,12.5-1.6,19.3-4,21.4c-1.4,1.3-3.3,1.9-5.8,1.9c0-1.3-0.2-2.4-0.9-3c-0.7-0.7-2.5-1.3-4.4-1.7l0-0.7c1.9,0.2,5.1,0.4,6.2,0.4
		c0.8,0,1.2-0.1,1.7-0.5c1.5-1.3,2.3-8.1,2.8-18.6h-8.5c-1.3,10.5-4.9,18.8-15.6,24.2l-0.4-0.5c10-8.2,11.8-18.9,11.9-32h-7.5
		l-0.4-1.3H240L242.5,64.8z M227.6,59.3c11.5,3,6.9,11.5,2.9,7.8c-0.1-2.5-1.7-5.6-3.3-7.5L227.6,59.3z"/>
	<path class="st0" d="M262.7,93.8c-0.1,0.3-1.7,1.2-3,1.2h-0.5v-3.6h-4v4.5c0,0.3-1.2,1.2-2.9,1.2h-0.6V62.3l4.1,1.7h2.9l1.9-2.1
		l4,3.2c-0.3,0.4-1,0.7-1.9,0.9V93.8z M255.2,65.3v11.6h4V65.3H255.2z M259.2,90.1V78.2h-4v11.8H259.2z M290.5,73
		c0,0.2-0.8,0.6-1.6,0.9c0.7,0.6,2.5,1.9,3.7,3c-0.1,0.5-0.6,0.7-1.2,0.7h-8.3v3h3.2l1.8-1.8l3.8,2.9c-0.2,0.3-0.9,0.6-1.7,0.8v4.6
		c0,0.3-1.8,1.1-2.9,1.1h-0.6v-1.3h-18.2c-0.3,5-1.6,10.9-6,15.3l-0.5-0.5c2.9-5.9,3.1-13.1,3.1-19.1v-8l4.2,1.7h8
		c0-0.9-0.5-1.9-1.1-2.8c-0.6,0.3-1.6,0.7-2.3,0.7h-0.5v-7.1h-5.1v6.5c0,0.3-1.4,0.9-2.6,0.9h-0.5V64.4l3.3,1.4h4.6l1.6-1.5l3.2,2.4
		c-0.2,0.3-0.6,0.6-1.3,0.7v5c1.3,0.2,2.3,0.6,2.8,1.2v-9.2l3.3,1.4h4.3l1.6-1.6l3.4,2.6c-0.2,0.3-0.7,0.6-1.4,0.7V73z M264.3,63.7
		l-0.4-1.3h8.8l1.8-2.4c0,0,2.2,1.7,3.4,3c-0.1,0.5-0.5,0.7-1.1,0.7H264.3z M276.8,90.1c0,0,1.7,1.5,2.8,2.6
		c-0.1,0.5-0.6,0.7-1.1,0.7h-5.2v3.7c1.7-0.4,3.8-0.8,5.8-1.2l0.2,0.6c-1.5,0.8-4.5,2.6-7.6,4.2c-0.3,0.6-0.7,1-1.1,1.2l-2.1-4.1
		c1.2-0.7,1.3-1,1.3-1.7v-8.6l4.9,0.6c-0.1,0.6-0.5,0.9-1.4,1.1v3h2L276.8,90.1z M268.6,82.6c0,0.9,0,1.9,0,2.9h3.9V82h-3.8V82.6z
		 M268.6,77.6v3h3.8v-3H268.6z M269.2,68.4c5.8,1.6,3.4,5.9,1.2,4.1c0-1.3-0.8-2.9-1.7-3.8L269.2,68.4z M279.6,77.6h-3.8v3h3.8V77.6
		z M275.8,85.5h3.8V82h-3.8V85.5z M278.9,63.7l-0.4-1.3h8.2l2-2.5c0,0,2.3,1.8,3.6,3.1c-0.1,0.5-0.6,0.7-1.2,0.7H278.9z M286.4,76.3
		l1.8-2.3c-0.1,0-0.3,0-0.5,0h-0.5v-6.9h-4.8v6.1c0,0.3-1.4,0.9-2.7,0.9c0.4,0.8,0.2,1.6-0.3,2.1H286.4z M290.8,97.3
		c1,0.4,1.2,0.8,1.2,1.4c0,1.5-1.4,2.1-5.9,2.1h-2.7c-2.9,0-3.4-0.8-3.4-3.1V87.5l4.8,0.5c-0.1,0.6-0.5,1-1.3,1.1v2.9h2.3l1.7-2.3
		c0,0,2,1.7,3.2,2.9c-0.1,0.5-0.6,0.7-1.2,0.7h-5.9V97c0,0.5,0.1,0.6,1,0.6h1.9c0.8,0,1.5,0,1.8,0c0.3,0,0.6,0,0.8-0.3
		c0.3-0.5,0.7-1.9,1.2-3.5h0.6L290.8,97.3z M282.9,68.4c5.8,1.6,3.4,6,1.2,4.1c0-1.3-0.8-2.9-1.7-3.8L282.9,68.4z M283.1,82v3.5h3.6
		V82H283.1z"/>
	<path class="st0" d="M325,84.9c3.4,2.4,9,4.1,13.5,4.8l0,0.5c-1.6,0.4-2.5,1.7-3,3.7c-4.7-1.9-9.4-5.1-12-9h-10.3
		c-4,4-9.6,7.5-17,9.4l-0.4-0.6c5.3-2.3,9.5-5.4,12.6-8.8h-11.1l-0.4-1.3h12.6c1.1-1.3,1.9-2.6,2.7-4h-4.3v0.9
		c0,0.4-1.9,1.3-3.6,1.3h-0.6V66.8l4.6,1.8h17.6l1.8-1.9c-0.9,0.5-2.4,0.7-4.1,0.3l0.5-2.9h-5.1l-0.4-1.3h5.7l0.7-4l5.6,1
		c-0.1,0.5-0.6,1-1.7,1.1l-0.4,2h3.5l2.1-2.9c0,0,2.5,2,4,3.5c-0.1,0.5-0.6,0.7-1.2,0.7h-8.6l-0.5,2.3l0.1-0.1l4.4,3.3
		c-0.3,0.3-0.9,0.7-1.7,0.9v9.2c0,0.4-2.2,1.3-3.6,1.3h-0.7v-1.5h-12l4.3,1.1c-0.2,0.5-0.7,0.8-2.2,0.8c-0.6,0.7-1.2,1.4-1.8,2.1h16
		l2.4-2.8c0,0,2.7,1.9,4.4,3.4c-0.1,0.5-0.6,0.7-1.2,0.7H325z M296.7,62.9h8.8l-0.5-3.9l5.7,0.4c0,0.5-0.4,1-1.3,1.3l0.3,2.2h1.7
		l2.2-2.9c0,0,2.4,2,3.9,3.5c-0.1,0.5-0.6,0.7-1.2,0.7h-6.3l0.3,2.1c-0.6,0.8-2.2,1.1-4.1,1.1l-0.4-3.3H297L296.7,62.9z M308.8,89.4
		c1.4,5-0.7,8.2-2.8,9.2c-1.3,0.7-3.2,0.6-3.6-0.8c-0.4-1.2,0.5-2.3,1.6-2.8c1.9-0.8,4-3,4.1-5.7H308.8z M307.8,69.9v3.5h18.4v-3.5
		H307.8z M307.8,78.3h18.4v-3.5h-18.4V78.3z M319.8,86.3c-0.1,0.6-0.6,1-1.6,1.2v9.9c0,3-0.6,4.6-5.2,5.1c-0.1-1.2-0.3-2.2-0.8-2.8
		c-0.6-0.6-1.3-1.1-3.1-1.3v-0.7c0,0,3.5,0.3,4.2,0.3c0.6,0,0.8-0.2,0.8-0.7V85.7L319.8,86.3z M320,89.9c8.9,4.6,4.8,11.2,1.7,8
		c0-2.5-1.2-5.7-2.3-7.8L320,89.9z M324.1,89.3c12.7,4,9.6,12.1,5.4,9.3c-0.9-3-3.7-6.7-5.9-9L324.1,89.3z"/>
	<path class="st0" d="M346.6,89.4c1.6,4.8,1.1,8.4-0.3,10.1c-0.9,1.2-3.1,1.4-3.8,0c-0.6-1.2,0-2.5,1-3.3c1.2-1.2,2.6-4.2,2.4-6.8
		H346.6z M342.6,83.1c0,0,1.1-0.2,1.6-0.6c2.4-1.7,5.4-4.8,8-8.1c-1.9,0.6-4.2,1.4-6.7,2.1c-0.3,0.6-0.7,1-1.2,1.1l-2-5.1
		c0,0,0.9-0.2,1.3-0.5c2.9-2.5,6.6-9.2,7.8-12.8l5.5,3c-0.2,0.4-0.8,0.7-1.7,0.6c-2.2,3-6,7-9.5,9.8c2.2,0,4.9,0,7.8,0
		c1.7-2.3,3.1-4.4,3.9-6.1l5.2,3.4c-0.2,0.4-0.9,0.7-1.8,0.5c-2.9,3.7-8.8,9.1-14.1,12.6c2.6-0.1,6.2-0.4,10-0.7
		c-0.5-1.6-1.2-3.2-1.9-4.4l0.6-0.2c9.1,4.8,5.2,11.5,2.1,8.5c0-0.8-0.2-1.7-0.4-2.6c-2.9,1.1-6.9,2.4-11.4,3.7
		c-0.4,0.5-0.8,0.8-1.2,1L342.6,83.1z M350.9,88.1c6.8,6.1,2.4,12.3-0.3,8.9c0.6-2.9,0.2-6.3-0.3-8.7L350.9,88.1z M355.9,86.9
		c8.5,4.3,4.2,10.9,1.3,7.7c0.2-2.5-0.8-5.5-1.8-7.5L355.9,86.9z M369.8,89.1c-0.2,0.5-0.6,0.7-1.7,0.6c-1.9,3.3-5.2,7.7-9,10.5
		l-0.5-0.5c2.7-3.7,5-9.4,5.9-13.2L369.8,89.1z M376.9,75.7c10.4,5.2,6.4,12.6,2.9,9.3c-0.1-1.1-0.4-2.4-0.9-3.6
		c-1.2,0.3-2.6,0.7-4.1,1.2v14.1c0,2.9-0.7,5-5.4,5.4c-0.1-1.2-0.3-2.3-0.8-2.9c-0.6-0.6-1.5-1.1-3.5-1.4V97c0,0,4,0.3,4.9,0.3
		c0.7,0,0.9-0.3,0.9-0.8V83.5c-1.9,0.6-4,1.1-6.2,1.6c-0.4,0.6-0.9,0.9-1.3,1.1l-1.7-5.1c0,0,1.1-0.2,1.7-0.5
		c2.6-1.7,5.8-4.6,8.6-7.6c-2,0.7-4.5,1.6-7.2,2.4c-0.3,0.6-0.7,0.9-1.2,1.1l-2-4.9c0,0,1-0.2,1.4-0.5c3.1-2.4,7.2-8.9,8.7-12.4
		l5.5,2.9c-0.2,0.4-0.8,0.7-1.7,0.6c-2.4,2.9-6.6,6.9-10.3,9.5c2.3,0,5.2-0.2,8.2-0.4c2-2.3,3.7-4.6,4.7-6.4l4.8,3.6
		c-0.3,0.4-0.9,0.6-1.8,0.4c-3.2,3.5-9.5,8.7-15.2,12.2c3.3-0.2,7.9-0.5,12.8-0.8c-0.6-1.6-1.4-3.2-2.2-4.4L376.9,75.7z M376.9,86.9
		c12.1,5.7,8.3,14.5,4.4,11c-0.5-3.5-2.9-7.8-4.8-10.7L376.9,86.9z"/>
</g>
<rect class="st1" width="496.5" height="102.5"/>
</svg>
