<?xml version="1.0" encoding="utf-8"?>
<!-- Generator: Adobe Illustrator 26.3.1, SVG Export Plug-In . SVG Version: 6.00 Build 0)  -->
<svg version="1.1" id="head-block-06.svg" xmlns="http://www.w3.org/2000/svg" xmlns:xlink="http://www.w3.org/1999/xlink" x="0px"
	 y="0px" viewBox="0 0 651.1 35.4" style="enable-background:new 0 0 651.1 35.4;" xml:space="preserve">
<style type="text/css">
	.st0{opacity:0.2;fill:#1E9FE0;enable-background:new    ;}
	.st1{fill:#1147B4;}
</style>
<rect id="長方形_978" y="25.4" class="st0" width="651.1" height="10"/>
<g>
	<path class="st1" d="M23.9,27.2c2.9,0,3.3-0.9,3.8-5c0.9,0.6,2.5,1.2,3.5,1.4c-0.6,5.3-1.9,7-7.1,7h-9.9c-5.6,0-7.2-1.3-7.2-6.2
		v-8.5l-4.4,1.4l-1-3.4L7,12.2V3.6h3.7v7.4l4.9-1.5V1.4h3.8v6.9l5.9-1.8l1-0.7l2.8,0.9L29,7.3c-0.2,4.4-0.7,10.3-1.4,14.2l-3.1-0.9
		c0.4-2.6,0.6-6.7,0.8-10.4L19.4,12v11.9h-3.8V13.2l-4.9,1.6v9.7c0,2.4,0.4,2.7,3.6,2.7H23.9z"/>
	<path class="st1" d="M62.8,7.3h-3.7v18.9c0,2.3-0.5,3.4-2,4c-1.6,0.6-3.9,0.7-7.2,0.7c-0.2-1.1-1-3-1.6-4c2.3,0.1,5,0.1,5.8,0.1
		c0.7,0,1-0.2,1-0.9V7.3h-21V3.5h28.6V7.3z M40.8,23.2v2.4h-3.7V10.9h13.5v12.3H40.8z M40.8,14.5v5.1h6v-5.1H40.8z"/>
	<path class="st1" d="M94.2,5.7v7.2h-3.8v-4H70.1v4h-3.6V5.7h4.2C70.3,4.8,69.6,3.8,69,3l3.4-1.3c1,1.1,2,2.7,2.5,3.8l-0.6,0.3h3.9
		V1.4H82v4.3h3.8l-0.2-0.1c0.8-1.1,1.7-2.8,2.3-4.1l4,1.2c-0.8,1.1-1.5,2.1-2.2,3H94.2z M68.9,19.1H92v12h-3.8v-0.7H72.5v0.8h-3.6
		V19.1z M88.7,10.4v7.3H71.9v-7.3H88.7z M72.5,21.8v1.7h5.9v-1.7H72.5z M78.4,27.6V26h-5.9v1.7H78.4z M85,13.1h-9.5V15H85V13.1z
		 M88.2,21.8H82v1.7h6.2V21.8z M88.2,27.6V26H82v1.7H88.2z"/>
	<path class="st1" d="M107,24.3c-0.3-1.7-1-4.5-1.6-6.2V31H102V17.7c-0.7,3.5-1.9,7.9-3.6,10.3c-0.3-1.2-1-3.1-1.5-4.3
		c1.2-1.8,2.4-5.1,3-7.5l2.2,1v-1.8h-4.6V12h4.6V1.5h3.5v9c0.7-2,1.3-5.2,1.7-7.4l3.1,0.7c-0.8,2.5-1.7,5.5-2.5,7.4l-2.3-0.7V12h3.9
		v3.5h-3.9v2l1.7-1.3c0.4,0.8,2.1,4.3,2.4,5.1L107,24.3z M98.8,11.3c-0.1-2-0.7-5.1-1.4-7.4l2.6-0.7c0.8,2.3,1.5,5.3,1.6,7.3
		L98.8,11.3z M113.9,14.5c0,4.9-0.6,12.2-3.9,16.7c-0.6-0.7-2.1-2-2.8-2.4c2.9-4,3.2-9.9,3.2-14.2V5.6h7.1c-0.4-0.9-1.1-2-1.7-2.9
		l3.2-1.3c0.8,1,1.7,2.5,2.2,3.4l-1.7,0.8h7.4V9h-12.9V14.5z M126.8,26.2v3.6h-14v-3.6h5.2v-7.6h-3.6v-3.5h3.6V9.9h3.6v5.2h4.2v3.5
		h-4.2v7.6H126.8z"/>
	<path class="st1" d="M143.7,27.3c0,1.6-0.3,2.5-1.4,3.1c-1,0.5-2.5,0.6-4.4,0.6c-0.2-1-0.7-2.4-1.2-3.2c1.2,0.1,2.4,0.1,2.9,0
		c0.4,0,0.5-0.1,0.5-0.5v-2.8h-5.6c-0.3,2.4-1.1,4.8-2.4,6.6c-0.6-0.6-2.1-1.7-2.8-2.1c2-2.9,2.2-6.9,2.2-10v-7.3h12.3V27.3z
		 M158.2,6.1v3.4h-28.8V6.1h6.8c-0.6-1.1-1.5-2.4-2.4-3.5l3.6-1.2c1.1,1.2,2.4,2.9,3,4.1l-1.7,0.6h8.8c1-1.5,2-3.3,2.6-4.8l4.1,1.2
		c-0.8,1.2-1.6,2.5-2.4,3.6H158.2z M140,21.7v-2.1h-5.2c0,0.7,0,1.3-0.1,2.1H140z M134.8,14.6v2.2h5.2v-2.2H134.8z M149.9,25h-3.5
		V12h3.5V25z M152.8,11.1h3.7v15.8c0,1.9-0.3,2.8-1.6,3.4c-1.2,0.6-2.9,0.7-5.2,0.6c-0.2-1-0.8-2.6-1.4-3.6c1.6,0.1,3.3,0.1,3.8,0
		c0.5,0,0.7-0.1,0.7-0.6V11.1z"/>
	<path class="st1" d="M171.7,3.9c-0.8,2.7-1.8,5.8-2.7,8.3c1.9,2.5,2.3,4.8,2.3,6.6c0,2.1-0.4,3.4-1.4,4.2c-0.5,0.4-1.1,0.6-1.8,0.7
		c-0.6,0.1-1.3,0.1-2,0.1c0-0.9-0.3-2.3-0.8-3.3c0.5,0.1,1,0.1,1.3,0c0.3,0,0.6-0.1,0.9-0.2c0.4-0.3,0.5-1,0.5-1.9
		c0-1.5-0.4-3.6-2.2-5.8c0.6-1.9,1.3-4.5,1.8-6.6h-2.5v25h-3.3V2.6h6.9l0.5-0.1L171.7,3.9z M190,2.6v3.2h-18V2.6H190z M189.5,27.7
		c0,1.4-0.2,2.3-1.1,2.8c-0.9,0.5-2.1,0.5-3.7,0.5c-0.1-0.9-0.4-2.2-0.8-3.1c0.8,0,1.7,0,2,0c0.3,0,0.4-0.1,0.4-0.4v-9.9h-10.7v13.4
		h-3.2V14.9h17.2V27.7z M188.5,13.8h-15V6.9h15V13.8z M182.4,24.8v5.5h-3.1v-5.5h-2.9v-2.5h2c-0.4-1-1.2-2.4-1.8-3.4l2.3-0.9
		c0.7,1.1,1.6,2.6,2,3.5l-1.8,0.8h2.1c0.7-1.3,1.5-3,1.9-4.3l2.6,1c-0.6,1-1.3,2.3-1.8,3.3h1.6v2.5H182.4z M185.1,9.4h-8.5v1.8h8.5
		V9.4z"/>
	<path class="st1" d="M222.3,29.6h-10.1V31h-3.3V14.4l-0.3,0.4c-0.4-0.4-1-1-1.7-1.6v3.2h-5l-0.3,1.7h6.4v9.8c0,1.4-0.3,2.1-1.2,2.6
		c-0.9,0.4-2.3,0.4-4.1,0.4c-0.1-0.8-0.4-1.9-0.7-2.7c1,0.1,2.2,0.1,2.6,0c0.3,0,0.4-0.1,0.4-0.4v-1.1l-1.8,0.7
		c-0.1-0.4-0.3-0.9-0.4-1.3c-1.9,0.4-3.8,0.9-5.4,1.4l-0.8-2.5l0.9-0.2c0.3-1.1,0.6-2.4,0.9-3.8h-1.8v10h-3V21h-0.7v-2.9h0.7v-0.9h3
		v0.9h2.4c0.1-0.6,0.2-1.1,0.3-1.7H194V7.7h2.7v6.3h7.3v-1.6l-1.4,1.3c-0.4-0.5-1.1-1.1-1.9-1.8c-0.7,0.7-1.5,1.3-2.1,1.8
		c-0.4-0.4-1.3-1.1-1.8-1.5c0.8-0.5,1.6-1.2,2.3-1.9c-0.6-0.5-1.3-1-1.8-1.5l1.5-1.3c0.6,0.4,1.2,0.9,1.8,1.4c0.5-0.5,0.9-1,1.3-1.5
		l2.2,0.8c-0.5,0.7-1.1,1.3-1.8,2c0.7,0.6,1.3,1.1,1.8,1.6V7.7h2.9v3.5c1.7-2.6,3.1-6.2,4-9.7l3.4,0.8c-0.5,1.7-1,3.4-1.7,5.1h9.3
		v3.4h-3.5v3h3.3v3.2h-3.3v3.1h3.3V23h-3.3v3.1h3.8L222.3,29.6z M208.3,6.8h-15.4v-3h6.1c-0.2-0.6-0.4-1.3-0.6-1.8l3.2-0.7
		c0.3,0.8,0.7,1.7,1,2.5h5.8V6.8z M201.1,21c-0.3,1.2-0.5,2.3-0.7,3.3l1.7-0.3c-0.3-0.6-0.5-1.2-0.7-1.8l2-0.7
		c0.6,1.2,1.2,2.8,1.7,4V21H201.1z M215.1,10.7h-2.9v3h2.9V10.7z M215.1,16.8h-2.9v3.1h2.9V16.8z M212.2,26.2h2.9V23h-2.9V26.2z
		 M216,7.2c-0.3-1.2-1.1-3.1-1.8-4.4l3.3-1c0.7,1.3,1.5,3.1,1.9,4.2L216,7.2z"/>
	<path class="st1" d="M245.4,19.4c-0.3,2-0.8,3.8-1.7,5.5c2.9,1.4,6.6,2.3,10.9,2.7c-0.8,0.8-1.8,2.4-2.3,3.4
		c-4.3-0.5-7.9-1.7-10.9-3.3c-1.5,1.4-3.7,2.6-6.5,3.4c-0.5-0.8-1.6-2.4-2.4-3.1c2.5-0.6,4.4-1.4,5.8-2.4c-1.6-1.3-2.8-2.9-3.9-4.7
		l3.1-1c0.8,1.2,1.8,2.3,3,3.3c0.6-1.1,1-2.3,1.2-3.6h-7.1v-9.3h7.3V7.9h-8V5c-0.6,1.2-1.2,2.4-1.9,3.7v22.5h-3.6V14.1
		c-0.9,1.1-1.7,2.1-2.6,3c-0.3-0.9-1.4-3-2-3.9c3-2.9,6-7.3,7.7-11.9l3.5,1.1c-0.3,0.7-0.6,1.3-0.9,2h7.8V1.6h3.8v2.9h8.4v3.4h-8.4
		v2.2h7.6v9.3H245.4z M241.8,16.4V16v-2.7h-3.9v3.1H241.8z M245.6,13.2V16v0.4h3.9v-3.1H245.6z"/>
	<path class="st1" d="M283.6,26.6c0,2-0.4,3.1-1.7,3.6c-1.3,0.6-3.2,0.7-6.1,0.7c-0.1-1-0.7-2.6-1.2-3.6c1.8,0.1,3.9,0.1,4.5,0.1
		c0.6,0,0.8-0.2,0.8-0.8v-4.8h-6.7v8.9h-3.8v-8.9h-6.5c-0.6,3.5-1.7,7-4,9.4c-0.6-0.7-2.1-2-3-2.4c3.5-3.8,3.8-9.5,3.8-13.9V3.5h24
		V26.6z M269.3,18.2v-3.9h-6v0.6c0,1,0,2.2-0.1,3.3H269.3z M263.4,7.1v3.7h6V7.1H263.4z M279.9,7.1h-6.7v3.7h6.7V7.1z M279.9,18.2
		v-3.9h-6.7v3.9H279.9z"/>
	<path class="st1" d="M291.1,20.6c2.5-0.8,3.9-2.2,4.1-3.8c-0.1,0-0.2,0-0.3,0c-1.6,0-3-1-3-2.8c0-1.8,1.4-2.9,3.1-2.9
		c2.3,0,3.4,1.7,3.4,4.4c0,3.6-2.3,6.5-6.3,7.7L291.1,20.6z"/>
	<path class="st1" d="M309.4,16.5c-1.2-1.1-3.7-2.7-5.7-3.7l2.1-2.7c1.9,0.9,4.5,2.3,5.8,3.4L309.4,16.5z M312.4,20.6
		c-1.4,3.4-3,7.1-4.6,10.2l-3.3-2.3c1.5-2.4,3.5-6.5,5.1-10.1L312.4,20.6z M310.5,8.2c-1-1.2-3.4-2.9-5.3-3.9l2.2-2.6
		c1.9,1,4.4,2.5,5.6,3.6L310.5,8.2z M329.9,27.4c0.6,0,0.7-0.6,0.8-4.5c0.8,0.6,2.3,1.2,3.2,1.5c-0.3,5-1.2,6.4-3.7,6.4h-2.5
		c-3,0-3.7-1.1-3.7-4.5v-8.4h-2.7c-0.5,5.9-1.7,10.5-8.1,13.2c-0.4-0.9-1.4-2.3-2.3-3.1c5.4-2,6.2-5.5,6.6-10.1h-4.8v-3.6h8.5V9.8
		h-3.6c-0.7,1.7-1.4,3.3-2.3,4.5c-0.7-0.6-2.4-1.7-3.3-2.1c1.9-2.4,3.2-6.4,3.8-10.4l3.8,0.7c-0.2,1.3-0.5,2.5-0.9,3.7h2.4V1.4h3.8
		v4.8h6.9v3.6h-6.9v4.5h8.3v3.6h-5.6v8.3c0,1,0.1,1.1,0.6,1.1H329.9z"/>
	<path class="st1" d="M352.1,6.8c-0.3,1-0.6,1.9-0.9,2.9h12.1v21.5h-3.8v-1.6h-18.3v1.6h-3.7V9.6h9.8c0.2-0.9,0.4-1.9,0.5-2.9h-11.6
		V3.2h28.6v3.6H352.1z M341.1,26h3.3V13.1h-3.3V26z M352.6,13.1h-4.9v2.2h4.9V13.1z M352.6,18.3h-4.9v2.4h4.9V18.3z M347.8,26h4.9
		v-2.4h-4.9V26z M359.4,13.1H356V26h3.4V13.1z"/>
	<path class="st1" d="M378.4,20.3c1.9-0.2,4-0.3,5.9-0.5v3.4c-1.9,0.2-3.9,0.3-5.9,0.5v3.7c0,1.7-0.3,2.6-1.5,3.1
		c-1.1,0.5-2.7,0.6-4.8,0.6c-0.2-1-0.7-2.4-1.1-3.4c1.3,0,2.8,0,3.2,0c0.4,0,0.6-0.1,0.6-0.4V24c-2.5,0.2-4.8,0.4-6.8,0.6l-0.3-3.5
		c2-0.1,4.5-0.3,7.1-0.5v-1.5c1-0.8,2.1-1.9,3.1-3.1h-8.6v-3.2h1.4c-0.4-1.4-1.3-3.4-2-5l3-1.1c0.9,1.6,1.8,3.7,2.3,5l-2.5,1.1h9.2
		l0.8-0.2l2.4,1.9c-1.5,1.8-3.5,3.9-5.5,5.5V20.3z M385.1,4.4c-4.6,1.1-10.9,1.7-16.2,2c-0.1-0.9-0.6-2.2-1-3.1
		c5.2-0.3,11.2-1,14.9-2L385.1,4.4z M375.2,12.4c-0.3-1.4-1-3.6-1.6-5.3l3.1-1c0.7,1.6,1.4,3.7,1.7,5.1L375.2,12.4z M378.6,11.5
		c0.9-1.7,1.9-4.3,2.5-6.2l3.6,1.3c-1,2.2-2.2,4.6-3.1,6.1L378.6,11.5z M392.6,26.9c0.8,0,0.9-1.2,1-5.8c0.9,0.7,2.4,1.4,3.3,1.7
		c-0.3,5.5-1.1,7.6-4.1,7.6h-3.1c-3.1,0-4-1.3-4-5.3V2.2h3.8V25c0,1.7,0.1,1.9,0.9,1.9H392.6z"/>
	<path class="st1" d="M410.1,16.2c0,2.2-1.8,4.1-4.1,4.1c-2.2,0-4.1-1.8-4.1-4.1c0-2.2,1.8-4.1,4.1-4.1
		C408.2,12.2,410.1,14,410.1,16.2z"/>
	<path class="st1" d="M420.9,16.3c-1.3-1-4-2.5-6-3.4l2-2.9c2,0.8,4.7,2.1,6.1,3.1L420.9,16.3z M423.9,20.5
		c-1.6,3.4-3.5,7.1-5.4,10.2l-3.3-2.4c1.7-2.4,4-6.4,5.8-10.1L423.9,20.5z M422.7,7.8c-1.3-1-3.9-2.6-5.9-3.5l2.1-2.8
		c2,0.9,4.7,2.2,6,3.2L422.7,7.8z M437.3,11.9c1.7,4.7,4.6,9.5,7.9,12.2c-0.9,0.7-2.1,2-2.8,3.1c-2.5-2.4-4.7-6.1-6.5-10.2v14H432
		V17.3c-1.8,4.1-4.2,7.7-7,10.1c-0.6-0.9-1.9-2.3-2.7-3c3.6-2.6,6.6-7.6,8.3-12.5H424V8.2h8V1.5h3.8v6.6h8.3v3.7H437.3z"/>
	<path class="st1" d="M452.5,16.6c-1.2-0.9-3.8-2.4-5.6-3.4l2.1-2.7c1.7,0.8,4.3,2.2,5.6,3L452.5,16.6z M448,28.2
		c1.3-2.2,3.1-5.6,4.6-8.9l3,2.4c-1.3,2.9-2.7,6.1-4.2,8.9L448,28.2z M454.2,8.3c-1.2-1.1-3.8-2.8-5.5-3.9l2.2-2.6
		c1.8,1,4.4,2.6,5.7,3.6L454.2,8.3z M467.6,8.2c-0.2,0.4-0.3,0.8-0.5,1.1c2.6,4.1,5.9,6.6,10,8.5c-1,0.8-2,2.1-2.5,3.2
		c-0.5-0.3-1-0.6-1.5-0.9v10.8h-3.9v-1h-8v1.2h-3.7V19.9c-0.6,0.3-1.2,0.7-1.7,1c-0.5-1-1.6-2.3-2.5-3.1c4.7-2.1,8.8-5.9,10.8-10.8
		L467.6,8.2z M464.7,2.9c-1.8,3.1-4.6,6.6-6.9,8.8c-0.7-0.7-2.2-1.8-3.1-2.3c2.4-1.9,4.8-4.9,6.4-7.7L464.7,2.9z M471.3,18.8
		c-2.3-1.7-4.3-3.7-6.1-6.3c-1.7,2.5-3.8,4.6-6.1,6.3H471.3z M469.3,26.5v-4.4h-8v4.4H469.3z M473.2,11.3c-1.4-2-4.6-5.3-6.8-7.8
		l3-1.9c2.2,2.3,5.4,5.4,7.1,7.4L473.2,11.3z"/>
	<path class="st1" d="M489.6,20.3c1.9-0.2,4-0.3,5.9-0.5v3.4c-1.9,0.2-3.9,0.3-5.9,0.5v3.7c0,1.7-0.3,2.6-1.5,3.1
		c-1.1,0.5-2.7,0.6-4.8,0.6c-0.2-1-0.7-2.4-1.1-3.4c1.3,0,2.8,0,3.2,0c0.4,0,0.6-0.1,0.6-0.4V24c-2.5,0.2-4.8,0.4-6.8,0.6l-0.3-3.5
		c2-0.1,4.5-0.3,7.1-0.5v-1.5c1-0.8,2.1-1.9,3.1-3.1h-8.6v-3.2h1.4c-0.4-1.4-1.3-3.4-2-5l3-1.1c0.9,1.6,1.8,3.7,2.3,5l-2.5,1.1h9.2
		l0.8-0.2l2.4,1.9c-1.5,1.8-3.5,3.9-5.5,5.5V20.3z M496.3,4.4c-4.6,1.1-10.9,1.7-16.2,2c-0.1-0.9-0.6-2.2-1-3.1
		c5.2-0.3,11.2-1,14.9-2L496.3,4.4z M486.4,12.4c-0.3-1.4-1-3.6-1.6-5.3l3.1-1c0.7,1.6,1.4,3.7,1.7,5.1L486.4,12.4z M489.8,11.5
		c0.9-1.7,1.9-4.3,2.5-6.2l3.6,1.3c-1,2.2-2.2,4.6-3.1,6.1L489.8,11.5z M503.9,26.9c0.8,0,0.9-1.2,1-5.8c0.9,0.7,2.4,1.4,3.3,1.7
		c-0.3,5.5-1.1,7.6-4.1,7.6h-3.1c-3.1,0-4-1.3-4-5.3V2.2h3.8V25c0,1.7,0.1,1.9,0.9,1.9H503.9z"/>
	<path class="st1" d="M522.1,19.5c1.6,2.6,3.5,6.1,4.4,8.3l-3.5,1.9c-0.3-0.8-0.6-1.7-1.1-2.7c-7.5,2.4-8.7,2.9-9.6,3.5
		c-0.2-1.1-0.9-2.9-1.5-3.8c0.7-0.3,1.5-1,1.5-2.2V3h13.4v15.7h-9.5v6.3l4.2-1.2c-0.5-0.9-1-1.8-1.5-2.7L522.1,19.5z M516.1,6.3V9
		h5.7V6.3H516.1z M521.9,15.3v-2.9h-5.7v2.9H521.9z M538.8,21.5c0,1.7-0.3,2.7-1.4,3.3c-1,0.6-2.5,0.6-4.5,0.6c-0.1-1-0.6-2.6-1-3.6
		c1.1,0.1,2.3,0.1,2.7,0c0.4,0,0.5-0.1,0.5-0.5V6.7h-3.8v24.4h-3.8V3.2h11.4V21.5z"/>
	<path class="st1" d="M571.3,7.3h-3.7v18.9c0,2.3-0.5,3.4-2,4c-1.6,0.6-3.9,0.7-7.2,0.7c-0.2-1.1-1-3-1.6-4c2.3,0.1,5,0.1,5.8,0.1
		c0.7,0,1-0.2,1-0.9V7.3h-21V3.5h28.6V7.3z M549.3,23.2v2.4h-3.7V10.9h13.5v12.3H549.3z M549.3,14.5v5.1h6v-5.1H549.3z"/>
	<path class="st1" d="M585.1,11.4h5.5v3.3h-5.5v2.7h4.9v3.2h-4.9v4l5.3-0.4c-0.1,1-0.2,2.6-0.1,3.4c-11.7,1.1-13.4,1.3-14.6,1.8
		c-0.2-0.9-0.7-2.3-1.1-3c0.6-0.2,1.2-0.7,1.2-1.8v-8.4h3.3v8.8l2.4-0.2V14.7h-7.4v-3.3h7.4V8h-2.5c-0.7,1.3-1.5,2.4-2.2,3.4
		c-0.6-0.6-2.1-1.6-2.9-2.1c1.8-1.9,3.3-5,4-8l3.4,0.8c-0.3,0.9-0.5,1.7-0.9,2.6h9.4V8h-4.8V11.4z M602.3,22.1
		c0,1.7-0.3,2.8-1.4,3.5c-1,0.7-2.4,0.8-4.4,0.8c-0.1-1.1-0.7-2.9-1.2-3.9c1.2,0.1,2.3,0,2.7,0c0.3,0,0.5-0.1,0.5-0.5V6.8h-3.3v24.3
		h-3.7V3.3h10.7V22.1z"/>
	<path class="st1" d="M616.7,3.9c-0.8,2.7-1.8,5.9-2.6,8.4c1.8,2.5,2.2,4.7,2.2,6.5c0,2.1-0.4,3.4-1.4,4.2c-0.5,0.4-1.1,0.6-1.7,0.7
		c-0.6,0.1-1.3,0.1-2,0.1c0-1-0.3-2.3-0.8-3.3c0.5,0.1,1,0.1,1.3,0c0.3,0,0.6-0.1,0.8-0.3c0.4-0.3,0.5-1,0.5-1.9
		c0-1.5-0.3-3.6-2-5.8c0.6-1.9,1.2-4.5,1.7-6.6h-2.5v25h-3.3V2.6h6.9l0.5-0.1L616.7,3.9z M622.4,22.2c-1.1,2.5-3,5.3-4.6,7
		c-0.6-0.6-2-1.6-2.8-2.1c1.6-1.5,3.2-3.8,4.1-5.9L622.4,22.2z M627.9,20.3v6.8c0,1.7-0.3,2.6-1.5,3.2c-1.1,0.5-2.6,0.6-4.8,0.6
		c-0.2-1-0.7-2.5-1.2-3.4c1.4,0.1,2.8,0.1,3.2,0c0.4,0,0.6-0.1,0.6-0.5v-6.8h-7.6v-3.4h7.6v-2.6h-5.1v-2.2c-0.4,0.3-0.9,0.6-1.3,0.8
		c-0.5-0.9-1.6-2.1-2.4-2.8c3.8-1.9,7.7-5.3,9.8-9.1l3.1,1.2c-0.2,0.4-0.5,0.9-0.8,1.3c3,3.2,5.9,5,8.4,6.2c-0.9,0.8-2,2-2.5,3.1
		c-0.5-0.3-1-0.6-1.5-1v2.5h-4.1v2.6h7.2v3.4H627.9z M630.9,11c-1.6-1.2-3.3-2.8-5.2-4.9c-1.5,1.8-3.3,3.5-5.1,4.9H630.9z
		 M631.6,21.1c1.7,1.9,3.4,4.5,4.2,6.2l-3,1.7c-0.8-1.8-2.5-4.5-4.1-6.5L631.6,21.1z"/>
	<path class="st1" d="M639.4,25.7c0-1.7,1.2-3.1,2.9-3.1c1.7,0,2.9,1.3,2.9,3.1c0,1.7-1.3,3.1-2.9,3.1
		C640.7,28.8,639.4,27.4,639.4,25.7z M640.1,8.6L640,4.2h4.7l-0.2,4.4l-0.7,11.7h-3.1L640.1,8.6z"/>
</g>
</svg>
