<?xml version="1.0" encoding="utf-8"?>
<!-- Generator: Adobe Illustrator 26.0.3, SVG Export Plug-In . SVG Version: 6.00 Build 0)  -->
<svg version="1.1" id="lead-block-02-02.svg" xmlns="http://www.w3.org/2000/svg" xmlns:xlink="http://www.w3.org/1999/xlink"
	 x="0px" y="0px" viewBox="0 0 205.5 32.7" style="enable-background:new 0 0 205.5 32.7;" xml:space="preserve">
<style type="text/css">
	.st0{fill:none;}
	.st1{fill:none;stroke:#1147B4;stroke-width:2;stroke-linecap:round;stroke-dasharray:1.000000e-03,4;}
	.st2{fill:#1147B4;}
</style>
<rect class="st0" width="205.5" height="32.7"/>
<path id="シェイプ_984" class="st1" d="M12,29.7h182.6"/>
<g>
	<path class="st2" d="M26.7,15.6c2.6,0.9,6.1,2.3,7.9,3.2l-1.2,2.2c-1.9-1.1-6-2.8-8.8-3.8l1-1.7h-0.8c-1.1,2.7-3.4,4.4-9.3,5.4
		c-0.2-0.7-0.8-1.8-1.3-2.4c4.4-0.6,6.5-1.6,7.5-3.1h-6.6v-2.2h7.4c0.1-0.4,0.1-0.7,0.2-1.1h-8.1V10h8.4V8.8h-6.5V6.6h6.5V5.5h-7.8
		V3.2h4.2c-0.3-0.7-0.8-1.4-1.2-1.9l2.3-0.9c0.7,0.8,1.4,1.8,1.7,2.6l-0.6,0.3h4.8c0.5-0.9,1.2-2,1.6-2.9l2.8,0.7
		c-0.5,0.8-1,1.5-1.5,2.1h4.2v2.3h-7.8v1.1h6.7v2.2h-6.7V10h8.8v2.3h-9c0,0.4-0.1,0.8-0.2,1.1h8.6v2.2H26.7z"/>
	<path class="st2" d="M54.4,18.3c0.1,0,0.2,0,0.3-0.1c0.1-0.1,0.1-0.3,0.1-0.8c0-0.4,0.1-1.5,0.1-2.8c0.6,0.5,1.3,0.9,2,1.1
		c0,1.2-0.1,2.6-0.3,3.3c-0.1,0.6-0.4,1.1-0.7,1.3c-0.3,0.3-0.9,0.4-1.3,0.4h-1.3c-0.5,0-1.1-0.2-1.5-0.6c-0.4-0.4-0.6-0.9-0.6-2.9
		V3.8h-2.4v6.5c0,3.4-0.3,8.1-2.4,11c-0.4-0.4-1.5-1.2-2.2-1.5c-0.1,0.3-0.4,0.5-0.6,0.7c-0.7,0.4-1.6,0.5-3,0.5
		c-0.1-0.7-0.4-1.8-0.7-2.5c0.8,0,1.6,0,1.8,0c0.3,0,0.4-0.1,0.4-0.4v-5.1c-0.6,0.5-1.1,1.1-1.6,1.6l-0.7-1.3
		c-0.2,2.8-0.6,5.8-1.6,7.9c-0.5-0.4-1.6-1-2.2-1.2c1.4-3,1.5-7.4,1.5-10.6v-8h7.1V18c0,0.6,0,1.1-0.2,1.4c1.7-2.5,1.8-6.2,1.8-9.2
		v-9h7.6v15.9c0,0.5,0,0.9,0.1,0.9c0,0.1,0.1,0.1,0.2,0.1H54.4z M39.9,9.2c0,0.9,0,1.8-0.1,2.8c0.7-0.4,1.5-1,2.3-1.6V8.9l-0.7,0.6
		c-0.3-0.5-0.9-1.1-1.5-1.8V9.2z M39.9,3.7v2.5l0.7-0.5c0.5,0.5,1.1,1,1.6,1.5V3.7H39.9z"/>
	<path class="st2" d="M64,15.3h3.4v2.3H64v3.5h-2.3v-3.5h-3.5v-2.3h3.5V14h-2.8V6h2.8V4.9h-3.2V2.6h3.2V0.5H64v2.1h3.1v2.3H64V6h2.9
		V14H64V15.3z M60.8,9.2H62V7.9h-1.3V9.2z M60.8,12.2H62v-1.3h-1.3V12.2z M65,7.9h-1.3v1.3H65V7.9z M65,10.9h-1.3v1.3H65V10.9z
		 M74.1,5.5v1.3h4.1v11.6c0,1-0.1,1.7-0.7,2.1C76.8,21,76.1,21,75,21c-0.1-0.7-0.3-1.7-0.6-2.3c0.5,0,0.9,0,1.1,0
		c0.2,0,0.2-0.1,0.2-0.3v-2.2h-1.7v4.6h-2.3v-4.6h-1.6V21h-2.3V6.9h4V5.5h-4.3V3.3h4.3V0.5h2.3v2.7h2.4c-0.5-0.6-1.3-1.2-1.9-1.7
		L76,0.4c0.9,0.5,1.9,1.4,2.4,2l-1,0.8h1.2v2.3H74.1z M70.1,9.1v1.4h1.6V9.1H70.1z M71.8,14.1v-1.5h-1.6v1.5H71.8z M74.1,9.1v1.4
		h1.7V9.1H74.1z M75.8,14.1v-1.5h-1.7v1.5H75.8z"/>
	<path class="st2" d="M100,6.4c-0.2,9-0.4,12.3-1.1,13.3c-0.5,0.7-1,1-1.8,1.1c-0.7,0.1-1.8,0.1-3,0.1c0-0.7-0.3-1.8-0.8-2.5
		c1.1,0.1,2.1,0.1,2.6,0.1c0.4,0,0.6-0.1,0.8-0.4c0.5-0.6,0.7-3.3,0.8-10.4h-2.3c-0.3,5.8-1.5,10.4-5.8,13.4c-0.4-0.6-1.2-1.5-1.8-2
		c1.1-0.7,1.9-1.5,2.6-2.5c-3.4,0.8-7,1.7-9.7,2.3l-0.4-2.7c0.4-0.1,1-0.2,1.5-0.3V1.4h7.6v13l0.9-0.2l0.2,2.1
		c1.5-2.3,2-5.1,2.2-8.5h-2.8V5.2h2.9c0-1.5,0-3.1,0-4.7h2.6c0,1.7,0,3.2,0,4.7h4.8V6.4z M83.9,3.8V6h2.9V3.8H83.9z M86.8,8.3h-2.9
		v2.3h2.9V8.3z M83.9,15.5c0.9-0.2,1.9-0.4,2.9-0.6v-2.1h-2.9V15.5z"/>
	<path class="st2" d="M108.5,1.3c-0.5,1.4-1,2.8-1.6,4.2V21h-2.5V10c-0.4,0.7-0.9,1.3-1.4,1.8c-0.2-0.6-0.8-2.1-1.3-2.8
		c1.8-2.1,3.4-5.3,4.4-8.5L108.5,1.3z M120.8,4.8c-0.6,1.3-1.5,2.3-2.4,3.2c1.4,0.7,3,1.2,4.8,1.5c-0.5,0.5-1.1,1.5-1.4,2.1
		c-2-0.4-3.8-1.2-5.2-2.1c-1.5,1-3.2,1.7-5,2.3c-0.2-0.4-0.7-1.1-1.1-1.6v7.2h-2.3V3.3h2.3v2.3c1.4-1.3,2.6-3.2,3.3-5.1l2.4,0.6
		c-0.2,0.5-0.4,1.1-0.7,1.6h7.2v2.1H120.8z M110.4,9.7c1.6-0.4,3-0.9,4.2-1.6C114,7.5,113.4,7,113,6.4c-0.4,0.5-0.8,0.9-1.3,1.3
		c-0.3-0.3-0.8-0.7-1.3-1.1V9.7z M122.6,16c-2.3,2.7-6.2,4.2-10.7,5c-0.3-0.6-0.8-1.5-1.3-2.1c4-0.5,7.9-1.7,9.7-3.8L122.6,16z
		 M118.6,11.4c-1.4,1.4-3.5,2.4-5.6,3.1c-0.3-0.5-0.9-1.1-1.4-1.5c1.9-0.5,4-1.4,5.1-2.4L118.6,11.4z M120.7,13.4
		c-1.7,1.9-4.7,3.2-7.7,4c-0.3-0.5-0.8-1.2-1.3-1.6c2.8-0.6,5.6-1.7,7.1-3.1L120.7,13.4z M114.2,4.8c0.5,0.7,1.3,1.4,2.1,2
		c0.7-0.6,1.3-1.3,1.8-2H114.2z"/>
	<path class="st2" d="M132.4,6.2h-8.2V4.1h3.7c-0.3-0.8-0.9-1.9-1.4-2.8l2-0.9c0.6,0.9,1.3,2.1,1.6,2.9l-1.4,0.8h3.7V6.2z M143.9,15
		c-0.7,1.3-1.7,2.4-3,3.3c1.2,0.4,2.6,0.6,4.1,0.7c-0.5,0.5-1.1,1.5-1.4,2.1c-1.9-0.3-3.7-0.7-5.1-1.5c-1.7,0.7-3.6,1.2-5.6,1.5
		c-0.2-0.6-0.7-1.5-1.1-2v0.8h-4.5v0.9h-2.1v-7.6h6.6V19c1.5-0.2,3.1-0.5,4.4-0.9c-0.7-0.5-1.2-1.1-1.7-1.8l0.8-0.3h-2.4v-1.8h9.2
		l0.4-0.1L143.9,15z M135.4,3.5h-3V1.6h3V0.5h2.3v4h-1.9l0.5,0.2c-0.1,0.3-0.3,0.7-0.4,1h1.9c-0.1-0.4-0.2-0.7-0.3-1l1.8-0.4V0.5
		h2.3v1.1h2.9v1.9h-2.9v1.1H140c0.2,0.4,0.3,0.8,0.4,1.1h3.6v1.6h-3.8V8h3.2v1.3h-3.2v0.7h3.2v1.3h-3.2v0.8h4.2v1.5h-8.7V14h-2.2
		V9.5c-0.2,0.3-0.5,0.6-0.8,0.8c-0.2-0.4-0.8-1.4-1.2-1.8v0.7h-6.5v-2h6.5v1.1c1.1-1.1,2.1-2.6,2.6-4.2l1.2,0.4V3.5z M125.1,10.2
		h6.5v2h-6.5V10.2z M129.5,15.3h-2.3v2.5h2.3V15.3z M138.1,7.3h-2.3V8h2.3V7.3z M138.1,9.3h-2.3v0.7h2.3V9.3z M138.1,11.4h-2.3v0.8
		h2.3V11.4z M136.9,16.1c0.4,0.4,1,0.8,1.6,1.2c0.7-0.3,1.3-0.7,1.8-1.2H136.9z"/>
	<path class="st2" d="M151.7,11.1c0-5.4,3.5-8.5,7.6-8.5c2.1,0,3.7,1,4.8,2.1l-1.7,2.1c-0.8-0.8-1.8-1.4-3-1.4
		c-2.5,0-4.3,2.1-4.3,5.6c0,3.5,1.7,5.7,4.2,5.7c1.4,0,2.5-0.7,3.4-1.6l1.7,2c-1.3,1.6-3.1,2.4-5.2,2.4
		C155,19.5,151.7,16.5,151.7,11.1z"/>
	<path class="st2" d="M166.9,2.8h5.3c3.6,0,6.4,1.3,6.4,5.1c0,3.7-2.8,5.4-6.3,5.4h-2.2v5.8h-3.3V2.8z M172.1,10.8
		c2.2,0,3.3-0.9,3.3-2.8c0-1.9-1.2-2.5-3.4-2.5h-1.8v5.3H172.1z"/>
	<path class="st2" d="M183.8,10.7l-4.3-7.9h3.6l1.6,3.4c0.4,0.8,0.7,1.6,1.2,2.6h0.1c0.4-1,0.7-1.8,1.1-2.6l1.5-3.4h3.4l-4.3,8.1
		l4.6,8.3h-3.6l-1.8-3.6c-0.4-0.8-0.8-1.7-1.3-2.7h-0.1c-0.4,1-0.8,1.8-1.2,2.7l-1.7,3.6h-3.5L183.8,10.7z"/>
</g>
</svg>
