<svg id="tag-block-03.svg" xmlns="http://www.w3.org/2000/svg" viewBox="0 0 202 30.84"><defs><style>.cls-1{fill:#fff;}.cls-1,.cls-2{fill-rule:evenodd;}.cls-2{fill:#aed4f9;}</style></defs><path id="SPF50_PA_" data-name="SPF50 PA " class="cls-1" d="M15.4,4.94A6.4,6.4,0,0,0,14,3.13a5.32,5.32,0,0,0-3.61-1.21C7,1.92,5.14,4.24,5.14,6.67c0,2.7,2.19,3.94,3.67,4.56l1.73.73c1.19.49,2.59,1.24,2.59,3.08a2.89,2.89,0,0,1-2.75,3h-.22A2.8,2.8,0,0,1,7.82,17a3.86,3.86,0,0,1-.76-2.29l-2.73.59a5.88,5.88,0,0,0,1.51,3.51,5.3,5.3,0,0,0,4.24,1.81,5.55,5.55,0,0,0,5.8-5.29,4,4,0,0,0,0-.49c0-2.05-.92-3.94-4.24-5.29L9.84,8.8C8.08,8.1,7.89,7.16,7.89,6.62c0-1.17.87-2.16,2.54-2.16a2.77,2.77,0,0,1,2.75,1.78Zm6-2.7v18h2.75V12.93h1.24a6.47,6.47,0,0,0,4.4-1.4,5,5,0,0,0,1.76-3.94,5.22,5.22,0,0,0-2.24-4.38,7.07,7.07,0,0,0-3.94-1Zm2.75,2.54h1.22c3.13,0,3.53,1.78,3.53,2.78,0,1.67-1.13,2.83-3.51,2.83H24.12V4.78ZM45.37,2.24h-9v18H39.1V12h6V9.4h-6V4.83h6.26V2.24Zm15.87,0H53.79l-2.67,9.1a7.94,7.94,0,0,1,1.59-.81,5.67,5.67,0,0,1,2.11-.38,4.2,4.2,0,0,1,2.94,1,3.83,3.83,0,0,1,1.08,2.92,4.21,4.21,0,0,1-1.16,3.05,3.82,3.82,0,0,1-2.75,1,4.21,4.21,0,0,1-2.35-.62,4.32,4.32,0,0,1-1.38-1.56l-2.07,1.73a6.58,6.58,0,0,0,2.13,2.07,6.61,6.61,0,0,0,3.45.81,6.75,6.75,0,0,0,5-1.83,6.48,6.48,0,0,0,1.83-4.78,6.15,6.15,0,0,0-1.75-4.62,6.19,6.19,0,0,0-5-1.53l.9-3h5.56V2.24ZM73.4,20.54a5.16,5.16,0,0,0,4.07-1.94,10.94,10.94,0,0,0,2.3-7.34,11.07,11.07,0,0,0-2.3-7.37,5.25,5.25,0,0,0-7.39-.76,5,5,0,0,0-.76.76A11,11,0,0,0,67,11.26a10.93,10.93,0,0,0,2.29,7.34,5.16,5.16,0,0,0,4.07,1.94Zm0-16.17a2.9,2.9,0,0,1,2.43,1.49,10.57,10.57,0,0,1,1.24,5.37,10.57,10.57,0,0,1-1.24,5.4,2.73,2.73,0,0,1-4.86,0,10.58,10.58,0,0,1-1.25-5.4A10.47,10.47,0,0,1,71,5.86a2.89,2.89,0,0,1,2.42-1.49Zm10.58,8h4.59V17H91.1V12.39h4.59V10H91.1V5.37H88.56V10H84v2.43ZM109.09,2.24v18h2.75V12.93h1.25a6.51,6.51,0,0,0,4.4-1.4,5.07,5.07,0,0,0,1.76-3.94A5.24,5.24,0,0,0,117,3.21a7.12,7.12,0,0,0-4-1Zm2.75,2.54h1.21c3.15,0,3.54,1.78,3.54,2.78,0,1.67-1.13,2.83-3.51,2.83h-1.24V4.78Zm23.89,15.47h3L130.17,1.19l-9,19.06h3l2-4.35h7.69Zm-8.45-6.94,2.79-6.1,2.67,6.1Zm14.45-.92h4.59V17h2.54V12.39h4.58V10h-4.58V5.37h-2.54V10h-4.59Zm15.53,0h4.58V17h2.55V12.39H169V10h-4.58V5.37h-2.55V10h-4.58Zm15.53,0h4.59V17h2.54V12.39h4.57V10h-4.57V5.37h-2.54V10h-4.59Zm15.52,0h4.59V17h2.54V12.39H200V10h-4.59V5.37H192.9V10h-4.59Z" transform="translate(-2 -1.19)"/><path id="シェイプ_1120" data-name="シェイプ 1120" class="cls-2" d="M2,32H204" transform="translate(-2 -1.19)"/></svg>