<svg xmlns="http://www.w3.org/2000/svg" xmlns:xlink="http://www.w3.org/1999/xlink" width="18" height="18" viewBox="0 0 18 18">
  <defs>
    <clipPath id="clip-icon-info-grey">
      <rect width="18" height="18"/>
    </clipPath>
  </defs>
  <g id="icon-info-grey" clip-path="url(#clip-icon-info-grey)">
    <g id="Layer_2" data-name="Layer 2">
      <g id="invisible_box" data-name="invisible box">
        <rect id="Rectangle_1365" data-name="Rectangle 1365" width="18" height="18" fill="none"/>
      </g>
      <g id="icons_Q2" data-name="icons Q2" transform="translate(0.75 0.75)">
        <path id="Path_6063" data-name="Path 6063" d="M10.25,2a8.213,8.213,0,1,0,5.845,2.405A8.25,8.25,0,0,0,10.25,2Zm0,15A6.75,6.75,0,1,1,17,10.25,6.75,6.75,0,0,1,10.25,17Z" transform="translate(-2 -2)" fill="#666"/>
        <path id="Path_6064" data-name="Path 6064" d="M22.75,35.539H22.6l-.15-.075h-.112l-.112-.112-.112-.113c0-.037-.038-.075-.075-.112s0-.112-.038-.15v-.3c.038-.037.038-.075.038-.15s.075-.075.075-.112l.112-.113a.713.713,0,0,1,.675-.225h.15l.113.075.112.112.112.112c0,.038.037.075.037.112a.284.284,0,0,0,.075.15v.3c-.037.038-.037.075-.075.15s-.037.075-.037.112l-.112.112-.112.112H23.05l-.15.075Z" transform="translate(-14.5 -22.038)" fill="#666"/>
        <path id="Path_6065" data-name="Path 6065" d="M18.525,17.507h-.3a.75.75,0,0,1-.413-.975,2.738,2.738,0,0,1,1.35-1.462,1.838,1.838,0,0,0-.413-3.525,1.847,1.847,0,0,0-2.25,1.8.75.75,0,1,1-1.5,0,3.4,3.4,0,0,1,4.05-3.262,3.337,3.337,0,0,1,.75,6.3,1.387,1.387,0,0,0-.6.638A.713.713,0,0,1,18.525,17.507Z" transform="translate(-10.125 -7.007)" fill="#666"/>
      </g>
    </g>
  </g>
</svg>
