<?xml version="1.0" encoding="utf-8"?>
<!-- Generator: Adobe Illustrator 26.0.2, SVG Export Plug-In . SVG Version: 6.00 Build 0)  -->
<svg version="1.1" id="Layer_2_00000046341458978244494090000007153407864878408379_"
	 xmlns="http://www.w3.org/2000/svg" xmlns:xlink="http://www.w3.org/1999/xlink" x="0px" y="0px" viewBox="0 0 56 56"
	 style="enable-background:new 0 0 56 56;" xml:space="preserve">
<style type="text/css">
	.st0{fill:none;}
	.st1{fill:#A2CE42;}
</style>
<g id="invisible_box">
	<rect id="Rectangle_919" class="st0" width="56" height="56"/>
</g>
<g id="icons_Q2" transform="translate(2.333 2.333)">
	<path id="Path_1528" class="st1" d="M25.7,4.7c11.6,0,21,9.4,21,21s-9.4,21-21,21s-21-9.4-21-21S14.1,4.7,25.7,4.7 M25.7,0
		C11.6,0.1,0.2,11.6,0.2,25.7c0.1,14.1,11.6,25.5,25.7,25.4C40,51,51.4,39.5,51.3,25.4c0-6.7-2.7-13.2-7.5-18C39,2.7,32.5,0,25.7,0z
		"/>
	<path id="Path_1529" class="st1" d="M19.4,35.5l-7-6.9c-0.8-0.9-0.9-2.2-0.2-3.1c0.7-1,2.1-1.3,3.1-0.6c0.2,0.1,0.3,0.2,0.4,0.4
		l5.4,5.4l14.7-14.7c1-0.8,2.5-0.6,3.3,0.5c0.6,0.8,0.6,2,0,2.8L22.6,35.5c-0.8,0.9-2.2,1-3.1,0.1C19.5,35.6,19.4,35.5,19.4,35.5
		L19.4,35.5z"/>
</g>
</svg>
