<svg id="Layer_2" data-name="Layer 2" xmlns="http://www.w3.org/2000/svg" width="16" height="16" viewBox="0 0 16 16">
  <g id="invisible_box" data-name="invisible box">
    <rect id="Rectangle_919" data-name="Rectangle 919" width="16" height="16" fill="none"/>
  </g>
  <g id="icons_Q2" data-name="icons Q2" transform="translate(0.667 0.667)">
    <path id="Path_1528" data-name="Path 1528" d="M9.333,3.333a6,6,0,1,1-6,6,6,6,0,0,1,6-6M9.333,2a7.3,7.3,0,1,0,5.2,2.138A7.333,7.333,0,0,0,9.333,2Z" transform="translate(-2 -2)" fill="#a2ce42"/>
    <path id="Path_1529" data-name="Path 1529" d="M14.2,20.933l-2-1.967a.7.7,0,0,1-.067-.9.633.633,0,0,1,1-.067l1.533,1.533,4.2-4.2a.667.667,0,0,1,.933.933l-4.667,4.667a.633.633,0,0,1-.933,0Z" transform="translate(-8.667 -10.8)" fill="#a2ce42"/>
  </g>
</svg>
