<?xml version="1.0" encoding="utf-8"?>
<!-- Generator: Adobe Illustrator 26.0.2, SVG Export Plug-In . SVG Version: 6.00 Build 0)  -->
<svg version="1.1" id="Layer_2_00000034090378856443484230000014409447659450032061_"
	 xmlns="http://www.w3.org/2000/svg" xmlns:xlink="http://www.w3.org/1999/xlink" x="0px" y="0px" viewBox="0 0 16 16"
	 style="enable-background:new 0 0 16 16;" xml:space="preserve">
<style type="text/css">
	.st0{fill:none;}
	.st1{fill:#A2CE42;}
</style>
<g id="invisible_box">
	<rect id="Rectangle_1039" class="st0" width="16" height="16"/>
</g>
<g id="icons_Q2" transform="translate(0.667 0.667)">
	<path id="Path_2539" class="st1" d="M7.3,0c-4,0-7.3,3.3-7.3,7.3s3.3,7.3,7.3,7.3s7.3-3.3,7.3-7.3c0-1.9-0.8-3.8-2.1-5.1
		C11.2,0.8,9.3,0,7.3,0z M7.3,13.3c-3.3,0-6-2.7-6-6s2.7-6,6-6s6,2.7,6,6S10.6,13.3,7.3,13.3z"/>
	<path id="Path_2540" class="st1" d="M7.3,6C7,6,6.7,6.3,6.7,6.7v4c0,0.4,0.3,0.7,0.7,0.6C7.7,11.3,8,11,8,10.7v-4
		C8,6.3,7.7,6,7.3,6z"/>
	<circle id="Ellipse_488" class="st1" cx="7.3" cy="4" r="0.7"/>
</g>
</svg>
