<svg xmlns="http://www.w3.org/2000/svg" xmlns:xlink="http://www.w3.org/1999/xlink" width="18" height="18" viewBox="0 0 18 18">
  <defs>
    <clipPath id="clip-icon-close">
      <rect width="18" height="18"/>
    </clipPath>
  </defs>
  <g id="icon-close" clip-path="url(#clip-icon-close)">
    <g id="Layer_2" data-name="Layer 2">
      <g id="invisible_box" data-name="invisible box">
        <rect id="Rectangle_1366" data-name="Rectangle 1366" width="18" height="18" fill="none"/>
      </g>
      <g id="icons_Q2" data-name="icons Q2" transform="translate(0.74 0.75)">
        <path id="Path_6066" data-name="Path 6066" d="M10.14,3.5a6.751,6.751,0,1,1-6.66,6.75A6.743,6.743,0,0,1,10.14,3.5m0-1.5A8.2,8.2,0,0,0,2,10.25a8.2,8.2,0,0,0,8.14,8.25A8.29,8.29,0,0,0,15.907,4.405,8.048,8.048,0,0,0,10.14,2Z" transform="translate(-2 -2)" fill="#666"/>
        <path id="Path_6067" data-name="Path 6067" d="M19.367,18.35l2.072-2.062a.8.8,0,0,0,.074-1.012A.7.7,0,0,0,20.4,15.2l-2.072,2.1-2.072-2.1a.7.7,0,0,0-1.11.075.8.8,0,0,0,.074,1.012l2.072,2.063-2.072,2.063a.8.8,0,0,0-.074,1.013.7.7,0,0,0,1.11.075l2.072-2.1L20.4,21.5a.7.7,0,0,0,1.11-.075.8.8,0,0,0-.074-1.013Z" transform="translate(-10.191 -10.099)" fill="#666"/>
      </g>
    </g>
  </g>
</svg>
