<svg id="Layer_2" data-name="Layer 2" xmlns="http://www.w3.org/2000/svg" width="56" height="56" viewBox="0 0 56 56">
  <g id="invisible_box" data-name="invisible box">
    <rect id="Rectangle_918" data-name="Rectangle 918" width="56" height="56" fill="none"/>
  </g>
  <g id="icons_Q2" data-name="icons Q2" transform="translate(2.333 2.333)">
    <path id="Path_1526" data-name="Path 1526" d="M27.667,6.667a21,21,0,1,1-21,21,21,21,0,0,1,21-21m0-4.667A25.55,25.55,0,1,0,45.85,9.483,25.667,25.667,0,0,0,27.667,2Z" transform="translate(-2 -2)" fill="#e26767"/>
    <path id="Path_1527" data-name="Path 1527" d="M28.766,25.507,35.3,19.09a2.45,2.45,0,0,0,.233-3.15,2.217,2.217,0,0,0-3.5-.233L25.5,22.24l-6.533-6.533a2.217,2.217,0,0,0-3.5.233,2.45,2.45,0,0,0,.233,3.15l6.533,6.417L15.7,31.923a2.45,2.45,0,0,0-.233,3.15,2.217,2.217,0,0,0,3.5.233L25.5,28.773l6.533,6.533a2.217,2.217,0,0,0,3.5-.233,2.45,2.45,0,0,0-.233-3.15Z" transform="translate(0.167 0.16)" fill="#e26767"/>
  </g>
</svg>
