<svg xmlns="http://www.w3.org/2000/svg" xmlns:xlink="http://www.w3.org/1999/xlink" width="18" height="18" viewBox="0 0 18 18">
  <defs>
    <clipPath id="clip-icon-explain">
      <rect width="18" height="18"/>
    </clipPath>
  </defs>
  <g id="icon-explain" clip-path="url(#clip-icon-explain)">
    <g id="Layer_2" data-name="Layer 2">
      <g id="invisible_box" data-name="invisible box">
        <rect id="Rectangle_1367" data-name="Rectangle 1367" width="18" height="18" fill="none"/>
      </g>
      <g id="Layer_6" data-name="Layer 6" transform="translate(0.749 2.25)">
        <g id="Group_2423" data-name="Group 2423">
          <path id="Path_6068" data-name="Path 6068" d="M14,6h-.225L2.524,9.3A.75.75,0,0,0,2,10.05v3.375a.825.825,0,0,0,.525.75l1.763.488.6,3.863a1.088,1.088,0,0,0,1.088.975H7.661a1.2,1.2,0,0,0,.825-.375,1.237,1.237,0,0,0,.225-.975L8.3,15.863l5.475,1.612H14a.75.75,0,0,0,.75-.75V6.75A.75.75,0,0,0,14,6ZM7.174,18H6.311l-.45-2.85.787.225Zm6.075-2.25L3.5,12.862v-2.25l9.75-2.85Z" transform="translate(-1.998 -6)" fill="#e59b36"/>
          <path id="Path_6069" data-name="Path 6069" d="M38.74,11.542a.563.563,0,0,0,.338-.075l1.5-.75a.755.755,0,1,0-.675-1.35l-1.5.75a.75.75,0,0,0-.337,1.013.787.787,0,0,0,.675.412Z" transform="translate(-24.489 -8.054)" fill="#e59b36"/>
          <path id="Path_6070" data-name="Path 6070" d="M40.577,28.221l-1.5-.75a.787.787,0,0,0-1.012.3.75.75,0,0,0,.337,1.013l1.5.75a.563.563,0,0,0,.338.075.788.788,0,0,0,.675-.413.713.713,0,0,0-.338-.975Z" transform="translate(-24.489 -19.371)" fill="#e59b36"/>
          <path id="Path_6071" data-name="Path 6071" d="M38.75,20.8h1.5a.75.75,0,0,0,0-1.5h-1.5a.75.75,0,0,0,0,1.5Z" transform="translate(-24.499 -14.313)" fill="#e59b36"/>
        </g>
      </g>
    </g>
  </g>
</svg>
