<svg xmlns="http://www.w3.org/2000/svg" width="115.031" height="25.34" viewBox="0 0 115.031 25.34">
  <defs>
    <style>
      .cls-1 {
        fill-rule: evenodd;
      }
    </style>
  </defs>
  <path id="name-ja.svg" class="cls-1" d="M660.884,7440.85a4.814,4.814,0,0,0-1.289-.56,0.629,0.629,0,0,0-.476.48,27.151,27.151,0,0,1-3,4.93,2.608,2.608,0,0,0-.616,1.06c0,0.5,1.6,1.26,2.044,1.26a1.058,1.058,0,0,0,.84-0.56,31.006,31.006,0,0,0,2.3-3.44c0.168-.28.308-0.54,0.42-0.73,0.5-.9.532-0.95,0.952-1.01a0.412,0.412,0,0,0,.42-0.36,0.812,0.812,0,0,0-.644-0.59l-0.672-.34A2.266,2.266,0,0,1,660.884,7440.85Zm-12.014,5.74a21.127,21.127,0,0,0-1.9-3.27c-0.5-.76-1.176-1.77-1.709-2.44a0.735,0.735,0,0,0-.616-0.36c-0.5,0-2.128.81-2.128,1.34a1.753,1.753,0,0,0,.42.78,46.61,46.61,0,0,1,2.969,4.48,1.264,1.264,0,0,0,.84.87C647.218,7447.99,648.87,7447.15,648.87,7446.59Zm4.789-4.76c0-1.06.028-1.34,0.364-1.54a0.526,0.526,0,0,0,.392-0.42c0-.28-0.392-0.33-0.616-0.33-0.56-.09-2.241-0.23-2.717-0.23a0.412,0.412,0,0,0-.5.37c0,0.08.028,0.16,0.028,0.25,0.056,0.59.112,1.62,0.112,2.49v5.1a0.673,0.673,0,0,1-.784.78h-5.909c-1.12,0-2.24-.08-3.36-0.08-0.7,0-.672.33-0.672,1.42,0,1.04-.028,1.38.672,1.38,1.12,0,2.24-.06,3.36-0.06h4.341a0.4,0.4,0,0,1,.448.37,0.568,0.568,0,0,1-.084.28,31.8,31.8,0,0,1-8.065,7.89c-0.616.39-.98,0.59-0.98,0.95a2.9,2.9,0,0,0,1.68,1.96,3.117,3.117,0,0,0,1.26-.64,35.594,35.594,0,0,0,7.673-8.06,0.285,0.285,0,0,1,.224-0.12,0.248,0.248,0,0,1,.2.26v5.76c0,1.32-.084,2.64-0.084,3.98,0,0.78.364,0.78,1.568,0.78,1.233,0,1.541-.02,1.541-0.84,0-1.31-.084-2.63-0.084-3.92v-5.9a0.226,0.226,0,0,1,.2-0.26,0.285,0.285,0,0,1,.224.12,34.462,34.462,0,0,0,5.573,6.49c0.588,0.53,2.688,2.38,3.388,2.38a2.782,2.782,0,0,0,1.708-1.87,0.929,0.929,0,0,0-.616-0.73,33.145,33.145,0,0,1-8.485-8.26,0.385,0.385,0,0,1,.364-0.62h4.4c1.12,0,2.24.06,3.36,0.06,0.7,0,.672-0.34.672-1.38,0-1.06.056-1.42-.672-1.42-1.12,0-2.24.08-3.36,0.08h-5.965a0.673,0.673,0,0,1-.784-0.78v-5.69Zm34.048,9.24a0.479,0.479,0,0,1-.448.45h-8.177a0.479,0.479,0,0,1-.448-0.45v-0.11a0.464,0.464,0,0,1,.448-0.45h8.177a0.464,0.464,0,0,1,.448.45v0.11Zm-8.373,3.31a0.632,0.632,0,0,1-.728-0.7,0.473,0.473,0,0,1,.56-0.45h8.009a0.463,0.463,0,0,1,.532.53v0.09a0.452,0.452,0,0,1-.532.53h-7.841Zm-1.344,2.66a0.857,0.857,0,0,1,.98-0.73h8.009c0.7,0,1.4.06,2.1,0.06,0.812,0,1.457-.12,1.457-1.1,0-.47-0.028-0.92-0.028-1.4v-2.91c0-.48.056-0.95,0.056-1.43,0-1.01-.729-1.06-1.541-1.06-0.7,0-1.372.03-2.044,0.03h-7.645c-0.756,0-1.512-.06-2.24-0.06-1.037,0-1.345.28-1.345,1.15,0,0.42.056,0.87,0.056,1.37v1.63a13.54,13.54,0,0,1-3.892,9.15,0.535,0.535,0,0,0-.224.37,3.206,3.206,0,0,0,2.1,1.68,1.084,1.084,0,0,0,.868-0.65A17.524,17.524,0,0,0,677.99,7457.04Zm5.489-14.26c0.7,0.7,1.4,1.4,2.156,2.05a0.407,0.407,0,0,1,.112.25,0.261,0.261,0,0,1-.308.25c-0.308.03-.616,0.03-0.9,0.03h-3.025c-0.336,0-.644,0-0.98-0.03a0.265,0.265,0,0,1-.308-0.25,0.327,0.327,0,0,1,.14-0.25c0.784-.73,1.344-1.29,2.1-2.07a0.8,0.8,0,0,1,.5-0.23A0.682,0.682,0,0,1,683.479,7442.78Zm-4.817,3.98c0.028,0.42.084,0.67,0.588,0.67,0.756,0,1.512-.05,2.268-0.05h3.025c0.756,0,1.512.05,2.268,0.05,0.448,0,.56-0.22.56-0.64a0.276,0.276,0,0,1,.252-0.28,0.538,0.538,0,0,1,.168.05c1.008,0.73,5.265,3.59,6.273,3.59,0.644,0,1.512-1.46,1.512-2.02a1.21,1.21,0,0,0-.924-0.7,32.78,32.78,0,0,1-6.749-3.92,33.139,33.139,0,0,1-2.94-2.63,0.207,0.207,0,0,1-.056-0.11,0.178,0.178,0,0,1,.112-0.17,0.394,0.394,0,0,0,.364-0.36c0-.37-0.588-0.48-1.12-0.59a16.263,16.263,0,0,0-2.073-.51,0.644,0.644,0,0,0-.476.34c-2.184,3.22-6.945,6.64-10.5,8.12a1.085,1.085,0,0,0-.868.67c0,0.53.952,1.99,1.512,1.99a12.938,12.938,0,0,0,2.6-1.23,31.373,31.373,0,0,0,3.809-2.49,0.38,0.38,0,0,1,.168-0.06A0.237,0.237,0,0,1,678.662,7446.76Zm2.772,14.65a0.807,0.807,0,0,1-.784-0.79v-0.42a0.8,0.8,0,0,1,.784-0.78h6.413a0.8,0.8,0,0,1,.784.78v0.42a0.807,0.807,0,0,1-.784.79h-6.413Zm6.721,1.98a0.379,0.379,0,0,1,.42.42v0.14c0,0.51.42,0.48,1.428,0.48,1.037,0,1.429.03,1.429-.5,0-.14-0.056-0.87-0.056-1.38v-2.82c0-.48.028-0.93,0.028-1.29,0-.9-0.952-1.01-1.653-1.01-0.672,0-1.372.03-2.044,0.03h-6.161c-0.672,0-1.372-.03-2.044-0.03-0.7,0-1.652.08-1.652,1.01,0,0.42.028,0.87,0.028,1.29v2.82c0,0.45-.056,1.18-0.056,1.4,0,0.51.392,0.51,1.428,0.51,1.092,0,1.456,0,1.456-.51v-0.14a0.39,0.39,0,0,1,.42-0.42h7.029Zm22.763-7.14a0.415,0.415,0,0,0-.364.31,18.552,18.552,0,0,1-2.94,4.82,1.327,1.327,0,0,0-.309.59c0,0.44,1.569,1.26,1.989,1.26a1.574,1.574,0,0,0,.9-0.7,31.505,31.505,0,0,0,2.66-4.34,0.526,0.526,0,0,1,.476-0.42,0.372,0.372,0,0,0,.336-0.28,0.561,0.561,0,0,0-.448-0.42A19.117,19.117,0,0,0,710.918,7456.25Zm15.038,5.6a12.415,12.415,0,0,0-1.428-2.54c-0.588-.9-1.176-1.8-1.848-2.64a0.706,0.706,0,0,0-.532-0.33c-0.364,0-2.045.67-2.045,1.15a1.381,1.381,0,0,0,.392.72,32.269,32.269,0,0,1,2.829,4.46,0.626,0.626,0,0,0,.5.5C724.136,7463.17,725.956,7462.47,725.956,7461.85Zm-17.334-7.47c0-.62-1.485-1.63-2.073-1.63a0.512,0.512,0,0,0-.42.42,47.389,47.389,0,0,1-4.284,8.18,2.221,2.221,0,0,0-.42.78,1.842,1.842,0,0,0,.868,1.01,7.964,7.964,0,0,0,1.6,1.15,0.3,0.3,0,0,0,.308-0.36c0-.17-0.028-0.37-0.028-0.48a2.03,2.03,0,0,1,.336-0.76C705.121,7461.69,708.622,7455.13,708.622,7454.38Zm-1.373-5.21c0-.37-1.708-1.6-2.072-1.85a11.652,11.652,0,0,0-2.212-1.4,3.328,3.328,0,0,0-1.568,1.85,0.775,0.775,0,0,0,.5.56c0.952,0.64,2.016,1.43,2.884,2.15a1.766,1.766,0,0,0,.84.54A3.15,3.15,0,0,0,707.249,7449.17Zm0.785-6.47c0-.36-1.429-1.37-1.765-1.62a9.966,9.966,0,0,0-2.268-1.4,3.2,3.2,0,0,0-1.6,1.87,0.816,0.816,0,0,0,.5.59c0.924,0.62,1.848,1.29,2.744,1.99a1.76,1.76,0,0,0,.756.45A3.091,3.091,0,0,0,708.034,7442.7Zm10.277-.87c-0.028-.87-0.028-1.29.336-1.51a0.6,0.6,0,0,0,.364-0.39,0.467,0.467,0,0,0-.476-0.37c-0.392-.02-2.436-0.19-2.716-0.19a0.422,0.422,0,0,0-.532.39c0,0.06.028,0.14,0.028,0.22a10.318,10.318,0,0,1,.112,1.85,0.68,0.68,0,0,1-.784.79h-2.577c-1.008,0-2.016-.06-3.024-0.06-0.644,0-.616.28-0.616,1.26,0,1.01-.028,1.29.616,1.29,1.008,0,2.016-.09,3.024-0.09h10.446c1.008,0,2.016.09,3.024,0.09,0.644,0,.616-0.28.616-1.29,0-.98.028-1.26-0.616-1.26-1.008,0-2.016.06-3.024,0.06H719.1A0.67,0.67,0,0,1,718.311,7441.83Zm-4.705,10.59a0.807,0.807,0,0,1-.784-0.79v-1.62a0.807,0.807,0,0,1,.784-0.79h6.5a0.807,0.807,0,0,1,.784.79v1.62a0.807,0.807,0,0,1-.784.79h-6.5Zm0.953,2.46a0.677,0.677,0,0,1,.784.79v4.06c0,1.65.056,1.9-1.373,1.9-0.476,0-.924-0.08-1.148-0.08a0.833,0.833,0,0,0-.616.98,3.694,3.694,0,0,0,.364,1.59,1.515,1.515,0,0,0,1.26.34c2.213,0,4.509-.28,4.509-3.08,0-.62-0.056-1.35-0.056-1.96v-3.75a0.677,0.677,0,0,1,.784-0.79h1.6a3.519,3.519,0,0,1,.5.2,2.591,2.591,0,0,0,1.037.14c0.9,0,1.484,0,1.484-.9,0-.59-0.056-1.17-0.056-1.76v-3.03c0-.56.056-1.09,0.056-1.62,0-1.01-.868-1.15-1.68-1.15-0.672,0-1.373.03-2.045,0.03h-6.245c-0.672,0-1.372-.03-2.044-0.03-0.812,0-1.652.14-1.652,1.15,0,0.56.028,1.09,0.028,1.62v3.03c0,0.59-.028,1.2-0.028,1.82,0,0.84.588,0.84,1.456,0.84a2.721,2.721,0,0,0,1.064-.14,3.519,3.519,0,0,1,.5-0.2h1.513Zm29.932-6.78c1.148-.78,6.833-4.7,6.833-5.88a2.252,2.252,0,0,0-.728-1.17,1.456,1.456,0,0,0-1.289-.59c-0.98,0-1.96.06-2.94,0.06h-8.709c-1.12,0-2.241-.09-3.361-0.09-0.7,0-.672.37-0.672,1.49,0,1.06-.056,1.45.672,1.45,1.12,0,2.241-.08,3.361-0.08h7.561c0.364,0,.756-0.06.756,0.25,0,0.45-2.8,2.58-3.277,2.94a1.348,1.348,0,0,1-.868.31h-0.476c-0.28,0-.5.03-0.5,0.39v0.25a13.821,13.821,0,0,1,.112,1.88v1.01a0.663,0.663,0,0,1-.784.78h-5.909c-1.176,0-2.352-.05-3.528-0.05-0.7,0-.7.36-0.7,1.48,0,1.09-.028,1.48.7,1.48,1.176,0,2.352-.08,3.528-0.08h5.909a0.663,0.663,0,0,1,.784.78v4.79c0,1.57.028,1.91-1.96,1.91-0.308,0-.812-0.03-1.12-0.06-0.168,0-.448-0.03-0.616-0.03a0.521,0.521,0,0,0-.56.65,5.648,5.648,0,0,0,.364,1.93,1.456,1.456,0,0,0,1.484.47c2.184,0,5.377-.14,5.377-3.02,0-.7-0.056-1.43-0.056-2.16v-4.48a0.663,0.663,0,0,1,.784-0.78h5.8c1.176,0,2.352.08,3.528,0.08,0.728,0,.7-0.39.7-1.48,0-1.12.028-1.48-.7-1.48-1.176,0-2.352.05-3.528,0.05h-5.8a0.663,0.663,0,0,1-.784-0.78v-1.04A1.155,1.155,0,0,1,744.491,7448.1Z" transform="translate(-639.688 -7439.16)"/>
</svg>
