<?xml version="1.0" encoding="utf-8"?>
<!-- Generator: Adobe Illustrator 26.0.3, SVG Export Plug-In . SVG Version: 6.00 Build 0)  -->
<svg version="1.1" id="head-block-06.svg" xmlns="http://www.w3.org/2000/svg" xmlns:xlink="http://www.w3.org/1999/xlink" x="0px"
	 y="0px" viewBox="0 0 651.1 35.4" style="enable-background:new 0 0 651.1 35.4;" xml:space="preserve">
<style type="text/css">
	.st0{opacity:0.2;fill:#1E9FE0;enable-background:new    ;}
	.st1{fill:#1147B4;}
</style>
<rect id="長方形_978" y="25.4" class="st0" width="651.1" height="10"/>
<g>
	<path class="st1" d="M23.3,27.1c2.9,0,3.4-0.9,3.8-5c0.9,0.6,2.5,1.2,3.6,1.4c-0.6,5.3-1.9,7-7.1,7h-10c-5.6,0-7.3-1.3-7.3-6.2
		v-8.6l-4.5,1.4l-1-3.5L6.3,12V3.3H10v7.5l4.9-1.5V1.1h3.8V8l5.9-1.8l1-0.7l2.8,0.9L28.4,7c-0.2,4.5-0.7,10.4-1.4,14.3l-3.1-0.9
		c0.4-2.6,0.6-6.7,0.8-10.5l-5.9,1.9v12h-3.8V13L10,14.5v9.8c0,2.4,0.4,2.8,3.6,2.8H23.3z"/>
	<path class="st1" d="M64.1,7.1h-3.7v19.1c0,2.3-0.5,3.4-2,4.1c-1.6,0.6-4,0.7-7.2,0.7c-0.2-1.1-1-3-1.6-4c2.3,0.1,5.1,0.1,5.8,0.1
		c0.7,0,1-0.2,1-0.9v-19H35.2V3.2h28.8V7.1z M41.9,23v2.4h-3.7V10.6h13.6V23H41.9z M41.9,14.3v5.1H48v-5.1H41.9z"/>
	<path class="st1" d="M97.3,5.4v7.3h-3.8v-4H73v4h-3.6V5.4h4.2c-0.5-0.9-1.2-1.9-1.8-2.8l3.4-1.3c1,1.2,2,2.7,2.5,3.8l-0.6,0.3h4
		V1.1H85v4.4h3.8l-0.2-0.1c0.8-1.1,1.8-2.8,2.3-4.1l4,1.2c-0.8,1.1-1.5,2.1-2.2,3H97.3z M71.8,18.9h23.3V31h-3.8v-0.7H75.4V31h-3.6
		V18.9z M91.7,10.2v7.3H74.8v-7.3H91.7z M75.4,21.6v1.7h6v-1.7H75.4z M81.3,27.5v-1.7h-6v1.7H81.3z M88,12.9h-9.6v1.9H88V12.9z
		 M91.3,21.6H85v1.7h6.2V21.6z M91.3,27.5v-1.7H85v1.7H91.3z"/>
	<path class="st1" d="M111.7,24.2c-0.3-1.7-1.1-4.5-1.6-6.2v12.9h-3.5V17.5c-0.7,3.5-2,7.9-3.6,10.4c-0.3-1.2-1-3.2-1.5-4.3
		c1.2-1.8,2.5-5.2,3-7.6l2.2,1v-1.8H102v-3.5h4.6V1.2h3.5v9.1c0.7-2,1.3-5.2,1.7-7.4l3.1,0.7c-0.8,2.6-1.7,5.6-2.5,7.4l-2.3-0.7v1.4
		h3.9v3.5h-3.9v2l1.7-1.3c0.4,0.8,2.1,4.3,2.4,5.2L111.7,24.2z M103.5,11.1c-0.1-2-0.7-5.1-1.4-7.4l2.6-0.7c0.8,2.3,1.5,5.4,1.6,7.4
		L103.5,11.1z M118.7,14.2c0,4.9-0.6,12.3-3.9,16.8c-0.6-0.7-2.1-2-2.8-2.5c2.9-4.1,3.2-10,3.2-14.3V5.3h7.1c-0.4-0.9-1.1-2-1.7-2.9
		l3.2-1.3c0.8,1,1.8,2.5,2.2,3.4l-1.8,0.8h7.5v3.5h-13V14.2z M131.7,26.1v3.6h-14.1v-3.6h5.3v-7.6h-3.6v-3.6h3.6V9.6h3.6v5.3h4.3
		v3.6h-4.3v7.6H131.7z"/>
	<path class="st1" d="M150.3,27.2c0,1.6-0.3,2.5-1.4,3.1c-1,0.5-2.5,0.6-4.4,0.6c-0.2-1-0.7-2.4-1.2-3.2c1.2,0.1,2.5,0.1,2.9,0
		c0.4,0,0.5-0.1,0.5-0.5v-2.8H141c-0.4,2.4-1.1,4.8-2.4,6.7c-0.6-0.6-2.1-1.8-2.8-2.1c2-2.9,2.2-6.9,2.2-10v-7.3h12.4V27.2z
		 M164.9,5.8v3.4h-29V5.8h6.8c-0.6-1.1-1.5-2.5-2.4-3.5l3.6-1.2c1.2,1.2,2.4,2.9,3,4.2l-1.8,0.6h8.9c1-1.5,2-3.4,2.6-4.8l4.1,1.2
		c-0.8,1.2-1.6,2.5-2.4,3.6H164.9z M146.6,21.5v-2.1h-5.2c0,0.7,0,1.3-0.1,2.1H146.6z M141.4,14.4v2.2h5.2v-2.2H141.4z M156.5,24.8
		h-3.5V11.8h3.5V24.8z M159.4,10.9h3.7v15.9c0,1.9-0.4,2.8-1.6,3.4c-1.2,0.6-2.9,0.7-5.2,0.6c-0.2-1-0.8-2.6-1.4-3.6
		c1.6,0.1,3.3,0.1,3.8,0c0.5,0,0.7-0.1,0.7-0.6V10.9z"/>
	<path class="st1" d="M180.2,20.1c2-0.2,4-0.3,5.9-0.5V23c-2,0.2-4,0.4-5.9,0.5v3.7c0,1.7-0.3,2.6-1.5,3.1c-1.2,0.5-2.7,0.6-4.8,0.6
		c-0.2-1-0.7-2.5-1.2-3.4c1.3,0,2.8,0,3.3,0c0.4,0,0.6-0.1,0.6-0.4v-3.2c-2.5,0.2-4.9,0.4-6.8,0.6l-0.3-3.5c2-0.1,4.5-0.3,7.2-0.5
		v-1.5c1-0.8,2.1-1.9,3.1-3.1h-8.7v-3.2h1.4c-0.4-1.4-1.3-3.5-2-5l3-1.2c0.9,1.6,1.9,3.7,2.3,5.1l-2.6,1.1h9.3l0.8-0.2l2.5,1.9
		c-1.5,1.8-3.6,3.9-5.5,5.6V20.1z M186.9,4.1c-4.6,1.2-10.9,1.8-16.3,2c-0.1-0.9-0.6-2.2-1-3.1c5.2-0.3,11.2-1,15-2L186.9,4.1z
		 M177,12.1c-0.3-1.4-1-3.6-1.6-5.3l3.1-1c0.7,1.6,1.4,3.7,1.7,5.2L177,12.1z M180.4,11.3c0.9-1.7,2-4.3,2.5-6.3l3.6,1.3
		c-1.1,2.2-2.2,4.6-3.2,6.2L180.4,11.3z M194.5,26.8c0.8,0,0.9-1.2,1.1-5.9c0.9,0.7,2.4,1.4,3.4,1.7c-0.3,5.6-1.2,7.6-4.1,7.6h-3.1
		c-3.2,0-4-1.3-4-5.3v-23h3.8v23c0,1.7,0.1,1.9,0.9,1.9H194.5z"/>
	<path class="st1" d="M223.9,19.2c-0.3,2-0.8,3.9-1.8,5.6c2.9,1.4,6.6,2.3,10.9,2.7c-0.8,0.8-1.8,2.4-2.3,3.4
		c-4.3-0.5-8-1.7-10.9-3.4c-1.5,1.4-3.7,2.6-6.6,3.4c-0.5-0.8-1.6-2.4-2.4-3.2c2.6-0.6,4.4-1.4,5.8-2.5c-1.6-1.3-2.8-2.9-3.9-4.8
		l3.1-1c0.8,1.2,1.8,2.3,3,3.3c0.6-1.2,1-2.3,1.2-3.6h-7.1V9.9h7.4V7.7h-8V4.7c-0.6,1.2-1.2,2.5-1.9,3.7V31h-3.6V13.8
		c-0.9,1.1-1.7,2.1-2.6,3c-0.4-0.9-1.4-3-2-3.9c3-2.9,6-7.4,7.7-11.9l3.5,1.2c-0.3,0.7-0.6,1.3-0.9,2h7.8V1.3h3.8v2.9h8.5v3.5h-8.5
		v2.2h7.6v9.3H223.9z M220.3,16.2v-0.4V13h-3.9v3.2H220.3z M224.1,13v2.8v0.4h4V13H224.1z"/>
	<path class="st1" d="M264,26.4c0,2-0.4,3.1-1.7,3.6c-1.3,0.6-3.3,0.7-6.1,0.7c-0.1-1-0.7-2.7-1.2-3.6c1.8,0.1,3.9,0.1,4.5,0.1
		c0.6,0,0.8-0.2,0.8-0.8v-4.8h-6.8v8.9h-3.8v-8.9h-6.5c-0.6,3.5-1.7,7-4,9.5c-0.6-0.7-2.1-2-3-2.5c3.5-3.8,3.8-9.5,3.8-14V3.2H264
		V26.4z M249.6,18v-3.9h-6v0.6c0,1,0,2.2-0.1,3.4H249.6z M243.6,6.8v3.7h6V6.8H243.6z M260.2,6.8h-6.8v3.7h6.8V6.8z M260.2,18v-3.9
		h-6.8V18H260.2z"/>
	<path class="st1" d="M273.1,20.5c2.5-0.8,3.9-2.2,4.1-3.9c-0.1,0-0.2,0-0.4,0c-1.6,0-3-1-3-2.8c0-1.8,1.4-2.9,3.1-2.9
		c2.3,0,3.5,1.7,3.5,4.4c0,3.6-2.3,6.6-6.3,7.7L273.1,20.5z"/>
	<path class="st1" d="M293.1,16.3c-1.2-1.1-3.7-2.7-5.7-3.7l2.1-2.8c2,0.9,4.5,2.3,5.8,3.4L293.1,16.3z M296.2,20.4
		c-1.4,3.4-3,7.1-4.6,10.3l-3.4-2.3c1.5-2.5,3.6-6.5,5.2-10.2L296.2,20.4z M294.2,7.9c-1.1-1.2-3.5-2.9-5.4-3.9l2.2-2.7
		c1.9,1,4.4,2.5,5.6,3.6L294.2,7.9z M313.8,27.2c0.6,0,0.7-0.6,0.8-4.5c0.8,0.6,2.3,1.2,3.3,1.5c-0.3,5-1.2,6.4-3.7,6.4h-2.5
		c-3,0-3.7-1.1-3.7-4.5v-8.4h-2.7c-0.5,6-1.8,10.6-8.2,13.2c-0.4-0.9-1.4-2.3-2.3-3.1c5.4-2,6.2-5.5,6.6-10.2h-4.8v-3.6h8.6V9.5
		h-3.6c-0.7,1.8-1.4,3.3-2.3,4.5c-0.7-0.6-2.4-1.7-3.3-2.1c2-2.4,3.2-6.4,3.9-10.4l3.8,0.7c-0.2,1.3-0.5,2.5-0.9,3.7h2.4V1.1h3.8
		v4.9h6.9v3.6H309v4.5h8.3v3.6h-5.6v8.4c0,1,0.1,1.2,0.6,1.2H313.8z"/>
	<path class="st1" d="M337.7,6.5c-0.3,1-0.6,2-0.9,2.9H349V31h-3.9v-1.6h-18.5V31H323V9.4h9.9c0.2-0.9,0.4-1.9,0.5-2.9h-11.7V2.9
		h28.8v3.6H337.7z M326.7,25.8h3.3v-13h-3.3V25.8z M338.2,12.9h-4.9v2.2h4.9V12.9z M338.2,18.1h-4.9v2.4h4.9V18.1z M333.3,25.8h4.9
		v-2.4h-4.9V25.8z M345.1,12.9h-3.5v13h3.5V12.9z"/>
	<path class="st1" d="M365.8,20.1c2-0.2,4-0.3,5.9-0.5V23c-2,0.2-4,0.4-5.9,0.5v3.7c0,1.7-0.3,2.6-1.5,3.1c-1.2,0.5-2.7,0.6-4.8,0.6
		c-0.2-1-0.7-2.5-1.2-3.4c1.3,0,2.8,0,3.3,0c0.4,0,0.6-0.1,0.6-0.4v-3.2c-2.5,0.2-4.9,0.4-6.8,0.6l-0.3-3.5c2-0.1,4.5-0.3,7.2-0.5
		v-1.5c1-0.8,2.1-1.9,3.1-3.1h-8.7v-3.2h1.4c-0.4-1.4-1.3-3.5-2-5l3-1.2c0.9,1.6,1.9,3.7,2.3,5.1l-2.6,1.1h9.3l0.8-0.2l2.5,1.9
		c-1.5,1.8-3.6,3.9-5.5,5.6V20.1z M372.5,4.1c-4.6,1.2-10.9,1.8-16.3,2c-0.1-0.9-0.6-2.2-1-3.1c5.2-0.3,11.2-1,15-2L372.5,4.1z
		 M362.6,12.1c-0.3-1.4-1-3.6-1.6-5.3l3.1-1c0.7,1.6,1.4,3.7,1.7,5.2L362.6,12.1z M366,11.3c0.9-1.7,2-4.3,2.5-6.3l3.6,1.3
		c-1.1,2.2-2.2,4.6-3.2,6.2L366,11.3z M380.1,26.8c0.8,0,0.9-1.2,1.1-5.9c0.9,0.7,2.4,1.4,3.4,1.7c-0.3,5.6-1.2,7.6-4.1,7.6h-3.1
		c-3.2,0-4-1.3-4-5.3v-23h3.8v23c0,1.7,0.1,1.9,0.9,1.9H380.1z"/>
	<path class="st1" d="M399.3,16c0,2.2-1.9,4.1-4.1,4.1c-2.2,0-4.1-1.9-4.1-4.1s1.9-4.1,4.1-4.1C397.4,11.9,399.3,13.8,399.3,16z"/>
	<path class="st1" d="M411.8,16c-1.3-1.1-4-2.5-6-3.4l2-2.9c2,0.8,4.7,2.1,6.2,3.1L411.8,16z M414.8,20.3c-1.6,3.4-3.5,7.1-5.4,10.2
		l-3.3-2.5c1.7-2.4,4-6.5,5.8-10.2L414.8,20.3z M413.6,7.5c-1.3-1.1-3.9-2.6-5.9-3.6l2.1-2.8c2,0.9,4.7,2.2,6,3.3L413.6,7.5z
		 M428.3,11.7c1.7,4.7,4.7,9.5,7.9,12.3c-0.9,0.7-2.1,2-2.8,3.1c-2.5-2.5-4.8-6.2-6.5-10.2v14.1H423V17.1c-1.8,4.2-4.2,7.8-7,10.2
		c-0.6-0.9-1.9-2.3-2.8-3c3.6-2.7,6.7-7.6,8.4-12.6h-6.7V7.9h8.1V1.2h3.9v6.7h8.4v3.7H428.3z"/>
	<path class="st1" d="M445.2,16.4c-1.2-0.9-3.8-2.4-5.6-3.4l2.1-2.8c1.7,0.8,4.3,2.2,5.7,3L445.2,16.4z M440.7,28
		c1.3-2.2,3.1-5.7,4.6-9l3,2.4c-1.3,2.9-2.8,6.2-4.2,8.9L440.7,28z M446.9,8c-1.2-1.1-3.8-2.8-5.6-4l2.2-2.6c1.8,1,4.4,2.7,5.7,3.6
		L446.9,8z M460.4,7.9c-0.2,0.4-0.4,0.8-0.5,1.1c2.7,4.1,5.9,6.6,10.1,8.6c-1,0.8-2,2.1-2.5,3.2c-0.5-0.3-1-0.6-1.5-0.9v10.9h-3.9
		v-1h-8V31h-3.7V19.7c-0.6,0.4-1.2,0.7-1.8,1c-0.5-1-1.6-2.3-2.6-3.2c4.8-2.1,8.8-5.9,10.9-10.8L460.4,7.9z M457.4,2.6
		c-1.9,3.2-4.6,6.7-6.9,8.9c-0.7-0.7-2.2-1.8-3.1-2.3c2.4-1.9,4.9-4.9,6.4-7.8L457.4,2.6z M464.2,18.6c-2.3-1.7-4.3-3.7-6.1-6.3
		c-1.7,2.5-3.8,4.6-6.2,6.3H464.2z M462.1,26.4V22h-8v4.4H462.1z M466,11.1c-1.4-2-4.6-5.4-6.8-7.8l3-1.9c2.2,2.3,5.5,5.5,7.1,7.5
		L466,11.1z"/>
	<path class="st1" d="M484.2,20.1c2-0.2,4-0.3,5.9-0.5V23c-2,0.2-4,0.4-5.9,0.5v3.7c0,1.7-0.3,2.6-1.5,3.1c-1.2,0.5-2.7,0.6-4.8,0.6
		c-0.2-1-0.7-2.5-1.2-3.4c1.3,0,2.8,0,3.3,0c0.4,0,0.6-0.1,0.6-0.4v-3.2c-2.5,0.2-4.9,0.4-6.8,0.6l-0.3-3.5c2-0.1,4.5-0.3,7.2-0.5
		v-1.5c1-0.8,2.1-1.9,3.1-3.1h-8.7v-3.2h1.4c-0.4-1.4-1.3-3.5-2-5l3-1.2c0.9,1.6,1.9,3.7,2.3,5.1l-2.6,1.1h9.3l0.8-0.2l2.5,1.9
		c-1.5,1.8-3.6,3.9-5.5,5.6V20.1z M490.9,4.1c-4.6,1.2-10.9,1.8-16.3,2c-0.1-0.9-0.6-2.2-1-3.1c5.2-0.3,11.2-1,15-2L490.9,4.1z
		 M481,12.1c-0.3-1.4-1-3.6-1.6-5.3l3.1-1c0.7,1.6,1.4,3.7,1.7,5.2L481,12.1z M484.4,11.3c0.9-1.7,2-4.3,2.5-6.3l3.6,1.3
		c-1.1,2.2-2.2,4.6-3.2,6.2L484.4,11.3z M498.5,26.8c0.8,0,0.9-1.2,1.1-5.9c0.9,0.7,2.4,1.4,3.4,1.7c-0.3,5.6-1.2,7.6-4.1,7.6h-3.1
		c-3.2,0-4-1.3-4-5.3v-23h3.8v23c0,1.7,0.1,1.9,0.9,1.9H498.5z"/>
	<path class="st1" d="M518.5,19.3c1.6,2.6,3.6,6.1,4.4,8.4l-3.6,1.9c-0.3-0.8-0.6-1.8-1.1-2.8c-7.5,2.4-8.8,2.9-9.7,3.5
		c-0.2-1.1-0.9-2.9-1.5-3.9c0.7-0.4,1.5-1,1.5-2.2V2.7H522v15.8h-9.6v6.3l4.3-1.2c-0.5-0.9-1-1.9-1.5-2.7L518.5,19.3z M512.5,6.1
		v2.7h5.8V6.1H512.5z M518.2,15.1v-2.9h-5.8v2.9H518.2z M535.3,21.3c0,1.7-0.3,2.7-1.4,3.4c-1,0.6-2.5,0.6-4.5,0.6
		c-0.1-1-0.6-2.6-1.1-3.6c1.2,0.1,2.3,0.1,2.7,0c0.4,0,0.5-0.1,0.5-0.5V6.4h-3.9V31h-3.8V2.9h11.5V21.3z"/>
	<path class="st1" d="M569.7,7.1H566v19.1c0,2.3-0.5,3.4-2,4.1c-1.6,0.6-4,0.7-7.2,0.7c-0.2-1.1-1-3-1.6-4c2.3,0.1,5.1,0.1,5.8,0.1
		c0.7,0,1-0.2,1-0.9v-19h-21.2V3.2h28.8V7.1z M547.5,23v2.4h-3.7V10.6h13.6V23H547.5z M547.5,14.3v5.1h6.1v-5.1H547.5z"/>
	<path class="st1" d="M585.2,11.1h5.5v3.4h-5.5v2.7h4.9v3.2h-4.9v4.1l5.3-0.4c-0.1,1-0.2,2.6-0.1,3.4c-11.7,1.1-13.5,1.3-14.7,1.9
		c-0.2-0.9-0.7-2.3-1.1-3c0.6-0.2,1.2-0.7,1.2-1.9v-8.4h3.3V25l2.5-0.2V14.5h-7.4v-3.4h7.4V7.7H579c-0.7,1.3-1.5,2.5-2.2,3.4
		c-0.6-0.6-2.1-1.6-2.9-2.1c1.8-2,3.3-5,4.1-8l3.5,0.8c-0.3,0.9-0.5,1.7-0.9,2.6h9.5v3.3h-4.9V11.1z M602.4,21.9
		c0,1.7-0.3,2.8-1.4,3.5c-1,0.7-2.5,0.8-4.4,0.8c-0.1-1.1-0.7-2.9-1.2-3.9c1.2,0.1,2.3,0,2.8,0c0.4,0,0.5-0.1,0.5-0.5V6.5h-3.4V31
		h-3.7V3h10.8V21.9z"/>
	<path class="st1" d="M618.5,3.6c-0.8,2.7-1.8,6-2.7,8.4c1.8,2.5,2.2,4.7,2.2,6.6c0,2.1-0.4,3.5-1.4,4.2c-0.5,0.4-1.1,0.6-1.8,0.7
		c-0.6,0.1-1.3,0.1-2,0.1c0-1-0.3-2.3-0.8-3.3c0.5,0.1,1,0.1,1.3,0c0.3,0,0.6-0.1,0.8-0.3c0.4-0.3,0.5-1,0.5-1.9
		c0-1.5-0.4-3.6-2-5.8c0.6-2,1.2-4.6,1.7-6.7h-2.5v25.1h-3.3V2.3h7l0.5-0.1L618.5,3.6z M624.2,22.1c-1.2,2.6-3,5.3-4.6,7.1
		c-0.6-0.6-2-1.6-2.8-2.1c1.6-1.5,3.2-3.8,4.1-5.9L624.2,22.1z M629.8,20.1V27c0,1.7-0.3,2.7-1.5,3.3c-1.1,0.5-2.7,0.6-4.8,0.6
		c-0.2-1-0.7-2.5-1.2-3.5c1.4,0.1,2.8,0.1,3.3,0c0.4,0,0.6-0.1,0.6-0.5v-6.8h-7.6v-3.5h7.6V14H621v-2.2c-0.4,0.3-0.9,0.6-1.3,0.8
		c-0.5-0.9-1.6-2.1-2.5-2.8c3.9-1.9,7.8-5.3,9.9-9.2l3.2,1.2c-0.2,0.4-0.5,0.9-0.8,1.3c3,3.3,6,5.1,8.4,6.2c-0.9,0.8-2,2-2.5,3.1
		c-0.5-0.3-1-0.6-1.5-1V14h-4.1v2.6h7.2v3.5H629.8z M632.8,10.8c-1.6-1.2-3.4-2.8-5.2-4.9c-1.5,1.9-3.3,3.5-5.1,4.9H632.8z
		 M633.5,20.9c1.7,1.9,3.5,4.5,4.3,6.2l-3,1.7c-0.8-1.8-2.6-4.5-4.1-6.5L633.5,20.9z"/>
	<path class="st1" d="M643,25.5c0-1.8,1.2-3.1,2.9-3.1c1.7,0,2.9,1.3,2.9,3.1c0,1.7-1.3,3.1-2.9,3.1C644.3,28.6,643,27.3,643,25.5z
		 M643.7,8.3l-0.2-4.4h4.7l-0.2,4.4l-0.7,11.8h-3.1L643.7,8.3z"/>
</g>
</svg>
