<svg xmlns="http://www.w3.org/2000/svg" viewBox="0 0 37.83 37.64"><defs><style>.cls-1{fill:#fff;}.cls-2{fill:#1147b4;}.cls-3{fill:none;}</style></defs><g id="レイヤー_2" data-name="レイヤー 2"><g id="トンボ"><rect class="cls-1" x="1.76" y="1.03" width="34.77" height="35.46" rx="2.77"/><path class="cls-2" d="M8.46,23.21c-.8-.32-.52-1.15-.47-1.77.09-1.05-.78-1.57-1.16-2.35-.13-.28-.42-.36-.65.06a31,31,0,0,1-3.47,4.44c-.57.72-.69,1.7.48,2,2.93.69,4.11,2.93,2.76,5.69-.2.41.11,1.11-.71,1.31-.44.11-1.2.29-1,1.14,0,.23,0,.49.34.55.75.14,1.62.38,2.14-.22a7.34,7.34,0,0,0,1.69-2.45c.69-2,2.7-1.11,4.14-1.37A13.23,13.23,0,0,0,15,29.84c1.74-.65,2.27,1.15,3.18,1.95s-.44,1-.8,1.5-1.21.58-.8,1.33,1,.19,1.44.07c2.36-.57,3.19-2.63,2-5.19a4.33,4.33,0,0,1,.44-4.67c.25-.34.31-.17.62-.13a5.93,5.93,0,0,0,3.43-.18c.72-.33,1.65-.4,2,.69a1,1,0,0,0,1.38.65c2.29-.82,4.64-1.54,6.85-2.54,1.83-.83,1.09-2.38.26-3.41a8.08,8.08,0,0,1-1.54-4.44A111.85,111.85,0,0,0,31.9,4.37,6.06,6.06,0,0,1,32,1.52l-.74,0a1.54,1.54,0,0,1-.05.17c-1,2.73.38,5,.68,7.64A45.63,45.63,0,0,0,32.61,14c.27.36.12.39-.66.31-.93-.09-2.19,1.07-2.61,0C28.19,9.89,26.86,5.56,26.57,1L25.72.94,25.58,1c0,.69-.57,1.61-.37,1.86,0,3.8.12,7,0,10.24-.1,1.94,1.17,3.57.88,5.57-.17,1.12-.33,1.83-1.46,2.2a11.22,11.22,0,0,0-2.24,1.07c-1,.58-1.34.87-2-.69-.89-1.07-.85-1.1-2.11-1.17a.51.51,0,0,0-.56.4.76.76,0,0,0,.44.51,1.92,1.92,0,0,1,1.18,2.43c-.35,1.67-2,1.81-3,1.66s-1.84.27-2.76.26c-1.36,0-3,.27-3.81-.93-.94-1.36.65-2.5,1.14-3.69,1.48-3.57,3.18-7,4.82-10.53C17,7.29,18.56,4.49,19.71,1.52a2.87,2.87,0,0,1,.35-.68l-1-.21a1.44,1.44,0,0,1-.15.71Q14.2,11.56,9.45,21.75C9.19,22.3,8.58,23.25,8.46,23.21ZM30.63,15.4a2.63,2.63,0,0,1,1.63-.28c.55.1.53.72.59,1.24.1.88.32,1.75.52,2.75-.23.29-.48.79-1.09.88s-.64-.37-.74-.85c-.18-.88-.53-1.71-.73-2.58C30.72,16.18,30,15.78,30.63,15.4Zm-1,1.2A6,6,0,0,1,30.84,20c.06.38,0,.77-.54.77s-.7-.18-.7-.66C29.61,19.06,29.61,18,29.61,16.6Zm3.69,3.52c.73-.2.89.2,1,.47.24.64.93,1.71.4,1.95-2.16,1-4.47,1.76-6.78,2.62a1.75,1.75,0,0,1-.49-.41c-.21-.3,0-.55.23-.73C29.57,22.78,30.93,20.79,33.3,20.12Zm-4.41-3.05c-.34.67.13,2.85-.83,2.76s-1-.31-1-.73c-.08-1,0-2.07,0-3.1,0-.57.23-.77.37-.75C29,15.36,29.33,16.2,28.89,17.07ZM26.66,7.43c.55,0,.7,4.37,1.57,6.08a1.61,1.61,0,0,1,.09,1.07,2.9,2.9,0,0,1-1.54-.09c-.44-.07-.55-.23-.55-.67,0-.92,0-1.84,0-2.77s0-1.93,0-2.89C26.25,7.85,26.12,7.41,26.66,7.43Zm-5,15.74c2.09-1.2,3.74-1.9,5.31-2.68.22-.27,2,.24,2.2.56s-.15.56-.34.79C27,24.07,24.39,24,21.89,24.13a1,1,0,0,1-.83-.42C20.79,23.16,21.45,23.29,21.65,23.17ZM6.42,26.8c-.27-.08-.51-.27-.37-.53a6.78,6.78,0,0,1,2.52-2.08c.07-.05.46.35.63.49C9.2,25.23,6.83,26.92,6.42,26.8Z"/><path class="cls-3" d="M36.12,33.58a2.56,2.56,0,0,1-1,2,1.33,1.33,0,0,0,.3-.23,3.13,3.13,0,0,0,.84-2.53l-.12-12.72Z"/><path class="cls-2" d="M37.75,19.81c0-2.58-.08-5.16-.12-7.74s-.17-5.25-.11-7.87C37.58,1.74,36.43.3,34,.06c-1.92-.18-3.84.09-5.75.1L4.47.24C1.52.26,0,1.67,0,4.48,0,9.35.31,28.59.22,33.34c-.06,3,1.93,4.37,4.51,4.3,5.68-.16,11.36,0,17-.17,3.8-.14,7.6-.08,11.4-.11,3.38,0,4.74-1.73,4.66-4.66C37.71,28.4,37.78,24.11,37.75,19.81ZM35.4,35.39a1.33,1.33,0,0,1-.3.23,2.53,2.53,0,0,1-1.57.54H15.61a1.68,1.68,0,0,1-.67,0c-3.48,0-7,0-10.44,0-1.89,0-2.79-.85-2.8-2.76q-.06-12-.07-24.06c0-1.71,0-3.43,0-5.15S2.34,1.76,4.08,1.7s3.6-.07,5.4-.07c4.87,0,9.75,0,14.62-.09,3-.08,6-.09,9-.15C35.33,1.35,36,2,36,4.18l0,2.4a2.67,2.67,0,0,1,.12.75V20.14l.12,12.72A3.13,3.13,0,0,1,35.4,35.39Z"/><path class="cls-2" d="M36.12,7.33A2.67,2.67,0,0,0,36,6.58l.12,13.56Z"/></g></g></svg>