<svg xmlns="http://www.w3.org/2000/svg" viewBox="0 0 37.71 37.42"><defs><style>.cls-1{fill:#fff;}.cls-2{fill:#1147b4;}</style></defs><g id="レイヤー_2" data-name="レイヤー 2"><g id="トンボ"><rect class="cls-1" x="1.19" y="1.2" width="35.36" height="35.46" rx="2.79"/><path class="cls-2" d="M18.74,37.42H4.11c-2.51,0-4-1.39-4-3.86C.06,26,.06,18.53,0,11c0-2.28,0-4.56,0-6.83A3.78,3.78,0,0,1,3.71.2a42.61,42.61,0,0,1,4.66,0c4.47,0,8.94-.11,13.42-.08,3.66,0,7.34,0,11-.09,2.53,0,4.91,1.09,4.87,4.67-.1,7.77,0,15.56,0,23.33,0,1.91,0,3.82,0,5.73A3.44,3.44,0,0,1,34,37.41C28.89,37.43,23.81,37.42,18.74,37.42Zm-11-1.49a5,5,0,0,0,.55.06H33.94a1.9,1.9,0,0,0,2.15-2.14c0-4,.1-8,0-11.92-.13-6-.07-12-.11-18,0-1.74-1-2.58-2.84-2.36a9.32,9.32,0,0,1,.48,1.81c.1,1.26,1.23,2.58-.15,3.79a.34.34,0,0,0-.07.32c.63,1.32-.79.9-1.18,1.21-.61.5-.43-.42-.64-.7a2.71,2.71,0,0,0-.53-.48,3.85,3.85,0,0,1-1.29-2.24c-.22-1-.48-1.93-.64-2.89s-.5-1-1.24-1q-11.5,0-23,0c-2.49,0-3.39.94-3.36,3.4q.06,5.75.1,11.49c0,5.79.08,11.59.09,17.38a2.75,2.75,0,0,0,.61,1.64,1,1,0,0,0,.86.53c.47,0,.36-.54.49-.85.9-2.1.58-4.75,3-6.21.65-.4,1.2-.16,1.79-.27.2,0,.47.07.44.3-.2,1.48.32,3-.29,4.46C8.2,34.14,8,35,7.71,35.93Z"/><path class="cls-2" d="M21.18,31.49c-.23.89-1.14.72-1.55,1.2-.18.2-.8.09-.53.58s.63.37,1,.07,1.09-.79,1.66-1.16c.1-.06.29,0,.51,0-.45.84-1.42,1-1.92,1.66.59.4.59.4,1.48-.29a5,5,0,0,1,1.72-1.08c-.27,1-1.42,1-1.68,1.92a1.11,1.11,0,0,0,1.49-.51c.34-.51.72-1.32,1.76-.93L23.7,34.22c.55.49.95.08,1.32-.12a10.19,10.19,0,0,0,3.18-2.84A11.9,11.9,0,0,1,32,28.13c2.47-1.35,3-2.86,1.56-5.27-1.12-1.87-.93-3.81-.61-5.79.05-.32.18-.66.61-.55s.38.41.35.76c-.09.87-.13,1.75-.2,2.62-.09,1.34.65,2.43,1.12,3.59.89,2.13.65,3.58-1.34,4.63-2.43,1.28-4.17,3.25-6,5.16a6.69,6.69,0,0,1-9.66-.12c-1-1-.71-2.1.64-2.39a6.74,6.74,0,0,0,4-3.08,10.1,10.1,0,0,1,1.67-1.84c2.52-2.08,3.19-4.91,3.34-8,0-.23,0-.47,0-.71s0-.68.46-.66.47.27.47.65c0,3.36-.5,6.53-3.26,8.88-1.49,1.26-2.36,3.09-3.93,4.3a8.12,8.12,0,0,1-2.45,1.17c-.41.13-.81.29-.6.81.27.72.62.11.93,0C19.83,32.1,20.34,31.53,21.18,31.49Z"/><path class="cls-2" d="M2.91,16.27a46.75,46.75,0,0,1,.15-5,4,4,0,0,1,2.8-3.37A33.57,33.57,0,0,0,9.14,6.49a2.07,2.07,0,0,0,1.25-1.84c0-.39-.14-1.17.59-1.06s.32.8.28,1.21a2.57,2.57,0,0,1-1.7,2.37C8.5,7.6,7.45,8.08,6.38,8.5A3.62,3.62,0,0,0,3.84,12c0,2.88,0,5.75,0,8.62,0,.16,0,.32,0,.48,0,.38.11.91-.5.89s-.4-.51-.4-.85C2.91,19.66,2.91,18.14,2.91,16.27Z"/><path class="cls-2" d="M23.51,16.9a47.93,47.93,0,0,0-.24-5.62,3.39,3.39,0,0,0-2.21-2.71c-1.09-.49-2.2-.93-3.29-1.43a3,3,0,0,1-1.91-3c0-.24,0-.5.28-.59s.59.05.57.28c-.19,2.72,2.07,3.1,3.8,3.65,3,1,3.89,3.12,3.93,5.94q0,3.7.06,7.43c0,.39.06.92-.5.91s-.5-.48-.5-.9C23.52,19.53,23.51,18.21,23.51,16.9Z"/><path class="cls-2" d="M20.42,18.24c-.93.91-.68,1.87-.73,2.76,0,.39.08.91-.52.85s-.4-.53-.36-.88c.28-2.5.57-5,.85-7.49,0-.32.05-.69.5-.66s.52.41.55.79c.14,2,.29,3.9.43,5.85a4.73,4.73,0,0,0,.2,1.54.59.59,0,0,1-.37.87c-.53.12-.54-.34-.54-.7C20.42,20.26,20.42,19.36,20.42,18.24Z"/><path class="cls-2" d="M7.53,18.16C6.78,19.06,7,20,6.91,21c-.06.42.06,1-.56,1s-.32-.64-.29-1q.3-3.57.63-7.14c0-.34-.19-.9.48-.88s.43.47.48.81c.38,2.44.38,4.93.95,7.34.08.35,0,.86-.36.89s-.57-.43-.58-.87C7.63,20.1,7.57,19.13,7.53,18.16Z"/><path class="cls-2" d="M28.4,11.94c.28,0,.59.06.59.43s-.21.55-.52.5-.67-.16-.67-.54S28.12,12,28.4,11.94Z"/><path class="cls-2" d="M27,10.48c-.28-.06-.56-.16-.6-.48s.25-.44.54-.44.58,0,.59.41S27.34,10.43,27,10.48Z"/><path class="cls-2" d="M23.83,7.22c.54-.06.74.12.75.44a.46.46,0,0,1-.48.54c-.28,0-.57-.1-.58-.46A.5.5,0,0,1,23.83,7.22Z"/><path class="cls-2" d="M29.65,11.49c-.31,0-.59,0-.6-.41s.31-.47.57-.49a.53.53,0,0,1,.6.45C30.24,11.41,29.89,11.42,29.65,11.49Z"/><path class="cls-2" d="M28.32,7.46a.4.4,0,0,1-.47.42c-.31,0-.68-.09-.68-.47s.34-.42.61-.43A.51.51,0,0,1,28.32,7.46Z"/><path class="cls-2" d="M15.76,26.89a.58.58,0,0,1-.65.4.45.45,0,0,1-.48-.55c0-.28.27-.37.53-.34A.63.63,0,0,1,15.76,26.89Z"/><path class="cls-2" d="M13.92,30c0,.27-.07.58-.43.57A.53.53,0,0,1,13,30a.41.41,0,0,1,.4-.48C13.67,29.48,13.92,29.56,13.92,30Z"/><path class="cls-2" d="M15.79,30.16c-.15.34-.35.53-.65.48s-.54-.22-.47-.55a.44.44,0,0,1,.53-.35A.74.74,0,0,1,15.79,30.16Z"/><path class="cls-2" d="M25.34,10.38c.25.08.56.1.55.47s-.19.41-.46.4-.64-.15-.62-.53S25.09,10.38,25.34,10.38Z"/><path class="cls-2" d="M13.09,32.23c.27,0,.47.14.45.44s-.25.47-.56.47a.41.41,0,0,1-.45-.43C12.52,32.32,12.84,32.32,13.09,32.23Z"/><path class="cls-2" d="M26.4,7.52a.58.58,0,0,1-.57.5c-.26,0-.48-.09-.46-.39s.15-.54.51-.49S26.36,7.21,26.4,7.52Z"/><path class="cls-2" d="M12.06,31.94c-.1.37-.37.43-.66.43s-.4-.23-.37-.49.31-.45.61-.41A.49.49,0,0,1,12.06,31.94Z"/><path class="cls-2" d="M29.5,7a.52.52,0,0,1,.59.35c.08.38-.29.44-.54.46s-.5,0-.49-.37A.47.47,0,0,1,29.5,7Z"/><path class="cls-2" d="M16.33,34.82c-.32-.07-.58-.17-.53-.53s.12-.45.42-.46a.48.48,0,0,1,.56.46C16.83,34.64,16.57,34.75,16.33,34.82Z"/><path class="cls-2" d="M13.45,26.89a.49.49,0,0,1,.49.52c0,.3-.19.42-.45.42a.45.45,0,0,1-.51-.5C13,27.05,13.16,26.91,13.45,26.89Z"/><path class="cls-2" d="M28.5,8.83c.44,0,.66.1.74.41a.32.32,0,0,1-.38.44c-.29,0-.69,0-.72-.45S28.39,8.88,28.5,8.83Z"/><path class="cls-2" d="M31.44,9.67c0,.31-.22.38-.44.43s-.58.05-.68-.27.14-.48.46-.5S31.32,9.34,31.44,9.67Z"/><path class="cls-2" d="M10.05,27.93c.26.08.56.09.55.39s-.24.47-.56.45-.43-.14-.42-.43S9.87,28,10.05,27.93Z"/><path class="cls-2" d="M12.23,29.81a.45.45,0,0,1-.48.48c-.29,0-.57-.1-.54-.48s.29-.35.53-.35S12.21,29.55,12.23,29.81Z"/><path class="cls-2" d="M30.29,8.12c.3,0,.59.08.58.44s-.31.32-.54.33a.43.43,0,0,1-.52-.37C29.79,8.21,30,8.14,30.29,8.12Z"/><path class="cls-2" d="M10.38,29.66c0,.32-.17.49-.42.51a.42.42,0,0,1-.51-.49.43.43,0,0,1,.47-.41A.44.44,0,0,1,10.38,29.66Z"/><path class="cls-2" d="M27.64,13.7c0,.34-.2.42-.46.44s-.59,0-.56-.4c0-.23,0-.53.38-.43S27.6,13.33,27.64,13.7Z"/><path class="cls-2" d="M17.34,26.31c0,.27-.15.44-.43.41s-.54-.17-.49-.51.28-.34.52-.35S17.35,26,17.34,26.31Z"/><path class="cls-2" d="M17.53,30.38c0,.32-.28.34-.52.36s-.49-.08-.51-.37.26-.43.56-.42A.44.44,0,0,1,17.53,30.38Z"/><path class="cls-2" d="M15.16,33.52a.49.49,0,0,1-.61.38c-.23,0-.46-.14-.42-.45s.32-.41.6-.38S15.18,33.21,15.16,33.52Z"/><path class="cls-2" d="M11.87,28.36a.55.55,0,0,1-.56-.47.43.43,0,0,1,.39-.5c.32-.05.5.18.56.47S12.11,28.27,11.87,28.36Z"/><path class="cls-2" d="M10.37,31.07a.39.39,0,0,1-.42.43c-.29,0-.39-.2-.38-.46s.15-.34.36-.36S10.37,30.78,10.37,31.07Z"/></g></g></svg>