<svg id="catch-about_sp.svg" xmlns="http://www.w3.org/2000/svg" width="557.406" height="148.56" viewBox="0 0 557.406 148.56">
  <defs>
    <style>
      .cls-1 {
        fill: #fff;
        fill-rule: evenodd;
      }
    </style>
  </defs>
  <path id="サンカット_プロディフェンス_" data-name="サンカット® プロディフェンス " class="cls-1" d="M48.7,1374.64c2.208,0.38,3.359.72,3.5,1.87a71.858,71.858,0,0,1,.24,8.64c-2.927.29-6.526,0.67-9.358,0.96,0-1.63.048-3.31,0.1-4.17,0.144-1.68.816-1.73,0.816-2.79,0-1.68-3.359-3.21-5.135-3.21a8.8,8.8,0,0,0-3.311.91l0.048,0.81c2.16,0.48,3.215.87,3.455,1.97a57.776,57.776,0,0,1,.336,6.91c-2.879.29-7.2,0.77-8.926,0.77-1.3,0-2.111-1.1-3.263-2.54l-0.72.24a8.486,8.486,0,0,0,.336,3.07c0.48,1.05,2.4,3.6,3.983,3.6,1.008,0,2.111-.72,3.359-1.11a42.761,42.761,0,0,1,5.231-1.05c-0.1,4.65-.864,6.09-0.864,7.48,0,1.68,1.1,4.23,2.639,4.23,1.344,0,1.92-.87,1.92-2.79,0-1.87-.048-5.52,0-9.4,2.687-.34,6.142-0.67,9.358-0.87-0.048,5.57-.672,11.19-2.783,14.59-2.687,4.42-6.91,7.15-10.749,9.12l0.528,0.91c6.191-1.87,10.989-4.94,13.725-8.88,2.831-3.93,3.215-9.64,3.407-15.98,0.672-.04,1.344-0.04,1.968-0.04,4.319,0,6.526.62,8.014,0.62,1.1,0,1.728-.29,1.728-1.54,0-1.92-2.975-3.07-5.423-3.07-1.008,0-1.536.39-6.287,0.87,0.048-1.68.1-3.6,0.144-5.28,0.144-2.4,1.1-2.16,1.1-3.27,0-1.39-3.167-3.5-5.615-3.5a8.759,8.759,0,0,0-3.5,1.06v0.86Zm28.277,3.17a32.092,32.092,0,0,1,8.158,7.87c1.248,1.63,2.064,2.35,3.311,2.35a2.471,2.471,0,0,0,2.5-2.59c0-4.46-7.342-7.44-13.437-8.54Zm5.039,26.3c-1.68,0-3.311-1.68-4.559-3.03l-0.72.43a10.3,10.3,0,0,0,1.008,3.84c1.008,1.73,4.127,4.32,6.526,4.32,1.248,0,1.824-1.39,3.119-2.2,10.845-6.77,19.675-14.88,25.242-25.29l-0.96-.63C104.81,1391.2,86.526,1404.11,82.015,1404.11ZM138.653,1384c0.432-1.78.768-3.36,1.008-4.42,0.479-1.92,1.727-1.92,1.727-3.26,0-1.39-3.839-3.6-6.19-3.65a13.578,13.578,0,0,0-3.791,1.01l0.048,0.87a12.543,12.543,0,0,1,2.927,1.05c0.72,0.34.864,0.77,0.816,1.73a43.567,43.567,0,0,1-1.2,7.24c-5.087.58-9.934,1.11-11.277,1.11-1.536,0-2.352-1.44-3.216-2.83l-0.815.19a6.74,6.74,0,0,0,.192,3.41c0.527,1.44,2.687,3.98,4.127,3.98,1.055,0,1.727-.72,3.167-1.1,1.344-.39,4.415-1.01,6.91-1.44-2.207,7.15-6.19,15.88-17.036,23.89l0.72,0.87c14.925-7.01,19.291-19.49,21.019-25.53a73.846,73.846,0,0,1,8.686-.91,0.493,0.493,0,0,1,.528.57c0,3.07-1.824,13.73-4.655,17.42-0.672.82-1.152,0.91-2.4,0.67a40.063,40.063,0,0,1-5.951-2.01l-0.432.81c2.879,2.4,4.175,3.36,4.607,5.09,0.384,1.34.816,1.87,2.015,1.87,2.3,0,4.943-2.01,6.191-4.56,2.735-5.28,4.079-12.09,4.847-17.37,0.24-1.63,1.727-1.58,1.727-2.73,0-1.35-3.551-4.23-4.846-4.23-0.96,0-1.488,1.3-2.832,1.44Zm32.979,6.19c1.2,2.59,1.055,4.65,2.927,4.65a2.049,2.049,0,0,0,2.159-2.11c0-2.2-1.295-3.93-3.263-5.23a16.2,16.2,0,0,0-3.839-2.06l-0.48.53A18.225,18.225,0,0,1,171.632,1390.19Zm15.932,2.21c0.528-1.11,1.583-1.78,1.583-2.69,0-1.58-2.783-4.13-4.99-4.27a13.024,13.024,0,0,0-2.5.19l-0.144.62c1.584,0.77,2.448,1.49,2.448,2.31,0,4.41-8.4,17.27-20.539,23.42l0.48,0.76A38.846,38.846,0,0,0,187.564,1392.4Zm-24.234.57c1.247,2.64,1.343,4.8,3.167,4.8a2,2,0,0,0,2.111-2.16c0-2.01-1.391-3.98-3.791-5.52a15.268,15.268,0,0,0-3.551-2.01l-0.528.53A20.142,20.142,0,0,1,163.33,1392.97Zm31.967-18.09c2.208,0.34,3.5.77,3.743,2.35a117.043,117.043,0,0,1,.432,11.86c0,3.21-.048,10.27-0.432,13.82-0.192,2.01-.624,3.02-0.624,4.17,0,2.74,1.152,5.38,3.216,5.38,1.535,0,2.063-.82,2.063-2.79,0-.72-0.1-2.25-0.144-4.6-0.1-4.56-.144-11.52-0.048-15.74a30.2,30.2,0,0,1,6.719,3.83c3.359,2.88,3.743,5.09,6.142,5.09a2.228,2.228,0,0,0,2.256-2.4c0-2.06-1.3-3.41-3.168-4.51a34.7,34.7,0,0,0-11.949-3.79c0.1-2.78.192-5.76,0.432-7.77,0.24-1.68,1.2-2.07,1.2-3.27,0-1.39-3.839-3.5-6.095-3.5a12.08,12.08,0,0,0-3.791,1.01Zm33.113,28.34h0.419a1.09,1.09,0,0,1,1.259,1.18,1.141,1.141,0,0,1-1.231,1.28H228.41v-2.46Zm2.88,3.92a1.626,1.626,0,0,0-1.594-1.23c1.287-.26,1.734-0.93,1.734-1.6,0-.95-0.811-1.56-2.293-1.56h-2.881v0.42l0.839,0.11v5.14l-0.839.09v0.42h2.993v-0.42l-0.839-.09v-2.32h0.447a0.883,0.883,0,0,1,.979.87l0.28,1.29a1,1,0,0,0,1.258.78,3.789,3.789,0,0,0,.923-0.11v-0.42l-0.727-.09Zm-2.265,4.14a5.291,5.291,0,1,1,5.2-5.32A5.118,5.118,0,0,1,229.025,1411.28Zm0-11.44a6.15,6.15,0,1,0,6.209,6.12A5.983,5.983,0,0,0,229.025,1399.84Zm67.508-19.39a5.21,5.21,0,1,0-5.231-5.23A5.176,5.176,0,0,0,296.533,1380.45Zm0-8.59a3.38,3.38,0,1,1-3.407,3.36A3.381,3.381,0,0,1,296.533,1371.86Zm-34.84,6.48-0.815.33a11.372,11.372,0,0,0,.384,3.07c0.479,1.54,2.927,4.32,4.8,4.32,1.008,0,2.16-.91,3.36-1.2,2.735-.67,14.588-2.78,17.323-2.78,0.432,0,.672.14,0.528,0.67-2.639,10.85-11.853,21.98-25.242,28.84l0.624,1.01c14.973-5.18,23.706-14.2,29.129-26.01,0.72-1.58,2.352-2.06,2.352-3.45,0-1.54-4.415-5.28-6.287-5.28-1.1,0-1.3.76-2.927,1.1-2.448.53-15.932,1.97-19.292,1.97C263.9,1380.93,262.749,1379.63,261.693,1378.34Zm52.991,22.93c-0.144-4.31-.384-13-0.528-16.5a5.288,5.288,0,0,0,2.207.76c0.912,0,2.4-.48,3.935-0.67,2.592-.33,9.118-0.86,11.853-0.86a0.587,0.587,0,0,1,.672.67,138.2,138.2,0,0,1-1.967,15.4C326.3,1400.31,319.338,1400.89,314.684,1401.27Zm-8.494-20.68c1.679,1.49,2.447,2.45,2.831,4.18a96,96,0,0,1,1.392,14.2c0.048,1.87-.144,4.18-0.144,5.33,0,2.06,1.247,3.84,2.591,3.84,1.44,0,1.92-.96,1.92-2.31v-1.39c5.422-.33,11.421-0.67,15.116-0.67,2.5,0,5.039.34,6.43,0.34a1.682,1.682,0,0,0,1.872-1.83c0-1.2-1.44-2.06-3.071-2.3,0.959-4.56,1.967-9.74,2.543-12.19,0.336-1.54,2.064-2.02,2.064-3.31,0-1.63-4.319-5.09-5.855-5.09-1.152,0-1.488,1.39-3.407,1.63-1.968.24-11.853,1.2-16.652,1.54a0.685,0.685,0,0,0-.288-0.34c-2.16-1.87-4.319-2.2-6.862-2.35Zm52.031-4.41c1.631,3.02,3.119,4.6,5.854,4.6a92.128,92.128,0,0,0,15.213-2.01c1.535-.29,2.063-0.87,2.063-1.73,0-1.54-1.871-2.45-4.559-2.45-0.815,0-1.487.67-4.079,1.35a40.579,40.579,0,0,1-8.925,1.29,8.406,8.406,0,0,1-4.991-1.58Zm-7.054,10.03a7.268,7.268,0,0,0,.287,2.83c0.528,1.53,2.832,3.64,4.271,3.6a17.361,17.361,0,0,0,4.319-1.2,84.142,84.142,0,0,1,8.974-1.68,2.981,2.981,0,0,1,.576,1.77c0,3.27-3.263,13.97-14.2,21.31l0.815,0.91c11.134-5.33,15.165-12.91,17.276-18.19,0.816-1.96,2.064-2.35,2.064-3.45,0-.91-1.152-1.87-2.688-2.78,3.743-.34,7.151-0.48,9.31-0.48,2.591,0,4.751.43,5.711,0.43a1.442,1.442,0,0,0,1.727-1.68c0-1.68-3.023-3.03-5.566-3.03a38.358,38.358,0,0,1-4.8.92c-7.486.72-20.779,2.73-24.042,2.73-1.344,0-2.256-1.05-3.36-2.3Zm31.192-10.23a22.707,22.707,0,0,1,4.175,4.47c0.816,1.15,1.248,1.97,2.016,1.97a1.463,1.463,0,0,0,1.487-1.44,3.708,3.708,0,0,0-1.487-2.79,16.645,16.645,0,0,0-5.615-2.88Zm3.695-3.88a19.411,19.411,0,0,1,4.079,4.17c0.912,1.15,1.344,1.97,2.208,2.02a1.351,1.351,0,0,0,1.391-1.54,3.6,3.6,0,0,0-1.775-2.88,16.542,16.542,0,0,0-5.423-2.44Zm21.365,11.04c0.96,0.43,2.063,1.24,2.063,1.96,0,2.5-9.6,13.01-18.955,18.38l0.48,0.72a48.8,48.8,0,0,0,14.444-8.25,3.688,3.688,0,0,1,.24,1.34,73.229,73.229,0,0,1-.432,9.41c-0.1,1.2-.383,2.01-0.383,2.68,0,1.78.863,3.65,2.687,3.65,1.3,0,1.919-.96,1.919-2.45,0-1.92-.287-7.15-0.1-12.14,0.048-1,.384-1.68.384-2.25,0-.67-0.911-1.39-2.063-2.21,2.159-2.06,3.983-3.98,5.279-5.33,1.007-1,1.823-1,1.823-2.06,0-1.25-2.159-3.26-4.079-3.84a8.922,8.922,0,0,0-3.119-.24Zm18.053-5.86-0.768.29a11.573,11.573,0,0,0,.336,3.07c0.48,1.54,2.975,4.32,4.8,4.32,1.007,0,2.207-1.01,3.359-1.35,2.735-.71,14.636-2.78,17.372-2.78,0.432,0,.672.15,0.528,0.67-2.64,10.85-11.854,22.08-25.242,28.99l0.624,1.01c14.972-5.19,23.658-14.21,29.128-26.01,0.72-1.54,2.592-2.45,2.592-3.84,0-1.54-4.223-5.04-6.095-5.04-1.151,0-1.727.91-3.407,1.29-2.447.53-15.884,1.92-19.243,1.92C427.679,1379.82,426.575,1378.53,425.472,1377.28Zm42.192,11.47a11.317,11.317,0,0,0,1.343,2.78c0.72,1.01,1.824,1.97,2.784,1.97a45.907,45.907,0,0,0,5.086-.77,6.9,6.9,0,0,1,.816,3.6c0,1.92-.1,4.94-0.24,7.3-4.319.43-8.446,0.81-10.029,0.81a4.792,4.792,0,0,1-3.5-1.68l-0.527.19a6.2,6.2,0,0,0,.431,2.45c0.432,1.11,2.544,3.22,3.936,3.22,1.055,0,2.255-.67,4.031-1.15a55.974,55.974,0,0,1,12.621-1.4c4.894,0.05,8.4,1.25,9.789,1.25a1.613,1.613,0,0,0,1.68-1.68c0-1.49-3.551-3.45-5.423-3.45a28.525,28.525,0,0,1-3.119.62c-1.632.1-3.887,0.29-6.287,0.48,0.192-2.35.48-4.75,0.72-6.24a18.909,18.909,0,0,0,.72-2.49c0-.87-1.008-1.64-2.351-2.26,4.079-.43,7.438-0.62,8.829-0.72a1.7,1.7,0,0,0,1.776-1.73c0-1.15-3.023-2.44-4.943-2.44-0.864,0-.912,1.05-5.758,1.87a55.186,55.186,0,0,1-7.919.81,6.486,6.486,0,0,1-3.983-1.63Zm38.161-10.94a32.1,32.1,0,0,1,8.158,7.87c1.247,1.63,2.063,2.35,3.311,2.35a2.47,2.47,0,0,0,2.5-2.59c0-4.46-7.342-7.44-13.436-8.54Zm5.039,26.3c-1.68,0-3.312-1.68-4.559-3.03l-0.72.43a10.3,10.3,0,0,0,1.008,3.84c1.007,1.73,4.127,4.32,6.526,4.32,1.248,0,1.824-1.39,3.119-2.2,10.846-6.77,19.675-14.88,25.242-25.29l-0.96-.63C533.658,1391.2,515.374,1404.11,510.864,1404.11Zm40.562-26.16a10.238,10.238,0,0,0,.479,3.27c0.576,1.53,2.688,4.03,4.511,4.03,1.3,0,1.68-1.06,3.216-1.54,2.5-.72,8.877-2.45,11.421-2.78,0.528-.05.816,0.09,0.576,0.77-4.127,9.59-15.741,21.45-27.066,27.3l0.624,1.01a54.938,54.938,0,0,0,22.219-14.49c4.415,2.78,6.814,5.99,9.405,9.59,2.016,2.64,3.024,4.13,4.655,4.13a2.394,2.394,0,0,0,2.4-2.49c0-4.8-7.438-9.7-15.261-12.53a85.224,85.224,0,0,0,7.583-10.37c0.575-.86,2.5-1.48,2.5-2.63,0-1.35-3.839-4.56-5.615-4.56-0.863,0-1.583,1.2-2.687,1.48-2.447.63-11.325,2.26-14.349,2.26-1.631,0-2.735-1.54-3.7-2.83Z" transform="translate(-26.469 -1265.19)"/>
  <path id="catch-about_sp" class="cls-1" d="M51.977,1282.49H35.117l0.288,0.92h16.54c-1.344,3.2-3.455,7.87-5.343,11.46a4.932,4.932,0,0,0,3.3.44c1.728-3.42,4.127-8.51,5.311-11.26a2.736,2.736,0,0,0,1.536-.54l-3.2-2.72Zm-3.967-5.47H38.892l0.256,0.92H52.105a0.762,0.762,0,0,0,.864-0.51c-1.184-1.09-3.2-2.75-3.2-2.75Zm-3.9-11.84c-1.6,5.05-7.966,12.28-13.437,15.87l0.256,0.41c6.238-2.97,12.829-8.73,15.964-13.95,2.111,5.35,6.782,9.76,11.869,12.7a3.517,3.517,0,0,1,2.527-2.59l0.064-.48c-5.439-2.2-10.973-5.56-13.885-10.04,0.9-.1,1.344-0.26,1.44-0.67Zm41.087,7.48a3.555,3.555,0,0,1,1.44,1.38,0.665,0.665,0,0,1-.352.93c-0.928.54-3.775,2.05-6.079,3.45a4.185,4.185,0,0,1-1.632-2.17,16.691,16.691,0,0,1-.608-4.39c-0.032-.8.224-1.34,0.192-1.95,0-.92-1.855-2.24-3.711-2.24a7.485,7.485,0,0,0-2.4.52l0.032,0.57a10.8,10.8,0,0,1,1.824.64,1.6,1.6,0,0,1,.96,1.34,30.987,30.987,0,0,0,1.408,6.6,5.165,5.165,0,0,0,1.888,2.39c-2.3,1.73-5.791,4.9-5.791,8.51s3.711,5.48,9.278,5.48a30.732,30.732,0,0,0,8.19-.84,1.813,1.813,0,0,0,1.344-1.44c0-1.31-1.376-1.66-2.975-1.66a39.616,39.616,0,0,1-7.71.93c-4.351,0-6.174-1.19-6.174-3.11,0-2.62,2.911-5.05,5.631-6.65a47.821,47.821,0,0,1,8.35-3.74c1.44-.51,2.112-0.83,2.112-1.54,0-.89-1.088-2.27-2.3-2.91a7.266,7.266,0,0,0-2.687-.51ZM129,1279.25a0.781,0.781,0,0,0,.9-0.51c-1.343-1.18-3.583-2.84-3.583-2.84l-1.983,2.43h-7.647v-5.83H126.7a0.844,0.844,0,0,0,.9-0.48c-1.344-1.18-3.487-2.78-3.487-2.78l-1.92,2.37h-5.5v-4.67a1.1,1.1,0,0,0,1.184-.9l-4.255-.45v6.02H103.182l0.256,0.89h10.173v5.83H100.654l0.256,0.92h10.654a33.564,33.564,0,0,1-11.39,13.41l0.32,0.45a31.457,31.457,0,0,0,13.117-10.88v13.08h0.608c1.152,0,2.463-.73,2.463-1.12v-14.94h0.064c2.24,6.24,6.047,10.82,10.91,13.44a3.564,3.564,0,0,1,2.655-2.69l0.064-.35a24.865,24.865,0,0,1-12.925-10.4H129Zm37.856,1.96a0.786,0.786,0,0,0,.9-0.48c-1.376-1.22-3.615-2.92-3.615-2.92l-1.983,2.5h-7.711v-8.48h11.166a0.761,0.761,0,0,0,.863-0.51c-1.343-1.18-3.519-2.81-3.519-2.81l-1.919,2.39h-6.591v-3.96a1.1,1.1,0,0,0,1.184-.9l-4.255-.45v5.31H139.79l0.256,0.93h11.325v8.48H138.35l0.256,0.9h10.846a32.272,32.272,0,0,1-11.518,12.12l0.32,0.45a31.673,31.673,0,0,0,13.117-9.76v11.29h0.608c1.152,0,2.463-.73,2.463-1.12v-12.7a22.367,22.367,0,0,0,11.038,11.71,3.357,3.357,0,0,1,2.527-2.65l0.064-.32c-4.927-1.44-10.237-4.77-13.053-9.02h11.837Zm-23.514-8.71a15.376,15.376,0,0,1,2.367,6.37c2.752,2.5,5.791-3.36-2.015-6.53Zm13.437,7.17a24.764,24.764,0,0,0,5.47-5.12,1.1,1.1,0,0,0,1.28-.54l-4.063-1.7a44.169,44.169,0,0,1-3.071,7.07Zm33.345-5.31a14.68,14.68,0,0,1-1.312,5.41c-1.12,2.56-4,7.23-5.95,7.23-1.312,0-2.528-2.34-2.528-5.12a10.1,10.1,0,0,1,3.039-7.07,12.106,12.106,0,0,1,5.823-3.3A5.382,5.382,0,0,1,190.123,1274.36Zm-0.384,18.62c10.589-.54,14.46-5.82,14.46-11.55,0-6.65-5.182-11.42-12.189-11.42a14.121,14.121,0,0,0-9.565,3.39,12.56,12.56,0,0,0-4.511,9.28c0,4.09,2.3,7.77,4.7,7.77,3.615,0,7.262-5.98,8.637-9.95a16.3,16.3,0,0,0,1.056-5.44,6.278,6.278,0,0,0-1.823-3.8c0.416-.04.831-0.07,1.215-0.07,5.247,0,9.214,3.71,9.214,9.5,0,5.67-3.359,9.95-11.325,11.62Zm29.217-27.03a9.33,9.33,0,0,1,2.368,4.47c2.815,2.02,5.439-3.51-2.08-4.67Zm-6.142,14.23,0.288,0.93h27.033a0.745,0.745,0,0,0,.832-0.51c-1.216-1.12-3.327-2.75-3.327-2.75l-1.824,2.33h-7.742v-3.8h9.406a0.78,0.78,0,0,0,.864-0.52c-1.216-1.08-3.167-2.56-3.167-2.56l-1.728,2.15h-5.375v-3.62h11.2a0.8,0.8,0,0,0,.9-0.51c-1.279-1.12-3.359-2.69-3.359-2.69l-1.791,2.27h-5.055a35.881,35.881,0,0,0,4.063-3.55,1.03,1.03,0,0,0,1.216-.54l-4.159-1.34a37.988,37.988,0,0,1-2.112,5.43H214.062l0.288,0.93h10.621v3.62h-9.118l0.256,0.93h8.862v3.8H212.814Zm27.865,6.18a0.8,0.8,0,0,0,.9-0.52c-1.28-1.11-3.423-2.75-3.423-2.75l-1.888,2.37h-8.8c0.16-.83.288-1.73,0.384-2.69a1.067,1.067,0,0,0,1.12-.86l-4.511-.35a28.151,28.151,0,0,1-.384,3.9H212.11l0.256,0.9h11.485c-1.055,3.58-3.9,6.17-12.093,8.44l0.224,0.55c11.133-1.89,14.173-4.8,15.292-8.99h0.384c2.048,5.24,5.855,7.55,11.9,8.86a3.35,3.35,0,0,1,2.3-2.85v-0.35c-6.015-.48-10.973-1.86-13.5-5.66h12.317Zm13.062-16.45c0.575,0.42.735,0.93,0.735,2.31,0,2.17-.7,9.08-0.7,13.82,0,5.79,2.495,7.99,6.91,7.99,6.206,0,10.973-4.03,13.181-9.18l-0.64-.41c-2.528,3.45-7.23,6.56-12.221,6.56-3.679,0-4.767-1.44-4.767-5.25a66.7,66.7,0,0,1,1.248-11.77c0.32-1.57,1.087-1.92,1.087-2.72,0-1.16-2.687-3.23-4.575-3.27a7.378,7.378,0,0,0-2.335.45v0.58A6.317,6.317,0,0,1,253.741,1269.91Zm35.071-.57c1.856,0.06,2.912.19,3.455,1.02,0.576,0.86,1.28,2.24,1.984,3.52a23.322,23.322,0,0,1-5.663,1.02c-2.367,0-3.487-.54-5.5-2.17l-0.512.41c1.567,2.95,2.687,4.23,6.334,4.16a25.694,25.694,0,0,0,6.687-1.18,56.462,56.462,0,0,0,4.543,6.01c0.287,0.29.192,0.36-.16,0.29a25.48,25.48,0,0,0-6.591-.93c-5.055,0-8.83,2.72-8.83,6.27,0,4.2,4.575,6.21,10.334,6.21,4.415,0,6.014-.73,6.014-1.82s-1.023-1.54-2.239-1.54c-1.184,0-2.432.35-4.735,0.35-4.7,0-7.166-1.56-7.166-3.77,0-2.5,2.463-4.38,5.918-4.38a14.543,14.543,0,0,1,7.71,2.3c0.992,0.61,1.536,1.18,2.4,1.18,0.96,0,1.5-1.56,1.472-2.59a2.408,2.408,0,0,0-1.024-1.76,33.377,33.377,0,0,1-5.535-6.52,21.153,21.153,0,0,0,5.759-3.04,1.283,1.283,0,0,0,.256-1.7,2.476,2.476,0,0,0-2.176-.45c-0.8.29-1.759,1.57-5.087,2.88a28.646,28.646,0,0,1-1.5-4.25c-0.192-.67-1.536-1.19-3.071-1.19a6.234,6.234,0,0,0-3.168,1.12Zm31.36,11.19c-0.8,1.6-2.5,5.06-3.263,6.21-0.288.45-.576,0.42-0.768-0.03a5.287,5.287,0,0,1-.384-2.34,18.114,18.114,0,0,1,2.24-7.8c0.768-1.63,1.215-2.27,1.215-3.07,0-1.6-1.6-3.24-2.463-3.84a6.272,6.272,0,0,0-2.111-1.03l-0.416.39a5.466,5.466,0,0,1,1.695,3.61,15.751,15.751,0,0,1-.768,4.03,31.644,31.644,0,0,0-1.439,8.29,13.448,13.448,0,0,0,1.919,7.49,2.572,2.572,0,0,0,1.888,1.31,1.236,1.236,0,0,0,1.312-1.44c0-.9-0.64-1.95-0.64-3.01a11.5,11.5,0,0,1,.448-2.4c0.32-1.18,1.6-4.32,2.239-6.05Zm3.167,3.01a9.236,9.236,0,0,0,.192,2.75c0.672,3.52,3.264,5.73,8.862,5.73,3.679,0,6.815-.42,6.815-2.11,0-.99-1.184-1.47-2.336-1.47a28.068,28.068,0,0,1-5.31.6c-3.968,0-5.567-.96-6.751-3.04a12.053,12.053,0,0,1-.864-2.55Zm1.152-8.92a20.419,20.419,0,0,1,5.567-.93c2.271,0,2.175.29,1.823,0.67-0.575.58-2.495,2.05-3.9,3.17l0.48,0.51a40.254,40.254,0,0,1,5.279-2.69,20.371,20.371,0,0,1,3.071-.61,1.019,1.019,0,0,0,1.056-1.08,1.671,1.671,0,0,0-1.12-1.48,9.579,9.579,0,0,0-4.511-.76,13.988,13.988,0,0,0-8,2.56Zm28.067,20.63a4.525,4.525,0,1,0-4.543-4.54A4.534,4.534,0,0,0,352.558,1295.25Zm0-7.9a3.375,3.375,0,0,1,0,6.75A3.375,3.375,0,1,1,352.558,1287.35ZM60.071,1325.61a0.8,0.8,0,0,0,.9-0.51c-1.376-1.25-3.711-2.98-3.711-2.98l-2.015,2.56H46.666c0.224-2.53.288-5.09,0.352-7.61a1.163,1.163,0,0,0,1.152-.93l-4.575-.45c0,3.04,0,6.05-.224,8.99H31.214l0.256,0.93H43.275c-0.768,7.07-3.327,13.63-12.125,19.19l0.384,0.51c5.471-2.49,8.958-5.47,11.229-8.73a13.893,13.893,0,0,1,3.135,6.37c3.3,2.72,6.43-4-2.879-6.75a24.253,24.253,0,0,0,3.551-10.59h0.064c0.9,6.46,3.3,14.68,11.421,19.7a3.205,3.205,0,0,1,2.911-2.81l0.064-.38c-9.054-4.16-12.637-10.53-13.789-16.51H60.071Zm32.9-7.17v3.23H84.906v-3.23h8.062Zm-8.062,7.33v-3.2h8.062v3.2H84.906Zm0,0.89h8.062v1.22H93.48a3.369,3.369,0,0,0,2.3-.7v-8.55a1.723,1.723,0,0,0,1.216-.57l-2.815-2.08-1.312,1.57H85.258l-3.071-1.25v12.09h0.48c1.408,0,2.24-.51,2.24-0.74v-0.99Zm-6.43-10.43-1.632,1.54H74.029l-3.231-1.28v28.86h0.48a2.691,2.691,0,0,0,2.335-.93V1318.7h3.423c-0.544,2.43-1.536,5.92-2.175,7.9a10.715,10.715,0,0,1,2.047,6.49,2.115,2.115,0,0,1-.672,1.92,1.354,1.354,0,0,1-.768.16h-1.6v0.45a2.068,2.068,0,0,1,1.344.64,5.563,5.563,0,0,1,.352,2.21c3.071-.1,4.159-1.7,4.127-4.61a9.278,9.278,0,0,0-4.063-7.36,57.5,57.5,0,0,0,4.415-7.04,1.8,1.8,0,0,0,1.44-.38ZM98.7,1330.5a0.762,0.762,0,0,0,.864-0.51c-1.152-1.12-3.039-2.66-3.039-2.66l-1.7,2.24H79.34l0.256,0.93h4.415a18.642,18.642,0,0,1-5.982,7.62l0.288,0.48a21.772,21.772,0,0,0,6.367-4.58h1.663a23.691,23.691,0,0,1-7.838,8.54l0.352,0.48a23.038,23.038,0,0,0,10.365-9.02h1.632a20.533,20.533,0,0,1-9.086,10.85l0.32,0.51c5.951-2.53,9.79-6.3,11.773-11.36H95.3c-0.416,4.51-1.248,7.26-2.079,7.94a1.745,1.745,0,0,1-1.12.28c-0.64,0-2.3-.12-3.263-0.19l-0.032.48a4.268,4.268,0,0,1,2.239.93,2.555,2.555,0,0,1,.48,1.85,5.466,5.466,0,0,0,3.455-.96c1.568-1.15,2.591-4.28,3.071-9.91a2.258,2.258,0,0,0,1.312-.51l-2.783-2.34-1.536,1.5H85.482a12.4,12.4,0,0,0,1.7-2.59H98.7Zm24.259-7.84a3.559,3.559,0,0,1,1.439,1.38,0.665,0.665,0,0,1-.352.93c-0.927.54-3.775,2.05-6.078,3.45a4.185,4.185,0,0,1-1.632-2.17,16.687,16.687,0,0,1-.608-4.39c-0.032-.8.224-1.34,0.192-1.95,0-.92-1.855-2.24-3.711-2.24a7.483,7.483,0,0,0-2.4.52l0.032,0.57a10.789,10.789,0,0,1,1.823.64,1.6,1.6,0,0,1,.96,1.34,30.742,30.742,0,0,0,1.408,6.59,5.146,5.146,0,0,0,1.887,2.4c-2.3,1.73-5.79,4.9-5.79,8.51s3.711,5.48,9.277,5.48a30.738,30.738,0,0,0,8.191-.84,1.813,1.813,0,0,0,1.343-1.44c0-1.31-1.375-1.66-2.975-1.66a39.616,39.616,0,0,1-7.71.93c-4.351,0-6.175-1.19-6.175-3.11,0-2.62,2.912-5.05,5.631-6.65a47.792,47.792,0,0,1,8.35-3.74c1.44-.51,2.111-0.83,2.111-1.54,0-.89-1.087-2.27-2.3-2.91a7.268,7.268,0,0,0-2.687-.51Zm24.418,3.3a51.951,51.951,0,0,0,3.487-6.21h0.224a1.469,1.469,0,0,0-.256,1.44,1.664,1.664,0,0,0,2.432.45,3.816,3.816,0,0,0,1.088-3.17H164.9c-0.256.93-.608,2.05-0.832,2.75l0.384,0.2a21.539,21.539,0,0,0,3.3-2.47,1.593,1.593,0,0,0,1.216-.35l-2.687-2.56-1.5,1.54H154.251a8.063,8.063,0,0,0-.32-1.35l-0.48-.03a3.916,3.916,0,0,1-1.6,2.88l-3.391-1.25a79.666,79.666,0,0,1-1.472,7.97Zm-8.094-7.84a21.777,21.777,0,0,1,1.152,7.14c1.983,2.17,4.447-2.53-.7-7.27ZM154.6,1334.6v-3.23h3.36v3.23H154.6Zm3.36-7.2v3.07H154.6v-3.07h3.36Zm6.174,0v3.07h-3.359v-3.07h3.359Zm-3.359,7.2v-3.23h3.359v3.23h-3.359Zm-12.093-6.15h2.559a0.941,0.941,0,0,0,.7-0.25v8.03c-1.12.45-2.239,0.86-3.263,1.28v-9.06Zm15.932,10.47h-3.839v-3.39h3.359v1.11h0.448a3.253,3.253,0,0,0,2.336-.67v-8.38a1.98,1.98,0,0,0,1.151-.57l-2.719-2.05-1.344,1.53h-3.231v-2.46h6.462a0.707,0.707,0,0,0,.8-0.51c-1.055-.99-2.815-2.31-2.815-2.31l-1.536,1.89h-2.911v-2.24a1.036,1.036,0,0,0,1.088-.86l-3.9-.39v3.49h-6.751l0.256,0.93h6.495v2.46h-3.008l-3.007-1.21v2.52c-1.056-.95-2.687-2.14-2.687-2.14l-1.472,1.86h-1.44v-10.5a0.956,0.956,0,0,0,.992-0.76l-3.615-.39v11.65H138.8l0.256,0.92h2.432c-0.032,5.64-.032,11.59-2.624,16.38l0.48,0.48c4.159-4.51,4.671-10.68,4.8-16.86h1.984v9.99c-0.8.28-1.44,0.51-1.888,0.64l1.6,3.23a1.231,1.231,0,0,0,.671-0.9c2.432-1.89,4.223-3.52,5.439-4.64v0.51h0.48c1.312,0,2.175-.51,2.175-0.73v-1.02h3.36v3.39h-7.678l0.255,0.92h7.423v5.51h0.512c1.055,0,2.3-.68,2.3-1v-4.51H168.3a0.724,0.724,0,0,0,.832-0.51c-1.12-1.05-2.911-2.49-2.911-2.49Zm23.811-19.46a2.222,2.222,0,0,1-.7,1.38c-1.344,1.7-5.983,6.43-7.646,8.41a3,3,0,0,0-.928,1.89,2.891,2.891,0,0,0,1.216,2.08c3.807,3.23,6.206,5.63,7.582,7.74,0.864,1.35,1.184,2.12,1.567,2.79a1.815,1.815,0,0,0,1.568.99,1.7,1.7,0,0,0,1.792-1.86,5.724,5.724,0,0,0-1.536-3.42c-2.239-2.82-5.471-4.89-8.638-7.26a2.188,2.188,0,0,1-1.12-1.38c0-.38.256-0.77,1.152-1.66a95.046,95.046,0,0,1,7.55-6.4c1.28-.93,2.08-1.18,2.08-2.02,0-.99-1.376-2.62-2.912-3.42a7.1,7.1,0,0,0-2.367-.61l-0.352.52C187.819,1318.09,188.427,1318.83,188.427,1319.46Zm21,3.97a10.311,10.311,0,0,0,2.655.03c-2.879,3.49-5.471,7.68-5.471,12.48,0,5.86,3.935,8.16,8.158,8.16,6.591,0,8.99-4.45,9.534-8a35.336,35.336,0,0,0,.352-6.33c0-1.03.32-1.06,0.64-.13a18.832,18.832,0,0,0,2.815,5.5,2.826,2.826,0,0,0,2.016,1.38,1.292,1.292,0,0,0,1.087-1.54,3.181,3.181,0,0,0-1.247-2.59,11.824,11.824,0,0,1-3.9-6.24,29.921,29.921,0,0,1-.32-5.12,1.975,1.975,0,0,0-1.888-2.01,1.513,1.513,0,0,0-1.376,1.76,21.916,21.916,0,0,0,.512,3.32,20.645,20.645,0,0,1,.416,4.61c0,7.49-2.463,12.32-8.638,12.32-3.327,0-6.046-1.92-6.046-5.6,0-5.15,3.2-9.5,5.246-11.39a9.228,9.228,0,0,1,3.072-1.63,1.212,1.212,0,0,0,.991-1.19,2.808,2.808,0,0,0-2.335-1.82,4.03,4.03,0,0,0-1.536.7,9.907,9.907,0,0,1-4.479,1.03,5.392,5.392,0,0,1-2.783-.93l-0.352.35C207.374,1322.31,208.174,1323.14,209.422,1323.43Zm44.637-.77a3.553,3.553,0,0,1,1.439,1.38,0.665,0.665,0,0,1-.352.93c-0.927.54-3.775,2.05-6.078,3.45a4.185,4.185,0,0,1-1.632-2.17,16.687,16.687,0,0,1-.608-4.39c-0.032-.8.224-1.34,0.192-1.95,0-.92-1.855-2.24-3.711-2.24a7.483,7.483,0,0,0-2.4.52l0.032,0.57a10.758,10.758,0,0,1,1.823.64,1.6,1.6,0,0,1,.96,1.34,30.742,30.742,0,0,0,1.408,6.59,5.146,5.146,0,0,0,1.887,2.4c-2.3,1.73-5.79,4.9-5.79,8.51s3.711,5.48,9.278,5.48a30.734,30.734,0,0,0,8.19-.84,1.813,1.813,0,0,0,1.343-1.44c0-1.31-1.375-1.66-2.975-1.66a39.616,39.616,0,0,1-7.71.93c-4.351,0-6.175-1.19-6.175-3.11,0-2.62,2.912-5.05,5.631-6.65a47.792,47.792,0,0,1,8.35-3.74c1.44-.51,2.111-0.83,2.111-1.54,0-.89-1.087-2.27-2.3-2.91a7.268,7.268,0,0,0-2.687-.51Zm22.626,7.87c-0.8,1.6-2.5,5.06-3.263,6.21-0.288.45-.576,0.42-0.768-0.03a5.287,5.287,0,0,1-.384-2.34,18.114,18.114,0,0,1,2.24-7.8c0.767-1.63,1.215-2.27,1.215-3.07,0-1.6-1.6-3.24-2.463-3.84a6.268,6.268,0,0,0-2.112-1.03l-0.416.39a5.463,5.463,0,0,1,1.7,3.61,15.751,15.751,0,0,1-.768,4.03,31.6,31.6,0,0,0-1.439,8.29,13.439,13.439,0,0,0,1.919,7.49,2.572,2.572,0,0,0,1.888,1.31,1.236,1.236,0,0,0,1.311-1.44c0-.9-0.64-1.95-0.64-3.01a11.5,11.5,0,0,1,.448-2.4c0.32-1.18,1.6-4.32,2.24-6.05Zm3.167,3.01a9.2,9.2,0,0,0,.192,2.75c0.672,3.52,3.263,5.73,8.862,5.73,3.679,0,6.814-.42,6.814-2.11,0-.99-1.183-1.47-2.335-1.47a28.085,28.085,0,0,1-5.311.6c-3.967,0-5.566-.96-6.75-3.04a12.053,12.053,0,0,1-.864-2.55Zm1.152-8.92a20.414,20.414,0,0,1,5.567-.93c2.271,0,2.175.29,1.823,0.67-0.576.58-2.5,2.05-3.9,3.17l0.48,0.51a40.254,40.254,0,0,1,5.279-2.69,20.347,20.347,0,0,1,3.071-.61,1.019,1.019,0,0,0,1.056-1.08,1.671,1.671,0,0,0-1.12-1.48,9.581,9.581,0,0,0-4.511-.76,13.986,13.986,0,0,0-8,2.56Zm28.706,20.63a4.525,4.525,0,1,0-4.543-4.54A4.534,4.534,0,0,0,309.71,1345.25Zm0-7.9a3.375,3.375,0,0,1,0,6.75A3.375,3.375,0,1,1,309.71,1337.35Z" transform="translate(-26.469 -1265.19)"/>
</svg>
