<svg id="catch-about.svg" xmlns="http://www.w3.org/2000/svg" width="527.995" height="84.19" viewBox="0 0 527.995 84.19">
  <defs>
    <style>
      .cls-1 {
        fill: #fff;
        fill-rule: evenodd;
      }
    </style>
  </defs>
  <path id="サンカット_プロディフェンス_" data-name="サンカット® プロディフェンス " class="cls-1" d="M746.718,1143.74c1.749,0.3,2.662.57,2.776,1.48a56.874,56.874,0,0,1,.19,6.84c-2.319.23-5.171,0.54-7.413,0.76,0-1.29.038-2.62,0.076-3.3,0.114-1.33.646-1.37,0.646-2.21,0-1.33-2.661-2.55-4.068-2.55a7,7,0,0,0-2.623.73l0.038,0.64c1.711,0.38,2.547.69,2.737,1.56a45.79,45.79,0,0,1,.266,5.48c-2.281.22-5.7,0.6-7.071,0.6-1.026,0-1.673-.87-2.585-2.01l-0.57.19a6.688,6.688,0,0,0,.266,2.43c0.38,0.84,1.9,2.85,3.155,2.85a11.52,11.52,0,0,0,2.661-.87,33.6,33.6,0,0,1,4.144-.84c-0.076,3.69-.684,4.83-0.684,5.93,0,1.33.874,3.35,2.091,3.35,1.064,0,1.521-.69,1.521-2.21,0-1.48-.039-4.37,0-7.45,2.128-.26,4.866-0.53,7.413-0.68-0.038,4.41-.533,8.86-2.2,11.56-2.129,3.49-5.475,5.66-8.516,7.22l0.418,0.72c4.9-1.48,8.706-3.92,10.873-7.03,2.243-3.12,2.547-7.64,2.7-12.66,0.532-.04,1.065-0.04,1.559-0.04,3.421,0,5.17.49,6.349,0.49,0.874,0,1.368-.22,1.368-1.21,0-1.52-2.357-2.44-4.3-2.44-0.8,0-1.216.31-4.98,0.69,0.038-1.33.076-2.85,0.114-4.18,0.114-1.9.875-1.71,0.875-2.59,0-1.1-2.51-2.77-4.448-2.77a7.071,7.071,0,0,0-2.776.83v0.69Zm22.377,2.51a25.4,25.4,0,0,1,6.463,6.23c0.989,1.29,1.635,1.86,2.623,1.86a1.956,1.956,0,0,0,1.977-2.05c0-3.53-5.816-5.89-10.644-6.77Zm3.992,20.83c-1.331,0-2.623-1.33-3.612-2.4l-0.57.35a8.175,8.175,0,0,0,.8,3.04c0.8,1.37,3.269,3.42,5.17,3.42,0.988,0,1.444-1.1,2.471-1.75,8.592-5.36,15.587-11.78,20-20.03l-0.761-.5C791.145,1156.85,776.661,1167.08,773.087,1167.08Zm46.365-15.93c0.342-1.41.609-2.66,0.8-3.5,0.38-1.52,1.368-1.52,1.368-2.58,0-1.1-3.041-2.85-4.9-2.89a10.464,10.464,0,0,0-3,.8l0.038,0.68a9.953,9.953,0,0,1,2.319.84,1.138,1.138,0,0,1,.646,1.37,34.706,34.706,0,0,1-.95,5.74c-4.03.45-7.87,0.87-8.934,0.87-1.217,0-1.863-1.14-2.547-2.24l-0.647.15a5.327,5.327,0,0,0,.153,2.7c0.418,1.14,2.128,3.15,3.269,3.15,0.836,0,1.369-.57,2.509-0.87,1.064-.3,3.5-0.8,5.474-1.14a35.1,35.1,0,0,1-13.5,18.93l0.57,0.69c11.823-5.55,15.282-15.44,16.651-20.23a58.626,58.626,0,0,1,6.881-.72,0.393,0.393,0,0,1,.418.46c0,2.43-1.444,10.87-3.687,13.8a1.574,1.574,0,0,1-1.9.53,31.961,31.961,0,0,1-4.714-1.6l-0.342.65c2.281,1.9,3.307,2.66,3.649,4.03,0.3,1.06.646,1.48,1.6,1.48,1.825,0,3.916-1.6,4.9-3.61,2.167-4.18,3.231-9.58,3.84-13.76,0.19-1.3,1.368-1.26,1.368-2.17,0-1.07-2.813-3.35-3.839-3.35-0.761,0-1.179,1.03-2.243,1.14Zm26.105,4.9c0.951,2.06.837,3.69,2.319,3.69a1.623,1.623,0,0,0,1.711-1.67,4.963,4.963,0,0,0-2.585-4.14,12.881,12.881,0,0,0-3.041-1.64l-0.381.42A14.407,14.407,0,0,1,845.557,1156.05Zm12.622,1.75c0.418-.87,1.254-1.4,1.254-2.13,0-1.25-2.205-3.26-3.953-3.38a11.073,11.073,0,0,0-1.977.15l-0.114.5c1.254,0.61,1.938,1.18,1.938,1.82,0,3.5-6.652,13.69-16.271,18.55l0.381,0.61A30.734,30.734,0,0,0,858.179,1157.8Zm-19.2.46c0.989,2.09,1.065,3.8,2.509,3.8a1.585,1.585,0,0,0,1.673-1.71c0-1.6-1.1-3.15-3-4.37a11.809,11.809,0,0,0-2.813-1.6l-0.419.42A15.993,15.993,0,0,1,838.98,1158.26Zm25.309-14.33c1.749,0.26,2.775.61,2.965,1.86a92.344,92.344,0,0,1,.343,9.39c0,2.55-.038,8.14-0.343,10.95-0.152,1.6-.494,2.39-0.494,3.31,0,2.16.913,4.25,2.547,4.25,1.217,0,1.635-.64,1.635-2.2,0-.57-0.076-1.79-0.114-3.65-0.076-3.61-.114-9.12-0.038-12.47a24.267,24.267,0,0,1,5.322,3.04c2.661,2.28,2.966,4.03,4.866,4.03a1.764,1.764,0,0,0,1.787-1.9c0-1.63-1.026-2.7-2.509-3.57a27.283,27.283,0,0,0-9.466-3.01c0.076-2.2.152-4.56,0.342-6.15,0.19-1.34.951-1.64,0.951-2.59,0-1.1-3.042-2.78-4.829-2.78a9.576,9.576,0,0,0-3,.8Zm26.213,21.88h0.332a0.866,0.866,0,0,1,1,.93,0.906,0.906,0,0,1-.976,1.02H890.5v-1.95Zm2.283,3.11a1.287,1.287,0,0,0-1.264-.98,1.376,1.376,0,0,0,1.375-1.26c0-.76-0.643-1.24-1.818-1.24H888.8v0.33l0.665,0.09v4.08l-0.665.06v0.34h2.372V1170l-0.665-.06v-1.84h0.354a0.7,0.7,0,0,1,.776.68l0.222,1.02a0.794,0.794,0,0,0,1,.62,3.159,3.159,0,0,0,.732-0.08V1170l-0.576-.06Zm-1.8,3.28a4.191,4.191,0,1,1,4.124-4.21A4.052,4.052,0,0,1,890.989,1172.2Zm0-9.07a4.875,4.875,0,1,0,4.922,4.86A4.745,4.745,0,0,0,890.989,1163.13Zm53.46-14.79a4.125,4.125,0,1,0-4.144-4.15A4.1,4.1,0,0,0,944.449,1148.34Zm0-6.81a2.68,2.68,0,1,1-2.7,2.66A2.678,2.678,0,0,1,944.449,1141.53Zm-27.6,5.13-0.646.27a8.995,8.995,0,0,0,.3,2.43c0.38,1.22,2.319,3.43,3.8,3.43,0.8,0,1.71-.73,2.661-0.95a120.913,120.913,0,0,1,13.724-2.21c0.342,0,.532.11,0.418,0.53-2.091,8.59-9.39,17.41-20,22.85l0.494,0.8c11.861-4.11,18.78-11.25,23.076-20.61,0.571-1.25,1.863-1.63,1.863-2.73,0-1.22-3.5-4.19-4.98-4.19-0.874,0-1.026.61-2.319,0.88-1.939.42-12.621,1.56-15.283,1.56C918.6,1148.72,917.685,1147.69,916.849,1146.66Zm41.955,18.18c-0.114-3.42-.3-10.31-0.418-13.08a4.224,4.224,0,0,0,1.748.61c0.723,0,1.9-.38,3.118-0.53,2.053-.27,7.223-0.69,9.39-0.69a0.465,0.465,0,0,1,.532.53,109.546,109.546,0,0,1-1.559,12.21C968,1164.08,962.491,1164.53,958.8,1164.84Zm-6.729-16.39a5.722,5.722,0,0,1,2.243,3.31,76.226,76.226,0,0,1,1.1,11.25c0.038,1.48-.114,3.31-0.114,4.22,0,1.64.989,3.04,2.053,3.04,1.141,0,1.521-.76,1.521-1.82v-1.1c4.3-.27,9.048-0.54,11.975-0.54,1.977,0,3.992.27,5.094,0.27a1.333,1.333,0,0,0,1.483-1.45c0-.95-1.141-1.63-2.433-1.82,0.76-3.61,1.558-7.72,2.015-9.66,0.266-1.21,1.634-1.59,1.634-2.62,0-1.29-3.421-4.03-4.638-4.03-0.912,0-1.178,1.1-2.7,1.29-1.558.19-9.39,0.95-13.191,1.22a0.558,0.558,0,0,0-.229-0.27,8.2,8.2,0,0,0-5.436-1.86Zm41.194-3.5c1.293,2.4,2.471,3.65,4.638,3.65a73.2,73.2,0,0,0,12.053-1.59c1.21-.23,1.63-0.69,1.63-1.37,0-1.22-1.48-1.94-3.61-1.94-0.64,0-1.18.53-3.23,1.06a31.6,31.6,0,0,1-7.071,1.03,6.73,6.73,0,0,1-3.954-1.25Zm-5.588,7.95a5.737,5.737,0,0,0,.228,2.24c0.418,1.22,2.243,2.89,3.383,2.85a13.771,13.771,0,0,0,3.422-.95,66.776,66.776,0,0,1,7.106-1.33,2.4,2.4,0,0,1,.46,1.41c0,2.58-2.586,11.06-11.254,16.88l0.646,0.72c8.818-4.22,12.018-10.23,13.688-14.41,0.64-1.56,1.63-1.86,1.63-2.73,0-.73-0.91-1.49-2.13-2.21,2.97-.27,5.67-0.38,7.38-0.38,2.05,0,3.76.34,4.52,0.34a1.143,1.143,0,0,0,1.37-1.33c0-1.33-2.39-2.39-4.41-2.39a31.465,31.465,0,0,1-3.8.72c-5.93.57-16.461,2.17-19.046,2.17-1.064,0-1.787-.84-2.661-1.83Zm24.709-8.1a17.859,17.859,0,0,1,3.31,3.54c0.64,0.91.99,1.56,1.6,1.56a1.152,1.152,0,0,0,1.17-1.14,2.944,2.944,0,0,0-1.17-2.21,13.26,13.26,0,0,0-4.45-2.28Zm2.93-3.08a15.153,15.153,0,0,1,3.23,3.31c0.72,0.91,1.06,1.56,1.75,1.6a1.073,1.073,0,0,0,1.1-1.22,2.837,2.837,0,0,0-1.41-2.28,13.022,13.022,0,0,0-4.29-1.94Zm16.9,8.75c0.77,0.34,1.64.98,1.64,1.56,0,1.97-7.6,10.3-15.02,14.56l0.38,0.57a38.958,38.958,0,0,0,11.45-6.54,3,3,0,0,1,.19,1.06,58.214,58.214,0,0,1-.35,7.45c-0.07.95-.3,1.6-0.3,2.13,0,1.41.68,2.89,2.13,2.89,1.03,0,1.52-.76,1.52-1.94,0-1.52-.23-5.66-0.08-9.62,0.04-.79.31-1.33,0.31-1.78,0-.54-0.72-1.11-1.64-1.75,1.71-1.64,3.16-3.16,4.18-4.22,0.8-.8,1.45-0.8,1.45-1.64,0-.98-1.71-2.58-3.23-3.04a7.1,7.1,0,0,0-2.47-.19Zm15.05-4.64-0.61.23a9.152,9.152,0,0,0,.27,2.43c0.38,1.22,2.35,3.42,3.8,3.42,0.8,0,1.75-.8,2.66-1.06a115.138,115.138,0,0,1,13.76-2.21c0.34,0,.53.12,0.42,0.53-2.09,8.6-9.39,17.49-20,22.97l0.5,0.79c11.86-4.1,18.74-11.25,23.07-20.6,0.57-1.22,2.05-1.94,2.05-3.04,0-1.22-3.34-3.99-4.82-3.99-0.92,0-1.37.72-2.7,1.02-1.94.42-12.59,1.52-15.25,1.52C1049.02,1147.84,1048.14,1146.82,1047.27,1145.83Zm33.4,9.08a8.824,8.824,0,0,0,1.07,2.21,3.3,3.3,0,0,0,2.2,1.56,38.93,38.93,0,0,0,4.03-.61,5.439,5.439,0,0,1,.65,2.85c0,1.52-.08,3.92-0.19,5.78-3.42.34-6.69,0.65-7.95,0.65a3.806,3.806,0,0,1-2.77-1.33l-0.42.15a4.964,4.964,0,0,0,.34,1.94c0.34,0.87,2.01,2.54,3.12,2.54a17.421,17.421,0,0,0,3.19-.91,43.843,43.843,0,0,1,10-1.1c3.88,0.04,6.65.99,7.75,0.99a1.276,1.276,0,0,0,1.33-1.33c0-1.18-2.81-2.74-4.29-2.74a23.04,23.04,0,0,1-2.47.49c-1.29.08-3.08,0.23-4.98,0.38,0.15-1.86.38-3.76,0.57-4.94a15.366,15.366,0,0,0,.57-1.98c0-.68-0.8-1.29-1.86-1.78,3.23-.34,5.89-0.5,6.99-0.57a1.345,1.345,0,0,0,1.41-1.37c0-.91-2.4-1.94-3.92-1.94-0.68,0-.72.84-4.56,1.48a43.87,43.87,0,0,1-6.27.65,5.15,5.15,0,0,1-3.16-1.29Zm30.21-8.66a25.268,25.268,0,0,1,6.46,6.23c0.99,1.29,1.64,1.86,2.63,1.86a1.956,1.956,0,0,0,1.97-2.05c0-3.53-5.81-5.89-10.64-6.77Zm3.99,20.83c-1.33,0-2.62-1.33-3.61-2.4l-0.57.35a8.2,8.2,0,0,0,.8,3.04c0.8,1.37,3.27,3.42,5.17,3.42,0.99,0,1.44-1.1,2.47-1.75,8.59-5.36,15.59-11.78,20-20.03l-0.76-.5C1132.93,1156.85,1118.45,1167.08,1114.87,1167.08Zm32.11-20.72a8.055,8.055,0,0,0,.38,2.59c0.46,1.21,2.13,3.19,3.58,3.19,1.02,0,1.33-.84,2.54-1.22,1.98-.57,7.04-1.94,9.05-2.2,0.42-.04.65,0.07,0.46,0.61-3.27,7.6-12.47,16.99-21.44,21.63l0.49,0.8a43.564,43.564,0,0,0,17.6-11.49c3.5,2.21,5.4,4.76,7.45,7.61,1.6,2.09,2.4,3.27,3.69,3.27a1.9,1.9,0,0,0,1.9-1.98c0-3.8-5.89-7.68-12.09-9.92a66.741,66.741,0,0,0,6.01-8.21c0.45-.69,1.97-1.18,1.97-2.09,0-1.07-3.04-3.62-4.44-3.62-0.69,0-1.26.95-2.13,1.18a78.156,78.156,0,0,1-11.37,1.79c-1.29,0-2.17-1.22-2.93-2.24Z" transform="translate(-729.125 -1090.53)"/>
  <path id="今と未来の美しさに_太陽と輝くひとに_" data-name="今と未来の美しさに。太陽と輝くひとに。 " class="cls-1" d="M748.265,1105.02H734.142l0.241,0.78h13.855c-1.125,2.68-2.894,6.59-4.475,9.59a4.18,4.18,0,0,0,2.76.38c1.447-2.87,3.457-7.13,4.449-9.44a2.394,2.394,0,0,0,1.286-.45l-2.68-2.28Zm-3.323-4.58H737.3l0.215,0.78h10.853a0.644,0.644,0,0,0,.724-0.43c-0.992-.91-2.68-2.31-2.68-2.31Zm-3.27-9.92c-1.339,4.24-6.672,10.29-11.255,13.29l0.214,0.35c5.226-2.49,10.747-7.31,13.373-11.68,1.769,4.47,5.681,8.17,9.942,10.64a2.94,2.94,0,0,1,2.117-2.17l0.054-.4c-4.556-1.85-9.192-4.67-11.631-8.42,0.751-.08,1.126-0.21,1.206-0.56Zm34.39,6.27a2.957,2.957,0,0,1,1.206,1.16,0.549,0.549,0,0,1-.3.77c-0.777.46-3.162,1.72-5.092,2.9a3.535,3.535,0,0,1-1.366-1.82,14.006,14.006,0,0,1-.51-3.68c-0.026-.67.188-1.12,0.161-1.63,0-.78-1.554-1.88-3.108-1.88a6.332,6.332,0,0,0-2.01.43l0.027,0.48a10.466,10.466,0,0,1,1.527.54,1.35,1.35,0,0,1,.8,1.13,26.122,26.122,0,0,0,1.179,5.52,4.4,4.4,0,0,0,1.581,2.01c-1.929,1.44-4.85,4.1-4.85,7.12s3.108,4.59,7.771,4.59a25.875,25.875,0,0,0,6.861-.7,1.523,1.523,0,0,0,1.125-1.21c0-1.09-1.152-1.39-2.492-1.39a33.147,33.147,0,0,1-6.458.78c-3.645,0-5.173-.99-5.173-2.6,0-2.2,2.439-4.24,4.717-5.58a40.8,40.8,0,0,1,6.994-3.13c1.206-.43,1.769-0.7,1.769-1.29a3.606,3.606,0,0,0-1.929-2.44,6.157,6.157,0,0,0-2.251-.42Zm37.739,5.52a0.654,0.654,0,0,0,.751-0.42c-1.126-1-3-2.39-3-2.39l-1.661,2.04h-6.4v-4.88h8.388a0.7,0.7,0,0,0,.75-0.4c-1.125-.99-2.921-2.33-2.921-2.33l-1.608,1.98h-4.609V1092a0.925,0.925,0,0,0,.992-0.75l-3.565-.38v5.04h-8.736l0.214,0.75h8.522v4.88H790.058l0.214,0.77H799.2a28,28,0,0,1-9.54,11.23l0.268,0.38a26.33,26.33,0,0,0,10.987-9.11v10.96h0.509c0.965,0,2.064-.62,2.064-0.94v-12.52h0.054a20.014,20.014,0,0,0,9.138,11.26,2.964,2.964,0,0,1,2.224-2.25l0.054-.3a20.868,20.868,0,0,1-10.827-8.71H813.8Zm31.682,1.64a0.66,0.66,0,0,0,.75-0.4c-1.152-1.02-3.028-2.44-3.028-2.44l-1.662,2.09h-6.458v-7.1h9.353a0.642,0.642,0,0,0,.723-0.43c-1.125-.99-2.948-2.36-2.948-2.36l-1.608,2.01h-5.52V1092a0.925,0.925,0,0,0,.992-0.75l-3.565-.38v4.45h-9.7l0.215,0.78h9.486v7.1H821.605l0.215,0.75H830.9a27.089,27.089,0,0,1-9.647,10.16l0.268,0.37a26.59,26.59,0,0,0,10.987-8.17v9.46h0.509c0.965,0,2.064-.62,2.064-0.94v-10.64a18.719,18.719,0,0,0,9.245,9.81,2.837,2.837,0,0,1,2.118-2.23l0.053-.26c-4.127-1.21-8.575-4-10.934-7.56h9.916Zm-19.7-7.29a12.889,12.889,0,0,1,1.983,5.33c2.3,2.09,4.851-2.81-1.688-5.46Zm11.255,6a20.745,20.745,0,0,0,4.583-4.29,0.915,0.915,0,0,0,1.072-.45l-3.4-1.42a37.162,37.162,0,0,1-2.572,5.92Zm27.9-4.45a12.23,12.23,0,0,1-1.1,4.53c-0.938,2.15-3.35,6.06-4.984,6.06-1.1,0-2.118-1.96-2.118-4.29a8.467,8.467,0,0,1,2.546-5.92,10.113,10.113,0,0,1,4.878-2.76A4.513,4.513,0,0,1,864.944,1098.21Zm-0.322,15.6c8.871-.45,12.113-4.88,12.113-9.67,0-5.58-4.341-9.57-10.21-9.57a11.839,11.839,0,0,0-8.013,2.84,10.519,10.519,0,0,0-3.778,7.77c0,3.43,1.929,6.51,3.939,6.51,3.028,0,6.083-5.01,7.236-8.33a13.653,13.653,0,0,0,.884-4.56,5.266,5.266,0,0,0-1.528-3.19c0.349-.02.7-0.05,1.019-0.05,4.395,0,7.718,3.11,7.718,7.96,0,4.74-2.814,8.33-9.487,9.73Zm26.054-22.64a7.789,7.789,0,0,1,1.983,3.75c2.358,1.69,4.556-2.95-1.742-3.91Zm-5.145,11.92,0.241,0.78h22.645a0.627,0.627,0,0,0,.7-0.43c-1.018-.94-2.787-2.3-2.787-2.3l-1.527,1.95h-6.485v-3.19h7.878a0.651,0.651,0,0,0,.724-0.43c-1.018-.91-2.653-2.14-2.653-2.14l-1.447,1.8h-4.5v-3.03h9.379a0.676,0.676,0,0,0,.75-0.43c-1.071-.94-2.813-2.25-2.813-2.25l-1.5,1.9H899.9a30.975,30.975,0,0,0,3.4-2.97,0.874,0.874,0,0,0,1.019-.46l-3.484-1.13a31.955,31.955,0,0,1-1.769,4.56H886.576l0.241,0.78h8.9v3.03h-7.637l0.214,0.77h7.423v3.19H885.531Zm23.341,5.17a0.668,0.668,0,0,0,.751-0.43c-1.072-.93-2.868-2.3-2.868-2.3l-1.581,1.98H897.8q0.2-1.035.322-2.25a0.9,0.9,0,0,0,.938-0.72l-3.779-.3a23.678,23.678,0,0,1-.321,3.27H884.941l0.215,0.75h9.62c-0.884,3-3.269,5.18-10.13,7.08l0.188,0.45c9.326-1.58,11.872-4.02,12.81-7.53h0.321c1.715,4.4,4.9,6.33,9.969,7.43a2.808,2.808,0,0,1,1.93-2.39v-0.29c-5.038-.41-9.192-1.56-11.309-4.75h10.317Zm11.986-13.77c0.482,0.35.616,0.78,0.616,1.93,0,1.82-.589,7.61-0.589,11.58,0,4.85,2.09,6.7,5.788,6.7a12.084,12.084,0,0,0,11.041-7.7l-0.536-.34a13.42,13.42,0,0,1-10.237,5.49c-3.082,0-3.993-1.21-3.993-4.4a56.06,56.06,0,0,1,1.045-9.86c0.268-1.31.911-1.61,0.911-2.28,0-.96-2.251-2.7-3.832-2.73a5.785,5.785,0,0,0-1.956.38v0.48A5.367,5.367,0,0,1,920.858,1094.49Zm30.424-.48c1.554,0.05,2.439.16,2.894,0.85,0.483,0.73,1.072,1.88,1.662,2.95a20.1,20.1,0,0,1-4.744.86,6.211,6.211,0,0,1-4.609-1.82l-0.429.35c1.314,2.46,2.251,3.53,5.306,3.48a21.556,21.556,0,0,0,5.6-.99,48.474,48.474,0,0,0,3.806,5.04c0.241,0.24.161,0.29-.134,0.24a21.036,21.036,0,0,0-5.521-.78c-4.234,0-7.4,2.28-7.4,5.25,0,3.51,3.832,5.2,8.656,5.2,3.7,0,5.038-.61,5.038-1.53s-0.858-1.28-1.876-1.28c-0.992,0-2.037.29-3.966,0.29-3.94,0-6-1.31-6-3.16,0-2.09,2.063-3.67,4.958-3.67a12.166,12.166,0,0,1,6.458,1.93,4.111,4.111,0,0,0,2.01.99c0.8,0,1.26-1.31,1.233-2.17a1.987,1.987,0,0,0-.858-1.47,28.192,28.192,0,0,1-4.636-5.47,17.481,17.481,0,0,0,4.824-2.55,1.068,1.068,0,0,0,.214-1.42,2.044,2.044,0,0,0-1.822-.37c-0.67.24-1.474,1.31-4.261,2.41a23.95,23.95,0,0,1-1.26-3.57c-0.16-.56-1.286-0.99-2.572-0.99a5.276,5.276,0,0,0-2.653.94Zm29.994,9.38c-0.67,1.34-2.09,4.23-2.733,5.2-0.242.37-.483,0.34-0.644-0.03a4.429,4.429,0,0,1-.321-1.96,15.234,15.234,0,0,1,1.876-6.54c0.643-1.36,1.018-1.9,1.018-2.57,0-1.34-1.34-2.71-2.063-3.22a5.132,5.132,0,0,0-1.769-.85l-0.349.32a4.582,4.582,0,0,1,1.421,3.03,13.216,13.216,0,0,1-.643,3.37,26.475,26.475,0,0,0-1.206,6.94,11.275,11.275,0,0,0,1.608,6.28,2.132,2.132,0,0,0,1.581,1.09,1.03,1.03,0,0,0,1.1-1.2c0-.75-0.535-1.64-0.535-2.52a9.508,9.508,0,0,1,.375-2.01c0.268-.99,1.34-3.62,1.876-5.07Zm2.653,2.52a7.653,7.653,0,0,0,.161,2.3c0.563,2.95,2.733,4.8,7.423,4.8,3.082,0,5.708-.35,5.708-1.77,0-.83-0.991-1.23-1.956-1.23a23.647,23.647,0,0,1-4.449.5c-3.323,0-4.663-.8-5.654-2.54a10.022,10.022,0,0,1-.724-2.15Zm0.965-7.48a17.319,17.319,0,0,1,4.663-.78c1.9,0,1.822.24,1.527,0.56-0.482.49-2.09,1.72-3.269,2.66l0.4,0.43a33.6,33.6,0,0,1,4.422-2.26,16.213,16.213,0,0,1,2.572-.5,0.868,0.868,0,0,0,.885-0.92,1.39,1.39,0,0,0-.938-1.23,8.053,8.053,0,0,0-3.779-.64,11.772,11.772,0,0,0-6.7,2.14Zm23.486,17.28a3.79,3.79,0,1,0-3.81-3.8A3.786,3.786,0,0,0,1008.38,1115.71Zm0-6.62a2.83,2.83,0,0,1,0,5.66A2.83,2.83,0,1,1,1008.38,1109.09Zm38.73-9.83a0.66,0.66,0,0,0,.75-0.43c-1.15-1.04-3.1-2.49-3.1-2.49l-1.69,2.14h-7.18c0.18-2.11.24-4.26,0.29-6.38a0.958,0.958,0,0,0,.96-0.77l-3.83-.38c0,2.55,0,5.07-.19,7.53h-10.18l0.22,0.78h9.88c-0.64,5.92-2.78,11.42-10.15,16.08l0.32,0.43a22.246,22.246,0,0,0,9.41-7.32,11.671,11.671,0,0,1,2.62,5.33c2.76,2.28,5.39-3.35-2.41-5.65a20.153,20.153,0,0,0,2.97-8.87h0.06c0.75,5.41,2.76,12.3,9.57,16.51a2.661,2.661,0,0,1,2.43-2.36l0.06-.32c-7.59-3.49-10.59-8.82-11.55-13.83h10.74Zm27-6v2.7h-6.76v-2.7h6.76Zm-6.76,6.13v-2.68h6.76v2.68h-6.76Zm0,0.75h6.76v1.02h0.42a2.754,2.754,0,0,0,1.93-.59v-7.15a1.43,1.43,0,0,0,1.02-.49l-2.36-1.74-1.1,1.32h-6.37l-2.58-1.05v10.13h0.41c1.18,0,1.87-.43,1.87-0.62v-0.83Zm-5.38-8.73-1.37,1.28h-2.36l-2.71-1.07v24.17h0.41a2.253,2.253,0,0,0,1.95-.77v-21.55h2.87c-0.46,2.04-1.29,4.96-1.82,6.62a8.982,8.982,0,0,1,1.71,5.44,1.794,1.794,0,0,1-.56,1.61,1.129,1.129,0,0,1-.64.13h-1.34v0.38a1.738,1.738,0,0,1,1.12.53,4.638,4.638,0,0,1,.3,1.85c2.57-.08,3.48-1.42,3.45-3.86a7.747,7.747,0,0,0-3.4-6.16,48.348,48.348,0,0,0,3.7-5.9,1.488,1.488,0,0,0,1.2-.32Zm16.93,11.95a0.642,0.642,0,0,0,.73-0.43c-0.97-.94-2.55-2.22-2.55-2.22l-1.42,1.87h-12.97l0.21,0.78h3.7a15.6,15.6,0,0,1-5.01,6.38l0.24,0.4a18.3,18.3,0,0,0,5.33-3.83h1.4a19.884,19.884,0,0,1-6.57,7.15l0.3,0.4a19.318,19.318,0,0,0,8.68-7.55h1.37a17.247,17.247,0,0,1-7.61,9.08l0.26,0.43c4.99-2.12,8.2-5.28,9.87-9.51h1.2c-0.35,3.78-1.04,6.08-1.74,6.64a1.435,1.435,0,0,1-.94.24c-0.53,0-1.93-.1-2.73-0.16l-0.03.41a3.6,3.6,0,0,1,1.88.77,2.151,2.151,0,0,1,.4,1.56,4.648,4.648,0,0,0,2.89-.81c1.32-.96,2.17-3.59,2.58-8.3a1.827,1.827,0,0,0,1.09-.43l-2.33-1.96-1.28,1.26h-8.02a9.893,9.893,0,0,0,1.42-2.17h9.65Zm19.76-6.57a3.011,3.011,0,0,1,1.21,1.16,0.552,0.552,0,0,1-.3.77c-0.78.46-3.16,1.72-5.09,2.9a3.59,3.59,0,0,1-1.37-1.82,14.09,14.09,0,0,1-.51-3.68c-0.02-.67.19-1.12,0.16-1.63,0-.78-1.55-1.88-3.1-1.88a6.315,6.315,0,0,0-2.01.43l0.02,0.48a10.22,10.22,0,0,1,1.53.54,1.338,1.338,0,0,1,.8,1.13,26.891,26.891,0,0,0,1.18,5.52,4.4,4.4,0,0,0,1.58,2.01c-1.92,1.44-4.85,4.1-4.85,7.12s3.11,4.59,7.78,4.59a25.913,25.913,0,0,0,6.86-.7,1.521,1.521,0,0,0,1.12-1.21c0-1.09-1.15-1.39-2.49-1.39a33.153,33.153,0,0,1-6.46.78c-3.64,0-5.17-.99-5.17-2.6,0-2.2,2.44-4.24,4.72-5.58a40.491,40.491,0,0,1,6.99-3.13c1.21-.43,1.77-0.7,1.77-1.29a3.6,3.6,0,0,0-1.93-2.44,6.139,6.139,0,0,0-2.25-.42Zm20.43,2.76a44.266,44.266,0,0,0,2.92-5.19h0.19a1.212,1.212,0,0,0-.22,1.2,1.4,1.4,0,0,0,2.04.38,3.244,3.244,0,0,0,.91-2.66h8.84c-0.21.78-.51,1.72-0.69,2.31l0.32,0.16a18.187,18.187,0,0,0,2.76-2.06,1.387,1.387,0,0,0,1.02-.3l-2.25-2.14-1.26,1.28h-8.82a5.841,5.841,0,0,0-.27-1.12l-0.4-.03a3.256,3.256,0,0,1-1.34,2.41l-2.84-1.04a67.7,67.7,0,0,1-1.23,6.67Zm-6.78-6.56a18.311,18.311,0,0,1,.96,5.97c1.66,1.83,3.73-2.11-.59-6.08Zm12.83,13.8v-2.71h2.82v2.71h-2.82Zm2.82-6.03v2.57h-2.82v-2.57h2.82Zm5.17,0v2.57h-2.81v-2.57h2.81Zm-2.81,6.03v-2.71h2.81v2.71h-2.81Zm-10.13-5.15h2.14a0.8,0.8,0,0,0,.59-0.21v6.73c-0.94.37-1.88,0.72-2.73,1.07v-7.59Zm13.34,8.77h-3.21v-2.84h2.81v0.93h0.38a2.678,2.678,0,0,0,1.95-.56v-7.02a1.684,1.684,0,0,0,.97-0.48l-2.28-1.72-1.13,1.29h-2.7v-2.06h5.41a0.593,0.593,0,0,0,.67-0.43c-0.88-.83-2.36-1.93-2.36-1.93l-1.28,1.58h-2.44v-1.88a0.872,0.872,0,0,0,.91-0.72l-3.27-.32v2.92h-5.66l0.22,0.78h5.44v2.06h-2.52l-2.52-1.02v2.12c-0.88-.81-2.25-1.8-2.25-1.8l-1.23,1.56h-1.21v-8.79a0.8,0.8,0,0,0,.83-0.65l-3.03-.32v9.76h-4.12l0.21,0.77h2.04c-0.03,4.72-.03,9.71-2.2,13.73l0.4,0.4c3.49-3.78,3.91-8.95,4.02-14.13h1.66v8.37c-0.67.24-1.2,0.42-1.58,0.53l1.34,2.71a1.023,1.023,0,0,0,.56-0.75c2.04-1.58,3.54-2.95,4.56-3.89v0.43h0.4a2.1,2.1,0,0,0,1.82-.62v-0.85h2.82v2.84h-6.43l0.21,0.77h6.22v4.61h0.43a2.441,2.441,0,0,0,1.93-.83v-3.78h6.29a0.6,0.6,0,0,0,.7-0.42c-0.94-.89-2.44-2.09-2.44-2.09Zm19.39-16.3a1.877,1.877,0,0,1-.59,1.16c-1.13,1.42-5.01,5.38-6.41,7.04a2.5,2.5,0,0,0-.77,1.59,2.421,2.421,0,0,0,1.01,1.74,33.179,33.179,0,0,1,6.35,6.48c0.73,1.13,1,1.77,1.32,2.33a1.5,1.5,0,0,0,1.31.83,1.416,1.416,0,0,0,1.5-1.55,4.821,4.821,0,0,0-1.28-2.87c-1.88-2.36-4.59-4.1-7.24-6.08a1.863,1.863,0,0,1-.94-1.15,2.382,2.382,0,0,1,.97-1.4c1.12-1.12,4.45-3.96,6.32-5.36,1.07-.77,1.74-0.99,1.74-1.68,0-.83-1.15-2.2-2.44-2.87a5.719,5.719,0,0,0-1.98-.51l-0.29.43A2.988,2.988,0,0,1,1152.92,1094.11Zm17.02,3.33a9.282,9.282,0,0,0,2.23.02c-2.41,2.92-4.58,6.44-4.58,10.46,0,4.9,3.29,6.83,6.83,6.83,5.52,0,7.53-3.73,7.99-6.7a30.075,30.075,0,0,0,.29-5.31c0-.85.27-0.88,0.54-0.1a16.148,16.148,0,0,0,2.35,4.61,2.373,2.373,0,0,0,1.69,1.15,1.077,1.077,0,0,0,.91-1.29,2.645,2.645,0,0,0-1.04-2.17,9.869,9.869,0,0,1-3.27-5.23,25.11,25.11,0,0,1-.27-4.28,1.667,1.667,0,0,0-1.58-1.69,1.256,1.256,0,0,0-1.15,1.47,17.668,17.668,0,0,0,.43,2.79,17.553,17.553,0,0,1,.35,3.86c0,6.27-2.07,10.32-7.24,10.32-2.79,0-5.07-1.61-5.07-4.69a13.886,13.886,0,0,1,4.4-9.54,7.719,7.719,0,0,1,2.57-1.37,1.017,1.017,0,0,0,.83-0.99,2.343,2.343,0,0,0-1.95-1.53,3.275,3.275,0,0,0-1.29.59,8.4,8.4,0,0,1-3.75.86,4.444,4.444,0,0,1-2.33-.78l-0.3.3C1168.23,1096.5,1168.9,1097.2,1169.94,1097.44Zm37.37-.65a3.011,3.011,0,0,1,1.21,1.16,0.552,0.552,0,0,1-.3.77c-0.78.46-3.16,1.72-5.09,2.9a3.59,3.59,0,0,1-1.37-1.82,14.09,14.09,0,0,1-.51-3.68c-0.02-.67.19-1.12,0.16-1.63,0-.78-1.55-1.88-3.1-1.88a6.315,6.315,0,0,0-2.01.43l0.02,0.48a10.631,10.631,0,0,1,1.53.54,1.338,1.338,0,0,1,.8,1.13,26.891,26.891,0,0,0,1.18,5.52,4.4,4.4,0,0,0,1.58,2.01c-1.93,1.44-4.85,4.1-4.85,7.12s3.11,4.59,7.78,4.59a25.913,25.913,0,0,0,6.86-.7,1.521,1.521,0,0,0,1.12-1.21c0-1.09-1.15-1.39-2.49-1.39a33.153,33.153,0,0,1-6.46.78c-3.64,0-5.17-.99-5.17-2.6,0-2.2,2.44-4.24,4.71-5.58a40.91,40.91,0,0,1,7-3.13c1.21-.43,1.77-0.7,1.77-1.29a3.6,3.6,0,0,0-1.93-2.44,6.139,6.139,0,0,0-2.25-.42Zm19.46,6.6c-0.67,1.34-2.09,4.23-2.73,5.2-0.24.37-.48,0.34-0.64-0.03a4.433,4.433,0,0,1-.32-1.96,15.2,15.2,0,0,1,1.87-6.54c0.64-1.36,1.02-1.9,1.02-2.57,0-1.34-1.34-2.71-2.06-3.22a5.2,5.2,0,0,0-1.77-.85l-0.35.32a4.558,4.558,0,0,1,1.42,3.03,13.114,13.114,0,0,1-.64,3.37,26.414,26.414,0,0,0-1.21,6.94,11.232,11.232,0,0,0,1.61,6.28,2.122,2.122,0,0,0,1.58,1.09,1.033,1.033,0,0,0,1.1-1.2c0-.75-0.54-1.64-0.54-2.52a9.746,9.746,0,0,1,.38-2.01c0.27-.99,1.34-3.62,1.87-5.07Zm2.66,2.52a7.4,7.4,0,0,0,.16,2.3c0.56,2.95,2.73,4.8,7.42,4.8,3.08,0,5.71-.35,5.71-1.77,0-.83-0.99-1.23-1.96-1.23a23.623,23.623,0,0,1-4.45.5c-3.32,0-4.66-.8-5.65-2.54a10.067,10.067,0,0,1-.72-2.15Zm0.96-7.48a17.3,17.3,0,0,1,4.66-.78c1.91,0,1.83.24,1.53,0.56-0.48.49-2.09,1.72-3.27,2.66l0.4,0.43a33.851,33.851,0,0,1,4.43-2.26,16.172,16.172,0,0,1,2.57-.5,0.862,0.862,0,0,0,.88-0.92,1.384,1.384,0,0,0-.93-1.23,8.077,8.077,0,0,0-3.78-.64,11.768,11.768,0,0,0-6.7,2.14Zm22.95,17.28a3.79,3.79,0,1,0-3.81-3.8A3.794,3.794,0,0,0,1253.34,1115.71Zm0-6.62a2.83,2.83,0,0,1,0,5.66A2.83,2.83,0,1,1,1253.34,1109.09Z" transform="translate(-729.125 -1090.53)"/>
</svg>
