<?xml version="1.0" encoding="utf-8"?>
<!-- Generator: Adobe Illustrator 25.0.1, SVG Export Plug-In . SVG Version: 6.00 Build 0)  -->
<svg version="1.1" id="レイヤー_1" xmlns="http://www.w3.org/2000/svg" xmlns:xlink="http://www.w3.org/1999/xlink" x="0px"
	 y="0px" viewBox="0 0 586.1 156.8" style="enable-background:new 0 0 586.1 156.8;" xml:space="preserve">
<style type="text/css">
	.st0{fill-rule:evenodd;clip-rule:evenodd;fill:#FFFFFF;}
	.st1{fill:#FFFFFF;}
</style>
<path id="text-about_sp.svg" class="st0" d="M12.3,16.3c0.4,0,1.3,0,1.3,0.5c0,1.1-0.7,1.3-1.8,1.3c-0.5,0-1.6-0.2-1.6-0.9
	S11.7,16.3,12.3,16.3z M17.7,2.3c-0.1,0-0.2,0-0.3,0.1c-2,0.6-4.1,0.9-6.2,0.8c-0.5,0-1.5,0-2-0.1c-0.1,0-0.2,0-0.3,0
	c-0.2,0-0.4,0.1-0.5,0.4v0.1c0,0.2,0.1,1.4,0.1,1.6c0.3,0.4,0.5,0.4,1,0.4c1,0,2.9-0.2,3.2-0.2c0.4,0,0.5,0.1,0.5,2.2
	c0,0.8-0.3,0.8-3.8,0.8c-0.6,0-1.1-0.1-1.6-0.1C7.4,8.5,7.3,8.6,7.3,9c0,0.6,0.1,1.2,0.2,1.8C7.7,11,8,11,8.3,11
	c1.1,0,3.2-0.1,4.3-0.2c0.1,0,0.1,0,0.2,0c0.3,0,0.5,0.2,0.5,0.5c0,0,0,0,0,0.1c0,0.5,0.1,2.1,0.1,2.5c0,0.3-0.2,0.5-0.5,0.5l0,0
	c-0.1,0-0.5-0.1-0.9-0.1c-1.9,0-4.1,0.8-4.1,3.1c0,2.1,2.1,2.9,3.9,2.9c1.3,0,3.1-0.4,3.6-1.8c0.2-0.4,0.2-0.7,0.5-0.7
	c0.7,0.3,1.3,0.7,1.7,1.3c0,0.1,0.1,0.1,0.1,0.2c0.1,0.2,0.4,0.4,0.6,0.4c0.7-0.3,1.3-1,1.5-1.8c0-0.7-2.8-2.3-3.5-2.6
	c-0.5-0.1-0.8-0.5-0.7-1l0,0c0-0.8-0.2-2.6-0.2-3.2c0-0.8,0.7-0.8,1.7-0.9c2-0.3,2.5-0.4,2.5-0.9c0-0.4-0.1-0.9-0.2-1.3
	c0-0.3-0.2-0.6-0.5-0.7c-0.2,0-0.5,0.1-0.7,0.2c-0.8,0.3-1.7,0.5-2.5,0.6c-0.4,0-0.5-0.4-0.5-1.3V5.9c-0.1-0.4,0.2-0.8,0.6-0.9
	c0.1,0,0.1,0,0.2,0c1.6-0.2,2.1-0.3,2.1-0.8C18.3,4,18.2,2.3,17.7,2.3L17.7,2.3z M5.8,2.4C5.3,2.1,4.7,1.9,4.1,1.7
	c-0.2,0-0.4,0.2-0.3,0.4C3.6,2.9,3.4,3.7,3.2,4.4C2.5,7,2.1,9.7,2,12.4c0,2.6,0.4,5.1,1.4,7.5c0.1,0.4,0.3,0.7,0.7,0.8
	c0.4,0,0.7-0.1,1.1-0.3c0.4-0.1,0.6-0.4,0.7-0.7c0-0.3,0-0.6,0-0.9c0.1-1.3,0.4-2.6,1-3.8c0.2-0.3,0.3-0.7,0.4-1
	c-0.2-0.4-0.6-0.7-1-0.8c-0.2,0.1-0.4,0.3-0.4,0.5c-0.1,0.2-0.1,0.3-0.2,0.5c0,0.3-0.2,0.6-0.5,0.7c-0.1,0-0.2-0.1-0.2-0.2
	c-0.2-0.8-0.2-1.6-0.2-2.4c0-2.8,0.5-5.5,1.4-8.2c0.1-0.3,0.3-0.6,0.6-0.8C7,3.2,7.1,3.1,7.1,2.9C6.5,2.8,6.2,2.5,5.8,2.4L5.8,2.4z
	 M30.2,2c-0.3,0-0.4,0.2-0.4,0.6v0.3c0,1-0.2,3.3-0.3,4.4c-0.1,1.9-0.2,3.8-0.2,5.7c0,1.8,0.1,4.1,1.2,5.5c1.1,1.2,2.6,1.9,4.2,1.8
	c3.1-0.1,5.9-1.8,7.3-4.6c0.5-0.9,0.8-1.8,1-2.8c-0.3-0.9-1.1-1.6-2-1.9c-0.4,0-0.4,0.4-0.5,0.8c-0.2,1.3-0.7,2.5-1.5,3.6
	c-1.1,1.4-2.7,2.2-4.5,2.3c-2.6,0-2.5-2.9-2.5-4.8c0-1.4,0.2-9,1.1-9.6c0.1-0.1,0.3-0.2,0.3-0.4c-0.1-0.2-0.3-0.3-0.5-0.3
	C32,2.3,31.1,2.1,30.2,2L30.2,2z M64.7,3.8c-0.4,0-1.8,0.8-1.8,1.3c0,0.2,0.1,0.3,0.2,0.4c1.4,1.5,2.5,3.2,3.2,5.1
	c0.1,0.3,0.3,0.5,0.6,0.6c0.5,0,2-0.9,2-1.4C68.8,9.2,65.6,3.8,64.7,3.8L64.7,3.8z M56,1.4c-0.3,0-0.3,0.3-0.3,0.5
	c0,0.3,0,0.6,0,0.8c0,1-0.1,2.1-0.2,3.1c0,0.4-0.4,0.7-0.8,0.7c-1.3,0.3-2.6,0.6-4,0.7c-0.3,0-0.7,0-0.7,0.4c0,0.1,0.4,2.5,1,2.5
	c0.2,0,0.3-0.1,0.5-0.1c0.9-0.3,1.8-0.6,2.7-0.8c0.2,0,0.3,0.1,0.3,0.3l0,0c-0.2,0.6-0.4,1.2-0.6,1.8c-1,2.5-2.4,4.8-4.3,6.7
	c-0.2,0.1-0.3,0.3-0.3,0.6c0,0.6,1.5,1.5,1.9,1.5c0.2,0,0.3-0.1,0.4-0.2c0.9-1.1,1.7-2.2,2.4-3.5c1.3-2.2,2.4-4.6,3-7.1
	c0.2-0.7,0.4-0.9,1.8-0.9c1.4,0,1.5,1,1.5,2.2c0,1.9-0.4,3.7-1.1,5.4c-0.4,1-1.4,1.6-2.5,1.5c-0.5,0-0.9-0.1-1.1-0.1
	s-0.3,0.2-0.3,0.4c0,0.6,0.2,1.2,0.4,1.7c0.2,0.4,0.6,0.7,1.1,0.6c1.9,0.1,3.7-0.9,4.5-2.6c1.1-1.9,1.4-5.2,1.4-7.4
	c0.2-1.3-0.4-2.7-1.5-3.5C60.4,6.1,59.4,6,58.5,6c-0.1,0-0.2,0-0.3,0c-0.3,0-0.5-0.2-0.5-0.4c0,0,0,0,0-0.1s0-0.2,0-0.3
	c0.1-0.4,0.1-0.7,0.2-1c0-0.6,0.2-1.2,0.6-1.6c0.4,0,0.5-0.1,0.5-0.2C58.9,2.1,58.6,2,58.4,2C58,1.9,56.2,1.4,56,1.4L56,1.4z
	 M74.2,10.5c0,0.5,0.9,1.9,1.5,1.9c0.2,0,0.5-0.1,0.7-0.2c2-1.1,5.2-2.4,7.5-2.4c1.3-0.1,2.5,0.8,2.7,2.2c0,0.1,0,0.2,0,0.2
	c-0.1,1.5-1,2.8-2.4,3.4c-1.3,0.7-2.7,1.1-4.1,1.2c-0.3,0-0.8,0.1-0.8,0.5c0,0.2,0.3,1.8,1.1,1.8c1.3-0.2,2.5-0.5,3.7-1
	c2.5-1.1,4.7-2.9,4.7-5.9c0-2.9-2.2-4.7-5-4.7c-2.3,0-4.8,1-6.9,1.7c-0.7,0.3-1.5,0.5-2.2,0.7C74.5,10,74.2,10.2,74.2,10.5
	L74.2,10.5z M104.2,16c-0.7,0.4-1.2,1-1.5,1.8c0.2,0.6,0.6,1.1,1.2,1.4c1.6,0.8,3.4,1.2,5.1,1.1c1.3,0,2.5-0.1,3.7-0.3
	c0.3-0.3,0.4-0.8,0.3-1.2c0-1,0-1.5-0.4-1.5c-0.1,0-0.2,0-0.2,0.1c-1.1,0.3-2.3,0.5-3.4,0.5c-1.5,0-3.3-0.2-4.3-1.4
	C104.6,16.2,104.4,16.1,104.2,16L104.2,16z M106,10.5c0,0.4,0.1,0.5,0.6,0.5c0.3,0,0.6,0,0.9,0c1.3,0,2.6,0.2,3.8,0.6
	c0.2,0.1,0.3,0.1,0.5,0.1s0.4-0.1,0.4-0.3c0.2-0.5,0.4-1.1,0.5-1.7c0-0.2-0.1-0.4-0.3-0.5c-1.6-0.5-3.2-0.7-4.8-0.7
	C106.5,8.6,106,8.5,106,10.5L106,10.5z M102.9,0.3c-0.2,0-0.2,0.2-0.3,0.6c-0.1,1.5-0.4,2.9-0.9,4.4c-0.2,0.4-0.6,0.4-2.1,0.4
	c-1,0-2-0.1-2.3-0.1c-0.2,0-0.4,0.1-0.4,0.3V6c0,0.6,0.1,1.2,0.2,1.8c0.1,0.5,0.5,0.4,1,0.4c0.7,0,1.8-0.1,2.1-0.1
	c0.2,0,0.4,0.1,0.4,0.3l0,0c0,0.2-0.1,0.4-0.2,0.6c-1.1,3.1-2.5,6.1-4.2,8.9c-0.2,0.2-0.3,0.5-0.4,0.8c0,0.5,1.7,1.3,2,1.3
	c0.4-0.1,0.8-0.5,0.9-0.9c1.8-3.4,3.3-6.9,4.5-10.6c0-0.5,0.5-0.9,1-0.9c1.3-0.2,2.6-0.6,3.9-0.9c0.3-0.1,0.5-0.5,0.5-0.9
	s0-1.8-0.5-1.8c-0.2,0-0.3,0-0.5,0.1c-0.9,0.4-1.8,0.7-2.8,0.9c-0.2,0-0.4-0.1-0.4-0.3l0,0c0-0.1,0.5-1.9,0.6-2.1
	c0-0.4,0.2-0.7,0.6-0.8c0.1,0,0.2-0.1,0.2-0.2c-0.2-0.3-0.5-0.5-0.9-0.5C104.7,0.8,103.1,0.3,102.9,0.3L102.9,0.3z M128.4,5.7
	c0.2,0,0.4,0.2,0.4,0.4c0,0,0,0,0,0.1c-0.1,1.6-0.4,3.1-0.8,4.7c-0.7,2.4-2,5.2-3.2,5.2s-1.5-2.2-1.5-3.1c-0.1-3,1.6-5.7,4.3-6.9
	C127.9,5.8,128.1,5.7,128.4,5.7L128.4,5.7z M130.7,2.9c-5.5,0-9.9,4.4-10,9.8c0,0.1,0,0.2,0,0.3c0,1.2,0.2,2.3,0.7,3.4
	c0.6,1.3,1.8,2.2,3.3,2.3c1.3-0.1,2.4-0.8,3.2-1.8c2.3-2.7,3.1-7,3.4-10.5c0-0.4,0-0.9,0.6-0.9c0.3,0,0.6,0.1,0.9,0.2
	c2.4,0.9,4,3.2,3.8,5.7c0,3.4-2.5,5.5-5.6,6.2c-0.2,0.1-0.6,0.1-0.6,0.3c0,0.5,1,2,1.6,2c0.9-0.2,1.8-0.5,2.6-1
	c2.9-1.5,4.7-4.5,4.7-7.7c0-2.2-0.8-4.4-2.4-5.9C135.3,3.6,133,2.8,130.7,2.9L130.7,2.9z M158.5,16.3c0.1,0.7-0.5,1.3-1.1,1.3
	c-0.1,0-0.2,0-0.4,0c-0.6,0-1.8-0.3-1.8-1c0-0.7,1.2-0.9,1.7-0.9C157.5,15.7,158.5,15.7,158.5,16.3L158.5,16.3z M158.1,1.8
	c-0.2,0-0.3,0.1-0.3,0.3v0.1c0,0.1,0,0.2,0,0.2c0.1,0.6,0.3,2.9,0.3,3.4s-0.6,0.6-1.1,0.6h-0.4c-1.2,0-3.4-0.2-3.7-0.2
	c-0.4,0-0.4,0.3-0.4,0.6c0,0.6,0,1.2,0.2,1.8c0.6,0.2,1.2,0.2,1.8,0.2h0.3c1,0,2.7-0.1,2.9-0.1c0.6,0,0.6,0.7,0.6,0.9
	c0,0.7,0.1,3,0.1,3.6c0,0.2-0.1,0.5-0.4,0.5h-0.1h-0.2c-0.3-0.1-0.6-0.1-0.9-0.1c-1.9,0-3.8,0.9-3.8,3c0,2.2,2.1,3.1,4,3.1
	c1.4,0,3-0.5,3.5-2c0-0.2,0.2-0.4,0.4-0.4c0.7,0.3,1.3,0.8,1.8,1.3c0.2,0.2,0.4,0.3,0.7,0.4c0.7-0.3,1.3-0.9,1.4-1.7
	c-0.1-0.4-0.3-0.7-0.6-0.9c-0.8-0.7-1.7-1.2-2.6-1.7c-0.5-0.1-0.8-0.5-0.8-0.9c0-0.6-0.2-4.3-0.2-4.8c0-0.6,0.3-0.7,0.8-0.8
	c2.8-0.4,3-0.6,3-1s-0.2-2-0.6-2c-0.1,0-0.2,0-0.4,0.1c-0.8,0.3-1.6,0.5-2.4,0.6c-0.3,0-0.5-0.3-0.5-0.5c0,0,0,0,0-0.1V4.6
	c-0.1-0.6,0-1.2,0.3-1.7c0.1-0.1,0.2-0.3,0.3-0.5c0-0.1-0.1-0.2-0.2-0.2C159.8,2.1,158.9,1.9,158.1,1.8L158.1,1.8z M150.4,2.6
	c-0.5-0.3-1-0.5-1.5-0.6c-0.2,0-0.3,0.2-0.3,0.4c-0.3,1.1-0.6,2.1-0.9,3.1c-0.6,2.2-0.8,4.5-0.8,6.7c-0.1,2.5,0.4,5.1,1.4,7.4
	c0.1,0.4,0.4,0.7,0.8,0.8c0.1,0,1.8-0.3,1.8-1.2c0-0.4,0-0.8,0-1.2c0-1.4,1.2-4,1.2-4.4c-0.2-0.4-0.6-0.7-1-0.8
	c-0.3,0.3-0.6,0.6-0.6,1.1c-0.1,0.3-0.2,0.7-0.5,0.9c-0.5,0-0.5-2.3-0.5-2.7c0-2.5,0.5-5,1.3-7.3c0.1-0.5,0.5-1,1-1.2
	c0.1,0,0.2-0.1,0.2-0.2c-0.1-0.3-0.4-0.4-0.6-0.5C151,2.9,150.7,2.7,150.4,2.6L150.4,2.6z M170.7,16.6c0.1,0.2,0.2,0.4,0.4,0.4
	c1.4,0.9,2.6,2,3.6,3.3c0.1,0.2,0.3,0.3,0.5,0.4c0.8-0.3,1.5-1,1.8-1.8c0-0.6-4.1-3.9-4.7-3.9C171.6,15.3,171,15.9,170.7,16.6
	L170.7,16.6z M203.9,17.2c0.2,0,0.4,0.1,0.4,0.3l0,0c0,0.1,0,0.2-0.1,0.2c-0.2,0.2-0.3,0.5-0.4,0.7c0,0.2,0.1,0.3,0.3,0.4
	c0.9,0.6,1.9,1,2.9,1.4c1.3,0.5,2.6,0.9,3.9,1.2c0.7,0,1.1-1.3,1.1-1.6c0-0.3-0.2-0.4-0.9-0.6c-1.7-0.4-3.5-1-5.1-1.7
	c-0.1,0-0.2-0.2-0.3-0.3c0-0.1,0.1-0.2,0.2-0.2h2.7c1,0,1.9,0,2.8,0c0.5,0,0.5-0.3,0.5-0.9c0-0.7,0-1-0.5-1c-0.9,0-1.9,0-2.8,0
	h-14.5c-0.9,0-1.9,0-2.8,0c-0.5,0-0.5,0.2-0.5,1c0,0.7,0,0.9,0.5,0.9c0.9,0,1.9,0,2.8,0h2.8c0.1,0,0.2,0.1,0.3,0.2
	c0,0.1-0.1,0.2-0.2,0.2c-1.7,0.8-3.5,1.3-5.4,1.6c-0.5,0.1-0.9,0.1-0.9,0.5c0,0.3,0.6,1.7,1.1,1.7c0.3,0,0.6-0.1,0.9-0.2
	c2-0.5,3.9-1.2,5.8-2.1c0.1-0.1,0.3-0.1,0.4-0.2c0.1,0,0.2,0,0.2,0.1c0.1,0,0.1,0,0.2,0c0.1,0,0.3-0.1,0.3-0.2
	c0-0.2-0.1-0.3-0.3-0.4c-0.3-0.3-0.5-0.6-0.7-1c0-0.2,0.2-0.3,0.4-0.3l0,0L203.9,17.2L203.9,17.2z M205.2,11.5
	c0.3,0,0.6,0.2,0.6,0.5l0,0v0.1c0,0.3-0.2,0.5-0.5,0.6c0,0,0,0-0.1,0h-7.3c-0.3,0-0.5-0.2-0.6-0.5c0,0,0,0,0-0.1V12
	c0-0.3,0.2-0.5,0.5-0.6c0,0,0,0,0.1,0h7.3V11.5z M205.3,9c0.2,0,0.4,0.2,0.5,0.4c0,0,0,0,0,0.1v0.2c0,0.3-0.2,0.5-0.4,0.5l0,0h-7.5
	c-0.2,0-0.4-0.2-0.5-0.4c0,0,0,0,0-0.1V9.4c0-0.2,0.1-0.4,0.4-0.5h0.1h7.4V9z M197.8,7.5c-0.2,0-0.4-0.2-0.5-0.4c0,0,0,0,0-0.1V6.8
	c0-0.2,0.2-0.4,0.4-0.5c0,0,0,0,0.1,0h7.5c0.2,0,0.4,0.2,0.5,0.4V7c0,0.2-0.2,0.5-0.4,0.5l0,0H197.8z M200.3,4.2
	c0.1,0.3-0.1,0.5-0.4,0.6c-0.1,0-0.1,0-0.2,0h-1.9c-0.6,0-1.2-0.1-1.8-0.1c-0.5-0.1-1,0.2-1.1,0.6c0,0.1,0,0.2,0,0.4
	c0,0.5,0,1,0,1.5v4.6c0,0.5,0,1,0,1.5c0,0.8,0.4,1,1.2,1c0.6,0,1.2-0.1,1.8-0.1h7.5c0.6,0,1.2,0.1,1.8,0.1c0.5,0.1,1-0.2,1.1-0.7
	c0-0.1,0-0.3,0-0.4c0-0.5,0-1,0-1.5V7.3c0-0.5,0-1,0-1.5c0-0.8-0.4-1-1.2-1c-0.6,0-1.2,0.1-1.8,0.1h-1.9c-0.3,0.1-0.5-0.1-0.6-0.4
	c0-0.1,0-0.1,0-0.2V4.1c0-0.3,0.1-0.5,0.4-0.6c0.1,0,0.1,0,0.2,0h4.4c0.9,0,1.8,0.1,2.7,0.1c0.5,0,0.5-0.3,0.5-0.9s0-0.9-0.5-0.9
	c-0.9,0-1.8,0.1-2.7,0.1h-4.3c-0.3,0.1-0.6-0.1-0.6-0.4l0,0c0-0.2,0.1-0.3,0.2-0.4c0.2-0.1,0.3-0.2,0.3-0.4s-0.4-0.3-0.6-0.3
	c-0.4-0.1-1.9-0.2-2.3-0.2c-0.2,0-0.5,0.1-0.5,0.3c0,0.1,0.1,0.6,0.1,0.7c0.1,0.3-0.1,0.6-0.4,0.7c-0.1,0-0.2,0-0.2,0h-4.3
	c-0.9,0-1.8-0.1-2.7-0.1C192,1.8,192,2,192,2.7s0,0.9,0.5,0.9c0.9,0,1.8-0.1,2.7-0.1h4.4c0.3-0.1,0.5,0.1,0.6,0.4c0,0.1,0,0.1,0,0.2
	L200.3,4.2L200.3,4.2z M231.8,10.3c0.2,0,0.5,0.2,0.5,0.4l0,0V11c0,0.2-0.2,0.4-0.4,0.5l0,0h-8c-0.2,0-0.4-0.2-0.5-0.4l0,0v-0.2
	c0-0.2,0.2-0.4,0.5-0.5h7.9V10.3z M231.8,7.9c0.2,0,0.5,0.2,0.5,0.4l0,0v0.1c0,0.2-0.1,0.4-0.4,0.5h-0.1h-8c-0.2,0-0.4-0.2-0.5-0.4
	l0,0V8.3c0-0.2,0.2-0.4,0.5-0.5L231.8,7.9L231.8,7.9z M232.3,6c0,0.2-0.1,0.4-0.4,0.5h-0.1h-8c-0.2,0-0.5-0.2-0.5-0.4l0,0V5.9
	c0-0.2,0.2-0.4,0.4-0.5l0,0h8c0.2,0,0.4,0.1,0.5,0.4v0.1V6H232.3z M229,15.7c0.4,0,0.7,0,0.7,0.2c-0.5,0.4-1,0.8-1.6,1
	c-0.2,0.1-0.3,0.1-0.5,0.1s-0.4-0.1-0.6-0.2c-0.4-0.2-0.8-0.5-1.2-0.8c-0.1,0-0.1-0.1-0.1-0.2c0-0.1,0.1-0.2,0.2-0.2l0,0h3.1V15.7z
	 M228.2,19.7c2.9,1.1,6,1.8,9.1,1.9c0.9,0,1.2-0.8,1.2-1.6c0-0.7-0.2-0.7-0.6-0.7c-2.3,0-4.7-0.3-7-0.9c-0.1,0-0.2-0.1-0.2-0.3
	c0-0.1,0.1-0.2,0.2-0.2c0.8-0.4,1.5-0.9,2.2-1.5c0.3-0.2,0.5-0.5,0.6-0.8c-0.1-0.8-0.7-1.5-1.5-1.6c-0.7,0-1.4,0-2.1,0h-3
	c-0.1,0-0.2-0.1-0.3-0.2c0-0.1,0-0.2,0.1-0.2c0.1-0.2,0.3-0.3,0.5-0.4c0.3-0.3,0.8-0.5,1.2-0.4h3c0.6,0,1.3,0,1.9,0
	c0.7,0,1.3-0.1,1.3-1c0-0.5,0-1,0-1.5v-4c0-0.5,0-1,0-1.5c0-0.9-0.6-1-1.3-1c-0.6,0-1.3,0-1.9,0h-2.9c-0.2,0-0.4-0.1-0.4-0.3
	c0,0,0,0,0-0.1s0-0.1,0-0.2c0-0.1,0.1-0.2,0.1-0.3c0.1-0.3,0.4-0.5,0.8-0.5h6.1c1,0,1.9,0.1,2.9,0.1c0.5,0,0.5-0.3,0.5-1s0-1-0.5-1
	c-1,0-1.9,0.1-2.9,0.1h-14.4c-0.9,0-1.9-0.1-2.9-0.1c-0.5,0-0.5,0.3-0.5,1s0,1,0.5,1c1,0,1.9-0.1,2.9-0.1h4.5c0.2,0,0.4,0.1,0.4,0.3
	c0,0,0,0,0,0.1s0,0.1,0,0.2l-0.1,0.3c-0.1,0.3-0.5,0.5-0.8,0.5h-0.4c-0.6,0-1.3,0-1.9,0c-0.7,0-1.3,0.1-1.3,1c0,0.5,0,1,0,1.5v4
	c0,0.5,0,1,0,1.4c0,0.9,0.6,1,1.3,1c0.6,0,1.2,0,1.7,0c0.1,0,0.2,0.1,0.2,0.2c0,0.1,0,0.2-0.1,0.2c-1.7,1.1-3.5,2-5.4,2.5
	c-0.6,0.2-1,0.2-1,0.6c0,0.4,0.3,1.4,1,1.4c1.3-0.3,2.5-0.7,3.7-1.2c0.1,0,0.3-0.1,0.4-0.1c0.2,0,0.4,0.1,0.6,0.3
	c0.4,0.4,0.8,0.7,1.3,1.1c0.1,0.1,0.1,0.2,0.1,0.3c0,0.1-0.1,0.3-0.2,0.3c-2,0.6-4,0.9-6.1,1c-0.7,0.1-1.3,0-1.3,0.6
	c0,0.4,0.1,0.7,0.3,1.1c0.1,0.4,0.4,0.7,0.8,0.7c0.3,0,1-0.1,1.3-0.1c2.6-0.3,5.1-0.9,7.6-1.8c0.2-0.1,0.3-0.1,0.5-0.1
	C227.9,19.6,228,19.6,228.2,19.7L228.2,19.7z M252.7,14.4c-0.5,0-1.3,1.7-1.3,2c0,0.4,1.6,2.4,5.5,2.4c1.9,0,3.8-0.3,5.7-0.7
	c0.2-0.2,0.4-0.6,0.3-0.9c0-1.2,0-1.8-0.4-1.8c-0.2,0-0.3,0-0.5,0.1c-1.7,0.5-3.5,0.8-5.3,0.8c-1.4,0.1-2.8-0.5-3.6-1.7
	C252.9,14.5,252.8,14.4,252.7,14.4z M253.2,4c-0.4,0-0.5,0.4-0.5,1.5c-0.1,0.3,0,0.7,0.2,0.9c1.4,0.3,2.8,0.5,4.2,0.5
	c1.4,0,2.7-0.1,4-0.3c0.5-0.1,0.5-0.3,0.5-0.8c0-0.4,0-0.9-0.1-1.3c0-0.3-0.2-0.5-0.5-0.6c-0.1,0-0.3,0-0.4,0.1
	c-1.2,0.3-2.4,0.5-3.6,0.5c-1.1,0-2.1-0.1-3.1-0.4C253.7,4.1,253.5,4,253.2,4L253.2,4z M247.5,2.2c-0.2,0.1-0.4,0.3-0.4,0.5
	c-0.1,0.4-0.2,0.8-0.3,1.2c-0.8,2.6-1.2,5.2-1.2,7.9c-0.1,2.5,0.4,5.1,1.5,7.4c0.1,0.5,0.5,1,1,1.2c0.5,0,1.9-0.6,1.9-1.2
	c0-0.1,0-0.2,0-0.4c0-0.2-0.1-0.8-0.1-1c0.2-1.2,0.5-2.4,1-3.5c-0.2-0.4-0.5-0.7-0.9-0.8c-0.3,0.1-0.4,0.3-0.5,0.6
	c-0.1,0.4-0.3,0.7-0.6,0.9c-0.6,0-0.6-2.9-0.6-3.4c0-2.3,0.5-4.6,1.3-6.8c0.1-0.4,0.4-0.8,0.7-1c0.2-0.2,0.3-0.2,0.3-0.3
	c-0.1-0.2-0.3-0.4-0.5-0.4C249.7,3,247.7,2.2,247.5,2.2L247.5,2.2z M278.1,0.8c-0.4-0.2-0.8-0.3-1.2-0.4c-0.2,0-0.3,0.2-0.4,0.5
	c-0.2,0.7-0.7,2.4-0.9,3.2c0,0.3-0.2,0.6-0.6,0.6c-0.1,0-0.2,0-0.3-0.1c-0.6-0.2-1.1-0.5-1.6-0.8c-0.2-0.1-0.3-0.2-0.6-0.3
	c-0.5,0-0.9,1.7-0.9,2.1s0.5,0.7,2.2,1.3c0.4,0.1,0.7,0.4,0.8,0.8c0,0.2-0.1,0.3-0.1,0.5c-0.1,0.4-0.2,0.7-0.2,0.9
	c-0.1,0.7-0.2,1-0.6,1c-0.6-0.1-1.1-0.3-1.5-0.7c-0.2-0.1-0.4-0.2-0.6-0.2c-0.6,0-0.8,1.9-0.8,2c0,0.3,0.2,0.5,0.5,0.6
	c0.5,0.2,0.9,0.4,1.4,0.6c0.5,0,0.9,0.4,1,0.8c0,0.2-0.1,1.2-0.1,1.8c0,3.7,2.1,5.7,5.8,5.7c3.2,0,6.6-1.3,6.6-5
	c0-1.4-0.3-2.9-0.8-4.2c-0.2-0.5-0.3-0.9-0.6-0.9c-0.3,0-2,0.3-2,0.9c0,0.1,0,0.3,0.1,0.4c0.5,1.1,0.7,2.3,0.8,3.5
	c0,0.6-0.1,1.2-0.5,1.7c-1,0.8-2.2,1.2-3.5,1.1c-1.6,0.2-3-0.9-3.2-2.5c0-0.2,0-0.5,0-0.7c0-1,0-1.6,0.6-1.6c0.1,0,0.3,0,0.4,0.1
	c0.6,0.1,1.7,0.2,2.3,0.2c0.3,0,0.6-0.2,0.7-0.6c0.2-0.5,0.3-1.1,0.3-1.6c0-0.2-0.1-0.4-0.7-0.4c-0.7,0-1.4,0-2.2-0.1
	c-0.3,0-0.8-0.1-0.8-0.6c0-0.2,0.3-1.7,0.4-2c0-0.3,0.3-0.6,0.6-0.6c0.1,0,0.1,0,0.2,0.1c1.1,0.2,2.2,0.3,3.3,0.4
	c0.3,0,0.5-0.2,0.5-0.5c0.1-0.5,0.2-1,0.3-1.6c0-0.5-0.4-0.4-0.8-0.4c-0.8,0-1.6-0.1-2.4-0.2c-0.3,0-0.6-0.2-0.6-0.5l0,0
	c0-0.1,0-0.2,0.1-0.3c0.2-0.6,0.4-1.2,0.6-1.8c0.1-0.5,0.4-0.9,0.8-1.1c0.1,0,0.2-0.1,0.2-0.3C279.7,1.3,278.5,1,278.1,0.8
	L278.1,0.8z M300.4,2.2c-0.3,0.1-0.5,0.3-0.6,0.6c-0.4,0.8-1,1.4-1.8,1.7c-1.2,0.4-2.5,0.7-3.7,0.8c-0.5,0.1-0.7,0.1-0.7,0.4
	c0.1,0.7,0.3,1.3,0.6,1.9c0.1,0.2,0.3,0.4,0.5,0.5c0.4-0.1,0.7-0.2,1.1-0.4c0.3-0.1,0.5-0.2,0.8-0.3c0.1,0,0.2,0.1,0.2,0.1
	c0,0.1-0.1,0.2-0.1,0.2c-1.3,2-2.1,4.4-2.2,6.8c0,3.5,2.2,5.9,5.8,5.9c2.7,0,5.2-1.5,6.4-3.9c0.8-1.8,1.2-3.6,1.1-5.6
	c0-0.4,0-0.7,0-1.1c0-0.1,0-0.3,0.2-0.3c0.3,0.3,0.5,0.6,0.6,1c0.2,0.3,0.6,1.3,1,1.3c0.3,0,1.9-0.8,1.9-1.3
	c-0.1-0.3-0.2-0.5-0.4-0.7c-1.7-2-2.9-4.4-3.5-7c-0.1-0.5-0.1-0.8-0.7-0.8c-0.5,0-2.2,0.3-2.2,0.8c0,0.1,0,0.2,0.1,0.3
	c0.8,1.9,1.1,4,1.1,6.1c0,2.2-0.2,5-1.6,6.8c-1,1.3-2.5,2-4.1,2c-2.3,0-3.3-1.6-3.3-3.7c0.1-2,0.7-4,1.8-5.7
	c0.8-1.5,1.9-2.8,3.1-3.9c0.3-0.2,0.5-0.5,0.7-0.8C302.1,3,301.3,2.4,300.4,2.2L300.4,2.2z M325.9,17.5c0.1,0.4-0.2,0.8-0.6,0.8l0,0
	c-0.7,0-1.9-0.4-1.9-1.3c0-0.5,0.5-1,1-1l0,0C325.2,16.1,325.9,16.7,325.9,17.5L325.9,17.5z M328.2,1.9c-0.3,0-0.6,0.1-0.9,0.3
	c-2,0.6-4,0.9-6.1,0.9h-0.6c-0.7,0-0.7,0-0.7,0.6c0,0.4,0.1,2.2,0.6,2.2c0.4,0,3.8-0.7,4.3-0.8c0.1,0,0.5-0.1,0.6-0.1
	c0.2,0,0.4,0.1,0.4,0.3l0,0c-0.1,0.3-0.3,0.6-0.6,0.9c-2.3,2.6-4.8,5.2-7.5,7.5c-0.3,0.2-0.5,0.4-0.6,0.7c0.3,0.8,0.9,1.4,1.7,1.7
	c0.1,0,0.2-0.1,0.3-0.2c0.9-1,1.7-2,2.7-2.9c1.4-1.5,3.3-2.4,5.4-2.3c2.1,0,4.1,1,4.1,3.3c0,1.7-1.2,3.2-2.9,3.7
	c-0.2,0-0.3-0.1-0.3-0.3c0-0.5-0.1-1.1-0.4-1.5c-0.7-1.1-1.9-1.7-3.2-1.7c-1.6,0-3,1.3-3.1,2.9c0,2.4,2.8,3.3,4.8,3.3
	c3.9,0,7.6-2.2,7.6-6.5c0.1-2-1.1-3.8-2.9-4.7c-0.9-0.5-1.9-0.7-3-0.7c-0.3,0-0.7,0-1,0.1c-0.1,0-0.2,0-0.3,0
	c-0.2,0-0.4-0.1-0.4-0.3l0,0c0-0.2,0.1-0.3,0.2-0.4c1-1.2,2.2-2.3,3.5-3.2c0.2-0.1,0.4-0.3,0.5-0.5C330.5,3.8,329.1,1.9,328.2,1.9
	L328.2,1.9z M347.6,16.2c0.6,0,1.1,0,1.1,0.5c0,1.3-0.9,1.6-2,1.6c-0.6,0-1.7-0.2-1.7-1C344.9,16.3,346.8,16.2,347.6,16.2
	L347.6,16.2z M348.4,1.2c-0.2,0-0.4,0.1-0.4,0.3c0,0.1,0,0.3,0,0.4c0.1,0.4,0.2,2,0.2,2.4c0,0.7-0.6,0.6-2.7,0.6
	c-1.2,0-3.2-0.2-3.7-0.2c-0.4,0-0.4,0.3-0.4,0.7c0,0.6,0.1,1.2,0.3,1.8c0.4,0.2,0.9,0.3,1.4,0.2h0.7c1.3,0,3.2-0.1,4.1-0.1
	c0.6,0,0.6,1,0.6,1.7c0,0.5-0.3,0.6-1.2,0.6h-1.1c-0.9,0-2.3-0.1-2.5-0.1s-0.4,0.2-0.4,0.4V10c0,0.6,0.1,1.1,0.3,1.7
	c0.2,0.4,0.6,0.4,1.6,0.4s2.4-0.1,2.9-0.1c0.6,0,0.6,0.9,0.6,1.7c0,0.2,0,0.7-0.4,0.7c-0.1,0-0.7-0.1-1-0.1c-2,0-4.6,0.8-4.6,3.2
	c0,2.2,2.1,3.1,4,3.1s3.8-0.6,4.3-2.7c0-0.3,0.2-0.5,0.5-0.5c0.9,0.3,1.8,0.8,2.5,1.5c0.2,0.2,0.5,0.3,0.7,0.4
	c0.6,0,1.4-1.2,1.4-1.8c0-0.9-3.2-2.2-4-2.5c-1-0.3-1.1-0.2-1.1-2.6c0-0.7,0.5-0.7,1.4-0.8c0.8-0.1,1.7-0.2,2.5-0.4
	c0.4-0.1,0.5-0.3,0.5-1.1c0-0.9-0.1-1.4-0.4-1.4c-0.2,0-0.3,0-0.5,0.1c-1,0.3-2,0.5-3.1,0.6c-0.2,0-0.4-0.2-0.4-0.4
	c-0.1-0.4-0.1-0.8-0.1-1.3c0-0.7,0.6-0.7,1.1-0.7c1.3-0.1,2.8-0.4,4-0.6c0.5-0.1,0.7-0.2,0.7-0.6s-0.1-2-0.6-2
	c-0.3,0-0.6,0.1-0.9,0.2c-0.9,0.2-1.7,0.4-2.6,0.6c-0.2,0-1.1,0.2-1.2,0.2c-0.3,0-0.5-0.3-0.5-0.6V4.1c0-1.9,0.5-1.5,0.5-2
	c0-0.3-0.3-0.3-1-0.4C349.9,1.4,348.7,1.2,348.4,1.2L348.4,1.2z M373.7,16.6c1.2,0,1.2,0.3,1.2,0.7c0.1,0.6-0.3,1.2-0.9,1.3
	c-0.1,0-0.2,0-0.3,0c-0.6,0-1.6-0.4-1.6-1.1C372.1,16.8,373.1,16.6,373.7,16.6L373.7,16.6z M374.9,8.2c-0.3-0.1-0.5,0.1-0.6,0.4v0.1
	c0,0.1,0,0.2,0,0.3c0.1,0.9,0.4,4.4,0.4,5.2c0,0.2-0.2,0.4-0.4,0.4c0,0,0,0-0.1,0h-0.6c-1.9,0-4,0.8-4,3c0,2.2,2.3,3.3,4.2,3.3
	c1.6,0,3-0.6,3.3-2.3c0-0.3,0.1-0.5,0.4-0.6c0.7,0.3,1.3,0.6,1.9,1.1c0.2,0.2,0.4,0.3,0.6,0.3c0.6,0,1.5-1.4,1.5-1.8
	c0-0.6-2.8-1.9-3.4-2.1l-0.2-0.1c-0.3,0-0.6-0.3-0.7-0.6c-0.1-0.5-0.2-4-0.2-4.7c0-0.5,0-1.2,0-1.3c0-0.3-0.2-0.5-0.5-0.5
	C376,8.3,375.4,8.2,374.9,8.2L374.9,8.2z M378.5,4.5c-0.7,0.3-1.3,0.9-1.6,1.7c0,0.2,0.2,0.3,0.3,0.4c1.2,0.9,2.2,1.9,3,3.1
	c0.1,0.2,0.3,0.4,0.5,0.4c0.8-0.3,1.5-0.9,1.8-1.7C382.6,7.8,379.1,4.5,378.5,4.5L378.5,4.5z M370.5,0.6c-0.2,0-0.2,0.2-0.2,0.4
	c-0.1,1.4-0.3,2.7-0.8,4c-0.2,0.2-0.4,0.4-0.7,0.4c-0.8,0.1-1.6,0.1-2.5,0.1h-1.1c-0.2,0-0.4,0.1-0.4,0.2v0.1c0,0.2,0.1,1.1,0.2,1.4
	c0.1,0.6,0.2,0.8,0.6,0.8c0.6,0,2.4-0.2,2.6-0.2s0.3,0.1,0.3,0.3c-0.1,0.5-0.3,1-0.6,1.5c-0.8,1.9-1.8,3.8-2.9,5.5
	c-0.2,0.3-0.3,0.5-0.4,0.9c0,0.5,1.6,1.2,2.1,1.2c0.2,0,0.4-0.1,0.5-0.3c1.5-2.7,2.8-5.6,3.9-8.5c0.3-0.8,0.3-1,1.1-1.1
	c2.2-0.4,2.5-0.4,2.5-1c0-0.4-0.1-0.8-0.1-1.3c0-0.3-0.1-0.7-0.4-0.7c-0.1,0-0.2,0-0.2,0c-0.4,0.2-0.9,0.3-1.4,0.4
	c-0.2,0-0.3-0.1-0.3-0.3l0,0c0.1-0.4,0.2-0.7,0.3-1.1c0.1-0.4,0.2-0.9,0.4-1.3c0.2-0.1,0.3-0.2,0.4-0.4c-0.1-0.2-0.2-0.3-0.4-0.3
	C372.7,1.1,370.7,0.6,370.5,0.6L370.5,0.6z M401.2,6.1c0,0.2,0.1,0.3,0.2,0.4c2.1,1.7,3.4,4.2,3.6,6.8c0,0.6,0,0.9,0.8,0.9
	c0.5,0,0.9-0.1,1.3-0.2c0.4,0,0.7-0.3,0.6-0.7l0,0c-0.1-1.7-0.6-3.4-1.4-5c-1.2-2.2-3.2-3.7-3.7-3.7C401.9,4.8,401.4,5.4,401.2,6.1
	L401.2,6.1z M390.4,4.5c-0.2,0-0.3,0.1-0.3,0.3l0,0c0,0.2-0.1,3.3-0.1,3.7c0,2.5,0.2,5.6,1.4,7.8c0.8,1.5,2.2,3.1,4,3.1
	c1-0.1,2-0.6,2.6-1.5c0.6-0.6,1.1-1.3,1.4-2.1c-0.3-0.7-1-1.2-1.7-1.4c-0.3,0.1-0.5,0.3-0.6,0.6c-0.3,0.5-1,1.6-1.7,1.6
	c-0.8,0-1.6-1.4-1.9-2.1c-0.6-1.6-0.8-3.3-0.8-5c0-0.9,0.1-1.7,0.2-2.5c0-0.4,0.2-0.8,0.4-1.2c0.1-0.1,0.2-0.2,0.2-0.3
	c0-0.2-0.3-0.3-0.5-0.3C392.4,5,390.7,4.5,390.4,4.5L390.4,4.5z M429,11.8c0-0.4,0.3-0.7,0.7-0.7h1.1c0.4,0,0.7,0.3,0.7,0.7V13
	c0,0.4-0.3,0.7-0.7,0.7h-1.1c-0.4,0-0.7-0.3-0.7-0.7V11.8z M426.1,11.1c0.4,0,0.7,0.3,0.7,0.7V13c0,0.4-0.3,0.7-0.7,0.7h-0.9
	c-0.4,0-0.7-0.3-0.7-0.7v-1.2c0-0.4,0.3-0.7,0.7-0.7H426.1z M431.5,6.4c0.4-0.1,0.7,0.1,0.9,0.5c0.3,0.7,0.5,1,0.9,1
	s1.6-0.4,1.6-0.9c-0.4-1-0.9-1.9-1.5-2.8c-0.3-0.5-1.1-1.7-1.3-2.1c-0.1-0.2-0.3-0.3-0.5-0.3c-0.4,0-1.7,0.4-1.7,0.8
	c0.2,0.4,0.4,0.7,0.6,1c0.1,0.1,0.2,0.3,0.3,0.5c0,0.2-0.2,0.3-0.4,0.3c-1.2,0.1-2.4,0.2-3.5,0.2c-0.2,0-0.4-0.1-0.4-0.3
	c0-0.1,0-0.2,0.1-0.2c0.4-0.9,0.9-1.7,1.3-2.6c0.1-0.1,0.2-0.2,0.4-0.2c0.2,0,0.4-0.1,0.4-0.3c-0.2-0.3-0.5-0.5-0.8-0.5
	c-0.6-0.2-1.2-0.4-1.8-0.5c-0.2,0.1-0.3,0.3-0.3,0.5c-0.4,1.3-0.9,2.6-1.5,3.8c-0.1,0.4-0.5,0.6-0.9,0.6h-0.7c-1,0-1.2,0-1.2,0.3
	c0,0.1,0.4,1.9,0.4,2.1s0.2,0.3,0.3,0.4c0.1,0,0.3-0.1,0.3-0.3c0-0.1,0.2-0.2,0.3-0.2c1.1-0.1,2.2-0.2,3.2-0.3
	c0.3,0,0.6,0.2,0.7,0.5c0,0,0,0,0,0.1c0,0.4,0,0.6,0,1c0,0.3-0.2,0.6-0.5,0.6c-0.1,0-0.1,0-0.2,0h-0.7c-0.7,0-1.3,0-1.7,0
	c-1.1,0-1.4,0.1-1.4,0.9c0,0.4,0,0.8,0,1.3v3.2c0,0.5,0,1,0,1.4c0,0.7,0.2,0.6,1.1,0.6s1.2,0,1.2-0.4c0-0.3,0.1-0.3,0.9-0.3h0.7
	c0.3-0.1,0.6,0.2,0.7,0.5c0,0.1,0,0.1,0,0.2V18c0.1,0.3-0.2,0.6-0.5,0.7h-0.1c-1.3,0.1-2.7,0.2-4,0.2c-0.9,0-1.2,0.1-1.2,0.3
	c0.1,0.4,0.1,0.9,0.2,1.3c0.2,0.9,0.3,1.3,0.6,1.3c0.2,0,0.3-0.2,0.3-0.3c0-0.1,0.1-0.2,0.3-0.3c3.1-0.3,6.2-0.6,9.3-1h0.2
	c0.3,0,0.6,0.2,0.7,0.5c0.3,0.8,0.4,1.1,0.8,1.1c0.2,0,1.7-0.4,1.7-0.9c-0.3-0.8-0.6-1.5-1.1-2.2c-0.3-0.6-0.7-1.2-1.1-1.9
	c-0.1-0.2-0.3-0.3-0.5-0.3c-0.3,0-1.7,0.4-1.7,0.8c0.1,0.2,0.2,0.4,0.3,0.6c0,0.1,0,0.1,0,0.2c0,0.2-0.2,0.3-0.3,0.3l-0.9,0.1
	c-0.3,0.1-0.6-0.1-0.6-0.4c0-0.1,0-0.2,0-0.2v-1.3c-0.1-0.3,0.2-0.6,0.5-0.7c0.1,0,0.1,0,0.2,0h0.9c0.6,0,1.3,0,2,0
	c0.6,0,1.1-0.1,1.1-0.8c0-0.4,0-0.8,0-1.3v-2.4c0-0.4,0-0.9,0-1.3c0-0.7-0.4-0.8-1.4-0.8c-0.5,0-1,0-1.7,0h-0.9
	c-0.3,0.1-0.6-0.1-0.6-0.4c0-0.1,0-0.2,0-0.2c-0.1-0.4,0-0.8,0.3-1.1c0.2-0.1,0.3-0.2,0.4-0.4c0-0.3-0.4-0.3-0.6-0.3c0,0,0,0,0-0.1
	c0.1,0,0.2-0.1,0.3-0.1L431.5,6.4z M416.2,10.5c0-0.4,0.1-0.7,0.1-1c0.1-1.5,0.1-1.5,0.8-1.5h0.8c0.2,0.1,0.4,0.2,0.5,0.4
	c0.2,0.1,0.5,0.2,0.8,0.2h0.3c0.8,0,1.2,0,1.2-0.6c0-0.7,0-1.3,0-2V3.7c0-0.7,0-1.3,0-2c0-0.8-0.5-0.9-1.2-0.9c-0.5,0-0.9,0-1.4,0
	h-2.3c-0.6,0-1.1,0-1.5,0c-0.6,0-0.6,0.2-0.6,1.2s0,1.2,0.6,1.2c0.4,0,0.9-0.1,1.5-0.1h1.9c0.3-0.1,0.6,0.1,0.7,0.4
	c0,0.1,0,0.1,0,0.2v1.4c0.1,0.3-0.1,0.6-0.4,0.7c-0.1,0-0.2,0-0.2,0H417c-0.5,0-0.9,0-1.4,0c-0.5-0.2-1,0.1-1.2,0.6
	c0,0.1-0.5,4.7-0.5,5.3c0,0.3-0.2,1.6-0.2,1.7c0,0.6,1,0.6,1.4,0.6c0.3,0.1,0.5,0,0.7-0.2c0.1-0.2,0.3-0.4,0.6-0.4h0.9
	c0.6,0,1-0.1,1,0.6c0,1.4-0.2,2.7-0.5,4.1c-0.1,0.6-0.6,1.1-1.3,1c-0.1,0-0.1,0-0.2,0c-0.4,0-1-0.1-1.3-0.1c-0.5,0-0.5,0.4-0.5,0.8
	c0,2,0.8,1.9,1.5,1.9c2,0,3.1-0.4,3.8-2.4c0.6-2.2,0.9-4.4,0.9-6.6c0-0.8-0.1-1.4-1.1-1.4c-0.5,0-0.9,0-1.4,0h-1.3
	c-0.3,0.1-0.5-0.1-0.6-0.4C416.2,10.7,416.2,10.6,416.2,10.5L416.2,10.5z M447.9,0.9c-0.3,0-2.3,0.5-2.3,1c0,0.1,0.1,0.3,0.2,0.4
	c0.7,0.9,1.3,1.9,1.8,2.9c0,0.3-0.3,0.5-0.6,0.5c-1.6,0.3-3.2,0.5-4.8,0.5c-0.3,0-0.6,0.1-0.6,0.4c0,0.4,0.1,0.9,0.3,1.3
	c0.2,0.7,0.3,0.9,0.9,0.9c1.9-0.1,3.8-0.4,5.7-0.9c0.1,0,0.2-0.1,0.3-0.1c0.4,0.1,0.8,0.4,0.9,0.8c0.5,0.9,0.9,1.5,1.4,2.3
	c0.1,0.1,0.1,0.2,0.1,0.4c0,0.1-0.1,0.2-0.3,0.2c-0.1,0-0.2,0-0.3-0.1c-0.9-0.4-2-0.7-3-0.7c-2.7,0-5.1,1.7-5.1,4.6
	c0,2.8,2.3,4.3,4.8,4.9c1.3,0.3,2.7,0.5,4.1,0.6c0.3,0.1,0.7-0.1,0.8-0.4c0.2-0.5,0.2-1,0.2-1.5c0-0.4-0.1-0.8-0.6-0.8
	c-0.3,0-0.8,0-1.3,0c-1.8,0-5.5-0.5-5.5-3c0.1-1.3,1.2-2.2,2.5-2.1l0,0c2,0.2,4,0.9,5.7,2c0.3,0.2,0.6,0.4,0.9,0.5
	c0.8-0.2,1.4-0.8,1.7-1.6c0-0.3-0.2-0.5-0.4-0.7c-1.4-1.6-2.5-3.4-3.5-5.3c-0.2-0.3-0.4-0.6-0.4-0.9c0.1-0.4,0.4-0.6,0.8-0.7
	c0.8-0.3,1.5-0.6,2.2-1c0.3-0.1,0.6-0.3,0.7-0.6c-0.2-0.8-0.8-1.5-1.5-1.9c-0.2,0-0.5,0.1-0.6,0.3c-0.8,0.5-1.7,1-2.6,1.3
	c-0.3,0-0.5-0.2-0.6-0.5c-0.5-0.9-1-1.9-1.5-2.8C448.4,1.1,448.2,0.9,447.9,0.9L447.9,0.9z M466.6,15.4c1.2,0,2.1,0.9,2.1,2.1l0,0
	c0,1.2-1,2.1-2.1,2.1c-1.2,0-2.1-1-2.1-2.1C464.4,16.3,465.4,15.4,466.6,15.4L466.6,15.4z M466.6,14.2c-1.8,0-3.3,1.5-3.3,3.3
	s1.5,3.3,3.3,3.3s3.3-1.5,3.3-3.3S468.4,14.2,466.6,14.2L466.6,14.2L466.6,14.2z M13,46.2c-0.2,0-0.4,0.1-0.6,0.2
	c-2.2,0.6-4.4,1-6.6,1.2c-0.4,0.1-0.7,0.1-0.7,0.5s0.3,2.2,0.9,2.2c0.2,0,0.4-0.1,0.6-0.1c0.4-0.1,2.9-0.8,3-0.8s0.2,0.1,0.2,0.2
	l0,0c0,0.1-0.1,0.2-0.2,0.3c-1.9,1.8-4.4,4.1-6.4,5.7c-0.4,0.4-1,0.6-1.5,0.7c-0.7,0.3-1,0.3-1,0.7c0,0.5,0.4,2.1,1,2.1
	c0.2,0,0.4-0.1,0.6-0.2c1-0.4,3.3-1.2,4.2-1.4C6.9,57.4,8.1,57,8.3,57c0.1,0,0.2,0.1,0.2,0.2c0,0.1-0.1,0.2-0.1,0.2
	c-1.2,1-2.1,2.1-2.1,3.8c0,2.1,1.6,3.3,3.3,4c1,0.4,2.1,0.6,3.2,0.7c0.3,0,0.6-0.2,0.7-0.5c0.2-0.6,0.3-1.2,0.4-1.8
	c0-0.3-0.2-0.3-0.5-0.3c-1.4,0-4.5-0.3-4.5-2.4c0-1.8,1.9-3.2,3.2-4.1c1.5-0.9,3.2-1.4,4.9-1.6c0.7-0.1,1-0.1,1-0.6
	c0-0.2-0.2-1.6-0.2-1.8s-0.2-0.3-0.3-0.4c-0.1,0-0.2,0-0.3,0c-0.8,0.3-8.8,2.4-9.1,2.4c-0.1,0-0.2-0.1-0.2-0.2
	c0-0.2,0.1-0.3,0.3-0.4c1.1-0.9,4.9-4.3,5.8-4.8c0.4-0.1,0.8-0.4,1-0.8C14.8,48.2,13.7,46.2,13,46.2z M28.3,47
	c-0.3,0-0.4,0.2-0.4,0.6v0.3c0,1-0.2,3.3-0.3,4.4c-0.1,1.9-0.2,3.8-0.2,5.7c0,1.8,0.1,4.1,1.2,5.5c1.1,1.2,2.6,1.9,4.2,1.8
	c3.1-0.1,5.9-1.8,7.3-4.6c0.5-0.9,0.8-1.8,1-2.8c-0.3-0.9-1.1-1.6-2-1.9c-0.4,0-0.4,0.4-0.5,0.8c-0.2,1.3-0.7,2.5-1.5,3.6
	c-1.1,1.4-2.7,2.2-4.5,2.3c-2.6,0-2.5-2.9-2.5-4.8c0-1.4,0.2-9,1.1-9.6c0.1-0.1,0.3-0.2,0.3-0.4c-0.1-0.2-0.3-0.3-0.5-0.3
	C30.1,47.3,29.2,47.1,28.3,47L28.3,47z M46.6,50.1c0,0.2,0.2,2.5,0.8,2.5c0.1,0,0.2,0,0.4-0.1c1.7-0.4,3.5-0.8,5.3-1
	c0.3-0.1,1.3-0.2,1.5-0.2s0.3,0.1,0.4,0.3c-0.1,0.2-0.2,0.4-0.4,0.6c-1.7,1.9-2.6,4.3-2.6,6.9c0,4.7,3.5,6,7.6,6
	c0.3,0,0.5,0,0.7-0.2c0.3-0.7,0.4-1.4,0.4-2.1c0-0.4-0.2-0.4-0.6-0.4c-0.2,0-0.8,0-1.2,0c-2.4,0-4.2-0.7-4.2-3.5
	c0-1.5,0.4-2.9,1.2-4.2c0.9-1.7,2.3-3,4.1-3.6c1.3-0.4,2.6-0.6,4-0.5c0.6,0,1.1,0,1.1-0.5c0-0.6-0.1-1.2-0.2-1.8
	c-0.1-0.3-0.1-0.6-0.5-0.6c-0.1,0-0.2,0-0.3,0c-1.8,0.3-3.6,0.5-5.4,0.7c-3.5,0.4-7,0.8-10.5,1C46.9,49.6,46.6,49.5,46.6,50.1
	L46.6,50.1z M70.5,61.6c0.1,0.2,0.2,0.4,0.4,0.4c1.4,0.9,2.6,2,3.6,3.3c0.1,0.2,0.3,0.3,0.5,0.4c0.8-0.3,1.5-1,1.8-1.8
	c0-0.6-4.1-3.9-4.7-3.9C71.4,60.3,70.8,60.9,70.5,61.6L70.5,61.6z M102.2,53.5c-0.3-0.5-0.7-1-1.1-1.3c-0.5-0.6-1.1-1-1.7-1.4
	c-0.6,0.2-1.1,0.6-1.3,1.2c0,0.2,0.1,0.3,0.2,0.4c0.7,0.7,1.5,1.4,2.1,2.1c0.1,0.2,0.3,0.3,0.5,0.3C101.5,54.6,102,54.1,102.2,53.5
	L102.2,53.5z M102.4,48.1c-0.4-0.6-0.9-1.1-1.4-1.5c-0.5-0.5-1-0.9-1.6-1.2c-0.6,0.2-1,0.7-1.3,1.3c0,0.2,0.1,0.3,0.3,0.4
	c0.7,0.7,1.5,1.3,2.2,2c0.1,0.2,0.3,0.3,0.5,0.4C101.7,49.2,102.2,48.7,102.4,48.1L102.4,48.1z M100.8,64.4c0.5,0.8,1.4,1.4,2.4,1.6
	c1.3,0.1,2.7,0.2,4.1,0.1h2.6c0.2,0,0.5,0,0.7,0c0.7,0,1.5,0.1,1.5-1.7c0-0.4-0.1-0.7-0.5-0.7c-1.6,0-3.1,0.1-4.7,0.1
	c-1.3,0.1-2.5-0.1-3.8-0.4c-1.2-0.5-1.2-1.3-1.2-2.5v-1.7c0-0.7,0-1.3,0-1.9s-0.1-1.1-0.9-1.1c-0.4,0-0.7,0-1.1,0h-0.5
	c-0.2,0-0.6,0-0.8,0c-0.4,0-0.4,0.4-0.4,1.1c0,0.5,0,1,0.4,1c0.2,0,0.3,0,0.5-0.1c0.3,0,0.6,0.2,0.6,0.5c0,0.1,0,0.1,0,0.2v2.2
	c0.1,0.4-0.1,0.8-0.5,1c-0.6,0.4-1,0.7-1.6,1c-0.2,0.1-0.3,0.2-0.4,0.2c-0.2,0-0.4,0.2-0.5,0.4c0.2,0.5,0.4,1.1,0.7,1.6
	c0.1,0.3,0.3,0.6,0.6,0.8c0.2,0,0.3-0.2,0.3-0.4c0-0.2,0-0.3,0.1-0.4c0.5-0.5,1.1-0.9,1.6-1.3c0.1-0.1,0.2-0.1,0.3-0.2
	C100.6,64.1,100.7,64.2,100.8,64.4L100.8,64.4z M95.4,58.7c0.2,0.1,0.3,0.2,0.4,0.3c0.3,0.4,0.6,0.7,1.1,0.9
	c0.6-0.2,1.1-0.7,1.2-1.3c-0.2-0.4-0.5-0.7-0.8-1c-0.2-0.2-0.4-0.3-0.5-0.5V57c0-0.1,0.1-0.2,0.2-0.2c0.5-0.4,0.8-0.8,1.2-1.3
	c0.3-0.3,0.3-0.4,0.5-0.4l0,0c0.1,0,0.4,0,0.4-0.2c-0.4-0.5-1-0.9-1.6-1.2c-0.2,0.1-0.3,0.3-0.4,0.5c-0.2,0.4-0.5,0.9-0.8,1.3
	c-0.1,0.2-0.2,0.3-0.4,0.4c-0.1-0.1-0.2-0.2-0.3-0.3c-0.1-0.1-0.1-0.2-0.1-0.3s0-0.2,0.1-0.3c0.5-0.7,2.6-4,2.6-4.7
	c-0.1-0.8-0.7-1.4-1.5-1.5c-0.2,0-0.4,0-0.6,0c-0.3,0-0.6-0.2-0.6-0.5c0-0.1,0-0.1,0-0.2V47c-0.1-0.4,0-0.8,0.3-1.1
	c0.2-0.1,0.3-0.2,0.3-0.4s-0.2-0.4-0.4-0.3l0,0c-0.3,0-1.8-0.1-2.1-0.1c-0.2,0-0.4,0.1-0.4,0.2c0,0,0,0,0,0.1s0,0.1,0,0.2
	c0.1,0.7,0.1,1.4,0.1,2.1v0.4c0.1,0.3-0.1,0.6-0.5,0.7c-0.1,0-0.1,0-0.2,0c-0.4,0-0.9,0-1.3,0c-0.6,0-0.6,0.3-0.6,1.1s0,1.1,0.6,1.1
	c0.4,0,1.1-0.1,1.8-0.1h1.8c0.3,0,0.5,0,0.5,0.2c-0.3,0.6-0.6,1.2-1,1.8c-1,1.5-2.2,2.9-3.6,4.1c-0.2,0.1-0.4,0.4-0.5,0.6
	c0,0.3,0.6,1.6,1.2,1.6c0.4-0.1,0.8-0.4,1.1-0.7c0.1-0.1,0.2-0.2,0.4-0.3c0.1,0,0.3,0.1,0.2,0.3V63c0,1-0.1,1.9-0.1,2.9
	c0,0.8,0.3,0.8,1.2,0.8c0.9,0,1.2,0,1.2-0.8c0-0.9,0-1.9,0-2.9L95.4,58.7C95.3,58.8,95.3,58.7,95.4,58.7L95.4,58.7z M107.8,51.2
	c0.3,0,0.6,0.2,0.6,0.5c0,0,0,0,0,0.1v0.3c0,0.3-0.2,0.6-0.5,0.6c0,0,0,0-0.1,0h-1.9c-0.3,0-0.6-0.2-0.6-0.5l0,0v-0.3
	c0-0.3,0.2-0.6,0.5-0.6l0,0L107.8,51.2L107.8,51.2z M105.9,49.4c-0.3,0-0.6-0.2-0.6-0.5l0,0v-0.3c0-0.3,0.2-0.6,0.5-0.6l0,0h1.9
	c0.3,0,0.6,0.2,0.6,0.5c0,0,0,0,0,0.1v0.3c0,0.3-0.2,0.6-0.5,0.6c0,0,0,0-0.1,0L105.9,49.4L105.9,49.4z M105.3,55.2
	c0-0.3,0.2-0.6,0.5-0.7h0.1c0.2,0,0.5,0.2,0.5,0.4c0.5,2,1.3,4,2.4,5.7c0.2,0.4,1.4,2,1.8,2c0.6-0.2,1.1-0.7,1.4-1.2
	c0-0.1-0.1-0.3-0.2-0.4c-0.6-0.7-1.2-1.5-1.8-2.3c-0.1-0.1-0.1-0.2-0.1-0.4s0.1-0.4,0.3-0.5c0.3-0.2,0.6-0.5,0.9-0.8
	c0.1-0.1,0.2-0.1,0.3-0.1c0,0,0.1,0,0.2,0h0.1c0.1,0,0.2-0.1,0.3-0.2l0,0c-0.3-0.7-0.8-1.2-1.3-1.7c-0.1,0-0.2,0.1-0.3,0.2
	c-0.3,0.3-0.6,0.6-0.9,0.9c-0.1,0.1-0.2,0.1-0.3,0.1c-0.2,0-0.4-0.1-0.4-0.3c-0.1-0.3-0.2-0.5-0.2-0.8c0-0.1,0-0.1,0-0.2
	c0-0.2,0.2-0.4,0.4-0.4h0.1h0.4c0.8,0,1.2-0.2,1.2-1c0-0.6,0-1.2,0-1.7v-3c0-0.6,0-1.2,0-1.8c0-0.9-0.5-1-1.3-1
	c-0.6,0-1.2,0.1-1.7,0.1h-1.5c-0.6,0-1.1-0.1-1.7-0.1c-0.8,0-1.3,0.2-1.3,1c0,0.6,0,1.2,0,1.8v10.8c0.1,0.2-0.1,0.5-0.3,0.5l0,0
	c-0.5,0.1-0.8,0.1-0.8,0.4c0,0.2,0.1,0.3,0.1,0.5c0.1,0.2,0.2,0.4,0.3,0.7c0.1,0.4,0.3,0.8,0.6,1.1c0.2-0.1,0.3-0.2,0.3-0.4
	c0.1-0.2,0.3-0.3,0.5-0.3c1.2-0.4,2.4-0.8,3.5-1.2c0.3-0.1,0.4-0.4,0.4-0.7s0-1.3-0.5-1.3c-0.4,0.1-0.8,0.2-1.2,0.4
	c-0.1,0-0.1,0-0.2,0.1c-0.2,0-0.4-0.2-0.4-0.5l0,0L105.3,55.2L105.3,55.2z M121.6,48.4c-0.2,0-0.3,0.1-0.4,0.3v0.1
	c0,0.1,0,0.2,0,0.3c0.1,0.9,0.2,2.8,0.2,3.7c0,0.7-0.4,0.7-1,0.8c-0.7,0.1-2.4,0.4-3,0.4c-0.4,0-0.7,0-0.7,0.5
	c0,0.3,0.1,0.8,0.1,1.1c0,0.1,0,0.3,0,0.4c0,0.6,0.1,1,0.5,1c0.1,0,0.2,0,0.4-0.1c0.4-0.1,3.1-0.7,3.4-0.7s0.6,0.4,0.5,0.7V57
	c0,1.6,0.1,3.3,0.4,4.9c0.8,2.8,3.9,3,6.3,3c1.5,0,3.1-0.1,4.6-0.4c0.2-0.6,0.3-1.3,0.3-1.9c0-0.3,0-0.7-0.4-0.7c-0.1,0-0.1,0-0.2,0
	c-1.5,0.3-3.1,0.5-4.6,0.5c-1.7,0-3.2-0.1-3.6-1.6c-0.2-1.4-0.3-2.9-0.3-4.4c-0.1-0.5,0.3-0.9,0.7-1c0.1,0,0.1,0,0.2,0
	c0.5-0.1,3.6-0.7,3.9-0.7c0.2,0,0.4,0.2,0.4,0.4l0,0c0,0.5-0.1,1-0.3,1.5c-0.2,0.7-0.9,1.2-1.6,1c-0.2,0-0.4,0-0.6,0
	s-0.4,0.2-0.4,0.5l0,0c0,0.6,0.1,1.3,0.4,1.8c0.2,0.2,0.4,0.2,0.6,0.2c3.5,0,4.1-2,4.3-5c0.1-1,0.5-0.8,1.9-1
	c0.8-0.1,1.4-0.1,1.8-0.2c1.2-0.1,1.2,0,1.2-1.1c0-1.3,0-1.6-0.5-1.6c-0.3,0-1.5,0.2-1.9,0.2c-0.3,0.1-1.7,0.3-1.9,0.3
	c-0.3,0-0.5-0.3-0.5-0.6V51c0-0.6,0-1.2,0-1.8c0-0.4,0-0.8,0.2-1.2c0.1-0.1,0.2-0.2,0.2-0.4s-0.3-0.2-0.5-0.3
	c-0.8-0.2-1.6-0.3-2.5-0.4c-0.2,0-0.3,0.1-0.3,0.2c0,0,0,0,0,0.1s0,0.2,0,0.3c0.3,1.3,0.4,2.6,0.4,3.9c0,0.8-0.4,0.8-1.7,1
	c-0.4,0.1-2.8,0.5-3,0.5c-0.5,0-0.5-0.6-0.5-0.9v-0.7c-0.1-0.7,0-1.3,0.3-1.9c0.1-0.1,0.2-0.2,0.2-0.4s-0.2-0.3-0.3-0.3
	C124,48.6,122.1,48.3,121.6,48.4L121.6,48.4z M151.2,62.5c0.1,0.4-0.2,0.8-0.6,0.8l0,0c-0.7,0-1.9-0.4-1.9-1.3c0-0.5,0.5-1,1-1l0,0
	C150.5,61.1,151.1,61.7,151.2,62.5L151.2,62.5z M153.4,46.9c-0.3,0-0.6,0.1-0.9,0.3c-2,0.6-4,0.9-6.1,0.9h-0.6c-0.7,0-0.7,0-0.7,0.6
	c0,0.4,0.1,2.2,0.6,2.2c0.4,0,3.8-0.7,4.3-0.8c0.1,0,0.5-0.1,0.6-0.1c0.2,0,0.4,0.1,0.4,0.3l0,0c-0.1,0.3-0.3,0.6-0.6,0.9
	c-2.3,2.6-4.8,5.2-7.5,7.5c-0.3,0.2-0.5,0.4-0.6,0.7c0.3,0.8,0.9,1.4,1.7,1.7c0.1,0,0.2-0.1,0.3-0.2c0.9-1,1.7-2,2.7-2.9
	c1.4-1.5,3.3-2.4,5.4-2.3c2.1,0,4.1,1,4.1,3.3c0,1.7-1.2,3.2-2.9,3.7c-0.2,0-0.3-0.1-0.3-0.3c0-0.5-0.1-1.1-0.4-1.5
	c-0.7-1.1-1.9-1.7-3.2-1.7c-1.6,0-3,1.3-3.1,2.9c0,2.4,2.8,3.3,4.8,3.3c3.9,0,7.6-2.2,7.6-6.5c0.1-2-1.1-3.8-2.9-4.7
	c-0.9-0.5-1.9-0.7-3-0.7c-0.3,0-0.7,0-1,0.1c-0.1,0-0.2,0-0.3,0c-0.2,0-0.4-0.1-0.4-0.3l0,0c0-0.2,0.1-0.3,0.2-0.4
	c1-1.2,2.2-2.3,3.5-3.2c0.2-0.1,0.4-0.3,0.5-0.5C155.7,48.8,154.4,46.9,153.4,46.9L153.4,46.9z M166.4,59c0.1,0.8,0.5,1.6,0.9,2.3
	c1.6,2.2,4.2,2.5,6.7,2.5c2.4,0,4.8-0.3,7.2-0.7c0.4-0.1,0.6-0.5,0.6-0.9c0-1.6-0.2-2-0.5-2c-0.1,0-0.2,0-0.4,0.1
	c-2.3,0.6-4.7,0.8-7.1,0.8c-2.3,0-4.3-0.4-4.8-2.9c0-0.2-0.2-0.4-0.4-0.4l0,0C168.5,57.8,166.4,58.4,166.4,59L166.4,59z M168.8,50.7
	c0,0.2,0.1,0.4,0.3,0.5c1.8,0.4,3.6,0.6,5.5,0.6c1.5,0,2.9-0.1,4.3-0.3c0.6-0.1,0.7-0.2,0.7-0.7c0-1,0-2.1-0.6-2.1
	c-0.1,0-0.2,0-0.3,0.1c-1.4,0.3-2.9,0.5-4.3,0.5c-1.4,0-2.7-0.2-4.1-0.5c-0.2-0.1-0.5-0.1-0.7-0.2c-0.5,0-0.5,0.4-0.6,0.8
	C168.9,49.9,168.8,50.3,168.8,50.7L168.8,50.7z M192.7,47.1c0,0.1,0,0.2,0.1,0.3c0.2,0.5,0.3,1.1,0.5,1.6c0.2,1,0.9,3.5,1.2,4.4
	c0.1,0.1,0.1,0.3,0.1,0.4c0,0.3-0.2,0.5-0.4,0.6c-2,1.3-4.1,3-4.1,5.6c0,1.5,0.9,3,2.2,3.7c1.5,0.8,3.2,1.2,4.9,1
	c2.2,0,4.4-0.1,6.6-0.4c0.5-0.1,0.5-0.4,0.5-1V63c0-0.5,0-1.5-0.4-1.5c-0.1,0-0.1,0-0.2,0c-2.1,0.4-4.2,0.6-6.3,0.6
	c-1.1,0-2.2-0.1-3.2-0.4c-0.8-0.2-1.5-0.9-1.6-1.7c0.1-0.9,0.5-1.6,1.2-2.2c1.3-1.1,2.8-2,4.3-2.8c1.9-1.1,3.9-2,5.9-2.8
	c0.2,0,0.4-0.2,0.5-0.4c-0.1-0.5-0.4-1-0.7-1.5c-0.2-0.4-0.5-0.7-0.9-1c-0.2,0-0.4,0.1-0.6,0.2c-1.6,1-3.2,1.9-4.9,2.7
	c-0.3-0.1-0.6-0.4-0.6-0.7c-0.3-1.4-0.6-2.8-0.7-4.3c0-0.6,0-0.9-0.7-0.9c-0.4,0-0.8,0.1-1.2,0.1C193.5,46.8,192.7,46.8,192.7,47.1
	L192.7,47.1z M219.4,50.7c0.2,0,0.4,0.2,0.4,0.4c0,0,0,0,0,0.1c-0.1,1.6-0.4,3.1-0.8,4.7c-0.7,2.4-2,5.2-3.2,5.2s-1.5-2.2-1.5-3.1
	c-0.1-3,1.6-5.7,4.3-6.9C218.8,50.8,219.1,50.7,219.4,50.7L219.4,50.7z M221.7,47.9c-5.5,0-9.9,4.4-10,9.8c0,0.1,0,0.2,0,0.3
	c0,1.2,0.2,2.3,0.7,3.4c0.6,1.3,1.8,2.2,3.3,2.3c1.3-0.1,2.4-0.8,3.2-1.8c2.3-2.8,3.1-7,3.4-10.5c0-0.4,0-0.9,0.6-0.9
	c0.3,0,0.6,0.1,0.9,0.2c2.4,0.9,4,3.2,3.8,5.7c0,3.4-2.5,5.5-5.6,6.2c-0.2,0.1-0.6,0.1-0.6,0.3c0,0.5,1,2,1.6,2
	c0.9-0.2,1.8-0.5,2.6-1c2.9-1.5,4.7-4.5,4.7-7.8c0-2.2-0.8-4.4-2.4-5.9C226.2,48.6,224,47.8,221.7,47.9L221.7,47.9z M246.4,61.6
	c1.2,0,1.2,0.3,1.2,0.7c0.1,0.6-0.3,1.2-0.9,1.3c-0.1,0-0.2,0-0.3,0c-0.6,0-1.6-0.4-1.6-1.1C244.8,61.8,245.8,61.6,246.4,61.6
	L246.4,61.6z M247.6,53.2c-0.3-0.1-0.5,0.1-0.6,0.4v0.1c0,0.1,0,0.2,0,0.3c0.1,0.9,0.4,4.4,0.4,5.2c0,0.2-0.2,0.4-0.4,0.4
	c0,0,0,0-0.1,0h-0.6c-1.9,0-4,0.8-4,3s2.3,3.3,4.2,3.3c1.6,0,3-0.6,3.3-2.3c0-0.3,0.1-0.5,0.4-0.6c0.7,0.3,1.3,0.6,1.9,1.1
	c0.2,0.2,0.4,0.3,0.6,0.3c0.6,0,1.5-1.4,1.5-1.8c0-0.6-2.8-1.9-3.4-2.1l-0.2-0.1c-0.3,0-0.6-0.3-0.7-0.6c-0.1-0.5-0.2-4-0.2-4.7
	c0-0.5,0-1.2,0-1.3c0-0.3-0.2-0.5-0.5-0.5C248.7,53.3,248.1,53.2,247.6,53.2L247.6,53.2z M251.2,49.5c-0.7,0.3-1.3,0.9-1.6,1.7
	c0,0.2,0.2,0.3,0.3,0.4c1.2,0.9,2.2,1.9,3,3.1c0.1,0.2,0.3,0.4,0.5,0.4c0.8-0.3,1.5-0.9,1.8-1.7C255.3,52.8,251.8,49.5,251.2,49.5
	L251.2,49.5z M243.2,45.6c-0.2,0-0.2,0.2-0.2,0.4c-0.1,1.4-0.3,2.7-0.8,4c-0.2,0.3-0.4,0.4-0.7,0.4c-0.8,0.1-1.6,0.1-2.5,0.1h-1.1
	c-0.2,0-0.4,0.1-0.4,0.2v0.1c0,0.2,0.1,1.1,0.2,1.4c0.1,0.6,0.2,0.8,0.6,0.8c0.6,0,2.4-0.2,2.6-0.2c0.2,0,0.3,0.1,0.3,0.3
	c-0.1,0.5-0.3,1-0.6,1.5c-0.8,1.9-1.8,3.8-2.9,5.5c-0.2,0.3-0.3,0.5-0.4,0.9c0,0.5,1.6,1.2,2.1,1.2c0.2,0,0.4-0.1,0.5-0.3
	c1.5-2.7,2.8-5.6,3.9-8.5c0.3-0.8,0.3-1,1.1-1.1c2.2-0.4,2.5-0.4,2.5-1c0-0.4-0.1-0.8-0.1-1.3c0-0.3-0.1-0.7-0.4-0.7
	c-0.1,0-0.2,0-0.2,0c-0.4,0.2-0.9,0.3-1.4,0.4c-0.2,0-0.3-0.1-0.3-0.3l0,0c0.1-0.4,0.2-0.7,0.3-1.1c0.1-0.4,0.2-0.9,0.4-1.3
	c0.2-0.1,0.3-0.2,0.4-0.4c-0.1-0.2-0.2-0.3-0.4-0.3C245.4,46.1,243.4,45.6,243.2,45.6L243.2,45.6z M273.9,51.1
	c0,0.2,0.1,0.3,0.2,0.4c2.1,1.7,3.4,4.2,3.6,6.8c0,0.6,0,0.9,0.8,0.9c0.5,0,0.9-0.1,1.3-0.2c0.4,0,0.7-0.3,0.6-0.7l0,0
	c-0.1-1.7-0.6-3.4-1.4-5c-1.2-2.2-3.2-3.7-3.7-3.7C274.6,49.8,274.1,50.4,273.9,51.1L273.9,51.1z M263.1,49.5
	c-0.2,0-0.3,0.1-0.3,0.3l0,0c0,0.2-0.1,3.3-0.1,3.7c0,2.5,0.2,5.6,1.4,7.8c0.8,1.5,2.2,3.1,4,3.1c1-0.1,2-0.6,2.6-1.5
	c0.6-0.6,1.1-1.3,1.4-2.1c-0.3-0.7-1-1.2-1.7-1.4c-0.3,0.1-0.5,0.3-0.6,0.6c-0.3,0.5-1,1.6-1.7,1.6c-0.8,0-1.6-1.4-1.9-2.1
	c-0.6-1.6-0.8-3.3-0.8-5c0-0.9,0.1-1.7,0.2-2.5c0-0.4,0.2-0.8,0.4-1.2c0.1-0.1,0.2-0.2,0.2-0.3c0-0.2-0.3-0.3-0.5-0.3
	C265.1,50,263.4,49.5,263.1,49.5L263.1,49.5z M298,50.5c-0.1-0.3,0.1-0.5,0.4-0.6c0.1,0,0.1,0,0.2,0h4.8c1,0,1.9,0,2.9,0
	c0.5,0,0.5-0.3,0.5-1s0-1-0.5-1c-1,0-1.9,0-2.9,0h-1.6c-0.2,0-0.3-0.1-0.4-0.3l0,0c0-0.1,0-0.2,0.1-0.2c0.2-0.3,0.4-0.7,0.7-1
	c0.1-0.1,0.3-0.2,0.4-0.2c0.2,0,0.4-0.1,0.4-0.3s-0.3-0.3-1.1-0.7c-0.5-0.2-1-0.4-1.5-0.5c-0.2,0-0.3,0.1-0.3,0.3
	c-0.4,0.8-0.8,1.6-1.3,2.4c-0.2,0.4-0.6,0.5-1,0.5H294c-0.1,0-0.1,0-0.1-0.1c0,0,0-0.1,0.1-0.1c0.3-0.1,0.6-0.3,0.7-0.6
	c-0.1-0.4-0.4-0.8-0.6-1.1c-0.3-0.4-0.9-1.4-1.4-1.4c-0.3,0-1.8,0.4-1.8,0.9c0,0.1,0.1,0.3,0.2,0.4c0.4,0.5,0.8,0.9,1.1,1.4
	c0,0.1,0.1,0.1,0.1,0.2c0,0.2-0.1,0.3-0.3,0.3h-0.1h-1.7c-0.9,0-1.9,0-2.8,0c-0.5,0-0.5,0.2-0.5,1s0,1,0.5,1c1,0,1.9,0,2.8,0h4.7
	c0.3,0,0.5,0.1,0.6,0.4c0,0.1,0,0.1,0,0.2v0.3c0,0.3-0.1,0.5-0.4,0.6c-0.1,0-0.1,0-0.2,0h-2.7c-0.9,0-1.8-0.1-2.7-0.1
	c-0.5,0-0.5,0.3-0.5,1s0,1,0.5,1c0.9,0,1.8-0.1,2.7-0.1h2.7c0.3,0,0.5,0.1,0.6,0.4c0,0.1,0,0.1,0,0.2v0.4c0,0.3-0.1,0.5-0.4,0.6H295
	h-5.4c-0.9,0-1.9-0.1-2.9-0.1c-0.5,0-0.5,0.3-0.5,1s0,1,0.5,1c1,0,1.9-0.1,2.9-0.1h5.3c0.3,0,0.6,0.1,0.6,0.4c0,0.1,0,0.1,0,0.2
	c0,0.1,0,0.3,0,0.4c0,0.4-0.3,0.6-0.6,0.6h-0.1H290c-1,0-1.9-0.1-2.9-0.1c-0.5,0-0.5,0.3-0.5,1.1c0,0.7,0,1,0.5,1
	c1,0,1.9-0.1,2.9-0.1h3.7c0.2,0,0.4,0.1,0.4,0.3c0,0.1,0,0.2-0.1,0.2c-1.8,2.1-4.8,3-7.5,3.4c-0.4,0.1-0.5,0.1-0.5,0.4
	c0,0.6,0.5,1.9,1.1,1.9c0.9-0.1,1.8-0.3,2.7-0.6c2.6-0.6,4.8-2.1,6.5-4.1c0.1-0.1,0.2-0.2,0.4-0.2c0.1,0,0.3,0.1,0.4,0.2
	c1.5,1.8,3.4,3.2,5.7,3.9c1.1,0.4,2.2,0.7,3.4,0.9c0.7,0,1.2-1.2,1.2-1.8c0-0.4-0.2-0.5-0.6-0.6c-2.8-0.3-5.5-1.6-7.6-3.4
	c-0.1-0.1-0.1-0.1-0.1-0.2c0-0.2,0.2-0.3,0.3-0.3h4.1c0.9,0,1.9,0.1,2.8,0.1c0.5,0,0.5-0.3,0.5-1s0-1.1-0.5-1.1
	c-0.9,0-1.9,0.1-2.8,0.1h-5c-0.3,0.1-0.5-0.1-0.6-0.4c0,0,0,0,0-0.1s0-0.2,0.1-0.2c0-0.1,0.1-0.1,0.2-0.2c0.2,0,0.3-0.2,0.4-0.3
	c-0.2-0.3-0.5-0.5-0.9-0.4l0,0c0,0,0,0,0-0.1l0,0h6.4c1,0,1.9,0.1,2.9,0.1c0.5,0,0.5-0.2,0.5-1s0-1-0.5-1c-1,0-1.9,0.1-2.9,0.1h-5.4
	c-0.3,0-0.5-0.1-0.6-0.4c0-0.1,0-0.1,0-0.2v-0.4c-0.1-0.3,0.1-0.5,0.4-0.6c0.1,0,0.1,0,0.2,0h2.8c0.9,0,1.8,0.1,2.7,0.1
	c0.6,0,0.5-0.3,0.5-1s0-1-0.5-1c-0.9,0-1.8,0.1-2.7,0.1h-2.8c-0.3,0.1-0.5-0.1-0.6-0.4c0-0.1,0-0.1,0-0.2L298,50.5L298,50.5z
	 M316.9,47c-0.3,0-0.4,0.2-0.4,0.6v0.3c0,1-0.2,3.3-0.3,4.4c-0.1,1.9-0.2,3.8-0.2,5.7c0,1.8,0.1,4.1,1.2,5.5
	c1.1,1.2,2.6,1.9,4.2,1.8c3.1-0.1,5.9-1.8,7.3-4.6c0.5-0.9,0.8-1.8,1-2.8c-0.3-0.9-1.1-1.6-2-1.9c-0.4,0-0.4,0.4-0.5,0.8
	c-0.2,1.3-0.7,2.5-1.5,3.6c-1.1,1.4-2.7,2.2-4.5,2.3c-2.6,0-2.5-2.9-2.5-4.8c0-1.4,0.2-9,1.1-9.6c0.1-0.1,0.3-0.2,0.3-0.4
	c-0.1-0.2-0.3-0.3-0.5-0.3C318.8,47.3,317.8,47.1,316.9,47L316.9,47z M343.4,45.9c-0.3,0-2.3,0.5-2.3,1c0,0.1,0.1,0.3,0.2,0.4
	c0.7,0.9,1.3,1.9,1.8,2.9c0,0.3-0.3,0.5-0.6,0.5c-1.6,0.3-3.2,0.5-4.8,0.5c-0.3,0-0.6,0.1-0.6,0.4c0,0.4,0.1,0.9,0.3,1.3
	c0.2,0.7,0.3,0.9,0.9,0.9c1.9-0.1,3.8-0.4,5.7-0.9c0.1,0,0.2-0.1,0.3-0.1c0.4,0.1,0.8,0.4,0.9,0.8c0.5,0.9,0.9,1.5,1.4,2.3
	c0.1,0.1,0.1,0.2,0.1,0.4c0,0.1-0.1,0.2-0.3,0.2c-0.1,0-0.2,0-0.3-0.1c-0.9-0.4-2-0.7-3-0.7c-2.7,0-5.1,1.7-5.1,4.6
	c0,2.8,2.3,4.3,4.8,4.9c1.3,0.3,2.7,0.5,4.1,0.6c0.3,0.1,0.7-0.1,0.8-0.4c0.2-0.5,0.2-1,0.2-1.5c0-0.4-0.1-0.8-0.6-0.8
	c-0.3,0-0.8,0-1.3,0c-1.8,0-5.5-0.5-5.5-3c0.1-1.3,1.2-2.3,2.5-2.1l0,0c2,0.2,4,0.9,5.7,2c0.3,0.2,0.6,0.4,0.9,0.5
	c0.8-0.2,1.4-0.8,1.7-1.6c0-0.3-0.2-0.5-0.4-0.7c-1.4-1.6-2.5-3.4-3.5-5.3c-0.2-0.3-0.4-0.6-0.4-0.9c0.1-0.4,0.4-0.6,0.8-0.7
	c0.8-0.3,1.5-0.6,2.2-1c0.3-0.1,0.6-0.3,0.7-0.6c-0.2-0.8-0.8-1.5-1.5-1.9c-0.2,0-0.5,0.1-0.6,0.3c-0.8,0.5-1.7,1-2.6,1.3
	c-0.3,0-0.5-0.2-0.6-0.5c-0.5-0.9-1-1.9-1.5-2.8C343.9,46.1,343.7,45.9,343.4,45.9L343.4,45.9z M362.1,60.4c1.2,0,2.1,0.9,2.1,2.1
	l0,0c0,1.2-1,2.1-2.1,2.1s-2.1-1-2.1-2.1C360,61.3,361,60.4,362.1,60.4L362.1,60.4z M362.1,59.2c-1.8,0-3.3,1.5-3.3,3.3
	c0,1.8,1.5,3.3,3.3,3.3s3.3-1.5,3.3-3.3C365.5,60.7,364,59.2,362.1,59.2L362.1,59.2L362.1,59.2z M13.6,109.6
	c-0.4-0.7-0.8-1.3-1.3-1.9c-1.2-1.4-1.5-1.6-1.8-1.6c-0.6,0.2-1.2,0.7-1.5,1.3c0.1,0.2,0.2,0.4,0.3,0.6c0.7,0.7,1.3,1.5,1.9,2.3
	c0.1,0.3,0.4,0.6,0.7,0.7C12.7,110.7,13.3,110.2,13.6,109.6L13.6,109.6z M9.3,99.4c-0.4,1.3-0.9,2.6-1.7,3.8
	c-1.7,2.6-4.1,4.6-6.9,5.9c-0.2,0-0.4,0.2-0.4,0.5c0,0.5,0.8,1.9,1.4,1.9c0.8-0.3,1.6-0.7,2.3-1.2c3-2.1,5.6-4.5,6.9-8
	c0-0.1,0.1-0.2,0.2-0.2c0.1,0,0.2,0.1,0.2,0.2c1.1,2.6,2.7,4.9,4.9,6.7c0.6,0.5,3.2,2.6,3.8,2.6c0.8-0.3,1.4-1,1.6-1.8
	c-0.1-0.2-0.2-0.4-0.5-0.5c-3.9-2.1-6.9-5.7-8.5-9.9c0-0.1,0-0.1,0-0.2c0-0.2,0.2-0.4,0.4-0.4c0,0,0,0,0.1,0h5.1
	c0.9,0,1.8,0.1,2.8,0.1c0.6,0,0.6-0.3,0.6-1.2s0-1.2-0.6-1.2c-0.9,0-1.8,0.1-2.8,0.1h-5.3c-0.3,0.1-0.6-0.1-0.7-0.5
	c0-0.1,0-0.1,0-0.2v-3.6c0-0.8,0-1.1,0.3-1.2c0.2,0,0.3-0.2,0.3-0.3c0-0.2-0.2-0.4-0.4-0.3c-0.3,0-2-0.2-2.4-0.2
	c-0.2-0.1-0.4,0.1-0.5,0.3v0.1c0,0.1,0,0.2,0,0.3c0.1,0.6,0.1,1.1,0.1,1.7V96c0.1,0.3-0.2,0.6-0.5,0.7c-0.1,0-0.1,0-0.2,0H3.7
	c-0.9,0-1.8-0.1-2.8-0.1c-0.6,0-0.6,0.3-0.6,1.2s0,1.2,0.6,1.2c0.9,0,1.8-0.1,2.8-0.1h5c0.3,0,0.5,0.1,0.5,0.4c0,0,0,0,0,0.1
	C9.3,99.3,9.3,99.3,9.3,99.4L9.3,99.4z M42.7,95.5c0.3,0,0.6,0.2,0.6,0.5l0,0v0.1c0,0.3-0.2,0.6-0.5,0.6l0,0h-3.9
	c-0.3,0-0.6-0.2-0.6-0.5l0,0V96c0-0.3,0.2-0.6,0.5-0.6l0,0L42.7,95.5L42.7,95.5z M43.3,93.3c0,0.3-0.2,0.6-0.5,0.6l0,0h-3.9
	c-0.3,0-0.6-0.2-0.6-0.5l0,0v-0.1c0-0.3,0.2-0.6,0.5-0.6l0,0h3.9C43,92.7,43.3,92.9,43.3,93.3C43.3,93.2,43.3,93.2,43.3,93.3
	L43.3,93.3L43.3,93.3z M45.6,92.9c0-0.4,0-0.8,0-1.2c0-0.5-0.3-0.9-0.8-0.9c-0.1,0-0.2,0-0.3,0c-0.5,0-1,0-1.5,0h-4.5
	c-0.5,0-1,0-1.5,0c-0.5-0.1-0.9,0.2-1,0.6c0,0.1,0,0.2,0,0.3c0,0.4,0,0.7,0,1.2v3.6c0,0.4,0,0.8,0,1.2c0,0.8,0.4,0.9,1.1,0.9
	c0.5,0,1,0,1.5,0H43c0.5,0,1,0,1.5,0c0.4,0.1,0.9-0.1,1-0.6c0-0.1,0-0.2,0-0.3c0-0.4,0-0.8,0-1.2L45.6,92.9L45.6,92.9z M29.7,93.7
	c-0.1-0.3,0.1-0.6,0.5-0.7c0.1,0,0.1,0,0.2,0h0.9c0.2,0,0.5,0,0.5,0.3c-0.4,1.2-0.9,2.4-1.5,3.5C30.1,97,30,97.3,30,97.6
	c0,0.2,0.1,0.5,0.3,0.7c1,1.2,1.6,2.7,1.7,4.2c0,0.7,0,1.8-1,1.8c-0.2,0-0.5-0.1-0.6-0.1c-0.4,0-0.4,0.5-0.4,0.7
	c0,0.5,0.1,1,0.3,1.5c0.2,0.2,0.5,0.2,0.8,0.2h0.2c2.4,0,3-1.4,3-3.6c0-1.9-0.7-3.7-1.8-5.2c-0.1-0.1-0.2-0.3-0.2-0.4
	s0.1-0.3,0.1-0.4c0.5-0.9,2.2-4.3,2.2-5.1c0-0.3-0.2-0.6-0.4-0.8c-0.3-0.4-0.8-0.5-1.3-0.4c-0.3,0-0.7,0-1.2,0h-1.2
	c-0.5,0-1,0-1.6,0c-0.6-0.1-1.1,0.2-1.3,0.7c0,0.1,0,0.3,0,0.4c0,0.7,0,1.3,0,2v13.3c0,1.2-0.1,2.3-0.1,3.4c0,0.8,0.2,0.8,1.2,0.8
	s1.2,0,1.2-0.8c0-1.2-0.1-2.3-0.1-3.5L29.7,93.7L29.7,93.7z M38.6,105.2c-1,1.4-2.2,2.6-3.5,3.6c-0.3,0.1-0.5,0.4-0.6,0.7
	c0.2,0.5,0.6,0.9,1.1,1c0.2-0.1,0.5-0.2,0.7-0.3c1.9-1.4,3.4-3.1,4.6-5.1c0.1-0.2,0.4-0.4,0.6-0.3c0.2,0,0.4,0.1,0.5,0.3v0.1
	c0,0.1,0,0.1,0,0.2c-0.9,1.9-2.2,3.5-3.9,4.8c-0.2,0.1-0.4,0.3-0.4,0.5c0.2,0.5,0.7,0.9,1.2,1.1c0.6-0.3,1.2-0.8,1.7-1.3
	c1.4-1.5,2.6-3.3,3.3-5.2c0-0.2,0.2-0.4,0.5-0.3c0.4,0,0.5,0.1,0.5,0.4c0,1.2-0.2,2.3-0.5,3.5c-0.2,0.5-0.7,0.8-1.2,0.7
	c-0.3,0-0.7-0.1-1-0.1s-0.3,0.3-0.3,0.5c0,0.5,0.1,0.9,0.2,1.3c0.1,0.4,0.3,0.4,1.2,0.4c1.8,0,2.7-0.2,3.3-1.9
	c0.5-1.9,0.8-3.9,0.8-5.8c0.1-0.5-0.1-0.9-0.6-1c-0.1,0-0.2,0-0.4,0c-0.6,0-1.2,0-1.8,0h-4.8c-0.2,0-0.4-0.1-0.4-0.3l0,0
	c0-0.2,0.1-0.3,0.2-0.5c0.1-0.3,0.5-0.5,0.8-0.4h4.8c0.9,0,1.7,0.1,2.6,0.1c0.6,0,0.5-0.3,0.5-1s0-1-0.5-1c-0.9,0-1.7,0.1-2.6,0.1
	h-7.3c-0.8,0-1.7-0.1-2.5-0.1c-0.6,0-0.5,0.3-0.5,1s0,1,0.5,1s1.2,0,1.7-0.1c0.2,0,0.4,0.1,0.4,0.3l0,0c0,0.1,0,0.2-0.1,0.2
	c-1,1.6-2.3,3.1-3.7,4.3c-0.2,0.1-0.4,0.3-0.5,0.6c0.2,0.6,0.7,1,1.2,1.2c0.6,0,2.7-2.5,3.2-3c0.2-0.3,0.5-0.5,0.9-0.4h0.2
	c0.2,0,0.3,0.1,0.4,0.3l0,0C38.7,105,38.6,105.1,38.6,105.2L38.6,105.2z M72,92.5c0-0.5-2.5-1.3-2.6-1.3c-0.2,0-0.3,0.2-0.3,0.3
	c-0.5,1.5-1.3,3-2.2,4.2c-0.2,0.2-0.3,0.4-0.4,0.7c0,0.4,1.4,1.2,1.8,1.2c0.7,0,2.5-3.8,2.9-4.5c0.1-0.2,0.2-0.4,0.4-0.4
	C71.8,92.8,71.9,92.7,72,92.5L72,92.5z M60.6,96.6c-0.3-0.9-0.7-1.8-1.1-2.6c-0.2-0.5-0.9-1.8-1.2-2.1c-0.1-0.2-0.3-0.3-0.5-0.3
	c-0.3,0-1.8,0.6-1.8,1c0,0.2,0.1,0.3,0.2,0.5c0.7,1.1,1.3,2.3,1.8,3.5c0.3,0.8,0.5,1.1,0.8,1.1S60.6,97.1,60.6,96.6L60.6,96.6z
	 M63.7,100.6c0.3-0.1,0.6,0.1,0.7,0.4c0,0.1,0,0.2,0,0.2v6.2c0,0.6,0,1.1,0,1.6c0,1.9,1,2.1,2.6,2.1h3.8c1.2,0,2-0.1,2.6-1.3
	c0.5-1,0.8-2.2,0.8-3.3c0-0.8-1.4-1.1-1.8-1.1s-0.7,0.3-0.7,0.6c0,0,0,0,0,0.1c-0.3,1.9-0.3,2.6-1.6,2.6h-2.4c-0.9,0-1-0.2-1-1v-6.5
	c0-0.3,0.2-0.6,0.5-0.7c0.1,0,0.1,0,0.2,0H71c0.9,0,1.7,0.1,2.6,0.1c0.5,0,0.5-0.4,0.5-1.2c0-0.9,0-1.2-0.5-1.2
	c-0.9,0-1.7,0.1-2.6,0.1h-5.5c-0.3,0.1-0.6-0.1-0.7-0.4c0-0.1,0-0.2,0-0.2v-5.3c-0.1-0.5,0-0.9,0.3-1.3c0.2-0.1,0.3-0.2,0.3-0.4
	c0-0.3-0.4-0.3-0.6-0.3c-0.4,0-1.8-0.2-2.1-0.2s-0.5,0.1-0.5,0.3c0,0.1,0,0.2,0,0.2c0,0.6,0.1,1.2,0.1,1.9v5.1
	c0.1,0.3-0.1,0.6-0.4,0.7c-0.1,0-0.2,0-0.2,0H56c-0.8,0-1.7-0.1-2.5-0.1c-0.5,0-0.5,0.3-0.5,1.2c0,0.9,0,1.2,0.5,1.2
	c0.9,0,1.7-0.1,2.5-0.1h2.9c0.3-0.1,0.6,0.1,0.6,0.4c0,0.1,0,0.2,0,0.2c-0.2,4.2-2.2,6.6-6.1,8c-0.3,0-0.5,0.2-0.5,0.5
	c0.1,0.8,0.7,1.5,1.4,1.8c0.8-0.2,1.6-0.6,2.3-1c1.7-1,3.1-2.3,4-4c0.7-1.4,1.2-3,1.3-4.6c0-0.1,0.1-0.3,0.2-0.3
	c0.2,0,0.3-0.2,0.4-0.4c0-0.2-0.2-0.4-0.4-0.4c-0.1,0-0.2-0.1-0.2-0.1c0-0.1,0.1-0.1,0.1-0.1L63.7,100.6L63.7,100.6z M89.5,94.7
	c-0.2,0-0.4-0.2-0.4-0.4c0-0.2,0.1-0.3,0.2-0.5s0.3-0.4,0.3-0.6c0.1-0.4,0.4-0.7,0.8-0.9c0.1,0,0.2-0.1,0.2-0.3
	c-0.4-0.3-0.8-0.6-1.2-0.8c-0.5-0.3-1-0.5-1.5-0.7c-0.2,0.1-0.4,0.3-0.4,0.6c-1.4,3.3-3.5,6.3-6.3,8.6c-0.2,0.1-0.3,0.3-0.4,0.4
	c0,0.4,1.6,1.4,2,1.4c0.3-0.1,0.6-0.2,0.8-0.5c1.1-1.2,2.1-2.4,3.1-3.7c0.2-0.4,0.6-0.7,1.1-0.6h4.6c0.4,0,1,0,1,0.5
	c-0.3,1-0.7,2-1.2,2.9c-0.1,0.4-0.4,0.7-0.8,0.8c-0.2,0-0.4-0.1-0.6-0.3c-0.9-0.6-1.9-1.1-3-1.5c-0.6,0-1.5,1.5-1.5,1.8
	c0.1,0.2,0.2,0.4,0.5,0.4c0.9,0.4,1.7,0.9,2.6,1.4c0.2,0.1,0.4,0.3,0.4,0.6c0,0.2-0.2,0.5-0.4,0.6c-1.8,2.1-4.2,3.6-6.9,4.3
	c-0.2,0.1-1.1,0.2-1.1,0.6c0,0.3,1.1,1.9,1.8,1.9c1-0.3,2-0.7,2.9-1.2c2-1,3.7-2.4,5.3-4.1c0.2-0.3,0.5-0.5,0.8-0.6
	c0.2,0,0.4,0.1,0.5,0.3c0.4,0.4,0.5,0.4,1,0.8c0.1,0.1,0.2,0.2,0.4,0.2c0.7-0.4,1.3-1,1.6-1.8c-0.3-0.5-0.8-0.9-1.3-1.2
	c-0.2-0.1-0.4-0.4-0.4-0.6s0.1-0.5,0.3-0.7c0.8-1.4,1.5-2.8,2.2-4.3c0.1-0.4,0.3-0.7,0.6-1c0.1-0.1,0.1-0.2,0.1-0.3
	c-0.2-0.8-0.7-1.4-1.4-1.8c-0.1,0-0.1,0-0.2,0c-0.4,0.1-0.8,0.1-1.2,0.1L89.5,94.7L89.5,94.7z M99.8,90.9c-0.3-0.5-0.7-0.9-1.1-1.3
	c-0.5,0.1-1,0.4-1.2,0.9c0,0.1,0.1,0.2,0.2,0.3c0.5,0.7,1,1.4,1.4,2.1c0.1,0.2,0.2,0.3,0.4,0.3c0.5-0.1,1-0.5,1.2-1
	c-0.2-0.4-0.4-0.8-0.7-1.2C99.8,91,99.8,90.9,99.8,90.9L99.8,90.9z M96.1,90.9c-0.5,0.1-1,0.4-1.2,0.8c0,0.1,0.1,0.2,0.2,0.3
	c0.5,0.7,1,1.4,1.5,2.1c0,0.1,0.2,0.2,0.3,0.3c0.5-0.1,1-0.5,1.2-1C97.5,92.6,96.9,91.7,96.1,90.9L96.1,90.9z M113.1,99.3
	c-0.1,0-0.2,0-0.4-0.1c-1.1-0.6-2.3-1-3.5-1.4c-0.6,0-1.2,1.7-1.2,1.9c0,0.3,0.2,0.4,0.5,0.5c1,0.3,1.9,0.7,2.9,1.1
	c0.2,0.1,0.3,0.3,0.3,0.5c-0.1,0.3-0.2,0.5-0.4,0.7c-1.8,2.1-4.1,3.8-6.6,4.8c-0.1,0-0.1,0.1-0.2,0.1c-0.3,0-0.6,0.3-0.7,0.6
	c0.3,0.8,0.9,1.4,1.7,1.8c0.6,0,3.3-1.7,3.9-2.1c1.6-1.1,3-2.4,4.3-3.9c0.1-0.2,0.3-0.4,0.6-0.4c0.7,0.3,1.2,0.8,1.7,1.3
	c0.1,0.2,0.4,0.3,0.6,0.4c0.7-0.4,1.3-1.1,1.6-1.9c-0.5-0.7-1.1-1.2-1.8-1.7c-0.3-0.1-0.4-0.4-0.5-0.7c0-0.2,0.1-0.3,0.1-0.4
	c0.9-1.7,1.7-3.4,2.3-5.2c0.1-0.3,0.3-0.6,0.6-0.8c0.1-0.1,0.2-0.2,0.3-0.3c-0.3-0.4-0.8-0.6-1.3-0.7c-0.5-0.2-1.1-0.4-1.7-0.6
	c-0.2,0-0.2,0.3-0.3,0.5c-0.4,1.9-1,3.7-1.9,5.4C113.8,99,113.5,99.2,113.1,99.3L113.1,99.3z M130.3,99.3c-1,0-2.7-0.1-3-0.1
	c-0.6,0-0.7,0.2-0.7,1.5c0,0.8,0,1.2,0.6,1.2c1,0,2-0.1,3-0.1h11c1,0,2,0.1,3,0.1c0.6,0,0.6-0.4,0.6-1.2c0-1.3,0-1.5-0.7-1.5
	c-0.3,0-1.9,0.1-3,0.1H130.3L130.3,99.3z M165.3,90.8c0,0.1,0.1,0.3,0.3,0.3c0.7,0.5,1.3,1.1,1.9,1.7c0.1,0.1,0.2,0.2,0.3,0.2
	c0.5-0.2,0.9-0.7,1.1-1.2c-0.7-0.9-1.6-1.6-2.5-2.1C165.9,89.9,165.5,90.3,165.3,90.8L165.3,90.8z M167.3,95.6
	c-0.3,0-0.5,0.3-0.5,0.5c-0.8,2.5-2.2,4.8-4,6.7c-1.7,1.7-3.7,3-6,3.8c-0.7,0.3-2.1,0.8-2.9,1c-0.2,0-0.4,0.1-0.5,0.3
	c0,0.1,0,0.1,0,0.2c0.3,0.7,0.6,1.3,0.9,1.9c0.1,0.3,0.2,0.5,0.5,0.6c0.2-0.1,0.3-0.2,0.4-0.3c0.2-0.3,0.5-0.4,0.8-0.5
	c3-1,5.8-2.7,8.2-4.9c1.8-1.8,3.2-3.9,4.2-6.2c0.2-0.5,0.4-1,0.5-1.5C168.7,96.5,168.1,95.9,167.3,95.6L167.3,95.6z M163.1,92.8
	c0,0.1,0.1,0.2,0.2,0.3c0.6,0.5,1.2,0.9,1.7,1.5c0.2,0.2,0.4,0.3,0.6,0.5c0.5-0.2,0.9-0.7,1.1-1.2c-0.3-0.4-0.6-0.7-1-1
	c-0.5-0.4-1-0.8-1.5-1.1C163.7,91.9,163.3,92.3,163.1,92.8L163.1,92.8z M151.8,99.2c0,0.2,0.2,0.3,0.4,0.4c1.3,0.7,2.6,1.6,3.9,2.4
	c0.2,0.1,0.3,0.2,0.5,0.3c0.5,0,1.5-1.5,1.5-1.8s-0.7-0.7-1.5-1.2c-1.1-0.7-2.2-1.3-3.4-1.9C152.7,97.4,151.8,98.8,151.8,99.2
	L151.8,99.2z M156.1,92.2c-0.7,0.4-1.2,1-1.5,1.7c0.1,0.2,0.2,0.4,0.4,0.4c1.2,0.8,2.4,1.6,3.5,2.5c0.2,0.1,0.4,0.3,0.6,0.3
	c0.7-0.4,1.2-1,1.5-1.8c0-0.3-1-0.9-1.5-1.3C158.2,93.3,157.2,92.7,156.1,92.2L156.1,92.2z M194.8,90.3c-0.5,0.2-0.9,0.5-1.2,1
	c0,0.1,0.1,0.2,0.2,0.3c0.4,0.4,1,1.1,1.4,1.6c0.1,0.3,0.3,0.5,0.6,0.6c0.5-0.2,1-0.5,1.2-1.1c-0.2-0.5-0.6-0.9-1-1.3
	C195.7,91,195.3,90.6,194.8,90.3L194.8,90.3z M192.9,92.4c-0.5,0.2-0.9,0.5-1.2,0.9c0,0.1,0.1,0.2,0.2,0.3c0.5,0.6,1,1.2,1.5,1.8
	c0.1,0.2,0.3,0.4,0.5,0.5c0.5-0.2,1-0.5,1.2-1.1C194.5,93.9,193.8,93.1,192.9,92.4L192.9,92.4z M179,98.7c-1.1,0-2.2-0.1-3-0.1
	c-0.6,0-0.6,0.4-0.6,1.2c0,0.9,0,1.4,0.6,1.4c0.9,0,2-0.1,3-0.1h4.9c0.3,0,0.6,0.2,0.6,0.5l0,0c0,0.2-0.1,0.9-0.2,1.2
	c-0.4,1.8-1.5,3.3-3,4.4c-0.9,0.6-2,1-3,1.2c-0.3,0-0.5,0.2-0.6,0.4c0.3,0.9,1,1.6,1.8,2c0.4-0.1,0.8-0.2,1.1-0.4
	c2-0.8,3.8-2.1,5-3.9c0.8-1.3,1.3-2.8,1.6-4.3c0.1-0.5,0.1-1.1,0.8-1.1h3.1c1,0,2.1,0.1,3.1,0.1c0.6,0,0.7-0.3,0.7-1.3
	c0-1.2,0-1.3-0.7-1.3c-1,0-2,0.1-3,0.1L179,98.7L179,98.7z M182.1,92.4c-1.1,0-2.2-0.1-3-0.1c-0.7,0-0.7,0.5-0.7,1.3s0,1.2,0.6,1.2
	c1,0,2-0.1,3-0.1h5.1c1,0,2,0.1,3,0.1c0.6,0,0.6-0.3,0.6-1.2c0-1,0-1.4-0.7-1.4c-0.8,0-2,0.1-3,0.1L182.1,92.4L182.1,92.4z
	 M209.6,101.3c-0.1-0.5,0.2-1,0.6-1.3c0.8-0.8,1.5-1.6,2.2-2.4c0.2-0.3,0.4-0.5,0.7-0.5c0.2,0,0.3-0.1,0.3-0.3
	c-0.1-0.3-0.4-0.6-0.7-0.7c-0.4-0.4-0.9-0.6-1.4-0.8c-0.2,0.1-0.3,0.2-0.4,0.4c-2,3.3-5.9,6.1-9.4,7.8c-0.3,0-0.5,0.2-0.6,0.5
	c0.3,0.7,0.8,1.3,1.5,1.6c1.4-0.6,2.7-1.4,3.9-2.3c0.2-0.2,0.4-0.3,0.6-0.3c0.2,0,0.3,0.2,0.3,0.3l0,0v5c0,0.8,0,1.5,0,2.3
	c0,0.7,0.1,0.8,1.4,0.8c0.5,0,1-0.1,1-0.7c0-0.8,0-1.6,0-2.4L209.6,101.3L209.6,101.3z M224.8,93.7c-1,0-2.1-0.1-3.1-0.1
	c-0.7,0-0.6,0.3-0.6,1.4s0,1.3,0.7,1.3c1,0,2-0.1,3-0.1h8.5c0.4,0,0.8,0.1,0.8,0.5c0,0.2,0,0.4,0,0.6c-0.4,2.7-1.8,5.2-3.9,7
	c-1.8,1.5-3.8,2.5-6,3.2c-0.2,0-0.4,0.2-0.4,0.4c0,0.4,0.9,2,1.4,2c0.3,0,0.5-0.1,0.8-0.2c1.6-0.6,3.2-1.5,4.6-2.4
	c3.9-2.7,5.6-5.9,6.4-10.6c0.2-1,0.4-1.3,0.4-1.5c-0.3-0.7-0.9-1.2-1.6-1.5c-0.1,0-0.3,0-0.4,0c-0.5,0.1-1.7,0.1-2.2,0.1h-8.4V93.7z
	 M248.2,97.6c-0.9,0-1.6-0.1-2.3-0.1s-0.6,0.4-0.6,1.3c0,0.7,0,1,0.6,1c0.8,0,1.5,0,2.3,0h1.3c0.4,0,0.7,0.3,0.7,0.7v4.6
	c0,0.4-0.3,0.7-0.7,0.7l0,0H247c-0.8,0-1.6-0.1-2.4-0.1c-0.6,0-0.6,0.5-0.6,1.2c0,0.6,0,1.1,0.6,1.1c0.8,0,1.6,0,2.4,0h8.7
	c0.8,0,1.6,0,2.4,0c0.6,0,0.6-0.4,0.6-1.1s0-1.2-0.6-1.2c-0.8,0-1.6,0.1-2.4,0.1h-2.6c-0.4,0-0.7-0.3-0.7-0.7l0,0v-4.6
	c0-0.4,0.3-0.7,0.7-0.7h1.3c0.7,0,1.5,0,2.3,0c0.6,0,0.6-0.3,0.6-1c0-0.9,0-1.3-0.6-1.3s-1.5,0.1-2.3,0.1H248.2L248.2,97.6z
	 M282.3,96.3c-0.2,0-0.3,0.1-0.4,0.3c-3.4,4.3-9.4,8.9-14.7,10.4c-0.3,0-0.6,0.2-0.7,0.4c0.2,0.5,0.4,1,0.7,1.4
	c0.2,0.5,0.5,0.9,0.9,1.2c0.1,0,0.2-0.1,0.2-0.2c0.2-0.4,0.6-0.7,1-0.8c4.9-2.2,9.3-5.2,13-9.1c0.5-0.4,1-1,1.3-1.7
	C283.7,98,282.8,96.2,282.3,96.3L282.3,96.3z M268.2,92.4c-0.6,0-1.5,1.5-1.5,1.9c0,0.2,0.2,0.4,0.4,0.4c1.1,0.7,2.2,1.4,3.2,2.2
	c0.3,0.3,0.6,0.5,1,0.6c0.8-0.4,1.3-1,1.6-1.8c-0.4-0.6-0.9-1-1.5-1.4C270.3,93.7,269.3,93,268.2,92.4L268.2,92.4z M294.6,93.8
	c-1.1,0-2.1-0.1-3.1-0.1c-0.6,0-0.6,0.4-0.6,1.2c0,1.1,0,1.5,0.6,1.5c1,0,2.1-0.1,3.1-0.1h5c0.4,0,0.7,0.1,0.7,0.4
	c-0.1,0.3-0.2,0.6-0.4,0.8c-2.6,4-6.3,7.2-10.7,9.1c-0.3,0-0.5,0.2-0.5,0.5c0,0.4,1.1,2,1.6,2c0.4-0.1,0.7-0.3,1.1-0.5
	c2.2-1.1,4.2-2.5,6-4.2c0.2-0.2,0.4-0.4,0.7-0.4c0.2,0,0.4,0.1,0.6,0.2c2,1.3,3.8,2.9,5.3,4.8c0.1,0.2,0.4,0.3,0.6,0.4
	c0.8-0.4,1.5-1.1,1.8-1.9c0-0.1-0.1-0.2-0.2-0.3c-0.6-0.6-1.2-1.1-1.7-1.6c-1.3-1.1-2.6-2.2-4.1-3.1c-0.2-0.1-0.4-0.3-0.4-0.6
	c0-0.2,0.1-0.3,0.2-0.5c1.2-1.4,2.2-3,3.1-4.6c0.1-0.2,0.2-0.4,0.4-0.6c0.2-0.3,0.4-0.6,0.5-0.9c-0.3-0.7-0.8-1.3-1.5-1.6
	c-0.1,0-0.4,0.1-0.5,0.1c-0.3,0-0.7,0.1-1,0.1h-6.6V93.8z M326.9,93.4c0.3-0.1,0.6,0.2,0.7,0.5c0,0.1,0,0.1,0,0.2v8.3
	c0,0.7,0,1.3,0,1.9c0,1.6,0.3,2.1,2,2.1h1.1c0.8,0.1,1.6-0.3,1.9-1.1c0.3-1.4,0.5-2.7,0.6-4.1c0-0.7-0.9-0.9-1.5-0.9
	c-0.5,0-0.5,0.3-0.5,0.7c0,0.9-0.1,1.9-0.3,2.8c0,0.2-0.2,0.4-0.4,0.4l0,0h-0.2c-0.5,0-0.4-0.3-0.4-1V94c0-0.6,0-1.2,0-1.9
	c0.1-0.4-0.2-0.9-0.6-1c-0.1,0-0.3,0-0.4,0c-0.5,0-1,0-1.5,0h-2c-0.5,0-1,0-1.5,0c-0.4-0.1-0.9,0.2-1,0.6c0,0.1,0,0.3,0,0.4
	c0,0.6,0,1.2,0,1.9v2.6c0,2.5-0.4,5.8-1.9,7.9c-0.1,0.1-0.2,0.3-0.3,0.5c0.3,0.7,0.9,1.2,1.6,1.3c0.6,0,1.4-1.8,1.6-2.3
	c0.9-2.3,1.3-4.8,1.2-7.3V94c-0.1-0.3,0.2-0.6,0.5-0.7c0.1,0,0.1,0,0.2,0L326.9,93.4L326.9,93.4z M317.7,95.8
	c0.4-0.1,0.7,0.1,0.8,0.5c0,0.1,0,0.1,0,0.2c-0.1,2-0.5,4-1.2,5.8c0,0.1-0.2,0.2-0.3,0.2c-0.1,0-0.2-0.1-0.2-0.2
	c-0.5-1.3-0.9-2.7-1.2-4.1c0-0.1,0-0.3,0-0.4c0-0.2,0-0.4,0.1-0.7c0.1-0.2,0.1-0.5,0.2-0.7c0-0.4,0.4-0.7,0.8-0.6l0,0L317.7,95.8
	L317.7,95.8z M317.8,107.7c3.4,3.6,7.8,3.6,12.4,3.6h0.8c0.6,0,1.1,0,1.7-0.2c0.4-0.5,0.5-1.1,0.5-1.7c0-0.3-0.2-0.6-0.5-0.6h-0.1
	c-0.3,0-2.7,0.1-3.9,0.1c-3.7,0-7.1-0.1-9.7-3.2c-0.2-0.1-0.2-0.3-0.2-0.6c0-0.2,0-0.3,0.1-0.5c0.8-1.8,1.5-3.7,1.8-5.7
	c0.3-1.5,0.3-2.4,0.5-3.8c0-0.2,0-0.4,0-0.6c0-0.9-0.7-1.1-1.5-1.1h-2.3c-0.3,0.1-0.5-0.1-0.6-0.4v-0.1c0-0.2,0.1-0.8,0.2-1
	c-0.1-0.4,0.1-0.7,0.4-0.9c0.2-0.1,0.3-0.2,0.3-0.4c0-0.3-0.6-0.4-1.6-0.6c-0.1,0-0.7-0.1-0.8-0.1c-0.3,0-0.3,0.2-0.3,0.7
	c0,0.1,0,0.3,0,0.4c-0.3,3.2-1.2,6.3-2.8,9.1c-0.2,0.2-0.3,0.5-0.3,0.8c0.2,0.7,0.8,1.3,1.5,1.6c0.4,0,0.7-0.7,1-1.4
	c0-0.1,0.1-0.1,0.2-0.2c0.1,0,0.2,0.1,0.2,0.2c0.3,1.1,0.7,2.2,1.1,3.3c0.1,0.2,0.1,0.3,0.1,0.5s-0.1,0.4-0.2,0.5
	c-0.9,1.5-2.1,2.7-3.5,3.8c-0.2,0.1-0.4,0.3-0.4,0.6c0.3,0.7,0.8,1.2,1.5,1.4c0.8,0,3.2-3,3.7-3.8c0.1-0.1,0.2-0.2,0.4-0.2
	C317.6,107.5,317.7,107.6,317.8,107.7L317.8,107.7z M341.7,93.7c-0.9,0-1.9-0.1-2.8-0.1c-0.6,0-0.6,0.3-0.6,1.2s0,1.2,0.6,1.2
	c0.9,0,1.9-0.1,2.8-0.1h3.9c0.3,0,0.6,0.2,0.7,0.5v0.1V97c0.1,2.3-0.4,4.7-1.4,6.8c-1.2,2.2-2.9,4-5.1,5.2c-0.6,0.3-0.8,0.4-0.8,0.7
	c0.1,0.8,0.7,1.5,1.5,1.7c0.6,0,2.1-1.1,2.6-1.6c2.5-1.9,4.3-4.6,5.1-7.6c0-0.4,0.4-0.7,0.7-0.6l0,0h4.4c1.2,0,1.3,0,1.3,0.7
	c-0.1,1.9-0.4,3.8-1,5.6c-0.3,0.8-1.2,1.3-2,1.2c-0.6,0-1.2-0.1-1.6-0.1c-0.5,0-0.5,0.3-0.5,0.8c0,1.8,0.8,1.7,2.2,1.7
	c1.6,0,3-0.1,3.9-1.7c1.1-2.2,1.7-6.7,1.7-9.1c0-0.8-0.1-1.4-1.3-1.4c-0.6,0-1.1,0.1-1.7,0.1h-5c-0.3,0.1-0.6-0.1-0.6-0.4
	c0-0.1,0-0.1,0-0.2c0-0.5,0-1,0-1.5c0-0.2,0-0.4,0.2-0.4c0.2-0.1,0.4-0.2,0.4-0.5c0-0.1-0.1-0.2-0.2-0.3V96h6.8c1,0,1.9,0.1,2.8,0.1
	c0.6,0,0.6-0.3,0.6-1.2s0-1.2-0.6-1.2c-0.9,0-1.9,0.1-2.8,0.1h-5.2c-0.3,0.1-0.6-0.1-0.7-0.5c0-0.1,0-0.1,0-0.2c0-1.7,0-1.8,0.3-2
	c0.2-0.1,0.3-0.2,0.4-0.4c0-0.3-0.4-0.3-0.6-0.3c-0.4-0.1-1.9-0.2-2.3-0.2c-0.2,0-0.4,0.1-0.4,0.2v0.1v0.2c0.1,0.5,0.1,1,0.1,1.5V93
	c0.1,0.3-0.1,0.6-0.5,0.7c-0.1,0-0.1,0-0.2,0L341.7,93.7L341.7,93.7z M368.9,92.1c0,0.1,0,0.2,0.1,0.3c0.2,0.5,0.3,1.1,0.5,1.6
	c0.2,1,0.9,3.5,1.2,4.4c0.1,0.1,0.1,0.3,0.1,0.4c0,0.3-0.2,0.5-0.4,0.6c-2,1.3-4.2,3-4.2,5.6c0,1.5,0.9,3,2.2,3.7
	c1.5,0.8,3.2,1.2,4.9,1c2.2,0,4.4-0.1,6.6-0.4c0.5-0.1,0.5-0.4,0.5-1V108c0-0.5,0-1.5-0.4-1.5c-0.1,0-0.1,0-0.2,0
	c-2.1,0.4-4.2,0.6-6.3,0.6c-1.1,0-2.2-0.1-3.2-0.4c-0.8-0.2-1.5-0.9-1.6-1.7c0.1-0.9,0.5-1.6,1.2-2.2c1.3-1.1,2.8-2,4.3-2.8
	c1.9-1.1,3.9-2,5.9-2.8c0.2,0,0.4-0.2,0.5-0.4c-0.1-0.5-0.4-1-0.7-1.5c-0.2-0.4-0.5-0.7-0.9-1c-0.2,0-0.4,0.1-0.6,0.2
	c-1.6,1-3.2,1.9-4.9,2.7c-0.3-0.1-0.6-0.4-0.6-0.7c-0.3-1.4-0.6-2.8-0.7-4.3c0-0.6,0-0.9-0.7-0.9c-0.4,0-0.8,0.1-1.2,0.1
	C369.7,91.8,368.9,91.8,368.9,92.1L368.9,92.1z M399.2,95.5c-0.1-0.3,0.1-0.5,0.4-0.6c0.1,0,0.1,0,0.2,0h4.8c1,0,1.9,0,2.9,0
	c0.5,0,0.5-0.3,0.5-1s0-1-0.5-1c-1,0-1.9,0-2.9,0H403c-0.2,0-0.3-0.1-0.4-0.3l0,0c0-0.1,0-0.2,0.1-0.2c0.2-0.3,0.4-0.7,0.7-1
	c0.1-0.1,0.3-0.2,0.4-0.2c0.2,0,0.4-0.1,0.4-0.3s-0.3-0.3-1.1-0.7c-0.5-0.2-1-0.4-1.5-0.5c-0.2,0-0.3,0.1-0.3,0.3
	c-0.4,0.8-0.8,1.6-1.3,2.4c-0.2,0.4-0.6,0.5-1,0.5h-3.8c-0.1,0-0.1,0-0.1-0.1c0,0,0-0.1,0.1-0.1c0.3-0.1,0.6-0.3,0.7-0.6
	c-0.1-0.4-0.4-0.8-0.6-1.1c-0.3-0.4-0.9-1.4-1.4-1.4c-0.3,0-1.8,0.4-1.8,0.9c0,0.1,0.1,0.3,0.2,0.4c0.4,0.5,0.8,0.9,1.1,1.4
	c0,0.1,0.1,0.1,0.1,0.2c0,0.2-0.1,0.3-0.3,0.3h-0.1h-1.7c-0.9,0-1.9,0-2.8,0c-0.5,0-0.5,0.2-0.5,1s0,1,0.5,1c1,0,1.9,0,2.8,0h4.7
	c0.3,0,0.5,0.1,0.6,0.4c0,0.1,0,0.1,0,0.2v0.3c0,0.3-0.1,0.5-0.4,0.6c-0.1,0-0.1,0-0.2,0h-2.7c-0.9,0-1.8-0.1-2.7-0.1
	c-0.5,0-0.5,0.3-0.5,1s0,1,0.5,1c0.9,0,1.8-0.1,2.7-0.1h2.7c0.3,0,0.5,0.1,0.6,0.4c0,0.1,0,0.1,0,0.2v0.4c0,0.3-0.1,0.5-0.4,0.6
	h-0.1h-5.4c-0.9,0-1.9-0.1-2.9-0.1c-0.5,0-0.5,0.3-0.5,1s0,1,0.5,1c1,0,1.9-0.1,2.9-0.1h5.3c0.3,0,0.6,0.1,0.6,0.4
	c0,0.1,0,0.1,0,0.2s0,0.3,0,0.4c0,0.4-0.3,0.6-0.6,0.6H396h-4.5c-1,0-1.9-0.1-2.9-0.1c-0.5,0-0.5,0.3-0.5,1.1c0,0.7,0,1,0.5,1
	c1,0,1.9-0.1,2.9-0.1h3.7c0.2,0,0.4,0.1,0.4,0.3c0,0.1,0,0.2-0.1,0.2c-1.8,2.1-4.8,3-7.5,3.4c-0.4,0.1-0.5,0.1-0.5,0.4
	c0,0.6,0.5,1.9,1.1,1.9c0.9-0.1,1.8-0.3,2.7-0.6c2.6-0.6,4.8-2.1,6.5-4.1c0.1-0.1,0.2-0.2,0.4-0.2c0.1,0,0.3,0.1,0.4,0.2
	c1.5,1.8,3.4,3.2,5.7,3.9c1.1,0.4,2.2,0.7,3.4,0.9c0.7,0,1.2-1.2,1.2-1.8c0-0.4-0.2-0.5-0.6-0.6c-2.8-0.3-5.5-1.6-7.6-3.4
	c-0.1-0.1-0.1-0.1-0.1-0.2c0-0.2,0.2-0.3,0.3-0.3h4.1c0.9,0,1.9,0.1,2.8,0.1c0.5,0,0.5-0.3,0.5-1s0-1.1-0.5-1.1
	c-0.9,0-1.9,0.1-2.8,0.1h-5c-0.3,0.1-0.5-0.1-0.6-0.4c0,0,0,0,0-0.1s0-0.2,0.1-0.2c0-0.1,0.1-0.1,0.2-0.2c0.2,0,0.3-0.2,0.4-0.3
	c-0.2-0.3-0.5-0.5-0.9-0.4l0,0c0,0,0,0,0-0.1l0,0h6.4c1,0,1.9,0.1,2.9,0.1c0.5,0,0.5-0.2,0.5-1s0-1-0.5-1c-1,0-1.9,0.1-2.9,0.1h-5.4
	c-0.3,0-0.5-0.1-0.6-0.4c0-0.1,0-0.1,0-0.2v-0.4c-0.1-0.3,0.1-0.5,0.4-0.6c0.1,0,0.1,0,0.2,0h2.8c0.9,0,1.8,0.1,2.7,0.1
	c0.6,0,0.5-0.3,0.5-1s0-1-0.5-1c-0.9,0-1.8,0.1-2.7,0.1h-2.8c-0.3,0.1-0.5-0.1-0.6-0.4c0-0.1,0-0.1,0-0.2L399.2,95.5L399.2,95.5z
	 M433.9,99.6c-0.1-0.2-0.2-0.3-0.4-0.4c-1.8-0.9-3.4-2.1-4.8-3.5c-0.1-0.2-0.3-0.3-0.5-0.3c-0.6,0.2-1.1,0.7-1.4,1.2
	c0,0.7,5.1,4.5,5.8,4.5C433.3,100.8,433.7,100.2,433.9,99.6L433.9,99.6z M422.1,96.8c-0.2-0.3-0.4-0.6-0.7-0.8
	c-0.4-0.3-0.8-0.6-1.2-0.8c-0.1,0-0.2,0.1-0.3,0.2c-1.4,1.5-3,2.7-4.8,3.6c-0.3,0.1-0.5,0.3-0.6,0.5c0.2,0.6,0.7,1.2,1.3,1.4
	c0.4-0.1,0.7-0.2,1-0.4c1.6-0.9,3-2,4.3-3.3c0.1-0.1,0.3-0.2,0.5-0.3h0.2C421.9,97.1,422,97,422.1,96.8L422.1,96.8L422.1,96.8z
	 M426.2,92.5c-0.3,0.1-0.6-0.2-0.7-0.5c0-0.1,0-0.1,0-0.2c-0.1-0.4,0-0.7,0.3-1c0.1-0.1,0.3-0.2,0.3-0.3c0-0.3-0.5-0.3-0.7-0.3
	c-0.5,0-1.6-0.1-2-0.1c-0.2,0-0.5,0-0.5,0.3c0,0.1,0,0.2,0,0.2c0.1,0.4,0.1,0.8,0.1,1.2c0,0.3-0.2,0.6-0.5,0.6c-0.1,0-0.1,0-0.2,0
	h-4.1c-0.9,0-1.7,0-2.6,0c-0.7,0-1.3,0.2-1.3,1c0,0.3,0,0.7,0,1.3v1.2c0,0.3-0.1,0.7-0.1,1c0,0.6,0.4,0.6,1.2,0.6
	c0.8,0,1.2,0,1.2-0.5c0-0.3-0.1-0.7-0.1-1v-0.5c-0.1-0.3,0.2-0.6,0.5-0.7c0.1,0,0.1,0,0.2,0h13.9c0.3,0,0.6,0.2,0.7,0.5
	c0,0.1,0,0.1,0,0.2V96c0,0.3,0,0.7,0,1c0,0.5,0.4,0.5,1.2,0.5c0.9,0,1.2,0,1.2-0.6c0-0.3,0-0.7,0-1v-1.3c0-0.5,0-1,0-1.3
	c0-0.6-0.5-1-1.1-1c-0.1,0-0.1,0-0.2,0c-0.9,0-1.7,0-2.6,0h-4.1V92.5z M421.4,108.6c-0.3,0-0.6-0.2-0.6-0.5V108v-1.8
	c0-0.3,0.2-0.6,0.6-0.7c0,0,0,0,0.1,0h5.6c0.4,0,0.7,0.3,0.7,0.7v1.8c0,0.4-0.3,0.6-0.6,0.7l0,0L421.4,108.6L421.4,108.6z
	 M421.1,103c1-0.7,1.9-1.5,2.7-2.4c0.1-0.1,0.3-0.2,0.5-0.2s0.3,0.1,0.4,0.2c0.9,0.8,1.8,1.6,2.7,2.4c0.1,0,0.1,0.1,0.1,0.2
	s-0.1,0.2-0.2,0.2l0,0h-6.1c-0.1,0-0.2,0-0.2-0.2l0,0C421,103.1,421.1,103,421.1,103L421.1,103z M430.6,105.1c1,0.6,2,1.2,3,1.6
	c0.7-0.3,1.1-0.9,1.3-1.7c-0.1-0.3-0.4-0.4-0.6-0.5c-3.1-1.4-5.9-3.3-8.3-5.6v-0.1c0-0.1,0-0.1,0.1-0.1s0.2-0.2,0.2-0.3
	c-0.1-0.3-0.4-0.5-0.7-0.6c-0.1,0-0.2-0.1-0.3-0.2c-0.3-0.2-0.7-0.4-1.1-0.5c-0.2,0.1-0.4,0.2-0.5,0.4c-2.6,3-5.9,5.3-9.5,6.9
	c-0.3,0.1-0.6,0.3-0.7,0.6c0,0.3,0.8,1.6,1.4,1.6c1-0.4,2.1-0.9,3-1.5c0.1,0,0.1-0.1,0.2-0.1c0.2,0,0.3,0.2,0.3,0.3l0,0v4.3
	c0,0.5,0,1.1,0,1.4c0,0.5,0.3,0.5,1.2,0.5c1,0,1.2,0,1.2-0.6c0-0.2,0.1-0.4,0.3-0.4h0.1h6c0.2,0,0.4,0.1,0.4,0.3v0.1v0.1
	c0,0.5,0.3,0.5,1.2,0.5c0.9,0,1.2,0,1.2-0.5c0-0.1,0-1.2,0-1.4v-4.3c0-0.2,0.1-0.4,0.3-0.4c0,0,0,0,0.1,0
	C430.4,105,430.5,105.1,430.6,105.1L430.6,105.1z M444.9,98.7c-0.4-0.6-0.9-1.1-1.6-1.5c-0.6-0.6-1.3-1-2-1.4
	c-0.6,0.3-1.1,0.8-1.4,1.5c0.1,0.2,0.2,0.4,0.5,0.5c0.9,0.7,1.8,1.4,2.7,2.1c0.1,0.2,0.3,0.3,0.5,0.3
	C444.1,99.9,444.6,99.3,444.9,98.7L444.9,98.7z M445.6,93.2c-0.4-0.6-0.9-1-1.5-1.4c-0.6-0.5-1.3-1-2.1-1.3
	c-0.6,0.3-1.1,0.8-1.3,1.5c0.1,0.2,0.2,0.4,0.4,0.5c0.9,0.6,1.7,1.2,2.5,1.8c0.2,0.2,0.4,0.3,0.6,0.4
	C444.9,94.4,445.4,93.8,445.6,93.2L445.6,93.2z M455.9,104.6c-0.1,0.2-0.4,0.2-0.6,0.1l-0.1-0.1c-0.6-0.8-1.2-1.6-1.7-2.5
	c-0.1-0.1-0.1-0.3-0.1-0.5s0.1-0.4,0.2-0.6c0.2-0.3,0.3-0.6,0.5-0.9c0.2-0.4,0.5-0.6,0.9-0.5h2.4c0.4,0,0.6,0,0.6,0.3
	c-0.1,0.5-0.2,1-0.4,1.5c-0.1,0.2-0.2,0.3-0.4,0.3c-0.1,0-0.2-0.1-0.3-0.1l-0.2-0.2c-0.4-0.5-0.9-0.8-1.4-1.1
	c-0.5,0.2-0.9,0.7-1,1.2c0,0.2,0.1,0.3,0.3,0.4c0.6,0.5,1.2,1,1.7,1.6c0.1,0.1,0.1,0.2,0.1,0.3c0,0.1,0,0.1,0,0.2L455.9,104.6z
	 M452.2,104.1c0.4,0.8,0.9,1.5,1.4,2.2c0.1,0.1,0.2,0.3,0.2,0.4c0,0.2-0.1,0.4-0.2,0.5c-0.9,0.7-1.8,1.3-2.8,1.9
	c-0.7,0.4-0.9,0.5-0.9,0.8c0.2,0.8,0.7,1.4,1.4,1.7c0.7,0,3.3-2.1,4-2.6c0.1-0.1,0.3-0.2,0.5-0.2s0.3,0.1,0.5,0.2
	c0.6,0.5,3.5,2.7,4.1,2.7c0.7-0.3,1.2-1,1.4-1.7c-0.2-0.4-0.5-0.6-0.9-0.7c-1.1-0.6-2.1-1.3-3-2c-0.2-0.1-0.3-0.3-0.3-0.5
	s0.1-0.3,0.1-0.4c1.2-1.7,2.2-3.6,2.8-5.7c0.1-0.5,0.2-1,0.3-1.4c-0.1-0.8-0.8-1.5-1.7-1.5c-0.5,0-1.1,0-1.6,0H456
	c-0.2,0-0.4-0.1-0.4-0.3v-0.1c0-0.1,0-0.1,0-0.2c0.2-0.5,0.2-0.6,0.5-0.7c0.2,0,0.3-0.1,0.3-0.3c0-0.2-0.3-0.3-0.8-0.5
	s-1-0.4-1.6-0.5c-0.2,0-0.3,0.2-0.3,0.4c-1,2.6-2.3,4.9-4.1,7.1c-0.1,0.1-0.1,0.1-0.2,0.1s-0.2-0.1-0.2-0.3l0,0v-0.9
	c-0.1-0.4,0-0.8,0.2-1.1c0.2-0.1,0.3-0.2,0.3-0.4c0-0.2-0.2-0.3-0.3-0.3c-0.1,0-0.1-0.1-0.1-0.1l0,0v-0.1c0.6-0.9,1.2-1.9,1.7-2.8
	c0.2-0.4,0.3-0.4,0.5-0.4c0.1,0,0.3-0.1,0.3-0.2c0-0.2-0.3-0.3-0.8-0.6c-0.2-0.1-0.4-0.2-0.7-0.3c-0.1,0-0.1-0.1-0.1-0.1
	c0-0.1,0.1-0.1,0.1-0.1l0,0h7.9c0.9,0,1.7,0.1,2.6,0.1c0.6,0,0.5-0.3,0.5-1.2c0-0.8,0-1.1-0.5-1.1c-0.9,0-1.7,0.1-2.6,0.1h-3
	c-0.3,0.1-0.6-0.1-0.7-0.4c0-0.1,0-0.1,0-0.2c-0.1-0.4,0-0.9,0.3-1.3c0.2-0.1,0.3-0.2,0.3-0.4c0-0.3-0.4-0.3-0.6-0.3
	c-0.4,0-1.8-0.1-2-0.1s-0.5,0-0.5,0.3c0,0.1,0,0.2,0,0.2c0.1,0.5,0.1,1,0.1,1.5c0.1,0.3-0.1,0.6-0.4,0.6c-0.1,0-0.1,0-0.2,0h-2.6
	c-0.9,0-1.7-0.1-2.6-0.1c-0.5,0-0.5,0.3-0.5,1.1c0,0.9,0,1.2,0.5,1.2c0.8,0,1.7-0.1,2.5-0.1c0.2,0,0.3,0.1,0.3,0.3l0,0
	c0,0.1,0,0.1,0,0.2c-0.7,1.4-1.5,2.6-2.4,3.8c-0.7,0.9-1.5,1.8-2.3,2.6c-0.1,0.2-0.3,0.3-0.5,0.3c-0.1,0-0.1,0-0.2,0
	c-0.1-0.1-0.3-0.1-0.4-0.1c-0.2,0-0.3,0.2-0.3,0.4c-0.2,0.8-0.5,1.7-0.8,2.4c-0.3,0.9-1.5,3.6-1.9,4.3c-0.2,0.2-0.3,0.4-0.4,0.7
	c0.1,0.3,0.4,0.5,0.6,0.6s0.4,0.2,0.6,0.3c0.3,0.2,0.7,0.4,1,0.5c0.1,0,0.2-0.2,0.2-0.3c0-0.2-0.1-0.4-0.1-0.5
	c0-0.2,0.1-0.4,0.2-0.6c0.9-2,1.6-4,2.3-6c0-0.2,0.2-0.3,0.4-0.3c0.1,0,0.2,0,0.3,0.1c0.1,0,0.2,0,0.2,0.1c0.3-0.1,0.5-0.3,0.7-0.5
	c0-0.1,0.1-0.1,0.2-0.1s0.2,0.1,0.2,0.2l0,0v4.6c0,0.9,0,1.9,0,2.8c0,0.7,0.3,0.8,1.2,0.8s1.2-0.1,1.2-0.8c0-0.9,0-1.9,0-2.8v-3.9
	c0-0.1,0-0.2,0.2-0.2l0,0c0.1,0,0.1,0,0.2,0.1c0.3,0.4,0.7,0.6,1.1,0.8c0.3-0.1,0.6-0.4,0.8-0.7c0.1-0.1,0.2-0.2,0.3-0.2
	C452,103.8,452.1,103.9,452.2,104.1L452.2,104.1z M469.1,99.4c-0.1,0-0.2,0-0.3,0c-0.2,0-0.3-0.1-0.3-0.4c0-0.2,0-0.4,0-0.7l0.2-2.1
	c0-0.6,0.2-0.7,0.8-0.7h2.4c1.2,0,3.6,0.1,3.7,0.1c0.5,0,0.6-0.1,0.6-0.7v-1.3c0-0.6-0.1-0.7-0.6-0.7c-0.2,0-2.5,0.1-3.7,0.1h-1.3
	c-1.2,0-3.3-0.1-3.6-0.1c-0.5,0-0.6,0.1-0.6,0.7s-0.1,1.6-0.1,2.2l-0.3,3c-0.1,0.7-0.1,1.4-0.2,2.1c0,0.1,0,0.2,0,0.3
	c0,0.4,0.1,0.5,0.6,0.6c0.2,0.1,0.5,0.1,0.7,0.2c0.2,0,0.4-0.1,0.6-0.2c0.8-0.3,1.7-0.4,2.6-0.4c2.2,0,3.7,1,3.7,2.8
	s-1.2,3.3-4.1,3.3c-1.2,0-2.4-0.3-3.5-0.9c-0.1-0.1-0.3-0.2-0.5-0.2c-0.2,0.1-0.4,0.3-0.4,0.5l-0.5,1.2c-0.1,0.1-0.1,0.3-0.1,0.5
	c0,0.3,0.2,0.5,0.5,0.5c1.4,0.6,2.8,0.9,4.3,0.9c5.3,0,7.1-3.2,7.1-5.9c0-3.3-2.5-4.9-5.9-4.9C470.3,99.2,469.7,99.3,469.1,99.4
	L469.1,99.4z M489.2,92.8c-4.7,0-7.2,4-7.2,8.9c0,5.5,3,8.4,6.9,8.4c4,0,7.3-3.3,7.3-9C496.1,95.6,493,92.8,489.2,92.8L489.2,92.8z
	 M489.2,95.5c2.4,0,4.1,1.9,4.1,5.6c0,3.9-1.9,6.4-4.5,6.4c-2.4,0-4.1-2-4.1-5.7C484.7,98.4,486.1,95.5,489.2,95.5L489.2,95.5z
	 M505.6,92.8c-2.8,0-4.5,2-4.5,5.2c0,3.1,1.8,4.8,4.2,4.8c2.6,0,4.4-1.9,4.4-5.2C509.8,94.5,507.9,92.8,505.6,92.8L505.6,92.8z
	 M507.6,109.9c0.5,0.1,0.9-0.2,1-0.7c0.4-0.8,0.7-1.5,1.1-2.3l5.4-11c0.4-0.8,0.8-1.6,1.2-2.4c0.1-0.1,0.1-0.3,0.1-0.4
	c0-0.2-0.2-0.2-0.5-0.2h-1.3c-0.5-0.1-0.9,0.2-1,0.6l0,0c-0.4,0.8-0.7,1.6-1.1,2.3l-5.5,11c-0.4,0.8-0.8,1.6-1.2,2.3
	c-0.1,0.1-0.1,0.3-0.1,0.4c0,0.2,0.2,0.2,0.5,0.2L507.6,109.9L507.6,109.9z M505.5,95.1c1.1,0,1.8,0.9,1.8,2.6c0,1.8-0.8,2.8-2,2.8
	c-1,0-1.8-0.9-1.8-2.6C503.6,96.3,504.3,95.1,505.5,95.1L505.5,95.1z M517,100.1c-2.8,0-4.5,2-4.5,5.2c0,3.1,1.8,4.8,4.2,4.8
	c2.6,0,4.4-1.9,4.4-5.2C521.1,101.8,519.3,100.1,517,100.1L517,100.1z M516.9,102.4c1.1,0,1.8,0.9,1.8,2.6c0,1.8-0.8,2.8-2,2.8
	c-1,0-1.8-0.9-1.8-2.6C515,103.6,515.7,102.4,516.9,102.4L516.9,102.4z M543.7,101.2c0.3,0,0.5,0.1,0.6,0.3c0.1,0.3,0.4,0.3,1.2,0.3
	c0.9,0,1.2,0,1.2-0.6c0-0.7-0.1-1.7-0.1-2.6v-4.1c0-0.6,0-1.3,0-1.9c0-0.8-0.2-1.1-1.1-1.1c-0.6,0-1.1,0-1.6,0h-3.1
	c-0.8,0-1.6-0.1-2.4-0.1c-0.6,0-0.5,0.3-0.5,1.2c0,0.8,0,1.2,0.5,1.2c0.8,0,1.6-0.1,2.4-0.1h2.9c0.3-0.1,0.6,0.2,0.7,0.5
	c0,0.1,0,0.1,0,0.2v3.8c0.1,0.3-0.1,0.6-0.4,0.7c-0.1,0-0.2,0-0.2,0H541c-0.6,0-1.1,0-1.7,0c-0.9,0-1.1,0.2-1.1,0.9c0,0.5,0,1,0,1.5
	v4.6c0,0.7,0,1.4,0,2.2c0,2.3,1.2,2.8,3.2,2.8h2.2c1.4,0,2.5-0.1,3.2-1.5c0.5-1.1,0.7-2.3,0.8-3.6c0-0.4-0.1-0.8-1.6-0.8
	c-0.6,0-0.7,0.2-0.7,0.7c-0.2,2.5-0.6,2.8-1.8,2.8h-1.8c-1.2,0-1.2-0.4-1.2-2.3v-4.3c-0.1-0.3,0.2-0.6,0.5-0.7c0.1,0,0.1,0,0.2,0
	H543.7L543.7,101.2z M531.8,95.6c-0.3,0-0.6-0.2-0.6-0.5c0,0,0,0,0-0.1v-1.4c0-0.3,0.2-0.5,0.5-0.6h0.1h0.1c0.3,0,0.6,0.2,0.6,0.5
	c0,0,0,0,0,0.1V95c0,0.3-0.2,0.6-0.5,0.6l0,0H531.8L531.8,95.6z M528.7,107c0-0.4,0.3-0.7,0.7-0.7h4.8c0.4,0,0.7,0.3,0.7,0.7v0.4
	c0,0.4-0.3,0.7-0.7,0.7h-4.8c-0.4,0-0.7-0.3-0.7-0.7V107z M531.8,97.6c0.3-0.1,0.6,0.1,0.7,0.5c0,0.1,0,0.1,0,0.2v1.7
	c0,0.6,0,1.2,0,1.7c-0.1,0.4,0.2,0.9,0.6,1c0.1,0,0.3,0,0.4,0c0.3,0,0.6,0,0.8,0c0.3,0,0.6,0.2,0.6,0.5c0,0.1,0,0.1,0,0.2v0.6
	c0,0.3-0.2,0.6-0.5,0.7c-0.1,0-0.1,0-0.2,0h-4.8c-0.3,0-0.6-0.2-0.7-0.5c0-0.1,0-0.1,0-0.2v-6c0-0.2,0.1-0.4,0.3-0.4h0.1h0.3
	c0.2,0,0.4,0.1,0.4,0.3V98c0.1,1.5-0.2,3.1-0.9,4.5c-0.1,0.1-0.1,0.3-0.2,0.4c0.2,0.4,0.5,0.7,0.9,0.8c0.4,0,0.6-0.8,0.7-1.1
	c0.5-1.4,0.7-2.9,0.6-4.5c0-0.3,0.2-0.5,0.5-0.5C531.7,97.5,531.7,97.5,531.8,97.6L531.8,97.6L531.8,97.6z M533.7,98.1
	c0-0.3,0.2-0.5,0.5-0.6c0,0,0,0,0.1,0l0,0c0.3,0,0.5,0.2,0.6,0.5c0,0,0,0,0,0.1v1.9c0,0.3-0.2,0.6-0.5,0.6l0,0l0,0
	c-0.3,0-0.6-0.2-0.6-0.5l0,0L533.7,98.1L533.7,98.1z M528.8,95.6c-0.3,0-0.6,0-1,0c-0.8,0-1,0.3-1,1.3c0,0.7,0,1.3,0,2v9.5
	c0,0.9,0,1.8,0,2.7c0,0.6,0.2,0.6,1,0.6s1,0,1-0.6v-0.4c0-0.3,0.2-0.6,0.5-0.6c0.1,0,0.1,0,0.2,0h4.8c0.2-0.1,0.5,0.1,0.5,0.3
	c0,0.1,0,0.1,0,0.2v0.2c0,0.6,0.2,0.6,1,0.6c0.7,0,1,0,1-0.6c0-0.8,0-1.7,0-2.5v-9.4c0-0.7,0-1.4,0-2.1c0-0.8-0.2-1.2-0.9-1.2
	c-0.4,0-0.7,0-1.1,0.1c-0.3,0-0.6-0.2-0.6-0.5c0-0.1,0-0.1,0-0.2v-1.2c-0.1-0.3,0.1-0.6,0.4-0.6c0.1,0,0.1,0,0.2,0
	c0.7,0,1.4,0.1,2.1,0.1c0.6,0,0.6-0.2,0.6-1.1s0-1.1-0.6-1.1c-0.9,0-1.8,0.1-2.7,0.1h-4.5c-0.9,0-1.8-0.1-2.7-0.1
	c-0.6,0-0.6,0.2-0.6,1.1s0,1.1,0.6,1.1c0.3,0,1.6-0.1,1.9-0.1c0.3,0,0.6,0.2,0.6,0.5c0,0.1,0,0.1,0,0.2v1.2c0.1,0.3-0.1,0.6-0.4,0.6
	C529,95.6,528.9,95.6,528.8,95.6L528.8,95.6z M559.5,108.1c-0.4,0-0.7-0.3-0.7-0.7v-2.3c0-0.4,0.3-0.7,0.7-0.7h7.3
	c0.4,0,0.7,0.3,0.7,0.7v2.3c0,0.4-0.3,0.7-0.7,0.7H559.5z M566.9,110.3c0.3-0.1,0.5,0.1,0.5,0.4c0,0.1,0,0.1,0,0.2v0.3
	c0,0.6,0.3,0.6,1.3,0.6c0.9,0,1.3,0,1.3-0.6c0-0.4,0-1.2,0-1.7V105c0-0.5,0-1,0-1.4c0-1.1-0.7-1.3-1.7-1.3c-0.6,0-1.2,0.1-1.8,0.1
	h-6.7c-0.6,0-1.2-0.1-1.8-0.1c-1,0-1.7,0.2-1.7,1.3c0,0.5,0,0.9,0,1.4v4.3c0,0.3,0,1.7,0,1.8c0,0.6,0.3,0.6,1.2,0.6s1.3,0,1.3-0.6
	v-0.2c0-0.3,0.1-0.5,0.4-0.5c0.1,0,0.1,0,0.2,0L566.9,110.3L566.9,110.3z M563.6,93.5c0.9,1.2,1.8,2.2,2.9,3.2
	c0.1,0.1,0.2,0.2,0.3,0.2c0.3,0.2,0.5,0.4,0.6,0.7c0,0.4-0.4,0.3-1.9,0.3H561c-0.6,0-1.1,0-1.7-0.1c-0.1,0-0.3-0.1-0.3-0.2l0,0
	c0-0.1,0-0.2,0.1-0.2c1.3-1.3,2.6-2.6,3.7-4c0.1-0.1,0.2-0.2,0.4-0.2C563.4,93.3,563.5,93.3,563.6,93.5L563.6,93.5z M558.2,99.2
	c0,0.5,0,1.1,0.5,1.1c0.8,0,1.5-0.1,2.3-0.1h4.4c0.8,0,1.6,0.1,2.3,0.1c0.5,0,0.5-0.4,0.5-1v-0.5c0-0.2,0-0.4,0.2-0.4
	c0.1,0,0.2,0,0.3,0.1c0.6,0.4,3.6,2.7,4.2,2.7c0.5,0,1.2-1.5,1.2-1.9c-0.1-0.3-0.4-0.5-0.7-0.6c-3.4-1.7-6.3-4.2-8.5-7.2v-0.1
	c0-0.1,0.1-0.1,0.1-0.2c0.2,0,0.3-0.2,0.3-0.3c-0.1-0.2-0.3-0.4-0.5-0.4c-0.4-0.1-2-0.5-2.3-0.5c-0.2,0-0.3,0.2-0.4,0.3
	c-0.6,1-1.2,1.9-1.9,2.8c-1.9,2.3-4.3,4.3-6.9,5.8c-0.3,0.1-0.5,0.3-0.6,0.6c0.2,0.8,0.8,1.4,1.5,1.7c0.6,0,3.1-2,3.7-2.4
	c0-0.1,0.1-0.1,0.2-0.1c0.1,0,0.2,0.1,0.2,0.3l0,0L558.2,99.2L558.2,99.2z M582.7,105.4c1.2,0,2.1,0.9,2.1,2.1l0,0
	c0,1.2-1,2.1-2.1,2.1s-2.1-1-2.1-2.1C580.6,106.3,581.5,105.4,582.7,105.4L582.7,105.4L582.7,105.4z M582.7,104.2
	c-1.8,0-3.3,1.5-3.3,3.3s1.5,3.3,3.3,3.3s3.3-1.5,3.3-3.3C586.1,105.7,584.6,104.2,582.7,104.2L582.7,104.2z M6,139.8
	c-0.4-0.8-1-1.5-1.7-2.2c-0.5-0.6-1.1-1.1-1.7-1.7c-0.1-0.2-0.3-0.3-0.6-0.4c-0.7,0.2-1.2,0.7-1.5,1.3c0,0.2,0.1,0.4,0.3,0.5
	c1.1,1,2.2,2.1,3.1,3.3c0.1,0.2,0.3,0.3,0.5,0.4C5.2,140.9,5.8,140.4,6,139.8L6,139.8z M3.2,151c0.1,0.4-0.2,0.8-0.5,1
	c-0.6,0.4-1.1,0.8-1.8,1.1s-1,0.5-1,0.7c0.1,0.4,0.3,0.9,0.5,1.2c0.6,1.1,0.6,1.3,0.9,1.3c0.2,0,0.4-0.2,0.4-0.4s0.1-0.3,0.3-0.4
	c0.6-0.5,1.2-0.9,1.8-1.4c0.1-0.1,0.2-0.1,0.3-0.2c0.2,0,0.3,0.1,0.4,0.3c0.5,0.7,1.2,1.3,2.1,1.5c1.2,0.3,2.4,0.5,3.6,0.4
	c1.5,0,3,0,4.4,0c1.1,0,2.2,0,3.3,0c0.4,0,0.8,0,1.2,0H20c1,0,1.4-0.1,1.4-1.6c0-0.4,0-0.7-0.5-0.7c-0.1,0-0.5,0-0.6,0
	c-1.9,0.1-3.8,0.1-5.8,0.1c-0.6,0-1.4,0-2.3,0c-1.8,0.1-3.6-0.1-5.3-0.5c-1.4-0.6-1.4-1.7-1.4-3V147c0-0.7,0-1.3,0-2
	c0-0.9-0.5-1.1-1.3-1.1c-0.5,0-1,0.1-1.4,0.1H2.2c-0.4,0-0.8-0.1-1.2-0.1c-0.6,0-0.5,0.3-0.5,1.2c0,0.8,0,1.2,0.5,1.2
	c0.4,0,0.8-0.1,1.2-0.1h0.4c0.3,0,0.6,0.2,0.7,0.5c0,0.1,0,0.1,0,0.2L3.2,151L3.2,151z M15.2,138.9c-0.5,0-0.9,0-1.3,0
	c-0.6,0-1,0.2-1,0.8c0,0.4,0,0.8,0,1.3v0.8c0,0.3-0.1,0.5-0.4,0.6c-0.1,0-0.1,0-0.2,0H12c-0.3,0.1-0.5-0.1-0.6-0.4
	c0-0.1,0-0.1,0-0.2v-3.5c-0.1-0.3,0.1-0.6,0.4-0.7c0.1,0,0.2,0,0.2,0h4c0.3-0.1,0.5,0.1,0.6,0.4c0,0.1,0,0.1,0,0.2v0.1
	c0.1,0.3-0.1,0.5-0.4,0.6c-0.1,0-0.1,0-0.2,0L15.2,138.9L15.2,138.9z M15.3,142.4c-0.4,0-0.7-0.3-0.7-0.7v-0.5
	c0-0.4,0.3-0.7,0.7-0.7H16c0.4,0,0.7,0.3,0.7,0.7v0.5c0,0.4-0.3,0.7-0.7,0.7H15.3L15.3,142.4z M12.9,148c0-0.4,0.3-0.6,0.6-0.7l0,0
	h1c0.4,0,0.7,0.2,0.7,0.6l0,0v0.5c0,0.4-0.3,0.7-0.7,0.7h-1c-0.4,0-0.7-0.3-0.7-0.7L12.9,148L12.9,148z M8.6,142.4
	c-0.7,0-1.2,0.1-1.2,0.9c0,0.6,0,1.2,0,1.7v4.8c0,0.8,0,1.6,0,2.4c0,0.7,0.2,0.7,1.1,0.7c0.9,0,1.1,0,1.1-0.7c0-0.8,0-1.6,0-2.4V145
	c-0.1-0.3,0.2-0.6,0.5-0.7c0.1,0,0.1,0,0.2,0H18c0.3-0.1,0.6,0.1,0.7,0.5c0,0.1,0,0.1,0,0.2v4.5c0,0.8,0.1,1.2-0.9,1.2
	c-0.2,0-0.4,0-0.6,0c-0.1,0-0.2-0.1-0.2-0.3v-0.1c0-0.1,0-0.2,0-0.3c0-0.3,0-0.5,0-0.9v-1.7c0-0.3,0-0.6,0-0.9
	c0.1-0.4-0.2-0.8-0.6-0.9c-0.1,0-0.2,0-0.3,0c-0.4,0-0.7,0-1.1,0h-1.5c-0.4,0-0.8,0-1.2,0c-0.4-0.1-0.8,0.2-0.9,0.6
	c0,0.1,0,0.2,0,0.3c0,0.3,0,0.6,0,0.9v2.9c0,0.3,0,0.7,0,1c0,0.4,0.2,0.4,0.8,0.4c0.8,0,0.8,0,0.8-0.5s0.2-0.5,0.7-0.5H15
	c0.3,0,0.6,0,1,0.1c0.2,0,0.4,0.1,0.4,0.3v0.1c0.1,1.5,0.4,1.6,1.2,1.6c0.9,0.1,1.9-0.1,2.7-0.6c0.5-0.4,0.7-1,0.6-1.5
	c0-0.5,0-1,0-1.6V145c0-0.6,0-1.1,0-1.7c0-0.9-0.6-0.9-1.3-0.9c-0.3,0.1-0.6-0.1-0.6-0.4c0-0.1,0-0.1,0-0.2v-3.5c0-0.5,0-1,0-1.5
	c0.1-0.5-0.2-0.9-0.7-1c-0.1,0-0.2,0-0.4,0c-0.5,0-1,0-1.5,0H12c-0.5,0-1,0-1.5,0c-0.5-0.1-0.9,0.2-1,0.7c0,0.1,0,0.2,0,0.4
	c0,0.5,0,1,0,1.5v3.5c0.1,0.3-0.1,0.6-0.5,0.6C8.8,142.4,8.7,142.4,8.6,142.4L8.6,142.4z M41.5,138.3c0.1,0.3-0.1,0.5-0.4,0.6
	c-0.1,0-0.1,0-0.2,0h-0.1c-0.2,0-0.4-0.1-0.5-0.3c0,0,0,0,0-0.1v-0.1c0-0.3,0.1-0.4,0.1-0.6c0-0.2,0.1-0.5,0.3-0.6
	c0.1,0,0.2-0.1,0.2-0.2c-0.1-0.2-0.4-0.4-0.7-0.4c-0.2-0.1-1.2-0.2-1.4-0.2c-0.3,0-0.3,0.3-0.3,0.6c-0.2,1.8-0.6,3.6-1.2,5.3
	c-0.1,0.2-0.1,0.3-0.1,0.5c0,0.4,1.2,0.7,1.6,0.7c0.3,0,0.5-0.4,0.8-1.8c0.1-0.4,0.4-0.7,0.8-0.6h0.4c0.3-0.1,0.6,0.2,0.7,0.5
	c0,0.1,0,0.1,0,0.2v1.7c0.1,0.3-0.1,0.6-0.4,0.7c-0.1,0-0.2,0-0.2,0h-0.7c-0.8,0-1.6-0.1-2.4-0.1c-0.6,0-0.6,0.3-0.6,1.1
	s0,1.1,0.6,1.1c0.8,0,1.6-0.1,2.4-0.1H45c0.8,0,1.6,0.1,2.4,0.1c0.6,0,0.6-0.3,0.6-1.1s0-1.1-0.6-1.1c-0.8,0-1.6,0.1-2.4,0.1h-0.5
	c-0.3,0.1-0.6-0.1-0.7-0.4c0-0.1,0-0.2,0-0.2v-1.7c-0.1-0.3,0.1-0.6,0.4-0.7c0.1,0,0.2,0,0.2,0c0.8,0,1.7,0.1,2.6,0.1
	c0.5,0,0.5-0.3,0.5-1.1c0-0.9,0-1.1-0.6-1.1c-0.9,0-1.7,0.1-2.5,0.1c-0.3,0.1-0.6-0.1-0.7-0.4c0-0.1,0-0.2,0-0.2v-1
	c-0.1-0.4,0-0.8,0.3-1.2c0.1-0.1,0.3-0.2,0.3-0.4c0-0.3-0.3-0.3-0.6-0.3c-0.4-0.1-1.7-0.2-2-0.2c-0.2,0-0.3,0.1-0.4,0.2v0.1v0.2
	c0.1,0.5,0.1,1.1,0.1,1.7L41.5,138.3L41.5,138.3z M41.3,153.3c-0.4,0-0.7-0.3-0.7-0.7v-2.2c0-0.4,0.3-0.7,0.7-0.7l0,0h2.5
	c0.4,0,0.7,0.3,0.7,0.7l0,0v2.2c0,0.4-0.3,0.7-0.7,0.7H41.3z M44.4,155.9c0,0.2,0,0.3,0,0.5c0,0.5,0.3,0.5,1.2,0.5
	c0.8,0,1.1,0,1.1-0.5c0-0.3,0-1,0-1.5v-5c0-0.4,0-0.8,0-1.1c0-0.9-0.5-1-1.2-1c-0.5,0-1,0.1-1.5,0.1h-2.7c-0.5,0-1.1-0.1-1.6-0.1
	c-0.7,0-1.2,0.1-1.2,1c0,0.4,0,0.7,0,1.1v5c0,0.5,0,1.2,0,1.5c0,0.5,0.3,0.5,1.2,0.5s1.2,0,1.2-0.5c0-0.1,0-0.3,0-0.4
	c0-0.3,0.1-0.5,0.4-0.5c0.1,0,0.1,0,0.2,0h2.7c0.3,0,0.5,0.1,0.5,0.4C44.5,155.8,44.5,155.8,44.4,155.9L44.4,155.9z M29.3,152.1
	c0-0.3,0.3-0.6,0.6-0.6c0,0,0,0,0.1,0h4.2c0.3,0,0.6,0.2,0.7,0.6l0,0v0.2c0,0.4-0.3,0.7-0.7,0.7H30c-0.4,0-0.7-0.3-0.7-0.7V152.1
	L29.3,152.1z M33.7,143.1c0-0.2,0.2-0.4,0.5-0.4h0.1c0.2,0,0.4,0.2,0.5,0.4v2.2c0,0.2-0.2,0.4-0.4,0.5l0,0h-0.1
	c-0.2,0-0.4-0.1-0.5-0.4v-0.1L33.7,143.1L33.7,143.1z M32.1,142.6c0.2,0,0.4,0.1,0.5,0.3c0,0,0,0.1,0,0.2v2c0,0.6,0,1.1,0,1.6
	c0,0.8,0.4,1,1.1,1h0.5c0.3-0.1,0.6,0.1,0.6,0.4c0,0.1,0,0.1,0,0.2v0.7c0.1,0.3-0.1,0.6-0.4,0.7c-0.1,0-0.2,0-0.2,0H30
	c-0.3,0.1-0.6-0.1-0.7-0.4c0-0.1,0-0.2,0-0.2v-5.9c0-0.2,0.1-0.4,0.3-0.5c0.1,0,0.1,0,0.2,0H30c0.2,0,0.4,0.1,0.5,0.3
	c0,0.1,0,0.1,0,0.2c0,1.4-0.2,2.7-0.6,4c-0.2,0.2-0.3,0.5-0.3,0.8c0.2,0.4,0.5,0.6,0.9,0.6c0.3-0.1,0.5-0.4,0.5-0.7
	c0.5-1.5,0.7-3.1,0.7-4.8c0-0.2,0.1-0.4,0.4-0.4C32,142.6,32,142.6,32.1,142.6L32.1,142.6L32.1,142.6z M32.1,138.1
	c0.2,0,0.4,0.1,0.5,0.4v0.1v1.6c0,0.2-0.2,0.4-0.4,0.5c0,0,0,0-0.1,0H32c-0.2,0-0.4-0.2-0.5-0.4c0,0,0,0,0-0.1v-1.6
	c0-0.2,0.1-0.4,0.4-0.5H32.1L32.1,138.1z M34.1,138.8c-0.1-0.3,0.2-0.6,0.5-0.6c0.1,0,0.1,0,0.2,0c0.8,0,1.5,0.1,2.3,0.1
	c0.6,0,0.5-0.3,0.5-1.1s0-1.1-0.5-1.1c-0.9,0-1.8,0.1-2.7,0.1H30c-0.9,0-1.7-0.1-2.6-0.1c-0.6,0-0.5,0.2-0.5,1.1
	c0,0.8,0,1.1,0.5,1.1c0.7,0,1.4-0.1,2.1-0.1c0.3,0,0.6,0.2,0.6,0.5c0,0.1,0,0.1,0,0.2v1.2c0.1,0.3-0.2,0.6-0.5,0.6
	c-0.1,0-0.1,0-0.2,0c-0.3,0-0.6,0-1,0c-0.8,0-1,0.4-1,1.2c0,0.7,0,1.4,0,2v9.5c0,0.9,0,1.8,0,2.8c0,0.6,0.2,0.6,1,0.6s1,0,1-0.6
	c0-0.1,0-0.3,0-0.4c0-0.3,0.2-0.6,0.5-0.6H30h4.2c0.3,0,0.5,0.1,0.6,0.4v0.1c0,0.7,0.1,0.8,1,0.8c0.8,0,1,0,1-0.6c0-0.9,0-1.7,0-2.6
	V144c0-0.7,0-1.4,0-2.1c0-0.9-0.2-1.2-1-1.2c-0.3,0-0.6,0-0.9,0c-0.3,0.1-0.6-0.1-0.6-0.4c0-0.1,0-0.1,0-0.2L34.1,138.8L34.1,138.8z
	 M63.4,151.6c1.2,0,1.2,0.3,1.2,0.7c0.1,0.6-0.3,1.2-0.9,1.3c-0.1,0-0.2,0-0.3,0c-0.6,0-1.6-0.4-1.6-1.1
	C61.8,151.8,62.9,151.6,63.4,151.6L63.4,151.6z M64.6,143.2c-0.3-0.1-0.5,0.1-0.6,0.4v0.1c0,0.1,0,0.2,0,0.3
	c0.1,0.9,0.4,4.4,0.4,5.2c0,0.2-0.2,0.4-0.4,0.4c0,0,0,0-0.1,0h-0.6c-1.9,0-4,0.8-4,3s2.3,3.3,4.2,3.3c1.6,0,3-0.6,3.3-2.3
	c0-0.3,0.1-0.5,0.4-0.6c0.7,0.3,1.3,0.6,1.9,1.1c0.2,0.2,0.4,0.3,0.6,0.3c0.6,0,1.5-1.4,1.5-1.8c0-0.6-2.8-1.9-3.4-2.1l-0.2-0.1
	c-0.3,0-0.6-0.3-0.7-0.6c-0.1-0.5-0.2-4-0.2-4.7c0-0.5,0-1.2,0-1.3c0-0.3-0.2-0.5-0.5-0.5C65.8,143.3,65.2,143.2,64.6,143.2
	L64.6,143.2z M68.3,139.5c-0.7,0.3-1.3,0.9-1.6,1.6c0,0.2,0.2,0.3,0.3,0.4c1.2,0.9,2.2,1.9,3,3.1c0.1,0.2,0.3,0.4,0.5,0.4
	c0.8-0.3,1.5-0.9,1.8-1.7C72.3,142.8,68.9,139.5,68.3,139.5L68.3,139.5z M60.2,135.6c-0.2,0-0.2,0.2-0.2,0.4c-0.1,1.4-0.3,2.7-0.8,4
	c-0.2,0.3-0.4,0.4-0.7,0.4c-0.8,0.1-1.6,0.1-2.5,0.1h-1.1c-0.2,0-0.4,0.1-0.4,0.2v0.1c0,0.2,0.1,1.1,0.2,1.4
	c0.1,0.6,0.2,0.8,0.6,0.8c0.6,0,2.4-0.2,2.6-0.2c0.2,0,0.3,0.1,0.3,0.3c-0.1,0.5-0.3,1-0.6,1.5c-0.8,1.9-1.8,3.8-2.9,5.5
	c-0.2,0.3-0.3,0.5-0.4,0.9c0,0.5,1.6,1.2,2.1,1.2c0.2,0,0.4-0.1,0.5-0.3c1.5-2.7,2.8-5.6,3.9-8.5c0.3-0.8,0.3-1,1.1-1.1
	c2.2-0.4,2.5-0.4,2.5-1c0-0.4-0.1-0.8-0.1-1.3c0-0.3-0.1-0.7-0.4-0.7c-0.1,0-0.2,0-0.2,0c-0.4,0.2-0.9,0.3-1.4,0.4
	c-0.2,0-0.3-0.1-0.3-0.3l0,0c0.1-0.4,0.2-0.7,0.3-1.1c0.1-0.4,0.2-0.9,0.4-1.3c0.2-0.1,0.3-0.2,0.4-0.4c-0.1-0.2-0.2-0.3-0.4-0.3
	C62.5,136.1,60.5,135.6,60.2,135.6L60.2,135.6z M98.1,154.8c0-0.2-0.1-0.3-0.3-0.4c-0.5-0.3-1.8-1-2.3-1.3c-1-0.6-2.1-1-3.2-1.3
	c-0.6,0.3-1.1,0.8-1.2,1.4c0.1,0.3,0.3,0.4,0.6,0.5c1.6,0.7,3.1,1.4,4.6,2.3c0.2,0.1,0.4,0.2,0.6,0.3
	C97.5,156.1,98,155.5,98.1,154.8L98.1,154.8z M85.9,153.5c-0.2-0.4-0.5-0.7-0.9-1l-0.1-0.1c-0.2-0.2-0.4-0.4-0.7-0.5
	c-0.2,0-0.3,0.1-0.4,0.2c-1.4,0.9-2.9,1.7-4.4,2.3c-0.5,0.2-0.7,0.2-0.7,0.5s0.6,1.5,1.3,1.5c0.4-0.1,0.7-0.2,1.1-0.4
	c1.4-0.6,2.7-1.3,3.9-2.1c0.1-0.1,0.3-0.2,0.4-0.2h0.1c0.1,0,0.1,0,0.2,0C85.8,153.8,85.9,153.7,85.9,153.5L85.9,153.5z M92,140.6
	c-0.1-0.4,0.2-0.7,0.5-0.8l0,0c1.6-0.4,3.1-0.9,4.6-1.5c0.1,0,0.2-0.1,0.2-0.1c0.1,0,0.2,0,0.3,0.1c0.1,0,0.2,0.1,0.2,0.1
	c0.1,0,0.2-0.1,0.2-0.2l0,0c-0.2-0.4-0.4-0.8-0.7-1.2c-0.2-0.4-0.4-0.7-0.8-0.9c-0.1,0-0.2,0.1-0.3,0.1c-1.3,0.6-2.6,1.1-3.9,1.6
	c-0.1,0-0.1,0-0.2,0c-0.2,0-0.4-0.2-0.4-0.4c0,0,0,0,0-0.1V137c-0.1-0.4,0.1-0.8,0.3-1.1c0.1,0,0.3-0.2,0.3-0.3
	c0-0.2-0.3-0.3-0.5-0.3c-0.4-0.1-1.7-0.1-2.1-0.1c-0.2,0-0.4,0-0.4,0.3c0,0.1,0,0.1,0,0.2c0.1,0.6,0.1,1.2,0.1,1.8v3.8
	c0,0.4,0,0.8,0,1.3c0,1.6,1.3,1.8,2.6,1.8h3.8c0.8,0.1,1.6-0.1,2.2-0.7c0.5-0.8,0.8-1.7,0.9-2.7c0-0.3-0.2-0.6-0.5-0.7
	c-0.4-0.2-0.9-0.3-1.3-0.3c-0.5,0-0.5,0.2-0.6,0.6c-0.2,1.3-0.3,1.5-1.2,1.5H93c-1.1,0-1.3-0.1-1.3-1.3L92,140.6L92,140.6z
	 M86.2,137.4c-0.3,0.1-0.6-0.1-0.7-0.4c0-0.1,0-0.1,0-0.2c-0.1-0.3,0-0.7,0.3-0.9c0.1-0.1,0.2-0.2,0.3-0.3c0-0.3-0.4-0.3-0.6-0.3
	c-0.4,0-1.5-0.1-1.9-0.1c-0.2,0-0.4,0-0.4,0.3c0,0.1,0,0.1,0,0.2c0,0.5,0.1,0.9,0.1,1.4v4.4c0.1,0.3-0.1,0.7-0.5,0.8
	c0,0-0.1,0-0.2,0l-0.4,0.1h-0.1c-0.3,0-0.5-0.2-0.5-0.5v-0.1V139c0-0.7,0-1,0.3-1.1c0.2-0.1,0.3-0.2,0.3-0.3c0-0.3-0.4-0.3-0.6-0.3
	c-0.4,0-1.6-0.1-1.9-0.1c-0.2,0-0.4,0-0.4,0.3c0,0.1,0,0.1,0,0.2c0,0.5,0.1,1,0.1,1.5v2.9c0.1,0.3-0.2,0.6-0.5,0.7h-0.1
	c-0.1,0-0.2,0-0.4,0c-0.4,0-0.6,0.1-0.6,0.3c0,0.1,0.3,1.3,0.4,1.5c0.1,0.5,0.2,0.8,0.5,0.8c0.2,0,0.3-0.1,0.3-0.3
	c0.1-0.2,0.4-0.3,0.6-0.3c2.4-0.4,6.5-1,8.8-1.5c0.5-0.1,0.7-0.2,0.7-1c0-0.3,0-1-0.5-1c-0.1,0-2.2,0.4-2.5,0.5H86
	c-0.3,0-0.5-0.2-0.5-0.5v-0.1v-1c-0.1-0.3,0.1-0.6,0.5-0.7c0.1,0,0.1,0,0.2,0c0.7,0,1.5,0.1,2.1,0.1c0.5,0,0.5-0.3,0.5-1
	c0-0.8,0-1-0.5-1C87.7,137.4,86.9,137.4,86.2,137.4L86.2,137.4z M80.2,151.8c2.2-0.1,4.3-0.1,6.5-0.2c0.3-0.1,0.6,0.1,0.6,0.4
	c0,0.1,0,0.1,0,0.2v0.8c0,1,0,1.9,0,2.9c0,0.7,0.2,0.7,1.3,0.7c1,0,1.2,0,1.2-0.7c0-1,0-1.9,0-2.9v-1c-0.1-0.3,0.1-0.6,0.4-0.7
	c0.1,0,0.1,0,0.2,0c1.6-0.1,3.1-0.2,4.7-0.3h0.1c0.3,0,0.6,0.2,0.8,0.5c0,0,0.1,0.1,0.1,0.2c0.1,0.3,0.3,0.4,0.6,0.5
	c0.4,0,1.5-0.5,1.5-0.9c-0.4-0.8-0.9-1.6-1.4-2.3c-0.3-0.4-1-1.3-1.3-1.7c-0.1-0.2-0.3-0.3-0.6-0.3c-0.3,0-1.4,0.5-1.4,0.9
	c0.1,0.2,0.2,0.5,0.4,0.7c0.1,0.1,0.2,0.3,0.2,0.4c0,0.2-0.1,0.3-0.3,0.3c0,0,0,0-0.1,0c-1.3,0.1-2.6,0.2-3.9,0.2
	c-0.1,0-0.2-0.1-0.2-0.2l0,0c0-0.1,0-0.1,0.1-0.2c0.9-0.7,1.7-1.5,2.4-2.3c0.1-0.1,0.3-0.2,0.5-0.2h0.2c0.1,0,0.3,0,0.3-0.2l0,0
	c-0.2-0.3-0.4-0.5-0.7-0.6c-0.5-0.3-1-0.6-1.6-0.8c-0.2,0.1-0.4,0.2-0.5,0.4c-0.8,0.9-1.6,1.8-2.5,2.7c-0.1,0.1-0.3,0.2-0.5,0.2
	s-0.3-0.1-0.4-0.2c-0.2-0.2-0.4-0.3-0.7-0.5c-0.1-0.1-0.2-0.2-0.2-0.4c0-0.1,0.1-0.3,0.2-0.4c0.6-0.6,0.8-0.9,1.3-1.4
	c0.1-0.1,0.3-0.2,0.4-0.2c0.2,0,0.5,0,0.5-0.2c0-0.1-0.1-0.3-0.3-0.3c-0.6-0.4-1.2-0.7-1.8-0.9c-0.2,0-0.3,0.2-0.4,0.3
	c-0.5,0.6-0.9,1.2-1.4,1.8c-0.1,0.2-0.3,0.3-0.5,0.3s-0.3-0.1-0.5-0.1l-0.1-0.1c-0.3-0.2-0.6-0.3-0.9-0.4c-0.6,0.3-1.1,0.8-1.2,1.4
	c0,0.2,0.2,0.4,0.4,0.4c1.2,0.6,2.3,1.2,3.4,1.9c0.1,0,0.1,0.1,0.1,0.2c0,0.1-0.1,0.2-0.2,0.2c-1.6,0-3.2,0-4.8,0h-0.8
	c-0.3,0-0.4,0.1-0.4,0.3c0.1,0.6,0.3,1.2,0.5,1.8c0,0.2,0.2,0.4,0.4,0.4c0.1,0,0.2-0.1,0.3-0.2C80,151.9,80.1,151.8,80.2,151.8
	L80.2,151.8z M109.5,149.5c-1.3,1.9-2.9,3.5-4.8,4.8c-0.3,0.1-0.5,0.4-0.6,0.7c0.2,0.7,0.7,1.3,1.4,1.6c0.7,0,3.6-2.8,4.1-3.5
	c2.7-3,4.5-6.6,5.4-10.5c0-0.1,0.1-0.2,0.2-0.2s0.2,0.1,0.2,0.1c0.7,1.1,1.5,2.1,2.4,3c0.3,0.3,0.5,0.7,0.4,1.1v5.6
	c0,1.3-0.1,2.6-0.1,3.8c0,0.7,0.2,0.7,1.3,0.7c1,0,1.2,0,1.2-0.6c0-1.3,0-2.6,0-3.9v-3.4c0-0.2,0.1-0.3,0.3-0.3l0,0
	c0.1,0,0.2,0,0.2,0.1c0.9,0.8,2,1.4,3.1,1.9c0.7-0.4,1.2-1,1.5-1.8c-0.1-0.3-0.3-0.4-0.5-0.5c-1.4-0.8-2.8-1.8-4.1-2.8
	c-0.3-0.2-0.5-0.6-0.5-1.1v-6.7c0-1.1,0-1.4,0.3-1.6c0.1-0.1,0.3-0.2,0.3-0.3c0-0.3-0.5-0.3-0.6-0.3c-0.5,0-1.6-0.1-2-0.1
	c-0.2,0-0.4,0-0.4,0.3c0,0.1,0,0.2,0,0.3c0,0.6,0.1,1.5,0.1,2.3v3.7c0,0.1-0.1,0.2-0.2,0.3c-0.1,0-0.1,0-0.2-0.1
	c-0.4-0.6-0.7-1.1-1-1.4c-0.4-0.6-0.5-0.8-0.8-0.8c-0.3,0.1-0.5,0.2-0.7,0.4c-0.1,0.1-0.2,0.1-0.4,0.1c-0.2,0-0.3-0.1-0.4-0.2
	c-0.3-0.2-0.7-0.4-1.1-0.4c-0.5,0-1.1,0-1.6,0h-1.5c-0.2,0-0.5-0.1-0.5-0.4v-0.1c0-0.1,0-0.1,0-0.2c0.2-0.7,0.3-1.2,0.4-1.5
	c0-0.4,0.2-0.8,0.5-1.1c0.2-0.1,0.3-0.2,0.4-0.4c0-0.2-0.2-0.3-0.3-0.3c-0.7-0.2-1.5-0.4-2.3-0.6c-0.2,0-0.3,0.2-0.3,0.4l0,0
	c-0.5,3.6-1.8,7.1-3.9,10.2c-0.3,0.3-0.5,0.6-0.6,0.9c0.3,0.6,0.8,1.1,1.5,1.3c0.8,0,3-4.6,3.4-5.5c0.1-0.4,0.5-0.6,0.9-0.6h2.1
	c0.5,0,0.8,0,0.8,0.3c-0.2,1.4-0.6,2.7-1.2,3.9c-0.1,0.2-0.2,0.3-0.4,0.3c-0.1,0-0.3-0.1-0.4-0.2c-0.5-0.5-1.2-1-1.8-1.3
	c-0.6,0.4-1.1,1-1.2,1.7c0.2,0.4,0.5,0.8,0.9,1c0.3,0.2,0.6,0.5,1,0.8c0.2,0.1,0.3,0.3,0.3,0.5C109.6,149.2,109.6,149.4,109.5,149.5
	L109.5,149.5z M139.7,152.1c-0.2-0.7-0.4-1.4-0.6-2c-0.4-1.2-0.6-1.7-1-1.7c-0.1,0-1.3,0.2-1.3,0.7c0,0.1,0,0.2,0.1,0.3
	c0.3,0.7,0.8,2.1,1,2.8c0,0.3,0.2,0.6,0.5,0.7C138.6,152.9,139.8,152.6,139.7,152.1L139.7,152.1z M131.9,148.8
	c-0.2,0-0.2,0.2-0.3,0.4c-0.1,1.7-0.4,3.4-0.9,5c-0.1,0.2-0.1,0.4-0.1,0.6c0,0.4,1.1,0.7,1.4,0.7c0.3,0,0.5-0.3,0.5-0.6
	c0.4-1.5,0.7-3.1,0.9-4.7c0-0.2,0.1-0.5,0.4-0.5c0.1,0,0.2-0.1,0.2-0.3c-0.1-0.2-0.3-0.3-0.5-0.3C133,149,132.4,148.9,131.9,148.8
	L131.9,148.8z M143.3,144c-0.3,0-0.5-0.1-0.6-0.4c0-0.1,0-0.1,0-0.2v-0.2c-0.1-0.3,0.1-0.5,0.4-0.6c0.1,0,0.1,0,0.2,0h4.8
	c0.3,0,0.5,0.1,0.6,0.4c0,0.1,0,0.1,0,0.2v0.2c0,0.3-0.1,0.5-0.4,0.6c-0.1,0-0.1,0-0.2,0H143.3L143.3,144z M143.3,140.9
	c-0.3,0-0.5-0.2-0.6-0.5v-0.1v-0.2c0-0.3,0.2-0.5,0.5-0.6h0.1h4.8c0.3,0,0.5,0.2,0.6,0.5v0.1v0.2c0,0.3-0.2,0.5-0.5,0.6h-0.1H143.3
	L143.3,140.9z M144.4,135.4c-0.3,0.7-0.4,1-0.7,1.7c-0.1,0.4-0.5,0.6-0.9,0.6s-0.8,0-1.2,0c-0.5-0.1-0.9,0.2-1,0.6
	c0,0.1,0,0.2,0,0.4c0,0.4,0,0.9,0,1.4v3.6c0,0.6,0,1.2,0,1.8c0,0.8,0.5,0.8,1.2,0.8c0.3,0,0.6,0,0.9-0.1c0.1-0.1,0.2-0.1,0.3-0.1
	h0.9c0.3-0.1,0.6,0.1,0.7,0.5v0.1c0,0.3,0,0.6,0,0.9v5.5c0,1,0.1,1.4-1,1.4c-0.2,0-0.4,0-0.6,0c-0.1,0-0.3,0-0.4,0
	c-0.2,0-0.4,0.1-0.4,0.4v0.1c0,1.9,0.7,1.8,1.3,1.8c1.4,0,3.4-0.1,3.4-1.9c0-0.5,0-1,0-1.6v-1.6c0-0.1,0-0.2,0.2-0.2
	c0.1,0,0.1,0.1,0.2,0.1c0.7,1.3,1.6,2.4,2.6,3.5c0.3,0.4,0.7,0.7,1.1,0.9c0.7-0.2,1.2-0.7,1.5-1.3c-0.1-0.2-0.3-0.4-0.5-0.6
	c-0.9-0.8-1.8-1.7-2.5-2.7c-0.1-0.1-0.1-0.3-0.1-0.4c0-0.2,0.1-0.4,0.3-0.5c0.6-0.5,1.2-0.9,1.7-1.5c0.1-0.1,0.2-0.1,0.3-0.1
	s0.1,0,0.2,0h0.1c0.1,0,0.2-0.1,0.3-0.2l0,0c-0.1-0.3-0.3-0.6-0.6-0.9c-0.1-0.1-0.2-0.2-0.3-0.3c-0.2-0.3-0.5-0.5-0.8-0.7
	c-0.1,0-0.2,0.1-0.3,0.2c-0.5,0.6-1.1,1.2-1.7,1.8c-0.1,0.1-0.3,0.2-0.4,0.2c-0.2,0-0.3-0.1-0.4-0.3c-0.2-0.3-0.3-0.5-0.5-0.8
	c-0.1-0.2-0.2-0.4-0.2-0.6c-0.1-0.3,0-0.6,0.2-0.8c0.1-0.1,0.2-0.2,0.3-0.3c0-0.1-0.1-0.2-0.2-0.2c0,0,0,0,0-0.1l0,0h1.3
	c0.1,0,0.2,0.1,0.4,0.1c0.3,0.1,0.6,0.1,0.9,0.1c0.8,0,1.2,0,1.2-0.8c0-0.6,0-1.2,0-1.8V140c0-0.5,0-0.9,0-1.3
	c0.1-0.5-0.2-0.9-0.7-1c-0.1,0-0.2,0-0.4,0c-0.5,0-1,0-1.5,0h-1.8c-0.2,0-0.4-0.1-0.4-0.3v-0.1c0-0.1,0-0.1,0-0.2
	c0.1-0.2,0.2-0.4,0.3-0.7c0.1-0.2,0.3-0.3,0.5-0.3c0.1,0,0.3-0.1,0.3-0.2l0,0c-0.1-0.2-0.4-0.4-0.6-0.4c-0.6-0.2-1.2-0.4-1.8-0.4
	C144.6,135.1,144.4,135.2,144.4,135.4L144.4,135.4z M138.5,147.7c0,0.2,0.2,0.3,0.4,0.4c0.3,0,0.6,0.2,0.6,0.5c0,0,0,0,0,0.1v0.4
	c0,0.6,0,0.8,0.4,0.8c0.2,0,0.7,0,1.1,0h0.1c0.2,0,0.6,0,0.6,0.2c-0.1,0.3-0.2,0.7-0.4,1c-0.7,1.2-1.7,2.3-2.7,3.2
	c-0.3,0.2-0.5,0.4-0.6,0.7c0.3,0.6,0.9,1,1.5,1.1c0.6,0,2.5-2.4,2.9-3c0.5-0.7,1.9-2.9,1.9-3.8c0-0.7-0.5-1.2-1.2-1.3h-2.7
	c-0.1,0-0.1-0.1-0.1-0.2v-0.1v-0.1c-0.1-0.6-0.3-1.3-0.5-1.9c-0.3-0.8-0.6-1.5-0.9-2.2c0-0.3-0.3-0.5-0.6-0.5
	c-0.5-0.1-1,0.2-1.2,0.7c0.1,0.3,0.2,0.6,0.3,0.8c0,0.1,0.1,0.2,0.1,0.3s0,0.1,0,0.2c0,0.2-0.2,0.5-0.4,0.5l0,0l-1.4,0.1
	c-0.2,0-0.3-0.1-0.3-0.2l0,0c0-0.1,0-0.1,0.1-0.2c1.2-1.7,2.3-3.4,3.4-5.2c0.1-0.2,0.3-0.2,0.5-0.2s0.3-0.1,0.4-0.3
	c-0.2-0.3-0.4-0.5-0.7-0.6c-0.2-0.1-0.3-0.2-0.5-0.3c-0.3-0.2-0.7-0.4-1-0.5c-0.2,0-0.3,0.2-0.4,0.4c-0.5,1-1,1.9-1.6,2.9
	c-0.1,0.2-0.2,0.3-0.4,0.3c-0.1,0-0.3-0.1-0.4-0.2c-0.1-0.1-0.2-0.2-0.3-0.3s-0.2-0.2-0.2-0.4c0-0.1,0-0.2,0.1-0.3
	c0.6-1.1,1.2-2.3,1.8-3.6c0.1-0.1,0.2-0.2,0.4-0.3c0.2,0,0.4,0,0.4-0.3c-0.1-0.2-0.2-0.3-0.4-0.4c-0.6-0.3-1.1-0.5-1.7-0.7
	c-0.2,0-0.3,0.2-0.3,0.3c-0.4,1.1-0.9,2.5-1.4,3.6c0,0.2-0.2,0.3-0.4,0.3c-0.1,0-0.2-0.1-0.3-0.1c-0.1-0.1-0.3-0.2-0.5-0.3
	c-0.5,0-1,1.4-1,1.7c0,0.1,0.1,0.3,0.2,0.3c1.4,1.1,1.5,1.2,2.6,2.2c0.2,0.1,0.3,0.3,0.3,0.5s-0.1,0.3-0.1,0.4
	c-0.2,0.4-0.5,0.7-0.7,1s-0.5,0.5-0.9,0.5c-0.1,0-0.3,0-0.4,0h-0.4c-0.4,0-0.7,0-0.7,0.3c0,0.1,0,0.2,0,0.3c0.1,0.4,0.1,0.8,0.2,1.1
	c0.1,0.7,0.2,1.1,0.4,1.1s0.3-0.1,0.4-0.3c0.1-0.2,0.2-0.3,0.4-0.3c0.5-0.1,1-0.1,1.4-0.1c0.3-0.1,0.6,0.1,0.6,0.4
	c0,0.1,0,0.1,0,0.2v4.6c0,1-0.1,1.9-0.1,2.9c0,0.8,0.3,0.8,1.2,0.8c1,0,1.2,0,1.2-0.8c0-1-0.1-1.9-0.1-2.9V148
	c0-0.4,0.2-0.7,0.6-0.7l0,0c0.2,0,0.4,0,0.6-0.1h0.2C138.1,147.2,138.4,147.4,138.5,147.7L138.5,147.7z M173.2,138.8
	c-0.4,0-1.8,0.8-1.8,1.3c0,0.2,0.1,0.3,0.2,0.4c1.4,1.5,2.5,3.2,3.2,5.1c0.1,0.3,0.3,0.5,0.6,0.6c0.5,0,2-0.9,2-1.4
	C177.3,144.2,174.1,138.8,173.2,138.8L173.2,138.8z M164.4,136.4c-0.3,0-0.3,0.3-0.3,0.5c0,0.3,0,0.6,0,0.8c0,1-0.1,2.1-0.2,3.1
	c0,0.4-0.4,0.7-0.8,0.7c-1.3,0.3-2.6,0.6-4,0.7c-0.3,0-0.7,0-0.7,0.4c0,0.1,0.4,2.5,1,2.5c0.2,0,0.3-0.1,0.5-0.1
	c0.9-0.3,1.8-0.6,2.7-0.8c0.2,0,0.3,0.1,0.3,0.3l0,0c-0.2,0.6-0.4,1.2-0.6,1.8c-1,2.5-2.4,4.8-4.3,6.7c-0.2,0.1-0.3,0.3-0.3,0.6
	c0,0.6,1.5,1.5,1.9,1.5c0.2,0,0.3-0.1,0.4-0.2c0.9-1.1,1.7-2.2,2.4-3.5c1.3-2.2,2.4-4.6,3-7.1c0.2-0.7,0.4-0.9,1.8-0.9
	c1.4,0,1.5,1,1.5,2.2c0,1.9-0.4,3.7-1.1,5.4c-0.4,1-1.4,1.6-2.5,1.5c-0.5,0-0.9-0.1-1.1-0.1s-0.3,0.2-0.3,0.4c0,0.6,0.2,1.2,0.4,1.7
	c0.2,0.4,0.6,0.7,1.1,0.6c1.9,0.1,3.7-0.9,4.5-2.6c1.1-1.9,1.4-5.2,1.4-7.4c0.2-1.3-0.4-2.7-1.5-3.5c-0.8-0.5-1.8-0.6-2.7-0.6
	c-0.1,0-0.2,0-0.3,0c-0.3,0-0.5-0.2-0.5-0.4c0,0,0,0,0-0.1s0-0.2,0-0.3c0.1-0.4,0.1-0.7,0.2-1c0-0.6,0.2-1.2,0.6-1.6
	c0.1-0.1,0.2-0.2,0.2-0.3c-0.1-0.2-0.3-0.4-0.6-0.4C166.5,136.9,164.7,136.4,164.4,136.4L164.4,136.4z M185.8,140.3
	c-0.4,0-0.4,0.4-0.4,1.1c0,0.2,0,0.3,0,0.5c-0.1,1.8-0.3,3.5-0.6,5.2c-0.1,0.8-0.3,1.6-0.6,2.3c-0.1,0.3-0.2,0.6-0.2,0.8
	c0,0.7,1.6,0.9,1.8,0.9c0.3,0,0.6-0.2,0.7-0.5c1.5-1.9,4.1-4,6.6-4c1.4-0.2,2.7,0.9,2.9,2.3c0,0.1,0,0.2,0,0.2c0,2-1.8,2.8-3.5,3.2
	c-1,0.3-2.1,0.4-3.2,0.5c-0.3,0-0.6,0.1-0.6,0.4c0.1,0.5,0.2,1.1,0.4,1.6c0.1,0.4,0.5,0.7,0.9,0.7c1.1-0.1,2.1-0.3,3.1-0.6
	c2.9-0.9,5.4-2.3,5.4-5.7c0-2.7-2.1-5-4.8-5c-0.1,0-0.3,0-0.4,0c-2.3,0-3.7,1-5.5,2.2c-0.1,0.1-0.2,0.1-0.3,0.2
	c-0.1,0-0.2-0.1-0.2-0.3l0,0c0-0.2,0-0.3,0.1-0.5c0.2-1.1,0.4-2.2,0.6-3.3c0-0.4,0.2-0.7,0.5-0.9c0.1,0,0.2-0.1,0.2-0.3
	c-0.1-0.2-0.2-0.3-0.4-0.3C187.4,140.7,186.6,140.5,185.8,140.3L185.8,140.3z M187.3,137.5c0.1,0.3,0.3,0.5,0.6,0.5
	c1.1,0.6,2.1,1.3,3,2c0.2,0.2,0.5,0.4,0.8,0.5c0.5,0,1.5-1.5,1.5-1.9s-1.4-1.2-1.8-1.4c-0.9-0.6-1.8-1.1-2.7-1.5
	C188.1,135.8,187.3,137.2,187.3,137.5L187.3,137.5z M205.3,151.6c0.1,0.2,0.2,0.4,0.4,0.4c1.4,0.9,2.6,2,3.6,3.3
	c0.1,0.2,0.3,0.3,0.5,0.4c0.8-0.3,1.5-1,1.8-1.8c0-0.6-4.1-3.9-4.7-3.9C206.2,150.3,205.6,150.9,205.3,151.6L205.3,151.6z
	 M236.4,144.9c0.1,0,0.3,0.1,0.3,0.2l0,0c0,0.1-0.1,0.3-0.1,0.4c-0.2,0.4-1.1,2.1-1.5,2.1c-0.2-0.3-0.3-0.6-0.2-1v-0.3
	c-0.1-0.4,0-0.8,0.2-1.2C235.5,145,236,144.9,236.4,144.9L236.4,144.9z M232.3,146.6c0.2,0,0.3,0.2,0.3,0.4s0,0.4,0,0.7
	c0,0.8,0.1,1.8,0.1,2c0,0.3-0.1,0.6-0.3,0.7c-0.8,0.7-1.8,1.2-2.9,1.3c-0.3,0-0.6-0.2-0.7-0.6c0-0.1,0-0.1,0-0.2
	C228.8,149.1,231.8,146.6,232.3,146.6L232.3,146.6z M233.9,136.1c-0.2,0-0.4,0.1-0.4,0.3l0,0c-0.1,0.9-0.2,1.7-0.3,2.5
	c0,0.2-0.1,0.5-0.2,0.7c-0.2,0.1-0.4,0.2-0.6,0.2c-0.8,0.1-1.6,0.1-2.4,0.1c-0.4,0-0.8,0-1.2,0s-0.6,0.1-0.6,1.3
	c0,1.1,0.1,1.1,1.2,1.1c0.9,0,1.8-0.1,2.7-0.2c0.1,0,0.4-0.1,0.5-0.1c0.2,0,0.4,0.1,0.4,0.3c0,0,0,0,0,0.1c0.1,0.6-0.2,1.1-0.7,1.3
	c-2.7,1.3-5.8,4.2-5.8,7.4c-0.1,1.5,1,2.8,2.5,2.9c0.1,0,0.2,0,0.2,0c1.3-0.1,2.5-0.5,3.6-1.3c0.1-0.1,0.2-0.1,0.3-0.1
	s0.2,0.1,0.3,0.2c0,0.2,0.2,0.3,0.4,0.3c0.5,0,1.8-0.8,1.8-1.3v0.2c0-0.1-0.1-0.8-0.1-0.9c0-0.2,0.1-0.4,0.2-0.5
	c1.3-1.4,2.3-2.9,3.2-4.6c0.1-0.3,0.3-0.6,0.6-0.6c1.5,0.4,2.5,1.9,2.4,3.4c0,3-3.1,4.5-5.6,5.1c-0.3,0.1-0.5,0.1-0.5,0.4
	c0,0.5,0.6,1.9,1.1,1.9c0.8,0,7.6-2.1,7.6-7.5c0-4.1-3.3-6-7.1-6c-0.5,0-1.1,0.1-1.6,0.1c-0.1,0-0.1,0-0.2,0c-0.2,0-0.4-0.1-0.4-0.3
	c0-0.4,0.2-0.8,0.6-1c1-0.2,2.4-0.4,3.4-0.7c0.6-0.1,1.2-0.2,1.2-0.7c0-0.1-0.2-1.9-0.8-1.9c-0.1,0-0.3,0.1-0.4,0.1
	c-0.9,0.3-1.9,0.6-2.8,0.8c-0.1,0-0.2,0.1-0.4,0.1s-0.3-0.2-0.3-0.4c0-0.1,0.1-0.6,0.1-0.7c0-0.4,0.2-0.7,0.5-0.9
	c0.1-0.1,0.2-0.2,0.2-0.3c0-0.2-0.4-0.3-1-0.5C235.2,136.5,234.1,136.1,233.9,136.1L233.9,136.1z M260.4,151.6
	c1.2,0,1.2,0.3,1.2,0.7c0.1,0.6-0.3,1.2-0.9,1.3c-0.1,0-0.2,0-0.3,0c-0.6,0-1.6-0.4-1.6-1.1C258.8,151.8,259.9,151.6,260.4,151.6
	L260.4,151.6z M261.6,143.2c-0.3-0.1-0.5,0.1-0.6,0.4v0.1c0,0.1,0,0.2,0,0.3c0.1,0.9,0.4,4.4,0.4,5.2c0,0.2-0.2,0.4-0.4,0.4
	c0,0,0,0-0.1,0h-0.6c-1.9,0-4,0.8-4,3s2.3,3.3,4.2,3.3c1.6,0,3-0.6,3.3-2.3c0-0.3,0.1-0.5,0.4-0.6c0.7,0.3,1.3,0.6,1.9,1.1
	c0.2,0.2,0.4,0.3,0.6,0.3c0.6,0,1.5-1.4,1.5-1.8c0-0.6-2.8-1.9-3.4-2.1l-0.2-0.1c-0.3,0-0.6-0.3-0.7-0.6c-0.1-0.5-0.2-4-0.2-4.7
	c0-0.5,0-1.2,0-1.3c0-0.3-0.2-0.5-0.5-0.5C262.7,143.3,262.2,143.2,261.6,143.2L261.6,143.2z M265.3,139.5c-0.7,0.3-1.3,0.9-1.6,1.7
	c0,0.2,0.2,0.3,0.3,0.4c1.2,0.9,2.2,1.9,3,3.1c0.1,0.2,0.3,0.4,0.5,0.4c0.8-0.3,1.5-0.9,1.8-1.7
	C269.3,142.8,265.9,139.5,265.3,139.5L265.3,139.5z M257.2,135.6c-0.2,0-0.2,0.2-0.2,0.4c-0.1,1.4-0.3,2.7-0.8,4
	c-0.2,0.2-0.4,0.4-0.7,0.4c-0.8,0.1-1.6,0.1-2.5,0.1h-1.1c-0.2,0-0.4,0.1-0.4,0.2v0.1c0,0.2,0.1,1.1,0.2,1.4
	c0.1,0.6,0.2,0.8,0.6,0.8c0.6,0,2.4-0.2,2.6-0.2c0.2,0,0.3,0.1,0.3,0.3c-0.1,0.5-0.3,1-0.6,1.5c-0.8,1.9-1.8,3.8-2.9,5.5
	c-0.2,0.3-0.3,0.5-0.4,0.9c0,0.5,1.6,1.2,2.1,1.2c0.2,0,0.4-0.1,0.5-0.3c1.5-2.7,2.8-5.6,3.9-8.5c0.3-0.8,0.3-1,1.1-1.1
	c2.2-0.4,2.5-0.4,2.5-1c0-0.4-0.1-0.8-0.1-1.3c0-0.3-0.1-0.7-0.4-0.7c-0.1,0-0.2,0-0.2,0c-0.4,0.2-0.9,0.3-1.4,0.4
	c-0.2,0-0.3-0.1-0.3-0.3l0,0c0.1-0.4,0.2-0.7,0.3-1.1c0.1-0.4,0.2-0.9,0.4-1.3c0.2-0.1,0.3-0.2,0.4-0.4c-0.1-0.2-0.2-0.3-0.4-0.3
	C259.5,136.1,257.5,135.6,257.2,135.6L257.2,135.6z M284,151c-0.7,0.4-1.2,1-1.5,1.8c0.2,0.6,0.6,1.1,1.2,1.4
	c1.6,0.8,3.4,1.2,5.1,1.1c1.3,0,2.5-0.1,3.7-0.3c0.3-0.3,0.4-0.8,0.3-1.2c0-1,0-1.5-0.4-1.5c-0.1,0-0.2,0-0.2,0.1
	c-1.1,0.3-2.3,0.5-3.4,0.5c-1.5,0-3.3-0.2-4.3-1.4C284.4,151.2,284.2,151.1,284,151L284,151z M285.8,145.6c0,0.4,0.1,0.5,0.6,0.5
	c0.3,0,0.6,0,0.9,0c1.3,0,2.6,0.2,3.8,0.6c0.2,0.1,0.3,0.1,0.5,0.1s0.4-0.1,0.4-0.3c0.2-0.5,0.4-1.1,0.5-1.7c0-0.2-0.1-0.4-0.3-0.5
	c-1.6-0.5-3.2-0.7-4.8-0.7C286.3,143.6,285.9,143.5,285.8,145.6L285.8,145.6z M282.7,135.3c-0.2,0-0.2,0.2-0.3,0.6
	c-0.1,1.5-0.4,2.9-0.9,4.4c-0.2,0.4-0.6,0.4-2.1,0.4c-1,0-2-0.1-2.3-0.1c-0.2,0-0.4,0.1-0.4,0.3v0.1c0,0.6,0.1,1.2,0.2,1.8
	c0.1,0.5,0.5,0.4,1,0.4c0.7,0,1.8-0.1,2.1-0.1c0.2,0,0.4,0.1,0.4,0.3l0,0c0,0.2-0.1,0.4-0.2,0.6c-1.1,3.1-2.5,6.1-4.2,8.9
	c-0.2,0.2-0.3,0.5-0.4,0.8c0,0.5,1.7,1.3,2,1.3c0.4-0.1,0.8-0.5,0.9-0.9c1.8-3.4,3.2-6.9,4.5-10.6c0-0.5,0.5-0.9,1-0.9
	c1.3-0.2,2.6-0.6,3.9-0.9c0.3-0.1,0.5-0.5,0.5-0.9s0-1.8-0.5-1.8c-0.2,0-0.3,0-0.5,0.1c-0.9,0.4-1.8,0.7-2.8,0.9
	c-0.2,0-0.4-0.1-0.4-0.3l0,0c0-0.1,0.5-1.9,0.6-2.1c0-0.4,0.2-0.7,0.6-0.8c0.1,0,0.2-0.1,0.2-0.2c-0.2-0.3-0.5-0.5-0.9-0.5
	C284.5,135.8,282.9,135.3,282.7,135.3L282.7,135.3z M308.2,140.7c0.2,0,0.4,0.2,0.4,0.4c0,0,0,0,0,0.1c-0.1,1.6-0.4,3.1-0.8,4.7
	c-0.7,2.4-2,5.2-3.2,5.2s-1.5-2.2-1.5-3.1c-0.1-3,1.6-5.7,4.3-6.9C307.6,140.8,307.9,140.7,308.2,140.7L308.2,140.7z M310.5,137.9
	c-5.5,0-9.9,4.4-10,9.8c0,0.1,0,0.2,0,0.3c0,1.2,0.2,2.3,0.7,3.4c0.6,1.3,1.8,2.2,3.3,2.3c1.3-0.1,2.4-0.8,3.2-1.8
	c2.3-2.8,3.1-7,3.4-10.5c0-0.4,0-0.9,0.6-0.9c0.3,0,0.6,0.1,0.9,0.2c2.4,0.9,4,3.2,3.8,5.7c0,3.4-2.5,5.5-5.6,6.2
	c-0.2,0.1-0.6,0.1-0.6,0.3c0,0.5,1,2,1.6,2c0.9-0.2,1.8-0.5,2.6-1c2.9-1.5,4.7-4.5,4.7-7.8c0-2.2-0.8-4.4-2.4-5.9
	S312.8,137.8,310.5,137.9L310.5,137.9z M339.7,138.2c0.3-0.1,0.6,0.1,0.7,0.4c0,0.1,0,0.2,0,0.2V152c0,0.7,0,1.4,0,2.1
	c0,1.6,0.6,2.1,2.2,2.1h1.2c1,0,1.8-0.1,2.2-1.1c0.4-1.3,0.6-2.6,0.6-3.9c0-0.7-1.1-0.8-1.6-0.8s-0.5,0.3-0.5,0.7
	c0,0.7-0.1,1.5-0.2,2.2c0,0.2-0.2,0.4-0.4,0.4l0,0h-0.6c-0.4,0-0.4-0.3-0.4-1.1v-13.3c0-0.8,0-1.5,0-2.3c0.1-0.5-0.2-1-0.6-1.1
	c-0.1,0-0.3,0-0.4,0c-0.5,0-1,0.1-1.5,0.1H338c-0.5,0-1-0.1-1.5-0.1c-0.9,0-1.1,0.4-1.1,1.2c0,0.7,0,1.5,0,2.2v3.5
	c0,3.9-0.1,8.7-2,12.2c-0.1,0.2-0.2,0.3-0.2,0.5c0,0.5,1.3,1.1,1.7,1.1c0.7,0,1.6-2.8,1.8-3.4c0.8-3.4,1.2-6.9,1-10.4v-4
	c-0.1-0.3,0.2-0.6,0.5-0.7c0.1,0,0.1,0,0.2,0L339.7,138.2L339.7,138.2z M328.3,145.8c0-0.6,0-1.2,0-1.8c-0.1-0.3,0.1-0.6,0.4-0.7
	c0.1,0,0.1,0,0.2,0h0.9c0.3-0.1,0.6,0.2,0.7,0.5c0,0.1,0,0.1,0,0.2v1.7c0.1,0.3-0.2,0.6-0.5,0.7c-0.1,0-0.1,0-0.2,0h-1
	c-0.3,0-0.6-0.2-0.6-0.5C328.4,145.9,328.4,145.8,328.3,145.8L328.3,145.8z M329,141.1c-0.4,0-0.7-0.3-0.7-0.7v-1.7
	c0-0.4,0.3-0.7,0.7-0.7l0,0h0.9c0.4,0,0.7,0.3,0.7,0.7l0,0v1.7c0,0.4-0.3,0.7-0.7,0.7H329z M330.6,152.6c0,1,0,1.5-1,1.5
	c-0.3,0-0.8-0.1-0.9-0.1c-0.4,0-0.4,0.4-0.4,0.7c0,1.7,0.5,1.9,1.2,1.9c0.8,0,1.7-0.1,2.4-0.5c0.7-0.5,1.1-1.4,0.9-2.3
	c0-0.7,0-1.3,0-1.9v-12.6c0-0.8,0-1.6,0-2.4c0.1-0.5-0.3-0.9-0.7-0.9c-0.1,0-0.2,0-0.3,0c-0.6,0-1.1,0.1-1.7,0.1h-1.3
	c-0.6,0-1.1-0.1-1.7-0.1c-0.5-0.1-0.9,0.2-1,0.7c0,0.1,0,0.3,0,0.4c0,0.8,0,1.6,0,2.3v5c0,3.1-0.4,7.8-1.5,10.7
	c-0.1,0.2-0.1,0.3-0.1,0.5c0,0.5,1.4,1.1,1.9,1.1c0.4,0,0.5-0.3,0.9-1.7c0.5-1.8,0.8-3.7,0.9-5.6c0-0.3,0.3-0.6,0.6-0.6h0.1h1.1
	c0.3-0.1,0.6,0.1,0.7,0.5c0,0.1,0,0.1,0,0.2L330.6,152.6L330.6,152.6z M359.7,135.2c-0.2,0-0.3,0.2-0.3,0.5
	c-0.3,1.1-0.7,2.1-1.3,3.1c-0.4,0.3-1,0.4-1.5,0.3h-0.7c-0.7,0-1.3-0.1-1.7-0.1c-0.6,0-0.7,0.2-0.7,1.1c0,1.2,0.1,1.3,0.6,1.3
	c0.7,0,1.3-0.1,1.7-0.1c0.3,0,0.5,0.1,0.5,0.3c0,0.4-3.5,5.3-4,5.9c-0.2,0.1-0.3,0.3-0.3,0.5c0,0.4,1.6,1.4,2,1.4
	c0.1,0,0.3-0.1,0.3-0.2c0.6-1,1.2-1.9,2-2.8c1.2-1.2,2.8-1.9,4.5-2.1c0.5,0,1,0.3,1.1,0.8c0.1,0.2,0.1,0.4,0.1,0.7s-0.2,0.5-0.4,0.6
	c-0.5,0.2-1,0.5-1.5,0.8c-1.7,1-3.4,2.2-3.4,4.3c0,1.5,1,2.9,2.4,3.4c1.2,0.5,2.5,0.7,3.8,0.6c1.5,0,3.1-0.1,4.6-0.3
	c0.5-0.1,0.6-0.3,0.6-1c0-1.4-0.2-1.6-0.5-1.6c-0.2,0-0.3,0-0.5,0.1c-1.5,0.4-3,0.6-4.5,0.6c-1.2,0-3.5-0.1-3.5-1.8
	c0-1.5,2.5-2.5,2.6-2.5c0.2,0,0.3,0.2,0.3,0.3c0,0,0,0,0,0.1c0,0.5,0,1,0,1.6s0.4,0.7,1.5,0.7c0.9,0,1-0.1,1-1c0-0.8,0-1.5,0-2.2
	v-0.3c0-0.4,0.2-0.7,0.6-0.8c0.9-0.4,1.9-0.8,2.8-1.2c0.1-0.1,0.2-0.1,0.3-0.1c0.5-0.1,0.7-0.2,0.7-0.5c0-0.4-0.6-2.2-1-2.2
	c-0.2,0-0.4,0.1-0.6,0.2c-0.9,0.5-1.8,1-2.8,1.4c-0.2,0-0.4-0.2-0.4-0.4c-0.1-1.3-1.4-2.3-2.7-2.2l0,0c-0.9,0-1.8,0.2-2.6,0.6
	c-0.1,0.1-0.3,0.1-0.4,0.2c-0.1,0-0.2-0.1-0.2-0.2c0.2-0.5,0.5-1,0.8-1.4c0.2-0.2,0.4-0.4,0.7-0.4c1.5-0.2,3-0.4,4.5-0.7
	c0.5-0.1,1.3-0.2,1.3-0.6c0-0.4-0.1-0.9-0.2-1.3c0-0.4-0.2-0.7-0.6-0.7c-0.2,0-0.4,0.1-0.6,0.2c-0.9,0.3-1.8,0.5-2.8,0.7
	c-0.1,0-0.2-0.1-0.3-0.2l0,0c0-0.2,0.1-0.4,0.2-0.6c0.1-0.4,0.4-0.7,0.8-0.8c0.1,0,0.3-0.1,0.3-0.3
	C362.4,136.3,359.9,135.2,359.7,135.2L359.7,135.2z M382.7,151.2c0.6,0,1.1,0,1.1,0.5c0,1.3-0.9,1.6-2,1.6c-0.6,0-1.7-0.2-1.7-1
	C380.1,151.3,382,151.2,382.7,151.2L382.7,151.2z M383.5,136.2c-0.2,0-0.4,0.1-0.4,0.3c0,0.1,0,0.3,0,0.4c0.1,0.4,0.2,2,0.2,2.4
	c0,0.7-0.6,0.6-2.7,0.6c-1.2,0-3.2-0.2-3.7-0.2c-0.4,0-0.4,0.3-0.4,0.7c0,0.6,0.1,1.2,0.3,1.8c0.4,0.2,0.9,0.3,1.4,0.2h0.7
	c1.3,0,3.2-0.1,4.1-0.1c0.6,0,0.6,1,0.6,1.7c0,0.5-0.3,0.6-1.2,0.6h-1.1c-0.9,0-2.3-0.1-2.5-0.1s-0.4,0.2-0.4,0.4v0.1
	c0,0.6,0.1,1.1,0.3,1.7c0.2,0.4,0.6,0.4,1.6,0.4s2.4-0.1,2.9-0.1c0.6,0,0.6,0.9,0.6,1.7c0,0.2,0,0.7-0.4,0.7c-0.1,0-0.7-0.1-1-0.1
	c-2,0-4.6,0.8-4.6,3.2c0,2.2,2.1,3.1,4,3.1s3.8-0.6,4.3-2.7c0-0.3,0.2-0.5,0.5-0.5c0.9,0.3,1.8,0.8,2.5,1.5c0.2,0.2,0.5,0.3,0.7,0.4
	c0.6,0,1.4-1.2,1.4-1.8c0-0.9-3.2-2.2-4-2.5c-1-0.3-1.1-0.2-1.1-2.6c0-0.7,0.5-0.7,1.4-0.8c0.8-0.1,1.7-0.2,2.5-0.4
	c0.4-0.1,0.5-0.3,0.5-1.1c0-0.9-0.1-1.4-0.4-1.4c-0.2,0-0.3,0-0.5,0.1c-1,0.3-2,0.5-3.1,0.6c-0.2,0-0.4-0.2-0.4-0.4
	c-0.1-0.4-0.1-0.8-0.1-1.3c0-0.7,0.6-0.7,1.1-0.7c1.3-0.1,2.8-0.4,4-0.6c0.5-0.1,0.7-0.2,0.7-0.6c0-0.4-0.1-2-0.6-2
	c-0.3,0-0.6,0.1-0.9,0.2c-0.9,0.2-1.7,0.4-2.6,0.6c-0.2,0-1.1,0.2-1.2,0.2c-0.3,0-0.5-0.3-0.5-0.6v-0.1c0-1.9,0.5-1.5,0.5-2
	c0-0.3-0.3-0.3-1-0.4C385,136.4,383.9,136.2,383.5,136.2L383.5,136.2z M407.5,135.9c-0.4-0.2-0.8-0.3-1.2-0.4
	c-0.2,0-0.3,0.2-0.4,0.5c-0.2,0.7-0.7,2.4-0.9,3.2c0,0.3-0.2,0.6-0.6,0.6c-0.1,0-0.2,0-0.3-0.1c-0.6-0.2-1.1-0.5-1.6-0.8
	c-0.2-0.1-0.3-0.2-0.6-0.3c-0.5,0-0.9,1.7-0.9,2.1c0,0.4,0.5,0.7,2.2,1.3c0.4,0.1,0.7,0.4,0.8,0.8c0,0.2-0.1,0.3-0.1,0.5
	c-0.1,0.4-0.2,0.7-0.2,0.9c-0.1,0.7-0.2,1-0.6,1c-0.6-0.1-1.1-0.3-1.5-0.7c-0.2-0.1-0.4-0.2-0.6-0.2c-0.6,0-0.8,1.9-0.8,2
	c0,0.3,0.2,0.5,0.5,0.6c0.5,0.2,0.9,0.4,1.4,0.6c0.5,0,0.9,0.4,1,0.8c0,0.2-0.1,1.2-0.1,1.8c0,3.7,2.1,5.7,5.8,5.7
	c3.2,0,6.6-1.3,6.6-5c0-1.4-0.3-2.9-0.8-4.2c-0.2-0.5-0.3-0.9-0.6-0.9c-0.3,0-2,0.3-2,0.9c0,0.1,0,0.3,0.1,0.4
	c0.5,1.1,0.7,2.3,0.8,3.5c0,0.6-0.1,1.2-0.5,1.7c-1,0.8-2.2,1.2-3.5,1.1c-1.6,0.2-3-0.9-3.2-2.5c0-0.2,0-0.5,0-0.7
	c0-1,0-1.6,0.6-1.6c0.1,0,0.3,0,0.4,0.1c0.6,0.1,1.7,0.2,2.3,0.2c0.3,0,0.6-0.2,0.7-0.6c0.2-0.5,0.3-1.1,0.3-1.6
	c0-0.2-0.1-0.4-0.7-0.4c-0.7,0-1.4,0-2.2-0.1c-0.3,0-0.8-0.1-0.8-0.6c0-0.2,0.3-1.7,0.4-2c0-0.3,0.3-0.6,0.6-0.6
	c0.1,0,0.1,0,0.2,0.1c1.1,0.2,2.2,0.3,3.3,0.4c0.3,0,0.5-0.2,0.5-0.5c0.1-0.5,0.2-1,0.3-1.6c0-0.5-0.4-0.4-0.8-0.4
	c-0.8,0-1.6-0.1-2.4-0.2c-0.3,0-0.6-0.2-0.6-0.5l0,0c0-0.1,0-0.2,0.1-0.3c0.2-0.6,0.4-1.2,0.6-1.8c0.1-0.5,0.4-0.9,0.8-1.1
	c0.1,0,0.2-0.1,0.2-0.3C409.2,136.3,408,136,407.5,135.9L407.5,135.9z M433.5,137.1c0,0.1,0,0.2,0,0.3c0.6,2.2,0.9,4.4,0.8,6.7
	c0.1,2.1-0.3,4.1-1.1,6.1c-0.7,1.5-1.8,2.8-3.3,3.7c-0.2,0.1-0.3,0.2-0.4,0.4c0.4,0.8,1,1.4,1.8,1.7c0.7-0.3,1.4-0.7,1.9-1.3
	c3-3.1,3.7-6.6,3.7-10.7c0-2.3-0.2-4.6-0.7-6.9c-0.1-0.4-0.1-0.7-0.6-0.7C435.5,136.4,433.5,136.6,433.5,137.1L433.5,137.1z
	 M426.5,137.5c-0.2-0.1-1.2-0.5-1.3-0.5c-0.2,0.1-0.3,0.4-0.3,0.6c-0.1,0.6-0.3,1.2-0.4,1.8c-0.4,1.6-0.5,3.3-0.6,4.9
	c0,1.9,0.3,3.8,0.8,5.6c0,0.5,0.4,0.8,0.8,0.9c0.5,0,1.7-0.3,1.7-1c0-0.2,0-0.4,0-0.8c0.1-1,0.4-2,0.8-3l0.2-0.6
	c0.2-0.6,0.6-1.4,0.6-1.5c-0.2-0.4-0.5-0.7-0.9-0.8c-0.4,0.3-0.7,0.8-0.8,1.3c0,0.3-0.2,0.5-0.4,0.6c-0.3,0-0.2-1-0.2-1.2
	c0-0.9,0.1-1.8,0.3-2.7c0.2-0.7,0.4-1.4,0.7-2c0.1-0.2,0.3-0.4,0.5-0.5c0.1,0,0.3-0.2,0.3-0.3C428.2,138.2,427,137.7,426.5,137.5
	L426.5,137.5z M457,152.9c-0.5,0-1.6-0.2-1.6-0.9c0-0.8,1.3-0.9,1.9-0.9c0.4,0,2,0.1,2,0.6C459.4,152.1,458.4,152.9,457,152.9
	L457,152.9z M453,142.8c0.2,0,0.3,0.1,0.3,0.3l0,0c0,1.1-0.2,2.1-0.6,3.2c0,0.2-0.2,0.4-0.4,0.4c-0.5,0-1.5-1.8-1.5-2.1
	C450.8,144,452.7,142.8,453,142.8L453,142.8z M448.5,151.6c-0.6,0-0.6-0.6-0.6-1.1c0-1.3,0.8-3.6,1.2-3.6c0.1,0,0.3,0.1,0.3,0.2
	c0.4,0.6,0.8,1.2,1.3,1.8c0.2,0.1,0.3,0.3,0.4,0.6C450.5,150.5,449.6,151.3,448.5,151.6L448.5,151.6z M460.9,146.7
	c0,0.7,0,1.5-0.2,2.2c0,0.3-0.3,0.5-0.6,0.5c-0.1,0-0.2,0-0.3-0.1c-0.8-0.2-1.6-0.3-2.4-0.3c-1,0-2,0.2-2.9,0.8
	c-0.8,0.5-1.3,1.4-1.4,2.3c0,2,2.1,2.8,3.8,2.8c1.5,0.1,3-0.5,4.1-1.6c0.1-0.2,0.3-0.3,0.6-0.4c0.3,0.1,0.6,0.3,0.8,0.5
	c0.3,0.3,0.7,0.6,1.1,0.8c0.7-0.3,1.2-0.9,1.4-1.7c0-0.5-1.2-1.3-1.7-1.6c-0.3-0.1-0.4-0.4-0.5-0.7c0-0.1,0-0.2,0-0.3
	c0.3-1.1,0.5-2.2,0.5-3.3c0.1-1.9-0.5-3.8-1.7-5.3c-1.2-1.3-2.8-2-4.6-2.1c-0.3,0-0.6,0-0.8,0c-0.5,0-0.6-0.4-0.6-0.8v-0.3
	c0-0.3,0.1-0.5,0.2-0.8c0.1-0.1,0.1-0.2,0.2-0.3c0-0.3-0.5-0.3-0.7-0.3c-0.5-0.1-1.7-0.2-2.1-0.2c-0.2,0-0.4,0-0.4,0.2
	c0,0.1,0,0.1,0,0.2c0.2,0.8,0.3,1.7,0.4,2.5c0,0.3-0.2,0.6-0.6,0.7c-0.8,0.4-1.5,0.8-2.2,1.4c-0.1,0.2-0.4,0.3-0.6,0.3
	c-0.5,0-0.7-1.4-0.8-1.7c0-0.3,0-0.7-0.4-0.7c-0.5,0.1-1,0.3-1.5,0.5c-0.4,0-0.7,0.3-0.9,0.6c0,0.1,0,0.2,0.1,0.3
	c0.6,1.1,1.1,2.2,1.5,3.3c0,0.2-0.1,0.3-0.2,0.5c-1.2,1.8-1.9,3.9-2,6.1c0,1.5,0.6,3.1,2.4,3.1c2.8,0,5.3-3.3,6.3-5.7
	c0.7-1.8,1.2-3.7,1.3-5.6c0-0.6,0-1,1-1c0.6,0,1.1,0.1,1.6,0.3C460.3,142.7,460.8,144.7,460.9,146.7L460.9,146.7z M481.9,137.4
	c-0.3-0.4-0.8-0.8-1.3-1.1c-0.2,0-0.3,0.1-0.4,0.3c-1.4,1.6-2.9,3-4.5,4.2c-1.1,0.8-2.2,1.8-3.1,2.8c-0.3,0.5-0.5,1.1-0.5,1.7
	c0,1,0.4,1.9,1.2,2.6c1.2,1.4,2.5,2.7,3.8,4c1,1,2,2,2.9,3.1c0.2,0.3,0.4,0.5,0.7,0.6c0.9-0.3,1.7-1,2-1.9c0-0.5-1.7-1.8-2.1-2.2
	c-1.5-1.3-3-2.7-4.3-4.1c-0.6-0.5-1-1.2-1.2-1.9c0.2-0.6,0.5-1,1-1.4c1.2-1.2,2.6-2.3,4-3.4c0.6-0.5,1.2-0.9,1.8-1.4
	c0.2-0.2,0.4-0.3,0.6-0.3s0.5,0,0.5-0.2C482.8,138.3,482.4,137.8,481.9,137.4L481.9,137.4z M494.7,150.4c1.2,0,2.1,0.9,2.1,2.1l0,0
	c0,1.2-1,2.1-2.1,2.1c-1.2,0-2.1-1-2.1-2.1C492.6,151.3,493.5,150.4,494.7,150.4L494.7,150.4L494.7,150.4z M494.7,149.2
	c-1.8,0-3.3,1.5-3.3,3.3s1.5,3.3,3.3,3.3s3.3-1.5,3.3-3.3S496.6,149.2,494.7,149.2L494.7,149.2z"/>
<g>
	<path class="st1" d="M101.8,35.2c0.2,0.1,0.4,0.1,0.4,0.2c0,0,0,0.1-0.1,0.1c-0.1,0.1-0.1,0.1-0.2,0.3c0,0,0,0.2,0,0.3
		s0,0.1,0.1,0.1h0.1c0.3-0.1,0.7-0.2,1-0.3h0.1c0.2,0,0.3,0.6,0.3,0.7c0,0.2-0.2,0.2-0.4,0.2c-0.3,0.1-0.8,0.2-1.2,0.2
		c-0.2,0-0.2,0.2-0.2,0.3s0.1,0.1,0.1,0.1s0,0,0.1,0c0.2,0,0.4,0,0.5,0c1.3,0,2.4,0.7,2.4,2.1c0,1.9-2.3,2.6-2.6,2.6
		c-0.2,0-0.4-0.5-0.4-0.7c0-0.1,0.1-0.1,0.2-0.1c0.9-0.2,1.9-0.7,1.9-1.8c0-0.9-0.7-1.2-0.8-1.2c-0.1,0-0.2,0.1-0.2,0.2
		c-0.3,0.6-0.7,1.1-1.1,1.6c0,0-0.1,0.1-0.1,0.2v0.3l0,0c0,0.2-0.4,0.4-0.6,0.4c-0.1,0-0.1,0-0.1-0.1c0,0,0-0.1-0.1-0.1h-0.1
		c-0.4,0.2-0.8,0.4-1.2,0.4c-0.6,0-0.9-0.4-0.9-1c0-1.1,1.1-2.1,2-2.6c0,0,0.2-0.1,0.2-0.5c0-0.1-0.1-0.1-0.1-0.1s-0.1,0-0.2,0
		c-0.3,0-0.6,0.1-0.9,0.1c-0.4,0-0.4,0-0.4-0.4s0-0.4,0.2-0.4c0.1,0,0.3,0,0.4,0c0.3,0,0.6,0,0.8,0c0.1,0,0.2,0,0.2-0.1
		s0.1-0.1,0.1-0.2c0-0.3,0.1-0.6,0.1-0.9c0-0.1,0-0.1,0.1-0.1C101.3,35.1,101.7,35.2,101.8,35.2z M99.5,40.2c0,0.2,0.1,0.2,0.2,0.2
		c0.3,0,0.8-0.3,1-0.5c0.1-0.1,0.1-0.2,0.1-0.3s0-0.4,0-0.7c0-0.1,0-0.2,0-0.2s0-0.1-0.1-0.1C100.5,38.7,99.5,39.6,99.5,40.2z
		 M101.6,38.2c-0.1,0.1-0.1,0.2-0.1,0.4v0.1c0,0.1,0,0.3,0.1,0.3s0.4-0.6,0.5-0.7v-0.1c0-0.1-0.1-0.1-0.1-0.1S101.7,38.2,101.6,38.2
		z"/>
</g>
</svg>
