<?xml version="1.0" encoding="utf-8"?>
<!-- Generator: Adobe Illustrator 25.0.1, SVG Export Plug-In . SVG Version: 6.00 Build 0)  -->
<svg version="1.1" id="レイヤー_1" xmlns="http://www.w3.org/2000/svg" xmlns:xlink="http://www.w3.org/1999/xlink" x="0px"
	 y="0px" viewBox="0 0 415.1 129.4" style="enable-background:new 0 0 415.1 129.4;" xml:space="preserve">
<style type="text/css">
	.st0{fill-rule:evenodd;clip-rule:evenodd;fill:#FFFFFF;}
	.st1{fill:#FFFFFF;}
</style>
<path id="text-about.svg" class="st0" d="M8.7,11.6c0.3,0,0.9,0,0.9,0.4c0,0.8-0.5,0.9-1.3,0.9c-0.4,0-1.1-0.1-1.1-0.6
	C7.2,11.7,8.3,11.6,8.7,11.6z M12.6,1.6c-0.1,0-0.1,0-0.2,0C11,2.1,9.5,2.3,8,2.3c-0.3,0-1.1,0-1.4-0.1c-0.1,0-0.1,0-0.2,0
	C6.2,2.2,6.1,2.3,6,2.4v0.1c0,0.2,0.1,1,0.1,1.2C6.2,4,6.4,4,6.7,4C7.4,4,8.8,3.9,9,3.9c0.3,0,0.4,0.1,0.4,1.6C9.3,6,9.1,6,6.6,6
	C6.2,6,5.8,6,5.5,6S5.2,6.1,5.2,6.4c0,0.4,0.1,0.8,0.1,1.3c0.2,0.1,0.4,0.2,0.6,0.1c0.8,0,2.3-0.1,3.1-0.2c0.1,0,0.1,0,0.1,0
	c0.2,0,0.4,0.2,0.4,0.4c0,0,0,0,0,0.1c0,0.4,0.1,1.5,0.1,1.8c0,0.2-0.2,0.4-0.4,0.4l0,0c-0.1,0-0.4,0-0.6,0c-1.3,0-2.9,0.6-2.9,2.2
	c0,1.5,1.5,2,2.8,2c0.9,0,2.2-0.3,2.6-1.2c0.1-0.3,0.2-0.5,0.4-0.5c0.5,0.2,0.9,0.5,1.2,0.9l0.1,0.1c0.1,0.2,0.3,0.3,0.4,0.3
	c0.5-0.2,0.9-0.7,1-1.2c0-0.5-2-1.6-2.5-1.9c-0.3-0.1-0.6-0.4-0.5-0.7l0,0c0-0.6-0.1-1.9-0.1-2.3c0-0.5,0.5-0.5,1.2-0.6
	C13.7,7,14,6.9,14,6.5c0-0.3-0.1-0.6-0.2-0.9c0-0.2-0.1-0.4-0.3-0.5c-0.2,0-0.3,0.1-0.5,0.1c-0.6,0.2-1.2,0.3-1.8,0.4
	c-0.3,0-0.3-0.3-0.3-0.9V4.2c-0.1-0.3,0.1-0.6,0.4-0.6h0.1C12.7,3.4,13,3.4,13,3C13,2.8,12.9,1.6,12.6,1.6z M4.1,1.7
	C3.7,1.5,3.3,1.3,2.9,1.2c-0.1,0-0.2,0.2-0.2,0.3C2.6,2.1,2.4,2.6,2.3,3.2C1.7,5,1.5,6.9,1.4,8.8c0,1.8,0.3,3.6,1,5.4
	c0,0.3,0.2,0.5,0.5,0.6c0.3,0,0.5-0.1,0.7-0.2c0.3,0,0.5-0.3,0.5-0.5s0-0.4,0-0.6c0.1-0.9,0.3-1.8,0.7-2.7C4.9,10.5,5,10.2,5,10
	C4.9,9.7,4.6,9.5,4.3,9.4C4.1,9.5,4,9.6,4,9.8c0,0.1-0.1,0.2-0.2,0.4c0,0.2-0.2,0.4-0.4,0.5c-0.1,0-0.2-0.1-0.2-0.2
	c0-0.6-0.1-1.1-0.1-1.7c0-2,0.4-3.9,1-5.8c0-0.2,0.2-0.4,0.4-0.6c0.1,0,0.2-0.1,0.2-0.3C4.6,2,4.4,1.8,4.1,1.7L4.1,1.7z M21.4,1.4
	c-0.2,0-0.3,0.2-0.3,0.4V2c0,0.7-0.2,2.3-0.2,3.1c-0.1,1.3-0.2,2.7-0.2,4c-0.1,1.4,0.2,2.7,0.8,3.9c0.7,0.9,1.8,1.4,3,1.3
	c2.2,0,4.2-1.3,5.2-3.2c0.3-0.6,0.6-1.3,0.7-2c-0.2-0.7-0.7-1.2-1.4-1.4c-0.3,0-0.3,0.3-0.3,0.6c-0.1,0.9-0.5,1.8-1,2.5
	c-0.8,1-1.9,1.6-3.2,1.6c-1.8,0-1.8-2.1-1.8-3.4c0-1,0.2-6.4,0.7-6.8c0.1,0,0.2-0.1,0.2-0.3c0-0.1-0.2-0.2-0.3-0.2
	C22.7,1.6,22.1,1.5,21.4,1.4L21.4,1.4z M45.8,2.7c-0.5,0.1-1,0.4-1.3,0.9c0,0.1,0.1,0.2,0.2,0.3c1,1.1,1.7,2.3,2.3,3.6
	c0,0.2,0.2,0.3,0.4,0.4c0.6-0.1,1.1-0.5,1.4-1C48.8,6.5,46.4,2.7,45.8,2.7L45.8,2.7z M39.6,1c-0.2,0-0.2,0.2-0.2,0.3
	c0,0.2,0,0.4,0,0.6c0,0.7-0.1,1.5-0.2,2.2c0,0.3-0.3,0.5-0.6,0.5c-0.9,0.2-1.9,0.4-2.8,0.5c-0.2,0-0.5,0-0.5,0.3
	c0,0.1,0.3,1.8,0.7,1.8c0.1,0,0.2-0.1,0.4-0.1c0.6-0.2,1.3-0.4,1.9-0.6c0.1,0,0.2,0.1,0.2,0.2l0,0c-0.1,0.4-0.3,0.9-0.4,1.3
	c-0.7,1.8-1.7,3.4-3,4.7c0,0.1-0.1,0.3-0.1,0.4c0.3,0.5,0.8,0.9,1.4,1c0.1,0,0.2-0.1,0.3-0.2c0.6-0.8,1.2-1.6,1.7-2.4
	c0.9-1.6,1.7-3.3,2.2-5c0.1-0.5,0.3-0.6,1.3-0.6S43,6.6,43,7.4c0,1.3-0.3,2.6-0.7,3.8c-0.3,0.7-1,1.2-1.8,1c-0.3,0-0.6-0.1-0.8-0.1
	s-0.2,0.1-0.2,0.3c0,0.4,0.1,0.8,0.3,1.2c0.1,0.3,0.5,0.5,0.8,0.4c1.3,0.1,2.6-0.7,3.2-1.8c0.7-1.6,1.1-3.4,1-5.2
	c0.1-0.9-0.3-1.9-1-2.5c-0.6-0.3-1.3-0.5-1.9-0.4c-0.1,0-0.1,0-0.2,0c-0.2,0-0.4-0.1-0.4-0.3l0,0c0-0.1,0-0.1,0-0.2
	c0.1-0.3,0.1-0.5,0.1-0.7c0-0.4,0.2-0.8,0.5-1.1C42,1.8,42,1.7,42,1.6c-0.1-0.2-0.2-0.3-0.4-0.3C41.1,1.3,39.8,1,39.6,1L39.6,1z
	 M52.6,7.4c0.1,0.6,0.5,1.1,1.1,1.4c0.2,0,0.3-0.1,0.5-0.2c1.6-0.9,3.4-1.5,5.3-1.7c1-0.1,1.8,0.6,1.9,1.6c0,0.1,0,0.1,0,0.2
	c-0.1,1.1-0.7,2-1.7,2.4c-0.9,0.5-1.9,0.8-2.9,0.8c-0.2,0-0.5,0.1-0.5,0.3c0,0.1,0.2,1.3,0.8,1.3c0.9-0.1,1.8-0.4,2.6-0.7
	C61.5,12,63,10.7,63,8.6c0-1.8-1.4-3.3-3.2-3.3c-0.1,0-0.2,0-0.3,0c-1.7,0.1-3.3,0.6-4.9,1.2c-0.5,0.2-1,0.4-1.6,0.5
	C52.7,7.1,52.6,7.2,52.6,7.4L52.6,7.4z M73.8,11.4c-0.5,0.3-0.9,0.7-1.1,1.3c0.1,0.4,0.4,0.8,0.8,1c1.1,0.6,2.4,0.8,3.6,0.8
	c0.9,0,1.8-0.1,2.7-0.2c0.2-0.2,0.3-0.6,0.2-0.8c0-0.7,0-1.1-0.3-1.1c-0.1,0-0.1,0-0.2,0c-0.8,0.2-1.6,0.4-2.4,0.3
	c-1.1,0.1-2.2-0.3-3.1-1C74.1,11.5,74,11.4,73.8,11.4L73.8,11.4z M75.1,7.5c0,0.3,0.1,0.4,0.4,0.4c0.2,0,0.4,0,0.6,0
	c0.9,0,1.8,0.1,2.7,0.4c0.1,0.1,0.2,0.1,0.4,0.1c0.1,0,0.3-0.1,0.3-0.2c0.2-0.4,0.3-0.8,0.3-1.2c0-0.2-0.1-0.3-0.2-0.3
	c-1.1-0.3-2.3-0.5-3.4-0.5C75.4,6.1,75.1,6,75.1,7.5L75.1,7.5z M72.9,0.2c-0.2,0-0.2,0.2-0.2,0.4c-0.1,1-0.3,2.1-0.6,3.1
	C71.9,4,71.7,4,70.6,4c-0.8,0-1.5,0-1.6,0s-0.3,0.1-0.3,0.2v0.1c0,0.4,0.1,0.8,0.1,1.2c0.1,0.3,0.4,0.3,0.7,0.3
	c0.5,0,1.3-0.1,1.5-0.1c0.1,0,0.3,0.1,0.3,0.2l0,0c0,0.2-0.1,0.3-0.1,0.4c-0.8,2.2-1.8,4.3-3,6.3c-0.1,0.2-0.2,0.4-0.3,0.6
	c0,0.4,1.2,0.9,1.4,0.9c0.3-0.1,0.5-0.3,0.6-0.6c1.2-2.4,2.3-4.9,3.2-7.5c0-0.4,0.3-0.7,0.7-0.7c0.9-0.2,1.9-0.4,2.8-0.7
	C76.8,4.5,77,4.2,76.9,4c0-0.3,0-1.3-0.3-1.3c-0.1,0-0.2,0-0.4,0.1c-0.6,0.3-1.3,0.5-2,0.6c-0.1,0-0.3-0.1-0.3-0.2l0,0
	c0-0.1,0.4-1.3,0.4-1.5c0-0.3,0.2-0.5,0.4-0.6c0.2,0,0.3,0,0.3-0.1c-0.2-0.2-0.4-0.3-0.6-0.4C74.2,0.6,73,0.2,72.9,0.2L72.9,0.2z
	 M91,4c0.1,0,0.3,0.1,0.3,0.3l0,0c-0.1,1.1-0.3,2.2-0.5,3.3c-0.5,1.7-1.4,3.7-2.3,3.7s-1.1-1.6-1.1-2.2c0-2.1,1.2-4,3.1-4.9
	C90.6,4.1,90.8,4.1,91,4L91,4z M92.6,2c-3.9,0-7,3.1-7.1,6.9c0,0.1,0,0.1,0,0.2c0,0.8,0.2,1.7,0.5,2.4c0.4,0.9,1.3,1.5,2.3,1.6
	c0.9-0.1,1.7-0.6,2.2-1.3c1.6-2,2.2-5,2.4-7.5c0-0.3,0-0.7,0.4-0.7c0.2,0,0.4,0.1,0.6,0.2c1.7,0.6,2.8,2.3,2.7,4.1
	c0,2.4-1.8,3.9-4,4.4c-0.2,0-0.4,0.1-0.4,0.2c0.1,0.6,0.6,1.2,1.1,1.4c0.6-0.1,1.3-0.4,1.9-0.7c2.1-1.1,3.3-3.2,3.3-5.5
	c0-1.6-0.6-3.1-1.7-4.2C95.8,2.6,94.2,2,92.6,2L92.6,2z M112.3,11.6c0,0.5-0.3,0.9-0.8,1c-0.1,0-0.2,0-0.3,0c-0.4,0-1.2-0.2-1.2-0.7
	s0.8-0.7,1.2-0.7C111.5,11.1,112.3,11.1,112.3,11.6L112.3,11.6z M112,1.3c-0.1,0-0.2,0.1-0.2,0.2c0,0,0,0,0,0.1s0,0.1,0,0.2
	c0.1,0.4,0.2,2.1,0.2,2.4c0,0.4-0.4,0.4-0.8,0.4h-0.3c-0.9,0-2.4-0.2-2.6-0.2c-0.3,0-0.3,0.2-0.3,0.4c0,0.4,0,0.9,0.2,1.3
	c0.4,0.1,0.9,0.2,1.3,0.1h0.2c0.7,0,1.9-0.1,2-0.1c0.4,0,0.4,0.5,0.4,0.6c0,0.5,0.1,2.1,0.1,2.5c0,0.2-0.1,0.3-0.3,0.4h-0.1h-0.1
	c-0.2,0-0.4-0.1-0.7-0.1c-1.3,0-2.7,0.6-2.7,2.1c0,1.6,1.5,2.2,2.8,2.2c1.1,0.1,2.1-0.4,2.5-1.4c0-0.1,0.1-0.3,0.3-0.3
	c0.5,0.2,0.9,0.6,1.3,0.9c0.1,0.1,0.3,0.2,0.5,0.3c0.5-0.2,0.9-0.6,1-1.2c0-0.3-0.2-0.5-0.4-0.6c-0.6-0.5-1.2-0.9-1.8-1.2
	c-0.3-0.1-0.6-0.3-0.6-0.7s-0.1-3-0.1-3.4s0.2-0.5,0.6-0.5c2-0.3,2.1-0.4,2.1-0.7c0-0.3-0.1-1.4-0.5-1.4c-0.1,0-0.2,0-0.3,0.1
	c-0.6,0.2-1.1,0.3-1.7,0.4c-0.2,0-0.4-0.2-0.4-0.4c0,0,0,0,0-0.1V3.3c0-0.4,0-0.8,0.2-1.2c0.1-0.1,0.2-0.2,0.2-0.3
	c0-0.1-0.1-0.2-0.2-0.2C113.2,1.5,112.6,1.4,112,1.3L112,1.3z M106.6,1.8c-0.3-0.2-0.7-0.3-1.1-0.4c-0.1,0-0.2,0.2-0.2,0.3
	c-0.2,0.7-0.4,1.5-0.6,2.2c-0.4,1.6-0.6,3.2-0.6,4.8c-0.1,1.8,0.3,3.6,1,5.2c0.1,0.3,0.3,0.5,0.5,0.6c0.1,0,1.3-0.2,1.3-0.9
	c0-0.3,0-0.5,0-0.8c0.2-1.1,0.5-2.1,0.8-3.1c-0.1-0.3-0.4-0.5-0.7-0.5c-0.2,0.2-0.4,0.5-0.5,0.7c0,0.2-0.2,0.5-0.4,0.6
	c-0.3,0-0.4-1.6-0.4-1.9c0-1.8,0.3-3.5,0.9-5.2c0.1-0.4,0.3-0.7,0.7-0.9c0.1,0,0.1-0.1,0.2-0.2c-0.1-0.2-0.2-0.3-0.4-0.3
	C107,2.1,106.8,2,106.6,1.8L106.6,1.8z M120.9,11.8c0,0.2,0.2,0.3,0.3,0.3c1,0.6,1.9,1.4,2.6,2.3c0.1,0.1,0.2,0.2,0.3,0.3
	c0.6-0.2,1-0.7,1.2-1.3c0-0.4-2.9-2.8-3.3-2.8C121.6,10.8,121.2,11.2,120.9,11.8L120.9,11.8z M144.4,12.2c0.1,0,0.3,0.1,0.3,0.2l0,0
	c0,0.1,0,0.1-0.1,0.2c-0.1,0.1-0.2,0.3-0.3,0.5c0,0.1,0.1,0.2,0.2,0.3c0.7,0.4,1.4,0.7,2.1,1c0.9,0.4,1.8,0.7,2.8,0.9
	c0.5-0.2,0.8-0.7,0.8-1.2c0-0.2-0.2-0.3-0.6-0.4c-1.2-0.3-2.4-0.7-3.6-1.2c-0.1,0-0.2-0.1-0.2-0.2c0-0.1,0.1-0.2,0.2-0.2h1.9
	c0.7,0,1.3,0,2,0c0.3,0,0.3-0.2,0.3-0.7s0-0.7-0.4-0.7c-0.7,0-1.3,0-2,0h-10.3c-0.7,0-1.3,0-2,0c-0.4,0-0.4,0.2-0.4,0.7
	s0,0.7,0.4,0.7c0.7,0,1.3,0,2,0h2c0.1,0,0.2,0.1,0.2,0.2c0,0.1-0.1,0.1-0.1,0.2c-1.2,0.5-2.5,0.9-3.8,1.2c-0.3,0.1-0.7,0.1-0.7,0.3
	c0.1,0.5,0.4,0.9,0.8,1.2c0.2,0,0.4-0.1,0.6-0.1c1.4-0.4,2.8-0.9,4.1-1.5c0.1,0,0.2-0.1,0.3-0.1s0.1,0,0.2,0c0.1,0,0.1,0,0.2,0
	c0.1,0,0.2-0.1,0.2-0.2c0-0.1-0.1-0.2-0.2-0.3c-0.2-0.2-0.4-0.4-0.5-0.7c0-0.1,0.1-0.2,0.3-0.2l0,0L144.4,12.2L144.4,12.2z
	 M145.3,8.2c0.2,0,0.4,0.2,0.4,0.4l0,0v0.1c0,0.2-0.2,0.4-0.4,0.4l0,0h-5.2c-0.2,0-0.4-0.1-0.4-0.3c0,0,0,0,0-0.1V8.6
	c0-0.2,0.1-0.4,0.3-0.4l0,0C140,8.2,145.3,8.2,145.3,8.2z M145.4,6.4c0.2,0,0.3,0.1,0.3,0.3l0,0v0.1c0,0.2-0.1,0.3-0.3,0.3l0,0h-5.3
	c-0.2,0-0.3-0.1-0.3-0.3l0,0V6.7c0-0.2,0.1-0.3,0.3-0.3l0,0C140.1,6.4,145.4,6.4,145.4,6.4z M140.1,5.3c-0.2,0-0.3-0.1-0.3-0.3l0,0
	V4.9c0-0.2,0.1-0.3,0.3-0.3l0,0h5.3c0.2,0,0.3,0.1,0.3,0.3V5c0,0.2-0.1,0.3-0.3,0.3H140.1z M141.9,3c0,0.2-0.1,0.4-0.3,0.4h-0.1
	h-1.4c-0.4,0-0.8,0-1.3,0c-0.3-0.1-0.7,0.1-0.8,0.5c0,0.1,0,0.2,0,0.3c0,0.4,0,0.7,0,1.1v3.3c0,0.4,0,0.7,0,1.1
	c0,0.4,0.2,0.7,0.6,0.7c0.1,0,0.2,0,0.3,0c0.4,0,0.8,0,1.3,0h5.3c0.4,0,0.8,0,1.3,0c0.3,0.1,0.7-0.1,0.8-0.5c0-0.1,0-0.2,0-0.3
	c0-0.4,0-0.7,0-1.1V5.1c0-0.4,0-0.7,0-1.1c0-0.6-0.3-0.7-0.8-0.7c-0.4,0-0.8,0-1.2,0h-1.3c-0.2,0-0.4-0.1-0.4-0.3V2.9l0,0
	c0-0.2,0.1-0.4,0.3-0.4h0.1h3.1c0.6,0,1.3,0,1.9,0c0.4,0,0.4-0.2,0.4-0.6s0-0.6-0.4-0.6c-0.6,0-1.3,0-1.9,0h-3
	c-0.2,0-0.4-0.1-0.4-0.3l0,0c0-0.1,0.1-0.2,0.2-0.3c0.1-0.1,0.2-0.2,0.2-0.3c0-0.2-0.3-0.2-0.4-0.2c-0.3,0-1.3-0.1-1.6-0.1
	c-0.2,0-0.3,0-0.3,0.2c0,0.1,0.1,0.4,0.1,0.5c0.1,0.2-0.1,0.4-0.3,0.5c-0.1,0-0.1,0-0.2,0h-3.1c-0.6,0-1.3,0-1.9,0
	c-0.4,0-0.4,0.2-0.4,0.6c0,0.5,0,0.7,0.4,0.7c0.6,0,1.3,0,1.9,0h3.1c0.2,0,0.4,0.1,0.4,0.3C141.9,2.8,141.9,2.9,141.9,3L141.9,3
	L141.9,3z M164.2,7.3c0.2,0,0.3,0.1,0.3,0.3l0,0v0.1c0,0.2-0.1,0.3-0.3,0.3l0,0h-5.6c-0.2,0-0.3-0.1-0.3-0.3l0,0l0,0
	c0-0.2,0.1-0.3,0.3-0.3L164.2,7.3L164.2,7.3z M164.2,5.6c0.2,0,0.3,0.1,0.3,0.3l0,0V6c0,0.2-0.1,0.3-0.3,0.3l0,0h-5.6
	c-0.2,0-0.3-0.1-0.3-0.3l0,0V5.9c0-0.2,0.1-0.3,0.3-0.3H164.2z M164.5,4.3c0,0.2-0.1,0.3-0.3,0.3l0,0h-5.6c-0.2,0-0.3-0.1-0.3-0.3
	l0,0V4.2c0-0.2,0.1-0.3,0.3-0.3l0,0h5.6c0.2,0,0.3,0.1,0.3,0.3C164.5,4.1,164.5,4.2,164.5,4.3L164.5,4.3z M162.2,11.1
	c0.3,0,0.5,0,0.5,0.1c-0.3,0.3-0.7,0.6-1.1,0.7c-0.1,0.1-0.2,0.1-0.4,0.1c-0.1,0-0.3,0-0.4-0.1c-0.3-0.2-0.6-0.4-0.8-0.5l-0.1-0.1
	c0-0.1,0.1-0.2,0.2-0.2l0,0H162.2z M161.7,14c2.1,0.8,4.2,1.3,6.5,1.4c0.5,0,0.9-0.5,0.9-1v-0.1c0-0.5-0.2-0.5-0.5-0.5
	c-1.7,0-3.3-0.2-4.9-0.6c-0.1,0-0.1-0.1-0.2-0.2c0-0.1,0.1-0.1,0.1-0.2c0.5-0.3,1.1-0.7,1.5-1.1c0.2-0.1,0.4-0.3,0.4-0.6
	c0-0.6-0.5-1.1-1.1-1.1c-0.5,0-1,0-1.5,0h-2.1c-0.1,0-0.2,0-0.2-0.1s0-0.1,0.1-0.2c0.1-0.1,0.2-0.2,0.3-0.3c0.2-0.2,0.6-0.3,0.9-0.3
	h2.1c0.4,0,0.9,0,1.4,0s0.9-0.1,0.9-0.7c0-0.4,0-0.7,0-1.1V4.6c0-0.4,0-0.7,0-1.1c0-0.6-0.4-0.7-0.9-0.7s-0.9,0-1.4,0h-2.1
	c-0.1,0-0.3-0.1-0.3-0.2c0,0,0,0,0-0.1s0-0.1,0-0.2c0-0.1,0-0.1,0.1-0.2c0.1-0.2,0.3-0.4,0.5-0.3h4.3c0.7,0,1.3,0,2,0
	c0.4,0,0.4-0.2,0.4-0.7s0-0.7-0.4-0.7c-0.7,0-1.3,0-2,0h-10.2c-0.7,0-1.3,0-2,0c-0.4,0-0.4,0.2-0.4,0.7s0,0.7,0.4,0.7
	c0.7,0,1.4,0,2,0h3.2c0.1,0,0.3,0.1,0.3,0.2l0,0c0,0.1,0,0.1,0,0.2l-0.1,0.2c-0.1,0.2-0.3,0.4-0.6,0.3h-0.3c-0.5,0-0.9,0-1.4,0
	s-0.9,0.1-0.9,0.7c0,0.3,0,0.7,0,1v2.8c0,0.3,0,0.7,0,1c0,0.6,0.4,0.7,1,0.7c0.4,0,0.8,0,1.2,0c0.1,0,0.1,0.1,0.2,0.1
	c0,0.1,0,0.1-0.1,0.1c-1.2,0.8-2.5,1.4-3.8,1.8c-0.5,0.1-0.7,0.2-0.7,0.4c0,0.4,0.3,0.8,0.7,1c0.9-0.2,1.8-0.5,2.6-0.9
	c0.1,0,0.2-0.1,0.3-0.1c0.2,0,0.3,0.1,0.4,0.2c0.3,0.3,0.6,0.5,0.9,0.8c0.1,0.1,0.1,0.1,0.1,0.2c0,0.1-0.1,0.2-0.2,0.2
	c-1.4,0.4-2.9,0.6-4.3,0.7c-0.5,0-0.9,0-0.9,0.4c0,0.3,0.1,0.5,0.2,0.7c0,0.3,0.3,0.5,0.5,0.5s0.7-0.1,0.9-0.1
	c1.8-0.2,3.6-0.6,5.4-1.3c0.1,0,0.2-0.1,0.4-0.1C161.4,13.9,161.5,13.9,161.7,14z M179,10.2c-0.5,0.4-0.8,0.9-0.9,1.4
	c0,0.3,1.1,1.7,3.9,1.7c1.4,0,2.7-0.2,4-0.5c0.2-0.2,0.3-0.4,0.2-0.6c0-0.9,0-1.3-0.3-1.3c-0.1,0-0.2,0-0.4,0.1
	c-1.2,0.4-2.5,0.5-3.7,0.5c-1,0.1-2-0.4-2.6-1.2C179.2,10.3,179.1,10.2,179,10.2L179,10.2z M179.4,2.9c-0.3,0-0.4,0.3-0.4,1.1
	c0,0.2,0,0.5,0.2,0.7c1,0.2,2,0.4,3,0.3c1,0,1.9-0.1,2.9-0.2c0.3-0.1,0.3-0.2,0.3-0.6c0-0.3,0-0.6-0.1-0.9c0-0.2-0.1-0.4-0.3-0.4
	c-0.1,0-0.2,0-0.3,0.1c-0.8,0.2-1.7,0.3-2.6,0.3c-0.7,0-1.5-0.1-2.2-0.3C179.7,2.9,179.5,2.9,179.4,2.9L179.4,2.9z M175.3,1.5
	c-0.2,0-0.3,0.2-0.3,0.4c-0.1,0.3-0.1,0.6-0.2,0.8c-0.6,1.8-0.8,3.7-0.9,5.6c-0.1,1.8,0.3,3.6,1,5.2c0.1,0.4,0.4,0.7,0.7,0.8
	c0.6,0,1.1-0.3,1.3-0.8c0-0.1,0-0.2,0-0.3c0-0.2-0.1-0.5-0.1-0.7c0.1-0.8,0.4-1.7,0.7-2.5c-0.1-0.3-0.3-0.5-0.6-0.5
	c-0.2,0.1-0.3,0.2-0.4,0.4c-0.1,0.3-0.2,0.5-0.5,0.7c-0.4,0-0.5-2.1-0.5-2.4c0-1.7,0.3-3.3,1-4.8c0.1-0.3,0.3-0.6,0.5-0.7
	c0.2-0.1,0.2-0.1,0.2-0.2c0-0.2-0.2-0.3-0.3-0.3C176.9,2.1,175.4,1.5,175.3,1.5L175.3,1.5z M197,0.6c-0.3-0.1-0.6-0.2-0.8-0.3
	c-0.2,0-0.2,0.2-0.3,0.3c-0.1,0.5-0.5,1.7-0.7,2.3c0,0.2-0.2,0.4-0.4,0.4c-0.1,0-0.2,0-0.2-0.1c-0.4-0.2-0.8-0.4-1.2-0.6
	c-0.1-0.1-0.2-0.2-0.4-0.2c-0.4,0-0.6,1.2-0.6,1.5s0.3,0.5,1.5,0.9c0.3,0,0.5,0.3,0.5,0.6c0,0.1,0,0.3-0.1,0.4
	c-0.1,0.3-0.1,0.5-0.2,0.7c-0.1,0.5-0.2,0.7-0.4,0.7c-0.4-0.1-0.8-0.2-1.1-0.5c-0.1-0.1-0.3-0.1-0.4-0.2c-0.4,0-0.6,1.3-0.6,1.4
	c0,0.2,0.1,0.4,0.3,0.4c0.3,0.2,0.7,0.3,1,0.4c0.3,0,0.6,0.3,0.7,0.6c0,0.2-0.1,0.8-0.1,1.2c-0.2,2,1.3,3.9,3.3,4.1
	c0.2,0,0.5,0,0.7,0c2.3,0,4.7-0.9,4.7-3.6c0-1-0.2-2-0.6-3c-0.1-0.4-0.2-0.6-0.5-0.6c-0.2,0-1.4,0.2-1.4,0.6c0,0.1,0,0.2,0.1,0.3
	c0.3,0.8,0.5,1.6,0.6,2.5c0,0.4-0.1,0.9-0.4,1.2c-0.7,0.6-1.6,0.8-2.5,0.8c-1.1,0.1-2.1-0.6-2.3-1.8c0-0.2,0-0.3,0-0.5
	c0-0.7,0-1.2,0.5-1.2c0.1,0,0.2,0,0.3,0c0.4,0.1,1.2,0.2,1.6,0.2c0.2,0,0.4-0.2,0.5-0.4c0.1-0.4,0.2-0.8,0.2-1.1
	c0-0.2-0.1-0.3-0.5-0.3c-0.5,0-1,0-1.5-0.1c-0.2,0-0.6,0-0.6-0.4c0-0.1,0.2-1.2,0.3-1.4c0-0.2,0.2-0.4,0.5-0.4c0.1,0,0.1,0,0.2,0
	c0.8,0.1,1.5,0.2,2.3,0.3c0.2,0,0.4-0.2,0.4-0.4c0.1-0.4,0.2-0.7,0.2-1.1c0-0.3-0.3-0.3-0.6-0.3c-0.6,0-1.2-0.1-1.7-0.1
	c-0.2,0-0.4-0.1-0.5-0.4l0,0c0-0.1,0-0.2,0.1-0.2c0.1-0.4,0.3-0.8,0.4-1.2c0.1-0.3,0.3-0.6,0.6-0.7c0.1,0,0.1-0.1,0.2-0.2
	C197.8,0.9,197.4,0.7,197,0.6L197,0.6z M212.8,1.5c-0.2,0.1-0.4,0.2-0.4,0.4c-0.3,0.5-0.7,1-1.3,1.2c-0.9,0.3-1.7,0.5-2.7,0.5
	c-0.4,0-0.5,0.1-0.5,0.3c0.1,0.5,0.2,0.9,0.4,1.4c0,0.2,0.2,0.3,0.4,0.4c0.3-0.1,0.5-0.2,0.8-0.3c0.2-0.1,0.4-0.2,0.6-0.2
	c0.1,0,0.1,0,0.1,0.1s0,0.1-0.1,0.2c-0.9,1.4-1.5,3.1-1.5,4.8c-0.2,2.1,1.5,4,3.6,4.2c0.2,0,0.3,0,0.5,0c1.9,0,3.7-1.1,4.6-2.8
	c0.5-1.2,0.8-2.6,0.8-3.9c0-0.3,0-0.5,0-0.8c0-0.1,0-0.2,0.1-0.2c0.2,0.2,0.3,0.4,0.4,0.7c0.1,0.4,0.4,0.7,0.7,0.9
	c0.6-0.1,1.1-0.4,1.4-0.9c0-0.2-0.2-0.4-0.3-0.5c-1.2-1.4-2.1-3.1-2.5-4.9c-0.1-0.3-0.1-0.6-0.5-0.6c-0.3,0-1.6,0.2-1.6,0.6
	c0,0.1,0,0.2,0.1,0.2c0.5,1.4,0.8,2.8,0.7,4.3c0,1.5-0.2,3.6-1.1,4.8c-0.7,0.9-1.7,1.4-2.9,1.4c-1.6,0-2.3-1.1-2.3-2.6
	c0-1.4,0.5-2.8,1.2-4c0.6-1,1.3-2,2.2-2.8c0.2-0.1,0.4-0.3,0.5-0.6C214,2.1,213.5,1.7,212.8,1.5L212.8,1.5z M230.9,12.4
	c0,0.3-0.2,0.5-0.4,0.6l0,0c-0.6,0.1-1.2-0.3-1.3-0.9c0-0.4,0.3-0.7,0.7-0.7l0,0C230.4,11.4,230.9,11.8,230.9,12.4L230.9,12.4z
	 M232.5,1.4c-0.2,0-0.4,0.1-0.6,0.2c-1.4,0.4-2.8,0.6-4.3,0.6h-0.4c-0.5,0-0.5,0-0.5,0.4c0,0.3,0,1.6,0.4,1.6c0.3,0,2.7-0.5,3.1-0.6
	c0.1,0,0.3-0.1,0.4-0.1c0.1,0,0.3,0.1,0.3,0.2l0,0c-0.1,0.2-0.2,0.4-0.4,0.6c-1.7,1.9-3.4,3.7-5.3,5.3c-0.2,0.1-0.3,0.3-0.4,0.5
	c0.2,0.6,0.7,1,1.2,1.2c0.1,0,0.1-0.1,0.2-0.1c0.6-0.7,1.2-1.4,1.9-2c1-1.1,2.4-1.7,3.8-1.7c1.5,0,2.9,0.7,2.9,2.3
	c0,1.2-0.9,2.3-2.1,2.6c-0.1,0-0.2-0.1-0.2-0.2c0-0.4-0.1-0.8-0.3-1.1c-0.5-0.7-1.4-1.2-2.3-1.2c-1.2,0-2.1,0.9-2.2,2.1
	c0,1.7,2,2.3,3.4,2.3c2.7,0,5.4-1.6,5.4-4.6c0-1.4-0.7-2.7-2-3.3C233.8,6.2,233,6,232.3,6c-0.2,0-0.5,0-0.7,0.1c-0.1,0-0.1,0-0.2,0
	c-0.1,0-0.3-0.1-0.3-0.2l0,0c0-0.1,0.1-0.2,0.2-0.3c0.7-0.8,1.6-1.6,2.5-2.3c0.2-0.1,0.3-0.2,0.4-0.4C233.8,2.2,233.2,1.6,232.5,1.4
	L232.5,1.4z M246.2,11.5c0.4,0,0.8,0,0.8,0.3c0,0.9-0.7,1.1-1.4,1.1c-0.4,0-1.2-0.1-1.2-0.7C244.3,11.6,245.7,11.5,246.2,11.5
	L246.2,11.5z M246.8,0.8c-0.2,0-0.3,0-0.3,0.2c0,0.1,0,0.2,0,0.3c0.1,0.3,0.2,1.4,0.2,1.7c0,0.5-0.4,0.4-1.9,0.4
	c-0.8,0-2.3-0.1-2.6-0.1s-0.3,0.2-0.3,0.5c0,0.4,0,0.8,0.2,1.2c0.3,0.1,0.6,0.2,1,0.2h0.5c0.9,0,2.3-0.1,2.9-0.1
	c0.4,0,0.5,0.7,0.5,1.2c0,0.4-0.2,0.4-0.9,0.4h-0.8c-0.6,0-1.6-0.1-1.8-0.1s-0.3,0.1-0.3,0.3V7c0,0.4,0.1,0.8,0.2,1.2
	c0.1,0.3,0.5,0.3,1.2,0.3s1.7-0.1,2-0.1c0.4,0,0.4,0.6,0.4,1.2c0,0.2,0,0.5-0.3,0.5c-0.1,0-0.5,0-0.7,0c-1.4,0-3.3,0.5-3.3,2.3
	c0,1.6,1.5,2.2,2.8,2.2c1.4,0,2.7-0.4,3.1-1.9c0-0.2,0.1-0.4,0.3-0.4c0.6,0.2,1.2,0.6,1.8,1c0.1,0.1,0.3,0.2,0.5,0.3
	c0.5-0.2,0.9-0.7,1-1.2c0-0.6-2.2-1.6-2.8-1.8c-0.7-0.2-0.8-0.1-0.8-1.9c0-0.5,0.3-0.5,1-0.5c0.6-0.1,1.2-0.2,1.8-0.3
	c0.3-0.1,0.3-0.2,0.3-0.8s-0.1-1-0.3-1c-0.1,0-0.2,0-0.3,0.1c-0.7,0.2-1.4,0.3-2.2,0.4c-0.1,0-0.3-0.1-0.3-0.3
	c-0.1-0.3-0.1-0.6-0.1-0.9c0-0.5,0.4-0.5,0.8-0.5c0.9-0.1,2-0.3,2.8-0.4c0.3-0.1,0.5-0.1,0.5-0.4s-0.1-1.4-0.4-1.4
	c-0.2,0-0.4,0.1-0.6,0.1c-0.6,0.2-1.2,0.3-1.9,0.4c-0.1,0-0.8,0.1-0.8,0.1c-0.2,0-0.4-0.2-0.4-0.4V2.8c0-0.5,0.1-1,0.3-1.4
	c0-0.2-0.2-0.2-0.7-0.3C247.8,1,247,0.8,246.8,0.8z M264.7,11.8c0.8,0,0.9,0.2,0.9,0.5c0.1,0.4-0.2,0.8-0.7,0.9c-0.1,0-0.2,0-0.2,0
	c-0.5,0.1-1-0.3-1.1-0.8C263.6,11.9,264.3,11.8,264.7,11.8L264.7,11.8z M265.5,5.8c-0.2,0-0.4,0.1-0.4,0.3v0.1c0,0.1,0,0.2,0,0.2
	c0.1,0.7,0.3,3.1,0.3,3.7c0,0.2-0.1,0.3-0.3,0.3c0,0,0,0-0.1,0h-0.4c-1.3,0-2.8,0.5-2.8,2.1s1.6,2.3,3,2.3c1.1,0.2,2.2-0.6,2.4-1.7
	c0-0.2,0.1-0.3,0.3-0.4c0.5,0.2,1,0.4,1.4,0.8c0.1,0.1,0.3,0.2,0.4,0.2c0.5-0.2,0.9-0.7,1.1-1.2c0-0.4-2-1.3-2.4-1.5
	c-0.1,0-0.1-0.1-0.2-0.1c-0.2,0-0.4-0.2-0.5-0.4c-0.1-0.4-0.2-2.8-0.2-3.3c0-0.4,0-0.9,0-0.9c0-0.2-0.2-0.3-0.3-0.4
	C266.3,5.9,265.9,5.8,265.5,5.8z M268.1,3.2c-0.5,0.2-0.9,0.6-1.1,1.2c0,0.1,0.1,0.2,0.2,0.3c0.8,0.6,1.5,1.4,2.1,2.2
	c0.1,0.2,0.2,0.3,0.4,0.3c0.6-0.2,1-0.6,1.3-1.2C270.3,4.8,269.3,3.9,268.1,3.2L268.1,3.2z M262.4,0.4c-0.2,0-0.2,0.2-0.2,0.3
	c0,1-0.2,1.9-0.5,2.9c-0.1,0.2-0.3,0.3-0.5,0.3C260.6,4,260,4,259.4,4h-0.8c-0.1,0-0.3,0-0.3,0.2v0.1c0,0.2,0.1,0.8,0.1,1
	c0.1,0.4,0.1,0.5,0.4,0.5c0.4,0,1.7-0.2,1.8-0.2c0.1,0,0.2,0.1,0.2,0.2l0,0c-0.1,0.4-0.2,0.7-0.4,1c-0.6,1.4-1.3,2.7-2,3.9
	c-0.1,0.2-0.2,0.4-0.3,0.6c0,0.4,1.1,0.8,1.5,0.8c0.2,0,0.3-0.1,0.3-0.2c1.1-1.9,2-4,2.8-6.1c0.2-0.6,0.2-0.7,0.8-0.8
	c1.6-0.3,1.8-0.3,1.8-0.7c0-0.3,0-0.6-0.1-0.9c0-0.2-0.1-0.5-0.3-0.5c-0.1,0-0.1,0-0.2,0c-0.3,0.1-0.6,0.2-1,0.3
	c-0.1,0-0.2-0.1-0.2-0.2l0,0c0-0.3,0.1-0.5,0.2-0.8s0.2-0.6,0.3-0.9c0.1-0.1,0.2-0.2,0.3-0.3c0-0.1-0.2-0.2-0.3-0.2
	C264,0.8,262.6,0.4,262.4,0.4L262.4,0.4z M284.2,4.3c0,0.1,0.1,0.2,0.2,0.3c1.5,1.2,2.4,2.9,2.5,4.8c0,0.4,0,0.6,0.6,0.6
	c0.3,0,0.6-0.1,1-0.2c0.3,0,0.5-0.2,0.5-0.5l0,0c-0.1-1.2-0.4-2.4-1-3.5c-0.5-1.2-1.5-2.1-2.6-2.6C284.7,3.4,284.3,3.8,284.2,4.3
	L284.2,4.3z M276.5,3.2c-0.1,0-0.2,0.1-0.2,0.2l0,0c0,0.2-0.1,2.3-0.1,2.6c-0.1,1.9,0.2,3.8,1,5.5c0.6,1,1.5,2.2,2.8,2.2
	c0.7-0.1,1.4-0.5,1.8-1.1c0.4-0.4,0.8-0.9,1-1.5c-0.2-0.5-0.7-0.9-1.2-1c-0.2,0.1-0.4,0.2-0.5,0.4c-0.2,0.5-0.6,0.9-1.2,1.1
	c-0.6,0-1.2-1-1.4-1.5c-0.4-1.1-0.6-2.3-0.5-3.6c0-0.6,0-1.2,0.1-1.8c0-0.3,0.1-0.6,0.3-0.8c0.1,0,0.2-0.1,0.2-0.2
	c-0.1-0.2-0.2-0.2-0.4-0.2C278,3.5,276.7,3.2,276.5,3.2L276.5,3.2z M303.9,8.4c0-0.3,0.2-0.5,0.5-0.5h0.8c0.3,0,0.5,0.2,0.5,0.5v0.8
	c0,0.3-0.2,0.5-0.5,0.5h-0.8c-0.3,0-0.5-0.2-0.5-0.5V8.4z M301.8,7.9c0.3,0,0.5,0.2,0.5,0.5v0.8c0,0.3-0.2,0.5-0.5,0.5h-0.7
	c-0.3,0-0.5-0.2-0.5-0.5V8.4c0-0.3,0.2-0.5,0.5-0.5C301.1,7.9,301.8,7.9,301.8,7.9z M305.6,4.6c0.3,0,0.5,0.1,0.6,0.4
	c0.2,0.5,0.3,0.7,0.6,0.7c0.5,0,0.9-0.3,1.1-0.7c-0.3-0.7-0.6-1.4-1-2c-0.2-0.3-0.7-1.2-0.9-1.5c-0.1-0.1-0.2-0.2-0.4-0.2
	c-0.5,0-0.9,0.2-1.2,0.6c0.1,0.3,0.3,0.5,0.4,0.7c0.1,0.1,0.2,0.2,0.2,0.4c0,0.1-0.1,0.2-0.3,0.2c-0.8,0.1-1.7,0.1-2.5,0.2
	c-0.1,0-0.3-0.1-0.3-0.2c0-0.1,0-0.1,0.1-0.2c0.3-0.6,0.7-1.2,0.9-1.9c0.1-0.1,0.2-0.2,0.3-0.2c0.1,0,0.3-0.1,0.3-0.2
	c-0.1-0.2-0.3-0.3-0.6-0.4c-0.4-0.1-0.9-0.3-1.3-0.4c-0.1,0.1-0.2,0.2-0.2,0.3c-0.3,0.9-0.6,1.8-1.1,2.7c-0.1,0.3-0.4,0.4-0.6,0.4
	h-0.5c-0.7,0-0.8,0-0.8,0.2c0,0.1,0.3,1.3,0.3,1.5c0,0.1,0.1,0.2,0.2,0.3c0.1,0,0.2-0.1,0.2-0.2s0.1-0.1,0.2-0.2
	c0.8-0.1,1.5-0.1,2.3-0.2c0.2,0,0.4,0.1,0.5,0.4c0,0,0,0,0,0.1c0,0.3,0,0.4,0,0.7c0,0.2-0.1,0.4-0.4,0.5h-0.1h-0.5
	c-0.5,0-0.9,0-1.2,0c-0.8,0-1,0.1-1,0.6c0,0.3,0,0.6,0,0.9v2.2c0,0.3,0,0.7,0,1c0,0.5,0.2,0.4,0.8,0.4c0.7,0,0.8,0,0.8-0.3
	c0-0.2,0.1-0.2,0.6-0.2h0.5c0.2,0,0.4,0.1,0.5,0.3v0.1v1.1c0,0.2-0.1,0.5-0.4,0.5h-0.1c-0.9,0.1-1.9,0.1-2.8,0.2
	c-0.6,0-0.9,0.1-0.9,0.2c0,0.3,0.1,0.6,0.2,0.9c0.1,0.7,0.2,0.9,0.4,0.9c0.1,0,0.2-0.1,0.2-0.2c0-0.1,0.1-0.2,0.2-0.2
	c2.2-0.2,4.4-0.4,6.6-0.7h0.1c0.2,0,0.4,0.1,0.5,0.4c0.2,0.5,0.3,0.8,0.6,0.8c0.2,0,1.2-0.3,1.2-0.6c-0.2-0.5-0.4-1.1-0.8-1.6
	c-0.2-0.4-0.5-0.9-0.8-1.3c-0.1-0.1-0.2-0.2-0.4-0.2c-0.5,0-0.9,0.2-1.2,0.5c0,0.1,0.1,0.3,0.2,0.4v0.1c0,0.1-0.1,0.2-0.2,0.2
	l-0.7,0.1c-0.2,0-0.4-0.1-0.5-0.3c0-0.1,0-0.1,0-0.2v-0.9c0-0.2,0.1-0.4,0.3-0.5h0.1h0.7c0.4,0,0.9,0,1.4,0s0.8-0.1,0.8-0.6
	c0-0.3,0-0.6,0-0.9V7.9c0-0.3,0-0.6,0-0.9c0-0.5-0.3-0.6-1-0.6c-0.3,0-0.7,0-1.2,0h-0.7c-0.2,0-0.4-0.1-0.5-0.3c0-0.1,0-0.1,0-0.2
	c0-0.5,0-0.6,0.2-0.7c0.1,0,0.2-0.1,0.2-0.3c0-0.2-0.3-0.2-0.4-0.2l0,0c0.1,0,0.1,0,0.2,0L305.6,4.6z M294.8,7.5
	c0-0.3,0.1-0.5,0.1-0.7c0.1-1.1,0.1-1.1,0.6-1.1h0.6c0.2,0,0.3,0.1,0.4,0.3c0.2,0.1,0.4,0.1,0.6,0.1h0.2c0.6,0,0.8,0,0.8-0.4
	c0-0.5,0-0.9,0-1.4V2.6c0-0.5,0-0.9,0-1.4s-0.4-0.6-0.8-0.6c-0.3,0-0.7,0-1,0h-1.6c-0.4,0-0.8,0-1,0c-0.4,0-0.4,0.2-0.4,0.8
	s0,0.8,0.4,0.8c0.3,0,0.7,0,1,0h1.3c0.2,0,0.4,0.1,0.5,0.3v0.1v1c0,0.2-0.1,0.4-0.3,0.5c-0.1,0-0.1,0-0.2,0h-0.6c-0.3,0-0.7,0-1,0
	c-0.4-0.1-0.7,0.1-0.9,0.4c0,0.1-0.3,3.3-0.4,3.7c0,0.2-0.1,1.1-0.1,1.2c0,0.4,0.7,0.4,1,0.4c0.2,0.1,0.4,0,0.5-0.1
	c0.1-0.2,0.2-0.3,0.4-0.3h0.6c0.5,0,0.7,0,0.7,0.4c0,1-0.1,1.9-0.4,2.9c0,0.4-0.4,0.8-0.9,0.7h-0.1c-0.3,0-0.7-0.1-0.9-0.1
	c-0.3,0-0.3,0.3-0.3,0.5c0,1.4,0.6,1.3,1.1,1.3c1.4,0,2.2-0.3,2.7-1.7c0.4-1.5,0.6-3.1,0.6-4.7c0-0.6-0.1-1-0.8-1c-0.3,0-0.7,0-1,0
	h-0.9c-0.2,0-0.4-0.1-0.4-0.3C294.8,7.6,294.8,7.5,294.8,7.5L294.8,7.5z M317.2,0.7c-0.2,0-1.7,0.4-1.7,0.7c0,0.1,0.1,0.2,0.1,0.3
	c0.5,0.6,0.9,1.3,1.3,2.1c0,0.2-0.2,0.3-0.4,0.3c-1.1,0.2-2.3,0.4-3.4,0.4c-0.2,0-0.4,0-0.4,0.3s0.1,0.6,0.2,0.9
	c0.2,0.5,0.2,0.6,0.6,0.6c1.4-0.1,2.7-0.3,4-0.6c0.1,0,0.1,0,0.2-0.1c0.3,0.1,0.6,0.3,0.6,0.6c0.3,0.6,0.6,1.1,1,1.6
	c0,0.1,0.1,0.2,0.1,0.3s-0.1,0.2-0.2,0.2s-0.1,0-0.2-0.1c-0.7-0.3-1.4-0.5-2.1-0.5c-1.8-0.1-3.4,1.2-3.6,3.1c0,0.1,0,0.1,0,0.2
	c0,2,1.6,3,3.4,3.5c1,0.2,1.9,0.4,2.9,0.4c0.2,0.1,0.5-0.1,0.6-0.3c0.1-0.3,0.2-0.7,0.2-1s-0.1-0.5-0.4-0.5c-0.2,0-0.6,0-0.9,0
	c-1.3,0-3.9-0.4-3.9-2.1c0.1-0.9,0.9-1.6,1.8-1.5l0,0c1.4,0.1,2.8,0.6,4,1.4c0.2,0.2,0.4,0.3,0.7,0.4c0.6-0.2,1-0.6,1.2-1.1
	c0-0.2-0.1-0.4-0.3-0.5c-1-1.1-1.8-2.4-2.5-3.7c-0.2-0.2-0.3-0.4-0.3-0.6c0.1-0.3,0.3-0.4,0.6-0.5c0.5-0.2,1.1-0.5,1.6-0.7
	c0.2-0.1,0.4-0.2,0.5-0.4c-0.2-0.6-0.6-1-1.1-1.3c-0.2,0-0.3,0.1-0.5,0.2c-0.6,0.4-1.2,0.7-1.8,0.9c-0.2,0-0.4-0.1-0.5-0.3
	c-0.3-0.7-0.7-1.3-1.1-2C317.6,0.8,317.4,0.7,317.2,0.7L317.2,0.7z M330.5,10.9c0.8,0,1.5,0.6,1.5,1.5l0,0c0,0.8-0.7,1.5-1.5,1.5
	s-1.5-0.7-1.5-1.5C329,11.6,329.7,10.9,330.5,10.9L330.5,10.9L330.5,10.9z M330.5,10.1c-1.3,0-2.4,1.1-2.4,2.4s1.1,2.4,2.4,2.4
	s2.4-1.1,2.4-2.4l0,0C332.9,11.1,331.8,10.1,330.5,10.1L330.5,10.1L330.5,10.1z M9.2,38.9c-0.1,0-0.3,0.1-0.4,0.2
	c-1.5,0.4-3.1,0.7-4.7,0.9c-0.3,0-0.5,0.1-0.5,0.4S3.8,42,4.2,42c0.1,0,0.3,0,0.4-0.1c0.3-0.1,2-0.5,2.2-0.5c0.1,0,0.1,0,0.2,0.1
	l0,0c0,0.1-0.1,0.2-0.1,0.2c-1.3,1.2-3.1,2.9-4.5,4c-0.3,0.3-0.7,0.4-1.1,0.5c-0.6,0.1-0.8,0.2-0.8,0.4c0,0.3,0.3,1.5,0.7,1.5
	c0.2,0,0.3-0.1,0.5-0.1c0.7-0.3,2.3-0.8,3-1c0.2-0.1,1.1-0.3,1.2-0.3C6,46.5,6,46.6,6,46.7c0,0.1,0,0.1-0.1,0.2
	c-0.9,0.6-1.4,1.6-1.5,2.7c0.1,1.4,1,2.5,2.4,2.9C7.5,52.8,8.3,53,9.1,53c0.2,0,0.4-0.1,0.5-0.3c0.1-0.4,0.2-0.8,0.3-1.2
	C9.9,51,9.8,51,9.6,51c-1.1-0.1-3.3-0.3-3.3-1.8c0-1.2,1.3-2.3,2.3-2.9c1.1-0.6,2.3-1,3.5-1.2c0.5-0.1,0.7-0.1,0.7-0.4
	c0-0.2-0.1-1.2-0.2-1.3c0-0.1-0.1-0.2-0.2-0.3c-0.1,0-0.1,0-0.2,0C11.6,43.5,5.9,45,5.7,45c-0.1,0-0.1,0-0.2-0.1l0,0
	c0-0.1,0.1-0.2,0.2-0.3c0.8-0.6,3.5-3,4.1-3.4c0.3-0.1,0.6-0.3,0.7-0.6C10.5,40.3,9.7,38.9,9.2,38.9z M20,39.4
	c-0.2,0-0.3,0.2-0.3,0.4V40c0,0.7-0.2,2.3-0.2,3.1c-0.1,1.3-0.2,2.7-0.2,4c-0.1,1.4,0.2,2.7,0.8,3.9c0.7,0.9,1.8,1.3,3,1.3
	c2.2,0,4.2-1.3,5.2-3.2c0.3-0.6,0.6-1.3,0.7-2c-0.2-0.7-0.7-1.2-1.4-1.4c-0.3,0-0.3,0.3-0.3,0.6c-0.1,0.9-0.5,1.8-1,2.5
	c-0.8,1-1.9,1.6-3.2,1.6c-1.8,0-1.8-2.1-1.8-3.4c0-1,0.2-6.4,0.7-6.8c0.1,0,0.2-0.1,0.2-0.3c0-0.1-0.2-0.2-0.3-0.2
	C21.3,39.6,20.7,39.5,20,39.4L20,39.4z M33,41.6c0,0.2,0.2,1.8,0.6,1.8c0.1,0,0.2,0,0.3,0c1.2-0.3,2.5-0.5,3.8-0.7
	c0.2,0,1-0.2,1.1-0.2s0.2,0.1,0.3,0.2c-0.1,0.2-0.2,0.3-0.3,0.4c-1.2,1.4-1.8,3.1-1.9,4.9c0,3.3,2.5,4.2,5.4,4.2
	c0.2,0,0.4,0,0.5-0.2c0.2-0.5,0.3-1,0.3-1.5c0-0.3-0.1-0.3-0.4-0.3c-0.2,0-0.5,0-0.8,0c-1.7,0-3-0.5-3-2.4c0-1,0.3-2.1,0.8-3
	c0.6-1.2,1.6-2.1,2.9-2.5c0.9-0.3,1.9-0.4,2.8-0.4c0.4,0,0.7,0,0.7-0.4S46,40.7,46,40.3c-0.1-0.2-0.1-0.4-0.3-0.4
	c-0.1,0-0.1,0-0.2,0c-1.3,0.2-2.6,0.4-3.9,0.5c-2.5,0.3-5,0.5-7.4,0.7C33.2,41.2,33,41.2,33,41.6L33,41.6z M49.9,49.8
	c0,0.2,0.2,0.3,0.3,0.3c1,0.6,1.9,1.4,2.6,2.3c0.1,0.1,0.2,0.2,0.3,0.3c0.6-0.2,1-0.7,1.2-1.3c0-0.4-2.9-2.8-3.3-2.8
	C50.6,48.8,50.2,49.3,49.9,49.8L49.9,49.8z M72.4,44c-0.2-0.4-0.5-0.7-0.8-0.9c-0.4-0.4-0.8-0.7-1.2-1c-0.4,0.1-0.8,0.4-0.9,0.9
	c0,0.1,0.1,0.2,0.2,0.3c0.5,0.5,1,1,1.5,1.5c0.1,0.1,0.2,0.2,0.3,0.2C71.9,44.8,72.3,44.4,72.4,44L72.4,44z M72.6,40.2
	c-0.3-0.4-0.6-0.8-1-1.1c-0.3-0.3-0.7-0.6-1.1-0.9c-0.4,0.2-0.7,0.5-0.9,0.9c0,0.1,0.1,0.2,0.2,0.3c0.5,0.5,1.1,0.9,1.6,1.4
	c0.1,0.1,0.2,0.2,0.4,0.3C72.1,41,72.4,40.6,72.6,40.2L72.6,40.2z M71.4,51.7c0.4,0.6,1,1,1.7,1.1C74,53,75,53,76,53h1.9
	c0.2,0,0.3,0,0.5,0c0.5,0,1,0.1,1-1.2c0-0.3-0.1-0.5-0.4-0.5c-1.1,0-2.2,0.1-3.3,0.1c-0.9,0-1.8,0-2.7-0.3c-0.7-0.3-1.1-1-0.9-1.8
	v-1.2c0-0.5,0-0.9,0-1.4s-0.1-0.8-0.6-0.8c-0.3,0-0.5,0-0.8,0h-0.3c-0.2,0-0.4,0-0.6,0c-0.3,0-0.3,0.3-0.3,0.7s0,0.7,0.3,0.7
	c0.1,0,0.2,0,0.4,0c0.2,0,0.4,0.1,0.4,0.3v0.1v1.6c0.1,0.3-0.1,0.6-0.4,0.7c-0.4,0.3-0.7,0.5-1.1,0.7c-0.1,0.1-0.2,0.1-0.3,0.2
	c-0.2,0-0.3,0.2-0.3,0.3c0.1,0.4,0.3,0.8,0.5,1.1c0.1,0.2,0.2,0.5,0.4,0.6c0.1,0,0.2-0.1,0.2-0.3c0-0.1,0-0.2,0.1-0.3
	c0.4-0.3,0.7-0.6,1.1-1c0.1-0.1,0.1-0.1,0.2-0.1C71.2,51.5,71.4,51.6,71.4,51.7z M67.6,47.7c0.1,0,0.2,0.1,0.3,0.2
	c0.2,0.3,0.5,0.5,0.8,0.7c0.4-0.2,0.8-0.5,0.9-1c-0.1-0.3-0.3-0.5-0.6-0.7c-0.1-0.1-0.3-0.2-0.4-0.3c0,0,0,0,0-0.1s0.1-0.1,0.1-0.1
	c0.3-0.3,0.6-0.6,0.8-0.9c0.2-0.3,0.2-0.3,0.4-0.3l0,0c0.1,0,0.3,0,0.3-0.2c-0.3-0.4-0.7-0.7-1.2-0.8c-0.1,0.1-0.2,0.2-0.3,0.4
	c-0.2,0.3-0.4,0.6-0.6,0.9c-0.1,0.1-0.2,0.2-0.3,0.3c-0.1,0-0.2-0.1-0.2-0.2c-0.1-0.1-0.1-0.1-0.1-0.2c0-0.1,0-0.1,0.1-0.2
	c0.7-1,1.3-2.1,1.8-3.3c-0.1-0.6-0.5-1-1.1-1.1c-0.1,0-0.3,0-0.4,0c-0.2,0-0.4-0.1-0.4-0.4v-0.1v-0.8c-0.1-0.3,0-0.6,0.2-0.8
	c0.1,0,0.2-0.1,0.2-0.3c0-0.1-0.1-0.2-0.3-0.2l0,0c-0.2,0-1.3-0.1-1.5-0.1c-0.1,0-0.3,0-0.3,0.2l0,0v0.1c0,0.5,0.1,1,0.1,1.5v0.3
	c0,0.2-0.1,0.4-0.3,0.5h-0.1c-0.3,0-0.6,0-0.9,0c-0.4,0-0.4,0.2-0.4,0.8s0,0.8,0.4,0.8c0.3,0,0.8,0,1.3,0h1.2c0.2,0,0.4,0,0.4,0.2
	c-0.2,0.4-0.4,0.9-0.7,1.3c-0.7,1.1-1.6,2.1-2.5,2.9c-0.2,0.1-0.3,0.3-0.4,0.4c0.1,0.5,0.4,0.9,0.9,1.1c0.3-0.1,0.6-0.3,0.7-0.5
	c0.1-0.1,0.2-0.2,0.3-0.2c0.1,0,0.2,0.1,0.2,0.2v3.2c0,0.7-0.1,1.3-0.1,2c0,0.5,0.2,0.5,0.8,0.5c0.7,0,0.8,0,0.8-0.5
	c0-0.7,0-1.3,0-2v-3C67.5,47.8,67.5,47.7,67.6,47.7L67.6,47.7z M76.3,42.4c0.2,0,0.4,0.1,0.4,0.4l0,0V43c0,0.2-0.1,0.4-0.4,0.4l0,0
	H75c-0.2,0-0.4-0.2-0.4-0.4l0,0v-0.2c0-0.2,0.2-0.4,0.4-0.4l0,0L76.3,42.4L76.3,42.4z M75,41.1c-0.2,0-0.4-0.2-0.4-0.4l0,0v-0.2
	c0-0.2,0.2-0.4,0.4-0.4l0,0h1.3c0.2,0,0.4,0.1,0.4,0.4l0,0v0.2c0,0.2-0.1,0.4-0.4,0.4l0,0H75L75,41.1z M74.6,45.2
	c0-0.2,0.1-0.4,0.4-0.5h0.1c0.2,0,0.3,0.1,0.4,0.3c0.3,1.4,0.9,2.8,1.7,4c0.3,0.6,0.7,1,1.3,1.4c0.4-0.1,0.8-0.5,1-0.9
	c0-0.1-0.1-0.2-0.2-0.3c-0.5-0.5-0.9-1.1-1.3-1.7c0-0.1-0.1-0.2-0.1-0.3c0-0.2,0.1-0.3,0.2-0.4c0.2-0.2,0.4-0.4,0.7-0.5
	c0.1-0.1,0.1-0.1,0.2-0.1h0.1h0.1c0.1,0,0.2-0.1,0.2-0.1l0,0c-0.2-0.5-0.6-0.9-1-1.2c-0.1,0-0.2,0.1-0.2,0.1
	c-0.2,0.2-0.4,0.5-0.7,0.7c0,0.3-0.1,0.3-0.2,0.3S77,45.9,77,45.8c-0.1-0.2-0.1-0.4-0.2-0.5v-0.1c0-0.2,0.1-0.3,0.3-0.3
	c0,0,0,0,0.1,0h0.3c0.5,0,0.9-0.1,0.9-0.7c0-0.4,0-0.8,0-1.2v-2.1c0-0.4,0-0.8,0-1.3c0-0.6-0.4-0.7-0.9-0.7c-0.4,0-0.8,0-1.2,0h-1.1
	c-0.4,0-0.8,0-1.2,0c-0.5,0-0.9,0.1-0.9,0.7c0,0.4,0,0.8,0,1.3v7.7c0,0.2-0.1,0.3-0.2,0.4l0,0c-0.4,0.1-0.5,0.1-0.5,0.3
	c0,0.1,0,0.2,0.1,0.3c0.1,0.2,0.1,0.3,0.2,0.5c0,0.3,0.2,0.6,0.5,0.8c0.1,0,0.2-0.2,0.2-0.3c0.1-0.1,0.2-0.2,0.3-0.2
	c0.9-0.3,1.7-0.6,2.5-0.9c0.2-0.1,0.3-0.3,0.3-0.5s0-1-0.4-1c-0.3,0.1-0.6,0.2-0.8,0.3h-0.1c-0.2,0-0.3-0.2-0.3-0.3l0,0L74.6,45.2
	L74.6,45.2z M86.2,40.4c-0.1,0-0.2,0.1-0.3,0.2c0,0,0,0,0,0.1s0,0.2,0,0.2c0.1,0.6,0.1,2,0.1,2.6c0,0.5-0.3,0.5-0.7,0.6
	c-0.5,0.1-1.7,0.3-2.2,0.3c-0.3,0-0.5,0-0.5,0.4c0,0.2,0.1,0.6,0.1,0.7c0,0.1,0,0.2,0,0.3c0,0.4,0.1,0.7,0.3,0.7c0.1,0,0.2,0,0.3,0
	c0.3-0.1,2.2-0.5,2.4-0.5c0.2,0,0.4,0.3,0.4,0.5c0,0,0,0,0,0.1c0,1.2,0.1,2.3,0.3,3.5c0.6,2,2.8,2.1,4.5,2.1c1.1,0,2.2-0.1,3.2-0.3
	c0.2-0.4,0.2-0.9,0.2-1.4c0-0.2,0-0.5-0.3-0.5c-0.1,0-0.1,0-0.2,0c-1.1,0.2-2.2,0.3-3.3,0.3c-1.2,0-2.3-0.1-2.6-1.1
	c-0.1-1-0.2-2.1-0.2-3.1c-0.1-0.3,0.2-0.6,0.5-0.7h0.1c0.3-0.1,2.5-0.5,2.7-0.5s0.3,0.1,0.3,0.3l0,0c0,0.4-0.1,0.7-0.2,1
	c-0.1,0.5-0.6,0.8-1.2,0.7c-0.1,0-0.3,0-0.4,0c-0.2,0-0.3,0.2-0.3,0.3l0,0c0,0.4,0.1,0.9,0.3,1.3c0.1,0.1,0.3,0.2,0.4,0.1
	c2.5,0,2.9-1.4,3-3.5c0.1-0.7,0.4-0.6,1.3-0.7c0.6-0.1,1-0.1,1.3-0.1c0.8,0,0.9,0,0.9-0.8c0-0.9,0-1.2-0.3-1.2
	c-0.2,0-1.1,0.1-1.4,0.2c-0.2,0-1.2,0.2-1.4,0.2c-0.2,0-0.4-0.2-0.4-0.4c0,0,0,0,0-0.1c0-0.4,0-0.9,0-1.3c0-0.3,0-0.6,0.1-0.8
	c0.1-0.1,0.1-0.2,0.2-0.3c0-0.2-0.2-0.2-0.3-0.2c-0.3-0.1-1.5-0.3-1.8-0.3c-0.1,0-0.2,0.1-0.2,0.2l0,0c0,0.1,0,0.1,0,0.2
	c0.2,0.9,0.3,1.8,0.3,2.8c0,0.6-0.3,0.6-1.2,0.7c-0.3,0-2,0.3-2.1,0.3c-0.3,0-0.3-0.4-0.3-0.6v-0.5c-0.1-0.5,0-0.9,0.2-1.4
	c0.1-0.1,0.1-0.2,0.2-0.3c0-0.1-0.1-0.2-0.2-0.2C87.5,40.5,86.8,40.4,86.2,40.4L86.2,40.4z M107.1,50.4c0,0.3-0.2,0.5-0.4,0.6l0,0
	c-0.6,0.1-1.2-0.3-1.3-0.9c0-0.4,0.3-0.7,0.7-0.7l0,0C106.6,49.4,107.1,49.8,107.1,50.4L107.1,50.4z M108.7,39.4
	c-0.2,0-0.4,0.1-0.6,0.2c-1.4,0.4-2.8,0.6-4.3,0.6h-0.4c-0.5,0-0.5,0-0.5,0.4c0,0.3,0.1,1.6,0.4,1.6s2.7-0.5,3.1-0.6
	c0.1,0,0.3-0.1,0.4-0.1s0.3,0.1,0.3,0.2l0,0c-0.1,0.2-0.2,0.4-0.4,0.6c-1.7,1.9-3.4,3.7-5.3,5.3c-0.2,0.1-0.3,0.3-0.4,0.5
	c0.2,0.6,0.7,1,1.2,1.2c0.1,0,0.1-0.1,0.2-0.1c0.6-0.7,1.2-1.4,1.9-2c1-1.1,2.4-1.7,3.8-1.7c1.5,0,2.9,0.7,2.9,2.3
	c0,1.2-0.9,2.3-2.1,2.6c-0.1,0-0.2-0.1-0.2-0.2c0-0.4-0.1-0.8-0.3-1.1c-0.5-0.7-1.4-1.2-2.3-1.2c-1.2,0-2.1,0.9-2.2,2.1
	c0,1.7,2,2.3,3.4,2.3c2.7,0,5.4-1.6,5.4-4.6c0-1.4-0.7-2.7-2-3.3c-0.7-0.3-1.4-0.5-2.1-0.5c-0.2,0-0.5,0-0.7,0.1c-0.1,0-0.1,0-0.2,0
	s-0.3-0.1-0.3-0.2l0,0c0-0.1,0.1-0.2,0.2-0.3c0.7-0.8,1.6-1.6,2.5-2.3c0.2-0.1,0.3-0.2,0.4-0.4C110,40.2,109.4,39.6,108.7,39.4
	L108.7,39.4z M117.9,47.9c0.1,0.6,0.3,1.2,0.7,1.6c1.1,1.5,3,1.8,4.8,1.8c1.7,0,3.4-0.2,5.1-0.5c0.3-0.1,0.5-0.3,0.4-0.6
	c0-1.1-0.1-1.4-0.4-1.4c-0.1,0-0.2,0-0.3,0.1c-1.7,0.4-3.4,0.6-5.1,0.6c-1.6,0-3-0.3-3.4-2.1c0-0.2-0.1-0.3-0.3-0.3l0,0
	C119.4,47.1,117.9,47.5,117.9,47.9L117.9,47.9z M119.6,42c0,0.2,0.1,0.3,0.2,0.4c1.3,0.3,2.6,0.5,3.9,0.4c1,0,2.1-0.1,3.1-0.2
	c0.4-0.1,0.5-0.1,0.5-0.5c0-0.7,0-1.5-0.4-1.5c-0.1,0-0.1,0-0.2,0c-1,0.2-2,0.3-3.1,0.3c-1,0-1.9-0.1-2.9-0.4
	c-0.2,0-0.3-0.1-0.5-0.1c-0.3,0-0.4,0.3-0.4,0.6C119.6,41.5,119.6,41.7,119.6,42L119.6,42z M136.5,39.5c0,0.1,0,0.1,0.1,0.2
	c0.1,0.4,0.2,0.7,0.3,1.1c0.2,0.7,0.6,2.5,0.8,3.1c0.1,0.1,0.1,0.2,0.1,0.3c0,0.2-0.1,0.4-0.3,0.4c-1.4,0.9-2.9,2.1-2.9,4
	c0,1.1,0.6,2.1,1.6,2.6c1.1,0.6,2.3,0.8,3.5,0.7c1.6,0,3.1-0.1,4.7-0.3c0.3-0.1,0.4-0.3,0.4-0.7v-0.2c0-0.4,0-1.1-0.3-1.1
	c-0.1,0-0.1,0-0.2,0c-1.5,0.3-2.9,0.4-4.4,0.4c-0.8,0-1.5-0.1-2.3-0.3c-0.6-0.1-1-0.6-1.1-1.2c0-0.6,0.4-1.2,0.8-1.5
	c0.9-0.8,2-1.4,3.1-2c1.3-0.8,2.8-1.4,4.2-2c0.2,0,0.3-0.1,0.3-0.3c-0.1-0.4-0.3-0.7-0.5-1c-0.1-0.3-0.3-0.5-0.6-0.7
	c-0.2,0-0.3,0.1-0.4,0.2c-1.1,0.7-2.3,1.3-3.5,1.9c-0.2,0-0.4-0.3-0.4-0.5c-0.2-1-0.4-2-0.5-3c0-0.4,0-0.6-0.5-0.6
	c-0.3,0-0.5,0-0.8,0.1C137,39.3,136.5,39.3,136.5,39.5L136.5,39.5z M155.4,42c0.1,0,0.3,0.1,0.3,0.3l0,0c-0.1,1.1-0.3,2.2-0.5,3.3
	c-0.5,1.7-1.4,3.7-2.3,3.7c-0.9,0-1.1-1.6-1.1-2.2c0-2.1,1.2-4,3.1-4.9C155,42.1,155.2,42.1,155.4,42L155.4,42z M157,40
	c-3.9,0-7,3.1-7.1,6.9c0,0.1,0,0.1,0,0.2c0,0.8,0.2,1.7,0.5,2.4c0.4,0.9,1.3,1.5,2.3,1.6c0.9-0.1,1.7-0.6,2.2-1.3
	c1.6-2,2.2-5,2.4-7.5c0-0.3,0-0.7,0.4-0.7c0.2,0,0.4,0.1,0.6,0.2c1.7,0.6,2.8,2.3,2.7,4.1c0,2.4-1.8,3.9-4,4.4
	c-0.2,0-0.4,0.1-0.4,0.2c0.1,0.6,0.6,1.2,1.1,1.4c0.6-0.1,1.3-0.4,1.9-0.7c2.1-1.1,3.3-3.2,3.3-5.5c0-1.6-0.6-3.1-1.7-4.2
	C160.3,40.6,158.7,40,157,40L157,40z M174.5,49.8c0.8,0,0.9,0.2,0.9,0.5c0.1,0.4-0.2,0.8-0.7,0.9c-0.1,0-0.2,0-0.2,0
	c-0.5,0.1-1-0.3-1.1-0.8C173.4,49.9,174.1,49.8,174.5,49.8L174.5,49.8z M175.4,43.8c-0.2,0-0.4,0.1-0.4,0.3v0.1c0,0.1,0,0.2,0,0.2
	c0.1,0.7,0.3,3.1,0.3,3.7c0,0.2-0.1,0.3-0.3,0.3c0,0,0,0-0.1,0h-0.4c-1.3,0-2.8,0.5-2.8,2.1s1.6,2.3,3,2.3c1.1,0.2,2.2-0.6,2.4-1.7
	c0-0.2,0.1-0.3,0.3-0.4c0.5,0.2,1,0.4,1.4,0.8c0.1,0.1,0.3,0.2,0.4,0.2c0.5-0.2,0.9-0.7,1.1-1.2c0-0.4-2-1.3-2.4-1.5
	c-0.1,0-0.1-0.1-0.2-0.1c-0.2,0-0.4-0.2-0.5-0.4c-0.1-0.4-0.2-2.8-0.2-3.3c0-0.4,0-0.9,0-0.9c0-0.2-0.2-0.3-0.3-0.4
	C176.2,43.9,175.8,43.8,175.4,43.8L175.4,43.8z M178,41.2c-0.5,0.2-0.9,0.6-1.1,1.2c0,0.1,0.1,0.2,0.2,0.3c0.8,0.6,1.5,1.4,2.1,2.2
	c0.1,0.2,0.2,0.3,0.4,0.3c0.6-0.2,1-0.6,1.3-1.2C180.1,42.8,179.1,41.9,178,41.2L178,41.2z M172.3,38.4c-0.2,0-0.2,0.2-0.2,0.3
	c0,1-0.2,1.9-0.5,2.9c-0.1,0.2-0.3,0.3-0.5,0.3c-0.6,0.1-1.2,0.1-1.8,0.1h-0.8c-0.1,0-0.3,0-0.3,0.2v0.1c0,0.2,0.1,0.8,0.1,1
	c0.1,0.4,0.1,0.5,0.4,0.5c0.4,0,1.7-0.2,1.8-0.2s0.2,0.1,0.2,0.2l0,0c-0.1,0.4-0.2,0.7-0.4,1c-0.6,1.4-1.3,2.7-2,3.9
	c-0.1,0.2-0.2,0.4-0.3,0.6c0,0.4,1.1,0.8,1.5,0.8c0.2,0,0.3-0.1,0.3-0.2c1.1-1.9,2-4,2.8-6.1c0.2-0.6,0.2-0.7,0.8-0.8
	c1.6-0.3,1.8-0.3,1.8-0.7c0-0.3,0-0.6-0.1-0.9c0-0.2-0.1-0.5-0.3-0.5c-0.1,0-0.1,0-0.2,0c-0.3,0.1-0.6,0.2-1,0.3
	c-0.1,0-0.2-0.1-0.2-0.2l0,0c0-0.3,0.1-0.5,0.2-0.8c0.1-0.3,0.2-0.6,0.3-0.9c0.1-0.1,0.2-0.2,0.3-0.3c0-0.1-0.2-0.2-0.3-0.2
	C173.9,38.8,172.5,38.4,172.3,38.4L172.3,38.4z M194,42.3c0,0.1,0.1,0.2,0.2,0.3c1.5,1.2,2.4,2.9,2.5,4.8c0,0.4,0,0.6,0.6,0.6
	c0.3,0,0.6-0.1,1-0.2c0.3,0,0.5-0.2,0.5-0.5l0,0c-0.1-1.2-0.4-2.4-1-3.5c-0.5-1.2-1.5-2.1-2.6-2.6C194.5,41.4,194.2,41.8,194,42.3
	L194,42.3z M186.3,41.2c-0.1,0-0.2,0.1-0.2,0.2l0,0c0,0.2-0.1,2.3-0.1,2.6c-0.1,1.9,0.2,3.8,1,5.5c0.6,1,1.5,2.2,2.8,2.2
	c0.7-0.1,1.4-0.5,1.8-1.1c0.4-0.4,0.8-0.9,1-1.5c-0.2-0.5-0.7-0.9-1.2-1c-0.2,0.1-0.4,0.2-0.5,0.4c-0.2,0.5-0.6,0.9-1.2,1.1
	c-0.6,0-1.2-1-1.4-1.5c-0.4-1.1-0.6-2.3-0.5-3.6c0-0.6,0-1.2,0.1-1.8c0-0.3,0.1-0.6,0.3-0.8c0.1,0,0.2-0.1,0.2-0.2
	c-0.1-0.2-0.2-0.2-0.4-0.2C187.8,41.5,186.6,41.2,186.3,41.2L186.3,41.2z M211.1,41.9c0-0.2,0.1-0.4,0.3-0.4h0.1h3.4
	c0.7,0,1.3,0,2,0c0.4,0,0.4-0.2,0.4-0.7s0-0.7-0.4-0.7c-0.7,0-1.3,0-2,0h-1.1c-0.1,0-0.2-0.1-0.3-0.2l0,0c0-0.1,0-0.1,0.1-0.2
	c0.2-0.2,0.3-0.5,0.5-0.7c0.1-0.1,0.2-0.1,0.3-0.1s0.3,0,0.3-0.2c-0.2-0.3-0.5-0.5-0.8-0.5c-0.3-0.1-0.7-0.3-1-0.3
	c-0.1,0-0.2,0.1-0.2,0.2c-0.3,0.6-0.6,1.1-0.9,1.7c-0.1,0.2-0.4,0.4-0.7,0.3h-2.7c0,0-0.1,0-0.1-0.1c0,0,0-0.1,0.1-0.1
	c0.2,0,0.4-0.2,0.5-0.4c-0.1-0.3-0.3-0.5-0.4-0.8c-0.2-0.4-0.6-0.8-1-1c-0.2,0-1.3,0.3-1.3,0.6c0,0.1,0.1,0.2,0.2,0.3
	c0.3,0.3,0.5,0.7,0.8,1c0,0,0,0.1,0.1,0.2c0,0.1-0.1,0.2-0.2,0.2c0,0,0,0-0.1,0h-1.2c-0.7,0-1.3,0-2,0c-0.4,0-0.4,0.2-0.4,0.7
	s0,0.7,0.4,0.7c0.7,0,1.3,0,2,0h3.3c0.2,0,0.4,0.1,0.4,0.3v0.1V42c0,0.2-0.1,0.4-0.3,0.4h-0.1h-1.9c-0.6,0-1.3,0-1.9,0
	c-0.4,0-0.4,0.2-0.4,0.7s0,0.7,0.4,0.7c0.6,0,1.3,0,1.9,0h1.9c0.2,0,0.4,0.1,0.4,0.3v0.1v0.3c0,0.2-0.1,0.4-0.3,0.4h-0.1H205
	c-0.7,0-1.3-0.1-2-0.1c-0.4,0-0.4,0.2-0.4,0.7s0,0.7,0.4,0.7c0.7,0,1.4,0,2,0h3.7c0.2,0,0.4,0.1,0.4,0.3v0.1c0,0.1,0,0.2,0,0.3
	c0,0.2-0.2,0.5-0.5,0.5h-0.1h-3.2c-0.7,0-1.3,0-2,0c-0.4,0-0.4,0.2-0.4,0.7s0,0.7,0.4,0.7c0.7,0,1.3-0.1,2-0.1h2.6
	c0.1,0,0.3,0.1,0.3,0.2c0,0.1,0,0.1-0.1,0.2c-1.4,1.4-3.3,2.2-5.3,2.4c-0.3,0-0.4,0.1-0.4,0.3c0,0.4,0.3,1.4,0.8,1.4
	c0.6-0.1,1.3-0.2,1.9-0.4c1.8-0.5,3.4-1.5,4.6-2.9c0.1-0.1,0.2-0.1,0.3-0.2c0.1,0,0.2,0.1,0.3,0.1c1,1.3,2.4,2.3,4,2.8
	c0.8,0.3,1.6,0.5,2.4,0.7c0.5-0.2,0.9-0.7,0.9-1.3c0-0.3-0.1-0.4-0.4-0.4c-2-0.3-3.9-1.1-5.4-2.4c0,0-0.1-0.1-0.1-0.2
	c0-0.1,0.1-0.2,0.2-0.2h2.9c0.7,0,1.3,0.1,2,0.1c0.4,0,0.4-0.2,0.4-0.7s0-0.7-0.4-0.7c-0.7,0-1.3,0-2,0h-3.5c-0.2,0-0.4-0.1-0.4-0.3
	l0,0c0-0.1,0-0.1,0.1-0.2c0-0.1,0.1-0.1,0.1-0.1c0.1,0,0.2-0.1,0.3-0.2c-0.1-0.2-0.4-0.3-0.6-0.3l0,0l0,0h4.5c0.7,0,1.3,0,2,0
	c0.4,0,0.4-0.2,0.4-0.7s0-0.7-0.4-0.7c-0.7,0-1.3,0.1-2,0.1h-3.8c-0.2,0-0.4-0.1-0.4-0.3v-0.1v-0.3c0-0.2,0.1-0.4,0.3-0.4h0.1h1.9
	c0.6,0,1.3,0,1.9,0c0.4,0,0.4-0.2,0.4-0.7s0-0.7-0.4-0.7c-0.6,0-1.3,0-1.9,0h-2c-0.2,0-0.4-0.1-0.4-0.3v-0.1L211.1,41.9L211.1,41.9z
	 M224.5,39.4c-0.2,0-0.3,0.2-0.3,0.4V40c0,0.7-0.2,2.3-0.2,3.1c-0.1,1.3-0.2,2.7-0.2,4c-0.1,1.4,0.2,2.7,0.8,3.9
	c0.7,0.9,1.8,1.4,3,1.3c2.2,0,4.2-1.3,5.2-3.2c0.3-0.6,0.6-1.3,0.7-2c-0.2-0.7-0.7-1.2-1.4-1.4c-0.3,0-0.3,0.3-0.3,0.6
	c-0.1,0.9-0.5,1.8-1,2.5c-0.8,1-1.9,1.6-3.2,1.6c-1.8,0-1.8-2.1-1.8-3.4c0-1,0.2-6.4,0.7-6.8c0.1,0,0.2-0.1,0.2-0.3
	c0-0.1-0.2-0.2-0.3-0.2C225.8,39.6,225.2,39.5,224.5,39.4L224.5,39.4z M243.3,38.7c-0.2,0-1.6,0.4-1.6,0.7c0,0.1,0.1,0.2,0.1,0.3
	c0.5,0.6,0.9,1.3,1.3,2.1c0,0.2-0.2,0.3-0.4,0.3c-1.1,0.2-2.3,0.4-3.4,0.4c-0.2,0-0.4,0-0.4,0.3s0.1,0.6,0.2,0.9
	c0.2,0.5,0.2,0.6,0.6,0.6c1.4-0.1,2.7-0.3,4-0.6c0.1,0,0.1,0,0.2-0.1c0.3,0.1,0.6,0.3,0.6,0.6c0.3,0.6,0.6,1.1,1,1.6
	c0.1,0.1,0.1,0.2,0.1,0.3s-0.1,0.2-0.2,0.2c-0.1,0-0.1,0-0.2-0.1c-0.7-0.3-1.4-0.5-2.1-0.5c-1.8-0.1-3.4,1.2-3.6,3.1
	c0,0.1,0,0.1,0,0.2c0,2,1.6,3,3.4,3.5c1,0.2,1.9,0.4,2.9,0.4c0.2,0.1,0.5-0.1,0.6-0.3c0.1-0.3,0.2-0.7,0.2-1s-0.1-0.5-0.4-0.5
	c-0.2,0-0.6,0-1,0c-1.3,0-3.9-0.4-3.9-2.1c0.1-0.9,0.9-1.6,1.8-1.5l0,0c1.4,0.1,2.8,0.6,4,1.4c0.2,0.2,0.4,0.3,0.6,0.4
	c0.6-0.2,1-0.6,1.2-1.1c0-0.2-0.1-0.4-0.3-0.5c-1-1.1-1.8-2.4-2.5-3.7c-0.2-0.2-0.3-0.4-0.3-0.6c0.1-0.3,0.3-0.4,0.6-0.5
	c0.5-0.2,1.1-0.5,1.6-0.7c0.2-0.1,0.4-0.2,0.5-0.4c-0.2-0.6-0.6-1-1.1-1.3c-0.2,0-0.3,0.1-0.5,0.2c-0.6,0.4-1.2,0.7-1.9,0.9
	c-0.2,0-0.4-0.1-0.5-0.3c-0.4-0.7-0.7-1.3-1.1-2C243.6,38.8,243.5,38.7,243.3,38.7L243.3,38.7z M256.5,48.9c0.8,0,1.5,0.7,1.5,1.5
	l0,0c0,0.8-0.7,1.5-1.5,1.5s-1.5-0.7-1.5-1.5C255,49.6,255.7,48.9,256.5,48.9L256.5,48.9z M256.5,48.1c-1.3,0-2.4,1.1-2.4,2.4
	s1.1,2.4,2.4,2.4s2.4-1.1,2.4-2.4l0,0C258.9,49.1,257.8,48.1,256.5,48.1L256.5,48.1L256.5,48.1z M9.6,89.9c-0.2-0.5-0.6-0.9-1-1.3
	c-0.9-1-1.1-1.2-1.2-1.2c-0.5,0.2-0.8,0.5-1.1,0.9c0,0.2,0.1,0.3,0.2,0.4c0.5,0.5,0.9,1.1,1.4,1.7c0.1,0.2,0.3,0.4,0.5,0.5
	C9,90.7,9.4,90.3,9.6,89.9z M6.6,82.7c-0.3,1-0.7,1.9-1.2,2.7c-1.2,1.8-2.9,3.2-4.9,4.1c-0.2,0-0.3,0.2-0.3,0.3
	c0.1,0.6,0.5,1.1,1,1.4c0.6-0.2,1.1-0.5,1.6-0.9C5,89,6.7,87,7.7,84.7c0-0.1,0.1-0.1,0.2-0.1s0.1,0,0.2,0.1c0.8,1.8,1.9,3.4,3.5,4.7
	c0.8,0.8,1.7,1.4,2.7,1.9c0.6-0.2,1-0.7,1.1-1.3c0-0.2-0.2-0.3-0.3-0.3c-2.8-1.5-4.9-4-6-7v-0.1c0-0.2,0.1-0.3,0.3-0.3
	c0,0,0,0,0.1,0h3.6c0.7,0,1.3,0,2,0c0.4,0,0.4-0.2,0.4-0.9s0-0.9-0.4-0.9c-0.7,0-1.3,0-2,0h-4c-0.2,0-0.4-0.1-0.5-0.3v-0.1v-2.5
	c0-0.6,0-0.7,0.2-0.9c0.1,0,0.2-0.1,0.2-0.2s-0.1-0.3-0.3-0.2c-0.2,0-1.4-0.1-1.7-0.1c-0.1,0-0.3,0.1-0.3,0.2v0.1c0,0.1,0,0.1,0,0.2
	c0.1,0.4,0.1,0.8,0.1,1.2v2.3c0,0.2-0.1,0.4-0.3,0.5c-0.1,0-0.1,0-0.2,0H2.6c-0.6,0-1.3,0-2,0c-0.4,0-0.4,0.2-0.4,0.9
	c0,0.7,0,0.9,0.4,0.9c0.6,0,1.3,0,2,0h3.6C6.4,82.5,6.6,82.6,6.6,82.7L6.6,82.7C6.6,82.6,6.6,82.6,6.6,82.7L6.6,82.7z M30.3,79.9
	c0.2,0,0.4,0.2,0.4,0.4l0,0v0.1c0,0.2-0.2,0.4-0.4,0.4l0,0h-2.8c-0.2,0-0.4-0.2-0.4-0.4l0,0v-0.1c0-0.2,0.2-0.4,0.4-0.4l0,0H30.3z
	 M30.7,78.3c0,0.2-0.2,0.4-0.4,0.4l0,0h-2.8c-0.2,0-0.4-0.2-0.4-0.4l0,0v-0.1c0-0.2,0.2-0.4,0.4-0.4l0,0h2.8
	C30.5,77.8,30.7,78,30.7,78.3C30.7,78.2,30.7,78.2,30.7,78.3L30.7,78.3z M32.3,78c0-0.3,0-0.5,0-0.8c0-0.5-0.3-0.6-0.7-0.6
	c-0.4,0-0.7,0-1.1,0h-3.2c-0.4,0-0.7,0-1.1,0c-0.3-0.1-0.6,0.1-0.7,0.4c0,0.1,0,0.1,0,0.2c0,0.3,0,0.5,0,0.8v2.6c0,0.3,0,0.6,0,0.8
	c0,0.5,0.3,0.6,0.8,0.6c0.4,0,0.7,0,1.1,0h3.2c0.4,0,0.7,0,1.1,0c0.5,0,0.7-0.1,0.7-0.6c0-0.3,0-0.5,0-0.8L32.3,78L32.3,78z
	 M21,78.6c0-0.2,0.1-0.4,0.3-0.5c0.1,0,0.1,0,0.2,0h0.6c0.1,0,0.4,0,0.4,0.2c-0.3,0.9-0.6,1.7-1.1,2.5c-0.1,0.2-0.2,0.4-0.2,0.6
	s0.1,0.3,0.2,0.5c0.7,0.8,1.1,1.9,1.2,3c0,0.5,0,1.3-0.7,1.3c-0.2,0-0.4,0-0.4,0c-0.3,0-0.3,0.3-0.3,0.5c0,0.4,0.1,0.7,0.2,1.1
	c0.2,0.1,0.4,0.2,0.6,0.1h0.1c1.7,0,2.2-1,2.2-2.5c0-1.3-0.5-2.6-1.3-3.7c-0.1-0.1-0.1-0.2-0.2-0.3c0-0.1,0-0.2,0.1-0.3
	c0.6-1.1,1.2-2.3,1.5-3.6c0-0.2-0.1-0.4-0.3-0.6c-0.2-0.3-0.6-0.4-0.9-0.3c-0.2,0-0.5,0-0.9,0h-0.8c-0.4,0-0.7,0-1.1,0
	c-0.4-0.1-0.8,0.1-0.9,0.5c0,0.1,0,0.2,0,0.3c0,0.5,0,0.9,0,1.4v9.4c0,0.8-0.1,1.6-0.1,2.4c0,0.6,0.2,0.6,0.8,0.6
	c0.7,0,0.8,0,0.8-0.5c0-0.8-0.1-1.7-0.1-2.5L21,78.6L21,78.6z M27.3,86.8c-0.7,1-1.5,1.8-2.5,2.5c-0.2,0.1-0.4,0.3-0.5,0.5
	c0.1,0.4,0.4,0.6,0.8,0.7c0.2,0,0.3-0.1,0.5-0.2c1.3-1,2.4-2.2,3.2-3.6c0.1-0.2,0.3-0.3,0.5-0.2c0.1,0,0.3,0.1,0.3,0.2
	c0,0,0,0,0,0.1s0,0.1,0,0.2c-0.6,1.3-1.6,2.5-2.7,3.4c-0.1,0.1-0.2,0.2-0.3,0.3c0.2,0.4,0.5,0.6,0.9,0.8c0.4-0.2,0.9-0.6,1.2-0.9
	c1-1.1,1.8-2.3,2.3-3.7c0-0.1,0.2-0.2,0.3-0.2c0.3,0,0.4,0,0.4,0.3c0,0.8-0.1,1.7-0.4,2.5c-0.1,0.4-0.5,0.6-0.9,0.5
	c-0.2,0-0.5,0-0.7,0s-0.2,0.2-0.2,0.4c0,0.3,0.1,0.6,0.2,1c0.1,0.3,0.2,0.3,0.8,0.3c1.3,0,1.9-0.1,2.3-1.3c0.4-1.3,0.5-2.7,0.6-4.1
	c0.1-0.3-0.1-0.6-0.4-0.7c-0.1,0-0.2,0-0.3,0c-0.4,0-0.8,0-1.3,0H28c-0.1,0-0.3-0.1-0.3-0.2l0,0c0-0.1,0.1-0.2,0.1-0.3
	c0.1-0.2,0.3-0.4,0.6-0.3h3.4c0.6,0,1.2,0,1.8,0c0.4,0,0.4-0.2,0.4-0.7s0-0.7-0.4-0.7c-0.6,0-1.2,0-1.8,0h-5.2c-0.6,0-1.2,0-1.8,0
	c-0.4,0-0.4,0.2-0.4,0.7s0,0.7,0.4,0.7c0.3,0,0.8,0,1.2,0c0.1,0,0.3,0.1,0.3,0.2l0,0c0,0.1,0,0.1-0.1,0.2c-0.7,1.1-1.6,2.2-2.6,3
	c-0.2,0.1-0.3,0.2-0.3,0.4c0.1,0.4,0.5,0.7,0.9,0.8c0.4,0,1.9-1.8,2.3-2.1c0.1-0.2,0.4-0.3,0.6-0.3h0.1c0.1,0,0.2,0.1,0.3,0.2l0,0
	C27.4,86.7,27.4,86.7,27.3,86.8z M51,77.8c0-0.3-1.8-0.9-1.9-0.9C49,76.9,49,77,49,77.1c-0.4,1.1-0.9,2.1-1.6,3
	c-0.1,0.1-0.2,0.3-0.3,0.5c0.3,0.4,0.7,0.8,1.3,0.9c0.5,0,1.8-2.7,2.1-3.2c0-0.1,0.2-0.3,0.3-0.3C50.8,78,51,77.9,51,77.8z
	 M42.9,80.7c-0.2-0.6-0.5-1.3-0.8-1.8c-0.2-0.3-0.7-1.3-0.8-1.5c-0.1-0.1-0.2-0.2-0.4-0.2c-0.5,0.1-0.9,0.3-1.2,0.7
	c0,0.1,0.1,0.2,0.2,0.3c0.5,0.8,0.9,1.6,1.3,2.5c0.2,0.6,0.3,0.7,0.6,0.7S42.9,81.1,42.9,80.7z M45.2,83.5c0.2,0,0.4,0.1,0.5,0.3
	c0,0.1,0,0.1,0,0.2v4.4c0,0.4,0,0.8,0,1.1c0,1.3,0.7,1.5,1.9,1.5h2.7c0.8,0.2,1.5-0.2,1.9-0.9c0.3-0.7,0.5-1.5,0.6-2.3
	c0-0.6-1-0.7-1.2-0.7c-0.3,0-0.5,0.2-0.5,0.5l0,0c-0.2,1.3-0.2,1.8-1.1,1.8h-1.7c-0.6,0-0.7-0.1-0.7-0.7V84c0-0.2,0.1-0.4,0.4-0.5
	h0.1h2.5c0.6,0,1.2,0,1.8,0c0.4,0,0.4-0.3,0.4-0.8c0-0.6,0-0.9-0.4-0.9c-0.6,0-1.2,0.1-1.8,0.1h-3.9c-0.2,0-0.4-0.1-0.5-0.3
	c0-0.1,0-0.1,0-0.2v-3.8c-0.1-0.3,0-0.7,0.2-0.9c0.1-0.1,0.2-0.2,0.2-0.3c0-0.2-0.3-0.2-0.5-0.2c-0.3,0-1.3-0.1-1.5-0.1
	s-0.3,0-0.3,0.2c0,0.1,0,0.1,0,0.2c0,0.4,0.1,0.9,0.1,1.3v3.6c0,0.2-0.1,0.4-0.3,0.5c-0.1,0-0.1,0-0.2,0h-4c-0.6,0-1.2-0.1-1.8-0.1
	c-0.4,0-0.4,0.2-0.4,0.9c0,0.6,0,0.8,0.4,0.8c0.6,0,1.2,0,1.8,0H42c0.2,0,0.4,0.1,0.4,0.3c0,0.1,0,0.1,0,0.2c0,2.6-1.7,5-4.3,5.7
	c-0.2,0-0.3,0.1-0.4,0.3c0.1,0.6,0.5,1,1,1.3c0.6-0.2,1.1-0.4,1.6-0.7c1.2-0.7,2.2-1.7,2.8-2.9c0.5-1,0.8-2.1,0.9-3.3
	c0-0.1,0.1-0.2,0.2-0.2c0.1,0,0.2-0.1,0.3-0.3c0-0.1-0.1-0.3-0.3-0.3c-0.1,0-0.1,0-0.2-0.1h0.1L45.2,83.5L45.2,83.5z M63.4,79.3
	c-0.1,0-0.3-0.1-0.3-0.3c0-0.1,0.1-0.2,0.1-0.3c0.1-0.2,0.2-0.3,0.2-0.4c0.1-0.3,0.3-0.5,0.5-0.6c0.1,0,0.2-0.1,0.2-0.2
	c-0.3-0.2-0.6-0.4-0.9-0.5c-0.3-0.2-0.7-0.3-1.1-0.5c-0.2,0.1-0.3,0.2-0.3,0.4c-1,2.4-2.5,4.5-4.4,6.1c-0.1,0.1-0.2,0.2-0.3,0.3
	c0.3,0.5,0.8,0.8,1.4,1c0.2,0,0.4-0.2,0.5-0.3c0.8-0.8,1.5-1.7,2.2-2.6c0.1-0.3,0.4-0.5,0.7-0.4h3.3c0.3,0,0.7,0,0.7,0.3
	c-0.2,0.7-0.5,1.4-0.9,2c-0.1,0.3-0.3,0.5-0.6,0.6c-0.2,0-0.3-0.1-0.4-0.2c-0.7-0.4-1.4-0.8-2.1-1c-0.5,0.3-0.9,0.7-1,1.3
	c0,0.1,0.2,0.3,0.3,0.3c0.6,0.3,1.2,0.6,1.8,1c0.2,0.1,0.3,0.2,0.3,0.4c0,0.2-0.1,0.3-0.3,0.4c-1.3,1.5-3,2.5-4.9,3.1
	c-0.3,0-0.6,0.2-0.7,0.4c0.2,0.6,0.7,1.1,1.2,1.3c0.7-0.2,1.4-0.5,2-0.9c1.4-0.7,2.7-1.7,3.7-2.9c0.1-0.2,0.3-0.4,0.6-0.4
	c0.1,0,0.3,0.1,0.4,0.2c0.3,0.3,0.3,0.3,0.7,0.6c0.1,0.1,0.2,0.1,0.3,0.1c0.5-0.3,0.9-0.7,1.1-1.3c-0.2-0.4-0.6-0.7-1-0.9
	c-0.2-0.1-0.3-0.2-0.3-0.4c0-0.2,0.1-0.3,0.2-0.5c0.6-1,1.1-2,1.5-3c0.1-0.3,0.2-0.5,0.4-0.7c0.1-0.1,0.1-0.1,0.1-0.2
	c-0.1-0.5-0.5-1-1-1.2c-0.1,0-0.1,0-0.2,0c-0.3,0-0.6,0.1-0.8,0.1L63.4,79.3L63.4,79.3z M70.7,76.6c-0.2-0.3-0.5-0.7-0.8-0.9
	c-0.4,0.1-0.7,0.3-0.9,0.6c0,0.1,0.1,0.2,0.1,0.2c0.4,0.5,0.7,1,1,1.5c0,0.1,0.1,0.2,0.3,0.2c0.4-0.1,0.7-0.3,0.9-0.7
	C71.2,77.2,71,76.9,70.7,76.6C70.7,76.7,70.7,76.7,70.7,76.6L70.7,76.6z M68,76.7c-0.4,0.1-0.7,0.3-0.9,0.6c0,0.1,0.1,0.2,0.1,0.2
	c0.4,0.5,0.7,1,1,1.5c0,0.1,0.1,0.2,0.2,0.2c0.4-0.1,0.7-0.3,0.9-0.7C69.1,77.8,68.6,77.2,68,76.7L68,76.7z M80.2,82.6
	c-0.1,0-0.2,0-0.3-0.1c-0.8-0.4-1.6-0.7-2.5-1c-0.4,0-0.9,1.2-0.9,1.4c0,0.2,0.2,0.3,0.4,0.3c0.7,0.2,1.4,0.5,2,0.8
	c0.1,0.1,0.2,0.2,0.2,0.3c0,0.2-0.1,0.3-0.3,0.5c-1.3,1.5-2.9,2.7-4.7,3.4c0,0-0.1,0-0.1,0.1c-0.2,0-0.4,0.2-0.5,0.4
	c0.2,0.6,0.7,1,1.2,1.3c1-0.4,1.9-0.9,2.7-1.5c1.1-0.8,2.2-1.7,3-2.8c0.1-0.2,0.2-0.3,0.4-0.3c0.5,0.2,0.9,0.5,1.2,0.9
	c0.1,0.1,0.3,0.2,0.4,0.3c0.5-0.3,0.9-0.8,1.1-1.4c-0.4-0.5-0.8-0.9-1.3-1.2c-0.2-0.1-0.3-0.3-0.3-0.5c0-0.1,0-0.2,0.1-0.3
	c0.6-1.2,1.2-2.4,1.6-3.7c0-0.2,0.2-0.5,0.4-0.6c0.1,0,0.2-0.1,0.2-0.2c-0.2-0.3-0.6-0.4-0.9-0.5c-0.4-0.2-0.8-0.3-1.2-0.4
	c-0.2,0-0.2,0.2-0.2,0.4c-0.3,1.3-0.7,2.6-1.4,3.8C80.6,82.4,80.4,82.6,80.2,82.6L80.2,82.6z M92.3,82.6c-0.7,0-1.9-0.1-2.1-0.1
	c-0.4,0-0.5,0.1-0.5,1.1c0,0.5,0,0.8,0.5,0.8c0.7,0,1.4,0,2.1,0h7.8c0.7,0,1.4,0,2.1,0c0.4,0,0.5-0.3,0.5-0.9c0-0.9,0-1.1-0.5-1.1
	c-0.2,0-1.3,0.1-2.1,0.1L92.3,82.6L92.3,82.6z M117.1,76.5c0,0.1,0.1,0.2,0.2,0.2c0.5,0.4,0.9,0.8,1.4,1.2c0.1,0.1,0.1,0.1,0.2,0.1
	c0.4-0.2,0.6-0.5,0.7-0.8c-0.5-0.6-1.1-1.1-1.8-1.5C117.5,75.9,117.2,76.2,117.1,76.5L117.1,76.5z M118.5,80c-0.2,0-0.3,0.2-0.3,0.4
	c-0.6,1.8-1.6,3.4-2.9,4.8c-1.2,1.2-2.6,2.1-4.2,2.7c-0.5,0.2-1.5,0.6-2,0.7c-0.1,0-0.3,0.1-0.3,0.2v0.1c0.2,0.5,0.4,0.9,0.6,1.4
	c0,0.2,0.2,0.4,0.4,0.4c0.1,0,0.2-0.1,0.3-0.2c0.1-0.2,0.3-0.3,0.6-0.3c2.2-0.7,4.1-1.9,5.8-3.5c1.3-1.3,2.3-2.8,3-4.4
	c0.2-0.3,0.3-0.7,0.4-1.1C119.5,80.6,119.1,80.2,118.5,80L118.5,80z M115.6,78c0,0.1,0.1,0.2,0.2,0.2c0.4,0.3,0.8,0.7,1.2,1
	c0.1,0.1,0.3,0.2,0.4,0.3c0.4-0.2,0.6-0.5,0.7-0.8c-0.2-0.3-0.4-0.5-0.7-0.7c-0.3-0.3-0.7-0.6-1.1-0.8C116,77.4,115.7,77.7,115.6,78
	L115.6,78z M107.5,82.5c0,0.1,0.1,0.2,0.3,0.3c0.9,0.5,1.9,1.1,2.8,1.7c0.1,0.1,0.2,0.2,0.4,0.2c0.5-0.3,0.9-0.7,1-1.3
	c-0.3-0.4-0.6-0.7-1.1-0.9c-0.8-0.5-1.6-0.9-2.4-1.3C108,81.5,107.7,82,107.5,82.5L107.5,82.5z M110.6,77.5c-0.5,0.3-0.9,0.7-1,1.2
	c0,0.1,0.2,0.3,0.3,0.3c0.9,0.5,1.7,1.1,2.5,1.8c0.1,0.1,0.3,0.2,0.4,0.2c0.5-0.3,0.9-0.7,1-1.2c-0.3-0.4-0.6-0.7-1.1-0.9
	C112.1,78.4,111.4,77.9,110.6,77.5L110.6,77.5z M138,76.2c-0.4,0.1-0.7,0.4-0.8,0.7c0,0.1,0.1,0.2,0.1,0.2c0.3,0.3,0.7,0.8,1,1.1
	c0.1,0.2,0.2,0.3,0.4,0.4c0.4-0.1,0.7-0.4,0.8-0.7c-0.2-0.3-0.4-0.6-0.7-0.9C138.7,76.7,138.4,76.4,138,76.2L138,76.2z M136.6,77.7
	c-0.4,0.1-0.7,0.3-0.8,0.7c0,0.1,0.1,0.2,0.2,0.2c0.4,0.4,0.7,0.8,1,1.3c0.1,0.1,0.2,0.3,0.4,0.3c0.4-0.1,0.7-0.4,0.8-0.7
	C137.8,78.8,137.3,78.2,136.6,77.7L136.6,77.7z M126.8,82.2c-0.7,0-1.6-0.1-2.2-0.1c-0.4,0-0.4,0.3-0.4,0.9s0,1,0.4,1
	c0.7,0,1.4-0.1,2.1-0.1h3.5c0.2,0,0.4,0.2,0.4,0.4l0,0c0,0.3-0.1,0.5-0.1,0.8c-0.3,1.3-1.1,2.4-2.1,3.1c-0.7,0.4-1.4,0.7-2.1,0.9
	c-0.2,0-0.4,0.1-0.5,0.3c0.2,0.6,0.7,1.1,1.3,1.4c0.3,0,0.5-0.1,0.8-0.3c1.4-0.5,2.7-1.5,3.5-2.8c0.6-0.9,0.9-2,1.1-3.1
	c0.1-0.4,0.1-0.8,0.5-0.8h2.2c0.7,0,1.5,0,2.2,0c0.4,0,0.5-0.2,0.5-0.9c0-0.8,0-0.9-0.5-0.9c-0.7,0-1.4,0.1-2.1,0.1L126.8,82.2
	L126.8,82.2z M129,77.7c-0.8,0-1.6-0.1-2.1-0.1s-0.5,0.3-0.5,1s0,0.9,0.4,0.9c0.7,0,1.4,0,2.2,0h3.6c0.7,0,1.4,0,2.2,0
	c0.5,0,0.5-0.2,0.5-0.8c0-0.7,0-1-0.5-1c-0.6,0-1.4,0.1-2.1,0.1L129,77.7L129,77.7z M148.5,84c0-0.4,0.1-0.7,0.4-0.9
	c0.5-0.5,1.1-1.1,1.5-1.7c0.1-0.2,0.3-0.3,0.5-0.4c0.1,0,0.2-0.1,0.2-0.2c-0.1-0.2-0.2-0.4-0.5-0.5c-0.3-0.3-0.6-0.5-1-0.6
	c-0.1,0.1-0.2,0.2-0.3,0.3c-1.7,2.4-4,4.3-6.7,5.5c-0.2,0-0.3,0.2-0.4,0.4c0.2,0.5,0.6,0.9,1.1,1.1c1-0.5,1.9-1,2.8-1.6
	c0.1-0.1,0.3-0.2,0.4-0.2c0.1,0,0.2,0.1,0.2,0.2l0,0v3.5c0,0.5,0,1.1,0,1.6s0.1,0.5,1,0.5c0.3,0,0.7,0,0.7-0.5c0-0.6,0-1.1,0-1.7
	L148.5,84L148.5,84z M159.2,78.6c-0.7,0-1.5,0-2.2,0c-0.5,0-0.5,0.2-0.5,1s0,0.9,0.5,0.9c0.7,0,1.4,0,2.1,0h6c0.3,0,0.6,0,0.6,0.4
	c0,0.1,0,0.3,0,0.4c-0.3,1.9-1.3,3.7-2.8,5c-1.2,1-2.7,1.8-4.2,2.2c-0.2,0-0.3,0.1-0.3,0.3c0.1,0.6,0.5,1.1,1,1.4
	c0.2,0,0.4-0.1,0.6-0.2c1.2-0.4,2.2-1,3.3-1.7c2.5-1.7,4.2-4.4,4.5-7.5c0.1-0.7,0.3-0.9,0.3-1.1c-0.2-0.5-0.6-0.9-1.1-1.1
	c-0.1,0-0.2,0-0.3,0c-0.3,0-1.2,0-1.5,0L159.2,78.6L159.2,78.6z M175.8,81.4c-0.6,0-1.2,0-1.6,0s-0.5,0.3-0.5,0.9
	c0,0.5,0,0.7,0.5,0.7s1.1,0,1.6,0h0.9c0.3,0,0.5,0.2,0.5,0.5v3.3c0,0.3-0.2,0.5-0.5,0.5l0,0H175c-0.6,0-1.2,0-1.7,0
	c-0.4,0-0.4,0.3-0.4,0.8c0,0.4,0,0.7,0.4,0.7c0.6,0,1.1,0,1.7,0h6.2c0.6,0,1.1,0,1.7,0c0.4,0,0.4-0.3,0.4-0.7c0-0.5,0-0.8-0.4-0.8
	c-0.6,0-1.2,0-1.7,0h-1.8c-0.3,0-0.5-0.2-0.5-0.5l0,0v-3.3c0-0.3,0.2-0.5,0.5-0.5h0.9c0.5,0,1.1,0,1.6,0c0.4,0,0.5-0.2,0.5-0.7
	c0-0.6,0-0.9-0.5-0.9c-0.4,0-1,0-1.6,0H175.8L175.8,81.4z M200,80.4c-0.1,0-0.2,0.1-0.3,0.2c-2.7,3.4-6.3,6-10.4,7.4
	c-0.2,0-0.4,0.1-0.5,0.3c0.1,0.4,0.3,0.7,0.5,1c0.1,0.3,0.4,0.6,0.7,0.9c0.1,0,0.1,0,0.2-0.1c0.1-0.3,0.4-0.5,0.7-0.6
	c3.5-1.5,6.6-3.7,9.2-6.4c0.4-0.3,0.7-0.7,0.9-1.2C200.8,81.3,200.5,80.8,200,80.4L200,80.4z M190,77.7c-0.5,0.3-0.9,0.8-1.1,1.3
	c0,0.1,0.1,0.3,0.3,0.3c0.8,0.5,1.5,1,2.3,1.6c0.2,0.2,0.4,0.4,0.7,0.5c0.5-0.3,1-0.7,1.1-1.3c-0.3-0.4-0.6-0.7-1-1
	C191.5,78.6,190.7,78.1,190,77.7L190,77.7z M208.7,78.7c-0.7,0-1.5,0-2.2,0c-0.4,0-0.4,0.3-0.4,0.8c0,0.8,0,1,0.4,1
	c0.7,0,1.5,0,2.2,0h3.5c0.3,0,0.5,0,0.5,0.3c-0.1,0.2-0.2,0.4-0.3,0.6c-1.8,2.9-4.5,5.1-7.6,6.4c-0.2,0-0.3,0.2-0.4,0.3
	c0.2,0.6,0.6,1.1,1.1,1.4c0.3-0.1,0.5-0.2,0.7-0.3c1.5-0.8,3-1.8,4.2-3c0.1-0.2,0.3-0.3,0.5-0.3c0.1,0,0.3,0.1,0.4,0.2
	c1.4,0.9,2.7,2.1,3.8,3.4c0.1,0.1,0.3,0.2,0.4,0.3c0.6-0.3,1.1-0.8,1.3-1.4c0-0.1,0-0.2-0.1-0.2c-0.4-0.4-0.8-0.8-1.2-1.2
	c-0.9-0.8-1.9-1.5-2.9-2.2c-0.2-0.1-0.3-0.2-0.3-0.4c0-0.1,0.1-0.2,0.1-0.3c0.8-1,1.6-2.1,2.2-3.2c0.1-0.1,0.2-0.3,0.3-0.4
	c0.1-0.2,0.3-0.4,0.4-0.7c-0.2-0.5-0.6-0.9-1.1-1.2c-0.1,0-0.3,0-0.4,0c-0.2,0-0.5,0-0.7,0L208.7,78.7L208.7,78.7z M231.5,78.4
	c0.2,0,0.4,0.1,0.5,0.3v0.1v5.9c0,0.5,0,0.9,0,1.3c0,1.2,0.2,1.5,1.4,1.5h0.8c0.6,0.1,1.2-0.2,1.4-0.8c0.2-1,0.4-1.9,0.4-2.9
	c0-0.5-0.6-0.6-1-0.6c-0.3,0-0.4,0.2-0.4,0.5c0,0.7-0.1,1.3-0.2,2c0,0.2-0.2,0.3-0.3,0.3l0,0H234c-0.3,0-0.3-0.2-0.3-0.7v-6.5
	c0-0.4,0-0.9,0-1.3c0.1-0.3-0.1-0.6-0.4-0.7c-0.1,0-0.2,0-0.3,0c-0.4,0-0.7,0-1.1,0h-1.4c-0.4,0-0.7,0-1.1,0
	c-0.3-0.1-0.6,0.1-0.7,0.4c0,0.1,0,0.2,0,0.3c0,0.4,0,0.9,0,1.3v1.8c0.1,2-0.4,3.9-1.4,5.6c-0.1,0.1-0.2,0.2-0.2,0.4
	c0.2,0.5,0.6,0.8,1.1,0.9c0.4,0,1-1.3,1.1-1.7c0.6-1.6,0.9-3.4,0.9-5.2v-1.8c0-0.2,0.1-0.4,0.3-0.5h0.1L231.5,78.4L231.5,78.4z
	 M225.1,80.1c0.3-0.1,0.5,0.1,0.6,0.3v0.1c-0.1,1.4-0.4,2.8-0.9,4.1c0,0.1-0.1,0.1-0.2,0.2c-0.1,0-0.1-0.1-0.2-0.1
	c-0.4-0.9-0.7-1.9-0.8-2.9c0-0.1,0-0.2,0-0.3c0-0.2,0-0.3,0.1-0.5s0.1-0.4,0.2-0.5c0-0.3,0.3-0.5,0.5-0.4l0,0L225.1,80.1L225.1,80.1
	z M225.1,88.5c2.4,2.6,5.5,2.5,8.8,2.5h0.6c0.4,0,0.8,0,1.2-0.1c0.3-0.3,0.4-0.7,0.4-1.2c0-0.2-0.1-0.4-0.3-0.5h-0.1
	c-0.2,0-1.9,0.1-2.8,0.1c-2.6,0-5-0.1-6.9-2.2c-0.1-0.1-0.2-0.2-0.2-0.4c0-0.1,0-0.2,0.1-0.3c0.6-1.3,1-2.6,1.3-4
	c0.2-1.1,0.2-1.7,0.3-2.7c0-0.1,0-0.3,0-0.4c0-0.5-0.4-0.8-0.9-0.8c-0.1,0-0.1,0-0.2,0h-1.6c-0.2,0-0.4-0.1-0.4-0.3c0,0,0,0,0-0.1
	s0.1-0.5,0.1-0.7s0.1-0.5,0.3-0.6c0.1,0,0.2-0.2,0.2-0.3c0-0.2-0.4-0.3-1.2-0.4c-0.1,0-0.5-0.1-0.6-0.1c-0.2,0-0.2,0.2-0.2,0.5
	c0,0.1,0,0.2,0,0.3c-0.2,2.3-0.9,4.5-2,6.4c-0.1,0.2-0.2,0.3-0.2,0.5c0.2,0.5,0.5,0.9,1,1.1c0.4-0.2,0.6-0.6,0.7-1
	c0-0.1,0.1-0.1,0.2-0.1c0.1,0,0.1,0.1,0.2,0.1c0.2,0.8,0.5,1.6,0.8,2.3c0.1,0.1,0.1,0.2,0.1,0.4c0,0.1,0,0.3-0.1,0.4
	c-0.7,1-1.5,1.9-2.4,2.7c-0.2,0.1-0.3,0.2-0.3,0.4c0.2,0.5,0.6,0.9,1.1,1c0.6,0,2.3-2.1,2.7-2.7c0.1-0.1,0.2-0.1,0.3-0.2
	C225,88.4,225.1,88.5,225.1,88.5L225.1,88.5z M242.1,78.6c-0.7,0-1.3-0.1-2-0.1c-0.4,0-0.4,0.2-0.4,0.9s0,0.9,0.4,0.9
	c0.7,0,1.3-0.1,2-0.1h2.7c0.2,0,0.4,0.1,0.5,0.4c0,0,0,0,0,0.1V81c0,1.7-0.3,3.3-1,4.8c-0.8,1.6-2.1,2.8-3.6,3.7
	c-0.4,0.2-0.6,0.3-0.6,0.5c0.1,0.6,0.5,1,1.1,1.2c0.7-0.2,1.3-0.6,1.9-1.1c1.8-1.4,3-3.2,3.6-5.4c0-0.3,0.3-0.5,0.5-0.4l0,0h3.1
	c0.8,0,1,0,1,0.5c0,1.4-0.3,2.7-0.7,4c-0.2,0.6-0.8,0.9-1.4,0.8c-0.4,0-0.9-0.1-1.1-0.1c-0.3,0-0.4,0.2-0.4,0.6
	c0,1.3,0.6,1.2,1.5,1.2c1.2,0,2.2,0,2.7-1.2c0.8-2.1,1.2-4.3,1.2-6.5c0.1-0.4-0.1-0.9-0.6-1c-0.1,0-0.2,0-0.3,0c-0.4,0-0.8,0-1.2,0
	h-3.6c-0.2,0-0.4-0.1-0.4-0.3c0-0.1,0-0.1,0-0.2c0-0.4,0-0.7,0-1.1c0-0.1,0-0.3,0.1-0.3c0.1-0.1,0.3-0.2,0.3-0.3
	c0-0.1-0.1-0.2-0.2-0.2c0,0,0,0,0-0.1h4.8c0.7,0,1.3,0.1,2,0.1c0.4,0,0.4-0.2,0.4-0.9s0-0.9-0.4-0.9c-0.7,0-1.3,0.1-2,0.1h-3.7
	c-0.2,0-0.4-0.1-0.5-0.3v-0.1c0-1.2,0-1.3,0.2-1.4c0.1,0,0.2-0.1,0.3-0.3c0-0.2-0.3-0.2-0.4-0.2c-0.3,0-1.4-0.1-1.6-0.1
	c-0.1,0-0.3,0-0.3,0.2c0,0,0,0,0,0.1v0.2c0,0.3,0.1,0.7,0.1,1.1v0.6c0,0.2-0.1,0.4-0.3,0.5h-0.1L242.1,78.6L242.1,78.6z M261.3,77.5
	c0,0.1,0,0.1,0.1,0.2c0.1,0.4,0.2,0.7,0.3,1.1c0.2,0.7,0.6,2.5,0.8,3.1c0.1,0.1,0.1,0.2,0.1,0.3c0,0.2-0.1,0.4-0.3,0.4
	c-1.4,0.9-2.9,2.1-2.9,4c0,1.1,0.6,2.1,1.6,2.6c1.1,0.6,2.3,0.8,3.5,0.7c1.6,0,3.1-0.1,4.7-0.3c0.3-0.1,0.4-0.3,0.4-0.7v-0.2
	c0-0.4,0-1.1-0.3-1.1c-0.1,0-0.1,0-0.2,0c-1.5,0.3-2.9,0.4-4.4,0.4c-0.8,0-1.5-0.1-2.3-0.3c-0.6-0.1-1-0.6-1.1-1.2
	c0-0.6,0.4-1.2,0.8-1.5c0.9-0.8,2-1.4,3.1-2c1.3-0.8,2.8-1.4,4.2-2c0.2,0,0.3-0.1,0.3-0.3c-0.1-0.4-0.3-0.7-0.5-1
	c-0.1-0.3-0.3-0.5-0.6-0.7c-0.2,0-0.3,0.1-0.4,0.2c-1.1,0.7-2.3,1.3-3.5,1.9c-0.2,0-0.4-0.3-0.4-0.5c-0.2-1-0.4-2-0.5-3
	c0-0.4,0-0.6-0.5-0.6c-0.3,0-0.5,0-0.8,0.1C261.9,77.3,261.3,77.3,261.3,77.5L261.3,77.5z M282.8,79.9c0-0.2,0.1-0.4,0.3-0.4h0.1
	h3.4c0.7,0,1.3,0,2,0c0.4,0,0.3-0.2,0.3-0.7s0-0.7-0.3-0.7c-0.7,0-1.3,0-2,0h-1.1c-0.1,0-0.2-0.1-0.2-0.2l0,0c0-0.1,0-0.1,0.1-0.2
	c0.2-0.2,0.3-0.5,0.5-0.7c0.1-0.1,0.2-0.1,0.3-0.1c0.1,0,0.3,0,0.3-0.2c-0.2-0.3-0.5-0.5-0.8-0.5c-0.3-0.1-0.7-0.3-1-0.3
	c-0.1,0-0.2,0.1-0.2,0.2c-0.3,0.6-0.6,1.1-0.9,1.7c-0.1,0.3-0.4,0.4-0.7,0.3h-2.7c0,0-0.1,0-0.1-0.1v-0.1c0.2,0,0.4-0.2,0.5-0.4
	c-0.1-0.3-0.3-0.5-0.4-0.8c-0.2-0.4-0.6-0.8-1-1c-0.2,0-1.3,0.3-1.3,0.6c0,0.1,0.1,0.2,0.2,0.3c0.3,0.3,0.5,0.7,0.8,1
	c0,0,0,0.1,0,0.2s-0.1,0.2-0.2,0.2l0,0h-1.2c-0.7,0-1.3,0-2,0c-0.4,0-0.4,0.2-0.4,0.7s0,0.7,0.4,0.7c0.7,0,1.3,0,2,0h3.3
	c0.2,0,0.4,0.1,0.4,0.3v0.1V80c0,0.2-0.1,0.4-0.3,0.4h-0.1h-1.9c-0.6,0-1.3,0-1.9,0c-0.4,0-0.4,0.2-0.4,0.7s0,0.7,0.4,0.7
	c0.7,0,1.3,0,1.9,0h1.9c0.2,0,0.4,0.1,0.4,0.3v0.1v0.3c0,0.2-0.1,0.4-0.3,0.4h-0.1H277c-0.7,0-1.3-0.1-2-0.1c-0.4,0-0.4,0.2-0.4,0.7
	s0,0.7,0.4,0.7c0.7,0,1.4,0,2,0h3.7c0.2,0,0.4,0.1,0.4,0.3v0.1c0,0.1,0,0.2,0,0.3c0,0.2-0.2,0.4-0.4,0.5h-0.1h-3.2c-0.7,0-1.3,0-2,0
	c-0.4,0-0.4,0.2-0.4,0.7s0,0.7,0.4,0.7c0.7,0,1.3-0.1,2-0.1h2.6c0.1,0,0.3,0.1,0.3,0.2s0,0.1-0.1,0.2c-1.4,1.4-3.3,2.2-5.3,2.4
	c-0.3,0-0.4,0.1-0.4,0.3c0,0.4,0.3,1.4,0.8,1.4c0.6-0.1,1.3-0.2,1.9-0.4c1.8-0.4,3.4-1.5,4.6-2.9c0.1-0.1,0.2-0.1,0.3-0.2
	c0.1,0,0.2,0.1,0.3,0.1c1,1.3,2.4,2.3,4,2.8c0.8,0.3,1.6,0.5,2.4,0.7c0.5-0.2,0.9-0.7,0.9-1.3c0-0.3-0.1-0.4-0.4-0.4
	c-2-0.2-3.9-1.1-5.4-2.4c0,0-0.1-0.1-0.1-0.2s0.1-0.2,0.2-0.2h2.9c0.7,0,1.3,0.1,2,0.1c0.4,0,0.3-0.2,0.3-0.7s0-0.7-0.3-0.7
	c-0.7,0-1.3,0-2,0h-3.5c-0.2,0-0.4-0.1-0.4-0.3l0,0c0-0.1,0-0.1,0-0.2s0.1-0.1,0.1-0.1c0.1,0,0.2-0.1,0.3-0.2
	c-0.1-0.2-0.4-0.3-0.6-0.3l0,0l0,0l0,0h4.5c0.7,0,1.3,0,2,0c0.4,0,0.4-0.2,0.4-0.7s0-0.7-0.4-0.7c-0.7,0-1.3,0.1-2,0.1h-3.8
	c-0.2,0-0.4-0.1-0.4-0.3v-0.1v-0.3c0-0.2,0.1-0.4,0.3-0.4h0.1h2c0.7,0,1.3,0,1.9,0c0.4,0,0.4-0.2,0.4-0.7s0-0.7-0.4-0.7
	c-0.6,0-1.3,0-1.9,0h-2c-0.2,0-0.4-0.1-0.4-0.3v-0.1v-0.3H282.8z M307.4,82.8c0-0.1-0.1-0.2-0.3-0.3c-1.2-0.7-2.4-1.5-3.4-2.5
	c-0.1-0.1-0.2-0.2-0.3-0.2c-0.4,0.2-0.8,0.5-1,0.9c0,0.5,3.6,3.2,4.1,3.2C306.9,83.6,307.2,83.2,307.4,82.8L307.4,82.8z M299,80.8
	c-0.1-0.2-0.3-0.4-0.5-0.5c-0.3-0.2-0.5-0.4-0.8-0.6c-0.1,0-0.2,0.1-0.2,0.1c-1,1-2.1,1.9-3.4,2.5c-0.2,0.1-0.3,0.2-0.4,0.4
	c0.1,0.5,0.5,0.8,0.9,1c0.3-0.1,0.5-0.2,0.7-0.3c1.1-0.6,2.1-1.4,3.1-2.3c0.1-0.1,0.2-0.2,0.3-0.2L299,80.8
	C298.8,81,299,81,299,80.8L299,80.8z M301.9,77.8c-0.2,0-0.4-0.1-0.5-0.3v-0.1c0-0.2,0-0.5,0.2-0.7c0.1,0,0.2-0.1,0.2-0.2
	c0-0.2-0.3-0.2-0.5-0.2c-0.3,0-1.1-0.1-1.4-0.1c-0.2,0-0.3,0-0.3,0.2c0,0.1,0,0.1,0,0.2c0,0.3,0.1,0.6,0.1,0.9
	c0,0.2-0.1,0.4-0.3,0.4h-0.1h-2.9c-0.6,0-1.2,0-1.8,0c-0.4-0.1-0.8,0.1-0.9,0.5c0,0,0,0.1,0,0.2c0,0.2,0,0.5,0,0.9v0.8
	c0,0.2-0.1,0.5-0.1,0.7c0,0.4,0.3,0.4,0.9,0.4s0.9,0,0.9-0.4c0-0.2-0.1-0.5-0.1-0.7v-0.4c0-0.2,0.1-0.4,0.3-0.5h0.1h9.9
	c0.2,0,0.4,0.1,0.5,0.3v0.1v0.4c0,0.2,0,0.5,0,0.7c0,0.4,0.3,0.4,0.9,0.4s0.9,0,0.9-0.4c0-0.2,0-0.5,0-0.7v-0.9c0-0.4,0-0.7,0-0.9
	c0-0.4-0.4-0.7-0.8-0.7H307c-0.6,0-1.2,0-1.8,0L301.9,77.8L301.9,77.8z M298.5,89.2c-0.2,0-0.4-0.1-0.5-0.4v-0.1v-1.3
	c0-0.2,0.2-0.5,0.4-0.5c0,0,0,0,0.1,0h4c0.3,0,0.5,0.2,0.5,0.5l0,0v1.3c0,0.2-0.2,0.5-0.4,0.5l0,0H298.5z M298.3,85.2
	c0.7-0.5,1.3-1.1,1.9-1.7c0.1-0.1,0.2-0.1,0.3-0.2c0.1,0,0.2,0.1,0.3,0.2c0.6,0.6,1.3,1.1,1.9,1.7c0,0,0.1,0.1,0.1,0.2
	s-0.1,0.1-0.1,0.1l0,0h-4.3c-0.1,0-0.2,0-0.2-0.1l0,0C298.2,85.3,298.3,85.2,298.3,85.2L298.3,85.2z M305,86.7
	c0.7,0.5,1.4,0.8,2.1,1.1c0.5-0.2,0.8-0.7,0.9-1.2c-0.1-0.2-0.3-0.3-0.5-0.4c-2.2-1-4.2-2.3-5.9-4c0,0,0,0,0-0.1c0,0,0-0.1,0.1-0.1
	s0.2-0.1,0.2-0.2c-0.1-0.2-0.3-0.4-0.5-0.4c-0.1,0-0.1-0.1-0.2-0.1c-0.2-0.1-0.5-0.3-0.8-0.3c-0.1,0-0.3,0.1-0.3,0.3
	c-1.8,2.1-4.1,3.8-6.7,4.9c-0.2,0-0.4,0.2-0.5,0.4c0.1,0.5,0.5,1,1,1.2c0.7-0.3,1.5-0.6,2.1-1.1c0.1,0,0.1,0,0.2,0s0.2,0.1,0.2,0.2
	l0,0v3c0,0.3,0,0.8,0,1c0,0.3,0.2,0.3,0.8,0.3c0.7,0,0.9,0,0.8-0.4c0-0.2,0.1-0.3,0.2-0.3h0.1h4.2c0.1,0,0.3,0.1,0.3,0.2v0.1V91
	c0,0.4,0.2,0.3,0.8,0.3c0.6,0,0.8,0,0.8-0.3c0,0,0-0.8,0-1v-3.1c0-0.1,0.1-0.3,0.2-0.3l0,0C304.9,86.7,304.9,86.7,305,86.7L305,86.7
	z M315.1,82.1c-0.3-0.4-0.7-0.8-1.1-1.1c-0.4-0.4-0.9-0.7-1.4-1c-0.4,0.2-0.8,0.6-1,1.1c0,0.2,0.2,0.3,0.3,0.4
	c0.7,0.5,1.3,1,1.9,1.5c0.1,0.1,0.2,0.2,0.3,0.2C314.6,83,314.9,82.6,315.1,82.1L315.1,82.1z M315.6,78.2c-0.3-0.4-0.6-0.7-1.1-1
	c-0.5-0.4-1-0.7-1.5-1c-0.5,0.2-0.8,0.6-0.9,1.1c0,0.1,0.1,0.3,0.3,0.3c0.6,0.4,1.2,0.8,1.8,1.3c0.1,0.1,0.3,0.2,0.5,0.3
	C315.1,79.1,315.5,78.7,315.6,78.2L315.6,78.2z M322.9,86.3c-0.1,0.1-0.1,0.1-0.2,0.1s-0.2,0-0.2-0.1c-0.5-0.6-0.9-1.1-1.2-1.8
	c-0.1-0.1-0.1-0.2-0.1-0.4c0-0.1,0-0.3,0.1-0.4c0.1-0.2,0.2-0.4,0.4-0.6c0.1-0.3,0.4-0.4,0.7-0.4h1.7c0.3,0,0.4,0,0.4,0.2
	c-0.1,0.4-0.2,0.7-0.3,1.1c0,0.1-0.1,0.2-0.3,0.2c-0.1,0-0.2,0-0.2-0.1l-0.1-0.1c-0.3-0.3-0.6-0.6-1-0.8c-0.4,0.2-0.6,0.5-0.7,0.9
	c0,0.1,0.1,0.2,0.2,0.3c0.4,0.3,0.8,0.7,1.2,1.1c0.1,0,0.1,0.1,0.1,0.2v0.1L322.9,86.3z M320.3,86c0.3,0.5,0.6,1.1,1,1.6
	c0.1,0.1,0.1,0.2,0.1,0.3c0,0.1-0.1,0.3-0.2,0.3c-0.6,0.5-1.3,0.9-2,1.3c-0.5,0.3-0.7,0.3-0.7,0.5c0.1,0.5,0.5,1,1,1.2
	c0.5,0,2.4-1.5,2.8-1.9c0.1-0.1,0.2-0.1,0.3-0.1c0.1,0,0.2,0.1,0.3,0.1c0.9,0.8,1.9,1.4,2.9,1.9c0.5-0.2,0.9-0.7,1-1.2
	c-0.1-0.2-0.4-0.4-0.6-0.5c-0.8-0.4-1.5-0.9-2.1-1.4c-0.1-0.1-0.2-0.2-0.2-0.3c0-0.1,0-0.2,0.1-0.3c0.9-1.2,1.5-2.6,1.9-4
	c0.1-0.3,0.2-0.7,0.2-1c-0.1-0.6-0.6-1-1.2-1c-0.4,0-0.8,0-1.1,0H323c-0.1,0-0.3-0.1-0.3-0.2c0,0,0,0,0-0.1v-0.1
	c0.1-0.3,0.1-0.4,0.4-0.5c0.1,0,0.2-0.1,0.2-0.2c0-0.2-0.2-0.2-0.6-0.3c-0.4-0.1-0.7-0.2-1.1-0.3c-0.1,0-0.2,0.1-0.2,0.3
	c-0.7,1.8-1.7,3.5-2.9,5c0,0-0.1,0.1-0.2,0.1s-0.1-0.1-0.1-0.2l0,0v-0.6c-0.1-0.3,0-0.5,0.2-0.7c0.1-0.1,0.2-0.2,0.2-0.3
	c0-0.1-0.1-0.2-0.2-0.2s-0.1,0-0.1-0.1c0,0,0,0,0-0.1c0.4-0.6,0.8-1.3,1.2-2c0-0.2,0.2-0.3,0.4-0.3c0.1,0,0.2-0.1,0.2-0.2
	c-0.1-0.2-0.3-0.4-0.6-0.4c-0.1-0.1-0.3-0.1-0.5-0.2c0,0-0.1,0-0.1-0.1s0-0.1,0.1-0.1h5.6c0.6,0,1.2,0.1,1.8,0.1
	c0.4,0,0.4-0.2,0.4-0.8c0-0.6,0-0.8-0.4-0.8c-0.6,0-1.2,0-1.8,0h-2.1c-0.2,0-0.4-0.1-0.5-0.3c0-0.1,0-0.1,0-0.2
	c-0.1-0.3,0-0.7,0.2-0.9c0.1,0,0.2-0.1,0.2-0.3c0-0.2-0.3-0.2-0.4-0.2c-0.3,0-1.2-0.1-1.4-0.1c-0.2,0-0.3,0-0.3,0.2
	c0,0.1,0,0.1,0,0.2c0,0.3,0.1,0.7,0.1,1.1c0,0.2-0.1,0.4-0.3,0.5H320h-2c-0.6,0-1.2,0-1.9,0c-0.4,0-0.3,0.2-0.3,0.8
	c0,0.6,0,0.8,0.4,0.8c0.6,0,1.2-0.1,1.8-0.1c0.1,0,0.2,0.1,0.2,0.2l0,0V80c-0.5,1-1.1,1.9-1.7,2.7c-0.5,0.6-1,1.2-1.6,1.8
	c-0.1,0.1-0.2,0.2-0.4,0.2h-0.1c-0.1,0-0.2-0.1-0.3-0.1c-0.1,0-0.2,0.1-0.2,0.3c-0.2,0.6-0.4,1.2-0.6,1.7c-0.2,0.6-1,2.5-1.3,3.1
	c-0.1,0.2-0.2,0.3-0.2,0.5c0.1,0.2,0.2,0.4,0.5,0.4c0.2,0.1,0.3,0.2,0.5,0.2c0.2,0.1,0.5,0.3,0.7,0.3c0.1,0,0.2-0.1,0.2-0.2
	s-0.1-0.2-0.1-0.4c0-0.1,0.1-0.3,0.1-0.4c0.6-1.4,1.2-2.8,1.6-4.3c0-0.1,0.1-0.2,0.3-0.2c0.1,0,0.1,0,0.2,0.1c0.1,0,0.1,0,0.2,0
	c0.2-0.1,0.4-0.2,0.5-0.4c0,0,0.1-0.1,0.2-0.1s0.2,0.1,0.2,0.2l0,0v3.3c0,0.7,0,1.3,0,2c0,0.5,0.2,0.6,0.9,0.6s0.8-0.1,0.8-0.6
	c0-0.7,0-1.3,0-2V86c0-0.1,0-0.2,0.1-0.2l0,0c0.1,0,0.1,0,0.1,0.1c0.2,0.3,0.5,0.4,0.8,0.5C319.8,86.3,320,86.1,320.3,86
	c0-0.2,0-0.2,0.1-0.2C320.2,85.8,320.3,85.9,320.3,86L320.3,86z M332.3,82.7c-0.1,0-0.2,0-0.2,0c-0.2,0-0.2-0.1-0.2-0.3
	c0-0.2,0-0.3,0-0.5l0.1-1.5c0-0.4,0.1-0.5,0.6-0.5h1.7c0.9,0,2.5,0.1,2.6,0.1c0.4,0,0.4-0.1,0.4-0.5v-0.9c0-0.4-0.1-0.5-0.4-0.5
	c-0.1,0-1.8,0-2.6,0h-0.9c-0.9,0-2.4,0-2.6,0c-0.3,0-0.4,0.1-0.4,0.5s-0.1,1.1-0.1,1.6l-0.2,2.1c-0.1,0.5-0.1,1-0.2,1.5
	c0,0.1,0,0.1,0,0.2c0,0.3,0.1,0.3,0.4,0.4c0.2,0.1,0.3,0.1,0.5,0.1s0.3-0.1,0.4-0.1c0.6-0.2,1.2-0.3,1.9-0.3c1.6,0,2.6,0.7,2.6,2
	s-0.8,2.4-2.9,2.4c-0.9,0-1.7-0.2-2.5-0.6c-0.1-0.1-0.2-0.1-0.3-0.2c-0.2,0.1-0.3,0.2-0.3,0.4l-0.3,0.8c0,0.1-0.1,0.2-0.1,0.3
	c0,0.2,0.2,0.3,0.3,0.4c1,0.4,2,0.7,3.1,0.7c3.7,0,5-2.2,5-4.2c0-2.3-1.8-3.5-4.2-3.5C333.2,82.5,332.7,82.6,332.3,82.7L332.3,82.7z
	 M346.5,78c-3.3,0-5.1,2.8-5.1,6.3c0,3.9,2.2,5.9,4.9,5.9c2.8,0,5.2-2.4,5.2-6.4C351.4,79.9,349.2,78,346.5,78L346.5,78z
	 M346.5,79.9c1.7,0,2.9,1.3,2.9,4c0,2.8-1.4,4.5-3.2,4.5c-1.7,0-2.9-1.4-2.9-4.1C343.4,81.9,344.3,79.9,346.5,79.9L346.5,79.9z
	 M358.1,78c-2,0-3.2,1.4-3.2,3.7c0,2.2,1.3,3.4,3,3.4c1.8,0,3.1-1.3,3.1-3.7C361.1,79.2,359.8,78,358.1,78L358.1,78z M359.6,90.1
	c0.3,0.1,0.6-0.1,0.7-0.5c0.3-0.5,0.5-1.1,0.8-1.6l3.8-7.8c0.3-0.5,0.6-1.1,0.9-1.7c0.1-0.1,0.1-0.2,0.1-0.3c0-0.1-0.1-0.2-0.4-0.2
	h-0.9c-0.3-0.1-0.6,0.1-0.7,0.5l0,0c-0.2,0.6-0.5,1.1-0.8,1.6l-3.9,7.8c-0.3,0.5-0.6,1.1-0.8,1.6c-0.1,0.1-0.1,0.2-0.1,0.3
	c0,0.1,0.1,0.2,0.4,0.2L359.6,90.1L359.6,90.1z M358.1,79.6c0.8,0,1.3,0.7,1.3,1.8c0,1.3-0.6,2-1.4,2c-0.7,0-1.3-0.6-1.3-1.8
	C356.7,80.5,357.2,79.6,358.1,79.6L358.1,79.6z M366.2,83.1c-2,0-3.2,1.4-3.2,3.7c0,2.2,1.3,3.4,3,3.4c1.8,0,3.1-1.3,3.1-3.7
	C369.2,84.4,367.9,83.2,366.2,83.1L366.2,83.1z M366.2,84.8c0.8,0,1.3,0.7,1.3,1.8c0,1.3-0.6,2-1.4,2c-0.7,0-1.3-0.6-1.3-1.8
	C364.8,85.6,365.3,84.8,366.2,84.8L366.2,84.8z M385.2,84c0.2,0,0.4,0.1,0.4,0.2c0.1,0.2,0.3,0.2,0.9,0.2c0.7,0,0.8,0,0.8-0.4
	c0-0.5-0.1-1.2-0.1-1.9v-2.9c0-0.4,0-0.9,0-1.4c0-0.6-0.1-0.8-0.8-0.8c-0.4,0-0.8,0-1.2,0H383c-0.6,0-1.1,0-1.7,0
	c-0.4,0-0.4,0.2-0.4,0.8c0,0.6,0,0.8,0.4,0.8c0.6,0,1.1-0.1,1.7-0.1h2c0.2,0,0.4,0.1,0.5,0.3v0.1v2.7c0,0.2-0.1,0.4-0.3,0.5
	c-0.1,0-0.1,0-0.2,0h-2c-0.4,0-0.8,0-1.2,0c-0.7,0-0.8,0.1-0.8,0.7c0,0.4,0,0.7,0,1.1v3.3c0,0.5,0,1,0,1.5c0,1.6,0.8,2,2.3,2h1.6
	c1,0,1.8,0,2.3-1c0.3-0.8,0.5-1.7,0.6-2.5c0-0.3-0.1-0.6-1.1-0.6c-0.5,0-0.5,0.1-0.5,0.5c-0.1,1.8-0.4,2-1.3,2h-1.3
	c-0.9,0-0.8-0.3-0.8-1.6v-3.1c0-0.2,0.1-0.4,0.3-0.5h0.1L385.2,84L385.2,84z M376.7,80c-0.2,0-0.4-0.1-0.4-0.4c0,0,0,0,0-0.1v-1
	c0-0.2,0.1-0.4,0.3-0.4c0,0,0,0,0.1,0h0.1c0.2,0,0.4,0.1,0.4,0.3l0,0v1c0,0.2-0.2,0.4-0.4,0.4C376.8,80,376.8,80,376.7,80L376.7,80z
	 M374.5,88c0-0.3,0.2-0.5,0.5-0.5h3.4c0.3,0,0.5,0.2,0.5,0.5v0.3c0,0.3-0.2,0.5-0.5,0.5H375c-0.3,0-0.5-0.2-0.5-0.5V88L374.5,88z
	 M376.7,81.3c0.2,0,0.4,0.1,0.5,0.3v0.1V83c0,0.4,0,0.8,0,1.2c-0.1,0.3,0.1,0.6,0.4,0.7c0.1,0,0.2,0,0.3,0c0.2,0,0.4,0,0.6,0
	s0.4,0.1,0.4,0.3v0.1v0.4c0,0.2-0.1,0.4-0.4,0.5h-0.1H375c-0.2,0-0.4-0.1-0.5-0.4v-0.1v-4.1c0-0.2,0.1-0.3,0.2-0.3h0.1h0.2
	c0.1,0,0.3,0.1,0.3,0.2v0.1c0.1,1.1-0.2,2.2-0.6,3.2c-0.1,0.1-0.1,0.2-0.1,0.3c0.1,0.3,0.4,0.5,0.7,0.6c0.3-0.2,0.5-0.5,0.5-0.8
	c0.3-1,0.5-2.1,0.4-3.2c0-0.2,0.1-0.4,0.3-0.4C376.6,81.3,376.6,81.3,376.7,81.3L376.7,81.3L376.7,81.3z M378,81.7
	c0-0.2,0.2-0.4,0.4-0.4l0,0l0,0c0.2,0,0.4,0.1,0.4,0.4l0,0v1.4c0,0.2-0.2,0.4-0.4,0.4l0,0l0,0c-0.2,0-0.4-0.2-0.4-0.4l0,0V81.7
	L378,81.7z M374.6,79.9c-0.2,0-0.4,0-0.7,0c-0.6,0-0.7,0.2-0.7,0.9c0,0.5,0,0.9,0,1.4V89c0,0.6,0,1.3,0,1.9c0,0.4,0.2,0.4,0.7,0.4
	s0.7,0,0.7-0.4v-0.3c0-0.2,0.1-0.4,0.3-0.4h0.1h3.4c0.2,0,0.3,0.1,0.4,0.2v0.1v0.1c0,0.4,0.2,0.4,0.7,0.4s0.7,0,0.7-0.5
	c0-0.6,0-1.2,0-1.8v-6.6c0-0.5,0-1,0-1.5c0-0.6-0.1-0.8-0.7-0.8c-0.3,0-0.5,0-0.8,0c-0.2,0-0.4-0.1-0.5-0.4v-0.1v-0.8
	c0-0.2,0.1-0.4,0.3-0.5h0.1c0.5,0,1,0,1.5,0c0.4,0,0.4-0.2,0.4-0.8s0-0.8-0.4-0.8c-0.6,0-1.3,0-1.9,0H375c-0.6,0-1.3,0-1.9,0
	c-0.4,0-0.4,0.2-0.4,0.8c0,0.6,0,0.8,0.4,0.8c0.2,0,1.2,0,1.4,0c0.2,0,0.4,0.1,0.5,0.3v0.1v0.8c0,0.2-0.1,0.4-0.3,0.5
	C374.7,79.9,374.6,79.9,374.6,79.9L374.6,79.9z M396.3,88.8c-0.3,0-0.5-0.2-0.5-0.5v-1.6c0-0.3,0.2-0.5,0.5-0.5l0,0h5.2
	c0.3,0,0.5,0.2,0.5,0.5l0,0v1.6c0,0.3-0.2,0.5-0.5,0.5H396.3z M401.6,90.4c0.2,0,0.4,0.1,0.4,0.3v0.1V91c0,0.4,0.2,0.4,0.9,0.4
	c0.7,0,0.9,0,0.9-0.4c0-0.3,0-0.8,0-1.2v-3.1c0-0.3,0-0.7,0-1c0-0.8-0.5-0.9-1.2-0.9c-0.4,0-0.8,0-1.3,0h-4.8c-0.4,0-0.8,0-1.3,0
	c-0.7,0-1.2,0.2-1.2,1c0,0.3,0,0.7,0,1v3c0,0.2,0,1.2,0,1.2c0,0.4,0.2,0.4,0.9,0.4c0.7,0,0.9,0,0.9-0.4v-0.2c0-0.2,0.1-0.4,0.3-0.4
	h0.1H401.6L401.6,90.4z M399.2,78.5c0.6,0.8,1.3,1.6,2.1,2.3c0.1,0.1,0.1,0.1,0.2,0.2c0.2,0.1,0.3,0.3,0.4,0.5
	c0,0.3-0.3,0.2-1.4,0.2h-3.2c-0.4,0-0.8,0-1.2,0c-0.1,0-0.2-0.1-0.2-0.2l0,0c0-0.1,0-0.1,0.1-0.2c0.9-0.9,1.8-1.8,2.6-2.8
	c0.1-0.1,0.2-0.1,0.3-0.2C399.1,78.3,399.2,78.4,399.2,78.5L399.2,78.5z M395.4,82.5c0,0.4,0,0.7,0.3,0.7c0.6,0,1.1,0,1.7,0h3.2
	c0.5,0,1.1,0,1.7,0c0.3,0,0.3-0.3,0.3-0.7v-0.3c0-0.1,0-0.3,0.2-0.3c0.1,0,0.1,0,0.2,0.1c0.9,0.7,1.9,1.4,3,1.9
	c0.4-0.3,0.7-0.8,0.8-1.3c0-0.2-0.1-0.2-0.5-0.4c-2.4-1.2-4.4-3-6-5.1V77c0-0.1,0-0.1,0.1-0.1s0.2-0.1,0.2-0.2
	c0-0.2-0.2-0.3-0.3-0.3c-0.3-0.1-1.4-0.4-1.7-0.4c-0.1,0-0.2,0.1-0.3,0.2c-0.4,0.7-0.9,1.3-1.4,2c-1.4,1.7-3,3-4.9,4.1
	c-0.2,0.1-0.4,0.2-0.5,0.4c0.1,0.5,0.5,1,1.1,1.2c0.9-0.5,1.8-1,2.6-1.7l0.1-0.1c0.1,0,0.2,0.1,0.2,0.2l0,0L395.4,82.5L395.4,82.5z
	 M412.8,86.9c0.8,0,1.5,0.6,1.5,1.5l0,0c0,0.8-0.7,1.5-1.5,1.5s-1.5-0.7-1.5-1.5S411.9,86.9,412.8,86.9L412.8,86.9L412.8,86.9z
	 M412.8,86.1c-1.3,0-2.4,1.1-2.4,2.4s1.1,2.4,2.4,2.4s2.4-1.1,2.4-2.4l0,0C415.1,87.1,414.1,86.1,412.8,86.1L412.8,86.1z M4.3,117.4
	c-0.3-0.6-0.7-1.1-1.2-1.6c-0.4-0.4-0.8-0.8-1.2-1.2c-0.1-0.1-0.2-0.2-0.4-0.2c-0.5,0.1-0.8,0.5-1.1,0.9c0,0.1,0.1,0.3,0.2,0.3
	c0.8,0.7,1.5,1.5,2.2,2.3c0.1,0.1,0.2,0.2,0.3,0.2C3.7,118.2,4.1,117.8,4.3,117.4z M2.3,125.3c0,0.3-0.1,0.6-0.4,0.7
	c-0.4,0.3-0.8,0.5-1.2,0.8c-0.3,0-0.5,0.2-0.7,0.5c0.1,0.3,0.2,0.6,0.4,0.9c0.4,0.8,0.4,0.9,0.6,0.9c0.1,0,0.3-0.1,0.3-0.3
	c0-0.1,0.1-0.2,0.2-0.3c0.4-0.3,0.9-0.7,1.3-1c0.1-0.1,0.1-0.1,0.2-0.1c0.1,0,0.2,0.1,0.3,0.2c0.3,0.5,0.9,0.9,1.4,1.1
	c0.8,0.2,1.7,0.3,2.6,0.3c1,0,2.1,0,3.1,0c0.8,0,1.5,0,2.3,0c0.3,0,0.6,0,0.8,0h0.6c0.7,0,1-0.1,1-1.2c0-0.3,0-0.5-0.3-0.5
	c-0.1,0-0.3,0-0.5,0c-1.4,0-2.7,0.1-4.1,0.1c-0.4,0-1,0-1.6,0c-1.3,0.1-2.5-0.1-3.7-0.4c-1-0.4-1-1.2-1-2.1v-2.4c0-0.5,0-0.9,0-1.4
	c0-0.4-0.3-0.8-0.7-0.8c-0.1,0-0.2,0-0.3,0c-0.3,0-0.7,0-1,0H1.5c-0.3,0-0.6-0.1-0.8-0.1c-0.4,0-0.4,0.2-0.4,0.8
	c0,0.6,0,0.8,0.4,0.8c0.3,0,0.6-0.1,0.8-0.1h0.3c0.2,0,0.4,0.1,0.5,0.3v0.1V125.3L2.3,125.3z M10.8,116.7c-0.3,0-0.6,0-1,0
	c-0.5,0-0.7,0.1-0.7,0.6c0,0.3,0,0.6,0,0.9v0.6c0,0.2-0.1,0.4-0.3,0.4H8.7H8.5c-0.2,0-0.4-0.1-0.4-0.3v-0.1v-2.5
	c0-0.2,0.1-0.4,0.3-0.5c0.1,0,0.1,0,0.2,0h2.8c0.2,0,0.4,0.1,0.4,0.3v0.1v0.1c0,0.2-0.1,0.4-0.3,0.4h-0.1H10.8z M10.9,119.2
	c-0.3,0-0.5-0.2-0.5-0.5v-0.4c0-0.3,0.2-0.5,0.5-0.5h0.4c0.3,0,0.5,0.2,0.5,0.5v0.4c0,0.3-0.2,0.5-0.5,0.5H10.9z M9.1,123.2
	c0-0.2,0.2-0.5,0.4-0.5l0,0h0.7c0.2,0,0.5,0.2,0.5,0.4l0,0v0.4c0,0.3-0.2,0.5-0.5,0.5H9.6c-0.3,0-0.5-0.2-0.5-0.5V123.2z M6.1,119.2
	c-0.5,0-0.9,0.1-0.9,0.7c0,0.4,0,0.8,0,1.2v3.4c0,0.6,0,1.1,0,1.7c0,0.5,0.2,0.5,0.8,0.5s0.8,0,0.8-0.5c0-0.6,0-1.1,0-1.7v-3.4
	c0-0.2,0.1-0.4,0.3-0.5h0.1h5.4c0.2,0,0.4,0.1,0.5,0.3v0.1v3.2c0,0.6,0.1,0.8-0.6,0.8c-0.1,0-0.3,0-0.4,0c-0.1,0-0.2-0.1-0.2-0.2
	l0,0v-0.1c0-0.1,0-0.1,0-0.2c0-0.2,0-0.4,0-0.6v-1.2c0-0.2,0-0.4,0-0.7c0.1-0.3-0.1-0.6-0.4-0.6c-0.1,0-0.2,0-0.2,0
	c-0.3,0-0.5,0-0.8,0H9.4c-0.3,0-0.5,0-0.8,0C8.3,121.5,8,121.7,8,122c0,0.1,0,0.1,0,0.2c0,0.2,0,0.4,0,0.7v2.1c0,0.2,0,0.5,0,0.7
	c0,0.3,0.2,0.3,0.6,0.3c0.5,0,0.6,0,0.6-0.4c0-0.3,0.1-0.3,0.5-0.3h0.9c0.2,0,0.5,0,0.7,0c0.1,0,0.3,0.1,0.3,0.2c0,0,0,0,0,0.1
	c0.1,1,0.3,1.1,0.9,1.1c0.7,0.1,1.3-0.1,1.9-0.4c0.3-0.3,0.5-0.7,0.4-1.1c0-0.4,0-0.7,0-1.1v-3c0-0.4,0-0.8,0-1.2
	c0-0.6-0.4-0.6-0.9-0.7c-0.2,0-0.4-0.1-0.5-0.3v-0.1v-2.5c0-0.4,0-0.7,0-1.1c0.1-0.3-0.2-0.7-0.5-0.7c-0.1,0-0.2,0-0.3,0
	c-0.4,0-0.7,0-1.1,0H8.4c-0.4,0-0.7,0-1.1,0c-0.3-0.1-0.7,0.1-0.7,0.5c0,0.1,0,0.2,0,0.3c0,0.3,0,0.7,0,1.1v2.5
	c0,0.2-0.1,0.4-0.3,0.5C6.2,119.2,6.2,119.2,6.1,119.2L6.1,119.2z M29.4,116.3c0,0.2-0.1,0.4-0.3,0.4H29h-0.1
	c-0.2,0-0.3-0.1-0.3-0.2c0,0,0,0,0-0.1v-0.1c0-0.2,0.1-0.3,0.1-0.4c0-0.2,0.1-0.3,0.2-0.4c0.1,0,0.1-0.1,0.1-0.2
	c-0.1-0.2-0.3-0.3-0.5-0.3s-0.9-0.2-1-0.2c-0.2,0-0.2,0.2-0.2,0.4c-0.1,1.3-0.4,2.5-0.8,3.7c0,0.1-0.1,0.2-0.1,0.4
	c0,0.3,0.9,0.5,1.1,0.5s0.3-0.3,0.6-1.3c0.1-0.3,0.3-0.5,0.6-0.4H29c0.2,0,0.4,0.1,0.5,0.3v0.1v1.2c0,0.2-0.1,0.4-0.3,0.5
	c-0.1,0-0.1,0-0.2,0h-0.5c-0.6,0-1.2,0-1.7,0c-0.4,0-0.4,0.2-0.4,0.8c0,0.5,0,0.8,0.4,0.8c0.6,0,1.2,0,1.7,0h3.4c0.6,0,1.2,0,1.7,0
	c0.4,0,0.4-0.2,0.4-0.8c0-0.6,0-0.8-0.4-0.8c-0.6,0-1.2,0-1.7,0h-0.4c-0.2,0-0.4-0.1-0.5-0.3c0-0.1,0-0.1,0-0.2v-1.2
	c0-0.2,0.1-0.4,0.3-0.5c0.1,0,0.1,0,0.2,0c0.6,0,1.2,0,1.8,0c0.4,0,0.4-0.2,0.4-0.8c0-0.6,0-0.8-0.4-0.8c-0.6,0-1.2,0.1-1.8,0
	c-0.2,0-0.4-0.1-0.5-0.3c0-0.1,0-0.1,0-0.2v-0.7c-0.1-0.3,0-0.6,0.2-0.8c0.1,0,0.2-0.1,0.2-0.2c0-0.2-0.2-0.2-0.4-0.2
	c-0.3,0-1.2-0.1-1.4-0.1c-0.1,0-0.2,0-0.3,0.2v0.1v0.2c0.1,0.4,0.1,0.8,0.1,1.2L29.4,116.3L29.4,116.3z M29.3,127
	c-0.3,0-0.5-0.2-0.5-0.5V125c0-0.3,0.2-0.5,0.5-0.5l0,0H31c0.3,0,0.5,0.2,0.5,0.5l0,0v1.6c0,0.3-0.2,0.5-0.5,0.5L29.3,127L29.3,127z
	 M31.5,128.8c0,0.1,0,0.2,0,0.3c0,0.3,0.2,0.3,0.8,0.3s0.8,0,0.8-0.3c0-0.2,0-0.7,0-1.1v-3.6c0-0.3,0-0.5,0-0.8
	c0-0.6-0.4-0.7-0.9-0.7c-0.4,0-0.7,0-1.1,0h-1.9c-0.4,0-0.8,0-1.1,0c-0.5,0-0.9,0.1-0.9,0.7c0,0.2,0,0.5,0,0.8v3.5
	c0,0.3,0,0.8,0,1.1s0.2,0.3,0.8,0.3s0.8,0,0.8-0.3c0-0.1,0-0.2,0-0.3c0-0.2,0.1-0.3,0.3-0.4h0.1h1.9
	C31.3,128.4,31.5,128.5,31.5,128.8C31.5,128.7,31.5,128.8,31.5,128.8L31.5,128.8z M20.7,126.1c0-0.2,0.2-0.4,0.4-0.5l0,0h3
	c0.2,0,0.5,0.2,0.5,0.4l0,0v0.2c0,0.3-0.2,0.5-0.5,0.5h-3c-0.3,0-0.5-0.2-0.5-0.5l0,0v-0.1H20.7z M23.9,119.7c0-0.2,0.1-0.3,0.3-0.3
	h0.1c0.2,0,0.3,0.1,0.3,0.3v1.6c0,0.2-0.1,0.3-0.3,0.3l0,0h-0.1c-0.2,0-0.3-0.1-0.3-0.3l0,0V119.7z M22.8,119.4
	c0.1,0,0.3,0.1,0.3,0.2v0.1v1.4c0,0.4,0,0.8,0,1.2c-0.1,0.3,0.2,0.6,0.5,0.7c0.1,0,0.2,0,0.3,0h0.3c0.2,0,0.4,0.1,0.5,0.3
	c0,0.1,0,0.1,0,0.2v0.5c0,0.2-0.1,0.4-0.3,0.5c-0.1,0-0.1,0-0.2,0h-3c-0.2,0-0.4-0.1-0.5-0.3c0-0.1,0-0.1,0-0.2v-4.2
	c0-0.1,0.1-0.3,0.2-0.3H21h0.2c0.1,0,0.3,0.1,0.3,0.2v0.1c0,1-0.1,1.9-0.4,2.8c-0.1,0.2-0.2,0.3-0.2,0.5c0.1,0.3,0.4,0.4,0.6,0.4
	c0.2-0.1,0.3-0.2,0.4-0.5c0.4-1.1,0.5-2.2,0.5-3.4c0-0.1,0.1-0.3,0.2-0.3C22.6,119.4,22.7,119.4,22.8,119.4L22.8,119.4L22.8,119.4z
	 M22.8,116.2c0.2,0,0.3,0.1,0.3,0.3l0,0v1.1c0,0.2-0.1,0.3-0.3,0.3l0,0h-0.1c-0.2,0-0.3-0.1-0.3-0.3l0,0v-1.1c0-0.2,0.1-0.3,0.3-0.3
	C22.7,116.2,22.7,116.2,22.8,116.2L22.8,116.2z M24.2,116.7c0-0.2,0.1-0.4,0.3-0.5h0.1c0.5,0,1.1,0,1.6,0c0.4,0,0.4-0.2,0.4-0.8
	s0-0.8-0.4-0.8c-0.6,0-1.3,0-1.9,0h-3.2c-0.6,0-1.2,0-1.9,0c-0.4,0-0.4,0.2-0.4,0.8c0,0.6,0,0.8,0.4,0.8c0.5,0,1-0.1,1.5,0
	c0.2,0,0.4,0.1,0.4,0.3v0.1v0.8c0,0.2-0.1,0.4-0.3,0.5c0,0-0.1,0-0.2,0c-0.2,0-0.5,0-0.7,0c-0.6,0-0.7,0.3-0.7,0.9c0,0.5,0,1,0,1.4
	v6.8c0,0.7,0,1.3,0,2c0,0.4,0.2,0.4,0.7,0.4c0.6,0,0.7,0,0.7-0.4c0-0.1,0-0.2,0-0.3c0-0.2,0.2-0.4,0.4-0.4h0.1h3
	c0.2,0,0.4,0.1,0.4,0.3v0.1c0,0.5,0.1,0.6,0.7,0.6c0.5,0,0.7,0,0.7-0.4c0-0.6,0-1.2,0-1.8v-6.6c0-0.5,0-1,0-1.5
	c0-0.6-0.2-0.8-0.7-0.8c-0.2,0-0.4,0-0.7,0c-0.2,0-0.4-0.1-0.4-0.3v-0.1L24.2,116.7L24.2,116.7z M44.9,125.8c0.8,0,0.9,0.2,0.9,0.5
	c0.1,0.4-0.2,0.8-0.7,0.9c-0.1,0-0.2,0-0.2,0c-0.5,0.1-1-0.3-1.1-0.8C43.8,125.9,44.5,125.8,44.9,125.8L44.9,125.8z M45.8,119.8
	c-0.2,0-0.4,0.1-0.4,0.3v0.1c0,0.1,0,0.2,0,0.2c0.1,0.7,0.3,3.1,0.3,3.7c0,0.2-0.1,0.3-0.3,0.3c0,0,0,0-0.1,0h-0.4
	c-1.3,0-2.8,0.5-2.8,2.1c0,1.6,1.6,2.3,3,2.3c1.1,0.2,2.2-0.6,2.4-1.7c0-0.2,0.1-0.3,0.3-0.4c0.5,0.2,0.9,0.5,1.4,0.8
	c0.1,0.1,0.3,0.2,0.4,0.2c0.5-0.2,0.9-0.7,1.1-1.2c0-0.4-2-1.3-2.4-1.5c-0.1,0-0.1-0.1-0.2-0.1c-0.2,0-0.4-0.2-0.5-0.4
	c-0.1-0.3-0.2-2.8-0.2-3.3c0-0.4,0-0.9,0-0.9c0-0.2-0.2-0.3-0.3-0.3C46.6,119.9,46.2,119.8,45.8,119.8L45.8,119.8z M48.4,117.2
	c-0.5,0.2-0.9,0.6-1.1,1.2c0,0.1,0.1,0.2,0.2,0.3c0.8,0.6,1.5,1.4,2.1,2.2c0.1,0.2,0.2,0.3,0.4,0.3c0.6-0.2,1-0.6,1.3-1.2
	C50.5,118.8,49.5,117.9,48.4,117.2L48.4,117.2z M42.7,114.4c-0.2,0-0.2,0.2-0.2,0.3c0,1-0.2,1.9-0.5,2.8c-0.1,0.2-0.3,0.3-0.5,0.3
	c-0.6,0.1-1.2,0.1-1.8,0.1h-0.8c-0.1,0-0.3,0-0.3,0.2v0.1c0,0.2,0.1,0.8,0.1,1c0.1,0.4,0.1,0.5,0.4,0.5c0.4,0,1.7-0.2,1.8-0.2
	s0.2,0.1,0.2,0.2l0,0c-0.1,0.4-0.2,0.7-0.4,1c-0.6,1.4-1.3,2.7-2,3.9c-0.1,0.2-0.2,0.4-0.3,0.6c0,0.4,1.1,0.8,1.5,0.8
	c0.2,0,0.3-0.1,0.3-0.2c1.1-1.9,2-4,2.8-6.1c0.2-0.6,0.2-0.7,0.8-0.8c1.6-0.3,1.8-0.3,1.8-0.7c0-0.3,0-0.6-0.1-0.9
	c0-0.2-0.1-0.5-0.3-0.5c-0.1,0-0.1,0-0.2,0c-0.3,0.1-0.6,0.2-1,0.3c-0.1,0-0.2-0.1-0.2-0.2l0,0c0-0.3,0.1-0.5,0.2-0.8
	c0.1-0.3,0.2-0.6,0.3-0.9c0.1-0.1,0.2-0.2,0.3-0.3c0-0.1-0.2-0.2-0.3-0.2C44.3,114.8,42.9,114.4,42.7,114.4L42.7,114.4z M69.5,128.1
	c0-0.1-0.1-0.2-0.2-0.3c-0.3-0.2-1.3-0.7-1.6-0.9c-0.7-0.4-1.5-0.7-2.3-1c-0.4,0.2-0.8,0.6-0.9,1c0.1,0.2,0.2,0.3,0.4,0.3
	c1.1,0.5,2.2,1,3.2,1.6c0.1,0.1,0.3,0.2,0.5,0.2C69.1,128.9,69.4,128.5,69.5,128.1L69.5,128.1z M60.9,127.1
	c-0.2-0.3-0.4-0.5-0.6-0.7l-0.1-0.1c-0.1-0.2-0.3-0.3-0.5-0.3c-0.1,0-0.2,0.1-0.3,0.2c-1,0.7-2,1.2-3.1,1.6
	c-0.4,0.1-0.5,0.2-0.5,0.3c0.1,0.5,0.4,0.9,0.9,1.1c0.3-0.1,0.5-0.1,0.8-0.3c1-0.4,1.9-0.9,2.8-1.5c0.1-0.1,0.2-0.1,0.3-0.1h0.1h0.1
	C60.8,127.3,60.9,127.2,60.9,127.1L60.9,127.1z M65.2,118c0-0.3,0.1-0.5,0.4-0.6l0,0c1.1-0.3,2.2-0.6,3.3-1.1c0.1,0,0.1,0,0.2-0.1
	c0.1,0,0.2,0,0.2,0.1c0.1,0,0.1,0,0.2,0.1c0.1,0,0.2-0.1,0.2-0.1l0,0c-0.1-0.3-0.3-0.6-0.5-0.8c-0.1-0.3-0.3-0.5-0.5-0.6
	c-0.1,0-0.1,0-0.2,0.1c-0.9,0.4-1.8,0.8-2.8,1.1c-0.1,0-0.1,0-0.2,0c-0.2,0-0.3-0.1-0.3-0.3l0,0v-0.2c0-0.3,0-0.6,0.2-0.8
	c0.1,0,0.2-0.1,0.2-0.2c0-0.2-0.2-0.2-0.3-0.2c-0.3,0-1.2-0.1-1.5-0.1c-0.2,0-0.3,0-0.3,0.2c0,0.1,0,0.1,0,0.2
	c0,0.4,0.1,0.8,0.1,1.3v2.7c0,0.3,0,0.6,0,0.9c0,1.1,0.9,1.2,1.8,1.2h2.7c0.6,0.1,1.2-0.1,1.6-0.5c0.4-0.6,0.6-1.2,0.6-1.9
	c0-0.2-0.1-0.4-0.3-0.4c-0.3-0.1-0.6-0.2-0.9-0.2s-0.4,0.2-0.4,0.4c-0.1,0.9-0.2,1.1-0.9,1.1h-1.6c-0.8,0-1-0.1-1-0.9L65.2,118
	L65.2,118z M61.1,115.7c-0.2,0-0.4-0.1-0.5-0.3v-0.1c-0.1-0.2,0-0.5,0.2-0.6c0.1,0,0.2-0.1,0.2-0.2c0-0.2-0.3-0.2-0.4-0.2
	c-0.3,0-1.1-0.1-1.4-0.1c-0.1,0-0.3,0-0.3,0.2c0,0.1,0,0.1,0,0.2c0,0.3,0.1,0.7,0.1,1v3.1c0.1,0.2-0.1,0.5-0.3,0.5h-0.1l-0.3,0.1
	h-0.1c-0.2,0-0.4-0.2-0.4-0.4c0,0,0,0,0-0.1v-2c0-0.5,0-0.7,0.2-0.8c0.1,0,0.2-0.1,0.2-0.2c0-0.2-0.3-0.2-0.4-0.2
	c-0.3,0-1.1-0.1-1.3-0.1c-0.1,0-0.3,0-0.3,0.2c0,0.1,0,0.1,0,0.1c0,0.3,0.1,0.7,0.1,1.1v2.1c0,0.2-0.1,0.5-0.3,0.5h-0.1
	c-0.1,0-0.2,0-0.3,0c-0.3,0-0.4,0.1-0.4,0.2c0.1,0.4,0.2,0.7,0.3,1.1c0.1,0.3,0.2,0.6,0.3,0.6s0.2-0.1,0.2-0.2
	c0.1-0.1,0.2-0.2,0.4-0.2c1.7-0.3,4.6-0.7,6.2-1.1c0.3-0.1,0.5-0.2,0.5-0.7c0-0.2,0-0.7-0.3-0.7c-0.1,0-1.6,0.3-1.8,0.3h0
	c-0.2,0-0.4-0.1-0.4-0.3v-0.1v-0.7c0-0.2,0.1-0.4,0.3-0.5c0,0,0.1,0,0.2,0c0.5,0,1,0,1.5,0c0.3,0,0.3-0.2,0.3-0.7s0-0.7-0.3-0.7
	C62.1,115.7,61.6,115.7,61.1,115.7L61.1,115.7z M56.8,125.9c1.5-0.1,3-0.1,4.6-0.2c0.2,0,0.4,0.1,0.4,0.3v0.1v0.6c0,0.7,0,1.4,0,2
	c0,0.5,0.2,0.5,0.9,0.5s0.9,0,0.9-0.5c0-0.7,0-1.4,0-2V126c-0.1-0.2,0.1-0.4,0.3-0.5H64c1.1-0.1,2.2-0.2,3.3-0.2h0.1
	c0.2,0,0.5,0.1,0.5,0.3l0.1,0.1c0.1,0.2,0.2,0.3,0.4,0.4c0.4,0,0.9-0.3,1.1-0.7c-0.3-0.6-0.6-1.1-1-1.6c-0.2-0.3-0.7-0.9-0.9-1.2
	c-0.1-0.1-0.2-0.2-0.4-0.2c-0.4,0-0.8,0.3-1,0.6c0.1,0.2,0.2,0.3,0.3,0.4c0.1,0.1,0.2,0.2,0.2,0.3c0,0.1-0.1,0.2-0.2,0.2l0,0
	c-0.9,0.1-1.8,0.1-2.7,0.1c-0.1,0-0.2,0-0.2-0.1l0,0c0-0.1,0-0.1,0.1-0.1c0.6-0.5,1.2-1.1,1.7-1.7c0.1-0.1,0.2-0.1,0.3-0.1h0.1
	c0.1,0,0.2,0,0.2-0.1l0,0c-0.1-0.2-0.3-0.4-0.5-0.4c-0.3-0.2-0.7-0.4-1.1-0.6c-0.1,0-0.3,0.1-0.3,0.3c-0.6,0.7-1.2,1.3-1.8,1.9
	c-0.1,0.1-0.2,0.2-0.4,0.2c-0.1,0-0.2,0-0.3-0.1c-0.2-0.1-0.3-0.2-0.5-0.3c-0.1-0.1-0.2-0.2-0.2-0.3c0-0.1,0-0.2,0.1-0.3
	c0.4-0.4,0.6-0.6,0.9-1c0.1-0.1,0.2-0.1,0.3-0.2c0.1,0,0.3,0,0.3-0.2c0-0.1-0.1-0.2-0.2-0.2c-0.4-0.3-0.8-0.5-1.3-0.7
	c-0.1,0-0.2,0.1-0.3,0.2c-0.3,0.4-0.7,0.8-1,1.2c-0.1,0.1-0.2,0.2-0.4,0.2c-0.1,0-0.2,0-0.3-0.1l-0.1-0.1c-0.2-0.1-0.4-0.2-0.6-0.3
	c-0.4,0.2-0.7,0.6-0.9,1c0,0.2,0.2,0.3,0.3,0.3c0.8,0.4,1.6,0.9,2.4,1.4c0.1,0,0.1,0.1,0.1,0.1c0,0.1-0.1,0.1-0.2,0.1
	c-1.1,0-2.3,0-3.4,0H56c-0.2,0-0.3,0-0.3,0.2c0.1,0.4,0.2,0.9,0.3,1.3c0,0.1,0.1,0.3,0.3,0.3c0.1,0,0.2-0.1,0.2-0.2
	C56.7,126,56.8,125.9,56.8,125.9L56.8,125.9z M77.6,124.3c-0.9,1.3-2.1,2.5-3.4,3.4c-0.2,0.1-0.4,0.3-0.4,0.5c0.2,0.5,0.5,0.9,1,1.1
	c0.5,0,2.5-2,2.9-2.5c1.9-2.1,3.2-4.7,3.8-7.5c0-0.1,0.1-0.2,0.2-0.2s0.1,0,0.2,0.1c0.5,0.8,1.1,1.5,1.7,2.1
	c0.2,0.2,0.3,0.5,0.3,0.8v4c0,0.9-0.1,1.8-0.1,2.7c0,0.5,0.2,0.5,0.9,0.5c0.7,0,0.9,0,0.9-0.4c0-0.9,0-1.8,0-2.7v-2.4
	c0-0.1,0.1-0.2,0.2-0.2l0,0c0.1,0,0.1,0,0.2,0.1c0.7,0.5,1.4,1,2.2,1.3c0.5-0.3,0.9-0.7,1-1.2c-0.1-0.2-0.2-0.3-0.4-0.4
	c-1-0.6-2-1.3-2.9-2c-0.2-0.2-0.4-0.5-0.3-0.8v-4.7c0-0.8,0-1,0.2-1.1c0.1,0,0.2-0.1,0.2-0.2c0-0.2-0.3-0.2-0.5-0.2
	c-0.3,0-1.1-0.1-1.4-0.1c-0.1,0-0.3,0-0.3,0.2c0,0.1,0,0.1,0,0.2c0,0.4,0.1,1.1,0.1,1.6v2.6c0,0.1-0.1,0.2-0.2,0.2s-0.1,0-0.1-0.1
	c-0.3-0.4-0.5-0.8-0.7-1c-0.1-0.3-0.3-0.5-0.5-0.6c-0.2,0-0.4,0.1-0.5,0.3c-0.1,0.1-0.2,0.1-0.3,0.1c-0.1,0-0.2-0.1-0.3-0.1
	c-0.2-0.2-0.5-0.3-0.7-0.3c-0.4,0-0.8,0-1.1,0h-1.1c-0.2,0-0.3-0.1-0.4-0.3c0,0,0,0,0-0.1s0-0.1,0-0.1c0.1-0.5,0.2-0.8,0.3-1.1
	c0-0.3,0.1-0.6,0.4-0.8c0.1,0,0.2-0.2,0.3-0.3c0-0.1-0.1-0.2-0.2-0.2c-0.5-0.2-1.1-0.3-1.6-0.4c-0.1,0-0.2,0.2-0.2,0.3
	c-0.4,2.6-1.3,5-2.8,7.2c-0.2,0.2-0.3,0.4-0.4,0.7c0.2,0.5,0.6,0.8,1.1,0.9c0.6,0,2.1-3.3,2.4-3.9c0.1-0.3,0.3-0.4,0.6-0.4h1.5
	c0.4,0,0.5,0,0.5,0.2c-0.2,1-0.5,1.9-0.9,2.8c-0.1,0.1-0.2,0.2-0.3,0.2c-0.1,0-0.2,0-0.3-0.1c-0.4-0.4-0.8-0.7-1.3-1
	c-0.4,0.3-0.8,0.7-0.9,1.2c0.1,0.3,0.3,0.5,0.6,0.7c0.2,0.2,0.4,0.4,0.7,0.6c0.1,0.1,0.2,0.2,0.2,0.4
	C77.6,124.1,77.6,124.2,77.6,124.3L77.6,124.3z M99,126.1c-0.1-0.5-0.2-1-0.4-1.4c-0.3-0.9-0.4-1.2-0.7-1.2c-0.4,0-0.7,0.2-1,0.4
	c0,0.1,0,0.2,0.1,0.2c0.2,0.5,0.5,1.5,0.7,2c0,0.2,0.2,0.4,0.4,0.5C98.5,126.7,98.8,126.4,99,126.1L99,126.1z M93.4,123.8
	c-0.2,0-0.2,0.2-0.2,0.3c-0.1,1.2-0.3,2.4-0.6,3.6c0,0.1-0.1,0.3-0.1,0.4c0.2,0.3,0.6,0.5,1,0.5c0.2,0,0.4-0.2,0.4-0.4
	c0.3-1.1,0.5-2.2,0.6-3.3c0-0.2,0.1-0.3,0.3-0.4c0.1,0,0.2-0.1,0.2-0.2s-0.2-0.2-0.3-0.2C94.3,124,93.6,123.8,93.4,123.8L93.4,123.8
	z M101.5,120.4c-0.2,0-0.4-0.1-0.4-0.3V120v-0.2c0-0.2,0.1-0.4,0.3-0.4h0.1h3.4c0.2,0,0.4,0.1,0.4,0.3v0.1v0.2
	c0,0.2-0.1,0.4-0.3,0.4h-0.1H101.5L101.5,120.4z M101.5,118.2c-0.2,0-0.4-0.1-0.4-0.3c0,0,0,0,0-0.1v-0.1c0-0.2,0.1-0.4,0.3-0.4l0,0
	h3.4c0.2,0,0.4,0.1,0.4,0.4l0,0v0.1c0,0.2-0.1,0.4-0.3,0.4c0,0,0,0-0.1,0H101.5z M102.3,114.3c-0.2,0.5-0.3,0.7-0.5,1.2
	c-0.1,0.3-0.4,0.4-0.7,0.4c-0.3,0-0.6,0-0.9,0c-0.3-0.1-0.6,0.1-0.7,0.4c0,0.1,0,0.2,0,0.3c0,0.3,0,0.7,0,1v2.6c0,0.4,0,0.8,0,1.3
	c0,0.6,0.3,0.6,0.9,0.6c0.2,0,0.4,0,0.6-0.1c0.1,0,0.2-0.1,0.2-0.1h0.7c0.2,0,0.4,0.1,0.5,0.3v0.1c0,0.2,0,0.4,0,0.6v3.9
	c0,0.7,0.1,1-0.7,1c-0.1,0-0.3,0-0.4,0s-0.2,0-0.3,0c-0.2,0-0.3,0.1-0.3,0.3v0.1c0,1.4,0.5,1.3,1,1.3c1,0,2.4,0,2.4-1.4
	c0-0.4,0-0.7,0-1.1v-1.1c0-0.1,0-0.2,0.1-0.2s0.1,0,0.1,0.1c0.5,0.9,1.1,1.7,1.8,2.5c0.2,0.3,0.5,0.5,0.8,0.7
	c0.5-0.1,0.9-0.5,1.1-0.9c-0.1-0.2-0.2-0.3-0.3-0.4c-0.7-0.6-1.3-1.2-1.8-1.9c-0.1-0.1-0.1-0.2-0.1-0.3c0-0.1,0.1-0.3,0.2-0.3
	c0.4-0.3,0.8-0.7,1.2-1c0.1-0.1,0.1-0.1,0.2-0.1h0.1h0.1c0.1,0,0.2,0,0.2-0.1l0,0c-0.1-0.2-0.2-0.4-0.4-0.6
	c-0.1-0.1-0.1-0.1-0.2-0.2c-0.1-0.2-0.3-0.4-0.6-0.5c-0.1,0-0.2,0.1-0.2,0.2c-0.4,0.5-0.8,0.9-1.2,1.3c-0.1,0.1-0.2,0.1-0.3,0.1
	c-0.1,0-0.2-0.1-0.3-0.2c-0.1-0.2-0.2-0.4-0.3-0.6c-0.1-0.1-0.1-0.3-0.1-0.4c0-0.2,0-0.4,0.2-0.5c0.1,0,0.2-0.1,0.2-0.2
	s-0.1-0.1-0.1-0.2l0,0l0,0h1c0.1,0,0.2,0.1,0.3,0.1c0.2,0.1,0.4,0.1,0.6,0.1c0.6,0,0.8,0,0.8-0.6c0-0.4,0-0.8,0-1.3v-2.6
	c0-0.3,0-0.6,0-0.9c0.1-0.3-0.2-0.7-0.5-0.7c-0.1,0-0.2,0-0.3,0c-0.4,0-0.7,0-1.1,0H104c-0.1,0-0.3-0.1-0.3-0.2c0,0,0,0,0-0.1
	s0-0.1,0-0.2c0.1-0.2,0.2-0.3,0.2-0.5c0.1-0.1,0.2-0.2,0.3-0.2c0.1,0,0.2-0.1,0.2-0.2l0,0c-0.1-0.2-0.3-0.3-0.4-0.3
	c-0.4-0.2-0.9-0.3-1.3-0.3C102.4,114,102.3,114.2,102.3,114.3L102.3,114.3z M98.1,123c0,0.1,0.1,0.2,0.3,0.2c0.2,0,0.4,0.1,0.4,0.4
	l0,0v0.3c0,0.4,0,0.5,0.3,0.5c0.2,0,0.5,0,0.8,0h0.1c0.2,0,0.4,0,0.4,0.1c-0.1,0.2-0.2,0.5-0.3,0.7c-0.5,0.8-1.2,1.6-1.9,2.3
	c-0.2,0.1-0.3,0.3-0.4,0.5c0.2,0.4,0.6,0.7,1.1,0.8c0.4,0,1.8-1.7,2-2.1c0.6-0.8,1-1.7,1.3-2.7c0-0.5-0.4-0.9-0.9-0.9h-1.9
	c-0.1,0-0.1-0.1-0.1-0.1l0,0v-0.1l0,0c-0.1-0.5-0.2-0.9-0.4-1.3c-0.2-0.5-0.4-1-0.6-1.6c0-0.2-0.2-0.4-0.4-0.4
	c-0.4,0-0.7,0.1-0.9,0.5c0.1,0.2,0.1,0.4,0.2,0.6c0,0.1,0.1,0.2,0.1,0.2c0,0.1,0,0.1,0,0.2c0,0.2-0.1,0.3-0.3,0.3l0,0l-1,0.1
	c-0.1,0-0.2,0-0.2-0.2l0,0c0,0,0-0.1,0.1-0.1c0.8-1.2,1.6-2.4,2.4-3.7c0.1-0.1,0.2-0.2,0.4-0.2c0.1,0,0.2-0.1,0.3-0.2
	c-0.1-0.2-0.3-0.4-0.5-0.4c-0.1-0.1-0.2-0.1-0.3-0.2c-0.2-0.2-0.5-0.3-0.7-0.4c-0.1,0-0.2,0.1-0.3,0.3c-0.4,0.7-0.7,1.4-1.1,2
	c-0.1,0.2-0.3,0.2-0.4,0.2l-0.1-0.1c-0.1-0.1-0.2-0.2-0.2-0.2c-0.1-0.1-0.1-0.2-0.1-0.3c0-0.1,0-0.1,0.1-0.2
	c0.5-0.8,0.9-1.7,1.2-2.5c0.1-0.1,0.1-0.2,0.3-0.2c0.1,0,0.3-0.1,0.3-0.2s-0.2-0.2-0.3-0.3c-0.4-0.2-0.8-0.3-1.2-0.5
	c-0.1,0-0.2,0.1-0.2,0.2c-0.3,0.8-0.7,1.8-1,2.6c0,0.1-0.1,0.2-0.3,0.2c-0.1,0-0.1,0-0.2-0.1s-0.2-0.2-0.3-0.2
	c-0.4,0.3-0.6,0.7-0.7,1.2c0,0.1,0.1,0.2,0.1,0.2c1,0.8,1.1,0.8,1.9,1.5c0.1,0.1,0.2,0.2,0.2,0.4c0,0.1,0,0.2-0.1,0.3
	c-0.2,0.2-0.3,0.5-0.5,0.7c-0.1,0.2-0.4,0.4-0.6,0.4c-0.1,0-0.2,0-0.3,0H93c-0.3,0-0.5,0-0.5,0.2c0,0.1,0,0.1,0,0.2
	c0.1,0.3,0.1,0.6,0.1,0.8c0.1,0.5,0.1,0.8,0.3,0.8c0.1,0,0.2-0.1,0.3-0.2c0-0.1,0.2-0.2,0.3-0.2c0.3,0,0.7-0.1,1-0.1
	c0.2,0,0.4,0.1,0.4,0.3c0,0,0,0.1,0,0.2v3.3c0,0.7-0.1,1.4-0.1,2c0,0.5,0.2,0.5,0.9,0.5c0.7,0,0.8,0,0.8-0.5c0-0.7-0.1-1.4-0.1-2
	v-3.5c0-0.3,0.2-0.5,0.4-0.5l0,0c0.1,0,0.3,0,0.4-0.1h0.1C97.8,122.6,98,122.8,98.1,123L98.1,123z M122.7,116.7
	c-0.5,0.1-1,0.4-1.3,0.9c0,0.1,0.1,0.2,0.2,0.3c1,1.1,1.7,2.3,2.3,3.6c0,0.2,0.2,0.3,0.4,0.4c0.6-0.1,1.1-0.5,1.4-1
	C125.6,120.5,123.3,116.7,122.7,116.7L122.7,116.7z M116.5,115c-0.2,0-0.2,0.2-0.2,0.3c0,0.2,0,0.4,0,0.6c0,0.7-0.1,1.5-0.2,2.2
	c0,0.3-0.3,0.5-0.6,0.5c-0.9,0.2-1.9,0.4-2.8,0.5c-0.2,0-0.5,0-0.5,0.3c0,0.1,0.3,1.8,0.7,1.8c0.1,0,0.2-0.1,0.4-0.1
	c0.6-0.2,1.3-0.4,1.9-0.6c0.1,0,0.2,0.1,0.2,0.2l0,0c-0.1,0.4-0.3,0.9-0.4,1.3c-0.7,1.8-1.7,3.4-3,4.7c-0.1,0.1-0.2,0.2-0.2,0.4
	c0.3,0.5,0.8,0.9,1.4,1c0.1,0,0.2-0.1,0.3-0.2c0.6-0.8,1.2-1.6,1.7-2.4c0.9-1.6,1.7-3.3,2.2-5.1c0.1-0.5,0.3-0.6,1.3-0.6
	s1.1,0.7,1.1,1.6c0,1.3-0.3,2.6-0.7,3.8c-0.3,0.7-1,1.2-1.8,1c-0.3,0-0.6-0.1-0.8-0.1s-0.2,0.1-0.2,0.3c0,0.4,0.1,0.8,0.3,1.2
	c0.1,0.3,0.5,0.5,0.8,0.4c1.3,0.1,2.6-0.7,3.2-1.8c0.7-1.6,1.1-3.4,1-5.2c0.1-0.9-0.3-1.9-1-2.5c-0.6-0.3-1.3-0.5-1.9-0.4
	c-0.1,0-0.1,0-0.2,0c-0.2,0-0.4-0.1-0.4-0.3l0,0c0-0.1,0-0.1,0-0.2c0.1-0.3,0.1-0.5,0.1-0.7c0-0.4,0.2-0.8,0.5-1.1
	c0.1,0,0.1-0.1,0.1-0.2c-0.1-0.2-0.2-0.3-0.4-0.3C118,115.3,116.7,115,116.5,115L116.5,115z M131.6,117.8c-0.3,0-0.3,0.2-0.3,0.8
	c0,0.1,0,0.2,0,0.4c-0.1,1.2-0.2,2.5-0.4,3.7c-0.1,0.6-0.2,1.1-0.4,1.7c-0.1,0.2-0.1,0.4-0.2,0.6c0,0.5,1.1,0.7,1.3,0.7
	s0.4-0.2,0.5-0.4c1.1-1.3,2.9-2.8,4.7-2.8c1-0.1,1.9,0.6,2,1.6c0,0.1,0,0.1,0,0.2c0,1.4-1.3,2-2.5,2.3c-0.7,0.2-1.5,0.3-2.3,0.3
	c-0.2,0-0.4,0-0.4,0.3c0,0.4,0.1,0.8,0.3,1.1c0.1,0.3,0.3,0.5,0.6,0.5c0.7-0.1,1.5-0.2,2.2-0.5c2.1-0.6,3.9-1.6,3.9-4.1
	c0-1.9-1.5-3.5-3.4-3.5c-0.1,0-0.2,0-0.3,0c-1.4,0.1-2.8,0.6-3.9,1.6c-0.1,0.1-0.1,0.1-0.2,0.1c-0.1,0-0.2-0.1-0.2-0.2l0,0
	c0-0.1,0-0.2,0.1-0.4c0.2-0.8,0.3-1.6,0.4-2.4c0-0.3,0.1-0.5,0.4-0.7c0.1,0,0.1-0.1,0.2-0.2c-0.1-0.1-0.2-0.2-0.3-0.2
	C132.8,118,132.2,117.9,131.6,117.8L131.6,117.8z M132.7,115.8c0.1,0.2,0.2,0.3,0.4,0.4c0.8,0.4,1.5,0.9,2.1,1.4
	c0.1,0.2,0.3,0.3,0.5,0.3c0.5-0.3,0.9-0.8,1.1-1.3c-0.3-0.4-0.8-0.8-1.2-1c-0.6-0.4-1.3-0.8-1.9-1.1
	C133.2,114.8,132.8,115.3,132.7,115.8L132.7,115.8z M145.5,125.8c0,0.2,0.2,0.3,0.3,0.3c1,0.6,1.9,1.4,2.6,2.3
	c0.1,0.1,0.2,0.2,0.3,0.2c0.6-0.2,1-0.7,1.2-1.3c0-0.4-2.9-2.8-3.3-2.8C146.1,124.8,145.7,125.2,145.5,125.8L145.5,125.8z
	 M167.5,121c0.1,0,0.2,0,0.2,0.1l0,0c0,0.1,0,0.2-0.1,0.3c-0.2,0.6-0.6,1.1-1.1,1.5c-0.2-0.2-0.2-0.4-0.2-0.7V122
	c-0.1-0.3,0-0.6,0.2-0.8C166.8,121.1,167.1,121,167.5,121L167.5,121z M164.5,122.2c0.2,0,0.2,0.1,0.2,0.3s0,0.3,0,0.5
	c0,0.5,0.1,1.2,0.1,1.4c0,0.2-0.1,0.4-0.2,0.5c-0.6,0.5-1.3,0.8-2,1c-0.2,0-0.5-0.2-0.5-0.4v-0.1C162.1,124,164.2,122.2,164.5,122.2
	L164.5,122.2z M165.7,114.8c-0.1,0-0.3,0.1-0.3,0.2l0,0c-0.1,0.6-0.2,1.2-0.2,1.8c0,0.3-0.2,0.6-0.5,0.6h-0.1
	c-0.6,0.1-1.2,0.1-1.7,0.1c-0.3,0-0.6,0-0.9,0c-0.3,0-0.4,0.1-0.4,0.9s0.1,0.8,0.8,0.8c0.6,0,1.3-0.1,1.9-0.1c0.1,0,0.3,0,0.4,0
	c0.1,0,0.3,0.1,0.3,0.2l0,0c0.1,0.4-0.1,0.8-0.5,0.9c-1.9,0.9-4.1,3-4.1,5.2c-0.1,1,0.7,2,1.8,2c0.1,0,0.1,0,0.2,0
	c0.9-0.1,1.8-0.4,2.5-0.9c0.1,0,0.1-0.1,0.2-0.1c0.1,0,0.2,0.1,0.2,0.2s0.1,0.2,0.3,0.2c0.5-0.1,1-0.4,1.3-0.9v0.1
	c0-0.1-0.1-0.6-0.1-0.6c0-0.1,0.1-0.3,0.2-0.3c0.9-1,1.7-2.1,2.3-3.2c0.1-0.2,0.2-0.4,0.5-0.4c1.1,0.3,1.8,1.3,1.7,2.4
	c0,2.1-2.2,3.2-4,3.6c-0.2,0.1-0.4,0.1-0.4,0.3c0,0.3,0.4,1.4,0.8,1.4c0.6,0,5.4-1.5,5.4-5.3c0-2.9-2.4-4.2-5-4.2
	c-0.3,0-0.8,0.1-1.1,0.1c-0.1,0-0.1,0-0.1,0c-0.1,0-0.3-0.1-0.3-0.2c0-0.3,0.2-0.6,0.5-0.7c0.7-0.1,1.7-0.3,2.4-0.5
	c0.4-0.1,0.8-0.2,0.8-0.5c0-0.1-0.1-1.4-0.5-1.4c-0.1,0-0.2,0-0.3,0.1c-0.7,0.2-1.3,0.4-2,0.6c-0.1,0-0.2,0-0.3,0.1
	c-0.1,0-0.2-0.1-0.2-0.2s0.1-0.4,0.1-0.5c0-0.3,0.2-0.5,0.4-0.6c0.1,0,0.1-0.1,0.2-0.2c-0.2-0.2-0.4-0.4-0.7-0.4
	C166.6,115.1,165.8,114.8,165.7,114.8L165.7,114.8z M184.5,125.8c0.8,0,0.9,0.2,0.9,0.5c0.1,0.4-0.2,0.8-0.7,0.9c-0.1,0-0.2,0-0.2,0
	c-0.5,0.1-1-0.3-1.1-0.8C183.3,125.9,184.1,125.8,184.5,125.8L184.5,125.8z M185.3,119.8c-0.2,0-0.4,0.1-0.4,0.3v0.1
	c0,0.1,0,0.2,0,0.2c0.1,0.7,0.3,3.1,0.3,3.7c0,0.2-0.1,0.3-0.3,0.3c0,0,0,0-0.1,0h-0.4c-1.3,0-2.8,0.5-2.8,2.1c0,1.6,1.6,2.3,3,2.3
	c1.1,0.2,2.2-0.6,2.4-1.7c0-0.2,0.1-0.3,0.3-0.4c0.5,0.2,1,0.5,1.4,0.8c0.1,0.1,0.3,0.2,0.4,0.2c0.5-0.2,0.9-0.7,1.1-1.2
	c0-0.4-2-1.3-2.4-1.5c-0.1,0-0.1-0.1-0.2-0.1c-0.2,0-0.4-0.2-0.5-0.4c-0.1-0.3-0.2-2.8-0.2-3.3c0-0.4,0-0.9,0-0.9
	c0-0.2-0.2-0.3-0.3-0.3C186.1,119.9,185.7,119.8,185.3,119.8L185.3,119.8z M187.9,117.2c-0.5,0.2-0.9,0.6-1.1,1.2
	c0,0.1,0.1,0.2,0.2,0.3c0.8,0.6,1.5,1.4,2.1,2.2c0.1,0.2,0.2,0.3,0.4,0.3c0.6-0.2,1-0.6,1.3-1.2C190,118.8,189.1,117.9,187.9,117.2
	L187.9,117.2z M182.2,114.4c-0.2,0-0.2,0.2-0.2,0.3c0,1-0.2,1.9-0.5,2.8c-0.1,0.2-0.3,0.3-0.5,0.3c-0.6,0.1-1.2,0.1-1.8,0.1h-0.8
	c-0.1,0-0.3,0-0.3,0.2v0.1c0,0.2,0.1,0.8,0.1,1c0.1,0.4,0.1,0.5,0.4,0.5c0.4,0,1.7-0.2,1.8-0.2s0.2,0.1,0.2,0.2l0,0
	c-0.1,0.4-0.2,0.7-0.4,1c-0.6,1.4-1.3,2.7-2,3.9c-0.1,0.2-0.2,0.4-0.3,0.6c0,0.4,1.1,0.8,1.5,0.8c0.2,0,0.3-0.1,0.3-0.2
	c1.1-1.9,2-4,2.8-6.1c0.2-0.6,0.2-0.7,0.8-0.8c1.6-0.3,1.8-0.3,1.8-0.7c0-0.3,0-0.6-0.1-0.9c0-0.2-0.1-0.5-0.3-0.5
	c-0.1,0-0.1,0-0.2,0c-0.3,0.1-0.6,0.2-1,0.3c-0.1,0-0.2-0.1-0.2-0.2l0,0c0-0.3,0.1-0.5,0.2-0.8c0.1-0.3,0.2-0.6,0.3-0.9
	c0.1-0.1,0.2-0.2,0.3-0.3c0-0.1-0.2-0.2-0.3-0.2C183.8,114.8,182.4,114.4,182.2,114.4L182.2,114.4z M201.2,125.4
	c-0.5,0.3-0.9,0.7-1.1,1.3c0.1,0.4,0.4,0.8,0.8,1c1.1,0.6,2.4,0.8,3.6,0.8c0.9,0,1.8-0.1,2.7-0.2c0.2-0.2,0.3-0.6,0.2-0.8
	c0-0.7,0-1.1-0.3-1.1c-0.1,0-0.1,0-0.2,0c-0.8,0.2-1.6,0.4-2.4,0.3c-1.1,0.1-2.2-0.3-3.1-1C201.4,125.5,201.3,125.4,201.2,125.4
	L201.2,125.4z M202.5,121.5c0,0.3,0.1,0.4,0.4,0.4c0.2,0,0.4,0,0.6,0c0.9,0,1.8,0.1,2.7,0.4c0.1,0.1,0.2,0.1,0.4,0.1
	c0.1,0,0.3-0.1,0.3-0.2c0.2-0.4,0.3-0.8,0.3-1.2c0-0.2-0.1-0.3-0.2-0.3c-1.1-0.3-2.3-0.5-3.4-0.5C202.8,120.1,202.5,120,202.5,121.5
	L202.5,121.5z M200.3,114.2c-0.2,0-0.2,0.2-0.2,0.4c-0.1,1.1-0.3,2.1-0.6,3.1c-0.2,0.2-0.4,0.3-1.5,0.3c-0.7,0-1.4-0.1-1.6-0.1
	c-0.2,0-0.3,0.1-0.3,0.3c0,0.4,0.1,0.8,0.1,1.2c0.1,0.3,0.4,0.3,0.7,0.3c0.5,0,1.3-0.1,1.5-0.1c0.1,0,0.3,0.1,0.3,0.2l0,0
	c0,0.2-0.1,0.3-0.1,0.4c-0.8,2.2-1.8,4.3-3,6.3c-0.1,0.2-0.2,0.4-0.3,0.6c0.3,0.5,0.9,0.8,1.4,0.9c0.3-0.1,0.5-0.3,0.6-0.6
	c1.2-2.4,2.3-4.9,3.2-7.5c0-0.4,0.3-0.7,0.7-0.7c0.9-0.2,1.9-0.4,2.8-0.7c0.2-0.1,0.4-0.4,0.3-0.6c0-0.2,0-1.3-0.3-1.3
	c-0.1,0-0.2,0-0.4,0.1c-0.6,0.3-1.3,0.5-2,0.6c-0.1,0-0.3-0.1-0.3-0.3l0,0c0-0.1,0.4-1.3,0.4-1.5c0-0.3,0.2-0.5,0.4-0.6
	c0.1,0,0.1-0.1,0.2-0.2c-0.2-0.2-0.4-0.3-0.6-0.3C201.5,114.6,200.4,114.2,200.3,114.2L200.3,114.2z M218.3,118
	c0.2,0,0.3,0.1,0.3,0.3l0,0c-0.1,1.1-0.3,2.2-0.5,3.3c-0.5,1.7-1.4,3.7-2.3,3.7c-0.9,0-1.1-1.6-1.1-2.2c0-2.1,1.2-4,3.1-4.9
	C217.9,118.1,218.1,118.1,218.3,118L218.3,118z M220,116c-3.9,0-7,3.1-7.1,6.9c0,0.1,0,0.1,0,0.2c0,0.8,0.2,1.7,0.5,2.4
	c0.4,0.9,1.3,1.5,2.3,1.6c0.9-0.1,1.7-0.6,2.2-1.3c1.6-2,2.2-5,2.4-7.5c0-0.3,0-0.7,0.4-0.7c0.2,0,0.4,0.1,0.6,0.2
	c1.7,0.6,2.8,2.3,2.7,4.1c0,2.4-1.8,3.9-4,4.4c-0.2,0-0.4,0.1-0.4,0.2c0.1,0.6,0.6,1.2,1.1,1.4c0.6-0.1,1.3-0.4,1.9-0.7
	c2.1-1.1,3.3-3.2,3.3-5.5c0-1.6-0.6-3.1-1.7-4.2C223.2,116.6,221.6,116,220,116L220,116z M240.7,116.3c0.2,0,0.4,0.1,0.5,0.3
	c0,0.1,0,0.1,0,0.2v9.3c0,0.5,0,1,0,1.5c-0.1,0.7,0.3,1.4,1,1.5c0.2,0,0.4,0,0.5,0h0.8c0.6,0.1,1.3-0.2,1.5-0.8
	c0.3-0.9,0.4-1.8,0.4-2.7c0-0.5-0.8-0.6-1.1-0.6c-0.4,0-0.4,0.2-0.4,0.5c0,0.5-0.1,1.1-0.2,1.6c0,0.2-0.1,0.3-0.3,0.3l0,0H243
	c-0.3,0-0.3-0.2-0.3-0.8v-9.4c0-0.5,0-1.1,0-1.6c0.1-0.3-0.1-0.7-0.5-0.8c-0.1,0-0.2,0-0.3,0c-0.4,0-0.7,0-1.1,0h-1.7
	c-0.4,0-0.7,0-1.1,0c-0.6,0-0.7,0.3-0.7,0.8s0,1.1,0,1.6v2.4c0,2.8-0.1,6.2-1.4,8.6c-0.1,0.1-0.1,0.2-0.1,0.4
	c0.3,0.4,0.7,0.7,1.2,0.8c0.5,0,1.1-2,1.2-2.4c0.6-2.4,0.8-4.9,0.7-7.4v-2.8c0-0.2,0.1-0.4,0.3-0.5h0.1H240.7L240.7,116.3z
	 M232.6,121.6c0-0.4,0-0.8,0-1.2c0-0.2,0.1-0.4,0.3-0.5c0.1,0,0.1,0,0.2,0h0.6c0.2,0,0.4,0.1,0.5,0.3v0.1v1.2c0,0.2-0.1,0.4-0.3,0.5
	h-0.1H233c-0.2,0-0.4-0.1-0.5-0.3C232.6,121.7,232.6,121.7,232.6,121.6L232.6,121.6z M233.1,118.3c-0.3,0-0.5-0.2-0.5-0.5v-1.2
	c0-0.3,0.2-0.5,0.5-0.5l0,0h0.6c0.3,0,0.5,0.2,0.5,0.5l0,0v1.2c0,0.3-0.2,0.5-0.5,0.5H233.1z M234.2,126.5c0,0.7,0,1.1-0.7,1.1
	c-0.2,0-0.5,0-0.6,0c-0.3,0-0.3,0.3-0.3,0.5c0,1.2,0.3,1.3,0.8,1.3c0.6,0,1.2-0.1,1.7-0.4c0.5-0.4,0.8-1,0.6-1.7c0-0.5,0-0.9,0-1.4
	V117c0-0.6,0-1.2,0-1.7c0-0.3-0.2-0.6-0.5-0.7c-0.1,0-0.2,0-0.2,0c-0.4,0-0.8,0-1.2,0h-1c-0.4,0-0.8,0-1.2,0
	c-0.3-0.1-0.7,0.1-0.7,0.5c0,0.1,0,0.2,0,0.3c0,0.6,0,1.1,0,1.7v3.6c0.1,2.6-0.3,5.1-1.1,7.6c0,0.1-0.1,0.3-0.1,0.4
	c0.3,0.5,0.8,0.7,1.3,0.8c0.3,0,0.4-0.2,0.6-1.2c0.3-1.3,0.5-2.6,0.6-4c0-0.2,0.2-0.4,0.4-0.4h0.1h0.7c0.2,0,0.4,0.1,0.5,0.3v0.1
	L234.2,126.5L234.2,126.5z M254.8,114.2c-0.2,0-0.2,0.2-0.2,0.4c-0.2,0.8-0.5,1.5-0.9,2.2c-0.3,0.2-0.7,0.3-1.1,0.2h-0.5
	c-0.5,0-0.9,0-1.2,0c-0.4,0-0.5,0.1-0.5,0.8c0,0.9,0.1,0.9,0.4,0.9c0.5,0,0.9-0.1,1.2-0.1c0.2,0,0.4,0.1,0.4,0.2
	c-0.8,1.5-1.8,2.9-2.9,4.2c-0.1,0.1-0.2,0.2-0.2,0.4c0.3,0.5,0.9,0.8,1.4,1c0.1,0,0.2-0.1,0.2-0.2c0.4-0.7,0.9-1.4,1.4-2
	c0.9-0.8,2-1.3,3.2-1.5c0.4,0,0.7,0.2,0.7,0.6c0,0.2,0.1,0.3,0.1,0.5s-0.1,0.3-0.3,0.4c-0.4,0.2-0.7,0.4-1.1,0.6
	c-1.2,0.7-2.4,1.5-2.4,3.1c0,1.1,0.7,2.1,1.7,2.4c0.9,0.3,1.8,0.5,2.7,0.4c1.1,0,2.2-0.1,3.3-0.2c0.4-0.1,0.4-0.2,0.4-0.7
	c0-1-0.1-1.2-0.3-1.2c-0.1,0-0.2,0-0.3,0c-1,0.3-2.1,0.4-3.2,0.4c-0.8,0-2.5-0.1-2.5-1.2s1.8-1.8,1.8-1.8c0.1,0,0.2,0.1,0.2,0.2l0,0
	c0,0.4,0,0.7,0,1.1s0.3,0.5,1,0.5c0.6,0,0.7-0.1,0.7-0.7c0-0.5,0-1,0-1.6v-0.2c0-0.3,0.2-0.5,0.4-0.6c0.7-0.3,1.3-0.6,2-0.8
	c0.1,0,0.2-0.1,0.2-0.1c0.3-0.1,0.5-0.2,0.5-0.4c0-0.3-0.4-1.6-0.7-1.6c-0.2,0-0.3,0.1-0.4,0.2c-0.6,0.4-1.3,0.7-2,1
	c-0.1,0-0.3-0.1-0.3-0.3c-0.1-0.9-1-1.6-1.9-1.5l0,0c-0.6,0-1.3,0.2-1.9,0.4c-0.1,0.1-0.2,0.1-0.3,0.1s-0.1-0.1-0.1-0.1
	c0.2-0.3,0.4-0.7,0.6-1c0.1-0.2,0.3-0.3,0.5-0.3c1.1-0.1,2.1-0.3,3.2-0.5c0.4,0,0.7-0.1,0.9-0.4c0-0.3-0.1-0.6-0.1-0.9
	s-0.2-0.5-0.4-0.5c-0.1,0-0.3,0-0.4,0.1c-0.6,0.2-1.3,0.4-2,0.5c-0.1,0-0.2-0.1-0.2-0.1l0,0c0-0.1,0.1-0.3,0.2-0.4
	c0.1-0.3,0.3-0.5,0.6-0.6c0.1,0,0.2-0.1,0.2-0.2C256.1,114.7,255.5,114.4,254.8,114.2L254.8,114.2z M271.1,125.5
	c0.4,0,0.8,0,0.8,0.3c0,0.9-0.7,1.1-1.5,1.1c-0.4,0-1.2-0.1-1.2-0.7C269.2,125.6,270.6,125.5,271.1,125.5L271.1,125.5z M271.7,114.8
	c-0.2,0-0.3,0-0.3,0.2c0,0.1,0,0.2,0,0.3c0,0.3,0.2,1.4,0.2,1.7c0,0.5-0.4,0.4-1.9,0.4c-0.8,0-2.3-0.1-2.6-0.1
	c-0.3,0-0.3,0.2-0.3,0.5c0,0.4,0,0.8,0.2,1.2c0.3,0.2,0.6,0.2,1,0.2h0.5c0.9,0,2.3-0.1,2.9-0.1c0.4,0,0.5,0.7,0.5,1.2
	c0,0.4-0.2,0.4-0.9,0.4h-0.8c-0.7,0-1.6-0.1-1.8-0.1c-0.2,0-0.3,0.2-0.3,0.4c0,0.4,0.1,0.8,0.2,1.2c0.1,0.3,0.5,0.3,1.2,0.3
	s1.7-0.1,2-0.1c0.4,0,0.4,0.6,0.4,1.2c0,0.2,0,0.5-0.3,0.5c-0.1,0-0.5,0-0.7,0c-1.4,0-3.3,0.6-3.3,2.3c0,1.6,1.5,2.2,2.8,2.2
	c1.4,0,2.7-0.4,3.1-1.9c0-0.2,0.1-0.4,0.3-0.4c0.6,0.2,1.2,0.6,1.8,1c0.1,0.1,0.3,0.2,0.5,0.3c0.5-0.2,0.9-0.7,1-1.2
	c0-0.6-2.2-1.6-2.8-1.8c-0.7-0.2-0.8-0.1-0.8-1.9c0-0.5,0.3-0.5,1-0.5c0.6-0.1,1.2-0.2,1.8-0.3c0.3-0.1,0.3-0.2,0.3-0.8
	c0-0.7,0-1-0.3-1c-0.1,0-0.2,0-0.3,0.1c-0.7,0.2-1.4,0.3-2.2,0.4c-0.1,0-0.3-0.1-0.3-0.3c-0.1-0.3-0.1-0.6-0.1-0.9
	c0-0.5,0.4-0.5,0.8-0.5c0.9-0.1,2-0.2,2.8-0.4c0.3-0.1,0.5-0.1,0.5-0.4s0-1.4-0.4-1.4c-0.2,0-0.4,0.1-0.7,0.1
	c-0.6,0.2-1.2,0.3-1.8,0.4c-0.1,0-0.8,0.1-0.8,0.1c-0.2,0-0.4-0.2-0.4-0.4v-0.1c0-0.5,0.1-1,0.3-1.4c0-0.2-0.2-0.2-0.7-0.3
	C272.7,115,271.9,114.8,271.7,114.8L271.7,114.8z M288.7,114.6c-0.3-0.1-0.6-0.2-0.8-0.3c-0.2,0-0.2,0.2-0.2,0.3
	c-0.1,0.5-0.5,1.7-0.7,2.3c0,0.2-0.2,0.4-0.4,0.4c-0.1,0-0.2,0-0.2-0.1c-0.4-0.2-0.8-0.4-1.2-0.6c-0.1-0.1-0.2-0.2-0.4-0.2
	c-0.4,0-0.6,1.2-0.6,1.5s0.3,0.4,1.5,0.9c0.3,0,0.5,0.3,0.5,0.6c0,0.1,0,0.3-0.1,0.4c0,0.2-0.1,0.5-0.2,0.7
	c-0.1,0.5-0.2,0.7-0.4,0.7c-0.4-0.1-0.8-0.2-1.1-0.5c-0.1-0.1-0.3-0.1-0.4-0.2c-0.4,0-0.6,1.3-0.6,1.4c0,0.2,0.1,0.4,0.3,0.4
	c0.3,0.2,0.7,0.3,1,0.4c0.3,0,0.6,0.3,0.7,0.6c0,0.2-0.1,0.8-0.1,1.2c-0.2,2,1.3,3.9,3.3,4.1c0.3,0,0.5,0,0.8,0
	c2.3,0,4.7-0.9,4.7-3.6c0-1-0.2-2-0.6-3c-0.1-0.4-0.2-0.7-0.5-0.7c-0.2,0-1.4,0.2-1.4,0.6c0,0.1,0,0.2,0.1,0.3
	c0.3,0.8,0.5,1.6,0.6,2.5c0,0.4-0.1,0.9-0.4,1.2c-0.7,0.6-1.6,0.8-2.5,0.8c-1.1,0.1-2.1-0.6-2.3-1.7c0-0.2,0-0.3,0-0.5
	c0-0.7,0-1.2,0.5-1.2c0,0,0.2,0,0.3,0c0.5,0.1,1.1,0.1,1.6,0.2c0.2,0,0.4-0.2,0.5-0.4c0.1-0.4,0.2-0.7,0.2-1.1c0-0.2,0-0.3-0.5-0.3
	s-1,0-1.5-0.1c-0.2,0-0.6,0-0.6-0.4c0-0.1,0.2-1.2,0.3-1.4c0-0.2,0.2-0.4,0.5-0.4c0.1,0,0.1,0,0.2,0c0.8,0.1,1.5,0.2,2.3,0.3
	c0.2,0,0.4-0.2,0.4-0.4c0.1-0.4,0.2-0.7,0.2-1.1c0-0.3-0.3-0.3-0.6-0.3c-0.6,0-1.2-0.1-1.7-0.1c-0.2,0-0.4-0.1-0.4-0.4l0,0
	c0-0.1,0-0.2,0-0.2c0.1-0.4,0.3-0.8,0.4-1.2c0.1-0.3,0.3-0.6,0.6-0.8c0.1,0,0.1-0.1,0.2-0.2C289.5,114.9,289.1,114.7,288.7,114.6
	L288.7,114.6z M307.1,115.5c0,0.1,0,0.1,0,0.2c0.4,1.5,0.6,3.1,0.6,4.8c0.1,1.5-0.2,2.9-0.8,4.3c-0.5,1.1-1.3,2-2.3,2.7
	c-0.1,0-0.2,0.2-0.3,0.3c0.3,0.5,0.7,1,1.3,1.2c0.5-0.2,1-0.5,1.4-0.9c2.1-2.2,2.6-4.7,2.6-7.6c0-1.6-0.2-3.3-0.5-4.9
	c-0.1-0.3-0.1-0.5-0.4-0.5C308.5,115,307.1,115.1,307.1,115.5L307.1,115.5z M302.1,115.8c-0.1-0.1-0.9-0.4-0.9-0.4
	c-0.2,0.1-0.2,0.3-0.2,0.4c-0.1,0.4-0.2,0.8-0.3,1.2c-0.3,1.1-0.4,2.3-0.4,3.5c0,1.3,0.2,2.7,0.6,4c0,0.3,0.3,0.6,0.6,0.6
	c0.3,0,1.2-0.2,1.2-0.7c0-0.1,0-0.3,0-0.6c0.1-0.7,0.3-1.4,0.6-2.1l0.2-0.4c0.2-0.4,0.4-1,0.4-1.1c-0.1-0.3-0.4-0.5-0.7-0.5
	c-0.3,0.2-0.5,0.6-0.6,0.9c0,0.2-0.1,0.3-0.3,0.4c-0.2-0.3-0.2-0.6-0.2-0.9c0-0.6,0.1-1.3,0.2-1.9c0.1-0.5,0.3-1,0.5-1.4
	c0.1-0.1,0.2-0.3,0.3-0.3c0.1,0,0.2-0.1,0.2-0.2C302.9,116.1,302.6,115.9,302.1,115.8L302.1,115.8z M323.7,126.7
	c-0.4,0-1.1-0.1-1.1-0.6c0-0.6,0.9-0.7,1.3-0.7c0.3,0,1.4,0.1,1.4,0.5C325,126.4,324.4,126.7,323.7,126.7L323.7,126.7z M320.9,119.5
	c0.1,0,0.2,0.1,0.2,0.2l0,0c0,0.8-0.2,1.5-0.4,2.2c0,0.2-0.1,0.3-0.3,0.3c-0.5-0.4-0.9-0.9-1.1-1.5
	C319.7,120.2,320.2,119.8,320.9,119.5L320.9,119.5z M317.7,125.7c-0.4,0-0.5-0.4-0.5-0.8c0-0.9,0.6-2.6,0.9-2.6
	c0.1,0,0.2,0.1,0.2,0.2c0.3,0.5,0.6,0.9,0.9,1.3c0.1,0.1,0.2,0.2,0.3,0.4C319.1,125,318.5,125.5,317.7,125.7L317.7,125.7z
	 M326.5,122.3c0,0.5,0,1-0.1,1.6c0,0.2-0.2,0.3-0.4,0.3c-0.1,0-0.1,0-0.2,0c-0.6-0.2-1.1-0.2-1.7-0.2c-0.7,0-1.4,0.2-2,0.5
	c-0.6,0.4-0.9,1-1,1.7c0,1.4,1.5,2,2.7,2c1.1,0,2.1-0.4,2.9-1.1c0.1-0.1,0.2-0.2,0.4-0.3c0.2,0.1,0.4,0.2,0.6,0.4
	c0.2,0.2,0.5,0.4,0.8,0.6c0.5-0.2,0.9-0.6,1-1.2c-0.3-0.5-0.7-0.9-1.2-1.2c-0.2-0.1-0.3-0.3-0.3-0.5c0-0.1,0-0.1,0-0.2
	c0.2-0.8,0.3-1.5,0.3-2.3c0.1-1.4-0.4-2.7-1.2-3.7c-0.8-0.9-2-1.5-3.2-1.5c-0.2,0-0.4,0-0.6,0c-0.4,0-0.4-0.2-0.4-0.6v-0.2
	c0-0.2,0-0.4,0.2-0.6c0.1-0.1,0.1-0.1,0.1-0.2c0-0.2-0.3-0.2-0.5-0.2c-0.4-0.1-1.2-0.1-1.5-0.1c-0.1,0-0.3,0-0.3,0.2
	c0,0.1,0,0.1,0,0.2c0.1,0.6,0.2,1.2,0.3,1.8c0,0.2-0.2,0.4-0.4,0.5c-0.5,0.3-1.1,0.6-1.5,1c-0.1,0.1-0.3,0.2-0.4,0.2
	c-0.3,0-0.5-1-0.5-1.2s0-0.5-0.3-0.5c-0.4,0.1-0.7,0.2-1.1,0.4c-0.3,0-0.5,0.2-0.7,0.4c0,0.1,0,0.1,0.1,0.2c0.4,0.7,0.8,1.5,1.1,2.3
	c0,0.1-0.1,0.2-0.1,0.3c-0.9,1.3-1.4,2.8-1.4,4.3c0,1.1,0.4,2.2,1.7,2.2c2,0,3.8-2.3,4.5-4c0.5-1.3,0.8-2.6,0.9-4
	c0-0.4,0-0.7,0.7-0.7c0.4,0,0.8,0.1,1.2,0.2C326.1,119.5,326.4,120.9,326.5,122.3L326.5,122.3z M341.4,115.7
	c-0.2-0.3-0.6-0.6-0.9-0.8c-0.1,0-0.2,0.1-0.2,0.2c-1,1.1-2,2.1-3.2,3c-0.8,0.6-1.5,1.3-2.2,2c-0.3,0.3-0.4,0.7-0.4,1.2
	c0,0.7,0.3,1.3,0.8,1.8c0.8,1,1.8,1.9,2.7,2.8c0.7,0.7,1.4,1.4,2.1,2.2c0.1,0.2,0.3,0.4,0.5,0.4c0.7-0.2,1.2-0.7,1.4-1.4
	c-0.4-0.6-0.9-1.1-1.5-1.6c-1.1-0.9-2.1-1.9-3.1-2.9c-0.4-0.4-0.7-0.8-0.8-1.3c0.1-0.4,0.4-0.7,0.7-1c0.9-0.8,1.8-1.6,2.8-2.4
	c0.4-0.3,0.8-0.7,1.3-1c0.1-0.1,0.3-0.2,0.5-0.2c0.1,0,0.4,0,0.4-0.2C342,116.3,341.7,116,341.4,115.7L341.4,115.7z M350.4,124.9
	c0.8,0,1.5,0.7,1.5,1.5l0,0c0,0.8-0.7,1.5-1.5,1.5s-1.5-0.7-1.5-1.5S349.6,124.9,350.4,124.9L350.4,124.9z M350.4,124.1
	c-1.3,0-2.4,1.1-2.4,2.4s1.1,2.4,2.4,2.4s2.4-1.1,2.4-2.4l0,0C352.8,125.1,351.7,124.1,350.4,124.1L350.4,124.1L350.4,124.1z"/>
<g>
	<path class="st1" d="M72.2,30.6c0.2,0.1,0.3,0.1,0.3,0.1s0,0.1-0.1,0.1c-0.1,0.1-0.1,0.1-0.1,0.2v0.2c0,0.1,0,0.1,0.1,0.1h0.1
		c0.2-0.1,0.5-0.1,0.8-0.2h0.1c0.2,0,0.2,0.5,0.2,0.5c0,0.1-0.2,0.1-0.3,0.2c-0.3,0.1-0.7,0.1-0.9,0.2c-0.1,0-0.2,0.2-0.2,0.3
		s0.1,0.1,0.1,0.1s0,0,0.1,0s0.3,0,0.4,0c1,0,1.9,0.5,1.9,1.6c0,1.5-1.8,2-2,2c-0.1,0-0.3-0.4-0.3-0.5s0.1-0.1,0.1-0.1
		c0.7-0.2,1.5-0.6,1.5-1.4c0-0.7-0.6-0.9-0.6-0.9c-0.1,0-0.1,0.1-0.2,0.2c-0.2,0.5-0.5,0.8-0.9,1.2l-0.1,0.1v0.2l0,0
		c0,0.1-0.3,0.3-0.5,0.3c-0.1,0-0.1,0-0.1-0.1c0,0,0-0.1-0.1-0.1c0,0,0,0-0.1,0c-0.3,0.2-0.6,0.3-1,0.3c-0.5,0-0.7-0.3-0.7-0.8
		c0-0.9,0.8-1.6,1.5-2c0,0,0.2-0.1,0.2-0.4c0-0.1,0-0.1-0.1-0.1h-0.1c-0.2,0-0.5,0.1-0.7,0.1c-0.3,0-0.3,0-0.3-0.3
		c0-0.3,0-0.3,0.2-0.3c0.1,0,0.2,0,0.3,0c0.2,0,0.4,0,0.7,0c0.1,0,0.1,0,0.2-0.1s0.1-0.1,0.1-0.2c0-0.2,0.1-0.5,0.1-0.7
		c0-0.1,0-0.1,0.1-0.1C71.8,30.5,72.1,30.6,72.2,30.6z M70.4,34.5c0,0.1,0.1,0.2,0.2,0.2c0.2,0,0.6-0.2,0.8-0.4
		c0.1-0.1,0.1-0.1,0.1-0.2c0-0.1,0-0.3,0-0.5c0-0.1,0-0.1,0-0.2s0-0.1-0.1-0.1C71.2,33.3,70.4,34,70.4,34.5z M72.1,32.9
		C72,33,72,33.1,72,33.3v0.1c0,0.1,0,0.3,0.1,0.3s0.3-0.5,0.4-0.6V33c0,0,0-0.1-0.1-0.1C72.4,32.9,72.2,32.9,72.1,32.9z"/>
</g>
</svg>
