<?xml version="1.0" encoding="utf-8"?>
<!-- Generator: Adobe Illustrator 24.3.0, SVG Export Plug-In . SVG Version: 6.00 Build 0)  -->
<svg version="1.1" id="Layer_1" xmlns="http://www.w3.org/2000/svg" xmlns:xlink="http://www.w3.org/1999/xlink" x="0px" y="0px"
	 viewBox="0 0 200 200" style="enable-background:new 0 0 200 200;" xml:space="preserve">
<style type="text/css">
	.st0{display:none;}
	.st1{display:inline;fill:#202020;}
	.st2{fill:#FFFFFF;}
</style>
<g id="Black_Background" class="st0">
	<rect x="-30.2" y="-226.1" class="st1" width="2988.3" height="456"/>
</g>
<g id="Layer_1_1_">
	<path class="st2" d="M100,0C44.8,0,0,44.8,0,100s44.8,100,100,100s100-44.8,100-100S155.2,0,100,0z M120.8,100h-14.4
		c0,22.4,0,50.4,0,50.4H85.6c0,0,0-27.2,0-50.4h-8.8V82.4h10.4v-12c0-8,4-20.8,21.6-20.8h16v16.8c0,0-8.8,0-11.2,0
		c-1.6,0-4.8,0.8-4.8,4.8v11.2h16L120.8,100z"/>
</g>
</svg>
