<?xml version="1.0" encoding="utf-8"?>
<!-- Generator: Adobe Illustrator 24.3.0, SVG Export Plug-In . SVG Version: 6.00 Build 0)  -->
<svg version="1.1" id="Layer_1" xmlns="http://www.w3.org/2000/svg" xmlns:xlink="http://www.w3.org/1999/xlink" x="0px" y="0px"
	 viewBox="0 0 200 200" style="enable-background:new 0 0 200 200;" xml:space="preserve">
<style type="text/css">
	.st0{display:none;}
	.st1{display:inline;fill:#202020;}
	.st2{fill:#FFFFFF;}
</style>
<g id="Black_Background" class="st0">
	<rect x="-2130.2" y="-226.1" class="st1" width="2988.3" height="456"/>
</g>
<g id="Layer_1_1_">
	<g>
		<path class="st2" d="M146.8,64.6c-1.1-2.8-2.4-4.8-4.5-6.9s-4.1-3.4-6.9-4.5c-2.1-0.8-5.3-1.8-11.1-2.1c-6.3-0.3-8.2-0.3-24.2-0.3
			s-17.9,0.1-24.2,0.3c-5.8,0.3-9,1.2-11.1,2.1c-2.8,1.1-4.8,2.4-6.9,4.5c-2.1,2.1-3.4,4.1-4.5,6.9c-0.8,2.1-1.8,5.3-2.1,11.1
			C51,82,51,83.9,51,99.9s0.1,17.9,0.3,24.2c0.3,5.8,1.2,9,2.1,11.1c1.1,2.8,2.4,4.8,4.5,6.9s4.1,3.4,6.9,4.5
			c2.1,0.8,5.3,1.8,11.1,2.1c6.3,0.3,8.2,0.3,24.2,0.3s17.9-0.1,24.2-0.3c5.8-0.3,9-1.2,11.1-2.1c2.8-1.1,4.8-2.4,6.9-4.5
			s3.4-4.1,4.5-6.9c0.8-2.1,1.8-5.3,2.1-11.1c0.3-6.3,0.3-8.2,0.3-24.2s-0.1-17.9-0.3-24.2C148.6,69.9,147.6,66.7,146.8,64.6z
			 M100,130.8c-17,0-30.8-13.8-30.8-30.8S83,69.2,100,69.2S130.8,83,130.8,100S117,130.8,100,130.8z M132,75.2c-4,0-7.2-3.2-7.2-7.2
			s3.2-7.2,7.2-7.2s7.2,3.2,7.2,7.2S136,75.2,132,75.2z"/>
		<circle class="st2" cx="100" cy="100" r="20"/>
		<path class="st2" d="M100,0C44.8,0,0,44.8,0,100s44.8,100,100,100s100-44.8,100-100S155.2,0,100,0z M159.6,124.7
			c-0.3,6.4-1.3,10.7-2.8,14.6s-3.6,7.3-6.9,10.6c-3.3,3.3-6.7,5.4-10.6,6.9c-3.8,1.5-8.2,2.5-14.6,2.8s-8.4,0.4-24.7,0.4
			s-18.3-0.1-24.7-0.4c-6.4-0.3-10.7-1.3-14.6-2.8s-7.3-3.6-10.6-6.9s-5.4-6.7-6.9-10.6c-1.5-3.8-2.5-8.2-2.8-14.6S40,116.3,40,100
			c0-16.3,0.1-18.3,0.4-24.7c0.3-6.4,1.3-10.7,2.8-14.6s3.6-7.3,6.9-10.6c3.3-3.3,6.7-5.4,10.6-6.9c3.8-1.5,8.2-2.5,14.6-2.8
			S83.7,40,100,40s18.3,0.1,24.7,0.4c6.4,0.3,10.7,1.3,14.6,2.8c3.9,1.5,7.3,3.6,10.6,6.9c3.3,3.3,5.4,6.7,6.9,10.6
			c1.5,3.8,2.5,8.2,2.8,14.6s0.4,8.4,0.4,24.7S159.9,118.3,159.6,124.7z"/>
	</g>
</g>
</svg>
