<?xml version="1.0" encoding="utf-8"?>
<!-- Generator: Adobe Illustrator 25.2.1, SVG Export Plug-In . SVG Version: 6.00 Build 0)  -->
<svg version="1.1" id="tag-water-proof.svg" xmlns="http://www.w3.org/2000/svg" xmlns:xlink="http://www.w3.org/1999/xlink"
	 x="0px" y="0px" viewBox="0 0 92.4 21" style="enable-background:new 0 0 92.4 21;" xml:space="preserve">
<style type="text/css">
	.st0{fill:#1147B4;stroke:#073A9F;}
	.st1{fill:#FFFFFF;}
	.st2{fill-rule:evenodd;clip-rule:evenodd;fill:#FFFFFF;}
</style>
<rect id="長方形_742" x="0.5" y="0.5" class="st0" width="91.4" height="20"/>
<g>
	<path class="st1" d="M15.6,11.4c-0.1-0.3-0.3-0.8-0.6-1.3v5.8h-1v-4.8c-0.3,1-0.6,1.9-1,2.5c-0.1-0.3-0.3-0.8-0.5-1.1
		c0.6-0.9,1.2-2.6,1.5-4.1V8.1h-1.2v-1H14V4.9h1v2.2h0.9v1H15v0.6c0.3,0.4,1,1.6,1.2,1.9L15.6,11.4z M23.6,14.5v1h-8v-1H23.6z
		 M17.9,8.1c0.2-0.5,0.5-1.2,0.7-1.9h-2.4v-1h7.2v1h-3.8c-0.1,0.3-0.2,0.7-0.3,1.1h1.3v0.5c0,2.8-0.1,4.3-0.2,5.2
		c0.5-0.4,0.9-1,1.3-1.7c-0.3-0.5-0.7-1-1-1.5l0.7-0.5c0.3,0.3,0.5,0.6,0.7,1c0.2-0.5,0.3-1,0.4-1.5h-1.6v-1h1.9H23L23.6,8
		c-0.2,1.2-0.4,2.3-0.8,3.2c0.4,0.6,0.7,1.2,0.9,1.7L23,13.5c-0.2-0.4-0.4-0.8-0.6-1.3c-0.4,0.7-0.8,1.2-1.3,1.6
		c-0.1-0.2-0.4-0.5-0.6-0.6c0,0.3-0.1,0.6-0.2,0.7c-0.2,0.3-0.4,0.4-0.7,0.4c-0.3,0-0.7,0-1.2,0c0-0.3-0.1-0.6-0.3-0.9
		c0.4,0,0.8,0,0.9,0c0.2,0,0.3,0,0.3-0.2c0.2-0.3,0.2-1.5,0.3-5.1H17.9z M17.8,12.8v-0.4h-0.9v0.7h-0.7V8.3h2.2v4.5H17.8z
		 M17.8,11.6V9.2h-0.9v2.5L17.8,11.6L17.8,11.6z"/>
	<path class="st1" d="M29.5,8.1c-0.5,1.1-1.2,2.2-1.8,3c-0.2-0.2-0.5-0.5-0.8-0.7c0.6-0.7,1.2-1.7,1.6-2.6L29.5,8.1z M31.4,14.7
		c-0.3-0.5-0.6-1.1-1.1-1.7c-0.6,1.1-1.5,1.9-2.5,2.6c-0.1-0.2-0.5-0.6-0.8-0.8c1.1-0.6,1.9-1.5,2.5-2.7c-0.5-0.5-0.9-1-1.4-1.5
		l0.8-0.6c0.3,0.3,0.7,0.7,1,1.1c0.2-0.5,0.4-1,0.5-1.5l1.1,0.2c-0.2,0.8-0.5,1.5-0.8,2.1c0.6,0.7,1.2,1.4,1.5,2L31.4,14.7z
		 M32.8,7.6h-5.5v-1h2.5c-0.1-0.4-0.5-0.9-0.7-1.4L30,4.9c0.3,0.4,0.7,1,0.9,1.4l-0.7,0.3h2.7v1H32.8z M37.3,8.1
		c-0.3,1.9-0.7,3.5-1.5,4.8c0.6,0.9,1.4,1.7,2.3,2.2c-0.3,0.2-0.6,0.6-0.8,0.9c-0.9-0.5-1.6-1.2-2.2-2.1c-0.7,0.9-1.6,1.6-2.7,2.2
		c-0.1-0.2-0.5-0.6-0.8-0.8c1.2-0.6,2.2-1.3,2.8-2.3c-0.4-0.8-0.7-1.6-1-2.5c-0.2,0.3-0.4,0.6-0.6,0.9c-0.1-0.2-0.5-0.7-0.7-0.9
		c0.1-0.1,0.2-0.2,0.3-0.4l-0.7,0.4c-0.2-0.6-0.8-1.5-1.3-2.2l0.8-0.4c0.5,0.6,1.1,1.5,1.4,2.1c0.8-1.3,1.2-3,1.5-4.9l1,0.2
		c-0.1,0.7-0.3,1.3-0.4,2h3.1v1h-0.5V8.1z M34.5,8.1c-0.1,0.3-0.2,0.5-0.3,0.8c0.2,1,0.6,2,1,2.9c0.5-1,0.8-2.3,1-3.7
		C36.2,8.1,34.5,8.1,34.5,8.1z"/>
	<path class="st1" d="M45.7,5.8c-0.4,1-0.8,2.3-1.2,3.3c0.9,1,1,1.8,1,2.6c0,0.7-0.1,1.2-0.5,1.5c-0.2,0.1-0.4,0.2-0.7,0.2
		c-0.2,0-0.6,0-0.8,0c0-0.3-0.1-0.7-0.3-1c0.3,0,0.5,0,0.6,0c0.2,0,0.3,0,0.4-0.1c0.2-0.1,0.2-0.4,0.2-0.8c0-0.6-0.2-1.4-1-2.3
		c0.3-0.8,0.6-2,0.9-2.8h-1.4V16h-1V5.4h2.9H45L45.7,5.8z M48.3,7.9c0,0.6,0,1.1-0.1,1.7h3.4v0.5c-0.1,3.6-0.3,4.9-0.6,5.4
		c-0.2,0.3-0.5,0.4-0.9,0.4c-0.3,0.1-1,0-1.6,0c0-0.3-0.1-0.8-0.3-1.1c0.6,0.1,1.2,0.1,1.4,0.1c0.2,0,0.3,0,0.4-0.2
		c0.2-0.3,0.3-1.3,0.5-4.1h-2.4c-0.3,2.3-1,4.2-3.1,5.3c-0.1-0.3-0.5-0.6-0.7-0.8c2.6-1.4,2.8-4,2.9-7.1h-1.7V7h3.1
		c-0.1-0.4-0.3-1.2-0.5-1.7l1-0.3c0.2,0.6,0.5,1.3,0.6,1.7L48.8,7h3.6v1L48.3,7.9L48.3,7.9z"/>
	<path class="st1" d="M60.3,8.2c-0.6,3.2-1.9,5.5-3.6,6.7c-0.2-0.3-0.6-0.7-0.9-0.9c1.5-1,2.6-2.7,3.1-4.9h-2.7V7.9h3.1h0.2
		L60.3,8.2z M66,7.8c-0.8,0.9-1.9,1.9-2.7,2.6c1,1.4,2.2,2.6,3.7,3.3c-0.3,0.2-0.6,0.7-0.8,1C64.4,13.8,63,12.1,62,10v4.4
		c0,0.7-0.1,1-0.6,1.2c-0.4,0.2-1,0.3-2,0.3c-0.1-0.3-0.2-0.9-0.4-1.2c0.7,0,1.3,0,1.5,0s0.3-0.1,0.3-0.3V4.9H62v2.9
		c0.2,0.6,0.5,1.2,0.8,1.8c0.8-0.7,1.7-1.7,2.2-2.5L66,7.8z"/>
	<path class="st1" d="M81.1,14.5v1H70.4v-1h4.8v-1.3h-3.6v-1h3.6v-0.9h-0.9V8.8H73c-0.2,1-0.6,2-1.8,2.7c-0.1-0.2-0.5-0.6-0.7-0.8
		c1-0.6,1.4-1.2,1.5-2h-1.4v-1h1.5V6.4h-1v-1h5.4v1h-1v1.5h1.2v1h-1.2v2.2h1v1.2H80v1h-3.5v1.3L81.1,14.5L81.1,14.5z M74.3,7.8V6.4
		H73v1.5L74.3,7.8L74.3,7.8z M78.2,9.6h-1v-4h1V9.6z M80.5,10.2c0,0.6-0.1,0.8-0.5,1c-0.4,0.2-1,0.2-1.8,0.2c0-0.3-0.2-0.7-0.3-1
		c0.6,0,1.2,0,1.4,0c0.2,0,0.2,0,0.2-0.2V5h1.1L80.5,10.2L80.5,10.2z"/>
</g>
<path id="スーパーウォータープルーフ" class="st2" d="M9-43.2c-0.8,0-1.4,0-2-0.1c0,0.3,0,0.6,0.1,0.8
	c0,0.1,0,0.1,0.2,0.1c0.6,0,1.1-0.1,1.9-0.1H13c-0.7,1.3-1.5,2.4-2.5,3.5c-1.4,1.4-3,2.6-4.8,3.5C6-35.4,6.2-35.2,6.4-35
	c0.1,0.1,0.2,0.1,0.3,0.1l0,0c1.7-1,3.3-2.2,4.6-3.6c1.3,1,2.5,2.1,3.6,3.3c0.1,0.1,0.1,0.1,0.2,0c0.2-0.1,0.3-0.3,0.5-0.5
	c0.1-0.1,0.1-0.2,0-0.3c-1.1-1.2-2.4-2.3-3.7-3.3c0.7-0.9,1.4-1.8,1.9-2.8c0.1-0.2,0.2-0.3,0.4-0.5c0.1-0.1,0.1-0.2,0.1-0.3l0,0
	c-0.2-0.2-0.3-0.4-0.5-0.5c-0.1-0.1-0.2-0.1-0.3,0c-0.2,0.1-0.5,0.1-0.7,0.1L9-43.2L9-43.2z M25.9-38.8c0.9,0,1.8,0,2.8,0
	c0.2,0,0.2,0,0.2-0.1c0-0.2,0-0.5,0-0.7c0-0.1,0-0.2-0.2-0.1c-1,0-2,0-2.9,0h-4c-1,0-1.9,0-2.9-0.1c0,0.3,0.1,0.7,0.1,1
	c0,0.1,0.1,0.2,0.2,0.2c0.6-0.1,1.2-0.1,1.8-0.1L25.9-38.8L25.9-38.8z M41.7-44.1c-0.7,0-1.3,0.6-1.3,1.3s0.6,1.3,1.3,1.3
	s1.3-0.6,1.3-1.3C43-43.6,42.5-44.1,41.7-44.1L41.7-44.1L41.7-44.1z M41.7-43.7c0.5,0,0.8,0.4,0.8,0.8S42.2-42,41.7-42
	s-0.8-0.4-0.8-0.8C40.9-43.3,41.3-43.7,41.7-43.7L41.7-43.7L41.7-43.7z M31.6-36.6c0.3,0.1,0.5,0.2,0.7,0.3c0.1,0.1,0.3,0.1,0.4,0
	l0,0c1.2-1.2,2.2-2.7,2.9-4.3c0.1-0.3,0.3-0.5,0.5-0.7c0.1-0.1,0.1-0.2,0.1-0.3l-0.1-0.1c-0.3-0.2-0.7-0.3-1-0.4
	c0,0.5-0.2,1-0.4,1.5C34-39,32.9-37.7,31.6-36.6L31.6-36.6z M38.3-41.6c1.4,1.4,2.5,3.1,3.2,4.9c0.1,0.1,0.1,0.1,0.2,0.1
	c0.2-0.1,0.4-0.3,0.6-0.4c0.1,0,0.1-0.1,0.1-0.2l0,0c-0.8-1.7-1.9-3.3-3.3-4.7c0-0.1-0.1-0.1-0.2-0.1l0,0
	C38.8-41.9,38.6-41.7,38.3-41.6L38.3-41.6z M52.3-38.8c0.9,0,1.8,0,2.8,0c0.2,0,0.2,0,0.2-0.1c0-0.2,0-0.5,0-0.7
	c0-0.1,0-0.2-0.2-0.1c-1,0-2,0-2.8,0h-4c-1,0-1.9,0-2.9-0.1c0,0.3,0.1,0.7,0.1,1c0,0.1,0.1,0.2,0.2,0.2c0.6-0.1,1.2-0.1,1.8-0.1
	L52.3-38.8L52.3-38.8z M63.6-42.5v-0.7c0-0.3,0-0.7,0.1-1c0.1-0.1,0.1-0.2,0-0.3h-0.1c-0.3-0.1-0.7-0.1-1.1-0.1
	c0.1,0.5,0.1,1,0.1,1.5v0.6H61c-0.7,0-1.2,0-1.8-0.1c-0.1,0-0.2,0-0.2,0.1c0,0.3,0,0.7,0,1.1v0.9c0,0.6,0,1,0,1.6
	c0,0.1,0,0.2,0.1,0.2c0.2,0,0.5,0,0.7,0c0.1,0,0.2,0,0.2-0.2c0-0.5,0-1,0-1.6v-1.3h6.4c-0.3,1.4-0.8,2.7-1.5,3.9
	c-0.9,1.4-2.2,2.5-3.7,3.3c0.3,0.1,0.5,0.2,0.8,0.4c0.1,0.1,0.2,0.1,0.3,0l0,0c1.4-0.8,2.6-2,3.4-3.3c0.7-1.2,1.3-2.5,1.6-3.9
	c0-0.2,0.1-0.3,0.2-0.4c0.1-0.1,0.1-0.2,0-0.3l0,0c-0.1-0.2-0.3-0.4-0.5-0.5c-0.1-0.1-0.2-0.1-0.3,0c-0.4,0.1-0.8,0.2-1.2,0.1H63.6
	L63.6-42.5z M75.5-35.6c0,0.4,0,0.5-0.3,0.6c-0.4,0.1-0.9,0.1-1.3,0.1c0.2,0.2,0.4,0.4,0.5,0.6c0,0.1,0.1,0.2,0.2,0.1
	c0.4,0,0.9-0.1,1.3-0.3s0.6-0.7,0.4-1.1l-0.2-3.7h1.1c0.7,0,1.2,0,1.8,0c0.1,0,0.1,0,0.2-0.1c0,0,0,0,0-0.1V-40c0-0.1,0-0.1-0.2-0.1
	c-0.6,0-1.2,0-1.8,0h-1.1L76-40.8c-0.1-0.3,0-0.7,0.1-1c0.1-0.1,0.1-0.2,0-0.2c0,0,0,0-0.1,0c-0.3-0.1-0.6-0.1-1-0.1
	c0.1,0.4,0.2,0.9,0.2,1.3l0.1,0.9h-2.5c-0.6,0-1,0-1.7-0.1c0,0.2,0,0.4,0.1,0.7c0,0.1,0.1,0.2,0.2,0.2c0.5-0.1,1-0.1,1.5-0.1h2
	c-0.5,0.7-1,1.2-1.6,1.8c-0.7,0.6-1.5,1.2-2.4,1.6c0.2,0.1,0.4,0.2,0.6,0.4c0.1,0.1,0.2,0.1,0.3,0l0,0c0.7-0.4,1.4-0.9,2.1-1.5
	c0.6-0.6,1.1-1.2,1.6-1.8L75.5-35.6z M88.9-38.8c0.9,0,1.8,0,2.8,0c0.2,0,0.2,0,0.2-0.1c0-0.2,0-0.5,0-0.7c0-0.1,0-0.2-0.2-0.1
	c-1,0-2,0-2.8,0h-4c-1,0-1.9,0-2.9-0.1c0,0.3,0.1,0.7,0.1,1c0,0.1,0.1,0.2,0.2,0.2c0.6-0.1,1.2-0.1,1.8-0.1L88.9-38.8L88.9-38.8z
	 M98.8-42.9c0.2-0.3,0.3-0.5,0.5-0.8c0.1-0.2,0.2-0.3,0.4-0.4c0.1-0.1,0.2-0.3,0-0.4c-0.3-0.2-0.6-0.3-0.9-0.4
	c-0.1,0.5-0.3,0.9-0.5,1.3c-0.9,1.6-2.2,3.1-3.7,4.2c0.2,0.1,0.4,0.2,0.6,0.4c0.1,0.1,0.3,0.1,0.3,0c1.1-0.9,2-1.9,2.8-3l3.8-0.1
	c-0.5,1.2-1.1,2.2-1.9,3.2c-0.6-0.4-1.3-0.9-1.9-1.2c-0.1,0-0.2,0-0.2,0l0,0c-0.2,0.2-0.3,0.3-0.5,0.5c0.7,0.4,1.4,0.8,2,1.3
	c-1.4,1.5-3,2.8-4.9,3.6c0.3,0.1,0.5,0.2,0.7,0.4c0.1,0.1,0.3,0.1,0.4,0c1.7-0.9,3.2-2.1,4.5-3.6c0.5,0.4,1,0.9,1.5,1.4
	c0.1,0.1,0.1,0.1,0.2,0c0.2-0.1,0.3-0.3,0.4-0.4c0.1-0.1,0.1-0.1,0-0.2c-0.5-0.5-1-1-1.6-1.4c0.8-1.1,1.5-2.2,2.1-3.4
	c0.1-0.2,0.2-0.3,0.3-0.4c0.1-0.1,0.1-0.2,0.1-0.3c0,0,0,0,0-0.1c-0.2-0.2-0.4-0.4-0.6-0.5c-0.1-0.1-0.3-0.1-0.4,0
	c-0.2,0.1-0.5,0.2-0.7,0.1L98.8-42.9z M113.8-38.8c0.9,0,1.8,0,2.8,0c0.2,0,0.2,0,0.2-0.1c0-0.2,0-0.5,0-0.7c0-0.1,0-0.2-0.2-0.1
	c-1,0-2,0-2.8,0h-4c-1,0-1.9,0-2.9-0.1c0,0.3,0.1,0.7,0.1,1c0,0.1,0.1,0.2,0.2,0.2c0.6-0.1,1.2-0.1,1.8-0.1L113.8-38.8L113.8-38.8z
	 M127.4-42.1c-0.5,1.5-1.4,2.9-2.4,4.1c-1.2,1.4-2.6,2.5-4.2,3.2c0.2,0.1,0.5,0.3,0.7,0.4c0.1,0.1,0.3,0.1,0.4,0
	c1.5-0.8,2.8-1.9,3.9-3.1c1.1-1.3,2-2.7,2.6-4.3c0.1-0.2,0.2-0.3,0.3-0.4c0.1-0.1,0.1-0.3,0.1-0.4l0,0c-0.2-0.2-0.4-0.4-0.6-0.5
	c-0.1-0.1-0.2-0.1-0.3,0c-0.2,0.1-0.4,0.1-0.7,0.1h-4.6c-0.8,0-1.7,0-2.5-0.1c0,0.2,0.1,0.6,0.1,0.8s0.1,0.2,0.2,0.2
	c0.7-0.1,1.4-0.1,2.2-0.1L127.4-42.1L127.4-42.1z M129.6-45.5c-0.7,0-1.3,0.6-1.3,1.3s0.6,1.3,1.3,1.3s1.3-0.6,1.3-1.3
	C130.9-45,130.3-45.5,129.6-45.5L129.6-45.5z M129.6-45c0.5,0,0.8,0.4,0.8,0.8s-0.4,0.8-0.8,0.8s-0.8-0.4-0.8-0.8
	C128.8-44.7,129.2-45,129.6-45L129.6-45L129.6-45z M137.9-41.4c0-0.6,0-1.1,0.1-1.7c0.1-0.2,0.1-0.3-0.1-0.4
	c-0.4-0.1-0.7-0.1-1.1-0.2c0.1,0.8,0.2,1.5,0.1,2.3v3.7c0,0.4,0,0.9-0.1,1.3c0,0.1,0,0.2,0,0.3c0.1,0.2,0.3,0.4,0.5,0.5
	c0.1,0.1,0.3,0.1,0.4,0c0.1-0.1,0.3-0.2,0.4-0.3c0.8-0.5,1.5-0.9,2.3-1.4c0.7-0.6,1.4-1.2,2.1-1.8c0.1-0.1,0.1-0.2,0.1-0.3
	c-0.1-0.3-0.2-0.5-0.2-0.8c-0.7,0.8-1.4,1.6-2.3,2.2c-0.7,0.5-1.4,1-2.2,1.4V-41.4L137.9-41.4z M134.2-42.8c0.1,0.4,0.1,0.9,0.1,1.4
	c0,1.2-0.2,2.3-0.7,3.4c-0.5,1-1.2,1.8-2.1,2.4c0.3,0.1,0.5,0.2,0.7,0.3c0.1,0.1,0.3,0.1,0.4,0l0,0c0.8-0.6,1.4-1.4,1.9-2.3
	c0.5-1.1,0.8-2.3,0.8-3.6c0-0.3,0-0.7,0.1-1c0.1-0.2,0.1-0.3-0.1-0.3C134.9-42.7,134.5-42.8,134.2-42.8L134.2-42.8z M152.5-38.8
	c0.9,0,1.8,0,2.8,0c0.2,0,0.2,0,0.2-0.1c0-0.2,0-0.5,0-0.7c0-0.1,0-0.2-0.2-0.1c-1,0-2,0-2.9,0h-4c-1,0-1.9,0-2.9-0.1
	c0,0.3,0.1,0.7,0.1,1c0,0.1,0.1,0.2,0.2,0.2c0.6-0.1,1.2-0.1,1.8-0.1L152.5-38.8L152.5-38.8z M166.2-42.3c-0.5,1.5-1.4,3-2.4,4.2
	c-1.2,1.4-2.6,2.4-4.2,3.2c0.3,0.1,0.5,0.2,0.7,0.4c0.1,0.1,0.3,0.1,0.4,0c2.9-1.6,5.2-4.2,6.4-7.4c0.1-0.2,0.2-0.3,0.3-0.4
	c0.1-0.1,0.1-0.3,0.1-0.4l0,0c-0.2-0.2-0.4-0.4-0.6-0.5c-0.1-0.1-0.2-0.1-0.3,0c-0.2,0.1-0.4,0.1-0.7,0.1h-4.6c-0.8,0-1.7,0-2.5-0.1
	c0,0.2,0.1,0.6,0.1,0.8s0.1,0.2,0.2,0.2c0.7-0.1,1.4-0.1,2.2-0.1H166.2L166.2-42.3z"/>
</svg>
