<?xml version="1.0" encoding="utf-8"?>
<!-- Generator: Adobe Illustrator 26.0.3, SVG Export Plug-In . SVG Version: 6.00 Build 0)  -->
<svg version="1.1" id="head-block-06_sp.svg" xmlns="http://www.w3.org/2000/svg" xmlns:xlink="http://www.w3.org/1999/xlink"
	 x="0px" y="0px" viewBox="0 0 470.7 110.2" style="enable-background:new 0 0 470.7 110.2;" xml:space="preserve">
<style type="text/css">
	.st0{opacity:0.2;fill:#1E9FE0;enable-background:new    ;}
	.st1{fill:#1147B4;}
</style>
<rect id="長方形_978" x="65.3" y="31.7" class="st0" width="357.9" height="12.9"/>
<rect id="長方形_978-2" y="95.8" class="st0" width="470.7" height="12.8"/>
<g>
	<path class="st1" d="M99.1,34.8c3.7,0,4.4-1.2,4.9-6.4c1.2,0.8,3.2,1.5,4.6,1.8c-0.8,6.8-2.4,9-9.1,9H86.7c-7.2,0-9.4-1.7-9.4-8
		V20.1l-5.8,1.8l-1.3-4.5l7.1-2.1V4.2H82v9.6l6.3-1.9V1.4h4.9v8.9l7.6-2.3l1.3-0.9l3.6,1.2v0.8c-0.3,5.8-0.9,13.4-1.8,18.4l-4-1.2
		c0.5-3.3,0.8-8.6,1-13.5l-7.6,2.4v15.4h-4.9V16.7L82,18.6v12.6c0,3.1,0.5,3.6,4.6,3.6C86.7,34.8,99.1,34.8,99.1,34.8z"/>
	<path class="st1" d="M151.6,9.1h-4.8v24.6c0,3-0.6,4.4-2.6,5.3c-2.1,0.8-5.1,0.9-9.3,0.9c-0.3-1.4-1.3-3.9-2.1-5.1
		c3,0.1,6.6,0.1,7.5,0.1s1.3-0.3,1.3-1.2V9.2h-27.3V4.1h37v5H151.6z M123,29.5v3.1h-4.8v-19h17.5v15.9H123z M123,18.3v6.6h7.8v-6.6
		C130.9,18.3,123,18.3,123,18.3z"/>
	<path class="st1" d="M194.3,6.9v9.4h-4.9v-5.1H163v5.1h-4.6V6.9h5.4c-0.6-1.2-1.5-2.4-2.3-3.6l4.4-1.7c1.3,1.5,2.6,3.5,3.2,4.9
		l-0.8,0.4h5.1V1.4h5v5.7h4.9L183,7c1-1.4,2.3-3.6,3-5.3l5.1,1.5c-1,1.4-1.9,2.7-2.8,3.9h5.9V6.9H194.3z M161.5,24.2h30v15.6h-4.9
		v-0.9h-20.4v0.9h-4.6V24.2H161.5z M187.1,13.1v9.3h-21.7V13L187.1,13.1L187.1,13.1z M166.1,27.7v2.2h7.7v-2.2H166.1z M173.7,35.3
		v-2.2H166v2.2H173.7z M182.3,16.5H170v2.4h12.3V16.5z M186.6,27.7h-8.1v2.2h8v-2.2H186.6z M186.6,35.3v-2.2h-8.1v2.2H186.6z"/>
	<path class="st1" d="M212.8,31.1c-0.4-2.2-1.4-5.8-2.1-8v16.6h-4.5V22.4c-0.9,4.5-2.6,10.2-4.6,13.4c-0.4-1.5-1.3-4.1-1.9-5.5
		c1.5-2.3,3.2-6.7,3.9-9.8l2.8,1.3v-2.3h-6v-4.5h5.9V1.5h4.5v11.7c0.9-2.6,1.7-6.7,2.2-9.5l4,0.9c-1,3.3-2.2,7.2-3.2,9.5l-3-0.9V15
		h5v4.5h-5v2.6l2.2-1.7c0.5,1,2.7,5.5,3.1,6.7L212.8,31.1z M202.2,14.2c-0.1-2.6-0.9-6.6-1.8-9.5l3.3-0.9c1,3,1.9,6.9,2.1,9.5
		L202.2,14.2z M221.8,18.2c0,6.3-0.8,15.8-5,21.6c-0.8-0.9-2.7-2.6-3.6-3.2c3.7-5.3,4.1-12.9,4.1-18.4V6.8h9.1
		c-0.5-1.2-1.4-2.6-2.2-3.7l4.1-1.7c1,1.3,2.3,3.2,2.8,4.4l-2.3,1h9.6v4.5h-16.7L221.8,18.2L221.8,18.2z M238.5,33.5v4.6h-18.1v-4.6
		h6.8v-9.8h-4.6v-4.6h4.6v-6.8h4.6v6.8h5.5v4.6h-5.5v9.8H238.5z"/>
	<path class="st1" d="M262.4,34.9c0,2.1-0.4,3.2-1.8,4c-1.3,0.6-3.2,0.8-5.7,0.8c-0.3-1.3-0.9-3.1-1.5-4.1c1.5,0.1,3.2,0.1,3.7,0
		c0.5,0,0.6-0.1,0.6-0.6v-3.6h-7.3c-0.5,3.1-1.4,6.2-3.1,8.6c-0.8-0.8-2.7-2.3-3.6-2.7c2.6-3.7,2.8-8.9,2.8-12.9v-9.4h15.9V34.9
		L262.4,34.9z M281.2,7.4v4.4h-37.3V7.4h8.7c-0.8-1.4-1.9-3.2-3.1-4.5l4.6-1.5c1.5,1.5,3.1,3.7,3.9,5.4l-2.3,0.8h11.4
		c1.3-1.9,2.6-4.4,3.3-6.2l5.3,1.5c-1,1.5-2.1,3.2-3.1,4.6h8.5V7.4H281.2z M257.7,27.6v-2.7H251c0,0.9,0,1.7-0.1,2.7H257.7z
		 M251,18.5v2.8h6.7v-2.8H251z M270.4,31.8h-4.5V15.1h4.5V31.8z M274.1,14h4.8v20.4c0,2.4-0.5,3.6-2.1,4.4c-1.5,0.8-3.7,0.9-6.7,0.8
		c-0.3-1.3-1-3.3-1.8-4.6c2.1,0.1,4.2,0.1,4.9,0c0.6,0,0.9-0.1,0.9-0.8L274.1,14L274.1,14z"/>
	<path class="st1" d="M300.9,25.8c2.6-0.3,5.1-0.4,7.6-0.6v4.4c-2.6,0.3-5.1,0.5-7.6,0.6V35c0,2.2-0.4,3.3-1.9,4
		c-1.5,0.6-3.5,0.8-6.2,0.8c-0.3-1.3-0.9-3.2-1.5-4.4c1.7,0,3.6,0,4.2,0c0.5,0,0.8-0.1,0.8-0.5v-4.1c-3.2,0.3-6.3,0.5-8.7,0.8
		l-0.4-4.5c2.6-0.1,5.8-0.4,9.3-0.6v-2.1c1.3-1,2.7-2.4,4-4h-11.2v-4.1h1.8c-0.5-1.8-1.7-4.5-2.6-6.4l3.9-1.5c1.2,2.1,2.4,4.8,3,6.6
		l-3.3,1.4h12l1-0.3l3.2,2.4c-1.9,2.3-4.6,5-7.1,7.2v0.1H300.9z M309.5,5.2c-5.9,1.5-14,2.3-21,2.6c-0.1-1.2-0.8-2.8-1.3-4
		c6.7-0.4,14.4-1.3,19.3-2.6L309.5,5.2z M296.8,15.5c-0.4-1.8-1.3-4.6-2.1-6.8l4-1.3c0.9,2.1,1.8,4.8,2.2,6.7L296.8,15.5z
		 M301.1,14.5c1.2-2.2,2.6-5.5,3.2-8.1l4.6,1.7c-1.4,2.8-2.8,5.9-4.1,8L301.1,14.5z M319.3,34.4c1,0,1.2-1.5,1.4-7.6
		c1.2,0.9,3.1,1.8,4.4,2.2c-0.4,7.2-1.5,9.8-5.3,9.8h-4c-4.1,0-5.1-1.7-5.1-6.8V2.4h4.9V32c0,2.2,0.1,2.4,1.2,2.4
		C316.7,34.4,319.3,34.4,319.3,34.4z"/>
	<path class="st1" d="M357.1,24.6c-0.4,2.6-1,5-2.3,7.2c3.7,1.8,8.5,3,14,3.5c-1,1-2.3,3.1-3,4.4c-5.5-0.6-10.3-2.2-14-4.4
		c-1.9,1.8-4.8,3.3-8.5,4.4c-0.6-1-2.1-3.1-3.1-4.1c3.3-0.8,5.7-1.8,7.5-3.2c-2.1-1.7-3.6-3.7-5-6.2l4-1.3c1,1.5,2.3,3,3.9,4.2
		c0.8-1.5,1.3-3,1.5-4.6H343V12.7h9.5V9.8h-10.3V6c-0.8,1.5-1.5,3.2-2.4,4.8v29.1h-4.6V17.7c-1.2,1.4-2.2,2.7-3.3,3.9
		c-0.5-1.2-1.8-3.9-2.6-5c3.9-3.7,7.7-9.5,9.9-15.3l4.5,1.5c-0.4,0.9-0.8,1.7-1.2,2.6h10V1.6h4.9v3.7h10.9v4.5h-10.9v2.8h9.8v12
		H357.1z M352.4,20.8v-0.5v-3.6h-5v4.1H352.4z M357.3,16.7v3.6v0.5h5.1v-4.1H357.3z"/>
	<path class="st1" d="M408.6,33.9c0,2.6-0.5,4-2.2,4.6c-1.7,0.8-4.2,0.9-7.8,0.9c-0.1-1.3-0.9-3.5-1.5-4.6c2.3,0.1,5,0.1,5.8,0.1
		s1-0.3,1-1v-6.2h-8.7v11.4h-4.9V27.7h-8.4c-0.8,4.5-2.2,9-5.1,12.2c-0.8-0.9-2.7-2.6-3.9-3.2c4.5-4.9,4.9-12.2,4.9-18V4.1h30.9
		L408.6,33.9L408.6,33.9z M390.1,23.1v-5h-7.7v0.8c0,1.3,0,2.8-0.1,4.4h7.8L390.1,23.1L390.1,23.1z M382.4,8.7v4.7h7.7V8.7H382.4z
		 M403.7,8.7H395v4.7h8.7V8.7z M403.7,23.1v-5H395v5H403.7z"/>
	<path class="st1" d="M420.3,26.3c3.2-1,5-2.8,5.3-5c-0.1,0-0.3,0-0.5,0c-2.1,0-3.9-1.3-3.9-3.6s1.8-3.7,4-3.7c3,0,4.5,2.2,4.5,5.7
		c0,4.6-3,8.5-8.1,9.9L420.3,26.3z"/>
</g>
<path class="st1" d="M7.3,89.8c-1.5-1.4-4.8-3.5-7.3-4.8l2.7-3.6c2.6,1.2,5.8,3,7.5,4.4L7.3,89.8z M11.3,95
	c-1.8,4.4-3.9,9.1-5.9,13.2l-4.4-3c1.9-3.2,4.6-8.4,6.7-13.1L11.3,95z M8.7,78.9c-1.4-1.5-4.5-3.7-6.9-5l2.8-3.5
	c2.4,1.3,5.7,3.2,7.2,4.6L8.7,78.9z M33.9,103.8c0.8,0,0.9-0.8,1-5.8c1,0.8,3,1.5,4.2,1.9c-0.4,6.4-1.5,8.2-4.8,8.2h-3.2
	c-3.9,0-4.8-1.4-4.8-5.8V91.5H23c-0.6,7.7-2.3,13.6-10.5,17c-0.5-1.2-1.8-3-3-4c6.9-2.6,8-7.1,8.5-13.1h-6.2v-4.6h11.1V81h-4.6
	c-0.9,2.3-1.8,4.2-3,5.8c-0.9-0.8-3.1-2.2-4.2-2.7c2.6-3.1,4.1-8.2,5-13.4l4.9,0.9c-0.3,1.7-0.6,3.2-1.2,4.8h3.1v-6.2h4.9v6.2h8.9
	V81h-8.9v5.8h10.7v4.6h-7.2v10.8c0,1.3,0.1,1.5,0.8,1.5H33.9L33.9,103.8L33.9,103.8z"/>
<path class="st1" d="M64.7,77.1c-0.4,1.3-0.8,2.6-1.2,3.7h15.7v27.8h-5v-2.1H50.4v2.1h-4.6V80.8h12.7c0.3-1.2,0.5-2.4,0.6-3.7h-15
	v-4.6h37v4.6C81.1,77.2,64.7,77.2,64.7,77.1z M50.5,101.9h4.2V85.2h-4.2V101.9z M65.3,85.3H59v2.8h6.3V85.3z M65.3,92H59v3.1h6.3V92
	z M59,101.9h6.3v-3.1H59V101.9z M74.2,85.3h-4.5v16.7h4.5V85.3z"/>
<path class="st1" d="M100.8,94.6c2.6-0.3,5.1-0.4,7.6-0.6v4.4c-2.6,0.3-5.1,0.5-7.6,0.6v4.8c0,2.2-0.4,3.3-1.9,4
	c-1.5,0.6-3.5,0.8-6.2,0.8c-0.3-1.3-0.9-3.2-1.5-4.4c1.7,0,3.6,0,4.2,0c0.5,0,0.8-0.1,0.8-0.5v-4.1c-3.2,0.3-6.3,0.5-8.7,0.8
	L87,95.8c2.6-0.1,5.8-0.4,9.3-0.6v-1.9c1.3-1,2.7-2.4,4-4H89.1v-4.1h1.8c-0.5-1.8-1.7-4.5-2.6-6.4l3.9-1.5c1.2,2.1,2.4,4.8,3,6.6
	l-3.3,1.4h12l1-0.3l3.2,2.4c-1.9,2.3-4.6,5-7.1,7.2v0.1H100.8z M109.4,74c-5.9,1.5-14,2.3-21,2.6c-0.1-1.2-0.8-2.8-1.3-4
	c6.7-0.4,14.4-1.3,19.3-2.6L109.4,74z M96.7,84.3c-0.4-1.8-1.3-4.6-2.1-6.8l4-1.3c0.9,2.1,1.8,4.8,2.2,6.7L96.7,84.3z M101.1,83.3
	c1.2-2.2,2.6-5.5,3.2-8.1l4.6,1.7c-1.4,2.8-2.8,5.9-4.1,8L101.1,83.3z M119.2,103.2c1,0,1.2-1.5,1.4-7.6c1.2,0.9,3.1,1.8,4.4,2.2
	c-0.4,7.2-1.5,9.8-5.3,9.8h-4c-4.1,0-5.1-1.7-5.1-6.8V71.2h4.9v29.6c0,2.2,0.1,2.4,1.2,2.4C116.6,103.2,119.2,103.2,119.2,103.2z"/>
<path class="st1" d="M143.9,89.3c0,2.8-2.4,5.3-5.3,5.3c-2.8,0-5.3-2.4-5.3-5.3c0-2.8,2.4-5.3,5.3-5.3
	C141.4,84,143.9,86.5,143.9,89.3z"/>
<path class="st1" d="M159.9,89.3c-1.7-1.4-5.1-3.2-7.7-4.4l2.6-3.7c2.6,1,6,2.7,8,4L159.9,89.3z M163.8,94.8
	c-2.1,4.4-4.5,9.1-6.9,13.1l-4.2-3.2c2.2-3.1,5.1-8.4,7.5-13.1L163.8,94.8z M162.3,78.4c-1.7-1.4-5-3.3-7.6-4.6l2.7-3.6
	c2.6,1.2,6,2.8,7.7,4.2L162.3,78.4z M181.2,83.8c2.2,6,6,12.2,10.2,15.8c-1.2,0.9-2.7,2.6-3.6,4c-3.2-3.2-6.2-8-8.4-13.1v18.1h-5
	V90.8c-2.3,5.4-5.4,10-9,13.1c-0.8-1.2-2.4-3-3.6-3.9c4.6-3.5,8.6-9.8,10.8-16.2H164v-4.9h10.4v-8.6h5v8.6h10.8v4.8h-9L181.2,83.8
	L181.2,83.8z"/>
<path class="st1" d="M202.9,89.8c-1.5-1.2-4.9-3.1-7.2-4.4l2.7-3.6c2.2,1,5.5,2.8,7.3,3.9L202.9,89.8z M197.1,104.8
	c1.7-2.8,4-7.3,5.9-11.6l3.9,3.1c-1.7,3.7-3.6,8-5.4,11.4L197.1,104.8z M205.1,79c-1.5-1.4-4.9-3.6-7.2-5.1l2.8-3.3
	c2.3,1.3,5.7,3.5,7.3,4.6L205.1,79z M222.4,78.9c-0.3,0.5-0.5,1-0.6,1.4c3.5,5.3,7.6,8.5,13,11.1c-1.3,1-2.6,2.7-3.2,4.1
	c-0.6-0.4-1.3-0.8-1.9-1.2v14h-5V107h-10.3v1.5h-4.8V94.1c-0.8,0.5-1.5,0.9-2.3,1.3c-0.6-1.3-2.1-3-3.3-4.1
	c6.2-2.7,11.3-7.6,14-13.9L222.4,78.9z M218.6,72.1c-2.4,4.1-5.9,8.6-8.9,11.4c-0.9-0.9-2.8-2.3-4-3c3.1-2.4,6.3-6.3,8.2-10
	L218.6,72.1z M227.3,92.6c-3-2.2-5.5-4.8-7.8-8.1c-2.2,3.2-4.9,5.9-8,8.1H227.3z M224.6,102.8v-5.7h-10.3v5.7H224.6z M229.6,83
	c-1.8-2.6-5.9-6.9-8.7-10l3.9-2.4c2.8,3,7.1,7.1,9.1,9.6L229.6,83z"/>
<path class="st1" d="M253,94.6c2.6-0.3,5.1-0.4,7.6-0.6v4.4c-2.6,0.3-5.1,0.5-7.6,0.6v4.8c0,2.2-0.4,3.3-1.9,4
	c-1.5,0.6-3.5,0.8-6.2,0.8c-0.3-1.3-0.9-3.2-1.5-4.4c1.7,0,3.6,0,4.2,0c0.5,0,0.8-0.1,0.8-0.5v-4.1c-3.2,0.3-6.3,0.5-8.7,0.8
	l-0.4-4.5c2.6-0.1,5.8-0.4,9.3-0.6v-1.9c1.3-1,2.7-2.4,4-4h-11.2v-4.1h1.8c-0.5-1.8-1.7-4.5-2.6-6.4l3.9-1.5c1.2,2.1,2.4,4.8,3,6.6
	l-3.3,1.4h12l1-0.3l3.2,2.4c-1.9,2.3-4.6,5-7.1,7.2v0.1H253V94.6z M261.7,74c-5.9,1.5-14,2.3-21,2.6c-0.1-1.2-0.8-2.8-1.3-4
	c6.7-0.4,14.4-1.3,19.3-2.6L261.7,74z M248.9,84.3c-0.4-1.8-1.3-4.6-2.1-6.8l4-1.3c0.9,2.1,1.8,4.8,2.2,6.7L248.9,84.3z M253.3,83.3
	c1.2-2.2,2.6-5.5,3.2-8.1l4.6,1.7c-1.4,2.8-2.8,5.9-4.1,8L253.3,83.3z M271.4,103.2c1,0,1.2-1.5,1.4-7.6c1.2,0.9,3.1,1.8,4.4,2.2
	c-0.4,7.2-1.5,9.8-5.3,9.8h-4c-4.1,0-5.1-1.7-5.1-6.8V71.2h4.9v29.6c0,2.2,0.1,2.4,1.2,2.4H271.4z"/>
<path class="st1" d="M297.1,93.5c2.1,3.3,4.6,7.8,5.7,10.8l-4.6,2.4c-0.4-1-0.8-2.3-1.4-3.6c-9.6,3.1-11.3,3.7-12.5,4.5
	c-0.3-1.4-1.2-3.7-1.9-5c0.9-0.5,1.9-1.3,1.9-2.8V72.2h17.4v20.3h-12.3v8.1l5.5-1.5c-0.6-1.2-1.3-2.4-1.9-3.5L297.1,93.5z
	 M289.4,76.6v3.5h7.5v-3.5H289.4z M296.8,88.1v-3.7h-7.5v3.7H296.8z M318.7,96.1c0,2.2-0.4,3.5-1.8,4.4c-1.3,0.8-3.2,0.8-5.8,0.8
	c-0.1-1.3-0.8-3.3-1.4-4.6c1.5,0.1,3,0.1,3.5,0c0.5,0,0.6-0.1,0.6-0.6v-19h-5v31.6H304V72.5h14.8L318.7,96.1L318.7,96.1z"/>
<path class="st1" d="M363,77.9h-4.8v24.5c0,3-0.6,4.4-2.6,5.3c-2.1,0.8-5.1,0.9-9.3,0.9c-0.3-1.4-1.3-3.9-2.1-5.1
	c3,0.1,6.6,0.1,7.5,0.1s1.3-0.3,1.3-1.2V78h-27.3v-5.1h37v5H363z M334.4,98.3v3.1h-4.8v-19h17.5v15.9H334.4z M334.4,87.1v6.6h7.8
	v-6.6C342.3,87.1,334.4,87.1,334.4,87.1z"/>
<path class="st1" d="M382.9,83h7.1v4.4h-7.1v3.5h6.3V95h-6.3v5.3l6.8-0.5c-0.1,1.3-0.3,3.3-0.1,4.4c-15,1.4-17.4,1.7-18.9,2.4
	c-0.3-1.2-0.9-3-1.4-3.9c0.8-0.3,1.5-0.9,1.5-2.4V89.4h4.2v11.4l3.2-0.3V87.4h-9.5V83h9.5v-4.4h-3.3c-0.9,1.7-1.9,3.2-2.8,4.4
	c-0.8-0.8-2.7-2.1-3.7-2.7c2.3-2.6,4.2-6.4,5.3-10.3l4.5,1c-0.4,1.2-0.6,2.2-1.2,3.3h12.2v4.2h-6.3L382.9,83L382.9,83z M405,96.9
	c0,2.2-0.4,3.6-1.8,4.5c-1.3,0.9-3.2,1-5.7,1c-0.1-1.4-0.9-3.7-1.5-5c1.5,0.1,3,0,3.6,0c0.5,0,0.6-0.1,0.6-0.6V77.1h-4.4v31.5H391
	v-36h14V96.9L405,96.9z"/>
<path class="st1" d="M425.7,73.4c-1,3.5-2.3,7.7-3.5,10.8c2.3,3.2,2.8,6,2.8,8.5c0,2.7-0.5,4.5-1.8,5.4c-0.6,0.5-1.4,0.8-2.3,0.9
	c-0.8,0.1-1.7,0.1-2.6,0.1c0-1.3-0.4-3-1-4.2c0.6,0.1,1.3,0.1,1.7,0c0.4,0,0.8-0.1,1-0.4c0.5-0.4,0.6-1.3,0.6-2.4
	c0-1.9-0.5-4.6-2.6-7.5c0.8-2.6,1.5-5.9,2.2-8.6H417v32.3h-4.2V71.8h9l0.6-0.1L425.7,73.4z M433,97.1c-1.5,3.3-3.9,6.8-5.9,9.1
	c-0.8-0.8-2.6-2.1-3.6-2.7c2.1-1.9,4.1-4.9,5.3-7.6L433,97.1z M440.2,94.6v8.9c0,2.2-0.4,3.5-1.9,4.2c-1.4,0.6-3.5,0.8-6.2,0.8
	c-0.3-1.3-0.9-3.2-1.5-4.5c1.8,0.1,3.6,0.1,4.2,0c0.5,0,0.8-0.1,0.8-0.6v-8.7h-9.8v-4.5h9.8v-3.3h-6.7v-2.8c-0.5,0.4-1.2,0.8-1.7,1
	c-0.6-1.2-2.1-2.7-3.2-3.6c5-2.4,10-6.8,12.7-11.8l4.1,1.5c-0.3,0.5-0.6,1.2-1,1.7c3.9,4.2,7.7,6.6,10.8,8c-1.2,1-2.6,2.6-3.2,4
	c-0.6-0.4-1.3-0.8-1.9-1.3v3.3h-5.3v3.3h9.3v4.5L440.2,94.6L440.2,94.6z M444.1,82.6c-2.1-1.5-4.4-3.6-6.7-6.3
	c-1.9,2.4-4.2,4.5-6.6,6.3H444.1z M445,95.6c2.2,2.4,4.5,5.8,5.5,8l-3.9,2.2c-1-2.3-3.3-5.8-5.3-8.4L445,95.6z"/>
<path class="st1" d="M457.2,101.5c0-2.3,1.5-4,3.7-4s3.7,1.7,3.7,4c0,2.2-1.7,4-3.7,4S457.2,103.8,457.2,101.5z M458.1,79.4
	l-0.3-5.7h6l-0.3,5.7l-0.9,15.2h-4L458.1,79.4z"/>
</svg>
