<?xml version="1.0" encoding="utf-8"?>
<!-- Generator: Adobe Illustrator 26.0.3, SVG Export Plug-In . SVG Version: 6.00 Build 0)  -->
<svg version="1.1" id="Layer_1" xmlns="http://www.w3.org/2000/svg" xmlns:xlink="http://www.w3.org/1999/xlink" x="0px" y="0px"
	 viewBox="0 0 526.5 180.3" style="enable-background:new 0 0 526.5 180.3;" xml:space="preserve">
<style type="text/css">
	.st0{fill:#FFFFFF;}
</style>
<g>
	<path class="st0" d="M82,11.5c10.7,1.4,7.5,9.2,3.5,6.4c-0.4-2.2-2.2-4.6-3.9-6.1L82,11.5z M94.6,9.6c-1.7,5.5-4.7,15.5-5.3,17.9
		c-0.3,1.4-0.6,2.9-0.6,4.1c0.1,2.3,1.7,4.2,1.5,8.1c-0.1,2.2-1.3,3.5-3.2,3.5c-1,0-1.8-0.7-2.1-2.3c0.8-4.7,0.5-8.8-0.5-9.5
		c-0.6-0.5-1.3-0.6-2.3-0.7v-0.9h2c0.6,0,0.8,0,1.3-0.9c0.9-1.7,0.9-1.7,8.4-19.5L94.6,9.6z M85.1,1.3c11.4,1.2,8.5,9.2,4.3,6.8
		c-0.7-2.3-2.9-4.9-4.7-6.5L85.1,1.3z M111.9,14.9c3.1,3.8,8.5,6.7,13.3,8.1l-0.1,0.5c-1.6,0.4-2.8,1.7-3.3,3.8
		c-4.9-2.6-8.7-6.8-11.1-12.3h-4.6c-3,5.8-8.1,10.1-15.8,13.1l-0.3-0.6c5.7-3.3,9.4-7.5,11.7-12.5h-7.4l-0.4-1.3h8.3
		c0.9-2.4,1.6-4.9,1.9-7.6h-8.6l-0.4-1.3h19.2l2.5-3.3c0,0,2.9,2.3,4.6,3.9C121.5,5.7,121,6,120.4,6h-11c-0.6,2.8-1.4,5.3-2.4,7.6
		h10.4l2.6-3.4c0,0,2.9,2.3,4.6,4c-0.1,0.5-0.6,0.7-1.2,0.7H111.9z M100,26.5c2.3,13.8-9.8,11.8-6.2,7.5c2.4-1,4.8-3.5,5.5-7.5
		L100,26.5z M103.9,21.1l5.7,0.6c-0.1,0.6-0.6,1-1.6,1.2v15.5c0,3.1-0.6,4.8-5.7,5.3c-0.1-1.3-0.3-2.3-1-2.9
		c-0.6-0.7-1.7-1.1-3.9-1.5v-0.7c0,0,4.6,0.3,5.6,0.3c0.7,0,1-0.2,1-0.8V21.1z M110.4,27.2c8.8,5.7,4.7,13.2,1.4,9.8
		c0.3-3.1-0.8-6.9-2-9.5L110.4,27.2z M115.6,26.2c12.3,5,8.9,14.2,4.9,10.9c-0.3-3.5-2.9-7.9-5.5-10.6L115.6,26.2z"/>
	<path class="st0" d="M146.5,8.4l4.3,3.7c-0.4,0.4-1,0.7-1.9,0.9c-0.4,17.3-1.1,25.1-3.5,27.6c-1.5,1.6-3.4,2.3-5.7,2.3
		c0-1.5-0.2-2.5-0.8-3.2c-0.7-0.7-2.2-1.2-4-1.6l0-0.7c1.7,0.2,4.3,0.4,5.3,0.4c0.9,0,1.2-0.2,1.7-0.6c1.6-1.5,2.2-9.8,2.5-24.9
		h-5.3c-0.5,11.1-2.3,22.6-11.5,31.3l-0.7-0.6c6.3-9.1,7.6-19.9,7.9-30.6h-6.3l-0.4-1.3h6.8c0.1-3.3,0-6.6,0-9.8l6.1,0.6
		c-0.1,0.7-0.5,1.1-1.7,1.3c0,2.6,0,5.2-0.1,7.9h4.7L146.5,8.4z M170.2,9.9c-0.3,0.4-1.1,0.7-2,1v29.4c-0.1,0.4-2.2,1.6-3.8,1.6
		h-0.7v-4.4h-6.9V41c0,0.6-1.6,1.6-3.5,1.6h-0.7V6.7l4.4,2h6.2l2.3-2.6L170.2,9.9z M163.8,36.2V10.1h-6.9v26.2H163.8z"/>
	<path class="st0" d="M177,11.6c-1,1-2,1.9-2.9,2.7l-0.6-0.5c2.3-3.1,4.6-8,5.8-13l5,1.8c-0.2,0.6-0.8,0.9-1.7,0.9
		c-0.6,1.1-1.1,2.2-1.8,3.3l0.6,0.2h8.3l1.9-2.3c0,0,2.2,1.7,3.5,2.9c-0.1,0.5-0.5,0.7-1.1,0.7h-5.7v4h1.3l1.7-2.1
		c0,0,1.6,1.2,2.7,2.3c1.9-3,3.6-7.3,4.6-11.7l5.1,1.7c-0.1,0.6-0.7,1-1.7,0.9c-0.5,1.1-1.1,2.3-1.7,3.3l0.7,0.3h9.2l1.9-2.3
		c0,0,2.2,1.7,3.6,2.9c-0.1,0.5-0.6,0.7-1.2,0.7h-6.2v4h1.6l1.7-2.2c0,0,2,1.5,3.2,2.8c-0.1,0.5-0.5,0.7-1.2,0.7h-5.3v4.1h1.6
		l1.7-2.2c0,0,2,1.5,3.2,2.8c-0.1,0.5-0.6,0.7-1.2,0.7h-5.3v4h2.6l1.9-2.5c0,0,2.3,1.7,3.7,3.1c-0.1,0.5-0.6,0.7-1.2,0.7h-14.9v0.5
		c0,0.3-1.2,1.2-3.1,1.2h-0.6V11.6c-0.8,0.9-1.7,1.7-2.6,2.3l-0.6-0.4H193h-4.9v4.1h1.3l1.7-2.1c0,0,1.9,1.5,3.1,2.7
		c-0.1,0.5-0.6,0.7-1.1,0.7h-4.9v4h2.1l1.9-2.4c0,0,2.2,1.7,3.5,3c-0.1,0.5-0.6,0.7-1.2,0.7h-13.7v0.7c0,0.3-1.2,1.2-3.1,1.2H177
		V11.6z M210.9,28.9c-0.4,0.4-0.9,0.6-2.2,0.6c-2.5,2.7-5.5,5-9,6.9c5.3,1.4,11.1,2.1,17.1,2.4l0,0.6c-1.9,0.5-3.1,2-3.6,4.1
		c-6.7-0.9-12.9-2.4-18-4.9c-6.1,2.5-13.2,4.1-21.1,4.8l-0.3-0.7c6.6-1.2,12.9-3.2,18.3-5.8c-3.5-2.1-6.4-4.9-8.6-8.3h-7.8l-0.4-1.3
		h28.6l2.9-2.4L210.9,28.9z M180.7,8.3v4h3.9v-4H180.7z M184.6,13.5h-3.9v4.1h3.9V13.5z M184.6,19h-3.9v4h3.9V19z M183.4,0.8
		c8.8,1.4,5.5,7.8,2.3,5.3c-0.2-1.7-1.5-3.8-2.7-5L183.4,0.8z M184.8,28.7c2.6,2.8,6.3,4.9,10.7,6.5c3.2-1.9,5.9-4.1,8-6.5H184.8z
		 M200.2,8.3v4h4.3v-4H200.2z M204.5,13.5h-4.3v4.1h4.3V13.5z M204.5,19h-4.3v4h4.3V19z M203.3,0.7c8.8,1.4,5.5,7.8,2.3,5.3
		c-0.1-1.7-1.4-3.8-2.7-5L203.3,0.7z"/>
	<path class="st0" d="M257.3,37.1c0,0,3.3,2.4,5.2,4.2c-0.1,0.5-0.6,0.7-1.3,0.7h-41.1l-0.4-1.3h19v-5.2h-15l-0.4-1.3h15.4v-4.7
		h-8.6v0.9c0,0.4-1.9,1.4-3.7,1.4h-0.6V13.9l4.7,2h8.3v-4.3h-17.8l-0.4-1.3h18.1v-4c-5,0.4-10.3,0.6-15.2,0.6L223.4,6
		c10.2-0.9,23-3.2,29.8-5.2l4,4c-0.5,0.4-1.4,0.4-2.7-0.2c-3.2,0.5-7.1,1-11.3,1.3v4.3h11.1l2.7-3.2c0,0,3,2.2,4.9,3.8
		c-0.1,0.5-0.6,0.7-1.2,0.7h-17.4v4.3h8.3l2.2-2.4l4.6,3.5c-0.3,0.4-1,0.7-1.9,0.9v11.9c0,0.3-2.2,1.2-3.7,1.2h-0.7v-1.7h-8.8v4.7
		h9.2l2.5-3.1c0,0,2.9,2.1,4.7,3.7c-0.1,0.5-0.6,0.7-1.2,0.7h-15.1v5.2h11.3L257.3,37.1z M230.1,17.1v4.7h8.6v-4.7H230.1z M238.7,28
		v-4.8h-8.6V28H238.7z M243.1,17.1v4.7h8.8v-4.7H243.1z M251.9,28v-4.8h-8.8V28H251.9z"/>
	<path class="st0" d="M302.9,5c0,0,3.1,2.3,5.1,4c-0.1,0.5-0.6,0.7-1.3,0.7h-22.3c-1.1,2-2.3,4-3.8,6l1.2,0.4h14.4l2.2-2.5l4.9,3.7
		c-0.4,0.5-1.1,0.9-2.2,1.1V38c0,3.1-0.7,5-6.2,5.5c-0.1-1.4-0.4-2.5-1.1-3.2c-0.7-0.7-1.8-1.2-4-1.6v-0.7c0,0,4.9,0.3,5.9,0.3
		c0.8,0,1-0.3,1-1v-5.8h-16.1c-0.8,4.3-2.6,8.7-7.3,12l-0.5-0.5c3.5-5.3,3.7-12.1,3.7-18.2v-4.4c-2.9,3-6.3,5.8-10.2,7.8l-0.4-0.5
		c6-4.7,10.5-11.5,13.5-18.2H267l-0.3-1.3h13.4c1.1-2.6,2-5.3,2.6-7.8l6.4,1.9c-0.2,0.5-0.6,0.8-1.8,0.8c-0.6,1.7-1.4,3.3-2.2,5.1
		h15L302.9,5z M296.7,30.3v-5.8h-15.6V25c0,1.7,0,3.5-0.3,5.3H296.7z M281.1,17.6v5.7h15.6v-5.7H281.1z"/>
	<path class="st0" d="M323.7,14c-0.2,0.5-0.8,0.9-1.7,0.7c-2.6,4.5-6.2,7.8-10,9.8l-0.6-0.5c2.7-2.8,5.3-7.4,6.9-12.3L323.7,14z
		 M331.2,21.4c-0.2,0.6-0.8,1-1.9,0.9c-0.5,1.7-1.1,4-2.4,6.6c7.4,6.3,5.1,12.3,1.2,9.8c-0.7-1.9-2-4-3.5-6
		c-2.5,3.5-6.3,7.2-12.5,10.7l-0.6-0.7c5.4-4.4,8.7-8.8,10.7-12.8c-2-2.4-4.3-4.7-6.3-6.5l0.5-0.4c2.9,1.2,5.2,2.4,7.2,3.7
		c1-2.8,1.5-5.2,1.7-7.1L331.2,21.4z M312.1,10.7l-0.4-1.3h17.8l2.5-3.3c0,0,2.9,2.3,4.6,3.8c-0.1,0.5-0.6,0.7-1.2,0.7H312.1z
		 M318.4,1.1c11.8,1.6,8.5,10.5,4,7.6c-0.5-2.6-2.5-5.5-4.4-7.3L318.4,1.1z M324.9,12.1c12.2,1.9,9.8,10.7,5.4,8.2
		c-0.8-2.8-3.5-6-5.8-7.9L324.9,12.1z M351.4,12.5c-0.9,7.1-2.6,13.4-6.1,18.7c2.5,3.5,5.7,6.4,9.9,8.6l-0.1,0.5
		c-2,0.4-3.3,1.4-3.9,3.4c-3.5-2.5-6.1-5.7-8-9.5c-3.3,3.9-7.6,7.1-13.6,9.6l-0.4-0.5c5.7-3.5,9.7-7.7,12.4-12.6
		c-1.5-3.9-2.5-8.3-3.2-13c-1.4,2.9-3,5.5-4.8,7.7l-0.6-0.4c2.6-6.2,4.7-15.3,5.5-24l6.3,1.3c-0.1,0.6-0.7,1.1-1.7,1.1
		c-0.6,2.8-1.3,5.4-2.2,7.9h7.1l2.5-3.3c0,0,2.9,2.3,4.6,3.9c-0.1,0.5-0.6,0.7-1.2,0.7H351.4z M340.6,12.5c-0.4,1.2-0.9,2.3-1.3,3.3
		c0.9,4.3,2.2,8.2,4,11.7c1.9-4.6,3-9.6,3.5-15H340.6z"/>
	<path class="st0" d="M399,38.4c1.6,2.3,1.7,3.4,1.2,4c-1.6,1.7-5.1,0.1-7.2-1.6c-2.4-1.9-4.5-4.1-6.1-6.7
		c-3.6,3.7-8.2,6.9-14.1,9.2l-0.4-0.6c5.4-3,9.6-7.1,12.8-11.6c-2.8-5.6-4.1-12.2-4.7-19.6h-13.8V19h6.5l2.2-2.2l4.1,3.4
		c-0.3,0.4-0.8,0.6-1.7,0.7c-0.2,9.6-0.9,13.4-2.8,15c-1.1,0.9-2.7,1.4-4.6,1.4c0-1.1-0.1-2.2-0.7-2.8c-0.5-0.6-1.6-1-2.9-1.3l0-0.7
		c1.2,0.1,3.2,0.3,4,0.3c0.6,0,1-0.1,1.3-0.4c0.8-0.8,1.3-4.5,1.5-12.1h-6.9c0,7.3-0.6,17.1-8.8,23.5l-0.5-0.5
		c4.5-6.9,4.9-15.5,4.9-23.2V8.3l5.1,1.9h13.1c-0.2-3-0.3-6.1-0.3-9.3l6,0.6c-0.1,0.6-0.5,1.2-1.6,1.3c0,2.5,0,4.9,0.1,7.4h8.3
		l2.7-3.4c0,0,3,2.3,4.8,3.9c-0.1,0.5-0.6,0.7-1.3,0.7h-14.4c0.4,5.5,1.3,10.7,3.1,15.2c1.9-3.6,3.3-7.4,4.2-11.1l6.2,2
		c-0.2,0.6-0.6,0.9-1.8,0.8c-1.5,4.2-3.5,8.4-6.5,12.3c1.5,2.3,3.3,4.4,5.6,5.9c0.8,0.6,1.1,0.6,1.6-0.2c0.7-1.1,1.7-3.5,2.5-5.5
		L400,31L399,38.4z M387.4,2c10.8,0,8.8,7.6,4.8,5.7c-0.8-1.9-3.2-4.1-5.2-5.3L387.4,2z"/>
	<path class="st0" d="M422.8,5.6c-0.2,0.5-0.6,0.8-1.7,0.7c-3.1,5.8-8.8,12.5-16.9,16.1l-0.4-0.5c6.3-4.8,10.9-12.6,13-18.8
		L422.8,5.6z M435,17l4.3,3.7c-0.3,0.4-0.9,0.6-1.9,0.8c-0.5,11.1-1.6,17.8-3.9,19.9c-1.5,1.3-3.3,1.9-5.9,1.9c0-1.3-0.2-2.4-1-3
		c-0.8-0.7-2.9-1.3-5-1.7l0-0.7c2.2,0.2,5.9,0.5,7,0.5c0.9,0,1.2-0.1,1.7-0.5c1.4-1.2,2.2-7.6,2.7-17h-9.3
		c-0.8,7.7-3.3,16.4-17.8,22.6l-0.5-0.7c11.6-7.1,13.2-15.2,13.6-21.9h-7.1l-0.4-1.3h21.2L435,17z M435,3.8
		c-0.5,0.6-1.9,0.9-3.5,1.1c2.3,4.9,8,9.8,15,12.1l-0.1,0.5c-1.7,0.5-3.2,2-3.7,3.7c-6.1-3.8-10.6-9.6-12.6-16.6h-5.1l-0.4-1.3h4.4
		l1.5-2.4L435,3.8z"/>
	<path class="st0" d="M74.2,69.3c0,0,2.9,2.3,4.8,4c-0.1,0.5-0.6,0.7-1.2,0.7h-9c-1.2,1.9-2.7,3.9-4,5.2h6.2L73,77l4.2,3.3
		c-0.2,0.3-0.8,0.6-1.6,0.8v20.5c0,0.3-2.1,1.3-3.6,1.3h-0.7V101H60.5v1c0,0.5-1.7,1.5-3.5,1.5h-0.6V87.8c-0.3,0.2-0.8,0.3-1.6,0.4
		c-1.3,2.1-3.7,5.2-5.5,7.2L48.7,95c0.6-2.1,1.2-5.3,1.7-7.7h-3.8V106c0,3-0.6,5.2-5.5,5.6c0-1.3-0.2-2.3-0.8-3
		c-0.6-0.7-1.6-1.2-3.5-1.5v-0.6c0,0,4,0.3,4.8,0.3c0.7,0,0.9-0.3,0.9-0.8V87.3H36L35.6,86h14.5l2.3-2.3l4,3.7v-10l4.4,1.9h2.6
		c0.2-1.4,0.4-3.5,0.6-5.2H55l0.1,0.1c-0.3,0.4-0.9,0.5-1.8,0.5c-1.7,1.6-4.5,3.5-7,4.9c3.8,3.1,1.7,7.1-1.4,5.3
		c-0.9-2.8-4-6-6.7-7.7l0.4-0.4c2.9,0.4,5.1,1.1,6.6,2c1.2-1.5,2.4-3.4,3.3-4.9H36.9l-0.4-1.3h12.1l2.4-2.3l3.3,3.1l-0.1-0.6h17.4
		L74.2,69.3z M50.6,111c4-2.1,8.5-5.8,10.6-8.7l5.1,3.1c-0.2,0.4-0.7,0.5-1.5,0.3c-2.9,2.3-8.8,4.9-13.8,6L50.6,111z M60.5,80.5V86
		h10.8v-5.4H60.5z M60.5,92.8h10.8v-5.5H60.5V92.8z M71.3,99.7v-5.6H60.5v5.6H71.3z M67.1,102.5c13.7,1.8,11.8,10.8,7.3,8.7
		c-1.4-2.9-4.9-6.3-7.7-8.3L67.1,102.5z"/>
	<path class="st0" d="M99.8,73.8c-0.4,0.4-1,0.6-2.1,0.6c-1.5,2.9-4.4,8-6.6,10.8c5.1,3.4,7.1,7.6,7.1,11.3c0,4.5-1.7,6.8-6.7,7
		c0-1.2-0.2-2.8-0.6-3.3c-0.4-0.5-1.2-0.8-2.3-1v-0.6h3.4c0.5,0,0.8-0.1,1.1-0.3c0.7-0.5,1.1-1.3,1.1-2.9c0-3.3-1.1-6.8-4.2-10.1
		c1-2.9,2.4-8.4,3.3-12.1h-5.4v36.9c0,0.3-1.3,1.4-3.4,1.4h-0.7V70l4.7,1.9h4.6l2.4-2.3L99.8,73.8z M120.4,74.4c0,0,2.9,2.3,4.6,4
		c-0.1,0.5-0.6,0.7-1.2,0.7h-14.8c-0.1,2.4-0.2,4.7-0.5,6.9h7.9l2.4-2.4l4.3,3.7c-0.3,0.4-0.9,0.6-1.9,0.8
		c-0.5,12.5-1.6,19.3-4,21.4c-1.4,1.3-3.3,1.9-5.8,1.9c0-1.3-0.2-2.4-0.9-3c-0.7-0.7-2.5-1.3-4.4-1.7l0-0.7c1.9,0.2,5.1,0.4,6.2,0.4
		c0.8,0,1.2-0.1,1.7-0.5c1.5-1.3,2.3-8.1,2.8-18.6h-8.5c-1.3,10.5-4.9,18.8-15.6,24.2l-0.4-0.5c10-8.2,11.8-18.9,11.9-32h-7.5
		l-0.4-1.3h21.5L120.4,74.4z M105.5,68.9c11.5,3,6.9,11.5,2.9,7.8c-0.1-2.5-1.7-5.6-3.3-7.5L105.5,68.9z"/>
	<path class="st0" d="M143.1,98.2c-2.6,1.8-6.6,4.6-12.1,8.1c-0.1,0.6-0.5,1.1-1,1.3l-2.7-4.9c1.1-0.3,2.9-0.8,5.2-1.6V87.9h-4.1
		l-0.4-1.3h4.5V74.8H128l-0.4-1.3h9l2.3-3.2c0,0,2.7,2.2,4.4,3.8c-0.1,0.5-0.6,0.7-1.2,0.7h-5.4v11.7h0.4l1.9-2.9
		c0,0,2.3,2.1,3.5,3.5c-0.1,0.5-0.6,0.7-1.1,0.7h-4.6v11.8c2-0.6,4.1-1.3,6.2-2.1L143.1,98.2z M153.6,79.9
		c-0.6,4.4-1.4,8.6-2.7,12.6c5.9,8.5,3.6,14.4,0.1,11.4c-0.4-2.1-1.1-4.4-2.1-6.6c-2.7,5.6-6.9,10.4-12.9,14.3l-0.5-0.5
		c5.7-5,9.3-11.2,11.5-18c-1.7-3.4-3.7-6.6-5.4-9.2l0.6-0.3c2.3,1.8,4.3,3.7,5.9,5.4c0.6-2.9,1.1-5.9,1.3-9h-9.2l-0.4-1.3H151
		l2.2-3.2c0,0,2.5,2.2,4,3.8c-0.1,0.5-0.6,0.7-1.2,0.7H153.6z M144.5,69.8c9.7,3.5,5.3,10.6,1.8,7.4c0-2.4-1.2-5.3-2.3-7.1
		L144.5,69.8z M167,104c0,0,2.6,2.6,4,4.4c-0.1,0.5-0.6,0.7-1.2,0.7H151l-0.4-1.3h8.4v-17h-4.7l-0.4-1.3h5.1V74.7h-5.8l-0.4-1.3
		h10.6L166,70c0,0,2.9,2.3,4.6,4c-0.1,0.5-0.6,0.7-1.2,0.7h-6.1v14.8h1l2-3.3c0,0,2.3,2.3,3.6,3.9c-0.1,0.5-0.6,0.7-1.2,0.7h-5.4v17
		h1.6L167,104z"/>
	<path class="st0" d="M177.6,100.6c1.5,4.5,1,8-0.3,9.6c-0.9,1.2-2.9,1.3-3.7,0c-0.6-1.1,0-2.3,1-3.2c1.1-1.1,2.4-4,2.3-6.4
		L177.6,100.6z M191.7,94.9c0,0,2.4,1.9,4,3.3c-0.1,0.5-0.6,0.7-1.2,0.7h-20.6l-0.4-1.3h9.1v-5.9h-7.6l-0.4-1.3h8v-4.5h-3.8v0.7
		c0,0.4-1.6,1.2-3,1.2h-0.6V69.9l3.8,1.7h10.7l1.8-2l4,3c-0.3,0.3-0.9,0.7-1.7,0.8v12.6c0,0.3-1.8,1.1-3,1.1h-0.6v-1.3h-3.6v4.5h2.3
		l2.1-2.5c0,0,2.3,1.7,3.8,3.1c-0.1,0.5-0.6,0.7-1.2,0.7h-6.9v5.9h2.9L191.7,94.9z M183.2,84.5V72.9h-4.3v11.6H183.2z M179.5,74.5
		c5.4,5,2.9,9.3,1,7.2c0-2.3-0.9-5.2-1.6-7L179.5,74.5z M180.9,100.8c6.2,6,1.9,12-0.6,8.7c0.6-2.8,0.4-6.2-0.1-8.6L180.9,100.8z
		 M184.9,100.5c8.1,5,4.3,11.4,1.4,8.4c0.2-2.7-0.8-5.9-2-8.1L184.9,100.5z M186.1,72.9v11.6h4v-7.8h0c-0.7,1.5-2,3.8-3.2,5.7
		l-0.6-0.2c0.5-2.3,1.1-5.9,1.3-7.7l2.5,0.9v-2.5H186.1z M189.9,100.4c8.8,4.6,5.2,11.5,2.1,8.4c0.1-2.7-1.2-6-2.6-8.1L189.9,100.4z
		 M207.1,81.3v9.5h3.1l2.1-2.4l4.2,3.2c-0.3,0.4-0.8,0.7-1.8,0.9v17.5c0,0.2-1.5,1.2-3.6,1.2h-0.7v-3.2h-10v2.5
		c0,0.3-1.3,1.1-3.4,1.1h-0.7V88.9l4.6,1.9h2V69.3l5.8,0.6c-0.1,0.7-0.5,1.2-1.7,1.3v8.7h3.3l2.3-3c0,0,2.7,2.1,4.2,3.6
		c-0.1,0.5-0.6,0.7-1.2,0.7H207.1z M200.4,92.1v14.4h10V92.1H200.4z"/>
	<path class="st0" d="M241.1,87c1.8,0,3.2,1.4,3.2,3.2c0,1.8-1.4,3.2-3.2,3.2c-1.8,0-3.2-1.4-3.2-3.2C237.9,88.4,239.3,87,241.1,87z
		"/>
	<path class="st0" d="M282.5,105.3c0,2.9-0.6,4.6-5.2,5c-0.1-1.2-0.4-2.2-0.9-2.7c-0.6-0.6-1.5-1.1-3.3-1.4v-0.7
		c0,0,3.8,0.3,4.6,0.3c0.8,0,1-0.3,1-0.9V90.5c-1.1,1.3-2.6,2.9-4.2,4.7c-0.1,0.6-0.4,1.1-0.8,1.3l-1.7-3c-0.4,6.3-1.7,13-5.9,18.2
		l-0.6-0.4c3-7.5,3-16.9,3-25.5V69.9l4.5,1.8h5.5l1.8-2.2l4.1,3.2c-0.3,0.3-0.9,0.7-1.7,0.9V105.3z M272.1,85.8c0,2,0,4.1-0.1,6.3
		c1.5-0.7,4-1.9,6.7-3.4v-4.6c-0.4,0.4-1,0.6-1.8,0.5c-1.1-1-3-2.2-4.8-3V85.8z M272.1,73v7.1c3.6-0.5,5.7,0.4,6.6,1.5V73H272.1z
		 M307.4,105.3c1.1,0.5,1.3,1,1.3,1.8c0,1.7-1.5,2.6-5.8,2.6h-2.2c-3.1,0-3.7-1.1-3.7-3.8V74.2h-6.4v13.5c0,8.1-0.5,17.5-8.6,23.8
		l-0.6-0.4c4.6-6.5,5.1-14.9,5.1-23.4V71l4.8,1.9h5.2l2.3-2.6l4.4,3.8c-0.4,0.4-0.9,0.6-1.9,0.8v29.7c0,0.7,0.1,1,0.8,1h1.2
		c0.5,0,0.9,0,1.1,0c0.3,0,0.5-0.1,0.7-0.6c0.3-0.9,1.1-5,1.6-8.1h0.6L307.4,105.3z"/>
	<path class="st0" d="M354.5,77.4c-0.3,0.4-0.8,0.4-1.7,0.5c-1.3,1.2-3.7,2.9-5.3,3.7l-0.6-0.3c0.6-1,1.2-2.7,1.7-4h-6.7
		c0.7,0.5,2.6,1.8,3.8,2.8c0,0.5-0.6,0.8-1.2,0.8l-11.8,0.7v0.3c0,0.5,0.1,0.6,1.9,0.6h5.5c2,0,4.1,0,4.8,0c0.5,0,1-0.1,1.3-0.1
		c0.3,0,0.9-0.2,1.2-0.2h0.4l0.2,0c1.3,0.4,1.7,0.7,1.7,1.3c0,0.9-0.5,1.4-2.3,1.7l3.7,2.7c-0.2,0.3-0.8,0.6-1.6,0.8v6.5
		c0,0.3-1.8,1-3.1,1.1l3.1,2.3c-0.3,0.4-1,0.8-1.9,1v7.7c0,2.4-0.6,3.9-5.5,4.3c-0.1-1-0.3-1.7-0.9-2.3c-0.6-0.4-1.6-0.9-3.5-1.1
		v-0.6c0,0,4,0.2,4.9,0.2c0.7,0,0.9-0.2,0.9-0.8v-2.2c-3.6,0.8-8,1.8-13.6,3c-0.3,0.6-0.8,0.9-1.2,1l-1.2-4c2.9-0.1,9.2-0.6,16-1.2
		v-4.7h-15.9v1.6c15-1.8,14.9,3.3,12,3.3c-2.3-0.8-6.9-1.7-12-2.1c0,3.3-0.9,7.5-7.4,10l-0.4-0.5c3.5-2.9,3.8-6.4,3.8-9.7v-4.6
		c-0.3,0-0.7,0.1-1,0.1l-0.6,0V85l4.4,1.8h18.4l1.5-1.6c-1.6,0.1-3.8,0.1-6.8,0.1h-5.8c-4.4,0-5.2-0.7-5.2-3.2v-0.5l-7.4,0.5
		l-0.5-1.3l7.8-0.5v-2.9l5.3,0.5c-0.1,0.6-0.5,1-1.3,1.1v1.2l7-0.5l1.8-2.6h-21.6v10.7c0,7.5-0.5,17.3-7.8,23.7l-0.6-0.4
		c4-6.8,4.3-15.4,4.3-23.3V74.1l4.8,1.8h9.3v-7.2l5.9,0.6c-0.1,0.6-0.5,1.1-1.7,1.2v1.8h9.8l2.4-2.9c0,0,2.8,2.1,4.4,3.5
		c-0.1,0.5-0.5,0.7-1.2,0.7H334v2.3h14.5l2.2-2.3L354.5,77.4z M345.4,95.5v-0.2h-19.1v0.4c0,0.1-0.3,0.4-0.8,0.6l3,1.2h14.7l1.9-2.2
		L345.4,95.5z M326.2,88.1v2.2h7.5v-2.2H326.2z M333.8,93.9v-2.3h-7.5v2.3H333.8z M337.8,88.1v2.2h7.5v-2.2H337.8z M337.8,93.9h7.5
		v-2.3h-7.5V93.9z"/>
	<path class="st0" d="M375.4,97.5c0,0,2.7,2.2,4.3,3.7c-0.1,0.5-0.6,0.7-1.2,0.7h-8.1v8.7c0,0.1-1.3,0.9-3.5,0.9h-0.7V102H358
		l-0.4-1.3h8.5v-5.6h-2.2v1c0,0.4-1.7,1.3-3.4,1.3h-0.6V79.2l4.2,1.7h2v-4.4h-7.9l-0.4-1.3h8.3v-6.3l5.9,0.5c0,0.6-0.4,1.1-1.6,1.2
		v4.5h2.5l2.4-3.2c0,0,2.8,2.2,4.4,3.8c-0.1,0.5-0.6,0.7-1.2,0.7h-8.1v4.4h1.8l2-2.2l4.3,3.3c-0.3,0.3-1,0.7-1.8,0.9v12.7
		c0,0.3-2.1,1.1-3.4,1.1h-0.6v-1.6h-2.3v5.6h2.7L375.4,97.5z M363.8,82.2v5.1h8.7v-5.1H363.8z M363.8,93.7h8.7v-5.1h-8.7V93.7z
		 M378,85.4c2.5-4,4.7-10.2,5.6-16.6l6.7,1.8c-0.1,0.6-0.7,1-1.7,1c-0.8,2.1-1.7,4.1-2.7,5.9h7.8l2.5-3.4c0,0,2.8,2.3,4.5,4
		c-0.1,0.5-0.6,0.7-1.2,0.7h-14.3c-1.8,2.9-4,5.2-6.5,6.9L378,85.4z M399,106c1.5,0.5,1.9,0.7,1.9,1.6c0,1.8-2.4,2.8-7.6,2.8H387
		c-5.3,0-7.6-1.4-7.9-4.8c-0.4-3.7,4.4-8.4,11.9-18.8h-9.8l-0.4-1.3h10.8l1.8-2.1l4.4,3.5c-0.4,0.4-1.1,0.6-2.2,0.7
		c-8.5,10.3-12.3,15.5-12.1,17.5c0.1,1.2,1.4,1.5,4,1.5h6c2.7,0,3.2-0.1,3.5-0.7c0.6-1.2,1.2-3.4,1.7-5.9h0.6L399,106z"/>
	<path class="st0" d="M412.4,75.6H404l-0.4-1.3h8.6l-0.7-5.4l5.7,0.5c0,0.6-0.4,1-1.3,1.2l0.5,3.7h2.4l2.3-3.1c0,0,2.7,2.1,4.2,3.6
		c-0.1,0.5-0.6,0.7-1.2,0.7h-7.5l0.5,3.8c-0.6,0.9-2.2,1.2-4.1,1.2L412.4,75.6z M412.6,94.3l5.9,0.6c-0.1,0.6-0.4,1.1-1.5,1.2v3.1
		c-0.1,4.6-2.1,9.8-12.2,12.4l-0.4-0.6c6.9-3.1,8.1-7.8,8.1-11.9V94.3z M440.1,88.8c1.6,0.4,2.1,0.9,2.1,1.6c0,2-1.8,2.4-15,2.4
		h-9.5c-5.9,0-7.2-0.5-7.2-3.6v-5.3h-4.3l-0.4-1.3h32l2.5-3.2c0,0,2.9,2.2,4.6,3.8c-0.1,0.5-0.6,0.7-1.2,0.7h-29.2v0.7v4
		c0,0.7,0.1,0.8,3.2,0.8h9.8c3.6,0,7.1,0,8.4-0.1c0.8,0,1.5-0.1,1.9-0.2c0.5,0,1.1-0.2,1.6-0.4h0.4L440.1,88.8z M421.9,77.2
		c9.1-0.2,6.2,6.8,2.5,4.6c-0.3-1.6-1.6-3.3-2.9-4.2L421.9,77.2z M422.5,94.7l5.8,0.6c-0.1,0.6-0.5,1-1.6,1.2v12.6
		c0,0.4-1.9,1.1-3.5,1.1h-0.8V94.7z M442.5,71.2c0,0,2.7,2.1,4.2,3.6c-0.1,0.5-0.6,0.7-1.2,0.7h-9.1l-0.6,4
		c-0.8,0.6-2.4,0.9-4.2,0.5l0.7-4.5h-5.4l-0.4-1.3h6l0.8-5.4l5.7,1.2c-0.2,0.6-0.6,1.1-1.7,1.1l-0.6,3.2h3.6L442.5,71.2z
		 M444.3,105.9c1.2,0.5,1.5,0.8,1.5,1.7c0,1.6-1.6,2.4-6.3,2.4h-2.7c-3.3,0-3.8-0.9-3.8-3.6V94.3l5.6,0.5c0,0.6-0.5,1-1.4,1.1v9.5
		c0,0.6,0.1,0.7,0.9,0.7h1.9h1.7c0.3,0,0.7,0,0.9,0c0.3,0,0.7-0.1,1-0.2h0.5L444.3,105.9z"/>
	<path class="st0" d="M471.1,87c1.8,0,3.2,1.4,3.2,3.2c0,1.8-1.4,3.2-3.2,3.2c-1.8,0-3.2-1.4-3.2-3.2C467.9,88.4,469.3,87,471.1,87z
		"/>
	<path class="st0" d="M40,173.3c0,2.9-0.6,4.6-5.2,5c-0.1-1.2-0.4-2.2-0.9-2.7c-0.6-0.6-1.5-1.1-3.3-1.4v-0.7c0,0,3.8,0.3,4.6,0.3
		c0.8,0,1-0.3,1-0.9v-14.4c-1.1,1.3-2.6,2.9-4.2,4.7c-0.1,0.6-0.4,1.1-0.8,1.3l-1.7-3c-0.4,6.3-1.7,13-5.9,18.2l-0.6-0.4
		c3-7.5,3-16.9,3-25.5v-15.9l4.5,1.8h5.5l1.8-2.2l4.1,3.2c-0.3,0.3-0.9,0.7-1.7,0.9V173.3z M29.6,153.8c0,2,0,4.1-0.1,6.3
		c1.5-0.7,4-1.9,6.7-3.4v-4.6c-0.4,0.4-1,0.6-1.8,0.5c-1.1-1-3-2.2-4.8-3V153.8z M29.6,141v7.1c3.6-0.5,5.7,0.4,6.6,1.5V141H29.6z
		 M64.9,173.3c1.1,0.5,1.3,1,1.3,1.8c0,1.7-1.5,2.6-5.8,2.6h-2.2c-3.1,0-3.7-1.1-3.7-3.8v-31.7h-6.4v13.5c0,8.1-0.5,17.5-8.6,23.8
		l-0.6-0.4c4.6-6.5,5.1-14.9,5.1-23.4V139l4.8,1.9h5.2l2.3-2.6l4.4,3.8c-0.4,0.4-0.9,0.6-1.9,0.8v29.7c0,0.7,0.1,1,0.8,1h1.2
		c0.5,0,0.9,0,1.1,0c0.3,0,0.5-0.1,0.7-0.6c0.3-0.9,1.1-5,1.6-8.1h0.6L64.9,173.3z"/>
	<path class="st0" d="M112,145.4c-0.3,0.4-0.8,0.4-1.7,0.5c-1.3,1.2-3.7,2.9-5.3,3.7l-0.6-0.3c0.6-1,1.2-2.7,1.7-4h-6.7
		c0.7,0.5,2.6,1.8,3.8,2.8c0,0.5-0.6,0.8-1.2,0.8l-11.8,0.7v0.3c0,0.5,0.1,0.6,1.9,0.6h5.5c2,0,4.1,0,4.8,0c0.5,0,1-0.1,1.3-0.1
		c0.3,0,0.9-0.2,1.2-0.2h0.4l0.2,0c1.3,0.4,1.7,0.7,1.7,1.3c0,0.9-0.5,1.4-2.3,1.7l3.7,2.7c-0.2,0.3-0.8,0.6-1.6,0.8v6.5
		c0,0.3-1.8,1-3.1,1.1l3.1,2.3c-0.3,0.4-1,0.8-1.9,1v7.7c0,2.4-0.6,3.9-5.5,4.3c-0.1-1-0.3-1.7-0.9-2.3c-0.6-0.4-1.6-0.9-3.5-1.1
		v-0.6c0,0,4,0.2,4.9,0.2c0.7,0,0.9-0.2,0.9-0.8v-2.2c-3.6,0.8-8,1.8-13.6,3c-0.3,0.6-0.8,0.9-1.2,1l-1.2-4c2.9-0.1,9.2-0.6,16-1.2
		v-4.7H85.2v1.6c15-1.8,14.9,3.3,12,3.3c-2.3-0.8-6.9-1.7-12-2.1c0,3.3-0.9,7.5-7.4,10l-0.4-0.5c3.5-2.9,3.8-6.4,3.8-9.7v-4.6
		c-0.3,0-0.7,0.1-1,0.1l-0.6,0v-12l4.4,1.8h18.4l1.5-1.6c-1.6,0.1-3.8,0.1-6.8,0.1h-5.8c-4.4,0-5.2-0.7-5.2-3.2v-0.5l-7.4,0.5
		l-0.5-1.3l7.8-0.5v-2.9l5.3,0.5c-0.1,0.6-0.5,1-1.3,1.1v1.2l7-0.5l1.8-2.6H77.3v10.7c0,7.5-0.5,17.3-7.8,23.7l-0.6-0.4
		c4-6.8,4.3-15.4,4.3-23.3v-13.8l4.8,1.8h9.3v-7.2l5.9,0.6c-0.1,0.6-0.5,1.1-1.7,1.2v1.8h9.8l2.4-2.9c0,0,2.8,2.1,4.4,3.5
		c-0.1,0.5-0.5,0.7-1.2,0.7H91.5v2.3H106l2.2-2.3L112,145.4z M102.9,163.5v-0.2H83.7v0.4c0,0.1-0.3,0.4-0.8,0.6l3,1.2h14.7l1.9-2.2
		L102.9,163.5z M83.7,156.1v2.2h7.5v-2.2H83.7z M91.3,161.9v-2.3h-7.5v2.3H91.3z M95.3,156.1v2.2h7.5v-2.2H95.3z M95.3,161.9h7.5
		v-2.3h-7.5V161.9z"/>
	<path class="st0" d="M132.1,155.9c-1.7,1.1-3.9,2.3-6.5,3.8v14.4c0,3.1-0.6,4.9-5.5,5.4c-0.1-1.3-0.3-2.3-0.9-3
		c-0.6-0.7-1.5-1.2-3.4-1.4v-0.7c0,0,3.8,0.3,4.7,0.3c0.7,0,0.9-0.2,0.9-0.8v-11.8c-1.2,0.7-2.6,1.4-4,2.1c-0.2,0.6-0.6,1.1-1.1,1.2
		l-1.8-5.4c1.4-0.3,3.9-0.9,6.9-1.7v-9.4h-5.8l-0.4-1.3h6.2v-10.7l5.8,0.6c-0.1,0.6-0.6,1.1-1.7,1.3v8.8h0.9l2.1-3.1
		c0,0,2.5,2.2,3.9,3.7c-0.1,0.5-0.6,0.7-1.2,0.7h-5.7v8.2c2-0.6,4.2-1.2,6.3-1.8L132.1,155.9z M127.1,179c4.6-1.8,9.5-5.3,11.7-8.1
		l5,3.2c-0.3,0.4-0.7,0.6-1.7,0.4c-3.3,2.3-9,4.5-14.7,5.2L127.1,179z M137.3,170.4c0,0.5-1.7,1.4-3.5,1.4h-0.6v-21.9l4.4,1.8h13.4
		l2.1-2.2l4.3,3.3c-0.2,0.3-0.9,0.6-1.7,0.8V170c0,0.4-2.2,1.2-3.6,1.2h-0.7v-1.7h-14.1V170.4z M138.5,148.5c0,0.3-1.9,1.3-3.5,1.3
		h-0.6v-12.2l4.4,1.8H150l2-2.2l4.4,3.2c-0.2,0.3-0.9,0.7-1.7,0.9v6.8c0,0.3-2.2,1.2-3.5,1.2h-0.7v-1.7h-11.9V148.5z M137.3,153v4.2
		h14.1V153H137.3z M151.3,162.7v-4.2h-14.1v4.2H151.3z M151.3,168.1V164h-14.1v4.1H151.3z M138.5,140.7v5.6h11.9v-5.6H138.5z
		 M146.2,171.4c14.4,0.9,13.3,9.5,8.6,8c-1.9-2.4-6-5.8-9-7.6L146.2,171.4z"/>
	<path class="st0" d="M176.4,138.8c-0.2,0.6-0.7,0.9-1.7,0.9c-1.2,3.4-2.7,6.6-4.3,9.5l1.8,0.7c-0.1,0.4-0.6,0.7-1.4,0.9v27.6
		c-0.1,0.3-1.8,1.3-3.5,1.3h-0.8v-24.4c-1.6,2.2-3.4,4.1-5.2,5.8l-0.6-0.4c3.5-5.8,7.3-14.9,9.3-23.6L176.4,138.8z M185.5,161.6
		c-0.7,1-1.5,2-2.3,2.9h14.4l2.3-2.2l4.1,3.4c-0.4,0.3-0.9,0.6-1.8,0.7c-0.6,6.8-1.7,10.4-3.7,11.9c-1.3,0.9-3,1.2-5.1,1.2
		c0-1.1-0.1-1.9-0.8-2.5c-0.6-0.6-2-1-3.5-1.3l0-0.7c1.5,0.1,4.2,0.3,5.1,0.3c0.7,0,1.1-0.1,1.5-0.4c0.9-0.7,1.8-4,2.3-9.2h-2.4
		c-2.7,6.2-7.6,10.7-15,13.8l-0.4-0.7c5.2-3.2,8.8-7.7,10.9-13.1h-2.4c-3,4.6-7.9,8.3-13.8,10.9l-0.5-0.7c4.2-2.7,7.7-6.3,10-10.1
		h-2.5c-2.4,2.2-5.4,3.9-8.7,5.3l-0.5-0.7c3.6-2.3,6.5-5.5,8.4-8.8h-7l-0.4-1.3h23.6l2.5-3.2c0,0,2.8,2.2,4.6,3.8
		c-0.1,0.5-0.6,0.7-1.2,0.7H185.5z M173.3,150.7c2.8-3.3,5.6-8.5,7.2-14l5.8,2.2c-0.2,0.5-0.8,0.9-1.8,0.8c-0.4,0.7-0.8,1.4-1.2,2.1
		h12.5l2.7-3.5c0,0,3,2.3,4.9,4c-0.1,0.5-0.6,0.7-1.2,0.7h-19.8c-0.5,0.7-1,1.3-1.5,2l2.8,1.1h10.8l2-2.2l4.4,3.3
		c-0.2,0.3-0.9,0.7-1.7,0.9v8.9c0,0.4-2.1,1.4-3.6,1.4h-0.7v-1.4h-11.5v0.4c0,0.4-1.8,1.3-3.6,1.3h-0.6V147
		c-1.7,1.7-3.5,3.1-5.3,4.2L173.3,150.7z M183.4,147.6v3.5h11.5v-3.5H183.4z M194.9,155.8v-3.5h-11.5v3.5H194.9z"/>
	<path class="st0" d="M227.6,146.5c-0.3,0.4-1,0.7-1.9,1v27.7c0,0.4-2.1,1.3-3.5,1.3h-0.6V173h-8.1v3.5c0,0.5-1.6,1.5-3.3,1.5h-0.7
		v-34.5l4.2,1.9h0.8c0.4-2.4,1-6,1.3-8.5l6.3,1.5c-0.2,0.7-0.8,1.1-1.8,1.1c-1.1,1.7-2.7,4.1-4,5.9h4.8l2.1-2.4L227.6,146.5z
		 M213.4,146.7v11.5h8.1v-11.5H213.4z M221.5,171.6v-12.1h-8.1v12.1H221.5z M250,146.5c-0.4,0.4-0.9,0.7-2,0.8
		c-0.3,17.8-1.1,27.1-3.4,29.8c-1.5,1.7-3.5,2.4-6.1,2.4c0-1.4-0.2-2.5-1-3.2c-0.8-0.7-2.6-1.4-4.7-1.7l0-0.7
		c2.2,0.2,5.4,0.5,6.5,0.5c0.9,0,1.3-0.1,1.8-0.6c1.7-1.7,2.3-11.3,2.6-27.1h-9.7c-2.1,3.8-4.6,7.2-7.4,9.7l-0.6-0.4
		c2.7-4.6,5.4-12,6.8-19l6.1,1.8c-0.2,0.6-0.7,1-1.7,1c-0.7,2-1.5,3.9-2.4,5.7h8.5l2.5-2.6L250,146.5z M230.3,154.7
		c12.4,4.4,8.4,13.3,4.2,9.8c-0.4-3.2-2.6-7-4.6-9.5L230.3,154.7z"/>
	<path class="st0" d="M290.5,161.6c0,0,3,2.3,4.9,3.9c-0.1,0.5-0.6,0.7-1.2,0.7h-18.4c-1.5,6.2-5.7,10.5-21.8,13.4l-0.3-0.8
		c11.9-3.4,15.7-7.2,17.2-12.6h-15.3l-0.4-1.3h16c0.3-1.6,0.4-3.4,0.5-5.2l6.5,0.5c-0.1,0.6-0.6,1.2-1.6,1.2
		c-0.1,1.2-0.3,2.4-0.5,3.5h11.8L290.5,161.6z M272.1,157.8v-5.5h-13.2l-0.4-1.3h13.6v-5.2h-15.8l-0.4-1.3h21.9
		c1.1-2.3,2.3-5.3,2.9-7.6l6.1,1.6c-0.2,0.6-0.7,0.9-1.7,0.9c-1.4,1.6-3.8,3.6-5.9,5.2h7.7l2.6-3.2c0,0,2.9,2.2,4.7,3.8
		c-0.1,0.5-0.6,0.7-1.2,0.7h-16.3v5.2h7.5l2.5-3c0,0,2.8,2.1,4.6,3.6c-0.1,0.5-0.6,0.7-1.2,0.7h-13.3v5.5h11.3l2.6-3.3
		c0,0,3,2.3,4.8,3.9c-0.1,0.5-0.6,0.7-1.2,0.7h-40l-0.4-1.3H272.1z M263.6,137c10.9,1.6,7.1,9.6,3,6.6c-0.3-2.2-1.9-4.7-3.4-6.3
		L263.6,137z M277.8,167.9c19.6,2.7,19,13.1,13.7,11.4c-2.9-3.8-9.3-8.4-14-10.9L277.8,167.9z"/>
	<path class="st0" d="M339.4,147.4c-0.4,0.4-1.2,0.9-2.3,1.1v29.1c-0.1,0.4-2.3,1.6-4,1.6h-0.7v-3.9h-23.6v2.4
		c0,0.6-1.8,1.7-3.8,1.7h-0.8v-35.3l5,2.1h6c0.8-2.8,1.7-6.8,2.2-9.5l6.8,1.6c-0.2,0.6-0.7,1-1.7,1c-1.5,2-3.6,4.8-5.8,6.9h15.3
		l2.4-2.8L339.4,147.4z M308.9,147.5v12.3h23.6v-12.3H308.9z M332.5,174v-12.8h-23.6V174H332.5z"/>
	<path class="st0" d="M379.1,143.4l-4.6,0.6l-0.1,17.8c0,10.4-4.7,14.7-12.1,14.7c-7.5,0-12.6-3.9-12.6-13.8v-5.2
		c0-4.5,0-9-0.1-13.5l-4.1-0.5v-1.7h14.6v1.7l-4.9,0.6c-0.1,4.4-0.1,8.9-0.1,13.4v4.2c0,8.6,3.1,11.5,8.4,11.5
		c5.8,0,8.8-3.4,8.7-12.2l-0.1-16.8l-5.3-0.7v-1.7h12.1V143.4z"/>
	<path class="st0" d="M414.2,143.3L410,144l-10.7,32h-2.6l-11.7-32.1l-3.7-0.4v-1.7h14.4v1.8l-4.9,0.5l8.7,25.4l8.1-25.3l-4.8-0.6
		v-1.8h11.5V143.3z"/>
	<path class="st0" d="M434.2,141.8c-0.4,0.4-1,0.6-2.1,0.6c-1.5,2.9-4.4,8-6.6,10.8c5.1,3.4,7.1,7.6,7.1,11.3c0,4.5-1.7,6.8-6.7,7
		c0-1.2-0.2-2.8-0.6-3.3c-0.4-0.5-1.2-0.8-2.3-1v-0.6h3.4c0.5,0,0.8-0.1,1.1-0.3c0.7-0.5,1.1-1.3,1.1-2.9c0-3.3-1.1-6.8-4.2-10.1
		c1-2.9,2.4-8.4,3.3-12.1h-5.4v36.9c0,0.3-1.3,1.4-3.4,1.4h-0.7V138l4.7,1.9h4.6l2.4-2.3L434.2,141.8z M454.9,142.4
		c0,0,2.9,2.3,4.6,4c-0.1,0.5-0.6,0.7-1.2,0.7h-14.8c-0.1,2.4-0.2,4.7-0.5,6.9h7.9l2.4-2.4l4.3,3.7c-0.3,0.4-0.9,0.6-1.9,0.8
		c-0.5,12.5-1.6,19.3-4,21.4c-1.4,1.3-3.3,1.9-5.8,1.9c0-1.3-0.2-2.4-0.9-3c-0.7-0.7-2.5-1.3-4.4-1.7l0-0.7c1.9,0.2,5.1,0.4,6.2,0.4
		c0.8,0,1.2-0.1,1.7-0.5c1.5-1.3,2.3-8.1,2.8-18.6h-8.5c-1.3,10.5-4.9,18.8-15.6,24.2l-0.4-0.5c10-8.2,11.8-18.9,11.9-32h-7.5
		l-0.4-1.3h21.5L454.9,142.4z M440,136.9c11.5,3,6.9,11.5,2.9,7.8c-0.1-2.5-1.7-5.6-3.3-7.5L440,136.9z"/>
	<path class="st0" d="M475,171.4c-0.1,0.3-1.7,1.2-3,1.2h-0.5V169h-4v4.5c0,0.3-1.2,1.2-2.9,1.2H464v-34.8l4.1,1.7h2.9l1.9-2.1
		l4,3.2c-0.3,0.4-1,0.7-1.9,0.9V171.4z M467.5,142.9v11.6h4v-11.6H467.5z M471.5,167.7v-11.8h-4v11.8H471.5z M502.8,150.6
		c0,0.2-0.8,0.6-1.6,0.9c0.7,0.6,2.5,1.9,3.7,3c-0.1,0.5-0.6,0.7-1.2,0.7h-8.3v3h3.2l1.8-1.8l3.8,2.9c-0.2,0.3-0.9,0.6-1.7,0.8v4.6
		c0,0.3-1.8,1.1-2.9,1.1H499v-1.3h-18.2c-0.3,5-1.6,10.9-6,15.3l-0.5-0.5c2.9-5.9,3.1-13.1,3.1-19.1v-8l4.2,1.7h8
		c0-0.9-0.5-1.9-1.1-2.8c-0.6,0.3-1.6,0.7-2.3,0.7h-0.5v-7.1h-5.1v6.5c0,0.3-1.4,0.9-2.6,0.9h-0.5v-10.2l3.3,1.4h4.6l1.6-1.5
		l3.2,2.4c-0.2,0.3-0.6,0.6-1.3,0.7v5c1.3,0.2,2.3,0.6,2.8,1.2v-9.2l3.3,1.4h4.3l1.6-1.6l3.4,2.6c-0.2,0.3-0.7,0.6-1.4,0.7V150.6z
		 M476.7,141.3l-0.4-1.3h8.8l1.8-2.4c0,0,2.2,1.7,3.4,3c-0.1,0.5-0.5,0.7-1.1,0.7H476.7z M489.2,167.7c0,0,1.7,1.5,2.8,2.6
		c-0.1,0.5-0.6,0.7-1.1,0.7h-5.2v3.7c1.7-0.4,3.8-0.8,5.8-1.2l0.2,0.6c-1.5,0.8-4.5,2.6-7.6,4.2c-0.3,0.6-0.7,1-1.1,1.2l-2.1-4.1
		c1.2-0.7,1.3-1,1.3-1.7v-8.6l4.9,0.6c-0.1,0.6-0.5,0.9-1.4,1.1v3h2L489.2,167.7z M480.9,160.2c0,0.9,0,1.9,0,2.9h3.9v-3.5h-3.8
		V160.2z M480.9,155.3v3h3.8v-3H480.9z M481.5,146.1c5.8,1.6,3.4,5.9,1.2,4.1c0-1.3-0.8-2.9-1.7-3.8L481.5,146.1z M492,155.3h-3.8v3
		h3.8V155.3z M488.2,163.1h3.8v-3.5h-3.8V163.1z M491.2,141.3l-0.4-1.3h8.2l2-2.5c0,0,2.3,1.8,3.6,3.1c-0.1,0.5-0.6,0.7-1.2,0.7
		H491.2z M498.7,153.9l1.8-2.3c-0.1,0-0.3,0-0.5,0h-0.5v-6.9h-4.8v6.1c0,0.3-1.4,0.9-2.7,0.9c0.4,0.8,0.2,1.6-0.3,2.1H498.7z
		 M503.1,174.9c1,0.4,1.2,0.8,1.2,1.4c0,1.5-1.4,2.1-5.9,2.1h-2.7c-2.9,0-3.4-0.8-3.4-3.1v-10.2l4.8,0.5c-0.1,0.6-0.5,1-1.3,1.1v2.9
		h2.3l1.7-2.3c0,0,2,1.7,3.2,2.9c-0.1,0.5-0.6,0.7-1.2,0.7h-5.9v3.6c0,0.5,0.1,0.6,1,0.6h1.9c0.8,0,1.5,0,1.8,0c0.3,0,0.6,0,0.8-0.3
		c0.3-0.5,0.7-1.9,1.2-3.5h0.6L503.1,174.9z M495.2,146.1c5.8,1.6,3.4,6,1.2,4.1c0-1.3-0.8-2.9-1.7-3.8L495.2,146.1z M495.4,159.6
		v3.5h3.6v-3.5H495.4z"/>
</g>
</svg>
