<?xml version="1.0" encoding="utf-8"?>
<!-- Generator: Adobe Illustrator 26.0.3, SVG Export Plug-In . SVG Version: 6.00 Build 0)  -->
<svg version="1.1" id="lead-block-06_sp.svg" xmlns="http://www.w3.org/2000/svg" xmlns:xlink="http://www.w3.org/1999/xlink"
	 x="0px" y="0px" viewBox="0 0 421.6 92.7" style="enable-background:new 0 0 421.6 92.7;" xml:space="preserve">
<style type="text/css">
	.st0{fill:none;stroke:#1147B4;stroke-width:3;stroke-linecap:round;stroke-dasharray:1.000000e-03,6;}
	.st1{fill:#1147B4;}
</style>
<path id="シェイプ_984" class="st0" d="M110.7,34.1h216.9"/>
<path id="シェイプ_984-2" class="st0" d="M104.7,88.1h235.8"/>
<g>
	<path class="st1" d="M128.2,16.3c-0.2,1.7-0.7,3.4-1.5,4.9c2.6,1.2,5.8,2,9.6,2.4c-0.7,0.7-1.6,2.1-2,3c-3.8-0.5-7-1.5-9.6-2.9
		c-1.3,1.2-3.2,2.3-5.7,3c-0.4-0.7-1.4-2.1-2.1-2.8c2.2-0.5,3.9-1.2,5.1-2.2c-1.4-1.1-2.5-2.6-3.4-4.2l2.7-0.8
		c0.7,1.1,1.6,2,2.6,2.9c0.6-1,0.9-2,1-3.2h-6.2V8.2h6.4v-2h-7V3.6c-0.5,1.1-1.1,2.2-1.7,3.2v19.8h-3.2v-15c-0.8,1-1.5,1.8-2.3,2.6
		c-0.3-0.8-1.2-2.6-1.8-3.4c2.7-2.5,5.3-6.5,6.8-10.4l3.1,1c-0.3,0.6-0.5,1.2-0.8,1.8h6.8V0.6h3.3v2.5h7.4v3h-7.4v2h6.7v8.2H128.2z
		 M125,13.6v-0.4v-2.4h-3.4v2.8C121.6,13.6,125,13.6,125,13.6z M128.3,10.9v2.4v0.3h3.5v-2.8h-3.5V10.9z"/>
	<path class="st1" d="M161.9,22.6c0,1.8-0.4,2.7-1.5,3.2c-1.1,0.6-2.9,0.6-5.4,0.6c-0.1-0.9-0.6-2.3-1.1-3.2
		c1.6,0.1,3.4,0.1,3.9,0.1s0.7-0.2,0.7-0.7v-4.2h-5.9v7.8h-3.4v-7.8h-5.7c-0.5,3.1-1.5,6.1-3.5,8.3c-0.5-0.6-1.9-1.8-2.6-2.2
		c3.1-3.4,3.3-8.3,3.3-12.3v-10h21.1L161.9,22.6L161.9,22.6z M149.3,15.3v-3.4H144v0.5c0,0.9,0,1.9-0.1,2.9
		C143.9,15.3,149.3,15.3,149.3,15.3z M144,5.5v3.2h5.3V5.5H144z M158.6,5.5h-5.9v3.2h5.9V5.5z M158.6,15.3v-3.4h-5.9v3.4
		C152.7,15.3,158.6,15.3,158.6,15.3z"/>
	<path class="st1" d="M177,14.7v-4c-1.8,1.8-4,3.4-6.3,4.6h17v11.2h-3.5v-0.8h-10.6v0.9h-3.3v-11c-0.9,0.4-1.7,0.8-2.6,1.1
		c-0.5-0.8-1.5-2.2-2.3-2.9c3-0.8,6-2.3,8.3-4h-7.4v-3H177v-2c-2.5,0.2-5.1,0.4-7.6,0.4c-0.1-0.8-0.5-2.1-0.8-2.8
		c6.1-0.2,13.1-0.9,17.3-1.9l2.4,2.7c-2.3,0.6-5,1-7.8,1.3v2.3h10.8v3h-6.7c2.8,1.5,5.6,3.3,7.3,4.6l-2,2.5c-2-1.8-5.9-4.3-9.3-6.2
		v4C180.6,14.7,177,14.7,177,14.7z M173.6,17.9v1.5h10.6v-1.5H173.6z M184.1,23.2v-1.5h-10.6v1.5H184.1z"/>
	<path class="st1" d="M205.6,19.2v2.4c0,1.1,0.3,1.5,1.5,1.5h6.5c1.1,0,2.9-0.1,3.8-0.3c0.1,1,0.2,2.2,0.4,3
		c-0.8,0.2-2.5,0.3-3.9,0.3h-6.6c-3.8,0-5-1.2-5-4.5v-2.3h-7.6v-2.9h7.6v-1.9h3.4v1.9h12.5v2.9h-12.6V19.2z M216.4,13.9h-19.5V2.8
		h7.5c0.3-0.8,0.5-1.7,0.6-2.4l4.2,0.3c-0.3,0.7-0.6,1.5-1,2.1h8.2V13.9z M213,5.4h-12.9v1.7H213V5.4z M213,9.6h-12.9v1.7H213V9.6z"
		/>
	<path class="st1" d="M223.2,12l2.9-2.5c2,1.6,4.7,4.4,6.1,6.1l-3,2.6C227.6,16.1,225.2,13.7,223.2,12z"/>
	<path class="st1" d="M240.5,13.8c-1-1-3.2-2.4-5-3.2l1.8-2.4c1.7,0.8,4,2,5.1,3L240.5,13.8z M243.3,17.3c-1.2,3-2.6,6.2-4,9l-2.9-2
		c1.3-2.2,3.1-5.7,4.5-8.9L243.3,17.3z M241.6,6.4c-0.9-1-3-2.5-4.7-3.4l2-2.3c1.7,0.8,3.8,2.2,4.9,3.2L241.6,6.4z M258.7,23.3
		c0.6,0,0.6-0.6,0.7-3.9c0.7,0.5,2,1.1,2.9,1.3c-0.3,4.4-1,5.6-3.2,5.6h-2.2c-2.6,0-3.2-1-3.2-3.9V15h-2.4
		c-0.4,5.2-1.5,9.3-7.1,11.6c-0.4-0.8-1.2-2-2-2.7c4.8-1.8,5.5-4.8,5.8-8.9h-4.2v-3.2h7.5v-4H248c-0.6,1.5-1.3,2.9-2,4
		c-0.6-0.5-2.1-1.5-2.9-1.9c1.7-2.1,2.8-5.6,3.4-9.1l3.3,0.6c-0.2,1.1-0.4,2.2-0.8,3.3h2.1V0.4h3.3v4.3h6.1v3.1h-6.1v4h7.3V15h-4.9
		v7.3c0,0.9,0.1,1,0.6,1H258.7z"/>
	<path class="st1" d="M278.2,5.2c-0.3,0.9-0.5,1.7-0.8,2.5H288v18.9h-3.4v-1.4h-16.2v1.4h-3.2V7.7h8.6c0.2-0.8,0.3-1.7,0.4-2.5H264
		V2h25.2v3.1L278.2,5.2L278.2,5.2z M268.5,22.1h2.9V10.8h-2.9V22.1z M278.7,10.8h-4.3v1.9h4.3V10.8z M278.7,15.3h-4.3v2.1h4.3V15.3z
		 M274.4,22.1h4.3V20h-4.3V22.1z M284.7,10.8h-3v11.3h3V10.8z"/>
	<path class="st1" d="M301.3,17.1c1.7-0.1,3.5-0.3,5.2-0.4v3c-1.7,0.2-3.5,0.3-5.2,0.5v3.2c0,1.5-0.3,2.3-1.3,2.7
		c-1,0.4-2.4,0.5-4.2,0.5c-0.1-0.9-0.6-2.2-1-3c1.1,0,2.5,0,2.9,0s0.5-0.1,0.5-0.4v-2.8c-2.2,0.2-4.3,0.4-6,0.5l-0.3-3.1
		c1.7-0.1,3.9-0.3,6.3-0.4V16c0.9-0.7,1.9-1.7,2.7-2.7h-7.6v-2.8h1.2c-0.3-1.2-1.1-3-1.8-4.4l2.7-1c0.8,1.4,1.6,3.2,2,4.4l-2.2,1
		h8.1l0.7-0.2l2.2,1.7c-1.3,1.6-3.1,3.4-4.8,4.9v0.2H301.3z M307.2,3.1c-4.1,1-9.6,1.5-14.3,1.7c-0.1-0.8-0.5-2-0.9-2.7
		c4.6-0.3,9.8-0.9,13.1-1.7L307.2,3.1z M298.5,10.1c-0.2-1.2-0.8-3.2-1.4-4.6l2.7-0.8c0.6,1.4,1.2,3.3,1.5,4.5L298.5,10.1z
		 M301.5,9.4c0.8-1.5,1.7-3.8,2.2-5.5l3.1,1.1c-0.9,1.9-1.9,4-2.8,5.4L301.5,9.4z M313.9,22.9c0.7,0,0.8-1.1,0.9-5.2
		c0.8,0.6,2.1,1.3,2.9,1.5c-0.3,4.9-1,6.7-3.6,6.7h-2.7c-2.8,0-3.5-1.1-3.5-4.6V1.1h3.3v20.2c0,1.5,0.1,1.7,0.8,1.7h1.9V22.9z"/>
	<path class="st1" d="M321.2,12l2.9-2.5c2,1.6,4.7,4.4,6.1,6.1l-3,2.6C325.6,16.1,323.2,13.7,321.2,12z"/>
	<path class="st1" d="M109.7,68.5c-1.1-0.9-3.5-2.2-5.3-3l1.8-2.5c1.7,0.7,4.1,1.8,5.4,2.7L109.7,68.5z M112.3,72.3
		c-1.4,3-3.1,6.2-4.7,9l-2.9-2.2c1.5-2.1,3.5-5.7,5.1-8.9L112.3,72.3z M111.2,61.1c-1.1-0.9-3.4-2.3-5.2-3.1l1.8-2.5
		c1.7,0.8,4.1,2,5.3,2.9L111.2,61.1z M124.1,64.7c1.5,4.1,4.1,8.3,6.9,10.7c-0.8,0.6-1.9,1.8-2.5,2.7c-2.2-2.2-4.2-5.4-5.7-9v12.3
		h-3.4v-12c-1.6,3.6-3.7,6.8-6.1,8.9c-0.6-0.8-1.7-2-2.4-2.7c3.1-2.3,5.8-6.7,7.3-11h-5.9v-3.3h7.1v-5.9h3.4v5.9h7.3v3.3L124.1,64.7
		L124.1,64.7z"/>
	<path class="st1" d="M137.4,68.9c-1.1-0.8-3.3-2.1-4.9-3l1.8-2.4c1.5,0.7,3.8,1.9,5,2.7L137.4,68.9z M133.5,79c1.2-1.9,2.7-5,4-7.8
		l2.6,2.1c-1.1,2.6-2.4,5.4-3.7,7.8L133.5,79z M138.9,61.5c-1.1-1-3.3-2.5-4.9-3.5l2-2.3c1.6,0.9,3.9,2.3,5,3.2L138.9,61.5z
		 M150.8,61.4c-0.1,0.3-0.3,0.7-0.4,1c2.3,3.6,5.2,5.8,8.8,7.5c-0.8,0.7-1.8,1.8-2.2,2.8c-0.4-0.3-0.9-0.5-1.3-0.8v9.5h-3.4v-0.9h-7
		v1.1H142v-9.9c-0.5,0.3-1,0.6-1.5,0.9c-0.5-0.9-1.4-2-2.2-2.8c4.2-1.8,7.7-5.2,9.5-9.5L150.8,61.4z M148.2,56.8
		c-1.6,2.8-4.1,5.9-6,7.8c-0.6-0.6-2-1.6-2.7-2c2.1-1.7,4.3-4.3,5.6-6.8L148.2,56.8z M154.1,70.8c-2-1.5-3.8-3.3-5.3-5.5
		c-1.5,2.2-3.3,4-5.4,5.5H154.1z M152.2,77.6v-3.8h-7v3.8H152.2z M155.7,64.2c-1.3-1.8-4-4.7-6-6.8l2.6-1.7c1.9,2,4.8,4.8,6.2,6.5
		L155.7,64.2z"/>
	<path class="st1" d="M170.2,72.1c1.7-0.1,3.5-0.3,5.2-0.4v3c-1.7,0.2-3.5,0.3-5.2,0.5v3.2c0,1.5-0.3,2.3-1.3,2.7
		c-1,0.4-2.4,0.5-4.2,0.5c-0.1-0.9-0.6-2.2-1-3c1.1,0,2.5,0,2.9,0s0.5-0.1,0.5-0.4v-2.8c-2.2,0.2-4.3,0.4-6,0.5l-0.3-3.1
		c1.7-0.1,3.9-0.3,6.3-0.4V71c0.9-0.7,1.9-1.7,2.7-2.7h-7.6v-2.8h1.2c-0.3-1.2-1.1-3-1.8-4.4l2.7-1c0.8,1.4,1.6,3.2,2,4.4l-2.2,1
		h8.1l0.7-0.2l2.2,1.7c-1.3,1.6-3.1,3.4-4.8,4.9L170.2,72.1L170.2,72.1z M176.1,58.1c-4.1,1-9.6,1.5-14.3,1.7
		c-0.1-0.8-0.5-2-0.9-2.7c4.6-0.3,9.8-0.9,13.1-1.7L176.1,58.1z M167.4,65.1c-0.2-1.2-0.8-3.2-1.4-4.6l2.7-0.8
		c0.6,1.4,1.2,3.3,1.5,4.5L167.4,65.1z M170.3,64.4c0.8-1.5,1.7-3.8,2.2-5.5l3.1,1.1c-0.9,1.9-1.9,4-2.8,5.4L170.3,64.4z
		 M182.7,77.9c0.7,0,0.8-1.1,0.9-5.2c0.8,0.6,2.1,1.3,2.9,1.5c-0.3,4.9-1,6.7-3.6,6.7h-2.7c-2.8,0-3.5-1.1-3.5-4.6V56.1h3.3v20.2
		c0,1.5,0.1,1.7,0.8,1.7L182.7,77.9L182.7,77.9z"/>
	<path class="st1" d="M214.4,57.2V60h-5.1c0.7,0.7,1.4,1.4,1.8,2l-1.8,1.5h3.7v2.8h-9.9V68h8.2v2.5h-20V68h8.3v-1.6h-9.8v-2.8h6.9
		c-0.6-0.8-1.7-1.8-2.6-2.6l1-0.9h-2c-0.8,1.2-1.7,2.2-2.6,3c-0.5-0.6-1.6-1.7-2.2-2.3c1.7-1.4,3.3-3.5,4.2-5.6l2.9,0.9
		c-0.2,0.4-0.4,0.8-0.5,1.1h6.2V60h-3.9c0.7,0.6,1.4,1.2,1.8,1.7l-1.9,1.8h2.6v-1.4h2c-0.4-0.3-0.8-0.6-1.1-0.8
		c1.5-1.5,2.8-3.8,3.5-6.2l3,0.7c-0.1,0.4-0.3,0.9-0.4,1.3h7.7V57.2z M208.7,72.4h5.3v2.7h-5.3v3.4c0,1.6-0.4,2.3-1.6,2.6
		c-1.2,0.4-2.9,0.4-5.2,0.4c-0.1-0.8-0.4-1.9-0.8-2.7c1.4,0.1,3.1,0.1,3.6,0.1c0.4,0,0.6-0.1,0.6-0.5v-3.3h-8.7
		c1.3,1.1,2.9,2.5,3.7,3.4l-2.5,1.9c-0.9-1.1-2.8-2.9-4.3-4.2l1.6-1.1H189v-2.7h16.2V71h3.4v1.4H208.7z M208.7,63.5
		c-0.6-0.8-1.5-1.8-2.3-2.5l1.1-1h-2.1c-0.7,1.3-1.4,2.4-2.2,3.2v0.3H208.7z"/>
	<path class="st1" d="M226.8,71.4c1.4,2.3,3.1,5.3,3.9,7.3l-3.1,1.7c-0.2-0.7-0.6-1.5-1-2.4c-6.6,2.1-7.7,2.5-8.5,3.1
		c-0.2-1-0.8-2.6-1.3-3.4c0.6-0.3,1.3-0.9,1.3-2V56.8h11.8v13.8h-8.4v5.5l3.7-1.1c-0.4-0.8-0.9-1.6-1.3-2.4L226.8,71.4z M221.5,59.8
		v2.4h5v-2.4H221.5z M226.6,67.7v-2.5h-5v2.5H226.6z M241.5,73.1c0,1.5-0.3,2.4-1.2,2.9s-2.2,0.6-4,0.6c-0.1-0.9-0.5-2.3-0.9-3.1
		c1,0.1,2,0.1,2.4,0c0.3,0,0.5-0.1,0.5-0.5V60h-3.4v21.5h-3.4V57h10L241.5,73.1L241.5,73.1z"/>
	<path class="st1" d="M270.2,60.7H267v16.7c0,2-0.5,3-1.8,3.6c-1.4,0.6-3.5,0.6-6.3,0.6c-0.2-1-0.9-2.6-1.4-3.5
		c2,0.1,4.4,0.1,5.1,0.1c0.6,0,0.9-0.2,0.9-0.8V60.7H245v-3.4h25.2L270.2,60.7L270.2,60.7z M250.8,74.6v2.1h-3.2v-13h11.9v10.8
		L250.8,74.6L250.8,74.6z M250.8,67v4.5h5.3V67H250.8z"/>
	<path class="st1" d="M282.3,64.3h4.8v2.9h-4.8v2.4h4.3v2.8h-4.3V76l4.6-0.4c-0.1,0.9-0.1,2.3-0.1,3c-10.3,1-11.8,1.2-12.9,1.6
		c-0.1-0.8-0.6-2-1-2.6c0.5-0.2,1.1-0.6,1.1-1.6v-7.4h2.9v7.8l2.2-0.1v-9h-6.5v-2.9h6.5v-3H277c-0.6,1.1-1.3,2.2-2,3
		c-0.6-0.5-1.8-1.4-2.5-1.8c1.6-1.7,2.9-4.4,3.6-7l3,0.7c-0.2,0.8-0.5,1.5-0.8,2.3h8.3v2.9h-4.3L282.3,64.3L282.3,64.3z M297.4,73.7
		c0,1.5-0.3,2.5-1.2,3.1c-0.9,0.6-2.2,0.7-3.8,0.7c-0.1-1-0.6-2.5-1.1-3.4c1,0.1,2,0,2.4,0c0.3,0,0.4-0.1,0.4-0.4V60.2h-2.9v21.4
		H288V57.1h9.4V73.7z"/>
	<path class="st1" d="M310.1,57.6c-0.7,2.4-1.6,5.2-2.3,7.4c1.6,2.2,1.9,4.1,1.9,5.8c0,1.8-0.4,3-1.2,3.7c-0.4,0.3-1,0.5-1.5,0.6
		s-1.2,0.1-1.8,0.1c0-0.8-0.2-2-0.7-2.9c0.5,0.1,0.9,0.1,1.2,0c0.3,0,0.5-0.1,0.7-0.2c0.3-0.3,0.5-0.9,0.5-1.7
		c0-1.3-0.3-3.1-1.8-5.1c0.5-1.7,1-4,1.5-5.9h-2.2v22h-2.9v-25h6.1l0.5-0.1L310.1,57.6z M315.1,73.8c-1,2.2-2.7,4.6-4.1,6.2
		c-0.6-0.5-1.8-1.4-2.5-1.8c1.4-1.3,2.8-3.3,3.6-5.2L315.1,73.8z M320,72.1v6c0,1.5-0.3,2.3-1.3,2.9c-1,0.5-2.3,0.6-4.2,0.6
		c-0.1-0.9-0.6-2.2-1.1-3c1.2,0.1,2.5,0.1,2.9,0c0.4,0,0.5-0.1,0.5-0.5v-6h-6.7v-3h6.7v-2.3h-4.5v-1.9c-0.4,0.3-0.8,0.5-1.1,0.7
		c-0.5-0.8-1.4-1.8-2.2-2.5c3.4-1.7,6.8-4.7,8.7-8l2.8,1.1c-0.2,0.4-0.4,0.8-0.7,1.1c2.7,2.9,5.2,4.4,7.4,5.5
		c-0.8,0.7-1.8,1.8-2.2,2.7c-0.4-0.3-0.9-0.6-1.3-0.9v2.2H320v2.3h6.3v3L320,72.1L320,72.1z M322.6,63.9c-1.4-1.1-2.9-2.4-4.6-4.3
		c-1.3,1.6-2.9,3.1-4.5,4.3H322.6z M323.2,72.8c1.5,1.7,3,3.9,3.7,5.4l-2.6,1.5c-0.7-1.6-2.2-4-3.6-5.7L323.2,72.8z"/>
	<path class="st1" d="M330.1,76.9c0-1.5,1.1-2.7,2.5-2.7s2.6,1.1,2.6,2.7c0,1.5-1.1,2.7-2.6,2.7S330.1,78.4,330.1,76.9z M330.8,61.8
		l-0.1-3.9h4.1l-0.1,3.9L334,72.1h-2.7L330.8,61.8z"/>
</g>
</svg>
