<?xml version="1.0" encoding="utf-8"?>
<!-- Generator: Adobe Illustrator 26.0.3, SVG Export Plug-In . SVG Version: 6.00 Build 0)  -->
<svg version="1.1" id="lead-product.svg" xmlns="http://www.w3.org/2000/svg" xmlns:xlink="http://www.w3.org/1999/xlink" x="0px"
	 y="0px" viewBox="0 0 456.3 51.2" style="enable-background:new 0 0 456.3 51.2;" xml:space="preserve">
<style type="text/css">
	.st0{fill:#1147B4;}
</style>
<g>
	<path d="M14,17H8.2v0.9H6.6v-7.5c-0.3,0.4-0.6,0.8-0.9,1.1c-0.1-0.1-0.2-0.2-0.3-0.4l0.2,1.1c-0.4,0.1-0.9,0.3-1.4,0.4v3.3
		c0,0.8-0.1,1.2-0.6,1.5c-0.4,0.3-1.1,0.3-2,0.3c0-0.4-0.2-1.1-0.4-1.6c0.5,0,1,0,1.1,0c0.2,0,0.2,0,0.2-0.2v-2.9l-1.3,0.4l-0.4-1.6
		c0.5-0.1,1.1-0.3,1.7-0.4V8.9H1V7.3h1.6V4.8h1.6v2.6h1.4v1.5H4.2V11l0.9-0.2c-0.2-0.2-0.4-0.4-0.6-0.6c1.3-1.3,2.4-3.3,3-5.4
		l1.6,0.4C8.9,5.9,8.7,6.5,8.4,7.2h1.9C10.1,6.6,9.8,6,9.5,5.4l1.4-0.6c0.4,0.6,0.8,1.4,1,1.9l-0.8,0.4h2.7v1.5h-2.2v1.2h2.1v1.5
		h-2.1v1.3h2.1v1.5h-2.1v1.3H14V17z M9.9,8.7H8.2v1.2h1.7V8.7z M9.9,11.4H8.2v1.3h1.7V11.4z M8.2,15.5h1.7v-1.3H8.2V15.5z"/>
	<path d="M21.7,6.9c0.2,0.3,0.4,0.6,0.6,0.9h5.3v1.1h-3.9v0.6H27v2.5h-7l-0.1,0.5h7.3v1.1h-7.5L19.6,14h7.8c0,0,0,0.3,0,0.5
		c-0.1,1.7-0.3,2.5-0.6,2.8c-0.2,0.3-0.5,0.4-0.9,0.4c-0.3,0-0.8,0.1-1.4,0c0-0.4-0.2-0.9-0.3-1.2c0.4,0,0.8,0,1,0
		c0.2,0,0.3,0,0.4-0.1c0.1-0.1,0.2-0.5,0.3-1.4h-1.7c0.3,0.4,0.6,0.8,0.8,1.1l-1.1,0.5c-0.1-0.4-0.5-0.9-0.8-1.3l0.8-0.4H18l0.5-3.2
		h-0.9c-0.1,1.9-0.4,4.2-1.4,5.8c-0.3-0.3-1-0.7-1.4-0.8c1.2-1.7,1.3-4.2,1.3-6V7.8h4.7c-0.1-0.2-0.2-0.4-0.3-0.5L21.7,6.9z
		 M17.9,6.7h-2.6V5.5h2.6V4.8h1.6v0.7h1.7v1.2h-1.7v0.7h-1.6V6.7z M17,17.1c0.4-0.5,0.7-1.2,0.9-1.8l1.2,0.5c-0.2,0.6-0.5,1.4-0.9,2
		L17,17.1z M17.6,8.9v0.6h1.6V8.9H17.6z M17.6,11h1.6v-0.6h-1.6v0.5V11z M20.7,15.6c0.2,0.6,0.3,1.4,0.3,1.9l-1.3,0.2
		c0-0.5-0.1-1.3-0.2-1.9L20.7,15.6z M22.3,8.9h-1.6v0.6h1.6V8.9z M20.7,11h1.6v-0.6h-1.6V11z M22.4,15.3c0.3,0.5,0.5,1.2,0.6,1.7
		l-1.2,0.4c-0.1-0.5-0.3-1.2-0.6-1.8L22.4,15.3z M27.8,5.5v1.2h-2.7v0.7h-1.6V6.7h-1.8V5.5h1.8V4.8h1.6v0.7H27.8z M23.7,10.4V11h1.7
		v-0.6H23.7z"/>
	<path d="M33.3,13.5c0-0.2-0.1-0.4-0.1-0.7c-2.8,0.4-3.3,0.5-3.7,0.7c-0.1-0.3-0.4-1.1-0.5-1.5c0.4-0.1,0.7-0.4,1.1-0.9
		c0.2-0.2,0.5-0.6,0.9-1.1c-1.1,0.1-1.4,0.2-1.6,0.3c-0.1-0.3-0.3-1-0.5-1.4c0.3-0.1,0.5-0.4,0.8-0.8c0.3-0.4,1.2-1.9,1.8-3.4
		l1.5,0.6c-0.5,1.2-1.2,2.4-2,3.4l1-0.1c0.4-0.6,0.7-1.2,1-1.8l1.4,0.9c-0.8,1.4-1.8,2.9-2.9,4.1l1.5-0.2c-0.1-0.4-0.2-0.7-0.4-1.1
		l1.2-0.4c0.4,0.9,0.8,2.2,0.9,2.9L33.3,13.5z M30.9,14.2c-0.1,1.3-0.3,2.7-0.6,3.6c-0.3-0.2-1-0.4-1.3-0.5c0.3-0.8,0.5-2.1,0.6-3.3
		L30.9,14.2z M32.5,13.9c0.2,1,0.4,2.3,0.4,3.1l-1.3,0.3c0-0.9-0.2-2.2-0.3-3.2L32.5,13.9z M33.9,13.5c0.3,0.8,0.6,1.9,0.8,2.6
		l-1.2,0.4c-0.1-0.7-0.4-1.8-0.7-2.7L33.9,13.5z M39,5.2c-0.1,0.2-0.1,0.3-0.2,0.5c0.9,1.4,2.3,2.8,3.6,3.7c-0.4,0.3-1,0.9-1.2,1.3
		c-0.3-0.2-0.6-0.5-0.9-0.8v0.9h-4.6v-0.7c-0.3,0.3-0.6,0.5-0.9,0.7c-0.2-0.4-0.8-0.9-1.1-1.2c1.8-1.1,3.2-3,3.9-4.9L39,5.2z
		 M35,11.9h6.3v5.9h-1.7v-0.7h-3v0.7H35V11.9z M39.7,9.3c-0.6-0.7-1.1-1.4-1.6-2.1c-0.5,0.8-1,1.5-1.6,2.1H39.7z M36.6,13.4v2.3h3
		v-2.3H36.6z"/>
	<path d="M45.5,10.4c-0.5,0.8-1,1.5-1.6,2c-0.2-0.4-0.7-0.9-1.1-1.1c0.9-0.7,1.8-1.9,2.4-3.1h-2V6.7h2.3v-2h1.6v2h2v1.4h-2v0.5
		C47.7,9,49,10,49.3,10.2l-0.9,1.3c-0.3-0.4-0.8-0.9-1.3-1.3v2.9h-1.6V10.4z M43,16.3c0.5-0.7,1-1.9,1.2-2.9l1.5,0.6
		c-0.3,1-0.7,2.2-1.2,3.1L43,16.3z M51,16.1c0.7,0,0.8-0.2,0.8-1.6c0.3,0.3,1,0.5,1.5,0.6c-0.2,2-0.7,2.5-2.2,2.5h-2.5
		c-1.9,0-2.4-0.5-2.4-1.9v-1.9h1.7v1.9c0,0.4,0.1,0.5,0.9,0.5H51z M49.4,12.6l0.3,0.3V5.5h5.7V13h-5.5c0.5,0.5,1.1,1.1,1.5,1.5
		l-1.2,1c-0.4-0.5-1.2-1.4-1.8-1.9L49.4,12.6z M51.2,7.6h2.6V6.8h-2.6V7.6z M51.2,9.6h2.6V8.8h-2.6V9.6z M51.2,11.7h2.6v-0.8h-2.6
		V11.7z M54.4,13.2c0.6,0.9,1.4,2.1,1.8,2.8l-1.6,0.8c-0.3-0.7-1.1-2-1.7-2.9L54.4,13.2z"/>
	<path d="M58.7,14.2c-0.1,1.2-0.3,2.6-0.6,3.4c-0.3-0.2-0.9-0.3-1.2-0.4c0.3-0.8,0.5-2.1,0.6-3.2L58.7,14.2z M61.5,10.1
		c0.5,0.9,0.9,2,1,2.8l-1.2,0.5c0-0.2-0.1-0.4-0.1-0.6c-2.8,0.4-3.3,0.6-3.7,0.7c-0.1-0.3-0.3-1-0.4-1.3c0.3-0.1,0.6-0.4,1.1-0.9
		c0.2-0.2,0.5-0.6,0.9-1.2c-1.1,0.1-1.4,0.2-1.6,0.3C57.4,10,57.2,9.3,57,9c0.3-0.1,0.5-0.3,0.8-0.8c0.3-0.4,1.2-1.9,1.6-3.4
		l1.4,0.5c-0.5,1.2-1.2,2.4-1.9,3.4l1-0.1c0.4-0.6,0.7-1.3,1-2l1.2,0.8c-0.8,1.5-1.9,3.1-2.9,4.4l1.6-0.2c-0.1-0.4-0.3-0.8-0.5-1.2
		L61.5,10.1z M60.2,13.9c0.2,0.9,0.3,2.1,0.4,2.9l-1.2,0.3c0-0.8-0.2-2-0.3-2.9L60.2,13.9z M61.7,13.4c0.3,0.9,0.7,1.9,0.8,2.6
		l-1.1,0.4c-0.1-0.7-0.5-1.8-0.7-2.7L61.7,13.4z M70.1,16.9h-5.4v0.9h-1.5v-7.2c-0.2,0.3-0.4,0.5-0.6,0.8c-0.1-0.4-0.5-1.2-0.7-1.6
		c1.1-1.3,2-3.4,2.4-5l1.6,0.5c-0.2,0.6-0.5,1.3-0.8,2h1.7c-0.2-0.5-0.5-1.3-0.8-1.8l1.4-0.6c0.4,0.6,0.8,1.4,1,1.9l-1,0.5h2.7v1.5
		h-2.2V10h1.9v1.5h-1.9v1.2h1.9v1.5h-1.9v1.3h2.4V16.9z M66.2,8.7h-1.6V10h1.6V8.7z M66.2,11.5h-1.6v1.2h1.6V11.5z M64.6,15.4h1.6
		v-1.3h-1.6V15.4z"/>
	<path d="M75.5,12.2c-0.4,0.1-0.8,0.3-1.3,0.4v3.3c0,0.8-0.1,1.2-0.6,1.4c-0.4,0.3-1,0.3-1.9,0.3c0-0.4-0.2-1.1-0.4-1.5
		c0.5,0,1,0,1.2,0c0.2,0,0.2-0.1,0.2-0.2V13l-1.5,0.4l-0.4-1.6c0.5-0.1,1.1-0.3,1.8-0.5V8.9h-1.6V7.4h1.6V4.8h1.5v2.6h1.1v1.5h-1.1
		v2l1.1-0.3L75.5,12.2z M84.1,6.4v1.5h-3.4V9h2.8v1.5h-7.2V9h2.8V7.9h-3.5V6.4h3.5V4.8h1.6v1.5H84.1z M82.5,11.7H84v1.5h-1.5v2.9
		c0,0.8-0.2,1.2-0.7,1.5c-0.5,0.2-1.3,0.3-2.3,0.3c-0.1-0.5-0.3-1.1-0.5-1.6c0.6,0,1.4,0,1.6,0c0.2,0,0.3,0,0.3-0.2v-2.8h-5.2v-1.5
		h5.2v-1h1.6V11.7z M77.8,13.3c0.5,0.7,1.2,1.7,1.6,2.3L78,16.5c-0.3-0.6-1-1.7-1.5-2.5L77.8,13.3z"/>
	<path d="M90.8,9.8l1,0.3c-0.7,4.2-2.7,6.6-5.7,7.8c-0.2-0.4-0.6-1.1-1-1.4c1.3-0.4,2.4-1.2,3.2-2.2c-0.4-0.4-0.9-0.9-1.4-1.2
		c-0.3,0.4-0.7,0.7-1,1c-0.2-0.3-0.7-1.1-1-1.4c1.4-1,2.5-2.7,3.2-4.5l1.6,0.4c-0.1,0.4-0.3,0.9-0.5,1.3h1.5L90.8,9.8z M87.1,9.1
		h-1.6V6.2h5.3c-0.1-0.4-0.3-0.8-0.4-1.1l1.8-0.4c0.2,0.5,0.5,1,0.6,1.5h4.7v2.8h-1.7V7.7h-8.7V9.1z M88.3,11.2
		c-0.1,0.2-0.3,0.4-0.4,0.6c0.5,0.3,1,0.7,1.4,1.1c0.3-0.5,0.5-1.1,0.7-1.7H88.3z M95.9,16.1c0.5,0,0.6-0.3,0.6-1.7
		c0.4,0.3,1,0.5,1.5,0.6c-0.2,2-0.6,2.6-2,2.6h-2c-1.5,0-2-0.5-2-2.2V9.3h5c0,0,0,0.4,0,0.6c0,2.5-0.1,3.5-0.4,3.9
		c-0.2,0.3-0.5,0.4-0.8,0.5c-0.3,0.1-0.8,0.1-1.3,0.1c0-0.5-0.2-1.1-0.4-1.5c0.4,0,0.7,0,0.9,0c0.2,0,0.3,0,0.4-0.2
		c0.1-0.2,0.1-0.7,0.2-1.9h-1.8v4.6c0,0.6,0.1,0.7,0.6,0.7H95.9z"/>
	<path d="M105.1,7.1l0.5,0l0,1.6l-0.5,0c0,1.6-0.3,3.6-1.3,5.5c0.7,0.6,1.3,1.2,1.8,1.7l-1.2,1.3c-0.4-0.4-0.9-1-1.5-1.6
		c-0.7,0.8-1.6,1.6-2.7,2.2c-0.2-0.4-0.8-1-1.2-1.3c1.1-0.6,2-1.4,2.6-2.2c-0.8-0.7-1.6-1.4-2.3-2c0.3-0.9,0.6-2.1,0.8-3.4l-1,0.1
		l-0.2-1.7c0.4,0,0.9,0,1.5-0.1c0.1-0.8,0.2-1.7,0.3-2.5l1.8,0.1c-0.1,0.7-0.2,1.5-0.3,2.3l1.3-0.1V6.5h1.6V7.1z M101.8,8.8
		c-0.2,1.1-0.4,2.1-0.7,3.1c0.4,0.3,0.9,0.7,1.3,1.1c0.8-1.5,1-3,1-4.3L101.8,8.8z M111.4,6.2v11h-1.7v-0.8h-2.2v1h-1.6V6.2H111.4z
		 M109.7,14.8V7.8h-2.2v7.1H109.7z"/>
	<path d="M115.6,11.3c-0.5-0.5-1.7-1.1-2.6-1.5l0.9-1.2c0.9,0.3,2.1,0.9,2.6,1.4L115.6,11.3z M117.2,13.2c-0.7,1.5-1.5,3.1-2.4,4.4
		l-1.4-1.1c0.7-1.1,1.7-2.8,2.5-4.4L117.2,13.2z M116.4,7.6c-0.5-0.5-1.7-1.2-2.6-1.6l0.9-1.2c0.9,0.3,2.1,1,2.6,1.4L116.4,7.6z
		 M125.4,11.6c-0.5,1.5-1.3,2.7-2.3,3.6c0.9,0.5,2,0.8,3.1,1c-0.4,0.4-0.9,1-1.1,1.5c-1.3-0.3-2.5-0.8-3.5-1.5
		c-1.2,0.7-2.6,1.2-4.1,1.5c-0.2-0.4-0.5-1.1-0.8-1.5c1.3-0.2,2.5-0.6,3.5-1.1c-0.7-0.6-1.2-1.3-1.7-2.2l1.1-0.4h-1.9v-1.5h6.2
		l0.3-0.1L125.4,11.6z M120.4,7.5c-0.5,1.5-1.2,2.8-2.2,3.7c-0.3-0.3-1-0.8-1.4-1c1.4-1.1,2.2-3.1,2.4-5.4L121,5
		c-0.1,0.3-0.1,0.7-0.2,1h4.6c0,0,0,0.4,0,0.6c-0.1,2.3-0.3,3.3-0.7,3.7c-0.3,0.3-0.6,0.4-1.1,0.5c-0.4,0-1.1,0-1.8,0
		c0-0.5-0.2-1.1-0.5-1.5c0.6,0.1,1.3,0.1,1.5,0.1c0.2,0,0.4,0,0.5-0.1c0.2-0.2,0.3-0.7,0.4-1.7H120.4z M120.1,12.7
		c0.4,0.6,0.9,1.1,1.5,1.6c0.6-0.5,1.1-1,1.4-1.6H120.1z"/>
	<path d="M132.2,8c-0.2,0.4-0.4,0.7-0.6,1.1h6.5V16c0,0.8-0.2,1.3-0.7,1.5c-0.5,0.3-1.3,0.3-2.5,0.3c-0.1-0.5-0.3-1.2-0.5-1.6
		c0.7,0,1.5,0,1.8,0c0.2,0,0.3-0.1,0.3-0.3v-0.8h-5.3c-0.2,1.1-0.7,2.1-1.6,2.8c-0.2-0.3-0.9-1-1.2-1.3c1.2-1.1,1.3-2.5,1.3-3.9
		v-1.1c-0.5,0.6-1.1,1.1-1.7,1.5c-0.3-0.4-0.8-1-1.1-1.3c1.4-0.9,2.5-2.4,3.4-3.9h-3V6.4h3.8c0.2-0.6,0.4-1.1,0.6-1.7l1.7,0.4
		c-0.1,0.4-0.3,0.9-0.4,1.3h6.8V8H132.2z M136.6,13.8v-0.9h-5c0,0.3,0,0.6,0,0.9H136.6z M136.6,10.6h-5v0.9h5V10.6z"/>
	<path d="M153.9,15.5v1.7h-12.7v-1.7h5V4.9h1.8v4h4.9v1.7H148v4.8H153.9z"/>
	<path d="M159.3,14.9c-0.1-0.7-0.5-2-0.7-2.7v5.7h-1.5V12c-0.3,1.5-0.9,3.5-1.6,4.5c-0.1-0.5-0.4-1.4-0.7-1.9
		c0.5-0.8,1.1-2.3,1.3-3.3l1,0.4v-0.8h-2V9.4h2V4.8h1.5v4c0.3-0.9,0.6-2.3,0.7-3.2l1.4,0.3c-0.4,1.1-0.7,2.4-1.1,3.2l-1-0.3v0.6h1.7
		v1.5h-1.7v0.9l0.7-0.6c0.2,0.3,0.9,1.9,1,2.3L159.3,14.9z M155.7,9.1c0-0.9-0.3-2.2-0.6-3.2l1.1-0.3c0.4,1,0.6,2.4,0.7,3.2
		L155.7,9.1z M162.4,10.5c0,2.2-0.3,5.4-1.7,7.3c-0.3-0.3-0.9-0.9-1.2-1.1c1.3-1.8,1.4-4.4,1.4-6.3V6.6h3.1
		c-0.2-0.4-0.5-0.9-0.7-1.3l1.4-0.6c0.4,0.4,0.8,1.1,1,1.5l-0.8,0.3h3.3v1.5h-5.7V10.5z M168.1,15.7v1.6h-6.2v-1.6h2.3v-3.3h-1.6
		v-1.6h1.6V8.5h1.6v2.3h1.9v1.6h-1.9v3.3H168.1z"/>
	<path d="M181.8,10.9c-0.4,1.8-1,3.2-1.9,4.3c0.7,0.5,1.5,0.8,2.3,1.1c-0.4,0.3-0.8,1-1.1,1.4c-0.9-0.3-1.8-0.8-2.5-1.3
		c-0.8,0.6-1.7,1.1-2.7,1.4c-0.2-0.4-0.6-1-0.9-1.3c-0.1,0.5-0.2,0.8-0.6,1c-0.5,0.2-1.2,0.3-2.2,0.3c0-0.4-0.3-1-0.4-1.4
		c0.6,0,1.3,0,1.5,0c0.2,0,0.3-0.1,0.3-0.3V12c-0.7,0.1-1.5,0.2-2.2,0.2c-0.1,1.9-0.4,4.1-1.1,5.7c-0.3-0.3-0.9-0.7-1.3-0.8
		c0.6-1.3,0.8-3.1,0.9-4.7l-0.8,0.1l-0.1-1.5l1-0.1v-0.4V6.2h1.5c0.2-0.5,0.3-1.1,0.4-1.5l1.7,0.2c-0.2,0.5-0.4,0.9-0.5,1.3h2.1v4.2
		l0.3,0l0,1.3l-0.3,0V16c0,0.1,0,0.3,0,0.4c1-0.3,1.8-0.6,2.6-1.1c-0.8-0.8-1.3-1.8-1.8-3l0.9-0.3h-1v-1.5h4.9l0.3,0L181.8,10.9z
		 M172.4,15.1c-0.2-0.6-0.7-1.5-1.1-2.1l1-0.5c0.4,0.6,0.9,1.5,1.1,2L172.4,15.1z M171.4,10.8c0.7-0.1,1.4-0.1,2.2-0.2V7.5h-2.2v0.9
		l1-0.5c0.4,0.6,0.9,1.4,1.1,1.9l-1.1,0.6c-0.2-0.5-0.6-1.2-1-1.8v1.9V10.8z M177.6,7.4c0,1.1-0.2,2.4-1.3,3.1
		c-0.2-0.3-0.9-0.8-1.2-1.1c0.9-0.6,1-1.4,1-2.1V5.4h4.6v2.7c0,0.4,0,0.5,0.2,0.5h0.5c0.2,0,0.5,0,0.7-0.1c0,0.4,0.1,0.9,0.1,1.3
		c-0.2,0.1-0.5,0.1-0.8,0.1h-0.7c-1.3,0-1.6-0.6-1.6-1.9V6.8h-1.6V7.4z M177.3,12.1c0.4,0.8,0.8,1.5,1.4,2.2
		c0.5-0.6,0.9-1.3,1.2-2.2H177.3z"/>
	<path d="M195.7,6.9c0,0,0,0.6,0,0.8c-0.2,6.3-0.3,8.5-0.9,9.2c-0.4,0.5-0.8,0.7-1.3,0.8c-0.5,0.1-1.4,0.1-2.2,0
		c0-0.5-0.3-1.2-0.5-1.6c0.9,0.1,1.7,0.1,2.1,0.1c0.3,0,0.4-0.1,0.6-0.2c0.4-0.4,0.6-2.5,0.7-7.5h-3c-0.4,0.8-0.8,1.6-1.2,2.2
		c-0.2-0.2-0.7-0.5-1.1-0.8v6.5h-3.7v1h-1.5V7h1.6c0.2-0.7,0.4-1.6,0.4-2.3l1.8,0.3c-0.2,0.7-0.5,1.4-0.7,2h2.2v2.3
		c0.8-1.2,1.5-2.9,1.9-4.5l1.6,0.4c-0.2,0.6-0.3,1.2-0.5,1.8H195.7z M187.3,8.5h-2.2v2.3h2.2V8.5z M187.3,14.9v-2.7h-2.2v2.7H187.3z
		 M192,14.2c-0.4-0.8-1.3-2.2-1.9-3.2l1.3-0.7c0.7,1,1.6,2.3,2.1,3.1L192,14.2z"/>
	<path class="st0" d="M211.4,12.1c1,1.4,2.4,2.8,3.7,3.7c-0.5,0.4-1.2,1.1-1.5,1.7c-1.1-0.9-2.2-2.2-3.1-3.7v4.5h-2.2V14
		c-0.9,1.5-2.1,2.8-3.4,3.6c-0.4-0.5-1-1.3-1.5-1.7c1.5-0.8,3-2.2,4-3.7h-2.9l-0.9,1.3c-0.4-0.6-1.1-1.5-1.8-2.3v7.2h-2.1v-6.5
		c-0.5,0.6-1,1.1-1.5,1.5c-0.2-0.6-0.8-1.9-1.1-2.3c1.5-1.2,3-3.2,4-5.2h-3.7V3.7h3c-0.4-0.7-1-1.6-1.5-2.3l1.9-1
		c0.6,0.8,1.4,1.7,1.7,2.4L201,3.7h1.3l0.4-0.1l1.3,0.9c-0.6,1.4-1.3,2.9-2.2,4.3c0.1,0.1,0.3,0.2,0.5,0.4c0.5-0.6,1-1.3,1.2-1.8
		l1.3,1.1c-0.6,0.6-1.1,1.2-1.6,1.7c0.3,0.3,0.7,0.7,1,1v-1.1h4.1V9h-3.5V1.3h9.3V9h-3.6v1.1h4.4v2H211.4z M206.8,4.3h1.6V3h-1.6
		V4.3z M206.8,7.2h1.6V6h-1.6V7.2z M212,3h-1.7v1.2h1.7V3z M212,6h-1.7v1.2h1.7V6z"/>
	<path class="st0" d="M231.9,15.9c0.1,0,0.2,0,0.2-0.1c0.1-0.1,0.1-0.2,0.1-0.7c0-0.4,0.1-1.3,0.1-2.4c0.5,0.4,1.2,0.8,1.8,1
		c0,1-0.1,2.3-0.2,2.8c-0.1,0.6-0.3,0.9-0.6,1.2c-0.3,0.2-0.7,0.3-1.1,0.3H231c-0.4,0-1-0.2-1.3-0.5c-0.4-0.4-0.5-0.8-0.5-2.5V3.4
		h-2.1v5.6c0,2.9-0.2,7-2.1,9.5c-0.4-0.4-1.3-1.1-1.9-1.3c-0.1,0.2-0.3,0.4-0.6,0.6c-0.6,0.4-1.4,0.4-2.6,0.4
		c-0.1-0.6-0.3-1.6-0.6-2.1c0.7,0,1.4,0,1.6,0c0.2,0,0.3-0.1,0.3-0.3v-4.4c-0.5,0.5-1,0.9-1.4,1.4l-0.6-1.1c-0.2,2.4-0.6,5-1.4,6.8
		c-0.4-0.3-1.3-0.9-1.9-1c1.2-2.6,1.3-6.4,1.3-9.2V1.2h6.1v14.5c0,0.5,0,0.9-0.2,1.2c1.4-2.2,1.6-5.4,1.6-7.9V1.2h6.6v13.7
		c0,0.5,0,0.7,0.1,0.8c0,0.1,0.1,0.1,0.2,0.1H231.9z M219.4,8.1c0,0.8,0,1.6-0.1,2.5c0.6-0.4,1.3-0.9,2-1.4V7.8l-0.6,0.5
		c-0.3-0.4-0.8-1-1.3-1.5V8.1z M219.4,3.3v2.2L220,5c0.4,0.4,0.9,0.9,1.3,1.3V3.3H219.4z"/>
	<path class="st0" d="M252.2,5.6c-0.7,1.7-1.7,3.2-2.8,4.6c0.5,3.4,1.2,5.8,1.7,5.8c0.2,0,0.4-1.1,0.5-3.4c0.5,0.5,1.1,1,1.7,1.2
		c-0.3,3.4-0.9,4.3-2.4,4.3c-1.4,0-2.5-2.6-3.2-6.1c-0.3,0.3-0.7,0.5-1,0.8c0.6,1.3,1.3,3,1.6,4l-1.6,0.7c-0.2-0.6-0.4-1.4-0.7-2.2
		c-0.2,2.2-0.6,2.8-1.9,2.8h-1.6c-1.6,0-1.9-0.5-1.9-2v-3.4h1.7l-0.3-0.5l0.5-0.2h-2.7V7.5h6.1v3.3c0.5-0.3,1-0.8,1.4-1.2
		c-0.2-1.7-0.4-3.6-0.5-5.4h-7.9V6c0,3.3-0.3,8.8-2,12.3c-0.4-0.4-1.3-1-1.8-1.2c1.6-3.3,1.7-8,1.7-11.1V2.4h9.9
		c0-0.6-0.1-1.3-0.1-1.9h2.1c0,0.6,0,1.3,0,1.9h1.5c-0.4-0.4-1-0.9-1.4-1.2l1.3-0.9c0.6,0.4,1.4,1.1,1.9,1.5l-0.8,0.6h1.4v1.9h-3.8
		c0.1,1.1,0.2,2.1,0.3,3.2c0.5-0.8,0.9-1.6,1.2-2.4L252.2,5.6z M237.8,16.9c0.5-1,0.9-2.7,1-4l1.5,0.5c-0.2,1.4-0.5,3.2-1,4.3
		L237.8,16.9z M246,6.6h-6.7V5.1h6.7V6.6z M241.5,10.4h2.6V9h-2.6V10.4z M243.8,16.5c0.4,0,0.5-0.3,0.5-2c0.3,0.3,1,0.5,1.5,0.6
		c-0.2-0.7-0.5-1.3-0.7-1.9l1.4-0.6c-0.2-0.2-0.5-0.5-0.8-0.8h-2.3c0.5,0.8,1,1.8,1.3,2.4l-1.4,0.8c-0.2-0.6-0.6-1.3-1-2.1V16
		c0,0.5,0.1,0.5,0.5,0.5H243.8z"/>
	<path class="st0" d="M267.2,13.5c1.3,1.1,3,2.1,4.7,2.6c-0.5,0.4-1.2,1.3-1.5,1.8c-1.6-0.7-3.2-1.8-4.4-3.1v3.4h-2.2v-4.8H262v4.8
		h-2.2V15c-1.2,1.3-2.7,2.3-4.2,3c-0.3-0.5-1-1.3-1.4-1.7c1.6-0.6,3.2-1.6,4.4-2.8h-2.5v-1.7h3.8v-1.1h-5.4V8.8h5.4v-1h-3.6V6h3.6
		V4.9h-5.1V3h3.8c-0.4-0.6-1-1.2-1.5-1.6l2.1-1c0.8,0.6,1.7,1.6,2.1,2.3L260.5,3h4.4c0.7-0.8,1.4-1.8,1.8-2.5l2.4,0.8
		c-0.5,0.6-1,1.2-1.5,1.8h3.6v1.9h-5.4V6h3.9v2.8h1.9v1.9h-1.9v2.8H267.2z M262,6h1.7V4.9H262V6z M262,8.8h1.7v-1H262V8.8z
		 M263.8,11.8v-1.1H262v1.1H263.8z M265.9,7.7v1h1.7v-1H265.9z M267.6,10.6h-1.7v1.1h1.7V10.6z"/>
	<path class="st0" d="M286,14.2c1.9,0.8,3.8,1.7,5,2.4l-1.9,1.7c-1.3-0.8-3.5-2-5.5-2.9l1-1.2h-5.7l1.6,1.1
		c-1.5,1.1-3.8,2.3-5.7,2.9c-0.4-0.5-1.1-1.2-1.7-1.6c1.7-0.6,3.7-1.6,5-2.5h-4.7v-2h3V1.4h11.4v10.8h2.9v2H286z M278.6,3.2v1h6.9
		v-1H278.6z M285.5,5.8h-6.9v1h6.9V5.8z M278.6,8.4v1h6.9v-1H278.6z M278.6,12.2h6.9v-1.1h-6.9V12.2z"/>
	<path class="st0" d="M295.1,9.2c-0.6-0.6-1.9-1.3-3-1.8l1.2-1.7c1,0.4,2.4,1.1,3,1.7L295.1,9.2z M292.3,16.9
		c0.7-1.5,1.7-3.9,2.5-6.1l1.8,1.2c-0.6,2-1.5,4.2-2.2,6.1L292.3,16.9z M294,0.7c1,0.4,2.4,1.2,3,1.8l-1.3,1.8
		c-0.6-0.6-1.9-1.4-3-1.9L294,0.7z M299.2,8.1v10.2h-2v-17h5.5v6.8H299.2z M299.2,2.9v0.9h1.7V2.9H299.2z M300.8,6.4v-1h-1.7v1
		H300.8z M306.6,16.2h-6.8v-1.6h2.4v-1.3h-1.9v-1.6h1.9v-1.1h-2.1V9h6.3v1.6H304v1.1h1.9v1.6H304v1.3h2.6V16.2z M309.2,16
		c0,1-0.2,1.6-0.8,1.9c-0.6,0.4-1.4,0.4-2.7,0.4c-0.1-0.6-0.3-1.5-0.6-2c0.7,0,1.4,0,1.6,0c0.2,0,0.3-0.1,0.3-0.3V8.1h-3.6V1.3h5.7
		V16z M305.4,2.9v0.9h1.7V2.9H305.4z M307.2,6.4v-1h-1.7v1H307.2z"/>
	<path class="st0" d="M324.4,15.9c1.8,0,2.1-0.4,2.4-2.8c0.6,0.3,1.5,0.7,2.1,0.8c-0.4,3.1-1.2,4-4.4,4H318c-3.5,0-4.6-0.7-4.6-3.4
		V7.6c-0.4,0.3-0.8,0.6-1.1,0.8c-0.2-0.5-0.8-1.6-1.2-2.1c2.2-1.3,4.5-3.5,5.8-5.9l2.1,0.8c-0.2,0.3-0.3,0.6-0.5,0.8h4.4l0.4-0.1
		l1.4,1.1c-0.6,0.9-1.5,1.9-2.3,2.8h4.6v7.1h-2.2v-0.6h-9.2v2.2c0,1.2,0.3,1.3,2.4,1.3H324.4z M317,4c-0.5,0.6-1,1.2-1.6,1.8h4.3
		c0.6-0.5,1.1-1.1,1.6-1.8H317z M315.6,10.1h3.5V7.9h-3.5V10.1z M324.8,7.9h-3.5v2.3h3.5V7.9z"/>
	<path class="st0" d="M336,14.2c-0.2-1-0.6-2.7-0.9-3.7v7.7H333v-7.9c-0.4,2.1-1.2,4.7-2.1,6.2c-0.2-0.7-0.6-1.9-0.9-2.5
		c0.7-1.1,1.5-3.1,1.8-4.5L333,10V8.9h-2.8V6.9h2.8V0.6h2.1V6c0.4-1.2,0.8-3.1,1-4.4L338,2c-0.5,1.5-1,3.3-1.5,4.4L335.1,6v0.8h2.3
		v2.1h-2.3v1.2l1-0.8c0.2,0.5,1.2,2.6,1.4,3.1L336,14.2z M331.1,6.5c0-1.2-0.4-3-0.8-4.4l1.5-0.4c0.5,1.4,0.9,3.2,0.9,4.4L331.1,6.5
		z M340.1,8.3c0,2.9-0.3,7.3-2.3,10c-0.4-0.4-1.2-1.2-1.7-1.5c1.7-2.4,1.9-5.9,1.9-8.5V3h4.2c-0.3-0.6-0.7-1.2-1-1.7l1.9-0.8
		c0.5,0.6,1,1.5,1.3,2l-1,0.5h4.4v2.1h-7.7V8.3z M347.9,15.4v2.1h-8.4v-2.1h3.1v-4.5h-2.1V8.7h2.1V5.6h2.1v3.1h2.5v2.1h-2.5v4.5
		H347.9z"/>
	<path class="st0" d="M365.8,5.9c-0.4,2.9-1.1,5.3-2.2,7.3c0.9,1.4,2.1,2.5,3.4,3.3c-0.5,0.4-1.2,1.2-1.6,1.8
		c-1.2-0.8-2.3-1.9-3.2-3.1c-1.1,1.3-2.4,2.4-4.1,3.2c-0.3-0.4-1.1-1.3-1.6-1.7c1.9-0.8,3.4-2,4.4-3.5c-0.5-1-1-2.2-1.4-3.4
		c-0.2,0.4-0.5,0.8-0.8,1.2c-0.2-0.4-0.9-1.3-1.3-1.7l-0.9,0.5c-0.1-0.2-0.2-0.5-0.3-0.8c-0.3,1-0.6,2-1,2.9c1,1.1,1.8,2.2,2.4,3.1
		l-1.8,1.4c-0.4-0.7-1-1.6-1.7-2.5c-1,1.6-2.3,3-3.8,4c-0.3-0.4-1.1-1.3-1.5-1.7c1.6-1,2.9-2.3,3.9-4c-0.6-0.7-1.3-1.4-1.9-2.1
		c-0.2,0.3-0.4,0.5-0.5,0.7c-0.3-0.4-1.1-1.1-1.5-1.4c0.9-1.1,1.9-2.7,2.5-4.3l1.9,0.6c-0.6,1.4-1.4,2.9-2.2,4.1l1.4-1
		c0.4,0.4,0.9,0.9,1.3,1.3c0.2-0.6,0.4-1.3,0.6-2l1.8,0.3c-0.5-0.9-1.1-1.8-1.7-2.5l1.4-0.8h-6.5v-2h3.8c-0.2-0.6-0.6-1.4-1-2
		l1.9-0.7c0.5,0.7,1,1.6,1.2,2.2l-1.2,0.5h4.4v2h-2.2c0.7,0.9,1.5,2,2,2.9c1.1-2,1.8-4.7,2.2-7.6l2.1,0.3c-0.1,1-0.3,2-0.6,3h4.7
		v2.1H365.8z M361.4,5.9c-0.1,0.4-0.3,0.8-0.4,1.2c0.3,1.4,0.8,2.7,1.3,3.9c0.6-1.4,1-3.1,1.3-5.1H361.4z"/>
	<path d="M380.7,6.9c0,0,0,0.6,0,0.8c-0.2,6.3-0.3,8.5-0.9,9.2c-0.4,0.5-0.8,0.7-1.3,0.8c-0.5,0.1-1.4,0.1-2.2,0
		c0-0.5-0.3-1.2-0.5-1.6c0.9,0.1,1.7,0.1,2.1,0.1c0.3,0,0.4-0.1,0.6-0.2c0.4-0.4,0.6-2.5,0.7-7.5h-3c-0.4,0.8-0.8,1.6-1.2,2.2
		c-0.2-0.2-0.7-0.5-1.1-0.8v6.5h-3.7v1h-1.5V7h1.6c0.2-0.7,0.4-1.6,0.4-2.3l1.8,0.3c-0.2,0.7-0.5,1.4-0.7,2h2.2v2.3
		c0.8-1.2,1.5-2.9,1.9-4.5l1.6,0.4c-0.2,0.6-0.3,1.2-0.5,1.8H380.7z M372.3,8.5h-2.2v2.3h2.2V8.5z M372.3,14.9v-2.7h-2.2v2.7H372.3z
		 M377,14.2c-0.4-0.8-1.3-2.2-1.9-3.2l1.3-0.7c0.7,1,1.6,2.3,2.1,3.1L377,14.2z"/>
	<path d="M389.4,4.8c0,0.6,0,1.3-0.1,2.2c0.2,1.9,1.1,7.2,5.9,9.3c-0.5,0.4-1,1-1.2,1.4c-3.1-1.5-4.7-4.2-5.5-6.6
		c-0.8,2.5-2.2,5-5.2,6.7c-0.3-0.4-0.8-1-1.4-1.4c5.7-3,5.4-9.3,5.5-11.7H389.4z"/>
	<path class="st0" d="M4.4,39.3c-0.7-0.6-2.1-1.4-3.2-1.9l1.2-1.7c1.1,0.4,2.6,1.1,3.3,1.7L4.4,39.3z M1.6,46.7
		c0.9-1.5,2.1-3.9,3.1-6.1L6.5,42c-0.9,2-1.9,4.2-2.9,6.1L1.6,46.7z M5.3,34.3c-0.7-0.6-2.1-1.5-3.2-2l1.3-1.7
		c1.1,0.4,2.6,1.2,3.3,1.8L5.3,34.3z M15.4,46.1c1.1,0,1.3-0.4,1.5-2.4c0.5,0.3,1.5,0.7,2.1,0.8c-0.3,2.8-1,3.6-3.4,3.6h-4.4
		c-2.7,0-3.5-0.7-3.5-3.1v-7.4l-0.2,0.2c-0.4-0.4-1.4-1.1-1.9-1.4c1.6-1.4,2.8-3.7,3.6-6l2.2,0.6c-0.2,0.6-0.4,1.2-0.7,1.7h7.5
		c0,0,0,0.7,0,1c-0.1,6.1-0.2,8.4-0.7,9.1c-0.4,0.5-0.7,0.7-1.2,0.8c-0.5,0.1-1.1,0.1-1.9,0.1c0-0.4-0.1-1-0.3-1.4H9.9V45
		c0,0.9,0.2,1.1,1.5,1.1H15.4z M9.6,34.9c-0.3,0.5-0.6,1-0.9,1.5h5.6v5.2c0.2,0,0.4,0,0.6,0c0.2,0,0.4-0.1,0.5-0.3
		c0.2-0.4,0.4-2,0.5-6.4H9.6z M12.1,38.4H9.9v2.1h2.3V38.4z"/>
	<path class="st0" d="M23.4,39.3c-0.7-0.6-2.1-1.4-3.2-1.9l1.2-1.7c1.1,0.4,2.6,1.1,3.3,1.7L23.4,39.3z M20.6,46.7
		c0.9-1.5,2.1-3.9,3.1-6.1l1.8,1.3c-0.9,2-1.9,4.2-2.9,6.1L20.6,46.7z M24.3,34.3c-0.7-0.6-2.1-1.5-3.2-2l1.3-1.7
		c1.1,0.4,2.6,1.2,3.3,1.8L24.3,34.3z M34.4,46.1c1.1,0,1.3-0.4,1.5-2.4c0.5,0.3,1.5,0.7,2.1,0.8c-0.3,2.8-1,3.6-3.4,3.6h-4.4
		c-2.7,0-3.5-0.7-3.5-3.1v-7.4l-0.2,0.2c-0.4-0.4-1.4-1.1-1.9-1.4c1.6-1.4,2.8-3.7,3.6-6l2.2,0.6c-0.2,0.6-0.4,1.2-0.7,1.7h7.5
		c0,0,0,0.7,0,1c-0.1,6.1-0.2,8.4-0.7,9.1c-0.4,0.5-0.7,0.7-1.2,0.8c-0.5,0.1-1.1,0.1-1.9,0.1c0-0.4-0.1-1-0.3-1.4h-4.2V45
		c0,0.9,0.2,1.1,1.5,1.1H34.4z M28.6,34.9c-0.3,0.5-0.6,1-0.9,1.5h5.6v5.2c0.2,0,0.4,0,0.6,0c0.2,0,0.4-0.1,0.5-0.3
		c0.2-0.4,0.4-2,0.5-6.4H28.6z M31.1,38.4h-2.3v2.1h2.3V38.4z"/>
	<path d="M44.3,35.9c-0.4,1.2-0.9,2.8-1.3,3.9c0.9,1.1,1.1,2.1,1.1,2.9c0,0.9-0.2,1.5-0.7,1.8c-0.2,0.2-0.5,0.3-0.8,0.3
		c-0.3,0-0.6,0-0.9,0c0-0.4-0.1-1.1-0.4-1.5c0.3,0,0.5,0,0.6,0c0.2,0,0.3,0,0.4-0.1c0.2-0.1,0.2-0.4,0.2-0.8c0-0.6-0.2-1.5-1-2.5
		c0.3-0.9,0.6-2.2,0.8-3.2h-1.2v11h-1.6V35.4h3.3l0.2-0.1L44.3,35.9z M47.4,38.5c0,0.6,0,1.1-0.1,1.7h3.9c0,0,0,0.5,0,0.7
		c-0.1,4.1-0.3,5.7-0.7,6.2c-0.3,0.4-0.6,0.6-1.1,0.6c-0.4,0.1-1.1,0.1-1.8,0c0-0.5-0.2-1.2-0.5-1.7c0.6,0.1,1.2,0.1,1.5,0.1
		c0.2,0,0.4-0.1,0.5-0.2c0.3-0.3,0.4-1.4,0.5-4.3h-2.3c-0.4,2.6-1.2,4.7-3.7,6.1c-0.2-0.4-0.7-1-1.1-1.3c3-1.6,3.2-4.3,3.3-8H44V37
		h3.4c-0.1-0.5-0.4-1.3-0.6-1.9l1.5-0.4c0.3,0.6,0.5,1.5,0.7,2L47.8,37h4.1v1.5H47.4z"/>
	<path d="M54.8,45.2v1.1h-1.3V35.8H57v9.5H54.8z M54.8,37.2v2.5h0.9v-2.5H54.8z M55.6,43.8v-2.6h-0.9v2.6H55.6z M64.7,46.5
		c0.2,0,0.3-0.1,0.3-0.7c0.3,0.2,0.8,0.4,1.2,0.5c-0.1,1.1-0.5,1.4-1.4,1.4h-1.2c-1.2,0-1.5-0.4-1.5-1.6V44h-1.9v0.5h1.5v1h-1.5v0.8
		l1.5-0.2c0,0.4,0,0.9,0.1,1.2c-2.2,0.4-2.7,0.5-2.9,0.6c0-0.4-0.2-1-0.4-1.3c0.2-0.1,0.4-0.2,0.4-0.6V44h-0.3
		c-0.2,1.3-0.5,2.7-1.2,3.7c-0.3-0.2-0.9-0.6-1.2-0.7c1-1.6,1.1-3.8,1.1-5.3v-2h3.4c-0.1-0.2-0.1-0.4-0.2-0.5H60v-1.6h-1.5v1.6h-1.1
		v-2.5h3.7v2.1l0.7-0.2v-1.9h3.9v2.5h-1.2v-1.6H63v1.6h-0.7c0.1,0.2,0.1,0.3,0.2,0.5H66v1h-2.6v0.6h2.3V44h-2.1v0.5h2v1h-2v0.6
		c0,0.3,0,0.4,0.3,0.4H64.7z M61.3,36.3h-4.1v-1.1h4.1V36.3z M59.1,39.2c-0.1-0.3-0.3-0.8-0.4-1.2l0.8-0.2c0.2,0.4,0.4,0.8,0.4,1.1
		L59.1,39.2z M58.9,42.3c0,0.2,0,0.5,0,0.7h0.9v-0.7H58.9z M58.9,40.8v0.6h0.9v-0.6H58.9z M62,40.8h-0.9v0.6H62V40.8z M62,42.3h-0.9
		v0.7H62V42.3z M65.9,36.3h-4.2v-1.1h4.2V36.3z M63.5,39.2c-0.1-0.3-0.3-0.8-0.4-1.2l0.9-0.3c0.2,0.4,0.4,0.8,0.5,1.1L63.5,39.2z
		 M63.4,42.3v0.7h0.9v-0.7H63.4z"/>
	<path d="M77.1,43.2c0.8,0.6,1.9,1.1,3,1.3c-0.3,0.3-0.8,0.8-1,1.2c-0.7-0.2-1.3-0.5-1.9-0.9c0.5,0.6,1,1.2,1.2,1.8L77,47.3
		c-0.3-0.7-1.2-1.9-1.9-2.7l1-0.5c-0.3-0.3-0.7-0.6-0.9-0.9h-3.4c-0.4,0.4-0.8,0.8-1.2,1.1l1.1,0.4c-0.2,0.6-0.5,1.2-1,1.7
		c0.5,0,1,0,1.1,0c0.2,0,0.2,0,0.2-0.2v-2.8h1.5V45l1-0.4c0.4,0.7,0.9,1.6,1,2.2l-1.2,0.4c-0.1-0.5-0.5-1.3-0.8-2v1.2
		c0,0.7-0.1,1-0.6,1.2c-0.4,0.2-1,0.2-1.8,0.2c-0.1-0.4-0.3-0.9-0.4-1.3c-0.3,0.4-0.6,0.6-1,0.9l-1.1-0.9c0.8-0.4,1.4-1.2,1.7-1.9
		c-0.6,0.4-1.4,0.8-2.3,1.2c-0.2-0.4-0.7-0.9-1-1.2c1.1-0.4,2-0.8,2.7-1.4h-2.4v-1.3h3.6c0.1-0.2,0.2-0.3,0.3-0.5h-2.3v-4.1h9.4v4.1
		H73c-0.1,0.2-0.2,0.3-0.3,0.5h7.1v1.3H77.1z M70.3,36.7h-3v-1.3h3v-0.7H72v0.7h1.4v1.3H72v0.4h-1.6V36.7z M70.4,38.9h6.2v-0.6h-6.2
		V38.9z M70.4,40.4h6.2v-0.6h-6.2V40.4z M75.1,36.7h-1.4v-1.3h1.4v-0.7h1.6v0.7h3v1.3h-3v0.4h-1.6V36.7z"/>
	<path d="M83,44.2c-0.2,1.2-0.6,2.5-0.9,3.3c-0.3-0.2-0.9-0.3-1.2-0.4c0.4-0.8,0.7-2.1,0.9-3.2L83,44.2z M85.9,43.2
		c0-0.2-0.1-0.3-0.1-0.5c-3.4,0.5-3.9,0.7-4.2,0.8c-0.1-0.3-0.3-1-0.5-1.4c0.4-0.1,0.7-0.4,1.2-0.9c0.2-0.2,0.6-0.7,1-1.2
		c-1.3,0.2-1.7,0.2-1.9,0.3c-0.1-0.3-0.3-1-0.5-1.3c0.3-0.1,0.5-0.3,0.8-0.8c0.3-0.4,1.3-2,1.9-3.5l1.4,0.6
		c-0.6,1.2-1.3,2.4-2.1,3.4l1.3-0.1c0.4-0.6,0.8-1.3,1.2-2l1.3,0.8c-0.9,1.5-2.1,3.1-3.3,4.3l1.9-0.3c-0.1-0.4-0.3-0.8-0.4-1.1
		l1.2-0.3c0.4,0.9,0.8,2.1,1,2.8L85.9,43.2z M84.5,43.8c0.2,0.9,0.4,2.1,0.4,2.9l-1.3,0.3c0-0.8-0.2-2-0.3-3L84.5,43.8z M86.1,43.4
		c0.3,0.8,0.7,1.8,0.9,2.4l-1.2,0.5c-0.1-0.7-0.5-1.7-0.8-2.5L86.1,43.4z M89.5,43.4c-0.3,1.3-0.8,2.6-1.3,3.4
		c-0.3-0.2-0.9-0.5-1.3-0.7c0.6-0.8,1-1.9,1.2-3L89.5,43.4z M91.3,42.3v3.9c0,0.7-0.1,1.1-0.5,1.3c-0.4,0.2-1,0.2-1.8,0.2
		c-0.1-0.4-0.2-1-0.4-1.4c0.4,0,0.9,0,1,0c0.2,0,0.2,0,0.2-0.2v-3.7c-1.5,0.2-1.8,0.3-2.1,0.4c-0.1-0.3-0.3-1-0.5-1.4
		c0.4-0.1,0.7-0.4,1.2-0.9c0.2-0.2,0.6-0.6,1.1-1.2c-1.3,0.1-1.6,0.2-1.8,0.3c-0.1-0.3-0.3-1-0.5-1.3c0.3-0.1,0.5-0.3,0.8-0.7
		c0.3-0.3,1.1-1.7,1.7-2.9l1.4,0.6c-0.5,1-1.1,2-1.8,2.8l1.3-0.1c0.4-0.6,0.8-1.2,1.2-1.8l1.2,0.9c-1,1.5-2.2,2.9-3.4,4.1l2.4-0.2
		c-0.2-0.4-0.5-0.9-0.7-1.3l1.2-0.6c0.6,1,1.3,2.2,1.5,3.1l-1.3,0.6c0-0.2-0.1-0.4-0.2-0.7L91.3,42.3z M93,43.1c0.5,1,1,2.2,1.2,3.1
		l-1.4,0.5c-0.2-0.9-0.7-2.2-1.1-3.1L93,43.1z"/>
</g>
</svg>
