<svg width="24" height="25" viewBox="0 0 24 25" fill="none" xmlns="http://www.w3.org/2000/svg">
<path d="M12 19.2991C13.5 19.2991 15.9844 19.2803 18.8344 17.6303C21.6844 15.9803 22.6125 13.9272 22.9031 12.8678C22.9299 12.7724 22.9372 12.6725 22.9247 12.5742C22.9122 12.4759 22.8801 12.3811 22.8302 12.2954C22.7804 12.2098 22.7139 12.135 22.6346 12.0755C22.5553 12.016 22.4649 11.973 22.3688 11.9491C21.6844 11.7709 20.4844 11.6116 18.9469 11.9772" stroke="white" stroke-width="1.5" stroke-linecap="round" stroke-linejoin="round"/>
<path d="M5.05311 11.9675C3.51561 11.6112 2.31561 11.7706 1.63123 11.9487C1.53505 11.9727 1.44464 12.0156 1.36537 12.0751C1.2861 12.1346 1.21958 12.2094 1.16975 12.2951C1.11992 12.3808 1.08779 12.4756 1.07527 12.5739C1.06275 12.6722 1.07009 12.7721 1.09686 12.8675C1.38748 13.9269 2.31561 15.9894 5.16561 17.63C8.01561 19.2706 10.5 19.2987 12 19.2987" stroke="white" stroke-width="1.5" stroke-linecap="round" stroke-linejoin="round"/>
<path d="M12 19.2989C12 19.2989 15.75 17.2551 15.75 11.7989C15.75 7.52387 13.4438 5.34887 12.45 4.59887C12.3196 4.50292 12.1619 4.45117 12 4.45117C11.8381 4.45117 11.6804 4.50292 11.55 4.59887C10.5562 5.34887 8.25 7.52387 8.25 11.7989C8.25 17.2551 12 19.2989 12 19.2989Z" stroke="white" stroke-width="1.5" stroke-linecap="round" stroke-linejoin="round"/>
<path d="M12 19.2991C13.125 19.0553 16.1531 17.3491 17.9719 14.1991C19.7906 11.0491 19.3406 8.54593 18.9844 7.44906C18.9299 7.27265 18.8107 7.12338 18.6507 7.03122C18.4907 6.93906 18.3018 6.91082 18.1219 6.95218C17.0455 7.19325 16.0385 7.67749 15.1781 8.36781" stroke="white" stroke-width="1.5" stroke-linecap="round" stroke-linejoin="round"/>
<path d="M8.82187 8.36781C7.9615 7.67749 6.95454 7.19325 5.87812 6.95218C5.69819 6.91082 5.50927 6.93906 5.34929 7.03122C5.1893 7.12338 5.07011 7.27265 5.01562 7.44906C4.65937 8.54593 4.20938 11.0584 6.02813 14.1991C7.84687 17.3397 10.875 19.0553 12 19.2991" stroke="white" stroke-width="1.5" stroke-linecap="round" stroke-linejoin="round"/>
</svg>
