<svg width="25" height="25" viewBox="0 0 25 25" fill="none" xmlns="http://www.w3.org/2000/svg">
<path d="M8.75 5.79883H6.5C6.08579 5.79883 5.75 6.13461 5.75 6.54883V18.5488C5.75 18.963 6.08579 19.2988 6.5 19.2988H8.75C9.16421 19.2988 9.5 18.963 9.5 18.5488V6.54883C9.5 6.13461 9.16421 5.79883 8.75 5.79883Z" stroke="white" stroke-width="1.5" stroke-linecap="round" stroke-linejoin="round"/>
<path d="M18.5 5.79883H16.25C15.8358 5.79883 15.5 6.13461 15.5 6.54883V18.5488C15.5 18.963 15.8358 19.2988 16.25 19.2988H18.5C18.9142 19.2988 19.25 18.963 19.25 18.5488V6.54883C19.25 6.13461 18.9142 5.79883 18.5 5.79883Z" stroke="white" stroke-width="1.5" stroke-linecap="round" stroke-linejoin="round"/>
<path d="M19.25 8.04883H21.5C21.6989 8.04883 21.8897 8.12785 22.0303 8.2685C22.171 8.40915 22.25 8.59992 22.25 8.79883V16.2988C22.25 16.4977 22.171 16.6885 22.0303 16.8292C21.8897 16.9698 21.6989 17.0488 21.5 17.0488H19.25" stroke="white" stroke-width="1.5" stroke-linecap="round" stroke-linejoin="round"/>
<path d="M5.75 17.0488H3.5C3.30109 17.0488 3.11032 16.9698 2.96967 16.8292C2.82902 16.6885 2.75 16.4977 2.75 16.2988V8.79883C2.75 8.59992 2.82902 8.40915 2.96967 8.2685C3.11032 8.12785 3.30109 8.04883 3.5 8.04883H5.75" stroke="white" stroke-width="1.5" stroke-linecap="round" stroke-linejoin="round"/>
<path d="M9.5 12.5488H15.5" stroke="white" stroke-width="1.5" stroke-linecap="round" stroke-linejoin="round"/>
<path d="M22.25 12.5488H23.75" stroke="white" stroke-width="1.5" stroke-linecap="round" stroke-linejoin="round"/>
<path d="M1.25 12.5488H2.75" stroke="white" stroke-width="1.5" stroke-linecap="round" stroke-linejoin="round"/>
</svg>
