<svg width="25" height="24" viewBox="0 0 25 24" fill="none" xmlns="http://www.w3.org/2000/svg">
<path d="M7.58301 3V5.25M18.083 3V5.25M3.83301 18.75V7.5C3.83301 6.90326 4.07006 6.33097 4.49202 5.90901C4.91397 5.48705 5.48627 5.25 6.08301 5.25H19.583C20.1797 5.25 20.752 5.48705 21.174 5.90901C21.596 6.33097 21.833 6.90326 21.833 7.5V18.75M3.83301 18.75C3.83301 19.3467 4.07006 19.919 4.49202 20.341C4.91397 20.7629 5.48627 21 6.08301 21H19.583C20.1797 21 20.752 20.7629 21.174 20.341C21.596 19.919 21.833 19.3467 21.833 18.75M3.83301 18.75V11.25C3.83301 10.6533 4.07006 10.081 4.49202 9.65901C4.91397 9.23705 5.48627 9 6.08301 9H19.583C20.1797 9 20.752 9.23705 21.174 9.65901C21.596 10.081 21.833 10.6533 21.833 11.25V18.75M12.833 12.75H12.841V12.758H12.833V12.75ZM12.833 15H12.841V15.008H12.833V15ZM12.833 17.25H12.841V17.258H12.833V17.25ZM10.583 15H10.591V15.008H10.583V15ZM10.583 17.25H10.591V17.258H10.583V17.25ZM8.33301 15H8.34101V15.008H8.33301V15ZM8.33301 17.25H8.34101V17.258H8.33301V17.25ZM15.083 12.75H15.091V12.758H15.083V12.75ZM15.083 15H15.091V15.008H15.083V15ZM15.083 17.25H15.091V17.258H15.083V17.25ZM17.333 12.75H17.341V12.758H17.333V12.75ZM17.333 15H17.341V15.008H17.333V15Z" stroke="#5F5A5A" stroke-width="1.5" stroke-linecap="round" stroke-linejoin="round"/>
</svg>
