<svg width="23" height="25" viewBox="0 0 23 25" fill="none" xmlns="http://www.w3.org/2000/svg">
<path d="M7.19035 9.89551H2.89844V5.39551" stroke="white" stroke-width="2" stroke-linecap="round" stroke-linejoin="round"/>
<path d="M17.0617 6.71768C16.3318 5.95119 15.4648 5.34312 14.5105 4.92824C13.5562 4.51335 12.5332 4.2998 11.5001 4.2998C10.467 4.2998 9.44408 4.51335 8.48977 4.92824C7.53545 5.34312 6.66852 5.95119 5.93854 6.71768L2.89844 9.8958" stroke="white" stroke-width="2" stroke-linecap="round" stroke-linejoin="round"/>
<path d="M15.8098 15.2021H20.1017V19.7021" stroke="white" stroke-width="2" stroke-linecap="round" stroke-linejoin="round"/>
<path d="M5.93848 18.3803C6.66845 19.1468 7.53539 19.7548 8.4897 20.1697C9.44402 20.5846 10.467 20.7981 11.5001 20.7981C12.5332 20.7981 13.5561 20.5846 14.5104 20.1697C15.4648 19.7548 16.3317 19.1468 17.0617 18.3803L20.1018 15.2021" stroke="white" stroke-width="2" stroke-linecap="round" stroke-linejoin="round"/>
</svg>
