<svg width="23" height="25" viewBox="0 0 23 25" fill="none" xmlns="http://www.w3.org/2000/svg">
<path d="M20.0839 17.1708V7.92707C20.0832 7.79355 20.049 7.66257 19.9846 7.54736C19.9202 7.43214 19.828 7.33676 19.7173 7.27082L11.8488 2.6302C11.7428 2.56601 11.6225 2.53223 11.5001 2.53223C11.3776 2.53223 11.2574 2.56601 11.1514 2.6302L3.28286 7.27082C3.17212 7.33676 3.07992 7.43214 3.01556 7.54736C2.95119 7.66257 2.91694 7.79355 2.91626 7.92707V17.1708C2.91694 17.3043 2.95119 17.4353 3.01556 17.5505C3.07992 17.6657 3.17212 17.7611 3.28286 17.8271L11.1514 22.4677C11.2574 22.5319 11.3776 22.5657 11.5001 22.5657C11.6225 22.5657 11.7428 22.5319 11.8488 22.4677L19.7173 17.8271C19.828 17.7611 19.9202 17.6657 19.9846 17.5505C20.049 17.4353 20.0832 17.3043 20.0839 17.1708V17.1708Z" stroke="white" stroke-width="2" stroke-linecap="round" stroke-linejoin="round"/>
<path d="M19.9853 7.54297L11.5803 12.5492L3.0144 7.54297" stroke="white" stroke-width="2" stroke-linecap="round" stroke-linejoin="round"/>
<path d="M11.5795 12.5488L11.5 22.5613" stroke="white" stroke-width="2" stroke-linecap="round" stroke-linejoin="round"/>
</svg>
