<?xml version="1.0" encoding="utf-8"?>
<!-- Generator: Adobe Illustrator 26.5.0, SVG Export Plug-In . SVG Version: 6.00 Build 0)  -->
<svg version="1.1" id="Layer_1" xmlns="http://www.w3.org/2000/svg" xmlns:xlink="http://www.w3.org/1999/xlink" x="0px" y="0px"
	 viewBox="0 0 20 20" style="enable-background:new 0 0 20 20;" xml:space="preserve">
<style type="text/css">
	.st0{fill:#FFFFFF;}
	.st1{fill:none;stroke:#FFFFFF;stroke-width:2;stroke-linecap:round;stroke-linejoin:round;}
</style>
<path class="st0" d="M10,18c0.8,0,1.5-0.7,1.5-1.5S10.8,15,10,15s-1.5,0.7-1.5,1.5S9.2,18,10,18z"/>
<path class="st1" d="M10,12.6v-2.1c0.6,0,1.4-0.2,1.9-0.6c0.6-0.4,1-0.9,1.3-1.6c0.3-0.6,0.4-1.3,0.2-2c-0.1-0.6-0.5-1.3-0.9-1.8
	C12,4,11.4,3.7,10.7,3.6c-0.7-0.2-1.4-0.1-2,0.2C8.1,4.1,7.5,4.5,7.1,5.1C6.8,5.7,6.5,6.4,6.5,7"/>
</svg>
