<svg width="24" height="25" viewBox="0 0 24 25" fill="none" xmlns="http://www.w3.org/2000/svg">
<path d="M13.5 21.5488H10.5" stroke="white" stroke-width="1.5" stroke-linecap="round" stroke-linejoin="round"/>
<path d="M11.5312 2.40486C9.74995 3.82986 3.79682 9.52987 8.99995 18.5486H14.9999C20.0999 9.52987 14.2312 3.83924 12.4687 2.40486C12.3372 2.29503 12.1713 2.23486 11.9999 2.23486C11.8286 2.23486 11.6627 2.29503 11.5312 2.40486Z" stroke="white" stroke-width="1.5" stroke-linecap="round" stroke-linejoin="round"/>
<path d="M6.92802 10.9927L3.98427 14.5177C3.91011 14.6042 3.85778 14.7072 3.83168 14.8182C3.80558 14.9291 3.80647 15.0447 3.83427 15.1552L4.9874 20.3771C5.01522 20.5012 5.07416 20.6162 5.15867 20.7113C5.24318 20.8063 5.35048 20.8783 5.47048 20.9205C5.59049 20.9627 5.71925 20.9737 5.84466 20.9524C5.97008 20.9312 6.08802 20.8783 6.1874 20.7989L8.99989 18.5489" stroke="white" stroke-width="1.5" stroke-linecap="round" stroke-linejoin="round"/>
<path d="M17.0156 10.9175L20.0156 14.5175C20.0898 14.604 20.1421 14.707 20.1682 14.818C20.1943 14.9289 20.1934 15.0445 20.1656 15.155L19.0125 20.3769C18.9847 20.501 18.9257 20.616 18.8412 20.7111C18.7567 20.8061 18.6494 20.8782 18.5294 20.9203C18.4094 20.9625 18.2806 20.9735 18.1552 20.9522C18.0298 20.931 17.9119 20.8781 17.8125 20.7987L15 18.5487" stroke="white" stroke-width="1.5" stroke-linecap="round" stroke-linejoin="round"/>
<path d="M12 10.6738C12.6213 10.6738 13.125 10.1701 13.125 9.54883C13.125 8.92751 12.6213 8.42383 12 8.42383C11.3787 8.42383 10.875 8.92751 10.875 9.54883C10.875 10.1701 11.3787 10.6738 12 10.6738Z" fill="white"/>
</svg>
