<svg width="23" height="25" viewBox="0 0 23 25" fill="none" xmlns="http://www.w3.org/2000/svg">
<path d="M11.5001 20.7988C15.8457 20.7988 19.3686 17.1052 19.3686 12.5488C19.3686 7.99248 15.8457 4.29883 11.5001 4.29883C7.15444 4.29883 3.63159 7.99248 3.63159 12.5488C3.63159 17.1052 7.15444 20.7988 11.5001 20.7988Z" stroke="white" stroke-width="2" stroke-linecap="round" stroke-linejoin="round"/>
<path d="M11.5 2.42383V6.17383" stroke="white" stroke-width="2" stroke-linecap="round" stroke-linejoin="round"/>
<path d="M1.84326 12.5488H5.41985" stroke="white" stroke-width="2" stroke-linecap="round" stroke-linejoin="round"/>
<path d="M11.5 22.6738V18.9238" stroke="white" stroke-width="2" stroke-linecap="round" stroke-linejoin="round"/>
<path d="M21.1569 12.5488H17.5803" stroke="white" stroke-width="2" stroke-linecap="round" stroke-linejoin="round"/>
<path d="M11.4999 15.5488C13.0802 15.5488 14.3612 14.2057 14.3612 12.5488C14.3612 10.892 13.0802 9.54883 11.4999 9.54883C9.91971 9.54883 8.63867 10.892 8.63867 12.5488C8.63867 14.2057 9.91971 15.5488 11.4999 15.5488Z" stroke="white" stroke-width="2" stroke-linecap="round" stroke-linejoin="round"/>
</svg>
