<svg xmlns="http://www.w3.org/2000/svg" width="77.34" height="10.563" viewBox="0 0 77.34 10.563">
  <defs>
    <style>
      .cls-1 {
        fill: #1147b4;
        fill-rule: evenodd;
      }
    </style>
  </defs>
  <path id="lang-text.svg" class="cls-1" d="M1269.97,35.7v9.344h4.17V43.694h-2.74v-8h-1.43Zm13.25,9.344h1.54l-4.43-9.89-4.65,9.89h1.54l1.02-2.255h4Zm-4.39-3.6,1.44-3.166,1.39,3.166h-2.83Zm9.65,3.6V38.511l6.78,7.1V35.7h-1.43v6.472l-6.78-7.1v9.974h1.43Zm14.96-3.544h2.33a2.56,2.56,0,0,1-.78,1.583,2.829,2.829,0,0,1-2.09.826,3.025,3.025,0,0,1-2.34-.939,3.865,3.865,0,0,1,.03-5.155,3.35,3.35,0,0,1,2.46-.967,3.163,3.163,0,0,1,1.66.406,3.872,3.872,0,0,1,1.14,1.065l1.14-.8a4.272,4.272,0,0,0-1.51-1.4,5.07,5.07,0,0,0-2.44-.588,4.971,4.971,0,0,0-3.49,8.419,4.063,4.063,0,0,0,3.18,1.275,4.366,4.366,0,0,0,3.18-1.191,5.1,5.1,0,0,0,1.39-3.782v-0.07h-3.86v1.317Zm6.76-5.8v6.01a3.481,3.481,0,0,0,.87,2.423,3.628,3.628,0,0,0,5.19,0,3.467,3.467,0,0,0,.86-2.423V35.7h-1.43v5.631a3.263,3.263,0,0,1-.29,1.611,2.04,2.04,0,0,1-3.47,0,3.273,3.273,0,0,1-.3-1.611V35.7h-1.43Zm16.75,9.344h1.54l-4.42-9.89-4.66,9.89h1.55l1.02-2.255h3.99Zm-4.38-3.6,1.44-3.166,1.39,3.166h-2.83Zm12.84,0.056h2.32a2.46,2.46,0,0,1-.78,1.583,2.829,2.829,0,0,1-2.09.826,3.025,3.025,0,0,1-2.34-.939,3.865,3.865,0,0,1,.03-5.155,3.369,3.369,0,0,1,2.46-.967,3.163,3.163,0,0,1,1.66.406,3.79,3.79,0,0,1,1.15,1.065l1.13-.8a4.272,4.272,0,0,0-1.51-1.4,5.07,5.07,0,0,0-2.44-.588,4.979,4.979,0,0,0-3.49,8.419,4.077,4.077,0,0,0,3.18,1.275,4.351,4.351,0,0,0,3.18-1.191,5.1,5.1,0,0,0,1.39-3.782v-0.07h-3.85v1.317Zm11.91-5.8h-5.15v9.344h5.15V43.694h-3.73V40.752h3.62V39.408h-3.62V37.04h3.73V35.7Z" transform="translate(-1269.97 -35.063)"/>
</svg>
