<svg id="name-tw_sp.svg" xmlns="http://www.w3.org/2000/svg" width="138.937" height="36.3" viewBox="0 0 138.937 36.3">
  <defs>
    <style>
      .cls-1 {
        fill-rule: evenodd;
      }
    </style>
  </defs>
  <path id="KOSE_COSMEPORT" data-name="KOSE COSMEPORT" class="cls-1" d="M113.9,13643.4h1.747v-2.9l1.548-1.6,3.394,4.5h2.13l-4.331-5.7,4.147-4.3h-2.159l-4.729,5v-5H113.9v10Zm14.284,0.1a5.058,5.058,0,0,0,5.211-5.1v-0.1a5.034,5.034,0,0,0-5.183-5.1,5.141,5.141,0,0,0-5.212,5.2h0A5.035,5.035,0,0,0,128.186,13643.5Zm0.028-1.6a3.394,3.394,0,0,1-3.38-3.5v-0.1a3.371,3.371,0,0,1,3.352-3.5,3.42,3.42,0,0,1,3.379,3.6h0A3.37,3.37,0,0,1,128.214,13641.9Zm10.7,1.6c2.087,0,3.55-1.1,3.55-3h0c0-1.7-1.079-2.4-3.181-2.9-1.917-.5-2.372-0.8-2.372-1.6h0c0-.7.6-1.2,1.619-1.2a4.955,4.955,0,0,1,2.7,1l0.938-1.3a5.6,5.6,0,0,0-3.607-1.3c-1.974,0-3.394,1.2-3.394,2.9v0.1c0,1.8,1.192,2.4,3.308,2.9,1.847,0.5,2.244.8,2.244,1.6h0c0,0.7-.681,1.2-1.761,1.2a4.287,4.287,0,0,1-3.138-1.3l-1.051,1.3A5.97,5.97,0,0,0,138.918,13643.5Zm5.606-.1h7.441v-1.6h-5.694v-2.7h4.984v-1.6h-4.984v-2.5h5.623v-1.6h-7.37v10Zm18.386,0.1a5.358,5.358,0,0,0,4.033-1.7l-1.122-1.2a3.887,3.887,0,0,1-2.855,1.3,3.357,3.357,0,0,1-3.28-3.5v-0.1a3.367,3.367,0,0,1,3.28-3.5,3.782,3.782,0,0,1,2.784,1.3l1.122-1.3a5.242,5.242,0,0,0-3.891-1.6,5.036,5.036,0,0,0-5.127,5.2h0A4.962,4.962,0,0,0,162.91,13643.5Zm10.32,0a5.058,5.058,0,0,0,5.212-5.1v-0.1a5.034,5.034,0,0,0-5.183-5.1,5.141,5.141,0,0,0-5.212,5.2h0A5.034,5.034,0,0,0,173.23,13643.5Zm0.029-1.6a3.394,3.394,0,0,1-3.38-3.5v-0.1a3.371,3.371,0,0,1,3.351-3.5,3.421,3.421,0,0,1,3.38,3.6h0A3.37,3.37,0,0,1,173.259,13641.9Zm10.7,1.6c2.087,0,3.55-1.1,3.55-3h0c0-1.7-1.079-2.4-3.181-2.9-1.917-.5-2.372-0.8-2.372-1.6h0c0-.7.6-1.2,1.619-1.2a4.955,4.955,0,0,1,2.7,1l0.938-1.3a5.6,5.6,0,0,0-3.608-1.3c-1.973,0-3.394,1.2-3.394,2.9v0.1c0,1.8,1.193,2.4,3.309,2.9,1.846,0.5,2.244.8,2.244,1.6h0c0,0.7-.682,1.2-1.761,1.2a4.287,4.287,0,0,1-3.138-1.3l-1.051,1.3A5.97,5.97,0,0,0,183.963,13643.5Zm5.606-.1h1.718v-7.2l3.11,4.7h0.057l3.139-4.7v7.2h1.746v-10h-1.86l-3.025,4.7-3.025-4.7h-1.86v10Zm12.322,0h7.442v-1.6h-5.695v-2.7h4.985v-1.6h-4.985v-2.5h5.624v-1.6h-7.371v10Zm9.512,0h1.747v-3.3h1.973c2.187,0,3.977-1.1,3.977-3.4h0c0-2-1.449-3.3-3.778-3.3H211.4v10Zm1.747-4.8v-3.6h2.03c1.307,0,2.145.6,2.145,1.8h0a1.91,1.91,0,0,1-2.145,1.8h-2.03Zm12.479,4.9a5.059,5.059,0,0,0,5.212-5.1v-0.1a5.034,5.034,0,0,0-5.183-5.1,5.14,5.14,0,0,0-5.212,5.2h0A5.034,5.034,0,0,0,225.629,13643.5Zm0.029-1.6a3.394,3.394,0,0,1-3.38-3.5v-0.1a3.37,3.37,0,0,1,3.351-3.5,3.421,3.421,0,0,1,3.38,3.6h0A3.371,3.371,0,0,1,225.658,13641.9Zm7.3,1.5H234.7v-3.5h2.187l2.443,3.5H241.4l-2.684-3.8a3,3,0,0,0,2.358-3v-0.1a2.941,2.941,0,0,0-.824-2.1,4.12,4.12,0,0,0-2.869-1h-4.43v10Zm1.746-5.1v-3.3h2.542c1.293,0,2.06.6,2.06,1.6v0.1c0,1-.8,1.6-2.045,1.6H234.7Zm10.918,5.1h1.761v-8.4h3.152v-1.6h-8.066v1.6h3.153v8.4Z" transform="translate(-111.594 -13633.2)"/>
  <path id="Official_Twitter" data-name="Official Twitter" class="cls-1" d="M117.69,13669.5a6.14,6.14,0,0,0,6.141-6.3h0a6.124,6.124,0,1,0-12.248,0v0.1A6.029,6.029,0,0,0,117.69,13669.5Zm0.034-2a4.055,4.055,0,0,1-3.982-4.3h0a3.978,3.978,0,1,1,7.93,0v0.1A4,4,0,0,1,117.724,13667.5Zm14.765,1.8h2.025v-7.3h2.309v-1.8H134.48v-0.5a1.166,1.166,0,0,1,1.171-1.4,2.512,2.512,0,0,1,1.188.3v-1.8a6.952,6.952,0,0,0-1.639-.2,2.554,2.554,0,0,0-1.991.7,3.052,3.052,0,0,0-.72,2.2v0.7h-1.121v1.8h1.121v7.3Zm-6.291,0h2.025v-7.3h2.308v-1.8h-2.342v-0.5a1.166,1.166,0,0,1,1.171-1.4,2.512,2.512,0,0,1,1.188.3v-1.8a6.959,6.959,0,0,0-1.639-.2,2.557,2.557,0,0,0-1.992.7,3.056,3.056,0,0,0-.719,2.2v0.7h-1.121v1.8H126.2v7.3Zm12.825-10.5H141.2v-2h-2.175v2Zm0.084,10.5h2.024v-9.1h-2.024v9.1Zm9.416,0.2a4.415,4.415,0,0,0,3.614-1.7l-1.221-1.3a3.052,3.052,0,0,1-2.293,1.2,2.752,2.752,0,0,1-2.643-3h0a2.708,2.708,0,0,1,2.56-2.9,3.138,3.138,0,0,1,2.275,1.1l1.272-1.4a4.461,4.461,0,0,0-3.531-1.5,4.574,4.574,0,0,0-4.6,4.7v0.1A4.567,4.567,0,0,0,148.523,13669.5Zm5.164-10.7h2.175v-2h-2.175v2Zm0.084,10.5H155.8v-9.1h-2.025v9.1Zm6.874,0.2a3.437,3.437,0,0,0,2.878-1.4v1.2H165.5v-5.4a3.561,3.561,0,0,0-3.882-3.9,6.729,6.729,0,0,0-3.329.8l0.535,1.6a6.752,6.752,0,0,1,2.527-.5c1.422,0,2.191.6,2.191,1.9v0.3a5.624,5.624,0,0,0-2.375-.4c-2.159,0-3.648,1-3.648,2.9v0.1A2.861,2.861,0,0,0,160.645,13669.5Zm0.569-1.5a1.5,1.5,0,0,1-1.724-1.4v-0.1c0-.9.77-1.5,2.075-1.5a5.558,5.558,0,0,1,2.008.4v0.6A2.12,2.12,0,0,1,161.214,13668Zm6.528,1.3h2.087v-12.6h-2.087v12.6Zm13.189,0h2.139v-10.1H186.9v-2h-9.8v2h3.829v10.1Zm9.153,0.1h1.863l2.053-6.3,2.035,6.3h1.88l2.984-9.2h-2.1l-1.863,6.2-2.018-6.3H193.12l-2.018,6.3-1.828-6.2h-2.139Zm12.686-10.6h2.243v-2H202.77v2Zm0.087,10.5h2.087v-9.1h-2.087v9.1Zm7.862,0.1a3.556,3.556,0,0,0,1.88-.4v-1.7a2.886,2.886,0,0,1-1.294.3,1.044,1.044,0,0,1-1.121-1.2v-4.4h2.449v-1.8h-2.449v-2.5H208.1v2.5h-1.155v1.8H208.1v4.8C208.1,13668.8,209.184,13669.4,210.719,13669.4Zm7.085,0a3.556,3.556,0,0,0,1.88-.4v-1.7a2.886,2.886,0,0,1-1.294.3,1.044,1.044,0,0,1-1.121-1.2v-4.4h2.449v-1.8h-2.449v-2.5h-2.087v2.5h-1.156v1.8h1.156v4.8C215.182,13668.8,216.269,13669.4,217.8,13669.4Zm7.947,0.1a4.707,4.707,0,0,0,3.726-1.7l-1.225-1.1a3.346,3.346,0,0,1-2.466,1.1,2.52,2.52,0,0,1-2.622-2.3h6.692c0.018-.2.035-0.4,0.035-0.6,0-2.6-1.466-4.9-4.364-4.9a4.486,4.486,0,0,0-4.45,4.7v0.1A4.529,4.529,0,0,0,225.751,13669.5Zm-2.6-5.4a2.477,2.477,0,0,1,2.363-2.4,2.332,2.332,0,0,1,2.311,2.4h-4.674Zm8.842,5.2h2.087v-3.5c0-2.4,1.276-3.6,3.105-3.6h0.12v-2.2a3.246,3.246,0,0,0-3.225,2.2v-2h-2.087v9.1Z" transform="translate(-111.594 -13633.2)"/>
</svg>
