<svg xmlns="http://www.w3.org/2000/svg" width="59" height="12" viewBox="0 0 59 12">
  <defs>
    <style>
      .cls-1 {
        fill: #1147b4;
        fill-rule: evenodd;
      }
    </style>
  </defs>
  <path id="LINE_UP" data-name="LINE UP" class="cls-1" d="M410.127,34.37V45.039h4.767V43.5h-3.135V34.37h-1.632Zm7.584,0V45.039h1.632V34.37h-1.632Zm7.1,10.669V37.585l7.741,8.11V34.37h-1.631v7.39l-7.742-8.11V45.039h1.632Zm17.47-10.669H436.4V45.039h5.886V43.5H438.03V40.144h4.127V38.609H438.03v-2.7h4.255V34.37Zm8.4,0v6.862A3.951,3.951,0,0,0,451.678,44a4.134,4.134,0,0,0,5.919,0,3.951,3.951,0,0,0,.991-2.767V34.37h-1.631V40.8a3.727,3.727,0,0,1-.336,1.84,2.334,2.334,0,0,1-3.967,0,3.727,3.727,0,0,1-.336-1.84V34.37h-1.631Zm11.744,0V45.039h1.631V40.7H464.8a3.851,3.851,0,0,0,2.607-.832,2.988,2.988,0,0,0,1.04-2.335,3.088,3.088,0,0,0-1.328-2.591,4.169,4.169,0,0,0-2.335-.576h-2.351Zm1.631,1.5h0.72c1.855,0,2.1,1.056,2.1,1.648,0,0.992-.672,1.679-2.079,1.679h-0.736V35.874Z" transform="translate(-410.125 -33.656)"/>
</svg>
