<svg xmlns="http://www.w3.org/2000/svg" width="192" height="23" viewBox="0 0 192 23">
  <defs>
    <style>
      .cls-1 {
        fill: #fff;
        fill-rule: evenodd;
      }
    </style>
  </defs>
  <path id="nav-gallery_sp.svg" class="cls-1" d="M122.187,575.039h3.519L115.6,552.454l-10.621,22.585H108.5l2.335-5.151h9.117Zm-10.013-8.222,3.295-7.23,3.167,7.23h-6.462ZM130.959,553.7v21.338h4.414c2.975,0,5.311-.288,7.806-2.047a10.177,10.177,0,0,0,4.287-8.606,10.562,10.562,0,0,0-4.095-8.605c-2.367-1.76-4.959-2.08-7.934-2.08h-4.478Zm3.263,3.071h1.407a9.559,9.559,0,0,1,5.7,1.472,7.6,7.6,0,0,1,2.879,6.142,7.523,7.523,0,0,1-2.911,6.078,9.239,9.239,0,0,1-5.663,1.5h-1.407v-15.2Zm40.957,10.173h5.31a5.716,5.716,0,0,1-1.791,3.615,6.411,6.411,0,0,1-4.767,1.888,6.927,6.927,0,0,1-5.342-2.144,8.853,8.853,0,0,1,.064-11.772,7.7,7.7,0,0,1,5.63-2.208,7.186,7.186,0,0,1,3.775.928,8.7,8.7,0,0,1,2.623,2.431l2.592-1.823a9.705,9.705,0,0,0-3.455-3.2,11.543,11.543,0,0,0-5.567-1.344,11.359,11.359,0,0,0-7.966,19.227,9.3,9.3,0,0,0,7.262,2.911,9.976,9.976,0,0,0,7.262-2.719c2.08-2.016,3.167-4.991,3.167-8.638v-0.16h-8.8v3.007Zm30.238,8.094h3.519l-10.109-22.585-10.621,22.585h3.519l2.336-5.151h9.117ZM195.4,566.817l3.3-7.23,3.167,7.23H195.4ZM214.189,553.7v21.338h9.534v-3.071h-6.271V553.7h-3.263Zm15.168,0v21.338h9.533v-3.071h-6.27V553.7h-3.263Zm26.941,0H244.525v21.338H256.3v-3.071h-8.51V565.25h8.254v-3.071h-8.254v-5.407h8.51V553.7Zm6.787,0v21.338h3.263v-8.733h0.576l6.11,8.733h3.935l-6.654-9.117a5.854,5.854,0,0,0,4.735-5.951,5.952,5.952,0,0,0-2.528-5.022c-1.375-.928-3.039-1.248-5.63-1.248h-3.807Zm3.263,3.007h1.12c1.6,0,4.446.288,4.446,3.3,0,3.391-3.646,3.487-4.542,3.487h-1.024v-6.782Zm20.832,18.331h3.263v-9.213l7.006-12.125h-3.711l-4.927,8.542-4.926-8.542h-3.711l7.006,12.125v9.213Z" transform="translate(-104.969 -552.469)"/>
</svg>
