<svg xmlns="http://www.w3.org/2000/svg" width="537.593" height="47.37" viewBox="0 0 537.593 47.37">
  <defs>
    <style>
      .cls-1 {
        fill: #fff;
        fill-rule: evenodd;
      }
    </style>
  </defs>
  <path id="head-perfect.svg" class="cls-1" d="M428.471,2083.48v45.33h8.836v-16.79h5.709c5.233,0,8.972-1.49,11.486-4.01,3.467-3.46,3.738-8.36,3.738-10.12a14.456,14.456,0,0,0-4.621-10.95c-3.331-2.92-6.865-3.46-11.962-3.46H428.471Zm8.836,7.61h3.058c2.107,0,4.418.13,6.253,1.43a6.236,6.236,0,0,1,2.515,5.16,6.763,6.763,0,0,1-2.447,5.3,9.029,9.029,0,0,1-5.777,1.43h-3.6v-13.32Zm53.983-7.61H466.143v45.33H491.29v-7.61H474.979v-12.37h15.632v-7.61H474.979v-10.13H491.29v-7.61Zm9.94,0v45.33h8.836v-18.22h1.087l12.1,18.22h11.011l-14.137-19.1a12.526,12.526,0,0,0,4.961-1.97,12.38,12.38,0,0,0,5.3-10.67,12.894,12.894,0,0,0-4.486-10.2c-2.107-1.76-5.3-3.39-11.554-3.39H501.23Zm8.836,7.2h2.65c1.632,0,8.564.07,8.564,6.8,0,6.66-7,6.86-8.7,6.86h-2.514v-13.66Zm55.615-7.2h-24.06v45.33h8.836v-19.98H564.73v-7.61H550.457v-10.13h15.224v-7.61Zm34.135,0H574.669v45.33h25.147v-7.61H583.5v-12.37h15.632v-7.61H583.5v-10.13h16.312v-7.61Zm42.835,33.37a13.745,13.745,0,0,1-10.6,4.96c-7.613,0-15.361-5.44-15.361-15.5,0-8.36,5.913-15.83,15.021-15.83a14.592,14.592,0,0,1,10.942,5.09v-10.33a22.8,22.8,0,0,0-11.146-2.78c-6.457,0-12.1,1.7-16.652,5.98-3.874,3.6-7.272,9.51-7.272,17.74a22.594,22.594,0,0,0,7.272,17.33c3.806,3.6,8.632,6.32,16.584,6.32a23.442,23.442,0,0,0,11.214-2.65v-10.33Zm34.751-25.76v-7.61H648.176v7.61h10.195v37.72h8.836v-37.72h10.2Zm17.35-7.61v27.73c0,4.28.68,8.63,3.4,12.09,3.263,4.29,8.972,6.53,14.817,6.53s11.554-2.24,14.816-6.53c2.719-3.46,3.4-7.81,3.4-12.09v-27.73h-8.836v28.47a9.844,9.844,0,0,1-2.175,6.73,9.857,9.857,0,0,1-14.409,0,9.849,9.849,0,0,1-2.175-6.73v-28.47h-8.835Zm45.834,0,19.03,45.33h5.3l19.167-45.33h-9.651l-12.1,30.45-12.1-30.45h-9.651Zm78.563,7.8a11.559,11.559,0,0,0-10.464-6.13c-7.686,0-11.044,5.75-11.044,10.72a9.275,9.275,0,0,0,1.356,4.91c1.486,2.45,3.617,3.62,7.88,5.68,3.552,1.75,6.071,3.04,7.3,3.75,3.294,2,4.2,4.46,4.2,6.78,0,5.68-4.585,9.95-10.4,9.95a10.372,10.372,0,0,1-8.074-3.68,14.992,14.992,0,0,1-2.325-4.14l-2.454,1.16A14.158,14.158,0,0,0,797.9,2125a12.315,12.315,0,0,0,10.011,4.52c7.363,0,13.435-5.36,13.435-12.59a9.5,9.5,0,0,0-4.586-8.34c-2.2-1.55-4.328-2.45-8.59-4.52-4.328-2.13-7.557-3.68-7.557-8.33a7.657,7.657,0,0,1,8.009-8.01,9.209,9.209,0,0,1,8.461,5.3Zm33.2-5.55H831.685v43.08h20.668v-2.58H834.526v-19.7h17.439v-2.59H834.526v-15.63h17.827v-2.58Zm32.945,43.08-14.08-20.35a16.341,16.341,0,0,0,5.3-.84c5.361-1.8,7.234-6.2,7.234-10.46a10.711,10.711,0,0,0-4.457-9.23c-2.841-1.94-5.813-2.2-9.107-2.2h-6.2v43.08h2.842v-20.35h1.292l13.951,20.35H885.3Zm-18.472-40.5h3.552c1.68,0,4.78.26,6.588,1.29,1.68,0.91,3.811,3.17,3.811,7.5,0,5.55-3.682,8.78-9.817,8.78h-4.134v-17.57Zm28.812-2.58v43.08h2.842v-43.08h-2.842Zm36.43,0H911.4v43.08h20.668v-2.58H914.242v-19.7H931.68v-2.59H914.242v-15.63h17.826v-2.58Zm31.783,5.55a11.559,11.559,0,0,0-10.463-6.13c-7.686,0-11.045,5.75-11.045,10.72a9.276,9.276,0,0,0,1.357,4.91c1.485,2.45,3.617,3.62,7.879,5.68,3.553,1.75,6.072,3.04,7.3,3.75,3.294,2,4.2,4.46,4.2,6.78,0,5.68-4.586,9.95-10.4,9.95a10.37,10.37,0,0,1-8.073-3.68,14.992,14.992,0,0,1-2.325-4.14l-2.455,1.16A14.165,14.165,0,0,0,942.6,2125a12.312,12.312,0,0,0,10.011,4.52c7.363,0,13.434-5.36,13.434-12.59a9.494,9.494,0,0,0-4.586-8.34c-2.2-1.55-4.327-2.45-8.59-4.52-4.327-2.13-7.557-3.68-7.557-8.33a7.657,7.657,0,0,1,8.009-8.01,9.208,9.208,0,0,1,8.461,5.3Z" transform="translate(-428.469 -2082.47)"/>
</svg>
