<svg id="tag-water-proof.svg" xmlns="http://www.w3.org/2000/svg" width="184" height="21" viewBox="0 0 184 21">
  <defs>
    <style>
      .cls-1 {
        fill: #1147b4;
        stroke: #073a9f;
        stroke-width: 1px;
      }

      .cls-2 {
        fill: #fff;
        fill-rule: evenodd;
      }
    </style>
  </defs>
  <rect id="長方形_742" data-name="長方形 742" class="cls-1" x="0.5" y="0.5" width="183" height="20"/>
  <path id="スーパーウォータープルーフ" class="cls-2" d="M690.847,2169.33c-0.806,0-1.379,0-2.017-.05a4.987,4.987,0,0,0,.078.83c0.026,0.11.039,0.15,0.156,0.15,0.586-.04,1.146-0.08,1.875-0.08h3.917a16.388,16.388,0,0,1-2.473,3.48,16.946,16.946,0,0,1-4.789,3.52,2.245,2.245,0,0,1,.676.46,0.214,0.214,0,0,0,.326.03,19.837,19.837,0,0,0,4.646-3.62,23.668,23.668,0,0,1,3.592,3.3c0.092,0.1.144,0.1,0.235,0.02a4.832,4.832,0,0,0,.468-0.47c0.1-.13.1-0.16-0.013-0.27a27.5,27.5,0,0,0-3.735-3.26,22.548,22.548,0,0,0,1.926-2.79,1.651,1.651,0,0,1,.378-0.48,0.2,0.2,0,0,0,.065-0.3,3.562,3.562,0,0,0-.534-0.53,0.218,0.218,0,0,0-.26-0.04,1.386,1.386,0,0,1-.742.1h-3.775Zm16.845,4.37c0.872,0,1.836,0,2.812.02,0.156,0.02.195-.01,0.195-0.15a5.932,5.932,0,0,0,0-.68c0-.14-0.039-0.17-0.195-0.15-0.989.02-1.953,0.04-2.851,0.04h-4a24.592,24.592,0,0,1-2.877-.12,7.769,7.769,0,0,0,.131.99,0.208,0.208,0,0,0,.221.18,10.662,10.662,0,0,1,1.757-.13h4.8Zm15.87-5.3a1.31,1.31,0,1,0,1.314,1.31A1.307,1.307,0,0,0,723.562,2168.4Zm0,0.49a0.82,0.82,0,1,1-.82.82A0.82,0.82,0,0,1,723.562,2168.89Zm-10.1,7.09a1.775,1.775,0,0,1,.716.34,0.284,0.284,0,0,0,.4-0.05,13.443,13.443,0,0,0,2.942-4.27,2.13,2.13,0,0,1,.455-0.74,0.209,0.209,0,0,0-.026-0.37,5.707,5.707,0,0,0-1.028-.43,4.1,4.1,0,0,1-.416,1.47A11.036,11.036,0,0,1,713.462,2175.98Zm6.716-5a16.459,16.459,0,0,1,3.228,4.9c0.052,0.12.091,0.14,0.208,0.08a4.308,4.308,0,0,0,.612-0.41,0.169,0.169,0,0,0,.052-0.27,17.3,17.3,0,0,0-3.254-4.66,0.187,0.187,0,0,0-.273-0.03C720.62,2170.67,720.4,2170.83,720.178,2170.98Zm13.969,2.72c0.872,0,1.835,0,2.811.02,0.156,0.02.2-.01,0.2-0.15a5.932,5.932,0,0,0,0-.68c0-.14-0.04-0.17-0.2-0.15-0.989.02-1.952,0.04-2.85,0.04h-4a24.584,24.584,0,0,1-2.876-.12,7.974,7.974,0,0,0,.13.99,0.208,0.208,0,0,0,.221.18,10.677,10.677,0,0,1,1.757-.13h4.8Zm11.275-3.7v-0.7a2.077,2.077,0,0,1,.143-1.03,0.194,0.194,0,0,0-.13-0.32,5.573,5.573,0,0,0-1.055-.13,6.617,6.617,0,0,1,.117,1.54v0.65h-1.6c-0.651,0-1.224-.01-1.77-0.05-0.118-.01-0.17.04-0.157,0.14,0.026,0.33.026,0.66,0.026,1.08v0.91c0,0.57,0,.98-0.026,1.57,0,0.13.026,0.17,0.144,0.17,0.221,0.01.455,0.01,0.676,0,0.13,0,.156-0.04.156-0.2-0.026-.52-0.039-0.97-0.039-1.56v-1.26h6.4a11.565,11.565,0,0,1-1.51,3.89,9.323,9.323,0,0,1-3.657,3.29,3.092,3.092,0,0,1,.768.38,0.191,0.191,0,0,0,.286.03,10.411,10.411,0,0,0,3.449-3.31,12.856,12.856,0,0,0,1.562-3.86,1.134,1.134,0,0,1,.2-0.45,0.239,0.239,0,0,0,.039-0.34,2.121,2.121,0,0,0-.546-0.52,0.248,0.248,0,0,0-.3-0.04,2.63,2.63,0,0,1-1.184.12h-1.991Zm11.924,6.98c0.013,0.4-.039.5-0.313,0.57a5.26,5.26,0,0,1-1.34.12,1.494,1.494,0,0,1,.455.64,0.215,0.215,0,0,0,.247.13,3.85,3.85,0,0,0,1.3-.29,0.971,0.971,0,0,0,.442-1.15l-0.169-3.72h1.094c0.689,0,1.236.01,1.822,0.03a0.128,0.128,0,0,0,.156-0.15v-0.5c0-.12-0.039-0.13-0.156-0.13-0.6.01-1.2,0.04-1.835,0.04h-1.133l-0.052-.78a1.844,1.844,0,0,1,.078-1,0.151,0.151,0,0,0-.091-0.25,5.7,5.7,0,0,0-.963-0.11,4.886,4.886,0,0,1,.182,1.29l0.052,0.86h-2.486c-0.6,0-1.015,0-1.744-.05a6.609,6.609,0,0,0,.065.67c0.013,0.13.053,0.17,0.157,0.16,0.546-.05,1.015-0.08,1.535-0.08h2.018a10.184,10.184,0,0,1-1.614,1.77,12.01,12.01,0,0,1-2.395,1.61,1.333,1.333,0,0,1,.56.39,0.191,0.191,0,0,0,.286.02,12.278,12.278,0,0,0,2.083-1.49,11.981,11.981,0,0,0,1.626-1.83Zm13.355-3.28c0.872,0,1.835,0,2.811.02,0.157,0.02.2-.01,0.2-0.15a5.932,5.932,0,0,0,0-.68c0-.14-0.039-0.17-0.2-0.15-0.989.02-1.952,0.04-2.85,0.04h-4a24.584,24.584,0,0,1-2.876-.12,7.974,7.974,0,0,0,.13.99,0.208,0.208,0,0,0,.221.18,10.683,10.683,0,0,1,1.758-.13h4.8Zm9.934-4.03c0.208-.31.325-0.5,0.468-0.75a1.373,1.373,0,0,1,.378-0.44c0.143-.11.182-0.26,0.026-0.37a3.586,3.586,0,0,0-.925-0.44,4.486,4.486,0,0,1-.52,1.29,13.381,13.381,0,0,1-3.722,4.19,2.373,2.373,0,0,1,.624.37,0.242,0.242,0,0,0,.339-0.04,15,15,0,0,0,2.837-3.02l3.839-.07a14.357,14.357,0,0,1-1.9,3.23,17.9,17.9,0,0,0-1.939-1.22,0.143,0.143,0,0,0-.208.04,3.045,3.045,0,0,0-.456.52,13.591,13.591,0,0,1,2.044,1.32,15.42,15.42,0,0,1-4.894,3.65,2.167,2.167,0,0,1,.729.42,0.251,0.251,0,0,0,.351.01,15.893,15.893,0,0,0,4.516-3.55,14.771,14.771,0,0,1,1.458,1.43c0.065,0.08.1,0.09,0.208,0.02a1.8,1.8,0,0,0,.43-0.45c0.052-.09.091-0.15,0.013-0.23a14.292,14.292,0,0,0-1.562-1.43,18.365,18.365,0,0,0,2.069-3.44,0.987,0.987,0,0,1,.313-0.39,0.221,0.221,0,0,0,.052-0.35,3.244,3.244,0,0,0-.56-0.52,0.253,0.253,0,0,0-.351.03,1.041,1.041,0,0,1-.69.14Zm14.983,4.03c0.872,0,1.835,0,2.811.02,0.156,0.02.2-.01,0.2-0.15a5.932,5.932,0,0,0,0-.68c0-.14-0.039-0.17-0.2-0.15-0.989.02-1.952,0.04-2.85,0.04h-4a24.584,24.584,0,0,1-2.876-.12,7.974,7.974,0,0,0,.13.99,0.208,0.208,0,0,0,.221.18,10.662,10.662,0,0,1,1.757-.13h4.8Zm13.63-3.3a12.2,12.2,0,0,1-2.447,4.15,12.463,12.463,0,0,1-4.2,3.21,2.432,2.432,0,0,1,.677.44,0.326,0.326,0,0,0,.443.03,14.171,14.171,0,0,0,3.865-3.13,13.87,13.87,0,0,0,2.551-4.26,1.125,1.125,0,0,1,.286-0.44,0.273,0.273,0,0,0,.04-0.4,3.652,3.652,0,0,0-.586-0.54,0.342,0.342,0,0,0-.339-0.01,1.156,1.156,0,0,1-.65.12h-4.608a24,24,0,0,1-2.5-.11c0.013,0.23.053,0.63,0.066,0.81s0.078,0.22.234,0.21c0.7-.05,1.418-0.08,2.186-0.08h4.985Zm2.2-3.39a1.31,1.31,0,1,0,1.314,1.31A1.313,1.313,0,0,0,811.448,2167.01Zm0,0.49a0.82,0.82,0,1,1-.82.82A0.82,0.82,0,0,1,811.448,2167.5Zm8.319,3.69a6.154,6.154,0,0,1,.117-1.71c0.079-.18.118-0.31-0.078-0.38a10.4,10.4,0,0,0-1.08-.17,11.641,11.641,0,0,1,.13,2.27v3.69a6.771,6.771,0,0,1-.052,1.29,0.353,0.353,0,0,0,.026.32,2.666,2.666,0,0,0,.508.51,0.252,0.252,0,0,0,.351-0.01,1.56,1.56,0,0,1,.43-0.29c0.82-.47,1.549-0.95,2.251-1.45a18.072,18.072,0,0,0,2.057-1.82,0.252,0.252,0,0,0,.078-0.34,2.19,2.19,0,0,1-.221-0.82,12.142,12.142,0,0,1-2.3,2.17,17.2,17.2,0,0,1-2.213,1.38v-4.64Zm-3.787-1.45a5.328,5.328,0,0,1,.117,1.35,7.58,7.58,0,0,1-.7,3.36,6.231,6.231,0,0,1-2.1,2.42,1.711,1.711,0,0,1,.69.32,0.249,0.249,0,0,0,.364-0.05,6.832,6.832,0,0,0,1.861-2.31,8.355,8.355,0,0,0,.807-3.56,3.039,3.039,0,0,1,.13-1.01c0.065-.16.052-0.28-0.091-0.33A4.913,4.913,0,0,0,815.98,2169.74Zm18.381,3.96c0.872,0,1.835,0,2.812.02,0.156,0.02.2-.01,0.2-0.15a5.932,5.932,0,0,0,0-.68c0-.14-0.039-0.17-0.2-0.15-0.99.02-1.953,0.04-2.851,0.04h-4a24.592,24.592,0,0,1-2.877-.12,7.974,7.974,0,0,0,.13.99,0.209,0.209,0,0,0,.222.18,10.647,10.647,0,0,1,1.757-.13h4.8Zm13.63-3.46a12.168,12.168,0,0,1-2.447,4.16,12.592,12.592,0,0,1-4.2,3.21,2.057,2.057,0,0,1,.677.44,0.316,0.316,0,0,0,.443.02,14.279,14.279,0,0,0,6.416-7.38,1.256,1.256,0,0,1,.286-0.45,0.273,0.273,0,0,0,.039-0.4,3.163,3.163,0,0,0-.585-0.53,0.3,0.3,0,0,0-.339-0.01,1.28,1.28,0,0,1-.65.11h-4.608a24.161,24.161,0,0,1-2.5-.1c0.013,0.22.052,0.62,0.065,0.8s0.078,0.22.235,0.21c0.7-.05,1.418-0.08,2.186-0.08h4.985Z" transform="translate(-677.5 -2162.5)"/>
</svg>
