<svg id="tag-fragrance-free.svg" xmlns="http://www.w3.org/2000/svg" width="60" height="21" viewBox="0 0 60 21">
  <defs>
    <style>
      .cls-1 {
        fill: #1147b4;
        stroke: #073a9f;
        stroke-width: 1px;
      }

      .cls-2 {
        fill: #fff;
        fill-rule: evenodd;
      }
    </style>
  </defs>
  <rect id="長方形_742" data-name="長方形 742" class="cls-1" x="0.5" y="0.5" width="59" height="20"/>
  <path id="無香料" class="cls-2" d="M759.017,1003.62c1.224,0,1.64.02,1.718,0.02,0.13,0,.143-0.01.143-0.14v-0.91c0-.13-0.013-0.14-0.143-0.14-0.065,0-.416.03-1.3,0.03v-1.76h0.208c1.132,0,1.523.03,1.6,0.03,0.117,0,.13-0.01.13-0.14v-0.951c0-.13-0.013-0.143-0.13-0.143-0.078,0-.469.026-1.6,0.026h-0.208v-1.675c0.807,0.013,1.119.026,1.184,0.026,0.143,0,.156-0.013.156-0.13v-0.935c0-.129-0.013-0.142-0.156-0.142-0.078,0-.521.026-1.783,0.026h-5.909c0.156-.221.3-0.442,0.43-0.65a1.223,1.223,0,0,1,.3-0.376,0.226,0.226,0,0,0,.117-0.182,0.24,0.24,0,0,0-.182-0.169,7.605,7.605,0,0,0-1.119-.324,4.272,4.272,0,0,1-.326.779,7.418,7.418,0,0,1-2.264,2.415,2.674,2.674,0,0,1,.585.571,0.506,0.506,0,0,0,.287.26,0.64,0.64,0,0,0,.3-0.169c0.221-.195.442-0.4,0.651-0.623v1.3h-0.378c-1.132,0-1.523-.026-1.6-0.026-0.117,0-.13.013-0.13,0.143v0.951c0,0.13.013,0.14,0.13,0.14,0.078,0,.469-0.03,1.6-0.03H751.7v1.76c-0.937,0-1.3-.03-1.367-0.03-0.13,0-.143.01-0.143,0.14v0.91c0,0.13.013,0.14,0.143,0.14,0.078,0,.508-0.02,1.718-0.02h6.963Zm-1.822-1.14v-1.76h1.041v1.76H757.2Zm-2.16,0v-1.76h1.028v1.76h-1.028Zm-2.135,0v-1.76h1v1.76h-1Zm4.3-2.938v-1.675h1.041v1.675H757.2Zm-2.16,0v-1.675h1.028v1.675h-1.028Zm-2.135,0v-1.675h1v1.675h-1Zm-2.265,7.288a0.321,0.321,0,0,0,.157.07,0.15,0.15,0,0,0,.117-0.07,8.6,8.6,0,0,0,1.536-2.28c0.052-.13.052-0.15-0.118-0.23l-0.754-.31c-0.183-.08-0.209-0.08-0.261.05a6.464,6.464,0,0,1-1.47,2,0.178,0.178,0,0,0-.079.12,0.2,0.2,0,0,0,.131.14Zm8.031-2.5c-0.169.08-.182,0.11-0.1,0.21a11.947,11.947,0,0,1,1.314,2.17c0.065,0.12.1,0.13,0.26,0.05l0.82-.45c0.17-.09.183-0.12,0.118-0.24a10.828,10.828,0,0,0-1.406-2.05c-0.091-.1-0.13-0.12-0.286-0.04Zm-2.564.04c-0.182.04-.208,0.07-0.156,0.2a11.252,11.252,0,0,1,.546,2.09c0.026,0.14.052,0.14,0.248,0.1l0.924-.18c0.169-.04.182-0.07,0.156-0.21a11,11,0,0,0-.664-2.06c-0.052-.12-0.078-0.13-0.247-0.11Zm-2.564-.02c-0.2.01-.221,0.03-0.2,0.19a11.238,11.238,0,0,1,.221,2.14c0,0.13.013,0.16,0.221,0.13l0.937-.08c0.156-.01.182-0.05,0.169-0.18a12.394,12.394,0,0,0-.3-2.15c-0.026-.14-0.065-0.14-0.221-0.13Zm14.764-5.288a10.538,10.538,0,0,1-4.3,2.178,3.374,3.374,0,0,1,.534.76c0.117,0.23.156,0.32,0.26,0.32a1.284,1.284,0,0,0,.313-0.09,9.37,9.37,0,0,0,1.2-.51c0,0.12.026,0.51,0.026,1.63v1.18c0,1.95-.026,2.31-0.026,2.4,0,0.12.013,0.13,0.143,0.13h1.055c0.13,0,.143-0.01.143-0.13v-0.49h4.776v0.42c0,0.12.013,0.13,0.143,0.13h1.055c0.143,0,.156-0.01.156-0.13,0-.07-0.026-0.44-0.026-2.37v-1.35c0-.99.026-1.36,0.026-1.44v-0.03a12.138,12.138,0,0,0,1.21.49,0.99,0.99,0,0,0,.3.1c0.117,0,.156-0.11.273-0.35a4.938,4.938,0,0,1,.521-0.84,11.173,11.173,0,0,1-4.452-2.008h2.2c1.184,0,1.588.026,1.666,0.026,0.13,0,.143-0.013.143-0.143v-0.9c0-.117-0.013-0.13-0.143-0.13-0.078,0-.482.026-1.666,0.026h-3.189v-1.052c1.132-.129,2.031-0.246,2.772-0.4a3.341,3.341,0,0,1,.7-0.065c0.182,0,.274-0.065.274-0.156a0.336,0.336,0,0,0-.131-0.259,8.5,8.5,0,0,0-1.054-.754,6.818,6.818,0,0,1-1.132.286c-0.742.143-1.523,0.26-2.46,0.351-1.38.117-2.655,0.194-4.256,0.207a3.106,3.106,0,0,1,.43.714c0.169,0.364.156,0.364,0.572,0.351,0.976-.026,1.939-0.065,2.942-0.143v0.922h-3.059c-1.184,0-1.588-.026-1.666-0.026-0.13,0-.143.013-0.143,0.13v0.9c0,0.13.013,0.143,0.143,0.143,0.078,0,.482-0.026,1.666-0.026H768.3Zm2.226,2.208c0.13,0,.143-0.01.143-0.14,0-.22-0.052-1.04-0.052-1.679a10.053,10.053,0,0,0,2.916,2.1c-0.183.02-.651,0.03-1.64,0.03h-3.71c-0.872,0-1.327-.01-1.561-0.01a9.144,9.144,0,0,0,2.707-2.106c-0.013.626-.052,1.456-0.052,1.666,0,0.13.013,0.14,0.13,0.14h1.119Zm-2.876,4.11v-0.9h4.776v0.9h-4.776Zm0-2.75h4.776v0.82h-4.776v-0.82Zm13.424-3.218h-0.534c-1.015,0-1.34-.026-1.418-0.026-0.131,0-.144.013-0.144,0.143v0.921c0,0.12.013,0.13,0.144,0.13,0.078,0,.4-0.03,1.418-0.03h0.234a10.757,10.757,0,0,1-2.095,3.61,3.412,3.412,0,0,1,.469.95,0.25,0.25,0,0,0,.156.22,0.446,0.446,0,0,0,.234-0.21,11.912,11.912,0,0,0,1.575-2.96c-0.026,2.43-.091,4.57-0.091,4.77,0,0.13.013,0.14,0.143,0.14h1.067c0.143,0,.156-0.01.156-0.14,0-.2-0.091-2.52-0.091-5.09a11.331,11.331,0,0,0,1.054,1.86,0.2,0.2,0,1,0,.391-0.04,3.9,3.9,0,0,1,.521-0.86,11.371,11.371,0,0,1-1.758-2.25c0.938,0,1.25.03,1.328,0.03,0.13,0,.143-0.01.143-0.13v-0.921c0-.13-0.013-0.143-0.143-0.143-0.078,0-.4.026-1.406,0.026h-0.1v-2.441a3.768,3.768,0,0,1,.091-1.311,0.609,0.609,0,0,0,.078-0.273,0.2,0.2,0,0,0-.208-0.13c-0.442-.051-0.833-0.077-1.314-0.09a12.085,12.085,0,0,1,.1,1.83v2.415Zm4.828,3.4c-1.132.22-1.561,0.26-1.692,0.29s-0.143.03-.117,0.17l0.17,1.02c0.013,0.12.039,0.13,0.169,0.11s0.546-.12,1.679-0.34l1.783-.35v0.96c0,1.44-.026,2.16-0.026,2.23,0,0.13.013,0.15,0.143,0.15h1.08c0.13,0,.143-0.02.143-0.15,0-.06-0.026-0.8-0.026-2.24v-1.21c0.9-.18,1.25-0.23,1.341-0.26,0.143-.03.143-0.04,0.13-0.16l-0.156-1.01c-0.026-.14-0.026-0.15-0.143-0.13s-0.417.12-1.172,0.27v-4.968a5.324,5.324,0,0,1,.078-1.441,0.734,0.734,0,0,0,.078-0.26,0.179,0.179,0,0,0-.195-0.143c-0.455-.052-0.885-0.078-1.379-0.091a12.276,12.276,0,0,1,.1,1.974v5.189Zm-1.47-3.125a0.127,0.127,0,0,0-.013.247,10.877,10.877,0,0,1,1.718,1.768c0.091,0.1.117,0.1,0.26-.03l0.638-.63c0.13-.13.13-0.16,0.039-0.28a9.513,9.513,0,0,0-1.8-1.659,0.133,0.133,0,0,0-.248.013Zm0.377-2.986c-0.13.116-.117,0.181-0.026,0.246a9.387,9.387,0,0,1,1.77,1.7c0.078,0.117.1,0.1,0.247-.039l0.625-.61c0.117-.1.117-0.156,0.039-0.247a9.172,9.172,0,0,0-1.835-1.649c-0.117-.078-0.13-0.052-0.247.052Zm-2.238,1.8a3.576,3.576,0,0,1,.52.221,0.65,0.65,0,0,0,.26.117c0.079,0,.118-0.078.2-0.273a16.081,16.081,0,0,0,.6-1.649,0.457,0.457,0,0,1,.157-0.285,0.131,0.131,0,0,0,.078-0.13,0.184,0.184,0,0,0-.144-0.156,8.847,8.847,0,0,0-.989-0.363,4.84,4.84,0,0,1-.078.558A12.146,12.146,0,0,1,782.573,998.5Zm-3.293-2.168c-0.169.065-.2,0.091-0.143,0.234a9.777,9.777,0,0,1,.663,2.168c0.026,0.143.039,0.156,0.235,0.078l0.559-.208c0.169-.065.195-0.1,0.169-0.233a10.354,10.354,0,0,0-.7-2.182c-0.065-.13-0.078-0.143-0.235-0.078Z" transform="translate(-738.5 -990.5)"/>
</svg>
