<svg xmlns="http://www.w3.org/2000/svg" width="400.969" height="41.06" viewBox="0 0 400.969 41.06">
  <defs>
    <style>
      .cls-1 {
        fill: #fff;
        fill-rule: evenodd;
      }
    </style>
  </defs>
  <path id="head-feature.svg" class="cls-1" d="M538.074,1449.95a1.075,1.075,0,0,0,1.233-.7c-1.85-1.63-4.932-3.91-4.932-3.91l-2.731,3.34H521.119v-8.01H534.9a1.161,1.161,0,0,0,1.233-.66c-1.85-1.62-4.8-3.82-4.8-3.82l-2.642,3.25h-7.575v-6.42c1.189-.18,1.541-0.62,1.629-1.23l-5.857-.62v8.27H502.535l0.352,1.23h14v8.01H499.056l0.352,1.27h14.665a46.078,46.078,0,0,1-15.678,18.43l0.441,0.62a43.368,43.368,0,0,0,18.055-14.96v17.99h0.837c1.585,0,3.391-1.01,3.391-1.54v-20.54h0.088c3.083,8.58,8.323,14.87,15.017,18.48a4.885,4.885,0,0,1,3.655-3.7l0.088-.48c-6.781-2.33-13.96-7.66-17.791-14.3h15.9Zm51.238,2.69a1.084,1.084,0,0,0,1.233-.66c-1.894-1.67-4.977-4.01-4.977-4.01l-2.73,3.43H572.225v-11.65h15.369a1.049,1.049,0,0,0,1.189-.7c-1.849-1.63-4.844-3.87-4.844-3.87l-2.642,3.29h-9.072v-5.45c1.189-.18,1.541-0.62,1.629-1.23l-5.857-.62v7.3H552.055l0.352,1.28H568v11.65H550.073l0.353,1.24h14.929a44.492,44.492,0,0,1-15.854,16.67l0.44,0.61A43.709,43.709,0,0,0,568,1456.51v15.52h0.837c1.585,0,3.391-1.01,3.391-1.54v-17.46a30.758,30.758,0,0,0,15.193,16.1,4.64,4.64,0,0,1,3.479-3.65l0.088-.44c-6.782-1.98-14.092-6.55-17.968-12.4h16.295Zm-32.369-11.97c1.454,2.38,3.083,5.81,3.259,8.76,3.788,3.43,7.971-4.62-2.774-8.98Zm18.5,9.85a34.027,34.027,0,0,0,7.53-7.03,1.525,1.525,0,0,0,1.762-.75l-5.593-2.33a60.99,60.99,0,0,1-4.228,9.72Zm43.265-7.3a20.174,20.174,0,0,1-1.805,7.44c-1.541,3.52-5.5,9.94-8.191,9.94-1.806,0-3.479-3.21-3.479-7.04a13.9,13.9,0,0,1,4.183-9.72,16.652,16.652,0,0,1,8.015-4.53A7.384,7.384,0,0,1,618.705,1443.22Zm-0.528,25.6c14.577-.75,19.9-8,19.9-15.88,0-9.14-7.134-15.7-16.778-15.7a19.46,19.46,0,0,0-13.168,4.66,17.284,17.284,0,0,0-6.209,12.76c0,5.63,3.171,10.69,6.473,10.69,4.977,0,10-8.23,11.891-13.68a22.4,22.4,0,0,0,1.453-7.48c0-1.93-1.277-3.82-2.51-5.23,0.572-.05,1.145-0.09,1.673-0.09,7.223,0,12.683,5.1,12.683,13.06,0,7.79-4.624,13.68-15.589,15.97Zm31.6,2.24a39.352,39.352,0,0,0,13.476-5.71c0.969,0.22,1.365.08,1.673-.31l-4.58-2.99a36.878,36.878,0,0,1-10.965,8.4Zm23.649-7.69c3.523,1.67,8.411,4.97,10.613,7.65,4.624,1.19,4.8-7.43-10.3-8.14Zm3.082-9.24a27.155,27.155,0,0,1,4.712,3.52c-5.593.09-10.965,0.18-15.721,0.22a60.916,60.916,0,0,0,11.538-6.95,1.427,1.427,0,0,0,1.673-.57l-4.888-2.24a66.38,66.38,0,0,1-11.1,9.8c-5.5.09-9.952,0.09-12.771,0.05l1.938,4.4a2.093,2.093,0,0,0,1.277-.88c5.152-.44,9.688-0.8,13.784-1.19v11.7h0.705c2.069,0,3.39-.66,3.39-0.88v-11.17c4.36-.44,8.1-0.84,11.318-1.19a13.682,13.682,0,0,1,2.555,3.43c4.491,1.98,5.813-7.04-8.059-8.44Zm5.725-8.27H671.043v-3.96H684.3a1.079,1.079,0,0,0,1.189-.7c-1.629-1.36-4.14-3.21-4.14-3.21l-2.29,2.64h-8.015v-3.92h14.929a1.081,1.081,0,0,0,1.19-.7c-1.762-1.45-4.492-3.43-4.492-3.43l-2.378,2.86h-9.249v-2.46c1.19-.22,1.542-0.66,1.63-1.28l-5.769-.53v4.27H651.667l0.352,1.27H666.9v3.92H653.516l0.353,1.27H666.9v3.96H649.333l0.4,1.23h14.224a44.337,44.337,0,0,1-2.378,3.96,15.1,15.1,0,0,0-6.694-1.27l-0.352.44c2.422,1.32,5.725,3.78,7.134,5.93,2.687,0.93,3.964-2.06,1.277-4.26a75.786,75.786,0,0,0,6.958-4.8h17.968a1.111,1.111,0,0,0,1.189-.7c-1.673-1.45-4.4-3.65-4.4-3.65Zm23.449,8.27c0.133-2.24.133-4.44,0.133-6.51v-2.5h5.725v9.01h-5.858Zm5.858-19v8.71h-5.725v-8.71h5.725Zm3.919,0.57a2.938,2.938,0,0,0,1.673-.83l-4.139-3.17-1.85,2.16h-4.624l-4.536-1.76v15.57c0,8.22-.088,17.06-3.3,24.05l0.573,0.36c4.4-4.71,5.813-10.78,6.341-16.67h5.946v8.71a0.724,0.724,0,0,1-.881.87c-0.749,0-4.228-.26-4.228-0.26v0.66a4.942,4.942,0,0,1,3.127,1.36,5.313,5.313,0,0,1,.793,2.86c4.579-.44,5.108-2.11,5.108-5.01v-28.9Zm23.208,21.64h-0.528c-0.529,2.99-1.233,6.91-1.586,7.79-0.176.48-.352,0.57-0.572,0.57a6.868,6.868,0,0,1-1.013.04h-1.013c-0.616,0-.705-0.26-0.705-0.92v-28.63a3.2,3.2,0,0,0,1.85-.79l-4.228-3.61-2.113,2.51H723.91l-4.624-1.81v16.36c0,8.4-.528,16.5-5.549,22.79l0.573,0.39c8.323-6.07,8.94-15.13,8.94-23.18v-13.28h5.989v30.57c0,2.59.528,3.65,3.435,3.65h1.982c3.963,0,5.416-.97,5.416-2.51a1.636,1.636,0,0,0-1.233-1.76Zm13.407-6.07c0-1.98,3.7-4.18,6.561-4.35-0.484,2.11-1.013,4.79-1.453,7.39C753.655,1453.78,752.07,1452.64,752.07,1451.27Zm15.061-2.06c3.919,2.99,6.782,5.85,6.782,10.77,0,4-3.215,7.48-8.5,7.48-4.1,0-6.738-1.89-6.738-6.12a18.029,18.029,0,0,1,.265-2.94,24.268,24.268,0,0,0,4.976.09c1.761-.22,2.6-0.88,2.6-1.98,0-1.24-.881-1.81-2.246-1.89-0.969-.09-2.6,0-4.58-0.09,0.617-2.64,1.454-5.37,2.158-7.48a15.984,15.984,0,0,0,2.554.04c1.189-.08,1.938-0.44,1.938-1.49,0-.97-0.7-2.02-2.6-2.24l-0.573-.05a25.6,25.6,0,0,1,1.674-3.78c0.528-1.01,1.233-1.45,1.233-2.42,0-1.36-2.951-3.87-5.417-3.87a10.6,10.6,0,0,0-2.818.4l-0.044.83a11.055,11.055,0,0,1,2.113.75,1.762,1.762,0,0,1,1.1,1.85,52.294,52.294,0,0,1-1.409,6.07,19.514,19.514,0,0,1-4.932-1.02,8.556,8.556,0,0,1-4.1-3.47l-0.66.35c0.484,2.6,1.321,3.87,2.774,4.93a10.009,10.009,0,0,0,3.039,1.45c-3.171,1.67-5.549,4.18-5.549,6.64,0,2.6,2.334,4.88,6.474,5.94a28.663,28.663,0,0,0-.265,3.6c0,5.46,3.171,9.24,9.645,9.24,8.455,0,12.022-5.32,12.022-9.76,0-5.11-3.259-9.42-10.393-12.49Zm31.286-17.55a12.837,12.837,0,0,1,3.259,6.15c3.875,2.78,7.486-4.83-2.863-6.42Zm-8.455,19.57,0.4,1.27H827.57a1.025,1.025,0,0,0,1.145-.7c-1.673-1.54-4.58-3.78-4.58-3.78l-2.51,3.21H810.968v-5.24h12.947a1.079,1.079,0,0,0,1.189-.7c-1.673-1.49-4.36-3.52-4.36-3.52l-2.378,2.95h-7.4v-4.97h15.413a1.1,1.1,0,0,0,1.233-.7c-1.761-1.54-4.624-3.7-4.624-3.7l-2.466,3.12h-6.958a49.986,49.986,0,0,0,5.593-4.88,1.42,1.42,0,0,0,1.674-.75l-5.725-1.84a52.3,52.3,0,0,1-2.907,7.47H791.679l0.4,1.28H806.7v4.97H794.145l0.353,1.27h12.2v5.24H789.962Zm38.357,8.49a1.1,1.1,0,0,0,1.233-.71c-1.761-1.54-4.712-3.78-4.712-3.78l-2.6,3.26H810.131c0.22-1.15.4-2.38,0.529-3.7a1.479,1.479,0,0,0,1.541-1.19l-6.209-.48a38.911,38.911,0,0,1-.529,5.37h-16.47l0.352,1.23h15.81c-1.453,4.92-5.373,8.49-16.647,11.61l0.309,0.75c15.325-2.6,19.509-6.6,21.05-12.36H810.4c2.819,7.21,8.059,10.38,16.383,12.18a4.6,4.6,0,0,1,3.17-3.91v-0.49c-8.279-.66-15.105-2.55-18.584-7.78h16.955Zm14.463-22.61c0.793,0.57,1.013,1.28,1.013,3.17,0,2.99-.969,12.49-0.969,19,0,7.96,3.435,10.99,9.512,10.99,8.544,0,15.106-5.54,18.144-12.62l-0.881-.57c-3.479,4.75-9.952,9.01-16.822,9.01-5.065,0-6.562-1.97-6.562-7.21a91.646,91.646,0,0,1,1.718-16.18c0.44-2.16,1.5-2.64,1.5-3.74,0-1.59-3.7-4.44-6.3-4.49a10.023,10.023,0,0,0-3.214.62v0.79A8.639,8.639,0,0,1,842.782,1437.11Zm50.485-.62a3.057,3.057,0,0,1-.969,1.9c-1.85,2.33-8.235,8.84-10.525,11.56a4.1,4.1,0,0,0-1.278,2.6,3.993,3.993,0,0,0,1.674,2.86c5.241,4.44,8.543,7.74,10.437,10.64,1.189,1.85,1.629,2.9,2.158,3.83a2.5,2.5,0,0,0,2.158,1.36,2.326,2.326,0,0,0,2.466-2.55,7.868,7.868,0,0,0-2.114-4.71c-3.083-3.87-7.53-6.73-11.89-9.98-0.925-.7-1.542-1.28-1.542-1.89,0-.53.353-1.06,1.586-2.29a133.4,133.4,0,0,1,10.393-8.8c1.761-1.27,2.862-1.62,2.862-2.77,0-1.36-1.893-3.6-4.007-4.7a9.425,9.425,0,0,0-3.259-.84l-0.484.71C892.43,1434.6,893.267,1435.62,893.267,1436.49Z" transform="translate(-498.406 -1431)"/>
</svg>
