<svg id="text-feature-01_sp.svg" xmlns="http://www.w3.org/2000/svg" width="476.594" height="47.16" viewBox="0 0 476.594 47.16">
  <defs>
    <style>
      .cls-1 {
        fill: #1147b4;
      }

      .cls-1, .cls-2 {
        fill-rule: evenodd;
      }

      .cls-2 {
        fill: none;
        stroke: #1147b4;
        stroke-linecap: round;
        stroke-width: 3px;
        stroke-dasharray: 0.001 6;
      }
    </style>
  </defs>
  <path id="最高_レベルの紫外線防御効果" data-name="最高  レベルの紫外線防御効果" class="cls-1" d="M104.189,1873.88c0.34,0,.374-0.04.374-0.38,0-.2-0.068-1.46-0.068-4.07v-11.39h11.534c2.96,0,3.947.07,4.151,0.07,0.306,0,.34-0.04.34-0.38v-2.14c0-.34-0.034-0.37-0.34-0.37-0.2,0-1.191.07-4.151,0.07H94.186c-2.96,0-3.947-.07-4.151-0.07-0.34,0-.374.03-0.374,0.37v2.14c0,0.34.034,0.38,0.374,0.38,0.17,0,1.055-.04,3.368-0.07v10.67a3.193,3.193,0,0,1-.612.07,31.188,31.188,0,0,1-3.2.24,23.1,23.1,0,0,0,.681,2.72,0.612,0.612,0,0,0,.476.54,1.416,1.416,0,0,0,.544-0.2,3.51,3.51,0,0,1,1.225-.34c2.756-.41,6.124-1.02,8.846-1.6-0.034,2.11-.068,3.16-0.068,3.36,0,0.34.034,0.38,0.374,0.38h2.518Zm-2.824-6.32c-1.531.27-3.2,0.51-4.8,0.74v-2.34h4.8v1.6Zm-4.8-7.72v-1.8h4.8v1.8h-4.8Zm0,3.94v-1.76h4.8v1.76h-4.8Zm2.314-19.81c-3.368,0-4.525-.07-4.763-0.07-0.34,0-.374.03-0.374,0.41,0,0.2.068,0.95,0.068,2.78v3.57c0,1.84-.068,2.59-0.068,2.79,0,0.37.034,0.41,0.374,0.41,0.238,0,1.395-.07,4.763-0.07h12.385c3.368,0,4.559.07,4.763,0.07,0.34,0,.374-0.04.374-0.41,0-.2-0.068-0.95-0.068-2.79v-3.57c0-1.83.068-2.58,0.068-2.78,0-.38-0.034-0.41-0.374-0.41-0.2,0-1.395.07-4.763,0.07H98.881Zm14.086,7.44H97.18v-1.46h15.787v1.46Zm-15.787-4.93h15.787v1.43H97.18v-1.43Zm12.35,13.56c-2.687,0-3.538-.06-3.742-0.06-0.34,0-.374.03-0.374,0.37v1.97c0,0.38.034,0.41,0.374,0.41,0.1,0,.34,0,0.884-0.03a18.991,18.991,0,0,0,3.335,5.43,18.3,18.3,0,0,1-5.478,2.55,6.6,6.6,0,0,1,1.259,1.94,0.957,0.957,0,0,0,.612.78,2.564,2.564,0,0,0,.681-0.24,22.521,22.521,0,0,0,5.137-2.99,19.069,19.069,0,0,0,5.818,2.93c0.885,0.27.953,0.27,1.293-.65a10.521,10.521,0,0,1,1.191-2.17,18.409,18.409,0,0,1-6.022-2.32,17.582,17.582,0,0,0,2.756-4.11,3.553,3.553,0,0,1,.918-1.43,0.682,0.682,0,0,0,.341-0.61c0-.24-0.1-0.47-0.919-1.26-0.783-.71-0.953-0.78-1.191-0.78a1.393,1.393,0,0,0-.51.14,1.746,1.746,0,0,1-.613.13h-5.75Zm5.07,2.62a13.312,13.312,0,0,1-2.348,3.54,12.111,12.111,0,0,1-2.483-3.54H114.6Zm38.387,0.51c0-2.48.068-3.67,0.068-3.87,0-.34-0.034-0.38-0.374-0.38-0.238,0-1.361.07-4.593,0.07H130.464c-3.233,0-4.355-.07-4.594-0.07-0.34,0-.374.04-0.374,0.38,0,0.2.068,1.22,0.068,3.6v6.59c0,2.62-.068,3.64-0.068,3.84,0,0.34.034,0.38,0.374,0.38H128.8c0.341,0,.375-0.04.375-0.38,0-.17-0.068-1.32-0.068-3.84v-7.61h20.346v7.44a0.782,0.782,0,0,1-.851.96,19.594,19.594,0,0,1-2.178-.14,7.936,7.936,0,0,1,.715,2.24c0.17,0.99.2,1.06,1.259,1.06,2.449,0,3.232-.17,3.844-0.72a3.116,3.116,0,0,0,.817-2.44c0-1.06-.068-2.49-0.068-4.32v-2.79Zm-17.794-12.98c-3.1,0-4.185-.07-4.389-0.07-0.34,0-.375.03-0.375,0.37,0,0.24.069,0.75,0.069,2.21v2.08c0,1.39-.069,1.93-0.069,2.14,0,0.34.035,0.37,0.375,0.37,0.2,0,1.293-.07,4.389-0.07h8.2c3.1,0,4.185.07,4.389,0.07,0.341,0,.375-0.03.375-0.37,0-.21-0.068-0.75-0.068-2.14v-2.08c0-1.46.068-1.97,0.068-2.21,0-.34-0.034-0.37-0.375-0.37-0.2,0-1.293.07-4.389,0.07h-8.2Zm9.56,4.65H133.8v-2.24h10.955v2.24Zm4.8-6.32c3.062,0,4.116.07,4.321,0.07,0.34,0,.374-0.04.374-0.38v-2.37c0-.34-0.034-0.38-0.374-0.38-0.205,0-1.259.07-4.321,0.07h-8.71v-0.1a6.714,6.714,0,0,1,.136-1.63,2.169,2.169,0,0,0,.238-0.68,0.493,0.493,0,0,0-.545-0.34c-1.156-.11-2.347-0.17-3.606-0.17a11.614,11.614,0,0,1,.238,2.82v0.1h-8.267c-3.063,0-4.117-.07-4.321-0.07-0.341,0-.375.04-0.375,0.38v2.37c0,0.34.034,0.38,0.375,0.38,0.2,0,1.258-.07,4.321-0.07h20.516Zm-14.222,22.91c0.34,0,.374-0.03.374-0.37v-0.92h6.907v0.71c0,0.34.034,0.38,0.408,0.38h2.518c0.34,0,.374-0.04.374-0.38,0-.2-0.068-0.74-0.068-3.8v-1.5c0-.99.068-1.6,0.068-1.8,0-.34-0.034-0.38-0.374-0.38-0.238,0-1.123.07-3.675,0.07h-5.307c-2.586,0-3.471-.07-3.675-0.07-0.34,0-.374.04-0.374,0.38,0,0.2.068,0.85,0.068,2.14v1.26c0,3.13-.068,3.67-0.068,3.91,0,0.34.034,0.37,0.374,0.37h2.45Zm0.374-5.71h6.907v2.18H135.7v-2.18Zm49.415-13.05a14,14,0,0,1,.374-4.22,2.53,2.53,0,0,0,.17-0.71,0.662,0.662,0,0,0-.544-0.65,35,35,0,0,0-4.423-.74,32.051,32.051,0,0,1,.374,5.91L181,1865.04a6.73,6.73,0,0,1-.136,1.94,1.371,1.371,0,0,0-.17.58,0.831,0.831,0,0,0,.2.54,10.3,10.3,0,0,0,2.075,2.31,0.9,0.9,0,0,0,.578.27,0.983,0.983,0,0,0,.613-0.27,8.192,8.192,0,0,1,1.905-1.09,76.172,76.172,0,0,0,8.336-4.21,54.658,54.658,0,0,0,8.506-5.85,1.071,1.071,0,0,0,.34-1.36,15.29,15.29,0,0,1-.544-3.94,41.962,41.962,0,0,1-9.017,6.93,55.5,55.5,0,0,1-8.676,4.29Zm21.068,7.82a40.863,40.863,0,0,0,3.164,2.99,0.686,0.686,0,0,0,.476.23,0.775,0.775,0,0,0,.613-0.44,11.294,11.294,0,0,1,1.361-1.73c2.347-2.58,3.878-4.42,5.545-6.15a0.711,0.711,0,0,1,.545-0.27,0.826,0.826,0,0,1,.544.23,154.53,154.53,0,0,0,15.073,11.87,0.569,0.569,0,0,0,.374.13,0.7,0.7,0,0,0,.51-0.37,19.97,19.97,0,0,0,1.769-2.96,0.6,0.6,0,0,0-.306-0.92,108.012,108.012,0,0,1-15.242-11.04c-1.259-1.13-1.906-1.4-2.96-1.4s-1.7.38-3.062,1.8c-1.6,1.7-3.267,3.44-4.934,5.14A15.662,15.662,0,0,1,206.186,1860.49Zm18.577-10.95a17,17,0,0,1,3.436,3.94,0.356,0.356,0,0,0,.578.11l1.429-1.06a0.339,0.339,0,0,0,.1-0.54,15.768,15.768,0,0,0-3.232-3.64,0.354,0.354,0,0,0-.51-0.07Zm3.13-2.24a15.837,15.837,0,0,1,3.4,3.91,0.352,0.352,0,0,0,.578.1l1.361-1.06a0.39,0.39,0,0,0,.1-0.61,14.147,14.147,0,0,0-3.232-3.5,0.352,0.352,0,0,0-.51-0.07Zm29.541,5.3c0-2.45,0-3.13.306-3.77a2.2,2.2,0,0,0,.272-0.85,0.621,0.621,0,0,0-.612-0.58,31.875,31.875,0,0,0-4.253-.71,27.058,27.058,0,0,1,.34,5.91v10.64c0,1.73.034,2.14-.2,2.58a1.06,1.06,0,0,0-.136.51,1.365,1.365,0,0,0,.306.72,9.81,9.81,0,0,0,2.042,2.07,1.444,1.444,0,0,0,.714.27,1.082,1.082,0,0,0,.681-0.27,9.612,9.612,0,0,1,.986-0.71,57.346,57.346,0,0,0,6.056-4.08,42.811,42.811,0,0,0,5.036-4.46,1.275,1.275,0,0,0,.51-0.85,1.606,1.606,0,0,0-.2-0.57,9.885,9.885,0,0,1-1.055-3.44,32.283,32.283,0,0,1-5.954,5.78,33.7,33.7,0,0,1-4.831,3.16V1852.6Zm-11.874-3.77a9.113,9.113,0,0,1,.34,2.85c-0.034,5.44-.476,7.31-1.429,9.62a16.892,16.892,0,0,1-5.648,6.77,12.272,12.272,0,0,1,2.892,1.42,1.174,1.174,0,0,0,.647.28,1.512,1.512,0,0,0,.884-0.45,17.4,17.4,0,0,0,4.832-6.39,25.39,25.39,0,0,0,1.837-9.99,4.892,4.892,0,0,1,.408-2.31,0.68,0.68,0,0,0-.442-1.06A27.053,27.053,0,0,0,245.56,1848.83Zm44.34,1.46a7.722,7.722,0,0,1,7.621,7.88c0,6.43-4.525,8.81-10.275,10.17a7.169,7.169,0,0,1,2.382,2.14,1.084,1.084,0,0,0,1.463.61c6.907-2.07,10.479-6.05,10.479-12.37,0-6.77-4.8-11.8-12.963-11.8a14.915,14.915,0,0,0-11.057,4.35,12.532,12.532,0,0,0-3.845,8.84c0,5.54,3.028,8.74,6.022,8.74,2.552,0,4.321-1.36,5.784-3.91,2.042-3.57,3.471-8.87,4.253-14.65H289.9Zm-4.083.2a38.788,38.788,0,0,1-3.606,12.17c-0.919,1.63-1.667,2.07-2.552,2.07-1.055,0-2.313-1.73-2.313-4.86a9.762,9.762,0,0,1,2.653-6.28A10.259,10.259,0,0,1,285.817,1850.49Zm42.98,10.27a0.432,0.432,0,0,0-.34.3,0.473,0.473,0,0,0,.2.31l1.531,1.5c-2.245.17-4.763,0.3-7.417,0.4a48.887,48.887,0,0,0,4.73-4.04,4.523,4.523,0,0,1,1.088-.75,0.56,0.56,0,0,0,.477-0.48,0.643,0.643,0,0,0-.409-0.51c-0.714-.47-1.837-0.98-2.756-1.46a7.555,7.555,0,0,1-1.292,1.67,56.789,56.789,0,0,1-4.764,4.49l-1.871-1.47c1.089-.98,2.075-2,3.1-3.06a3.306,3.306,0,0,1,.953-0.78,0.583,0.583,0,0,0,.442-0.41,0.667,0.667,0,0,0-.408-0.51,22.7,22.7,0,0,0-2.212-1.18c0.272-.04.545-0.11,0.817-0.17,1.123-.24,1.123-0.24,1.225-1.33a12.192,12.192,0,0,1,.306-1.73c-1.871.37-3.5,0.71-5.07,0.95v-3.13H318.8c1.769,0,2.347.07,2.551,0.07,0.341,0,.375-0.04.375-0.38v-2.14c0-.34-0.034-0.37-0.375-0.37-0.2,0-.782.07-2.551,0.07h-1.668v-0.34a5.682,5.682,0,0,1,.2-2.28,1,1,0,0,0,.2-0.61c0-.17-0.2-0.27-0.545-0.31-1.122-.13-2.075-0.2-3.266-0.24a20.364,20.364,0,0,1,.238,3.68v6.49l-2.279.27v-4.52a5.4,5.4,0,0,1,.17-2.11,0.759,0.759,0,0,0,.2-0.54c0-.21-0.17-0.31-0.476-0.34-0.953-.1-2.076-0.17-3.131-0.21a16.308,16.308,0,0,1,.2,3.2v4.83c-0.953.06-1.77,0.1-2.722,0.1,0.17,1.12.306,1.93,0.544,2.92a0.539,0.539,0,0,0,.51.48,1.151,1.151,0,0,0,.545-0.17,3.769,3.769,0,0,1,1.225-.28c3.98-.51,6.94-0.98,10.309-1.69a6.808,6.808,0,0,1-.749,1.15,29.9,29.9,0,0,1-2.722,2.89c-0.816-.54-1.633-1.09-2.517-1.6-0.273-.17-0.375-0.13-0.681.1l-1.769,1.3c-0.306.2-.374,0.37-0.034,0.54a41.138,41.138,0,0,1,5.818,4.11c-2.144.04-4.287,0.07-6.362,0.07-1.021,0-2.11-.03-3.539-0.14,0.17,1.02.408,2.04,0.647,3a0.537,0.537,0,0,0,.51.44,1.1,1.1,0,0,0,.544-0.14,2.82,2.82,0,0,1,1.259-.2c3.1-.04,6.5-0.1,9.935-0.27v3.91c0,2.17-.068,3.16-0.068,3.39,0,0.31.034,0.34,0.34,0.34h2.892c0.374,0,.408-0.03.408-0.34,0-.2-0.068-1.22-0.068-3.39v-4.08c3.335-.21,6.567-0.41,9.357-0.68a19.337,19.337,0,0,1,1.191,1.76c0.17,0.31.238,0.28,0.646,0.04l2.075-1.19c0.341-.21.307-0.34,0.137-0.65a31.793,31.793,0,0,0-5.036-5.44,0.435,0.435,0,0,0-.68-0.06Zm-2.143-10.47a46.04,46.04,0,0,0,6.907-2.38,3.635,3.635,0,0,1,1.5-.51,0.41,0.41,0,0,0,.476-0.37,0.912,0.912,0,0,0-.272-0.51,18.009,18.009,0,0,0-2.008-2.21,7.227,7.227,0,0,1-1.565,1.05,31.738,31.738,0,0,1-5.035,1.97v-1.09a6.332,6.332,0,0,1,.17-2.21,1.171,1.171,0,0,0,.2-0.57c0-.21-0.2-0.31-0.646-0.34-1.055-.14-2.042-0.24-3.164-0.28a21.653,21.653,0,0,1,.17,3.34v6.93a2.112,2.112,0,0,0,1.225,2.24,17.215,17.215,0,0,0,4.695.55c2.654,0,4.559-.24,5.546-0.85,0.952-.58,1.5-1.57,1.7-3.57,0.068-.89.068-0.95-0.817-1.16a9.1,9.1,0,0,1-2.347-.88c-0.034,1.53-.171,2.51-0.715,3.06-0.442.41-1.939,0.51-3.2,0.51a9.117,9.117,0,0,1-2.314-.21c-0.442-.1-0.51-0.37-0.51-1.12v-1.39Zm-0.817,17.5c-0.34.24-.408,0.34-0.136,0.62a25.52,25.52,0,0,0,6.839,4.69,2.317,2.317,0,0,0,.783.27,1.248,1.248,0,0,0,.782-0.82,10.663,10.663,0,0,1,1.735-1.93,20.828,20.828,0,0,1-7.519-4.02,0.491,0.491,0,0,0-.306-0.2,0.71,0.71,0,0,0-.374.2Zm-11.636-1.22a7.573,7.573,0,0,1-1.4,1.39,21.9,21.9,0,0,1-6.09,2.96,6.358,6.358,0,0,1,1.565,1.7,1.363,1.363,0,0,0,.817.78,2.889,2.889,0,0,0,.782-0.24,28.2,28.2,0,0,0,5.614-3.22,3.934,3.934,0,0,1,1.055-.72,0.61,0.61,0,0,0,.51-0.47,0.681,0.681,0,0,0-.374-0.55A16.609,16.609,0,0,0,314.2,1866.57Zm33.08-9.01a0.759,0.759,0,0,0-.2.41,0.5,0.5,0,0,0,.2.31,37.077,37.077,0,0,1,3.369,3.46,26.832,26.832,0,0,1-9.289,8.91,8.393,8.393,0,0,1,1.974,1.8,1.5,1.5,0,0,0,.748.68,1.91,1.91,0,0,0,.817-0.48,30.316,30.316,0,0,0,12.35-17.87,28.739,28.739,0,0,0,4.253,5.03v7.71c0,3.81-.068,5.71-0.068,5.92,0,0.34.034,0.37,0.374,0.37h2.96c0.34,0,.374-0.03.374-0.37,0-.17-0.068-2.11-0.068-5.92v-4.89a38.309,38.309,0,0,0,5.1,2.85,2.321,2.321,0,0,0,.782.27c0.273,0,.375-0.23.613-0.85a10.515,10.515,0,0,1,1.5-2.68,39.272,39.272,0,0,1-8-4.08v-10.3a13.382,13.382,0,0,1,.239-3.77,2.249,2.249,0,0,0,.17-0.68c0-.21-0.2-0.31-0.511-0.34a31.923,31.923,0,0,0-3.742-.27,31.1,31.1,0,0,1,.272,5.16v7.21a24.982,24.982,0,0,1-3.4-4.35l0.2-.34a0.975,0.975,0,0,0,.34-0.58,2.194,2.194,0,0,0-.987-1.19,2.512,2.512,0,0,0-1.5-.92,0.872,0.872,0,0,0-.476.14,1.9,1.9,0,0,1-1.021.2h-3.5c0.2-.54.374-1.12,0.578-1.73a4.6,4.6,0,0,1,.681-1.73,0.776,0.776,0,0,0,.238-0.58,0.567,0.567,0,0,0-.51-0.48,27.042,27.042,0,0,0-3.471-.75,10.231,10.231,0,0,1-.442,2.69,26.93,26.93,0,0,1-7.145,12.03,7.221,7.221,0,0,1,1.7,2.08,0.988,0.988,0,0,0,.579.68,1.21,1.21,0,0,0,.68-0.51,33.186,33.186,0,0,0,5.784-8.54h4.831a32.949,32.949,0,0,1-2.347,7.38,29.6,29.6,0,0,0-2.994-2.92,0.528,0.528,0,0,0-.341-0.21,0.442,0.442,0,0,0-.306.24Zm49.241,11.8c0,0.71-.272,1.05-1.225,1.05-0.51,0-1.463-.03-2.483-0.13a6.811,6.811,0,0,1,.918,2.17c0.238,1.05.238,1.02,1.293,1.02a6.53,6.53,0,0,0,3.47-.58,2.887,2.887,0,0,0,1.259-2.75c0-1.9-.1-3.94-0.2-6.66a25.443,25.443,0,0,0,5.92,7.88,1.4,1.4,0,0,0,.681.48,1.065,1.065,0,0,0,.544-0.68,7.571,7.571,0,0,1,1.531-2.24,22.323,22.323,0,0,1-5.2-4.49,27.845,27.845,0,0,0,2.789-2.45,4.512,4.512,0,0,1,1.293-1.02,0.53,0.53,0,0,0,.409-0.51,0.931,0.931,0,0,0-.409-0.68,19.362,19.362,0,0,0-1.939-1.56,10.4,10.4,0,0,1-1.225,1.53,24.619,24.619,0,0,1-2.518,2.38,21.167,21.167,0,0,1-1.871-4.42h1.735c2.892,0,3.879.07,4.117,0.07,0.34,0,.374-0.04.374-0.38,0-.2-0.068-1.09-0.068-3.16v-5.03c0-2.07.068-2.92,0.068-3.13,0-.37-0.034-0.4-0.374-0.4-0.238,0-1.225.06-4.117,0.06h-2.143c0.17-.37.34-0.78,0.51-1.25a1.956,1.956,0,0,1,.511-0.79,0.689,0.689,0,0,0,.272-0.51c0-.2-0.136-0.34-0.647-0.44a24.979,24.979,0,0,0-3.2-.41,9.435,9.435,0,0,1-.34,1.94c-0.136.51-.306,0.99-0.476,1.46h-0.681c-2.892,0-3.879-.06-4.117-0.06-0.34,0-.374.03-0.374,0.4,0,0.21.068,1.06,0.068,3.13v5.03c0,2.07-.068,2.92-0.068,3.16,0,0.34.034,0.38,0.374,0.38,0.238,0,1.225-.07,4.117-0.07h1.429v4.01a5.353,5.353,0,0,0-.953-1.02c-0.782-.78-0.986-0.88-1.19-0.88a0.8,0.8,0,0,0-.375.13,0.957,0.957,0,0,1-.612.14h-1.361c-0.953,0-1.565,0-1.939-.04a0.386,0.386,0,0,0,.068-0.4,36.446,36.446,0,0,0-2.042-5.99c-0.136-.3-0.2-0.4-0.578-0.27l-1.531.58c-0.408.14-.476,0.27-0.34,0.58,0.306,0.75.612,1.53,0.884,2.38-1.361.1-2.688,0.17-3.98,0.23,1.633-2.14,3.47-4.75,5.273-7.61a4.53,4.53,0,0,1,1.055-1.33,0.59,0.59,0,0,0,.374-0.54,0.542,0.542,0,0,0-.408-0.47,22.468,22.468,0,0,0-2.824-1.26,14.947,14.947,0,0,1-.953,2.14c-0.714,1.29-1.5,2.58-2.279,3.87l-1.5-1.76a54.521,54.521,0,0,0,2.892-4.69,1.818,1.818,0,0,1,.646-0.82,0.524,0.524,0,0,0,.306-0.44,0.663,0.663,0,0,0-.442-0.55c-0.817-.4-1.837-0.85-2.824-1.22a9.379,9.379,0,0,1-.612,1.8,37.805,37.805,0,0,1-1.974,3.71l-0.816-.82c-0.238-.27-0.341-0.24-0.613.1l-1.259,1.67a0.906,0.906,0,0,0-.238.44,0.47,0.47,0,0,0,.17.31,38.514,38.514,0,0,1,4.423,5.03c-0.612.85-1.224,1.73-1.905,2.58a19.485,19.485,0,0,1-2.484-.14c0.1,1.09.239,2.01,0.409,2.89,0.068,0.34.17,0.55,0.408,0.55a0.984,0.984,0,0,0,.51-0.14,3.571,3.571,0,0,1,1.293-.27l2.688-.2v9.04c0,3.12-.068,4.21-0.068,4.45,0,0.34.034,0.37,0.374,0.37h2.586c0.34,0,.374-0.03.374-0.37,0-.2-0.068-1.33-0.068-4.45v-9.35c0.715-.07,1.4-0.14,2.144-0.24l0.2,0.99c0.068,0.41.136,0.44,0.612,0.3l1.123-.34v2.25c0,0.34.034,0.37,0.374,0.37,0.2,0,.987-0.07,2.11-0.07h1.123a15.566,15.566,0,0,1-5.716,7.14,6.666,6.666,0,0,1,1.6,1.43,0.787,0.787,0,0,0,1.531.13,18.58,18.58,0,0,0,5.307-7.88,2.948,2.948,0,0,1,.715-1.22,0.922,0.922,0,0,0,.306-0.31v7.14Zm5.92-14.18h-8.506v-2.31h8.506v2.31Zm-8.506-6.9h8.506v2.14h-8.506v-2.14Zm-17.42,22.06a12.215,12.215,0,0,1,1.872.89,2.185,2.185,0,0,0,.782.4c0.2,0,.272-0.27.442-0.81a40.034,40.034,0,0,0,1.123-6.12,4.408,4.408,0,0,1,.272-1.26,0.748,0.748,0,0,0,.171-0.51,0.629,0.629,0,0,0-.579-0.4,21.333,21.333,0,0,0-2.62-.48,15.051,15.051,0,0,1-.068,2.17A19.661,19.661,0,0,1,376.516,1870.34Zm9.527-8.15c-0.408.13-.442,0.17-0.34,0.51a33.51,33.51,0,0,1,1.02,5.16c0.034,0.38.1,0.41,0.579,0.24l1.7-.58c0.476-.17.476-0.27,0.408-0.61a33.652,33.652,0,0,0-1.225-4.96c-0.136-.34-0.17-0.38-0.578-0.24Zm51.248-3.03a43.043,43.043,0,0,1-.782,9.01c-0.273,1.22-.817,1.8-1.974,1.8a30.12,30.12,0,0,1-3.368-.24,6.342,6.342,0,0,1,.748,2.38c0.171,1.09.171,1.09,0.987,1.16,0.579,0.03,1.259.03,1.8,0.03,3.4,0,4.73-1.09,5.342-4.28a65.075,65.075,0,0,0,.749-10.1c0-.81.034-1.7,0.1-2.55,0-.34-0.1-0.44-0.477-0.44-0.2,0-.85.07-3.2,0.07h-5.478c0.1-1.29.136-2.65,0.17-4.18h6.295c3.232,0,4.355.07,4.559,0.07,0.34,0,.374-0.04.374-0.38v-2.62c0-.34-0.034-0.37-0.374-0.37-0.2,0-1.327.07-4.559,0.07h-3.539v-2.24a6.49,6.49,0,0,1,.17-2.28,1.718,1.718,0,0,0,.2-0.72,0.5,0.5,0,0,0-.545-0.34c-1.123-.13-2.211-0.23-3.5-0.27a20.079,20.079,0,0,1,.238,3.61v2.24h-2.416c-2.892,0-4.014-.07-4.219-0.07-0.34,0-.374.03-0.374,0.37v2.62c0,0.34.034,0.38,0.374,0.38,0.171,0,1.225-.07,3.811-0.07-0.068,4.86-.408,8.22-1.327,11.01-1.157,3.64-3.64,6.29-7.417,8.29a7.461,7.461,0,0,1,2.007,1.91,1.083,1.083,0,0,0,.749.64,2.1,2.1,0,0,0,.817-0.37,17.2,17.2,0,0,0,7.212-9.45,26.25,26.25,0,0,0,.987-4.69h5.852ZM416.775,1844c-1.769,0-2.654-.07-2.892-0.07-0.34,0-.374.04-0.374,0.41,0,0.2.068,2.52,0.068,7.24v14.65c0,4.69-.068,6.97-0.068,7.21,0,0.3.034,0.34,0.374,0.34h2.722c0.374,0,.408-0.04.408-0.34,0-.21-0.068-2.62-0.068-7.21v-19.1h3.811a42.994,42.994,0,0,1-3.1,7.68c2.415,3.06,3.2,4.69,3.2,6.25,0,2.08-1.225,2.55-3.334,2.45a4.81,4.81,0,0,1,.748,2.28c0.136,1.05.136,1.05,1.225,0.95,3.3-.24,4.661-2.07,4.661-5.23,0-1.91-.442-3.95-2.96-6.97a69.58,69.58,0,0,0,2.858-6.7,2.5,2.5,0,0,1,.647-1.12,0.8,0.8,0,0,0,.34-0.58,2.086,2.086,0,0,0-.885-1.32c-0.782-.85-1.021-1.02-1.327-1.02a0.751,0.751,0,0,0-.374.1,1.542,1.542,0,0,1-.68.1h-5Zm33.522,25.19c0,2.72-.068,4.01-0.068,4.21,0,0.34.034,0.38,0.34,0.38h2.722c0.34,0,.374-0.04.374-0.38,0-.2-0.068-1.49-0.068-4.21v-12.34c0.545-.75,1.021-1.53,1.463-2.28a4.2,4.2,0,0,1,.851-1.09v2.45c0,0.37.034,0.41,0.408,0.41,0.2,0,.987-0.07,3.641-0.07h1.02v11.12c-0.544.1-1.054,0.17-1.565,0.23v-5.94a5.913,5.913,0,0,1,.137-1.91,1.115,1.115,0,0,0,.17-0.54c0-.17-0.2-0.27-0.511-0.31-0.816-.1-2.007-0.17-2.926-0.2a18.162,18.162,0,0,1,.17,2.96v6.35a20.784,20.784,0,0,1-2.109.1,31.9,31.9,0,0,0,.953,3.23,0.534,0.534,0,0,0,.442.44,0.9,0.9,0,0,0,.544-0.23,2.941,2.941,0,0,1,1.157-.41c3.13-.54,5.818-1.12,9.356-2.07,0.987-.28.987-0.28,1.089-1.4a9.275,9.275,0,0,1,.306-1.94c-1.463.38-2.823,0.72-4.15,1.02v-4.24h1.565c1.02,0,1.225.06,1.429,0.06,0.306,0,.34-0.03.34-0.37v-2.38c0-.34-0.034-0.37-0.34-0.37-0.2,0-.409.06-1.429,0.06h-1.565v-3.26h0.2c2.654,0,3.47.07,3.674,0.07,0.34,0,.375-0.04.375-0.41v-2.38c0-.3-0.035-0.34-0.375-0.34-0.2,0-1.02.04-3.674,0.04h-0.2v-3.78c2.075,0.04,2.858.07,3.062,0.07,0.34,0,.374-0.03.374-0.37v-2.38c0-.31-0.034-0.34-0.374-0.34-0.2,0-1.055.07-3.641,0.07h-2.722l0.238-.75a3.134,3.134,0,0,1,.477-1.23,0.8,0.8,0,0,0,.34-0.57,0.591,0.591,0,0,0-.578-0.48,20.454,20.454,0,0,0-2.79-.58,9.157,9.157,0,0,1-.34,1.97,17.83,17.83,0,0,1-3.063,6.12,7.027,7.027,0,0,1,1.8.99,1.536,1.536,0,0,0,.748.51,1.108,1.108,0,0,0,.647-0.68,18.373,18.373,0,0,0,1.327-2.35h1.428v3.78h-1.02c-2.654,0-3.437-.04-3.675-0.04a0.413,0.413,0,0,0,.1-0.3,0.9,0.9,0,0,0-.476-0.65,18.619,18.619,0,0,0-2.416-1.56,9.811,9.811,0,0,1-.85,1.8,26.246,26.246,0,0,1-6.022,6.97,8.189,8.189,0,0,1,.952,2.41c0.136,0.48.238,0.68,0.443,0.68a1.6,1.6,0,0,0,.714-0.41,21.43,21.43,0,0,0,1.633-1.49c-0.034,1.19-.068,2.55-0.068,3.53v5Zm27.559-18.15c0-3.54.068-5.34,0.068-5.54,0-.34-0.034-0.38-0.374-0.38-0.17,0-.817.07-2.79,0.07h-2.688c-1.973,0-2.586-.07-2.824-0.07-0.34,0-.374.04-0.374,0.38,0,0.23.068,2.38,0.068,6.76v14.51c0,4.39-.068,6.5-0.068,6.7,0,0.34.034,0.37,0.374,0.37H471.8c0.34,0,.374-0.03.374-0.37,0-.17-0.068-2.07-0.068-5.85v-19.3h2.62v16.55c0,0.78-.238.99-0.749,0.99a7.815,7.815,0,0,1-1.395-.11,8.9,8.9,0,0,1,.681,2.49c0.136,1.02.136,1.05,1.191,1.05a3.566,3.566,0,0,0,2.79-.82c0.612-.64.646-1.59,0.646-3.12,0-1.19-.034-2.89-0.034-4.66v-9.65Zm-25.109-8.26a7.221,7.221,0,0,1-.851,1.59,19.324,19.324,0,0,1-4.831,4.76,9.924,9.924,0,0,1,1.259,2.31c0.2,0.55.306,0.75,0.51,0.75a1.37,1.37,0,0,0,.715-0.41,31.209,31.209,0,0,0,5.069-5.4,3.051,3.051,0,0,1,1.021-.99,0.491,0.491,0,0,0,.34-0.47,0.831,0.831,0,0,0-.476-0.61A13.74,13.74,0,0,0,452.747,1842.78Zm56.726,10.81a103.057,103.057,0,0,1-.851,14.27c-0.272,1.74-.714,2.11-1.769,2.11a20.792,20.792,0,0,1-3.266-.27,6.766,6.766,0,0,1,.782,2.34c0.2,1.12.2,1.12,1.157,1.16a20.237,20.237,0,0,0,2.076.07c2.585,0,3.878-1.06,4.286-3.71a105.675,105.675,0,0,0,.953-15.5c0-1.05.034-2.04,0.068-3.23,0-.34-0.068-0.41-0.374-0.41-0.2,0-1.123.07-3.879,0.07h-2.381c0.034-.88.068-1.8,0.068-2.75a18.071,18.071,0,0,1,.17-3.37,4.13,4.13,0,0,0,.238-0.91,0.49,0.49,0,0,0-.51-0.41c-1.191-.1-2.246-0.17-3.5-0.21a33.333,33.333,0,0,1,.272,4.8c0,0.98-.034,1.93-0.068,2.85-2.619,0-3.47-.07-3.64-0.07-0.374,0-.408.04-0.408,0.38v2.48c0,0.34.034,0.37,0.408,0.37,0.17,0,1.021-.06,3.47-0.06a36.99,36.99,0,0,1-1.463,8.39,17.505,17.505,0,0,1-7.179,9.28,5.83,5.83,0,0,1,1.94,1.7,1.2,1.2,0,0,0,.68.61,1.821,1.821,0,0,0,.851-0.51,21.1,21.1,0,0,0,6.8-9.92,40.912,40.912,0,0,0,1.736-9.55h3.334Zm-22.694,6.49c-0.272.27-.306,0.37-0.034,0.58,1.055,0.88,2.144,1.87,3.2,2.92a20.337,20.337,0,0,1-7.519,7.04,6.71,6.71,0,0,1,1.531,1.69,1.215,1.215,0,0,0,.715.79,1.884,1.884,0,0,0,.782-0.41,24.349,24.349,0,0,0,6.771-6.7,34.438,34.438,0,0,1,2.314,2.89,0.467,0.467,0,0,0,.306.24,0.7,0.7,0,0,0,.374-0.27l1.7-1.84c0.306-.3.306-0.41,0.068-0.64a39.411,39.411,0,0,0-3.028-3.4,25.6,25.6,0,0,0,1.021-2.42,4.2,4.2,0,0,1,.714-1.46,0.916,0.916,0,0,0,.375-0.64,0.569,0.569,0,0,0-.443-0.51,18.127,18.127,0,0,0-2.994-1.26,11.425,11.425,0,0,1-.748,2.99l-0.408.99c-0.851-.75-1.7-1.47-2.552-2.11-0.272-.21-0.374-0.17-0.715.13Zm7.656-9.62c2.96,0,3.946.07,4.15,0.07,0.341,0,.375-0.04.375-0.38v-2.44c0-.38-0.034-0.41-0.375-0.41-0.2,0-1.19.07-4.15,0.07H493.04v-1.13a6.843,6.843,0,0,1,.17-2.31,1.779,1.779,0,0,0,.238-0.71c0-.17-0.2-0.31-0.579-0.34a32.476,32.476,0,0,0-3.4-.24,19.613,19.613,0,0,1,.2,3.6v1.13h-1.8c-2.96,0-3.947-.07-4.151-0.07-0.34,0-.374.03-0.374,0.41v2.44c0,0.34.034,0.38,0.374,0.38,0.2,0,1.191-.07,4.151-0.07h6.567Zm-11.909,7.1a6.489,6.489,0,0,1,1.736,1.63,1.108,1.108,0,0,0,.612.62,1.747,1.747,0,0,0,.748-0.55,23.864,23.864,0,0,0,3.471-4.72,4.9,4.9,0,0,1,.748-1.12,0.73,0.73,0,0,0,.375-0.51,0.706,0.706,0,0,0-.511-0.55,22.531,22.531,0,0,0-2.79-1.22,11.48,11.48,0,0,1-.578,1.66A14.864,14.864,0,0,1,482.526,1857.56Zm10.786-5.27c-0.375.17-.443,0.24-0.272,0.58a37.931,37.931,0,0,0,3.878,5.88,1.256,1.256,0,0,0,.715.65,1.653,1.653,0,0,0,.748-0.58,9.92,9.92,0,0,1,1.838-1.46,23.732,23.732,0,0,1-4.287-5.81c-0.171-.31-0.239-0.31-0.613-0.14Zm36.04,10.88c-2.994,3.13-6.8,5.1-11.466,6.56a8.344,8.344,0,0,1,1.633,2.18c0.272,0.61.408,0.81,0.646,0.81a2.7,2.7,0,0,0,.817-0.27,27.207,27.207,0,0,0,10.853-7.72c-0.034,4.39-.238,8.03-0.238,8.77,0,0.34.034,0.38,0.408,0.38H535c0.341,0,.375-0.04.375-0.38,0-.74-0.238-4.48-0.238-8.9a26.368,26.368,0,0,0,11.431,7.78,2.733,2.733,0,0,0,.817.24c0.272,0,.374-0.24.68-0.85a9.6,9.6,0,0,1,1.531-2.34c-4.967-1.4-9.254-3.44-12.214-6.26h6.907c3.028,0,4.049.07,4.253,0.07,0.34,0,.374-0.03.374-0.41v-2.41c0-.34-0.034-0.38-0.374-0.38-0.2,0-1.225.07-4.253,0.07h-9.05v-2.48h4.525c3.3,0,4.491.07,4.729,0.07,0.34,0,.374-0.04.374-0.38,0-.17-0.068-1.15-0.068-3.36v-6.05c0-2.21.068-3.2,0.068-3.4,0-.34-0.034-0.37-0.374-0.37-0.238,0-1.429.06-4.729,0.06H527.718c-3.266,0-4.457-.06-4.695-0.06-0.34,0-.374.03-0.374,0.37,0,0.24.068,1.19,0.068,3.4v6.05c0,2.21-.068,3.16-0.068,3.36,0,0.34.034,0.38,0.374,0.38,0.238,0,1.429-.07,4.695-0.07h4.015v2.48h-8.472c-3.028,0-4.048-.07-4.252-0.07-0.375,0-.409.04-0.409,0.38v2.41c0,0.38.034,0.41,0.409,0.41,0.2,0,1.224-.07,4.252-0.07h6.091Zm12.01-16.14v2.65h-6.124v-2.65h6.124Zm0,7.92h-6.124v-2.62h6.124v2.62Zm-15.209-5.27v-2.65h5.58v2.65h-5.58Zm0,5.27v-2.62h5.58v2.62h-5.58Z" transform="translate(-82.375 -1842.34)"/>
  <path id="_2" data-name="※2" class="cls-1" d="M163.03,1849.5l3.875,3.92,0.383-.39-3.887-3.9,3.887-3.91-0.383-.38-3.875,3.91-3.875-3.91-0.383.38,3.887,3.91-3.887,3.9,0.383,0.39Zm3.253-1.37a1,1,0,1,0,1.005,1A1,1,0,0,0,166.283,1848.13Zm-6.506,0a1,1,0,1,0,.993,1A1,1,0,0,0,159.777,1848.13Zm3.253-3.29a1.005,1.005,0,1,0,.993,1.01A1,1,0,0,0,163.03,1844.84Zm0,6.57a1.005,1.005,0,1,0,.993,1A1,1,0,0,0,163.03,1851.41Zm7.834,1.34c-0.144,0-.216-0.02-0.216-0.07a0.294,0.294,0,0,1,.12-0.17c2.236-2,3.791-3.49,3.791-5.2a2.176,2.176,0,0,0-2.428-2.13,3.6,3.6,0,0,0-2.439.91,0.342,0.342,0,0,0-.144.21,0.284,0.284,0,0,0,.12.21l0.131,0.14a0.368,0.368,0,0,0,.2.14,0.387,0.387,0,0,0,.215-0.14,2.579,2.579,0,0,1,1.842-.78,1.563,1.563,0,0,1,1.77,1.55c0,1.37-1.483,2.77-3.493,4.64-0.191.16-.406,0.37-0.609,0.54a0.514,0.514,0,0,0-.228.5c0,0.24.036,0.31,0.239,0.31,0.084,0,.969-0.02,1.555-0.02h1.4c0.633,0,1.423.02,1.674,0.02,0.2,0,.239-0.07.239-0.29v-0.11c0-.23-0.036-0.29-0.239-0.29-0.084,0-.359.01-0.562,0.02-0.3.01-.754,0.01-1.112,0.01h-1.83Z" transform="translate(-82.375 -1842.34)"/>
  <path id="シェイプ_1024" data-name="シェイプ 1024" class="cls-2" d="M85.375,1885H556" transform="translate(-82.375 -1842.34)"/>
</svg>
