<?xml version="1.0" encoding="utf-8"?>
<!-- Generator: Adobe Illustrator 26.0.3, SVG Export Plug-In . SVG Version: 6.00 Build 0)  -->
<svg version="1.1" id="text-feature-04_sp.svg" xmlns="http://www.w3.org/2000/svg" xmlns:xlink="http://www.w3.org/1999/xlink"
	 x="0px" y="0px" viewBox="0 0 301.5 101.9" style="enable-background:new 0 0 301.5 101.9;" xml:space="preserve">
<style type="text/css">
	.st0{fill:none;stroke:#1147B4;stroke-width:3.1835;stroke-linecap:round;stroke-dasharray:1.591763e-03,6.3671;}
	.st1{fill:#1147B4;}
</style>
<path id="シェイプ_1024_00000089547386898569472100000008424337512323690397_" class="st0" d="M18.8,41.5h264.1"/>
<path id="シェイプ_1024_00000038403255751148325560000000485635728350035119_" class="st0" d="M2.1,100.3h297.5"/>
<g>
	<path class="st1" d="M27.9,21.5v8.9c0,2.1-0.3,3.2-1.4,3.8c-1.1,0.8-2.9,1-5.3,1c-0.2-1.1-0.6-3-1.1-4.1c1.4,0,2.7,0,3.2,0
		c0.5,0,0.6-0.2,0.6-0.6v-7.6c-1.3,0.3-2.4,0.6-3.5,1l-1-4.5c1.3-0.3,2.9-0.6,4.6-1.1v-6.7h-4.1V7.3H24V0h4.1v7.2H32v4.1h-3.8V17
		l3.5-1l0.6,4.1L27.9,21.5z M45.2,31.2c1,0,1.8,0.2,2.7,0.2c1.3,0,6,0,7.6,0c-0.5,1-1.1,2.9-1.3,4h-6.5c-4.9,0-8.9-1-11.5-5.6
		c-1,2.4-2.4,4.5-4,6c-0.8-0.8-2.4-2.1-3.3-2.7c3.2-2.5,4.8-6.7,5.3-11.9l4.1,0.5c-0.2,1.4-0.5,2.7-0.8,3.8c0.8,2.2,1.9,3.7,3.3,4.5
		v-10H32v-3.7h22.6v3.7h-9.4v3.3h7.3v3.5h-7.3V31.2z M52.7,14.5H33.9V1.3h18.8V14.5z M48.4,4.5H38v1.9h10.3V4.5z M48.4,9.2H38v1.9
		h10.3V9.2z"/>
	<path class="st1" d="M93.1,19.4h-7.8v16.2h-4.6V19.4h-9.9c-0.3,6-2.2,12.3-9.7,16.4c-0.6-1.1-2.2-2.7-3.3-3.5
		c6.4-3.3,8.1-8.1,8.4-12.9h-8.1v-4.3h8.3V8.3c-2.1,0.6-4.3,1.1-6.5,1.6c-0.2-1.1-1-2.7-1.6-3.8c5.9-1.3,12.3-3.5,16.2-5.9l3.5,4
		C75.9,5.3,73.4,6,71,7v8.1h9.7V0.6h4.6v14.5h7.8V19.4z"/>
	<path class="st1" d="M127.7,30.9c0.2,0,0.3,0,0.5-0.2c0.2-0.2,0.2-0.5,0.2-1.3c0-0.8,0.2-2.7,0.2-4.9c1,0.8,2.4,1.6,3.5,1.9
		c0,2.1-0.2,4.6-0.5,5.7c-0.2,1.1-0.6,1.9-1.3,2.4c-0.5,0.5-1.4,0.6-2.2,0.6h-2.2c-1,0-1.9-0.3-2.7-1c-0.8-0.8-1-1.6-1-4.9V5.7h-4.1
		V17c0,5.9-0.5,14.2-4.1,19.1c-0.8-0.8-2.7-2.1-3.8-2.7c-0.2,0.5-0.6,0.8-1.1,1.1c-1.1,0.8-2.9,0.8-5.3,0.8
		c-0.2-1.1-0.6-3.2-1.3-4.3c1.4,0,2.9,0,3.2,0c0.5,0,0.6-0.2,0.6-0.6v-8.8c-1,1-1.9,1.9-2.9,2.9l-1.3-2.2c-0.3,4.8-1.1,10-2.9,13.7
		c-0.8-0.6-2.7-1.8-3.8-2.1c2.4-5.3,2.5-12.9,2.5-18.5v-14h12.4v29.1c0,1,0,1.9-0.3,2.5c2.9-4.5,3.2-10.8,3.2-15.9V1.4h13.2v27.7
		c0,1,0,1.4,0.2,1.6c0,0.2,0.2,0.2,0.3,0.2H127.7z M102.4,15.3c0,1.6,0,3.2-0.2,4.9c1.1-0.8,2.5-1.8,4-2.9v-2.7l-1.1,1
		c-0.6-0.8-1.6-1.9-2.5-3v2.7H102.4z M102.4,5.6V10l1.1-1c1,0.8,1.9,1.8,2.7,2.7V5.6H102.4z"/>
	<path class="st1" d="M162.7,12.4c1.4,0,4.3-0.2,5.1-0.3c0.2,1.1,0.2,1.9,0.3,2.7c-1,0.3-3.2,0.3-4.9,0.3h-9.1
		c-3.7,0-4.6-1.1-4.8-3.3l-6.4,0.2V10l6.4-0.2V8.6h-7.6v6.8c0,5.9-0.5,14.5-3.8,20.1c-0.8-0.8-2.9-1.9-3.8-2.2
		c3-5.1,3.3-12.4,3.3-17.8V5.7h12.1V0h4.6v1.8h12.1v2.9h-12.1v1.1h11l0.8-0.2l3.3,1c-0.6,1.9-1.6,4.1-2.4,5.6l-3.8-1.3
		c0.2-0.5,0.5-1.3,0.8-2.1h-10.2v1.1l8.4-0.3v1.9l-8.4,0.3c0.2,0.5,0.5,0.8,1.6,0.8h7.5V12.4z M165.1,32.3c0,1.8-0.3,2.4-1.4,2.9
		c-1.1,0.5-2.7,0.5-4.8,0.5c-0.2-1-0.8-1.9-1.1-2.9c1.1,0,2.2,0,2.5,0c0.3,0,0.5-0.2,0.5-0.5v-1c-3.7,0.6-7.2,1.3-10.2,1.8l-1-2.9
		c2.1-0.2,4.9-0.5,8-0.8c-2.1-0.6-5.1-1.3-7.5-1.8l1-1.8c2.7,0.3,6.4,1.1,8.4,1.8l-0.8,1.6l1.9-0.2v-3h-11.3v2.1c0,2.9-0.5,5.9-3,8
		c-0.8-0.8-2.7-2.2-3.7-2.7c2.1-1.6,2.2-3.5,2.2-5.4v-3.8h19.9v8.1H165.1z M143.1,15.9H167v7.3h-23.9V15.9z M147.2,18.8h5.6v-1.1
		h-5.6V18.8z M147.2,21.5h5.6v-1.1h-5.6V21.5z M162.5,17.7h-5.7v1.1h5.7V17.7z M162.5,20.4h-5.7v1.1h5.7V20.4z"/>
	<path class="st1" d="M184.5,29c2.4-0.3,4.9-0.5,7.3-0.8v4c-6.5,0.8-13.7,1.6-18.8,2.1l-0.6-4.1c2.1-0.2,4.8-0.5,7.6-0.8v-2.9h-5.7
		v-3.7h5.7v-2.5h-6.5v-3.7h4.1c-0.6-1.1-1.6-2.5-2.4-3.7l1.9-1.1h-4.8V8.3h5.3V6.4l-1.9,1.4c-0.5-1.3-1.9-3.2-3.2-4.6l2.7-1.8
		c0.8,0.8,1.6,1.9,2.4,2.9V0.2h3.5v8.1h1.8V0.2h3.7v4.5c0.8-1,1.6-2.1,2.1-3l3.5,1.9c-1.6,1.6-3.2,3.3-4.3,4.5l-1.3-0.8v1.1h4.9v3.8
		h-4.9l2.5,1c-0.6,1.3-1.4,2.5-2.1,3.8h3.3v3.7h-6.2v2.5h5.7v3.7h-5.7V29H184.5z M179.2,11.9c1,1.1,1.9,2.4,2.2,3.3l-2.2,1.3h4.1
		c0.8-1.3,1.6-3.2,2.1-4.8h-6.2V11.9z M207.4,14h-2.9v16.7c0,2.4-0.5,3.5-1.9,4.1c-1.3,0.8-3.3,1-6.4,1c-0.2-1.1-1-3.2-1.6-4.3
		c1.9,0,3.8,0,4.5,0c0.6,0,1-0.2,1-0.8V14h-8.3V9.7h8.3V0.2h4.5v9.6h2.9V14z M195.2,25.9c-0.2-2.2-1.4-5.9-2.7-8.6l3.8-1.3
		c1.4,2.7,2.7,6.2,3,8.4L195.2,25.9z"/>
	<path class="st1" d="M227,5.4l3.2,1c-1.8,15.4-7.3,24.8-15.8,29.3c-0.8-1.1-2.7-3-3.8-3.8c4.3-2.1,7.8-5.3,10.3-9.7
		c-1.3-1.6-3.2-3.7-4.9-5.4c-0.6,1.1-1.3,2.1-1.9,2.9c-0.8-0.8-2.9-2.2-3.8-2.9c3.3-3.8,5.6-10.2,6.7-16.7l4.6,0.8
		c-0.3,1.6-0.8,3.2-1.1,4.8h5.7L227,5.4z M219,9.9c-0.3,1-0.6,1.9-1.1,2.9c1.6,1.4,3.5,3.2,4.9,4.8c0.8-2.2,1.4-4.8,1.9-7.6H219z
		 M242.7,23.2c-1.3-1.9-3.8-4.6-6.2-7.2v19.6h-4.8V0h4.8v12.7l1.8-1.3c2.7,2.5,6.5,6.4,8.3,8.6L242.7,23.2z"/>
	<path class="st1" d="M283.7,5.4v4.3h-20.4c-1.3,2.7-2.7,5.3-4.5,7.5v18.5h-4.6V22.3c-1.1,1-2.1,1.9-3.3,2.7
		c-0.5-1.3-1.6-3.3-2.2-4.5c4-2.5,7.2-6.7,9.6-11h-8.3V5.4h10.3c0.6-1.8,1.3-3.5,1.8-5.3l4.8,1.1c-0.5,1.4-1,2.9-1.4,4.1H283.7z
		 M274.4,30.6h9.1v4.1h-22.9v-4.1h9.2v-8.8H262v-4.1h7.8v-6.4h4.6v6.4h7.6v4.1h-7.6V30.6z"/>
	<path class="st1" d="M35.3,84.5c-1.4,0.8-3,1.6-4.5,2.1c1.6,1.1,3.3,1.9,5.4,2.5c-1,0.8-2.1,2.4-2.7,3.5
		c-5.1-1.8-8.4-5.3-10.3-10.2c-1.1,1-2.4,1.8-3.7,2.5v3.3l5.4-1c-0.2,1-0.2,2.5,0,3.3c-7,1.6-8.3,1.9-9.1,2.4c-0.2-1-1-2.4-1.4-3
		c0.6-0.3,1.6-1.1,1.6-2.5v-0.3C15,87.7,14,88,12.9,88.3c-0.5-0.8-1.1-1.8-1.8-2.4v0.3c-3.5,1-7.3,1.9-10.3,2.9L0,84.8
		c1.1-0.2,2.4-0.5,3.8-1v-9.4h-3v-4h3v-7.2H0.6v-4H11v4H7.8v7.2h2.9v4h-3v8.4l2.9-0.8l0.3,2.5c2.7-0.8,5.6-1.8,7.8-3h-4.3v-8.4h19.1
		v8.4h-6.4c0.5,1,1,1.9,1.6,2.5c1.4-0.8,2.9-1.8,3.8-2.5L35.3,84.5z M35.5,72.1H12.1v-3.7h23.4V72.1z M34.4,67.3H13.5v-8.6h20.9
		V67.3z M19.6,61.6h-2.4v2.5h2.4V61.6z M18.3,78.6H29v-2.1H18.3C18.3,76.6,18.3,78.6,18.3,78.6z M25,61.6h-2.4v2.5H25V61.6z
		 M30.4,61.6h-2.5v2.5h2.5V61.6z"/>
	<path class="st1" d="M51.6,83.9c-4,1.6-8.3,3.3-11.8,4.8L38.4,84c1.3-0.3,2.7-0.8,4.5-1.4V70.8h-3.7v-4.3h3.7v-8.6h4.5v8.6h3.2v4.3
		h-3.2V81c1.1-0.5,2.4-0.8,3.5-1.3L51.6,83.9z M69.1,89c0.3,0,0.6,0,0.8,0c0.2,0,0.3-0.3,0.5-0.8c0-0.5,0.2-1.4,0.2-2.9
		c0.8,0.8,2.4,1.4,3.5,1.9c-0.2,1.4-0.3,2.9-0.6,3.7c-0.3,0.6-1,1.1-1.6,1.4c-0.6,0.2-1.6,0.3-2.4,0.3H67c-1,0-2.2-0.3-2.9-1
		C63.4,91,63,90.3,63,87.9v-4.6h-2.7c-0.6,5.1-2.5,8.1-9.7,10c-0.3-1-1.4-2.7-2.4-3.5c5.9-1.1,7.3-3,7.8-6.5h-3.2V71.6h18.3v11.5h-4
		v4.8c0,0.5,0,0.8,0.2,1C67.5,89,67.6,89,68,89C68,89,69.1,89,69.1,89z M73.1,70.4H51.4v-3.8H56c-0.2-0.8-0.5-1.8-0.8-2.5l3.7-0.8
		c0.5,1,1,2.2,1.1,3.2h4.3c0.5-1.1,0.8-2.2,1.1-3.2l4.1,0.8c-0.5,1-0.8,1.8-1.3,2.5h4.8V70.4z M72.1,63.4H52.5v-3.7h7.6
		c-0.2-0.6-0.5-1.3-0.6-1.8l4.3-0.8c0.3,0.8,0.8,1.8,1,2.5h7.3C72.1,59.7,72.1,63.4,72.1,63.4z M57.1,76.1h9.7v-1.6h-9.7V76.1z
		 M57.1,80.4h9.7v-1.6h-9.7V80.4z"/>
	<path class="st1" d="M89,58.9c-1,2.7-2.2,5.3-3.7,7.8V93H81V73.5c-0.8,1.1-1.8,2.1-2.5,3c-0.5-1.1-1.6-3.7-2.4-4.8
		c3.5-3.5,6.7-8.9,8.6-14.3L89,58.9z M96.6,79.9c-0.3,0.5-0.6,1-1.1,1.4h16.2c0,0,0,1-0.2,1.6c-0.6,5.4-1.3,8-2.2,8.9
		c-0.6,0.8-1.4,1-2.4,1.1c-0.8,0-2.2,0.2-3.7,0c0-1-0.3-2.4-1-3.2c-1.1,1.4-2.4,2.5-3.7,3.5c-0.6-0.6-2.1-1.8-3-2.2
		c2.4-1.6,4.6-4,6-6.5h-2.4c-2.1,3.3-5.4,6.2-8.3,8.3c-0.6-0.6-1.9-1.9-2.9-2.4c2.5-1.4,5.1-3.5,6.8-5.7h-2.5
		c-1.3,1.1-2.5,2.2-3.8,3C88,87.1,86.8,85.6,86,85c2.2-1.1,4.6-3,6.2-4.9h-5.3v-3.3h25.8v3.3H96.6V79.9z M91.5,67.6
		c-0.5,0.8-1.1,1.4-1.6,1.9c-0.8-0.6-2.4-2.1-3.3-2.7c2.4-2.4,4.6-6,6-9.6l4,1.1c-0.3,0.6-0.5,1.3-0.8,1.9h16.2v3.3h-18
		c-0.3,0.5-0.6,1-1,1.4H109v10.2H91.5V67.6z M95.7,69.1h9.2v-1.4h-9.2C95.7,67.6,95.7,69.1,95.7,69.1z M95.7,72.9h9.2v-1.4h-9.2
		C95.7,71.5,95.7,72.9,95.7,72.9z M105.9,84.5c-1,1.9-2.1,3.7-3.3,5.1c1.1,0.2,2.1,0.2,2.5,0.2c0.5,0,0.8,0,1.1-0.3
		c0.5-0.5,1-1.9,1.4-4.9H105.9z"/>
	<path class="st1" d="M149.9,76.9v3.7h-34.1v-3.7h14.8v-1.6h-11.1v-3.3h11.1v-1.3c-3.8,0.2-7.6,0.2-11.1,0.2c0-0.6-0.2-1.6-0.5-2.2
		h-2.4v-7.8H131c-0.5-0.8-0.8-1.8-1.3-2.4l4.3-1.3c0.6,1.1,1.4,2.5,2.1,3.7h12.7v7.6h-2.7l0.5,0.5c-3.3,0.6-7.5,1.1-11.8,1.4v1.6
		h11.6v3.3h-11.6v1.6H149.9z M121.3,82h23.9v11.1h-4.6v-1h-15v1.1h-4.3V82z M121.3,67.6c3,0,6.4-0.2,9.6-0.3v-2.4h4.3V67
		c3.5-0.2,6.8-0.6,9.2-1l0.2,0.2v-1.8h-23.2V67.6z M125.6,85.5v2.9h15v-2.9H125.6z"/>
	<path class="st1" d="M188,63.2c0,0,0,1.6,0,2.1c-0.5,17-1,23.1-2.5,25.1c-1.1,1.4-2.1,1.9-3.7,2.1c-1.4,0.2-3.8,0.2-6,0
		c0-1.3-0.6-3.2-1.4-4.5c2.4,0.2,4.8,0.2,5.7,0.2c0.8,0,1.1-0.2,1.8-0.6c1.1-1.3,1.6-7,2.1-20.4h-8.1c-1,2.2-2.2,4.5-3.3,6
		c-0.6-0.6-1.9-1.4-2.9-2.1v18h-10.2V92h-4.1V63.5h4.3c0.5-1.9,1-4.3,1.1-6.2l4.9,0.6c-0.6,1.9-1.3,3.8-1.9,5.4h5.9v6.2
		c2.2-3.2,4-7.8,5.1-12.3l4.3,1c-0.5,1.6-1,3.2-1.4,4.8H188V63.2z M165.1,67.5h-6v6.2h6V67.5z M165.1,85.2v-7.5h-6v7.5H165.1z
		 M177.8,83.1c-1.1-2.2-3.5-6-5.3-8.8l3.5-2.1c1.9,2.7,4.5,6.2,5.6,8.4L177.8,83.1z"/>
	<path class="st1" d="M204.2,58.9c-1,2.7-2.2,5.4-3.8,8v26.3h-4.3V73.4c-1,1.1-1.8,2.1-2.7,3c-0.5-1.1-1.8-3.5-2.4-4.6
		c3.5-3.5,7-8.9,9.1-14.3L204.2,58.9z M210.9,82.1c-1.6,3.3-3.8,7-5.9,9.4c-0.8-0.6-2.5-1.9-3.5-2.4c1.9-2.1,4-5.3,5.3-8.1
		L210.9,82.1z M217,79.6V93h-4.6V79.6h-10v-4.1h10v-3.3h-7.5V58.9h20.1v13.2h-8v3.3h9.9v4.1H217z M209.2,68.1h11.1V63h-11.1V68.1z
		 M221.6,80.9c2.2,2.5,4.5,5.7,5.6,8.1l-3.7,2.2c-1-2.2-3.3-5.7-5.4-8.4L221.6,80.9z"/>
	<path class="st1" d="M243.9,67.3h-14.2v-3.7h6.4c-0.6-1.4-1.6-3.3-2.4-4.8l3.3-1.6c1,1.6,2.2,3.7,2.9,5.1l-2.5,1.4h6.5L243.9,67.3
		L243.9,67.3z M263.9,82.5c-1.3,2.2-3,4.1-5.3,5.7c2.1,0.6,4.6,1,7,1.3c-1,1-1.9,2.5-2.5,3.7c-3.3-0.5-6.4-1.3-8.9-2.5
		c-2.9,1.3-6.2,2.1-9.7,2.5c-0.3-1-1.1-2.5-1.9-3.5V91h-7.8v1.6h-3.7V79.4h11.5v10.2c2.7-0.3,5.4-0.8,7.6-1.6c-1.1-1-2.1-1.9-3-3.2
		l1.4-0.5h-4.1v-3h15.9l0.6-0.2L263.9,82.5z M249.1,62.6h-5.3v-3.3h5.3v-1.9h4v7h-3.2l1,0.3c-0.2,0.6-0.5,1.1-0.8,1.8h3.3
		c-0.2-0.6-0.3-1.3-0.6-1.8l3.2-0.8v-6.5h4v1.9h5.1v3.3h-5.1v1.9h-2.9c0.3,0.6,0.5,1.3,0.6,1.9h6.2v2.7h-6.5v1.3h5.6v2.2h-5.6v1.3
		h5.6v2.2h-5.6v1.4h7.3v2.7h-15.1v0.6h-3.8v-7.8c-0.5,0.5-1,1-1.3,1.4c-0.3-0.8-1.4-2.4-2.1-3.2v1.1h-11.3v-3.5h11.3v1.9
		c1.9-1.9,3.7-4.6,4.6-7.3l2.1,0.6V62.6z M231.3,74.2h11.3v3.5h-11.3V74.2z M238.9,83.1h-4v4.3h4V83.1z M253.7,69.1h-4v1.3h4V69.1z
		 M253.7,72.6h-4v1.3h4V72.6z M253.7,76.2h-4v1.4h4V76.2z M251.7,84.4c0.8,0.8,1.8,1.4,2.9,2.1c1.1-0.6,2.2-1.3,3.2-2.1H251.7z"/>
	<path class="st1" d="M301.5,65.3c0,0,0,1.6-0.2,2.2c-0.8,15.3-1.6,21-3.2,22.9c-1.1,1.4-2.2,1.9-3.8,2.1c-1.4,0.2-3.8,0.2-6,0
		c0-1.4-0.6-3.3-1.6-4.8c2.4,0.2,4.6,0.2,5.7,0.2c0.8,0,1.3-0.2,1.8-0.6c1.1-1.1,1.9-6.2,2.5-17.5H286c-0.6,8-3.3,17.2-14,23.2
		c-0.8-1.1-2.4-2.9-3.5-3.7c9.6-5.1,12.1-12.9,12.7-19.6h-11.5v-4.5h11.6v-7.8h4.8v7.8H301.5z"/>
</g>
</svg>
