<svg id="text-feature-02.svg" xmlns="http://www.w3.org/2000/svg" width="174.719" height="66.94" viewBox="0 0 174.719 66.94">
  <defs>
    <style>
      .cls-1 {
        fill: #1147b4;
      }

      .cls-1, .cls-2, .cls-3 {
        fill-rule: evenodd;
      }

      .cls-2, .cls-3 {
        fill: none;
        stroke: #1147b4;
      }

      .cls-2 {
        stroke-width: 1px;
      }

      .cls-3 {
        stroke-linecap: round;
        stroke-width: 2px;
        stroke-dasharray: 0.001 4;
      }
    </style>
  </defs>
  <path id="過酷な環境でも強い_" data-name="過酷な環境でも強い！" class="cls-1" d="M496.8,1594.28c-0.825,0-1.065-.03-1.17-0.03-0.15,0-.165.01-0.165,0.18,0,0.09.03,0.34,0.03,0.99v0.97c0,0.63-.03.89-0.03,0.99,0,0.15.015,0.17,0.165,0.17,0.105,0,.345-0.03,1.17-0.03h1.156c0.72,0,.99.03,1.125,0.03a3.849,3.849,0,0,1,.165.72c0.045,0.33.06,0.31,0.51,0.31a2.262,2.262,0,0,0,1.621-.34,1.262,1.262,0,0,0,.345-1.05c0-.62-0.03-1.1-0.03-2.36v-0.94c0-.92.03-1.37,0.03-1.46,0-.15-0.015-0.16-0.165-0.16-0.06,0-.285.01-0.75,0.03v-2.85c0-.93.03-1.41,0.03-1.5,0-.15-0.015-0.17-0.166-0.17-0.1,0-.54.03-1.815,0.03h-2.836c-1.275,0-1.725-.03-1.815-0.03-0.165,0-.18.02-0.18,0.17,0,0.1.03,0.57,0.03,1.5v2.85c-0.51-.02-0.736-0.03-0.781-0.03-0.165,0-.18.01-0.18,0.16,0,0.09.03,0.54,0.03,1.53v2.79c0,1.14-.03,1.55-0.03,1.65,0,0.15.015,0.17,0.18,0.17h1.171c0.15,0,.165-0.02.165-0.17,0-.09-0.03-0.52-0.03-1.63v-3.32h5.686v3.32a0.349,0.349,0,0,1-.39.43c-0.225,0-.375,0-0.585-0.01-0.015-.17-0.015-0.41-0.015-0.8v-0.97c0-.65.03-0.9,0.03-0.99,0-.17-0.015-0.18-0.165-0.18-0.105,0-.345.03-1.185,0.03H496.8Zm2.6-5.22v0.9h-1.5c-0.69,0-1.021-.03-1.126-0.03-0.15,0-.165.01-0.165,0.16,0,0.09.03,0.39,0.03,1.05v1.16h-1.155v-3.24H499.4Zm-1.425,3.24v-1.29H499.4v1.29h-1.425Zm-1.291,3h1.4v1.18h-1.4v-1.18Zm-4.606-.8c0-.93.03-1.36,0.03-1.45,0-.15-0.015-0.17-0.165-0.17-0.075,0-.3.03-1.08,0.03h-0.885c-0.781,0-.976-0.03-1.051-0.03-0.165,0-.18.02-0.18,0.17v1.14c0,0.16.015,0.18,0.18,0.18,0.075,0,.27-0.03,1.051-0.03h0.645v3.37a6.186,6.186,0,0,1-1.126.92,9.353,9.353,0,0,1-.9.48c0.21,0.54.375,0.93,0.585,1.35a0.3,0.3,0,0,0,.225.19,0.254,0.254,0,0,0,.21-0.13,1.159,1.159,0,0,1,.331-0.33c0.5-.39,1-0.81,1.455-1.23a3.2,3.2,0,0,0,1.56,1.29,10.178,10.178,0,0,0,3.511.45c1.561,0,3.346-.05,5.252-0.15,0.48-.03.48-0.03,0.555-0.51a2.274,2.274,0,0,1,.39-1.08c-2.251.22-4.5,0.3-6.437,0.3a9.349,9.349,0,0,1-2.82-.29,2.446,2.446,0,0,1-1.336-1.23v-3.24Zm0.03-4.21c0.165-.14.18-0.17,0.09-0.3a12.23,12.23,0,0,0-1.89-2.22,0.26,0.26,0,0,0-.15-0.08,0.384,0.384,0,0,0-.18.09l-0.781.56c-0.165.12-.2,0.15-0.075,0.25a10.847,10.847,0,0,1,1.846,2.34,0.185,0.185,0,0,0,.135.12,0.366,0.366,0,0,0,.18-0.1Zm14.025,10.59c0.15,0,.165-0.02.165-0.15v-0.84h3.136v0.55c0,0.15.015,0.17,0.165,0.17h0.9c0.15,0,.165-0.02.165-0.17,0-.09-0.03-0.73-0.03-4.06v-3.05c0-1.95.03-2.62,0.03-2.71,0-.15-0.015-0.17-0.165-0.17-0.105,0-.435.03-1.336,0.03v-1.42c1.186,0,1.591.03,1.666,0.03,0.15,0,.165-0.02.165-0.18v-1.04c0-.16-0.015-0.18-0.165-0.18-0.075,0-.48.03-1.7,0.03h-2.55c-1.216,0-1.621-.03-1.711-0.03-0.135,0-.15.02-0.15,0.18v1.04c0,0.16.015,0.18,0.15,0.18,0.09,0,.5-0.03,1.711-0.03h0.045v1.42c-0.975,0-1.321-.03-1.411-0.03-0.15,0-.165.02-0.165,0.17,0,0.1.03,0.81,0.03,3.22v2.58c0,3.53-.03,4.2-0.03,4.31,0,0.13.015,0.15,0.165,0.15h0.916Zm1.98-9.18v2.35a0.922,0.922,0,0,0,.3.84,1.183,1.183,0,0,0,.69.14h0.331v1.24H506.3v-1.24a3.36,3.36,0,0,1,.42.51,0.222,0.222,0,0,0,.15.13,0.257,0.257,0,0,0,.18-0.18,4.928,4.928,0,0,0,.555-2.16c0.015-.48.045-0.97,0.06-1.63h0.45Zm-1.815,6.91v-1.09h3.136v1.09H506.3Zm0-6.91h0.51c0,0.46-.015.87-0.03,1.18a4.4,4.4,0,0,1-.48,1.95v-3.13Zm3.136,0v2.14h-0.15a0.263,0.263,0,0,1-.271-0.1,1.159,1.159,0,0,1-.045-0.54v-1.5h0.466Zm-1.771-1.22v-1.42h0.45v1.42h-0.45Zm5.357,10.4c0.15,0,.165-0.02.165-0.15v-0.6h2.955v0.57c0,0.13.015,0.15,0.18,0.15h1.126c0.15,0,.165-0.02.165-0.15,0-.09-0.03-0.48-0.03-2.49v-1.34c0-.94.03-1.35,0.03-1.44,0-.15-0.015-0.16-0.165-0.16-0.105,0-.51.03-1.681,0.03h-2.19c-1.186,0-1.576-.03-1.681-0.03-0.15,0-.165.01-0.165,0.16,0,0.11.03,0.51,0.03,1.64v1.15c0,2.03-.03,2.4-0.03,2.51,0,0.13.015,0.15,0.165,0.15h1.126Zm0.165-4.22h2.955v2.1h-2.955v-2.1Zm3.12-2.46c1.321,0,1.771.03,1.876,0.03,0.135,0,.15-0.01.15-0.16v-1.1c0-.15-0.015-0.16-0.15-0.16-0.1,0-.555.03-1.876,0.03h-0.855v-1.8h0.78c1.156,0,1.531.03,1.636,0.03,0.15,0,.165-0.02.165-0.17v-1.05c0-.15-0.015-0.16-0.165-0.16-0.105,0-.48.03-1.636,0.03h-0.78v-0.36a4.528,4.528,0,0,1,.105-1.5,0.6,0.6,0,0,0,.075-0.3c0-.09-0.075-0.15-0.24-0.17a13.468,13.468,0,0,0-1.5-.1,13.12,13.12,0,0,1,.105,2.07v0.36h-0.915l0.135-.56a1.415,1.415,0,0,1,.195-0.58,0.488,0.488,0,0,0,.09-0.24,0.263,0.263,0,0,0-.225-0.23c-0.285-.09-0.856-0.22-1.276-0.3a7.429,7.429,0,0,1-.12.99,8.713,8.713,0,0,1-1.17,2.94,3.255,3.255,0,0,1,.885.44,0.772,0.772,0,0,0,.315.18,0.491,0.491,0,0,0,.27-0.33c0.15-.32.315-0.65,0.45-0.99h1.366v1.8h-0.915c-1.321,0-1.771-.03-1.861-0.03-0.165,0-.18.01-0.18,0.16v1.1c0,0.15.015,0.16,0.18,0.16,0.09,0,.54-0.03,1.861-0.03H516.3Zm11.67,2.27a7.15,7.15,0,0,0-1.186-.09c-1.7,0-2.775.88-2.775,2.19,0,1.29,1.11,2.13,2.76,2.13,1.711,0,2.791-.69,2.791-2.19a11.2,11.2,0,0,1,1.831,1.26,0.234,0.234,0,0,0,.15.09,0.168,0.168,0,0,0,.135-0.11,9.158,9.158,0,0,0,.69-1.21,0.2,0.2,0,0,0-.09-0.32,11.563,11.563,0,0,0-2.7-1.39,19.644,19.644,0,0,1-.165-2.55,1.574,1.574,0,0,1,.06-0.62,1.9,1.9,0,0,0,.09-0.31,0.227,0.227,0,0,0-.21-0.24,8.438,8.438,0,0,0-1.635-.29,5.276,5.276,0,0,1,.12,1.07C527.854,1594.59,527.884,1595.51,527.974,1596.47Zm0.03,1.42a1.758,1.758,0,0,1,.015.3,1.13,1.13,0,0,1-1.306,1.07c-0.855,0-1.275-.24-1.275-0.72a1.106,1.106,0,0,1,1.335-.87A3.832,3.832,0,0,1,528,1597.89Zm-2.446-7.69c0.135-.45.255-0.92,0.36-1.28a1.611,1.611,0,0,1,.24-0.55,0.379,0.379,0,0,0,.135-0.29,0.256,0.256,0,0,0-.24-0.22,12.97,12.97,0,0,0-1.755-.32,5.851,5.851,0,0,1-.09,1.22c-0.105.54-.21,1.05-0.39,1.68-0.691.06-1.141,0.07-1.726,0.07-0.435,0-.78-0.01-1.395-0.06a7.909,7.909,0,0,0,.15,1.28c0.03,0.19.06,0.24,0.21,0.24,0.375,0.01.5,0.01,0.825,0.01,0.465,0,.93,0,1.5-0.03a30.3,30.3,0,0,1-2.595,5.24,0.268,0.268,0,0,0-.075.18,0.2,0.2,0,0,0,.105.16,7.138,7.138,0,0,0,1.035.77,0.463,0.463,0,0,0,.18.07,0.208,0.208,0,0,0,.165-0.15,41.59,41.59,0,0,0,2.926-6.43c0.93-.14,1.665-0.24,2.476-0.41a0.155,0.155,0,0,0,.18-0.18,8,8,0,0,0-.135-1.21c-0.03-.17-0.09-0.17-0.225-0.12A17.332,17.332,0,0,1,525.558,1590.2Zm3.331,1.42a13.163,13.163,0,0,1,3.106,1.64,0.239,0.239,0,0,0,.135.06,0.168,0.168,0,0,0,.135-0.11,8.762,8.762,0,0,0,.63-1.11,0.331,0.331,0,0,0,.06-0.18,0.217,0.217,0,0,0-.135-0.16,11.709,11.709,0,0,0-2.941-1.41,0.208,0.208,0,0,0-.315.1C529.369,1590.72,529.144,1591.17,528.889,1591.62Zm13.664,2.06c-1.41,0-1.89-.02-1.98-0.02-0.165,0-.18,0-0.18.15,0,0.11.03,0.33,0.03,0.96v0.89c0,0.63-.03.85-0.03,0.96,0,0.13.015,0.15,0.18,0.15,0.09,0,.555-0.03,1.92-0.03a12.616,12.616,0,0,1-4.4,2.58,4.093,4.093,0,0,1,.675.81,0.521,0.521,0,0,0,.33.36,0.891,0.891,0,0,0,.345-0.14,12.022,12.022,0,0,0,3.676-2.56c-0.015,2.01-.06,2.8-0.06,3.1,0,0.15.015,0.17,0.166,0.17h1.2c0.135,0,.15-0.02.15-0.17,0-.31-0.045-1.09-0.075-3.15a9.257,9.257,0,0,0,3.616,2.69,1.216,1.216,0,0,0,.36.12c0.12,0,.165-0.11.285-0.39a4.641,4.641,0,0,1,.615-0.9,9.86,9.86,0,0,1-2.16-.83,11.953,11.953,0,0,0,1.245-1.05,1.5,1.5,0,0,1,.315-0.22,0.187,0.187,0,0,0,.045-0.36l-0.87-.5v-1.53c0-.63.03-0.87,0.03-0.96,0-.15-0.015-0.15-0.165-0.15-0.09,0-.555.02-1.906,0.02h-3.361Zm4.021,2.04h-4.786v-0.95h4.786v0.95Zm-0.66,1.02c0.675,0,1.126.01,1.411,0.01a11.265,11.265,0,0,1-1.126,1.07,8.976,8.976,0,0,1-1.23-1.08h0.945Zm-3.676-8.96c-1.41,0-1.92-.03-2.01-0.03-0.15,0-.165.02-0.165,0.17,0,0.1.03,0.34,0.03,1v1.05c0,0.66-.03.89-0.03,0.98,0,0.16.015,0.18,0.165,0.18,0.09,0,.6-0.03,2.07-0.03h3.886c1.411,0,1.906.03,2.011,0.03,0.15,0,.165-0.02.165-0.18,0-.09-0.03-0.32-0.03-0.98v-1.05c0-.66.03-0.91,0.03-1,0-.15-0.015-0.17-0.165-0.17-0.105,0-.6.03-2.011,0.03h-3.946Zm4.847,2.25h-1.2v-1.17h1.2v1.17Zm-3.5-1.17h1.185v1.17h-1.185v-1.17Zm-2.251,1.17v-1.17h1.17v1.17h-1.17Zm-3.091,3.39c0.675,0.02.9,0.03,0.99,0.03,0.15,0,.165-0.01.165-0.16v-1.08c0-.11-0.015-0.15-0.165-0.15-0.09,0-.315.03-0.99,0.03v-2.61c0.855,0,1.125.03,1.216,0.03,0.15,0,.165-0.02.165-0.18v-1.05c0-.15-0.015-0.17-0.165-0.17-0.091,0-.361.03-1.306,0.03h-1.35c-0.945,0-1.216-.03-1.306-0.03-0.15,0-.165.02-0.165,0.17v1.05c0,0.16.015,0.18,0.165,0.18,0.09,0,.361-0.03,1.291-0.03h0.03v2.61c-0.825,0-1.066-.03-1.156-0.03-0.135,0-.15.01-0.15,0.15v1.08c0,0.15.015,0.16,0.15,0.16,0.09,0,.331-0.03,1.156-0.03v3.26l-0.21.07a9.1,9.1,0,0,1-1.441.39c0.135,0.59.225,0.99,0.36,1.4a0.221,0.221,0,0,0,.21.19,0.454,0.454,0,0,0,.241-0.12,1.774,1.774,0,0,1,.465-0.24,25.043,25.043,0,0,0,2.955-1.27c0.421-.23.421-0.23,0.361-0.71a5.457,5.457,0,0,1-.045-0.97c-0.526.27-1.006,0.49-1.471,0.7v-2.7Zm8.387-.42c1.456,0,1.951.03,2.056,0.03,0.15,0,.165-0.01.165-0.16v-0.98c0-.15-0.015-0.16-0.165-0.16-0.105,0-.6.03-2.056,0.03h-4.651c-1.455,0-1.935-.03-2.025-0.03-0.15,0-.165.01-0.165,0.16v0.98c0,0.15.015,0.16,0.165,0.16,0.09,0,.57-0.03,2.025-0.03h4.651Zm15.135,4.44c1.306,0,1.756.03,1.861,0.03,0.15,0,.165-0.01.165-0.18,0-.09-0.03-0.43-0.03-1.24v-1.83c0-.81.03-1.16,0.03-1.26,0-.15-0.015-0.17-0.165-0.17-0.105,0-.555.03-1.906,0.03h-3.256c-1.35,0-1.815-.03-1.92-0.03-0.15,0-.165.02-0.165,0.17,0,0.1.03,0.45,0.03,1.26v1.83c0,0.81-.03,1.15-0.03,1.24,0,0.17.015,0.18,0.165,0.18,0.075,0,.4-0.01,1.23-0.03-0.285,1.53-1.455,2.09-3.616,2.43a2.716,2.716,0,0,1,.7.87c0.15,0.27.2,0.36,0.345,0.36a1.324,1.324,0,0,0,.361-0.06c2.265-.57,3.3-1.57,3.721-3.6h1v2.12a0.989,0.989,0,0,0,.5,1.08,4.392,4.392,0,0,0,1.755.21,2.573,2.573,0,0,0,1.816-.42,2.247,2.247,0,0,0,.6-1.65c0.045-.39.045-0.39-0.33-0.51a5.281,5.281,0,0,1-.99-0.41c-0.015.99-.045,1.22-0.24,1.4a1.029,1.029,0,0,1-.766.18,2.117,2.117,0,0,1-.705-0.06,0.41,0.41,0,0,1-.165-0.44v-1.5Zm0.555-1.05h-4.5v-0.78h4.5v0.78Zm-4.5-2.52h4.5v0.77h-4.5v-0.77Zm4.876-1.74c1.471,0,1.966.03,2.041,0.03,0.15,0,.165-0.01.165-0.16v-0.92c0-.15-0.015-0.16-0.165-0.16-0.075,0-.57.03-2.041,0.03h-0.42c0.165-.3.3-0.62,0.466-0.96a0.425,0.425,0,0,1,.18-0.24c0.78,0.01,1.1.03,1.17,0.03,0.15,0,.165-0.02.165-0.17v-0.87c0-.15-0.015-0.16-0.165-0.16-0.09,0-.585.03-1.981,0.03h-1.425v-0.17a1.66,1.66,0,0,1,.075-0.66,0.563,0.563,0,0,0,.09-0.25,0.256,0.256,0,0,0-.24-0.14c-0.465-.04-0.945-0.07-1.47-0.09a5.312,5.312,0,0,1,.105,1.17v0.14H558.2c-1.41,0-1.89-.03-1.98-0.03-0.165,0-.18.01-0.18,0.16v0.87c0,0.15.015,0.17,0.18,0.17,0.06,0,.345-0.02,1.02-0.03a7.591,7.591,0,0,1,.51,1.2c-1.29,0-1.785-.03-1.86-0.03-0.135,0-.15.01-0.15,0.16V1592c0,0.15.015,0.16,0.15,0.16,0.09,0,.6-0.03,2.055-0.03H562.7Zm-1.365-2.38a8.56,8.56,0,0,1-.48,1.2h-1.71a9.328,9.328,0,0,0-.451-1.2h2.641Zm-7.1,2.83c0.705,0.02.96,0.03,1.05,0.03,0.151,0,.166-0.01.166-0.16v-1.14c0-.15-0.015-0.17-0.166-0.17-0.09,0-.345.03-1.05,0.03v-1.36a5.993,5.993,0,0,1,.105-1.68,1.14,1.14,0,0,0,.06-0.3,0.2,0.2,0,0,0-.21-0.17,14.837,14.837,0,0,0-1.53-.1,16.132,16.132,0,0,1,.12,2.28v1.33h-0.06c-0.93,0-1.216-.03-1.306-0.03-0.135,0-.15.02-0.15,0.17v1.14c0,0.15.015,0.16,0.15,0.16,0.09,0,.376-0.03,1.306-0.03h0.06v4.25l-0.21.07a8.1,8.1,0,0,1-1.486.36,11.654,11.654,0,0,0,.42,1.34,0.233,0.233,0,0,0,.211.18,0.447,0.447,0,0,0,.255-0.12,1.933,1.933,0,0,1,.5-0.23,24.768,24.768,0,0,0,2.881-1.21c0.435-.21.45-0.21,0.405-0.71a4.815,4.815,0,0,1,0-.93c-0.541.29-1.036,0.51-1.516,0.72v-3.72Zm20.117-1.74a5.439,5.439,0,0,0-2.881,4.76c0,3.12,2.9,4.63,5.536,4.63,0.18,0,.24-0.09.285-0.31a5.368,5.368,0,0,0,.165-1.29c0-.17-0.09-0.23-0.33-0.23-2.61-.16-3.991-1.21-3.991-3.15,0-1.8,1.276-3.55,3.826-4.42a6.517,6.517,0,0,1,1.831-.33c0.2,0,.285-0.05.285-0.23a8.649,8.649,0,0,0-.165-1.32c-0.015-.1-0.09-0.19-0.315-0.16-3.871.51-7.172,1-9.018,1.27a19.811,19.811,0,0,1-2.385.26,10.644,10.644,0,0,0,.555,1.62,0.353,0.353,0,0,0,.285.22,0.8,0.8,0,0,0,.33-0.12c0.225-.07.375-0.1,0.945-0.24,1.606-.33,3.211-0.64,5.042-0.99v0.03Zm2.175,2.15a7.469,7.469,0,0,1,1.516,1.74,0.156,0.156,0,0,0,.255.04l0.63-.46a0.152,0.152,0,0,0,.045-0.24,6.815,6.815,0,0,0-1.426-1.61,0.158,0.158,0,0,0-.225-0.03Zm1.381-.99a7.168,7.168,0,0,1,1.5,1.72,0.155,0.155,0,0,0,.255.05l0.6-.47a0.173,0.173,0,0,0,.045-0.27,6.335,6.335,0,0,0-1.425-1.54,0.149,0.149,0,0,0-.225-0.03Zm8.848,3.91a21.918,21.918,0,0,0,2.3-.04c0.15,0,.2-0.06.21-0.24a10.274,10.274,0,0,0,.075-1.13c0-.13-0.045-0.19-0.24-0.16-0.72.04-1.336,0.06-2.131,0.04,0.09-.6.24-1.62,0.33-2.14a14.8,14.8,0,0,0,2-.08c0.18-.01.24-0.06,0.24-0.22a7.081,7.081,0,0,0,.03-1.13,0.154,0.154,0,0,0-.15-0.18,8.25,8.25,0,0,1-1.846.09c0.075-.55.165-1.06,0.24-1.41a1.453,1.453,0,0,1,.271-0.64,0.441,0.441,0,0,0,.12-0.29,0.416,0.416,0,0,0-.331-0.34,8.587,8.587,0,0,0-1.8-.42,7.048,7.048,0,0,1,.015,1.26c-0.03.45-.075,0.85-0.195,1.72a11.938,11.938,0,0,1-2.716-.57c0,0.54.03,1.04,0.045,1.4a0.242,0.242,0,0,0,.24.25,9.865,9.865,0,0,0,2.161.42c-0.06.62-.18,1.59-0.255,2.15a9.4,9.4,0,0,1-2.431-.59,8.731,8.731,0,0,0,.03,1.4,0.251,0.251,0,0,0,.165.28,11.377,11.377,0,0,0,2.041.45c-0.06.68-.105,1.1-0.105,1.41,0,2.19,1.125,3.39,3.781,3.39,2.58,0,4.321-1.38,4.321-3.51a3.91,3.91,0,0,0-1.275-2.82,0.358,0.358,0,0,0-.315-0.06,4.653,4.653,0,0,1-1.531.09,3.611,3.611,0,0,1,1.35,2.73c0,1.35-.975,2.03-2.73,2.03-1.4,0-2-.54-2-1.92A9.357,9.357,0,0,1,586.758,1595.91Zm20.612,2.46-1.621.23v-1.67h1.021c1.35,0,1.83.03,1.92,0.03,0.15,0,.165-0.01.165-0.16,0-.09-0.03-0.42-0.03-1.2v-1.59c0-.78.03-1.11,0.03-1.2,0-.15-0.015-0.17-0.165-0.17-0.09,0-.57.03-1.92,0.03h-1.021v-1.39c0.736-.06,1.426-0.14,2.041-0.21,0.165,0.27.315,0.54,0.465,0.81a0.164,0.164,0,0,0,.135.13,0.464,0.464,0,0,0,.18-0.09l0.9-.54c0.18-.12.165-0.16,0.09-0.3a22.361,22.361,0,0,0-2.385-2.88c-0.1-.1-0.15-0.1-0.3-0.01l-0.75.43c-0.166.09-.181,0.14-0.075,0.24a11.958,11.958,0,0,1,.915,1.07c-0.93.07-2.041,0.16-3.151,0.21,0.33-.57.675-1.23,0.915-1.73a1.27,1.27,0,0,1,.285-0.42,0.342,0.342,0,0,0,.15-0.27,0.263,0.263,0,0,0-.225-0.22,9.867,9.867,0,0,0-1.455-.27,4.118,4.118,0,0,1-.285,1.02,13.511,13.511,0,0,1-.931,1.93c-0.375,0-.8.02-1.185-0.01,0.045,0.43.12,0.93,0.2,1.33a0.241,0.241,0,0,0,.21.24,0.453,0.453,0,0,0,.24-0.07,1.307,1.307,0,0,1,.555-0.12c0.646-.03,1.336-0.08,2.056-0.14v1.26h-0.87c-1.336,0-1.816-.03-1.921-0.03-0.15,0-.165.02-0.165,0.17,0,0.1.03,0.42,0.03,1.2v1.59c0,0.78-.03,1.09-0.03,1.2,0,0.15.015,0.16,0.165,0.16,0.105,0,.585-0.03,1.921-0.03h0.87v1.85c-0.69.09-1.35,0.15-1.89,0.18a14.663,14.663,0,0,1-1.741.03c0.09,0.49.18,1,.315,1.47a0.272,0.272,0,0,0,.255.24,0.61,0.61,0,0,0,.27-0.08,2.227,2.227,0,0,1,.63-0.16c1.831-.23,3.917-0.53,5.852-0.89,0.165,0.35.3,0.69,0.435,1.04,0.06,0.15.12,0.16,0.3,0.1l0.855-.39c0.166-.07.181-0.12,0.136-0.25a13.733,13.733,0,0,0-1.606-2.82c-0.075-.14-0.105-0.17-0.27-0.09l-0.765.33c-0.18.07-.21,0.12-0.135,0.24Zm0.045-2.68h-1.666v-1.77h1.666v1.77Zm-4.606,0v-1.77h1.53v1.77h-1.53Zm-4.952-1.49c0.075-.54.15-1.12,0.21-1.75h1.321c0.69,0,.945.03,1.035,0.03,0.165,0,.18-0.02.18-0.17,0-.09-0.03-0.49-0.03-1.35v-1.54c0-.87.03-1.26,0.03-1.35,0-.17-0.015-0.18-0.18-0.18-0.09,0-.345.03-1.035,0.03h-1.651c-0.93,0-1.2-.03-1.29-0.03-0.165,0-.18.01-0.18,0.18v1.08c0,0.15.015,0.16,0.18,0.16,0.09,0,.36-0.03,1.29-0.03h1.441v1.89h-1.321c-0.555,0-.9-0.03-0.99-0.03a0.162,0.162,0,0,0-.195.2,6.27,6.27,0,0,1-.045,1.06,28.2,28.2,0,0,1-.54,3.47c-0.045.21-.045,0.22,0.645,0.31,0.78,0.09.78,0.09,0.825-.09l0.105-.55H599.1c-0.135,2.32-.375,3.3-0.586,3.57a0.843,0.843,0,0,1-.675.22,8.385,8.385,0,0,1-1.32-.13,4.642,4.642,0,0,1,.345,1.11c0.09,0.46.09,0.46,0.405,0.49,0.27,0.02.525,0.02,0.72,0.02a1.721,1.721,0,0,0,1.906-.99,14.942,14.942,0,0,0,.645-4.41c0.015-.33.03-0.75,0.06-1.05a0.15,0.15,0,0,0-.18-0.2c-0.09,0-.27.03-0.96,0.03h-1.606Zm14.985-4.81a8.023,8.023,0,0,1,.18,1.96,27.3,27.3,0,0,0,.36,4.37c0.406,2.53,1.636,3.91,2.806,3.91,1.05,0,1.981-.81,2.551-2.34a0.451,0.451,0,0,0-.105-0.55,5.782,5.782,0,0,1-.96-1.16c-0.586,1.56-.961,2.09-1.441,2.09-0.63,0-1.02-1.02-1.23-2.21a18.891,18.891,0,0,1-.27-3.42,6.778,6.778,0,0,1,.135-1.47,1.306,1.306,0,0,0,.12-0.42,0.361,0.361,0,0,0-.24-0.27A6.67,6.67,0,0,0,612.842,1589.39Zm7.682,2.13a10.106,10.106,0,0,1,2.806,5.23,0.2,0.2,0,0,0,.315.17,5.551,5.551,0,0,0,1.171-.6,0.267,0.267,0,0,0,.165-0.33,9.888,9.888,0,0,0-2.941-5.13,0.231,0.231,0,0,0-.165-0.09,0.445,0.445,0,0,0-.165.06C621.47,1590.95,621.1,1591.16,620.524,1591.52Zm11.295-3.59h-2.341l0.421,8.93h1.515Zm-2.251,10.38v2.03H631.7v-2.03h-2.131Z" transform="translate(-472.781 -1586.06)"/>
  <path id="シェイプ_1375" data-name="シェイプ 1375" class="cls-2" d="M474.173,1586.56l7.4,14.8" transform="translate(-472.781 -1586.06)"/>
  <path id="シェイプ_1375-2" data-name="シェイプ 1375" class="cls-2" d="M647.008,1587.56l-7.469,14.47" transform="translate(-472.781 -1586.06)"/>
  <path id="高耐久技術" class="cls-1" d="M510.792,1632.59c0-2.04.056-3.02,0.056-3.19,0-.28-0.028-0.31-0.308-0.31-0.2,0-1.12.06-3.78,0.06H492.254c-2.66,0-3.584-.06-3.78-0.06-0.281,0-.309.03-0.309,0.31,0,0.17.056,1.01,0.056,2.97v5.43c0,2.16-.056,3-0.056,3.16,0,0.28.028,0.31,0.309,0.31h2.408c0.28,0,.308-0.03.308-0.31,0-.14-0.056-1.09-0.056-3.16v-6.27H507.88v6.13a0.637,0.637,0,0,1-.7.78,14.291,14.291,0,0,1-1.792-.11,6.594,6.594,0,0,1,.588,1.85c0.14,0.81.168,0.87,1.036,0.87,2.016,0,2.66-.14,3.164-0.59a2.576,2.576,0,0,0,.672-2.02c0-.86-0.056-2.04-0.056-3.55v-2.3Zm-14.646-10.7c-2.548,0-3.444-.05-3.612-0.05-0.28,0-.308.03-0.308,0.31,0,0.19.056,0.61,0.056,1.82v1.7c0,1.15-.056,1.6-0.056,1.77,0,0.28.028,0.31,0.308,0.31,0.168,0,1.064-.06,3.612-0.06H502.9c2.549,0,3.445.06,3.613,0.06,0.28,0,.308-0.03.308-0.31,0-.17-0.056-0.62-0.056-1.77v-1.7c0-1.21.056-1.63,0.056-1.82,0-.28-0.028-0.31-0.308-0.31-0.168,0-1.064.05-3.613,0.05h-6.749Zm7.869,3.84H495v-1.85h9.017v1.85Zm3.949-5.21c2.52,0,3.388.06,3.556,0.06,0.28,0,.308-0.03.308-0.31v-1.96c0-.28-0.028-0.31-0.308-0.31-0.168,0-1.036.06-3.556,0.06H500.8v-0.09a5.538,5.538,0,0,1,.112-1.34,1.623,1.623,0,0,0,.2-0.56,0.411,0.411,0,0,0-.448-0.28c-0.952-.08-1.932-0.14-2.968-0.14a9.569,9.569,0,0,1,.2,2.32v0.09h-6.805c-2.52,0-3.389-.06-3.557-0.06-0.28,0-.308.03-0.308,0.31v1.96c0,0.28.028,0.31,0.308,0.31,0.168,0,1.037-.06,3.557-0.06h16.886Zm-11.706,18.88c0.28,0,.308-0.03.308-0.31v-0.76h5.685v0.59c0,0.28.028,0.31,0.336,0.31h2.072c0.28,0,.308-0.03.308-0.31,0-.17-0.056-0.62-0.056-3.14v-1.23c0-.81.056-1.31,0.056-1.48,0-.28-0.028-0.31-0.308-0.31-0.2,0-.924.06-3.024,0.06h-4.368c-2.129,0-2.857-.06-3.025-0.06-0.28,0-.308.03-0.308,0.31,0,0.17.056,0.7,0.056,1.76v1.04c0,2.57-.056,3.02-0.056,3.22,0,0.28.028,0.31,0.308,0.31h2.016Zm0.308-4.71h5.685v1.79h-5.685v-1.79Zm26.712-15.15a16.958,16.958,0,0,1-1.12,3.33h-0.224c-2.464,0-3.3-.05-3.5-0.05-0.28,0-.308.03-0.308,0.31,0,0.19.056,1.37,0.056,3.97v9.89c0,2.57-.056,3.72-0.056,3.92,0,0.25.028,0.28,0.308,0.28h2.073c0.252,0,.28-0.03.28-0.28,0-.17-0.056-1.35-0.056-3.75v-11.82h1.288v10.05c0,2.21-.056,3.36-0.056,3.56,0,0.28.028,0.31,0.308,0.31h1.512c0.308,0,.336-0.03.336-0.31,0-.17-0.056-1.35-0.056-3.56v-10.05h1.288v10c0,2.21-.056,3.36-0.056,3.55,0,0.28.028,0.31,0.308,0.31h1.6a5.793,5.793,0,0,1,.281,1.23c0.084,0.65.2,0.67,0.98,0.65a3.766,3.766,0,0,0,2.212-.48,2.038,2.038,0,0,0,.7-1.76c0-1.21-.056-2.61-0.056-4.88v-6.69c0-2.63.112-3.98,0.112-4.14,0-.28-0.028-0.31-0.336-0.31-0.168,0-1.008.05-3.472,0.05h-2.661a25.109,25.109,0,0,0,1.2-3.33h2.017c2.576,0,3.444.06,3.584,0.06,0.28,0,.308-0.03.308-0.31v-2.04c0-.28-0.028-0.31-0.308-0.31-0.14,0-1.008.05-3.584,0.05H521.29c-2.549,0-3.445-.05-3.585-0.05-0.28,0-.308.03-0.308,0.31v2.04c0,0.28.028,0.31,0.308,0.31,0.14,0,1.036-.06,3.585-0.06h1.988Zm4.145,18.93c0-.53-0.028-1.57-0.028-3.13v-10h1.344v12.35a0.662,0.662,0,0,1-.784.78h-0.532Zm13.161-14.22c1.6,0.02,2.184.05,2.324,0.05,0.308,0,.336-0.03.336-0.31v-2.29c0-.25-0.028-0.28-0.336-0.28-0.14,0-.728.05-2.324,0.05v-1.79a8.765,8.765,0,0,1,.168-2.83,1.264,1.264,0,0,0,.168-0.58,0.4,0.4,0,0,0-.448-0.28c-0.98-.12-1.932-0.17-2.968-0.2a25.666,25.666,0,0,1,.224,3.95v1.73h-2.045c-2.3,0-3.052-.05-3.22-0.05-0.28,0-.308.03-0.308,0.28v2.29c0,0.28.028,0.31,0.308,0.31,0.168,0,.924-0.05,3.22-0.05h2.045v13.16c0,0.67-.28.89-1.036,0.89-0.84,0-1.849-.02-2.857-0.11a6.629,6.629,0,0,1,.644,2.16c0.168,0.75.168,0.75,1.036,0.73,2.661,0,3.669-.17,4.257-0.62,0.7-.59.868-1.2,0.868-2.63,0-1.57-.056-3.7-0.056-5.66v-7.92Zm-8.261,3.3c-0.308.14-.364,0.22-0.224,0.48a21.711,21.711,0,0,1,2.212,5.43c0.056,0.31.14,0.34,0.476,0.17l1.737-.87c0.308-.14.392-0.22,0.308-0.5a20.059,20.059,0,0,0-2.325-5.27c-0.14-.25-0.252-0.25-0.532-0.14Zm29.568-4.54a25.419,25.419,0,0,1-5.209,9.41,24.053,24.053,0,0,1-8.793,6.22,6.773,6.773,0,0,1,1.513,1.82c0.252,0.48.364,0.64,0.588,0.64a1.891,1.891,0,0,0,.644-0.22,25.681,25.681,0,0,0,8.261-6.33,27.043,27.043,0,0,0,4.06-6.16,27.15,27.15,0,0,0,1.932,4.96,23.438,23.438,0,0,0,5.125,7.05,1.315,1.315,0,0,0,.644.45,1.272,1.272,0,0,0,.588-0.5,9.945,9.945,0,0,1,2.072-1.74,24.107,24.107,0,0,1-5.74-6.72,24.831,24.831,0,0,1-2.941-7.36c0.112-.31.252-0.7,0.364-1.04a2.37,2.37,0,0,1,.56-0.92,0.756,0.756,0,0,0,.308-0.62c0-.2-0.14-0.42-0.924-1.12a2.2,2.2,0,0,0-1.2-.81,1.176,1.176,0,0,0-.588.17,1.433,1.433,0,0,1-.616.08h-4.676l0.644-1.54a3.1,3.1,0,0,1,.616-1.09,0.985,0.985,0,0,0,.336-0.62,0.484,0.484,0,0,0-.448-0.45,23.081,23.081,0,0,0-2.969-.67,10.53,10.53,0,0,1-.756,2.69,21.878,21.878,0,0,1-7.057,9.44,6.928,6.928,0,0,1,1.737,1.54,1.05,1.05,0,0,0,.616.53,1.2,1.2,0,0,0,.588-0.39,27.824,27.824,0,0,0,5.32-6.7h5.4Zm31.976-.64v3.56h-1.82c-2.548,0-3.416-.06-3.584-0.06-0.28,0-.308.03-0.308,0.31v1.96c0,0.31.028,0.34,0.308,0.34,0.084,0,.448-0.03,1.232-0.03a19.052,19.052,0,0,0,3.612,6.8,21.347,21.347,0,0,1-7.617,3.47,7.958,7.958,0,0,1,1.26,1.82c0.224,0.51.28,0.7,0.532,0.7a2.138,2.138,0,0,0,.645-0.16,23.841,23.841,0,0,0,7.224-3.78,22,22,0,0,0,6.469,3.66,1.907,1.907,0,0,0,.672.17c0.252,0,.308-0.19.532-0.73a11.291,11.291,0,0,1,1.148-2.07,18.427,18.427,0,0,1-6.608-3.05,22.049,22.049,0,0,0,3.976-6.22,2.844,2.844,0,0,1,.644-1.12,0.683,0.683,0,0,0,.252-0.5,1.789,1.789,0,0,0-.784-1.04,1.7,1.7,0,0,0-1.036-.7,1.156,1.156,0,0,0-.392.11,0.933,0.933,0,0,1-.56.12h-2.94v-3.56h2.884c2.66,0,3.584.06,3.752,0.06,0.308,0,.308-0.03.308-0.31v-2.1c0-.31,0-0.34-0.308-0.34-0.168,0-1.092.06-3.752,0.06h-2.884v-0.65a8.331,8.331,0,0,1,.168-2.15,2.192,2.192,0,0,0,.2-0.7,0.39,0.39,0,0,0-.42-0.31c-0.953-.11-1.961-0.17-3-0.2a19.011,19.011,0,0,1,.2,3.42v0.59h-2.072c-2.66,0-3.584-.06-3.78-0.06-0.281,0-.309.03-0.309,0.34v2.1c0,0.28.028,0.31,0.309,0.31,0.2,0,1.12-.06,3.78-0.06h2.072Zm4.789,6.05a15.389,15.389,0,0,1-3.193,4.96,14.674,14.674,0,0,1-2.94-4.96h6.133Zm-14.03,2.32,1.82-.75c0.784-.34.812-0.28,0.784-1.21a17.406,17.406,0,0,1,.112-1.85,21.773,21.773,0,0,1-2.716,1.12v-4.36c1.484,0.02,2.016.05,2.184,0.05,0.252,0,.28-0.03.28-0.31v-2.1c0-.3-0.028-0.33-0.28-0.33-0.168,0-.7.05-2.184,0.05v-1.4a8.517,8.517,0,0,1,.168-2.82,1.47,1.47,0,0,0,.168-0.59,0.411,0.411,0,0,0-.448-0.28c-0.924-.11-1.876-0.17-2.94-0.2a22.938,22.938,0,0,1,.224,3.95v1.34h-0.476c-1.9,0-2.493-.05-2.633-0.05-0.308,0-.336.03-0.336,0.33v2.1c0,0.28.028,0.31,0.336,0.31,0.14,0,.728-0.05,2.633-0.05H581.8v5.26l-0.98.28a15.823,15.823,0,0,1-2.633.51,26.009,26.009,0,0,0,.5,2.71,0.341,0.341,0,0,0,.336.34,1.143,1.143,0,0,0,.476-0.17,3.515,3.515,0,0,1,.9-0.42l1.4-.42v5.4c0,0.76-.252,1.07-0.868,1.07a14.558,14.558,0,0,1-2.129-.11,7.519,7.519,0,0,1,.757,2.15c0.2,0.84.2,0.84,1.064,0.84,1.876,0,2.52-.11,3.136-0.56,0.728-.56.9-1.26,0.9-2.69,0-1.4-.028-3.69-0.028-5.68v-1.46Zm35.309-9.13h-0.42c-2.157,0-2.829-.05-3-0.05-0.28,0-.308.03-0.308,0.31v1.73a0.93,0.93,0,0,0-.364-0.39,18.266,18.266,0,0,0-2.072-1.34,12.4,12.4,0,0,1-.672,1.48,20.341,20.341,0,0,1-4.845,5.83,7.3,7.3,0,0,1,.812,2.1c0.084,0.36.168,0.53,0.308,0.53a0.955,0.955,0,0,0,.5-0.28,18.617,18.617,0,0,0,1.373-1.29c-0.028,1.06-.056,2.27-0.056,3.16v4.12c0,2.24-.056,3.28-0.056,3.44,0,0.28.028,0.31,0.308,0.31h2.24c0.28,0,.308-0.03.308-0.31,0-.14-0.056-1.2-0.056-3.44v-10.45c0.448-.64.868-1.28,1.232-1.93a2.635,2.635,0,0,1,.756-0.95,0.809,0.809,0,0,0,.28-0.22c0,0.28.028,0.3,0.308,0.3,0.168,0,.84-0.05,3-0.05h0.42v11.7c0,3.2-.056,4.82-0.056,4.99,0,0.28.028,0.31,0.28,0.31h2.3c0.28,0,.28-0.03.28-0.31,0-.17-0.028-1.79-0.028-4.99v-11.7h0.42c2.156,0,2.8.05,2.968,0.05a0.969,0.969,0,0,0,.28-0.02v1.76c0,0.31.028,0.34,0.336,0.34,0.168,0,.673-0.06,2.381-0.06h0.2v10.87c0,0.86-.2,1.09-1.008,1.09a18.966,18.966,0,0,1-2.353-.17,7.166,7.166,0,0,1,.56,1.99c0.14,0.89.14,0.89,1.009,0.89,2.1,0,3.052-.08,3.668-0.56,0.728-.53.924-1.48,0.924-2.74,0-1.15-.056-2.52-0.056-5.49v-5.88c1.484,0,1.932.06,2.1,0.06,0.28,0,.308-0.03.308-0.34v-2.1c0-.28-0.028-0.31-0.308-0.31-0.168,0-.644.06-2.38,0.06h-2.66c-1.708,0-2.213-.06-2.381-0.06a0.3,0.3,0,0,0-.28.06v-1.79c0-.28-0.028-0.31-0.336-0.31-0.168,0-.812.05-2.968,0.05h-0.42v-2.04a9.68,9.68,0,0,1,.14-2.6,1.619,1.619,0,0,0,.168-0.59,0.414,0.414,0,0,0-.42-0.31c-0.9-.11-1.82-0.14-2.884-0.17a18.938,18.938,0,0,1,.224,3.67v2.04Zm-5.321,14.73a7.648,7.648,0,0,1,1.792.54,2.192,2.192,0,0,0,.56.19c0.2,0,.28-0.17.392-0.53a31.072,31.072,0,0,0,1.457-7.31,2.092,2.092,0,0,1,.252-1.06,0.721,0.721,0,0,0,.2-0.42,0.455,0.455,0,0,0-.476-0.42c-0.785-.14-1.6-0.26-2.465-0.34a13.336,13.336,0,0,1-.028,2.13A27.472,27.472,0,0,1,614.614,1636.34Zm-0.952-20.72a5.793,5.793,0,0,1-.756,1.29,17.3,17.3,0,0,1-4.565,4.23,5.519,5.519,0,0,1,1.092,1.93c0.14,0.45.252,0.64,0.42,0.64a1.6,1.6,0,0,0,.645-0.33,26.263,26.263,0,0,0,4.732-4.73,2.528,2.528,0,0,1,.84-0.82,0.4,0.4,0,0,0,.28-0.36,0.687,0.687,0,0,0-.392-0.53A14.472,14.472,0,0,0,613.662,1615.62Zm10.081,11.68c-0.336.11-.392,0.19-0.308,0.47a41.521,41.521,0,0,1,1.428,7.65c0.028,0.28.112,0.28,0.5,0.14l1.6-.56c0.336-.11.364-0.2,0.336-0.48a38.433,38.433,0,0,0-1.6-7.47c-0.112-.28-0.168-0.31-0.448-0.2Zm5.909-9.77c-1.568,0-2.016-.06-2.184-0.06-0.28,0-.308.03-0.308,0.31v2.13c0,0.28.028,0.3,0.308,0.3,0.168,0,.616-0.05,2.184-0.05h1.876c1.568,0,2.016.05,2.184,0.05,0.252,0,.28-0.02.28-0.3v-2.13c0-.28-0.028-0.31-0.28-0.31-0.168,0-.616.06-2.184,0.06h-1.876Zm-6.329-.09c-0.308.2-.308,0.31-0.14,0.51a14.575,14.575,0,0,1,1.652,2.66,0.332,0.332,0,0,0,.224.22,0.749,0.749,0,0,0,.336-0.17l1.148-.78c0.28-.17.336-0.28,0.2-0.53a20.321,20.321,0,0,0-1.708-2.58c-0.168-.2-0.252-0.2-0.532-0.03Z" transform="translate(-472.781 -1586.06)"/>
  <path id="シェイプ_1024" data-name="シェイプ 1024" class="cls-3" d="M484,1650H639" transform="translate(-472.781 -1586.06)"/>
</svg>
