<svg id="text-feature-03-01.svg" xmlns="http://www.w3.org/2000/svg" width="152.062" height="44.97" viewBox="0 0 152.062 44.97">
  <defs>
    <style>
      .cls-1 {
        fill: none;
        stroke: #1147b4;
        stroke-linecap: round;
        stroke-width: 2px;
        stroke-dasharray: 0.001 4;
      }

      .cls-1, .cls-2 {
        fill-rule: evenodd;
      }

      .cls-2 {
        fill: #1147b4;
      }
    </style>
  </defs>
  <path id="シェイプ_1024" data-name="シェイプ 1024" class="cls-1" d="M763,1643H915" transform="translate(-761 -1601.03)"/>
  <path id="美容液" class="cls-2" d="M782.277,1626.42c2.135,0,2.855.05,3,.05,0.264,0,.288-0.02.288-0.29v-1.67c0-.24-0.024-0.27-0.288-0.27-0.144,0-.864.05-3,0.05h-6.334v-1.56h3.719c2.327,0,3.143.05,3.287,0.05,0.24,0,.264-0.03.264-0.27v-1.53c0-.24-0.024-0.27-0.264-0.27-0.144,0-.96.05-3.287,0.05h-3.719v-1.41h4.846c2.3,0,3.071.04,3.215,0.04,0.24,0,.264-0.02.264-0.26v-1.61c0-.26-0.024-0.28-0.264-0.28-0.144,0-.911.04-3.215,0.04H778.7c0.312-.43.624-0.88,0.864-1.27a1.652,1.652,0,0,1,.408-0.48,0.466,0.466,0,0,0,.264-0.38,0.376,0.376,0,0,0-.312-0.34c-0.72-.21-1.656-0.38-2.447-0.53a6.725,6.725,0,0,1-.408,1.23,15.689,15.689,0,0,1-.984,1.77h-4.7l1.295-.6c0.336-.16.336-0.21,0.168-0.5a11.635,11.635,0,0,0-1.343-1.78c-0.168-.19-0.216-0.21-0.5-0.09l-1.607.72a0.3,0.3,0,0,0-.24.21,0.49,0.49,0,0,0,.168.27,12.848,12.848,0,0,1,1.151,1.77h-1.511c-2.327,0-3.1-.04-3.239-0.04-0.24,0-.264.02-0.264,0.28v1.61c0,0.24.024,0.26,0.264,0.26,0.144,0,.912-0.04,3.239-0.04h4.462v1.41h-3.335c-2.327,0-3.142-.05-3.286-0.05-0.216,0-.24.03-0.24,0.27v1.53c0,0.24.024,0.27,0.24,0.27,0.144,0,.959-0.05,3.286-0.05h3.335v1.56H767.45c-2.135,0-2.855-.05-3-0.05-0.24,0-.263.03-0.263,0.27v1.67c0,0.27.023,0.29,0.263,0.29,0.144,0,.864-0.05,3-0.05h14.827Zm-0.624,3.84c2.207,0,2.975.05,3.119,0.05,0.24,0,.264-0.02.264-0.26v-1.66c0-.24-0.024-0.26-0.264-0.26-0.144,0-.912.05-3.119,0.05H775.7a1.429,1.429,0,0,1,.216-0.58,0.589,0.589,0,0,0,.168-0.41c0-.19-0.168-0.29-0.456-0.33-0.695-.08-1.607-0.15-2.423-0.2a6.094,6.094,0,0,1-.048,1.52h-5.014c-2.231,0-3-.05-3.143-0.05-0.24,0-.264.02-0.264,0.26v1.66c0,0.24.024,0.26,0.264,0.26,0.144,0,.912-0.05,3.143-0.05h4.247a4.8,4.8,0,0,1-1.272,1.49c-1.535,1.25-4.151,1.97-7.2,2.33a5.886,5.886,0,0,1,.863,1.58c0.192,0.5.24,0.65,0.528,0.65a3.613,3.613,0,0,0,.5-0.07,15.8,15.8,0,0,0,6.861-2.74,8.775,8.775,0,0,0,1.968-2.25,14.051,14.051,0,0,0,9.284,4.99c0.216,0.02.384,0.04,0.5,0.04,0.288,0,.312-0.14.528-0.64a6.378,6.378,0,0,1,.888-1.66c-4.175-.33-7.294-1.58-9.117-3.72h4.918Zm11.261,1.99c0,3.1-.048,3.67-0.048,3.82,0,0.24.024,0.26,0.264,0.26h2.015c0.24,0,.264-0.02.264-0.26v-0.89h8.253V1636c0,0.26.024,0.28,0.288,0.28h1.991c0.24,0,.264-0.02.264-0.28,0-.12-0.048-0.7-0.048-3.79v-2.79a28.51,28.51,0,0,0,2.711,1.27,1.475,1.475,0,0,0,.552.17c0.192,0,.24-0.17.384-0.62a5.392,5.392,0,0,1,.864-1.78,20.329,20.329,0,0,1-9.813-5.83l0.048-.04a0.4,0.4,0,0,0,.24-0.29,0.34,0.34,0,0,0-.312-0.31,17.126,17.126,0,0,0-2.3-.46,7.956,7.956,0,0,1-1.343,1.87,20.878,20.878,0,0,1-8.613,5.4,4.1,4.1,0,0,1,.887,1.49c0.168,0.43.24,0.6,0.456,0.6a2.013,2.013,0,0,0,.576-0.2c0.84-.38,1.655-0.79,2.423-1.19v2.75Zm2.5-2.3h8.253v3.19h-8.253v-3.19Zm0.024-2.04a21.328,21.328,0,0,0,4.079-3.67,18.962,18.962,0,0,0,4.078,3.67h-8.157Zm5.206-11.35v-0.02a4.478,4.478,0,0,1,.12-1.42,2.083,2.083,0,0,0,.144-0.48c0-.09-0.12-0.19-0.384-0.21-0.815-.07-1.7-0.12-2.591-0.15a9.572,9.572,0,0,1,.192,2.28h-5.11c-2.231,0-3.023-.04-3.191-0.04-0.24,0-.264.02-0.264,0.26,0,0.17.048,0.53,0.048,1.3v0.76c0,1.99-.048,2.33-0.048,2.5,0,0.24.024,0.26,0.264,0.26h2.015c0.24,0,.264-0.02.264-0.26v-2.64h14.947v2.64c0,0.24.024,0.26,0.264,0.26h2.015c0.24,0,.264-0.02.264-0.26,0-.15-0.048-0.51-0.048-2.5v-0.93c0-.6.048-0.99,0.048-1.13,0-.24-0.024-0.26-0.264-0.26-0.168,0-.96.04-3.191,0.04h-5.494Zm-5.23,2.86a6.039,6.039,0,0,1-1.007,1.25,11.657,11.657,0,0,1-4.271,2.61,4.536,4.536,0,0,1,1.176,1.32,0.821,0.821,0,0,0,.527.58,1.9,1.9,0,0,0,.576-0.24,17.615,17.615,0,0,0,4.2-3.22,2.814,2.814,0,0,1,.767-0.62,0.417,0.417,0,0,0,.336-0.31,0.348,0.348,0,0,0-.24-0.36A20.093,20.093,0,0,0,795.409,1619.42Zm6.358,1.01c-0.288.19-.288,0.24-0.12,0.43a17.252,17.252,0,0,0,5.446,4.03,1.4,1.4,0,0,0,.552.21,0.756,0.756,0,0,0,.408-0.59,8.8,8.8,0,0,1,.911-1.52,12.912,12.912,0,0,1-5.47-3.36,0.287,0.287,0,0,0-.456-0.02Zm25.7,4.67a0.577,0.577,0,0,0-.216.24,0.4,0.4,0,0,0,.168.22,10.479,10.479,0,0,1,1.487,1.8c0.144,0.24.192,0.19,0.456-.02l0.887-.77c0.24-.22.264-0.27,0.1-0.48a9.8,9.8,0,0,0-1.535-1.7c-0.192-.17-0.264-0.15-0.5.04Zm0.911-3.4,0.216-.6a2.556,2.556,0,0,1,.408-0.82,0.547,0.547,0,0,0,.216-0.33c0-.15-0.12-0.24-0.384-0.29a14.589,14.589,0,0,0-2.159-.34,6.934,6.934,0,0,1-.288,1.35,15.945,15.945,0,0,1-4.079,6.45,4.115,4.115,0,0,1,1.008,1.1,0.855,0.855,0,0,0,.48.51,1.1,1.1,0,0,0,.5-0.39l0.671-.76a18.285,18.285,0,0,0,2.4,3.64,15.817,15.817,0,0,1-4.727,2.93,4.439,4.439,0,0,1,.96,1.39,0.6,0.6,0,0,0,.456.5,1.327,1.327,0,0,0,.528-0.16,17.948,17.948,0,0,0,4.366-3.07,19.818,19.818,0,0,0,4.942,3.07,2,2,0,0,0,.552.14c0.192,0,.264-0.17.408-0.62a6.023,6.023,0,0,1,.816-1.66,15.794,15.794,0,0,1-5.207-2.59,19.124,19.124,0,0,0,3.335-6.67,2.252,2.252,0,0,1,.432-1.03,0.479,0.479,0,0,0,.192-0.41,1.192,1.192,0,0,0-.552-0.84,1.388,1.388,0,0,0-.911-0.65,0.555,0.555,0,0,0-.288.08,1.629,1.629,0,0,1-.552.07h-3.743Zm3.311,1.89a14.223,14.223,0,0,1-2.855,6.05,15.294,15.294,0,0,1-2.567-3.84,21.65,21.65,0,0,0,1.247-2.21h4.175Zm-11.636,9.53c0,1.89-.048,2.78-0.048,2.92,0,0.24.024,0.27,0.264,0.27h1.775c0.264,0,.288-0.03.288-0.27,0-.12-0.048-1.03-0.048-2.92v-9.17a22.07,22.07,0,0,0,1.32-2.49,2.379,2.379,0,0,1,.48-0.84,0.609,0.609,0,0,0,.216-0.41,0.39,0.39,0,0,0-.36-0.34,18.063,18.063,0,0,0-2.063-.52,7.369,7.369,0,0,1-.408,1.34,16.15,16.15,0,0,1-4.295,5.95,6.23,6.23,0,0,1,1.1,1.3,0.838,0.838,0,0,0,.408.48,0.916,0.916,0,0,0,.456-0.36c0.311-.34.623-0.72,0.935-1.08,0,0.69-.024,1.46-0.024,2.04v4.1Zm11.492-14.18c2.375,0,3.191.05,3.335,0.05,0.216,0,.24-0.03.24-0.27V1617c0-.22-0.024-0.24-0.24-0.24-0.144,0-.96.04-3.335,0.04H827.83v-0.57a3.528,3.528,0,0,1,.144-1.18,0.966,0.966,0,0,0,.12-0.41,0.338,0.338,0,0,0-.384-0.26c-0.767-.07-1.535-0.12-2.4-0.14a9.51,9.51,0,0,1,.168,1.99v0.57H822.6c-2.351,0-3.167-.04-3.311-0.04-0.263,0-.287.02-0.287,0.24v1.72c0,0.24.024,0.27,0.287,0.27,0.144,0,.96-0.05,3.311-0.05h8.949Zm-18.161,15.55a13.1,13.1,0,0,0,1.751,1.22,0.988,0.988,0,0,0,.408.14,0.3,0.3,0,0,0,.264-0.33,5.308,5.308,0,0,1,.312-0.94,39.867,39.867,0,0,0,1.895-5.2c0.192-.7.192-0.7-0.456-1.18a8.825,8.825,0,0,1-1.247-1.1,34.963,34.963,0,0,1-1.872,5.49A16.669,16.669,0,0,1,813.388,1634.49Zm0.719-18.33a0.7,0.7,0,0,0-.168.26,0.3,0.3,0,0,0,.168.19,16.04,16.04,0,0,1,2.975,2.57c0.192,0.19.24,0.14,0.432-.07l1.1-1.42a0.572,0.572,0,0,0,.144-0.29,0.318,0.318,0,0,0-.144-0.21,18.012,18.012,0,0,0-3-2.43c-0.192-.14-0.264-0.12-0.456.12Zm-0.767,5.95a0.518,0.518,0,0,0-.144.28,0.254,0.254,0,0,0,.168.2,15.234,15.234,0,0,1,2.951,2.44c0.191,0.19.263,0.15,0.455-.12l1.008-1.46a0.611,0.611,0,0,0,.144-0.29,0.318,0.318,0,0,0-.144-0.21,17.668,17.668,0,0,0-2.975-2.24,0.3,0.3,0,0,0-.48.08Z" transform="translate(-761 -1601.03)"/>
  <path id="_50_" data-name="50%" class="cls-2" d="M863.587,1601.59H849.512l-5.048,17.18a14.135,14.135,0,0,1,3.008-1.53,10.565,10.565,0,0,1,3.978-.71,7.992,7.992,0,0,1,5.558,1.88,7.219,7.219,0,0,1,2.04,5.51,7.884,7.884,0,0,1-2.193,5.76,7.2,7.2,0,0,1-5.2,1.89,8.013,8.013,0,0,1-4.437-1.17,7.886,7.886,0,0,1-2.6-2.96l-3.927,3.26a12.3,12.3,0,0,0,4.029,3.93,14.609,14.609,0,0,0,15.961-1.94,12.2,12.2,0,0,0,3.468-9.02c0-4.44-1.683-7.14-3.315-8.72a11.232,11.232,0,0,0-7.853-3.01c-0.51,0-1.071.05-1.581,0.1l1.683-5.66h10.5v-4.79Zm15.562,34.57a9.788,9.788,0,0,0,7.7-3.67c3.57-4.08,4.335-9.43,4.335-13.87,0-4.39-.765-9.84-4.335-13.92a9.913,9.913,0,0,0-15.4,0c-3.57,4.08-4.335,9.53-4.335,13.92,0,4.44.765,9.79,4.335,13.87A9.79,9.79,0,0,0,879.149,1636.16Zm0-30.54a5.451,5.451,0,0,1,4.59,2.8c1.886,2.8,2.345,7.19,2.345,10.15,0,3.01-.459,7.34-2.345,10.2a5.162,5.162,0,0,1-9.18,0c-1.886-2.86-2.345-7.19-2.345-10.2,0-2.96.459-7.35,2.345-10.15A5.451,5.451,0,0,1,879.149,1605.62Zm18.929,12.82a4.006,4.006,0,1,0,4.105,4A4.081,4.081,0,0,0,898.078,1618.44Zm0,6.17a2.166,2.166,0,1,1,2.116-2.17A2.113,2.113,0,0,1,898.078,1624.61ZM898,1635.14l1.2,0.74,9.715-16.88-1.2-.69Zm10.836-7.37a4.006,4.006,0,1,0,4.105,4.01A4.083,4.083,0,0,0,908.838,1627.77Zm0,6.17a2.166,2.166,0,1,1,2.116-2.16A2.111,2.111,0,0,1,908.838,1633.94Z" transform="translate(-761 -1601.03)"/>
</svg>
