<svg id="text-feature-04.svg" xmlns="http://www.w3.org/2000/svg" width="184.97" height="30.72" viewBox="0 0 184.97 30.72">
  <defs>
    <style>
      .cls-1 {
        fill: none;
        stroke: #1147b4;
        stroke-linecap: round;
        stroke-width: 2px;
        stroke-dasharray: 0.001 4;
      }

      .cls-1, .cls-2 {
        fill-rule: evenodd;
      }

      .cls-2 {
        fill: #1147b4;
      }
    </style>
  </defs>
  <path id="シェイプ_1024" data-name="シェイプ 1024" class="cls-1" d="M1026.1,1643H1210" transform="translate(-1024.09 -1615.28)"/>
  <path id="アレルガード機能" class="cls-2" d="M1043.9,1620.68a17.057,17.057,0,0,1-4.3,4.2,5.665,5.665,0,0,1,2,.98,0.878,0.878,0,0,0,.57.24,0.728,0.728,0,0,0,.51-0.21,20.655,20.655,0,0,0,4.22-4.63,2.711,2.711,0,0,1,.65-0.7,0.623,0.623,0,0,0,.33-0.5,0.688,0.688,0,0,0-.19-0.43,12.148,12.148,0,0,0-1.44-1.51,0.8,0.8,0,0,0-.55-0.34,1.717,1.717,0,0,0-.46.17,5.243,5.243,0,0,1-1.65.14H1033.3c-1.92,0-3.24-.05-4.88-0.17a21.527,21.527,0,0,0,.44,2.59,0.363,0.363,0,0,0,.43.36c1.41-.09,2.88-0.19,4.25-0.19h10.36Zm-14.04,13.94a6.715,6.715,0,0,1,2.19,1.23,0.678,0.678,0,0,0,.48.21,1.168,1.168,0,0,0,.67-0.24,12.517,12.517,0,0,0,4.37-4.77,14.7,14.7,0,0,0,1.41-6.6,2.208,2.208,0,0,1,.22-0.98,1.038,1.038,0,0,0,.12-0.44,0.438,0.438,0,0,0-.41-0.45,25.986,25.986,0,0,0-3.1-.46,8.383,8.383,0,0,1,.24,2.26,11.111,11.111,0,0,1-1.17,5.66A10.614,10.614,0,0,1,1029.86,1634.62Zm26.43-12.26a9.827,9.827,0,0,1,.26-2.97,1.978,1.978,0,0,0,.12-0.51,0.449,0.449,0,0,0-.38-0.45,24.4,24.4,0,0,0-3.12-.53,22.923,22.923,0,0,1,.26,4.17l-0.05,9.02a5.024,5.024,0,0,1-.09,1.37,1.039,1.039,0,0,0-.12.41,0.615,0.615,0,0,0,.14.38,7.27,7.27,0,0,0,1.47,1.64,0.619,0.619,0,0,0,.4.19,0.712,0.712,0,0,0,.44-0.19,5.154,5.154,0,0,1,1.34-.77,54.609,54.609,0,0,0,5.88-2.98,38.593,38.593,0,0,0,5.99-4.12,0.746,0.746,0,0,0,.24-0.96,10.916,10.916,0,0,1-.38-2.79,29.506,29.506,0,0,1-6.36,4.9,39.584,39.584,0,0,1-6.12,3.02Zm28.89-.05c0-1.72,0-2.2.22-2.66a1.5,1.5,0,0,0,.19-0.6,0.445,0.445,0,0,0-.43-0.41,24,24,0,0,0-3-.5,19.122,19.122,0,0,1,.24,4.17v7.51a4.056,4.056,0,0,1-.15,1.83,0.736,0.736,0,0,0-.09.36,0.988,0.988,0,0,0,.21.5,7.11,7.11,0,0,0,1.44,1.46,1.072,1.072,0,0,0,.51.2,0.782,0.782,0,0,0,.48-0.2c0.21-.16.26-0.21,0.69-0.5a38.464,38.464,0,0,0,4.27-2.88,29.937,29.937,0,0,0,3.55-3.14,0.891,0.891,0,0,0,.36-0.6,1.241,1.241,0,0,0-.14-0.41,6.717,6.717,0,0,1-.74-2.42,23.566,23.566,0,0,1-4.2,4.08,25.2,25.2,0,0,1-3.41,2.23v-8.02Zm-8.37-2.66a6.511,6.511,0,0,1,.24,2.02c-0.03,3.84-.34,5.15-1.01,6.79a11.971,11.971,0,0,1-3.98,4.77,8.433,8.433,0,0,1,2.04,1.01,0.786,0.786,0,0,0,.45.19,1.115,1.115,0,0,0,.63-0.31,12.421,12.421,0,0,0,3.4-4.51,18.065,18.065,0,0,0,1.3-7.06,3.4,3.4,0,0,1,.29-1.63,0.479,0.479,0,0,0-.32-0.74A19.5,19.5,0,0,0,1076.81,1619.65Zm24.79,1.94c-1.39,0-2.47,0-3.98-.09a21.244,21.244,0,0,0,.19,2.33c0.02,0.28.12,0.43,0.36,0.4,1.13-.07,2.28-0.12,3.45-0.12h2.16a14.046,14.046,0,0,1-1.72,5.19,13.375,13.375,0,0,1-5.64,4.89,6.122,6.122,0,0,1,2.01,1.39,0.617,0.617,0,0,0,.46.24,1.07,1.07,0,0,0,.55-0.19,15.468,15.468,0,0,0,5.09-4.94,18.088,18.088,0,0,0,2.13-6.65h4.85a33.555,33.555,0,0,1-.72,7.2,1.928,1.928,0,0,1-1.25,1.68,9.676,9.676,0,0,1-3.26.21,5.074,5.074,0,0,1,1.39,2.19,0.581,0.581,0,0,0,.57.48,9.826,9.826,0,0,0,2.43-.27c1.53-.38,2.35-1.39,2.83-3.24a41.563,41.563,0,0,0,.89-7.89c0.04-1.27.09-2.23,0.09-2.54,0-.27-0.12-0.34-0.5-0.34-1.1,0-2.23.05-3.34,0.05H1107c0.12-1.18.14-1.75,0.21-2.52a2.218,2.218,0,0,1,.32-1.13,1.081,1.081,0,0,0,.12-0.45,0.505,0.505,0,0,0-.41-0.51,19.588,19.588,0,0,0-3.12-.5,9.543,9.543,0,0,1,.17,1.9c-0.03,1.29-.08,2.06-0.17,3.23h-2.52Zm10.24-3.5a11.937,11.937,0,0,1,2.43,2.78,0.244,0.244,0,0,0,.4.08l1.01-.75a0.235,0.235,0,0,0,.07-0.38,11,11,0,0,0-2.28-2.57,0.241,0.241,0,0,0-.35-0.05Zm2.21-1.58a11.408,11.408,0,0,1,2.4,2.76,0.252,0.252,0,0,0,.41.07l0.96-.74a0.284,0.284,0,0,0,.07-0.44,9.98,9.98,0,0,0-2.28-2.47,0.25,0.25,0,0,0-.36-0.05Zm16.53,11.47c1.51,0,3.02.02,4.55,0.04,0.29,0.03.37-.07,0.37-0.36a21.109,21.109,0,0,0,0-2.25c0-.29-0.06-0.36-0.37-0.34-1.57.03-3.14,0.08-4.69,0.08h-6.57a22.379,22.379,0,0,1-4.41-.29c0.08,1.22.21,2.35,0.31,2.9a0.474,0.474,0,0,0,.47.5,14.3,14.3,0,0,1,3-.28h7.34Zm12.62-8.35a6.181,6.181,0,0,1,.17-2.26,1.241,1.241,0,0,0,.19-0.55,0.444,0.444,0,0,0-.45-0.41,17.874,17.874,0,0,0-3-.38,18.129,18.129,0,0,1,.24,3.55v11.8c0,1.54-.03,2.95-0.1,4.73,0,0.29.12,0.36,0.46,0.36a15.142,15.142,0,0,0,2.13,0c0.34,0,.46-0.07.43-0.36-0.04-1.73-.09-3.14-0.09-4.7v-5.31a26.579,26.579,0,0,1,6.31,3.08,0.379,0.379,0,0,0,.26.12,0.4,0.4,0,0,0,.31-0.27,14.009,14.009,0,0,0,1.04-2.09,0.438,0.438,0,0,0-.27-0.62,33.856,33.856,0,0,0-7.63-3.26v-3.43Zm4.32-1.59a11.756,11.756,0,0,1,2.42,2.79,0.256,0.256,0,0,0,.41.07l1.01-.75a0.234,0.234,0,0,0,.07-0.38,11,11,0,0,0-2.28-2.57,0.242,0.242,0,0,0-.36-0.04Zm2.21-1.58a11.6,11.6,0,0,1,2.4,2.76,0.238,0.238,0,0,0,.4.07l0.96-.74a0.277,0.277,0,0,0,.08-0.43,10.2,10.2,0,0,0-2.28-2.48,0.241,0.241,0,0,0-.36-0.04Zm22.1,12.74h2.35c2.33,0,3.12.05,3.27,0.05,0.26,0,.28-0.03.28-0.27v-1.58c0-.24-0.02-0.26-0.28-0.26-0.15,0-.82.04-2.6,0.04l0.65-.55a0.234,0.234,0,0,0,0-.45,10.781,10.781,0,0,0-1.24-.96l1.84-.27,0.19,0.7c0.05,0.26.1,0.29,0.41,0.17l0.87-.36c0.26-.12.33-0.15,0.26-0.36a20.781,20.781,0,0,0-1.15-3c-0.12-.24-0.15-0.29-0.43-0.17l-0.8.31c-0.31.12-.33,0.15-0.24,0.39l0.41,0.91c-0.69.07-1.39,0.14-2.04,0.19,0.87-.96,1.85-2.11,2.69-3.22a3.19,3.19,0,0,1,.74-0.79,0.292,0.292,0,0,0,.27-0.28,0.4,0.4,0,0,0-.22-0.32,10.786,10.786,0,0,0-1.58-.93,7.465,7.465,0,0,1-.6,1.2c-0.24.36-.5,0.74-0.79,1.12-0.24-.31-0.51-0.64-0.79-0.98a23.286,23.286,0,0,0,1.6-2.25,1.237,1.237,0,0,1,.39-0.44,0.32,0.32,0,0,0,.21-0.26,0.355,0.355,0,0,0-.24-0.31,13.655,13.655,0,0,0-1.58-.79,5.312,5.312,0,0,1-.38.91,13.084,13.084,0,0,1-1.18,1.87l-0.29-.29c-0.19-.17-0.19-0.19-0.41.03l-0.86,1.03v-0.1a9.937,9.937,0,0,1,.1-2.71,1.158,1.158,0,0,0,.14-0.48,0.4,0.4,0,0,0-.43-0.26,19.6,19.6,0,0,0-2.23-.17,25.414,25.414,0,0,1,.26,3.69v0.44a14.837,14.837,0,0,0-1.51-.87,4.046,4.046,0,0,1-.46.96l-0.76,1.13c-0.24-.31-0.48-0.62-0.77-0.94a22.657,22.657,0,0,0,1.58-2.37,1.42,1.42,0,0,1,.41-0.43,0.361,0.361,0,0,0,.22-0.27,0.342,0.342,0,0,0-.22-0.31,10.585,10.585,0,0,0-1.66-.77,4.928,4.928,0,0,1-.36.91,14.754,14.754,0,0,1-1.19,1.95l-0.39-.36c-0.19-.17-0.26-0.15-0.41.05l-0.79.91a0.509,0.509,0,0,0-.14.26,0.308,0.308,0,0,0,.14.22,18.074,18.074,0,0,1,2.42,2.71c-0.55.69-1.1,1.39-1.65,2.01-0.19,0-.38,0-0.62-0.02,0.09,0.55.21,1.2,0.33,1.7a0.357,0.357,0,0,0,.31.31,0.58,0.58,0,0,0,.32-0.12,2.359,2.359,0,0,1,.76-0.19c1.13-.12,2.21-0.26,3.41-0.45l0.12,0.64c0.05,0.27.1,0.29,0.38,0.17l0.7-.31c0.26-.12.31-0.14,0.24-0.41a18.252,18.252,0,0,0-.91-2.97c-0.1-.24-0.15-0.27-0.39-0.17l-0.62.24c-0.29.12-.34,0.12-0.24,0.38a9.3,9.3,0,0,1,.34.94l-1.95.17c0.77-.87,1.8-2.16,2.64-3.27a2.183,2.183,0,0,1,.77-0.79,55.293,55.293,0,0,0,.77,7.1h-3.53c-2.35,0-3.14-.04-3.29-0.04-0.24,0-.26.02-0.26,0.26v1.58c0,0.24.02,0.27,0.26,0.27,0.1,0,.46-0.03,1.32-0.03-0.19,3.1-1.08,5.04-2.71,6.41a4.747,4.747,0,0,1,1.25,1.01,1.113,1.113,0,0,0,.53.43,1.03,1.03,0,0,0,.48-0.41,10.392,10.392,0,0,0,2.3-4.77,11.948,11.948,0,0,1,2.35,1.68,0.441,0.441,0,0,0,.22.14,0.34,0.34,0,0,0,.26-0.24l0.72-1.06c0.15-.19.17-0.28-0.02-0.43a15.322,15.322,0,0,0-2.26-1.48,0.308,0.308,0,0,0-.48.12l-0.74,1a22.193,22.193,0,0,0,.36-2.42h3.64c0.15,0.65.32,1.27,0.51,1.85a11.656,11.656,0,0,0,.72,1.96,16.83,16.83,0,0,1-5.21,2.4,4.806,4.806,0,0,1,.91,1.2c0.2,0.41.29,0.55,0.48,0.55a2.754,2.754,0,0,0,.58-0.16,18.06,18.06,0,0,0,4.27-2.23,4.768,4.768,0,0,0,3.55,2.3c1.27,0,1.97-.91,2.35-3.22,0.15-.74.15-0.74-0.55-1.1a6.209,6.209,0,0,1-1.13-.72c-0.14,2.02-.45,2.66-1.01,2.66a2.391,2.391,0,0,1-1.53-1.24,15.417,15.417,0,0,0,1.8-1.92,2.268,2.268,0,0,1,.69-0.63,0.4,0.4,0,0,0,.27-0.33,0.475,0.475,0,0,0-.24-0.36,10.741,10.741,0,0,0-1.73-.94,5.179,5.179,0,0,1-.67,1.13,11.071,11.071,0,0,1-1.1,1.2,11.98,11.98,0,0,1-.53-1.66Zm-0.62-5.47a11.22,11.22,0,0,0,.31,1.63,0.331,0.331,0,0,0,.29.31,0.878,0.878,0,0,0,.38-0.12,2.043,2.043,0,0,1,.72-0.19l0.65-.07-0.55.41a0.432,0.432,0,0,0-.24.26,0.454,0.454,0,0,0,.19.22,9.087,9.087,0,0,1,1.2,1h-2.76a50.716,50.716,0,0,1-.84-7.94,16.2,16.2,0,0,1,2.45,2.74c-0.51.65-1.01,1.25-1.47,1.77Zm-10.94,13.53c0.24,0,.26-0.02.26-0.26,0-.39-0.14-5.43-0.17-11.76a15.83,15.83,0,0,0,.89,2.62,0.7,0.7,0,0,0,.29.43,0.462,0.462,0,0,0,.24-0.41,9.291,9.291,0,0,1,.77-1.68,13.231,13.231,0,0,1-1.99-3.91c1.08,0.02,1.44.05,1.58,0.05,0.24,0,.26-0.03.26-0.27v-1.72c0-.22-0.02-0.24-0.26-0.24-0.14,0-.53.04-1.7,0.04v-1.7a6.559,6.559,0,0,1,.16-2.23,1.521,1.521,0,0,0,.1-0.48,0.312,0.312,0,0,0-.36-0.26,18.451,18.451,0,0,0-2.25-.17,17.334,17.334,0,0,1,.19,3.17v1.67h-0.17c-1.49,0-1.92-.04-2.06-0.04-0.22,0-.24.02-0.24,0.24v1.72c0,0.24.02,0.27,0.24,0.27,0.14,0,.57-0.05,2.04-0.05h0.04a21.725,21.725,0,0,1-2.9,7.17,6.805,6.805,0,0,1,.84,1.75,0.535,0.535,0,0,0,.24.39,0.692,0.692,0,0,0,.34-0.41,19.143,19.143,0,0,0,1.67-4.56c-0.04,5.52-.14,10.01-0.14,10.37,0,0.24.03,0.26,0.24,0.26h1.85Zm30.76-10.29c0-2.02.05-3.07,0.05-3.22,0-.24-0.02-0.26-0.26-0.26-0.15,0-.75.05-2.52,0.05h-3c-1.78,0-2.37-.05-2.54-0.05-0.24,0-.27.02-0.27,0.26,0,0.17.05,1.06,0.05,3v7.2c0,1.94-.05,2.78-0.05,2.95,0,0.22.03,0.24,0.27,0.24h1.82c0.24,0,.26-0.02.26-0.24,0-.14-0.04-1.05-0.04-2.95v-1.56h3.98v1.8a0.636,0.636,0,0,1-.79.72,8.5,8.5,0,0,1-1.44-.1,5.124,5.124,0,0,1,.48,1.42c0.14,0.72.14,0.72,0.89,0.72,1.79-.03,2.25-0.19,2.63-0.53a2.363,2.363,0,0,0,.53-1.89c0-.75-0.05-2.04-0.05-3.27v-4.29Zm-2.25-1.49v1.61h-3.98v-1.61h3.98Zm-3.98,5.06v-1.6h3.98v1.6h-3.98Zm10.58,1.32a48.654,48.654,0,0,0,5.23-2.28,3.741,3.741,0,0,1,1.08-.43,0.369,0.369,0,0,0,.38-0.29,0.784,0.784,0,0,0-.24-0.45,11.954,11.954,0,0,0-1.49-1.56,5.907,5.907,0,0,1-1.29,1.01,23.147,23.147,0,0,1-3.67,1.75v-1.15a2.724,2.724,0,0,1,.12-1.28,0.913,0.913,0,0,0,.14-0.43c0-.17-0.14-0.24-0.41-0.29-0.79-.09-1.63-0.14-2.4-0.16a12.466,12.466,0,0,1,.15,2.32v6.05a1.723,1.723,0,0,0,.84,1.75,9.857,9.857,0,0,0,3.79.43,7.944,7.944,0,0,0,3.98-.74c0.67-.48.96-1.18,1.13-2.66,0.07-.63.07-0.65-0.53-0.8a6.7,6.7,0,0,1-1.73-.67c-0.05,1.3-.05,1.85-0.41,2.23a4.277,4.277,0,0,1-2.32.44,6.207,6.207,0,0,1-1.92-.17,0.713,0.713,0,0,1-.43-0.82v-1.8Zm-0.03-14.25a3.32,3.32,0,0,1,.12-1.32,0.85,0.85,0,0,0,.15-0.41c0-.14-0.15-0.24-0.41-0.26-0.79-.1-1.63-0.14-2.4-0.17a12.946,12.946,0,0,1,.14,2.35v5.69a1.425,1.425,0,0,0,.82,1.56,10.412,10.412,0,0,0,3.67.41c1.97,0,3.33-.15,4.01-0.63,0.67-.45.93-1.12,1.1-2.56,0.02-.65.02-0.65-0.55-0.82a7.424,7.424,0,0,1-1.68-.7c-0.05,1.32-.05,1.8-0.34,2.09-0.28.31-1.12,0.43-2.4,0.43a6.742,6.742,0,0,1-1.82-.14,0.591,0.591,0,0,1-.41-0.72v-1.42a36.666,36.666,0,0,0,5.09-2.06,4.674,4.674,0,0,1,1.1-.43,0.366,0.366,0,0,0,.34-0.29,0.575,0.575,0,0,0-.22-0.41,12.754,12.754,0,0,0-1.46-1.53,5.732,5.732,0,0,1-1.32.98,29.39,29.39,0,0,1-3.53,1.54v-1.18Zm-7.07.19c-0.27.12-.32,0.2-0.17,0.41,0.33,0.51.65,1.01,0.96,1.54-1.2.14-2.47,0.24-3.77,0.33,0.48-.91,1.01-2.04,1.39-2.88a1.884,1.884,0,0,1,.43-0.69,0.6,0.6,0,0,0,.27-0.43,0.421,0.421,0,0,0-.39-0.36,13.791,13.791,0,0,0-2.28-.44,9.763,9.763,0,0,1-.43,1.64,29.805,29.805,0,0,1-1.41,3.33c-0.63.02-1.35,0.02-1.97,0.02,0.07,0.7.19,1.44,0.31,2.09,0.07,0.29.17,0.39,0.31,0.39a0.838,0.838,0,0,0,.36-0.1,3.016,3.016,0,0,1,.96-0.22c2.43-.21,4.92-0.48,7.18-0.81l0.43,1.05c0.12,0.27.19,0.29,0.45,0.12l1.37-.74c0.27-.14.29-0.24,0.17-0.48a29.97,29.97,0,0,0-2.52-4.29,0.308,0.308,0,0,0-.5-0.12Z" transform="translate(-1024.09 -1615.28)"/>
</svg>
