<?xml version="1.0" encoding="utf-8"?>
<!-- Generator: Adobe Illustrator 26.0.3, SVG Export Plug-In . SVG Version: 6.00 Build 0)  -->
<svg version="1.1" id="text-feature-02.svg" xmlns="http://www.w3.org/2000/svg" xmlns:xlink="http://www.w3.org/1999/xlink"
	 x="0px" y="0px" viewBox="0 0 174.7 66.9" style="enable-background:new 0 0 174.7 66.9;" xml:space="preserve">
<style type="text/css">
	.st0{fill:none;stroke:#1147B4;}
	.st1{fill:none;stroke:#1147B4;stroke-width:2;stroke-linecap:round;stroke-dasharray:1.000000e-03,4;}
	.st2{fill:#1147B4;}
</style>
<path id="シェイプ_1375" class="st0" d="M22.3,0.5l7.4,14.8"/>
<path id="シェイプ_1375-2" class="st0" d="M151.2,1.5L143.7,16"/>
<path id="シェイプ_1024" class="st1" d="M11.2,63.9h155"/>
<g>
	<path class="st2" d="M40,12.8c0.9-0.1,1.9-0.2,2.9-0.3l0,1.5c-2.6,0.3-5.4,0.6-7.3,0.8l-0.2-1.6c0.8-0.1,1.9-0.2,3-0.3v-1.1h-2.2
		v-1.4h2.2v-1h-2.5V8h1.6c-0.2-0.4-0.6-1-1-1.4l0.8-0.4h-1.9V4.7h2V4l-0.8,0.5c-0.2-0.5-0.8-1.3-1.2-1.8L36.5,2
		c0.3,0.3,0.6,0.7,0.9,1.1V1.5h1.4v3.2h0.7V1.5H41v1.7c0.3-0.4,0.6-0.8,0.8-1.2l1.4,0.8c-0.6,0.6-1.2,1.3-1.7,1.7L41,4.2v0.4h1.9
		v1.5H41l1,0.4c-0.3,0.5-0.5,1-0.8,1.5h1.3v1.4H40v1h2.2v1.4H40V12.8z M38,6.1c0.4,0.4,0.7,0.9,0.9,1.3L38,8h1.6
		c0.3-0.5,0.6-1.3,0.8-1.8H38z M49.1,6.9h-1.1v6.5c0,0.9-0.2,1.4-0.7,1.6c-0.5,0.3-1.3,0.4-2.5,0.3c-0.1-0.5-0.4-1.2-0.6-1.7
		c0.8,0,1.5,0,1.8,0c0.3,0,0.3-0.1,0.3-0.3V6.9H43V5.2h3.2V1.5h1.7v3.7h1.1V6.9z M44.2,11.6c-0.1-0.9-0.6-2.3-1.1-3.4l1.5-0.5
		c0.6,1.1,1.1,2.4,1.2,3.3L44.2,11.6z"/>
	<path class="st2" d="M55.7,9.5c-0.6,0.2-1.2,0.3-1.7,0.5v3.6c0,0.9-0.1,1.3-0.7,1.6c-0.5,0.3-1.2,0.3-2.3,0.3
		c0-0.5-0.3-1.2-0.5-1.6c0.6,0,1.2,0,1.4,0c0.2,0,0.3-0.1,0.3-0.3v-3.1l-1.8,0.4l-0.3-1.7c0.6-0.1,1.3-0.3,2.1-0.5V6h-1.8V4.3h1.8
		V1.5H54v2.8h1.6V6H54v2.2l1.5-0.4L55.7,9.5z M62.8,13.8c0.1,0,0.1,0,0.2-0.1c0-0.1,0.1-0.2,0.1-0.5c0-0.3,0-0.9,0-1.8
		c0.3,0.3,0.9,0.6,1.3,0.7c0,0.8-0.1,1.7-0.2,2.1c-0.1,0.4-0.3,0.6-0.5,0.8c-0.2,0.2-0.6,0.2-0.9,0.2h-0.8c-0.4,0-0.8-0.1-1-0.4
		c-0.3-0.3-0.4-0.6-0.4-1.8V8.4h-2.1v1.1c0,2-0.5,4.6-2.9,6.1c-0.2-0.4-0.9-1.1-1.2-1.4c2.1-1.3,2.4-3.2,2.4-4.8V6.8h5.6v6.4
		c0,0.3,0,0.5,0,0.6c0,0.1,0.1,0.1,0.2,0.1H62.8z M64.3,5.6h-8.5V3.9h3.1c-0.2-0.6-0.5-1.5-0.8-2.1l1.7-0.5c0.3,0.7,0.7,1.6,0.9,2.2
		l-1.4,0.4h5V5.6z"/>
	<path class="st2" d="M67.9,8.4c0,2.1-0.2,5.2-1.5,7.1c-0.3-0.3-1-0.8-1.3-1c1.1-1.8,1.2-4.3,1.2-6.1V4.9h12.7v1.5h-11V8.4z M72,4.5
		h-4.9V2H72V4.5z M78.5,9.1c-0.3,1.4-0.7,2.5-1.3,3.5c0.6,0.7,1.4,1.2,2.2,1.6c-0.4,0.3-0.8,0.9-1.1,1.4c-0.8-0.4-1.5-1-2.1-1.7
		c-0.6,0.7-1.3,1.2-2.2,1.6c-0.2-0.3-0.7-0.9-1-1.2v1.2h-1.5v-1.1c-1.4,0.2-2.7,0.3-3.8,0.4l-0.2-1.3l1-0.1V9.6h-0.5V8.5h2V7.9h-1.6
		V6.9h4.9v1.1h-1.8v0.6h2v1.1H73v0.9c0.8-0.9,1.4-2.4,1.6-4l1.5,0.3c-0.1,0.3-0.1,0.6-0.2,0.9H79v1.4H78.5z M70.3,2.9h-1.7v0.6h1.7
		V2.9z M70,9.6v0.6h1.6V9.6H70z M70,11.7h1.6v-0.6H70V11.7z M71.6,13.2v-0.6H70v0.8L71.6,13.2z M78,4.5H73V2H78V4.5z M73,14.3
		c1-0.4,1.7-1,2.3-1.7c-0.3-0.5-0.5-1-0.8-1.6c-0.1,0.2-0.3,0.4-0.4,0.6c-0.2-0.3-0.8-0.8-1.1-1V14.3z M76.3,2.9h-1.7v0.6h1.7V2.9z
		 M75.5,9.1l-0.1,0.2c0.2,0.7,0.5,1.3,0.8,1.9c0.3-0.6,0.5-1.3,0.7-2.1H75.5z"/>
	<path class="st2" d="M80.4,2h6.3v1.5h-1.6V5h1.5v10.2h-1.4v-0.8h-3.3v1h-1.3V5h1.5V3.5h-1.7L80.4,2z M85.2,13.1V9.5h0h-0.5
		c-0.6,0-0.8-0.2-0.8-1.1v-2h-0.5v1.1c0,0.8-0.2,1.9-0.8,2.6c-0.1-0.1-0.4-0.4-0.6-0.5v3.4H85.2z M81.9,6.5v3.1
		c0.5-0.6,0.6-1.4,0.6-2V6.5H81.9z M82.4,10.8h2.4v1.4h-2.4V10.8z M83.9,3.5h-0.6V5h0.6V3.5z M85.2,6.5h-0.6v2c0,0.2,0,0.2,0.1,0.2
		h0.2c0.1,0,0.2,0,0.2,0V6.5z M94.3,7.1v1.6h-7.2V7.1h3V5.2h-1.2c-0.2,0.7-0.4,1.2-0.7,1.7c-0.3-0.2-1.1-0.6-1.5-0.8
		c0.6-1,1-2.7,1.2-4.3l1.6,0.3c-0.1,0.5-0.2,1-0.3,1.5h0.8V1.5h1.7v2.2H94v1.6h-2.3v1.8H94.3z M87.6,9.5h6.3v5.9h-1.7v-0.7h-3v0.7
		h-1.6V9.5z M89.2,11.1v2h3v-2H89.2z"/>
	<path class="st2" d="M108.9,3.8c0,0,0,0.6,0,0.8c-0.2,6.7-0.4,9.1-1,9.9c-0.4,0.6-0.8,0.7-1.4,0.8c-0.6,0.1-1.5,0.1-2.4,0
		c0-0.5-0.3-1.2-0.6-1.7c1,0.1,1.8,0.1,2.2,0.1c0.3,0,0.5-0.1,0.7-0.3c0.4-0.5,0.6-2.7,0.8-8H104c-0.4,0.9-0.9,1.7-1.3,2.4
		c-0.2-0.2-0.8-0.6-1.2-0.8v7h-4V15h-1.6V3.9h1.7C97.8,3.1,98,2.2,98,1.5l2,0.3c-0.3,0.8-0.5,1.5-0.8,2.1h2.3v2.4
		c0.9-1.3,1.6-3.1,2-4.8l1.7,0.4c-0.1,0.6-0.4,1.3-0.6,1.9H108.9z M99.9,5.4h-2.4v2.4h2.4V5.4z M99.9,12.4V9.4h-2.4v2.9H99.9z
		 M104.9,11.5c-0.4-0.9-1.4-2.4-2.1-3.5l1.4-0.8c0.8,1,1.7,2.5,2.2,3.3L104.9,11.5z"/>
	<path class="st2" d="M124,12.1c-0.6,0.3-1.2,0.6-1.7,0.9c0.6,0.4,1.3,0.8,2.1,1c-0.3,0.3-0.8,0.9-1,1.4c-2-0.7-3.3-2.1-4.1-4
		c-0.4,0.4-0.9,0.7-1.5,1v1.3l2.1-0.4c0,0.4,0,1,0,1.3c-2.8,0.6-3.3,0.7-3.6,0.9c-0.1-0.3-0.4-0.9-0.6-1.2c0.3-0.1,0.6-0.4,0.6-1
		v-0.1c-0.4,0.2-0.8,0.3-1.2,0.5c-0.2-0.3-0.4-0.6-0.7-0.9l0,0.1c-1.4,0.4-2.8,0.8-4.1,1.1l-0.3-1.6c0.4-0.1,0.9-0.2,1.5-0.3V8.2
		h-1.2V6.7h1.2V3.9h-1.3V2.3h4.1v1.6h-1.2v2.8h1.1v1.5h-1.1v3.3l1.1-0.3l0.1,1c1.1-0.3,2.2-0.7,3.1-1.2h-1.7V7.8h7.5V11h-2.5
		c0.2,0.4,0.4,0.7,0.6,1c0.6-0.3,1.1-0.7,1.5-1L124,12.1z M124,7.2h-9.2V5.8h9.2V7.2z M123.6,5.4h-8.2V1.9h8.2V5.4z M117.8,3.1h-0.9
		v1h0.9V3.1z M117.3,9.8h4.2V9h-4.2V9.8z M119.9,3.1h-1v1h1V3.1z M122,3.1h-1v1h1V3.1z"/>
	<path class="st2" d="M130.3,11.9c-1.5,0.6-3.3,1.3-4.6,1.9l-0.6-1.8c0.5-0.1,1.1-0.3,1.7-0.6V6.7h-1.5V5h1.5V1.7h1.7V5h1.3v1.7
		h-1.3v4c0.5-0.2,0.9-0.3,1.4-0.5L130.3,11.9z M137.3,13.9c0.1,0,0.2,0,0.3,0c0.1,0,0.1-0.1,0.2-0.3c0-0.2,0-0.6,0.1-1.1
		c0.3,0.3,0.9,0.6,1.4,0.7c0,0.6-0.1,1.2-0.2,1.4c-0.1,0.3-0.3,0.4-0.6,0.6c-0.2,0.1-0.6,0.1-0.9,0.1h-1c-0.4,0-0.9-0.1-1.1-0.4
		c-0.3-0.3-0.4-0.6-0.4-1.5v-1.8h-1.1c-0.3,2-1,3.2-3.8,3.9c-0.2-0.4-0.6-1.1-0.9-1.4c2.3-0.4,2.8-1.2,3.1-2.5h-1.2V7.1h7.2v4.5
		h-1.5v1.9c0,0.2,0,0.3,0.1,0.4c0.1,0,0.1,0.1,0.3,0.1H137.3z M138.8,6.6h-8.5V5.1h1.8c-0.1-0.3-0.2-0.7-0.3-1l1.4-0.3
		c0.2,0.4,0.4,0.9,0.5,1.3h1.7c0.2-0.4,0.3-0.9,0.4-1.3l1.6,0.3c-0.2,0.3-0.3,0.7-0.5,1h1.9V6.6z M138.4,3.8h-7.7V2.4h3
		c-0.1-0.2-0.2-0.5-0.3-0.7l1.7-0.3c0.1,0.3,0.3,0.7,0.4,1h2.9V3.8z M132.5,8.8h3.8V8.2h-3.8V8.8z M132.5,10.5h3.8V9.9h-3.8V10.5z"
		/>
</g>
<g>
	<path class="st2" d="M42,31.5v2.9H16.4v-2.9h11.2c-0.2-0.7-0.5-1.4-0.7-2l3.6-0.9c0.3,0.9,0.8,2,1.1,2.9H42z M41.4,52.7
		c0,1.5-0.4,2.1-1.5,2.6c-1,0.3-2.6,0.4-4.6,0.3c-0.2-0.8-0.6-1.7-1-2.4H26v1.2h-3.2v-7.7h12.6v6.4H35c1,0,2,0,2.3,0
		c0.4,0,0.6-0.1,0.6-0.5v-7H20.6v10.2h-3.3v-13h24.1V52.7z M38.6,41.7H20.3v-6.2h18.3V41.7z M35,37.8H23.7v1.6H35V37.8z M32.3,49.1
		H26v1.7h6.4V49.1z"/>
	<path class="st2" d="M45,30.1h15.2v3.3h-6.3c-0.3,1-0.7,1.9-1,2.7h7v16.7c0,1.2-0.2,2-0.9,2.4c-0.7,0.5-1.6,0.5-2.9,0.5
		c-0.1-0.6-0.4-1.6-0.7-2.3h-1.9V39h-1.3v14.3h-2.2V39h-1.5v16.7h-2.8V36.1h4.1c0.3-0.8,0.5-1.7,0.7-2.7H45V30.1z M57.1,39h-1.4v14
		c0.5,0,0.9,0,1.1,0c0.2,0,0.3-0.1,0.3-0.3V39z M71.8,38.1H70v14c0,1.7-0.4,2.6-1.4,3.1c-1,0.5-2.4,0.7-4.5,0.7
		c-0.2-0.9-0.7-2.3-1.2-3.2c1.4,0.1,2.7,0.1,3.1,0.1c0.5,0,0.6-0.1,0.6-0.6v-14h-6.1v-3.2h6.1v-5.9H70v5.9h1.8V38.1z M63.4,40.3
		c1.1,2,2.1,4.6,2.3,6.4l-3,1.1c-0.2-1.7-1.1-4.4-2.2-6.5L63.4,40.3z"/>
	<path class="st2" d="M93.5,34.1c-0.7,2.8-1.7,5.4-2.8,7.7c1.9,4.8,5.6,8.8,10.3,10.8c-0.8,0.7-2,2.2-2.5,3.1
		c-4.4-2.1-7.6-5.7-9.9-10.2c-3.2,4.8-7.4,8.3-12.1,10.4c-0.6-0.9-1.8-2.5-2.7-3.1c6.9-2.8,12.4-8.2,15.1-16.2h-6.1
		c-1.7,3.3-3.9,6.1-6.2,8.2c-0.6-0.7-2.2-2-3.1-2.6c3.9-2.9,6.8-7.9,8.4-13.4l3.8,0.8c-0.4,1.2-0.8,2.3-1.3,3.5h5.9L91,33L93.5,34.1
		z"/>
	<path class="st2" d="M112.8,44.3c-1,0.3-2.1,0.6-3.1,0.8V52c0,1.7-0.3,2.5-1.3,3c-1,0.5-2.3,0.6-4.4,0.6c-0.1-0.9-0.6-2.2-1-3.1
		c1.1,0,2.3,0,2.7,0c0.4,0,0.6-0.1,0.6-0.6v-6l-2.8,0.7l-0.9-3.3c1.1-0.2,2.3-0.5,3.7-0.8v-5.1H103v-3.2h3.3v-5.5h3.4v5.5h2.8v3.2
		h-2.8v4.3l2.7-0.7L112.8,44.3z M128.9,40.3c-1.1,4-3,7.2-5.4,9.6c1.9,1.3,4.1,2.3,6.7,2.9c-0.7,0.7-1.7,2.1-2.2,3
		c-2.8-0.8-5.2-2-7.2-3.7c-2.3,1.6-4.8,2.7-7.6,3.6c-0.4-0.9-1.2-2.4-1.9-3.1c2.6-0.6,4.9-1.5,6.9-2.8c-1.7-1.9-3.1-4.2-4.1-6.9
		l0.9-0.3h-1.5v-3.1h5.7v-3.5H113v-3.2h6.2v-4.1h3.4v4.1h6.5v3.2h-6.5v3.5h3.5l0.6-0.1L128.9,40.3z M117.5,42.7
		c0.8,1.9,2,3.7,3.4,5.1c1.5-1.5,2.8-3.2,3.6-5.1H117.5z"/>
	<path class="st2" d="M158.8,41h-2.2v10.8c0,1.6-0.2,2.5-1.3,3.1c-1,0.6-2.4,0.6-4.3,0.6c-0.1-1-0.5-2.3-0.9-3.3
		c1.2,0.1,2.4,0.1,2.8,0c0.4,0,0.5-0.1,0.5-0.4V41h-2.5v-2.3h-4.2v17h-3v-17h-3.8v-2c-0.5,1-1,2.1-1.7,3.2v16h-3.2V44.3
		c-0.6,0.6-1.1,1.2-1.6,1.7c-0.3-0.7-1.3-2.4-1.9-3.2c2.2-1.9,4.4-5,5.7-8l2.7,0.9v-0.2h3.8v-6.7h3v6.7h4.4v2.3h7.9L158.8,41z
		 M139.6,29.9c-1.5,2.6-3.8,5.4-6,7.1c-0.4-0.7-1.2-2-1.8-2.6c1.8-1.5,3.8-3.8,4.7-5.6L139.6,29.9z M142.6,40.3
		c0,5.5-0.3,9.2-2.6,11.4c-0.3-0.6-1-1.6-1.6-2c1.6-1.8,1.7-4.6,1.8-9.4H142.6z M149.1,35c-0.4-1-1.3-2.6-2.2-3.7l2.1-1.1
		c0.9,1.1,1.9,2.6,2.3,3.6L149.1,35z M150.2,50.8c-2.3,0-2.7-0.9-2.7-3.4v-7.1h2.5v7.2c0,0.8,0,1,0.2,1h0.7c0.3,0,0.7-0.1,1-0.1
		c0.1,0.6,0.1,1.8,0.2,2.3c-0.3,0.2-0.8,0.2-1.2,0.2H150.2z M158.4,34h-6.9v-3h6.9V34z"/>
</g>
</svg>
