<?xml version="1.0" encoding="utf-8"?>
<!-- Generator: Adobe Illustrator 26.0.3, SVG Export Plug-In . SVG Version: 6.00 Build 0)  -->
<svg version="1.1" id="text-feature-03-02.svg" xmlns="http://www.w3.org/2000/svg" xmlns:xlink="http://www.w3.org/1999/xlink"
	 x="0px" y="0px" viewBox="0 0 266.5 29.4" style="enable-background:new 0 0 266.5 29.4;" xml:space="preserve">
<style type="text/css">
	.st0{fill:none;stroke:#1147B4;stroke-width:2;stroke-linecap:round;stroke-dasharray:1.000000e-03,4;}
	.st1{fill:#1147B4;}
</style>
<path id="シェイプ_1024" class="st0" d="M1,28.4h264.5"/>
<g>
	<path class="st1" d="M5.6,11.3c-0.8-0.8-2.5-1.8-3.9-2.4l1.6-2.1c1.4,0.5,3.1,1.4,4,2.2L5.6,11.3z M7.9,14.8
		c-0.9,2.5-2,5.3-3.1,7.6l-2.6-1.6c1-1.8,2.3-4.8,3.3-7.6L7.9,14.8z M6.7,4.9C5.9,4.2,4.2,3,2.8,2.4l1.6-2.1
		c1.3,0.6,3.1,1.6,3.9,2.3L6.7,4.9z M20.1,8.9c1.2,1.3,2.7,2.5,4.5,3.1c-0.6,0.5-1.4,1.5-1.8,2.2c-0.3-0.1-0.6-0.3-1-0.5
		c1.1,1.7,2.2,3.8,2.7,5.3l-2.4,1.2c-0.5-1.6-1.7-4.2-3-6l1.9-0.9c-1.6-1.1-3-2.6-4-4.4h-2.2c-1.1,1.9-2.4,3.6-4.3,4.9l2.1,0.8
		c-0.6,2-1.5,4.1-3,5.5l-2.1-1.5c1.3-1.2,2.3-3,2.9-4.8c-0.5,0.3-1,0.6-1.6,0.9c-0.4-0.6-1.2-1.7-1.8-2.2c1.9-0.9,3.4-2.2,4.5-3.7H8
		V6.2H13c0.3-0.7,0.5-1.4,0.7-2.2H9.1V1.4h14.1V4h-6.5c-0.2,0.7-0.4,1.5-0.7,2.2h8v2.6H20.1z M18.2,14.1c0.7,1.6,1.4,3.6,1.7,4.9
		l-2.2,0.9c-0.2-1.3-0.9-3.4-1.6-5v4.9c0,1.2-0.2,1.9-1,2.4c-0.8,0.4-1.9,0.5-3.4,0.5c-0.1-0.8-0.4-1.8-0.7-2.6c0.9,0,1.8,0,2.1,0
		s0.4-0.1,0.4-0.3v-8.5h2.6v3.6L18.2,14.1z"/>
	<path class="st1" d="M37.1,4.5c0,0,0,0.9,0,1.3c-0.2,10.2-0.4,13.9-1.1,15c-0.6,0.8-1.1,1.1-1.8,1.2c-0.7,0.1-1.8,0.1-2.9,0.1
		c0-0.8-0.3-2-0.8-2.9c1,0.1,1.8,0.1,2.3,0.1c0.4,0,0.6-0.1,0.8-0.4c0.5-0.6,0.6-3.6,0.8-11.6h-2.4c-0.2,6.4-1.1,11.8-4.2,15.3
		c-0.4-0.7-1.4-1.7-2.1-2.1c2.7-3,3.3-7.6,3.5-13.2h-2.8V4.5h2.8c0-1.3,0-2.6,0-4h2.8c0,1.3,0,2.7,0,4H37.1z M47.1,2.9v19h-2.9v-1.5
		h-3.1v1.7h-2.8V2.9H47.1z M44.2,17.7v-12h-3.1v12H44.2z"/>
	<path class="st1" d="M60.7,0.1v2.6h-5.1v12.7h-2.9V0.1H60.7z"/>
	<path class="st1" d="M75.4,16.7c2.9,1,6.7,2.5,8.7,3.5l-1.3,2.4c-2.1-1.2-6.5-3-9.6-4.2l1.1-1.8h-0.9c-1.2,3-3.7,4.8-10.1,5.9
		c-0.2-0.8-0.9-2-1.4-2.6c4.8-0.6,7.1-1.7,8.2-3.3h-7.2v-2.4h8.1c0.1-0.4,0.1-0.8,0.2-1.2h-8.8v-2.5h9.2V9.3h-7.1V6.9h7.1V5.6H63
		V3.1h4.6c-0.4-0.7-0.9-1.5-1.3-2.1l2.5-1c0.7,0.8,1.5,2,1.8,2.8l-0.7,0.3h5.3c0.6-0.9,1.3-2.2,1.7-3.1l3.1,0.8
		c-0.5,0.8-1.1,1.6-1.6,2.3h4.6v2.5h-8.5v1.2h7.3v2.4h-7.3v1.3H84V13h-9.9c0,0.4-0.1,0.8-0.2,1.2h9.4v2.4H75.4z"/>
	<path class="st1" d="M105.7,19.6c0.1,0,0.2,0,0.3-0.1c0.1-0.1,0.1-0.3,0.1-0.8c0-0.5,0.1-1.7,0.1-3.1c0.6,0.5,1.5,1,2.2,1.2
		c0,1.3-0.1,2.9-0.3,3.6c-0.1,0.7-0.4,1.2-0.8,1.5c-0.3,0.3-0.9,0.4-1.4,0.4h-1.4c-0.6,0-1.2-0.2-1.7-0.6c-0.5-0.5-0.6-1-0.6-3.1
		V3.8h-2.6v7.1c0,3.7-0.3,8.9-2.6,12c-0.5-0.5-1.7-1.3-2.4-1.7c-0.1,0.3-0.4,0.5-0.7,0.7c-0.7,0.5-1.8,0.5-3.3,0.5
		c-0.1-0.7-0.4-2-0.8-2.7c0.9,0,1.8,0,2,0c0.3,0,0.4-0.1,0.4-0.4v-5.5c-0.6,0.6-1.2,1.2-1.8,1.8L89.8,14c-0.2,3-0.7,6.3-1.8,8.6
		c-0.5-0.4-1.7-1.1-2.4-1.3c1.5-3.3,1.6-8.1,1.6-11.6V1H95v18.3c0,0.6,0,1.2-0.2,1.6c1.8-2.8,2-6.8,2-10V1h8.3v17.4
		c0,0.6,0,0.9,0.1,1c0,0.1,0.1,0.1,0.2,0.1H105.7z M89.9,9.7c0,1,0,2-0.1,3.1c0.7-0.5,1.6-1.1,2.5-1.8V9.3L91.5,10
		c-0.4-0.5-1-1.2-1.6-1.9V9.7z M89.9,3.7v2.8l0.7-0.6c0.6,0.5,1.2,1.1,1.7,1.7V3.7H89.9z"/>
	<path class="st1" d="M116.1,16.3h3.7v2.5h-3.7v3.8h-2.5v-3.8h-3.9v-2.5h3.9v-1.4h-3.1V6.2h3.1V5h-3.5V2.5h3.5V0.2h2.5v2.3h3.4V5
		h-3.4v1.2h3.2v8.7h-3.2V16.3z M112.6,9.6h1.4V8.2h-1.4V9.6z M112.6,12.9h1.4v-1.4h-1.4V12.9z M117.3,8.2h-1.5v1.4h1.5V8.2z
		 M117.3,11.5h-1.5v1.4h1.5V11.5z M127.1,5.7v1.5h4.5v12.7c0,1.1-0.1,1.8-0.8,2.3c-0.6,0.4-1.5,0.5-2.6,0.5
		c-0.1-0.7-0.3-1.8-0.6-2.5c0.5,0,1,0,1.2,0c0.2,0,0.2-0.1,0.2-0.3v-2.4h-1.8v5.1h-2.5v-5.1h-1.8v5.2h-2.5V7.1h4.3V5.7h-4.7V3.2h4.7
		v-3h2.5v3h2.6c-0.6-0.6-1.4-1.3-2.1-1.8l1.6-1.3c0.9,0.6,2.1,1.5,2.6,2.2l-1.1,0.9h1.3v2.5H127.1z M122.8,9.6v1.5h1.8V9.6H122.8z
		 M124.6,15v-1.6h-1.8V15H124.6z M127.1,9.6v1.5h1.8V9.6H127.1z M128.9,15v-1.6h-1.8V15H128.9z"/>
	<path class="st1" d="M155.4,6.6c-0.2,9.8-0.4,13.4-1.2,14.5c-0.6,0.8-1.1,1.1-2,1.2c-0.8,0.1-2,0.1-3.3,0.1c0-0.8-0.3-2-0.8-2.7
		c1.2,0.1,2.3,0.1,2.8,0.1c0.4,0,0.6-0.1,0.8-0.4c0.6-0.6,0.8-3.6,0.9-11.3h-2.5c-0.4,6.3-1.7,11.4-6.3,14.6c-0.4-0.7-1.3-1.7-2-2.2
		c1.2-0.8,2.1-1.7,2.8-2.7c-3.7,0.9-7.6,1.8-10.5,2.5l-0.5-2.9c0.5-0.1,1.1-0.2,1.7-0.3V1.2h8.3v14.1l1-0.2l0.3,2.3
		c1.6-2.5,2.2-5.6,2.4-9.3h-3V5.4h3.1c0-1.6,0-3.3,0-5.2h2.8c0,1.8,0,3.5,0,5.2h5.2V6.6z M137.8,3.7v2.4h3.2V3.7H137.8z M141,8.7
		h-3.2v2.5h3.2V8.7z M137.8,16.5c1-0.2,2.1-0.4,3.2-0.6v-2.3h-3.2V16.5z"/>
	<path class="st1" d="M164.7,1.1c-0.5,1.5-1.1,3-1.8,4.5v17h-2.7v-12c-0.5,0.7-1,1.4-1.5,2c-0.2-0.7-0.9-2.3-1.4-3.1
		c1.9-2.3,3.7-5.8,4.8-9.3L164.7,1.1z M178.1,4.9c-0.7,1.4-1.6,2.5-2.7,3.5c1.5,0.7,3.2,1.3,5.2,1.6c-0.5,0.5-1.2,1.6-1.5,2.3
		c-2.2-0.5-4.1-1.3-5.7-2.3c-1.6,1.1-3.5,1.9-5.5,2.5c-0.2-0.4-0.8-1.2-1.2-1.7v7.8h-2.5V3.2h2.5v2.5c1.6-1.5,2.9-3.5,3.6-5.6
		l2.6,0.6c-0.2,0.6-0.5,1.2-0.8,1.8h7.8v2.3H178.1z M166.7,10.2c1.7-0.4,3.2-1,4.6-1.8c-0.7-0.6-1.3-1.2-1.8-1.8
		c-0.4,0.5-0.9,1-1.4,1.4c-0.3-0.3-0.9-0.8-1.4-1.2V10.2z M180.1,17.1c-2.5,2.9-6.7,4.5-11.6,5.4c-0.3-0.7-0.9-1.6-1.4-2.3
		c4.4-0.6,8.6-1.9,10.6-4.2L180.1,17.1z M175.7,12.1c-1.5,1.5-3.9,2.6-6.1,3.4c-0.3-0.5-1-1.2-1.5-1.6c2-0.5,4.3-1.5,5.5-2.6
		L175.7,12.1z M178,14.2c-1.9,2.1-5.1,3.5-8.4,4.3c-0.3-0.5-0.9-1.3-1.4-1.8c3-0.6,6.1-1.8,7.7-3.4L178,14.2z M170.9,4.9
		c0.6,0.8,1.4,1.5,2.3,2.2c0.8-0.6,1.4-1.4,1.9-2.2H170.9z"/>
	<path class="st1" d="M190.7,6.4h-8.9V4.2h4c-0.4-0.9-1-2.1-1.5-3l2.1-1c0.6,1,1.4,2.3,1.8,3.2l-1.6,0.9h4.1V6.4z M203.3,16
		c-0.8,1.4-1.9,2.6-3.3,3.6c1.3,0.4,2.9,0.6,4.4,0.8c-0.6,0.6-1.2,1.6-1.6,2.3c-2.1-0.3-4-0.8-5.6-1.6c-1.8,0.8-3.9,1.3-6.1,1.6
		c-0.2-0.6-0.7-1.6-1.2-2.2v0.9h-4.9v1h-2.3V14h7.2v6.4c1.7-0.2,3.4-0.5,4.8-1c-0.7-0.6-1.3-1.2-1.9-2l0.9-0.3h-2.6v-1.9h10l0.4-0.1
		L203.3,16z M194.1,3.5h-3.3V1.4h3.3V0.2h2.5v4.4h-2.1l0.6,0.2c-0.1,0.4-0.3,0.7-0.5,1.1h2.1c-0.1-0.4-0.2-0.8-0.4-1.1l2-0.5V0.2
		h2.5v1.2h3.2v2.1h-3.2v1.2h-1.8c0.2,0.4,0.3,0.8,0.4,1.2h3.9v1.7h-4.1v0.8h3.5v1.4h-3.5v0.8h3.5V12h-3.5v0.9h4.6v1.7h-9.5v0.4h-2.4
		V10c-0.3,0.3-0.6,0.6-0.8,0.9c-0.2-0.5-0.9-1.5-1.3-2v0.7h-7.1V7.5h7.1v1.2c1.2-1.2,2.3-2.9,2.9-4.6l1.3,0.4V3.5z M182.8,10.7h7.1
		v2.2h-7.1V10.7z M187.6,16.3h-2.5V19h2.5V16.3z M197,7.6h-2.5v0.8h2.5V7.6z M197,9.8h-2.5v0.8h2.5V9.8z M197,12h-2.5v0.9h2.5V12z
		 M195.6,17.2c0.5,0.5,1.1,0.9,1.8,1.3c0.7-0.4,1.4-0.8,2-1.3H195.6z"/>
	<path class="st1" d="M211.7,11.7c0-5.9,3.8-9.3,8.3-9.3c2.3,0,4.1,1.1,5.2,2.3L223.4,7c-0.9-0.9-1.9-1.5-3.3-1.5
		c-2.7,0-4.7,2.3-4.7,6.1c0,3.9,1.8,6.2,4.6,6.2c1.5,0,2.7-0.7,3.7-1.8l1.9,2.2c-1.5,1.7-3.4,2.6-5.7,2.6
		C215.4,20.9,211.7,17.6,211.7,11.7z"/>
	<path class="st1" d="M228.4,2.7h5.8c3.9,0,7,1.4,7,5.6c0,4.1-3,5.9-6.9,5.9H232v6.3h-3.6V2.7z M234.1,11.4c2.4,0,3.6-1,3.6-3.1
		c0-2.1-1.3-2.8-3.7-2.8h-2v5.8H234.1z"/>
	<path class="st1" d="M246.8,11.4l-4.7-8.6h3.9l1.8,3.7c0.4,0.8,0.8,1.7,1.3,2.8h0.1c0.4-1.1,0.8-2,1.2-2.8l1.7-3.7h3.7l-4.7,8.8
		l5,9h-3.9l-2-3.9c-0.5-0.9-0.9-1.8-1.4-2.9h-0.1c-0.4,1.1-0.9,2-1.3,2.9l-1.9,3.9h-3.8L246.8,11.4z"/>
	<path class="st1" d="M256.8,22.7v-2.6h5.1V7.4h2.9v15.3H256.8z"/>
</g>
</svg>
