<svg id="text-feature-01.svg" xmlns="http://www.w3.org/2000/svg" width="180.844" height="77.75" viewBox="0 0 180.844 77.75">
  <defs>
    <style>
      .cls-1 {
        fill: none;
        stroke: #1147b4;
        stroke-linecap: round;
        stroke-width: 2px;
        stroke-dasharray: 0.001 4;
      }

      .cls-1, .cls-2 {
        fill-rule: evenodd;
      }

      .cls-2 {
        fill: #1147b4;
      }
    </style>
  </defs>
  <path id="シェイプ_1024" data-name="シェイプ 1024" class="cls-1" d="M208,1643H364" transform="translate(-194 -1614.25)"/>
  <g id="最高_レベルの_紫外線防御効果" data-name="最高 レベルの 紫外線防御効果">
    <path id="最高_レベルの_紫外線防御効果-2" data-name="最高 レベルの 紫外線防御効果" class="cls-2" d="M218.74,1636.33c0.24,0,.264-0.02.264-0.26,0-.15-0.048-1.03-0.048-2.88v-8.04h8.133c2.087,0,2.783.05,2.927,0.05,0.216,0,.24-0.02.24-0.26v-1.51c0-.24-0.024-0.27-0.24-0.27-0.144,0-.84.05-2.927,0.05h-15.4c-2.087,0-2.783-.05-2.926-0.05-0.24,0-.264.03-0.264,0.27v1.51c0,0.24.024,0.26,0.264,0.26,0.119,0,.743-0.02,2.375-0.05v7.54a3.154,3.154,0,0,1-.432.04,19.612,19.612,0,0,1-2.255.17,16.129,16.129,0,0,0,.479,1.92,0.445,0.445,0,0,0,.336.39,0.9,0.9,0,0,0,.384-0.15,2.87,2.87,0,0,1,.864-0.24c1.943-.29,4.318-0.72,6.238-1.13-0.024,1.49-.048,2.23-0.048,2.38,0,0.24.024,0.26,0.264,0.26h1.775Zm-1.991-4.46c-1.08.19-2.256,0.36-3.383,0.53v-1.66h3.383v1.13Zm-3.383-5.45v-1.27h3.383v1.27h-3.383Zm0,2.79v-1.25h3.383v1.25h-3.383ZM215,1615.22c-2.375,0-3.191-.05-3.359-0.05-0.239,0-.263.03-0.263,0.29,0,0.14.048,0.67,0.048,1.97v2.52c0,1.29-.048,1.82-0.048,1.96,0,0.27.024,0.29,0.263,0.29,0.168,0,.984-0.05,3.359-0.05h8.733c2.375,0,3.215.05,3.359,0.05,0.24,0,.264-0.02.264-0.29,0-.14-0.048-0.67-0.048-1.96v-2.52c0-1.3.048-1.83,0.048-1.97,0-.26-0.024-0.29-0.264-0.29-0.144,0-.984.05-3.359,0.05H215Zm9.933,5.25H213.8v-1.03H224.93v1.03ZM213.8,1617H224.93v1H213.8v-1Zm8.709,9.57c-1.9,0-2.5-.05-2.639-0.05-0.24,0-.264.02-0.264,0.26v1.4c0,0.26.024,0.28,0.264,0.28,0.071,0,.239,0,0.623-0.02a13.585,13.585,0,0,0,2.351,3.84,13.3,13.3,0,0,1-3.862,1.8,4.533,4.533,0,0,1,.888,1.37,0.674,0.674,0,0,0,.431.55,2.219,2.219,0,0,0,.48-0.17,16.524,16.524,0,0,0,3.623-2.11,13.421,13.421,0,0,0,4.1,2.06c0.624,0.19.672,0.19,0.912-.45a7.255,7.255,0,0,1,.84-1.54,13.16,13.16,0,0,1-4.247-1.63,12.776,12.776,0,0,0,1.944-2.9,2.5,2.5,0,0,1,.647-1.01,0.481,0.481,0,0,0,.24-0.43,1.412,1.412,0,0,0-.648-0.89,1.3,1.3,0,0,0-.839-0.55,0.955,0.955,0,0,0-.36.09,1.221,1.221,0,0,1-.432.1h-4.054Zm3.574,1.85a9.484,9.484,0,0,1-1.655,2.49,8.52,8.52,0,0,1-1.752-2.49h3.407Zm28.271,0.36c0-1.76.048-2.6,0.048-2.74,0-.24-0.024-0.26-0.264-0.26-0.168,0-.959.04-3.239,0.04H238.47c-2.279,0-3.071-.04-3.239-0.04-0.24,0-.264.02-0.264,0.26,0,0.14.048,0.86,0.048,2.54v4.66c0,1.85-.048,2.56-0.048,2.71,0,0.24.024,0.26,0.264,0.26h2.063c0.24,0,.264-0.02.264-0.26,0-.12-0.048-0.94-0.048-2.71v-5.38h14.347v5.26a0.549,0.549,0,0,1-.6.67,11.863,11.863,0,0,1-1.535-.1,5.608,5.608,0,0,1,.5,1.59c0.12,0.69.144,0.74,0.887,0.74,1.728,0,2.28-.12,2.711-0.5a2.209,2.209,0,0,0,.576-1.73c0-.74-0.048-1.75-0.048-3.05v-1.96Zm-12.547-9.17c-2.184,0-2.951-.05-3.095-0.05-0.24,0-.264.03-0.264,0.27,0,0.16.048,0.52,0.048,1.56v1.46c0,0.98-.048,1.37-0.048,1.51,0,0.24.024,0.26,0.264,0.26,0.144,0,.911-0.04,3.095-0.04h5.782c2.183,0,2.951.04,3.094,0.04,0.24,0,.264-0.02.264-0.26,0-.14-0.048-0.53-0.048-1.51v-1.46c0-1.04.048-1.4,0.048-1.56,0-.24-0.024-0.27-0.264-0.27-0.143,0-.911.05-3.094,0.05h-5.782Zm6.741,3.29h-7.725v-1.59h7.725v1.59Zm3.383-4.46c2.159,0,2.9.04,3.047,0.04,0.24,0,.264-0.02.264-0.26v-1.68c0-.24-0.024-0.26-0.264-0.26-0.144,0-.888.04-3.047,0.04h-6.142v-0.07a4.725,4.725,0,0,1,.1-1.15,1.411,1.411,0,0,0,.168-0.48,0.347,0.347,0,0,0-.384-0.24c-0.815-.07-1.655-0.12-2.543-0.12a8.235,8.235,0,0,1,.168,1.99v0.07h-5.83c-2.159,0-2.9-.04-3.047-0.04-0.24,0-.264.02-0.264,0.26v1.68c0,0.24.024,0.26,0.264,0.26,0.144,0,.888-0.04,3.047-0.04h14.467ZM241.9,1634.61c0.24,0,.264-0.03.264-0.27v-0.65h4.87v0.51c0,0.24.024,0.26,0.288,0.26H249.1c0.24,0,.264-0.02.264-0.26,0-.15-0.048-0.53-0.048-2.69v-1.06c0-.69.048-1.12,0.048-1.27,0-.24-0.024-0.26-0.264-0.26-0.168,0-.792.05-2.591,0.05h-3.743c-1.823,0-2.447-.05-2.591-0.05-0.24,0-.264.02-0.264,0.26,0,0.15.048,0.6,0.048,1.51v0.89c0,2.21-.048,2.59-0.048,2.76,0,0.24.024,0.27,0.264,0.27H241.9Zm0.264-4.04h4.87v1.54h-4.87v-1.54Zm30.408-9.21a9.843,9.843,0,0,1,.264-2.97,1.9,1.9,0,0,0,.12-0.51,0.453,0.453,0,0,0-.384-0.45,24.311,24.311,0,0,0-3.119-.53,22.664,22.664,0,0,1,.264,4.17l-0.048,9.02a4.719,4.719,0,0,1-.1,1.37,1.007,1.007,0,0,0-.12.41,0.586,0.586,0,0,0,.144.38,7.515,7.515,0,0,0,1.463,1.64,0.637,0.637,0,0,0,.408.19,0.693,0.693,0,0,0,.432-0.19,5.222,5.222,0,0,1,1.344-.77,53.747,53.747,0,0,0,5.878-2.98,39.028,39.028,0,0,0,6-4.12,0.761,0.761,0,0,0,.24-0.96,10.809,10.809,0,0,1-.384-2.79,29.583,29.583,0,0,1-6.357,4.9,39.751,39.751,0,0,1-6.118,3.02Zm16.538,5.52a27.7,27.7,0,0,0,2.231,2.11,0.5,0.5,0,0,0,.336.17,0.546,0.546,0,0,0,.432-0.31,7.877,7.877,0,0,1,.96-1.23c1.655-1.82,2.735-3.11,3.91-4.34a0.5,0.5,0,0,1,.384-0.19,0.6,0.6,0,0,1,.384.17,109.053,109.053,0,0,0,10.628,8.37,0.416,0.416,0,0,0,.264.1,0.509,0.509,0,0,0,.36-0.27,14.041,14.041,0,0,0,1.248-2.08,0.419,0.419,0,0,0-.216-0.65,76.17,76.17,0,0,1-10.748-7.8,2.778,2.778,0,0,0-2.088-.98c-0.743,0-1.2.26-2.159,1.27-1.127,1.2-2.3,2.42-3.479,3.62A11.023,11.023,0,0,1,289.111,1626.88Zm13.1-7.73a11.88,11.88,0,0,1,2.423,2.79,0.249,0.249,0,0,0,.408.07l1.007-.74a0.247,0.247,0,0,0,.072-0.39,10.91,10.91,0,0,0-2.279-2.56c-0.144-.12-0.24-0.15-0.36-0.05Zm2.207-1.58a11.484,11.484,0,0,1,2.4,2.76,0.245,0.245,0,0,0,.408.07l0.959-.74a0.276,0.276,0,0,0,.072-0.43,9.956,9.956,0,0,0-2.279-2.47,0.242,0.242,0,0,0-.36-0.05Zm22.513,3.74a6.652,6.652,0,0,1,.216-2.66,1.508,1.508,0,0,0,.192-0.6,0.446,0.446,0,0,0-.432-0.41,23.979,23.979,0,0,0-3-.5,19.122,19.122,0,0,1,.24,4.17v7.51a4.133,4.133,0,0,1-.144,1.83,0.726,0.726,0,0,0-.1.36,0.973,0.973,0,0,0,.216.5,6.932,6.932,0,0,0,1.439,1.46,1.047,1.047,0,0,0,.5.2,0.773,0.773,0,0,0,.48-0.2c0.216-.16.264-0.21,0.7-0.5a39.232,39.232,0,0,0,4.27-2.88,30.1,30.1,0,0,0,3.551-3.14,0.917,0.917,0,0,0,.36-0.6,1.217,1.217,0,0,0-.144-0.41,6.886,6.886,0,0,1-.744-2.42,23.36,23.36,0,0,1-4.2,4.08,25.3,25.3,0,0,1-3.407,2.23v-8.02Zm-8.373-2.66a6.451,6.451,0,0,1,.24,2.02c-0.024,3.84-.336,5.15-1.008,6.79a11.96,11.96,0,0,1-3.982,4.77,8.37,8.37,0,0,1,2.039,1.01,0.812,0.812,0,0,0,.456.19,1.1,1.1,0,0,0,.624-0.31,12.4,12.4,0,0,0,3.406-4.51,18,18,0,0,0,1.3-7.06,3.471,3.471,0,0,1,.288-1.63,0.475,0.475,0,0,0-.312-0.74A19.817,19.817,0,0,0,318.558,1618.65Zm32.949,1.03a5.45,5.45,0,0,1,5.374,5.57c0,4.53-3.191,6.21-7.245,7.17a5.161,5.161,0,0,1,1.679,1.51,0.77,0.77,0,0,0,1.032.44c4.87-1.47,7.389-4.28,7.389-8.74,0-4.77-3.383-8.32-9.141-8.32a10.479,10.479,0,0,0-7.8,3.07,8.838,8.838,0,0,0-2.711,6.24c0,3.91,2.135,6.16,4.246,6.16,1.8,0,3.047-.96,4.079-2.76a30.05,30.05,0,0,0,3-10.34h0.1Zm-2.879.15a27.5,27.5,0,0,1-2.543,8.59c-0.648,1.15-1.176,1.46-1.8,1.46-0.743,0-1.631-1.22-1.631-3.43a6.915,6.915,0,0,1,1.871-4.44A7.162,7.162,0,0,1,348.628,1619.83Zm-134.414,52.24a0.311,0.311,0,0,0-.24.22,0.318,0.318,0,0,0,.144.21l1.079,1.06c-1.583.12-3.359,0.22-5.23,0.29a35.812,35.812,0,0,0,3.335-2.86,3.217,3.217,0,0,1,.768-0.53,0.387,0.387,0,0,0,.336-0.33,0.443,0.443,0,0,0-.288-0.36,21.135,21.135,0,0,0-1.944-1.03,5.267,5.267,0,0,1-.911,1.17,38.959,38.959,0,0,1-3.359,3.17l-1.32-1.03c0.768-.7,1.464-1.42,2.184-2.16a2.052,2.052,0,0,1,.671-0.55,0.425,0.425,0,0,0,.312-0.29,0.459,0.459,0,0,0-.288-0.36,15.663,15.663,0,0,0-1.559-.84,3.934,3.934,0,0,0,.576-0.12c0.791-.17.791-0.17,0.863-0.94a8.6,8.6,0,0,1,.216-1.22c-1.319.26-2.471,0.5-3.574,0.67v-2.21h1.175c1.248,0,1.656.05,1.8,0.05,0.24,0,.264-0.02.264-0.26v-1.51c0-.24-0.024-0.27-0.264-0.27-0.143,0-.551.05-1.8,0.05h-1.175v-0.24a4.038,4.038,0,0,1,.144-1.61,0.706,0.706,0,0,0,.143-0.43c0-.12-0.143-0.19-0.383-0.21a21.366,21.366,0,0,0-2.3-.17,14.275,14.275,0,0,1,.168,2.59v4.58l-1.607.19v-3.19a3.748,3.748,0,0,1,.12-1.48,0.556,0.556,0,0,0,.144-0.39c0-.14-0.12-0.21-0.336-0.24-0.672-.07-1.463-0.12-2.207-0.14a11.431,11.431,0,0,1,.144,2.25v3.41c-0.672.05-1.248,0.07-1.92,0.07,0.12,0.79.216,1.37,0.384,2.07a0.38,0.38,0,0,0,.36.33,0.819,0.819,0,0,0,.384-0.12,2.98,2.98,0,0,1,.864-0.19c2.807-.36,4.894-0.7,7.269-1.2a4.913,4.913,0,0,1-.528.82,21.184,21.184,0,0,1-1.919,2.03c-0.576-.38-1.152-0.76-1.775-1.12-0.192-.12-0.264-0.1-0.48.07l-1.248.91c-0.216.14-.264,0.26-0.024,0.38a29.787,29.787,0,0,1,4.1,2.91c-1.512.02-3.023,0.05-4.487,0.05-0.719,0-1.487-.03-2.5-0.1,0.12,0.72.288,1.44,0.456,2.11a0.379,0.379,0,0,0,.36.31,0.773,0.773,0,0,0,.384-0.09,1.82,1.82,0,0,1,.888-0.15c2.183-.02,4.582-0.07,7.005-0.19v2.76c0,1.54-.048,2.23-0.048,2.4,0,0.21.024,0.24,0.24,0.24h2.039c0.264,0,.288-0.03.288-0.24,0-.15-0.048-0.86-0.048-2.4v-2.88c2.351-.14,4.63-0.29,6.6-0.48a14.822,14.822,0,0,1,.839,1.25c0.12,0.21.168,0.19,0.456,0.02l1.464-.84c0.24-.14.216-0.24,0.1-0.45a22.156,22.156,0,0,0-3.551-3.84,0.308,0.308,0,0,0-.48-0.05Zm-1.512-7.39a30.659,30.659,0,0,0,4.87-1.68,2.586,2.586,0,0,1,1.056-.36,0.289,0.289,0,0,0,.336-0.26,0.667,0.667,0,0,0-.192-0.36,13.317,13.317,0,0,0-1.416-1.56,4.818,4.818,0,0,1-1.1.74,22.35,22.35,0,0,1-3.551,1.4v-0.77a4.409,4.409,0,0,1,.12-1.56,0.858,0.858,0,0,0,.144-0.41c0-.14-0.144-0.22-0.456-0.24a19.958,19.958,0,0,0-2.231-.19,15.165,15.165,0,0,1,.12,2.35v4.89a1.5,1.5,0,0,0,.864,1.59,12.166,12.166,0,0,0,3.31.38,8.4,8.4,0,0,0,3.911-.6c0.672-.41,1.056-1.1,1.2-2.52,0.048-.62.048-0.67-0.576-0.81a6.427,6.427,0,0,1-1.656-.63,3.2,3.2,0,0,1-.5,2.16,4.552,4.552,0,0,1-2.256.36,6.963,6.963,0,0,1-1.631-.14c-0.312-.07-0.36-0.27-0.36-0.79v-0.99Zm-0.576,12.36c-0.24.17-.288,0.24-0.1,0.43a17.632,17.632,0,0,0,4.823,3.31,1.63,1.63,0,0,0,.551.19,0.884,0.884,0,0,0,.552-0.57,7.564,7.564,0,0,1,1.224-1.37,14.54,14.54,0,0,1-5.3-2.83,0.335,0.335,0,0,0-.216-0.15,0.474,0.474,0,0,0-.264.15Zm-8.205-.87a5.416,5.416,0,0,1-.983.99,15.7,15.7,0,0,1-4.295,2.09,4.35,4.35,0,0,1,1.1,1.2,0.962,0.962,0,0,0,.576.55,2.423,2.423,0,0,0,.551-0.17,19.472,19.472,0,0,0,3.959-2.28,2.882,2.882,0,0,1,.744-0.5,0.451,0.451,0,0,0,.36-0.34,0.47,0.47,0,0,0-.264-0.38A11.828,11.828,0,0,0,203.921,1676.17Zm23.569-6.35a0.518,0.518,0,0,0-.144.28,0.333,0.333,0,0,0,.144.22,25.255,25.255,0,0,1,2.375,2.45,18.9,18.9,0,0,1-6.55,6.28,5.773,5.773,0,0,1,1.392,1.28,1.024,1.024,0,0,0,.528.47,1.391,1.391,0,0,0,.576-0.33,21.386,21.386,0,0,0,8.708-12.62,19.765,19.765,0,0,0,3,3.55v5.45c0,2.68-.048,4.03-0.048,4.17,0,0.24.024,0.26,0.264,0.26h2.087c0.24,0,.264-0.02.264-0.26,0-.12-0.048-1.49-0.048-4.17v-3.46a27.078,27.078,0,0,0,3.6,2.02,1.633,1.633,0,0,0,.552.19c0.192,0,.264-0.17.432-0.6a7.5,7.5,0,0,1,1.055-1.9,27.225,27.225,0,0,1-5.638-2.88v-7.26a9.528,9.528,0,0,1,.168-2.67,1.525,1.525,0,0,0,.12-0.48c0-.14-0.144-0.21-0.36-0.24a22.239,22.239,0,0,0-2.639-.19,21.987,21.987,0,0,1,.192,3.65v5.08a17.056,17.056,0,0,1-2.4-3.07l0.144-.24a0.668,0.668,0,0,0,.24-0.41,1.548,1.548,0,0,0-.7-0.83,1.725,1.725,0,0,0-1.055-.65,0.608,0.608,0,0,0-.336.09,1.251,1.251,0,0,1-.72.15h-2.471c0.144-.39.264-0.79,0.408-1.23a3.313,3.313,0,0,1,.48-1.22,0.552,0.552,0,0,0,.168-0.41,0.4,0.4,0,0,0-.36-0.33,19.167,19.167,0,0,0-2.447-.53,7.207,7.207,0,0,1-.312,1.89,18.993,18.993,0,0,1-5.038,8.5,4.935,4.935,0,0,1,1.2,1.46,0.678,0.678,0,0,0,.408.48,0.854,0.854,0,0,0,.48-0.36,23.382,23.382,0,0,0,4.078-6.02H232.7a23.061,23.061,0,0,1-1.655,5.2,21.714,21.714,0,0,0-2.112-2.06,0.393,0.393,0,0,0-.24-0.14,0.314,0.314,0,0,0-.215.17Zm34.964,8.32c0,0.51-.192.75-0.863,0.75-0.36,0-1.032-.03-1.752-0.1a4.841,4.841,0,0,1,.648,1.54c0.168,0.74.168,0.71,0.912,0.71a4.726,4.726,0,0,0,2.447-.4,2.053,2.053,0,0,0,.888-1.95c0-1.34-.072-2.78-0.144-4.7a17.994,17.994,0,0,0,4.174,5.57,1.015,1.015,0,0,0,.48.33,0.723,0.723,0,0,0,.384-0.48,5.455,5.455,0,0,1,1.079-1.58,15.372,15.372,0,0,1-3.67-3.17,18.688,18.688,0,0,0,1.967-1.72,3.164,3.164,0,0,1,.912-0.72,0.381,0.381,0,0,0,.288-0.36,0.644,0.644,0,0,0-.288-0.48,13.675,13.675,0,0,0-1.368-1.11,7.307,7.307,0,0,1-.864,1.08,16.4,16.4,0,0,1-1.775,1.68,14.691,14.691,0,0,1-1.319-3.12h1.223c2.039,0,2.735.05,2.9,0.05,0.24,0,.264-0.02.264-0.26,0-.15-0.048-0.77-0.048-2.23v-3.55c0-1.47.048-2.07,0.048-2.21,0-.27-0.024-0.29-0.264-0.29-0.168,0-.864.05-2.9,0.05H264.3c0.12-.27.24-0.55,0.36-0.89a1.365,1.365,0,0,1,.359-0.55,0.5,0.5,0,0,0,.192-0.36c0-.15-0.1-0.24-0.455-0.31a17.722,17.722,0,0,0-2.256-.29,6.9,6.9,0,0,1-.24,1.37c-0.1.36-.215,0.69-0.335,1.03h-0.48c-2.039,0-2.735-.05-2.9-0.05-0.24,0-.264.02-0.264,0.29,0,0.14.048,0.74,0.048,2.21v3.55c0,1.46-.048,2.06-0.048,2.23,0,0.24.024,0.26,0.264,0.26,0.168,0,.864-0.05,2.9-0.05h1.007v2.83a3.845,3.845,0,0,0-.671-0.72,1.471,1.471,0,0,0-.84-0.62,0.576,0.576,0,0,0-.264.1,0.769,0.769,0,0,1-.432.09h-0.959c-0.672,0-1.1,0-1.368-.02a0.287,0.287,0,0,0,.048-0.29,25.684,25.684,0,0,0-1.439-4.22c-0.1-.22-0.144-0.29-0.408-0.19l-1.08.4c-0.288.1-.336,0.2-0.24,0.41,0.216,0.53.432,1.08,0.624,1.68-0.96.07-1.9,0.12-2.807,0.17,1.152-1.51,2.447-3.36,3.719-5.38a3.126,3.126,0,0,1,.743-0.93,0.424,0.424,0,0,0,.264-0.38,0.382,0.382,0,0,0-.288-0.34,16.935,16.935,0,0,0-1.991-.89,10.59,10.59,0,0,1-.672,1.51c-0.5.91-1.055,1.83-1.607,2.74l-1.056-1.25a36.011,36.011,0,0,0,2.04-3.31,1.325,1.325,0,0,1,.455-0.58,0.357,0.357,0,0,0,.216-0.31,0.469,0.469,0,0,0-.312-0.38c-0.575-.29-1.295-0.6-1.991-0.87a6.7,6.7,0,0,1-.432,1.28,27.557,27.557,0,0,1-1.391,2.61l-0.576-.57c-0.168-.2-0.24-0.17-0.432.07l-0.888,1.17a0.728,0.728,0,0,0-.167.31,0.335,0.335,0,0,0,.12.22,27.163,27.163,0,0,1,3.118,3.55c-0.431.6-.863,1.23-1.343,1.82a15.187,15.187,0,0,1-1.751-.09c0.071,0.77.167,1.41,0.287,2.04,0.048,0.24.12,0.38,0.288,0.38a0.688,0.688,0,0,0,.36-0.09,2.494,2.494,0,0,1,.912-0.2l1.9-.14v6.38c0,2.21-.048,2.98-0.048,3.14,0,0.24.024,0.27,0.264,0.27h1.823c0.24,0,.264-0.03.264-0.27,0-.14-0.048-0.93-0.048-3.14v-6.6c0.5-.04.984-0.09,1.512-0.16l0.144,0.69c0.048,0.29.1,0.31,0.432,0.22l0.791-.24v1.58c0,0.24.024,0.27,0.264,0.27,0.144,0,.7-0.05,1.488-0.05h0.791a10.986,10.986,0,0,1-4.03,5.04,4.8,4.8,0,0,1,1.127,1,0.923,0.923,0,0,0,.528.48,0.978,0.978,0,0,0,.552-0.38,13.142,13.142,0,0,0,3.743-5.57,2.089,2.089,0,0,1,.5-0.86,0.583,0.583,0,0,0,.216-0.22v5.04Zm4.175-10h-6v-1.63h6v1.63Zm-6-4.87h6v1.51h-6v-1.51Zm-12.283,15.57a7.874,7.874,0,0,1,1.319.62,1.474,1.474,0,0,0,.552.29c0.144,0,.192-0.19.312-0.58a28.228,28.228,0,0,0,.791-4.31,3.111,3.111,0,0,1,.192-0.89,0.559,0.559,0,0,0,.12-0.36,0.434,0.434,0,0,0-.408-0.29,15.189,15.189,0,0,0-1.847-.34,10.771,10.771,0,0,1-.048,1.54A13.919,13.919,0,0,1,248.348,1678.84Zm6.717-5.76c-0.288.1-.312,0.12-0.24,0.36a23.73,23.73,0,0,1,.72,3.65c0.024,0.26.072,0.28,0.408,0.16l1.2-.4c0.336-.12.336-0.2,0.288-0.44a24.534,24.534,0,0,0-.863-3.5c-0.1-.24-0.12-0.26-0.408-0.17Zm36.38-2.14a30.308,30.308,0,0,1-.552,6.36,1.31,1.31,0,0,1-1.391,1.27,20.756,20.756,0,0,1-2.375-.16,4.421,4.421,0,0,1,.527,1.68c0.12,0.76.12,0.76,0.7,0.81,0.408,0.02.888,0.02,1.272,0.02,2.4,0,3.334-.76,3.766-3.02a45.62,45.62,0,0,0,.528-7.12c0-.58.024-1.2,0.072-1.8,0-.24-0.072-0.31-0.336-0.31-0.144,0-.6.04-2.255,0.04h-3.863c0.072-.91.1-1.87,0.12-2.95h4.439c2.279,0,3.071.05,3.215,0.05,0.24,0,.264-0.02.264-0.26v-1.85c0-.24-0.024-0.26-0.264-0.26-0.144,0-.936.04-3.215,0.04h-2.5v-1.58a4.615,4.615,0,0,1,.12-1.61,1.222,1.222,0,0,0,.144-0.5,0.347,0.347,0,0,0-.384-0.24,23.023,23.023,0,0,0-2.471-.19,14.068,14.068,0,0,1,.168,2.54v1.58h-1.7c-2.039,0-2.831-.04-2.975-0.04-0.24,0-.264.02-0.264,0.26v1.85c0,0.24.024,0.26,0.264,0.26,0.12,0,.864-0.05,2.687-0.05a26.3,26.3,0,0,1-.935,7.78,9.995,9.995,0,0,1-5.23,5.85,5.4,5.4,0,0,1,1.415,1.34,0.759,0.759,0,0,0,.528.46,1.536,1.536,0,0,0,.576-0.27,12.117,12.117,0,0,0,5.086-6.66,18.532,18.532,0,0,0,.7-3.32h4.126Zm-14.467-10.7c-1.247,0-1.871-.04-2.039-0.04-0.24,0-.264.02-0.264,0.28,0,0.15.048,1.78,0.048,5.11v10.34c0,3.32-.048,4.92-0.048,5.09,0,0.22.024,0.24,0.264,0.24h1.919c0.264,0,.288-0.02.288-0.24,0-.14-0.048-1.85-0.048-5.09v-13.48h2.687a29.825,29.825,0,0,1-2.183,5.42c1.7,2.16,2.255,3.31,2.255,4.42,0,1.46-.863,1.8-2.351,1.73a3.387,3.387,0,0,1,.528,1.6c0.1,0.75.1,0.75,0.864,0.67,2.327-.16,3.286-1.46,3.286-3.69,0-1.34-.311-2.78-2.087-4.92a49.761,49.761,0,0,0,2.015-4.72,1.814,1.814,0,0,1,.456-0.8,0.563,0.563,0,0,0,.24-0.4,1.478,1.478,0,0,0-.624-0.94,1.507,1.507,0,0,0-.935-0.72,0.523,0.523,0,0,0-.264.07,1.082,1.082,0,0,1-.48.07h-3.527Zm23.881,17.78c0,1.92-.048,2.83-0.048,2.98,0,0.24.024,0.26,0.24,0.26h1.919c0.24,0,.264-0.02.264-0.26,0-.15-0.048-1.06-0.048-2.98v-8.71c0.384-.52.72-1.08,1.032-1.6a2.666,2.666,0,0,1,.6-0.77v1.73c0,0.26.024,0.28,0.288,0.28,0.144,0,.7-0.04,2.567-0.04h0.72v7.84c-0.384.07-.744,0.12-1.1,0.17v-4.2a4.139,4.139,0,0,1,.1-1.34,0.818,0.818,0,0,0,.12-0.39c0-.12-0.144-0.19-0.36-0.21-0.575-.08-1.415-0.12-2.063-0.15a12.951,12.951,0,0,1,.12,2.09v4.49c-0.5.04-.959,0.07-1.487,0.07a22.912,22.912,0,0,0,.671,2.28,0.377,0.377,0,0,0,.312.31,0.6,0.6,0,0,0,.384-0.17,2.232,2.232,0,0,1,.816-0.29c2.207-.38,4.1-0.79,6.6-1.46,0.695-.19.695-0.19,0.767-0.98a6.462,6.462,0,0,1,.216-1.37c-1.031.26-1.991,0.5-2.927,0.72v-3h1.1a9.674,9.674,0,0,1,1.007.05c0.216,0,.24-0.03.24-0.27v-1.68c0-.24-0.024-0.26-0.24-0.26a9.674,9.674,0,0,1-1.007.05h-1.1v-2.3H310.7c1.872,0,2.447.04,2.591,0.04,0.24,0,.264-0.02.264-0.28v-1.68c0-.22-0.024-0.24-0.264-0.24-0.144,0-.719.02-2.591,0.02h-0.144v-2.66c1.464,0.02,2.016.04,2.159,0.04,0.24,0,.264-0.02.264-0.26v-1.68c0-.21-0.024-0.24-0.264-0.24-0.143,0-.743.05-2.567,0.05h-1.919l0.168-.53a2.216,2.216,0,0,1,.336-0.86,0.581,0.581,0,0,0,.24-0.41,0.426,0.426,0,0,0-.408-0.34,14.545,14.545,0,0,0-1.967-.4,6.544,6.544,0,0,1-.24,1.39,12.676,12.676,0,0,1-2.159,4.32,4.7,4.7,0,0,1,1.271.69,1.085,1.085,0,0,0,.528.36,0.755,0.755,0,0,0,.456-0.48,12.736,12.736,0,0,0,.935-1.65h1.008v2.66h-0.72c-1.871,0-2.423-.02-2.591-0.02a0.3,0.3,0,0,0,.072-0.22,0.637,0.637,0,0,0-.336-0.46,15.237,15.237,0,0,0-1.7-1.1,6.938,6.938,0,0,1-.6,1.27,18.388,18.388,0,0,1-4.246,4.92,5.848,5.848,0,0,1,.671,1.7c0.1,0.34.168,0.48,0.312,0.48a1.081,1.081,0,0,0,.5-0.28c0.408-.34.792-0.7,1.152-1.06-0.024.84-.048,1.8-0.048,2.5v3.52Zm19.433-12.81c0-2.49.048-3.77,0.048-3.91,0-.24-0.024-0.26-0.264-0.26-0.12,0-.576.04-1.967,0.04h-1.9c-1.391,0-1.823-.04-1.991-0.04-0.24,0-.264.02-0.264,0.26,0,0.17.048,1.68,0.048,4.77v10.25c0,3.09-.048,4.58-0.048,4.72,0,0.24.024,0.27,0.264,0.27h1.8c0.24,0,.264-0.03.264-0.27,0-.12-0.048-1.46-0.048-4.12v-13.63h1.848v11.69c0,0.55-.168.69-0.528,0.69a6.1,6.1,0,0,1-.984-0.07,6.169,6.169,0,0,1,.48,1.75c0.1,0.72.1,0.74,0.84,0.74a2.547,2.547,0,0,0,1.967-.57,3.112,3.112,0,0,0,.456-2.21c0-.84-0.024-2.04-0.024-3.29v-6.81Zm-17.706-5.83a5.344,5.344,0,0,1-.6,1.13,13.93,13.93,0,0,1-3.406,3.36,6.721,6.721,0,0,1,.887,1.63c0.144,0.38.216,0.53,0.36,0.53a1.027,1.027,0,0,0,.5-0.29,22.084,22.084,0,0,0,3.575-3.82,2.024,2.024,0,0,1,.719-0.69,0.348,0.348,0,0,0,.24-0.34,0.6,0.6,0,0,0-.336-0.43A10.466,10.466,0,0,0,302.586,1659.38Zm40.243,7.63a73.1,73.1,0,0,1-.6,10.08c-0.192,1.22-.5,1.48-1.248,1.48a13.659,13.659,0,0,1-2.3-.19,4.883,4.883,0,0,1,.552,1.66c0.144,0.79.144,0.79,0.816,0.81a14.071,14.071,0,0,0,1.463.05,2.651,2.651,0,0,0,3.023-2.61,74.786,74.786,0,0,0,.672-10.94c0-.75.024-1.44,0.048-2.28,0-.24-0.048-0.29-0.264-0.29-0.144,0-.792.05-2.735,0.05h-1.679c0.024-.63.048-1.27,0.048-1.95a12.62,12.62,0,0,1,.119-2.37,2.862,2.862,0,0,0,.168-0.65,0.353,0.353,0,0,0-.359-0.29c-0.84-.07-1.584-0.12-2.472-0.14a23.336,23.336,0,0,1,.192,3.38c0,0.7-.024,1.37-0.048,2.02-1.847,0-2.447-.05-2.567-0.05-0.264,0-.288.02-0.288,0.26v1.75c0,0.24.024,0.27,0.288,0.27,0.12,0,.72-0.05,2.447-0.05a26.16,26.16,0,0,1-1.031,5.93,12.423,12.423,0,0,1-5.062,6.55,4.167,4.167,0,0,1,1.367,1.19,0.837,0.837,0,0,0,.48.44,1.281,1.281,0,0,0,.6-0.36,14.88,14.88,0,0,0,4.8-7.01,28.71,28.71,0,0,0,1.224-6.74h2.351Zm-16,4.58c-0.192.19-.216,0.27-0.024,0.41,0.743,0.62,1.511,1.32,2.255,2.06a14.353,14.353,0,0,1-5.3,4.97,4.967,4.967,0,0,1,1.079,1.2,0.858,0.858,0,0,0,.5.55,1.342,1.342,0,0,0,.552-0.29,17.256,17.256,0,0,0,4.774-4.72,22.771,22.771,0,0,1,1.632,2.04,0.336,0.336,0,0,0,.215.16,0.491,0.491,0,0,0,.264-0.19l1.2-1.29c0.216-.22.216-0.29,0.048-0.46a29.292,29.292,0,0,0-2.135-2.4,17.842,17.842,0,0,0,.719-1.7,2.806,2.806,0,0,1,.5-1.03,0.682,0.682,0,0,0,.264-0.46,0.409,0.409,0,0,0-.312-0.36,13.482,13.482,0,0,0-2.111-.89,7.89,7.89,0,0,1-.528,2.11l-0.288.7c-0.6-.53-1.2-1.03-1.8-1.49-0.192-.14-0.264-0.12-0.5.1Zm5.4-6.79c2.087,0,2.783.05,2.926,0.05,0.24,0,.264-0.02.264-0.26v-1.73c0-.26-0.024-0.29-0.264-0.29-0.143,0-.839.05-2.926,0.05h-0.984v-0.79a4.793,4.793,0,0,1,.12-1.63,1.3,1.3,0,0,0,.168-0.51c0-.12-0.144-0.21-0.408-0.24-0.792-.09-1.511-0.14-2.4-0.17a13.9,13.9,0,0,1,.144,2.55v0.79h-1.272c-2.087,0-2.783-.05-2.927-0.05-0.24,0-.264.03-0.264,0.29v1.73c0,0.24.024,0.26,0.264,0.26,0.144,0,.84-0.05,2.927-0.05h4.631Zm-8.4,5.02a4.466,4.466,0,0,1,1.223,1.15,0.756,0.756,0,0,0,.432.43,1.187,1.187,0,0,0,.528-0.38,16.943,16.943,0,0,0,2.447-3.34,3.467,3.467,0,0,1,.528-0.79,0.379,0.379,0,0,0-.1-0.74,14.661,14.661,0,0,0-1.968-.87,7.762,7.762,0,0,1-.407,1.18A10.694,10.694,0,0,1,323.828,1669.82Zm7.605-3.72c-0.264.12-.312,0.17-0.192,0.41a26.774,26.774,0,0,0,2.735,4.15,0.861,0.861,0,0,0,.5.45,1.1,1.1,0,0,0,.528-0.41,7.8,7.8,0,0,1,1.3-1.03,16.639,16.639,0,0,1-3.023-4.1c-0.12-.22-0.168-0.22-0.432-0.1Zm25.656,7.68a18.473,18.473,0,0,1-8.085,4.63,5.982,5.982,0,0,1,1.151,1.53c0.192,0.43.288,0.58,0.456,0.58a1.893,1.893,0,0,0,.576-0.19,19.265,19.265,0,0,0,7.653-5.45c-0.024,3.09-.168,5.66-0.168,6.19,0,0.24.024,0.26,0.288,0.26h2.111c0.24,0,.264-0.02.264-0.26,0-.53-0.168-3.17-0.168-6.29a18.674,18.674,0,0,0,8.061,5.5,2.236,2.236,0,0,0,.576.17c0.192,0,.264-0.17.48-0.6a6.794,6.794,0,0,1,1.08-1.66,20.424,20.424,0,0,1-8.613-4.41h4.87c2.135,0,2.855.04,3,.04,0.24,0,.264-0.02.264-0.28v-1.71c0-.24-0.024-0.26-0.264-0.26-0.144,0-.864.05-3,0.05h-6.382v-1.76h3.191c2.327,0,3.167.05,3.335,0.05,0.24,0,.264-0.02.264-0.26,0-.12-0.048-0.82-0.048-2.38V1663c0-1.56.048-2.25,0.048-2.4,0-.24-0.024-0.26-0.264-0.26-0.168,0-1.008.05-3.335,0.05h-8.493c-2.3,0-3.143-.05-3.311-0.05-0.24,0-.264.02-0.264,0.26,0,0.17.048,0.84,0.048,2.4v4.27c0,1.56-.048,2.24-0.048,2.38,0,0.24.024,0.26,0.264,0.26,0.168,0,1.008-.05,3.311-0.05h2.831v1.76h-5.974c-2.135,0-2.855-.05-3-0.05-0.264,0-.288.02-0.288,0.26v1.71c0,0.26.024,0.28,0.288,0.28,0.144,0,.864-0.04,3-0.04h4.3Zm8.469-11.4v1.87h-4.319v-1.87h4.319Zm0,5.59h-4.319v-1.85h4.319v1.85Zm-10.724-3.72v-1.87h3.934v1.87h-3.934Zm0,3.72v-1.85h3.934v1.85h-3.934Z" transform="translate(-194 -1614.25)"/>
    <path id="_2" data-name="※2" class="cls-2" d="M259.04,1617.6l1.938,1.96,0.191-.19-1.944-1.95,1.944-1.95-0.191-.2-1.938,1.96-1.937-1.96-0.192.2,1.944,1.95-1.944,1.95,0.192,0.19Zm1.627-.68a0.5,0.5,0,0,0-.5.5A0.5,0.5,0,1,0,260.667,1616.92Zm-3.253,0a0.5,0.5,0,0,0-.5.5,0.507,0.507,0,0,0,.5.5A0.5,0.5,0,0,0,257.414,1616.92Zm1.626-1.65a0.507,0.507,0,0,0-.5.51A0.5,0.5,0,1,0,259.04,1615.27Zm0,3.29a0.5,0.5,0,1,0,.5.5A0.491,0.491,0,0,0,259.04,1618.56Zm3.917,0.67c-0.072,0-.108-0.01-0.108-0.04a0.143,0.143,0,0,1,.06-0.08c1.118-1,1.9-1.75,1.9-2.6a1.1,1.1,0,0,0-1.214-1.07,1.8,1.8,0,0,0-1.22.46,0.152,0.152,0,0,0-.072.1,0.158,0.158,0,0,0,.06.11l0.066,0.07a0.211,0.211,0,0,0,.1.07,0.226,0.226,0,0,0,.108-0.07,1.31,1.31,0,0,1,.921-0.39,0.781,0.781,0,0,1,.885.77c0,0.69-.742,1.39-1.746,2.32-0.1.09-.2,0.19-0.305,0.27a0.269,0.269,0,0,0-.114.26c0,0.12.018,0.15,0.12,0.15,0.042,0,.484-0.01.777-0.01h0.7c0.317,0,.711.01,0.837,0.01,0.1,0,.12-0.03.12-0.15v-0.05c0-.12-0.018-0.15-0.12-0.15-0.042,0-.179.01-0.281,0.01-0.15.01-.377,0.01-0.556,0.01h-0.915Z" transform="translate(-194 -1614.25)"/>
  </g>
  <path id="シェイプ_1024-2" data-name="シェイプ 1024" class="cls-1" d="M196,1689H373" transform="translate(-194 -1614.25)"/>
</svg>
