<?xml version="1.0" encoding="utf-8"?>
<!-- Generator: Adobe Illustrator 26.0.3, SVG Export Plug-In . SVG Version: 6.00 Build 0)  -->
<svg version="1.1" id="text-feature-04.svg" xmlns="http://www.w3.org/2000/svg" xmlns:xlink="http://www.w3.org/1999/xlink"
	 x="0px" y="0px" viewBox="0 0 189.4 64" style="enable-background:new 0 0 189.4 64;" xml:space="preserve">
<style type="text/css">
	.st0{fill:none;stroke:#1147B4;stroke-width:2;stroke-linecap:round;stroke-dasharray:1.000000e-03,4;}
	.st1{fill:#1147B4;}
</style>
<path id="シェイプ_1024" class="st0" d="M11.8,26.1h165.9"/>
<path id="シェイプ_1024_00000038403255751148325560000000485635728350035119_" class="st0" d="M1.3,63h186.9"/>
<g>
	<path class="st1" d="M17.5,13.5v5.6c0,1.3-0.2,2-0.9,2.4c-0.7,0.5-1.8,0.6-3.3,0.6c-0.1-0.7-0.4-1.9-0.7-2.6c0.9,0,1.7,0,2,0
		c0.3,0,0.4-0.1,0.4-0.4v-4.8c-0.8,0.2-1.5,0.4-2.2,0.6l-0.6-2.8c0.8-0.2,1.8-0.4,2.9-0.7V7.2h-2.6V4.6h2.6V0h2.6v4.5h2.4v2.6h-2.4
		v3.6l2.2-0.6l0.4,2.6L17.5,13.5z M28.4,19.6c0.6,0,1.1,0.1,1.7,0.1c0.8,0,3.8,0,4.8,0c-0.3,0.6-0.7,1.8-0.8,2.5H30
		c-3.1,0-5.6-0.6-7.2-3.5c-0.6,1.5-1.5,2.8-2.5,3.8c-0.5-0.5-1.5-1.3-2.1-1.7c2-1.6,3-4.2,3.3-7.5l2.6,0.3c-0.1,0.9-0.3,1.7-0.5,2.4
		c0.5,1.4,1.2,2.3,2.1,2.8v-6.3h-5.6v-2.3h14.2v2.3h-5.9v2.1H33v2.2h-4.6V19.6z M33.1,9.1H21.3V0.8h11.8V9.1z M30.4,2.8h-6.5V4h6.5
		V2.8z M30.4,5.8h-6.5v1.2h6.5V5.8z"/>
	<path class="st1" d="M58.5,12.2h-4.9v10.2h-2.9V12.2h-6.2c-0.2,3.8-1.4,7.7-6.1,10.3c-0.4-0.7-1.4-1.7-2.1-2.2
		c4-2.1,5.1-5.1,5.3-8.1h-5.1V9.5h5.2V5.2c-1.3,0.4-2.7,0.7-4.1,1c-0.1-0.7-0.6-1.7-1-2.4c3.7-0.8,7.7-2.2,10.2-3.7L49,2.6
		c-1.3,0.7-2.9,1.2-4.4,1.8v5.1h6.1V0.4h2.9v9.1h4.9V12.2z"/>
	<path class="st1" d="M80.2,19.4c0.1,0,0.2,0,0.3-0.1c0.1-0.1,0.1-0.3,0.1-0.8c0-0.5,0.1-1.7,0.1-3.1c0.6,0.5,1.5,1,2.2,1.2
		c0,1.3-0.1,2.9-0.3,3.6c-0.1,0.7-0.4,1.2-0.8,1.5c-0.3,0.3-0.9,0.4-1.4,0.4H79c-0.6,0-1.2-0.2-1.7-0.6c-0.5-0.5-0.6-1-0.6-3.1V3.6
		h-2.6v7.1c0,3.7-0.3,8.9-2.6,12c-0.5-0.5-1.7-1.3-2.4-1.7c-0.1,0.3-0.4,0.5-0.7,0.7c-0.7,0.5-1.8,0.5-3.3,0.5
		c-0.1-0.7-0.4-2-0.8-2.7c0.9,0,1.8,0,2,0c0.3,0,0.4-0.1,0.4-0.4v-5.5c-0.6,0.6-1.2,1.2-1.8,1.8l-0.8-1.4c-0.2,3-0.7,6.3-1.8,8.6
		c-0.5-0.4-1.7-1.1-2.4-1.3c1.5-3.3,1.6-8.1,1.6-11.6V0.9h7.8v18.3c0,0.6,0,1.2-0.2,1.6c1.8-2.8,2-6.8,2-10V0.9h8.3v17.4
		c0,0.6,0,0.9,0.1,1c0,0.1,0.1,0.1,0.2,0.1H80.2z M64.3,9.6c0,1,0,2-0.1,3.1c0.7-0.5,1.6-1.1,2.5-1.8V9.2L66,9.8
		c-0.4-0.5-1-1.2-1.6-1.9V9.6z M64.3,3.5v2.8l0.7-0.6c0.6,0.5,1.2,1.1,1.7,1.7V3.5H64.3z"/>
	<path class="st1" d="M102.2,7.8c0.9,0,2.7-0.1,3.2-0.2c0.1,0.7,0.1,1.2,0.2,1.7c-0.6,0.2-2,0.2-3.1,0.2h-5.7c-2.3,0-2.9-0.7-3-2.1
		l-4,0.1l0-1.2l4-0.1V5.4H89v4.3c0,3.7-0.3,9.1-2.4,12.6c-0.5-0.5-1.8-1.2-2.4-1.4c1.9-3.2,2.1-7.8,2.1-11.2V3.6h7.6V0h2.9v1.1h7.6
		v1.8h-7.6v0.7h6.9l0.5-0.1l2.1,0.6c-0.4,1.2-1,2.6-1.5,3.5l-2.4-0.8c0.1-0.3,0.3-0.8,0.5-1.3h-6.4v0.7l5.3-0.2l0,1.2l-5.3,0.2
		c0.1,0.3,0.3,0.5,1,0.5H102.2z M103.7,20.3c0,1.1-0.2,1.5-0.9,1.8c-0.7,0.3-1.7,0.3-3,0.3c-0.1-0.6-0.5-1.2-0.7-1.8
		c0.7,0,1.4,0,1.6,0c0.2,0,0.3-0.1,0.3-0.3v-0.6c-2.3,0.4-4.5,0.8-6.4,1.1L94,19c1.3-0.1,3.1-0.3,5-0.5c-1.3-0.4-3.2-0.8-4.7-1.1
		l0.6-1.1c1.7,0.2,4,0.7,5.3,1.1l-0.5,1l1.2-0.1v-1.9h-7.1v1.3c0,1.8-0.3,3.7-1.9,5c-0.5-0.5-1.7-1.4-2.3-1.7c1.3-1,1.4-2.2,1.4-3.4
		v-2.4h12.5V20.3z M89.9,10h15v4.6h-15V10z M92.5,11.8H96v-0.7h-3.5V11.8z M92.5,13.5H96v-0.7h-3.5V13.5z M102.1,11.1h-3.6v0.7h3.6
		V11.1z M102.1,12.8h-3.6v0.7h3.6V12.8z"/>
	<path class="st1" d="M115.9,18.2c1.5-0.2,3.1-0.3,4.6-0.5l0,2.5c-4.1,0.5-8.6,1-11.8,1.3l-0.4-2.6c1.3-0.1,3-0.3,4.8-0.5v-1.8h-3.6
		v-2.3h3.6v-1.6h-4.1v-2.3h2.6c-0.4-0.7-1-1.6-1.5-2.3l1.2-0.7h-3V5.2h3.3V4l-1.2,0.9c-0.3-0.8-1.2-2-2-2.9l1.7-1.1
		c0.5,0.5,1,1.2,1.5,1.8V0.1h2.2v5.1h1.1V0.1h2.3v2.8c0.5-0.6,1-1.3,1.3-1.9l2.2,1.2c-1,1-2,2.1-2.7,2.8l-0.8-0.5v0.7h3.1v2.4h-3.1
		l1.6,0.6c-0.4,0.8-0.9,1.6-1.3,2.4h2.1v2.3h-3.9v1.6h3.6v2.3h-3.6V18.2z M112.6,7.5c0.6,0.7,1.2,1.5,1.4,2.1l-1.4,0.8h2.6
		c0.5-0.8,1-2,1.3-3H112.6z M130.3,8.8h-1.8v10.5c0,1.5-0.3,2.2-1.2,2.6c-0.8,0.5-2.1,0.6-4,0.6c-0.1-0.7-0.6-2-1-2.7
		c1.2,0,2.4,0,2.8,0c0.4,0,0.6-0.1,0.6-0.5V8.8h-5.2V6.1h5.2v-6h2.8v6h1.8V8.8z M122.6,16.3c-0.1-1.4-0.9-3.7-1.7-5.4l2.4-0.8
		c0.9,1.7,1.7,3.9,1.9,5.3L122.6,16.3z"/>
	<path class="st1" d="M142.6,3.4l2,0.6c-1.1,9.7-4.6,15.6-9.9,18.4c-0.5-0.7-1.7-1.9-2.4-2.4c2.7-1.3,4.9-3.3,6.5-6.1
		c-0.8-1-2-2.3-3.1-3.4c-0.4,0.7-0.8,1.3-1.2,1.8c-0.5-0.5-1.8-1.4-2.4-1.8c2.1-2.4,3.5-6.4,4.2-10.5l2.9,0.5c-0.2,1-0.5,2-0.7,3
		h3.6L142.6,3.4z M137.6,6.2c-0.2,0.6-0.4,1.2-0.7,1.8c1,0.9,2.2,2,3.1,3c0.5-1.4,0.9-3,1.2-4.8H137.6z M152.5,14.6
		c-0.8-1.2-2.4-2.9-3.9-4.5v12.3h-3V0h3v8l1.1-0.8c1.7,1.6,4.1,4,5.2,5.4L152.5,14.6z"/>
	<path class="st1" d="M178.2,3.4v2.7h-12.8c-0.8,1.7-1.7,3.3-2.8,4.7v11.6h-2.9v-8.4c-0.7,0.6-1.3,1.2-2.1,1.7
		c-0.3-0.8-1-2.1-1.4-2.8c2.5-1.6,4.5-4.2,6-6.9h-5.2V3.4h6.5c0.4-1.1,0.8-2.2,1.1-3.3l3,0.7c-0.3,0.9-0.6,1.8-0.9,2.6H178.2z
		 M172.4,19.2h5.7v2.6h-14.4v-2.6h5.8v-5.5h-4.9v-2.6h4.9v-4h2.9v4h4.8v2.6h-4.8V19.2z"/>
	<path class="st1" d="M22.2,53.1c-0.9,0.5-1.9,1-2.8,1.3c1,0.7,2.1,1.2,3.4,1.6c-0.6,0.5-1.3,1.5-1.7,2.2c-3.2-1.1-5.3-3.3-6.5-6.4
		c-0.7,0.6-1.5,1.1-2.3,1.6v2.1l3.4-0.6c-0.1,0.6-0.1,1.6,0,2.1c-4.4,1-5.2,1.2-5.7,1.5c-0.1-0.6-0.6-1.5-0.9-1.9
		c0.4-0.2,1-0.7,1-1.6v-0.2c-0.7,0.3-1.3,0.5-2,0.7C7.8,55,7.4,54.4,7,54l0,0.2c-2.2,0.6-4.6,1.2-6.5,1.8L0,53.3
		c0.7-0.1,1.5-0.3,2.4-0.6v-5.9H0.5v-2.5h1.9v-4.5h-2v-2.5h6.5v2.5h-2v4.5h1.8v2.5H4.8v5.3l1.8-0.5l0.2,1.6c1.7-0.5,3.5-1.1,4.9-1.9
		H9v-5.3h12v5.3h-4c0.3,0.6,0.6,1.2,1,1.6c0.9-0.5,1.8-1.1,2.4-1.6L22.2,53.1z M22.3,45.3H7.6V43h14.7V45.3z M21.6,42.3H8.5v-5.4
		h13.1V42.3z M12.3,38.7h-1.5v1.6h1.5V38.7z M11.5,49.4h6.7v-1.3h-6.7V49.4z M15.7,38.7h-1.5v1.6h1.5V38.7z M19.1,38.7h-1.6v1.6h1.6
		V38.7z"/>
	<path class="st1" d="M32.4,52.7c-2.5,1-5.2,2.1-7.4,3l-0.9-2.9c0.8-0.2,1.7-0.5,2.8-0.9v-7.4h-2.3v-2.7h2.3v-5.4h2.8v5.4h2v2.7h-2
		v6.4c0.7-0.3,1.5-0.5,2.2-0.8L32.4,52.7z M43.4,55.9c0.2,0,0.4,0,0.5,0c0.1,0,0.2-0.2,0.3-0.5c0-0.3,0.1-0.9,0.1-1.8
		c0.5,0.5,1.5,0.9,2.2,1.2c-0.1,0.9-0.2,1.8-0.4,2.3c-0.2,0.4-0.6,0.7-1,0.9c-0.4,0.1-1,0.2-1.5,0.2h-1.5c-0.6,0-1.4-0.2-1.8-0.6
		c-0.5-0.4-0.7-0.9-0.7-2.4v-2.9h-1.7c-0.4,3.2-1.6,5.1-6.1,6.3c-0.2-0.6-0.9-1.7-1.5-2.2c3.7-0.7,4.6-1.9,4.9-4.1h-2V45h11.5v7.2
		h-2.5v3c0,0.3,0,0.5,0.1,0.6c0.1,0.1,0.2,0.1,0.4,0.1H43.4z M45.9,44.2H32.3v-2.4h2.9c-0.1-0.5-0.3-1.1-0.5-1.6l2.3-0.5
		c0.3,0.6,0.6,1.4,0.7,2h2.7c0.3-0.7,0.5-1.4,0.7-2l2.6,0.5c-0.3,0.6-0.5,1.1-0.8,1.6h3V44.2z M45.3,39.8H33v-2.3h4.8
		c-0.1-0.4-0.3-0.8-0.4-1.1l2.7-0.5c0.2,0.5,0.5,1.1,0.6,1.6h4.6V39.8z M35.9,47.8H42v-1h-6.1V47.8z M35.9,50.5H42v-1h-6.1V50.5z"/>
	<path class="st1" d="M55.9,37c-0.6,1.7-1.4,3.3-2.3,4.9v16.5h-2.7V46.2c-0.5,0.7-1.1,1.3-1.6,1.9c-0.3-0.7-1-2.3-1.5-3
		c2.2-2.2,4.2-5.6,5.4-9L55.9,37z M60.7,50.2c-0.2,0.3-0.4,0.6-0.7,0.9h10.2c0,0,0,0.6-0.1,1c-0.4,3.4-0.8,5-1.4,5.6
		c-0.4,0.5-0.9,0.6-1.5,0.7c-0.5,0-1.4,0.1-2.3,0c0-0.6-0.2-1.5-0.6-2c-0.7,0.9-1.5,1.6-2.3,2.2c-0.4-0.4-1.3-1.1-1.9-1.4
		c1.5-1,2.9-2.5,3.8-4.1h-1.5c-1.3,2.1-3.4,3.9-5.2,5.2c-0.4-0.4-1.2-1.2-1.8-1.5c1.6-0.9,3.2-2.2,4.3-3.6h-1.6
		c-0.8,0.7-1.6,1.4-2.4,1.9c-0.4-0.4-1.2-1.3-1.7-1.7c1.4-0.7,2.9-1.9,3.9-3.1h-3.3v-2.1h16.2v2.1H60.7z M57.5,42.5
		c-0.3,0.5-0.7,0.9-1,1.2C56,43.3,55,42.4,54.4,42c1.5-1.5,2.9-3.8,3.8-6l2.5,0.7c-0.2,0.4-0.3,0.8-0.5,1.2h10.2V40H59.1
		c-0.2,0.3-0.4,0.6-0.6,0.9h10v6.4H57.5V42.5z M60.1,43.4h5.8v-0.9h-5.8V43.4z M60.1,45.8h5.8v-0.9h-5.8V45.8z M66.5,53.1
		c-0.6,1.2-1.3,2.3-2.1,3.2c0.7,0.1,1.3,0.1,1.6,0.1c0.3,0,0.5,0,0.7-0.2c0.3-0.3,0.6-1.2,0.9-3.1H66.5z"/>
	<path class="st1" d="M94.2,48.3v2.3H72.8v-2.3h9.3v-1h-7v-2.1h7v-0.8c-2.4,0.1-4.8,0.1-7,0.1c0-0.4-0.1-1-0.3-1.4h-1.5v-4.9h9
		c-0.3-0.5-0.5-1.1-0.8-1.5l2.7-0.8c0.4,0.7,0.9,1.6,1.3,2.3h8V43h-1.7l0.3,0.3c-2.1,0.4-4.7,0.7-7.4,0.9v1h7.3v2.1h-7.3v1H94.2z
		 M76.2,51.5h15v7h-2.9v-0.6h-9.4v0.7h-2.7V51.5z M76.2,42.5c1.9,0,4-0.1,6-0.2v-1.5h2.7v1.3c2.2-0.1,4.3-0.4,5.8-0.6l0.1,0.1v-1.1
		H76.2V42.5z M78.9,53.7v1.8h9.4v-1.8H78.9z"/>
	<path class="st1" d="M118.1,39.7c0,0,0,1,0,1.3c-0.3,10.7-0.6,14.5-1.6,15.8c-0.7,0.9-1.3,1.2-2.3,1.3c-0.9,0.1-2.4,0.1-3.8,0
		c0-0.8-0.4-2-0.9-2.8c1.5,0.1,3,0.1,3.6,0.1c0.5,0,0.7-0.1,1.1-0.4c0.7-0.8,1-4.4,1.3-12.8h-5.1c-0.6,1.4-1.4,2.8-2.1,3.8
		c-0.4-0.4-1.2-0.9-1.8-1.3V56h-6.4v1.8h-2.6V39.9h2.7c0.3-1.2,0.6-2.7,0.7-3.9l3.1,0.4c-0.4,1.2-0.8,2.4-1.2,3.4h3.7v3.9
		c1.4-2,2.5-4.9,3.2-7.7l2.7,0.6c-0.3,1-0.6,2-0.9,3H118.1z M103.7,42.4h-3.8v3.9h3.8V42.4z M103.7,53.5v-4.7h-3.8v4.7H103.7z
		 M111.7,52.2c-0.7-1.4-2.2-3.8-3.3-5.5l2.2-1.3c1.2,1.7,2.8,3.9,3.5,5.3L111.7,52.2z"/>
	<path class="st1" d="M128.3,37c-0.6,1.7-1.4,3.4-2.4,5v16.5h-2.7V46.1c-0.6,0.7-1.1,1.3-1.7,1.9c-0.3-0.7-1.1-2.2-1.5-2.9
		c2.2-2.2,4.4-5.6,5.7-9L128.3,37z M132.5,51.6c-1,2.1-2.4,4.4-3.7,5.9c-0.5-0.4-1.6-1.2-2.2-1.5c1.2-1.3,2.5-3.3,3.3-5.1
		L132.5,51.6z M136.3,50v8.4h-2.9V50h-6.3v-2.6h6.3v-2.1h-4.7v-8.3h12.6v8.3h-5v2.1h6.2V50H136.3z M131.4,42.8h7v-3.2h-7V42.8z
		 M139.2,50.8c1.4,1.6,2.8,3.6,3.5,5.1l-2.3,1.4c-0.6-1.4-2.1-3.6-3.4-5.3L139.2,50.8z"/>
	<path class="st1" d="M153.2,42.3h-8.9V40h4c-0.4-0.9-1-2.1-1.5-3l2.1-1c0.6,1,1.4,2.3,1.8,3.2l-1.6,0.9h4.1V42.3z M165.8,51.8
		c-0.8,1.4-1.9,2.6-3.3,3.6c1.3,0.4,2.9,0.6,4.4,0.8c-0.6,0.6-1.2,1.6-1.6,2.3c-2.1-0.3-4-0.8-5.6-1.6c-1.8,0.8-3.9,1.3-6.1,1.6
		c-0.2-0.6-0.7-1.6-1.2-2.2v0.9h-4.9v1h-2.3v-8.3h7.2v6.4c1.7-0.2,3.4-0.5,4.8-1c-0.7-0.6-1.3-1.2-1.9-2l0.9-0.3h-2.6v-1.9h10
		l0.4-0.1L165.8,51.8z M156.5,39.3h-3.3v-2.1h3.3V36h2.5v4.4H157l0.6,0.2c-0.1,0.4-0.3,0.7-0.5,1.1h2.1c-0.1-0.4-0.2-0.8-0.4-1.1
		l2-0.5V36h2.5v1.2h3.2v2.1h-3.2v1.2h-1.8c0.2,0.4,0.3,0.8,0.4,1.2h3.9v1.7h-4.1v0.8h3.5v1.4h-3.5v0.8h3.5v1.4h-3.5v0.9h4.6v1.7
		h-9.5v0.4h-2.4v-4.9c-0.3,0.3-0.6,0.6-0.8,0.9c-0.2-0.5-0.9-1.5-1.3-2v0.7h-7.1v-2.2h7.1v1.2c1.2-1.2,2.3-2.9,2.9-4.6l1.3,0.4V39.3
		z M145.3,46.6h7.1v2.2h-7.1V46.6z M150.1,52.2h-2.5v2.7h2.5V52.2z M159.4,43.4h-2.5v0.8h2.5V43.4z M159.4,45.6h-2.5v0.8h2.5V45.6z
		 M159.4,47.9h-2.5v0.9h2.5V47.9z M158.1,53c0.5,0.5,1.1,0.9,1.8,1.3c0.7-0.4,1.4-0.8,2-1.3H158.1z"/>
	<path class="st1" d="M189.4,41c0,0,0,1-0.1,1.4c-0.5,9.6-1,13.2-2,14.4c-0.7,0.9-1.4,1.2-2.4,1.3c-0.9,0.1-2.4,0.1-3.8,0
		c0-0.9-0.4-2.1-1-3c1.5,0.1,2.9,0.1,3.6,0.1c0.5,0,0.8-0.1,1.1-0.4c0.7-0.7,1.2-3.9,1.6-11h-6.7c-0.4,5-2.1,10.8-8.8,14.6
		c-0.5-0.7-1.5-1.8-2.2-2.3c6-3.2,7.6-8.1,8-12.3h-7.2V41h7.3v-4.9h3V41H189.4z"/>
</g>
</svg>
