<svg id="text-feature-04_sp.svg" xmlns="http://www.w3.org/2000/svg" width="268.844" height="46.88" viewBox="0 0 268.844 46.88">
  <defs>
    <style>
      .cls-1 {
        fill: #1147b4;
      }

      .cls-1, .cls-2 {
        fill-rule: evenodd;
      }

      .cls-2 {
        fill: none;
        stroke: #1147b4;
        stroke-linecap: round;
        stroke-width: 3px;
        stroke-dasharray: 0.001 6;
      }
    </style>
  </defs>
  <path id="アレルガード機能" class="cls-1" d="M214.844,3112.29a24.17,24.17,0,0,1-6.09,5.95,7.851,7.851,0,0,1,2.824,1.39,1.353,1.353,0,0,0,.816.34,0.964,0.964,0,0,0,.715-0.31,28.749,28.749,0,0,0,5.988-6.56,4.236,4.236,0,0,1,.918-0.98,0.892,0.892,0,0,0,.477-0.72,1,1,0,0,0-.273-0.61,17.777,17.777,0,0,0-2.041-2.14,1.153,1.153,0,0,0-.782-0.47,2.773,2.773,0,0,0-.647.23,6.978,6.978,0,0,1-2.348.21h-14.6c-2.721,0-4.593-.07-6.906-0.24a31.7,31.7,0,0,0,.612,3.67,0.531,0.531,0,0,0,.613.51c2.007-.14,4.082-0.27,6.022-0.27h14.7Zm-19.9,19.75a9.527,9.527,0,0,1,3.1,1.73,0.986,0.986,0,0,0,.681.31,1.741,1.741,0,0,0,.952-0.34,17.7,17.7,0,0,0,6.193-6.77,20.749,20.749,0,0,0,2.007-9.35,3.129,3.129,0,0,1,.306-1.39,1.377,1.377,0,0,0,.17-0.61,0.625,0.625,0,0,0-.578-0.65,39.849,39.849,0,0,0-4.389-.64,12.255,12.255,0,0,1,.34,3.19,15.681,15.681,0,0,1-1.667,8.02C200.588,3128.26,198.649,3130.1,194.94,3132.04Zm38.489-17.37a14,14,0,0,1,.374-4.22,2.53,2.53,0,0,0,.17-0.71,0.662,0.662,0,0,0-.544-0.65,35,35,0,0,0-4.423-.74,32.051,32.051,0,0,1,.374,5.91l-0.068,12.78a6.73,6.73,0,0,1-.136,1.94,1.371,1.371,0,0,0-.17.58,0.831,0.831,0,0,0,.2.54,10.3,10.3,0,0,0,2.075,2.31,0.908,0.908,0,0,0,.579.27,0.983,0.983,0,0,0,.612-0.27,8.2,8.2,0,0,1,1.906-1.09,76.153,76.153,0,0,0,8.335-4.21,54.658,54.658,0,0,0,8.506-5.85,1.071,1.071,0,0,0,.34-1.36,15.29,15.29,0,0,1-.544-3.94,41.98,41.98,0,0,1-9.016,6.93,55.539,55.539,0,0,1-8.676,4.29Zm41.993-.07c0-2.45,0-3.13.307-3.77a2.2,2.2,0,0,0,.272-0.85,0.621,0.621,0,0,0-.613-0.58,31.848,31.848,0,0,0-4.253-.71,26.98,26.98,0,0,1,.341,5.91v10.64c0,1.73.034,2.14-.2,2.58a1.063,1.063,0,0,0-.137.51,1.368,1.368,0,0,0,.307.72,9.805,9.805,0,0,0,2.041,2.07,1.444,1.444,0,0,0,.715.27,1.077,1.077,0,0,0,.68-0.27,9.541,9.541,0,0,1,.987-0.71,57.45,57.45,0,0,0,6.056-4.08,42.884,42.884,0,0,0,5.035-4.46,1.273,1.273,0,0,0,.511-0.85,1.606,1.606,0,0,0-.2-0.57,9.864,9.864,0,0,1-1.055-3.44,32.346,32.346,0,0,1-5.954,5.78,33.652,33.652,0,0,1-4.832,3.16V3114.6Zm-11.874-3.77a9.112,9.112,0,0,1,.341,2.85c-0.034,5.44-.477,7.31-1.429,9.62a16.892,16.892,0,0,1-5.648,6.77,12.292,12.292,0,0,1,2.892,1.42,1.174,1.174,0,0,0,.646.28,1.517,1.517,0,0,0,.885-0.45,17.408,17.408,0,0,0,4.831-6.39,25.372,25.372,0,0,0,1.837-9.99,4.881,4.881,0,0,1,.409-2.31,0.68,0.68,0,0,0-.443-1.06A27.01,27.01,0,0,0,263.548,3110.83Zm36.176,2.75c-1.974,0-3.5,0-5.648-.14,0.068,1.26.136,2.49,0.272,3.3,0.034,0.41.17,0.61,0.51,0.58,1.6-.1,3.232-0.17,4.9-0.17h3.062a19.8,19.8,0,0,1-2.45,7.34,19.012,19.012,0,0,1-8,6.94,8.644,8.644,0,0,1,2.857,1.97,0.9,0.9,0,0,0,.647.34,1.566,1.566,0,0,0,.782-0.28,21.867,21.867,0,0,0,7.213-7c1.429-2.24,2.348-5.3,3.028-9.41h6.873a47.453,47.453,0,0,1-1.021,10.19c-0.408,1.53-.85,2.08-1.769,2.38a13.689,13.689,0,0,1-4.627.31,7.153,7.153,0,0,1,1.973,3.09,0.831,0.831,0,0,0,.817.68,14.629,14.629,0,0,0,3.436-.37c2.178-.54,3.335-1.97,4.015-4.59a57.834,57.834,0,0,0,1.259-11.18c0.068-1.8.136-3.16,0.136-3.61,0-.37-0.17-0.47-0.714-0.47-1.565,0-3.165.07-4.73,0.07h-5.171c0.17-1.67.2-2.49,0.306-3.57a3.169,3.169,0,0,1,.442-1.6,1.505,1.505,0,0,0,.17-0.65,0.705,0.705,0,0,0-.578-0.71,26.308,26.308,0,0,0-4.423-.71,13,13,0,0,1,.238,2.68c-0.034,1.84-.1,2.92-0.238,4.59h-3.572Zm14.528-4.96a17,17,0,0,1,3.436,3.94,0.354,0.354,0,0,0,.578.1l1.429-1.05a0.348,0.348,0,0,0,.1-0.55,15.5,15.5,0,0,0-3.232-3.63c-0.2-.17-0.34-0.21-0.51-0.07Zm3.13-2.25a16.2,16.2,0,0,1,3.4,3.91,0.344,0.344,0,0,0,.578.1l1.361-1.05a0.391,0.391,0,0,0,.1-0.61,14.147,14.147,0,0,0-3.232-3.5,0.344,0.344,0,0,0-.51-0.07Zm23.774,16.25c2.14,0,4.281.04,6.451,0.07,0.4,0.03.52-.1,0.52-0.51a29.447,29.447,0,0,0,0-3.2c0-.4-0.086-0.51-0.52-0.47-2.228.03-4.455,0.1-6.654,0.1h-9.314a31.689,31.689,0,0,1-6.249-.41c0.116,1.74.29,3.33,0.434,4.12a0.678,0.678,0,0,0,.666.71,19.7,19.7,0,0,1,4.252-.41h10.414Zm18.77-11.83c0-1.9,0-2.75.238-3.19a1.816,1.816,0,0,0,.272-0.78,0.624,0.624,0,0,0-.646-0.58,26.13,26.13,0,0,0-4.253-.55,25.988,25.988,0,0,1,.34,5.03v16.73c0,2.17-.034,4.18-0.136,6.69,0,0.41.17,0.51,0.646,0.51a21.857,21.857,0,0,0,3.028,0c0.477,0,.647-0.1.613-0.51-0.068-2.44-.136-4.45-0.136-6.66v-7.51a37.908,37.908,0,0,1,8.948,4.35,0.505,0.505,0,0,0,.374.17,0.564,0.564,0,0,0,.442-0.37,19.912,19.912,0,0,0,1.463-2.96,0.624,0.624,0,0,0-.374-0.88,48.188,48.188,0,0,0-10.819-4.63v-4.86Zm6.124-2.24a16.955,16.955,0,0,1,3.436,3.94,0.355,0.355,0,0,0,.579.1l1.429-1.05a0.339,0.339,0,0,0,.1-0.54,15.793,15.793,0,0,0-3.233-3.64,0.354,0.354,0,0,0-.51-0.07Zm3.13-2.24a15.954,15.954,0,0,1,3.4,3.9,0.35,0.35,0,0,0,.579.11l1.361-1.06a0.39,0.39,0,0,0,.1-0.61,14.185,14.185,0,0,0-3.232-3.5,0.353,0.353,0,0,0-.511-0.07Zm33.045,18.05h3.335c3.3,0,4.423.06,4.627,0.06,0.374,0,.408-0.03.408-0.37v-2.24c0-.34-0.034-0.38-0.408-0.38-0.2,0-1.157.07-3.675,0.07l0.919-.78a0.481,0.481,0,0,0,.238-0.31,0.49,0.49,0,0,0-.238-0.34,17.265,17.265,0,0,0-1.769-1.36l2.619-.37,0.273,0.98c0.068,0.38.136,0.41,0.578,0.24l1.225-.51c0.374-.17.476-0.2,0.374-0.51a30.493,30.493,0,0,0-1.633-4.25c-0.17-.34-0.2-0.4-0.612-0.23l-1.123.44c-0.443.17-.477,0.2-0.34,0.54l0.578,1.29c-0.987.11-1.973,0.21-2.892,0.28,1.225-1.36,2.62-3,3.811-4.56a4.046,4.046,0,0,1,1.054-1.12,0.428,0.428,0,0,0,.375-0.41,0.546,0.546,0,0,0-.307-0.44,16.422,16.422,0,0,0-2.245-1.33,9.574,9.574,0,0,1-.851,1.7c-0.34.51-.714,1.06-1.123,1.6-0.34-.44-0.714-0.92-1.122-1.39a31.849,31.849,0,0,0,2.279-3.2,1.66,1.66,0,0,1,.545-0.61,0.468,0.468,0,0,0,.306-0.37,0.51,0.51,0,0,0-.34-0.45c-0.647-.37-1.395-0.74-2.246-1.12a6.428,6.428,0,0,1-.544,1.29,18.3,18.3,0,0,1-1.667,2.66l-0.409-.41c-0.272-.24-0.272-0.27-0.578.03l-1.225,1.46v-0.13c-0.034-2.72-.034-3.4.136-3.84a1.6,1.6,0,0,0,.2-0.68,0.577,0.577,0,0,0-.612-0.38c-1.157-.13-1.9-0.2-3.164-0.24a36.03,36.03,0,0,1,.374,5.24v0.61a21.376,21.376,0,0,0-2.144-1.22,6.432,6.432,0,0,1-.646,1.36l-1.089,1.59c-0.34-.44-0.68-0.88-1.088-1.32a31.948,31.948,0,0,0,2.245-3.37,2.137,2.137,0,0,1,.578-0.61,0.42,0.42,0,0,0,0-.81,14.235,14.235,0,0,0-2.347-1.09,7.7,7.7,0,0,1-.51,1.29,21.769,21.769,0,0,1-1.7,2.75l-0.544-.51c-0.272-.23-0.374-0.2-0.578.07l-1.123,1.29a0.668,0.668,0,0,0-.2.38,0.4,0.4,0,0,0,.2.3,27.841,27.841,0,0,1,3.436,3.84c-0.782.99-1.565,1.98-2.347,2.86-0.273,0-.545,0-0.885-0.03,0.136,0.78.306,1.69,0.476,2.41a0.5,0.5,0,0,0,.443.44,0.926,0.926,0,0,0,.442-0.17,3.341,3.341,0,0,1,1.089-.27c1.6-.17,3.13-0.38,4.831-0.65l0.17,0.92c0.068,0.37.136,0.41,0.544,0.24l0.987-.44c0.374-.17.442-0.21,0.34-0.58a25.836,25.836,0,0,0-1.293-4.22c-0.136-.34-0.2-0.37-0.544-0.23l-0.885.34c-0.408.17-.476,0.17-0.34,0.54a12.167,12.167,0,0,1,.477,1.33l-2.756.23c1.088-1.22,2.551-3.06,3.742-4.62a3.06,3.06,0,0,1,1.089-1.12,79.184,79.184,0,0,0,1.089,10.06h-5c-3.334,0-4.457-.07-4.661-0.07-0.34,0-.374.04-0.374,0.38v2.24c0,0.34.034,0.37,0.374,0.37,0.136,0,.647-0.03,1.871-0.03-0.272,4.38-1.531,7.14-3.844,9.07a6.8,6.8,0,0,1,1.769,1.43,1.512,1.512,0,0,0,.749.61,1.4,1.4,0,0,0,.68-0.57,14.68,14.68,0,0,0,3.266-6.77,18.317,18.317,0,0,1,3.334,2.38,0.573,0.573,0,0,0,.307.21,0.509,0.509,0,0,0,.374-0.34l1.021-1.5c0.2-.27.238-0.41-0.034-0.61a20.968,20.968,0,0,0-3.2-2.11,0.442,0.442,0,0,0-.68.17l-1.055,1.43a30.728,30.728,0,0,0,.511-3.43H399.1a26.262,26.262,0,0,0,.715,2.61,16.757,16.757,0,0,0,1.02,2.79,23.851,23.851,0,0,1-7.383,3.4,6.477,6.477,0,0,1,1.293,1.7c0.272,0.58.408,0.78,0.681,0.78a3.4,3.4,0,0,0,.816-0.24,25.615,25.615,0,0,0,6.056-3.16c1.5,2.07,3.335,3.26,5.036,3.26,1.8,0,2.79-1.29,3.334-4.55,0.2-1.05.2-1.05-.782-1.56a9.2,9.2,0,0,1-1.6-1.02c-0.2,2.85-.646,3.77-1.429,3.77-0.578,0-1.395-.61-2.177-1.77a21.387,21.387,0,0,0,2.552-2.72,2.934,2.934,0,0,1,.986-0.88,0.572,0.572,0,0,0,.375-0.48,0.663,0.663,0,0,0-.341-0.51,14.781,14.781,0,0,0-2.449-1.32,7.533,7.533,0,0,1-.953,1.59,14.015,14.015,0,0,1-1.565,1.7,18.893,18.893,0,0,1-.749-2.34Zm-0.884-7.75a15.51,15.51,0,0,0,.442,2.31,0.471,0.471,0,0,0,.408.44,1.285,1.285,0,0,0,.545-0.17,2.618,2.618,0,0,1,1.02-.27l0.919-.11-0.783.58a0.605,0.605,0,0,0-.34.38,0.645,0.645,0,0,0,.272.3,13.586,13.586,0,0,1,1.7,1.43h-3.913a72.977,72.977,0,0,1-1.191-11.25,23.317,23.317,0,0,1,3.47,3.87c-0.714.92-1.429,1.77-2.075,2.52Zm-15.515,19.17c0.34,0,.374-0.04.374-0.38,0-.54-0.2-7.68-0.238-16.65a21.415,21.415,0,0,0,1.259,3.7,0.933,0.933,0,0,0,.408.61,0.647,0.647,0,0,0,.341-0.57,13.635,13.635,0,0,1,1.088-2.38,18.953,18.953,0,0,1-2.824-5.54c1.531,0.03,2.042.06,2.246,0.06,0.34,0,.374-0.03.374-0.37v-2.45c0-.3-0.034-0.34-0.374-0.34-0.2,0-.749.07-2.416,0.07v-2.41c0-2.21.068-2.76,0.238-3.16a2.222,2.222,0,0,0,.136-0.68c0-.21-0.17-0.34-0.51-0.38a31.8,31.8,0,0,0-3.2-.24,23.6,23.6,0,0,1,.272,4.49v2.38h-0.238c-2.109,0-2.722-.07-2.926-0.07-0.306,0-.34.04-0.34,0.34v2.45c0,0.34.034,0.37,0.34,0.37,0.2,0,.817-0.06,2.892-0.06H382.8a31.334,31.334,0,0,1-4.117,10.16,9.314,9.314,0,0,1,1.191,2.48,0.726,0.726,0,0,0,.34.54,0.931,0.931,0,0,0,.477-0.57,27.6,27.6,0,0,0,2.381-6.46c-0.068,7.82-.2,14.17-0.2,14.68,0,0.34.034,0.38,0.34,0.38h2.62Zm43.967-14.59c0-2.85.069-4.35,0.069-4.55,0-.34-0.035-0.37-0.375-0.37-0.2,0-1.054.06-3.572,0.06h-4.253c-2.518,0-3.368-.06-3.607-0.06-0.34,0-.374.03-0.374,0.37,0,0.24.068,1.49,0.068,4.25v10.2c0,2.75-.068,3.94-0.068,4.18,0,0.3.034,0.34,0.374,0.34h2.586c0.34,0,.374-0.04.374-0.34,0-.21-0.068-1.5-0.068-4.18v-2.21H426.6v2.55a0.9,0.9,0,0,1-1.122,1.02,13.7,13.7,0,0,1-2.042-.14,6.928,6.928,0,0,1,.681,2c0.2,1.02.2,1.02,1.258,1.02,2.552-.03,3.2-0.27,3.743-0.74a3.375,3.375,0,0,0,.749-2.69c0-1.05-.069-2.89-0.069-4.62v-6.09Zm-3.2-2.1v2.27h-5.648v-2.27H426.6Zm-5.648,7.17v-2.28H426.6v2.28h-5.648Zm15,1.87a71.491,71.491,0,0,0,7.417-3.23,5.046,5.046,0,0,1,1.531-.61,0.544,0.544,0,0,0,.544-0.41,1.189,1.189,0,0,0-.34-0.65,18.75,18.75,0,0,0-2.11-2.21,8.207,8.207,0,0,1-1.837,1.43,31.652,31.652,0,0,1-5.2,2.48v-1.63a3.864,3.864,0,0,1,.17-1.8,1.281,1.281,0,0,0,.2-0.61c0-.24-0.2-0.34-0.578-0.41-1.123-.14-2.314-0.2-3.4-0.24a17.923,17.923,0,0,1,.2,3.3v8.57a2.468,2.468,0,0,0,1.191,2.48c1.021,0.51,2.858.61,5.376,0.61,2.756,0,4.763-.44,5.648-1.06,0.952-.68,1.361-1.66,1.6-3.77,0.1-.88.1-0.92-0.749-1.12a9.933,9.933,0,0,1-2.449-.95c-0.068,1.83-.068,2.62-0.579,3.16-0.442.44-1.973,0.61-3.3,0.61a8.789,8.789,0,0,1-2.722-.24,1,1,0,0,1-.612-1.15v-2.55Zm-0.034-20.19a4.489,4.489,0,0,1,.17-1.87,1.207,1.207,0,0,0,.2-0.58c0-.2-0.2-0.34-0.578-0.37-1.123-.14-2.314-0.21-3.4-0.24a18.277,18.277,0,0,1,.2,3.33v8.06c0,1.25.375,1.9,1.157,2.2a14.53,14.53,0,0,0,5.206.58c2.79,0,4.729-.2,5.682-0.88,0.952-.65,1.326-1.6,1.565-3.64,0.034-.92.034-0.92-0.783-1.15a10.659,10.659,0,0,1-2.382-.99c-0.068,1.87-.068,2.55-0.476,2.96-0.408.44-1.6,0.61-3.4,0.61a10.081,10.081,0,0,1-2.586-.2,0.84,0.84,0,0,1-.578-1.02v-2.01a53.62,53.62,0,0,0,7.213-2.92,6.109,6.109,0,0,1,1.565-.61,0.52,0.52,0,0,0,.476-0.41,0.81,0.81,0,0,0-.306-0.58,17.813,17.813,0,0,0-2.076-2.18,7.6,7.6,0,0,1-1.871,1.4,41.145,41.145,0,0,1-5,2.17v-1.66Zm-10.037.27c-0.374.17-.443,0.27-0.238,0.58,0.476,0.71.918,1.42,1.361,2.17-1.7.21-3.5,0.34-5.342,0.48,0.68-1.29,1.429-2.89,1.973-4.08a2.817,2.817,0,0,1,.613-0.99,0.848,0.848,0,0,0,.374-0.61,0.606,0.606,0,0,0-.544-0.51,21.423,21.423,0,0,0-3.233-.61,13.394,13.394,0,0,1-.612,2.31,42.042,42.042,0,0,1-2.007,4.73c-0.885.03-1.906,0.03-2.79,0.03,0.1,0.99.272,2.04,0.442,2.96,0.1,0.41.238,0.54,0.442,0.54a1.41,1.41,0,0,0,.511-0.13,4.165,4.165,0,0,1,1.361-.31c3.436-.31,6.974-0.68,10.172-1.16l0.613,1.5c0.17,0.37.272,0.41,0.646,0.17l1.94-1.05c0.374-.21.408-0.34,0.238-0.68a43.193,43.193,0,0,0-3.573-6.09,0.454,0.454,0,0,0-.714-0.17Z" transform="translate(-185.375 -3104.62)"/>
  <path id="シェイプ_1024" data-name="シェイプ 1024" class="cls-2" d="M188.375,3147H456" transform="translate(-185.375 -3104.62)"/>
</svg>
