<svg id="text-feature-03-01_sp.svg" xmlns="http://www.w3.org/2000/svg" width="244.406" height="65.62" viewBox="0 0 244.406 65.62">
  <defs>
    <style>
      .cls-1 {
        fill: #1147b4;
      }

      .cls-1, .cls-2 {
        fill-rule: evenodd;
      }

      .cls-2 {
        fill: none;
        stroke: #1147b4;
        stroke-linecap: round;
        stroke-width: 3px;
        stroke-dasharray: 0.001 6;
      }
    </style>
  </defs>
  <path id="美容液" class="cls-1" d="M237.723,2682.84c3.028,0,4.048.07,4.253,0.07,0.374,0,.408-0.04.408-0.41v-2.38c0-.34-0.034-0.37-0.408-0.37-0.205,0-1.225.06-4.253,0.06H228.74v-2.2h5.274c3.3,0,4.457.06,4.661,0.06,0.341,0,.375-0.03.375-0.37v-2.18c0-.34-0.034-0.37-0.375-0.37-0.2,0-1.361.07-4.661,0.07H228.74v-2.01h6.873c3.266,0,4.355.07,4.559,0.07,0.341,0,.375-0.03.375-0.37v-2.28c0-.37-0.034-0.41-0.375-0.41-0.2,0-1.293.07-4.559,0.07h-2.96c0.442-.61.885-1.26,1.225-1.8a2.18,2.18,0,0,1,.578-0.68,0.7,0.7,0,0,0,.375-0.55,0.533,0.533,0,0,0-.443-0.47,32.513,32.513,0,0,0-3.47-.75,9.09,9.09,0,0,1-.578,1.73,22.641,22.641,0,0,1-1.4,2.52h-6.669l1.837-.85c0.477-.24.477-0.31,0.238-0.71a16.4,16.4,0,0,0-1.905-2.52c-0.238-.27-0.306-0.31-0.714-0.14l-2.28,1.02a0.454,0.454,0,0,0-.34.31,0.68,0.68,0,0,0,.238.37,18.137,18.137,0,0,1,1.633,2.52H218.84c-3.3,0-4.389-.07-4.593-0.07-0.341,0-.375.04-0.375,0.41v2.28c0,0.34.034,0.37,0.375,0.37,0.2,0,1.292-.07,4.593-0.07h6.328v2.01h-4.729c-3.3,0-4.457-.07-4.661-0.07-0.307,0-.341.03-0.341,0.37v2.18c0,0.34.034,0.37,0.341,0.37,0.2,0,1.361-.06,4.661-0.06h4.729v2.2H216.7c-3.028,0-4.049-.06-4.253-0.06-0.34,0-.374.03-0.374,0.37v2.38c0,0.37.034,0.41,0.374,0.41,0.2,0,1.225-.07,4.253-0.07h21.027Zm-0.885,5.44c3.13,0,4.219.07,4.423,0.07,0.34,0,.374-0.04.374-0.38v-2.34c0-.34-0.034-0.38-0.374-0.38-0.2,0-1.293.07-4.423,0.07H228.4a1.948,1.948,0,0,1,.306-0.81,0.873,0.873,0,0,0,.239-0.58c0-.27-0.239-0.41-0.647-0.48-0.987-.1-2.279-0.2-3.436-0.27a8.522,8.522,0,0,1-.068,2.14h-7.111c-3.164,0-4.253-.07-4.457-0.07-0.34,0-.374.04-0.374,0.38v2.34c0,0.34.034,0.38,0.374,0.38,0.2,0,1.293-.07,4.457-0.07h6.022a6.79,6.79,0,0,1-1.8,2.11c-2.178,1.76-5.886,2.78-10.207,3.29a8.22,8.22,0,0,1,1.225,2.25c0.272,0.71.34,0.91,0.748,0.91a3.684,3.684,0,0,0,.715-0.1,22.542,22.542,0,0,0,9.73-3.87,12.459,12.459,0,0,0,2.79-3.2c2.994,3.95,7.792,6.26,13.167,7.07a6.346,6.346,0,0,0,.715.07c0.408,0,.442-0.2.748-0.92a8.972,8.972,0,0,1,1.259-2.34c-5.92-.48-10.343-2.25-12.929-5.27h6.975Zm16.987,2.82c0,4.38-.068,5.2-0.068,5.4,0,0.34.034,0.38,0.374,0.38h2.858c0.34,0,.374-0.04.374-0.38v-1.25h11.7v1.15c0,0.38.034,0.41,0.409,0.41H272.3c0.34,0,.374-0.03.374-0.41,0-.17-0.068-0.98-0.068-5.37v-3.94c1.191,0.64,2.484,1.22,3.844,1.8a2.093,2.093,0,0,0,.783.24c0.272,0,.34-0.24.544-0.89a7.576,7.576,0,0,1,1.225-2.51c-6.022-1.77-10.513-4.49-13.915-8.26l0.068-.07a0.543,0.543,0,0,0,.34-0.41,0.5,0.5,0,0,0-.442-0.44,26.29,26.29,0,0,0-3.267-.64,11.466,11.466,0,0,1-1.905,2.65c-2.62,2.95-6.532,5.54-12.214,7.65a5.69,5.69,0,0,1,1.259,2.1c0.238,0.61.34,0.85,0.646,0.85a2.7,2.7,0,0,0,.817-0.27c1.19-.54,2.347-1.12,3.436-1.7v3.91Zm3.538-3.26h11.7v4.52h-11.7v-4.52Zm0.034-2.89a30.587,30.587,0,0,0,5.784-5.2,27.577,27.577,0,0,0,5.784,5.2H257.4Zm7.383-16.08v-0.03a6.2,6.2,0,0,1,.171-2.01,2.976,2.976,0,0,0,.2-0.68c0-.14-0.17-0.27-0.545-0.31-1.156-.1-2.415-0.17-3.674-0.2a13.556,13.556,0,0,1,.272,3.23h-7.247c-3.164,0-4.287-.07-4.525-0.07-0.34,0-.374.04-0.374,0.38,0,0.23.068,0.74,0.068,1.83v1.09c0,2.82-.068,3.3-0.068,3.53,0,0.34.034,0.38,0.374,0.38h2.858c0.34,0,.374-0.04.374-0.38v-3.74h21.2v3.74c0,0.34.034,0.38,0.374,0.38H277.1c0.34,0,.374-0.04.374-0.38,0-.2-0.068-0.71-0.068-3.53v-1.33c0-.85.068-1.39,0.068-1.59,0-.34-0.034-0.38-0.374-0.38-0.238,0-1.361.07-4.525,0.07H264.78Zm-7.417,4.04a8.2,8.2,0,0,1-1.429,1.77,16.7,16.7,0,0,1-6.056,3.71,6.132,6.132,0,0,1,1.667,1.87,1.162,1.162,0,0,0,.749.81,2.4,2.4,0,0,0,.816-0.34,25,25,0,0,0,5.955-4.55,4.038,4.038,0,0,1,1.088-.89,0.565,0.565,0,0,0,.477-0.44,0.5,0.5,0,0,0-.341-0.51A31,31,0,0,0,257.363,2672.91Zm9.017,1.43c-0.409.27-.409,0.34-0.171,0.61a24.317,24.317,0,0,0,7.724,5.71,1.879,1.879,0,0,0,.782.31c0.2,0,.306-0.24.579-0.85a12.9,12.9,0,0,1,1.293-2.14,18.435,18.435,0,0,1-7.758-4.76,0.394,0.394,0,0,0-.646-0.03Zm37.469,6.63a0.743,0.743,0,0,0-.307.34,0.6,0.6,0,0,0,.238.31,14.818,14.818,0,0,1,2.11,2.55c0.2,0.34.272,0.27,0.646-.04l1.259-1.09c0.34-.3.374-0.37,0.136-0.68a14.47,14.47,0,0,0-2.177-2.41c-0.272-.24-0.374-0.2-0.715.07Zm1.292-4.83,0.307-.85a3.646,3.646,0,0,1,.578-1.15,0.792,0.792,0,0,0,.306-0.48c0-.2-0.17-0.34-0.544-0.41a22.772,22.772,0,0,0-3.062-.47,9.425,9.425,0,0,1-.409,1.9,22.542,22.542,0,0,1-5.783,9.15,5.7,5.7,0,0,1,1.429,1.56,1.18,1.18,0,0,0,.68.71,1.492,1.492,0,0,0,.714-0.54l0.953-1.09a26.407,26.407,0,0,0,3.4,5.17,22.659,22.659,0,0,1-6.7,4.15,6.18,6.18,0,0,1,1.361,1.97,0.849,0.849,0,0,0,.646.71,1.981,1.981,0,0,0,.749-0.24,25.108,25.108,0,0,0,6.192-4.35,27.753,27.753,0,0,0,7.009,4.35,2.548,2.548,0,0,0,.782.21c0.272,0,.375-0.24.579-0.89a8.3,8.3,0,0,1,1.156-2.34,22.605,22.605,0,0,1-7.383-3.67,27.174,27.174,0,0,0,4.73-9.45,3.176,3.176,0,0,1,.612-1.47,0.649,0.649,0,0,0,.272-0.57,1.689,1.689,0,0,0-.782-1.19c-0.817-.85-1.055-0.92-1.293-0.92a0.787,0.787,0,0,0-.408.1,2.012,2.012,0,0,1-.783.1h-5.308Zm4.7,2.69a20.193,20.193,0,0,1-4.049,8.56,21.631,21.631,0,0,1-3.641-5.43,32.392,32.392,0,0,0,1.77-3.13h5.92Zm-16.5,13.49c0,2.69-.068,3.95-0.068,4.15,0,0.34.034,0.37,0.375,0.37h2.517c0.375,0,.409-0.03.409-0.37,0-.17-0.068-1.46-0.068-4.15v-12.98a32.726,32.726,0,0,0,1.871-3.54,3.585,3.585,0,0,1,.68-1.19,0.846,0.846,0,0,0,.306-0.57,0.541,0.541,0,0,0-.51-0.48,27.859,27.859,0,0,0-2.926-.75,10.22,10.22,0,0,1-.578,1.91,22.993,22.993,0,0,1-6.09,8.43,8.509,8.509,0,0,1,1.565,1.83,1.184,1.184,0,0,0,.578.68,1.3,1.3,0,0,0,.646-0.51c0.443-.47.885-1.02,1.327-1.53,0,0.99-.034,2.08-0.034,2.89v5.81Zm16.3-20.09c3.369,0,4.526.07,4.73,0.07,0.306,0,.34-0.03.34-0.37v-2.45c0-.3-0.034-0.34-0.34-0.34-0.2,0-1.361.07-4.73,0.07h-5.273v-0.82a4.923,4.923,0,0,1,.2-1.66,1.412,1.412,0,0,0,.17-0.58,0.481,0.481,0,0,0-.544-0.37c-1.089-.11-2.178-0.17-3.4-0.21a13.49,13.49,0,0,1,.239,2.82v0.82h-4.083c-3.334,0-4.491-.07-4.695-0.07-0.375,0-.409.04-0.409,0.34v2.45c0,0.34.034,0.37,0.409,0.37,0.2,0,1.361-.07,4.695-0.07h12.69Zm-25.755,22.03a18.621,18.621,0,0,0,2.484,1.73,1.282,1.282,0,0,0,.578.21,0.436,0.436,0,0,0,.374-0.48,7.379,7.379,0,0,1,.443-1.32,57.061,57.061,0,0,0,2.687-7.38c0.273-.98.273-0.98-0.646-1.66a11.746,11.746,0,0,1-1.769-1.57,49.638,49.638,0,0,1-2.654,7.79A22.088,22.088,0,0,1,283.877,2694.26Zm1.021-25.97a1.01,1.01,0,0,0-.239.38,0.428,0.428,0,0,0,.239.27,22.2,22.2,0,0,1,4.218,3.63c0.273,0.28.341,0.21,0.613-.1l1.565-2a0.911,0.911,0,0,0,.2-0.41,0.5,0.5,0,0,0-.2-0.31,25.922,25.922,0,0,0-4.253-3.43c-0.272-.2-0.374-0.17-0.646.17Zm-1.089,8.43a0.759,0.759,0,0,0-.2.41,0.347,0.347,0,0,0,.238.27,21.222,21.222,0,0,1,4.185,3.47c0.272,0.27.374,0.2,0.646-.17l1.429-2.08a0.847,0.847,0,0,0,.2-0.4,0.5,0.5,0,0,0-.2-0.31,25.624,25.624,0,0,0-4.219-3.16,0.434,0.434,0,0,0-.68.1Z" transform="translate(-197.375 -2646.88)"/>
  <path id="_50_" data-name="50%" class="cls-1" d="M357.353,2647.7H336.47l-7.49,25.5a20.585,20.585,0,0,1,4.464-2.27,15.608,15.608,0,0,1,5.9-1.06c2.421,0,5.751.45,8.247,2.8,1.589,1.51,3.027,4.01,3.027,8.17a11.713,11.713,0,0,1-3.254,8.55,10.719,10.719,0,0,1-7.717,2.8,11.869,11.869,0,0,1-6.583-1.74,11.725,11.725,0,0,1-3.858-4.39l-5.826,4.84a18.238,18.238,0,0,0,5.977,5.83,18.9,18.9,0,0,0,9.685,2.27c5.145,0,9.987-1.21,14-5.15,3.4-3.4,5.145-7.86,5.145-13.39,0-6.58-2.5-10.59-4.918-12.94a16.688,16.688,0,0,0-11.652-4.46c-0.757,0-1.589.08-2.345,0.15l2.5-8.4h15.587v-7.11Zm23.09,51.3a14.548,14.548,0,0,0,11.425-5.45c5.3-6.05,6.431-14,6.431-20.58,0-6.51-1.135-14.6-6.431-20.65a14.7,14.7,0,0,0-22.85,0c-5.3,6.05-6.431,14.14-6.431,20.65,0,6.58,1.134,14.53,6.431,20.58A14.547,14.547,0,0,0,380.443,2699Zm0-45.32c1.967,0,4.615.83,6.809,4.16,2.8,4.16,3.481,10.67,3.481,15.06,0,4.46-.681,10.89-3.481,15.13-2.194,3.33-4.842,4.16-6.809,4.16s-4.616-.83-6.81-4.16c-2.8-4.24-3.48-10.67-3.48-15.13,0-4.39.681-10.9,3.48-15.06C375.827,2654.51,378.476,2653.68,380.443,2653.68Zm28.085,19.03a5.942,5.942,0,1,0,6.091,5.94A6.053,6.053,0,0,0,408.528,2672.71Zm0,9.15a3.216,3.216,0,1,1,3.14-3.21A3.135,3.135,0,0,1,408.528,2681.86Zm-0.113,15.63,1.778,1.09,14.413-25.04-1.778-1.02Zm16.078-10.94a5.942,5.942,0,1,0,6.09,5.94A6.059,6.059,0,0,0,424.493,2686.55Zm0,9.16a3.216,3.216,0,1,1,3.14-3.22A3.137,3.137,0,0,1,424.493,2695.71Z" transform="translate(-197.375 -2646.88)"/>
  <path id="シェイプ_1024" data-name="シェイプ 1024" class="cls-2" d="M200.375,2708H441" transform="translate(-197.375 -2646.88)"/>
</svg>
