<?xml version="1.0" encoding="utf-8"?>
<!-- Generator: Adobe Illustrator 26.0.3, SVG Export Plug-In . SVG Version: 6.00 Build 0)  -->
<svg version="1.1" id="text-feature-01_sp.svg" xmlns="http://www.w3.org/2000/svg" xmlns:xlink="http://www.w3.org/1999/xlink"
	 x="0px" y="0px" viewBox="0 0 383.1 44.4" style="enable-background:new 0 0 383.1 44.4;" xml:space="preserve">
<style type="text/css">
	.st0{fill:none;stroke:#1147B4;stroke-width:3;stroke-linecap:round;stroke-dasharray:1.000000e-03,6;}
	.st1{fill:#1147B4;}
</style>
<path id="シェイプ_1024" class="st0" d="M1.5,42.9h380.1"/>
<g>
	<path class="st1" d="M30.9,18.2c-1,3.2-2.4,5.7-4.3,8c1.7,1.1,3.6,1.8,5.7,2.4c-0.8,0.7-1.8,2.2-2.4,3.1c-2.4-0.7-4.3-1.7-6.2-3.1
		c-1.7,1.3-3.6,2.2-5.6,2.9c-0.4-0.8-1.1-2-1.8-2.7v2.8h-3.8v-2.8C8.8,29.3,4.9,29.7,1.9,30l-0.4-3.4c0.8,0,2-0.1,2.9-0.1V16.2H1.9
		v-3.1h29.8v3.1H16.3v12.2c1.7-0.6,3.4-1.4,4.8-2.4c-1.3-1.4-2.2-3.1-3.1-5l2.2-0.6H17v-2.9h10.8l0.7-0.1L30.9,18.2z M9.1,12.3H5.3
		V1.5h23.2v10.8h-4.1v-8H9.1V12.3z M8.1,16.2v1.3h4.3v-1.3H8.1z M8.1,21.7h4.3v-1.4H8.1V21.7z M8.1,26.2c1.4-0.1,2.9-0.3,4.3-0.4
		v-1.4H8.1V26.2z M23.3,8H10V5.6h13.3V8z M10,9.2h13.2v2.5H10C10,11.8,10,9.2,10,9.2z M21.2,20.4c0.6,1.3,1.4,2.4,2.4,3.4
		c1-1,1.7-2.1,2.4-3.4H21.2z"/>
	<path class="st1" d="M64.8,3.6V7H35.4V3.6h12.9C48,2.8,47.7,2,47.4,1.3l4.1-1c0.4,1,0.8,2.2,1.3,3.4H64.8z M64.1,28.1
		c0,1.7-0.4,2.4-1.7,2.9c-1.3,0.4-2.9,0.4-5.3,0.4c-0.1-0.8-0.7-2-1.1-2.8h-9.5v1.4h-3.6v-8.8h14.6v7.4h-0.4c1.1,0,2.4,0,2.7,0
		c0.4,0,0.7-0.1,0.7-0.6V20H40.1v11.8h-3.8v-15h27.7C64.1,16.8,64.1,28.1,64.1,28.1z M60.9,15.4h-21V8.3h21V15.4z M56.7,10.9H43.8
		v1.8h12.9V10.9z M53.7,23.9h-7.3v2h7.3V23.9z"/>
	<path class="st1" d="M78.1,1.8c-0.7,2-1.5,4.1-2.5,6v23.8h-3.9V14.4c-0.7,1.1-1.5,2.1-2.2,2.9c-0.3-1-1.4-3.2-2.1-4.2
		c2.8-3.1,5.6-7.8,7.1-12.6L78.1,1.8z M89.6,20.7v7.1c0,1.7-0.3,2.7-1.5,3.2c-1.1,0.6-2.8,0.6-4.9,0.6c-0.1-1.1-0.7-2.5-1.1-3.5
		c1.1,0,2.7,0,3.1,0c0.4,0,0.6-0.1,0.6-0.4v-6.6c-2.5,0.1-4.1,0.4-5,0.6l3.5,1c-1.3,2.5-3.1,5.5-4.9,7.3c-0.8-0.7-2.1-1.5-2.9-2
		c1.5-1.7,3.2-4.3,4.2-6.3c-1,0.1-1.4,0.1-1.8,0.4c-0.1-0.6-0.7-2.2-1.1-3.1c1.1-0.1,2.2-0.8,4.1-2c0.7-0.4,2.2-1.4,3.9-2.7
		c-4.8,0.3-5.7,0.4-6.4,0.7c-0.1-0.7-0.7-2.2-1-3.2c0.7-0.1,1.4-0.6,2.4-1.1c0.8-0.6,3.2-2.2,5.3-4.3c-2.1,0.6-4.3,1-6.3,1.4
		c-0.1-0.8-0.7-2.2-1.1-3.1C83.7,3.6,89.6,2,93.2,0.3l2.7,3.1c-2.2,1-5,1.8-7.8,2.5l2.1,1c-1.7,1.7-3.5,3.1-5.5,4.5l5-0.1
		c1.4-1.3,2.8-2.5,4.2-3.8l2.7,2.2c-3.4,3.2-7.1,6-10.8,8.4l7.6-0.6c-0.7-0.8-1.4-1.5-2-2.2l2.9-1.8c1.8,2,4.2,4.6,5.2,6.3l-3.2,2.1
		c-0.1-0.4-0.4-0.8-0.8-1.4L89.6,20.7z M94.3,21.1c1.7,2,3.6,4.6,4.3,6.3l-3.5,1.8c-0.7-1.8-2.5-4.6-4.2-6.6L94.3,21.1z"/>
	<path class="st1" d="M130.3,10.2c-0.6,4.9-1.5,9-3.1,12.3c1.4,2.7,3.4,4.8,5.7,6c-0.8,0.7-2,2.1-2.5,3.1c-2.1-1.4-3.9-3.4-5.3-5.7
		c-1.8,2.5-4.2,4.3-7.3,5.9c-0.1-0.4-0.7-1.3-1.1-2l-1,0.8c-1.1-0.7-2.4-1.3-4.1-2c-2.1,1.1-5,2.2-9.2,2.9c-0.3-0.7-1-2-1.5-2.5
		c2.9-0.4,5.2-1,7-1.7c-1.5-0.6-3.1-1-4.6-1.4c0.6-0.7,1.3-1.5,1.8-2.5h-3.5v-2.7h5.2c0.3-0.6,0.6-1,0.8-1.5H103v-5.9h5.9v-1h-5.3
		V8.8h-2.2V6h2.2V2.5h5.3v-2h2.9v2h5.7V6h1.7v2.8h-1.7v3.6h-5.7v1h6.2v1.4c1.8-3.6,3.2-9.1,4.1-14.3l3.2,0.6
		c-0.3,1.8-0.7,3.8-1.1,5.6h8.1v3.5C132.3,10.2,130.3,10.2,130.3,10.2z M106.4,17.1h2.7v-1.4h-2.7V17.1z M106.6,5v1.1h2.4V5H106.6z
		 M109,9.9V8.5h-2.4v1.4H109z M108.9,23.5c-0.3,0.4-0.6,0.7-0.7,1.1c1.1,0.3,2.1,0.6,3.2,1c0.8-0.7,1.4-1.4,1.7-2.1H108.9z
		 M116.3,23.5c-0.3,1.1-0.8,2.2-1.8,3.4c1.1,0.4,2.1,0.8,3.1,1.4c2.7-1.4,4.5-3.4,5.9-5.7c-0.8-2.1-1.4-4.3-2-6.9
		c-0.4,1-0.8,2-1.4,2.8c-0.4-0.4-1.3-1.4-2-2v2.9h-7c-0.3,0.6-0.6,1-0.7,1.5h2.9v-1h3.1v1h2.8v2.7h-2.9V23.5z M112.1,5v1.1h2.7V5
		H112.1z M114.6,9.9V8.5H112v1.4H114.6z M112.1,15.7v1.4h2.8v-1.4H112.1z M123.4,10.2c0.4,2.9,1.1,5.6,2,8c0.7-2.4,1.3-5,1.5-8
		H123.4z"/>
	<path class="st1" d="M134.8,4.3l0.7-1.3l-1.4-0.6l0.3-0.8l1.4,0.3l0.1-1.5h0.8l0.1,1.5l1.4-0.3l0.3,0.8l-1.4,0.6l0.8,1.3l-0.6,0.6
		l-1-1.1l-1,1.1L134.8,4.3z"/>
	<path class="st1" d="M140.4,8.3h1.8v-5h-1.5V2.1c0.8-0.1,1.4-0.4,2-0.7h1.3v6.9h1.5v1.4h-5L140.4,8.3L140.4,8.3z"/>
</g>
<g>
	<path class="st1" d="M173.3,17.5c2.4,2,5.5,4.8,7,6.9l-3.5,1.5c-0.6-0.7-1.3-1.7-2.2-2.7l-7.3,0.6v4.1c0,1.8-0.4,2.7-1.8,3.2
		c-1.4,0.6-3.1,0.6-5.5,0.6c-0.3-1.1-0.8-2.5-1.4-3.4c1.5,0,3.5,0,3.9,0c0.6,0,0.7-0.1,0.7-0.6v-3.6c-7.8,0.6-9.2,0.8-10.4,1.3
		c-0.1-0.7-0.7-2.4-1-3.4c1.3-0.1,2.5-0.6,4.6-1.3c1-0.3,2.8-1.1,5-2.1c-5.5,0.4-6.6,0.7-7.3,1c-0.1-0.8-0.7-2.4-1-3.2
		c0.8-0.1,1.7-0.4,2.8-0.8c1-0.4,4.1-1.7,6.6-3.4c-4.6,0.7-9.4,1.4-12.7,1.8l-0.3-3.5l2.1-0.1V2.9h3.5v7l2.1-0.3V0.4h3.8v2.9h4.1
		v3.2h-4.1v2.7l4.2-0.4v3.1l-0.8,0.1l2.1,1.8c-1.3,0.7-2.7,1.4-4.1,2l5.3-0.4c1-0.6,2.1-1.3,2.9-1.8l2.4,2.8
		c-3.1,1.8-6.4,3.5-9.8,4.8l8.5-0.6c-0.6-0.6-1.1-1.1-1.8-1.7L173.3,17.5z M160.5,26.2c-2.1,1.8-5.2,3.6-7.7,4.8
		c-0.7-0.7-2.1-1.8-2.9-2.4c2.5-1,5.5-2.4,7.1-3.8L160.5,26.2z M171.2,13.2c-4.1,0-5-1-5-4.5V0.3h3.9v2.9h9.1v3.4h-9.1v2.2
		c0,1.1,0.3,1.1,1.5,1.1h3.9c1.1,0,1.3-0.4,1.4-2.4c0.8,0.6,2.4,1.1,3.4,1.3c-0.4,3.5-1.5,4.3-4.5,4.3
		C175.8,13.2,171.2,13.2,171.2,13.2z M172,24.5c2.5,1.3,5.7,3.1,7.7,4.2l-3.2,2.1c-1.8-1.3-5-3.2-7.6-4.5L172,24.5z"/>
	<path class="st1" d="M197.2,5l2.8,0.8c-1.5,13.4-6.3,21.7-13.7,25.6c-0.7-1-2.4-2.7-3.4-3.4c3.8-1.8,6.9-4.5,9-8.5
		c-1.1-1.4-2.8-3.1-4.3-4.8c-0.6,1-1.1,1.8-1.7,2.5c-0.7-0.7-2.4-2-3.4-2.5c2.9-3.4,4.9-8.8,5.9-14.6l4.1,0.7
		c-0.3,1.4-0.7,2.8-1,4.2h4.9L197.2,5z M190.2,9c-0.3,0.8-0.6,1.7-1,2.5c1.4,1.3,2.9,2.8,4.3,4.2c0.7-2,1.3-4.2,1.7-6.7H190.2z
		 M210.9,20.7c-1.1-1.7-3.4-4.1-5.3-6.3v17.1h-4.2V0.4h4.2v11.1l1.4-1.1c2.2,2.2,5.7,5.6,7.3,7.6L210.9,20.7z"/>
	<path class="st1" d="M225.5,21.1c0-0.4-0.1-1-0.3-1.4c-6,0.8-7.1,1.3-7.8,1.5c-0.1-0.7-0.8-2.5-1.3-3.6c0.8-0.3,1.7-1,2.7-2.2
		c0.4-0.4,1.1-1.4,2-2.7c-2.4,0.3-3.2,0.6-3.6,0.7c-0.1-0.7-0.8-2.5-1.3-3.5c0.7-0.1,1.3-0.8,1.8-1.8c0.7-1,2.7-4.6,3.6-8.1l3.6,1.4
		c-1.1,2.7-2.7,5.6-4.3,7.8l2.2-0.1c0.8-1.4,1.7-2.9,2.4-4.5l3.4,2.1c-1.3,2.4-2.8,4.6-4.5,6.9l2.5-0.7c0.7,2.2,1.5,5.2,1.8,7
		L225.5,21.1z M220.6,22.7c-0.3,3.1-0.8,6.3-1.5,8.5c-0.7-0.3-2.1-0.8-2.9-1c0.8-2,1.3-5,1.4-8L220.6,22.7z M223.8,22.3
		c0.4,2.2,0.7,5,0.7,7.1l-2.9,0.6c0-2-0.3-4.9-0.6-7.1L223.8,22.3z M224.7,16.7c-0.1-0.8-0.4-1.5-0.6-2.2c-0.7,0.8-1.4,1.8-2.2,2.7
		L224.7,16.7z M227,21.3c0.6,1.4,1.1,3.4,1.4,4.6l-2.7,0.8c-0.1-1.3-0.7-3.2-1.3-4.6L227,21.3z M236.3,18.8c-1.1,5.2-3.6,9-7,11.2
		c-0.4-0.8-1.5-2.1-2.2-2.8c2.1-1.1,3.8-3.4,4.9-5.9H229v-3.2h4.5l0.6-0.1L236.3,18.8z M247.2,19c-1.5,1.1-3.1,2.5-4.3,3.5
		c1.3,2,2.9,3.6,4.9,4.6c-0.8,0.7-2.1,2.2-2.7,3.2c-2-1.4-3.5-3.2-4.8-5.6v2.8c0,1.8-0.3,2.8-1.4,3.4c-1.1,0.6-2.7,0.7-4.8,0.7
		c-0.1-1.1-0.6-2.7-1.1-3.6c1.3,0,2.7,0,2.9,0c0.4,0,0.6-0.1,0.6-0.4V16.1h-6.4V3.9h4.8c0.4-1.3,0.8-2.5,1.1-3.5l4.5,0.8
		c-0.6,1-1,1.8-1.5,2.8h7.1v12.2h-5.9v1.1c0.3,1,0.7,1.8,1,2.7c1.1-1,2.2-2.2,2.9-3.2L247.2,19z M233.8,8.5h8.5V6.9h-8.5V8.5z
		 M233.8,13h8.5v-1.8h-8.5V13z"/>
	<path class="st1" d="M262.2,3.2c-0.8,2.9-2.1,6.6-3.1,9.2c2.1,2.7,2.5,4.9,2.5,6.9c0,2.2-0.4,3.6-1.5,4.3c-0.6,0.4-1.1,0.7-2,0.7
		c-0.7,0.1-1.4,0.1-2.2,0.1c0-1-0.3-2.5-0.8-3.6c0.6,0,1.1,0,1.4,0c0.4,0,0.7,0,1-0.3c0.4-0.3,0.6-1,0.6-2c0-1.5-0.4-3.6-2.4-5.9
		c0.7-2.1,1.4-5.2,2-7.6h-2.9v26.2H251V1.8h8l0.6-0.1L262.2,3.2z M269.7,9.4c0,1.4-0.1,2.7-0.1,3.9h9.1c0,0,0,1.1,0,1.7
		c-0.3,9.7-0.7,13.6-1.7,14.8c-0.7,1-1.5,1.4-2.7,1.5c-1,0.1-2.7,0.1-4.3,0.1c0-1.1-0.6-2.8-1.3-3.9c1.5,0.1,2.8,0.1,3.5,0.1
		c0.6,0,0.8-0.1,1.1-0.6c0.6-0.7,1-3.4,1.1-10.2H269c-0.8,6.3-2.9,11.2-8.7,14.6c-0.6-1-1.7-2.4-2.5-3.1c7.1-3.8,7.7-10.4,7.8-19
		h-4.3V5.7h8.1c-0.3-1.3-0.8-3.2-1.4-4.6l3.6-0.8c0.6,1.4,1.3,3.5,1.5,4.8l-2.8,0.8h9.8v3.5H269.7z"/>
	<path class="st1" d="M291.4,2.1c-2,2.2-5,4.6-7.4,6c-0.3-0.7-1-2.1-1.4-2.7c2.1-1.1,4.6-3.1,6-4.6L291.4,2.1z M286.3,13.2
		c-0.8,0.6-1.5,1-2.4,1.4c-0.1-0.8-0.8-2.4-1.3-3.2c2.1-1.1,4.9-3.1,6.2-4.6l2.8,1.3V6.2h4.8V4.3h-1.8c-0.3,0.4-0.6,0.7-0.7,1.1
		c-0.6-0.4-1.8-0.8-2.7-1.1c1-1.1,1.7-2.7,2.1-4.1l2.8,0.7c-0.1,0.3-0.1,0.6-0.3,0.8h7.1v2.5h-3.6v1.8h4.2v2.5h-4.2v1.4h3.8v2.1
		h-3.8v1.5l4.1-0.3c0,0.8-0.1,2,0,2.5c-9.4,0.7-10.8,1-11.6,1.3c-0.1-0.7-0.6-1.8-1-2.5c0.6-0.1,1.1-0.6,1.1-1.7V9.5h2.7v4.3
		l1.7-0.1V8.4h-4.8V8.3c-0.7,0.7-1.4,1.4-2.1,2.1v6.4h-3.2v-3.6H286.3z M314.1,24.8h-8.3c2.7,1.1,6.2,2.7,8,3.8l-2.1,2.8
		c-1.8-1.3-5.7-3.2-8.7-4.5l1.8-2.2h-4.1v6.6h-4.1v-6.4h-5.9l2.7,1c-1.8,2.1-4.9,4.3-7.4,5.6c-0.6-0.7-1.7-2.2-2.4-3.1
		c2.1-0.8,4.5-2.1,6-3.6H283v-2.8h30.8v2.9H314.1z M287.4,18.1h22.3v2.7h-22.3V18.1z M307.7,17.1h-3.1V1.7h8.5v10.5
		c0,1.3-0.1,2-1,2.4c-0.7,0.6-1.8,0.6-3.1,0.6c-0.1-0.8-0.6-2-0.8-2.7c0.7,0,1.4,0,1.7,0c0.3,0,0.3-0.1,0.3-0.4V4.5h-2.5V17.1z"/>
	<path class="st1" d="M345.6,9.8c-0.7,5-2,9.4-3.9,12.9c1.7,2.4,3.6,4.3,6,5.7c-0.8,0.7-2.1,2.2-2.8,3.2c-2.2-1.4-4.1-3.2-5.6-5.5
		c-2,2.2-4.2,4.2-7.1,5.6c-0.6-0.7-2-2.2-2.8-2.9c3.4-1.4,5.9-3.5,7.8-6.2c-1-1.8-1.7-3.8-2.4-5.9c-0.4,0.7-0.8,1.4-1.4,2.1
		c-0.4-0.7-1.5-2.2-2.2-3.1l-1.5,0.8c-0.1-0.4-0.3-0.8-0.6-1.4c-0.6,1.8-1.1,3.6-1.8,5.2c1.7,2,3.2,3.9,4.2,5.5l-3.2,2.5
		c-0.7-1.3-1.7-2.8-2.9-4.3c-1.7,2.8-3.9,5.2-6.6,7c-0.6-0.7-1.8-2.2-2.7-2.9c2.9-1.7,5-4.1,6.7-7.1c-1.1-1.3-2.2-2.5-3.4-3.6
		c-0.3,0.4-0.7,0.8-1,1.3c-0.6-0.7-2-2-2.7-2.5c1.7-2,3.4-4.8,4.3-7.4l3.4,1.1c-1,2.4-2.5,5-3.8,7.1l2.5-1.8
		c0.7,0.7,1.5,1.5,2.2,2.2c0.4-1.1,0.7-2.2,1-3.5l3.2,0.6c-0.8-1.5-1.8-3.1-2.9-4.5l2.4-1.4h-11.5V4.9h6.6c-0.4-1.1-1.1-2.4-1.7-3.5
		l3.4-1.3c0.8,1.3,1.7,2.8,2.1,3.9l-2.1,0.8h7.7v3.6h-3.8c1.3,1.5,2.7,3.5,3.5,5.2c2-3.5,3.2-8.4,3.9-13.3l3.6,0.6
		c-0.3,1.8-0.6,3.5-1,5.2h8.3v3.6C347.2,9.8,345.6,9.8,345.6,9.8z M337.9,9.8c-0.3,0.7-0.4,1.4-0.7,2.1c0.6,2.4,1.4,4.8,2.4,6.9
		c1.1-2.5,1.8-5.5,2.2-9H337.9z"/>
	<path class="st1" d="M370.4,21.4c2.9,2.4,7,4.5,10.8,5.6c-0.8,0.8-2.1,2.4-2.7,3.4c-3.9-1.4-8-4.1-11.1-7.1v8.3h-4.2v-8
		c-3.1,3.1-7.1,5.7-11.1,7.1c-0.6-1-1.8-2.5-2.7-3.4c3.9-1.1,8.1-3.4,10.9-5.9h-9.9v-3.6h12.7v-2h-9.5v-14h23.4v14h-9.7v2h12.7v3.6
		H370.4z M357.9,7.3h5.3V5.2h-5.3V7.3z M363.4,12.6v-2.1h-5.3v2.1H363.4z M372.8,5.2h-5.3v2.1h5.3V5.2z M372.8,10.4h-5.3v2.1h5.3
		V10.4z"/>
</g>
</svg>
