<?xml version="1.0" encoding="utf-8"?>
<!-- Generator: Adobe Illustrator 26.0.3, SVG Export Plug-In . SVG Version: 6.00 Build 0)  -->
<svg version="1.1" id="text-feature-03-01.svg" xmlns="http://www.w3.org/2000/svg" xmlns:xlink="http://www.w3.org/1999/xlink"
	 x="0px" y="0px" viewBox="0 0 187.7 42.9" style="enable-background:new 0 0 187.7 42.9;" xml:space="preserve">
<style type="text/css">
	.st0{fill:none;stroke:#1147B4;stroke-width:2;stroke-linecap:round;stroke-dasharray:1.000000e-03,4;}
	.st1{fill:#1147B4;}
</style>
<path id="シェイプ_1024" class="st0" d="M1,41.9h185.7"/>
<g>
	<path class="st1" d="M15.3,13.8c-0.2,0.2-0.3,0.4-0.5,0.5c2.3,1.9,6.2,3.6,9.7,4.5c-0.6,0.6-1.5,1.7-1.9,2.5
		c-1.9-0.6-3.9-1.5-5.7-2.6v1.4H8.5V19c-1.6,0.9-3.3,1.7-5,2.3c-0.4-0.7-1.2-1.8-2-2.5c4.1-1.3,8.7-3.6,11.2-6.4L15.3,13.8z
		 M20.5,21.8c-0.8,1.5-1.7,3.1-2.6,4.5h3V35h-2.9v-0.8H8.4V35H5.6v-8.7h9c0.6-0.9,1.1-1.8,1.7-2.7H4.9v-2.5h12.9l0.5-0.1L20.5,21.8z
		 M17.9,28.8H8.4v3h9.6V28.8z M15.4,17.8c-0.9-0.6-1.6-1.2-2.4-1.8c-0.8,0.6-1.6,1.2-2.5,1.8H15.4z"/>
	<path class="st1" d="M39.4,29.1c2.9,1,6.7,2.5,8.7,3.5L46.7,35c-2.1-1.2-6.5-3-9.6-4.2l1.1-1.8h-0.9c-1.2,3-3.7,4.8-10.1,5.9
		c-0.2-0.8-0.9-2-1.4-2.6c4.8-0.6,7.1-1.7,8.2-3.3h-7.2v-2.4h8.1c0.1-0.4,0.1-0.8,0.2-1.2h-8.8v-2.5h9.2v-1.3h-7.1v-2.4h7.1V18H27
		v-2.5h4.6c-0.4-0.7-0.9-1.5-1.3-2.1l2.5-1c0.7,0.8,1.5,2,1.8,2.8l-0.7,0.3h5.3c0.6-0.9,1.3-2.2,1.7-3.1l3.1,0.8
		c-0.5,0.8-1.1,1.6-1.6,2.3h4.6V18h-8.5v1.2h7.3v2.4h-7.3v1.3H48v2.5h-9.9c0,0.4-0.1,0.8-0.2,1.2h9.4v2.4H39.4z"/>
	<path class="st1" d="M63,20.8c-0.1,0.2-0.2,0.4-0.4,0.6c2.7,2.8,5.9,4.5,9.6,5.8c-0.6,0.6-1.4,1.5-1.8,2.4
		c-0.9-0.4-1.7-0.8-2.4-1.2V35h-2.9v-0.6h-8.2V35h-2.8v-6.3c-0.8,0.4-1.7,0.8-2.6,1.2c-0.4-0.7-1.1-1.7-1.8-2.3
		c4.4-1.5,8.6-4.2,10.8-7.8L63,20.8z M53.6,19.6h-2.8v-5.2h8.8c-0.2-0.5-0.5-1.1-0.7-1.5l3-0.6c0.4,0.7,0.7,1.5,1,2.2h8.3v5.2h-2.9
		v-2.6H53.6V19.6z M59.3,18.4c-1.5,2.2-4,4.2-6.2,5.4c-0.4-0.6-1.4-1.7-1.9-2.2c2.1-0.9,4.2-2.5,5.4-4.1L59.3,18.4z M65.1,31.8v-2.5
		h-8.2v2.5H65.1z M65.1,26.7c-1.4-1-2.8-2-4-3.4c-1.1,1.3-2.4,2.4-3.7,3.4H65.1z M64.4,17.6c2,1.2,4.7,3,6,4.3l-2.1,1.8
		c-1.2-1.3-3.8-3.3-5.9-4.6L64.4,17.6z"/>
	<path class="st1" d="M77.6,24c-0.8-0.8-2.5-2-3.8-2.8l1.7-1.9c1.3,0.7,3,1.8,3.9,2.6L77.6,24z M73.9,33.2c1-1.8,2.2-4.8,3.2-7.6
		l2.2,1.6c-0.8,2.5-1.9,5.3-2.9,7.6L73.9,33.2z M95.7,20.3c-0.7,3.8-2,7-3.7,9.4c1.3,1.2,2.9,2.3,4.5,3c-0.6,0.5-1.5,1.6-1.9,2.3
		c-1.6-0.8-3-1.9-4.3-3.2c-1.3,1.3-2.8,2.4-4.4,3.3c-0.4-0.6-1-1.6-1.6-2.1v2h-2.5v-9.6c-0.4,0.5-0.8,1-1.2,1.4
		c-0.4-0.6-1.3-1.4-1.8-1.8c1.9-1.9,3.6-4.9,4.3-7.3h-2.9v-1.5l-1.6,1.7c-0.7-0.9-2.4-2.2-3.6-3l1.8-1.8c1.1,0.7,2.6,1.7,3.5,2.5V15
		h6.6c-0.2-0.6-0.5-1.2-0.8-1.8l2.6-0.7c0.4,0.8,0.9,1.7,1.2,2.5h6.3v2.7h-7.8l2.3,0.6c-0.2,0.5-0.4,1-0.6,1.6h3.5l0.5-0.1
		L95.7,20.3z M85.7,18.3c-0.4,1-0.9,2.1-1.5,3.2V25c1.7-2,3.1-4.9,3.8-7.3h-4.5L85.7,18.3z M84.3,32.9c1.6-0.7,3.1-1.8,4.3-3.1
		c-0.8-1.1-1.5-2.3-2.1-3.6c-0.3,0.4-0.7,0.8-1.1,1.2c-0.3-0.3-0.7-0.8-1.2-1.2V32.9z M87.9,24.1c0.6,1.3,1.3,2.6,2.3,3.7
		c0.3-0.5,0.6-1.1,1-1.7c-0.8-0.7-2-1.6-3.1-2.3L87.9,24.1z M89.1,22L89,22.2c1.1,0.6,2.3,1.4,3,2c0.3-0.7,0.5-1.5,0.7-2.3H89.1z"/>
</g>
<g>
	<path class="st1" d="M98.4,29.9l3.1-4.3c1.9,1.9,4.3,3.5,7.5,3.5c3.5,0,6-2.1,6-5.8c0-3.7-2.3-5.8-5.8-5.8c-2,0-3.1,0.5-5.1,1.8
		l-3.1-2L102,0.6h18.2v5.7h-12.4l-0.6,7.2c1.4-0.6,2.5-0.9,4.1-0.9c5.7,0,10.5,3.2,10.5,10.3c0,7.3-5.6,11.6-11.9,11.6
		C104.5,34.5,100.9,32.4,98.4,29.9z"/>
	<path class="st1" d="M126.3,17.1c0-11.2,4.6-17.1,11.6-17.1s11.5,5.9,11.5,17.1c0,11.3-4.5,17.4-11.5,17.4S126.3,28.4,126.3,17.1z
		 M143,17.1c0-9.2-2.2-11.8-5.1-11.8s-5.2,2.6-5.2,11.8c0,9.3,2.2,12.1,5.2,12.1S143,26.4,143,17.1z"/>
	<path class="st1" d="M152.2,21.4c0-3.6,1.8-5.6,4.3-5.6c2.5,0,4.3,2,4.3,5.6c0,3.6-1.8,5.7-4.3,5.7C154,27,152.2,24.9,152.2,21.4z
		 M158.4,21.4c0-2.6-0.8-3.6-1.8-3.6c-1,0-1.8,1-1.8,3.6s0.8,3.7,1.8,3.7C157.6,25,158.4,24,158.4,21.4z M166.8,15.8h2.1l-9.6,18.4
		h-2.1L166.8,15.8z M165.1,28.5c0-3.6,1.8-5.6,4.3-5.6c2.5,0,4.3,2,4.3,5.6c0,3.6-1.8,5.7-4.3,5.7C166.9,34.2,165.1,32.1,165.1,28.5
		z M171.3,28.5c0-2.6-0.8-3.6-1.8-3.6c-1,0-1.8,1-1.8,3.6s0.8,3.6,1.8,3.6C170.5,32.2,171.3,31.1,171.3,28.5z"/>
	<path class="st1" d="M175.7,18.8l0.8-1.3l-1.4-0.6l0.3-0.9l1.5,0.3l0.2-1.5h0.9l0.1,1.5l1.5-0.3l0.3,0.9l-1.4,0.6l0.8,1.3l-0.7,0.5
		l-1-1.2l-1,1.2L175.7,18.8z"/>
	<path class="st1" d="M181,23.2c2.2-2.1,3.7-3.6,3.7-4.9c0-0.9-0.5-1.4-1.3-1.4c-0.6,0-1.1,0.4-1.6,0.9l-0.9-0.9
		c0.8-0.9,1.6-1.3,2.7-1.3c1.6,0,2.7,1,2.7,2.6c0,1.5-1.4,3-2.9,4.6c0.4,0,1-0.1,1.4-0.1h1.9v1.4H181V23.2z"/>
</g>
</svg>
