<?xml version="1.0" encoding="utf-8"?>
<!-- Generator: Adobe Illustrator 26.0.3, SVG Export Plug-In . SVG Version: 6.00 Build 0)  -->
<svg version="1.1" id="text-feature-02_sp.svg" xmlns="http://www.w3.org/2000/svg" xmlns:xlink="http://www.w3.org/1999/xlink"
	 x="0px" y="0px" viewBox="0 0 214.7 88.4" style="enable-background:new 0 0 214.7 88.4;" xml:space="preserve">
<style type="text/css">
	.st0{fill:none;stroke:#1147B4;stroke-width:1.3678;}
	.st1{fill:none;stroke:#1147B4;stroke-width:2.7357;stroke-linecap:round;stroke-dasharray:1.367827e-03,5.4713;}
	.st2{fill:#1147B4;}
</style>
<path id="シェイプ_1375" class="st0" d="M16.6,0.3l10.1,20.2"/>
<path id="シェイプ_1375-2" class="st0" d="M192.9,1.7l-10.3,19.8"/>
<path id="シェイプ_1024_00000062177512940380958930000009331113321393266822_" class="st1" d="M1.4,87h212"/>
<g>
	<path class="st2" d="M40.8,17.1c1.2-0.1,2.6-0.3,4-0.4v2.1c-3.6,0.4-7.4,0.8-10,1.1l-0.3-2.2c1.1-0.1,2.6-0.3,4.1-0.4v-1.5h-3v-1.9
		h3v-1.4h-3.4v-1.9h2.2C37.1,10,36.5,9.2,36,8.6l1.1-0.5h-2.6V6.1h2.7v-1l-1.1,0.7C35.8,5.1,35,4,34.5,3.3l1.5-1
		c0.4,0.4,0.8,1,1.2,1.5V1.7h1.9v4.4h1V1.7h2.1V4c0.4-0.5,0.8-1.1,1.1-1.6l1.9,1.1c-0.8,0.8-1.6,1.8-2.3,2.3l-0.7-0.4v0.5h2.6V8
		h-2.6l1.4,0.5c-0.4,0.7-0.7,1.4-1.1,2.1h1.8v1.9h-3.4v1.4h3v1.9h-3V17.1z M38,8c0.5,0.5,1,1.2,1.2,1.8L38,10.6h2.2
		c0.4-0.7,0.8-1.8,1.1-2.5H38V8z M53.2,9.1h-1.5V18c0,1.2-0.3,1.9-1,2.2c-0.7,0.4-1.8,0.5-3.4,0.4c-0.1-0.7-0.5-1.6-0.8-2.3
		c1.1,0,2.1,0,2.5,0s0.4-0.1,0.4-0.4V9.1h-4.5V6.7h4.4V1.7h2.3v5.1h1.5v2.3H53.2z M46.5,15.5c-0.1-1.2-0.8-3.1-1.5-4.7l2.1-0.7
		c0.8,1.5,1.5,3.3,1.6,4.5L46.5,15.5z"/>
	<path class="st2" d="M62.2,12.6c-0.8,0.3-1.6,0.4-2.3,0.7v4.9c0,1.2-0.1,1.8-1,2.2c-0.7,0.4-1.6,0.4-3.1,0.4c0-0.7-0.4-1.6-0.7-2.2
		c0.8,0,1.6,0,1.9,0s0.4-0.1,0.4-0.4V14L55,14.5l-0.4-2.3c0.8-0.1,1.8-0.4,2.9-0.7V7.8H55V5.5h2.5V1.7h2.5v3.8h2.2v2.3h-2.2v3
		l2.1-0.5L62.2,12.6z M71.9,18.5c0.1,0,0.1,0,0.3-0.1c0-0.1,0.1-0.3,0.1-0.7c0-0.4,0-1.2,0-2.5c0.4,0.4,1.2,0.8,1.8,1
		c0,1.1-0.1,2.3-0.3,2.9c-0.1,0.5-0.4,0.8-0.7,1.1s-0.8,0.3-1.2,0.3h-1.1c-0.5,0-1.1-0.1-1.4-0.5c-0.4-0.4-0.5-0.8-0.5-2.5v-6.3
		h-2.9v1.5c0,2.7-0.7,6.3-4,8.3c-0.3-0.5-1.2-1.5-1.6-1.9c2.9-1.8,3.3-4.4,3.3-6.6V8.9h7.7v8.8c0,0.4,0,0.7,0,0.8s0.1,0.1,0.3,0.1
		h0.3V18.5z M74,7.3H62.4V5h4.2c-0.3-0.8-0.7-2.1-1.1-2.9l2.3-0.7c0.4,1,1,2.2,1.2,3L67.2,5H74V7.3z"/>
	<path class="st2" d="M78.9,11.1c0,2.9-0.3,7.1-2.1,9.7c-0.4-0.4-1.4-1.1-1.8-1.4c1.5-2.5,1.6-5.9,1.6-8.3V6.3h17.4v2.1h-15v2.7
		H78.9z M84.5,5.8h-6.7V2.4h6.7V5.8z M93.4,12.1c-0.4,1.9-1,3.4-1.8,4.8c0.8,1,1.9,1.6,3,2.2c-0.5,0.4-1.1,1.2-1.5,1.9
		c-1.1-0.5-2.1-1.4-2.9-2.3c-0.8,1-1.8,1.6-3,2.2c-0.3-0.4-1-1.2-1.4-1.6v1.6h-2.1v-1.5c-1.9,0.3-3.7,0.4-5.2,0.5l-0.3-1.8l1.4-0.1
		v-5.2h-0.7v-1.5h2.7v-0.8h-2.2V9.1h6.7v1.5h-2.5v0.8h2.7v1.5h-0.7v1.2c1.1-1.2,1.9-3.3,2.2-5.5l2.1,0.4C90,9.5,90,9.9,89.9,10.3
		h4.2v1.9h-0.7V12.1z M82.2,3.6h-2.3v0.8h2.3V3.6z M81.8,12.8v0.8H84v-0.8H81.8z M81.8,15.6H84v-0.8h-2.2V15.6z M84,17.7v-0.8h-2.2
		V18L84,17.7z M92.7,5.8h-6.8V2.4h6.8V5.8z M85.9,19.2c1.4-0.5,2.3-1.4,3.1-2.3c-0.4-0.7-0.7-1.4-1.1-2.2c-0.1,0.3-0.4,0.5-0.5,0.8
		c-0.3-0.4-1.1-1.1-1.5-1.4V19.2z M90.4,3.6h-2.3v0.8h2.3V3.6z M89.3,12.1l-0.1,0.3c0.3,1,0.7,1.8,1.1,2.6c0.4-0.8,0.7-1.8,1-2.9
		H89.3z"/>
	<path class="st2" d="M96,2.4h8.6v2.1h-2.2v2.1h2.1v14h-1.9v-1.1h-4.5v1.4h-1.8V6.5h2.1V4.4H96V2.4z M102.6,17.5v-4.9l0,0h-0.7
		c-0.8,0-1.1-0.3-1.1-1.5V8.4h-0.7v1.5c0,1.1-0.3,2.6-1.1,3.6c-0.1-0.1-0.5-0.5-0.8-0.7v4.7h4.4V17.5z M98.1,8.5v4.2
		c0.7-0.8,0.8-1.9,0.8-2.7V8.5H98.1z M98.8,14.4h3.3v1.9h-3.3V14.4z M100.8,4.4H100v2.1h0.8V4.4z M102.6,8.5h-0.8v2.7
		c0,0.3,0,0.3,0.1,0.3h0.3c0.1,0,0.3,0,0.3,0v-3H102.6z M115,9.3v2.2h-9.8V9.3h4.1V6.7h-1.6c-0.3,1-0.5,1.6-1,2.3
		c-0.4-0.3-1.5-0.8-2.1-1.1c0.8-1.4,1.4-3.7,1.6-5.9l2.2,0.4c-0.1,0.7-0.3,1.4-0.4,2.1h1.1V1.7h2.3v3h3.1v2.2h-3.1v2.5
		C111.5,9.3,115,9.3,115,9.3z M105.9,12.6h8.6v8.1h-2.3v-1h-4.1v1h-2.2C105.9,20.7,105.9,12.6,105.9,12.6z M108.1,14.8v2.7h4.1v-2.7
		H108.1z"/>
	<path class="st2" d="M135,4.8c0,0,0,0.8,0,1.1c-0.3,9.2-0.5,12.4-1.4,13.5c-0.5,0.8-1.1,1-1.9,1.1s-2.1,0.1-3.3,0
		c0-0.7-0.4-1.6-0.8-2.3c1.4,0.1,2.5,0.1,3,0.1c0.4,0,0.7-0.1,1-0.4c0.5-0.7,0.8-3.7,1.1-10.9h-4.4c-0.5,1.2-1.2,2.3-1.8,3.3
		c-0.3-0.3-1.1-0.8-1.6-1.1v9.6h-5.5v1.4h-2.2V5h2.3c0.3-1.1,0.5-2.3,0.5-3.3l2.7,0.4c-0.4,1.1-0.7,2.1-1.1,2.9h3.1v3.3
		c1.2-1.8,2.2-4.2,2.7-6.6l2.3,0.5c-0.1,0.8-0.5,1.8-0.8,2.6H135z M122.7,7h-3.3v3.3h3.3V7z M122.7,16.6v-4.1h-3.3v4h3.3V16.6z
		 M129.5,15.4c-0.5-1.2-1.9-3.3-2.9-4.8l1.9-1.1c1.1,1.4,2.3,3.4,3,4.5L129.5,15.4z"/>
	<path class="st2" d="M155.7,16.2c-0.8,0.4-1.6,0.8-2.3,1.2c0.8,0.5,1.8,1.1,2.9,1.4c-0.4,0.4-1.1,1.2-1.4,1.9
		c-2.7-1-4.5-2.9-5.6-5.5c-0.5,0.5-1.2,1-2.1,1.4v1.8l2.9-0.5c0,0.5,0,1.4,0,1.8c-3.8,0.8-4.5,1-4.9,1.2c-0.1-0.4-0.5-1.2-0.8-1.6
		c0.4-0.1,0.8-0.5,0.8-1.4v-0.1c-0.5,0.3-1.1,0.4-1.6,0.7c-0.3-0.4-0.5-0.8-1-1.2v0.1c-1.9,0.5-3.8,1.1-5.6,1.5l-0.4-2.2
		c0.5-0.1,1.2-0.3,2.1-0.4v-5.3h-1.6V8.8h1.6V5h-1.8V2.8h5.6V5h-1.6v3.8h1.5v2.1h-1.5v4.5l1.5-0.4l0.1,1.4c1.5-0.4,3-1,4.2-1.6h-2.3
		v-4.4h10.3v4.4h-3.4c0.3,0.5,0.5,1,0.8,1.4c0.8-0.4,1.5-1,2.1-1.4L155.7,16.2z M155.7,9.5h-12.6V7.6h12.6V9.5z M155.1,7h-11.2V2.2
		h11.2V7z M147.2,3.9h-1.2v1.4h1.2V3.9z M146.5,13h5.7v-1.1h-5.7V13z M150.1,3.9h-1.4v1.4h1.4V3.9z M152.9,3.9h-1.4v1.4h1.4V3.9z"/>
	<path class="st2" d="M164.3,15.9c-2.1,0.8-4.5,1.8-6.3,2.6l-0.8-2.5c0.7-0.1,1.5-0.4,2.3-0.8V8.8h-2.1V6.5h2.1V1.9h2.3v4.5h1.8v2.3
		h-1.8v5.5c0.7-0.3,1.2-0.4,1.9-0.7L164.3,15.9z M173.9,18.6c0.1,0,0.3,0,0.4,0c0.1,0,0.1-0.1,0.3-0.4c0-0.3,0-0.8,0.1-1.5
		c0.4,0.4,1.2,0.8,1.9,1c0,0.8-0.1,1.6-0.3,1.9c-0.1,0.4-0.4,0.5-0.8,0.8c-0.3,0.1-0.8,0.1-1.2,0.1h-1.4c-0.5,0-1.2-0.1-1.5-0.5
		c-0.4-0.4-0.5-0.8-0.5-2.1v-2.5h-1.5c-0.4,2.7-1.4,4.4-5.2,5.3c-0.3-0.5-0.8-1.5-1.2-1.9c3.1-0.5,3.8-1.6,4.2-3.4h-1.6V9.3h9.8v6.2
		h-2.1v2.6c0,0.3,0,0.4,0.1,0.5c0.1,0,0.1,0.1,0.4,0.1h0V18.6z M175.9,8.6h-11.6V6.6h2.5c-0.1-0.4-0.3-1-0.4-1.4l1.9-0.4
		c0.3,0.5,0.5,1.2,0.7,1.8h2.3c0.3-0.5,0.4-1.2,0.5-1.8l2.2,0.4c-0.3,0.4-0.4,1-0.7,1.4h2.6L175.9,8.6L175.9,8.6z M175.4,4.8h-10.5
		V2.9h4.1c-0.1-0.3-0.3-0.7-0.4-1l2.3-0.4c0.1,0.4,0.4,1,0.5,1.4h4L175.4,4.8L175.4,4.8z M167.3,11.7h5.2v-0.8h-5.2V11.7z M167.3,14
		h5.2v-0.8h-5.2V14z"/>
</g>
<g>
	<path class="st2" d="M43.5,42.7v4h-35v-4h15.3c-0.3-1-0.7-1.9-1-2.7l4.9-1.2c0.4,1.2,1.1,2.7,1.5,4C29.3,42.7,43.5,42.7,43.5,42.7z
		 M42.7,71.7c0,2.1-0.5,2.9-2.1,3.6c-1.4,0.4-3.6,0.5-6.3,0.4c-0.3-1.1-0.8-2.3-1.4-3.3H21.6V74h-4.4V63.5h17.2v8.8h-0.5
		c1.4,0,2.7,0,3.1,0c0.5,0,0.8-0.1,0.8-0.7V62H14.2v14H9.7V58.2h33V71.7z M38.8,56.7h-25v-8.5h25V56.7z M33.9,51.3H18.5v2.2h15.5
		V51.3z M30.2,66.8h-8.6v2.3h8.8v-2.3H30.2z"/>
	<path class="st2" d="M47.6,40.8h20.8v4.5h-8.6c-0.4,1.4-1,2.6-1.4,3.7H68v22.8c0,1.6-0.3,2.7-1.2,3.3c-1,0.7-2.2,0.7-4,0.7
		c-0.1-0.8-0.5-2.2-1-3.1h-2.6V53h-1.8v19.6h-3V53h-2.1v22.8h-3.8V49h5.6c0.4-1.1,0.7-2.3,1-3.7h-7.5V40.8z M64.2,53h-1.9v19.1
		c0.7,0,1.2,0,1.5,0s0.4-0.1,0.4-0.4C64.2,71.7,64.2,53,64.2,53z M84.3,51.7h-2.5v19.1c0,2.3-0.5,3.6-1.9,4.2c-1.4,0.7-3.3,1-6.2,1
		c-0.3-1.2-1-3.1-1.6-4.4c1.9,0.1,3.7,0.1,4.2,0.1c0.7,0,0.8-0.1,0.8-0.8V51.9h-8.3v-4.4h8.3v-8.1h4.7v8.1h2.5V51.7z M72.8,54.7
		c1.5,2.7,2.9,6.3,3.1,8.8L71.8,65c-0.3-2.3-1.5-6-3-8.9L72.8,54.7z"/>
	<path class="st2" d="M113.9,46.3c-1,3.8-2.3,7.4-3.8,10.5c2.6,6.6,7.7,12,14.1,14.8c-1.1,1-2.7,3-3.4,4.2c-6-2.9-10.4-7.8-13.5-14
		c-4.4,6.6-10.1,11.4-16.6,14.2c-0.8-1.2-2.5-3.4-3.7-4.2c9.4-3.8,17-11.2,20.7-22.2h-8.3C97,54.2,94,58,90.8,60.9
		c-0.8-1-3-2.7-4.2-3.6c5.3-4,9.3-10.8,11.5-18.3l5.2,1.1c-0.5,1.6-1.1,3.1-1.8,4.8h8.1l1-0.1L113.9,46.3z"/>
	<path class="st2" d="M140.3,60.2c-1.4,0.4-2.9,0.8-4.2,1.1v9.4c0,2.3-0.4,3.4-1.8,4.1s-3.1,0.8-6,0.8c-0.1-1.2-0.8-3-1.4-4.2
		c1.5,0,3.1,0,3.7,0c0.5,0,0.8-0.1,0.8-0.8v-8.2l-3.8,1l-1.2-4.5c1.5-0.3,3.1-0.7,5.1-1.1v-7h-4.5v-4.4h4.5v-7.5h4.7v7.5h3.8v4.4
		h-3.8v5.9l3.7-1L140.3,60.2z M162.4,54.7c-1.5,5.5-4.1,9.8-7.4,13.1c2.6,1.8,5.6,3.1,9.2,4c-1,1-2.3,2.9-3,4.1
		c-3.8-1.1-7.1-2.7-9.8-5.1c-3.1,2.2-6.6,3.7-10.4,4.9c-0.5-1.2-1.6-3.3-2.6-4.2c3.6-0.8,6.7-2.1,9.4-3.8c-2.3-2.6-4.2-5.7-5.6-9.4
		l1.2-0.4h-2.1v-4.2h7.8v-4.8h-8.5v-4.4h8.5v-5.6h4.7v5.6h8.9v4.4h-8.9v4.8h4.8l0.8-0.1L162.4,54.7z M146.8,58
		c1.1,2.6,2.7,5.1,4.7,7c2.1-2.1,3.8-4.4,4.9-7H146.8z"/>
	<path class="st2" d="M203.3,55.7h-3v14.8c0,2.2-0.3,3.4-1.8,4.2c-1.4,0.8-3.3,0.8-5.9,0.8c-0.1-1.4-0.7-3.1-1.2-4.5
		c1.6,0.1,3.3,0.1,3.8,0c0.5,0,0.7-0.1,0.7-0.5V55.7h-3.4v-3.1h-5.7v23.3h-4.1V52.6h-5.2v-2.7c-0.7,1.4-1.4,2.9-2.3,4.4v21.9h-4.4
		V60.2c-0.8,0.8-1.5,1.6-2.2,2.3c-0.4-1-1.8-3.3-2.6-4.4c3-2.6,6-6.8,7.8-10.9l3.7,1.2v-0.3h5.2V39h4.1v9.2h6v3.1h10.8L203.3,55.7z
		 M177,40.5c-2.1,3.6-5.2,7.4-8.2,9.7c-0.5-1-1.6-2.7-2.5-3.6c2.5-2.1,5.2-5.2,6.4-7.7L177,40.5z M181.1,54.7
		c0,7.5-0.4,12.6-3.6,15.6c-0.4-0.8-1.4-2.2-2.2-2.7c2.2-2.5,2.3-6.3,2.5-12.9C177.8,54.7,181.1,54.7,181.1,54.7z M190,47.5
		c-0.5-1.4-1.8-3.6-3-5.1l2.9-1.5c1.2,1.5,2.6,3.6,3.1,4.9L190,47.5z M191.5,69.1c-3.1,0-3.7-1.2-3.7-4.7v-9.7h3.4v9.8
		c0,1.1,0,1.4,0.3,1.4h1c0.4,0,1-0.1,1.4-0.1c0.1,0.8,0.1,2.5,0.3,3.1c-0.4,0.3-1.1,0.3-1.6,0.3h-1V69.1z M202.7,46.1h-9.4V42h9.4
		V46.1z"/>
</g>
</svg>
