<svg id="text-feature-03-02.svg" xmlns="http://www.w3.org/2000/svg" width="217.844" height="32.44" viewBox="0 0 217.844 32.44">
  <defs>
    <style>
      .cls-1 {
        fill: #1147b4;
      }

      .cls-1, .cls-2 {
        fill-rule: evenodd;
      }

      .cls-2 {
        fill: none;
        stroke: #1147b4;
        stroke-linecap: round;
        stroke-width: 2px;
        stroke-dasharray: 0.001 4;
      }
    </style>
  </defs>
  <path id="美肌サプリケアCPX" class="cls-1" d="M753.513,1682.42c2.135,0,2.854.05,3,.05,0.264,0,.288-0.02.288-0.29v-1.67c0-.24-0.024-0.27-0.288-0.27-0.144,0-.863.05-3,0.05h-6.334v-1.56H750.9c2.328,0,3.143.05,3.287,0.05,0.24,0,.264-0.03.264-0.27v-1.53c0-.24-0.024-0.27-0.264-0.27-0.144,0-.959.05-3.287,0.05h-3.718v-1.41h4.846c2.3,0,3.071.04,3.215,0.04,0.24,0,.264-0.02.264-0.26v-1.61c0-.26-0.024-0.28-0.264-0.28-0.144,0-.912.04-3.215,0.04h-2.087c0.312-.43.624-0.88,0.863-1.27a1.652,1.652,0,0,1,.408-0.48,0.466,0.466,0,0,0,.264-0.38,0.376,0.376,0,0,0-.312-0.34c-0.719-.21-1.655-0.38-2.447-0.53a6.725,6.725,0,0,1-.408,1.23,15.527,15.527,0,0,1-.983,1.77h-4.7l1.3-.6c0.336-.16.336-0.21,0.168-0.5a11.646,11.646,0,0,0-1.344-1.78c-0.168-.19-0.216-0.21-0.5-0.09l-1.608.72a0.3,0.3,0,0,0-.24.21,0.49,0.49,0,0,0,.168.27,12.759,12.759,0,0,1,1.152,1.77H740.2c-2.327,0-3.1-.04-3.238-0.04-0.24,0-.264.02-0.264,0.28v1.61c0,0.24.024,0.26,0.264,0.26,0.143,0,.911-0.04,3.238-0.04h4.463v1.41h-3.335c-2.327,0-3.143-.05-3.287-0.05-0.216,0-.24.03-0.24,0.27v1.53c0,0.24.024,0.27,0.24,0.27,0.144,0,.96-0.05,3.287-0.05h3.335v1.56h-5.974c-2.135,0-2.855-.05-3-0.05-0.24,0-.264.03-0.264,0.27v1.67c0,0.27.024,0.29,0.264,0.29,0.144,0,.864-0.05,3-0.05h14.827Zm-0.624,3.84c2.207,0,2.975.05,3.119,0.05,0.24,0,.264-0.02.264-0.26v-1.66c0-.24-0.024-0.26-0.264-0.26-0.144,0-.912.05-3.119,0.05h-5.95a1.429,1.429,0,0,1,.216-0.58,0.589,0.589,0,0,0,.168-0.41c0-.19-0.168-0.29-0.456-0.33-0.7-.08-1.607-0.15-2.423-0.2a6.094,6.094,0,0,1-.048,1.52h-5.014c-2.232,0-3-.05-3.143-0.05-0.24,0-.264.02-0.264,0.26v1.66c0,0.24.024,0.26,0.264,0.26,0.144,0,.911-0.05,3.143-0.05h4.246a4.81,4.81,0,0,1-1.271,1.49c-1.536,1.25-4.151,1.97-7.2,2.33a5.859,5.859,0,0,1,.864,1.58c0.192,0.5.24,0.65,0.528,0.65a3.585,3.585,0,0,0,.5-0.07,15.8,15.8,0,0,0,6.862-2.74,8.771,8.771,0,0,0,1.967-2.25,14.054,14.054,0,0,0,9.285,4.99c0.216,0.02.384,0.04,0.5,0.04,0.288,0,.312-0.14.528-0.64a6.346,6.346,0,0,1,.887-1.66c-4.174-.33-7.293-1.58-9.116-3.72h4.918Zm20.641-12.59h2.807v16.02a1.9,1.9,0,0,0,.648,1.76,4.358,4.358,0,0,0,2.039.33c1.3,0,1.9-.19,2.351-0.69,0.408-.48.648-1.25,0.744-4.01,0.024-.63.072-0.7-0.528-0.87a4.554,4.554,0,0,1-1.415-.62c-0.024,2.45-.12,3.46-0.312,3.62a0.592,0.592,0,0,1-.528.17,0.554,0.554,0,0,1-.456-0.14,1.09,1.09,0,0,1-.1-0.7v-12.81c0-2.66.048-4.01,0.048-4.17,0-.24-0.024-0.27-0.264-0.27-0.168,0-.695.05-2.351,0.05H773.6c-1.631,0-2.111-.05-2.279-0.05-0.24,0-.264.03-0.264,0.27,0,0.12.024,1,.024,2.71,0,2.52.024,3.98-.048,5.54-0.216,5.09-.768,7.92-2.279,9.91a1.816,1.816,0,0,0,.024-0.36c0-.99-0.024-2.21-0.024-3.31v-10.66c0-2.51.048-3.83,0.048-3.98,0-.24-0.024-0.26-0.264-0.26-0.168,0-.648.05-2.135,0.05h-2.351c-1.512,0-1.992-.05-2.136-0.05-0.263,0-.287.02-0.287,0.26,0,0.17.048,1.47,0.048,3.98v3.94c0,6.48-.528,8.92-1.968,11.23a4.8,4.8,0,0,1,1.392,1.2,0.873,0.873,0,0,0,.456.4,0.675,0.675,0,0,0,.407-0.48,17.192,17.192,0,0,0,1.8-7h2.711v3.96a0.7,0.7,0,0,1-.768.86,11.629,11.629,0,0,1-1.511-.09,5.539,5.539,0,0,1,.575,1.7c0.144,0.77.144,0.77,0.888,0.74a3.358,3.358,0,0,0,2.351-.64,1.973,1.973,0,0,0,.48-0.65,7.376,7.376,0,0,1,1.248,1.01,1.111,1.111,0,0,0,.5.4,0.756,0.756,0,0,0,.432-0.43,13.385,13.385,0,0,0,2.255-5.68,53.93,53.93,0,0,0,.6-9.96v-2.23Zm-9.62,8.8c0.024-.93.048-1.96,0.048-3.12v-0.38h2.519v3.5H763.91Zm2.567-8.99v3.28h-2.519v-3.28h2.519Zm34.2,3.35v-2.27a6.652,6.652,0,0,1,.192-2.12,1.248,1.248,0,0,0,.1-0.43c0-.19-0.1-0.31-0.432-0.38a22.594,22.594,0,0,0-2.807-.41,15.943,15.943,0,0,1,.216,3.29l-0.024,2.35h-5.158v-1.75a6.088,6.088,0,0,1,.168-2.31,1.625,1.625,0,0,0,.144-0.5,0.349,0.349,0,0,0-.36-0.34,24.263,24.263,0,0,0-2.927-.38,16.666,16.666,0,0,1,.288,3.53v1.75H789.35c-1.848,0-3.407-.05-4.415-0.12a21.79,21.79,0,0,0,.168,2.33c0.024,0.31.1,0.45,0.288,0.45,0.744-.05,2.663-0.12,3.959-0.12h0.719v0.91c0,1.51-.048,2.69-0.12,3.94-0.024.26,0.12,0.31,0.432,0.33a14.2,14.2,0,0,0,2.063,0c0.264-.02.432-0.07,0.408-0.33-0.072-1.27-.072-2.57-0.072-3.98v-0.87h5.11c-0.1,2.93-.479,4.58-1.415,6.12-1.224,1.97-3.071,3.19-6.478,4.25a5.468,5.468,0,0,1,1.992,1.44,0.652,0.652,0,0,0,.455.26,1.911,1.911,0,0,0,.672-0.22,11.3,11.3,0,0,0,5.662-4.46c1.176-1.94,1.7-3.96,1.847-7.39h0.984c1.176,0,2.639.03,3.455,0.03,0.336,0.02.384-.08,0.408-0.39a12.421,12.421,0,0,0,0-1.89c-0.024-.27-0.048-0.41-0.336-0.39-1.1.05-2.447,0.07-3.623,0.07h-0.84Zm21.073-.09a20.273,20.273,0,0,1-4.054,6.84,23.2,23.2,0,0,1-7.845,5.99,7.3,7.3,0,0,1,2.231,1.32,0.819,0.819,0,0,0,.6.27,1.122,1.122,0,0,0,.647-0.22,26.979,26.979,0,0,0,6.814-5.71,28.169,28.169,0,0,0,4.654-7.8,2.783,2.783,0,0,1,.552-0.93,0.657,0.657,0,0,0,.24-0.46,0.817,0.817,0,0,0-.192-0.48,8.906,8.906,0,0,0-1.631-1.65,0.564,0.564,0,0,0-.408-0.17,0.81,0.81,0,0,0-.408.14,2.231,2.231,0,0,1-1.32.24h-8.565a42.489,42.489,0,0,1-4.606-.16c0.048,0.69.144,1.94,0.216,2.42,0.048,0.33.144,0.5,0.456,0.48,1.031-.05,2.4-0.12,3.958-0.12h8.661Zm5.326-7.18a2.532,2.532,0,0,0-2.591,2.57A2.591,2.591,0,1,0,827.072,1669.56Zm0,1.16a1.415,1.415,0,1,1-1.415,1.41A1.373,1.373,0,0,1,827.072,1670.72Zm5.79,9.35c0,1.03-.072,2.43-0.072,3.27-0.024.28,0.12,0.4,0.456,0.4h1.919a0.422,0.422,0,0,0,.528-0.48c-0.024-.84-0.072-1.77-0.072-3.02v-4.85a5.462,5.462,0,0,1,.264-2.27,1.006,1.006,0,0,0,.1-0.36,0.432,0.432,0,0,0-.408-0.39,17.78,17.78,0,0,0-2.975-.5,16.39,16.39,0,0,1,.264,3.5v4.7Zm11.3-4.68a7.2,7.2,0,0,1,.216-2.61,0.746,0.746,0,0,0,.1-0.38,0.4,0.4,0,0,0-.336-0.41,14.868,14.868,0,0,0-3.119-.53,17.622,17.622,0,0,1,.264,3.91v4.54c0,3.04-.5,5.03-1.607,6.4a11.735,11.735,0,0,1-5.854,3.5,7.9,7.9,0,0,1,2.039,1.47,0.8,0.8,0,0,0,.576.29,1.568,1.568,0,0,0,.5-0.12,12.436,12.436,0,0,0,5.278-3.77c1.415-1.9,1.943-4.27,1.943-7.82v-4.47Zm20.328,3.48c1.464,0,3.407.05,4.391,0.1a0.317,0.317,0,0,0,.336-0.38q0.036-.975,0-1.95c0-.31-0.1-0.43-0.384-0.43-1.512.02-3.119,0.12-4.607,0.12h-7.7c0.312-.6.744-1.46,1.1-2.3a2.437,2.437,0,0,1,.72-0.99,0.524,0.524,0,0,0,.264-0.45,0.43,0.43,0,0,0-.288-0.41,16.717,16.717,0,0,0-2.879-1.1,10.126,10.126,0,0,1-.96,3.31,25.407,25.407,0,0,1-5.662,7.82,7.184,7.184,0,0,1,2.231.86,0.532,0.532,0,0,0,.744-0.07,23.061,23.061,0,0,0,3.335-4.13h4.942A12.816,12.816,0,0,1,853,1690.32a9.035,9.035,0,0,1,2.471,1.05,0.605,0.605,0,0,0,.408.17,0.822,0.822,0,0,0,.5-0.19,13.993,13.993,0,0,0,4.751-5.14,16.046,16.046,0,0,0,1.943-7.34h1.415Zm22.584-3.19a17.028,17.028,0,0,1-4.294,4.2,5.689,5.689,0,0,1,1.991.98,0.9,0.9,0,0,0,.576.24,0.7,0.7,0,0,0,.5-0.21,20.43,20.43,0,0,0,4.222-4.63,2.85,2.85,0,0,1,.648-0.7,0.618,0.618,0,0,0,.336-0.5,0.691,0.691,0,0,0-.192-0.43,12,12,0,0,0-1.44-1.51,0.79,0.79,0,0,0-.551-0.34,1.693,1.693,0,0,0-.456.17,5.3,5.3,0,0,1-1.656.14H876.47c-1.919,0-3.239-.05-4.87-0.17a22.348,22.348,0,0,0,.432,2.59,0.37,0.37,0,0,0,.432.36c1.415-.09,2.879-0.19,4.246-0.19h10.364Zm-14.035,13.94a6.724,6.724,0,0,1,2.184,1.23,0.688,0.688,0,0,0,.479.21,1.164,1.164,0,0,0,.672-0.24,12.468,12.468,0,0,0,4.367-4.77,14.689,14.689,0,0,0,1.415-6.6,2.154,2.154,0,0,1,.216-0.98,1.01,1.01,0,0,0,.12-0.44,0.435,0.435,0,0,0-.408-0.45,26.072,26.072,0,0,0-3.095-.46,8.717,8.717,0,0,1,.24,2.26,11.1,11.1,0,0,1-1.175,5.66A10.633,10.633,0,0,1,873.039,1689.62Zm35.636-12.47a6.756,6.756,0,0,0-7.078-5.67c-4.8,0-8.085,3.51-8.085,9.67,0,6.14,3.263,9.62,8.085,9.62,3.791,0,6.19-1.7,7.174-5.54l-3.047-.93c-0.528,2.71-1.871,3.98-4.1,3.98-2.711,0-4.678-2.42-4.678-7.15,0-4.75,1.919-7.15,4.678-7.15,2.112,0,3.455,1.34,3.911,3.93Zm3.341-5.33v18.62h3.238v-7.82H918.4c4.463,0,6.838-2.04,6.838-5.47s-2.063-5.33-6.646-5.33h-6.573Zm3.238,2.42h3.167c2.471,0,3.551,1.08,3.551,2.93,0,1.9-1.2,3.02-3.671,3.02h-3.047v-5.95Zm26.973-2.42H938.82l-3.047,5.23c-0.264.48-.5,0.94-0.768,1.39-0.264-.45-0.48-0.89-0.743-1.34l-3-5.28h-3.671l5.4,9.07-5.782,9.55h3.383l3.479-5.98c0.216-.4.407-0.76,0.623-1.15,0.24,0.39.408,0.75,0.648,1.15l3.455,5.98h3.719l-5.83-9.67Z" transform="translate(-731 -1669.56)"/>
  <path id="シェイプ_1024" data-name="シェイプ 1024" class="cls-2" d="M733,1699H948" transform="translate(-731 -1669.56)"/>
</svg>
