<svg xmlns="http://www.w3.org/2000/svg" width="450.5" height="91.65" viewBox="0 0 450.5 91.65">
  <defs>
    <style>
      .cls-1 {
        fill: #0a45a7;
        fill-rule: evenodd;
      }
    </style>
  </defs>
  <path id="title-protect.svg" class="cls-1" d="M282.605,2556.29v36.03h7.023v-13.34h4.538c4.16,0,7.131-1.19,9.13-3.19,2.755-2.76,2.971-6.65,2.971-8.05a11.484,11.484,0,0,0-3.673-8.7c-2.647-2.32-5.457-2.75-9.509-2.75h-10.48Zm7.023,6.05h2.431a8.5,8.5,0,0,1,4.97,1.13,4.974,4.974,0,0,1,2,4.11,5.384,5.384,0,0,1-1.945,4.21,7.159,7.159,0,0,1-4.592,1.14h-2.863v-10.59Zm21.813-6.05v36.03h7.023v-14.48h0.864l9.616,14.48H337.7l-11.237-15.18a9.7,9.7,0,0,0,8.158-10.05,10.223,10.223,0,0,0-3.566-8.1c-1.674-1.41-4.214-2.7-9.184-2.7H311.441Zm7.023,5.72h2.107c1.3,0,6.807.06,6.807,5.41,0,5.29-5.565,5.45-6.915,5.45h-2v-10.86Zm40.381-6.53c-10.77,0-18.258,7.88-18.258,18.85s7.488,18.8,18.258,18.8,18.259-7.83,18.259-18.8S369.616,2555.48,358.845,2555.48Zm0,31.28c-6.667,0-11.386-5.14-11.386-12.43s4.719-12.48,11.386-12.48,11.386,5.19,11.386,12.48S365.513,2586.76,358.845,2586.76Zm44.079-24.42v-6.05h-23.23v6.05h8.1v29.98h7.023v-29.98h8.1Zm26.568-6.05H409.5v36.03h19.989v-6.05H416.526v-9.83h12.425v-6.05H416.526v-8.05h12.966v-6.05Zm34.022,26.52a10.9,10.9,0,0,1-8.428,3.95,11.942,11.942,0,0,1-12.21-12.32c0-6.65,4.7-12.59,11.94-12.59a11.593,11.593,0,0,1,8.7,4.05v-8.21a18.133,18.133,0,0,0-8.86-2.21c-5.133,0-9.617,1.35-13.236,4.75a18.826,18.826,0,0,0-5.781,14.1,17.976,17.976,0,0,0,5.781,13.78c3.025,2.86,6.861,5.02,13.182,5.02a18.6,18.6,0,0,0,8.914-2.11v-8.21Zm28.669-20.47v-6.05h-23.23v6.05h8.1v29.98h7.023v-29.98h8.1Zm18.08-6.05v22.04c0,3.4.54,6.86,2.7,9.61,2.593,3.41,7.131,5.19,11.777,5.19s9.185-1.78,11.778-5.19c2.161-2.75,2.7-6.21,2.7-9.61v-22.04H532.2v22.63a7.838,7.838,0,0,1-1.729,5.35,7.83,7.83,0,0,1-11.453,0,7.833,7.833,0,0,1-1.729-5.35v-22.63h-7.023Zm35.313,0,15.127,36.03h4.214l15.235-36.03h-7.671l-9.617,24.2-9.616-24.2h-7.672Zm-262.971,54v36.03h7.023v-13.34h4.538c4.16,0,7.131-1.19,9.13-3.19,2.755-2.76,2.971-6.65,2.971-8.05a11.484,11.484,0,0,0-3.673-8.7c-2.647-2.32-5.457-2.75-9.509-2.75h-10.48Zm7.023,6.05h2.431a8.5,8.5,0,0,1,4.97,1.13,4.974,4.974,0,0,1,2,4.11,5.384,5.384,0,0,1-1.945,4.21,7.159,7.159,0,0,1-4.592,1.14h-2.863v-10.59Zm46.24-6.05H314.885v36.03h20.983v-6.05H322.257v-9.83H335.3v-6.05H322.257v-8.05h13.611v-6.05Zm10.541,0v36.03h7.372v-14.48h0.908l10.094,14.48h9.187l-11.8-15.18a10.7,10.7,0,0,0,4.14-1.57,9.7,9.7,0,0,0,4.423-8.48,10.007,10.007,0,0,0-3.743-8.1c-1.758-1.41-4.423-2.7-9.641-2.7H346.409Zm7.372,5.72h2.212c1.361,0,7.146.06,7.146,5.41,0,5.29-5.841,5.45-7.259,5.45h-2.1v-10.86Zm47.517-5.72H381.222v36.03H388.6v-15.88H400.5v-6.05H388.6v-8.05h12.7v-6.05Zm28.4,0H409.708v36.03H429.7v-6.05H416.731v-9.83h12.425v-6.05H416.731v-8.05H429.7v-6.05Zm34.022,26.52a10.9,10.9,0,0,1-8.428,3.95,11.942,11.942,0,0,1-12.21-12.32c0-6.65,4.7-12.59,11.94-12.59a11.593,11.593,0,0,1,8.7,4.05v-8.21a18.133,18.133,0,0,0-8.86-2.21c-5.133,0-9.617,1.35-13.236,4.75a18.826,18.826,0,0,0-5.781,14.1,17.976,17.976,0,0,0,5.781,13.78c3.025,2.86,6.861,5.02,13.182,5.02a18.6,18.6,0,0,0,8.914-2.11v-8.21Zm28.669-20.47v-6.05h-23.23v6.05h8.1v29.98h7.024v-29.98h8.1Zm18.08-6.05v22.04c0,3.4.54,6.86,2.7,9.61,2.593,3.41,7.131,5.19,11.777,5.19s9.185-1.78,11.778-5.19c2.161-2.75,2.7-6.21,2.7-9.61v-22.04H532.4v22.63a7.838,7.838,0,0,1-1.729,5.35,7.83,7.83,0,0,1-11.453,0,7.838,7.838,0,0,1-1.729-5.35v-22.63h-7.023Zm36.394,0,15.126,36.03H566.2l15.235-36.03h-7.671l-9.617,24.2-9.616-24.2h-7.671Zm69.568,6.23a9.17,9.17,0,0,0-8.309-4.87,8.307,8.307,0,0,0-8.77,8.51,7.343,7.343,0,0,0,1.077,3.9c1.18,1.95,2.872,2.87,6.257,4.51,2.821,1.39,4.821,2.42,5.8,2.98,2.615,1.59,3.333,3.54,3.333,5.38a7.951,7.951,0,0,1-8.257,7.9,8.22,8.22,0,0,1-6.411-2.92,11.907,11.907,0,0,1-1.846-3.28l-1.949.92a11.157,11.157,0,0,0,2.205,3.74,9.764,9.764,0,0,0,7.95,3.59c5.847,0,10.668-4.25,10.668-10a7.507,7.507,0,0,0-3.642-6.61,48.148,48.148,0,0,0-6.821-3.59c-3.436-1.7-6-2.93-6-6.62a6.079,6.079,0,0,1,6.36-6.36,7.306,7.306,0,0,1,6.719,4.21Zm26.368-4.41H626.386v34.21H642.8v-2.05H628.642v-15.64H642.49v-2.06H628.642v-12.41H642.8v-2.05Zm26.163,34.21-11.181-16.16a13.187,13.187,0,0,0,4.205-.66c4.257-1.44,5.745-4.93,5.745-8.31a8.5,8.5,0,0,0-3.539-7.33c-2.257-1.54-4.616-1.75-7.232-1.75h-4.924v34.21h2.257v-16.16h1.026l11.078,16.16h2.565Zm-14.669-32.16h2.821a12.207,12.207,0,0,1,5.231,1.03c1.334,0.72,3.026,2.51,3.026,5.95,0,4.41-2.923,6.97-7.795,6.97h-3.283v-13.95Zm22.88-2.05v34.21h2.257v-34.21h-2.257Zm28.929,0H689.689v34.21H706.1v-2.05H691.946v-15.64h13.848v-2.06H691.946v-12.41H706.1v-2.05Zm25.24,4.41a9.17,9.17,0,0,0-8.309-4.87,8.307,8.307,0,0,0-8.77,8.51,7.343,7.343,0,0,0,1.077,3.9c1.18,1.95,2.872,2.87,6.257,4.51,2.821,1.39,4.821,2.42,5.8,2.98,2.616,1.59,3.334,3.54,3.334,5.38a7.952,7.952,0,0,1-8.258,7.9,8.22,8.22,0,0,1-6.411-2.92,11.907,11.907,0,0,1-1.846-3.28l-1.949.92a11.175,11.175,0,0,0,2.205,3.74,9.764,9.764,0,0,0,7.95,3.59c5.847,0,10.668-4.25,10.668-10a7.507,7.507,0,0,0-3.642-6.61,48.091,48.091,0,0,0-6.821-3.59c-3.436-1.7-6-2.93-6-6.62a6.079,6.079,0,0,1,6.36-6.36,7.306,7.306,0,0,1,6.719,4.21Z" transform="translate(-282.594 -2555.47)"/>
</svg>
