<?xml version="1.0" encoding="utf-8"?>
<!-- Generator: Adobe Illustrator 25.1.0, SVG Export Plug-In . SVG Version: 6.00 Build 0)  -->
<svg version="1.1" id="シリーズ名" xmlns="http://www.w3.org/2000/svg" xmlns:xlink="http://www.w3.org/1999/xlink" x="0px"
	 y="0px" viewBox="0 0 462.2 129.8" style="enable-background:new 0 0 462.2 129.8;" xml:space="preserve">
<style type="text/css">
	.st0{fill-rule:evenodd;clip-rule:evenodd;fill:#CEA142;}
	.st1{fill-rule:evenodd;clip-rule:evenodd;fill:url(#prodefense_1_);}
</style>
<path id="_series" class="st0" d="M28.5,84.4c-2.4-4.6-7.2-7.4-12.4-7.3C7,77.1,3,84,3,89.9c0,2.1,0.5,4.1,1.6,5.8
	c1.8,2.9,4.3,4.3,9.4,6.8c4.2,2.1,7.2,3.6,8.7,4.5c3.9,2.4,5,5.3,5,8.1c0,6.8-5.4,11.8-12.4,11.8c-3.7,0.1-7.2-1.6-9.6-4.4
	c-1.2-1.5-2.1-3.1-2.8-4.9L0,118.9c0.7,2.1,1.8,4,3.3,5.6c2.9,3.6,7.3,5.5,11.9,5.4c8.7,0,16-6.4,16-15c0.1-4-2-7.8-5.4-9.9
	c-2.6-1.8-5.1-2.9-10.2-5.4c-5.1-2.5-9-4.4-9-9.9c0-5.1,3.5-9.5,9.5-9.5c4.3-0.1,8.2,2.4,10.1,6.3L28.5,84.4z M68,77.8H43.4V129H68
	v-3.1H46.8v-23.4h20.7v-3.1H46.8V80.9H68L68,77.8L68,77.8z M107.1,129l-16.7-24.2c2.1,0,4.3-0.3,6.3-1c6.4-2.1,8.6-7.4,8.6-12.4
	c0-4-1.3-8.2-5.3-11c-3.4-2.3-6.9-2.6-10.8-2.6h-7.4V129h3.4v-24.2h1.5l16.6,24.2H107.1L107.1,129z M85.1,80.9h4.2
	c2,0,5.7,0.3,7.8,1.5c2,1.1,4.5,3.8,4.5,8.9c0,6.6-4.4,10.4-11.7,10.4h-4.9V80.9z M119.3,77.8V129h3.4V77.8H119.3L119.3,77.8z
	 M162.6,77.8H138V129h24.6v-3.1h-21.2v-23.4h20.7v-3.1h-20.7V80.9h21.2L162.6,77.8L162.6,77.8z M200.3,84.4
	c-2.4-4.6-7.2-7.4-12.4-7.3c-9.1,0-13.1,6.8-13.1,12.7c0,2.1,0.5,4.1,1.6,5.8c1.8,2.9,4.3,4.3,9.4,6.8c4.2,2.1,7.2,3.6,8.7,4.5
	c3.9,2.4,5,5.3,5,8.1c0,6.8-5.4,11.8-12.4,11.8c-3.7,0.1-7.2-1.6-9.6-4.4c-1.2-1.5-2.1-3.1-2.8-4.9l-2.9,1.4c0.7,2.1,1.8,4,3.3,5.6
	c2.9,3.6,7.3,5.5,11.9,5.4c8.7,0,16-6.4,16-15c0.1-4-2-7.8-5.4-9.9c-2.6-1.8-5.1-2.9-10.2-5.4c-5.1-2.5-9-4.4-9-9.9
	c0-5.1,3.5-9.5,9.5-9.5c4.3-0.1,8.2,2.4,10.1,6.3L200.3,84.4z"/>
<linearGradient id="prodefense_1_" gradientUnits="userSpaceOnUse" x1="3.894" y1="28.1372" x2="462.256" y2="28.1372">
	<stop  offset="0" style="stop-color:#BF8C2B"/>
	<stop  offset="0.38" style="stop-color:#ECC96C"/>
	<stop  offset="1" style="stop-color:#BF8C2B"/>
</linearGradient>
<path id="prodefense" class="st1" d="M3.9,1.2v53.8h10.5V35.1h6.8c6.2,0,10.7-1.8,13.6-4.8c4.1-4.1,4.4-9.9,4.4-12
	c0.1-4.9-1.9-9.7-5.5-13c-4-3.5-8.1-4.1-14.2-4.1H3.9z M14.4,10.3H18c2.5,0,5.2,0.2,7.4,1.7c1.9,1.4,3,3.7,3,6.1
	c0,2.4-1,4.7-2.9,6.3c-2.3,1.7-4.8,1.7-6.9,1.7h-4.3V10.3z M47,1.2v53.8h10.5V33.4h1.3l14.4,21.6h13.1L69.4,32.4
	c2.1-0.3,4.1-1.1,5.9-2.3c4.2-2.8,6.3-7.4,6.3-12.7c0.2-4.6-1.8-9.1-5.3-12.1c-2.5-2.1-6.3-4-13.7-4H47z M57.5,9.8h3.1
	c1.9,0,10.2,0.1,10.2,8.1c0,7.9-8.3,8.2-10.3,8.2h-3V9.8z M117.9,0c-16.9,0-28.7,11.8-28.7,28.2s11.8,28.1,28.7,28.1
	s28.7-11.7,28.7-28.1S134.8,0,117.9,0z M117.9,46.7c-10.5,0-17.9-7.7-17.9-18.6s7.4-18.6,17.9-18.6c10.5,0,17.9,7.7,17.9,18.6
	S128.4,46.7,117.9,46.7z M156.3,1.2v53.8h13.9c7.5,0,13.4-0.7,19.7-5.2c7.1-5,10.8-12.8,10.8-21.7s-3.8-16.8-10.3-21.7
	c-6-4.4-12.5-5.2-20-5.2H156.3z M166.8,10.3h3.2c3.6,0,8.9,0.3,13.2,3.6c4.3,3.2,6.6,8.7,6.6,14.4c0,5.7-2.4,11.2-6.7,14.3
	c-4.7,3.4-10.5,3.6-13.2,3.6h-3.2V10.3z M238.6,1.2h-29.9v53.8h29.9v-9h-19.4V31.3h18.6v-9h-18.6v-12h19.4V1.2z M279,1.2h-28.6v53.8
	h10.5V31.3h17v-9h-17v-12H279L279,1.2L279,1.2z M317.9,1.2h-29.9v53.8h29.9v-9h-19.4V31.3h18.6v-9h-18.6v-12h19.4V1.2z M338.6,55.1
	v-36l32.8,36h7.3V1.2h-10.5v35.9L335.4,1.2h-7.3v53.8H338.6z M421.2,6.3c-4-4.1-9.5-6.4-15.3-6.3c-11.9,0-17.3,7.9-17.3,15.8
	c-0.2,3.8,1.4,7.5,4.3,10c2.6,2.1,5.7,3.7,9,4.7c3.1,1,6.3,2.1,8.3,4c1.4,1.2,2.1,3,2.1,4.8c0,4.5-3.6,7.4-8.3,7.4
	c-4.8,0-9.2-2.8-11.3-7.2l-6.9,6.5c2.8,4.1,8.6,10.2,18.6,10.2c11.1,0,18.7-7.2,18.7-17.7c0-5.5-2.2-9.1-4.6-11.3
	c-2.7-2.5-6.7-4-10.9-5.4c-3.4-1.2-5.2-1.9-6.5-3.1c-1.1-0.9-1.7-2.2-1.7-3.6c0-2.7,1.8-6.3,7.4-6.3c3.5,0,6.8,1.7,8.8,4.6
	L421.2,6.3z M462.3,1.2h-29.9v53.8h29.9v-9h-19.4V31.3h18.6v-9h-18.6v-12h19.4V1.2z"/>
</svg>
