<svg xmlns="http://www.w3.org/2000/svg" width="491" height="41.88" viewBox="0 0 491 41.88">
  <defs>
    <style>
      .cls-1 {
        fill: #0a45a7;
        fill-rule: evenodd;
      }
    </style>
  </defs>
  <path id="TONE_UP_UVseries.svg" data-name="TONE UP UVseries.svg" class="cls-1" d="M83.989,4062.64v-6.73H58.2v6.73H67.2v33.32h7.8v-33.32h8.995Zm23.786-7.63c-12.593,0-21.348,8.77-21.348,20.96s8.755,20.89,21.348,20.89,21.348-8.7,21.348-20.89S120.368,4055.01,107.775,4055.01Zm0,34.77c-7.8,0-13.312-5.71-13.312-13.81s5.517-13.87,13.312-13.87,13.313,5.76,13.313,13.87S115.571,4089.78,107.775,4089.78Zm37.5,6.18v-26.78l24.346,26.78h5.4v-40.05h-7.8v26.72l-24.346-26.72h-5.4v40.05h7.8Zm62.209-40.05H185.3v40.05h22.188v-6.72H193.093v-10.93h13.792v-6.73H193.093v-8.94h14.392v-6.73Zm17.9,0v24.5c0,3.78.6,7.62,3,10.69,2.878,3.78,7.916,5.76,13.073,5.76s10.194-1.98,13.072-5.76c2.4-3.07,3-6.91,3-10.69v-24.5h-7.795v25.16a8.711,8.711,0,0,1-1.919,5.94,8.678,8.678,0,0,1-12.713,0,8.711,8.711,0,0,1-1.919-5.94v-25.16h-7.795Zm41.225,0v40.05h7.8v-14.83h5.037c4.618,0,7.916-1.32,10.134-3.54,3.059-3.07,3.3-7.39,3.3-8.95a12.788,12.788,0,0,0-4.078-9.67c-2.938-2.58-6.057-3.06-10.554-3.06H266.608Zm7.8,6.73h2.7a9.38,9.38,0,0,1,5.516,1.26,5.512,5.512,0,0,1,2.219,4.56,5.972,5.972,0,0,1-2.159,4.68,7.974,7.974,0,0,1-5.1,1.26H274.4v-11.76Zm33.369-6.73v24.5c0,3.78.6,7.62,3,10.69,2.879,3.78,7.916,5.76,13.073,5.76s10.194-1.98,13.072-5.76c2.4-3.07,3-6.91,3-10.69v-24.5h-7.8v25.16a8.706,8.706,0,0,1-1.919,5.94,8.677,8.677,0,0,1-12.712,0,8.706,8.706,0,0,1-1.919-5.94v-25.16h-7.8Zm40.383,0,16.79,40.05h4.677l16.911-40.05h-8.515l-10.674,26.9-10.674-26.9h-8.515Zm71.63,6.93a10.172,10.172,0,0,0-9.222-5.41c-6.774,0-9.734,5.07-9.734,9.46a8.166,8.166,0,0,0,1.195,4.33c1.31,2.17,3.188,3.19,6.945,5.02,3.131,1.54,5.351,2.68,6.433,3.3,2.9,1.77,3.7,3.94,3.7,5.99a8.833,8.833,0,0,1-9.165,8.78,9.145,9.145,0,0,1-7.116-3.25,13.279,13.279,0,0,1-2.049-3.65l-2.163,1.03a12.456,12.456,0,0,0,2.448,4.16,10.847,10.847,0,0,0,8.823,3.99c6.49,0,11.841-4.73,11.841-11.12a8.351,8.351,0,0,0-4.042-7.35c-1.936-1.37-3.814-2.17-7.571-3.99-3.814-1.88-6.661-3.25-6.661-7.35a6.755,6.755,0,0,1,7.059-7.07,8.108,8.108,0,0,1,7.458,4.67Zm29.259-4.9H430.828v38.02h18.216v-2.28H433.333V4076.3H448.7v-2.28h-15.37v-13.8h15.711v-2.28Zm29.031,38.02-12.409-17.95a14.415,14.415,0,0,0,4.668-.75c4.724-1.59,6.375-5.47,6.375-9.23a9.472,9.472,0,0,0-3.928-8.15c-2.5-1.71-5.123-1.94-8.026-1.94H459.29v38.02h2.5v-17.95h1.138l12.3,17.95h2.846Zm-16.28-35.74h3.131a13.544,13.544,0,0,1,5.806,1.14c1.48,0.8,3.359,2.79,3.359,6.61,0,4.91-3.245,7.76-8.653,7.76H461.8v-15.51Zm25.388-2.28v38.02h2.5v-38.02h-2.5Zm32.106,0H501.072v38.02h18.217v-2.28H503.577V4076.3h15.37v-2.28h-15.37v-13.8h15.712v-2.28Zm28.007,4.9a10.173,10.173,0,0,0-9.222-5.41c-6.774,0-9.734,5.07-9.734,9.46a8.166,8.166,0,0,0,1.195,4.33c1.309,2.17,3.188,3.19,6.945,5.02,3.131,1.54,5.351,2.68,6.433,3.3,2.9,1.77,3.7,3.94,3.7,5.99a8.833,8.833,0,0,1-9.165,8.78,9.145,9.145,0,0,1-7.116-3.25,13.279,13.279,0,0,1-2.049-3.65l-2.163,1.03a12.466,12.466,0,0,0,2.447,4.16,10.849,10.849,0,0,0,8.824,3.99c6.489,0,11.84-4.73,11.84-11.12a8.35,8.35,0,0,0-4.041-7.35c-1.936-1.37-3.814-2.17-7.571-3.99-3.815-1.88-6.661-3.25-6.661-7.35a6.755,6.755,0,0,1,7.059-7.07,8.107,8.107,0,0,1,7.457,4.67Z" transform="translate(-58.219 -4055)"/>
</svg>
