<?xml version="1.0" encoding="utf-8"?>
<!-- Generator: Adobe Illustrator 26.3.1, SVG Export Plug-In . SVG Version: 6.00 Build 0)  -->
<svg version="1.1" id="Layer_1" xmlns="http://www.w3.org/2000/svg" xmlns:xlink="http://www.w3.org/1999/xlink" x="0px" y="0px"
	 viewBox="0 0 48 48" style="enable-background:new 0 0 48 48;" xml:space="preserve">
<style type="text/css">
	.st0{fill:none;stroke:#00B4A4;stroke-width:2;stroke-linejoin:round;}
	.st1{fill:none;stroke:#00B4A4;stroke-width:2;stroke-linecap:round;stroke-linejoin:round;}
</style>
<path class="st0" d="M2.2,45.6L9,11.5h29.9l6.9,34.1H2.2z"/>
<path class="st0" d="M20.2,45.6l-6.8-34.1"/>
<path class="st0" d="M2.2,45.6l9-7.1v-27"/>
<path class="st0" d="M11.2,38.5l9,7.1"/>
<path class="st1" d="M32.2,17.4V6.9c0-1.2-0.5-2.3-1.3-3.2s-2-1.3-3.2-1.3l0,0c-1.2,0-2.3,0.5-3.2,1.3c-0.8,0.8-1.3,2-1.3,3.2l0,0
	v10.5"/>
<path class="st1" d="M28.5,11.5V6.9c0-1.2-0.5-2.3-1.3-3.2c-0.8-0.8-2-1.3-3.2-1.3l0,0c-1.2,0-2.3,0.5-3.2,1.3
	c-0.8,0.8-1.3,2-1.3,3.2l0,0v4.6"/>
<path class="st1" d="M30.6,29c1.8,0,3.3-1.5,3.3-3.3c0-1.8-1.5-3.3-3.3-3.3c-1.8,0-3.3,1.5-3.3,3.3C27.4,27.6,28.8,29,30.6,29z"/>
</svg>
