<?xml version="1.0" encoding="utf-8"?>
<!-- Generator: Adobe Illustrator 24.2.3, SVG Export Plug-In . SVG Version: 6.00 Build 0)  -->
<svg version="1.1" id="Layer_1" xmlns="http://www.w3.org/2000/svg" xmlns:xlink="http://www.w3.org/1999/xlink" x="0px" y="0px"
	 viewBox="0 0 512 512" style="enable-background:new 0 0 512 512;" xml:space="preserve">
<style type="text/css">
	.st0{fill:#FFFFFF;}
</style>
<path class="st0" d="M447.3,0H64.7C29,0,0,29,0,64.7v382.5C0,483,29,512,64.7,512h382.5c35.7,0,64.7-29,64.7-64.7V64.7
	C512,29,483,0,447.3,0z M481.8,447.3c0,19-15.5,34.5-34.5,34.5H64.7c-19,0-34.5-15.5-34.5-34.5V64.7c0-19,15.5-34.5,34.5-34.5h382.5
	c19,0,34.5,15.5,34.5,34.5V447.3z"/>
<path class="st0" d="M427.5,120.7H230.2c-6.6-22.4-27.3-38.9-51.8-38.9s-45.3,16.4-51.8,38.9H94.7c-8.4,0-15.1,6.8-15.1,15.1
	S86.4,151,94.7,151h31.8c6.6,22.4,27.3,38.9,51.8,38.9s45.3-16.4,51.8-38.9h197.3c8.4,0,15.1-6.8,15.1-15.1S435.8,120.7,427.5,120.7
	z M202.1,135.9c0,13.1-10.7,23.8-23.8,23.8s-23.8-10.7-23.8-23.8s10.7-23.8,23.8-23.8S202.1,122.8,202.1,135.9L202.1,135.9z"/>
<path class="st0" d="M427.5,240.9H312.9c-6.6-22.4-27.3-38.9-51.8-38.9s-45.3,16.4-51.8,38.9H94.7c-8.4,0-15.1,6.8-15.1,15.1
	s6.8,15.1,15.1,15.1h114.5c6.6,22.4,27.3,38.9,51.8,38.9s45.3-16.4,51.8-38.9h114.5c8.4,0,15.1-6.8,15.1-15.1
	S435.8,240.9,427.5,240.9z M284.9,256c0,13.1-10.7,23.8-23.8,23.8s-23.8-10.7-23.8-23.8c0-13.1,10.7-23.8,23.8-23.8
	S284.9,242.9,284.9,256z"/>
<path class="st0" d="M427.5,361h-31.8c-6.6-22.4-27.3-38.9-51.8-38.9S298.6,338.6,292,361H94.7c-8.4,0-15.1,6.8-15.1,15.1
	s6.8,15.1,15.1,15.1H292c6.6,22.4,27.3,38.9,51.8,38.9s45.3-16.4,51.8-38.9h31.8c8.4,0,15.1-6.8,15.1-15.1S435.8,361,427.5,361z
	 M367.6,376.1c0,13.1-10.7,23.8-23.8,23.8s-23.8-10.7-23.8-23.8c0-13.1,10.7-23.8,23.8-23.8S367.6,363,367.6,376.1z"/>
</svg>
