<?xml version="1.0" encoding="utf-8"?>
<!-- Generator: Adobe Illustrator 26.3.1, SVG Export Plug-In . SVG Version: 6.00 Build 0)  -->
<svg version="1.1" id="Layer_1" xmlns="http://www.w3.org/2000/svg" xmlns:xlink="http://www.w3.org/1999/xlink" x="0px" y="0px"
	 viewBox="0 0 48 48" style="enable-background:new 0 0 48 48;" xml:space="preserve">
<style type="text/css">
	.st0{fill:none;stroke:#00B4A4;stroke-width:2;stroke-miterlimit:10;}
	.st1{fill:none;stroke:#00B4A4;stroke-width:2;stroke-linejoin:round;}
</style>
<path class="st0" d="M27.3,13.6c2.4,0,4.3-1.9,4.3-4.3S29.7,5,27.3,5s-4.3,1.9-4.3,4.3S25,13.6,27.3,13.6z"/>
<path class="st0" d="M11.3,29.8c2.4,0,4.3-1.9,4.3-4.3c0-2.4-1.9-4.3-4.3-4.3c-2.4,0-4.3,1.9-4.3,4.3C7,27.9,8.9,29.8,11.3,29.8z"/>
<path class="st1" d="M19.9,26.8l3.6-7.2c0.6-1.1,1.5-2.1,2.5-2.8c1.1-0.7,2.3-1,3.6-1H32c1.5,0,3,0.5,4.2,1.4
	c1.2,0.9,2.1,2.2,2.5,3.7l1.6,6.2H28.6l-0.5-5.4c0-0.1,0-0.1-0.1-0.2c0,0-0.1-0.1-0.2-0.1c-0.1,0-0.1,0-0.2,0
	c-0.1,0-0.1,0.1-0.1,0.1l-3.7,7.3c-0.3,0.5-0.7,0.9-1.2,1.1c-0.5,0.2-1.1,0.2-1.6,0l0,0c-0.3-0.1-0.6-0.3-0.8-0.5
	c-0.2-0.2-0.4-0.5-0.5-0.8c-0.1-0.3-0.2-0.6-0.1-1C19.6,27.4,19.7,27,19.9,26.8L19.9,26.8z"/>
<path class="st1" d="M20.1,27.1c-1.2,0-1.6,0.5-2.4,1.3l-2.9,3.1c-0.4,0.4-0.9,0.8-1.4,1c-0.5,0.2-1.1,0.3-1.7,0.3H5.9
	c-0.4,0-0.8,0.1-1.1,0.2c-0.3,0.1-0.7,0.4-0.9,0.6c-0.3,0.3-0.5,0.6-0.6,0.9C3.1,34.9,3,35.3,3,35.6l0,0c0,0.4,0.1,0.8,0.2,1.1
	c0.1,0.3,0.4,0.7,0.6,0.9c0.3,0.3,0.6,0.5,0.9,0.6c0.3,0.1,0.7,0.2,1.1,0.2h11.8c0.5,0,1-0.1,1.5-0.4c0.5-0.2,0.8-0.6,1.1-1l1-1.4
	c0.3-0.5,0.8-0.9,1.3-1.2s1.1-0.4,1.8-0.4h16.7c0.9,0,1.8-0.4,2.5-1c0.7-0.7,1-1.6,1-2.5s-0.4-1.8-1-2.5c-0.7-0.7-1.6-1-2.5-1H24.8"
	/>
<path class="st1" d="M3,35.6v6.6c0,0.4,0.2,0.9,0.5,1.2c0.3,0.3,0.7,0.5,1.2,0.5h38.3c0.4,0,0.9-0.2,1.2-0.5
	c0.3-0.3,0.5-0.7,0.5-1.2V30.6"/>
</svg>
