<?xml version="1.0" encoding="utf-8"?>
<!-- Generator: Adobe Illustrator 26.3.1, SVG Export Plug-In . SVG Version: 6.00 Build 0)  -->
<svg version="1.1" id="Layer_1" xmlns="http://www.w3.org/2000/svg" xmlns:xlink="http://www.w3.org/1999/xlink" x="0px" y="0px"
	 viewBox="0 0 48 48" style="enable-background:new 0 0 48 48;" xml:space="preserve">
<style type="text/css">
	.st0{fill:none;stroke:#00B4A4;stroke-width:2;stroke-linecap:round;stroke-miterlimit:10;}
</style>
<path class="st0" d="M46,22.1H16.2"/>
<path class="st0" d="M14.7,11.6H5.1c-0.7,0-1.2,0.5-1.2,1.2v2.9c0,0.7,0.5,1.2,1.2,1.2h9.6c0.7,0,1.2-0.5,1.2-1.2v-2.9
	C16,12.1,15.4,11.6,14.7,11.6z"/>
<path class="st0" d="M10,46.3H7.9c-0.7,0-1.2-0.5-1.2-1.2V27.4h4.6v17.7C11.2,45.8,10.7,46.3,10,46.3L10,46.3z"/>
<path class="st0" d="M36.8,27.4h4.6v17.7c0,0.7-0.5,1.2-1.2,1.2H38c-0.7,0-1.2-0.5-1.2-1.2L36.8,27.4L36.8,27.4z"/>
<path class="st0" d="M36.8,36.8l-9.5-9.5h9.5V36.8z"/>
<path class="st0" d="M11.2,36.8l9.5-9.5h-9.5V36.8z"/>
<path class="st0" d="M38.8,16.9h4.4c1.5,0,2.8,1.2,2.8,2.8v5c0,1.5-1.2,2.8-2.8,2.8H4.8c-1.5,0-2.8-1.2-2.8-2.8v-5
	c0-1.5,1.2-2.8,2.8-2.8H38.8L38.8,16.9z"/>
<path class="st0" d="M19.8,12.3h16.4c2.9,0,5.2-2.3,5.2-5.2c0-2.9-2.3-5.2-5.2-5.2H22.4c-1.4,0-2.6,1.2-2.6,2.6
	c0,1.4,1.2,2.6,2.6,2.6h12.8"/>
</svg>
