<?xml version="1.0" encoding="utf-8"?>
<!-- Generator: Adobe Illustrator 26.3.1, SVG Export Plug-In . SVG Version: 6.00 Build 0)  -->
<svg version="1.1" id="Layer_1" xmlns="http://www.w3.org/2000/svg" xmlns:xlink="http://www.w3.org/1999/xlink" x="0px" y="0px"
	 viewBox="0 0 48 48" style="enable-background:new 0 0 48 48;" xml:space="preserve">
<style type="text/css">
	.st0{fill:none;stroke:#00B4A4;stroke-width:2;stroke-linecap:round;stroke-linejoin:round;}
</style>
<path class="st0" d="M41.7,2H6.3C3.9,2,2,4.1,2,6.7v34.7C2,43.9,3.9,46,6.3,46h35.5c2.4,0,4.3-2.1,4.3-4.7V6.7C46,4.1,44.1,2,41.7,2
	z"/>
<path class="st0" d="M10,41.2c1.6,0,2.9-1.3,2.9-2.9c0-1.6-1.3-2.9-2.9-2.9c-1.6,0-2.9,1.3-2.9,2.9C7.2,39.9,8.4,41.2,10,41.2z"/>
<path class="st0" d="M18.3,38.3h21"/>
<path class="st0" d="M2,30.7h44"/>
<path class="st0" d="M19.2,19.9v-6.5c0-0.4,0.1-0.8,0.3-1.1c0.2-0.3,0.4-0.6,0.8-0.8c0.3-0.2,0.7-0.3,1-0.3c0.4,0,0.7,0.1,1,0.3
	l5.2,3.3c0.3,0.2,0.6,0.5,0.7,0.8c0.2,0.3,0.3,0.7,0.3,1.1c0,0.4-0.1,0.7-0.3,1.1c-0.2,0.3-0.4,0.6-0.7,0.8l-5.2,3.3
	c-0.3,0.2-0.7,0.3-1,0.3c-0.4,0-0.7-0.1-1-0.3c-0.3-0.2-0.6-0.5-0.8-0.8C19.3,20.7,19.2,20.3,19.2,19.9L19.2,19.9z"/>
</svg>
