<?xml version="1.0" encoding="utf-8"?>
<!-- Generator: Adobe Illustrator 25.2.3, SVG Export Plug-In . SVG Version: 6.00 Build 0)  -->
<svg version="1.1" id="Layer_1" xmlns="http://www.w3.org/2000/svg" xmlns:xlink="http://www.w3.org/1999/xlink" x="0px" y="0px"
	 viewBox="0 0 88 88" style="enable-background:new 0 0 88 88;" xml:space="preserve">
<style type="text/css">
	.st0{fill:#00B4A4;}
</style>
<path class="st0" d="M27,88H15c-4.7,0-9.2-2.1-12-5.9c-2.7-3.6-3.6-8.2-2.4-12.6l2.8-10.5c0.8-2.9,3.8-4.7,6.7-3.9
	c2.9,0.8,4.6,4,3.8,6.9l-2.8,10.3c-0.4,1.5,0.2,2.6,0.6,3.2c0.4,0.5,1.3,1.4,2.9,1.4h9c0.4,0,0.7-0.2,0.8-0.6l14.2-53
	c0.8-2.9,3.8-4.7,6.7-3.9c2.9,0.8,4.7,3.8,3.9,6.7l-15,55.9C33.7,84.5,31.3,88,27,88z"/>
<path class="st0" d="M45.1,88c-0.5,0-0.9-0.1-1.4-0.2C40.7,87,39,84,39.7,81.1l7.3-27.5c0.8-2.9,3.8-4.7,6.7-3.9
	c2.9,0.8,4.7,3.8,3.9,6.7l-7.3,27.5C49.7,86.4,47.5,88,45.1,88z"/>
<path class="st0" d="M61.6,88c-0.5,0-0.9-0.1-1.4-0.2c-2.9-0.8-4.7-3.8-3.9-6.7l7.3-27.5c0.8-2.9,3.8-4.7,6.7-3.9
	c2.9,0.8,4.7,3.8,3.9,6.7l-7.3,27.5C66.2,86.4,64,88,61.6,88z"/>
<path class="st0" d="M78.1,88c-0.5,0-0.9-0.1-1.4-0.2C73.7,87,72,84,72.8,81.1l4.4-16.5c0.8-2.9,3.8-4.7,6.7-3.9
	c2.9,0.8,4.7,3.8,3.9,6.7l-4.4,16.5C82.7,86.4,80.5,88,78.1,88z"/>
<path class="st0" d="M39,48.6c-0.5,0-0.9-0.1-1.4-0.2c-7.1-1.9-13-6.9-16-13.6c-2.4-5.2-2.9-11.1-1.4-16.6
	C23.7,5.1,37.3-2.7,50.4,0.8C63.5,4.4,71.3,17.9,67.8,31c-1.2,4.4-3.5,8.3-6.8,11.5c-2.2,2.1-5.7,2-7.8-0.2c-2.1-2.2-2-5.7,0.2-7.8
	c1.8-1.7,3.1-3.9,3.8-6.4c2-7.3-2.4-14.8-9.7-16.7c-7.3-2-14.8,2.4-16.7,9.7c-0.8,3.1-0.6,6.3,0.8,9.2c1.7,3.7,4.9,6.5,8.9,7.5
	c2.9,0.8,4.7,3.8,3.9,6.7C43.7,47,41.5,48.6,39,48.6z"/>
</svg>
