<svg xmlns="http://www.w3.org/2000/svg" viewBox="0 0 37.61 37.55"><defs><style>.cls-1{fill:#fff;}.cls-2{fill:none;}.cls-3{fill:#1147b4;}</style></defs><g id="レイヤー_2" data-name="レイヤー 2"><g id="トンボ"><rect class="cls-1" x="1.18" y="1.38" width="34.77" height="35.46" rx="2.77"/><path class="cls-2" d="M31,0a5.52,5.52,0,0,0-.81.06,5.47,5.47,0,0,0-.7.16H32.4A5.4,5.4,0,0,0,31,0Z"/><path class="cls-2" d="M37.5,6.54a8.17,8.17,0,0,0-.17-.86v4.37A8.55,8.55,0,0,0,37.5,6.54Z"/><path class="cls-2" d="M31.63,17.43h-.15a4.26,4.26,0,0,1,.6,2.73c-.37,3-3.89,5.06-8.57,5.1h-.14a15.16,15.16,0,0,1-1.64-.09c-3.36-.35-6.27-1.7-7.79-3.62a4.53,4.53,0,0,1-1.06-3.42c.38-3,3.9-5.06,8.57-5.1a17.73,17.73,0,0,1,1.79.09c.35,0,.69.09,1,.15A11.05,11.05,0,0,1,22.55,8.8a10.67,10.67,0,0,1,1.34-7.09H3.73A2.25,2.25,0,0,0,1.49,4V33.82a2.25,2.25,0,0,0,2.24,2.24H33.59a2.24,2.24,0,0,0,2.24-2.24V16.22a7.89,7.89,0,0,1-3,1.11A7.06,7.06,0,0,1,31.63,17.43Z"/><path class="cls-2" d="M30.42,19.63a3.82,3.82,0,0,1-1.5,2.57,9.28,9.28,0,0,1-5.7,1.69,12.58,12.58,0,0,1-1.5-.09c-2.93-.34-5.48-1.58-6.64-3.22a3.34,3.34,0,0,1-.61-2.69c.64-2.83,5-4.05,8.78-3.59a13.78,13.78,0,0,1,2.25.45c-.16-.16-.32-.34-.47-.52a15.85,15.85,0,0,0-1.87-.32,14.05,14.05,0,0,0-1.58-.08h-.12c-4.26,0-7.45,1.84-7.78,4.39A3.76,3.76,0,0,0,14.57,21c1.39,1.75,4.1,3,7.24,3.32a14.1,14.1,0,0,0,1.7.08h0c4.25,0,7.45-1.84,7.77-4.39a3.7,3.7,0,0,0-.82-2.72,7.47,7.47,0,0,1-.92-.18A3.37,3.37,0,0,1,30.42,19.63Z"/><path class="cls-2" d="M21.63,15c-3.24,0-6,1.25-6.37,3.07a2.47,2.47,0,0,0,.48,2.05c1,1.46,3.36,2.56,6.08,2.88a9.17,9.17,0,0,0,6.6-1.43,3,3,0,0,0,1.2-2h0c.19-2-2.65-4-6.47-4.47A13.17,13.17,0,0,0,21.63,15Z"/><path class="cls-2" d="M23.35,8.68a10,10,0,0,0,2.11,4.83,12.93,12.93,0,0,1,1.82.6L27.19,14a9,9,0,0,1-2.92-5.48A8.9,8.9,0,0,1,26,1.71H24.84l-.12.18A9.76,9.76,0,0,0,23.35,8.68Z"/><path class="cls-2" d="M31.61,15.79a6.17,6.17,0,0,1-1.9-.33,7.31,7.31,0,0,1,1.17,1.11,7.09,7.09,0,0,0,1.84,0,7.3,7.3,0,0,0,3.11-1.28V14.11a6.19,6.19,0,0,1-3.28,1.6A6.07,6.07,0,0,1,31.61,15.79Z"/><path class="cls-2" d="M29.42,16.27a9.69,9.69,0,0,0-2.77-1.55l0,0A8.13,8.13,0,0,0,29.42,16.27Z"/><path class="cls-2" d="M33.59,1.71H27a7.92,7.92,0,0,0-1.95,6.73,8.26,8.26,0,0,0,2.65,5,5.79,5.79,0,0,0,4.71,1.48,5.61,5.61,0,0,0,3.4-2V4A2.24,2.24,0,0,0,33.59,1.71Z"/><path class="cls-2" d="M15.12,30.1a6.31,6.31,0,0,1-4.19,3.72c.66.55,1.76,1.37,2.76,2.12l.15.12h5.88a15.59,15.59,0,0,1-1.14-1.35A54.49,54.49,0,0,0,15.12,30.1Z"/><path class="cls-3" d="M23.25,14.3c-3.82-.46-8.14.76-8.78,3.59a3.34,3.34,0,0,0,.61,2.69c1.16,1.64,3.71,2.88,6.64,3.22a12.58,12.58,0,0,0,1.5.09,9.28,9.28,0,0,0,5.7-1.69,3.82,3.82,0,0,0,1.5-2.57,3.37,3.37,0,0,0-.88-2.48,8.32,8.32,0,0,0-4-2.4A13.78,13.78,0,0,0,23.25,14.3Zm6.37,5.26h0a3,3,0,0,1-1.2,2A9.17,9.17,0,0,1,21.82,23c-2.72-.32-5.05-1.42-6.08-2.88a2.47,2.47,0,0,1-.48-2.05c.41-1.82,3.13-3.07,6.37-3.07a13.17,13.17,0,0,1,1.52.09C27,15.55,29.81,17.51,29.62,19.56Z"/><path class="cls-3" d="M37.26,3.31A3.72,3.72,0,0,0,34.69.4a4,4,0,0,0-1.1-.18H3.73A3.74,3.74,0,0,0,0,4V33.82a3.73,3.73,0,0,0,3.73,3.73H33.59a3.74,3.74,0,0,0,3.74-3.73V4A3.39,3.39,0,0,0,37.26,3.31ZM26,1.71a8.9,8.9,0,0,0-1.68,6.85A9,9,0,0,0,27.19,14l.09.07a12.93,12.93,0,0,0-1.82-.6,10,10,0,0,1-2.11-4.83,9.76,9.76,0,0,1,1.37-6.79l.12-.18Zm4.44,15.52a.61.61,0,0,1,.07.1,3.7,3.7,0,0,1,.82,2.72c-.32,2.55-3.52,4.36-7.77,4.39h0a14.1,14.1,0,0,1-1.7-.08C18.67,24,16,22.79,14.57,21a3.76,3.76,0,0,1-.89-2.82c.33-2.55,3.52-4.36,7.78-4.39h.12a14.05,14.05,0,0,1,1.58.08,15.85,15.85,0,0,1,1.87.32,14.64,14.64,0,0,1,1.62.49,9.69,9.69,0,0,1,2.77,1.55A6.3,6.3,0,0,1,30.39,17.23Zm.89,4.9v0c-.35,2.59-3.56,4.4-7.82,4.4a16,16,0,0,1-1.69-.09c-4.31-.5-7.61-2.69-8-5.28a4,4,0,0,0,.22.34c1.52,1.92,4.43,3.27,7.79,3.62a15.16,15.16,0,0,0,1.64.09h.14C27.05,25.22,29.93,24,31.28,22.13ZM11,8.69h0c.11.23-.37,1-1.5,1.54a2.25,2.25,0,0,1-1.84.09.82.82,0,0,1-.49-.48v0a7.36,7.36,0,0,1,3.68-1.13ZM6.49,10.37a1.77,1.77,0,0,0,.84.72,2.8,2.8,0,0,0,1.12.23A3.31,3.31,0,0,0,9.89,11a4.78,4.78,0,0,0,1.44-1.07,12.15,12.15,0,0,1-3.15,5h0c-.22.23-.44.44-.67.65L4.35,12.41c.18-.21.35-.41.55-.62A18.65,18.65,0,0,1,6.49,10.37Zm-3,2.38L7.22,16.5,6,17.72,2.27,14ZM13.84,36.06l-.15-.12c-1-.75-2.1-1.57-2.76-2.12a4.51,4.51,0,0,0,.94-.31l.06,0a5.44,5.44,0,0,0,.54-.27l.06,0A5.86,5.86,0,0,0,13.94,32h0a.42.42,0,0,0,.11-.15c.12-.16.24-.31.34-.46l0-.06a5,5,0,0,0,.29-.47.35.35,0,0,0,.08-.13c.11-.21.21-.4.29-.57h0a54.49,54.49,0,0,1,3.46,4.61,15.59,15.59,0,0,0,1.14,1.35ZM6.17,23.5l5.7,6.62-6.25-6.2A5.34,5.34,0,0,1,6.17,23.5ZM8.7,22.44l3.93,6-4.47-5.9A5.36,5.36,0,0,1,8.7,22.44ZM3.51,26.91l6.28,4.58-6.49-4Q3.39,27.21,3.51,26.91ZM9,32,3,29a6.21,6.21,0,0,1,.11-.67Zm2-9.59a1.31,1.31,0,0,1,.55.21l1.69,3.9Zm-1-.09,2.79,5.13L9.57,22.31Zm-2.75.57,5,6.59L6.88,23.09A5.24,5.24,0,0,1,7.36,22.86ZM5,24.47l6,5.93L4.59,25Q4.8,24.74,5,24.47Zm-.91,1.2,6.28,5.27L3.85,26.16Zm3.41,6.45L3.14,30.4A1.58,1.58,0,0,1,3,29.87Zm28.29,1.7a2.24,2.24,0,0,1-2.24,2.24H20.81c-.8-.88-1.39-1.54-1.57-1.81a46.18,46.18,0,0,0-3.91-5.13l-3-6.93-.07-.12a2.91,2.91,0,0,0-1.92-.59h0a7.57,7.57,0,0,0-1.46.11H8.78a8.43,8.43,0,0,0-2.76,1s0,0,0,0H6a7.17,7.17,0,0,0-1.23.94h0a8.82,8.82,0,0,0-2.38,4.19C2.09,29,2,30.39,2.61,31l7.2,2.87a25.26,25.26,0,0,0,2.69,2.18H3.73a2.25,2.25,0,0,1-2.24-2.24V24.06L6.63,19a.41.41,0,0,0,0-.6l0-.05L8.11,16.8a.41.41,0,0,0,0-.59h0c.23-.22.47-.43.69-.66h0c2.24-2.33,3.66-5,3.45-6.5a1.35,1.35,0,0,0-.66-1c-.67-.39-3.58.11-5,1.19a21.62,21.62,0,0,0-2.33,2c-.19.19-.36.41-.54.61a.42.42,0,0,0-.24-.09h0a.4.4,0,0,0-.29.12L1.68,13.37l-.1-.1s-.06,0-.09-.06V4A2.25,2.25,0,0,1,3.73,1.71H23.89A10.67,10.67,0,0,0,22.55,8.8a11.05,11.05,0,0,0,1.72,4.46c-.34-.06-.68-.11-1-.15A17.73,17.73,0,0,0,21.45,13c-4.67,0-8.19,2.14-8.57,5.1v.16h0c0,.41,0,.75,0,1s0,.4,0,.55a4.23,4.23,0,0,0,0,.79l0,.23c.21,3.14,3.92,5.82,8.81,6.39.6.06,1.2.1,1.79.1,4.67,0,8.21-2.1,8.61-5.1a9.21,9.21,0,0,0,0-2.75,4.6,4.6,0,0,0-.63-2.11h.15a7.06,7.06,0,0,0,1.21-.1,7.89,7.89,0,0,0,3-1.11Zm0-18.56a7.3,7.3,0,0,1-3.11,1.28,7.09,7.09,0,0,1-1.84,0,7.31,7.31,0,0,0-1.17-1.11,6.17,6.17,0,0,0,1.9.33,6.07,6.07,0,0,0,.94-.08,6.19,6.19,0,0,0,3.28-1.6Zm-3.4-.34a5.79,5.79,0,0,1-4.71-1.48,8.26,8.26,0,0,1-2.65-5A7.92,7.92,0,0,1,27,1.71h6.57A2.24,2.24,0,0,1,35.83,4v9A5.61,5.61,0,0,1,32.43,14.92Z"/></g></g></svg>