<svg xmlns="http://www.w3.org/2000/svg" width="223.125" height="46.406" viewBox="0 0 223.125 46.406">
  <defs>
    <style>
      .cls-1 {
        fill: #fff;
        fill-rule: evenodd;
      }
    </style>
  </defs>
  <path id="head-lineup.svg" class="cls-1" d="M592.009,191.977v45.362H614.86v-7.617H600.85V191.977h-8.841Zm28.967,0v45.362h8.841V191.977h-8.841Zm28.017,45.362V207.007l27.612,30.332h6.121V191.977h-8.841v30.264l-27.612-30.264h-6.121v45.362h8.841Zm69.227-45.362H693.056v45.362H718.22v-7.617H701.9V217.344H717.54v-7.617H701.9V199.594H718.22v-7.617Zm20.326,0v27.748c0,4.284.68,8.637,3.4,12.106,3.264,4.284,8.977,6.528,14.826,6.528s11.561-2.244,14.826-6.528c2.72-3.469,3.4-7.822,3.4-12.106V191.977h-8.841v28.5a9.869,9.869,0,0,1-2.176,6.733,9.871,9.871,0,0,1-14.418,0,9.868,9.868,0,0,1-2.177-6.733v-28.5h-8.841Zm46.783,0v45.362h8.842v-16.8h5.712c5.237,0,8.978-1.5,11.494-4.013,3.469-3.468,3.741-8.365,3.741-10.133a14.451,14.451,0,0,0-4.625-10.95c-3.333-2.924-6.869-3.468-11.97-3.468H785.329Zm8.842,7.617h3.06c2.108,0,4.421.136,6.257,1.428A6.248,6.248,0,0,1,806,206.191a6.773,6.773,0,0,1-2.448,5.305,9.05,9.05,0,0,1-5.781,1.428h-3.6v-13.33Z" transform="translate(-592 -191.969)"/>
</svg>
