<svg xmlns="http://www.w3.org/2000/svg" viewBox="0 0 270.63 270.63"><defs><style>.cls-1{fill:#fff;}.cls-2,.cls-3,.cls-4{fill:none;stroke:#fff;}.cls-2,.cls-4{stroke-miterlimit:10;}.cls-2,.cls-3{stroke-width:6px;}.cls-3{stroke-linecap:round;stroke-linejoin:round;}.cls-4{stroke-width:4px;}</style></defs><g id="レイヤー_2" data-name="レイヤー 2"><g id="レイヤー_1-2" data-name="レイヤー 1"><path class="cls-1" d="M246.81,61.38l-43.56,64.35a10.31,10.31,0,0,1-6.52,4.44,10.07,10.07,0,0,1-2.17.23,10.28,10.28,0,0,1-5.64-1.68l-50.5-32.85a10.39,10.39,0,0,1-3-14.36l46.46-71.46,5,3.27L140.41,84.78a4.39,4.39,0,0,0,1.28,6.06l50.5,32.85a4.39,4.39,0,0,0,6.06-1.28l44.59-65.86"/><polyline class="cls-2" points="185.84 123.14 179.11 133.49 138.03 106.77 144.77 96.42"/><polyline class="cls-2" points="165.69 126.6 158.96 136.95 143.03 126.59 149.77 116.24"/><path class="cls-2" d="M135.13,172.1h0a13,13,0,0,1-.38-15.55l8.94-12.61a2,2,0,0,1,3.32,0l9,12.61a13,13,0,0,1-.38,15.55h0A13,13,0,0,1,135.13,172.1Z"/><path class="cls-3" d="M82.82,224c-15.34-8.11-8.85-23.51,1.9-27.8,11.24-4.49,27-1.36,33.23-12.57a1,1,0,0,1,1.72.06c6.42,13.36,31.81,15.65,23.5,34.51C136.87,232.51,97.58,231.81,82.82,224Z"/><circle class="cls-4" cx="135.32" cy="135.32" r="133.32"/></g></g></svg>