<?xml version="1.0" encoding="utf-8"?>
<!-- Generator: Adobe Illustrator 25.0.1, SVG Export Plug-In . SVG Version: 6.00 Build 0)  -->
<svg version="1.1" id="レイヤー_1" xmlns="http://www.w3.org/2000/svg" xmlns:xlink="http://www.w3.org/1999/xlink" x="0px"
	 y="0px" viewBox="0 0 543.6 47.4" style="enable-background:new 0 0 543.6 47.4;" xml:space="preserve">
<style type="text/css">
	.st0{fill-rule:evenodd;clip-rule:evenodd;fill:#FFFFFF;}
</style>
<path id="PROTECT_UV_" class="st0" d="M0,1v45.4h8.8V29.6h5.7c5.2,0,9-1.5,11.5-4c3.5-3.5,3.7-8.4,3.7-10.1
	c0.1-4.1-1.6-8.1-4.6-10.9C21.8,1.6,18.3,1,13.2,1L0,1L0,1z M8.8,8.6h3.1c2.1,0,4.4,0.1,6.3,1.4c1.6,1.2,2.6,3.1,2.5,5.2
	c0,2-0.9,4-2.4,5.3c-1.7,1.1-3.7,1.6-5.8,1.4H8.8L8.8,8.6L8.8,8.6z M36.3,1v45.4h8.8V28.2h1.1l12.1,18.2h11L55.2,27.3
	c1.8-0.3,3.5-1,5-2c3.5-2.4,5.5-6.4,5.3-10.7C65.6,10.7,64,7,61,4.4C58.9,2.7,55.7,1,49.4,1L36.3,1L36.3,1z M45.2,8.2h2.7
	c1.6,0,8.6,0.1,8.6,6.8c0,6.7-7,6.9-8.7,6.9h-2.5L45.2,8.2L45.2,8.2z M96,0C82.4,0,73,9.9,73,23.7s9.4,23.7,23,23.7s23-9.9,23-23.7
	S109.6,0,96,0L96,0z M96,39.4c-8.4,0-14.3-6.5-14.3-15.6S87.6,8,96,8s14.3,6.5,14.3,15.7S104.4,39.4,96,39.4L96,39.4z M151.5,8.6V1
	h-29.2v7.6h10.2v37.7h8.8V8.6L151.5,8.6L151.5,8.6z M185,1h-25.2v45.4H185v-7.6h-16.3V26.4h15.6v-7.6h-15.6V8.6H185L185,1L185,1z
	 M227.8,34.4c-2.6,3.2-6.5,5-10.6,5c-7.6,0-15.4-5.4-15.4-15.5c0-8.4,5.9-15.8,15-15.8c4.2,0,8.2,1.9,11,5.1V2.8
	c-3.4-1.9-7.3-2.8-11.2-2.8c-6.5,0-12.1,1.7-16.7,6c-3.9,3.6-7.3,9.5-7.3,17.8c-0.2,6.6,2.4,12.9,7.3,17.3c3.8,3.6,8.6,6.3,16.6,6.3
	c3.9,0.1,7.8-0.8,11.2-2.7L227.8,34.4L227.8,34.4z M263.9,8.6V1h-29.2v7.6h10.2v37.7h8.8V8.6L263.9,8.6L263.9,8.6z M286.7,1v27.7
	c0,4.3,0.7,8.6,3.4,12.1c3.3,4.3,9,6.5,14.8,6.5s11.6-2.2,14.8-6.5c2.7-3.5,3.4-7.8,3.4-12.1V1h-8.8v28.5c0.1,2.4-0.6,4.8-2.2,6.7
	c-3.7,4-10,4.2-14,0.5c-0.2-0.2-0.3-0.3-0.5-0.5c-1.5-1.9-2.3-4.3-2.2-6.7V1H286.7L286.7,1z M331.2,1l19,45.4h5.3L374.7,1H365
	l-12.1,30.5L340.8,1H331.2L331.2,1z M412.4,8.9c-2-3.9-6.1-6.2-10.5-6.1c-7.7,0-11,5.7-11,10.7c0,1.7,0.5,3.4,1.4,4.9
	c1.5,2.5,3.6,3.6,7.9,5.7c3.6,1.7,6.1,3,7.3,3.7c3.3,2,4.2,4.5,4.2,6.8c0,5.7-4.6,9.9-10.4,9.9c-3.1,0-6.1-1.3-8.1-3.7
	c-1-1.2-1.8-2.6-2.3-4.1l-2.5,1.2c0.6,1.7,1.6,3.3,2.8,4.7c2.4,3,6.1,4.7,10,4.5c7.4,0,13.4-5.4,13.4-12.6c0.1-3.4-1.7-6.6-4.6-8.3
	c-2.2-1.6-4.3-2.5-8.6-4.5c-4.3-2.1-7.6-3.7-7.6-8.3c-0.2-4.2,3.1-7.8,7.3-8c0.2,0,0.5,0,0.7,0c3.6,0,6.9,2,8.5,5.3L412.4,8.9z
	 M432.1,25.9c7.4,0,12.5-4.2,12.5-11.4c0-7.4-5.6-11.2-12.6-11.2h-8.3v43.1h2.8V25.9H432.1L432.1,25.9z M426.5,5.9h5.2
	c6.3,0,9.9,3.4,9.9,8.7c0,5.4-3.8,8.7-9.4,8.7h-5.7V5.9L426.5,5.9z M473.7,46.4L459.6,26c1.8,0,3.6-0.3,5.3-0.8
	c5.4-1.8,7.2-6.2,7.2-10.5c0.2-3.6-1.5-7.1-4.5-9.2c-2.8-1.9-5.8-2.2-9.1-2.2h-6.2v43.1h2.8V26h1.3l14,20.3L473.7,46.4L473.7,46.4z
	 M455.2,5.9h3.6c1.7,0,4.8,0.3,6.6,1.3c1.7,0.9,3.8,3.2,3.8,7.5c0,5.6-3.7,8.8-9.8,8.8h-4.1V5.9L455.2,5.9z M512.4,46.4h3.1L497.6,2
	l-18.1,44.4h3.1l5.7-14.1h18.3L512.4,46.4z M489.3,29.7l8.2-20.4l8.1,20.4H489.3z M526.3,46.4h2.8V28l14.5-24.7h-3.2l-12.7,21.8
	L515.3,3.3h-3.2L526.3,28L526.3,46.4L526.3,46.4z"/>
</svg>
