<svg width="16" height="16" viewBox="0 0 16 16" fill="none" xmlns="http://www.w3.org/2000/svg">
<path d="M2.65142 6.56001C2.67824 6.22588 2.82993 5.91411 3.07627 5.68679C3.32262 5.45947 3.64555 5.33327 3.98076 5.33334H12.0194C12.3546 5.33327 12.6776 5.45947 12.9239 5.68679C13.1703 5.91411 13.3219 6.22588 13.3488 6.56001L13.8841 13.2267C13.8988 13.4101 13.8754 13.5947 13.8153 13.7686C13.7552 13.9426 13.6598 14.1022 13.535 14.2375C13.4101 14.3728 13.2587 14.4807 13.0901 14.5546C12.9215 14.6285 12.7395 14.6666 12.5554 14.6667H3.44476C3.2607 14.6666 3.07866 14.6285 2.91008 14.5546C2.74149 14.4807 2.59003 14.3728 2.46522 14.2375C2.34041 14.1022 2.24496 13.9426 2.18487 13.7686C2.12478 13.5947 2.10137 13.4101 2.11609 13.2267L2.65142 6.56001V6.56001Z" stroke="#00B4A4" stroke-width="1.5" stroke-linecap="round" stroke-linejoin="round"/>
<path d="M10.6668 7.33334V4.00001C10.6668 3.29277 10.3859 2.61449 9.88578 2.11439C9.38568 1.6143 8.70741 1.33334 8.00016 1.33334C7.29292 1.33334 6.61464 1.6143 6.11454 2.11439C5.61445 2.61449 5.3335 3.29277 5.3335 4.00001V7.33334" stroke="#00B4A4" stroke-width="1.5" stroke-linecap="round" stroke-linejoin="round"/>
</svg>
