<svg width="96" height="17" viewBox="0 0 96 17" fill="none" xmlns="http://www.w3.org/2000/svg">
<path d="M0 15.4887C0 15.1238 0.0946079 14.84 0.290581 14.6508C0.479797 14.4615 0.783894 14.3467 1.19611 14.3196L1.9327 14.2723C2.56117 14.2453 3.03421 14.0426 3.35858 13.6776C3.68295 13.3127 3.83838 12.7518 3.83838 12.0017V1.72326C3.83838 1.27725 3.97353 0.925849 4.24384 0.655541C4.51415 0.385232 4.86555 0.256836 5.31156 0.256836C5.75757 0.256836 6.136 0.39199 6.40631 0.655541C6.67662 0.919091 6.81177 1.27725 6.81177 1.72326V11.995C6.81177 14.8873 5.37914 16.4415 2.51387 16.6578L1.77728 16.7051C0.594678 16.7524 0.00675771 16.3469 0.00675771 15.4887H0Z" fill="white"/>
<path d="M10.2244 2.62875C9.92032 2.34493 9.76489 1.97325 9.76489 1.51373C9.76489 1.0542 9.92032 0.689286 10.2244 0.41222C10.5285 0.135154 10.9475 0 11.4678 0C11.9882 0 12.3869 0.135154 12.6977 0.41222C13.0086 0.689286 13.1708 1.0542 13.1708 1.51373C13.1708 1.97325 13.0154 2.34493 12.7113 2.62875C12.4072 2.91257 11.9949 3.05448 11.4678 3.05448C10.9407 3.05448 10.5353 2.91257 10.2244 2.62875ZM10.4407 16.3469C10.1704 16.1104 10.0352 15.7657 10.0352 15.3265V6.45361C10.0352 6.0076 10.1704 5.66972 10.4407 5.43996C10.711 5.21019 11.0489 5.09531 11.4611 5.09531C11.8733 5.09531 12.2179 5.21019 12.495 5.43996C12.7721 5.66972 12.9072 6.0076 12.9072 6.45361V15.3197C12.9072 15.7657 12.7721 16.1036 12.495 16.3401C12.2179 16.5767 11.8733 16.6983 11.4611 16.6983C11.0489 16.6983 10.7042 16.5767 10.4407 16.3401V16.3469Z" fill="white"/>
<path d="M32.0383 6.14276C32.6871 6.87259 33.0182 8.04843 33.0182 9.67028V15.3197C33.0182 15.7657 32.883 16.1036 32.6195 16.3401C32.3492 16.5767 32.0045 16.6983 31.572 16.6983C31.1395 16.6983 30.8152 16.5767 30.5516 16.3401C30.2813 16.1036 30.1462 15.759 30.1462 15.3197V9.67028C30.1462 8.82557 29.9975 8.22413 29.7002 7.86597C29.4028 7.50781 28.9433 7.32536 28.3351 7.32536C27.585 7.32536 26.9836 7.58215 26.5443 8.09573C26.0983 8.60932 25.8753 9.31212 25.8753 10.1974V15.3197C25.8753 15.7657 25.7401 16.1036 25.4766 16.3401C25.2063 16.5767 24.8684 16.6983 24.4562 16.6983C24.0439 16.6983 23.6993 16.5767 23.4222 16.3401C23.1452 16.1036 23.01 15.759 23.01 15.3197V9.67028C23.01 8.82557 22.8613 8.22413 22.564 7.86597C22.2667 7.50781 21.8071 7.32536 21.199 7.32536C20.4488 7.32536 19.8542 7.58215 19.4217 8.09573C18.9824 8.60932 18.7662 9.31212 18.7662 10.1974V15.3197C18.7662 15.7657 18.6243 16.1036 18.354 16.3401C18.0769 16.5767 17.7322 16.6983 17.32 16.6983C16.9078 16.6983 16.5632 16.5767 16.2996 16.3401C16.0293 16.1036 15.9009 15.759 15.9009 15.3197V6.43334C15.9009 6.0076 16.0361 5.67648 16.3131 5.44671C16.5902 5.21695 16.9348 5.10207 17.3471 5.10207C17.7593 5.10207 18.0701 5.21019 18.3202 5.4332C18.577 5.6562 18.6986 5.97381 18.6986 6.38603V6.94017C19.05 6.32522 19.523 5.85893 20.111 5.54132C20.6989 5.21695 21.3814 5.06152 22.145 5.06152C23.8277 5.06152 24.9562 5.76433 25.5239 7.17669C25.8618 6.5347 26.3551 6.02112 27.0173 5.63593C27.6796 5.25074 28.4162 5.06152 29.2474 5.06152C30.4705 5.06152 31.4099 5.42644 32.0586 6.15627L32.0383 6.14276Z" fill="white"/>
<path d="M38.3095 16.2321C37.262 15.8875 36.4241 15.4212 35.7956 14.84C35.5658 14.6238 35.451 14.3602 35.451 14.0358C35.451 13.8196 35.5118 13.6371 35.6334 13.475C35.7551 13.3128 35.9037 13.2317 36.0727 13.2317C36.2686 13.2317 36.4849 13.3128 36.7147 13.4817C38.1405 14.5832 39.7624 15.1373 41.587 15.1373C42.9047 15.1373 43.9184 14.8873 44.6212 14.3805C45.324 13.8737 45.6754 13.1573 45.6754 12.218C45.6754 11.6842 45.5064 11.2517 45.1685 10.9205C44.8307 10.5894 44.3847 10.3259 43.8373 10.1299C43.2831 9.93391 42.5398 9.72442 41.6072 9.50818C40.3503 9.2176 39.3231 8.9135 38.519 8.58913C37.7148 8.26476 37.0661 7.80523 36.566 7.21056C36.0659 6.61588 35.8226 5.83198 35.8226 4.86563C35.8226 3.89928 36.0727 3.1289 36.566 2.41934C37.0661 1.70978 37.7621 1.15565 38.6541 0.763702C39.5529 0.371755 40.5733 0.175781 41.7221 0.175781C42.7966 0.175781 43.7967 0.337966 44.7225 0.669094C45.6483 1.00022 46.4255 1.4665 47.0539 2.08146C47.2972 2.32473 47.4189 2.59504 47.4189 2.88562C47.4189 3.10187 47.358 3.29109 47.2364 3.44651C47.1148 3.6087 46.9661 3.68979 46.7972 3.68979C46.6282 3.68979 46.4052 3.6087 46.1281 3.43975C45.378 2.8248 44.682 2.39907 44.04 2.15579C43.398 1.91251 42.6209 1.79087 41.7221 1.79087C40.4517 1.79087 39.465 2.05442 38.7622 2.58153C38.0594 3.10863 37.708 3.85197 37.708 4.79805C37.708 5.60898 38.0189 6.21717 38.6406 6.62264C39.2623 7.0281 40.2151 7.38626 41.4991 7.69035C42.8912 8.02824 43.9859 8.33909 44.7834 8.62292C45.5808 8.90674 46.243 9.33248 46.7701 9.90012C47.2972 10.4678 47.5608 11.2246 47.5608 12.1775C47.5608 13.1303 47.3107 13.8804 46.8107 14.5697C46.3106 15.259 45.6146 15.7928 44.709 16.178C43.8035 16.5632 42.7696 16.7524 41.6072 16.7524C40.4449 16.7524 39.3569 16.5767 38.3095 16.2321Z" fill="white"/>
<path d="M63.3332 0.513551C63.4954 0.689251 63.5765 0.925771 63.5765 1.21635V15.7184C63.5765 16.009 63.4954 16.2455 63.3332 16.4212C63.171 16.5969 62.948 16.6847 62.6574 16.6847C62.3669 16.6847 62.1371 16.5969 61.9682 16.4212C61.7992 16.2455 61.7114 16.009 61.7114 15.7184V9.14314H52.0141V15.7116C52.0141 16.0022 51.933 16.2387 51.764 16.4144C51.5951 16.5901 51.3653 16.678 51.0747 16.678C50.7842 16.678 50.5611 16.5901 50.399 16.4144C50.2368 16.2387 50.1557 16.0022 50.1557 15.7116V1.21635C50.1557 0.925771 50.2368 0.689251 50.399 0.513551C50.5611 0.33785 50.7842 0.25 51.0747 0.25C51.3653 0.25 51.5951 0.33785 51.764 0.513551C51.933 0.689251 52.0141 0.925771 52.0141 1.21635V7.53481H61.7114V1.21635C61.7114 0.925771 61.7925 0.689251 61.9682 0.513551C62.1371 0.33785 62.3669 0.25 62.6574 0.25C62.948 0.25 63.1778 0.33785 63.3332 0.513551Z" fill="white"/>
<path d="M69.9693 15.7387C68.8611 15.0629 68.0028 14.1101 67.4081 12.8667C66.8135 11.6233 66.5094 10.1636 66.5094 8.48092C66.5094 6.79825 66.8067 5.30479 67.3946 4.06138C67.9826 2.81796 68.834 1.85836 69.9423 1.18935C71.0506 0.520337 72.3683 0.189209 73.882 0.189209C75.3958 0.189209 76.7135 0.520337 77.8218 1.18935C78.93 1.85836 79.7815 2.8112 80.3694 4.06138C80.9574 5.31155 81.2547 6.77798 81.2547 8.46065C81.2547 10.1433 80.9574 11.6097 80.3559 12.8599C79.7612 14.1101 78.903 15.0697 77.7947 15.7455C76.6865 16.4212 75.3755 16.7591 73.8753 16.7591C72.3751 16.7591 71.0708 16.4212 69.9558 15.7455L69.9693 15.7387ZM77.8961 13.4073C78.8557 12.2517 79.3287 10.6028 79.3287 8.45389C79.3287 6.30494 78.8557 4.66281 77.9029 3.514C76.95 2.36519 75.612 1.79079 73.882 1.79079C72.1521 1.79079 70.8275 2.37195 69.8747 3.52752C68.9151 4.68309 68.4421 6.32521 68.4421 8.45389C68.4421 10.5826 68.9219 12.2314 69.8747 13.3938C70.8343 14.5561 72.1656 15.1373 73.882 15.1373C75.5985 15.1373 76.9365 14.5629 77.8894 13.4005L77.8961 13.4073Z" fill="white"/>
<path d="M84.4578 16.4145C84.2889 16.2388 84.2078 16.0023 84.2078 15.7117V1.28404C84.2078 1.00697 84.2957 0.783968 84.4714 0.615025C84.6471 0.446083 84.8836 0.36499 85.1742 0.36499H90.6209C92.3238 0.36499 93.6416 0.777211 94.5877 1.60841C95.527 2.43285 96 3.60869 96 5.12242C96 6.63614 95.527 7.81874 94.5741 8.66346C93.6213 9.50817 92.3103 9.92715 90.6209 9.92715H86.0932V15.7185C86.0932 16.0091 86.0121 16.2456 85.8432 16.4213C85.6742 16.597 85.4445 16.6849 85.1539 16.6849C84.8633 16.6849 84.6335 16.597 84.4646 16.4213L84.4578 16.4145ZM90.4317 8.35936C92.8982 8.35936 94.1281 7.27813 94.1281 5.12242C94.1281 2.96671 92.8915 1.92602 90.4317 1.92602H86.0865V8.36612H90.4317V8.35936Z" fill="white"/>
</svg>
