<svg width="130" height="23" viewBox="0 0 130 23" fill="none" xmlns="http://www.w3.org/2000/svg">
<path d="M0 20.9743C0 20.4801 0.128115 20.0958 0.393496 19.8395C0.649725 19.5833 1.06152 19.4277 1.61974 19.3911L2.6172 19.3271C3.46825 19.2905 4.10883 19.0159 4.54808 18.5218C4.98733 18.0276 5.1978 17.2681 5.1978 16.2523V2.33356C5.1978 1.72959 5.38083 1.25373 5.74687 0.887691C6.11291 0.521649 6.58877 0.347778 7.19274 0.347778C7.79671 0.347778 8.30917 0.5308 8.67521 0.887691C9.04125 1.24458 9.22427 1.72959 9.22427 2.33356V16.2432C9.22427 20.1598 7.28425 22.2646 3.4042 22.5574L2.40673 22.6215C0.805294 22.6855 0.00915106 22.1365 0.00915106 20.9743H0Z" fill="#666666"/>
<path d="M13.8455 3.55976C13.4337 3.17542 13.2233 2.67211 13.2233 2.04984C13.2233 1.42757 13.4337 0.933408 13.8455 0.558215C14.2573 0.183021 14.8247 0 15.5293 0C16.234 0 16.7739 0.183021 17.1948 0.558215C17.6158 0.933408 17.8354 1.42757 17.8354 2.04984C17.8354 2.67211 17.6249 3.17542 17.2131 3.55976C16.8013 3.94411 16.2431 4.13628 15.5293 4.13628C14.8156 4.13628 14.2665 3.94411 13.8455 3.55976ZM14.1384 22.1364C13.7723 21.8161 13.5893 21.3494 13.5893 20.7546V8.73927C13.5893 8.13529 13.7723 7.67774 14.1384 7.36661C14.5044 7.05547 14.962 6.8999 15.5202 6.8999C16.0784 6.8999 16.5451 7.05547 16.9203 7.36661C17.2955 7.67774 17.4785 8.13529 17.4785 8.73927V20.7455C17.4785 21.3494 17.2955 21.807 16.9203 22.1273C16.5451 22.4476 16.0784 22.6123 15.5202 22.6123C14.962 22.6123 14.4953 22.4476 14.1384 22.1273V22.1364Z" fill="#666666"/>
<path d="M43.3852 8.3183C44.2637 9.30661 44.7121 10.8989 44.7121 13.0952V20.7454C44.7121 21.3494 44.5291 21.807 44.1722 22.1273C43.8062 22.4475 43.3395 22.6123 42.7538 22.6123C42.1681 22.6123 41.7289 22.4475 41.372 22.1273C41.0059 21.807 40.8229 21.3403 40.8229 20.7454V13.0952C40.8229 11.9513 40.6216 11.1368 40.2189 10.6518C39.8163 10.1668 39.194 9.91973 38.3704 9.91973C37.3547 9.91973 36.5402 10.2675 35.9454 10.963C35.3414 11.6584 35.0394 12.6101 35.0394 13.8089V20.7454C35.0394 21.3494 34.8564 21.807 34.4995 22.1273C34.1335 22.4475 33.6759 22.6123 33.1177 22.6123C32.5595 22.6123 32.0928 22.4475 31.7176 22.1273C31.3424 21.807 31.1594 21.3403 31.1594 20.7454V13.0952C31.1594 11.9513 30.9581 11.1368 30.5554 10.6518C30.1528 10.1668 29.5305 9.91973 28.7069 9.91973C27.6911 9.91973 26.8858 10.2675 26.3002 10.963C25.7054 11.6584 25.4125 12.6101 25.4125 13.8089V20.7454C25.4125 21.3494 25.2203 21.807 24.8543 22.1273C24.4791 22.4475 24.0124 22.6123 23.4542 22.6123C22.896 22.6123 22.4293 22.4475 22.0724 22.1273C21.7063 21.807 21.5325 21.3403 21.5325 20.7454V8.71179C21.5325 8.13528 21.7155 7.68687 22.0907 7.37574C22.4659 7.0646 22.9326 6.90903 23.4908 6.90903C24.049 6.90903 24.47 7.05545 24.8086 7.35743C25.1563 7.65942 25.321 8.08952 25.321 8.64773V9.39812C25.7969 8.56538 26.4374 7.93395 27.2336 7.50385C28.0297 7.0646 28.954 6.85413 29.9881 6.85413C32.2667 6.85413 33.7949 7.80584 34.5636 9.71841C35.0211 8.84906 35.6892 8.15358 36.586 7.63197C37.4828 7.11036 38.4802 6.85413 39.6058 6.85413C41.2622 6.85413 42.5342 7.34828 43.4127 8.3366L43.3852 8.3183Z" fill="#666666"/>
<path d="M51.8774 21.9808C50.459 21.5141 49.3242 20.8827 48.4732 20.0957C48.162 19.8029 48.0065 19.446 48.0065 19.0067C48.0065 18.7139 48.0888 18.4668 48.2535 18.2472C48.4183 18.0276 48.6196 17.9178 48.8484 17.9178C49.1138 17.9178 49.4066 18.0276 49.7177 18.2564C51.6486 19.748 53.8448 20.4984 56.3156 20.4984C58.1001 20.4984 59.4728 20.1598 60.4245 19.4734C61.3762 18.7871 61.852 17.8171 61.852 16.5451C61.852 15.8222 61.6232 15.2365 61.1657 14.7881C60.7081 14.3397 60.1042 13.9828 59.3629 13.7174C58.6126 13.452 57.6059 13.1684 56.3431 12.8755C54.641 12.482 53.25 12.0702 52.1611 11.631C51.0721 11.1917 50.1936 10.5695 49.5164 9.76417C48.8392 8.95888 48.5098 7.89735 48.5098 6.58875C48.5098 5.28015 48.8484 4.23693 49.5164 3.27607C50.1936 2.31521 51.1361 1.56482 52.3441 1.03406C53.5612 0.503296 54.943 0.237915 56.4987 0.237915C57.9537 0.237915 59.308 0.457541 60.5617 0.905943C61.8154 1.35434 62.8678 1.98577 63.7188 2.81851C64.0483 3.14795 64.213 3.514 64.213 3.90749C64.213 4.20033 64.1306 4.45656 63.9659 4.66703C63.8012 4.88666 63.5999 4.99647 63.3711 4.99647C63.1423 4.99647 62.8403 4.88665 62.4652 4.65788C61.4494 3.82513 60.5068 3.24861 59.6375 2.91918C58.7681 2.58974 57.7157 2.42502 56.4987 2.42502C54.7783 2.42502 53.4422 2.78191 52.4905 3.49569C51.5388 4.20948 51.0629 5.21609 51.0629 6.49724C51.0629 7.59537 51.4839 8.41897 52.3258 8.96803C53.1677 9.51709 54.458 10.0021 56.1967 10.4139C58.0818 10.8715 59.5643 11.2924 60.6441 11.6767C61.7239 12.0611 62.6207 12.6376 63.3345 13.4063C64.0483 14.175 64.4052 15.1999 64.4052 16.4902C64.4052 17.7805 64.0666 18.7963 63.3894 19.7297C62.7122 20.6631 61.7697 21.386 60.5434 21.9076C59.3172 22.4292 57.9171 22.6855 56.3431 22.6855C54.7691 22.6855 53.2958 22.4475 51.8774 21.9808Z" fill="#00B4A4"/>
<path d="M85.7638 0.695515C85.9834 0.933442 86.0932 1.25373 86.0932 1.64723V21.2854C86.0932 21.6789 85.9834 21.9992 85.7638 22.2371C85.5441 22.475 85.2422 22.594 84.8487 22.594C84.4552 22.594 84.144 22.475 83.9152 22.2371C83.6865 21.9992 83.5675 21.6789 83.5675 21.2854V12.3814H70.4357V21.2763C70.4357 21.6698 70.3259 21.99 70.0971 22.228C69.8684 22.4659 69.5572 22.5849 69.1637 22.5849C68.7702 22.5849 68.4683 22.4659 68.2486 22.228C68.029 21.99 67.9192 21.6698 67.9192 21.2763V1.64723C67.9192 1.25373 68.029 0.933442 68.2486 0.695515C68.4683 0.457587 68.7702 0.338623 69.1637 0.338623C69.5572 0.338623 69.8684 0.457587 70.0971 0.695515C70.3259 0.933442 70.4357 1.25373 70.4357 1.64723V10.2035H83.5675V1.64723C83.5675 1.25373 83.6773 0.933442 83.9152 0.695515C84.144 0.457587 84.4552 0.338623 84.8487 0.338623C85.2422 0.338623 85.5533 0.457587 85.7638 0.695515Z" fill="#00B4A4"/>
<path d="M94.7501 21.3128C93.2493 20.3977 92.0871 19.1074 91.2819 17.4236C90.4766 15.7398 90.0648 13.7632 90.0648 11.4846C90.0648 9.20597 90.4674 7.18358 91.2636 5.49978C92.0597 3.81599 93.2127 2.51654 94.7135 1.61058C96.2143 0.704628 97.9987 0.256226 100.049 0.256226C102.098 0.256226 103.883 0.704628 105.384 1.61058C106.884 2.51654 108.037 3.80684 108.834 5.49978C109.63 7.19273 110.032 9.17851 110.032 11.4571C110.032 13.7357 109.63 15.7215 108.815 17.4145C108.01 19.1074 106.848 20.4069 105.347 21.322C103.846 22.2371 102.071 22.6946 100.039 22.6946C98.0079 22.6946 96.2417 22.2371 94.7318 21.322L94.7501 21.3128ZM105.484 18.1557C106.784 16.5909 107.424 14.358 107.424 11.448C107.424 8.53794 106.784 6.31423 105.493 4.75855C104.203 3.20287 102.391 2.42503 100.049 2.42503C97.7059 2.42503 95.9123 3.21202 94.622 4.77685C93.3225 6.34168 92.682 8.56539 92.682 11.448C92.682 14.3306 93.3317 16.5634 94.622 18.1374C95.9214 19.7114 97.7242 20.4984 100.049 20.4984C102.373 20.4984 104.185 19.7205 105.475 18.1466L105.484 18.1557Z" fill="#00B4A4"/>
<path d="M114.37 22.2279C114.141 21.99 114.031 21.6697 114.031 21.2762V1.73869C114.031 1.36349 114.15 1.06151 114.388 0.83273C114.626 0.603953 114.946 0.494141 115.34 0.494141H122.716C125.022 0.494141 126.806 1.05236 128.087 2.17794C129.359 3.29437 130 4.88665 130 6.93649C130 8.98633 129.359 10.5878 128.069 11.7316C126.779 12.8755 125.004 13.4429 122.716 13.4429H116.585V21.2854C116.585 21.6789 116.475 21.9991 116.246 22.2371C116.017 22.475 115.706 22.594 115.313 22.594C114.919 22.594 114.608 22.475 114.379 22.2371L114.37 22.2279ZM122.46 11.3198C125.8 11.3198 127.465 9.85568 127.465 6.93649C127.465 4.0173 125.79 2.60804 122.46 2.60804H116.575V11.329H122.46V11.3198Z" fill="#00B4A4"/>
</svg>
