<svg width="80" height="80" viewBox="0 0 80 80" fill="none" xmlns="http://www.w3.org/2000/svg">
<path d="M40 70C56.5685 70 70 56.5685 70 40C70 23.4315 56.5685 10 40 10C23.4315 10 10 23.4315 10 40C10 56.5685 23.4315 70 40 70Z" stroke="#00B4A4" stroke-width="4" stroke-miterlimit="10"/>
<path d="M57.5 30L47.5 40" stroke="#00B4A4" stroke-width="4" stroke-linecap="round" stroke-linejoin="round"/>
<path d="M57.5 40L47.5 30" stroke="#00B4A4" stroke-width="4" stroke-linecap="round" stroke-linejoin="round"/>
<path d="M32.5 30L22.5 40" stroke="#00B4A4" stroke-width="4" stroke-linecap="round" stroke-linejoin="round"/>
<path d="M32.5 40L22.5 30" stroke="#00B4A4" stroke-width="4" stroke-linecap="round" stroke-linejoin="round"/>
<path d="M40 60C42.0711 60 43.75 58.3211 43.75 56.25C43.75 54.1789 42.0711 52.5 40 52.5C37.9289 52.5 36.25 54.1789 36.25 56.25C36.25 58.3211 37.9289 60 40 60Z" fill="#00B4A4"/>
</svg>
