<?xml version="1.0" encoding="utf-8"?>
<!-- Generator: Adobe Illustrator 26.0.3, SVG Export Plug-In . SVG Version: 6.00 Build 0)  -->
<svg version="1.1" id="head-block-03.svg" xmlns="http://www.w3.org/2000/svg" xmlns:xlink="http://www.w3.org/1999/xlink" x="0px"
	 y="0px" viewBox="0 0 250 87" style="enable-background:new 0 0 250 87;" xml:space="preserve">
<style type="text/css">
	.st0{fill:#D2ECF9;}
	.st1{fill:#1147B4;}
</style>
<rect id="長方形_1367" x="51" y="25" class="st0" width="74" height="10"/>
<rect id="長方形_1367-2" y="77" class="st0" width="250" height="10"/>
<g>
	<g>
		<path class="st1" d="M87.3,17.9c-0.9,3.1-2.3,5.6-4.2,7.6c1.6,1,3.5,1.8,5.6,2.3c-0.8,0.7-1.8,2.1-2.2,3c-2.3-0.7-4.2-1.6-5.9-2.9
			c-1.6,1.2-3.5,2.1-5.4,2.9c-0.4-0.8-1.1-1.9-1.8-2.6v2.7h-3.7v-2.7c-3.7,0.4-7.3,0.8-10.2,1.1L59.2,26c0.9-0.1,1.8-0.1,2.9-0.2V16
			h-2.5v-3h28.6v3H73.3v11.7c1.7-0.5,3.2-1.3,4.6-2.2c-1.2-1.4-2.2-3-3-4.8l2.1-0.6H74v-2.9h10.3L85,17L87.3,17.9z M66.3,12.2h-3.7
			V1.8h22.4v10.3h-3.9V4.5H66.3V12.2z M65.5,16v1.3h4.2V16H65.5z M65.5,21.2h4.2v-1.3h-4.2V21.2z M65.5,25.5
			c1.3-0.1,2.8-0.2,4.2-0.4v-1.3h-4.2V25.5z M80.2,8H67.4V5.7h12.8V8z M67.4,9.2h12.7v2.4H67.4V9.2z M78.1,20.1
			c0.6,1.2,1.3,2.3,2.3,3.2c0.9-1,1.7-2.1,2.3-3.2H78.1z"/>
		<path class="st1" d="M121.6,3.9v3.2H93.3V3.9h12.4c-0.3-0.8-0.5-1.6-0.8-2.2l3.9-1c0.4,1,0.9,2.2,1.3,3.2H121.6z M120.9,27.3
			c0,1.7-0.4,2.3-1.6,2.8c-1.2,0.4-2.9,0.4-5.1,0.4c-0.2-0.8-0.7-1.9-1.1-2.7h-9.2v1.3h-3.5v-8.5h14v7.1h-0.4c1.1,0,2.2,0,2.6,0
			c0.4,0,0.6-0.1,0.6-0.5v-7.8H97.9v11.3h-3.7V16.5h26.7V27.3z M117.8,15.2H97.6V8.3h20.2V15.2z M113.8,10.8h-12.4v1.8h12.4V10.8z
			 M110.9,23.4h-7.1v1.8h7.1V23.4z"/>
		<path class="st1" d="M126.2,5.2l0.7-1.2l-1.2-0.6l0.3-0.8l1.3,0.3l0.1-1.4h0.8l0.1,1.4l1.3-0.3l0.3,0.8L128.7,4l0.7,1.2l-0.7,0.5
			l-0.9-1l-0.9,1L126.2,5.2z"/>
		<path class="st1" d="M131.8,8.8h1.7V4.1h-1.4v-1c0.8-0.1,1.3-0.3,1.8-0.7h1.1v6.3h1.5v1.2h-4.7V8.8z"/>
	</g>
</g>
<g>
	<path d="M157.4,11.7V14h-4.1c0.6,0.5,1.2,1.2,1.5,1.6l-1.4,1.3h3v2.3h-8.1v1.3h6.7v2.1h-16.3v-2.1h6.8v-1.3h-8v-2.3h5.7
		c-0.5-0.6-1.4-1.5-2.1-2.1l0.8-0.7H140c-0.7,1-1.4,1.8-2.1,2.5c-0.4-0.5-1.3-1.4-1.8-1.9c1.4-1.1,2.7-2.9,3.4-4.6l2.4,0.7
		c-0.1,0.3-0.3,0.6-0.4,0.9h5.1V14h-3.2c0.6,0.5,1.1,1,1.4,1.4l-1.6,1.4h2.1v-1.1h1.7c-0.3-0.3-0.7-0.5-0.9-0.6
		c1.2-1.2,2.3-3.1,2.9-5.1l2.5,0.6c-0.1,0.3-0.2,0.7-0.3,1.1H157.4z M152.7,24.1h4.3v2.2h-4.3v2.8c0,1.3-0.3,1.9-1.3,2.1
		c-1,0.3-2.4,0.3-4.3,0.3c-0.1-0.7-0.4-1.5-0.7-2.2c1.1,0.1,2.6,0.1,2.9,0c0.3,0,0.5-0.1,0.5-0.4v-2.7h-7.1c1.1,0.9,2.3,2,3,2.8
		l-2,1.6c-0.7-0.9-2.3-2.4-3.5-3.4l1.3-0.9h-5v-2.2h13.2V23h2.8V24.1z M152.7,16.8c-0.5-0.6-1.3-1.5-1.9-2.1l0.9-0.8H150
		c-0.5,1-1.2,1.9-1.8,2.6v0.2H152.7z"/>
	<path d="M163.3,25.6c-0.2,2-0.5,4.2-1,5.6c-0.5-0.3-1.5-0.6-2-0.7c0.5-1.3,0.8-3.4,0.9-5.2L163.3,25.6z M160.3,16.9
		c0.5-0.1,0.8-0.5,1.3-1.2c0.5-0.6,1.9-3.1,2.7-5.5l2.5,1c-0.8,1.9-1.9,3.8-3.1,5.4l1.6-0.1c0.6-1,1.2-2,1.6-3l2.3,1.4
		c-1.3,2.3-3,4.7-4.8,6.7l2.4-0.3c-0.2-0.5-0.4-1.1-0.6-1.5l1.8-0.7c0.7,1.4,1.4,3.3,1.6,4.5l-2,0.8c0-0.3-0.1-0.7-0.2-1.1
		c-4.8,0.9-5.7,1.1-6.2,1.3c-0.1-0.5-0.5-1.7-0.9-2.4c0.6-0.2,1.1-0.7,1.9-1.5c0.3-0.3,0.8-1,1.5-1.9c-1.8,0.2-2.3,0.3-2.7,0.5
		C161,18.7,160.5,17.5,160.3,16.9z M165.6,25.1c0.3,1.5,0.5,3.3,0.6,4.5l-2,0.5c0-1.2-0.3-3.2-0.5-4.6L165.6,25.1z M181.1,18.1
		c-0.6,3.4-1.6,6.3-3,8.6c1,1.1,2.1,1.9,3.5,2.5c-0.6,0.5-1.4,1.5-1.8,2.3c-1.3-0.7-2.4-1.5-3.3-2.6c-1,1.1-2.1,2-3.3,2.7
		c-0.4-0.6-1.1-1.6-1.7-2c1.2-0.7,2.4-1.7,3.4-2.9c-0.7-1.2-1.3-2.5-1.8-3.9c-0.5,3.5-1.3,6.4-2.8,8.7c-0.4-0.4-1.7-1.3-2.3-1.7
		c0.4-0.5,0.7-1,1-1.6l-1.6,0.6c-0.2-1-0.6-2.5-1.1-3.7l1.8-0.6c0.4,1,0.8,2.3,1.1,3.2c1.5-3.5,1.9-8.4,1.9-14h-1.9v-2.5h7.8
		l0.4-0.1l1.9,0.3c-0.2,2-0.6,4.3-1,6.3h0.8l0.4-0.1L181.1,18.1z M173.6,13.7c0,1.3-0.1,2.6-0.1,3.9h2.1c0.3-1.2,0.5-2.6,0.7-3.9
		H173.6z M174.6,20c0.4,1.6,1,3,1.8,4.3c0.7-1.3,1.3-2.8,1.7-4.3H174.6z"/>
	<path d="M204.9,13.8c0,0,0,0.9,0,1.2c-0.3,10.2-0.5,13.9-1.5,15.1c-0.6,0.8-1.3,1.1-2.2,1.3c-0.9,0.1-2.2,0.1-3.6,0
		c0-0.8-0.4-1.9-0.9-2.7c1.5,0.1,2.8,0.1,3.4,0.1c0.5,0,0.7-0.1,1-0.4c0.7-0.7,1-4.2,1.2-12.2h-4.9c-0.6,1.4-1.3,2.6-2,3.6
		c-0.4-0.3-1.1-0.9-1.8-1.3v10.7h-6.1v1.7h-2.5v-17h2.6c0.3-1.1,0.6-2.6,0.7-3.7l3,0.4c-0.4,1.1-0.8,2.3-1.2,3.3h3.5v3.7
		c1.3-1.9,2.4-4.7,3.1-7.4l2.6,0.6c-0.3,1-0.5,1.9-0.9,2.9H204.9z M191.2,16.3h-3.6V20h3.6V16.3z M191.2,26.8v-4.5h-3.6v4.5H191.2z
		 M198.8,25.6c-0.6-1.4-2.1-3.6-3.2-5.3l2.1-1.2c1.1,1.6,2.7,3.7,3.4,5.1L198.8,25.6z"/>
</g>
<g>
	<path class="st1" d="M30.7,68.8c2.3,1.9,5.2,4.6,6.7,6.5l-3.4,1.5c-0.5-0.7-1.3-1.6-2.1-2.6l-7,0.5v3.9c0,1.7-0.4,2.5-1.7,3.1
		c-1.3,0.5-3,0.5-5.2,0.5c-0.2-1.1-0.8-2.4-1.3-3.3c1.5,0.1,3.3,0,3.8,0c0.5,0,0.6-0.1,0.6-0.5v-3.5c-7.5,0.6-8.9,0.8-9.9,1.2
		c-0.1-0.6-0.6-2.3-1-3.3c1.3-0.1,2.5-0.5,4.4-1.2c0.9-0.3,2.7-1,4.8-2c-5.2,0.4-6.3,0.6-7,0.9c-0.2-0.6-0.6-2.2-0.9-3
		c0.8-0.1,1.6-0.4,2.7-0.8c1-0.4,3.9-1.6,6.4-3.2c-4.5,0.7-9,1.3-12.3,1.8l-0.3-3.4l2-0.2v-7.2h3.4v6.8l2-0.2v-8.9h3.7v2.9h3.9v3
		h-3.9v2.6l4-0.4l0.1,3l-0.9,0.1l2,1.7c-1.2,0.7-2.5,1.3-3.9,1.9l5.1-0.4c1-0.5,2-1.2,2.9-1.8l2.3,2.6c-3,1.8-6.2,3.3-9.5,4.6
		l8.2-0.5c-0.5-0.6-1.1-1.1-1.7-1.6L30.7,68.8z M18.4,77.2c-2,1.7-5,3.5-7.4,4.6c-0.7-0.6-2-1.8-2.9-2.3c2.5-0.9,5.3-2.2,6.9-3.5
		L18.4,77.2z M28.6,64.7c-3.9,0-4.8-1-4.8-4.3v-8h3.8v2.9h8.7v3h-8.7v2.1c0,1,0.2,1.1,1.5,1.1h3.8c1,0,1.3-0.4,1.4-2.2
		c0.8,0.5,2.2,1,3.3,1.2c-0.4,3.3-1.4,4.2-4.3,4.2H28.6z M29.4,75.6c2.5,1.2,5.6,2.9,7.3,4l-3.1,2c-1.7-1.2-4.8-3.1-7.3-4.3
		L29.4,75.6z"/>
	<path class="st1" d="M55.2,56.9l2.7,0.8c-1.5,13-6.2,20.9-13.3,24.6c-0.6-0.9-2.2-2.5-3.2-3.2c3.7-1.7,6.6-4.4,8.7-8.2
		c-1.1-1.3-2.6-3-4.1-4.6c-0.5,0.9-1.1,1.7-1.6,2.4c-0.7-0.6-2.3-1.9-3.2-2.4c2.8-3.2,4.7-8.5,5.7-14l3.9,0.7c-0.3,1.4-0.6,2.7-1,4
		h4.7L55.2,56.9z M48.6,60.6c-0.3,0.8-0.6,1.6-0.9,2.4c1.3,1.3,2.9,2.7,4.1,4.1c0.7-1.9,1.2-4.1,1.6-6.5H48.6z M68.5,71.9
		c-1.1-1.6-3.2-3.9-5.2-6v16.5h-4v-30h4V63l1.4-1c2.2,2.2,5.5,5.3,7,7.3L68.5,71.9z"/>
	<path class="st1" d="M84.1,72.3c-0.1-0.4-0.1-0.9-0.2-1.4c-5.8,0.8-6.9,1.2-7.6,1.5c-0.2-0.7-0.8-2.5-1.3-3.4
		c0.9-0.2,1.6-0.9,2.6-2.1c0.4-0.4,1.1-1.3,1.9-2.5c-2.3,0.3-3,0.5-3.5,0.7c-0.2-0.7-0.8-2.4-1.2-3.3c0.6-0.2,1.2-0.8,1.8-1.7
		c0.6-0.9,2.5-4.4,3.6-7.8l3.5,1.4c-1.1,2.6-2.6,5.3-4.1,7.6l2.1-0.2c0.8-1.4,1.6-2.8,2.3-4.3l3.2,2c-1.2,2.2-2.7,4.5-4.3,6.6
		l2.4-0.7c0.7,2.1,1.5,5,1.7,6.7L84.1,72.3z M79.3,73.9c-0.3,3-0.8,6.1-1.4,8.2c-0.6-0.3-2.1-0.8-2.8-1c0.8-1.9,1.2-4.9,1.3-7.6
		L79.3,73.9z M82.5,73.4c0.4,2.2,0.6,4.9,0.7,6.8l-2.8,0.5c0-1.8-0.3-4.7-0.5-6.8L82.5,73.4z M83.2,68c-0.2-0.8-0.4-1.5-0.6-2.2
		c-0.7,0.9-1.4,1.7-2.1,2.5L83.2,68z M85.5,72.4c0.5,1.4,1.1,3.2,1.3,4.4l-2.6,0.9c-0.2-1.2-0.7-3.1-1.2-4.5L85.5,72.4z M94.4,70.1
		c-1.1,5-3.4,8.7-6.8,10.7c-0.4-0.8-1.4-2-2.1-2.7c2-1.1,3.7-3.2,4.7-5.6h-2.9v-3.1h4.3l0.6-0.1L94.4,70.1z M104.9,70.3
		c-1.5,1.1-2.9,2.4-4.2,3.4c1.3,1.9,2.8,3.5,4.7,4.4c-0.8,0.7-2,2.1-2.5,3c-1.9-1.3-3.4-3.1-4.6-5.4v2.8c0,1.7-0.3,2.6-1.4,3.2
		c-1.1,0.5-2.6,0.6-4.6,0.6c-0.1-1-0.6-2.5-1-3.5c1.2,0.1,2.5,0.1,2.9,0c0.4,0,0.5-0.1,0.5-0.4v-11h-6.1V55.8H93
		c0.4-1.2,0.8-2.4,1-3.4l4.4,0.8c-0.5,0.9-1,1.8-1.4,2.6h6.9v11.7h-5.6v1c0.3,0.9,0.6,1.8,1,2.6c1.1-1,2.1-2.2,2.9-3.1L104.9,70.3z
		 M92,60.2h8.2v-1.6H92V60.2z M92,64.6h8.2v-1.7H92V64.6z"/>
	<path class="st1" d="M120.9,55.1c-0.9,2.8-2,6.4-3,8.9c2.1,2.5,2.4,4.7,2.4,6.6c0,2.1-0.4,3.4-1.5,4.2c-0.5,0.4-1.1,0.6-1.9,0.7
		c-0.6,0.1-1.4,0.1-2.1,0.1c0-1-0.3-2.5-0.9-3.4c0.6,0.1,1.1,0.1,1.4,0c0.4,0,0.7-0.1,1-0.3c0.4-0.3,0.5-0.9,0.5-1.9
		c0-1.5-0.4-3.5-2.3-5.7c0.7-2.1,1.4-5,1.9-7.3h-2.8v25.2h-3.6V53.7h7.6l0.5-0.2L120.9,55.1z M128.1,61c-0.1,1.3-0.1,2.6-0.2,3.8
		h8.8c0,0,0,1.1,0,1.6c-0.3,9.3-0.6,13-1.6,14.2c-0.7,1-1.5,1.3-2.5,1.4c-0.9,0.2-2.5,0.2-4.1,0.1c-0.1-1.1-0.5-2.7-1.2-3.8
		c1.4,0.2,2.7,0.2,3.4,0.2c0.5,0,0.8-0.1,1.1-0.5c0.6-0.6,0.9-3.3,1.1-9.9h-5.2c-0.8,6-2.8,10.8-8.4,13.9c-0.5-0.9-1.6-2.2-2.4-3
		c6.9-3.6,7.4-9.9,7.6-18.3h-4.1v-3.5h7.8c-0.3-1.2-0.8-3-1.3-4.5l3.5-0.8c0.6,1.4,1.3,3.4,1.5,4.5l-2.6,0.8h9.4V61H128.1z"/>
	<path class="st1" d="M150.7,54.1c-1.9,2.1-4.8,4.5-7.2,5.8c-0.3-0.6-0.9-2-1.4-2.6c2-1.1,4.5-3,5.7-4.5L150.7,54.1z M145.7,64.7
		c-0.8,0.5-1.5,1-2.2,1.4c-0.2-0.8-0.8-2.3-1.2-3.1c2.1-1.1,4.7-2.9,5.9-4.4l2.7,1.2V58h4.6v-1.7h-1.7c-0.3,0.4-0.5,0.7-0.7,1
		c-0.6-0.4-1.8-0.9-2.5-1.1c0.9-1.1,1.6-2.5,2-3.9l2.7,0.6c-0.1,0.3-0.2,0.6-0.3,0.9h6.9v2.5h-3.5V58h4.1v2.4h-4.1v1.4h3.7v2.1h-3.7
		v1.5l3.9-0.3c-0.1,0.8-0.1,1.9-0.1,2.4c-9,0.7-10.3,0.9-11.1,1.2c-0.1-0.6-0.5-1.8-0.9-2.4c0.5-0.1,1.1-0.5,1.1-1.6v-3.3h2.5v4.2
		l1.6-0.1v-5.1h-4.6v-0.2c-0.6,0.7-1.3,1.3-2,2v6.2h-3.1V64.7z M172.4,75.8h-7.9c2.5,1.1,5.9,2.6,7.7,3.7l-2,2.7
		c-1.8-1.3-5.5-3.1-8.3-4.3l1.7-2.1h-3.9v6.4h-3.9v-6.4h-5.6l2.5,1c-1.8,2-4.7,4.1-7.1,5.4c-0.5-0.7-1.6-2.2-2.3-2.9
		c2.1-0.8,4.3-2.1,5.8-3.4h-6.4v-2.6h29.7V75.8z M146.7,69.4h21.3V72h-21.3V69.4z M166.2,68.4h-2.9V53.6h8.2v10
		c0,1.2-0.2,1.9-0.9,2.3c-0.7,0.5-1.7,0.5-3,0.5c-0.1-0.8-0.5-1.9-0.9-2.6c0.7,0,1.3,0,1.6,0c0.3,0,0.3-0.1,0.3-0.4v-7.3h-2.4V68.4z
		"/>
	<path class="st1" d="M204.3,61.5c-0.7,4.9-1.9,9-3.7,12.3c1.6,2.3,3.5,4.2,5.8,5.5c-0.9,0.7-2,2.1-2.6,3c-2.1-1.4-3.9-3.1-5.4-5.3
		c-1.8,2.2-4.1,4-6.9,5.4c-0.5-0.7-1.9-2.2-2.6-2.8c3.3-1.4,5.7-3.3,7.5-5.9c-0.9-1.8-1.7-3.7-2.3-5.7c-0.4,0.7-0.9,1.4-1.3,2
		c-0.4-0.7-1.5-2.2-2.2-3l-1.4,0.8c-0.1-0.4-0.3-0.9-0.5-1.4c-0.5,1.8-1.1,3.4-1.8,4.9c1.6,1.9,3.1,3.8,4,5.3l-3,2.4
		c-0.6-1.2-1.6-2.6-2.8-4.2c-1.7,2.7-3.8,5-6.4,6.7c-0.5-0.7-1.8-2.2-2.5-2.8c2.8-1.6,4.9-3.9,6.5-6.8c-1.1-1.2-2.2-2.4-3.2-3.5
		c-0.3,0.4-0.6,0.9-0.9,1.3c-0.6-0.6-1.8-1.8-2.6-2.4c1.6-1.8,3.2-4.6,4.2-7.2l3.2,1c-1,2.3-2.4,4.8-3.7,6.9l2.4-1.8
		c0.7,0.7,1.4,1.4,2.2,2.2c0.4-1.1,0.7-2.2,1-3.4l3,0.6c-0.8-1.4-1.8-3-2.8-4.3l2.3-1.3h-11v-3.4h6.4c-0.4-1.1-1.1-2.3-1.7-3.4
		l3.2-1.2c0.8,1.2,1.7,2.7,2,3.7l-2,0.8h7.4v3.4h-3.7c1.3,1.5,2.5,3.4,3.3,5c1.9-3.4,3.1-8,3.8-12.8l3.5,0.6c-0.2,1.7-0.6,3.4-1,5
		h7.9v3.5H204.3z M196.9,61.5c-0.2,0.7-0.5,1.4-0.7,2c0.6,2.3,1.3,4.5,2.3,6.5c1-2.4,1.7-5.3,2.2-8.6H196.9z"/>
	<path class="st1" d="M229.8,72.6c2.8,2.3,6.7,4.3,10.4,5.4c-0.9,0.8-2,2.3-2.6,3.2c-3.7-1.4-7.6-3.9-10.6-6.8v7.9h-4v-7.7
		c-3,3-6.9,5.5-10.7,6.9c-0.6-0.9-1.7-2.4-2.6-3.2c3.8-1.1,7.8-3.2,10.5-5.6h-9.5v-3.5h12.3v-1.9h-9.2V53.8h22.5v13.4H227v1.9h12.3
		v3.5H229.8z M217.8,59.1h5.2V57h-5.2V59.1z M222.9,64.1V62h-5.2v2.1H222.9z M232.1,57H227v2.1h5.1V57z M232.1,62H227v2.1h5.1V62z"
		/>
</g>
</svg>
