<?xml version="1.0" encoding="utf-8"?>
<!-- Generator: Adobe Illustrator 26.0.3, SVG Export Plug-In . SVG Version: 6.00 Build 0)  -->
<svg version="1.1" id="lead-block-01_sp.svg" xmlns="http://www.w3.org/2000/svg" xmlns:xlink="http://www.w3.org/1999/xlink"
	 x="0px" y="0px" viewBox="0 0 281.1 92.6" style="enable-background:new 0 0 281.1 92.6;" xml:space="preserve">
<style type="text/css">
	.st0{fill:none;stroke:#1147B4;stroke-width:3;stroke-linecap:round;stroke-dasharray:1.000000e-03,6;}
	.st1{fill:#1147B4;}
	.st2{fill:none;}
</style>
<path id="シェイプ_984" class="st0" d="M19.7,34.1h241.5"/>
<path id="シェイプ_984-2" class="st0" d="M18,88.1h247.5"/>
<g>
	<path class="st1" d="M23.3,23.1l2.3-2.8c1.4,1.3,3.3,2.2,5.1,2.2c2.1,0,3.2-0.9,3.2-2.3c0-1.5-1.2-1.9-3-2.7l-2.7-1.1
		c-2-0.8-4-2.5-4-5.4c0-3.3,2.9-5.8,6.9-5.8c2.3,0,4.6,0.9,6.3,2.6l-2,2.5C34,9.3,32.7,8.7,31,8.7c-1.8,0-2.9,0.8-2.9,2.1
		c0,1.4,1.4,1.9,3.1,2.6l2.6,1.1c2.4,1,4,2.5,4,5.4c0,3.3-2.7,6-7.3,6C27.9,26,25.2,25,23.3,23.1z"/>
	<path class="st1" d="M41.3,16.6v-11h4V17c0,4.2,1.5,5.6,3.8,5.6c2.4,0,3.9-1.4,3.9-5.6V5.6h3.8v11c0,6.6-2.8,9.4-7.7,9.4
		C44.2,26,41.3,23.3,41.3,16.6z"/>
	<path class="st1" d="M61.6,5.6h4.1l5.8,10.7l2,4.3h0.1c-0.2-2.1-0.5-4.7-0.5-7v-8h3.8v20h-4l-5.8-10.7l-2-4.3h-0.1
		c0.2,2.2,0.5,4.7,0.5,7v8h-3.8V5.6z"/>
	<path class="st1" d="M80.9,15.7c0-6.6,4.2-10.4,9.3-10.4c2.5,0,4.6,1.2,5.9,2.6l-2.1,2.5c-1-1-2.2-1.7-3.7-1.7
		c-3,0-5.3,2.6-5.3,6.9c0,4.3,2.1,7,5.2,7c1.7,0,3.1-0.8,4.1-2l2.1,2.5C94.7,25,92.6,26,90,26C85,26,80.9,22.4,80.9,15.7z"/>
	<path class="st1" d="M99,16.6v-11h4V17c0,4.2,1.5,5.6,3.8,5.6c2.4,0,3.9-1.4,3.9-5.6V5.6h3.8v11c0,6.6-2.8,9.4-7.7,9.4
		C101.9,26,99,23.3,99,16.6z"/>
	<path class="st1" d="M123.2,9h-5.6V5.6h15.3V9h-5.7v16.7h-4V9z"/>
	<path class="st1" d="M148.9,16.6c-0.2,2.2-0.7,4.2-2,5.9c3.3,1.4,7.6,1.8,13.3,1.9c-0.6,0.8-1.3,2.2-1.5,3.3
		c-5.9-0.3-10.6-0.9-14.2-2.8c-1.8,1.3-4.4,2.4-7.9,3.2c-0.4-0.8-1.2-2.1-1.9-2.9c3.1-0.6,5.3-1.3,7-2.2c-1.5-1.3-2.7-2.9-3.7-5
		l2.9-1.1c0.9,1.6,2,2.9,3.3,4c0.9-1.3,1.3-2.7,1.5-4.3h-8.8v-10h8.8V2.9h3.3v3.8h8.9v10H148.9z M139.8,13.5h5.7V9.7h-5.7V13.5z
		 M148.9,9.7v3.8h5.6V9.7H148.9z"/>
	<path class="st1" d="M186.5,23.4v3.2h-24.5v-3.2h9.7V3.1h3.5v7.7h9.5v3.3h-9.5v9.3H186.5z"/>
	<path class="st1" d="M212.6,17.1c-0.8,2.6-2,4.7-3.5,6.4c1.3,0.9,2.9,1.5,4.7,1.9c-0.6,0.6-1.5,1.8-1.9,2.5c-1.9-0.6-3.6-1.4-5-2.5
		c-1.4,1-2.9,1.8-4.6,2.4c-0.3-0.6-0.9-1.6-1.5-2.2V28h-3.1v-2.3c-3.1,0.3-6.2,0.6-8.6,0.9l-0.3-2.7c0.7-0.1,1.5-0.1,2.4-0.2v-8.3
		h-2.1v-2.5h24.1v2.5h-12.4v9.9c1.4-0.5,2.7-1.1,3.9-1.9c-1-1.2-1.8-2.5-2.5-4l1.8-0.5h-2.6v-2.5h8.7l0.5-0.1L212.6,17.1z
		 M194.9,12.3h-3.1V3.6h18.8v8.7h-3.2V5.8h-12.5V12.3z M194.2,15.5v1.1h3.5v-1.1H194.2z M194.2,19.9h3.5v-1.1h-3.5V19.9z
		 M194.2,23.5c1.1-0.1,2.3-0.2,3.5-0.3v-1.1h-3.5V23.5z M206.5,8.8h-10.7V6.9h10.7V8.8z M195.8,9.8h10.7v2h-10.7V9.8z M204.8,18.9
		c0.5,1,1.1,1.9,1.9,2.7c0.8-0.8,1.4-1.7,1.9-2.7H204.8z"/>
	<path class="st1" d="M225.1,16.3c0,0,0,0.8-0.1,1.2c-0.3,5.8-0.7,8.3-1.5,9.2c-0.6,0.7-1.2,1-2.1,1.1c-0.8,0.1-2,0.1-3.3,0.1
		c-0.1-0.9-0.4-2.1-0.9-2.9c1.1,0.1,2.2,0.1,2.7,0.1c0.4,0,0.6-0.1,0.9-0.3c0.4-0.5,0.7-2,1-5.5h-6.3c0.5-2.3,0.9-6,1.1-8.9h5.2V7.1
		h-5.7V4.2h8.7v9h-5.6c-0.1,1.1-0.2,2.1-0.3,3.1H225.1z M238.3,28.1c-0.1-0.5-0.3-1-0.5-1.6c-4.4,0.4-8.9,0.7-12.3,0.9l-0.4-3.1
		c1.7-0.1,3.8-0.2,6.1-0.3v-3h-5.1v-7.7h5.1v-2.2h3v2.2h5.3v7.7h-1.4c1.2,1.9,2.6,4.3,3,6L238.3,28.1z M238.2,12.2
		c-0.2-0.5-0.5-1.1-0.9-1.7c-8.7,0.8-9.9,0.9-10.8,1.2c-0.2-0.6-0.7-2-1.1-2.7c0.5-0.1,1-0.5,1.5-1.1c0.5-0.6,2.1-2.8,2.9-5l3.3,0.8
		c-0.9,1.7-2.2,3.4-3.5,4.9l5.8-0.4c-0.5-0.7-1.1-1.3-1.6-1.9l2.3-1.3c1.7,1.7,3.6,4,4.5,5.8L238.2,12.2z M231.2,18.4v-2.5h-2.3v2.5
		H231.2z M234.2,15.9v2.5h2.4v-2.5H234.2z M236.4,23.7c-0.3-0.6-0.7-1.2-1-1.7l2.5-1h-3.7v2.9L236.4,23.7z"/>
	<path class="st1" d="M243.3,9.3l1-1.8l-1.9-0.8l0.4-1.2l2,0.4l0.2-2.1h1.2l0.2,2.1l2-0.5l0.4,1.2L247,7.5l1.1,1.8l-1,0.7l-1.4-1.6
		l-1.4,1.6L243.3,9.3z"/>
	<path class="st1" d="M251,14.8h2.5V7.7h-2.1V6.3c1.2-0.2,2-0.5,2.7-1h1.7v9.5h2.2v1.9h-7V14.8z"/>
	<path class="st1" d="M29.7,69.2c-1,0.3-2.1,0.6-3.1,0.8v6.4c0,1.6-0.3,2.3-1.2,2.8c-0.9,0.5-2.2,0.6-4.1,0.6
		c-0.1-0.8-0.5-2.1-0.9-2.9c1.1,0,2.2,0,2.5,0c0.4,0,0.5-0.1,0.5-0.5v-5.6l-3.2,0.8l-0.6-3.1c1.1-0.2,2.4-0.5,3.8-0.8v-4.8h-3.3v-3
		h3.3v-5.1h3.1v5.1h2.9v3h-2.9v4l2.8-0.7L29.7,69.2z M42.5,77c0.1,0,0.3,0,0.4-0.1c0.1-0.1,0.1-0.3,0.2-0.9c0-0.5,0.1-1.7,0.1-3.2
		c0.6,0.5,1.5,1,2.3,1.3c0,1.4-0.1,3.1-0.3,3.8c-0.2,0.7-0.5,1.1-0.9,1.4c-0.4,0.3-1.1,0.4-1.6,0.4h-1.5c-0.6,0-1.4-0.2-1.9-0.7
		c-0.5-0.5-0.7-1.1-0.7-3.2v-8.6h-3.7v1.9c0,3.6-0.9,8.2-5.3,11c-0.4-0.7-1.6-2-2.2-2.5c3.9-2.3,4.3-5.8,4.3-8.6v-4.8h10.1v11.5
		c0,0.6,0,0.9,0.1,1C41.9,77,42,77,42.2,77H42.5z M45.3,62.2H29.9v-3.1h5.6c-0.3-1.1-0.9-2.7-1.4-3.8l3.1-0.8
		c0.6,1.2,1.3,2.8,1.6,3.9l-2.5,0.8h9V62.2z"/>
	<path class="st1" d="M52.1,67.8c-1.1-0.8-3.4-2.1-5-2.9l1.8-2.4c1.5,0.7,3.9,1.9,5,2.6L52.1,67.8z M48,77.5
		c1.5-2.1,3.5-5.4,5.1-8.5l2.4,2.2c-1.4,2.8-3.1,5.9-4.8,8.5L48,77.5z M53.5,60.7c-1.1-0.9-3.4-2.4-5-3.4l1.9-2.2
		c1.6,0.9,3.9,2.2,5.1,3.1L53.5,60.7z M72.1,68.6H65V80h-3.5V68.6H55v-3.2h6.6v-6h-5.4v-3.2H71v3.2h-6v6h7.1V68.6z"/>
	<path class="st1" d="M75.5,65.9l2.8-2.5c1.9,1.6,4.5,4.2,5.9,5.9l-2.9,2.5C79.6,69.9,77.3,67.5,75.5,65.9z"/>
	<path class="st1" d="M97.7,62c-1.2,7.3-4.1,12.7-7.9,15.6c-0.5-0.8-1.8-2-2.6-2.5c3.1-2.1,5.4-5.8,6.6-10.5h-5.6v-3.2H95l0.6-0.1
		L97.7,62z M111.1,61.6c-2,2-4.3,4.2-6.3,5.8c2.1,3.1,4.8,5.6,8.2,7.1c-0.8,0.7-1.9,2.1-2.4,3c-3.8-2-6.7-5.3-8.8-9.3v7.7
		c0,1.9-0.4,2.8-1.4,3.4c-1.1,0.6-2.7,0.7-4.9,0.7c-0.1-1-0.7-2.6-1.2-3.6c1.5,0.1,2.9,0.1,3.4,0.1c0.5,0,0.6-0.2,0.6-0.6V54.8h3.4
		v6.6c0.4,1.2,0.9,2.3,1.5,3.5c1.7-1.6,3.6-3.7,4.8-5.3L111.1,61.6z"/>
	<path class="st1" d="M116,65.9l2.8-2.5c1.9,1.6,4.5,4.2,5.9,5.9l-2.9,2.5C120.1,69.9,117.8,67.5,116,65.9z"/>
	<path class="st1" d="M150.8,66.2c-1.1,3.5-3,6.3-5.4,8.4c2.2,1.1,4.8,1.9,7.8,2.4c-0.7,0.7-1.6,2.1-2.1,3c-3.4-0.7-6.3-1.8-8.6-3.3
		c-2.4,1.4-5.2,2.5-8.1,3.2c-0.3-0.8-1.2-2.3-1.9-3c2.7-0.5,5.2-1.3,7.3-2.4c-1.8-1.8-3.2-3.9-4.3-6.4h-1.7
		c-0.3,3.9-1.2,8.6-3.5,11.7c-0.5-0.6-1.9-1.7-2.6-2.1c2.7-3.7,3-9.1,3-13v-6.7h9v-3.4h3.3v3.4h6.5L150,58l2.5,0.6
		c-0.6,2.2-1.6,4.6-2.4,6.1l-3-0.8c0.4-0.7,0.7-1.6,1-2.6H143v4h5.1l0.6-0.1L150.8,66.2z M133.9,65.2h5.8v-4h-5.8v3.6V65.2z
		 M138.8,68.2c0.9,1.8,2.2,3.3,3.8,4.6c1.6-1.2,2.9-2.8,3.8-4.6H138.8z"/>
	<path class="st1" d="M164.9,76.5c0,1.4-0.2,2.3-1.1,2.8s-2,0.6-3.8,0.6c-0.1-0.8-0.4-2.2-0.8-3c1,0.1,2.1,0.1,2.4,0.1
		c0.4,0,0.5-0.1,0.5-0.5v-6.7c-0.7,0.8-1.5,1.5-2.2,2.2l-0.9-1.7c-0.3,3.3-0.8,6.9-2.1,9.6c-0.5-0.5-1.6-1.4-2.1-1.7
		c1.7-3.7,1.8-9,1.8-12.8v-9.6h8.4V76.5z M159.1,65.2c0,1.2,0,2.5-0.1,3.8c0.9-0.6,2-1.3,3.1-2.2v-1.9l-1.1,0.9
		c-0.4-0.6-1.1-1.5-1.8-2.3V65.2z M159.1,58.7v3.2l0.9-0.7c0.6,0.6,1.4,1.4,2,2.1v-4.6H159.1z M170.6,66c-3.5,0-4.5-1.1-4.5-4.2
		v-6.7h3.2v2.6h9.7v2.8h-9.7v1.5c0,1,0.2,1.4,1.3,1.4h5.6c1,0,2.5-0.1,3.2-0.2c0.1,0.9,0.2,2,0.3,2.7c-0.6,0.2-2.1,0.2-3.4,0.2
		H170.6z M166.5,67.5h12.4v12.4h-3.2V79h-6.2v1h-3V67.5z M169.6,70.1v1.8h6.2v-1.8H169.6z M175.8,76.3v-1.9h-6.2v1.9H175.8z"/>
	<path class="st1" d="M205.9,64.3c-1.1,4.2-2.9,7.4-5.3,9.9c1.9,1.2,4.1,2.2,6.6,2.8c-0.8,0.7-1.7,2.1-2.2,3.1
		c-2.8-0.8-5.1-1.9-7-3.5c-2.3,1.7-5,2.9-8,3.8c-0.4-0.9-1.2-2.3-1.9-3c2.7-0.6,5.2-1.7,7.4-3.2c-1.8-2.1-3.2-4.7-4.4-7.6h-0.4
		c-0.6,4.4-2.3,9.3-6.6,13.1c-0.5-0.8-1.6-2.2-2.3-2.8c5.3-4.6,5.9-11.4,5.9-15.7V59h-4.3v-3.1h17.1c-0.4,2.5-1,5.3-1.5,7.6h4.1
		l0.6-0.1L205.9,64.3z M191,61.1c0,0.8,0,1.5-0.1,2.4h4.3c0.4-1.3,0.8-2.9,1.1-4.5H191V61.1z M194.2,66.5c0.9,2.1,2.1,4,3.7,5.6
		c1.5-1.5,2.8-3.4,3.6-5.6H194.2z"/>
	<path class="st1" d="M213.8,65.3c0,4.3-0.4,10.7-2.7,14.8c-0.5-0.6-1.8-1.6-2.4-1.9c2-3.6,2.2-8.9,2.2-12.8v-8.6h10.1
		c-0.2-0.5-0.4-1.1-0.6-1.5l3.2-0.8c0.3,0.7,0.7,1.5,0.9,2.3h9.3v2.6h-20V65.3z M233.9,76.2h-8.4v1.1c0,1.5-0.4,2.1-1.5,2.4
		c-1.1,0.4-2.8,0.4-5,0.4c-0.2-0.7-0.6-1.7-1-2.4c1.4,0.1,3.3,0.1,3.8,0.1c0.5,0,0.6-0.1,0.6-0.5v-0.9h-8.6v-2.1h8.6v-1.1h-7.2v-2
		h7.2v-1c-2.1,0.1-4.3,0.2-6.3,0.2c-0.1-0.5-0.3-1.4-0.5-1.9c5.1-0.1,11.1-0.4,14.5-1l1.8,1.7c-1.8,0.3-4,0.6-6.3,0.8v1.2h7.3v2
		h-7.3v1.1h8.4V76.2z M216.8,64.5c0,1.2-0.2,2.6-1.4,3.5c-0.3-0.4-1.1-1-1.6-1.3c1-0.5,1.2-1.6,1.2-2.3v-1h1.8V64.5z M217.5,67.7
		v-4.8h-3v-2.2h3v-1h2.4v1h2.9v2.2h-2.9v4.8H217.5z M222,67.2c-1.2,0-1.5-0.6-1.5-1.8v-1.8h1.7v1.9c0,0.4,0,0.5,0.2,0.5
		c0.2,0,0.7,0,0.9-0.1c0,0.4,0,0.8,0.1,1.3c-0.2,0.1-0.6,0.1-1,0.1H222z M226,64.4c0,1.1-0.2,2.4-0.9,3.3c-0.3-0.4-1.1-1-1.5-1.2
		c0.6-0.5,0.8-1.5,0.8-2.2v-0.9h1.7V64.4z M226.8,67v-4.1h-3.2v-2.2h3.2v-1h2.4v1h3.8v2.2h-3.8V67H226.8z M231.5,67.3
		c-1.4,0-1.6-0.6-1.6-1.9v-2h1.8v2c0,0.4,0.1,0.6,0.4,0.6h0.4c0.2,0,0.8,0,1.1-0.1l0.1,1.3c-0.2,0.1-0.7,0.1-1.1,0.1H231.5z"/>
	<path class="st1" d="M241.3,69.7v7.1c0,1.3-0.2,2-1,2.5c-0.7,0.5-1.7,0.6-3.2,0.6c-0.1-0.7-0.4-1.9-0.7-2.7c0.7,0,1.5,0,1.7,0
		s0.4-0.1,0.4-0.4v-6l-2,0.8l-0.8-3.1c0.8-0.2,1.7-0.6,2.8-0.9v-4.8h-2.5v-3h2.5v-5.1h2.8v5.1h2.1v3h-2.1v3.8l1.5-0.6l0.5,2.8
		L241.3,69.7z M249.6,74.4c-1.1,1.8-2.7,3.7-4.2,4.9c-0.6-0.5-1.7-1.2-2.4-1.6c1.5-1,3-2.6,3.8-4.1L249.6,74.4z M260.2,61.6
		c-0.6,1.7-1.6,3.5-2.7,4.9c1.1,1.3,2.5,2.5,3.9,3.2c-0.6,0.5-1.3,1.4-1.7,2.1c-0.4-0.2-0.7-0.4-1-0.6v2h-4.8V80H251v-6.8h-5.2v-2.1
		c-0.3,0.2-0.6,0.4-0.9,0.5c-0.4-0.6-1-1.5-1.6-1.9c1.7-0.8,3.4-2.2,4.7-3.9c-0.5-0.5-1.1-1.1-1.8-1.6c-0.5,0.4-1,0.7-1.5,1
		c-0.3-0.6-1.1-1.4-1.6-1.7c1.3-0.6,2.3-1.4,3-2.2h-2V57h6.6c-0.2-0.6-0.4-1.2-0.6-1.6l2.9-0.6c0.4,0.7,0.7,1.5,0.9,2.3h6.3v3.9H259
		L260.2,61.6z M247.1,66.8c-1.1,0.3-2,0.6-3.1,0.9l-0.5-1.9c1-0.2,2-0.4,3.4-0.7L247.1,66.8z M258.1,70.7c-0.9-0.7-1.7-1.6-2.5-2.6
		v1.3h-6.5l0-1.2c-0.9,0.9-1.8,1.8-2.8,2.5H258.1z M247,60.2c0.1-0.2,0.2-0.4,0.3-0.6l2.3,0.4c-0.2,0.3-0.3,0.6-0.5,1h1.8l0.4-0.1
		l1.6,0.8c-0.6,2-1.6,3.8-2.8,5.3h4.8c-0.9-1.3-1.6-2.9-2.1-4.5l1.2-0.4v-1.4h3.3v-1.4H247V60.2z M247.6,63.1
		c0.5,0.4,1.1,0.8,1.5,1.2c0.3-0.5,0.6-1,0.9-1.5h-2.1L247.6,63.1z M257.1,73.4c1.3,1.2,3.1,2.9,3.9,4l-2.3,1.6
		c-0.7-1.2-2.4-2.9-3.7-4.2L257.1,73.4z M255.3,62.7c0.2,0.6,0.6,1.3,0.9,1.9c0.3-0.6,0.6-1.2,0.9-1.9H255.3z"/>
</g>
<rect class="st2" width="281.1" height="92.6"/>
</svg>
