<?xml version="1.0" encoding="utf-8"?>
<!-- Generator: Adobe Illustrator 25.0.1, SVG Export Plug-In . SVG Version: 6.00 Build 0)  -->
<svg version="1.1" id="Layer_1" xmlns="http://www.w3.org/2000/svg" xmlns:xlink="http://www.w3.org/1999/xlink" x="0px" y="0px"
	 viewBox="0 0 143.4 43.8" style="enable-background:new 0 0 143.4 43.8;" xml:space="preserve">
<style type="text/css">
	.st0{fill:#FFFFFF;}
</style>
<g id="Layer_2_1_">
	<g id="圖層_2">
		<path class="st0" d="M44.4,18.2c1.1-8.9-5.1-17-14-18.1c-3.1-0.4-6.2,0.1-9,1.4l-0.1,0.1l-0.4,0.2l-0.4,0.2l-0.2,0.1
			c-0.2,0.1-0.4,0.2-0.5,0.3l0,0c-3.8,2.4-6.5,6.3-7.3,10.8l0,0c0,0.2-0.1,0.5-0.1,0.7c0,0,0,0.1,0,0.1c0,0,0,0.1,0,0.1
			c0,0.3-0.1,0.6-0.1,1s0,0.5,0,0.8v0.3c0,0.9,0.1,1.9,0.2,2.8L12,19.4l-0.1,0.1l-3.7,3.6c-0.4,0.5-0.4,1.2,0.1,1.7
			c0.5,0.4,1.1,0.4,1.6,0l0.9-0.9l0.1-0.1l0.6-0.6c0.1-0.1,0.2-0.1,0.3-0.2l1.4-1.4l0,0c0.1,0.5,0.3,0.9,0.5,1.4l0,0l-5.3,5.3
			c-0.1,0.1-0.2,0.2-0.2,0.3l0,0l-6.8,6.8c-0.5,0.5-0.5,1.2,0,1.7c0.5,0.5,1.2,0.5,1.7,0l11.9-11.9v0c-0.4-0.7-0.8-1.4-1.2-2.1
			l7.6-7.6c0.4-0.5,1.2-0.5,1.7-0.1s0.5,1.2,0.1,1.7c0,0-0.1,0.1-0.1,0.1L15,25.2c0.2,0.4,0.5,0.7,0.8,1.1l0,0l-3.6,3.5
			c-0.1,0.1-0.2,0.2-0.2,0.4l0,0l-9.6,9.6C1.9,40.3,2,41,2.5,41.4c0.5,0.4,1.1,0.4,1.6,0l13.4-13.4L17.4,28
			c-0.6-0.5-1.1-1.1-1.5-1.6L32.7,9.5c0.5-0.5,1.2-0.5,1.7,0c0,0,0,0,0,0c0.5,0.5,0.5,1.2,0,1.7c0,0,0,0,0,0L17.5,28.1
			c0.3,0.3,0.7,0.6,1.1,0.9l0,0l-1.6,1.6c-0.1,0.1-0.1,0.2-0.2,0.2l-3,3c-0.5,0.5-0.5,1.2,0,1.7c0.5,0.5,1.2,0.5,1.7,0l0,0l5.2-5.2
			l0,0c-0.7-0.4-1.4-0.8-2-1.3l13.1-13.2c0.5-0.5,1.2-0.5,1.7,0c0.5,0.5,0.5,1.2,0,1.7L20.6,30.4c0.4,0.2,0.9,0.5,1.4,0.7l-2.7,2.7
			c-0.5,0.5-0.5,1.2,0,1.7c0.5,0.5,1.2,0.5,1.7,0l0,0l1.8-1.8c0.1,0,0.2-0.1,0.2-0.2l1.6-1.6l0,0c0.6,0.1,1.2,0.3,1.8,0.3
			C35.1,33.4,43.2,27.1,44.4,18.2C44.4,18.3,44.4,18.2,44.4,18.2z M15.5,19.2l-2.3,2.3l0,0c-0.3-0.9-0.5-1.7-0.7-2.6l0,0l1.4-1.4
			c0.5-0.5,1.2-0.5,1.7,0c0,0,0,0,0,0C15.8,18,15.8,18.7,15.5,19.2L15.5,19.2z M24.5,31.9L24.5,31.9c-0.9-0.2-1.7-0.5-2.5-0.9l0,0
			l4.9-4.9c0.5-0.5,1.2-0.5,1.7,0c0.5,0.5,0.5,1.2,0,1.7c0,0,0,0,0,0L24.5,31.9z"/>
		<path class="st0" d="M6.1,26.8c0.5,0.5,1.2,0.5,1.7,0c0.5-0.5,0.5-1.2,0-1.7c-0.5-0.5-1.2-0.5-1.7,0c0,0,0,0,0,0
			C5.6,25.6,5.6,26.4,6.1,26.8C6.1,26.8,6.1,26.8,6.1,26.8z"/>
		<path class="st0" d="M0.3,41.8c-0.5,0.5-0.5,1.2,0,1.7c0,0,0,0,0,0c0.5,0.5,1.2,0.5,1.7,0c0,0,0,0,0,0c0.5-0.5,0.5-1.2,0-1.7
			C1.6,41.3,0.8,41.3,0.3,41.8C0.4,41.8,0.4,41.8,0.3,41.8z"/>
		<path class="st0" d="M13.7,36.5c0,0,0-0.1,0-0.1v-0.1l-0.1-0.1v-0.1c-0.1-0.1-0.2-0.3-0.3-0.3h-0.1L13,35.6h-0.1c0,0-0.1,0-0.1,0
			c-0.1,0-0.1,0-0.2,0h-0.1c-0.1,0-0.1,0-0.2,0h-0.1h-0.1l-0.1,0.1h-0.1c-0.1,0.1-0.3,0.2-0.3,0.3c0,0,0,0,0,0.1l-0.1,0.1v0.1
			c0,0,0,0.1,0,0.1c0,0.1,0,0.1,0,0.2c0,0,0,0,0,0.1s0,0,0,0.1c0,0.1,0,0.1,0,0.2c0,0,0,0.1,0,0.1v0.1l0.1,0.1c0,0,0,0.1,0,0.1
			c0.1,0.1,0.2,0.2,0.3,0.3h0.1l0.1,0.1h0.1h0.1h0.5h0.1H13l0.1-0.1h0.1c0.1-0.1,0.3-0.2,0.3-0.3v-0.1l0.1-0.1v-0.1c0,0,0-0.1,0-0.1
			c0-0.1,0-0.1,0-0.2c0,0,0,0,0-0.1s0,0,0-0.1C13.6,36.6,13.7,36.6,13.7,36.5z"/>
		<path class="st0" d="M65.5,5.5c0,0-0.1-0.1-0.1-0.1h-3.2c0,0-0.1,0-0.1,0.1l-8.7,21.3c0,0.1,0,0.1,0.1,0.2c0,0,0,0,0,0h4.4
			c0.1,0,0.1,0,0.1-0.1l1.8-4.3c0,0,0.1-0.1,0.1-0.1h7.7c0.1,0,0.1,0,0.1,0.1l1.7,4.3c0,0,0.1,0.1,0.1,0.1h4.4
			c0.1,0,0.1-0.1,0.1-0.1c0,0,0,0,0,0L65.5,5.5z M66.2,19.2h-5c-0.1,0-0.1,0-0.1-0.1c0,0,0,0,0-0.1l2.4-7.4l0,0l0,0l2.8,7.4
			C66.4,19.1,66.4,19.1,66.2,19.2C66.3,19.2,66.3,19.2,66.2,19.2z"/>
		<path class="st0" d="M141.8,15.7c-1.1-1.3-2.7-2-4.4-2h-3.9c-0.7,0-1-0.5-1-1.6s0.3-1.6,1-1.6h8.9v-5h-8.9c-1.7,0-3.3,0.7-4.4,2
			c-1.1,1.3-1.7,2.9-1.7,4.7c0,1.7,0.5,3.3,1.7,4.6c1.1,1.3,2.7,2,4.4,2h3.9c0.7,0,1,0.5,1,1.6s-0.4,1.6-1,1.6h-8.9v5h8.9
			c1.7,0,3.3-0.7,4.4-2c1.1-1.3,1.7-2.9,1.6-4.6C143.5,18.6,142.9,17,141.8,15.7z"/>
		<path class="st0" d="M87.7,22.3H80V5.5c0-0.1-0.1-0.1-0.1-0.1h-4.3c-0.1,0-0.1,0-0.1,0.1v21.3c0,0,0,0.1,0,0.1h12.3
			c0,0,0.1-0.1,0.1-0.1v-4.4C87.8,22.4,87.7,22.3,87.7,22.3z"/>
		<path class="st0" d="M104.1,9.9V5.6c0-0.1,0-0.1-0.1-0.1H89.2c0,0-0.1,0.1-0.1,0.1v4.3c0,0.1,0,0.1,0.1,0.1h5.1v16.8
			c0,0.1,0.1,0.1,0.1,0.1h4.3c0.1,0,0.1,0,0.1-0.1V10.1h5.1C104,10.1,104.1,10,104.1,9.9z"/>
		<path class="st0" d="M125.3,12.1c-0.5-1.3-1.2-2.4-2.1-3.4c-3-3.2-7.6-4.1-11.6-2.3c-1.2,0.5-2.3,1.3-3.2,2.3
			c-0.9,1-1.6,2.2-2.1,3.4c-0.5,1.3-0.8,2.7-0.8,4.1c0,1.4,0.2,2.8,0.8,4.1c0.5,1.3,1.2,2.4,2.1,3.4c0.9,1,2,1.8,3.2,2.3
			c4,1.8,8.6,0.9,11.6-2.3c0.9-1,1.6-2.2,2.1-3.4c0.5-1.3,0.8-2.7,0.8-4.1C126,14.8,125.8,13.4,125.3,12.1z M121.4,16
			c0,0.8-0.2,1.5-0.4,2.2c-0.3,0.8-0.7,1.5-1.2,2.1c-0.5,0.7-1.1,1.2-1.8,1.6c-0.7,0.4-1.4,0.6-2.2,0.6c-0.8,0-1.5-0.2-2.2-0.6
			c-0.7-0.4-1.3-0.9-1.8-1.6c-0.5-0.6-0.9-1.4-1.2-2.1c-0.3-0.7-0.5-1.5-0.5-2.3c0-0.8,0.1-1.6,0.4-2.3c0.3-0.7,0.7-1.4,1.2-2
			c0.5-0.6,1.1-1.1,1.8-1.4c1.4-0.7,3.1-0.7,4.5,0c0.7,0.3,1.3,0.8,1.8,1.4c0.5,0.6,0.9,1.3,1.2,2C121.3,14.4,121.4,15.2,121.4,16z"
			/>
	</g>
</g>
</svg>
