<svg xmlns="http://www.w3.org/2000/svg" viewBox="0 0 17.77 17.77"><defs><style>.cls-1{fill:#fff;}.cls-2{fill:#d93025;}</style></defs><g id="Layer_2" data-name="Layer 2"><g id="圖層_2" data-name="圖層 2"><circle class="cls-1" cx="8.88" cy="8.88" r="7.88"/><path class="cls-2" d="M8.88,2A6.89,6.89,0,1,1,2,8.88,6.89,6.89,0,0,1,8.88,2m0-2a8.89,8.89,0,1,0,8.89,8.88A8.89,8.89,0,0,0,8.88,0Z"/><rect class="cls-1" x="8.8" y="5.55" width="0.17" height="3.65"/><polygon class="cls-2" points="9.97 4.55 7.8 4.55 7.8 10.2 9.97 10.2 9.97 4.55 9.97 4.55"/><rect class="cls-1" x="8.8" y="12.5" width="0.17" height="0.17"/><polygon class="cls-2" points="9.97 11.5 7.8 11.5 7.8 13.67 9.97 13.67 9.97 11.5 9.97 11.5"/></g></g></svg>