<?xml version="1.0" encoding="utf-8"?>
<!-- Generator: Adobe Illustrator 24.3.0, SVG Export Plug-In . SVG Version: 6.00 Build 0)  -->
<svg version="1.1" id="Layer_1" xmlns="http://www.w3.org/2000/svg" xmlns:xlink="http://www.w3.org/1999/xlink" x="0px" y="0px"
	 viewBox="0 0 200 200" style="enable-background:new 0 0 200 200;" xml:space="preserve">
<style type="text/css">
	.st0{display:none;}
	.st1{display:inline;fill:#202020;}
	.st2{fill:#FFFFFF;}
</style>
<g id="Black_Background" class="st0">
	<rect x="-660.2" y="-226.9" class="st1" width="2988.3" height="456"/>
</g>
<g id="Layer_1_1_">
	<g>
		<polygon class="st2" points="89.8,114.8 115.8,100 89.8,85.2 		"/>
		<path class="st2" d="M100,0C44.8,0,0,44.8,0,100s44.8,100,100,100s100-44.8,100-100S155.2,0,100,0z M147.6,124.1
			c-1.1,4.3-4.5,7.7-8.8,8.8C131.1,135,100,135,100,135s-31.1,0-38.8-2.1c-4.3-1.2-7.6-4.5-8.8-8.8c-2.1-7.8-2.1-24.1-2.1-24.1
			s0-16.3,2.1-24.1c1.1-4.3,4.5-7.7,8.8-8.8C68.9,65,100,65,100,65s31.1,0,38.8,2.1c4.3,1.2,7.6,4.5,8.8,8.8
			c2.1,7.8,2.1,24.1,2.1,24.1S149.7,116.3,147.6,124.1z"/>
	</g>
</g>
</svg>
