<?xml version="1.0" encoding="utf-8"?>
<!-- Generator: Adobe Illustrator 25.0.1, SVG Export Plug-In . SVG Version: 6.00 Build 0)  -->
<svg version="1.1" id="Layer_1" xmlns="http://www.w3.org/2000/svg" xmlns:xlink="http://www.w3.org/1999/xlink" x="0px" y="0px"
	 viewBox="0 0 200 200" style="enable-background:new 0 0 200 200;" xml:space="preserve">
<style type="text/css">
	.st0{display:none;}
	.st1{display:inline;fill:#202020;}
	.st2{fill:#FFFFFF;}
</style>
<g id="Black_Background" class="st0">
	<rect x="-2130.2" y="-226.1" class="st1" width="2988.3" height="456"/>
</g>
<path class="st2" d="M100,0C44.8,0,0,44.8,0,100s44.8,100,100,100s100-44.8,100-100S155.2,0,100,0z M70.9,151.2H46.6V77.9h24.4
	V151.2z M58.8,67.9h-0.2c-8.2,0-13.5-5.6-13.5-12.7c0-7.2,5.4-12.7,13.8-12.7S72.4,48,72.5,55.2C72.5,62.3,67.3,67.9,58.8,67.9z
	 M158.8,151.2h-24.4V112c0-9.9-3.5-16.6-12.3-16.6c-6.7,0-10.7,4.5-12.5,8.9c-0.6,1.6-0.8,3.8-0.8,5.9v40.9H84.4
	c0,0,0.3-66.4,0-73.3h24.4v10.4c3.2-5,9-12.1,21.9-12.1c16,0,28,10.5,28,33V151.2z"/>
</svg>
