<svg id="logo" xmlns="http://www.w3.org/2000/svg" viewBox="0 0 1166.61 241.6"><defs><style>.cls-1{fill:#fff;}</style></defs><path class="cls-1" d="M337.51,35.56l76.6,164.26H396.38l-25.83-54H299.79l-25.59,54H255.89l77.6-164.26Zm-2.07,34.9-28.15,59.46h56.16Z"/><path class="cls-1" d="M453.73,35.56h32.72q27.35,0,37.07,2.24A42.27,42.27,0,0,1,547.3,52.17q9.16,11,9.16,27.11a43.89,43.89,0,0,1-6.31,23.59,39.38,39.38,0,0,1-18,15.37q-11.73,5.2-32.39,5.31l59.07,76.27H538.5l-59.08-76.27h-9.28v76.27H453.73Zm16.41,16.08v55.83l28.3.23q16.44,0,24.33-3.13a25.32,25.32,0,0,0,12.3-10,27.84,27.84,0,0,0,4.42-15.36,26.66,26.66,0,0,0-4.48-15,24.94,24.94,0,0,0-11.74-9.66q-7.28-2.9-24.16-2.9Z"/><path class="cls-1" d="M605,35.56h94.13V51.64H621.42v51.48h77.05V119.2H621.42v64.54h77.05v16.08H605Z"/><path class="cls-1" d="M807.88,35.56l76.6,164.26H866.75l-25.84-54H770.15l-25.59,54H726.25L803.86,35.56Zm-2.08,34.9-28.14,59.46h56.15Z"/><path class="cls-1" d="M928.49,119.51q0-31.8,6.63-49.17T953.84,44a44.32,44.32,0,0,1,27-9,45.37,45.37,0,0,1,27.48,9q12.3,9,19.47,27t7.16,48.41q0,30.27-7.06,48.18t-19.46,27.05a45.51,45.51,0,0,1-27.59,9.12A44.24,44.24,0,0,1,954,195q-12-8.85-18.72-26.39T928.49,119.51Zm14.75.27Q943.24,147,948,161t13.95,21.16q9.23,7.21,19.51,7.22a30.94,30.94,0,0,0,19.42-7.05q9-7.07,13.68-21.16,5.84-17.18,5.84-41.34T1015.16,80q-5.2-15.47-14.37-22.63t-19.37-7.17q-10.39,0-19.51,7.17T948,78.5Q943.24,92.45,943.24,119.78Z"/><path class="cls-1" d="M1079.31,89.35h-15q.63-23.77,15.43-39t36.55-15.26q21.53,0,34.85,14.32a48,48,0,0,1,13.31,33.77,54,54,0,0,1-6.35,25.64q-6.35,12-24.65,32.41l-38.87,43.11h72v15.52h-106l59.61-66.37q18.15-20,23.61-29.69a40.89,40.89,0,0,0,5.46-20.39A31.85,31.85,0,0,0,1139.51,60a32.74,32.74,0,0,0-24-9.79q-15,0-24.88,10.28T1079.31,89.35Z"/><path class="cls-1" d="M183.1,53.86a80.75,80.75,0,0,0-18-13.88L120.2,12.13l-.3-.15a76.3,76.3,0,0,0-41-12C35.4,0,0,36.43,0,81.21V203.42L57.12,241.6V111.18C57.12,70.81,88.58,38,127.25,38a69.05,69.05,0,0,1,9,.59c8.38,12.09,12.8,26.79,12.8,42.65V203.42l57.38,38.16V111.18A81.61,81.61,0,0,0,183.1,53.86Zm-134,57.32V226.63L8,199.14V81.21C8,40.84,39.81,8,78.92,8a68.45,68.45,0,0,1,37,10.92,3.41,3.41,0,0,0,.33.17l18.1,11.22c-2.35-.21-4.72-.34-7.1-.34C84.17,30,49.12,66.4,49.12,111.18ZM198.43,226.65l-41.38-27.51V81.21a83.5,83.5,0,0,0-10-40.32,69.47,69.47,0,0,1,13.83,5.89l3.41,2.12a4.37,4.37,0,0,0,.57.29,74,74,0,0,1,33.54,62Z"/></svg>