<svg id="圖層_1" data-name="圖層 1" xmlns="http://www.w3.org/2000/svg" viewBox="0 0 296.93 338.96"><defs><style>.cls-1{fill:#fff;}</style></defs><path class="cls-1" d="M28.22,282.07h-2L0,337.62H7.19l8.5-17.95H38.56l8.58,17.95h7Zm7.51,31.33H18.65l8.56-18.07Z"/><path class="cls-1" d="M80.43,312.28a26.81,26.81,0,0,0,9.95-1.8,13.54,13.54,0,0,0,6.21-5.3,15.1,15.1,0,0,0,2.17-8.1,14.18,14.18,0,0,0-3.15-9.32,14.6,14.6,0,0,0-8.17-4.94c-2.18-.5-6.36-.75-12.43-.75H63.64v55.55H70.1V312.29h2.33L91.9,337.43l.15.19h8ZM79,306,70.1,306V288.41h9.12c3.65,0,6.29.31,7.84.92a7.85,7.85,0,0,1,3.66,3,8.36,8.36,0,0,1,1.41,4.72,8.82,8.82,0,0,1-1.39,4.83A8,8,0,0,1,86.89,305,23,23,0,0,1,79,306Z"/><polygon class="cls-1" points="143.8 288.4 143.8 282.06 111.53 282.06 111.53 337.62 143.58 337.62 143.58 331.28 117.99 331.28 117.99 310.84 143.58 310.84 143.58 304.5 117.99 304.5 117.99 288.4 143.8 288.4"/><path class="cls-1" d="M177.38,282.07h-2l-26.25,55.55h7.19l8.5-17.95h22.87l8.58,17.95h7Zm7.51,31.33H167.81l8.56-18.07Z"/><path class="cls-1" d="M246.4,285a15.64,15.64,0,0,0-9.42-3.09A15.27,15.27,0,0,0,227.7,285a19.39,19.39,0,0,0-6.39,9c-1.48,3.88-2.24,9.44-2.24,16.51s.77,12.57,2.27,16.49a19.62,19.62,0,0,0,6.39,9,15.28,15.28,0,0,0,9.25,3,15.72,15.72,0,0,0,9.46-3.12,20.38,20.38,0,0,0,6.63-9.21c1.58-4,2.38-9.45,2.38-16.18s-.81-12.23-2.41-16.27A20.52,20.52,0,0,0,246.4,285Zm3.19,25.56a42.59,42.59,0,0,1-1.92,13.57,13.92,13.92,0,0,1-4.37,6.79,9.56,9.56,0,0,1-12.32,0,14.12,14.12,0,0,1-4.47-6.8c-1-3-1.54-7.57-1.54-13.51S225.5,300,226.53,297a14.27,14.27,0,0,1,4.45-6.78,9.47,9.47,0,0,1,12.3,0,15.18,15.18,0,0,1,4.61,7.28A42.28,42.28,0,0,1,249.59,310.54Z"/><path class="cls-1" d="M273.64,331.47,285.8,318c4.06-4.53,6.84-8.19,8.25-10.86a18.47,18.47,0,0,0,2.17-8.75,16.49,16.49,0,0,0-4.55-11.56,15.63,15.63,0,0,0-11.94-4.92,16.77,16.77,0,0,0-12.5,5.23,19.16,19.16,0,0,0-5.27,13.3v.51h5.94l0-.46c.29-4,1.51-7.09,3.61-9.27a10.59,10.59,0,0,1,7.9-3.26,10.42,10.42,0,0,1,7.63,3.1,10.11,10.11,0,0,1,3.11,7.4,13.13,13.13,0,0,1-1.75,6.53c-1.18,2.1-3.8,5.39-7.77,9.77l-20.55,22.88h36.82v-6.15Z"/><path class="cls-1" d="M227.79,53.56A80,80,0,0,0,210,39.85L165.08,12l-.29-.15A75.38,75.38,0,0,0,124.32,0c-43,0-77.91,36-77.91,80.21V201.88l55.11,36.85V110.18c0-40.92,31.91-74.21,71.14-74.21a69.06,69.06,0,0,1,9.56.66C190.88,49,195.45,64,195.45,80.21V201.89l55.38,36.82V110.18A80.61,80.61,0,0,0,227.79,53.56ZM172.66,30c-42.54,0-77.14,36-77.14,80.21V227.5L52.41,198.68V80.21C52.41,39.29,84.67,6,124.32,6a69.37,69.37,0,0,1,37.54,11.08l.32.16,21.93,13.6A76.42,76.42,0,0,0,172.66,30Zm72.17,197.55-43.38-28.85V80.21a82,82,0,0,0-11-41.94A69.49,69.49,0,0,1,206.89,45l3.36,2.08a3.49,3.49,0,0,0,.48.23,75,75,0,0,1,34.1,62.9Z"/></svg>