<svg xmlns="http://www.w3.org/2000/svg" viewBox="0 0 105.36 91.33"><defs><style>.cls-1{fill:#fff;}</style></defs><g id="圖層_2" data-name="圖層 2"><g id="圖層_1-2" data-name="圖層 1"><path class="cls-1" d="M104.48,50.15,55.18.85a3.08,3.08,0,0,0-4.24,0L.88,50.91a3,3,0,0,0,0,4.24,3.08,3.08,0,0,0,4.24,0L14,46.31V88.6a2.74,2.74,0,0,0,2.74,2.73H35.35A2.69,2.69,0,0,0,38,89a2.76,2.76,0,0,0,.07-.63V75.07c0-.07,0-.13,0-.11v-3.6a14.73,14.73,0,0,1,29.46,0v17a2.26,2.26,0,0,0,.09.67,2.71,2.71,0,0,0,2.68,2.26H89A2.74,2.74,0,0,0,91.7,88.6V45.85l8.54,8.55a3.08,3.08,0,0,0,4.24,0,3,3,0,0,0,0-4.25Zm-51.66.63A20.6,20.6,0,0,0,32.24,71.36V85.87H19.43v-45L53.06,7.21,86.23,40.39V85.87H73.4V71.36A20.6,20.6,0,0,0,52.82,50.78Z"/></g></g></svg>