<svg xmlns="http://www.w3.org/2000/svg" viewBox="0 0 646.4 150.27"><defs><style>.cls-1{fill:#fff;}</style></defs><g id="圖層_2" data-name="圖層 2"><g id="Layer_1" data-name="Layer 1"><path class="cls-1" d="M80.62,17.14a9.69,9.69,0,0,1,9.58,9.77V139.34a9.65,9.65,0,0,1-9.58,9.58H9.76A9.69,9.69,0,0,1,0,139.34V26.91a9.72,9.72,0,0,1,9.76-9.77H21.15L34.34,2.68A8.65,8.65,0,0,1,46.09,2a7.77,7.77,0,0,1,.73,11L43,17.14ZM74.11,32H15.73V52.75H74.11ZM15.73,67.21V87.82H74.11V67.21H15.73Zm0,66.88H74.11V102.28H15.73Z"/><path class="cls-1" d="M233.54,31.6h34.89A9.69,9.69,0,0,1,278,41.37v97.78a9.65,9.65,0,0,1-9.58,9.59H183.11a9.65,9.65,0,0,1-9.58-9.59V41.37a9.69,9.69,0,0,1,9.58-9.77h34.71v-21a7.72,7.72,0,0,1,7.77-7.78,7.87,7.87,0,0,1,7.95,7.78ZM217.82,45.7H189.26V76.25h28.56ZM189.26,89.81v44.83h28.56V89.81Zm73-44.11H233.54V76.25h28.74Zm-28.74,88.94h28.74V89.81H233.54Z"/><path class="cls-1" d="M460.76,138.07a7.83,7.83,0,0,1-2.17,10.85,7.63,7.63,0,0,1-10.66-2.35L407.62,83.66l-40.31,63.09a8,8,0,0,1-10.48,2.53A7.25,7.25,0,0,1,354.48,139l46.45-72.84V20H378.16a7.57,7.57,0,0,1-7.42-7.41,7.45,7.45,0,0,1,7.42-7.41H406.9a9.64,9.64,0,0,1,9.58,9.57V68.66Z"/><path class="cls-1" d="M563.8,115.84a6,6,0,1,1,2.71,11.75l-27.29,6.32a7.27,7.27,0,0,1-8.68-5.78,8,8,0,0,1,6-9.4l7.23-1.63V49.68h-6.32a6.78,6.78,0,1,1,0-13.56h6.32V12.44a7.33,7.33,0,0,1,14.65,0V36.12h6.32a6.78,6.78,0,1,1,0,13.56h-6.32V117.1Zm76.28-45H595.25l-4,6.33h41.94A9.72,9.72,0,0,1,643,86.92v27.29a33.38,33.38,0,0,1-5.24,17.9L629.05,146a8.78,8.78,0,0,1-10.3,3.8,5.54,5.54,0,0,1-3.07-8.13l11.93-19.16a7.08,7.08,0,0,0,1.26-4.16V89.27h-.54l-34,54.58a7.8,7.8,0,0,1-10,3.08,6,6,0,0,1-2.53-8.68l30.37-49h-5.78l-.54,1.08-21.7,34.89a6.49,6.49,0,0,1-9,2,6.94,6.94,0,0,1-2-9.4l17.71-28.56h-7l-9.94,16.08a7.42,7.42,0,0,1-9.58,2.35A6.63,6.63,0,0,1,562,98.49l17.17-27.66H573a6.1,6.1,0,0,1-6.15-6.15A6.25,6.25,0,0,1,573,58.36h67.06a6.4,6.4,0,0,1,6.32,6.32A6.25,6.25,0,0,1,640.08,70.83ZM587.84,54.56A9.65,9.65,0,0,1,578.26,45V14.79a9.64,9.64,0,0,1,9.58-9.57h37a9.63,9.63,0,0,1,9.58,9.57V45a9.64,9.64,0,0,1-9.58,9.58Zm32.72-37.42H591.63v6.51h28.93ZM591.63,42.45h28.93V35.58H591.63Z"/></g></g></svg>