<svg xmlns="http://www.w3.org/2000/svg" viewBox="0 0 416.17 86.79"><defs><style>.cls-1{fill:#fff;}</style></defs><g id="圖層_2" data-name="圖層 2"><g id="圖層_1-2" data-name="圖層 1"><path class="cls-1" d="M416.17,26.36h-35.9V0H35.9V26.36H0L24,56.58,0,86.79H66.15V60.43H350V86.79h66.14l-24-30.21ZM378.61,1.67V58.76h-341V1.67ZM3.46,85.12,26.14,56.58,3.46,28H35.9V60L62,85.12Zm61,.07L38.8,60.43H64.48ZM351.7,60.43h25.67L351.7,85.18Zm61,24.69H354.17L380.27,60V28h32.44L390,56.58Z"/><path class="cls-1" d="M72.7,34.86H66.51l-1.18,3.53H61.58L68,21.27h3.27l6.41,17.12H73.88ZM67.46,32h4.28L69.59,25.6Z"/><path class="cls-1" d="M85.57,32.12H82.76v6.27H79.23V21.27H85.6a7.21,7.21,0,0,1,4.68,1.35,4.66,4.66,0,0,1,1.64,3.82,5.34,5.34,0,0,1-.75,2.93,5.22,5.22,0,0,1-2.3,1.86l3.7,7v.16H88.78Zm-2.81-2.85h2.85a2.94,2.94,0,0,0,2.06-.68,2.43,2.43,0,0,0,.73-1.86,2.59,2.59,0,0,0-.69-1.91,2.87,2.87,0,0,0-2.11-.69H82.76Z"/><path class="cls-1" d="M104.91,31H98.13v4.59h8v2.83H94.61V21.27h11.45v2.86H98.13v4.08h6.78Z"/><path class="cls-1" d="M117.82,34.86h-6.18l-1.18,3.53h-3.75l6.37-17.12h3.27l6.41,17.12H119ZM112.59,32h4.28l-2.15-6.41Z"/><path class="cls-1" d="M141.52,31.31a8.7,8.7,0,0,1-1.47,5.44,5.88,5.88,0,0,1-8.59,0A8.43,8.43,0,0,1,130,31.49V28.34a8.57,8.57,0,0,1,1.48-5.45,5.89,5.89,0,0,1,8.57,0,8.37,8.37,0,0,1,1.52,5.29Zm-3.4-3.46a6.3,6.3,0,0,0-.58-3.11,2,2,0,0,0-1.82-1,1.93,1.93,0,0,0-1.77.93,5.82,5.82,0,0,0-.6,2.89v4.16a6.61,6.61,0,0,0,.57,3.12,1.94,1.94,0,0,0,1.83,1,1.89,1.89,0,0,0,1.79-1,6.46,6.46,0,0,0,.58-3Z"/><path class="cls-1" d="M155.55,38.39H143.81V36.06l5.54-5.9A13.4,13.4,0,0,0,151,28a3.53,3.53,0,0,0,.55-1.76,2.62,2.62,0,0,0-.58-1.79,2.06,2.06,0,0,0-1.65-.66,2.24,2.24,0,0,0-1.81.8,3.1,3.1,0,0,0-.67,2.08h-3.41a5.57,5.57,0,0,1,.75-2.85,5.22,5.22,0,0,1,2.11-2,6.42,6.42,0,0,1,3.09-.74,6.09,6.09,0,0,1,4.11,1.27A4.5,4.5,0,0,1,155,25.89a5.75,5.75,0,0,1-.66,2.59,14.3,14.3,0,0,1-2.26,3.07l-3.89,4.1h7.36Z"/><path class="cls-1" d="M183.53,27.75a17.34,17.34,0,0,1-5.37,7.66A32.33,32.33,0,0,0,185.87,37a16.93,16.93,0,0,0-2.24,3.46,27,27,0,0,1-9.17-2.67,32.37,32.37,0,0,1-9.78,2.89,12.92,12.92,0,0,0-1.88-3.4,33.85,33.85,0,0,0,8.26-1.8,19.47,19.47,0,0,1-4-5l1.73-.6h-3.51V26.45h7.32V24.16H164V20.69h8.55V17.8h3.66v2.89h8.62v3.47h-8.62v2.29h4.21l.6-.12ZM170.7,29.87a11.93,11.93,0,0,0,3.92,3.85,12.14,12.14,0,0,0,3.83-3.85Z"/><path class="cls-1" d="M195.15,31c-.65.2-1.3.36-2,.56v5.1c0,1.52-.21,2.39-1,2.92a6.31,6.31,0,0,1-3.52.67,12.22,12.22,0,0,0-.86-3.23c.77,0,1.56,0,1.85,0s.38-.1.38-.41V32.44l-2.31.61L187,29.7c.87-.17,1.9-.39,3-.65V25.41h-2.62v-3.2H190V17.83h3.18v4.38h1.69v3.2h-1.69v2.87l1.54-.39ZM210,20.36v3.18H204.3v1.32H209V28H196.4V24.86H201V23.54h-5.82V20.36H201V17.9h3.33v2.46Zm-2.6,9.34h2.48v3.15h-2.48v4.34c0,1.61-.29,2.45-1.33,3a9.84,9.84,0,0,1-4.06.53,13.18,13.18,0,0,0-1-3.25c.94.07,2.22.07,2.55,0s.49-.08.49-.39V32.85h-4.77a31.86,31.86,0,0,1,2.58,3.9l-3,1.67a31.92,31.92,0,0,0-2.45-4.24l2.48-1.33h-3.52V29.7h8.65V28.35h3.32Z"/><path class="cls-1" d="M232.36,25.34a28,28,0,0,1-2.46,8.48,11.88,11.88,0,0,0,4.58,3.66,13,13,0,0,0-2.39,3A13.8,13.8,0,0,1,227.83,37,15.43,15.43,0,0,1,223,40.75a16.33,16.33,0,0,0-1.9-3.06,4.08,4.08,0,0,1-.46,1.57,2.52,2.52,0,0,1-1.74,1.2,11.38,11.38,0,0,1-2.57.15,8.76,8.76,0,0,0-.89-3.16c.65,0,1.2.08,1.59.08a.72.72,0,0,0,.67-.39c.29-.48.41-2.36.48-7.51H216.9c-.05,3.73-.63,7.68-3.47,10.88a13.59,13.59,0,0,0-2.58-2.29c2.41-2.93,2.75-6.23,2.75-9.15v-4.5h-2.1V21.34h4.41a26.84,26.84,0,0,0-.87-2.93l3.13-.73a26.63,26.63,0,0,1,1.06,3.21l-1.71.45h4.63v3.23H216.9v1.9h4.64v1a23.91,23.91,0,0,0,3-9.66l3.59.55c-.2,1.28-.46,2.56-.75,3.78h6.74v3.23Zm-6.46,8.55a24.46,24.46,0,0,1-1.51-4,13.92,13.92,0,0,1-1.09,1.49,22.69,22.69,0,0,0-1.8-2.09,79.54,79.54,0,0,1-.36,8.38A11.61,11.61,0,0,0,225.9,33.89Zm.58-8.55v0a27,27,0,0,0,1.35,4.71,25.51,25.51,0,0,0,1.06-4.74Z"/><path class="cls-1" d="M255.67,24.62v.62c0,.41,0,.66.41.66h.36a5.2,5.2,0,0,0,1.37-.17,19.28,19.28,0,0,0,.17,1.95,5.21,5.21,0,0,1-1.47.17h-1.44c-1.93,0-2.22-1-2.22-2.63v-.6h-1c-.19,1.93-.94,3.13-3.66,3.61a5.74,5.74,0,0,0-.63-1.13v1.61h3c-.12-.36-.24-.72-.34-1.06l2.82-.74c.19.55.46,1.2.65,1.8H258v1.95H247.51c-.1,3.35-.46,7.37-1.57,10.16a12.62,12.62,0,0,0-2.72-1.46c1.23-3.18,1.3-7.83,1.3-11v-1.8l-.26.24a7.28,7.28,0,0,0-.82-1.06v11.6c0,1.3-.17,2.15-.91,2.65a5.13,5.13,0,0,1-3,.58,9.48,9.48,0,0,0-.77-2.94c.62.05,1.34,0,1.58,0s.32-.1.32-.37V32.64l-.87,1-.67-1.73a30.28,30.28,0,0,1-1.62,8.91,11.34,11.34,0,0,0-2.31-1.88c1.18-3.27,1.25-8.09,1.25-11.58V18.62h7v4.65a15.63,15.63,0,0,0,3.44-5.47l3.23.56c-.12.29-.24.6-.39.89h3.13l.46-.12,2.15,1.42c-.29.51-.66,1.08-1,1.64h3.8v2.43Zm-16.44,2.72c0,1,0,2.05,0,3.18.43-.31.94-.72,1.47-1.16V27.12l-.8.58a8.43,8.43,0,0,0-.62-1Zm0-5.56v2.57l.65-.41c.24.27.5.58.77.9V21.78Zm8.3,4.43c1.06-.29,1.42-.8,1.52-1.59h-1.52Zm.27,9.58h9.51v4.86h-3.18v-.77h-3.3v.77h-3Zm9.1-2.86h-8.79V31.19h8.79Zm-8.79.55h8.79v1.73h-8.79Zm.46-12c-.12.24-.27.46-.41.7h2.89c.12-.22.24-.46.36-.7Zm2.26,16v.7h3.3v-.7Z"/><path class="cls-1" d="M263.17,34.42v2h-2.94V19.78h6.91V34.42Zm0-11.44v8.24h1.23V23Zm18.9,3a31.69,31.69,0,0,1-2.94,8.67c.24,1.37.51,2.17.77,2.17s.48-1.18.58-3.35a8.61,8.61,0,0,0,2.17,1.64c-.61,4.57-1.9,5.46-2.82,5.44-1.13,0-2-1-2.65-2.82a16.3,16.3,0,0,1-2.7,2.8,14,14,0,0,0-1.9-2.17,12.9,12.9,0,0,0,2.67-2.6h-2.5v1.2h-2V28.78h4.84v6.46a9.35,9.35,0,0,0,.72-1.09,82.94,82.94,0,0,1-.84-9.92h-5.06V28c0,3.61-.29,8.93-2,12.35a9.7,9.7,0,0,0-2.31-1.54c1.49-3.11,1.61-7.59,1.61-10.81V21.18h7.66c0-1.09,0-2.22-.07-3.38h2.81v1.59l1.45-1.54A15.36,15.36,0,0,1,282.24,20l-1.06,1.21h.74v3.05h-3.66c.08,1.74.17,3.4.27,4.92a33.18,33.18,0,0,0,.89-3.66Zm-6.84,1.83H271v-2.5h4.24Zm-1.61,3.54h-.87v1.9h.87Zm4.55-10.13h1.76a17.33,17.33,0,0,0-1.79-1.5Z"/><path class="cls-1" d="M305,23.2a8.17,8.17,0,0,1-2.22,3.08,26.24,26.24,0,0,0,3.16.39,9.16,9.16,0,0,0-1.49,2h.62v2.36h-2.55v5.59h3.18V39h-3.18v1.66h-3.47V39H284.12V36.66h3.3V31.07H284.8V28.71h.29a14.45,14.45,0,0,0-1.45-.77,4,4,0,0,0,1.4-3.37V23h9.37v4.11h-7.08a5.52,5.52,0,0,1-.75,1.59h9.05a8.5,8.5,0,0,0-1.2-2,19.31,19.31,0,0,0,2.82-.46A7.48,7.48,0,0,1,296,24.81l1.37-.36h-1.95V22.67h0a7.22,7.22,0,0,0-1.11-1.08c1.88-.63,2.12-1.31,2.12-2.12V18.26h6.91v1.83c0,.41,0,.65.38.65h.56a5,5,0,0,0,1.34-.17c.05.7.08,1.38.17,2.05a4.48,4.48,0,0,1-1.44.17h-.55Zm-16.95-2.79h-3.88V18.74h3.88V17.8h3.13v.94h3.73v1.67h-3.73v.48h3.1v1.63h-9.43V20.89h3.2Zm-.41,4.18v.05c0,.29,0,.58,0,.89h.84v-.94Zm11.41,6.48h-8.23v.56h8.23Zm0,2.53h-8.23v.55h8.23Zm0,3.06v-.53h-8.23v.53Zm-7.29-12.07h-.92v.94h.92Zm11.05,4.12a15,15,0,0,1-2.82-.82,16.34,16.34,0,0,1-2.79.82ZM299,20.48a3.71,3.71,0,0,1-1.26,2.19h4.19c-1-.27-1.27-1-1.32-2.19Zm-.34,4a4.87,4.87,0,0,0,1.18.84,5.69,5.69,0,0,0,1.2-.84Z"/><path class="cls-1" d="M329.93,21.49s0,1.11,0,1.52c-.28,10.71-.53,14.61-1.54,15.94a3.44,3.44,0,0,1-2.55,1.54,22.8,22.8,0,0,1-3.9.09,8,8,0,0,0-1.16-3.39c1.54.14,3,.14,3.64.14a1.22,1.22,0,0,0,1.06-.43c.7-.75,1-4.29,1.18-12.23h-4.58a23.89,23.89,0,0,1-2,3.58,21.52,21.52,0,0,0-2-1.49V38.22h-6.31v1.71h-3.15V21.73h2.75a34.54,34.54,0,0,0,.53-3.93l3.82.53c-.41,1.18-.81,2.39-1.2,3.4H318v3.2a26.06,26.06,0,0,0,2.87-7l3.37.79c-.27.94-.58,1.88-.92,2.82Zm-15.05,3.27h-3.16V28h3.16Zm0,10.41V31h-3.16v4.15Zm7.95-.73a57.45,57.45,0,0,0-3.16-5.61l2.75-1.54c1.08,1.64,2.64,3.93,3.37,5.35Z"/><path class="cls-1" d="M339.71,18.94a43.06,43.06,0,0,1-2.19,4.84V40.65H334.2V29c-.39.48-.8.94-1.18,1.38a23.41,23.41,0,0,0-1.83-3.69,24.54,24.54,0,0,0,5.22-8.74Zm8.67,6.23v11.7c0,1.59-.24,2.56-1.23,3.14a7.57,7.57,0,0,1-3.78.69,12.32,12.32,0,0,0-1.18-3.51c.94,0,1.95,0,2.29,0s.43-.07.43-.38V25.17H342.6a20.8,20.8,0,0,1-2.24,3.45,23.23,23.23,0,0,0-2.82-2.32,19.92,19.92,0,0,0,4.19-8.42l3.45.79A33.27,33.27,0,0,1,344.07,22h7.51l.53-.1,2.48.43c-.26,2.07-.7,4.41-1,5.93l-3-.53c.1-.68.22-1.57.31-2.51Zm-4.07,4.38a24.74,24.74,0,0,1-3.15,8,19.72,19.72,0,0,0-3-1.88,16.66,16.66,0,0,0,2.72-6.83Zm7.56-1a29.88,29.88,0,0,1,2.43,7.75l-3.37,1.18a29,29,0,0,0-2.19-7.87Z"/></g></g></svg>