<svg xmlns="http://www.w3.org/2000/svg" xmlns:xlink="http://www.w3.org/1999/xlink" viewBox="0 0 37.36 37.33"><defs><style>.cls-1{fill:none;}.cls-2{fill:#fff;}.cls-3{clip-path:url(#clip-path);}.cls-4{fill:#231815;}.cls-5{fill:#1147b4;}</style><clipPath id="clip-path"><path class="cls-1" d="M16.23,18.15c-1.63,4-5.11,6.51-7.79,5.54s-3.55-5-1.93-9.07S11.64,8.05,14.33,9,17.86,14.1,16.23,18.15Z"/></clipPath></defs><g id="レイヤー_2" data-name="レイヤー 2"><g id="トンボ"><rect class="cls-2" x="1.32" y="0.97" width="34.77" height="35.46" rx="2.77"/><path class="cls-2" d="M20.12,26.29s4.66,2.42,5.49,3.1"/><path class="cls-2" d="M19.48,27.27s4.24,2.18,5.07,2.85"/><path class="cls-2" d="M18.84,28.24a51.36,51.36,0,0,1,4.77,2.66"/><g class="cls-3"><line class="cls-2" x1="8.02" y1="8.55" x2="19.57" y2="12.77"/><line class="cls-2" x1="7.35" y1="10.22" x2="18.9" y2="14.43"/><line class="cls-2" x1="6.69" y1="11.88" x2="18.23" y2="16.08"/><line class="cls-2" x1="6.03" y1="13.54" x2="17.56" y2="17.74"/><line class="cls-2" x1="5.36" y1="15.2" x2="16.9" y2="19.39"/><line class="cls-2" x1="4.7" y1="16.86" x2="16.23" y2="21.04"/><line class="cls-2" x1="4.04" y1="18.51" x2="15.56" y2="22.68"/><line class="cls-2" x1="3.38" y1="20.16" x2="14.9" y2="24.33"/><line class="cls-2" x1="2.94" y1="22.24" x2="9.38" y2="6.14"/><polygon class="cls-4" points="3.17 22.33 2.72 22.15 9.16 6.05 9.6 6.23 3.17 22.33"/><line class="cls-2" x1="4.47" y1="22.79" x2="10.91" y2="6.7"/><line class="cls-2" x1="5.99" y1="23.34" x2="12.43" y2="7.26"/><line class="cls-2" x1="7.51" y1="23.89" x2="13.96" y2="7.82"/><line class="cls-2" x1="9.03" y1="24.44" x2="15.49" y2="8.38"/><line class="cls-2" x1="10.55" y1="24.98" x2="17.01" y2="8.93"/><line class="cls-2" x1="12.07" y1="25.53" x2="18.54" y2="9.5"/><rect class="cls-5" x="13.55" y="4.51" width="0.48" height="12.3" transform="matrix(0.34, -0.94, 0.94, 0.34, -0.95, 19.96)"/><rect class="cls-5" x="12.89" y="6.18" width="0.48" height="12.29" transform="translate(-2.95 20.43) rotate(-69.97)"/><polygon class="cls-5" points="18.15 16.31 6.61 12.11 6.77 11.66 18.31 15.86 18.15 16.31"/><polygon class="cls-5" points="17.48 17.96 5.94 13.77 6.11 13.31 17.64 17.51 17.48 17.96"/><polygon class="cls-5" points="16.81 19.61 5.28 15.43 5.45 14.98 16.98 19.16 16.81 19.61"/><polygon class="cls-5" points="16.15 21.26 4.62 17.08 4.78 16.64 16.31 20.81 16.15 21.26"/><rect class="cls-5" x="9.56" y="14.47" width="0.48" height="12.25" transform="translate(-12.9 22.8) rotate(-70.1)"/><polygon class="cls-5" points="14.82 24.55 3.3 20.39 3.46 19.94 14.98 24.1 14.82 24.55"/><rect class="cls-5" x="-0.98" y="14.51" width="17.33" height="0.48" transform="translate(-8.86 16.39) rotate(-68.16)"/><rect class="cls-5" x="0.55" y="15.06" width="17.32" height="0.48" transform="translate(-8.42 18.16) rotate(-68.16)"/><rect class="cls-5" x="2.08" y="15.61" width="17.31" height="0.48" transform="translate(-7.97 19.92) rotate(-68.16)"/><rect class="cls-5" x="3.6" y="16.17" width="17.31" height="0.48" transform="translate(-7.54 21.64) rotate(-68.05)"/><rect class="cls-5" x="5.13" y="16.72" width="17.3" height="0.48" transform="translate(-7.1 23.4) rotate(-68.05)"/><rect class="cls-5" x="6.66" y="17.27" width="17.29" height="0.48" transform="translate(-6.66 25.16) rotate(-68.05)"/><line class="cls-2" x1="13.58" y1="26.08" x2="20.06" y2="10.05"/><rect class="cls-4" x="8.18" y="17.82" width="17.28" height="0.48" transform="translate(-6.22 26.91) rotate(-68.05)"/></g><path class="cls-1" d="M34.2,7.73a6,6,0,0,1-.73-.05,5.79,5.79,0,0,1-3.9-2.21,5.78,5.78,0,0,1-1.22-4h-6L26,2.26a.43.43,0,0,1,.07.81L20.79,5.2l5.66-.52a.42.42,0,0,1,.43.26.43.43,0,0,1-.12.49L22.35,9l5.26-2.16a.42.42,0,0,1,.51.62L25,12.2l4.38-3.62a.44.44,0,0,1,.5,0A.42.42,0,0,1,30,9L28.4,14.48l3.12-4.75a.42.42,0,0,1,.35-.19l.12,0a.41.41,0,0,1,.3.4l.06,5.68,1.59-5.46a.41.41,0,0,1,.4-.3h0a.41.41,0,0,1,.4.29l1.09,3.42V7.48A5.9,5.9,0,0,1,34.2,7.73Z"/><path class="cls-1" d="M33.59,1.49H29.2a5,5,0,0,0,1,3.46,5,5,0,0,0,3.34,1.89,4.79,4.79,0,0,0,2.26-.26V3.73A2.24,2.24,0,0,0,33.59,1.49Z"/><path class="cls-1" d="M17.46,1.33l.79.16L24.46,2.8,17.82,5.49a.42.42,0,0,0,.2.81l7.13-.66L19.6,10.16a.45.45,0,0,0-.1.55.42.42,0,0,0,.52.17l6.63-2.73-4,6a.43.43,0,0,0,.07.55.41.41,0,0,0,.55,0l5.52-4.56-2,6.87a.42.42,0,0,0,.23.5.41.41,0,0,0,.53-.15l3.93-6,.08,7.16a.41.41,0,0,0,.36.41H32a.43.43,0,0,0,.4-.31l2-6.88,1.47,4.62v5.32l.75-.89V3.73a3,3,0,0,0-3-3H17.18a.45.45,0,0,0-.06.14A.43.43,0,0,0,17.46,1.33Z"/><path class="cls-1" d="M4.24,26c0-.65-.12-1.32-.19-2-.34-3.28-.73-7,1-10.9l.78.36c-1.69,3.68-1.33,7.12-1,10.45.08.69.15,1.37.2,2,.08,1.13-.63,3.51-1.47,5.79l1.13.51C5.83,30.17,7.1,28,8.05,27.32c.75-.55,1.55-1.07,2.33-1.56,2.51-1.61,5.1-3.26,6.65-6.64l.77.35c-1.65,3.61-4.35,5.33-7,7-.8.52-1.56,1-2.28,1.53-1.25.92-3.4,5.21-4.61,7.84H33.59a2.24,2.24,0,0,0,2.24-2.24V16.36l-1.47-4.62-2,6.88a.43.43,0,0,1-.4.31H31.9a.41.41,0,0,1-.36-.41l-.08-7.16-3.93,6a.41.41,0,0,1-.53.15.42.42,0,0,1-.23-.5l2-6.87-5.52,4.56a.41.41,0,0,1-.55,0,.43.43,0,0,1-.07-.55l4-6L20,10.88a.42.42,0,0,1-.52-.17.45.45,0,0,1,.1-.55l5.55-4.52L18,6.3a.42.42,0,0,1-.2-.81L24.46,2.8,18.25,1.49H3.73A2.25,2.25,0,0,0,1.49,3.73V33.6a2.37,2.37,0,0,0,.14.75c.22-.47.44-1,.68-1.53C3.31,30.25,4.33,27.21,4.24,26Z"/><path class="cls-5" d="M20.23,26.08a.24.24,0,0,0-.32.1.25.25,0,0,0,.1.33s4.65,2.41,5.45,3.07a.3.3,0,0,0,.15.05.25.25,0,0,0,.19-.09.24.24,0,0,0,0-.33C24.93,28.52,20.42,26.18,20.23,26.08Z"/><path class="cls-5" d="M19.59,27.05a.24.24,0,0,0-.22.43s4.23,2.18,5,2.83a.23.23,0,0,0,.15.05.27.27,0,0,0,.19-.08.24.24,0,0,0,0-.34A57.53,57.53,0,0,0,19.59,27.05Z"/><path class="cls-5" d="M19,28a.24.24,0,0,0-.32.11.23.23,0,0,0,.1.32,52.92,52.92,0,0,1,4.73,2.63.22.22,0,0,0,.15.06.21.21,0,0,0,.18-.09.23.23,0,0,0,0-.33A48.12,48.12,0,0,0,19,28Z"/><path class="cls-5" d="M37.33,16.28V3.73A3.74,3.74,0,0,0,33.59,0H3.73A3.73,3.73,0,0,0,0,3.73V33.6A3.75,3.75,0,0,0,.87,36l.08.09.23.25.34.28.09.07a3.77,3.77,0,0,0,.85.43,3.24,3.24,0,0,0,.41.13l.44.07h0c.14,0,.27,0,.42,0H33.59a3.74,3.74,0,0,0,3.74-3.73V19.89l-.75.9-.75.89V33.6a2.24,2.24,0,0,1-2.24,2.24H4C5.16,33.21,7.31,28.92,8.56,28c.72-.53,1.48-1,2.28-1.53,2.61-1.67,5.31-3.39,7-7a12.24,12.24,0,0,0,.95-7.16A6.5,6.5,0,0,0,15.4,7.39a6.36,6.36,0,0,0-6,.73c0-.07-.08-.14-.13-.21a3.47,3.47,0,0,0-4.87-.66,3.47,3.47,0,0,0,.72,5.93c-1.75,3.87-1.37,7.57-1,10.84.07.68.14,1.35.19,2,.09,1.19-.93,4.23-1.93,6.8-.24.55-.46,1.06-.68,1.53a2.37,2.37,0,0,1-.14-.75V3.73A2.25,2.25,0,0,1,3.73,1.49H18.25L24.46,2.8,17.82,5.49a.42.42,0,0,0,.2.81l7.13-.66L19.6,10.16a.45.45,0,0,0-.1.55.42.42,0,0,0,.52.17l6.63-2.73-4,6a.43.43,0,0,0,.07.55.41.41,0,0,0,.55,0l5.52-4.56-2,6.87a.42.42,0,0,0,.23.5.41.41,0,0,0,.53-.15l3.93-6,.08,7.16a.41.41,0,0,0,.36.41H32a.43.43,0,0,0,.4-.31l2-6.88,1.47,4.62V18c-4.07,5-7.87,9.58-8.14,9.84-.52.5-.56.54-1,.2l-.3-.23a32.27,32.27,0,0,0-5.09-3.37c-.79-.3-1.78-.54-2.44.38s-2.06,3.53-1.76,5.09a2.43,2.43,0,0,0,2.06,1.92,24.71,24.71,0,0,0,4,.65,2.31,2.31,0,0,0,2.29,2.69l.32,0a2.34,2.34,0,0,0,2-2.62,2.4,2.4,0,0,0-.46-1.1,7.11,7.11,0,0,0,1.58-1.33l7-8.4,1.5-1.79V18.6a.09.09,0,0,1,0-.05.5.5,0,0,0,0-.12v-1ZM33.59,1.49a2.24,2.24,0,0,1,2.24,2.24V6.58a4.79,4.79,0,0,1-2.26.26A5,5,0,0,1,30.23,5a5,5,0,0,1-1-3.46ZM17.51.49a.41.41,0,0,0-.21.1A.38.38,0,0,1,17.51.49ZM13.08,9.24a3.14,3.14,0,0,1,1.1.19,3.48,3.48,0,0,1,1.94,1.94A8.78,8.78,0,0,1,15.83,18c-1.53,3.81-4.78,6.19-7.24,5.3a3.44,3.44,0,0,1-1.94-1.92,8.76,8.76,0,0,1,.26-6.6,12.29,12.29,0,0,1,.74-1.5A3.46,3.46,0,0,0,9.88,10.6,5.17,5.17,0,0,1,13.08,9.24Zm-5.17.84a2.16,2.16,0,0,1,.8-1.39,2.58,2.58,0,0,1,.35,1.67A2.55,2.55,0,0,1,8.21,12,2.85,2.85,0,0,1,7.91,10.08ZM6.46,7.39l.36,0A2.54,2.54,0,0,1,8.18,8,3,3,0,0,0,7.07,9.93a3.65,3.65,0,0,0,.44,2.48,2.64,2.64,0,0,1-1.4.21,2.62,2.62,0,0,1-1.28-.57A3.7,3.7,0,0,0,5.9,9.78a3,3,0,0,0-.56-2.12A2.57,2.57,0,0,1,6.46,7.39ZM3.87,9.66a2.63,2.63,0,0,1,.78-1.52,2.11,2.11,0,0,1,.4,1.56,2.87,2.87,0,0,1-.78,1.72A2.56,2.56,0,0,1,3.87,9.66ZM5.09,26c0-.66-.12-1.34-.2-2-.34-3.33-.7-6.77,1-10.45,0,0,0,0,0-.05l.1,0,.46,0h.13a8.81,8.81,0,0,0-.47,1,9.56,9.56,0,0,0-.25,7.25A4.26,4.26,0,0,0,8.3,24.09a3.76,3.76,0,0,0,1.33.23c2.62,0,5.54-2.42,7-6A9.6,9.6,0,0,0,16.89,11a4.27,4.27,0,0,0-2.41-2.4,5.08,5.08,0,0,0-4.59.91,2.89,2.89,0,0,0-.16-.66A5.52,5.52,0,0,1,15,8.16a5.66,5.66,0,0,1,2.87,4.31A11.35,11.35,0,0,1,17,19.12c-1.55,3.38-4.14,5-6.65,6.64-.78.49-1.58,1-2.33,1.56-1,.7-2.22,2.85-3.3,4.94l-1.13-.51C4.46,29.47,5.17,27.09,5.09,26ZM17.18.75h0a.45.45,0,0,0-.06.14A.45.45,0,0,1,17.18.75Zm17.56,9.42a.41.41,0,0,0-.4-.29h0a.41.41,0,0,0-.4.3l-1.59,5.46L32.29,10a.41.41,0,0,0-.3-.4l-.12,0a.42.42,0,0,0-.35.19L28.4,14.48,30,9a.42.42,0,0,0-.18-.47.44.44,0,0,0-.5,0L25,12.2l3.16-4.73a.42.42,0,0,0-.51-.62L22.35,9l4.41-3.58a.43.43,0,0,0,.12-.49.42.42,0,0,0-.43-.26l-5.66.52,5.27-2.13A.43.43,0,0,0,26,2.26l-3.66-.77h6a5.78,5.78,0,0,0,1.22,4,5.79,5.79,0,0,0,3.9,2.21,6,6,0,0,0,.73.05,5.9,5.9,0,0,0,1.63-.25v6.11ZM26.59,33.71h0a1.48,1.48,0,1,1-1.38-2.37h.19a1.47,1.47,0,0,1,.9.31,1.5,1.5,0,0,1,.58,1A1.47,1.47,0,0,1,26.59,33.71Zm1.6-4.17a6.49,6.49,0,0,1-1.59,1.29,2.27,2.27,0,0,0-1.51-.33,2.31,2.31,0,0,0-1.54.9,1.76,1.76,0,0,0-.14.23,23.61,23.61,0,0,1-4-.64c-.83-.23-1.31-.5-1.46-1.26-.23-1.19,1-3.51,1.62-4.44.18-.25.44-.46,1.44-.07a33,33,0,0,1,4.89,3.25l.3.23c1,.78,1.59.25,2.12-.27.25-.24,3.79-4.53,7.55-9.11v1Z"/></g></g></svg>