<svg xmlns="http://www.w3.org/2000/svg" viewBox="0 0 37.33 37.33"><defs><style>.cls-1{fill:#fff;}.cls-2{fill:none;}.cls-3{fill:#1147b4;}</style></defs><g id="レイヤー_2" data-name="レイヤー 2"><g id="トンボ"><rect class="cls-1" x="1.29" y="0.97" width="34.77" height="35.46" rx="2.77"/><path class="cls-2" d="M35.84,3.73a2.25,2.25,0,0,0-2.25-2.24H3.73A2.25,2.25,0,0,0,1.49,3.73v19H35.84Z"/><path class="cls-2" d="M34.2,7.73a6.11,6.11,0,0,1-.73-.05,5.84,5.84,0,0,1-5.12-6.19h-6L26,2.26a.41.41,0,0,1,.33.38.42.42,0,0,1-.26.43L20.79,5.2l5.66-.52a.42.42,0,0,1,.31.74L22.35,9l5.26-2.16a.41.41,0,0,1,.48.12.42.42,0,0,1,0,.5L25,12.2l4.38-3.62a.45.45,0,0,1,.51,0A.43.43,0,0,1,30,9L28.4,14.48l3.12-4.75a.42.42,0,0,1,.35-.19l.12,0a.43.43,0,0,1,.31.4l.05,5.68,1.59-5.46a.43.43,0,0,1,.81,0l1.09,3.42V7.48A6,6,0,0,1,34.2,7.73Z"/><path class="cls-2" d="M33.59,1.49H29.2a5,5,0,0,0,4.38,5.35,4.82,4.82,0,0,0,2.26-.26V3.73A2.25,2.25,0,0,0,33.59,1.49Z"/><path class="cls-3" d="M33.59,0H3.73A3.73,3.73,0,0,0,0,3.73V33.6a3.74,3.74,0,0,0,3.73,3.73H33.59a3.75,3.75,0,0,0,3.74-3.73V3.73A3.74,3.74,0,0,0,33.59,0ZM1.49,9.2a4.5,4.5,0,0,1,1.67.68.42.42,0,0,0,.53-.05,2.61,2.61,0,0,1,1.85-.74A.44.44,0,0,0,6,8.76a3.83,3.83,0,0,1,7.55.86.42.42,0,0,0,.33.41,3.26,3.26,0,0,1,2.56,3.18,3.16,3.16,0,0,1-.65,1.92.43.43,0,0,0-.08.33.45.45,0,0,0,.19.28,2,2,0,0,1,.87,1.55.43.43,0,0,0,.35.39,2.91,2.91,0,0,1,2.31,2.11.43.43,0,0,0,.44.31l.16,0h.15a3.6,3.6,0,0,1,3.46,2.62H1.49ZM12.6,32.81a1.63,1.63,0,0,0,1.62-1.62.4.4,0,0,1,.8,0,1.62,1.62,0,0,0,3.24,0,.4.4,0,1,1,.8,0,1.63,1.63,0,0,0,3.25,0,.4.4,0,1,1,.8,0,1.63,1.63,0,0,0,1.62,1.62.4.4,0,1,1,0,.8,2.41,2.41,0,0,1-2-1.09,2.43,2.43,0,0,1-4.05,0,2.42,2.42,0,0,1-4,0,2.42,2.42,0,0,1-2,1.09.4.4,0,1,1,0-.8ZM10.51,27.4a2.42,2.42,0,0,1-4,0,2.43,2.43,0,0,1-2,1.09.4.4,0,0,1,0-.8,1.63,1.63,0,0,0,1.63-1.62.4.4,0,0,1,.8,0,1.62,1.62,0,1,0,3.24,0,.4.4,0,1,1,.8,0,1.62,1.62,0,0,0,3.24,0,.41.41,0,0,1,.81,0,1.62,1.62,0,0,0,1.62,1.62.4.4,0,1,1,0,.8,2.43,2.43,0,0,1-2-1.09,2.4,2.4,0,0,1-2,1.09A2.42,2.42,0,0,1,10.51,27.4Zm14.28,1.09a2.42,2.42,0,0,1-2-1.09,2.41,2.41,0,0,1-2,1.09.4.4,0,0,1,0-.8,1.63,1.63,0,0,0,1.62-1.62.4.4,0,0,1,.8,0,1.63,1.63,0,0,0,3.25,0,.4.4,0,0,1,.8,0,1.62,1.62,0,1,0,3.24,0,.4.4,0,0,1,.8,0,1.63,1.63,0,0,0,1.62,1.62.4.4,0,0,1,0,.8,2.42,2.42,0,0,1-2-1.09,2.42,2.42,0,0,1-4,0A2.43,2.43,0,0,1,24.79,28.49Zm-.33-5.8a4.45,4.45,0,0,0-4.32-3.47h0a3.76,3.76,0,0,0-2.56-2.3,2.8,2.8,0,0,0-.88-1.62,4.07,4.07,0,0,0-2.32-6,4.66,4.66,0,0,0-9.11-1A3.5,3.5,0,0,0,3.35,9a5.31,5.31,0,0,0-1.86-.66V3.73A2.25,2.25,0,0,1,3.73,1.49H18.26l6.2,1.31L17.82,5.49a.42.42,0,0,0-.25.49A.42.42,0,0,0,18,6.3l7.13-.66L19.6,10.16a.45.45,0,0,0-.1.55.43.43,0,0,0,.53.17l6.62-2.73-4,6a.44.44,0,0,0,.07.55.42.42,0,0,0,.55,0l5.53-4.56L26.77,17a.42.42,0,0,0,.23.5.41.41,0,0,0,.53-.15l3.94-6,.07,7.16a.41.41,0,0,0,.36.41H32a.43.43,0,0,0,.4-.31l2-6.88,1.48,4.62v6.33Zm9.13-21.2a2.25,2.25,0,0,1,2.25,2.24V6.58a4.82,4.82,0,0,1-2.26.26A5,5,0,0,1,29.2,1.49Zm-4,4a5.83,5.83,0,0,0,3.9,2.21,6.11,6.11,0,0,0,.73.05,6,6,0,0,0,1.64-.25v6.11l-1.09-3.42a.43.43,0,0,0-.81,0l-1.59,5.46L32.3,10a.43.43,0,0,0-.31-.4l-.12,0a.42.42,0,0,0-.35.19L28.4,14.48,30,9a.43.43,0,0,0-.17-.47.45.45,0,0,0-.51,0L25,12.2l3.16-4.73a.42.42,0,0,0,0-.5.41.41,0,0,0-.48-.12L22.35,9l4.41-3.59a.42.42,0,0,0-.31-.74l-5.66.52,5.27-2.13a.42.42,0,0,0,.26-.43A.41.41,0,0,0,26,2.26l-3.65-.77h6A5.83,5.83,0,0,0,29.57,5.47Z"/><path class="cls-3" d="M8.76,15.39a3,3,0,0,0,.06-.59,3,3,0,0,0-3-3,.42.42,0,0,0-.43.42.42.42,0,0,0,.43.42,2.16,2.16,0,0,1,2,2.95.43.43,0,0,0,.37.58,2.17,2.17,0,0,1-.11,4.33.43.43,0,0,0,0,.85,3,3,0,0,0,.67-5.95Z"/></g></g></svg>