<?xml version="1.0" encoding="utf-8"?>
<!-- Generator: Adobe Illustrator 26.0.3, SVG Export Plug-In . SVG Version: 6.00 Build 0)  -->
<svg version="1.1" id="lead-product.svg" xmlns="http://www.w3.org/2000/svg" xmlns:xlink="http://www.w3.org/1999/xlink" x="0px"
	 y="0px" viewBox="0 0 180.7 49.2" style="enable-background:new 0 0 180.7 49.2;" xml:space="preserve">
<style type="text/css">
	.st0{fill:#1147B4;}
</style>
<g>
	<path d="M5.4,7.4c-0.2,1.2-0.4,2.2-0.8,3c0.9,1.3,2.4,1.5,4.6,1.5c1.5,0,3.8-0.1,5.4-0.2c-0.2,0.3-0.5,1.1-0.5,1.5
		c-1.4,0.1-3.2,0.1-4.8,0.1c-2.5,0-4.1-0.3-5.2-1.6c-0.5,0.8-1.1,1.4-1.8,1.9c-0.2-0.3-0.8-0.9-1.1-1.1c1.3-0.8,2.2-2.1,2.7-4H2.5
		c-0.3,0-0.7,0.1-0.9,0.2c0-0.4-0.3-1.1-0.5-1.4c0.2-0.1,0.5-0.2,0.7-0.4c0.3-0.3,0.8-1,1.4-1.8H1.4V3.8h2.8l0.2-0.1l1,0.5
		C4.9,5,4,6.2,3.3,7.2h1h0.3L5.4,7.4z M3.6,3.5C3.2,3,2.4,2,1.8,1.3L3,0.5C3.7,1.2,4.4,2,4.8,2.6L3.6,3.5z M7.2,2.8H5.4V1.5h3.3
		C8.6,1.3,8.5,1,8.3,0.8l1.3-0.5c0.3,0.3,0.6,0.8,0.8,1.1h3.7v1.3h-1.6c-0.2,0.4-0.4,0.7-0.5,1h1.9v6c0,0.7-0.1,1.1-0.6,1.3
		c-0.4,0.2-1.1,0.3-1.9,0.3c-0.1-0.3-0.2-0.8-0.4-1.2H9v0.4H8v-3h1.3V6.8H7.6v-1h1.7V5H7.4v6.2H5.9V3.8h1.4c0-0.3-0.2-0.7-0.3-1H7.2
		z M10.5,3.8c0.1-0.3,0.3-0.7,0.4-1H8.5c0.2,0.3,0.3,0.7,0.4,1H10.5z M10.6,8.5H9.1v0.7h1.5V8.5z M12.3,5h-1.9v0.7h1.7v1h-1.7v0.8
		h1.3V10h0.4c0.2,0,0.2-0.1,0.2-0.2V5z"/>
	<path d="M23.4,1.2c-0.2,0.2-0.3,0.4-0.5,0.6c1.8,1.7,3.7,2.6,5.5,3.3c-0.4,0.4-0.9,1-1.1,1.5c-0.7-0.3-1.4-0.7-2-1v0.9h-7V5.9
		c-0.6,0.4-1.2,0.7-1.9,1c-0.3-0.5-0.8-1.1-1.2-1.5c2.6-1,5.2-2.7,6.7-4.9L23.4,1.2z M17.4,7.8h9v5.8h-1.8V13h-5.5v0.6h-1.7V7.8z
		 M19.1,9.2v2.2h5.5V9.2H19.1z M24.4,5c-0.8-0.5-1.6-1.2-2.4-2c-0.7,0.7-1.5,1.4-2.3,2H24.4z"/>
	<path d="M31.8,6.2c-0.5,0.8-1,1.5-1.6,2c-0.2-0.4-0.7-0.9-1.1-1.1C30,6.4,30.9,5.2,31.5,4h-2V2.5h2.3v-2h1.6v2h2v1.4h-2v0.5
		c0.6,0.3,1.9,1.3,2.2,1.5l-0.9,1.3C34.4,7,33.9,6.5,33.4,6v2.9h-1.6C31.8,8.9,31.8,6.2,31.8,6.2z M29.3,12.1c0.5-0.7,1-1.9,1.2-2.9
		L32,9.8c-0.3,1-0.7,2.2-1.2,3.1L29.3,12.1z M37.3,11.9c0.7,0,0.8-0.2,0.8-1.6c0.3,0.3,1,0.5,1.5,0.6c-0.2,2-0.7,2.5-2.2,2.5h-2.5
		c-1.9,0-2.4-0.5-2.4-1.9v-2h1.7v1.9c0,0.4,0.1,0.5,0.9,0.5H37.3z M35.6,8.4l0.3,0.3V1.2h5.7v7.5H36c0.5,0.5,1.1,1.1,1.5,1.5l-1.2,1
		c-0.4-0.5-1.2-1.4-1.8-1.9L35.6,8.4z M37.4,3.4H40V2.6h-2.6V3.4z M37.4,5.4H40V4.6h-2.6V5.4z M37.4,7.5H40V6.6h-2.6V7.5z M40.7,9
		c0.6,0.9,1.4,2.1,1.8,2.8l-1.6,0.8c-0.3-0.7-1.1-2-1.7-2.9L40.7,9z"/>
	<path d="M53.4,9.8c-0.4,0.6-0.8,1.1-1.3,1.5c1.5,0.4,2.8,0.7,3.9,1.1l-1.5,1.2c-1-0.4-2.4-0.8-4-1.2c-1.6,0.7-3.7,1.1-6.4,1.3
		c-0.1-0.5-0.4-1.1-0.6-1.4c1.7-0.1,3.2-0.2,4.4-0.5c-0.9-0.2-1.8-0.4-2.7-0.5c0.3-0.4,0.7-0.8,1.1-1.3h-2.7V8.5H47
		c0.3-0.4,0.5-0.9,0.7-1.3h-3.4V3.3h3V2.5h-3.7V1h12.2v1.4H52v0.8h3.3v3.9h-7.5l1.5,0.3C49.2,7.7,49,8,48.8,8.3h3.4
		c0.1-0.3,0.2-0.5,0.3-0.8l1.6,0.4C54.1,8,54,8.2,54,8.3h2.1v1.4h-2.7V9.8z M45.9,5.9h1.5V4.6h-1.5V5.9z M48,9.8
		c-0.1,0.2-0.3,0.4-0.4,0.5c0.8,0.2,1.7,0.3,2.5,0.5c0.5-0.3,0.9-0.6,1.3-1H48z M48.9,3.3h1.6V2.5h-1.6V3.3z M50.5,5.9V4.6h-1.6v1.3
		C48.9,5.9,50.5,5.9,50.5,5.9z M52.1,4.6v1.3h1.7V4.6H52.1z"/>
	<path d="M61.9,1.1c-0.4,1-0.8,2-1.4,2.9v9.6H59V6.4c-0.3,0.4-0.7,0.8-1,1.1c-0.2-0.4-0.6-1.3-0.9-1.7c1.3-1.3,2.6-3.2,3.3-5.2
		L61.9,1.1z M64.4,9.6c-0.6,1.2-1.4,2.6-2.1,3.4c-0.3-0.3-0.9-0.7-1.3-0.9c0.7-0.8,1.5-1.9,1.9-3L64.4,9.6z M66.6,8.7v4.9h-1.7V8.7
		h-3.7V7.2h3.7V6h-2.7V1.1h7.4V6h-2.9v1.2h3.6v1.5H66.6z M63.8,4.5h4.1V2.6h-4.1C63.8,2.6,63.8,4.5,63.8,4.5z M68.3,9.1
		c0.8,0.9,1.7,2.1,2.1,3l-1.3,0.8c-0.4-0.8-1.2-2.1-2-3.1L68.3,9.1z"/>
	<path d="M75.8,8c-0.4,0.1-0.8,0.3-1.3,0.4v3.3c0,0.8-0.1,1.2-0.6,1.4c-0.4,0.3-1,0.3-1.9,0.3c0-0.4-0.2-1.1-0.4-1.5
		c0.5,0,1,0,1.2,0s0.2-0.1,0.2-0.2V8.8l-1.5,0.4l-0.4-1.6c0.5-0.1,1.1-0.3,1.8-0.5V4.7h-1.6V3.2H73V0.6h1.5v2.6h1.1v1.5h-1.1v2
		l1.1-0.3L75.8,8z M84.3,2.1v1.5h-3.4v1.1h2.8v1.5h-7.2V4.8h2.8V3.7h-3.5V2.1h3.5V0.6h1.6v1.5H84.3z M82.7,7.5h1.5V9h-1.5v2.9
		c0,0.8-0.2,1.2-0.7,1.5c-0.5,0.2-1.3,0.3-2.3,0.3c-0.1-0.5-0.3-1.1-0.5-1.6c0.6,0,1.4,0,1.6,0s0.3,0,0.3-0.2V9H76V7.5h5.2v-1h1.6
		L82.7,7.5L82.7,7.5z M78,9.1c0.5,0.7,1.2,1.7,1.6,2.3l-1.4,0.8c-0.3-0.6-1-1.7-1.5-2.5L78,9.1z"/>
	<path d="M96.9,11.8c0.1,0,0.1,0,0.2-0.1c0-0.1,0.1-0.2,0.1-0.5s0-1,0-1.8c0.3,0.3,0.9,0.6,1.3,0.7c0,0.7-0.1,1.7-0.2,2.1
		s-0.2,0.7-0.5,0.9c-0.2,0.2-0.5,0.2-0.8,0.2h-0.8c-0.3,0-0.7-0.1-1-0.4c-0.3-0.3-0.4-0.6-0.4-1.8V2.6h-1.5v4.1c0,2.2-0.2,5.2-1.5,7
		c-0.3-0.3-1-0.8-1.4-1c-0.1,0.2-0.2,0.3-0.4,0.4c-0.4,0.3-1,0.3-1.9,0.3c0-0.4-0.3-1.2-0.5-1.6c0.5,0,1,0,1.2,0s0.2-0.1,0.2-0.3
		V8.4c-0.3,0.3-0.7,0.7-1,1l-0.4-0.8c-0.1,1.8-0.4,3.7-1,5c-0.3-0.2-1-0.6-1.4-0.8c0.9-1.9,0.9-4.7,0.9-6.8V1h4.5v10.7
		c0,0.4,0,0.7-0.1,0.9c1.1-1.6,1.2-4,1.2-5.9V1h4.8v10.1c0,0.4,0,0.5,0.1,0.6c0,0.1,0.1,0.1,0.1,0.1S96.9,11.8,96.9,11.8z M87.6,6.1
		c0,0.6,0,1.2,0,1.8c0.4-0.3,0.9-0.6,1.5-1v-1l-0.5,0.4c-0.2-0.3-0.6-0.7-1-1.1V6.1z M87.6,2.6v1.6L88,3.9c0.3,0.3,0.7,0.6,1,1V2.6
		H87.6z"/>
	<path d="M109.7,5.1c0.5,0,1.6-0.1,1.9-0.1c0,0.4,0.1,0.7,0.1,1c-0.4,0.1-1.1,0.1-1.8,0.1h-3.3c-1.3,0-1.7-0.4-1.8-1.2L102.5,5V4.3
		l2.3-0.1V3.7H102v2.5c0,2.1-0.2,5.3-1.4,7.3c-0.3-0.3-1-0.7-1.4-0.8c1.1-1.9,1.2-4.6,1.2-6.5V2.6h4.4V0.5h1.7v0.6h4.4v1h-4.4v0.4h4
		l0.3-0.1l1.2,0.3c-0.3,0.7-0.6,1.5-0.9,2l-1.4-0.4c0.1-0.2,0.2-0.5,0.3-0.7h-3.7V4l3.1-0.1v0.7l-3.1,0.1c0,0.2,0.2,0.3,0.6,0.3
		L109.7,5.1L109.7,5.1z M110.6,12.3c0,0.6-0.1,0.9-0.5,1.1c-0.4,0.2-1,0.2-1.8,0.2c-0.1-0.3-0.3-0.7-0.4-1c0.4,0,0.8,0,1,0
		c0.1,0,0.2,0,0.2-0.2V12c-1.3,0.2-2.6,0.4-3.7,0.6l-0.3-1.1c0.8-0.1,1.8-0.2,2.9-0.3c-0.7-0.2-1.8-0.5-2.7-0.6l0.4-0.6
		c1,0.1,2.4,0.4,3.1,0.6l-0.3,0.6l0.7-0.1V10h-4.1v0.8c0,1-0.2,2.2-1.1,2.9c-0.3-0.3-1-0.8-1.3-1c0.8-0.6,0.8-1.3,0.8-2V9.4h7.3v2.9
		H110.6z M102.6,6.3h8.7V9h-8.7V6.3z M104.1,7.4h2V7h-2V7.4z M104.1,8.4h2V8h-2V8.4z M109.7,7h-2.1v0.4h2.1V7z M109.7,8h-2.1v0.4
		h2.1V8z"/>
	<path d="M125.1,2.6v11h-1.8v-0.9h-7.1v0.9h-1.7v-11h3.5c0.2-0.7,0.5-1.5,0.6-2.1l2.2,0.3c-0.3,0.6-0.5,1.2-0.8,1.8
		C120,2.6,125.1,2.6,125.1,2.6z M116.2,4.3v2.5h7.1V4.3H116.2z M123.3,11V8.4h-7.1V11H123.3z"/>
	<path d="M129.6,5.2c-0.4,0.8-1,1.5-1.5,1.9c-0.2-0.4-0.7-0.9-1.1-1.2c0.8-0.6,1.6-1.6,2.2-2.6h-1.8V2h2.1V0.6h1.6V2h1.9v1.3h-1.9
		v0.3c0.6,0.3,1.6,0.9,1.9,1L132.2,6c-0.3-0.3-0.7-0.6-1.1-1v2.5h-1.6V5.2H129.6z M136.7,7.5V4.7h-1.6c-0.1,0.8-0.4,1.7-1,2.4
		l0.8,0.2c-0.2,0.3-0.4,0.5-0.6,0.8h4.2v5.6h-1.7v-0.4H131v0.5h-1.6V8h3.2c0.2-0.4,0.3-0.8,0.4-1.1l0,0c-0.2-0.2-0.4-0.3-0.6-0.4
		c1.1-0.9,1.2-2.1,1.2-3.1v-2c1.8-0.2,3.7-0.5,4.9-0.9l1.1,1.2c-1.3,0.4-2.9,0.6-4.5,0.8v0.9h5v1.3h-1.8v2.7h-1.6V7.5z M136.8,9.3
		H131V10h5.8V9.3z M136.8,11.9v-0.7H131v0.7H136.8z"/>
	<path d="M154,2.7c0,0,0,0.6,0,0.8c-0.2,6.3-0.3,8.5-0.9,9.2c-0.4,0.5-0.8,0.7-1.3,0.8s-1.4,0.1-2.2,0c0-0.5-0.3-1.2-0.5-1.6
		c0.9,0.1,1.7,0.1,2.1,0.1c0.3,0,0.4-0.1,0.6-0.2c0.4-0.4,0.6-2.5,0.7-7.5h-3c-0.4,0.8-0.8,1.6-1.2,2.2c-0.2-0.2-0.7-0.5-1.1-0.8
		v6.5h-3.7v1H142V2.8h1.6c0.2-0.7,0.4-1.6,0.4-2.3l1.8,0.3c-0.2,0.7-0.5,1.4-0.7,2h2.2v2.3c0.8-1.2,1.5-2.9,1.9-4.5l1.6,0.4
		c-0.2,0.6-0.3,1.2-0.5,1.8L154,2.7L154,2.7z M145.6,4.2h-2.2v2.3h2.2V4.2z M145.6,10.7V8h-2.2v2.7H145.6z M150.2,10
		c-0.4-0.8-1.3-2.2-1.9-3.2l1.3-0.7c0.7,1,1.6,2.3,2.1,3.1L150.2,10z"/>
	<path d="M162.6,0.6c0,0.6,0,1.3-0.1,2.2c0.2,1.9,1.1,7.2,5.9,9.3c-0.5,0.4-1,1-1.2,1.4c-3.1-1.5-4.7-4.2-5.5-6.6
		c-0.8,2.5-2.2,5-5.2,6.7c-0.3-0.4-0.8-1-1.4-1.4c5.7-3,5.4-9.3,5.5-11.7L162.6,0.6L162.6,0.6z"/>
</g>
<g>
	<path class="st0" d="M12,43.2c2.4,0.8,5.6,2.1,7.2,2.9l-1.1,2c-1.8-1-5.4-2.5-8-3.5l0.9-1.5h-0.7c-1,2.5-3.1,4-8.4,4.9
		c-0.2-0.6-0.7-1.6-1.2-2.1c4-0.5,5.9-1.4,6.8-2.8h-6v-2h6.7c0.1-0.3,0.1-0.7,0.2-1H1v-2.1h7.7V37H2.8v-2h5.9v-1H1.7v-2.1h3.8
		c-0.3-0.6-0.7-1.2-1.1-1.8l2.1-0.8C7.1,30,7.7,31,8,31.6l-0.6,0.3h4.4c0.5-0.8,1.1-1.8,1.4-2.6l2.6,0.7c-0.4,0.7-0.9,1.4-1.3,1.9
		h3.8V34h-7.1v1h6.1v2h-6.1v1.1h8v2.1h-8.2c0,0.4-0.1,0.7-0.2,1h7.8v2H12z"/>
	<path class="st0" d="M37.5,32.4v15.7H35v-1.3H24.9v1.3h-2.4V32.4h5c0.3-1,0.7-2.1,0.8-3l3.1,0.4c-0.4,0.9-0.8,1.8-1.2,2.6H37.5z
		 M24.9,34.8v3.6H35v-3.6H24.9z M35,44.4v-3.7H24.9v3.7H35z"/>
	<path class="st0" d="M52.6,38.8c0,1.4-1.2,2.6-2.6,2.6c-1.4,0-2.6-1.2-2.6-2.6s1.2-2.6,2.6-2.6C51.4,36.2,52.6,37.4,52.6,38.8z"/>
	<path class="st0" d="M66.4,41.3c0.2-0.7,0.5-1.6,0.7-2.5h-1.2v6.8c0,1.1-0.2,1.7-0.9,2.1s-1.7,0.4-3.1,0.4
		c-0.1-0.7-0.4-1.6-0.7-2.3c0.9,0,1.8,0,2.1,0c0.3,0,0.4-0.1,0.4-0.3v-6.7h-3v-2.1h4.3c-1-0.8-2.3-1.5-3.5-2.1l1.2-1.5
		c0.6,0.3,1.2,0.6,1.8,0.9c0.4-0.5,0.9-1,1.3-1.6H61v-2.1h6.1l0.4-0.1l1.4,1v-0.9h10.2v2h-3.8c-0.1,0.5-0.3,0.9-0.4,1.3h3.6v10.6
		h-8.9V33.6h2.9c0.1-0.4,0.1-0.9,0.2-1.3H69v-0.9c-0.8,1.2-1.8,2.6-2.8,3.7c0.5,0.3,0.9,0.6,1.2,0.9l-0.5,0.7h1l0.3-0.1l1.4,0.3
		c-0.4,1.7-1,3.5-1.4,4.7L66.4,41.3z M73.5,45.4c-1.1,1.1-3,2.2-4.5,2.8c-0.4-0.5-1.1-1.1-1.6-1.6c1.6-0.5,3.3-1.6,4.2-2.5
		L73.5,45.4z M76.3,35.3h-4.5v1.3h4.5V35.3z M76.3,38.2h-4.5v1.3h4.5V38.2z M76.3,41.1h-4.5v1.3h4.5V41.1z M76.2,44.3
		c1.1,0.7,2.6,1.8,3.4,2.6l-1.9,1.3c-0.7-0.8-2.2-1.9-3.3-2.7L76.2,44.3z"/>
	<path class="st0" d="M88.2,31.2c-0.5,1.8-1.2,4-1.8,5.6c1.3,1.6,1.5,3,1.5,4.1c0,1.3-0.3,2.1-0.9,2.6c-0.3,0.2-0.7,0.4-1.2,0.4
		C85.4,44,84.9,44,84.4,44c0-0.6-0.2-1.5-0.5-2.1c0.4,0,0.7,0,0.9,0c0.2,0,0.4,0,0.6-0.2c0.2-0.2,0.3-0.6,0.3-1.2
		c0-0.9-0.3-2.2-1.4-3.6c0.4-1.3,0.9-3.1,1.2-4.5h-1.8v15.7h-2.2V30.3h4.7l0.3-0.1L88.2,31.2z M92.7,34.9c0,0.8-0.1,1.6-0.1,2.4h5.5
		c0,0,0,0.7,0,1c-0.2,5.8-0.4,8.1-1,8.9c-0.5,0.6-0.9,0.8-1.6,0.9c-0.6,0.1-1.6,0.1-2.6,0.1c0-0.7-0.3-1.7-0.7-2.4
		c0.9,0.1,1.7,0.1,2.1,0.1c0.3,0,0.5-0.1,0.7-0.3c0.4-0.4,0.6-2,0.7-6.1h-3.3c-0.5,3.8-1.7,6.7-5.2,8.7c-0.3-0.6-1-1.4-1.5-1.8
		c4.3-2.3,4.6-6.2,4.7-11.4h-2.6v-2.2h4.9c-0.2-0.8-0.5-1.9-0.8-2.8l2.2-0.5c0.4,0.9,0.8,2.1,0.9,2.8l-1.6,0.5h5.8v2.2H92.7z"/>
	<path class="st0" d="M117.2,45.6c0.1,0,0.2,0,0.2-0.1c0.1-0.1,0.1-0.3,0.1-0.7c0-0.4,0.1-1.4,0.1-2.6c0.5,0.4,1.2,0.8,1.9,1
		c0,1.1-0.1,2.4-0.2,3s-0.3,1-0.7,1.2c-0.3,0.2-0.8,0.3-1.2,0.3h-1.1c-0.5,0-1-0.2-1.4-0.5c-0.4-0.4-0.5-0.9-0.5-2.6V32.4h-2.2v5.9
		c0,3.1-0.3,7.4-2.2,10c-0.4-0.4-1.4-1.1-2-1.4c-0.1,0.3-0.3,0.4-0.6,0.6c-0.6,0.4-1.5,0.4-2.8,0.4c-0.1-0.6-0.4-1.7-0.7-2.3
		c0.7,0,1.5,0,1.7,0c0.3,0,0.3-0.1,0.3-0.4v-4.6c-0.5,0.5-1,1-1.5,1.5L104,41c-0.2,2.5-0.6,5.2-1.5,7.2c-0.4-0.3-1.4-0.9-2-1.1
		c1.2-2.7,1.3-6.7,1.3-9.7v-7.2h6.5v15.2c0,0.5,0,1-0.2,1.3c1.5-2.3,1.7-5.7,1.7-8.4v-8.2h6.9v14.5c0,0.5,0,0.8,0.1,0.9
		c0,0.1,0.1,0.1,0.2,0.1H117.2z M104.1,37.4c0,0.8,0,1.7-0.1,2.6c0.6-0.4,1.3-0.9,2.1-1.5v-1.4l-0.7,0.5c-0.3-0.4-0.8-1-1.4-1.6
		V37.4z M104.1,32.4v2.3l0.6-0.5c0.5,0.4,1,0.9,1.4,1.4v-3.2H104.1z"/>
	<path class="st0" d="M135.6,35.9c0.8,0,2.2-0.1,2.7-0.2c0.1,0.6,0.1,1,0.2,1.4c-0.5,0.1-1.6,0.2-2.6,0.2h-4.8
		c-1.9,0-2.4-0.6-2.5-1.7l-3.3,0.1l0-1l3.3-0.1v-0.6h-4v3.6c0,3.1-0.3,7.6-2,10.5c-0.4-0.4-1.5-1-2-1.2c1.6-2.7,1.7-6.5,1.7-9.3
		v-5.1h6.3v-3h2.4v0.9h6.3v1.5H131v0.6h5.8l0.4-0.1l1.8,0.5c-0.4,1-0.8,2.2-1.3,2.9l-2-0.6c0.1-0.3,0.3-0.7,0.4-1.1h-5.3v0.6
		l4.4-0.1l0,1l-4.4,0.1c0.1,0.3,0.3,0.4,0.9,0.4H135.6z M136.8,46.3c0,0.9-0.2,1.2-0.8,1.5c-0.6,0.2-1.4,0.2-2.5,0.2
		c-0.1-0.5-0.4-1-0.6-1.5c0.6,0,1.2,0,1.4,0c0.2,0,0.3-0.1,0.3-0.3v-0.5c-1.9,0.3-3.8,0.6-5.3,0.9l-0.5-1.5c1.1-0.1,2.6-0.2,4.2-0.4
		c-1.1-0.3-2.6-0.7-3.9-0.9l0.5-0.9c1.4,0.2,3.4,0.6,4.4,0.9l-0.4,0.8l1-0.1v-1.6h-5.9v1.1c0,1.5-0.2,3.1-1.6,4.2
		c-0.4-0.4-1.4-1.2-1.9-1.4c1.1-0.8,1.2-1.8,1.2-2.8v-2h10.4V46.3z M125.4,37.7h12.5v3.8h-12.5V37.7z M127.5,39.2h2.9v-0.6h-2.9
		V39.2z M127.5,40.7h2.9v-0.6h-2.9V40.7z M135.6,38.7h-3v0.6h3V38.7z M135.6,40.1h-3v0.6h3V40.1z"/>
	<path class="st0" d="M156.7,45.6c0.6,0,0.8-0.3,0.8-2.6c0.6,0.4,1.4,0.6,2,0.7c-0.2,3.5-1,4.2-2.9,4.2h-2.8c-2.3,0-3.3-1-3.3-2.5
		c0-1,0.2-2,3.8-6.7h-3.1v-1.6l-0.1,0.2c-0.3-0.3-0.8-0.8-1.3-1.2v5.4h-3v1.2h3.4v2.1h-3.4v3.3h-2.3v-3.3h-3.6v-2.1h3.6v-1.2h-2.9
		v-7.1h2.9v-1.1H141v-2.1h3.3v-1.9h2.3v1.9h3.3v2.1h-3.3v1.1h3V35c1.1-1.4,1.9-3.5,2.4-5.6l2.4,0.5c-0.2,0.8-0.4,1.6-0.7,2.4h5.5
		v2.2h-6.5c-0.4,0.8-0.8,1.5-1.3,2.1h4.8l0.5,0l1.5,0.6c-0.1,0.1-0.1,0.3-0.2,0.4c-4.9,5.8-5.3,6.7-5.3,7.4c0,0.4,0.3,0.5,0.9,0.5
		H156.7z M147.4,36.2h-3.9v1h3.9V36.2z M147.4,38.9h-3.9v1h3.9V38.9z"/>
	<path class="st0" d="M164.1,41.1h2.4v1.5c0,1.7-0.6,4.2-4.2,5.6c-0.4-0.5-1.1-1.2-1.7-1.6c3.1-1.1,3.5-2.9,3.5-4.1V41.1z
		 M165.3,32.6h-4.1v-2h4.1v-1.1h2.3v1.1h2.1v2h-2.1V34h-2.3V32.6z M173.5,38.5c1.1,0,3-0.1,3.7-0.2c0.1,0.7,0.2,1.4,0.3,2
		c-0.6,0.1-2.3,0.2-3.6,0.2h-6.5c-2.9,0-3.7-0.7-3.7-2.7v-0.8h-2.3v-2h7.8c-0.2-0.4-0.4-0.9-0.6-1.3l2.2-0.5
		c0.3,0.6,0.7,1.2,0.9,1.8h7.2v2H166v0.8c0,0.6,0.2,0.8,1.3,0.8H173.5z M168.7,41.2h2.3v6.6h-2.3V41.2z M172.3,32.6h-2v-2h2v-1.1
		h2.4v1.1h4.2v2h-4.2v1.4h-2.4V32.6z M177.7,46c0.4,0,1.1,0,1.4-0.1c0,0.6,0.1,1.4,0.2,1.9c-0.4,0.1-1,0.1-1.5,0.1h-2
		c-2.1,0-2.5-0.8-2.5-2.8v-4h2.3v4.1c0,0.6,0.1,0.8,0.5,0.8H177.7z"/>
</g>
</svg>
