<?xml version="1.0" encoding="utf-8"?>
<!-- Generator: Adobe Illustrator 26.0.3, SVG Export Plug-In . SVG Version: 6.00 Build 0)  -->
<svg version="1.1" id="head-about.svg" xmlns="http://www.w3.org/2000/svg" xmlns:xlink="http://www.w3.org/1999/xlink" x="0px"
	 y="0px" viewBox="0 0 694 42.5" style="enable-background:new 0 0 694 42.5;" xml:space="preserve">
<style type="text/css">
	.st0{fill-rule:evenodd;clip-rule:evenodd;fill:none;}
	.st1{fill-rule:evenodd;clip-rule:evenodd;fill:#FFFFFF;}
	.st2{fill:#FFFFFF;}
</style>
<rect class="st0" width="694" height="42.5"/>
<path id="_1" class="st1" d="M592.1,4c-0.3,0-0.6,0.3-0.6,0.6c0,0.3,0.3,0.6,0.6,0.6s0.6-0.3,0.6-0.6c0,0,0,0,0,0
	C592.7,4.2,592.4,4,592.1,4C592.1,4,592.1,4,592.1,4z M589.9,6.1c-0.3,0-0.6,0.3-0.6,0.6c0,0.3,0.3,0.6,0.6,0.6
	c0.3,0,0.6-0.3,0.6-0.6C590.5,6.4,590.2,6.1,589.9,6.1z M594.2,6.1c-0.3,0-0.6,0.3-0.6,0.6s0.3,0.6,0.6,0.6c0,0,0,0,0,0
	c0.3-0.1,0.4-0.6,0.2-0.9C594.4,6.3,594.3,6.2,594.2,6.1L594.2,6.1z M592.1,8.3c-0.3,0-0.6,0.3-0.6,0.6c0,0.3,0.3,0.6,0.6,0.6
	c0.3,0,0.6-0.3,0.6-0.6C592.6,8.6,592.4,8.3,592.1,8.3z M592.3,6.7l3-3L595,3.5l-3,3l-3-3l-0.2,0.2l3,3l-3,3l0.2,0.2l3-3l3,3
	l0.2-0.2L592.3,6.7z M598.7,3.7h-0.5c-0.4,0.3-0.9,0.5-1.4,0.7l0.1,0.6c0.4-0.1,0.8-0.3,1.1-0.6v4.6h-1.2v0.5h2.9V9.1h-1.1V3.7z"/>
<g>
	<path class="st2" d="M37.2,25.5c0,0,2.5,2.2,3.9,3.7c-0.1,0.5-0.6,0.7-1.2,0.7H2.3L2,28.7h6.8v-9H3.8l-0.4-1.2h5.3v-7.9
		c-2,1.8-4,3.4-6.1,4.7l-0.5-0.5c2.9-3.2,6.1-8.5,8.1-14L15.9,3c-0.2,0.5-0.8,0.8-1.7,0.7C13.5,4.9,12.7,6,11.9,7H33l2.4-3.1
		c0,0,2.7,2.1,4.3,3.7c-0.1,0.5-0.6,0.7-1.2,0.7H10.8c-0.6,0.7-1.2,1.4-1.8,2l5,0.5c-0.1,0.5-0.5,1-1.6,1.2v6.5H16v-8.2l5.2,0.5
		c-0.1,0.6-0.5,1-1.6,1.2v6.5h3.6v-8l5.1,0.5c-0.1,0.6-0.4,1-1.5,1.2v6.3h3.5v-8.1l5.3,0.6c-0.1,0.6-0.5,1-1.6,1.2v6.4h0.3l2.2-3
		c0,0,2.5,2.1,4,3.6c-0.1,0.5-0.6,0.7-1.2,0.7h-5.5v9H35L37.2,25.5z M9.5,30.9c1.2,5.3-0.9,8.6-3.1,9.7c-1.4,0.8-3.4,0.6-3.9-0.9
		c-0.4-1.3,0.4-2.4,1.6-3c2-0.8,4.4-3,4.6-5.8L9.5,30.9z M12.5,28.7H16v-9h-3.5V28.7z M15,31.3c7.3,5.3,2.5,11.7-0.3,8
		c0.6-2.6,0.3-5.7-0.2-7.9L15,31.3z M19.6,19.7v9h3.6v-9H19.6z M22.7,31.1c9.9,4,6.3,11.7,2.8,8.6c-0.1-2.8-1.7-6.1-3.3-8.3
		L22.7,31.1z M26.7,19.7v9h3.5v-9H26.7z M31.9,30.8c12,3.6,8.6,12.5,4.6,9.4c-0.5-3.1-2.8-6.8-5-9.1L31.9,30.8z"/>
	<path class="st2" d="M44.7,10.8c10,1.3,7,8.6,3.3,6c-0.4-2-2.1-4.3-3.7-5.7L44.7,10.8z M56.5,9c-1.6,5.1-4.4,14.5-5,16.7
		c-0.3,1.3-0.6,2.7-0.6,3.8c0.1,2.2,1.5,4,1.4,7.6c-0.1,2-1.2,3.3-3,3.3c-0.9,0-1.7-0.7-1.9-2.2c0.7-4.4,0.5-8.3-0.5-8.9
		c-0.6-0.4-1.2-0.6-2.1-0.6v-0.9h1.8c0.6,0,0.7,0,1.2-0.9c0.8-1.6,0.8-1.6,7.9-18.2L56.5,9z M47.7,1.3c10.7,1.2,8,8.6,4,6.4
		C51,5.5,49,3.1,47.3,1.6L47.7,1.3z M72.8,14c2.9,3.5,7.9,6.3,12.4,7.5l-0.1,0.4c-1.5,0.3-2.6,1.6-3.1,3.6
		c-4.6-2.4-8.2-6.3-10.4-11.5h-4.3c-2.8,5.4-7.5,9.5-14.7,12.2l-0.3-0.5c5.3-3.1,8.8-7.1,10.9-11.7h-6.9L56,12.7h7.8
		c0.9-2.2,1.5-4.6,1.8-7.1h-8l-0.3-1.2h17.9l2.3-3.1c0,0,2.7,2.1,4.3,3.6c-0.1,0.5-0.6,0.7-1.2,0.7H70.3c-0.6,2.6-1.3,4.9-2.3,7.1
		h9.8l2.4-3.2c0,0,2.7,2.2,4.3,3.7C84.4,13.8,84,14,83.4,14H72.8z M61.6,24.8c2.1,12.9-9.1,11-5.8,7c2.3-0.9,4.5-3.2,5.1-7.1
		L61.6,24.8z M65.2,19.8l5.3,0.5c-0.1,0.6-0.5,0.9-1.5,1.1v14.4c0,2.9-0.6,4.5-5.3,4.9c-0.1-1.2-0.3-2.1-0.9-2.7
		c-0.6-0.6-1.6-1.1-3.6-1.4V36c0,0,4.3,0.3,5.2,0.3c0.7,0,0.9-0.2,0.9-0.8V19.8z M71.3,25.4c8.3,5.3,4.4,12.3,1.3,9.1
		c0.3-2.9-0.7-6.5-1.9-8.9L71.3,25.4z M76.2,24.5c11.5,4.6,8.3,13.2,4.6,10.2c-0.3-3.3-2.8-7.4-5.1-9.9L76.2,24.5z"/>
	<path class="st2" d="M105,7.9l4,3.4c-0.3,0.4-0.9,0.6-1.8,0.8c-0.3,16.2-1,23.4-3.2,25.8c-1.4,1.5-3.2,2.1-5.3,2.1
		c0-1.4-0.2-2.4-0.7-3c-0.6-0.7-2.1-1.2-3.7-1.5l0-0.7c1.5,0.2,4,0.4,4.9,0.4c0.8,0,1.2-0.2,1.6-0.6c1.5-1.4,2.1-9.2,2.4-23.3h-5
		c-0.4,10.4-2.1,21.2-10.8,29.2l-0.6-0.6c5.9-8.5,7.1-18.6,7.4-28.6h-5.9l-0.4-1.2h6.3c0.1-3.1,0-6.1,0-9.2l5.7,0.6
		c-0.1,0.6-0.5,1-1.5,1.2c0,2.4,0,4.9-0.1,7.4h4.4L105,7.9z M127.2,9.3c-0.3,0.3-1,0.7-1.8,0.9v27.5c-0.1,0.4-2,1.5-3.5,1.5h-0.6
		v-4.1h-6.4v3.3c0,0.5-1.5,1.5-3.3,1.5h-0.7V6.3l4.1,1.9h5.8l2.2-2.4L127.2,9.3z M121.2,33.9V9.4h-6.4v24.5H121.2z"/>
	<path class="st2" d="M130.4,14c0.9,0,2.1-0.2,3.6-0.3V3.2l4.9,0.4c-0.1,0.5-0.4,0.9-1.4,1v8.7l3.2-0.3V0.9l5.4,0.5
		c-0.1,0.6-0.5,1-1.6,1.2v4.1h2l1.9-2.8c0,0,2.2,1.9,3.5,3.3c-0.1,0.5-0.5,0.7-1.1,0.7h-6.3v4.7c2.3-0.3,4.7-0.6,7.2-0.9l0.1,0.6
		c-4,1.3-9.7,3-18.1,5.1c-0.3,0.5-0.7,0.8-1.1,0.9L130.4,14z M146.5,32.8c-0.3,0.4-0.6,0.6-1.6,0.3c-3,2.3-8.3,4.8-13.5,6l-0.4-0.6
		c4.3-2.2,8.8-5.8,11-8.7L146.5,32.8z M157.3,22.9c12.9,2.3,11.1,10.2,7,8.1c-0.6-1.2-1.8-2.7-3.1-4c-2.2,0.3-4.9,0.8-7.9,1.2v8.1
		c0,2.7-0.7,4.3-5.5,4.6c-0.1-1.1-0.3-1.9-0.8-2.5s-1.4-1-3.4-1.2v-0.6c0,0,3.8,0.3,4.6,0.3c0.7,0,0.9-0.3,0.9-0.7v-7.4
		c-3.4,0.5-7.3,1-11.4,1.5c-0.3,0.4-0.6,0.6-0.9,0.8l-2.1-4.6c0,0,1.1-0.1,1.7-0.3c4-0.9,8.9-2.7,13.2-4.6c-3,0.5-6.7,1-10.5,1.5
		c-0.3,0.4-0.5,0.7-0.8,0.8l-2-4c0,0,0.8-0.1,1.2-0.3c4.3-0.9,9.8-4.2,12.1-6l4.4,2.8c-0.2,0.3-0.9,0.6-1.8,0.3
		c-2.7,1.2-7.3,2.6-11.5,3.6c3.1,0,7.6-0.2,12.2-0.3c2.5-1.2,4.7-2.5,6.1-3.4l4.2,3.4c-0.3,0.3-1,0.6-2,0.2
		c-4.6,2.1-13.7,4.9-21.6,6.7c5-0.1,12.6-0.5,20.6-0.9c-1.1-1.1-2.3-2.1-3.4-2.8L157.3,22.9z M168.6,12.2c1.2,0.4,1.5,0.9,1.5,1.6
		c0,1.6-1.7,2.1-8.5,2.1h-4.4c-3.9,0-4.7-0.8-4.7-3.4V0.7l5.2,0.5c-0.1,0.6-0.5,0.9-1.3,1.1v4.3h4.7l2.3-3.2c0,0,2.5,2.2,4,3.7
		c-0.1,0.5-0.6,0.7-1.2,0.7h-9.8v4c0,0.6,0.2,0.8,1.6,0.8h4c1.5,0,3,0,3.5-0.1c0.5,0,0.8-0.1,1-0.4c0.3-0.6,0.9-2.2,1.5-4.1h0.5
		L168.6,12.2z M156.3,30.5c14.7,1.5,13.2,10.4,8.6,8.6c-1.8-2.8-5.8-6.2-8.9-8.2L156.3,30.5z"/>
	<path class="st2" d="M192.9,6.1l4,3.7c-0.3,0.4-0.7,0.6-1.7,0.7c-2,12.6-6.4,24.2-21.4,30.2l-0.4-0.6c6.9-4,11.3-9.8,14.1-16.6
		c-0.7,0.7-1.9,0.9-3.2-0.1c-0.4-2.2-2-4.7-3.7-6.5c-1.9,2.9-4,5.4-6.6,7.4l-0.6-0.4c4-5.6,7.3-14.1,8.6-23.2l5.9,1.4
		c-0.2,0.6-0.6,0.9-1.6,0.9c-0.5,1.9-1,3.7-1.6,5.3h5.9L192.9,6.1z M184.3,9.8c-0.9,2.3-1.8,4.3-3,6.3c5.2,1.5,6.9,4,6.9,5.9
		c1.4-3.8,2.2-8,2.8-12.2H184.3z M203.2,14.6c14.1,4.1,11.5,13.2,6.9,10.3c-1.1-3.1-4.2-6.6-6.9-9.2v23.8c0,0.4-1.8,1.3-3.3,1.3H199
		V1.2l5.7,0.6c-0.1,0.6-0.4,1-1.6,1.2V14.6z"/>
	<path class="st2" d="M220.4,28.4c1.4,4.3,1,7.6-0.2,9.2c-0.8,1-2.8,1.2-3.4,0c-0.6-1-0.1-2.2,0.9-3c1.1-1.1,2.2-3.9,2-6.3H220.4z
		 M217,23.3c0,0,0.9-0.2,1.3-0.5c1.9-1.7,4.3-4.8,6.2-7.8c-1.3,0.5-2.9,1.1-4.5,1.6c-0.3,0.6-0.7,0.9-1.2,1.1l-1.8-4.5
		c0,0,0.9-0.2,1.2-0.4c2.2-2.4,5.1-8.5,6-11.8l4.9,2.5c-0.2,0.4-0.7,0.6-1.5,0.6c-1.8,2.8-4.9,6.6-7.7,9.2c1.6,0,3.7,0,5.7,0
		c0.9-1.6,1.7-3.1,2.2-4.3l4.4,3c-0.2,0.3-0.8,0.6-1.6,0.5c-2.2,3.2-6.5,7.8-10.4,10.9c2.1-0.1,4.9-0.3,7.9-0.5
		c-0.5-1.6-1.2-3.1-1.8-4.3l0.6-0.2c7.7,4.3,4.6,10.2,1.8,7.7c0-0.6-0.1-1.3-0.3-1.9c-2.3,0.8-5.4,1.9-8.7,2.9
		c-0.3,0.4-0.7,0.7-1.1,0.9L217,23.3z M223.9,27.8c6.1,5.5,2.1,11.1-0.3,8.1c0.5-2.6,0.3-5.8-0.3-7.9L223.9,27.8z M227.8,27.1
		c7.4,3.5,4.2,9.1,1.5,6.7c0-2.1-1-4.8-2-6.4L227.8,27.1z M255.7,24.6c-0.2,0.3-0.9,0.6-1.6,0.3c-1.2,0.8-3.3,2.1-5.3,3.1
		c2.3,2.9,5.2,4.9,7.9,6.1l-0.1,0.5c-1.5,0.3-2.5,1.6-3,3.4c-4-3.4-6.7-7.6-8.3-14.7v12.5c0,2.7-0.6,4.5-5.1,4.9
		c-0.1-1.1-0.3-2.1-0.8-2.6c-0.6-0.6-1.5-1-3.4-1.3v-0.6c0,0,3.8,0.3,4.6,0.3c0.7,0,0.9-0.3,0.9-0.8V25.2c-0.2,0-0.5,0.1-0.8,0.1
		c-1.6,5.4-5,10.5-11.2,13.6l-0.4-0.6c4.3-3.4,6.8-8.4,7.9-13.4h-5l-0.4-1.2h5.2l2-2l2.7,2.2v-4.6h-4.1v1.2c0,0.3-1.1,1-2.9,1h-0.6
		V4.6l4,1.6h2.3c0.3-1.6,0.6-4,0.8-5.6l5.8,1c-0.2,0.6-0.7,1-1.7,1.1c-0.9,1-2.3,2.5-3.4,3.6h7.2l1.8-2.1l3.7,2.8
		c-0.3,0.3-0.7,0.6-1.6,0.8V20c0,0.2-1.3,0.9-3.1,0.9h-0.6v-1.6h-3.8v1.6c0.7,2.5,1.7,4.5,2.9,6.2c1.3-1.9,2.8-4.4,3.4-5.8
		L255.7,24.6z M237.5,7.5v4.6h11.7V7.5H237.5z M249.1,18.1v-4.7h-11.7v4.7H249.1z"/>
	<path class="st2" d="M264.7,26.3v5.3c0,0.4-1.4,1.3-3.1,1.3h-0.5V3.9l3.8,1.7h4l1.9-2.1l4,3.1c-0.3,0.4-0.9,0.7-1.8,0.9v21.4
		c0,0.3-1.8,1.3-3.1,1.3h-0.6v-3.9H264.7z M264.7,6.9v18.2h4.6V6.9H264.7z M299,17.6c-0.3,0.4-0.7,0.6-1.7,0.6
		c-1.5,4.9-3.8,9.2-7.1,12.9c2.9,2.6,6.4,4.5,10.4,5.8l-0.1,0.5c-1.8,0.3-3.1,1.4-3.9,3.3c-3.6-1.9-6.5-4.2-8.9-7.2
		c-3.6,3.1-8.3,5.6-14.4,7.2l-0.3-0.6c5.5-2.1,9.9-5.2,13.2-8.9c-2.2-3.6-3.8-8-4.8-13.7h-0.2c-1.2,8.9-4.3,16.8-13.8,23l-0.6-0.6
		c11-9.8,11.1-22,11.1-34.7h-4.3l-0.3-1.2h15.6l1.7-1.9l3.9,3.1c-0.3,0.3-0.7,0.5-1.5,0.6l-1.4,10.7h1.5l2.3-2.2L299,17.6z
		 M281.8,5.2c-0.1,3.8-0.2,7.6-0.6,11.1h6.2L289,5.2H281.8z M282.2,17.6c1.2,4.6,3.2,8.3,5.8,11.4c2.4-3.4,4.1-7.2,5.2-11.4H282.2z"
		/>
	<path class="st2" d="M317.5,39.1c0,0.5-1.8,1.6-3.2,1.6h-0.7V27c-2,1.2-4.6,2.9-7.4,4.5c-0.3,0.6-0.8,0.9-1.2,1.1l-1.9-4.2
		c1.4-0.7,1.6-1.1,1.6-1.9V5.2l5.3,0.6c-0.1,0.6-0.5,1-1.5,1.1V27c1.5-0.4,3.4-0.9,5.2-1.5V0.9l5.5,0.6c-0.1,0.6-0.4,1-1.5,1.2V39.1
		z M338.7,12c-1,6.8-2.9,12.9-6.5,17.9c2.8,3,6.5,5.2,11.1,6.9l-0.1,0.4c-2,0.4-3.2,1.5-3.7,3.5c-4-2-7.1-4.7-9.5-8
		c-3.1,3.3-7.1,6.1-12.3,8.1l-0.3-0.5c4.9-2.8,8.5-6.4,11.1-10.3c-2-3.7-3.4-8.2-4.3-13.2c-1.5,2.8-3.2,5.2-5.1,7.2l-0.6-0.3
		c2.8-5.8,5.2-14.4,6.1-22.9l6.2,1.3c-0.2,0.6-0.6,0.9-1.6,1c-0.6,2.7-1.4,5.2-2.3,7.7h9.6l2.4-3.1c0,0,2.7,2.1,4.3,3.7
		c-0.1,0.5-0.6,0.7-1.2,0.7H338.7z M326.2,12c-0.5,1.2-0.9,2.4-1.5,3.4c1.1,4.6,2.8,8.5,5.2,11.9c2.4-4.6,3.7-9.7,4.2-15.3H326.2z"
		/>
	<path class="st2" d="M345.2,22.1c2.7-3.2,3.2-6.9,3.4-10h-2.2l-0.4-1.2h6.7l1.4-1.5l3,2.4c-0.3,0.3-0.8,0.5-1.5,0.6
		c-0.2,5.5-0.4,7.7-1.5,8.6c-0.6,0.5-1.3,0.7-2,0.7c0-0.5-0.2-1.2-0.6-1.5c-0.3-0.3-0.9-0.6-1.5-0.7v-0.7c0.6,0,1.5,0.1,2,0.1
		c0.2,0,0.3-0.1,0.4-0.2c0.3-0.5,0.6-2.3,0.7-6.7h-1.9c-0.3,3.5-1.3,7.6-5.2,10.6L345.2,22.1z M365.5,22.1l5.3,0.5
		c-0.1,0.6-0.5,1-1.5,1.2v15.9c0,0.3-1.7,1.1-3.1,1.1h-0.7v-8.2h-12.2c-0.9,3.1-2.9,6.2-7.3,8.3l-0.4-0.5c4-3.4,4.6-8.3,4.6-12.4
		v-5.8l5.2,0.5c-0.1,0.6-0.4,0.9-1.5,1.1v1.9h11.6V22.1z M368.5,2.9c0,0,2.4,1.8,3.8,3.2c-0.1,0.5-0.6,0.7-1.2,0.7H346l-0.3-1.2h14
		c-0.3-0.1-0.6-0.2-0.9-0.4c-0.3-1.6-1.5-3.4-2.6-4.4l0.4-0.3c6.6,0.7,6.2,4.5,4.2,5.1h5.6L368.5,2.9z M365.5,31.3v-4.4h-11.6v1.2
		c0,1-0.1,2.1-0.3,3.2H365.5z M355.3,7.2c6.2,1.6,3.9,6,1.6,4.3c-0.2-1.3-1.2-3-2.1-4L355.3,7.2z M365.4,8.2
		c-0.2,0.5-0.7,0.9-1.6,0.8c-0.8,1.1-1.9,2.5-3.1,3.7l1.1,0.1c-0.1,0.5-0.4,0.8-1.2,0.9v8.6c0,0.3-1.2,0.8-2.1,0.8h-0.6V12.4
		l1.7,0.2c0.6-1.6,1.4-3.8,1.9-5.5L365.4,8.2z M367.2,13.3c7.6,3.6,4.8,9.3,2.3,7.1c0-0.5-0.1-1.1-0.2-1.7c-1.3,0.9-3,1.9-4.8,2.9
		c-0.3,0.5-0.6,0.8-1,1l-1.4-3c0.9-0.5,1-0.7,1-1.3v-7.8l2.9,0.3c1-0.8,2.1-1.7,2.8-2.3l3,2.5c-0.2,0.3-0.6,0.4-1.4,0.1
		c-1.2,0.4-3.1,0.8-4.7,1.2v6.4c1-0.3,2.1-0.7,3.3-1.1c-0.5-1.5-1.4-2.9-2.2-4L367.2,13.3z M376.8,30c0,0.4-1.5,1.1-2.7,1.1h-0.7
		V5.4l4.9,0.5c-0.1,0.6-0.4,1-1.5,1.1V30z M385.1,2.2c-0.1,0.6-0.5,1-1.6,1.2v32.5c0,2.8-0.6,4.6-5.2,5c-0.1-1.2-0.3-2.2-0.9-2.8
		c-0.6-0.6-1.6-1.1-3.5-1.3V36c0,0,4.1,0.3,5,0.3c0.7,0,0.9-0.3,0.9-0.9V1.6L385.1,2.2z"/>
	<path class="st2" d="M407.5,9.9c-0.3,0.3-0.9,0.7-1.8,0.9v25.9c0,0.3-1.9,1.2-3.3,1.2h-0.6v-3.3h-7.6v3.3c0,0.4-1.5,1.4-3.1,1.4
		h-0.6V7l4,1.8h0.8c0.4-2.3,0.9-5.6,1.2-8l5.9,1.4c-0.2,0.7-0.8,1-1.7,1c-1,1.6-2.5,3.8-3.7,5.5h4.5l2-2.2L407.5,9.9z M394.2,10.1
		v10.7h7.6V10.1H394.2z M401.8,33.3V22h-7.6v11.3H401.8z M428.5,9.9c-0.3,0.4-0.9,0.6-1.8,0.8c-0.3,16.7-1,25.3-3.2,27.8
		c-1.4,1.6-3.2,2.2-5.7,2.2c0-1.3-0.2-2.4-0.9-3c-0.7-0.7-2.5-1.3-4.4-1.6l0-0.7c2,0.2,5,0.4,6.1,0.4c0.9,0,1.2-0.1,1.7-0.6
		c1.6-1.5,2.1-10.6,2.4-25.3h-9c-2,3.6-4.3,6.7-6.9,9l-0.6-0.4c2.5-4.3,5-11.2,6.3-17.8l5.7,1.7c-0.2,0.5-0.7,0.9-1.6,0.9
		c-0.6,1.8-1.4,3.6-2.3,5.3h7.9l2.3-2.5L428.5,9.9z M410.1,17.6c11.6,4.1,7.8,12.4,3.9,9.2c-0.3-3-2.4-6.6-4.3-8.9L410.1,17.6z"/>
	<path class="st2" d="M451.5,39.8c0,0.3-1.2,1-3.2,1h-0.7v-7c-3.1,1-7.1,2.2-12.1,3.6c-0.2,0.5-0.6,0.8-1.1,0.9l-2.1-4.6
		c1,0,2.5-0.2,4.3-0.3V18.9h-4.3l-0.3-1.2h32.4l2.5-3.2c0,0,2.8,2.2,4.4,3.8c-0.1,0.5-0.6,0.7-1.2,0.7h-18.5V39.8z M442.1,15.3
		c0,0.4-1.8,1.2-3.4,1.2H438V1.7l4.3,1.8h18.3l2-2.2l4.3,3.3c-0.3,0.3-0.9,0.7-1.8,0.9v9.5c0,0.3-2.1,1-3.4,1h-0.7V4.7h-19V15.3z
		 M440.5,18.9v3.8h7.1v-3.8H440.5z M440.5,27.8h7.1v-3.9h-7.1V27.8z M440.5,33.2c2.2-0.2,4.6-0.5,7.1-0.7V29h-7.1V33.2z M456.8,10.8
		c0,0,1.8,1.4,3.1,2.5c-0.1,0.5-0.5,0.7-1.1,0.7h-14.5l-0.3-1.2h11.4L456.8,10.8z M456.8,6.2c0,0,1.8,1.3,3,2.4
		c-0.1,0.5-0.5,0.7-1.1,0.7h-14.5l-0.3-1.2h11.4L456.8,6.2z M469.9,23.7c-0.3,0.4-0.7,0.6-1.6,0.6c-1.1,3.2-2.8,6.3-5.2,8.9
		c2.6,1.6,5.6,2.7,9.1,3.4l0,0.5c-1.7,0.3-3,1.7-3.5,3.6c-3.3-1.3-6-2.9-8.2-5c-2.4,1.9-5.2,3.5-8.6,4.8l-0.3-0.6
		c2.9-1.6,5.3-3.8,7.1-6.2c-1.9-2.5-3.3-5.8-4.3-9.9h-2.2l-0.3-1.2h11.5l2.4-2.4L469.9,23.7z M455.2,23.8c1.2,3.1,2.9,5.6,5.1,7.6
		c1.5-2.4,2.5-4.9,3.2-7.6H455.2z"/>
	<path class="st2" d="M490.4,23.6c-0.3,0.3-0.8,0.6-1.7,0.7c-0.4,8.1-1.4,13-3.3,14.6c-1.2,1-2.8,1.4-4.9,1.4c0-1-0.2-2-0.9-2.5
		c-0.7-0.6-2.4-1.1-4.1-1.4l0-0.6c1.8,0.1,4.9,0.4,5.8,0.4c0.8,0,1.2-0.1,1.5-0.4c1.1-0.9,1.8-5.3,2.2-12h-5.7l-1.4,1.6l-3.6-2.4
		c0.4-0.3,0.9-0.6,1.5-0.9c0.4-3,0.8-7.7,0.9-10.4l4.3,1.8h3.9V4.9h-9.5L475,3.6h9.4l1.9-2.1l4.1,3.1c-0.3,0.4-0.9,0.8-1.9,0.9v10
		c0,0.3-1.8,0.9-3.1,0.9h-0.6v-1.8H480c-0.2,2.3-0.5,5.5-0.8,7.8h5.5l2-2L490.4,23.6z M506.3,29.6c11.4,5.2,8.1,13.4,4.3,10.2
		c-0.2-1.5-0.8-3-1.5-4.6c-4.1,1.1-9.5,2.2-16.6,3.8c-0.3,0.6-0.7,0.9-1.2,0.9l-2.2-4.6c2.2,0,5.9-0.3,10.4-0.6v-7.3h-4.7v1.9
		c0,0.3-1.5,1.1-3,1.1h-0.5V16.3l3.8,1.6h4.4v-5.3c-2.1,0.4-4.3,0.8-6.5,1.2c-0.3,0.5-0.7,0.8-1,0.9l-1.9-4.6c0,0,0.9-0.2,1.2-0.3
		c3.1-1.8,7-6.7,8.5-9.2l5,2.7c-0.2,0.4-0.7,0.7-1.6,0.5c-2.2,2.1-6.1,4.8-9.6,6.7c3.5-0.1,8.7-0.4,14.4-0.8
		c-1.1-1.5-2.4-2.8-3.7-3.8l0.4-0.3c11.9,2.4,9.3,10.9,5.3,8.3c-0.2-1-0.7-2.1-1.3-3.1c-1.5,0.3-3.4,0.7-5.4,1.2v6h4.5l1.8-1.9
		l3.9,2.9c-0.3,0.3-0.8,0.6-1.6,0.8v9c0,0.3-1.9,1-3.1,1H508v-2.1h-4.9v7.1l5.4-0.4c-0.8-1.6-1.8-3.1-2.7-4.3L506.3,29.6z
		 M499.4,26.3v-7.1h-4.7v7.1H499.4z M503.1,19.2v7.1h4.9v-7.1H503.1z"/>
	<path class="st2" d="M523.1,3.2c0,0.5-0.2,1.6-0.5,2.9l-0.3,1.4l1.3-0.7c1.4-0.7,2.4-1.4,3-1.4c0.5,0,0.9,0.5,0.9,1
		c0,1-1.1,1.1-3.6,1.4L522.5,8l1.1,1.1c1.4,1.3,2.3,2,2.3,2.7c0,0.5-0.4,0.9-0.9,0.9c-0.9,0-1.3-1-2.2-3.1l-0.7-1.4l-0.6,1.4
		c-1,2-1.4,3.1-2.3,3.1c-0.5,0-0.9-0.4-0.9-1c0-0.8,1-1.4,2.3-2.7l1.1-1l-1.5-0.2c-2.5-0.3-3.6-0.4-3.6-1.4c0-0.5,0.4-1,1-1
		c0.6,0,1.6,0.7,3,1.4l1.3,0.7l-0.3-1.4c-0.3-1.3-0.5-2.4-0.5-2.9c0-0.7,0.5-1,1-1C522.6,2.1,523.1,2.5,523.1,3.2z"/>
	<path class="st2" d="M540.6,22v0.8h-10.4V22l3.9-0.5c0-1.5,0.1-3,0.1-4.5V6.8l-3.5,0.4v-1l5.9-1.5l0.4,0.3l-0.1,4v8
		c0,1.5,0,3,0.1,4.5L540.6,22z"/>
	<path class="st2" d="M575.4,7l-4.3,0.6l-0.1,16.6c0,9.7-4.4,13.7-11.3,13.7c-7,0-11.7-3.7-11.7-12.9v-4.9c0-4.2,0-8.4-0.1-12.6
		L544.1,7V5.4h13.7V7l-4.6,0.5c-0.1,4.1-0.1,8.3-0.1,12.6V24c0,8.1,2.9,10.8,7.9,10.8c5.4,0,8.2-3.1,8.2-11.4L569,7.6L564.1,7V5.4
		h11.4V7z"/>
	<path class="st2" d="M607.6,6.9l-3.9,0.6l-10,29.9h-2.5l-11-30L576.8,7V5.4h13.4v1.7l-4.6,0.4l8.2,23.7l7.5-23.6l-4.5-0.5V5.4h10.8
		V6.9z"/>
	<path class="st2" d="M626.4,5.4C626,5.8,625.5,6,624.4,6c-1.4,2.7-4.1,7.4-6.2,10.1c4.8,3.1,6.6,7.1,6.7,10.5
		c0,4.2-1.6,6.4-6.3,6.5c0-1.1-0.2-2.6-0.6-3.1c-0.3-0.4-1.2-0.7-2.2-0.9v-0.6h3.1c0.5,0,0.7-0.1,1-0.3c0.7-0.4,1-1.2,1-2.7
		c0-3.1-1-6.4-3.9-9.4c0.9-2.8,2.3-7.9,3.1-11.3h-5.1v34.5c0,0.3-1.2,1.3-3.1,1.3h-0.7V1.9l4.4,1.8h4.3l2.2-2.2L626.4,5.4z M645.6,6
		c0,0,2.7,2.1,4.3,3.7c-0.1,0.5-0.5,0.7-1.1,0.7h-13.8c-0.1,2.2-0.2,4.4-0.4,6.5h7.4l2.2-2.3l4,3.4c-0.3,0.4-0.9,0.6-1.8,0.8
		c-0.5,11.7-1.5,18-3.7,20c-1.3,1.2-3.1,1.8-5.4,1.8c0-1.2-0.2-2.3-0.8-2.8c-0.7-0.6-2.4-1.2-4.1-1.5l0-0.6c1.8,0.2,4.8,0.4,5.8,0.4
		c0.7,0,1.1-0.1,1.5-0.5c1.4-1.2,2.2-7.5,2.6-17.4h-8c-1.2,9.8-4.6,17.5-14.6,22.7l-0.3-0.5c9.3-7.7,11-17.6,11.1-29.9h-7l-0.3-1.2
		h20.1L645.6,6z M631.7,0.9c10.8,2.8,6.5,10.7,2.7,7.3c-0.1-2.4-1.5-5.2-3.1-7L631.7,0.9z"/>
	<path class="st2" d="M664.5,33.2c-0.1,0.3-1.6,1.1-2.8,1.1h-0.5v-3.4h-3.7v4.2c0,0.3-1.1,1.1-2.8,1.1h-0.6V3.7l3.9,1.6h2.8l1.8-2
		l3.7,3c-0.3,0.3-0.9,0.7-1.8,0.9V33.2z M657.5,6.5v10.8h3.7V6.5H657.5z M661.2,29.6V18.6h-3.7v11.1H661.2z M690.4,13.7
		c0,0.2-0.7,0.6-1.5,0.9c0.6,0.5,2.3,1.8,3.5,2.8c-0.1,0.5-0.6,0.7-1.1,0.7h-7.8v2.8h3l1.7-1.7l3.6,2.7c-0.2,0.3-0.8,0.6-1.5,0.7
		v4.3c0,0.3-1.7,1-2.8,1h-0.6v-1.2h-17c-0.3,4.7-1.5,10.2-5.6,14.3l-0.5-0.4c2.8-5.5,2.9-12.3,2.9-17.9v-7.4l4,1.6h7.4
		c0-0.9-0.5-1.8-1-2.6c-0.5,0.3-1.5,0.7-2.2,0.7h-0.5V8.3h-4.8v6.1c0,0.3-1.3,0.9-2.5,0.9h-0.4V5.7l3.1,1.3h4.3l1.5-1.4l3,2.3
		c-0.2,0.3-0.6,0.5-1.2,0.6v4.6c1.2,0.2,2.1,0.6,2.6,1.1V5.7l3.1,1.3h4l1.5-1.5l3.1,2.4c-0.2,0.3-0.7,0.5-1.3,0.6V13.7z M666,5
		l-0.3-1.2h8.3l1.7-2.2c0,0,2,1.6,3.2,2.8c-0.1,0.5-0.5,0.7-1,0.7H666z M677.7,29.6c0,0,1.6,1.4,2.6,2.5c-0.1,0.5-0.5,0.7-1.1,0.7
		h-4.8v3.4c1.6-0.3,3.5-0.7,5.4-1.1l0.2,0.6c-1.4,0.8-4.2,2.4-7.1,4c-0.3,0.5-0.6,0.9-1,1.1l-2-3.8c1.1-0.6,1.2-0.9,1.2-1.6v-8.1
		l4.6,0.5c-0.1,0.5-0.4,0.9-1.3,1v2.8h1.9L677.7,29.6z M670,22.6c0,0.9,0,1.8,0,2.8h3.6v-3.3H670V22.6z M670,18v2.8h3.6V18H670z
		 M670.6,9.4c5.5,1.5,3.2,5.5,1.1,3.8c0-1.2-0.8-2.8-1.6-3.5L670.6,9.4z M680.3,18h-3.6v2.8h3.6V18z M676.8,25.4h3.6v-3.3h-3.6V25.4
		z M679.6,5l-0.3-1.2h7.7l1.8-2.4c0,0,2.2,1.7,3.4,2.9C692.1,4.8,691.6,5,691,5H679.6z M686.6,16.8l1.7-2.1c-0.1,0-0.3,0-0.4,0h-0.5
		V8.3h-4.5V14c0,0.3-1.3,0.9-2.5,0.9c0.4,0.7,0.2,1.5-0.3,1.9H686.6z M690.7,36.4c0.9,0.4,1.1,0.7,1.1,1.3c0,1.4-1.3,1.9-5.5,1.9
		h-2.5c-2.8,0-3.2-0.8-3.2-2.9v-9.5l4.5,0.5c-0.1,0.5-0.5,0.9-1.2,1v2.8h2.1l1.6-2.2c0,0,1.8,1.5,3,2.8c-0.1,0.5-0.5,0.7-1.1,0.7
		h-5.5v3.4c0,0.5,0.1,0.6,0.9,0.6h1.8c0.7,0,1.4,0,1.7,0c0.3,0,0.5,0,0.7-0.3c0.3-0.4,0.7-1.8,1.1-3.2h0.5L690.7,36.4z M683.4,9.4
		c5.5,1.5,3.2,5.6,1.1,3.9c0-1.2-0.7-2.8-1.6-3.6L683.4,9.4z M683.6,22.1v3.3h3.4v-3.3H683.6z"/>
</g>
</svg>
