<?xml version="1.0" encoding="utf-8"?>
<!-- Generator: Adobe Illustrator 26.0.3, SVG Export Plug-In . SVG Version: 6.00 Build 0)  -->
<svg version="1.1" id="head-about_sp.svg" xmlns="http://www.w3.org/2000/svg" xmlns:xlink="http://www.w3.org/1999/xlink" x="0px"
	 y="0px" viewBox="0 0 440.6 112.2" style="enable-background:new 0 0 440.6 112.2;" xml:space="preserve">
<style type="text/css">
	.st0{fill:#FFFFFF;}
</style>
<g>
	<path class="st0" d="M38,27.4c0,0,2.6,2.2,4,3.8c-0.1,0.5-0.6,0.7-1.2,0.7H2.3L2,30.7h6.9v-9.2h-5l-0.4-1.3h5.4v-8.1
		c-2,1.9-4.1,3.5-6.3,4.8l-0.5-0.5c3-3.3,6.2-8.7,8.3-14.3l5.9,2.4c-0.2,0.5-0.8,0.8-1.8,0.7c-0.7,1.1-1.5,2.2-2.4,3.3h21.6l2.4-3.2
		c0,0,2.7,2.2,4.4,3.7c-0.1,0.5-0.6,0.7-1.2,0.7H11c-0.6,0.7-1.2,1.4-1.8,2.1l5.1,0.5c-0.1,0.5-0.5,1-1.6,1.2v6.6h3.6v-8.4l5.3,0.5
		c-0.1,0.6-0.5,1-1.6,1.2v6.6h3.7v-8.2l5.2,0.5c-0.1,0.6-0.4,1.1-1.6,1.2v6.5h3.6v-8.3l5.4,0.6c-0.1,0.6-0.5,1.1-1.6,1.2v6.5H35
		l2.3-3.1c0,0,2.6,2.1,4.1,3.7c-0.1,0.5-0.6,0.7-1.2,0.7h-5.6v9.2h1.2L38,27.4z M9.6,32.9c1.3,5.4-0.9,8.8-3.2,9.9
		c-1.5,0.8-3.4,0.6-4-0.9c-0.4-1.3,0.4-2.4,1.7-3c2-0.8,4.5-3,4.8-6L9.6,32.9z M12.7,30.7h3.6v-9.2h-3.6V30.7z M15.3,33.4
		c7.5,5.4,2.6,12-0.3,8.2c0.6-2.7,0.3-5.8-0.2-8.1L15.3,33.4z M20,21.4v9.2h3.7v-9.2H20z M23.2,33.1c10.2,4.1,6.5,12,2.9,8.8
		c-0.1-2.9-1.8-6.3-3.4-8.5L23.2,33.1z M27.3,21.4v9.2h3.6v-9.2H27.3z M32.6,32.8c12.3,3.7,8.8,12.8,4.7,9.6c-0.5-3.2-2.9-7-5.1-9.3
		L32.6,32.8z"/>
	<path class="st0" d="M45.7,12.4c10.3,1.4,7.1,8.8,3.3,6.2c-0.4-2.1-2.1-4.4-3.7-5.9L45.7,12.4z M57.8,10.5
		c-1.6,5.2-4.5,14.9-5.1,17.1c-0.3,1.4-0.6,2.8-0.6,3.9c0.1,2.2,1.6,4,1.5,7.8c-0.1,2.1-1.2,3.4-3.1,3.4c-0.9,0-1.8-0.7-2-2.2
		C49.3,36,49,32,48,31.4c-0.6-0.4-1.2-0.6-2.2-0.7v-0.9h1.9c0.6,0,0.7,0,1.2-0.9c0.8-1.6,0.8-1.6,8.1-18.6L57.8,10.5z M48.7,2.6
		c10.9,1.2,8.1,8.8,4.1,6.5c-0.7-2.2-2.8-4.7-4.5-6.2L48.7,2.6z M74.4,15.6c2.9,3.6,8.1,6.4,12.7,7.7L87,23.8
		c-1.5,0.4-2.6,1.6-3.1,3.7c-4.7-2.5-8.4-6.5-10.6-11.8h-4.4c-2.9,5.5-7.7,9.7-15.1,12.5l-0.3-0.5c5.5-3.2,9-7.2,11.2-12h-7
		l-0.4-1.3h8c0.9-2.3,1.5-4.7,1.8-7.3h-8.2l-0.4-1.3h18.4l2.4-3.1c0,0,2.7,2.2,4.4,3.7C83.5,6.8,83.1,7,82.5,7H71.9
		c-0.6,2.6-1.3,5.1-2.3,7.3h10l2.5-3.3c0,0,2.8,2.2,4.4,3.8c-0.1,0.5-0.6,0.7-1.2,0.7H74.4z M63,26.7c2.2,13.2-9.3,11.3-5.9,7.1
		c2.3-1,4.6-3.3,5.2-7.2L63,26.7z M66.7,21.5l5.4,0.5c-0.1,0.6-0.5,1-1.5,1.1v14.8c0,2.9-0.6,4.6-5.5,5.1c-0.1-1.2-0.3-2.2-1-2.8
		c-0.6-0.7-1.7-1.1-3.7-1.4v-0.7c0,0,4.4,0.3,5.3,0.3c0.7,0,0.9-0.2,0.9-0.8V21.5z M72.9,27.3c8.4,5.5,4.5,12.6,1.4,9.3
		c0.3-2.9-0.7-6.6-1.9-9.1L72.9,27.3z M77.9,26.4c11.8,4.8,8.5,13.6,4.7,10.4c-0.3-3.4-2.8-7.5-5.2-10.1L77.9,26.4z"/>
	<path class="st0" d="M107.4,9.4l4.1,3.5c-0.4,0.4-0.9,0.7-1.8,0.8c-0.4,16.5-1.1,24-3.3,26.4c-1.4,1.5-3.3,2.2-5.4,2.2
		c0-1.4-0.2-2.4-0.7-3c-0.7-0.7-2.1-1.2-3.8-1.5l0-0.7c1.6,0.2,4.1,0.4,5.1,0.4c0.8,0,1.2-0.2,1.6-0.6c1.5-1.5,2.1-9.4,2.4-23.8
		h-5.1c-0.4,10.6-2.2,21.7-11,29.9l-0.7-0.6c6-8.7,7.3-19.1,7.6-29.3h-6.1l-0.4-1.3h6.5c0.1-3.2,0-6.3,0-9.4l5.9,0.6
		c-0.1,0.7-0.5,1.1-1.6,1.2c0,2.5,0,5-0.1,7.6h4.5L107.4,9.4z M130.1,10.8c-0.3,0.4-1,0.7-1.9,0.9v28.2c-0.1,0.4-2.1,1.5-3.6,1.5
		H124v-4.2h-6.6v3.3c0,0.5-1.5,1.5-3.3,1.5h-0.7V7.7l4.2,1.9h5.9l2.2-2.5L130.1,10.8z M124,36V11h-6.6v25H124z"/>
	<path class="st0" d="M133.4,15.7c0.9,0,2.2-0.2,3.7-0.3V4.6l5,0.4c-0.1,0.5-0.4,0.9-1.4,1.1V15l3.3-0.3V2.2l5.5,0.5
		c-0.1,0.7-0.5,1.1-1.6,1.2v4.2h2l2-2.8c0,0,2.2,2,3.6,3.4c-0.1,0.5-0.5,0.7-1.1,0.7h-6.4v4.8c2.4-0.3,4.8-0.6,7.4-0.9l0.1,0.7
		c-4,1.4-9.9,3-18.5,5.2c-0.3,0.5-0.7,0.8-1.1,1L133.4,15.7z M149.8,34.9c-0.3,0.4-0.7,0.6-1.6,0.4c-3.1,2.4-8.4,4.9-13.8,6.2
		l-0.4-0.6c4.4-2.2,9-5.9,11.2-8.9L149.8,34.9z M160.9,24.7c13.2,2.4,11.3,10.4,7.2,8.3c-0.7-1.2-1.8-2.7-3.2-4.1
		c-2.3,0.4-5,0.8-8.1,1.3v8.3c0,2.8-0.7,4.4-5.6,4.8c-0.1-1.1-0.3-2-0.8-2.5c-0.5-0.5-1.5-1-3.4-1.3v-0.6c0,0,3.9,0.3,4.8,0.3
		c0.7,0,0.9-0.3,0.9-0.7v-7.6c-3.5,0.5-7.4,1-11.6,1.5c-0.3,0.4-0.6,0.7-0.9,0.8l-2.2-4.7c0,0,1.1-0.1,1.8-0.3
		c4.1-0.9,9.1-2.7,13.5-4.7c-3.1,0.5-6.8,1.1-10.7,1.5c-0.3,0.4-0.5,0.7-0.8,0.8l-2.1-4.1c0,0,0.8-0.1,1.3-0.3
		c4.4-1,10.1-4.3,12.4-6.1l4.5,2.9c-0.2,0.4-0.9,0.7-1.9,0.4c-2.8,1.2-7.5,2.7-11.8,3.7c3.2,0,7.7-0.2,12.5-0.3
		c2.6-1.3,4.8-2.5,6.3-3.5l4.3,3.5c-0.3,0.4-1,0.6-2.1,0.2c-4.8,2.2-14,5.1-22.1,6.9c5.1-0.1,12.9-0.5,21.1-0.9
		c-1.1-1.1-2.3-2.2-3.4-2.9L160.9,24.7z M172.5,13.8c1.2,0.4,1.5,0.9,1.5,1.6c0,1.7-1.7,2.2-8.7,2.2h-4.5c-4,0-4.8-0.8-4.8-3.5V2
		l5.4,0.5c-0.1,0.6-0.5,1-1.4,1.1v4.4h4.8l2.3-3.3c0,0,2.6,2.3,4,3.8c-0.1,0.5-0.6,0.7-1.2,0.7h-10v4.1c0,0.7,0.2,0.8,1.6,0.8h4
		c1.6,0,3,0,3.6-0.1c0.5,0,0.8-0.1,1.1-0.4c0.4-0.6,0.9-2.2,1.5-4.2h0.5L172.5,13.8z M159.9,32.5c15,1.5,13.6,10.7,8.8,8.8
		c-1.8-2.9-6-6.4-9.2-8.4L159.9,32.5z"/>
	<path class="st0" d="M197.4,7.6l4.1,3.8c-0.3,0.4-0.7,0.6-1.8,0.7c-2.1,12.9-6.5,24.8-21.9,30.9l-0.4-0.6
		c7.1-4.1,11.6-10,14.4-16.9c-0.7,0.7-2,0.9-3.3-0.1c-0.4-2.2-2.1-4.8-3.8-6.7c-1.9,3-4.1,5.5-6.7,7.6l-0.6-0.4
		c4.1-5.7,7.5-14.4,8.8-23.8l6.1,1.4c-0.2,0.6-0.7,1-1.7,1c-0.5,1.9-1.1,3.7-1.7,5.5h6L197.4,7.6z M188.5,11.3
		c-0.9,2.3-1.9,4.4-3.1,6.4c5.3,1.5,7.1,4.1,7.1,6.1c1.4-3.9,2.3-8.1,2.8-12.5H188.5z M207.9,16.2c14.5,4.2,11.7,13.5,7,10.6
		c-1.1-3.1-4.3-6.7-7-9.4v24.4c0,0.4-1.8,1.4-3.4,1.4h-0.8V2.5l5.9,0.6c-0.1,0.6-0.4,1.1-1.6,1.2V16.2z"/>
	<path class="st0" d="M225.5,30.4c1.5,4.4,1,7.8-0.2,9.5c-0.8,1.1-2.8,1.3-3.5,0c-0.6-1.1-0.1-2.2,0.9-3c1.1-1.1,2.3-4,2-6.5H225.5z
		 M222,25.1c0,0,1-0.2,1.4-0.5c2-1.7,4.4-4.9,6.3-8c-1.3,0.5-2.9,1.1-4.6,1.7c-0.4,0.6-0.7,0.9-1.2,1.1l-1.9-4.6
		c0,0,0.9-0.2,1.2-0.4c2.3-2.4,5.2-8.7,6.2-12.1l5.1,2.6c-0.2,0.4-0.7,0.7-1.6,0.6c-1.8,2.9-5,6.8-7.9,9.4c1.7,0,3.7,0,5.8,0
		c1-1.6,1.8-3.2,2.2-4.4l4.5,3.1c-0.2,0.4-0.8,0.7-1.6,0.5c-2.3,3.3-6.6,8-10.6,11.1c2.2-0.1,5-0.3,8.1-0.5
		c-0.5-1.6-1.2-3.2-1.9-4.4L232,20c7.9,4.4,4.7,10.5,1.8,7.8c0-0.6-0.1-1.3-0.3-2c-2.3,0.8-5.5,1.9-8.9,2.9
		c-0.3,0.4-0.7,0.7-1.1,0.9L222,25.1z M229.1,29.7c6.2,5.6,2.2,11.4-0.3,8.3c0.5-2.6,0.3-5.9-0.3-8.1L229.1,29.7z M233.1,29
		c7.5,3.6,4.3,9.3,1.5,6.8c0-2.2-1.1-4.9-2.1-6.6L233.1,29z M261.6,26.5c-0.2,0.4-0.9,0.6-1.6,0.3c-1.2,0.8-3.4,2.1-5.4,3.2
		c2.4,3,5.3,5,8.1,6.3l-0.1,0.5c-1.5,0.3-2.6,1.6-3.1,3.5c-4-3.5-6.8-7.7-8.4-15V38c0,2.7-0.7,4.6-5.2,5c-0.1-1.1-0.3-2.1-0.8-2.6
		c-0.6-0.6-1.5-1.1-3.4-1.3v-0.7c0,0,3.9,0.3,4.8,0.3c0.7,0,0.9-0.3,0.9-0.8V27.1c-0.2,0-0.5,0.1-0.8,0.1c-1.6,5.5-5.1,10.8-11.4,14
		l-0.4-0.6c4.4-3.4,7-8.6,8.1-13.7h-5.1l-0.4-1.3h5.4l2-2.1l2.7,2.3v-4.7H243v1.2c0,0.3-1.1,1-3,1h-0.7V6l4.1,1.7h2.3
		c0.3-1.6,0.6-4,0.8-5.8l6,1c-0.2,0.7-0.7,1-1.7,1.1c-0.9,1.1-2.4,2.5-3.5,3.7h7.3l1.8-2.2l3.7,2.9c-0.3,0.4-0.7,0.6-1.6,0.8v12.5
		c0,0.2-1.3,1-3.1,1h-0.7v-1.6H251v1.6c0.7,2.5,1.7,4.6,2.9,6.4c1.3-1.9,2.8-4.5,3.4-5.9L261.6,26.5z M243,8.9v4.8h11.9V8.9H243z
		 M254.9,19.8V15H243v4.8H254.9z"/>
	<path class="st0" d="M270.8,28.3v5.4c0,0.4-1.4,1.4-3.1,1.4h-0.5V5.3L271,7h4l1.9-2.2l4.1,3.2c-0.3,0.4-1,0.7-1.8,0.9v21.9
		c0,0.4-1.8,1.4-3.2,1.4h-0.6v-4H270.8z M270.8,8.3V27h4.7V8.3H270.8z M305.9,19.3c-0.3,0.4-0.7,0.6-1.8,0.7
		c-1.6,5-3.9,9.5-7.3,13.2c3,2.6,6.6,4.6,10.6,6l-0.1,0.5c-1.8,0.3-3.2,1.5-4,3.4c-3.7-1.9-6.7-4.3-9.2-7.4
		c-3.7,3.2-8.5,5.7-14.7,7.4l-0.4-0.6c5.7-2.2,10.1-5.3,13.5-9.1c-2.3-3.7-3.9-8.2-4.9-14h-0.2c-1.2,9.1-4.4,17.2-14.1,23.5
		l-0.6-0.7c11.2-10,11.3-22.5,11.4-35.5h-4.4l-0.4-1.3h16l1.8-2l4,3.2c-0.4,0.4-0.7,0.5-1.6,0.6L298.2,18h1.5l2.4-2.2L305.9,19.3z
		 M288.3,6.6c-0.1,3.9-0.2,7.7-0.6,11.4h6.3l1.7-11.4H288.3z M288.7,19.3c1.2,4.7,3.3,8.5,5.9,11.6c2.5-3.4,4.2-7.3,5.3-11.6H288.7z
		"/>
	<path class="st0" d="M324.8,41.3c0,0.5-1.8,1.7-3.3,1.7h-0.7V28.9c-2.1,1.3-4.8,2.9-7.6,4.6c-0.4,0.6-0.8,0.9-1.2,1.1l-2-4.3
		c1.4-0.7,1.6-1.1,1.6-2V6.6l5.4,0.6c-0.1,0.6-0.5,1-1.5,1.1v20.6c1.6-0.4,3.4-0.9,5.3-1.5V2.2l5.6,0.6c-0.1,0.6-0.4,1.1-1.5,1.2
		V41.3z M346.5,13.6c-1,7-2.9,13.2-6.6,18.4c2.9,3,6.6,5.3,11.3,7l-0.1,0.4c-2,0.4-3.3,1.6-3.8,3.6c-4.1-2-7.3-4.8-9.7-8.2
		c-3.1,3.3-7.3,6.2-12.6,8.3l-0.4-0.5c5-2.9,8.7-6.5,11.3-10.6c-2.1-3.8-3.4-8.4-4.4-13.5c-1.5,2.9-3.3,5.3-5.2,7.4l-0.6-0.4
		c2.9-5.9,5.3-14.8,6.2-23.4l6.3,1.4c-0.2,0.6-0.7,1-1.7,1.1c-0.7,2.7-1.5,5.4-2.4,7.8h9.9l2.5-3.2c0,0,2.7,2.2,4.4,3.7
		c-0.1,0.5-0.6,0.7-1.2,0.7H346.5z M333.7,13.6c-0.5,1.2-1,2.4-1.5,3.5c1.1,4.7,2.8,8.7,5.3,12.1c2.5-4.7,3.7-9.9,4.3-15.6H333.7z"
		/>
	<path class="st0" d="M353.1,23.9c2.8-3.3,3.3-7.1,3.5-10.2h-2.3l-0.4-1.2h6.8l1.5-1.5l3,2.5c-0.3,0.3-0.8,0.5-1.5,0.6
		c-0.2,5.6-0.4,7.8-1.6,8.8c-0.6,0.5-1.3,0.7-2,0.7c0-0.5-0.2-1.2-0.6-1.5c-0.3-0.4-0.9-0.6-1.5-0.7v-0.7c0.6,0,1.6,0.1,2,0.1
		c0.2,0,0.3-0.1,0.4-0.2c0.3-0.5,0.6-2.3,0.7-6.8h-2c-0.3,3.6-1.4,7.7-5.3,10.9L353.1,23.9z M374,23.9l5.4,0.5
		c-0.1,0.6-0.5,1-1.5,1.2v16.3c0,0.4-1.7,1.1-3.1,1.1H374v-8.4h-12.5c-0.9,3.2-2.9,6.4-7.5,8.5l-0.4-0.5c4-3.5,4.8-8.5,4.8-12.7V24
		l5.3,0.5c-0.1,0.6-0.4,1-1.5,1.1v1.9H374V23.9z M377,4.2c0,0,2.4,1.9,3.9,3.3c-0.1,0.5-0.6,0.7-1.2,0.7H354L353.7,7H368
		c-0.3-0.1-0.6-0.2-0.9-0.4c-0.3-1.6-1.5-3.4-2.7-4.5l0.4-0.3c6.8,0.7,6.3,4.6,4.3,5.2h5.7L377,4.2z M374,33.3v-4.5h-11.8V30
		c0,1.1-0.1,2.2-0.3,3.3H374z M363.5,8.7c6.3,1.6,4,6.2,1.7,4.4C365,11.7,364,10,363,9L363.5,8.7z M373.8,9.7
		c-0.2,0.5-0.7,0.9-1.7,0.8c-0.8,1.1-2,2.5-3.2,3.7l1.1,0.1c-0.1,0.5-0.4,0.8-1.2,0.9v8.8c0,0.3-1.2,0.8-2.1,0.8h-0.6V14l1.7,0.2
		c0.7-1.7,1.5-3.9,2-5.6L373.8,9.7z M375.7,15c7.7,3.7,4.9,9.5,2.3,7.2c0-0.5-0.1-1.1-0.2-1.7c-1.4,0.9-3.1,2-4.9,3
		c-0.3,0.5-0.7,0.8-1,1l-1.5-3c0.9-0.5,1.1-0.7,1.1-1.4v-8l3,0.4c1-0.8,2.1-1.8,2.8-2.4l3,2.6c-0.2,0.3-0.6,0.4-1.5,0.1
		c-1.2,0.4-3.2,0.8-4.8,1.2v6.5c1-0.4,2.2-0.7,3.3-1.1c-0.5-1.5-1.4-3-2.3-4L375.7,15z M385.5,32c0,0.4-1.5,1.1-2.7,1.1H382V6.8
		l5,0.5c-0.1,0.6-0.4,1-1.5,1.1V32z M394,3.5c-0.1,0.6-0.5,1.1-1.6,1.2v33.2c0,2.9-0.6,4.7-5.4,5.1c-0.1-1.3-0.3-2.2-0.9-2.9
		c-0.6-0.6-1.6-1.1-3.6-1.4v-0.6c0,0,4.2,0.3,5.1,0.3c0.7,0,0.9-0.3,0.9-0.9V2.9L394,3.5z"/>
	<path class="st0" d="M416.9,11.4c-0.3,0.4-1,0.7-1.8,0.9v26.5c0,0.4-2,1.2-3.3,1.2h-0.6v-3.4h-7.8v3.4c0,0.4-1.5,1.4-3.2,1.4h-0.7
		v-33l4,1.8h0.8c0.4-2.3,0.9-5.7,1.2-8.1l6.1,1.5c-0.2,0.7-0.8,1-1.8,1c-1.1,1.7-2.6,3.9-3.8,5.7h4.6l2-2.3L416.9,11.4z M403.3,11.6
		v11h7.8v-11H403.3z M411.1,35.4V23.9h-7.8v11.6H411.1z M438.4,11.4c-0.4,0.4-0.9,0.7-1.9,0.8c-0.3,17.1-1,25.9-3.3,28.5
		c-1.4,1.6-3.3,2.3-5.9,2.3c0-1.4-0.2-2.4-0.9-3c-0.7-0.7-2.5-1.3-4.5-1.7l0-0.7c2.1,0.2,5.1,0.4,6.2,0.4c0.9,0,1.2-0.1,1.7-0.6
		c1.6-1.6,2.2-10.8,2.5-25.9h-9.2c-2,3.7-4.4,6.9-7,9.2l-0.6-0.4c2.6-4.4,5.1-11.4,6.5-18.2l5.9,1.7c-0.2,0.5-0.7,0.9-1.7,0.9
		c-0.7,1.9-1.5,3.7-2.3,5.4h8.1l2.4-2.5L438.4,11.4z M419.6,19.3c11.9,4.2,8,12.7,4,9.4c-0.4-3-2.5-6.7-4.4-9.1L419.6,19.3z"/>
	<path class="st0" d="M106.9,110c0,0.3-1.3,1.1-3.3,1.1h-0.7V104c-3.2,1-7.2,2.2-12.4,3.7c-0.2,0.5-0.7,0.8-1.1,1l-2.1-4.7
		c1.1,0,2.6-0.2,4.4-0.3v-15h-4.4l-0.4-1.3H120l2.5-3.3c0,0,2.9,2.2,4.5,3.9c-0.1,0.5-0.6,0.7-1.2,0.7h-18.9V110z M97.2,84.9
		c0,0.4-1.8,1.3-3.5,1.3h-0.6V71l4.4,1.8h18.7l2.1-2.3l4.4,3.3c-0.3,0.4-0.9,0.7-1.8,0.9v9.8c0,0.3-2.1,1.1-3.5,1.1h-0.7V74.1H97.2
		V84.9z M95.7,88.6v3.9h7.3v-3.9H95.7z M95.7,97.7h7.3v-4h-7.3V97.7z M95.7,103.2c2.2-0.2,4.7-0.5,7.3-0.7V99h-7.3V103.2z
		 M112.3,80.3c0,0,1.8,1.4,3.1,2.5c-0.1,0.5-0.5,0.7-1.1,0.7H99.4L99,82.3h11.7L112.3,80.3z M112.3,75.7c0,0,1.8,1.4,3.1,2.5
		c-0.1,0.5-0.5,0.7-1.1,0.7H99.4l-0.4-1.3h11.6L112.3,75.7z M125.7,93.6c-0.3,0.4-0.7,0.6-1.7,0.7c-1.1,3.3-2.9,6.4-5.3,9.1
		c2.6,1.6,5.8,2.7,9.3,3.5l0,0.5c-1.8,0.4-3,1.7-3.6,3.7c-3.3-1.3-6.1-2.9-8.4-5.1c-2.4,2-5.3,3.6-8.8,4.9l-0.4-0.6
		c2.9-1.7,5.4-3.9,7.3-6.4c-2-2.6-3.4-5.9-4.4-10.2h-2.2l-0.4-1.3h11.8l2.5-2.4L125.7,93.6z M110.7,93.7c1.2,3.2,2.9,5.8,5.2,7.7
		c1.5-2.4,2.6-5,3.3-7.7H110.7z"/>
	<path class="st0" d="M146.7,93.4c-0.3,0.3-0.8,0.6-1.7,0.7c-0.4,8.3-1.4,13.3-3.3,14.9c-1.2,1-2.9,1.5-5.1,1.5c0-1.1-0.2-2-0.9-2.6
		c-0.7-0.6-2.4-1.1-4.2-1.5l0-0.7c1.9,0.1,5.1,0.4,6,0.4c0.8,0,1.2-0.1,1.5-0.4c1.1-0.9,1.8-5.4,2.2-12.3h-5.9l-1.5,1.7l-3.7-2.4
		c0.4-0.3,0.9-0.7,1.5-0.9c0.4-3,0.8-7.9,0.9-10.6l4.4,1.8h4v-8.8h-9.7l-0.4-1.3h9.6l1.9-2.2l4.2,3.2c-0.3,0.4-1,0.8-1.9,1v10.2
		c0,0.3-1.9,1-3.1,1H141v-1.9h-5c-0.2,2.3-0.5,5.6-0.8,8h5.6l2.1-2.1L146.7,93.4z M163,99.6c11.7,5.3,8.3,13.7,4.4,10.5
		c-0.2-1.5-0.8-3.1-1.6-4.7c-4.2,1.1-9.7,2.3-17,3.9c-0.3,0.6-0.7,0.9-1.2,1l-2.3-4.8c2.2,0,6.1-0.3,10.6-0.6v-7.5h-4.8v1.9
		c0,0.3-1.6,1.1-3.1,1.1h-0.5V86l3.9,1.6h4.5v-5.5c-2.1,0.4-4.4,0.8-6.6,1.3c-0.3,0.5-0.7,0.8-1.1,0.9l-2-4.7c0,0,0.9-0.2,1.3-0.4
		c3.1-1.8,7.2-6.8,8.7-9.5l5.1,2.7c-0.2,0.4-0.7,0.7-1.6,0.5c-2.3,2.2-6.3,4.9-9.9,6.9c3.6-0.1,8.9-0.4,14.7-0.8
		c-1.1-1.5-2.5-2.9-3.8-3.9l0.4-0.4c12.2,2.4,9.5,11.2,5.5,8.5c-0.2-1.1-0.7-2.1-1.4-3.2c-1.6,0.4-3.5,0.7-5.5,1.2v6.2h4.6l1.8-1.9
		l4,2.9c-0.3,0.3-0.8,0.7-1.6,0.8v9.2c0,0.3-1.9,1-3.1,1h-0.6v-2.2h-5v7.2l5.5-0.4c-0.8-1.6-1.8-3.2-2.7-4.4L163,99.6z M155.9,96.2
		v-7.3h-4.8v7.3H155.9z M159.7,88.9v7.3h5v-7.3H159.7z"/>
	<path class="st0" d="M180.1,72.6c0,0.5-0.3,1.7-0.5,3l-0.3,1.5l1.3-0.7c1.4-0.7,2.5-1.4,3.1-1.4c0.5,0,0.9,0.5,0.9,1
		c0,1-1.1,1.1-3.7,1.4l-1.5,0.2l1.1,1.1c1.4,1.3,2.4,2.1,2.4,2.8c0,0.5-0.4,0.9-0.9,0.9c-0.9,0-1.3-1.1-2.3-3.1l-0.7-1.4l-0.6,1.4
		c-1,2.1-1.4,3.2-2.3,3.2c-0.5,0-0.9-0.4-0.9-1c0-0.8,1-1.5,2.3-2.8l1.1-1.1l-1.5-0.2c-2.5-0.3-3.7-0.4-3.7-1.4c0-0.5,0.4-1,1-1
		s1.6,0.7,3.1,1.4l1.3,0.7l-0.3-1.5c-0.3-1.3-0.5-2.4-0.5-3c0-0.7,0.5-1.1,1-1.1C179.6,71.5,180.1,71.9,180.1,72.6z"/>
	<path class="st0" d="M198.1,91.8v0.8h-10.6v-0.8l4-0.5c0-1.5,0.1-3.1,0.1-4.6V76.3l-3.6,0.4v-1l6.1-1.5l0.4,0.3l-0.1,4.1v8.2
		c0,1.5,0,3.1,0.1,4.6L198.1,91.8z"/>
	<path class="st0" d="M233.7,76.5l-4.4,0.6l-0.1,17c0,9.9-4.5,14-11.5,14c-7.2,0-12-3.7-12-13.2v-5c0-4.3,0-8.6-0.1-12.9l-4-0.4
		v-1.6h14v1.6l-4.7,0.5c-0.1,4.2-0.1,8.5-0.1,12.8v4c0,8.3,3,11,8.1,11c5.5,0,8.4-3.2,8.4-11.7l-0.1-16.1l-5.1-0.7v-1.6h11.6V76.5z"
		/>
	<path class="st0" d="M266.6,76.4l-4,0.6l-10.3,30.6h-2.5l-11.2-30.7l-3.5-0.4v-1.6h13.7v1.7l-4.7,0.4l8.4,24.3l7.7-24.2l-4.6-0.5
		v-1.7h11V76.4z"/>
	<path class="st0" d="M285.8,74.9c-0.4,0.4-0.9,0.5-2,0.6c-1.5,2.7-4.2,7.6-6.3,10.3c4.9,3.2,6.8,7.3,6.8,10.8
		c0,4.3-1.7,6.5-6.4,6.7c0-1.1-0.2-2.6-0.6-3.1c-0.4-0.4-1.2-0.7-2.2-0.9v-0.6h3.2c0.5,0,0.7-0.1,1.1-0.3c0.7-0.4,1.1-1.3,1.1-2.8
		c0-3.2-1.1-6.5-4-9.6c0.9-2.8,2.3-8.1,3.1-11.6h-5.2v35.3c0,0.3-1.2,1.4-3.2,1.4h-0.7V71.3l4.5,1.8h4.4l2.3-2.2L285.8,74.9z
		 M305.5,75.4c0,0,2.8,2.2,4.4,3.8c-0.1,0.5-0.5,0.7-1.1,0.7h-14.2c-0.1,2.3-0.2,4.5-0.4,6.6h7.5l2.3-2.3l4.1,3.5
		c-0.3,0.4-0.9,0.6-1.8,0.8c-0.5,11.9-1.5,18.4-3.8,20.5c-1.4,1.3-3.2,1.8-5.5,1.8c0-1.3-0.2-2.3-0.8-2.9c-0.7-0.7-2.4-1.2-4.2-1.6
		l0-0.7c1.8,0.2,4.9,0.4,5.9,0.4c0.7,0,1.1-0.1,1.6-0.5c1.4-1.3,2.2-7.7,2.7-17.8h-8.1c-1.3,10-4.7,18-15,23.2l-0.4-0.5
		c9.5-7.8,11.3-18,11.4-30.6h-7.1l-0.4-1.3h20.6L305.5,75.4z M291.3,70.2c11,2.9,6.6,11,2.7,7.5c-0.1-2.4-1.6-5.4-3.2-7.2
		L291.3,70.2z"/>
	<path class="st0" d="M324.8,103.2c-0.1,0.3-1.7,1.1-2.9,1.1h-0.5v-3.4h-3.8v4.3c0,0.3-1.1,1.1-2.8,1.1h-0.6V73.1l4,1.6h2.8l1.8-2
		l3.8,3.1c-0.3,0.4-1,0.7-1.8,0.9V103.2z M317.6,76v11.1h3.8V76H317.6z M321.4,99.6V88.3h-3.8v11.3H321.4z M351.4,83.3
		c0,0.2-0.7,0.6-1.5,0.9c0.7,0.5,2.4,1.8,3.6,2.9c-0.1,0.5-0.6,0.7-1.1,0.7h-8v2.9h3l1.7-1.8l3.7,2.7c-0.2,0.3-0.8,0.6-1.6,0.7v4.4
		c0,0.3-1.7,1.1-2.8,1.1h-0.6v-1.3h-17.4c-0.3,4.8-1.5,10.5-5.7,14.7l-0.5-0.4c2.8-5.7,2.9-12.5,2.9-18.3v-7.6l4,1.6h7.6
		c0-0.9-0.5-1.8-1-2.6c-0.5,0.3-1.5,0.7-2.2,0.7H335v-6.8h-4.9V84c0,0.3-1.3,0.9-2.5,0.9h-0.4v-9.7l3.1,1.4h4.4l1.5-1.5l3.1,2.3
		c-0.2,0.3-0.6,0.5-1.2,0.7v4.8c1.3,0.2,2.2,0.6,2.7,1.1v-8.8l3.2,1.4h4.1l1.5-1.5l3.2,2.5c-0.2,0.3-0.7,0.5-1.4,0.7V83.3z
		 M326.4,74.4l-0.4-1.3h8.4l1.8-2.3c0,0,2.1,1.6,3.3,2.9c-0.1,0.5-0.5,0.7-1.1,0.7H326.4z M338.3,99.6c0,0,1.6,1.4,2.6,2.5
		c-0.1,0.5-0.5,0.7-1.1,0.7H335v3.5c1.7-0.4,3.6-0.7,5.5-1.1l0.2,0.6c-1.4,0.8-4.3,2.5-7.3,4c-0.3,0.5-0.7,0.9-1,1.1l-2-3.9
		c1.1-0.7,1.3-0.9,1.3-1.6v-8.3l4.7,0.5c-0.1,0.5-0.4,0.9-1.4,1v2.9h1.9L338.3,99.6z M330.5,92.5c0,0.9,0,1.8,0,2.8h3.7v-3.3h-3.7
		V92.5z M330.5,87.8v2.9h3.7v-2.9H330.5z M331,79c5.6,1.5,3.3,5.7,1.1,3.9c0-1.2-0.8-2.8-1.7-3.6L331,79z M341,87.8h-3.7v2.9h3.7
		V87.8z M337.4,95.3h3.7v-3.3h-3.7V95.3z M340.3,74.4l-0.4-1.3h7.8l1.9-2.4c0,0,2.2,1.7,3.5,3c-0.1,0.5-0.5,0.7-1.1,0.7H340.3z
		 M347.5,86.5l1.8-2.2c-0.1,0-0.3,0-0.4,0h-0.5v-6.6h-4.6v5.9c0,0.3-1.3,0.9-2.6,0.9c0.4,0.7,0.2,1.5-0.3,2H347.5z M351.7,106.6
		c0.9,0.4,1.1,0.7,1.1,1.4c0,1.4-1.3,2-5.6,2h-2.6c-2.8,0-3.3-0.8-3.3-2.9v-9.8l4.6,0.5c-0.1,0.5-0.5,0.9-1.3,1.1v2.8h2.2l1.6-2.2
		c0,0,1.9,1.6,3,2.8c-0.1,0.5-0.5,0.7-1.1,0.7h-5.7v3.4c0,0.5,0.1,0.6,0.9,0.6h1.8c0.7,0,1.5,0,1.7,0c0.3,0,0.5,0,0.7-0.3
		c0.3-0.4,0.7-1.8,1.1-3.3h0.5L351.7,106.6z M344.2,79c5.6,1.5,3.3,5.7,1.1,4c0-1.3-0.7-2.8-1.6-3.7L344.2,79z M344.3,91.9v3.3h3.4
		v-3.3H344.3z"/>
</g>
</svg>
