<?xml version="1.0" encoding="utf-8"?>
<!-- Generator: Adobe Illustrator 26.0.3, SVG Export Plug-In . SVG Version: 6.00 Build 0)  -->
<svg version="1.1" id="head-block-01.svg" xmlns="http://www.w3.org/2000/svg" xmlns:xlink="http://www.w3.org/1999/xlink" x="0px"
	 y="0px" viewBox="0 0 234.2 90.2" style="enable-background:new 0 0 234.2 90.2;" xml:space="preserve">
<style type="text/css">
	.st0{opacity:0.2;fill:#1E9FE0;enable-background:new    ;}
	.st1{opacity:0.2;fill-rule:evenodd;clip-rule:evenodd;fill:#1E9FE0;enable-background:new    ;}
	.st2{fill:#1147B4;}
</style>
<rect id="長方形_978" y="27.8" class="st0" width="234.2" height="10"/>
<path id="長方形_978-2" class="st1" d="M33.8,80.2h163.7v10H33.8V80.2z"/>
<g>
	<path class="st2" d="M33.2,17.4H27V34h-4V17.4h-6v3h-4.7v7.7c1.6-0.3,3.3-0.5,4.9-0.8l0.2,3.1c-4.7,1-9.7,1.9-13.5,2.7l-0.8-3.5
		c1.6-0.2,3.5-0.5,5.7-0.9v-8.2H3.6v-3.3h5.2v-2.4H6.2v-1.5c-0.6,0.5-1.2,1-1.7,1.4c-0.2-0.9-1-3-1.5-4C5.6,8.9,8.4,6,10,3l3.1,1.3
		c-0.2,0.4-0.4,0.8-0.7,1.2c2.3,1.2,4.5,2.7,5.9,3.9l-2.1,3c-0.2-0.2-0.4-0.4-0.7-0.6v2.9h-3.3v2.4h4.6v-3.6H23v-10h4v10.1h6.1v3.8
		H33.2z M7,21.7c0.6,1.7,1.1,4.1,1.3,5.6l-2.7,0.8c-0.1-1.6-0.6-3.9-1.2-5.7L7,21.7z M15.2,11.5c-1.3-1-2.9-2.2-4.6-3.2
		C9.8,9.4,8.9,10.5,8,11.5H15.2z M12.6,26.9c0.4-1.5,1-3.9,1.2-5.5l2.9,0.8c-0.7,1.9-1.3,4.1-1.8,5.5L12.6,26.9z"/>
	<path class="st2" d="M45.9,28.2c2.1-0.2,4.2-0.5,6.3-0.7l0.1,3.4c-5.7,0.7-11.8,1.4-16.2,1.8l-0.5-3.6c1.8-0.2,4.2-0.4,6.6-0.6V26
		h-5v-3.2h5v-2.2h-5.6v-3.2h3.6c-0.5-1-1.4-2.2-2.1-3.1l1.7-0.9h-4.1v-3.2h4.5V8.7l-1.7,1.2c-0.5-1.1-1.7-2.8-2.7-4l2.4-1.6
		c0.7,0.7,1.4,1.6,2,2.4V3.2h3.1v7h1.5v-7h3.1V7c0.7-0.9,1.4-1.8,1.8-2.6l3.1,1.7C51.4,7.6,50,9,49,10l-1.1-0.7v1h4.3v3.2h-4.3
		l2.2,0.8c-0.6,1.1-1.2,2.2-1.8,3.3h2.9v3.2h-5.4V23h5v3.2h-5L45.9,28.2L45.9,28.2z M41.3,13.5c0.8,1,1.6,2.1,1.9,2.9l-1.9,1.1h3.5
		c0.6-1.2,1.4-2.8,1.8-4.1h-5.3V13.5z M65.7,15.2h-2.5v14.4c0,2-0.4,3-1.6,3.6c-1.2,0.7-2.9,0.8-5.5,0.8c-0.2-1-0.8-2.7-1.3-3.7
		c1.7,0.1,3.3,0.1,3.9,0.1c0.6,0,0.8-0.2,0.8-0.7V15.2h-7.1v-3.7h7.1V3.3h3.8v8.3h2.5v3.6H65.7z M55,25.6c-0.2-1.9-1.2-5-2.4-7.5
		l3.2-1.1c1.2,2.3,2.3,5.3,2.6,7.3L55,25.6z"/>
	<path class="st2" d="M97.4,12.8c-0.7,5-1.8,9.3-3.5,12.8c1.4,2.2,3.2,4.1,5.3,5.3c-0.9,0.7-2,2.2-2.6,3.2c-1.9-1.3-3.6-3-4.9-5
		c-1.5,1.8-3.2,3.5-5.3,4.8c-0.5-0.7-1.8-2.2-2.6-2.9c2.5-1.4,4.5-3.2,5.9-5.4c-1.1-2.2-1.9-4.8-2.5-7.6c-0.3,0.5-0.6,1-0.9,1.5
		c-0.5-0.7-1.8-1.9-2.6-2.5l-0.1,1.9h2.1v3.2h-2.2c-0.1,1.5-0.2,2.7-0.2,3.8h2.2V29H83c-0.2,1.7-0.5,2.7-0.9,3.2
		c-0.6,1-1.3,1.3-2.2,1.5c-0.9,0.2-2.1,0.2-3.5,0.1c-0.1-1-0.4-2.4-0.9-3.3c1.1,0.1,2,0.1,2.6,0.1c0.5,0,0.7-0.1,1-0.6
		c0.1-0.2,0.3-0.5,0.4-1.1h-9.8c0.3-1.9,0.6-4.4,0.9-6.9h-2v-3.2h2.3c0.1-1.2,0.2-2.4,0.3-3.5v0.1c-0.7-0.6-2.2-1.7-3.1-2.2
		c2-2.4,3.4-6.2,4.2-10L75.6,4c-0.2,0.9-0.4,1.7-0.6,2.6h10.4V10H73.8c-0.3,0.8-0.7,1.6-1,2.3h10.9v1.6l-0.1,2.8
		c2.2-3.2,3.7-8.3,4.4-13.4l3.7,0.6c-0.3,1.8-0.7,3.7-1.2,5.5h8.4v3.5h-1.5V12.8z M73.9,22.1c-0.1,1.3-0.3,2.6-0.4,3.8h3
		c-0.5-0.9-1.3-2-2.1-2.9l1.6-0.9H73.9z M74.4,15.4c-0.1,1.2-0.2,2.3-0.3,3.5h2.6c-0.4-0.9-1.1-1.9-1.8-2.7l1.6-0.8
		C76.5,15.4,74.4,15.4,74.4,15.4z M79.7,25.9c0.1-1,0.2-2.2,0.2-3.8h-3c0.9,1,1.7,2.1,2.2,3l-1.2,0.7L79.7,25.9L79.7,25.9z M80,18.9
		c0-1.1,0.1-2.2,0.1-3.5h-2.8c0.8,0.9,1.6,2.1,1.9,3L78.1,19H80V18.9z M89.5,12.8c0.5,3.1,1.3,6,2.3,8.6c0.9-2.5,1.5-5.4,1.9-8.6
		C93.7,12.8,89.5,12.8,89.5,12.8z"/>
	<path class="st2" d="M130.9,12.1c-1.3,2.9-2.9,5.6-4.9,8c0.9,5.9,2.1,10.1,2.9,10.1c0.4,0,0.7-1.9,0.8-5.8c0.8,0.8,1.9,1.7,2.9,2.1
		c-0.5,5.9-1.6,7.4-4.2,7.4c-2.5,0-4.4-4.5-5.5-10.7c-0.6,0.5-1.2,0.9-1.7,1.4c1.1,2.2,2.2,5.1,2.8,6.9l-2.7,1.2
		c-0.3-1-0.8-2.4-1.3-3.8c-0.3,3.8-1.1,4.8-3.2,4.8H114c-2.7,0-3.4-0.9-3.4-3.5v-5.8h2.9l-0.5-0.8l0.9-0.4h-4.7v-7.6h10.7v5.8
		c0.9-0.6,1.7-1.3,2.4-2.1c-0.4-3-0.7-6.2-0.9-9.3h-13.8v3.1c0,5.8-0.5,15.2-3.5,21.3c-0.7-0.6-2.3-1.7-3.1-2.1
		c2.7-5.7,3-13.9,3-19.2V6.5h17.3c-0.1-1.1-0.1-2.2-0.1-3.3h3.7c0,1.1,0,2.2,0,3.3h2.7c-0.7-0.7-1.7-1.5-2.4-2.1l2.3-1.6
		c1.1,0.8,2.5,1.9,3.2,2.6l-1.5,1.1h2.5v3.2H125c0.1,1.9,0.3,3.7,0.5,5.5c0.9-1.3,1.6-2.7,2.1-4.1L130.9,12.1z M106,31.7
		c0.9-1.8,1.5-4.7,1.8-7l2.5,0.8c-0.3,2.4-0.9,5.5-1.8,7.5L106,31.7z M120.2,13.8h-11.6v-2.6h11.6V13.8z M112.3,20.4h4.5v-2.5h-4.5
		V20.4z M116.3,30.9c0.7,0,0.8-0.5,0.9-3.5c0.6,0.5,1.8,0.9,2.6,1.1c-0.4-1.2-0.9-2.3-1.3-3.3l2.4-1c-0.3-0.4-0.8-0.9-1.3-1.4h-4.1
		c0.9,1.4,1.8,3.1,2.3,4.1l-2.5,1.3c-0.4-1-1.1-2.3-1.8-3.7V30c0,0.8,0.1,0.9,0.8,0.9H116.3z"/>
	<path class="st2" d="M161.7,29.8c0.2,0,0.3,0,0.4-0.2c0.1-0.1,0.2-0.4,0.2-1.2c0.1-0.7,0.1-2.3,0.1-4.2c0.8,0.7,2,1.4,3.1,1.7
		c0,1.7-0.2,4-0.4,4.9s-0.6,1.6-1.1,2c-0.5,0.4-1.3,0.6-2,0.6h-1.9c-0.8,0-1.7-0.3-2.3-0.9c-0.6-0.7-0.9-1.4-0.9-4.3V8.1h-3.6v9.7
		c0,5.1-0.4,12.2-3.6,16.4c-0.7-0.7-2.3-1.8-3.2-2.3c-0.2,0.4-0.5,0.7-1,1c-1,0.6-2.4,0.7-4.6,0.7c-0.1-1-0.6-2.7-1.1-3.7
		c1.2,0.1,2.4,0.1,2.8,0.1c0.4,0,0.6-0.2,0.6-0.6v-7.6c-0.8,0.8-1.7,1.6-2.4,2.4l-1.1-2c-0.3,4.2-1,8.6-2.4,11.9
		c-0.7-0.6-2.3-1.5-3.2-1.8c2-4.5,2.2-11.1,2.2-16V4.4H147v25.1c0,0.9-0.1,1.6-0.3,2.1c2.5-3.8,2.7-9.3,2.7-13.8V4.4h11.4v23.9
		c0,0.8,0,1.3,0.1,1.4s0.2,0.2,0.3,0.2h0.5V29.8z M139.9,16.3c0,1.3,0,2.8-0.1,4.3c1-0.7,2.2-1.5,3.4-2.4v-2.3l-1.1,0.9
		c-0.5-0.7-1.4-1.7-2.2-2.6L139.9,16.3L139.9,16.3z M139.9,8v3.8l1-0.8c0.8,0.7,1.6,1.5,2.3,2.3V8H139.9z"/>
	<path class="st2" d="M192.1,13.9c1.3,0,3.7-0.1,4.5-0.3c0.1,1,0.2,1.6,0.3,2.3c-0.9,0.2-2.7,0.3-4.3,0.3h-7.9c-3.1,0-4-1-4.1-2.8
		l-5.5,0.2v-1.7l5.5-0.2v-1.1H174v5.9c0,5-0.5,12.5-3.3,17.3c-0.7-0.6-2.4-1.6-3.4-2c2.6-4.4,2.9-10.8,2.9-15.3V8.1h10.4v-5h4v1.5
		H195V7h-10.4v1h9.5l0.6-0.2l2.9,0.8c-0.6,1.7-1.4,3.6-2.1,4.8l-3.3-1.1c0.2-0.5,0.4-1.1,0.7-1.7H184v0.9l7.3-0.2V13l-7.3,0.2
		c0.1,0.4,0.5,0.6,1.4,0.7H192.1z M194,31c0,1.5-0.3,2-1.3,2.5c-1,0.4-2.4,0.4-4.2,0.4c-0.2-0.8-0.6-1.7-1-2.4
		c0.9,0.1,1.9,0.1,2.2,0c0.3,0,0.5-0.1,0.5-0.4v-0.8c-3.1,0.5-6.2,1.1-8.8,1.5l-0.8-2.5c1.8-0.1,4.3-0.4,6.9-0.6
		c-1.8-0.6-4.4-1.2-6.4-1.5l0.8-1.5c2.3,0.3,5.5,0.9,7.2,1.5l-0.6,1.4l1.7-0.2v-2.7h-9.7v1.8c0,2.4-0.4,5.1-2.6,6.9
		c-0.6-0.7-2.3-1.9-3.1-2.4c1.8-1.4,2-3,2-4.6V24H194V31z M175.1,16.9h20.6v6.3h-20.6V16.9z M178.7,19.3h4.8v-1h-4.8V19.3z
		 M178.7,21.7h4.8v-0.9h-4.8V21.7z M191.9,18.4H187v1h4.9V18.4z M191.9,20.8H187v0.9h4.9V20.8z"/>
	<path class="st2" d="M230.3,8.3c0,0,0,1.3,0,1.8c-0.4,14.8-0.8,20-2.1,21.8c-0.9,1.2-1.8,1.6-3.2,1.8c-1.3,0.2-3.2,0.1-5.2,0.1
		c-0.1-1.1-0.6-2.7-1.3-3.8c2.1,0.2,4.1,0.2,4.9,0.2c0.7,0,1-0.1,1.5-0.6c1-1.1,1.4-6,1.7-17.7h-7.1c-0.9,2-1.9,3.8-2.9,5.2
		c-0.5-0.5-1.7-1.3-2.5-1.8v15.4h-8.8V33h-3.6V8.5h3.7c0.4-1.6,0.8-3.8,1-5.3l4.3,0.6c-0.6,1.7-1.2,3.3-1.7,4.7h5.1v5.3
		c1.9-2.8,3.5-6.8,4.5-10.6l3.8,0.9c-0.4,1.4-0.8,2.8-1.3,4.2C221.1,8.3,230.3,8.3,230.3,8.3z M210.6,12h-5.2v5.3h5.2V12z
		 M210.6,27.2v-6.5h-5.2v6.5H210.6z M221.5,25.4c-0.9-2-3-5.2-4.6-7.6L220,16c1.7,2.3,3.8,5.4,4.9,7.3L221.5,25.4z"/>
	<path class="st2" d="M45.9,56.5c-0.9,2.3-1.9,4.6-3.1,6.9V86H39V69.2c-0.7,0.9-1.5,1.8-2.2,2.6c-0.4-1-1.4-3.1-2.1-4.1
		c3-3,5.9-7.7,7.5-12.3L45.9,56.5z M60.2,71.1c0.7,6,1.8,10.2,2.8,10.2c0.5,0,0.8-1.5,1-4.1c0.6,0.7,2,1.7,2.6,2
		c-0.8,5.2-2.2,6.5-3.6,6.5c-3.4,0-5.3-5.8-6.3-14.6h-6.5V78l5.3-1.3c-0.1,1-0.1,2.5,0.1,3.3c-7.2,1.9-8.4,2.4-9.2,2.9
		c-0.2-0.9-0.8-2.4-1.4-3.1c0.7-0.3,1.6-1,1.6-2.3V58.6C52,57.8,58.2,56.5,62,55l2.9,2.9c-1.7,0.6-3.6,1.2-5.6,1.6
		c0.1,2.8,0.2,5.4,0.4,7.9h5.9V71L60.2,71.1L60.2,71.1z M49.6,82.1h8.8v3.2h-8.8V82.1z M56.3,67.4c-0.2-2.2-0.3-4.6-0.4-7.1
		c-1.9,0.4-3.8,0.7-5.7,1v6.1H56.3z"/>
	<path class="st2" d="M79.2,58.8h6.6v3.5h-6.6v2.4h6.3V71c0,1.4-0.2,2.2-1.1,2.7s-2,0.6-3.6,0.6c-0.1-0.9-0.5-2.2-0.9-3
		c0.8,0,1.6,0,1.8,0c0.3,0,0.4-0.1,0.4-0.4V68h-2.9v6.4c1.8,1,5.6,3.3,6.6,4l-2,3.4c-1.1-1-2.9-2.4-4.6-3.7v7.8h-3.6v-8
		c-1.7,2.6-3.7,5-5.7,6.5c-0.4-1.1-1.2-2.7-1.8-3.6c3-2,6-5.5,7.6-8.7V68H73v6h-3.4v-9.3h6v-2.4h-6.8v-3.5h6.8v-3.3h3.6V58.8z
		 M90.9,77.3h-3.7V58.7h3.7V77.3z M98,55.9v25.5c0,2.2-0.4,3.3-1.7,3.9C95,85.9,93,86,90.2,86c-0.2-1.1-0.7-2.9-1.3-4
		c1.9,0.1,3.8,0.1,4.5,0.1c0.6,0,0.8-0.2,0.8-0.7V55.9H98z"/>
	<path class="st2" d="M105.6,70.6c-1-1-3-2.6-4.5-3.7l2.2-2.3c1.5,1,3.6,2.4,4.6,3.5L105.6,70.6z M108.5,75.4
		c-1.1,3.4-2.5,7.2-3.8,10.2l-3.1-1.8c1.3-2.5,2.9-6.6,4.2-10.2L108.5,75.4z M106.6,62c-1-1.2-3-3-4.6-4.3l2.3-2.1
		c1.6,1.1,3.7,2.8,4.7,4L106.6,62z M130.8,64.7c-0.5,5.1-1.3,9.4-2.7,13c1.1,2,2.5,3.8,4.3,5.1c-0.7,0.7-1.9,2.1-2.4,3.1
		c-1.5-1.3-2.7-2.8-3.6-4.5c-1.1,1.8-2.4,3.3-4.1,4.7c-0.5-0.6-1.7-1.8-2.5-2.3c2.1-1.6,3.7-3.5,4.9-6c-1-2.4-1.6-5.1-2.1-7.7
		c-0.3,0.6-0.6,1.1-0.9,1.6c-0.3-0.5-1.1-1.4-1.8-2.1h-4.3c0.4,0.6,0.7,1.4,1,2h4.3v3.2h-6.5v0.9v0.6h5.7c0,0,0,0.8-0.1,1.2
		c-0.2,4.4-0.4,6.3-1,7.1c-0.5,0.7-1.1,0.9-1.9,1c-0.7,0.1-1.8,0.1-3,0.1c-0.1-1-0.4-2.3-0.9-3.1c0.9,0.1,1.7,0.1,2.1,0.1
		c0.3,0,0.6,0,0.8-0.3c0.2-0.3,0.4-1.2,0.5-3.1H114c-0.6,2.3-1.8,4.8-4.5,6.7c-0.6-0.7-1.8-1.7-2.6-2.2c3.8-2.7,4.3-6.1,4.3-8.3
		v-0.8h-2.7v-3.2h4.4c-0.2-0.5-0.5-1-0.7-1.5l2.7-0.6h-5.4V58.3h3.1c0.3-1.1,0.5-2.2,0.6-3.1l4.1,0.4c-0.3,1-0.7,1.9-1,2.7h4v8.5
		c1.4-3.2,2.3-7.4,2.9-11.7l3.4,0.6c-0.2,1.8-0.6,3.6-1,5.4h6.5v3.5L130.8,64.7L130.8,64.7z M116.9,61.1h-4.5v1.6h4.5V61.1z
		 M116.9,65.2h-4.5v1.6h4.5V65.2z M124.4,65.3c0.4,2.6,0.9,5.4,1.8,8.1c0.7-2.6,1.2-5.5,1.4-8.7h-3L124.4,65.3z"/>
	<path class="st2" d="M134.7,56.5h15.7v3.3h-4.1V63h3.9v22.5H147v-1.7h-8.9v2.1h-3V63h3.7v-3.2h-4.2L134.7,56.5z M147.1,80.8v-7.5
		H147h-1.3c-1.7,0-2.2-0.6-2.2-2.8v-4.3H142v2.4c0,1.9-0.4,4.3-2.2,5.9c-0.3-0.4-1.2-1.1-1.7-1.4v7.6h9V80.8z M138.2,66.2V73
		c1.5-1.3,1.7-3,1.7-4.4v-2.4H138.2z M139.2,75.7h7v3h-7V75.7z M143.3,59.7h-1.4V63h1.4V59.7z M147.1,66.2h-1.4v4.3
		c0,0.5,0.1,0.6,0.3,0.6h0.7c0.3,0,0.4,0,0.4-0.1V66.2z M160.2,82c1.2,0,1.4-0.8,1.6-5.2c0.8,0.6,2.5,1.3,3.5,1.6
		c-0.4,5.6-1.4,7.3-4.7,7.3h-4.4c-3.6,0-4.7-1.2-4.7-5.1V67.1h8.7v-6.7h-8.8v-3.7H164v14.1h-8.6v9.6c0,1.3,0.2,1.6,1.4,1.6
		C156.8,82,160.2,82,160.2,82z"/>
	<path class="st2" d="M180.8,64.3c-0.1,1.3-0.2,2.6-0.3,4h14.2c0,0,0,1.2-0.1,1.7c-0.6,8.9-1.3,12.6-2.6,14c-1,1.1-2,1.4-3.5,1.6
		c-1.3,0.1-3.5,0.1-5.7,0c-0.1-1.2-0.6-2.8-1.4-3.9c2.2,0.2,4.6,0.2,5.5,0.2c0.7,0,1.2-0.1,1.6-0.4c0.9-0.8,1.5-3.6,1.9-9.5H180
		c-1.1,5.5-3.6,10.7-9.5,14.1c-0.6-1.1-1.8-2.4-2.9-3.2c7.9-4.2,8.5-11.7,8.9-18.6h-8.3v-3.8H182c-0.5-1.3-1.3-2.9-2-4.3l3.9-1.5
		c0.9,1.5,1.9,3.5,2.4,4.7l-2.3,1h13.5v3.8h-16.7V64.3z"/>
</g>
</svg>
