<?xml version="1.0" encoding="utf-8"?>
<!-- Generator: Adobe Illustrator 25.0.1, SVG Export Plug-In . SVG Version: 6.00 Build 0)  -->
<svg version="1.1" id="レイヤー_1" xmlns="http://www.w3.org/2000/svg" xmlns:xlink="http://www.w3.org/1999/xlink" x="0px"
	 y="0px" viewBox="0 0 237.4 27.9" style="enable-background:new 0 0 237.4 27.9;" xml:space="preserve">
<style type="text/css">
	.st0{fill-rule:evenodd;clip-rule:evenodd;}
</style>
<path id="HOW_TO_USE" class="st0" d="M5.2,0.6H0v26.7h5.2V15.4h11.3v11.9h5.2V0.6h-5.2v10.3H5.2V0.6z M41.5,0
	c-8.4,0-14.2,5.9-14.2,14s5.8,13.9,14.2,13.9S55.8,22.1,55.8,14S49.9,0,41.5,0L41.5,0z M41.5,23.2c-5.2,0-8.9-3.8-8.9-9.2
	s3.7-9.2,8.9-9.2s8.9,3.8,8.9,9.2S46.7,23.2,41.5,23.2L41.5,23.2z M78.2,10.4L84,27.3h3.9l9.9-26.7h-5.5l-6.4,18.2L79.7,0.4h-2.9
	l-6.5,18.4l-6-18.2h-5.5l9.3,26.7H72L78.2,10.4z M126.2,5.1V0.6H109v4.5h6v22.2h5.2V5.1L126.2,5.1L126.2,5.1z M142.1,0
	c-8.4,0-14.2,5.9-14.2,14s5.8,13.9,14.2,13.9s14.2-5.8,14.2-13.9S150.5,0,142.1,0L142.1,0z M142.1,23.2c-5.2,0-8.9-3.8-8.9-9.2
	s3.7-9.2,8.9-9.2S151,8.6,151,14S147.3,23.2,142.1,23.2L142.1,23.2z M172.1,0.6v16.3c-0.2,2.5,0.5,5,2,7.1
	c4.4,4.8,11.9,5.1,16.7,0.7c0.3-0.2,0.5-0.5,0.7-0.7c1.5-2.1,2.2-4.6,2-7.1V0.6h-5.2v16.8c0.1,1.4-0.4,2.9-1.3,4
	c-2.2,2.3-5.9,2.5-8.2,0.3c-0.1-0.1-0.2-0.2-0.3-0.3c-0.9-1.1-1.4-2.5-1.3-4V0.6H172.1L172.1,0.6z M216.2,3.1c-2-2-4.7-3.2-7.6-3.1
	c-5.9,0-8.6,3.9-8.6,7.9c-0.1,1.9,0.7,3.7,2.1,5c1.3,1.1,2.8,1.8,4.4,2.3c1.5,0.4,2.9,1,4.1,2c0.7,0.6,1.1,1.5,1,2.4
	c0,2.2-1.8,3.7-4.1,3.7c-2.4,0-4.6-1.4-5.6-3.6l-3.4,3.2c2,3.1,5.5,5,9.2,5c5.5,0,9.3-3.6,9.3-8.8c0.1-2.1-0.7-4.2-2.3-5.6
	c-1.6-1.2-3.4-2.1-5.4-2.7c-1.2-0.3-2.2-0.8-3.2-1.5c-0.5-0.4-0.9-1.1-0.8-1.8c0-1.4,0.9-3.1,3.7-3.1c1.7,0,3.4,0.8,4.4,2.3
	L216.2,3.1z M237.4,0.6h-14.8v26.7h14.8v-4.5h-9.6v-7.3h9.2v-4.5h-9.2v-6h9.6L237.4,0.6L237.4,0.6z"/>
</svg>
