<svg xmlns="http://www.w3.org/2000/svg" viewBox="0 0 37.37 37.33"><defs><style>.cls-1{fill:#fff;}.cls-2{fill:none;}.cls-3{fill:#1147b4;}</style></defs><g id="レイヤー_2" data-name="レイヤー 2"><g id="トンボ"><rect class="cls-1" x="1.04" y="0.97" width="34.77" height="35.46" rx="2.77"/><rect class="cls-1" x="1.04" y="0.97" width="34.77" height="35.46" rx="2.77"/><path class="cls-2" d="M32.37,18.62a.44.44,0,0,1-.41.31H31.9a.42.42,0,0,1-.36-.41l-.07-7.16-3.94,6a.42.42,0,0,1-.75-.35l2-6.87-5.53,4.56a.42.42,0,0,1-.55,0,.44.44,0,0,1-.07-.55l4-5.95L20,10.88a.42.42,0,0,1-.43-.71l5.56-4.53L18,6.3A.42.42,0,0,1,17.57,6a.42.42,0,0,1,.26-.49L24.47,2.8,18.25,1.49H3.73A2.25,2.25,0,0,0,1.49,3.73V33.6a2.25,2.25,0,0,0,2.24,2.24H33.6a2.25,2.25,0,0,0,2.24-2.24V16.35l-1.48-4.61Z"/><path class="cls-2" d="M33.6,1.49H29.21a5,5,0,0,0,4.37,5.35,4.8,4.8,0,0,0,2.26-.26V3.73A2.25,2.25,0,0,0,33.6,1.49Z"/><path class="cls-2" d="M34.2,7.73a6.11,6.11,0,0,1-.73-.05,5.79,5.79,0,0,1-3.9-2.21,5.83,5.83,0,0,1-1.22-4h-6L26,2.26a.42.42,0,0,1,.07.81L20.79,5.2l5.67-.52a.4.4,0,0,1,.42.26.41.41,0,0,1-.12.48L22.35,9l5.26-2.16a.42.42,0,0,1,.51.62L25,12.2l4.39-3.62a.44.44,0,0,1,.5,0A.43.43,0,0,1,30,9L28.4,14.48l3.12-4.75a.42.42,0,0,1,.35-.19l.12,0a.43.43,0,0,1,.31.4l.05,5.68,1.59-5.46a.41.41,0,0,1,.4-.3.43.43,0,0,1,.41.29l1.09,3.41V7.48A6,6,0,0,1,34.2,7.73Z"/><path class="cls-3" d="M14.41,17.21a.43.43,0,0,0,.26-.09L16.1,16a.43.43,0,0,0,.08-.59.42.42,0,0,0-.59-.08l-1.43,1.08a.42.42,0,0,0,.25.76Z"/><path class="cls-3" d="M17.41,14.51a.42.42,0,0,0,.33.17.43.43,0,0,0,.26-.09l1.42-1.08a.42.42,0,1,0-.5-.67l-1.43,1.08A.42.42,0,0,0,17.41,14.51Z"/><path class="cls-3" d="M12.26,17.9,10.83,19a.42.42,0,0,0,.25.76.43.43,0,0,0,.26-.09l1.43-1.08a.43.43,0,0,0,.08-.59A.42.42,0,0,0,12.26,17.9Z"/><path class="cls-3" d="M18.81,18.37a.42.42,0,0,0-.6,0L17,19.71a.43.43,0,0,0,0,.6.44.44,0,0,0,.29.11.44.44,0,0,0,.31-.14L18.83,19A.43.43,0,0,0,18.81,18.37Z"/><path class="cls-3" d="M16,21.44a.43.43,0,0,0-.6,0l-1.21,1.32a.41.41,0,0,0,0,.59.4.4,0,0,0,.29.12.44.44,0,0,0,.31-.14L16,22A.43.43,0,0,0,16,21.44Z"/><path class="cls-3" d="M21.67,15.9a.43.43,0,0,0,0-.6.44.44,0,0,0-.6,0l-1.22,1.31a.44.44,0,0,0,0,.6.43.43,0,0,0,.28.11.41.41,0,0,0,.31-.14Z"/><path class="cls-3" d="M17.38,27.82a.42.42,0,0,0-.58.13l-1,1.51A.41.41,0,0,0,16,30a.47.47,0,0,0,.22.07.42.42,0,0,0,.36-.2l1-1.5A.43.43,0,0,0,17.38,27.82Z"/><path class="cls-3" d="M19.65,24.31a.43.43,0,0,0-.59.12l-1,1.51a.42.42,0,0,0,.13.58.39.39,0,0,0,.23.07.43.43,0,0,0,.35-.19l1-1.51A.42.42,0,0,0,19.65,24.31Z"/><path class="cls-3" d="M22.74,19.49a.41.41,0,0,0,.23.07.44.44,0,0,0,.36-.19l1-1.51a.42.42,0,0,0-.71-.46l-1,1.51A.42.42,0,0,0,22.74,19.49Z"/><path class="cls-3" d="M22,21.37a.42.42,0,1,0-.7-.45l-1,1.5a.43.43,0,0,0,.12.59.46.46,0,0,0,.23.06.4.4,0,0,0,.35-.19Z"/><path class="cls-3" d="M9.6,5.32h.06l1.77-.23a.42.42,0,0,0,.37-.47.43.43,0,0,0-.47-.36l-1.78.22A.42.42,0,0,0,9.19,5,.4.4,0,0,0,9.6,5.32Z"/><path class="cls-3" d="M13.75,4.8h.05l1.78-.22a.42.42,0,1,0-.1-.84L13.7,4a.43.43,0,0,0-.37.47A.43.43,0,0,0,13.75,4.8Z"/><path class="cls-3" d="M5.45,5.85h.06l1.78-.22a.42.42,0,0,0,.36-.47.44.44,0,0,0-.47-.37L5.4,5a.42.42,0,0,0,0,.84Z"/><path class="cls-3" d="M14.09,8a.44.44,0,0,0,.41.3l.12,0,1.71-.53a.43.43,0,0,0,.28-.53A.42.42,0,0,0,16.08,7l-1.71.53A.44.44,0,0,0,14.09,8Z"/><path class="cls-3" d="M4.63,11a.42.42,0,0,0-.53-.28l-1.71.53a.42.42,0,0,0-.28.53.43.43,0,0,0,.41.29.25.25,0,0,0,.12,0l1.71-.53A.41.41,0,0,0,4.63,11Z"/><path class="cls-3" d="M8.62,9.71a.41.41,0,0,0-.52-.28L6.38,10a.42.42,0,0,0-.27.53.42.42,0,0,0,.4.3l.12,0,1.72-.53A.42.42,0,0,0,8.62,9.71Z"/><path class="cls-3" d="M12.62,8.47a.42.42,0,0,0-.53-.28l-1.71.53a.42.42,0,0,0,.12.83l.13,0L12.34,9A.43.43,0,0,0,12.62,8.47Z"/><path class="cls-3" d="M14.09,12.11a.42.42,0,0,0-.56-.18l-1.6.82a.43.43,0,0,0-.18.57.42.42,0,0,0,.37.23.46.46,0,0,0,.2-.05l1.59-.82A.42.42,0,0,0,14.09,12.11Z"/><path class="cls-3" d="M6.09,15.76l-1.59.82a.43.43,0,0,0-.19.57.42.42,0,0,0,.57.18l1.6-.82a.44.44,0,0,0,.18-.57A.42.42,0,0,0,6.09,15.76Z"/><path class="cls-3" d="M15.47,11.41a.42.42,0,0,0,.37.23.49.49,0,0,0,.2-.05l1.59-.82a.42.42,0,1,0-.39-.75l-1.59.82A.42.42,0,0,0,15.47,11.41Z"/><path class="cls-3" d="M9.81,13.85l-1.6.82a.42.42,0,0,0-.18.56.42.42,0,0,0,.38.23.43.43,0,0,0,.19,0l1.59-.82a.43.43,0,0,0,.19-.57A.42.42,0,0,0,9.81,13.85Z"/><path class="cls-3" d="M25.38,22.64a.42.42,0,0,0-.55.22l-.7,1.66a.43.43,0,0,0,.23.55.45.45,0,0,0,.16,0,.42.42,0,0,0,.39-.26l.7-1.65A.42.42,0,0,0,25.38,22.64Z"/><path class="cls-3" d="M22.14,30.35a.42.42,0,0,0-.55.22l-.69,1.66a.42.42,0,0,0,.22.55.51.51,0,0,0,.17,0,.41.41,0,0,0,.38-.26l.7-1.65A.42.42,0,0,0,22.14,30.35Z"/><path class="cls-3" d="M26.53,21l.69-1.66a.42.42,0,1,0-.77-.32l-.7,1.65a.42.42,0,0,0,.23.55.47.47,0,0,0,.16,0A.42.42,0,0,0,26.53,21Z"/><path class="cls-3" d="M23.76,26.49a.42.42,0,0,0-.55.23l-.69,1.65a.42.42,0,0,0,.22.55.51.51,0,0,0,.17,0,.4.4,0,0,0,.38-.25L24,27A.42.42,0,0,0,23.76,26.49Z"/><path class="cls-3" d="M29.12,23.85a.42.42,0,0,0-.5.32l-.4,1.75a.42.42,0,0,0,.32.5h.09A.42.42,0,0,0,29,26.1l.4-1.74A.43.43,0,0,0,29.12,23.85Z"/><path class="cls-3" d="M30,19.77a.42.42,0,0,0-.5.32l-.39,1.75a.41.41,0,0,0,.31.5h.1A.43.43,0,0,0,30,22l.39-1.75A.43.43,0,0,0,30,19.77Z"/><path class="cls-3" d="M28.2,27.93a.43.43,0,0,0-.51.32L27.3,30a.42.42,0,0,0,.32.5h.09a.42.42,0,0,0,.41-.33l.4-1.75A.43.43,0,0,0,28.2,27.93Z"/><path class="cls-3" d="M27.27,32a.42.42,0,0,0-.5.32l-.4,1.74a.43.43,0,0,0,.32.51h.09a.43.43,0,0,0,.42-.33l.39-1.75A.42.42,0,0,0,27.27,32Z"/><path class="cls-3" d="M32.81,28.57a.42.42,0,0,0-.44.4l-.08,1.79a.42.42,0,0,0,.4.45h0a.43.43,0,0,0,.42-.41L33.21,29A.41.41,0,0,0,32.81,28.57Z"/><path class="cls-3" d="M32.61,32.75a.43.43,0,0,0-.44.4l-.09,1.79a.42.42,0,0,0,.4.44h0a.42.42,0,0,0,.43-.4L33,33.19A.42.42,0,0,0,32.61,32.75Z"/><path class="cls-3" d="M33.22,20.22a.41.41,0,0,0-.44.4l-.09,1.79a.42.42,0,0,0,.4.44h0a.42.42,0,0,0,.42-.4l.09-1.79A.42.42,0,0,0,33.22,20.22Z"/><path class="cls-3" d="M33,24.4a.41.41,0,0,0-.44.4l-.09,1.79a.42.42,0,0,0,.4.44h0a.43.43,0,0,0,.42-.4l.09-1.79A.42.42,0,0,0,33,24.4Z"/><path class="cls-3" d="M37.33,11.39V3.73A3.73,3.73,0,0,0,33.6,0H3.73A3.73,3.73,0,0,0,0,3.73V33.6a3.73,3.73,0,0,0,3.73,3.73H33.6a3.73,3.73,0,0,0,3.73-3.73v-15a.47.47,0,0,0,0-.17l0-2.19ZM33.6,1.49a2.25,2.25,0,0,1,2.24,2.24V6.58a4.8,4.8,0,0,1-2.26.26,5,5,0,0,1-4.37-5.35Zm-4,4a5.79,5.79,0,0,0,3.9,2.21,6.11,6.11,0,0,0,.73.05,6,6,0,0,0,1.64-.25v6.1l-1.09-3.41a.43.43,0,0,0-.41-.29.41.41,0,0,0-.4.3l-1.59,5.46L32.3,10a.43.43,0,0,0-.31-.4l-.12,0a.42.42,0,0,0-.35.19L28.4,14.48,30,9a.43.43,0,0,0-.17-.47.44.44,0,0,0-.5,0L25,12.2l3.16-4.73a.42.42,0,0,0-.51-.62L22.35,9l4.41-3.59a.41.41,0,0,0,.12-.48.4.4,0,0,0-.42-.26l-5.67.52,5.27-2.13A.42.42,0,0,0,26,2.26l-3.65-.77h6A5.83,5.83,0,0,0,29.57,5.47ZM35.84,33.6a2.25,2.25,0,0,1-2.24,2.24H7.24a22.19,22.19,0,0,1,.3-3,9.15,9.15,0,0,1,2.32-4.88s1.63,0,2,2.21a8.29,8.29,0,0,1-.29,3.63,4.44,4.44,0,0,0,2-4.25c-.34-2.21-2.93-2.78-2.93-2.78a6,6,0,0,1,3.14-.08A3.59,3.59,0,0,1,16,29a3.53,3.53,0,0,0-.67-3.12c-1.33-1.62-3.89-.69-3.89-.69a3.16,3.16,0,0,0,1.74-3.24c-.28-1.69-2.45-2-2.45-2a2.51,2.51,0,0,1,.89,1.79A4.06,4.06,0,0,1,10.24,25s.34-2.73-1.69-3.74-4.38.68-4.38.68a4.8,4.8,0,0,1,3.49.78A4.53,4.53,0,0,1,9,25.55s-.91-1.28-3.34-.82-3.82,3-3.82,3c2-1.9,6.06-2.13,7-.33A19.39,19.39,0,0,0,5.87,32a20.35,20.35,0,0,0-1.13,3.85h-1A2.25,2.25,0,0,1,1.49,33.6V6.35l1.65-.2A.42.42,0,0,0,3,5.31l-1.54.2V3.73A2.25,2.25,0,0,1,3.73,1.49H18.25L24.47,2.8,17.83,5.49a.42.42,0,0,0-.26.49A.42.42,0,0,0,18,6.3l7.14-.66L19.6,10.17a.42.42,0,0,0,.43.71l6.62-2.72-4,5.95a.44.44,0,0,0,.07.55.42.42,0,0,0,.55,0l5.53-4.56-2,6.87a.42.42,0,0,0,.75.35l3.94-6,.07,7.16a.42.42,0,0,0,.36.41H32a.44.44,0,0,0,.41-.31l2-6.88,1.48,4.61Z"/></g></g></svg>