<svg xmlns="http://www.w3.org/2000/svg" viewBox="0 0 37.92 37.45"><defs><style>.cls-1{fill:#fff;}.cls-2{fill:#1147b4;}</style></defs><g id="レイヤー_2" data-name="レイヤー 2"><g id="トンボ"><rect class="cls-1" x="1.19" y="1.2" width="35.36" height="35.46" rx="2.79"/><path class="cls-2" d="M19.07,37.42c-5,0-10-.07-15,0a4.06,4.06,0,0,1-3.92-3.9Q.23,19,0,4.35A4.08,4.08,0,0,1,4.4,0C9.56,0,14.72,0,19.88.05L33.19.1c3.12,0,4.54,1.44,4.53,4.54,0,4.27.06,8.54.14,12.81.1,5.43.06,10.86,0,16.29a3.58,3.58,0,0,1-3.72,3.67C29.15,37.43,24.11,37.42,19.07,37.42ZM7.71,1.68l-.19-.26c-.95,0-1.9,0-2.85,0-2.12,0-3,.84-3,2.94,0,3.67,0,7.34,0,11q0,9,.05,18a2.83,2.83,0,0,0,1,2.3,2.15,2.15,0,0,0,2.15.29c.59-.24.42-1.06.31-1.64A4.22,4.22,0,0,1,6.92,30a13.9,13.9,0,0,1,3.7-2.16,19.57,19.57,0,0,0,4.69-2.55,74.21,74.21,0,0,0,6.74-6.41c2.2-2.2,4.31-4.49,5-7.68a75.44,75.44,0,0,0,1.3-9c.08-.74-.29-.77-.84-.77q-3.72,0-7.44,0a1.4,1.4,0,0,0-1.29.7C17.86,3.51,16.94,4.9,16,6.25c-1.18,1.61-2.12,3.47-4.45,3.87-.6.1-.94,1.28-1.91.67,0,0-.17.24-.26.36-1.16,1.42-1.16,1.42-2.42.13l-.83-.86c-1-1-1-1.18.16-2.19C6,8,5.55,7.75,5.39,7.42s.49-.69.44-1.16A5.24,5.24,0,0,1,7.71,1.68Zm4.9,34.26c1.15.39,1.49-.45,1.89-1.11a23.5,23.5,0,0,1,5-6c2.76-2.32,5.64-4.5,8.46-6.76,3.06-2.45,6-5,6.77-9.14a18.08,18.08,0,0,1,.62-2.18,16.46,16.46,0,0,0,.85-6.82,2.3,2.3,0,0,0-2-2.31,22.42,22.42,0,0,0-4.41-.14c-.44,0-.51.24-.52.61a61.22,61.22,0,0,1-1.16,8.64,10.37,10.37,0,0,1-1.81,4.5,60.52,60.52,0,0,1-5.21,5.87c-3.14,3.37-6.55,6.3-11,7.86a7.51,7.51,0,0,0-3.61,3c-.26.38-.65.79-.24,1.45a15,15,0,0,1,2.39-2.6c.28-.25.6-.7,1-.25s-.17.63-.41.87c-1.34,1.29-2.79,2.5-3,4.56.69.2,1.23.17,1.34-.82.05-.44.31-1.1.88-.9s.21.78,0,1.19c-.07.17-.29.31-.17.48.91.54,1.11-.06,1.37-.72.13-.33.42-.81.9-.52s0,.58-.13.86a1.74,1.74,0,0,0-.07.44c.56.08,1.11.29,1.4-.44.15-.38.37-.65.8-.47S12.41,35.63,12.61,35.94ZM14.8,36h.73c6,0,11.9-.07,17.85,0,2.23.05,3-1,2.95-3.12,0-6.94-.16-13.89,0-20.83,0-.28.14-.62-.27-.65s-.32.29-.34.53C35.3,16,33,19,30,21.45S23.68,26.54,20.48,29C18.14,30.84,16.5,33.32,14.8,36ZM18.28,1.43h-9a.72.72,0,0,0-.53.2,9.65,9.65,0,0,0-1.88,3,1.38,1.38,0,0,0,.61,1.65Q9.26,7.59,11,8.92A1.16,1.16,0,0,0,12.34,9a3.79,3.79,0,0,0,1.41-1.26C15.19,5.7,16.66,3.68,18.28,1.43ZM10.59,9.64c0-.07,0-.14,0-.15C9.31,8.71,8.25,7.63,6.9,7a.25.25,0,0,0-.38.15.35.35,0,0,0,.14.41c1.08.8,2.15,1.6,3.23,2.38C10.23,10.14,10.49,10,10.59,9.64Zm-1.65.54L7.4,9c-.26-.19-.54-.43-.79,0a.63.63,0,0,0,.07.85c.45.47.86,1,1.26,1.45A2.69,2.69,0,0,0,8.94,10.18ZM33,36.77c.36,0,.71.2,1.07,0Z"/><path class="cls-2" d="M12.67,19.13c-.43,0-.68-.13-.7-.45s.34-.47.67-.47.58.08.54.47S12.84,19.08,12.67,19.13Z"/><path class="cls-2" d="M12.27,17a.63.63,0,0,1-.72.44c-.3,0-.58-.22-.47-.54s.46-.4.79-.39S12.28,16.74,12.27,17Z"/><path class="cls-2" d="M19.49,19.61c0,.26-.08.48-.37.49s-.67-.05-.73-.42.18-.49.51-.49S19.45,19.25,19.49,19.61Z"/><path class="cls-2" d="M10,13.42c.31,0,.57.16.55.49s-.32.43-.61.44a.45.45,0,0,1-.53-.5C9.4,13.48,9.66,13.42,10,13.42Z"/><path class="cls-2" d="M12.46,14.09c-.39,0-.66-.08-.7-.42a.43.43,0,0,1,.41-.49.54.54,0,0,1,.68.5C12.88,14,12.6,14,12.46,14.09Z"/><path class="cls-2" d="M15.56,16c-.12.4-.34.53-.65.51s-.52-.21-.47-.55.28-.34.53-.34A.63.63,0,0,1,15.56,16Z"/><path class="cls-2" d="M11.46,15.48c-.09.38-.38.34-.65.34s-.6-.08-.54-.44.47-.34.76-.33A.4.4,0,0,1,11.46,15.48Z"/><path class="cls-2" d="M17.71,18a.46.46,0,0,1,.48.44.48.48,0,0,1-.54.5c-.29,0-.58-.15-.54-.49A.52.52,0,0,1,17.71,18Z"/><path class="cls-2" d="M14.3,21.33c.29,0,.57.13.52.48a.52.52,0,0,1-.58.47c-.31,0-.55-.14-.51-.49A.48.48,0,0,1,14.3,21.33Z"/><path class="cls-2" d="M11.1,12a.41.41,0,0,1,.35.36c.05.34-.24.49-.52.51s-.62-.13-.61-.54S10.54,11.94,11.1,12Z"/><path class="cls-2" d="M14.39,12a.44.44,0,0,1-.48.43.53.53,0,0,1-.61-.57c0-.26.28-.39.54-.37A.53.53,0,0,1,14.39,12Z"/><path class="cls-2" d="M13.36,20.67c-.28-.06-.56-.14-.48-.5a.53.53,0,0,1,.6-.43c.29,0,.52.2.48.53S13.65,20.67,13.36,20.67Z"/><path class="cls-2" d="M15.18,23c.28.06.63,0,.63.41s-.35.4-.62.43-.56-.05-.56-.42S14.92,23,15.18,23Z"/><path class="cls-2" d="M16.8,17.22c0,.32-.17.52-.52.51a.49.49,0,0,1-.52-.52.44.44,0,0,1,.46-.43A.48.48,0,0,1,16.8,17.22Z"/><path class="cls-2" d="M17.65,13.36a.5.5,0,0,1-.64.42.4.4,0,0,1-.33-.53.45.45,0,0,1,.55-.33A.41.41,0,0,1,17.65,13.36Z"/><path class="cls-2" d="M16,12.66c0,.25-.15.49-.38.5S15,13,15,12.67a.39.39,0,0,1,.41-.45A.57.57,0,0,1,16,12.66Z"/><path class="cls-2" d="M12.14,11.77a.41.41,0,0,1-.43-.51.43.43,0,0,1,.45-.45.44.44,0,0,1,.46.44C12.65,11.62,12.31,11.66,12.14,11.77Z"/><path class="cls-2" d="M19.34,14c0,.33-.23.38-.47.41s-.59.1-.62-.32.15-.42.43-.43S19.24,13.64,19.34,14Z"/><path class="cls-2" d="M20.9,14.77c0,.31-.2.41-.46.4s-.56-.14-.5-.5.3-.33.54-.33A.36.36,0,0,1,20.9,14.77Z"/><path class="cls-2" d="M13.48,14.35c.41,0,.7,0,.71.4s-.22.4-.46.41-.57,0-.57-.41S13.33,14.33,13.48,14.35Z"/><path class="cls-2" d="M22.12,15.06c.27,0,.48.09.47.39a.41.41,0,0,1-.46.42c-.22,0-.5,0-.52-.32S21.81,15.07,22.12,15.06Z"/></g></g></svg>