<svg xmlns="http://www.w3.org/2000/svg" viewBox="0 0 37.37 37.33"><defs><style>.cls-1{fill:#fff;}.cls-2{fill:#1147b4;}</style></defs><g id="レイヤー_2" data-name="レイヤー 2"><g id="トンボ"><rect class="cls-1" x="1.25" y="0.91" width="34.77" height="35.46" rx="2.77"/><path class="cls-2" d="M37.33,16.14V3.73A3.74,3.74,0,0,0,33.59,0H3.73A3.73,3.73,0,0,0,0,3.73V33.6a3.71,3.71,0,0,0,.6,2v.24L.78,36H.91a3.74,3.74,0,0,0,2.82,1.31H33.59a3.74,3.74,0,0,0,3.74-3.73v-15a.58.58,0,0,0,0-.18ZM33.59,1.49a2.24,2.24,0,0,1,2.24,2.24V6.59a4.89,4.89,0,0,1-2.25.25A4.94,4.94,0,0,1,30.24,5a5,5,0,0,1-1-3.46Zm-5.24,0a5.83,5.83,0,0,0,1.22,4,5.79,5.79,0,0,0,3.9,2.21,6.11,6.11,0,0,0,.73.05,5.9,5.9,0,0,0,1.63-.25v6.1l-1.08-3.41a.46.46,0,0,0-.41-.29.41.41,0,0,0-.4.3l-1.59,5.46L32.29,10a.41.41,0,0,0-.3-.4l-.12,0a.42.42,0,0,0-.35.19L28.4,14.48,30,9a.43.43,0,0,0-.17-.47.44.44,0,0,0-.5,0L25,12.2l3.16-4.73a.42.42,0,0,0,0-.5.41.41,0,0,0-.48-.12L22.35,9l4.41-3.59a.42.42,0,0,0-.3-.74l-5.67.52,5.27-2.13a.42.42,0,0,0,.26-.43A.41.41,0,0,0,26,2.26l-3.65-.77Zm-24.62,0H18.25L24.46,2.8,17.82,5.49a.42.42,0,0,0,.2.81l7.14-.66L19.6,10.17a.42.42,0,0,0,.43.71l6.62-2.72-4,5.95a.44.44,0,0,0,.07.55.42.42,0,0,0,.55,0l5.53-4.56-2,6.87a.42.42,0,0,0,.75.35l3.94-6,.07,7.16a.42.42,0,0,0,.36.41H32a.44.44,0,0,0,.41-.31l2-6.88,1.47,4.61v8.34c-1.69-1.49-4.49-4.39-5.14-4.87a1.86,1.86,0,0,0-2.48,0c-1.64,1.54-3.14,3.24-4.75,4.81-.44.42-.07.5.09.75.95,1.46,2,2.88.84,4.76-1,1.53-2.65,1.52-4.08,1.95-1.93.58-4,.62-5.87,1.54-.46.23-1.34,1.93-1.34,1.93l-5,0c.26-1.18,1.5-2.16,2.37-2.79,1.92-1.39,4.21-1.57,6.46-1.88Q19,30.66,21,30.25c3.12-.62,3.05-2.54,1.19-4.83-3.12-3.83-6-7.86-8.74-12C12,11.28,10.69,11.23,9,13.41c-2.24,2.85-4.85,5.38-7.27,8.07l-.21.22v-18A2.25,2.25,0,0,1,3.73,1.49Z"/></g></g></svg>