<svg xmlns="http://www.w3.org/2000/svg" viewBox="0 0 37.83 37.44"><defs><style>.cls-1{fill:#fff;}.cls-2{fill:#1147b4;}</style></defs><g id="レイヤー_2" data-name="レイヤー 2"><g id="トンボ"><rect class="cls-1" x="1.31" y="1.05" width="35.43" height="35.46" rx="2.79"/><path class="cls-2" d="M18.82,37.44H4.31A3.74,3.74,0,0,1,.23,33.36c0-6.07,0-12.15-.07-18.22,0-3.67,0-7.33-.16-11A3.94,3.94,0,0,1,4,.19C13.9.15,23.81.06,33.72,0a3.65,3.65,0,0,1,3.93,3.84c.06,7,.06,13.9.1,20.86,0,2.71,0,5.42.08,8.13.05,3.11-1.33,4.53-4.49,4.53H18.82ZM1.71,5.77A6.73,6.73,0,0,1,3.62,4.59a8.87,8.87,0,0,0,1.77-.9c1.28-1,2,.23,2.88.51s0,.88-.08,1.34c0,.18.1.41,0,.57-.48,1.2.07,2.56-.75,3.74-1.68,2.41-3.26,4.89-4.85,7.37-.39.61-1,1.14-1,2,0,4.79.05,9.59.1,14.38A2.22,2.22,0,0,0,4.23,36h7.32a2.8,2.8,0,0,0,2.18-2c.24-2.71.15-5.43.19-8.15.05-3.75.06-7.51,1.2-11.13a8.31,8.31,0,0,1,4.11-5.2c2.25-1.14,4.55-1.77,6.92-.28a1.9,1.9,0,0,0,1.28.12,3.28,3.28,0,0,1,3,1.38,15.34,15.34,0,0,1,2.95,9.17q.3,6.81.51,13.62c0,1.14,1,1.38,1.68,1.5s.59-.82.71-1.35a2,2,0,0,0,.05-.48c0-6.35-.08-12.7-.11-19.06,0-3.23,0-6.47,0-9.7,0-2.08-1-3.07-3-3-6.39.1-12.79.05-19.19.08-3.32,0-6.63.06-10,.12A2.15,2.15,0,0,0,1.74,3.32,11.77,11.77,0,0,0,1.71,5.77ZM20.2,18c-1.05,1.19-2.68,1.87-2.2,3.87a9.62,9.62,0,0,1,.15,1.43,8.74,8.74,0,0,0,3.65,6.54,2.84,2.84,0,0,0,2.36.55,5.86,5.86,0,0,0,4.89-4.56c.2-.71.12-1.65,1.3-1.63.14,0,.37-.41.42-.66.17-.82.3-1.65.39-2.48,0-.47-.15-.84-.71-.55-1,.49-.93-.17-1-.81a7.33,7.33,0,0,0-1.7-4.11c-.51-.62-.8-.81-1.45-.09A17.11,17.11,0,0,1,21.53,19c-.38.2-.84.49-1.22.3C19.75,19,20.51,18.53,20.2,18Zm1.36,0a19.81,19.81,0,0,0,3.78-2.61,3.33,3.33,0,0,0,1.28-3.19c-.15-2.08-1.05-3.06-3.15-3-4.7,0-7.17,3.28-8,7.42A50.61,50.61,0,0,0,14.79,25c-.09,2.86.16,5.73-.17,8.58-.08.7.26.87.86.66a17.43,17.43,0,0,0,3.1-1.2c1.42-.83,2.12-2.95,1.2-3.94-2.39-2.58-2.7-5.72-2.54-9,0-.2,0-.46.13-.57A37.18,37.18,0,0,0,21,15.9a.75.75,0,0,1,.66-.14c.36.1.15.47.21.72C22,17,21.35,17.41,21.56,18Zm5.58-7.8a3.32,3.32,0,0,1,.19.64c.11,2,.18,4,1.85,5.45a3.42,3.42,0,0,1,.72,1.36c.37.9.16,2.25,1.68,2.35.09,0,.2.23.26.37A4.81,4.81,0,0,1,30.48,25a1.43,1.43,0,0,0-.63,1.09,4.87,4.87,0,0,1-1.07,2.35,2.82,2.82,0,0,0,1,4.49,13.89,13.89,0,0,0,2.53,1c.71.24.95,0,.87-.71-.14-1.26-.23-2.53-.35-3.8-.28-3.15.16-6.3-.14-9.45a20.9,20.9,0,0,0-2.19-7.89A3.17,3.17,0,0,0,27.14,10.16Zm0,19.7a4.83,4.83,0,0,1-6.31.26,3.67,3.67,0,0,1-2.25,3.75A12.47,12.47,0,0,1,15,35.05c-.55.11-1.17.15-1.44.73H34.79c-.62-.79-1.45-.78-2.2-1C30,34.12,27.29,33.59,27.16,29.86ZM1.76,17.13c1.71-2.66,3.45-5.3,5.11-8,.29-.48.71-1.28.14-1.77a25.69,25.69,0,0,0-2.94-2c-.2-.13-.38,0-.55.08A3.35,3.35,0,0,0,1.68,8C1.55,11,1.8,14.05,1.76,17.13ZM7.68,4.87C7.2,4.41,6.77,4,6.1,4.25a.36.36,0,0,0,0,.3C6.51,4.84,6.9,5.43,7.68,4.87Zm-.4,1.69C6.89,5.68,6,5.53,5.39,5l-.15.25Z"/><path class="cls-2" d="M18.2,6.18a.35.35,0,0,1-.34.4.43.43,0,0,1-.52-.36.36.36,0,0,1,.35-.4A.42.42,0,0,1,18.2,6.18Z"/><path class="cls-2" d="M12.09,10.18a.33.33,0,0,1-.33.38c-.23,0-.5,0-.57-.25s.1-.43.37-.46A.43.43,0,0,1,12.09,10.18Z"/><path class="cls-2" d="M13.87,12c0,.28-.26.37-.5.39S13,12.27,13,12a.49.49,0,0,1,.48-.43A.37.37,0,0,1,13.87,12Z"/><path class="cls-2" d="M15.13,8.79c.25.06.38.21.33.43a.38.38,0,0,1-.43.32c-.2,0-.37-.17-.31-.41A.43.43,0,0,1,15.13,8.79Z"/><path class="cls-2" d="M12.7,5.23a.34.34,0,0,1,.37.32.4.4,0,0,1-.28.45.38.38,0,0,1-.48-.37C12.3,5.43,12.46,5.28,12.7,5.23Z"/><path class="cls-2" d="M15.61,5.83a.36.36,0,0,1-.32.42c-.19,0-.41,0-.47-.22s.12-.42.37-.46A.38.38,0,0,1,15.61,5.83Z"/><path class="cls-2" d="M16.43,5.73c.26,0,.45,0,.42.32s-.08.39-.34.39A.39.39,0,0,1,16.08,6C16.06,5.71,16.31,5.77,16.43,5.73Z"/><path class="cls-2" d="M10.88,6.85c0,.19-.12.34-.36.34s-.43-.13-.41-.42.2-.29.4-.29S10.85,6.62,10.88,6.85Z"/><path class="cls-2" d="M11.66,7.78c-.2,0-.38-.13-.37-.37a.37.37,0,0,1,.41-.33.35.35,0,0,1,.38.36C12.07,7.68,11.86,7.74,11.66,7.78Z"/><path class="cls-2" d="M9.44,8.63c.09,0,0-.14,0-.36a.35.35,0,0,1,.37-.36c.29,0,.45.15.42.42S10,8.63,9.44,8.63Z"/><path class="cls-2" d="M10.43,5.3c-.07.21-.16.39-.41.31s-.39-.16-.35-.4a.37.37,0,0,1,.42-.33C10.33,4.91,10.39,5.11,10.43,5.3Z"/><path class="cls-2" d="M11.05,9.18a.33.33,0,0,1-.31.4c-.19,0-.4,0-.46-.22s.13-.42.36-.47S11,9,11.05,9.18Z"/><path class="cls-2" d="M16.68,9.61c0,.27-.09.43-.3.46s-.49,0-.49-.34a.39.39,0,0,1,.38-.37A.35.35,0,0,1,16.68,9.61Z"/><path class="cls-2" d="M9.3,7.34a.38.38,0,0,1-.4.36.3.3,0,0,1-.33-.37.48.48,0,0,1,.31-.28C9.1,7,9.24,7.13,9.3,7.34Z"/><path class="cls-2" d="M13.18,7.92c0,.25-.06.42-.3.47s-.4,0-.42-.26a.36.36,0,0,1,.3-.43C13,7.66,13.15,7.69,13.18,7.92Z"/><path class="cls-2" d="M14.06,9c-.26.05-.35-.1-.38-.31s.07-.39.29-.41a.36.36,0,0,1,.41.31C14.42,8.82,14.27,9,14.06,9Z"/><path class="cls-2" d="M12.57,11.47a.31.31,0,0,1-.4-.29.32.32,0,0,1,.31-.4c.18,0,.41-.06.46.2A.4.4,0,0,1,12.57,11.47Z"/><path class="cls-2" d="M11.75,5.4a.36.36,0,0,1-.37.35A.29.29,0,0,1,11,5.41a.35.35,0,0,1,.36-.36A.31.31,0,0,1,11.75,5.4Z"/><path class="cls-2" d="M14.19,13.37A.37.37,0,0,1,13.9,13a.35.35,0,0,1,.39-.34c.26,0,.46.16.37.45A.41.41,0,0,1,14.19,13.37Z"/><path class="cls-2" d="M14,5.42a.39.39,0,0,1,.38.35c0,.29-.23.26-.41.31a.24.24,0,0,1-.31-.24A.37.37,0,0,1,14,5.42Z"/><path class="cls-2" d="M9.58,6.25a.34.34,0,0,1-.4.31.28.28,0,0,1-.27-.31c0-.24.18-.33.4-.31S9.56,6.09,9.58,6.25Z"/></g></g></svg>