<?xml version="1.0" encoding="utf-8"?>
<!-- Generator: Adobe Illustrator 26.0.3, SVG Export Plug-In . SVG Version: 6.00 Build 0)  -->
<svg version="1.1" id="name-tm.svg" xmlns="http://www.w3.org/2000/svg" xmlns:xlink="http://www.w3.org/1999/xlink" x="0px"
	 y="0px" viewBox="0 0 360 98.5" style="enable-background:new 0 0 360 98.5;" xml:space="preserve">
<style type="text/css">
	.st0{opacity:0.7;fill-rule:evenodd;clip-rule:evenodd;fill:#956F17;enable-background:new    ;}
	.st1{fill:#8C6C14;}
	.st2{enable-background:new    ;}
</style>
<path id="Toughness_UV_milk" class="st0" d="M6.1,2.2V0.8H0v1.4h2.3v8.6h1.5V2.2H6.1L6.1,2.2z M13.7,0.6c-2.9,0-5.2,2.3-5.2,5.2
	s2.3,5.2,5.2,5.2s5.2-2.3,5.2-5.2C19,3,16.8,0.6,14,0.6C13.9,0.6,13.8,0.6,13.7,0.6z M13.7,9.6c-2.1,0-3.8-1.6-3.9-3.7
	S11.4,2,13.5,2c2.1-0.1,3.8,1.6,3.9,3.7v0.1c0.1,2-1.4,3.7-3.4,3.8C13.9,9.6,13.8,9.6,13.7,9.6L13.7,9.6z M22.3,0.8v6.4
	c0,1,0.3,1.9,0.9,2.6c1.5,1.5,3.9,1.6,5.5,0.1l0.1-0.1c0.6-0.7,1-1.6,0.9-2.6V0.8h-1.5v6c0,0.6-0.1,1.2-0.3,1.7c-0.6,1-2,1.3-3,0.7
	c-0.3-0.2-0.5-0.4-0.7-0.7C24,8,23.8,7.4,23.9,6.8v-6L22.3,0.8L22.3,0.8z M38.8,7h2.5c-0.1,0.7-0.4,1.3-0.8,1.7
	c-0.6,0.6-1.4,0.9-2.2,0.9c-0.9,0-1.9-0.3-2.5-1c-1.4-1.6-1.4-4,0-5.5c0.7-0.7,1.7-1.1,2.6-1c0.6,0,1.2,0.1,1.8,0.4
	c0.5,0.3,0.9,0.7,1.2,1.1l1.2-0.9c-0.4-0.6-1-1.1-1.6-1.5c-2.6-1.4-5.8-0.4-7.2,2.2c-1.1,2-0.7,4.5,0.9,6.2c0.9,0.9,2.1,1.4,3.4,1.4
	c1.3,0,2.5-0.4,3.4-1.3c1-1.1,1.6-2.6,1.5-4.1l0,0h-4.1L38.8,7L38.8,7z M47.9,0.8h-1.5v10h1.5V6.2h4.3v4.6h1.5v-10h-1.5v4h-4.3V0.8z
	 M59.1,10.8v-7l7.3,7.6V0.8h-1.5v6.9l-7.3-7.6v10.7H59.1z M75.8,0.8h-5.5v10h5.5V9.3h-4V6.2h3.9V4.7h-3.9V2.2h4V0.8L75.8,0.8z
	 M84.9,2.3c-0.2-0.4-0.5-0.7-0.8-1c-0.6-0.5-1.3-0.7-2-0.7c-1.5-0.1-2.8,1-2.9,2.5c0,0.1,0,0.1,0,0.2c0.1,1.2,0.9,2.2,2,2.5l1,0.4
	c0.8,0.2,1.4,0.9,1.4,1.7c0,0.9-0.6,1.6-1.5,1.7H82c-0.5,0-1-0.2-1.3-0.6c-0.3-0.4-0.4-0.8-0.4-1.3L78.7,8c0.1,0.7,0.3,1.4,0.8,1.9
	c0.6,0.7,1.5,1.1,2.4,1c1.7,0.1,3.2-1.2,3.2-2.9c0-0.1,0-0.2,0-0.3c0-1.1-0.5-2.2-2.4-2.9l-1-0.4c-0.6-0.1-1-0.6-1.1-1.2
	C80.7,2.5,81.3,2,82,2h0.1c0.4,0,0.8,0.1,1.1,0.4c0.2,0.2,0.4,0.4,0.5,0.6L84.9,2.3z M94.1,2.3c-0.2-0.4-0.5-0.7-0.8-1
	c-0.6-0.5-1.3-0.7-2-0.7c-1.5-0.1-2.8,1-2.9,2.5c0,0.1,0,0.1,0,0.2c0.1,1.2,0.9,2.2,2,2.5l1,0.4c0.8,0.2,1.4,0.9,1.4,1.7
	c0,0.9-0.6,1.6-1.5,1.7h-0.1c-0.5,0-1-0.2-1.3-0.6c-0.3-0.4-0.4-0.8-0.4-1.3L87.9,8c0.1,0.7,0.3,1.4,0.8,1.9c0.6,0.7,1.5,1.1,2.4,1
	c1.7,0.1,3.2-1.2,3.2-2.9c0-0.1,0-0.2,0-0.3c0-1.1-0.5-2.2-2.4-2.9l-1-0.4c-0.6-0.1-1-0.6-1.1-1.2c0-0.7,0.6-1.2,1.3-1.2h0.1
	c0.4,0,0.8,0.1,1.1,0.4c0.2,0.2,0.4,0.4,0.5,0.6L94.1,2.3z M102.8,0.8v6.4c0,1,0.3,1.9,0.9,2.6c1.5,1.5,3.9,1.6,5.5,0.1l0.1-0.1
	c0.6-0.7,1-1.6,0.9-2.6V0.8h-1.5v6c0,0.6-0.1,1.2-0.3,1.7c-0.6,1-2,1.3-3,0.7c-0.3-0.2-0.5-0.4-0.7-0.7c-0.3-0.5-0.4-1.1-0.3-1.7v-6
	L102.8,0.8L102.8,0.8z M112.9,0.8l4.4,10.7l4.4-10.7H120l-2.8,7l-2.8-7C114.4,0.8,112.9,0.8,112.9,0.8z M130.8,10.8l1.1-6.1l2.9,6.5
	l2.9-6.5l1,6h1.6L138.4,0l-3.5,7.8L131.4,0l-2.1,10.8H130.8L130.8,10.8z M143.9,0.8v10h1.5v-10L143.9,0.8L143.9,0.8z M149.3,0.8v10
	h4.5V9.3h-2.9V0.8H149.3L149.3,0.8z M158.2,0.8h-1.5v10h1.5V6.6l0.3-0.3l3.6,4.4h2l-4.6-5.5l4.5-4.5h-2l-3.9,4L158.2,0.8L158.2,0.8z
	"/>
<path class="st1" d="M9.9,44.1c4.5,2,6.1,3.7,6.1,7c0,3.9-3.1,6.5-8.3,6.5c-2.5,0-5.1-0.7-6.7-1.8l0.2-5h1.7L4,55.7
	c1,0.4,2,0.6,3.2,0.6c3.1,0,5-1.5,5-3.9c0-2.1-1-3.1-3.6-4.3l-1.3-0.6c-3.8-1.7-5.9-3.6-5.9-7.1c0-3.9,3.2-6.2,7.8-6.2
	c2.4,0,4.3,0.6,5.8,1.7l-0.2,4.8h-1.7L11.9,36c-0.7-0.3-1.3-0.4-2.3-0.4c-2.7,0-4.5,1.3-4.5,3.7c0,2.1,1.2,3.3,3.4,4.3L9.9,44.1z"/>
<path class="st1" d="M40,35.8l-3,0.4l-0.1,11.6c0,6.8-3,9.8-8.1,9.8c-5,0-8.5-2.5-8.5-9.2v-3.3c0-2.9,0-5.9-0.1-8.9l-2.7-0.3v-1
	h10.1v1l-3.1,0.2C24.4,39,24.4,42,24.4,45v2.8c0,5.5,2,7.6,5.5,7.6c3.6,0,5.7-2.2,5.6-7.8l-0.1-11.2l-3.3-0.6v-1h8v1H40z"/>
<path class="st1" d="M64.1,35.8l-2.8,0.4l-0.1,21h-2.1L45.9,38.5L46,55.6l3.8,0.4v1h-8.1v-1l2.8-0.3v-19L44,36.1l-2.3-0.3v-1H48
	l11.8,16.4l-0.1-14.8l-3.8-0.5v-1H64L64.1,35.8L64.1,35.8L64.1,35.8z"/>
<path class="st1" d="M84.4,55.9c-2,1-4,1.8-6.7,1.8c-6.6,0-11.6-4.3-11.6-11.7c0-7.6,5.3-11.7,11.7-11.7c2.4,0,4.4,0.5,6.3,1.7
	L84,41.1h-1.8l-1.3-5.2c-0.8-0.3-1.8-0.5-2.7-0.5c-4.5,0-7.8,3.4-7.8,10.5s3.3,10.5,7.8,10.5c1,0,2-0.2,2.9-0.6l1.3-5.1h1.8
	L84.4,55.9z"/>
<path class="st1" d="M108.9,35.8l-3,0.4l-0.2,11.6c0,6.8-3,9.8-8.1,9.8c-5,0-8.5-2.5-8.5-9.2v-3.3c0-2.9,0-5.9-0.1-8.9l-2.7-0.3v-1
	h10.1v1l-3.1,0.2C93.2,39,93.2,42,93.2,45v2.8c0,5.5,2,7.6,5.5,7.6c3.6,0,5.7-2.2,5.6-7.8l-0.1-11.2l-3.5-0.4v-1h8v0.8
	C108.7,35.8,108.9,35.8,108.9,35.8z"/>
<path class="st1" d="M122.1,36c-0.1,3-0.1,6.1-0.1,9.1v1.5c0,3,0,6,0.1,9.1l3.2,0.3v1h-10.8v-1l3.2-0.3c0-3,0-6,0-9.1v-1.5
	c0-3,0-6.1,0-9.1H113l-1.2,5h-1.7l0.2-6.2h19.1l0.2,6.2H128l-1.2-5H122.1z"/>
<path class="st1" d="M161.5,35.8l-3,0.4l-0.1,11.6c0,6.8-3,9.8-8.1,9.8c-5,0-8.5-2.5-8.5-9.2v-3.3c0-2.9,0-5.9-0.1-8.9l-2.7-0.3v-1
	h10.1v1l-3.1,0.2c-0.1,2.9-0.1,5.9-0.1,8.9v2.8c0,5.5,2,7.6,5.4,7.6c3.6,0,5.7-2.2,5.6-7.8l-0.1-11.2l-3.5-0.4v-1h8v0.8
	C161.3,35.8,161.5,35.8,161.5,35.8z"/>
<path class="st1" d="M184.2,35.7l-2.7,0.4l-7.1,21h-2.2l-7.6-21.2l-2.3-0.2v-1h10v1l-3.1,0.3l5.6,16.6l5.2-16.5l-3.1-0.4v-1h7.5v1
	C184.4,35.7,184.2,35.7,184.2,35.7z"/>
<path class="st1" d="M201.6,53.9c-0.1,0.2-1.3,0.8-2.3,0.8h-0.4v-2.5h-2.1v3.1c0,0.2-0.8,0.9-2.3,0.9H194V33.4l3.1,1.2h1.3l1.3-1.6
	l2.9,2.3c-0.2,0.2-0.6,0.5-1.2,0.6v17.8h0.2V53.9z M196.7,35.6V43h2.1v-7.4H196.7z M198.9,51.4v-7.6h-2.1v7.6H198.9z M215.1,43.6v2
	h1.6l1.3-1.3l2.8,2.1c-0.1,0.2-0.5,0.4-1,0.5v2.8c0,0.2-1.3,0.8-2.4,0.8h-0.5v-0.8h-11.2c-0.3,3.3-1.1,7.4-4.4,10.2l-0.3-0.3
	c1.9-3.9,2-8.8,2-12.8v-5.3l0.2,0.1V35l2.5,1h2.6l1.1-1.1l2.3,1.8c-0.1,0.2-0.4,0.3-0.8,0.4v3.3c0.6,0.1,1,0.2,1.5,0.4V35l2.5,1h2.4
	l1.1-1.1l2.4,1.8c-0.1,0.2-0.4,0.3-0.9,0.4v3.4c0,0.1-0.6,0.5-1.1,0.6c0.6,0.5,1.7,1.3,2.4,2c-0.1,0.3-0.3,0.5-0.8,0.5h-5.1l0,0
	C215.3,43.6,215.1,43.6,215.1,43.6z M202.4,34.5l-0.2-0.8h5.5l1.3-1.8c0,0,1.6,1.2,2.5,2.2c-0.1,0.3-0.3,0.5-0.7,0.5h-8.4
	L202.4,34.5L202.4,34.5z M203.2,41.6l3,1.1h4.7c-0.1-0.6-0.4-1.2-0.8-1.8c-0.4,0.2-0.9,0.3-1.5,0.3h-0.2v-4.6h-2.9v4.1
	c0,0.2-1,0.7-2,0.7h-0.3V41.6z M210.7,51.7c0,0,1.1,1,1.9,1.9c-0.1,0.3-0.3,0.5-0.7,0.5H209v2c1-0.2,2.2-0.3,3.3-0.6l0.1,0.4
	c-0.8,0.6-2.7,1.8-4.8,2.9c-0.2,0.4-0.5,0.6-0.8,0.8l-1.7-3c0.8-0.5,1-0.7,1-1.2v-5.3l3.6,0.3c-0.1,0.3-0.3,0.6-0.8,0.6v2.1h0.7
	L210.7,51.7z M205.8,37.5c4,0.8,2.3,3.9,0.7,2.6c0-0.8-0.5-1.9-1.1-2.4L205.8,37.5z M205.8,46.7c0,0.6,0,1.2,0,2h2v-2.4h-1.9v0.4
	H205.8z M205.8,45.6h1.9v-2h-1.9V45.6z M212.4,43.6h-2v2h2V43.6z M210.4,48.8h2v-2.4h-2V48.8z M212,34.5l-0.2-0.8h5l1.5-1.9
	c0,0,1.7,1.2,2.7,2.3c-0.1,0.3-0.4,0.5-0.8,0.5L212,34.5L212,34.5z M219.8,56.2c0.7,0.3,0.8,0.6,0.8,1.1c0,1.1-1,1.6-3.9,1.6H215
	c-2.2,0-2.4-0.6-2.4-2.3v-6.5l3.6,0.3c-0.1,0.4-0.3,0.6-0.8,0.7v2.1h1l1.2-1.8c0,0,1.5,1.2,2.2,2.2c-0.1,0.3-0.3,0.5-0.8,0.5h-3.6v2
	c0,0.3,0.1,0.4,0.5,0.4h1h1c0.2,0,0.4-0.1,0.5-0.2c0.2-0.3,0.5-1,0.8-2h0.3L219.8,56.2z M214.6,36.8v0.8h0.1c4,0.8,2.3,3.8,0.7,2.6
	c0-0.6-0.3-1.6-0.8-2.1v2.5c0,0.2-0.8,0.6-1.8,0.7c0.3,0.5,0.2,1-0.1,1.5h3.8l1.1-1.5h-0.4v-4.5H214.6L214.6,36.8L214.6,36.8z
	 M215.1,46.4v2.4h1.8v-2.4H215.1z"/>
<path class="st1" d="M247.5,31.3c0,0,2.4,1.8,3.8,3.1c-0.1,0.3-0.4,0.5-0.8,0.5h-3.7v20.3c0,2.4-0.7,4.1-5.4,4.5
	c-0.1-1.1-0.3-2.1-1-2.6s-1.7-0.9-3.8-1.2v-0.4c0,0,4.9,0.3,5.8,0.3c0.6,0,0.8-0.2,0.8-0.7V35h-20l-0.2-0.8h22.4L247.5,31.3z
	 M238.4,51.5c0,0.2-1.8,0.8-2.9,0.8h-0.6v-2.5h-5.2v2.6c0,0.3-1.5,1-2.9,1h-0.5V38.5l3.5,1.5h4.8l1.6-1.8l3.3,2.5
	c-0.2,0.2-0.6,0.5-1.2,0.6L238.4,51.5L238.4,51.5z M235,49v-8.1h-5.2V49H235z"/>
<path class="st1" d="M258.5,41.5c-1.5,1.6-3.2,3-5.2,4.1l-0.3-0.4c2.2-2.2,3.7-5.2,4.7-8.2h-4l-0.2-0.8h5.2v-4.8l4.4,0.4
	c-0.1,0.4-0.3,0.7-1.1,0.8v3.5h0.6l1.6-2.2c0,0,1.9,1.6,3,2.6c-0.1,0.3-0.4,0.5-0.8,0.5h-4.5v1.3c7.2,1.1,4.5,6.1,1.9,4.1
	c-0.1-1.2-1-2.7-1.9-3.6v7.3c0,0.3-1.5,0.8-2.6,0.8h-0.6v-5.4C258.7,41.5,258.5,41.5,258.5,41.5z M278.2,36c0,0,2,1.6,3.1,2.6
	c-0.1,0.3-0.3,0.5-0.8,0.5h-3.7v6.8c0,0.1-1,0.7-2.7,0.7h-0.6v-7.5h-3c-0.1,2.2-0.8,4.8-3.9,6.7l4.3,0.6c-0.1,0.5-0.5,0.7-1.2,0.8
	c-0.6,0.4-1.7,1-2.4,1.6h5.8l1.7-1.8l3.4,2.6c-0.2,0.2-0.6,0.5-1.1,0.6v8.5c0,0.2-1.8,0.8-2.9,0.8h-0.6v-1.7h-11.7v0.8
	c0,0.3-1.6,1-3,1h-0.5V47.4l3.7,1.5h3.5c0.1-0.7,0.2-1.7,0.3-2.5c-0.5,0.3-1,0.5-1.7,0.7l-0.2-0.3c3.1-2.5,3.5-5.7,3.5-8.5v-4.7
	l3.5,1c2.3-0.9,4.7-2.1,6-2.9l3.2,3.1c-0.3,0.3-1,0.3-1.9,0c-2,0.3-5,0.7-7.7,0.8v2.8h6L278.2,36z M261.5,49.6v3.2h11.7v-3.2H261.5z
	 M273.2,57v-3.3h-11.7V57H273.2z"/>
<g class="st2">
	<path class="st1" d="M7.5,80.3c5.5,2.8,2.9,7,0.9,5c0.1-1.3-0.4-2.8-0.9-4.1v15.6c0,0.4-1.3,1.1-2.5,1.1H4.4V86.1
		c-0.9,1.7-2,3.2-3.3,4.7l-0.4-0.4c1.7-3.4,2.8-8,3.3-12.4H1.1l-0.2-0.9h3.5v-7.5l4.2,0.4c-0.1,0.4-0.3,0.7-1.1,0.8v6.1L8.8,75
		c0,0,1.6,1.5,2.5,2.5c-0.1,0.3-0.3,0.5-0.8,0.5H7.5V80.3z M25.9,93.6c0,0,2.1,1.6,3.4,2.6c-0.1,0.3-0.4,0.5-0.9,0.5H9.3L9,95.9
		h15.1L25.9,93.6z M10.6,73.1l-0.2-0.8h13.5l1.7-2.3c0,0,2,1.6,3.1,2.6c-0.1,0.3-0.4,0.5-0.8,0.5h-9.7c-0.4,1.2-1.1,2.8-1.6,4h1.5
		l1.6-1.7l2.9,2.5c-0.2,0.2-0.6,0.4-1.2,0.5c-0.2,10.6-0.5,14.2-1.9,15.6c-0.9,0.9-2,1.3-3.4,1.3c0-1-0.1-1.7-0.4-2.1
		c-0.4-0.5-1.1-0.8-2-1l0-0.5c0.8,0.1,2,0.2,2.6,0.2c0.4,0,0.7-0.1,0.9-0.3c0.8-0.8,1.1-4.7,1.2-13.6h-2l-1.3,1.4l-3-2
		c0.3-0.2,0.8-0.5,1.3-0.7c0.5-1.1,1.1-2.5,1.4-3.5H10.6z M14.4,90.1V89H13v1.5c0,0.2-1,0.7-1.9,0.7h-0.3V79.7l2.3,1h1l1.1-1.1
		l2.3,1.7c-0.1,0.2-0.5,0.3-0.8,0.4v7.6c0,0.2-1.2,0.7-1.9,0.7H14.4z M14.4,88.1v-6.5H13v6.5H14.4z M28.9,79.4
		c-0.2,0.3-0.5,0.4-1.1,0.5c-0.2,1.9-0.7,3.8-1.3,5.7c3.7,4.4,1.8,8.1-0.6,6.2c-0.2-1-0.5-2-0.9-3.1c-1,1.7-2.3,3.2-4.1,4.5
		l-0.3-0.4c1.6-1.9,2.6-4.2,3.2-6.7c-0.8-1.5-1.7-3-2.5-4.2l0.4-0.2c1,0.6,1.9,1.2,2.7,1.8c0.2-1.3,0.4-2.7,0.5-4h-3l-0.5-0.9h3.2
		l1.5-1.6L28.9,79.4z"/>
	<path class="st1" d="M37.3,81.7c0,5.2-0.3,11.9-6.1,16.3l-0.3-0.2c2.8-4.7,2.9-10.6,2.9-16v-9.2l4.1,1.4h7.8
		c-0.1-0.1-0.2-0.1-0.4-0.2c-0.4-1.4-1.5-3.1-2.5-4l0.2-0.2c6.2-0.1,6.2,3.4,4.4,4.3h6.5l1.9-2.5c0,0,2.1,1.7,3.3,2.9
		c-0.1,0.3-0.4,0.5-0.8,0.5h-21V81.7z M55.7,88c-0.2,0.3-0.5,0.4-1.3,0.5c-1.2,1.8-2.6,3.3-4.4,4.5c2.8,0.8,6,1.1,9.3,1.3v0.4
		c-1.5,0.5-2.4,1.6-2.7,3.4c-3.8-0.6-7-1.6-9.6-3.2c-3.4,1.7-7.7,2.8-12.6,3.2l-0.2-0.4c4.2-0.9,7.9-2.3,10.9-4.2
		c-1.7-1.4-3-3.2-4-5.6H39l-0.3-0.8h11.8l2.1-1.8L55.7,88z M49.2,85.4v-1h-4.7v0.8c0,0.2-1.5,0.8-2.8,0.8h-0.6v-6.2h-3.3l-0.2-0.8
		h3.5v-3.3l4.3,0.4c-0.1,0.4-0.3,0.7-1,0.8v2.1h4.7v-3.3l4.4,0.4c-0.1,0.4-0.3,0.7-1,0.8v2.1h1.4l1.6-2.4c0,0,1.8,1.7,2.8,2.8
		c-0.1,0.3-0.4,0.5-0.8,0.5h-4.9v4.9c0,0.2-1.5,0.8-2.8,0.8H49.2z M41.8,87.8c1.3,1.8,3.1,3.2,5.2,4.1c1.5-1.2,2.7-2.6,3.5-4.1H41.8
		z M49.2,83.5v-3.8h-4.7v3.8H49.2z"/>
	<path class="st1" d="M73.2,73.3c-0.2,0.3-0.6,0.4-1.4,0.4c-1,1.8-2.9,5-4.4,6.9c3.4,2.1,4.8,5,4.8,7.4c0,3-1.2,4.7-4.6,4.7
		c0-0.9-0.1-2.2-0.4-2.6c-0.2-0.3-0.7-0.6-1.4-0.8V89h2c0.3,0,0.5,0,0.7-0.2c0.4-0.2,0.7-0.8,0.7-1.7c0-2.1-0.7-4.4-2.4-6.4
		c0.5-1.9,1.3-5.5,1.7-7.9h-3v24.1c0,0.2-1,1-2.7,1h-0.6V70.5l3.7,1.4h2.3l1.8-1.7L73.2,73.3z M86.1,73.2c0,0,2.1,1.7,3.3,2.9
		c-0.1,0.3-0.4,0.5-0.8,0.5h-9.2c-0.1,1.5-0.2,3-0.3,4.5h4.3l1.9-1.8l3.2,2.7c-0.2,0.3-0.6,0.4-1.3,0.6c-0.3,8.5-1.1,12.6-2.7,14
		c-1,0.9-2.3,1.3-4.1,1.3c0-1-0.1-1.9-0.5-2.3c-0.5-0.5-1.6-1-2.8-1.3v-0.4c1.2,0.1,3.2,0.2,3.8,0.2c0.5,0,0.8-0.1,1.1-0.3
		c1-0.8,1.5-4.9,1.8-11.8H79c-0.9,6.8-3.3,12.5-10.5,16l-0.2-0.3c6.2-5.5,7.3-12.8,7.3-21h-4.5l-0.2-0.9h8.3
		c-0.4-0.1-0.8-0.3-1.3-0.7c0.1-1.7-0.7-3.7-1.7-5l0.2-0.1c6.5,1.3,5.7,5.4,3.5,5.8h4.2L86.1,73.2z"/>
	<path class="st1" d="M94.3,79.6c-1,0.7-2,1.3-3,1.8L91,81.1c2-2,4-5,5-7.2c-1.4,0.8-2.9,1.6-4.4,2.2l-0.3-0.4c1.9-1.6,4-4.3,5-6
		l3.4,2.2c-0.2,0.3-0.4,0.4-1.1,0.3c-0.6,0.5-1.3,1-2.2,1.6l3.4,1.9c-0.2,0.3-0.4,0.5-1.1,0.3c-0.5,0.6-1.1,1.2-1.8,1.8l1.5,0.5
		c-0.1,0.3-0.4,0.5-0.9,0.5v6.7c-0.1,0.2-1.3,0.6-2.4,0.6h-0.5V79.6z M91.6,96.9c2.6-1.5,5.3-4,6.6-5.9l3.7,2.3
		c-0.2,0.3-0.5,0.4-1.1,0.3c-2.1,1.5-5.5,2.9-8.9,3.6L91.6,96.9z M115.3,87.5c0,0,2.1,1.5,3.3,2.6c-0.1,0.3-0.4,0.5-0.8,0.5h-11v6.6
		c0,0.1-1.1,0.7-2.9,0.7h-0.6v-7.2H92l-0.2-0.9h21.7L115.3,87.5z M118.9,72.7c-0.2,0.2-0.7,0.5-1.3,0.6v7c0,1.8-0.4,2.8-3.1,3.1
		c-0.1-0.8-0.1-1.4-0.4-1.7c-0.2-0.4-0.6-0.7-1.4-0.8v-0.5c0,0,1.2,0.1,1.6,0.1c0.4,0,0.5-0.2,0.5-0.5v-7.3h-2.2v12l0.2-0.2
		c0,0,1.9,1.4,3.1,2.5c-0.1,0.3-0.4,0.5-0.8,0.5h-20L95,86.7h16.2l1.1-1.4c-0.4,0.2-1,0.5-1.9,0.5H110v-15l3.1,1.2h1.5l1.3-1.5
		L118.9,72.7z M107.7,74.3c0,0,1.5,1.3,2.3,2.2c-0.1,0.3-0.4,0.5-0.8,0.5h-3.5v2.2h0.8l1.1-1.6c0,0,1.2,1.1,2,1.9
		c-0.1,0.3-0.4,0.5-0.8,0.5h-3.2v2.3c1.3-0.2,2.6-0.4,4-0.6l0.1,0.5c-2,0.7-5.4,1.9-9.2,3c-0.2,0.2-0.4,0.4-0.6,0.4l-1.2-2.5
		c0.5-0.3,0.6-0.5,0.6-0.9v-4.4l3.1,0.3c0,0.3-0.3,0.6-0.8,0.7v3.9l1.3-0.2v-5.7h-4l-0.2-0.8h4.2v-2.5h-1.4
		c-0.7,0.8-1.4,1.4-2.2,1.9L99,75.2c0.7-1.4,1.3-3.5,1.7-5.5l3.6,1.1c-0.2,0.4-0.5,0.6-1.1,0.6c-0.3,0.5-0.6,0.9-0.9,1.3h3.2
		l1.4-1.9c0,0,1.5,1.3,2.5,2.2c-0.1,0.3-0.4,0.5-0.8,0.5h-2.8v2.5h0.6L107.7,74.3z M108.4,91.6c10.5-0.1,10.1,6.4,6.6,5.5
		c-1.5-1.8-4.6-4-6.8-5.2L108.4,91.6z"/>
	<path class="st1" d="M139.1,71.8c-0.3,0.4-1.3,0.7-2.5,0.7c2.2,2.8,7.6,5.6,13,6.9v0.4c-1.6,0.5-2.8,1.9-3.2,3.3
		c-4.4-2.4-8.5-6.3-10.5-10.5c-3,5-8.6,9.2-14.8,11.6l-0.2-0.3c4.6-2.9,8.8-7.3,10.6-11.5h-5l-0.3-0.9h8.7l1.1-1.8L139.1,71.8z
		 M145,93.5c0,0,2.2,1.7,3.5,2.9c-0.1,0.3-0.4,0.5-0.8,0.5h-25.3l-0.2-0.8h10.9v-6.4h-7.7l-0.2-0.8h8v-5.7h-6.6l-0.2-0.9h12.6
		l1.8-2.2c0,0,2,1.5,3.3,2.6c-0.1,0.3-0.4,0.5-0.8,0.5h-6.2v5.7h4l1.9-2.4c0,0,2.1,1.6,3.4,2.7c-0.1,0.3-0.4,0.5-0.8,0.5h-8.4v6.4
		h6.2L145,93.5z"/>
	<path class="st1" d="M160,73.8c8.3,2,5.4,8.3,2.4,5.8c-0.1-0.6-0.2-1.4-0.5-2c-2.1,0.7-5.1,1.5-8.5,2.3c-0.1,0.1-0.1,0.2-0.2,0.2
		l3.1,1.1h3.8l1.4-1.6l3.3,2.5c-0.2,0.2-0.6,0.5-1.3,0.6v11.2c0,2.2-0.4,3.5-3.8,3.8c-0.1-1-0.2-1.8-0.5-2.3
		c-0.3-0.5-0.8-0.9-1.9-1.1v-0.4c0,0,1.9,0.1,2.4,0.1c0.4,0,0.5-0.1,0.5-0.5v-3.5c-1,0.8-2.2,1.6-3.6,2.4c-0.1,0.4-0.4,0.7-0.7,0.8
		l-0.7-1.5c-0.5,2.3-1.7,4.6-4.2,6.4l-0.3-0.3c1.8-3.1,1.8-7.1,1.8-10.7v-6.5l-0.1,0l-1.5-3.7c0,0,0.6-0.1,0.9-0.3
		c1.7-1.2,4-5,4.7-7l4.5,1.6c-0.1,0.3-0.5,0.5-1.1,0.5c-1.5,1.6-3.9,3.6-6.1,5c2,0,4.6-0.1,7.4-0.2c-0.5-1-1.1-1.9-1.8-2.7L160,73.8
		z M155.8,82.1v2.6c4.9-1.9,5.9,3.1,3,2.8c-0.7-0.6-1.7-1.2-3-1.5v1.1c0,0.9,0,1.8-0.1,2.8c1.4-0.2,3.1-0.6,4.7-1v-6.7H155.8z
		 M169.5,82.9c-2.9,0-3.5-0.6-3.5-2.9v-9.8l4.4,0.4c-0.1,0.4-0.3,0.7-1,0.8v3.4h3.2l1.7-2.2c0,0,1.9,1.5,3,2.6
		c-0.1,0.3-0.4,0.5-0.8,0.5h-7v3.5c0,0.4,0.1,0.6,1,0.6h2.2c0.8,0,1.6,0,2,0c0.3,0,0.7,0,0.9-0.1c0.2,0,0.6-0.1,0.9-0.2h0.3l0.2,0.1
		c0.9,0.4,1.3,0.8,1.3,1.4c0,1.4-1.3,2-5.8,2H169.5z M177.1,93.6c0.9,0.4,1.2,0.8,1.2,1.4c0,1.5-1.3,2.1-6,2.1h-2.8
		c-3,0-3.6-0.7-3.6-3V83.3l4.5,0.4c-0.1,0.4-0.3,0.7-1,0.8v3.3h3.5l1.7-2.2c0,0,1.9,1.5,3,2.6c-0.1,0.3-0.4,0.5-0.8,0.5h-7.3v4.6
		c0,0.4,0.2,0.6,1,0.6h2.3c0.8,0,1.6,0,2,0c0.3,0,0.5-0.1,0.8-0.3c0.3-0.4,0.8-1.5,1.2-2.8h0.3L177.1,93.6z"/>
	<path class="st1" d="M193.2,73.3c-0.2,0.3-0.6,0.4-1.4,0.4c-1,1.8-2.9,5-4.4,6.9c3.4,2.1,4.8,5,4.8,7.4c0,3-1.2,4.7-4.6,4.7
		c0-0.9-0.1-2.2-0.4-2.6c-0.2-0.3-0.7-0.6-1.4-0.8V89h2c0.3,0,0.5,0,0.7-0.2c0.4-0.2,0.7-0.8,0.7-1.7c0-2.1-0.7-4.4-2.4-6.4
		c0.5-1.9,1.3-5.5,1.7-7.9h-3v24.1c0,0.2-1,1-2.7,1h-0.6V70.5l3.7,1.4h2.3l1.8-1.7L193.2,73.3z M206.1,73.2c0,0,2.1,1.7,3.3,2.9
		c-0.1,0.3-0.4,0.5-0.8,0.5h-9.2c-0.1,1.5-0.2,3-0.3,4.5h4.3l1.9-1.8l3.2,2.7c-0.2,0.3-0.6,0.4-1.3,0.6c-0.3,8.5-1.1,12.6-2.7,14
		c-1,0.9-2.3,1.3-4.1,1.3c0-1-0.1-1.9-0.5-2.3c-0.5-0.5-1.6-1-2.8-1.3v-0.4c1.2,0.1,3.2,0.2,3.8,0.2c0.5,0,0.8-0.1,1.1-0.3
		c1-0.8,1.5-4.9,1.8-11.8H199c-0.9,6.8-3.3,12.5-10.5,16l-0.2-0.3c6.2-5.5,7.3-12.8,7.3-21h-4.5l-0.2-0.9h8.3
		c-0.4-0.1-0.8-0.3-1.3-0.7c0.1-1.7-0.7-3.7-1.7-5l0.2-0.1c6.5,1.3,5.7,5.4,3.5,5.8h4.2L206.1,73.2z"/>
	<path class="st1" d="M219.6,92.1c-0.1,0.2-1.4,0.9-2.3,0.9h-0.4v-2.5h-2.1v3.1c0,0.2-0.9,0.9-2.2,0.9H212V71.7l3.1,1.3h1.4l1.4-1.6
		l2.9,2.3c-0.2,0.2-0.7,0.5-1.3,0.6V92.1z M214.8,73.8v7.3h2.1v-7.3H214.8z M216.9,89.6V82h-2.1v7.6H216.9z M233,81.8v2h1.5l1.3-1.4
		l2.8,2.1c-0.2,0.2-0.5,0.4-1.1,0.5v2.8c0,0.2-1.4,0.8-2.3,0.8h-0.5v-0.8h-11.1c-0.3,3.3-1.2,7.3-4.4,10.2l-0.3-0.3
		c1.9-4,2-8.8,2-12.8l0-5.2l0.2,0.1v-6.6l2.5,1h2.5l1.1-1.1l2.3,1.8c-0.1,0.2-0.4,0.4-0.8,0.5v3.3c0.6,0.1,1.1,0.2,1.4,0.4v-5.8
		l2.5,1h2.4l1.2-1.2l2.4,1.8c-0.1,0.2-0.5,0.4-0.9,0.5v3.4c0,0.2-0.6,0.5-1.1,0.7c0.6,0.5,1.7,1.3,2.4,2c-0.1,0.3-0.4,0.5-0.8,0.5
		H233z M220.5,72.8l-0.2-0.8h5.5l1.4-1.8c0,0,1.6,1.3,2.5,2.2c-0.1,0.3-0.4,0.5-0.7,0.5H220.5z M221.3,79.8l3,1.1h4.7
		c-0.1-0.6-0.4-1.2-0.8-1.7c-0.4,0.2-1,0.4-1.4,0.4h-0.4v-4.5h-2.9v4c0,0.2-1,0.7-2,0.7H221.3z M228.7,89.9c0,0,1.2,1.1,1.9,1.9
		c-0.1,0.3-0.4,0.5-0.8,0.5H227v2c1-0.2,2.2-0.4,3.3-0.6l0.1,0.4c-0.9,0.6-2.7,1.8-4.7,2.9c-0.2,0.4-0.5,0.7-0.8,0.8l-1.6-3
		c0.8-0.5,1-0.7,1-1.2v-5.3l3.6,0.4c-0.1,0.3-0.3,0.6-0.8,0.7v2.1h0.7L228.7,89.9z M223.9,75.8c4,0.9,2.3,3.9,0.8,2.6
		c0-0.8-0.5-1.8-1.1-2.4L223.9,75.8z M223.8,85c0,0.6,0,1.3,0,2h1.9v-2.3h-1.9V85z M223.8,83.8h1.9v-2h-1.9V83.8z M230.3,81.8h-1.9
		v2h1.9V81.8z M228.4,87h1.9v-2.3h-1.9V87z M230,72.8l-0.2-0.8h5l1.4-1.9c0,0,1.7,1.3,2.7,2.2c-0.1,0.3-0.4,0.5-0.8,0.5H230z
		 M237.8,94.4c0.7,0.3,0.9,0.6,0.9,1.1c0,1.1-1.1,1.6-4,1.6h-1.7c-2.1,0-2.4-0.6-2.4-2.3v-6.5l3.7,0.3c-0.1,0.4-0.3,0.6-0.9,0.7v2h1
		l1.2-1.8c0,0,1.4,1.3,2.2,2.1c-0.1,0.3-0.4,0.5-0.8,0.5h-3.7v2c0,0.3,0.1,0.4,0.5,0.4h1h1c0.2,0,0.4-0.1,0.5-0.2
		c0.2-0.3,0.5-1.1,0.8-2h0.3L237.8,94.4z M232.6,75.1l0,0.8l0.1,0c4,0.9,2.3,3.9,0.8,2.6c0-0.7-0.4-1.5-0.8-2.1v2.5
		c0,0.2-0.9,0.6-1.7,0.7c0.3,0.5,0.2,1-0.1,1.4h3.8l1.2-1.5h-0.4v-4.4H232.6z M233,84.6V87h1.8v-2.3H233z"/>
	<path class="st1" d="M256.7,73c-0.4,0.3-1,0.3-2,0c-3.5,0.7-9.1,1.2-13.8,1.1l-0.1-0.4c4.3-0.8,9.6-2.6,12.3-4L256.7,73z
		 M257.3,81.7c-0.2,0.2-0.6,0.3-1.2,0.4c-1.3,0.8-2.9,1.6-4.5,2.4l0.2,0c-0.1,0.5-0.4,0.7-1,0.8v1.3c2-0.3,4-0.5,6.1-0.8l0.1,0.5
		c-1.6,0.6-3.6,1.4-6.1,2.2V94c0,2.3-0.5,3.6-4.4,3.9c-0.1-1-0.2-1.7-0.7-2.2c-0.4-0.5-1-0.8-2.5-1.1v-0.4c0,0,2.9,0.2,3.5,0.2
		c0.4,0,0.6-0.1,0.6-0.5v-4.4c-1.3,0.4-2.6,0.8-4.1,1.3c-0.2,0.4-0.5,0.6-0.9,0.7l-1.6-3.8c1.4-0.1,3.7-0.4,6.5-0.8v-2.9l2.6,0.2
		c0.8-0.8,1.7-1.8,2.3-2.7H242l-0.3-0.8h8.2l-0.1,0c1-1.6,2.2-4.3,3.1-6.7l4.1,1.9c-0.2,0.4-0.6,0.6-1.2,0.5
		c-1.6,1.7-3.5,3.3-5.2,4.4h2.1l1.7-1.7L257.3,81.7z M241.9,75.1c6.3,1.8,3.5,6.5,1.2,4.4c-0.1-1.5-0.8-3.2-1.5-4.3L241.9,75.1z
		 M246.2,74.4c6.2,2.1,3.2,6.7,1,4.5c0-1.5-0.6-3.2-1.3-4.4L246.2,74.4z M268,93.4c0.9,0.5,1.2,0.9,1.2,1.6c0,1.6-1.4,2.3-5.4,2.3
		h-2.2c-2.8,0-3.5-0.8-3.5-3.3V70.5l4.8,0.5c-0.1,0.4-0.3,0.7-1.1,0.9v20.9c0,0.6,0.2,0.8,0.9,0.8h1.5h1.3c0.3,0,0.5-0.1,0.7-0.5
		c0.3-0.6,0.9-2.8,1.4-4.9h0.3L268,93.4z"/>
</g>
</svg>
