<?xml version="1.0" encoding="utf-8"?>
<!-- Generator: Adobe Illustrator 26.0.3, SVG Export Plug-In . SVG Version: 6.00 Build 0)  -->
<svg version="1.1" id="tag-ncm.svg" xmlns="http://www.w3.org/2000/svg" xmlns:xlink="http://www.w3.org/1999/xlink" x="0px"
	 y="0px" viewBox="0 0 139 30" style="enable-background:new 0 0 139 30;" xml:space="preserve">
<style type="text/css">
	.st0{fill:#FFFFFF;}
	.st1{fill:#0092C4;}
</style>
<path id="長方形_688" class="st0" d="M3,0h133c1.7,0,3,1.3,3,3v24c0,1.7-1.3,3-3,3H3c-1.7,0-3-1.3-3-3V3C0,1.3,1.3,0,3,0z"/>
<g>
	<path class="st1" d="M21.8,14.2c-0.6-0.5-1.7-1.2-2.7-1.6l1.1-1.5c0.9,0.4,2.1,1,2.7,1.5L21.8,14.2z M19.4,21
		c0.6-1.3,1.5-3.5,2.2-5.5l1.6,1.1c-0.6,1.8-1.3,3.8-2,5.4L19.4,21z M20.9,6.5c0.9,0.4,2.1,1.1,2.7,1.6l-1.2,1.6
		c-0.5-0.5-1.7-1.3-2.7-1.7L20.9,6.5z M25.5,13.1v9.1h-1.8V7h4.9v6.1H25.5z M25.5,8.5v0.8H27V8.5H25.5z M27,11.6v-0.9h-1.5v0.9H27z
		 M32.2,20.4H26V19h2.2v-1.2h-1.7v-1.4h1.7v-1h-1.9v-1.5h5.6v1.5h-2v1h1.7v1.4h-1.7V19h2.3V20.4z M34.5,20.2c0,0.9-0.2,1.4-0.7,1.7
		c-0.5,0.3-1.3,0.4-2.4,0.4c-0.1-0.5-0.2-1.3-0.5-1.8c0.6,0,1.2,0,1.4,0c0.2,0,0.3-0.1,0.3-0.3v-7.1h-3.3V7h5.1V20.2z M31.1,8.5v0.8
		h1.6V8.5H31.1z M32.7,11.6v-0.9h-1.6v0.9H32.7z"/>
	<path class="st1" d="M38.9,14.3c-0.5-0.5-1.8-1.3-2.7-1.7l1.1-1.5c1,0.4,2.2,1,2.8,1.5L38.9,14.3z M40.6,16.6
		c-0.6,1.8-1.4,3.8-2.2,5.4l-1.8-1.1c0.7-1.3,1.7-3.5,2.4-5.5L40.6,16.6z M39.7,9.9C39.2,9.3,38,8.6,37,8.1l1.1-1.5
		c0.9,0.4,2.2,1.1,2.8,1.6L39.7,9.9z M52.1,15.6h-3.3l1.1,0.2c-0.2,0.3-0.4,0.6-0.5,0.9h1.9v1.5h-4v0.7h4.6v1.5h-4.6v1.8h-2v-1.8
		h-4.7v-1.5h4.7v-0.7h-3.8v-1.5h1.8c-0.1-0.3-0.2-0.7-0.4-0.9l0.7-0.2h-3V14h4.7v-0.7h-3.5v-1.5h3.5v-0.7h-4V6.9h10.1v4.2h-4.2v0.7
		h3.7v1.5h-3.7V14h4.9L52.1,15.6z M44.2,8.4H43v1.3h1.1V8.4z M47.5,16.7c0.2-0.4,0.3-0.8,0.5-1.1h-3.2c0.2,0.4,0.3,0.8,0.4,1.1H47.5
		z M45.7,9.7h1.2V8.4h-1.2V9.7z M48.4,9.7h1.2V8.4h-1.2V9.7z"/>
	<path class="st1" d="M59.1,16.5c1-0.1,2.1-0.2,3.1-0.3V18c-1,0.1-2.1,0.2-3.1,0.3v2c0,0.9-0.2,1.4-0.8,1.7
		c-0.6,0.3-1.4,0.3-2.6,0.3c-0.1-0.5-0.4-1.3-0.6-1.8c0.7,0,1.5,0,1.7,0c0.2,0,0.3,0,0.3-0.2v-1.7c-1.3,0.1-2.6,0.2-3.6,0.3
		l-0.2-1.9c1.1-0.1,2.4-0.2,3.8-0.3v-0.8c0.5-0.4,1.1-1,1.6-1.6h-4.6v-1.7H55c-0.2-0.7-0.7-1.8-1.1-2.7l1.6-0.6c0.5,0.8,1,2,1.2,2.7
		l-1.4,0.6h4.9l0.4-0.1l1.3,1C61.2,14.4,60.2,15.5,59.1,16.5L59.1,16.5z M62.7,8c-2.5,0.6-5.8,0.9-8.7,1.1c-0.1-0.5-0.3-1.2-0.5-1.6
		c2.8-0.2,6-0.5,8-1.1L62.7,8z M57.4,12.3c-0.1-0.7-0.5-1.9-0.9-2.8l1.6-0.5c0.4,0.9,0.7,2,0.9,2.7L57.4,12.3z M59.2,11.8
		c0.5-0.9,1-2.3,1.3-3.3l1.9,0.7c-0.6,1.2-1.2,2.4-1.7,3.3L59.2,11.8z M66.8,20c0.4,0,0.5-0.6,0.6-3.1c0.5,0.4,1.3,0.8,1.8,0.9
		c-0.2,3-0.6,4-2.2,4h-1.6c-1.7,0-2.1-0.7-2.1-2.8V6.8h2V19c0,0.9,0.1,1,0.5,1H66.8z"/>
	<path class="st1" d="M73,14.5c-0.6-0.6-1.8-1.4-2.7-2l1.2-1.4c0.9,0.5,2.2,1.3,2.8,1.8L73,14.5z M70.3,21c0.7-1.3,1.6-3.4,2.3-5.4
		l1.6,1.1c-0.6,1.8-1.3,3.7-2.1,5.4L70.3,21z M85.7,11.9c-0.5,2.7-1.4,4.9-2.6,6.7c0.9,0.9,2,1.6,3.2,2.1c-0.4,0.4-1.1,1.1-1.3,1.6
		c-1.1-0.6-2.2-1.4-3.1-2.3c-0.9,1-2,1.7-3.1,2.3c-0.3-0.4-0.7-1.1-1.1-1.5v1.4h-1.8v-6.8c-0.3,0.3-0.6,0.7-0.8,1
		c-0.3-0.4-0.9-1-1.3-1.3c1.3-1.3,2.5-3.5,3.1-5.2h-2V8.9l-1.1,1.2C73.1,9.6,71.9,8.6,71,8l1.2-1.3c0.8,0.5,1.8,1.2,2.4,1.8V8.1h4.7
		c-0.2-0.4-0.4-0.9-0.5-1.3l1.8-0.5c0.3,0.5,0.6,1.2,0.8,1.8H86V10h-5.5l1.6,0.4c-0.1,0.4-0.3,0.7-0.4,1.1h2.5l0.3-0.1L85.7,11.9z
		 M78.7,10.4c-0.3,0.7-0.6,1.5-1.1,2.2v2.5c1.2-1.4,2.2-3.5,2.7-5.2h-3.2L78.7,10.4z M77.6,20.8c1.1-0.5,2.2-1.3,3.1-2.2
		c-0.6-0.8-1.1-1.6-1.5-2.5c-0.2,0.3-0.5,0.6-0.7,0.9c-0.2-0.2-0.5-0.6-0.8-0.8V20.8z M80.2,14.5c0.4,0.9,1,1.8,1.6,2.7
		c0.2-0.4,0.5-0.8,0.7-1.2c-0.6-0.5-1.4-1.1-2.2-1.6L80.2,14.5z M81,13.1L81,13.2c0.7,0.4,1.6,1,2.1,1.4c0.2-0.5,0.4-1,0.5-1.6H81z"
		/>
	<path class="st1" d="M94.7,15h1.7v7.2h-1.7V20H90c-0.3,0.9-0.8,1.7-1.7,2.3c-0.3-0.3-0.8-0.9-1.2-1.1c1.4-1.1,1.6-2.8,1.6-3.9V15
		h1.6v0.9h4.4V15z M91.3,10.7c0,2-0.1,2.9-0.3,3.3c-0.2,0.3-0.4,0.4-0.7,0.4c-0.2,0-0.6,0.1-1,0.1c0-0.4-0.1-0.8-0.2-1.1
		c-0.3,0.5-0.6,0.9-1,1.3c-0.2-0.3-0.5-0.8-0.8-1c0.6-0.5,1-1.2,1.1-2.1h-0.8v-1.2h3.6C91,10,90.9,9.8,90.7,9.7l0.6-0.3h-3.7V7.8H92
		c-0.2-0.4-0.3-0.8-0.5-1.1l1.4-0.5c0.3,0.5,0.6,1.1,0.8,1.6h4v1.5h-3.8L95,9.7c-0.5,0.5-1.1,1.1-1.6,1.6v3.4h-1.3v-3.5
		c0.5-0.6,1.2-1.4,1.5-2h-1.7c0.3,0.4,0.6,0.9,0.8,1.2l-1,0.6c-0.1-0.2-0.2-0.4-0.3-0.6L91.3,10.7z M89.6,11.4
		c-0.1,0.7-0.3,1.2-0.5,1.8c0.2,0,0.4,0,0.5,0c0.1,0,0.2,0,0.3-0.1c0.1-0.2,0.1-0.6,0.2-1.7H89.6z M94.7,18.4v-1h-4.4
		c0,0.3,0,0.6-0.1,1H94.7z M96.9,9.7l1.1,1c-0.8,0.4-1.8,0.7-2.7,1v1.5l0.9-0.2c0,0.3,0.1,0.8,0.1,1.1c-1.5,0.4-1.9,0.5-2.1,0.7
		c-0.1-0.3-0.3-0.9-0.5-1.2c0.2-0.1,0.4-0.3,0.4-0.9l0-1.8C95.1,10.5,96.2,10.1,96.9,9.7z M97,11.4c0.5,0.6,1,1.5,1.3,2.1l-1.1,0.7
		c-0.2-0.6-0.8-1.6-1.3-2.2L97,11.4z M99.9,18h-1.6V8.2h1.6V18z M102.6,6.6v13.6c0,0.9-0.2,1.4-0.7,1.7c-0.5,0.3-1.3,0.4-2.4,0.4
		c-0.1-0.5-0.3-1.2-0.5-1.7c0.7,0,1.4,0,1.6,0c0.2,0,0.3-0.1,0.3-0.3V6.6H102.6z"/>
	<path class="st1" d="M119.8,19.9v1.9h-15.3v-1.9h6.6v-1.4h-4.9v-1.8h4.9v-1.1h-1.3v-3.3h-1.6c-0.3,1.4-1,2.8-2.7,3.7
		c-0.3-0.4-1-1.1-1.3-1.4c1.3-0.6,1.8-1.5,2.1-2.3h-1.7v-1.8h1.9V8.8h-1.3V7h7.7v1.8h-1.2v1.8h1.6v1.8h-1.6v3h1.5v1.4h4.9v1.8h-4.9
		v1.4H119.8z M109.9,10.5V8.8h-1.4v1.8H109.9z M115.9,13.1h-1.9V7.4h1.9V13.1z M119.1,13.8c0,0.9-0.2,1.4-0.8,1.7
		c-0.6,0.3-1.5,0.3-2.7,0.3c-0.1-0.5-0.4-1.3-0.6-1.8c0.8,0,1.6,0,1.8,0c0.2,0,0.3-0.1,0.3-0.3V6.6h1.9V13.8z"/>
</g>
</svg>
