<?xml version="1.0" encoding="utf-8"?>
<!-- Generator: Adobe Illustrator 26.0.3, SVG Export Plug-In . SVG Version: 6.00 Build 0)  -->
<svg version="1.1" id="tag-we.svg" xmlns="http://www.w3.org/2000/svg" xmlns:xlink="http://www.w3.org/1999/xlink" x="0px" y="0px"
	 viewBox="0 0 174 30" style="enable-background:new 0 0 174 30;" xml:space="preserve">
<style type="text/css">
	.st0{fill:#FFFFFF;}
	.st1{fill:#4D7183;}
</style>
<path id="長方形_688" class="st0" d="M3,0h168c1.7,0,3,1.3,3,3v24c0,1.7-1.3,3-3,3H3c-1.7,0-3-1.3-3-3V3C0,1.3,1.3,0,3,0z"/>
<g>
	<path class="st1" d="M42.5,7.7c-0.5,1.2-1,2.4-1.7,3.5v11.7h-1.9v-8.7c-0.4,0.5-0.8,1-1.2,1.4c-0.2-0.5-0.7-1.6-1.1-2.1
		c1.6-1.5,3.1-3.9,4-6.4L42.5,7.7z M45.5,18.1c-0.7,1.5-1.7,3.1-2.6,4.1c-0.4-0.3-1.1-0.8-1.6-1.1c0.8-0.9,1.8-2.3,2.3-3.6
		L45.5,18.1z M48.2,17v6h-2v-6h-4.4v-1.8h4.4v-1.5h-3.3V7.8h8.9v5.8h-3.6v1.5h4.4V17H48.2z M44.7,11.9h5V9.6h-5V11.9z M50.3,17.5
		c1,1.1,2,2.6,2.5,3.6l-1.6,1c-0.5-1-1.5-2.6-2.4-3.7L50.3,17.5z"/>
	<path class="st1" d="M56.6,15.3c-0.6-0.6-1.9-1.4-2.8-1.9l0.9-1.5c0.9,0.4,2.2,1.2,2.9,1.7L56.6,15.3z M58.1,17.4
		c-0.7,1.8-1.7,3.7-2.5,5.3l-1.5-1.4c0.8-1.3,1.9-3.4,2.8-5.3L58.1,17.4z M57.4,10.8c-0.6-0.6-1.9-1.4-2.8-2l1-1.5
		c0.9,0.5,2.2,1.2,2.9,1.8L57.4,10.8z M57.6,22.1c0.7-0.7,1.4-1.9,1.7-2.9l1.6,0.7c-0.4,1-1,2.3-1.7,3L57.6,22.1z M62.8,19.4
		c-0.1-0.2-0.1-0.5-0.2-0.8c-2.7,0.3-3.3,0.4-3.7,0.5c-0.1-0.2-0.4-0.8-0.6-1.1c0.4-0.1,0.7-0.3,1.1-0.7c0.2-0.2,0.6-0.6,1.1-1.2
		c-1.1,0.1-1.5,0.2-1.7,0.2c-0.1-0.2-0.4-0.7-0.5-1c0.3,0,0.5-0.2,0.7-0.5c0.2-0.2,0.9-1.1,1.2-2H59V7.7h9.4v5.2h-2.6l1.3,0.6
		c-0.3,0.5-0.6,1-1.1,1.5l0.8,0c0.2-0.3,0.4-0.7,0.6-1l1.4,0.8c-0.6,0.9-1.4,1.9-2.3,2.7l1-0.1c-0.1-0.2-0.2-0.4-0.3-0.5l1-0.5
		c0.5,0.8,1,1.9,1.2,2.5l-1.1,0.5c-0.1-0.3-0.2-0.5-0.3-0.8c-2.8,0.3-3.5,0.4-3.8,0.5c-0.1-0.2-0.4-0.8-0.6-1.1
		c0.4-0.1,0.7-0.3,1.1-0.7c0.2-0.2,0.6-0.5,1-1.1c-1.1,0.1-1.5,0.2-1.7,0.3c-0.1-0.2-0.4-0.7-0.6-1c0.3,0,0.5-0.2,0.7-0.5
		s0.9-1.2,1.3-2.1h-4.9l0.9,0.4c-0.3,0.5-0.6,1-1,1.5l0.8,0c0.2-0.3,0.4-0.6,0.5-0.9l1.4,0.8c-0.6,0.9-1.4,1.9-2.3,2.8l1.1-0.1
		c-0.1-0.2-0.2-0.4-0.3-0.6l1-0.4c0.4,0.8,0.8,1.9,1,2.6L62.8,19.4z M60.8,9.7h5.7V9h-5.7V9.7z M60.8,11.6h5.7v-0.7h-5.7V11.6z
		 M63.1,19.6c0.3,0.9,0.4,2.1,0.5,2.9l-1.6,0.3c0-0.8-0.2-2-0.4-2.9L63.1,19.6z M65.3,19.5c0.5,0.9,0.9,2,1.1,2.8l-1.6,0.6
		c-0.1-0.8-0.6-2-1-2.8L65.3,19.5z M67.8,19.1c0.7,1,1.4,2.2,1.7,3.1L67.9,23c-0.3-0.9-1-2.2-1.6-3.2L67.8,19.1z"/>
	<path class="st1" d="M86.7,12.5V14H77v-1.4h3.8v-0.7h-3.1v-1.3h3.1V9.8h-3.5V9.1c-0.4,1.1-0.9,2.3-1.3,3.1l-1.1-0.4v0.9h1.8v1.9
		h-1.8v1.2l0.7-0.5c0.3,0.4,1.5,2.1,1.8,2.5l-1.3,1.5c-0.3-0.7-0.8-1.8-1.2-2.6V23h-1.8v-5.6c-0.4,1.4-0.9,2.9-1.6,3.7
		c-0.2-0.6-0.5-1.5-0.8-2.1c0.7-0.9,1.3-2.4,1.6-3.7l0.9,0.3v-1h-2.2v-1.9h2.2V7.1h1.8v4.4c0.3-1,0.7-2.3,0.9-3.2l1.5,0.5V8.3h3.5
		V7.1h2v1.2h3.7v1.4h-3.7v0.7h3.4v1.3h-3.4v0.7H86.7z M71.6,12.2c-0.1-1-0.4-2.5-0.7-3.6l1.4-0.3c0.3,1.1,0.7,2.6,0.8,3.6L71.6,12.2
		z M85.9,21.1c0,0.9-0.2,1.3-0.7,1.5c-0.6,0.3-1.4,0.3-2.4,0.3c-0.1-0.5-0.3-1.2-0.5-1.6c0.6,0,1.3,0,1.5,0c0.2,0,0.3-0.1,0.3-0.3
		v-0.7h-4.6c-0.2,1-0.6,2-1.2,2.7c-0.3-0.4-1-1.1-1.4-1.3c1-1.2,1.1-2.8,1.1-4.1v-3h8V21.1z M84,19.1v-0.8h-4.4c0,0.3,0,0.5-0.1,0.8
		H84z M79.6,16.2V17H84v-0.8H79.6z"/>
	<path class="st1" d="M96.7,18.4v0.9h5.7v1.7h-5.7v2h-2v-2h-5.6v-1.7h5.6v-0.9h-6.6v-1.8h6.6v-3.8h-6.2v-1.6H103v1.6h-6.3v3.8h6.8
		v1.8H96.7z M91.8,9.8h-3.6V8.1h3.6v-1h2v1h1.7v1.8h-1.7v1h-2V9.8z M92.5,13.1v0.7H94v1.7h-1.6v0.8h-1.9v-0.8h-2.1v-1.7h2.1v-0.7
		H92.5z M97.7,9.8H96V8.1h1.6v-1h2v1h3.7v1.8h-3.7v1h-2V9.8z M99,16.4v-0.9h-1.6v-1.7H99v-0.6h1.9v0.6h2v1.7h-2v0.9H99z"/>
	<path class="st1" d="M112.3,15.7h1.7v7.2h-1.7v-2.2h-4.8c-0.3,0.9-0.8,1.7-1.7,2.3c-0.3-0.3-0.8-0.9-1.2-1.1
		c1.4-1.1,1.6-2.8,1.6-3.9v-2.2h1.6v0.9h4.4V15.7z M108.9,11.4c0,2-0.1,2.9-0.3,3.3c-0.2,0.3-0.4,0.4-0.7,0.4c-0.2,0-0.6,0.1-1,0.1
		c0-0.4-0.1-0.8-0.2-1.1c-0.3,0.5-0.6,0.9-1,1.3c-0.2-0.3-0.5-0.8-0.8-1c0.6-0.5,1-1.2,1.1-2.1h-0.8v-1.2h3.6
		c-0.1-0.2-0.2-0.4-0.4-0.5l0.6-0.3h-3.7V8.5h4.4c-0.2-0.4-0.3-0.8-0.5-1.1l1.4-0.5c0.3,0.5,0.6,1.1,0.8,1.6h4V10h-3.8l1.1,0.4
		c-0.5,0.5-1.1,1.1-1.6,1.6v3.4h-1.3V12c0.5-0.6,1.2-1.4,1.5-2h-1.7c0.3,0.4,0.6,0.9,0.8,1.2l-1,0.6c-0.1-0.2-0.2-0.4-0.3-0.6
		L108.9,11.4z M107.2,12.1c-0.1,0.7-0.3,1.2-0.5,1.8c0.2,0,0.4,0,0.5,0c0.1,0,0.2,0,0.3-0.1c0.1-0.2,0.1-0.6,0.2-1.7H107.2z
		 M112.3,19.1v-1h-4.4c0,0.3,0,0.6-0.1,1H112.3z M114.5,10.4l1.1,1c-0.8,0.4-1.8,0.7-2.7,1v1.5l0.9-0.2c0,0.3,0.1,0.8,0.1,1.1
		c-1.5,0.4-1.9,0.5-2.1,0.7c-0.1-0.3-0.3-0.9-0.5-1.2c0.2-0.1,0.4-0.3,0.4-0.9l0-1.8C112.7,11.2,113.8,10.8,114.5,10.4z M114.5,12.1
		c0.5,0.6,1,1.5,1.3,2.1l-1.1,0.7c-0.2-0.6-0.8-1.6-1.3-2.2L114.5,12.1z M117.5,18.6h-1.6V8.9h1.6V18.6z M120.2,7.3v13.6
		c0,0.9-0.2,1.4-0.7,1.7c-0.5,0.3-1.3,0.4-2.4,0.4c-0.1-0.5-0.3-1.2-0.5-1.7c0.7,0,1.4,0,1.6,0c0.2,0,0.3-0.1,0.3-0.3V7.3H120.2z"/>
	<path class="st1" d="M137.4,20.5v1.9h-15.3v-1.9h6.6v-1.4h-4.9v-1.8h4.9v-1.1h-1.3V13h-1.6c-0.3,1.4-1,2.8-2.7,3.7
		c-0.3-0.4-1-1.1-1.3-1.4c1.3-0.6,1.8-1.5,2.1-2.3h-1.7v-1.8h1.9V9.4h-1.3V7.7h7.7v1.8h-1.2v1.8h1.6V13h-1.6v3h1.5v1.4h4.9v1.8h-4.9
		v1.4H137.4z M127.5,11.2V9.4H126v1.8H127.5z M133.5,13.8h-1.9V8.1h1.9V13.8z M136.7,14.5c0,0.9-0.2,1.4-0.8,1.7
		c-0.6,0.3-1.5,0.3-2.7,0.3c-0.1-0.5-0.4-1.3-0.6-1.8c0.8,0,1.6,0,1.8,0c0.2,0,0.3-0.1,0.3-0.3V7.3h1.9V14.5z"/>
</g>
</svg>
