<svg id="レイヤー_1" data-name="レイヤー 1" xmlns="http://www.w3.org/2000/svg" width="111.39mm" height="7.64mm" viewBox="0 0 315.75 21.64">
  <defs>
    <style>
      .cls-1 {
        fill: #fff;
      }
    </style>
  </defs>
  <g>
    <path class="cls-1" d="M15.81,18.05A39.75,39.75,0,0,0,9.5,11.94a24.53,24.53,0,0,1-7.83,5.94A8.33,8.33,0,0,0,0,15.6a17.07,17.07,0,0,0,4.11-2.26A19.88,19.88,0,0,0,11,5l.22-.53c-.33,0-.33,0-6.8.12a15,15,0,0,0-2.24.17L2.12,2.1a9.18,9.18,0,0,0,1.81.12h.49l7.23-.1a4.3,4.3,0,0,0,1.83-.23l1.36,1.4a3.92,3.92,0,0,0-.66,1.11A27,27,0,0,1,11,10.07a32.48,32.48,0,0,1,3.8,3c.51.45.51.45,3,2.86Z"/>
    <path class="cls-1" d="M32.68,2.43c.61,0,.86,0,1.21-.05a2.38,2.38,0,1,1,2.36,2.37,3,3,0,0,1-.39,0c-1.66,6.72-5.3,10.91-11.79,13.62a7.75,7.75,0,0,0-1.81-2.44C28,14.12,31.67,10.3,33,4.83H23.2A15.24,15.24,0,0,0,20.61,5V2.28a14.29,14.29,0,0,0,2.63.15Zm2.24-.07a1.35,1.35,0,1,0,2.69,0,1.35,1.35,0,0,0-2.69,0Z"/>
    <path class="cls-1" d="M45.42,1.21a16.44,16.44,0,0,0-.12,2.08L45.19,15a14.71,14.71,0,0,0,5.61-2.26A12.08,12.08,0,0,0,55,8.06a9.63,9.63,0,0,0,2,2.09,15.29,15.29,0,0,1-4.58,4.79,18.81,18.81,0,0,1-7.48,2.82,5.39,5.39,0,0,0-1.24.35l-1.31-1.59a7.37,7.37,0,0,0,.18-2.11l.08-11.1a10.31,10.31,0,0,0-.1-2.12Z"/>
    <path class="cls-1" d="M60.42,8.06a20.75,20.75,0,0,0,3.33.14h11A20.82,20.82,0,0,0,78,8.06v2.85a23.26,23.26,0,0,0-3.35-.1H63.77a23.18,23.18,0,0,0-3.35.1Z"/>
    <path class="cls-1" d="M99,5.26A2.59,2.59,0,0,0,96.2,3.19,3.42,3.42,0,0,0,93,5.32,9.08,9.08,0,0,0,92.13,9a4.77,4.77,0,0,1,4.4-2.05,5.35,5.35,0,0,1,4.77,2.44,5.94,5.94,0,0,1,.74,3.09c0,3.24-2.47,5.54-6,5.54a6.46,6.46,0,0,1-4.17-1.35c-1.52-1.32-2.39-3.78-2.39-6.89a11.18,11.18,0,0,1,1.69-6.35,5.83,5.83,0,0,1,5-2.44,5.67,5.67,0,0,1,4.22,1.56,6,6,0,0,1,1.29,2.09Zm-6.42,7.18a3.48,3.48,0,0,0,6.29,1.8,3.48,3.48,0,0,0,.48-1.87,3,3,0,0,0-3.25-3.22A3.31,3.31,0,0,0,92.54,12.44Z"/>
    <path class="cls-1" d="M105.82,16.28a5.8,5.8,0,0,1-1.36-2.08,13.84,13.84,0,0,1-.8-4.72,12.15,12.15,0,0,1,1.25-5.7A5.85,5.85,0,0,1,110.16.92a6,6,0,0,1,4.33,1.67,5.8,5.8,0,0,1,1.36,2.08,13.86,13.86,0,0,1,.8,4.76,10.79,10.79,0,0,1-1.52,6.09,5.84,5.84,0,0,1-5,2.42A5.92,5.92,0,0,1,105.82,16.28Zm6.56-1.58c.92-1,1.43-2.88,1.43-5.29s-.51-4.25-1.43-5.26a3,3,0,0,0-2.24-.86,2.78,2.78,0,0,0-2.31,1,7.69,7.69,0,0,0-1.35,5,9.3,9.3,0,0,0,1,4.89,3.28,3.28,0,0,0,4.86.48Z"/>
    <path class="cls-1" d="M121.58,18.09a3.48,3.48,0,0,0,3.19,1.56,3.71,3.71,0,0,0,3.37-1.54,5.62,5.62,0,0,0,.53-2.74,4.67,4.67,0,0,1-4,1.87c-3.26,0-5.36-2.24-5.36-5.75s2.16-5.86,5.49-5.86a4.33,4.33,0,0,1,3.92,1.81,5.06,5.06,0,0,1,0-.68V5.82h2.75a19.59,19.59,0,0,0-.14,2.57v6.88c0,2.47-.53,4.05-1.73,5.06a7.75,7.75,0,0,1-4.85,1.31,6,6,0,0,1-5.16-2.13Zm1.34-3.7a3.15,3.15,0,0,0,2.18.92A3.43,3.43,0,0,0,128,13.69a4.37,4.37,0,0,0,.58-2.34,3.78,3.78,0,0,0-1.24-3,3.1,3.1,0,0,0-2-.74c-2,0-3.33,1.54-3.33,4A4,4,0,0,0,122.92,14.39Z"/>
    <path class="cls-1" d="M147.87,10.34c-1.3,1.09-1.87,1.95-1.87,2.83,0,1.34,1.5,1.92,5,1.92a20.88,20.88,0,0,0,6.45-.89l.23,2.82a8.72,8.72,0,0,0-.9.08,33.22,33.22,0,0,1-5.55.47,14.8,14.8,0,0,1-5.14-.67c-1.77-.7-2.63-1.83-2.63-3.44s.8-2.94,2.65-4.48Zm-3.13-8.45a27,27,0,0,0,6.17.51A25.24,25.24,0,0,0,156.33,2l.09,2.33a36.2,36.2,0,0,0-5.49,3.39l-1.79-1.42c1.3-.82,1.52-1,2-1.25l.53-.33a2.83,2.83,0,0,0,.45-.25,22.28,22.28,0,0,1-3.08.17,33.12,33.12,0,0,1-3.76-.25l-.47,0-.29,0Zm10.85,4.56a13.21,13.21,0,0,1,2.16,3l-1.44.76a13.7,13.7,0,0,0-2.15-3.07Zm3.19,2.49a14.85,14.85,0,0,0-2.1-3l1.38-.72a12,12,0,0,1,2.14,2.9Z"/>
    <path class="cls-1" d="M165.19,14.84A12.34,12.34,0,0,1,163.24,19a8.46,8.46,0,0,0-1.69-1.21A10,10,0,0,0,163.44,14Zm-1.38-.95a10.54,10.54,0,0,0-1.46.07c.05-.6.07-1.44.07-2.18V2.86A17.83,17.83,0,0,0,162.33.8c.48,0,.95.06,1.71.06h2.43A16.13,16.13,0,0,0,168.09.8,18.37,18.37,0,0,0,168,2.65V12a13.77,13.77,0,0,0,.06,1.94,10.85,10.85,0,0,0-1.42-.07Zm.46-9.27h1.93V2.77h-1.93Zm0,3.58h1.93V6.39h-1.93Zm0,3.8h1.93V10h-1.93ZM167,14a12,12,0,0,0,1.73,3.43,6.58,6.58,0,0,0-1.63,1.13,18.61,18.61,0,0,1-1.7-3.74Zm3.15-5.84a10.14,10.14,0,0,0-1.69.1V6.45a8.81,8.81,0,0,0,1.69.11h1v-1h-.57a9.42,9.42,0,0,0-1.44.08V4a9.16,9.16,0,0,0,1.44.08h.57v-.9h-.92a11,11,0,0,0-1.52.08V1.54a8.51,8.51,0,0,0,1.58.1h.86a4.93,4.93,0,0,0-.12-1.43h2.24a4.93,4.93,0,0,0-.12,1.43h2.36a4.53,4.53,0,0,0-.12-1.43h2.24a6.1,6.1,0,0,0-.13,1.43h1.24a7.35,7.35,0,0,0,1.5-.1V3.29a10.91,10.91,0,0,0-1.48-.08h-1.26v.9h.89A8.72,8.72,0,0,0,179.8,4V5.67a9.45,9.45,0,0,0-1.43-.08h-.85v1h1.34a7.34,7.34,0,0,0,1.64-.11V8.28a8.94,8.94,0,0,0-1.66-.1h-3.58v.9h2.37A17.27,17.27,0,0,0,179.54,9a17.09,17.09,0,0,0-.08,1.73V14a5.44,5.44,0,0,0,1.08-.11v1.83a7.25,7.25,0,0,0-1.08-.08v1.4c0,1.54-.46,1.91-2.31,1.91-.59,0-1.07,0-1.85,0A5.45,5.45,0,0,0,175,17.1a12.47,12.47,0,0,0,1.71.14c.68,0,.84-.08.84-.47V15.66h-6.12v.91a24.56,24.56,0,0,0,.08,2.52H169.3a20.51,20.51,0,0,0,.1-2.52v-.91a5.43,5.43,0,0,0-1.17.1V13.91a7.52,7.52,0,0,0,1.17.11V10.91c0-.84,0-1.29-.06-1.89.52,0,1,.06,1.93.06h2.08v-.9Zm3.16,2.47h-2v1h2Zm0,2.38h-2v1h2Zm-.18-8.92h2.36v-.9h-2.36Zm0,2.45h2.36v-1h-2.36Zm4.33,5.05v-1h-2.22v1Zm0,2.41V13h-2.22v1Z"/>
    <path class="cls-1" d="M188.41,3.29c-.55,0-1.17,0-2,.1V.92a11.52,11.52,0,0,0,1.93.11h3.27a10.28,10.28,0,0,0,1.87-.11,10.1,10.1,0,0,0-.06,1.3,15.91,15.91,0,0,0,2.2,8.14,16.62,16.62,0,0,0,3.29,4,14.53,14.53,0,0,0,3,2.21,9,9,0,0,0-1.75,2.33,20.87,20.87,0,0,1-5-4.83,15.56,15.56,0,0,1-1.81-3,13.14,13.14,0,0,1-1.05-2.92,17.09,17.09,0,0,1-2.94,6.2,20.39,20.39,0,0,1-5.1,4.65,5.73,5.73,0,0,0-1.68-2.16,16.28,16.28,0,0,0,4.13-3.23,15.11,15.11,0,0,0,3.51-6.08A15.8,15.8,0,0,0,191,3.29Z"/>
    <path class="cls-1" d="M205.57,18.13a7.46,7.46,0,0,0-.1-.8,39.08,39.08,0,0,1-.55-6.54,36.42,36.42,0,0,1,.39-5.45c.1-.61.1-.61.55-2.94a10.05,10.05,0,0,0,.23-1.52V.8l2.77.29c-.84,1.79-1.62,6.74-1.64,10.32,0,.74,0,.74,0,1.07v.32a3.71,3.71,0,0,1,0,.44h0c.1-.23.1-.23.24-.6.05-.14.15-.37.25-.7s.19-.43.39-.92a4.81,4.81,0,0,0,.25-.64l1.7.76a17.13,17.13,0,0,0-2,6.29,4.12,4.12,0,0,0,0,.55Zm4.65-13.46a15.2,15.2,0,0,0,3.72.32c.72,0,1.17,0,1.89,0,0-1.21,0-2.24,0-3.08a6,6,0,0,0-.06-1l2.57-.06a19,19,0,0,0-.15,3v1A21.07,21.07,0,0,0,221,4.3l.45-.17.16,0,.09,2.32a3,3,0,0,0-.6.11c-.7.14-1.77.32-2.86.45v.45c0,1.15,0,1.19.21,4.64a16.38,16.38,0,0,1,3.23,1.88,3.83,3.83,0,0,0,.57.34l-1,2.49a7.68,7.68,0,0,0-1.55-1.31c-.69-.46-1.17-.76-1.29-.85v.29a3.4,3.4,0,0,1-.17,1.15c-.47,1.22-1.91,1.93-3.9,1.93-2.69,0-4.34-1.27-4.34-3.37s1.75-3.39,4.24-3.39a4.82,4.82,0,0,1,1.83.29C216,11,216,10,215.87,7.13c-.82,0-1.31,0-1.85,0-.76,0-1.58,0-2.55-.1l-.61,0-.35,0-.21,0-.12,0Zm4.17,8.61c-1.31,0-2.14.51-2.14,1.35s.74,1.28,1.9,1.28a2,2,0,0,0,1.66-.64,1.75,1.75,0,0,0,.27-1.11v-.55A4.26,4.26,0,0,0,214.39,13.28Z"/>
    <path class="cls-1" d="M230,10.32c-1.29,1.07-1.87,1.93-1.87,2.81,0,1.34,1.5,1.91,5,1.91a21.76,21.76,0,0,0,6.46-.86l.22,2.82a8.27,8.27,0,0,0-.9.08,35.08,35.08,0,0,1-5.55.45,14.53,14.53,0,0,1-5.14-.68,3.52,3.52,0,0,1-2.63-3.43c0-1.56.8-2.92,2.65-4.46Zm-3.12-8.45a26.94,26.94,0,0,0,6.16.51A25.41,25.41,0,0,0,238.48,2l.08,2.31a37.75,37.75,0,0,0-5.49,3.41l-1.79-1.42c1.07-.68,2.08-1.3,3-1.83a22.62,22.62,0,0,1-3.09.16,33.29,33.29,0,0,1-3.76-.24,6.28,6.28,0,0,0-.76-.06Z"/>
    <path class="cls-1" d="M242.46,3.41a18.78,18.78,0,0,0,4.44.35,17.66,17.66,0,0,0,.58-3.39l2.75.23c-.12.37-.12.37-.33,1.19-.37,1.54-.37,1.54-.49,1.93,1.56,0,3.89-.21,5.24-.37a14.15,14.15,0,0,0,2.63-.47l.13,2.48c-.48,0-.66,0-1.2.11-3,.33-4.79.47-7.36.53a27.25,27.25,0,0,1-1.62,4.17v0a9.61,9.61,0,0,1,5.18-1.33c3.62,0,5.78,1.56,5.78,4.17,0,3-2.94,5-7.44,5a18.85,18.85,0,0,1-5.24-.72,12,12,0,0,0-.21-2.61,15.83,15.83,0,0,0,5.3,1c3,0,4.92-1,4.92-2.69,0-1.27-1.24-2-3.46-2a10.52,10.52,0,0,0-4.42,1,3.53,3.53,0,0,0-1.5,1.2l-2.48-.87a14.85,14.85,0,0,0,1-1.85A46.33,46.33,0,0,0,246.35,6c-1.09,0-2-.06-3.11-.14-.28,0-.49,0-.65,0h-.17Z"/>
    <path class="cls-1" d="M266.18,4.62a43.81,43.81,0,0,0-.93,5.06c0,.29,0,.29-.1.6l0,0c1.2-1.15,3.74-2,6.23-2,3.49,0,5.8,1.72,5.8,4.35a5,5,0,0,1-2.12,4,8.93,8.93,0,0,1-5.43,1.4,19.17,19.17,0,0,1-5.24-.72,8.92,8.92,0,0,0-.31-2.65,16.86,16.86,0,0,0,5.53,1c2.9,0,4.92-1.21,4.92-3,0-1.37-1.3-2.2-3.48-2.2A9.34,9.34,0,0,0,266,12.09a4.29,4.29,0,0,0-.92.88l-2.59-.08c.06-.37.06-.45.16-1.24.17-1.27.5-3.55.87-6a8.57,8.57,0,0,0,.12-1.19Zm.27-4a30.8,30.8,0,0,0,7.66,2.28l-.84,2.36a37.33,37.33,0,0,1-8-2.57Z"/>
    <path class="cls-1" d="M288.29.78a5,5,0,0,0-.16.64c0,.27-.06.37-.12.7s-.07.43-.35,2c-.09.45-.09.49-.15.76.6,0,.89-.06,1.28-.06a4,4,0,0,1,3,1.09c.7.78,1,1.77,1,3.64,0,3.53-.6,6.35-1.59,7.48a2.59,2.59,0,0,1-2.28.92,10,10,0,0,1-3.16-.59c0-.41,0-.7,0-.91a7.42,7.42,0,0,0-.21-1.74,8.56,8.56,0,0,0,3,.8c.6,0,.93-.39,1.24-1.4a18.71,18.71,0,0,0,.53-4.69c0-1.89-.47-2.44-2.1-2.44-.41,0-.72,0-1.19.06a45.37,45.37,0,0,1-1.25,4.46,44.5,44.5,0,0,1-2.47,5.77l-.31.62c-.06.12-.06.14-.16.35L280.5,16.9A22.77,22.77,0,0,0,282.64,13a35.79,35.79,0,0,0,2-5.82c-1.05.13-3,.48-3.68.66l-.25-2.42c.76,0,3.25-.25,4.38-.41a31.34,31.34,0,0,0,.53-4.16V.49Zm6.81,2.63a20,20,0,0,1,4.23,8L297,12.62A18.62,18.62,0,0,0,295.34,8,13.22,13.22,0,0,0,293,4.44Z"/>
    <path class="cls-1" d="M304.71,4.62a46.46,46.46,0,0,0-.92,5.06c0,.29,0,.29-.1.6l0,0c1.19-1.15,3.74-2,6.23-2,3.49,0,5.79,1.72,5.79,4.35a5,5,0,0,1-2.12,4,8.9,8.9,0,0,1-5.42,1.4,19.08,19.08,0,0,1-5.24-.72,9.27,9.27,0,0,0-.31-2.65,16.77,16.77,0,0,0,5.53,1c2.9,0,4.91-1.21,4.91-3,0-1.37-1.29-2.2-3.47-2.2a9.34,9.34,0,0,0-5.12,1.51,4.55,4.55,0,0,0-.93.88L301,12.89c.07-.37.07-.45.17-1.24.16-1.27.49-3.55.86-6a10.53,10.53,0,0,0,.13-1.19Zm.27-4a30.88,30.88,0,0,0,7.67,2.28l-.84,2.36a37,37,0,0,1-8-2.57Z"/>
  </g>
</svg>
