<svg xmlns="http://www.w3.org/2000/svg" width="41.094" height="10.66" viewBox="0 0 41.094 10.66">
  <defs>
    <style>
      .cls-1 {
        fill: #fff;
        fill-rule: evenodd;
      }
    </style>
  </defs>
  <path id="btn-play.svg" class="cls-1" d="M412.286,5465.58v10.68h2.081v-3.96h1.345a3.668,3.668,0,0,0,2.7-.94,3.443,3.443,0,0,0,.88-2.39,3.4,3.4,0,0,0-1.088-2.57,3.821,3.821,0,0,0-2.817-.82h-3.106Zm2.081,1.79h0.721a2.538,2.538,0,0,1,1.472.34,1.461,1.461,0,0,1,.592,1.22,1.611,1.611,0,0,1-.576,1.25,2.159,2.159,0,0,1-1.36.33h-0.849v-3.14Zm8.7-1.79v10.68h5.379v-1.8h-3.3v-8.88H423.07Zm16.323,10.68h2.241l-4.466-10.68h-1.632l-4.594,10.68H433.2l0.944-2.24h4.306Zm-4.594-3.94,1.521-3.84,1.521,3.84H434.8Zm12.736,3.94h2.081v-4.88l3.762-5.8h-2.465l-2.289,3.71-2.289-3.71H443.87l3.665,5.8v4.88Z" transform="translate(-412.281 -5465.59)"/>
</svg>
