<svg id="レイヤー_2" data-name="レイヤー 2" xmlns="http://www.w3.org/2000/svg" viewBox="0 0 375.87 50.45"><defs><style>.cls-1{fill:#595757;}</style></defs><g id="ロゴ"><polygon class="cls-1" points="229 11.42 229 11.42 229 11.42 229 11.42"/><path class="cls-1" d="M561.33,109c-4.14-2.86-3.38-8,.89-10.19A9.35,9.35,0,0,1,566.1,98a9,9,0,0,1,7.12,3l1.29-4.21a24.62,24.62,0,0,0-8.7-1.64c-6.53,0-12.45,3.65-12.45,9.86,0,8.41,9.58,10.09,14.27,13.93,5.87,4.82,1.94,12.62-5.19,12.62a13.47,13.47,0,0,1-8.37-3.41L553,132.55a25.67,25.67,0,0,0,10.23,2.24c6.62,0,12.8-3.76,12.8-11.37C576,115.45,566.58,112.67,561.33,109Z" transform="translate(-245.39 -84.44)"/><path class="cls-1" d="M514.41,95.26c-11.59,0-17.75,9.1-17.75,19.73,0,11.59,6.79,19.89,17.73,19.89,10.69,0,18-7.4,18-19.89C532.38,103.43,525.76,95.26,514.41,95.26Zm0,36.77c-7.58,0-11.83-7.36-11.83-17.11s4.56-16.81,11.89-16.81c8.51,0,12,8.14,12,16.81C526.49,124.92,522.16,132,514.39,132Z" transform="translate(-245.39 -84.44)"/><path class="cls-1" d="M472.8,124.33c-3.42-3.59-9.72-10.48-9.72-10.48s5.56-6.19,8.66-9.41,8.8-8.54,8.8-8.54h0a22.68,22.68,0,0,1-3.07.18,23.43,23.43,0,0,1-3.07-.18s-5.17,5.79-8.32,8.94-8.83,9-8.87,9c0-12,.34-17.94.34-17.94a28.18,28.18,0,0,1-6.36,0s.34,6.3.34,19-.34,19-.34,19a28.18,28.18,0,0,1,6.36,0s-.34-6.33-.34-19v-1s6,6.24,9.37,10c3.26,3.63,8.75,10,8.75,10a29.45,29.45,0,0,1,3.42-.18,34.73,34.73,0,0,1,3.58.18S476.22,127.93,472.8,124.33Z" transform="translate(-245.39 -84.44)"/><path class="cls-1" d="M621.26,130.46s-4,.25-10.78.25c-1.62,0-3.14,0-4.43,0-.06-1.82-.12-4.48-.16-7.81,0-2,0-4.47,0-7.1h1.75c6.17,0,6.78,0,12.28.17a7.88,7.88,0,0,1-.14-1.6,11.28,11.28,0,0,1,.09-1.61c-5.49.17-6.1.16-12.27.16h-1.74c0-2.2.05-4.26.08-6,0-3.29.1-5.93.16-7.73,1.22,0,2.63,0,4.12,0,6.57,0,10.48.24,10.48.24a5.19,5.19,0,0,1-.14-1.45,14.86,14.86,0,0,1,.14-2s-3.91.22-10.48.22c-4.36,0-7.5-.1-9.1-.16l-1.24-.07h0v0c0,.43.33,6.7.33,18.94,0,12.68-.33,19-.33,19s3.87-.22,10.65-.22,10.77.22,10.78.22a15.78,15.78,0,0,1-.13-1.89A6.62,6.62,0,0,1,621.26,130.46Z" transform="translate(-245.39 -84.44)"/><path class="cls-1" d="M609.71,91.57a5.94,5.94,0,0,0-1-.57c-.62-.25-1.23-.44-1.23-.44a32.11,32.11,0,0,0,5.76-5,4,4,0,0,1,1.56-1,2.25,2.25,0,0,1,2.87,2.68,3.84,3.84,0,0,1-1.78,2.16A14.79,14.79,0,0,1,613,90.71a13.93,13.93,0,0,1-2.89.8Z" transform="translate(-245.39 -84.44)"/><path class="cls-1" d="M245.39,133.85v-.33q.33-6.6.33-19.19c0-3.47-.05-7.09-.14-10.84s-.15-6.18-.19-7.29v-.34h.33a9.13,9.13,0,0,0,1.19.11c.61,0,1.29.06,2,.06s1.21,0,1.74-.06a8.38,8.38,0,0,0,1.09-.11h.16V96a18,18,0,0,1,.94,2.27q6.66,16.14,12.26,28.4,4.32-9.54,12.76-30.67l.16-.17h.17a6,6,0,0,0,1,.11q.75.06,1.86.06c.66,0,1.23,0,1.72-.06a5.78,5.78,0,0,0,.94-.11h.22v19.47l-.05,9.43c0,3.8.05,6.73.16,8.76v.33h-.33a8.65,8.65,0,0,0-.86-.14,15.36,15.36,0,0,0-1.64-.08,13.52,13.52,0,0,0-1.63.11c-.58.08-.92.11-1,.11h-.16v-.33c0-.15,0-2.1.08-5.85s.08-7.9.08-12.45q0-1.83-.11-6.49l-.05-5.44q-.94,2.44-6.13,14.4l-7,16.16a3.9,3.9,0,0,0-.55-.14,5.15,5.15,0,0,0-.83-.08,4,4,0,0,0-.81.08,3.78,3.78,0,0,0-.47.14q-1.21-2.88-5.32-12.5t-8-18.06q-.17,2.67-.17,11.48c0,4.52,0,8.49.06,11.93s.07,5.71.11,6.82v.33h-.33l-.67-.14a6.63,6.63,0,0,0-1-.08,5.83,5.83,0,0,0-1,.08,3.8,3.8,0,0,0-.56.14Z" transform="translate(-245.39 -84.44)"/><path class="cls-1" d="M312.62,133.69a8.06,8.06,0,0,0-1.44-.12,7,7,0,0,0-1.3.12c-.43.07-.7.13-.81.16a9.58,9.58,0,0,1-.77-4.27,5.13,5.13,0,0,1-1.44,1.78,5.58,5.58,0,0,1-1.78,1.44,9.25,9.25,0,0,1-5,1.38,9.14,9.14,0,0,1-5.52-1.71A6.19,6.19,0,0,1,292,127.7c-.18-2.78.53-4.88,2.14-6.33s4.15-2.42,7.62-2.94c.37-.07,1.22-.2,2.55-.38,1.52-.23,2.56-.4,3.11-.53s.85-.3.89-.53a12.19,12.19,0,0,0,.11-1.83c0-2-.52-3.37-1.55-4.13a8.24,8.24,0,0,0-4.55-1.25,9.55,9.55,0,0,0-4.19,1.14,9.66,9.66,0,0,0-3.52,2.75l-.44-3.22a10.42,10.42,0,0,1,4.07-2.41,16,16,0,0,1,5.13-.81c3.25,0,5.68.76,7.27,2.28s2.38,3.82,2.38,6.93v1.11l-.28,8.15v1.77a31.09,31.09,0,0,0,.23,3.47,18.54,18.54,0,0,0,.49,2.91C313.34,133.82,313.07,133.76,312.62,133.69Zm-9.37-2.58a4.85,4.85,0,0,0,1.39-.64,6.58,6.58,0,0,0,2.52-2.47,8.17,8.17,0,0,0,1-3.22c.11-1.16.17-2.83.17-5-.19,0-.57,0-1.14.08a11,11,0,0,0-1.86.36,34.94,34.94,0,0,0-5,1.27,6,6,0,0,0-2.78,1.92,5.27,5.27,0,0,0-.88,3.41,4.69,4.69,0,0,0,1.58,3.3,5,5,0,0,0,3.41,1.25A6,6,0,0,0,303.25,131.11Z" transform="translate(-245.39 -84.44)"/><path class="cls-1" d="M328.23,96.31a2.77,2.77,0,0,1,.86,2,2.9,2.9,0,0,1-.83,2.2,3,3,0,0,1-2.16.8,3.19,3.19,0,0,1-2.08-.75,2.42,2.42,0,0,1-.92-2,3.32,3.32,0,0,1,.78-2.24,2.73,2.73,0,0,1,2.22-.92A2.85,2.85,0,0,1,328.23,96.31Zm-.36,24.4q0,7.32.34,13.14c-.15,0-.47-.08-.95-.14a14.41,14.41,0,0,0-1.49-.08,15.59,15.59,0,0,0-1.58.08c-.5.06-.83.11-1,.14q.43-8.65.44-13.14,0-6.93-.44-12.59v-.39a7.14,7.14,0,0,0,1,.14,13.14,13.14,0,0,0,1.58.08,12.07,12.07,0,0,0,1.49-.08,7.52,7.52,0,0,0,.95-.14v.39Q327.87,111.67,327.87,120.71Z" transform="translate(-245.39 -84.44)"/><path class="cls-1" d="M352.87,121.73a5.94,5.94,0,0,1,2,4.64,7.1,7.1,0,0,1-1.39,4.43,8.26,8.26,0,0,1-3.57,2.72,12.27,12.27,0,0,1-4.63.89,20.68,20.68,0,0,1-3.8-.39,16.82,16.82,0,0,1-3.63-1.06l-.39-.16,1.27-3.61c0,.08.3.37.89.89a9.92,9.92,0,0,0,2.25,1.44,6.67,6.67,0,0,0,3,.67,5.14,5.14,0,0,0,3.16-1,4.82,4.82,0,0,0,1.83-2.47,3.83,3.83,0,0,0,.28-1.33,4.66,4.66,0,0,0-1.89-3.55,12.31,12.31,0,0,0-3.55-1.66c-1.55-.81-2.76-1.5-3.63-2.05a8.11,8.11,0,0,1-2.27-2.22,6.13,6.13,0,0,1,.38-7.15,8.67,8.67,0,0,1,3.5-2.47,12,12,0,0,1,4.52-.86,16.33,16.33,0,0,1,3.05.28c1,.18,1.82.37,2.47.55a12.33,12.33,0,0,1,1.19.39l-1.39,3.71a3.58,3.58,0,0,0-.69-.85,7.2,7.2,0,0,0-1.83-1.39,5.27,5.27,0,0,0-2.64-.64,7.48,7.48,0,0,0-2.49.5,4.66,4.66,0,0,0-1.78,1.47,3.28,3.28,0,0,0-.72,2,2.42,2.42,0,0,0,.39,1.77,4.56,4.56,0,0,0,1.39,1.44,18.06,18.06,0,0,0,3.05,1.56A25.44,25.44,0,0,1,352.87,121.73Z" transform="translate(-245.39 -84.44)"/><path class="cls-1" d="M381.1,109.06a11.18,11.18,0,0,1,4.55,4.69,15,15,0,0,1,1.58,7.07,15.35,15.35,0,0,1-1.58,7.13,11.24,11.24,0,0,1-4.55,4.76,13.65,13.65,0,0,1-6.9,1.7,12.53,12.53,0,0,1-6.57-1.72,11.77,11.77,0,0,1-4.44-4.8,15.31,15.31,0,0,1-1.58-7.07,15.59,15.59,0,0,1,1.39-6.55,11.82,11.82,0,0,1,4.21-5,12.25,12.25,0,0,1,7-1.91A13.85,13.85,0,0,1,381.1,109.06Zm-1.05,20.08c1.42-2,2.14-4.81,2.14-8.32a15.23,15.23,0,0,0-1.92-7.9,6.32,6.32,0,0,0-5.85-3.25,6.57,6.57,0,0,0-5.63,3.08,13.9,13.9,0,0,0-2.13,8.07c0,3.51.68,6.29,2,8.32a6.33,6.33,0,0,0,5.49,3.05A6.76,6.76,0,0,0,380.05,129.14Z" transform="translate(-245.39 -84.44)"/><path class="cls-1" d="M417.63,130.19q.06,2.88.06,3.66c-.11,0-.39-.1-.83-.19a7.36,7.36,0,0,0-1.45-.14,9.65,9.65,0,0,0-1.58.14l-1,.19c0-1.07.1-3.23.19-6.49s.14-5.76.14-7.54a17.83,17.83,0,0,0-.22-3.55,7.43,7.43,0,0,0-.58-2.22,4.44,4.44,0,0,0-1.36-1.72,6.51,6.51,0,0,0-1.67-.85,5.31,5.31,0,0,0-1.88-.37,6.79,6.79,0,0,0-1.78.17q-6,1.27-6,11v11.53l-.91-.19a7.64,7.64,0,0,0-1.47-.14,8.3,8.3,0,0,0-1.47.14l-1,.19q.06-1.5.19-6c.1-3,.14-5.4.14-7.1,0-2.26-.07-5.6-.22-10-.07-1.4-.11-2.38-.11-2.94a7.43,7.43,0,0,0,1,.14,12.29,12.29,0,0,0,1.47.08,12.57,12.57,0,0,0,1.52-.08,7.69,7.69,0,0,0,1-.14v5.21a7.47,7.47,0,0,1,2.52-3.13,9.07,9.07,0,0,1,3.69-1.69,11.66,11.66,0,0,1,2.82-.33,11,11,0,0,1,4,.75,7.42,7.42,0,0,1,3.13,2.24,6.78,6.78,0,0,1,1.36,3.22,37,37,0,0,1,.25,4.77v4C417.58,125.81,417.59,128.27,417.63,130.19Z" transform="translate(-245.39 -84.44)"/></g></svg>