<?xml version="1.0" encoding="utf-8"?>
<!-- Generator: Adobe Illustrator 25.0.1, SVG Export Plug-In . SVG Version: 6.00 Build 0)  -->
<svg version="1.1" id="レイヤー_1" xmlns="http://www.w3.org/2000/svg" xmlns:xlink="http://www.w3.org/1999/xlink" x="0px"
	 y="0px" viewBox="0 0 35.4 35.4" style="enable-background:new 0 0 35.4 35.4;" xml:space="preserve">
<style type="text/css">
	.st0{fill:#1147B4;}
	.st1{fill:#FFFFFF;}
</style>
<g id="レイヤー_2_1_">
	<g id="Icons">
		<circle class="st0" cx="17.7" cy="17.7" r="17.7"/>
		<path class="st1" d="M22.9,9.4c-0.1-0.1-0.2-0.1-0.3-0.1h-9.7c-0.1,0-0.2,0.1-0.3,0.1c-0.1,0.1-0.1,0.2-0.1,0.4l1.6,13.8
			c0.1,0.9,0.6,1.7,1.4,2.1v2.2c0,0.2,0.2,0.4,0.4,0.4l0,0h3.5c0.2,0,0.4-0.2,0.4-0.4c0,0,0,0,0,0v-2.2c0.8-0.4,1.4-1.2,1.5-2.1
			L23,9.8C23,9.7,23,9.5,22.9,9.4z M22.1,10.2L21.9,11h-8.5l-0.1-0.9H22.1z M19,27.4h-2.6v-1.6H19V27.4z M20.5,23.4
			c-0.1,0.6-0.5,1.2-1.1,1.4H16c-0.6-0.2-1-0.8-1.1-1.4l-1.3-11.5h8.3L20.5,23.4z"/>
		<path class="st1" d="M19.9,14.3h-4.4c-0.2,0-0.4,0.2-0.4,0.4s0.2,0.4,0.4,0.4h4.4c0.2,0,0.4-0.2,0.4-0.4l0,0
			C20.3,14.5,20.1,14.3,19.9,14.3L19.9,14.3z"/>
		<path class="st1" d="M19,16h-2.6c-0.2,0-0.4,0.2-0.4,0.4l0,0c0,0.2,0.2,0.4,0.4,0.4l0,0H19c0.2,0,0.4-0.2,0.4-0.4c0,0,0,0,0,0
			C19.4,16.2,19.2,16,19,16C19,16,19,16,19,16z"/>
	</g>
</g>
</svg>
