<svg id="Layer_1" data-name="Layer 1" xmlns="http://www.w3.org/2000/svg" viewBox="0 0 28.2 28.1"><defs><style>.cls-1{fill:#1147b4;}</style></defs><path class="cls-1" d="M14,2.5c3.7,0,4.2,0,5.7.1a8.25,8.25,0,0,1,2.6.5,6.24,6.24,0,0,1,1.6,1,3.91,3.91,0,0,1,1,1.6,8.25,8.25,0,0,1,.5,2.6c.1,1.5.1,1.9.1,5.7s0,4.2-.1,5.7a8.25,8.25,0,0,1-.5,2.6,6.24,6.24,0,0,1-1,1.6,3.91,3.91,0,0,1-1.6,1,8.25,8.25,0,0,1-2.6.5c-1.5.1-1.9.1-5.7.1s-4.2,0-5.7-.1a8.25,8.25,0,0,1-2.6-.5,6.24,6.24,0,0,1-1.6-1,3.91,3.91,0,0,1-1-1.6,8.25,8.25,0,0,1-.5-2.6c-.1-1.5-.1-1.9-.1-5.7s0-4.2.1-5.7a8.25,8.25,0,0,1,.5-2.6,6.24,6.24,0,0,1,1-1.6,3.91,3.91,0,0,1,1.6-1,8.25,8.25,0,0,1,2.6-.5c1.5-.1,2-.1,5.7-.1M14,0C10.2,0,9.7,0,8.2.1A9.64,9.64,0,0,0,4.8.8,7.58,7.58,0,0,0,2.3,2.4,6.26,6.26,0,0,0,.7,4.9,12.56,12.56,0,0,0,0,8.3V14c0,3.8,0,4.3.1,5.8a9.64,9.64,0,0,0,.7,3.4,7.58,7.58,0,0,0,1.6,2.5,6.26,6.26,0,0,0,2.5,1.6,12.56,12.56,0,0,0,3.4.7c1.5.1,2,.1,5.8.1s4.3,0,5.8-.1a9.64,9.64,0,0,0,3.4-.7,7.58,7.58,0,0,0,2.5-1.6,6.26,6.26,0,0,0,1.6-2.5,12.56,12.56,0,0,0,.7-3.4c.1-1.5.1-2,.1-5.8s0-4.3-.1-5.8a9.64,9.64,0,0,0-.7-3.4,7.58,7.58,0,0,0-1.6-2.5A6.26,6.26,0,0,0,23.3.7,12.56,12.56,0,0,0,19.9,0Z"/><path class="cls-1" d="M14,6.8A7.2,7.2,0,1,0,21.2,14,7.17,7.17,0,0,0,14,6.8Zm0,11.9A4.7,4.7,0,1,1,18.7,14,4.69,4.69,0,0,1,14,18.7Z"/><circle class="cls-1" cx="21.5" cy="6.5" r="1.7"/></svg>
