<?xml version="1.0" encoding="utf-8"?>
<!-- Generator: Adobe Illustrator 25.0.1, SVG Export Plug-In . SVG Version: 6.00 Build 0)  -->
<svg version="1.1" id="レイヤー_1" xmlns="http://www.w3.org/2000/svg" xmlns:xlink="http://www.w3.org/1999/xlink" x="0px"
	 y="0px" viewBox="0 0 300 70" style="enable-background:new 0 0 300 70;" xml:space="preserve">
<style type="text/css">
	.st0{fill-rule:evenodd;clip-rule:evenodd;fill:#FFFFFF;}
</style>
<g>
	<g>
		<path id="icon-close.svg_1_" class="st0" d="M53.3,4.9c-5.4-3.4-11.7-5-18-4.8c-9-0.5-17.8,2.7-24.4,8.8C3.7,15.8-0.3,25.3,0,35.2
			c-0.3,9.7,3.7,19,10.8,25.5c6.4,6.1,15,9.4,23.9,9.3c6.5,0,12.9-1.8,18.5-5.1V52.7c-4.9,4.8-11.4,7.6-18.2,7.8
			c-13.5,0.2-24.5-10.5-24.7-24c0-0.4,0-0.9,0-1.3C9.5,22,19.5,10.5,32.8,9.6c0.7,0,1.4-0.1,2.1,0c6.8,0,13.4,2.7,18.3,7.5L53.3,4.9
			L53.3,4.9z M73.3,1.3v67.4h30.2V59H83.6V1.3L73.3,1.3L73.3,1.3z M151.2,0.1c-19.4,0.1-35,15.7-35,35.1S132.1,70,151.4,70
			c19.3-0.1,35-15.7,35-35c0.4-18.9-14.6-34.5-33.5-34.9C152.3,0.1,151.8,0.1,151.2,0.1L151.2,0.1z M151.2,60.5
			c-13.3,0.4-24.5-10.1-24.8-23.4c0-0.7,0-1.4,0-2C126,21.4,136.8,10,150.5,9.6c13.7-0.4,25.1,10.4,25.5,24c0,0.5,0,1,0,1.4
			c0.8,13.3-9.4,24.7-22.8,25.4C152.6,60.5,151.9,60.5,151.2,60.5L151.2,60.5z M243.2,11.4c-1.3-2.6-3-4.9-5.2-6.8
			c-3.8-3.1-8.6-4.8-13.6-4.5c-10-0.8-18.9,6.6-19.7,16.6c0,0.4-0.1,0.8-0.1,1.2c0.5,8,6,14.9,13.8,17.1l6.5,2.7
			c5.4,1.3,9.4,6,9.7,11.5c0.3,6-4.4,11-10.3,11.3c-0.3,0-0.5,0-0.8,0c-3.4,0.1-6.7-1.4-8.8-4c-1.8-2.5-2.8-5.5-2.8-8.6l-10.2,2.2
			c0.4,4.9,2.4,9.5,5.7,13.1c4,4.6,9.8,7.1,15.9,6.8c11.5,0.5,21.2-8.3,21.8-19.8c0-0.6,0-1.2,0-1.9c0-7.7-3.4-14.7-15.9-19.8
			l-6.8-2.7c-6.6-2.6-7.3-6.2-7.3-8.2c0.1-4.6,3.9-8.3,8.6-8.2c0.3,0,0.6,0,1,0.1c4.5-0.2,8.7,2.4,10.3,6.7L243.2,11.4z M300,1.3
			h-37.3v67.4H300V59h-27V37.8h26.2v-9.7H273V11H300L300,1.3L300,1.3z"/>
	</g>
</g>
</svg>
