<svg id="編集モード" xmlns="http://www.w3.org/2000/svg" viewBox="0 0 35.18 35.18"><defs><style>.cls-1{fill:#14479c;}.cls-2{fill:#fff;}</style></defs><circle class="cls-1" cx="17.59" cy="17.59" r="17.59"/><path class="cls-2" d="M27.1,20.5a1.31,1.31,0,0,1,1.32.53.9.9,0,0,1,0,1.11A5,5,0,0,1,26,23.79a18.66,18.66,0,0,1-5.44,1.27,18,18,0,0,1-5.76-.13c-1.2-.25-2.4-.45-3.57-.79A6.06,6.06,0,0,1,7.68,22a1,1,0,0,1,0-1.2c.27-.32.62-.64,1.13-.35-.61.77-.49,1.17.41,1.65A15.65,15.65,0,0,0,14,23.54a28.16,28.16,0,0,0,6.15.23,19.91,19.91,0,0,0,5.5-1.05,5.79,5.79,0,0,0,1.52-.79c.6-.44.56-.8,0-1.29A.61.61,0,0,1,27.1,20.5Z"/><path class="cls-2" d="M22.21,19.6a1.9,1.9,0,0,1-.56.34,15.69,15.69,0,0,1-6.33.16,6.18,6.18,0,0,1-.75-.13,7.28,7.28,0,0,1-.85-.42,8,8,0,0,0,3.21-3.39,18.36,18.36,0,0,0,.95-2.73.92.92,0,0,0-.33-.69,1,1,0,0,1-.22-1.33.84.84,0,0,1,1.36,0,.86.86,0,0,1-.16,1.3c-.45.18-.45.46-.4.86A7.32,7.32,0,0,0,20,17.84,18.45,18.45,0,0,0,22.21,19.6Z"/><path class="cls-2" d="M24.17,19a6.3,6.3,0,0,1,.69.33,1.31,1.31,0,0,1-.05,2.46,8.11,8.11,0,0,1-3.62,1c-2,.1-4,.09-6.06,0a8.51,8.51,0,0,1-3.88-1,1.34,1.34,0,0,1-.85-1.38A1.8,1.8,0,0,1,11.63,19c.07,0,.16,0,.32,0l-.27.32c-.46.59-.38,1,.35,1.26a12,12,0,0,0,2.92.71,62.44,62.44,0,0,0,6.27,0A11.88,11.88,0,0,0,24,20.66a.78.78,0,0,0,.33-1.28l-.22-.26Z"/><path class="cls-2" d="M18.05,9.61A1.2,1.2,0,0,1,16.81,8.4a1.21,1.21,0,0,1,2.42,0A1.13,1.13,0,0,1,18.05,9.61Z"/></svg>