<?xml version="1.0" encoding="utf-8"?>
<!-- Generator: Adobe Illustrator 25.0.1, SVG Export Plug-In . SVG Version: 6.00 Build 0)  -->
<svg version="1.1" id="レイヤー_1" xmlns="http://www.w3.org/2000/svg" xmlns:xlink="http://www.w3.org/1999/xlink" x="0px"
	 y="0px" viewBox="0 0 400 400" style="enable-background:new 0 0 400 400;" xml:space="preserve">
<style type="text/css">
	.st0{fill:#1147B4;}
</style>
<g>
	<path class="st0" d="M200,0C89.5,0,0,89.5,0,200s89.5,200,200,200s200-89.5,200-200S310.5,0,200,0z M295.5,259
		c-25.5,29.3-82.5,65-95.4,70.5s-11-3.5-10.5-6.6c0.3-1.8,1.7-10.4,1.7-10.4c0.3-3.2,0.8-7.9-0.4-11c-1.4-3.3-6.8-5.1-10.7-6
		c-58.4-7.8-101.6-48.5-101.6-97.2C78.6,144,133,99.8,200,99.8s121.4,44.1,121.4,98.5C321.4,220.1,313,239.7,295.5,259z"/>
	<path class="st0" d="M175.3,172.1h-8.5c-1.3,0-2.4,1-2.4,2.4v52.9c0,1.3,1,2.4,2.4,2.4h8.5c1.3,0,2.4-1,2.4-2.4v-52.9
		C177.7,173.2,176.7,172.1,175.3,172.1z"/>
	<path class="st0" d="M233.9,172.1h-8.5c-1.3,0-2.4,1-2.4,2.4v31.4l-24.3-32.7c-0.1-0.1-0.1-0.2-0.2-0.3s-0.1-0.1-0.2-0.2
		c0,0,0,0-0.1,0l-0.1-0.1c0,0,0,0-0.1-0.1l-0.1-0.1h0.1l-0.1-0.1h-0.1c-0.1,0-0.1,0-0.2-0.1h-0.1c-0.1,0-0.1,0-0.2-0.1h-0.1
		c-0.1,0-0.1,0-0.2,0h0h-0.1h-0.1h-0.1h-8.5c-1.3,0-2.4,1-2.4,2.4v52.9c0,1.3,1,2.4,2.4,2.4h8.5c1.3,0,2.4-1,2.4-2.4V196l24.3,32.8
		c0.2,0.3,0.3,0.4,0.6,0.6c0.1,0,0.1,0.1,0.2,0.1h0.1c0,0,0.1,0,0.1,0.1c0,0,0.1,0,0.1,0.1h0.1c0.1,0,0.1,0,0.2,0.1
		c0.2,0.1,0.4,0.1,0.6,0.1h8.5c1.3,0,2.4-1,2.4-2.4v-52.9C236.3,173.2,235.3,172.1,233.9,172.1z"/>
	<path class="st0" d="M154.8,216.4h-23.2v-42c0-1.3-1-2.4-2.4-2.4h-8.5c-1.3,0-2.4,1-2.4,2.4v52.9c0,0.6,0.3,1.2,0.7,1.6
		c0.4,0.4,1,0.7,1.6,0.7h34.2c1.3,0,2.4-1,2.4-2.4v-8.5C157.1,217.6,156.1,216.4,154.8,216.4z"/>
	<path class="st0" d="M280.9,172.1h-34c-0.6,0-1.2,0.3-1.6,0.7s-0.7,1-0.7,1.6v52.9c0,0.6,0.3,1.2,0.7,1.6s1,0.7,1.6,0.7h34
		c1.3,0,2.4-1,2.4-2.4v-8.5c0-1.3-1-2.4-2.4-2.4h-23.2v-8.9h23.2c1.3,0,2.4-1,2.4-2.4v-8.5c0-1.3-1-2.4-2.4-2.4h-23.2v-8.9h23.2v0.3
		c1.3,0,2.4-1,2.4-2.4v-8.5C283.3,173.2,282.3,172.1,280.9,172.1z"/>
</g>
</svg>
