<svg xmlns="http://www.w3.org/2000/svg" width="60.719" height="18.812" viewBox="0 0 60.719 18.812">
  <defs>
    <style>
      .cls-1 {
        fill: #fff;
        fill-rule: evenodd;
      }
    </style>
  </defs>
  <path id="lang-text-jp_sp.svg" class="cls-1" d="M118.1,843.909c0-3.549.042-4.641,0.042-4.767,0-.147-0.021-0.168-0.168-0.168-0.126,0-.84.042-2.919,0.042H108.82c-2.079,0-2.793-.042-2.919-0.042-0.147,0-.168.021-0.168,0.168,0,0.126.042,1.218,0.042,5.292v4.053c0,6.027-.042,7.077-0.042,7.2,0,0.147.021,0.168,0.168,0.168h1.029c0.126,0,.147-0.021.147-0.168v-1.323H116.8v1.281c0,0.147.021,0.168,0.168,0.168h1.008c0.147,0,.168-0.021.168-0.168,0-.105-0.042-1.155-0.042-7.161v-4.578Zm-1.3,9.261h-9.723v-6.09H116.8v6.09Zm0-7.266h-9.723v-5.691H116.8V845.9Zm23.373-2.583c2.016,0,2.709.042,2.814,0.042,0.147,0,.168-0.021.168-0.168V842.25c0-.147-0.021-0.168-0.168-0.168-0.1,0-.8.042-2.814,0.042h-5.481v-1.89a7.664,7.664,0,0,1,.1-1.764,1.894,1.894,0,0,0,.126-0.462,0.245,0.245,0,0,0-.252-0.168,14.341,14.341,0,0,0-1.449-.126,11.844,11.844,0,0,1,.147,2.541v1.869h-5.061c-1.995,0-2.688-.042-2.793-0.042-0.147,0-.168.021-0.168,0.168V843.2c0,0.147.021,0.168,0.168,0.168,0.105,0,.8-0.042,2.793-0.042h4.452a21.76,21.76,0,0,1-8.19,8.652,2.21,2.21,0,0,1,.63.756,0.366,0.366,0,0,0,.252.294,0.8,0.8,0,0,0,.336-0.168,22.8,22.8,0,0,0,7.665-8.694c0,2.541-.021,5.019-0.063,7.056h-1.3c-1.89,0-2.5-.042-2.6-0.042-0.147,0-.168.021-0.168,0.168v0.9c0,0.147.021,0.168,0.168,0.168,0.1,0,.714-0.042,2.6-0.042h1.281c-0.021,2.205-.063,3.717-0.063,3.969,0,0.147.021,0.168,0.168,0.168h1.113c0.147,0,.168-0.021.168-0.168,0-.252-0.042-1.785-0.084-3.969h1.491c1.89,0,2.5.042,2.625,0.042,0.147,0,.168-0.021.168-0.168v-0.9c0-.147-0.021-0.168-0.168-0.168-0.126,0-.735.042-2.625,0.042H134.65c-0.021-2.1-.042-4.662-0.042-7.266a22.409,22.409,0,0,0,8.169,8.82,0.792,0.792,0,0,0,.315.147,0.506,0.506,0,0,0,.252-0.315,3.471,3.471,0,0,1,.609-0.8,21.64,21.64,0,0,1-8.673-8.484h4.893Zm26.25,3.339c0-.147-0.021-0.168-0.168-0.168-0.1,0-.693.042-2.247,0.042v-2.583c0-1.071.042-1.449,0.042-1.554,0-.168-0.021-0.189-0.168-0.189-0.105,0-.672.042-2.31,0.042h-1.617c0.21-.84.42-1.7,0.588-2.583h2.478c1.953,0,2.6.042,2.709,0.042,0.147,0,.168-0.021.168-0.168V838.7c0-.147-0.021-0.168-0.168-0.168-0.1,0-.756.042-2.709,0.042h-4.515c-1.953,0-2.6-.042-2.709-0.042-0.147,0-.168.021-0.168,0.168v0.84c0,0.147.021,0.168,0.168,0.168,0.1,0,.756-0.042,2.709-0.042h0.8c-0.189.861-.378,1.743-0.609,2.583-1.617,0-2.142-.042-2.247-0.042-0.147,0-.168.021-0.168,0.189v0.8c0,0.147.021,0.168,0.168,0.168,0.084,0,.588-0.021,1.953-0.042-0.315,1.113-.672,2.2-1.05,3.213-1.554,0-2.142-.042-2.247-0.042-0.147,0-.168.021-0.168,0.168v0.84c0,0.147.021,0.168,0.168,0.168,0.126,0,.8-0.042,2.835-0.042h5.481c2.037,0,2.73.042,2.835,0.042,0.147,0,.168-0.021.168-0.168v-0.84Zm-3.633-.126h-4.137c0.357-1.029.693-2.121,1.008-3.213h3.129v3.213Zm2,4.956c0-1.134.042-1.617,0.042-1.743,0-.147-0.021-0.168-0.168-0.168-0.1,0-.693.042-2.436,0.042h-3.192c-1.743,0-2.331-.042-2.457-0.042-0.147,0-.168.021-0.168,0.168,0,0.126.042,0.609,0.042,1.974v1.365c0,2.709-.042,3.15-0.042,3.276,0,0.147.021,0.168,0.168,0.168h0.945c0.147,0,.168-0.021.168-0.168v-0.924h5.838V856.3c0,0.147.021,0.168,0.168,0.168h0.966c0.147,0,.168-0.021.168-0.168,0-.126-0.042-0.567-0.042-3.234V851.49Zm-1.26,2.856h-5.838v-3.654h5.838v3.654Zm-9.135-2.688c0-.966.042-1.407,0.042-1.491,0-.147-0.021-0.168-0.168-0.168-0.126,0-.525.042-1.869,0.042h-1.743c-1.323,0-1.743-.042-1.848-0.042-0.147,0-.168.021-0.168,0.168,0,0.105.042,0.546,0.042,1.827v1.281c0,2.562-.042,2.982-0.042,3.087,0,0.147.021,0.168,0.168,0.168h0.861c0.147,0,.168-0.021.168-0.168v-1.05h3.4v0.672c0,0.147.021,0.168,0.168,0.168h0.861c0.147,0,.168-0.021.168-0.168,0-.105-0.042-0.5-0.042-2.961v-1.365Zm-1.155,2.625h-3.4V851.07h3.4v3.213Zm1.785-12.642c0-.147-0.021-0.168-0.168-0.168-0.1,0-.609.042-2.205,0.042h-2.583c-1.6,0-2.1-.042-2.2-0.042-0.147,0-.168.021-0.168,0.168V842.5c0,0.168.021,0.189,0.168,0.189,0.1,0,.609-0.042,2.2-0.042h2.583c1.6,0,2.1.042,2.205,0.042,0.147,0,.168-0.021.168-0.189v-0.861Zm-0.5-2.877c0-.147-0.021-0.168-0.168-0.168-0.126,0-.5.042-1.848,0.042h-1.806c-1.344,0-1.743-.042-1.848-0.042-0.147,0-.168.021-0.168,0.168v0.84c0,0.147.021,0.168,0.168,0.168,0.1,0,.5-0.042,1.848-0.042H152.5c1.344,0,1.722.042,1.848,0.042,0.147,0,.168-0.021.168-0.168v-0.84Zm-0.294,8.568c0-.147-0.021-0.168-0.189-0.168-0.1,0-.441.042-1.722,0.042h-1.575c-1.281,0-1.638-.042-1.743-0.042-0.147,0-.168.021-0.168,0.168v0.819c0,0.147.021,0.168,0.168,0.168,0.105,0,.462-0.042,1.743-0.042h1.575c1.281,0,1.617.042,1.722,0.042,0.168,0,.189-0.021.189-0.168v-0.819Zm0-2.793c0-.147-0.021-0.168-0.189-0.168-0.1,0-.441.042-1.722,0.042h-1.575c-1.281,0-1.638-.042-1.743-0.042-0.147,0-.168.021-0.168,0.168v0.819c0,0.147.021,0.168,0.168,0.168,0.105,0,.462-0.042,1.743-0.042h1.575c1.281,0,1.617.042,1.722,0.042,0.168,0,.189-0.021.189-0.168v-0.819Z" transform="translate(-105.719 -837.719)"/>
</svg>
