<svg xmlns="http://www.w3.org/2000/svg" width="40.94" height="12.844" viewBox="0 0 40.94 12.844">
  <defs>
    <style>
      .cls-1 {
        fill: #1147b4;
        fill-rule: evenodd;
      }
    </style>
  </defs>
  <path id="lang-text-jp.svg" class="cls-1" d="M1285.53,91.922c0.14,0,.16-0.014.16-0.154V91.011h5.87V91.7c0,0.14.01,0.154,0.15,0.154h1.25c0.14,0,.15-0.014.15-0.154,0-.084-0.03-0.911-0.03-4.931v-3.11c0-2.3.03-3.152,0.03-3.236,0-.154-0.01-0.168-0.15-0.168-0.09,0-.58.028-1.94,0.028h-4.8c-1.36,0-1.84-.028-1.93-0.028-0.14,0-.16.014-0.16,0.168,0,0.084.03,0.939,0.03,3.656v2.7c0,4.063-.03,4.889-0.03,4.987,0,0.14.02,0.154,0.16,0.154h1.24Zm0.16-2.3v-3.39h5.87v3.39h-5.87Zm0-7.957h5.87v3.194h-5.87V81.667Zm16.36,1.821a13.056,13.056,0,0,1-5.11,5.113,3.183,3.183,0,0,1,.73.939,0.419,0.419,0,0,0,.26.308,0.734,0.734,0,0,0,.33-0.168,13.91,13.91,0,0,0,4.41-4.973c0,1.149-.01,2.438-0.04,3.628h-0.62c-1.23,0-1.64-.028-1.72-0.028-0.14,0-.16.014-0.16,0.154v1.065c0,0.14.02,0.154,0.16,0.154,0.08,0,.49-0.028,1.72-0.028h0.6c-0.02,1.191-.04,2.1-0.04,2.339,0,0.126.02,0.14,0.16,0.14h1.3c0.14,0,.15-0.014.15-0.14,0-.238-0.03-1.149-0.04-2.339h0.7c1.23,0,1.64.028,1.72,0.028,0.16,0,.17-0.014.17-0.154V88.461c0-.14-0.01-0.154-0.17-0.154-0.08,0-.49.028-1.72,0.028h-0.73c-0.01-1.247-.04-2.62-0.04-3.782a13.284,13.284,0,0,0,4.74,5.127,0.692,0.692,0,0,0,.29.154,0.473,0.473,0,0,0,.27-0.336,4.117,4.117,0,0,1,.68-1.009,12.745,12.745,0,0,1-5.34-5h2.9c1.28,0,1.73.028,1.81,0.028,0.14,0,.16-0.014.16-0.154V82.242c0-.14-0.02-0.154-0.16-0.154-0.08,0-.53.028-1.81,0.028h-3.48V81.135a4.892,4.892,0,0,1,.07-1.177,2.058,2.058,0,0,0,.08-0.364,0.194,0.194,0,0,0-.21-0.14c-0.49-.056-1.04-0.084-1.54-0.1a11.728,11.728,0,0,1,.1,1.821v0.939h-3.27c-1.27,0-1.71-.028-1.79-0.028-0.14,0-.15.014-0.15,0.154v1.121c0,0.14.01,0.154,0.15,0.154,0.08,0,.52-0.028,1.79-0.028h2.69Zm17.9-2.465c-0.07.434-.17,0.868-0.27,1.3-0.98,0-1.34-.028-1.41-0.028-0.14,0-.16.014-0.16,0.168v0.91c0,0.14.02,0.154,0.16,0.154,0.07,0,.36-0.014,1.1-0.028-0.15.546-.32,1.079-0.5,1.583-0.91,0-1.26-.028-1.33-0.028-0.14,0-.16.014-0.16,0.154v0.967c0,0.14.02,0.154,0.16,0.154,0.08,0,.53-0.028,1.85-0.028h3.68c1.3,0,1.77.028,1.85,0.028,0.13,0,.14-0.014.14-0.154V85.211c0-.14-0.01-0.154-0.14-0.154-0.07,0-.39.028-1.19,0.028V83.474c0-.658.03-0.939,0.03-1.009,0-.154-0.02-0.168-0.17-0.168-0.07,0-.46.028-1.57,0.028h-0.97q0.15-.63.27-1.3h1.53c1.26,0,1.69.028,1.78,0.028,0.14,0,.15-0.014.15-0.154V79.944c0-.154-0.01-0.168-0.15-0.168-0.09,0-.52.028-1.78,0.028h-3.13c-1.26,0-1.69-.028-1.76-0.028-0.14,0-.16.014-0.16,0.168V80.9c0,0.14.02,0.154,0.16,0.154,0.07,0,.5-0.028,1.76-0.028h0.23Zm2.41,2.479v1.583h-2.08c0.17-.518.33-1.051,0.48-1.583h1.6Zm-2.96,8.657c0.14,0,.15-0.014.15-0.168v-0.5h3.23V91.95c0,0.14.01,0.154,0.15,0.154h1.14c0.14,0,.15-0.014.15-0.154,0-.084-0.03-0.434-0.03-2.185V88.658c0-.756.03-1.121,0.03-1.219,0-.14-0.01-0.154-0.15-0.154-0.09,0-.5.028-1.67,0.028h-2.43c-1.17,0-1.56-.028-1.66-0.028-0.14,0-.16.014-0.16,0.154,0,0.1.03,0.462,0.03,1.4v0.953c0,1.779-.03,2.115-0.03,2.2,0,0.154.02,0.168,0.16,0.168h1.09Zm0.15-3.656h3.23V90.3h-3.23V88.5Zm-2.49.224c0-.658.03-0.995,0.03-1.079,0-.14-0.01-0.154-0.16-0.154-0.09,0-.37.028-1.28,0.028h-1.35c-0.9,0-1.19-.028-1.27-0.028-0.16,0-.17.014-0.17,0.154,0,0.1.03,0.434,0.03,1.317V89.9c0,1.695-.03,2.017-0.03,2.115,0,0.14.01,0.154,0.17,0.154h1.02c0.14,0,.15-0.014.15-0.154V91.375h1.56v0.378c0,0.14.01,0.154,0.15,0.154h1.02c0.15,0,.16-0.014.16-0.154,0-.084-0.03-0.392-0.03-2.017V88.728Zm-1.3-.042v1.541h-1.56V88.686h1.56Zm-1.84-6.906c-1.06,0-1.41-.028-1.5-0.028-0.12,0-.14.014-0.14,0.154V82.9c0,0.154.02,0.168,0.14,0.168,0.09,0,.44-0.028,1.5-0.028h1.88c1.06,0,1.42.028,1.5,0.028,0.14,0,.15-0.014.15-0.168V81.905c0-.14-0.01-0.154-0.15-0.154-0.08,0-.44.028-1.5,0.028h-1.88Zm0.42-1.919c-0.91,0-1.19-.028-1.27-0.028-0.14,0-.16.014-0.16,0.154v0.939c0,0.14.02,0.154,0.16,0.154,0.08,0,.36-0.028,1.27-0.028h1.35c0.91,0,1.17.028,1.26,0.028,0.15,0,.17-0.014.17-0.154V79.986c0-.14-0.02-0.154-0.17-0.154-0.09,0-.35.028-1.26,0.028h-1.35Zm0.05,5.771c-0.86,0-1.11-.028-1.2-0.028-0.14,0-.15.014-0.15,0.154v0.91c0,0.126.01,0.14,0.15,0.14,0.09,0,.34-0.028,1.2-0.028h1.19c0.85,0,1.09.028,1.17,0.028,0.16,0,.17-0.014.17-0.14v-0.91c0-.14-0.01-0.154-0.17-0.154-0.08,0-.32.028-1.17,0.028h-1.19Zm0-1.863c-0.86,0-1.11-.028-1.2-0.028-0.14,0-.15.014-0.15,0.154v0.9c0,0.14.01,0.154,0.15,0.154,0.09,0,.34-0.028,1.2-0.028h1.19c0.85,0,1.09.028,1.17,0.028,0.16,0,.17-0.014.17-0.154v-0.9c0-.14-0.01-0.154-0.17-0.154-0.08,0-.32.028-1.17,0.028h-1.19Z" transform="translate(-1284.12 -79.344)"/>
</svg>
