<svg id="text" xmlns="http://www.w3.org/2000/svg" viewBox="0 0 89.05 36.74"><defs><style>.cls-1{fill:#040000;}</style></defs><rect class="cls-1" y="21.67" width="89.05" height="0.76"/><path class="cls-1" d="M860.32,172.28a5.58,5.58,0,0,1-.73-.05c-2.57-.28-4.1-2.23-4.1-5.22a7.19,7.19,0,0,1,.47-2.41,4.33,4.33,0,0,1,3.09-2.66,6.12,6.12,0,0,1,1.4-.16,5.28,5.28,0,0,1,3.27,1l-.26.91h0a3.38,3.38,0,0,0-2.8-1.26,3.57,3.57,0,0,0-2.09.63,4.8,4.8,0,0,0-1.65,3.95c0,1.29.28,3.58,2.17,4.3a3.72,3.72,0,0,0,1.38.25,4.46,4.46,0,0,0,3-1.06h0c.08.37.18.77.21.92A6.12,6.12,0,0,1,860.32,172.28Z" transform="translate(-851.82 -135.63)"/><path class="cls-1" d="M877.53,172.32a6.87,6.87,0,0,1-2.66-.58l.25-1a3.55,3.55,0,0,0,2.2.86,2.21,2.21,0,0,0,2.14-1.41,1.91,1.91,0,0,0-.69-2.16,7.72,7.72,0,0,0-1.33-.82c-1.22-.65-2.48-1.32-2.48-2.9s1.64-2.6,3.27-2.6a6.64,6.64,0,0,1,2.25.41l-.29.93a2.54,2.54,0,0,0-1.88-.73,2.6,2.6,0,0,0-1.08.23,1.82,1.82,0,0,0-1,1.45,1.68,1.68,0,0,0,.77,1.46c.33.23.72.44,1.12.67,1.31.73,2.8,1.55,2.8,3.17C880.9,171.39,879.21,172.32,877.53,172.32Z" transform="translate(-851.82 -135.63)"/><path class="cls-1" d="M869.15,172.37c-2.78,0-4.64-2.14-4.64-5.32,0-2.63,1.43-5.28,4.64-5.28,2.86,0,4.71,2.08,4.71,5.28S872,172.37,869.15,172.37Zm0-10c-1.94,0-3.25,1.87-3.25,4.65s1.27,4.74,3.24,4.74,3.31-1.82,3.31-4.74C872.46,164.78,871.59,162.38,869.16,162.38Z" transform="translate(-851.82 -135.63)"/><path class="cls-1" d="M915.77,172.32c-2.77,0-4.64-2.14-4.64-5.33,0-2.62,1.44-5.27,4.65-5.27,2.86,0,4.7,2.07,4.7,5.27S918.63,172.32,915.77,172.32Zm0-10c-1.95,0-3.26,1.87-3.26,4.66s1.27,4.73,3.24,4.73,3.31-1.81,3.31-4.73C919.08,164.73,918.22,162.32,915.79,162.32Z" transform="translate(-851.82 -135.63)"/><path class="cls-1" d="M896.08,172.11c0-.4.08-2.11.08-5.08s-.06-4.67-.08-5.08l.24,0c.4,0,1.21,0,2.41,0,1.45,0,2.43,0,2.73-.06,0,.11,0,.27,0,.45a2.55,2.55,0,0,0,0,.31c-.31,0-1.28-.07-2.72-.07h-1.19v.08c0,.49,0,1.21,0,2.11v.39c0,.38,0,.8,0,1.25v.08h.9c1.29,0,1.57,0,2.87,0a3.33,3.33,0,0,0,0,.35,2.56,2.56,0,0,0,0,.34c-1.29,0-1.56,0-2.82,0h-.95v.09c0,.71,0,1.38,0,1.93,0,.91,0,1.63,0,2.13v.08h1.28c1.48,0,2.48,0,2.8-.06a2.33,2.33,0,0,0,0,.32,4.22,4.22,0,0,0,0,.43c-.34,0-1.37-.05-2.81-.05S896.37,172.1,896.08,172.11Z" transform="translate(-851.82 -135.63)"/><polygon class="cls-1" points="24.82 4.09 24.82 4.09 24.82 4.09 24.82 4.09"/><path class="cls-1" d="M904.66,144.44a2.06,2.06,0,0,1,.31-3.65,3.26,3.26,0,0,1,1.38-.29,3.17,3.17,0,0,1,2.52,1.07l.46-1.5a8.71,8.71,0,0,0-3.09-.59c-2.31,0-4.41,1.31-4.41,3.53,0,3,3.4,3.61,5.06,5,2.08,1.73.69,4.52-1.84,4.52a4.76,4.76,0,0,1-3-1.22l-.38,1.56a9,9,0,0,0,3.63.8c2.34,0,4.53-1.35,4.53-4.07S906.52,145.74,904.66,144.44Z" transform="translate(-851.82 -135.63)"/><path class="cls-1" d="M889.52,139.51c-4.11,0-6.29,3.25-6.29,7.06,0,4.14,2.41,7.12,6.28,7.12s6.38-2.66,6.38-7.12C895.89,142.43,893.54,139.51,889.52,139.51Zm0,13.15c-2.69,0-4.19-2.63-4.19-6.12s1.61-6,4.21-6c3,0,4.27,2.91,4.27,6C893.8,150.12,892.27,152.66,889.51,152.66Z" transform="translate(-851.82 -135.63)"/><path class="cls-1" d="M876.08,149.91c-1.21-1.29-3.45-3.75-3.45-3.75s2-2.22,3.07-3.37,3.12-3.06,3.12-3.06h0a7.32,7.32,0,0,1-1.09.07,7.66,7.66,0,0,1-1.09-.07s-1.83,2.08-2.95,3.2l-3.14,3.22c0-4.28.12-6.42.12-6.42a9.08,9.08,0,0,1-2.25,0s.12,2.26.12,6.8-.12,6.78-.12,6.79a9.08,9.08,0,0,1,2.25,0s-.12-2.27-.12-6.79v-.37s2.12,2.23,3.32,3.59,3.1,3.57,3.1,3.57a9.66,9.66,0,0,1,1.21-.07,11.17,11.17,0,0,1,1.27.07S877.29,151.19,876.08,149.91Z" transform="translate(-851.82 -135.63)"/><path class="cls-1" d="M924.41,152.1s-1.42.09-3.83.09H919c0-.65,0-1.61,0-2.8,0-.73,0-1.6,0-2.54h.61c2.2,0,2.41,0,4.36.06a2.88,2.88,0,0,1,0-.58c0-.26,0-.46,0-.57-1.94.06-2.16.06-4.34.06h-.62c0-.78,0-1.52,0-2.15,0-1.18,0-2.12,0-2.77h1.46c2.34,0,3.72.09,3.72.09a1.86,1.86,0,0,1-.05-.52,5.27,5.27,0,0,1,.05-.7s-1.38.08-3.72.08c-1.54,0-2.66,0-3.22-.06l-.44,0h0c0,.15.12,2.4.12,6.78,0,4.54-.12,6.79-.12,6.79s1.37-.08,3.77-.08,3.82.08,3.82.08a6.42,6.42,0,0,1,0-.68A2.24,2.24,0,0,1,924.41,152.1Z" transform="translate(-851.82 -135.63)"/><path class="cls-1" d="M920.31,138.18a2.58,2.58,0,0,0-.36-.2l-.44-.16a11.09,11.09,0,0,0,2-1.77,1.47,1.47,0,0,1,.55-.38.8.8,0,0,1,1,1,1.37,1.37,0,0,1-.63.77,5.2,5.2,0,0,1-1,.48,6.21,6.21,0,0,1-1,.29Z" transform="translate(-851.82 -135.63)"/><path class="cls-1" d="M903.72,172.1c.09-1.78.1-4.19.1-5.14,0-2.12,0-3.8-.1-5h0a3.62,3.62,0,0,0,.46,0h.86l.9,0c.34,0,.7,0,1,0,2.21,0,3.2,1.3,3.2,2.6s-1.22,2.95-3.9,2.95c-.3,0-.67,0-1.11,0h-.09v.09c0,1.08,0,3.12.09,4.53h0c-.15,0-.44,0-.75,0s-.58,0-.74,0Zm2.6-9.6c-.22,0-.61,0-1.05.05h-.07v.07c-.05.83-.07,1.47-.07,2v2.33h.07a4,4,0,0,0,.48,0c2,0,3.22-.88,3.22-2.36C908.89,163.31,907.9,162.5,906.32,162.5Z" transform="translate(-851.82 -135.63)"/><path class="cls-1" d="M932.92,172.09c.08-1.72.09-3.92.09-5.07V167c0-1.27,0-2.84,0-4.2v-.09h-.08c-1.23,0-2.24,0-3,.09h0a2,2,0,0,0,0-.41,2,2,0,0,0,0-.4h0c.43,0,2.11.05,3.75.05s3.33,0,3.75-.05h0a2,2,0,0,0,0,.4,2,2,0,0,0,0,.41h0c-.73,0-1.74-.08-3-.08h-.08v.09c0,.57,0,1.19,0,1.8s0,1.42,0,2V167c0,1.48,0,3.57.08,5.07h0c-.15,0-.44,0-.74,0s-.59,0-.74,0Z" transform="translate(-851.82 -135.63)"/><path class="cls-1" d="M893.46,172.1a6,6,0,0,0-.68,0h0c-.3,0-.73,0-.73,0,0-.51.07-3,.07-5,0-1.15,0-3.5,0-3.5s-1.78,4-3.7,8.48a1.38,1.38,0,0,0-.66,0c-1.87-4.47-3.72-8.5-3.72-8.5s0,2.47,0,3.42c0,2.48,0,5.08,0,5.08a2.82,2.82,0,0,0-.44,0,2.86,2.86,0,0,0-.45,0c.08-1.77.09-4.26.09-5.2,0-2.28-.06-4.94-.06-4.94s.45,0,.84,0a7.85,7.85,0,0,0,.79-.05s1.34,3.47,3.63,8.44h0s1.79-4,3.55-8.44a5.63,5.63,0,0,0,.76.05,6.78,6.78,0,0,0,.73,0c0,.46,0,2.62,0,5,0,1.22,0,3.06.08,5.09Z" transform="translate(-851.82 -135.63)"/><path class="cls-1" d="M927.12,167.49a1.79,1.79,0,0,0-1.33-.48c2.14-.3,2.91-1.51,2.91-2.52,0-1.17-.83-2.54-3.19-2.54l-1,0c-.28,0-.57,0-.88,0h-.4c-.28,0-.63,0-.89,0h0c.06,1.18.09,2.85.09,5,0,1.19,0,3.45-.09,5.14.14,0,.41,0,.73,0s.58,0,.72,0c-.06-1.37-.08-3.62-.08-4.85v-.07h.83a1.78,1.78,0,0,1,1.55.57c.54.62,1,1.78,1.73,4.35,0,0,.43,0,.82,0s.84,0,.84,0C928.16,169.49,927.92,168.19,927.12,167.49Zm-3.38-.85h-.13v-2c0-.5,0-1.14.08-2v-.07h.07c.46,0,.83-.05,1-.05,1.68,0,2.56.7,2.56,2,0,1.51-.93,2.13-3.2,2.13Z" transform="translate(-851.82 -135.63)"/></svg>