<svg id="name-in_sp.svg" xmlns="http://www.w3.org/2000/svg" width="146.687" height="37" viewBox="0 0 146.687 37">
  <defs>
    <style>
      .cls-1 {
        fill-rule: evenodd;
      }
    </style>
  </defs>
  <path id="SUNCUT" class="cls-1" d="M404.97,13743.2c2.088,0,3.551-1.1,3.551-3h0c0-1.7-1.08-2.4-3.181-2.9-1.918-.5-2.372-0.8-2.372-1.6h0c0-.7.6-1.2,1.619-1.2a4.281,4.281,0,0,1,2.7,1l0.937-1.3a5.6,5.6,0,0,0-3.607-1.3c-1.974,0-3.394,1.2-3.394,2.9h0c0,1.9,1.193,2.5,3.309,3,1.846,0.4,2.244.8,2.244,1.5v0.1c0,0.7-.682,1.2-1.761,1.2a4.287,4.287,0,0,1-3.138-1.3l-1.051,1.3A5.97,5.97,0,0,0,404.97,13743.2Zm9.683,0c2.6,0,4.274-1.5,4.274-4.5v-5.6H417.18v5.7c0,1.8-.951,2.8-2.5,2.8s-2.514-1-2.514-2.9v-5.6h-1.746v5.7C410.421,13741.7,412.068,13743.2,414.653,13743.2Zm6.67-.2h1.719v-7.1l5.481,7.1h1.463v-9.9h-1.718v6.9l-5.326-6.9h-1.619v9.9Zm15.831,0.2a5.092,5.092,0,0,0,4.033-1.8l-1.122-1.1a3.887,3.887,0,0,1-2.855,1.3,3.358,3.358,0,0,1-3.28-3.5v-0.1a3.367,3.367,0,0,1,3.28-3.5,4.082,4.082,0,0,1,2.784,1.2l1.122-1.2a4.9,4.9,0,0,0-3.891-1.6,5.036,5.036,0,0,0-5.127,5.2h0A5.022,5.022,0,0,0,437.154,13743.2Zm9.937,0c2.6,0,4.274-1.5,4.274-4.5v-5.6h-1.746v5.7c0,1.8-.952,2.8-2.5,2.8s-2.513-1-2.513-2.9v-5.6h-1.747v5.7C442.859,13741.7,444.506,13743.2,447.091,13743.2Zm9.113-.2h1.761v-8.3h3.153v-1.6h-8.067v1.6H456.2v8.3Z" transform="translate(-400.219 -13732.9)"/>
  <path id="Official_Instagram_" data-name="Official Instagram " class="cls-1" d="M406.505,13767.3a6.146,6.146,0,0,0,6.323-6.2v-0.1a6.116,6.116,0,0,0-6.289-6.2,6.228,6.228,0,0,0-6.323,6.3h0A6.116,6.116,0,0,0,406.505,13767.3Zm0.034-2a4.082,4.082,0,0,1-4.1-4.2v-0.1a4.054,4.054,0,0,1,4.067-4.2,4.107,4.107,0,0,1,4.1,4.3h0A4.053,4.053,0,0,1,406.539,13765.3Zm15.221,1.8h2.085v-7.3h2.378v-1.7H423.81v-0.5a1.139,1.139,0,0,1,1.207-1.4,4.941,4.941,0,0,1,1.223.2v-1.8a7.369,7.369,0,0,0-1.689-.2,2.676,2.676,0,0,0-2.05.7,3.259,3.259,0,0,0-.741,2.3v0.6h-1.154v1.8h1.154v7.3Zm-6.479,0h2.085v-7.3h2.378v-1.7h-2.412v-0.5a1.138,1.138,0,0,1,1.206-1.4,4.925,4.925,0,0,1,1.223.2v-1.8a7.366,7.366,0,0,0-1.688-.2,2.68,2.68,0,0,0-2.051.7,3.264,3.264,0,0,0-.741,2.3v0.6h-1.154v1.8h1.154v7.3Zm12.613,0h2.085v-9.1h-2.085v9.1Zm-0.086-10.5h2.24v-2h-2.24v2Zm8.761,10.7a4.6,4.6,0,0,0,3.722-1.7l-1.258-1.2a3.441,3.441,0,0,1-2.361,1.1,2.754,2.754,0,0,1-2.722-2.9v-0.1a2.74,2.74,0,0,1,2.636-2.9,3.027,3.027,0,0,1,2.344,1.2l1.309-1.4a4.406,4.406,0,0,0-3.636-1.6,4.724,4.724,0,0,0-4.738,4.8h0A4.632,4.632,0,0,0,436.569,13767.3Zm5.329-10.7h2.24v-2H441.9v2Zm0.086,10.5h2.085v-9.1h-2.085v9.1Zm7.084,0.2a3.81,3.81,0,0,0,2.963-1.3v1.1h2.033v-5.4a3.656,3.656,0,0,0-.982-2.8,3.9,3.9,0,0,0-3.015-1,8.52,8.52,0,0,0-3.429.7l0.551,1.7a5.576,5.576,0,0,1,2.6-.6c1.465,0,2.257.7,2.257,2v0.2a8.267,8.267,0,0,0-2.446-.4c-2.223,0-3.757,1-3.757,2.9v0.1C445.845,13766.3,447.362,13767.3,449.068,13767.3Zm0.585-1.5a1.528,1.528,0,0,1-1.774-1.4h0c0-1,.792-1.6,2.136-1.6a5.87,5.87,0,0,1,2.068.4v0.6A2.163,2.163,0,0,1,449.653,13765.8Zm6.69,1.3h2.085v-12.6h-2.085v12.6Zm9.653,0h2.12V13755H466v12.1Zm4.758,0h2.085v-5.1a2.016,2.016,0,0,1,2.05-2.3c1.241,0,1.947.8,1.947,2.2v5.2h2.085v-5.8c0-2.1-1.189-3.5-3.239-3.5a3.194,3.194,0,0,0-2.843,1.6v-1.4h-2.085v9.1Zm13.462,0.2c1.895,0,3.377-1,3.377-2.9h0c0-1.7-1.5-2.3-2.826-2.7-1.068-.3-2.05-0.6-2.05-1.3h0a1.071,1.071,0,0,1,1.275-.9,4.753,4.753,0,0,1,2.567.9l0.827-1.5a5.879,5.879,0,0,0-3.343-1.1c-1.809,0-3.239,1.1-3.239,2.8v0.1c0,1.7,1.5,2.2,2.843,2.6,1.068,0.4,2.033.6,2.033,1.3h0c0,0.6-.517,1-1.413,1a5.413,5.413,0,0,1-2.981-1.1l-0.93,1.4A6.413,6.413,0,0,0,484.216,13767.3Zm8.05,0a3.538,3.538,0,0,0,1.878-.5v-1.7a2.881,2.881,0,0,1-1.292.3,0.97,0.97,0,0,1-1.12-1.1v-4.5h2.446v-1.8h-2.446v-2.5h-2.085v2.5h-1.154v1.8h1.154v4.8C489.647,13766.6,490.732,13767.3,492.266,13767.3Zm6.309,0a3.811,3.811,0,0,0,2.964-1.3v1.1h2.033v-5.4a3.656,3.656,0,0,0-.982-2.8,3.9,3.9,0,0,0-3.015-1,8.516,8.516,0,0,0-3.429.7l0.551,1.7a5.573,5.573,0,0,1,2.6-.6c1.465,0,2.257.7,2.257,2v0.2a8.268,8.268,0,0,0-2.447-.4c-2.222,0-3.756,1-3.756,2.9v0.1C495.353,13766.3,496.87,13767.3,498.575,13767.3Zm0.586-1.5a1.529,1.529,0,0,1-1.775-1.4h0c0-1,.793-1.6,2.137-1.6a5.875,5.875,0,0,1,2.068.4v0.6A2.163,2.163,0,0,1,499.161,13765.8Zm10.618,4.1a5.234,5.234,0,0,0,3.739-1.2,4.8,4.8,0,0,0,1.155-3.5v-7.2h-2.085v1.4a3.812,3.812,0,0,0-3.188-1.6,4.119,4.119,0,0,0-4.135,4.3h0a4.109,4.109,0,0,0,4.135,4.3,3.791,3.791,0,0,0,3.205-1.7v0.7a2.561,2.561,0,0,1-2.877,2.8,5.284,5.284,0,0,1-3.24-1l-0.775,1.6A7.909,7.909,0,0,0,509.779,13769.9Zm0.173-5.3a2.469,2.469,0,0,1-2.585-2.5h0a2.459,2.459,0,0,1,2.585-2.5,2.531,2.531,0,0,1,2.67,2.5h0A2.531,2.531,0,0,1,509.952,13764.6Zm7,2.5h2.085v-3.5c0-2.4,1.275-3.6,3.1-3.6h0.12v-2.2a3.244,3.244,0,0,0-3.222,2.2v-2h-2.085v9.1Zm8.963,0.2a3.812,3.812,0,0,0,2.964-1.3v1.1h2.033v-5.4a3.656,3.656,0,0,0-.982-2.8,3.9,3.9,0,0,0-3.016-1,8.515,8.515,0,0,0-3.428.7l0.551,1.7a5.573,5.573,0,0,1,2.6-.6c1.464,0,2.257.7,2.257,2v0.2a8.274,8.274,0,0,0-2.447-.4c-2.222,0-3.756,1-3.756,2.9v0.1C522.693,13766.3,524.209,13767.3,525.915,13767.3Zm0.586-1.5a1.529,1.529,0,0,1-1.775-1.4h0c0-1,.793-1.6,2.137-1.6a5.864,5.864,0,0,1,2.067.4v0.6A2.162,2.162,0,0,1,526.5,13765.8Zm6.569,1.3h2.085v-5.1a2.023,2.023,0,0,1,1.947-2.3c1.154,0,1.844.8,1.844,2.2v5.2h2.084v-5.1c0-1.5.81-2.3,1.947-2.3,1.172,0,1.844.8,1.844,2.2v5.2h2.085v-5.8c0-2.2-1.206-3.5-3.188-3.5a3.576,3.576,0,0,0-3.067,1.6,2.828,2.828,0,0,0-2.722-1.6,3.306,3.306,0,0,0-2.774,1.6v-1.4H533.07v9.1Z" transform="translate(-400.219 -13732.9)"/>
</svg>
