<svg id="name-fb_.svg" data-name="name-fb .svg" xmlns="http://www.w3.org/2000/svg" width="141.688" height="34.69" viewBox="0 0 141.688 34.69">
  <defs>
    <style>
      .cls-1 {
        fill-rule: evenodd;
      }
    </style>
  </defs>
  <path id="KOSE_COSMEPORT" data-name="KOSE COSMEPORT" class="cls-1" d="M478.682,9285.81h1.723v-2.84l1.526-1.57,3.347,4.41h2.1l-4.271-5.58,4.089-4.22h-2.129l-4.663,4.93v-4.93h-1.723v9.8Zm14.086,0.17a5.023,5.023,0,0,0,5.14-5.07v-0.03a5.127,5.127,0,0,0-10.252.03v0.03A4.974,4.974,0,0,0,492.768,9285.98Zm0.028-1.6a3.341,3.341,0,0,1-3.333-3.47v-0.03a3.315,3.315,0,0,1,3.3-3.46,3.364,3.364,0,0,1,3.333,3.49v0.03A3.3,3.3,0,0,1,492.8,9284.38Zm10.555,1.57c2.059,0,3.5-1.09,3.5-2.92V9283c0-1.63-1.065-2.37-3.137-2.87-1.891-.45-2.339-0.79-2.339-1.54v-0.03a1.348,1.348,0,0,1,1.6-1.16,4.491,4.491,0,0,1,2.661,1l0.924-1.3a5.421,5.421,0,0,0-3.557-1.23c-1.946,0-3.347,1.16-3.347,2.84v0.03c0,1.81,1.177,2.42,3.263,2.93,1.821,0.42,2.213.8,2.213,1.5v0.02c0,0.73-.672,1.24-1.737,1.24a4.559,4.559,0,0,1-3.095-1.28l-1.036,1.23A5.994,5.994,0,0,0,503.351,9285.95Zm5.529-.14h7.339v-1.54H510.6v-2.63h4.915v-1.54H510.6v-2.55h5.546v-1.54H508.88v9.8Zm18.132,0.17a5.042,5.042,0,0,0,3.977-1.74l-1.106-1.12a3.81,3.81,0,0,1-2.815,1.26,3.3,3.3,0,0,1-3.236-3.47v-0.03a3.3,3.3,0,0,1,3.236-3.46,3.9,3.9,0,0,1,2.745,1.22l1.106-1.27a5.1,5.1,0,0,0-3.837-1.53,4.959,4.959,0,0,0-5.056,5.07v0.03A4.932,4.932,0,0,0,527.012,9285.98Zm10.178,0a5.022,5.022,0,0,0,5.139-5.07v-0.03a5.126,5.126,0,0,0-10.251.03v0.03A4.974,4.974,0,0,0,537.19,9285.98Zm0.028-1.6a3.341,3.341,0,0,1-3.333-3.47v-0.03a3.315,3.315,0,0,1,3.305-3.46,3.364,3.364,0,0,1,3.333,3.49v0.03A3.3,3.3,0,0,1,537.218,9284.38Zm10.555,1.57c2.059,0,3.5-1.09,3.5-2.92V9283c0-1.63-1.064-2.37-3.137-2.87-1.89-.45-2.338-0.79-2.338-1.54v-0.03a1.348,1.348,0,0,1,1.6-1.16,4.493,4.493,0,0,1,2.661,1l0.924-1.3a5.421,5.421,0,0,0-3.557-1.23c-1.947,0-3.347,1.16-3.347,2.84v0.03c0,1.81,1.176,2.42,3.263,2.93,1.821,0.42,2.213.8,2.213,1.5v0.02c0,0.73-.672,1.24-1.737,1.24a4.559,4.559,0,0,1-3.1-1.28l-1.036,1.23A5.994,5.994,0,0,0,547.773,9285.95Zm5.529-.14H555v-7l3.067,4.59h0.056l3.1-4.62v7.03h1.722v-9.8H561.1l-2.983,4.64-2.983-4.64H553.3v9.8Zm12.152,0h7.338v-1.54h-5.615v-2.63h4.915v-1.54h-4.915v-2.55h5.545v-1.54h-7.268v9.8Zm9.38,0h1.723v-3.15H578.5c2.157,0,3.922-1.15,3.922-3.34v-0.03c0-1.98-1.429-3.28-3.726-3.28h-3.865v9.8Zm1.723-4.7v-3.53h2c1.289,0,2.115.6,2.115,1.75v0.03a1.847,1.847,0,0,1-2.115,1.75h-2Zm12.307,4.87a5.022,5.022,0,0,0,5.139-5.07v-0.03a5.126,5.126,0,0,0-10.251.03v0.03A4.974,4.974,0,0,0,588.864,9285.98Zm0.028-1.6a3.342,3.342,0,0,1-3.334-3.47v-0.03a3.316,3.316,0,0,1,3.306-3.46,3.364,3.364,0,0,1,3.333,3.49v0.03A3.3,3.3,0,0,1,588.892,9284.38Zm7.194,1.43h1.722v-3.41h2.157l2.409,3.41h2.045l-2.647-3.71a2.944,2.944,0,0,0,2.325-2.97v-0.03a2.957,2.957,0,0,0-.813-2.11,3.932,3.932,0,0,0-2.829-.98h-4.369v9.8Zm1.722-4.94v-3.29h2.507c1.275,0,2.031.57,2.031,1.62v0.03c0,1-.784,1.64-2.017,1.64h-2.521Zm10.767,4.94h1.736v-8.2h3.109v-1.6h-7.954v1.6h3.109v8.2Z" transform="translate(-476.406 -9275.84)"/>
  <path id="Official_Facebook" data-name="Official Facebook" class="cls-1" d="M482.418,9310.54a6.013,6.013,0,0,0,6.055-6.16v-0.04a5.952,5.952,0,0,0-6.022-6.12,6.013,6.013,0,0,0-6.056,6.16v0.03A5.961,5.961,0,0,0,482.418,9310.54Zm0.033-1.94a4.014,4.014,0,0,1-3.927-4.22v-0.04a3.971,3.971,0,0,1,3.894-4.2,4.027,4.027,0,0,1,3.927,4.24v0.03A3.957,3.957,0,0,1,482.451,9308.6Zm14.561,1.73h2v-7.21h2.277v-1.7h-2.31v-0.5a1.116,1.116,0,0,1,1.155-1.36,3.335,3.335,0,0,1,1.172.23v-1.74a5.077,5.077,0,0,0-1.617-.24,2.582,2.582,0,0,0-1.964.72,3.075,3.075,0,0,0-.709,2.21v0.66h-1.106v1.72h1.106v7.21Zm-6.2,0h2v-7.21h2.277v-1.7h-2.31v-0.5a1.116,1.116,0,0,1,1.155-1.36,3.335,3.335,0,0,1,1.172.23v-1.74a5.077,5.077,0,0,0-1.617-.24,2.582,2.582,0,0,0-1.964.72,3.075,3.075,0,0,0-.709,2.21v0.66H489.7v1.72h1.106v7.21Zm12.647-10.36H505.6v-1.95h-2.145v1.95Zm0.083,10.36h2v-8.98h-2v8.98Zm9.286,0.21a4.353,4.353,0,0,0,3.564-1.69l-1.205-1.22a3.02,3.02,0,0,1-2.26,1.1,2.679,2.679,0,0,1-2.607-2.87v-0.04a2.673,2.673,0,0,1,2.524-2.85,2.9,2.9,0,0,1,2.244,1.12l1.254-1.38a4.34,4.34,0,0,0-3.481-1.55,4.575,4.575,0,0,0-4.538,4.7v0.03A4.525,4.525,0,0,0,512.824,9310.54Zm5.093-10.57h2.145v-1.95h-2.145v1.95ZM518,9310.33h2v-8.98h-2v8.98Zm6.779,0.19a3.5,3.5,0,0,0,2.838-1.31v1.12h1.947v-5.32a3.812,3.812,0,0,0-.94-2.78,3.859,3.859,0,0,0-2.888-1,7.276,7.276,0,0,0-3.283.73l0.528,1.62a5.915,5.915,0,0,1,2.491-.56c1.4,0,2.162.68,2.162,1.95v0.22a7.121,7.121,0,0,0-2.343-.37c-2.129,0-3.6.95-3.6,2.89v0.04A2.813,2.813,0,0,0,524.778,9310.52Zm0.561-1.5a1.471,1.471,0,0,1-1.7-1.36v-0.03c0-.94.759-1.5,2.046-1.5a5.267,5.267,0,0,1,1.98.36v0.61A2.08,2.08,0,0,1,525.339,9309.02Zm6.4,1.31h2v-12.42h-2v12.42Zm8.789,0h2.03v-4.85h5.824v-1.9h-5.824v-3.25h6.567v-1.91h-8.6v11.91Zm12.353,0.19a3.5,3.5,0,0,0,2.838-1.31v1.12h1.947v-5.32a3.808,3.808,0,0,0-.941-2.78,3.857,3.857,0,0,0-2.887-1,7.28,7.28,0,0,0-3.284.73l0.528,1.62a5.916,5.916,0,0,1,2.492-.56c1.4,0,2.161.68,2.161,1.95v0.22a7.112,7.112,0,0,0-2.343-.37c-2.128,0-3.6.95-3.6,2.89v0.04A2.814,2.814,0,0,0,552.877,9310.52Zm0.561-1.5a1.472,1.472,0,0,1-1.7-1.36v-0.03c0-.94.759-1.5,2.046-1.5a5.263,5.263,0,0,1,1.98.36v0.61A2.079,2.079,0,0,1,553.438,9309.02Zm10.306,1.52a4.352,4.352,0,0,0,3.564-1.69l-1.2-1.22a3.02,3.02,0,0,1-2.261,1.1,2.679,2.679,0,0,1-2.607-2.87v-0.04a2.673,2.673,0,0,1,2.525-2.85,2.9,2.9,0,0,1,2.244,1.12l1.254-1.38a4.341,4.341,0,0,0-3.482-1.55,4.574,4.574,0,0,0-4.537,4.7v0.03A4.525,4.525,0,0,0,563.744,9310.54Zm8.806,0a4.362,4.362,0,0,0,3.564-1.69l-1.172-1.07a3.111,3.111,0,0,1-2.359,1.07,2.46,2.46,0,0,1-2.508-2.28h6.4c0.016-.2.033-0.39,0.033-0.58,0-2.58-1.4-4.83-4.175-4.83a4.4,4.4,0,0,0-4.257,4.68v0.03A4.42,4.42,0,0,0,572.55,9310.54Zm-2.492-5.33a2.394,2.394,0,0,1,2.261-2.36,2.294,2.294,0,0,1,2.211,2.36h-4.472Zm13.1,5.31c2.063,0,4.043-1.69,4.043-4.66v-0.04c0-2.99-2-4.66-4.043-4.66a3.462,3.462,0,0,0-2.97,1.69v-4.94h-2v12.42h2v-1.39A3.538,3.538,0,0,0,583.153,9310.52Zm-0.478-1.79a2.669,2.669,0,0,1-2.541-2.87v-0.04a2.675,2.675,0,0,1,2.541-2.87,2.627,2.627,0,0,1,2.491,2.87v0.04A2.594,2.594,0,0,1,582.675,9308.73Zm10.388,1.81a4.627,4.627,0,0,0,4.67-4.68v-0.04a4.645,4.645,0,1,0-9.29.04v0.03A4.581,4.581,0,0,0,593.063,9310.54Zm0.033-1.81a2.731,2.731,0,0,1-2.656-2.87v-0.04a2.657,2.657,0,0,1,2.623-2.85,2.739,2.739,0,0,1,2.673,2.89v0.03A2.658,2.658,0,0,1,593.1,9308.73Zm10.471,1.81a4.627,4.627,0,0,0,4.67-4.68v-0.04a4.645,4.645,0,1,0-9.29.04v0.03A4.581,4.581,0,0,0,603.567,9310.54Zm0.033-1.81a2.731,2.731,0,0,1-2.656-2.87v-0.04a2.657,2.657,0,0,1,2.623-2.85,2.739,2.739,0,0,1,2.673,2.89v0.03A2.658,2.658,0,0,1,603.6,9308.73Zm6.33,1.6h2v-2.57l1.238-1.32,2.574,3.89h2.343l-3.581-5.32,3.465-3.66H615.54l-3.614,3.98v-7.42h-2v12.42Z" transform="translate(-476.406 -9275.84)"/>
</svg>
