<svg id="name-yt_sp.svg" xmlns="http://www.w3.org/2000/svg" width="174.656" height="34.4" viewBox="0 0 174.656 34.4">
  <defs>
    <style>
      .cls-1 {
        fill-rule: evenodd;
      }
    </style>
  </defs>
  <path id="KOSE_COSMEPORT" data-name="KOSE COSMEPORT" class="cls-1" d="M397.648,13644.4H399.4v-2.9l1.547-1.6,3.395,4.5h2.13l-4.332-5.7,4.147-4.3h-2.159l-4.728,5v-5h-1.747v10Zm14.283,0.1a5.059,5.059,0,0,0,5.212-5.1h0a5.2,5.2,0,1,0-10.395,0h0A5.034,5.034,0,0,0,411.931,13644.5Zm0.028-1.6a3.394,3.394,0,0,1-3.379-3.5h0a3.373,3.373,0,1,1,6.731,0h0A3.371,3.371,0,0,1,411.959,13642.9Zm10.7,1.6c2.088,0,3.55-1.1,3.55-3h0c0-1.6-1.079-2.4-3.181-2.9-1.917-.5-2.371-0.8-2.371-1.6h0c0-.7.6-1.2,1.619-1.2a4.958,4.958,0,0,1,2.7,1l0.937-1.3a5.525,5.525,0,0,0-3.607-1.2c-1.974,0-3.394,1.1-3.394,2.8v0.1c0,1.8,1.193,2.4,3.309,3,1.846,0.4,2.244.8,2.244,1.5h0a1.53,1.53,0,0,1-1.761,1.3,4.725,4.725,0,0,1-3.139-1.3l-1.051,1.2A5.972,5.972,0,0,0,422.663,13644.5Zm5.606-.1h7.442v-1.6h-5.695v-2.7H435v-1.5h-4.985v-2.6h5.624v-1.6h-7.371v10Zm18.386,0.1a5.024,5.024,0,0,0,4.033-1.7l-1.122-1.2a3.886,3.886,0,0,1-2.854,1.3,3.358,3.358,0,0,1-3.281-3.5h0a3.4,3.4,0,0,1,3.281-3.6,3.781,3.781,0,0,1,2.783,1.3l1.122-1.3a5.24,5.24,0,0,0-3.891-1.6,5.094,5.094,0,0,0-5.126,5.2h0A4.962,4.962,0,0,0,446.655,13644.5Zm10.321,0a5.059,5.059,0,0,0,5.212-5.1h0a5.2,5.2,0,1,0-10.395,0h0A5.034,5.034,0,0,0,456.976,13644.5Zm0.028-1.6a3.394,3.394,0,0,1-3.38-3.5h0a3.374,3.374,0,1,1,6.732,0h0A3.371,3.371,0,0,1,457,13642.9Zm10.7,1.6c2.088,0,3.55-1.1,3.55-3h0c0-1.6-1.079-2.4-3.181-2.9-1.917-.5-2.371-0.8-2.371-1.6h0c0-.7.6-1.2,1.619-1.2a4.96,4.96,0,0,1,2.7,1l0.937-1.3a5.527,5.527,0,0,0-3.607-1.2c-1.974,0-3.394,1.1-3.394,2.8v0.1c0,1.8,1.193,2.4,3.309,3,1.846,0.4,2.244.8,2.244,1.5h0a1.53,1.53,0,0,1-1.761,1.3,4.725,4.725,0,0,1-3.139-1.3l-1.051,1.2A5.97,5.97,0,0,0,467.708,13644.5Zm5.606-.1h1.719v-7.2l3.11,4.7H478.2l3.138-4.7v7.2h1.747v-10h-1.861l-3.024,4.7-3.025-4.7h-1.861v10Zm12.323,0h7.441v-1.6h-5.695v-2.7h4.985v-1.5h-4.985v-2.6h5.624v-1.6h-7.37v10Zm9.511,0H496.9v-3.2h1.974c2.187,0,3.976-1.2,3.976-3.4v-0.1c0-2-1.448-3.3-3.777-3.3h-3.92v10Zm1.747-4.8v-3.6h2.031c1.306,0,2.144.6,2.144,1.8h0a1.91,1.91,0,0,1-2.144,1.8H496.9Zm12.48,4.9a5.058,5.058,0,0,0,5.211-5.1h0a5.2,5.2,0,1,0-10.4,0h0A5.035,5.035,0,0,0,509.375,13644.5Zm0.028-1.6a3.394,3.394,0,0,1-3.38-3.5h0a3.373,3.373,0,1,1,6.731,0h0A3.37,3.37,0,0,1,509.4,13642.9Zm7.295,1.5h1.747v-3.5h2.187l2.442,3.5h2.074l-2.684-3.8a3,3,0,0,0,2.357-3v-0.1a2.944,2.944,0,0,0-.823-2.1,4.12,4.12,0,0,0-2.869-1H516.7v10Zm1.747-5.1v-3.3h2.542c1.292,0,2.059.6,2.059,1.6v0.1c0,1-.8,1.6-2.045,1.6h-2.556Zm10.917,5.1h1.761v-8.4h3.153v-1.6H526.21v1.6h3.152v8.4Z" transform="translate(-396.25 -13634.2)"/>
  <path id="Official_YouTube_Channel" data-name="Official YouTube Channel" class="cls-1" d="M401.7,13668.6a5.382,5.382,0,0,0,5.491-5.4h0a5.477,5.477,0,0,0-10.953,0h0A5.3,5.3,0,0,0,401.7,13668.6Zm0.03-1.7a3.587,3.587,0,0,1-3.561-3.7h0a3.5,3.5,0,0,1,3.531-3.7,3.587,3.587,0,0,1,3.561,3.7h0A3.5,3.5,0,0,1,401.73,13666.9Zm12.913,1.5h1.811v-6.3h2.065v-1.5h-2.1v-0.5a1,1,0,0,1,1.047-1.2,3.782,3.782,0,0,1,1.063.2v-1.5a5.6,5.6,0,0,0-1.467-.2,2.459,2.459,0,0,0-1.78.6,2.9,2.9,0,0,0-.644,2v0.6h-1v1.5h1v6.3Zm-5.626,0h1.811v-6.3h2.065v-1.5H410.8v-0.5a1,1,0,0,1,1.047-1.2,3.769,3.769,0,0,1,1.062.2v-1.5a5.6,5.6,0,0,0-1.466-.2,2.461,2.461,0,0,0-1.781.6,2.9,2.9,0,0,0-.643,2v0.6h-1v1.5h1v6.3Zm10.953,0h1.811v-7.9H419.97v7.9Zm-0.075-9.1h1.945v-1.7H419.9v1.7Zm7.3,9.3a3.918,3.918,0,0,0,3.232-1.5l-1.092-1a3.025,3.025,0,0,1-2.05.9,2.37,2.37,0,0,1-2.364-2.5h0a2.447,2.447,0,0,1,2.289-2.6,2.962,2.962,0,0,1,2.035,1l1.138-1.2a4.224,4.224,0,0,0-7.272,2.8h0A4.012,4.012,0,0,0,427.2,13668.6Zm4.325-9.3h1.945v-1.7h-1.945v1.7Zm0.075,9.1h1.81v-7.9H431.6v7.9Zm5.85,0.2a3.322,3.322,0,0,0,2.574-1.1v0.9h1.766v-4.7a3.285,3.285,0,0,0-.853-2.4,3.423,3.423,0,0,0-2.619-.9,6.571,6.571,0,0,0-2.977.7l0.478,1.4a5.5,5.5,0,0,1,2.26-.5c1.272,0,1.96.6,1.96,1.7v0.2a6.515,6.515,0,0,0-2.125-.3c-1.93,0-3.262.8-3.262,2.5v0.1C434.649,13667.8,435.966,13668.6,437.447,13668.6Zm0.509-1.3a1.306,1.306,0,0,1-1.541-1.2h0c0-.9.688-1.4,1.855-1.4a4.519,4.519,0,0,1,1.8.4v0.5A1.879,1.879,0,0,1,437.956,13667.3Zm5.507,1.1h1.81v-10.9h-1.81v10.9Zm10.758,0h1.855v-4.1l4.16-6.4h-2.11l-2.962,4.7-2.918-4.7h-2.185l4.16,6.4v4.1Zm8.933,0.2a4.147,4.147,0,0,0,4.235-4.1h0a4.214,4.214,0,0,0-8.425,0h0A4.065,4.065,0,0,0,463.154,13668.6Zm0.03-1.6a2.4,2.4,0,0,1-2.409-2.5h0a2.432,2.432,0,0,1,2.379-2.6,2.485,2.485,0,0,1,2.424,2.6h0A2.35,2.35,0,0,1,463.184,13667Zm8.17,1.6a2.746,2.746,0,0,0,2.469-1.4v1.2h1.825v-7.9h-1.825v4.5a1.721,1.721,0,0,1-1.781,1.9c-1.077,0-1.691-.6-1.691-1.9v-4.5h-1.81v5.1A2.7,2.7,0,0,0,471.354,13668.6Zm8.739-.2h1.855v-8.7h3.322v-1.8h-8.5v1.8h3.322v8.7Zm8.065,0.2a2.746,2.746,0,0,0,2.469-1.4v1.2h1.825v-7.9h-1.825v4.5a1.721,1.721,0,0,1-1.781,1.9c-1.077,0-1.691-.6-1.691-1.9v-4.5h-1.81v5.1A2.7,2.7,0,0,0,488.158,13668.6Zm10.459,0a3.79,3.79,0,0,0,3.666-4.1h0c0-2.7-1.81-4.1-3.666-4.1a3.152,3.152,0,0,0-2.693,1.4v-4.3h-1.811v10.9h1.811v-1.2A3.315,3.315,0,0,0,498.617,13668.6Zm-0.434-1.6a2.363,2.363,0,0,1-2.3-2.5h0a2.455,2.455,0,0,1,2.3-2.6,2.362,2.362,0,0,1,2.26,2.6h0A2.264,2.264,0,0,1,498.183,13667Zm8.993,1.6a4,4,0,0,0,3.232-1.5l-1.062-.9a2.879,2.879,0,0,1-2.14.9,2.191,2.191,0,0,1-2.274-2h5.805c0.015-.2.03-0.3,0.03-0.5,0-2.3-1.272-4.2-3.785-4.2a3.885,3.885,0,0,0-3.861,4.1h0A3.908,3.908,0,0,0,507.176,13668.6Zm-2.259-4.7a2.177,2.177,0,0,1,2.05-2.1,2.115,2.115,0,0,1,2,2.1h-4.055Zm16.04,4.7a5.492,5.492,0,0,0,4.25-1.8l-1.183-1.2a4.19,4.19,0,0,1-3.007,1.3,3.55,3.55,0,0,1-3.457-3.7h0a3.5,3.5,0,0,1,3.457-3.7,4.077,4.077,0,0,1,2.933,1.3l1.182-1.4a5.588,5.588,0,0,0-9.5,3.8h0A5.284,5.284,0,0,0,520.957,13668.6Zm5.372-.2h1.81v-4.4a1.755,1.755,0,0,1,1.781-2,1.644,1.644,0,0,1,1.691,1.9v4.5h1.81v-5a2.7,2.7,0,0,0-2.813-3,2.883,2.883,0,0,0-2.469,1.3v-4.2h-1.81v10.9Zm10.953,0.2a3.322,3.322,0,0,0,2.574-1.1v0.9h1.765v-4.7a3.281,3.281,0,0,0-.853-2.4,3.419,3.419,0,0,0-2.618-.9,6.579,6.579,0,0,0-2.978.7l0.479,1.4a5.491,5.491,0,0,1,2.259-.5c1.272,0,1.961.6,1.961,1.7v0.2a6.515,6.515,0,0,0-2.125-.3c-1.93,0-3.262.8-3.262,2.5v0.1C534.484,13667.8,535.8,13668.6,537.282,13668.6Zm0.509-1.3a1.306,1.306,0,0,1-1.541-1.2h0c0-.9.688-1.4,1.855-1.4a4.523,4.523,0,0,1,1.8.4v0.5A1.879,1.879,0,0,1,537.791,13667.3Zm5.4,1.1H545v-4.4a1.755,1.755,0,0,1,1.781-2,1.643,1.643,0,0,1,1.69,1.9v4.5h1.811v-5a2.7,2.7,0,0,0-2.813-3,2.883,2.883,0,0,0-2.469,1.3v-1.2h-1.811v7.9Zm8.679,0h1.811v-4.4a1.754,1.754,0,0,1,1.78-2,1.643,1.643,0,0,1,1.691,1.9v4.5h1.811v-5a2.7,2.7,0,0,0-2.813-3,2.882,2.882,0,0,0-2.469,1.3v-1.2h-1.811v7.9Zm12.3,0.2a4,4,0,0,0,3.232-1.5l-1.062-.9a2.879,2.879,0,0,1-2.14.9,2.192,2.192,0,0,1-2.275-2h5.806c0.015-.2.03-0.3,0.03-0.5,0-2.3-1.272-4.2-3.786-4.2a3.885,3.885,0,0,0-3.86,4.1h0A3.908,3.908,0,0,0,564.171,13668.6Zm-2.26-4.7a2.178,2.178,0,0,1,2.05-2.1,2.114,2.114,0,0,1,2,2.1h-4.055Zm7.183,4.5h1.81v-10.9h-1.81v10.9Z" transform="translate(-396.25 -13634.2)"/>
</svg>
