<svg id="name-in.svg" xmlns="http://www.w3.org/2000/svg" width="144.65" height="36.41" viewBox="0 0 144.65 36.41">
  <defs>
    <style>
      .cls-1 {
        fill-rule: evenodd;
      }
    </style>
  </defs>
  <path id="SUNCUT" class="cls-1" d="M1091.11,9285.95c2.06,0,3.5-1.09,3.5-2.92V9283c0-1.63-1.06-2.37-3.13-2.87-1.89-.45-2.34-0.79-2.34-1.54v-0.03a1.351,1.351,0,0,1,1.6-1.16,4.523,4.523,0,0,1,2.66,1l0.92-1.3a5.419,5.419,0,0,0-3.56-1.23c-1.94,0-3.34,1.16-3.34,2.84v0.03c0,1.81,1.17,2.42,3.26,2.93,1.82,0.42,2.21.8,2.21,1.5v0.02c0,0.73-.67,1.24-1.73,1.24a4.561,4.561,0,0,1-3.1-1.28l-1.04,1.23A6,6,0,0,0,1091.11,9285.95Zm9.55,0.02c2.56,0,4.22-1.47,4.22-4.4v-5.56h-1.73v5.64c0,1.81-.93,2.72-2.46,2.72s-2.48-.97-2.48-2.79v-5.57h-1.72v5.64C1096.49,9284.5,1098.11,9285.97,1100.66,9285.97Zm6.58-.16h1.69v-6.97l5.41,6.97h1.44v-9.8h-1.69v6.78l-5.25-6.78h-1.6v9.8Zm15.61,0.17a5.037,5.037,0,0,0,3.98-1.74l-1.11-1.12a3.8,3.8,0,0,1-2.81,1.26,3.3,3.3,0,0,1-3.24-3.47v-0.03a3.3,3.3,0,0,1,3.24-3.46,3.875,3.875,0,0,1,2.74,1.22l1.11-1.27a5.1,5.1,0,0,0-3.84-1.53,4.954,4.954,0,0,0-5.05,5.07v0.03A4.925,4.925,0,0,0,1122.85,9285.98Zm9.8-.01c2.56,0,4.22-1.47,4.22-4.4v-5.56h-1.73v5.64c0,1.81-.93,2.72-2.46,2.72s-2.48-.97-2.48-2.79v-5.57h-1.72v5.64C1128.48,9284.5,1130.1,9285.97,1132.65,9285.97Zm8.99-.16h1.73v-8.2h3.11v-1.6h-7.95v1.6h3.11v8.2Z" transform="translate(-1086.44 -9275.84)"/>
  <path id="Official_Instagram_" data-name="Official Instagram " class="cls-1" d="M1092.63,9309.7a6.089,6.089,0,0,0,6.23-6.15v-0.03a6.221,6.221,0,0,0-12.44.03v0.03A6.041,6.041,0,0,0,1092.63,9309.7Zm0.03-1.94a4.056,4.056,0,0,1-4.04-4.21v-0.03a4.017,4.017,0,0,1,4.01-4.2,4.073,4.073,0,0,1,4.04,4.23v0.03A4.006,4.006,0,0,1,1092.66,9307.76Zm15.01,1.74h2.06v-7.21h2.34v-1.7h-2.38v-0.49a1.129,1.129,0,0,1,1.19-1.36,3.808,3.808,0,0,1,1.21.22v-1.73a5.378,5.378,0,0,0-1.67-.24,2.746,2.746,0,0,0-2.02.71,3.076,3.076,0,0,0-.73,2.21v0.67h-1.14v1.71h1.14v7.21Zm-6.39,0h2.06v-7.21h2.34v-1.7h-2.38v-0.49a1.129,1.129,0,0,1,1.19-1.36,3.808,3.808,0,0,1,1.21.22v-1.73a5.378,5.378,0,0,0-1.67-.24,2.746,2.746,0,0,0-2.02.71,3.076,3.076,0,0,0-.73,2.21v0.67h-1.14v1.71h1.14v7.21Zm12.44,0h2.06v-8.97h-2.06v8.97Zm-0.09-10.35h2.21v-1.96h-2.21v1.96Zm8.64,10.55a4.584,4.584,0,0,0,3.68-1.68l-1.25-1.22a3.117,3.117,0,0,1-2.32,1.1,2.716,2.716,0,0,1-2.69-2.87v-0.04a2.707,2.707,0,0,1,2.6-2.85,3.018,3.018,0,0,1,2.31,1.12l1.29-1.38a4.544,4.544,0,0,0-3.58-1.54,4.629,4.629,0,0,0-4.67,4.69v0.03A4.578,4.578,0,0,0,1122.27,9309.7Zm5.26-10.55h2.21v-1.96h-2.21v1.96Zm0.08,10.35h2.06v-8.97h-2.06v8.97Zm6.99,0.18a3.63,3.63,0,0,0,2.92-1.3v1.12h2.01v-5.32a3.73,3.73,0,0,0-.97-2.77,4,4,0,0,0-2.97-1,7.726,7.726,0,0,0-3.39.73l0.55,1.61a6.2,6.2,0,0,1,2.56-.56c1.45,0,2.23.68,2.23,1.95v0.23a7.249,7.249,0,0,0-2.41-.38c-2.19,0-3.71.95-3.71,2.89v0.03C1131.42,9308.72,1132.92,9309.68,1134.6,9309.68Zm0.58-1.49a1.5,1.5,0,0,1-1.75-1.36v-0.03c0-.94.78-1.5,2.1-1.5a5.525,5.525,0,0,1,2.04.36v0.61A2.117,2.117,0,0,1,1135.18,9308.19Zm6.6,1.31h2.05v-12.41h-2.05v12.41Zm9.51,0h2.09v-11.9h-2.09v11.9Zm4.7,0h2.05v-5.07a2,2,0,0,1,2.02-2.22c1.23,0,1.93.8,1.93,2.19v5.1h2.05v-5.73c0-2.07-1.17-3.43-3.19-3.43a3.261,3.261,0,0,0-2.81,1.56v-1.37h-2.05v8.97Zm13.27,0.17c1.87,0,3.33-.94,3.33-2.82v-0.04c0-1.61-1.48-2.21-2.78-2.61-1.06-.34-2.03-0.62-2.03-1.28v-0.03a1.049,1.049,0,0,1,1.26-.89,5.243,5.243,0,0,1,2.53.85l0.82-1.46a6.221,6.221,0,0,0-3.3-1.02c-1.78,0-3.19,1.04-3.19,2.74v0.03c0,1.72,1.48,2.26,2.8,2.64,1.06,0.32,2.01.56,2.01,1.25v0.04c0,0.59-.51.97-1.4,0.97a5.121,5.121,0,0,1-2.94-1.11l-0.91,1.39A6.26,6.26,0,0,0,1169.26,9309.67Zm7.94-.02a3.541,3.541,0,0,0,1.85-.46v-1.68a2.762,2.762,0,0,1-1.27.3,0.98,0.98,0,0,1-1.11-1.12v-4.4h2.42v-1.76h-2.42v-2.47h-2.05v2.47h-1.14v1.76h1.14v4.73C1174.62,9308.99,1175.69,9309.65,1177.2,9309.65Zm6.22,0.03a3.666,3.666,0,0,0,2.93-1.3v1.12h2v-5.32a3.691,3.691,0,0,0-.97-2.77,4,4,0,0,0-2.97-1,7.647,7.647,0,0,0-3.38.73l0.54,1.61a6.252,6.252,0,0,1,2.57-.56c1.44,0,2.22.68,2.22,1.95v0.23a7.205,7.205,0,0,0-2.41-.38c-2.19,0-3.7.95-3.7,2.89v0.03C1180.25,9308.72,1181.74,9309.68,1183.42,9309.68Zm0.58-1.49a1.507,1.507,0,0,1-1.75-1.36v-0.03c0-.94.78-1.5,2.11-1.5a5.606,5.606,0,0,1,2.04.36v0.61C1186.4,9307.41,1185.36,9308.19,1184,9308.19Zm10.47,4.06a5.038,5.038,0,0,0,3.69-1.21,4.569,4.569,0,0,0,1.14-3.38v-7.13h-2.06v1.34a3.865,3.865,0,0,0-3.14-1.53,4.044,4.044,0,0,0-4.08,4.21v0.04a4.028,4.028,0,0,0,4.08,4.19,3.772,3.772,0,0,0,3.16-1.64v0.69a2.507,2.507,0,0,1-2.84,2.75,5.833,5.833,0,0,1-3.19-.95l-0.77,1.55A7.7,7.7,0,0,0,1194.47,9312.25Zm0.17-5.22a2.442,2.442,0,0,1-2.55-2.46v-0.03a2.433,2.433,0,0,1,2.55-2.47,2.509,2.509,0,0,1,2.64,2.47v0.03A2.507,2.507,0,0,1,1194.64,9307.03Zm6.91,2.47h2.05v-3.42c0-2.38,1.26-3.55,3.06-3.55h0.12v-2.17a3.182,3.182,0,0,0-3.18,2.19v-2.02h-2.05v8.97Zm8.84,0.18a3.645,3.645,0,0,0,2.92-1.3v1.12h2v-5.32a3.691,3.691,0,0,0-.97-2.77,3.983,3.983,0,0,0-2.97-1,7.647,7.647,0,0,0-3.38.73l0.54,1.61a6.288,6.288,0,0,1,2.57-.56c1.44,0,2.22.68,2.22,1.95v0.23a7.205,7.205,0,0,0-2.41-.38c-2.19,0-3.7.95-3.7,2.89v0.03C1207.21,9308.72,1208.7,9309.68,1210.39,9309.68Zm0.57-1.49a1.507,1.507,0,0,1-1.75-1.36v-0.03c0-.94.78-1.5,2.11-1.5a5.565,5.565,0,0,1,2.04.36v0.61C1213.36,9307.41,1212.32,9308.19,1210.96,9308.19Zm6.48,1.31h2.06v-5.07a1.957,1.957,0,0,1,1.92-2.22c1.14,0,1.82.78,1.82,2.17v5.12h2.05v-5.07a1.932,1.932,0,0,1,1.92-2.22c1.16,0,1.82.76,1.82,2.19v5.1h2.06v-5.73c0-2.19-1.19-3.43-3.15-3.43a3.6,3.6,0,0,0-3.02,1.58,2.863,2.863,0,0,0-2.69-1.58,3.217,3.217,0,0,0-2.73,1.54v-1.35h-2.06v8.97Z" transform="translate(-1086.44 -9275.84)"/>
</svg>
