<svg xmlns="http://www.w3.org/2000/svg" width="248" height="24" viewBox="0 0 248 24">
  <defs>
    <style>
      .cls-1 {
        fill: #fff;
        fill-rule: evenodd;
      }
    </style>
  </defs>
  <path id="nav-about_sp.svg" class="cls-1" d="M124.187,242.039h3.519L117.6,219.454l-10.621,22.585H110.5l2.335-5.151h9.117Zm-10.013-8.222,3.295-7.23,3.167,7.23h-6.462ZM132.959,220.7v21.338H138.3c1.632,0,4.287-.288,5.982-2.079a5.206,5.206,0,0,0,1.408-3.839,5.553,5.553,0,0,0-1.408-4,5.856,5.856,0,0,0-2.751-1.536,3.54,3.54,0,0,0,1.6-1.471,4.653,4.653,0,0,0,.639-2.528,5.472,5.472,0,0,0-1.695-4.222c-1.408-1.312-3.135-1.664-5.886-1.664h-3.231Zm3.263,3.071h1.119a3.5,3.5,0,0,1,2.592.8,2.639,2.639,0,0,1,.767,2.047,3.241,3.241,0,0,1-.831,2.432,3.752,3.752,0,0,1-2.656.832h-0.991v-6.111Zm0,8.8h2.047a4.688,4.688,0,0,1,3.359.959,3.2,3.2,0,0,1,.864,2.24,3.058,3.058,0,0,1-1.056,2.367,5.624,5.624,0,0,1-3.231.832h-1.983v-6.4Zm26.2-12.253a11.069,11.069,0,1,0,11.1,11.069A10.825,10.825,0,0,0,162.427,220.317Zm0,19.131c-4.574,0-7.838-3.327-7.838-8.062s3.264-8.062,7.838-8.062,7.838,3.327,7.838,8.062S167,239.448,162.427,239.448ZM180.19,220.7v13.724a7.9,7.9,0,0,0,1.983,5.535,8.267,8.267,0,0,0,11.837,0,7.9,7.9,0,0,0,1.983-5.535V220.7H192.73v12.86a7.453,7.453,0,0,1-.672,3.679,4.667,4.667,0,0,1-7.933,0,7.453,7.453,0,0,1-.672-3.679V220.7H180.19Zm34.3,3.071V220.7H201.438v3.071h4.9v18.267H209.6V223.772h4.894Zm27.3,0.128a7.265,7.265,0,0,0-1.632-2.143,6.291,6.291,0,0,0-4.287-1.44c-4,0-6.238,2.751-6.238,5.631,0,3.2,2.591,4.67,4.351,5.406l2.047,0.864c1.408,0.576,3.071,1.471,3.071,3.647a3.428,3.428,0,0,1-3.519,3.583,3.367,3.367,0,0,1-2.783-1.28,4.606,4.606,0,0,1-.9-2.719l-3.231.7a6.9,6.9,0,0,0,1.792,4.158,6.24,6.24,0,0,0,5.022,2.144,6.575,6.575,0,0,0,6.878-6.846c0-2.431-1.087-4.671-5.022-6.27l-2.144-.864c-2.079-.832-2.3-1.952-2.3-2.591,0-1.376,1.024-2.56,3.007-2.56a3.3,3.3,0,0,1,3.263,2.112Zm7.235-3.2v13.724A7.9,7.9,0,0,0,251,239.96a8.267,8.267,0,0,0,11.837,0,7.9,7.9,0,0,0,1.983-5.535V220.7h-3.263v12.86a7.453,7.453,0,0,1-.672,3.679,4.668,4.668,0,0,1-7.934,0,7.464,7.464,0,0,1-.671-3.679V220.7h-3.263Zm26.75,21.338V227.131l15.484,16.22V220.7h-3.263v14.78l-15.484-16.219v22.777h3.263Zm38.972-20.186a10.137,10.137,0,0,0-5.694-1.536,10.57,10.57,0,0,0-7.71,2.783,11.168,11.168,0,0,0-3.423,8.35,10.465,10.465,0,0,0,3.423,8.062,10.694,10.694,0,0,0,7.55,2.943,11.638,11.638,0,0,0,5.854-1.6v-3.871a8.465,8.465,0,0,1-5.758,2.464,7.7,7.7,0,0,1-7.806-8c0-4.7,3.135-8.126,7.774-8.126a8.316,8.316,0,0,1,5.79,2.368v-3.839Zm6.6-1.152v13.724a7.9,7.9,0,0,0,1.983,5.535,8.267,8.267,0,0,0,11.837,0,7.9,7.9,0,0,0,1.983-5.535V220.7H333.88v12.86a7.453,7.453,0,0,1-.672,3.679,4.667,4.667,0,0,1-7.933,0,7.453,7.453,0,0,1-.672-3.679V220.7H321.34Zm34.3,3.071V220.7H342.588v3.071h4.895v18.267h3.263V223.772h4.894Z" transform="translate(-106.969 -219.25)"/>
</svg>
