<?xml version="1.0" encoding="utf-8"?>
<!-- Generator: Adobe Illustrator 25.2.1, SVG Export Plug-In . SVG Version: 6.00 Build 0)  -->
<svg version="1.1" id="Layer_1" xmlns="http://www.w3.org/2000/svg" xmlns:xlink="http://www.w3.org/1999/xlink" x="0px" y="0px"
	 width="338" height="24" viewBox="0 0 338 24" style="enable-background:new 0 0 338 24;" xml:space="preserve">
<style type="text/css">
	.st0{fill:#FFFFFF;}
</style>
<g>
	<path class="st0" d="M13.4,4.8l-2.6,1.5c-0.5-0.8-0.9-1.4-1.4-1.6C9,4.3,8.4,4.2,7.7,4.2C6.8,4.2,6.1,4.5,5.5,5
		C4.9,5.5,4.6,6.1,4.6,6.8c0,1,0.8,1.9,2.3,2.5L9,10.2c1.7,0.7,3,1.5,3.8,2.5s1.2,2.2,1.2,3.7c0,1.9-0.6,3.6-1.9,4.8
		c-1.3,1.3-2.9,1.9-4.9,1.9c-1.8,0-3.3-0.5-4.5-1.6c-1.2-1.1-1.9-2.6-2.2-4.6l3.2-0.7c0.1,1.2,0.4,2.1,0.8,2.6
		c0.7,0.9,1.6,1.4,2.9,1.4c1,0,1.8-0.3,2.5-1s1-1.5,1-2.5c0-0.4-0.1-0.8-0.2-1.1c-0.1-0.3-0.3-0.7-0.5-0.9c-0.2-0.3-0.6-0.6-0.9-0.8
		c-0.4-0.3-0.8-0.5-1.4-0.7l-2-0.8c-2.9-1.2-4.3-3-4.3-5.4c0-1.6,0.6-2.9,1.8-4c1.2-1.1,2.7-1.6,4.5-1.6C10.2,1.2,12.1,2.4,13.4,4.8
		z"/>
	<path class="st0" d="M23.1,1.6v12.7c0,1.8,0.3,3.1,0.9,4c0.9,1.2,2.1,1.8,3.7,1.8c1.6,0,2.9-0.6,3.8-1.8c0.6-0.8,0.9-2.1,0.9-4V1.6
		h3.2v13.6c0,2.2-0.7,4.1-2.1,5.5c-1.6,1.6-3.5,2.4-5.7,2.4s-4.2-0.8-5.7-2.4c-1.4-1.4-2.1-3.3-2.1-5.5V1.6H23.1z"/>
	<path class="st0" d="M42.7,22.8V0.2l15.4,16.1V1.6h3.2V24L45.9,8v14.8H42.7z"/>
	<path class="st0" d="M82.5,14.2v8.6h-3.2V1.6h3.6c1.8,0,3.1,0.1,4,0.4c0.9,0.2,1.7,0.7,2.4,1.4c1.2,1.2,1.8,2.7,1.8,4.5
		c0,1.9-0.6,3.5-1.9,4.6c-1.3,1.1-3,1.7-5.2,1.7H82.5z M82.5,11.2h1.2c2.9,0,4.4-1.1,4.4-3.4c0-2.2-1.5-3.3-4.5-3.3h-1.1V11.2z"/>
	<path class="st0" d="M103.7,13.7l6.5,9h-3.9l-6-8.7h-0.6v8.7h-3.2V1.6h3.7c2.8,0,4.8,0.5,6.1,1.6c1.4,1.2,2.1,2.7,2.1,4.6
		c0,1.5-0.4,2.8-1.3,3.9C106.2,12.8,105.1,13.4,103.7,13.7z M99.7,11.3h1c1.5,0,2.6-0.3,3.4-0.9s1.1-1.4,1.1-2.6
		c0-2.2-1.5-3.2-4.4-3.2h-1.1V11.3z"/>
	<path class="st0" d="M114,12.1c0-3,1.1-5.5,3.3-7.7c2.2-2.1,4.8-3.2,7.8-3.2c3,0,5.6,1.1,7.7,3.2c2.2,2.2,3.2,4.7,3.2,7.8
		c0,3-1.1,5.6-3.3,7.7c-2.2,2.1-4.8,3.2-7.9,3.2c-2.7,0-5.2-0.9-7.4-2.8C115.2,18.2,114,15.5,114,12.1z M117.2,12.1
		c0,2.3,0.8,4.3,2.4,5.8c1.6,1.5,3.4,2.3,5.4,2.3c2.2,0,4.1-0.8,5.6-2.3c1.5-1.5,2.3-3.4,2.3-5.7c0-2.3-0.8-4.1-2.3-5.7
		c-1.5-1.5-3.3-2.3-5.6-2.3c-2.2,0-4.1,0.8-5.6,2.3C117.9,8,117.2,9.9,117.2,12.1z"/>
	<path class="st0" d="M147.3,4.6v18.1h-3.2V4.6h-4.9v-3h12.9v3H147.3z"/>
	<path class="st0" d="M168.7,4.6h-8.5v5.1h8.2v3h-8.2v7.1h8.5v3h-11.7V1.6h11.7V4.6z"/>
	<path class="st0" d="M190.6,2.7v3.8c-1.8-1.5-3.8-2.3-5.7-2.3c-2.2,0-4,0.8-5.5,2.3c-1.5,1.6-2.2,3.5-2.2,5.7
		c0,2.2,0.7,4.1,2.2,5.6c1.5,1.5,3.3,2.3,5.5,2.3c1.1,0,2-0.2,2.9-0.5c0.4-0.2,0.9-0.4,1.4-0.7s1-0.7,1.5-1.1v3.9
		c-1.8,1-3.7,1.6-5.7,1.6c-3,0-5.6-1.1-7.7-3.2c-2.1-2.1-3.2-4.7-3.2-7.7c0-2.7,0.9-5.1,2.7-7.2c2.2-2.6,5-3.9,8.5-3.9
		C187,1.2,188.9,1.7,190.6,2.7z"/>
	<path class="st0" d="M202.6,4.6v18.1h-3.2V4.6h-4.9v-3h12.9v3H202.6z"/>
	<path class="st0" d="M215.6,1.6v21.1h-3.2V1.6H215.6z"/>
	<path class="st0" d="M221.7,12.1c0-3,1.1-5.5,3.3-7.7c2.2-2.1,4.8-3.2,7.8-3.2c3,0,5.6,1.1,7.7,3.2c2.2,2.2,3.2,4.7,3.2,7.8
		c0,3-1.1,5.6-3.3,7.7c-2.2,2.1-4.8,3.2-7.9,3.2c-2.7,0-5.2-0.9-7.4-2.8C222.9,18.2,221.7,15.5,221.7,12.1z M224.9,12.1
		c0,2.3,0.8,4.3,2.4,5.8c1.6,1.5,3.4,2.3,5.4,2.3c2.2,0,4.1-0.8,5.6-2.3c1.5-1.5,2.3-3.4,2.3-5.7c0-2.3-0.8-4.1-2.3-5.7
		c-1.5-1.5-3.3-2.3-5.6-2.3c-2.2,0-4.1,0.8-5.6,2.3C225.7,8,224.9,9.9,224.9,12.1z"/>
	<path class="st0" d="M249.9,22.8V0.2l15.4,16.1V1.6h3.2V24L253.1,8v14.8H249.9z"/>
	<path class="st0" d="M289.6,1.6v18.1h6.2v3h-9.4V1.6H289.6z"/>
	<path class="st0" d="M314.6,17.6h-9l-2.4,5.1h-3.4l10.5-22.5l10.1,22.5h-3.5L314.6,17.6z M313.3,14.6l-3.1-7.2l-3.3,7.2H313.3z"/>
	<path class="st0" d="M325,22.8V1.6h3.2c1.4,0,2.5,0.1,3.4,0.3c0.8,0.2,1.6,0.6,2.1,1.1c0.6,0.5,1.1,1.2,1.4,2
		c0.4,0.8,0.5,1.6,0.5,2.5c0,1.5-0.6,2.8-1.7,3.8c1.1,0.4,2,1.1,2.7,2c0.7,0.9,1,2.1,1,3.3c0,1.7-0.6,3-1.8,4.2
		c-0.7,0.7-1.5,1.2-2.4,1.5c-0.9,0.3-2.1,0.4-3.6,0.4H325z M328.2,10.7h1c1.2,0,2-0.3,2.6-0.8s0.9-1.3,0.9-2.3c0-1-0.3-1.8-0.8-2.3
		c-0.6-0.5-1.4-0.8-2.5-0.8h-1.1V10.7z M328.2,19.8h2c1.4,0,2.5-0.3,3.2-0.8c0.7-0.6,1.1-1.4,1.1-2.3c0-0.9-0.3-1.7-1-2.3
		c-0.7-0.6-1.9-0.9-3.6-0.9h-1.6V19.8z"/>
</g>
</svg>
