<svg width="32" height="32" viewBox="0 0 32 32" fill="none" xmlns="http://www.w3.org/2000/svg">
<circle cx="16" cy="16" r="16" fill="#75748F"/>
<path d="M16.123 14.9647C16.1084 14.9461 16.0897 14.931 16.0684 14.9206C16.0471 14.9102 16.0237 14.9048 15.9999 14.9048C15.9762 14.9048 15.9528 14.9102 15.9315 14.9206C15.9102 14.931 15.8915 14.9461 15.8769 14.9647L13.6894 17.7323C13.6714 17.7553 13.6602 17.783 13.6571 17.8121C13.654 17.8412 13.6592 17.8705 13.6721 17.8968C13.6849 17.9231 13.7049 17.9452 13.7297 17.9607C13.7545 17.9762 13.7832 17.9843 13.8124 17.9843H15.2558V22.7186C15.2558 22.8046 15.3261 22.8749 15.4121 22.8749H16.5839C16.6699 22.8749 16.7402 22.8046 16.7402 22.7186V17.9862H18.1874C18.3183 17.9862 18.3906 17.8358 18.3105 17.7343L16.123 14.9647Z" fill="#F7F8FB"/>
<path d="M21.8477 13.1621C20.9531 10.8027 18.6738 9.125 16.0039 9.125C13.334 9.125 11.0547 10.8008 10.1602 13.1602C8.48633 13.5996 7.25 15.125 7.25 16.9375C7.25 19.0957 8.99805 20.8438 11.1543 20.8438H11.9375C12.0234 20.8438 12.0937 20.7734 12.0937 20.6875V19.5156C12.0937 19.4297 12.0234 19.3594 11.9375 19.3594H11.1543C10.4961 19.3594 9.87695 19.0977 9.41602 18.623C8.95703 18.1504 8.71289 17.5137 8.73437 16.8535C8.75195 16.3379 8.92773 15.8535 9.24609 15.4453C9.57227 15.0293 10.0293 14.7266 10.5371 14.5918L11.2773 14.3984L11.5488 13.6836C11.7168 13.2383 11.9512 12.8223 12.2461 12.4453C12.5372 12.0717 12.8821 11.7433 13.2695 11.4707C14.0723 10.9063 15.0176 10.6074 16.0039 10.6074C16.9902 10.6074 17.9355 10.9063 18.7383 11.4707C19.127 11.7441 19.4707 12.0723 19.7617 12.4453C20.0566 12.8223 20.291 13.2402 20.459 13.6836L20.7285 14.3965L21.4668 14.5918C22.5254 14.877 23.2656 15.8398 23.2656 16.9375C23.2656 17.584 23.0137 18.1934 22.5566 18.6504C22.3325 18.8758 22.0659 19.0546 21.7722 19.1763C21.4785 19.298 21.1636 19.3602 20.8457 19.3594H20.0625C19.9766 19.3594 19.9062 19.4297 19.9062 19.5156V20.6875C19.9062 20.7734 19.9766 20.8438 20.0625 20.8438H20.8457C23.002 20.8438 24.75 19.0957 24.75 16.9375C24.75 15.127 23.5176 13.6035 21.8477 13.1621Z" fill="#F7F8FB"/>
</svg>
