<svg width="128" height="128" viewBox="0 0 128 128" fill="none" xmlns="http://www.w3.org/2000/svg">
<g clip-path="url(#clip0_671_2973)">
<path d="M41.25 109.25C35.171 109.25 29.5093 106.873 25.3053 102.563C21.1267 98.498 18.75 92.8327 18.75 86.75V41.25C18.75 35.1673 21.1267 29.502 25.4408 25.3015C29.502 21.1268 35.1673 18.75 41.25 18.75H86.75C92.8327 18.75 98.498 21.1267 102.699 25.4408C106.873 29.502 109.25 35.1673 109.25 41.25V86.75C109.25 92.8327 106.873 98.498 102.559 102.699C98.4907 106.873 92.829 109.25 86.75 109.25H41.25Z" fill="#FFF480"/>
<path d="M86.75 18.75H64V109.25H86.75C92.829 109.25 98.4907 106.873 102.559 102.699C106.873 98.498 109.25 92.8327 109.25 86.75V41.25C109.25 35.1673 106.873 29.502 102.699 25.4408C98.498 21.1267 92.8327 18.75 86.75 18.75Z" fill="#FFE566"/>
<path d="M30.6752 30.6748C27.8997 33.375 26.25 37.125 26.25 41.25V64L12.075 71.75L0 64V41.25C0 29.8498 4.65 19.575 12.075 12.075L30.645 15.6448L30.6752 30.6748Z" fill="#FFE566"/>
<path d="M64 101.75L71.75 115.925L64 128H41.25C29.8497 128 19.575 123.35 12.075 115.925L15.6447 97.3553L30.6755 97.3245C33.375 100.1 37.125 101.75 41.25 101.75H64Z" fill="#FFE566"/>
<path d="M128 64V86.75C128 98.1497 123.35 108.425 115.925 115.925L97.3552 112.355L97.3245 97.3245C100.1 94.625 101.75 90.875 101.75 86.75V64L115.925 56.25L128 64Z" fill="#FF9833"/>
<path d="M115.925 12.075L112.355 30.6445L97.3245 30.6747C94.625 27.8997 90.875 26.25 86.75 26.25H64L56.5 12.075L64 0H86.75C98.1503 0 108.425 4.65 115.925 12.075Z" fill="#FF9833"/>
<path d="M64 0V26.25H41.25C37.125 26.25 33.375 27.8997 30.6752 30.6747L12.075 12.075C19.575 4.65 29.8497 0 41.25 0H64Z" fill="#FFC24D"/>
<path d="M30.6752 97.3248L12.075 115.925C4.65 108.425 0 98.1497 0 86.75V64H26.25V86.75C26.25 90.875 27.8997 94.625 30.6752 97.3248Z" fill="#FFC24D"/>
<path d="M115.925 115.925C108.425 123.35 98.15 128 86.75 128H64V101.75H86.75C90.875 101.75 94.625 100.1 97.3248 97.3248L115.925 115.925Z" fill="#FFC24D"/>
<path d="M128 41.25V64H101.75V41.25C101.75 37.125 100.1 33.375 97.3247 30.6748L115.925 12.075C123.35 19.575 128 29.8498 128 41.25Z" fill="#FFC24D"/>
</g>
<defs>
<clipPath id="clip0_671_2973">
<rect width="128" height="128" fill="white"/>
</clipPath>
</defs>
</svg>
