<svg xmlns="http://www.w3.org/2000/svg" width="40" height="40" viewBox="0 0 40 40">
  <g id="icon-instagram" transform="translate(0)">
    <path id="Path_9" data-name="Path 9" d="M404.655,143.621a3.656,3.656,0,1,0,3.659,3.659A3.659,3.659,0,0,0,404.655,143.621Z" transform="translate(-384.655 -127.28)" fill="#fff"/>
    <path id="Path_10" data-name="Path 10" d="M413.206,140.814a3.606,3.606,0,0,0-2.084-2.085,5.985,5.985,0,0,0-2.033-.374c-1.155-.052-1.5-.065-4.434-.065s-3.272.013-4.427.065a6.064,6.064,0,0,0-2.039.374,3.43,3.43,0,0,0-1.259.82,3.391,3.391,0,0,0-.82,1.265,6.171,6.171,0,0,0-.38,2.033c-.052,1.155-.065,1.5-.065,4.433s.013,3.272.065,4.428a6.181,6.181,0,0,0,.38,2.039,3.357,3.357,0,0,0,.82,1.258,3.274,3.274,0,0,0,1.259.82,6.016,6.016,0,0,0,2.039.381c1.155.051,1.5.064,4.427.064s3.279-.013,4.434-.064a5.937,5.937,0,0,0,2.033-.381,3.3,3.3,0,0,0,1.265-.82,3.428,3.428,0,0,0,.819-1.258,6.057,6.057,0,0,0,.375-2.039c.058-1.156.064-1.5.064-4.428s-.006-3.278-.064-4.433A6.047,6.047,0,0,0,413.206,140.814Zm-8.551,12.094a5.631,5.631,0,1,1,5.634-5.628A5.624,5.624,0,0,1,404.655,152.908Zm5.854-10.165a1.316,1.316,0,1,1,1.316-1.316A1.322,1.322,0,0,1,410.509,142.743Z" transform="translate(-384.655 -127.28)" fill="#fff"/>
    <path id="Path_11" data-name="Path 11" d="M418.8,133.14a19.99,19.99,0,1,0,5.86,14.14A19.918,19.918,0,0,0,418.8,133.14Zm-3.24,18.658a8.009,8.009,0,0,1-.509,2.665,5.317,5.317,0,0,1-1.265,1.943,5.425,5.425,0,0,1-1.943,1.265,7.992,7.992,0,0,1-2.659.51c-1.168.051-1.542.064-4.524.064s-3.349-.013-4.517-.064a8.033,8.033,0,0,1-2.666-.51,5.535,5.535,0,0,1-1.942-1.265,5.476,5.476,0,0,1-1.265-1.943,8.186,8.186,0,0,1-.51-2.665c-.052-1.168-.065-1.542-.065-4.518s.013-3.349.065-4.524a8.146,8.146,0,0,1,.51-2.659,5.429,5.429,0,0,1,1.265-1.942,5.373,5.373,0,0,1,1.942-1.265,8.033,8.033,0,0,1,2.666-.51c1.168-.052,1.542-.064,4.517-.064s3.356.012,4.524.064a7.992,7.992,0,0,1,2.659.51,5.608,5.608,0,0,1,3.208,3.207,7.969,7.969,0,0,1,.509,2.659c.059,1.175.065,1.543.065,4.524S415.614,150.63,415.555,151.8Z" transform="translate(-384.655 -127.28)" fill="#fff"/>
  </g>
</svg>
