<svg width="128" height="128" viewBox="0 0 128 128" fill="none" xmlns="http://www.w3.org/2000/svg">
<g clip-path="url(#clip0_671_3005)">
<path d="M64 101.5C50.0035 101.5 40.6467 99.5555 34.5602 95.3843C26.5 90.0998 26.5 82.3215 26.5 79C26.5 73.5435 28.203 67.3693 31.5648 60.6455C34.4213 55.0205 38.2885 49.2015 42.7673 43.7743C48.6267 36.5088 55.332 30.5468 60.6493 27.8918L64 26.218L67.3508 27.8915C72.6683 30.5465 79.3735 36.5085 85.2878 43.84C89.7115 49.2013 93.5788 55.0205 96.4133 60.6053C99.797 67.3693 101.5 73.5435 101.5 79C101.5 82.3215 101.5 90.0998 93.3115 95.4685C87.3533 99.5555 77.9965 101.5 64 101.5V101.5Z" fill="#EAFF80"/>
<path d="M93.3115 95.4685C101.5 90.0998 101.5 82.3215 101.5 79C101.5 73.5435 99.797 67.3693 96.4133 60.6053C93.5788 55.0205 89.7115 49.2015 85.2878 43.84C79.3735 36.5085 72.668 30.5465 67.3508 27.8915L64 26.218V101.5C77.9965 101.5 87.3533 99.5555 93.3115 95.4685Z" fill="#B8E65C"/>
<path d="M38.8 89.2L34 109L14.65 113.35C5.19975 105.25 0 93.6997 0 79C0 74.1248 0.99975 69.0248 2.35025 64L21.2502 56.5L38.2752 64C35.65 69.25 34.0003 74.425 34.0003 79C34 81.85 34 86.05 38.8 89.2V89.2Z" fill="#8FCC52"/>
<path d="M113.35 113.35C102.625 122.8 85.8997 128 64 128L56.5 113.35L64 94C77.7253 94 85.15 91.9748 89.2 89.2L109 94L113.35 113.35Z" fill="#8FCC52"/>
<path d="M125.65 64L108.475 71.5L89.725 64C87.025 58.6747 83.3502 53.275 79.45 48.55L82.6232 30.3767L103.525 24.4747C113.575 35.8 121.975 49.9 125.65 64V64Z" fill="#8FCC52"/>
<path d="M64.0001 0L71.5001 18.9845L64.0001 34.5998C59.8001 36.7 53.8754 41.95 48.5501 48.55L28.1339 43.1338L24.4749 24.4748C37.0004 10.15 52.1499 0 64.0001 0Z" fill="#8FCC52"/>
<path d="M48.5501 48.55C44.6498 53.275 40.9751 58.6747 38.2751 64H2.35034C6.02534 49.9 14.4253 35.8 24.4751 24.4747L48.5501 48.55Z" fill="#B8E65C"/>
<path d="M103.525 24.4748L79.45 48.55C74.1247 41.95 68.2 36.6998 64 34.5998V0C75.8503 0 90.9998 10.15 103.525 24.4748Z" fill="#6CB348"/>
<path d="M128 79C128 93.6997 122.8 105.25 113.35 113.35L89.2 89.2C94 86.05 94 81.85 94 79C94 74.425 92.3502 69.25 89.725 64H125.65C127 69.0248 128 74.1248 128 79Z" fill="#6CB348"/>
<path d="M63.9999 94V128C42.1002 128 25.3747 122.8 14.6497 113.35L38.7999 89.2C42.8499 91.9748 50.2747 94 63.9999 94Z" fill="#B8E65C"/>
</g>
<defs>
<clipPath id="clip0_671_3005">
<rect width="128" height="128" fill="white"/>
</clipPath>
</defs>
</svg>
