<svg id="icon-line" xmlns="http://www.w3.org/2000/svg" width="40" height="40" viewBox="0 0 40 40">
  <path id="Path_14" data-name="Path 14" d="M68.7,68.4a.541.541,0,0,0-.42.178.773.773,0,0,0-.162.535v4.575a.77.77,0,0,0,.164.537.537.537,0,0,0,.418.18.554.554,0,0,0,.429-.178.769.769,0,0,0,.165-.539V69.11a.762.762,0,0,0-.165-.537A.559.559,0,0,0,68.7,68.4Z" transform="translate(-52.042 -53)" fill="#fff"/>
  <path id="Path_15" data-name="Path 15" d="M74.938,68.4a.487.487,0,0,0-.39.168.757.757,0,0,0-.145.5v3.455L72.141,69.1c-.063-.1-.125-.2-.184-.289a1.485,1.485,0,0,0-.174-.226.674.674,0,0,0-.2-.139.657.657,0,0,0-.272-.051.679.679,0,0,0-.376.113.643.643,0,0,0-.25.291,1.277,1.277,0,0,0-.063.448v4.48a.733.733,0,0,0,.151.5.5.5,0,0,0,.4.173.514.514,0,0,0,.4-.17.728.728,0,0,0,.154-.5v-3.4l2.207,3.383c.063.093.126.183.19.271a1.369,1.369,0,0,0,.206.232.733.733,0,0,0,.238.145.852.852,0,0,0,.285.045q.635,0,.634-.764V69.07a.75.75,0,0,0-.147-.5A.505.505,0,0,0,74.938,68.4Z" transform="translate(-52.042 -53)" fill="#fff"/>
  <path id="Path_16" data-name="Path 16" d="M66.707,73.337H64.322V69.11a.764.764,0,0,0-.165-.537.559.559,0,0,0-.429-.176.539.539,0,0,0-.422.178.773.773,0,0,0-.161.535v4.472a.615.615,0,0,0,.722.721h2.84a.642.642,0,0,0,.439-.133.443.443,0,0,0,.151-.347.451.451,0,0,0-.153-.348A.629.629,0,0,0,66.707,73.337Z" transform="translate(-52.042 -53)" fill="#fff"/>
  <path id="Path_17" data-name="Path 17" d="M72.042,52a20,20,0,1,0,20,20A20,20,0,0,0,72.042,52ZM84.1,73.3a10.408,10.408,0,0,1-3.25,4.474A55.523,55.523,0,0,1,74.63,82.5c-2.919,2.08-3.539,1.918-3.8,1.657-.28-.285.518-1.506.587-2.624.037-.609-.577-.791-.752-.822-6.312-.572-11.226-5.047-11.226-10.482,0-5.825,5.641-10.546,12.6-10.546s12.6,4.721,12.6,10.546A7.7,7.7,0,0,1,84.1,73.3Z" transform="translate(-52.042 -52)" fill="#fff"/>
  <path id="Path_18" data-name="Path 18" d="M80.689,73.368H77.948V71.716h2.441a.567.567,0,0,0,.4-.124.424.424,0,0,0,.131-.323.41.41,0,0,0-.133-.319.583.583,0,0,0-.4-.121H77.948V69.4H80.6a.6.6,0,0,0,.418-.125.462.462,0,0,0,0-.657A.6.6,0,0,0,80.6,68.5H77.492a1.01,1.01,0,0,0-.41.073.476.476,0,0,0-.236.234.982.982,0,0,0-.075.414v4.365a.615.615,0,0,0,.721.721h3.2a.6.6,0,0,0,.418-.129.433.433,0,0,0,.14-.334.445.445,0,0,0-.14-.343A.6.6,0,0,0,80.689,73.368Z" transform="translate(-52.042 -53)" fill="#fff"/>
</svg>
