<?xml version="1.0" encoding="utf-8"?>
<!-- Generator: Adobe Illustrator 26.3.1, SVG Export Plug-In . SVG Version: 6.00 Build 0)  -->
<svg version="1.1" id="icon-line" xmlns="http://www.w3.org/2000/svg" xmlns:xlink="http://www.w3.org/1999/xlink" x="0px" y="0px"
	 viewBox="0 0 40 40" style="enable-background:new 0 0 40 40;" xml:space="preserve">
<style type="text/css">
	.st0{fill:#00C100;}
</style>
<path id="Path_14" class="st0" d="M16.7,15.4c-0.2,0-0.3,0.1-0.4,0.2c-0.1,0.2-0.2,0.3-0.2,0.5v4.6c0,0.2,0,0.4,0.2,0.5
	c0.1,0.1,0.3,0.2,0.4,0.2c0.2,0,0.3-0.1,0.4-0.2c0.1-0.2,0.2-0.3,0.2-0.5v-4.6c0-0.2,0-0.4-0.2-0.5C17,15.5,16.8,15.4,16.7,15.4z"/>
<path id="Path_15" class="st0" d="M22.9,15.4c-0.1,0-0.3,0.1-0.4,0.2c-0.1,0.1-0.2,0.3-0.1,0.5v3.5l-2.3-3.4
	C20,16,20,15.9,19.9,15.8c-0.1-0.1-0.1-0.2-0.2-0.2c-0.1-0.1-0.1-0.1-0.2-0.1c-0.1,0-0.2-0.1-0.3-0.1c-0.1,0-0.3,0-0.4,0.1
	c-0.1,0.1-0.2,0.2-0.2,0.3c0,0.1-0.1,0.3-0.1,0.4v4.5c0,0.2,0,0.4,0.2,0.5c0.1,0.1,0.2,0.2,0.4,0.2c0.2,0,0.3-0.1,0.4-0.2
	c0.1-0.1,0.2-0.3,0.2-0.5v-3.4l2.2,3.4c0.1,0.1,0.1,0.2,0.2,0.3c0.1,0.1,0.1,0.2,0.2,0.2c0.1,0.1,0.2,0.1,0.2,0.1c0.1,0,0.2,0,0.3,0
	c0.4,0,0.6-0.3,0.6-0.8v-4.6c0-0.2,0-0.4-0.1-0.5C23.2,15.5,23,15.4,22.9,15.4z"/>
<path id="Path_16" class="st0" d="M14.7,20.3h-2.4v-4.2c0-0.2,0-0.4-0.2-0.5c-0.1-0.1-0.3-0.2-0.4-0.2c-0.2,0-0.3,0.1-0.4,0.2
	c-0.1,0.2-0.2,0.3-0.2,0.5v4.5c-0.1,0.3,0.2,0.7,0.5,0.7c0.1,0,0.2,0,0.2,0h2.8c0.2,0,0.3,0,0.4-0.1c0.1-0.1,0.2-0.2,0.2-0.3
	c0-0.1-0.1-0.3-0.2-0.3C15,20.4,14.8,20.3,14.7,20.3z"/>
<path id="Path_17" class="st0" d="M20,0C9,0,0,9,0,20s9,20,20,20s20-9,20-20S31,0,20,0z M32.1,21.3c-0.7,1.8-1.8,3.3-3.2,4.5
	c-2,1.7-4,3.3-6.2,4.7c-2.9,2.1-3.5,1.9-3.8,1.7c-0.3-0.3,0.5-1.5,0.6-2.6c0-0.6-0.6-0.8-0.8-0.8c-6.3-0.6-11.2-5-11.2-10.5
	C7.4,12.4,13,7.7,20,7.7s12.6,4.7,12.6,10.5C32.6,19.3,32.4,20.3,32.1,21.3z"/>
<path id="Path_18" class="st0" d="M28.6,20.4h-2.7v-1.7h2.4c0.1,0,0.3,0,0.4-0.1c0.1-0.1,0.1-0.2,0.1-0.3c0-0.1,0-0.2-0.1-0.3
	c-0.1-0.1-0.3-0.1-0.4-0.1h-2.4v-1.4h2.7c0.2,0,0.3,0,0.4-0.1c0.2-0.2,0.2-0.5,0-0.7c0,0,0,0,0,0c-0.1-0.1-0.3-0.1-0.4-0.1h-3.1
	c-0.1,0-0.3,0-0.4,0.1c-0.1,0-0.2,0.1-0.2,0.2c-0.1,0.1-0.1,0.3-0.1,0.4v4.4c-0.1,0.3,0.2,0.7,0.5,0.7c0.1,0,0.2,0,0.2,0h3.2
	c0.2,0,0.3,0,0.4-0.1c0.1-0.1,0.1-0.2,0.1-0.3c0-0.1,0-0.3-0.1-0.3C28.9,20.4,28.8,20.4,28.6,20.4z"/>
</svg>
