<svg width="128" height="128" viewBox="0 0 128 128" fill="none" xmlns="http://www.w3.org/2000/svg">
<g clip-path="url(#clip0_671_3020)">
<path d="M74.5003 45.8503L76.8718 62.215L64.0001 64L50.3816 60.924L53.4998 45.8503L51.2501 23.1252L64.0001 0L76.7501 23.1252L74.5003 45.8503Z" fill="#EABFFF"/>
<path d="M74.5004 82.1497L77.3014 102.556L64.0001 128L50.8394 103.166L53.4999 82.1497L51.2519 73.0715L64.0001 64L76.7074 73.001L74.5004 82.1497Z" fill="#EABFFF"/>
<path d="M77.3012 102.556L74.5003 82.1497L76.7075 73.001L64 64V128L77.3012 102.556Z" fill="#CB99FF"/>
<path d="M76.8717 62.2147L74.5003 45.8503L76.75 23.125L64 0V64L76.8717 62.2147Z" fill="#CB99FF"/>
<path d="M64 128C52.825 128 41.7998 124.825 32.125 119.2L33.157 96.911L53.4997 82.15L64 128Z" fill="#CB99FF"/>
<path d="M119.2 95.875L95.8753 96.2132L74.5003 82.1497L64 64L77.3012 56.5L84.9248 64L99.36 69.9245L119.2 95.875Z" fill="#A080FF"/>
<path d="M64 64L53.4998 82.1497L33.3856 95.826L8.80005 95.875L21.0333 70.0235L43.0753 64L52.5273 56.5L64 64Z" fill="#B58DFF"/>
<path d="M64 64H43.0753L27.2303 56.7645L8.80005 32.125L32.1253 31.787L53.4998 45.8502L64 64Z" fill="#CB99FF"/>
<path d="M119.2 32.125L100.996 56.5542L84.9248 64H64L74.5003 45.8503L93.7237 32.4475L119.2 32.125Z" fill="#B58DFF"/>
<path d="M53.4998 45.8502L8.80005 32.125C14.35 22.4502 22.45 14.35 32.125 8.79999L47.8895 23.1252L53.4998 45.8502Z" fill="#B58DFF"/>
<path d="M43.0752 64L8.8 95.875C3.175 86.2747 0 75.25 0 64L19.2785 56.5L43.0752 64Z" fill="#A080FF"/>
<path d="M119.2 95.875C113.65 105.55 105.55 113.65 95.875 119.2L80.154 104.95L74.5002 82.15L119.2 95.875Z" fill="#8A73FF"/>
<path d="M128 64L114.013 71.5L84.925 64L119.2 32.125C124.825 41.7998 128 52.825 128 64V64Z" fill="#A080FF"/>
<path d="M119.2 32.125L74.5002 45.8502L80.1107 15.6252L95.875 8.79999C105.55 14.35 113.65 22.4502 119.2 32.125Z" fill="#A080FF"/>
<path d="M95.875 8.8L74.5003 45.85L64 0C75.0997 0 86.2002 3.175 95.875 8.8V8.8Z" fill="#B58DFF"/>
<path d="M128 64C128 75.25 124.825 86.2747 119.2 95.875L84.9248 64H128Z" fill="#8A73FF"/>
<path d="M95.875 119.2C86.2002 124.825 75.175 128 64 128L74.5003 82.1498L95.875 119.2Z" fill="#B58DFF"/>
<path d="M53.4998 82.1498L32.125 119.2C22.4503 113.65 14.35 105.55 8.80005 95.875L53.4998 82.1498Z" fill="#A080FF"/>
<path d="M43.0752 64H0C0 52.825 3.175 41.7998 8.8 32.125L43.0752 64Z" fill="#B58DFF"/>
<path d="M64 0L53.4997 45.8503L32.125 8.8C41.7998 3.175 52.9003 0 64 0V0Z" fill="#CB99FF"/>
</g>
<defs>
<clipPath id="clip0_671_3020">
<rect width="128" height="128" fill="white"/>
</clipPath>
</defs>
</svg>
