<?xml version="1.0" encoding="utf-8"?>
<!-- Generator: Adobe Illustrator 26.3.1, SVG Export Plug-In . SVG Version: 6.00 Build 0)  -->
<svg version="1.1" id="Layer_1" xmlns="http://www.w3.org/2000/svg" xmlns:xlink="http://www.w3.org/1999/xlink" x="0px" y="0px"
	 viewBox="0 0 40 40" style="enable-background:new 0 0 40 40;" xml:space="preserve">
<style type="text/css">
	.st0{fill:#0E85EE;}
</style>
<g id="icon-facebook">
	<path id="Path_3" class="st0" d="M34.1,5.9c-7.8-7.8-20.5-7.8-28.3,0c-7.8,7.8-7.8,20.5,0,28.3c7.8,7.8,20.5,7.8,28.3,0
		C37.9,30.4,40,25.3,40,20C40,14.7,37.9,9.6,34.1,5.9z M25.6,12.1h-2.6c-0.9,0-1.1,0.4-1.1,1.3v2.3h3.8l-0.4,4.1h-3.4v12.2H17V20
		h-2.5v-4.1H17v-3.3c0-3.1,1.6-4.6,5.3-4.6h3.4L25.6,12.1z"/>
</g>
</svg>
