<svg id="icon-youtube" xmlns="http://www.w3.org/2000/svg" width="40" height="40" viewBox="0 0 40 40">
  <path id="Path_12" data-name="Path 12" d="M212.392,391.075a20,20,0,1,0,5.86,14.14A19.941,19.941,0,0,0,212.392,391.075Zm-3.953,22.777c-2.034.546-10.187.546-10.187.546s-8.152,0-10.187-.546a3.264,3.264,0,0,1-2.307-2.318,37.1,37.1,0,0,1,0-12.637,3.273,3.273,0,0,1,2.307-2.318c2.035-.547,10.187-.547,10.187-.547s8.153,0,10.187.547a3.278,3.278,0,0,1,2.3,2.318,36.834,36.834,0,0,1,0,12.637A3.269,3.269,0,0,1,208.439,413.852Z" transform="translate(-178.252 -385.215)" fill="#fff"/>
  <path id="Path_13" data-name="Path 13" d="M194.974,409.978l8.37-4.763-8.37-4.756Z" transform="translate(-178.252 -385.215)" fill="#fff"/>
</svg>
