<svg width="128" height="128" viewBox="0 0 128 128" fill="none" xmlns="http://www.w3.org/2000/svg">
<g clip-path="url(#clip0_671_3045)">
<path d="M94 34L101.5 64.0003L94 94L64 101.5L34 94L26.5 64.0003L34 34L64 26.5L94 34Z" fill="#99FFCC"/>
<path d="M94 94L101.5 64.0005L94 34L64 26.5V101.5L94 94Z" fill="#80ECC6"/>
<path d="M34 34V94L19.2342 88.375L0 64L17.1243 41.5008L34 34Z" fill="#80ECC6"/>
<path d="M94 94L86.5 110.875L64 128L41.4997 110.874L34 94H94Z" fill="#80ECC6"/>
<path d="M94 34H34L41.5 17.125L64 0L86.5 17.125L94 34Z" fill="#80ECC6"/>
<path d="M128 64L110.875 86.5L94 94V34L110.876 41.5003L128 64Z" fill="#68D9C0"/>
<path d="M64 128H63.475L10.975 120.25C10.15 120.1 9.39974 119.725 8.87524 119.125L14.359 98.641L34 94L64 128Z" fill="#4FC6B9"/>
<path d="M34 94L8.87525 119.125C8.275 118.6 7.90025 117.85 7.75 117.025L0 64.525V64L34 94Z" fill="#4FC6B9"/>
<path d="M64 128L86.5 110.875L94 94H64V128Z" fill="#68D9C0"/>
<path d="M94 34L86.5 17.125L64 0V34H94Z" fill="#68D9C0"/>
<path d="M119.125 8.87525L113.789 29.2105L94 34L64 0H64.525L117.025 7.75C117.85 7.90025 118.6 8.275 119.125 8.87525Z" fill="#4FC6B9"/>
<path d="M64 0L34 34L12.651 27.651L8.87524 8.87525C9.39974 8.275 10.15 7.90025 10.975 7.75L63.475 0L64 0Z" fill="#68D9C0"/>
<path d="M128 63.475V64L94 34L119.125 8.87524C119.725 9.39974 120.1 10.15 120.25 10.975L128 63.475Z" fill="#36B3B3"/>
<path d="M34 34L0 64V63.475L7.75 10.975C7.90025 10.15 8.275 9.39974 8.87525 8.87524L34 34Z" fill="#4FC6B9"/>
<path d="M119.125 119.125C118.6 119.725 117.85 120.1 117.025 120.25L64.525 128H64L94 94L114.624 99.6243L119.125 119.125Z" fill="#4FC6B9"/>
<path d="M128 64V64.525L120.25 117.025C120.1 117.85 119.725 118.6 119.125 119.125L94 94L128 64Z" fill="#36B3B3"/>
</g>
<defs>
<clipPath id="clip0_671_3045">
<rect width="128" height="128" fill="white"/>
</clipPath>
</defs>
</svg>
