<svg width="24" height="24" viewBox="0 0 24 24" fill="none" xmlns="http://www.w3.org/2000/svg">
<path d="M12 1C18.0651 1 23 5.01126 23 9.94268C23 11.9166 22.2369 13.6936 20.6419 15.4444C18.3346 18.1057 13.1742 21.3469 12 21.8428C10.8588 22.325 10.9908 21.5715 11.043 21.2739L11.0471 21.2491L11.2039 20.3056C11.241 20.0245 11.2795 19.5879 11.1681 19.3096C11.0444 19.0024 10.5576 18.8427 10.2001 18.7655C4.91325 18.0671 1 14.3631 1 9.94268C1 5.01126 5.93625 1 12 1ZM7.90525 11.5874H5.80837V7.77451C5.80838 7.71775 5.78597 7.6633 5.74604 7.62304C5.70611 7.58278 5.6519 7.55998 5.59525 7.55962H4.8225C4.79433 7.55962 4.76644 7.56518 4.74041 7.57598C4.71439 7.58678 4.69074 7.6026 4.67083 7.62256C4.65091 7.64251 4.63511 7.6662 4.62433 7.69227C4.61355 7.71834 4.608 7.74629 4.608 7.77451V12.5764C4.608 12.6329 4.63138 12.6866 4.6685 12.7238V12.7252L4.67125 12.728L4.674 12.7307C4.71388 12.7691 4.76718 12.7904 4.8225 12.79H7.90525C8.0235 12.79 8.11837 12.6935 8.11837 12.5751V11.8037C8.11856 11.7755 8.11319 11.7475 8.10257 11.7213C8.09196 11.6952 8.07631 11.6714 8.05652 11.6513C8.03673 11.6312 8.01319 11.6153 7.98723 11.6043C7.96128 11.5933 7.93342 11.5876 7.90525 11.5874ZM8.99288 7.55962C8.93599 7.55962 8.88143 7.58226 8.8412 7.62256C8.80097 7.66286 8.77838 7.71752 8.77838 7.77451V12.5764C8.77838 12.6949 8.87463 12.79 8.99288 12.79H9.76562C9.88387 12.79 9.97875 12.6935 9.97875 12.5764V7.77451C9.97875 7.71775 9.95634 7.6633 9.91641 7.62304C9.87648 7.58278 9.82228 7.55998 9.76562 7.55962H8.99288ZM14.3045 7.55962C14.2476 7.55962 14.1931 7.58226 14.1528 7.62256C14.1126 7.66286 14.09 7.71752 14.09 7.77451V10.6259L11.8941 7.65604C11.8886 7.64881 11.8826 7.64191 11.8762 7.63538V7.634C11.8719 7.62918 11.8673 7.62458 11.8625 7.62023L11.8584 7.6161C11.8537 7.61158 11.8486 7.60743 11.8433 7.6037H11.8419L11.835 7.59819L11.8309 7.59543C11.8287 7.59383 11.8264 7.59244 11.824 7.5913L11.813 7.58441H11.8103L11.8061 7.58166L11.7924 7.57615L11.7869 7.57339C11.7824 7.57176 11.7778 7.57038 11.7731 7.56926H11.7704L11.7662 7.56788L11.7539 7.56513H11.7456L11.7415 7.56375H11.736L11.7333 7.56237H10.944C10.8873 7.56237 10.833 7.58482 10.7928 7.62483C10.7526 7.66483 10.7299 7.71913 10.7295 7.77589V12.5778C10.7295 12.6963 10.8257 12.7913 10.944 12.7913H11.714C11.8336 12.7913 11.9299 12.6949 11.9299 12.5778V9.72641L14.1299 12.7018C14.1445 12.7223 14.1627 12.74 14.1835 12.7541L14.1849 12.7555L14.1986 12.7638L14.2041 12.7665C14.2077 12.7686 14.2113 12.7705 14.2151 12.772L14.2248 12.7762L14.2316 12.7789C14.2362 12.7805 14.2408 12.7818 14.2454 12.7831H14.2495C14.2674 12.7882 14.2859 12.791 14.3045 12.7913H15.0745C15.1941 12.7913 15.2904 12.6949 15.2904 12.5778V7.77451C15.2904 7.71752 15.2678 7.66286 15.2276 7.62256C15.1873 7.58226 15.1328 7.55962 15.0759 7.55962H14.3045ZM19.5501 8.54728V7.77589C19.5503 7.74767 19.5449 7.71969 19.5343 7.69355C19.5237 7.6674 19.5081 7.64361 19.4883 7.62353C19.4685 7.60345 19.4449 7.58747 19.419 7.5765C19.393 7.56554 19.3652 7.5598 19.337 7.55962H16.2542C16.1988 7.55969 16.1455 7.58143 16.1058 7.62023H16.1044L16.103 7.62298L16.1003 7.62712C16.0619 7.66658 16.0402 7.7194 16.0397 7.77451V12.5764C16.0397 12.6329 16.0631 12.6866 16.1003 12.7238L16.103 12.728L16.1058 12.7307C16.1457 12.769 16.199 12.7903 16.2542 12.79H19.337C19.4552 12.79 19.5501 12.6935 19.5501 12.5751V11.8037C19.5503 11.7755 19.5449 11.7475 19.5343 11.7213C19.5237 11.6952 19.5081 11.6714 19.4883 11.6513C19.4685 11.6312 19.4449 11.6153 19.419 11.6043C19.393 11.5933 19.3652 11.5876 19.337 11.5874H17.2388V10.7761H19.3356C19.4539 10.7761 19.5487 10.6796 19.5487 10.5612V9.78978C19.5489 9.76156 19.5436 9.73358 19.5329 9.70744C19.5223 9.6813 19.5067 9.65751 19.4869 9.63743C19.4671 9.61734 19.4436 9.60136 19.4176 9.5904C19.3917 9.57943 19.3638 9.57369 19.3356 9.57351H17.2388V8.76217H19.3356C19.4539 8.76217 19.5487 8.66575 19.5487 8.54728H19.5501Z" fill="#F1F0F1"/>
</svg>
