<?xml version="1.0" encoding="utf-8"?>
<!-- Generator: Adobe Illustrator 26.5.0, SVG Export Plug-In . SVG Version: 6.00 Build 0)  -->
<svg version="1.1" id="Layer_1" xmlns="http://www.w3.org/2000/svg" xmlns:xlink="http://www.w3.org/1999/xlink" x="0px" y="0px"
	 viewBox="0 0 163 40" style="enable-background:new 0 0 163 40;" xml:space="preserve">
<style type="text/css">
	.st0{fill:#75748F;}
</style>
<g>
	<g>
		<path class="st0" d="M50.2,8.7c0-1,0.2-1.7,0.6-2.1c0.4-0.4,1.1-0.7,2-0.7h4.2c0.9,0,1.8,0.1,2.5,0.2c0.8,0.2,1.4,0.4,2,0.8
			c0.6,0.4,1,0.9,1.3,1.6c0.3,0.7,0.5,1.5,0.5,2.4c0,1-0.2,1.7-0.5,2.4c-0.3,0.7-0.8,1.2-1.3,1.6s-1.2,0.7-2,0.8
			C58.9,15.9,58,16,57.1,16h-2.3v2.3c0,0.8-0.2,1.4-0.6,1.8c-0.4,0.4-0.9,0.6-1.7,0.6c-0.7,0-1.3-0.2-1.7-0.6
			c-0.4-0.4-0.6-1-0.6-1.8V8.7z M57.3,12.5c0.4,0,0.8-0.1,1.1-0.4c0.3-0.3,0.5-0.6,0.5-1.1c0-0.5-0.2-0.9-0.5-1.1
			c-0.3-0.3-0.8-0.4-1.3-0.4h-2.3v3H57.3z"/>
		<path class="st0" d="M66,8.7c0-1,0.2-1.7,0.6-2.1c0.4-0.4,1.1-0.7,2-0.7H76c0.7,0,1.2,0.2,1.5,0.5C77.8,6.7,78,7.1,78,7.6
			c0,0.5-0.2,0.9-0.5,1.2c-0.3,0.3-0.8,0.5-1.5,0.5h-5.4v2h4.3c0.7,0,1.2,0.2,1.5,0.5c0.3,0.3,0.5,0.7,0.5,1.2
			c0,0.5-0.2,0.9-0.5,1.2c-0.3,0.3-0.8,0.5-1.5,0.5h-4.3v2.3h5.6c0.7,0,1.2,0.2,1.5,0.5c0.3,0.3,0.5,0.7,0.5,1.2
			c0,0.5-0.2,0.9-0.5,1.2c-0.3,0.3-0.8,0.5-1.5,0.5h-7.6c-0.9,0-1.6-0.2-2-0.7c-0.4-0.4-0.6-1.1-0.6-2.1L66,8.7L66,8.7z"/>
		<path class="st0" d="M81,9.7c-0.6,0-1.1-0.2-1.4-0.5c-0.3-0.3-0.5-0.8-0.5-1.4s0.2-1.1,0.5-1.4c0.3-0.3,0.9-0.5,1.6-0.5h9.9
			c0.7,0,1.2,0.2,1.6,0.5c0.3,0.3,0.5,0.8,0.5,1.4s-0.2,1-0.5,1.4c-0.3,0.3-0.8,0.5-1.4,0.5h-2.8v8.5c0,0.8-0.2,1.4-0.6,1.8
			c-0.4,0.4-1,0.7-1.7,0.7s-1.3-0.2-1.7-0.7c-0.4-0.4-0.6-1.1-0.6-1.8V9.7H81L81,9.7z"/>
		<path class="st0" d="M95,7.9c0-0.7,0.2-1.2,0.5-1.5c0.3-0.3,0.8-0.4,1.4-0.4h5.1c0.7,0,1.4,0.1,2,0.3c0.6,0.2,1.1,0.5,1.6,0.8
			c0.5,0.4,0.8,0.9,1.1,1.4c0.3,0.6,0.4,1.3,0.4,2c0,1.4-0.4,2.5-1.3,3.3c-0.9,0.9-2.1,1.3-3.7,1.3h-3.7v3.9c0,0.5-0.1,0.9-0.4,1.2
			c-0.3,0.3-0.7,0.5-1.2,0.5c-0.5,0-0.9-0.2-1.2-0.5C95.1,20,95,19.6,95,19.1V7.9z M98.3,12.6h3.1c0.7,0,1.2-0.2,1.7-0.6
			c0.4-0.4,0.7-0.9,0.7-1.5c0-0.7-0.2-1.2-0.7-1.6c-0.5-0.3-1.1-0.5-2-0.5h-2.7V12.6L98.3,12.6z"/>
		<path class="st0" d="M109.2,7.3c0-0.5,0.2-0.9,0.5-1.2s0.7-0.5,1.2-0.5c0.5,0,0.9,0.2,1.2,0.5c0.3,0.3,0.4,0.7,0.4,1.2v8
			c0,1,0.3,1.7,0.8,2.2c0.5,0.5,1.3,0.7,2.2,0.7c1,0,1.7-0.2,2.2-0.7c0.5-0.5,0.8-1.2,0.8-2.2v-8c0-0.5,0.2-0.9,0.5-1.2
			c0.3-0.3,0.7-0.5,1.2-0.5s0.9,0.2,1.2,0.5c0.3,0.3,0.4,0.7,0.4,1.2V15c0,1.9-0.6,3.4-1.7,4.4c-1.1,1-2.7,1.4-4.7,1.4
			c-2,0-3.5-0.5-4.7-1.4c-1.1-1-1.7-2.4-1.7-4.4V7.3z"/>
		<path class="st0" d="M124.9,7.3c0-0.5,0.2-0.9,0.5-1.2s0.7-0.5,1.2-0.5c0.5,0,0.9,0.2,1.2,0.5c0.3,0.3,0.4,0.7,0.4,1.2v10.4h5.5
			c0.5,0,0.9,0.1,1.2,0.4c0.3,0.2,0.5,0.6,0.5,1c0,0.4-0.2,0.8-0.5,1c-0.3,0.2-0.7,0.4-1.2,0.4h-6.9c-0.6,0-1.1-0.1-1.4-0.4
			c-0.3-0.3-0.5-0.8-0.5-1.5L124.9,7.3L124.9,7.3z"/>
		<path class="st0" d="M144.9,12.1c0.7,0.2,1.3,0.4,1.8,0.7c0.5,0.3,0.9,0.6,1.2,1c0.3,0.4,0.5,0.8,0.6,1.2c0.1,0.4,0.2,0.9,0.2,1.3
			c0,1.4-0.5,2.5-1.5,3.3c-1,0.8-2.5,1.3-4.4,1.3c-1,0-1.9-0.1-2.7-0.3c-0.8-0.2-1.4-0.5-1.9-0.9c-0.5-0.4-0.9-0.8-1.1-1.2
			c-0.2-0.4-0.4-0.8-0.4-1.3s0.1-0.7,0.4-1c0.3-0.3,0.6-0.4,1-0.4c0.3,0,0.6,0.1,0.8,0.2c0.2,0.2,0.4,0.4,0.7,0.8
			c0.2,0.3,0.4,0.5,0.5,0.6c0.2,0.2,0.3,0.3,0.6,0.5c0.2,0.1,0.5,0.3,0.9,0.4c0.3,0.1,0.7,0.1,1.2,0.1c0.8,0,1.5-0.2,1.9-0.6
			c0.5-0.4,0.7-0.8,0.7-1.4c0-0.3-0.1-0.6-0.3-0.9c-0.2-0.3-0.6-0.5-1.1-0.6l-3.7-0.9c-0.7-0.2-1.3-0.4-1.8-0.7
			c-0.5-0.3-0.8-0.6-1.1-0.9c-0.3-0.3-0.4-0.7-0.5-1.1c-0.1-0.4-0.1-0.8-0.1-1.2c0-0.8,0.2-1.5,0.5-2c0.3-0.6,0.8-1,1.3-1.4
			c0.6-0.4,1.2-0.6,1.9-0.8c0.7-0.2,1.4-0.3,2.1-0.3c0.6,0,1.3,0.1,2,0.3c0.7,0.2,1.3,0.4,1.8,0.7c0.6,0.3,1,0.7,1.3,1.1
			c0.3,0.4,0.5,0.9,0.5,1.3c0,0.4-0.1,0.7-0.4,1c-0.3,0.2-0.7,0.4-1.1,0.4c-0.3,0-0.5-0.1-0.7-0.2c-0.2-0.1-0.4-0.3-0.6-0.6
			c-0.4-0.4-0.8-0.8-1.2-1c-0.4-0.2-1-0.4-1.8-0.4c-0.8,0-1.3,0.2-1.8,0.5c-0.4,0.3-0.6,0.7-0.6,1.2c0,0.4,0.2,0.8,0.6,1
			c0.4,0.2,1,0.4,1.7,0.6L144.9,12.1L144.9,12.1z"/>
		<path class="st0" d="M151.2,7.9c0-0.7,0.2-1.2,0.5-1.5c0.3-0.3,0.8-0.4,1.4-0.4h7.8c0.5,0,1,0.1,1.2,0.3c0.3,0.2,0.4,0.5,0.4,1
			c0,0.5-0.1,0.8-0.4,1c-0.3,0.2-0.7,0.3-1.2,0.3h-6.4v3.2h5.6c0.5,0,0.9,0.1,1.1,0.3c0.3,0.2,0.4,0.5,0.4,1c0,0.5-0.1,0.8-0.4,1
			c-0.3,0.2-0.7,0.3-1.1,0.3h-5.6v3.5h6.6c0.5,0,1,0.1,1.2,0.3c0.3,0.2,0.4,0.5,0.4,1s-0.1,0.8-0.4,1c-0.3,0.2-0.7,0.3-1.2,0.3h-7.9
			c-0.6,0-1.1-0.1-1.4-0.4c-0.3-0.3-0.5-0.8-0.5-1.5V7.9z"/>
		<path class="st0" d="M50.2,26c0-0.2,0.1-0.3,0.2-0.4c0.1-0.1,0.2-0.2,0.4-0.2h7.4c0.2,0,0.3,0.1,0.4,0.2s0.2,0.2,0.2,0.4v7.8
			c0,0.2-0.1,0.3-0.2,0.4c-0.1,0.1-0.2,0.2-0.4,0.2h-0.6c-0.1,0-0.2,0-0.2-0.1c-0.1-0.1-0.1-0.1-0.1-0.2c0,0,0,0,0,0h-5.5
			c0,0,0,0,0,0c0,0.1,0,0.2-0.1,0.2c-0.1,0.1-0.1,0.1-0.2,0.1h-0.5c-0.2,0-0.3-0.1-0.4-0.2c-0.1-0.1-0.2-0.2-0.2-0.4V26z M51.7,32.6
			C51.7,32.6,51.7,32.6,51.7,32.6l5.5,0.1c0.1,0,0.1,0,0.1-0.1v-5.7c0,0,0-0.1-0.1-0.1h-5.5c-0.1,0-0.1,0-0.1,0.1V32.6z M57,28.8
			c0,0.2-0.1,0.3-0.2,0.4c-0.1,0.1-0.2,0.2-0.4,0.2h-1.2c0,0,0,0,0,0c0,0,0,0,0,0c0.3,0.8,0.7,1.4,1.4,1.8c0.1,0.1,0.2,0.2,0.2,0.3
			c0,0,0,0.1,0,0.1c0,0.1,0,0.2-0.1,0.3c-0.1,0.1-0.1,0.2-0.2,0.2c-0.1,0.1-0.2,0.2-0.4,0.3c-0.1,0-0.1,0-0.2,0
			c-0.1,0-0.2,0-0.3-0.1c-0.5-0.3-0.9-0.8-1.3-1.5c0,0,0,0,0,0s0,0,0,0c-0.3,0.6-0.8,1.1-1.5,1.5c-0.1,0-0.2,0.1-0.3,0.1
			c-0.1,0-0.1,0-0.2,0c-0.1-0.1-0.3-0.1-0.4-0.3c0-0.1-0.1-0.1-0.1-0.2C52,31.8,52,31.7,52,31.6c0,0,0-0.1,0-0.1
			c0-0.1,0.1-0.2,0.2-0.3c0.4-0.2,0.7-0.5,0.9-0.8c0.2-0.3,0.4-0.6,0.5-1c0,0,0-0.1-0.1-0.1h-1c-0.2,0-0.3-0.1-0.4-0.2
			c-0.1-0.1-0.2-0.2-0.2-0.4v-0.1c0-0.2,0.1-0.3,0.2-0.4c0.1-0.1,0.2-0.2,0.4-0.2h1.2c0,0,0.1,0,0.1-0.1c0-0.1,0-0.3,0-0.5
			c0-0.2,0.1-0.3,0.2-0.4C54,27,54.2,27,54.3,27h0.2c0.2,0,0.3,0.1,0.4,0.2c0.1,0.1,0.2,0.2,0.2,0.4c0,0.1,0,0.2,0,0.5
			c0,0.1,0,0.1,0.1,0.1h1.3c0.2,0,0.3,0.1,0.4,0.2c0.1,0.1,0.2,0.2,0.2,0.4L57,28.8L57,28.8z"/>
		<path class="st0" d="M70.8,30.3C70.8,30.4,70.8,30.4,70.8,30.3l0.5,0.1c0.2,0,0.3,0.1,0.4,0.2c0.1,0.1,0.1,0.2,0.1,0.3
			c0,0.6-0.1,1.3-0.3,2.1c-0.1,0.5-0.2,0.8-0.4,0.9c-0.2,0.2-0.5,0.4-0.8,0.4c-0.1,0-0.3,0-0.6,0h0c-0.2,0-0.3-0.1-0.4-0.2
			c-0.1-0.1-0.2-0.2-0.2-0.4c-0.1-0.2-0.1-0.4-0.2-0.6c0,0,0,0,0,0c0,0-0.1,0-0.1,0c0,0-0.1-0.1-0.1-0.1c-0.1-0.2-0.1-0.4-0.2-0.7
			c0-0.1,0-0.1,0-0.2s0-0.1,0-0.2c0.1-0.1,0.1-0.2,0.3-0.3c0.1,0,0.1,0,0.2,0c0.1,0,0.2,0,0.2,0c0.1,0.1,0.2,0.1,0.3,0.3
			c0.1,0.1,0.1,0.2,0.1,0.3c0,0.1,0,0.1,0,0.2c0,0.1,0,0.2-0.1,0.2c-0.1,0.1-0.2,0.2-0.3,0.3l0,0c0,0,0,0,0,0s0,0,0,0
			c0.1,0,0.3,0,0.5,0c0.1,0,0.2,0,0.3-0.1c0.1-0.1,0.2-0.6,0.3-1.4c0-0.1,0-0.1-0.1-0.1h-5.8c0,0-0.1,0-0.1,0
			c-0.1,0-0.1,0.1-0.2,0.1c0,0,0,0,0,0c0,0,0,0,0,0l0.4,0.1c0.2,0.1,0.3,0.1,0.3,0.3c0,0.1,0.1,0.2,0.1,0.3c0,0.1,0,0.1,0,0.2
			c-0.2,0.5-0.4,1-0.6,1.3c-0.1,0.1-0.2,0.2-0.4,0.2h-0.1c-0.1,0-0.3,0-0.4-0.1L63.3,34c-0.1-0.1-0.2-0.2-0.2-0.3c0,0,0,0,0-0.1
			c0-0.1,0-0.2,0.1-0.3c0.3-0.3,0.5-0.7,0.6-1.2c0,0,0,0,0,0c0,0,0,0,0,0c-0.1,0-0.1,0-0.2,0c0,0-0.1,0-0.1,0
			c-0.1,0-0.2-0.1-0.3-0.2c-0.1-0.1-0.1-0.3-0.2-0.4c-0.1-0.1-0.1-0.2-0.1-0.3c0,0,0-0.1,0-0.1c0-0.1,0.1-0.2,0.3-0.3
			c1.2-0.6,2.2-1.5,3-2.7c0,0,0,0,0,0c0,0,0,0,0,0h-2.3c-0.2,0-0.3-0.1-0.4-0.2c-0.1-0.1-0.2-0.2-0.2-0.4v-0.1
			c0-0.2,0.1-0.3,0.2-0.4c0.1-0.1,0.2-0.2,0.4-0.2h0.9c0,0,0,0,0,0c0,0,0,0,0,0c-0.1-0.2-0.2-0.4-0.3-0.6c0-0.1,0-0.2,0-0.2
			c0-0.1,0-0.1,0-0.2c0.1-0.1,0.1-0.2,0.3-0.3l0.2-0.1c0.1,0,0.2,0,0.2,0c0.1,0,0.1,0,0.2,0c0.2,0.1,0.3,0.1,0.4,0.3
			c0.1,0.2,0.2,0.4,0.3,0.5c0,0.1,0,0.1,0,0.2c0,0.1,0,0.1,0,0.2c-0.1,0.1-0.1,0.2-0.3,0.2c0,0,0,0,0,0h1.1c0.1,0,0.1,0,0.1-0.1
			c0.2-0.3,0.3-0.7,0.5-1.1c0.1-0.1,0.1-0.3,0.3-0.3c0.1,0,0.2-0.1,0.3-0.1c0.1,0,0.1,0,0.2,0l0.4,0.1c0.1,0,0.3,0.1,0.3,0.3
			c0,0.1,0.1,0.2,0.1,0.2c0,0.1,0,0.1,0,0.2c-0.1,0.2-0.2,0.5-0.3,0.7c0,0,0,0,0,0c0,0,0,0,0,0h1.2c0.1,0,0.3,0.1,0.4,0.2
			c0.1,0.1,0.1,0.2,0.1,0.3c0,0,0,0.1,0,0.1c-0.1,0.5-0.2,0.9-0.3,1.2c0,0,0,0.1,0.1,0.1h0.5c0.1,0,0.3,0.1,0.4,0.2
			c0.1,0.1,0.1,0.2,0.1,0.3c0,0,0,0.1,0,0.1C71,29.5,70.9,29.9,70.8,30.3L70.8,30.3z M65.4,32.8L65.4,32.8c0-0.2,0-0.3,0.1-0.4
			c0.1-0.1,0.2-0.2,0.4-0.2h0c0,0,0.1,0,0.1,0c0.1,0,0.2,0,0.4,0.1c0.1,0.1,0.2,0.2,0.2,0.4c0,0.2,0.1,0.5,0.1,0.7v0.1
			c0,0.1,0,0.3-0.1,0.4c-0.1,0.1-0.2,0.2-0.4,0.2L66,34H66c-0.1,0-0.2,0-0.3-0.1c-0.1-0.1-0.2-0.2-0.2-0.4
			C65.4,33.3,65.4,33.1,65.4,32.8L65.4,32.8z M69.6,29.8C69.6,29.8,69.6,29.8,69.6,29.8l-2.9-0.1c-0.1,0-0.1,0-0.1,0.1
			c-0.2,0.2-0.3,0.3-0.5,0.5c0,0,0,0,0,0c0,0,0,0,0,0h3.3c0,0,0.1,0,0.1-0.1C69.5,30.2,69.6,30,69.6,29.8L69.6,29.8z M66.9,32.7
			c0-0.1,0-0.1,0-0.2c0-0.1,0-0.2,0.1-0.3c0.1-0.1,0.2-0.2,0.3-0.2c0.1,0,0.1,0,0.2,0c0.1,0,0.2,0,0.3,0.1c0.1,0.1,0.2,0.2,0.3,0.3
			c0.1,0.2,0.1,0.3,0.1,0.5c0,0.1,0,0.1,0,0.1c0,0.1,0,0.2-0.1,0.3c-0.1,0.1-0.2,0.2-0.4,0.3l0,0c0,0-0.1,0-0.1,0
			c-0.1,0-0.2,0-0.3-0.1c-0.1-0.1-0.2-0.2-0.2-0.3C67,33.1,67,32.9,66.9,32.7L66.9,32.7z M68.9,28C68.9,28,68.9,28,68.9,28L68,28
			c-0.1,0-0.1,0-0.1,0.1c-0.1,0.2-0.2,0.4-0.3,0.5c0,0,0,0,0,0c0,0,0,0,0,0h1.1c0,0,0.1,0,0.1-0.1C68.8,28.4,68.8,28.3,68.9,28z"/>
		<path class="st0" d="M81.9,30.9c0.4,0,0.7,0.1,1,0.2c0.1,0.1,0.2,0.2,0.2,0.3c0,0,0,0.1,0,0.1c0,0.1,0,0.2-0.1,0.3
			c-0.3,0.4-0.6,0.7-1,1c0,0,0,0,0,0s0,0,0,0c0.7,0.1,1.5,0.2,2.4,0.3c0.1,0,0.2,0.1,0.2,0.2c0,0,0,0.1,0,0.1c0,0.1,0,0.1-0.1,0.2
			c-0.1,0.1-0.1,0.2-0.2,0.3c-0.1,0.2-0.2,0.3-0.4,0.4c-0.1,0.1-0.3,0.1-0.4,0.1h-0.1c-1.2-0.1-2.3-0.4-3.1-0.7c0,0-0.1,0-0.1,0
			c-0.9,0.3-1.9,0.6-3.1,0.7h-0.1c-0.1,0-0.2,0-0.4-0.1c-0.1-0.1-0.3-0.2-0.4-0.3c0-0.1-0.1-0.2-0.1-0.2c0-0.1-0.1-0.1-0.1-0.2
			c0,0,0-0.1,0-0.1c0.1-0.1,0.1-0.2,0.2-0.2c0.9-0.1,1.7-0.2,2.3-0.4c0,0,0,0,0,0c0,0,0,0,0,0c-0.2-0.1-0.4-0.3-0.5-0.4
			c0,0-0.1,0-0.1,0c-0.2,0.1-0.4,0.2-0.5,0.2c-0.1,0-0.2,0.1-0.3,0.1c-0.1,0-0.1,0-0.2,0c-0.2,0-0.3-0.1-0.4-0.2
			c-0.1,0-0.1-0.1-0.1-0.1c-0.1-0.1-0.1-0.1-0.1-0.2c0,0,0-0.1,0-0.1c0-0.1,0.1-0.2,0.2-0.2c1-0.3,1.8-0.7,2.3-1.3c0,0,0-0.1,0-0.1
			c-0.3-0.1-0.4-0.4-0.5-0.7c0,0,0,0,0,0c0,0,0,0,0,0c-0.2,0.3-0.4,0.6-0.7,0.9c-0.1,0.1-0.3,0.2-0.4,0.2h0c-0.2,0-0.3-0.1-0.4-0.2
			l-0.1-0.1c-0.1-0.1-0.1-0.2-0.1-0.3c0-0.1,0.1-0.3,0.2-0.4c0.2-0.2,0.3-0.3,0.5-0.5c0,0,0,0,0,0c0,0,0,0,0,0h-0.6
			c-0.2,0-0.3-0.1-0.4-0.2c-0.1-0.1-0.2-0.2-0.2-0.4v-0.7c0-0.2,0.1-0.3,0.2-0.4c0.1-0.1,0.2-0.2,0.4-0.2h1c0,0,0,0,0,0c0,0,0,0,0,0
			c-0.1-0.2-0.2-0.4-0.4-0.6c0,0-0.1-0.1-0.1-0.1h-0.1c-0.1,0-0.3,0-0.4-0.1c-0.1-0.1-0.2-0.2-0.2-0.4c0,0,0-0.1,0-0.1
			c0-0.1,0-0.2,0.1-0.2c0.1-0.1,0.2-0.2,0.3-0.2c2.4-0.1,4.3-0.2,5.8-0.4c0.1,0,0.1,0,0.2,0c0.3,0,0.5,0.1,0.7,0.3l0.1,0.1
			c0.1,0.1,0.1,0.1,0.1,0.2c0,0,0,0.1,0,0.1c0,0.1-0.1,0.2-0.2,0.2c-0.2,0-0.4,0.1-0.5,0.1c0,0,0,0,0,0c0,0,0,0,0,0l0.2,0.1
			c0.1,0,0.2,0.1,0.3,0.3c0,0,0,0.1,0,0.1c0,0.1,0,0.2-0.1,0.2c-0.1,0.1-0.2,0.3-0.3,0.4c0,0,0,0,0,0c0,0,0,0,0,0h0.8
			c0.2,0,0.3,0.1,0.4,0.2c0.1,0.1,0.2,0.2,0.2,0.4v0.9c0,0.2-0.1,0.3-0.2,0.4c-0.1,0.1-0.2,0.2-0.4,0.2h-0.3c0,0,0,0,0,0
			c0,0,0,0,0,0c0.1,0.1,0.1,0.1,0.2,0.2c0.1,0.1,0.1,0.2,0.1,0.3V30c0,0.2-0.1,0.3-0.2,0.4l-0.1,0.1c-0.1,0.1-0.2,0.1-0.3,0.1
			c0,0-0.1,0-0.1,0c-0.1,0-0.3-0.1-0.4-0.2c-0.2-0.2-0.3-0.4-0.5-0.6c0,0,0,0,0,0c0,0,0,0,0,0c-0.1,0.3-0.2,0.5-0.4,0.6
			c-0.2,0.1-0.4,0.2-0.8,0.2h-0.5c0,0-0.1,0-0.1,0.1c-0.1,0.1-0.1,0.1-0.2,0.2c0,0,0,0,0,0c0,0,0,0,0,0L81.9,30.9L81.9,30.9z
			 M78.5,29.1c0-0.1,0-0.2,0.1-0.2c0.1-0.1,0.1-0.1,0.2-0.1h0.8c0,0,0,0,0,0v0c0,0-0.1,0-0.1,0c-0.1,0-0.1-0.1-0.1-0.1
			c0-0.1,0-0.1,0-0.2v0c0,0,0,0,0,0h-2c0,0-0.1,0-0.1,0.1v0.6c0,0,0,0,0,0s0,0,0,0c0.1-0.1,0.1-0.1,0.2-0.2c0.1,0,0.2,0,0.3,0
			L78.5,29.1C78.5,29.1,78.5,29.1,78.5,29.1L78.5,29.1z M78.8,27.3C78.8,27.3,78.8,27.3,78.8,27.3l1,0c0,0,0,0,0,0c0,0,0,0,0,0
			c-0.1-0.2-0.2-0.4-0.3-0.7c0,0-0.1-0.1-0.1-0.1c-0.2,0-0.4,0-0.6,0c0,0,0,0,0,0s0,0,0,0c0.1,0.1,0.2,0.3,0.2,0.4
			c0,0.1,0,0.1,0,0.2C78.9,27.3,78.9,27.3,78.8,27.3L78.8,27.3z M81.2,31.9C81.2,31.8,81.2,31.8,81.2,31.9
			C81.2,31.8,81.2,31.8,81.2,31.9l-1.8,0c0,0,0,0,0,0c0,0,0,0,0,0c0.2,0.2,0.5,0.3,0.9,0.5c0,0,0.1,0,0.1,0
			C80.7,32.2,81,32,81.2,31.9L81.2,31.9z M83.2,28.9C83.2,28.9,83.2,28.9,83.2,28.9C83.2,28.9,83.2,28.9,83.2,28.9l0.1-0.4
			c0,0,0-0.1-0.1-0.1h-2c0,0,0,0,0,0c0,0,0,0,0,0c0.1,0.1,0.1,0.1,0.1,0.2c0,0.1,0,0.2-0.1,0.3l-0.1,0.1c-0.1,0.1-0.2,0.2-0.4,0.2
			c0,0,0,0,0,0c-0.1,0-0.2,0-0.4-0.1c-0.1-0.1-0.3-0.2-0.5-0.3c0,0,0,0,0,0c0,0,0,0,0,0v0.4c0,0.1,0,0.2,0.1,0.2c0,0,0.1,0,0.3,0H81
			c0.1,0,0.2,0,0.2-0.1c0.1-0.1,0.2-0.2,0.3-0.2c0,0,0.1,0,0.1,0c0.1,0.1,0.3,0.1,0.5,0.2c0,0,0,0,0,0s0,0,0,0
			C82,29.4,82,29.3,82,29.2c0-0.1,0-0.2,0.1-0.3l0.2-0.1c0.1-0.1,0.3-0.1,0.5-0.1h0C82.9,28.7,83,28.8,83.2,28.9L83.2,28.9z
			 M80.7,27.3C80.7,27.3,80.7,27.3,80.7,27.3l1,0c0,0,0.1,0,0.1-0.1c0.2-0.3,0.3-0.6,0.5-0.9c0,0,0,0,0,0c0,0,0,0,0,0
			c-0.4,0.1-0.9,0.1-1.3,0.1c0,0,0,0,0,0s0,0,0,0c0,0.1,0.1,0.2,0.1,0.2c0,0.1,0,0.1,0,0.2c0,0.1,0,0.1,0,0.2
			C80.9,27.2,80.8,27.3,80.7,27.3L80.7,27.3z"/>
		<path class="st0" d="M93.1,30.3c0,0.2-0.1,0.3-0.2,0.4c-0.1,0.1-0.2,0.2-0.4,0.2h-2c-0.1,0-0.1,0-0.1,0.1
			c-0.1,1.2-0.3,2.2-0.6,2.9c-0.1,0.1-0.2,0.2-0.3,0.2c0,0-0.1,0-0.1,0c-0.1,0-0.2,0-0.3-0.1c-0.1-0.1-0.2-0.1-0.2-0.2
			c-0.1-0.1-0.2-0.2-0.2-0.4c0-0.1,0-0.1,0-0.2c0-0.1,0-0.2,0-0.3c0.3-0.7,0.4-1.8,0.4-3.2v-1.9c0-0.2,0.1-0.3,0.2-0.4
			c0.1-0.1,0.2-0.2,0.4-0.2h2.8c0.2,0,0.3,0.1,0.4,0.2c0.1,0.1,0.2,0.2,0.2,0.4L93.1,30.3L93.1,30.3z M92.7,25.5
			c0.2,0,0.3,0.1,0.4,0.2c0.1,0.1,0.2,0.2,0.2,0.4v0.2c0,0.2-0.1,0.3-0.2,0.4c-0.1,0.1-0.2,0.2-0.4,0.2h-3.3c-0.2,0-0.3-0.1-0.4-0.2
			c-0.1-0.1-0.2-0.2-0.2-0.4v-0.2c0-0.2,0.1-0.3,0.2-0.4c0.1-0.1,0.2-0.2,0.4-0.2H92.7z M91.7,28.7C91.7,28.7,91.7,28.6,91.7,28.7
			l-1.2-0.1c-0.1,0-0.1,0-0.1,0.1v0.8c0,0.1,0,0.1,0.1,0.1h1.1c0,0,0.1,0,0.1-0.1V28.7z M95.1,27.3C95,27.3,95,27.3,95.1,27.3
			L95,28.3c0,0.1,0,0.1,0.1,0.1h2.3c0.2,0,0.3,0.1,0.4,0.2c0.1,0.1,0.2,0.2,0.2,0.4v0.2c0,0.2-0.1,0.3-0.2,0.4s-0.2,0.2-0.4,0.2
			h-0.1c0,0-0.1,0-0.1,0.1v4c0,0.2-0.1,0.3-0.2,0.4c-0.1,0.1-0.2,0.2-0.4,0.2h-0.3c-0.2,0-0.3-0.1-0.4-0.2c-0.1-0.1-0.2-0.2-0.2-0.4
			v-4c0,0,0-0.1-0.1-0.1H95c-0.1,0-0.1,0-0.1,0.1c-0.1,1.8-0.6,3.1-1.4,4.1c-0.1,0.1-0.2,0.2-0.3,0.2h0c-0.1,0-0.3-0.1-0.4-0.2
			c-0.1-0.1-0.2-0.1-0.2-0.2c-0.1-0.1-0.2-0.2-0.2-0.4v-0.1c0-0.1,0-0.2,0.1-0.3c0.2-0.3,0.4-0.7,0.6-1c0.2-0.4,0.3-0.8,0.3-1.2
			c0.1-0.4,0.1-0.8,0.1-1.1c0-0.3,0-0.7,0-1.1v-2.2c0-0.1,0.1-0.3,0.2-0.3C93.8,26,93.9,26,94,26c0,0,0.1,0,0.1,0l0.3,0.1
			c0,0,0.1,0,0.1,0c0.6-0.2,1.2-0.4,1.6-0.7c0.1-0.1,0.3-0.1,0.4-0.1c0,0,0.1,0,0.1,0c0.2,0,0.3,0.1,0.4,0.2l0.4,0.3
			c0.1,0.1,0.1,0.2,0.1,0.3v0.1c0,0.1-0.1,0.2-0.2,0.3C96.8,26.8,96,27,95.1,27.3L95.1,27.3z"/>
		<path class="st0" d="M105,30.4c0.1,0,0.1,0,0.2,0c0.1,0,0.1,0,0.2,0.1c0.1,0.1,0.2,0.2,0.2,0.3l0.1,0.3c0,0.1,0,0.1,0,0.2
			c0,0.1,0,0.2-0.1,0.3c-0.1,0.1-0.2,0.3-0.3,0.3c-0.8,0.3-1.7,0.7-2.8,1.2c-0.1,0-0.1,0-0.2,0c-0.1,0-0.1,0-0.2,0
			c-0.1-0.1-0.2-0.2-0.3-0.3l-0.2-0.5c0-0.1,0-0.1,0-0.2c0-0.1,0-0.2,0.1-0.3c0.1-0.1,0.2-0.2,0.3-0.3c0.2-0.1,0.5-0.2,0.7-0.2
			c0,0,0.1,0,0.1-0.1l-0.2-4.9c0-0.2,0-0.3,0.2-0.4c0.1-0.1,0.2-0.2,0.4-0.2l0.4,0h0c0.1,0,0.3,0.1,0.4,0.2c0.1,0.1,0.2,0.2,0.2,0.4
			l0.2,4.4c0,0,0,0,0,0c0,0,0,0,0,0C104.5,30.6,104.7,30.5,105,30.4L105,30.4z M110.7,32.7c0.1,0.1,0.1,0.2,0.1,0.4v0.1
			c0,0.2-0.1,0.3-0.2,0.4l-0.4,0.4c-0.1,0.1-0.2,0.1-0.3,0.1h-0.1c-0.1,0-0.2-0.1-0.3-0.2c-0.3-0.4-0.7-1-1.3-1.7c0,0-0.1,0-0.1,0
			c-0.6,0.8-1.3,1.4-2.2,1.9c-0.1,0.1-0.2,0.1-0.3,0.1c-0.1,0-0.1,0-0.2,0c-0.2,0-0.3-0.1-0.4-0.2c-0.1-0.1-0.3-0.3-0.4-0.4
			c-0.1-0.1-0.1-0.2-0.1-0.2c0,0,0-0.1,0-0.1c0-0.1,0.1-0.2,0.2-0.3c0.6-0.3,1.1-0.6,1.6-1c0.4-0.4,0.8-0.9,1.1-1.5
			c0.3-0.6,0.5-1.2,0.7-1.9c0.2-0.7,0.3-1.4,0.4-2.3c0-0.2,0.1-0.3,0.2-0.4c0.1-0.1,0.2-0.1,0.4-0.1h0l0.5,0c0.2,0,0.3,0.1,0.4,0.2
			c0.1,0.1,0.1,0.2,0.1,0.3c0,0,0,0,0,0.1c-0.2,1.8-0.6,3.2-1.1,4.3c0,0,0,0.1,0,0.1C109.8,31.7,110.4,32.3,110.7,32.7L110.7,32.7z
			 M107.3,28.1c0,0.1,0.1,0.2,0.1,0.3c0,0.1,0,0.1,0,0.2c-0.1,0.1-0.1,0.3-0.3,0.3l-0.4,0.2c-0.1,0-0.2,0.1-0.2,0.1
			c-0.1,0-0.1,0-0.2,0c-0.1-0.1-0.2-0.1-0.3-0.3c-0.2-0.5-0.5-1-0.9-1.5c-0.1-0.1-0.1-0.2-0.1-0.3c0,0,0-0.1,0-0.1
			c0-0.1,0.1-0.2,0.2-0.3l0.3-0.1c0.1-0.1,0.2-0.1,0.3-0.1c0.1,0,0.1,0,0.2,0c0.2,0,0.3,0.1,0.4,0.2C106.7,27.1,107,27.6,107.3,28.1
			L107.3,28.1z"/>
		<path class="st0" d="M116,25.6c0.1-0.1,0.1-0.3,0.3-0.3c0.1,0,0.2-0.1,0.3-0.1c0.1,0,0.1,0,0.2,0l0.2,0.1c0.2,0,0.3,0.1,0.3,0.3
			c0,0.1,0.1,0.2,0.1,0.2c0,0.1,0,0.1,0,0.2c-0.2,0.5-0.4,1-0.6,1.4c0,0,0,0.1,0,0.1v6.3c0,0.2-0.1,0.3-0.2,0.4
			c-0.1,0.1-0.2,0.2-0.4,0.2H116c-0.2,0-0.3-0.1-0.4-0.2c-0.1-0.1-0.2-0.2-0.2-0.4v-4c0,0,0,0,0,0c0,0,0,0,0,0c0,0,0,0,0,0
			c-0.1,0.1-0.1,0.1-0.2,0.1c0,0,0,0-0.1,0c-0.1,0-0.2-0.1-0.2-0.2c-0.1-0.2-0.2-0.4-0.2-0.5c-0.1-0.1-0.1-0.2-0.1-0.4
			c0,0,0-0.1,0-0.1c0-0.2,0.1-0.3,0.2-0.5C115.2,27.5,115.7,26.6,116,25.6L116,25.6z M123.8,27.6c0,0.1,0,0.2-0.1,0.3
			c-0.1,0.1-0.2,0.1-0.3,0.1c0,0-0.1,0-0.1,0c-0.1,1.5-0.4,2.8-0.8,3.7c0,0,0,0.1,0,0.1c0.2,0.4,0.5,0.7,0.8,1
			c0.1,0.1,0.2,0.2,0.2,0.4v0.1c0,0.1,0,0.2-0.1,0.3c-0.1,0.1-0.1,0.1-0.2,0.2c-0.1,0.1-0.2,0.2-0.4,0.2h-0.1c-0.1,0-0.2,0-0.3-0.1
			c-0.2-0.2-0.5-0.5-0.7-0.9c0,0,0,0,0,0c0,0,0,0,0,0c-0.2,0.3-0.5,0.6-0.8,0.9c-0.1,0.1-0.2,0.1-0.3,0.1c0,0-0.1,0-0.1,0
			c-0.1,0-0.3-0.1-0.4-0.2c-0.1-0.2-0.3-0.3-0.4-0.4c0,0,0,0,0-0.1c0,0,0-0.1,0-0.1v0h-1.4c-0.1,0-0.1,0-0.1,0.1v0.1
			c0,0.2-0.1,0.3-0.2,0.4c-0.1,0.1-0.2,0.2-0.4,0.2h-0.1c-0.2,0-0.3-0.1-0.4-0.2c-0.1-0.1-0.2-0.2-0.2-0.4v-3.4
			c0-0.2,0.1-0.3,0.2-0.4s0.2-0.2,0.4-0.2h0.3c0,0,0.1,0,0.1-0.1v-1.3c0,0,0-0.1-0.1-0.1h-0.4c-0.2,0-0.3-0.1-0.4-0.2
			c-0.1-0.1-0.2-0.2-0.2-0.4v-0.1c0-0.2,0.1-0.3,0.2-0.4c0.1-0.1,0.2-0.2,0.4-0.2h0.4c0,0,0.1,0,0.1-0.1v-0.9c0-0.2,0.1-0.3,0.2-0.4
			c0.1-0.1,0.2-0.2,0.4-0.2h0.2c0.2,0,0.3,0.1,0.4,0.2c0.1,0.1,0.2,0.2,0.2,0.4v0.9c0,0.1,0,0.1,0.1,0.1h0.2c0.2,0,0.3,0.1,0.4,0.2
			c0.1,0.1,0.2,0.2,0.2,0.4v0.1c0,0.2-0.1,0.3-0.2,0.4c-0.1,0.1-0.2,0.2-0.4,0.2h-0.2c0,0-0.1,0-0.1,0.1v1.3c0,0,0,0.1,0.1,0.1h0.5
			c0,0,0,0,0,0c-0.1-0.1-0.1-0.2-0.1-0.3c0-0.1,0-0.2,0.1-0.3c0.4-0.8,0.8-1.9,1-3.2c0-0.2,0.1-0.3,0.2-0.4c0.1-0.1,0.2-0.1,0.3-0.1
			h0.1l0.1,0c0.2,0,0.3,0.1,0.4,0.2c0.1,0.1,0.1,0.2,0.1,0.3c0,0,0,0.1,0,0.1c-0.1,0.3-0.1,0.6-0.2,0.9c0,0.1,0,0.1,0,0.1h1.2
			c0.2,0,0.3,0.1,0.4,0.2c0.1,0.1,0.2,0.2,0.2,0.4L123.8,27.6L123.8,27.6z M119,32.1C119,32.1,119,32.1,119,32.1l0.1-1.3
			c0-0.1,0-0.1-0.1-0.1h-0.5c-0.1,0-0.1,0-0.1,0.1V32c0,0.1,0,0.1,0.1,0.1H119z M120.3,30C120.3,30,120.3,30.1,120.3,30l0,2.9
			c0,0,0,0,0,0c0,0,0,0,0,0c0.3-0.3,0.6-0.7,0.9-1.1c0,0,0-0.1,0-0.1c-0.2-0.5-0.3-1-0.5-1.6c0,0,0,0,0,0c0,0,0,0,0,0v0
			c-0.1,0.1-0.1,0.1-0.2,0.1C120.4,30.2,120.3,30.1,120.3,30L120.3,30z M122.2,28.1C122.2,28,122.1,28,122.2,28.1l-0.4-0.1
			c-0.1,0-0.1,0-0.1,0.1c0,0.1-0.1,0.2-0.1,0.2c0,0,0,0.1,0,0.1c0.1,0.6,0.2,1.1,0.3,1.6c0,0,0,0,0,0s0,0,0,0
			C122,29.5,122.1,28.8,122.2,28.1L122.2,28.1z"/>
		<path class="st0" d="M130.8,32.4C130.8,32.4,130.8,32.5,130.8,32.4l1.2-0.1h0.1c0.1,0,0.2,0,0.3,0.1c0.1,0.1,0.2,0.2,0.2,0.4V33
			c0,0.2,0,0.3-0.1,0.4c-0.1,0.1-0.2,0.2-0.4,0.2c-0.7,0.1-2,0.3-3.8,0.5h-0.1c-0.1,0-0.2,0-0.3-0.1c-0.1-0.1-0.2-0.2-0.2-0.4l0-0.3
			v-0.1c0-0.1,0-0.2,0.1-0.3c0.1-0.1,0.2-0.2,0.4-0.2c0,0,0.5,0,1.3-0.1c0,0,0.1,0,0.1-0.1v-0.8c0-0.1,0-0.1-0.1-0.1h-0.9
			c-0.2,0-0.3-0.1-0.4-0.2c-0.1-0.1-0.2-0.2-0.2-0.4v-0.1c0-0.2,0.1-0.3,0.2-0.4c0.1-0.1,0.2-0.2,0.4-0.2h0.9c0,0,0.1,0,0.1-0.1
			v-0.2c0-0.2,0.1-0.3,0.2-0.4s0.2-0.2,0.4-0.2h0.3c0.2,0,0.3,0.1,0.4,0.2s0.2,0.2,0.2,0.4v0.2c0,0,0,0.1,0.1,0.1h0.8
			c0.2,0,0.3,0.1,0.4,0.2s0.2,0.2,0.2,0.4V31c0,0.2-0.1,0.3-0.2,0.4c-0.1,0.1-0.2,0.2-0.4,0.2h-0.8c0,0-0.1,0-0.1,0.1L130.8,32.4
			L130.8,32.4z M134.2,31.3c0,0.2-0.1,0.3-0.2,0.4c-0.1,0.1-0.2,0.2-0.4,0.2h-0.2c-0.2,0-0.3-0.1-0.4-0.2c-0.1-0.1-0.2-0.2-0.2-0.4
			v-2.1c0,0,0,0,0,0c0,0,0,0,0,0l-0.7,0.4c-0.1,0-0.1,0-0.2,0c0,0-0.1,0-0.1,0c-0.1,0-0.2-0.1-0.2-0.2c0,0,0,0-0.1,0
			c-0.8,0-1.9,0.1-3.3,0.1h0c-0.2,0-0.3-0.1-0.4-0.2c-0.1-0.1-0.2-0.2-0.2-0.4l0-0.2c0-0.2,0-0.3,0.1-0.4c0.1-0.1,0.2-0.2,0.4-0.2
			h0.2c0.1,0,0.1,0,0.1-0.1c0.1-0.4,0.2-0.7,0.3-1.1c0,0,0-0.1-0.1-0.1h-0.5c-0.2,0-0.3-0.1-0.4-0.2c-0.1-0.1-0.2-0.2-0.2-0.4v-0.1
			c0-0.2,0.1-0.3,0.2-0.4c0.1-0.1,0.2-0.2,0.4-0.2h3.9c0.2,0,0.3,0.1,0.4,0.2c0.1,0.1,0.2,0.2,0.2,0.4v0.1c0,0.2-0.1,0.3-0.2,0.4
			s-0.2,0.2-0.4,0.2h-0.4c0,0,0,0,0,0c0,0,0,0,0,0c0.6,0.8,1,1.5,1.3,2c0,0,0,0,0,0s0,0,0,0v-2.2c0-0.2,0.1-0.3,0.2-0.4
			c0.1-0.1,0.2-0.2,0.4-0.2h0.2c0.2,0,0.3,0.1,0.4,0.2s0.2,0.2,0.2,0.4L134.2,31.3L134.2,31.3z M129.8,28
			C129.8,28,129.8,28.1,129.8,28C129.8,28.1,129.8,28.1,129.8,28l1,0c0,0,0,0,0,0c0,0,0,0,0,0c0,0,0-0.1-0.1-0.1
			c-0.1-0.1-0.1-0.2-0.1-0.3c0,0,0-0.1,0-0.1c0-0.1,0.1-0.3,0.2-0.3l0.5-0.2c0,0,0,0,0,0c0,0,0,0,0,0h-1.1c-0.1,0-0.1,0-0.1,0.1
			C130.1,27.4,129.9,27.7,129.8,28L129.8,28z M135.1,25.9c0-0.2,0.1-0.3,0.2-0.4c0.1-0.1,0.2-0.2,0.4-0.2h0.3c0.2,0,0.3,0.1,0.4,0.2
			c0.1,0.1,0.2,0.2,0.2,0.4v6.8c0,0.4,0,0.7-0.1,0.9c-0.1,0.2-0.2,0.4-0.4,0.5c-0.3,0.1-0.7,0.2-1.4,0.3h0c-0.1,0-0.3,0-0.4-0.1
			c-0.1-0.1-0.2-0.2-0.3-0.4c0-0.1-0.1-0.2-0.1-0.4c0,0,0-0.1,0-0.1c0-0.1,0-0.1,0.1-0.2c0.1-0.1,0.2-0.2,0.3-0.2h0
			c0.2,0,0.5,0,0.8,0c0.1,0,0.2,0,0.2-0.1c0,0,0.1-0.1,0.1-0.2L135.1,25.9L135.1,25.9z"/>
		<path class="st0" d="M147.8,30.1c0.4,0,0.7,0,0.9,0.1c0.1,0,0.2,0.1,0.3,0.2c0,0.1,0.1,0.1,0.1,0.2c0,0,0,0.1,0,0.1
			c-0.2,0.7-0.5,1.3-0.9,1.8c0,0,0,0.1,0,0.1c0.3,0.2,0.6,0.3,1,0.4c0.1,0,0.2,0.1,0.2,0.2c0,0,0,0.1,0,0.1c0,0.1,0,0.2-0.1,0.2
			c-0.1,0.1-0.1,0.1-0.2,0.2c-0.1,0.1-0.2,0.2-0.4,0.3c-0.1,0-0.2,0-0.2,0c-0.1,0-0.2,0-0.2,0c-0.4-0.2-0.8-0.3-1.1-0.6
			c0,0-0.1,0-0.1,0c-0.3,0.2-0.6,0.4-0.9,0.6c-0.1,0-0.2,0.1-0.2,0.1c-0.1,0-0.1,0-0.2,0c-0.1-0.1-0.3-0.1-0.4-0.3
			c-0.1-0.1-0.2-0.3-0.3-0.4c0,0,0,0,0,0c0,0,0,0,0,0v0.2c0,0.2-0.1,0.3-0.2,0.4s-0.2,0.2-0.4,0.2h-0.2c-0.2,0-0.3-0.1-0.4-0.2
			c-0.1-0.1-0.2-0.2-0.2-0.4v-0.1c0,0,0-0.1-0.1-0.1c-1.1,0.1-1.9,0.1-2.4,0.2c0,0,0,0,0,0c-0.1,0-0.3,0-0.4-0.1
			c-0.1-0.1-0.2-0.2-0.2-0.4l0-0.1c0-0.2,0-0.3,0.1-0.4c0.1-0.1,0.2-0.2,0.4-0.2c0.1,0,0.1,0,0.2,0c0,0,0.1,0,0.1-0.1v-2.7
			c0-0.1,0-0.1-0.1-0.1h-0.1c-0.2,0-0.3-0.1-0.4-0.2c-0.1-0.1-0.2-0.2-0.2-0.4s0.1-0.3,0.2-0.4c0.1-0.1,0.2-0.2,0.4-0.2h7.7
			c0.2,0,0.3,0.1,0.4,0.2c0.1,0.1,0.2,0.2,0.2,0.4c0,0.2-0.1,0.3-0.2,0.4c-0.1,0.1-0.2,0.2-0.4,0.2h-3.8c0,0-0.1,0-0.1,0.1v3.3
			c0,0,0,0,0,0c0,0,0,0,0,0c0.4-0.1,0.7-0.3,1-0.5c0,0,0-0.1,0-0.1c-0.2-0.2-0.3-0.5-0.5-0.7c0-0.1-0.1-0.1-0.1-0.2
			c0-0.1,0-0.1,0-0.2c0.1-0.1,0.2-0.2,0.3-0.3l0.1,0c0,0,0,0,0,0c0,0,0,0,0,0h-0.3c-0.1,0-0.3-0.1-0.4-0.2c-0.1-0.1-0.2-0.2-0.2-0.4
			c0-0.1,0.1-0.3,0.2-0.4c0.1-0.1,0.2-0.2,0.4-0.2H147.8L147.8,30.1z M147.7,25.4c0.2,0,0.3,0.1,0.4,0.2c0.1,0.1,0.2,0.2,0.2,0.4v2
			c0,0.2-0.1,0.3-0.2,0.4c-0.1,0.1-0.2,0.2-0.4,0.2h-5.4c-0.2,0-0.3-0.1-0.4-0.2c-0.1-0.1-0.2-0.2-0.2-0.4v-2c0-0.2,0.1-0.3,0.2-0.4
			s0.2-0.2,0.4-0.2H147.7z M143.6,29.9C143.6,29.9,143.6,29.8,143.6,29.9l-0.9-0.1c-0.1,0-0.1,0-0.1,0.1V30c0,0.1,0,0.1,0.1,0.1h0.9
			C143.6,30.1,143.6,30.1,143.6,29.9L143.6,29.9z M142.7,31C142.7,31,142.6,31.1,142.7,31l-0.1,0.2c0,0.1,0,0.1,0.1,0.1h0.9
			c0.1,0,0.1,0,0.1-0.1v-0.1c0-0.1,0-0.1-0.1-0.1H142.7z M142.6,32.5C142.6,32.6,142.7,32.6,142.6,32.5l0.9,0c0.1,0,0.1,0,0.1-0.1
			v-0.1c0-0.1,0-0.1-0.1-0.1h-0.9c-0.1,0-0.1,0-0.1,0.1V32.5z M146.8,26.5C146.8,26.5,146.9,26.5,146.8,26.5l0.1-0.2
			c0-0.1,0-0.1-0.1-0.1h-3.6c-0.1,0-0.1,0-0.1,0.1v0.1c0,0,0,0.1,0.1,0.1H146.8z M146.8,27.6C146.8,27.6,146.9,27.6,146.8,27.6
			l0.1-0.2c0-0.1,0-0.1-0.1-0.1h-3.6c-0.1,0-0.1,0-0.1,0.1v0.1c0,0.1,0,0.1,0.1,0.1H146.8z M147.4,31.2
			C147.5,31.2,147.5,31.2,147.4,31.2C147.4,31.2,147.4,31.1,147.4,31.2l-0.8-0.1c0,0,0,0,0,0c0,0,0,0,0,0c0.1,0.2,0.2,0.4,0.4,0.6
			c0,0,0.1,0,0.1,0C147.2,31.6,147.3,31.4,147.4,31.2L147.4,31.2z"/>
		<path class="st0" d="M156.1,27c0.4,0,0.7,0,0.8,0c0.1,0,0.2,0.1,0.3,0.2c0.1,0.1,0.1,0.2,0.1,0.3c0,1.3-0.2,2.6-0.7,3.9
			c0,0,0,0.1,0,0.1c0.2,0.2,0.4,0.4,0.6,0.5c0.1,0.1,0.2,0.3,0.2,0.5c0,0.2,0,0.3-0.1,0.4l-0.2,0.2c-0.1,0.1-0.2,0.2-0.3,0.2h0
			c-0.1,0-0.3-0.1-0.3-0.2c-0.1-0.1-0.2-0.3-0.4-0.4c0,0-0.1,0-0.1,0c-0.3,0.5-0.7,1-1.2,1.3c-0.1,0.1-0.2,0.1-0.3,0.1
			c0,0-0.1,0-0.1,0c-0.1,0-0.3-0.1-0.4-0.2c-0.1-0.1-0.1-0.2-0.2-0.2c-0.1-0.1-0.1-0.2-0.1-0.3v-0.1c0-0.1,0.1-0.3,0.2-0.3
			c0.4-0.3,0.7-0.7,1-1.1c0,0,0-0.1,0-0.1l-0.2-0.2c0,0,0,0,0,0c0,0.1,0,0.1-0.1,0.1c-0.1,0-0.1,0-0.1,0l-0.5-0.2
			c-0.1-0.1-0.3-0.2-0.3-0.3c0-0.1-0.1-0.2-0.1-0.3c0-0.1,0-0.1,0-0.2c0.1-0.6,0.3-1.4,0.5-2.3c0-0.1,0-0.1-0.1-0.1h0
			c-0.2,0-0.3-0.1-0.4-0.2c-0.1-0.1-0.2-0.2-0.2-0.4v-0.2c0-0.2,0.1-0.3,0.2-0.4c0.1-0.1,0.2-0.2,0.4-0.2h0.3c0,0,0.1,0,0.1-0.1
			c0.1-0.4,0.1-0.8,0.2-1.3c0-0.2,0.1-0.3,0.2-0.4c0.1-0.1,0.2-0.1,0.4-0.1c0,0,0,0,0.1,0l0.2,0c0.2,0,0.3,0.1,0.4,0.2
			c0.1,0.1,0.1,0.2,0.1,0.3c0,0,0,0.1,0,0.1c-0.1,0.4-0.1,0.8-0.2,1.2c0,0,0,0.1,0.1,0.1H156.1z M155.9,28.4
			C155.9,28.3,155.9,28.3,155.9,28.4l-0.5-0.1c0,0-0.1,0-0.1,0.1c-0.1,0.4-0.2,1-0.4,1.8c0,0,0,0.1,0,0.1c0.1,0.1,0.3,0.2,0.4,0.3
			c0,0,0.1,0,0.1,0C155.7,29.9,155.8,29.2,155.9,28.4L155.9,28.4z M162.1,28.9c0.2,0,0.3,0.1,0.4,0.2c0.1,0.1,0.2,0.2,0.2,0.4v0.2
			c0,0.2-0.1,0.3-0.2,0.4c-0.1,0.1-0.2,0.2-0.4,0.2h-1.4c-0.1,0-0.1,0-0.1,0.1v2.5c0,0.3,0,0.6-0.1,0.8c-0.1,0.2-0.2,0.3-0.4,0.5
			c-0.3,0.1-0.7,0.2-1.1,0.2h0c-0.1,0-0.3,0-0.4-0.1c-0.1-0.1-0.2-0.2-0.3-0.4c0-0.1-0.1-0.2-0.1-0.3c0-0.1,0-0.1,0-0.1
			c0-0.1,0-0.1,0.1-0.2c0.1-0.1,0.2-0.2,0.3-0.2h0.5c0.1,0,0.1,0,0.2,0c0,0,0-0.1,0-0.1v-2.5c0-0.1,0-0.1-0.1-0.1h-1.3
			c-0.2,0-0.3-0.1-0.4-0.2c-0.1-0.1-0.2-0.2-0.2-0.4v-0.2c0-0.2,0.1-0.3,0.2-0.4c0.1-0.1,0.2-0.2,0.4-0.2h1.3c0.1,0,0.1,0,0.1-0.1
			v-0.6c0-0.1,0-0.2,0.1-0.3c0.1-0.1,0.2-0.1,0.3-0.1c0,0,0.1,0,0.1,0c0.2-0.2,0.4-0.6,0.7-0.9c0,0,0,0,0,0c0,0,0,0,0,0h-2.1
			c-0.2,0-0.3-0.1-0.4-0.2c-0.1-0.1-0.2-0.2-0.2-0.4v-0.2c0-0.2,0.1-0.3,0.2-0.4c0.1-0.1,0.2-0.2,0.4-0.2h3c0,0,0,0,0.1,0
			c0.1,0,0.1,0,0.2,0c0.1,0,0.2,0,0.3,0.1l0.3,0.2c0.1,0.1,0.2,0.2,0.2,0.4c0,0,0,0.1,0,0.1c0,0.1,0,0.2-0.1,0.3
			c-0.5,0.7-1,1.4-1.5,1.8c0,0,0,0.1,0,0.1v0.3c0,0.1,0,0.1,0.1,0.1L162.1,28.9L162.1,28.9z"/>
	</g>
</g>
<g>
	<path class="st0" d="M19.4,13.9c0.2,0.2,0.4,0.3,0.6,0.3s0.5-0.1,0.6-0.3l4.2-4.2c1.3-1.3,1.3-3.4,0-4.7c-0.6-0.6-1.5-1-2.4-1
		c-0.9,0-1.7,0.3-2.4,1L20,5l-0.1-0.1c-0.6-0.6-1.5-1-2.4-1s-1.7,0.3-2.4,1c-1.3,1.3-1.3,3.4,0,4.7L19.4,13.9z M16.4,6.2
		c0.3-0.3,0.7-0.5,1.1-0.5c0.4,0,0.8,0.2,1.1,0.5l0.7,0.7c0.3,0.3,0.9,0.3,1.2,0l0.7-0.7c0.6-0.6,1.6-0.6,2.2,0
		c0.6,0.6,0.6,1.6,0,2.2L20,12l-3.6-3.6C15.8,7.8,15.8,6.8,16.4,6.2z"/>
	<path class="st0" d="M27.2,15.6c-0.7,0-1.3,0.6-1.3,1.3c0,0.7,0.6,1.3,1.3,1.3c0.7,0,1.3-0.6,1.3-1.3
		C28.5,16.2,27.9,15.6,27.2,15.6z"/>
	<path class="st0" d="M39.9,22.1C39.9,22.1,39.9,22.1,39.9,22.1C40,21.4,40,20.7,40,20C40,9,31,0,20,0C9,0,0,9,0,20
		c0,9.7,7,17.9,16.2,19.6c0,0,0,0,0,0c1.2,0.2,2.5,0.4,3.8,0.4s2.5-0.1,3.8-0.4c0,0,0,0,0,0C32.3,38,39,30.9,39.9,22.1z M24.8,37.6
		l0.7-3.2c0,0,0,0,0.1,0c1.7,0,3.2-0.3,4.4-0.8c1.3-0.6,2.1-1.5,2.2-2.6c0.1-0.8-0.3-1.6-1-2.1c-0.8-0.6-2-0.6-3.1,0c0,0,0,0-0.1,0
		c0,0-3.4,2.1-7.1,2.9c-0.3,0.1-0.7,0.1-1,0.2c0,0,0,0-0.1,0c-3.5,0.6-6.3,0.4-7.8,0c-1.5-0.4-2.1-1.4-1.9-2.1c0.2-0.7,1-1,2.1-0.7
		c2.6,0.6,5.1,0.6,7.7,0.1c0,0,0,0,0,0c0.1,0,0.3,0,0.4-0.1c1.1-0.2,2.1-0.5,3.2-1c3.6-1.4,5.5-3.7,5.7-3.9c0,0,0,0,0,0c0,0,0,0,0,0
		c0,0,0,0,0,0c0,0,0,0,0,0c0,0,0,0,0,0c0,0,0,0,0,0c0,0,0,0,0,0c0,0,0,0,0,0c0,0,0,0,0,0c0,0,0,0,0,0c0,0,0,0,0,0c0,0,0,0,0,0
		c0,0,0,0,0,0c0,0,0,0,0,0c0,0,0,0,0,0c0,0,0,0,0,0c0,0,0,0,0,0c0,0,0,0,0,0c0-0.5-0.4-0.9-0.9-0.9H26c-1.6,0-3-1.3-3-3v-1.7
		c0-0.3,0.2-0.5,0.5-0.5c0.3,0,0.6-0.2,0.8-0.5l1.6-3.1c0.1-0.3,0.4-0.4,0.7-0.4h1c0.5,0,1-0.2,1.3-0.6l1.5-1.9
		c0.9,1,2.4,2.6,4.2,4.2c3.2,2.7,3.4,6,3.4,6.5C37.3,29.5,31.9,35.7,24.8,37.6z M24.4,32.6c2.3-0.9,4.1-1.9,4.4-2.1
		c0.5-0.3,1-0.3,1.3-0.1c0.2,0.1,0.3,0.3,0.2,0.5c0,0.4-0.5,0.8-1.2,1.1C28,32.5,26.4,32.7,24.4,32.6z M20,1.8
		c8.8,0,16.1,6.3,17.9,14.5c-0.5-0.7-1.2-1.5-2-2.2c-2.6-2.2-4.7-4.7-4.8-4.8c-0.2-0.2-0.4-0.3-0.7-0.3c0,0,0,0,0,0
		c-0.3,0-0.5,0.1-0.7,0.3l-2.1,2.6h-1c-1,0-1.8,0.5-2.3,1.4l-1.4,2.7c-1,0.3-1.7,1.1-1.7,2.2V20c0,2.6,2.1,4.7,4.7,4.7h0.4
		c-0.8,0.6-2,1.3-3.4,1.9c-1,0.4-2,0.7-3,0.9c-3-0.7-5-1.8-6.1-2.6c-0.1-0.1-0.2-0.1-0.3-0.2h1.1c2.3,0,4.2-1.9,4.2-4.2v-2.1
		c0-1.1-0.8-2.1-1.8-2.4c-0.4-0.9-1.5-2.8-2.8-4c-1.8-1.8-6.1-2.1-8.2,0l-3.9,3.9C4,7.9,11.3,1.8,20,1.8z M2,23
		c0.2,0.1,0.3,0.2,0.5,0.3c1.7,0.7,3.6,0,4.6-1.6l2.8-4.6c0.3-0.4,0.1-1-0.3-1.2c-0.4-0.3-1-0.1-1.2,0.3l-2.8,4.6
		c-0.5,0.8-1.6,1.2-2.5,0.9c-0.3-0.1-0.5-0.3-0.7-0.5c-0.8-0.8-0.8-2.1,0-2.9l4.9-4.9c1.4-1.4,4.5-1.2,5.7,0
		c1.4,1.3,2.6,3.9,2.6,3.9c0.1,0.3,0.5,0.5,0.8,0.5c0.4,0,0.7,0.3,0.7,0.7v2.1c0,1.4-1.1,2.5-2.5,2.5h-3.3c0,0,0,0,0,0
		c0,0-0.1,0-0.1,0c0,0,0,0,0,0c0,0-0.1,0-0.1,0c0,0,0,0,0,0c0,0-0.1,0-0.1,0c0,0,0,0,0,0c0,0,0,0,0,0c0,0,0,0,0,0c0,0,0,0,0,0
		c0,0,0,0-0.1,0c0,0,0,0,0,0c0,0,0,0-0.1,0c0,0,0,0,0,0c0,0,0,0,0,0c0,0,0,0,0,0c0,0,0,0,0,0c0,0,0,0,0,0c0,0,0,0,0,0c0,0,0,0,0,0
		c0,0,0,0,0,0c0,0,0,0,0,0c0,0,0,0,0,0c0,0,0,0,0,0c0,0,0,0,0,0c0,0,0,0,0,0c0,0,0,0,0,0c0,0,0,0,0,0c0,0,0,0,0,0c0,0,0,0,0,0
		c0,0,0,0,0,0c0,0,0,0,0,0c0,0,0,0,0,0.1c0,0,0,0,0,0c0,0,0,0,0,0c0,0,0,0,0,0.1c0,0,0,0,0,0c0,0,0,0.1,0,0.1c0,0,0,0,0,0
		c0,0,0,0,0,0.1c0,0,0,0,0,0c0,0,0,0,0,0c0,0,0,0,0,0.1c0,0,0,0,0,0c0,0,0,0,0,0.1c0,0,0,0,0,0c0,0,0,0,0,0.1c0,0,0,0,0,0
		c0.1,0.1,1.4,2,4.9,3.6c-1,0-2-0.2-2.9-0.4c-1.1-0.2-2-0.2-2.8,0.2c-0.8,0.4-1.3,1-1.5,1.8c-0.2,0.8,0,1.8,0.6,2.5
		c0.6,0.8,1.5,1.4,2.7,1.7c0.4,0.1,1.4,0.3,2.9,0.4l0.7,3.5C8.4,35.8,3.2,30.1,2,23z M17.1,38l-0.8-3.9c1.1,0,2.3-0.1,3.6-0.4
		c1.3,0.3,2.5,0.4,3.6,0.5L22.9,38c-0.9,0.1-1.9,0.2-2.9,0.2C19,38.2,18.1,38.2,17.1,38z"/>
	<path class="st0" d="M12.8,18.2c0.7,0,1.3-0.6,1.3-1.3c0-0.7-0.6-1.3-1.3-1.3s-1.3,0.6-1.3,1.3C11.5,17.6,12.1,18.2,12.8,18.2z"/>
</g>
</svg>
