<?xml version="1.0" encoding="utf-8"?>
<!-- Generator: Adobe Illustrator 26.5.0, SVG Export Plug-In . SVG Version: 6.00 Build 0)  -->
<svg version="1.1" id="Layer_1" xmlns="http://www.w3.org/2000/svg" xmlns:xlink="http://www.w3.org/1999/xlink" x="0px" y="0px"
	 viewBox="0 0 156.6 40" style="enable-background:new 0 0 156.6 40;" xml:space="preserve">
<style type="text/css">
	.st0{fill:#75748F;}
</style>
<path class="st0" d="M20,14.5c-0.3,0-0.5-0.1-0.7-0.3l-4-4c-0.6-0.6-1-1.5-1-2.4s0.3-1.7,1-2.4c0.6-0.6,1.5-1,2.4-1s1.7,0.3,2.3,1
	c0.6-0.6,1.5-1,2.3-1c0.9,0,1.7,0.3,2.4,1c0.6,0.6,1,1.5,1,2.4s-0.3,1.7-1,2.4l-4,4C20.5,14.4,20.3,14.5,20,14.5z M17.7,6.4
	c-0.4,0-0.7,0.1-1,0.4c-0.5,0.5-0.5,1.4,0,2l3.3,3.3l3.3-3.3c0.5-0.5,0.5-1.4,0-2c-0.3-0.3-0.6-0.4-1-0.4s-0.7,0.1-1,0.4l-0.7,0.7
	c-0.4,0.4-1,0.4-1.4,0l-0.7-0.7C18.4,6.6,18,6.4,17.7,6.4z"/>
<g>
	<path class="st0" d="M50.7,22.1c-0.4,0-0.7-0.1-0.9-0.4c-0.2-0.2-0.4-0.6-0.4-0.9V6.9c0-0.4,0.1-0.7,0.4-0.9s0.6-0.5,0.9-0.5
		c1.3-0.1,2.6-0.2,3.8-0.2c4.8,0,7.3,1.8,7.3,5.4c0,2-0.6,3.4-1.7,4.5c-1.2,1.1-2.8,1.5-5,1.5c-0.6,0-1.1,0-1.7-0.1
		c-0.1,0-0.2,0.1-0.2,0.2v4c0,0.4-0.1,0.7-0.4,0.9c-0.2,0.2-0.6,0.4-0.9,0.4C52,22.1,50.7,22.1,50.7,22.1z M53.2,8.4v5
		c0,0.1,0.1,0.1,0.2,0.2c0.5,0.1,0.9,0.1,1.2,0.1c1.1,0,1.9-0.2,2.6-0.7c0.6-0.5,0.9-1.2,0.9-2.1c0-1.8-1.2-2.7-3.4-2.7
		c-0.4,0-0.8,0-1.3,0.1C53.3,8.3,53.2,8.3,53.2,8.4z"/>
	<path class="st0" d="M69,22.3c-2.1,0-3.7-0.5-4.8-1.5c-1.1-1.1-1.7-2.6-1.7-4.6s0.5-3.5,1.5-4.6c0.9-1.1,2.5-1.5,4.4-1.5
		c3.7,0,5.4,2,5.5,5.9c0,0.4-0.1,0.7-0.5,0.9c-0.2,0.2-0.6,0.4-0.9,0.4h-6.1c-0.1,0-0.2,0.1-0.2,0.2c0.1,0.8,0.5,1.4,0.9,1.8
		s1.3,0.6,2.4,0.6c0.7,0,1.4-0.1,2.2-0.4c0.4-0.1,0.6,0,0.8,0.2c0.2,0.2,0.4,0.5,0.4,0.8l0,0c0,0.4-0.1,0.7-0.4,1.1
		c-0.2,0.4-0.6,0.5-0.9,0.6C70.9,22.2,69.9,22.3,69,22.3z M68.4,12.4c-0.7,0-1.2,0.2-1.5,0.6c-0.4,0.4-0.6,0.9-0.7,1.9
		c0,0.1,0,0.2,0.1,0.2h3.9c0.1,0,0.2-0.1,0.2-0.2C70.4,13.2,69.7,12.4,68.4,12.4z"/>
	<path class="st0" d="M76.8,13.2c-0.4,0-0.7-0.1-0.9-0.4c-0.2-0.2-0.4-0.6-0.4-0.9c0-0.4,0.1-0.7,0.4-0.9c0.2-0.2,0.6-0.4,0.9-0.4
		h0.9c0.1,0,0.2-0.1,0.2-0.2V7.6c0-0.4,0.1-0.7,0.4-0.9c0.2-0.2,0.6-0.4,0.9-0.4h1.1c0.4,0,0.7,0.1,0.9,0.4c0.2,0.2,0.4,0.6,0.4,0.9
		v2.8c0,0.1,0.1,0.2,0.2,0.2H84c0.4,0,0.7,0.1,0.9,0.4c0.2,0.2,0.4,0.6,0.4,0.9c0,0.4-0.1,0.7-0.4,0.9c-0.2,0.2-0.6,0.4-0.9,0.4
		h-2.2c-0.1,0-0.2,0.1-0.2,0.2v3.9c0,0.9,0.1,1.5,0.2,1.8c0.1,0.2,0.6,0.4,1.2,0.4c0.4,0,0.6,0,0.7,0c0.4,0,0.6,0,0.9,0.2
		c0.2,0.2,0.4,0.5,0.4,0.8v0.2c0,0.4-0.1,0.7-0.4,1.1c-0.2,0.2-0.6,0.5-0.9,0.5c-0.5,0.1-1.1,0.1-1.7,0.1c-1.5,0-2.6-0.4-3.3-0.9
		c-0.6-0.7-0.9-1.9-0.9-3.5v-4.2c0-0.1-0.1-0.2-0.2-0.2h-0.8C76.8,13.6,76.8,13.2,76.8,13.2z"/>
	<path class="st0" d="M89.7,22.1c-0.4,0-0.7-0.1-0.9-0.4c-0.2-0.2-0.4-0.6-0.4-0.9V6.9c0-0.4,0.1-0.7,0.4-0.9
		c0.2-0.2,0.6-0.5,0.9-0.5c1.3-0.1,2.6-0.2,3.8-0.2c4.8,0,7.3,1.8,7.3,5.4c0,2-0.6,3.4-1.7,4.5c-1.2,1.1-2.8,1.5-5,1.5
		c-0.6,0-1.1,0-1.7-0.1c-0.1,0-0.2,0.1-0.2,0.2v4c0,0.4-0.1,0.7-0.4,0.9c-0.2,0.2-0.6,0.4-0.9,0.4C91,22.1,89.7,22.1,89.7,22.1z
		 M92.3,8.4v5c0,0.1,0.1,0.1,0.2,0.2c0.5,0.1,0.9,0.1,1.2,0.1c1.1,0,1.9-0.2,2.6-0.7c0.6-0.5,0.9-1.2,0.9-2.1c0-1.8-1.2-2.7-3.4-2.7
		c-0.4,0-0.8,0-1.3,0.1C92.3,8.3,92.3,8.3,92.3,8.4z"/>
	<path class="st0" d="M109.3,22.3c-4.2,0-6.4-2.1-6.4-6.3V6.8c0-0.4,0.1-0.7,0.4-0.9c0.2-0.2,0.6-0.4,0.9-0.4h1.3
		c0.4,0,0.7,0.1,0.9,0.4c0.2,0.2,0.4,0.6,0.4,0.9v9.6c0,1.1,0.2,1.8,0.6,2.2c0.4,0.5,1.1,0.7,1.9,0.7s1.5-0.2,1.9-0.7
		s0.6-1.2,0.6-2.2V6.8c0-0.4,0.1-0.7,0.4-0.9c0.2-0.2,0.6-0.4,0.9-0.4h1.2c0.4,0,0.7,0.1,0.9,0.4c0.2,0.2,0.4,0.6,0.4,0.9v9.3
		C115.7,20.2,113.6,22.3,109.3,22.3z"/>
	<path class="st0" d="M120.2,22.1c-0.4,0-0.7-0.1-0.9-0.4c-0.2-0.2-0.4-0.6-0.4-0.9v-14c0-0.4,0.1-0.7,0.4-0.9
		c0.2-0.2,0.6-0.4,0.9-0.4h1.4c0.4,0,0.7,0.1,0.9,0.4c0.2,0.2,0.4,0.6,0.4,0.9v11.9c0,0.1,0.1,0.2,0.2,0.2h5.5
		c0.4,0,0.7,0.1,0.9,0.4c0.2,0.2,0.4,0.6,0.4,0.9v0.6c0,0.4-0.1,0.7-0.4,0.9c-0.2,0.2-0.6,0.4-0.9,0.4H120.2z"/>
	<path class="st0" d="M137.3,15.4c-1.9-0.6-3.3-1.4-4.1-2.2c-0.8-0.9-1.3-2-1.3-3.3c0-1.4,0.5-2.6,1.5-3.4c0.9-0.8,2.5-1.3,4.2-1.3
		c1.4,0,2.7,0.1,3.8,0.5c0.4,0.1,0.7,0.4,0.8,0.7c0.2,0.4,0.4,0.7,0.4,1.1v0.7c0,0.4-0.1,0.6-0.4,0.7C142,9,141.6,9.1,141.4,9
		c-1.3-0.5-2.5-0.7-3.5-0.7c-1.4,0-2.1,0.6-2.1,1.7c0,0.9,0.6,1.5,1.8,2c2.1,0.6,3.5,1.4,4.4,2.2s1.2,2,1.2,3.3c0,3.3-2,5-6.1,5
		c-1.3,0-2.5-0.2-3.5-0.6c-0.4-0.1-0.7-0.4-0.8-0.7c-0.2-0.4-0.4-0.7-0.4-1.2v-0.7c0-0.2,0.1-0.5,0.4-0.6s0.5-0.1,0.7,0
		c1.1,0.6,2.2,0.8,3.4,0.8c0.8,0,1.4-0.1,1.9-0.5s0.6-0.7,0.6-1.3c0-0.5-0.1-0.9-0.5-1.2C138.4,16,138,15.6,137.3,15.4z"/>
	<path class="st0" d="M147.3,22.1c-0.4,0-0.7-0.1-0.9-0.4c-0.2-0.2-0.4-0.6-0.4-0.9v-14c0-0.4,0.1-0.7,0.4-0.9
		c0.2-0.2,0.6-0.4,0.9-0.4h8c0.4,0,0.7,0.1,0.9,0.4c0.2,0.2,0.4,0.6,0.4,0.9v0.5c0,0.4-0.1,0.7-0.4,0.9c-0.2,0.2-0.6,0.4-0.9,0.4
		H150c-0.1,0-0.2,0.1-0.2,0.2v2.9c0,0.1,0.1,0.2,0.2,0.2h4.8c0.4,0,0.7,0.1,0.9,0.4s0.4,0.6,0.4,0.9v0.4c0,0.4-0.1,0.7-0.4,0.9
		s-0.6,0.4-0.9,0.4H150c-0.1,0-0.2,0.1-0.2,0.2v3.7c0,0.1,0.1,0.2,0.2,0.2h5.3c0.4,0,0.7,0.1,0.9,0.4c0.2,0.2,0.4,0.6,0.4,0.9v0.5
		c0,0.4-0.1,0.7-0.4,0.9c-0.2,0.2-0.6,0.4-0.9,0.4C155.3,22.1,147.3,22.1,147.3,22.1z"/>
</g>
<circle class="st0" cx="27.2" cy="17" r="1.2"/>
<circle class="st0" cx="12.7" cy="17" r="1.2"/>
<path class="st0" d="M28.2,24.7h-2.5c-2.6,0-4.6-2.1-4.6-4.6v-1.7c0-1,0.7-1.9,1.7-2.2l1.5-2.9c0.3-0.6,0.9-1,1.6-1h1.4l2-2.5
	c0.2-0.2,0.4-0.4,0.7-0.4c0.3,0,0.6,0.1,0.7,0.3c0,0,2.1,2.4,4.6,4.6c4.6,4.1,4.5,8,4.5,8.2c0,0.5-0.5,1-1,0.9c-0.5,0-0.9-0.5-0.9-1
	c0-0.1,0-3.3-3.8-6.7c-1.6-1.5-3.1-3-4-3.9l-1.4,1.7c-0.3,0.4-0.8,0.7-1.4,0.7h-1.4l-1.7,3.3C24,17.8,23.7,18,23.4,18
	c-0.2,0-0.4,0.2-0.4,0.4V20c0,1.5,1.2,2.7,2.7,2.7h2.5c0.5,0,1,0.4,1,1S28.8,24.7,28.2,24.7z"/>
<path class="st0" d="M20,40C9,40,0,31,0,20S9,0,20,0s20,9,20,20S31,40,20,40z M20,1.9C10,1.9,1.9,10,1.9,20S10,38.1,20,38.1
	S38.1,30,38.1,20S30,1.9,20,1.9z"/>
<path class="st0" d="M14.9,24.7h-1.8c-0.5,0-1-0.4-1-1s0.4-1,1-1h1.8c1.2,0,2.3-1,2.3-2.3v-2c0-0.3-0.2-0.5-0.5-0.5
	c-0.4,0-0.7-0.2-0.9-0.6c0,0-1.1-2.5-2.5-3.7c-1.1-1.1-4-1.3-5.3,0l-4.7,4.7c-0.4,0.4-0.5,0.8-0.5,1.3s0.2,1,0.5,1.3
	c0.2,0.2,0.4,0.3,0.6,0.4c0.8,0.3,1.7,0,2.2-0.8l1.9-3c0.3-0.5,0.9-0.6,1.3-0.3c0.5,0.3,0.6,0.9,0.3,1.3l-1.9,3
	c-1,1.6-2.9,2.2-4.6,1.5c-0.4,0-0.8-0.2-1.1-0.6c-1.5-1.5-1.5-3.9,0-5.4l4.7-4.7c1-1,2.5-1.5,4.1-1.4c1.5,0,3,0.6,3.9,1.4
	c1.2,1.1,2.2,3,2.6,3.8c1,0.3,1.8,1.2,1.8,2.4v2C19.1,22.8,17.2,24.7,14.9,24.7z"/>
<path class="st0" d="M23.7,39.7c-0.1,0-0.1,0-0.2,0c-0.5-0.1-0.9-0.6-0.8-1.1l0.8-4.8c0.1-0.5,0.6-0.9,1.1-0.8
	c0.5,0.1,0.9,0.6,0.8,1.1l-0.8,4.8C24.6,39.3,24.2,39.7,23.7,39.7z"/>
<path class="st0" d="M20,35.6c-2.8,0-5.4-0.7-7.4-2.1c-0.4-0.3-0.5-0.9-0.2-1.3c0.3-0.4,0.9-0.5,1.3-0.2c1.7,1.2,3.8,1.8,6.2,1.8
	c3,0,5.6-1.1,6.3-1.4c0.7-0.3,1.1-0.9,0.9-1.3c-0.1-0.3-0.5-0.6-1.1-0.4c-0.2,0.1-0.4,0.1-0.7,0.2c-1,0.4-2.3,0.9-5.4,0.9
	c-3.8,0-7-1.8-8.7-3.4c-0.7-0.7-1.1-1.5-1.2-2.3c-0.1-0.7,0.2-1.5,0.6-2.1c0.9-1.1,2.5-1.5,3.6-0.7c0.3,0.2,0.6,0.5,0.8,0.7
	c0.8,0.8,1.8,1.6,4.8,1.6c4,0,7.7-2.6,7.7-2.6c0.4-0.3,1-0.2,1.3,0.2c0.3,0.4,0.2,1-0.2,1.3c-0.2,0.1-4.2,3-8.8,3
	c-3.8,0-5.1-1.3-6.1-2.2c-0.2-0.2-0.4-0.4-0.6-0.5c-0.3-0.2-0.7,0-1,0.3c-0.4,0.5-0.3,1.1,0.4,1.8c1.1,1.1,3.9,2.8,7.3,2.8
	c2.8,0,3.9-0.4,4.8-0.8c0.3-0.1,0.5-0.2,0.8-0.3c1.7-0.5,3,0.4,3.4,1.6c0.5,1.2,0,2.8-1.9,3.7C26.3,34.3,23.4,35.6,20,35.6z"/>
<path class="st0" d="M16.3,39.7c-0.5,0-0.9-0.3-0.9-0.8l-0.8-4.8c-0.1-0.5,0.3-1,0.8-1.1s1,0.3,1.1,0.8l0.8,4.8
	c0.1,0.5-0.3,1-0.8,1.1C16.4,39.7,16.3,39.7,16.3,39.7z"/>
<g>
	<path class="st0" d="M49.4,26c0-0.1,0.1-0.3,0.2-0.4c0.1-0.1,0.2-0.2,0.4-0.2H57c0.2,0,0.3,0.1,0.4,0.2c0.1,0.1,0.2,0.2,0.2,0.4
		v7.4c0,0.2-0.1,0.3-0.2,0.4C57.3,33.9,57.1,34,57,34h-0.6c-0.1,0-0.2,0-0.2-0.1c-0.1-0.1-0.1-0.1-0.1-0.2c0,0,0,0,0,0h-5.3
		c0,0,0,0,0,0c0,0.1,0,0.2-0.1,0.2C50.6,34,50.5,34,50.4,34h-0.5c-0.2,0-0.3-0.1-0.4-0.2c-0.1-0.1-0.2-0.2-0.2-0.4V26z M50.8,32.3
		C50.8,32.3,50.8,32.3,50.8,32.3l5.3,0.1c0,0,0.1,0,0.1-0.1v-5.4c0,0,0-0.1-0.1-0.1h-5.2c0,0-0.1,0-0.1,0.1V32.3z M55.9,28.6
		c0,0.1-0.1,0.3-0.2,0.4c-0.1,0.1-0.2,0.2-0.4,0.2h-1.1c0,0,0,0,0,0c0,0,0,0,0,0c0.3,0.8,0.7,1.3,1.3,1.7c0.1,0.1,0.2,0.2,0.2,0.3
		c0,0,0,0.1,0,0.1c0,0.1,0,0.2-0.1,0.2c-0.1,0.1-0.1,0.1-0.2,0.2c-0.1,0.1-0.2,0.2-0.3,0.3c0,0-0.1,0-0.2,0c-0.1,0-0.2,0-0.3-0.1
		c-0.5-0.3-0.9-0.8-1.2-1.4c0,0,0,0,0,0c0,0,0,0,0,0c-0.3,0.6-0.8,1.1-1.4,1.4c-0.1,0-0.2,0.1-0.2,0.1c-0.1,0-0.1,0-0.2,0
		c-0.1,0-0.3-0.1-0.3-0.3c0-0.1-0.1-0.1-0.1-0.2c-0.1-0.1-0.1-0.2-0.1-0.3c0,0,0-0.1,0-0.1c0-0.1,0.1-0.2,0.2-0.3
		c0.4-0.2,0.6-0.4,0.9-0.7c0.2-0.3,0.3-0.6,0.4-1c0,0,0-0.1-0.1-0.1h-1c-0.2,0-0.3-0.1-0.4-0.2c-0.1-0.1-0.2-0.2-0.2-0.4v-0.1
		c0-0.2,0.1-0.3,0.2-0.4c0.1-0.1,0.2-0.2,0.4-0.2h1.1c0,0,0.1,0,0.1-0.1c0-0.1,0-0.3,0-0.5c0-0.2,0.1-0.3,0.2-0.4
		c0.1-0.1,0.2-0.2,0.4-0.2h0.2c0.2,0,0.3,0.1,0.4,0.2c0.1,0.1,0.1,0.2,0.1,0.4c0,0.1,0,0.2,0,0.5c0,0,0,0.1,0.1,0.1h1.3
		c0.2,0,0.3,0.1,0.4,0.2c0.1,0.1,0.2,0.2,0.2,0.4V28.6z"/>
	<path class="st0" d="M69,30.1C69,30.2,69,30.2,69,30.1l0.5,0.1c0.1,0,0.3,0.1,0.4,0.2c0.1,0.1,0.1,0.2,0.1,0.3c0,0.5-0.1,1.2-0.2,2
		c-0.1,0.4-0.2,0.7-0.3,0.9c-0.2,0.2-0.4,0.3-0.8,0.4c-0.1,0-0.3,0-0.6,0h0c-0.1,0-0.3,0-0.4-0.1c-0.1-0.1-0.2-0.2-0.2-0.4
		c-0.1-0.2-0.1-0.4-0.2-0.6c0,0,0,0,0,0c0,0-0.1,0-0.1,0c0,0-0.1-0.1-0.1-0.1c0-0.2-0.1-0.4-0.2-0.7c0-0.1,0-0.1,0-0.2
		c0-0.1,0-0.1,0-0.2c0-0.1,0.1-0.2,0.3-0.2c0.1,0,0.1,0,0.2,0c0.1,0,0.1,0,0.2,0c0.1,0,0.2,0.1,0.3,0.3c0,0.1,0.1,0.2,0.1,0.3
		c0,0.1,0,0.1,0,0.2c0,0.1,0,0.1-0.1,0.2c-0.1,0.1-0.2,0.2-0.3,0.3l0,0c0,0,0,0,0,0s0,0,0,0c0.1,0,0.3,0,0.5,0c0.1,0,0.2,0,0.3-0.1
		c0.1-0.1,0.2-0.6,0.3-1.3c0,0,0-0.1-0.1-0.1h-5.5c0,0-0.1,0-0.1,0c-0.1,0-0.1,0.1-0.2,0.1c0,0,0,0,0,0c0,0,0,0,0,0l0.4,0.1
		c0.1,0,0.3,0.1,0.3,0.3c0,0.1,0.1,0.2,0.1,0.2c0,0.1,0,0.1,0,0.2c-0.2,0.5-0.4,0.9-0.6,1.2c-0.1,0.1-0.2,0.2-0.4,0.2
		c0,0-0.1,0-0.1,0c-0.1,0-0.2,0-0.4-0.1l-0.2-0.1c-0.1-0.1-0.2-0.2-0.2-0.3c0,0,0,0,0-0.1c0-0.1,0-0.2,0.1-0.3
		c0.3-0.3,0.4-0.7,0.6-1.2c0,0,0,0,0,0c0,0,0,0,0,0c-0.1,0-0.1,0-0.2,0c0,0-0.1,0-0.1,0c-0.1,0-0.2-0.1-0.2-0.2
		c-0.1-0.1-0.1-0.2-0.2-0.4c0-0.1-0.1-0.2-0.1-0.3c0,0,0-0.1,0-0.1c0-0.1,0.1-0.2,0.2-0.3c1.1-0.6,2.1-1.4,2.9-2.6c0,0,0,0,0,0
		c0,0,0,0,0,0h-2.2c-0.2,0-0.3-0.1-0.4-0.2c-0.1-0.1-0.2-0.2-0.2-0.4v-0.1c0-0.2,0.1-0.3,0.2-0.4c0.1-0.1,0.2-0.2,0.4-0.2h0.8
		c0,0,0,0,0,0c0,0,0,0,0,0c-0.1-0.2-0.1-0.4-0.2-0.6c0-0.1,0-0.1,0-0.2c0-0.1,0-0.1,0-0.2c0-0.1,0.1-0.2,0.3-0.3l0.2-0.1
		c0.1,0,0.2,0,0.2,0c0.1,0,0.1,0,0.2,0c0.1,0,0.3,0.1,0.3,0.3c0.1,0.2,0.2,0.3,0.2,0.5c0,0.1,0,0.1,0,0.2s0,0.1,0,0.2
		c0,0.1-0.1,0.2-0.2,0.2c0,0,0,0,0,0h1.1c0,0,0.1,0,0.1-0.1c0.2-0.3,0.3-0.7,0.4-1c0-0.1,0.1-0.2,0.3-0.3c0.1,0,0.2-0.1,0.3-0.1
		c0.1,0,0.1,0,0.2,0l0.3,0.1c0.1,0,0.2,0.1,0.3,0.2c0,0.1,0.1,0.1,0.1,0.2c0,0.1,0,0.1,0,0.2c-0.1,0.2-0.2,0.4-0.3,0.7c0,0,0,0,0,0
		c0,0,0,0,0,0h1.2c0.1,0,0.3,0.1,0.3,0.2c0.1,0.1,0.1,0.2,0.1,0.3c0,0,0,0.1,0,0.1c-0.1,0.5-0.2,0.8-0.3,1.2c0,0,0,0.1,0.1,0.1h0.5
		c0.1,0,0.3,0.1,0.3,0.2c0.1,0.1,0.1,0.2,0.1,0.3c0,0,0,0.1,0,0.1C69.2,29.4,69.1,29.7,69,30.1z M63.8,32.5
		C63.8,32.5,63.8,32.4,63.8,32.5c0-0.2,0-0.3,0.1-0.4c0.1-0.1,0.2-0.2,0.3-0.2h0c0,0,0.1,0,0.1,0c0.1,0,0.2,0,0.3,0.1
		c0.1,0.1,0.2,0.2,0.2,0.4c0,0.2,0.1,0.4,0.1,0.7c0,0,0,0,0,0.1c0,0.1,0,0.2-0.1,0.3c-0.1,0.1-0.2,0.2-0.4,0.2l-0.1,0c0,0,0,0-0.1,0
		c-0.1,0-0.2,0-0.3-0.1c-0.1-0.1-0.2-0.2-0.2-0.4C63.9,33,63.9,32.7,63.8,32.5z M67.9,29.7C67.9,29.6,67.9,29.6,67.9,29.7l-2.8-0.1
		c0,0-0.1,0-0.1,0.1c-0.1,0.2-0.3,0.3-0.5,0.5c0,0,0,0,0,0c0,0,0,0,0,0h3.2c0,0,0.1,0,0.1-0.1C67.8,30,67.8,29.8,67.9,29.7z
		 M65.3,32.4c0,0,0-0.1,0-0.1c0-0.1,0-0.2,0.1-0.2c0.1-0.1,0.2-0.2,0.3-0.2c0,0,0.1,0,0.1,0c0.1,0,0.2,0,0.3,0.1
		c0.1,0.1,0.2,0.2,0.3,0.3c0,0.2,0.1,0.3,0.1,0.5c0,0,0,0.1,0,0.1c0,0.1,0,0.2-0.1,0.3c-0.1,0.1-0.2,0.2-0.3,0.2l0,0
		c0,0-0.1,0-0.1,0c-0.1,0-0.2,0-0.3-0.1c-0.1-0.1-0.2-0.2-0.2-0.3C65.4,32.8,65.4,32.6,65.3,32.4z M67.2,27.9
		C67.2,27.9,67.2,27.9,67.2,27.9l-0.9-0.1c0,0-0.1,0-0.1,0.1c-0.1,0.2-0.2,0.3-0.3,0.4c0,0,0,0,0,0c0,0,0,0,0,0h1c0,0,0.1,0,0.1-0.1
		C67.1,28.3,67.1,28.2,67.2,27.9z"/>
	<path class="st0" d="M79.6,30.6c0.4,0,0.7,0.1,0.9,0.2c0.1,0.1,0.2,0.2,0.2,0.3c0,0,0,0.1,0,0.1c0,0.1,0,0.2-0.1,0.3
		c-0.3,0.3-0.6,0.6-1,0.9c0,0,0,0,0,0c0,0,0,0,0,0c0.7,0.1,1.4,0.2,2.3,0.3c0.1,0,0.2,0.1,0.2,0.2c0,0,0,0.1,0,0.1
		c0,0.1,0,0.1-0.1,0.2c-0.1,0.1-0.1,0.2-0.2,0.3c-0.1,0.1-0.2,0.3-0.3,0.3c-0.1,0.1-0.2,0.1-0.4,0.1c0,0-0.1,0-0.1,0
		c-1.2-0.1-2.1-0.3-3-0.7c0,0-0.1,0-0.1,0c-0.8,0.3-1.8,0.5-2.9,0.7c0,0-0.1,0-0.1,0c-0.1,0-0.2,0-0.3-0.1c-0.1-0.1-0.3-0.2-0.3-0.3
		c0-0.1-0.1-0.1-0.1-0.2c0,0-0.1-0.1-0.1-0.2c0,0,0-0.1,0-0.1c0-0.1,0.1-0.2,0.2-0.2c0.8-0.1,1.6-0.2,2.2-0.3c0,0,0,0,0,0
		c0,0,0,0,0,0c-0.2-0.1-0.3-0.3-0.5-0.4c0,0-0.1,0-0.1,0c-0.2,0.1-0.3,0.2-0.5,0.2c-0.1,0-0.2,0.1-0.3,0.1c-0.1,0-0.1,0-0.2,0
		c-0.2,0-0.3-0.1-0.4-0.2c0,0-0.1-0.1-0.1-0.1c-0.1-0.1-0.1-0.1-0.1-0.2c0,0,0,0,0-0.1c0-0.1,0.1-0.2,0.2-0.2
		c0.9-0.3,1.7-0.7,2.2-1.2c0,0,0-0.1,0-0.1c-0.3-0.1-0.4-0.3-0.5-0.7c0,0,0,0,0,0s0,0,0,0c-0.2,0.3-0.4,0.6-0.7,0.8
		c-0.1,0.1-0.3,0.2-0.4,0.2c0,0,0,0,0,0c-0.2,0-0.3-0.1-0.4-0.2l-0.1-0.1c-0.1-0.1-0.1-0.2-0.1-0.3c0-0.1,0.1-0.3,0.2-0.3
		c0.2-0.1,0.3-0.3,0.4-0.5c0,0,0,0,0,0c0,0,0,0,0,0h-0.6c-0.2,0-0.3-0.1-0.4-0.2c-0.1-0.1-0.2-0.2-0.2-0.4v-0.7
		c0-0.1,0.1-0.3,0.2-0.4c0.1-0.1,0.2-0.2,0.4-0.2h0.9c0,0,0,0,0,0c0,0,0,0,0,0c-0.1-0.2-0.2-0.4-0.3-0.6c0,0-0.1-0.1-0.1-0.1h-0.1h0
		c-0.1,0-0.3,0-0.4-0.1c-0.1-0.1-0.2-0.2-0.2-0.4c0,0,0-0.1,0-0.1c0-0.1,0-0.2,0.1-0.2c0.1-0.1,0.2-0.2,0.3-0.2
		c2.3-0.1,4.1-0.2,5.5-0.4c0.1,0,0.1,0,0.2,0c0.3,0,0.5,0.1,0.7,0.3l0.1,0.1c0.1,0.1,0.1,0.1,0.1,0.2c0,0,0,0.1,0,0.1
		c0,0.1-0.1,0.2-0.2,0.2c-0.2,0-0.3,0.1-0.5,0.1c0,0,0,0,0,0c0,0,0,0,0,0l0.2,0.1c0.1,0,0.2,0.1,0.3,0.2c0,0,0,0.1,0,0.1
		c0,0.1,0,0.2-0.1,0.2c-0.1,0.1-0.2,0.3-0.3,0.4c0,0,0,0,0,0c0,0,0,0,0,0h0.8c0.2,0,0.3,0.1,0.4,0.2c0.1,0.1,0.2,0.2,0.2,0.4v0.9
		c0,0.1-0.1,0.3-0.2,0.4c-0.1,0.1-0.2,0.2-0.4,0.2h-0.3c0,0,0,0,0,0c0,0,0,0,0,0c0.1,0.1,0.1,0.1,0.1,0.2c0.1,0.1,0.1,0.2,0.1,0.3
		c0,0,0,0,0,0.1c0,0.1-0.1,0.3-0.2,0.4l-0.1,0.1c-0.1,0.1-0.2,0.1-0.3,0.1c0,0-0.1,0-0.1,0c-0.1,0-0.3-0.1-0.4-0.2
		c-0.2-0.2-0.3-0.4-0.5-0.5c0,0,0,0,0,0c0,0,0,0,0,0c-0.1,0.3-0.2,0.5-0.4,0.6c-0.2,0.1-0.4,0.2-0.8,0.2h-0.4c0,0-0.1,0-0.1,0.1
		c-0.1,0.1-0.1,0.1-0.2,0.2c0,0,0,0,0,0c0,0,0,0,0,0H79.6z M76.4,28.9c0-0.1,0-0.1,0.1-0.2c0.1-0.1,0.1-0.1,0.2-0.1h0.8c0,0,0,0,0,0
		c0,0,0,0,0,0c0,0-0.1,0-0.1,0c0,0-0.1-0.1-0.1-0.1c0-0.1,0-0.1,0-0.1c0,0,0,0,0,0c0,0,0,0,0,0h-1.9c0,0-0.1,0-0.1,0.1v0.5
		c0,0,0,0,0,0c0,0,0,0,0,0c0-0.1,0.1-0.1,0.2-0.2c0.1,0,0.2,0,0.3,0L76.4,28.9C76.4,29,76.4,29,76.4,28.9z M76.6,27.3
		C76.6,27.3,76.6,27.3,76.6,27.3l0.9,0c0,0,0,0,0,0c0,0,0,0,0,0c-0.1-0.2-0.2-0.4-0.3-0.7c0,0-0.1-0.1-0.1-0.1c-0.1,0-0.3,0-0.6,0
		c0,0,0,0,0,0c0,0,0,0,0,0c0.1,0.1,0.1,0.2,0.2,0.3c0,0.1,0,0.1,0,0.2C76.8,27.2,76.7,27.2,76.6,27.3z M78.9,31.6
		C78.9,31.6,78.9,31.6,78.9,31.6C78.9,31.5,78.9,31.5,78.9,31.6l-1.7,0c0,0,0,0,0,0c0,0,0,0,0,0c0.2,0.2,0.5,0.3,0.8,0.4
		c0,0,0.1,0,0.1,0C78.4,31.9,78.7,31.7,78.9,31.6z M80.8,28.7C80.8,28.8,80.8,28.8,80.8,28.7C80.8,28.7,80.9,28.7,80.8,28.7l0.1-0.4
		c0,0,0-0.1-0.1-0.1h-1.9c0,0,0,0,0,0c0,0,0,0,0,0c0.1,0.1,0.1,0.1,0.1,0.2c0,0.1,0,0.2-0.1,0.3l-0.1,0.1c-0.1,0.1-0.2,0.2-0.4,0.2
		c0,0,0,0,0,0c-0.1,0-0.2,0-0.3-0.1c-0.1-0.1-0.3-0.2-0.4-0.3c0,0,0,0,0,0c0,0,0,0,0,0v0.4c0,0.1,0,0.2,0.1,0.2c0,0,0.1,0,0.3,0h0.8
		c0.1,0,0.2,0,0.2-0.1c0.1-0.1,0.2-0.2,0.2-0.2c0,0,0.1,0,0.1,0c0.1,0.1,0.3,0.1,0.5,0.2c0,0,0,0,0,0c0,0,0,0,0,0
		c-0.1-0.1-0.1-0.2-0.1-0.3c0-0.1,0-0.2,0.1-0.2l0.1-0.1c0.1-0.1,0.3-0.1,0.4-0.1h0C80.5,28.6,80.7,28.6,80.8,28.7z M78.5,27.3
		C78.5,27.3,78.5,27.3,78.5,27.3l0.9,0c0,0,0.1,0,0.1-0.1c0.2-0.3,0.3-0.6,0.5-0.9c0,0,0,0,0,0c0,0,0,0,0,0c-0.4,0-0.8,0.1-1.3,0.1
		c0,0,0,0,0,0c0,0,0,0,0,0c0,0.1,0.1,0.2,0.1,0.2c0,0.1,0,0.1,0,0.2s0,0.1,0,0.2C78.7,27.1,78.6,27.2,78.5,27.3z"/>
	<path class="st0" d="M90.3,30.1c0,0.1-0.1,0.3-0.2,0.4c-0.1,0.1-0.2,0.2-0.4,0.2h-1.9c0,0-0.1,0-0.1,0.1c-0.1,1.2-0.3,2.1-0.6,2.8
		c-0.1,0.1-0.2,0.2-0.3,0.2c0,0-0.1,0-0.1,0c-0.1,0-0.2,0-0.3-0.1c-0.1-0.1-0.1-0.1-0.2-0.2c-0.1-0.1-0.2-0.2-0.2-0.4
		c0-0.1,0-0.1,0-0.2c0-0.1,0-0.2,0-0.2c0.3-0.7,0.4-1.7,0.4-3.1v-1.8c0-0.1,0.1-0.3,0.2-0.4c0.1-0.1,0.2-0.2,0.4-0.2h2.7
		c0.1,0,0.3,0.1,0.4,0.2c0.1,0.1,0.2,0.2,0.2,0.4V30.1z M89.9,25.5c0.1,0,0.3,0.1,0.4,0.2c0.1,0.1,0.2,0.2,0.2,0.4v0.1
		c0,0.1-0.1,0.3-0.2,0.4c-0.1,0.1-0.2,0.2-0.4,0.2h-3.1c-0.1,0-0.3-0.1-0.4-0.2c-0.1-0.1-0.2-0.2-0.2-0.4v-0.1
		c0-0.2,0.1-0.3,0.2-0.4c0.1-0.1,0.2-0.2,0.4-0.2H89.9z M89,28.6C89,28.5,89,28.5,89,28.6l-1.1-0.1c0,0-0.1,0-0.1,0.1v0.8
		c0,0,0,0.1,0.1,0.1h1c0,0,0.1,0,0.1-0.1V28.6z M92.1,27.2C92.1,27.2,92.1,27.2,92.1,27.2l-0.1,1c0,0,0,0.1,0.1,0.1h2.2
		c0.2,0,0.3,0.1,0.4,0.2c0.1,0.1,0.2,0.2,0.2,0.4V29c0,0.1-0.1,0.3-0.2,0.4c-0.1,0.1-0.2,0.2-0.4,0.2h-0.1c0,0-0.1,0-0.1,0.1v3.8
		c0,0.2-0.1,0.3-0.2,0.4C93.9,34,93.8,34,93.7,34h-0.3c-0.1,0-0.3-0.1-0.4-0.2c-0.1-0.1-0.2-0.2-0.2-0.4v-3.8c0,0,0-0.1-0.1-0.1
		h-0.7c0,0-0.1,0-0.1,0.1c-0.1,1.7-0.6,3-1.4,4c-0.1,0.1-0.2,0.1-0.3,0.1c0,0,0,0,0,0c-0.1,0-0.3-0.1-0.4-0.2
		c-0.1-0.1-0.1-0.1-0.2-0.2c-0.1-0.1-0.2-0.2-0.2-0.3c0,0,0,0,0-0.1c0-0.1,0-0.2,0.1-0.3c0.2-0.3,0.4-0.6,0.6-1
		c0.2-0.4,0.3-0.7,0.3-1.1c0.1-0.4,0.1-0.7,0.1-1c0-0.3,0-0.6,0-1v-2.1c0-0.1,0.1-0.2,0.2-0.3C91,26,91.1,26,91.2,26
		c0,0,0.1,0,0.1,0l0.3,0.1c0,0,0.1,0,0.1,0c0.6-0.2,1.1-0.4,1.6-0.6c0.1-0.1,0.2-0.1,0.4-0.1c0,0,0.1,0,0.1,0c0.2,0,0.3,0.1,0.4,0.2
		l0.4,0.3c0.1,0.1,0.1,0.2,0.1,0.3c0,0,0,0,0,0.1c0,0.1-0.1,0.2-0.2,0.3C93.8,26.7,93,27,92.1,27.2z"/>
	<path class="st0" d="M101.6,30.2c0.1,0,0.1,0,0.2,0c0.1,0,0.1,0,0.2,0.1c0.1,0.1,0.2,0.2,0.2,0.3l0.1,0.3c0,0.1,0,0.1,0,0.2
		c0,0.1,0,0.2-0.1,0.3c-0.1,0.1-0.2,0.2-0.3,0.3c-0.7,0.3-1.6,0.7-2.7,1.1c-0.1,0-0.1,0-0.2,0c-0.1,0-0.1,0-0.2,0
		c-0.1-0.1-0.2-0.2-0.3-0.3L98.5,32c0-0.1,0-0.1,0-0.2c0-0.1,0-0.2,0.1-0.2c0.1-0.1,0.2-0.2,0.3-0.3c0.2-0.1,0.4-0.1,0.7-0.2
		c0,0,0.1,0,0.1-0.1l-0.2-4.7c0-0.1,0-0.3,0.1-0.4c0.1-0.1,0.2-0.2,0.4-0.2l0.4,0c0,0,0,0,0,0c0.1,0,0.3,0,0.4,0.1
		c0.1,0.1,0.2,0.2,0.2,0.4l0.2,4.2c0,0,0,0,0,0c0,0,0,0,0,0C101.2,30.4,101.4,30.3,101.6,30.2z M107,32.4c0.1,0.1,0.1,0.2,0.1,0.4
		c0,0,0,0,0,0.1c0,0.2-0.1,0.3-0.2,0.4l-0.4,0.4c-0.1,0.1-0.2,0.1-0.3,0.1c0,0,0,0-0.1,0c-0.1,0-0.2-0.1-0.3-0.2
		c-0.3-0.4-0.7-1-1.2-1.6c0,0-0.1,0-0.1,0c-0.6,0.7-1.3,1.4-2.1,1.8c-0.1,0-0.2,0.1-0.3,0.1c0,0-0.1,0-0.1,0c-0.1,0-0.3-0.1-0.4-0.2
		c-0.1-0.1-0.2-0.3-0.4-0.4c-0.1-0.1-0.1-0.1-0.1-0.2c0,0,0-0.1,0-0.1c0-0.1,0.1-0.2,0.2-0.3c0.6-0.3,1.1-0.6,1.5-1
		c0.4-0.4,0.8-0.9,1-1.4c0.3-0.5,0.5-1.1,0.7-1.8c0.2-0.6,0.3-1.4,0.4-2.2c0-0.2,0.1-0.3,0.2-0.4c0.1-0.1,0.2-0.1,0.3-0.1
		c0,0,0,0,0,0l0.4,0c0.1,0,0.3,0.1,0.4,0.2c0.1,0.1,0.1,0.2,0.1,0.3c0,0,0,0,0,0.1c-0.2,1.7-0.5,3-1,4.1c0,0,0,0.1,0,0.1
		C106.2,31.4,106.7,32,107,32.4z M103.8,28c0,0.1,0.1,0.2,0.1,0.2c0,0.1,0,0.1,0,0.2c0,0.1-0.1,0.2-0.3,0.3l-0.4,0.2
		c-0.1,0-0.1,0.1-0.2,0.1c-0.1,0-0.1,0-0.2,0c-0.1,0-0.2-0.1-0.3-0.3c-0.2-0.5-0.5-1-0.9-1.4c-0.1-0.1-0.1-0.2-0.1-0.3
		c0,0,0-0.1,0-0.1c0-0.1,0.1-0.2,0.2-0.3l0.3-0.1c0.1,0,0.2-0.1,0.3-0.1c0,0,0.1,0,0.1,0c0.2,0,0.3,0.1,0.4,0.2
		C103.3,27.1,103.6,27.5,103.8,28z"/>
	<path class="st0" d="M112.1,25.6c0-0.1,0.1-0.2,0.3-0.3c0.1,0,0.2-0.1,0.3-0.1c0.1,0,0.1,0,0.2,0l0.2,0.1c0.1,0,0.3,0.1,0.3,0.3
		c0,0.1,0.1,0.1,0.1,0.2c0,0.1,0,0.1,0,0.2c-0.2,0.5-0.4,0.9-0.5,1.4c0,0,0,0.1,0,0.1v6c0,0.2-0.1,0.3-0.2,0.4
		c-0.1,0.1-0.2,0.2-0.4,0.2h-0.2c-0.2,0-0.3-0.1-0.4-0.2c-0.1-0.1-0.2-0.2-0.2-0.4v-3.8c0,0,0,0,0,0c0,0,0,0,0,0c0,0,0,0,0,0
		c-0.1,0.1-0.1,0.1-0.2,0.1c0,0,0,0-0.1,0c-0.1,0-0.2-0.1-0.2-0.2c-0.1-0.2-0.1-0.3-0.2-0.5c-0.1-0.1-0.1-0.2-0.1-0.4
		c0,0,0-0.1,0-0.1c0-0.2,0.1-0.3,0.2-0.4C111.4,27.5,111.8,26.6,112.1,25.6z M119.6,27.5c0,0.1,0,0.2-0.1,0.3
		c-0.1,0.1-0.2,0.1-0.3,0.1c0,0-0.1,0-0.1,0c-0.1,1.5-0.4,2.6-0.8,3.5c0,0,0,0.1,0,0.1c0.2,0.4,0.5,0.7,0.8,0.9
		c0.1,0.1,0.2,0.2,0.2,0.4c0,0,0,0,0,0.1c0,0.1,0,0.2-0.1,0.3c0,0.1-0.1,0.1-0.1,0.2c-0.1,0.1-0.2,0.2-0.3,0.2c0,0,0,0-0.1,0
		c-0.1,0-0.2,0-0.3-0.1c-0.2-0.2-0.4-0.5-0.6-0.8c0,0,0,0,0,0c0,0,0,0,0,0c-0.2,0.3-0.5,0.6-0.8,0.8c-0.1,0.1-0.2,0.1-0.3,0.1
		c0,0-0.1,0-0.1,0c-0.1,0-0.3-0.1-0.4-0.2c-0.1-0.2-0.3-0.3-0.4-0.4c0,0,0,0,0-0.1c0,0,0-0.1,0-0.1v0h-1.3c0,0-0.1,0-0.1,0.1v0.1
		c0,0.2-0.1,0.3-0.2,0.4c-0.1,0.1-0.2,0.2-0.4,0.2h-0.1c-0.1,0-0.3-0.1-0.4-0.2c-0.1-0.1-0.2-0.2-0.2-0.4v-3.2
		c0-0.1,0.1-0.3,0.2-0.4c0.1-0.1,0.2-0.2,0.4-0.2h0.3c0,0,0.1,0,0.1-0.1V28c0,0,0-0.1-0.1-0.1h-0.3c-0.2,0-0.3-0.1-0.4-0.2
		c-0.1-0.1-0.2-0.2-0.2-0.4v-0.1c0-0.2,0.1-0.3,0.2-0.4c0.1-0.1,0.2-0.2,0.4-0.2h0.3c0,0,0.1,0,0.1-0.1v-0.9c0-0.2,0.1-0.3,0.2-0.4
		c0.1-0.1,0.2-0.2,0.4-0.2h0.2c0.1,0,0.3,0.1,0.4,0.2c0.1,0.1,0.2,0.2,0.2,0.4v0.9c0,0,0,0.1,0.1,0.1h0.2c0.1,0,0.3,0.1,0.4,0.2
		c0.1,0.1,0.2,0.2,0.2,0.4v0.1c0,0.1-0.1,0.3-0.2,0.4c-0.1,0.1-0.2,0.2-0.4,0.2h-0.2c0,0-0.1,0-0.1,0.1v1.3c0,0,0,0.1,0.1,0.1h0.4
		c0,0,0,0,0,0c-0.1-0.1-0.1-0.2-0.1-0.3c0-0.1,0-0.2,0.1-0.3c0.4-0.7,0.7-1.8,0.9-3.1c0-0.1,0.1-0.3,0.2-0.3
		c0.1-0.1,0.2-0.1,0.3-0.1c0,0,0.1,0,0.1,0l0.1,0c0.2,0,0.3,0.1,0.4,0.2c0.1,0.1,0.1,0.2,0.1,0.3c0,0,0,0.1,0,0.1
		c-0.1,0.3-0.1,0.6-0.2,0.9c0,0,0,0.1,0,0.1h1.2c0.2,0,0.3,0.1,0.4,0.2c0.1,0.1,0.2,0.2,0.2,0.4V27.5z M114.9,31.8
		C115,31.8,115,31.8,114.9,31.8l0.1-1.3c0,0,0-0.1-0.1-0.1h-0.5c0,0-0.1,0-0.1,0.1v1.2c0,0,0,0.1,0.1,0.1H114.9z M116.2,29.9
		C116.2,29.9,116.2,29.9,116.2,29.9l0,2.7c0,0,0,0,0,0c0,0,0,0,0,0c0.3-0.3,0.6-0.6,0.8-1c0,0,0-0.1,0-0.1c-0.2-0.5-0.3-1-0.4-1.6
		c0,0,0,0,0,0c0,0,0,0,0,0v0c-0.1,0.1-0.1,0.1-0.2,0.1C116.3,30,116.3,29.9,116.2,29.9z M118,28C118,27.9,118,27.9,118,28l-0.4-0.1
		c0,0-0.1,0-0.1,0.1c0,0.1-0.1,0.1-0.1,0.2c0,0,0,0.1,0,0.1c0.1,0.5,0.2,1,0.3,1.5c0,0,0,0,0,0c0,0,0,0,0,0
		C117.9,29.3,117.9,28.7,118,28z"/>
	<path class="st0" d="M126.2,32.1C126.2,32.1,126.2,32.2,126.2,32.1l1.2-0.1c0,0,0,0,0.1,0c0.1,0,0.2,0,0.3,0.1
		c0.1,0.1,0.2,0.2,0.2,0.4v0.2c0,0.2,0,0.3-0.1,0.4c-0.1,0.1-0.2,0.2-0.4,0.2c-0.7,0.1-1.9,0.2-3.6,0.5c0,0,0,0-0.1,0
		c-0.1,0-0.2,0-0.3-0.1c-0.1-0.1-0.2-0.2-0.2-0.4l0-0.3c0,0,0-0.1,0-0.1c0-0.1,0-0.2,0.1-0.3c0.1-0.1,0.2-0.2,0.3-0.2
		c0,0,0.4,0,1.2-0.1c0,0,0.1,0,0.1-0.1v-0.8c0,0,0-0.1-0.1-0.1H124c-0.2,0-0.3-0.1-0.4-0.2c-0.1-0.1-0.2-0.2-0.2-0.4v-0.1
		c0-0.1,0.1-0.3,0.2-0.4c0.1-0.1,0.2-0.2,0.4-0.2h0.8c0,0,0.1,0,0.1-0.1v-0.2c0-0.1,0.1-0.3,0.2-0.4c0.1-0.1,0.2-0.2,0.4-0.2h0.3
		c0.1,0,0.3,0.1,0.4,0.2c0.1,0.1,0.2,0.2,0.2,0.4v0.2c0,0,0,0.1,0.1,0.1h0.8c0.2,0,0.3,0.1,0.4,0.2c0.1,0.1,0.2,0.2,0.2,0.4v0.1
		c0,0.2-0.1,0.3-0.2,0.4c-0.1,0.1-0.2,0.2-0.4,0.2h-0.8c0,0-0.1,0-0.1,0.1V32.1z M129.5,31.1c0,0.2-0.1,0.3-0.2,0.4
		c-0.1,0.1-0.2,0.2-0.4,0.2h-0.2c-0.2,0-0.3-0.1-0.4-0.2c-0.1-0.1-0.2-0.2-0.2-0.4v-2c0,0,0,0,0,0c0,0,0,0,0,0l-0.6,0.4
		c-0.1,0-0.1,0-0.2,0c0,0-0.1,0-0.1,0c-0.1,0-0.2-0.1-0.2-0.2c0,0,0,0-0.1,0c-0.8,0-1.9,0.1-3.2,0.1c0,0,0,0,0,0
		c-0.1,0-0.3,0-0.4-0.1c-0.1-0.1-0.2-0.2-0.2-0.4l0-0.2c0-0.1,0-0.3,0.1-0.4c0.1-0.1,0.2-0.2,0.4-0.2h0.2c0,0,0.1,0,0.1-0.1
		c0.1-0.3,0.2-0.7,0.3-1c0,0,0-0.1-0.1-0.1h-0.5c-0.2,0-0.3-0.1-0.4-0.2c-0.1-0.1-0.2-0.2-0.2-0.4v-0.1c0-0.1,0.1-0.3,0.2-0.4
		c0.1-0.1,0.2-0.2,0.4-0.2h3.7c0.2,0,0.3,0.1,0.4,0.2c0.1,0.1,0.2,0.2,0.2,0.4v0.1c0,0.1-0.1,0.3-0.2,0.4c-0.1,0.1-0.2,0.2-0.4,0.2
		H127c0,0,0,0,0,0c0,0,0,0,0,0c0.6,0.7,1,1.4,1.2,1.9c0,0,0,0,0,0c0,0,0,0,0,0v-2.1c0-0.1,0.1-0.3,0.2-0.4c0.1-0.1,0.2-0.2,0.4-0.2
		h0.2c0.2,0,0.3,0.1,0.4,0.2c0.1,0.1,0.2,0.2,0.2,0.4V31.1z M125.3,27.9C125.3,27.9,125.3,28,125.3,27.9
		C125.3,28,125.3,28,125.3,27.9l1,0c0,0,0,0,0,0c0,0,0,0,0,0c0,0,0-0.1-0.1-0.1c-0.1-0.1-0.1-0.2-0.1-0.3c0,0,0-0.1,0-0.1
		c0-0.1,0.1-0.2,0.2-0.3l0.4-0.2c0,0,0,0,0,0c0,0,0,0,0,0h-1.1c0,0-0.1,0-0.1,0.1C125.5,27.3,125.4,27.7,125.3,27.9z M130.3,25.9
		c0-0.1,0.1-0.3,0.2-0.4c0.1-0.1,0.2-0.2,0.4-0.2h0.3c0.1,0,0.3,0.1,0.4,0.2c0.1,0.1,0.2,0.2,0.2,0.4v6.5c0,0.4,0,0.7-0.1,0.9
		c-0.1,0.2-0.2,0.3-0.4,0.5c-0.3,0.1-0.7,0.2-1.3,0.2c0,0,0,0,0,0c-0.1,0-0.3,0-0.4-0.1c-0.1-0.1-0.2-0.2-0.2-0.4
		c0-0.1-0.1-0.2-0.1-0.4c0,0,0-0.1,0-0.1c0-0.1,0-0.1,0.1-0.2c0.1-0.1,0.2-0.1,0.3-0.1h0c0.2,0,0.5,0,0.7,0c0.1,0,0.1,0,0.2-0.1
		c0,0,0.1-0.1,0.1-0.2V25.9z"/>
	<path class="st0" d="M142.5,29.9c0.4,0,0.7,0,0.9,0.1c0.1,0,0.2,0.1,0.3,0.2c0,0.1,0.1,0.1,0.1,0.2c0,0,0,0.1,0,0.1
		c-0.2,0.7-0.5,1.2-0.9,1.7c0,0,0,0.1,0,0.1c0.3,0.2,0.6,0.3,0.9,0.4c0.1,0,0.2,0.1,0.2,0.2c0,0,0,0.1,0,0.1c0,0.1,0,0.2-0.1,0.2
		c0,0.1-0.1,0.1-0.1,0.2c-0.1,0.1-0.2,0.2-0.4,0.3c-0.1,0-0.1,0-0.2,0c-0.1,0-0.1,0-0.2,0c-0.4-0.1-0.7-0.3-1.1-0.6c0,0-0.1,0-0.1,0
		c-0.3,0.2-0.6,0.4-0.9,0.5c-0.1,0-0.2,0.1-0.2,0.1c-0.1,0-0.1,0-0.2,0c-0.1,0-0.3-0.1-0.3-0.3c-0.1-0.1-0.2-0.2-0.2-0.3
		c0,0,0,0,0,0c0,0,0,0,0,0v0.2c0,0.2-0.1,0.3-0.2,0.4c-0.1,0.1-0.2,0.2-0.4,0.2H139c-0.2,0-0.3-0.1-0.4-0.2
		c-0.1-0.1-0.2-0.2-0.2-0.4v-0.1c0,0,0-0.1-0.1-0.1c-1.1,0.1-1.8,0.1-2.3,0.2c0,0,0,0,0,0c-0.1,0-0.2,0-0.3-0.1
		c-0.1-0.1-0.2-0.2-0.2-0.4l0-0.1c0-0.1,0-0.3,0.1-0.4c0.1-0.1,0.2-0.2,0.4-0.2c0.1,0,0.1,0,0.2,0c0,0,0.1,0,0.1-0.1v-2.5
		c0,0,0-0.1-0.1-0.1h-0.1c-0.2,0-0.3-0.1-0.4-0.2c-0.1-0.1-0.2-0.2-0.2-0.4c0-0.1,0.1-0.3,0.2-0.4c0.1-0.1,0.2-0.2,0.4-0.2h7.4
		c0.2,0,0.3,0.1,0.4,0.2c0.1,0.1,0.2,0.2,0.2,0.4c0,0.1-0.1,0.3-0.2,0.4c-0.1,0.1-0.2,0.2-0.4,0.2h-3.6c0,0-0.1,0-0.1,0.1v3.1
		c0,0,0,0,0,0c0,0,0,0,0,0c0.3-0.1,0.7-0.3,1-0.5c0,0,0-0.1,0-0.1c-0.2-0.2-0.3-0.4-0.5-0.7c0-0.1-0.1-0.1-0.1-0.2
		c0-0.1,0-0.1,0-0.2c0.1-0.1,0.2-0.2,0.3-0.2l0.1,0c0,0,0,0,0,0c0,0,0,0,0,0h-0.3c-0.1,0-0.3,0-0.4-0.1c-0.1-0.1-0.2-0.2-0.2-0.4
		c0-0.1,0.1-0.3,0.2-0.4c0.1-0.1,0.2-0.1,0.4-0.1H142.5z M142.4,25.4c0.1,0,0.3,0.1,0.4,0.2c0.1,0.1,0.2,0.2,0.2,0.4v1.9
		c0,0.1-0.1,0.3-0.2,0.4c-0.1,0.1-0.2,0.2-0.4,0.2h-5.2c-0.1,0-0.3-0.1-0.4-0.2c-0.1-0.1-0.2-0.2-0.2-0.4v-1.9
		c0-0.1,0.1-0.3,0.2-0.4c0.1-0.1,0.2-0.2,0.4-0.2H142.4z M138.5,29.7C138.5,29.7,138.5,29.7,138.5,29.7l-0.9-0.1c0,0-0.1,0-0.1,0.1
		v0.1c0,0,0,0.1,0.1,0.1h0.8C138.5,29.9,138.5,29.9,138.5,29.7L138.5,29.7z M137.6,30.8C137.5,30.8,137.5,30.8,137.6,30.8l-0.1,0.2
		c0,0,0,0.1,0.1,0.1h0.8c0,0,0.1,0,0.1-0.1v-0.1c0,0,0-0.1-0.1-0.1H137.6z M137.5,32.2C137.5,32.3,137.5,32.3,137.5,32.2l0.9,0
		c0,0,0.1,0,0.1-0.1v-0.1c0,0,0-0.1-0.1-0.1h-0.8c0,0-0.1,0-0.1,0.1V32.2z M141.5,26.5C141.5,26.5,141.6,26.5,141.5,26.5l0.1-0.2
		c0,0,0-0.1-0.1-0.1h-3.4c0,0-0.1,0-0.1,0.1v0.1c0,0,0,0.1,0.1,0.1H141.5z M141.5,27.5C141.5,27.5,141.6,27.5,141.5,27.5l0.1-0.2
		c0,0,0-0.1-0.1-0.1h-3.4c0,0-0.1,0-0.1,0.1v0.1c0,0,0,0.1,0.1,0.1H141.5z M142.1,31C142.1,31,142.1,30.9,142.1,31
		C142.1,30.9,142.1,30.9,142.1,31l-0.8-0.1c0,0,0,0,0,0c0,0,0,0,0,0c0.1,0.2,0.2,0.4,0.4,0.5c0,0,0.1,0,0.1,0
		C141.9,31.3,142,31.2,142.1,31z"/>
	<path class="st0" d="M150.4,26.9c0.4,0,0.7,0,0.8,0c0.1,0,0.2,0.1,0.3,0.2c0.1,0.1,0.1,0.2,0.1,0.3c0,1.2-0.2,2.5-0.7,3.7
		c0,0,0,0.1,0,0.1c0.2,0.2,0.4,0.4,0.6,0.5c0.1,0.1,0.2,0.3,0.2,0.4c0,0.2,0,0.3-0.1,0.4l-0.2,0.2c-0.1,0.1-0.2,0.2-0.3,0.2h0
		c-0.1,0-0.2,0-0.3-0.1c-0.1-0.1-0.2-0.3-0.4-0.4c0,0-0.1,0-0.1,0c-0.3,0.5-0.7,0.9-1.2,1.3c-0.1,0.1-0.2,0.1-0.3,0.1
		c0,0-0.1,0-0.1,0c-0.1,0-0.3-0.1-0.3-0.2c-0.1-0.1-0.1-0.1-0.2-0.2c-0.1-0.1-0.1-0.2-0.1-0.3c0,0,0,0,0-0.1c0-0.1,0.1-0.2,0.2-0.3
		c0.4-0.3,0.7-0.6,1-1.1c0,0,0-0.1,0-0.1l-0.2-0.1c0,0,0,0,0,0c0,0.1,0,0.1-0.1,0.1c0,0-0.1,0-0.1,0l-0.4-0.2
		c-0.1-0.1-0.2-0.2-0.3-0.3c0-0.1-0.1-0.2-0.1-0.3c0-0.1,0-0.1,0-0.2c0.1-0.6,0.3-1.3,0.5-2.2c0,0,0-0.1-0.1-0.1h0
		c-0.2,0-0.3-0.1-0.4-0.2c-0.1-0.1-0.2-0.2-0.2-0.4v-0.2c0-0.1,0.1-0.3,0.2-0.4c0.1-0.1,0.2-0.2,0.4-0.2h0.3c0,0,0.1,0,0.1-0.1
		c0.1-0.3,0.1-0.8,0.2-1.2c0-0.2,0.1-0.3,0.2-0.4c0.1-0.1,0.2-0.1,0.3-0.1c0,0,0,0,0.1,0l0.2,0c0.1,0,0.3,0.1,0.4,0.2
		c0.1,0.1,0.1,0.2,0.1,0.3c0,0,0,0.1,0,0.1c-0.1,0.4-0.1,0.7-0.2,1.1c0,0,0,0.1,0.1,0.1H150.4z M150.2,28.3
		C150.2,28.2,150.2,28.2,150.2,28.3l-0.5-0.1c0,0-0.1,0-0.1,0.1c-0.1,0.4-0.2,1-0.4,1.7c0,0,0,0.1,0,0.1c0.1,0.1,0.2,0.2,0.4,0.3
		c0,0,0.1,0,0.1,0C150,29.7,150.1,29,150.2,28.3z M156.1,28.8c0.2,0,0.3,0.1,0.4,0.2c0.1,0.1,0.2,0.2,0.2,0.4v0.2
		c0,0.2-0.1,0.3-0.2,0.4c-0.1,0.1-0.2,0.2-0.4,0.2h-1.4c0,0-0.1,0-0.1,0.1v2.4c0,0.3,0,0.6-0.1,0.8c-0.1,0.2-0.2,0.3-0.4,0.4
		c-0.3,0.1-0.6,0.2-1.1,0.2c0,0,0,0,0,0c-0.1,0-0.3,0-0.4-0.1c-0.1-0.1-0.2-0.2-0.3-0.4c0-0.1-0.1-0.2-0.1-0.3c0,0,0-0.1,0-0.1
		c0-0.1,0-0.1,0.1-0.2c0.1-0.1,0.2-0.1,0.3-0.1h0c0.1,0,0.2,0,0.3,0c0.1,0,0.1,0,0.2,0c0.1,0,0.1,0,0.2,0c0,0,0-0.1,0-0.1v-2.4
		c0,0,0-0.1-0.1-0.1H152c-0.1,0-0.3-0.1-0.4-0.2c-0.1-0.1-0.2-0.2-0.2-0.4v-0.2c0-0.1,0.1-0.3,0.2-0.4c0.1-0.1,0.2-0.2,0.4-0.2h1.2
		c0,0,0.1,0,0.1-0.1v-0.6c0-0.1,0-0.2,0.1-0.3c0.1-0.1,0.2-0.1,0.3-0.1c0,0,0.1,0,0.1,0c0.2-0.2,0.4-0.5,0.6-0.9c0,0,0,0,0,0
		c0,0,0,0,0,0h-2c-0.2,0-0.3-0.1-0.4-0.2c-0.1-0.1-0.2-0.2-0.2-0.4v-0.2c0-0.2,0.1-0.3,0.2-0.4c0.1-0.1,0.2-0.2,0.4-0.2h2.9
		c0,0,0,0,0.1,0c0,0,0.1,0,0.1,0c0.1,0,0.2,0,0.3,0.1l0.2,0.2c0.1,0.1,0.2,0.2,0.2,0.4c0,0,0,0.1,0,0.1c0,0.1,0,0.2-0.1,0.3
		c-0.5,0.7-1,1.3-1.4,1.7c0,0,0,0.1,0,0.1v0.3c0,0,0,0.1,0.1,0.1H156.1z"/>
</g>
</svg>
