<?xml version="1.0" encoding="utf-8"?>
<!-- Generator: Adobe Illustrator 25.2.1, SVG Export Plug-In . SVG Version: 6.00 Build 0)  -->
<svg version="1.1" id="Layer_1" xmlns="http://www.w3.org/2000/svg" xmlns:xlink="http://www.w3.org/1999/xlink" x="0px" y="0px"
	 viewBox="0 0 335.1 47.8" style="enable-background:new 0 0 335.1 47.8;" xml:space="preserve">
<g>
	<path d="M41.2,9.6H26.6v10.1h14.2v6H26.6v20.1h-6.4V3.6h21V9.6z"/>
	<path d="M70.6,35.5h-18l-4.7,10.2H41L61.8,1l20.1,44.8h-7L70.6,35.5z M68,29.6l-6.2-14.3l-6.5,14.3H68z"/>
	<path d="M116.4,5.9v7.5c-3.7-3.1-7.5-4.6-11.4-4.6c-4.3,0-8,1.6-10.9,4.7c-3,3.1-4.5,6.9-4.5,11.3C89.6,29.2,91,33,94,36
		c3,3,6.6,4.6,11,4.6c2.1,0,4-0.4,5.7-1.1c0.9-0.4,1.8-0.9,2.7-1.5c0.9-0.6,1.9-1.4,3-2.2v7.7c-3.6,2.1-7.5,3.1-11.5,3.1
		c-6,0-11.2-2.1-15.4-6.3c-4.2-4.2-6.4-9.3-6.4-15.3c0-5.4,1.8-10.1,5.3-14.4c4.4-5.1,10-7.7,16.9-7.7
		C109.2,2.8,112.8,3.8,116.4,5.9z"/>
	<path d="M147.6,9.6h-16.9v10.1h16.4v6h-16.4v14.1h16.9v6h-23.2V3.6h23.2V9.6z"/>
	<path d="M156,45.8V3.6h6.3c2.8,0,5.1,0.2,6.7,0.7c1.7,0.4,3.1,1.2,4.3,2.2c1.2,1.1,2.1,2.4,2.8,4c0.7,1.6,1.1,3.3,1.1,4.9
		c0,3-1.2,5.6-3.5,7.7c2.2,0.8,4,2.1,5.3,4c1.3,1.9,2,4.1,2,6.6c0,3.3-1.2,6.1-3.5,8.3c-1.4,1.4-3,2.4-4.7,2.9
		c-1.8,0.5-4.2,0.8-7.2,0.8H156z M162.3,21.7h2c2.3,0,4-0.5,5.1-1.6c1.1-1,1.7-2.6,1.7-4.6c0-2-0.6-3.5-1.7-4.5
		c-1.1-1-2.8-1.5-4.9-1.5h-2.2V21.7z M162.3,39.8h3.9c2.9,0,5-0.6,6.3-1.7c1.4-1.2,2.1-2.8,2.1-4.6c0-1.8-0.7-3.3-2-4.6
		c-1.3-1.2-3.7-1.8-7.1-1.8h-3.2V39.8z"/>
	<path d="M186.6,24.5c0-5.9,2.2-11,6.5-15.3c4.3-4.3,9.5-6.4,15.6-6.4c6,0,11.1,2.1,15.4,6.4c4.3,4.3,6.5,9.4,6.5,15.5
		c0,6.1-2.2,11.2-6.5,15.4c-4.3,4.2-9.6,6.4-15.7,6.4c-5.4,0-10.3-1.9-14.7-5.6C189,36.7,186.6,31.3,186.6,24.5z M193,24.6
		c0,4.7,1.6,8.5,4.7,11.5c3.1,3,6.7,4.5,10.8,4.5c4.4,0,8.1-1.5,11.2-4.6c3-3.1,4.6-6.9,4.6-11.3c0-4.5-1.5-8.2-4.5-11.3
		c-3-3.1-6.7-4.6-11.1-4.6c-4.4,0-8.1,1.5-11.1,4.6C194.5,16.4,193,20.1,193,24.6z"/>
	<path d="M236.5,24.5c0-5.9,2.2-11,6.5-15.3c4.3-4.3,9.5-6.4,15.6-6.4c6,0,11.2,2.1,15.4,6.4c4.3,4.3,6.5,9.4,6.5,15.5
		c0,6.1-2.2,11.2-6.5,15.4c-4.3,4.2-9.6,6.4-15.7,6.4c-5.4,0-10.3-1.9-14.7-5.6C238.9,36.7,236.5,31.3,236.5,24.5z M242.9,24.6
		c0,4.7,1.6,8.5,4.7,11.5c3.1,3,6.7,4.5,10.8,4.5c4.4,0,8.1-1.5,11.2-4.6c3-3.1,4.6-6.9,4.6-11.3c0-4.5-1.5-8.2-4.5-11.3
		c-3-3.1-6.7-4.6-11.1-4.6c-4.4,0-8.1,1.5-11.1,4.6C244.4,16.4,242.9,20.1,242.9,24.6z"/>
	<path d="M294.9,20.4l16.4-16.8h8.5l-19,19.1l19.2,23.1h-8.5L296.2,27l-1.3,1.3v17.4h-6.4V3.6h6.4V20.4z"/>
</g>
</svg>
