<svg id="head-about.svg" xmlns="http://www.w3.org/2000/svg" width="937.029" height="41.75" viewBox="0 0 937.029 41.75">
  <defs>
    <style>
      .cls-1 {
        fill: #fff;
        fill-rule: evenodd;
      }
    </style>
  </defs>
  <path id="新開発_高密着タフネスガード技術の最強_UV_" data-name="新開発！ 高密着タフネスガード技術の最強 UV " class="cls-1" d="M232.244,923.824h19.112a1.1,1.1,0,0,0,1.217-.721c-1.442-1.4-3.831-3.291-3.831-3.291l-2.074,2.66h-2.975V918.19c1.082-.181,1.443-0.586,1.533-1.218l-5.094-.45v5.95h-8.2Zm2.795,0.451a18.478,18.478,0,0,1,1.983,7.257c2.705,2.7,6.175-3.065-1.442-7.483Zm17.579,9.646a1.1,1.1,0,0,0,1.217-.721c-1.487-1.4-3.966-3.381-3.966-3.381l-2.074,2.8h-3.606a48.713,48.713,0,0,0,4.463-6.356,1.467,1.467,0,0,0,1.622-.856l-4.913-1.443a60.939,60.939,0,0,1-2.209,8.655H231.117l0.361,1.307h21.14Zm-9.06,8.97v-1.983h8.249a1.1,1.1,0,0,0,1.217-.721c-1.443-1.4-3.7-3.246-3.7-3.246l-2.074,2.66h-3.7v-3.426A1.367,1.367,0,0,0,245,935.048l-4.913-.541V939.6h-8.519l0.36,1.307h6.942a35.1,35.1,0,0,1-7.843,12.982l0.541,0.631a33.117,33.117,0,0,0,8.519-8.475v11.991h0.676c1.262,0,2.795-.767,2.795-1.127V943.387c1.848,1.623,3.967,4.237,4.417,6.4,3.336,2.253,5.95-4.553-4.327-6.987Zm23.214-10.683h-8.7v-9.6a73.744,73.744,0,0,0,11.81-2.66c1.172,0.361,1.939.316,2.344-.09l-4.147-3.38a49.007,49.007,0,0,1-9.556,4.913l-4.012-1.307v14.83c0,8.474-.991,16.362-7.572,22.493l0.541,0.586c9.556-5.9,10.592-14.921,10.592-23.034v-1.443h5.95v24.522h0.586c1.849,0,3.02-.857,3.02-1.127V933.515h4.553a1.1,1.1,0,0,0,1.217-.721c-1.623-1.532-4.282-3.651-4.282-3.651Zm28.45-11.359V925h-8.565v-4.147h8.565Zm-8.565,9.646v-4.237h8.565V930.5h-8.565Zm8.565,1.353v2.028h0.54c1.127,0,2.8-.811,2.84-1.172V921.345a3.788,3.788,0,0,0,1.668-.812l-3.741-2.884-1.713,1.938h-7.933l-3.7-1.758v40.163h0.631c1.623,0,2.84-.9,2.84-1.353V931.848h8.565Zm3.47,12.26c0.045-.541.045-1.082,0.045-1.623v-4.778h5.319v6.4h-5.364Zm14.064,1.307a1.1,1.1,0,0,0,1.217-.721c-1.352-1.352-3.561-3.155-3.561-3.155l-2.028,2.569h-1.127v-6.4h4.733a0.967,0.967,0,0,0,1.127-.721c-1.353-1.352-3.651-3.155-3.651-3.155l-2.029,2.569H290.308l0.316,1.307h4.913v4.778c0,0.541,0,1.082-.045,1.623h-6.175l0.36,1.307H295.4a13.87,13.87,0,0,1-5.77,10.413l0.451,0.586c6.22-2.885,7.978-7.077,8.474-11h5.5V956.1H304.6a3.385,3.385,0,0,0,2.66-.9v-9.782h5.5ZM307.3,930.5v-4.237h8.925V930.5H307.3Zm8.925-9.646V925H307.3v-4.147h8.925Zm1.262-3.426-1.713,2.164h-8.294l-3.651-1.623v15.687h0.541c1.4,0,2.93-.767,2.93-1.127v-0.676h8.925v21a0.759,0.759,0,0,1-.9.9c-0.811,0-4.282-.27-4.282-0.27v0.676a5.752,5.752,0,0,1,3.11,1.307,4.389,4.389,0,0,1,.812,2.525c4.237-.451,4.778-1.984,4.778-4.688V921.48a3.367,3.367,0,0,0,1.893-.856Zm16.009,6a11.131,11.131,0,0,1,4.1,5.815c3.47,2.344,6.31-4.643-3.7-6.175Zm14.063,19.112c0.045-.585.045-1.126,0.045-1.712v-6h6.446v7.707h-6.491Zm21.952,5.184h-0.541a35.191,35.191,0,0,1-1.487,5.319,1.158,1.158,0,0,1-.947.541c-0.586,0-1.848.045-3.516,0.045h-3.7c-1.532,0-1.668-.27-1.668-1.037v-8.789h10.593a1.1,1.1,0,0,0,1.217-.722c-1.623-1.442-4.237-3.561-4.237-3.561l-2.344,3.02h-5.229v-7.707h4.057a1,1,0,0,0,1.127-.722c-1.4-1.352-3.786-3.29-3.786-3.29l-2.074,2.749h-17.67A31.25,31.25,0,0,0,349.86,921.3a2.6,2.6,0,0,0,1.893-.586l-3.741-3.336-2.254,2.164H334.985l0.406,1.262h10.322a33.77,33.77,0,0,1-15.641,16.633l0.451,0.631a37.814,37.814,0,0,0,8.429-4.237l0.27,0.992h4.733v6.04c0,0.541-.045,1.127-0.045,1.667H332.461l0.406,1.263h10.908c-0.676,4.913-3.426,9.691-12.216,13.522l0.361,0.631c11.72-3.335,14.785-8.88,15.506-14.153h6.626v9.691c0,2.659.812,3.471,4.463,3.471H362.8c6.716,0,8.249-.586,8.249-2.164,0-.721-0.271-1.172-1.4-1.578ZM367.259,921.8a42.221,42.221,0,0,1-5.634,6.085,32.149,32.149,0,0,1-3.877-3.516,61.547,61.547,0,0,0,7.032-4.192c0.992,0.225,1.353.045,1.668-.406l-4.282-2.524a42.466,42.466,0,0,1-5.184,6.22,23.437,23.437,0,0,1-4.147-7.122l-0.721.451a31.1,31.1,0,0,0,16.858,20.194,4.077,4.077,0,0,1,3.336-2.975l0.09-.5a38.278,38.278,0,0,1-9.781-4.913,46.6,46.6,0,0,0,7.257-3.786c0.992,0.225,1.352.045,1.668-.361Zm22.878,33.13a3,3,0,1,0,0-6A3,3,0,1,0,390.137,954.926Zm0-35.114c-1.713,0-2.8,1.037-2.8,3.336,0,2.434.406,6.356,1.308,14.514l0.631,6.942h1.712l0.632-6.942c0.9-8.113,1.307-12.08,1.307-14.514C392.932,920.849,391.85,919.812,390.137,919.812Zm38.151,30.426V944.6h10.5v5.634h-10.5Zm13.883-5.138a3.2,3.2,0,0,0,1.713-.812l-3.787-2.794-1.712,1.8h-9.917l-3.516-1.488V954.34h0.5c1.352,0,2.84-.766,2.84-1.081v-1.668h10.5v2.028h0.541c1.127,0,2.795-.811,2.84-1.127V945.1Zm5.319-6.671H419.678l-3.922-1.713v21.23h0.586c1.488,0,2.975-.811,2.975-1.172V939.691h28.624v13.432a0.806,0.806,0,0,1-.992.9c-0.992,0-5.229-.316-5.229-0.316v0.676a7.013,7.013,0,0,1,3.7,1.217,3.774,3.774,0,0,1,.947,2.435c4.6-.406,5.184-1.984,5.184-4.553V940.367a3.677,3.677,0,0,0,1.893-.9l-4.192-3.155Zm-21.456-5.319v-5.364h15.055v5.364H426.034Zm15.641,3.29c1.172,0,3.02-.676,3.065-0.992v-6.986a3.358,3.358,0,0,0,1.848-.947l-4.056-3.065-1.894,2.028H426.3l-3.831-1.577v11.9h0.541c1.442,0,3.02-.812,3.02-1.127v-1.262h15.055V936.4h0.586Zm5.094-14.785h-11.45v-3.38c1.082-.136,1.488-0.586,1.578-1.217l-5.229-.5v5.093h-18.21l0.36,1.307h38.991a1.072,1.072,0,0,0,1.217-.721c-1.8-1.532-4.688-3.7-4.688-3.7Zm50.358,1.172a42.517,42.517,0,0,1-2.074,4.733l0.541,0.361a30.893,30.893,0,0,0,5.634-4.418,2.352,2.352,0,0,0,1.713-.5l-3.786-3.607-2.073,2.119H484.009v-3.245c1.082-.136,1.533-0.586,1.578-1.217l-5.319-.5v4.958H468.1a13.279,13.279,0,0,0-.541-2.434h-0.721a6.684,6.684,0,0,1-3.426,6.175,2.2,2.2,0,0,0-1.262,2.705c0.5,1.262,2.3,1.352,3.516.5,1.352-.857,2.569-2.75,2.569-5.635h28.894ZM476.978,924.5a11.788,11.788,0,0,1,5.138,5.139c3.787,1.8,5.545-5.59-4.778-5.59Zm-7.573,4.463c-0.271,2.749-2.7,4.733-4.733,5.409-1.082.5-1.848,1.4-1.488,2.479,0.451,1.172,2.119,1.352,3.471.721,2.119-.946,4.463-3.786,3.516-8.609h-0.766Zm15.055,11.945c8.475,0,10.007-.541,10.007-2.119,0-.586-0.315-0.946-1.4-1.307l-0.135-4.417h-0.586a19.972,19.972,0,0,1-1.4,4.327,1.149,1.149,0,0,1-1.082.5c-0.766.09-2.749,0.09-5.228,0.09h-6.086a42.357,42.357,0,0,0,13.839-10.413c1.036,0.361,1.442.226,1.8-.225l-4.012-2.66c-2.93,4.238-7.618,8.294-13.388,11.675v-7.708a1.377,1.377,0,0,0,1.353-1.127l-4.6-.451v11.044a64.563,64.563,0,0,1-12.351,4.823l0.271,0.721a67.847,67.847,0,0,0,12.666-3.7c0.631,0.721,1.938.947,4.417,0.947h5.9Zm9.511,12.756h-9.916v-9.646a1.389,1.389,0,0,0,1.4-1.127l-5.049-.5v11.269h-9.781v-7.257c1.127-.18,1.533-0.586,1.623-1.262l-5.229-.5v13.388h0.631c1.4,0,2.975-.631,2.975-0.992v-2.074h23.349v2.57H494.6c1.4,0,3.02-.631,3.02-0.992V946.407c1.127-.18,1.533-0.586,1.623-1.262l-5.274-.5v9.015Zm-1.127-23.8c2.525,1.893,5.229,5.274,5.815,8.159,3.7,2.614,6.356-5.409-5.364-8.519Zm48.826,9.6v3.787H525.082v-3.787H541.67Zm-16.588,14.289v-3.966H541.67v3.966H525.082Zm0-9.2H541.67v3.922H525.082v-3.922Zm19.337-11.179h-11.9v-4.057H546.9a1.073,1.073,0,0,0,1.217-.721c-1.533-1.4-3.967-3.291-3.967-3.291l-2.164,2.7h-9.466v-3.922h16a1.1,1.1,0,0,0,1.217-.721c-1.622-1.487-4.192-3.426-4.192-3.426l-2.3,2.795h-7.122a35.387,35.387,0,0,0,4.643-4.012,1.447,1.447,0,0,0,1.668-.856l-5.229-1.442a63.337,63.337,0,0,1-2.7,6.31h-8.43c1.443-1.307.9-5-5.679-6.175l-0.451.315a13.472,13.472,0,0,1,3.516,5.86H512.821l0.406,1.352h15.551v3.922H514.444l0.406,1.307h13.928v4.057h-17.9l0.406,1.307h10.142a41.9,41.9,0,0,1-11.765,18.572l0.541,0.586a37.64,37.64,0,0,0,11.269-10.5v14.74h0.541c1.532,0,3.065-.857,3.065-1.217v-1.8H541.67V957.9h0.5a5.625,5.625,0,0,0,3.11-1.081V940.141a3.542,3.542,0,0,0,1.848-.946l-4.1-3.11-1.848,2.118H525.307l-0.676-.315c0.451-1.037.9-2.119,1.307-3.2h23.845a1,1,0,0,0,1.172-.676c-1.532-1.487-4.237-3.606-4.237-3.606Zm42.655-5.274a39.9,39.9,0,0,1-5.95,10.232,60.924,60.924,0,0,0-10.278-4.642,57.21,57.21,0,0,0,4.6-5.409,3.28,3.28,0,0,0,1.668.811,10.532,10.532,0,0,0,2.524-.586,54.16,54.16,0,0,1,6.942-1.127C587.074,927.34,587.3,927.52,587.074,928.106Zm-10.188-1.8c0.451-.676.857-1.307,1.263-1.983,0.676-1.127,1.307-1.488,1.307-2.344,0-.9-2.57-2.389-4.733-2.705a9.811,9.811,0,0,0-2.795-.045l-0.225.767c1.532,0.721,2.7,1.487,2.7,2.3,0,2.7-7.482,13.027-14.424,18.3l0.676,0.9a40.267,40.267,0,0,0,9.286-6.942,38.167,38.167,0,0,1,9.33,6.04,61.685,61.685,0,0,1-18.977,15.1l0.586,0.946a53.739,53.739,0,0,0,20.69-13.748c3.156,3.516,3.877,5.364,5.364,5.319a1.757,1.757,0,0,0,1.8-1.983c-0.09-1.893-2.208-4.057-4.823-6A70.631,70.631,0,0,0,590.68,930c0.586-1.081,2.208-1.487,2.208-2.434,0-1.352-3.2-3.516-4.327-3.516-0.856,0-1.262.9-2.479,1.172a67.682,67.682,0,0,1-9.015,1.082h-0.181Zm26.843-2.569-0.811.315a12.251,12.251,0,0,0,.406,2.705c0.45,1.307,2.659,3.7,4.192,3.7,0.946,0,1.983-.946,3.155-1.217a153.432,153.432,0,0,1,16.813-2.524c0.406,0,.677.135,0.5,0.721-2.614,10.368-11.088,20.465-23.845,26.955l0.631,0.992c13.7-4.958,21.817-13.432,26.73-24.611,0.676-1.443,2.254-2.254,2.254-3.381,0-1.4-3.516-4.192-5.094-4.192-0.9,0-1.487.811-2.839,1.082-2.209.5-15.732,1.938-18.572,1.938C605.623,926.213,604.586,924.861,603.729,923.734ZM651.8,918.28a21.127,21.127,0,0,1,5.725,4.733c0.992,1.352,1.442,2.253,2.614,2.253a1.923,1.923,0,0,0,1.939-1.938c0-3.2-5.094-5.048-9.782-5.77Zm-8.023,9.33a9.226,9.226,0,0,0,.405,3.02c0.586,1.4,2.615,3.111,3.877,3.111,1.172,0,1.442-.992,2.885-1.4,2.389-.631,9.376-2.389,10.953-2.524,0.586-.09.631,0.09,0.316,0.631-3.606,6.311-14.965,14.875-24.116,19.518l0.586,1.037A63.28,63.28,0,0,0,656.9,940.727a13.184,13.184,0,0,1,.09,1.488c0,2.389-.225,6.987-0.406,8.249a25.338,25.338,0,0,0-.4,2.975c0,1.217.721,3.561,2.118,3.561,1.488,0,1.8-1.262,1.8-2.344,0-1.037-.18-2.84-0.18-4.327,0-6.942.225-8.655,0.225-9.782a2.625,2.625,0,0,0-1.036-1.713,52.634,52.634,0,0,0,6.986-7.347c0.541-.721,2.479-1.037,2.479-2.029,0-1.036-3.02-3.155-4.282-3.155-0.721,0-.946.812-2.434,1.217-2.434.541-11.72,2.254-14.289,2.254-1.352,0-2.209-1.352-3.02-2.389Zm18.932,11.63a21.663,21.663,0,0,1,8.2,7.347c0.857,1.262,1.353,1.668,2.3,1.668a1.7,1.7,0,0,0,1.713-1.758c0-3.967-5.364-6.942-11.765-8.023Zm24.765-14.965a9.186,9.186,0,0,0,.54,2.93c0.541,1.262,2.435,3.425,3.922,3.425,1.172,0,1.442-.9,2.885-1.307,2.389-.676,8.519-2.208,11.314-2.614,0.5-.09.766,0.045,0.541,0.676-4.057,9.105-14.83,19.969-25.423,25.468l0.631,1.037A52.935,52.935,0,0,0,701.9,940.412a35.648,35.648,0,0,1,9.376,8.745c2.118,2.614,2.93,4.011,4.327,4.011a1.856,1.856,0,0,0,1.848-1.983c0-4.147-7.122-8.925-14.469-11.9a75.862,75.862,0,0,0,7.3-10.007c0.586-.856,2.164-1.307,2.164-2.3,0-1.172-3.291-3.831-4.778-3.831-0.767,0-1.353.992-2.344,1.262-2.389.586-11,2.164-13.658,2.164-1.533,0-2.48-1.533-3.291-2.66Zm58.794,6.085c0.451-1.758.767-3.561,0.992-4.6,0.361-1.758,1.442-1.758,1.442-2.885,0-1.217-3.29-3.065-5.228-3.11a13.409,13.409,0,0,0-3.426.766v0.857a15.739,15.739,0,0,1,2.84.811,1.334,1.334,0,0,1,.811,1.533,53.5,53.5,0,0,1-1.127,7.032c-4.868.586-9.646,1.127-11,1.127s-2.073-1.4-2.794-2.66l-0.812.18a5.662,5.662,0,0,0,.226,3.02c0.4,1.218,2.344,3.516,3.561,3.516,0.946,0,1.4-.676,2.795-1.036,1.307-.316,4.732-0.992,7.3-1.443-1.938,6.536-5.5,14.875-16.092,22.493l0.676,0.857c13.793-6.807,17.67-18.391,19.2-23.936a73.546,73.546,0,0,1,8.52-.9,0.478,0.478,0,0,1,.54.541c0,2.884-1.758,13.387-4.552,16.9-0.631.766-1.082,0.857-2.254,0.541a51.58,51.58,0,0,1-5.319-2.073l-0.5.856c2.615,2.073,3.967,2.885,4.418,4.508,0.27,1.126.676,1.577,1.622,1.577,1.894,0,4.1-1.577,5.274-3.876,2.615-4.959,3.877-11.134,4.688-16.814,0.225-1.4,1.488-1.307,1.488-2.344,0-1.081-2.975-3.515-4.057-3.515-0.857,0-1.262,1.081-2.479,1.217Zm8.384-7.888a20.074,20.074,0,0,1,4.057,4.192c0.857,1.082,1.4,1.983,2.119,1.983a1.219,1.219,0,0,0,1.262-1.307,3.539,3.539,0,0,0-1.488-2.66,16.261,16.261,0,0,0-5.409-2.929Zm4.012-2.975a20.5,20.5,0,0,1,4.1,3.786c0.947,1.082,1.442,2.074,2.209,2.074a1.143,1.143,0,0,0,1.217-1.308,3.7,3.7,0,0,0-1.668-2.794,16.623,16.623,0,0,0-5.364-2.48Zm10.768,15.6a8.557,8.557,0,0,0,.307,2.8c0.577,1.713,2.537,4.147,3.728,4.147,1.23,0,1.691-.767,4.074-1.082,2.883-.406,13.068-1.082,15.6-1.082,2.46,0,3.8.09,5.189,0.09s1.96-.541,1.96-1.442c0-1.443-1.807-2.389-3.536-2.389-0.961,0-2.229.27-4.8,0.5-1.922.18-14.874,1.172-18.487,1.172-1.729,0-2.382-1.353-3.266-2.975Zm37.082-13.523c2.208,0.271,3.335.631,3.516,2.074,0.315,2.208.315,7.3,0.315,10.953,0,3.246,0,10.232-.36,13.568-0.181,1.8-.586,2.705-0.586,3.741,0,2.074.9,4.508,2.659,4.508,1.217,0,1.668-.631,1.668-2.164,0-.721-0.09-2.118-0.135-4.192-0.045-4.553-.045-11.539,0-15.055a31.787,31.787,0,0,1,6.941,3.741c2.885,2.389,3.336,4.237,5.184,4.237a1.786,1.786,0,0,0,1.8-1.938c0-1.623-1.217-2.84-2.75-3.786a35.813,35.813,0,0,0-11.178-3.832c0.045-2.569.135-5.634,0.4-7.663,0.181-1.487,1.037-1.758,1.037-2.794,0-1.172-3.336-3.021-5.364-3.021a12.5,12.5,0,0,0-3.2.767Zm13.883,3.11a21.729,21.729,0,0,1,4.1,4.147c0.9,1.127,1.4,2.029,2.119,2.029a1.2,1.2,0,0,0,1.262-1.307,3.619,3.619,0,0,0-1.533-2.75,16.844,16.844,0,0,0-5.364-2.84Zm3.877-3.7a22.142,22.142,0,0,1,4.1,3.742c0.991,1.171,1.487,2.073,2.253,2.073a1.062,1.062,0,0,0,1.172-1.217,3.394,3.394,0,0,0-1.667-2.795,14.653,14.653,0,0,0-5.319-2.479Zm30.081,12.531c-1.939.767-3.877,1.533-5.725,2.254V928.2h5.589a1.047,1.047,0,0,0,1.172-.721c-1.352-1.442-3.606-3.381-3.606-3.381l-1.983,2.795h-1.172v-8.654c1.127-.136,1.578-0.586,1.668-1.263l-5.094-.54v10.457h-6.4l0.361,1.307h6.04v8.925c-3.11,1.172-5.679,2.119-7.077,2.525l1.893,4.372a1.689,1.689,0,0,0,.9-1.217c1.532-.9,2.93-1.758,4.282-2.614v12.756c0,0.631-.225.856-0.946,0.856-0.812,0-4.688-.27-4.688-0.27v0.676a6.038,6.038,0,0,1,3.38,1.262,4.017,4.017,0,0,1,.857,2.525c4.327-.451,4.823-1.984,4.823-4.779v-15.19c2.389-1.533,4.372-2.885,6-3.922Zm18.255,1.939a31.316,31.316,0,0,1-6.085,11,26.4,26.4,0,0,1-7.167-11h13.252Zm2.3-3.516-2.389,2.208h-4.372v-8.023h11.179a1.08,1.08,0,0,0,1.172-.721c-1.578-1.488-4.238-3.561-4.238-3.561l-2.344,3.02h-5.769V918.55c1.172-.225,1.577-0.631,1.668-1.307l-5.274-.5v8.114h-10.1l0.36,1.262h9.737v8.023h-9.241l0.406,1.308h2.7a34.052,34.052,0,0,0,6.221,13.027,38.248,38.248,0,0,1-14.65,8.834l0.361,0.677a40.63,40.63,0,0,0,16.137-7.438,32.376,32.376,0,0,0,11.224,7.347,4.368,4.368,0,0,1,3.471-3.02l0.09-.5a37.379,37.379,0,0,1-12.351-5.95,33.718,33.718,0,0,0,7.888-12.3c1.082-.09,1.578-0.226,1.893-0.676Zm52.7-9.782a1,1,0,0,0,1.127-.721c-1.488-1.4-4.012-3.426-4.012-3.426l-2.163,2.84h-5.635l0.361,1.307h10.322Zm-32.41-5.5a48,48,0,0,1-7.888,12.486l0.451,0.5a41.887,41.887,0,0,0,10.412-10.007c1.037,0.18,1.488,0,1.713-.5Zm0.271,9.781a58.932,58.932,0,0,1-8.61,15.822l0.5,0.5a37.567,37.567,0,0,0,5.094-4.913v20.149h0.586a4.15,4.15,0,0,0,2.84-1.037V935.769a1.509,1.509,0,0,0,1.352-.856l-1.893-.676c1.262-1.713,2.344-3.381,3.2-4.824,1.082,0.181,1.488-.045,1.758-0.5Zm3.155,24.116c3.02-4.012,4.959-10.052,6.04-16.543a1.475,1.475,0,0,0,1.533-1.127l-4.733-.766a60.084,60.084,0,0,1-3.561,18.03Zm18.662-23.124a1.048,1.048,0,0,0,1.172-.721c-1.037-.947-2.525-2.029-3.291-2.615,2.028,0.091,3.065-3.786-3.11-5.9l-0.5.315a11.089,11.089,0,0,1,2.389,5.094,3.034,3.034,0,0,0,.5.315l-1.938,2.209h-2.75v-7.3a1.588,1.588,0,0,0,1.578-1.263l-5-.54v9.105h-7.032l0.361,1.307h6.671v30.336h0.631c1.307,0,2.795-.856,2.795-1.307V927.43h7.528Zm-6.221,4.643c2.164,4.327,2.705,10.683,2.75,14.018,2.209,3.516,6.671-4.6-2.074-14.334Zm11.99-1.082H915.58l0.36,1.352h5.319v20.78c0,0.631-.18.857-0.946,0.857-0.812,0-4.778-.271-4.778-0.271v0.676a6.049,6.049,0,0,1,3.516,1.217,3.969,3.969,0,0,1,.766,2.48c4.327-.406,4.913-2.254,4.913-4.823V932.343h3.561a1.047,1.047,0,0,0,1.172-.721c-1.532-1.487-4.147-3.561-4.147-3.561Zm31.474-2.119a21.21,21.21,0,0,1-1.712,7.3c-1.758,3.921-5.86,10.773-8.7,10.773-1.848,0-3.7-3.291-3.7-7.393a14.411,14.411,0,0,1,4.462-10.187,16.933,16.933,0,0,1,8.339-4.552A7.365,7.365,0,0,1,954.536,928.872Zm-0.676,25.874c14.83-.856,19.924-8.429,19.924-16.182,0-9.376-7.212-15.777-16.813-15.777a19.65,19.65,0,0,0-13.3,4.823,17.512,17.512,0,0,0-6.22,12.847c0,5.68,3.2,10.683,6.4,10.683,4.869,0,10.052-8.61,11.946-14.109a22.8,22.8,0,0,0,1.442-7.482,8.48,8.48,0,0,0-2.254-5.049c0.586-.045,1.127-0.09,1.668-0.09,7.437,0,13.207,5.184,13.207,13.252,0,8.114-5.048,13.929-16.182,16.092Zm58.88-34.348V924H992.862V920.4h19.878Zm-19.878,8.745v-3.832h19.878v3.832H992.862Zm0,1.262h19.878v1.8h0.59c1.12,0,2.97-.676,3.02-0.992V921.029a3.352,3.352,0,0,0,1.89-.9l-4.1-3.11-1.85,2.073H993.132l-3.831-1.623v15.371h0.54c1.488,0,3.021-.811,3.021-1.172v-1.262Zm5.454,8.835h-7.077v-3.967h7.077v3.967Zm-7.077,6.716h7.077v3.7c-2.479.361-4.868,0.722-7.077,1.082v-4.778Zm0-5.409h7.077v4.1h-7.077v-4.1Zm31.151-5.274a1.084,1.084,0,0,0,1.17-.721c-1.58-1.487-4.33-3.651-4.33-3.651l-2.34,3.11H981.953l0.406,1.262h5.364V951.23c-2.434.316-4.463,0.586-5.77,0.721l2.029,4.192a1.635,1.635,0,0,0,1.081-1.036c5.68-1.8,10.007-3.291,13.253-4.418v7.393H998.9c1.758,0,2.888-.767,2.888-0.992V935.273h20.6Zm-6.99,5.139a29.177,29.177,0,0,1-3.43,7.528,18.508,18.508,0,0,1-5.23-7.528h8.66Zm2.12-3.426-2.26,2.119h-12.48l0.4,1.307h2.62a25.872,25.872,0,0,0,4.6,9.691,26.722,26.722,0,0,1-7.8,6.581l0.4,0.631a29.874,29.874,0,0,0,9.11-5.364,25.191,25.191,0,0,0,8.65,5.274,4.2,4.2,0,0,1,3.11-3.155l0.09-.451a29.875,29.875,0,0,1-9.64-3.921,27.349,27.349,0,0,0,5.23-8.835c0.99-.09,1.44-0.181,1.75-0.631Zm44.18-15.776a21.206,21.206,0,0,1,3.88,3.876c-4.24.135-8.34,0.225-11.77,0.271a49.431,49.431,0,0,0,4.83-6.536,1.459,1.459,0,0,0,1.66-.9l-5.54-1.4a72.261,72.261,0,0,1-2.57,8.88c-2.52.045-4.64,0.045-6.09,0.045l1.63,4.192a1.474,1.474,0,0,0,1.21-.857c7.53-1.081,13.17-1.938,17.36-2.7a11.436,11.436,0,0,1,1.67,3.651c3.74,2.479,6.04-5.86-5.82-8.88Zm-19.16,14.83-1.93,1.983h-5.59c0.31-2.84.58-6,.72-8.159h5v2.119h0.54a4.912,4.912,0,0,0,2.84-.992v-9.962a3.5,3.5,0,0,0,1.89-.856l-3.92-3.02-1.8,1.983h-9.38l0.36,1.307h9.47V928.6h-4.28l-3.7-1.4c-0.27,3.561-.94,10.142-1.58,14.785,1.76,0.27,2.57.18,3.43-.316,0.09-.721.18-1.533,0.27-2.389h6.18c-0.45,8.159-1.36,13.162-2.62,14.289a2.18,2.18,0,0,1-1.62.451c-0.95,0-3.83-.271-5.59-0.406v0.721a11.512,11.512,0,0,1,3.88,1.262,3.141,3.141,0,0,1,.72,2.39,7.341,7.341,0,0,0,4.87-1.533c2.02-1.758,3.2-7.212,3.69-16.723a2.684,2.684,0,0,0,1.8-.676Zm8.39,6.4V935h5.59v7.437h-5.59ZM1065.76,935v7.437h-5.91V935h5.91Zm-2.35,11.9a41.944,41.944,0,0,1,3.2,4.823l-6.76.541v-8.519h5.91v2.208h0.54c1.04,0,2.7-.721,2.75-1.036V935.5a3.759,3.759,0,0,0,1.71-.812l-3.74-2.794-1.67,1.848h-5.5V930.09c0.95-.136,1.26-0.451,1.35-1.037l-4.68-.5v5.184h-5.37l-3.42-1.533v14.56h0.45c1.35,0,2.75-.722,2.75-1.037v-1.983h5.59v8.744c-5.14.406-9.38,0.676-11.9,0.721l2.07,4.328a1.667,1.667,0,0,0,1.17-.992c8.34-1.532,14.56-2.75,19.25-3.786a16,16,0,0,1,1.62,4.462c3.61,2.93,6.54-4.958-4.82-10.638Zm63.86-26.688h-12.93v1.875l5.68,0.74,0.05,17.617c0,9.672-3.16,13.224-9.48,13.224-5.57,0-9.13-3.01-9.13-12.287v-4.441c0-4.836,0-9.573.1-14.261l5.48-.592v-1.875h-15.1v1.875l4.54,0.493c0.05,4.738.05,9.574,0.05,14.36v5.675c0,10.313,5.33,14.557,13.18,14.557,7.45,0,12.68-4.342,12.68-15.445l0.05-19,4.83-.641v-1.875Zm40.8,0h-12.39v2.072l4.98,0.494-8.78,27.14-9.47-27.19,5.28-.444v-2.072h-14.66v1.875l4.1,0.444,12.63,34.2h2.27l11.35-34.049,4.69-.641v-1.826Z" transform="translate(-231.031 -916.344)"/>
  <path id="_1" data-name="※1" class="cls-1" d="M1079.03,919.891a0.595,0.595,0,1,0,.59.594A0.589,0.589,0,0,0,1079.03,919.891Zm-2.15,2.169a0.594,0.594,0,1,0,.59.594A0.594,0.594,0,0,0,1076.88,922.06Zm4.31,0a0.594,0.594,0,1,0,0,1.188A0.594,0.594,0,0,0,1081.19,922.06Zm-2.16,2.168a0.6,0.6,0,0,0-.59.6,0.59,0.59,0,0,0,1.18,0A0.6,0.6,0,0,0,1079.03,924.228Zm0.24-1.574,2.97-3-0.24-.241-2.97,3-2.98-3-0.23.241,2.97,3-2.99,3.02,0.24,0.241,2.99-3.02,3,3.02,0.24-.241Zm6.36-2.972h-0.54a5.443,5.443,0,0,1-1.36.691l0.11,0.586a5.305,5.305,0,0,0,1.15-.578v4.642h-1.15v0.539h2.87v-0.539h-1.08v-5.341Z" transform="translate(-231.031 -916.344)"/>
</svg>
