<svg xmlns="http://www.w3.org/2000/svg" width="518.25" height="32.16" viewBox="0 0 518.25 32.16">
  <defs>
    <style>
      .cls-1 {
        fill: #1147b4;
        fill-rule: evenodd;
      }
    </style>
  </defs>
  <path id="head-block-01.svg" class="cls-1" d="M452.631,1103.55a18.667,18.667,0,0,1-1,4.77c-1.8,5.85-3.6,11-6.063,17.23-1.386.03-2.841,0.07-4.227-.04a32.385,32.385,0,0,0,1.213,4.49,0.642,0.642,0,0,0,1,.35,11.689,11.689,0,0,1,4.054-.84c5.647-.59,10.914-1.18,16.457-2.01,0.416,0.9.8,1.81,1.213,2.78a0.586,0.586,0,0,0,.485.49,0.92,0.92,0,0,0,.415-0.11,17.268,17.268,0,0,0,2.633-1.42,0.736,0.736,0,0,0,.451-0.6,0.877,0.877,0,0,0-.139-0.45,49.091,49.091,0,0,0-7-11.38,0.578,0.578,0,0,0-.832-0.21c-0.97.52-1.975,1.12-3.014,1.67a34.874,34.874,0,0,1,3.846,5.57c-3.881.59-6.791,0.87-12.126,1.32,2.182-5.22,4.019-10.33,5.959-15.66a11.21,11.21,0,0,1,1.42-2.89,1.172,1.172,0,0,0,.347-0.69,0.775,0.775,0,0,0-.416-0.56A18.748,18.748,0,0,0,452.631,1103.55Zm36.651,4.59c2.113,0,3.742.07,4.885,0.07,0.52,0.04.623-.1,0.623-0.69a17.641,17.641,0,0,0,0-2.72c0-.38-0.1-0.55-0.415-0.55-1.351.07-3.188,0.17-5.44,0.17H482.7a47.322,47.322,0,0,1-5.682-.24,30.411,30.411,0,0,0,.173,3.34c0.035,0.55.139,0.76,0.485,0.76,1.455-.1,3.188-0.14,4.747-0.14h6.86Zm2.633,7.45c-2.5,6.72-8.142,11.52-14.552,14.52a10.019,10.019,0,0,1,3.223,1.81,1.148,1.148,0,0,0,.762.41,1.634,1.634,0,0,0,.693-0.24c6.686-3.62,10.671-7.97,14.135-15.38a3.99,3.99,0,0,1,1.178-1.64,0.839,0.839,0,0,0,.381-0.66,1.027,1.027,0,0,0-.346-0.73,20.071,20.071,0,0,0-2.321-2.16,0.882,0.882,0,0,0-.52-0.24,0.739,0.739,0,0,0-.45.21,3.836,3.836,0,0,1-1.837.38H480.378a60.7,60.7,0,0,1-6.375-.28,26.522,26.522,0,0,0,.381,3.52c0.069,0.45.208,0.66,0.52,0.66,1.732-.11,3.464-0.14,5.2-0.14Zm28.128,7.56a17.076,17.076,0,0,0-2.737-.21c-3.915,0-6.41,2.05-6.41,5.08,0,2.99,2.564,4.94,6.375,4.94,3.95,0,6.445-1.6,6.445-5.08a25.559,25.559,0,0,1,4.226,2.92,0.541,0.541,0,0,0,.347.21,0.4,0.4,0,0,0,.312-0.24,21.3,21.3,0,0,0,1.593-2.82,0.461,0.461,0,0,0-.208-0.73,27.211,27.211,0,0,0-6.236-3.24,45.7,45.7,0,0,1-.381-5.92,3.569,3.569,0,0,1,.139-1.42,4.513,4.513,0,0,0,.208-0.73,0.534,0.534,0,0,0-.486-0.56,18.231,18.231,0,0,0-3.776-.66,12.173,12.173,0,0,1,.277,2.47C519.766,1118.79,519.835,1120.92,520.043,1123.15Zm0.069,3.3a4,4,0,0,1,.035.7c0,1.46-1.143,2.47-3.014,2.47-1.975,0-2.945-.56-2.945-1.67,0-1.32,1.351-2.02,3.083-2.02A8.751,8.751,0,0,1,520.112,1126.45Zm-5.647-17.85c0.312-1.05.589-2.13,0.832-2.96a3.809,3.809,0,0,1,.554-1.29,0.855,0.855,0,0,0,.312-0.66,0.594,0.594,0,0,0-.555-0.52,30.94,30.94,0,0,0-4.053-.73,13.534,13.534,0,0,1-.208,2.82c-0.243,1.25-.485,2.43-0.9,3.89-1.594.14-2.633,0.18-3.984,0.18-1,0-1.8-.04-3.222-0.14a18.248,18.248,0,0,0,.346,2.96c0.069,0.45.139,0.55,0.485,0.55,0.866,0.04,1.143.04,1.906,0.04,1.074,0,2.148,0,3.464-.07a70.421,70.421,0,0,1-5.993,12.15,0.651,0.651,0,0,0-.174.41,0.5,0.5,0,0,0,.243.39,17.214,17.214,0,0,0,2.39,1.77,0.921,0.921,0,0,0,.416.18,0.512,0.512,0,0,0,.381-0.35,96.54,96.54,0,0,0,6.756-14.93c2.148-.32,3.846-0.56,5.717-0.94a0.374,0.374,0,0,0,.416-0.42,18.98,18.98,0,0,0-.312-2.82c-0.069-.38-0.208-0.38-0.52-0.28A37.976,37.976,0,0,1,514.465,1108.6Zm7.691,3.3a29.614,29.614,0,0,1,7.172,3.8,0.509,0.509,0,0,0,.312.14,0.391,0.391,0,0,0,.312-0.25,21.441,21.441,0,0,0,1.455-2.57,0.871,0.871,0,0,0,.139-0.42,0.513,0.513,0,0,0-.312-0.38,26.881,26.881,0,0,0-6.791-3.28,0.488,0.488,0,0,0-.727.25C523.265,1109.82,522.745,1110.86,522.156,1111.9Zm27.124-9.25a10.025,10.025,0,0,1-1.871,2.61c-2.979,3.27-5.855,6.16-8.8,9.36-1.074,1.15-1.7,1.91-1.7,3.06s0.519,1.92,1.836,2.92a87.365,87.365,0,0,1,12.611,11.77,0.607,0.607,0,0,0,.416.31,0.854,0.854,0,0,0,.485-0.28c0.589-.52,1.594-1.53,2.391-2.4a0.59,0.59,0,0,0,.242-0.42,0.886,0.886,0,0,0-.242-0.45,96.018,96.018,0,0,0-12.889-10.96,0.876,0.876,0,0,1-.45-0.63,1.512,1.512,0,0,1,.45-0.76c2.668-2.79,6.479-6.37,9.459-9.05a6.5,6.5,0,0,1,1.663-1.22,0.7,0.7,0,0,0,.485-0.66,0.859,0.859,0,0,0-.278-0.56A27.586,27.586,0,0,0,549.28,1102.65Zm42.2,20.11c0-2.54.069-3.76,0.069-3.97,0-.34-0.035-0.38-0.381-0.38-0.243,0-1.386.07-4.677,0.07H568.539c-3.291,0-4.435-.07-4.677-0.07-0.347,0-.381.04-0.381,0.38,0,0.21.069,1.26,0.069,3.69v6.76c0,2.68-.069,3.72-0.069,3.93,0,0.35.034,0.38,0.381,0.38h2.979c0.347,0,.381-0.03.381-0.38,0-.17-0.069-1.36-0.069-3.93v-7.8h20.719v7.62a0.8,0.8,0,0,1-.867.98,20.305,20.305,0,0,1-2.217-.14,8.122,8.122,0,0,1,.728,2.29c0.173,1.01.208,1.08,1.282,1.08,2.494,0,3.291-.17,3.915-0.73a3.194,3.194,0,0,0,.831-2.5c0-1.08-.069-2.54-0.069-4.42v-2.86Zm-18.12-13.29c-3.153,0-4.262-.07-4.47-0.07-0.346,0-.381.03-0.381,0.38,0,0.24.07,0.77,0.07,2.26v2.13c0,1.42-.07,1.98-0.07,2.19,0,0.35.035,0.38,0.381,0.38,0.208,0,1.317-.07,4.47-0.07h8.35c3.152,0,4.261.07,4.469,0.07,0.346,0,.381-0.03.381-0.38,0-.21-0.069-0.77-0.069-2.19v-2.13c0-1.49.069-2.02,0.069-2.26,0-.35-0.035-0.38-0.381-0.38-0.208,0-1.317.07-4.469,0.07h-8.35Zm9.735,4.77H571.934v-2.3H583.09v2.3Zm4.886-6.48c3.118,0,4.192.07,4.4,0.07,0.346,0,.381-0.03.381-0.38v-2.44c0-.35-0.035-0.38-0.381-0.38-0.208,0-1.282.07-4.4,0.07h-8.87v-0.11a6.906,6.906,0,0,1,.139-1.67,2.029,2.029,0,0,0,.242-0.69,0.5,0.5,0,0,0-.554-0.35c-1.178-.1-2.391-0.17-3.673-0.17a11.91,11.91,0,0,1,.243,2.88v0.11h-8.419c-3.118,0-4.192-.07-4.4-0.07-0.347,0-.381.03-0.381,0.38v2.44c0,0.35.034,0.38,0.381,0.38,0.208,0,1.282-.07,4.4-0.07h20.892Zm-14.483,23.46c0.347,0,.382-0.03.382-0.38v-0.94h7.033v0.73c0,0.35.034,0.38,0.415,0.38h2.564c0.347,0,.381-0.03.381-0.38,0-.21-0.069-0.77-0.069-3.9v-1.53c0-1.01.069-1.64,0.069-1.85,0-.34-0.034-0.38-0.381-0.38-0.242,0-1.143.07-3.742,0.07h-5.4c-2.633,0-3.534-.07-3.742-0.07-0.347,0-.381.04-0.381,0.38,0,0.21.069,0.87,0.069,2.2v1.28c0,3.21-.069,3.76-0.069,4.01,0,0.35.034,0.38,0.381,0.38h2.494Zm0.382-5.85h7.033v2.23h-7.033v-2.23Zm36.615-12.32a3.63,3.63,0,0,1,.208-1.49,0.96,0.96,0,0,0,.173-0.56c0-.18-0.173-0.31-0.623-0.38-1.04-.14-2.148-0.21-3.222-0.25a20.308,20.308,0,0,1,.173,2.89v4.63a51.936,51.936,0,0,1-9.6,3.27,7.972,7.972,0,0,1,1.213,2.16c0.346,0.9.346,0.94,1.247,0.66a61.471,61.471,0,0,0,8.454-3.34c1,0.59,2.737.7,6.2,0.7,3.5,0,5.2-.28,6.271-0.94,0.9-.6,1.421-1.36,1.7-3.35,0.138-.94.138-0.94-0.762-1.18a10.161,10.161,0,0,1-2.356-.87c-0.035,1.6-.347,2.47-0.97,2.89a7.216,7.216,0,0,1-3.465.63,23.235,23.235,0,0,1-2.668-.04,45.822,45.822,0,0,0,8.281-6.47,4.137,4.137,0,0,1,1.178-.98,0.624,0.624,0,0,0,.554-0.52,0.928,0.928,0,0,0-.416-0.69,24.582,24.582,0,0,0-2.6-1.68,13.928,13.928,0,0,1-1.8,2.41,34.051,34.051,0,0,1-7.172,5.6v-3.1Zm4.678-8.53v-0.27a3.431,3.431,0,0,1,.173-1.43,1.626,1.626,0,0,0,.208-0.66,0.5,0.5,0,0,0-.555-0.35c-1.178-.1-2.46-0.17-3.672-0.17a12.474,12.474,0,0,1,.208,2.57v0.31h-7.588c-3.187,0-4.331-.06-4.538-0.06-0.382,0-.416.03-0.416,0.38,0,0.21.069,0.76,0.069,1.91v1.19c0,2.75-.069,3.27-0.069,3.48,0,0.38.034,0.41,0.416,0.41h2.737c0.381,0,.415-0.03.415-0.41v-3.9h9.493l-1.42,1.01c-0.416.28-.45,0.35-0.173,0.55a18.729,18.729,0,0,1,3.049,3.38,0.55,0.55,0,0,0,.311.28,1.206,1.206,0,0,0,.416-0.24l1.732-1.36c0.312-.25.382-0.32,0.139-0.63a26.531,26.531,0,0,0-2.945-2.99h11.676v3.9c0,0.38.035,0.41,0.346,0.41h2.841c0.347,0,.381-0.03.381-0.41,0-.21-0.069-0.73-0.069-3.48v-1.43c0-.91.069-1.46,0.069-1.67,0-.35-0.034-0.38-0.381-0.38-0.208,0-1.351.06-4.538,0.06h-8.315Zm7.067,24.3h-6.894v-3.41a6.691,6.691,0,0,1,.173-2.09,1.769,1.769,0,0,0,.243-0.63,0.489,0.489,0,0,0-.555-0.38c-1.178-.1-2.321-0.17-3.638-0.21a14.252,14.252,0,0,1,.243,3.31v3.41h-6.652v-1.95a4.347,4.347,0,0,1,.138-1.46,2.661,2.661,0,0,0,.208-0.7c0-.21-0.138-0.35-0.485-0.38-1.143-.14-2.252-0.24-3.534-0.28a21.525,21.525,0,0,1,.174,3.03v3.55c0,1.63-.07,2.3-0.07,2.5,0,0.35.035,0.39,0.381,0.39h2.807c0.346,0,.381-0.04.381-0.39v-1.25h17.08v1.25c0,0.35.035,0.39,0.382,0.39h2.771c0.381,0,.416-0.04.416-0.39,0-.17-0.069-0.97-0.069-2.78v-3.69a4.543,4.543,0,0,1,.173-1.6,1.7,1.7,0,0,0,.173-0.59,0.468,0.468,0,0,0-.485-0.42c-1-.14-2.321-0.24-3.568-0.28a16.7,16.7,0,0,1,.207,2.93v2.12Zm-20.337-9.89a0.759,0.759,0,0,0,.416.21,0.419,0.419,0,0,0,.312-0.21,20.226,20.226,0,0,0,3.6-5.84c0.138-.35.069-0.46-0.312-0.63l-2.113-.97c-0.451-.21-0.52-0.21-0.659.13a15.527,15.527,0,0,1-3.43,5.26c-0.242.24-.207,0.35,0.208,0.66Zm19.783-6.05c-0.381.24-.45,0.35-0.173,0.62a28.335,28.335,0,0,1,4.053,5.47,0.373,0.373,0,0,0,.278.21,0.883,0.883,0,0,0,.415-0.21l1.975-1.57c0.312-.28.347-0.42,0.173-0.73a38.539,38.539,0,0,0-4.261-5.05c-0.277-.24-0.277-0.2-0.658.04Zm19.569,3.51a23.3,23.3,0,0,1-7.9,12.08,7.939,7.939,0,0,1,1.836,1.78,1.358,1.358,0,0,0,.693.66,1.817,1.817,0,0,0,.832-0.56,25.582,25.582,0,0,0,5.612-7.55v3.65c0,5.47-.069,6.68-0.069,6.86,0,0.35.035,0.38,0.381,0.38h2.633c0.347,0,.381-0.03.381-0.38v-0.98h12.023v0.87c0,0.39.034,0.42,0.346,0.42h2.772c0.381,0,.381-0.03.381-0.42,0-.17-0.035-1.18-0.035-6.54v-3.55c0-3.38.035-4.42,0.035-4.63,0-.38,0-0.42-0.381-0.42-0.208,0-1.8.07-4.92,0.07H644.2c0.174-.55.347-1.15,0.485-1.74h15.591c3.049,0,4.123.07,4.331,0.07,0.312,0,.346-0.03.346-0.38v-2.05c0-.35-0.034-0.39-0.346-0.39-0.208,0-1.282.07-4.331,0.07h-9.146v-1.81h5.231c3.395,0,4.573.07,4.781,0.07,0.312,0,.347-0.03.347-0.38v-1.88c0-.35-0.035-0.38-0.347-0.38-0.208,0-1.386.07-4.781,0.07h-5.231v-1.71h7.033c3.291,0,4.434.07,4.642,0.07,0.381,0,.416-0.03.416-0.38v-2.02c0-.35-0.035-0.38-0.416-0.38-0.208,0-1.351.07-4.642,0.07h-2.633c0.242-.39.485-0.73,0.692-1.12a2.266,2.266,0,0,1,.624-0.73,0.6,0.6,0,0,0,.381-0.49c0-.24-0.173-0.31-0.485-0.41a27.346,27.346,0,0,0-3.187-.77,7.632,7.632,0,0,1-.555,1.6c-0.381.73-.658,1.36-1,1.92h-5.024a18.336,18.336,0,0,0-2.217-3.17c-0.243-.31-0.312-0.24-0.693-0.14l-2.183.63c-0.485.14-.45,0.21-0.208,0.52a17.439,17.439,0,0,1,1.49,2.16h-2.079c-3.326,0-4.435-.07-4.642-0.07-0.347,0-.382.03-0.382,0.38v2.02c0,0.35.035,0.38,0.382,0.38,0.207,0,1.316-.07,4.642-0.07h6.514v1.71h-4.92c-3.4,0-4.573-.07-4.781-0.07-0.347,0-.381.03-0.381,0.38v1.88c0,0.35.034,0.38,0.381,0.38,0.208,0,1.386-.07,4.781-0.07h4.92v1.81h-8.766c-3.083,0-4.123-.07-4.331-0.07-0.346,0-.381.04-0.381,0.39v2.05c0,0.35.035,0.38,0.381,0.38,0.208,0,1.248-.07,4.331-0.07h2.425Zm16.423,4.35v1.54H645.65v-1.54h12.023Zm-12.023,5.22v-1.53h12.023v1.53H645.65Zm0,3.73v-1.53h12.023v1.53H645.65Zm37.725-21.79c0.589-.9.8-1.25,1.074-1.74a2.993,2.993,0,0,1,.728-0.73,0.93,0.93,0,0,0,.416-0.7,0.6,0.6,0,0,0-.381-0.55,21.681,21.681,0,0,0-4.054-1.71,12.883,12.883,0,0,1-1.871,4.28,38.635,38.635,0,0,1-9.805,10.93,14.891,14.891,0,0,1,2.911,1.6,0.776,0.776,0,0,0,.554.25,1.216,1.216,0,0,0,.693-0.32,41.612,41.612,0,0,0,7.414-7.83l8.592-.17a33.633,33.633,0,0,1-4.053,6.89,36.17,36.17,0,0,0-4.47-2.79,0.849,0.849,0,0,0-.346-0.13,0.644,0.644,0,0,0-.45.24c-0.8.73-1.525,1.63-2.287,2.47a28.706,28.706,0,0,1,4.989,3.27,41.973,41.973,0,0,1-12.75,9.43,9.8,9.8,0,0,1,3.292,1.78,1.023,1.023,0,0,0,.658.31,1.92,1.92,0,0,0,.866-0.31,42.252,42.252,0,0,0,11.052-8.7,39.313,39.313,0,0,1,3.361,3.37,0.6,0.6,0,0,0,.381.21,0.745,0.745,0,0,0,.416-0.17,21.769,21.769,0,0,0,2.148-2.19,0.7,0.7,0,0,0,.208-0.46,0.683,0.683,0,0,0-.208-0.48,30.933,30.933,0,0,0-3.742-3.52,54.257,54.257,0,0,0,5.093-8.42,4.322,4.322,0,0,1,1.039-1.32,0.915,0.915,0,0,0,.381-0.67,0.854,0.854,0,0,0-.277-0.62,11.482,11.482,0,0,0-2.356-2.13,1.2,1.2,0,0,0-.623-0.27,1.026,1.026,0,0,0-.589.24,3.333,3.333,0,0,1-1.906.52Zm37.829,2.75a29.374,29.374,0,0,1-5.855,9.92,33.48,33.48,0,0,1-11.329,8.7,10.181,10.181,0,0,1,3.222,1.92,1.244,1.244,0,0,0,.866.38,1.739,1.739,0,0,0,.936-0.31,39.079,39.079,0,0,0,9.839-8.29,40.874,40.874,0,0,0,6.721-11.31,4.244,4.244,0,0,1,.8-1.36,1.179,1.179,0,0,0,.485-0.87,0.872,0.872,0,0,0-.242-0.59,10.991,10.991,0,0,0-2.529-2.3,1.762,1.762,0,0,0-.659-0.17,0.925,0.925,0,0,0-.519.14,3.288,3.288,0,0,1-1.906.35H708.662a58.486,58.486,0,0,1-6.652-.25c0.07,1.01.208,2.82,0.312,3.52,0.069,0.49.208,0.73,0.658,0.69,1.49-.07,3.465-0.17,5.717-0.17H721.2Zm25.08,8.25c1.871-1.6,3.707-3.34,5.474-5.15a3.675,3.675,0,0,1,1.109-.8,0.685,0.685,0,0,0,.519-0.63,1.119,1.119,0,0,0-.208-0.59,13.511,13.511,0,0,0-1.732-2.05,0.776,0.776,0,0,0-.589-0.28,1.089,1.089,0,0,0-.519.14,5.643,5.643,0,0,1-2.46.38l-10.048.1a33.508,33.508,0,0,1-4.816-.27,30.436,30.436,0,0,0,.382,3.41c0.069,0.45.207,0.66,0.589,0.66,1.42-.11,2.7-0.18,4.573-0.25l8-.17a49,49,0,0,1-6.721,5.64,65.314,65.314,0,0,1-11.156,6.26,8.206,8.206,0,0,1,2.771,2.13,0.968,0.968,0,0,0,.693.38,1.454,1.454,0,0,0,.589-0.17,59.781,59.781,0,0,0,9.528-5.82v4.49c0,2.89-.173,5.22-0.173,6.2,0,0.35.242,0.49,0.658,0.49a24.69,24.69,0,0,0,2.98,0c0.415,0,.658-0.14.658-0.46,0-.87-0.1-3.16-0.1-6.26v-7.38Zm-7.276-13.61a35.739,35.739,0,0,1,7.726,3.45,0.677,0.677,0,0,0,.381.14,0.543,0.543,0,0,0,.451-0.35,28.739,28.739,0,0,0,1.42-2.58,0.559,0.559,0,0,0,.139-0.35,0.568,0.568,0,0,0-.381-0.38,47.018,47.018,0,0,0-7.345-3.03,0.561,0.561,0,0,0-.728.32C740.325,1103.03,739.7,1104.18,739.008,1105.29Zm9.043,15.63a38.621,38.621,0,0,1,7.795,4.8,1.021,1.021,0,0,0,.485.24,0.591,0.591,0,0,0,.416-0.27,19.967,19.967,0,0,0,1.7-2.51,0.811,0.811,0,0,0,.138-0.42,0.519,0.519,0,0,0-.312-0.42,36.825,36.825,0,0,0-7.552-4.24c-0.347-.14-0.451-0.18-0.693.14C749.575,1118.76,748.813,1119.8,748.051,1120.92Zm23.417-14.2c-2.252,0-3.985,0-5.856-.14a20.367,20.367,0,0,0,.312,3.62c0.069,0.38.173,0.62,0.451,0.59,1.87-.14,3.672-0.21,5.474-0.21l8.938-.03a42.746,42.746,0,0,1-6.513,8.73,42.017,42.017,0,0,1-12.2,8.88,9.383,9.383,0,0,1,2.911,2.26,0.765,0.765,0,0,0,.589.31,2.184,2.184,0,0,0,.8-0.28,49.934,49.934,0,0,0,11.641-9.18,63.206,63.206,0,0,1,9.008,8.63,0.729,0.729,0,0,0,.485.28,0.6,0.6,0,0,0,.416-0.21,18.593,18.593,0,0,0,2.321-2.37,0.859,0.859,0,0,0,.242-0.52,0.812,0.812,0,0,0-.277-0.49,81.116,81.116,0,0,0-9.6-8.42,54.469,54.469,0,0,0,4.435-6.51,6.222,6.222,0,0,1,1.282-1.53,0.975,0.975,0,0,0,.45-0.7,0.9,0.9,0,0,0-.173-0.45,12.63,12.63,0,0,0-2.252-2.44,1.14,1.14,0,0,0-.589-0.28,0.6,0.6,0,0,0-.381.14,5.027,5.027,0,0,1-2.391.32h-9.527Zm31.349,4.17c-2.009,0-3.568,0-5.751-.14,0.069,1.29.139,2.55,0.277,3.38,0.035,0.42.173,0.63,0.52,0.59,1.628-.1,3.291-0.17,4.989-0.17h3.118a20.334,20.334,0,0,1-2.5,7.52,19.31,19.31,0,0,1-8.141,7.1,8.745,8.745,0,0,1,2.91,2.02,0.888,0.888,0,0,0,.658.34,1.592,1.592,0,0,0,.8-0.27,22.391,22.391,0,0,0,7.345-7.17c1.455-2.3,2.391-5.43,3.084-9.65h7a49.128,49.128,0,0,1-1.039,10.45c-0.416,1.56-.866,2.12-1.8,2.43a14.1,14.1,0,0,1-4.712.32,7.257,7.257,0,0,1,2.01,3.16,0.839,0.839,0,0,0,.831.7,15.068,15.068,0,0,0,3.5-.38c2.218-.56,3.4-2.02,4.089-4.7a59.624,59.624,0,0,0,1.282-11.45c0.069-1.85.138-3.24,0.138-3.69,0-.39-0.173-0.49-0.727-0.49-1.594,0-3.222.07-4.816,0.07h-5.266c0.173-1.71.207-2.54,0.311-3.66a3.246,3.246,0,0,1,.451-1.63,1.56,1.56,0,0,0,.173-0.66,0.714,0.714,0,0,0-.589-0.73,25.958,25.958,0,0,0-4.5-.73,13.389,13.389,0,0,1,.243,2.75c-0.035,1.87-.1,2.99-0.243,4.69h-3.638Zm14.794-5.08a17.4,17.4,0,0,1,3.5,4.04,0.359,0.359,0,0,0,.589.1l1.456-1.07a0.355,0.355,0,0,0,.1-0.56,16.058,16.058,0,0,0-3.291-3.73,0.366,0.366,0,0,0-.52-0.07Zm3.188-2.29a16.306,16.306,0,0,1,3.464,4,0.353,0.353,0,0,0,.589.1l1.386-1.08a0.4,0.4,0,0,0,.1-0.62,14.605,14.605,0,0,0-3.291-3.59,0.356,0.356,0,0,0-.52-0.07Zm25.566,16.63c2.563,0,5.127.04,7.726,0.07,0.485,0.04.623-.1,0.623-0.52a25.486,25.486,0,0,0,0-3.27c0-.42-0.1-0.52-0.623-0.49-2.668.04-5.336,0.11-7.969,0.11H834.966a44.074,44.074,0,0,1-7.484-.42,38.2,38.2,0,0,0,.52,4.21,0.763,0.763,0,0,0,.8.73,27.428,27.428,0,0,1,5.093-.42h12.473Zm23.225-12.11c0-1.95,0-2.82.243-3.27a1.82,1.82,0,0,0,.277-0.8,0.638,0.638,0,0,0-.659-0.59,24.827,24.827,0,0,0-4.33-.56,26.7,26.7,0,0,1,.346,5.15v17.12c0,2.23-.035,4.29-0.138,6.86,0,0.42.173,0.52,0.658,0.52a22.657,22.657,0,0,0,3.083,0c0.485,0,.659-0.1.624-0.52-0.069-2.5-.139-4.56-0.139-6.82v-7.69a38.374,38.374,0,0,1,9.112,4.45,0.538,0.538,0,0,0,.381.18,0.584,0.584,0,0,0,.451-0.39,20.841,20.841,0,0,0,1.49-3.02,0.648,0.648,0,0,0-.382-0.91,48.763,48.763,0,0,0-11.017-4.73v-4.98Zm6.236-2.3a17.407,17.407,0,0,1,3.5,4.04,0.359,0.359,0,0,0,.589.1l1.455-1.07a0.356,0.356,0,0,0,.1-0.56,16.06,16.06,0,0,0-3.292-3.73,0.354,0.354,0,0,0-.519-0.06Zm3.188-2.29a16.306,16.306,0,0,1,3.464,4,0.353,0.353,0,0,0,.589.1l1.386-1.08a0.4,0.4,0,0,0,.1-0.62,14.586,14.586,0,0,0-3.291-3.59,0.356,0.356,0,0,0-.52-0.07Zm30.588,6.61v4.42H907.35c-3.152,0-4.226-.07-4.434-0.07-0.347,0-.381.03-0.381,0.38v2.44c0,0.38.034,0.42,0.381,0.42,0.1,0,.554-0.04,1.524-0.04a23.672,23.672,0,0,0,4.469,8.46,26.383,26.383,0,0,1-9.423,4.31,9.712,9.712,0,0,1,1.559,2.27c0.277,0.62.346,0.87,0.658,0.87a2.638,2.638,0,0,0,.8-0.21,29.253,29.253,0,0,0,8.939-4.7,27.424,27.424,0,0,0,8,4.56,2.566,2.566,0,0,0,.831.21c0.312,0,.382-0.25.659-0.91a13.892,13.892,0,0,1,1.42-2.57,22.927,22.927,0,0,1-8.176-3.8,27.359,27.359,0,0,0,4.919-7.72,3.55,3.55,0,0,1,.8-1.4,0.823,0.823,0,0,0,.312-0.62c0-.25-0.138-0.49-0.97-1.29a2.124,2.124,0,0,0-1.282-.87,1.275,1.275,0,0,0-.485.14,1.254,1.254,0,0,1-.693.14h-3.638v-4.42h3.569c3.291,0,4.435.07,4.642,0.07,0.382,0,.382-0.04.382-0.38v-2.61c0-.39,0-0.42-0.382-0.42-0.207,0-1.351.07-4.642,0.07h-3.569v-0.8a10.457,10.457,0,0,1,.208-2.68,2.806,2.806,0,0,0,.243-0.87,0.484,0.484,0,0,0-.52-0.39c-1.178-.14-2.425-0.21-3.707-0.24a23.645,23.645,0,0,1,.242,4.25v0.73h-2.563c-3.292,0-4.435-.07-4.678-0.07-0.346,0-.381.03-0.381,0.42v2.61c0,0.34.035,0.38,0.381,0.38,0.243,0,1.386-.07,4.678-0.07H909.6Zm5.925,7.52a19.1,19.1,0,0,1-3.95,6.16,18.186,18.186,0,0,1-3.638-6.16h7.588Zm-17.358,2.89,2.252-.94c0.97-.42,1-0.35.97-1.5a21.622,21.622,0,0,1,.139-2.3,28.342,28.342,0,0,1-3.361,1.39v-5.43c1.836,0.04,2.5.07,2.7,0.07,0.311,0,.346-0.03.346-0.38v-2.61c0-.38-0.035-0.42-0.346-0.42-0.208,0-.867.07-2.7,0.07v-1.74c0-2.36,0-3.1.208-3.51a1.84,1.84,0,0,0,.208-0.73,0.5,0.5,0,0,0-.554-0.35c-1.144-.14-2.322-0.21-3.638-0.25a28.69,28.69,0,0,1,.277,4.91v1.67h-0.589c-2.356,0-3.084-.07-3.257-0.07-0.381,0-.416.04-0.416,0.42v2.61c0,0.35.035,0.38,0.416,0.38,0.173,0,.9-0.07,3.257-0.07h0.589v6.55l-1.213.35a18.366,18.366,0,0,1-3.256.62,33.11,33.11,0,0,0,.623,3.38,0.421,0.421,0,0,0,.416.42,1.4,1.4,0,0,0,.589-0.21,3.868,3.868,0,0,1,1.109-.52l1.732-.53v6.72c0,0.94-.312,1.32-1.074,1.32a17.488,17.488,0,0,1-2.633-.14,9.627,9.627,0,0,1,.935,2.68c0.243,1.05.243,1.05,1.317,1.05,2.321,0,3.118-.14,3.88-0.7,0.9-.69,1.109-1.56,1.109-3.34,0-1.74-.035-4.59-0.035-7.06v-1.81Zm43.475-11.35h-0.519c-2.668,0-3.5-.07-3.707-0.07-0.347,0-.381.03-0.381,0.38v2.16a1.226,1.226,0,0,0-.451-0.49,23.218,23.218,0,0,0-2.564-1.67,16.085,16.085,0,0,1-.831,1.85,25.209,25.209,0,0,1-5.994,7.24,9.25,9.25,0,0,1,1,2.61c0.1,0.45.208,0.66,0.381,0.66a1.165,1.165,0,0,0,.624-0.35c0.589-.49,1.143-1.04,1.7-1.6-0.034,1.32-.069,2.82-0.069,3.93v5.12c0,2.78-.069,4.07-0.069,4.28,0,0.35.034,0.38,0.381,0.38h2.771c0.347,0,.382-0.03.382-0.38,0-.17-0.07-1.5-0.07-4.28v-12.98c0.555-.8,1.074-1.61,1.525-2.41a3.263,3.263,0,0,1,.935-1.18,0.914,0.914,0,0,0,.347-0.28c0,0.35.034,0.39,0.381,0.39,0.208,0,1.039-.07,3.707-0.07h0.519v14.54c0,3.97-.069,5.99-0.069,6.2,0,0.35.035,0.38,0.347,0.38h2.841c0.346,0,.346-0.03.346-0.38,0-.21-0.035-2.23-0.035-6.2v-14.54h0.52c2.668,0,3.465.07,3.673,0.07a0.758,0.758,0,0,0,.346-0.04v2.19c0,0.39.035,0.42,0.416,0.42,0.208,0,.831-0.07,2.945-0.07h0.242v13.51c0,1.07-.242,1.35-1.247,1.35a22.7,22.7,0,0,1-2.91-.21,9.054,9.054,0,0,1,.693,2.48c0.173,1.11.173,1.11,1.247,1.11,2.6,0,3.776-.11,4.539-0.7,0.9-.66,1.143-1.84,1.143-3.41,0-1.42-.069-3.13-0.069-6.82v-7.31c1.836,0,2.39.07,2.6,0.07,0.347,0,.381-0.03.381-0.42v-2.61c0-.35-0.034-0.38-0.381-0.38-0.208,0-.8.07-2.945,0.07h-3.291c-2.114,0-2.737-.07-2.945-0.07a0.386,0.386,0,0,0-.347.07v-2.23c0-.35-0.034-0.38-0.415-0.38-0.208,0-1.005.07-3.673,0.07h-0.52v-2.54a12.2,12.2,0,0,1,.174-3.24,1.937,1.937,0,0,0,.208-0.73,0.507,0.507,0,0,0-.52-0.38,34.876,34.876,0,0,0-3.569-.21,23.5,23.5,0,0,1,.277,4.56v2.54Zm-6.582,18.31a8.9,8.9,0,0,1,2.217.66,2.634,2.634,0,0,0,.693.24c0.243,0,.346-0.21.485-0.66a38.881,38.881,0,0,0,1.8-9.08,2.679,2.679,0,0,1,.311-1.33,0.865,0.865,0,0,0,.243-0.52,0.573,0.573,0,0,0-.589-0.52c-0.97-.17-1.975-0.31-3.049-0.42a16.625,16.625,0,0,1-.035,2.65A34.4,34.4,0,0,1,935.062,1127.43Zm-1.178-25.76a7.4,7.4,0,0,1-.936,1.6,21.223,21.223,0,0,1-5.647,5.26,6.828,6.828,0,0,1,1.351,2.4c0.173,0.56.312,0.8,0.52,0.8a1.857,1.857,0,0,0,.8-0.42,32.1,32.1,0,0,0,5.855-5.88,3.073,3.073,0,0,1,1.039-1.01,0.507,0.507,0,0,0,.347-0.45,0.85,0.85,0,0,0-.485-0.66A18.07,18.07,0,0,0,933.884,1101.67Zm12.472,14.51c-0.415.14-.485,0.25-0.381,0.6a51.462,51.462,0,0,1,1.767,9.5c0.035,0.35.139,0.35,0.624,0.17l1.975-.69c0.415-.14.45-0.25,0.415-0.6a47.8,47.8,0,0,0-1.974-9.29c-0.139-.35-0.208-0.38-0.555-0.24Zm7.311-12.14c-1.94,0-2.5-.07-2.7-0.07-0.346,0-.381.03-0.381,0.38V1107c0,0.34.035,0.38,0.381,0.38,0.208,0,.763-0.07,2.7-0.07h2.321c1.94,0,2.495.07,2.7,0.07,0.312,0,.347-0.04.347-0.38v-2.65c0-.35-0.035-0.38-0.347-0.38-0.207,0-.762.07-2.7,0.07h-2.321Zm-7.83-.11c-0.381.25-.381,0.39-0.174,0.63a18.533,18.533,0,0,1,2.045,3.31,0.413,0.413,0,0,0,.277.27,0.935,0.935,0,0,0,.415-0.2l1.421-.98c0.346-.21.416-0.35,0.243-0.66a25.1,25.1,0,0,0-2.114-3.2c-0.208-.25-0.312-0.25-0.658-0.04Z" transform="translate(-441.344 -1101.53)"/>
</svg>
