<svg id="head-about_sp.svg" xmlns="http://www.w3.org/2000/svg" width="440.187" height="180.25" viewBox="0 0 440.187 180.25">
  <defs>
    <style>
      .cls-1 {
        fill: #fff;
        fill-rule: evenodd;
      }
    </style>
  </defs>
  <path id="新開発_高密着_タフネスガード技術の_最強_UV_" data-name="新開発！ 高密着 タフネスガード技術の 最強 UV " class="cls-1" d="M151.206,1981.03h20.263a1.172,1.172,0,0,0,1.29-.76c-1.529-1.49-4.062-3.49-4.062-3.49l-2.2,2.82h-3.154v-4.54c1.147-.2,1.529-0.63,1.625-1.29l-5.4-.48v6.31h-8.7Zm2.963,0.48a19.546,19.546,0,0,1,2.1,7.69c2.867,2.87,6.547-3.25-1.53-7.93Zm18.638,10.22a1.163,1.163,0,0,0,1.291-.76c-1.577-1.48-4.206-3.58-4.206-3.58l-2.2,2.96H163.87a51.433,51.433,0,0,0,4.732-6.74,1.549,1.549,0,0,0,1.72-.91l-5.209-1.53a64.678,64.678,0,0,1-2.342,9.18h-12.76l0.383,1.38h22.413Zm-9.606,9.52v-2.11h8.746a1.172,1.172,0,0,0,1.29-.76c-1.529-1.48-3.918-3.44-3.918-3.44l-2.2,2.82H163.2v-3.64c1.052-.14,1.482-0.62,1.53-1.19l-5.209-.57v5.4h-9.033l0.382,1.38h7.36a37.238,37.238,0,0,1-8.315,13.77l0.573,0.67a35.193,35.193,0,0,0,9.033-8.99v12.71h0.716c1.339,0,2.963-.81,2.963-1.19v-14.34c1.96,1.72,4.206,4.49,4.684,6.79,3.536,2.39,6.308-4.83-4.588-7.41Zm24.612-11.33H178.59v-10.18a78.512,78.512,0,0,0,12.521-2.82c1.243,0.38,2.055.33,2.485-.1l-4.4-3.58a51.707,51.707,0,0,1-10.131,5.21l-4.254-1.39v15.73c0,8.98-1.051,17.34-8.028,23.84l0.573,0.62c10.132-6.26,11.231-15.81,11.231-24.42v-1.53H184.9v26h0.621c1.96,0,3.2-.91,3.2-1.19V1991.3h4.827a1.163,1.163,0,0,0,1.291-.76c-1.721-1.62-4.54-3.87-4.54-3.87Zm30.482-12.04v4.39h-9.08v-4.39h9.08Zm-9.08,10.22v-4.49h9.08v4.49h-9.08Zm9.08,1.44v2.15h0.574c1.194,0,2.963-.86,3.01-1.25V1978.4a3.986,3.986,0,0,0,1.769-.86l-3.967-3.06-1.816,2.06h-8.411l-3.919-1.87v42.58H206.2c1.721,0,3.011-.95,3.011-1.43v-26.28h9.08Zm3.68,13c0.048-.58.048-1.15,0.048-1.72v-5.07h5.639v6.79h-5.687Zm14.911,1.38a1.172,1.172,0,0,0,1.29-.76c-1.434-1.44-3.776-3.35-3.776-3.35l-2.15,2.73h-1.195v-6.79h5.018a1.026,1.026,0,0,0,1.195-.77c-1.434-1.43-3.871-3.34-3.871-3.34l-2.151,2.72h-18.16l0.335,1.39h5.209v5.07c0,0.57,0,1.14-.048,1.72h-6.547l0.382,1.38h6.069a14.7,14.7,0,0,1-6.117,11.04l0.478,0.62c6.595-3.06,8.459-7.5,8.985-11.66h5.83v11.33h0.574a3.585,3.585,0,0,0,2.819-.96v-10.37h5.831ZM231.1,1988.1v-4.49h9.462v4.49H231.1Zm9.462-10.22v4.39H231.1v-4.39h9.462Zm1.339-3.64-1.816,2.3h-8.794l-3.871-1.72v16.63H228c1.481,0,3.106-.81,3.106-1.2v-0.71h9.462v22.27a0.8,0.8,0,0,1-.955.95c-0.861,0-4.54-.28-4.54-0.28v0.71a6.144,6.144,0,0,1,3.3,1.39,4.624,4.624,0,0,1,.86,2.67c4.493-.47,5.066-2.1,5.066-4.97v-33.74a3.574,3.574,0,0,0,2.007-.9Zm16.331,6.36c1.912,1.43,3.919,3.97,4.349,6.16,3.68,2.49,6.691-4.92-3.919-6.54Zm14.911,20.26c0.047-.62.047-1.19,0.047-1.81v-6.36h6.835v8.17h-6.882Zm23.274,5.5h-0.574a37.511,37.511,0,0,1-1.577,5.64,1.237,1.237,0,0,1-1,.57c-0.621,0-1.959.05-3.727,0.05h-3.919c-1.625,0-1.768-.29-1.768-1.1v-9.32h11.23a1.173,1.173,0,0,0,1.291-.76c-1.721-1.53-4.492-3.78-4.492-3.78l-2.486,3.2h-5.543v-8.17h4.3a1.058,1.058,0,0,0,1.195-.76c-1.482-1.44-4.015-3.49-4.015-3.49l-2.2,2.91H264.4a33.048,33.048,0,0,0,11.183-13,2.732,2.732,0,0,0,2.007-.62l-3.966-3.53-2.39,2.29H259.812l0.43,1.34h10.944a35.8,35.8,0,0,1-16.583,17.63l0.478,0.67a39.834,39.834,0,0,0,8.937-4.49l0.286,1.05h5.018v6.4c0,0.58-.047,1.2-0.047,1.77H257.136l0.43,1.34h11.565c-0.717,5.21-3.632,10.28-12.951,14.34l0.382,0.67c12.426-3.54,15.676-9.42,16.44-15.01h7.026v10.28c0,2.82.86,3.68,4.731,3.68h4.54c7.121,0,8.745-.63,8.745-2.3,0-.76-0.286-1.24-1.481-1.67Zm-2.39-27.48a44.791,44.791,0,0,1-5.974,6.45,34.209,34.209,0,0,1-4.11-3.73,64.564,64.564,0,0,0,7.456-4.44c1.051,0.24,1.433.05,1.768-.43l-4.54-2.68a45.086,45.086,0,0,1-5.5,6.6,24.9,24.9,0,0,1-4.4-7.55l-0.764.47a32.935,32.935,0,0,0,17.873,21.41,4.326,4.326,0,0,1,3.537-3.15l0.1-.53a40.688,40.688,0,0,1-10.37-5.2,50.057,50.057,0,0,0,7.694-4.02c1.051,0.24,1.434.05,1.768-.38Zm24.764,38.18a3.5,3.5,0,1,0,0-7A3.5,3.5,0,1,0,318.794,2017.06Zm0-40.99c-2,0-3.263,1.21-3.263,3.89,0,2.85.474,7.42,1.527,16.95l0.736,8.1h2l0.737-8.1c1.052-9.47,1.526-14.1,1.526-16.95C322.057,1977.28,320.794,1976.07,318.794,1976.07Zm42.949,32.96v-5.97h11.135v5.97H361.743Zm14.719-5.44a3.473,3.473,0,0,0,1.817-.86l-4.015-2.97-1.816,1.92H361.934l-3.727-1.58v13.28h0.525c1.434,0,3.011-.81,3.011-1.14v-1.77h11.135v2.15h0.574c1.194,0,2.963-.86,3.01-1.2v-7.83Zm5.64-7.08H352.615l-4.158-1.81v22.51h0.622c1.577,0,3.154-.86,3.154-1.25v-18.11H382.58v14.24a0.857,0.857,0,0,1-1.052.96c-1.051,0-5.543-.34-5.543-0.34v0.72c2.15,0.29,3.249.72,3.918,1.29a4.023,4.023,0,0,1,1,2.58c4.875-.43,5.5-2.1,5.5-4.82v-13.91a3.848,3.848,0,0,0,2.007-.96l-4.444-3.34Zm-22.748-5.64v-5.68h15.962v5.68H359.354Zm16.583,3.49c1.242,0,3.2-.71,3.25-1.05v-7.41a3.57,3.57,0,0,0,1.959-1l-4.3-3.25-2.007,2.15h-15.2l-4.062-1.67v12.62h0.574c1.529,0,3.2-.86,3.2-1.2v-1.34h15.962v2.15h0.621Zm5.4-15.67H369.2v-3.59c1.147-.14,1.577-0.62,1.673-1.29l-5.544-.52v5.4H346.02l0.382,1.38h41.339a1.13,1.13,0,0,0,1.29-.76c-1.911-1.63-4.97-3.92-4.97-3.92Zm53.7,1.24a45.61,45.61,0,0,1-2.2,5.02l0.574,0.38a32.557,32.557,0,0,0,5.974-4.68,2.514,2.514,0,0,0,1.816-.53l-4.015-3.82-2.2,2.24H421.134v-3.44c1.147-.14,1.625-0.62,1.672-1.29l-5.639-.52v5.25h-12.9a14.145,14.145,0,0,0-.574-2.58h-0.764a7.088,7.088,0,0,1-3.632,6.55,2.332,2.332,0,0,0-1.339,2.87c0.526,1.34,2.438,1.43,3.728.52,1.434-.9,2.724-2.91,2.724-5.97h30.634Zm-21.363,1.82c2.151,1.1,4.636,3.39,5.449,5.44,4.014,1.92,5.878-5.92-5.066-5.92Zm-8.028,4.73c-0.287,2.91-2.868,5.02-5.018,5.73-1.147.53-1.96,1.48-1.577,2.63,0.477,1.24,2.246,1.43,3.679.77,2.247-1.01,4.732-4.02,3.728-9.13H405.65Zm15.962,12.66c8.984,0,10.609-.57,10.609-2.24,0-.63-0.334-1.01-1.481-1.39l-0.144-4.68h-0.621a20.918,20.918,0,0,1-1.482,4.58,1.208,1.208,0,0,1-1.147.53c-0.812.1-2.915,0.1-5.543,0.1h-6.452A44.988,44.988,0,0,0,430.023,1985c1.1,0.38,1.529.24,1.911-.24l-4.253-2.82c-3.106,4.49-8.077,8.79-14.194,12.38v-8.18a1.454,1.454,0,0,0,1.434-1.19l-4.875-.48v11.71a68.562,68.562,0,0,1-13.094,5.11l0.287,0.77a72.336,72.336,0,0,0,13.429-3.92c0.669,0.76,2.055,1,4.683,1h6.261Zm10.083,13.53H421.182v-10.23a1.471,1.471,0,0,0,1.481-1.19l-5.353-.53v11.95H406.94v-7.7c1.195-.19,1.625-0.62,1.72-1.34l-5.543-.52v14.19h0.669c1.481,0,3.154-.67,3.154-1.05v-2.2H431.7v2.73h0.669c1.482,0,3.2-.67,3.2-1.05v-10.76c1.2-.19,1.625-0.62,1.721-1.34l-5.592-.52v9.56Zm-1.194-25.24c2.676,2.01,5.543,5.6,6.165,8.65,3.918,2.78,6.738-5.73-5.687-9.03Zm50.158,10.18v4.02H463.073v-4.02h17.586Zm-17.586,15.15v-4.2h17.586v4.2H463.073Zm0-9.75h17.586v4.16H463.073v-4.16Zm20.5-11.85H470.958v-4.3H486.2a1.139,1.139,0,0,0,1.29-.76c-1.624-1.49-4.2-3.49-4.2-3.49l-2.294,2.86H470.958v-4.15h16.966a1.168,1.168,0,0,0,1.29-.77c-1.721-1.58-4.445-3.63-4.445-3.63l-2.437,2.96h-7.551a37.631,37.631,0,0,0,4.923-4.25,1.537,1.537,0,0,0,1.768-.91l-5.544-1.53a66.225,66.225,0,0,1-2.867,6.69h-8.937c1.529-1.38.956-5.3-6.022-6.54l-0.478.33a14.259,14.259,0,0,1,3.728,6.21H450.074l0.43,1.44h16.487v4.15h-15.2l0.43,1.39h14.767v4.3H448.019l0.43,1.39H459.2c-2.341,7.31-6.642,14.62-12.473,19.69l0.574,0.62a39.852,39.852,0,0,0,11.947-11.14v15.63h0.574c1.625,0,3.25-.91,3.25-1.29v-1.91h17.586v3.01h0.526a5.935,5.935,0,0,0,3.3-1.15v-17.68a3.758,3.758,0,0,0,1.959-1l-4.349-3.3-1.959,2.24H463.311l-0.716-.33c0.478-1.1.955-2.25,1.386-3.39h25.281a1.065,1.065,0,0,0,1.242-.72c-1.625-1.58-4.492-3.82-4.492-3.82Zm-354.65,62.41a42.3,42.3,0,0,1-6.308,10.85,64.069,64.069,0,0,0-10.9-4.92,61.309,61.309,0,0,0,4.875-5.74,3.436,3.436,0,0,0,1.768.86,10.984,10.984,0,0,0,2.676-.62,56.549,56.549,0,0,1,7.36-1.19C128.925,2052.76,129.164,2052.95,128.925,2053.57Zm-10.8-1.91c0.478-.72.908-1.39,1.338-2.1,0.717-1.2,1.386-1.58,1.386-2.49,0-.96-2.724-2.53-5.018-2.87a10.233,10.233,0,0,0-2.963-.04l-0.239.81c1.625,0.76,2.867,1.57,2.867,2.44,0,2.86-7.933,13.81-15.293,19.4l0.717,0.95a42.447,42.447,0,0,0,9.845-7.36,40.571,40.571,0,0,1,9.893,6.41,65.455,65.455,0,0,1-20.12,16.01l0.621,1a57.049,57.049,0,0,0,21.936-14.57c3.345,3.72,4.11,5.68,5.687,5.63a1.861,1.861,0,0,0,1.912-2.1c-0.1-2.01-2.342-4.3-5.114-6.35a75.071,75.071,0,0,0,7.169-10.85c0.621-1.15,2.341-1.58,2.341-2.58,0-1.44-3.393-3.73-4.587-3.73-0.908,0-1.339.95-2.629,1.24a70.9,70.9,0,0,1-9.558,1.15h-0.191Zm28.72-2.73-0.86.34a13.166,13.166,0,0,0,.43,2.87c0.478,1.38,2.82,3.92,4.445,3.92,1,0,2.1-1.01,3.345-1.3a164.255,164.255,0,0,1,17.826-2.67c0.43,0,.717.14,0.526,0.76-2.772,10.99-11.757,21.7-25.281,28.58l0.669,1.05c14.528-5.25,23.13-14.24,28.339-26.09,0.717-1.53,2.39-2.39,2.39-3.58,0-1.49-3.728-4.45-5.4-4.45-0.955,0-1.577.86-3.01,1.15-2.342.52-16.679,2.05-19.69,2.05C148.853,2051.56,147.753,2050.13,146.845,2048.93Zm51.228-5.78a22.387,22.387,0,0,1,6.069,5.02c1.051,1.43,1.529,2.39,2.772,2.39a2.038,2.038,0,0,0,2.055-2.06c0-3.39-5.4-5.35-10.371-6.11Zm-8.507,9.89a9.8,9.8,0,0,0,.43,3.21c0.621,1.48,2.772,3.29,4.11,3.29,1.243,0,1.529-1.05,3.059-1.48,2.532-.67,9.94-2.53,11.613-2.67,0.621-.1.669,0.09,0.334,0.67-3.823,6.69-15.866,15.77-25.568,20.69l0.622,1.1a67.1,67.1,0,0,0,19.307-10.9,13.98,13.98,0,0,1,.095,1.58c0,2.53-.238,7.41-0.43,8.74a26.862,26.862,0,0,0-.43,3.16c0,1.29.765,3.77,2.246,3.77,1.577,0,1.912-1.33,1.912-2.48,0-1.1-.191-3.01-0.191-4.59,0-7.36.239-9.18,0.239-10.37a2.806,2.806,0,0,0-1.1-1.82,55.657,55.657,0,0,0,7.407-7.79c0.574-.76,2.629-1.09,2.629-2.15,0-1.1-3.2-3.34-4.54-3.34-0.765,0-1,.86-2.581,1.29-2.581.57-12.426,2.39-15.15,2.39-1.433,0-2.341-1.44-3.2-2.53Zm20.072,12.33a23,23,0,0,1,8.7,7.79c0.908,1.34,1.433,1.77,2.437,1.77a1.8,1.8,0,0,0,1.816-1.86c0-4.21-5.687-7.36-12.473-8.51Zm26.533-15.86a9.671,9.671,0,0,0,.573,3.1c0.574,1.34,2.581,3.64,4.158,3.64,1.243,0,1.53-.96,3.059-1.39,2.533-.72,9.032-2.34,11.995-2.77,0.526-.1.813,0.05,0.574,0.72-4.3,9.65-15.723,21.17-26.954,27l0.669,1.1a56.25,56.25,0,0,0,21.219-14.29c4.349,2.67,7.025,5.68,9.94,9.27,2.246,2.77,3.107,4.25,4.588,4.25a1.967,1.967,0,0,0,1.96-2.1c0-4.4-7.551-9.46-15.341-12.62a79.681,79.681,0,0,0,7.742-10.61c0.621-.91,2.294-1.38,2.294-2.43,0-1.25-3.489-4.07-5.066-4.07-0.812,0-1.434,1.05-2.485,1.34-2.533.62-11.661,2.3-14.481,2.3-1.624,0-2.628-1.63-3.488-2.82Zm62.622,6.45c0.478-1.86.812-3.78,1.051-4.88,0.382-1.86,1.529-1.86,1.529-3.05,0-1.29-3.488-3.25-5.543-3.3a14.379,14.379,0,0,0-3.632.81v0.91a16.713,16.713,0,0,1,3.01.86,1.41,1.41,0,0,1,.861,1.62,56.792,56.792,0,0,1-1.195,7.46c-5.162.62-10.227,1.19-11.661,1.19s-2.2-1.48-2.963-2.82l-0.86.2a6,6,0,0,0,.239,3.2c0.43,1.29,2.485,3.73,3.775,3.73,1,0,1.482-.72,2.963-1.1,1.386-.34,5.018-1.06,7.742-1.53-2.055,6.93-5.83,15.77-17.061,23.84l0.717,0.91c14.624-7.21,18.734-19.5,20.359-25.37a77.926,77.926,0,0,1,9.032-.96,0.505,0.505,0,0,1,.573.57c0,3.06-1.863,14.2-4.826,17.92-0.669.82-1.147,0.91-2.39,0.58a54,54,0,0,1-5.639-2.2l-0.526.91c2.772,2.2,4.206,3.06,4.684,4.78,0.286,1.19.716,1.67,1.72,1.67,2.007,0,4.349-1.67,5.591-4.11,2.772-5.26,4.11-11.8,4.971-17.83,0.239-1.48,1.577-1.38,1.577-2.48,0-1.15-3.154-3.73-4.3-3.73-0.908,0-1.339,1.15-2.629,1.29Zm8.889-8.36a21.238,21.238,0,0,1,4.3,4.44c0.908,1.15,1.481,2.1,2.246,2.1a1.287,1.287,0,0,0,1.338-1.38,3.743,3.743,0,0,0-1.577-2.82,17.174,17.174,0,0,0-5.735-3.11Zm4.253-3.16a21.761,21.761,0,0,1,4.349,4.02c1,1.14,1.529,2.19,2.342,2.19a1.206,1.206,0,0,0,1.29-1.38c0-1-.526-1.91-1.768-2.96a17.431,17.431,0,0,0-5.687-2.63Zm10.743,16.54a9.062,9.062,0,0,0,.326,2.96c0.612,1.82,2.693,4.4,3.959,4.4,1.306,0,1.795-.82,4.325-1.15,3.061-.43,13.876-1.15,16.569-1.15,2.612,0,4.04.1,5.51,0.1s2.081-.57,2.081-1.53c0-1.53-1.918-2.53-3.755-2.53-1.02,0-2.367.28-5.1,0.52-2.04.19-15.793,1.24-19.629,1.24-1.837,0-2.531-1.43-3.469-3.15Zm39.483-14.34c2.341,0.29,3.536.67,3.727,2.2,0.335,2.34.335,7.74,0.335,11.61,0,3.44,0,10.85-.383,14.39-0.191,1.91-.621,2.86-0.621,3.96,0,2.2.956,4.78,2.82,4.78,1.29,0,1.768-.67,1.768-2.29,0-.77-0.1-2.25-0.143-4.45-0.048-4.82-.048-12.23,0-15.96a33.325,33.325,0,0,1,7.359,3.97c3.059,2.53,3.537,4.49,5.5,4.49a1.9,1.9,0,0,0,1.912-2.05c0-1.72-1.291-3.01-2.915-4.02a38.1,38.1,0,0,0-11.852-4.06c0.047-2.72.143-5.97,0.43-8.13,0.191-1.57,1.1-1.86,1.1-2.96,0-1.24-3.537-3.2-5.687-3.2a13.352,13.352,0,0,0-3.393.81Zm14.719,3.3a22.961,22.961,0,0,1,4.349,4.39c0.956,1.2,1.481,2.16,2.246,2.16a1.271,1.271,0,0,0,1.338-1.39,3.85,3.85,0,0,0-1.625-2.92,18.029,18.029,0,0,0-5.687-3.01Zm4.11-3.92a23.239,23.239,0,0,1,4.349,3.97c1.051,1.24,1.577,2.19,2.389,2.19a1.126,1.126,0,0,0,1.243-1.29,3.6,3.6,0,0,0-1.768-2.96,15.642,15.642,0,0,0-5.64-2.63Zm32.177,13.28c-2.054.82-4.109,1.63-6.069,2.39v-8.02h5.926a1.111,1.111,0,0,0,1.243-.77c-1.434-1.53-3.824-3.58-3.824-3.58l-2.1,2.96H407.1v-9.18c1.195-.14,1.673-0.62,1.768-1.33l-5.4-.58v11.09H396.68l0.382,1.39h6.4v9.46c-3.3,1.24-6.022,2.24-7.5,2.67l2.007,4.64a1.8,1.8,0,0,0,.956-1.29c1.625-.96,3.106-1.86,4.54-2.77v13.52c0,0.67-.239.91-1,0.91-0.86,0-4.97-.29-4.97-0.29v0.72a6.438,6.438,0,0,1,3.585,1.34,4.252,4.252,0,0,1,.908,2.67c4.587-.47,5.113-2.1,5.113-5.06v-16.11c2.533-1.62,4.636-3.05,6.356-4.15Zm19.356,2.06a33.175,33.175,0,0,1-6.452,11.66,28.04,28.04,0,0,1-7.6-11.66h14.051Zm2.437-3.73-2.533,2.34h-4.636v-8.5h11.852a1.142,1.142,0,0,0,1.243-.77c-1.673-1.57-4.492-3.77-4.492-3.77l-2.485,3.2h-6.118v-6.69c1.243-.24,1.673-0.67,1.769-1.39l-5.592-.52v8.6H413.263l0.382,1.34h10.323v8.5h-9.8l0.43,1.39h2.868a36.1,36.1,0,0,0,6.6,13.81,40.568,40.568,0,0,1-15.532,9.37l0.382,0.71a43.049,43.049,0,0,0,17.109-7.88,34.38,34.38,0,0,0,11.9,7.79,4.623,4.623,0,0,1,3.68-3.2l0.095-.53a39.484,39.484,0,0,1-13.094-6.31,35.748,35.748,0,0,0,8.363-13.04c1.147-.1,1.673-0.24,2.007-0.72Zm56.189-10.37a1.056,1.056,0,0,0,1.194-.76c-1.577-1.48-4.253-3.64-4.253-3.64l-2.294,3.02h-5.974l0.383,1.38h10.944Zm-34.362-5.83a50.988,50.988,0,0,1-8.363,13.24l0.478,0.52a44.441,44.441,0,0,0,11.04-10.6c1.1,0.19,1.577,0,1.816-.53Zm0.287,10.37a62.5,62.5,0,0,1-9.128,16.78l0.526,0.52a39.469,39.469,0,0,0,5.4-5.21v21.36h0.621a4.439,4.439,0,0,0,3.011-1.09v-22.47a1.59,1.59,0,0,0,1.434-.9l-2.007-.72c1.338-1.82,2.485-3.58,3.393-5.11,1.147,0.19,1.577-.05,1.864-0.53Zm3.345,25.57c3.2-4.25,5.257-10.66,6.4-17.54a1.566,1.566,0,0,0,1.625-1.19l-5.018-.82a63.675,63.675,0,0,1-3.775,19.12Zm19.786-24.52a1.113,1.113,0,0,0,1.242-.76c-1.1-1.01-2.676-2.15-3.489-2.77,2.151,0.09,3.25-4.02-3.3-6.26l-0.526.33a11.751,11.751,0,0,1,2.533,5.4,3.9,3.9,0,0,0,.526.34l-2.055,2.34h-2.915v-7.74a1.69,1.69,0,0,0,1.672-1.34l-5.3-.58v9.66h-7.456l0.383,1.38h7.073v32.17h0.669c1.386,0,2.963-.91,2.963-1.39v-30.78h7.981Zm-6.595,4.93c2.293,4.58,2.867,11.32,2.915,14.86,2.341,3.73,7.073-4.88-2.2-15.2Zm12.712-1.15h-7.933l0.382,1.43h5.639v22.03c0,0.67-.191.91-1,0.91-0.861,0-5.066-.29-5.066-0.29v0.72a6.43,6.43,0,0,1,3.727,1.29,4.217,4.217,0,0,1,.813,2.63c4.588-.43,5.209-2.39,5.209-5.11v-22.18h3.775a1.113,1.113,0,0,0,1.243-.76c-1.625-1.58-4.4-3.78-4.4-3.78ZM520,2054.38a22.383,22.383,0,0,1-1.816,7.74c-1.863,4.16-6.212,11.43-9.223,11.43-1.959,0-3.919-3.49-3.919-7.84a15.276,15.276,0,0,1,4.731-10.8,17.967,17.967,0,0,1,8.842-4.83A7.813,7.813,0,0,1,520,2054.38Zm-0.716,27.43c15.723-.9,21.123-8.93,21.123-17.15,0-9.94-7.646-16.73-17.826-16.73a20.831,20.831,0,0,0-14.1,5.11,18.576,18.576,0,0,0-6.595,13.62c0,6.03,3.393,11.33,6.786,11.33,5.162,0,10.657-9.13,12.665-14.96a24.157,24.157,0,0,0,1.529-7.93,8.979,8.979,0,0,0-2.39-5.35c0.622-.05,1.195-0.1,1.769-0.1,7.885,0,14,5.5,14,14.05,0,8.6-5.352,14.77-17.157,17.06ZM254.732,2113.4v3.82H233.657v-3.82h21.075Zm-21.075,9.27v-4.06h21.075v4.06H233.657Zm0,1.34h21.075v1.91h0.622c1.194,0,3.154-.72,3.2-1.05v-10.8a3.57,3.57,0,0,0,2.007-.96l-4.349-3.3-1.96,2.2H233.943l-4.062-1.72v16.3h0.574c1.577,0,3.2-.86,3.2-1.24v-1.34Zm5.782,9.36h-7.5v-4.2h7.5v4.2Zm-7.5,7.13h7.5v3.91c-2.628.39-5.161,0.77-7.5,1.15v-5.06Zm0-5.74h7.5v4.35h-7.5v-4.35Zm33.023-5.59a1.142,1.142,0,0,0,1.243-.77c-1.673-1.57-4.588-3.87-4.588-3.87l-2.485,3.3H222.091l0.431,1.34h5.687v16.92c-2.581.33-4.732,0.62-6.118,0.76l2.151,4.45a1.755,1.755,0,0,0,1.147-1.1c6.022-1.92,10.609-3.49,14.05-4.69v7.84h0.622c1.863,0,3.058-.81,3.058-1.05v-23.13h21.84Zm-7.407,5.45a30.951,30.951,0,0,1-3.632,7.98,19.528,19.528,0,0,1-5.544-7.98h9.176Zm2.246-3.64-2.389,2.25H244.171l0.43,1.39h2.772a27.4,27.4,0,0,0,4.874,10.27,28.021,28.021,0,0,1-8.268,6.98l0.431,0.67a31.481,31.481,0,0,0,9.653-5.69,26.618,26.618,0,0,0,9.176,5.59,4.433,4.433,0,0,1,3.3-3.34l0.1-.48a31.788,31.788,0,0,1-10.227-4.16,28.69,28.69,0,0,0,5.544-9.37c1.051-.09,1.529-0.19,1.863-0.66Zm47.156-16.72a22.2,22.2,0,0,1,4.11,4.11c-4.492.14-8.841,0.24-12.473,0.28a52.234,52.234,0,0,0,5.114-6.92,1.57,1.57,0,0,0,1.768-.96l-5.878-1.48a76.347,76.347,0,0,1-2.724,9.41c-2.677.05-4.923,0.05-6.452,0.05l1.72,4.44a1.549,1.549,0,0,0,1.291-.9c7.981-1.15,13.955-2.06,18.4-2.87a12.1,12.1,0,0,1,1.768,3.87c3.967,2.63,6.4-6.21-6.165-9.41Zm-20.311,15.72-2.054,2.1h-5.926c0.334-3.01.621-6.35,0.764-8.65h5.305v2.25h0.573c1.147,0,2.963-.76,3.011-1.05v-10.56a3.747,3.747,0,0,0,2.007-.91l-4.157-3.2-1.912,2.1h-9.94l0.382,1.39h10.036v8.65h-4.54l-3.919-1.49c-0.287,3.78-1,10.76-1.673,15.68,1.864,0.29,2.724.19,3.632-.34,0.1-.76.192-1.62,0.287-2.53h6.547c-0.477,8.65-1.433,13.96-2.771,15.15a2.332,2.332,0,0,1-1.721.48c-1,0-4.062-.29-5.926-0.43v0.76a12.29,12.29,0,0,1,4.11,1.34,3.319,3.319,0,0,1,.765,2.54,7.763,7.763,0,0,0,5.161-1.63c2.151-1.86,3.393-7.65,3.919-17.73a2.848,2.848,0,0,0,1.912-.72Zm8.89,6.79v-7.89h5.926v7.89h-5.926Zm15.723-7.89v7.89H305v-7.89h6.261Zm-2.486,12.62a45.117,45.117,0,0,1,3.394,5.11l-7.169.58v-9.04h6.261v2.35h0.573c1.1,0,2.867-.77,2.915-1.1v-9.99a4.049,4.049,0,0,0,1.816-.86l-3.966-2.97-1.769,1.96H305v-3.87c1-.14,1.338-0.48,1.434-1.1l-4.97-.52v5.49h-5.688l-3.632-1.62v15.44h0.478c1.434,0,2.916-.77,2.916-1.1v-2.11h5.926v9.27c-5.449.43-9.941,0.72-12.617,0.77l2.2,4.59a1.782,1.782,0,0,0,1.243-1.05c8.841-1.63,15.436-2.92,20.406-4.02a17.349,17.349,0,0,1,1.721,4.73c3.823,3.11,6.929-5.25-5.114-11.28Zm68.33-28.38H363.313v2l6.052,0.79,0.053,18.79c0,10.31-3.368,14.1-10.1,14.1-5.947,0-9.735-3.21-9.735-13.1v-4.74c0-5.16,0-10.21.105-15.21l5.841-.63v-2h-16.1v2l4.842,0.53c0.052,5.05.052,10.21,0.052,15.31v6.05c0,11,5.684,15.53,14.051,15.53,7.946,0,13.524-4.63,13.524-16.47l0.052-20.26,5.157-.69v-2Zm43.515,0H407.406v2.21l5.315,0.53-9.367,28.94-10.1-28.99,5.63-.48v-2.21H383.252v2l4.368,0.48,13.471,36.46h2.421l12.1-36.31,5-.68v-1.95Z" transform="translate(-100.219 -1973.09)"/>
  <path id="_1" data-name="※1" class="cls-1" d="M325.246,2112.53a0.67,0.67,0,1,0,.668.67A0.667,0.667,0,0,0,325.246,2112.53Zm-2.436,2.45a0.675,0.675,0,1,0,.677.67A0.677,0.677,0,0,0,322.81,2114.98Zm4.882,0a0.675,0.675,0,1,0,0,1.35A0.675,0.675,0,0,0,327.692,2114.98Zm-2.446,2.45a0.678,0.678,0,0,0-.667.69,0.668,0.668,0,0,0,1.335,0A0.679,0.679,0,0,0,325.246,2117.43Zm0.271-1.78,3.366-3.39-0.271-.27-3.366,3.39-3.365-3.39-0.271.27,3.366,3.39-3.384,3.42,0.271,0.27,3.383-3.41,3.4,3.41,0.271-.27Zm7.2-3.36H332.1a5.992,5.992,0,0,1-1.534.78l0.126,0.67a6.466,6.466,0,0,0,1.3-.66v5.25h-1.309v0.61h3.258v-0.61h-1.228v-6.04Z" transform="translate(-100.219 -1973.09)"/>
</svg>
