<svg id="head-block-0001_sp.svg" xmlns="http://www.w3.org/2000/svg" width="383" height="104.31" viewBox="0 0 383 104.31">
  <defs>
    <style>
      .cls-1, .cls-2 {
        fill: #1e9fe0;
        opacity: 0.2;
      }

      .cls-1, .cls-3 {
        fill-rule: evenodd;
      }

      .cls-3 {
        fill: #1147b4;
      }
    </style>
  </defs>
  <path id="長方形_978" data-name="長方形 978" class="cls-1" d="M171.094,2297.13H469.031v12.84H171.094v-12.84Z" transform="translate(-129 -2264.69)"/>
  <rect id="長方形_978-2" data-name="長方形 978" class="cls-2" y="91.31" width="383" height="13"/>
  <path id="ムラなく高密着_タフネスガード技術" data-name="ムラなく高密着 タフネスガード技術" class="cls-3" d="M191.725,2267.26a23.607,23.607,0,0,1-1.293,6.08c-2.318,7.46-4.637,14.03-7.8,21.98-1.784.04-3.656,0.09-5.44-.05a41.547,41.547,0,0,0,1.561,5.73,0.829,0.829,0,0,0,1.293.44c1.07-.53,2.273-0.75,5.216-1.06,7.268-.76,14.045-1.51,21.178-2.58,0.535,1.16,1.026,2.31,1.561,3.55a0.753,0.753,0,0,0,.624.63,1.183,1.183,0,0,0,.535-0.14,22.262,22.262,0,0,0,3.389-1.82,0.918,0.918,0,0,0,.579-0.75,1.067,1.067,0,0,0-.178-0.58,62.392,62.392,0,0,0-9.006-14.52,0.748,0.748,0,0,0-1.07-.26c-1.249.66-2.542,1.42-3.879,2.13a44.379,44.379,0,0,1,4.949,7.1c-4.994.76-8.739,1.11-15.605,1.69,2.808-6.66,5.172-13.19,7.668-19.98a14.188,14.188,0,0,1,1.828-3.68,1.511,1.511,0,0,0,.446-0.89,0.983,0.983,0,0,0-.535-0.71A24.207,24.207,0,0,0,191.725,2267.26Zm47.177,5.86c2.719,0,4.815.09,6.286,0.09,0.669,0.04.8-.14,0.8-0.89a22.452,22.452,0,0,0,0-3.46c0-.49-0.134-0.71-0.535-0.71-1.739.09-4.1,0.22-7,.22H230.43a63.087,63.087,0,0,1-7.312-.31,38.487,38.487,0,0,0,.223,4.26c0.045,0.71.178,0.98,0.624,0.98,1.873-.14,4.1-0.18,6.109-0.18H238.9Zm3.388,9.5c-3.21,8.57-10.478,14.69-18.726,18.51a13.241,13.241,0,0,1,4.146,2.31,1.433,1.433,0,0,0,.981.53,2.111,2.111,0,0,0,.892-0.31c8.6-4.61,13.733-10.16,18.191-19.62a5.134,5.134,0,0,1,1.516-2.09,1.049,1.049,0,0,0,.49-0.84,1.3,1.3,0,0,0-.445-0.93,25.938,25.938,0,0,0-2.988-2.75,1.15,1.15,0,0,0-.668-0.32,0.954,0.954,0,0,0-.58.27,4.918,4.918,0,0,1-2.363.49H227.443a78.19,78.19,0,0,1-8.2-.36,33.408,33.408,0,0,0,.491,4.49c0.089,0.58.267,0.84,0.668,0.84,2.23-.13,4.459-0.18,6.688-0.18Zm36.209,9.63a23.186,23.186,0,0,0-3.522-.26c-5.039,0-8.249,2.62-8.249,6.48,0,3.82,3.3,6.3,8.2,6.3,5.083,0,8.293-2.04,8.293-6.48a33.238,33.238,0,0,1,5.439,3.73,0.7,0.7,0,0,0,.446.27,0.509,0.509,0,0,0,.4-0.31,27.129,27.129,0,0,0,2.051-3.6,0.587,0.587,0,0,0-.268-0.93,34.913,34.913,0,0,0-8.025-4.13,57.732,57.732,0,0,1-.491-7.55,4.6,4.6,0,0,1,.178-1.82,5.4,5.4,0,0,0,.268-0.93,0.683,0.683,0,0,0-.624-0.71,23.661,23.661,0,0,0-4.86-.84,15.54,15.54,0,0,1,.357,3.15C278.142,2286.7,278.231,2289.41,278.5,2292.25Zm0.089,4.22a5.09,5.09,0,0,1,.045.89c0,1.86-1.472,3.15-3.879,3.15-2.542,0-3.79-.71-3.79-2.13,0-1.69,1.739-2.58,3.968-2.58A11.546,11.546,0,0,1,278.588,2296.47Zm-7.268-22.77c0.4-1.34.758-2.71,1.071-3.78a4.858,4.858,0,0,1,.713-1.64,1.1,1.1,0,0,0,.4-0.84,0.763,0.763,0,0,0-.713-0.67,40.237,40.237,0,0,0-5.217-.93,17.1,17.1,0,0,1-.267,3.59c-0.312,1.6-.624,3.11-1.159,4.98-2.051.17-3.389,0.22-5.128,0.22-1.293,0-2.318-.05-4.146-0.18a22.9,22.9,0,0,0,.446,3.77c0.089,0.58.178,0.71,0.624,0.71,1.114,0.05,1.471.05,2.452,0.05,1.382,0,2.764,0,4.459-.09a89.156,89.156,0,0,1-7.714,15.49,0.867,0.867,0,0,0-.223.54,0.635,0.635,0,0,0,.312.49,21.038,21.038,0,0,0,3.077,2.26,1.271,1.271,0,0,0,.535.22,0.64,0.64,0,0,0,.49-0.44,122.831,122.831,0,0,0,8.695-19.05c2.764-.4,4.949-0.71,7.356-1.2a0.468,0.468,0,0,0,.535-0.53,24.021,24.021,0,0,0-.4-3.6c-0.089-.48-0.268-0.48-0.669-0.35A48.557,48.557,0,0,1,271.32,2273.7Zm9.9,4.21a38.821,38.821,0,0,1,9.229,4.84,0.592,0.592,0,0,0,.4.18,0.506,0.506,0,0,0,.4-0.31,26.529,26.529,0,0,0,1.873-3.29,1.047,1.047,0,0,0,.178-0.53,0.66,0.66,0,0,0-.4-0.49,35.065,35.065,0,0,0-8.739-4.17,0.623,0.623,0,0,0-.936.31C282.645,2275.25,281.977,2276.58,281.219,2277.91Zm34.915-11.81a12.68,12.68,0,0,1-2.407,3.33c-3.835,4.18-7.535,7.86-11.325,11.95-1.382,1.46-2.185,2.44-2.185,3.9s0.669,2.44,2.363,3.73a112.563,112.563,0,0,1,16.229,15.01,0.819,0.819,0,0,0,.536.4,1.172,1.172,0,0,0,.624-0.36c0.758-.66,2.051-1.95,3.076-3.06a0.762,0.762,0,0,0,.312-0.53,1.05,1.05,0,0,0-.312-0.58,124.314,124.314,0,0,0-16.586-13.99,1.1,1.1,0,0,1-.579-0.79,1.913,1.913,0,0,1,.579-0.98c3.433-3.55,8.338-8.13,12.172-11.54a8.546,8.546,0,0,1,2.14-1.56,0.888,0.888,0,0,0,.624-0.84,1.083,1.083,0,0,0-.356-0.71A35.624,35.624,0,0,0,316.134,2266.1Zm54.311,25.66c0-3.24.089-4.79,0.089-5.06,0-.44-0.045-0.48-0.491-0.48-0.312,0-1.783.08-6.019,0.08h-23.1c-4.236,0-5.707-.08-6.019-0.08-0.446,0-.491.04-0.491,0.48,0,0.27.089,1.6,0.089,4.71v8.61c0,3.42-.089,4.75-0.089,5.02,0,0.44.045,0.49,0.491,0.49h3.834c0.446,0,.491-0.05.491-0.49,0-.22-0.09-1.73-0.09-5.02v-9.94h26.663v9.72a1.016,1.016,0,0,1-1.115,1.24,25.433,25.433,0,0,1-2.853-.17,10.2,10.2,0,0,1,.936,2.93c0.223,1.28.267,1.37,1.65,1.37,3.21,0,4.235-.22,5.038-0.93a4.082,4.082,0,0,0,1.07-3.2c0-1.37-.089-3.24-0.089-5.63v-3.65Zm-23.319-16.95c-4.057,0-5.484-.09-5.751-0.09-0.446,0-.491.04-0.491,0.49,0,0.31.089,0.97,0.089,2.88v2.71c0,1.82-.089,2.53-0.089,2.8,0,0.44.045,0.48,0.491,0.48,0.267,0,1.694-.08,5.751-0.08h10.745c4.058,0,5.485.08,5.752,0.08,0.446,0,.491-0.04.491-0.48,0-.27-0.09-0.98-0.09-2.8v-2.71c0-1.91.09-2.57,0.09-2.88,0-.45-0.045-0.49-0.491-0.49-0.267,0-1.694.09-5.752,0.09H347.126Zm12.529,6.08H345.3v-2.93h14.357v2.93Zm6.287-8.26c4.012,0,5.394.09,5.662,0.09,0.446,0,.49-0.04.49-0.49v-3.11c0-.44-0.044-0.48-0.49-0.48-0.268,0-1.65.08-5.662,0.08H354.528v-0.13a8.821,8.821,0,0,1,.178-2.13,2.7,2.7,0,0,0,.312-0.89,0.647,0.647,0,0,0-.713-0.44c-1.516-.14-3.077-0.22-4.726-0.22a15.132,15.132,0,0,1,.312,3.68v0.13H339.056c-4.013,0-5.395-.08-5.662-0.08-0.446,0-.491.04-0.491,0.48v3.11c0,0.45.045,0.49,0.491,0.49,0.267,0,1.649-.09,5.662-0.09h26.886Zm-18.637,29.92c0.445,0,.49-0.04.49-0.49v-1.19h9.051v0.93c0,0.44.045,0.49,0.535,0.49h3.3c0.446,0,.491-0.05.491-0.49,0-.27-0.089-0.98-0.089-4.97v-1.96c0-1.28.089-2.08,0.089-2.35,0-.44-0.045-0.49-0.491-0.49-0.312,0-1.471.09-4.815,0.09H348.91c-3.389,0-4.548-.09-4.816-0.09-0.445,0-.49.05-0.49,0.49,0,0.27.089,1.11,0.089,2.8v1.64c0,4.08-.089,4.79-0.089,5.1,0,0.45.045,0.49,0.49,0.49h3.211Zm0.49-7.46h9.051v2.85H347.8v-2.85Zm47.133-15.71a4.642,4.642,0,0,1,.268-1.91,1.19,1.19,0,0,0,.223-0.71c0-.22-0.223-0.4-0.8-0.49a40.327,40.327,0,0,0-4.146-.31,25.671,25.671,0,0,1,.223,3.69v5.9a67.8,67.8,0,0,1-12.351,4.17,10.276,10.276,0,0,1,1.561,2.76c0.446,1.15.446,1.19,1.6,0.84a80.809,80.809,0,0,0,10.879-4.26c1.293,0.75,3.522.88,7.981,0.88,4.5,0,6.688-.35,8.07-1.19,1.159-.76,1.828-1.74,2.184-4.27,0.179-1.19.179-1.19-.98-1.51a12.569,12.569,0,0,1-3.032-1.11c-0.045,2.05-.446,3.16-1.249,3.69-0.758.58-2.541,0.75-4.458,0.8a29.619,29.619,0,0,1-3.433-.05,58.581,58.581,0,0,0,10.656-8.25,5.188,5.188,0,0,1,1.516-1.25,0.8,0.8,0,0,0,.713-0.66,1.219,1.219,0,0,0-.535-0.89,30.282,30.282,0,0,0-3.344-2.13,17.1,17.1,0,0,1-2.318,3.06,43.238,43.238,0,0,1-9.23,7.15v-3.95Zm6.019-10.88v-0.35a4.352,4.352,0,0,1,.223-1.82,2.093,2.093,0,0,0,.268-0.85,0.648,0.648,0,0,0-.714-0.44c-1.516-.13-3.165-0.22-4.726-0.22a15.763,15.763,0,0,1,.268,3.28v0.4H386.5c-4.1,0-5.573-.09-5.84-0.09-0.491,0-.535.05-0.535,0.49,0,0.27.089,0.98,0.089,2.44v1.51c0,3.51-.089,4.18-0.089,4.44,0,0.49.044,0.53,0.535,0.53h3.522c0.49,0,.535-0.04.535-0.53v-4.97h12.217l-1.828,1.29c-0.535.35-.58,0.44-0.223,0.71a23.72,23.72,0,0,1,3.923,4.3,0.672,0.672,0,0,0,.4.36,1.369,1.369,0,0,0,.536-0.31l2.229-1.73c0.4-.31.49-0.4,0.178-0.8a33.745,33.745,0,0,0-3.79-3.82h15.026v4.97c0,0.49.044,0.53,0.446,0.53h3.656c0.446,0,.49-0.04.49-0.53,0-.26-0.089-0.93-0.089-4.44v-1.82c0-1.15.089-1.86,0.089-2.13,0-.44-0.044-0.49-0.49-0.49-0.268,0-1.739.09-5.841,0.09h-10.7Zm9.1,30.99H401.17v-4.35a8.4,8.4,0,0,1,.223-2.66,2.385,2.385,0,0,0,.312-0.8,0.63,0.63,0,0,0-.713-0.49c-1.516-.14-2.987-0.22-4.682-0.27a18,18,0,0,1,.313,4.22v4.35h-8.561V2297a5.526,5.526,0,0,1,.178-1.86,3.356,3.356,0,0,0,.268-0.89c0-.27-0.178-0.44-0.624-0.49-1.472-.17-2.9-0.31-4.548-0.35a27.274,27.274,0,0,1,.223,3.86v4.53c0,2.08-.089,2.93-0.089,3.19,0,0.45.044,0.49,0.49,0.49h3.612c0.445,0,.49-0.04.49-0.49v-1.59h21.981v1.59c0,0.45.044,0.49,0.49,0.49H414.1c0.491,0,.535-0.04.535-0.49,0-.22-0.089-1.24-0.089-3.55v-4.7a5.813,5.813,0,0,1,.223-2.05,2.068,2.068,0,0,0,.223-0.75,0.588,0.588,0,0,0-.624-0.53,45.866,45.866,0,0,0-4.593-.36,21.067,21.067,0,0,1,.268,3.73v2.71Zm-26.172-12.61a0.977,0.977,0,0,0,.535.27,0.538,0.538,0,0,0,.4-0.27,25.7,25.7,0,0,0,4.637-7.46c0.179-.44.089-0.57-0.4-0.8l-2.72-1.24c-0.579-.27-0.669-0.27-0.847.18a19.786,19.786,0,0,1-4.414,6.7c-0.312.31-.267,0.45,0.268,0.85Zm25.458-7.72c-0.49.31-.579,0.44-0.222,0.8a35.648,35.648,0,0,1,5.216,6.97,0.487,0.487,0,0,0,.357.26,1.2,1.2,0,0,0,.535-0.26l2.541-2c0.4-.36.446-0.53,0.223-0.93a48.185,48.185,0,0,0-5.484-6.44c-0.357-.31-0.357-0.27-0.847.04Zm25.2,4.48a29.75,29.75,0,0,1-10.165,15.41,10.121,10.121,0,0,1,2.363,2.26,1.7,1.7,0,0,0,.892.84,2.289,2.289,0,0,0,1.07-.71,32.57,32.57,0,0,0,7.223-9.63v4.66c0,6.97-.09,8.52-0.09,8.75,0,0.44.045,0.48,0.491,0.48H439.7c0.446,0,.491-0.04.491-0.48v-1.25h15.471v1.11c0,0.49.045,0.54,0.446,0.54h3.567c0.49,0,.49-0.05.49-0.54,0-.22-0.044-1.51-0.044-8.34v-4.53c0-4.31.044-5.64,0.044-5.91,0-.48,0-0.53-0.49-0.53-0.268,0-2.319.09-6.331,0.09H438.315c0.223-.71.446-1.46,0.624-2.22H459c3.924,0,5.306.09,5.573,0.09,0.4,0,.446-0.04.446-0.49v-2.62c0-.44-0.044-0.49-0.446-0.49-0.267,0-1.649.09-5.573,0.09H447.232v-2.31h6.733c4.369,0,5.885.09,6.153,0.09,0.4,0,.446-0.04.446-0.49v-2.39c0-.45-0.045-0.49-0.446-0.49-0.268,0-1.784.09-6.153,0.09h-6.733v-2.18h9.051c4.236,0,5.707.09,5.975,0.09,0.49,0,.535-0.04.535-0.49v-2.57c0-.45-0.045-0.49-0.535-0.49-0.268,0-1.739.09-5.975,0.09H452.9c0.312-.49.624-0.93,0.892-1.42a2.752,2.752,0,0,1,.8-0.93,0.783,0.783,0,0,0,.491-0.63c0-.31-0.223-0.4-0.625-0.53a37.643,37.643,0,0,0-4.1-.98,9.976,9.976,0,0,1-.713,2.05c-0.49.93-.847,1.73-1.293,2.44h-6.465a23.642,23.642,0,0,0-2.853-4.04c-0.312-.4-0.4-0.31-0.892-0.18l-2.809.8c-0.624.18-.58,0.27-0.268,0.67a21.611,21.611,0,0,1,1.918,2.75H434.3c-4.281,0-5.707-.09-5.975-0.09-0.446,0-.49.04-0.49,0.49v2.57c0,0.45.044,0.49,0.49,0.49,0.268,0,1.694-.09,5.975-0.09h8.382v2.18h-6.332c-4.369,0-5.885-.09-6.152-0.09-0.446,0-.491.04-0.491,0.49v2.39c0,0.45.045,0.49,0.491,0.49,0.267,0,1.783-.09,6.152-0.09h6.332v2.31H431.4c-3.968,0-5.305-.09-5.573-0.09-0.446,0-.49.05-0.49,0.49v2.62c0,0.45.044,0.49,0.49,0.49,0.268,0,1.6-.09,5.573-0.09h3.121Zm21.134,5.55v1.95H440.188v-1.95h15.471Zm-15.471,6.66v-1.95h15.471v1.95H440.188Zm0,4.75v-1.95h15.471v1.95H440.188Zm-288.631,30.21c0.758-1.16,1.025-1.6,1.382-2.22a3.627,3.627,0,0,1,.936-0.93,1.218,1.218,0,0,0,.535-0.89,0.776,0.776,0,0,0-.49-0.71,28.518,28.518,0,0,0-5.217-2.18,16.236,16.236,0,0,1-2.407,5.46,49.471,49.471,0,0,1-12.618,13.94,18.51,18.51,0,0,1,3.745,2.05,1.032,1.032,0,0,0,.713.31,1.614,1.614,0,0,0,.892-0.4,53.967,53.967,0,0,0,9.542-9.99l11.057-.22a43.032,43.032,0,0,1-5.217,8.79,45.42,45.42,0,0,0-5.751-3.56,1.288,1.288,0,0,0-.446-0.17,0.835,0.835,0,0,0-.58.31c-1.025.93-1.962,2.08-2.942,3.15a37.642,37.642,0,0,1,6.42,4.17,53.884,53.884,0,0,1-16.408,12.03,12.731,12.731,0,0,1,4.236,2.27,1.376,1.376,0,0,0,.847.4,2.457,2.457,0,0,0,1.115-.4,54.33,54.33,0,0,0,14.223-11.1,48.9,48.9,0,0,1,4.325,4.31,0.8,0.8,0,0,0,.49.26,0.947,0.947,0,0,0,.535-0.22,26.673,26.673,0,0,0,2.764-2.8,0.841,0.841,0,0,0,.268-0.57,0.882,0.882,0,0,0-.268-0.63,40.359,40.359,0,0,0-4.815-4.48,69.4,69.4,0,0,0,6.554-10.74,5.515,5.515,0,0,1,1.338-1.69,1.14,1.14,0,0,0,.49-0.84,1.07,1.07,0,0,0-.356-0.8,14.589,14.589,0,0,0-3.032-2.71,1.569,1.569,0,0,0-.8-0.36,1.319,1.319,0,0,0-.758.31,4.3,4.3,0,0,1-2.452.67Zm48.692,3.51a37.376,37.376,0,0,1-7.535,12.65,43.139,43.139,0,0,1-14.579,11.1,13.092,13.092,0,0,1,4.146,2.44,1.592,1.592,0,0,0,1.115.49,2.218,2.218,0,0,0,1.2-.4,49.965,49.965,0,0,0,12.662-10.57,52.29,52.29,0,0,0,8.65-14.43,5.426,5.426,0,0,1,1.025-1.73,1.5,1.5,0,0,0,.624-1.11,1.1,1.1,0,0,0-.312-0.75,13.515,13.515,0,0,0-3.254-2.93,2.1,2.1,0,0,0-.848-0.23,1.3,1.3,0,0,0-.668.18,4.235,4.235,0,0,1-2.453.45H184.109a78.9,78.9,0,0,1-8.56-.31c0.089,1.28.267,3.59,0.4,4.48,0.089,0.62.268,0.93,0.847,0.89,1.917-.09,4.459-0.22,7.357-0.22h16.1Zm32.285,10.52c2.408-2.05,4.771-4.26,7.045-6.57a4.69,4.69,0,0,1,1.427-1.02,0.88,0.88,0,0,0,.669-0.8,1.419,1.419,0,0,0-.268-0.76,17.828,17.828,0,0,0-2.229-2.62,1.021,1.021,0,0,0-.758-0.35,1.521,1.521,0,0,0-.669.17,7.092,7.092,0,0,1-3.166.49l-12.929.14a44.514,44.514,0,0,1-6.2-.36,38.587,38.587,0,0,0,.491,4.35c0.089,0.58.267,0.85,0.757,0.85,1.829-.14,3.478-0.23,5.886-0.32l10.3-.22a60.73,60.73,0,0,1-8.649,7.19,84.3,84.3,0,0,1-14.357,8,10.311,10.311,0,0,1,3.567,2.7,1.2,1.2,0,0,0,.891.49,1.856,1.856,0,0,0,.758-0.22,77.536,77.536,0,0,0,12.262-7.41v5.72c0,3.69-.223,6.66-0.223,7.91,0,0.44.312,0.62,0.847,0.62a27.255,27.255,0,0,0,3.834,0c0.535,0,.847-0.18.847-0.58,0-1.11-.134-4.04-0.134-7.99v-9.41Zm-9.363-17.36a46.074,46.074,0,0,1,9.943,4.39,0.793,0.793,0,0,0,.491.18,0.682,0.682,0,0,0,.579-0.44,36.93,36.93,0,0,0,1.828-3.29,0.718,0.718,0,0,0,.179-0.44,0.732,0.732,0,0,0-.491-0.49,60.663,60.663,0,0,0-9.452-3.86,0.715,0.715,0,0,0-.936.4C224.866,2324.59,224.063,2326.06,223.171,2327.48Zm11.637,19.93a49.22,49.22,0,0,1,10.032,6.13,1.32,1.32,0,0,0,.624.31,0.746,0.746,0,0,0,.535-0.36,25.137,25.137,0,0,0,2.185-3.19,1.049,1.049,0,0,0,.178-0.54,0.652,0.652,0,0,0-.4-0.53,47.522,47.522,0,0,0-9.72-5.41c-0.445-.18-0.579-0.23-0.891.17C236.77,2344.66,235.789,2345.99,234.808,2347.41Zm30.146-18.11c-2.9,0-5.127,0-7.535-.18a25.7,25.7,0,0,0,.4,4.62c0.089,0.49.223,0.8,0.579,0.75,2.408-.17,4.726-0.26,7.045-0.26l11.5-.05a55.486,55.486,0,0,1-24.076,22.47,12.191,12.191,0,0,1,3.745,2.88,0.986,0.986,0,0,0,.758.4,2.958,2.958,0,0,0,1.025-.35,64.382,64.382,0,0,0,14.981-11.72,80.91,80.91,0,0,1,11.592,11.01,0.917,0.917,0,0,0,.625.35,0.77,0.77,0,0,0,.535-0.27,23.736,23.736,0,0,0,2.987-3.01,1.107,1.107,0,0,0,.312-0.67,1,1,0,0,0-.357-0.62,105.419,105.419,0,0,0-12.35-10.75,69.188,69.188,0,0,0,5.707-8.3,8.138,8.138,0,0,1,1.65-1.95,1.22,1.22,0,0,0,.579-0.89,1.206,1.206,0,0,0-.223-0.58,16.294,16.294,0,0,0-2.9-3.1,1.464,1.464,0,0,0-.758-0.36,0.764,0.764,0,0,0-.49.18,6.64,6.64,0,0,1-3.076.4H264.954Zm40.356,5.33c-2.586,0-4.593,0-7.4-.18,0.089,1.64.179,3.24,0.357,4.3,0.045,0.54.223,0.8,0.669,0.76,2.095-.13,4.235-0.22,6.42-0.22h4.013a25.819,25.819,0,0,1-3.21,9.59,24.782,24.782,0,0,1-10.478,9.05,11.394,11.394,0,0,1,3.745,2.58,1.144,1.144,0,0,0,.847.44,2.047,2.047,0,0,0,1.026-.35,28.726,28.726,0,0,0,9.452-9.15c1.873-2.93,3.076-6.92,3.968-12.3h9.007a61.889,61.889,0,0,1-1.338,13.32c-0.535,2-1.115,2.71-2.319,3.11-1.114.36-2.764,0.53-6.063,0.4a9.312,9.312,0,0,1,2.586,4.04,1.082,1.082,0,0,0,1.07.89,18.721,18.721,0,0,0,4.5-.49c2.854-.71,4.369-2.58,5.261-5.99,0.847-2.98,1.471-9.15,1.65-14.61,0.089-2.35.178-4.13,0.178-4.71,0-.48-0.223-0.62-0.936-0.62-2.051,0-4.147.09-6.2,0.09h-6.777c0.223-2.17.268-3.24,0.4-4.66a4.139,4.139,0,0,1,.579-2.09,1.93,1.93,0,0,0,.223-0.84,0.916,0.916,0,0,0-.758-0.93,34.833,34.833,0,0,0-5.8-.93,16.919,16.919,0,0,1,.312,3.5c-0.044,2.4-.134,3.82-0.312,6H305.31Zm19.038-6.49a22.3,22.3,0,0,1,4.5,5.15,0.465,0.465,0,0,0,.758.14l1.872-1.38a0.445,0.445,0,0,0,.134-0.71,20.526,20.526,0,0,0-4.235-4.75,0.459,0.459,0,0,0-.669-0.09Zm4.1-2.93a21.042,21.042,0,0,1,4.458,5.11,0.455,0.455,0,0,0,.758.13l1.784-1.37a0.513,0.513,0,0,0,.133-0.8,18.411,18.411,0,0,0-4.235-4.57,0.449,0.449,0,0,0-.669-0.09Zm32.911,21.23c3.3,0,6.6.04,9.943,0.08,0.624,0.05.8-.13,0.8-0.66a32.6,32.6,0,0,0,0-4.17c0-.54-0.133-0.67-0.8-0.63-3.433.05-6.866,0.14-10.255,0.14H346.692a56.754,56.754,0,0,1-9.63-.54,48.18,48.18,0,0,0,.669,5.38,0.98,0.98,0,0,0,1.025.93,35.981,35.981,0,0,1,6.554-.53h16.051Zm29.9-15.45c0-2.49,0-3.6.312-4.18a2.313,2.313,0,0,0,.357-1.02,0.821,0.821,0,0,0-.847-0.75,32.236,32.236,0,0,0-5.573-.71,33.691,33.691,0,0,1,.446,6.57v21.84c0,2.84-.045,5.46-0.179,8.75,0,0.53.223,0.66,0.847,0.66a29.191,29.191,0,0,0,3.968,0c0.625,0,.848-0.13.8-0.66-0.089-3.2-.178-5.82-0.178-8.71v-9.81a49.508,49.508,0,0,1,11.726,5.69,0.712,0.712,0,0,0,.49.22,0.757,0.757,0,0,0,.58-0.49,26.266,26.266,0,0,0,1.917-3.86,0.826,0.826,0,0,0-.49-1.16,63.139,63.139,0,0,0-14.179-6.04v-6.34Zm8.026-2.93a21.893,21.893,0,0,1,4.5,5.15,0.468,0.468,0,0,0,.758.13l1.872-1.38a0.445,0.445,0,0,0,.134-0.71,20.526,20.526,0,0,0-4.235-4.75,0.467,0.467,0,0,0-.669-0.09Zm4.1-2.93a21,21,0,0,1,4.458,5.1,0.455,0.455,0,0,0,.758.13l1.784-1.37a0.513,0.513,0,0,0,.133-0.8,18.586,18.586,0,0,0-4.235-4.57,0.449,0.449,0,0,0-.669-0.09Zm39.376,8.43v5.64h-2.9c-4.058,0-5.44-.09-5.707-0.09-0.446,0-.491.04-0.491,0.49v3.11c0,0.48.045,0.53,0.491,0.53,0.134,0,.713-0.05,1.962-0.05a30.055,30.055,0,0,0,5.751,10.79,34.293,34.293,0,0,1-12.127,5.51,12.441,12.441,0,0,1,2.006,2.88c0.357,0.8.446,1.11,0.847,1.11a3.622,3.622,0,0,0,1.026-.26,37.739,37.739,0,0,0,11.5-6,35.391,35.391,0,0,0,10.3,5.82,3.308,3.308,0,0,0,1.07.27c0.4,0,.491-0.32.847-1.16a17.618,17.618,0,0,1,1.828-3.28,29.755,29.755,0,0,1-10.522-4.84,35.1,35.1,0,0,0,6.331-9.86,4.439,4.439,0,0,1,1.026-1.77,1.084,1.084,0,0,0,.4-0.8c0-.31-0.178-0.63-1.248-1.65-0.937-.93-1.338-1.11-1.65-1.11a1.641,1.641,0,0,0-.624.18,1.6,1.6,0,0,1-.892.18h-4.681v-5.64H451.9c4.236,0,5.707.09,5.974,0.09,0.491,0,.491-0.04.491-0.49v-3.33c0-.49,0-0.53-0.491-0.53-0.267,0-1.738.09-5.974,0.09h-4.592v-1.02a13.3,13.3,0,0,1,.267-3.42,3.458,3.458,0,0,0,.312-1.11,0.615,0.615,0,0,0-.669-0.49c-1.515-.18-3.121-0.27-4.77-0.31a29.888,29.888,0,0,1,.312,5.42v0.93h-3.3c-4.235,0-5.707-.09-6.019-0.09-0.445,0-.49.04-0.49,0.53v3.33c0,0.45.045,0.49,0.49,0.49,0.312,0,1.784-.09,6.019-0.09h3.3Zm7.624,9.59a24.278,24.278,0,0,1-5.083,7.86,23.144,23.144,0,0,1-4.681-7.86h9.764Zm-22.338,3.68,2.9-1.19c1.248-.54,1.293-0.45,1.248-1.91a27.2,27.2,0,0,1,.178-2.93,38.064,38.064,0,0,1-4.325,1.77v-6.92c2.364,0.04,3.211.09,3.478,0.09,0.4,0,.446-0.05.446-0.49v-3.33c0-.49-0.045-0.53-0.446-0.53-0.267,0-1.114.08-3.478,0.08v-2.22c0-3.01,0-3.95.268-4.48a2.259,2.259,0,0,0,.268-0.93,0.662,0.662,0,0,0-.714-0.45c-1.471-.17-2.987-0.26-4.681-0.31a36.2,36.2,0,0,1,.356,6.26v2.13h-0.758c-3.031,0-3.968-.08-4.191-0.08-0.49,0-.535.04-0.535,0.53v3.33c0,0.44.045,0.49,0.535,0.49,0.223,0,1.16-.09,4.191-0.09h0.758v8.34l-1.56.45a24.631,24.631,0,0,1-4.191.8,41.948,41.948,0,0,0,.8,4.3,0.54,0.54,0,0,0,.535.54,1.782,1.782,0,0,0,.758-0.27,5.358,5.358,0,0,1,1.427-.67l2.229-.66v8.57c0,1.19-.4,1.68-1.382,1.68a23.835,23.835,0,0,1-3.388-.17,11.919,11.919,0,0,1,1.2,3.41c0.313,1.34.313,1.34,1.695,1.34,2.987,0,4.012-.18,4.993-0.89,1.16-.89,1.427-2,1.427-4.26,0-2.22-.045-5.86-0.045-9.02v-2.31Zm55.962-14.47h-0.669c-3.433,0-4.5-.09-4.771-0.09-0.446,0-.49.05-0.49,0.49v2.75a1.487,1.487,0,0,0-.58-0.62,31.406,31.406,0,0,0-3.3-2.13,18.7,18.7,0,0,1-1.07,2.35,32.129,32.129,0,0,1-7.714,9.24,11.8,11.8,0,0,1,1.293,3.33c0.134,0.58.268,0.84,0.491,0.84a1.444,1.444,0,0,0,.8-0.44c0.758-.62,1.472-1.33,2.185-2.04-0.045,1.68-.089,3.59-0.089,5.01v6.53c0,3.55-.089,5.19-0.089,5.46,0,0.44.044,0.49,0.49,0.49h3.567c0.446,0,.49-0.05.49-0.49,0-.22-0.089-1.91-0.089-5.46v-16.56c0.714-1.02,1.382-2.04,1.962-3.06a4.058,4.058,0,0,1,1.2-1.51,1.43,1.43,0,0,0,.446-0.36c0,0.45.044,0.49,0.49,0.49,0.268,0,1.338-.09,4.771-0.09h0.669v18.56c0,5.06-.09,7.63-0.09,7.9,0,0.44.045,0.49,0.446,0.49h3.656c0.446,0,.446-0.05.446-0.49,0-.27-0.044-2.84-0.044-7.9v-18.56h0.668c3.433,0,4.459.09,4.726,0.09a1.24,1.24,0,0,0,.446-0.04v2.79c0,0.49.045,0.53,0.535,0.53,0.268,0,1.07-.08,3.79-0.08H498.9V2357c0,1.38-.312,1.73-1.605,1.73a31.035,31.035,0,0,1-3.745-.26,11.227,11.227,0,0,1,.892,3.15c0.223,1.42.223,1.42,1.605,1.42,3.344,0,4.86-.13,5.841-0.89,1.159-.84,1.471-2.35,1.471-4.35,0-1.82-.089-4-0.089-8.7v-9.32c2.363,0,3.076.08,3.344,0.08,0.445,0,.49-0.04.49-0.53V2336c0-.44-0.045-0.49-0.49-0.49-0.268,0-1.026.09-3.79,0.09h-4.236c-2.72,0-3.522-.09-3.79-0.09a0.5,0.5,0,0,0-.446.09v-2.84c0-.44-0.044-0.49-0.535-0.49-0.267,0-1.293.09-4.726,0.09h-0.668v-3.24c0-2.88.044-3.59,0.222-4.13a2.4,2.4,0,0,0,.268-0.93,0.663,0.663,0,0,0-.669-0.49,45.479,45.479,0,0,0-4.592-.26,29.715,29.715,0,0,1,.357,5.81v3.24Zm-8.472,23.35a11.467,11.467,0,0,1,2.854.85,3.861,3.861,0,0,0,.891.31c0.313,0,.446-0.27.625-0.85a48.994,48.994,0,0,0,2.318-11.58,3.37,3.37,0,0,1,.4-1.69,1.12,1.12,0,0,0,.312-0.67,0.729,0.729,0,0,0-.757-0.66c-1.249-.22-2.542-0.4-3.924-0.53a20.9,20.9,0,0,1-.045,3.37A43.5,43.5,0,0,1,475.54,2355.71Zm-1.516-32.85a9.425,9.425,0,0,1-1.2,2.04,27.149,27.149,0,0,1-7.267,6.71,8.747,8.747,0,0,1,1.739,3.06c0.223,0.71.4,1.02,0.669,1.02a2.476,2.476,0,0,0,1.025-.53,41.446,41.446,0,0,0,7.535-7.5,3.914,3.914,0,0,1,1.338-1.29,0.655,0.655,0,0,0,.446-0.58,1.084,1.084,0,0,0-.625-0.84A23.252,23.252,0,0,0,474.024,2322.86Zm16.051,18.51c-0.535.18-.624,0.32-0.49,0.76a65.29,65.29,0,0,1,2.274,12.12c0.044,0.44.178,0.44,0.8,0.22l2.542-.89c0.535-.17.579-0.31,0.535-0.75a60.723,60.723,0,0,0-2.542-11.86c-0.178-.44-0.267-0.48-0.713-0.31Zm9.408-15.49c-2.5,0-3.21-.09-3.478-0.09-0.446,0-.49.05-0.49,0.49v3.37c0,0.45.044,0.49,0.49,0.49,0.268,0,.981-0.09,3.478-0.09h2.987c2.5,0,3.21.09,3.478,0.09,0.4,0,.446-0.04.446-0.49v-3.37c0-.44-0.045-0.49-0.446-0.49-0.268,0-.981.09-3.478,0.09h-2.987Zm-10.077-.13c-0.49.31-.49,0.49-0.222,0.8a23.7,23.7,0,0,1,2.63,4.21,0.532,0.532,0,0,0,.357.36,1.139,1.139,0,0,0,.535-0.27l1.828-1.24c0.446-.27.535-0.44,0.312-0.84a31.908,31.908,0,0,0-2.72-4.09c-0.267-.31-0.4-0.31-0.847-0.04Z" transform="translate(-129 -2264.69)"/>
</svg>
