<svg id="head-block-06_sp.svg" xmlns="http://www.w3.org/2000/svg" width="373.437" height="108.19" viewBox="0 0 373.437 108.19">
  <defs>
    <style>
      .cls-1 {
        fill: #1e9fe0;
        opacity: 0.2;
      }

      .cls-2 {
        fill: #1147b4;
        fill-rule: evenodd;
      }
    </style>
  </defs>
  <rect id="長方形_978" data-name="長方形 978" class="cls-1" x="2.187" y="31.34" width="371.25" height="12.85"/>
  <rect id="長方形_978-2" data-name="長方形 978" class="cls-1" x="22.187" y="95.34" width="334.719" height="12.85"/>
  <path id="化粧下地にも使えて_石けんで落とせる_" data-name="化粧下地にも使えて 石けんで落とせる！" class="cls-2" d="M156.144,5956.29a75.737,75.737,0,0,0,11.456-8.38,9.1,9.1,0,0,1,2.257-1.65,0.873,0.873,0,0,0,.738-0.69,1.162,1.162,0,0,0-.478-0.86,36.548,36.548,0,0,0-3.385-2.85,16.756,16.756,0,0,1-2.56,2.93,47.632,47.632,0,0,1-8.028,6.36v-10.81c0-1.85.086-2.55,0.3-2.93a1.686,1.686,0,0,0,.261-0.83c0-.34-0.261-0.51-0.825-0.56-1.519-.17-2.907-0.26-4.643-0.3a30.036,30.036,0,0,1,.26,5.01V5968c0,2.89.868,4.02,2.3,4.71,1.389,0.69,3.472.86,7.551,0.86,3.819,0,6.423-.47,7.855-1.47,1.476-1.08,2.213-2.93,2.517-7.17,0.087-1.12.13-1.12-.955-1.51a13.617,13.617,0,0,1-3.341-1.77c-0.174,4.1-.564,5.96-1.3,6.56-0.955.83-2.257,1.09-4.47,1.09a15.323,15.323,0,0,1-4.3-.31c-0.955-.34-1.215-0.9-1.215-2.46v-10.24Zm-16.535,11.19c0,4.19-.086,6.27-0.086,6.57,0,0.39.043,0.43,0.52,0.43h3.776c0.434,0,.477-0.04.477-0.43,0-.26-0.087-2.38-0.087-6.57V5945.4a51.889,51.889,0,0,0,2.734-5.57,4.439,4.439,0,0,1,1.085-1.86,0.906,0.906,0,0,0,.391-0.74c0-.3-0.174-0.43-0.738-0.65a29.955,29.955,0,0,0-4.209-1.38,15.983,15.983,0,0,1-.868,3.03,35.615,35.615,0,0,1-10.025,14.6,16.621,16.621,0,0,1,1.649,3.55c0.217,0.64.391,0.95,0.651,0.95a1.918,1.918,0,0,0,.955-0.65,47.473,47.473,0,0,0,3.862-4.5c-0.043,1.9-.087,3.89-0.087,5.53v9.77Zm45.9-18.62h-1.345c-3.211,0-4.253-.09-4.513-0.09-0.434,0-.478.04-0.478,0.52v3.02c0,0.39.044,0.44,0.478,0.44,0.26,0,1.3-.09,4.513-0.09H184.9a35.24,35.24,0,0,1-6.64,11.71,10.7,10.7,0,0,1,1.606,3.02,0.879,0.879,0,0,0,.52.78,1.347,1.347,0,0,0,.651-0.65,36.21,36.21,0,0,0,4.6-9.37c-0.044,7.9-.3,15.08-0.3,15.94,0,0.43.043,0.48,0.477,0.48h3.428c0.434,0,.478-0.05.478-0.48,0-.86-0.261-8.12-0.3-16.89a27.944,27.944,0,0,0,2.777,5.01,1.242,1.242,0,0,0,.651.65,1.1,1.1,0,0,0,.651-0.78,9.85,9.85,0,0,1,1.693-2.46,26.1,26.1,0,0,1-5.381-6.96c3.211,0,4.209.09,4.47,0.09,0.477,0,.52-0.05.52-0.44v-3.02c0-.48-0.043-0.52-0.52-0.52-0.261,0-1.259.09-4.514,0.09h-0.217v-7.78c0-2.94.044-3.85,0.261-4.37a2.218,2.218,0,0,0,.3-0.95,0.635,0.635,0,0,0-.694-0.43c-1.519-.17-2.6-0.26-4.253-0.3a35.705,35.705,0,0,1,.347,6.13v7.7Zm14.842-3.89h11.934c3.949,0,5.3.08,5.512,0.08,0.434,0,.477-0.04.477-0.47v-3.2c0-.43-0.043-0.47-0.477-0.47-0.217,0-1.563.08-5.512,0.08h-3.168v-1.16a10.221,10.221,0,0,1,.174-2.9,2.178,2.178,0,0,0,.26-0.91,0.636,0.636,0,0,0-.651-0.47c-1.519-.13-2.994-0.26-4.556-0.3a25.339,25.339,0,0,1,.3,4.58v1.16H202.26c-3.95,0-5.382-.08-5.685-0.08-0.391,0-.434.04-0.434,0.47,0,0.26.086,2.72,0.086,8.21,0,5.88-.13,9.12-0.694,11.93a22.163,22.163,0,0,1-3.992,9.55,10.316,10.316,0,0,1,2.43,2.24,1.624,1.624,0,0,0,.868.74,1.247,1.247,0,0,0,.737-0.78,31.3,31.3,0,0,0,3.733-9.89,74.367,74.367,0,0,0,1.041-14.26v-4.15Zm11.674,13.57c3.168,0,4.209.08,4.47,0.08,0.434,0,.477-0.04.477-0.47v-3.2c0-.48-0.043-0.52-0.477-0.52-0.261,0-1.3.09-4.47,0.09h-1.215v-1.86a22.428,22.428,0,0,1,.217-4.28,4.428,4.428,0,0,0,.26-1.04,0.587,0.587,0,0,0-.651-0.51c-1.475-.18-2.647-0.26-4.253-0.31a52.631,52.631,0,0,1,.3,6.18v1.82h-0.217c-3.168,0-4.209-.09-4.47-0.09-0.434,0-.477.04-0.477,0.52v3.2c0,0.43.043,0.47,0.477,0.47,0.261,0,1.3-.08,4.47-0.08h0.217v10.54H204.6c-3.732,0-4.947-.09-5.208-0.09-0.434,0-.477.05-0.477,0.52v3.2c0,0.43.043,0.47,0.477,0.47,0.261,0,1.476-.08,5.208-0.08h8.159c3.732,0,4.947.08,5.207,0.08,0.434,0,.478-0.04.478-0.47v-3.2c0-.47-0.044-0.52-0.478-0.52-0.26,0-1.475.09-5.207,0.09h-1.953v-10.54h1.215Zm-31.94-19.75c-0.564.21-.608,0.34-0.478,0.78a34.755,34.755,0,0,1,1.649,7c0.044,0.47.131,0.43,0.738,0.26l1.823-.61a0.577,0.577,0,0,0,.521-0.78,42.578,42.578,0,0,0-1.823-6.95c-0.174-.48-0.217-0.52-0.781-0.31Zm10.024,7.34a6.111,6.111,0,0,1,1.476.57,2.1,2.1,0,0,0,.868.38c0.26,0,.347-0.21.607-0.82a48.591,48.591,0,0,0,1.91-5.48,1.6,1.6,0,0,1,.521-0.95,0.484,0.484,0,0,0,.26-0.44,0.628,0.628,0,0,0-.477-0.52,26.8,26.8,0,0,0-3-.95,9.022,9.022,0,0,1-.217,1.78A34.437,34.437,0,0,1,190.108,5946.13Zm48.984-3.84v25.67c0,3.84-.087,5.57-0.087,5.87,0,0.43.044,0.48,0.521,0.48h3.992c0.478,0,.521-0.05.521-0.48,0-.26-0.087-2.03-0.087-5.87v-15.17a79.4,79.4,0,0,1,10.719,6.31c0.391,0.26.521,0.21,0.868-.31l2.04-2.89a1.353,1.353,0,0,0,.217-0.48,0.552,0.552,0,0,0-.347-0.43,74.447,74.447,0,0,0-13.5-6.95v-5.75h11.631c3.906,0,5.207.08,5.468,0.08,0.434,0,.477-0.04.477-0.47v-3.63c0-.43-0.043-0.48-0.477-0.48-0.261,0-1.562.09-5.468,0.09H229.154c-3.862,0-5.208-.09-5.468-0.09-0.434,0-.477.05-0.477,0.48v3.63c0,0.43.043,0.47,0.477,0.47,0.26,0,1.606-.08,5.468-0.08h9.938Zm47.726,11.1,4.166-1.42v6.09c0,4.32-.087,6.4-0.087,6.7,0,0.43.044,0.47,0.478,0.47h3.471c0.434,0,.478-0.04.478-0.47,0-.26-0.087-2.38-0.087-6.7v-7.52l5.034-1.73a41.072,41.072,0,0,1-.521,7.57c-0.26,1.38-.564,1.59-1.3,1.59a9.955,9.955,0,0,1-2.3-.3,10.818,10.818,0,0,1,.912,3.11c0.217,1.34.217,1.34,1.171,1.43a9.879,9.879,0,0,0,1.606.09c1.866,0,3.081-.78,3.732-3.29a42.02,42.02,0,0,0,1.042-9.76l0.13-5.54a0.374,0.374,0,0,0-.477-0.43c-0.3.05-1.606,0.61-5.685,1.95l-3.342,1.12v-5.44a13.5,13.5,0,0,1,.26-3.89,2.484,2.484,0,0,0,.261-0.87,0.613,0.613,0,0,0-.695-0.47,33.429,33.429,0,0,0-4.426-.35,44.729,44.729,0,0,1,.347,6.14v6.26l-4.166,1.39v-3.72c0-2.72.043-3.67,0.26-4.11a1.9,1.9,0,0,0,.261-0.9c0-.22-0.261-0.39-0.868-0.48-1.3-.13-2.691-0.21-4.166-0.26a43.461,43.461,0,0,1,.26,6.14v4.75c-2.777.91-3.906,1.17-4.253,1.25-0.39.13-.434,0.13-0.347,0.57l0.564,3.37c0.087,0.43.13,0.47,0.564,0.34,0.348-.08,1.259-0.47,3.472-1.25v13.48c0,2.33.608,3.63,1.649,4.28,1.085,0.69,3.255,1.21,9.157,1.21,6.726,0,8.81-.43,10.285-1.43,1.432-.9,1.953-2.07,2.343-5.83,0.131-1.12.131-1.12-.954-1.43a12.072,12.072,0,0,1-3.125-1.38c-0.13,3.41-.347,4.28-1.041,4.88-0.868.7-2.3,0.91-6.987,0.91-4.3,0-5.642-.13-6.249-0.47-0.608-.31-0.825-0.83-0.825-1.95v-13.7Zm-10.936-2.98c2.474,0,3.3.09,3.559,0.09,0.39,0,.434-0.04.434-0.48v-3.28c0-.43-0.044-0.48-0.434-0.48-0.261,0-1.085.09-3.559,0.09v-4.62c0-2.51.043-3.59,0.26-4.11a2.379,2.379,0,0,0,.261-0.86,0.643,0.643,0,0,0-.695-0.52c-1.432-.17-2.777-0.26-4.469-0.3a36.449,36.449,0,0,1,.347,6.35v4.06h-0.347c-2.821,0-3.689-.09-3.95-0.09-0.434,0-.434.05-0.434,0.48v3.28c0,0.44,0,.48.434,0.48,0.261,0,1.129-.09,3.95-0.09h0.347v12.27l-1,.31a32.7,32.7,0,0,1-4.3,1.08,37.387,37.387,0,0,0,1.172,3.84,0.7,0.7,0,0,0,.651.52,1.15,1.15,0,0,0,.738-0.3,6.133,6.133,0,0,1,1.432-.69c2.864-1.08,5.945-2.34,8.636-3.68,1.215-.6,1.215-0.56,1.128-1.98a18.272,18.272,0,0,1,.043-2.68c-1.475.78-2.82,1.42-4.209,1.99v-10.68Zm40.581-12.18a34.633,34.633,0,0,1-.781,6.43,82.184,82.184,0,0,0-1.476,14.18c0,4.36.781,9.85,2,12.88a0.524,0.524,0,0,0,.565.47,21.931,21.931,0,0,0,3.558-.69,0.57,0.57,0,0,0,.564-0.56c0-.35-0.087-0.69-0.087-1.21a4.853,4.853,0,0,1,.131-1.34,42.316,42.316,0,0,1,2.473-6.53,1.181,1.181,0,0,0,.217-0.69,1.76,1.76,0,0,0-.3-0.65,11.192,11.192,0,0,1-1.518-2.72c-1.259,3.03-2.04,4.45-2.951,6.44a41.414,41.414,0,0,1-.261-5.06,69.649,69.649,0,0,1,1.823-13.95,10.155,10.155,0,0,1,1.041-3.07,2.446,2.446,0,0,0,.651-1.3c0-.39-0.26-0.65-1-1.03A18.669,18.669,0,0,0,316.463,5938.23Zm9.981,22.29a9.494,9.494,0,0,0,1.519,5.62c1.866,2.55,4.86,3.59,11.283,3.59a57.769,57.769,0,0,0,7.074-.48c0.738-.08.738-0.13,0.738-0.65a31.9,31.9,0,0,0-.261-3.71c-0.087-.56-0.173-0.61-0.607-0.56a63.461,63.461,0,0,1-8.289.56c-4.73,0-6.813-1.08-7.074-4.06,0-.48-0.087-0.7-0.434-0.65Zm1.389-12.27a53.618,53.618,0,0,1,9.851-.99c2.213,0,4.47.08,7.074,0.26,0.39,0.04.52-.13,0.564-0.52,0.087-1.21.087-2.38,0.087-3.67,0-.44-0.087-0.52-1-0.57-1.822-.17-3.819-0.26-6.422-0.26a70.488,70.488,0,0,0-9.418.78,0.638,0.638,0,0,0-.607.74C327.876,5944.75,327.876,5945.83,327.833,5948.25Zm37.444,11.67c2.213,0.04,4.47.04,6.64-.13,0.434,0,.564-0.17.607-0.69a29.193,29.193,0,0,0,.217-3.24c0-.39-0.13-0.57-0.694-0.48-2.083.13-3.862,0.17-6.163,0.13,0.261-1.73.695-4.67,0.955-6.18a44.55,44.55,0,0,0,5.772-.21c0.521-.05.694-0.18,0.694-0.65a19.958,19.958,0,0,0,.087-3.24,0.434,0.434,0,0,0-.434-0.52,24.773,24.773,0,0,1-5.338.26c0.217-1.6.478-3.07,0.695-4.06a4.181,4.181,0,0,1,.781-1.86,1.265,1.265,0,0,0,.347-0.82,1.224,1.224,0,0,0-.955-1,25.847,25.847,0,0,0-5.207-1.21,20.241,20.241,0,0,1,.043,3.63c-0.087,1.3-.217,2.47-0.564,4.97a35.3,35.3,0,0,1-7.855-1.64c0,1.56.087,2.98,0.13,4.02a0.706,0.706,0,0,0,.695.73,30.651,30.651,0,0,0,6.249,1.21c-0.174,1.77-.521,4.58-0.738,6.18a27.269,27.269,0,0,1-7.03-1.68,24.768,24.768,0,0,0,.087,4.02,0.751,0.751,0,0,0,.477.82,35.333,35.333,0,0,0,5.9,1.29c-0.174,1.95-.3,3.16-0.3,4.06,0,6.31,3.255,9.77,10.936,9.77,7.464,0,12.5-3.98,12.5-10.11a11.218,11.218,0,0,0-3.688-8.12,1.008,1.008,0,0,0-.912-0.18,13.764,13.764,0,0,1-4.426.26c3.3,3.46,3.906,5.45,3.906,7.87,0,3.89-2.821,5.83-7.9,5.83-4.036,0-5.771-1.56-5.771-5.53A26.407,26.407,0,0,1,365.277,5959.92Zm46.121-15.99v3.33h-3.645c-4.123,0-5.6-.09-5.815-0.09-0.434,0-.478.04-0.478,0.48,0,0.3.087,1.16,0.087,3.45v4.41c0,2.25-.087,3.2-0.087,3.46,0,0.43.044,0.47,0.478,0.47,0.217,0,1.692-.08,5.815-0.08h3.255a14.558,14.558,0,0,1-.782,3.15c-0.26.56-.477,1.08-0.781,1.6a20.219,20.219,0,0,1-3.428-3.67c-0.26-.35-0.391-0.35-0.868-0.09l-2.213,1.25c-0.521.31-.564,0.39-0.3,0.78a24.291,24.291,0,0,0,4.166,4.71c-1.866,1.38-4.557,2.46-8.723,3.37a8.412,8.412,0,0,1,1.736,2.72c0.347,0.78.521,1.08,0.955,1.08a3.848,3.848,0,0,0,.955-0.21,23.722,23.722,0,0,0,8.636-4.41c4.122,2.46,9.243,3.85,15.753,4.32,1.388,0.09,1.388.09,1.649-1.25a11.331,11.331,0,0,1,1.3-3.11c-6.64-.26-11.891-1.13-16.057-3.2a21.217,21.217,0,0,0,1.258-2.64,18.325,18.325,0,0,0,1-4.4h4.383c4.122,0,5.6.08,5.858,0.08,0.434,0,.478-0.04.478-0.47,0-.26-0.087-1.21-0.087-3.46v-4.41c0-2.29.087-3.19,0.087-3.45,0-.44-0.044-0.48-0.478-0.48-0.26,0-1.736.09-5.858,0.09h-3.906v-3.33h6.119c4.253,0,5.728.09,5.945,0.09,0.478,0,.521-0.05.521-0.48v-3.24c0-.43-0.043-0.47-0.521-0.47-0.217,0-1.692.08-5.945,0.08h-6.119v-0.26a7.817,7.817,0,0,1,.3-2.98,2,2,0,0,0,.26-0.86,0.672,0.672,0,0,0-.738-0.48c-1.388-.17-2.864-0.21-4.426-0.26a25.444,25.444,0,0,1,.26,4.58v0.26h-4.73c-4.3,0-5.728-.08-5.989-0.08-0.434,0-.477.04-0.477,0.47v3.24c0,0.43.043,0.48,0.477,0.48,0.261,0,1.693-.09,5.989-0.09h4.73Zm4.21,11.75,0.13-4.71h5.9v4.71h-6.032Zm-4.21-4.71c0,1.73-.043,3.33-0.087,4.71h-5.6v-4.71H411.4ZM393,5967.48c0,4.24-.087,6.31-0.087,6.57,0,0.43.044,0.47,0.477,0.47h3.6c0.434,0,.478-0.04.478-0.47,0-.22-0.087-2.33-0.087-6.57v-22.51a61.672,61.672,0,0,0,2.387-5.75,3.409,3.409,0,0,1,.911-1.73,0.917,0.917,0,0,0,.478-0.78,0.87,0.87,0,0,0-.738-0.64,38.836,38.836,0,0,0-4.166-1.3,12.549,12.549,0,0,1-.651,3.07,39.942,39.942,0,0,1-7.855,13.83,10.379,10.379,0,0,1,1.562,3.62,0.816,0.816,0,0,0,.521.78,1.19,1.19,0,0,0,.738-0.56c0.868-1.04,1.736-2.12,2.517-3.24-0.044,1.86-.087,3.72-0.087,5.27v9.94Zm52.672-31.98a38.375,38.375,0,0,0-1.475,4.02,0.575,0.575,0,0,0,.391.78,66.909,66.909,0,0,0,12.107,3.63,0.622,0.622,0,0,0,.738-0.47,26.377,26.377,0,0,0,1.172-3.55c0.13-.6-0.044-0.86-0.478-0.95A79.1,79.1,0,0,1,445.67,5935.5Zm-8.722,13.44a30.4,30.4,0,0,0,1.736,4.84,0.9,0.9,0,0,0,.737.74,2,2,0,0,0,.912-0.26,15.892,15.892,0,0,1,2.343-.78c2.864-.73,5.772-1.43,9.027-2.29-4.644,4.97-6.9,7.48-8.593,9.2l-8.2,8.3a1.075,1.075,0,0,0-.347.69,0.683,0.683,0,0,0,.217.43,23.642,23.642,0,0,0,3.038,2.64,0.8,0.8,0,0,0,.477.17,0.769,0.769,0,0,0,.608-0.3c1.475-1.81,4.643-5.62,6.6-7.61,1.606-1.55,2.951-2.16,4.079-2.16,1.519,0,2.04,1.21,2.734,4.15,0.912,4.28,3,5.97,9.374,5.97a37.609,37.609,0,0,0,6.379-.57c0.564-.08.781-0.26,0.781-0.69a22.568,22.568,0,0,0-.3-3.8,0.634,0.634,0,0,0-.782-0.65,29.059,29.059,0,0,1-6.726.78c-3.211,0-3.906-.69-4.774-4.24-0.737-3.06-2.69-4.36-4.73-4.36a5.183,5.183,0,0,0-1.562.22c2.907-3.11,4.687-4.93,7.9-7.95a6.552,6.552,0,0,1,1.389-1,1.16,1.16,0,0,0,.781-0.99,1.646,1.646,0,0,0-.478-1,10.361,10.361,0,0,0-2.56-2.29,1.307,1.307,0,0,0-.738-0.3,1.7,1.7,0,0,0-.954.3,6.339,6.339,0,0,1-1.736.7c-1.78.38-4.21,0.86-7.551,1.38A48.641,48.641,0,0,1,436.948,5948.94Zm53.109-3.84c-5.251,3.41-8.332,7.56-8.332,13.69,0,8.99,8.376,13.36,16.014,13.36,0.52,0,.694-0.26.824-0.91a15.287,15.287,0,0,0,.478-3.72c0-.47-0.261-0.64-0.955-0.64-7.551-.48-11.544-3.5-11.544-9.08,0-5.18,3.689-10.24,11.067-12.75a19.636,19.636,0,0,1,5.294-.95c0.564,0,.825-0.13.825-0.64a24.852,24.852,0,0,0-.478-3.81c-0.043-.3-0.26-0.56-0.911-0.47-11.2,1.47-20.744,2.89-26.082,3.67a57.524,57.524,0,0,1-6.9.73,30.114,30.114,0,0,0,1.606,4.67,1.014,1.014,0,0,0,.824.65,2.539,2.539,0,0,0,.955-0.35c0.651-.21,1.085-0.3,2.734-0.69,4.644-.95,9.287-1.86,14.581-2.85v0.09Zm-320.645,62.32a28.7,28.7,0,0,1-13.583,17.63,11.817,11.817,0,0,1,2.3,2.68c0.39,0.69.607,0.99,0.868,0.99a2.751,2.751,0,0,0,1-.56,40.213,40.213,0,0,0,5.772-5.1v6.27c0,7.34-.087,8.72-0.087,9.03,0,0.43.043,0.47,0.477,0.47h3.906c0.434,0,.477-0.04.477-0.47v-2.47h15.927v2.12c0,0.43.043,0.48,0.477,0.48h3.906c0.477,0,.521-0.05.521-0.48,0-.26-0.087-1.64-0.087-8.9v-5.44c0-4.2.087-5.58,0.087-5.84,0-.43-0.044-0.47-0.521-0.47-0.26,0-1.692.08-5.858,0.08H170.02a43.44,43.44,0,0,0,4.426-10.02h14.191c3.992,0,5.338.08,5.6,0.08,0.434,0,.477-0.04.477-0.47v-3.46c0-.43-0.043-0.47-0.477-0.47-0.26,0-1.606.08-5.6,0.08H163.553c-3.992,0-5.337-.08-5.6-0.08-0.434,0-.477.04-0.477,0.47v3.46c0,0.43.043,0.47,0.477,0.47,0.261,0,1.606-.08,5.6-0.08h5.859Zm1.128,14.21h15.927v10.03H170.54v-10.03Zm52.935-2.33c0.043,4.49-.391,7.43-1.346,9.64-1.3,3.02-3.254,5.01-7.334,7.17a14.309,14.309,0,0,1,3.385,2.12,0.9,0.9,0,0,0,.868.39,1.966,1.966,0,0,0,1.085-.39,15.269,15.269,0,0,0,6.206-6.7,22.484,22.484,0,0,0,1.909-10.03l-0.043-6.65c2-.22,3.906-0.48,5.989-0.86a0.593,0.593,0,0,0,.564-0.78c-0.087-1.13-.174-2.16-0.347-3.24-0.044-.43-0.261-0.52-0.782-0.39-1.822.39-3.688,0.69-5.554,0.95v-4.8a5.227,5.227,0,0,1,.217-1.81,1.726,1.726,0,0,0,.3-0.87,0.738,0.738,0,0,0-.694-0.69,26.368,26.368,0,0,0-5.6-.6,13.385,13.385,0,0,1,.738,3.54c0.173,1.64.173,3.59,0.26,5.75-1.562.13-3.6,0.17-4.817,0.17a53.777,53.777,0,0,1-5.381-.22c0.217,1.91.3,3.07,0.477,3.94a0.819,0.819,0,0,0,1,.69c1.606,0.04,2.734.04,3.646,0,1.258,0,2.907-.09,5.207-0.26Zm-15.059,14.61a5.278,5.278,0,0,1,.13-1.13,32.354,32.354,0,0,1,1.953-5.27,3.206,3.206,0,0,0,.521-1.42,1.332,1.332,0,0,0-.391-0.83,12.489,12.489,0,0,1-1.432-2.89c-1.042,2.42-1.823,3.89-2.908,6.18a36.625,36.625,0,0,1-.434-6.83,80.152,80.152,0,0,1,1.649-12.96,24.427,24.427,0,0,1,.825-3.2,1.564,1.564,0,0,0,.26-0.86,1.287,1.287,0,0,0-.954-0.95,21.126,21.126,0,0,0-4.557-1.52,46.592,46.592,0,0,1-.477,6.44,97.994,97.994,0,0,0-1.3,13.83c0,4.49,1.171,10.63,2.56,13.39a0.8,0.8,0,0,0,1,.57,10.859,10.859,0,0,0,3-.91,0.621,0.621,0,0,0,.564-0.61v-1.03Zm39.314-12.41c2.387-3.88,4.73-8.42,7.508-13.74a11.426,11.426,0,0,1,1.345-1.85,1.372,1.372,0,0,0,.477-0.87,1.14,1.14,0,0,0-.607-0.91,25.779,25.779,0,0,0-4.861-2.42,25.727,25.727,0,0,1-2.17,6.31c-2.386,5.4-6.379,13.66-12.715,26.02a1.258,1.258,0,0,0-.217.6,0.749,0.749,0,0,0,.391.56,13.8,13.8,0,0,0,3.341,1.86,0.7,0.7,0,0,0,1.042-.52,50.118,50.118,0,0,1,5.077-9.59c1.736-2.29,3.6-3.67,5.468-3.67,1.519,0,2.474,1.25,2.865,5.57,0.564,6.09,2.43,8.38,6.813,8.38a10.838,10.838,0,0,0,7.985-3.63,23.312,23.312,0,0,0,3.732-5.35,1.545,1.545,0,0,0,.174-0.74,1.2,1.2,0,0,0-.478-0.91,10.412,10.412,0,0,1-2.517-3.58,21.353,21.353,0,0,1-4.383,7.04,5.535,5.535,0,0,1-4.079,2.07c-1.649,0-2.17-1.42-2.517-4.58-0.478-4.14-1.649-8.16-6.336-8.16a8.66,8.66,0,0,0-5.3,2.2Zm47.684-11.19c-5.251,3.42-8.332,7.57-8.332,13.7,0,8.99,8.375,13.35,16.013,13.35,0.521,0,.694-0.26.825-0.9a15.4,15.4,0,0,0,.477-3.72c0-.48-0.26-0.65-0.955-0.65-7.551-.47-11.543-3.5-11.543-9.07,0-5.19,3.688-10.24,11.066-12.75a19.262,19.262,0,0,1,5.294-.95c0.564,0,.825-0.13.825-0.65a24.558,24.558,0,0,0-.478-3.8c-0.043-.3-0.26-0.56-0.911-0.48-11.2,1.47-20.744,2.9-26.081,3.68a62,62,0,0,1-6.9.73,30.22,30.22,0,0,0,1.606,4.67,1.015,1.015,0,0,0,.825.65,2.534,2.534,0,0,0,.954-0.35c0.651-.22,1.085-0.3,2.734-0.69,4.644-.95,9.287-1.86,14.582-2.85v0.08Zm6.292,6.18a21.752,21.752,0,0,1,4.383,5.01,0.449,0.449,0,0,0,.738.13l1.823-1.34a0.433,0.433,0,0,0,.13-0.69,20.1,20.1,0,0,0-4.123-4.62,0.447,0.447,0,0,0-.651-0.09Zm3.993-2.85a20.464,20.464,0,0,1,4.34,4.97,0.445,0.445,0,0,0,.737.13l1.736-1.34a0.5,0.5,0,0,0,.13-0.78,18.112,18.112,0,0,0-4.122-4.45,0.452,0.452,0,0,0-.651-0.09Zm23.425-6.65c-0.044,1.55-.087,2.24-0.087,2.46,0,0.47.043,0.52,0.477,0.52H332.9c0.434,0,.478-0.05.478-0.52,0-.22-0.087-0.91-0.087-2.46h8.072c-0.044,1.25-.087,1.85-0.087,2.03v0.21l-3.168-.77a11.459,11.459,0,0,1-.955,1.9,22.241,22.241,0,0,1-8.592,7.47,8.826,8.826,0,0,1,1.779,1.95,1.6,1.6,0,0,0,.955.95,2.247,2.247,0,0,0,1-.48,29.47,29.47,0,0,0,3.688-2.76,21.972,21.972,0,0,0,3.516,3.45,47.386,47.386,0,0,1-11.761,4.06,12.737,12.737,0,0,1,1.476,2.51c0.52,1.17.52,1.21,1.822,0.91l1.736-.52c0.043,0.52.087,1.43,0.087,2.98v2.25c0,4.79-.087,5.66-0.087,5.92,0,0.43.043,0.47,0.477,0.47h3.342c0.477,0,.521-0.04.521-0.47v-1.17h11.326v1.13c0,0.43.044,0.47,0.478,0.47h3.428c0.477,0,.521-0.04.521-0.47,0-.22-0.087-1.13-0.087-5.88v-2.72c0-1.69.043-2.64,0.087-2.99,0.651,0.22,1.3.35,1.953,0.52,1.388,0.35,1.388.31,1.866-1.03a16.709,16.709,0,0,1,1.388-2.81,48.607,48.607,0,0,1-11.456-3.29,39.123,39.123,0,0,0,4.6-4.66,5.035,5.035,0,0,1,1.345-1.3,0.855,0.855,0,0,0,.477-0.78c0-.39-0.173-0.6-1.128-1.47-1.085-.99-1.345-1.12-1.692-1.12a1.738,1.738,0,0,0-.608.17,1.952,1.952,0,0,1-.868.13H340.8a4.754,4.754,0,0,1,.912-1.21,0.929,0.929,0,0,0,.521-0.73,0.525,0.525,0,0,0-.217-0.35h3.124c0.434,0,.478-0.04.478-0.47,0-.18-0.087-0.78-0.087-2.03h5.207c3.863,0,5.165.08,5.425,0.08,0.477,0,.521-0.04.521-0.47v-2.9c0-.43-0.044-0.47-0.521-0.47-0.26,0-1.562.08-5.425,0.08h-5.207a5.186,5.186,0,0,1,.26-2.11,1.618,1.618,0,0,0,.174-0.61c0-.22-0.174-0.34-0.564-0.39-1.129-.13-2.908-0.21-4.3-0.26a16.106,16.106,0,0,1,.261,3.37H333.29a5.186,5.186,0,0,1,.26-2.11,1.811,1.811,0,0,0,.174-0.65c0-.22-0.174-0.35-0.564-0.39-1.172-.13-2.908-0.22-4.3-0.26a17.024,17.024,0,0,1,.261,3.41h-4.948c-3.862,0-5.207-.08-5.424-0.08-0.434,0-.478.04-0.478,0.47v2.9c0,0.43.044,0.47,0.478,0.47,0.217,0,1.562-.08,5.424-0.08h4.948Zm7.985,23.33h11.326v4.15H337.109v-4.15Zm-1.563-3.37a40,40,0,0,0,7.508-3.59,40.348,40.348,0,0,0,8.115,3.55c-0.824.04-2.126,0.04-4.122,0.04h-11.5Zm11.544-11.97a21.673,21.673,0,0,1-4.079,3.85,19.769,19.769,0,0,1-4.21-3.85h8.289Zm-21.568,10.07a55.079,55.079,0,0,1-4.731,8.25,17.484,17.484,0,0,1-2.3,2.59c1,1.04,2.214,2.16,3.038,2.86a1.423,1.423,0,0,0,.738.34,0.623,0.623,0,0,0,.564-0.43,6.788,6.788,0,0,1,.825-1.51,56.094,56.094,0,0,0,4.3-7.39,3.449,3.449,0,0,0,.434-1.13,1.933,1.933,0,0,0-.781-1.08A30.624,30.624,0,0,1,325.522,6025.05Zm-5.121-13.44c-0.3.39-.347,0.47,0.043,0.69a41.225,41.225,0,0,1,5.9,4.19c0.434,0.35.521,0.26,0.912-.21l1.822-2.34c0.347-.47.347-0.6,0-0.82a46.1,46.1,0,0,0-5.9-3.97c-0.39-.22-0.434-0.26-0.911.26Zm-1.823,8.08c-0.3.39-.26,0.48,0.13,0.73a47.73,47.73,0,0,1,5.729,4.28,0.723,0.723,0,0,0,.39.22,0.526,0.526,0,0,0,.348-0.3l1.866-2.51a0.94,0.94,0,0,0,.3-0.52,0.529,0.529,0,0,0-.26-0.34,51.885,51.885,0,0,0-5.815-4.02c-0.434-.26-0.478-0.22-0.911.3Zm48.855-17.8a19.241,19.241,0,0,1,1.129,5.01,65.124,65.124,0,0,0,2.256,10.54c-5.077,3.2-8.245,6.35-8.245,11.15,0,5.62,4.339,8.3,12.541,8.3a92.876,92.876,0,0,0,12.933-.65,0.674,0.674,0,0,0,.781-0.73,37.779,37.779,0,0,0-.434-4.02,0.541,0.541,0,0,0-.781-0.52,76.664,76.664,0,0,1-13.236.99c-4.991,0-6.9-1.08-6.9-3.63,0-2.03,1.345-4.06,5.12-6.52a59.948,59.948,0,0,1,10.2-5.06,20.561,20.561,0,0,1,4.166-1.29,0.87,0.87,0,0,0,.868-0.87,1.76,1.76,0,0,0-.3-0.91,22.442,22.442,0,0,0-3.168-4.06,10.732,10.732,0,0,1-2.994,2.34c-2.431,1.29-3.993,2.11-6.163,3.28a60.7,60.7,0,0,1-1.388-7.43c-0.087-1-.217-2.03-0.217-2.9,0-.6.3-1.21,0.3-1.81a0.789,0.789,0,0,0-.781-0.69A25.148,25.148,0,0,0,367.433,6001.89Zm34.756,12.14c-1.606.26-3.689,0.65-4.9,0.82a41.417,41.417,0,0,1-4.643.43,16.891,16.891,0,0,0,1.215,4.32,0.733,0.733,0,0,0,1.128.48,12.3,12.3,0,0,1,1.953-.65c1.649-.35,3.038-0.6,5.251-0.91,0,4.58.087,8.21,0.3,10.55,0.52,5.66,3.081,7.47,11.847,7.47a98.292,98.292,0,0,0,10.893-.65,0.619,0.619,0,0,0,.564-0.77,26.331,26.331,0,0,0-.261-3.63c-0.086-.52-0.217-0.61-0.868-0.57a80.066,80.066,0,0,1-11.239.87c-5.295,0-6.249-.69-6.51-4.24-0.173-2.46-.13-5.05-0.087-9.76,3.342-.52,7.117-0.95,10.589-1.21a45.728,45.728,0,0,1-.3,4.58c-0.217,1.51-.868,1.86-2.039,1.86a13.674,13.674,0,0,1-3.689-.52,10.422,10.422,0,0,1,.955,3.89c0,0.78.173,1.08,0.868,1.12a19.56,19.56,0,0,0,2.69.13c3.255,0,5.208-1.43,5.685-4.8a65.726,65.726,0,0,0,.521-6.65c2.864-.22,5.772-0.35,8.636-0.35,0.477,0,.564-0.04.564-0.6a31.911,31.911,0,0,0,0-3.54c0-.39-0.173-0.44-0.521-0.44-2.343.09-4.947,0.22-8.462,0.48,0.043-2.03.087-3.72,0.174-6.05a7.412,7.412,0,0,1,.434-1.94,2.1,2.1,0,0,0,.26-0.87,0.837,0.837,0,0,0-.825-0.82,29.837,29.837,0,0,0-5.251-.86,19.04,19.04,0,0,1,.565,4.92c0,1.6,0,3.93-.044,6.09-3.124.35-7.724,0.83-10.719,1.21,0.044-1.46.044-3.11,0.087-4.14a5.784,5.784,0,0,1,.434-1.91,2.364,2.364,0,0,0,.26-0.9,1.1,1.1,0,0,0-.911-0.91,37.618,37.618,0,0,0-5.208-.73,17.172,17.172,0,0,1,.608,4.58v4.62Zm47.436,3.89c3.3-3.16,6.206-6.18,9.374-9.25a6.967,6.967,0,0,1,1.91-1.38,1.153,1.153,0,0,0,.737-1.04,1.515,1.515,0,0,0-.477-1.04,16.522,16.522,0,0,0-2.908-2.76,1.531,1.531,0,0,0-1-.35,2.251,2.251,0,0,0-.824.35,12.211,12.211,0,0,1-2.387.65c-3.385.65-7.2,1.21-9.851,1.47a21.782,21.782,0,0,1-4.036-.09,20.8,20.8,0,0,0,1.519,4.67,0.992,0.992,0,0,0,.955.73,3.081,3.081,0,0,0,.867-0.22,14.837,14.837,0,0,1,1.823-.51c2.691-.57,5.772-1.17,8.376-1.65-2,2.47-4.036,4.63-6.727,7.39a103.06,103.06,0,0,1-10.285,9.55,0.7,0.7,0,0,0-.217,1,19.957,19.957,0,0,0,2.561,2.81,1.089,1.089,0,0,0,.651.38,1.23,1.23,0,0,0,.737-0.47c1.3-1.3,2.517-2.55,3.776-3.67a17.658,17.658,0,0,1,11.109-4.58c4.036,0,6.814,2.59,6.814,6.52,0,3.28-1.389,5.19-4.427,6.57a7.891,7.891,0,0,0-8.158-6.31c-3.385,0-6.119,2.38-6.119,5.27,0,4.02,3.3,6.35,8.766,6.35,9.287,0,15.145-4.62,15.145-11.84,0-6.22-4.426-10.37-10.762-10.37a13.135,13.135,0,0,0-6.9,1.95Zm3.776,16.16a9.524,9.524,0,0,1-2,.17c-2.6,0-3.776-.91-3.776-2.24a1.84,1.84,0,0,1,2.083-1.65C451.535,6030.36,452.837,6031.7,453.4,6034.08Zm28.809-32.15h-6.77l1.215,25.71h4.383Zm-6.51,29.9v5.84h6.163v-5.84H475.7Z" transform="translate(-132.594 -5934.78)"/>
</svg>
