<svg id="lead-block-06_spsss.svg" xmlns="http://www.w3.org/2000/svg" width="421.593" height="92.66" viewBox="0 0 421.593 92.66">
  <defs>
    <style>
      .cls-1 {
        fill: #1147b4;
      }

      .cls-1, .cls-2 {
        fill-rule: evenodd;
      }

      .cls-2 {
        fill: none;
        stroke: #1147b4;
        stroke-linecap: round;
        stroke-width: 3px;
        stroke-dasharray: 0.001 6;
      }
    </style>
  </defs>
  <path id="石けんや洗顔料_ボディーソープなどで落とせます_" data-name="石けんや洗顔料・ ボディーソープなどで落とせます。 " class="cls-1" d="M229.406,6136.54a18.579,18.579,0,0,1-8.766,11.43,7.72,7.72,0,0,1,1.484,1.73,0.993,0.993,0,0,0,.56.65,1.68,1.68,0,0,0,.644-0.37,26.039,26.039,0,0,0,3.725-3.3v4.06c0,4.76-.056,5.66-0.056,5.85,0,0.28.028,0.31,0.308,0.31h2.521c0.28,0,.308-0.03.308-0.31V6155h10.279v1.37c0,0.28.028,0.31,0.308,0.31h2.52c0.308,0,.336-0.03.336-0.31,0-.17-0.056-1.06-0.056-5.77v-3.53c0-2.71.056-3.61,0.056-3.78,0-.28-0.028-0.31-0.336-0.31-0.168,0-1.092.06-3.781,0.06H229.8a28.291,28.291,0,0,0,2.857-6.5h9.158c2.577,0,3.445.06,3.613,0.06,0.28,0,.308-0.03.308-0.31v-2.24c0-.28-0.028-0.31-0.308-0.31-0.168,0-1.036.06-3.613,0.06H225.625c-2.577,0-3.445-.06-3.613-0.06-0.28,0-.308.03-0.308,0.31v2.24c0,0.28.028,0.31,0.308,0.31,0.168,0,1.036-.06,3.613-0.06h3.781Zm0.728,9.22h10.279v6.49H230.134v-6.49Zm36.346-1.52a15.485,15.485,0,0,1-.868,6.25c-0.84,1.96-2.1,3.25-4.733,4.65a9.239,9.239,0,0,1,2.184,1.37,0.585,0.585,0,0,0,.56.25,1.218,1.218,0,0,0,.7-0.25,9.859,9.859,0,0,0,4-4.34,14.606,14.606,0,0,0,1.232-6.5l-0.028-4.31c1.288-.14,2.521-0.31,3.865-0.56a0.384,0.384,0,0,0,.364-0.51c-0.056-.72-0.112-1.4-0.224-2.1-0.028-.28-0.168-0.33-0.5-0.25-1.176.25-2.381,0.45-3.585,0.62v-3.11a3.459,3.459,0,0,1,.14-1.18,1.1,1.1,0,0,0,.2-0.56,0.484,0.484,0,0,0-.448-0.45,17.817,17.817,0,0,0-3.613-.39,8.8,8.8,0,0,1,.476,2.3c0.112,1.06.112,2.32,0.168,3.72-1.008.09-2.324,0.12-3.109,0.12-1.036,0-2.436-.03-3.473-0.14,0.141,1.23.2,1.98,0.309,2.54a0.528,0.528,0,0,0,.644.45c1.036,0.03,1.764.03,2.352,0,0.813,0,1.877-.05,3.361-0.17Zm-9.718,9.47a3.453,3.453,0,0,1,.084-0.73,21.4,21.4,0,0,1,1.26-3.42,2.071,2.071,0,0,0,.336-0.92,0.819,0.819,0,0,0-.252-0.53,8.1,8.1,0,0,1-.924-1.88c-0.672,1.57-1.176,2.52-1.877,4.01a23.927,23.927,0,0,1-.28-4.43,52.069,52.069,0,0,1,1.065-8.4,15.764,15.764,0,0,1,.532-2.07,1.021,1.021,0,0,0,.168-0.56,0.852,0.852,0,0,0-.616-0.62,14.113,14.113,0,0,0-2.941-.98,30.072,30.072,0,0,1-.308,4.17,63.966,63.966,0,0,0-.84,8.97,23.941,23.941,0,0,0,1.652,8.68,0.508,0.508,0,0,0,.644.36,6.631,6.631,0,0,0,1.933-.59,0.4,0.4,0,0,0,.364-0.39v-0.67Zm27.076-8.04c1.541-2.52,3.053-5.46,4.846-8.9a7.607,7.607,0,0,1,.868-1.21,0.857,0.857,0,0,0,.308-0.56,0.742,0.742,0,0,0-.392-0.59,16.82,16.82,0,0,0-3.137-1.57,16.7,16.7,0,0,1-1.4,4.09c-1.541,3.5-4.117,8.85-8.206,16.86a0.834,0.834,0,0,0-.141.4,0.484,0.484,0,0,0,.253.36,8.9,8.9,0,0,0,2.156,1.2c0.364,0.12.5,0.06,0.672-.33a32.693,32.693,0,0,1,3.277-6.22c1.12-1.48,2.325-2.38,3.529-2.38,0.98,0,1.6.81,1.848,3.61,0.365,3.95,1.569,5.44,4.4,5.44a6.976,6.976,0,0,0,5.153-2.36,14.913,14.913,0,0,0,2.409-3.47,1,1,0,0,0,.112-0.48,0.753,0.753,0,0,0-.309-0.58,6.893,6.893,0,0,1-1.624-2.33,13.857,13.857,0,0,1-2.829,4.57,3.573,3.573,0,0,1-2.632,1.34c-1.065,0-1.4-.92-1.625-2.97-0.308-2.69-1.064-5.29-4.089-5.29a5.529,5.529,0,0,0-3.417,1.43Zm27.973-5.66a14.026,14.026,0,0,1-.5-1.48c-0.309-1.12-.393-1.54-0.561-2.16a5.161,5.161,0,0,1-.112-0.92,0.478,0.478,0,0,0-.42-0.59,20.182,20.182,0,0,0-3.753.42,9.626,9.626,0,0,1,1.289,2.33c0.56,1.48.952,2.6,1.288,3.61-1.68.73-2.633,1.06-3.249,1.29a14.1,14.1,0,0,1-2.745.73,18.922,18.922,0,0,0,1.709,2.74,1.015,1.015,0,0,0,.672.42,0.968,0.968,0,0,0,.532-0.28,7.357,7.357,0,0,1,1.457-.87c0.7-.33,1.6-0.75,2.66-1.26,1.513,4.2,2.717,7.98,4.033,12.44,0.084,0.28.168,0.33,0.364,0.3a12.831,12.831,0,0,0,2.409-.89c0.392-.2.364-0.31,0.252-0.67-1.456-4.34-2.857-8.27-4.341-12.47a47.737,47.737,0,0,1,4.621-1.85,12.922,12.922,0,0,1,4.145-.78c1.793,0,2.913.81,2.913,2.3,0,1.96-1.625,3.11-4.2,3.11a18.646,18.646,0,0,1-3.109-.28,7.166,7.166,0,0,1,1.372,2.68,0.665,0.665,0,0,0,.757.51c0.364,0.03.672,0.03,1.232,0.03,4.565,0,7.226-2.22,7.226-5.83,0-3.08-2.3-5.18-5.91-5.18a15.383,15.383,0,0,0-4.929.78C315.34,6138.67,313.6,6139.31,311.811,6140.01Zm2.24-5.91a15.036,15.036,0,0,1,3.473,3.09,0.434,0.434,0,0,0,.224.14,0.487,0.487,0,0,0,.252-0.12,8.9,8.9,0,0,0,1.849-1.54,0.4,0.4,0,0,0,0-.61,14.673,14.673,0,0,0-3.025-2.55,0.486,0.486,0,0,0-.616,0C315.62,6132.87,314.835,6133.49,314.051,6134.1Zm30.1,11.49c-0.224,4.76-1.876,7.53-6.582,9.63a5.264,5.264,0,0,1,1.541,1.51,0.884,0.884,0,0,0,.616.54,1.56,1.56,0,0,0,.672-0.26c4.481-2.54,6.218-5.62,6.61-11.42h2.3v8.65c0,1.32.252,1.77,0.729,2.13,0.616,0.45,1.68.56,3.36,0.56a6.285,6.285,0,0,0,3.5-.67c0.812-.53,1.093-1.54,1.261-4.12,0.056-.73.028-0.73-0.673-0.92a7.222,7.222,0,0,1-1.96-.76c-0.056,2.35-.112,3.08-0.5,3.39a1.74,1.74,0,0,1-1.289.36,3.2,3.2,0,0,1-1.288-.16,1.021,1.021,0,0,1-.336-1.04v-7.42h1.736c2.745,0,3.7.05,3.865,0.05,0.253,0,.281-0.02.281-0.3v-2.19c0-.28-0.028-0.31-0.281-0.31-0.168,0-1.12.06-3.865,0.06h-3.977v-3.53h2.913c2.577,0,3.473.06,3.641,0.06,0.28,0,.308-0.03.308-0.34v-2.1c0-.28-0.028-0.31-0.308-0.31-0.168,0-1.064.06-3.641,0.06h-2.913v-0.84a10.3,10.3,0,0,1,.169-2.94,1.514,1.514,0,0,0,.2-0.59,0.436,0.436,0,0,0-.477-0.31c-0.924-.11-1.9-0.17-2.968-0.2a24.585,24.585,0,0,1,.2,4.09v0.79h-2.717c0.14-.39.308-0.79,0.42-1.15a4.585,4.585,0,0,1,.5-1.18,0.813,0.813,0,0,0,.252-0.47,0.562,0.562,0,0,0-.476-0.4,15.53,15.53,0,0,0-2.464-.72,8.127,8.127,0,0,1-.393,1.93,18.183,18.183,0,0,1-3.136,5.82,6.138,6.138,0,0,1,1.736,1.01,1.265,1.265,0,0,0,.616.42,0.968,0.968,0,0,0,.5-0.56,18.674,18.674,0,0,0,1.233-2.07h3.921v3.53h-3.445c-2.773,0-3.725-.06-3.893-0.06-0.28,0-.308.03-0.308,0.31v2.19c0,0.28.028,0.3,0.308,0.3,0.168,0,1.12-.05,3.893-0.05h0.616Zm-11.427,9.74a15.446,15.446,0,0,0,2.129,1.57,0.976,0.976,0,0,0,.5.2,0.4,0.4,0,0,0,.392-0.37,4.68,4.68,0,0,1,.42-1.09,64.6,64.6,0,0,0,2.689-6.1,2.125,2.125,0,0,0,.168-0.68,1.159,1.159,0,0,0-.588-0.72,12.986,12.986,0,0,1-1.513-1.46,55.6,55.6,0,0,1-2.8,6.55A13.486,13.486,0,0,1,332.724,6155.33Zm1.036-21.51c-0.252.31-.252,0.34,0,0.51a18.884,18.884,0,0,1,3.921,3.25c0.224,0.19.28,0.17,0.533-.14l1.232-1.68a0.709,0.709,0,0,0,.168-0.34,0.45,0.45,0,0,0-.168-0.22,23.893,23.893,0,0,0-3.865-3,0.39,0.39,0,0,0-.588.14Zm-1.064,7.15a0.433,0.433,0,0,0-.14.25,0.331,0.331,0,0,0,.2.22,18.82,18.82,0,0,1,3.893,3.08c0.224,0.23.308,0.17,0.532-.14l1.261-1.65a0.843,0.843,0,0,0,.14-0.31,0.465,0.465,0,0,0-.168-0.28,22.586,22.586,0,0,0-3.921-2.85c-0.252-.14-0.337-0.12-0.589.19Zm46.54-5.63a13.705,13.705,0,0,1-.784,2.1c-1.848,0-2.52-.06-2.66-0.06-0.308,0-.336.03-0.336,0.31,0,0.17.056,1.12,0.056,3.36v7.34c0,2.13-.056,3.08-0.056,3.22,0,0.31.028,0.34,0.336,0.34,0.168,0,.924-0.06,3.22-0.06h3.725c2.241,0,3.025.06,3.221,0.06,0.28,0,.308-0.03.308-0.34,0-.14-0.056-1.09-0.056-3.22v-7.45c0-2.13.056-3.11,0.056-3.25,0-.28-0.028-0.31-0.308-0.31-0.2,0-.98.06-3.221,0.06h-1.512a22.619,22.619,0,0,0,.9-2.1h1.653c2.52,0,3.36.05,3.529,0.05,0.252,0,.28-0.02.28-0.3v-2.05c0-.28-0.028-0.31-0.28-0.31-0.169,0-1.009.06-3.529,0.06h-4.9c-2.52,0-3.332-.06-3.5-0.06-0.28,0-.308.03-0.308,0.31v2.05c0,0.28.028,0.3,0.308,0.3,0.169,0,.981-0.05,3.5-0.05h0.364Zm4.314,14.22h-5.406v-1.98h5.406v1.98Zm-5.406-4.08v-1.85h5.406v1.85h-5.406Zm5.406-5.72v1.77h-5.406v-1.77h5.406Zm-17.589,2.47h5.461a6.656,6.656,0,0,1-.756.75,14.147,14.147,0,0,1-4.621,2.19,4.891,4.891,0,0,1,1.008,1.17,0.806,0.806,0,0,0,.561.59,2.338,2.338,0,0,0,.672-0.19,14.658,14.658,0,0,0,4.117-2.22,1.673,1.673,0,0,1,.644-0.36,0.421,0.421,0,0,0,.364-0.36,0.6,0.6,0,0,0-.308-0.45c-0.42-.31-0.952-0.67-1.653-1.12,2.1,0,2.773.05,2.941,0.05,0.28,0,.308-0.02.308-0.33v-1.8c0-.28-0.028-0.3-0.308-0.3-0.14,0-.7.05-2.212,0.05,0.28-.59.476-1.03,0.7-1.59a1.866,1.866,0,0,1,.392-0.59,0.413,0.413,0,0,0,.2-0.37c0-.16-0.14-0.25-0.448-0.33a19.1,19.1,0,0,0-2.213-.48,6.542,6.542,0,0,1-.252,1.29,15.1,15.1,0,0,1-.784,2.07h-3c-2.268,0-3.052-.05-3.221-0.05-0.28,0-.308.02-0.308,0.3,0,0.17.056,1.12,0.056,3.28a48.009,48.009,0,0,1-.252,5.41,16.573,16.573,0,0,1-1.4,5.4,8.029,8.029,0,0,1,1.6,1.63,0.779,0.779,0,0,0,.449.33,0.66,0.66,0,0,0,.42-0.5c0.168-.39.336-0.79,0.476-1.18a7.887,7.887,0,0,1,1.148,1.57,0.689,0.689,0,0,0,.532.53,2.174,2.174,0,0,0,.7-0.17,22.37,22.37,0,0,0,6.946-3.75,4.743,4.743,0,0,1,.98-0.7,0.526,0.526,0,0,0,.392-0.42,0.681,0.681,0,0,0-.224-0.39,19.092,19.092,0,0,0-1.624-1.46,6.038,6.038,0,0,1-1.148,1.12,20.5,20.5,0,0,1-7.7,3.64,17.087,17.087,0,0,0,.924-3.8l0.14-.99a5,5,0,0,1,.952,1.21,0.712,0.712,0,0,0,.56.53,2.739,2.739,0,0,0,.7-0.19,23.777,23.777,0,0,0,5.657-3.09,1.514,1.514,0,0,1,.756-0.42,0.327,0.327,0,0,0,.336-0.33,0.727,0.727,0,0,0-.28-0.51,16.81,16.81,0,0,0-1.68-1.28,4.582,4.582,0,0,1-1.036.95,18.413,18.413,0,0,1-5.938,2.91,51.775,51.775,0,0,0,.28-5.54v-1.71Zm4.985-5.91c2.325,0,3.025.05,3.193,0.05,0.308,0,.336-0.02.336-0.3v-1.83c0-.28-0.028-0.3-0.336-0.3-0.168,0-.868.05-3.193,0.05h-0.672v-0.08a3.275,3.275,0,0,1,.14-1.35,1.275,1.275,0,0,0,.168-0.5,0.411,0.411,0,0,0-.448-0.28c-1.008-.08-1.792-0.14-2.829-0.17a10.746,10.746,0,0,1,.168,2.3v0.08h-0.98c-2.268,0-3.025-.05-3.193-0.05-0.28,0-.308.02-0.308,0.3v1.83c0,0.28.028,0.3,0.308,0.3,0.168,0,.925-0.05,3.193-0.05h4.453ZM377.7,6152a5.3,5.3,0,0,1-.952.98,14.137,14.137,0,0,1-4.593,2.47,5.36,5.36,0,0,1,1.176,1.4,0.96,0.96,0,0,0,.616.67,2.578,2.578,0,0,0,.672-0.25,17.616,17.616,0,0,0,4.229-2.78,4.345,4.345,0,0,1,.729-0.5,0.41,0.41,0,0,0,.336-0.34,0.508,0.508,0,0,0-.308-0.44A11.572,11.572,0,0,0,377.7,6152Zm3.949,1.29c-0.28.25-.364,0.31-0.14,0.53a16.563,16.563,0,0,0,4.285,3.22,2.578,2.578,0,0,0,.672.25,0.869,0.869,0,0,0,.588-0.64,6.2,6.2,0,0,1,1.149-1.57,15.763,15.763,0,0,1-4.789-2.91,0.455,0.455,0,0,0-.281-0.17,0.5,0.5,0,0,0-.308.2Zm-16.552-16.3c-0.42.14-.448,0.2-0.336,0.42a11.018,11.018,0,0,1,.728,2.07c0.112,0.37.14,0.39,0.588,0.25l1.513-.44c0.392-.12.42-0.17,0.364-0.45a12.978,12.978,0,0,0-.9-2.13c-0.14-.25-0.2-0.28-0.532-0.17Zm31.472,3.86h-1.148c-2.184,0-2.885-.05-3.053-0.05-0.28,0-.308.03-0.308,0.31v1.99c0,0.25.028,0.28,0.308,0.28,0.168,0,.869-0.06,3.053-0.06h0.5a23.605,23.605,0,0,1-4.509,7.79,6.931,6.931,0,0,1,1.008,2.04,0.559,0.559,0,0,0,.336.48,0.953,0.953,0,0,0,.505-0.45,26.357,26.357,0,0,0,3.388-6.39c-0.056,5.24-.2,9.86-0.2,10.28,0,0.28.028,0.31,0.308,0.31h2.3c0.308,0,.336-0.03.336-0.31,0-.42-0.2-5.43-0.2-10.98a23.606,23.606,0,0,0,2.269,4.01,0.808,0.808,0,0,0,.448.42,0.78,0.78,0,0,0,.392-0.51,8.752,8.752,0,0,1,1.12-1.85,25,25,0,0,1-3.781-4.84c2.017,0,2.689.06,2.857,0.06,0.28,0,.308-0.03.308-0.28v-1.99c0-.28-0.028-0.31-0.308-0.31-0.168,0-.868.05-3.025,0.05h-0.224v-5.26a8.148,8.148,0,0,1,.2-2.83,1.344,1.344,0,0,0,.168-0.59,0.444,0.444,0,0,0-.448-0.28,28.068,28.068,0,0,0-2.829-.19,26.084,26.084,0,0,1,.224,3.95v5.2Zm10.391,7.34c-2.437.48-3.361,0.56-3.641,0.62s-0.308.05-.252,0.36l0.364,2.22c0.028,0.25.084,0.28,0.364,0.22s1.177-.25,3.613-0.73l3.837-.75v2.07c0,3.11-.056,4.65-0.056,4.81,0,0.28.028,0.31,0.308,0.31h2.325c0.28,0,.308-0.03.308-0.31,0-.14-0.056-1.73-0.056-4.84v-2.61c1.932-.39,2.689-0.5,2.885-0.56,0.308-.05.308-0.08,0.28-0.33l-0.336-2.19c-0.056-.3-0.056-0.33-0.309-0.28s-0.9.26-2.52,0.59v-10.72a11.446,11.446,0,0,1,.168-3.11,1.655,1.655,0,0,0,.168-0.56,0.388,0.388,0,0,0-.42-0.31c-0.98-.11-1.9-0.17-2.969-0.2a26.523,26.523,0,0,1,.224,4.26v11.2Zm-3.165-6.75a0.6,0.6,0,0,0-.224.31,0.539,0.539,0,0,0,.2.22,24.348,24.348,0,0,1,3.7,3.81c0.2,0.23.252,0.23,0.56-.05l1.373-1.37c0.28-.28.28-0.34,0.084-0.59a20.321,20.321,0,0,0-3.865-3.59,0.532,0.532,0,0,0-.28-0.17,0.538,0.538,0,0,0-.252.2ZM404.6,6135c-0.28.25-.252,0.39-0.056,0.53a20.538,20.538,0,0,1,3.809,3.67c0.168,0.25.224,0.23,0.533-.08l1.344-1.32c0.252-.22.252-0.33,0.084-0.53a19.836,19.836,0,0,0-3.949-3.56c-0.252-.17-0.28-0.11-0.532.11Zm-4.817,3.89a9.215,9.215,0,0,1,1.121.48,1.357,1.357,0,0,0,.56.25c0.168,0,.252-0.17.42-0.59a33.956,33.956,0,0,0,1.288-3.55,0.993,0.993,0,0,1,.336-0.62,0.276,0.276,0,0,0,.168-0.28,0.409,0.409,0,0,0-.308-0.34,19.639,19.639,0,0,0-2.128-.78,10.523,10.523,0,0,1-.168,1.21A26.2,26.2,0,0,1,399.786,6138.89Zm-7.086-4.67c-0.364.14-.42,0.19-0.308,0.5a21.194,21.194,0,0,1,1.429,4.68c0.056,0.31.084,0.33,0.5,0.17l1.2-.45c0.364-.14.42-0.23,0.364-0.51a22.381,22.381,0,0,0-1.512-4.7c-0.14-.28-0.168-0.31-0.5-0.17Zm33.911,7.5a2.8,2.8,0,1,0,2.8,2.8A2.808,2.808,0,0,0,426.611,6141.72Zm-301.2,51.56H120.96c-1.428,0-3.137-.03-5.265-0.19,0,0.92.084,2.18,0.112,2.68,0,0.34.112,0.56,0.364,0.56,1.316-.11,3.249-0.19,4.845-0.19h4.4v9.66a1.1,1.1,0,0,1-.644,1.23,13.655,13.655,0,0,1-3.809.34,6.564,6.564,0,0,1,1.877,2.52,0.7,0.7,0,0,0,.672.59,8.644,8.644,0,0,0,3.585-.93,2.9,2.9,0,0,0,1.652-2.88c0-2.19-.056-3.39-0.056-4.87l-0.028-5.66h3.305c1.9,0,4.033.08,5.769,0.14,0.28,0.03.365-.17,0.393-0.53a19.053,19.053,0,0,0,.028-2.19c0-.31-0.113-0.47-0.365-0.45-1.372.06-3.276,0.17-5.713,0.17h-3.445v-1.48a6.494,6.494,0,0,1,.28-2.8,1.1,1.1,0,0,0,.168-0.51,0.478,0.478,0,0,0-.5-0.42c-0.7-.14-2.156-0.31-3.473-0.42a21.635,21.635,0,0,1,.308,4.32v1.31Zm-6.637,5.1a6.2,6.2,0,0,1-.757,2.27,18.773,18.773,0,0,1-3.388,4.62,7.848,7.848,0,0,1,2.38,1.18,0.81,0.81,0,0,0,.42.16,0.767,0.767,0,0,0,.56-0.33,21.855,21.855,0,0,0,3.109-4.68,2.568,2.568,0,0,1,.7-0.95,0.6,0.6,0,0,0,.308-0.45,0.732,0.732,0,0,0-.42-0.53A12.772,12.772,0,0,0,118.776,6198.38Zm12.743,1.79a27.4,27.4,0,0,1,4.257,5.88,0.4,0.4,0,0,0,.308.28,0.94,0.94,0,0,0,.336-0.16,15.669,15.669,0,0,0,1.877-1.41,0.541,0.541,0,0,0,.28-0.44,0.705,0.705,0,0,0-.14-0.42,21.7,21.7,0,0,0-4.005-5.13,0.523,0.523,0,0,0-.421-0.25,0.557,0.557,0,0,0-.364.14C133,6199.14,132.275,6199.61,131.519,6200.17Zm0.98-11.51a13.948,13.948,0,0,1,2.829,3.25,0.29,0.29,0,0,0,.476.08l1.176-.86a0.284,0.284,0,0,0,.084-0.45,12.751,12.751,0,0,0-2.66-3,0.291,0.291,0,0,0-.421-0.06Zm2.577-1.85a13.283,13.283,0,0,1,2.8,3.22,0.287,0.287,0,0,0,.477.09l1.12-.87a0.33,0.33,0,0,0,.084-0.51,11.613,11.613,0,0,0-2.661-2.88,0.288,0.288,0,0,0-.42-0.06Zm27.1,0.9a13.7,13.7,0,0,1,2.52,3.5,0.289,0.289,0,0,0,.448.14l1.261-.76a0.291,0.291,0,0,0,.14-0.44,12.9,12.9,0,0,0-2.381-3.25,0.29,0.29,0,0,0-.392-0.09Zm2.744-1.6a13.522,13.522,0,0,1,2.493,3.47,0.3,0.3,0,0,0,.476.14l1.176-.75a0.345,0.345,0,0,0,.141-0.51,12.4,12.4,0,0,0-2.381-3.13c-0.14-.14-0.224-0.2-0.392-0.09Zm-8.038,5.58c1.541,0,3.193.02,4.706,0.08,0.308,0,.364-0.14.364-0.53a12.528,12.528,0,0,0,0-2.05c0-.36-0.056-0.53-0.336-0.53-1.4.08-3.165,0.11-4.734,0.11h-5.153c-1.26,0-2.689-.03-4.649-0.14,0.084,1.01.112,2.02,0.2,2.69a0.408,0.408,0,0,0,.476.48c1.568-.06,2.689-0.11,3.977-0.11h5.153Zm4.145,6.49c1.933,0,3.865.06,5.322,0.12a0.4,0.4,0,0,0,.42-0.48c0.028-.37.028-1.79,0-2.16,0-.39-0.028-0.56-0.308-0.56-1.653.11-3.277,0.17-5.462,0.17H148.428c-1.624,0-3.193,0-4.761-.14a16.931,16.931,0,0,0,.224,2.69c0.028,0.36.112,0.56,0.364,0.53,1.429-.08,2.8-0.17,4.2-0.17h5.322a11.861,11.861,0,0,1-1.429,6.02c-1.176,2.13-2.828,3.51-5.573,4.99a7.287,7.287,0,0,1,2.492,1.48,0.813,0.813,0,0,0,.589.28,1.748,1.748,0,0,0,.84-0.33,14.132,14.132,0,0,0,4.929-5.3,15.954,15.954,0,0,0,1.652-7.14h3.753Zm21.112,0.48c0.98-.95,1.82-1.88,2.549-2.72a7.231,7.231,0,0,1,1.26-1.15,0.632,0.632,0,0,0,.42-0.53,0.77,0.77,0,0,0-.308-0.5,23.3,23.3,0,0,0-2.577-1.68,7.962,7.962,0,0,1-1.484,2.41,39.978,39.978,0,0,1-11.623,9.1,4.826,4.826,0,0,1,2.016,1.4,0.774,0.774,0,0,0,.561.28,0.642,0.642,0,0,0,.364-0.11,37.435,37.435,0,0,0,5.8-4.04v4.79c0,1.49-.056,2.89-0.084,4.48a0.422,0.422,0,0,0,.448.51,17.18,17.18,0,0,0,2.269,0,0.429,0.429,0,0,0,.476-0.51c-0.028-1.42-.084-3.22-0.084-4.56v-7.17Zm25.4,2.18c2.072,0,4.145.03,6.246,0.06,0.392,0.03.5-.08,0.5-0.42a20.607,20.607,0,0,0,0-2.63c0-.34-0.084-0.42-0.5-0.4-2.157.03-4.314,0.09-6.442,0.09h-9.018a35.931,35.931,0,0,1-6.05-.34,30.246,30.246,0,0,0,.42,3.39,0.617,0.617,0,0,0,.644.59,22.154,22.154,0,0,1,4.117-.34H207.54Zm11.9-9.35a21.861,21.861,0,0,1,4.649,5.38,0.507,0.507,0,0,0,.392.3,0.467,0.467,0,0,0,.252-0.11,15.526,15.526,0,0,0,2.157-1.71,0.812,0.812,0,0,0,.2-0.39,0.476,0.476,0,0,0-.14-0.33,21.778,21.778,0,0,0-4.482-4.91,0.514,0.514,0,0,0-.364-0.19,0.57,0.57,0,0,0-.392.17C221.341,6189.98,220.333,6190.76,219.437,6191.49Zm16.44-2.41a12.583,12.583,0,0,1-.728,3.73,31.505,31.505,0,0,1-4.762,8.79,30.058,30.058,0,0,1-8.01,7.03,8.4,8.4,0,0,1,2.577,1.23,0.972,0.972,0,0,0,.616.31,1.183,1.183,0,0,0,.588-0.22,31.081,31.081,0,0,0,7.17-6.7,39.941,39.941,0,0,0,5.238-9.66,6.176,6.176,0,0,1,.952-1.82,1.077,1.077,0,0,0,.308-0.64,0.514,0.514,0,0,0-.336-0.48A16.092,16.092,0,0,0,235.877,6189.08Zm25.172,11.76c2.072,0,4.145.03,6.245,0.06,0.392,0.03.5-.08,0.5-0.42a20.607,20.607,0,0,0,0-2.63c0-.34-0.084-0.42-0.5-0.4-2.156.03-4.313,0.09-6.441,0.09h-9.019a35.918,35.918,0,0,1-6.049-.34,30.246,30.246,0,0,0,.42,3.39,0.617,0.617,0,0,0,.644.59,22.141,22.141,0,0,1,4.117-.34h10.083Zm27.636-7.28a23.532,23.532,0,0,1-4.733,7.98,27.145,27.145,0,0,1-9.159,7.01,8.244,8.244,0,0,1,2.605,1.54,0.988,0.988,0,0,0,.7.3,1.337,1.337,0,0,0,.756-0.25,31.329,31.329,0,0,0,7.954-6.66,33,33,0,0,0,5.434-9.11,3.335,3.335,0,0,1,.644-1.09,0.749,0.749,0,0,0,.28-0.53,0.954,0.954,0,0,0-.224-0.56,10.408,10.408,0,0,0-1.905-1.93,0.66,0.66,0,0,0-.476-0.2,0.914,0.914,0,0,0-.476.17,2.711,2.711,0,0,1-1.54.28h-10a48.76,48.76,0,0,1-5.377-.2c0.056,0.82.168,2.27,0.252,2.83,0.056,0.39.168,0.59,0.532,0.56,1.2-.05,2.8-0.14,4.621-0.14h10.111Zm6.217-8.37a2.952,2.952,0,0,0-3.024,2.99A3.025,3.025,0,1,0,294.9,6185.19Zm0,1.34a1.655,1.655,0,1,1-1.652,1.65A1.6,1.6,0,0,1,294.9,6186.53Zm20.635,16.72a14.5,14.5,0,0,0-2.213-.17c-3.165,0-5.181,1.66-5.181,4.09,0,2.41,2.072,3.98,5.153,3.98,3.193,0,5.209-1.29,5.209-4.09a20.894,20.894,0,0,1,3.417,2.35,0.408,0.408,0,0,0,.28.17,0.308,0.308,0,0,0,.252-0.19,17.019,17.019,0,0,0,1.289-2.27,0.374,0.374,0,0,0-.168-0.59,22.143,22.143,0,0,0-5.042-2.61,36.437,36.437,0,0,1-.308-4.76,2.868,2.868,0,0,1,.112-1.14,3.8,3.8,0,0,0,.168-0.59,0.423,0.423,0,0,0-.392-0.45,15.15,15.15,0,0,0-3.052-.53,9.79,9.79,0,0,1,.224,1.99C315.313,6199.75,315.369,6201.46,315.537,6203.25Zm0.056,2.66a3.249,3.249,0,0,1,.028.56c0,1.18-.925,1.99-2.437,1.99-1.6,0-2.381-.45-2.381-1.34,0-1.07,1.093-1.63,2.493-1.63A7.252,7.252,0,0,1,315.593,6205.91Zm-4.565-14.36c0.252-.84.476-1.71,0.672-2.39a2.994,2.994,0,0,1,.448-1.03,0.7,0.7,0,0,0,.252-0.53,0.469,0.469,0,0,0-.448-0.42,24.854,24.854,0,0,0-3.277-.59,10.846,10.846,0,0,1-.168,2.27c-0.2,1.01-.392,1.96-0.728,3.13a31.074,31.074,0,0,1-3.221.14c-0.812,0-1.456-.02-2.605-0.11a14.516,14.516,0,0,0,.28,2.38c0.056,0.37.112,0.45,0.392,0.45,0.7,0.03.925,0.03,1.541,0.03,0.868,0,1.736,0,2.8-.06a56.768,56.768,0,0,1-4.845,9.78,0.531,0.531,0,0,0-.14.33,0.393,0.393,0,0,0,.2.31,13.023,13.023,0,0,0,1.933,1.43,0.83,0.83,0,0,0,.336.14,0.4,0.4,0,0,0,.308-0.28,77.308,77.308,0,0,0,5.461-12.02c1.737-.25,3.109-0.44,4.621-0.75a0.3,0.3,0,0,0,.337-0.34,15.19,15.19,0,0,0-.252-2.27c-0.057-.3-0.169-0.3-0.421-0.22A32.423,32.423,0,0,1,311.028,6191.55Zm6.217,2.66a24.208,24.208,0,0,1,5.8,3.05,0.408,0.408,0,0,0,.252.11,0.324,0.324,0,0,0,.252-0.2,16.15,16.15,0,0,0,1.176-2.07,0.662,0.662,0,0,0,.112-0.33,0.4,0.4,0,0,0-.252-0.31,21.371,21.371,0,0,0-5.489-2.63,0.385,0.385,0,0,0-.589.19C318.141,6192.53,317.721,6193.37,317.245,6194.21Zm16.686-6.67a12.446,12.446,0,0,1,.728,3.25,42.242,42.242,0,0,0,1.456,6.83c-3.277,2.08-5.321,4.12-5.321,7.23,0,3.64,2.8,5.38,8.094,5.38a60.806,60.806,0,0,0,8.346-.42,0.44,0.44,0,0,0,.5-0.48,24.474,24.474,0,0,0-.28-2.6,0.349,0.349,0,0,0-.5-0.34,50.083,50.083,0,0,1-8.346.64c-3.5,0-4.649-.72-4.649-2.35,0-1.32.868-2.63,3.3-4.23a39.8,39.8,0,0,1,6.582-3.28,13.709,13.709,0,0,1,2.689-.84,0.554,0.554,0,0,0,.56-0.56,1.1,1.1,0,0,0-.2-0.58,14.5,14.5,0,0,0-2.045-2.64,7.014,7.014,0,0,1-1.932,1.52c-1.569.84-2.577,1.37-3.977,2.12a39.037,39.037,0,0,1-.9-4.81c-0.056-.65-0.14-1.32-0.14-1.88,0-.39.2-0.78,0.2-1.18a0.507,0.507,0,0,0-.5-0.44A15.759,15.759,0,0,0,333.931,6187.54Zm11.342,1.71a13.925,13.925,0,0,1,2.829,3.25,0.3,0.3,0,0,0,.476.08l1.177-.87a0.275,0.275,0,0,0,.084-0.44,12.775,12.775,0,0,0-2.661-3,0.29,0.29,0,0,0-.42-0.06Zm2.577-1.85a13.288,13.288,0,0,1,2.8,3.22,0.291,0.291,0,0,0,.476.09l1.12-.87a0.33,0.33,0,0,0,.084-0.51,11.608,11.608,0,0,0-2.66-2.88,0.289,0.289,0,0,0-.421-0.06Zm21.727,5.35c-3.389,2.21-5.378,4.9-5.378,8.88,0,5.82,5.406,8.65,10.335,8.65,0.336,0,.448-0.17.532-0.59a9.946,9.946,0,0,0,.308-2.4c0-.31-0.168-0.42-0.616-0.42-4.873-.31-7.45-2.27-7.45-5.89,0-3.36,2.381-6.63,7.142-8.26a12.421,12.421,0,0,1,3.417-.61c0.364,0,.532-0.09.532-0.42a16.078,16.078,0,0,0-.308-2.47c-0.028-.2-0.168-0.36-0.588-0.31-7.226.96-13.388,1.88-16.832,2.38a39.278,39.278,0,0,1-4.454.48,19.237,19.237,0,0,0,1.037,3.02,0.64,0.64,0,0,0,.532.42,1.7,1.7,0,0,0,.616-0.22c0.42-.14.7-0.2,1.764-0.45,3-.61,5.994-1.2,9.411-1.85v0.06Zm4.061,4a14.179,14.179,0,0,1,2.829,3.25,0.292,0.292,0,0,0,.476.09l1.176-.87a0.284,0.284,0,0,0,.084-0.45,13.144,13.144,0,0,0-2.661-3,0.288,0.288,0,0,0-.42-0.05Zm2.577-1.84a13.1,13.1,0,0,1,2.8,3.22,0.285,0.285,0,0,0,.476.08l1.121-.87a0.32,0.32,0,0,0,.084-0.5,11.847,11.847,0,0,0-2.661-2.89,0.286,0.286,0,0,0-.42-0.05Zm15.4-4.32c-0.028,1.01-.056,1.46-0.056,1.6,0,0.31.028,0.34,0.308,0.34h2.185c0.28,0,.308-0.03.308-0.34,0-.14-0.056-0.59-0.056-1.6h5.209c-0.028.82-.056,1.21-0.056,1.32v0.14l-2.044-.5a7.4,7.4,0,0,1-.616,1.23,14.3,14.3,0,0,1-5.546,4.84,5.746,5.746,0,0,1,1.148,1.26,1.032,1.032,0,0,0,.617.62,1.379,1.379,0,0,0,.644-0.31,19.072,19.072,0,0,0,2.38-1.79,14.364,14.364,0,0,0,2.269,2.24,30.317,30.317,0,0,1-7.59,2.63,7.961,7.961,0,0,1,.952,1.63c0.336,0.75.336,0.78,1.177,0.58l1.12-.33c0.028,0.33.056,0.92,0.056,1.93v1.46c0,3.11-.056,3.67-0.056,3.83,0,0.28.028,0.31,0.308,0.31h2.156c0.309,0,.337-0.03.337-0.31v-0.75h7.309v0.73c0,0.28.028,0.3,0.308,0.3H406.6c0.308,0,.336-0.02.336-0.3,0-.14-0.056-0.73-0.056-3.81v-1.77c0-1.09.028-1.71,0.056-1.93,0.42,0.14.84,0.22,1.26,0.34,0.9,0.22.9,0.19,1.205-.68a11.494,11.494,0,0,1,.9-1.82,31.167,31.167,0,0,1-7.394-2.12,25.562,25.562,0,0,0,2.969-3.03,3.276,3.276,0,0,1,.868-0.84,0.554,0.554,0,0,0,.308-0.5,1.414,1.414,0,0,0-.728-0.96,1.781,1.781,0,0,0-1.092-.72,0.966,0.966,0,0,0-.392.11,1.409,1.409,0,0,1-.561.08h-5.125a3.016,3.016,0,0,1,.588-0.78,0.615,0.615,0,0,0,.336-0.48,0.328,0.328,0,0,0-.14-0.22h2.017c0.28,0,.308-0.03.308-0.31,0-.11-0.056-0.5-0.056-1.32h3.361c2.492,0,3.333.06,3.5,0.06,0.308,0,.336-0.03.336-0.31v-1.88c0-.28-0.028-0.3-0.336-0.3-0.168,0-1.009.05-3.5,0.05H402.2a3.4,3.4,0,0,1,.168-1.37,1.029,1.029,0,0,0,.112-0.39c0-.14-0.112-0.23-0.364-0.25-0.728-.09-1.877-0.14-2.773-0.17a10.437,10.437,0,0,1,.168,2.18H394.3a3.4,3.4,0,0,1,.168-1.37,1.173,1.173,0,0,0,.112-0.42c0-.14-0.112-0.22-0.364-0.25-0.756-.09-1.877-0.14-2.773-0.17a11.084,11.084,0,0,1,.168,2.21h-3.193c-2.492,0-3.36-.05-3.5-0.05-0.281,0-.309.02-0.309,0.3v1.88c0,0.28.028,0.31,0.309,0.31,0.14,0,1.008-.06,3.5-0.06h3.193Zm5.154,15.13h7.309v2.69h-7.309v-2.69Zm-1.009-2.19a26.2,26.2,0,0,0,4.846-2.32,25.751,25.751,0,0,0,5.237,2.29c-0.532.03-1.372,0.03-2.661,0.03h-7.422Zm7.45-7.76a13.847,13.847,0,0,1-2.632,2.5,12.6,12.6,0,0,1-2.717-2.5h5.349Zm-13.919,6.53a36.324,36.324,0,0,1-3.053,5.35,12.05,12.05,0,0,1-1.484,1.68c0.644,0.67,1.428,1.4,1.96,1.85a0.883,0.883,0,0,0,.476.22,0.4,0.4,0,0,0,.364-0.28,4.444,4.444,0,0,1,.532-0.98,35.317,35.317,0,0,0,2.773-4.79,2.194,2.194,0,0,0,.28-0.73,1.278,1.278,0,0,0-.5-0.7A19.269,19.269,0,0,1,389.287,6202.3Zm-3.3-8.71c-0.2.25-.224,0.31,0.028,0.45a27.173,27.173,0,0,1,3.809,2.71c0.28,0.23.336,0.17,0.588-.14l1.176-1.51c0.224-.31.224-0.39,0-0.53a29.226,29.226,0,0,0-3.809-2.58c-0.252-.14-0.28-0.16-0.588.17Zm-1.176,5.24c-0.2.25-.169,0.31,0.084,0.47a29.945,29.945,0,0,1,3.7,2.78,0.5,0.5,0,0,0,.253.14,0.341,0.341,0,0,0,.224-0.2l1.2-1.62a0.636,0.636,0,0,0,.2-0.34,0.331,0.331,0,0,0-.168-0.22,33.709,33.709,0,0,0-3.753-2.61c-0.28-.17-0.308-0.14-0.588.2Zm33.993-11.54a12.481,12.481,0,0,1,.729,3.25,42.7,42.7,0,0,0,1.456,6.83c-3.277,2.07-5.321,4.12-5.321,7.23,0,3.64,2.8,5.37,8.094,5.37a59.254,59.254,0,0,0,8.346-.42,0.429,0.429,0,0,0,.5-0.47,24.958,24.958,0,0,0-.28-2.61,0.348,0.348,0,0,0-.5-0.33,49.194,49.194,0,0,1-8.543.64c-3.22,0-4.453-.7-4.453-2.35,0-1.32.869-2.63,3.305-4.23a38.993,38.993,0,0,1,6.582-3.28,13.688,13.688,0,0,1,2.689-.84,0.554,0.554,0,0,0,.56-0.56,1.165,1.165,0,0,0-.2-0.59,14.875,14.875,0,0,0-2.045-2.63,6.814,6.814,0,0,1-1.932,1.51l-3.977,2.13a39.022,39.022,0,0,1-.9-4.81c-0.056-.65-0.14-1.32-0.14-1.88,0-.39.2-0.79,0.2-1.18a0.522,0.522,0,0,0-.5-0.45A16.346,16.346,0,0,0,418.8,6187.29Zm25.312,7.87c-1.036.17-2.381,0.42-3.165,0.53a26.334,26.334,0,0,1-3,.28,10.983,10.983,0,0,0,.785,2.8,0.471,0.471,0,0,0,.728.31,8.174,8.174,0,0,1,1.26-.42c1.064-.22,1.961-0.39,3.389-0.59,0,2.97.056,5.32,0.2,6.83,0.336,3.67,1.988,4.85,7.646,4.85a63.444,63.444,0,0,0,7.03-.42,0.4,0.4,0,0,0,.364-0.5,17.265,17.265,0,0,0-.168-2.36c-0.056-.33-0.14-0.39-0.56-0.36a51.673,51.673,0,0,1-7.254.56c-3.417,0-4.033-.45-4.2-2.75-0.112-1.59-.084-3.27-0.056-6.33,2.156-.33,4.593-0.61,6.833-0.78-0.028,1.09-.084,2.1-0.2,2.97a1.137,1.137,0,0,1-1.316,1.2,8.87,8.87,0,0,1-2.381-.33,6.742,6.742,0,0,1,.617,2.52c0,0.5.112,0.7,0.56,0.73a13.233,13.233,0,0,0,1.736.08c2.1,0,3.361-.92,3.669-3.11a42.907,42.907,0,0,0,.336-4.31c1.849-.14,3.725-0.23,5.574-0.23,0.308,0,.364-0.02.364-0.39a20.826,20.826,0,0,0,0-2.29c0-.26-0.112-0.28-0.336-0.28-1.513.05-3.193,0.14-5.462,0.3,0.028-1.31.056-2.4,0.112-3.92a4.907,4.907,0,0,1,.28-1.26,1.289,1.289,0,0,0,.168-0.56,0.539,0.539,0,0,0-.532-0.53,20.384,20.384,0,0,0-3.389-.56,12.4,12.4,0,0,1,.364,3.19c0,1.04,0,2.55-.028,3.95-2.016.23-4.985,0.53-6.917,0.79,0.028-.96.028-2.02,0.056-2.69a3.732,3.732,0,0,1,.28-1.23,1.619,1.619,0,0,0,.168-0.59,0.709,0.709,0,0,0-.588-0.59,23.761,23.761,0,0,0-3.361-.48,11.265,11.265,0,0,1,.392,2.97v3Zm32.677,8.18a25.352,25.352,0,0,0-2.688-.12c-3.389,0-5.6,1.71-5.6,3.98,0,2.33,2.073,3.92,5.714,3.92,3.837,0,5.657-1.23,5.685-4.25a21.78,21.78,0,0,1,5.573,3.19,0.438,0.438,0,0,0,.309.14,0.415,0.415,0,0,0,.364-0.23,8.376,8.376,0,0,0,1.232-2.07,0.506,0.506,0,0,0-.2-0.67,25.184,25.184,0,0,0-7.422-3.39c-0.084-1.29-.14-2.66-0.2-3.95a50.742,50.742,0,0,0,5.489-.67c0.308-.03.42-0.11,0.42-0.39,0-.84-0.056-1.77-0.084-2.3-0.028-.25-0.112-0.31-0.448-0.22-2.016.3-3.361,0.58-5.489,0.72,0-1-.028-2.04-0.028-3.16a56.817,56.817,0,0,0,6.47-.73c0.224-.03.308-0.08,0.308-0.45a14.907,14.907,0,0,0-.14-2.04c-0.028-.34-0.14-0.42-0.477-0.34a45.435,45.435,0,0,1-6.133.84c0.028-.84.028-1.23,0.056-1.79a3.545,3.545,0,0,1,.42-1.34,0.569,0.569,0,0,0-.308-0.84,16.057,16.057,0,0,0-3.529-.51,8.049,8.049,0,0,1,.336,1.88c0.028,0.95.056,1.68,0.056,2.72a64.06,64.06,0,0,1-7.338-.28c0.056,1.14.112,1.82,0.2,2.52a0.394,0.394,0,0,0,.476.39,47.276,47.276,0,0,0,6.694.14c0.028,1.06.028,2.15,0.056,3.22a38.949,38.949,0,0,1-6.3-.23,16.83,16.83,0,0,0,.168,2.39c0.028,0.36.14,0.47,0.448,0.47a48.3,48.3,0,0,0,5.769.11C476.676,6200.96,476.732,6202.1,476.788,6203.34Zm0.056,2.66a2.707,2.707,0,0,1-.308,1.57,3.475,3.475,0,0,1-2.548.84c-1.933,0-2.773-.54-2.773-1.26,0-.9.98-1.49,3.025-1.49A11.841,11.841,0,0,1,476.844,6206Zm27.805-14.85c-3.361.2-6.974,0.42-8.682,0.56a18.059,18.059,0,0,1-3.417.12,19.742,19.742,0,0,0,.7,2.82,0.442,0.442,0,0,0,.476.4c0.252,0,.7-0.26,1.316-0.34,2.213-.31,6.162-0.64,9.691-0.84,0,0.92.028,1.88,0.028,2.86a3.381,3.381,0,0,0-2.129-.56,4.077,4.077,0,0,0-4.229,4.2c0,2.69,1.681,4.28,3.893,4.28a3.239,3.239,0,0,0,2.633-1.12c-0.5,2.36-2.465,4.71-5.742,6.16a6.378,6.378,0,0,1,2.129,1.12,1.543,1.543,0,0,0,.84.42,2.64,2.64,0,0,0,1.093-.53,10.461,10.461,0,0,0,4.985-9.04,8.765,8.765,0,0,0-.42-2.78c-0.028-1.71-.028-3.5-0.028-5.21,2.912-.02,5.629-0.02,8.542.06,0.336,0.03.476-.06,0.476-0.36,0.028-.7.028-1.43,0-2.13-0.028-.37-0.084-0.42-0.42-0.42-2.689,0-5.574.03-8.6,0.14,0.028-1.07.028-1.43,0.056-1.8a2.973,2.973,0,0,1,.224-0.81,1.181,1.181,0,0,0,.252-0.64,0.776,0.776,0,0,0-.784-0.53,29.592,29.592,0,0,0-3.277-.4,8.965,8.965,0,0,1,.336,2.05C504.621,6189.58,504.621,6190.29,504.649,6191.15Zm-1.793,7.2a1.681,1.681,0,0,1,1.849,1.79,1.8,1.8,0,0,1-1.9,1.94,1.742,1.742,0,0,1-1.792-1.91A1.783,1.783,0,0,1,502.856,6198.35Zm18.815,5.85a4.035,4.035,0,1,0,4.061,4.04A4.046,4.046,0,0,0,521.671,6204.2Zm0,1.71a2.325,2.325,0,1,1-2.325,2.33A2.286,2.286,0,0,1,521.671,6205.91Z" transform="translate(-107.938 -6131.62)"/>
  <path id="シェイプ_984" data-name="シェイプ 984" class="cls-2" d="M218.643,6165.77H435.578" transform="translate(-107.938 -6131.62)"/>
  <path id="シェイプ_984-2" data-name="シェイプ 984" class="cls-2" d="M110.945,6219.77h421.47" transform="translate(-107.938 -6131.62)"/>
</svg>
