<svg id="lead-block-01_sp.svg" xmlns="http://www.w3.org/2000/svg" width="281.062" height="92.62" viewBox="0 0 281.062 92.62">
  <defs>
    <style>
      .cls-1 {
        fill: #1147b4;
      }

      .cls-1, .cls-2 {
        fill-rule: evenodd;
      }

      .cls-2 {
        fill: none;
        stroke: #1147b4;
        stroke-linecap: round;
        stroke-width: 3px;
        stroke-dasharray: 0.001 6;
      }
    </style>
  </defs>
  <path id="サンカット_史上最強_汗_水_こすれに強い_" data-name="サンカット®史上最強 汗・水・こすれに強い。" class="cls-1" d="M220.967,2470.34v-2.66a7.689,7.689,0,0,1,.224-2.46,1.565,1.565,0,0,0,.112-0.51c0-.22-0.112-0.36-0.5-0.45a26.892,26.892,0,0,0-3.277-.47,18.645,18.645,0,0,1,.252,3.84l-0.028,2.74h-6.021v-2.04c0-1.91,0-2.19.2-2.69a1.942,1.942,0,0,0,.168-0.59,0.4,0.4,0,0,0-.42-0.39,26.741,26.741,0,0,0-3.417-.45,19.432,19.432,0,0,1,.336,4.12v2.04h-0.84c-2.157,0-3.977-.06-5.153-0.14a25.213,25.213,0,0,0,.2,2.72c0.028,0.36.112,0.53,0.336,0.53,0.868-.06,3.108-0.14,4.621-0.14h0.84v1.06c0,1.77-.056,3.14-0.14,4.6-0.028.3,0.14,0.36,0.5,0.39a19.362,19.362,0,0,0,2.409,0c0.308-.03.5-0.09,0.476-0.39-0.084-1.49-.084-3-0.084-4.65v-1.01h5.965c-0.112,3.42-.56,5.35-1.652,7.14-1.428,2.3-3.585,3.73-7.562,4.96a6.45,6.45,0,0,1,2.325,1.68,0.784,0.784,0,0,0,.532.31,2.376,2.376,0,0,0,.784-0.26,13.184,13.184,0,0,0,6.61-5.2c1.372-2.27,1.988-4.63,2.156-8.63h1.148c1.373,0,3.081.03,4.034,0.03,0.392,0.03.448-.09,0.476-0.45a14.557,14.557,0,0,0,0-2.21c-0.028-.31-0.056-0.48-0.392-0.45-1.289.05-2.857,0.08-4.23,0.08h-0.98Zm10.524-1.62a29.783,29.783,0,0,1,5.714,4.56,0.6,0.6,0,0,0,.364.23,0.555,0.555,0,0,0,.336-0.23c0.392-.42,1.316-1.54,1.736-2.1a0.594,0.594,0,0,0,.169-0.36,0.623,0.623,0,0,0-.253-0.39,29.054,29.054,0,0,0-5.349-3.98,0.788,0.788,0,0,0-.364-0.14,0.519,0.519,0,0,0-.392.22C232.92,2467.09,232.108,2467.96,231.491,2468.72Zm0.617,13.97a19.069,19.069,0,0,0,2.24,3.11,0.715,0.715,0,0,0,.476.31,0.766,0.766,0,0,0,.5-0.28,9.956,9.956,0,0,1,1.877-1.29,60.227,60.227,0,0,0,8.458-5.49,45.558,45.558,0,0,0,6.442-5.94,1.344,1.344,0,0,0,.448-0.84,1.415,1.415,0,0,0-.14-0.53,12.408,12.408,0,0,1-.784-3.27,42.089,42.089,0,0,1-7.674,7.61,41.278,41.278,0,0,1-8.066,5.21A16.6,16.6,0,0,1,232.108,2482.69Zm30.773-12.82c-1.624,0-2.885,0-4.649-.12,0.056,1.04.112,2.05,0.224,2.72,0.028,0.34.14,0.5,0.42,0.48,1.317-.09,2.661-0.14,4.033-0.14h2.521a16.334,16.334,0,0,1-2.017,6.05,15.588,15.588,0,0,1-6.581,5.71,7.225,7.225,0,0,1,2.352,1.62,0.706,0.706,0,0,0,.532.28,1.272,1.272,0,0,0,.645-0.22,18.076,18.076,0,0,0,5.937-5.77,20.854,20.854,0,0,0,2.493-7.76h5.657a39.28,39.28,0,0,1-.84,8.41c-0.336,1.26-.7,1.7-1.456,1.96a11.689,11.689,0,0,1-3.809.25,5.809,5.809,0,0,1,1.624,2.55,0.685,0.685,0,0,0,.672.56,11.726,11.726,0,0,0,2.829-.31c1.792-.45,2.745-1.63,3.305-3.78a47.8,47.8,0,0,0,1.036-9.22c0.056-1.48.112-2.6,0.112-2.97,0-.3-0.14-0.39-0.588-0.39-1.288,0-2.605.06-3.893,0.06h-4.257c0.14-1.37.168-2.05,0.252-2.94a2.612,2.612,0,0,1,.364-1.32,1.248,1.248,0,0,0,.14-0.53,0.58,0.58,0,0,0-.476-0.59,22.126,22.126,0,0,0-3.641-.59,10.851,10.851,0,0,1,.2,2.22c-0.028,1.51-.084,2.4-0.2,3.78h-2.941Zm21.588,3.1a16.713,16.713,0,0,1,2.632,4.51c0.14,0.4.308,0.54,0.7,0.4a12.6,12.6,0,0,0,1.793-.87,0.5,0.5,0,0,0,.336-0.39,1.718,1.718,0,0,0-.112-0.42,14.89,14.89,0,0,0-2.409-4.15,0.5,0.5,0,0,0-.728-0.2C286.093,2472.13,285.421,2472.44,284.469,2472.97Zm5.629-1.42a19.052,19.052,0,0,1,2.353,4.48c0.14,0.39.252,0.53,0.56,0.42a11.4,11.4,0,0,0,1.932-.87,0.5,0.5,0,0,0,.28-0.76,16.252,16.252,0,0,0-2.156-4.09,0.5,0.5,0,0,0-.728-0.22C291.862,2470.71,291.218,2471.01,290.1,2471.55Zm8.822-.68a10.03,10.03,0,0,1-.644,2.97,28.888,28.888,0,0,1-3.781,6.75,24.219,24.219,0,0,1-6.722,5.83,6.341,6.341,0,0,1,2.381,1.17,0.647,0.647,0,0,0,.448.2,1.206,1.206,0,0,0,.672-0.31,22.483,22.483,0,0,0,5.77-5.4,34.446,34.446,0,0,0,4.229-7.45,3.788,3.788,0,0,1,.84-1.43,0.685,0.685,0,0,0,.308-0.51,0.7,0.7,0,0,0-.364-0.47A13.379,13.379,0,0,0,298.92,2470.87Zm16.6-3.1a7.361,7.361,0,0,1,.2-2.64,1.448,1.448,0,0,0,.225-0.64,0.522,0.522,0,0,0-.533-0.48,21.718,21.718,0,0,0-3.5-.45,21.337,21.337,0,0,1,.281,4.15v13.78c0,1.79-.028,3.44-0.112,5.52,0,0.33.14,0.42,0.532,0.42a20.719,20.719,0,0,0,2.492,0c0.392,0,.532-0.09.5-0.42-0.056-2.02-.112-3.67-0.112-5.49v-6.19a31.055,31.055,0,0,1,7.366,3.58,0.438,0.438,0,0,0,.308.14,0.468,0.468,0,0,0,.364-0.31,16.266,16.266,0,0,0,1.205-2.43,0.519,0.519,0,0,0-.308-0.73,39.433,39.433,0,0,0-8.907-3.81v-4Zm12.422,14.48v4.64h0.98v-1.92h0.49a1.293,1.293,0,0,0,.277-0.02l0.9,1.94h1.061l-1.029-2.04a1.238,1.238,0,0,0,.882-1.29c0-.82-0.506-1.31-1.682-1.31h-1.878Zm0.98,0.76h0.751c0.6,0,.849.22,0.849,0.58a0.728,0.728,0,0,1-.882.66h-0.718v-1.24Zm0.637-2.36a3.985,3.985,0,1,0,3.985,3.99A3.964,3.964,0,0,0,329.561,2480.65Zm0,0.49a3.5,3.5,0,1,1-3.5,3.5A3.485,3.485,0,0,1,329.561,2481.14Zm26.9-4.33c2.717,0,3.669.06,3.837,0.06,0.281,0,.309-0.03.309-0.34,0-.17-0.056-0.89-0.056-2.52v-3.98c0-1.62.056-2.35,0.056-2.52,0-.28-0.028-0.3-0.309-0.3-0.168,0-1.12.05-3.837,0.05h-4.789v-1.23a5.047,5.047,0,0,1,.2-1.93,1.57,1.57,0,0,0,.2-0.65c0-.22-0.168-0.33-0.56-0.39-1.008-.08-1.876-0.17-2.969-0.2a22.73,22.73,0,0,1,.253,3.7v0.7h-4.706c-2.744,0-3.7-.05-3.865-0.05-0.28,0-.308.02-0.308,0.3,0,0.17.056,0.9,0.056,2.52v3.98c0,1.63-.056,2.35-0.056,2.52,0,0.31.028,0.34,0.308,0.34,0.168,0,1.121-.06,3.865-0.06h4.537a13.845,13.845,0,0,1-.308,2.16,7.119,7.119,0,0,1-.756,1.9,13.193,13.193,0,0,1-3-3.44c-0.14-.25-0.2-0.25-0.5-0.09l-1.652.9c-0.336.2-.392,0.25-0.252,0.53a16.058,16.058,0,0,0,3.5,4.23c-1.765,1.32-4.4,2.21-8.122,2.63a8.721,8.721,0,0,1,1.2,1.96c0.224,0.56.28,0.7,0.56,0.7a3.477,3.477,0,0,0,.644-0.08c3.809-.76,6.386-1.96,8.15-3.5,3.165,1.76,7.282,2.8,12.744,3.25a5.307,5.307,0,0,0,.56.03c0.336,0,.392-0.2.588-0.82a10.926,10.926,0,0,1,1.036-2.21c-5.713-.22-9.886-1.01-13.023-2.57a10.9,10.9,0,0,0,1.176-2.86,17.141,17.141,0,0,0,.392-2.72h4.9Zm1.121-2.6h-5.91c0.028-1.4,0-2.89,0-4.32h5.91v4.32Zm-14.648,0v-4.32h5.854c0,1.38,0,2.89-.028,4.32h-5.826Zm45.028,12.6c2.521,0,3.389.06,3.557,0.06,0.28,0,.308-0.03.308-0.31v-2.55c0-.28-0.028-0.31-0.308-0.31-0.168,0-1.036.06-3.557,0.06h-7.646v-9.1H385.8c2.437,0,3.277.05,3.445,0.05,0.28,0,.308-0.03.308-0.31v-2.55c0-.28-0.028-0.3-0.308-0.3-0.168,0-1.008.05-3.445,0.05h-5.489v-4.42a9.893,9.893,0,0,1,.2-2.69,1.924,1.924,0,0,0,.2-0.65,0.514,0.514,0,0,0-.5-0.36c-0.952-.11-2.213-0.17-3.277-0.2a29.263,29.263,0,0,1,.224,4.68v15.8h-5.909c-2.521,0-3.389-.06-3.557-0.06-0.28,0-.308.03-0.308,0.31v2.55c0,0.28.028,0.31,0.308,0.31,0.168,0,1.036-.06,3.557-0.06h16.72Zm20.158,1.62c0.28,0,.308-0.02.308-0.3,0-.17-0.056-1.21-0.056-3.36v-9.39h9.494c2.437,0,3.249.06,3.417,0.06,0.252,0,.28-0.03.28-0.31v-1.76c0-.28-0.028-0.31-0.28-0.31-0.168,0-.98.05-3.417,0.05h-17.98c-2.437,0-3.249-.05-3.417-0.05-0.28,0-.308.03-0.308,0.31v1.76c0,0.28.028,0.31,0.308,0.31,0.14,0,.868-0.03,2.772-0.06v8.8a2.87,2.87,0,0,1-.5.05,23.641,23.641,0,0,1-2.632.2,19,19,0,0,0,.56,2.24,0.511,0.511,0,0,0,.392.45,1.019,1.019,0,0,0,.448-0.17,3.451,3.451,0,0,1,1.008-.28c2.269-.34,5.042-0.84,7.282-1.32-0.028,1.74-.056,2.61-0.056,2.78,0,0.28.028,0.3,0.308,0.3h2.073Zm-2.325-5.2c-1.26.22-2.633,0.42-3.949,0.61v-1.93h3.949v1.32Zm-3.949-6.36v-1.49h3.949v1.49h-3.949Zm0,3.25v-1.46h3.949v1.46h-3.949Zm1.9-16.33c-2.773,0-3.725-.06-3.921-0.06-0.28,0-.308.03-0.308,0.34,0,0.17.056,0.78,0.056,2.3v2.94c0,1.51-.056,2.12-0.056,2.29,0,0.31.028,0.34,0.308,0.34,0.2,0,1.148-.06,3.921-0.06h10.194c2.773,0,3.753.06,3.921,0.06,0.28,0,.308-0.03.308-0.34,0-.17-0.056-0.78-0.056-2.29v-2.94c0-1.52.056-2.13,0.056-2.3,0-.31-0.028-0.34-0.308-0.34-0.168,0-1.148.06-3.921,0.06H403.748Zm11.6,6.13h-13v-1.2h13v1.2Zm-13-4.06h13v1.18h-13v-1.18Zm10.167,11.18c-2.213,0-2.913-.06-3.081-0.06-0.28,0-.308.03-0.308,0.31v1.62c0,0.31.028,0.34,0.308,0.34,0.084,0,.28,0,0.728-0.03a15.757,15.757,0,0,0,2.745,4.48,15.2,15.2,0,0,1-4.509,2.1,5.45,5.45,0,0,1,1.036,1.6,0.774,0.774,0,0,0,.5.64,2.192,2.192,0,0,0,.56-0.19,19.226,19.226,0,0,0,4.229-2.47,15.692,15.692,0,0,0,4.79,2.41c0.728,0.22.784,0.22,1.064-.53a8.438,8.438,0,0,1,.98-1.79,15.219,15.219,0,0,1-4.957-1.91,14.517,14.517,0,0,0,2.268-3.39,2.875,2.875,0,0,1,.757-1.17,0.565,0.565,0,0,0,.28-0.51,1.657,1.657,0,0,0-.757-1.03,1.581,1.581,0,0,0-.98-0.65,1.308,1.308,0,0,0-.42.11,1.391,1.391,0,0,1-.5.12h-4.733Zm4.173,2.15a11.047,11.047,0,0,1-1.933,2.92,10.057,10.057,0,0,1-2.044-2.92h3.977Zm30.212,4.29-3.025.42v-3.11h1.9c2.52,0,3.417.05,3.585,0.05,0.28,0,.308-0.02.308-0.3,0-.17-0.056-0.79-0.056-2.24v-2.97c0-1.46.056-2.07,0.056-2.24,0-.28-0.028-0.31-0.308-0.31-0.168,0-1.065.05-3.585,0.05h-1.9v-2.6c1.373-.11,2.661-0.25,3.809-0.39,0.308,0.5.588,1.01,0.868,1.51a0.316,0.316,0,0,0,.253.25,0.77,0.77,0,0,0,.336-0.17l1.68-1c0.336-.23.308-0.31,0.168-0.56a40.17,40.17,0,0,0-4.453-5.38c-0.2-.2-0.28-0.2-0.56-0.03l-1.4.81c-0.308.17-.336,0.26-0.14,0.45a24.068,24.068,0,0,1,1.709,1.99c-1.737.14-3.809,0.31-5.882,0.39,0.617-1.06,1.261-2.29,1.709-3.22a2.22,2.22,0,0,1,.532-0.78,0.673,0.673,0,0,0,.28-0.51,0.512,0.512,0,0,0-.42-0.42,20.41,20.41,0,0,0-2.717-.5,7.542,7.542,0,0,1-.532,1.9,25.363,25.363,0,0,1-1.736,3.62c-0.7,0-1.485.02-2.213-.03,0.084,0.81.224,1.73,0.364,2.49a0.448,0.448,0,0,0,.392.45,0.8,0.8,0,0,0,.448-0.14,2.65,2.65,0,0,1,1.037-.23c1.2-.05,2.492-0.14,3.837-0.25v2.35h-1.625c-2.492,0-3.389-.05-3.585-0.05-0.28,0-.308.03-0.308,0.31,0,0.19.056,0.78,0.056,2.24v2.97c0,1.45-.056,2.04-0.056,2.24,0,0.28.028,0.3,0.308,0.3,0.2,0,1.093-.05,3.585-0.05h1.625v3.44c-1.289.17-2.521,0.28-3.529,0.34a27.527,27.527,0,0,1-3.249.06c0.168,0.92.336,1.87,0.588,2.74a0.5,0.5,0,0,0,.476.45,1.318,1.318,0,0,0,.5-0.14,4.311,4.311,0,0,1,1.177-.31c3.416-.42,7.309-0.98,10.922-1.65,0.308,0.64.561,1.29,0.813,1.93,0.112,0.28.224,0.31,0.56,0.2l1.6-.73c0.308-.14.336-0.23,0.252-0.48a25.715,25.715,0,0,0-3-5.26c-0.14-.25-0.2-0.31-0.5-0.17l-1.428.62c-0.336.14-.392,0.22-0.252,0.44Zm0.084-5.02h-3.109v-3.3h3.109v3.3Zm-8.6,0v-3.3h2.857v3.3h-2.857Zm-9.242-2.77c0.14-1.01.28-2.1,0.392-3.28H432c1.289,0,1.765.06,1.933,0.06,0.308,0,.336-0.03.336-0.31,0-.17-0.056-0.92-0.056-2.52v-2.88c0-1.63.056-2.36,0.056-2.52,0-.31-0.028-0.34-0.336-0.34-0.168,0-.644.06-1.933,0.06h-3.08c-1.737,0-2.241-.06-2.409-0.06-0.308,0-.336.03-0.336,0.34v2.01c0,0.28.028,0.31,0.336,0.31,0.168,0,.672-0.05,2.409-0.05h2.688v3.52h-2.464c-1.037,0-1.681-.05-1.849-0.05a0.3,0.3,0,0,0-.364.36,11.838,11.838,0,0,1-.084,1.99,52.473,52.473,0,0,1-1.008,6.47c-0.084.39-.084,0.42,1.2,0.59,1.456,0.17,1.456.17,1.54-.17l0.2-1.04h2.689c-0.252,4.35-.7,6.17-1.092,6.67a1.564,1.564,0,0,1-1.26.42,15.566,15.566,0,0,1-2.465-.25,8.735,8.735,0,0,1,.644,2.07c0.168,0.87.168,0.87,0.756,0.92,0.5,0.03.981,0.03,1.345,0.03,2.072,0,3.052-.59,3.557-1.85,0.448-1.09.952-3.36,1.2-8.23,0.028-.62.056-1.4,0.112-1.96,0.028-.28-0.056-0.36-0.336-0.36-0.168,0-.5.05-1.793,0.05h-3ZM206.391,2530.2v6.75c0,3.13-.056,4.7-0.056,4.9,0,0.25.028,0.28,0.308,0.28h2.521c0.28,0,.308-0.03.308-0.28,0-.17-0.056-1.77-0.056-4.9v-6.75h3.473c2.744,0,3.7.05,3.865,0.05,0.252,0,.28-0.03.28-0.33v-2.33c0-.28-0.028-0.31-0.28-0.31-0.168,0-1.121.06-3.865,0.06h-3.473v-5.99h2.521c2.6,0,3.528.05,3.7,0.05,0.281,0,.309-0.03.309-0.33v-2.25c0-.28-0.028-0.3-0.309-0.3-0.168,0-1.092.05-3.7,0.05H204.4c-2.633,0-3.557-.05-3.725-0.05-0.28,0-.308.02-0.308,0.3v2.25c0,0.3.028,0.33,0.308,0.33,0.168,0,1.092-.05,3.725-0.05h1.988v5.99h-2.969c-2.744,0-3.669-.06-3.837-0.06-0.28,0-.308.03-0.308,0.31v2.33c0,0.3.028,0.33,0.308,0.33,0.168,0,1.093-.05,3.837-0.05h2.969Zm-14.536,9.99a16.07,16.07,0,0,0,2.157,1.6,0.9,0.9,0,0,0,.532.2,0.39,0.39,0,0,0,.336-0.37,4.95,4.95,0,0,1,.5-1.06,62.069,62.069,0,0,0,3-6.14,1.71,1.71,0,0,0,.168-0.58,1.17,1.17,0,0,0-.588-0.79,18.206,18.206,0,0,1-1.512-1.43,43.774,43.774,0,0,1-3.137,6.56A11.351,11.351,0,0,1,191.855,2540.19Zm1.121-21.37a0.636,0.636,0,0,0-.2.34,0.315,0.315,0,0,0,.2.2,21.228,21.228,0,0,1,4.313,3.19c0.2,0.17.252,0.2,0.476-.08l1.288-1.77a0.733,0.733,0,0,0,.168-0.33,0.366,0.366,0,0,0-.168-0.23,31.487,31.487,0,0,0-4.257-2.97c-0.224-.11-0.308-0.11-0.532.14ZM192,2525.85a0.637,0.637,0,0,0-.168.34,0.315,0.315,0,0,0,.2.2,24.819,24.819,0,0,1,4.286,3.16,0.491,0.491,0,0,0,.252.17,0.294,0.294,0,0,0,.224-0.2l1.26-1.79a0.733,0.733,0,0,0,.168-0.33,0.422,0.422,0,0,0-.168-0.23,25.947,25.947,0,0,0-4.313-2.97c-0.252-.14-0.336-0.14-0.56.14Zm34.668,0.87a2.8,2.8,0,1,0,2.8,2.8A2.808,2.808,0,0,0,226.663,2526.72Zm23.968-6.63a7.286,7.286,0,0,1,.168-1.97,2.667,2.667,0,0,0,.2-0.72,0.466,0.466,0,0,0-.476-0.31c-0.924-.11-2.073-0.14-3.081-0.17a16.978,16.978,0,0,1,.2,3.19v18.07c0,0.64-.42.87-1.4,0.89a23.009,23.009,0,0,1-2.773-.08,6.246,6.246,0,0,1,.924,2.16c0.224,0.86.252,0.84,1.093,0.84,2.212-.03,3.445-0.17,4.117-0.65a2.707,2.707,0,0,0,1.12-2.57c0-2.66-.2-7.31-0.224-11.4a24.056,24.056,0,0,0,8.878,11.4,1.58,1.58,0,0,0,.672.33,0.874,0.874,0,0,0,.5-0.59,7.507,7.507,0,0,1,1.569-2.04,21.7,21.7,0,0,1-7.842-6.95,38.848,38.848,0,0,0,4.285-3.95,6.507,6.507,0,0,1,1.484-1.26,0.558,0.558,0,0,0,.392-0.47,0.7,0.7,0,0,0-.392-0.56,19.725,19.725,0,0,0-2.38-1.63,6.5,6.5,0,0,1-.952,1.49,28.278,28.278,0,0,1-3.893,4.06,22.393,22.393,0,0,1-2.185-5.83v-1.28Zm-10.363,4.06c-2.072,0-2.744-.06-2.912-0.06-0.28,0-.308.03-0.308,0.31v2.21c0,0.28.028,0.31,0.308,0.31,0.168,0,.84-0.06,2.912-0.06h3.137a19.459,19.459,0,0,1-7.366,10.03,5.643,5.643,0,0,1,1.569,1.68,0.918,0.918,0,0,0,.56.56,1.369,1.369,0,0,0,.616-0.39,24.2,24.2,0,0,0,7.478-11.18,2.237,2.237,0,0,1,.56-1.01,0.71,0.71,0,0,0,.28-0.56c0-.3-0.14-0.5-0.9-1.26a1.975,1.975,0,0,0-1.176-.84,1.262,1.262,0,0,0-.337.14,1.3,1.3,0,0,1-.672.12h-3.753Zm31.2,2.57a2.8,2.8,0,1,0,2.8,2.8A2.808,2.808,0,0,0,271.463,2526.72Zm12.654,3.73a7.37,7.37,0,0,0-1.485,4c0,3.64,3.221,5.66,9.5,5.66a42.721,42.721,0,0,0,8.346-.67c0.336-.06.5-0.17,0.476-0.42a23.805,23.805,0,0,0-.448-2.75c-0.056-.25-0.2-0.33-0.588-0.25a35.262,35.262,0,0,1-7.59.81c-4.817,0-6.638-.86-6.638-2.63a4.631,4.631,0,0,1,.728-2.13,0.3,0.3,0,0,0-.14-0.5C285.545,2531.18,284.845,2530.81,284.117,2530.45Zm0.616-10.59c-0.056,1.01-.112,1.82-0.112,2.49a0.423,0.423,0,0,0,.364.51,34.855,34.855,0,0,0,4.9.47,20.22,20.22,0,0,0,2.3-.08c-0.98.59-2.213,1.37-3.669,2.32a6.96,6.96,0,0,1,1.96.9,1.207,1.207,0,0,0,.589.17,1.247,1.247,0,0,0,.7-0.25,16.381,16.381,0,0,1,6.862-2.78,0.471,0.471,0,0,0,.476-0.58,18.3,18.3,0,0,0-.14-2.38,0.32,0.32,0,0,0-.42-0.31c-1.793.11-3.893,0.25-5.938,0.25A34.977,34.977,0,0,1,284.733,2519.86Zm33.658,1.96c-3.361.2-6.974,0.42-8.682,0.56a17.943,17.943,0,0,1-3.417.11,19.591,19.591,0,0,0,.7,2.83,0.434,0.434,0,0,0,.476.39c0.252,0,.7-0.25,1.317-0.33,2.212-.31,6.161-0.65,9.69-0.84,0,0.92.028,1.87,0.028,2.86a3.38,3.38,0,0,0-2.128-.57,4.085,4.085,0,0,0-4.229,4.21c0,2.68,1.68,4.28,3.893,4.28a3.238,3.238,0,0,0,2.632-1.12c-0.5,2.35-2.464,4.71-5.741,6.16a6.383,6.383,0,0,1,2.128,1.12,1.543,1.543,0,0,0,.84.42,2.628,2.628,0,0,0,1.093-.53,10.463,10.463,0,0,0,4.985-9.05,8.746,8.746,0,0,0-.42-2.77c-0.028-1.71-.028-3.5-0.028-5.21,2.913-.03,5.629-0.03,8.542.06,0.336,0.03.476-.06,0.476-0.37,0.028-.7.028-1.42,0-2.12-0.028-.37-0.084-0.42-0.42-0.42-2.689,0-5.573.02-8.6,0.14,0.028-1.07.028-1.43,0.056-1.8a2.973,2.973,0,0,1,.224-0.81,1.181,1.181,0,0,0,.252-0.64,0.782,0.782,0,0,0-.784-0.54,29.969,29.969,0,0,0-3.277-.39,8.877,8.877,0,0,1,.336,2.05C318.363,2520.25,318.363,2520.95,318.391,2521.82Zm-1.792,7.2a1.675,1.675,0,0,1,1.848,1.79,1.8,1.8,0,0,1-1.9,1.93,1.734,1.734,0,0,1-1.793-1.9A1.783,1.783,0,0,1,316.6,2529.02Zm24.666-4.96c-1.428.45-3,.84-3.949,1.07a12.966,12.966,0,0,1-2.044.25,15.108,15.108,0,0,0,1.092,2.58,0.666,0.666,0,0,0,.56.44,2.451,2.451,0,0,0,.812-0.39,25.693,25.693,0,0,1,3.361-1.12c-0.028.67-.028,1.21-0.028,1.91-1.708,2.4-3.165,4.39-5.489,7.36a0.734,0.734,0,0,0-.252.48,0.453,0.453,0,0,0,.168.31,9.058,9.058,0,0,0,1.736,1.56,0.707,0.707,0,0,0,.336.14,0.4,0.4,0,0,0,.308-0.28c1.037-1.59,2.157-3.33,3.249-5.04-0.084,2.52-.084,5.46-0.084,8.01,0,0.34.112,0.48,0.392,0.48,0.729,0,1.821-.06,2.185-0.11a0.345,0.345,0,0,0,.392-0.4c0-3.05-.084-7.08-0.112-10.61,1.456-1.68,2.773-3,3.921-4.12,1.372-1.23,2.325-1.82,3.137-1.82,0.56,0,.868.62,0.868,1.85,0,1.21-.056,2.13-0.2,4.59-0.14,2.38-.224,3.95-0.224,4.71,0,2.91,1.176,4.28,3.585,4.28a6.747,6.747,0,0,0,5.377-3.22,0.79,0.79,0,0,0,.2-0.47,1.067,1.067,0,0,0-.308-0.65,6.848,6.848,0,0,1-1.036-2.1,7.5,7.5,0,0,1-1.681,2.36,3.683,3.683,0,0,1-2.072,1c-0.7,0-1.036-.19-1.036-1.59,0-.87.14-2.13,0.28-4.71,0.2-2.57.224-4.28,0.224-5.1,0-2.32-1.261-3.72-3.361-3.72-1.316,0-2.857.64-5.069,2.74-1.093,1.07-1.709,1.71-2.6,2.72v-0.14c0.448-.92.924-1.79,1.456-2.66a0.57,0.57,0,0,0,.14-0.31,0.482,0.482,0,0,0-.252-0.39,8.944,8.944,0,0,0-1.064-.62c0.056-1.28.084-1.87,0.14-2.8a3.393,3.393,0,0,1,.252-1.37,1.134,1.134,0,0,0,.2-0.53,0.576,0.576,0,0,0-.588-0.56,15.631,15.631,0,0,0-3.193-.53,10.234,10.234,0,0,1,.28,2.71v3.81Zm26.32-5.24a22.6,22.6,0,0,1-.5,4.18,53.392,53.392,0,0,0-.952,9.18,26.278,26.278,0,0,0,1.288,8.35,0.336,0.336,0,0,0,.364.31,14.138,14.138,0,0,0,2.3-.45,0.371,0.371,0,0,0,.364-0.36c0-.23-0.056-0.45-0.056-0.79a3.216,3.216,0,0,1,.084-0.87,27.869,27.869,0,0,1,1.6-4.23,0.763,0.763,0,0,0,.14-0.44,1.063,1.063,0,0,0-.2-0.42,7.381,7.381,0,0,1-.98-1.77c-0.812,1.96-1.316,2.89-1.9,4.18a27.211,27.211,0,0,1-.168-3.28,45.325,45.325,0,0,1,1.177-9.05,6.718,6.718,0,0,1,.672-1.99,1.56,1.56,0,0,0,.42-0.84,0.853,0.853,0,0,0-.644-0.67A12.392,12.392,0,0,0,367.585,2518.82Zm6.442,14.46a6.189,6.189,0,0,0,.98,3.64c1.2,1.65,3.137,2.32,7.282,2.32a36.489,36.489,0,0,0,4.565-.31c0.476-.05.476-0.08,0.476-0.42a20.6,20.6,0,0,0-.168-2.4c-0.056-.37-0.112-0.4-0.392-0.37a39.156,39.156,0,0,1-5.35.37c-3.052,0-4.4-.7-4.565-2.64,0-.31-0.056-0.45-0.28-0.42Zm0.9-7.96a34.723,34.723,0,0,1,6.357-.64c1.429,0,2.885.05,4.566,0.17a0.3,0.3,0,0,0,.364-0.34c0.056-.78.056-1.54,0.056-2.38,0-.28-0.056-0.34-0.644-0.36a40.523,40.523,0,0,0-4.145-.17,44.356,44.356,0,0,0-6.078.5,0.413,0.413,0,0,0-.392.48C374.951,2523.05,374.951,2523.75,374.923,2525.32Zm38.194,12.16-3.024.42v-3.11H412c2.521,0,3.417.05,3.585,0.05,0.28,0,.308-0.02.308-0.3,0-.17-0.056-0.79-0.056-2.24v-2.97c0-1.46.056-2.07,0.056-2.24,0-.28-0.028-0.31-0.308-0.31-0.168,0-1.064.05-3.585,0.05h-1.9v-2.6c1.372-.11,2.66-0.25,3.809-0.39,0.308,0.5.588,1.01,0.868,1.51a0.314,0.314,0,0,0,.252.25,0.77,0.77,0,0,0,.336-0.17l1.68-1c0.337-.23.309-0.31,0.168-0.56a40.094,40.094,0,0,0-4.453-5.38c-0.2-.2-0.28-0.2-0.56-0.03l-1.4.81c-0.308.17-.336,0.26-0.14,0.45a24.25,24.25,0,0,1,1.708,1.99c-1.736.14-3.809,0.31-5.881,0.39,0.616-1.06,1.26-2.29,1.708-3.22a2.22,2.22,0,0,1,.532-0.78,0.673,0.673,0,0,0,.28-0.51,0.512,0.512,0,0,0-.42-0.42,20.393,20.393,0,0,0-2.716-.5,7.5,7.5,0,0,1-.533,1.9,25.363,25.363,0,0,1-1.736,3.62c-0.7,0-1.484.02-2.213-.03,0.084,0.81.225,1.73,0.365,2.49a0.448,0.448,0,0,0,.392.45,0.8,0.8,0,0,0,.448-0.14,2.644,2.644,0,0,1,1.036-.23c1.2-.05,2.493-0.14,3.837-0.25v2.35h-1.624c-2.493,0-3.389-.05-3.585-0.05-0.28,0-.308.03-0.308,0.31,0,0.19.056,0.78,0.056,2.24v2.97c0,1.45-.056,2.04-0.056,2.24,0,0.28.028,0.3,0.308,0.3,0.2,0,1.092-.05,3.585-0.05h1.624v3.44c-1.288.17-2.521,0.28-3.529,0.34a27.52,27.52,0,0,1-3.249.06c0.168,0.92.336,1.87,0.588,2.74a0.5,0.5,0,0,0,.477.45,1.318,1.318,0,0,0,.5-0.14,4.312,4.312,0,0,1,1.176-.31c3.417-.42,7.31-0.98,10.923-1.65,0.308,0.64.56,1.29,0.812,1.93,0.112,0.28.224,0.31,0.56,0.2l1.6-.73c0.309-.14.337-0.23,0.253-0.48a25.808,25.808,0,0,0-3-5.26c-0.14-.26-0.2-0.31-0.5-0.17l-1.429.62c-0.336.14-.392,0.22-0.252,0.44Zm0.084-5.02h-3.108v-3.3H413.2v3.3Zm-8.6,0v-3.3h2.857v3.3H404.6Zm-9.242-2.77c0.14-1.01.28-2.1,0.392-3.28h2.465c1.288,0,1.764.06,1.932,0.06,0.308,0,.336-0.03.336-0.31,0-.17-0.056-0.92-0.056-2.52v-2.88c0-1.63.056-2.36,0.056-2.52,0-.31-0.028-0.34-0.336-0.34-0.168,0-.644.06-1.932,0.06h-3.081c-1.737,0-2.241-.06-2.409-0.06-0.308,0-.336.03-0.336,0.34v2.01c0,0.28.028,0.31,0.336,0.31,0.168,0,.672-0.05,2.409-0.05h2.689v3.52h-2.465c-1.036,0-1.68-.05-1.849-0.05a0.3,0.3,0,0,0-.364.36,11.838,11.838,0,0,1-.084,1.99,52.473,52.473,0,0,1-1.008,6.47c-0.084.39-.084,0.42,1.2,0.59,1.457,0.17,1.457.17,1.541-.17l0.2-1.04h2.689c-0.253,4.35-.7,6.17-1.093,6.67a1.564,1.564,0,0,1-1.26.42,15.588,15.588,0,0,1-2.465-.25,8.735,8.735,0,0,1,.644,2.07c0.169,0.87.169,0.87,0.757,0.92,0.5,0.03.98,0.03,1.344,0.03,2.073,0,3.053-.59,3.557-1.85,0.448-1.09.952-3.36,1.2-8.23,0.028-.62.056-1.4,0.112-1.96,0.028-.28-0.056-0.36-0.336-0.36-0.168,0-.5.05-1.792,0.05h-3Zm27.692-8.99a15.035,15.035,0,0,1,.336,3.67,50.749,50.749,0,0,0,.672,8.15c0.756,4.73,3.053,7.31,5.237,7.31,1.961,0,3.7-1.51,4.762-4.37a0.864,0.864,0,0,0-.2-1.04,10.558,10.558,0,0,1-1.793-2.15c-1.092,2.91-1.792,3.89-2.689,3.89-1.176,0-1.9-1.9-2.3-4.12a35.2,35.2,0,0,1-.5-6.38,12.634,12.634,0,0,1,.252-2.75,2.37,2.37,0,0,0,.224-0.78,0.646,0.646,0,0,0-.448-0.5A12.178,12.178,0,0,0,423.053,2520.7Zm14.34,3.98a18.893,18.893,0,0,1,5.237,9.77c0.056,0.34.252,0.42,0.588,0.31a9.3,9.3,0,0,0,2.185-1.12,0.492,0.492,0,0,0,.308-0.62,18.492,18.492,0,0,0-5.49-9.57,0.407,0.407,0,0,0-.308-0.17,0.758,0.758,0,0,0-.308.11C439.157,2523.61,438.457,2524.01,437.393,2524.68Zm16.824,10.19a4.035,4.035,0,1,0,4.061,4.04A4.047,4.047,0,0,0,454.217,2534.87Zm0,1.71a2.325,2.325,0,1,1-2.324,2.33A2.286,2.286,0,0,1,454.217,2536.58Z" transform="translate(-184.938 -2462.66)"/>
  <path id="_1" data-name="※1" class="cls-1" d="M457.987,2468.54l3.337,3.34,0.33-.33-3.348-3.33,3.348-3.33-0.33-.33-3.337,3.34-3.337-3.34-0.33.33,3.348,3.33-3.348,3.33,0.33,0.33Zm2.8-1.18a0.855,0.855,0,1,0,.865.86A0.86,0.86,0,0,0,460.789,2467.36Zm-5.6,0a0.855,0.855,0,1,0,.854.86A0.863,0.863,0,0,0,455.186,2467.36Zm2.8-2.8a0.855,0.855,0,1,0,.855.86A0.86,0.86,0,0,0,457.987,2464.56Zm0,5.6a0.86,0.86,0,1,0,.855.85A0.858,0.858,0,0,0,457.987,2470.16Zm7.91-3.2c0-.35,0-0.82.011-1.19,0-.13.01-0.53,0.01-0.69,0-.14-0.041-0.17-0.237-0.17a0.849,0.849,0,0,0-.443.1c-0.391.17-.989,0.41-1.38,0.55-0.134.06-.2,0.09-0.2,0.17a0.339,0.339,0,0,0,.041.15l0.042,0.1c0.061,0.13.092,0.18,0.164,0.18a0.486,0.486,0,0,0,.165-0.05c0.258-.12.608-0.28,0.937-0.4a0.612,0.612,0,0,1,.176-0.05c0.092,0,.113.07,0.113,0.24v3.92c0,0.27,0,.66-0.01,1.03-0.011.35-.021,0.73-0.021,0.82,0,0.18.051,0.21,0.247,0.21h0.165c0.2,0,.247-0.03.247-0.21,0-.08-0.01-0.48-0.02-0.83s-0.011-.75-0.011-1.02v-2.86Z" transform="translate(-184.938 -2462.66)"/>
  <path id="シェイプ_984" data-name="シェイプ 984" class="cls-2" d="M204.643,2496.77H457.578" transform="translate(-184.938 -2462.66)"/>
  <path id="シェイプ_984-2" data-name="シェイプ 984" class="cls-2" d="M187.945,2550.77h277.47" transform="translate(-184.938 -2462.66)"/>
</svg>
