<svg id="lead-product.svg" xmlns="http://www.w3.org/2000/svg" width="456.345" height="51.188" viewBox="0 0 456.345 51.188">
  <defs>
    <style>
      .cls-1, .cls-2 {
        fill-rule: evenodd;
      }

      .cls-2 {
        fill: #1147b4;
      }
    </style>
  </defs>
  <path id="何もつけていないような素肌感を保ちながら" class="cls-1" d="M776.172,134.75c0.629,0.014.909,0.028,0.964,0.028,0.14,0,.154-0.014.154-0.168v-1.087c0-.139-0.014-0.153-0.154-0.153-0.069,0-.545.028-1.886,0.028h-4.333c-1.341,0-1.817-.028-1.9-0.028-0.14,0-.154.014-0.154,0.153v1.087c0,0.154.014,0.168,0.154,0.168,0.083,0,.559-0.028,1.9-0.028h3.8v8.365c0,0.432-.14.516-0.615,0.516-0.531,0-.881,0-1.454-0.042a2.731,2.731,0,0,1,.35,1c0.07,0.446.083,0.432,0.531,0.432a3.945,3.945,0,0,0,2.208-.349,1.416,1.416,0,0,0,.461-1.3c0-.558-0.028-1.241-0.028-2.719V134.75Zm-2.711,3.262c0-.934.028-1.31,0.028-1.394,0-.139-0.014-0.153-0.154-0.153-0.1,0-.391.028-1.314,0.028h-1.537c-0.922,0-1.216-.028-1.314-0.028-0.139,0-.153.014-0.153,0.153,0,0.084.028,0.474,0.028,1.715v1.352c0,2.05-.028,2.426-0.028,2.524,0,0.125.014,0.139,0.153,0.139h1.035c0.139,0,.153-0.014.153-0.139v-1.018h1.789v0.585c0,0.14.014,0.154,0.154,0.154h1.034c0.14,0,.154-0.014.154-0.154,0-.083-0.028-0.446-0.028-2.37v-1.394Zm-1.314-.279v2.231h-1.789v-2.231h1.789Zm-5.926,5.131c0,1.408-.027,2.091-0.027,2.175,0,0.139.014,0.153,0.153,0.153h1.174c0.14,0,.154-0.014.154-0.153,0-.07-0.028-0.767-0.028-2.175v-7.11a18.459,18.459,0,0,0,.8-1.841,1.164,1.164,0,0,1,.307-0.571,0.316,0.316,0,0,0,.154-0.251,0.307,0.307,0,0,0-.224-0.237,9.537,9.537,0,0,0-1.355-.474,7.049,7.049,0,0,1-.252,1,12.374,12.374,0,0,1-2.7,4.545,3.735,3.735,0,0,1,.545,1.2,0.289,0.289,0,0,0,.181.25,0.369,0.369,0,0,0,.238-0.167c0.307-.376.615-0.753,0.894-1.143-0.014.488-.014,0.976-0.014,1.38v3.416Zm17.781-2.4c0.713,0.014,1.44.014,2.138-.042,0.14,0,.182-0.056.2-0.223a9.367,9.367,0,0,0,.07-1.046c0-.125-0.042-0.181-0.224-0.153-0.67.042-1.243,0.056-1.984,0.042,0.084-.558.223-1.506,0.307-1.994a13.923,13.923,0,0,0,1.859-.069c0.168-.014.224-0.056,0.224-0.21a6.474,6.474,0,0,0,.028-1.045,0.141,0.141,0,0,0-.14-0.168,7.953,7.953,0,0,1-1.719.084c0.07-.516.154-0.99,0.224-1.31a1.357,1.357,0,0,1,.251-0.6,0.407,0.407,0,0,0,.112-0.265,0.391,0.391,0,0,0-.308-0.32,8.3,8.3,0,0,0-1.677-.391,6.529,6.529,0,0,1,.014,1.171c-0.028.419-.07,0.8-0.181,1.6a11.385,11.385,0,0,1-2.53-.53c0,0.5.028,0.962,0.042,1.3a0.228,0.228,0,0,0,.224.237,9.768,9.768,0,0,0,2.012.391c-0.056.571-.168,1.478-0.238,1.993a8.767,8.767,0,0,1-2.264-.543,8.133,8.133,0,0,0,.028,1.3,0.24,0.24,0,0,0,.154.265,11.011,11.011,0,0,0,1.9.418c-0.056.628-.1,1.018-0.1,1.311,0,2.035,1.048,3.151,3.522,3.151,2.4,0,4.025-1.283,4.025-3.263a3.629,3.629,0,0,0-1.188-2.621,0.323,0.323,0,0,0-.294-0.055,4.475,4.475,0,0,1-1.425.083,3.356,3.356,0,0,1,1.258,2.538c0,1.254-.909,1.882-2.544,1.882-1.3,0-1.859-.5-1.859-1.785A8.553,8.553,0,0,1,784,140.466Zm8.315-3.667a8.065,8.065,0,0,0,.894,1.45,0.53,0.53,0,0,0,.406.293,0.668,0.668,0,0,0,.377-0.209,8.829,8.829,0,0,1,.964-0.5A13.673,13.673,0,0,1,800,136.4c1.551,0,2.4.809,2.4,2.119a3.042,3.042,0,0,1-1.928,2.775,13.178,13.178,0,0,1-3.788,1.031,2.593,2.593,0,0,1,.979,1.1c0.1,0.264.209,0.278,0.489,0.223a11.905,11.905,0,0,0,3.55-1.158,4.043,4.043,0,0,0,2.459-3.875c0-2.189-1.607-3.695-4.109-3.695a18.156,18.156,0,0,0-5.031,1.157A12.362,12.362,0,0,1,792.317,136.8Zm23.248,1.855a7.7,7.7,0,0,1-.433,3.109,4.538,4.538,0,0,1-2.362,2.314,4.624,4.624,0,0,1,1.09.683,0.291,0.291,0,0,0,.279.125,0.623,0.623,0,0,0,.35-0.125,4.911,4.911,0,0,0,2-2.161,7.264,7.264,0,0,0,.615-3.234l-0.014-2.147c0.643-.07,1.258-0.154,1.929-0.279a0.189,0.189,0,0,0,.181-0.251c-0.028-.363-0.055-0.7-0.111-1.046-0.014-.139-0.084-0.167-0.252-0.125-0.587.125-1.188,0.223-1.789,0.306v-1.547a1.7,1.7,0,0,1,.07-0.586,0.557,0.557,0,0,0,.1-0.279,0.238,0.238,0,0,0-.224-0.223,8.581,8.581,0,0,0-1.8-.195,4.338,4.338,0,0,1,.238,1.143c0.056,0.53.056,1.158,0.084,1.855-0.5.041-1.16,0.055-1.551,0.055-0.518,0-1.216-.014-1.733-0.069,0.07,0.613.1,0.99,0.153,1.268a0.263,0.263,0,0,0,.322.223c0.517,0.014.88,0.014,1.174,0,0.4,0,.936-0.027,1.677-0.083Zm-4.85,4.712a1.7,1.7,0,0,1,.042-0.363,10.538,10.538,0,0,1,.629-1.7,1.036,1.036,0,0,0,.168-0.46,0.42,0.42,0,0,0-.126-0.265,4,4,0,0,1-.461-0.934c-0.336.781-.587,1.255-0.937,1.994a11.91,11.91,0,0,1-.139-2.2,25.848,25.848,0,0,1,.531-4.182,7.934,7.934,0,0,1,.265-1.032,0.5,0.5,0,0,0,.084-0.279,0.421,0.421,0,0,0-.307-0.306,6.821,6.821,0,0,0-1.468-.488,15.179,15.179,0,0,1-.153,2.077,31.645,31.645,0,0,0-.42,4.461,11.9,11.9,0,0,0,.825,4.322,0.254,0.254,0,0,0,.321.181,3.444,3.444,0,0,0,.965-0.292,0.2,0.2,0,0,0,.181-0.2v-0.334Zm18.019-7.682a5.041,5.041,0,0,0-2.683,4.419c0,2.9,2.7,4.308,5.157,4.308,0.167,0,.223-0.083.265-0.292a4.946,4.946,0,0,0,.154-1.2c0-.154-0.084-0.209-0.307-0.209-2.432-.154-3.718-1.13-3.718-2.928,0-1.673,1.188-3.3,3.564-4.113a6.262,6.262,0,0,1,1.7-.307c0.181,0,.265-0.042.265-0.209a8.075,8.075,0,0,0-.153-1.227c-0.014-.1-0.084-0.181-0.294-0.153-3.606.474-6.68,0.934-8.4,1.185a19.446,19.446,0,0,1-2.222.237,9.634,9.634,0,0,0,.517,1.506,0.328,0.328,0,0,0,.265.209,0.817,0.817,0,0,0,.308-0.112c0.209-.069.349-0.1,0.88-0.223,1.5-.307,2.991-0.6,4.7-0.92v0.028Zm8.209-1.283a7.5,7.5,0,0,1,.167,1.827,25.183,25.183,0,0,0,.336,4.057c0.377,2.356,1.523,3.638,2.613,3.638,0.978,0,1.845-.752,2.376-2.174a0.426,0.426,0,0,0-.1-0.516,5.341,5.341,0,0,1-.894-1.074c-0.545,1.45-.895,1.938-1.342,1.938-0.587,0-.95-0.948-1.146-2.049a17.481,17.481,0,0,1-.251-3.179,6.249,6.249,0,0,1,.125-1.366,1.215,1.215,0,0,0,.112-0.391,0.33,0.33,0,0,0-.223-0.251A6.09,6.09,0,0,0,836.943,134.4Zm7.155,1.98a9.39,9.39,0,0,1,2.614,4.866c0.027,0.167.125,0.209,0.293,0.153a4.729,4.729,0,0,0,1.09-.558,0.243,0.243,0,0,0,.154-0.306,9.22,9.22,0,0,0-2.739-4.768,0.215,0.215,0,0,0-.154-0.084,0.415,0.415,0,0,0-.154.056C844.979,135.851,844.629,136.046,844.1,136.381Zm14.191,4.6a7.184,7.184,0,0,0-1.1-.084c-1.579,0-2.585.823-2.585,2.036s1.034,1.979,2.571,1.979c1.593,0,2.6-.641,2.6-2.035a10.347,10.347,0,0,1,1.705,1.171,0.219,0.219,0,0,0,.139.084,0.159,0.159,0,0,0,.126-0.1,8.493,8.493,0,0,0,.643-1.129,0.185,0.185,0,0,0-.084-0.293,10.967,10.967,0,0,0-2.515-1.3,18.126,18.126,0,0,1-.154-2.37,1.439,1.439,0,0,1,.056-0.571,1.758,1.758,0,0,0,.084-0.293,0.214,0.214,0,0,0-.2-0.223,7.541,7.541,0,0,0-1.523-.265,4.871,4.871,0,0,1,.112.99C858.178,139.239,858.205,140.09,858.289,140.982Zm0.028,1.324a1.606,1.606,0,0,1,.014.279,1.049,1.049,0,0,1-1.216.99c-0.8,0-1.188-.223-1.188-0.669a1.03,1.03,0,0,1,1.244-.809A3.578,3.578,0,0,1,858.317,142.306Zm-2.278-7.152c0.126-.418.238-0.85,0.336-1.185a1.537,1.537,0,0,1,.223-0.516,0.341,0.341,0,0,0,.126-0.265,0.239,0.239,0,0,0-.224-0.209,13.086,13.086,0,0,0-1.635-.293,5.377,5.377,0,0,1-.084,1.13c-0.1.5-.195,0.976-0.363,1.561-0.643.056-1.062,0.07-1.607,0.07-0.405,0-.727-0.014-1.3-0.056a7.257,7.257,0,0,0,.14,1.185c0.028,0.181.056,0.223,0.2,0.223,0.349,0.014.461,0.014,0.768,0.014,0.433,0,.867,0,1.4-0.028a28.13,28.13,0,0,1-2.418,4.866,0.266,0.266,0,0,0-.07.167,0.2,0.2,0,0,0,.1.154,6.743,6.743,0,0,0,.964.711,0.384,0.384,0,0,0,.168.069,0.2,0.2,0,0,0,.154-0.139,38.473,38.473,0,0,0,2.725-5.981c0.866-.125,1.551-0.223,2.306-0.376a0.148,0.148,0,0,0,.168-0.168,7.545,7.545,0,0,0-.126-1.129c-0.028-.153-0.084-0.153-0.21-0.112A14.992,14.992,0,0,1,856.039,135.154Zm3.1,1.325A12.1,12.1,0,0,1,862.035,138a0.2,0.2,0,0,0,.126.056,0.159,0.159,0,0,0,.125-0.1,8.319,8.319,0,0,0,.587-1.031,0.334,0.334,0,0,0,.056-0.168,0.208,0.208,0,0,0-.126-0.153,10.885,10.885,0,0,0-2.739-1.31,0.2,0.2,0,0,0-.293.1C859.589,135.642,859.379,136.06,859.142,136.479Zm7.525-2.078a7.451,7.451,0,0,1,.168,1.827,25.3,25.3,0,0,0,.335,4.057c0.377,2.356,1.523,3.638,2.614,3.638,0.978,0,1.844-.752,2.375-2.174a0.427,0.427,0,0,0-.1-0.516,5.341,5.341,0,0,1-.895-1.074c-0.545,1.45-.894,1.938-1.342,1.938-0.586,0-.95-0.948-1.146-2.049a17.572,17.572,0,0,1-.251-3.179,6.23,6.23,0,0,1,.126-1.366,1.215,1.215,0,0,0,.112-0.391,0.33,0.33,0,0,0-.224-0.251A6.073,6.073,0,0,0,866.667,134.4Zm7.155,1.98a9.383,9.383,0,0,1,2.614,4.866c0.028,0.167.126,0.209,0.293,0.153a4.735,4.735,0,0,0,1.091-.558,0.243,0.243,0,0,0,.153-0.306,9.206,9.206,0,0,0-2.739-4.768,0.215,0.215,0,0,0-.154-0.084,0.405,0.405,0,0,0-.153.056C874.7,135.851,874.354,136.046,873.822,136.381Zm13.114-.209c0-.725,0-1.338.028-1.757a1.734,1.734,0,0,1,.167-0.753,0.41,0.41,0,0,0,.07-0.209,0.249,0.249,0,0,0-.223-0.237,12.945,12.945,0,0,0-1.789-.251,4.121,4.121,0,0,1,.2,1.269c0.014,0.711.028,1.422,0.042,1.924,0.028,1.324.07,2.649,0.238,4.475a9.733,9.733,0,0,0-1.174-.042c-1.733,0-3.061.879-3.061,2.134,0,1.282,1.258,2.049,2.977,2.049,1.873,0,2.767-.892,2.823-2.091a2.686,2.686,0,0,0,.014-0.321,13.08,13.08,0,0,1,3.1,1.757c0.112,0.083.153,0.041,0.237-.042a6.262,6.262,0,0,0,.741-1.171,0.152,0.152,0,0,0-.056-0.237,16.442,16.442,0,0,0-4.053-1.8c-0.14-1.324-.209-2.091-0.237-3.22a20.918,20.918,0,0,0,3.535-.628c0.084-.028.14-0.055,0.112-0.209a9.809,9.809,0,0,0-.335-1.185,0.117,0.117,0,0,0-.168-0.083A13.632,13.632,0,0,1,886.936,136.172Zm-1.23,6.009a1.238,1.238,0,0,1-1.468,1.2c-0.88,0-1.439-.237-1.439-0.711,0-.5.629-0.823,1.607-0.823a6.522,6.522,0,0,1,1.286.14Zm11.9-9.634a6.615,6.615,0,0,0-.419,1.311,0.2,0.2,0,0,0,.1.278,18.472,18.472,0,0,0,4.053,1.074c0.112,0.014.154-.056,0.2-0.2a11.458,11.458,0,0,0,.307-1.227,0.2,0.2,0,0,0-.182-0.251A17.578,17.578,0,0,1,897.61,132.547Zm-2.711,4.6a9.664,9.664,0,0,0,.713,1.464,0.549,0.549,0,0,0,.391.306,0.509,0.509,0,0,0,.308-0.139,6.6,6.6,0,0,1,1.188-.669,4.678,4.678,0,0,1,2.194-.6c0.81,0,1.3.6,1.3,1.757a4.082,4.082,0,0,1-.768,2.468,7.6,7.6,0,0,1-3.075,2.328,3.442,3.442,0,0,1,1.16.739,0.456,0.456,0,0,0,.336.181,0.632,0.632,0,0,0,.237-0.07,7.876,7.876,0,0,0,2.7-2.216,5.457,5.457,0,0,0,1.132-3.332c0-2.05-1.076-3.319-2.948-3.319a10.032,10.032,0,0,0-3.2.7A7.29,7.29,0,0,1,894.9,137.148Zm18.587,3.834a7.2,7.2,0,0,0-1.1-.084c-1.58,0-2.586.823-2.586,2.036s1.034,1.979,2.572,1.979c1.593,0,2.6-.641,2.6-2.035a10.347,10.347,0,0,1,1.705,1.171,0.218,0.218,0,0,0,.14.084,0.159,0.159,0,0,0,.126-0.1,8.6,8.6,0,0,0,.642-1.129,0.185,0.185,0,0,0-.083-0.293,11,11,0,0,0-2.516-1.3,18.126,18.126,0,0,1-.154-2.37,1.439,1.439,0,0,1,.056-0.571,1.758,1.758,0,0,0,.084-0.293,0.214,0.214,0,0,0-.2-0.223,7.541,7.541,0,0,0-1.523-.265,4.871,4.871,0,0,1,.112.99C913.374,139.239,913.4,140.09,913.486,140.982Zm0.028,1.324a1.606,1.606,0,0,1,.014.279,1.049,1.049,0,0,1-1.216.99c-0.8,0-1.188-.223-1.188-0.669a1.03,1.03,0,0,1,1.244-.809A3.588,3.588,0,0,1,913.514,142.306Zm-2.278-7.152c0.125-.418.237-0.85,0.335-1.185a1.533,1.533,0,0,1,.224-0.516,0.344,0.344,0,0,0,.125-0.265,0.238,0.238,0,0,0-.223-0.209,13.12,13.12,0,0,0-1.635-.293,5.377,5.377,0,0,1-.084,1.13c-0.1.5-.2,0.976-0.364,1.561-0.643.056-1.062,0.07-1.607,0.07-0.4,0-.727-0.014-1.3-0.056a7.257,7.257,0,0,0,.14,1.185c0.028,0.181.056,0.223,0.2,0.223,0.349,0.014.461,0.014,0.768,0.014,0.434,0,.867,0,1.4-0.028a28.13,28.13,0,0,1-2.418,4.866,0.266,0.266,0,0,0-.07.167,0.2,0.2,0,0,0,.1.154,6.7,6.7,0,0,0,.965.711,0.376,0.376,0,0,0,.167.069,0.2,0.2,0,0,0,.154-0.139,38.473,38.473,0,0,0,2.725-5.981c0.867-.125,1.552-0.223,2.306-0.376a0.148,0.148,0,0,0,.168-0.168,7.545,7.545,0,0,0-.126-1.129c-0.028-.153-0.084-0.153-0.21-0.112A14.976,14.976,0,0,1,911.236,135.154Zm3.1,1.325A12.1,12.1,0,0,1,917.231,138a0.2,0.2,0,0,0,.126.056,0.159,0.159,0,0,0,.126-0.1,8.583,8.583,0,0,0,.587-1.031,0.341,0.341,0,0,0,.055-0.168A0.207,0.207,0,0,0,918,136.6a10.907,10.907,0,0,0-2.74-1.31,0.2,0.2,0,0,0-.293.1C914.785,135.642,914.576,136.06,914.338,136.479Zm16.064,3.527c-0.167.1-.209,0.139-0.083,0.265l0.517,0.5c-0.839.069-1.789,0.139-2.767,0.181a15.45,15.45,0,0,0,1.5-1.213,1.051,1.051,0,0,1,.447-0.279,0.2,0.2,0,0,0,.042-0.39,9.506,9.506,0,0,0-1.174-.642,2.605,2.605,0,0,1-.517.7,16.493,16.493,0,0,1-1.733,1.547c-0.265-.209-0.531-0.4-0.8-0.6,0.364-.279.7-0.572,0.979-0.823a1.245,1.245,0,0,1,.433-0.307,0.219,0.219,0,0,0,.168-0.181,0.216,0.216,0,0,0-.168-0.195c-0.182-.1-0.4-0.195-0.643-0.307h5c1.244,0,1.677.028,1.761,0.028,0.14,0,.154-0.014.154-0.153v-0.851c0-.153-0.014-0.167-0.154-0.167-0.084,0-.517.028-1.761,0.028h-3.689v-0.683H929.9c1.342,0,1.817.028,1.9,0.028,0.154,0,.168-0.014.168-0.154v-0.781c0-.139-0.014-0.153-0.168-0.153-0.084,0-.559.028-1.9,0.028h-1.984v-0.669h2.711c1.342,0,1.8.028,1.887,0.028,0.14,0,.154-0.014.154-0.154v-0.864c0-.139-0.014-0.153-0.154-0.153-0.084,0-.545.027-1.887,0.027h-2.711a1.823,1.823,0,0,1,.084-0.766,0.752,0.752,0,0,0,.07-0.293,0.2,0.2,0,0,0-.21-0.14c-0.489-.055-0.978-0.083-1.481-0.1a5.879,5.879,0,0,1,.1,1.3h-2.459c-1.342,0-1.789-.027-1.873-0.027-0.14,0-.154.014-0.154,0.153v0.864c0,0.14.014,0.154,0.154,0.154,0.084,0,.531-0.028,1.873-0.028h2.459v0.669H924.8c-1.341,0-1.817-.028-1.9-0.028-0.154,0-.168.014-0.168,0.153v0.781c0,0.14.014,0.154,0.168,0.154,0.083,0,.559-0.028,1.9-0.028h1.677v0.683h-3.41c-1.244,0-1.677-.028-1.761-0.028-0.139,0-.153.014-0.153,0.167v0.851c0,0.139.014,0.153,0.153,0.153,0.084,0,.517-0.028,1.761-0.028h2.823a2.051,2.051,0,0,1-.279.391,6.72,6.72,0,0,1-.8.738l-0.866-.5a0.19,0.19,0,0,0-.28.027l-0.7.544a0.232,0.232,0,0,0-.111.14,0.131,0.131,0,0,0,.1.1,14.658,14.658,0,0,1,2.194,1.38c-0.839.028-1.677,0.042-2.488,0.056-0.433,0-.88-0.014-1.467-0.056a10.524,10.524,0,0,0,.265,1.241,0.221,0.221,0,0,0,.21.195,0.467,0.467,0,0,0,.223-0.069,1.416,1.416,0,0,1,.531-0.084c1.272-.042,2.67-0.112,4.067-0.181V143.7c0,0.879-.028,1.269-0.028,1.353,0,0.139.014,0.153,0.154,0.153H927.8c0.14,0,.154-0.014.154-0.153,0-.07-0.028-0.474-0.028-1.353v-1.617c1.327-.083,2.627-0.181,3.759-0.293,0.2,0.279.392,0.558,0.573,0.851,0.07,0.125.1,0.125,0.28,0.014l0.8-.46c0.154-.1.168-0.14,0.084-0.265a14.185,14.185,0,0,0-2.068-2.273c-0.112-.111-0.14-0.111-0.294-0.028Zm-1.341,2.872c-0.14.1-.168,0.125-0.056,0.223a9.684,9.684,0,0,0,2.809,1.9,1.25,1.25,0,0,0,.321.1,0.465,0.465,0,0,0,.336-0.321,3.568,3.568,0,0,1,.7-0.795,8.4,8.4,0,0,1-3.075-1.617c-0.112-.1-0.126-0.084-0.293.028Zm-4.71-.544a3.145,3.145,0,0,1-.559.572,8.876,8.876,0,0,1-2.418,1.185,3.245,3.245,0,0,1,.657.711,0.48,0.48,0,0,0,.322.307,1.124,1.124,0,0,0,.335-0.112,8.87,8.87,0,0,0,2.222-1.338,1.84,1.84,0,0,1,.461-0.307,0.227,0.227,0,0,0,.2-0.167,0.239,0.239,0,0,0-.14-0.21A9.925,9.925,0,0,0,924.351,142.334Zm19.98-7.961h1.635v9.313a1.091,1.091,0,0,0,.377,1.018,2.457,2.457,0,0,0,1.188.195,1.64,1.64,0,0,0,1.37-.4c0.237-.279.377-0.725,0.433-2.328,0.014-.363.042-0.4-0.308-0.5a2.736,2.736,0,0,1-.824-0.363,5.573,5.573,0,0,1-.182,2.106,0.349,0.349,0,0,1-.307.1,0.327,0.327,0,0,1-.266-0.083,0.619,0.619,0,0,1-.056-0.405v-7.445c0-1.547.028-2.328,0.028-2.425,0-.14-0.014-0.154-0.154-0.154-0.1,0-.4.028-1.369,0.028h-1.524c-0.95,0-1.229-.028-1.327-0.028-0.14,0-.154.014-0.154,0.154,0,0.069.014,0.585,0.014,1.575,0,1.464.014,2.314-.028,3.221-0.126,2.955-.447,4.6-1.328,5.757a1.045,1.045,0,0,0,.014-0.209c0-.571-0.014-1.282-0.014-1.924v-6.19c0-1.464.028-2.23,0.028-2.314,0-.14-0.014-0.153-0.153-0.153-0.1,0-.378.027-1.244,0.027h-1.37c-0.88,0-1.16-.027-1.244-0.027-0.153,0-.167.013-0.167,0.153,0,0.1.028,0.85,0.028,2.314v2.287c0,3.764-.308,5.186-1.146,6.524a2.868,2.868,0,0,1,.81.7,0.512,0.512,0,0,0,.266.237,0.4,0.4,0,0,0,.237-0.278,10,10,0,0,0,1.048-4.071h1.58v2.3a0.407,0.407,0,0,1-.448.5,6.6,6.6,0,0,1-.88-0.056,3.258,3.258,0,0,1,.335.99c0.084,0.446.084,0.446,0.518,0.432a1.938,1.938,0,0,0,1.369-.376,1.107,1.107,0,0,0,.28-0.377,4.5,4.5,0,0,1,.726.586,0.658,0.658,0,0,0,.294.237,0.446,0.446,0,0,0,.251-0.251,7.778,7.778,0,0,0,1.314-3.3,31.18,31.18,0,0,0,.35-5.786v-1.3Zm-5.605,5.117c0.014-.544.028-1.143,0.028-1.812v-0.223h1.468v2.035h-1.5Zm1.5-5.228v1.91h-1.468v-1.91h1.468Zm21.181-1.436a0.168,0.168,0,0,0-.112.139,0.148,0.148,0,0,0,.07.126,9.577,9.577,0,0,1,.643.725h-1.342a4.29,4.29,0,0,1,.014-0.92,0.666,0.666,0,0,0,.07-0.251,0.183,0.183,0,0,0-.209-0.154c-0.406-.042-0.923-0.083-1.412-0.1,0.084,0.4.112,0.92,0.168,1.422h-4.179c-1.342,0-1.8-.028-1.887-0.028-0.153,0-.167.014-0.167,0.139,0,0.084.028,0.544,0.028,1.52a12.8,12.8,0,0,1-.266,2.97,5.375,5.375,0,0,1-1.006,2.216,3.469,3.469,0,0,1,.894.6,0.7,0.7,0,0,0,.294.209,0.408,0.408,0,0,0,.251-0.279,7.681,7.681,0,0,0,.937-2.44,16.789,16.789,0,0,0,.251-2.8v-0.934h4.976a13.273,13.273,0,0,0,.992,3.848,7.222,7.222,0,0,1-1.538,1.241c0-.126-0.014-0.349-0.014-0.767v-0.92c0-.586.028-0.809,0.028-0.893,0-.139-0.014-0.153-0.153-0.153-0.1,0-.364.028-1.188,0.028h-1.314c-0.824,0-1.09-.028-1.188-0.028-0.14,0-.154.014-0.154,0.153,0,0.1.028,0.307,0.028,0.893v0.92c0,0.585-.028.794-0.028,0.892,0,0.139.014,0.153,0.154,0.153,0.1,0,.364-0.027,1.188-0.027h1.314c0.824,0,1.09.027,1.188,0.027s0.139,0,.153-0.069a4.549,4.549,0,0,1,.462.446,0.558,0.558,0,0,0,.307.265,0.88,0.88,0,0,0,.336-0.182,8.485,8.485,0,0,0,1.062-.92,2.672,2.672,0,0,0,1.97,1.283c0.8,0,1.258-.516,1.607-1.687a1.253,1.253,0,0,0,.07-0.307c0-.139-0.1-0.195-0.363-0.32a2.889,2.889,0,0,1-.7-0.46c-0.168.948-.307,1.338-0.657,1.338a1.694,1.694,0,0,1-1.034-.878,12.3,12.3,0,0,0,1.23-2.078,1.748,1.748,0,0,1,.279-0.418,0.307,0.307,0,0,0,.126-0.209,0.266,0.266,0,0,0-.167-0.195,7.926,7.926,0,0,0-1.132-.432,6.471,6.471,0,0,1-.266.864,8.986,8.986,0,0,1-.671,1.227,11.6,11.6,0,0,1-.587-2.635h1.37c1.327,0,1.789.028,1.873,0.028,0.139,0,.153-0.014.153-0.154v-0.934c0-.125-0.014-0.139-0.153-0.139-0.07,0-.378.028-1.188,0.028l0.321-.209c0.126-.1.168-0.14,0.07-0.265a6.057,6.057,0,0,0-.867-0.906,0.2,0.2,0,0,0-.293-0.014Zm-3.69,6.525H956.05v-1.018h1.663v1.018Zm-1.034,2.816a1.16,1.16,0,0,1,.084-0.5,0.446,0.446,0,0,0,.07-0.237q0-.084-0.252-0.126a10.986,10.986,0,0,0-1.383-.083,5.459,5.459,0,0,1,.07,1.059v1.227a1.176,1.176,0,0,0,.517,1.213,11,11,0,0,0,5.157-.056,1.665,1.665,0,0,0,.769-1.366c0.041-.376.041-0.376-0.322-0.488a3.509,3.509,0,0,1-1.006-.418,1.383,1.383,0,0,1-.364,1.2,3.865,3.865,0,0,1-1.705.153,4.556,4.556,0,0,1-1.411-.125,0.574,0.574,0,0,1-.224-0.558v-0.892Zm-0.433-6.525c-0.825,0-1.16-.028-1.244-0.028-0.14,0-.153.014-0.153,0.168v0.808c0,0.14.013,0.154,0.153,0.154,0.084,0,.419-0.028,1.244-0.028h1.426c0.838,0,1.174.028,1.257,0.028,0.126,0,.14-0.014.14-0.154v-0.808c0-.154-0.014-0.168-0.14-0.168-0.083,0-.419.028-1.257,0.028h-1.426Zm5.478,6.107c-0.167.1-.181,0.139-0.069,0.251a8.546,8.546,0,0,1,1.5,2.411c0.056,0.14.1,0.126,0.28,0.014l0.866-.529c0.182-.112.182-0.14,0.112-0.279a10.944,10.944,0,0,0-1.649-2.328,0.2,0.2,0,0,0-.126-0.084,0.468,0.468,0,0,0-.168.07Zm-8.706,2.886c0.153,0.083.195,0.083,0.279-.028a10.359,10.359,0,0,0,1.426-2.51c0.042-.139.028-0.167-0.154-0.251l-0.825-.362c-0.2-.084-0.223-0.084-0.279.069a8.073,8.073,0,0,1-1.412,2.329c-0.083.111-.083,0.167,0.084,0.265Zm4.514-3.472c-0.168.126-.168,0.139-0.056,0.251a9.454,9.454,0,0,1,1.216,1.45,0.144,0.144,0,0,0,.112.1,0.326,0.326,0,0,0,.181-0.1l0.727-.558c0.14-.1.126-0.125,0.042-0.223a7.673,7.673,0,0,0-1.314-1.38c-0.112-.084-0.154-0.084-0.293.014Zm16.944-1.324c1.188-.488,2.1-0.795,3-1.116a4.531,4.531,0,0,1,.852-0.209,0.2,0.2,0,0,0,.21-0.2,0.551,0.551,0,0,0-.112-0.307,8.617,8.617,0,0,0-.978-1.227,4.2,4.2,0,0,1-1.062.753c-0.713.363-1.51,0.725-2.055,0.976a1.542,1.542,0,0,0-1.705-1.506,2.784,2.784,0,0,0-1.4.433l-0.014-.028a14.51,14.51,0,0,0,1.048-1.548c1.02-.111,2.222-0.265,3.27-0.418,0.2-.028.252-0.084,0.238-0.223a4.689,4.689,0,0,0-.14-1c-0.028-.125-0.07-0.167-0.224-0.139a22.655,22.655,0,0,1-2.543.432c0.167-.377.237-0.558,0.321-0.753a1.1,1.1,0,0,1,.238-0.335,0.267,0.267,0,0,0,.1-0.209,0.251,0.251,0,0,0-.168-0.237,8.84,8.84,0,0,0-1.593-.39,3.379,3.379,0,0,1-.1.85,10.9,10.9,0,0,1-.419,1.2,30.786,30.786,0,0,1-3.215.014c0.042,0.419.1,0.934,0.14,1.157,0.028,0.154.07,0.223,0.2,0.223,0.824,0,1.579-.013,2.236-0.041a14.268,14.268,0,0,1-2.921,3.457,0.2,0.2,0,0,0-.1.154,0.228,0.228,0,0,0,.056.125,6.674,6.674,0,0,0,.8.92,0.279,0.279,0,0,0,.154.1,0.25,0.25,0,0,0,.168-0.126,18.779,18.779,0,0,1,1.4-1.519,3.377,3.377,0,0,1,1.929-1c0.629-.028.8,0.251,0.839,0.962-2.111,1.087-2.949,2.063-2.949,3.4,0,1.617,1.216,2.3,3.508,2.3a24.981,24.981,0,0,0,3.466-.181c0.111,0,.167-0.1.153-0.265a6.289,6.289,0,0,0-.125-1.143,0.149,0.149,0,0,0-.2-0.154,23.847,23.847,0,0,1-3.48.279c-1.467,0-1.943-.376-1.943-0.962,0-.669.448-1.213,1.691-1.854-0.014.5-.014,1.2-0.014,1.7a0.183,0.183,0,0,0,.182.223,7.537,7.537,0,0,0,.992-0.07,0.245,0.245,0,0,0,.266-0.251v-2.244Zm13.59,0.278a8.174,8.174,0,0,1-3.535,3.068,3.988,3.988,0,0,1,.656.878,0.486,0.486,0,0,0,.266.321,0.888,0.888,0,0,0,.335-0.168,8.669,8.669,0,0,0,3.131-3.332c-0.014,1.771-.084,3.667-0.084,4.127,0,0.139.014,0.153,0.154,0.153h1.146c0.14,0,.154-0.014.154-0.153,0-.474-0.084-2.454-0.084-4.2a8.932,8.932,0,0,0,3.172,3.36,0.775,0.775,0,0,0,.322.154,0.373,0.373,0,0,0,.209-0.307,3.678,3.678,0,0,1,.559-1.059,8.052,8.052,0,0,1-3.48-2.845h1.16c1.37,0,1.845.028,1.929,0.028,0.126,0,.14-0.014.14-0.153V138.96c0-.139-0.014-0.153-0.14-0.153-0.084,0-.559.028-1.929,0.028h-1.886v-1.269h0.908c1.258,0,1.677.028,1.775,0.028,0.14,0,.154-0.014.154-0.153,0-.084-0.028-0.433-0.028-1.227v-1.771c0-.8.028-1.143,0.028-1.227,0-.139-0.014-0.153-0.154-0.153-0.1,0-.517.028-1.775,0.028h-3.1c-1.257,0-1.691-.028-1.788-0.028-0.14,0-.154.014-0.154,0.153,0,0.1.028,0.432,0.028,1.227v1.771c0,0.794-.028,1.129-0.028,1.227,0,0.139.014,0.153,0.154,0.153,0.1,0,.531-0.028,1.788-0.028h0.8v1.269h-1.747c-1.383,0-1.859-.028-1.942-0.028-0.14,0-.154.014-0.154,0.153v1.032c0,0.139.014,0.153,0.154,0.153,0.083,0,.559-0.028,1.942-0.028h0.95Zm3.564-3.764h-4.067v-1.994h4.067v1.994Zm-8.707,6.595c0,1.352-.028,2.021-0.028,2.1,0,0.139.014,0.153,0.14,0.153h1.174c0.14,0,.154-0.014.154-0.153,0-.07-0.028-0.753-0.028-2.1v-7.166a18.785,18.785,0,0,0,.852-1.952,1.161,1.161,0,0,1,.294-0.572,0.277,0.277,0,0,0,.154-0.237,0.251,0.251,0,0,0-.224-0.209,11,11,0,0,0-1.356-.418,4.579,4.579,0,0,1-.223.99,12.184,12.184,0,0,1-2.544,4.419,4.68,4.68,0,0,1,.489,1.2,0.284,0.284,0,0,0,.168.251,0.441,0.441,0,0,0,.224-0.181c0.265-.335.531-0.669,0.782-1.018-0.014.6-.028,1.241-0.028,1.757v3.137Zm17.127-7.557c-1.077.084-1.943,0.126-3.033,0.126,0.056,0.46.153,1.045,0.195,1.213a0.239,0.239,0,0,0,.266.2c0.713,0,1.593-.07,2.348-0.126-0.238,1.394-.433,2.426-0.741,3.653-0.056.209-.112,0.418-0.182,0.655a0.95,0.95,0,0,0-.056.279c0,0.126.084,0.181,0.308,0.279a3.969,3.969,0,0,0,1.045.307c0.13,0.014.17-.042,0.27-0.209,0.12-.182.26-0.349,0.39-0.53a4.655,4.655,0,0,1,3.68-1.729,1.374,1.374,0,0,1,1.59,1.324,2.121,2.121,0,0,1-1.59,1.966,10.967,10.967,0,0,1-4.02.767,2.552,2.552,0,0,1,.76.99,0.389,0.389,0,0,0,.35.334,6.409,6.409,0,0,0,1.03-.1,9.341,9.341,0,0,0,3.57-1.115,3.134,3.134,0,0,0,1.59-2.817,2.837,2.837,0,0,0-3.12-2.635,6.058,6.058,0,0,0-4.01,1.478c0.25-.976.45-1.91,0.65-3.067,1.17-.153,1.92-0.307,3.13-0.572a0.178,0.178,0,0,0,.16-0.223,7.006,7.006,0,0,0-.09-1.031c-0.03-.182-0.1-0.2-0.3-0.14a25.6,25.6,0,0,1-2.63.516c0.07-.488.13-0.767,0.2-1.143a1.44,1.44,0,0,1,.24-0.516,0.479,0.479,0,0,0,.1-0.223,0.313,0.313,0,0,0-.28-0.251,9.251,9.251,0,0,0-1.68-.293,4.817,4.817,0,0,1,.03,1.353C1000.18,134.443,1000.12,134.9,1000.05,135.391Zm17.99,5.591a7.214,7.214,0,0,0-1.1-.084c-1.58,0-2.59.823-2.59,2.036s1.03,1.979,2.57,1.979c1.59,0,2.6-.641,2.6-2.035a10.72,10.72,0,0,1,1.71,1.171,0.191,0.191,0,0,0,.14.084,0.152,0.152,0,0,0,.12-0.1,8.379,8.379,0,0,0,.64-1.129,0.184,0.184,0,0,0-.08-0.293,10.842,10.842,0,0,0-2.52-1.3,18.438,18.438,0,0,1-.15-2.37,1.433,1.433,0,0,1,.06-0.571,2.347,2.347,0,0,0,.08-0.293,0.214,0.214,0,0,0-.19-0.223,7.62,7.62,0,0,0-1.53-.265,4.25,4.25,0,0,1,.11.99C1017.93,139.239,1017.96,140.09,1018.04,140.982Zm0.03,1.324a2.242,2.242,0,0,1,.01.279,1.046,1.046,0,0,1-1.21.99c-0.8,0-1.19-.223-1.19-0.669a1.025,1.025,0,0,1,1.24-.809A3.651,3.651,0,0,1,1018.07,142.306Zm-2.28-7.152c0.13-.418.24-0.85,0.33-1.185a1.514,1.514,0,0,1,.23-0.516,0.348,0.348,0,0,0,.12-0.265,0.234,0.234,0,0,0-.22-0.209,12.926,12.926,0,0,0-1.63-.293,5.026,5.026,0,0,1-.09,1.13c-0.1.5-.19,0.976-0.36,1.561-0.64.056-1.06,0.07-1.61,0.07-0.4,0-.73-0.014-1.3-0.056a7.486,7.486,0,0,0,.14,1.185c0.03,0.181.06,0.223,0.2,0.223,0.35,0.014.46,0.014,0.77,0.014,0.43,0,.86,0,1.39-0.028a28.727,28.727,0,0,1-2.41,4.866,0.244,0.244,0,0,0-.07.167,0.183,0.183,0,0,0,.09.154,6.987,6.987,0,0,0,.97.711,0.356,0.356,0,0,0,.17.069,0.212,0.212,0,0,0,.15-0.139,37.755,37.755,0,0,0,2.72-5.981c0.87-.125,1.56-0.223,2.31-0.376a0.151,0.151,0,0,0,.17-0.168,8.425,8.425,0,0,0-.13-1.129c-0.03-.153-0.08-0.153-0.21-0.112A14.943,14.943,0,0,1,1015.79,135.154Zm3.1,1.325a12.024,12.024,0,0,1,2.89,1.519,0.216,0.216,0,0,0,.13.056,0.178,0.178,0,0,0,.13-0.1,9.256,9.256,0,0,0,.58-1.031,0.28,0.28,0,0,0,.06-0.168,0.2,0.2,0,0,0-.13-0.153,10.81,10.81,0,0,0-2.74-1.31,0.191,0.191,0,0,0-.29.1C1019.34,135.642,1019.13,136.06,1018.89,136.479Zm16-2.44a7.056,7.056,0,0,1,1.41,1.617,0.148,0.148,0,0,0,.24.042l0.58-.432a0.137,0.137,0,0,0,.04-0.223,6.427,6.427,0,0,0-1.32-1.492c-0.09-.07-0.14-0.084-0.21-0.028Zm1.28-.92a6.508,6.508,0,0,1,1.4,1.6,0.147,0.147,0,0,0,.24.042l0.56-.432a0.165,0.165,0,0,0,.04-0.251,5.824,5.824,0,0,0-1.33-1.436,0.143,0.143,0,0,0-.21-0.028Zm-6.87,3.178c-0.55.084-1.07,0.154-1.65,0.21-0.62.055-1.23,0.1-1.85,0.1a12.893,12.893,0,0,0,.44,1.436,0.3,0.3,0,0,0,.44.181,4.257,4.257,0,0,1,.77-0.223c0.38-.069.83-0.153,1.37-0.237a29.035,29.035,0,0,1-2.56,5.465,0.262,0.262,0,0,0-.05.154,0.285,0.285,0,0,0,.11.209,6.493,6.493,0,0,0,.96.613,0.236,0.236,0,0,0,.37-0.125,39.08,39.08,0,0,0,2.81-6.553,9.029,9.029,0,0,1,1.17-.1c0.62,0,.8.306,0.8,1.282a10.554,10.554,0,0,1-.55,3.472,0.856,0.856,0,0,1-.89.739,3.72,3.72,0,0,1-1.61-.363,4.087,4.087,0,0,1,.27,1.3,0.368,0.368,0,0,0,.25.39,3.659,3.659,0,0,0,1.45.209,2.009,2.009,0,0,0,1.89-1.31,11.966,11.966,0,0,0,.75-4.364c0-1.785-.7-2.691-2-2.691a10.438,10.438,0,0,0-1.11.056c0.18-.586.32-1.1,0.5-1.673a1.762,1.762,0,0,1,.28-0.53,0.291,0.291,0,0,0,.1-0.209,0.3,0.3,0,0,0-.23-0.279,10.451,10.451,0,0,0-1.67-.46,9.461,9.461,0,0,1-.14,1.548C1029.62,135.015,1029.52,135.5,1029.3,136.3Zm4.82-.111a9.516,9.516,0,0,1,2.29,3.611,0.2,0.2,0,0,0,.32.111,5.765,5.765,0,0,0,1.05-.7,0.2,0.2,0,0,0,.06-0.279,9.368,9.368,0,0,0-2.32-3.387,0.2,0.2,0,0,0-.27-0.07A11.541,11.541,0,0,0,1034.12,136.186Zm9.08-2.356a11.049,11.049,0,0,1,2.83,1.812,0.235,0.235,0,0,0,.17.1,0.26,0.26,0,0,0,.15-0.112,8.564,8.564,0,0,0,.71-0.976,0.407,0.407,0,0,0,.07-0.167,0.2,0.2,0,0,0-.1-0.153,9.066,9.066,0,0,0-2.73-1.659,0.238,0.238,0,0,0-.27.069A8.251,8.251,0,0,0,1043.2,133.83Zm-0.97,1.938a8.1,8.1,0,0,1-.13,1.254c-0.17,1.241-.35,2.886-0.43,4.5a0.23,0.23,0,0,0,.19.278c0.3,0.14.63,0.265,0.95,0.377,0.19,0.042.24,0.042,0.33-.1a3.307,3.307,0,0,1,.6-0.767,6.21,6.21,0,0,1,4.02-2.119,1.442,1.442,0,0,1,1.68,1.436,2.288,2.288,0,0,1-1.65,2.1,11.615,11.615,0,0,1-3.84.781,3.67,3.67,0,0,1,.95,1.185,0.439,0.439,0,0,0,.56.181,12.011,12.011,0,0,0,3.57-.962,3.418,3.418,0,0,0,2.11-3.122c0-1.8-1.21-2.984-3.25-2.984a6.8,6.8,0,0,0-4.67,2.2,21.826,21.826,0,0,1,.33-2.538,2.952,2.952,0,0,1,.28-0.738,0.352,0.352,0,0,0,.07-0.21,0.3,0.3,0,0,0-.22-0.265A7.923,7.923,0,0,0,1042.23,135.768Z" transform="translate(-764.375 -128.312)"/>
  <path id="したい方に_" data-name="したい方に   " class="cls-1" d="M1152.92,133.091a9.153,9.153,0,0,1,.14,2.551c-0.07,1.673-.2,3.681-0.2,6.023,0,2.133.84,2.844,2.63,2.844a8,8,0,0,0,5.3-2.091,0.593,0.593,0,0,0,.28-0.432,0.9,0.9,0,0,0-.11-0.335,4.634,4.634,0,0,1-.32-1.324,7.391,7.391,0,0,1-4.9,2.565c-1.11,0-1.28-.321-1.28-1.729,0-1.826.07-3.248,0.21-5.4a8.566,8.566,0,0,1,.19-1.7,1.271,1.271,0,0,0,.14-0.46c0-.14-0.09-0.209-0.33-0.265A14.8,14.8,0,0,0,1152.92,133.091Zm16.06,2.286c0.1-.348.2-0.822,0.34-1.324a2.732,2.732,0,0,1,.29-0.558,0.333,0.333,0,0,0,.07-0.223,0.23,0.23,0,0,0-.15-0.223,8.3,8.3,0,0,0-1.77-.39,8.934,8.934,0,0,1-.08,1.282c-0.1.572-.21,1.185-0.35,1.743a18.757,18.757,0,0,1-2.26.139,6.676,6.676,0,0,1-1.04-.041c0.07,0.5.14,0.975,0.2,1.268,0.03,0.181.08,0.223,0.29,0.223,0.66,0,1.64-.069,2.45-0.153a53.4,53.4,0,0,1-2.42,6.608,0.227,0.227,0,0,0,.11.279c0.3,0.167.98,0.46,1.12,0.516s0.24,0.056.31-.139c0.89-2.315,1.6-4.448,2.55-7.543a22.208,22.208,0,0,0,2.44-.53,0.206,0.206,0,0,0,.21-0.265c-0.02-.292-0.06-0.7-0.1-1a0.156,0.156,0,0,0-.23-0.14C1170.28,135.1,1169.53,135.28,1168.98,135.377Zm0.25,6.4a2.711,2.711,0,0,0,.63,1.91c0.63,0.656,1.58.907,3.41,0.907a16.419,16.419,0,0,0,1.9-.154c0.22-.014.24-0.055,0.22-0.223a8.127,8.127,0,0,0-.11-1.213,0.116,0.116,0,0,0-.16-0.125,20.993,20.993,0,0,1-2.35.2c-1.34,0-2.03-.293-2.14-1.31a0.18,0.18,0,0,0-.21-0.2A7.177,7.177,0,0,0,1169.23,141.776Zm1.09-2.635a15.532,15.532,0,0,1,2.81-.32,9.4,9.4,0,0,1,1.73.167c0.2,0.042.27-.014,0.27-0.251,0.01-.376.01-0.767-0.01-1.115,0-.167-0.05-0.181-0.24-0.209a10.181,10.181,0,0,0-1.64-.14,14.6,14.6,0,0,0-2.72.321c-0.21.042-.25,0.084-0.25,0.279C1170.27,138.152,1170.29,138.654,1170.32,139.141Zm9.12-4.74a7.446,7.446,0,0,1,.17,1.827,25.63,25.63,0,0,0,.33,4.057c0.38,2.356,1.53,3.638,2.62,3.638,0.98,0,1.84-.752,2.37-2.174a0.423,0.423,0,0,0-.1-0.516,5.773,5.773,0,0,1-.89-1.074c-0.54,1.45-.89,1.938-1.34,1.938-0.59,0-.95-0.948-1.15-2.049a17.837,17.837,0,0,1-.25-3.179,5.914,5.914,0,0,1,.13-1.366,1.2,1.2,0,0,0,.11-0.391,0.335,0.335,0,0,0-.22-0.251A6.127,6.127,0,0,0,1179.44,134.4Zm7.16,1.98a9.455,9.455,0,0,1,2.61,4.866,0.187,0.187,0,0,0,.29.153,4.612,4.612,0,0,0,1.09-.558,0.249,0.249,0,0,0,.16-0.306,9.228,9.228,0,0,0-2.74-4.768,0.226,0.226,0,0,0-.16-0.084,0.44,0.44,0,0,0-.15.056C1187.48,135.851,1187.13,136.046,1186.6,136.381Zm11.46-.223c-0.02,4.238-1.07,6.162-4.29,7.738a3.023,3.023,0,0,1,.84.85,0.464,0.464,0,0,0,.28.307,0.983,0.983,0,0,0,.34-0.154,7.8,7.8,0,0,0,4.09-5.618h3.8a16.947,16.947,0,0,1-.43,3.541,0.779,0.779,0,0,1-.82.7,13.57,13.57,0,0,1-1.72-.125,2.964,2.964,0,0,1,.3,1.073c0.06,0.446.06,0.474,0.45,0.5,0.46,0.028.85,0.028,1.1,0.028,1.4,0,1.95-.4,2.26-1.729a26.813,26.813,0,0,0,.46-4.14c0.01-.349.02-0.725,0.05-1.088,0-.153-0.03-0.195-0.17-0.195-0.08,0-.47.028-1.64,0.028h-3.43c0.06-.53.1-1.1,0.11-1.715h4.84c1.26,0,1.68.028,1.76,0.028,0.13,0,.14-0.014.14-0.167v-1.13c0-.153-0.01-0.167-0.14-0.167-0.08,0-.5.028-1.76,0.028h-3.68V133.8a1.863,1.863,0,0,1,.09-0.809,0.878,0.878,0,0,0,.08-0.293,0.2,0.2,0,0,0-.22-0.153c-0.48-.042-1.02-0.07-1.53-0.07a6.9,6.9,0,0,1,.1,1.367v0.906h-3.42c-1.25,0-1.67-.028-1.76-0.028-0.14,0-.16.014-0.16,0.167v1.13c0,0.153.02,0.167,0.16,0.167,0.09,0,.51-0.028,1.76-0.028h2.16Zm12.81-2.691a11.343,11.343,0,0,1-.25,2.078,26.62,26.62,0,0,0-.47,4.572,13.081,13.081,0,0,0,.64,4.155,0.166,0.166,0,0,0,.18.153,6.8,6.8,0,0,0,1.15-.223,0.186,0.186,0,0,0,.18-0.181c0-.111-0.03-0.223-0.03-0.39a1.514,1.514,0,0,1,.04-0.432,13.809,13.809,0,0,1,.8-2.106,0.4,0.4,0,0,0,.07-0.223,0.6,0.6,0,0,0-.1-0.209,3.768,3.768,0,0,1-.49-0.878c-0.4.976-.66,1.436-0.95,2.077a14.835,14.835,0,0,1-.08-1.631,22.543,22.543,0,0,1,.58-4.5,3.378,3.378,0,0,1,.34-0.99,0.8,0.8,0,0,0,.21-0.418,0.42,0.42,0,0,0-.32-0.335A6.262,6.262,0,0,0,1210.87,133.467Zm3.22,7.194a3.066,3.066,0,0,0,.49,1.813c0.6,0.822,1.56,1.157,3.63,1.157a18.718,18.718,0,0,0,2.28-.154c0.24-.028.24-0.041,0.24-0.209a10.687,10.687,0,0,0-.09-1.2c-0.03-.181-0.05-0.195-0.19-0.181a20.153,20.153,0,0,1-2.67.181c-1.53,0-2.2-.348-2.28-1.31,0-.154-0.03-0.223-0.14-0.209Zm0.44-3.959a17.193,17.193,0,0,1,3.18-.321c0.71,0,1.44.028,2.27,0.084,0.13,0.014.17-.042,0.19-0.168,0.02-.39.02-0.766,0.02-1.185,0-.139-0.02-0.167-0.32-0.181-0.58-.056-1.23-0.084-2.07-0.084a22.5,22.5,0,0,0-3.03.251,0.2,0.2,0,0,0-.19.237C1214.55,135.572,1214.55,135.921,1214.53,136.7Z" transform="translate(-764.375 -128.312)"/>
  <path id="トーンアップ" class="cls-2" d="M1059.82,132.152a4.635,4.635,0,0,1,.13-1.708,0.983,0.983,0,0,0,.15-0.418,0.338,0.338,0,0,0-.35-0.309,13.507,13.507,0,0,0-2.28-.29,13.489,13.489,0,0,1,.19,2.689v8.94c0,1.163-.02,2.235-0.08,3.58,0,0.218.09,0.272,0.35,0.272a11.835,11.835,0,0,0,1.62,0c0.25,0,.35-0.054.33-0.272-0.04-1.308-.08-2.381-0.08-3.562v-4.015a20.225,20.225,0,0,1,4.8,2.325,0.266,0.266,0,0,0,.2.091,0.3,0.3,0,0,0,.23-0.2,10.5,10.5,0,0,0,.79-1.58,0.337,0.337,0,0,0-.2-0.473,25.75,25.75,0,0,0-5.8-2.471v-2.6Zm18.81,6.324c1.35,0,2.69.018,4.06,0.036,0.25,0.018.33-.054,0.33-0.272a16.218,16.218,0,0,0,0-1.708c0-.218-0.06-0.273-0.33-0.255-1.4.018-2.81,0.055-4.19,0.055h-5.86a23.577,23.577,0,0,1-3.94-.218,19.426,19.426,0,0,0,.27,2.2,0.4,0.4,0,0,0,.42.382,14.664,14.664,0,0,1,2.68-.218h6.56Zm7.22-5.706a19.567,19.567,0,0,1,3.72,2.962,0.373,0.373,0,0,0,.23.145,0.333,0.333,0,0,0,.22-0.145c0.26-.273.86-1,1.13-1.363a0.408,0.408,0,0,0,.11-0.236,0.452,0.452,0,0,0-.16-0.254,19.008,19.008,0,0,0-3.48-2.581,0.508,0.508,0,0,0-.24-0.091,0.365,0.365,0,0,0-.26.146C1086.78,131.716,1086.25,132.28,1085.85,132.77Zm0.4,9.068a12.5,12.5,0,0,0,1.46,2.017,0.476,0.476,0,0,0,.31.2,0.467,0.467,0,0,0,.32-0.181,6.7,6.7,0,0,1,1.23-.836,40.227,40.227,0,0,0,5.5-3.562,30.425,30.425,0,0,0,4.19-3.852,0.889,0.889,0,0,0,.29-0.545,0.971,0.971,0,0,0-.09-0.345,8.006,8.006,0,0,1-.51-2.126,27.474,27.474,0,0,1-4.99,4.942,27.12,27.12,0,0,1-5.25,3.38A11.075,11.075,0,0,1,1086.25,141.838Zm27.46-8.886a12.881,12.881,0,0,1-3.26,3.18,4.157,4.157,0,0,1,1.51.745,0.717,0.717,0,0,0,.44.182,0.531,0.531,0,0,0,.38-0.164,15.583,15.583,0,0,0,3.21-3.507,2.136,2.136,0,0,1,.49-0.527,0.476,0.476,0,0,0,.25-0.382,0.523,0.523,0,0,0-.14-0.327,9.706,9.706,0,0,0-1.1-1.144,0.6,0.6,0,0,0-.41-0.255,1.247,1.247,0,0,0-.35.127,3.831,3.831,0,0,1-1.26.109h-7.81c-1.46,0-2.46-.036-3.7-0.127a15.579,15.579,0,0,0,.33,1.963,0.282,0.282,0,0,0,.33.272c1.07-.072,2.18-0.145,3.22-0.145h7.87Zm-10.66,10.557a5.094,5.094,0,0,1,1.66.927,0.526,0.526,0,0,0,.37.164,0.941,0.941,0,0,0,.51-0.182,9.461,9.461,0,0,0,3.31-3.616,11.134,11.134,0,0,0,1.08-5,1.525,1.525,0,0,1,.16-0.745,0.8,0.8,0,0,0,.09-0.327,0.33,0.33,0,0,0-.31-0.346,20.441,20.441,0,0,0-2.35-.345,6.377,6.377,0,0,1,.18,1.708,8.41,8.41,0,0,1-.89,4.289A8.028,8.028,0,0,1,1103.05,143.509Zm15.86-7.977a10.718,10.718,0,0,1,1.71,2.926c0.09,0.254.2,0.345,0.45,0.254a7.669,7.669,0,0,0,1.17-.563,0.316,0.316,0,0,0,.22-0.255,1.671,1.671,0,0,0-.07-0.272,9.764,9.764,0,0,0-1.57-2.689,0.324,0.324,0,0,0-.47-0.128C1119.96,134.987,1119.53,135.187,1118.91,135.532Zm3.66-.927a12.477,12.477,0,0,1,1.53,2.908c0.09,0.254.16,0.345,0.36,0.272a7.656,7.656,0,0,0,1.26-.563,0.321,0.321,0,0,0,.18-0.491,10.5,10.5,0,0,0-1.4-2.653,0.318,0.318,0,0,0-.47-0.145C1123.72,134.06,1123.3,134.26,1122.57,134.6Zm5.74-.436a7,7,0,0,1-.42,1.926,18.887,18.887,0,0,1-2.46,4.38,15.855,15.855,0,0,1-4.37,3.779,4.06,4.06,0,0,1,1.54.764,0.458,0.458,0,0,0,.3.127,0.773,0.773,0,0,0,.43-0.2,14.715,14.715,0,0,0,3.76-3.507,22.427,22.427,0,0,0,2.75-4.834,2.451,2.451,0,0,1,.54-0.926,0.426,0.426,0,0,0,.2-0.328,0.449,0.449,0,0,0-.23-0.308A8.882,8.882,0,0,0,1128.31,134.169Zm15.83-.418a15.165,15.165,0,0,1-3.08,5.179,17.518,17.518,0,0,1-5.95,4.543,5.477,5.477,0,0,1,1.69,1,0.647,0.647,0,0,0,.46.2,0.877,0.877,0,0,0,.49-0.163,20.288,20.288,0,0,0,5.17-4.325,21.589,21.589,0,0,0,3.54-5.906,2.016,2.016,0,0,1,.42-0.708,0.528,0.528,0,0,0,.18-0.346,0.631,0.631,0,0,0-.15-0.363,6.548,6.548,0,0,0-1.24-1.254,0.424,0.424,0,0,0-.31-0.127,0.585,0.585,0,0,0-.31.109,1.724,1.724,0,0,1-1,.182h-6.5a32.275,32.275,0,0,1-3.5-.127c0.04,0.526.11,1.471,0.17,1.835,0.03,0.254.11,0.381,0.34,0.363,0.79-.036,1.82-0.091,3.01-0.091h6.57Zm4.05-5.433a1.917,1.917,0,0,0-1.97,1.945A1.965,1.965,0,1,0,1148.19,128.318Zm0,0.872a1.073,1.073,0,1,1-1.08,1.073A1.038,1.038,0,0,1,1148.19,129.19Z" transform="translate(-764.375 -128.312)"/>
  <path id="泡_" data-name="泡   " class="cls-2" d="M772.862,166.868c0,0.251.023,0.274,0.252,0.274,0.138,0,.619-0.046,2.178-0.046h2.453v2.219h-3.462c-1.261,0-1.857-.046-1.994-0.046-0.253,0-.275.023-0.275,0.274,0,0.138.045,0.755,0.045,1.99V175.9a2.489,2.489,0,0,0,.688,2.082c0.482,0.411,1.536.594,5.869,0.594,3.829,0,5.388-.2,6.076-0.8a3.376,3.376,0,0,0,1.031-2.219c0.092-.709.069-0.731-0.642-0.914a7.084,7.084,0,0,1-1.6-.618,2.723,2.723,0,0,1-.528,1.875c-0.344.344-1.375,0.5-4.195,0.5-3.21,0-3.806-.092-4.081-0.3a1.591,1.591,0,0,1-.229-1.166V171.4h3.416c1.306,0,1.857.046,1.994,0.046,0.252,0,.275-0.023.275-0.252,0-.137-0.045-0.732-0.045-2.012v-1.944c0-1.281.045-1.876,0.045-2.036,0-.229-0.023-0.252-0.275-0.252-0.137,0-.688.046-1.994,0.046h-2.568c-1.559,0-2.04-.046-2.178-0.046a0.447,0.447,0,0,0-.206.023,18.509,18.509,0,0,0,1.352-1.875h8.116a55.479,55.479,0,0,1-.413,8.073c-0.137.709-.389,0.938-0.779,0.938a12.062,12.062,0,0,1-1.788-.137,6.134,6.134,0,0,1,.412,1.6c0.092,0.754.115,0.754,0.826,0.754a7.465,7.465,0,0,0,1.88-.137,2.155,2.155,0,0,0,1.627-1.807c0.367-1.6.551-4.185,0.6-9.514,0-.526.045-1.1,0.091-1.692,0-.229-0.046-0.275-0.3-0.275-0.137,0-.779.046-2.7,0.046h-6.351c0.184-.366.367-0.755,0.528-1.143a1.809,1.809,0,0,1,.412-0.732,0.477,0.477,0,0,0,.207-0.389,0.439,0.439,0,0,0-.39-0.343,15.066,15.066,0,0,0-2.132-.389,6.371,6.371,0,0,1-.39,1.349,16.066,16.066,0,0,1-3.92,5.581,5.927,5.927,0,0,1,1.215,1.1,0.972,0.972,0,0,0,.481.48,1.13,1.13,0,0,0,.459-0.366c0.321-.343.619-0.686,0.917-1.052v1.83Zm-7.589,10.337a14.684,14.684,0,0,0,1.788,1.258,1.067,1.067,0,0,0,.413.137,0.339,0.339,0,0,0,.321-0.274,3.186,3.186,0,0,1,.367-0.892,50.205,50.205,0,0,0,2.178-5.055,1.728,1.728,0,0,0,.137-0.526,0.833,0.833,0,0,0-.481-0.571,10.7,10.7,0,0,1-1.261-1.167,44.385,44.385,0,0,1-2.247,5.283A7.791,7.791,0,0,1,765.273,177.205Zm0.94-17.5a0.5,0.5,0,0,0-.16.275,0.255,0.255,0,0,0,.16.16,19.6,19.6,0,0,1,3.233,2.561c0.183,0.16.229,0.183,0.39-.068l1.054-1.418a0.588,0.588,0,0,0,.138-0.275,0.245,0.245,0,0,0-.138-0.183,18.719,18.719,0,0,0-3.187-2.4c-0.206-.115-0.252-0.115-0.435.114Zm-0.986,5.763a0.508,0.508,0,0,0-.137.275,0.253,0.253,0,0,0,.16.16,17.635,17.635,0,0,1,3.233,2.493,0.387,0.387,0,0,0,.206.137,0.236,0.236,0,0,0,.184-0.16l1.031-1.464a0.586,0.586,0,0,0,.138-0.274,0.354,0.354,0,0,0-.138-0.183,17.094,17.094,0,0,0-3.255-2.333c-0.207-.114-0.275-0.114-0.459.114Z" transform="translate(-764.375 -128.312)"/>
  <path id="で出てくる日やけ止め_" data-name="で出てくる日やけ止め   " class="cls-1" d="M798.955,166.756c-2.3,1.5-3.648,3.317-3.648,6.009,0,3.942,3.667,5.857,7.011,5.857,0.228,0,.3-0.114.361-0.4a6.72,6.72,0,0,0,.209-1.63c0-.208-0.114-0.284-0.418-0.284-3.306-.208-5.054-1.535-5.054-3.98,0-2.275,1.615-4.493,4.845-5.592a8.515,8.515,0,0,1,2.318-.417c0.247,0,.361-0.057.361-0.284a10.8,10.8,0,0,0-.209-1.668c-0.019-.133-0.114-0.247-0.4-0.209-4.9.645-9.082,1.27-11.419,1.611a26.211,26.211,0,0,1-3.021.323,13.19,13.19,0,0,0,.7,2.047,0.445,0.445,0,0,0,.361.284,1.109,1.109,0,0,0,.418-0.152c0.285-.094.475-0.132,1.2-0.3,2.033-.417,4.066-0.815,6.384-1.251v0.038Zm2.755,2.711a9.4,9.4,0,0,1,1.919,2.2,0.2,0.2,0,0,0,.323.057l0.8-.587a0.192,0.192,0,0,0,.057-0.3A8.733,8.733,0,0,0,803,168.8a0.2,0.2,0,0,0-.285-0.038Zm1.748-1.251a8.962,8.962,0,0,1,1.9,2.179,0.2,0.2,0,0,0,.324.057l0.76-.587a0.22,0.22,0,0,0,.057-0.342,7.938,7.938,0,0,0-1.806-1.952,0.194,0.194,0,0,0-.285-0.038Zm19.658,0.644h-3.895v-4.132a6.5,6.5,0,0,1,.1-1.744,1.068,1.068,0,0,0,.114-0.379c0-.114-0.114-0.171-0.285-0.19-0.665-.075-1.368-0.132-2.09-0.151a17.108,17.108,0,0,1,.133,2.445v4.151h-3.667v-2.066a5.334,5.334,0,0,1,.114-1.668,1.58,1.58,0,0,0,.1-0.379,0.261,0.261,0,0,0-.285-0.228c-0.646-.075-1.273-0.113-2-0.132a17.559,17.559,0,0,1,.114,2.426v2.843c0,1.137-.038,1.668-0.038,1.8,0,0.189.019,0.208,0.209,0.208h1.577c0.19,0,.209-0.019.209-0.208V170.68h3.667v5.838h-4.275v-1.4a4.971,4.971,0,0,1,.133-1.649,1.264,1.264,0,0,0,.114-0.379,0.3,0.3,0,0,0-.323-0.209c-0.646-.075-1.273-0.113-2-0.132a16.963,16.963,0,0,1,.114,2.388v2.5c0,1.061-.038,1.535-0.038,1.668,0,0.17.019,0.189,0.228,0.189H812.7c0.19,0,.209-0.019.209-0.189v-0.967h10.811v0.872c0,0.171.019,0.19,0.209,0.19h1.558c0.19,0,.209-0.019.209-0.19,0-.114-0.038-0.606-0.038-1.668v-2.293a5.873,5.873,0,0,1,.133-1.858,1.234,1.234,0,0,0,.1-0.379,0.277,0.277,0,0,0-.285-0.208c-0.646-.076-1.273-0.114-2-0.133a17.1,17.1,0,0,1,.114,2.407v1.441h-4.5V170.68h3.895v0.7c0,0.208.019,0.227,0.228,0.227h1.577c0.171,0,.19-0.019.19-0.227,0-.114-0.038-0.663-0.038-1.8v-2.672a5.878,5.878,0,0,1,.133-1.858,1.234,1.234,0,0,0,.1-0.379,0.27,0.27,0,0,0-.3-0.208c-0.665-.076-1.273-0.114-1.976-0.133a21.416,21.416,0,0,1,.1,2.407v2.123Zm16.274-2.2c-2.3,1.5-3.648,3.317-3.648,6.009,0,3.942,3.667,5.857,7.011,5.857,0.228,0,.3-0.114.361-0.4a6.733,6.733,0,0,0,.209-1.63c0-.209-0.114-0.285-0.418-0.285-3.306-.208-5.054-1.535-5.054-3.98,0-2.275,1.615-4.492,4.845-5.592a8.515,8.515,0,0,1,2.318-.417c0.247,0,.362-0.057.362-0.284a10.8,10.8,0,0,0-.21-1.668c-0.019-.133-0.114-0.246-0.4-0.208-4.9.644-9.082,1.269-11.419,1.611a26.4,26.4,0,0,1-3.021.322,13.19,13.19,0,0,0,.7,2.047,0.443,0.443,0,0,0,.361.284,1.125,1.125,0,0,0,.418-0.151c0.285-.095.475-0.133,1.2-0.3,2.033-.417,4.066-0.815,6.384-1.251v0.038Zm17.446-3.961a5.455,5.455,0,0,1-1.026,1.421c-1.634,1.782-3.211,3.355-4.826,5.1a2.436,2.436,0,0,0-.931,1.668,1.912,1.912,0,0,0,1.007,1.592,47.964,47.964,0,0,1,6.916,6.407,0.337,0.337,0,0,0,.228.17,0.488,0.488,0,0,0,.267-0.151c0.323-.284.874-0.834,1.311-1.308a0.324,0.324,0,0,0,.133-0.227,0.455,0.455,0,0,0-.133-0.247,52.771,52.771,0,0,0-7.069-5.971,0.469,0.469,0,0,1-.247-0.341,0.831,0.831,0,0,1,.247-0.417c1.463-1.516,3.553-3.468,5.187-4.928a3.579,3.579,0,0,1,.913-0.663,0.381,0.381,0,0,0,.266-0.36,0.465,0.465,0,0,0-.152-0.3A15.215,15.215,0,0,0,856.836,162.7Zm13.378,7.392c1.444-1.384,2.717-2.71,4.1-4.056a3.082,3.082,0,0,1,.836-0.607,0.5,0.5,0,0,0,.323-0.455,0.659,0.659,0,0,0-.209-0.455A7.185,7.185,0,0,0,874,163.306a0.682,0.682,0,0,0-.437-0.151,0.979,0.979,0,0,0-.361.151,5.041,5.041,0,0,1-1.045.285c-1.482.284-3.154,0.53-4.313,0.644a9.157,9.157,0,0,1-1.767-.038,9.049,9.049,0,0,0,.665,2.047,0.431,0.431,0,0,0,.418.322,1.391,1.391,0,0,0,.38-0.094,5.848,5.848,0,0,1,.8-0.228c1.178-.246,2.527-0.512,3.667-0.72-0.874,1.08-1.767,2.028-2.945,3.241a45.532,45.532,0,0,1-4.5,4.189,0.3,0.3,0,0,0-.1.436,8.541,8.541,0,0,0,1.122,1.232,0.467,0.467,0,0,0,.285.171,0.538,0.538,0,0,0,.323-0.209c0.57-.568,1.1-1.118,1.653-1.611a7.744,7.744,0,0,1,4.864-2.009,2.77,2.77,0,0,1,2.983,2.862,2.854,2.854,0,0,1-1.938,2.881,3.456,3.456,0,0,0-3.572-2.767,2.519,2.519,0,0,0-2.679,2.312c0,1.763,1.444,2.787,3.838,2.787,4.066,0,6.631-2.029,6.631-5.194a4.4,4.4,0,0,0-4.712-4.549,5.724,5.724,0,0,0-3.021.853Zm1.653,7.089a4.16,4.16,0,0,1-.874.076c-1.14,0-1.653-.4-1.653-0.986a0.8,0.8,0,0,1,.912-0.72A1.755,1.755,0,0,1,871.867,177.181Zm14.219,2.1c0.19,0,.209-0.019.209-0.209v-1.023h7.962v0.929c0,0.189.019,0.208,0.209,0.208h1.691c0.19,0,.209-0.019.209-0.208,0-.114-0.038-1.232-0.038-6.672V168.1c0-3.109.038-4.265,0.038-4.379,0-.208-0.019-0.227-0.209-0.227-0.114,0-.779.038-2.622,0.038h-6.518c-1.843,0-2.489-.038-2.622-0.038-0.19,0-.209.019-0.209,0.227,0,0.114.038,1.27,0.038,4.947v3.659c0,5.5-.038,6.615-0.038,6.747,0,0.19.019,0.209,0.209,0.209h1.691Zm0.209-3.109v-4.587h7.962v4.587H886.3Zm0-10.766h7.962v4.322H886.3V165.41Zm21.615,2.426a9.735,9.735,0,0,1-.342-1c-0.209-.758-0.266-1.043-0.38-1.46a3.51,3.51,0,0,1-.076-0.625,0.322,0.322,0,0,0-.285-0.4,13.647,13.647,0,0,0-2.546.284,6.587,6.587,0,0,1,.874,1.573c0.38,1.005.646,1.763,0.874,2.445-1.14.493-1.786,0.721-2.205,0.872a9.054,9.054,0,0,1-1.862.493,12.621,12.621,0,0,0,1.159,1.858,0.69,0.69,0,0,0,.456.284,0.676,0.676,0,0,0,.362-0.189,4.961,4.961,0,0,1,.988-0.588c0.475-.228,1.083-0.512,1.8-0.853,1.026,2.843,1.843,5.4,2.736,8.416,0.057,0.189.114,0.227,0.247,0.208a8.622,8.622,0,0,0,1.634-.606c0.266-.133.247-0.209,0.171-0.455-0.988-2.938-1.938-5.592-2.945-8.435a31.639,31.639,0,0,1,3.135-1.251,8.685,8.685,0,0,1,2.812-.531c1.216,0,1.976.55,1.976,1.555,0,1.326-1.1,2.1-2.85,2.1a12.227,12.227,0,0,1-2.109-.19,4.879,4.879,0,0,1,.931,1.82,0.45,0.45,0,0,0,.513.341c0.247,0.019.456,0.019,0.836,0.019,3.1,0,4.9-1.5,4.9-3.943,0-2.085-1.558-3.506-4.009-3.506a10.315,10.315,0,0,0-3.344.53C910.3,166.927,909.126,167.363,907.91,167.836Zm1.52-4a10.135,10.135,0,0,1,2.356,2.085,0.277,0.277,0,0,0,.152.095,0.341,0.341,0,0,0,.171-0.076,6.2,6.2,0,0,0,1.254-1.042,0.346,0.346,0,0,0,.095-0.209,0.342,0.342,0,0,0-.095-0.208,9.9,9.9,0,0,0-2.052-1.725,0.325,0.325,0,0,0-.418,0C910.494,163,909.962,163.42,909.43,163.837Zm24.255,6.862a10.444,10.444,0,0,1-.589,4.226,6.166,6.166,0,0,1-3.212,3.147,6.238,6.238,0,0,1,1.482.929,0.4,0.4,0,0,0,.38.17,0.854,0.854,0,0,0,.475-0.17,6.675,6.675,0,0,0,2.718-2.938,9.874,9.874,0,0,0,.836-4.4l-0.019-2.919c0.874-.095,1.71-0.208,2.622-0.379a0.258,0.258,0,0,0,.247-0.341c-0.038-.493-0.076-0.948-0.152-1.422-0.019-.189-0.114-0.227-0.342-0.17-0.8.17-1.615,0.3-2.432,0.417v-2.1a2.313,2.313,0,0,1,.1-0.8,0.765,0.765,0,0,0,.133-0.379,0.323,0.323,0,0,0-.3-0.3,11.662,11.662,0,0,0-2.451-.265,5.906,5.906,0,0,1,.323,1.554c0.076,0.721.076,1.574,0.114,2.521-0.684.057-1.578,0.076-2.11,0.076-0.7,0-1.653-.019-2.356-0.095,0.1,0.834.133,1.346,0.209,1.725a0.357,0.357,0,0,0,.437.3c0.7,0.019,1.2.019,1.6,0,0.551,0,1.273-.037,2.281-0.113Zm-6.594,6.406a2.312,2.312,0,0,1,.057-0.493A14.228,14.228,0,0,1,928,174.3a1.416,1.416,0,0,0,.228-0.626,0.57,0.57,0,0,0-.171-0.36,5.477,5.477,0,0,1-.627-1.27c-0.456,1.062-.8,1.706-1.273,2.711a16.092,16.092,0,0,1-.19-3,35.232,35.232,0,0,1,.722-5.686,10.714,10.714,0,0,1,.361-1.4,0.683,0.683,0,0,0,.114-0.379,0.573,0.573,0,0,0-.418-0.417,9.333,9.333,0,0,0-2-.663,20.447,20.447,0,0,1-.209,2.824,43.1,43.1,0,0,0-.57,6.065,16.174,16.174,0,0,0,1.121,5.876,0.345,0.345,0,0,0,.437.246,4.659,4.659,0,0,0,1.311-.4,0.272,0.272,0,0,0,.247-0.265v-0.455Zm29.423,1.63c1.691,0,2.261.038,2.375,0.038,0.19,0,.209-0.019.209-0.208V176.9c0-.19-0.019-0.209-0.209-0.209-0.114,0-.684.038-2.375,0.038h-3.952v-6.2h2.394c1.976,0,2.679.038,2.812,0.038,0.19,0,.209-0.019.209-0.209v-1.649c0-.189-0.019-0.208-0.209-0.208-0.133,0-.836.038-2.812,0.038h-2.394v-3.621a6.539,6.539,0,0,1,.133-1.743,1.243,1.243,0,0,0,.114-0.436,0.306,0.306,0,0,0-.323-0.228c-0.665-.076-1.482-0.113-2.223-0.132a14.516,14.516,0,0,1,.171,2.558v11.79h-3.1V168.8a5.461,5.461,0,0,1,.133-1.687,1.1,1.1,0,0,0,.1-0.379,0.294,0.294,0,0,0-.3-0.246c-0.665-.076-1.482-0.114-2.2-0.133a18.018,18.018,0,0,1,.152,2.654v7.714h-0.323c-1.691,0-2.28-.038-2.394-0.038-0.19,0-.209.019-0.209,0.209v1.668c0,0.189.019,0.208,0.209,0.208,0.114,0,.7-0.038,2.394-0.038h11.628Zm15.041-11.922a10.915,10.915,0,0,0-3.876,1.08c-0.114-.455-0.171-0.8-0.266-1.345a6.163,6.163,0,0,1-.076-1.081,0.435,0.435,0,0,0-.361-0.55,8.307,8.307,0,0,0-2.148-.3,8.578,8.578,0,0,1,.57,1.782c0.19,0.834.38,1.782,0.59,2.5a7.221,7.221,0,0,0-2.7,5.44c0,1.9,1.045,3.07,2.489,3.07,1.027,0,1.939-.492,3.174-1.8,0.209,0.246.361,0.4,0.513,0.549a0.41,0.41,0,0,0,.266.114,0.454,0.454,0,0,0,.266-0.095,5.414,5.414,0,0,0,1.178-1.156,6.649,6.649,0,0,1-.817-0.967,34.1,34.1,0,0,0,2.774-5.534,3.542,3.542,0,0,1,3.42,3.582c0,3.3-3.1,4.473-5.681,5a3.877,3.877,0,0,1,1.235,1.251,0.573,0.573,0,0,0,.779.322c3.781-.928,5.833-2.957,5.833-6.33,0-3.014-2.071-5.023-5.073-5.5,0.247-.758.418-1.213,0.532-1.517a3.141,3.141,0,0,1,.38-0.7,0.648,0.648,0,0,0,.133-0.322,0.407,0.407,0,0,0-.3-0.341,7.84,7.84,0,0,0-2.242-.758,4.878,4.878,0,0,1-.038,1.288A14.4,14.4,0,0,1,971.555,166.813Zm-3.42,2.786A7.462,7.462,0,0,1,971,168.538a22.836,22.836,0,0,1-1.805,3.829A14.2,14.2,0,0,1,968.135,169.6Zm-1.558,1.251a19.577,19.577,0,0,0,1.311,3.071c-0.8.966-1.406,1.383-1.977,1.383a0.986,0.986,0,0,1-.665-1.156A5.3,5.3,0,0,1,966.577,170.85Z" transform="translate(-764.375 -128.312)"/>
</svg>
