<svg id="lead-product_sp.svg" xmlns="http://www.w3.org/2000/svg" width="410.906" height="90.781" viewBox="0 0 410.906 90.781">
  <defs>
    <style>
      .cls-1, .cls-2 {
        fill-rule: evenodd;
      }

      .cls-2 {
        fill: #1147b4;
      }
    </style>
  </defs>
  <path id="何もつけていないような素肌感を保ちながら_" data-name="何もつけていないような素肌感を保ちながら " class="cls-1" d="M62.732,782.657c0.9,0.02,1.307.04,1.387,0.04,0.2,0,.221-0.02.221-0.241v-1.564c0-.2-0.02-0.22-0.221-0.22-0.1,0-.784.04-2.713,0.04H55.174c-1.93,0-2.613-.04-2.734-0.04-0.2,0-.221.02-0.221,0.22v1.564c0,0.221.02,0.241,0.221,0.241,0.121,0,.8-0.04,2.734-0.04h5.467v12.03c0,0.622-.2.742-0.884,0.742-0.764,0-1.266,0-2.09-.06a3.935,3.935,0,0,1,.5,1.444c0.1,0.641.121,0.621,0.764,0.621,1.869,0,2.734-.16,3.176-0.5a2.037,2.037,0,0,0,.663-1.865c0-.8-0.04-1.784-0.04-3.91v-8.5Zm-3.9,4.692c0-1.344.04-1.885,0.04-2.006,0-.2-0.02-0.22-0.221-0.22-0.141,0-.563.04-1.889,0.04H54.551c-1.327,0-1.749-.04-1.889-0.04-0.2,0-.221.02-0.221,0.22,0,0.121.04,0.682,0.04,2.467v1.945c0,2.947-.04,3.489-0.04,3.629,0,0.18.02,0.2,0.221,0.2h1.487c0.2,0,.221-0.02.221-0.2V791.92h2.573v0.842c0,0.2.02,0.221,0.221,0.221h1.487c0.2,0,.221-0.02.221-0.221,0-.12-0.04-0.641-0.04-3.408v-2Zm-1.889-.4v3.208H54.37v-3.208h2.573Zm-8.522,7.378c0,2.025-.04,3.008-0.04,3.128,0,0.2.02,0.221,0.221,0.221H50.29c0.2,0,.221-0.02.221-0.221,0-.1-0.04-1.1-0.04-3.128V784.1a26.291,26.291,0,0,0,1.146-2.646,1.7,1.7,0,0,1,.442-0.823,0.451,0.451,0,0,0,.221-0.36,0.442,0.442,0,0,0-.322-0.341,13.669,13.669,0,0,0-1.95-.682,10.151,10.151,0,0,1-.362,1.444,17.777,17.777,0,0,1-3.879,6.536,5.365,5.365,0,0,1,.784,1.725,0.417,0.417,0,0,0,.261.361,0.537,0.537,0,0,0,.342-0.241c0.442-.541.884-1.083,1.286-1.644-0.02.7-.02,1.4-0.02,1.985v4.912Zm25.435-3.448c1.025,0.02,2.07.02,3.075-.061,0.2,0,.261-0.08.281-0.32a13.5,13.5,0,0,0,.1-1.5c0-.181-0.06-0.261-0.322-0.221-0.965.06-1.789,0.08-2.854,0.06,0.121-.8.322-2.165,0.442-2.867a19.916,19.916,0,0,0,2.673-.1c0.241-.02.322-0.08,0.322-0.3a9.341,9.341,0,0,0,.04-1.5,0.2,0.2,0,0,0-.2-0.24,11.514,11.514,0,0,1-2.472.12c0.1-.742.221-1.424,0.322-1.885a1.961,1.961,0,0,1,.362-0.862,0.586,0.586,0,0,0,.161-0.381,0.562,0.562,0,0,0-.442-0.461,11.976,11.976,0,0,0-2.412-.562,9.415,9.415,0,0,1,.02,1.685c-0.04.6-.1,1.143-0.261,2.3a16.357,16.357,0,0,1-3.638-.761c0,0.721.04,1.383,0.06,1.864a0.329,0.329,0,0,0,.322.341,14.093,14.093,0,0,0,2.894.562c-0.08.822-.241,2.125-0.342,2.867a12.587,12.587,0,0,1-3.256-.782,11.566,11.566,0,0,0,.04,1.865,0.346,0.346,0,0,0,.221.381,15.889,15.889,0,0,0,2.734.6c-0.08.9-.141,1.464-0.141,1.885,0,2.927,1.507,4.531,5.065,4.531,3.457,0,5.789-1.844,5.789-4.691a5.222,5.222,0,0,0-1.708-3.77,0.462,0.462,0,0,0-.422-0.08,6.442,6.442,0,0,1-2.05.12c1.528,1.6,1.809,2.526,1.809,3.649,0,1.805-1.306,2.707-3.658,2.707-1.869,0-2.673-.722-2.673-2.566A12.321,12.321,0,0,1,73.855,790.878ZM85.687,785.6a11.651,11.651,0,0,0,1.286,2.085,0.761,0.761,0,0,0,.583.422,0.964,0.964,0,0,0,.543-0.3,12.733,12.733,0,0,1,1.387-.722c3.055-1.344,5.447-2.065,7.256-2.065,2.231,0,3.457,1.163,3.457,3.047a4.377,4.377,0,0,1-2.774,3.991,18.937,18.937,0,0,1-5.447,1.483,3.725,3.725,0,0,1,1.407,1.584c0.141,0.381.3,0.4,0.7,0.321a17.141,17.141,0,0,0,5.105-1.664c2.391-1.283,3.537-2.948,3.537-5.574,0-3.148-2.311-5.314-5.909-5.314a26.141,26.141,0,0,0-7.236,1.664A17.857,17.857,0,0,1,85.687,785.6Zm33.291,2.667a11.057,11.057,0,0,1-.623,4.471,6.514,6.514,0,0,1-3.4,3.329,6.627,6.627,0,0,1,1.568.982,0.418,0.418,0,0,0,.4.181,0.894,0.894,0,0,0,.5-0.181,7.055,7.055,0,0,0,2.875-3.108,10.439,10.439,0,0,0,.884-4.651l-0.02-3.088c0.925-.1,1.809-0.221,2.774-0.4a0.273,0.273,0,0,0,.261-0.361c-0.04-.522-0.08-1-0.161-1.5-0.02-.2-0.12-0.241-0.362-0.181-0.844.181-1.708,0.321-2.572,0.442v-2.226a2.455,2.455,0,0,1,.1-0.842,0.8,0.8,0,0,0,.141-0.4,0.341,0.341,0,0,0-.322-0.321,12.285,12.285,0,0,0-2.593-.281,6.238,6.238,0,0,1,.342,1.644c0.08,0.762.08,1.665,0.121,2.667-0.724.06-1.669,0.08-2.231,0.08-0.744,0-1.749-.02-2.493-0.1,0.1,0.882.141,1.424,0.221,1.825a0.379,0.379,0,0,0,.463.321c0.743,0.02,1.266.02,1.688,0,0.583,0,1.347-.041,2.412-0.121ZM112,795.048a2.456,2.456,0,0,1,.061-0.521,15.092,15.092,0,0,1,.9-2.446,1.5,1.5,0,0,0,.241-0.662,0.6,0.6,0,0,0-.18-0.381,5.854,5.854,0,0,1-.664-1.343c-0.482,1.122-.844,1.8-1.346,2.867a17,17,0,0,1-.2-3.168,37.263,37.263,0,0,1,.763-6.016,11.481,11.481,0,0,1,.382-1.483,0.723,0.723,0,0,0,.121-0.4,0.605,0.605,0,0,0-.442-0.441,9.831,9.831,0,0,0-2.111-.7,21.552,21.552,0,0,1-.221,2.987,45.629,45.629,0,0,0-.6,6.417,17.107,17.107,0,0,0,1.186,6.215,0.366,0.366,0,0,0,.462.261,4.966,4.966,0,0,0,1.387-.421,0.289,0.289,0,0,0,.261-0.281v-0.481ZM137.779,784c-2.432,1.584-3.859,3.509-3.859,6.356,0,4.171,3.879,6.2,7.417,6.2,0.241,0,.322-0.12.382-0.421a7.1,7.1,0,0,0,.221-1.724c0-.221-0.121-0.3-0.442-0.3-3.5-.221-5.347-1.624-5.347-4.211,0-2.406,1.709-4.752,5.126-5.915a8.966,8.966,0,0,1,2.452-.441c0.261,0,.382-0.06.382-0.3a11.476,11.476,0,0,0-.221-1.764c-0.02-.141-0.121-0.261-0.422-0.221-5.186.682-9.608,1.343-12.08,1.7a27.685,27.685,0,0,1-3.2.341,13.848,13.848,0,0,0,.744,2.166,0.47,0.47,0,0,0,.381.3,1.183,1.183,0,0,0,.443-0.161c0.3-.1.5-0.14,1.266-0.321,2.151-.441,4.3-0.862,6.753-1.323V784Zm11.666-1.845a10.728,10.728,0,0,1,.241,2.627,36.333,36.333,0,0,0,.482,5.835c0.543,3.388,2.191,5.233,3.759,5.233,1.407,0,2.653-1.083,3.417-3.128a0.614,0.614,0,0,0-.141-0.742,7.658,7.658,0,0,1-1.286-1.544c-0.784,2.086-1.286,2.788-1.93,2.788-0.844,0-1.366-1.364-1.648-2.948a25.25,25.25,0,0,1-.362-4.572,9.017,9.017,0,0,1,.181-1.965,1.727,1.727,0,0,0,.161-0.561,0.473,0.473,0,0,0-.322-0.361A8.724,8.724,0,0,0,149.445,782.155ZM159.736,785a13.5,13.5,0,0,1,3.758,7c0.041,0.241.181,0.3,0.423,0.221a6.841,6.841,0,0,0,1.567-.8,0.35,0.35,0,0,0,.221-0.441,13.246,13.246,0,0,0-3.939-6.858,0.309,0.309,0,0,0-.221-0.12,0.6,0.6,0,0,0-.221.08C161,784.241,160.5,784.521,159.736,785ZM180,791.619a10.408,10.408,0,0,0-1.588-.12c-2.271,0-3.718,1.183-3.718,2.928,0,1.724,1.487,2.847,3.7,2.847,2.292,0,3.739-.923,3.739-2.928a14.99,14.99,0,0,1,2.452,1.685,0.313,0.313,0,0,0,.2.12,0.228,0.228,0,0,0,.181-0.14,12.271,12.271,0,0,0,.924-1.625,0.266,0.266,0,0,0-.12-0.421,15.765,15.765,0,0,0-3.618-1.864,26.1,26.1,0,0,1-.221-3.409,2.089,2.089,0,0,1,.08-0.822,2.48,2.48,0,0,0,.121-0.421,0.309,0.309,0,0,0-.282-0.321,10.831,10.831,0,0,0-2.191-.381,6.986,6.986,0,0,1,.161,1.424C179.842,789.113,179.883,790.336,180,791.619Zm0.04,1.9a2.322,2.322,0,0,1,.02.4,1.508,1.508,0,0,1-1.748,1.424c-1.146,0-1.709-.321-1.709-0.963,0-.761.784-1.162,1.789-1.162A5.142,5.142,0,0,1,180.043,793.524Zm-3.276-10.286c0.181-.6.342-1.223,0.483-1.7a2.2,2.2,0,0,1,.321-0.742,0.492,0.492,0,0,0,.181-0.381,0.343,0.343,0,0,0-.322-0.3,18.651,18.651,0,0,0-2.351-.421,7.714,7.714,0,0,1-.121,1.624c-0.141.722-.281,1.4-0.522,2.246-0.925.08-1.528,0.1-2.312,0.1-0.583,0-1.045-.02-1.869-0.08a10.366,10.366,0,0,0,.2,1.7c0.04,0.261.08,0.321,0.281,0.321,0.5,0.02.664,0.02,1.106,0.02,0.623,0,1.246,0,2.01-.04a40.41,40.41,0,0,1-3.478,7,0.383,0.383,0,0,0-.1.24,0.278,0.278,0,0,0,.141.221,9.475,9.475,0,0,0,1.387,1.023,0.553,0.553,0,0,0,.241.1,0.292,0.292,0,0,0,.221-0.2,55.328,55.328,0,0,0,3.919-8.6c1.246-.181,2.231-0.321,3.317-0.542a0.213,0.213,0,0,0,.241-0.24,10.919,10.919,0,0,0-.181-1.625c-0.04-.22-0.121-0.22-0.3-0.16A21.66,21.66,0,0,1,176.767,783.238Zm4.462,1.9a17.339,17.339,0,0,1,4.161,2.186,0.279,0.279,0,0,0,.181.08,0.229,0.229,0,0,0,.181-0.141,12.234,12.234,0,0,0,.844-1.483,0.483,0.483,0,0,0,.08-0.241,0.3,0.3,0,0,0-.181-0.221,15.647,15.647,0,0,0-3.939-1.884,0.28,0.28,0,0,0-.422.14C181.872,783.94,181.571,784.541,181.229,785.143Zm10.679-2.988a10.728,10.728,0,0,1,.241,2.627,36.221,36.221,0,0,0,.483,5.835c0.543,3.388,2.191,5.233,3.758,5.233,1.407,0,2.654-1.083,3.417-3.128a0.613,0.613,0,0,0-.14-0.742,7.692,7.692,0,0,1-1.287-1.544c-0.784,2.086-1.286,2.788-1.929,2.788-0.844,0-1.367-1.364-1.648-2.948a25.159,25.159,0,0,1-.362-4.572,8.952,8.952,0,0,1,.181-1.965,1.746,1.746,0,0,0,.16-0.561,0.472,0.472,0,0,0-.321-0.361A8.731,8.731,0,0,0,191.908,782.155ZM202.2,785a13.5,13.5,0,0,1,3.759,7c0.04,0.241.181,0.3,0.422,0.221a6.847,6.847,0,0,0,1.568-.8,0.351,0.351,0,0,0,.221-0.441,13.255,13.255,0,0,0-3.94-6.858,0.308,0.308,0,0,0-.221-0.12,0.6,0.6,0,0,0-.221.08C203.466,784.241,202.963,784.521,202.2,785Zm18.721-.3c0-1.043,0-1.925.04-2.527a2.47,2.47,0,0,1,.242-1.082,0.6,0.6,0,0,0,.1-0.3,0.357,0.357,0,0,0-.322-0.341,18.511,18.511,0,0,0-2.572-.361,5.887,5.887,0,0,1,.281,1.825c0.02,1.022.04,2.045,0.06,2.767,0.041,1.9.1,3.809,0.342,6.436a14.075,14.075,0,0,0-1.688-.06c-2.493,0-4.4,1.263-4.4,3.068,0,1.844,1.809,2.947,4.281,2.947,2.694,0,3.98-1.283,4.06-3.007a3.892,3.892,0,0,0,.02-0.462,18.835,18.835,0,0,1,4.463,2.527c0.16,0.12.221,0.06,0.341-.06a8.943,8.943,0,0,0,1.065-1.685,0.217,0.217,0,0,0-.08-0.34,23.626,23.626,0,0,0-5.829-2.587c-0.2-1.9-.3-3.008-0.342-4.632a30.062,30.062,0,0,0,5.086-.9,0.21,0.21,0,0,0,.161-0.3,14.123,14.123,0,0,0-.483-1.7,0.168,0.168,0,0,0-.241-0.12A19.587,19.587,0,0,1,220.92,784.7Zm-1.769,8.642c0.061,0.842-.6,1.724-2.11,1.724-1.266,0-2.07-.341-2.07-1.022,0-.722.9-1.183,2.311-1.183a9.428,9.428,0,0,1,1.849.2Zm17-13.855a9.384,9.384,0,0,0-.6,1.884,0.3,0.3,0,0,0,.14.4,26.606,26.606,0,0,0,5.829,1.544c0.161,0.02.221-.08,0.282-0.28a16.259,16.259,0,0,0,.442-1.765,0.286,0.286,0,0,0-.261-0.361A25.332,25.332,0,0,1,236.15,779.489Zm-3.9,6.616a13.918,13.918,0,0,0,1.025,2.106,0.79,0.79,0,0,0,.563.441,0.728,0.728,0,0,0,.442-0.2,9.6,9.6,0,0,1,1.709-.962,6.737,6.737,0,0,1,3.156-.862c1.165,0,1.869.862,1.869,2.526a5.863,5.863,0,0,1-1.106,3.549,10.927,10.927,0,0,1-4.422,3.349,4.949,4.949,0,0,1,1.669,1.062,0.651,0.651,0,0,0,.482.261,0.909,0.909,0,0,0,.342-0.1,11.349,11.349,0,0,0,3.879-3.188,7.843,7.843,0,0,0,1.628-4.792c0-2.948-1.548-4.773-4.241-4.773a14.438,14.438,0,0,0-4.6,1A10.458,10.458,0,0,1,232.25,786.105Zm26.605,5.514a10.408,10.408,0,0,0-1.588-.12c-2.271,0-3.718,1.183-3.718,2.928,0,1.724,1.487,2.847,3.7,2.847,2.292,0,3.739-.923,3.739-2.928a14.99,14.99,0,0,1,2.452,1.685,0.313,0.313,0,0,0,.2.12,0.228,0.228,0,0,0,.181-0.14,12.271,12.271,0,0,0,.924-1.625,0.266,0.266,0,0,0-.12-0.421,15.765,15.765,0,0,0-3.618-1.864,26.1,26.1,0,0,1-.221-3.409,2.089,2.089,0,0,1,.08-0.822,2.48,2.48,0,0,0,.121-0.421,0.309,0.309,0,0,0-.282-0.321,10.833,10.833,0,0,0-2.19-.381,7.054,7.054,0,0,1,.16,1.424C258.694,789.113,258.735,790.336,258.855,791.619Zm0.04,1.9a2.213,2.213,0,0,1,.021.4,1.509,1.509,0,0,1-1.749,1.424c-1.146,0-1.709-.321-1.709-0.963,0-.761.784-1.162,1.789-1.162A5.142,5.142,0,0,1,258.9,793.524Zm-3.276-10.286c0.181-.6.342-1.223,0.483-1.7a2.2,2.2,0,0,1,.321-0.742,0.492,0.492,0,0,0,.181-0.381,0.343,0.343,0,0,0-.322-0.3,18.651,18.651,0,0,0-2.351-.421,7.714,7.714,0,0,1-.121,1.624c-0.141.722-.281,1.4-0.522,2.246-0.925.08-1.528,0.1-2.312,0.1-0.583,0-1.045-.02-1.869-0.08a10.366,10.366,0,0,0,.2,1.7c0.04,0.261.08,0.321,0.281,0.321,0.5,0.02.664,0.02,1.106,0.02,0.623,0,1.246,0,2.01-.04a40.41,40.41,0,0,1-3.478,7,0.383,0.383,0,0,0-.1.24,0.278,0.278,0,0,0,.141.221,9.475,9.475,0,0,0,1.387,1.023,0.553,0.553,0,0,0,.241.1,0.292,0.292,0,0,0,.221-0.2,55.328,55.328,0,0,0,3.919-8.6c1.246-.181,2.231-0.321,3.317-0.542a0.212,0.212,0,0,0,.241-0.24,10.789,10.789,0,0,0-.181-1.625c-0.04-.22-0.121-0.22-0.3-0.16A21.715,21.715,0,0,1,255.619,783.238Zm4.462,1.9a17.339,17.339,0,0,1,4.161,2.186,0.281,0.281,0,0,0,.181.08,0.229,0.229,0,0,0,.181-0.141,12.234,12.234,0,0,0,.844-1.483,0.483,0.483,0,0,0,.08-0.241,0.3,0.3,0,0,0-.181-0.221,15.647,15.647,0,0,0-3.939-1.884,0.28,0.28,0,0,0-.422.14C260.724,783.94,260.423,784.541,260.081,785.143Zm22.96,5.073c-0.242.14-.3,0.2-0.121,0.381l0.744,0.722c-1.206.1-2.573,0.2-3.98,0.26a22.011,22.011,0,0,0,2.151-1.744,1.5,1.5,0,0,1,.643-0.4,0.285,0.285,0,0,0,.06-0.562,13.623,13.623,0,0,0-1.688-.922,3.773,3.773,0,0,1-.744,1,23.623,23.623,0,0,1-2.492,2.225c-0.382-.3-0.764-0.581-1.146-0.862,0.523-.4,1-0.822,1.407-1.183a1.78,1.78,0,0,1,.623-0.441,0.315,0.315,0,0,0,.241-0.261,0.31,0.31,0,0,0-.241-0.28c-0.261-.141-0.583-0.281-0.925-0.442h7.2c1.789,0,2.412.041,2.533,0.041,0.2,0,.221-0.02.221-0.221v-1.223c0-.221-0.02-0.241-0.221-0.241-0.121,0-.744.04-2.533,0.04h-5.306v-0.982h2.854c1.93,0,2.613.04,2.734,0.04,0.221,0,.241-0.02.241-0.221V783.82c0-.2-0.02-0.221-0.241-0.221-0.121,0-.8.04-2.734,0.04h-2.854v-0.962h3.9c1.93,0,2.593.04,2.714,0.04,0.2,0,.221-0.02.221-0.221v-1.243c0-.2-0.02-0.22-0.221-0.22-0.121,0-.784.04-2.714,0.04h-3.9a2.645,2.645,0,0,1,.12-1.1,1.068,1.068,0,0,0,.1-0.421,0.286,0.286,0,0,0-.3-0.2c-0.7-.08-1.407-0.12-2.13-0.14a8.414,8.414,0,0,1,.141,1.865h-3.538c-1.93,0-2.573-.04-2.693-0.04-0.2,0-.221.02-0.221,0.22V782.5c0,0.2.02,0.221,0.221,0.221,0.12,0,.763-0.04,2.693-0.04h3.538v0.962h-2.412c-1.93,0-2.613-.04-2.734-0.04-0.221,0-.241.02-0.241,0.221v1.122c0,0.2.02,0.221,0.241,0.221,0.121,0,.8-0.04,2.734-0.04h2.412v0.982h-4.9c-1.789,0-2.412-.04-2.532-0.04-0.2,0-.221.02-0.221,0.241v1.223c0,0.2.02,0.221,0.221,0.221,0.12,0,.743-0.041,2.532-0.041h4.06a2.93,2.93,0,0,1-.4.562A9.535,9.535,0,0,1,275,789.334l-1.246-.722a0.273,0.273,0,0,0-.4.04l-1,.782a0.328,0.328,0,0,0-.161.2,0.188,0.188,0,0,0,.14.141,20.911,20.911,0,0,1,3.156,1.985c-1.206.04-2.412,0.06-3.578,0.08-0.623,0-1.266-.02-2.11-0.08a15.373,15.373,0,0,0,.382,1.784,0.318,0.318,0,0,0,.3.281,0.671,0.671,0,0,0,.322-0.1,2.054,2.054,0,0,1,.764-0.121c1.829-.06,3.839-0.16,5.849-0.26v2.185c0,1.264-.041,1.825-0.041,1.945,0,0.2.021,0.221,0.222,0.221H279.3c0.2,0,.221-0.02.221-0.221,0-.1-0.04-0.681-0.04-1.945V793.2c1.909-.12,3.779-0.26,5.407-0.421,0.281,0.4.563,0.8,0.824,1.223,0.1,0.181.141,0.181,0.4,0.021l1.146-.662c0.221-.14.241-0.2,0.12-0.381a20.334,20.334,0,0,0-2.975-3.268c-0.16-.161-0.2-0.161-0.422-0.041Zm-1.93,4.13c-0.2.141-.241,0.181-0.08,0.321a13.918,13.918,0,0,0,4.04,2.727,1.783,1.783,0,0,0,.462.14,0.666,0.666,0,0,0,.482-0.461,5.225,5.225,0,0,1,1-1.143A12.067,12.067,0,0,1,282.6,793.6c-0.16-.14-0.181-0.12-0.422.041Zm-6.774-.782a4.438,4.438,0,0,1-.8.822,12.733,12.733,0,0,1-3.477,1.705,4.672,4.672,0,0,1,.945,1.022,0.689,0.689,0,0,0,.462.442,1.627,1.627,0,0,0,.483-0.161,12.749,12.749,0,0,0,3.195-1.925,2.679,2.679,0,0,1,.664-0.441,0.325,0.325,0,0,0,.281-0.241,0.34,0.34,0,0,0-.2-0.3A14.285,14.285,0,0,0,274.337,793.564Zm28.586-11.449h2.352v13.394a1.572,1.572,0,0,0,.543,1.464,3.531,3.531,0,0,0,1.708.281,2.358,2.358,0,0,0,1.97-.582c0.342-.4.543-1.042,0.623-3.348,0.02-.522.06-0.582-0.442-0.722a3.964,3.964,0,0,1-1.186-.521c-0.02,2.045-.1,2.887-0.261,3.027a0.5,0.5,0,0,1-.443.141,0.462,0.462,0,0,1-.381-0.121,0.879,0.879,0,0,1-.081-0.581V783.84c0-2.226.04-3.349,0.04-3.489,0-.2-0.02-0.221-0.221-0.221-0.14,0-.583.04-1.969,0.04h-2.191c-1.367,0-1.769-.04-1.91-0.04-0.2,0-.221.02-0.221,0.221,0,0.1.02,0.842,0.02,2.266,0,2.105.02,3.328-.04,4.631-0.181,4.251-.643,6.617-1.91,8.281a1.443,1.443,0,0,0,.021-0.3c0-.822-0.021-1.845-0.021-2.767v-8.9c0-2.105.041-3.208,0.041-3.329,0-.2-0.02-0.22-0.221-0.22-0.141,0-.543.04-1.789,0.04h-1.97c-1.266,0-1.668-.04-1.789-0.04-0.221,0-.241.02-0.241,0.22,0,0.141.04,1.224,0.04,3.329v3.288c0,5.414-.442,7.459-1.648,9.384a4.112,4.112,0,0,1,1.166,1,0.741,0.741,0,0,0,.382.341,0.583,0.583,0,0,0,.341-0.4,14.391,14.391,0,0,0,1.508-5.855h2.271v3.308a0.586,0.586,0,0,1-.643.722,9.549,9.549,0,0,1-1.266-.08,4.737,4.737,0,0,1,.482,1.423c0.121,0.642.121,0.642,0.744,0.622a2.79,2.79,0,0,0,1.969-.541,1.587,1.587,0,0,0,.4-0.542,6.436,6.436,0,0,1,1.046.842,0.934,0.934,0,0,0,.422.341,0.641,0.641,0,0,0,.361-0.361,11.2,11.2,0,0,0,1.89-4.752,44.913,44.913,0,0,0,.5-8.321v-1.865Zm-8.06,7.359c0.02-.782.041-1.644,0.041-2.607v-0.32h2.11v2.927h-2.151Zm2.151-7.519V784.7H294.9v-2.747h2.11Zm30.315-2.065a0.241,0.241,0,0,0-.161.2,0.214,0.214,0,0,0,.1.181,13.86,13.86,0,0,1,.925,1.042h-1.93a6.209,6.209,0,0,1,.02-1.323,0.939,0.939,0,0,0,.1-0.361,0.264,0.264,0,0,0-.3-0.221c-0.583-.06-1.326-0.12-2.03-0.14,0.121,0.582.161,1.323,0.241,2.045h-6.009c-1.93,0-2.593-.04-2.714-0.04-0.221,0-.241.02-0.241,0.2,0,0.12.04,0.782,0.04,2.185a18.394,18.394,0,0,1-.382,4.271,7.72,7.72,0,0,1-1.447,3.188,5,5,0,0,1,1.287.862,0.986,0.986,0,0,0,.422.3,0.584,0.584,0,0,0,.361-0.4,11.012,11.012,0,0,0,1.347-3.509,24.042,24.042,0,0,0,.362-4.03V783h7.155a19.159,19.159,0,0,0,1.427,5.534,10.353,10.353,0,0,1-2.211,1.784c0-.18-0.02-0.5-0.02-1.1V787.89c0-.842.041-1.163,0.041-1.283,0-.2-0.021-0.221-0.222-0.221-0.14,0-.522.04-1.708,0.04h-1.889c-1.186,0-1.568-.04-1.709-0.04-0.2,0-.221.02-0.221,0.221,0,0.14.04,0.441,0.04,1.283v1.323c0,0.842-.04,1.143-0.04,1.284,0,0.2.02,0.22,0.221,0.22,0.141,0,.523-0.04,1.709-0.04h1.889c1.186,0,1.568.04,1.708,0.04s0.2,0,.222-0.1a6.479,6.479,0,0,1,.663.642,0.8,0.8,0,0,0,.442.38,1.261,1.261,0,0,0,.482-0.26,12.159,12.159,0,0,0,1.528-1.324,3.845,3.845,0,0,0,2.834,1.845c1.146,0,1.809-.742,2.312-2.426a1.826,1.826,0,0,0,.1-0.441c0-.2-0.141-0.281-0.523-0.461a4.161,4.161,0,0,1-1-.662c-0.241,1.363-.442,1.925-0.944,1.925a2.435,2.435,0,0,1-1.488-1.263,17.617,17.617,0,0,0,1.769-2.988,2.459,2.459,0,0,1,.4-0.6,0.443,0.443,0,0,0,.181-0.3,0.382,0.382,0,0,0-.241-0.281,11.656,11.656,0,0,0-1.628-.622,9.289,9.289,0,0,1-.382,1.244,12.9,12.9,0,0,1-.965,1.764A16.641,16.641,0,0,1,326.4,783h1.97c1.909,0,2.572.04,2.693,0.04,0.2,0,.221-0.02.221-0.221v-1.343c0-.181-0.02-0.2-0.221-0.2-0.1,0-.543.04-1.708,0.04l0.462-.3c0.181-.14.241-0.2,0.1-0.381a8.718,8.718,0,0,0-1.246-1.3,0.289,0.289,0,0,0-.422-0.02Zm-5.307,9.383H319.63V787.81h2.392v1.463Zm-1.487,4.051a1.678,1.678,0,0,1,.12-0.722,0.638,0.638,0,0,0,.1-0.341c0-.08-0.121-0.14-0.362-0.18a15.451,15.451,0,0,0-1.99-.121,7.841,7.841,0,0,1,.1,1.524v1.765a1.694,1.694,0,0,0,.743,1.744,8.923,8.923,0,0,0,3.478.4c2.09,0,3.2-.08,3.939-0.481a2.394,2.394,0,0,0,1.106-1.965c0.06-.541.06-0.541-0.463-0.7a5.082,5.082,0,0,1-1.447-.6c-0.02.962-.181,1.543-0.522,1.724a5.544,5.544,0,0,1-2.452.221,6.542,6.542,0,0,1-2.031-.181,0.824,0.824,0,0,1-.321-0.8v-1.283Zm-0.623-9.384c-1.186,0-1.669-.04-1.789-0.04-0.2,0-.221.02-0.221,0.24V785.3c0,0.2.02,0.221,0.221,0.221,0.12,0,.6-0.04,1.789-0.04h2.05c1.206,0,1.688.04,1.809,0.04,0.181,0,.2-0.02.2-0.221V784.14c0-.22-0.02-0.24-0.2-0.24-0.121,0-.6.04-1.809,0.04h-2.05Zm7.879,8.782c-0.241.141-.261,0.2-0.1,0.361a12.285,12.285,0,0,1,2.151,3.469c0.08,0.2.141,0.18,0.4,0.02l1.246-.762c0.261-.16.261-0.2,0.161-0.4a15.748,15.748,0,0,0-2.372-3.348,0.278,0.278,0,0,0-.181-0.121,0.678,0.678,0,0,0-.241.1Zm-12.522,4.151c0.221,0.12.281,0.12,0.4-.04a14.881,14.881,0,0,0,2.05-3.609c0.06-.2.04-0.241-0.221-0.361l-1.186-.522c-0.281-.12-0.322-0.12-0.4.1a11.57,11.57,0,0,1-2.03,3.348c-0.121.16-.121,0.241,0.12,0.381Zm6.492-4.993c-0.241.181-.241,0.2-0.08,0.361a13.542,13.542,0,0,1,1.748,2.085,0.206,0.206,0,0,0,.161.141,0.467,0.467,0,0,0,.261-0.141l1.045-.8c0.2-.14.181-0.18,0.061-0.321a11.077,11.077,0,0,0-1.89-1.985c-0.16-.12-0.221-0.12-0.422.02Zm24.227-1.9c1.708-.7,3.015-1.143,4.321-1.6a6.534,6.534,0,0,1,1.226-.3,0.291,0.291,0,0,0,.3-0.28,0.786,0.786,0,0,0-.161-0.441,12.376,12.376,0,0,0-1.407-1.765,6.076,6.076,0,0,1-1.528,1.083c-1.025.521-2.17,1.042-2.954,1.4a2.217,2.217,0,0,0-2.452-2.165,4,4,0,0,0-2.01.621l-0.021-.04a20.645,20.645,0,0,0,1.508-2.225c1.467-.161,3.2-0.381,4.7-0.6,0.282-.04.362-0.12,0.342-0.321a6.768,6.768,0,0,0-.2-1.443c-0.04-.181-0.1-0.241-0.322-0.2a32.489,32.489,0,0,1-3.658.622c0.241-.542.342-0.8,0.463-1.083a1.565,1.565,0,0,1,.341-0.481,0.386,0.386,0,0,0,.141-0.3,0.36,0.36,0,0,0-.241-0.341,12.738,12.738,0,0,0-2.292-.561,4.895,4.895,0,0,1-.14,1.223,15.4,15.4,0,0,1-.6,1.724,44.558,44.558,0,0,1-4.623.02c0.06,0.6.14,1.344,0.2,1.665,0.04,0.22.1,0.32,0.281,0.32,1.186,0,2.271-.02,3.216-0.06a20.513,20.513,0,0,1-4.2,4.973,0.279,0.279,0,0,0-.14.22,0.327,0.327,0,0,0,.08.181,9.5,9.5,0,0,0,1.146,1.323,0.4,0.4,0,0,0,.221.141,0.363,0.363,0,0,0,.241-0.181,27.028,27.028,0,0,1,2.01-2.185,4.855,4.855,0,0,1,2.774-1.444c0.9-.04,1.145.361,1.206,1.383-3.035,1.564-4.241,2.968-4.241,4.893,0,2.326,1.748,3.308,5.045,3.308a35.917,35.917,0,0,0,4.984-.26c0.161,0,.242-0.141.221-0.381a9,9,0,0,0-.18-1.645,0.215,0.215,0,0,0-.282-0.22,34.508,34.508,0,0,1-5,.4c-2.11,0-2.794-.541-2.794-1.384,0-.962.644-1.744,2.433-2.666-0.021.721-.021,1.724-0.021,2.446a0.264,0.264,0,0,0,.262.321,10.882,10.882,0,0,0,1.427-.1,0.353,0.353,0,0,0,.382-0.361v-3.228Zm19.4,0.4a11.752,11.752,0,0,1-5.085,4.411,5.763,5.763,0,0,1,.945,1.264,0.7,0.7,0,0,0,.381.461,1.278,1.278,0,0,0,.483-0.241,12.473,12.473,0,0,0,4.5-4.792c-0.02,2.547-.12,5.273-0.12,5.935,0,0.2.02,0.221,0.221,0.221h1.648c0.2,0,.221-0.02.221-0.221,0-.682-0.121-3.529-0.121-6.035a12.864,12.864,0,0,0,4.563,4.832,1.123,1.123,0,0,0,.462.221,0.534,0.534,0,0,0,.3-0.441,5.257,5.257,0,0,1,.8-1.524,11.568,11.568,0,0,1-5-4.091h1.668c1.97,0,2.653.04,2.774,0.04,0.181,0,.2-0.02.2-0.22v-1.484c0-.2-0.02-0.221-0.2-0.221-0.121,0-.8.041-2.774,0.041h-2.713v-1.825h1.306c1.809,0,2.412.04,2.553,0.04,0.2,0,.221-0.02.221-0.221,0-.12-0.04-0.621-0.04-1.764v-2.546c0-1.143.04-1.645,0.04-1.765,0-.2-0.02-0.221-0.221-0.221-0.141,0-.744.041-2.553,0.041H365.39c-1.809,0-2.432-.041-2.573-0.041-0.2,0-.221.021-0.221,0.221,0,0.14.04,0.622,0.04,1.765v2.546c0,1.143-.04,1.624-0.04,1.764,0,0.2.02,0.221,0.221,0.221,0.141,0,.764-0.04,2.573-0.04h1.146v1.825h-2.513c-1.99,0-2.673-.041-2.794-0.041-0.2,0-.221.021-0.221,0.221V790.2c0,0.2.02,0.22,0.221,0.22,0.121,0,.8-0.04,2.794-0.04h1.367Zm5.126-5.414h-5.849V782.1h5.849v2.867Zm-12.523,9.485c0,1.945-.04,2.907-0.04,3.027,0,0.2.02,0.221,0.2,0.221h1.689c0.2,0,.221-0.02.221-0.221,0-.1-0.04-1.082-0.04-3.027V784.14a26.969,26.969,0,0,0,1.226-2.807,1.659,1.659,0,0,1,.422-0.822,0.4,0.4,0,0,0,.221-0.341,0.36,0.36,0,0,0-.322-0.3,15.8,15.8,0,0,0-1.949-.6,6.713,6.713,0,0,1-.322,1.424,17.541,17.541,0,0,1-3.658,6.356,6.788,6.788,0,0,1,.7,1.724,0.409,0.409,0,0,0,.241.361,0.628,0.628,0,0,0,.322-0.261c0.382-.481.764-0.962,1.126-1.463-0.02.862-.041,1.784-0.041,2.526v4.512Zm24.489-10.868c-1.548.12-2.794,0.18-4.362,0.18,0.081,0.662.221,1.5,0.282,1.745a0.343,0.343,0,0,0,.382.281c1.025,0,2.291-.1,3.376-0.181-0.341,2-.623,3.489-1.065,5.253-0.08.3-.161,0.6-0.261,0.943a1.346,1.346,0,0,0-.081.4c0,0.18.121,0.261,0.442,0.4a5.679,5.679,0,0,0,1.508.441c0.181,0.02.241-.06,0.382-0.3,0.181-.26.382-0.5,0.563-0.762a6.69,6.69,0,0,1,5.286-2.486c1.527,0,2.291.862,2.291,1.9,0,1.263-.743,2.185-2.291,2.827a15.694,15.694,0,0,1-5.769,1.1,3.829,3.829,0,0,1,1.086,1.423,0.562,0.562,0,0,0,.5.482,9.25,9.25,0,0,0,1.488-.141,13.415,13.415,0,0,0,5.125-1.6,4.49,4.49,0,0,0,2.291-4.05c0-2.065-1.809-3.79-4.482-3.79a8.706,8.706,0,0,0-5.769,2.126c0.362-1.4.644-2.747,0.925-4.411,1.688-.221,2.774-0.442,4.5-0.823a0.259,0.259,0,0,0,.242-0.32,9.089,9.089,0,0,0-.141-1.484c-0.04-.261-0.141-0.281-0.422-0.2a36.7,36.7,0,0,1-3.779.742c0.1-.7.181-1.1,0.281-1.644a2.089,2.089,0,0,1,.342-0.742,0.658,0.658,0,0,0,.141-0.321,0.448,0.448,0,0,0-.4-0.361,13.285,13.285,0,0,0-2.412-.421,6.671,6.671,0,0,1,.04,1.945C382.663,782.216,382.582,782.877,382.482,783.579Zm25.737,8.04a10.417,10.417,0,0,0-1.588-.12c-2.272,0-3.719,1.183-3.719,2.928,0,1.724,1.488,2.847,3.7,2.847,2.291,0,3.738-.923,3.738-2.928a14.99,14.99,0,0,1,2.452,1.685,0.316,0.316,0,0,0,.2.12,0.226,0.226,0,0,0,.181-0.14,12.385,12.385,0,0,0,.925-1.625,0.266,0.266,0,0,0-.121-0.421,15.765,15.765,0,0,0-3.618-1.864,26.1,26.1,0,0,1-.221-3.409,2.089,2.089,0,0,1,.08-0.822,2.48,2.48,0,0,0,.121-0.421,0.308,0.308,0,0,0-.281-0.321,10.844,10.844,0,0,0-2.191-.381,7.057,7.057,0,0,1,.161,1.424C408.058,789.113,408.1,790.336,408.219,791.619Zm0.04,1.9a2.322,2.322,0,0,1,.02.4,1.509,1.509,0,0,1-1.749,1.424c-1.146,0-1.708-.321-1.708-0.963,0-.761.784-1.162,1.789-1.162A5.147,5.147,0,0,1,408.259,793.524Zm-3.277-10.286c0.181-.6.342-1.223,0.483-1.7a2.2,2.2,0,0,1,.321-0.742,0.492,0.492,0,0,0,.181-0.381,0.342,0.342,0,0,0-.321-0.3,18.669,18.669,0,0,0-2.352-.421,7.714,7.714,0,0,1-.121,1.624c-0.14.722-.281,1.4-0.522,2.246-0.925.08-1.528,0.1-2.312,0.1-0.582,0-1.045-.02-1.869-0.08a10.476,10.476,0,0,0,.2,1.7c0.04,0.261.081,0.321,0.282,0.321,0.5,0.02.663,0.02,1.105,0.02,0.623,0,1.246,0,2.01-.04a40.4,40.4,0,0,1-3.477,7,0.379,0.379,0,0,0-.1.24,0.278,0.278,0,0,0,.141.221,9.583,9.583,0,0,0,1.387,1.023,0.557,0.557,0,0,0,.241.1,0.291,0.291,0,0,0,.221-0.2,55.418,55.418,0,0,0,3.92-8.6c1.246-.181,2.231-0.321,3.316-0.542a0.212,0.212,0,0,0,.241-0.24,10.789,10.789,0,0,0-.181-1.625c-0.04-.22-0.12-0.22-0.3-0.16A21.715,21.715,0,0,1,404.982,783.238Zm4.463,1.9a17.35,17.35,0,0,1,4.16,2.186,0.283,0.283,0,0,0,.181.08,0.227,0.227,0,0,0,.181-0.141,12.234,12.234,0,0,0,.844-1.483,0.476,0.476,0,0,0,.081-0.241,0.3,0.3,0,0,0-.181-0.221,15.669,15.669,0,0,0-3.94-1.884,0.28,0.28,0,0,0-.422.14C410.088,783.94,409.786,784.541,409.445,785.143Zm22.859-3.509a9.969,9.969,0,0,1,2.03,2.326,0.211,0.211,0,0,0,.342.06l0.844-.621a0.2,0.2,0,0,0,.06-0.321,9.245,9.245,0,0,0-1.909-2.146,0.208,0.208,0,0,0-.3-0.04Zm1.849-1.323a9.473,9.473,0,0,1,2.01,2.306,0.207,0.207,0,0,0,.342.06l0.8-.622a0.232,0.232,0,0,0,.06-0.361,8.362,8.362,0,0,0-1.91-2.065,0.205,0.205,0,0,0-.3-0.04Zm-9.889,4.571c-0.784.121-1.528,0.221-2.372,0.3-0.884.08-1.769,0.14-2.653,0.14a18.274,18.274,0,0,0,.623,2.066,0.441,0.441,0,0,0,.643.26,5.943,5.943,0,0,1,1.106-.32c0.542-.1,1.186-0.221,1.97-0.341a42.305,42.305,0,0,1-3.679,7.86,0.372,0.372,0,0,0-.08.22,0.411,0.411,0,0,0,.161.3,9.055,9.055,0,0,0,1.387.882,0.329,0.329,0,0,0,.522-0.18,55.228,55.228,0,0,0,4.04-9.424,13.394,13.394,0,0,1,1.689-.141c0.884,0,1.145.442,1.145,1.845a15.456,15.456,0,0,1-.784,4.993,1.238,1.238,0,0,1-1.286,1.063,5.36,5.36,0,0,1-2.311-.522,5.719,5.719,0,0,1,.381,1.865,0.535,0.535,0,0,0,.362.561,5.33,5.33,0,0,0,2.091.3,2.876,2.876,0,0,0,2.713-1.885,17.05,17.05,0,0,0,1.085-6.276c0-2.566-1-3.869-2.874-3.869a15.443,15.443,0,0,0-1.608.08c0.262-.842.463-1.584,0.724-2.406a2.513,2.513,0,0,1,.4-0.762,0.4,0.4,0,0,0-.181-0.7,14.764,14.764,0,0,0-2.412-.662,13.683,13.683,0,0,1-.2,2.226C424.726,783.038,424.586,783.739,424.264,784.882Zm6.934-.16a13.559,13.559,0,0,1,3.3,5.193,0.285,0.285,0,0,0,.462.16,8.139,8.139,0,0,0,1.507-1,0.287,0.287,0,0,0,.081-0.4,13.415,13.415,0,0,0-3.337-4.872,0.281,0.281,0,0,0-.382-0.1A17.236,17.236,0,0,0,431.2,784.722Zm12.933-3.389a16.034,16.034,0,0,1,4.06,2.607,0.343,0.343,0,0,0,.241.14,0.357,0.357,0,0,0,.221-0.16,13.057,13.057,0,0,0,1.025-1.4,0.546,0.546,0,0,0,.1-0.24,0.278,0.278,0,0,0-.141-0.221,13.188,13.188,0,0,0-3.94-2.386,0.336,0.336,0,0,0-.381.1A10.926,10.926,0,0,0,444.131,781.333Zm-1.407,2.787a12.53,12.53,0,0,1-.181,1.8c-0.241,1.784-.5,4.15-0.623,6.476a0.337,0.337,0,0,0,.281.4,13.889,13.889,0,0,0,1.367.542c0.261,0.06.342,0.06,0.462-.141a5.507,5.507,0,0,1,.864-1.1c1.89-1.9,4.02-3.048,5.789-3.048,1.729,0,2.412.982,2.412,2.065,0,1.283-.744,2.326-2.372,3.028a16.737,16.737,0,0,1-5.527,1.123,5.129,5.129,0,0,1,1.367,1.7,0.635,0.635,0,0,0,.8.261,17.462,17.462,0,0,0,5.145-1.384,4.913,4.913,0,0,0,3.035-4.491c0-2.587-1.748-4.291-4.683-4.291a9.807,9.807,0,0,0-6.713,3.168,33.263,33.263,0,0,1,.482-3.649,3.772,3.772,0,0,1,.4-1.063,0.6,0.6,0,0,0,.1-0.3,0.432,0.432,0,0,0-.322-0.381A11.392,11.392,0,0,0,442.724,784.12Z" transform="translate(-44.656 -779.219)"/>
  <path id="したい方に" class="cls-1" d="M182.005,814.271a13.285,13.285,0,0,1,.2,3.669c-0.1,2.406-.281,5.293-0.281,8.662,0,3.068,1.206,4.09,3.778,4.09a11.5,11.5,0,0,0,7.618-3.007,0.834,0.834,0,0,0,.4-0.622,1.3,1.3,0,0,0-.161-0.481,6.942,6.942,0,0,1-.462-1.9c-2.452,2.607-5.246,3.689-7.035,3.689-1.608,0-1.849-.461-1.849-2.486,0-2.627.1-4.672,0.3-7.76a11.966,11.966,0,0,1,.282-2.446,1.946,1.946,0,0,0,.2-0.662c0-.2-0.141-0.3-0.483-0.381A20.861,20.861,0,0,0,182.005,814.271Zm22.965,3.288c0.141-.5.281-1.183,0.482-1.9a3.878,3.878,0,0,1,.422-0.8,0.479,0.479,0,0,0,.1-0.321,0.334,0.334,0,0,0-.221-0.321,11.749,11.749,0,0,0-2.533-.561,13.837,13.837,0,0,1-.12,1.845c-0.141.822-.3,1.7-0.5,2.506a27.309,27.309,0,0,1-3.256.2,9.165,9.165,0,0,1-1.487-.061c0.1,0.722.2,1.4,0.281,1.825,0.04,0.261.121,0.321,0.422,0.321,0.945,0,2.352-.1,3.518-0.221a75.027,75.027,0,0,1-3.478,9.5,0.323,0.323,0,0,0,.161.4c0.422,0.241,1.407.662,1.608,0.742,0.221,0.061.342,0.081,0.442-.2,1.287-3.329,2.312-6.4,3.679-10.848a32,32,0,0,0,3.5-.762c0.261-.06.322-0.12,0.3-0.381-0.02-.421-0.08-1-0.14-1.443a0.218,0.218,0,0,0-.322-0.2C206.839,817.158,205.754,817.419,204.97,817.559Zm0.362,9.2a3.9,3.9,0,0,0,.9,2.747c0.905,0.943,2.271,1.3,4.905,1.3a23.994,23.994,0,0,0,2.733-.221c0.322-.02.342-0.08,0.322-0.321a12.561,12.561,0,0,0-.161-1.744,0.175,0.175,0,0,0-.241-0.181,29.936,29.936,0,0,1-3.377.281c-1.93,0-2.914-.421-3.075-1.885a0.26,0.26,0,0,0-.3-0.28A10.283,10.283,0,0,0,205.332,826.762Zm1.568-3.789a22.259,22.259,0,0,1,4.04-.461,13.509,13.509,0,0,1,2.492.24c0.281,0.06.382-.02,0.382-0.361a14.185,14.185,0,0,0-.02-1.6c0-.24-0.061-0.261-0.342-0.3a14.707,14.707,0,0,0-2.352-.2,21.012,21.012,0,0,0-3.919.461c-0.3.06-.362,0.12-0.362,0.4C206.819,821.549,206.859,822.271,206.9,822.973Zm12.97-6.818a10.728,10.728,0,0,1,.241,2.627,36.221,36.221,0,0,0,.483,5.835c0.542,3.388,2.191,5.233,3.758,5.233,1.407,0,2.654-1.083,3.417-3.128a0.613,0.613,0,0,0-.14-0.742,7.658,7.658,0,0,1-1.287-1.544c-0.784,2.086-1.286,2.788-1.929,2.788-0.844,0-1.367-1.364-1.648-2.948a25.159,25.159,0,0,1-.362-4.572,8.952,8.952,0,0,1,.181-1.965,1.746,1.746,0,0,0,.16-0.561,0.472,0.472,0,0,0-.321-0.361A8.731,8.731,0,0,0,219.87,816.155ZM230.161,819a13.5,13.5,0,0,1,3.759,7c0.04,0.241.181,0.3,0.422,0.221a6.847,6.847,0,0,0,1.568-.8,0.351,0.351,0,0,0,.221-0.441,13.255,13.255,0,0,0-3.94-6.858,0.308,0.308,0,0,0-.221-0.12,0.6,0.6,0,0,0-.221.08C231.428,818.241,230.925,818.521,230.161,819Zm16.346-.321c-0.041,6.1-1.548,8.862-6.171,11.128a4.392,4.392,0,0,1,1.206,1.223,0.657,0.657,0,0,0,.4.441,1.43,1.43,0,0,0,.482-0.22,11.213,11.213,0,0,0,5.89-8.081h5.467a24.388,24.388,0,0,1-.623,5.093,1.122,1.122,0,0,1-1.186,1,19.508,19.508,0,0,1-2.473-.181,4.449,4.449,0,0,1,.443,1.544c0.08,0.642.08,0.682,0.643,0.722,0.663,0.04,1.226.04,1.588,0.04,2.01,0,2.794-.581,3.236-2.486a36.827,36.827,0,0,0,.663-5.955c0.02-.5.04-1.043,0.08-1.564,0-.221-0.04-0.281-0.241-0.281-0.12,0-.683.04-2.372,0.04h-4.924c0.08-.762.141-1.584,0.161-2.466h6.954c1.809,0,2.412.04,2.533,0.04,0.181,0,.2-0.02.2-0.241v-1.624c0-.22-0.02-0.24-0.2-0.24-0.121,0-.724.04-2.533,0.04h-5.286v-1.364a2.842,2.842,0,0,1,.121-1.163,1.223,1.223,0,0,0,.12-0.421,0.286,0.286,0,0,0-.321-0.22c-0.684-.061-1.468-0.1-2.191-0.1a10.012,10.012,0,0,1,.141,1.965v1.3h-4.925c-1.789,0-2.392-.04-2.532-0.04-0.2,0-.222.02-0.222,0.24v1.624c0,0.221.021,0.241,0.222,0.241,0.14,0,.743-0.04,2.532-0.04h3.116Zm18.276-3.87a16.177,16.177,0,0,1-.362,2.988,38.2,38.2,0,0,0-.683,6.576,18.747,18.747,0,0,0,.924,5.975,0.243,0.243,0,0,0,.261.221,9.934,9.934,0,0,0,1.649-.321,0.263,0.263,0,0,0,.261-0.26c0-.161-0.04-0.321-0.04-0.562a2.274,2.274,0,0,1,.06-0.621A19.526,19.526,0,0,1,268,825.78a0.557,0.557,0,0,0,.1-0.321,0.807,0.807,0,0,0-.14-0.3,5.191,5.191,0,0,1-.7-1.263c-0.583,1.4-.945,2.065-1.367,2.988a19.393,19.393,0,0,1-.12-2.346,32.407,32.407,0,0,1,.844-6.477,4.729,4.729,0,0,1,.482-1.423,1.123,1.123,0,0,0,.3-0.6,0.613,0.613,0,0,0-.463-0.481A8.922,8.922,0,0,0,264.783,814.812Zm4.623,10.346a4.414,4.414,0,0,0,.7,2.607c0.865,1.183,2.251,1.664,5.226,1.664a27.1,27.1,0,0,0,3.276-.22c0.342-.041.342-0.061,0.342-0.3a14.663,14.663,0,0,0-.121-1.725c-0.04-.26-0.08-0.28-0.281-0.26a28.95,28.95,0,0,1-3.839.26c-2.191,0-3.156-.5-3.276-1.884,0-.221-0.04-0.321-0.2-0.3Zm0.643-5.694a24.614,24.614,0,0,1,4.563-.461c1.025,0,2.07.04,3.276,0.12,0.181,0.02.241-.06,0.261-0.241,0.04-.561.04-1.1,0.04-1.7,0-.2-0.04-0.241-0.462-0.261-0.844-.08-1.769-0.12-2.975-0.12a32.085,32.085,0,0,0-4.361.361,0.293,0.293,0,0,0-.282.341C270.069,817.84,270.069,818.341,270.049,819.464Z" transform="translate(-44.656 -779.219)"/>
  <path id="_トーンアップ_" data-name=" トーンアップ " class="cls-2" d="M51.05,814.756a6.062,6.062,0,0,1,.164-2.194,1.227,1.227,0,0,0,.187-0.537,0.432,0.432,0,0,0-.444-0.4,17.388,17.388,0,0,0-2.925-.373,17.767,17.767,0,0,1,.234,3.454v11.484c0,1.494-.023,2.871-0.094,4.6,0,0.28.117,0.35,0.445,0.35a15.393,15.393,0,0,0,2.082,0c0.328,0,.445-0.07.421-0.35-0.047-1.681-.094-3.058-0.094-4.575v-5.158a25.889,25.889,0,0,1,6.154,2.988,0.359,0.359,0,0,0,.257.116,0.394,0.394,0,0,0,.3-0.256,13.73,13.73,0,0,0,1.006-2.031,0.431,0.431,0,0,0-.257-0.607,33.053,33.053,0,0,0-7.44-3.174v-3.338Zm26.05,8.123c1.731,0,3.463.023,5.218,0.046,0.328,0.024.421-.07,0.421-0.35a17.16,17.16,0,0,0,0-2.194c0-.28-0.07-0.35-0.421-0.327-1.8.024-3.6,0.07-5.381,0.07H69.4a30.07,30.07,0,0,1-5.054-.28,25.219,25.219,0,0,0,.351,2.824,0.514,0.514,0,0,0,.538.491,18.76,18.76,0,0,1,3.439-.28H77.1Zm11.173-7.329a24.758,24.758,0,0,1,4.773,3.8,0.489,0.489,0,0,0,.3.187,0.451,0.451,0,0,0,.281-0.187c0.328-.35,1.1-1.284,1.451-1.75a0.5,0.5,0,0,0,.14-0.3,0.537,0.537,0,0,0-.211-0.327,24.4,24.4,0,0,0-4.469-3.314,0.626,0.626,0,0,0-.3-0.117,0.438,0.438,0,0,0-.328.187C89.467,814.2,88.788,814.919,88.273,815.55ZM88.788,827.2a16.154,16.154,0,0,0,1.872,2.59,0.605,0.605,0,0,0,.4.257,0.647,0.647,0,0,0,.421-0.233,8.063,8.063,0,0,1,1.568-1.074,50.338,50.338,0,0,0,7.066-4.575,38.182,38.182,0,0,0,5.382-4.948,0.862,0.862,0,0,0,.257-1.144,10.38,10.38,0,0,1-.655-2.73,35.116,35.116,0,0,1-6.411,6.348,34.7,34.7,0,0,1-6.738,4.342A14.136,14.136,0,0,1,88.788,827.2Zm37.168-11.414a16.629,16.629,0,0,1-4.189,4.085,5.377,5.377,0,0,1,1.942.957,0.918,0.918,0,0,0,.562.233,0.673,0.673,0,0,0,.491-0.21,19.843,19.843,0,0,0,4.118-4.5,2.908,2.908,0,0,1,.632-0.677,0.608,0.608,0,0,0,.328-0.49,0.677,0.677,0,0,0-.188-0.42,11.934,11.934,0,0,0-1.4-1.47,0.8,0.8,0,0,0-.539-0.327,1.7,1.7,0,0,0-.444.163,4.925,4.925,0,0,1-1.615.14H115.614c-1.872,0-3.159-.046-4.75-0.163a21.945,21.945,0,0,0,.421,2.521,0.366,0.366,0,0,0,.422.35c1.38-.094,2.807-0.187,4.141-0.187h10.108Zm-13.688,13.561a6.59,6.59,0,0,1,2.129,1.19,0.664,0.664,0,0,0,.468.21,1.177,1.177,0,0,0,.655-0.233,12.163,12.163,0,0,0,4.259-4.645,14.237,14.237,0,0,0,1.38-6.419,2.131,2.131,0,0,1,.211-0.956,0.959,0.959,0,0,0,.117-0.421,0.426,0.426,0,0,0-.4-0.443,26.171,26.171,0,0,0-3.018-.444,8.431,8.431,0,0,1,.234,2.194,10.773,10.773,0,0,1-1.147,5.509A10.356,10.356,0,0,1,112.268,829.344Zm22.26-10.247a13.789,13.789,0,0,1,2.2,3.758c0.117,0.327.258,0.444,0.585,0.327a9.687,9.687,0,0,0,1.5-.724,0.411,0.411,0,0,0,.281-0.326,1.555,1.555,0,0,0-.094-0.35,12.49,12.49,0,0,0-2.012-3.455,0.42,0.42,0,0,0-.609-0.163C135.885,818.4,135.324,818.654,134.528,819.1Zm4.7-1.19a15.861,15.861,0,0,1,1.965,3.734c0.117,0.327.211,0.444,0.468,0.351a9.73,9.73,0,0,0,1.615-.724,0.413,0.413,0,0,0,.234-0.63,13.473,13.473,0,0,0-1.8-3.408,0.412,0.412,0,0,0-.608-0.187C140.705,817.207,140.167,817.464,139.231,817.907Zm7.37-.56a8.38,8.38,0,0,1-.538,2.474,24.174,24.174,0,0,1-3.159,5.625,20.318,20.318,0,0,1-5.615,4.855,5.287,5.287,0,0,1,1.989.98,0.535,0.535,0,0,0,.374.164,1.022,1.022,0,0,0,.562-0.257,18.717,18.717,0,0,0,4.819-4.5,28.41,28.41,0,0,0,3.533-6.209,3.229,3.229,0,0,1,.7-1.19,0.559,0.559,0,0,0,.258-0.42,0.574,0.574,0,0,0-.3-0.4A11.114,11.114,0,0,0,146.6,817.347Zm22.239-.537a19.632,19.632,0,0,1-3.954,6.652,22.613,22.613,0,0,1-7.651,5.835,6.944,6.944,0,0,1,2.176,1.284,0.821,0.821,0,0,0,.585.257,1.135,1.135,0,0,0,.632-0.21,26.259,26.259,0,0,0,6.645-5.555,27.5,27.5,0,0,0,4.539-7.586,2.786,2.786,0,0,1,.538-0.91,0.64,0.64,0,0,0,.234-0.444,0.8,0.8,0,0,0-.187-0.467,8.629,8.629,0,0,0-1.591-1.61,0.549,0.549,0,0,0-.4-0.164,0.75,0.75,0,0,0-.4.14,2.24,2.24,0,0,1-1.287.234H160.37a40.924,40.924,0,0,1-4.492-.164c0.047,0.677.14,1.891,0.211,2.358,0.046,0.327.14,0.49,0.444,0.467,1.006-.047,2.34-0.117,3.861-0.117h8.446Zm5.194-6.979a2.465,2.465,0,0,0-2.527,2.5A2.527,2.527,0,1,0,174.034,809.831Zm0,1.12a1.378,1.378,0,1,1-1.38,1.378A1.339,1.339,0,0,1,174.034,810.951Z" transform="translate(-44.656 -779.219)"/>
  <path id="で出てくる日やけ止め_" data-name="で出てくる日やけ止め   " class="cls-1" d="M88.43,853.025c-3.052,1.988-4.844,4.4-4.844,7.978,0,5.234,4.869,7.776,9.309,7.776,0.3,0,.4-0.151.479-0.528a8.938,8.938,0,0,0,.278-2.165c0-.276-0.151-0.377-0.555-0.377-4.39-.277-6.71-2.039-6.71-5.285,0-3.02,2.144-5.964,6.433-7.424a11.311,11.311,0,0,1,3.078-.554c0.328,0,.479-0.075.479-0.377a14.348,14.348,0,0,0-.277-2.215c-0.025-.176-0.151-0.327-0.53-0.277-6.509.856-12.058,1.687-15.161,2.14a34.961,34.961,0,0,1-4.011.427,17.467,17.467,0,0,0,.933,2.718,0.589,0.589,0,0,0,.479.378,1.468,1.468,0,0,0,.555-0.2c0.378-.125.631-0.176,1.589-0.4,2.7-.554,5.4-1.082,8.476-1.661v0.05Zm3.658,3.6a12.5,12.5,0,0,1,2.548,2.919,0.264,0.264,0,0,0,.429.076l1.06-.78a0.254,0.254,0,0,0,.076-0.4,11.6,11.6,0,0,0-2.4-2.693,0.259,0.259,0,0,0-.378-0.05Zm2.321-1.661a11.922,11.922,0,0,1,2.523,2.894,0.259,0.259,0,0,0,.429.076l1.009-.781a0.29,0.29,0,0,0,.076-0.453,10.54,10.54,0,0,0-2.4-2.592,0.258,0.258,0,0,0-.378-0.05Zm26.469,0.856h-5.171v-5.487a8.622,8.622,0,0,1,.126-2.315,1.408,1.408,0,0,0,.151-0.5c0-.151-0.151-0.227-0.378-0.252-0.883-.1-1.817-0.176-2.775-0.2a22.735,22.735,0,0,1,.176,3.246v5.512h-4.868v-2.743a7.1,7.1,0,0,1,.151-2.215,2.115,2.115,0,0,0,.126-0.5,0.346,0.346,0,0,0-.378-0.3c-0.858-.1-1.691-0.151-2.649-0.177a23.355,23.355,0,0,1,.151,3.222v3.775c0,1.51-.05,2.214-0.05,2.39,0,0.252.025,0.277,0.277,0.277h2.094c0.252,0,.278-0.025.278-0.277v-1.031h4.868v7.751H107.33v-1.863a6.6,6.6,0,0,1,.177-2.189,1.679,1.679,0,0,0,.151-0.5,0.391,0.391,0,0,0-.429-0.277c-0.857-.1-1.69-0.151-2.648-0.176a22.556,22.556,0,0,1,.151,3.171v3.321c0,1.41-.051,2.039-0.051,2.215,0,0.227.026,0.252,0.3,0.252h2.069c0.252,0,.277-0.025.277-0.252V868.4h14.355v1.157c0,0.227.025,0.252,0.277,0.252h2.069c0.252,0,.277-0.025.277-0.252,0-.151-0.05-0.8-0.05-2.214V864.3a7.815,7.815,0,0,1,.176-2.467,1.624,1.624,0,0,0,.126-0.5,0.37,0.37,0,0,0-.378-0.277c-0.858-.1-1.69-0.151-2.649-0.176a22.709,22.709,0,0,1,.152,3.2v1.913h-5.979v-7.751h5.171v0.931c0,0.277.025,0.3,0.3,0.3h2.094c0.227,0,.252-0.025.252-0.3,0-.151-0.05-0.881-0.05-2.391v-3.548a7.815,7.815,0,0,1,.176-2.467,1.624,1.624,0,0,0,.126-0.5,0.359,0.359,0,0,0-.4-0.277c-0.883-.1-1.69-0.151-2.624-0.176a28.417,28.417,0,0,1,.126,3.2v2.819Zm21.981-2.92c-3.052,1.988-4.843,4.4-4.843,7.978,0,5.235,4.869,7.776,9.309,7.776,0.3,0,.4-0.151.479-0.528a8.911,8.911,0,0,0,.278-2.164c0-.277-0.152-0.378-0.555-0.378-4.39-.277-6.711-2.038-6.711-5.285,0-3.02,2.144-5.964,6.433-7.424a11.275,11.275,0,0,1,3.078-.553c0.328,0,.479-0.076.479-0.378a14.338,14.338,0,0,0-.277-2.215c-0.026-.176-0.152-0.327-0.53-0.276-6.509.855-12.059,1.686-15.162,2.139a34.976,34.976,0,0,1-4.011.428,17.49,17.49,0,0,0,.934,2.717,0.587,0.587,0,0,0,.479.378,1.484,1.484,0,0,0,.555-0.2c0.378-.126.631-0.177,1.589-0.4,2.7-.554,5.4-1.082,8.476-1.661v0.05Zm23.554-5.259a7.275,7.275,0,0,1-1.362,1.887c-2.17,2.366-4.264,4.455-6.408,6.77a3.23,3.23,0,0,0-1.236,2.214,2.539,2.539,0,0,0,1.337,2.114,63.664,63.664,0,0,1,9.182,8.506,0.454,0.454,0,0,0,.3.227,0.648,0.648,0,0,0,.353-0.2c0.429-.378,1.161-1.108,1.741-1.737a0.43,0.43,0,0,0,.177-0.3,0.6,0.6,0,0,0-.177-0.327,69.882,69.882,0,0,0-9.384-7.927,0.625,0.625,0,0,1-.328-0.453,1.1,1.1,0,0,1,.328-0.554c1.942-2.013,4.717-4.605,6.887-6.543a4.788,4.788,0,0,1,1.21-.881,0.505,0.505,0,0,0,.354-0.478,0.618,0.618,0,0,0-.2-0.4A20.1,20.1,0,0,0,166.412,847.64Zm18.159,9.814c1.917-1.837,3.607-3.6,5.449-5.385a4.052,4.052,0,0,1,1.11-.8,0.667,0.667,0,0,0,.428-0.6,0.869,0.869,0,0,0-.277-0.6,9.521,9.521,0,0,0-1.69-1.611,0.9,0.9,0,0,0-.58-0.2,1.292,1.292,0,0,0-.48.2,6.65,6.65,0,0,1-1.387.377c-1.968.378-4.188,0.705-5.727,0.856a12.267,12.267,0,0,1-2.346-.05,12.018,12.018,0,0,0,.883,2.718,0.574,0.574,0,0,0,.555.428,1.879,1.879,0,0,0,.505-0.126,7.676,7.676,0,0,1,1.059-.3c1.564-.327,3.355-0.68,4.869-0.957-1.161,1.435-2.346,2.693-3.91,4.3a60.7,60.7,0,0,1-5.979,5.561,0.4,0.4,0,0,0-.126.579,11.262,11.262,0,0,0,1.488,1.636,0.624,0.624,0,0,0,.379.227,0.713,0.713,0,0,0,.428-0.277c0.757-.755,1.464-1.485,2.195-2.139a10.282,10.282,0,0,1,6.458-2.668,3.679,3.679,0,0,1,3.961,3.8,3.79,3.79,0,0,1-2.573,3.825,4.59,4.59,0,0,0-4.743-3.674,3.345,3.345,0,0,0-3.557,3.07c0,2.341,1.917,3.7,5.1,3.7,5.4,0,8.8-2.693,8.8-6.9,0-3.624-2.573-6.04-6.256-6.04a7.609,7.609,0,0,0-4.011,1.133Zm2.194,9.412a5.5,5.5,0,0,1-1.16.1c-1.514,0-2.195-.528-2.195-1.308a1.068,1.068,0,0,1,1.211-.957C185.681,864.7,186.437,865.482,186.765,866.866Zm19.26,2.794c0.252,0,.277-0.025.277-0.277v-1.359h10.57v1.233c0,0.252.026,0.277,0.278,0.277H219.4c0.252,0,.278-0.025.278-0.277,0-.151-0.051-1.636-0.051-8.858v-5.587c0-4.127.051-5.662,0.051-5.813,0-.277-0.026-0.3-0.278-0.3-0.151,0-1.034.05-3.481,0.05h-8.653c-2.447,0-3.305-.05-3.481-0.05-0.253,0-.278.025-0.278,0.3,0,0.151.051,1.686,0.051,6.568v4.857c0,7.3-.051,8.783-0.051,8.959,0,0.252.025,0.277,0.278,0.277h2.245Zm0.277-4.127v-6.09h10.57v6.09H206.3Zm0-14.295h10.57v5.738H206.3v-5.738Zm29.069,3.222a12.954,12.954,0,0,1-.455-1.334c-0.277-1.007-.353-1.384-0.5-1.938a4.612,4.612,0,0,1-.1-0.83,0.427,0.427,0,0,0-.378-0.529,18.023,18.023,0,0,0-3.381.378,8.728,8.728,0,0,1,1.161,2.088c0.5,1.334.857,2.341,1.16,3.247-1.514.654-2.371,0.956-2.926,1.157a12.105,12.105,0,0,1-2.473.655,16.9,16.9,0,0,0,1.539,2.466,0.914,0.914,0,0,0,.606.378,0.888,0.888,0,0,0,.479-0.252,6.655,6.655,0,0,1,1.312-.78c0.631-.3,1.438-0.68,2.4-1.133,1.363,3.775,2.447,7.173,3.633,11.174,0.076,0.252.152,0.3,0.328,0.277a11.462,11.462,0,0,0,2.17-.806c0.353-.176.328-0.276,0.227-0.6-1.312-3.9-2.573-7.424-3.911-11.2a42,42,0,0,1,4.163-1.661,11.521,11.521,0,0,1,3.734-.705c1.614,0,2.623.73,2.623,2.064,0,1.761-1.463,2.793-3.784,2.793a16.194,16.194,0,0,1-2.8-.252,6.488,6.488,0,0,1,1.236,2.416,0.6,0.6,0,0,0,.681.453c0.328,0.025.606,0.025,1.11,0.025,4.112,0,6.509-1.988,6.509-5.234,0-2.768-2.069-4.656-5.323-4.656a13.682,13.682,0,0,0-4.44.7C238.549,853.252,236.985,853.831,235.371,854.46Zm2.018-5.31a13.418,13.418,0,0,1,3.128,2.768,0.371,0.371,0,0,0,.2.126,0.461,0.461,0,0,0,.227-0.1,8.28,8.28,0,0,0,1.665-1.384,0.367,0.367,0,0,0,0-.554,13.2,13.2,0,0,0-2.725-2.29,0.435,0.435,0,0,0-.555,0C238.8,848.042,238.1,848.6,237.389,849.15Zm32.574,9.11a13.863,13.863,0,0,1-.782,5.612c-0.756,1.761-1.892,2.919-4.263,4.177a8.353,8.353,0,0,1,1.968,1.233,0.523,0.523,0,0,0,.5.227,1.125,1.125,0,0,0,.631-0.227,8.86,8.86,0,0,0,3.607-3.9,13.089,13.089,0,0,0,1.11-5.839l-0.025-3.875c1.161-.126,2.271-0.277,3.481-0.5a0.342,0.342,0,0,0,.328-0.453c-0.05-.654-0.1-1.258-0.2-1.887-0.026-.252-0.152-0.3-0.454-0.227-1.06.227-2.145,0.4-3.23,0.554v-2.793a3.052,3.052,0,0,1,.127-1.057,1.025,1.025,0,0,0,.176-0.5,0.427,0.427,0,0,0-.4-0.4,15.393,15.393,0,0,0-3.255-.353,7.857,7.857,0,0,1,.429,2.064c0.1,0.956.1,2.089,0.151,3.347-0.908.076-2.093,0.1-2.8,0.1-0.933,0-2.195-.025-3.128-0.126,0.126,1.107.177,1.787,0.278,2.29a0.475,0.475,0,0,0,.58.4c0.933,0.025,1.589.025,2.119,0,0.731,0,1.69-.051,3.027-0.151Zm-8.753,8.506a3.09,3.09,0,0,1,.075-0.654,18.864,18.864,0,0,1,1.135-3.071,1.871,1.871,0,0,0,.3-0.83,0.756,0.756,0,0,0-.227-0.478,7.32,7.32,0,0,1-.832-1.686c-0.606,1.409-1.06,2.264-1.691,3.6a21.424,21.424,0,0,1-.252-3.976,46.708,46.708,0,0,1,.959-7.55,14.222,14.222,0,0,1,.479-1.862,0.911,0.911,0,0,0,.151-0.5,0.758,0.758,0,0,0-.555-0.554,12.4,12.4,0,0,0-2.648-.881,27.2,27.2,0,0,1-.278,3.75,57.2,57.2,0,0,0-.757,8.053,21.452,21.452,0,0,0,1.489,7.8,0.459,0.459,0,0,0,.58.328,6.28,6.28,0,0,0,1.741-.529,0.364,0.364,0,0,0,.328-0.352v-0.6Zm39.437,2.164c2.245,0,3,.05,3.153.05,0.252,0,.277-0.025.277-0.276v-2.215c0-.252-0.025-0.277-0.277-0.277-0.151,0-.908.051-3.153,0.051H295.4v-8.23h3.179c2.624,0,3.557.051,3.734,0.051,0.252,0,.277-0.026.277-0.277v-2.19c0-.251-0.025-0.277-0.277-0.277-0.177,0-1.11.051-3.734,0.051H295.4v-4.807a8.678,8.678,0,0,1,.177-2.315,1.641,1.641,0,0,0,.151-0.579,0.405,0.405,0,0,0-.429-0.3c-0.883-.1-1.967-0.151-2.951-0.176a19.33,19.33,0,0,1,.227,3.4v15.654h-4.112v-10.52a7.257,7.257,0,0,1,.176-2.24,1.458,1.458,0,0,0,.127-0.5,0.392,0.392,0,0,0-.4-0.327c-0.883-.1-1.968-0.151-2.926-0.176a23.976,23.976,0,0,1,.2,3.523v10.243h-0.428c-2.246,0-3.028-.051-3.179-0.051-0.252,0-.278.025-0.278,0.277V868.7c0,0.251.026,0.276,0.278,0.276,0.151,0,.933-0.05,3.179-0.05h15.439ZM320.986,853.1a14.458,14.458,0,0,0-5.146,1.434c-0.152-.6-0.228-1.057-0.354-1.787a8.154,8.154,0,0,1-.1-1.434,0.577,0.577,0,0,0-.479-0.73,11.026,11.026,0,0,0-2.851-.4,11.327,11.327,0,0,1,.757,2.366c0.253,1.107.5,2.366,0.782,3.322a9.588,9.588,0,0,0-3.582,7.223c0,2.516,1.388,4.076,3.305,4.076,1.362,0,2.573-.654,4.213-2.39,0.277,0.327.479,0.528,0.681,0.73a0.549,0.549,0,0,0,.353.151,0.607,0.607,0,0,0,.353-0.126A7.208,7.208,0,0,0,320.481,864a8.84,8.84,0,0,1-1.084-1.284,45.292,45.292,0,0,0,3.683-7.348,4.7,4.7,0,0,1,4.541,4.756c0,4.379-4.112,5.939-7.543,6.644a5.141,5.141,0,0,1,1.639,1.661,0.762,0.762,0,0,0,1.035.428c5.02-1.234,7.744-3.926,7.744-8.406,0-4-2.749-6.669-6.735-7.3,0.328-1.007.555-1.611,0.706-2.013a4.16,4.16,0,0,1,.5-0.931,0.858,0.858,0,0,0,.176-0.428,0.541,0.541,0,0,0-.4-0.453,10.471,10.471,0,0,0-2.977-1.007,6.456,6.456,0,0,1-.051,1.711A19.193,19.193,0,0,1,320.986,853.1Zm-4.541,3.7a9.908,9.908,0,0,1,3.809-1.409,30.3,30.3,0,0,1-2.4,5.083A18.8,18.8,0,0,1,316.445,856.8Zm-2.069,1.661a25.942,25.942,0,0,0,1.741,4.077c-1.06,1.283-1.867,1.837-2.624,1.837-0.529,0-.883-0.679-0.883-1.535A7.035,7.035,0,0,1,314.376,858.461Z" transform="translate(-44.656 -779.219)"/>
  <path id="_泡_" data-name=" 泡 " class="cls-2" d="M54.626,854.98c0,0.322.029,0.351,0.323,0.351,0.176,0,.793-0.058,2.79-0.058h3.142v2.841H56.447c-1.615,0-2.379-.058-2.555-0.058-0.323,0-.352.029-0.352,0.351,0,0.176.059,0.967,0.059,2.549v5.6a3.184,3.184,0,0,0,.881,2.666c0.617,0.527,1.968.762,7.518,0.762,4.9,0,6.9-.264,7.782-1.026a4.325,4.325,0,0,0,1.322-2.841c0.117-.908.088-0.938-0.822-1.172a9.118,9.118,0,0,1-2.056-.791c-0.088,1.289-.206,1.933-0.675,2.4-0.441.44-1.762,0.645-5.374,0.645-4.111,0-4.875-.118-5.227-0.381a2.037,2.037,0,0,1-.294-1.494V860.78h4.375c1.674,0,2.379.059,2.555,0.059,0.323,0,.352-0.03.352-0.323,0-.175-0.059-0.937-0.059-2.578v-2.49c0-1.64.059-2.4,0.059-2.607,0-.293-0.029-0.322-0.352-0.322-0.176,0-.881.059-2.555,0.059H57.739c-2,0-2.613-.059-2.79-0.059a0.586,0.586,0,0,0-.264.029,23.694,23.694,0,0,0,1.733-2.4h10.4a71.2,71.2,0,0,1-.529,10.341c-0.176.908-.5,1.2-1,1.2A15.262,15.262,0,0,1,63,861.512a7.866,7.866,0,0,1,.528,2.051c0.117,0.967.147,0.967,1.057,0.967a9.636,9.636,0,0,0,2.408-.176,2.761,2.761,0,0,0,2.085-2.314c0.47-2.051.7-5.361,0.764-12.187,0-.674.059-1.406,0.117-2.168,0-.293-0.059-0.351-0.382-0.351-0.176,0-1,.058-3.465.058H57.974c0.235-.468.47-0.966,0.675-1.464a2.318,2.318,0,0,1,.529-0.938,0.609,0.609,0,0,0,.264-0.5,0.561,0.561,0,0,0-.5-0.439,19.3,19.3,0,0,0-2.731-.5,8.144,8.144,0,0,1-.5,1.728,20.579,20.579,0,0,1-5.022,7.148,7.6,7.6,0,0,1,1.556,1.406,1.243,1.243,0,0,0,.617.615,1.441,1.441,0,0,0,.587-0.468c0.411-.44.793-0.879,1.175-1.348v2.344Zm-9.72,13.241a18.8,18.8,0,0,0,2.291,1.611,1.359,1.359,0,0,0,.529.176,0.436,0.436,0,0,0,.411-0.352,4.062,4.062,0,0,1,.47-1.142,64.116,64.116,0,0,0,2.79-6.474,2.252,2.252,0,0,0,.176-0.674,1.066,1.066,0,0,0-.617-0.732,13.7,13.7,0,0,1-1.615-1.494,57.122,57.122,0,0,1-2.878,6.767A10.013,10.013,0,0,1,44.906,868.221Zm1.2-22.411a0.639,0.639,0,0,0-.206.352,0.322,0.322,0,0,0,.206.2,25.148,25.148,0,0,1,4.141,3.281c0.235,0.2.294,0.234,0.5-.088l1.351-1.816a0.752,0.752,0,0,0,.176-0.352,0.314,0.314,0,0,0-.176-0.234,24.042,24.042,0,0,0-4.082-3.076c-0.264-.146-0.323-0.146-0.558.146Zm-1.263,7.383a0.641,0.641,0,0,0-.176.351,0.322,0.322,0,0,0,.206.205,22.664,22.664,0,0,1,4.141,3.193,0.489,0.489,0,0,0,.264.176,0.3,0.3,0,0,0,.235-0.205l1.321-1.875a0.749,0.749,0,0,0,.176-0.351,0.459,0.459,0,0,0-.176-0.235,21.9,21.9,0,0,0-4.17-2.988c-0.264-.146-0.352-0.146-0.587.147Z" transform="translate(-44.656 -779.219)"/>
</svg>
