<?xml version="1.0" encoding="utf-8"?>
<!-- Generator: Adobe Illustrator 26.0.3, SVG Export Plug-In . SVG Version: 6.00 Build 0)  -->
<svg version="1.1" id="lead-product_sp.svg" xmlns="http://www.w3.org/2000/svg" xmlns:xlink="http://www.w3.org/1999/xlink"
	 x="0px" y="0px" viewBox="0 0 260.4 90.8" style="enable-background:new 0 0 260.4 90.8;" xml:space="preserve">
<style type="text/css">
	.st0{fill:#1147B4;}
</style>
<g>
	<path d="M19.7,16.7h-7.6v1.2H10V8.1c-0.4,0.5-0.8,1-1.2,1.4C8.7,9.4,8.6,9.3,8.5,9l0.3,1.4c-0.5,0.1-1.2,0.4-1.8,0.5v4.3
		c0,1-0.1,1.6-0.8,2c-0.5,0.4-1.4,0.4-2.6,0.4c0-0.5-0.3-1.4-0.5-2.1c0.7,0,1.3,0,1.4,0c0.3,0,0.3,0,0.3-0.3v-3.8L3,12L2.5,9.9
		c0.7-0.1,1.4-0.4,2.2-0.5V6.1h-2V4h2.1V0.8h2.1v3.4h1.8v2H6.9v2.7l1.2-0.3C7.8,8.4,7.6,8.1,7.3,7.8c1.7-1.7,3.1-4.3,3.9-7.1
		l2.1,0.5c-0.3,0.9-0.5,1.7-0.9,2.6h2.5c-0.3-0.8-0.7-1.6-1-2.4l1.8-0.8c0.5,0.8,1,1.8,1.3,2.5l-1,0.5h3.5v2h-2.9v1.6h2.7v2h-2.7V11
		h2.7v2h-2.7v1.7h3.1C19.7,14.7,19.7,16.7,19.7,16.7z M14.4,5.9h-2.2v1.6h2.2V5.9z M14.4,9.4h-2.2v1.7h2.2V9.4z M12.1,14.8h2.2v-1.7
		h-2.2V14.8z"/>
	<path d="M29.8,3.5c0.3,0.4,0.5,0.8,0.8,1.2h6.9v1.4h-5.1v0.8h4.3v3.3h-9.2l-0.1,0.7H37v1.4h-9.8l-0.1,0.5h10.2c0,0,0,0.4,0,0.7
		c-0.1,2.2-0.4,3.3-0.8,3.7c-0.3,0.4-0.7,0.5-1.2,0.5c-0.4,0-1,0.1-1.8,0c0-0.5-0.3-1.2-0.4-1.6c0.5,0,1,0,1.3,0s0.4,0,0.5-0.1
		s0.3-0.7,0.4-1.8h-2.2c0.4,0.5,0.8,1,1,1.4l-1.4,0.7c-0.1-0.5-0.7-1.2-1-1.7l1-0.5H25l0.7-4.2h-1.2c-0.1,2.5-0.5,5.5-1.8,7.6
		c-0.4-0.4-1.3-0.9-1.8-1c1.6-2.2,1.7-5.5,1.7-7.8v-4h6.1c-0.1-0.3-0.3-0.5-0.4-0.7L29.8,3.5z M24.8,3.3h-3.4V1.7h3.4V0.8h2.1v0.9
		h2.2v1.6h-2.2v0.9h-2.1V3.3z M23.7,16.9c0.5-0.7,0.9-1.6,1.2-2.4l1.6,0.7c-0.3,0.8-0.7,1.8-1.2,2.6L23.7,16.9z M24.4,6.1v0.8h2.1
		V6.1H24.4z M24.4,8.9h2.1V8.1h-2.1V8.9L24.4,8.9z M28.5,14.9c0.3,0.8,0.4,1.8,0.4,2.5l-1.7,0.3c0-0.7-0.1-1.7-0.3-2.5L28.5,14.9z
		 M30.6,6.1h-2.1v0.8h2.1V6.1z M28.5,8.9h2.1V8.1h-2.1V8.9z M30.7,14.5c0.4,0.7,0.7,1.6,0.8,2.2l-1.6,0.5c-0.1-0.7-0.4-1.6-0.8-2.4
		L30.7,14.5z M37.8,1.7v1.6h-3.5v0.9h-2.1V3.3h-2.4V1.7h2.4V0.8h2.1v0.9H37.8z M32.4,8.1v0.8h2.2V8.1H32.4z"/>
	<path d="M45,12.1c0-0.3-0.1-0.5-0.1-0.9c-3.7,0.5-4.3,0.7-4.8,0.9c-0.1-0.4-0.5-1.4-0.7-2c0.5-0.1,0.9-0.5,1.4-1.2
		c0.3-0.3,0.7-0.8,1.2-1.4c-1.4,0.1-1.8,0.3-2.1,0.4c-0.1-0.4-0.4-1.3-0.7-1.8c0.4-0.1,0.7-0.5,1-1c0.4-0.5,1.6-2.5,2.4-4.4l2,0.8
		C43.9,3,43,4.6,42,5.9l1.3-0.1c0.5-0.8,0.9-1.6,1.3-2.4l1.8,1.2c-1,1.8-2.4,3.8-3.8,5.4l2-0.3c-0.1-0.5-0.3-0.9-0.5-1.4l1.6-0.5
		c0.5,1.2,1,2.9,1.2,3.8L45,12.1z M41.8,13.1c-0.1,1.7-0.4,3.5-0.8,4.7c-0.4-0.3-1.3-0.5-1.7-0.7c0.4-1,0.7-2.7,0.8-4.3L41.8,13.1z
		 M43.9,12.7c0.3,1.3,0.5,3,0.5,4.1l-1.7,0.4c0-1.2-0.3-2.9-0.4-4.2L43.9,12.7z M45.8,12.1c0.4,1,0.8,2.5,1,3.4L45.2,16
		c-0.1-0.9-0.5-2.4-0.9-3.5L45.8,12.1z M52.4,1.3c-0.1,0.3-0.1,0.4-0.3,0.7c1.2,1.8,3,3.7,4.7,4.8c-0.5,0.4-1.3,1.2-1.6,1.7
		c-0.4-0.3-0.8-0.7-1.2-1v1.2h-6v-1c-0.4,0.4-0.8,0.7-1.2,0.9c-0.3-0.5-1-1.2-1.4-1.6c2.4-1.4,4.2-3.9,5.1-6.4L52.4,1.3z M47.2,10.1
		h8.2v7.7h-2.2v-0.9h-3.9v0.9h-2.1V10.1z M53.3,6.7c-0.8-0.9-1.4-1.8-2.1-2.7c-0.7,1-1.3,2-2.1,2.7H53.3z M49.3,12v3h3.9v-3H49.3z"
		/>
	<path d="M60.9,8.1c-0.7,1-1.3,2-2.1,2.6c-0.3-0.5-0.9-1.2-1.4-1.4c1.2-0.9,2.4-2.5,3.1-4.1h-2.6v-2h3V0.6H63v2.6h2.6V5H63v0.7
		c0.8,0.5,2.5,1.8,2.9,2.1l-1.2,1.7c-0.4-0.5-1-1.2-1.7-1.7v3.8h-2.1C60.9,11.6,60.9,8.1,60.9,8.1z M57.7,15.8
		c0.7-0.9,1.3-2.5,1.6-3.8l2,0.8c-0.4,1.3-0.9,2.9-1.6,4.1L57.7,15.8z M68.1,15.5c0.9,0,1-0.3,1-2.1c0.4,0.4,1.3,0.7,2,0.8
		c-0.3,2.6-0.9,3.3-2.9,3.3H65c-2.5,0-3.1-0.7-3.1-2.5v-2.5h2.2V15c0,0.5,0.1,0.7,1.2,0.7h2.9L68.1,15.5L68.1,15.5z M66,11l0.4,0.4
		V1.7h7.5v9.8h-7.2c0.7,0.7,1.4,1.4,2,2l-1.6,1.3c-0.5-0.7-1.6-1.8-2.4-2.5L66,11z M68.4,4.4h3.4v-1h-3.4V4.4z M68.4,7h3.4V6h-3.4V7
		z M68.4,9.8h3.4v-1h-3.4V9.8z M72.6,11.8c0.8,1.2,1.8,2.7,2.4,3.7l-2.1,1c-0.4-0.9-1.4-2.6-2.2-3.8L72.6,11.8z"/>
	<path d="M78.2,13.1c-0.1,1.6-0.4,3.4-0.8,4.4c-0.4-0.3-1.2-0.4-1.6-0.5c0.4-1,0.7-2.7,0.8-4.2L78.2,13.1z M81.9,7.7
		c0.7,1.2,1.2,2.6,1.3,3.7L81.6,12c0-0.3-0.1-0.5-0.1-0.8c-3.7,0.5-4.3,0.8-4.8,0.9c-0.1-0.4-0.4-1.3-0.5-1.7
		c0.4-0.1,0.8-0.5,1.4-1.2c0.3-0.3,0.7-0.8,1.2-1.6C77.4,7.7,77,7.9,76.7,8c-0.1-0.5-0.4-1.4-0.7-1.8c0.4-0.1,0.7-0.4,1-1
		c0.4-0.5,1.6-2.5,2.1-4.4l1.8,0.7c-0.7,1.6-1.6,3.1-2.5,4.4l1.3-0.1c0.6-0.8,1-1.8,1.4-2.7l1.6,1c-1,2-2.5,4.1-3.8,5.8L81,9.6
		c-0.1-0.5-0.4-1-0.7-1.6L81.9,7.7z M80.2,12.7c0.3,1.2,0.4,2.7,0.5,3.8l-1.6,0.4c0-1-0.3-2.6-0.4-3.8L80.2,12.7z M82.1,12
		c0.4,1.2,0.9,2.5,1,3.4l-1.4,0.5c-0.1-0.9-0.7-2.4-0.9-3.5L82.1,12z M93.1,16.6H86v1.2h-2V8.4c-0.3,0.4-0.5,0.7-0.8,1
		c-0.1-0.5-0.7-1.6-0.9-2.1c1.4-1.7,2.6-4.4,3.1-6.5l2.1,0.7c-0.3,0.8-0.7,1.7-1,2.6h2.2c-0.3-0.7-0.7-1.7-1-2.4l1.8-0.8
		c0.5,0.8,1,1.8,1.3,2.5L89.6,4h3.5v2h-2.9v1.6h2.5v2h-2.5v1.6h2.5v2h-2.5v1.7h3.1v1.8h-0.2V16.6z M88,5.9h-2.1v1.7H88V5.9z M88,9.5
		h-2.1v1.6H88V9.5z M85.9,14.6H88v-1.7h-2.1V14.6z"/>
	<path d="M100.2,10.4c-0.5,0.1-1,0.4-1.7,0.5v4.3c0,1-0.1,1.6-0.8,1.8c-0.5,0.4-1.3,0.4-2.5,0.4c0-0.5-0.3-1.4-0.5-2
		c0.7,0,1.3,0,1.6,0c0.3,0,0.3-0.1,0.3-0.3v-3.8l-2,0.5L94,9.9c0.7-0.1,1.4-0.4,2.4-0.7V6.1h-2.1v-2h2.1V0.8h2v3.4h1.4v2h-1.4v2.6
		l1.4-0.4L100.2,10.4z M111.4,2.9v2H107v1.4h3.7v2h-9.4v-2h3.7V4.8h-4.6v-2h4.6v-2h2.1v2h4.4L111.4,2.9L111.4,2.9z M109.3,9.8h2v2
		h-2v3.8c0,1-0.3,1.6-0.9,2c-0.7,0.3-1.7,0.4-3,0.4c-0.1-0.7-0.4-1.4-0.7-2.1c0.8,0,1.8,0,2.1,0s0.4,0,0.4-0.3v-3.7h-6.8v-2h6.8V8.6
		h2.1V9.8z M103.2,11.9c0.7,0.9,1.6,2.2,2.1,3l-1.8,1.2c-0.4-0.8-1.3-2.2-2-3.3L103.2,11.9z"/>
	<path d="M120.2,7.3l1.3,0.4c-0.9,5.5-3.5,8.6-7.5,10.2c-0.3-0.5-0.8-1.4-1.3-1.8c1.7-0.5,3.1-1.6,4.2-2.9c-0.5-0.5-1.2-1.2-1.8-1.6
		c-0.4,0.5-0.9,0.9-1.3,1.3c-0.3-0.4-0.9-1.4-1.3-1.8c1.8-1.3,3.3-3.5,4.2-5.9l2.1,0.5c-0.1,0.5-0.4,1.2-0.7,1.7h2L120.2,7.3z
		 M115.4,6.4h-2.1V2.6h6.9c-0.1-0.5-0.4-1-0.5-1.4l2.4-0.5c0.3,0.7,0.7,1.3,0.8,2h6.1v3.7h-2.2V4.6h-11.4
		C115.4,4.6,115.4,6.4,115.4,6.4z M116.9,9.1c-0.1,0.3-0.4,0.5-0.5,0.8c0.7,0.4,1.3,0.9,1.8,1.4c0.4-0.7,0.7-1.4,0.9-2.2
		C119.1,9.1,116.9,9.1,116.9,9.1z M126.9,15.5c0.7,0,0.8-0.4,0.8-2.2c0.5,0.4,1.3,0.7,2,0.8c-0.3,2.6-0.8,3.4-2.6,3.4h-2.6
		c-2,0-2.6-0.7-2.6-2.9v-8h6.5c0,0,0,0.5,0,0.8c0,3.3-0.1,4.6-0.5,5.1c-0.3,0.4-0.7,0.5-1,0.7s-1,0.1-1.7,0.1c0-0.7-0.3-1.4-0.5-2
		c0.5,0,0.9,0,1.2,0s0.4,0,0.5-0.3s0.1-0.9,0.3-2.5h-2.4v6c0,0.8,0.1,0.9,0.8,0.9C124.9,15.5,126.9,15.5,126.9,15.5z"/>
	<path d="M138.9,3.8h0.7v2.1h-0.7c0,2.1-0.4,4.7-1.7,7.2c0.9,0.8,1.7,1.6,2.4,2.2L138,17c-0.5-0.5-1.2-1.3-2-2.1
		c-0.9,1-2.1,2.1-3.5,2.9c-0.3-0.5-1-1.3-1.6-1.7c1.4-0.8,2.6-1.8,3.4-2.9c-1-0.9-2.1-1.8-3-2.6c0.4-1.2,0.8-2.7,1-4.4L131,6.3
		L130.8,4c0.5,0,1.2,0,2-0.1c0.1-1,0.3-2.2,0.4-3.3l2.4,0.1c-0.1,0.9-0.3,2-0.4,3l1.7-0.1V3h2.1L138.9,3.8L138.9,3.8z M134.6,6
		c-0.3,1.4-0.5,2.7-0.9,4.1c0.5,0.4,1.2,0.9,1.7,1.4c1-2,1.3-3.9,1.3-5.6L134.6,6z M147.1,2.6V17h-2.2v-1H142v1.3h-2.1V2.6H147.1z
		 M144.9,13.8V4.7H142V14h2.9V13.8z"/>
	<path d="M152.6,9.3c-0.7-0.7-2.2-1.4-3.4-2l1.2-1.6c1.2,0.4,2.7,1.2,3.4,1.8L152.6,9.3z M154.7,11.8c-0.9,2-2,4.1-3.1,5.8l-1.8-1.4
		c0.9-1.4,2.2-3.7,3.3-5.8L154.7,11.8z M153.7,4.4c-0.7-0.7-2.2-1.6-3.4-2.1l1.2-1.6c1.2,0.4,2.7,1.3,3.4,1.8L153.7,4.4z M165.4,9.7
		c-0.7,2-1.7,3.5-3,4.7c1.2,0.7,2.6,1,4.1,1.3c-0.5,0.5-1.2,1.3-1.4,2c-1.7-0.4-3.3-1-4.6-2c-1.6,0.9-3.4,1.6-5.4,2
		c-0.3-0.5-0.7-1.4-1-2c1.7-0.3,3.3-0.8,4.6-1.4c-0.9-0.8-1.6-1.7-2.2-2.9l1.4-0.5h-2.5v-2h8.1l0.4-0.1L165.4,9.7z M158.9,4.3
		c-0.7,2-1.6,3.7-2.9,4.8c-0.4-0.4-1.3-1-1.8-1.3c1.8-1.4,2.9-4.1,3.1-7.1l2.4,0.3c-0.1,0.4-0.1,0.9-0.3,1.3h6c0,0,0,0.5,0,0.8
		c-0.1,3-0.4,4.3-0.9,4.8c-0.4,0.4-0.8,0.5-1.4,0.7c-0.5,0-1.4,0-2.4,0c0-0.7-0.3-1.4-0.7-2c0.8,0.1,1.7,0.1,2,0.1s0.5,0,0.7-0.1
		c0.3-0.3,0.4-0.9,0.5-2.2h-4.3L158.9,4.3L158.9,4.3z M158.5,11.1c0.5,0.8,1.2,1.4,2,2.1c0.8-0.7,1.4-1.3,1.8-2.1H158.5z"/>
	<path d="M174.3,5c-0.3,0.5-0.5,0.9-0.8,1.4h8.5v9c0,1-0.3,1.7-0.9,2c-0.7,0.4-1.7,0.4-3.3,0.4c-0.1-0.7-0.4-1.6-0.7-2.1
		c0.9,0,2,0,2.4,0c0.3,0,0.4-0.1,0.4-0.4v-1H173c-0.3,1.4-0.9,2.7-2.1,3.7c-0.3-0.4-1.2-1.3-1.6-1.7c1.6-1.4,1.7-3.3,1.7-5.1V9.7
		c-0.7,0.8-1.4,1.4-2.2,2c-0.4-0.5-1-1.3-1.4-1.7c1.8-1.2,3.3-3.1,4.4-5.1h-3.9v-2h5c0.3-0.8,0.5-1.4,0.8-2.2l2.2,0.5
		c-0.1,0.5-0.4,1.2-0.5,1.7h8.9V5H174.3z M180.1,12.5v-1.2h-6.5c0,0.4,0,0.8,0,1.2H180.1z M180.1,8.4h-6.5v1.2h6.5V8.4z"/>
	<path d="M202.7,14.8V17h-16.6v-2.2h6.5V0.9h2.4v5.2h6.4v2.2H195v6.3h7.7V14.8z"/>
	<path d="M209.8,14c-0.1-0.9-0.7-2.6-0.9-3.5V18h-2v-7.7c-0.4,2-1.2,4.6-2.1,5.9c-0.1-0.7-0.5-1.8-0.9-2.5c0.7-1,1.4-3,1.7-4.3
		l1.3,0.5v-1h-2.6v-2h2.6v-6h2V6c0.4-1.2,0.8-3,0.9-4.2l1.8,0.4c-0.5,1.4-0.9,3.1-1.4,4.2L208.9,6v0.8h2.2v2h-2.2V10l0.9-0.8
		c0.3,0.4,1.2,2.5,1.3,3L209.8,14z M205.1,6.4c0-1.2-0.4-2.9-0.8-4.2l1.4-0.4c0.5,1.3,0.8,3.1,0.9,4.2L205.1,6.4z M213.8,8.2
		c0,2.9-0.4,7.1-2.2,9.5c-0.4-0.4-1.2-1.2-1.6-1.4c1.7-2.4,1.8-5.8,1.8-8.2v-5h4.1c-0.3-0.5-0.7-1.2-0.9-1.7l1.8-0.8
		c0.5,0.5,1,1.4,1.3,2l-1,0.4h4.3v2H214v3.3h-0.2V8.2z M221.3,15v2.1h-8.1V15h3v-4.3h-2.1V8.6h2.1v-3h2.1v3h2.5v2.1h-2.5V15H221.3z"
		/>
	<path d="M239.2,8.7c-0.5,2.4-1.3,4.2-2.5,5.6c0.9,0.7,2,1,3,1.4c-0.5,0.4-1,1.3-1.4,1.8c-1.2-0.4-2.4-1-3.3-1.7
		c-1,0.8-2.2,1.4-3.5,1.8c-0.3-0.5-0.8-1.3-1.2-1.7c-0.1,0.7-0.3,1-0.8,1.3c-0.7,0.3-1.6,0.4-2.9,0.4c0-0.5-0.4-1.3-0.5-1.8
		c0.8,0,1.7,0,2,0s0.4-0.1,0.4-0.4V10c-0.9,0.1-2,0.3-2.9,0.3c-0.1,2.5-0.5,5.4-1.4,7.5c-0.4-0.4-1.2-0.9-1.7-1
		c0.8-1.7,1-4.1,1.2-6.1l-1,0.1l-0.1-2l1.3-0.1V8.2V2.6h2c0.3-0.7,0.4-1.4,0.5-2l2.2,0.3c-0.3,0.7-0.5,1.2-0.7,1.7h2.7v5.5h0.4v1.7
		h-0.4v5.6c0,0.1,0,0.4,0,0.5c1.3-0.4,2.4-0.8,3.4-1.4c-1-1-1.7-2.4-2.4-3.9l1.2-0.4h-1.3v-2h6.4h0.4L239.2,8.7z M226.9,14.2
		c-0.3-0.8-0.9-2-1.4-2.7l1.3-0.7c0.5,0.8,1.2,2,1.4,2.6L226.9,14.2z M225.6,8.6c0.9-0.1,1.8-0.1,2.9-0.3v-4h-2.9v1.2l1.3-0.7
		c0.5,0.8,1.2,1.8,1.4,2.5l-1.4,0.8c-0.3-0.7-0.8-1.6-1.3-2.4v2.5V8.6z M233.7,4.2c0,1.4-0.3,3.1-1.7,4.1c-0.3-0.4-1.2-1-1.6-1.4
		c1.2-0.8,1.3-1.8,1.3-2.7V1.6h6v3.5c0,0.5,0,0.7,0.3,0.7h0.7c0.3,0,0.7,0,0.9-0.1c0,0.5,0.1,1.2,0.1,1.7c-0.3,0.1-0.7,0.1-1,0.1
		h-0.9c-1.7,0-2.1-0.8-2.1-2.5V3.4h-2.1v0.8C233.6,4.2,233.7,4.2,233.7,4.2z M233.3,10.3c0.5,1,1,2,1.8,2.9c0.7-0.8,1.2-1.7,1.6-2.9
		C236.7,10.3,233.3,10.3,233.3,10.3z"/>
	<path d="M257.4,3.5c0,0,0,0.8,0,1c-0.3,8.2-0.4,11.1-1.2,12c-0.5,0.7-1,0.9-1.7,1s-1.8,0.1-2.9,0c0-0.7-0.4-1.6-0.7-2.1
		c1.2,0.1,2.2,0.1,2.7,0.1c0.4,0,0.5-0.1,0.8-0.3c0.5-0.5,0.8-3.3,0.9-9.8h-3.9c-0.5,1-1,2.1-1.6,2.9c-0.3-0.3-0.9-0.7-1.4-1v8.5
		h-4.8v1.3h-2V3.6h2.1c0.3-0.9,0.5-2.1,0.5-3l2.4,0.4c-0.3,0.9-0.7,1.8-0.9,2.6h2.9v3c1-1.6,2-3.8,2.5-5.9l2.1,0.5
		c-0.3,0.8-0.4,1.6-0.7,2.4h4.8V3.5H257.4z M246.4,5.6h-2.9v3h2.9V5.6z M246.4,14v-3.5h-2.9V14H246.4z M252.6,13.1
		c-0.5-1-1.7-2.9-2.5-4.2l1.7-0.9c0.9,1.3,2.1,3,2.7,4.1L252.6,13.1z"/>
</g>
<g>
	<path class="st0" d="M19.9,47.2c1.3,1.8,3.1,3.7,4.8,4.8c-0.7,0.5-1.6,1.4-2,2.2c-1.4-1.2-2.9-2.9-4.1-4.8v5.9h-2.9v-5.6
		c-1.2,2-2.7,3.7-4.4,4.7c-0.5-0.7-1.3-1.7-2-2.2c2-1,3.9-2.9,5.2-4.8h-3.8l-1,1.6c-0.5-0.8-1.4-2-2.4-3v9.4H4.6v-8.5
		c-0.7,0.8-1.3,1.4-2,2c-0.3-0.8-1-2.5-1.4-3c2-1.6,3.9-4.2,5.2-6.8H1.6v-2.9h3.9c-0.5-0.9-1.3-2.1-2-3L6,31.9
		c0.8,1,1.8,2.2,2.2,3.1l-2,1.2H8l0.5-0.1l1.7,1.2c-0.8,1.8-1.7,3.8-2.9,5.6C7.5,43,7.8,43.2,8,43.4c0.7-0.8,1.3-1.7,1.6-2.4
		l1.7,1.4c-0.8,0.8-1.4,1.6-2.1,2.2c0.4,0.4,0.9,0.9,1.3,1.3v-1.4h5.4v-1.4h-4.6v-10h12.2v10.1h-4.7v1.4h5.8v2.6
		C24.6,47.2,19.9,47.2,19.9,47.2z M13.9,37H16v-1.7h-2.1V37z M13.9,40.8H16v-1.6h-2.1V40.8z M20.7,35.3h-2.2v1.6h2.2V35.3z
		 M20.7,39.2h-2.2v1.6h2.2V39.2z"/>
	<path class="st0" d="M46.7,52.2c0.1,0,0.3,0,0.3-0.1c0.1-0.1,0.1-0.3,0.1-0.9c0-0.5,0.1-1.7,0.1-3.1c0.7,0.5,1.6,1,2.4,1.3
		c0,1.3-0.1,3-0.3,3.7c-0.1,0.8-0.4,1.2-0.8,1.6c-0.4,0.3-0.9,0.4-1.4,0.4h-1.6c-0.5,0-1.3-0.3-1.7-0.7c-0.5-0.5-0.7-1-0.7-3.3V35.8
		h-2.7v7.3c0,3.8-0.3,9.2-2.7,12.4c-0.5-0.5-1.7-1.4-2.5-1.7c-0.1,0.3-0.4,0.5-0.8,0.8c-0.8,0.5-1.8,0.5-3.4,0.5
		c-0.1-0.8-0.4-2.1-0.8-2.7c0.9,0,1.8,0,2.1,0c0.3,0,0.4-0.1,0.4-0.4v-5.8c-0.7,0.7-1.3,1.2-1.8,1.8l-0.8-1.4
		c-0.3,3.1-0.8,6.5-1.8,8.9c-0.5-0.4-1.7-1.2-2.5-1.3c1.6-3.4,1.7-8.4,1.7-12V33h8v19c0,0.7,0,1.2-0.3,1.6c1.8-2.9,2.1-7.1,2.1-10.3
		V33H46v17.9c0,0.7,0,0.9,0.1,1c0,0.1,0.1,0.1,0.3,0.1h0.4L46.7,52.2L46.7,52.2z M30.4,42c0,1,0,2.1-0.1,3.3
		c0.8-0.5,1.7-1.2,2.6-1.8v-1.8l-0.8,0.7c-0.4-0.5-1-1.3-1.7-2L30.4,42L30.4,42z M30.4,35.7v2.9l0.8-0.7c0.5,0.5,1.2,1.2,1.7,1.7
		v-3.9H30.4z"/>
	<path class="st0" d="M73.3,38.7c-0.9,2.2-2.2,4.2-3.7,6c0.7,4.4,1.6,7.6,2.2,7.6c0.3,0,0.5-1.4,0.7-4.4c0.7,0.7,1.4,1.3,2.2,1.6
		c-0.4,4.4-1.2,5.6-3.1,5.6c-1.8,0-3.3-3.4-4.2-8c-0.4,0.4-0.9,0.7-1.3,1c0.8,1.7,1.7,3.9,2.1,5.2l-2.1,0.9
		c-0.3-0.8-0.5-1.8-0.9-2.9c-0.3,2.9-0.8,3.7-2.5,3.7h-2.1c-2.1,0-2.5-0.7-2.5-2.6V48h2.2L60,47.3l0.7-0.3h-3.5v-5.9h8v4.3
		c0.7-0.4,1.3-1,1.8-1.6c-0.3-2.2-0.5-4.7-0.7-7.1H55.9v2.4c0,4.3-0.4,11.5-2.6,16.1c-0.5-0.5-1.7-1.3-2.4-1.6
		c2.1-4.3,2.2-10.5,2.2-14.5v-4.7H66c0-0.8-0.1-1.7-0.1-2.5h2.7c0,0.8,0,1.7,0,2.5h2c-0.5-0.5-1.3-1.2-1.8-1.6l1.7-1.2
		c0.8,0.5,1.8,1.4,2.5,2l-1,0.8h1.8V37h-5c0.1,1.4,0.3,2.7,0.4,4.2c0.7-1,1.2-2.1,1.6-3.1L73.3,38.7z M54.5,53.5
		c0.7-1.3,1.2-3.5,1.3-5.2l2,0.7c-0.3,1.8-0.7,4.2-1.3,5.6L54.5,53.5z M65.2,40h-8.8v-2h8.8V40z M59.3,45h3.4v-1.8h-3.4V45z
		 M62.3,53c0.5,0,0.7-0.4,0.7-2.6c0.4,0.4,1.3,0.7,2,0.8c-0.3-0.9-0.7-1.7-0.9-2.5l1.8-0.8c-0.3-0.3-0.7-0.7-1-1h-3
		c0.7,1,1.3,2.4,1.7,3.1l-1.8,1c-0.3-0.8-0.8-1.7-1.3-2.7v4.1c0,0.7,0.1,0.7,0.7,0.7L62.3,53L62.3,53z"/>
	<path class="st0" d="M92.9,49c1.7,1.4,3.9,2.7,6.1,3.4c-0.7,0.5-1.6,1.7-2,2.4c-2.1-0.9-4.2-2.4-5.8-4.1v4.4h-2.9v-6.3h-2.4v6.3H83
		V51c-1.6,1.7-3.5,3-5.5,3.9c-0.4-0.7-1.3-1.7-1.8-2.2c2.1-0.8,4.2-2.1,5.8-3.7h-3.3v-2.2h5v-1.4h-7.1v-2.5h7.1v-1.3h-4.7v-2.4h4.7
		v-1.4h-6.7v-2.5h5c-0.5-0.8-1.3-1.6-2-2.1l2.7-1.3c1,0.8,2.2,2.1,2.7,3l-1,0.4h5.8c0.9-1,1.8-2.4,2.4-3.3l3.1,1
		c-0.7,0.8-1.3,1.6-2,2.4h4.7v2.5h-7.1v1.3h5.1v3.7h2.5v2.5h-2.5V49H92.9z M86.1,39.2h2.2v-1.4h-2.2V39.2z M86.1,42.9h2.2v-1.3h-2.2
		V42.9z M88.5,46.8v-1.4h-2.4v1.4H88.5z M91.2,41.5v1.3h2.2v-1.3H91.2z M93.4,45.2h-2.2v1.4h2.2V45.2z"/>
	<path class="st0" d="M117.5,50c2.5,1,5,2.2,6.5,3.1l-2.5,2.2c-1.7-1-4.6-2.6-7.2-3.8l1.3-1.6h-7.5l2.1,1.4c-2,1.4-5,3-7.5,3.8
		c-0.5-0.7-1.4-1.6-2.2-2.1c2.2-0.8,4.8-2.1,6.5-3.3h-6v-2.6h3.9v-14h14.9v14.1h3.8V50H117.5z M107.8,35.6v1.3h9v-1.3
		C116.9,35.6,107.8,35.6,107.8,35.6z M116.9,39h-9v1.3h9V39z M107.8,42.4v1.3h9v-1.3H107.8z M107.8,47.3h9v-1.4h-9V47.3z"/>
	<path class="st0" d="M129.4,43.4c-0.8-0.8-2.5-1.7-3.9-2.4l1.6-2.2c1.3,0.5,3.1,1.4,3.9,2.2L129.4,43.4z M125.7,53.5
		c0.9-2,2.2-5.1,3.3-8l2.4,1.6c-0.8,2.6-2,5.5-2.9,8L125.7,53.5z M128,32.3c1.3,0.5,3.1,1.6,3.9,2.4l-1.7,2.4
		c-0.8-0.8-2.5-1.8-3.9-2.5L128,32.3z M134.8,42v13.3h-2.6V33.1h7.2V42H134.8z M134.8,35.2v1.2h2.2v-1.2H134.8z M136.9,39.8v-1.3
		h-2.2v1.3H136.9z M144.5,52.6h-8.9v-2.1h3.1v-1.7h-2.5v-2.1h2.5v-1.4H136v-2.1h8.2v2.1h-3.1v1.4h2.5v2.1h-2.5v1.7h3.4L144.5,52.6
		L144.5,52.6z M147.9,52.3c0,1.3-0.3,2.1-1,2.5c-0.8,0.5-1.8,0.5-3.5,0.5c-0.1-0.8-0.4-2-0.8-2.6c0.9,0,1.8,0,2.1,0s0.4-0.1,0.4-0.4
		V42h-4.7v-8.9h7.5V52.3L147.9,52.3z M142.9,35.2v1.2h2.2v-1.2H142.9z M145.2,39.8v-1.3H143v1.3H145.2z"/>
	<path class="st0" d="M167.7,52.2c2.4,0,2.7-0.5,3.1-3.7c0.8,0.4,2,0.9,2.7,1c-0.5,4.1-1.6,5.2-5.8,5.2h-8.5c-4.6,0-6-0.9-6-4.4v-9
		c-0.5,0.4-1,0.8-1.4,1c-0.3-0.7-1-2.1-1.6-2.7c2.9-1.7,5.9-4.6,7.6-7.7l2.7,1c-0.3,0.4-0.4,0.8-0.7,1h5.8l0.5-0.1l1.8,1.4
		c-0.8,1.2-2,2.5-3,3.7h6v9.3H168v-0.8h-12v2.9c0,1.6,0.4,1.7,3.1,1.7h8.4v0.2H167.7z M158.1,36.6c-0.7,0.8-1.3,1.6-2.1,2.4h5.6
		c0.8-0.7,1.4-1.4,2.1-2.4H158.1z M156.2,44.6h4.6v-2.9h-4.6V44.6z M168.3,41.7h-4.6v3h4.6V41.7z"/>
	<path class="st0" d="M182.9,50c-0.3-1.3-0.8-3.5-1.2-4.8v10.1H179V44.9c-0.5,2.7-1.6,6.1-2.7,8.1c-0.3-0.9-0.8-2.5-1.2-3.3
		c0.9-1.4,2-4.1,2.4-5.9l1.6,0.7V43h-3.7v-2.6h3.7v-8.2h2.7v7.1c0.5-1.6,1-4.1,1.3-5.8l2.5,0.5c-0.7,2-1.3,4.3-2,5.8l-1.8-0.5v1h3
		V43h-3v1.6l1.3-1c0.3,0.7,1.6,3.4,1.8,4.1L182.9,50z M176.5,39.9c0-1.6-0.5-3.9-1-5.8l2-0.5c0.7,1.8,1.2,4.2,1.2,5.8L176.5,39.9z
		 M188.3,42.2c0,3.8-0.4,9.5-3,13.1c-0.5-0.5-1.6-1.6-2.2-2c2.2-3.1,2.5-7.7,2.5-11.1v-6.9h5.5c-0.4-0.8-0.9-1.6-1.3-2.2l2.5-1
		c0.7,0.8,1.3,2,1.7,2.6l-1.3,0.7h5.8v2.7h-10.1L188.3,42.2L188.3,42.2z M198.5,51.5v2.7h-11v-2.7h4.1v-5.9h-2.7v-2.9h2.7v-4.1h2.7
		v4.1h3.3v2.7h-3.3v5.9h4.2V51.5z"/>
	<path class="st0" d="M221.9,39.1c-0.5,3.8-1.4,6.9-2.9,9.5c1.2,1.8,2.7,3.3,4.4,4.3c-0.7,0.5-1.6,1.6-2.1,2.4c-1.6-1-3-2.5-4.2-4.1
		c-1.4,1.7-3.1,3.1-5.4,4.2c-0.4-0.5-1.4-1.7-2.1-2.2c2.5-1,4.4-2.6,5.8-4.6c-0.7-1.3-1.3-2.9-1.8-4.4c-0.3,0.5-0.7,1-1,1.6
		c-0.3-0.5-1.2-1.7-1.7-2.2l-1.2,0.7c-0.1-0.3-0.3-0.7-0.4-1c-0.4,1.3-0.8,2.6-1.3,3.8c1.3,1.4,2.4,2.9,3.1,4.1l-2.4,1.8
		c-0.5-0.9-1.3-2.1-2.2-3.3c-1.3,2.1-3,3.9-5,5.2c-0.4-0.5-1.4-1.7-2-2.2c2.1-1.3,3.8-3,5.1-5.2c-0.8-0.9-1.7-1.8-2.5-2.7
		c-0.3,0.4-0.5,0.7-0.7,0.9c-0.4-0.5-1.4-1.4-2-1.8c1.2-1.4,2.5-3.5,3.3-5.6l2.5,0.8c-0.8,1.8-1.8,3.8-2.9,5.4l1.8-1.3
		c0.5,0.5,1.2,1.2,1.7,1.7c0.3-0.8,0.5-1.7,0.8-2.6l2.4,0.4c-0.7-1.2-1.4-2.4-2.2-3.3l1.8-1h-8.5v-2.6h5c-0.3-0.8-0.8-1.8-1.3-2.6
		l2.5-0.9c0.7,0.9,1.3,2.1,1.6,2.9l-1.6,0.7h5.8v2.6h-2.9c0.9,1.2,2,2.6,2.6,3.8c1.4-2.6,2.4-6.1,2.9-9.9l2.7,0.4
		c-0.1,1.3-0.4,2.6-0.8,3.9h6.1V39h-1v0.1H221.9z M216.1,39.1c-0.1,0.5-0.4,1-0.5,1.6c0.4,1.8,1,3.5,1.7,5.1
		c0.8-1.8,1.3-4.1,1.7-6.7C219,39.1,216.1,39.1,216.1,39.1z"/>
	<path d="M241.4,40.4c0,0,0,0.8,0,1c-0.3,8.2-0.4,11.1-1.2,12c-0.5,0.7-1,0.9-1.7,1s-1.8,0.1-2.9,0c0-0.7-0.4-1.6-0.7-2.1
		c1.2,0.1,2.2,0.1,2.7,0.1c0.4,0,0.5-0.1,0.8-0.3c0.5-0.5,0.8-3.3,0.9-9.8h-3.9c-0.5,1-1,2.1-1.6,2.9c-0.3-0.3-0.9-0.7-1.4-1v8.5
		h-4.8V54h-2V40.5h2.1c0.3-0.9,0.5-2.1,0.5-3l2.4,0.4c-0.3,0.9-0.7,1.8-0.9,2.6h2.9v3c1-1.6,2-3.8,2.5-5.9l2.1,0.5
		c-0.3,0.8-0.4,1.6-0.7,2.4L241.4,40.4L241.4,40.4L241.4,40.4z M230.4,42.5h-2.9v3h2.9V42.5z M230.4,50.9v-3.5h-2.9v3.5H230.4z
		 M236.5,50c-0.5-1-1.7-2.9-2.5-4.2l1.7-0.9c0.9,1.3,2.1,3,2.7,4.1L236.5,50z"/>
	<path d="M252.8,37.7c0,0.8,0,1.7-0.1,2.9c0.3,2.5,1.4,9.4,7.7,12.2c-0.7,0.5-1.3,1.3-1.6,1.8c-4.1-2-6.1-5.5-7.2-8.6
		c-1,3.3-2.9,6.5-6.8,8.8c-0.4-0.5-1-1.3-1.8-1.8c7.5-3.9,7.1-12.2,7.2-15.3H252.8L252.8,37.7L252.8,37.7z"/>
</g>
<g>
	<path class="st0" d="M5,78.2c-0.9-0.8-2.7-1.8-4.2-2.5l1.6-2.2c1.4,0.5,3.4,1.4,4.3,2.2L5,78.2z M1.4,87.8c1.2-2,2.7-5.1,4.1-8
		l2.4,1.8c-1.2,2.6-2.5,5.5-3.8,8L1.4,87.8z M6.2,71.6c-0.9-0.8-2.7-2-4.2-2.6l1.7-2.2c1.4,0.5,3.4,1.6,4.3,2.4L6.2,71.6z M19.4,87
		c1.4,0,1.7-0.5,2-3.1c0.7,0.4,2,0.9,2.7,1c-0.4,3.7-1.3,4.7-4.4,4.7h-5.8c-3.5,0-4.6-0.9-4.6-4.1v-9.7L9,76.1
		c-0.5-0.5-1.8-1.4-2.5-1.8c2.1-1.8,3.7-4.8,4.7-7.8l2.9,0.8c-0.3,0.8-0.5,1.6-0.9,2.2H23c0,0,0,0.9,0,1.3c-0.1,8-0.3,11-0.9,11.9
		c-0.5,0.7-0.9,0.9-1.6,1s-1.4,0.1-2.5,0.1c0-0.5-0.1-1.3-0.4-1.8h-5.5v3.5c0,1.2,0.3,1.4,2,1.4L19.4,87L19.4,87z M11.8,72.4
		c-0.4,0.7-0.8,1.3-1.2,2H18v6.8c0.3,0,0.5,0,0.8,0s0.5-0.1,0.7-0.4c0.3-0.5,0.5-2.6,0.7-8.4H11.8z M15.1,77h-2.9v2.7h3V77H15.1z"/>
	<path class="st0" d="M29.9,78.2c-0.9-0.8-2.7-1.8-4.2-2.5l1.6-2.2c1.4,0.5,3.4,1.4,4.3,2.2L29.9,78.2z M26.2,87.8
		c1.2-2,2.7-5.1,4.1-8l2.4,1.7c-1.2,2.6-2.5,5.5-3.8,8L26.2,87.8z M31,71.6c-0.9-0.8-2.7-2-4.2-2.6l1.7-2.2c1.4,0.5,3.4,1.6,4.3,2.4
		L31,71.6z M44.3,87c1.4,0,1.7-0.5,2-3.1c0.7,0.4,2,0.9,2.7,1c-0.4,3.7-1.3,4.7-4.4,4.7h-5.8c-3.5,0-4.6-0.9-4.6-4.1v-9.7l-0.3,0.3
		c-0.5-0.5-1.8-1.4-2.5-1.8c2.1-1.8,3.7-4.8,4.7-7.8l2.9,0.8c-0.3,0.8-0.5,1.6-0.9,2.2h9.8c0,0,0,0.9,0,1.3c-0.1,8-0.3,11-0.9,11.9
		c-0.5,0.7-0.9,0.9-1.6,1c-0.7,0.1-1.4,0.1-2.5,0.1c0-0.5-0.1-1.3-0.4-1.8H37v3.5c0,1.2,0.3,1.4,2,1.4L44.3,87L44.3,87z M36.7,72.4
		c-0.4,0.7-0.8,1.3-1.2,2h7.3v6.8c0.3,0,0.5,0,0.8,0s0.5-0.1,0.7-0.4c0.3-0.5,0.5-2.6,0.7-8.4H36.7z M39.9,77h-3v2.7h3V77z"/>
	<path d="M57.2,73.7c-0.5,1.6-1.2,3.7-1.7,5.1c1.2,1.4,1.4,2.7,1.4,3.8c0,1.2-0.3,2-0.9,2.4c-0.3,0.3-0.7,0.4-1,0.4
		c-0.4,0-0.8,0-1.2,0c0-0.5-0.1-1.4-0.5-2c0.4,0,0.7,0,0.8,0c0.3,0,0.4,0,0.5-0.1c0.3-0.1,0.3-0.5,0.3-1c0-0.8-0.3-2-1.3-3.3
		c0.4-1.2,0.8-2.9,1-4.2H53v14.4h-2.1V73h4.3l0.3-0.1L57.2,73.7z M61.3,77.1c0,0.8,0,1.4-0.1,2.2h5.1c0,0,0,0.7,0,0.9
		c-0.1,5.4-0.4,7.5-0.9,8.1c-0.4,0.5-0.8,0.8-1.4,0.8c-0.5,0.1-1.4,0.1-2.4,0c0-0.7-0.3-1.6-0.7-2.2c0.8,0.1,1.6,0.1,2,0.1
		c0.3,0,0.5-0.1,0.7-0.3c0.4-0.4,0.5-1.8,0.7-5.6h-3c-0.5,3.4-1.6,6.1-4.8,8c-0.3-0.5-0.9-1.3-1.4-1.7c3.9-2.1,4.2-5.6,4.3-10.5H57
		v-1.8h4.4c-0.1-0.7-0.5-1.7-0.8-2.5l2-0.5c0.4,0.8,0.7,2,0.9,2.6l-1.6,0.4h5.4v2H61.3z"/>
	<path d="M70.9,85.9v1.4h-1.7V73.6h4.6V86L70.9,85.9L70.9,85.9z M70.9,75.4v3.3h1.2v-3.3H70.9z M72,84v-3.4h-1.2V84H72z M83.9,87.6
		c0.3,0,0.4-0.1,0.4-0.9c0.4,0.3,1,0.5,1.6,0.7c-0.1,1.4-0.7,1.8-1.8,1.8h-1.6c-1.6,0-2-0.5-2-2.1v-2.7H78V85h2v1.3h-2v1l2-0.3
		c0,0.5,0,1.2,0.1,1.6c-2.9,0.5-3.5,0.7-3.8,0.8c0-0.5-0.3-1.3-0.5-1.7c0.3-0.1,0.5-0.3,0.5-0.8v-2.6h-0.4c-0.3,1.7-0.7,3.5-1.6,4.8
		c-0.4-0.3-1.2-0.8-1.6-0.9c1.3-2.1,1.4-5,1.4-6.9v-2.6h4.4c-0.1-0.3-0.1-0.5-0.3-0.7h-0.7v-2.1h-2V78h-1.4v-3.3h4.8v2.7l0.9-0.3
		v-2.5h5.1V78h-1.6v-2.1h-2V78h-0.9c0.1,0.3,0.1,0.4,0.3,0.7h4.6V80h-3.4v0.8h3v3.5h-2.7V85h2.6v1.3h-2.6V87c0,0.4,0,0.5,0.4,0.5
		L83.9,87.6L83.9,87.6z M79.4,74.2H74v-1.4h5.4V74.2z M76.6,78c-0.1-0.4-0.4-1-0.5-1.6l1-0.3c0.3,0.5,0.5,1,0.5,1.4L76.6,78z
		 M76.3,82.1c0,0.3,0,0.7,0,0.9h1.2v-0.9H76.3z M76.3,80.1v0.8h1.2v-0.8H76.3z M80.4,80.1h-1.2v0.8h1.2V80.1z M80.4,82.1h-1.2V83
		h1.2V82.1z M85.5,74.2H80v-1.4h5.5V74.2z M82.3,78c-0.1-0.4-0.4-1-0.5-1.6L83,76c0.3,0.5,0.5,1,0.7,1.4L82.3,78z M82.2,82.1V83h1.2
		v-0.9H82.2z"/>
	<path d="M100.1,83.3c1,0.8,2.5,1.4,3.9,1.7c-0.4,0.4-1,1-1.3,1.6c-0.9-0.3-1.7-0.7-2.5-1.2c0.7,0.8,1.3,1.6,1.6,2.4l-1.8,0.9
		c-0.4-0.9-1.6-2.5-2.5-3.5l1.3-0.7c-0.4-0.4-0.9-0.8-1.2-1.2h-4.4c-0.5,0.5-1,1-1.6,1.4l1.4,0.5c-0.3,0.8-0.7,1.6-1.3,2.2
		c0.7,0,1.3,0,1.4,0c0.3,0,0.3,0,0.3-0.3v-3.7h2v2.1l1.3-0.5c0.5,0.9,1.2,2.1,1.3,2.9l-1.6,0.5c-0.1-0.7-0.7-1.7-1-2.6v1.6
		c0,0.9-0.1,1.3-0.8,1.6c-0.5,0.3-1.3,0.3-2.4,0.3c-0.1-0.5-0.4-1.2-0.5-1.7c-0.4,0.5-0.8,0.8-1.3,1.2L89,87.6
		c1-0.5,1.8-1.6,2.2-2.5c-0.8,0.5-1.8,1-3,1.6c-0.3-0.5-0.9-1.2-1.3-1.6c1.4-0.5,2.6-1,3.5-1.8h-3.1v-1.7H92
		c0.1-0.3,0.3-0.4,0.4-0.7h-3v-5.4h12.3v5.4h-6.9c-0.1,0.3-0.3,0.4-0.4,0.7h9.3v1.7C103.7,83.3,100.1,83.3,100.1,83.3z M91.2,74.7
		h-3.9V73h3.9v-0.9h2.2V73h1.8v1.7h-1.8v0.5h-2.1L91.2,74.7L91.2,74.7z M91.3,77.6h8.1v-0.8h-8.1V77.6z M91.3,79.6h8.1v-0.8h-8.1
		V79.6z M97.5,74.7h-1.8V73h1.8v-0.9h2.1V73h3.9v1.7h-3.9v0.5h-2.1V74.7z"/>
	<path d="M107.8,84.6c-0.3,1.6-0.8,3.3-1.2,4.3c-0.4-0.3-1.2-0.4-1.6-0.5c0.5-1,0.9-2.7,1.2-4.2L107.8,84.6z M111.6,83.3
		c0-0.3-0.1-0.4-0.1-0.7c-4.4,0.7-5.1,0.9-5.5,1c-0.1-0.4-0.4-1.3-0.7-1.8c0.5-0.1,0.9-0.5,1.6-1.2c0.3-0.3,0.8-0.9,1.3-1.6
		c-1.7,0.3-2.2,0.3-2.5,0.4c-0.1-0.4-0.4-1.3-0.7-1.7c0.4-0.1,0.7-0.4,1-1c0.4-0.5,1.7-2.6,2.5-4.6l1.8,0.8
		c-0.8,1.6-1.7,3.1-2.7,4.4l1.7-0.1c0.5-0.8,1-1.7,1.6-2.6l1.7,1c-1.2,2-2.7,4.1-4.3,5.6l2.5-0.4c-0.1-0.5-0.4-1-0.5-1.4l1.6-0.4
		c0.5,1.2,1,2.7,1.3,3.7L111.6,83.3z M109.8,84c0.3,1.2,0.5,2.7,0.5,3.8l-1.7,0.4c0-1-0.3-2.6-0.4-3.9L109.8,84z M111.9,83.5
		c0.4,1,0.9,2.4,1.2,3.1l-1.6,0.7c-0.1-0.9-0.7-2.2-1-3.3L111.9,83.5z M116.3,83.5c-0.4,1.7-1,3.4-1.7,4.4c-0.4-0.3-1.2-0.7-1.7-0.9
		c0.8-1,1.3-2.5,1.6-3.9L116.3,83.5z M118.7,82.1v5.1c0,0.9-0.1,1.4-0.7,1.7c-0.5,0.3-1.3,0.3-2.4,0.3c-0.1-0.5-0.3-1.3-0.5-1.8
		c0.5,0,1.2,0,1.3,0c0.3,0,0.3,0,0.3-0.3v-4.8c-2,0.3-2.4,0.4-2.7,0.5c-0.1-0.4-0.4-1.3-0.7-1.8c0.5-0.1,0.9-0.5,1.6-1.2
		c0.3-0.3,0.8-0.8,1.4-1.6c-1.7,0.1-2.1,0.3-2.4,0.4c-0.1-0.4-0.4-1.3-0.7-1.7c0.4-0.1,0.7-0.4,1-0.9c0.4-0.4,1.4-2.2,2.2-3.8
		l1.8,0.8c-0.7,1.3-1.4,2.6-2.4,3.7l1.7-0.1c0.5-0.8,1-1.6,1.6-2.4l1.6,1.2c-1.3,2-2.9,3.8-4.4,5.4l3.1-0.3
		c-0.3-0.5-0.7-1.2-0.9-1.7l1.6-0.8c0.8,1.3,1.7,2.9,2,4.1l-1.7,0.8c0-0.3-0.1-0.5-0.3-0.9L118.7,82.1z M120.9,83.1
		c0.7,1.3,1.3,2.9,1.6,4.1l-1.8,0.7c-0.3-1.2-0.9-2.9-1.4-4.1L120.9,83.1z"/>
</g>
</svg>
