<svg id="レイヤー_2" data-name="レイヤー 2" xmlns="http://www.w3.org/2000/svg" viewBox="0 0 38.78 40.08"><defs><style>.cls-1{fill:#fff;}</style></defs><g id="カートsvg"><path class="cls-1" d="M299.37,173.65a1.59,1.59,0,0,0-1.55,1.2L296.23,181h-28a1.61,1.61,0,0,0-1.54,2.05l4.6,16a1.62,1.62,0,0,0,1.54,1.16h18.41l-.7,2.68H273v2.83h18.52a1.61,1.61,0,0,0,1.56-1.2l7.23-28h5.12v-2.83Zm-6,18.29-1.4,5.42h-3.53v-5.42Zm2.09-8.11-1.36,5.28h-5.66v-5.28Zm-9.85,8.11v5.42h-6v-5.42Zm0-8.11v5.28h-6v-5.28Zm-8.41,0v5.28h-5.82l-1.52-5.28Zm0,8.11v5.42H273.8l-1.57-5.42Z" transform="translate(-266.67 -173.65)"/><path class="cls-1" d="M275.72,207.83a2.87,2.87,0,1,0,2.86,2.87A2.86,2.86,0,0,0,275.72,207.83Z" transform="translate(-266.67 -173.65)"/><path class="cls-1" d="M289.47,208a2.87,2.87,0,1,0,2.87,2.87A2.86,2.86,0,0,0,289.47,208Z" transform="translate(-266.67 -173.65)"/></g></svg>