<svg id="レイヤー_1" data-name="レイヤー 1" xmlns="http://www.w3.org/2000/svg" viewBox="0 0 31.4 25.53"><defs><style>.cls-1{fill:#ffffff;}</style></defs><g id="Logo_FIXED" data-name="Logo FIXED"><path class="cls-1" d="M9.8,25.53c11.9,0,18.4-9.9,18.4-18.4v-.8A12.51,12.51,0,0,0,31.4,3a12,12,0,0,1-3.7,1A6.29,6.29,0,0,0,30.5.43,13,13,0,0,1,26.4,2a6.47,6.47,0,0,0-11,5.9A18.3,18.3,0,0,1,2.1,1.13a6.5,6.5,0,0,0,2,8.6,6,6,0,0,1-2.9-.8V9a6.43,6.43,0,0,0,5.2,6.3,5.74,5.74,0,0,1-2.9.1,6.56,6.56,0,0,0,6,4.5,13,13,0,0,1-8,2.8,7.57,7.57,0,0,1-1.5-.1,17.85,17.85,0,0,0,9.8,2.9"/></g></svg>
