<?xml version="1.0" encoding="utf-8"?>
<!-- Generator: Adobe Illustrator 25.0.1, SVG Export Plug-In . SVG Version: 6.00 Build 0)  -->
<svg version="1.1" id="レイヤー_1" xmlns="http://www.w3.org/2000/svg" xmlns:xlink="http://www.w3.org/1999/xlink" x="0px"
	 y="0px" viewBox="0 0 400 400" style="enable-background:new 0 0 400 400;" xml:space="preserve">
<style type="text/css">
	.st0{fill:#1147B4;}
</style>
<g>
	<path class="st0" d="M200,0C89.5,0,0,89.5,0,200s89.5,200,200,200s200-89.5,200-200S310.5,0,200,0z M288.1,173.3
		c0.1,1.8,0.1,3.7,0.1,5.5c0,56.8-43.3,122.5-122.5,122.5c-23.4,0-46.3-6.7-66.1-19.1c3.4,0.3,6.8,0.6,10.2,0.6
		c19.4,0,38.2-6.5,53.5-18.5c-18.4-0.3-34.6-12.3-40.2-29.9c6.5,1.3,13.1,1,19.5-0.8c-20.1-4.1-34.6-21.7-34.6-42.2
		c0-0.2,0-0.3,0-0.5c6,3.4,12.7,5.2,19.6,5.4c-19-12.7-24.8-37.9-13.3-57.5c21.8,26.9,54.1,43.2,88.7,45
		c-3.5-14.9,1.3-30.6,12.4-41.1c17.4-16.4,44.7-15.5,60.9,1.8c9.7-1.9,18.9-5.5,27.4-10.5c-3.2,10-9.9,18.5-18.9,23.8
		c8.6-1,16.9-3.4,24.8-6.8C303.8,159.6,296.5,167.2,288.1,173.3z"/>
</g>
</svg>
