<svg id="レイヤー_1" data-name="レイヤー 1" xmlns="http://www.w3.org/2000/svg" viewBox="0 0 400 400"><defs><style>.cls-1{fill:#1147b4;}</style></defs><path class="cls-1" d="M283.13,200.43q0-23,0-45.93c0-1-.07-1.93-.12-2.9-.82-17.13-13.67-32.35-30.56-35.48-5.5-1-11.24-1-16.87-1-27.72,0-55.45-.28-83.16.26-18.45.37-35.09,17.39-35.28,35.79q-.48,48.6,0,97.23c.22,19.74,17.62,36.26,37.35,36.29q45.3.07,90.61,0c20.21,0,37.42-16.53,37.85-36.73.34-15.86.07-31.72.07-47.58Zm-83.26,53.95a54.76,54.76,0,0,1-54.21-54.85c0-29.54,24.74-54.11,54.49-54.06s54.32,24.77,54.31,54.78C254.44,229.66,229.31,254.59,199.87,254.38Zm56-98.62a12.25,12.25,0,0,1-11.69-12.08A11.8,11.8,0,0,1,256.52,132c6.78.12,11.54,5,11.49,11.88A11.82,11.82,0,0,1,255.92,155.76Z"/><path class="cls-1" d="M200.14,162c-20.54-.1-38,17.12-37.89,37.45.08,21.28,17.06,38.54,37.83,38.48,20.44-.07,37.76-17.41,37.72-37.78A38,38,0,0,0,200.14,162Z"/><path class="cls-1" d="M200,0A200,200,0,1,0,400,200,199.94,199.94,0,0,0,200,0ZM304.05,245.27c-.21,27.35-16.79,49.89-42,57.71-3.78,1.17-7.67,2-11.52,2.93h-101a20.89,20.89,0,0,0-2.72-.86c-22.56-4-38.4-16.54-46.73-37.9-2.26-5.81-3-12.23-4.36-18.37V150.26c.43-2.43.84-4.86,1.31-7.27A59.73,59.73,0,0,1,156,94.16c28.69-.13,57.37,0,86.06,0,35.48,0,61.61,25.47,62,60.94C304.36,185.13,304.29,215.21,304.05,245.27Z"/></svg>