<svg xmlns="http://www.w3.org/2000/svg" viewBox="0 0 35.4 35.4"><defs><style>.cls-1{fill:#1147b4;}.cls-2{fill:#fff;}</style></defs><g id="レイヤー_2" data-name="レイヤー 2"><g id="Icons"><circle class="cls-1" cx="17.7" cy="17.7" r="17.7"/><path class="cls-2" d="M14.55,9.54c0,2.6,3.2,6.19,5.57,6.26-2.37-.07-5.57,3.35-5.57,5.95h0c0-2.6-3.2-6-5.57-5.95,2.37-.07,5.57-3.66,5.57-6.26Z"/><path class="cls-2" d="M14.55,22.21a.46.46,0,0,1-.46-.46h0a6.14,6.14,0,0,0-2-3.93A4.74,4.74,0,0,0,9,16.26a.47.47,0,0,1-.48-.45h0A.47.47,0,0,1,9,15.33c2.11-.05,5.12-3.47,5.12-5.79a.46.46,0,0,1,.46-.46h0a.46.46,0,0,1,.46.38.22.22,0,0,1,0,.08c0,2.33,3,5.74,5.11,5.79a.47.47,0,0,1,.46.47h0a.45.45,0,0,1-.47.45,4.7,4.7,0,0,0-3.05,1.56,6.14,6.14,0,0,0-2,3.93A.46.46,0,0,1,14.55,22.21Zm0-2.87a.6.6,0,0,1,.2,0,8.58,8.58,0,0,1,1.66-2.22,7.5,7.5,0,0,1,1.95-1.39,9.05,9.05,0,0,1-3.64-3.83l-.17,0h0l-.17,0a9,9,0,0,1-3.63,3.83,7.5,7.5,0,0,1,1.95,1.39,8.82,8.82,0,0,1,1.66,2.22.54.54,0,0,1,.19,0Z"/><path class="cls-2" d="M23.25,18.71c0,1.56,1.93,3.72,3.35,3.76-1.42,0-3.35,2-3.35,3.58h0c0-1.56-1.92-3.61-3.34-3.57,1.42,0,3.34-2.2,3.34-3.76Z"/><path class="cls-2" d="M23.25,26.32a.27.27,0,0,1-.27-.27h0a3.74,3.74,0,0,0-1.23-2.36,2.86,2.86,0,0,0-1.84-.93.28.28,0,0,1-.28-.27h0a.28.28,0,0,1,.27-.28c1.26,0,3.08-2.09,3.08-3.48a.27.27,0,0,1,.27-.28h0a.28.28,0,0,1,.28.23v.05c0,1.39,1.81,3.44,3.08,3.48a.28.28,0,0,1,.27.28h0a.29.29,0,0,1-.29.27,2.84,2.84,0,0,0-1.83.93,3.69,3.69,0,0,0-1.23,2.37A.27.27,0,0,1,23.25,26.32Zm0-1.72h.12a5.33,5.33,0,0,1,1-1.33,4.56,4.56,0,0,1,1.17-.84,5.39,5.39,0,0,1-2.18-2.3l-.11,0h0l-.1,0A5.45,5.45,0,0,1,21,22.44a4.56,4.56,0,0,1,1.17.84,5.33,5.33,0,0,1,1,1.33Z"/></g></g></svg>