<svg id="name-yt.svg" xmlns="http://www.w3.org/2000/svg" width="181.376" height="33.85" viewBox="0 0 181.376 33.85">
  <defs>
    <style>
      .cls-1 {
        fill-rule: evenodd;
      }
    </style>
  </defs>
  <path id="KOSE_COSMEPORT" data-name="KOSE COSMEPORT" class="cls-1" d="M780.682,9285.81h1.723v-2.84l1.526-1.57,3.347,4.41h2.1l-4.271-5.58,4.089-4.22h-2.129l-4.663,4.93v-4.93h-1.723v9.8Zm14.086,0.17a5.023,5.023,0,0,0,5.14-5.07v-0.03a5.127,5.127,0,0,0-10.252.03v0.03A4.974,4.974,0,0,0,794.768,9285.98Zm0.028-1.6a3.341,3.341,0,0,1-3.333-3.47v-0.03a3.315,3.315,0,0,1,3.305-3.46,3.364,3.364,0,0,1,3.333,3.49v0.03A3.3,3.3,0,0,1,794.8,9284.38Zm10.555,1.57c2.059,0,3.5-1.09,3.5-2.92V9283c0-1.63-1.065-2.37-3.137-2.87-1.891-.45-2.339-0.79-2.339-1.54v-0.03a1.348,1.348,0,0,1,1.6-1.16,4.491,4.491,0,0,1,2.661,1l0.924-1.3a5.421,5.421,0,0,0-3.557-1.23c-1.946,0-3.347,1.16-3.347,2.84v0.03c0,1.81,1.177,2.42,3.263,2.93,1.821,0.42,2.213.8,2.213,1.5v0.02c0,0.73-.672,1.24-1.737,1.24a4.559,4.559,0,0,1-3.1-1.28l-1.036,1.23A5.994,5.994,0,0,0,805.351,9285.95Zm5.529-.14h7.339v-1.54H812.6v-2.63h4.915v-1.54H812.6v-2.55h5.546v-1.54H810.88v9.8Zm18.132,0.17a5.042,5.042,0,0,0,3.977-1.74l-1.106-1.12a3.81,3.81,0,0,1-2.815,1.26,3.3,3.3,0,0,1-3.236-3.47v-0.03a3.3,3.3,0,0,1,3.236-3.46,3.9,3.9,0,0,1,2.745,1.22l1.106-1.27a5.1,5.1,0,0,0-3.837-1.53,4.959,4.959,0,0,0-5.056,5.07v0.03A4.932,4.932,0,0,0,829.012,9285.98Zm10.178,0a5.022,5.022,0,0,0,5.139-5.07v-0.03a5.126,5.126,0,0,0-10.251.03v0.03A4.974,4.974,0,0,0,839.19,9285.98Zm0.028-1.6a3.341,3.341,0,0,1-3.333-3.47v-0.03a3.315,3.315,0,0,1,3.305-3.46,3.364,3.364,0,0,1,3.333,3.49v0.03A3.3,3.3,0,0,1,839.218,9284.38Zm10.555,1.57c2.059,0,3.5-1.09,3.5-2.92V9283c0-1.63-1.064-2.37-3.137-2.87-1.89-.45-2.338-0.79-2.338-1.54v-0.03a1.348,1.348,0,0,1,1.6-1.16,4.493,4.493,0,0,1,2.661,1l0.924-1.3a5.421,5.421,0,0,0-3.557-1.23c-1.947,0-3.347,1.16-3.347,2.84v0.03c0,1.81,1.176,2.42,3.263,2.93,1.821,0.42,2.213.8,2.213,1.5v0.02c0,0.73-.672,1.24-1.737,1.24a4.559,4.559,0,0,1-3.1-1.28l-1.036,1.23A5.994,5.994,0,0,0,849.773,9285.95Zm5.529-.14H857v-7l3.067,4.59h0.056l3.1-4.62v7.03h1.722v-9.8H863.1l-2.983,4.64-2.983-4.64H855.3v9.8Zm12.152,0h7.338v-1.54h-5.615v-2.63h4.915v-1.54h-4.915v-2.55h5.545v-1.54h-7.268v9.8Zm9.38,0h1.723v-3.15H880.5c2.157,0,3.922-1.15,3.922-3.34v-0.03c0-1.98-1.429-3.28-3.726-3.28h-3.865v9.8Zm1.723-4.7v-3.53h2c1.289,0,2.115.6,2.115,1.75v0.03a1.847,1.847,0,0,1-2.115,1.75h-2Zm12.307,4.87a5.022,5.022,0,0,0,5.139-5.07v-0.03a5.126,5.126,0,0,0-10.251.03v0.03A4.974,4.974,0,0,0,890.864,9285.98Zm0.028-1.6a3.342,3.342,0,0,1-3.334-3.47v-0.03a3.316,3.316,0,0,1,3.306-3.46,3.364,3.364,0,0,1,3.333,3.49v0.03A3.3,3.3,0,0,1,890.892,9284.38Zm7.194,1.43h1.722v-3.41h2.157l2.409,3.41h2.045l-2.647-3.71a2.944,2.944,0,0,0,2.325-2.97v-0.03a2.957,2.957,0,0,0-.813-2.11,3.932,3.932,0,0,0-2.829-.98h-4.369v9.8Zm1.722-4.94v-3.29h2.507c1.275,0,2.031.57,2.031,1.62v0.03c0,1-.784,1.64-2.017,1.64h-2.521Zm10.767,4.94h1.736v-8.2h3.109v-1.6h-7.954v1.6h3.109v8.2Z" transform="translate(-779.312 -9275.84)"/>
  <path id="Official_YouTube_Channel" data-name="Official YouTube Channel" class="cls-1" d="M784.781,9309.68a5.382,5.382,0,0,0,5.5-5.43v-0.03a5.49,5.49,0,0,0-10.978.03v0.03A5.332,5.332,0,0,0,784.781,9309.68Zm0.03-1.71a3.585,3.585,0,0,1-3.57-3.72v-0.03a3.552,3.552,0,0,1,3.54-3.71,3.6,3.6,0,0,1,3.57,3.74v0.03A3.535,3.535,0,0,1,784.811,9307.97Zm13.245,1.53h1.814v-6.36h2.07v-1.5h-2.1v-0.44a1,1,0,0,1,1.05-1.2,3.193,3.193,0,0,1,1.065.2v-1.53a4.856,4.856,0,0,0-1.47-.21,2.4,2.4,0,0,0-1.784.63,2.677,2.677,0,0,0-.645,1.95v0.58h-1v1.52h1v6.36Zm-5.64,0h1.815v-6.36h2.07v-1.5h-2.1v-0.44a1,1,0,0,1,1.05-1.2,3.193,3.193,0,0,1,1.065.2v-1.53a4.856,4.856,0,0,0-1.47-.21,2.4,2.4,0,0,0-1.785.63,2.677,2.677,0,0,0-.645,1.95v0.58h-1.005v1.52h1.005v6.36Zm10.979,0h1.815v-7.92H803.4v7.92Zm-0.075-9.14h1.95v-1.72h-1.95v1.72Zm7.621,9.32a4.007,4.007,0,0,0,3.239-1.49l-1.094-1.08a2.76,2.76,0,0,1-2.055.98,2.4,2.4,0,0,1-2.37-2.54v-0.03a2.389,2.389,0,0,1,2.3-2.52,2.674,2.674,0,0,1,2.04.99l1.139-1.21a4,4,0,0,0-3.164-1.37,4.088,4.088,0,0,0-4.125,4.14v0.03A4.048,4.048,0,0,0,810.941,9309.68Zm4.635-9.32h1.95v-1.72h-1.95v1.72Zm0.075,9.14h1.815v-7.92h-1.815v7.92Zm6.165,0.16a3.231,3.231,0,0,0,2.58-1.15v0.99h1.769v-4.7a3.286,3.286,0,0,0-.854-2.44,3.55,3.55,0,0,0-2.625-.89,6.756,6.756,0,0,0-2.985.65l0.48,1.42a5.512,5.512,0,0,1,2.265-.49c1.275,0,1.965.6,1.965,1.72v0.2a6.482,6.482,0,0,0-2.13-.33c-1.935,0-3.27.84-3.27,2.55v0.03A2.526,2.526,0,0,0,821.816,9309.66Zm0.51-1.32a1.326,1.326,0,0,1-1.545-1.2v-0.03c0-.82.69-1.32,1.86-1.32a5.023,5.023,0,0,1,1.8.32v0.54A1.875,1.875,0,0,1,822.326,9308.34Zm5.82,1.16h1.815v-10.95h-1.815v10.95Zm11.384,0h1.86v-4.19l4.17-6.31h-2.115l-2.97,4.63-2.924-4.63h-2.19l4.169,6.36v4.14Zm9.255,0.18a4.145,4.145,0,0,0,4.245-4.13v-0.03a4.223,4.223,0,0,0-8.444.03v0.03A4.1,4.1,0,0,0,848.785,9309.68Zm0.03-1.59a2.445,2.445,0,0,1-2.414-2.54v-0.03a2.377,2.377,0,0,1,2.384-2.52,2.451,2.451,0,0,1,2.43,2.55v0.03A2.377,2.377,0,0,1,848.815,9308.09Zm8.49,1.57a2.846,2.846,0,0,0,2.475-1.39v1.23h1.83v-7.92h-1.83v4.47A1.749,1.749,0,0,1,858,9308a1.647,1.647,0,0,1-1.694-1.92v-4.5h-1.815v5.04A2.718,2.718,0,0,0,857.305,9309.66Zm9.06-.16h1.86v-8.79h3.33V9299h-8.519v1.71h3.329v8.79Zm8.385,0.16a2.846,2.846,0,0,0,2.475-1.39v1.23h1.83v-7.92h-1.83v4.47a1.749,1.749,0,0,1-1.785,1.95,1.648,1.648,0,0,1-1.694-1.92v-4.5h-1.815v5.04A2.718,2.718,0,0,0,874.75,9309.66Zm10.785,0a3.786,3.786,0,0,0,3.675-4.11v-0.03a3.789,3.789,0,0,0-3.675-4.11,3.163,3.163,0,0,0-2.7,1.49v-4.35h-1.814v10.95h1.814v-1.23A3.244,3.244,0,0,0,885.535,9309.66Zm-0.435-1.57a2.389,2.389,0,0,1-2.31-2.54v-0.03a2.386,2.386,0,0,1,2.31-2.53,2.341,2.341,0,0,1,2.265,2.53v0.03A2.324,2.324,0,0,1,885.1,9308.09Zm9.315,1.59a4.009,4.009,0,0,0,3.24-1.49l-1.065-.94a2.889,2.889,0,0,1-2.145.94,2.211,2.211,0,0,1-2.28-2.01h5.82c0.015-.18.03-0.34,0.03-0.51,0-2.28-1.275-4.26-3.795-4.26a3.931,3.931,0,0,0-3.869,4.13v0.03A3.954,3.954,0,0,0,894.415,9309.68Zm-2.265-4.7a2.139,2.139,0,0,1,2.055-2.08,2.052,2.052,0,0,1,2.01,2.08H892.15Zm16.68,4.7a5.417,5.417,0,0,0,4.259-1.86l-1.185-1.2a4.1,4.1,0,0,1-3.014,1.35,3.541,3.541,0,0,1-3.465-3.72v-0.03a3.535,3.535,0,0,1,3.465-3.71,4.181,4.181,0,0,1,2.939,1.31l1.185-1.37a5.47,5.47,0,0,0-4.109-1.63,5.31,5.31,0,0,0-5.415,5.43v0.03A5.284,5.284,0,0,0,908.83,9309.68Zm5.685-.18h1.815v-4.47a1.766,1.766,0,0,1,1.785-1.97,1.664,1.664,0,0,1,1.694,1.94v4.5h1.815v-5.06a2.714,2.714,0,0,0-2.819-3.03,2.882,2.882,0,0,0-2.475,1.38v-4.24h-1.815v10.95Zm11.28,0.16a3.229,3.229,0,0,0,2.579-1.15v0.99h1.77v-4.7a3.282,3.282,0,0,0-.855-2.44,3.549,3.549,0,0,0-2.624-.89,6.756,6.756,0,0,0-2.985.65l0.48,1.42a5.512,5.512,0,0,1,2.265-.49c1.274,0,1.964.6,1.964,1.72v0.2a6.475,6.475,0,0,0-2.129-.33c-1.935,0-3.27.84-3.27,2.55v0.03A2.526,2.526,0,0,0,925.8,9309.66Zm0.51-1.32a1.326,1.326,0,0,1-1.545-1.2v-0.03c0-.82.69-1.32,1.86-1.32a5.022,5.022,0,0,1,1.8.32v0.54A1.875,1.875,0,0,1,926.305,9308.34Zm5.715,1.16h1.815v-4.47a1.765,1.765,0,0,1,1.784-1.97,1.664,1.664,0,0,1,1.695,1.94v4.5h1.815v-5.06a2.715,2.715,0,0,0-2.82-3.03,2.88,2.88,0,0,0-2.474,1.38v-1.21H932.02v7.92Zm9,0h1.814v-4.47a1.766,1.766,0,0,1,1.785-1.97,1.664,1.664,0,0,1,1.695,1.94v4.5h1.815v-5.06a2.715,2.715,0,0,0-2.82-3.03,2.882,2.882,0,0,0-2.475,1.38v-1.21H941.02v7.92Zm12.629,0.18a4.009,4.009,0,0,0,3.24-1.49l-1.065-.94a2.889,2.889,0,0,1-2.145.94,2.211,2.211,0,0,1-2.28-2.01h5.82c0.015-.18.03-0.34,0.03-0.51,0-2.28-1.275-4.26-3.8-4.26a3.931,3.931,0,0,0-3.869,4.13v0.03A3.954,3.954,0,0,0,953.649,9309.68Zm-2.265-4.7a2.139,2.139,0,0,1,2.055-2.08,2.052,2.052,0,0,1,2.01,2.08h-4.065Zm7.5,4.52H960.7v-10.95h-1.815v10.95Z" transform="translate(-779.312 -9275.84)"/>
</svg>
