<svg xmlns="http://www.w3.org/2000/svg" width="428.406" height="41.88" viewBox="0 0 428.406 41.88">
  <defs>
    <style>
      .cls-1 {
        fill: #0a45a7;
        fill-rule: evenodd;
      }
    </style>
  </defs>
  <path id="title-mask_sp.svg" class="cls-1" d="M58.4,4952.91v24.5c0,3.78.6,7.62,3,10.69,2.878,3.78,7.916,5.76,13.072,5.76s10.194-1.98,13.073-5.76c2.4-3.07,3-6.91,3-10.69v-24.5h-7.8v25.16a8.708,8.708,0,0,1-1.919,5.94,8.678,8.678,0,0,1-12.713,0,8.708,8.708,0,0,1-1.919-5.94v-25.16H58.4Zm37.986,0,16.79,40.05h4.677l16.911-40.05H126.25l-10.674,26.9-10.674-26.9H96.387Zm57.345,40.05h7.915l4.078-24.68,10.254,24.68h2.638l10.734-24.68,3.6,24.68h7.916l-6.716-40.05h-5.637l-11.094,25.46L166.8,4952.91h-5.637Zm82.592,0h8.395l-16.73-40.05h-6.117l-17.21,40.05h8.455l3.538-8.41h16.131Zm-17.21-14.77,5.7-14.41,5.7,14.41H219.114Zm53.939-21.5a15.377,15.377,0,0,0-11.333-4.68c-8.875,0-12.833,5.88-12.833,11.77a9.316,9.316,0,0,0,3.178,7.44,19.113,19.113,0,0,0,6.656,3.49c2.279,0.78,4.678,1.56,6.177,2.94a4.651,4.651,0,0,1,1.559,3.6c0,3.36-2.639,5.53-6.177,5.53a9.371,9.371,0,0,1-8.395-5.35l-5.1,4.87a16.46,16.46,0,0,0,13.792,7.56c8.276,0,13.912-5.34,13.912-13.15a10.888,10.888,0,0,0-3.418-8.4c-2.039-1.87-4.977-2.95-8.1-4.03-2.519-.9-3.838-1.38-4.8-2.28a3.371,3.371,0,0,1-1.26-2.7c0-2.04,1.32-4.68,5.517-4.68a7.81,7.81,0,0,1,6.536,3.42Zm17.245-3.78h-7.8v40.05h7.8v-17.05l0.9-.9,14.211,17.95h10.315l-17.81-21.56,16.91-18.49H304.99L290.3,4969.84v-16.93Zm85.348,6.48a18.445,18.445,0,0,0-12.751-4.96,19.581,19.581,0,1,0,.113,39.16,19.052,19.052,0,0,0,12.638-4.73v-3.31a17.644,17.644,0,0,1-12.751,5.76c-7.685,0-17.078-5.87-17.078-17.16,0-9.63,7.286-17.44,17.021-17.44a16.792,16.792,0,0,1,12.808,5.98v-3.3Zm25.332-4.96a19.58,19.58,0,1,0,19.7,19.61A19.438,19.438,0,0,0,400.978,4954.43Zm0,36.88a16.857,16.857,0,0,1-17.078-17.27c0-9.75,7.287-17.33,17.078-17.33s17.078,7.58,17.078,17.33A16.857,16.857,0,0,1,400.978,4991.31Zm46.223-36.88a19.58,19.58,0,1,0,19.7,19.61A19.438,19.438,0,0,0,447.2,4954.43Zm0,36.88a16.857,16.857,0,0,1-17.078-17.27c0-9.75,7.287-17.33,17.078-17.33s17.078,7.58,17.078,17.33A16.857,16.857,0,0,1,447.2,4991.31Zm26.526-36.37v38.02H486.82v-2.28H476.232v-35.74h-2.505Z" transform="translate(-58.406 -4952)"/>
</svg>
