<svg xmlns="http://www.w3.org/2000/svg" width="559.344" height="47.406" viewBox="0 0 559.344 47.406">
  <defs>
    <style>
      .cls-1 {
        fill: #fff;
        fill-rule: evenodd;
      }
    </style>
  </defs>
  <path id="head-protect.svg" class="cls-1" d="M420.572,911.977v45.362h8.841v-16.8h5.713c5.237,0,8.977-1.5,11.494-4.013,3.468-3.468,3.74-8.365,3.74-10.133a14.451,14.451,0,0,0-4.625-10.95c-3.332-2.924-6.869-3.468-11.969-3.468H420.572Zm8.841,7.617h3.06c2.109,0,4.421.136,6.257,1.428a6.246,6.246,0,0,1,2.517,5.169,6.77,6.77,0,0,1-2.449,5.3,9.047,9.047,0,0,1-5.78,1.428h-3.6v-13.33Zm27.47-7.617v45.362h8.842V939.113h1.088l12.106,18.226h11.017l-14.146-19.11a12.584,12.584,0,0,0,4.965-1.973,12.388,12.388,0,0,0,5.305-10.677,12.884,12.884,0,0,0-4.489-10.2c-2.108-1.768-5.305-3.4-11.562-3.4H456.883Zm8.842,7.209h2.652c1.632,0,8.569.068,8.569,6.8,0,6.665-7.005,6.869-8.705,6.869h-2.516v-13.67Zm50.854-8.23c-13.562,0-22.991,9.93-22.991,23.736s9.429,23.667,22.991,23.667,22.992-9.861,22.992-23.667S530.142,910.956,516.579,910.956Zm0,39.378c-8.4,0-14.337-6.461-14.337-15.642s5.941-15.71,14.337-15.71,14.338,6.529,14.338,15.71S524.975,950.334,516.579,950.334Zm55.5-30.74v-7.617H542.833v7.617h10.2v37.745h8.841V919.594h10.2Zm33.455-7.617H580.369v45.362h25.164v-7.617H589.21V937.344h15.643v-7.617H589.21V919.594h16.323v-7.617Zm42.84,33.393a13.738,13.738,0,0,1-10.61,4.964c-7.617,0-15.37-5.441-15.37-15.506,0-8.365,5.917-15.846,15.03-15.846a14.591,14.591,0,0,1,10.95,5.1V913.745a22.806,22.806,0,0,0-11.154-2.789c-6.461,0-12.106,1.7-16.662,5.985-3.877,3.605-7.277,9.522-7.277,17.751a22.609,22.609,0,0,0,7.277,17.343c3.808,3.6,8.637,6.324,16.594,6.324a23.5,23.5,0,0,0,11.222-2.652V945.37Zm36.1-25.776v-7.617H655.234v7.617h10.2v37.745h8.841V919.594h10.2Zm22.774-7.617v27.748c0,4.284.68,8.637,3.4,12.106,3.264,4.284,8.977,6.528,14.826,6.528s11.562-2.244,14.826-6.528c2.721-3.469,3.4-7.822,3.4-12.106V911.977h-8.842v28.5a9.869,9.869,0,0,1-2.176,6.733,9.871,9.871,0,0,1-14.418,0,9.869,9.869,0,0,1-2.176-6.733v-28.5h-8.842Zm44.471,0,19.043,45.362h5.3l19.179-45.362h-9.657l-12.106,30.468L761.38,911.977h-9.657Zm81.28,7.84a11.545,11.545,0,0,0-10.462-6.136c-7.685,0-11.044,5.748-11.044,10.721a9.257,9.257,0,0,0,1.357,4.908c1.485,2.454,3.616,3.617,7.879,5.684,3.552,1.743,6.071,3.035,7.3,3.745,3.293,2,4.2,4.457,4.2,6.782,0,5.683-4.585,9.945-10.4,9.945a10.357,10.357,0,0,1-8.073-3.681,14.877,14.877,0,0,1-2.325-4.133l-2.454,1.162a14.148,14.148,0,0,0,2.777,4.715,12.3,12.3,0,0,0,10.01,4.521c7.362,0,13.433-5.361,13.433-12.594a9.469,9.469,0,0,0-4.585-8.331c-2.2-1.55-4.327-2.454-8.59-4.521-4.327-2.131-7.556-3.681-7.556-8.331a7.657,7.657,0,0,1,8.008-8.008,9.208,9.208,0,0,1,8.461,5.295Zm33.2-5.555H845.541v43.077h20.667v-2.583H848.383v-19.7H865.82v-2.583H848.383V916.846h17.825v-2.584Zm32.945,43.077L885.074,937a16.483,16.483,0,0,0,5.3-.84c5.36-1.808,7.233-6.2,7.233-10.462a10.729,10.729,0,0,0-4.456-9.236c-2.842-1.937-5.812-2.2-9.106-2.2h-6.2v43.077h2.841V937h1.292l13.95,20.343h3.229Zm-18.471-40.493h3.553c1.679,0,4.779.258,6.587,1.291,1.679,0.905,3.81,3.165,3.81,7.492,0,5.554-3.681,8.783-9.816,8.783h-4.134V916.846Zm28.813-2.584v43.077h2.842V914.262H909.5Zm36.428,0H925.257v43.077h20.666v-2.583H928.1v-19.7h17.438v-2.583H928.1V916.846h17.825v-2.584Zm31.783,5.555a11.545,11.545,0,0,0-10.462-6.136c-7.685,0-11.044,5.748-11.044,10.721a9.257,9.257,0,0,0,1.357,4.908c1.485,2.454,3.616,3.617,7.879,5.684,3.552,1.743,6.07,3.035,7.3,3.745,3.293,2,4.2,4.457,4.2,6.782,0,5.683-4.585,9.945-10.4,9.945a10.357,10.357,0,0,1-8.073-3.681,14.877,14.877,0,0,1-2.325-4.133l-2.454,1.162a14.13,14.13,0,0,0,2.777,4.715,12.3,12.3,0,0,0,10.01,4.521c7.362,0,13.433-5.361,13.433-12.594a9.469,9.469,0,0,0-4.585-8.331c-2.2-1.55-4.327-2.454-8.59-4.521-4.327-2.131-7.556-3.681-7.556-8.331a7.657,7.657,0,0,1,8.008-8.008,9.208,9.208,0,0,1,8.461,5.295Z" transform="translate(-420.562 -910.969)"/>
</svg>
