<?xml version="1.0" encoding="utf-8"?>
<!-- Generator: Adobe Illustrator 25.1.0, SVG Export Plug-In . SVG Version: 6.00 Build 0)  -->
<svg version="1.1" id="img-lineup_sp.svg" xmlns="http://www.w3.org/2000/svg" xmlns:xlink="http://www.w3.org/1999/xlink" x="0px"
	 y="0px" viewBox="0 0 407.4 109" style="enable-background:new 0 0 407.4 109;" xml:space="preserve">
<style type="text/css">
	.st0{fill-rule:evenodd;clip-rule:evenodd;}
</style>
<path id="商品" class="st0" d="M26,89c0-1.1,0.9-1.9,2-2h6.9c1.1,0,2,0.9,2,2c0,0,0,0,0,0v2c0,1-0.7,1.9-1.7,1.9
	c-0.1,0-0.1,0-0.2,0H28c-1,0.1-1.9-0.7-2-1.7c0,0,0-0.1,0-0.1L26,89L26,89z M43.5,87.6c0-1,0.1-2.1,0.1-3.1c0-2.2-1.5-2.5-3.4-2.5
	s-3.6,0.1-5.3,0.1h-6.8c-1.8,0-3.6-0.1-5.4-0.1c-1.8,0-3.3,0.4-3.3,2.5c0,1,0.1,2.1,0.1,3.1v8.5c0,1.1-0.1,2.2-0.1,3.2
	c0,1.6,0.7,1.6,3.3,1.6c3,0,3.4,0,3.4-1.5c0-1.4,1-1.5,2.6-1.5h6.2c1.8,0,3.6,0.1,5.4,0.1c1.8,0,3.3-0.4,3.3-2.5
	c0-1-0.1-2.1-0.1-3.1L43.5,87.6L43.5,87.6z M50.2,70.7c-1-0.2-2-0.4-3-0.4c-0.8,0-1,0.4-1.1,1.1c-0.5,2.2-0.8,2.5-2.7,2.5h-1.8
	c-1.5,0-2-0.4-2-1.9v-2.3c-0.2-0.9,0.4-1.8,1.3-2c0.2,0,0.4,0,0.7,0H50c0.6-0.1,1.2,0.3,1.3,0.9c0,0.1,0,0.3,0,0.4v0.7
	c0.1,0.4-0.2,0.8-0.7,0.9c-0.1,0-0.1,0-0.2,0L50.2,70.7L50.2,70.7z M40.7,55.7c-0.6,1.6-1.3,3.1-2.1,4.6c-0.5,1.1-1.6,1.7-2.8,1.5
	H25.3c-0.2,0-0.3-0.2-0.4-0.4c0-0.1,0-0.2,0.1-0.4v-0.2c0-1-1.2-3.2-1.8-4.6c-0.1-0.4-0.3-0.6-0.4-0.8c-0.1-0.2-0.2-0.4-0.2-0.6
	c0-0.6,0.5-1.1,1.1-1.1c0,0,0.1,0,0.1,0h15.5c0.7-0.1,1.3,0.4,1.4,1.1c0,0,0,0,0,0C40.8,55.3,40.8,55.5,40.7,55.7L40.7,55.7z
	 M51.3,93.4c0,2.1,0.2,3.9-1.9,3.9c-1.3,0-3.4-0.2-4.3-0.2c-1.1,0-1.3,0.8-1.3,1.8c0,5.7,2.5,5.4,4.4,5.4c7.4,0,9.9-1.5,9.9-7.4
	c0-1.8-0.1-3.5-0.1-5.2V70.9c0-2,0.1-3.9,0.1-5.9c0-2.7-1.3-3.3-3.8-3.3c-2,0-4,0.1-6,0.1H47c-0.6,0.1-1.1-0.3-1.2-0.9
	c0,0,0,0,0-0.1c0-0.2,0.1-0.4,0.1-0.6l1.3-2.3c0.3-0.5,0.8-0.8,1.4-0.9c0.6-0.1,1.1-0.2,1.1-0.8c0-0.8-1.5-1.3-3.1-1.8
	c-0.1-0.1-0.2-0.2-0.2-0.3c0-0.2,0.2-0.3,0.4-0.4h5.5c2.7,0,5.5,0.2,8.3,0.2c1.7,0,1.7-0.6,1.7-3.1c0-2.5,0.1-3.1-1.6-3.1
	c-2.8,0-5.5,0.1-8.3,0.1H37.1c-0.9,0.2-1.8-0.4-1.9-1.3c0-0.2,0-0.4,0-0.5c0-1.2,0-2,0.8-2.5c0.4-0.1,0.7-0.5,0.8-0.9
	c0-0.6-0.8-0.7-1.3-0.8c-1.2-0.1-5.5-0.4-6.6-0.4c-0.6,0-1.3,0.1-1.3,0.8c0,0.2,0,0.4,0.1,0.6c0.1,1,0.2,2,0.2,3.1
	c-0.1,1.3-0.6,1.9-1.9,1.9H10.6c-2.8,0-5.5-0.1-8.3-0.1c-1.7,0-1.6,0.7-1.6,3.1s0,3.1,1.7,3.1c2.7,0,5.5-0.2,8.3-0.2h6.3
	c0.1,0,0.2,0.1,0.2,0.2c0,0.1-0.1,0.1-0.1,0.1c-0.5,0.3-1.5,0.7-1.5,1.4c0.5,1.2,1.1,2.4,1.7,3.5c0.2,0.3,0.4,0.7,0.6,1
	c0.1,0.2,0.1,0.4,0.1,0.6c-0.1,0.6-0.6,1.1-1.3,1h-2.6c-2,0-4-0.1-6-0.1c-2.4,0-3.7,0.6-3.7,3.3c0,2,0.1,4,0.1,6v22.3
	c0,2.9-0.1,5.9-0.1,8.8c0,2.1,0.6,2.2,3.7,2.2c3,0,3.6,0,3.6-2.1c0-2.9-0.1-6-0.1-8.9V69.7c-0.2-0.9,0.4-1.8,1.3-2
	c0.2,0,0.4,0,0.7,0h7.2c0.8,0.1,1.3,0.3,1.3,1.1c0,0.2-0.1,0.4-0.1,0.6c-1.7,3.5-5,6.1-8.3,8c-0.6,0.4-1.3,0.7-1.3,1.3
	c0,1.3,3,3.6,4.3,3.6c0.6-0.1,1.2-0.4,1.8-0.8c3.7-2.3,6.8-5.5,9-9.4c0.2-0.5,0.6-0.9,1.2-1c0.4,0,0.8-0.3,0.8-0.7
	c0-0.6-2.9-1.8-3.6-2c-0.1-0.1-0.2-0.2-0.2-0.4c0-0.2,0.2-0.3,0.4-0.4h5c0.9-0.2,1.8,0.4,2,1.3c0,0.2,0,0.4,0,0.7v1.7
	c0,1.3-0.1,2.5-0.1,3.7c0,4.3,2.9,4.3,7.9,4.3h2.7c2,0,5.4,0.1,6.8-1.5c0.1-0.1,0.3-0.2,0.5-0.2c0.3,0,0.5,0.2,0.5,0.5
	c0,0,0,0,0,0.1V93.4L51.3,93.4z M89.9,53.2c0-1,0.8-1.9,1.8-1.9c0,0,0.1,0,0.1,0h13.9c1-0.1,1.9,0.7,2,1.7c0,0,0,0.1,0,0.1v7.6
	c0,1.1-0.9,2-2,2c0,0,0,0,0,0H91.8c-1.1,0-2-0.9-2-2c0,0,0,0,0,0V53.2z M105.2,69c0.6,0,2.2,0,2.4,0.6c0.4,1,0.5,1,3.9,1
	c2.6,0,3.6,0,3.6-1.8c0-1.6-0.1-3.3-0.1-4.9V52.7c0-1.6,0.1-3.2,0.1-4.8c0-2.5-1.5-2.9-3.6-2.9c-1.8,0-3.6,0.1-5.4,0.1H91.5
	C89.7,45,87.8,45,86,45c-2.2,0-3.5,0.6-3.5,2.9c0,1.6,0.1,3.2,0.1,4.8v11.2c0,1.7-0.1,3.3-0.1,5c0,1.8,1,1.8,3.6,1.8h0.9
	c1.1,0,2.5-0.1,2.7-0.6c0.3-0.9,0.9-1,2.7-1L105.2,69L105.2,69z M110.3,93.9c-1.1,0-1.9-0.9-2-2v-8.3c0-1.1,0.9-1.9,2-2h7.3
	c1,0,1.9,0.8,1.9,1.8c0,0,0,0.1,0,0.1V92c0.1,1-0.7,1.9-1.7,2c0,0-0.1,0-0.1,0H110.3z M119.4,101.5c0,0.4-0.1,0.8-0.1,1.2
	c0,1.7,1,1.6,3.8,1.6c2.9,0,3.8,0.1,3.8-1.7c0-2.2-0.1-4.3-0.1-6.5V83.6c0-1.8,0.1-3.5,0.1-5.2c0-2.5-1.1-3.2-3.4-3.2
	c-1.7,0-3.4,0.1-5,0.1h-8.8c-1.7,0-3.4-0.1-5.1-0.1c-2.2,0-3.4,0.7-3.4,3.1c0,1.8,0.1,3.6,0.1,5.4v12.5c0,2.2-0.1,4.3-0.1,6.6
	c0,1.6,0.7,1.7,3.8,1.7c2.9,0,3.7,0,3.7-1.7v-1.1c-0.1-0.8,0.4-1.5,1.1-1.6c0.2,0,0.3,0,0.5,0h7.7c0.8-0.1,1.5,0.4,1.6,1.1
	C119.4,101.3,119.4,101.4,119.4,101.5L119.4,101.5z M79.9,93.9c-1.1,0-1.9-0.9-2-2v-8.3c0-1.1,0.9-1.9,2-2h6.8c1.1,0,1.9,0.9,2,2V92
	c0,1.1-0.9,1.9-2,2H79.9z M88.5,102.7c0,1.6,0.8,1.6,3.6,1.6c2.9,0,3.6,0,3.6-1.6c0-2.2-0.1-4.4-0.1-6.6V83.6c0-1.8,0.1-3.6,0.1-5.4
	c0-2.5-1.2-3.1-3.4-3.1c-1.7,0-3.4,0.1-5.1,0.1h-8.1c-1.7,0-3.4-0.1-5.1-0.1c-2.2,0-3.4,0.7-3.4,3.1c0,1.8,0.1,3.6,0.1,5.3v12.5
	c0,2.2-0.1,4.3-0.1,6.5c0,1.8,0.8,1.7,3.7,1.7c2.9,0,3.8,0.1,3.8-1.6v-1.2c-0.1-0.8,0.5-1.5,1.2-1.5c0.1,0,0.3,0,0.4,0h7.2
	c0.7-0.1,1.5,0.3,1.6,1.1c0,0.2,0,0.3,0,0.5L88.5,102.7L88.5,102.7z"/>
<path id="LINEUP" class="st0" d="M151.5,45v60h26.8v-8.6h-17.6V45H151.5z M183.4,45v60h9.2V45H183.4z M212.5,105.1V63.1l43.6,45.6
	V45h-9.2v41.6L203.3,41v64.1H212.5L212.5,105.1z M300,45h-33.1v60H300v-8.6h-23.9V77.5h23.2v-8.6h-23.2V53.7H300V45z M318.3,45v38.6
	c0,4.8,1,10.5,5.6,15.6c9,9.2,23.7,9.4,32.9,0.4c0.1-0.1,0.3-0.3,0.4-0.4c4.6-5,5.6-10.8,5.6-15.6V45h-9.2v36.2
	c0,3.2-0.1,7.2-1.9,10.3c-3.8,6.2-11.9,8.1-18.1,4.2c-1.7-1.1-3.2-2.5-4.2-4.2c-1.8-3.1-1.9-7.1-1.9-10.3V45H318.3L318.3,45z
	 M373.5,45v60h9.2V80.7h4.1c4.4,0,9.9-0.6,14.7-4.7c3.8-3.3,6-8.1,5.8-13.1c0.1-5.8-2.7-11.3-7.5-14.6c-4.3-2.9-9.5-3.2-13.1-3.2
	L373.5,45L373.5,45z M382.7,53.5h4c10.4,0,11.8,5.9,11.8,9.3c0,5.6-3.8,9.5-11.7,9.5h-4.1L382.7,53.5L382.7,53.5z"/>
<path id="あなたにおすすめのサンカット_はどれ_" class="st0" d="M11.3,9.9c0.1,0,0.3,0.1,0.3,0.2c0,0,0,0,0,0
	c0,0.1-0.1,0.3-0.1,0.4c-0.2,0.4-1,2.1-1.4,2.1c-0.2-0.3-0.3-0.6-0.2-0.9v-0.3c-0.1-0.4,0-0.8,0.2-1.1C10.4,10,10.8,9.9,11.3,9.9z
	 M7.4,11.5c0.2,0,0.3,0.2,0.3,0.4s0,0.5,0,0.7c0,0.7,0.1,1.7,0.1,1.9c0,0.3-0.1,0.5-0.3,0.7c-0.8,0.7-1.7,1.1-2.7,1.3
	c-0.3,0-0.6-0.2-0.6-0.6c0,0,0-0.1,0-0.1C4.2,14,7,11.5,7.4,11.5z M8.9,1.3c-0.2,0-0.4,0.1-0.4,0.3c0,0,0,0,0,0
	C8.5,2.5,8.4,3.3,8.3,4.2c0,0.2-0.1,0.5-0.2,0.6C7.9,4.9,7.7,5,7.4,5C6.7,5.1,5.9,5.1,5.2,5.1c-0.4,0-0.8,0-1.2,0
	c-0.4,0-0.5,0.1-0.5,1.2c0,1.1,0.1,1.1,1.1,1.1c0.8,0,1.6-0.1,2.5-0.2c0.1,0,0.4,0,0.5,0c0.2,0,0.4,0.1,0.4,0.3c0,0,0,0,0,0.1
	c0,1.1-0.5,1.2-0.6,1.3C4.8,10.2,2,13,2,16.2c-0.1,1.4,0.9,2.7,2.3,2.8c0.1,0,0.1,0,0.2,0c1.2-0.1,2.3-0.5,3.3-1.3
	c0.1-0.1,0.2-0.1,0.2-0.1c0.1,0,0.2,0.1,0.2,0.2c0,0.2,0.2,0.3,0.4,0.3c0.7-0.1,1.4-0.6,1.7-1.2v-0.1c0-0.1-0.1-0.8-0.1-0.9
	c0-0.2,0.1-0.4,0.2-0.5c1.2-1.4,2.2-2.9,3-4.5c0.1-0.3,0.3-0.5,0.6-0.6c1.4,0.5,2.4,1.9,2.2,3.4c0,3-2.9,4.4-5.2,5
	c-0.2,0.1-0.5,0.1-0.5,0.4c0,0.5,0.5,1.9,1,1.9c0.7,0,7-2,7-7.4c0-4-3.1-5.9-6.5-5.9c-0.5,0-1,0.1-1.4,0.1c-0.1,0-0.1,0-0.2,0
	c-0.2,0-0.3-0.1-0.4-0.3c0,0,0,0,0,0c0-0.4,0.2-0.8,0.6-0.9c0.9-0.1,2.3-0.4,3.1-0.6c0.6-0.1,1.1-0.2,1.1-0.6c0-0.1-0.2-1.9-0.7-1.9
	c-0.1,0-0.3,0.1-0.4,0.1c-0.9,0.3-1.7,0.6-2.6,0.8c-0.1,0-0.2,0.1-0.3,0.1c-0.2,0-0.3-0.2-0.3-0.4c0-0.1,0.1-0.6,0.1-0.7
	c0-0.4,0.2-0.7,0.5-0.9c0.1-0.1,0.2-0.2,0.2-0.3c0-0.2-0.4-0.3-1-0.5C10.2,1.7,9.1,1.3,8.9,1.3z M33.5,16.5c1.1,0,1.1,0.3,1.1,0.7
	c0.1,0.6-0.3,1.1-0.8,1.3c-0.1,0-0.2,0-0.3,0c-0.7,0.1-1.3-0.4-1.5-1.1C32,16.6,33,16.5,33.5,16.5z M34.6,8.2
	c-0.3,0-0.5,0.1-0.5,0.4c0,0,0,0.1,0,0.1c0,0.1,0,0.2,0,0.3c0.1,0.9,0.4,4.3,0.4,5.1c0,0.2-0.2,0.4-0.4,0.4c0,0,0,0-0.1,0h-0.6
	c-1.8,0-3.7,0.8-3.7,2.9s2.1,3.2,3.9,3.2c1.5,0,2.8-0.6,3.1-2.3c0-0.2,0.1-0.5,0.4-0.5c0.6,0.3,1.3,0.6,1.8,1.1
	c0.2,0.2,0.4,0.3,0.6,0.3c0.6,0,1.4-1.3,1.4-1.7c0-0.6-2.6-1.9-3.1-2.1c-0.1,0-0.2-0.1-0.2-0.1c-0.3-0.1-0.6-0.3-0.7-0.6
	c-0.1-0.5-0.2-3.9-0.2-4.6c0-0.5,0-1.2,0-1.2c0-0.2-0.2-0.5-0.4-0.5C35.6,8.3,35.1,8.2,34.6,8.2L34.6,8.2z M38,4.6
	c-0.7,0.3-1.2,0.9-1.5,1.6c0,0.2,0.1,0.3,0.3,0.4c1.1,0.9,2,1.9,2.8,3c0.1,0.2,0.3,0.4,0.5,0.4c0.8-0.3,1.4-0.9,1.7-1.6
	C41.7,7.8,38.5,4.6,38,4.6L38,4.6z M30.5,0.7c-0.2,0-0.2,0.2-0.2,0.4c-0.1,1.3-0.3,2.7-0.7,4c-0.1,0.2-0.4,0.4-0.7,0.4
	c-0.8,0.1-1.5,0.1-2.3,0.1h-1c-0.2,0-0.4,0.1-0.4,0.3c0,0,0,0.1,0,0.1c0,0.2,0.1,1.1,0.2,1.4c0.1,0.5,0.2,0.8,0.6,0.8
	c0.5,0,2.2-0.2,2.4-0.2c0.2,0,0.3,0.1,0.3,0.3c-0.1,0.5-0.3,1-0.5,1.4c-0.8,1.9-1.6,3.7-2.6,5.4c-0.2,0.3-0.3,0.5-0.4,0.9
	c0,0.5,1.5,1.2,2,1.2c0.2,0,0.4-0.1,0.4-0.3c1.4-2.7,2.6-5.5,3.6-8.4c0.3-0.8,0.2-0.9,1-1.1c2-0.4,2.3-0.4,2.3-1
	c0-0.4-0.1-0.8-0.1-1.2c0-0.3-0.1-0.7-0.3-0.7c-0.1,0-0.2,0-0.2,0c-0.4,0.1-0.8,0.3-1.3,0.4c-0.1,0-0.3-0.1-0.2-0.3c0,0,0,0,0,0
	c0.1-0.4,0.1-0.7,0.2-1.1c0.1-0.4,0.2-0.9,0.4-1.2c0.2-0.1,0.3-0.2,0.4-0.4c-0.1-0.1-0.2-0.3-0.4-0.3C32.2,1.2,31.3,0.9,30.5,0.7
	L30.5,0.7z M55.4,15.9c-0.6,0.4-1.1,1-1.4,1.7c0.2,0.6,0.6,1,1.1,1.3c1.5,0.8,3.1,1.2,4.8,1.1c1.2,0,2.3-0.1,3.5-0.3
	c0.2-0.3,0.3-0.8,0.2-1.2c0-0.9,0-1.5-0.4-1.5c-0.1,0-0.2,0-0.2,0c-1,0.3-2.1,0.5-3.2,0.5c-1.4,0-3-0.2-4-1.4
	C55.7,16.1,55.5,16,55.4,15.9z M57,10.5c0,0.4,0.1,0.5,0.6,0.5c0.3,0,0.6,0,0.8,0c1.2,0,2.4,0.2,3.5,0.6c0.1,0.1,0.3,0.1,0.5,0.1
	c0.2,0,0.4-0.1,0.4-0.3c0.2-0.5,0.4-1.1,0.4-1.6c0-0.2-0.1-0.4-0.3-0.5c-1.4-0.4-3-0.7-4.5-0.7C57.4,8.6,57,8.5,57,10.5L57,10.5z
	 M54.1,0.5c-0.2,0-0.2,0.2-0.2,0.6C53.7,2.5,53.5,4,53,5.4c-0.2,0.4-0.5,0.4-2,0.4c-1,0-1.9-0.1-2.1-0.1c-0.3,0-0.3,0.2-0.3,0.4
	c0,0.6,0.1,1.1,0.2,1.7c0.1,0.5,0.5,0.4,0.9,0.4c0.7,0,1.7-0.1,2-0.1c0.2,0,0.4,0.1,0.4,0.3c0,0,0,0,0,0c0,0.2-0.1,0.4-0.2,0.6
	c-1,3-2.3,5.9-3.9,8.7c-0.2,0.2-0.3,0.5-0.4,0.8c0,0.5,1.5,1.3,1.9,1.3c0.4-0.1,0.7-0.5,0.8-0.9c1.6-3.4,3-6.8,4.1-10.4
	c0-0.5,0.4-0.9,0.9-0.9c1.2-0.2,2.4-0.5,3.6-0.9c0.3-0.1,0.5-0.5,0.4-0.8c0-0.4,0-1.8-0.4-1.8c-0.2,0-0.3,0-0.5,0.1
	c-0.8,0.4-1.7,0.7-2.6,0.9c-0.2,0-0.3-0.2-0.3-0.4c0,0,0,0,0,0c0-0.1,0.5-1.8,0.5-2.1c0-0.3,0.2-0.6,0.5-0.8c0.1,0,0.2-0.1,0.2-0.2
	c-0.2-0.3-0.5-0.4-0.8-0.5C55.4,0.8,54.8,0.7,54.1,0.5L54.1,0.5z M77.9,14.3c-0.4,0-1.2,1.7-1.2,2c0,0.4,1.5,2.4,5.1,2.4
	c1.8,0,3.5-0.3,5.3-0.7c0.2-0.2,0.3-0.6,0.3-0.9c0-1.2,0-1.8-0.4-1.8c-0.2,0-0.3,0-0.5,0.1c-1.6,0.5-3.2,0.7-4.9,0.8
	c-1.3,0.1-2.6-0.5-3.4-1.6C78.2,14.4,78.1,14.3,77.9,14.3L77.9,14.3z M78.5,4.1c-0.4,0-0.5,0.4-0.5,1.5c-0.1,0.3,0,0.7,0.2,0.9
	C79.5,6.9,80.8,7,82.1,7c1.3,0,2.5-0.1,3.7-0.3c0.4-0.1,0.4-0.3,0.4-0.8c0-0.4,0-0.8-0.1-1.3c0-0.3-0.2-0.5-0.4-0.6
	c-0.1,0-0.3,0-0.4,0.1c-1.1,0.3-2.2,0.5-3.4,0.5c-1,0-2-0.1-2.9-0.4C78.8,4.2,78.6,4.1,78.5,4.1L78.5,4.1z M73.1,2.3
	c-0.2,0-0.3,0.3-0.3,0.5c-0.1,0.4-0.2,0.8-0.3,1.2c-0.7,2.5-1.1,5.2-1.1,7.8c-0.1,2.5,0.4,4.9,1.4,7.2c0.1,0.5,0.5,0.9,0.9,1.1
	c0.5,0,1.7-0.6,1.7-1.1c0-0.1,0-0.2,0-0.4c0-0.2-0.1-0.8-0.1-1c0.2-1.2,0.5-2.3,0.9-3.4c-0.1-0.4-0.4-0.6-0.8-0.8
	c-0.2,0.1-0.4,0.3-0.5,0.6c-0.1,0.4-0.3,0.7-0.6,0.9c-0.5,0-0.6-2.9-0.6-3.3c0-2.3,0.4-4.5,1.2-6.7c0.1-0.4,0.3-0.8,0.7-1
	c0.2-0.1,0.3-0.2,0.3-0.3c-0.1-0.2-0.2-0.4-0.4-0.4C75.2,3.1,73.3,2.3,73.1,2.3L73.1,2.3z M109.3,6.3c-0.5-0.5-1-0.9-1.7-1.2
	c-0.6,0.3-1.1,0.9-1.3,1.5c0,0.2,0.2,0.4,0.4,0.6c1,0.8,2,1.7,3,2.6c0.1,0.1,0.3,0.2,0.5,0.3c0.7-0.3,1.2-0.9,1.4-1.6
	c-0.5-0.7-1-1.3-1.7-1.7C109.6,6.6,109.4,6.5,109.3,6.3L109.3,6.3z M98.8,15.6c0,0.1,0,0.2,0,0.3c0,0,0,1,0,1c0,0.1,0,0.2-0.1,0.2
	c0,0,0,0,0,0c-0.1,0-0.2-0.1-0.3-0.1c-0.3-0.3-0.7-0.5-1.1-0.7c-0.3,0-0.5,0.2-0.5,0.5c0,0.2,0.1,0.3,0.3,0.5
	c0.6,0.5,1.1,1.1,1.4,1.8c0.1,0.4,0.4,0.8,0.8,0.9c1,0,1.8-0.7,2-1.7c0-0.2-0.2-2.4-0.2-2.9c0-0.3-0.1-1.3-0.1-1.5
	c0-0.3,0.1-0.6,0.4-0.7c1.2-0.7,2.5-1.1,3.9-1.1c1.3-0.1,2.5,0.8,2.7,2.2c0,0,0,0,0,0c0,1.7-1.9,2.2-3.2,2.2c-0.6,0-1.2-0.1-1.8-0.2
	c-0.3,0-0.4,0.3-0.4,0.6c0,0.6,0.1,1.2,0.4,1.7c0.3,0.2,0.6,0.3,0.9,0.3h0.3c1.6,0.1,3.1-0.3,4.5-1.1c1.1-0.8,1.8-2.1,1.8-3.5
	c0-2.8-2.4-4.5-4.8-4.5c-1.3,0-2.5,0.3-3.7,0.8c-0.2,0.1-0.4,0.2-0.6,0.2c-0.3,0-0.3-0.5-0.3-0.9V9.5c0-1.1,0-1.2,0.9-1.4
	c1.7-0.3,2.1-0.3,2.1-0.9c0-0.4-0.1-1.9-0.6-1.9c-0.1,0-0.3,0.1-0.4,0.1c-0.5,0.2-0.9,0.3-1.4,0.4c-0.2,0-0.4-0.2-0.4-0.4
	c0-0.1,0-0.2,0-0.3c0-0.2,0-0.4,0.1-0.5c-0.1-0.5,0.1-0.9,0.4-1.3c0.1-0.1,0.2-0.2,0.2-0.4c-0.1-0.2-0.2-0.3-0.4-0.3
	c-0.4-0.1-1.9-0.4-2.3-0.4c-0.2,0-0.3,0.1-0.3,0.3c0,0,0,0,0,0.1c0,0.1,0,0.6,0,1.1c0,0.7,0,1.3,0,2c0,0.2,0,0.5-0.2,0.7
	c-0.2,0.2-0.5,0.3-0.8,0.3c-0.7,0.1-1.5,0.1-2.2,0.2c-0.4,0-0.5,0.1-0.5,0.8c0,1.7,0.4,1.7,0.6,1.7c0.3,0,1.8-0.3,2.3-0.4
	c0,0,0.1,0,0.1,0c0.3,0,0.5,0.2,0.5,0.5c0,0,0,0,0,0v0.2c0,0.4,0,0.7,0,1.1v0.8c0,0.7-0.1,0.8-0.9,1.3c-1.2,0.8-2.4,1.6-3.6,2.4
	c-0.2,0.1-0.4,0.2-0.5,0.5c0,0.5,0.9,2.2,1.3,2.2c0.1,0,0.2-0.1,0.3-0.2c1-0.9,2.1-1.8,3.3-2.6C98.8,15,98.8,15.2,98.8,15.6
	L98.8,15.6z M124.4,10.8c0.9,0,1.1,1.3,1.1,2.1s-0.3,1.9-1.2,1.9s-1-1.3-1-2S123.5,10.8,124.4,10.8L124.4,10.8z M124.5,0.8
	c-0.1,0-0.3,0.1-0.3,0.2c0,0,0,0,0,0.1c0,0.1,0,0.1,0,0.2c0.1,1,0.2,1.9,0.2,2.9c0,0.3-0.2,0.6-0.5,0.7c-0.2,0-5.4,0.4-6,0.4
	c-1.1,0-1.3,0-1.3,0.5c0,0.6,0.1,1.1,0.2,1.7c0.1,0.3,0.1,0.6,0.4,0.6c0.1,0,0.2,0,0.3,0c1.1-0.2,3.9-0.6,5.1-0.7
	c0.3,0,1.3-0.1,1.5-0.1c0.2,0,0.4,0.1,0.4,1c0,0.1-0.1,0.3-0.3,0.3c-2.2,0.2-3.1,2.3-3.1,4.4c0,1.7,0.7,3.9,2.6,3.9
	c0.2,0,0.3-0.1,0.5-0.1c0.1,0,0.1,0,0.2,0c0.1,0,0.2,0.1,0.2,0.2c0,0.1-0.1,0.2-0.1,0.4c-0.4,0.9-0.9,1.6-1.6,2.3
	c-0.2,0.2-0.4,0.4-0.5,0.7c0,0.4,1.8,1,2.1,1c1,0,3.4-4.2,3.4-8c0-1.1-0.2-2.3-0.7-3.3c-0.2-0.4-0.3-0.8-0.2-1.2V7.9
	c0-0.3,0.1-0.6,0.4-0.8c0.2-0.1,2.3-0.1,2.7-0.1c1.2,0,2.9,0.1,3.2,0.1c0.2,0,0.5,0,0.5-1.4c0-1.1-0.2-1.2-0.5-1.2
	c-1,0-3.3,0.1-4.4,0.2c-0.2,0-1.1,0.1-1.3,0.1c-0.3,0-0.6-0.2-0.6-0.5c0,0,0-0.1,0-0.1c0-0.5,0-1,0-1.5c-0.1-0.4,0.1-0.7,0.4-1
	c0.1-0.1,0.1-0.2,0.1-0.3c-0.3-0.3-0.8-0.4-1.2-0.3C125.7,1,125,0.8,124.5,0.8L124.5,0.8z M146.1,10.8c0.9,0,1.1,1.3,1.1,2.1
	s-0.3,1.9-1.2,1.9s-1-1.3-1-2S145.3,10.8,146.1,10.8L146.1,10.8z M146.2,0.8c-0.1,0-0.3,0.1-0.3,0.2c0,0,0,0,0,0.1
	c0,0.1,0,0.1,0,0.2c0.1,1,0.2,1.9,0.2,2.9c0,0.3-0.2,0.6-0.5,0.7c-0.2,0-5.4,0.4-6,0.4c-1.1,0-1.3,0-1.3,0.5c0,0.6,0.1,1.1,0.2,1.7
	c0.1,0.3,0.1,0.6,0.4,0.6c0.1,0,0.2,0,0.3,0c1.1-0.2,3.9-0.6,5.1-0.7c0.3,0,1.3-0.1,1.5-0.1c0.2,0,0.4,0.1,0.4,1
	c0,0.1-0.1,0.3-0.3,0.3c-2.2,0.2-3.1,2.3-3.1,4.4c0,1.7,0.7,3.9,2.6,3.9c0.2,0,0.3-0.1,0.5-0.1c0.1,0,0.1,0,0.2,0
	c0.1,0,0.2,0.1,0.2,0.2c0,0.1,0,0.2-0.1,0.4c-0.4,0.9-0.9,1.6-1.6,2.3c-0.2,0.2-0.4,0.4-0.5,0.7c0,0.4,1.8,1,2.1,1
	c1,0,3.4-4.2,3.4-8c0-1.1-0.2-2.3-0.7-3.3c-0.2-0.4-0.3-0.8-0.2-1.2V7.9c0-0.3,0.1-0.6,0.4-0.8c0.2-0.1,2.3-0.1,2.7-0.1
	c1.2,0,2.9,0.1,3.2,0.1c0.2,0,0.5,0,0.5-1.4c0-1.1-0.2-1.2-0.5-1.2c-1,0-3.3,0.1-4.4,0.2c-0.2,0-1.1,0.1-1.3,0.1
	c-0.3,0-0.6-0.2-0.6-0.5c0,0,0-0.1,0-0.1c0-0.5,0-1,0-1.5c-0.1-0.4,0.1-0.7,0.4-1c0.1-0.1,0.1-0.2,0.1-0.3c-0.3-0.3-0.8-0.4-1.2-0.3
	C147.4,1,146.8,0.8,146.2,0.8L146.2,0.8z M169.1,7.4c0.2,0,0.3,0.1,0.3,0.3c0,0,0,0,0,0.1c0,0.7-1.1,4.5-1.7,4.5
	c-0.3-0.1-0.5-0.4-0.5-0.8c-0.4-0.8-0.7-1.7-0.9-2.6C166.3,8.2,168.6,7.4,169.1,7.4L169.1,7.4z M166.1,14.6c0,0.5-1.2,1.4-1.9,1.4
	c-0.8,0-0.8-1.1-0.8-1.7c0-1.5,0.7-3.2,1-3.2c0.2,0,0.3,0.2,0.3,0.3c0.4,1,0.8,1.9,1.3,2.9C166.1,14.4,166.1,14.5,166.1,14.6
	L166.1,14.6z M170.2,1.6c-0.3,0-0.3,0.2-0.3,0.4c0,0.3,0,0.7,0,1c0,1.8,0,1.9-0.8,2c-1,0.2-2,0.5-3,1c-0.1,0.1-0.2,0.1-0.4,0.1
	c-0.2,0-0.4-0.2-0.4-0.4c-0.1-0.5-0.3-1.4-0.4-2c0-0.3-0.1-0.7-0.4-0.7c-0.6,0.1-1.2,0.3-1.8,0.5c-0.2,0-0.3,0.2-0.4,0.4
	c0,0.1,0,0.2,0.1,0.4c0.3,1,0.6,2,0.9,3c0.1,0.2,0.1,0.4,0.1,0.6c0,0.2-0.1,0.4-0.2,0.5c-1.4,1.6-2.1,3.7-2.1,5.8
	c0,1.8,0.7,4.1,2.8,4.1c2,0,3.8-1.6,4.9-3.2c1.5-2.2,2.4-4.6,2.8-7.1c0-0.3,0.2-0.5,0.5-0.6c2.1,0.4,3.6,2.2,3.5,4.3
	c0,3.2-2.6,5.2-5.2,6.1c-0.3,0-0.6,0.2-0.7,0.5c0,0.5,0.9,1.9,1.4,1.9c0.4-0.1,0.8-0.2,1.1-0.4c3.2-1.6,5.7-4,5.7-8
	c0.1-3.1-2.1-5.9-5.1-6.5c-0.4,0-0.7-0.2-0.7-0.6c0,0,0-0.2,0-0.2c0-0.5,0.1-1.1,0.4-1.5c0.1-0.1,0.1-0.3,0.2-0.4
	c0-0.2-0.2-0.4-0.4-0.4C171.6,1.9,170.9,1.7,170.2,1.6L170.2,1.6z M191,5.7c0.2,0,0.4,0.2,0.4,0.4c0,0,0,0,0,0.1
	c-0.1,1.5-0.3,3.1-0.7,4.6c-0.6,2.4-1.9,5.1-3,5.1c-1.1,0-1.4-2.2-1.4-3.1c-0.1-2.8,1.5-5.5,4-6.8C190.5,5.9,190.8,5.8,191,5.7
	L191,5.7z M193.2,3c-5.2,0-9.2,4.4-9.2,9.9c0,1.2,0.2,2.3,0.7,3.3c0.5,1.3,1.7,2.1,3,2.2c1.2-0.1,2.3-0.8,2.9-1.8
	c2.1-2.7,2.9-6.9,3.2-10.3c0-0.4,0-0.9,0.5-0.9c0.3,0,0.6,0.1,0.8,0.2c2.3,0.9,3.7,3.2,3.6,5.6c0,3.4-2.3,5.4-5.2,6.1
	c-0.2,0-0.5,0.1-0.6,0.3c0,0.5,0.9,2,1.5,2c0.9-0.2,1.7-0.5,2.4-0.9c2.7-1.5,4.4-4.5,4.3-7.6c0-2.1-0.8-4.2-2.2-5.8
	C197.4,3.8,195.3,2.9,193.2,3L193.2,3z M209.5,7c-0.9,0-1.9,0-2.5,0c-0.5,0-0.6,0.3-0.6,1.4c0,0.6,0,1.1,0.6,1.1
	c0.7,0,1.6-0.1,2.5-0.1h0.7c0.3,0,0.6,0.3,0.6,0.6v2.3c0,0.8,0,1.5,0,2.3c0,0.6,0.3,0.6,1,0.6c1.3,0,1.4,0.1,1.4-0.9
	c0-0.7,0-1.3,0-2V10c0-0.3,0.3-0.6,0.6-0.6h3.9c0.3,0,0.6,0.3,0.6,0.7c0,0,0,0.1,0,0.1c0,4.7-0.8,6.6-5,8.5c-0.2,0-0.3,0.2-0.4,0.4
	c0.3,0.7,0.9,1.3,1.6,1.7c0.8-0.3,1.5-0.7,2.2-1.2c3.5-2.4,3.8-5.3,3.9-9.4c-0.1-0.3,0.1-0.7,0.5-0.8c0.1,0,0.1,0,0.2,0h0.6
	c0.8,0,1.7,0,2.6,0c0.6,0,0.6-0.2,0.6-1.4c0-0.9-0.2-1.1-0.6-1.1c-0.5,0-1.9,0-2.6,0h-0.6c-0.3,0-0.6-0.2-0.7-0.5c0-0.1,0-0.1,0-0.2
	V6.1c0-0.2,0-0.5,0-0.7V4.5c0-0.7,0-1.3,0.1-2c0.1-0.1,0.2-0.2,0.2-0.4c0-0.2-0.3-0.2-0.7-0.3c-0.4,0-1.6-0.2-1.9-0.2
	c-0.2,0-0.3,0.1-0.3,0.3c0,0,0,0,0,0c0,0.1,0,0.2,0,0.3c0,0.7,0.1,3.2,0.1,4c0.1,0.3-0.1,0.6-0.5,0.7c0,0-0.1,0-0.1,0h-3.9
	c-0.3,0-0.6-0.3-0.6-0.6c0,0,0,0,0,0V4.8c0-1.5,0-1.7,0.3-2.1c0.1-0.1,0.1-0.1,0.1-0.2c-0.3-0.3-0.6-0.4-1-0.3
	C212,2,211.4,2,210.9,2c-0.1,0-0.2,0.1-0.2,0.2c0,0,0,0,0,0.1c0,0,0.1,1.3,0.1,2.6v1.6c0,0.4-0.3,0.6-0.7,0.6c0,0,0,0-0.1,0L209.5,7
	L209.5,7z M246.2,6.3c-0.2,0-0.3,0.1-0.4,0.3c-3.2,4.3-8.7,8.7-13.6,10.2c-0.3,0-0.6,0.1-0.7,0.4c0.2,0.5,0.4,1,0.7,1.4
	c0.2,0.5,0.5,0.9,0.9,1.2c0.1,0,0.2,0,0.2-0.1c0.2-0.4,0.5-0.7,0.9-0.8c4.6-2.1,8.7-5.1,12.1-8.9c0.5-0.4,0.9-1,1.2-1.6
	C247.4,8.1,246.6,6.3,246.2,6.3L246.2,6.3z M233,2.6c-0.5,0-1.4,1.5-1.4,1.9c0,0.2,0.2,0.4,0.4,0.4c1,0.7,2,1.4,3,2.2
	c0.2,0.3,0.5,0.5,0.9,0.6c0.7-0.4,1.3-1,1.5-1.8c-0.3-0.5-0.8-1-1.3-1.3C235,3.8,234.1,3.1,233,2.6L233,2.6z M254.8,5.9
	c-0.7,0-1.5,0-2.2,0c-0.5,0-0.5,0.2-0.5,1.2c0,0.9,0.1,1.3,0.6,1.3c0.3,0,1.6-0.1,2.2-0.1l3.1,0c0.3,0,0.5,0.2,0.5,0.5c0,0,0,0,0,0
	c-0.1,0.8-0.3,1.5-0.6,2.3c-0.9,2.8-2.6,5.2-4.8,7.1c-0.2,0.1-0.3,0.2-0.3,0.4c0.3,0.7,0.9,1.3,1.7,1.5c0.4,0,1.7-1.5,2-1.8
	c2.2-2.6,3.7-5.8,4.4-9.1c0-0.4,0.3-0.8,0.7-0.9l2.2,0c1,0,1.3,0,1.3,0.6c-0.1,1.9-0.3,3.8-0.7,5.6c-0.3,1.7-0.8,2.3-2.1,2.3
	c-0.5,0-1-0.1-1.3-0.1c-0.2,0-0.4,0.1-0.4,0.3c0,0,0,0.1,0,0.1c0.1,0.6,0.3,1.1,0.6,1.6c0.1,0.3,0.4,0.5,0.8,0.5
	c0.4,0,0.9,0,1.3-0.1c1.3,0,2.4-0.8,2.9-2c0.7-1.6,1-4.9,1.2-6.7c0-0.5,0.4-3.1,0.4-3.3c-0.1-0.7-0.6-1.2-1.3-1.4
	c0,0-1.8,0.1-2.4,0.1l-2.1,0c-0.3,0-0.5-0.2-0.5-0.5c0,0,0,0,0-0.1c0-0.2,0.1-1.6,0.2-2c-0.1-0.4,0-0.8,0.3-1
	c0.1-0.1,0.2-0.2,0.2-0.4c0-0.2-0.2-0.3-0.3-0.2c-0.2-0.1-2.2-0.5-2.3-0.5c-0.3,0-0.3,0.3-0.3,0.5c0,0.6-0.1,3.1-0.2,3.5
	c0,0.3-0.3,0.6-0.7,0.6L254.8,5.9z M286.1,7.2c-0.2,0-0.3,0.3-0.3,0.5c-0.2,1.9-0.9,3.7-1.8,5.3c-1.5,2.5-4,4.3-6.9,5
	c-0.2,0-0.4,0.2-0.4,0.4c0.2,0.7,0.6,1.3,1.2,1.6c0.2,0,0.5-0.1,0.7-0.2c2.4-0.7,4.5-2.2,6-4.1c1.4-2,2.5-4.2,3-6.6
	c0-0.2,0.1-0.4,0.3-0.5c0.1-0.1,0.2-0.2,0.3-0.4c0-0.2-0.2-0.4-0.4-0.4C287.3,7.6,286.7,7.3,286.1,7.2L286.1,7.2z M282.1,8
	c-0.2-0.6-0.6-1-1.1-1.3c-0.3,0-1.5,0.6-1.5,1c0,0.2,0.1,0.3,0.2,0.5c0.6,0.9,1.1,1.8,1.6,2.8c0.1,0.2,0.2,0.4,0.4,0.5
	c0.3,0,1.6-0.6,1.6-1.1c-0.3-0.7-0.6-1.3-1-1.9L282.1,8z M276.5,8c-0.3,0-1.5,0.6-1.5,1c0,0.2,0.1,0.3,0.2,0.4
	c0.6,0.9,1.1,1.9,1.6,2.9c0.1,0.2,0.2,0.4,0.4,0.4c0.3,0,1.6-0.6,1.6-1.1c-0.2-0.7-0.6-1.3-1-1.9c-0.3-0.5-0.6-1-1-1.5
	C276.8,8.1,276.7,8,276.5,8L276.5,8z M301.2,8.3c0,0.1-0.1,0.1-0.2,0.1c-0.1,0-0.2-0.1-0.2-0.2c0,0,0,0,0,0V4.7c0-0.6,0-1,0-1.4
	c-0.1-0.4,0-0.9,0.2-1.2c0.1-0.1,0.1-0.2,0.1-0.3c0-0.3-0.9-0.4-1.9-0.6c-0.2,0-0.6-0.1-0.8-0.1c-0.2,0-0.3,0.1-0.3,0.4
	c0,0.1,0,0.3,0,0.4c0,0.6,0.1,1.2,0.1,1.8v13.4c0,1.1-0.1,2.1-0.1,3.2c0,0.8,0.4,0.8,1.3,0.8c1.4,0,1.4-0.1,1.4-1.2
	c0-0.9,0-1.9,0-2.8v-6.4c0-0.2,0.1-0.3,0.2-0.4c0,0,0,0,0,0c0.1,0,0.2,0,0.2,0.1c1.1,0.9,2.2,1.8,3.2,2.8c0.1,0.2,0.3,0.3,0.5,0.3
	c0.7-0.3,1.2-0.9,1.5-1.6c0-0.4-1.2-1.4-1.6-1.7c-0.4-0.4-2.7-2.2-3.1-2.2C301.6,7.9,301.3,8.1,301.2,8.3L301.2,8.3z M310.6,19.2
	c0.1,2.5,2.3,4.4,4.7,4.2c2.5-0.1,4.4-2.3,4.2-4.7c-0.1-2.4-2.1-4.2-4.5-4.2c-2.5,0-4.5,2-4.5,4.5C310.6,19,310.6,19.1,310.6,19.2
	L310.6,19.2z M318.8,19.2c-0.2,2.1-2,3.6-4.1,3.4c-2.1-0.2-3.6-2-3.4-4.1c0.2-2,1.8-3.5,3.8-3.5c2.1,0,3.8,1.8,3.8,3.9
	C318.9,19.1,318.9,19.1,318.8,19.2L318.8,19.2z M317.3,21.6l-1.6-2.1c0.7-0.2,1.1-0.8,1.1-1.5c0-0.8-0.6-1.5-1.4-1.6
	c-0.1,0-0.2,0-0.3,0h-1.3v5.1h0.9v-2l1.5,2H317.3L317.3,21.6z M314.7,17.4h0.2c0.4-0.1,0.9,0.2,1,0.6c0,0,0,0.1,0,0.1
	c0,0.4-0.4,0.8-0.9,0.8c0,0-0.1,0-0.1,0h-0.2L314.7,17.4L314.7,17.4z M335,16.2c0.1,0.7-0.4,1.2-1,1.3c-0.1,0-0.2,0-0.4,0
	c-0.6,0-1.6-0.3-1.6-1c0-0.7,1.1-0.9,1.6-0.9C334,15.6,335,15.6,335,16.2L335,16.2z M334.6,2c-0.2,0-0.3,0.1-0.3,0.2
	c0,0,0,0.1,0,0.1c0,0.1,0,0.2,0,0.2c0.1,0.6,0.3,2.9,0.3,3.4c0,0.5-0.5,0.6-1,0.6h-0.4c-1.2,0-3.1-0.2-3.4-0.2
	c-0.3,0-0.4,0.3-0.4,0.6c0,0.6,0,1.2,0.2,1.8c0.5,0.2,1.1,0.2,1.7,0.2h0.3c0.9,0,2.5-0.1,2.6-0.1c0.6,0,0.5,0.7,0.5,0.9
	c0,0.7,0.1,2.9,0.1,3.5c0,0.2-0.1,0.5-0.3,0.5c0,0-0.1,0-0.1,0h-0.2c-0.3,0-0.6-0.1-0.9-0.1c-1.7,0-3.5,0.8-3.5,3
	c0,2.2,1.9,3.1,3.7,3.1c1.3,0,2.8-0.5,3.2-2c0-0.2,0.1-0.4,0.3-0.4c0.6,0.3,1.2,0.8,1.6,1.3c0.2,0.2,0.4,0.3,0.6,0.4
	c0.7-0.3,1.2-0.9,1.3-1.6c-0.1-0.4-0.3-0.7-0.6-0.9c-0.7-0.6-1.5-1.2-2.4-1.6c-0.4-0.1-0.8-0.5-0.8-0.9c0-0.6-0.2-4.2-0.2-4.7
	c0-0.4,0.2-0.7,0.6-0.8c0.1,0,0.1,0,0.2,0c2.6-0.4,2.8-0.5,2.8-1c0-0.4-0.2-2-0.6-2c-0.1,0-0.2,0-0.3,0.1c-0.7,0.3-1.5,0.5-2.2,0.6
	c-0.3,0-0.5-0.3-0.5-0.5c0,0,0,0,0-0.1V4.7c-0.1-0.6,0-1.1,0.2-1.7c0.1-0.1,0.2-0.3,0.2-0.5c0-0.1-0.1-0.2-0.2-0.2
	C336.2,2.2,335.4,2.1,334.6,2L334.6,2z M327.5,2.7c-0.5-0.2-0.9-0.5-1.4-0.6c-0.2,0-0.3,0.2-0.3,0.4c-0.2,1-0.6,2-0.8,3.1
	c-0.5,2.2-0.8,4.4-0.8,6.6c-0.1,2.5,0.4,4.9,1.3,7.2c0.1,0.4,0.3,0.7,0.7,0.8c0.1,0,1.7-0.3,1.7-1.2c0-0.4,0-0.8,0-1.1
	c0-1.4,1.1-4,1.1-4.3c-0.2-0.4-0.5-0.7-1-0.8c-0.3,0.3-0.5,0.6-0.6,1c0,0.3-0.2,0.6-0.5,0.9c-0.4,0-0.5-2.2-0.5-2.6
	c0-2.4,0.4-4.8,1.2-7.1c0.1-0.5,0.4-1,0.9-1.2c0.1,0,0.2-0.1,0.2-0.2c-0.1-0.2-0.3-0.4-0.6-0.5C328.1,3,327.8,2.9,327.5,2.7
	L327.5,2.7z M360.1,2.6c-0.5,0.1-0.9,0.4-1.2,0.8c0.1,0.2,0.2,0.4,0.3,0.6c0.3,0.5,0.7,1.2,1,1.7c0.2,0.4,0.2,0.5,0.4,0.5
	c0.5-0.1,0.9-0.4,1.2-0.9c-0.2-0.5-0.5-1.1-0.8-1.5C360.8,3.2,360.5,2.9,360.1,2.6L360.1,2.6z M362.4,0.9c-0.5,0.1-0.9,0.4-1.2,0.8
	c0,0.1,0,0.1,0.1,0.2c0.5,0.8,0.9,1.4,1.3,2.2c0,0.2,0.2,0.3,0.3,0.3c0.5-0.1,0.9-0.5,1.2-0.9c-0.2-0.5-0.5-1-0.8-1.5
	C363.1,1.6,362.8,1.3,362.4,0.9L362.4,0.9z M351,2.1c-0.8,0.1-1.5,0.2-1.5,0.5c0,0.1,0,0.2,0.1,0.3c0.2,0.5,0.3,1,0.4,1.5
	c0.2,1,0.8,3.5,1.1,4.4c0,0.1,0.1,0.2,0.1,0.4c0,0.3-0.2,0.6-0.5,0.7c-1.8,1.2-3.3,2.8-3.3,5.1c0,1.5,0.7,2.9,2,3.6
	c1.4,0.8,3,1.1,4.6,1c1.2,0,4.9-0.1,5.9-0.3c0.6-0.1,0.6-0.4,0.6-1V18c0-0.5,0-1.5-0.3-1.5c-0.1,0-0.1,0-0.2,0
	c-0.3,0.1-1.9,0.3-2.3,0.4c-1.1,0.1-2.3,0.2-3.5,0.2c-1,0-2-0.1-3-0.4c-0.8-0.2-1.4-0.9-1.4-1.7c0-2.1,3.4-3.9,4.9-4.7
	c1.5-0.8,3-1.6,4.6-2.2c0.2,0,0.4-0.2,0.4-0.4c0-0.4-1.1-2.4-1.4-2.4c-0.2,0-0.4,0.1-0.6,0.3c-1.2,0.8-2.5,1.6-3.8,2.2
	c-0.3-0.1-0.5-0.4-0.5-0.7c-0.3-1.4-0.6-2.8-0.7-4.2c0-0.5,0-0.9-0.6-0.9C351.7,2,351.3,2,351,2.1L351,2.1z M373.8,0.9
	c-0.2,0-0.3,0-0.4,0.2c0,0,0,0.1,0,0.1c0,0.2,0,0.4,0,0.7c0,1-0.1,2.4-0.1,3.1c0,0.2,0,0.5-0.1,0.7c-0.3,0.6-3.1,1.1-3.8,1.2
	c-0.3,0-0.7,0-0.7,0.4c0.1,0.5,0.3,1.1,0.5,1.6c0.1,0.3,0.3,0.6,0.6,0.7c0.9-0.2,1.8-0.6,2.7-1c0.1-0.1,0.3-0.1,0.4-0.1
	c0.2,0,0.3,0.1,0.3,0.3c0,0,0,0,0,0c0,0.2,0,0.4,0,0.6c0,0.4-0.1,0.8-0.3,1.1c-1,2-2.1,3.9-3.3,5.7c-0.2,0.3-0.3,0.5-0.4,0.9
	c0.4,0.7,0.9,1.3,1.7,1.5c0.1,0,0.3-0.1,0.3-0.3c0.2-0.5,0.9-1.7,1.2-2.1c0.1-0.3,0.3-0.5,0.5-0.7c0.1,0,0.2,0.2,0.2,0.3
	c0,1.1-0.1,3.7-0.1,3.9c0,0.5,0.4,0.5,0.9,0.5c1.6,0,1.6-0.2,1.6-0.4c0-0.3-0.1-1.5-0.1-2.5c0-0.4-0.1-1.1-0.1-1.2
	c0-0.5-0.1-3.4,0-3.7c0.3-0.6,0.8-1.1,1.2-1.5c0.8-0.8,1.6-1.6,2.4-2.3c0.5-0.5,1.1-0.8,1.7-0.9c0.7,0,0.7,0.8,0.7,1.3
	c0,2.1-0.3,4.3-0.3,6.4c0,1.5,0.2,3.8,2,3.8c1.2-0.1,2.3-0.6,3.1-1.4c0.4-0.3,0.8-0.7,1.1-1.1c0-0.4-0.6-2.1-1-2.1
	c-0.2,0-0.3,0.1-0.4,0.3c-0.4,0.5-1.4,1.5-2,1.5c-0.5,0-0.5-0.8-0.5-1.4c0-1,0.1-2,0.1-3.1c0.1-1.2,0.1-2.4,0.1-3.6
	c0.1-0.8-0.1-1.5-0.4-2.2c-0.4-0.6-1.1-1-1.9-1c-1.2,0.1-2.4,0.7-3.2,1.7c-0.5,0.5-1.4,1.3-1.9,1.8c0,0.1-0.1,0.1-0.2,0.1
	c-0.1,0-0.2-0.1-0.2-0.2c0,0,0,0,0,0c0-0.1,0-0.3,0-0.4c0.1-0.2,0.5-1,0.6-1.1c0.1-0.1,0.1-0.2,0.1-0.3c-0.1-0.4-0.4-0.8-0.8-1.1
	c-0.2,0-0.4-0.2-0.4-0.4c0-0.3,0.2-1.5,0.2-1.9c0.1-1,0.1-1,0.4-1.3c0.1-0.1,0.2-0.2,0.2-0.4c0-0.1-0.1-0.2-0.2-0.3
	C375.9,1.2,374,0.9,373.8,0.9L373.8,0.9z M397.1,14.9c0.4,0,0.5-0.1,0.5-0.7c0-1.3,0.7-2.6,1.8-3.3c1.5-1.3,2.6-2.4,2.6-4.4
	c0-2.2-1.9-4.1-5.1-4.1c-2.1,0-4.1,0.8-5.4,2.4c-0.1,0.1-0.2,0.3-0.3,0.5c0,0.2,0.1,0.4,0.3,0.5l0.9,0.9c0.1,0.2,0.3,0.3,0.5,0.3
	c0.2-0.1,0.4-0.2,0.4-0.4c0.8-1.1,2.1-1.7,3.4-1.8c1.7,0,2.6,0.8,2.6,1.9c-0.1,0.9-0.6,1.7-1.3,2.2c-1.5,1.3-2.8,2.6-2.8,5
	c0,0.7,0.1,0.8,0.5,0.8H397.1L397.1,14.9z M396.6,16.6c-0.9,0-1.7,0.8-1.7,1.7c0,0.1,0,0.1,0,0.2c0,0.8,0.6,1.5,1.4,1.6
	c0,0,0.1,0,0.1,0c0.9,0,1.7-0.7,1.7-1.6c0-0.1,0-0.1,0-0.2c0.1-0.8-0.6-1.6-1.4-1.6C396.7,16.6,396.6,16.6,396.6,16.6L396.6,16.6z"
	/>
</svg>
