<?xml version="1.0" encoding="utf-8"?>
<!-- Generator: Adobe Illustrator 26.0.3, SVG Export Plug-In . SVG Version: 6.00 Build 0)  -->
<svg version="1.1" id="lead-product.svg" xmlns="http://www.w3.org/2000/svg" xmlns:xlink="http://www.w3.org/1999/xlink" x="0px"
	 y="0px" viewBox="0 0 374.5 49.6" style="enable-background:new 0 0 374.5 49.6;" xml:space="preserve">
<style type="text/css">
	.st0{fill:#1147B4;}
</style>
<g>
	<path d="M5.2,8.1C5,9.4,4.7,10.6,4.3,11.6c1,1.5,2.7,1.7,5.3,1.7c1.7,0,4.3-0.1,6.1-0.3c-0.3,0.4-0.5,1.3-0.6,1.8
		c-1.7,0.1-3.7,0.1-5.6,0.1c-2.9,0-4.7-0.3-6-1.9c-0.6,0.9-1.3,1.6-2,2.2c-0.2-0.4-0.9-1-1.2-1.3c1.5-0.9,2.5-2.5,3-4.6H2
		c-0.4,0-0.8,0.1-1,0.2C0.9,9.1,0.6,8.3,0.4,8c0.3-0.1,0.5-0.2,0.8-0.5c0.3-0.3,0.9-1.2,1.6-2H0.7V3.9H4l0.2-0.1l1.2,0.5
		C4.7,5.2,3.7,6.7,2.9,7.8H4l0.3,0L5.2,8.1z M3.2,3.6C2.8,3,1.9,1.9,1.1,1.1l1.4-0.9C3.3,0.9,4.2,2,4.7,2.6L3.2,3.6z M7.4,2.8h-2
		V1.3h3.8C9,1,8.8,0.8,8.6,0.5L10.1,0c0.3,0.4,0.6,0.9,0.9,1.3h4.3v1.5h-1.9c-0.2,0.4-0.4,0.8-0.6,1.1H15v6.9c0,0.8-0.1,1.2-0.7,1.5
		c-0.5,0.3-1.2,0.3-2.1,0.3c-0.1-0.4-0.2-0.9-0.4-1.3H9.5v0.5H8.2V8.2h1.5V7.3H7.8V6.2h1.9V5.3H7.6v7.1H5.8V3.9h1.7
		C7.4,3.5,7.2,3.1,7.1,2.8L7.4,2.8z M11.1,3.9c0.1-0.4,0.3-0.8,0.4-1.1H8.8C9,3.2,9.2,3.6,9.2,3.9H11.1z M11.2,9.3H9.5v0.8h1.7V9.3z
		 M13.2,5.3H11v0.8h2v1.2h-2v0.9h1.5V11H13c0.2,0,0.2-0.1,0.2-0.3V5.3z"/>
	<path d="M25.9,1c-0.2,0.2-0.4,0.5-0.5,0.7c2.1,1.9,4.2,3,6.4,3.8c-0.5,0.4-1.1,1.2-1.3,1.7c-0.8-0.4-1.6-0.8-2.3-1.2v1h-8V6.3
		c-0.7,0.4-1.4,0.8-2.2,1.2c-0.3-0.5-0.9-1.3-1.4-1.7c3-1.2,6-3.1,7.7-5.6L25.9,1z M19,8.5h10.4v6.6h-2v-0.6H21v0.7h-2V8.5z
		 M21,10.2v2.5h6.4v-2.5H21z M27,5.3C26.1,4.7,25.2,4,24.2,3c-0.8,0.9-1.7,1.6-2.6,2.3H27z"/>
	<path d="M39.3,3.5l1.2,0.4c-0.9,4.3-3.3,6.6-6.8,7.8c-0.2-0.5-0.7-1.2-1-1.6c1.4-0.4,2.6-1.1,3.6-2c-0.4-0.4-1-0.9-1.6-1.4
		c-0.2,0.2-0.5,0.4-0.7,0.6c-0.3-0.3-1.1-0.9-1.5-1.2c1.2-0.9,2.3-2.2,3-3.6h-2.3V0.9h7.5v1.7h-3.2c-0.1,0.3-0.3,0.7-0.5,1H39
		L39.3,3.5z M32.8,14.5c0.7-0.7,1.4-1.9,1.8-3.1l1.8,0.4c-0.4,1.2-1,2.5-1.8,3.4L32.8,14.5z M36.1,5c-0.1,0.2-0.2,0.3-0.4,0.5
		c0.6,0.4,1.2,0.8,1.7,1.3C37.7,6.2,38,5.6,38.3,5H36.1z M39.2,11.7c0.2,1,0.4,2.2,0.4,3L37.7,15c0-0.8-0.1-2.1-0.3-3.1L39.2,11.7z
		 M42.4,11.7c0.4,0.9,0.8,2.2,0.9,3L41.4,15c-0.1-0.8-0.5-2.1-0.8-3L42.4,11.7z M43,8.4h-1.9V1.3H43V8.4z M46.7,9.3
		c0,1-0.2,1.5-0.9,1.8c-0.6,0.3-1.6,0.3-2.9,0.3c-0.1-0.5-0.4-1.3-0.7-1.8c0.9,0,1.8,0,2.1,0s0.4-0.1,0.4-0.3V0.4h1.9V9.3z
		 M45.6,11.3c0.7,1,1.6,2.3,2,3.2l-2,0.7c-0.3-0.9-1.2-2.3-1.9-3.3L45.6,11.3z"/>
	<path d="M61.8,1.2V15h-2.1v-1h-7.1v1h-2V1.2H61.8z M52.6,3.1v3.5h7.1V3.1H52.6z M59.7,12V8.4h-7.1V12H59.7z"/>
	<path d="M72.9,3.3v2.5l0.3-0.4c1.7,0.9,4.3,2.2,5.5,3.2l-1.4,1.7c-0.9-0.8-2.8-2-4.4-2.9v7.6h-2.1V3.3h-5.8V1.4h14.3v1.9H72.9z"/>
	<path d="M83.8,7.9c-0.7-0.5-2-1.2-3-1.7l1-1.4c0.9,0.4,2.3,1.1,3,1.6L83.8,7.9z M81.1,13.7c0.9-1.2,2.1-3.2,3.1-5.1l1.4,1.3
		c-0.9,1.7-1.9,3.5-2.8,5.1L81.1,13.7z M84.5,3.5c-0.6-0.5-2-1.2-2.9-1.8l1.1-1.4c0.9,0.4,2.3,1.2,3,1.6L84.5,3.5z M91.6,6.7v2h3.3
		v6.4h-1.8v-0.6h-4.8v0.7h-1.7V8.7h3.3v-2h-4.3V4.8h4.3V3c-1,0.2-2.1,0.3-3.1,0.4c-0.1-0.5-0.3-1.2-0.6-1.6c2.7-0.3,5.7-0.8,7.5-1.5
		l1.5,1.5c-1,0.4-2.2,0.7-3.5,0.9v2.2h4.1v1.8H91.6z M93.1,10.4h-4.8v2.4h4.8V10.4z"/>
	<path d="M111.5,3.8c0,0,0,0.6,0,0.9c-0.1,6.6-0.3,8.9-0.8,9.6c-0.4,0.5-0.7,0.7-1.3,0.8c-0.5,0.1-1.2,0.1-2,0.1
		c0-0.5-0.2-1.3-0.6-1.8c0.7,0.1,1.3,0.1,1.6,0.1c0.2,0,0.4-0.1,0.5-0.3c0.3-0.4,0.5-2.4,0.6-7.6h-1.4c-0.2,4.3-0.9,7.6-3.6,9.7
		c-0.2-0.4-0.7-0.9-1.1-1.3c-2.3,0.2-4.6,0.5-6.4,0.6L96.8,13c0.9-0.1,2-0.1,3.3-0.2v-1h-2.8v-1.3h2.8V9.9h-2.8v-5h2.8V4.3h-3.2V2.9
		h3.2V2.3c-0.9,0.1-1.8,0.1-2.7,0.1c-0.1-0.4-0.2-1-0.4-1.3c2.4-0.1,5.2-0.4,6.9-0.8l0.8,1.4c-0.9,0.2-1.8,0.3-2.9,0.4v0.8h3.1v0.9
		h1.5c0-1.1,0-2.2,0-3.4h1.8c0,1.2,0,2.3,0,3.4H111.5z M98.8,6.8h1.3V6.1h-1.3V6.8z M100.1,8.7V8h-1.3v0.7H100.1z M101.8,12.7
		c0.9-0.1,1.9-0.1,2.8-0.2c1.3-1.7,1.6-4,1.8-6.9h-1.5V4.3h-3.1v0.6h2.8v5h-2.8v0.6h2.9v1.3h-2.9V12.7z M103.1,6.8V6.1h-1.3v0.7
		H103.1z M101.8,8v0.7h1.3V8H101.8z"/>
	<path d="M127.5,2.7c0,0,0,0.6,0,0.9c-0.2,7.2-0.4,9.7-1,10.6c-0.4,0.6-0.9,0.8-1.5,0.9c-0.6,0.1-1.6,0.1-2.5,0
		c0-0.5-0.3-1.3-0.6-1.9c1,0.1,2,0.1,2.4,0.1c0.3,0,0.5-0.1,0.7-0.3c0.5-0.5,0.7-2.9,0.9-8.6h-3.4c-0.4,1-0.9,1.8-1.4,2.5
		c-0.3-0.2-0.8-0.6-1.2-0.9v7.5h-4.3v1.2h-1.7V2.8h1.8c0.2-0.8,0.4-1.8,0.5-2.6l2.1,0.3c-0.3,0.8-0.6,1.6-0.8,2.3h2.5v2.6
		c0.9-1.3,1.7-3.3,2.2-5.2l1.8,0.4c-0.2,0.7-0.4,1.4-0.6,2H127.5z M117.9,4.4h-2.6V7h2.6V4.4z M117.9,11.8V8.7h-2.6v3.1H117.9z
		 M123.2,11c-0.4-1-1.4-2.5-2.2-3.7l1.5-0.9c0.8,1.1,1.9,2.6,2.4,3.6L123.2,11z"/>
	<path d="M137.4,0.2c0,0.7,0,1.5-0.1,2.5c0.2,2.2,1.2,8.2,6.8,10.7c-0.6,0.5-1.1,1.1-1.4,1.7c-3.6-1.7-5.3-4.8-6.3-7.6
		c-0.9,2.8-2.6,5.7-5.9,7.7c-0.3-0.5-0.9-1.1-1.6-1.6c6.5-3.5,6.2-10.7,6.3-13.4H137.4z"/>
</g>
<g>
	<g>
		<path d="M84.8,42.4c-0.5,0.2-1,0.3-1.5,0.5v4.1c0,0.9-0.1,1.4-0.6,1.7c-0.5,0.3-1.2,0.4-2.2,0.4c0-0.5-0.3-1.3-0.5-1.8
			c0.6,0,1.1,0,1.3,0c0.2,0,0.3-0.1,0.3-0.3v-3.5c-0.5,0.2-1.1,0.3-1.5,0.4L79.6,42c0.5-0.1,1.2-0.3,1.9-0.5v-2.8h-1.7V37h1.7v-3
			h1.7v3h1.5v1.8h-1.5v2.3l1.3-0.4L84.8,42.4z M91.5,43.6c0.8,1.3,2.1,2.5,3.4,3.1c-0.4,0.3-1,1-1.3,1.4c-1.1-0.7-2.2-1.9-3.1-3.1
			v3.8h-1.8V45c-0.9,1.4-2.2,2.6-3.5,3.3c-0.3-0.5-0.9-1.1-1.3-1.5c1.5-0.7,2.9-1.9,3.8-3.2h-2.8v-1.7h3.8v-1.6h1.8v1.6h3.9v1.7
			H91.5z M94.2,35.6c-2.5,0.7-5.9,1.1-8.8,1.2c-0.1-0.4-0.3-1.1-0.5-1.5c2.9-0.2,6.1-0.6,8.1-1.2L94.2,35.6z M86,40.6
			c-0.1-0.8-0.5-2.1-1-3.1l1.5-0.4c0.5,0.9,0.9,2.2,1.1,3L86,40.6z M88.8,40c0-0.8-0.3-2-0.6-3l1.6-0.3c0.4,0.9,0.7,2.1,0.7,2.9
			L88.8,40z M91,40.3c0.6-1,1.4-2.6,1.8-3.9l1.8,0.7c-0.7,1.4-1.5,2.9-2.2,3.8L91,40.3z"/>
		<path d="M109.7,46.7c0,1-0.2,1.5-0.9,1.8c-0.7,0.3-1.6,0.4-3.1,0.3c-0.1-0.5-0.4-1.3-0.6-1.8c0.9,0,2,0,2.2,0
			c0.3,0,0.4-0.1,0.4-0.4v-2.4h-3.4v4.5h-1.9v-4.5h-3.3c-0.3,1.7-0.9,3.5-2,4.8c-0.3-0.4-1.1-1-1.5-1.2c1.7-1.9,1.9-4.8,1.9-7V35
			h12.1V46.7z M102.5,42.5v-2h-3v0.3c0,0.5,0,1.1,0,1.7H102.5z M99.4,36.9v1.9h3v-1.9H99.4z M107.8,36.9h-3.4v1.9h3.4V36.9z
			 M107.8,42.5v-2h-3.4v2H107.8z"/>
		<path d="M116.7,46.4c0.9,0.3,2,0.4,3.3,0.4c1.2,0,5.5,0,7-0.1c-0.3,0.4-0.6,1.3-0.7,1.9H120c-3,0-4.9-0.4-6.2-2.2
			c-0.2,1-0.4,1.9-0.7,2.6c-0.3-0.2-1.1-0.7-1.5-0.8c0.8-1.6,0.9-4.2,0.9-6.9l1.7,0.1c0,0.7,0,1.5-0.1,2.2c0.2,0.7,0.5,1.3,0.9,1.7
			v-4.8h-3v-1.7h2.7v-1.5h-2.3v-1.7h2.3V34h1.8v1.6h2.3v1.7h-2.3v1.5h2.6v0.4c1.1-0.7,1.6-1.7,1.9-3h-1.7v-1.6h7.1c0,0,0,0.4,0,0.7
			c-0.1,2.7-0.3,3.8-0.6,4.3c-0.3,0.4-0.6,0.5-1.1,0.5c-0.4,0-1.1,0.1-1.8,0c0-0.5-0.2-1.2-0.5-1.6c0.6,0.1,1.1,0.1,1.3,0.1
			c0.2,0,0.3,0,0.5-0.2c0.1-0.2,0.3-0.8,0.3-2.2h-1.7c-0.4,2-1.2,3.4-2.7,4.3c-0.2-0.2-0.6-0.5-1-0.8v0.7h-2.3v1.7h2.1v1.7h-2.1
			V46.4z M119.6,40.7h6.3v5h-6.3V40.7z M121.4,44.2h2.6v-2h-2.6V44.2z"/>
		<path d="M133.9,46.9c0,0.9-0.1,1.4-0.7,1.7c-0.5,0.3-1.2,0.4-2.2,0.4c0-0.5-0.3-1.4-0.5-1.8c0.6,0,1.2,0,1.4,0
			c0.2,0,0.3-0.1,0.3-0.3v-3.2h-1.7c-0.1,1.9-0.5,3.9-1.1,5.3c-0.3-0.3-1.1-0.7-1.5-0.9c1-2.2,1.1-5.4,1.1-7.8v-5.8h5.1V46.9z
			 M132.1,41.9v-1.9h-1.6v0.4c0,0.5,0,1,0,1.5H132.1z M130.5,36.3v1.9h1.6v-1.9H130.5z M142.6,40.4c-0.4,2.2-1,3.9-1.9,5.4
			c0.7,0.7,1.5,1.3,2.4,1.7c-0.4,0.4-0.9,1-1.2,1.5c-0.8-0.5-1.6-1.1-2.3-1.8c-0.6,0.7-1.3,1.3-2.1,1.7c-0.2-0.4-0.6-0.9-0.9-1.3V49
			h-1.8V34.5h7.4v3.1c0,0.8-0.2,1.3-0.9,1.5c-0.6,0.2-1.5,0.2-2.8,0.2c-0.1-0.5-0.3-1.1-0.6-1.6c0.8,0,1.8,0,2,0
			c0.3,0,0.3-0.1,0.3-0.3v-1.3h-3.7v3.8h4.6l0.3-0.1L142.6,40.4z M136.6,47.5c0.7-0.4,1.4-1,2-1.6c-0.8-1.2-1.4-2.5-1.9-4h-0.1V47.5
			z M138.3,41.8c0.3,0.9,0.7,1.7,1.2,2.5c0.4-0.8,0.8-1.6,1-2.5H138.3z"/>
		<path d="M147.4,45.4c-0.5,1.3-1.3,2.7-2.2,3.5c-0.3-0.3-1.1-0.8-1.5-1c0.8-0.7,1.5-1.8,1.9-2.9L147.4,45.4z M150.3,44.9h-5.5V34.6
			h5.5V44.9z M148.4,36.1h-2v1.5h2V36.1z M148.4,39h-2v1.5h2V39z M148.4,41.9h-2v1.5h2V41.9z M149.2,45c0.7,0.8,1.3,1.9,1.6,2.6
			l-1.6,0.8c-0.2-0.7-0.9-1.9-1.5-2.7L149.2,45z M155.4,39.2v2.5h2.8v7.2h-1.9v-0.6h-3.5V49h-1.8v-7.3h2.4V34h1.9v3.4h3.5v1.7H155.4
			z M156.4,43.4h-3.5v3.2h3.5V43.4z"/>
		<path d="M166,35.3c-0.4,1.4-1,3.2-1.5,4.5c1,1.3,1.2,2.4,1.2,3.3c0,1.1-0.2,1.7-0.8,2.1c-0.2,0.2-0.6,0.3-0.9,0.4
			c-0.3,0-0.7,0-1.1,0c0-0.5-0.2-1.2-0.4-1.7c0.3,0,0.5,0,0.7,0c0.2,0,0.3,0,0.5-0.1c0.2-0.1,0.3-0.5,0.3-0.9c0-0.7-0.2-1.8-1.2-2.9
			c0.4-1,0.7-2.5,1-3.6h-1.4V49h-1.8V34.7h3.8l0.3-0.1L166,35.3z M169.6,38.3c0,0.7,0,1.3-0.1,1.9h4.4c0,0,0,0.6,0,0.8
			c-0.2,4.7-0.3,6.5-0.8,7.1c-0.4,0.5-0.7,0.6-1.3,0.7c-0.5,0.1-1.3,0.1-2.1,0c0-0.6-0.3-1.3-0.6-1.9c0.7,0.1,1.4,0.1,1.7,0.1
			c0.3,0,0.4-0.1,0.5-0.2c0.3-0.3,0.4-1.6,0.5-4.9h-2.6c-0.4,3-1.4,5.4-4.2,7c-0.2-0.5-0.8-1.1-1.2-1.5c3.5-1.8,3.7-5,3.8-9.1h-2.1
			v-1.8h3.9c-0.1-0.6-0.4-1.5-0.6-2.2l1.7-0.4c0.3,0.7,0.6,1.7,0.8,2.3l-1.3,0.4h4.7v1.8H169.6z"/>
		<path d="M180.1,34.8c-1,1.1-2.4,2.2-3.6,2.9c-0.1-0.3-0.5-1-0.7-1.3c1-0.6,2.2-1.5,2.9-2.2L180.1,34.8z M177.6,40.1
			c-0.4,0.3-0.8,0.5-1.1,0.7c-0.1-0.4-0.4-1.2-0.6-1.6c1-0.5,2.3-1.5,3-2.2l1.3,0.6v-0.9h2.3v-0.9h-0.9c-0.1,0.2-0.2,0.4-0.4,0.5
			c-0.3-0.2-0.9-0.4-1.3-0.6c0.4-0.5,0.8-1.3,1-1.9l1.4,0.3c0,0.1-0.1,0.3-0.2,0.4h3.5v1.2h-1.8v0.9h2V38h-2v0.7h1.8v1h-1.8v0.7
			l2-0.1c0,0.4,0,0.9,0,1.2c-4.5,0.4-5.2,0.4-5.6,0.6c-0.1-0.3-0.3-0.9-0.4-1.2c0.3-0.1,0.5-0.2,0.5-0.8v-1.7h1.3v2.1l0.8-0.1V38
			h-2.3v-0.1c-0.3,0.3-0.6,0.7-1,1V42h-1.6V40.1z M190.9,45.7h-4c1.3,0.5,2.9,1.3,3.8,1.8l-1,1.4c-0.9-0.6-2.8-1.6-4.1-2.2l0.9-1.1
			h-1.9v3.2h-2v-3.2h-2.8l1.3,0.5c-0.9,1-2.3,2.1-3.5,2.7c-0.2-0.4-0.8-1.1-1.1-1.5c1-0.4,2.2-1,2.9-1.7h-3.2v-1.3h14.8V45.7z
			 M178.1,42.5h10.7v1.3h-10.7V42.5z M187.8,42h-1.5v-7.4h4.1v5c0,0.6-0.1,1-0.5,1.2c-0.4,0.2-0.9,0.3-1.5,0.3
			c0-0.4-0.3-0.9-0.4-1.3c0.3,0,0.7,0,0.8,0c0.1,0,0.2,0,0.2-0.2v-3.7h-1.2V42z"/>
		<path d="M203.4,45.5c1.2,0.6,2.9,1.5,3.8,2.1l-1.1,1.4c-0.8-0.6-2.6-1.6-3.8-2.3L203.4,45.5h-0.6c-0.6,1.7-1.8,2.8-4.7,3.5
			c-0.1-0.4-0.4-0.9-0.7-1.2c-0.1,0.4-0.2,0.6-0.5,0.8c-0.4,0.3-1.1,0.3-2,0.3c0-0.5-0.3-1.2-0.5-1.7c0.5,0,1,0,1.2,0
			c0.2,0,0.2-0.1,0.2-0.3v-3.8c-0.3,0.4-0.7,0.7-1,1l-0.4-1c-0.1,2-0.4,4.2-1.1,5.8c-0.3-0.3-1-0.9-1.3-1.1c0.9-2.2,0.9-5.4,0.9-7.7
			v-5.8h4.5V47c0,0.1,0,0.3,0,0.4c1.9-0.4,2.9-1.1,3.4-2h-2.9v-1.6h3.4c0-0.3,0.1-0.5,0.1-0.8h-2.8v-5.1h7.6v5.1h-2.9
			c0,0.3,0,0.5-0.1,0.8h3.7v1.6H203.4z M194.5,40.3c0,0.7,0,1.4,0,2.2c0.4-0.2,0.9-0.6,1.4-0.9V40l-0.6,0.4
			c-0.1-0.3-0.4-0.7-0.7-1.1V40.3z M194.5,36.2v2l0.4-0.3c0.3,0.3,0.6,0.7,0.9,1v-2.7H194.5z M199.5,36.7h-1.7v-1.5h1.7V34h1.7v1.2
			h1.1v1.5h-1.1v0.9h-1.7V36.7z M200.3,39.9h4v-0.7h-4V39.9z M200.3,41.8h4v-0.7h-4V41.8z M203.7,36.7h-1v-1.5h1V34h1.7v1.2h1.6v1.5
			h-1.6v0.9h-1.7V36.7z"/>
		<path d="M213.7,42.5c-0.6,0.2-1.1,0.3-1.7,0.5v3.8c0,0.9-0.2,1.4-0.7,1.7c-0.5,0.3-1.3,0.3-2.4,0.3c-0.1-0.5-0.3-1.2-0.5-1.7
			c0.6,0,1.3,0,1.5,0c0.2,0,0.3-0.1,0.3-0.3v-3.3l-1.6,0.4l-0.5-1.8c0.6-0.1,1.3-0.3,2.1-0.5v-2.8h-1.8V37h1.8v-3h1.9v3h1.6v1.8H212
			v2.4l1.5-0.4L213.7,42.5z M222.6,40.4c-0.6,2.2-1.6,4-3,5.3c1.1,0.7,2.3,1.3,3.7,1.6c-0.4,0.4-0.9,1.2-1.2,1.7
			c-1.6-0.5-2.9-1.1-4-2c-1.3,0.9-2.7,1.5-4.2,2c-0.2-0.5-0.7-1.3-1-1.7c1.4-0.3,2.7-0.9,3.8-1.6c-0.9-1.1-1.7-2.3-2.3-3.8l0.5-0.1
			h-0.8v-1.7h3.2V38h-3.5v-1.8h3.5V34h1.9v2.3h3.6V38h-3.6v1.9h1.9l0.3-0.1L222.6,40.4z M216.3,41.7c0.5,1.1,1.1,2,1.9,2.8
			c0.8-0.8,1.5-1.8,2-2.8H216.3z"/>
		<path d="M239.1,40.7h-1.2v6c0,0.9-0.1,1.4-0.7,1.7c-0.5,0.3-1.3,0.3-2.4,0.3c0-0.5-0.3-1.3-0.5-1.8c0.6,0,1.3,0,1.5,0
			c0.2,0,0.3,0,0.3-0.2v-6h-1.4v-1.3h-2.3v9.4h-1.7v-9.4h-2.1v-1.1c-0.3,0.6-0.6,1.2-0.9,1.7V49h-1.7v-6.4c-0.3,0.4-0.6,0.7-0.9,1
			c-0.2-0.4-0.7-1.3-1-1.8c1.2-1.1,2.4-2.7,3.1-4.4l1.5,0.5v-0.1h2.1V34h1.7v3.7h2.4V39h4.4L239.1,40.7z M228.6,34.6
			c-0.8,1.4-2.1,3-3.3,3.9c-0.2-0.4-0.7-1.1-1-1.4c1-0.8,2.1-2.1,2.6-3.1L228.6,34.6z M230.2,40.3c0,3.1-0.2,5.1-1.4,6.3
			c-0.2-0.3-0.6-0.9-0.9-1.1c0.9-1,1-2.6,1-5.2H230.2z M233.8,37.4c-0.2-0.5-0.7-1.4-1.2-2.1l1.2-0.6c0.5,0.6,1,1.5,1.3,2
			L233.8,37.4z M234.4,46.2c-1.3,0-1.5-0.5-1.5-1.9v-3.9h1.4v4c0,0.4,0,0.6,0.1,0.6h0.4c0.2,0,0.4,0,0.5-0.1c0,0.4,0.1,1,0.1,1.3
			c-0.2,0.1-0.4,0.1-0.7,0.1H234.4z M238.9,36.9h-3.8v-1.7h3.8V36.9z"/>
		<path d="M254.8,36.4c0,0,0,0.6,0,0.9c-0.2,7.2-0.4,9.7-1,10.6c-0.4,0.6-0.9,0.8-1.5,0.9c-0.6,0.1-1.6,0.1-2.5,0
			c0-0.5-0.3-1.3-0.6-1.9c1,0.1,2,0.1,2.4,0.1c0.3,0,0.5-0.1,0.7-0.3c0.5-0.5,0.7-2.9,0.9-8.6h-3.4c-0.4,1-0.9,1.8-1.4,2.5
			c-0.3-0.2-0.8-0.6-1.2-0.9v7.5h-4.3v1.2h-1.7V36.6h1.8c0.2-0.8,0.4-1.8,0.5-2.6l2.1,0.3c-0.3,0.8-0.6,1.6-0.8,2.3h2.5v2.6
			c0.9-1.3,1.7-3.3,2.2-5.2l1.8,0.4c-0.2,0.7-0.4,1.4-0.6,2H254.8z M245.2,38.2h-2.6v2.6h2.6V38.2z M245.2,45.6v-3.1h-2.6v3.1H245.2
			z M250.5,44.8c-0.4-1-1.4-2.5-2.2-3.7l1.5-0.9c0.8,1.1,1.9,2.6,2.4,3.6L250.5,44.8z"/>
		<path d="M270.5,42.5c-0.4,1.5-1.2,2.8-2.1,3.8c0.8,0.5,1.7,0.9,2.8,1.2c-0.4,0.4-0.9,1-1.1,1.5c-1.1-0.3-2.1-0.8-3-1.5
			c-0.8,0.6-1.7,1.1-2.7,1.4c-0.2-0.4-0.6-0.9-0.9-1.3V49h-1.8v-1.3c-1.8,0.2-3.7,0.4-5.1,0.5l-0.2-1.6c0.4,0,0.9-0.1,1.4-0.1v-4.9
			h-1.3V40h14.3v1.5h-7.4v5.9c0.8-0.3,1.6-0.6,2.3-1.1c-0.6-0.7-1.1-1.5-1.5-2.4l1.1-0.3h-1.5v-1.5h5.2l0.3-0.1L270.5,42.5z
			 M260,39.6h-1.8v-5.2h11.2v5.2h-1.9v-3.8H260V39.6z M259.6,41.5v0.6h2.1v-0.6H259.6z M259.6,44.1h2.1v-0.7h-2.1V44.1z M259.6,46.3
			c0.7-0.1,1.4-0.1,2.1-0.2v-0.7h-2.1V46.3z M267,37.5h-6.4v-1.1h6.4V37.5z M260.6,38.2h6.3v1.2h-6.3V38.2z M265.9,43.6
			c0.3,0.6,0.7,1.1,1.1,1.6c0.4-0.5,0.8-1,1.1-1.6H265.9z"/>
		<path d="M278,42c0,0,0,0.5,0,0.7c-0.2,3.5-0.4,4.9-0.9,5.4c-0.3,0.4-0.7,0.6-1.2,0.6c-0.4,0.1-1.2,0.1-2,0c0-0.5-0.2-1.3-0.5-1.8
			c0.6,0.1,1.3,0.1,1.6,0.1c0.3,0,0.4,0,0.5-0.2c0.3-0.3,0.4-1.2,0.6-3.3h-3.7c0.3-1.4,0.5-3.6,0.6-5.3h3.1v-1.9h-3.4v-1.7h5.2v5.4
			h-3.3c-0.1,0.6-0.1,1.3-0.2,1.8H278z M285.8,49c-0.1-0.3-0.2-0.6-0.3-1c-2.6,0.2-5.3,0.4-7.3,0.5l-0.2-1.9c1,0,2.3-0.1,3.6-0.2
			v-1.8h-3v-4.6h3v-1.3h1.8v1.3h3.1v4.6h-0.8c0.7,1.1,1.5,2.6,1.8,3.5L285.8,49z M285.8,39.6c-0.1-0.3-0.3-0.6-0.6-1
			c-5.2,0.5-5.9,0.5-6.4,0.7c-0.1-0.3-0.4-1.2-0.6-1.6c0.3-0.1,0.6-0.3,0.9-0.7c0.3-0.4,1.2-1.7,1.8-3l2,0.5c-0.6,1-1.3,2-2.1,2.9
			l3.5-0.3c-0.3-0.4-0.6-0.8-0.9-1.1l1.3-0.8c1,1,2.2,2.4,2.7,3.4L285.8,39.6z M281.6,43.2v-1.5h-1.4v1.5H281.6z M283.4,41.8v1.5
			h1.4v-1.5H283.4z M284.7,46.4c-0.2-0.4-0.4-0.7-0.6-1l1.5-0.6h-2.2v1.7L284.7,46.4z"/>
		<path d="M288.8,37.9l0.6-1.1l-1.1-0.5l0.2-0.7l1.2,0.3l0.1-1.2h0.7l0.1,1.2l1.2-0.3l0.2,0.7l-1.1,0.5l0.6,1.1l-0.6,0.4l-0.8-0.9
			l-0.8,0.9L288.8,37.9z"/>
		<path d="M293.4,41.1h1.5v-4.2h-1.3v-0.9c0.7-0.1,1.2-0.3,1.6-0.6h1v5.6h1.3v1.1h-4.2V41.1z"/>
		<path d="M299.5,42.2v-6.5h2.4v6.8c0,2.5,0.9,3.3,2.2,3.3c1.4,0,2.3-0.8,2.3-3.3v-6.8h2.3v6.5c0,3.9-1.7,5.6-4.6,5.6
			C301.2,47.8,299.5,46.2,299.5,42.2z"/>
		<path d="M309.9,35.7h2.5l1.6,5.8c0.4,1.3,0.6,2.5,1,3.8h0.1c0.4-1.3,0.6-2.5,1-3.8l1.5-5.8h2.4l-3.6,11.9h-2.8L309.9,35.7z"/>
		<path d="M326.5,35.3c-0.4,1.4-1,3.2-1.5,4.5c1,1.3,1.2,2.4,1.2,3.3c0,1.1-0.2,1.7-0.8,2.1c-0.2,0.2-0.6,0.3-0.9,0.4
			c-0.3,0-0.7,0-1.1,0c0-0.5-0.2-1.2-0.4-1.7c0.3,0,0.5,0,0.7,0c0.2,0,0.3,0,0.5-0.1c0.2-0.1,0.3-0.5,0.3-0.9c0-0.7-0.2-1.8-1.2-2.9
			c0.4-1,0.7-2.5,1-3.6h-1.4V49h-1.8V34.7h3.8l0.3-0.1L326.5,35.3z M330.1,38.3c0,0.7,0,1.3-0.1,1.9h4.4c0,0,0,0.6,0,0.8
			c-0.2,4.7-0.3,6.5-0.8,7.1c-0.4,0.5-0.7,0.6-1.3,0.7c-0.5,0.1-1.3,0.1-2.1,0c0-0.6-0.3-1.3-0.6-1.9c0.7,0.1,1.4,0.1,1.7,0.1
			c0.3,0,0.4-0.1,0.5-0.2c0.3-0.3,0.4-1.6,0.5-4.9h-2.6c-0.4,3-1.4,5.4-4.2,7c-0.2-0.5-0.8-1.1-1.2-1.5c3.5-1.8,3.7-5,3.8-9.1h-2.1
			v-1.8h3.9c-0.1-0.6-0.4-1.5-0.6-2.2l1.7-0.4c0.3,0.7,0.6,1.7,0.8,2.3l-1.3,0.4h4.7v1.8H330.1z"/>
		<path d="M338.5,46v1.3H337V35.1h4V46H338.5z M338.5,36.8v2.9h1v-2.9H338.5z M339.5,44.3v-3h-1v3H339.5z M349.9,47.4
			c0.3,0,0.3-0.1,0.4-0.8c0.3,0.2,0.9,0.5,1.4,0.5c-0.2,1.2-0.6,1.6-1.6,1.6h-1.3c-1.4,0-1.7-0.4-1.7-1.8v-2.4h-2.1v0.6h1.7v1.1
			h-1.7v0.9l1.7-0.2c0,0.4,0,1,0.1,1.3c-2.6,0.4-3,0.6-3.4,0.7c0-0.4-0.2-1.2-0.4-1.5c0.3-0.1,0.5-0.2,0.5-0.7v-2.2h-0.3
			c-0.2,1.5-0.6,3.1-1.3,4.3c-0.3-0.2-1-0.7-1.4-0.8c1.2-1.8,1.3-4.3,1.3-6.1v-2.3h3.9c-0.1-0.2-0.1-0.4-0.2-0.6h-0.7v-1.9h-1.7v1.9
			h-1.3v-2.9h4.3v2.4l0.8-0.2v-2.2h4.5v2.9h-1.3v-1.9h-1.8v1.9H347c0.1,0.2,0.2,0.4,0.2,0.6h4.1v1.2h-3v0.7h2.6v3h-2.4v0.6h2.3v1.1
			h-2.3V47c0,0.4,0,0.4,0.4,0.4H349.9z M346,35.7h-4.7v-1.2h4.7V35.7z M343.4,39.1c-0.1-0.4-0.3-0.9-0.4-1.3l0.9-0.3
			c0.2,0.4,0.4,0.9,0.5,1.3L343.4,39.1z M343.2,42.7c0,0.3,0,0.5,0,0.8h1.1v-0.8H343.2z M343.2,40.9v0.7h1v-0.7H343.2z M346.8,40.9
			h-1.1v0.7h1.1V40.9z M346.8,42.7h-1.1v0.8h1.1V42.7z M351.3,35.7h-4.8v-1.2h4.8V35.7z M348.6,39c-0.1-0.4-0.3-0.9-0.5-1.3l1-0.3
			c0.2,0.4,0.4,1,0.5,1.3L348.6,39z M348.4,42.7v0.8h1v-0.8H348.4z"/>
	</g>
</g>
<g>
	<path class="st0" d="M4.1,43.7c-0.5,1.4-1.3,3-2,4C1.7,47.5,1,47,0.6,46.7c0.7-0.9,1.3-2.3,1.7-3.5L4.1,43.7z M6.9,42.6v6.5H4.6
		v-6.5H0.9v-2h3.7v-1.5H0.8v-1.9h1.9c-0.1-0.6-0.3-1.4-0.6-2.1l1.6-0.4H1.1v-1.9h3.4c-0.2-0.5-0.4-1.1-0.6-1.6l2.3-0.6
		c0.3,0.7,0.7,1.5,0.9,2.1h2.8v1.9H7.5L9.1,35c-0.3,0.8-0.6,1.5-0.9,2.1h2.1v1.9H6.9v1.5h3.1v2H6.9z M4,34.7
		c0.3,0.7,0.6,1.5,0.7,2.1l-1.4,0.4h2.8c0.3-0.7,0.7-1.7,0.8-2.4H4z M19,39.5h-1.8v9.7h-2.3v-9.7h-1.8v0.2c0,2.9-0.3,7-1.9,9.5
		c-0.4-0.4-1.3-1.2-1.8-1.4c0.4-0.6,0.7-1.2,0.9-1.9l-1.4,0.9c-0.3-0.8-1-2.1-1.5-3L8.8,43c0.5,0.8,1.1,1.8,1.5,2.6
		c0.6-1.9,0.6-4,0.6-5.8v-7c2.2-0.4,4.5-1,6-1.7l1.8,1.7c-1.6,0.7-3.7,1.1-5.6,1.5v3.1h6V39.5z"/>
	<path class="st0" d="M26.8,38.6v10.7h-2.3V31.6h7.6v7H26.8z M26.8,33.3v1h3.1v-1H26.8z M29.9,36.9v-1.1h-3.1v1.1H29.9z M35.6,44.8
		v4.1h-2.1v-4.1h-1.9c-0.2,1.4-0.8,3.3-2.5,4.4c-0.3-0.4-1-1-1.5-1.3c1.3-0.8,1.8-2.1,2-3.1h-2v-1.9h2.1v-1.5H28v-1.9h9.5v1.9h-1.9
		v1.5h2.2v1.9H35.6z M33.6,42.9v-1.5h-1.8v1.5H33.6z M41.1,46.5c0,1.2-0.2,1.9-0.9,2.2c-0.7,0.4-1.7,0.5-3.2,0.5
		c-0.1-0.7-0.4-1.7-0.7-2.3c0.9,0,1.9,0,2.2,0c0.3,0,0.4-0.1,0.4-0.4v-7.9h-5.4v-7h7.7V46.5z M35.6,33.3v1h3.2v-1H35.6z M38.8,36.9
		v-1.1h-3.2v1.1H38.8z"/>
	<path class="st0" d="M64.5,34.1c-0.8,0.7-1.6,1.3-2.3,1.8C63,36.4,64,36.8,65,37c-0.5,0.5-1.1,1.3-1.4,1.9
		c-0.8-0.3-1.5-0.6-2.2-0.9v1.7c0,0.5,0,0.6,0.3,0.6h1c0.3,0,0.7,0,1-0.1c0,0.5,0.1,1.1,0.2,1.6c-0.3,0.1-0.7,0.1-1.1,0.1h-1.2
		c-1.7,0-2-0.7-2-2.3v-1.1h-1.8c-0.1,1.4-0.5,2.9-2.2,3.9c-0.2-0.3-0.8-0.9-1.2-1.3v0.6h-3.9c-0.1,0.5-0.1,0.9-0.2,1.4h4.1
		c0,0,0,0.6,0,0.8c-0.2,2.7-0.5,3.9-1,4.4c-0.4,0.5-0.9,0.6-1.6,0.7c-0.5,0.1-1.6,0.1-2.6,0c0-0.6-0.3-1.4-0.7-2
		c1,0.1,2,0.1,2.4,0.1c0.3,0,0.5,0,0.7-0.2c0.2-0.2,0.4-0.8,0.6-2.2h-4.1c0.3-1.3,0.6-3.2,0.8-4.8h3.5v-1.4h-2.9v-0.3
		c-0.6,0.3-1.2,0.6-1.8,0.8c-0.3-0.5-0.8-1.3-1.3-1.7c1.2-0.3,2.3-0.9,3.3-1.5c-0.5-0.4-1.2-0.8-1.8-1.2l1.3-1.2
		c0.7,0.3,1.5,0.8,2.1,1.2c0.4-0.4,0.8-0.8,1.1-1.3h-3.9v-1.8h5.1l0.4-0.1l1.4,0.7c-0.8,1.9-2.1,3.5-3.7,4.7h2.6v3.9
		c1.2-0.8,1.4-1.8,1.4-2.6v-1.4h3.8c-1.7-1.4-3-3.1-4-5.2l1.9-0.6c0.3,0.7,0.7,1.3,1.1,1.9c0.7-0.6,1.4-1.3,1.9-1.8l1.7,1.2
		c-0.8,0.7-1.7,1.4-2.4,1.9c0.3,0.3,0.7,0.6,1,0.9c0.7-0.6,1.7-1.4,2.2-2.1L64.5,34.1z M63,42.8c-0.5,1.4-1.2,2.6-2.2,3.5
		c0.9,0.5,1.7,1,2.3,1.4L62,49.3c-0.7-0.5-1.6-1.1-2.7-1.7c-1.2,0.8-2.8,1.3-4.4,1.7c-0.2-0.5-0.6-1.3-1-1.7
		c1.3-0.2,2.5-0.6,3.5-1.1c-1-0.5-1.9-1.1-2.7-1.5l0.8-0.9H55v-1.6h6.4l0.4-0.1L63,42.8z M56.5,44c0.8,0.4,1.7,0.9,2.6,1.4
		c0.5-0.4,0.9-0.9,1.2-1.4H56.5z"/>
	<path class="st0" d="M70.5,45.9c0-1.1,0.8-1.9,1.8-1.9s1.8,0.8,1.8,1.9c0,1.1-0.8,1.9-1.8,1.9S70.5,47,70.5,45.9z M70.9,35.3
		l-0.1-2.7h2.9l-0.1,2.7l-0.4,7.3h-1.9L70.9,35.3z"/>
</g>
</svg>
