<svg xmlns="http://www.w3.org/2000/svg" width="80" height="80"><g transform="translate(-.571 -.422)" fill="none" fill-rule="evenodd"><rect width="77.943" height="77.943" x="1.6" y="1.451" fill="#FF7542" stroke="#FF7542" stroke-width="2.057" rx="38.971"/><path fill="#FFF" fill-rule="nonzero" d="M26.313 49.827H12V30.842h14.313L45.292 17.6v45.539zm36.276 9.49h-.46l-1.221-.612c-.384-.075-.611-.227-.687-.46-.151-.226-.151-.535 0-.919.076-.075 1.222-1.99 2.298-4.899 1.071-2.833 2.299-7.197 2.299-12.014 0-4.975-1.222-9.263-2.299-12.015-1.07-2.909-2.216-4.747-2.298-4.823-.308-.844-.151-1.146.687-1.606l1.146-.61c.227-.077.384-.152.61-.152.46 0 .92.384 1.304 1.222.076.227.227.46.384.843 1.303 2.374 4.666 8.803 4.666 17.525 0 4.823-1.221 9.187-2.298 11.939-1.222 2.984-2.374 4.899-2.374 4.899l-.075.15c-.454.839-.762 1.531-1.682 1.531zm-6.429-9.723h-.46l-1.146-.535v-.076c-.384-.076-.61-.227-.686-.46-.151-.227-.151-.535 0-.919 0 0 1.53-3.293 1.53-7.197 0-4.055-1.53-6.964-1.606-7.116-.308-.843-.151-1.221.687-1.605l1.146-.611c.227-.076.384-.152.61-.152.46 0 .92.384 1.304 1.222.076.227.227.46.308.687.768 1.454 1.763 3.444 1.763 7.959 0 2.525-1.605 6.964-1.681 7.116l-.076.15c-.465.85-.774 1.537-1.693 1.537z"/></g></svg>