<svg version="1.1" id="Layer_1" xmlns="http://www.w3.org/2000/svg" x="0" y="0" viewBox="0 0 80 80" xml:space="preserve"><style>.st1{fill:#fff}</style><path d="M40 1h0c21.5 0 39 17.4 39 39h0c0 21.5-17.4 39-39 39h0C18.5 79 1 61.5 1 40h0C1 18.5 18.5 1 40 1z" fill-rule="evenodd" clip-rule="evenodd" fill="#ff7542" stroke="#ff7542" stroke-width="2.057"/><path class="st1" d="M24.3 49.4H10v-19h14.3l19-13.2v45.5l-19-13.3zm26.1-18.2l2.5-2.4L72.8 48l-2.5 2.4-19.9-19.2z"/><path class="st1" d="M52.9 50.4L50.4 48l19.9-19.2 2.5 2.4-19.9 19.2z"/></svg>