<svg xmlns="http://www.w3.org/2000/svg" width="96" height="108"><defs><clipPath id="a"><path d="M0 0h96v108H0z"/></clipPath></defs><g data-name="5"><g data-name="Group 2" clip-path="url(#a)"><g data-name="Group 1" fill="#ff7542" fill-rule="evenodd"><path data-name="Path 1" d="M32.384 70.95l12.6-19.562a5.9 5.9 0 015.567-1.434q3.46.646 2.72 8.323-1.764 10.974-9.653 15.158a14.189 14.189 0 01-7.187 1.965 11.434 11.434 0 01-3.554-.806 1.334 1.334 0 01-1.06-1.158 5.116 5.116 0 01.567-2.486z"/><path data-name="Path 2" d="M43.486 47.569L29.02 69.366q-2.038 2.468-4.561 0c-2.523-2.47-1.269-11.972 0-14.555s4.807-9.674 12.483-12.476c2.516-.919 5.4-.474 7.447 0a12.412 12.412 0 014.986 3.032 1.932 1.932 0 010 .62c-.073.355-.073.94-1.16.772a6.691 6.691 0 00-4.729.81zM75.46 36.62h6.428l-1.275 31.692h-3.706L75.461 36.62zm-.076-1.684L74.2 9H83l-1.044 25.936h-6.572zM76.984 70h3.561l-.958 23.8H78.07L76.984 70z"/></g></g></g></svg>