<svg xmlns="http://www.w3.org/2000/svg" width="72" height="72"><defs><clipPath id="a"><path d="M0 0h72v72H0z"/></clipPath></defs><g data-name="1"><g data-name="Group 12" clip-path="url(#a)"><g data-name="Group 11"><g data-name="Group 10"><g data-name="Group 9"><path data-name="Path 9" d="M41.72 7.567l-2.95 47.692q.021 2.775-3.949 2.775H22.346q-2.181 0-2.762-2.775T15.233 16.56q-1.1-3.233 3-4.552a83.807 83.807 0 0114.278-3.635q2.483-.424 9.209-.806zm-21.647 7.47a1.4 1.4 0 00-1.244 1.537l3.622 34.624a1.4 1.4 0 002.78-.295L21.608 16.28a1.4 1.4 0 00-1.535-1.243zm26.635.9h-.086a1.5 1.5 0 01-1.417-1.574l.293-5.623a1.5 1.5 0 012.991.158l-.223 4.245 5.667.8a1.493 1.493 0 011.356.628v.006l7.622 10.936a1.783 1.783 0 01.1.166 1.5 1.5 0 01.617 1.431v.008a1.5 1.5 0 01-1.693 1.278l-14.359-2.028-1.45 27.812a1.518 1.518 0 01-.076.4q-.75 8.625-7.439 10.1l-.066-.02a1.531 1.531 0 01-.246.02H21.333a1.5 1.5 0 01-1.5-1.5v-.009a1.5 1.5 0 011.5-1.5h14.371q6.993-.341 7.44-8.831l.059-.122 1.458-27.953a1.481 1.481 0 01.152-.584 1.5 1.5 0 011.633-1.011l12.4 1.751-5.6-8.041-6.282-.887a1.516 1.516 0 01-.256-.06z" fill="#fff" fill-rule="evenodd"/></g></g></g></g></g></svg>