<svg xmlns="http://www.w3.org/2000/svg" width="72" height="72"><defs><clipPath id="a"><path d="M0 0h72v72H0z"/></clipPath></defs><g data-name="2"><g data-name="Group 16" clip-path="url(#a)"><g data-name="Group 15"><g data-name="Group 14"><g data-name="Group 13"><path data-name="Path 10" d="M29.662 38.391a8.571 8.571 0 118.558-8.571 8.563 8.563 0 01-8.558 8.571zm-11.65.123l2.869-1.66A11.242 11.242 0 0034.262 40.1l1.65 2.86a14.525 14.525 0 01-17.9-4.446zm-1.532-2.567a14.579 14.579 0 014.945-18.115l1.65 2.86a11.284 11.284 0 00-3.736 13.6l-2.86 1.654zM24.045 16.4a14.525 14.525 0 0117.5 5.054L38.688 23.1A11.247 11.247 0 0025.7 19.275L24.045 16.4zm18.962 7.66a14.581 14.581 0 01-4.548 17.34L36.8 38.523a11.284 11.284 0 003.337-12.8l2.87-1.66zm4.527 36.507l9.87-15.09a4.676 4.676 0 014.362-1.106q2.71.5 2.13 6.421-1.38 8.465-7.561 11.693A11.26 11.26 0 0150.7 64a9.063 9.063 0 01-2.785-.622 1.034 1.034 0 01-.83-.892 3.9 3.9 0 01.444-1.918zm8.7-18.107L45.2 59.4q-1.554 1.92-3.479 0c-1.924-1.919-.968-9.305 0-11.312s3.666-7.52 9.52-9.7a10.12 10.12 0 015.68 0 9.441 9.441 0 013.8 2.357 1.489 1.489 0 010 .483c-.055.275-.055.73-.884.6a5.011 5.011 0 00-3.607.629zM48.3 32.626a4.967 4.967 0 010-5.626 4.131 4.131 0 01-1.5-2.172 5.813 5.813 0 01-.1-2.965 3.989 3.989 0 01-2.057-1.626 3.681 3.681 0 01-.452-2.51 5.379 5.379 0 01-2.738-1.047 4.158 4.158 0 01-1.34-2.318 5.1 5.1 0 01-2.754 0 5.756 5.756 0 01-1.952-2.11 6.946 6.946 0 01-2.79.492 5.432 5.432 0 01-2.3-1.2 8.562 8.562 0 01-2.894 1.2 6.374 6.374 0 01-2.782-.492 7.219 7.219 0 01-2.076 2.11 6.365 6.365 0 01-2.811.353 8.148 8.148 0 01-1.714 2.455 3.685 3.685 0 01-2.194.557 7.668 7.668 0 01-.71 3.108 3.073 3.073 0 01-2.006 1.143 8.094 8.094 0 010 3.285A3.24 3.24 0 0111.506 27a7.773 7.773 0 01.876 2.816 4.149 4.149 0 01-.876 2.2 7.037 7.037 0 011.623 2.347 6.036 6.036 0 010 2.707 7.274 7.274 0 012.005 1.883 6.776 6.776 0 01.711 2.585 6.875 6.875 0 012.573 1.045 5.978 5.978 0 011.335 2.283 7.813 7.813 0 013.161.35 4.763 4.763 0 011.726 2.038 5.786 5.786 0 012.782-.594 6.719 6.719 0 012.638 1.428 8.193 8.193 0 012.558-1.114 8.318 8.318 0 012.79.28 9.208 9.208 0 011.951-1.518 7.573 7.573 0 012.495-.52 5.392 5.392 0 00-.68 1.108c-.32.855-.238 1.769-.6 2.125-1.549 1.534-.727 1.7-2.152 2.148s-2.177-.614-3.3-.437-1.573 1.42-2.8 1.42-2.148-1.228-3.378-1.42c-1.063-.167-2.32.875-3.485.437s-1.166-1.877-2.348-2.509c-.748-.4-2.412.233-3.491-.3s-.64-2.193-1.39-2.839-2.326-.38-3.1-1.278-.146-2.157-.742-3.057c-.464-.7-1.936-.66-2.537-1.66s.368-2.3 0-3.48c-.279-.874-1.595-1.125-1.821-2.559s.887-1.953.924-3.095c.027-.851-1.137-1.806-.924-3.134s1.42-1.2 1.815-2.405c.279-.851-.6-2.186 0-3.442s1.93-.91 2.537-1.842c.518-.8-.246-1.9.747-3.372.543-.773 2.073-.022 3.1-.906s.336-2.512 1.39-3.168 2.115.236 3.49-.32c.86-.348 1.4-1.843 2.679-2.227s1.975.625 3.155.45C27.974 9.3 29.182 8 30.316 8s1.74 1.315 2.8 1.454c.96.125 2.072-.783 3.3-.45s.7 1.517 2.152 2.227 2.307-.6 3.444.32c.81.435.847 2.236 1.59 2.815.825.644 2.364.07 3.09.9s.2 2.352.728 3.14c.606.908 2.232.868 2.608 2.031s-.56 2.623-.272 3.5c.385 1.17 2.131 1.17 2.131 2.747 0 1.08-1.218 1.725-1.218 2.82 0 1.018 1.218 2.784 1.218 3.408 0 .3-.592.87-1.218 1.734a7.468 7.468 0 00-.641 1.2 7.087 7.087 0 00-1.471.34c-.366.135-.8.527-1.487.88a.707.707 0 01-.377 0 4.521 4.521 0 010-2.423 4.965 4.965 0 011.6-2.022z" fill="#fff" fill-rule="evenodd"/></g></g></g></g></g></svg>