<svg xmlns="http://www.w3.org/2000/svg" width="96" height="108"><defs><clipPath id="a"><path d="M0 0h96v108H0z"/></clipPath></defs><g data-name="6"><g data-name="Group 5" clip-path="url(#a)"><g data-name="Group 4"><g data-name="Group 3" fill="#ff7542" fill-rule="evenodd"><path data-name="Path 3" d="M35.5 94.882v-.023q1.194.077 2.46.08t2.459-.08v.023a64.455 64.455 0 007.647-.865q7.052-1.2 8.712-2.452l1.142 3.058a64.747 64.747 0 01-6.21 2.6 43.37 43.37 0 01-9.363 1.924c-.46.042-.93.078-1.406.108a.784.784 0 01-.52.143c-.828 0-1.65-.007-2.46-.023q-1.215.024-2.459.023a.779.779 0 01-.52-.143q-.715-.045-1.406-.108a43.449 43.449 0 01-9.364-1.924 64.866 64.866 0 01-6.212-2.6l1.141-3.058q1.659 1.255 8.713 2.452a64.44 64.44 0 007.646.865zM25.22 66.326h25.42v3.2H25.22zm.4 6h24.625l-.4 3.2H26.013l-.4-3.2zm1.98 6.037h20.659l-.73 3.2h-19.2l-.73-3.2zm26-14.068v-.036a6.155 6.155 0 001.714 0h1.36q.078 1.639.07 3.22a5.536 5.536 0 00-1.044-1.593 20.913 20.913 0 00-2.1-1.59v-.037h1.714c3.277-.185 9.894-.394 9.894 7.091q0 7.575-9.6 6.672-.26 1.15-.579 2.26a21.313 21.313 0 01-7.34 11.283H28.2a21.306 21.306 0 01-7.346-11.285 49.269 49.269 0 01-1.64-16.02h3.073A37.072 37.072 0 0023.5 77.18a15.993 15.993 0 006.7 9.564h15.482a15.993 15.993 0 006.692-9.564 37.039 37.039 0 001.22-12.88zm3.142 3.185a51.607 51.607 0 01-.526 7.267q5.9.5 5.9-3.4 0-3.963-5.353-3.824zM55.6 78.022q.36-1.6.607-3.275l-.207-.02-.537 3.281zM39.845 33.887V39.4h-3.612v-5.513H31.6L38 25l6.4 8.887h-4.555z"/><path data-name="Path 4" d="M36.155 48.113V42.6h3.612v5.513H44.4L38 57l-6.4-8.887z"/><path data-name="Path 5" d="M75.26 36.62h6.428l-1.275 31.692h-3.706L75.261 36.62zm-.076-1.684L74 9h8.8l-1.044 25.936h-6.572zM76.784 70h3.561l-.958 23.8H77.87L76.784 70z"/></g></g></g></g></svg>