<svg xmlns="http://www.w3.org/2000/svg" width="72" height="72"><defs><clipPath id="a"><path d="M0 0h72v72H0z"/></clipPath></defs><g data-name="Group 21"><g data-name="3" clip-path="url(#a)"><g data-name="Group 20"><g data-name="Group 19"><g data-name="Group 18"><g data-name="Group 17" fill="#fff" fill-rule="evenodd"><path data-name="Path 11" d="M10.489 53.746L9.04 57.553a82.675 82.675 0 007.882 3.239 56.031 56.031 0 0011.888 2.4c2.715.244 5.67.312 8.69.312 2.2 0-.557-3.188-.686-3.64-.223-.78.736.914.685.335a17.431 17.431 0 010-2.348 70.981 70.981 0 01-15.95-1.051q-8.952-1.49-11.06-3.053z"/><path data-name="Path 12" d="M56.847 53.746l1.45 3.807a82.776 82.776 0 01-7.883 3.239 56.019 56.019 0 01-11.888 2.396c-2.714.244-5.67.312-8.69.312-2.2 0 .557-3.188.686-3.64.223-.78-.736.914-.685.335a17.432 17.432 0 000-2.348 70.977 70.977 0 0015.95-1.047q8.952-1.491 11.06-3.054z"/><path data-name="Path 13" d="M14.468 20.106h38.206V16.05a5.594 5.594 0 00-3.167-4.159C46.962 10.686 46.411 13.1 43.84 9.7c-.974-1.293-1.391-2.292-2.317-2.737a6.062 6.062 0 00-3.345-.377s0 6.717-9.75 7.579c-3.644.322-6.592.29-9.88.506q-4.613.3-4.079 5.435zm3.595 4.22H49.14v3.984H18.063zm.485 7.474h30.1l-.485 3.985H19.034zm38.064-5.98q6.542-.172 6.543 4.761t-7.475 4.2l-.656 4.084Q66.93 40.08 66.93 30.581c0-11.78-12.924-8.253-14.188-8.827-.477-.217 1.682 1.125 2.573 2.025a7 7 0 011.3 2.042z"/><path data-name="Path 14" d="M10.58 20.534h3.9a45.292 45.292 0 001.549 16.083 19.914 19.914 0 008.495 11.906h19.2l2.746 6H21.982a26.5 26.5 0 01-9.319-14.043 60.236 60.236 0 01-2.083-19.946z"/><path data-name="Path 15" d="M57.006 20.534h-3.9a45.291 45.291 0 01-1.548 16.083 19.918 19.918 0 01-8.495 11.909h-19.2l-2.745 6h24.486a26.5 26.5 0 009.32-14.046 60.233 60.233 0 002.083-19.946z"/></g></g></g></g></g></g></svg>