<svg xmlns="http://www.w3.org/2000/svg" width="96" height="108"><defs><clipPath id="a"><path d="M0 0h96v108H0z"/></clipPath></defs><g data-name="7"><g data-name="Group 8" clip-path="url(#a)"><g data-name="Group 7"><g data-name="Group 6" fill="#ff7542" fill-rule="evenodd"><path data-name="Path 6" d="M50.536 69.181h.012q-.762 7.391-1.689 9.71a12.978 12.978 0 01-4.459 6.067H30.913v-.03h-.106a12.978 12.978 0 01-4.458-6.067q-.925-2.313-1.685-9.669v-.041h17.484v.01l8.4-.01-.013.03zM21.761 63.04q-.444-4.087 3.39-4.33c2.731-.172 5.18-.147 8.21-.4 8.1-.687 8.1-6.037 8.1-6.037a5.23 5.23 0 012.78.3c.769.355 1.115 1.15 1.923 2.177 2.138 2.714 2.6.789 4.71 1.748a4.491 4.491 0 012.632 3.314v3.23H21.761zM35.1 94.882v-.023q1.194.077 2.46.08t2.459-.08v.023a64.455 64.455 0 007.647-.865q7.052-1.2 8.712-2.452l1.142 3.058a64.747 64.747 0 01-6.21 2.6 43.37 43.37 0 01-9.363 1.924c-.46.042-.93.078-1.406.108a.784.784 0 01-.52.143c-.828 0-1.65-.007-2.46-.023q-1.215.024-2.459.023a.779.779 0 01-.52-.143q-.715-.045-1.406-.108a43.449 43.449 0 01-9.364-1.924 64.866 64.866 0 01-6.212-2.6l1.14-3.058q1.66 1.255 8.713 2.452a64.44 64.44 0 007.646.865zM53.194 64.3v-.036a6.155 6.155 0 001.714 0h1.36q.078 1.639.07 3.22a5.536 5.536 0 00-1.038-1.598 20.913 20.913 0 00-2.1-1.59v-.037h1.714c3.277-.185 9.894-.394 9.894 7.091q0 7.575-9.6 6.672-.26 1.15-.579 2.26a21.313 21.313 0 01-7.34 11.283H27.794a21.315 21.315 0 01-7.34-11.285 49.269 49.269 0 01-1.64-16.02h3.073A37.072 37.072 0 0023.1 77.18a15.993 15.993 0 006.7 9.564h15.482a15.993 15.993 0 006.692-9.564 37.039 37.039 0 001.22-12.88zm3.142 3.185a51.607 51.607 0 01-.526 7.267q5.9.5 5.9-3.4 0-3.963-5.353-3.824zM55.2 78.022q.36-1.6.607-3.275l-.215-.02-.537 3.281zM38.645 20.287V25.8h-3.612v-5.513H30.4l6.4-8.887 6.4 8.887h-4.555z"/><path data-name="Path 7" d="M34.955 34.513V29h3.612v5.513H43.2L36.8 43.4l-6.4-8.887h4.555z"/><path data-name="Path 8" d="M74.86 36.62h6.428l-1.275 31.692h-3.706L74.861 36.62zm-.076-1.684L73.6 9h8.8l-1.044 25.936h-6.572zM76.384 70h3.561l-.958 23.8H77.47L76.384 70z"/></g></g></g></g></svg>