<svg xmlns="http://www.w3.org/2000/svg" viewBox="0 0 306.96 59.9"><g data-name="Layer 2"><path d="M243.72 37H231.1c-1.18 0-1.63-.59-1.43-1.7.41-2.31.78-4.63 1.33-6.9a1.89 1.89 0 011.46-1c7.45-.07 14.9-.05 22.35-.06 1.13 0 1.46.6 1.29 1.6-1.15 6.65-2.3 13.31-3.49 20a3.27 3.27 0 01-.87 1.6C242 60 224.1 63.91 211.92 54.61c-8.89-6.79-12.09-15.92-10.61-26.84 2.07-15.18 15.12-25.64 29-27.33 8.11-1 16-.47 23.37 3.28 3 1.49 3 1.88 1.19 4.6-1 1.48-2.15 2.88-3.09 4.4-.79 1.26-1.59 1.33-2.92.8a33.35 33.35 0 00-18-2.33 19.67 19.67 0 00-16.4 16 27.55 27.55 0 00-.19 9.58c1.25 7 6.18 11.3 13.31 12.14a20.16 20.16 0 0013-2.48 5.27 5.27 0 002-2.85 66.26 66.26 0 001.14-6.58zm37.36 22.43c-10.27.39-18.48-6.22-20.3-15a24.85 24.85 0 0116.66-28.18c7.86-2.45 15.57-2.13 22.37 3.14 6.49 5 8.06 12 6.7 19.66-2.2 12.27-12.51 20.34-25.43 20.38zm-8.41-19.87c-.51 6.36 4.45 10 10.27 9.4 7.36-.77 14.84-10.37 10.57-19.31a7.07 7.07 0 00-5.44-4c-8.07-1.47-15.39 5.09-15.4 13.91zM79.69 52.18c-1.17 1-1.92 1.81-2.78 2.44-6.43 4.73-13.54 6.18-21.1 3.61C49.18 56 45.81 50.59 44.5 44a24.35 24.35 0 0129.16-28.49 15.65 15.65 0 019.51 6.14c.29.39.56.78.87 1.15.06.09.23.09.53.18.37-1.67.75-3.32 1.11-5 .46-2.09 3-3.32 4.72-2.11.46.32.6 1.47.47 2.16-1.24 6.88-2.67 13.69-3.87 20.55-1 5.77-1.74 11.57-2.51 17.42-.33 2.46-1.9 3.54-4.26 2.53a2.08 2.08 0 01-.8-1.62c-.04-1.45.14-2.85.26-4.73zm-11.36-32a33.36 33.36 0 00-3.48.38 19.05 19.05 0 00-14.2 23c1.51 5.85 5.8 9.83 11.19 10.37 11.1 1.13 20.65-8.05 20.53-19.73-.08-8.36-5.66-13.92-14.04-14zM160 42.43a11.28 11.28 0 002.69 6.75c3.78 4.51 8.87 5.72 14.37 5.11a40.79 40.79 0 008.72-2.35c1.25-.44 2-.47 2.41.78s1.93 2.32-.13 3.45c-5.22 2.83-10.8 3.51-16.62 3.08-7.1-.53-14.2-5.83-16.17-12.66-2.83-9.78-.3-18.35 7-25.28 6.67-6.31 14.65-8 23.36-5 5.49 1.9 8.47 6.72 8.47 12.72s-3 10.5-8.45 12.73c-6.3 2.57-12.84 2.17-19.38 1.65-2.02-.2-4.03-.63-6.27-.98zm12.68-4.13a40.85 40.85 0 008.38-.64 8.86 8.86 0 007.45-8.44c.14-4.28-2.37-7.42-6.87-8.62-9.14-2.42-20.37 5.33-21.37 14.72-.12 1.14.23 1.7 1.34 1.85a88.25 88.25 0 0011.06 1.13zM0 58.42c.86-4.91 1.67-9.57 2.5-14.23Q6.12 24 9.76 3.77c.4-2.22 3.59-3.65 5.46-2.31.41.3.52 1.36.42 2-.86 5.17-1.79 10.31-2.71 15.46l-4.68 26c-.31 1.76-.61 3.52-1 5.27C6.78 52.88 6.83 53 9.64 53H36.1c1.06 0 2.78-.72 2.89 1.29.17 3.23-.68 4.31-3.12 4.31H2.38c-.73.01-1.45-.1-2.38-.18zM134.31 20.7a23.29 23.29 0 01-3.32-.19c-.75-.15-2-.64-2.05-1 0-1.29-.13-2.91 1.8-3.2.88-.13 1.77-.22 2.66-.32a2.55 2.55 0 002.49-2.27c.65-2.88 1.57-5.7 2.28-8.57.58-2.31 2.39-1.49 3.71-1.39 1.67.13 1 1.55.82 2.44-.48 3-1.08 6.05-1.69 9.44h9.77c1.2 0 2.79-.5 2.75 1.71-.05 2.56-.51 3.14-2.91 3.15-2.89 0-5.79.05-8.68 0-1.3 0-1.93.34-2.18 1.78-1.32 7.62-2.76 15.18-4.19 22.72a3.05 3.05 0 000 .41c-.75 6.67.91 8.42 7.74 8.13 1 0 2.07-.09 3.1-.17 1.25-.11 2.27-.11 2.53 1.57s-.31 2.47-1.87 2.78c-3.8.76-7.6 1.43-11.44.35a7.44 7.44 0 01-5.34-5.49c-1.12-3.74-.4-7.34.32-11 1.28-6.55 2.45-13.12 3.65-19.68.01-.29.01-.63.05-1.2zm-22.52-5.04h9.94c1.09.08 2.53-.38 2.48 1.56-.07 2.56-.6 3.28-2.62 3.31h-8.89c-1.33 0-1.91.46-2.15 1.85-1.29 7.39-2.71 14.75-4 22.13a26.92 26.92 0 00-.31 4.12c-.07 2.86 1.38 4.61 4.24 4.8 2.33.16 4.68 0 7-.07 1 0 1.93 0 2 1.41.06 1.16.47 2.62-1.2 2.79-3.74.38-7.55 1-11.23.63-4.2-.45-6.53-3.72-6.45-8.54a76.11 76.11 0 011.4-11.2c.87-5.3 1.85-10.57 2.89-15.83.31-1.58-.08-2.23-1.7-2.07a3 3 0 01-1.23 0c-.8-.28-2.19-.65-2.21-1-.07-1.38 0-3.27 2-3.17 3.8.19 5.2-1.76 5.62-5.21a34.63 34.63 0 011.54-5.77 2.73 2.73 0 014-1.5c.52.27.72 1.71.6 2.56-.46 2.86-1.08 5.75-1.72 9.2z" fill="#fff" data-name="Layer 1"/></g></svg>