<svg xmlns="http://www.w3.org/2000/svg" viewBox="0 0 557.34 88.51"><g data-name="Layer 2"><path d="M117.57 0H13.23A13.23 13.23 0 000 13.23v75.28h25.94V25.77h26.49v62.74h25.94V25.77h26.49v62.74h25.94V13.23A13.23 13.23 0 00117.57 0zm286.65 0H299.88a13.23 13.23 0 00-13.23 13.23v75.28h25.94V25.77h26.49v62.74H365V25.77h26.49v62.74h25.94V13.23A13.23 13.23 0 00404.22 0zM146.54 11.94v64.63a11.93 11.93 0 0011.94 11.94h100.71a11.93 11.93 0 0011.94-11.94V11.94A11.93 11.93 0 00259.19 0H158.48a11.93 11.93 0 00-11.94 11.94zM239 66.54h-60.31a7.76 7.76 0 01-7.76-7.77v-29a7.75 7.75 0 017.76-7.77H239a7.76 7.76 0 017.77 7.76v29a7.77 7.77 0 01-7.77 7.78zM545.4 0H444.69a11.93 11.93 0 00-11.94 11.94v64.63a11.93 11.93 0 0011.94 11.94H545.4a11.94 11.94 0 0011.94-11.94V11.94A11.94 11.94 0 00545.4 0zm-25.08 74.44c-12.24 5.36-30.6 1.55-37.11-7.09-3.09-4.1-2.69-10.1-2.69-10.1s-5.54 3.33-7.09 8.87 1.44 10.75 1.44 10.75-20.53-6.84-20.18-29c.45-27.6 38.14-35.91 38.14-35.91s23.72 2.55 35.47 17.4 9.97 37.21-7.98 45.08z" fill="#e50580" data-name="Layer 1"/></g></svg>