<?xml version="1.0" encoding="utf-8"?>
<!-- Generator: Adobe Illustrator 25.2.1, SVG Export Plug-In . SVG Version: 6.00 Build 0)  -->
<svg version="1.1" id="img-lineup_sp.svg" xmlns="http://www.w3.org/2000/svg" xmlns:xlink="http://www.w3.org/1999/xlink" x="0px"
	 y="0px" viewBox="0 0 406.8 108.2" style="enable-background:new 0 0 406.8 108.2;" xml:space="preserve">
<style type="text/css">
	.st0{fill-rule:evenodd;clip-rule:evenodd;}
	.st1{enable-background:new    ;}
</style>
<g id="グループ_109">
	<path id="商品" class="st0" d="M25.4,89.5c0-1.1,0.9-1.9,2-2h6.9c1.1,0,2,0.9,2,2c0,0,0,0,0,0v2c0,1-0.7,1.9-1.7,1.9
		c-0.1,0-0.1,0-0.2,0h-6.9c-1,0.1-1.9-0.7-2-1.7c0,0,0-0.1,0-0.1L25.4,89.5L25.4,89.5z M42.9,88.1c0-1,0.1-2.1,0.1-3.1
		c0-2.2-1.5-2.5-3.4-2.5s-3.6,0.1-5.3,0.1h-6.8c-1.8,0-3.6-0.1-5.4-0.1c-1.8,0-3.3,0.4-3.3,2.5c0,1,0.1,2.1,0.1,3.1v8.5
		c0,1.1-0.1,2.2-0.1,3.2c0,1.6,0.7,1.6,3.3,1.6c3,0,3.4,0,3.4-1.5c0-1.4,1-1.5,2.6-1.5h6.2c1.8,0,3.6,0.1,5.4,0.1
		c1.8,0,3.3-0.4,3.3-2.5c0-1-0.1-2.1-0.1-3.1L42.9,88.1L42.9,88.1z M49.6,71.2c-1-0.2-2-0.4-3-0.4c-0.8,0-1,0.4-1.1,1.1
		c-0.5,2.2-0.8,2.5-2.7,2.5h-1.8c-1.5,0-2-0.4-2-1.9v-2.3c-0.2-0.9,0.4-1.8,1.3-2c0.2,0,0.4,0,0.7,0h8.5c0.6-0.1,1.2,0.3,1.3,0.9
		c0,0.1,0,0.3,0,0.4v0.7c0.1,0.4-0.2,0.8-0.7,0.9c-0.1,0-0.1,0-0.2,0L49.6,71.2L49.6,71.2z M40.1,56.2c-0.6,1.6-1.3,3.1-2.1,4.6
		c-0.5,1.1-1.6,1.7-2.8,1.5H24.7c-0.2,0-0.3-0.2-0.4-0.4c0-0.1,0-0.2,0.1-0.4v-0.2c0-1-1.2-3.2-1.8-4.6c-0.1-0.4-0.3-0.6-0.4-0.8
		c-0.1-0.2-0.2-0.4-0.2-0.6c0-0.6,0.5-1.1,1.1-1.1c0,0,0.1,0,0.1,0h15.5c0.7-0.1,1.3,0.4,1.4,1.1c0,0,0,0,0,0
		C40.2,55.8,40.2,56,40.1,56.2L40.1,56.2z M50.7,93.8c0,2.1,0.2,3.9-1.9,3.9c-1.3,0-3.4-0.2-4.3-0.2c-1.1,0-1.3,0.8-1.3,1.8
		c0,5.7,2.5,5.4,4.4,5.4c7.4,0,9.9-1.5,9.9-7.4c0-1.8-0.1-3.5-0.1-5.2V71.4c0-2,0.1-3.9,0.1-5.9c0-2.7-1.3-3.3-3.8-3.3
		c-2,0-4,0.1-6,0.1h-1.3c-0.6,0.1-1.1-0.3-1.2-0.9c0,0,0,0,0-0.1c0-0.2,0.1-0.4,0.1-0.6l1.3-2.3c0.3-0.5,0.8-0.8,1.4-0.9
		c0.6-0.1,1.1-0.2,1.1-0.8c0-0.8-1.5-1.3-3.1-1.8c-0.1-0.1-0.2-0.2-0.2-0.3c0-0.2,0.2-0.3,0.4-0.4h5.5c2.7,0,5.5,0.2,8.3,0.2
		c1.7,0,1.7-0.6,1.7-3.1c0-2.5,0.1-3.1-1.6-3.1c-2.8,0-5.5,0.1-8.3,0.1H36.5c-0.9,0.2-1.8-0.4-1.9-1.3c0-0.2,0-0.4,0-0.5
		c0-1.2,0-2,0.8-2.5c0.4-0.1,0.7-0.5,0.8-0.9c0-0.6-0.8-0.7-1.3-0.8c-1.2-0.1-5.5-0.4-6.6-0.4c-0.6,0-1.3,0.1-1.3,0.8
		c0,0.2,0,0.4,0.1,0.6c0.1,1,0.2,2,0.2,3.1c-0.1,1.3-0.6,1.9-1.9,1.9H10c-2.8,0-5.5-0.1-8.3-0.1c-1.7,0-1.6,0.7-1.6,3.1
		s0,3.1,1.7,3.1c2.7,0,5.5-0.2,8.3-0.2h6.3c0.1,0,0.2,0.1,0.2,0.2c0,0.1-0.1,0.1-0.1,0.1c-0.5,0.3-1.5,0.7-1.5,1.4
		c0.5,1.2,1.1,2.4,1.8,3.5c0.2,0.3,0.4,0.7,0.6,1c0.1,0.2,0.1,0.4,0.1,0.6c-0.1,0.6-0.6,1.1-1.3,1h-2.6c-2,0-4-0.1-6-0.1
		c-2.4,0-3.7,0.6-3.7,3.3c0,2,0.1,4,0.1,6v22.3c0,2.9-0.1,5.9-0.1,8.8c0,2.1,0.6,2.2,3.7,2.2c3,0,3.6,0,3.6-2.1c0-2.9-0.1-6-0.1-8.9
		V70.2c-0.2-0.9,0.4-1.8,1.3-2c0.2,0,0.4,0,0.7,0h7.2c0.8,0.1,1.3,0.3,1.3,1.1c0,0.2-0.1,0.4-0.1,0.6c-1.7,3.5-5,6.1-8.3,8
		c-0.6,0.4-1.3,0.7-1.3,1.3c0,1.3,3,3.6,4.3,3.6c0.6-0.1,1.2-0.4,1.8-0.8c3.7-2.3,6.8-5.5,9-9.4c0.2-0.5,0.6-0.9,1.2-1
		c0.4,0,0.8-0.3,0.8-0.7c0-0.6-2.9-1.8-3.6-2c-0.1-0.1-0.2-0.2-0.2-0.4c0-0.2,0.2-0.3,0.4-0.4h5c0.9-0.2,1.8,0.4,2,1.3
		c0,0.2,0,0.4,0,0.7v1.7c0,1.3-0.1,2.5-0.1,3.7c0,4.3,2.9,4.3,7.9,4.3h2.7c2,0,5.4,0.1,6.8-1.5c0.1-0.1,0.3-0.2,0.5-0.2
		c0.3,0,0.5,0.2,0.5,0.5c0,0,0,0,0,0.1V93.8L50.7,93.8z M89.3,53.7c0-1,0.8-1.9,1.8-1.9c0,0,0.1,0,0.1,0h13.9c1-0.1,1.9,0.7,2,1.7
		c0,0,0,0.1,0,0.1v7.6c0,1.1-0.9,2-2,2c0,0,0,0,0,0H91.2c-1.1,0-2-0.9-2-2c0,0,0,0,0,0V53.7z M104.6,69.5c0.6,0,2.2,0,2.4,0.6
		c0.4,1,0.5,1,3.9,1c2.6,0,3.6,0,3.6-1.8c0-1.6-0.1-3.3-0.1-4.9V53.2c0-1.6,0.1-3.2,0.1-4.8c0-2.5-1.5-2.9-3.6-2.9
		c-1.8,0-3.6,0.1-5.4,0.1H90.9c-1.8,0-3.6-0.1-5.5-0.1c-2.2,0-3.5,0.6-3.5,2.9c0,1.6,0.1,3.2,0.1,4.8v11.2c0,1.7-0.1,3.3-0.1,5
		c0,1.8,1,1.8,3.6,1.8h0.9c1.1,0,2.5-0.1,2.7-0.6c0.3-0.9,0.9-1,2.7-1L104.6,69.5L104.6,69.5z M109.7,94.4c-1.1,0-1.9-0.9-2-2v-8.3
		c0-1.1,0.9-1.9,2-2h7.3c1,0,1.9,0.8,1.9,1.8c0,0,0,0.1,0,0.1v8.3c0.1,1-0.7,1.9-1.7,2c0,0-0.1,0-0.1,0H109.7z M118.8,102
		c0,0.4-0.1,0.8-0.1,1.2c0,1.7,1,1.6,3.8,1.6c2.9,0,3.8,0.1,3.8-1.7c0-2.2-0.1-4.3-0.1-6.5V84.1c0-1.8,0.1-3.5,0.1-5.2
		c0-2.5-1.1-3.2-3.4-3.2c-1.7,0-3.4,0.1-5,0.1h-8.8c-1.7,0-3.4-0.1-5.1-0.1c-2.2,0-3.4,0.7-3.4,3.1c0,1.8,0.1,3.6,0.1,5.4v12.5
		c0,2.2-0.1,4.3-0.1,6.6c0,1.6,0.7,1.7,3.8,1.7c2.9,0,3.7,0,3.7-1.7v-1.1c-0.1-0.8,0.4-1.5,1.1-1.6c0.2,0,0.3,0,0.5,0h7.7
		c0.8-0.1,1.5,0.4,1.6,1.1C118.8,101.8,118.8,101.9,118.8,102L118.8,102z M79.3,94.4c-1.1,0-1.9-0.9-2-2v-8.3c0-1.1,0.9-1.9,2-2h6.8
		c1.1,0,1.9,0.9,2,2v8.3c0,1.1-0.9,1.9-2,2H79.3z M87.9,103.2c0,1.6,0.8,1.6,3.6,1.6c2.9,0,3.6,0,3.6-1.6c0-2.2-0.1-4.4-0.1-6.6
		V84.1c0-1.8,0.1-3.6,0.1-5.4c0-2.5-1.2-3.1-3.4-3.1c-1.7,0-3.4,0.1-5.1,0.1h-8.1c-1.7,0-3.4-0.1-5.1-0.1c-2.2,0-3.4,0.7-3.4,3.1
		c0,1.8,0.1,3.6,0.1,5.3v12.5c0,2.2-0.1,4.3-0.1,6.5c0,1.8,0.8,1.7,3.7,1.7c2.9,0,3.8,0.1,3.8-1.6V102c-0.1-0.8,0.5-1.5,1.2-1.5
		c0.1,0,0.3,0,0.4,0h7.2c0.7-0.1,1.5,0.3,1.6,1.1c0,0.2,0,0.3,0,0.5L87.9,103.2L87.9,103.2z"/>
	<path id="LINE_UP" class="st0" d="M150.8,44.5v60h26.8v-8.6H160V44.5H150.8z M182.7,44.5v60h9.2v-60H182.7z M211.8,104.5V62.6
		l43.6,45.6V44.5h-9.2v41.6l-43.6-45.6v64.1H211.8L211.8,104.5z M299.3,44.5h-33.1v60h33.1v-8.6h-23.9V77h23.2v-8.6h-23.2V53.2h23.9
		V44.5z M317.8,44.5v38.6c0,4.8,1,10.5,5.6,15.6c9,9.2,23.7,9.4,32.9,0.4c0.1-0.1,0.3-0.3,0.4-0.4c4.6-5,5.6-10.8,5.6-15.6V44.5H353
		v36.2c0,3.2-0.1,7.2-1.9,10.3c-3.8,6.2-11.9,8.1-18.1,4.2c-1.7-1.1-3.2-2.5-4.2-4.2c-1.8-3.1-1.9-7.1-1.9-10.3V44.5H317.8
		L317.8,44.5z M373,44.5v60h9.2V80.2h4.1c4.4,0,9.9-0.6,14.7-4.7c3.8-3.3,6-8.1,5.8-13.1c0.1-5.8-2.7-11.3-7.5-14.6
		c-4.3-2.9-9.4-3.2-13.1-3.2L373,44.5L373,44.5z M382.2,53h4c10.4,0,11.8,5.9,11.8,9.3c0,5.6-3.8,9.5-11.7,9.5h-4.1L382.2,53
		L382.2,53z"/>
</g>
<g class="st1">
	<path d="M11.5,13.1c-0.4,2.2-1,4.5-1.8,6.3c0.4,0.3,0.8,0.6,1.4,0.9c1.7,1,3.9,1.1,6.7,1.1c2.8,0,7.1-0.2,9.7-0.6
		c-0.3,0.8-0.8,2.2-0.8,2.9c-2,0.1-6.2,0.3-9,0.3c-3.2,0-5.2-0.3-6.9-1.3c-1-0.6-1.9-1.3-2.4-1.3c-0.6,0-1.4,1.6-2,3l-1.9-2.7
		c0.9-1.1,1.9-2,2.8-2.4c0.5-1.2,0.9-2.6,1.2-4H5.4c0.6-1.4,1.2-3.3,1.8-5.2H4.9V7.5h5.7c-0.5,1.7-1.1,3.6-1.7,5.3h1l0.4-0.1
		L11.5,13.1z M7.7,6.8C7.4,5.7,6.7,4,6.1,2.6l2.5-0.8c0.6,1.3,1.2,2.9,1.7,4L7.7,6.8z M14.7,5.7h-3.2V3.5h6.1
		c-0.2-0.4-0.5-0.8-0.7-1.1l2.3-0.8c0.5,0.6,0.9,1.3,1.3,2h6.5v2.2H24c-0.3,0.6-0.6,1.2-0.9,1.7h3.2v10.2c0,1.2-0.2,1.8-1,2.2
		c-0.7,0.4-1.8,0.4-3.2,0.4c-0.1-0.6-0.3-1.3-0.6-1.9h-3.7v0.7h-1.9v-5.2h2.2v-1.3h-2.8v-1.7h2.8V9.6h-3.4v10.5h-2.6V7.4h2.8
		c-0.1-0.5-0.4-1.1-0.6-1.6L14.7,5.7z M20.5,7.4c0.2-0.5,0.4-1.1,0.6-1.7h-4.3c0.3,0.6,0.5,1.2,0.6,1.7H20.5z M20.4,15.5h-2.6v1.2
		h2.6V15.5z M23.7,9.6h-3.6v1.2H23v1.7h-2.9v1.3h2.3V18c0.4,0,0.8,0,1,0c0.3,0,0.4-0.1,0.4-0.4V9.6z"/>
	<path d="M47,3.1c-0.3,0.4-0.5,0.7-0.8,1.1c3.1,2.9,6.3,4.5,9.5,5.7c-0.7,0.7-1.6,1.7-2,2.6c-1.2-0.6-2.3-1.1-3.5-1.8v1.6h-12V11
		c-1.1,0.6-2.1,1.2-3.2,1.8c-0.5-0.8-1.3-1.9-2.1-2.6c4.4-1.8,9-4.7,11.5-8.4L47,3.1z M36.7,14.3h15.5v9.9h-3v-1h-9.5v1.1h-2.9V14.3
		z M39.7,16.8v3.8h9.5v-3.8H39.7z M48.7,9.6c-1.4-0.9-2.8-2-4.2-3.4c-1.2,1.3-2.5,2.4-4,3.4H48.7z"/>
	<path d="M69,2.8c-0.6,1.7-1.4,3.3-2.3,4.9v16.5H64V12c-0.5,0.7-1.1,1.4-1.6,1.9c-0.3-0.7-1.1-2.3-1.5-3c2.2-2.2,4.2-5.6,5.4-9
		L69,2.8z M77.5,8.8v12.3c0,1.4-0.2,2.2-1.1,2.6c-0.8,0.5-2,0.6-3.5,0.6c-0.1-0.8-0.6-2.1-1-2.9c1,0,2,0,2.4,0
		c0.3,0,0.4-0.1,0.4-0.4V8.8h-2.8c-0.7,1.4-1.5,2.7-2.3,3.7C69.1,12,68,11,67.3,10.6c1.8-2,3.3-5.4,4.1-8.6l2.8,0.6
		c-0.3,1.2-0.7,2.4-1.1,3.6h8.3l0.5-0.1l2,0.4c-0.3,1.9-0.7,4.2-1,5.6l-2.4-0.4c0.1-0.7,0.3-1.8,0.4-2.8H77.5z M73.5,13.1
		c-0.7,3-1.9,6.1-3.3,8c-0.6-0.5-1.8-1.2-2.4-1.5c1.4-1.7,2.4-4.4,2.9-7.1L73.5,13.1z M80.9,12.3c1.2,2.5,2.3,5.7,2.6,7.8l-2.7,0.9
		c-0.3-2.1-1.3-5.4-2.4-7.9L80.9,12.3z"/>
	<path d="M111.5,5.6c0,0,0,1,0,1.3c-0.3,10.7-0.6,14.5-1.6,15.8c-0.7,0.9-1.3,1.2-2.3,1.3c-0.9,0.1-2.4,0.1-3.8,0
		c0-0.8-0.4-2-0.9-2.8c1.5,0.1,3,0.1,3.6,0.1c0.5,0,0.7-0.1,1.1-0.4c0.7-0.8,1-4.4,1.3-12.8h-5.1c-0.6,1.4-1.4,2.8-2.1,3.8
		c-0.4-0.4-1.2-0.9-1.8-1.3v11.2h-6.4v1.8h-2.6V5.7h2.7C93.7,4.5,94,3,94.1,1.9l3.1,0.4c-0.4,1.2-0.8,2.4-1.2,3.4h3.7v3.9
		c1.4-2,2.5-4.9,3.2-7.7l2.7,0.6c-0.2,1-0.6,2-0.9,3H111.5z M97.1,8.2h-3.8v3.9h3.8V8.2z M97.1,19.3v-4.7h-3.8v4.7H97.1z M105.1,18
		c-0.7-1.4-2.2-3.8-3.3-5.5l2.2-1.3c1.2,1.7,2.8,3.9,3.5,5.3L105.1,18z"/>
	<path d="M118.2,19.9l2-2.4c1.3,1.2,3,2,4.5,2c1.8,0,2.8-0.8,2.8-2c0-1.3-1.1-1.7-2.7-2.4l-2.4-1c-1.8-0.7-3.6-2.2-3.6-4.8
		c0-2.9,2.5-5.1,6.1-5.1c2.1,0,4.1,0.8,5.6,2.3l-1.8,2.2c-1.1-0.9-2.3-1.5-3.8-1.5c-1.6,0-2.6,0.7-2.6,1.9c0,1.3,1.3,1.7,2.8,2.3
		l2.3,1c2.2,0.9,3.6,2.3,3.6,4.8c0,2.9-2.4,5.4-6.5,5.4C122.3,22.5,120,21.6,118.2,19.9z"/>
	<path d="M138.6,14.2V4.4h3.6v10.1c0,3.7,1.3,4.9,3.4,4.9c2.1,0,3.5-1.2,3.5-4.9V4.4h3.4v9.8c0,5.9-2.5,8.3-6.9,8.3
		C141.2,22.5,138.6,20.1,138.6,14.2z"/>
	<path d="M161,4.4h3.6l5.2,9.5l1.8,3.8h0.1c-0.2-1.8-0.5-4.2-0.5-6.2V4.4h3.4v17.8H171l-5.1-9.5L164,8.9h-0.1
		c0.2,1.9,0.4,4.2,0.4,6.2v7.1H161V4.4z"/>
	<path d="M182.4,13.4c0-5.9,3.8-9.3,8.3-9.3c2.3,0,4.1,1.1,5.2,2.3L194,8.6c-0.9-0.9-1.9-1.5-3.3-1.5c-2.7,0-4.7,2.3-4.7,6.1
		c0,3.9,1.8,6.2,4.6,6.2c1.5,0,2.7-0.7,3.7-1.8l1.9,2.2c-1.5,1.7-3.4,2.6-5.7,2.6C186,22.5,182.4,19.3,182.4,13.4z"/>
	<path d="M202.8,14.2V4.4h3.6v10.1c0,3.7,1.3,4.9,3.4,4.9c2.1,0,3.5-1.2,3.5-4.9V4.4h3.4v9.8c0,5.9-2.5,8.3-6.9,8.3
		C205.4,22.5,202.8,20.1,202.8,14.2z"/>
	<path d="M228.7,7.4h-5v-3h13.6v3h-5v14.8h-3.6V7.4z"/>
	<path d="M256,21.2c0.6,0,1.3,0.1,1.9,0.1c1.3,0,6,0,7.7-0.1c-0.4,0.6-0.8,1.9-1,2.7h-6.8c-4.4,0-7.4-0.6-9.4-3.4
		c-0.9,1.6-2,2.9-3.4,3.8c-0.4-0.5-1.5-1.6-2.2-2c2.4-1.5,3.9-4.1,4.5-7.3l2.9,0.4c-0.2,0.8-0.4,1.5-0.6,2.2c0.7,1.6,1.9,2.5,3.5,3
		v-6.1h-9.4v-2.5h21.2v2.5H256v1.8h7.4v2.5H256V21.2z M262.6,11H246V2.7h16.7V11z M259.7,4.7h-11v1.2h11V4.7z M259.7,7.8h-11V9h11
		V7.8z"/>
	<path d="M274.3,18v2.3h-2.1V4h5.6v14H274.3z M274.3,6.6v8.8h1.3V6.6H274.3z M285.9,2.9c0,0,0,0.9,0,1.2
		c-0.1,13.2-0.1,17.7-0.7,18.8c-0.4,0.8-0.8,1-1.5,1.2c-0.6,0.1-1.3,0.1-2.2,0.1c0-0.7-0.3-1.8-0.6-2.5c0.6,0,1.2,0,1.5,0
		c0.3,0,0.5-0.1,0.7-0.5c0.2-0.4,0.3-1.7,0.4-4.7h-1.7c-0.5,2.8-1.5,5.6-3.4,7.8c-0.3-0.5-1.2-1.4-1.7-1.7c1.5-1.8,2.3-3.9,2.8-6
		h-1.1v-2.4h1.4c0.1-1.2,0.1-2.3,0.1-3.3h-1.5V8.5h1.5V5.3h-1.5V2.9H285.9z M283.5,14.2c0-1,0-2.1,0-3.3h-1.3c0,1,0,2.1-0.1,3.3
		H283.5z M282.3,8.5h1.3l0-3.2h-1.3V8.5z M293.7,3.8c-0.6,2.4-1.3,5.6-1.8,7.7c1.2,2.1,1.4,4,1.5,5.6c0,1.7-0.3,2.7-1,3.3
		c-0.3,0.3-0.7,0.4-1.2,0.5c-0.3,0-0.8,0.1-1.2,0.1c0-0.7-0.1-1.7-0.5-2.4h0.7c0.2,0,0.4-0.1,0.6-0.2c0.2-0.2,0.3-0.8,0.3-1.7
		c0-1.3-0.2-3-1.3-5c0.4-1.8,0.9-4.6,1.2-6.5h-1.8v19.1h-2.3V2.9h4.8l0.3-0.1L293.7,3.8z"/>
	<path d="M322,11.3v3.1h-22.1v-3.1H322z"/>
	<path d="M335.1,2.7c-0.5,1.5-1.2,3-1.9,4.6v17h-2.7V12c-0.5,0.7-1.1,1.4-1.6,2.1c-0.2-0.7-0.9-2.4-1.3-3.1c2-2.2,3.8-5.6,4.9-9.1
		L335.1,2.7z M349.8,3.1v21h-2.7v-1.2h-9v1.4h-2.6V3.1H349.8z M347.1,20.4V5.6h-9v14.8H347.1z M343.6,10.6v2.1h2.3v6.4h-6.6v-6.4
		h2.1v-2.1h-2.8V8.5h2.8V6.1h2.2v2.4h2.9v2.1H343.6z M343.8,14.6h-2.4v2.5h2.4V14.6z"/>
	<path d="M359.6,18.3v1.9h-2.5V4h7.1v14.3H359.6z M359.6,6.7v8.8h2V6.7H359.6z M368.4,10.3v0.9c0,4-0.4,9.5-3.3,12.9
		c-0.5-0.5-1.6-1.2-2.3-1.5c2.7-3.1,3-7.8,3-11.4V2.9H378v7.4H368.4z M368.4,5.5v2.2h7V5.5H368.4z M375.6,21.2c0.8,0,0.9-0.4,1-3
		c0.6,0.5,1.7,0.9,2.4,1.1c-0.3,3.5-1,4.4-3.2,4.4h-3.1c-2.6,0-3.3-0.8-3.3-3.5v-9.1h2.7V14h6.3v2.3h-6.3v4c0,0.9,0.1,1,1,1H375.6z"
		/>
	<path d="M394.9,9.1c0-1.4-1.2-2.3-3-2.3c-1.5,0-2.7,0.6-3.8,1.9l-2-1.8c1.5-1.8,3.6-2.9,6.2-2.9c3.5,0,6,1.6,6,4.8
		c0,3.5-5.2,3.9-4.9,7.3h-3.1C389.8,12.3,394.9,11.4,394.9,9.1z M391.9,17.7c1.4,0,2.5,1,2.5,2.4s-1.1,2.4-2.5,2.4s-2.5-1-2.5-2.4
		S390.4,17.7,391.9,17.7z"/>
</g>
</svg>
