<?xml version="1.0" encoding="utf-8"?>
<!-- Generator: Adobe Illustrator 26.0.3, SVG Export Plug-In . SVG Version: 6.00 Build 0)  -->
<svg version="1.1" id="head-block-0001_sp.svg" xmlns="http://www.w3.org/2000/svg" xmlns:xlink="http://www.w3.org/1999/xlink"
	 x="0px" y="0px" viewBox="0 0 383 104.3" style="enable-background:new 0 0 383 104.3;" xml:space="preserve">
<style type="text/css">
	.st0{fill:none;}
	.st1{opacity:0.2;fill-rule:evenodd;clip-rule:evenodd;fill:#1E9FE0;enable-background:new    ;}
	.st2{opacity:0.2;fill:#1E9FE0;enable-background:new    ;}
	.st3{enable-background:new    ;}
	.st4{fill:#1147B4;}
</style>
<rect class="st0" width="383" height="104.3"/>
<path id="長方形_978" class="st1" d="M113,32.4h156.2v12.8H113V32.4z"/>
<rect id="長方形_978-2" x="72" y="91.3" class="st2" width="238.9" height="13"/>
<g class="st3">
	<path class="st4" d="M139.4,30.8c2.3,0.8,5.1,1,8.6,1c3.2,0,14.4,0,18.2-0.2c-0.7,1.2-1.6,3.4-1.9,5H148c-7.8,0-12.8-1-16.1-5.8
		c-0.5,2.6-1.1,4.9-1.9,6.8c-0.8-0.6-2.9-1.8-4-2.2c2.1-4.2,2.4-10.9,2.5-18.1l4.4,0.3c0,1.9-0.1,3.9-0.2,5.7
		c0.6,1.9,1.4,3.4,2.4,4.5V15.3h-7.9v-4.4h7.1V7h-6.1V2.7h6.1v-4.2h4.6v4.2h6V7h-6v3.9h6.7v1.1c2.8-1.8,4.3-4.3,5-7.8H146v-4.2h18.5
		c0,0,0,1.1,0,1.7c-0.3,7-0.7,10-1.7,11.2c-0.8,0.9-1.7,1.3-2.8,1.4c-1.1,0.1-2.8,0.2-4.7,0.1c0-1.3-0.5-3.1-1.2-4.2
		c1.5,0.2,2.8,0.2,3.4,0.2c0.5,0,0.9-0.1,1.2-0.4c0.4-0.5,0.7-2.1,0.9-5.8h-4.5c-1,5.3-3.2,8.9-7.1,11.3c-0.5-0.5-1.6-1.4-2.6-2.1
		v1.9h-6v4.6h5.5v4.3h-5.5V30.8z M147,16h16.5v13.2H147V16z M151.7,25.2h6.8V20h-6.8V25.2z"/>
	<path class="st4" d="M188.3,32.1c0,2.3-0.3,3.7-1.7,4.5c-1.3,0.8-3.1,0.9-5.8,0.9c-0.1-1.3-0.7-3.6-1.3-4.8c1.5,0.1,3.1,0,3.6,0
		c0.5,0,0.7-0.2,0.7-0.8v-8.3h-4.4c-0.4,4.9-1.2,10.1-2.9,13.9c-0.9-0.7-2.9-1.9-4-2.3c2.6-5.7,2.8-14.2,2.8-20.3V-0.2h13.2V32.1z
		 M183.7,19V14h-4.1v1.1c0,1.3,0,2.6,0,3.9H183.7z M179.5,4.5v4.9h4.1V4.5H179.5z M211.2,15.3c-1,5.7-2.7,10.3-5,14.1
		c1.8,1.8,3.9,3.4,6.2,4.4c-1,0.9-2.4,2.7-3.1,3.9c-2.2-1.2-4.2-2.8-6-4.6c-1.6,1.8-3.4,3.3-5.5,4.5c-0.5-1-1.6-2.4-2.5-3.4v3.4
		h-4.7V-0.1h19.3V8c0,2.2-0.5,3.4-2.2,4c-1.6,0.6-4,0.6-7.2,0.6c-0.2-1.3-0.9-3-1.5-4.2c2.1,0.1,4.6,0.1,5.3,0.1
		c0.7,0,0.9-0.2,0.9-0.7V4.5h-9.8v10h12.1l0.8-0.2L211.2,15.3z M195.3,33.7c1.9-1,3.6-2.5,5.1-4.3c-2.1-3.1-3.6-6.6-4.9-10.4h-0.3
		V33.7z M199.8,19c0.8,2.3,1.9,4.5,3.2,6.6c1.1-2,2.1-4.2,2.7-6.6H199.8z"/>
	<path class="st4" d="M227.7,28.4c-1.3,3.5-3.4,7.1-5.6,9.3c-0.9-0.8-2.9-2.1-3.9-2.7c2.1-1.9,3.9-4.8,4.9-7.6L227.7,28.4z
		 M235.1,27h-14.5V0h14.5V27z M230.4,4h-5.2v3.8h5.2V4z M230.4,11.5h-5.2v3.9h5.2V11.5z M230.4,19.1h-5.2V23h5.2V19.1z M232.4,27.2
		c1.8,2.1,3.5,4.9,4.3,6.8l-4.2,2c-0.6-1.9-2.4-5-4-7.1L232.4,27.2z M248.6,11.9v6.6h7.4v18.9h-4.9v-1.6H242v1.7h-4.6v-19h6.4V-1.6
		h4.9v9h9.1v4.5H248.6z M251.2,23H242v8.4h9.2V23z"/>
</g>
<g class="st3">
	<path class="st4" d="M96.2,58.9c-1.1,3.7-2.6,8.4-3.9,11.7c2.7,3.3,3.2,6.2,3.2,8.7c0,2.8-0.6,4.5-2,5.5c-0.6,0.5-1.5,0.8-2.4,0.9
		c-0.8,0.1-1.8,0.1-2.8,0.1c0-1.3-0.4-3.2-1.1-4.5c0.8,0.1,1.4,0.1,1.8,0c0.5,0,0.9-0.1,1.3-0.3c0.5-0.4,0.7-1.2,0.7-2.4
		c0-1.9-0.6-4.6-3-7.5c0.9-2.7,1.8-6.6,2.5-9.5h-3.7v33h-4.7V57.2h10l0.7-0.2L96.2,58.9z M105.6,66.7c-0.1,1.7-0.1,3.4-0.3,5h11.6
		c0,0,0,1.5,0,2.1c-0.4,12.2-0.8,17.1-2.1,18.7c-1,1.3-1.9,1.7-3.3,1.9c-1.2,0.2-3.3,0.2-5.4,0.1c-0.1-1.5-0.7-3.5-1.5-5
		c1.9,0.2,3.6,0.3,4.4,0.3c0.7,0,1.1-0.2,1.4-0.6c0.8-0.8,1.2-4.3,1.4-12.9h-6.8c-1,7.9-3.7,14.2-11,18.2c-0.6-1.2-2.1-2.9-3.2-3.9
		c9-4.7,9.7-13,9.9-23.9h-5.4v-4.6h10.2c-0.3-1.6-1.1-4-1.7-5.8l4.6-1.1c0.8,1.8,1.6,4.4,2,5.9l-3.4,1h12.3v4.6H105.6z"/>
	<path class="st4" d="M137,57.6c-2.5,2.8-6.3,5.8-9.4,7.6c-0.3-0.8-1.2-2.6-1.8-3.4c2.6-1.5,5.9-3.9,7.5-5.9L137,57.6z M130.4,71.5
		c-1,0.7-2,1.3-2.9,1.8c-0.3-1-1-3.1-1.5-4.1c2.7-1.4,6.1-3.8,7.7-5.8l3.5,1.5v-2.2h6v-2.3H141c-0.3,0.5-0.6,1-0.9,1.3
		c-0.8-0.5-2.4-1.1-3.3-1.5c1.2-1.4,2.1-3.3,2.6-5.1l3.6,0.8c-0.1,0.4-0.3,0.8-0.4,1.1h9v3.2H147v2.3h5.3v3.2H147v1.8h4.8v2.7H147
		v1.9l5.1-0.3c-0.1,1-0.1,2.4-0.1,3.2c-11.8,0.9-13.5,1.2-14.6,1.6c-0.2-0.8-0.7-2.4-1.2-3.1c0.7-0.2,1.4-0.6,1.4-2.1v-4.4h3.3v5.5
		l2.1-0.2v-6.7h-6v-0.2c-0.8,0.9-1.7,1.8-2.6,2.6v8.1h-4.1V71.5z M165.4,86H155c3.3,1.4,7.7,3.4,10,4.8l-2.6,3.6
		c-2.3-1.6-7.2-4.1-10.8-5.6l2.2-2.8h-5v8.4h-5.1V86h-7.3l3.3,1.3c-2.4,2.6-6.1,5.4-9.3,7.1c-0.6-1-2.1-2.9-3-3.8
		c2.7-1.1,5.7-2.7,7.6-4.5h-8.4v-3.4h38.8V86z M131.8,77.7h27.9V81h-27.9V77.7z M157.3,76.4h-3.8V57h10.8v13.1
		c0,1.6-0.2,2.5-1.2,3.1c-1,0.6-2.2,0.7-3.9,0.7c-0.1-1.1-0.7-2.4-1.1-3.4c0.9,0,1.7,0,2.1,0c0.3,0,0.4-0.1,0.4-0.5v-9.6h-3.1V76.4z
		"/>
	<path class="st4" d="M202,85.5c3.1,1.6,7.6,3.9,9.9,5.4l-3,3.6c-2.2-1.6-6.7-4.2-9.9-5.9l2.7-3h-1.4c-1.6,4.3-4.8,7.3-12.3,9.2
		c-0.3-0.9-1.2-2.3-1.9-3.2c-0.2,1-0.6,1.7-1.4,2.2c-1.2,0.8-2.8,0.9-5.3,0.8c-0.1-1.2-0.7-3.2-1.2-4.3c1.4,0.1,2.7,0,3.2,0
		c0.4,0,0.6-0.2,0.6-0.7v-10c-0.9,0.9-1.8,1.8-2.6,2.7l-1-2.5c-0.3,5.3-1.2,11-2.9,15.2c-0.8-0.8-2.6-2.4-3.5-2.9
		c2.3-5.7,2.4-14,2.4-20V56.8h11.8v32.7c0,0.4,0,0.8,0,1.1c5-1.1,7.5-2.8,8.9-5.1h-7.7v-4.2h9c0.1-0.7,0.2-1.4,0.3-2.1h-7.4V65.7
		H209v13.4h-7.5c0,0.8-0.1,1.4-0.2,2.1h9.6v4.2H202z M178.7,71.9c0,1.7,0,3.8-0.1,5.8c1-0.6,2.2-1.5,3.6-2.5v-4.2l-1.6,1.1
		c-0.4-0.8-1.1-1.8-1.8-2.8V71.9z M178.7,61.3v5.2l1.2-0.8c0.7,0.8,1.6,1.8,2.3,2.7v-7.1H178.7z M191.8,62.6h-4.4v-4h4.4v-3h4.4v3
		h2.9v4h-2.9v2.4h-4.4V62.6z M193.7,70.9h10.5v-1.8h-10.5V70.9z M193.7,75.8h10.5V74h-10.5V75.8z M202.7,62.6H200v-4h2.7v-3h4.4v3
		h4.1v4h-4.1v2.4h-4.4V62.6z"/>
	<path class="st4" d="M233,77.8c-1.5,0.4-3,0.8-4.5,1.2v10c0,2.4-0.5,3.6-1.9,4.4c-1.4,0.8-3.4,0.9-6.4,0.9
		c-0.2-1.3-0.8-3.2-1.4-4.5c1.6,0,3.4,0,3.9,0c0.6,0,0.8-0.2,0.8-0.8v-8.7l-4.1,1l-1.3-4.7c1.6-0.3,3.4-0.7,5.4-1.2V68h-4.8v-4.6
		h4.8v-7.9h5v7.9h4.1V68h-4.1v6.2l3.9-1L233,77.8z M256.2,72.1c-1.6,5.8-4.3,10.4-7.9,13.9c2.8,1.9,6,3.3,9.7,4.2
		c-1,1-2.5,3-3.2,4.3c-4.1-1.2-7.5-3-10.5-5.3c-3.3,2.3-7,3.9-11.1,5.2c-0.5-1.3-1.7-3.4-2.6-4.5c3.7-0.9,7.1-2.2,10-4.1
		c-2.4-2.8-4.4-6.1-6-10l1.3-0.4h-2.2V71h8.3v-5h-9v-4.6h9v-6h5v6h9.4V66h-9.4v5h5l0.9-0.2L256.2,72.1z M239.7,75.5
		c1.2,2.8,2.9,5.3,5,7.4c2.2-2.1,4-4.6,5.3-7.4H239.7z"/>
	<path class="st4" d="M303.5,73.1h-3.2v15.7c0,2.4-0.3,3.7-1.8,4.5c-1.4,0.8-3.5,0.8-6.3,0.8c-0.1-1.4-0.7-3.4-1.3-4.8
		c1.7,0.1,3.4,0.1,4,0c0.5,0,0.7-0.1,0.7-0.6V73.1h-3.7v-3.3h-6.1v24.7h-4.4V69.8h-5.5v-2.9c-0.7,1.5-1.5,3.1-2.4,4.6v23.1h-4.6
		V77.8c-0.8,0.9-1.6,1.8-2.4,2.5c-0.5-1-1.9-3.5-2.7-4.6c3.2-2.8,6.4-7.2,8.2-11.6l3.9,1.3v-0.3h5.5v-9.7h4.4v9.7h6.3v3.4h11.5
		L303.5,73.1z M275.8,57c-2.2,3.7-5.5,7.8-8.7,10.3c-0.6-1-1.8-2.9-2.6-3.7c2.6-2.1,5.5-5.5,6.8-8.1L275.8,57z M280.1,72
		c0,8-0.5,13.3-3.7,16.5c-0.4-0.9-1.5-2.3-2.4-2.9c2.4-2.6,2.5-6.7,2.6-13.6H280.1z M289.5,64.4c-0.6-1.4-1.9-3.7-3.2-5.4l3-1.6
		c1.3,1.6,2.7,3.8,3.4,5.2L289.5,64.4z M291.1,87.3c-3.3,0-3.9-1.3-3.9-4.9V72.1h3.6v10.4c0,1.1,0,1.5,0.3,1.5h1
		c0.4,0,1-0.1,1.4-0.2c0.1,0.9,0.2,2.6,0.3,3.4c-0.5,0.3-1.1,0.3-1.7,0.3H291.1z M302.9,62.9h-10v-4.4h10V62.9z"/>
</g>
</svg>
