<svg id="tag-spf50pa.svg" xmlns="http://www.w3.org/2000/svg" width="135" height="21.001" viewBox="0 0 135 21.001">
  <defs>
    <style>
      .cls-1 {
        fill: #e60012;
        stroke: #e60012;
        stroke-width: 1px;
      }

      .cls-2 {
        fill: #fff;
        fill-rule: evenodd;
      }
    </style>
  </defs>
  <rect id="長方形_1009" data-name="長方形 1009" class="cls-1" x="0.5" y="0.5" width="134" height="20.001"/>
  <path id="SPF50_PA_" data-name="SPF50+ PA++++" class="cls-2" d="M617.059,998.244a3.19,3.19,0,0,0-.719-0.938,2.784,2.784,0,0,0-1.889-.63,2.531,2.531,0,0,0-2.748,2.465,2.64,2.64,0,0,0,1.917,2.369l0.9,0.38a1.74,1.74,0,0,1,1.353,1.59,1.506,1.506,0,0,1-1.551,1.57,1.477,1.477,0,0,1-1.226-.56,2.006,2.006,0,0,1-.394-1.19l-1.424.31a3.023,3.023,0,0,0,.789,1.82,2.766,2.766,0,0,0,2.213.94,2.889,2.889,0,0,0,3.03-3c0-1.06-.479-2.04-2.212-2.74l-0.945-.38a1.245,1.245,0,0,1-1.015-1.137,1.163,1.163,0,0,1,1.325-1.121,1.454,1.454,0,0,1,1.438.925Zm4.027-1.4v9.346h1.437v-3.8h0.649a3.412,3.412,0,0,0,2.3-.73,2.612,2.612,0,0,0,.916-2.043,2.7,2.7,0,0,0-1.17-2.269,3.692,3.692,0,0,0-2.057-.5h-2.072Zm1.437,1.316h0.635c1.634,0,1.846.925,1.846,1.443,0,0.867-.592,1.467-1.832,1.467h-0.649v-2.91Zm12-1.316H629.82v9.346h1.438v-4.29h3.157v-1.34h-3.157v-2.372h3.27v-1.344Zm9.2,0h-3.89l-1.395,4.716a4.35,4.35,0,0,1,.831-0.42,2.935,2.935,0,0,1,1.1-.19,2.2,2.2,0,0,1,1.537.52,1.966,1.966,0,0,1,.564,1.51,2.151,2.151,0,0,1-.607,1.58,1.975,1.975,0,0,1-1.437.52,2.214,2.214,0,0,1-1.226-.32,2.18,2.18,0,0,1-.719-0.82l-1.085.9a3.4,3.4,0,0,0,1.113,1.08,4.066,4.066,0,0,0,4.412-.53,3.352,3.352,0,0,0,.958-2.48,3.2,3.2,0,0,0-.916-2.4,3.127,3.127,0,0,0-2.171-.823c-0.141,0-.3.014-0.437,0.028l0.465-1.555h2.9v-1.316Zm7.254,9.5a2.723,2.723,0,0,0,2.128-1.01,5.648,5.648,0,0,0,1.2-3.81,5.711,5.711,0,0,0-1.2-3.822,2.75,2.75,0,0,0-4.256,0,5.711,5.711,0,0,0-1.2,3.822,5.648,5.648,0,0,0,1.2,3.81A2.724,2.724,0,0,0,650.982,1006.34Zm0-8.39a1.508,1.508,0,0,1,1.269.771,5.385,5.385,0,0,1,.648,2.789,5.447,5.447,0,0,1-.648,2.8,1.43,1.43,0,0,1-2.537,0,5.438,5.438,0,0,1-.649-2.8,5.377,5.377,0,0,1,.649-2.789A1.506,1.506,0,0,1,650.982,997.95Zm6.437,4.16h2.4v2.38h1.325v-2.38h2.4v-1.26h-2.4v-2.381h-1.325v2.381h-2.4v1.26Zm14.934-5.266v9.346h1.437v-3.8h0.649a3.412,3.412,0,0,0,2.3-.73,2.612,2.612,0,0,0,.916-2.043,2.7,2.7,0,0,0-1.17-2.269,3.69,3.69,0,0,0-2.057-.5h-2.072Zm1.437,1.316h0.635c1.635,0,1.846.925,1.846,1.443,0,0.867-.592,1.467-1.832,1.467H673.79v-2.91Zm13.809,8.03h1.55L684.7,996.3l-4.68,9.892h1.551l1.029-2.26h4.016Zm-4.411-3.6,1.451-3.169,1.4,3.169h-2.847Zm8.451-.48h2.4v2.38h1.325v-2.38h2.4v-1.26h-2.4v-2.381h-1.325v2.381h-2.4v1.26Zm9.017,0h2.4v2.38h1.325v-2.38h2.4v-1.26h-2.4v-2.381h-1.325v2.381h-2.4v1.26Zm9.017,0h2.4v2.38h1.324v-2.38h2.4v-1.26h-2.4v-2.381h-1.324v2.381h-2.4v1.26Zm9.016,0h2.4v2.38h1.325v-2.38h2.4v-1.26h-2.4v-2.381h-1.325v2.381h-2.4v1.26Z" transform="translate(-599.625 -990.219)"/>
</svg>
