<svg xmlns="http://www.w3.org/2000/svg" viewBox="0 0 37.37 37.33"><defs><style>.cls-1{fill:#fff;}.cls-2{fill:none;}.cls-3{fill:#1147b4;}</style></defs><g id="レイヤー_2" data-name="レイヤー 2"><g id="トンボ"><rect class="cls-1" x="1.47" y="1.16" width="34.77" height="35.46" rx="2.77"/><path class="cls-2" d="M10.85,23.18l-.49,7.28H12.9l-.49-7.28a3.84,3.84,0,0,1-1.56,0Z"/><path class="cls-2" d="M11.38,15.38a1.9,1.9,0,0,1,.25,0,1.9,1.9,0,0,1,.25,0l-.25-3.72Z"/><path class="cls-2" d="M30.24,5a4.94,4.94,0,0,0,3.34,1.89,4.89,4.89,0,0,0,2.25-.25V3.73a2.24,2.24,0,0,0-2.24-2.24H29.2A5,5,0,0,0,30.24,5Z"/><path class="cls-2" d="M32.37,18.62a.44.44,0,0,1-.41.31H31.9a.42.42,0,0,1-.36-.41l-.07-7.16-3.94,6a.42.42,0,0,1-.75-.35l2-6.87-5.53,4.56a.42.42,0,0,1-.55,0,.44.44,0,0,1-.07-.55l4-5.95L20,10.88a.42.42,0,0,1-.43-.71l5.56-4.53L18,6.3a.42.42,0,0,1-.2-.81L24.46,2.8,18.25,1.49H3.73A2.25,2.25,0,0,0,1.49,3.73V33.6a2.25,2.25,0,0,0,2.24,2.24H33.59a2.24,2.24,0,0,0,2.24-2.24V16.35l-1.47-4.61Z"/><path class="cls-2" d="M33.47,7.68a5.79,5.79,0,0,1-3.9-2.21,5.83,5.83,0,0,1-1.22-4h-6L26,2.26a.41.41,0,0,1,.33.38.42.42,0,0,1-.26.43L20.79,5.2l5.67-.52a.42.42,0,0,1,.3.74L22.35,9l5.26-2.16a.41.41,0,0,1,.48.12.42.42,0,0,1,0,.5L25,12.2l4.39-3.62a.44.44,0,0,1,.5,0A.43.43,0,0,1,30,9L28.4,14.48l3.12-4.75a.42.42,0,0,1,.35-.19l.12,0a.41.41,0,0,1,.3.4l.06,5.68,1.59-5.46a.41.41,0,0,1,.4-.3.46.46,0,0,1,.41.29l1.08,3.41V7.48a5.9,5.9,0,0,1-1.63.25A6.11,6.11,0,0,1,33.47,7.68Z"/><polygon class="cls-2" points="12.9 30.46 12.57 25.53 10.44 29.29 10.36 30.46 12.9 30.46"/><polygon class="cls-2" points="9.46 31.31 9.48 30.98 8.48 32.74 21.33 34.18 15.57 20.24 13.32 24.2 13.81 31.31 9.46 31.31"/><path class="cls-3" d="M37.33,11.39V3.73A3.74,3.74,0,0,0,33.59,0H3.73A3.73,3.73,0,0,0,0,3.73V33.6a3.73,3.73,0,0,0,3.73,3.73H33.59a3.74,3.74,0,0,0,3.74-3.73v-15a.58.58,0,0,0,0-.18l0-2.29ZM1.49,33.6V3.73A2.25,2.25,0,0,1,3.73,1.49H18.25L24.46,2.8,17.82,5.49a.42.42,0,0,0,.2.81l7.14-.66L19.6,10.17a.42.42,0,0,0,.43.71l6.62-2.72-4,5.95a.44.44,0,0,0,.07.55.42.42,0,0,0,.55,0l5.53-4.56-2,6.87a.42.42,0,0,0,.75.35l3.94-6,.07,7.16a.42.42,0,0,0,.36.41H32a.44.44,0,0,0,.41-.31l2-6.88,1.47,4.61V33.6a2.24,2.24,0,0,1-2.24,2.24H3.73A2.25,2.25,0,0,1,1.49,33.6ZM33.59,1.49a2.24,2.24,0,0,1,2.24,2.24V6.59a4.89,4.89,0,0,1-2.25.25A4.94,4.94,0,0,1,30.24,5a5,5,0,0,1-1-3.46Zm-4,4a5.79,5.79,0,0,0,3.9,2.21,6.11,6.11,0,0,0,.73.05,5.9,5.9,0,0,0,1.63-.25v6.1l-1.08-3.41a.46.46,0,0,0-.41-.29.41.41,0,0,0-.4.3l-1.59,5.46L32.29,10a.41.41,0,0,0-.3-.4l-.12,0a.42.42,0,0,0-.35.19L28.4,14.48,30,9a.43.43,0,0,0-.17-.47.44.44,0,0,0-.5,0L25,12.2l3.16-4.73a.42.42,0,0,0,0-.5.41.41,0,0,0-.48-.12L22.35,9l4.41-3.59a.42.42,0,0,0-.3-.74l-5.67.52,5.27-2.13a.42.42,0,0,0,.26-.43A.41.41,0,0,0,26,2.26l-3.65-.77h6A5.83,5.83,0,0,0,29.57,5.47Z"/><path class="cls-3" d="M35,30.94a.45.45,0,0,0,0-.36L29,19.09a.43.43,0,0,0-.38-.23H20.25a3.94,3.94,0,0,0-2.31-3.16,3.91,3.91,0,0,0,.75-2.3,4,4,0,0,0-3.21-3.88,4.43,4.43,0,0,0,.11-.9,4,4,0,1,0-7.91,0,3.82,3.82,0,0,0,.11.9A4,4,0,0,0,4.57,13.4a3.91,3.91,0,0,0,.75,2.3,3.95,3.95,0,0,0,1.61,7.56,3.91,3.91,0,0,0,2.35-.79,3.71,3.71,0,0,0,.74.44l-.41,6.14L7.43,32.88a.41.41,0,0,0,0,.4.4.4,0,0,0,.32.22L22,35.09H22l.12,0,12.61-3.9A.44.44,0,0,0,35,30.94ZM7.83,17.1l3.34,1.82,0-.41,0,0,0,0,.37-5.89h.12L12,17.64l2.07-2.09-2,3.62.32,4.9-1.8,3.17.45-6.91ZM9.48,31l1-1.69,2.13-3.76.76-1.33,2.24-4,5.76,13.94-4.24-.48.4-7.33a.24.24,0,0,0-.22-.26l-4-.37a.26.26,0,0,0-.27.19L11.3,33.05l-2.82-.31Zm4.37,2.36-2-.23,1.59-6.86,1.38.13Zm.5,0,.92-7,1.71.16-.39,7.06Zm7.89.77-6-14.46H28.38L34,30.52Z"/></g></g></svg>