<svg xmlns="http://www.w3.org/2000/svg" viewBox="0 0 37.83 37.64"><defs><style>.cls-1{fill:#fff;}.cls-2{fill:#1147b4;}</style></defs><g id="レイヤー_2" data-name="レイヤー 2"><g id="トンボ"><rect class="cls-1" x="1.54" y="0.91" width="34.77" height="35.46" rx="2.77"/><path class="cls-2" d="M0,4.48C0,1.67,1.52.26,4.47.24L28.23.16c1.91,0,3.83-.28,5.75-.1,2.45.24,3.6,1.68,3.54,4.14-.06,2.62.06,5.24.11,7.87s.1,5.16.12,7.74c0,4.3,0,8.59.07,12.89.08,2.93-1.28,4.64-4.66,4.66-3.8,0-7.6,0-11.4.11-5.67.2-11.35,0-17,.17-2.58.07-4.57-1.3-4.51-4.3C.31,28.59,0,9.35,0,4.48ZM8.54,6.67c-.37.12-.75.22-1.12.36a.31.31,0,0,0-.14.49c.11.17.39.38.45.28C8,7.39,9,7.49,8.51,6.63L9.63,7c-.48-.41-.25-.94-.74-1C8.55,6,8.59,6.41,8.54,6.67Zm-1,4.82C7,10.82,6.37,10.18,5.77,9.56a1.33,1.33,0,0,1-.21-1.67c1.79-2.82,4.94-4,8-2.18a1.54,1.54,0,0,1,.79,1.61c-.13,1.35-.18,2.71-.27,4.06,0,.5.1.87.64,1s1,.27,1.35-.38a3.84,3.84,0,0,1,.69-1c.8-.8,1.33-.66,1.92.33a6.15,6.15,0,0,1,.65,1.89c.18.89,1.06.5,1.58.8.28.16.48-.11.56-.43q1.05-3.9,2.12-7.8c.36-1.34.71-1.59,2-1.26,2.08.51,4.15,1.1,6.24,1.6A1.31,1.31,0,0,1,33,8c-.89,3.31-1.76,6.62-2.71,9.9-.49,1.67-.51,1.71.94,2.69a9.53,9.53,0,0,1,2.53,2.34c1,1.41.75,3.06.91,4.61a58.67,58.67,0,0,1,0,7.5c0,.24-.12.49.18.6s.45-.11.62-.26a3.13,3.13,0,0,0,.84-2.53Q36.1,18.52,36,4.18c0-2.2-.65-2.83-2.89-2.79-3,.06-6,.07-9,.15-4.87.13-9.75.06-14.62.09-1.8,0-3.6,0-5.4.07S1.61,2.52,1.6,4.22s0,3.44,0,5.15q0,12,.07,24.06c0,1.91.91,2.77,2.8,2.76,3.48,0,7,0,10.44,0,.29,0,.63.16.91-.18-.06-.09-.1-.22-.18-.26-3.61-1.91-7.21-3.85-10.86-5.68a3.84,3.84,0,0,1-2.23-3.5c-.13-1.91-.32-3.82-.44-5.73-.07-1.11-.27-2.4.62-3.18a16.32,16.32,0,0,0,3.32-4.45A5.51,5.51,0,0,1,7.58,11.49ZM28.9,36.16c0-1.18,0-2,0-2.85-.06-2-.61-3.77-2.59-4.73-.61-.29-1.23-.54-1.83-.83-2.95-1.38-5.9-2.74-8.83-4.15C12,21.87,8.43,20.08,4.82,18.36c-1.21-.58-1.77-.21-1.79,1.06a74.51,74.51,0,0,0,.51,7.76A2.53,2.53,0,0,0,5,29.23C8.57,31.09,12.11,33,15.7,34.9a6.83,6.83,0,0,0,2.93,1.24C22.06,36.2,25.49,36.16,28.9,36.16ZM4.48,17.3a1.71,1.71,0,0,0,.26.21L14.1,22q6.65,3.18,13.29,6.4a4.31,4.31,0,0,1,2,2.11c.75,1.49.48,3,.56,4.59,0,.42-.1.91.61.9.92,0,1.83,0,2.75,0,.31,0,.58-.09.56-.46a1.12,1.12,0,0,0-.18-.67c-.25-.26-.52,0-.71.16-.7.81-.94.18-1.07-.38a26.32,26.32,0,0,1-.67-3.52,6.66,6.66,0,0,0-3.1-5c-2.51-1.77-5.47-2.47-8.31-3.41-4-1.31-7.71-2.91-10.65-6C8,15.43,5.51,15.82,4.48,17.3Zm18.87-4.86c-.63-.17-.73.24-.86.71-.7,2.6-1.35,5.22-2.18,7.78-.3.94-.08,1.29.75,1.52a24.26,24.26,0,0,1,5.88,2.15c.49.29.73-.07.79-.53a15.6,15.6,0,0,1,.54-2.32q.94-3.27,1.8-6.56c.08-.35.46-.89-.26-1.08Zm6.58.94c.31,0,.65.12.77-.36q.71-2.77,1.46-5.52c.09-.34,0-.51-.33-.6L25.5,5.26c-.39-.09-.73-.12-.87.48-.45,1.8-1,3.59-1.47,5.38-.07.24-.08.48.24.56Zm3.91,18.93c-.15-2.33-.07-4.42-.19-6.52-.15-2.75-2.08-4-4.15-5.39,0,.85-.6,1.54-.07,2.18a10.91,10.91,0,0,1,2.17,5.31C31.87,29.47,32.1,31.1,33.84,32.31ZM10.05,13.68a40.8,40.8,0,0,1,1.72,3.74A3.08,3.08,0,0,0,13,18.93c.68.49,1,.18,1.07-.53.25-1.8-.53-3.5-.6-5.27,0-.25-.27-.54-.48-.34C12.2,13.54,11.11,13.26,10.05,13.68Zm4.75,5.56c-.06.29-.08.58.23.73.77.38,1.55.78,2.35,1.11.44.18.49-.2.54-.54a7.63,7.63,0,0,1,.41-2.2c.21-.42,0-.66-.49-.65a6.35,6.35,0,0,1-1.06-.11c-1.69-.26-1.69-.26-2,1.43ZM19,21.85c1.07-2.33,1.26-4.7,2.09-6.84-1.9-.91-1.94-.91-1.86,1a12.67,12.67,0,0,1-.52,4.78C18.6,21,18.56,21.29,19,21.85Zm-8.72-5.28A2.59,2.59,0,0,0,9.1,14c-.93-.54-1.83.57-3.07,1.16C7.74,15.35,9.29,15.09,10.24,16.57Zm7.23-1.26c.57.34,1,.21.87-.66s-1.13-1.11-1.44-1.87c0,0-.37.07-.39.15a6.23,6.23,0,0,0-.37,2C16.19,15.51,16.88,15.3,17.47,15.31ZM30.82,26.83c-.92-1.18-1-2.52-2-3.45C28.35,25.29,28.8,26.15,30.82,26.83ZM17.56,16.9c.32.06.71.12.79-.28s-.37-.37-.65-.42c-.51-.09-1-.13-1.53-.24s-.64,0-.71.39.32.35.57.38C16.54,16.8,17.05,16.84,17.56,16.9Zm-3.31-3.39c.46.55,0,1.31.54,2.05.27-.78.48-1.38.7-2A1.2,1.2,0,0,0,14.25,13.51Zm-7.33.34c.42-.23.74-.44,1.08-.6s.68-.05.72-.46c0-.12-.22-.3-.38-.39-.4-.25-.65,0-.87.32S6.84,13.2,6.92,13.85ZM32.39,32.07c0,.84,0,1.44.61,1.82a.39.39,0,0,0,.55-.3C33.67,32.76,32.89,32.64,32.39,32.07ZM10.31,7.59a3.08,3.08,0,0,0-.17-2.17C9.27,6.23,9.9,6.75,10.31,7.59Zm-3.73.23a1.17,1.17,0,0,0,.5,1.26c.06,0,.34-.12.36-.22C7.54,8.34,7.17,8.12,6.58,7.82ZM17.9,11.59a.83.83,0,0,0,.38,1.18A.9.9,0,0,0,17.9,11.59Zm-7.17-5.4A1.43,1.43,0,0,0,12,6.09C11.55,5.82,11.21,5.59,10.73,6.19Zm2,.63.41-.25a1.35,1.35,0,0,0-.26-.18c-.16,0-.33,0-.35.18S12.64,6.72,12.73,6.82Z"/><path class="cls-2" d="M22,18.53c2.18-.76,4,1.32,6.14.66-.39.41-.33,1.38-1.34.74-.43-.27-.59.75-1.14.81.2.71-.29.6-.65.47s-1,.27-1-.59c0-.4-.2-.07-.36-.05-.46.08-1.16-.95-1.06-1.44S22.08,19.09,22,18.53Z"/><path class="cls-2" d="M22.47,17a7.24,7.24,0,0,1,1.92-1.64c.62-.3,1.09.12,1.65.06,1-.11.28,1.15,1,.94.19.83.81.76,1.42.62.09.54-.48.34-.57.63.17.17.51,0,.66.44-1.07.49-1.89-.48-2.84-.54S23.81,16.8,22.47,17Z"/><path class="cls-2" d="M25.7,18.31a.71.71,0,0,1-.91-.26C25.17,17.83,25.43,18,25.7,18.31Z"/><path class="cls-2" d="M24.09,17.84c-.32.13-.66.25-.9-.19C23.58,17.3,23.79,17.83,24.09,17.84Z"/><path class="cls-2" d="M26.33,18.58c.31-.28.55-.43.73-.17s-.14.27-.29.29A1.63,1.63,0,0,1,26.33,18.58Z"/><path class="cls-2" d="M27.93,18.44c.33,0,.48,0,.52.21s-.16.25-.3.26a.37.37,0,0,1-.29-.16A.28.28,0,0,1,27.93,18.44Z"/><path class="cls-2" d="M22.58,17.94c.06.16-.08.22-.17.22s-.33,0-.38-.13a.21.21,0,0,1,.2-.31A.33.33,0,0,1,22.58,17.94Z"/></g></g></svg>