<?xml version="1.0" standalone="no"?>
<!DOCTYPE svg PUBLIC "-//W3C//DTD SVG 1.1//EN" "http://www.w3.org/Graphics/SVG/1.1/DTD/svg11.dtd" >
<svg xmlns="http://www.w3.org/2000/svg">
<metadata>Generated by IcoMoon</metadata>
<defs>
<font id="one" horiz-adv-x="1024">
<font-face units-per-em="1024" ascent="960" descent="-64" />
<missing-glyph horiz-adv-x="1024" />
<glyph unicode="&#x20;" horiz-adv-x="512" d="" />
<glyph unicode="&#xe900;" glyph-name="complete" d="M512 938.667c-271.36 0-490.667-219.307-490.667-490.667s219.307-490.667 490.667-490.667 490.667 219.307 490.667 490.667-219.307 490.667-490.667 490.667zM814.933 564.053l-325.973-331.093c-14.507-14.507-34.987-21.333-55.467-18.773-14.507 1.707-29.013 8.533-39.253 19.627l-187.733 197.973c-24.747 26.453-24.747 68.267 1.707 93.867 25.6 24.747 66.56 24.747 91.307-0.853 0 0 0.853-0.853 0.853-0.853l142.507-150.187 279.040 284.16c24.747 25.6 65.707 25.6 91.307 0.853 0 0 0.853-0.853 0.853-0.853 26.453-25.6 26.453-67.413 0.853-93.867z" />
<glyph unicode="&#xe901;" glyph-name="board" d="M884.364 168.727c-23.273 0-46.545 18.618-46.545 41.891v521.309c0 23.273 23.273 41.891 46.545 41.891s46.545-18.618 46.545-41.891v-516.655c0-27.927-23.273-46.545-46.545-46.545zM679.564 224.582c0-32.582-23.273-55.855-55.855-55.855h-242.036c-27.927 0-55.855 27.927-55.855 55.855v116.364l-111.709 27.927v204.8l600.436 139.636v-488.727l-139.636 32.582c4.655 0 4.655-32.582 4.655-32.582zM646.982 261.818l-283.927 69.818v-102.4c0-13.964 18.618-27.927 32.582-27.927h223.418c13.964 0 27.927 13.964 27.927 27.927v32.582zM167.564 340.945c-13.964 0-27.927 13.964-27.927 27.927v204.8c0 13.964 13.964 27.927 27.927 27.927s32.582-13.964 32.582-27.927v-200.145c0-18.618-18.618-32.582-32.582-32.582v0z" />
<glyph unicode="&#xe902;" glyph-name="business" d="M907.636 29.091h-791.273c-37.236 0-69.818 27.927-69.818 65.164v404.945c0 0 181.527-88.436 344.436-125.673v-41.891c0-18.618 13.964-32.582 32.582-32.582h172.218c18.618 0 32.582 13.964 32.582 32.582v41.891c162.909 37.236 344.436 125.673 344.436 125.673v-400.291c4.655-41.891-27.927-69.818-65.164-69.818v0zM563.2 429.382c18.618 0 32.582-13.964 32.582-32.582v-32.582c0-18.618-13.964-32.582-32.582-32.582h-102.4c-18.618 0-32.582 13.964-32.582 32.582v32.582c0 18.618 13.964 32.582 32.582 32.582h102.4zM633.018 429.382c0 18.618-13.964 32.582-32.582 32.582h-176.873c-18.618 0-32.582-13.964-32.582-32.582v-27.927c-162.909 37.236-344.436 130.327-344.436 130.327v134.982c0 37.236 32.582 65.164 69.818 65.164h204.8v69.818c0 37.236 32.582 65.164 69.818 65.164h242.036c37.236 0 69.818-27.927 69.818-65.164v-65.164h204.8c37.236 0 69.818-27.927 69.818-65.164v-134.982c0 0-181.527-93.091-344.436-130.327 0-4.655 0 23.273 0 23.273zM633.018 764.509c0 18.618-13.964 32.582-32.582 32.582h-176.873c-18.618 0-32.582-13.964-32.582-32.582v-32.582h242.036v32.582z" />
<glyph unicode="&#xe903;" glyph-name="close" d="M390.982 448l-367.709 363.055c-32.582 32.582-32.582 88.436 0 121.018v0c32.582 32.582 88.436 32.582 121.018 0l367.709-363.055 363.055 363.055c32.582 32.582 88.436 32.582 121.018 0v0c32.582-32.582 32.582-88.436 0-121.018l-363.055-363.055 363.055-363.055c32.582-32.582 32.582-88.436 0-121.018v0c-32.582-32.582-88.436-32.582-121.018 0l-363.055 363.055-363.055-363.055c-32.582-32.582-88.436-32.582-121.018 0v0c-32.582 32.582-32.582 88.436 0 121.018l363.055 363.055z" />
<glyph unicode="&#xe904;" glyph-name="department" d="M107.055 820.364c4.655 0 88.436 0 409.6 0h404.945l9.309-4.655 4.655-4.655v-377.018c0-409.6 0-386.327-9.309-395.636l-4.655-9.309h-153.6c-83.782 0-269.964 0-404.945 0h-251.345l-4.655 4.655c-13.964 13.964-13.964-13.964-13.964 400.291v372.364l4.655 4.655c0 4.655 4.655 4.655 9.309 9.309v0zM670.255 289.745c-37.236-32.582-65.164-46.545-102.4-55.855-60.509-13.964-125.673-4.655-176.873 27.927-9.309 4.655-18.618 13.964-23.273 18.618-13.964 13.964-18.618 13.964-27.927 13.964s-9.309 0-13.964-4.655-4.655-9.309-4.655-13.964 0-9.309 9.309-18.618c32.582-32.582 83.782-55.855 134.982-65.164 23.273-4.655 79.127-4.655 102.4 0 46.545 9.309 88.436 27.927 125.673 60.509 18.618 18.618 23.273 27.927 18.618 37.236-13.964 4.655-27.927 9.309-41.891 0zM642.327 406.109c13.964-4.655 27.927 0 37.236 9.309 18.618 18.618 18.618 37.236 0 55.855-13.964 13.964-37.236 13.964-55.855 0-13.964-13.964-13.964-27.927-9.309-46.545 9.309-9.309 18.618-18.618 27.927-18.618v0zM363.055 406.109c41.891-9.309 69.818 41.891 37.236 65.164-18.618 13.964-37.236 13.964-51.2 0s-13.964-27.927-9.309-46.545c0-9.309 13.964-18.618 23.273-18.618zM893.673 685.382v93.091h-758.691v-186.182h758.691v93.091zM172.218 638.836v102.4h107.055v-107.055l-107.055 4.655zM623.709 722.618c9.309 0 13.964-4.655 18.618-9.309 9.309-9.309 9.309-13.964 9.309-23.273s-4.655-13.964-9.309-18.618-32.582-9.309-41.891 0c-4.655 4.655-9.309 13.964-9.309 18.618 0 9.309 4.655 13.964 9.309 18.618 9.309 9.309 13.964 13.964 23.273 13.964v0zM712.145 722.618c9.309 0 13.964-4.655 18.618-9.309s9.309-13.964 9.309-18.618c0-9.309-4.655-13.964-9.309-18.618-9.309-9.309-32.582-9.309-41.891 0-4.655 4.655-9.309 13.964-9.309 18.618 0 9.309 4.655 13.964 9.309 18.618 9.309 4.655 13.964 9.309 23.273 9.309v0zM800.582 722.618c9.309 0 13.964-4.655 18.618-9.309s9.309-13.964 9.309-18.618c0-9.309-4.655-13.964-9.309-18.618-9.309-9.309-32.582-9.309-41.891 0-4.655 4.655-9.309 13.964-9.309 18.618 0 9.309 4.655 13.964 9.309 18.618 9.309 4.655 13.964 9.309 23.273 9.309v0z" />
<glyph unicode="&#xe905;" glyph-name="discussion" d="M702.836 620.218c-55.855 130.327-181.527 209.455-311.855 209.455-46.545 0-97.745-9.309-144.291-32.582-172.218-83.782-246.691-293.236-167.564-474.764 37.236-83.782 97.745-144.291 172.218-176.873l-4.655-134.982c0 0 69.818 32.582 144.291 102.4 46.545 0 97.745 9.309 144.291 32.582 172.218 83.782 246.691 293.236 167.564 474.764zM209.455 415.418c-23.273 0-41.891 18.618-41.891 46.545 0 23.273 18.618 46.545 41.891 46.545s41.891-18.618 41.891-46.545-18.618-46.545-41.891-46.545zM390.982 415.418c-23.273 0-41.891 18.618-41.891 46.545 0 23.273 18.618 46.545 41.891 46.545s41.891-18.618 41.891-46.545-18.618-46.545-41.891-46.545zM572.509 415.418c-23.273 0-41.891 18.618-41.891 46.545 0 23.273 18.618 46.545 41.891 46.545s41.891-18.618 41.891-46.545-18.618-46.545-41.891-46.545zM972.8 75.636h-37.236c-4.655 0-79.127 4.655-172.218 37.236-46.545-18.618-125.673-18.618-176.873-18.618-13.964 0-23.273 9.309-23.273 23.273s9.309 23.273 23.273 23.273c46.545 0 130.327 0 167.564 18.618l9.309 4.655 9.309-4.655c51.2-18.618 97.745-27.927 130.327-32.582l-46.545 97.745 9.309 9.309c51.2 60.509 83.782 144.291 83.782 218.764 4.655 181.527-139.636 335.127-321.164 344.436-13.964 0-23.273 9.309-18.618 23.273 0 13.964 9.309 23.273 23.273 18.618 204.8-9.309 363.055-186.182 358.4-390.982 0-83.782-32.582-167.564-83.782-237.382l65.164-134.982z" />
<glyph unicode="&#xe906;" glyph-name="form" d="M916.945 866.909c0 0 55.855 0 55.855-51.2v-530.618c0 0 0-51.2-55.855-51.2h-768c-55.855-4.655-55.855 51.2-55.855 51.2v530.618c0 51.2 55.855 51.2 55.855 51.2h768zM777.309 178.036c13.964 0 27.927-13.964 27.927-27.927v-51.2c0-13.964-13.964-27.927-27.927-27.927h-493.382c-13.964 0-27.927 13.964-27.927 27.927v51.2c0 13.964 13.964 27.927 27.927 27.927h493.382zM688.873 662.109c0 4.655 0 9.309-4.655 13.964l-69.818 69.818c-4.655 4.655-23.273 4.655-23.273 4.655h-204.8c-13.964 0-23.273-9.309-23.273-23.273v-358.4c0-9.309 9.309-18.618 18.618-18.618h283.927c9.309 0 18.618 9.309 18.618 18.618 4.655 0 4.655 293.236 4.655 293.236zM600.436 713.309v0zM660.945 648.145v-260.655c0-4.655-4.655-9.309-9.309-9.309h-246.691c-4.655 0-9.309 4.655-9.309 9.309v321.164c0 4.655 4.655 9.309 9.309 9.309h186.182c-4.655 4.655 69.818-69.818 69.818-69.818zM516.655 606.255v18.618c0 4.655-4.655 4.655-4.655 4.655h-83.782c-4.655 0-4.655-4.655-4.655-4.655v-18.618c0-4.655 4.655-4.655 4.655-4.655h83.782c4.655 0 4.655 0 4.655 4.655v0zM628.364 545.745v18.618c0 4.655-4.655 4.655-4.655 4.655h-195.491c-4.655 0-4.655-4.655-4.655-4.655v-18.618c0 0 0-4.655 4.655-4.655h195.491c4.655 0 4.655 4.655 4.655 4.655v0zM628.364 489.891v18.618c0 4.655-4.655 4.655-4.655 4.655h-195.491c-4.655 0-4.655-4.655-4.655-4.655v-18.618c0-4.655 4.655-4.655 4.655-4.655h195.491c4.655 0 4.655 0 4.655 4.655v0zM628.364 429.382v18.618c0 4.655-4.655 4.655-4.655 4.655h-195.491c-4.655 0-4.655-4.655-4.655-4.655v-18.618c0-4.655 4.655-4.655 4.655-4.655h195.491c4.655 0 4.655 0 4.655 4.655v0z" />
<glyph unicode="&#xe907;" glyph-name="info" d="M512 938.667c-270.933 0-490.667-219.733-490.667-490.667s219.733-490.667 490.667-490.667 490.667 219.733 490.667 490.667-219.733 490.667-490.667 490.667zM580.267 182.044c0-37.689-30.578-68.267-68.267-68.267v0c-37.689 0-68.267 30.578-68.267 68.267v0c0 37.689 30.578 68.267 68.267 68.267v0c37.689 0 68.267-30.578 68.267-68.267v0zM580.267 373.333c0-37.689-30.578-68.267-68.267-68.267v0c-37.689 0-68.267 30.578-68.267 68.267v340.622c0 37.689 30.578 68.267 68.267 68.267v0c37.689 0 68.267-30.578 68.267-68.267v-340.622z" />
<glyph unicode="&#xe908;" glyph-name="learning" d="M823.855 275.782c200.145 83.782 204.8 251.345 0 335.127-4.655 0-4.655 4.655-4.655 9.309 9.309 79.127 0 139.636-23.273 181.527 0 0 0 4.655 0 9.309 13.964 46.545-23.273 102.4-79.127 102.4-37.236 0-69.818-27.927-79.127-65.164 0-4.655-4.655-4.655-4.655-4.655-27.927-9.309-60.509-27.927-93.091-55.855-4.655-4.655-9.309-4.655-9.309 0-172.218 139.636-311.855 55.855-279.273-167.564 0-4.655 0-9.309-4.655-9.309-181.527-74.473-200.145-214.109-65.164-302.545 4.655-4.655 4.655-4.655 4.655-9.309-9.309-41.891 13.964-83.782 55.855-97.745 4.655 0 4.655-4.655 4.655-9.309 4.655-167.564 134.982-223.418 283.927-97.745 4.655 4.655 9.309 4.655 9.309 0 97.745-83.782 190.836-88.436 242.036-32.582 0 0 4.655 4.655 9.309 4.655 46.545-4.655 88.436 32.582 88.436 83.782 0 32.582-18.618 65.164-51.2 74.473-4.655 0-4.655 4.655-4.655 9.309 0 9.309 0 18.618-4.655 32.582 0 4.655 4.655 4.655 4.655 9.309v0zM535.273 354.909c65.164 0 116.364 51.2 116.364 116.364s-51.2 116.364-116.364 116.364-116.364-51.2-116.364-116.364 51.2-116.364 116.364-116.364zM563.2 773.818c23.273 18.618 46.545 27.927 69.818 37.236 4.655 0 9.309 0 9.309-4.655 18.618-51.2 79.127-69.818 121.018-41.891 4.655 4.655 9.309 0 13.964-4.655 13.964-32.582 23.273-74.473 23.273-125.673 0-4.655-4.655-9.309-13.964-9.309-32.582 9.309-74.473 18.618-116.364 23.273-9.309 0-18.618 4.655-23.273 13.964-27.927 37.236-55.855 69.818-83.782 93.091-4.655 4.655-4.655 13.964 0 18.618zM297.891 354.909c-4.655 4.655-4.655 9.309-4.655 13.964 4.655 9.309 4.655 23.273 9.309 32.582s13.964 9.309 13.964 0c23.273-46.545 46.545-88.436 74.473-130.327 4.655-4.655 0-13.964-9.309-13.964s-18.618 4.655-32.582 4.655c-4.655 0-4.655 4.655-4.655 9.309 4.655 37.236-13.964 69.818-46.545 83.782zM307.2 480.582c-13.964 41.891-23.273 74.473-32.582 107.055 0 4.655 0 9.309 4.655 9.309 27.927 9.309 65.164 23.273 102.4 27.927 9.309 0 13.964-4.655 9.309-13.964-27.927-41.891-51.2-88.436-74.473-134.982 0 0-9.309 0-9.309 4.655zM330.473 424.727c-4.655 9.309-4.655 23.273 0 32.582 23.273 55.855 51.2 111.709 88.436 162.909 4.655 9.309 13.964 13.964 27.927 13.964 60.509 4.655 121.018 4.655 181.527 0 9.309 0 18.618-4.655 27.927-18.618 32.582-51.2 65.164-107.055 88.436-162.909 4.655-9.309 4.655-23.273 0-32.582-23.273-55.855-55.855-111.709-88.436-162.909-4.655-9.309-13.964-13.964-27.927-18.618-60.509-4.655-121.018-4.655-181.527 0-9.309 0-18.618 4.655-27.927 18.618-37.236 55.855-65.164 111.709-88.436 167.564zM674.909 271.127c27.927 41.891 51.2 88.436 74.473 134.982 4.655 4.655 13.964 4.655 13.964 0 13.964-37.236 23.273-74.473 27.927-107.055 0-4.655 0-9.309-4.655-9.309-27.927-9.309-65.164-23.273-102.4-27.927-9.309-9.309-13.964 0-9.309 9.309zM763.345 480.582c-4.655-4.655-13.964-9.309-13.964 0-23.273 46.545-46.545 88.436-74.473 130.327-4.655 4.655 0 13.964 9.309 13.964 37.236-4.655 74.473-13.964 102.4-27.927 4.655 0 9.309-4.655 4.655-9.309-4.655-32.582-13.964-65.164-27.927-107.055zM539.927 745.891c23.273-23.273 51.2-46.545 74.473-79.127 4.655-4.655 0-13.964-4.655-13.964-51.2 4.655-97.745 4.655-148.945 0-9.309 0-9.309 9.309-4.655 13.964 23.273 32.582 51.2 60.509 74.473 79.127 4.655 4.655 4.655 4.655 9.309 0zM507.345 773.818c4.655-4.655 4.655-13.964 4.655-13.964-27.927-27.927-55.855-55.855-83.782-93.091-4.655-13.964-13.964-18.618-23.273-18.618-46.545-4.655-88.436-13.964-121.018-27.927-4.655 0-9.309 0-9.309 9.309-13.964 172.218 97.745 237.382 232.727 144.291v0zM204.8 336.291c-4.655-4.655-9.309-4.655-9.309 0-93.091 74.473-74.473 181.527 55.855 246.691 4.655 4.655 9.309 0 9.309-4.655 4.655-37.236 18.618-79.127 37.236-121.018 4.655-9.309 4.655-18.618 0-32.582-9.309-18.618-13.964-37.236-18.618-55.855 0-4.655-4.655-4.655-9.309-4.655-27.927 0-51.2-9.309-65.164-27.927zM507.345 112.873c-121.018-83.782-218.764-41.891-237.382 79.127 0 4.655 0 9.309 4.655 9.309 23.273 4.655 41.891 18.618 51.2 41.891 0 4.655 4.655 4.655 9.309 4.655 18.618-4.655 37.236-9.309 60.509-9.309 9.309 0 18.618-4.655 23.273-13.964 27.927-37.236 55.855-69.818 83.782-93.091 9.309-9.309 9.309-18.618 4.655-18.618zM530.618 136.145c-23.273 23.273-51.2 46.545-74.473 79.127-4.655 4.655 0 13.964 4.655 13.964 51.2-4.655 97.745-4.655 148.945 0 9.309 0 9.309-9.309 4.655-13.964-23.273-32.582-51.2-60.509-74.473-79.127-4.655-4.655-4.655-4.655-9.309 0zM791.273 233.891c-65.164-4.655-97.745-88.436-55.855-134.982 4.655-4.655 4.655-13.964-4.655-13.964-41.891-23.273-107.055-18.618-172.218 27.927 0 0 0 9.309 0 9.309 27.927 27.927 55.855 55.855 83.782 93.091 4.655 9.309 13.964 13.964 23.273 13.964 46.545 4.655 83.782 13.964 121.018 27.927 4.655 0 9.309 0 9.309-9.309 0-4.655 0-9.309 0-9.309 4.655 0 0-4.655-4.655-4.655zM814.545 303.709c-9.309 37.236-18.618 79.127-37.236 121.018-4.655 9.309-4.655 18.618 0 32.582 13.964 41.891 27.927 83.782 37.236 116.364 0 4.655 9.309 9.309 13.964 4.655 144.291-74.473 144.291-209.455 0-283.927-9.309 4.655-13.964 4.655-13.964 9.309v0z" />
<glyph unicode="&#xe909;" glyph-name="menu" d="M85.333 917.333h853.333c46.933 0 85.333-38.4 85.333-85.333v0c0-46.933-38.4-85.333-85.333-85.333h-853.333c-46.933 0-85.333 38.4-85.333 85.333v0c0 46.933 38.4 85.333 85.333 85.333zM85.333 533.333h853.333c46.933 0 85.333-38.4 85.333-85.333v0c0-46.933-38.4-85.333-85.333-85.333h-853.333c-46.933 0-85.333 38.4-85.333 85.333v0c0 46.933 38.4 85.333 85.333 85.333zM85.333 149.333h853.333c46.933 0 85.333-38.4 85.333-85.333v0c0-46.933-38.4-85.333-85.333-85.333h-853.333c-46.933 0-85.333 38.4-85.333 85.333v0c0 46.933 38.4 85.333 85.333 85.333z" />
<glyph unicode="&#xe90a;" glyph-name="password" d="M572.8 508.8c-38.4-38.4-38.4-99.2 0-134.4 38.4-38.4 96-35.2 134.4 0 38.4 38.4 38.4 99.2 0 134.4-38.4 38.4-99.2 38.4-134.4 0zM512 960c-281.6 0-512-230.4-512-512s230.4-512 512-512 512 230.4 512 512-230.4 512-512 512zM806.4 275.2c-92.8-92.8-243.2-96-336-3.2l-86.4 83.2-67.2-67.2-67.2 67.2-67.2-67.2-67.2 67.2c-38.4 38.4-44.8 89.6-16 118.4l51.2 51.2 265.6 3.2c12.8 32 28.8 60.8 54.4 83.2 92.8 92.8 243.2 96 336 3.2 96-96 92.8-246.4 0-339.2z" />
<glyph unicode="&#xe90b;" glyph-name="personnel" d="M512 913.455c260.655 0 465.455-204.8 465.455-465.455s-204.8-465.455-465.455-465.455-465.455 204.8-465.455 465.455 204.8 465.455 465.455 465.455zM637.673 303.709c0 4.655-4.655 4.655-4.655 4.655-4.655 4.655-13.964 32.582-88.436 41.891-27.927 4.655-41.891 13.964-51.2 18.618-4.655 9.309 0 13.964 0 13.964v32.582c0 0 37.236 27.927 46.545 55.855 13.964 9.309 18.618 13.964 27.927 27.927 0 0 9.309 41.891-4.655 46.545 0 4.655-4.655 9.309-9.309 9.309 4.655 9.309 0 46.545 0 55.855-4.655 4.655-4.655 18.618-4.655 32.582-4.655 9.309-9.309 27.927-27.927 32.582-13.964 4.655-18.618 0-32.582 0-9.309 0-18.618 27.927-37.236 27.927l-32.582-9.309c-13.964 0-13.964-4.655-18.618-4.655-9.309 0 0 0-27.927-4.655s-37.236-41.891-37.236-51.2v-65.164c0-9.309-4.655-9.309-4.655-9.309-13.964 0-9.309-46.545-9.309-46.545 0-4.655 0-9.309 4.655-18.618 0-4.655 4.655-9.309 18.618-13.964v-4.655c9.309-18.618 32.582-37.236 41.891-41.891v-32.582c0 0 4.655-37.236-65.164-46.545-74.473-9.309-79.127-37.236-93.091-46.545s-9.309-74.473-9.309-74.473h4.655v-9.309l437.527-4.655c0 0 0 55.855-13.964 74.473-4.655 0-4.655 4.655-9.309 9.309v0zM828.509 229.236c0 0 0 41.891-9.309 51.2s-13.964 27.927-74.473 37.236c-46.545 4.655-51.2 37.236-51.2 37.236v18.618c0 0 27.927 13.964 37.236 41.891 9.309 9.309 13.964 9.309 13.964 18.618 0 0 0 37.236-13.964 37.236v51.2c0 9.309 4.655 37.236-13.964 41.891-9.309 4.655-9.309 0-9.309 0h-9.309c-4.655 0-13.964 18.618-27.927 18.618h-4.655l-27.927-4.655c-9.309 0-9.309-4.655-13.964-4.655s4.655 0-13.964-4.655c-18.618-4.655-18.618-32.582-27.927-41.891v-51.2c0-9.309-9.309-9.309-9.309-9.309-9.309 0-9.309-37.236-9.309-37.236 0-9.309 0-13.964 13.964-18.618 9.309-27.927 32.582-37.236 32.582-37.236v-27.927c18.618-9.309 37.236-18.618 51.2-41.891 13.964-41.891 13.964-83.782 13.964-83.782h144.291v4.655l9.309 4.655z" />
<glyph unicode="&#xe90c;" glyph-name="regulations" d="M609.745 829.673c46.545 18.618 88.436 37.236 88.436 37.236 4.655 0 18.618-4.655 18.618-9.309 0 0 65.164-158.255 139.636-349.091 153.6-377.018 144.291-353.745 130.327-363.055-4.655-4.655-181.527-79.127-190.836-79.127s-18.618 4.655-23.273 13.964c-4.655 4.655-65.164 162.909-139.636 349.091-88.436 214.109-134.982 339.782-134.982 344.436 0 9.309 4.655 18.618 9.309 18.618 9.309 0 51.2 18.618 102.4 37.236zM721.455 764.509c-4.655 4.655-9.309 4.655-18.618 0-4.655 0-32.582-13.964-69.818-27.927s-65.164-27.927-65.164-27.927c-4.655-4.655 0-27.927 9.309-27.927s139.636 55.855 148.945 60.509c4.655 9.309 4.655 18.618-4.655 23.273zM744.727 708.655c0 0-4.655 4.655-9.309 4.655s-139.636-51.2-144.291-55.855c-9.309-4.655 0-23.273 9.309-27.927 4.655-4.655 144.291 51.2 148.945 60.509 4.655 4.655 0 13.964-4.655 18.618v0zM768 652.8c0 0-4.655 4.655-9.309 4.655s-139.636-55.855-144.291-60.509c-4.655-4.655 0-23.273 9.309-27.927 4.655 0 23.273 4.655 74.473 27.927 79.127 32.582 79.127 32.582 74.473 46.545 0 0-4.655 4.655-4.655 9.309zM935.564 243.2c-4.655 4.655-9.309 4.655-27.927 0-9.309-4.655-41.891-18.618-69.818-27.927-27.927-13.964-55.855-23.273-55.855-23.273-4.655-9.309 0-27.927 9.309-27.927 4.655 0 139.636 55.855 148.945 60.509 0 0 0 9.309-4.655 18.618v0zM9.309 848.291c4.655 4.655 18.618 4.655 107.055 4.655h102.4l13.964-13.964v-381.673c0-418.909 0-386.327-13.964-395.636-4.655-4.655-18.618-4.655-102.4-4.655-107.055 0-107.055 0-111.709 13.964-4.655 9.309-4.655 13.964-4.655 386.327 0 414.255 0 386.327 9.309 390.982v0zM200.145 755.2c-4.655 4.655-13.964 4.655-83.782 4.655h-79.127l-4.655-4.655c-4.655-4.655-4.655-18.618 0-23.273s9.309-4.655 83.782-4.655 79.127 0 83.782 4.655 4.655 18.618 0 23.273zM200.145 694.691c-4.655 0-13.964 0-83.782 0h-83.782c-4.655-4.655-4.655-18.618 0-23.273s4.655-4.655 83.782-4.655c74.473 0 79.127 0 83.782 4.655s4.655 18.618 0 23.273v0zM200.145 629.527c-4.655 4.655-13.964 4.655-83.782 4.655-74.473 0-79.127 0-79.127-4.655-4.655-4.655-4.655-18.618 0-23.273l4.655-4.655h79.127c74.473 0 79.127 0 83.782 4.655 0 4.655 0 18.618-4.655 23.273v0zM195.491 187.345c-4.655 0-23.273 4.655-79.127 4.655-74.473 0-74.473 0-79.127-4.655s-4.655-4.655-4.655-13.964 0-9.309 4.655-13.964 9.309-4.655 83.782-4.655c88.436 0 83.782 0 83.782 18.618-4.655 9.309-4.655 9.309-9.309 13.964v0zM269.964 848.291c4.655 4.655 13.964 4.655 107.055 4.655h102.4l4.655-4.655c4.655-4.655 4.655-9.309 9.309-13.964 0-4.655 0-130.327 0-381.673 0-349.091 0-372.364-4.655-381.673-4.655-13.964-4.655-13.964-116.364-13.964-107.055 0-107.055 0-111.709 9.309-4.655 4.655-4.655 13.964-4.655 381.673 0 423.564 0 395.636 13.964 400.291zM460.8 755.2v0l-83.782 4.655c-60.509 0-79.127 0-83.782-4.655s-4.655-18.618 0-23.273 4.655-4.655 83.782-4.655c74.473 0 79.127 0 83.782 4.655s4.655 18.618 0 23.273zM460.8 694.691c-4.655 0-9.309 0-83.782 0-88.436 0-83.782 0-88.436-9.309 0-4.655 0-13.964 4.655-18.618 0 0 37.236 0 79.127 0 74.473 0 79.127 0 83.782 4.655 9.309 4.655 9.309 13.964 4.655 23.273zM460.8 629.527c-4.655 4.655-9.309 4.655-83.782 4.655-88.436 0-83.782 0-88.436-9.309 0-4.655 0-13.964 4.655-18.618 0 0 37.236 0 79.127 0 74.473 0 79.127 0 83.782 4.655 9.309 0 9.309 13.964 4.655 18.618zM456.145 182.691l-4.655 4.655h-74.473c-74.473 0-79.127 0-83.782-4.655s-4.655-18.618 0-27.927c4.655-4.655 9.309-4.655 83.782-4.655h79.127l4.655 4.655c0 9.309 4.655 13.964 4.655 18.618s-4.655 9.309-9.309 9.309v0z" />
<glyph unicode="&#xe90d;" glyph-name="report" d="M93.091 499.2v418.909h712.145v-842.473h-712.145v423.564zM656.291 769.164v18.618h-414.255v-37.236h409.6c4.655 0 4.655 18.618 4.655 18.618zM628.364 680.727c-23.273 9.309-46.545 0-65.164-13.964-18.618-18.618-23.273-46.545-13.964-65.164 0-4.655 4.655-9.309 4.655-9.309s-13.964-9.309-27.927-23.273l-27.927-23.273c0 0-9.309 0-13.964 4.655-32.582 9.309-60.509 4.655-79.127-13.964l-9.309-9.309-23.273 13.964-18.618 13.964v13.964c0 13.964-4.655 32.582-13.964 46.545-23.273 27.927-69.818 27.927-93.091 4.655s-23.273-65.164 0-88.436c13.964-13.964 23.273-18.618 41.891-18.618s27.927 4.655 41.891 13.964l9.309 4.655 46.545-27.927v-13.964c0-18.618 9.309-27.927 18.618-41.891 13.964-13.964 23.273-18.618 41.891-18.618s32.582 4.655 46.545 23.273c13.964 13.964 18.618 27.927 13.964 46.545 0 9.309 0 18.618 0 18.618s13.964 13.964 32.582 23.273l27.927 23.273 9.309-4.655c27.927-9.309 55.855-4.655 74.473 9.309 27.927 27.927 27.927 69.818 0 97.745-9.309 4.655-18.618 13.964-23.273 13.964zM656.291 317.673v18.618h-414.255v-37.236h409.6c4.655 0 4.655 18.618 4.655 18.618zM656.291 205.964v18.618h-414.255v-37.236h409.6c4.655 0 4.655 18.618 4.655 18.618zM823.855 806.4v18.618h93.091v-842.473h-716.8v74.473h37.236v-37.236h637.673v768h-55.855c4.655 0 4.655 18.618 4.655 18.618z" />
<glyph unicode="&#xe90e;" glyph-name="send" d="M964.267 859.022l-181.333-682.667c-9.956-38.4-18.489-69.689-19.2-69.689l-0.711 0.711c0 0-29.867 12.8-65.422 27.733l-118.756 49.778c-36.267 14.933-95.289 39.111-131.556 53.333l-12.8 4.978c-36.267 14.222-44.089 49.778-17.778 78.933l367.644 403.911c26.311 29.156 23.467 32.711-7.111 7.822l-463.644-375.467c-30.578-24.889-85.333-32.711-121.6-17.778l-107.378 43.378c-36.267 14.933-37.689 41.956-2.844 60.444l838.4 450.844c34.844 18.489 54.756 2.133 44.089-36.267v0zM329.956 215.467l86.044-32.711c37.689-14.222 50.489-51.911 27.733-83.2 0 0-78.933-112.356-76.8-105.956s-77.511 184.889-77.511 184.889c-14.933 34.133 2.844 51.2 40.533 36.978z" />
<glyph unicode="&#xe90f;" glyph-name="sitemap" d="M698.182 610.909h218.764l107.055 111.709-107.055 111.709h-400.291v79.127h-116.364v-218.764h-269.964l-130.327-111.709 130.327-111.709h269.964v-488.727h116.364v353.745h176.873l130.327 111.709-130.327 111.709h-176.873v51.2h181.527z" />
<glyph unicode="&#xe910;" glyph-name="verification" d="M507.345 815.709c-4.655-4.655-18.618-13.964-27.927-18.618-32.582-23.273-83.782-46.545-130.327-60.509-23.273-4.655-74.473-13.964-83.782-13.964-4.655 0-9.309 0-9.309-4.655-9.309-4.655-9.309-9.309-4.655-46.545 18.618-102.4 27.927-195.491 23.273-288.582 0-93.091-13.964-167.564-32.582-237.382-9.309-23.273-9.309-32.582 0-37.236s13.964-4.655 18.618 0c0 4.655 46.545 93.091 102.4 200.145 88.436 167.564 97.745 195.491 97.745 195.491-4.655 4.655-9.309 13.964-9.309 23.273 0 23.273 18.618 41.891 41.891 41.891 18.618 0 41.891-13.964 41.891-32.582 9.309-27.927-13.964-55.855-41.891-55.855-4.655 0-9.309-4.655-107.055-195.491-55.855-107.055-102.4-195.491-102.4-200.145s9.309-9.309 13.964-9.309c9.309 0 13.964 4.655 27.927 18.618 74.473 97.745 186.182 186.182 325.818 265.309 32.582 18.618 93.091 46.545 116.364 60.509 13.964 4.655 18.618 9.309 18.618 18.618 0 4.655-9.309 23.273-18.618 41.891-37.236 74.473-51.2 125.673-51.2 200.145 0 32.582 0 37.236-4.655 41.891s-23.273 13.964-74.473 41.891c-79.127 41.891-102.4 55.855-111.709 55.855-4.655 0-9.309 0-18.618-4.655z" />
<glyph unicode="&#xe911;" glyph-name="welfare" d="M907.636 699.345h-125.673c13.964 18.618 18.618 37.236 18.618 60.509 0 55.855-46.545 102.4-102.4 102.4s-107.055-46.545-130.327-74.473c-13.964-18.618-27.927-32.582-37.236-51.2-9.309 18.618-23.273 32.582-37.236 51.2-18.618 32.582-65.164 79.127-125.673 79.127-55.855 0-102.4-46.545-102.4-102.4 0-23.273 9.309-46.545 18.618-60.509h-125.673c-9.309-4.655-18.618-13.964-18.618-23.273v-125.673c0-13.964 9.309-23.273 18.618-23.273h18.618v-395.636c0-32.582 27.927-60.509 60.509-60.509h581.818c32.582 0 60.509 27.927 60.509 60.509v395.636h18.618c23.273 0 32.582 9.309 32.582 23.273v125.673c0 9.309-9.309 18.618-23.273 18.618v0zM307.2 764.509c0 32.582 27.927 60.509 60.509 60.509 27.927 0 65.164-23.273 97.745-60.509 18.618-23.273 32.582-46.545 41.891-65.164h-139.636c-32.582 0-60.509 27.927-60.509 65.164v0zM595.782 117.527h-125.673v539.927h125.673v-539.927zM702.836 699.345h-139.636c9.309 18.618 23.273 41.891 41.891 65.164 32.582 37.236 69.818 60.509 97.745 60.509 32.582 0 60.509-27.927 60.509-60.509 0-37.236-27.927-65.164-60.509-65.164z" />
<glyph unicode="&#xe912;" glyph-name="prev" d="M693.527 29.091c-13.964 0-32.582 4.655-41.891 18.618l-363.055 363.055c-9.309 9.309-18.618 27.927-18.618 41.891s4.655 32.582 18.618 41.891l349.091 349.091c23.273 23.273 60.509 23.273 83.782 0s23.273-60.509 0-83.782l-307.2-307.2 321.164-321.164c23.273-23.273 23.273-60.509 0-83.782-9.309-13.964-23.273-18.618-41.891-18.618z" />
<glyph unicode="&#xe913;" glyph-name="first" d="M269.964 29.091c-32.582 0-60.509 27.927-60.509 60.509v716.8c0 32.582 27.927 60.509 60.509 60.509s60.509-27.927 60.509-60.509v-716.8c0-32.582-27.927-60.509-60.509-60.509zM795.927 29.091c-13.964 0-32.582 4.655-41.891 18.618l-363.055 363.055c-13.964 13.964-18.618 27.927-18.618 46.545 0 13.964 4.655 32.582 18.618 41.891l349.091 349.091c23.273 23.273 60.509 23.273 83.782 0s23.273-60.509 0-83.782l-307.2-307.2 321.164-321.164c23.273-23.273 23.273-60.509 0-83.782-9.309-18.618-23.273-23.273-41.891-23.273z" />
<glyph unicode="&#xe914;" glyph-name="last" d="M735.418 89.6v716.8c0 32.582 27.927 60.509 60.509 60.509s60.509-27.927 60.509-60.509v-716.8c0-32.582-27.927-60.509-60.509-60.509s-60.509 27.927-60.509 60.509zM228.073 52.364c-23.273 23.273-23.273 60.509 0 83.782l321.164 321.164-307.2 307.2c-23.273 23.273-23.273 60.509 0 83.782s60.509 23.273 83.782 0l349.091-349.091c13.964-9.309 18.618-27.927 18.618-41.891 0-18.618-4.655-32.582-18.618-46.545l-363.055-363.055c-9.309-13.964-27.927-18.618-41.891-18.618-18.618 0-32.582 4.655-41.891 23.273z" />
<glyph unicode="&#xe915;" glyph-name="next" d="M330.473 866.909c13.964 0 27.927-4.655 41.891-18.618l363.055-363.055c9.309-9.309 18.618-27.927 18.618-41.891s-4.655-32.582-18.618-41.891l-349.091-349.091c-23.273-23.273-60.509-23.273-83.782 0s-23.273 60.509 0 83.782l307.2 307.2-321.164 321.164c-23.273 23.273-23.273 60.509 0 83.782 9.309 13.964 23.273 18.618 41.891 18.618z" />
<glyph unicode="&#xe916;" glyph-name="email" horiz-adv-x="853" d="M750.933 789.333h-648.533c-51.2 0-102.4-51.2-102.4-110.933v-452.267c0-68.267 51.2-119.467 102.4-119.467h640c59.733 0 110.933 51.2 110.933 110.933v460.8c0 59.733-51.2 110.933-102.4 110.933zM802.133 217.6c0-34.133-25.6-59.733-51.2-59.733h-648.533c-25.6 8.533-51.2 34.133-51.2 59.733v460.8c0 0 0 0 0 0l375.467-358.4 375.467 358.4c0 0 0 0 0 0v-460.8z" />
<glyph unicode="&#xe917;" glyph-name="phone" horiz-adv-x="853" d="M110.933 789.333c-8.533 0-17.067-8.533-17.067-17.067-8.533-8.533-8.533-8.533-8.533-25.6s0-59.733 8.533-85.333c17.067-119.467 68.267-238.933 145.067-332.8 17.067-17.067 51.2-51.2 68.267-68.267 59.733-51.2 119.467-85.333 187.733-119.467 59.733-17.067 128-25.6 196.267-34.133 34.133 0 51.2 0 59.733 0s8.533 8.533 17.067 17.067c0 8.533 0 8.533 0 76.8 0 85.333 0 85.333-8.533 93.867 0 0-8.533 8.533-8.533 8.533s-17.067 0-34.133 0c-51.2 0-85.333 8.533-128 25.6-8.533 0-17.067 0-25.6 0 0 0-25.6-17.067-51.2-42.667-34.133-34.133-42.667-42.667-42.667-42.667s-34.133 17.067-51.2 34.133c-59.733 42.667-119.467 93.867-153.6 153.6-17.067 17.067-42.667 59.733-42.667 59.733s17.067 17.067 42.667 42.667 51.2 51.2 51.2 59.733c0 8.533 0 8.533-8.533 34.133-8.533 42.667-8.533 76.8-17.067 110.933 0 25.6 0 34.133-8.533 34.133-8.533 17.067-8.533 17.067-93.867 17.067-42.667 0-76.8 0-76.8 0z" />
<glyph unicode="&#xe918;" glyph-name="mobile" horiz-adv-x="853" d="M622.933 874.667h-384c-34.133 0-68.267-17.067-68.267-51.2v-750.933c0-25.6 34.133-51.2 68.267-51.2h384c25.6 0 59.733 34.133 59.733 59.733v742.4c0 34.133-34.133 51.2-59.733 51.2zM384 814.933h93.867v-25.6h-93.867v25.6zM426.667 55.467c-25.6 0-42.667 17.067-42.667 42.667 0 17.067 17.067 34.133 42.667 34.133s42.667-17.067 42.667-42.667c0-17.067-17.067-34.133-42.667-34.133zM622.933 174.933h-392.533v563.2h392.533v-563.2z" />
</font>
</defs>
</svg>
