<?xml version="1.0" encoding="utf-8"?>
<!-- Generator: Adobe Illustrator 22.0.1, SVG Export Plug-In . SVG Version: 6.00 Build 0)  -->
<svg version="1.1" id="Layer_1" xmlns="http://www.w3.org/2000/svg" xmlns:xlink="http://www.w3.org/1999/xlink" x="0px" y="0px"
	 viewBox="0 0 472.8 171.5" style="enable-background:new 0 0 472.8 171.5;" xml:space="preserve">
<style type="text/css">
	.st0{fill:#FFFFFF;}
</style>
<title>lovepop-logo</title>
<path class="st0" d="M238.6,103.7c0.1-5.5-0.8-10.9-2.7-16.1c-1.6-4.5-4.2-8.6-7.6-12c-3.4-3.3-7.5-5.9-12-7.5
	c-5.1-1.8-10.4-2.7-15.8-2.6c-5.3-0.1-10.5,0.8-15.5,2.7c-4.5,1.7-8.6,4.2-12,7.6c-1.1,1-2,2.1-2.9,3.3l5.3-13.5h-21.3l-17,48
	l-16.9-48H99l5.7,14.4c-13.1-16.5-37.1-19.2-53.6-6.1c-14.6,11.6-18.6,32-9.6,48.3H29.8c-3-0.1-5.2-0.7-6.6-2
	c-1.4-1.3-2.1-3.3-2.1-6V14.8H0v98.3c0,7.3,1.2,13.1,3.8,17.3c2.5,4.3,6.4,7.6,11.1,9.4c3.5,1.4,8.5,2.1,15,2.1H47v-12.1
	c14.4,15.4,38.5,16.2,53.9,1.9c7.7-7.2,12.1-17.3,12.1-27.9c0-1,0-1.9-0.1-2.9l16.1,41h16.3l17.3-44.1c-0.2,2-0.4,4-0.4,6
	c-0.1,5.5,0.9,11,2.9,16.1c1.8,4.6,4.5,8.7,8.1,12c3.6,3.3,7.9,5.9,12.5,7.4c5.2,1.8,10.6,2.6,16.1,2.6c4.4,0,8.8-0.6,13-1.8
	c3.9-1.1,7.5-2.9,10.8-5.3c3.2-2.3,5.8-5.3,7.9-8.6c2.2-3.6,3.6-7.6,4.2-11.8h-21c0,1.8-0.5,3.7-1.4,5.2c-0.9,1.5-2.1,2.8-3.5,3.8
	c-1.4,1.1-3,1.9-4.8,2.4c-1.7,0.5-3.5,0.8-5.3,0.8c-2.3,0-4.5-0.3-6.6-1.1c-2-0.7-3.9-1.8-5.5-3.2c-1.7-1.5-3.1-3.3-4.1-5.3
	c-1.2-2.4-2-4.9-2.4-7.5h55.4L238.6,103.7z M74.9,124.5c-11.5,0-20.8-9.3-20.8-20.8c0-11.5,9.3-20.8,20.8-20.8s20.8,9.3,20.8,20.8v0
	C95.7,115.2,86.4,124.5,74.9,124.5z M183.6,94.3c1.3-4.5,3.4-7.9,6.4-10.1c6.3-4.4,14.6-4.4,20.9,0c2.9,2.2,5,5.6,6.3,10.1H183.6z"
	/>
<path class="st0" d="M434.7,65.6c-7.5,0-14.9,2.2-21.2,6.4v-6.4h-16.9v27.6c-5.8-20.2-27-31.9-47.2-26.1c-4.5,1.3-8.8,3.4-12.5,6.3
	c6.3-25.3-9-50.9-34.2-57.2c-12.7-3.2-26.2-0.9-37.2,6.2v-7.6H244v47.2l0,0v79.9h21.4v-40.4c17.8,11.6,41.1,9.9,57-4.2
	c-0.4,2.1-0.6,4.3-0.6,6.5c0,21.1,17.1,38.1,38.1,38.1c17,0,31.9-11.2,36.6-27.5v57.2h16.9v-36.1c17.5,11.7,41.2,7,52.9-10.5
	c11.7-17.5,7-41.2-10.5-52.9C449.7,67.9,442.3,65.6,434.7,65.6L434.7,65.6z M291,87.2c-13.1,0-24-9.8-25.5-22.8v-5.9
	c1.6-14.1,14.4-24.2,28.5-22.6c14.1,1.6,24.2,14.4,22.6,28.5C315.1,77.4,304.1,87.2,291,87.2z M360,124.5
	c-11.5,0-20.8-9.3-20.8-20.8s9.3-20.8,20.8-20.8s20.8,9.3,20.8,20.8c0,0,0,0,0,0C380.8,115.2,371.5,124.5,360,124.5
	C360,124.5,360,124.5,360,124.5z M434.8,124.5c-11.5,0-20.8-9.3-20.8-20.8s9.3-20.8,20.8-20.8s20.8,9.3,20.8,20.8c0,0,0,0,0,0
	C455.6,115.2,446.3,124.5,434.8,124.5C434.8,124.5,434.7,124.5,434.8,124.5L434.8,124.5z"/>
<circle class="st0" cx="291" cy="61.5" r="17.1"/>
<path class="st0" d="M332.6,1.1c4,2.5,4.7,8.6,1.6,13.6s-8.9,7.1-13,4.5s-4.7-8.6-1.6-13.6S328.6-1.4,332.6,1.1z"/>
<path class="st0" d="M357.6,16.9c3.2,5,0.6,12.4-5.9,16.6s-14.3,3.5-17.5-1.4s-0.6-12.4,5.9-16.6S354.4,12,357.6,16.9z"/>
<path class="st0" d="M363,48c0.6,4.7-3.6,9.2-9.4,10s-11.1-2.3-11.8-7s3.6-9.2,9.4-10S362.4,43.3,363,48z"/>
</svg>
