<svg id="Layer_1" data-name="Layer 1" xmlns="http://www.w3.org/2000/svg" viewBox="0 0 472.84 171.53"><defs><style>.cls-1{fill:#595857;}.cls-2{fill:#a7d081;}</style></defs><title>lovepop-logo</title><path class="cls-1" d="M238.56,103.74a45.47,45.47,0,0,0-2.68-16.07,32.57,32.57,0,0,0-7.65-12,33.6,33.6,0,0,0-12-7.47,45.41,45.41,0,0,0-15.82-2.59,43.34,43.34,0,0,0-15.49,2.65,34.44,34.44,0,0,0-12,7.58A30.68,30.68,0,0,0,170,79.16l5.32-13.54H154.05l-17,48-16.9-48H99L104.67,80a38.12,38.12,0,0,0-63.18,42.2H29.8q-4.52-.09-6.59-2c-1.37-1.29-2.06-3.29-2.06-6V14.78H0V113.1Q0,124,3.75,130.45a21.41,21.41,0,0,0,11.05,9.36q5.19,2.06,15,2.06H47V129.72a38.12,38.12,0,0,0,66-26c0-1,0-1.93-.12-2.88l16.11,41h16.32l17.34-44.12a50.5,50.5,0,0,0-.35,6,42.81,42.81,0,0,0,2.86,16.14,32.81,32.81,0,0,0,8.09,12,35.05,35.05,0,0,0,12.53,7.44,48.17,48.17,0,0,0,16.08,2.56,44.71,44.71,0,0,0,13-1.83,34.74,34.74,0,0,0,10.81-5.31,30.27,30.27,0,0,0,7.87-8.6,32.15,32.15,0,0,0,4.25-11.76H216.8a10.6,10.6,0,0,1-1.43,5.25,13,13,0,0,1-3.48,3.82,15.59,15.59,0,0,1-4.76,2.36,18.16,18.16,0,0,1-5.27.79,20.3,20.3,0,0,1-6.63-1.06,16.14,16.14,0,0,1-5.53-3.19,18.6,18.6,0,0,1-4.11-5.31,25.11,25.11,0,0,1-2.41-7.51h55.38ZM74.87,124.54a20.8,20.8,0,1,1,20.8-20.8A20.8,20.8,0,0,1,74.87,124.54ZM183.62,94.31q1.9-6.77,6.37-10.09a18.12,18.12,0,0,1,20.91,0c2.91,2.21,5,5.58,6.27,10.09Z"/><path class="cls-1" d="M434.71,65.62A38,38,0,0,0,413.53,72V65.62H396.59V93.18a38.13,38.13,0,0,0-59.7-19.79,47.15,47.15,0,0,0-71.46-51V14.78H244V61.93h0v79.93h21.44V101.45a47.11,47.11,0,0,0,57-4.21,38.61,38.61,0,0,0-.56,6.5,38.13,38.13,0,0,0,74.76,10.57v57.22h16.94V135.45a38.13,38.13,0,1,0,21.18-69.83ZM291,87.19a25.71,25.71,0,0,1-25.53-22.77V58.53A25.71,25.71,0,1,1,291,87.19Zm69,37.35a20.8,20.8,0,1,1,20.8-20.8A20.79,20.79,0,0,1,360,124.54Zm74.76,0a20.8,20.8,0,1,1,20.8-20.8A20.79,20.79,0,0,1,434.71,124.54Z"/><circle class="cls-2" cx="290.96" cy="61.48" r="17.14"/><path class="cls-1" d="M332.59,1.08c4,2.51,4.72,8.61,1.58,13.62s-8.94,7.05-12.95,4.54-4.72-8.61-1.58-13.63S328.57-1.43,332.59,1.08Z"/><path class="cls-1" d="M357.58,16.91c3.22,5,.6,12.38-5.86,16.57S337.43,37,334.21,32.07s-.6-12.38,5.86-16.57S354.36,12,357.58,16.91Z"/><path class="cls-1" d="M363,48c.65,4.69-3.56,9.15-9.42,10s-11.14-2.31-11.8-7,3.56-9.15,9.42-10S362.35,43.3,363,48Z"/></svg>