<?xml version="1.0" encoding="utf-8"?>
<!-- Generator: Adobe Illustrator 26.0.3, SVG Export Plug-In . SVG Version: 6.00 Build 0)  -->
<svg version="1.1" id="head-about_sp.svg" xmlns="http://www.w3.org/2000/svg" xmlns:xlink="http://www.w3.org/1999/xlink" x="0px"
	 y="0px" viewBox="0 0 429.2 183" style="enable-background:new 0 0 429.2 183;" xml:space="preserve">
<style type="text/css">
	.st0{fill:#FFFFFF;}
</style>
<g>
	<path class="st0" d="M96.2,26.2v17.4c0,0.3-1.4,1.2-3.6,1.2h-0.8V30.8c-0.2,0-0.6,0-1,0c-1.6,3.4-4.2,7.7-7.8,10.6l-0.5-0.5
		c2.4-3.7,4-9.4,4.7-13.1l4.7,2v-3.6h-8.3l-0.4-1.4h8.6v-5.8h-9l-0.4-1.4h12.9c0.9-2.8,1.9-6.4,2.4-9.1H87.2c9.1,4.6,5,11.2,1.8,8
		c0-2.5-1.3-5.7-2.4-7.8L87,8.6h-3.5l-0.4-1.4h11c-0.4-0.1-1-0.3-1.5-0.7c-0.3-2.1-1.6-4.7-2.9-6.2L90.3,0c8.4,1.7,7.4,6.8,4.7,7.2
		h3.8l2.4-3.1c0,0,2.6,2.1,4.3,3.7c-0.1,0.5-0.6,0.8-1.3,0.8h-5.9l5.3,1.7c-0.2,0.6-0.8,1-1.8,0.9c-1.2,1.9-3.2,4.4-5.1,6.5h3.6
		l2.4-3.2c0,0,2.8,2.3,4.4,3.8c-0.1,0.5-0.6,0.8-1.2,0.8h-9.5v5.8h3.3l2.3-3c0,0,2.6,2.1,4.1,3.6c-0.1,0.5-0.6,0.8-1.2,0.8H96.2z
		 M97.4,28.4c9.9,4.8,5.9,12.2,2.4,9c0-2.9-1.5-6.4-3-8.7L97.4,28.4z M122.7,13.4c0,0,3.1,2.5,4.9,4.3c-0.1,0.5-0.6,0.8-1.3,0.8
		h-4.7v25c0,0.3-1.4,1.3-3.7,1.3h-0.8V18.4h-5.7v1.7c0,8.4-0.8,18.2-10.3,24.6l-0.6-0.6c5.8-6.8,6.5-15.5,6.5-24.1V4l4.8,1.6
		c3.6-1.6,7.5-3.9,9.6-5.5l5,4c-0.5,0.5-1.3,0.6-2.6,0.1c-3.1,1-7.9,2.1-12.4,2.7v10h8.5L122.7,13.4z"/>
	<path class="st0" d="M137.5,16.8v26.4c0,0.6-1.6,1.7-3.6,1.7h-0.8V1.6l4.7,2.1h7.6l2-2.2l4.4,3.3c-0.3,0.3-0.9,0.7-1.8,0.9v12
		c0,0.4-2.1,1.3-3.6,1.3h-0.7v-2.2H137.5z M137.5,5v4.4h8.3V5H137.5z M145.8,15.4v-4.6h-8.3v4.6H145.8z M159.2,31.2v10.4
		c0,0.2-1.3,1-3.3,1h-0.7V31.2h-5.3c-0.5,4.2-2.4,8.8-9.2,11.8l-0.5-0.6c4.2-3.3,5.5-7.3,5.9-11.2h-6l-0.4-1.3h6.4
		c0-0.5,0-1.1,0-1.6V23h-5l-0.4-1.4h18l2.3-3c0,0,2.6,2.1,4.2,3.6c-0.1,0.5-0.6,0.8-1.2,0.8h-4.8v6.9h0.8l2.2-3c0,0,2.5,2.1,4,3.6
		c-0.1,0.5-0.6,0.8-1.3,0.8H159.2z M155.2,29.9V23h-5.1v5.2c0,0.5,0,1.1,0,1.6H155.2z M174.5,4.8c-0.3,0.4-1.1,0.8-2,1v33.4
		c0,3.3-0.6,5.1-5.8,5.6c-0.1-1.4-0.3-2.5-0.8-3.2c-0.6-0.7-1.5-1.2-3.4-1.6v-0.7c0,0,3.7,0.2,4.5,0.2s1-0.3,1-0.9V16.8h-8.6v0.5
		c0,0.4-1.9,1.3-3.6,1.3h-0.6V1.8l4.5,1.9h7.9l2.1-2.5L174.5,4.8z M159.5,5v4.4h8.6V5H159.5z M168.1,15.4v-4.6h-8.6v4.6H168.1z"/>
	<path class="st0" d="M198.5,31.4c-0.3,0.4-0.9,0.6-1.9,0.7c-0.4,6.5-1.5,10.2-3.4,11.6c-1.2,0.9-2.9,1.3-5,1.3
		c0-1.2-0.1-2.2-0.9-2.7c-0.7-0.7-2.3-1.2-4-1.4v-0.7c1.8,0.1,4.8,0.3,5.8,0.3c0.7,0,1.1-0.1,1.5-0.4c0.8-0.7,1.5-3.6,1.9-8.5h-6
		l-1.8,2.1l-4-2.9c0.5-0.4,1.2-0.7,2-1c0.4-2.4,1-6,1.1-8l4.7,2h3.6v-6.1h-5.5c-2.5,1.4-5.2,2.5-8.2,3.4l-0.4-0.6
		c3.9-1.9,7.4-4.5,10.2-7.5c-0.7,0.2-1.5,0.2-2.4-0.4c-0.4-1.9-2.2-4.1-3.9-5.3l0.4-0.3c6.1,0,7.7,2.6,7.3,4.5
		c1.7-2.1,3.2-4.3,4.2-6.5h-12.4l-0.4-1.4H194l2.6-2.5l4.4,3.8c-0.3,0.4-0.8,0.6-2,0.7c-2.3,4.1-5.7,7.8-10.2,10.8h3.9l1.8-2.1
		l3.5,3.4c-0.3,0.3-1,0.7-1.7,0.8v7.4c-0.1,0.1-1.8,0.9-3.4,0.9h-0.8v-1.6h-4.8c-0.2,1.6-0.6,3.5-0.9,5.1h5.7l2.2-2.2L198.5,31.4z
		 M222.2,8.4c-0.3,0.4-0.7,0.6-1.8,0.4c-1.5,1-3.8,2.2-6,3.1c3,1.5,6.1,2.7,9.4,3.6l-0.1,0.5c-1.9,0.3-3.3,1.8-3.9,3.9
		c-1.5-0.7-3-1.4-4.4-2.3c-0.4,0.2-0.8,0.3-1.3,0.4v4.8c0,0.4,0.1,0.6,0.6,0.6h1.2c0.4,0,0.8,0,1.1,0h0.7c0.2,0,0.7-0.1,0.9-0.2h0.4
		l0.2,0c1.1,0.4,1.4,0.8,1.4,1.5c0,1.6-1.4,2.1-5.4,2.1h-0.6l4.2,3.7c-0.4,0.5-0.9,0.6-1.9,0.7c-1.2,1.9-2.6,3.6-4.4,5.1
		c7.8,4.2,6.6,9.1,2.8,7.9c-1.4-1.6-3.6-3.5-6-5.3c-3.7,2.6-8.4,4.6-13.7,5.9l-0.4-0.7c4.4-1.7,8.3-4.2,11.4-7.2
		c-2.3-1.5-4.6-2.9-6.7-3.9l0.4-0.6c3.3,0.6,6.1,1.4,8.4,2.3c1.1-1.3,2.1-2.7,2.8-4.1h-12.6l-0.4-1.4h13.2l2.6-2.4h-1.2
		c-3,0-3.3-1-3.3-3.2v-6H205v1.5c0,2.9-0.8,7.2-7.7,9.6l-0.4-0.6c3.6-2.8,3.9-6.1,3.9-9.1v-4.8l4.9,1.9h3.8l1.6-1.6
		c-4.2-3.5-7.4-8.2-9.2-14.2l0.7-0.4c1.1,2.5,2.7,4.8,4.8,6.8c1.8-1.9,3.7-4.4,4.7-6l4.8,3.1c-0.3,0.5-0.7,0.7-1.8,0.4
		c-1.6,1.1-4.1,2.4-6.6,3.5c1.4,1.2,3.1,2.4,4.8,3.4c1.7-1.9,3.5-4.3,4.4-5.8L222.2,8.4z"/>
	<path class="st0" d="M229.2,37.9c0-1.9,1.6-3.6,3.6-3.6c2,0,3.6,1.7,3.6,3.6s-1.6,3.5-3.6,3.5C230.8,41.4,229.2,39.8,229.2,37.9z
		 M236.1,8c0,2.2-0.6,6.5-1.6,13.8l-0.9,7.6H232l-0.9-7.6c-1.1-7.2-1.6-11.6-1.6-13.8c0-2.3,1.3-3.5,3.3-3.5
		C234.8,4.5,236.1,5.7,236.1,8z"/>
	<path class="st0" d="M271.2,19.8c-1.7,1.1-3.8,2.4-6.3,3.9v15.6c0,3.2-0.6,5-5.6,5.5c-0.1-1.3-0.3-2.4-0.9-3.1
		c-0.6-0.7-1.6-1.2-3.5-1.5v-0.7c0,0,3.9,0.3,4.8,0.3c0.8,0,1-0.2,1-0.9V26.2c-1.2,0.6-2.4,1.3-3.6,2c-0.2,0.6-0.6,1.1-1.1,1.3
		l-2.1-5.4c1.3-0.3,3.8-1,6.8-1.8v-9.5H255l-0.4-1.4h6V0.2l6,0.6c-0.1,0.7-0.6,1.2-1.8,1.3v9.3h0.6l2.2-3.4c0,0,2.4,2.4,3.7,4
		c-0.1,0.5-0.6,0.8-1.2,0.8h-5.3v8.3c2-0.6,4.1-1.2,6.1-1.9L271.2,19.8z M287.1,25.8C289.9,30.9,295,35,300,37l-0.1,0.4
		c-1.8,0.4-3.1,1.8-3.7,4.1c-4.7-3.3-8.1-8.5-10.1-15.4v17.4c0,0.4-2,1.2-3.6,1.2h-0.8V30.9c-3.4,4.5-8.2,8.1-14.1,10.8l-0.5-0.7
		c5.6-3.8,9.8-9.4,12.3-15.3H270l-0.3-1.4h12v-5.9l6,0.6c-0.1,0.6-0.5,1.1-1.6,1.3v4h6l2.6-3.5c0,0,2.9,2.4,4.8,4.1
		c-0.1,0.5-0.6,0.8-1.3,0.8H287.1z M297.6,4.8c-0.5,0.4-1.4,0.5-2.8-0.1c-6,1.2-15.6,2.2-23.8,2.3l-0.2-0.8
		c7.6-1.2,17.3-3.6,22.2-5.7L297.6,4.8z M272.3,9.1c10.2,4.4,5.6,12,2,8.4c0-2.7-1.2-6-2.5-8.2L272.3,9.1z M280.7,7.6
		c10.1,4.3,5.6,11.9,1.9,8.4c0-2.7-1.2-6-2.4-8.1L280.7,7.6z M288.4,19.7c1.6-3.1,3.5-8.1,4.7-12.6l6,2.2c-0.2,0.6-0.8,1-1.8,0.9
		c-2.4,3.9-5.4,7.6-8.2,10L288.4,19.7z"/>
	<path class="st0" d="M344.9,5c-0.4,0.4-1.2,0.9-2.3,1.1v32.6c0,3.3-0.7,5.2-6.3,5.7c-0.1-1.3-0.4-2.5-1.1-3.2
		c-0.8-0.7-1.9-1.2-4.1-1.6v-0.7c0,0,4.8,0.4,5.9,0.4c0.9,0,1.1-0.4,1.1-1.1V28h-10.8v15c0,0.3-1.4,1.3-3.7,1.3h-0.8V28h-10.4
		c-0.9,6-3.3,12-9.2,16.6l-0.6-0.4c5.3-7.2,5.9-16.4,5.9-25.5V1.9l5.2,1.9h23.9l2.3-2.6L344.9,5z M322.8,26.6V16.5h-9.8v2.1
		c0,2.6,0,5.3-0.4,8H322.8z M312.9,5.2v9.9h9.8V5.2H312.9z M327.2,5.2v9.9h10.8V5.2H327.2z M338.1,26.6V16.5h-10.8v10.1H338.1z"/>
	<path class="st0" d="M15.3,107c3,1,6.6,1.2,11.3,1.2c4.3,0,14.4,0,19-0.1v0.6c-1.7,0.4-2.5,1.9-2.6,3.6H26.5
		c-10.8,0-16.4-2.1-19.7-11.7c-1.1,4.8-2.9,9.6-6.1,13.1L0,113.2c3.2-6.2,4.2-15.8,4-23.3L9.8,91c-0.2,0.7-0.7,1.2-1.8,1.2
		c-0.2,2.1-0.5,4.5-0.9,6.8c1.1,2.6,2.4,4.5,4.1,5.9V87.3l5.7,0.6c-0.1,0.6-0.5,1-1.5,1.2v5.7H17l2.3-3.1c0,0,2.5,2.2,4,3.7
		c-0.1,0.5-0.6,0.8-1.3,0.8h-6.7V107z M10.3,84.8V78H2.6l-0.4-1.4h8v-7.5l6,0.6c0,0.6-0.4,1.1-1.6,1.2v5.7h2l2.4-3.1
		c0,0,2.7,2.1,4.4,3.7c-0.1,0.5-0.6,0.8-1.3,0.8h-7.5v6.8h2.6l2.4-3.3c0,0,2.7,2.1,4.4,3.7c3.3-3.9,4-8.2,4.2-11.9h-6.3L21.5,72
		h17.3l2.3-2.3l4.3,3.5c-0.4,0.4-0.9,0.6-1.9,0.8c-0.3,7.2-1.1,10.9-2.9,12.2c-1.2,0.9-2.8,1.3-4.9,1.3c0-1.2-0.1-2.3-0.8-2.8
		c-0.6-0.6-2.1-1.2-3.7-1.4v-0.7c1.6,0.1,4.3,0.3,5.1,0.3c0.8,0,1.1-0.1,1.4-0.4c0.8-0.7,1.2-3.8,1.5-9.2H33
		c-0.7,5.6-2.9,11.8-12.2,16.2l-0.6-0.7c1.2-0.9,2.2-1.8,3.1-2.7c-0.1,0-0.2,0-0.4,0H1.3L1,84.8H10.3z M37.8,106.1v-3.2h-9.6v2.5
		c0,0.3-1.9,1.3-3.7,1.3h-0.7V88.5l4.6,1.9h8.9l2.3-2.4l4.7,3.6c-0.3,0.3-1,0.8-2,1v12c0,0.4-2.2,1.5-3.7,1.5H37.8z M37.8,101.5
		v-9.6h-9.6v9.6H37.8z"/>
	<path class="st0" d="M63.1,69.8l4.5,3.5c-0.3,0.3-1,0.7-1.8,0.9v33.9c0,3.2-0.6,5.1-5.7,5.5c-0.1-1.3-0.3-2.4-0.9-3.1
		c-0.6-0.7-1.5-1.2-3.4-1.5v-0.7c0,0,3.8,0.3,4.7,0.3c0.8,0,1-0.3,1-1V95.8h-5.9c-0.5,6.3-2.1,12.9-6.5,18l-0.7-0.4
		c3.3-8,3.4-18.2,3.4-27.3V70.2l5,1.9h4.3L63.1,69.8z M61.5,94.4v-9.9H56v1.7c0,2.5,0,5.4-0.2,8.3H61.5z M56,73.5v9.6h5.5v-9.6H56z
		 M92.9,89.3c-0.3,0.4-0.8,0.6-1.8,0.7c-1.1,4.8-2.8,9.4-5.7,13.5c2.5,2.4,5.5,4.1,8.8,5.5l-0.1,0.5c-2,0.2-3.5,1.6-4.3,3.8
		c-2.8-1.9-5.1-4-7-6.6c-2.2,2.3-4.8,4.4-8.1,6.1l-0.4-0.6c2.8-2.2,5.1-4.9,6.9-8c-2.2-3.9-3.7-8.7-4.5-14.9H74v23
		c0,0.4-1.4,1.4-3.6,1.4h-0.7V70.2l4.9,2h11l2.3-2.2l4.3,3.4c-0.3,0.3-0.9,0.6-1.7,0.8c-0.1,5.7-0.5,8.6-2.2,9.8
		c-1.2,0.8-2.8,1.2-4.9,1.2c0-1.2-0.1-2-0.9-2.6c-0.7-0.6-2.3-1.1-4-1.3v-0.7c1.7,0.1,4.7,0.3,5.5,0.3c0.7,0,1-0.1,1.2-0.3
		c0.5-0.5,0.7-2.8,0.8-6.9H74V88h12l2.5-2.4L92.9,89.3z M77.6,89.4c1.1,4.7,2.9,8.5,5.3,11.5c1.7-3.6,2.8-7.6,3.5-11.5H77.6z"/>
	<path class="st0" d="M113.1,69.8l4.5,3.5c-0.4,0.4-0.9,0.8-2,0.9V101c0,0.3-1.6,1.2-3.7,1.2h-0.7v-2.4h-7.7v2.1c0,0,0,0.1,0,0.1
		l5,2.5c-0.2,0.5-0.7,0.8-1.8,0.6c-2.1,2.9-5.7,6.4-9.9,8.5l-0.5-0.6c2.7-2.7,5-7,6.1-10.4c-0.6,0.2-1.5,0.5-2.6,0.5h-0.7V70.4
		l4.9,1.9h6.9L113.1,69.8z M103.4,73.8V81h7.7v-7.2H103.4z M111.1,82.4h-7.7v7.4h7.7V82.4z M111.1,98.6v-7.4h-7.7v7.4H111.1z
		 M108.8,102.3c11.7,3.8,7.4,12.5,3.2,9.1c-0.2-3-2-6.5-3.7-8.8L108.8,102.3z M130.4,82.2v10.5h3.9l2.2-2.4l4.3,3.3
		c-0.3,0.4-0.8,0.7-1.8,0.9v17.8c0,0.2-1.5,1.1-3.7,1.1h-0.8v-3.6h-11.8v2.8c0,0.3-1.3,1.1-3.6,1.1h-0.7V90.7l4.8,1.9h2.5v-23
		l6.3,0.6c-0.1,0.7-0.5,1.2-1.8,1.3v9.2h4.1l2.6-3.6c0,0,2.9,2.5,4.6,4.3c-0.1,0.5-0.6,0.8-1.3,0.8H130.4z M122.8,94v14.2h11.8V94
		H122.8z"/>
	<path class="st0" d="M163.4,74.3c-0.4,0.4-1,0.6-2.2,0.6c-1.6,3-4.6,8.3-6.9,11.3c5.3,3.5,7.4,7.9,7.4,11.8c0,4.7-1.8,7.1-7,7.3
		c0-1.2-0.2-2.9-0.6-3.4c-0.4-0.5-1.3-0.8-2.4-1v-0.7h3.5c0.5,0,0.8-0.1,1.2-0.3c0.8-0.5,1.2-1.4,1.2-3c0-3.5-1.2-7.1-4.4-10.5
		c1-3.1,2.5-8.8,3.4-12.6h-5.7v38.5c0,0.3-1.3,1.5-3.5,1.5h-0.8V70.4l4.9,2h4.8l2.5-2.4L163.4,74.3z M184.9,75c0,0,3,2.4,4.8,4.2
		c-0.1,0.5-0.6,0.8-1.2,0.8h-15.5c-0.1,2.5-0.2,4.9-0.5,7.2h8.2l2.5-2.5l4.5,3.8c-0.3,0.4-1,0.7-2,0.9c-0.5,13-1.7,20.1-4.1,22.3
		c-1.5,1.4-3.5,2-6,2c0-1.4-0.2-2.5-0.9-3.2c-0.8-0.7-2.6-1.3-4.6-1.7l0-0.7c2,0.2,5.3,0.4,6.4,0.4c0.8,0,1.2-0.1,1.7-0.5
		c1.5-1.4,2.4-8.4,2.9-19.4h-8.9c-1.4,10.9-5.1,19.6-16.3,25.3l-0.4-0.5c10.4-8.5,12.3-19.7,12.4-33.4h-7.8l-0.4-1.4h22.5L184.9,75z
		 M169.3,69.3c12,3.2,7.2,12,3,8.2c-0.1-2.6-1.7-5.9-3.5-7.8L169.3,69.3z"/>
	<path class="st0" d="M198.1,84.5c-1.5,1.2-3,2.3-4.7,3.1l-0.5-0.5c3.3-3.3,6.6-8.4,8.1-11.7l4.4,2.3c1.1-2.1,2.1-5.4,2.7-8.5
		l5.2,1.6c-0.2,0.5-0.8,0.9-1.7,0.9c-0.4,0.7-0.9,1.4-1.3,2.1h5.8l2.1-2.7c0,0,2.3,1.9,3.7,3.3c-0.1,0.5-0.6,0.8-1.2,0.8h-4.9v4h1.7
		l1.9-2.6c0,0,2.3,1.9,3.6,3.2c-0.1,0.5-0.6,0.8-1.2,0.8h-6v3.6h1.9l1.7-2.4c0,0,2,1.7,3.1,3c-0.1,0.5-0.6,0.8-1.2,0.8h-5.5v3.7
		c2.2-0.3,4.5-0.7,6.8-1l0.1,0.8c-3.3,1-8.8,2.9-14.9,4.6c-0.3,0.3-0.6,0.5-0.9,0.6l-1.7-3.6c0.8-0.5,1-0.8,1-1.4v-7l4.7,0.5
		c-0.1,0.6-0.5,1-1.5,1.2V90l2.7-0.4v-9.1h-6.8l-0.4-1.4h7.2v-4h-2.8c-1,1.2-2.1,2.3-3.2,3.1l-0.1,0c-0.3,0.3-0.7,0.5-1.7,0.3
		c-0.8,1-1.8,2-2.9,3.1l2.2,0.8c-0.1,0.4-0.7,0.8-1.5,0.9v10.8c0,0.3-1.7,1-3.1,1h-0.7V84.5z M206,72c-0.3,0.5-0.7,0.7-1.8,0.5
		c-2.4,2.2-6.5,4.9-10.5,6.6l-0.5-0.6c3.1-2.5,6.4-6.7,8-9.4L206,72z M193.4,112.1c4.2-2.2,8.8-6,11-8.9l5,3.2
		c-0.3,0.5-0.8,0.7-1.8,0.4c-3.1,2.3-8.6,4.8-13.9,5.9L193.4,112.1z M231.7,97.8c0,0,2.9,2.2,4.8,3.8c-0.1,0.5-0.6,0.8-1.3,0.8h-18
		v10.4c0,0.2-1.4,1-3.7,1h-0.8v-11.4h-18.4l-0.4-1.4h35.2L231.7,97.8z M199,96H225l2.5-3c0,0,2.8,2.1,4.6,3.6
		c-0.1,0.5-0.6,0.8-1.3,0.8h-31.4L199,96z M220.7,104c16,0.7,15.8,9.8,10.9,8.5c-2.4-2.8-7.5-6.2-11.3-8L220.7,104z M237.1,73.6
		c-0.3,0.4-1.1,0.8-2.1,1v11.7c0,2.6-0.5,4.1-4.5,4.5c-0.1-1-0.2-1.9-0.6-2.4c-0.4-0.5-1.2-0.9-2.4-1.1v-0.7c0,0,2.4,0.1,3.1,0.1
		c0.6,0,0.8-0.2,0.8-0.8v-12h-4.7v19.6c0,0.2-1.2,1.2-3.1,1.2h-0.6v-24l4.2,1.8h3.6l1.8-2.2L237.1,73.6z"/>
	<path class="st0" d="M255.7,108.6c0,2.8-0.6,4.5-5.1,4.9c-0.1-1.2-0.3-2.1-0.9-2.6c-0.6-0.6-1.6-1.1-3.4-1.3v-0.7
		c0,0,3.9,0.3,4.7,0.3c0.8,0,1-0.3,1-1V92.4c-0.8,1.2-1.9,2.5-3.1,4.1c0,0.5-0.3,1.2-0.8,1.4l-1.6-3.2c-0.3,6.6-1.5,13.7-5.5,19.2
		l-0.8-0.4c2.9-7.8,2.8-17.7,2.8-26.5V70.3l4.3,1.8h4.2l1.8-2.2l4.2,3.2c-0.3,0.4-1,0.7-1.8,0.9V108.6z M246.7,86.9
		c0,2.1,0,4.3-0.1,6.5c1.2-0.6,3.3-1.6,5.4-2.7v-5.8c-0.4,0.3-1,0.4-1.7,0.2c-0.8-0.8-2.2-1.8-3.6-2.6V86.9z M246.7,73.5V81
		c2.8-0.2,4.5,0.4,5.3,1.3v-8.8H246.7z M280.1,97.4c0,0,2.9,2.3,4.6,3.9c-0.1,0.5-0.5,0.8-1.2,0.8h-12.2c-2.4,5.9-7.2,9.5-15.9,11.8
		l-0.2-0.7c6.4-2.7,9.9-6.3,11.6-11.1h-9.8l-0.4-1.4h10.7c0.4-1.6,0.7-3.2,0.9-5.1h-4.6v1.2c0,0.4-1.9,1.3-3.6,1.3h-0.7V79.8
		l4.5,1.8h13.1l2.2-2.3l4.6,3.5c-0.3,0.4-1,0.8-2,1v12.3c0,0.3-2.2,1.2-3.5,1.2h-0.7v-1.6h-4.5c-0.2,1.9-0.6,3.5-1.2,5.1h5.8
		L280.1,97.4z M261.3,74.5l-0.6-5.2l5.3,0.2c0,0.6-0.4,1.1-1.4,1.4l0.5,3.6h0.2l1.8-2.4c0,0,2.1,1.7,3.4,3c-0.1,0.5-0.5,0.8-1.2,0.8
		h-4l0.5,3.4c-0.5,0.8-2,1.1-3.7,1.1l-0.6-4.5H257l-0.4-1.4H261.3z M263.5,83v4.9h13.9V83H263.5z M263.5,94.2h13.9v-4.9h-13.9V94.2z
		 M282.2,72.1c0,0,2,1.7,3.3,3c-0.1,0.5-0.6,0.8-1.2,0.8H279l-0.7,3.5c-0.8,0.5-2.3,0.7-3.9,0.4l0.7-3.9h-3.8l-0.4-1.4h4.5l0.9-5.1
		l5.3,1.1c-0.2,0.6-0.7,1.1-1.9,1.2l-0.5,2.9h1.2L282.2,72.1z M272.1,104c15.6,1.7,14.3,11.3,9.3,9.3c-1.8-3.1-6.3-6.8-9.6-8.8
		L272.1,104z"/>
	<path class="st0" d="M305.7,87.8c-1.7,1.2-3.7,2.6-6.3,4.4v16c0,3.3-0.6,5.1-5.8,5.6c-0.1-1.3-0.3-2.4-0.9-3.2s-1.6-1.2-3.5-1.5
		v-0.7c0,0,4,0.3,4.9,0.3c0.8,0,1-0.2,1-0.9V95c-1.2,0.8-2.5,1.6-3.9,2.4c-0.1,0.6-0.6,1.2-1,1.3l-2.3-5.4c1.4-0.4,4-1.2,7.2-2.4
		v-9.3H289l-0.4-1.4h6.5V69.2l6.1,0.6c-0.1,0.7-0.6,1.2-1.8,1.3v9.2h0.9l2.2-3.3c0,0,2.6,2.3,4,3.9c-0.1,0.5-0.6,0.8-1.2,0.8h-5.9
		v7.7c2-0.7,4-1.5,6-2.3L305.7,87.8z M331.4,89.5c-0.3,0.5-0.8,0.7-2,0.8c-1.9,4.9-4.6,9.3-8.3,13c3.8,2.7,8.4,4.7,13.1,6l-0.1,0.5
		c-2.1,0.3-3.5,1.7-4.3,3.9c-4.6-1.9-8.5-4.5-11.7-7.8c-4.4,3.5-10.1,6.1-17.2,7.8l-0.4-0.7c6.3-2.4,11.4-5.7,15.4-9.7
		c-2.8-3.7-4.9-8.3-6.3-13.9h-3l-0.4-1.4h9.6v-8.6h-10.1l-0.4-1.3h10.5v-8.6l6.3,0.6c-0.1,0.7-0.5,1.2-1.8,1.4v6.6h5.5l2.7-3.5
		c0,0,3,2.4,4.9,4.1c-0.1,0.5-0.7,0.7-1.3,0.7h-11.8v8.6h3.7l2.8-2.7L331.4,89.5z M310.5,89.4c1.6,4.6,4.3,8.4,7.6,11.4
		c2.7-3.4,4.8-7.2,6-11.4H310.5z"/>
	<path class="st0" d="M347.7,89.1c-0.2,0.4-0.6,0.8-1.5,0.9v22.6c0,0.4-1.9,1.3-3.5,1.3h-0.8V92.5c-1.7,1.8-3.5,3.5-5.4,4.9
		l-0.5-0.5c3.8-4.9,7.3-12.3,8.9-17.1l5.7,3c-0.3,0.5-0.7,0.8-1.9,0.6c-0.9,1.4-2,3.1-3.3,4.8L347.7,89.1z M350.2,72.4
		c-0.3,0.5-0.7,0.7-1.8,0.5c-2.5,3.3-6.8,7.5-11.5,10.3l-0.5-0.5c3.4-3.7,6.7-9.5,8.2-13.3L350.2,72.4z M350.7,86.4l4.8,0.5
		c-0.1,0.6-0.5,1.1-1.6,1.2v4.2c0,4.8-0.9,11.8-5.6,15.9l-0.7-0.6c2.6-4.4,3-10.8,3-15.5V86.4z M360,81.6v30.2
		c0,0.5-1.8,1.5-3.3,1.5H356V81.6h-6.3l-0.4-1.4h6.7V69.5l5.8,0.6c-0.1,0.7-0.5,1.2-1.7,1.3v8.7h2.2l2.3-3c0,0,2.6,2.1,4.2,3.6
		c-0.1,0.5-0.6,0.8-1.2,0.8H360z M362,71c7.4,2.5,4.2,7.7,1.5,5.4c-0.1-1.7-1.1-3.8-2.1-5.1L362,71z M368.6,102.3
		c0.9,0.4,1.2,0.6,1.2,1.3c0,1.2-1.2,1.8-4,1.8h-1.2c-2.3,0-2.6-0.9-2.6-2.8V86.4l4.7,0.5c0,0.6-0.5,1.1-1.3,1.2v13.6
		c0,0.5,0,0.7,0.4,0.7h0.3h0.5c0.1,0,0.4,0,0.5,0c0.2,0,0.6-0.1,0.7-0.1h0.5L368.6,102.3z M377.3,81.6c0,0,2.8,2.3,4.5,3.9
		c-0.1,0.5-0.6,0.8-1.3,0.8h-4.1v21.9c0,3-0.6,5.1-5.4,5.5c0-1.2-0.2-2.3-0.8-2.9s-1.3-1.2-3.2-1.4v-0.7c0,0,3.5,0.2,4.3,0.2
		c0.7,0,0.9-0.3,0.9-0.9V86.3H367l-0.4-1.4h8.2L377.3,81.6z M368.2,75.6l-0.4-1.4h6.2l2.4-3.2c0,0,2.8,2.2,4.5,3.8
		c-0.1,0.5-0.6,0.8-1.3,0.8H368.2z"/>
	<path class="st0" d="M405.8,79.3c-0.3,0.4-1.1,0.8-2,1v28.9c0,0.4-2.2,1.3-3.6,1.3h-0.7v-3.7H391v3.7c0,0.5-1.6,1.5-3.5,1.5h-0.7
		v-36l4.4,2h0.9c0.4-2.5,1-6.2,1.3-8.9l6.6,1.6c-0.2,0.8-0.9,1.1-1.9,1.1c-1.2,1.8-2.8,4.3-4.2,6.2h5l2.2-2.5L405.8,79.3z M391,79.5
		v12h8.5v-12H391z M399.5,105.5V92.9H391v12.6H399.5z M429.2,79.3c-0.4,0.4-1,0.7-2.1,0.9c-0.3,18.6-1.1,28.3-3.6,31.1
		c-1.5,1.8-3.6,2.5-6.4,2.5c0-1.5-0.2-2.6-1-3.3c-0.8-0.8-2.7-1.4-4.9-1.8l0-0.8c2.3,0.2,5.6,0.5,6.8,0.5c1,0,1.3-0.1,1.9-0.6
		c1.8-1.7,2.4-11.8,2.7-28.2h-10.1c-2.2,4-4.8,7.5-7.7,10.1l-0.7-0.4c2.8-4.8,5.6-12.5,7.1-19.8l6.4,1.9c-0.2,0.6-0.8,1-1.8,1
		c-0.7,2.1-1.6,4-2.5,5.9h8.8l2.6-2.7L429.2,79.3z M408.7,87.9c13,4.6,8.7,13.9,4.4,10.2c-0.4-3.3-2.7-7.3-4.8-9.9L408.7,87.9z"/>
	<path class="st0" d="M91.6,181.7c0,0.3-1.4,1.2-3.6,1.2h-0.8v-7.8c-3.5,1.1-7.9,2.4-13.5,4c-0.2,0.6-0.7,0.9-1.2,1.1l-2.3-5.1
		c1.2,0,2.8-0.2,4.8-0.3v-16.3h-4.8l-0.4-1.4h36.1l2.7-3.6c0,0,3.1,2.4,4.9,4.2c-0.1,0.5-0.6,0.8-1.3,0.8H91.6V181.7z M81,154.3
		c0,0.4-2,1.4-3.8,1.4h-0.7v-16.6l4.8,2h20.4l2.3-2.5l4.8,3.6c-0.3,0.4-1,0.8-2,1v10.7c0,0.3-2.3,1.2-3.8,1.2h-0.8v-12.6H81V154.3z
		 M79.3,158.4v4.2h7.9v-4.2H79.3z M79.3,168.3h7.9V164h-7.9V168.3z M79.3,174.3c2.4-0.2,5.1-0.5,7.9-0.8v-3.8h-7.9V174.3z
		 M97.5,149.3c0,0,2,1.5,3.4,2.7c-0.1,0.5-0.6,0.8-1.2,0.8H83.4l-0.4-1.4h12.7L97.5,149.3z M97.5,144.2c0,0,2,1.5,3.4,2.7
		c-0.1,0.5-0.6,0.8-1.2,0.8H83.4l-0.4-1.4h12.7L97.5,144.2z M112,163.7c-0.3,0.5-0.8,0.6-1.8,0.7c-1.2,3.6-3.1,7-5.8,9.9
		c2.9,1.8,6.3,3,10.1,3.8l0,0.5c-1.9,0.4-3.3,1.9-3.9,4c-3.6-1.4-6.7-3.2-9.1-5.6c-2.6,2.2-5.8,3.9-9.6,5.3l-0.4-0.6
		c3.2-1.8,5.9-4.2,8-7c-2.2-2.8-3.7-6.5-4.8-11.1h-2.4l-0.4-1.4h12.9l2.7-2.6L112,163.7z M95.7,163.8c1.3,3.5,3.2,6.3,5.7,8.4
		c1.6-2.6,2.8-5.5,3.6-8.4H95.7z"/>
	<path class="st0" d="M135,163.6c-0.3,0.3-0.9,0.6-1.9,0.8c-0.5,9.1-1.5,14.5-3.6,16.3c-1.3,1.1-3.1,1.6-5.5,1.6
		c0-1.2-0.2-2.2-1-2.8c-0.8-0.7-2.6-1.2-4.6-1.6l0-0.7c2.1,0.1,5.5,0.4,6.5,0.4c0.9,0,1.3-0.1,1.7-0.4c1.2-1,2-5.9,2.4-13.4h-6.4
		l-1.6,1.8l-4-2.6c0.4-0.3,1-0.7,1.6-1c0.4-3.3,0.9-8.6,1-11.6l4.8,2h4.3v-9.6h-10.6l-0.4-1.4h10.5l2.1-2.4l4.6,3.5
		c-0.3,0.4-1.1,0.9-2.1,1.1v11.1c0,0.3-2.1,1.1-3.4,1.1h-0.7v-2.1h-5.4c-0.2,2.5-0.5,6.1-0.9,8.7h6.1l2.3-2.3L135,163.6z
		 M152.8,170.4c12.8,5.8,9.1,14.9,4.8,11.4c-0.2-1.6-0.9-3.4-1.7-5.1c-4.6,1.2-10.6,2.5-18.6,4.2c-0.3,0.6-0.8,1-1.3,1.1l-2.5-5.2
		c2.4,0,6.6-0.3,11.6-0.6V168h-5.2v2.1c0,0.3-1.7,1.2-3.4,1.2h-0.6v-15.9l4.2,1.8h4.9v-6c-2.3,0.5-4.8,0.9-7.2,1.4
		c-0.3,0.5-0.8,0.9-1.2,1l-2.2-5.1c0,0,1-0.2,1.4-0.4c3.4-2,7.8-7.4,9.5-10.3l5.6,3c-0.2,0.4-0.8,0.8-1.8,0.6
		c-2.5,2.4-6.9,5.4-10.8,7.5c3.9-0.1,9.7-0.5,16-0.9c-1.2-1.7-2.7-3.2-4.1-4.3l0.4-0.4c13.3,2.6,10.4,12.2,6,9.3
		c-0.2-1.2-0.8-2.3-1.5-3.5c-1.7,0.4-3.8,0.8-6,1.3v6.7h5l2-2.1l4.3,3.2c-0.3,0.3-0.9,0.7-1.8,0.9v10c0,0.3-2.1,1.1-3.4,1.1h-0.7
		V168h-5.4v7.9l6-0.4c-0.9-1.8-2-3.5-3-4.8L152.8,170.4z M145.1,166.6v-8h-5.2v8H145.1z M149.2,158.6v8h5.4v-8H149.2z"/>
	<path class="st0" d="M171.4,140.8c0,0.6-0.3,1.8-0.5,3.2l-0.3,1.6l1.5-0.8c1.6-0.8,2.7-1.5,3.4-1.5c0.6,0,1,0.5,1,1.1
		c0,1.1-1.2,1.2-4.1,1.6l-1.6,0.2l1.2,1.2c1.5,1.5,2.6,2.2,2.6,3c0,0.6-0.5,1-1,1c-1,0-1.4-1.1-2.5-3.4l-0.7-1.5l-0.7,1.5
		c-1.1,2.3-1.5,3.4-2.5,3.4c-0.6,0-1-0.4-1-1.1c0-0.9,1.1-1.6,2.5-3l1.2-1.1l-1.7-0.2c-2.8-0.3-4.1-0.4-4.1-1.6
		c0-0.6,0.4-1.1,1.1-1.1c0.6,0,1.8,0.7,3.3,1.5l1.4,0.8l-0.3-1.6c-0.3-1.4-0.5-2.7-0.5-3.2c0-0.8,0.5-1.1,1.1-1.1
		C170.9,139.7,171.4,140.1,171.4,140.8z"/>
	<path class="st0" d="M191,161.8v0.9h-11.6v-0.9l4.3-0.6c0-1.7,0.1-3.4,0.1-5v-11.4l-3.9,0.4v-1.1l6.6-1.6l0.4,0.3l-0.1,4.4v8.9
		c0,1.7,0,3.3,0.1,5L191,161.8z"/>
	<path class="st0" d="M229.9,145.1l-4.8,0.7l-0.1,18.5c0,10.8-4.9,15.3-12.6,15.3c-7.8,0-13.1-4.1-13.1-14.4v-5.5
		c0-4.7,0-9.4-0.1-14.1l-4.3-0.5v-1.7h15.3v1.7l-5.1,0.6c-0.1,4.6-0.1,9.3-0.1,14v4.4c0,9,3.3,12,8.8,12c6,0,9.2-3.5,9.1-12.7
		l-0.1-17.6l-5.5-0.7v-1.7h12.7V145.1z"/>
	<path class="st0" d="M265.8,145l-4.4,0.7L250.3,179h-2.7l-12.2-33.5l-3.8-0.4v-1.7h15v1.9l-5.1,0.5l9.1,26.5l8.4-26.4l-5-0.6v-1.9
		h12V145z"/>
	<path class="st0" d="M286.7,143.3c-0.4,0.4-1,0.6-2.2,0.6c-1.6,3-4.6,8.3-6.9,11.3c5.3,3.5,7.4,7.9,7.4,11.8c0,4.7-1.8,7.1-7,7.3
		c0-1.2-0.2-2.9-0.6-3.4c-0.4-0.5-1.3-0.8-2.4-1v-0.7h3.5c0.5,0,0.8-0.1,1.2-0.3c0.8-0.5,1.2-1.4,1.2-3c0-3.5-1.2-7.1-4.4-10.5
		c1-3.1,2.5-8.8,3.4-12.6h-5.7v38.5c0,0.3-1.3,1.5-3.5,1.5h-0.8v-43.4l4.9,2h4.8l2.5-2.4L286.7,143.3z M308.2,144c0,0,3,2.4,4.8,4.2
		c-0.1,0.5-0.6,0.8-1.2,0.8h-15.5c-0.1,2.5-0.2,4.9-0.5,7.2h8.2l2.5-2.5l4.5,3.8c-0.3,0.4-1,0.7-2,0.9c-0.5,13-1.7,20.1-4.1,22.3
		c-1.5,1.4-3.5,2-6,2c0-1.4-0.2-2.5-0.9-3.2c-0.8-0.7-2.6-1.3-4.6-1.7l0-0.7c2,0.2,5.3,0.4,6.4,0.4c0.8,0,1.2-0.1,1.7-0.5
		c1.5-1.4,2.4-8.4,2.9-19.4h-8.9c-1.4,10.9-5.1,19.6-16.3,25.3l-0.4-0.5c10.4-8.5,12.3-19.7,12.4-33.4h-7.8l-0.4-1.4h22.5L308.2,144
		z M292.7,138.3c12,3.2,7.2,12,3,8.2c-0.1-2.6-1.7-5.9-3.5-7.8L292.7,138.3z"/>
	<path class="st0" d="M329.3,174.3c-0.1,0.3-1.8,1.2-3.1,1.2h-0.5v-3.7h-4.2v4.7c0,0.3-1.2,1.2-3.1,1.2h-0.6v-36.3l4.3,1.8h3.1
		l2-2.2l4.2,3.4c-0.3,0.4-1.1,0.8-2,1V174.3z M321.4,144.5v12.1h4.2v-12.1H321.4z M325.6,170.4V158h-4.2v12.3H325.6z M358.3,152.5
		c0,0.2-0.8,0.7-1.6,1c0.7,0.6,2.6,2,3.9,3.1c-0.1,0.5-0.6,0.8-1.2,0.8h-8.7v3.2h3.3l1.9-1.9l4,3c-0.2,0.3-0.9,0.6-1.7,0.8v4.8
		c0,0.3-1.9,1.2-3.1,1.2h-0.6V167h-19c-0.3,5.2-1.7,11.4-6.2,16l-0.5-0.5c3.1-6.2,3.2-13.7,3.2-20v-8.3l4.4,1.8h8.3
		c0-1-0.5-2-1.1-2.9c-0.6,0.3-1.6,0.8-2.4,0.8h-0.5v-7.4h-5.3v6.8c0,0.3-1.4,1-2.7,1h-0.5v-10.6l3.4,1.5h4.8l1.6-1.6l3.4,2.5
		c-0.2,0.3-0.7,0.6-1.3,0.7v5.2c1.4,0.2,2.4,0.7,2.9,1.2v-9.6l3.5,1.5h4.5l1.7-1.7l3.5,2.7c-0.2,0.3-0.8,0.6-1.5,0.7V152.5z
		 M331,142.8l-0.4-1.4h9.2l1.9-2.5c0,0,2.3,1.8,3.6,3.1c-0.1,0.5-0.5,0.8-1.2,0.8H331z M344.1,170.4c0,0,1.8,1.5,2.9,2.7
		c-0.1,0.5-0.6,0.8-1.2,0.8h-5.4v3.8c1.8-0.4,3.9-0.8,6-1.2l0.2,0.7c-1.5,0.9-4.7,2.7-7.9,4.4c-0.3,0.6-0.7,1-1.1,1.2l-2.2-4.3
		c1.2-0.7,1.4-1,1.4-1.8v-9l5.1,0.6c-0.1,0.6-0.5,1-1.5,1.1v3.1h2.1L344.1,170.4z M335.5,162.5c0,1,0,2,0,3.1h4V162h-4V162.5z
		 M335.5,157.4v3.2h4v-3.2H335.5z M336.1,147.8c6.1,1.6,3.6,6.2,1.2,4.3c0-1.3-0.9-3.1-1.8-3.9L336.1,147.8z M347,157.4h-4v3.2h4
		V157.4z M343,165.6h4V162h-4V165.6z M346.2,142.8l-0.4-1.4h8.5l2.1-2.6c0,0,2.4,1.9,3.8,3.3c-0.1,0.5-0.6,0.8-1.2,0.8H346.2z
		 M354,156l1.9-2.4c-0.1,0-0.3,0-0.5,0H355v-7.2h-5v6.4c0,0.3-1.4,1-2.8,1c0.4,0.8,0.2,1.6-0.3,2.2H354z M358.6,177.9
		c1,0.4,1.2,0.8,1.2,1.5c0,1.5-1.4,2.2-6.1,2.2h-2.8c-3.1,0-3.6-0.9-3.6-3.2v-10.7l5,0.5c-0.1,0.6-0.5,1-1.4,1.2v3.1h2.4l1.8-2.4
		c0,0,2.1,1.7,3.3,3.1c-0.1,0.5-0.6,0.8-1.2,0.8H351v3.7c0,0.5,0.1,0.7,1,0.7h2c0.8,0,1.6,0,1.9,0c0.3,0,0.6,0,0.8-0.3
		c0.3-0.5,0.8-2,1.2-3.6h0.6L358.6,177.9z M350.4,147.8c6.1,1.6,3.6,6.2,1.2,4.3c0-1.4-0.8-3.1-1.8-4L350.4,147.8z M350.6,162v3.6
		h3.7V162H350.6z"/>
</g>
</svg>
