<?xml version="1.0" encoding="utf-8"?>
<!-- Generator: Adobe Illustrator 26.0.3, SVG Export Plug-In . SVG Version: 6.00 Build 0)  -->
<svg version="1.1" id="head-about.svg" xmlns="http://www.w3.org/2000/svg" xmlns:xlink="http://www.w3.org/1999/xlink" x="0px"
	 y="0px" viewBox="0 0 939.5 40.2" style="enable-background:new 0 0 939.5 40.2;" xml:space="preserve">
<style type="text/css">
	.st0{fill:#FFFFFF;}
</style>
<g>
	<path class="st0" d="M12.3,23.5v15.5c0,0.3-1.2,1-3.2,1H8.4V27.6c-0.2,0-0.5,0-0.9,0c-1.4,3-3.8,6.8-7,9.4L0,36.5
		c2.1-3.3,3.6-8.3,4.1-11.7l4.2,1.8v-3.2H1l-0.3-1.2h7.7v-5.1h-8L0,15.9h11.5c0.8-2.5,1.7-5.7,2.1-8.1H4.2c8.1,4.1,4.4,10,1.6,7.1
		c0-2.3-1.2-5.1-2.1-7l0.4-0.2H1L0.6,6.5h9.8c-0.4-0.1-0.9-0.3-1.3-0.6C8.9,4,7.7,1.8,6.5,0.4L7,0.1c7.4,1.5,6.6,6,4.1,6.4h3.4
		l2.1-2.7c0,0,2.3,1.9,3.8,3.3c-0.1,0.5-0.6,0.7-1.2,0.7h-5.2l4.7,1.5c-0.2,0.5-0.7,0.9-1.6,0.8c-1.1,1.7-2.8,3.9-4.6,5.8h3.2
		l2.1-2.9c0,0,2.5,2,3.9,3.4c-0.1,0.5-0.5,0.7-1.1,0.7h-8.4v5.1h2.9l2-2.7c0,0,2.3,1.9,3.7,3.2c-0.1,0.5-0.5,0.7-1.1,0.7H12.3z
		 M13.3,25.4c8.8,4.2,5.3,10.9,2.2,8c0-2.6-1.3-5.7-2.6-7.7L13.3,25.4z M35.8,12c0,0,2.7,2.3,4.4,3.8c-0.1,0.5-0.6,0.7-1.2,0.7h-4.2
		v22.3c0,0.3-1.3,1.2-3.3,1.2h-0.7V16.5h-5.1V18c0,7.4-0.7,16.2-9.2,21.9l-0.6-0.5c5.2-6.1,5.8-13.8,5.8-21.5V3.7l4.3,1.5
		c3.2-1.5,6.7-3.5,8.6-4.9l4.4,3.5C38.8,4.3,38,4.4,36.8,4c-2.8,0.9-7,1.9-11,2.4v8.9h7.6L35.8,12z"/>
	<path class="st0" d="M52.2,15v23.5c0,0.5-1.4,1.5-3.2,1.5h-0.7V1.5l4.1,1.8h6.8l1.8-2l3.9,2.9c-0.3,0.3-0.8,0.6-1.6,0.8v10.6
		c0,0.3-1.9,1.2-3.2,1.2h-0.6V15H52.2z M52.2,4.6v3.9h7.3V4.6H52.2z M59.6,13.8V9.7h-7.3v4.1H59.6z M71.5,27.9v9.2
		c0,0.2-1.2,0.9-2.9,0.9h-0.6V27.9h-4.7c-0.4,3.7-2.1,7.8-8.2,10.5l-0.4-0.5c3.8-2.9,4.9-6.5,5.2-10h-5.3l-0.3-1.2h5.7
		c0-0.5,0-1,0-1.5v-4.7h-4.4l-0.3-1.2h16l2.1-2.6c0,0,2.3,1.8,3.7,3.2c-0.1,0.5-0.5,0.7-1.1,0.7h-4.3v6.1h0.7l2-2.6
		c0,0,2.2,1.8,3.6,3.2c-0.1,0.5-0.6,0.7-1.2,0.7H71.5z M67.9,26.7v-6.1h-4.5v4.7c0,0.5,0,0.9,0,1.5H67.9z M85.2,4.4
		c-0.3,0.3-1,0.7-1.8,0.9V35c0,2.9-0.6,4.5-5.1,5c-0.1-1.2-0.3-2.3-0.7-2.8c-0.6-0.6-1.3-1.1-3-1.4v-0.6c0,0,3.3,0.2,4,0.2
		s0.9-0.3,0.9-0.8V15h-7.6v0.5c0,0.3-1.7,1.2-3.2,1.2h-0.6v-15l4,1.7h7l1.9-2.3L85.2,4.4z M71.7,4.6v3.9h7.6V4.6H71.7z M79.4,13.8
		V9.7h-7.6v4.1H79.4z"/>
	<path class="st0" d="M109.7,28.1c-0.3,0.3-0.8,0.6-1.7,0.6c-0.4,5.8-1.3,9.1-3,10.3c-1.1,0.8-2.6,1.2-4.4,1.2c0-1-0.1-2-0.8-2.4
		c-0.6-0.6-2.1-1-3.6-1.3v-0.6c1.6,0.1,4.3,0.3,5.1,0.3c0.6,0,1-0.1,1.3-0.3c0.7-0.6,1.3-3.2,1.7-7.6H99L97.5,30l-3.5-2.6
		c0.5-0.3,1.1-0.6,1.8-0.9c0.4-2.1,0.9-5.3,1-7.1l4.1,1.8h3.2v-5.4h-4.9c-2.2,1.2-4.6,2.3-7.3,3l-0.3-0.6c3.5-1.7,6.6-4,9.1-6.7
		c-0.6,0.2-1.3,0.2-2.1-0.3c-0.3-1.7-2-3.7-3.5-4.7l0.3-0.3c5.5,0,6.9,2.3,6.5,4c1.5-1.8,2.8-3.8,3.8-5.8H94.6l-0.4-1.2h11.5
		l2.3-2.2l3.9,3.4c-0.3,0.4-0.7,0.5-1.8,0.6c-2,3.7-5,6.9-9.1,9.6h3.5l1.6-1.8l3.1,3c-0.3,0.3-0.9,0.6-1.5,0.7v6.6
		c-0.1,0.1-1.6,0.8-3,0.8H104v-1.4h-4.3c-0.2,1.4-0.5,3.1-0.8,4.5h5.1l1.9-1.9L109.7,28.1z M130.8,7.6c-0.3,0.4-0.6,0.6-1.6,0.3
		c-1.4,0.9-3.4,1.9-5.3,2.7c2.6,1.4,5.5,2.4,8.3,3.2l-0.1,0.5c-1.7,0.3-2.9,1.6-3.5,3.5c-1.4-0.6-2.6-1.3-3.9-2
		c-0.3,0.2-0.7,0.3-1.2,0.3v4.3c0,0.4,0.1,0.5,0.6,0.5h1c0.3,0,0.7,0,0.9,0h0.6c0.2,0,0.6-0.1,0.8-0.2h0.4l0.2,0
		c0.9,0.4,1.3,0.7,1.3,1.3c0,1.4-1.3,1.8-4.8,1.8h-0.5l3.8,3.3c-0.3,0.4-0.8,0.5-1.7,0.6c-1,1.7-2.3,3.2-3.9,4.6
		c6.9,3.8,5.9,8.1,2.5,7c-1.2-1.4-3.2-3.1-5.3-4.7c-3.3,2.3-7.4,4.1-12.2,5.3l-0.3-0.6c3.9-1.5,7.3-3.8,10.1-6.4
		c-2.1-1.3-4.1-2.6-5.9-3.5l0.3-0.5c2.9,0.6,5.5,1.3,7.5,2.1c1-1.2,1.8-2.4,2.5-3.7h-11.2l-0.4-1.2h11.7l2.3-2.1h-1.1
		c-2.6,0-2.9-0.9-2.9-2.9v-5.3h-4.4v1.4c0,2.6-0.7,6.4-6.9,8.6l-0.3-0.5c3.2-2.5,3.5-5.5,3.5-8.1v-4.3l4.4,1.7h3.4l1.4-1.5
		c-3.7-3.1-6.6-7.3-8.2-12.6l0.6-0.3c1,2.3,2.4,4.3,4.3,6c1.6-1.7,3.3-3.9,4.1-5.4l4.2,2.7c-0.3,0.4-0.6,0.6-1.6,0.3
		c-1.5,1-3.7,2.2-5.9,3.1c1.3,1.1,2.7,2.1,4.2,3c1.5-1.7,3.1-3.8,3.9-5.2L130.8,7.6z"/>
	<path class="st0" d="M140.3,33.8c0-1.7,1.4-3.2,3.2-3.2c1.8,0,3.2,1.5,3.2,3.2s-1.4,3.1-3.2,3.1C141.7,37,140.3,35.5,140.3,33.8z
		 M146.3,7.3c0,2-0.5,5.8-1.5,12.3l-0.8,6.8h-1.4l-0.8-6.8c-0.9-6.5-1.5-10.3-1.5-12.3c0-2.1,1.2-3.1,2.9-3.1
		C145.2,4.1,146.3,5.2,146.3,7.3z"/>
	<path class="st0" d="M170,17.7c-1.5,0.9-3.4,2.1-5.6,3.5v13.8c0,2.9-0.6,4.5-5,4.9c-0.1-1.2-0.3-2.1-0.8-2.7
		c-0.6-0.6-1.4-1.1-3.1-1.3v-0.6c0,0,3.5,0.3,4.3,0.3c0.7,0,0.9-0.2,0.9-0.8V23.4c-1,0.6-2.1,1.2-3.2,1.8c-0.2,0.6-0.5,1-1,1.2
		l-1.8-4.8c1.2-0.3,3.4-0.9,6-1.6v-8.5h-5l-0.3-1.2h5.4v-10l5.3,0.6c-0.1,0.6-0.6,1-1.6,1.2v8.2h0.6l2-3c0,0,2.1,2.1,3.3,3.6
		c-0.1,0.5-0.5,0.7-1.1,0.7h-4.7v7.4c1.8-0.5,3.6-1.1,5.5-1.7L170,17.7z M184.1,23.1c2.5,4.6,7,8.2,11.5,10l-0.1,0.4
		c-1.6,0.4-2.7,1.6-3.3,3.6c-4.2-2.9-7.2-7.6-9-13.7v15.5c0,0.4-1.8,1.1-3.2,1.1h-0.7V27.6c-3,4-7.3,7.2-12.5,9.6l-0.4-0.6
		c5-3.4,8.8-8.4,10.9-13.6h-8.4l-0.3-1.2h10.7v-5.3l5.4,0.5c-0.1,0.6-0.4,1-1.5,1.2v3.6h5.3l2.3-3.1c0,0,2.6,2.1,4.2,3.6
		c-0.1,0.5-0.6,0.7-1.2,0.7H184.1z M193.5,4.4c-0.4,0.4-1.3,0.4-2.5-0.1c-5.3,1-13.9,1.9-21.1,2.1l-0.2-0.7c6.8-1,15.4-3.2,19.7-5.1
		L193.5,4.4z M170.9,8.2c9.1,3.9,5,10.6,1.8,7.5c0-2.4-1.1-5.3-2.2-7.3L170.9,8.2z M178.4,6.9c9,3.8,5,10.6,1.7,7.4
		c0-2.4-1.1-5.3-2.2-7.2L178.4,6.9z M185.3,17.7c1.5-2.7,3.1-7.2,4.2-11.2l5.3,1.9c-0.2,0.5-0.7,0.9-1.6,0.8
		c-2.1,3.5-4.8,6.8-7.3,8.9L185.3,17.7z"/>
	<path class="st0" d="M238.8,4.6c-0.3,0.4-1,0.8-2,1v29c0,2.9-0.6,4.6-5.6,5c-0.1-1.2-0.4-2.2-0.9-2.8c-0.7-0.6-1.7-1.1-3.7-1.4
		v-0.6c0,0,4.3,0.3,5.2,0.3c0.8,0,1-0.3,1-0.9V25H223v13.3c0,0.3-1.2,1.2-3.3,1.2h-0.7V25h-9.3c-0.8,5.4-2.9,10.7-8.2,14.7l-0.6-0.4
		c4.7-6.4,5.3-14.6,5.3-22.7V1.8l4.7,1.7h21.3l2-2.3L238.8,4.6z M219.1,23.8v-9h-8.8v1.9c0,2.3,0,4.7-0.3,7.1H219.1z M210.3,4.7v8.8
		h8.8V4.7H210.3z M223,4.7v8.8h9.7V4.7H223z M232.7,23.8v-9H223v9H232.7z"/>
	<path class="st0" d="M260.2,34c2.6,0.9,5.9,1,10,1c3.8,0,12.9,0,16.9-0.1v0.6c-1.5,0.3-2.3,1.7-2.3,3.2h-14.7
		c-9.6,0-14.6-1.8-17.6-10.4c-0.9,4.3-2.6,8.5-5.5,11.6l-0.5-0.4c2.8-5.5,3.7-14.1,3.6-20.8l5.1,1c-0.2,0.6-0.6,1-1.6,1.1
		c-0.2,1.9-0.4,4-0.8,6c1,2.3,2.2,4,3.7,5.3V16.4l5,0.6c-0.1,0.5-0.4,0.9-1.4,1v5.1h1.5l2-2.8c0,0,2.3,2,3.6,3.3
		c-0.1,0.5-0.6,0.7-1.2,0.7h-5.9V34z M255.7,14.2v-6h-6.8l-0.3-1.2h7.1V0.3l5.3,0.5c0,0.6-0.4,0.9-1.4,1.1v5h1.8l2.1-2.7
		c0,0,2.4,1.9,3.9,3.3c-0.1,0.5-0.6,0.7-1.2,0.7h-6.7v6h2.3l2.1-2.9c0,0,2.4,1.9,3.9,3.3c2.9-3.5,3.5-7.3,3.8-10.6h-5.6l-0.4-1.2
		h15.4l2.1-2l3.8,3.1c-0.3,0.3-0.8,0.6-1.7,0.7c-0.3,6.4-0.9,9.7-2.6,10.9c-1.1,0.8-2.5,1.2-4.4,1.2c0-1.1-0.1-2.1-0.7-2.5
		c-0.6-0.6-1.9-1-3.3-1.3v-0.6c1.4,0.1,3.8,0.3,4.6,0.3c0.7,0,1-0.1,1.3-0.3c0.7-0.6,1.1-3.4,1.4-8.2h-5.5
		c-0.6,5-2.6,10.5-10.9,14.4l-0.6-0.6c1.1-0.8,2-1.6,2.8-2.4c-0.1,0-0.2,0-0.3,0h-19.2l-0.3-1.2H255.7z M280.2,33.1v-2.9h-8.6v2.3
		c0,0.3-1.7,1.2-3.3,1.2h-0.6V17.5l4.1,1.7h7.9l2-2.1l4.1,3.2c-0.3,0.3-0.9,0.7-1.8,0.9v10.7c0,0.4-1.9,1.3-3.3,1.3H280.2z
		 M280.2,29v-8.6h-8.6V29H280.2z"/>
	<path class="st0" d="M305.9,0.8l4,3.1c-0.3,0.3-0.9,0.6-1.6,0.8v30.2c0,2.9-0.6,4.5-5,4.9c-0.1-1.2-0.3-2.2-0.8-2.7
		c-0.5-0.6-1.4-1.1-3-1.4v-0.6c0,0,3.4,0.3,4.1,0.3s0.9-0.3,0.9-0.9V24h-5.2c-0.5,5.6-1.9,11.5-5.8,16l-0.6-0.3
		c2.9-7.1,3-16.2,3-24.3V1.2l4.4,1.7h3.8L305.9,0.8z M304.5,22.8v-8.8h-4.9v1.5c0,2.3,0,4.8-0.2,7.3H304.5z M299.6,4.1v8.5h4.9V4.1
		H299.6z M332.4,18.2c-0.3,0.4-0.7,0.5-1.6,0.6c-0.9,4.2-2.5,8.4-5.1,12c2.3,2.1,4.9,3.7,7.9,4.9l-0.1,0.5c-1.8,0.2-3.1,1.5-3.8,3.4
		c-2.5-1.7-4.6-3.5-6.2-5.9c-2,2.1-4.3,3.9-7.2,5.4l-0.4-0.6c2.5-2,4.5-4.4,6.2-7.1c-2-3.5-3.3-7.8-4-13.2h-2.4v20.5
		c0,0.3-1.2,1.3-3.2,1.3h-0.6V1.2l4.4,1.8h9.8l2-2l3.8,3c-0.3,0.3-0.8,0.6-1.5,0.7c-0.1,5-0.5,7.6-1.9,8.7c-1,0.7-2.5,1-4.4,1
		c0-1-0.1-1.8-0.8-2.3c-0.6-0.6-2.1-0.9-3.5-1.2v-0.6c1.5,0.1,4.1,0.3,4.9,0.3c0.6,0,0.9-0.1,1.1-0.3c0.5-0.4,0.6-2.5,0.7-6.1h-10.8
		V17h10.7l2.2-2.2L332.4,18.2z M318.8,18.3c0.9,4.2,2.6,7.6,4.7,10.3c1.5-3.2,2.5-6.8,3.1-10.3H318.8z"/>
	<path class="st0" d="M353.6,0.8l4,3.1c-0.3,0.4-0.8,0.7-1.8,0.8v23.9c0,0.3-1.4,1.1-3.3,1.1h-0.6v-2.1H345v1.8c0,0,0,0.1,0,0.1
		l4.5,2.2c-0.2,0.4-0.6,0.7-1.6,0.6c-1.9,2.6-5.1,5.7-8.8,7.6l-0.4-0.5c2.4-2.4,4.4-6.2,5.5-9.2c-0.6,0.2-1.3,0.4-2.3,0.4h-0.6V1.4
		l4.4,1.7h6.1L353.6,0.8z M345,4.4v6.5h6.8V4.4H345z M351.9,12H345v6.6h6.8V12z M351.9,26.4v-6.6H345v6.6H351.9z M349.8,29.7
		c10.4,3.4,6.6,11.2,2.9,8.1c-0.2-2.7-1.8-5.8-3.3-7.8L349.8,29.7z M369,11.8v9.3h3.5l1.9-2.2l3.8,2.9c-0.3,0.4-0.7,0.6-1.6,0.8
		v15.8c0,0.2-1.3,0.9-3.3,0.9h-0.7v-3.2h-10.5v2.5c0,0.3-1.2,1-3.2,1h-0.6V19.5l4.3,1.7h2.3V0.7l5.6,0.5c-0.1,0.6-0.5,1-1.6,1.2v8.2
		h3.6l2.3-3.2c0,0,2.6,2.2,4.1,3.8c-0.1,0.5-0.5,0.7-1.2,0.7H369z M362.2,22.4V35h10.5V22.4H362.2z"/>
	<path class="st0" d="M401.6,4.9c-0.3,0.4-0.9,0.5-1.9,0.6c-1.4,2.6-4.1,7.4-6.2,10c4.7,3.1,6.6,7,6.6,10.5c0,4.2-1.6,6.3-6.2,6.5
		c0-1.1-0.2-2.6-0.6-3c-0.3-0.4-1.2-0.7-2.2-0.9v-0.6h3.1c0.5,0,0.7-0.1,1-0.3c0.7-0.4,1-1.2,1-2.7c0-3.1-1-6.3-3.9-9.4
		c0.9-2.7,2.3-7.8,3-11.2h-5v34.3c0,0.3-1.2,1.3-3.1,1.3h-0.7V1.4l4.4,1.8h4.3l2.2-2.2L401.6,4.9z M420.7,5.4c0,0,2.7,2.1,4.2,3.7
		c-0.1,0.5-0.5,0.7-1.1,0.7h-13.8c-0.1,2.2-0.2,4.4-0.4,6.4h7.3l2.2-2.3l4,3.4c-0.3,0.4-0.9,0.6-1.8,0.8
		c-0.5,11.6-1.5,17.9-3.7,19.9c-1.3,1.2-3.1,1.8-5.3,1.8c0-1.2-0.2-2.3-0.8-2.8c-0.7-0.6-2.3-1.2-4.1-1.5l0-0.6
		c1.8,0.2,4.7,0.4,5.7,0.4c0.7,0,1.1-0.1,1.5-0.5c1.4-1.2,2.1-7.5,2.6-17.3h-7.9c-1.2,9.7-4.6,17.4-14.5,22.5l-0.3-0.5
		c9.3-7.6,10.9-17.5,11-29.7h-6.9l-0.3-1.2h20L420.7,5.4z M406.9,0.4c10.7,2.8,6.4,10.6,2.6,7.3c-0.1-2.3-1.5-5.2-3.1-7L406.9,0.4z"
		/>
	<path class="st0" d="M435.7,13.9c-1.3,1-2.7,2-4.1,2.8l-0.5-0.5c2.9-2.9,5.9-7.4,7.2-10.4l3.9,2.1c1-1.9,1.9-4.8,2.4-7.6l4.6,1.5
		c-0.2,0.4-0.7,0.8-1.5,0.8c-0.3,0.6-0.8,1.3-1.2,1.9h5.2l1.8-2.4c0,0,2.1,1.7,3.3,2.9c-0.1,0.5-0.5,0.7-1.1,0.7h-4.4v3.5h1.5
		l1.7-2.3c0,0,2,1.7,3.2,2.9c-0.1,0.5-0.5,0.7-1.1,0.7h-5.3v3.2h1.7l1.5-2.1c0,0,1.8,1.5,2.8,2.6c-0.1,0.5-0.5,0.7-1.1,0.7h-4.9v3.3
		c1.9-0.3,4-0.6,6.1-0.9l0.1,0.7c-2.9,0.9-7.8,2.6-13.2,4.1c-0.3,0.3-0.5,0.4-0.8,0.6l-1.5-3.2c0.7-0.4,0.9-0.7,0.9-1.3v-6.2
		l4.1,0.4c-0.1,0.6-0.5,0.9-1.3,1v5.5l2.4-0.3v-8.1H442l-0.3-1.2h6.4V5.6h-2.5c-0.9,1.1-1.9,2.1-2.9,2.8l-0.1,0
		c-0.3,0.3-0.6,0.4-1.5,0.3c-0.7,0.9-1.6,1.8-2.6,2.7l1.9,0.7c-0.1,0.4-0.6,0.7-1.3,0.8v9.6c0,0.3-1.5,0.9-2.8,0.9h-0.6V13.9z
		 M442.7,2.8c-0.3,0.4-0.6,0.6-1.6,0.4c-2.2,2-5.8,4.4-9.4,5.9l-0.5-0.5c2.8-2.3,5.7-5.9,7.1-8.4L442.7,2.8z M431.5,38.5
		c3.8-2,7.9-5.3,9.8-7.9l4.5,2.9c-0.3,0.4-0.7,0.6-1.6,0.4c-2.8,2.1-7.6,4.2-12.3,5.3L431.5,38.5z M465.6,25.7c0,0,2.6,1.9,4.3,3.4
		c-0.1,0.5-0.6,0.7-1.2,0.7h-16V39c0,0.2-1.3,0.9-3.3,0.9h-0.7V29.8h-16.4l-0.3-1.2h31.3L465.6,25.7z M436.5,24.1h23.2l2.2-2.6
		c0,0,2.5,1.8,4.1,3.2c-0.1,0.5-0.6,0.7-1.2,0.7h-28L436.5,24.1z M455.8,31.3c14.3,0.6,14.1,8.7,9.7,7.6c-2.1-2.5-6.7-5.6-10.1-7.1
		L455.8,31.3z M470.4,4.2c-0.3,0.3-1,0.7-1.8,0.9v10.4c0,2.3-0.4,3.7-4,4c-0.1-0.9-0.2-1.7-0.6-2.1c-0.4-0.5-1-0.8-2.2-1v-0.6
		c0,0,2.1,0.1,2.8,0.1c0.6,0,0.7-0.2,0.7-0.7V4.4h-4.1v17.5c0,0.2-1.1,1.1-2.7,1.1H458V1.6l3.8,1.6h3.2l1.6-1.9L470.4,4.2z"/>
	<path class="st0" d="M490.2,35.3c0,2.5-0.5,4-4.6,4.4c-0.1-1-0.3-1.9-0.8-2.3c-0.6-0.5-1.4-0.9-3-1.2v-0.6c0,0,3.5,0.3,4.2,0.3
		s0.9-0.3,0.9-0.9V20.9c-0.7,1-1.7,2.3-2.7,3.6c0,0.5-0.3,1-0.7,1.2l-1.4-2.9c-0.3,5.9-1.4,12.2-4.9,17l-0.7-0.3
		c2.6-7,2.5-15.7,2.5-23.6V1.3l3.8,1.6h3.8l1.6-1.9l3.7,2.9c-0.3,0.3-0.9,0.6-1.6,0.8V35.3z M482.2,16c0,1.8,0,3.8-0.1,5.8
		c1.1-0.6,2.9-1.4,4.8-2.4v-5.1c-0.3,0.3-0.9,0.4-1.5,0.2c-0.7-0.7-2-1.6-3.2-2.3V16z M482.2,4.1v6.7c2.5-0.2,4,0.4,4.7,1.2V4.1
		H482.2z M511.9,25.4c0,0,2.6,2,4.1,3.5c-0.1,0.5-0.5,0.7-1.1,0.7H504c-2.2,5.2-6.5,8.5-14.1,10.5l-0.2-0.6
		c5.7-2.4,8.8-5.6,10.3-9.9h-8.7l-0.3-1.2h9.5c0.4-1.4,0.6-2.9,0.8-4.5h-4.1v1.1c0,0.4-1.7,1.2-3.2,1.2h-0.6V9.7l4,1.6H509l1.9-2.1
		l4.1,3.1c-0.3,0.3-0.9,0.7-1.8,0.9v11c0,0.3-1.9,1-3.1,1h-0.6v-1.5h-4c-0.2,1.7-0.6,3.1-1,4.5h5.2L511.9,25.4z M495.1,5l-0.6-4.6
		l4.7,0.2c0,0.5-0.3,1-1.2,1.2l0.4,3.2h0.2l1.6-2.1c0,0,1.9,1.5,3,2.6c-0.1,0.5-0.5,0.7-1.1,0.7h-3.5l0.4,3c-0.5,0.7-1.8,1-3.3,1
		l-0.5-4h-4L491,5H495.1z M497.1,12.6V17h12.3v-4.4H497.1z M497.1,22.6h12.3v-4.4h-12.3V22.6z M513.8,2.9c0,0,1.8,1.5,2.9,2.6
		c-0.1,0.5-0.5,0.7-1,0.7h-4.7l-0.6,3.1c-0.7,0.5-2,0.6-3.5,0.3l0.6-3.5h-3.4L503.8,5h4l0.8-4.6l4.7,0.9c-0.2,0.6-0.6,1-1.7,1
		L511.2,5h1L513.8,2.9z M504.7,31.3c13.8,1.5,12.7,10.1,8.2,8.3c-1.6-2.7-5.6-6.1-8.6-7.9L504.7,31.3z"/>
	<path class="st0" d="M537.9,16.9c-1.5,1-3.3,2.3-5.6,3.9V35c0,2.9-0.6,4.5-5.1,5c-0.1-1.2-0.3-2.2-0.8-2.8
		c-0.6-0.6-1.4-1.1-3.1-1.3v-0.6c0,0,3.5,0.3,4.4,0.3c0.7,0,0.9-0.2,0.9-0.8V23.3c-1.1,0.7-2.2,1.4-3.5,2.2c-0.1,0.6-0.5,1-0.9,1.2
		l-2-4.8c1.3-0.3,3.6-1.1,6.4-2.1v-8.2H523l-0.3-1.2h5.8v-10l5.4,0.6c-0.1,0.6-0.5,1-1.6,1.2v8.2h0.8l2-2.9c0,0,2.3,2,3.6,3.5
		c-0.1,0.5-0.5,0.7-1.1,0.7h-5.3v6.9c1.8-0.6,3.6-1.3,5.4-2L537.9,16.9z M560.8,18.4c-0.3,0.5-0.7,0.6-1.8,0.7
		c-1.7,4.4-4.1,8.2-7.4,11.5c3.4,2.4,7.4,4.1,11.7,5.3l-0.1,0.5c-1.8,0.3-3.1,1.5-3.8,3.5c-4.1-1.7-7.6-4-10.4-6.9
		c-3.9,3.1-9,5.5-15.3,7l-0.3-0.6c5.6-2.1,10.2-5,13.7-8.6c-2.5-3.3-4.4-7.4-5.6-12.4h-2.6l-0.4-1.2h8.5V9.4h-9l-0.3-1.2h9.3V0.6
		l5.6,0.5c-0.1,0.6-0.5,1-1.6,1.2v5.9h4.9l2.4-3.1c0,0,2.7,2.2,4.4,3.7c-0.1,0.4-0.6,0.6-1.2,0.6h-10.5v7.6h3.3l2.5-2.4L560.8,18.4z
		 M542.1,18.3c1.5,4.1,3.8,7.4,6.8,10.2c2.4-3,4.2-6.5,5.4-10.2H542.1z"/>
	<path class="st0" d="M578.5,18c-0.2,0.4-0.6,0.7-1.4,0.8v20.1c0,0.3-1.7,1.2-3.1,1.2h-0.7V21c-1.5,1.6-3.1,3.1-4.8,4.4L568,25
		c3.4-4.4,6.5-10.9,7.9-15.3l5.1,2.7c-0.3,0.5-0.6,0.7-1.7,0.5c-0.8,1.3-1.8,2.8-2.9,4.3L578.5,18z M580.7,3.1
		c-0.3,0.4-0.6,0.6-1.6,0.5c-2.3,2.9-6.1,6.7-10.2,9.2l-0.4-0.5c3-3.3,6-8.5,7.3-11.9L580.7,3.1z M581.1,15.6l4.3,0.5
		c-0.1,0.5-0.4,0.9-1.5,1.1v3.8c0,4.3-0.8,10.5-5,14.2l-0.6-0.5c2.3-3.9,2.7-9.6,2.7-13.8V15.6z M589.5,11.3v26.9
		c0,0.4-1.6,1.3-2.9,1.3h-0.7V11.3h-5.6l-0.3-1.2h5.9V0.6l5.1,0.6c-0.1,0.6-0.4,1-1.5,1.2v7.7h1.9l2-2.6c0,0,2.3,1.8,3.7,3.2
		c-0.1,0.5-0.5,0.7-1.1,0.7H589.5z M591.2,1.9c6.6,2.2,3.7,6.8,1.3,4.8c-0.1-1.5-1-3.4-1.8-4.5L591.2,1.9z M597.1,29.7
		c0.8,0.3,1.1,0.6,1.1,1.2c0,1.1-1.1,1.6-3.5,1.6h-1c-2.1,0-2.3-0.8-2.3-2.5V15.6l4.2,0.5c0,0.6-0.4,0.9-1.2,1.1v12.1
		c0,0.5,0,0.6,0.3,0.6h0.3h0.4c0.1,0,0.3,0,0.5,0c0.2,0,0.5-0.1,0.6-0.1h0.4L597.1,29.7z M604.9,11.4c0,0,2.5,2.1,4,3.5
		c-0.1,0.5-0.5,0.7-1.2,0.7H604v19.5c0,2.7-0.6,4.5-4.8,4.9c0-1.1-0.2-2.1-0.7-2.6s-1.2-1-2.9-1.2v-0.6c0,0,3.1,0.2,3.8,0.2
		c0.6,0,0.8-0.3,0.8-0.8V15.6h-4.7l-0.3-1.2h7.3L604.9,11.4z M596.7,6l-0.3-1.2h5.5L604,2c0,0,2.5,2,4,3.4c-0.1,0.5-0.6,0.7-1.2,0.7
		H596.7z"/>
	<path class="st0" d="M633.4,9.3c-0.3,0.3-0.9,0.7-1.8,0.9v25.8c0,0.3-1.9,1.2-3.2,1.2h-0.6v-3.3h-7.6v3.3c0,0.4-1.5,1.4-3.1,1.4
		h-0.6v-32l3.9,1.8h0.8c0.4-2.3,0.9-5.6,1.2-7.9l5.9,1.4c-0.2,0.7-0.8,1-1.7,1c-1,1.6-2.5,3.8-3.7,5.5h4.5l2-2.2L633.4,9.3z
		 M620.2,9.5v10.6h7.6V9.5H620.2z M627.8,32.6V21.4h-7.6v11.2H627.8z M654.3,9.3c-0.3,0.4-0.9,0.6-1.8,0.8
		c-0.3,16.6-1,25.2-3.2,27.6c-1.4,1.6-3.2,2.2-5.7,2.2c0-1.3-0.2-2.3-0.9-2.9c-0.7-0.7-2.4-1.3-4.4-1.6l0-0.7c2,0.2,5,0.4,6,0.4
		c0.9,0,1.2-0.1,1.7-0.6c1.6-1.5,2.1-10.5,2.4-25.1h-9c-2,3.5-4.3,6.7-6.8,9L632,18c2.5-4.3,5-11.1,6.3-17.6L644,2
		c-0.2,0.5-0.7,0.9-1.6,0.9c-0.6,1.8-1.4,3.6-2.3,5.3h7.9l2.3-2.4L654.3,9.3z M636,16.9c11.5,4.1,7.8,12.3,3.9,9.1
		c-0.3-2.9-2.4-6.5-4.3-8.8L636,16.9z"/>
	<path class="st0" d="M680.4,39c0,0.3-1.2,1-3.2,1h-0.7v-6.9c-3.1,1-7,2.2-12,3.6c-0.2,0.5-0.6,0.8-1.1,0.9l-2.1-4.6
		c1,0,2.5-0.2,4.2-0.3V18.2h-4.3l-0.3-1.2h32.2l2.4-3.2c0,0,2.8,2.2,4.4,3.8c-0.1,0.5-0.6,0.7-1.2,0.7h-18.4V39z M671,14.7
		c0,0.4-1.8,1.2-3.4,1.2h-0.6V1.1l4.3,1.8h18.2l2-2.2l4.3,3.2c-0.3,0.3-0.9,0.7-1.8,0.9v9.5c0,0.3-2.1,1-3.4,1h-0.7V4.1H671V14.7z
		 M669.4,18.2V22h7v-3.8H669.4z M669.4,27.1h7v-3.8h-7V27.1z M669.4,32.4c2.2-0.2,4.6-0.5,7-0.7v-3.4h-7V32.4z M685.6,10.2
		c0,0,1.8,1.4,3,2.4c-0.1,0.5-0.5,0.7-1.1,0.7h-14.4l-0.3-1.2H684L685.6,10.2z M685.6,5.6c0,0,1.8,1.3,3,2.4
		c-0.1,0.5-0.5,0.7-1.1,0.7h-14.4l-0.3-1.2H684L685.6,5.6z M698.6,23c-0.3,0.4-0.7,0.6-1.6,0.6c-1.1,3.2-2.8,6.2-5.1,8.8
		c2.6,1.6,5.6,2.6,9,3.4l0,0.5c-1.7,0.3-2.9,1.7-3.5,3.6c-3.2-1.3-5.9-2.9-8.1-5c-2.3,1.9-5.1,3.5-8.5,4.7l-0.3-0.6
		c2.9-1.6,5.3-3.8,7.1-6.2c-1.9-2.5-3.3-5.8-4.2-9.9H681l-0.3-1.2h11.5l2.4-2.4L698.6,23z M684,23.1c1.2,3.1,2.9,5.6,5.1,7.5
		c1.5-2.4,2.5-4.9,3.2-7.5H684z"/>
	<path class="st0" d="M722.2,22.9c-0.3,0.3-0.8,0.6-1.7,0.7c-0.4,8.1-1.4,12.9-3.2,14.5c-1.2,1-2.8,1.4-4.9,1.4c0-1-0.2-2-0.9-2.5
		c-0.7-0.6-2.3-1.1-4.1-1.4l0-0.6c1.8,0.1,4.9,0.4,5.8,0.4c0.8,0,1.2-0.1,1.5-0.4c1.1-0.9,1.8-5.3,2.1-11.9h-5.7l-1.4,1.6l-3.5-2.3
		c0.4-0.3,0.9-0.6,1.5-0.9c0.4-2.9,0.8-7.7,0.9-10.3l4.2,1.8h3.8V4.3h-9.4l-0.4-1.2h9.4l1.9-2.1l4.1,3.1c-0.3,0.4-0.9,0.8-1.9,0.9
		V15c0,0.3-1.8,0.9-3,0.9h-0.6v-1.8h-4.8c-0.2,2.3-0.5,5.4-0.8,7.7h5.4l2-2L722.2,22.9z M738,28.9c11.4,5.1,8.1,13.3,4.3,10.2
		c-0.2-1.5-0.8-3-1.5-4.5c-4.1,1.1-9.4,2.2-16.5,3.8c-0.3,0.6-0.7,0.9-1.2,0.9l-2.2-4.6c2.2,0,5.9-0.3,10.3-0.6v-7.3h-4.7v1.9
		c0,0.3-1.5,1.1-3,1.1H723V15.7l3.8,1.6h4.4V12c-2.1,0.4-4.2,0.8-6.5,1.2c-0.3,0.5-0.7,0.8-1,0.9l-1.9-4.6c0,0,0.9-0.2,1.2-0.3
		c3-1.8,7-6.6,8.4-9.2l5,2.6c-0.2,0.4-0.7,0.7-1.6,0.5c-2.2,2.1-6.1,4.8-9.6,6.7c3.5-0.1,8.7-0.4,14.3-0.8c-1.1-1.5-2.4-2.8-3.7-3.8
		l0.4-0.3c11.8,2.3,9.2,10.9,5.3,8.3c-0.2-1-0.7-2.1-1.3-3.1c-1.5,0.3-3.4,0.7-5.3,1.2v6h4.4l1.8-1.9l3.8,2.9
		c-0.3,0.3-0.8,0.6-1.6,0.8v8.9c0,0.3-1.9,1-3,1h-0.6v-2.1h-4.8v7l5.3-0.4c-0.8-1.6-1.8-3.1-2.6-4.3L738,28.9z M731.2,25.6v-7.1
		h-4.7v7.1H731.2z M734.8,18.5v7.1h4.8v-7.1H734.8z"/>
	<path class="st0" d="M757.8,2.6c0,0.5-0.2,1.6-0.5,2.9l-0.2,1.4l1.3-0.7c1.4-0.7,2.4-1.4,3-1.4c0.5,0,0.9,0.4,0.9,1
		c0,1-1.1,1.1-3.6,1.4l-1.4,0.2l1,1c1.4,1.3,2.3,2,2.3,2.7c0,0.5-0.4,0.9-0.9,0.9c-0.8,0-1.3-1-2.2-3l-0.6-1.3L756.3,9
		c-0.9,2-1.3,3.1-2.2,3.1c-0.5,0-0.9-0.4-0.9-0.9c0-0.8,0.9-1.4,2.3-2.7l1.1-1L755,7.2c-2.5-0.3-3.6-0.4-3.6-1.4
		c0-0.5,0.4-0.9,1-0.9s1.6,0.6,3,1.3l1.3,0.7l-0.2-1.4c-0.2-1.3-0.5-2.4-0.5-2.9c0-0.7,0.4-1,1-1C757.4,1.6,757.8,1.9,757.8,2.6z"/>
	<path class="st0" d="M777.2,21.3v0.8h-10.3v-0.8l3.8-0.5c0-1.5,0-3,0-4.5V6.2l-3.5,0.4V5.6l5.9-1.4l0.3,0.3l-0.1,3.9v7.9
		c0,1.5,0,3,0,4.5L777.2,21.3z"/>
	<path class="st0" d="M813.6,6.4L809.4,7l-0.1,16.5c0,9.6-4.4,13.6-11.2,13.6c-7,0-11.7-3.6-11.7-12.9v-4.9c0-4.1,0-8.4-0.1-12.6
		l-3.8-0.4V4.9h13.6v1.5l-4.6,0.5c-0.1,4.1-0.1,8.2-0.1,12.5v3.9c0,8,2.9,10.7,7.8,10.7c5.4,0,8.2-3.1,8.1-11.3L807.3,7l-4.9-0.6
		V4.9h11.3V6.4z"/>
	<path class="st0" d="M848.8,6.3l-3.9,0.6l-10,29.7h-2.4L821.6,6.8l-3.4-0.4V4.9h13.3v1.7L827,7l8.1,23.6L842.6,7l-4.4-0.5V4.9h10.7
		V6.3z"/>
	<path class="st0" d="M870.6,4.9c-0.3,0.4-0.9,0.5-1.9,0.6c-1.4,2.6-4.1,7.4-6.2,10c4.7,3.1,6.6,7,6.6,10.5c0,4.2-1.6,6.3-6.2,6.5
		c0-1.1-0.2-2.6-0.6-3c-0.3-0.4-1.2-0.7-2.2-0.9v-0.6h3.1c0.5,0,0.7-0.1,1-0.3c0.7-0.4,1-1.2,1-2.7c0-3.1-1-6.3-3.9-9.4
		c0.9-2.7,2.3-7.8,3-11.2h-5v34.3c0,0.3-1.2,1.3-3.1,1.3h-0.7V1.4l4.4,1.8h4.3l2.2-2.2L870.6,4.9z M889.8,5.4c0,0,2.7,2.1,4.2,3.7
		c-0.1,0.5-0.5,0.7-1.1,0.7h-13.8c-0.1,2.2-0.2,4.4-0.4,6.4h7.3l2.2-2.3l4,3.4c-0.3,0.4-0.9,0.6-1.8,0.8C890,29.7,889,36.1,886.8,38
		c-1.3,1.2-3.1,1.8-5.3,1.8c0-1.2-0.2-2.3-0.8-2.8c-0.7-0.6-2.3-1.2-4.1-1.5l0-0.6c1.8,0.2,4.7,0.4,5.7,0.4c0.7,0,1.1-0.1,1.5-0.5
		c1.4-1.2,2.1-7.5,2.6-17.3h-7.9C877.3,27.2,874,34.9,864,40l-0.3-0.5c9.3-7.6,10.9-17.5,11-29.7h-6.9l-0.3-1.2h20L889.8,5.4z
		 M875.9,0.4c10.7,2.8,6.4,10.6,2.6,7.3c-0.1-2.3-1.5-5.2-3.1-7L875.9,0.4z"/>
	<path class="st0" d="M911.7,32.4c-0.1,0.3-1.6,1.1-2.8,1.1h-0.5v-3.3h-3.7v4.1c0,0.3-1.1,1.1-2.7,1.1h-0.6V3.1l3.8,1.6h2.7l1.8-2
		l3.7,3c-0.3,0.3-0.9,0.7-1.8,0.9V32.4z M904.7,5.9v10.8h3.7V5.9H904.7z M908.4,28.9v-11h-3.7v11H908.4z M937.5,13.1
		c0,0.2-0.7,0.6-1.5,0.9c0.6,0.5,2.3,1.8,3.5,2.8c-0.1,0.5-0.6,0.7-1.1,0.7h-7.7v2.8h2.9l1.7-1.7l3.5,2.6c-0.2,0.3-0.8,0.6-1.5,0.7
		v4.3c0,0.3-1.7,1-2.7,1H934v-1.2h-16.9c-0.3,4.7-1.5,10.2-5.6,14.2l-0.5-0.4c2.7-5.5,2.9-12.2,2.9-17.8v-7.4l3.9,1.6h7.4
		c0-0.9-0.5-1.8-1-2.6c-0.5,0.3-1.5,0.7-2.1,0.7h-0.5V7.7h-4.7v6c0,0.3-1.3,0.9-2.4,0.9H914V5.1l3,1.3h4.2l1.5-1.4l3,2.3
		c-0.2,0.3-0.6,0.5-1.2,0.6v4.6c1.2,0.2,2.1,0.6,2.6,1.1V5.1l3.1,1.3h4l1.5-1.5l3.1,2.4c-0.2,0.3-0.7,0.5-1.3,0.6V13.1z M913.2,4.4
		l-0.3-1.2h8.2l1.7-2.2c0,0,2,1.6,3.2,2.8c-0.1,0.5-0.5,0.7-1,0.7H913.2z M924.9,28.9c0,0,1.6,1.4,2.6,2.4c-0.1,0.5-0.5,0.7-1.1,0.7
		h-4.8v3.4c1.6-0.3,3.5-0.7,5.3-1.1l0.2,0.6c-1.4,0.8-4.1,2.4-7,3.9c-0.3,0.5-0.6,0.9-1,1.1l-2-3.8c1.1-0.6,1.2-0.9,1.2-1.6v-8
		l4.6,0.5c-0.1,0.5-0.4,0.9-1.3,1v2.8h1.9L924.9,28.9z M917.2,22c0,0.9,0,1.8,0,2.7h3.6v-3.2h-3.5V22z M917.2,17.4v2.8h3.5v-2.8
		H917.2z M917.8,8.8c5.4,1.5,3.2,5.5,1.1,3.8c0-1.2-0.8-2.7-1.6-3.5L917.8,8.8z M927.5,17.4h-3.5v2.8h3.5V17.4z M923.9,24.7h3.5
		v-3.2h-3.5V24.7z M926.7,4.4l-0.3-1.2h7.6l1.8-2.3c0,0,2.1,1.7,3.4,2.9c-0.1,0.5-0.5,0.7-1.1,0.7H926.7z M933.7,16.1l1.7-2.1
		c-0.1,0-0.3,0-0.4,0h-0.5V7.7h-4.5v5.7c0,0.3-1.3,0.9-2.5,0.9c0.4,0.7,0.2,1.5-0.3,1.9H933.7z M937.8,35.7c0.9,0.4,1.1,0.7,1.1,1.3
		c0,1.4-1.3,1.9-5.5,1.9h-2.5c-2.7,0-3.2-0.8-3.2-2.9v-9.5l4.5,0.5c-0.1,0.5-0.5,0.9-1.2,1v2.7h2.1l1.6-2.2c0,0,1.8,1.5,2.9,2.7
		c-0.1,0.5-0.5,0.7-1.1,0.7H931v3.3c0,0.5,0.1,0.6,0.9,0.6h1.8c0.7,0,1.4,0,1.7,0c0.3,0,0.5,0,0.7-0.3c0.3-0.4,0.7-1.8,1.1-3.2h0.5
		L937.8,35.7z M930.5,8.8c5.4,1.5,3.2,5.6,1.1,3.8c0-1.2-0.7-2.7-1.6-3.5L930.5,8.8z M930.7,21.4v3.2h3.3v-3.2H930.7z"/>
</g>
</svg>
