<?xml version="1.0" encoding="utf-8"?>
<!-- Generator: Adobe Illustrator 25.0.1, SVG Export Plug-In . SVG Version: 6.00 Build 0)  -->
<svg version="1.1" id="レイヤー_1" xmlns="http://www.w3.org/2000/svg" xmlns:xlink="http://www.w3.org/1999/xlink" x="0px"
	 y="0px" viewBox="0 0 557.2 47.4" style="enable-background:new 0 0 557.2 47.4;" xml:space="preserve">
<style type="text/css">
	.st0{fill-rule:evenodd;clip-rule:evenodd;fill:#1147B4;}
</style>
<path id="PROTECT_UV_" class="st0" d="M29.2,8.6V1H0v7.6h10.2v37.7H19V8.6H29.2L29.2,8.6z M54.9,0C40.6,0,30.7,9.9,30.7,23.7
	s9.9,23.7,24.2,23.7s24.2-9.9,24.2-23.7S69.2,0,54.9,0L54.9,0z M54.9,39.4c-8.8,0-15.1-6.5-15.1-15.6S46,8,54.9,8S70,14.6,70,23.7
	S63.7,39.4,54.9,39.4L54.9,39.4z M96.1,46.4V16.1l27.6,30.3h6.1V1H121v30.3L93.4,1h-6.1v45.4H96.1L96.1,46.4z M165.3,1h-25.2v45.4
	h25.2v-7.6H149V26.4h15.6v-7.6H149V8.6h16.3L165.3,1L165.3,1z M189.7,1v27.7c0,4.3,0.7,8.6,3.4,12.1c3.3,4.3,9,6.5,14.8,6.5
	s11.6-2.2,14.8-6.5c2.7-3.5,3.4-7.8,3.4-12.1V1h-8.8v28.5c0.1,2.4-0.6,4.8-2.2,6.7c-3.7,4-10,4.2-14,0.5c-0.2-0.2-0.3-0.3-0.5-0.5
	c-1.5-1.9-2.3-4.3-2.2-6.7V1H189.7L189.7,1z M236.5,1v45.4h8.8V29.6h5.7c5.2,0,9-1.5,11.5-4c3.5-3.5,3.7-8.4,3.7-10.1
	c0.1-4.1-1.6-8.1-4.6-11c-3.3-2.9-6.9-3.5-12-3.5L236.5,1L236.5,1z M245.3,8.6h3.1c2.1,0,4.4,0.1,6.3,1.4c1.6,1.2,2.6,3.1,2.5,5.2
	c0,2-0.9,4-2.4,5.3c-1.7,1.1-3.7,1.6-5.8,1.4h-3.6L245.3,8.6L245.3,8.6z M284.6,1v27.7c0,4.3,0.7,8.6,3.4,12.1
	c3.3,4.3,9,6.5,14.8,6.5s11.6-2.2,14.8-6.5c2.7-3.5,3.4-7.8,3.4-12.1V1h-8.8v28.5c0.1,2.4-0.6,4.8-2.2,6.7c-3.7,4-10,4.2-14,0.5
	c-0.2-0.2-0.3-0.3-0.5-0.5c-1.5-1.9-2.3-4.3-2.2-6.7V1H284.6L284.6,1z M329,1l19,45.4h5.3L372.6,1h-9.7l-12.1,30.5L338.7,1H329
	L329,1z M410.3,8.9c-2-3.9-6.1-6.2-10.5-6.1c-7.7,0-11,5.7-11,10.7c0,1.7,0.5,3.4,1.4,4.9c1.5,2.5,3.6,3.6,7.9,5.7
	c3.6,1.7,6.1,3,7.3,3.7c3.3,2,4.2,4.5,4.2,6.8c0,5.7-4.6,9.9-10.4,9.9c-3.1,0-6.1-1.3-8.1-3.7c-1-1.2-1.8-2.6-2.3-4.1l-2.5,1.2
	c0.6,1.7,1.6,3.3,2.8,4.7c2.4,3,6.1,4.7,10,4.5c7.4,0,13.4-5.4,13.4-12.6c0.1-3.4-1.7-6.6-4.6-8.3c-2.2-1.5-4.3-2.5-8.6-4.5
	c-4.3-2.1-7.6-3.7-7.6-8.3c-0.2-4.2,3.1-7.8,7.3-8c0.2,0,0.5,0,0.7,0c3.6,0,6.9,2,8.5,5.3L410.3,8.9z M443.5,3.3h-20.7v43.1h20.7
	v-2.6h-17.8V24.1h17.4v-2.6h-17.4V5.9h17.8L443.5,3.3L443.5,3.3z M476.5,46.4L462.4,26c1.8,0,3.6-0.3,5.3-0.8
	c5.4-1.8,7.2-6.2,7.2-10.5c0.2-3.6-1.5-7.1-4.5-9.2c-2.8-1.9-5.8-2.2-9.1-2.2h-6.2v43.1h2.8V26h1.3l14,20.3L476.5,46.4L476.5,46.4z
	 M458,5.9h3.6c1.7,0,4.8,0.3,6.6,1.3c1.7,0.9,3.8,3.2,3.8,7.5c0,5.6-3.7,8.8-9.8,8.8H458L458,5.9L458,5.9z M486.8,3.3v43.1h2.8V3.3
	L486.8,3.3L486.8,3.3z M523.2,3.3h-20.7v43.1h20.7v-2.6h-17.8V24.1h17.4v-2.6h-17.4V5.9h17.8L523.2,3.3L523.2,3.3z M555,8.9
	c-2-3.9-6.1-6.2-10.5-6.1c-7.7,0-11,5.7-11,10.7c0,1.7,0.5,3.4,1.4,4.9c1.5,2.5,3.6,3.6,7.9,5.7c3.6,1.7,6.1,3,7.3,3.7
	c3.3,2,4.2,4.5,4.2,6.8c0,5.7-4.6,9.9-10.4,9.9c-3.1,0-6.1-1.3-8.1-3.7c-1-1.2-1.8-2.6-2.3-4.1l-2.5,1.2c0.6,1.7,1.6,3.3,2.8,4.7
	c2.4,3,6.1,4.7,10,4.5c7.4,0,13.4-5.4,13.4-12.6c0.1-3.4-1.7-6.6-4.6-8.3c-2.2-1.5-4.3-2.5-8.6-4.5c-4.3-2.1-7.6-3.7-7.6-8.3
	c-0.2-4.2,3.1-7.8,7.3-8c0.2,0,0.5,0,0.7,0c3.6,0,6.9,2,8.5,5.3L555,8.9z"/>
</svg>
